<svg version="1.1" id="Layer_1" xmlns="http://www.w3.org/2000/svg" x="0" y="0" viewBox="0 0 250.2 101.1" style="enable-background:new 0 0 250.2 101.1" xml:space="preserve"><style>.st0{fill:#d0d6d8}.st1{fill:#e7f1f2}.st2{fill:#e12229}.st3{opacity:.32;fill:#231f20}.st4{fill:#8b22e2}.st5{fill:#e5e6e6}.st6{fill:#fff}.st8{display:inline}</style><switch><g><ellipse transform="rotate(-66.442 60.431 38.939)" class="st0" cx="60.4" cy="38.9" rx="1.7" ry="20.8"/><ellipse transform="rotate(-66.442 60.66 38.415)" class="st1" cx="60.7" cy="38.4" rx="1.1" ry="20.8"/><path class="st2" d="M84.6 19.8s1.3 5.8.8 9.5c0 0 .1 2.7-1.1 5.1l-25-11.6-10.6-4.9S54.2 6.6 68.9 2.7s21.8 5.6 21.8 5.6 2.8 3.1 3.7 9.2c1.1 6.9 1.5 11.9.7 13.9L90 32.5l-2.9-12.9-.1-.5v-.2s-1.2-2.3-2.4.9z"/><path class="st3" d="M84.4 34.4 59.3 22.8l-9-4.5s8.6 2.3 16.7 4 15.9 8.4 16.4 7.8c.5-.6.6-6.1.6-8.7s-3.6-5.2-5.2-4.2c-1.7.9-7.9-2-7.9-2s4-1.8 6.7-.7c2.8 1.1 2.9-.5 2.9-.5.9-2-4.6-6.7-4.6-6.7 4.9.9 6.1 4.2 6.8 7.3.7 3.1 2.2 2.2 2.2 2.2 2.6-.5 1.9-6.3 1.9-6.3l1.5 2.5 1.7-1s-.2.3-1.9 2.2c-1.5 1.7-1.3 4-1.1 5v-.3s-1.2-2.3-2.3.9c0 0 1.3 5.8.8 9.5 0 0 .1 2.7-1.1 5.1z"/><path class="st0" d="M99.2 40.9c-.3.8-.8 1.5-1.4 2.1-2 2-5.1 2.8-7.8 1.6-3.5-1.5-5.2-5.7-3.6-9.2.7-1.7 2-2.9 3.6-3.6 1.7-.8 3.8-.8 5.6 0 3.5 1.4 5.1 5.5 3.6 9.1z"/><path class="st1" d="M99.2 40.9c-.3.8-.8 1.5-1.4 2.1-1.7.8-3.8.8-5.6 0-3.5-1.5-5.2-5.7-3.6-9.2.3-.8.8-1.5 1.4-2.1 1.7-.8 3.8-.8 5.6 0 3.5 1.5 5.1 5.6 3.6 9.2z"/><g><path class="st4" d="M68 101.1H3c-1.6 0-3-1.3-3-3v-65c0-1.7 1.3-3 3-3h65c1.7 0 3 1.3 3 3v65c0 1.7-1.3 3-3 3z"/><path class="st5" d="M60 36.5H11.5c-2.6 0-4.6 2.1-4.6 4.6v48.4c0 2.6 2.1 4.6 4.6 4.6H60c2.6 0 4.6-2.1 4.6-4.6V41.1c0-2.6-2.1-4.6-4.6-4.6zM53.2 77c0 .9-.8 1.7-1.7 1.7-.9 0-1.7-.8-1.7-1.7v-8c0-.7-.6-1.3-1.3-1.3h-.1c-.7 0-1.3.6-1.3 1.3v10c.1 2.7-2 4.9-4.7 5-2.7.1-4.9-2-5-4.7v-18c0-.8-.6-1.4-1.4-1.4h-.1c-.8 0-1.4.6-1.4 1.4v13c0 2.7-2.1 4.9-4.8 4.9-2.7 0-4.9-2.1-4.9-4.8v-5.3c0-.7-.6-1.3-1.3-1.3h-.2c-.7 0-1.3.6-1.3 1.3v13c0 1-.9 1.7-1.9 1.7-.9 0-1.7-.8-1.7-1.7V69.2c0-2.7 2.2-4.8 4.8-4.8 2.7 0 4.8 2.2 4.8 4.8v5.1c0 .8.6 1.5 1.4 1.5h.1c.8 0 1.4-.6 1.4-1.4v-13c.1-2.7 2.3-4.8 5-4.7 2.6.1 4.6 2.2 4.7 4.7v17.8c0 .8.6 1.4 1.4 1.4.8 0 1.4-.6 1.4-1.4v-9.9c0-2.7 2.2-4.8 4.8-4.8 2.7 0 4.8 2.2 4.8 4.8l.2 7.7zM23 55.8c1.9 0 3.5 1.6 3.5 3.5S25 62.9 23 62.9s-3.5-1.6-3.5-3.5c0-2 1.6-3.6 3.5-3.6zm-2.4-10.4v-3.8c0-.6.5-1 1-1h1.5c.6 0 1 .5 1 1v3.8c0 .6-.5 1-1 1h-1.5c-.5 0-1-.5-1-1zm11.8 6c0-1.9 1.6-3.5 3.5-3.5s3.5 1.6 3.5 3.5-1.6 3.5-3.5 3.5c-2 0-3.5-1.6-3.5-3.5zm16 4.4c1.9 0 3.5 1.6 3.5 3.5s-1.6 3.5-3.5 3.5-3.5-1.6-3.5-3.5 1.6-3.5 3.5-3.5zm-.9-10.4v-3.8c0-.6.5-1 1-1H50c.6 0 1 .5 1 1v3.8c0 .6-.5 1-1 1h-1.5c-.5 0-1-.5-1-1z"/><path class="st6" d="M56.4 40.1H15.2c-2.5 0-4.6 2.1-4.6 4.6v41.2c0 2.5 2 4.6 4.6 4.6h41.2c2.5 0 4.6-2.1 4.6-4.6V44.7c0-2.5-2.1-4.6-4.6-4.6zm-8.9 1.4c0-.6.5-1 1-1H50c.6 0 1 .5 1 1v3.8c0 .6-.5 1-1 1h-1.5c-.6 0-1-.5-1-1v-3.8zm.9 14.3c1.9 0 3.5 1.6 3.5 3.5s-1.6 3.5-3.5 3.5-3.5-1.6-3.5-3.5 1.6-3.5 3.5-3.5zm-12.5-7.9c1.9 0 3.5 1.6 3.5 3.5s-1.6 3.5-3.5 3.5-3.5-1.6-3.5-3.5c-.1-1.9 1.5-3.5 3.5-3.5zm-15.3-6.4c0-.6.5-1 1-1h1.5c.6 0 1 .5 1 1v3.8c0 .6-.5 1-1 1h-1.5c-.6 0-1-.5-1-1v-3.8zM23 55.8c1.9 0 3.5 1.6 3.5 3.5S25 62.9 23 62.9s-3.5-1.6-3.5-3.5c0-2 1.6-3.6 3.5-3.6zM53.2 77c0 .9-.8 1.7-1.7 1.7-.9 0-1.7-.8-1.7-1.7v-8c0-.7-.6-1.3-1.3-1.3h-.1c-.7 0-1.3.6-1.3 1.3v10c.1 2.7-2 4.9-4.7 5-2.7.1-4.9-2-5-4.7v-18c0-.8-.6-1.4-1.4-1.4h-.1c-.8 0-1.4.6-1.4 1.4v13c0 2.7-2.1 4.9-4.8 4.9-2.7 0-4.9-2.1-4.9-4.8v-5.3c0-.7-.6-1.3-1.3-1.3h-.2c-.7 0-1.3.6-1.3 1.3v13c0 1-.9 1.7-1.9 1.7-.9 0-1.7-.8-1.7-1.7V69.2c0-2.7 2.2-4.8 4.8-4.8s4.8 2.2 4.8 4.8v5.1c0 .8.6 1.4 1.4 1.4h.1c.8 0 1.4-.6 1.4-1.4v-13c.1-2.7 2.3-4.8 5-4.7 2.6.1 4.6 2.2 4.7 4.7v17.8c0 .8.6 1.4 1.4 1.4.8 0 1.4-.6 1.4-1.4v-9.9c0-2.7 2.2-4.8 4.8-4.8 2.7 0 4.8 2.2 4.8 4.8l.2 7.8z"/><path class="st6" d="M21.9 33.4h.9c.7 0 1.3.6 1.3 1.3V41c0 .7-.6 1.3-1.3 1.3h-.9c-.7 0-1.3-.6-1.3-1.3v-6.2c0-.8.6-1.4 1.3-1.4zM48.9 33.4h.9c.7 0 1.3.6 1.3 1.3V41c0 .7-.6 1.3-1.3 1.3h-.9c-.7 0-1.3-.6-1.3-1.3v-6.2c-.1-.8.5-1.4 1.3-1.4z"/><path class="st4" d="M89.6 81.2h-6.4V49.1H96c1.1 0 2.3.1 3.4.5 1.1.3 2.1.7 3.1 1.3 1.9 1.1 3.5 2.7 4.6 4.6 3.6 6.1 1.5 14-4.6 17.5-.5.3-1 .5-1.5.8-1.6.7-3.3 1-5 1h-6.4v6.4zm0-25.7v12.8H96c.9 0 1.7-.2 2.5-.5 3.3-1.4 4.8-5.2 3.4-8.4-.7-1.5-1.9-2.8-3.4-3.4-.8-.3-1.6-.5-2.5-.5h-6.4zM118 50.7c0 .5-.1 1.1-.3 1.6-.2.5-.5.9-.9 1.3s-.8.7-1.3.9c-2.1.9-4.5-.1-5.4-2.2-.9-2.1.1-4.5 2.2-5.3 1-.4 2.2-.4 3.2 0 .5.2.9.5 1.3.9s.7.8.9 1.3c.2.4.3.9.3 1.5zm-1 30.5h-6.2v-24h6.2v24zM141.4 62l-4.5 4.5c-.2-.6-.5-1.2-.9-1.7s-.8-.9-1.3-1.3c-.5-.3-1-.6-1.6-.8-.6-.2-1.2-.3-1.7-.3-.8 0-1.6.2-2.4.5-.7.3-1.4.8-1.9 1.4-.6.6-1 1.4-1.3 2.2-.3.9-.5 1.9-.5 2.8 0 .8.2 1.6.5 2.3.3.7.7 1.4 1.3 1.9 1.1 1.1 2.7 1.8 4.3 1.8.6 0 1.2-.1 1.7-.2.5-.2 1.1-.4 1.6-.7 1-.6 1.8-1.5 2.2-2.6l4.5 4.5c-.6.8-1.2 1.5-2 2.2-.7.6-1.5 1.2-2.4 1.6-.9.4-1.8.8-2.7 1-1 .2-1.9.4-2.9.4-1.6 0-3.3-.3-4.8-1-2.9-1.2-5.3-3.6-6.5-6.5-.6-1.5-1-3.1-1-4.7 0-1.8.3-3.5 1-5.2.6-1.5 1.5-3 2.6-4.2 1.1-1.2 2.4-2.1 3.9-2.8 1.5-.7 3.1-1 4.8-1 1 0 2 .1 2.9.4 1 .3 1.9.6 2.8 1.1.9.5 1.7 1.1 2.4 1.8.8.8 1.4 1.7 1.9 2.6zM149.4 81.2h-6.2V47.6h6.2v21.1l9.1-11.6h7l-7.9 10 8 13.9h-7l-4.9-8.7-4.3 5.6v3.3z"/><path class="st4" d="M178.9 81.2c-1.4 0-2.8-.3-4.2-.8-2.6-1.1-4.6-3.1-5.7-5.7-.6-1.3-.8-2.7-.8-4.2v-7.1h-3v-6.1h3v-9.6h6.1v9.6h9.3v6.1h-9.3v7.1c0 1.9 1.1 3.6 2.8 4.3.6.2 1.2.4 1.8.4h4.6v6.1l-4.6-.1zM193 50.7c0 .5-.1 1.1-.3 1.6-.2.5-.5.9-.9 1.3s-.8.7-1.3.9c-2.1.9-4.5-.1-5.4-2.2-.4-1-.4-2.2 0-3.2s1.2-1.8 2.2-2.2c1-.4 2.2-.4 3.2 0 .5.2.9.5 1.3.9.7.8 1.2 1.8 1.2 2.9zm-1.1 30.5h-6.2v-24h6.2v24zM225.9 81.2h-6.1V65.9c0-.4-.1-.8-.2-1.2-.5-1.1-1.6-1.9-2.8-1.9-.4 0-.8.1-1.2.2-.4.2-.7.4-1 .7-.3.3-.5.6-.6 1-.2.4-.2.8-.2 1.2v15.2h-6.1V65.9c0-1.2-.7-2.3-1.9-2.8-.4-.2-.8-.2-1.2-.2-.8 0-1.6.3-2.1.9-.3.3-.5.6-.6 1-.2.4-.2.8-.2 1.2v15.2h-6.1v-24h1.5l1.7 1.8c.8-.7 1.8-1.3 2.8-1.7 1-.4 2.1-.6 3.2-.6s2.2.2 3.3.6c1.1.5 2.1 1.2 2.8 2.2.4-.5.8-.9 1.3-1.3s1-.6 1.5-.9c.5-.2 1.1-.4 1.6-.5.6-.1 1.1-.1 1.7-.1 1.2 0 2.4.2 3.6.7 3.4 1.4 5.6 4.8 5.6 8.5l-.3 15.3zM238.8 75.3c.2.1.5.1.7.1h.7c.6 0 1.2-.1 1.7-.2.5-.2 1.1-.4 1.6-.7 1-.6 1.8-1.5 2.2-2.6l4.5 4.5c-.6.8-1.2 1.5-2 2.2-.7.6-1.5 1.2-2.4 1.6-.9.4-1.8.8-2.7 1-1 .2-1.9.4-2.9.4-5 0-9.4-3-11.3-7.6-.6-1.6-1-3.4-.9-5.1 0-1.8.3-3.5 1-5.2 1.2-3 3.5-5.4 6.5-6.6 1.5-.6 3.1-.9 4.8-.9 1 0 2 .1 2.9.4 2.9.7 5.4 2.4 7.1 4.9l-11.5 13.8zm3.1-12.6c-.3-.1-.6-.2-.8-.2h-.9c-.8 0-1.6.2-2.4.5-.7.3-1.4.7-1.9 1.3-.6.6-1 1.3-1.3 2-.3.9-.5 1.8-.5 2.7v.8c0 .3.1.6.1.9.1.3.1.6.2.8.1.2.2.5.3.7l7.2-9.5z"/></g><g><path class="st1" d="M83 45.7c-3 3.3-7.5.3-7.5.3s-3.9-2.4-11.3-6.2c-7.4-3.8-21-7.9-21-7.9-3.6-2-3.3-4.5-2.9-5.7 0-.1.1-.2.1-.4l.3-1.5c1.4-8.6 7.8-6.5 7.8-6.5 11.4 2.3 34.2 13.9 37.1 16.7.2.2.4.4.6.7 2.1 3-.4 7.5-3.2 10.5z"/><path class="st0" d="M83 45.7c-3 3.3-7.5.3-7.5.3s-3.9-2.4-11.3-6.2c-7.4-3.8-21-7.9-21-7.9-3.6-2-3.3-4.5-2.9-5.7 0-.1.1-.2.1-.4 1.3 1.3 3.5 2.5 7.2 3.6 11.8 3.4 21.5 8.3 28.1 12.5 6.6 4.3 9.3-2.4 10.6-6.8 2 3.1-.5 7.6-3.3 10.6z"/></g></g></switch></svg>