<?xml version="1.0" encoding="utf-8"?>
<!-- Generator: Adobe Illustrator 24.3.0, SVG Export Plug-In . SVG Version: 6.00 Build 0)  -->
<svg version="1.1" id="Layer_1" xmlns="http://www.w3.org/2000/svg" xmlns:xlink="http://www.w3.org/1999/xlink" x="0px" y="0px"
	 viewBox="0 0 650 112" style="enable-background:new 0 0 650 112;" xml:space="preserve">
<style type="text/css">
	.st0{fill:#FFFFFF;}
</style>
<path class="st0" d="M652.4,95.9l-0.2,22.1H-7.3l-0.1-36l15.1,2.9c1,0.2,2.1-0.2,2.7-1l4.5-5.6c-0.2,0.1-5.3,3.1-4.9,0.2
	c0,0,4.1-6.4,7.7-10.1c0,0-3.6,1.2-3.8-0.2c0,0,7.9-7.2,8.4-12.2c0,0,1.3-1.6,2.3,0.8c0,0,3.7,8.3,8.1,10.9c0,0,1.2,2-3.3,0.7l5,6.7
	c0,0,2.8,3,2.1,4.7c0,0-2.5-0.1-4.7-1.8l5.4,7.1c0,0,0.4,0.7,0.8,1.7c0.5,1.4,1.7,2.4,3.1,2.6l10.7,1.2c2,0.2,3.1-0.2,3.8-1l1.5-1.8
	l-0.3-0.3c0,0-2,1.9-1.6,0l3.1-3.9c0,0-2,0.6-1.3-0.4c0,0,2.8-2.7,3.2-4.7c0,0,0.4-1,1.1,0.4c0,0,1.4,3.2,3.4,4.4
	c0,0,0.6,0.6-1.2,0.5l2.7,3.6c0,0,0.8,1.8-1.6,0.4c0,0,0.8,1.1,1.6,2.3c0.7,1.1,1.9,1.9,3.2,2c4.1,0.3,12.6,0.9,16.9,1.3
	c0.9,0.1,1.8-0.3,2.4-0.9l1.4-1.5c0,0-3.8,1.8-3.3,0.2c0,0,1.5-3.2,5-6.6c0,0-2.8,0.7-2.3-0.5c0,0,4.9-5,5.6-7.9
	c0,0,0.7-1.1,1.3,0.3c0,0,2.4,5.4,5.4,7.3c0,0,1.1,1.3-2,0.7l4.6,5.9c0,0,1.2,2.2-1.4,1.5l-1.6-1l1.9,2.5c0.7,0.9,1.7,1.4,2.8,1.5
	l8.3,0.6c1.2,0.1,2.4-0.5,3.2-1.4l6.4-8.4c-0.2,0.2-4.2,3.2-6.4,2.5c0,0-1.5-0.5,0.2-3l3.3-4.7l6.5-8.2c-0.2,0.1-5.4,2.2-5.2-0.3
	c0,0,9.4-7.4,11.6-16.1c0,0,1.7-3.1,3.3-0.1c0,0,2.8,8.7,8.9,13.6c0,0,10.7-12.3,11-13.9c0,0-5,3.7-9.4,2.3c0,0-2.6-0.7-0.4-3.1
	c0,0,12.2-7.1,21.5-29.6c0,0,2.6-7.2,6.2-2.2l1.2,3.5c0,0,3.6,11.1,14.3,22l6.7,6.4c0,0,3.7,3.2-1,3.2c0,0-4.7,0.5-8.4-2.6l5.4,7.7
	c0,0,15.4,16.8,15.7,22.1c0,0,1.1,3.4-4.1,2.1c0,0-7.5-2.1-9.7-5.3c1,1.6,5.6,8.7,9,12c0.7,0.7,1.7,1,2.6,0.8l45.1-6.6
	c0.7-0.1,1.3-0.5,1.7-1c1.3-1.9,4.3-6.2,5.7-7.3c-1.3,0.8-5.6,3.1-5.1,0.5c0,0,1.5-4.1,8-11c0,0-5.1,2-3.8-0.7c0,0,6.1-4.7,8.2-10.7
	c0,0,1.5-4.9,3.1-1.1c0,0,3.9,9,8.5,11.7c0,0,1.2,1.9-2.2,1.2l-1.8-0.9c0.3,0.3,8.5,9.8,8.3,11.9c0,0-0.6,2.2-5.2-1.5l2.4,3.3
	c0.3,0.5,0.9,0.7,1.5,0.6c6.5-0.9,46.5-6.6,56.3-5.9c0,0,1.7-2,1.7-2.2c0,0-2.5,1.3-2,0.1c0,0,1.1-2.5,3.1-4c0,0-2.2,0.3-1.2-0.7
	c0,0,2.4-2.2,3.3-4.6c0,0,0.6-1.5,1.4,0.8c0,0,0.9,2.7,2.8,3.8c0,0,1,0.9-1.2,0.6c0,0,2.9,3.4,3,3.9c0,0,0.7,1.6-1.7,0.2l0.6,1
	c0.2,0.3,0.6,0.5,1,0.5l3.5,0c0.7,0,1.4-0.4,1.8-1c0.9-1.5,2.7-4.4,3.7-5.1c-0.6,0.4-3.7,2.1-3.2,0c0,0,1.5-3.1,4.9-6.6
	c0,0-3.3,1.5-2.3-0.4c0,0,4.3-3.2,5.6-7.9c0,0,0.9-1.6,1.7,0.6c0,0,2.4,5.6,5.4,7.3c0,0,0.8,1.2-2.3,0.3l1.9,2.5l2.7,3.5
	c0,0,1.4,2.5-1.4,1.5l-1.6-1c0.1,0.2,2.4,2.8,3.5,4.6c0.5,0.9,1.5,1.5,2.6,1.5l22.9,0.8c1,0,2-0.4,2.7-1.2c2.6-3,9.1-10.8,10.1-12.7
	c0,0-11.6,8.6-13.9,4.1c0,0-1-4.5,8.8-15c0,0,12.3-14.8,12.3-15.5c0,0-7.9,4.4-10.8,0.9c0,0,2-3.5,5.5-5.7c0,0,14.8-14.7,17.2-26.4
	c0,0,2.7-6.6,6.1-1c0,0,9.9,23.8,21.6,30.7c0,0,5.5,4.7-3.4,3.5c0,0-4.2-1-5.4-2.1l12.6,16c0,0,9-9.5,9.9-15.3c0,0,1.8-4.4,3.8,0.4
	c0,0,6.8,14.3,12.6,16.8c0,0,3,4.6-5.7,1l6.2,7.7c0,0,8.5,9.3,5.3,10.8c0,0-3.4,0.4-7.3-3c0.3,0.3,8.9,10.6,9.7,13.4l8.4,0.9
	l3.3-4.1c-0.2,0.2-4.9,3.3-5.3,1.1c0,0,0.2-2.6,8-11c0,0-4.9,1.1-3.8-0.8c0,0,6.9-6.1,8.7-11.8c0,0,1.4-3.7,2.8,0.1
	c0,0,3,8,8.4,11.6c0,0,1.6,2.3-3.7,0.6l5.4,6.9c0,0,5.8,6.2,0.7,5.2c0,0-2.4-0.8-3.3-2l5.8,8l10.9,1.8l1-1.4c0,0-2.5,1.6-2-0.2
	l3.1-3.8c0,0-1.9,0.6-1.4-0.2c0,0,3.4-3.2,3.4-4.9c0,0,0.7-1.1,1.2,0.8c0,0,1.6,3.3,3.3,4.1c0,0,0.5,0.8-1.7,0.4c0,0,3.2,3,3.2,4.4
	c0,0-0.3,0.6-1.9-0.1c0,0,1.7,1.6,2.3,3.2c0,0,18.7,2.7,22.2,3.8l4.2-5.3c-0.2,0.1-5,3.1-5.4,0.8c0,0-0.4-1.6,8.3-11.1
	c0,0-5,1.4-3.8-0.5c0,0,7.8-7.2,8.6-12.2c0,0,1.3-3.3,2.8,0.1c0,0,2.8,8.1,7.9,11.1c0,0,3.2,3.4-2.9,1.1l1.5,2.5
	c0,0,7.1,7.6,6.2,9.3c0,0-0.9,1.7-5-1.6l1.2,2.1c0,0,3.7,4.4,5,7.4c0.3,0.6,0.8,1.1,1.5,1.2c1.1,0.3,2.7,0.7,4,1.1
	c0.3,0.1,0.6,0.1,0.8,0.1c1.1,0,4-0.1,6.4-1c0.6-0.2,1.1-0.7,1.4-1.2c1.1-2,4.1-7.1,6.7-9.2c-0.3,0.2-5.7,3.2-5.3,0.4
	c0,0,4.5-6.9,8.5-11.3c-0.2,0.1-5.6,2.4-4.2-0.3c0,0,6.8-5.6,8.9-12.5c0,0,1.5-2.2,2.7,0.8c0,0,3.7,8.8,8.3,11.3c0,0,2,2.9-3.6,0.8
	l5.9,7.4c0,0,4.7,5.6,0.5,5c0,0-2.1-0.5-3.1-1.7l3.7,5.1L652.4,95.9z"/>
</svg>
