<svg xmlns="http://www.w3.org/2000/svg" width="505" height="400"><defs><clipPath id="a"><path transform="translate(744 695)" stroke="#707070" fill="#fff" d="M0 0h505v400H0z"/></clipPath><filter id="b" x="166.325" y="133.403" width="363.385" height="205.291" filterUnits="userSpaceOnUse"><feOffset dx="3" dy="3"/><feGaussianBlur stdDeviation="10" result="c"/><feFlood flood-opacity=".349"/><feComposite operator="in" in2="c"/><feComposite in="SourceGraphic"/></filter><style>.m,.s,.u,.z{stroke-miterlimit:10}.f{fill:#d1d3d3}.g{fill:#e6e7e8}.h{fill:#afe9d7}.i{fill:#ffffb4}.j{fill:#c481c7;opacity:.61}.m,.s,.u,.z{fill:none}.m{stroke:#bcbec0;stroke-width:2px}.n{fill:#84c8c6}.o{fill:#ffd88c}.p{fill:#c382c5}.s{stroke:#fdfeff}.s,.u,.z{stroke-linecap:round}.s{stroke-width:5px}.u{stroke:#939598;stroke-width:12px}.w{font-size:19px;font-family:MyriadPro-Regular,Myriad Pro}.x{letter-spacing:-.01em}.z{stroke:#f1f2f2;stroke-width:18px;opacity:.42}.aa{fill:#fdfeff;opacity:.44}</style></defs><g transform="translate(-744 -695)" clip-path="url(#a)"><g transform="translate(749.696 695.105)"><rect width="325.599" height="657.009" rx="40.74" stroke-miterlimit="10" stroke="#6d6e71" fill="#1a1b39"/><rect width="306.169" height="617.815" rx="40.74" transform="translate(9.711 19.601)" fill="#fff"/><path d="M111.443 18.596h120.16v10.716a11.574 11.574 0 01-11.578 11.574h-97.008a11.574 11.574 0 01-11.574-11.574z" fill="#1a1b39"/><circle class="f" cx="4.962" cy="4.962" r="4.962" transform="translate(141.04 617.832)"/><circle class="f" cx="4.962" cy="4.962" r="4.962" transform="translate(158.86 617.603)"/><circle class="f" cx="4.962" cy="4.962" r="4.962" transform="translate(176.679 617.603)"/><path class="g" d="M14.844 52.566h54.732v36.357H14.844z"/><rect class="g" width="54.732" height="43.281" rx="17.76" transform="translate(14.95 153.726)"/><rect class="g" width="54.732" height="43.281" rx="17.76" transform="translate(15.996 211.303)"/><rect class="g" width="54.732" height="43.281" rx="17.76" transform="translate(14.402 267.605)"/><rect class="g" width="54.732" height="43.281" rx="17.76" transform="translate(14.402 320.057)"/><path class="g" d="M74.268 52.566h236.487v36.357H74.268z"/><rect class="h" width="236.07" height="40.281" rx="16.97" transform="translate(74.579 153.726)"/><rect class="g" width="54.732" height="43.281" rx="17.76" transform="translate(14.893 424.969)"/><rect class="h" width="236.07" height="40.281" rx="16.97" transform="translate(74.53 424.969)"/><rect class="i" width="236.07" height="40.281" rx="16.97" transform="translate(73.532 211.647)"/><rect class="g" width="54.732" height="43.281" rx="17.76" transform="translate(16.969 528.834)"/><rect class="i" width="236.07" height="40.281" rx="16.97" transform="translate(74.505 529.178)"/><rect class="j" width="236.07" height="40.281" rx="16.97" transform="translate(71.947 269.109)"/><rect class="g" width="54.732" height="43.281" rx="17.76" transform="translate(15.939 477.527)"/><rect class="j" width="236.07" height="40.281" rx="16.97" transform="translate(73.483 479.023)"/><rect width="236.07" height="40.281" rx="16.97" transform="translate(74.039 321.553)" fill="#d5f1ae"/><rect class="g" width="54.732" height="43.281" rx="17.76" transform="translate(14.893 371.242)"/><rect width="236.07" height="40.281" rx="16.97" transform="translate(74.53 372.738)" opacity=".6" fill="#656565"/><path class="m" d="M28.339 61.002l-7.128 9.743 7.128 9.367M50.081 61.002l7.119 9.743-7.119 9.368"/><path class="n" d="M84.207 153.726h30.635v40.281H84.191a9.629 9.629 0 01-9.629-9.629v-21.022a9.629 9.629 0 019.645-9.629z"/><path class="o" d="M83.161 211.647h30.652v40.281H83.161a9.629 9.629 0 01-9.629-9.629v-21.023a9.629 9.629 0 019.629-9.629z"/><path class="p" d="M85.81 269.109h22.176a4.242 4.242 0 014.242 4.242v31.8a4.242 4.242 0 01-4.242 4.242H85.81a13.9 13.9 0 01-13.9-13.9v-12.521a13.9 13.9 0 0113.9-13.863z"/><path d="M83.668 321.553h30.652v40.281H83.668a9.629 9.629 0 01-9.629-9.621v-21.031a9.629 9.629 0 019.629-9.629z" fill="#b5d890"/><path d="M84.02 371.789h30.652v40.281H84.02a9.629 9.629 0 01-9.629-9.631V381.41a9.629 9.629 0 019.629-9.621z" fill="#656565"/><path class="n" d="M84.837 424.969h30.652v40.281H84.837a9.629 9.629 0 01-9.629-9.629v-21.023a9.629 9.629 0 019.629-9.629z"/><path class="p" d="M83.202 479.023h30.652v40.281H83.202a9.629 9.629 0 01-9.621-9.662v-20.99a9.629 9.629 0 019.621-9.629z"/><path class="o" d="M84.837 530.338h30.652v40.28H84.837a9.629 9.629 0 01-9.629-9.629v-21.03a9.629 9.629 0 019.629-9.621z"/><path class="s" d="M133.21 166.265h109.645"/><path stroke-width="9" stroke-linecap="round" stroke="#fdfeff" fill="none" stroke-miterlimit="10" d="M163.404 145.226h77.946"/><path class="s" d="M132.393 177.512h77.317"/><path class="u" d="M39.235 224.153h8.247M39.235 235.392h8.247"/><path class="s" d="M134.673 227.316h109.645M133.856 238.563h77.309M133.079 283.626h109.645M132.262 294.865h77.317M133.079 336.069h109.645M132.262 347.317h77.317M133.079 386.306h109.645M132.262 397.545h77.317M133.079 437.818h109.645M132.262 449.065h77.317M132.139 493.539h109.645M131.322 504.787h77.317M137.101 543.694h109.645M136.283 554.942h77.309"/><path class="u" d="M38.679 166.265h8.239M38.679 177.512h8.239"/><rect class="g" width="54.732" height="43.281" rx="17.76" transform="translate(15.547 101.945)"/><rect class="j" width="236.07" height="40.281" rx="16.97" transform="translate(75.183 101.945)"/><path class="j" d="M88.475 101.945h23.336a3.662 3.662 0 013.662 3.662v32.941a3.662 3.662 0 01-3.662 3.662H88.475a13.283 13.283 0 01-13.283-13.285v-13.689a13.283 13.283 0 0113.283-13.291z"/><path class="s" d="M133.815 114.492H243.46M132.997 125.731h77.309"/><path class="u" d="M39.276 114.492h8.247M39.276 125.731h8.247M37.649 282.187h8.239M37.649 293.434h8.239M37.273 336.069h8.247M37.273 347.317h8.247M37.273 386.306h8.247M37.273 397.545h8.247M37.273 440.99h8.247M37.273 452.237h8.247M37.273 490.556h8.247M37.273 501.803h8.247M37.649 544.855h8.239M37.649 556.102h8.239"/><path class="m" d="M9.67 601.549h306.169"/><g transform="translate(-5.7 -.1)" filter="url(#b)"><path class="n" d="M496.711 180.916v104.25a20.525 20.525 0 01-20.524 20.524H213.805a20.288 20.288 0 01-11.958-3.866l-.343-.237a20.435 20.435 0 01-8.174-16.233 1.378 1.378 0 010-.188V180.238a20.508 20.508 0 0120.5-19.838h262.381a20.509 20.509 0 0120.5 19.841c-.008.226 0 .449 0 .675z"/></g><path d="M400.063 305.588H208.124a20.288 20.288 0 01-11.958-3.866l-.343-.237a20.492 20.492 0 01-8.885-16.233h.654a1.381 1.381 0 010-.188V180.136a20.508 20.508 0 0120.5-19.838h5.092l25.511 19.838 135.261 105.116 25.518 19.836z" opacity=".16" fill="#fff"/><text class="w" transform="translate(232.408 270.578)"><tspan class="x" x="0" y="0">L</tspan><tspan y="0">ocation: </tspan><tspan y="0" letter-spacing=".01em">M</tspan><tspan y="0">ain Branch</tspan></text><path class="z" d="M432.472 252.075v46.738M451.346 197.138v101.348"/><circle class="aa" cx="6.621" cy="6.621" r="6.621" transform="translate(425.852 223.899)"/><circle class="aa" cx="6.621" cy="6.621" r="6.621" transform="translate(464.792 277.855)"/><circle class="aa" cx="9.931" cy="9.931" r="9.931" transform="translate(461.482 251.429)"/><circle cx="24.791" cy="24.791" r="24.791" transform="translate(207.878 168.922)" opacity=".31" fill="#fdfeff"/><text class="w" transform="translate(232.408 239.763)"><tspan x="0" y="0">09:00 AM </tspan><tspan class="x" y="0">t</tspan><tspan y="0">o 10:00 AM</tspan></text><text transform="translate(230.659 209.337)" font-size="25" font-family="MyriadPro-Bold,Myriad Pro" font-weight="700"><tspan x="0" y="0">Hai</tspan><tspan class="x" y="0">r</tspan><tspan y="0">cut with Judy</tspan></text></g></g></svg>