<svg xmlns="http://www.w3.org/2000/svg" width="505" height="430"><defs><clipPath id="a"><path transform="translate(747 1638)" stroke="#707070" fill="#fff" d="M0 0h505v430H0z"/></clipPath><filter id="b" x="58.94" y="183.02" width="467.06" height="260.08" filterUnits="userSpaceOnUse"><feOffset dx="3" dy="3"/><feGaussianBlur stdDeviation="10" result="c"/><feFlood flood-opacity=".345"/><feComposite operator="in" in2="c"/><feComposite in="SourceGraphic"/></filter><style>.d,.x,.z{fill:#fff}.c{fill:#1a1b39}.m{font-family:MyriadPro-Regular,Myriad Pro}.f{letter-spacing:.01em}.g{letter-spacing:-.01em}.i{fill:#d1d3d3}.j,.o{fill:#d1d3d4}.j,.n{opacity:.65}.k{fill:#231f20;font-family:MyriadPro-Bold,Myriad Pro;font-weight:700}.k,.m{font-size:25px}.p,.q,.r,.u,.v{fill:none}.p{stroke:#fff;stroke-width:20px}.p,.r,.u,.v{stroke-linecap:round}.p,.q,.r,.u,.v,.x,.z{stroke-miterlimit:10}.q{stroke:#bcbec0;stroke-width:2px}.r,.u,.v{stroke:#d1d3d4}.u{stroke-dasharray:12 6}.v{stroke-dasharray:12 6 12 6}.x{stroke:#ae6fe2}.z{stroke:#7e1fcd}</style></defs><g transform="translate(-747 -1638)" clip-path="url(#a)"><g transform="translate(780.77 1638)"><rect class="c" width="405.03" height="817.28" rx="40.74"/><rect class="d" width="380.86" height="768.53" rx="40.74" transform="translate(12.08 24.38)"/><path class="c" d="M138.62 23.13H288.1V36.7a14.16 14.16 0 01-14.16 14.16H152.78a14.16 14.16 0 01-14.16-14.16z"/><text transform="translate(142.07 87.32)" font-family="MyriadPro-Regular,Myriad Pro" fill="#020202" font-size="32.83"><tspan class="f" x="0" y="0">O</tspan><tspan class="g" y="0">v</tspan><tspan y="0">e</tspan><tspan y="0" letter-spacing=".03em">r</tspan><tspan y="0">view</tspan></text><circle class="i" cx="6.18" cy="6.18" r="6.18" transform="translate(175.44 768.55)"/><circle class="i" cx="6.18" cy="6.18" r="6.18" transform="translate(197.61 768.26)"/><circle class="i" cx="6.18" cy="6.18" r="6.18" transform="translate(219.77 768.26)"/><rect class="j" width="175.34" height="117.64" rx="17.43" transform="translate(25.36 117.82)"/><rect class="j" width="175.34" height="117.64" rx="17.43" transform="translate(210.8 117.82)"/><text class="k" transform="translate(60.55 166.1)"><tspan class="f" x="0" y="0">B</tspan><tspan y="0">oo</tspan><tspan class="f" y="0">k</tspan><tspan y="0">ings</tspan></text><text class="k" transform="translate(249.14 165.91)"><tspan x="0" y="0">R</tspan><tspan class="g" y="0">e</tspan><tspan y="0" letter-spacing="-.02em">v</tspan><tspan y="0">enue</tspan></text><text class="m" transform="translate(88.406 196.01)"><tspan x="0" y="0">100</tspan></text><text class="m" transform="translate(267.736 191.1)"><tspan x="0" y="0">$1000</tspan></text><g class="n"><g class="n"><rect class="o" width="175.34" height="117.64" rx="17.43" transform="translate(23.54 254.28)"/></g><path class="o" d="M52.41 296.62h119.8M65.06 332.42h82.35"/><g class="n"><rect class="o" width="175.34" height="117.64" rx="17.43" transform="translate(206.15 253.25)"/></g><path class="o" d="M233.92 294.16h119.8M246.57 329.97h82.35"/></g><rect class="j" width="177.62" height="117.64" rx="17.43" transform="translate(27.46 408.64)"/><path class="p" d="M55.58 449.56h121.37M68.4 485.36h83.42"/><rect class="j" width="176.79" height="117.64" rx="17.43" transform="translate(210.07 408.64)"/><path class="p" d="M238.07 449.56h120.8M250.83 485.36h83.03"/><rect class="j" width="177.62" height="117.64" rx="17.43" transform="translate(27.46 552.36)"/><path class="p" d="M55.58 593.28h121.37M68.4 629.08h83.42"/><rect class="j" width="176.79" height="117.64" rx="17.43" transform="translate(210.07 552.36)"/><path class="p" d="M238.07 593.28h120.8M250.83 629.08h83.03"/><path class="q" d="M12.08 102.23h380.86M13.91 739.5h380.86"/><g transform="translate(-33.77)" filter="url(#b)"><path class="d" d="M114.72 210.02h349.5A28.78 28.78 0 01493 238.8v142.52a28.78 28.78 0 01-28.78 28.78h-349.5a28.78 28.78 0 01-28.78-28.78V238.8a28.78 28.78 0 0128.78-28.78z"/></g><g class="n"><path class="r" d="M80.51 335.68v6"/><path stroke-dasharray="10.42 5.21" stroke="#d1d3d4" stroke-miterlimit="10" stroke-linecap="round" fill="none" d="M80.51 346.89l.01 13.03"/><path stroke-dasharray="10.42 5.21 10.42 5.21" stroke="#d1d3d4" stroke-miterlimit="10" stroke-linecap="round" fill="none" d="M80.52 362.52v28.67"/><path class="r" d="M80.52 393.79v6l-.01-6"/><path class="u" d="M80.51 387.79l-.02-15.01"/><path class="v" d="M80.49 369.78l-.16-141.05"/><path class="r" d="M80.33 225.72l-.01-6"/></g><g class="n"><path class="r" d="M146.16 220.03v6"/><path class="u" d="M146.17 232.03l.02 15.01"/><path class="v" d="M146.19 250.04l.15 141.06"/><path class="r" d="M146.34 394.1l.01 6"/></g><g class="n"><path class="r" d="M213.42 220.03l.01 6"/><path class="u" d="M213.43 232.03l.02 15.01"/><path class="v" d="M213.45 250.04l.15 141.06"/><path class="r" d="M213.61 394.1v6"/></g><g class="n"><path class="r" d="M308.07 220.03l.01 6"/><path class="u" d="M308.08 232.03l.02 15.01"/><path class="v" d="M308.1 250.04l.15 141.06"/><path class="r" d="M308.26 394.1v6"/></g><g class="n"><path class="r" d="M375 220.03l.01 6"/><path class="u" d="M375.02 232.03l.01 15.01"/><path class="v" d="M375.03 250.04l.16 141.06"/><path class="r" d="M375.19 394.1l.01 6"/></g><path d="M80.33 384.61l68.44-14.08 65.05 17.42h229.65" stroke-width="3" stroke="#ae6fe2" stroke-miterlimit="10" stroke-linecap="round" fill="none"/><circle class="x" cx="3.37" cy="3.37" r="3.37" transform="translate(77.14 381.08)"/><circle class="x" cx="3.37" cy="3.37" r="3.37" transform="translate(143.04 367.16)"/><circle class="x" cx="3.37" cy="3.37" r="3.37" transform="translate(210.24 384.59)"/><circle class="x" cx="3.37" cy="3.37" r="3.37" transform="translate(304.7 384.45)"/><circle class="x" cx="3.37" cy="3.37" r="3.37" transform="translate(371.63 384.58)"/><path d="M80.51 332.31l46.18-23.08a45.49 45.49 0 0134.17-2.66l37 11.8a45.49 45.49 0 0038-4.84l54.74-34.41a45.53 45.53 0 0138.5-4.68l25.14 8.3a45.49 45.49 0 0044.33-9l45-39.59" stroke="#7e1fcd" stroke-width="3" stroke-miterlimit="10" stroke-linecap="round" fill="none"/><circle class="z" cx="3.37" cy="3.37" r="3.37" transform="translate(77.14 328.94)"/><circle class="z" cx="3.37" cy="3.37" r="3.37" transform="translate(143.17 301.02)"/><circle class="z" cx="3.37" cy="3.37" r="3.37" transform="translate(210.43 317.16)"/><circle class="z" cx="3.37" cy="3.37" r="3.37" transform="translate(304.89 268.66)"/><circle class="z" cx="3.37" cy="3.37" r="3.37" transform="translate(371.82 281.43)"/></g></g></svg>