<svg xmlns="http://www.w3.org/2000/svg" width="505" height="400"><defs><clipPath id="a"><path transform="translate(40 1198)" stroke="#707070" fill="#fff" d="M0 0h505v400H0z"/></clipPath><filter id="b" x="-27" y="174.22" width="521.24" height="223.75" filterUnits="userSpaceOnUse"><feOffset dx="3" dy="3"/><feGaussianBlur stdDeviation="10" result="c"/><feFlood flood-opacity=".349"/><feComposite operator="in" in2="c"/><feComposite in="SourceGraphic"/></filter><style>.g,.l,.t,.u{stroke-miterlimit:10}.f{fill:#d1d3d3}.g,.l,.t,.u{fill:none}.g{stroke:#bcbec0}.g,.l{stroke-width:2px}.h{fill:#e1e1e1}.k{fill:#6d6e71}.l{stroke:#a7a9ac}.t,.u{stroke:#fff;stroke-linecap:round}.t{stroke-width:20px;opacity:.24}.u{stroke-width:40px;opacity:.06}</style></defs><g transform="translate(-40 -1198)" clip-path="url(#a)"><g transform="translate(40 1197.82)"><rect width="396.3" height="799.68" rx="40.74" transform="translate(39.73 .5)" stroke-miterlimit="10" stroke="#6d6e71" fill="#1a1b39"/><rect width="372.66" height="751.97" rx="40.74" transform="translate(51.55 24.35)" fill="#fff"/><path d="M164.6 23.13h146.26v13a14.16 14.16 0 01-14.16 14.13H178.76A14.16 14.16 0 01164.6 36.1V23.13z" fill="#1a1b39"/><circle class="f" cx="6.04" cy="6.04" r="6.04" transform="translate(211.39 752.5)"/><circle class="f" cx="6.04" cy="6.04" r="6.04" transform="translate(233.08 752.22)"/><circle class="f" cx="6.04" cy="6.04" r="6.04" transform="translate(254.77 752.22)"/><path class="g" d="M51.83 95.78h372.38M51.55 716.24h372.66"/><rect class="h" width="70.64" height="56.25" rx="14.5" transform="translate(73.81 529.8)"/><rect class="h" width="70.64" height="56.25" rx="14.5" transform="translate(158.19 529.8)"/><rect class="h" width="70.64" height="56.25" rx="14.5" transform="translate(241.65 529.8)"/><rect class="h" width="70.64" height="56.25" rx="14.5" transform="translate(328.79 529.8)"/><rect class="h" width="70.64" height="56.25" rx="14.5" transform="translate(71.16 619.54)"/><rect class="h" width="70.64" height="56.25" rx="14.5" transform="translate(155.54 619.54)"/><rect class="h" width="70.64" height="56.25" rx="14.5" transform="translate(239.01 619.54)"/><rect class="h" width="70.64" height="56.25" rx="14.5" transform="translate(326.14 619.54)"/><rect width="332.03" height="47.89" rx="21.09" transform="translate(71.72 131.99)" fill="#e6e7e8"/><text transform="translate(97.21 260.23)" fill="#020202" font-size="52.13" font-family="Helvetica-Light,Helvetica" font-weight="300" stroke-miterlimit="10" stroke="#6d6e71"><tspan x="0" y="0">09: 30</tspan></text><path class="k" d="M367.87 163.49a10.65 10.65 0 1110.65-10.65 10.65 10.65 0 01-10.65 10.65zm0-19.76a9.11 9.11 0 109.11 9.11 9.11 9.11 0 00-9.11-9.11z"/><path class="k" d="M384.34 169.69a.75.75 0 01-.54-.22l-9.32-9.32a.77.77 0 010-1.09.76.76 0 011.08 0l9.32 9.32a.77.77 0 010 1.09.75.75 0 01-.54.22zM106.28 273.13l65.92-.35 16.48-.09h16.47c11 .09 22 .17 33 .45v.1c-11 .29-22 .36-33 .45h-16.47l-16.48-.1-65.92-.35z"/><path class="l" d="M323.53 252.21s-19.36-6.73 2-21.21c0 0 1.83-20.08 17.1-17.34s13.43 13.06 13.43 13.06 8.81-5.29 13.63 5.14c0 0 14.08 4.43 9.81 13.59s-17.9 8.86-17.9 8.86M334.7 249.04l-7.94 11.95M345.62 250.14l-7.33 11.44M356.04 250.7l-7.33 11.44M321.67 261.42l-7.94 11.94M332.59 263.52l-7.33 11.43M343.01 265.07l-7.33 11.44M353.56 266.64l-7.33 11.44"/><g transform="translate(0 .18)" filter="url(#b)"><path d="M461.24 224.29V341.9c0 6.88-4.82 13.06-12.46 17.28-6.51 3.6-15.09 5.79-24.46 5.79H36.91C16.52 364.97 0 354.64 0 341.9V224.29c0-12.74 16.52-23.07 36.91-23.07h387.41c20.39 0 36.92 10.33 36.92 23.07z" fill="#c481c7"/></g><path d="M448.78 359.36c-6.51 3.6-15.09 5.79-24.46 5.79H36.91C16.52 365.15 0 354.82 0 342.08V224.47c0-12.74 16.52-23.07 36.91-23.07h11.36z" opacity=".17" fill="#fff"/><circle cx="31.18" cy="31.18" r="31.18" transform="translate(22.97 250.88)" stroke-dasharray="12" opacity=".45" stroke-linejoin="round" stroke-linecap="round" stroke="#fff" stroke-width="2" fill="none"/><circle cx="25.47" cy="25.47" r="25.47" transform="translate(28.68 256.59)" opacity=".15" fill="#fff"/><path d="M45 292.68l-1.17-6.78a20.619 20.619 0 00-.79-3 9.29 9.29 0 011.96-8.76 8.21 8.21 0 017.3-3.14 8.3 8.3 0 016.39 3.79l1.6 2.3L65 282a2.48 2.48 0 01-1 3.9l-16 8a2.06 2.06 0 01-3-1.22z" fill="#e8e8e8"/><path stroke-width="8" stroke="#e8e8e8" stroke-linejoin="round" stroke-linecap="round" fill="none" d="M45.71 270.76l2.6 3.98"/><path stroke-width="10" stroke="#e8e8e8" stroke-linejoin="round" stroke-linecap="round" fill="none" d="M54.63 287.4l2.59 3.98"/><path class="t" d="M352.7 262.99h96.08M383.28 298.25h65.5"/><path class="u" d="M433.88 233.76l-148.01 203.4M400.74 355.08l-74 101.7"/><circle cx="17.99" cy="17.99" r="17.99" transform="translate(408.09 299.78)" opacity=".1" fill="#fff"/><text transform="translate(99.69 274.81)" font-size="30" font-family="MyriadPro-Bold,Myriad Pro" font-weight="700"><tspan x="0" y="0">REMINDER</tspan></text><text transform="translate(102.45 310.12)" font-size="25" font-family="MyriadPro-Regular,Myriad Pro"><tspan x="0" y="0" letter-spacing=".01em">M</tspan><tspan y="0">eeting with John in 5 minu</tspan><tspan y="0" letter-spacing="-.01em">t</tspan><tspan y="0">es</tspan></text></g></g></svg>