<svg xmlns="http://www.w3.org/2000/svg" width="505" height="400"><defs><clipPath id="a"><path transform="translate(40 2121)" stroke="#707070" fill="#fff" d="M0 0h505v400H0z"/></clipPath><filter id="b" x="128.03" y="133.94" width="380.25" height="219.41" filterUnits="userSpaceOnUse"><feOffset dx="3" dy="3"/><feGaussianBlur stdDeviation="10" result="c"/><feFlood flood-opacity=".349"/><feComposite operator="in" in2="c"/><feComposite in="SourceGraphic"/></filter><style>.d,.h{fill:#fff}.f,.g,.h,.l,.s{stroke-miterlimit:10}.e{fill:#e1e1e1}.f,.g,.l,.s{fill:none}.f,.g{stroke:#fff}.f,.g,.l,.s{stroke-linecap:round}.f,.l{stroke-width:18px}.g{stroke-width:10px}.h{stroke:#e1e1e1}.l,.s{stroke:#f1f2f2}.l{opacity:.6}.m{fill:#fdfeff;opacity:.69}.q{letter-spacing:.01em}.s{stroke-width:40px;opacity:.27}</style></defs><g transform="translate(-40 -2121)" clip-path="url(#a)"><g transform="translate(39.5 2120.5)"><rect width="382.22" height="771.27" rx="40.74" transform="translate(.5 .5)" stroke-miterlimit="10" stroke="#6d6e71" fill="#1a1b39"/><rect class="d" width="359.42" height="725.26" rx="40.74" transform="translate(11.9 23.51)"/><rect class="e" width="308.43" height="78.23" rx="22.5" transform="translate(35.81 224.86)"/><path class="f" d="M134.5 252.66h120.62"/><path class="g" d="M132.95 276.62h105.46M318.3 248.53l11.39 13.33-10.61 18.23"/><circle class="d" cx="32.81" cy="32.81" r="32.81" transform="translate(42.91 232.3)"/><rect class="e" width="308.43" height="78.23" rx="22.5" transform="translate(35.81 323.66)"/><path class="f" d="M134.5 349.74h120.62"/><path class="g" d="M132.95 373.7h105.46M318.3 345.61l11.39 13.33-10.61 18.23"/><circle class="h" cx="32.81" cy="32.81" r="32.81" transform="translate(42.91 329.96)"/><rect class="e" width="308.43" height="78.23" rx="22.5" transform="translate(35.81 422.45)"/><circle class="h" cx="32.81" cy="32.81" r="32.81" transform="translate(42.91 428.75)"/><path class="f" d="M131.23 451.04h120.62"/><path class="g" d="M129.68 474.99h105.45M315.03 446.91l11.39 13.33-10.61 18.23"/><rect class="e" width="308.43" height="78.23" rx="22.5" transform="translate(35.81 521.25)"/><circle class="d" cx="32.81" cy="32.81" r="32.81" transform="translate(42.91 527.55)"/><path class="f" d="M131.23 549.83h120.62"/><path class="g" d="M129.68 573.79h105.45M315.03 545.71l11.39 13.32-10.61 18.23"/><rect class="e" width="308.43" height="78.23" rx="22.5" transform="translate(35.81 615.26)"/><circle class="d" cx="32.81" cy="32.81" r="32.81" transform="translate(42.91 621.57)"/><path class="f" d="M131.23 643.85h120.62"/><path class="g" d="M129.68 667.81h105.45M315.03 639.72l11.39 13.33-10.61 18.23"/><path class="e" d="M49.83 23.51h283.26a38.08 38.08 0 0138.08 38.08v109.08H11.75V61.58a38.08 38.08 0 0138.08-38.07z"/><path d="M126.78 22.33h141.06v12a14.16 14.16 0 01-14.16 14.16H140.94a14.16 14.16 0 01-14.16-14.16v-12z" fill="#1a1b39"/><rect class="h" width="125.93" height="107.3" rx="13.17" transform="translate(127.06 97.09)"/><g transform="translate(.5 .5)" filter="url(#b)"><path d="M475.28 176.79V304.5a15.85 15.85 0 01-15.86 15.85H170.88a15.84 15.84 0 01-15.85-15.85V176.79a15.82 15.82 0 0110-14.72 15.64 15.64 0 015.86-1.13h288.53a15.86 15.86 0 0115.86 15.85z" fill="#d5f1ae"/></g><path d="M420.21 320.85H171.38A15.84 15.84 0 01155.53 305V177.29a15.82 15.82 0 0110-14.72z" fill="#b5d890"/><path class="l" d="M426.56 285.18v-43.47M445.95 310.9V209.72"/><circle class="m" cx="5.92" cy="5.92" r="5.92" transform="translate(421.65 298.52)"/><circle class="m" cx="5.92" cy="5.92" r="5.92" transform="translate(440.03 180.12)"/><circle cx="30.27" cy="30.27" r="30.27" transform="translate(182.56 244.3)" opacity=".21" fill="#fdfeff"/><circle cx="30.27" cy="30.27" r="30.27" transform="translate(166.44 244.3)" stroke="#fdfeff" stroke-width="3" opacity=".38" fill="none" stroke-miterlimit="10"/><text transform="translate(215.48 280.05)" fill="#0a0a0a" font-size="24.81" font-family="MyriadPro-Bold,Myriad Pro" font-weight="700"><tspan class="q" x="0" y="0">B</tspan><tspan y="0">oo</tspan><tspan class="q" y="0">k</tspan><tspan y="0">ing </tspan><tspan y="0" letter-spacing="-.02em">C</tspan><tspan y="0">onfirmed</tspan></text><path class="s" d="M167.79 175.15h33.43M167.79 204.92h25.03"/><circle cx="32.78" cy="32.78" r="32.78" transform="translate(282.87 172.14)" stroke-width="4" stroke-dasharray="11.44 11.44" stroke-linecap="round" stroke="#fff" fill="none" stroke-miterlimit="10"/><circle class="d" cx="25.02" cy="25.02" r="25.02" transform="translate(290.63 179.9)"/><path d="M298.97 202.2l10.67 11.93 22.7-18.42" stroke="#b5d890" stroke-width="8" stroke-linecap="round" fill="none" stroke-miterlimit="10"/></g></g></svg>