<svg version="1.1" id="Layer_1" xmlns="http://www.w3.org/2000/svg" x="0" y="0" viewBox="0 0 128 128" xml:space="preserve"><style>.st0{fill:#020202}.st1{fill:none;stroke:#020202;stroke-width:5;stroke-linecap:round;stroke-linejoin:round;stroke-miterlimit:10}</style><switch><g><path class="st0" d="M11.3 71.7c-.5 0-.9-.1-1.3-.4-.6-.4-15-9.8-6.5-34 .4-1.1 1.6-1.8 2.7-1.6l13.1 2c5.8-3.3 33.7-18.4 43.9-16.2 10.7 2.2 19.2 9 21.6 17.2.2.7.2 1.5.2 2.3-.1 4.1-1.6 18.1-14.6 24.7-.2.1-.4.2-.7.2-.2 0-4.2.8-10.3 1.3-9.2.8-22.3 1-33.5-2.4l-13.6 6.7c-.3.2-.6.2-1 .2zM7.5 41C2.8 56.4 9 64 11.6 66.3l13.1-6.4c.6-.3 1.3-.3 1.9-.1 10.6 3.5 23.5 3.3 32.5 2.5 4.8-.4 8.3-1 9.4-1.2C78.7 55.6 79.9 44.2 80 40.8c0-.2 0-.4-.1-.6C78 33.8 70.8 28.3 62 26.5c-6.7-1.4-28.8 9.1-41.1 16.1-.5.3-1.1.4-1.6.3L7.5 41z"/><path class="st0" d="M24.2 65.3c-1.1 0-2.2-.8-2.4-1.9l-5.1-22.6c-.3-1.3.5-2.7 1.9-3 1.3-.3 2.7.5 3 1.9l5.1 22.6c.3 1.3-.5 2.7-1.9 3h-.6zM65.2 105c-2.8 0-5-.7-5.2-.8-.9-.3-1.5-1-1.7-1.9L57 94.5c-6.8-5.1-5.7-12.5-4.1-15.8.2-.3.4-.6.7-.9 3.3-2.6 4-9 4-11.2 0-1.4 1.1-2.5 2.5-2.5s2.5 1.1 2.5 2.5c0 .4 0 9.9-5.4 14.7-.6 1.5-1.8 6.3 3.4 9.7.6.4 1 1 1.1 1.7l1.3 7.2c1.6.3 4.1.4 6.2-.8l-.6-4.8c-.1-.6.1-1.1.4-1.6 0-.1 5.1-8.4 2-16.6-.2-.6-.2-1.2 0-1.7.9-2.7 3.2-10.7 2.2-14.9-.3-1.3.5-2.7 1.9-3 1.3-.3 2.7.5 3 1.9 1.3 5.6-1.1 14-2 16.8 2.9 8.7-.8 16.9-2.2 19.4l.7 5.5c.1.8-.2 1.6-.8 2.2-2.8 2.1-6 2.7-8.6 2.7z"/><path class="st0" d="M59.9 96.2c-1.3 0-2.3-1-2.5-2.2-.1-1.4.9-2.6 2.2-2.7l12-1.3c1.4-.1 2.6.8 2.7 2.2.1 1.4-.9 2.6-2.2 2.7l-12 1.3h-.2zM59.8 84c-1.1 0-2.3-.2-3.6-.7-1.3-.5-2-1.9-1.5-3.2s1.9-2 3.2-1.5c1.4.5 2.5.5 3.4 0 1.7-.9 2.6-3.3 2.8-4.1.1-.3.2-.6.4-.8.2-.4.3-.5.3-.5-.2-.6-2.2-1.6-3.8-2-1.3-.3-2.2-1.6-1.9-3s1.6-2.2 3-1.9c1 .2 6 1.5 7.4 5 .4 1.1.7 2.8-.5 4.8-.4 1.3-1.8 5.1-5.1 6.9-1.2.5-2.5 1-4.1 1z"/><path class="st0" d="M73.5 114.5h-.2c-4 0-6.9-1.2-8.7-3.7-2.7-3.7-1.2-8.6-1.1-9.1.4-1.3 1.8-2 3.2-1.6 1.3.4 2 1.8 1.6 3.1-.3.8-.7 3.2.4 4.7.8 1 2.3 1.6 4.6 1.6h.2c6.9 0 13.3-1.3 16.7-2.1l-.9-3.7c-.1-.2-.1-.5-.1-.7l3.2-81.8c0-.3.1-.6.2-.9.6-1.3 4.4-7.7 22.8-4.5.1 0 .3.1.4.1.2.1 6 2.2 8.5 7.9.3.7.3 1.6-.1 2.3s-1.2 1.1-2 1.2l-13.6.9-2.1 36.5 14.2.3c.8 0 1.6.5 2.1 1.2s.5 1.6.2 2.4c-1.5 3.3-6.4 9-14.5 9.2l-.7 27.1c0 .5-.2 1-.5 1.4-.3.5-3.4 4.7-7.9 5-1.1.1-2.5-.1-4.1-.9-.3.6-.8 1-1.5 1.2-.3.1-9.7 2.9-20.3 2.9zm21.4-10.1c.7 0 1.3.3 1.8.8 1.2 1.3 2.1 1.2 2.4 1.2 1.4-.1 2.9-1.5 3.7-2.4l.7-28.9c0-.7.3-1.4.9-1.8.5-.5 1.2-.7 1.9-.6 4.4.6 7.4-1 9.3-2.7l-11.9-.2c-.7 0-1.3-.3-1.8-.8s-.7-1.2-.7-1.8l2.4-41.2c.1-1.3 1.1-2.3 2.3-2.3l11.3-.8c-1.3-1.1-2.6-1.8-3.1-2-12.2-2.1-16 .6-17 1.5l-3.2 80.7.4 1.5c.4-.2.5-.2.6-.2z"/><path class="st0" d="M122.2 33.6l-15.7-.4c-1.4 0-2.5-1.2-2.4-2.6 0-1.4 1.2-2.5 2.6-2.4l15.6.4c1.4 0 2.5 1.2 2.4 2.6 0 1.3-1.2 2.4-2.5 2.4zM122.2 39.4s-.1 0 0 0l-16.4-.5c-1.4 0-2.5-1.2-2.4-2.6 0-1.4 1.2-2.4 2.6-2.4l16.3.5c1.4 0 2.5 1.2 2.4 2.6-.1 1.3-1.2 2.4-2.5 2.4zM122.2 45.8l-16.7-.4c-1.4 0-2.5-1.2-2.4-2.6 0-1.4 1.2-2.5 2.6-2.4l16.6.4c1.4 0 2.5 1.2 2.4 2.6 0 1.4-1.2 2.4-2.5 2.4zM122.1 52.1l-17.2-.6c-1.4-.1-2.5-1.2-2.4-2.6 0-1.4 1.2-2.5 2.6-2.4l17.1.6c1.4.1 2.5 1.2 2.4 2.6 0 1.3-1.1 2.4-2.5 2.4zM121.1 58.2h-16.5c-1.4 0-2.5-1.1-2.5-2.5s1.1-2.5 2.5-2.5h16.5c1.4 0 2.5 1.1 2.5 2.5s-1.1 2.5-2.5 2.5zM104.6 64.3c-1.3 0-2.4-1.1-2.5-2.4-.1-1.4 1-2.5 2.4-2.6l16.5-.6c1.4 0 2.5 1 2.6 2.4.1 1.4-1 2.5-2.4 2.6l-16.6.6c.1 0 0 0 0 0z"/><circle cx="58.4" cy="43.6" r="15.9" fill="#d6b2f5"/><path class="st0" d="M57.5 52.9c-.5 0-1.1-.2-1.5-.5l-11.6-8.9c-1.1-.8-1.3-2.4-.5-3.5s2.4-1.3 3.5-.5L59 48.4c1.1.8 1.3 2.4.5 3.5-.5.7-1.3 1-2 1zM64.2 49.8c-.5 0-1.1-.2-1.6-.5L51 40c-1.1-.9-1.3-2.4-.4-3.5s2.4-1.3 3.5-.4l11.7 9.3c1.1.9 1.3 2.4.4 3.5-.5.6-1.2.9-2 .9zM70.9 47c-.6 0-1.2-.2-1.7-.6L57.7 36.1c-1-.9-1.1-2.5-.2-3.5.9-1 2.5-1.1 3.5-.2l11.5 10.2c1 .9 1.1 2.5.2 3.5-.4.6-1.1.9-1.8.9z"/></g></switch></svg>