<svg version="1.1" id="Layer_1" xmlns="http://www.w3.org/2000/svg" x="0" y="0" viewBox="0 0 128 128" xml:space="preserve"><style>.st0{fill:#020202}.st1{fill:#d6b2f5}</style><switch><g><path class="st0" d="M47.2 76.2h-1.4c-8.7-.1-15.6-3.2-20.5-9.2-12.2-15-6.9-42.8-6.7-44 .3-1.4 1.6-2.2 2.9-2 1.4.3 2.2 1.6 2 2.9-.1.3-5.1 26.8 5.7 39.9 3.9 4.8 9.4 7.2 16.7 7.3h.2c.1 0 10.6.8 18-7.2 7.3-8 9.4-21.7 6.1-40.9-.2-1.4.7-2.7 2-2.9 1.4-.2 2.7.7 2.9 2 3.6 20.8 1.1 36-7.4 45.2-7.3 8.1-16.8 8.9-20.5 8.9z"/><path class="st0" d="M45.9 73.5h5.9l-2.9 5.1-3 5.1-2.9-5.1-2.9-5.1z"/><path class="st0" d="M45.9 86.2c-.9 0-1.7-.5-2.2-1.2l-5.9-10.1c-.4-.8-.4-1.7 0-2.5s1.3-1.2 2.2-1.2h11.7c.9 0 1.7.5 2.2 1.2s.4 1.7 0 2.5L48 85c-.4.7-1.2 1.2-2.1 1.2zM44.4 76l1.5 2.6 1.5-2.6h-3z"/><path class="st0" d="M79.2 127.2c-9.8 0-17.7-3-23.8-8.9-13.1-12.9-12.1-34.7-12-35.7.1-1.4 1.2-2.5 2.6-2.4 1.4.1 2.4 1.2 2.4 2.6 0 .2-.9 20.6 10.6 31.9 5.7 5.6 13.6 8.1 23.4 7.4h.1c1.2 0 28.7-1.1 29.1-34.8 0-1.4 1.1-2.5 2.5-2.5s2.5 1.1 2.5 2.5c-.4 37.6-31.9 39.7-33.9 39.8-1.1.1-2.3.1-3.5.1z"/><circle class="st1" cx="19.1" cy="14" r="10.9"/><path class="st0" d="M21.1 26c-5.9 0-10.6-4.8-10.6-10.6S15.2 4.7 21.1 4.7s10.6 4.8 10.6 10.6S27 26 21.1 26zm0-16.3c-3.1 0-5.6 2.5-5.6 5.6S18 21 21.1 21s5.6-2.5 5.6-5.6-2.5-5.7-5.6-5.7z"/><circle class="st1" cx="72.3" cy="13.3" r="10.9"/><path class="st0" d="M70.6 25.5c-5.9 0-10.6-4.8-10.6-10.6S64.8 4.3 70.6 4.3s10.6 4.8 10.6 10.6-4.7 10.6-10.6 10.6zm0-16.2c-3.1 0-5.6 2.5-5.6 5.6s2.5 5.6 5.6 5.6 5.6-2.5 5.6-5.6-2.5-5.6-5.6-5.6z"/><circle class="st1" cx="112.9" cy="77.3" r="10.9"/><g><path class="st0" d="M113.3 89.1c-5.1 0-9.3-4.2-9.3-9.3s4.2-9.3 9.3-9.3 9.3 4.2 9.3 9.3-4.2 9.3-9.3 9.3zm0-13.7c-2.4 0-4.3 1.9-4.3 4.3s1.9 4.3 4.3 4.3 4.3-1.9 4.3-4.3-1.9-4.3-4.3-4.3z"/></g></g></switch></svg>