<svg xmlns="http://www.w3.org/2000/svg" viewBox="0 0 128 128"><switch><g><path d="M62.7 56.2c-.3 0-.6-.1-.9-.2L3.1 33.5c-1-.4-1.6-1.3-1.6-2.3s.6-2 1.6-2.3l56.8-22c.6-.2 1.2-.2 1.8 0l58.5 22.7c1 .4 1.6 1.3 1.6 2.3 0 1-.6 2-1.6 2.3L63.6 56c-.3.1-.6.2-.9.2zM11 31.2L62.7 51l49.7-19.1-51.6-20L11 31.2z"/><path d="M62.3 79.7c-7 0-13.1-.9-18.2-2.1-14.5-3.5-23.2-9.8-23.6-10.1-.7-.5-1-1.3-1-2.1l1.1-26.9c.1-1.4 1.3-2.5 2.6-2.4 1.4.1 2.5 1.2 2.4 2.6l-1.1 25.5c2.7 1.7 10.1 6 20.9 8.6 17.7 4.2 35.6 1.8 53.4-7l.1-27c0-1.4 1.1-2.5 2.5-2.5s2.5 1.1 2.5 2.5l-.1 28.6c0 .9-.5 1.8-1.4 2.2-14.9 7.7-28.6 10.1-40.1 10.1zM110.1 72c-1.4 0-2.5-1.1-2.5-2.5v-34c0-1.4 1.1-2.5 2.5-2.5s2.5 1.1 2.5 2.5v34c0 1.4-1.2 2.5-2.5 2.5zM49.5 28.4c-.9 0-1.8-.5-2.3-1.4-.6-1.2-.1-2.7 1.2-3.3l24.3-11.5c1.2-.6 2.7-.1 3.3 1.2.6 1.2.1 2.7-1.2 3.3L50.6 28.2c-.4.1-.7.2-1.1.2z"/><path d="M49.4 68.4c-10.9 0-25.7-7.9-27.6-8.9-1.2-.7-1.7-2.2-1-3.4.7-1.2 2.2-1.7 3.4-1 5.4 3 21.1 10.1 28.6 7.9 1.3-.4 2.7.3 3.1 1.7.4 1.3-.3 2.7-1.7 3.1-1.4.4-3 .6-4.8.6z"/><circle cx="111.9" cy="82.2" r="15.7" fill="#d6b2f5"/><path d="M110.1 96.6c-7.9 0-14.4-6.4-14.4-14.4s6.4-14.4 14.4-14.4 14.4 6.4 14.4 14.4-6.5 14.4-14.4 14.4zm0-23.7c-5.2 0-9.4 4.2-9.4 9.4s4.2 9.4 9.4 9.4 9.4-4.2 9.4-9.4-4.3-9.4-9.4-9.4z"/><path d="M111.7 124.8c-9.3 0-16.5-5.2-16.6-5.3-.8-.6-1.1-1.5-1-2.4L99 90.8c.2-1.4 1.6-2.3 2.9-2 1.4.2 2.3 1.6 2 2.9l-4.5 24.6c3.3 2 12.7 6.5 22.4.6L116.9 90c-.2-1.4.7-2.7 2-2.9 1.4-.3 2.7.7 2.9 2l5.2 28.5c.2 1-.2 1.9-1 2.5-4.9 3.5-9.8 4.7-14.3 4.7z"/></g></switch></svg>