<svg version="1.1" id="Layer_1" xmlns="http://www.w3.org/2000/svg" x="0" y="0" viewBox="0 0 128 128" xml:space="preserve"><style>.st0{fill:#d6b2f5}</style><switch><g><path d="M34.4 13.4H18.9c-1.3 0-2.3-1-2.3-2.3V5.7c0-2.8 2.3-5.2 5.2-5.2h9.8c2.8 0 5.2 2.3 5.2 5.2V11c-.1 1.3-1.1 2.4-2.4 2.4zM21.2 8.7h10.9v-3c0-.3-.2-.5-.5-.5h-9.8c-.3 0-.5.2-.5.5v3zM105.5 26.9c-.6 0-1.2-.2-1.6-.7l-11-11c-.9-.9-.9-2.4 0-3.3l3.8-3.8c2-2 5.3-2 7.3 0l7 7c2 2 2 5.3 0 7.3l-3.8 3.8c-.5.4-1.1.7-1.7.7zm-7.7-13.3l7.7 7.7 2.1-2.1c.2-.2.2-.5 0-.7l-7-7c-.2-.2-.5-.2-.7 0l-2.1 2.1z"/><path d="M17 23.1c-3 0-5.5-2.4-5.5-5.5s2.4-5.5 5.5-5.5c3 0 5.5 2.4 5.5 5.5S20 23.1 17 23.1zm0-6.3c-.4 0-.8.4-.8.8s.4.8.8.8.8-.4.8-.8-.3-.8-.8-.8zM31.7 25.7c-3 0-5.5-2.4-5.5-5.5 0-3 2.4-5.5 5.5-5.5s5.5 2.4 5.5 5.5-2.5 5.5-5.5 5.5zm0-6.3c-.4 0-.8.4-.8.8s.4.8.8.8.8-.4.8-.8-.3-.8-.8-.8zM51.1 30.3c-3 0-5.5-2.4-5.5-5.5 0-3 2.4-5.5 5.5-5.5 3 0 5.5 2.4 5.5 5.5-.1 3.1-2.5 5.5-5.5 5.5zm0-6.2c-.4 0-.8.4-.8.8s.4.8.8.8.8-.4.8-.8-.4-.8-.8-.8zM86.8 26.8c-3 0-5.5-2.4-5.5-5.5s2.4-5.5 5.5-5.5c3 0 5.5 2.4 5.5 5.5s-2.5 5.5-5.5 5.5zm0-6.3c-.4 0-.8.4-.8.8s.4.8.8.8.8-.4.8-.8-.3-.8-.8-.8z"/><path d="M34.4 21.2c-1.3 0-2.3-1-2.3-2.3V11c0-1.3 1-2.3 2.3-2.3s2.3 1 2.3 2.3v7.9c0 1.3-1 2.3-2.3 2.3zM54.2 26.4c-.7 0-1.3-.3-1.8-.8-.8-1-.7-2.4.3-3.3l7-5.9c1-.8 2.4-.7 3.3.3.8 1 .7 2.4-.3 3.3l-7 5.9c-.4.3-1 .5-1.5.5zM69.4 27.2c-1.3 0-2.3-1-2.3-2.3V10.4c0-1.3 1-2.3 2.3-2.3s2.3 1 2.3 2.3v14.5c0 1.3-1 2.3-2.3 2.3zM21.4 49.6c-1.3 0-2.3-1-2.3-2.3l-.2-13.5c0-1.3 1-2.3 2.3-2.4 1.3 0 2.3 1 2.3 2.3l.2 13.5c.1 1.3-1 2.4-2.3 2.4.1 0 0 0 0 0zM46.3 64.4c-1 0-1.9-.6-2.2-1.6-.4-1.2.2-2.5 1.5-2.9l10-3.4 1.3-11c0-.3.1-.6.3-.9.5-.9 3.3-5.4 6.9-5.6.9-.1 2.7.2 4.2 2.3.7 1 .5 2.5-.5 3.2-1 .7-2.5.5-3.2-.5-.1-.2-.2-.3-.3-.3-.6.1-1.9 1.5-2.8 2.9l-1.4 12c-.1.9-.7 1.6-1.6 1.9l-11.4 3.9h-.8zM30.8 87.8c-1.3 0-2.3-1-2.3-2.3v-4l-1.1.9c-3.9 3.9-9 2.7-11.5 1.4l-9.4-2.1c-.5-.1-1-.4-1.4-.9C2.9 78 3 75.7 3.4 74.2c1.2-3.6 5.4-4.9 5.9-5.1.3-.1.6-.1.9-.1l10.5 1.3L33.6 62c1.1-.7 2.5-.4 3.2.7.7 1.1.4 2.5-.7 3.2l-13.5 8.8c-.5.3-1 .4-1.5.4l-10.8-1.3c-.8.3-2.1 1.1-2.4 1.9-.2.5.1 1.2.4 1.7l8.9 1.9c.2.1.5.1.7.3.4.2 3.8 2 6.3-.6l.2-.2 5-4.1c.7-.6 1.7-.7 2.5-.3.8.4 1.3 1.2 1.3 2.1v8.9c-.1 1.4-1.1 2.4-2.4 2.4z"/><path d="M14.7 127.5c-1.9 0-3.2-.8-3.9-1.6-2.5-2.7-1.4-7.4-1.1-8.3.1-.4.3-.8.7-1.1l16.8-15.4.8-10.7c.1-1.3 1.2-2.2 2.5-2.1 1.3.1 2.2 1.2 2.1 2.5l-1 11.6c0 .6-.3 1.1-.7 1.5L14 119.4c-.3 1.4-.2 2.9.1 3.3.1.1.5.2 1.4 0 4.7-1 14.9-8.8 18.6-11.9.4-.5 2.7-3.3 2.3-7-.5-5.3-1-9.7-1-9.7-.1-.7.2-1.3.6-1.8.5-.5 1.1-.7 1.8-.7l6 .3c.6 0 1.1.3 1.5.6l9.4 9.1c.4.4.7 1 .7 1.6l.9 17.7c.6.5 1.4 1.1 2 1.1.4 0 .9-.5 1.4-1.3v-18.6L49.4 91c-.4-.4-.6-1-.6-1.6V71.9c0-.9.5-1.8 1.4-2.1l11.9-5.2 2.2-6.9c.4-1.2 1.7-1.9 2.9-1.5 1.2.4 1.9 1.7 1.5 2.9L66.2 67c-.2.6-.7 1.2-1.3 1.4l-11.5 5.1v15.1L64 99.7c.4.4.6 1 .6 1.6v20.1c0 .4-.1.8-.3 1.1-1.7 3.2-3.9 4.1-5.4 4.2-3.6.3-6.3-2.9-6.6-3.3-.3-.4-.5-.8-.5-1.3l-.8-17.7-8.2-7.8-2.4-.1c.2 1.8.4 4.2.7 7 .6 6.2-3.5 10.6-3.7 10.8l-.2.2c-1.4 1.2-14 11.5-20.7 12.9-.6 0-1.2.1-1.8.1zM111.1 69.2c-2 0-4.2-.4-6.6-1.1-1.2-.4-1.9-1.7-1.5-2.9.4-1.2 1.7-1.9 2.9-1.5 4.2 1.3 7.4 1.2 9.6-.3 2.5-1.6 3-4.6 3.1-5.1l.8-24.6c0-.4-.2-3.2-2-3.4-1.6-.2-2.4 2.6-2.5 3.3v22.7c0 1.3-1 2.3-2.3 2.3H102c-1.3 0-2.3-1-2.3-2.3 0-1.3 1-2.3 2.3-2.3h8.3V33.3v-.4c.5-2.7 2.7-7.7 7.6-7.2 4.9.5 6.2 5.5 6.2 8l-.9 24.9v.2c0 .2-.6 5.5-5.1 8.5-2 1.3-4.3 1.9-7 1.9z"/><path d="M104.2 127.5c-.3 0-.7 0-1.1-.1-4.2-.7-6-3.7-6.4-5.3 0-.2-.1-.4-.1-.5V87.5l-1.8-.2-8.3 10-.1 15.7c0 .2 0 .4-.1.6-.8 3-2.2 5-4.1 6-2 1.1-3.8.6-4.2.5-.1 0-.2-.1-.3-.1-5.1-2.3-5.3-7.9-5.3-8.1v-.2l.9-16.4c0-.4.2-.9.4-1.2L84 79.9l-.4-14.8-12.8-5.7c-.8-.3-1.3-1.1-1.4-1.9l-1.5-18.6c-.3-1.8.1-5.4 3.5-7.1 3.4-1.7 6.6.6 8.1 3.4.1.2.2.4.2.7l2.6 15.3 9.9 3c1.2.4 1.9 1.7 1.6 2.9-.4 1.2-1.7 1.9-2.9 1.6l-11.3-3.4c-.8-.3-1.5-1-1.6-1.8L75.2 37c-.3-.5-1.1-1.5-1.7-1.2-1.2.6-1.1 1.9-1 2.3v.2L74 55.7l12.9 5.7c.8.4 1.4 1.2 1.4 2.1l.4 17.1c0 .5-.1 1-.4 1.4L77.9 96.2l-.8 15.6c0 .4.3 2.8 2.4 3.9.6 0 1.6-.6 2.4-3.1l.1-16.1c0-.5.2-1 .5-1.5l9.6-11.6c.5-.6 1.3-.9 2-.8l5.1.6c1.2.1 2.1 1.1 2.1 2.3v35.7c.2.4.8 1.4 2.7 1.7 1.4.2 2.3-2.1 2.5-2.9V72.3c0-1.3 1-2.3 2.3-2.3s2.3 1 2.3 2.3v48c0 .2 0 .4-.1.5-.6 2.5-2.7 6.7-6.8 6.7z"/><circle cx="50.9" cy="36.2" r="2.4"/><circle cx="46" cy="11.4" r="2.7"/><path d="M89.3 20.8c-.6 0-1.2-.2-1.7-.7-.9-.9-.9-2.4.1-3.3l4-3.8c.9-.9 2.4-.9 3.3.1.9.9.9 2.4-.1 3.3l-4 3.8c-.4.4-1 .6-1.6.6z"/><circle class="st0" cx="38.2" cy="49.6" r="12.6"/><circle class="st0" cx="97.8" cy="41.5" r="12.6"/><path d="M16.7 39.8c-.8-.2-1.7-.3-2.6-.3-5.5 0-9.9 4.4-9.9 9.9v3.3c0 5.5 4.4 9.9 9.9 9.9.9 0 1.9-.1 2.7-.4 4.1-1.2 7.2-5 7.2-9.5v-3.3c0-4.7-3.1-8.5-7.3-9.6zm3.2 7.9l-2.2-1.3c-.8-.5-1.9-.3-2.5.4-1.3 1.5-3.2 2.4-5.2 2.4H8c0-3.3 2.7-6 6-6 2.9.1 5.2 1.9 5.9 4.5zm.3 4.9c0 3.3-2.7 6-6 6-3.1 0-5.6-2.4-5.9-5.4h1.9c2.6 0 5.1-.9 7-2.6l3.1 1.8v.2zM75.2 32c-.8-.2-1.7-.3-2.6-.3-5.5 0-9.9 4.4-9.9 9.9v3.3c0 5.5 4.4 9.9 9.9 9.9.9 0 1.9-.1 2.7-.4 4.1-1.2 7.2-5 7.2-9.5v-3.3c.1-4.6-3.1-8.5-7.3-9.6zm3.3 8l-2.2-1.3c-.8-.5-1.9-.3-2.5.4-1.3 1.5-3.2 2.4-5.2 2.4h-2c0-3.3 2.7-6 6-6 2.8 0 5.1 1.8 5.9 4.5zm.2 4.9c0 3.3-2.7 6-6 6-3.1 0-5.6-2.4-5.9-5.4h1.9c2.6 0 5.1-.9 7-2.6l3.1 1.8v.2z" transform="translate(24.859)"/></g></switch></svg>