<svg version="1.1" id="Layer_1" xmlns="http://www.w3.org/2000/svg" x="0" y="0" viewBox="0 0 128 128" xml:space="preserve"><style>.st0{fill:#070707}</style><switch><g><path class="st0" d="M17.9 110H4.1c-1.4 0-2.5-1.1-2.5-2.5V71.4c0-1.4 1.1-2.5 2.5-2.5h13.8c1.4 0 2.5 1.1 2.5 2.5v36.1c0 1.4-1.1 2.5-2.5 2.5zm-11.3-5h8.8V73.9H6.6V105z"/><path class="st0" d="M36.1 110.3H20.7c-1.4 0-2.5-1.1-2.5-2.5V67.6c0-1.4 1.1-2.5 2.5-2.5h15.4c1.4 0 2.5 1.1 2.5 2.5v40.2c0 1.4-1.1 2.5-2.5 2.5zm-12.9-5h10.4V70.1H23.2v35.2z"/><path class="st0" d="M63.4 114.2c-2.7 0-5.9-.5-9-2.1L35 102.9c-1.2-.6-1.8-2.1-1.2-3.3.6-1.2 2.1-1.8 3.3-1.2l19.5 9.2s.1 0 .1.1c5.3 2.9 11.4.9 11.5.9.2-.1 21.4-7.1 38.5-10.6 12.5-2.6 15.9-5.5 16.7-6.2.1-1.4-.4-1.9-.6-2.1-1.1-1.3-3.8-1.5-4.7-1.5l-25.4 4.2c-1.2.2-2.5-.6-2.8-1.8-.9-3-2.4-3.8-2.5-3.8-.1 0-.1-.1-.2-.1L67.6 78c-.1-.1-.2-.1-.4-.2-11.8-7.8-29.6-.4-29.8-.3-1.3.5-2.7 0-3.3-1.3-.5-1.3 0-2.7 1.3-3.3.8-.4 20.3-8.5 34.4.6L89.3 82c.7.3 3.1 1.5 4.7 4.9l23.6-3.9h.3c.6 0 5.8-.1 8.7 3.2 1.1 1.2 2.2 3.4 1.7 6.7 0 .1-.1.3-.1.4-.6 1.7-3.7 6-20.4 9.4-16.8 3.6-37.8 10.5-38 10.6-.2.1-2.8.9-6.4.9zm60.2-22.7z"/><path class="st0" d="M86.8 98.2c-2.7 0-5-1.3-5.7-1.8L60.2 86.2c-1.2-.6-1.8-2.1-1.1-3.3s2.1-1.8 3.3-1.1l21 10.3c.1.1.2.1.3.2.6.4 2.6 1.4 3.9.9 1.3-.5 1.9-2.4 2.2-3.9.3-1.3 1.6-2.2 3-1.9 1.3.3 2.2 1.6 1.9 3-.9 3.9-2.7 6.4-5.3 7.4-.8.3-1.7.4-2.6.4z"/><circle cx="92.3" cy="47.3" r="29.1" fill="#d6b2f5"/><path class="st0" d="M88.9 76.5c-15.7 0-28.5-12.8-28.5-28.5s12.8-28.5 28.5-28.5 28.5 12.8 28.5 28.5-12.8 28.5-28.5 28.5zm0-52c-13 0-23.5 10.5-23.5 23.5s10.5 23.5 23.5 23.5S112.4 61 112.4 48s-10.6-23.5-23.5-23.5z"/><path d="M87.3 35.7v-2.9h3.2v2.8c3.6.4 6 2.1 7.1 5.1l-5.2 1.6c-.5-1.4-1.6-2.1-3.3-2.1-1.4 0-2.1.4-2.1 1.3 0 .3.1.6.4.8s.9.5 1.9.7c2.4.5 4.2 1 5.2 1.4 1 .4 1.9 1.1 2.6 2.1.7 1 1 2.2 1 3.5 0 1.9-.7 3.5-2 4.8-1.4 1.3-3.2 2.1-5.6 2.3V60h-3.2v-2.9c-4-.5-6.6-2.6-7.6-6.4l5.9-1.1c.5 1.7 1.8 2.6 3.8 2.6 1.6 0 2.4-.4 2.4-1.3 0-.5-.2-.8-.6-1.1-.4-.3-1-.5-2-.7-3.7-.8-6-1.7-7-2.9s-1.5-2.5-1.5-4c0-1.7.5-3.1 1.6-4.4 1.2-1 2.8-1.8 5-2.1z"/></g></switch></svg>