<svg version="1.1" id="Layer_1" xmlns="http://www.w3.org/2000/svg" x="0" y="0" viewBox="0 0 128 128" xml:space="preserve"><style>.st1{fill:#231f20}.st2{fill:#d6b2f5}</style><switch><g><path class="st1" d="M42.8 47.5h-5.4c-1.4 0-2.5-1.1-2.5-2.5s1.1-2.5 2.5-2.5h5.4c1.4 0 2.5 1.1 2.5 2.5s-1.1 2.5-2.5 2.5z"/><circle class="st2" cx="22.4" cy="52.2" r="22.4"/><path class="st1" d="M20.3 76.1h-6.5c-3.8 0-6.9-3.1-6.9-6.9V35.7c0-3.8 3.1-6.9 6.9-6.9h6.5c1.4 0 2.5 1.1 2.5 2.5v42.3c0 1.4-1.1 2.5-2.5 2.5zm-6.5-42.3c-1 0-1.9.8-1.9 1.9v33.6c0 1 .8 1.9 1.9 1.9h4V33.8h-4z"/><path class="st1" d="M30.2 88.7h-5.1c-4 0-7.2-3.2-7.2-7.2V24.9c0-4 3.2-7.2 7.2-7.2h5.1c4 0 7.2 3.2 7.2 7.2v2.8c0 1.4-1.1 2.5-2.5 2.5s-2.5-1.1-2.5-2.5v-2.8c0-1.2-1-2.2-2.2-2.2h-5.1c-1.2 0-2.2 1-2.2 2.2v56.6c0 1.2 1 2.2 2.2 2.2h5.1c1 0 1.8-.6 2.2-.9V35c0-1.4 1.1-2.5 2.5-2.5s2.5 1.1 2.5 2.5v48.5c.1 2.5-3.7 5.2-7.2 5.2z"/><path class="st1" d="M20.3 76.1h-6.5c-3.8 0-6.9-3.1-6.9-6.9V35.7c0-3.8 3.1-6.9 6.9-6.9h6.5c1.4 0 2.5 1.1 2.5 2.5v42.3c0 1.4-1.1 2.5-2.5 2.5zm-6.5-42.3c-1 0-1.9.8-1.9 1.9v33.6c0 1 .8 1.9 1.9 1.9h4V33.8h-4z"/><path class="st1" d="M20.3 76.1h-6.5c-3.8 0-6.9-3.1-6.9-6.9V35.7c0-3.8 3.1-6.9 6.9-6.9h6.5c1.4 0 2.5 1.1 2.5 2.5v42.3c0 1.4-1.1 2.5-2.5 2.5zm-6.5-42.3c-1 0-1.9.8-1.9 1.9v33.6c0 1 .8 1.9 1.9 1.9h4V33.8h-4zM47.8 106.6c-1.4 0-2.5-1.1-2.5-2.5V74.2c-.6-.7-1.8-1.8-3.4-3.2-3.8-3.3-2.9-10.4-2.8-11.2.2-1.4 1.5-2.3 2.8-2.1 1.4.2 2.3 1.5 2.1 2.8-.3 2.1-.1 5.7 1.1 6.8 3 2.6 4.4 4.3 4.5 4.4.4.5.6 1 .6 1.6v30.8c.1 1.4-1.1 2.5-2.4 2.5z"/><circle class="st2" cx="105.9" cy="53.2" r="22.4"/><path class="st1" d="M114.9 75.9h-6.5c-1.4 0-2.5-1.1-2.5-2.5V31.1c0-1.4 1.1-2.5 2.5-2.5h6.5c3.8 0 6.9 3.1 6.9 6.9V69c0 3.8-3.1 6.9-6.9 6.9zm-4-5h4c1 0 1.9-.8 1.9-1.9V35.5c0-1-.8-1.9-1.9-1.9h-4v37.3z"/><path class="st1" d="M103.7 87.1h-5.2c-4 0-7.2-3.2-7.2-7.2V76c0-1.4 1.1-2.5 2.5-2.5s2.5 1.1 2.5 2.5v3.8c0 1.2 1 2.2 2.2 2.2h5.2c1.2 0 2.2-1 2.2-2.2V23.2c0-1.2-1-2.2-2.2-2.2h-5.2c-1.2 0-2.2 1-2.2 2.2v45.5c0 1.4-1.1 2.5-2.5 2.5s-2.5-1.1-2.5-2.5V23.2c0-4 3.2-7.2 7.2-7.2h5.2c4 0 7.2 3.2 7.2 7.2v56.6c0 4.1-3.2 7.3-7.2 7.3z"/><path class="st1" d="M114.9 75.9h-6.5c-1.4 0-2.5-1.1-2.5-2.5V31.1c0-1.4 1.1-2.5 2.5-2.5h6.5c3.8 0 6.9 3.1 6.9 6.9V69c0 3.8-3.1 6.9-6.9 6.9zm-4-5h4c1 0 1.9-.8 1.9-1.9V35.5c0-1-.8-1.9-1.9-1.9h-4v37.3z"/><path class="st1" d="M114.9 75.9h-6.5c-1.4 0-2.5-1.1-2.5-2.5V31.1c0-1.4 1.1-2.5 2.5-2.5h6.5c3.8 0 6.9 3.1 6.9 6.9V69c0 3.8-3.1 6.9-6.9 6.9zm-4-5h4c1 0 1.9-.8 1.9-1.9V35.5c0-1-.8-1.9-1.9-1.9h-4v37.3z"/><path class="st1" d="M114.9 75.9h-6.5c-1.4 0-2.5-1.1-2.5-2.5V31.1c0-1.4 1.1-2.5 2.5-2.5h6.5c3.8 0 6.9 3.1 6.9 6.9V69c0 3.8-3.1 6.9-6.9 6.9zm-4-5h4c1 0 1.9-.8 1.9-1.9V35.5c0-1-.8-1.9-1.9-1.9h-4v37.3zM47.8 50.6c-3.8 0-6.7-4.3-6.7-10s2.9-10 6.7-10c3.8 0 6.7 4.3 6.7 10s-2.9 10-6.7 10zm0-14.9c-.4.1-1.7 1.7-1.7 5 0 3.2 1.3 4.9 1.8 5 .4-.1 1.7-1.7 1.7-5s-1.4-5-1.8-5z"/><path class="st1" d="M57.7 49.9c-2.1 0-4-1.2-5.4-3.4-1.2-1.9-1.9-4.4-2-7s.4-5.1 1.4-7.1c1.2-2.4 3.2-3.8 5.3-3.9 2.2-.1 4.2 1.2 5.6 3.4 1.2 1.9 1.9 4.4 2 7 .1 2.6-.4 5.1-1.4 7.1-1.2 2.4-3.2 3.8-5.3 3.9h-.2zm-.5-16.5c-.2 0-.7.3-1.1 1.2-.6 1.2-.9 2.9-.8 4.6.1 1.7.5 3.4 1.2 4.5.5.8 1 1.1 1.2 1.1.2 0 .7-.3 1.1-1.2.6-1.2.9-2.9.8-4.6-.1-1.7-.5-3.4-1.2-4.5-.5-.8-1-1.1-1.2-1.1z"/><path class="st1" d="M68.1 48.3c-1.9 0-3.7-1.1-5-3.1-1.1-1.7-1.7-3.9-1.8-6.2-.2-5.5 2.4-9.7 6.1-9.9 3.7-.2 6.7 3.8 7 9.3.1 2.3-.3 4.6-1.2 6.3-1.1 2.2-2.9 3.5-4.9 3.6-.1-.1-.2 0-.2 0zM67.6 34c-.4.1-1.5 1.8-1.3 4.7.1 2.9 1.3 4.4 1.8 4.6.4-.1 1.5-1.8 1.3-4.7-.1-2.9-1.3-4.5-1.8-4.6z"/><path class="st1" d="M78.4 49.2c-3.4 0-6-3.6-6.2-8.5-.2-5 2.2-8.8 5.7-9 3.4-.1 6.2 3.5 6.4 8.5.2 5-2.2 8.8-5.7 9h-.2zM78 36.8c-.4.4-1 1.7-.9 3.7.1 2 .8 3.2 1.2 3.6.4-.4 1-1.7.9-3.7 0-2-.7-3.3-1.2-3.6z"/><path class="st1" d="M64.1 60.8c-.4 0-.9-.1-1.3-.4-3.5-2.2-4.3-4.7-4.4-6.4-.2-4.2 3.8-7.2 4.2-7.5.4-.3.9-.5 1.5-.5h17.6c.4 0 .8.1 1.2.3 9.1 5 6.7 11.7 6.6 12-.5 1.3-1.9 2-3.2 1.5-1.3-.5-1.9-1.9-1.5-3.1.1-.3.7-3-3.8-5.7H65c-.7.7-1.7 1.8-1.6 2.8 0 1 1.3 1.9 2 2.3 1.2.7 1.5 2.3.8 3.4-.4.8-1.2 1.3-2.1 1.3z"/><path class="st1" d="M92.1 48.5h-9.4c-1.4 0-2.5-1.1-2.5-2.5s1.1-2.5 2.5-2.5h9.4c1.4 0 2.5 1.1 2.5 2.5s-1.1 2.5-2.5 2.5zM93.8 62.2H35c-1.4 0-2.5-1.1-2.5-2.5s1.1-2.5 2.5-2.5h58.8c1.4 0 2.5 1.1 2.5 2.5s-1.1 2.5-2.5 2.5z"/><path class="st1" d="M79.3 82.2c-1.4 0-2.5-1.1-2.5-2.5v-8.2c0-.8.4-1.5 1-2 0 0 1.6-1.2 4.8-4.3 2.3-2.3 1.8-4.9 1.7-5-.3-1.3.5-2.7 1.9-3 1.4-.3 2.7.5 3 1.9.1.2 1.2 5.4-3.1 9.7-2 1.9-3.4 3.2-4.3 3.9v7c0 1.4-1.2 2.5-2.5 2.5zM79.1 109.5c-1.4 0-2.5-1.1-2.5-2.5V85.4c0-1.4 1.1-2.5 2.5-2.5s2.5 1.1 2.5 2.5V107c0 1.3-1.1 2.5-2.5 2.5z"/></g></switch></svg>