<svg version="1.1" id="Layer_1" xmlns="http://www.w3.org/2000/svg" x="0" y="0" viewBox="0 0 128 139" xml:space="preserve"><style>.st0{fill:#d6b2f5}.st1{fill:#231f20}</style><switch><g><circle class="st0" cx="19.2" cy="29.7" r="14.9"/><circle class="st0" cx="107.3" cy="30.7" r="14.9"/><path d="M-1.4 18.8c-.9-.3-1.9-.4-2.9-.4-6.2 0-11.3 5.1-11.3 11.3v3.8c0 6.2 5.1 11.3 11.3 11.3 1.1 0 2.1-.2 3.1-.4C3.5 43 7 38.7 7 33.5v-3.8c-.1-5.2-3.6-9.6-8.4-10.9zm3.6 9.1l-2.5-1.5c-.9-.6-2.1-.3-2.8.5-1.5 1.8-3.6 2.8-5.9 2.8h-2.2c0-3.8 3.1-6.8 6.9-6.8 3 0 5.7 2 6.5 5zm.3 5.6c0 3.8-3.1 6.9-6.9 6.8-3.5 0-6.5-2.7-6.8-6.2H-9c2.9 0 5.8-1.1 8-3l3.5 2.1v.3z" transform="translate(24.859)"/><path class="st1" d="M40.6 112.1c-4.7 0-6.4-2-7.5-4.2-.1-.1-.1-.3-.2-.4-.6-1-.9-2.2-1-3.5l-.5-10.2c-2.5.1-6.7.1-11-.1-6.7-.3-9-5.2-8.9-8.5L10.8 54c0-.2 0-.5.1-.7 1-3.8 3.3-5.4 5-6.1 4.9-2.1 10.7.8 11.4 1.2.3.1.5.4.8.6l8.2 9.7 10.2.7c.1 0 .2 0 .4.1.3.1 6.4 1.4 7.8 6.7 1.3 4.8-2.8 7.7-5.2 8.6-.3.1-.5.1-.8.2l-16.2.5c-.8 0-1.6-.4-2.1-1v5.4L44.1 81c1.2.1 2.1 1.1 2.2 2.3l1.9 20.4c0 .4.3 3.7-1.9 6.2-.9 1-2.6 2.2-5.5 2.3-.1-.1-.1-.1-.2-.1zm-6.9-23.4c1.3 0 2.4 1 2.5 2.4l.7 12.6c0 .5.1.9.3 1.3.1.2.2.5.4.7.5.9.7 1.4 3.1 1.4 1.3 0 1.7-.5 1.8-.6.6-.7.7-2 .6-2.4l-1.7-18.3-13.8-1.5c-1.3-.1-2.2-1.2-2.2-2.5V64.7c0-1.1.8-2.1 1.9-2.4 1.1-.3 2.3.2 2.8 1.2l3.8 6.8 14.2-.4c.7-.3 2.1-1.2 1.8-2.4-.5-2-3.3-2.9-3.9-3.1l-11.1-.7c-.7 0-1.3-.4-1.7-.9l-8.6-10.1c-1.5-.7-4.6-1.7-6.7-.8-.9.4-1.6 1.3-2 2.6l.7 30.9v.1c0 .9.4 3.2 4.1 3.4 6.5.3 12.9 0 13 0v-.2z"/><path d="M18.3 99.6C9 99.6 5.8 92 5.6 91.7c0-.1-.1-.2-.1-.3l-5-17.2c-.4-1.3.4-2.7 1.7-3.1 1.3-.4 2.7.4 3.1 1.7l5 17.1c.3.7 2.6 4.9 8.2 4.7 7.9-.1 10.3 0 10.4 0 1.4.1 2.4 1.3 2.3 2.7-.1 1.4-1.3 2.4-2.7 2.3 0 0-2.4-.1-10 0h-.2z"/><path d="M19.2 114.8c-1.4 0-2.5-1.1-2.5-2.5V97.1c0-1.4 1.1-2.5 2.5-2.5s2.5 1.1 2.5 2.5v15.2c0 1.4-1.1 2.5-2.5 2.5z"/><path d="M69.9 30.7v3.8c0 5.2 3.5 9.5 8.2 10.9 1 .3 2 .4 3.1.4 6.2 0 11.3-5.1 11.3-11.3v-3.8c0-6.2-5.1-11.3-11.3-11.3-1 0-2 .1-2.9.4-4.9 1.3-8.4 5.7-8.4 10.9zm11.3-6.9c3.8 0 6.8 3.1 6.9 6.8h-2.2c-2.3 0-4.5-1-5.9-2.8-.7-.8-1.9-1-2.8-.5l-2.5 1.5c.7-2.9 3.4-5 6.5-5zm-6.9 10.3l3.5-2.1c2.2 1.9 5.1 3 8 3H88c-.3 3.5-3.3 6.2-6.8 6.2-3.8 0-6.9-3-6.9-6.8v-.3z" transform="translate(24.859)"/><path class="st1" d="M87.7 112h-.1c-2.9 0-4.6-1.2-5.5-2.3-2.2-2.4-1.9-5.8-1.9-6.2L82 83.2c.1-1.2 1-2.1 2.2-2.3l13.6-1.5V74c-.5.7-1.3 1.1-2.1 1l-16.2-.5c-.3 0-.5-.1-.8-.2-2.4-.9-6.5-3.8-5.2-8.6 1.4-5.3 7.6-6.7 7.8-6.7.1 0 .2 0 .4-.1l10.3-.3 8.2-9.7c.2-.2.5-.5.8-.6.7-.3 6.5-3.3 11.4-1.2 1.7.7 3.9 2.4 5 6.1.1.2.1.5.1.7l-.7 31.2c.1 3.3-2.2 8.2-8.9 8.5-4.3.2-8.4.1-11 .1l-.5 10.2c-.1 1.3-.4 2.5-1 3.5-.1.1-.1.3-.2.4-1.1 2.2-2.8 4.2-7.5 4.2zm-.9-26.3L85.1 104c0 .4 0 1.7.6 2.4.1.1.5.6 1.8.6 2.4 0 2.6-.5 3.1-1.4.1-.2.2-.5.4-.7.2-.3.3-.8.3-1.3l.8-12.6c.1-1.4 1.3-2.4 2.6-2.4.1 0 6.5.3 13 0 3.7-.2 4.1-2.4 4.1-3.4v-.1l.7-30.9c-.4-1.3-1.1-2.2-2-2.6-2.1-.9-5.3.2-6.7.8l-8.6 10.1c-.4.5-1.1.8-1.7.9l-11.1.7c-.6.2-3.4 1.1-3.9 3.1-.3 1.3 1.1 2.1 1.8 2.4l14.2.4 3.8-6.8c.6-1 1.7-1.5 2.8-1.2 1.1.3 1.9 1.3 1.9 2.4v17.1c0 1.3-1 2.3-2.2 2.5l-14 1.7z"/><path d="M110 100.6h-.3c-7.6-.1-10 0-10 0-1.4.1-2.6-1-2.6-2.3-.1-1.4 1-2.6 2.3-2.6.1 0 2.5-.1 10.4 0 5.6.1 7.9-4 8.2-4.8l5-17.1c.4-1.3 1.8-2.1 3.1-1.7s2.1 1.8 1.7 3.1l-5.1 17.2c0 .1-.1.2-.1.3-.1.3-3.3 7.9-12.6 7.9z"/><path d="M104.3 115.8c-1.4 0-2.5-1.1-2.5-2.5V98.1c0-1.4 1.1-2.5 2.5-2.5s2.5 1.1 2.5 2.5v15.2c0 1.4-1.1 2.5-2.5 2.5z"/><path class="st1" d="M87.4 81h-42c-1.4 0-2.5-1.1-2.5-2.5S44 76 45.4 76h42c1.4 0 2.5 1.1 2.5 2.5S88.8 81 87.4 81z"/><path class="st1" d="M66.8 114.8c-1.4 0-2.5-1.1-2.5-2.5V78.9c0-1.4 1.1-2.5 2.5-2.5s2.5 1.1 2.5 2.5v33.4c0 1.4-1.1 2.5-2.5 2.5z"/></g></switch></svg>