<svg version="1.1" id="Layer_1" xmlns="http://www.w3.org/2000/svg" x="0" y="0" viewBox="0 0 128 128" xml:space="preserve"><style>.st0{fill:#070707}.st1{fill:#d6b2f5}</style><switch><g><path class="st0" d="M63.4 30.3c-.6 0-1.2-.2-1.7-.6-.5-.5-13.4-12-6.1-23.3 1.9-2.9 5.2-4.5 8.7-4.2 3.5.3 6.3 2.4 7.7 5.5 2.6 6.1.3 13.4-6.7 21.7-.4.5-1.1.8-1.7.9h-.2zm.1-23.2c-1.5 0-2.9.7-3.7 2-3.6 5.5.7 11.8 3.4 14.9 4.3-5.7 5.7-10.7 4.2-14.4-.6-1.4-1.9-2.3-3.5-2.5h-.4z"/><path class="st0" d="M81.2 35.7c-6.9 0-13.7-2.6-18-5.2-20.2 8-32-4.3-32.5-4.9-.9-1-.9-2.6.1-3.5 1-.9 2.6-.9 3.5.1.4.5 10.5 10.7 28.1 3.2.8-.3 1.6-.3 2.3.2.8.5 18.7 11.8 29.8-.8.9-1 2.5-1.1 3.5-.2 1 .9 1.1 2.5.2 3.5-4.8 5.7-11 7.6-17 7.6z"/><path class="st0" d="M63.2 113.6c-1.4 0-2.5-1.1-2.5-2.5V27.8c0-1.4 1.1-2.5 2.5-2.5s2.5 1.1 2.5 2.5v83.4c0 1.3-1.1 2.4-2.5 2.4z"/><path class="st0" d="M79.3 114.8H46c-1.4 0-2.5-1.1-2.5-2.5s1.1-2.5 2.5-2.5h33.3c1.4 0 2.5 1.1 2.5 2.5s-1.1 2.5-2.5 2.5zM91.4 76c-.2 0-.5 0-.7-.1-1.3-.4-2.1-1.8-1.7-3.1l12.3-43.3c.4-1.3 1.8-2.1 3.1-1.7 1.3.4 2.1 1.8 1.7 3.1L93.8 74.2c-.3 1.1-1.3 1.8-2.4 1.8z"/><path class="st0" d="M115.5 76c-1.1 0-2.1-.7-2.4-1.8L101.3 32c-.4-1.3.4-2.7 1.7-3.1 1.3-.4 2.7.4 3.1 1.7l11.8 42.2c.4 1.3-.4 2.7-1.7 3.1-.3.1-.5.1-.7.1zM12.7 76c-.2 0-.5 0-.7-.1-1.3-.4-2.1-1.8-1.7-3.1l12.3-43.3c.4-1.3 1.8-2.1 3.1-1.7 1.3.4 2.1 1.8 1.7 3.1L15.1 74.2c-.3 1.1-1.3 1.8-2.4 1.8z"/><path class="st0" d="M36.8 76c-1.1 0-2.1-.7-2.4-1.8L22.6 32c-.4-1.3.4-2.7 1.7-3.1s2.7.4 3.1 1.7l11.8 42.2c.4 1.3-.4 2.7-1.7 3.1-.3.1-.5.1-.7.1z"/><circle class="st1" cx="25.1" cy="22.8" r="9.5"/><circle class="st1" cx="104.2" cy="23" r="9.5"/><path class="st0" d="M26.1 32.9c-4.9 0-8.9-4-8.9-8.9s4-8.9 8.9-8.9 8.9 4 8.9 8.9-4 8.9-8.9 8.9zm0-12.8c-2.2 0-3.9 1.8-3.9 3.9s1.8 3.9 3.9 3.9S30 26.2 30 24s-1.7-3.9-3.9-3.9zM103.3 32.9c-4.9 0-8.9-4-8.9-8.9s4-8.9 8.9-8.9 8.9 4 8.9 8.9-3.9 8.9-8.9 8.9zm0-12.8c-2.2 0-3.9 1.8-3.9 3.9s1.8 3.9 3.9 3.9 3.9-1.8 3.9-3.9-1.7-3.9-3.9-3.9z"/><path class="st1" d="M48.2 77.1c0 12.7-10.3 23.1-23.1 23.1S2 89.9 2 77.1M126.4 76.4c0 12.7-10.3 23.1-23.1 23.1s-23-10.3-23-23.1"/><path class="st0" d="M25.2 95.9c-4.5 0-8.9-1.2-12.7-3.6C6.9 88.7 3.2 83 2 75.9c-.1-.7.1-1.5.6-2 .4-.6 1.1-.9 1.9-.9h40.6c1.4 0 2.5 1.1 2.5 2.4 0 .5.1 12.8-12.2 18.3-3.4 1.5-6.8 2.2-10.2 2.2zM7.6 78c1.3 4.3 3.9 7.7 7.6 10 5.3 3.4 12.1 3.8 18.1 1.1 6.4-2.8 8.4-8 9-11.1H7.6zM103.4 95.9c-1.7 0-3.4-.2-5.1-.7-5.6-1.5-15.3-6.1-17.6-19.4-.1-.7.1-1.5.5-2 .5-.6 1.2-.9 1.9-.9h40.6c1.4 0 2.5 1.1 2.5 2.4 0 .2.1 17.8-20.2 20.4-.8.1-1.7.2-2.6.2zm-17.1-18c2.4 7.9 8.5 11.2 13.3 12.5 1.8.5 3.8.6 5.8.4 11.8-1.5 14.8-8.9 15.6-12.9H86.3z"/></g></switch></svg>