<svg version="1.1" id="Layer_1" xmlns="http://www.w3.org/2000/svg" x="0" y="0" viewBox="0 0 128 128" xml:space="preserve"><style>.st0{fill:#020202}</style><switch><g><path class="st0" d="M76.2 77.4c-1.3 0-2.3-1-2.3-2.3V43H15.3C14 43 13 42 13 40.7c0-1.3 1-2.3 2.3-2.3h60.9c1.3 0 2.3 1 2.3 2.3v34.4c0 1.3-1.1 2.3-2.3 2.3z"/><path class="st0" d="M34.6 43.3h-.1c-1.3-.1-2.3-1.2-2.2-2.5 0-.2.4-5.8 4.8-9.5 3-2.5 6.9-3.5 11.8-3 5.8.6 9.9 2.5 12.1 5.5 2.3 3.1 1.7 6.1 1.7 6.5-.2 1.3-1.5 2.1-2.7 1.8-1.3-.2-2.1-1.5-1.8-2.7 0 0 .2-1.4-.9-2.9-1.4-1.9-4.5-3.1-8.8-3.6-3.6-.4-6.4.3-8.3 1.9-2.8 2.4-3.1 6.2-3.1 6.2-.2 1.4-1.2 2.3-2.5 2.3z"/><path class="st0" d="M88.2 35.2H56.3c-1.3 0-2.3-1-2.3-2.3 0-1.3 1-2.3 2.3-2.3h30.9c.8-1 1.3-2.1 1.2-3.3 0-2.7-2.1-6.1-5.7-9.5-.6-.6-1.4-.9-2.3-.9H46.5c-2.3 1.7-3.5 3.6-3.7 5.5-.3 3.5 2.7 6.5 2.7 6.6.9.9.9 2.4 0 3.3-.9.9-2.4.9-3.3 0-.2-.2-4.6-4.6-4.1-10.3.3-3.6 2.4-6.7 6.2-9.4.4-.3.9-.4 1.3-.4h34.7c2 0 4 .8 5.4 2.1 3.3 3 7.2 7.7 7.2 12.9 0 2.8-1.1 5.3-3.3 7.4-.2.3-.8.6-1.4.6z"/><path class="st0" d="M108.2 41.7c-.4 0-.8-.1-1.1-.3-1.1-.6-1.5-2-.9-3.2 1.9-3.5-1.3-14-2.4-16.1C96.6 9.4 80.4 6.4 79.2 6.2 65.2 5 62.9 14 62.8 14.4c-.3 1.2-1.5 2-2.8 1.7-1.2-.3-2-1.5-1.8-2.8 0-.1 3.1-13.4 21.5-11.8h.1c.8.1 19.5 3.1 28 18.3.1.2 5.9 14.2 2.3 20.6-.3.9-1.1 1.3-1.9 1.3z"/><path class="st0" d="M79.6 79.4h-.4l-12.1-2c-1.3-.2-2.1-1.4-1.9-2.7.2-1.3 1.4-2.1 2.7-1.9l11.7 1.9c14.6-1.9 19.7-11 19.8-11.1 5.1-10.2-.6-18.3-1.4-19.3L87.3 33.6c-.9-.9-.9-2.4 0-3.3.9-.9 2.4-.9 3.3 0l10.9 10.8.2.2c.4.4 8.7 11 1.9 24.5-.3.5-6.5 11.5-23.6 13.6h-.4z"/><path class="st0" d="M120.1 127.1H17c-1.3 0-2.3-1-2.3-2.3V93.2l-7.1-9.9C1 78.4 1.3 70.8 2.4 67l-.8-22.8c0-.4.1-.8.3-1.1L8 31c.3-.7 1-1.1 1.7-1.2.3 0 6.5-1 12.3.9 5.5 1.8 7 7.1 7 9.6 0 1.3-1 2.3-2.3 2.3-1.3 0-2.3-1-2.3-2.3 0-.4-.2-4-3.8-5.2-3.4-1.1-7.2-1-9-.9L6.2 44.6 7 67.3c0 .3 0 .6-.1.9-.1.3-2.4 7.3 3.7 11.6.2.1.4.3.5.5l7.7 10.8c.3.4.4.9.4 1.4v29.9h98.7l2.8-19.5c0-.1 0-.2.1-.4.2-.7 2-7.5-4.2-10.6l-26.7-9-22.5-6.5c-1.6.7-4.8 3-3.2 8.6 2.5 8.9 8.1 23 8.2 23.1.5 1.2-.1 2.6-1.3 3-1.2.5-2.6-.1-3-1.3-.2-.6-5.8-14.5-8.3-23.6-2.5-8.9 3.4-13.4 6.9-14.5.4-.1.9-.2 1.4 0l23.3 6.7h.1l26.9 9.1c.1 0 .2.1.3.1 8 3.9 8 12.1 6.8 16.1l-3.1 21.4c-.2 1.1-1.2 2-2.3 2z"/><path class="st0" d="M101.2 127.1c-1.3 0-2.3-1-2.3-2.3v-20.3c0-1.3 1-2.3 2.3-2.3s2.3 1 2.3 2.3v20.3c0 1.3-1 2.3-2.3 2.3z"/><path class="st0" d="M100.6 116.3h-.4l-37.3-5.8c-1.3-.2-2.1-1.4-1.9-2.7.2-1.3 1.4-2.1 2.7-1.9l37.3 5.8c1.3.2 2.1 1.4 1.9 2.7-.2 1.1-1.2 1.9-2.3 1.9zM29.2 78.9h-9c-.7 0-1.3-.3-1.7-.8-.4-.5-.7-1.1-.6-1.8l1.1-11c0-.2.1-.4.1-.5l1.8-5.3.5-9.2-1-9.2c-.1-1.3.8-2.4 2.1-2.6 1.3-.1 2.4.8 2.6 2.1l1 9.3v.4l-.6 9.7c0 .2-.1.4-.1.6L23.5 66l-.8 8.2h6.5c1.3 0 2.3 1 2.3 2.3s-1 2.4-2.3 2.4z"/><path class="st0" d="M23.7 52.5H17c-1.3 0-2.3-1-2.3-2.3s1-2.3 2.3-2.3h6.7c1.3 0 2.3 1 2.3 2.3s-1 2.3-2.3 2.3zM23.2 61h-7.9C14 61 13 60 13 58.7c0-1.3 1-2.3 2.3-2.3h7.9c1.3 0 2.3 1 2.3 2.3.1 1.3-1 2.3-2.3 2.3zM15.3 68C14 68 13 67 13 65.7c0-1.3 1-2.4 2.3-2.4l5.5-.1c1.3-.1 2.4 1 2.4 2.3 0 1.3-1 2.4-2.3 2.4l-5.6.1zM54 127.1c-1.1 0-2.1-.8-2.3-1.9-.1-.3-6.3-30.9-8.3-39-1.6-6.5-12.7-7.3-12.8-7.3-1.3-.1-2.3-1.2-2.2-2.5.1-1.3 1.2-2.3 2.5-2.2.6 0 14.6 1.1 17 10.9 2 8.2 8 37.9 8.3 39.2.3 1.3-.6 2.5-1.8 2.7-.1.1-.2.1-.4.1z"/><path class="st0" d="M32.8 96.8c-.7 0-1.4-.3-1.8-.9-.8-1-.6-2.5.4-3.3l12.6-10c1-.8 2.5-.6 3.3.4.8 1 .6 2.5-.4 3.3l-12.7 10c-.4.4-.9.5-1.4.5zM103.9 60.2c-1.1 0-2.1-.8-2.3-2-.2-1.3.7-2.5 2-2.7 0 0 2.8-.5 4.2-2.7 1-1.6 1.2-3.8.4-6.6-.6-2.2-1.5-3.6-2.4-3.9-1.3-.4-3.5 1.2-4.3 2-.9.9-2.4.9-3.3 0-.9-.9-.9-2.4 0-3.3.4-.4 4.5-4.4 8.8-3.2 2.7.7 4.6 3.1 5.7 7.2 1.1 4.1.7 7.6-1.1 10.4-2.6 3.9-7.2 4.7-7.4 4.7-.1.1-.2.1-.3.1zM88.3 52.5c-3.2 0-5.8-2.6-5.8-5.8 0-3.2 2.6-5.8 5.8-5.8s5.8 2.6 5.8 5.8c0 3.2-2.6 5.8-5.8 5.8zm0-7c-.6 0-1.2.5-1.2 1.2 0 .6.5 1.2 1.2 1.2.6 0 1.2-.5 1.2-1.2s-.6-1.2-1.2-1.2z"/><circle cx="48.5" cy="57.9" r="18.1" fill="#d6b2f5"/><path class="st0" d="M47.3 75c-9.4 0-17.1-7.7-17.1-17.1s7.7-17.1 17.1-17.1 17.1 7.7 17.1 17.1S56.7 75 47.3 75zm0-29.5c-6.8 0-12.4 5.6-12.4 12.4 0 6.8 5.6 12.4 12.4 12.4s12.4-5.6 12.4-12.4c0-6.9-5.6-12.4-12.4-12.4z"/><path class="st0" d="M47.3 68c-5.6 0-10.1-4.5-10.1-10.1s4.5-10.1 10.1-10.1 10.1 4.5 10.1 10.1C57.3 63.4 52.8 68 47.3 68zm0-15.5c-3 0-5.4 2.4-5.4 5.4 0 3 2.4 5.4 5.4 5.4 3 0 5.4-2.4 5.4-5.4 0-3-2.5-5.4-5.4-5.4zM36.8 127.1c-1.1 0-2.1-.8-2.3-2l-7.9-50.6c-2-5.5-2.1-10.2-.4-13.8 1.9-3.9 5.3-5 5.7-5.1 1.2-.4 2.5.3 2.9 1.5.4 1.2-.3 2.5-1.5 2.9-.1 0-1.9.7-2.9 2.8-1.1 2.4-.9 6 .7 10.2.1.1.1.3.1.5l8 50.8c.2 1.3-.7 2.5-1.9 2.7-.3.1-.4.1-.5.1zM77.5 91.4c-.6 0-1.1 0-1.7-.1-7-.9-10.8-7.1-11-7.4-.3-.4-.4-.9-.3-1.4.6-6.5 1.2-16.5.8-18.4-.4-1.9-2.2-3.6-2.8-4.1-1-.8-1.2-2.3-.4-3.3.8-1 2.3-1.2 3.3-.4.4.3 3.5 2.9 4.4 6.7.7 3-.3 15-.6 19 .9 1.2 3.5 4.1 7.2 4.6 3.4.4 7.1-1.3 11.1-5v-7.1c0-1.3 1-2.3 2.3-2.3 1.3 0 2.3 1 2.3 2.3v8.1c0 .6-.2 1.2-.7 1.7-4.6 4.7-9.3 7.1-13.9 7.1z"/></g></switch></svg>