<svg version="1.1" id="Layer_1" xmlns="http://www.w3.org/2000/svg" x="0" y="0" viewBox="0 0 128 128" style="enable-background:new 0 0 128 128" xml:space="preserve"><style>.st0{fill:#c9aae5}.st1{fill:#231f20}</style><circle class="st0" cx="64.5" cy="34.5" r="9.5"/><circle class="st0" cx="100.5" cy="31.5" r="9.5"/><circle class="st0" cx="27.5" cy="31.5" r="9.5"/><path class="st1" d="M63.6 44c-4.2 0-7.6-4-7.6-9 0-4.7 3.1-8 7.6-8s7.6 3.3 7.6 8c0 5-3.4 9-7.6 9zm0-12c-1.7 0-2.6 1.1-2.6 3 0 2.4 1.4 4 2.6 4s2.6-1.6 2.6-4c0-1.9-.9-3-2.6-3z"/><path class="st1" d="M45.6 77c-1.9 0-3.7-.9-4.8-2.4-1.6-2.2-1.2-4.7.9-6.8l.2-.2 10.8-9c.1-.1.3-.3.3-1.2v-4.2c0-.2-.1-.4-.3-.5-.5-.4-1-.8-1.5-1.3-5.3-4.9-8.2-14.3-6.7-21.5 1.8-8.4 6.2-12.2 6.3-12.3l.1-.1c1.5-1.1 2.9-1.5 4.3-1.3.9.1 2.1.6 3.1 2.1 1.3 1.9 1.4 4.4.2 6.5-1.9 3.5-3.3 6.8-3.7 9.2-.8 3.8 2.5 7.9 2.5 8 0 0 2.6 3 6.1 3.1 2.2.1 4.3-1 6.4-3.2l.2-.2c.2-.2 4.4-4.1 2.5-11.3l-2.8-7.1c-1.1-2.9.1-6.1 2.9-7.3 1.7-.8 3.5-.6 5.1.5 4 2.5 6.3 9.2 6.3 18 0 8.9-6.3 16.3-6.6 16.6l-.1.1-2 2c-.2.2-.2.4-.2.6v4c0 .3.1.5.3.7l7.6 5.9c3.1 2.1 6 5.7 4.4 9.2-.6 1.4-2 2.3-3.6 2.3l-38 1c-.1.1-.1.1-.2.1zm-.7-5.3c.2.2.5.3.7.3l37-.9c-.4-.7-1.5-1.8-2.5-2.5-.1 0-.1-.1-.1-.1l-7.7-6c-1.4-1.1-2.3-2.8-2.3-4.6v-4c0-1.6.6-3 1.7-4.1l1.9-1.9c.5-.6 5.3-6.7 5.3-13.3 0-7.8-2-12.7-3.9-13.9-.2-.1-.3-.1-.3-.1-.3.1-.4.6-.3.9l2.8 7.2c0 .1.1.2.1.2 2.8 9.8-3 15.6-3.9 16.5-3.1 3.2-6.6 4.8-10.2 4.7-5.7-.2-9.6-4.7-9.8-4.9-.2-.3-4.8-6-3.5-12.1.8-3.8 3-8.3 4.2-10.6.2-.4.3-.9.1-1.2-.1 0-.2.1-.3.2-.4.3-3.3 3.3-4.6 9.5-1.2 5.4 1.2 13.1 5.2 16.8.4.4.8.7 1.1 1 1.4 1.1 2.3 2.8 2.3 4.5v4.2c0 2.1-.7 3.8-2.1 5l-10.7 8.9c0 .1-.1.2-.2.3zM54.3 21"/><path class="st1" d="M61.9 109.6c-.4 0-.9-.1-1.2-.1-3.1-.7-4.4-4-4.5-4.4-.1-.4-.2-.8-.1-1.2l4-27.7c.2-1.4 1.5-2.3 2.8-2.1 1.4.2 2.3 1.5 2.1 2.8l-3.9 27c.2.4.6.8.8.8.1 0 .4 0 .9-.4L69.1 76c.3-1.3 1.6-2.2 3-1.9 1.3.3 2.2 1.6 1.9 3l-6.5 29.1c-.1.5-.4 1-.7 1.3-1.9 1.7-3.6 2.1-4.9 2.1z"/><path class="st1" d="M60.3 94.3c-1.1 0-2.1-.7-2.4-1.9l-4.1-15.3c-.4-1.3.4-2.7 1.8-3.1 1.3-.4 2.7.4 3.1 1.8l4.1 15.3c.4 1.3-.4 2.7-1.8 3.1-.3.1-.5.1-.7.1zM68.1 109.9h-.6c-1.9-.3-3.4-1.7-4.6-4.2-.6-1.3 0-2.7 1.3-3.3 1.3-.6 2.7 0 3.3 1.3.3.6.5 1 .7 1.1.1-.1.4-.3.6-.6L66.1 92c-.3-1.3.6-2.7 1.9-3 1.3-.3 2.7.6 3 1.9l2.7 12.1c.4 1.4.1 3-.8 4.1-1.8 2.3-3.6 2.8-4.8 2.8zm.7-5.4zM100.7 41c-4.1 0-7.4-3.9-7.4-8.7 0-4.6 3-7.7 7.4-7.7s7.4 3.2 7.4 7.7c0 4.8-3.3 8.7-7.4 8.7zm0-11.5c-1.6 0-2.4.9-2.4 2.7 0 2.2 1.2 3.7 2.4 3.7s2.4-1.5 2.4-3.7c0-1.7-.9-2.7-2.4-2.7zM83.7 65.9c-.7 0-1.4-.3-1.9-.9-.9-1.1-.7-2.6.3-3.5l8.1-6.8c.1-.1.3-.2.3-1v-4c0-.2-.1-.3-.2-.4-.4-.3-.9-.7-1.5-1.2-1.8-1.7-3.4-3.9-4.6-6.6-.6-1.3 0-2.7 1.2-3.3 1.3-.6 2.7 0 3.3 1.2.9 2 2.1 3.7 3.4 4.9.4.4.8.7 1.1.9 1.4 1 2.2 2.7 2.2 4.4v4c0 2.1-.7 3.7-2.1 4.9l-8.1 6.8c-.4.4-1 .6-1.5.6z"/><path class="st1" d="M90.6 72.3c-1.4 0-2.5-1.1-2.5-2.4 0-1.4 1.1-2.5 2.4-2.6l28.1-.7c-.4-.6-1.3-1.5-2.3-2.2l-.1-.1-7.4-5.7c-1.4-1.1-2.2-2.7-2.2-4.5v-3.8c0-1.5.6-3 1.7-4l1.9-1.9c.5-.6 5.1-6.3 5.1-12.6 0-7.4-1.9-12-3.7-13.2-.1-.1-.2-.1-.2-.1-.2.1-.3.5-.2.7l2.7 6.9c0 .1.1.2.1.2 2.7 9.4-2.9 15-3.7 15.8-3 3.1-6.3 4.6-9.8 4.5-5.5-.2-9.3-4.5-9.4-4.7-.2-.3-4.6-5.8-3.4-11.7.7-3.7 2.9-7.9 4.1-10.1.2-.3.2-.6.2-.9-.1 0-.1.1-.2.1-.3.3-2.3 2.2-3.7 6.3-.3 1-1.3 1.8-2.4 1.8-1.4 0-2.5-1.1-2.5-2.5 0-.3 0-.6.1-.8 1.9-5.7 4.9-8.3 5.2-8.6l.1-.1c1.4-1.1 2.9-1.5 4.2-1.3.9.1 2.1.6 3.1 2.1 1.2 1.8 1.3 4.3.2 6.3-1.8 3.3-3.1 6.5-3.5 8.7-.6 2.9 1.5 6.4 2.4 7.5 0 0 2.5 2.8 5.8 2.9 2 0 4.1-1 6.1-3l.2-.2c.2-.1 4.2-3.9 2.3-10.7l-2.7-6.7c-1.1-2.8.1-5.9 2.8-7.1 1.6-.7 3.4-.6 5 .5 3.7 2.5 5.9 8.9 5.9 17.3 0 8.5-6.1 15.6-6.3 15.9l-.1.1-1.9 1.9c-.1.1-.2.3-.2.5v3.8c0 .2.1.4.3.6l7.3 5.6c3 2 5.8 5.5 4.2 8.9-.6 1.3-2 2.2-3.5 2.3l-29.6 1z"/><path class="st1" d="M99.1 103.6c-.4 0-.8-.1-1.2-.1-3-.7-4.3-3.9-4.4-4.3-.1-.4-.2-.8-.1-1.2l3.8-26.5c.2-1.4 1.5-2.3 2.8-2.1 1.4.2 2.3 1.5 2.1 2.8l-3.7 25.7c.2.4.5.6.6.7.1 0 .3 0 .7-.3l6-26.9c.3-1.3 1.6-2.2 3-1.9 1.3.3 2.2 1.6 1.9 3l-6.2 27.8c-.1.5-.4 1-.7 1.3-1.8 1.5-3.4 2-4.6 2z"/><path class="st1" d="M97.5 89c-1.1 0-2.1-.7-2.4-1.9l-3.9-14.6c-.4-1.3.4-2.7 1.8-3.1 1.3-.4 2.7.4 3.1 1.8l3.9 14.6c.4 1.3-.4 2.7-1.8 3.1-.2.1-.5.1-.7.1zM105 103.9h-.6c-1.9-.2-3.4-1.6-4.4-4.1-.6-1.3 0-2.7 1.3-3.3 1.3-.6 2.7 0 3.3 1.3.2.5.4.8.5 1 .1-.1.3-.2.4-.4l-2.6-11.6c-.3-1.3.6-2.7 1.9-3 1.3-.3 2.7.6 3 1.9l2.6 11.6c.4 1.4.1 2.9-.8 4-1.7 2.1-3.4 2.6-4.6 2.6zm.6-5.3zM27.4 41c-4.1 0-7.4-3.9-7.4-8.7 0-4.6 3-7.7 7.4-7.7 4.3 0 7.4 3.2 7.4 7.7 0 4.8-3.3 8.7-7.4 8.7zm0-11.5c-1.6 0-2.4.9-2.4 2.7 0 2.2 1.2 3.7 2.4 3.7s2.4-1.5 2.4-3.7c0-1.7-.8-2.7-2.4-2.7zM44.4 65.9c-.6 0-1.1-.2-1.6-.6l-8.1-6.8c-1.4-1.1-2.1-2.8-2.1-4.9v-4c0-1.7.8-3.4 2.2-4.4.3-.2.7-.5 1.1-.9 1.3-1.2 2.4-2.9 3.4-4.9.6-1.3 2.1-1.8 3.3-1.2 1.3.6 1.8 2.1 1.2 3.3-1.2 2.6-2.8 4.9-4.5 6.5-.6.5-1 .9-1.5 1.2-.1.1-.2.3-.2.4v4c0 .8.2 1 .3 1l8.1 6.8c1.1.9 1.2 2.5.3 3.5-.4.7-1.2 1-1.9 1z"/><path class="st1" d="m37.5 72.3-29.4-.8c-1.5-.1-2.9-1-3.5-2.3-1.6-3.4 1.3-6.9 4.3-8.9l7.3-5.7c.2-.1.3-.3.3-.6v-3.8c0-.2-.1-.4-.2-.5l-1.9-1.9-.1-.1C14 47.4 8 40.3 8 31.8c0-8.4 2.2-14.9 5.9-17.3 1.6-1.1 3.4-1.2 5-.5 2.7 1.2 3.9 4.3 2.8 7.1L19 27.8c-1.9 6.9 2.3 10.6 2.3 10.7.1 0 .1.1.2.2 2 2.1 4 3.1 6.1 3 3.3-.1 5.8-2.9 5.8-2.9.8-1 2.9-4.5 2.3-7.4-.4-2.2-1.7-5.4-3.5-8.7-1.1-2.1-1-4.5.2-6.3 1-1.4 2.2-1.9 3-2.1 1.4-.2 2.8.2 4.2 1.3l.1.1c.3.3 3.3 2.9 5.2 8.6.1.3.1.5.1.8 0 1.4-1.1 2.5-2.5 2.5-1.1 0-2.1-.8-2.4-1.8-1.4-4-3.3-6-3.6-6.2-.1 0-.1-.1-.2-.1-.1.3 0 .6.2.9 1.2 2.2 3.3 6.5 4.1 10.1 1.2 5.8-3.2 11.4-3.4 11.6-.2.2-4 4.6-9.5 4.7-3.5.1-6.8-1.4-9.8-4.5-.9-.8-6.4-6.4-3.7-15.8 0-.1 0-.2.1-.2l2.7-6.9c.1-.3 0-.6-.2-.7 0 0-.1 0-.2.1-1.8 1.2-3.7 5.8-3.7 13.2 0 6.3 4.5 12 5.1 12.6l1.9 1.9c1.1 1.1 1.7 2.5 1.7 4v3.8c0 1.8-.8 3.4-2.2 4.5L12 64.5l-.1.1c-.9.6-1.8 1.5-2.2 2.1l28.1.7c1.4 0 2.5 1.2 2.4 2.6-.2 1.2-1.3 2.3-2.7 2.3z"/><path class="st1" d="M29.1 103.6c-1.3 0-2.9-.5-4.7-2.1-.4-.3-.6-.8-.8-1.3l-6.2-27.8c-.3-1.3.5-2.7 1.9-3 1.3-.3 2.7.5 3 1.9l6 26.9c.4.3.7.4.7.3.2 0 .4-.4.6-.7L26 72.2c-.2-1.4.8-2.6 2.1-2.8 1.4-.2 2.6.8 2.8 2.1L34.8 98c.1.4 0 .8-.1 1.2-.1.4-1.4 3.5-4.4 4.3-.4 0-.8.1-1.2.1z"/><path class="st1" d="M30.6 89c-.2 0-.4 0-.6-.1-1.3-.4-2.1-1.7-1.8-3.1L32 71.2c.4-1.3 1.7-2.1 3.1-1.8 1.3.4 2.1 1.7 1.8 3.1L33 87.1c-.3 1.1-1.3 1.9-2.4 1.9zM23.1 103.9c-1.2 0-2.9-.5-4.6-2.6-.9-1.1-1.2-2.6-.8-4l2.6-11.6c.3-1.3 1.6-2.2 3-1.9 1.3.3 2.2 1.6 1.9 3l-2.6 11.6.4.4c.1-.2.3-.5.5-1 .6-1.3 2-1.8 3.3-1.3 1.3.6 1.8 2 1.3 3.3-1.1 2.5-2.6 3.8-4.4 4.1h-.6z"/></svg>