<svg version="1.1" id="Layer_1" xmlns="http://www.w3.org/2000/svg" x="0" y="0" viewBox="0 0 128 128" style="enable-background:new 0 0 128 128" xml:space="preserve"><style>.st0{fill:#d6b2f5}.st1{fill:#041622}</style><ellipse class="st0" cx="63.2" cy="21.4" rx="17.8" ry="17"/><ellipse class="st0" cx="24.2" cy="33.4" rx="14.8" ry="14.1"/><ellipse class="st0" cx="102.2" cy="33.4" rx="14.8" ry="14.1"/><path class="st1" d="M63.5 38C55 38 48 31 48 22.5S55 7 63.5 7 79 14 79 22.5 72 38 63.5 38zm0-26C57.7 12 53 16.7 53 22.5S57.7 33 63.5 33 74 28.3 74 22.5 69.3 12 63.5 12zM24.5 47C17.6 47 12 41.4 12 34.5S17.6 22 24.5 22 37 27.6 37 34.5 31.4 47 24.5 47zm0-20c-4.1 0-7.5 3.4-7.5 7.5s3.4 7.5 7.5 7.5 7.5-3.4 7.5-7.5-3.4-7.5-7.5-7.5zM102.5 47C95.6 47 90 41.4 90 34.5S95.6 22 102.5 22 115 27.6 115 34.5 109.4 47 102.5 47zm0-20c-4.1 0-7.5 3.4-7.5 7.5s3.4 7.5 7.5 7.5 7.5-3.4 7.5-7.5-3.4-7.5-7.5-7.5zM51.5 69c-4.1 0-7.5-3.4-7.5-7.5s3.4-7.5 7.5-7.5 7.5 3.4 7.5 7.5-3.4 7.5-7.5 7.5zm0-10c-1.4 0-2.5 1.1-2.5 2.5s1.1 2.5 2.5 2.5 2.5-1.1 2.5-2.5-1.1-2.5-2.5-2.5z"/><path class="st1" d="M77.5 106.5c-1.4 0-2.5-1.1-2.5-2.5V90.3c0-1.3 1-2.4 2.3-2.5 5.6-.5 6.9-2.7 6.8-3.8-.1-.3 0-.3 0-.6 0-.2 1.9-18.5 0-29.7-1.3-7.9-8.6-10-11.4-10.5l-7.5 7.1c-.9.9-2.4.9-3.4.1l-8.2-7.3c-2.6.2-9.9 1.6-10.6 9.3l-1 32.3c.6.8 2.4 2.6 5.9 3.1 1.2.2 2.1 1.2 2.1 2.5V104c0 1.4-1.1 2.5-2.5 2.5S45 105.4 45 104V92.3c-5.6-1.7-7.6-5.5-7.7-5.7-.2-.4-.3-.8-.3-1.2l1-33.2v-.1C39 40.9 49.2 38 54.5 38c.6 0 1.2.2 1.7.6l7.3 6.4 6.7-6.4c.5-.5 1.2-.7 1.9-.7 5.1.4 15.1 4 16.9 14.8 1.9 11.3.3 28.5 0 30.9.1.9 0 2.8-1.5 4.8s-4.1 3.4-7.5 4V104c0 1.4-1.1 2.5-2.5 2.5z"/><path class="st1" d="M51.5 57.3c-1.4 0-2.5-1.1-2.5-2.5V42.5c0-1.4 1.1-2.5 2.5-2.5s2.5 1.1 2.5 2.5v12.3c0 1.4-1.1 2.5-2.5 2.5zM73.7 56.4c-1.4 0-2.5-1.1-2.5-2.5V40.8c0-1.4 1.1-2.5 2.5-2.5s2.5 1.1 2.5 2.5v13.1c0 1.4-1.1 2.5-2.5 2.5z"/><path class="st1" d="M80.1 70.9c-1.4 0-2.5-1.1-2.5-2.5v-9.7c0-.2 0-.3-.1-.4-2.5-2.5-5.8-1.2-8.2.3-.2.1-.3.3-.3.5v9.3c0 1.4-1.1 2.5-2.5 2.5S64 69.8 64 68.4v-9.3c0-1.9 1-3.7 2.6-4.8 5.4-3.4 10.6-3.3 14.3.4 1 1 1.6 2.4 1.6 3.9v9.7c.1 1.5-1 2.6-2.4 2.6zM12.5 106c-1.4 0-2.5-1.1-2.5-2.5V92c-3.8-.6-6-3.7-6.8-5.6-.2-.3-.2-.6-.2-1l1-27c0-.2 0-.4.1-.6 2.9-9.7 11-10.6 14.9-9.7.5.1.9.3 1.2.7l4.1 4.1 3.6-4c.4-.4.9-.7 1.5-.8 3.4-.4 10.3.6 12.4 7.8.4 1.3-.4 2.7-1.7 3.1-1.3.4-2.7-.4-3.1-1.7-1-3.8-4.3-4.3-6-4.4l-4.7 5.2c-.5.5-1.1.8-1.8.8s-1.4-.2-1.8-.7l-5.4-5.4c-1.8-.2-6.4 0-8.3 6.1L8 85c.5.9 1.7 2.5 4 2.1.7-.2 1.5 0 2.1.5s.9 1.2.9 1.9v14c0 1.4-1.1 2.5-2.5 2.5zM114.5 104.5c-1.4 0-2.5-1.1-2.5-2.5V89c0-.7.3-1.5.9-1.9.6-.5 1.3-.7 2.1-.5 2.3.5 3.6-2 4-3l-1-26.1c-2-6-6.5-6.2-8.3-6.1l-5.4 5.4c-.5.5-1.1.8-1.8.7-.7 0-1.3-.3-1.8-.8L96 51.4c-1.6 0-5 .5-6.1 4.2-.4 1.3-1.8 2.1-3.1 1.7-1.3-.4-2.1-1.8-1.7-3.1 2.1-7.2 9-8.2 12.4-7.8.6.1 1.1.4 1.5.8l3.6 4 4.1-4.1c.3-.3.8-.6 1.2-.7 3.9-.9 12 .1 14.9 9.7.1.2.1.4.1.6l1 27c0 .3 0 .6-.1.9-.8 2.3-3 6-6.9 6.7V102c.1 1.4-1 2.5-2.4 2.5zM90.5 105c-1.4 0-2.5-1.1-2.5-2.5V91.4l-1.3-.4c-1.3-.4-2.1-1.8-1.7-3.1.4-1.3 1.8-2.1 3.1-1.7l3.1.9c1.1.3 1.8 1.3 1.8 2.4v13c0 1.4-1.1 2.5-2.5 2.5zM36.5 107c-1.4 0-2.5-1.1-2.5-2.5v-13c0-1.1.7-2.1 1.8-2.4l3.1-.9c1.3-.4 2.7.4 3.1 1.7.4 1.3-.4 2.7-1.7 3.1l-1.3.4v11.1c0 1.4-1.1 2.5-2.5 2.5z"/></svg>