<svg version="1.1" id="Layer_1" xmlns="http://www.w3.org/2000/svg" x="0" y="0" viewBox="0 0 128 128" style="enable-background:new 0 0 128 128" xml:space="preserve"><style>.st1{fill:#231f20}</style><circle cx="65.3" cy="64.3" r="36.3" style="fill:#d6b2f5"/><path class="st1" d="M65.6 126.8c-.5 0-1.1-.1-1.6-.3-28.7-10.6-46.7-29.1-53.5-55-5.1-19.9-1.8-37.6-.7-42.6.3-1.4 1.3-2.6 2.6-3.1L63.8 4.3c1.1-.5 2.3-.5 3.4 0l52.2 21.5c1.5.6 2.6 2 2.7 3.6 9 78.4-48.8 95.5-55.4 97.2-.3.1-.7.2-1.1.2zm-51-96.5c-1.1 5-4.1 21.5.8 39.9 6.3 24.2 23.2 41.5 50.2 51.5 6.8-1.8 59.8-18.1 51.5-91.5L65.5 9 14.6 30.3z"/><path class="st1" d="M65.6 118c-.5 0-1.1-.1-1.6-.3-24.4-9-39.7-24.7-45.6-46.7-4.5-17-1.7-32.3-.8-36.6.3-1.4 1.3-2.6 2.6-3.1L63.8 13c1.1-.5 2.3-.5 3.4 0l44.2 18.2c1.5.6 2.6 2 2.7 3.6 7.5 66.7-41.7 81.6-47.4 83-.3.2-.7.2-1.1.2zM22.5 35.8c-1 4.3-3.4 18.4.8 33.9C28.7 90 42.9 104.5 65.6 113c5.9-1.6 50.4-15.6 43.5-77.3l-43.7-18-42.9 18.1z"/><path class="st1" d="M80.7 83.5H50.3c-1.4 0-2.5-1.1-2.5-2.5s1.1-2.5 2.5-2.5h30.4c1.4 0 2.5 1.1 2.5 2.5s-1.1 2.5-2.5 2.5z"/><path class="st1" d="M92.3 83.5c-1.4 0-2.5-1.1-2.5-2.5s1.1-2.5 2.5-2.5c2.9 0 5.2-2.3 5.2-5.2v-9.8c0-2-1.3-3.8-3.2-4.4l-2.7-.9c-1.3-.4-2.4-1.5-2.8-2.8l-3.4-9.7c-.7-1.9-2.4-3.2-4.4-3.2H39.6c-2.2 0-4.1 1.8-4.1 4.1v28.7c0 1.8 1.4 3.2 3.2 3.2 1.4 0 2.5 1.1 2.5 2.5s-1.1 2.5-2.5 2.5c-4.5 0-8.2-3.7-8.2-8.2V46.6c0-5 4.1-9.1 9.1-9.1H81c4.1 0 7.8 2.6 9.2 6.5l3.3 9.5 2.4.8c4 1.3 6.6 5 6.6 9.2v9.8c0 5.6-4.6 10.2-10.2 10.2z"/><path class="st1" d="M100 72H33.5c-1.4 0-2.5-1.1-2.5-2.5s1.1-2.5 2.5-2.5H100c1.4 0 2.5 1.1 2.5 2.5S101.4 72 100 72z"/><path class="st1" d="M76.6 72c-1.4 0-2.5-1.1-2.5-2.5V40c0-1.4 1.1-2.5 2.5-2.5s2.5 1.1 2.5 2.5v29.5c0 1.4-1.1 2.5-2.5 2.5z"/><path class="st1" d="M93.1 58.5H76.6c-1.4 0-2.5-1.1-2.5-2.5s1.1-2.5 2.5-2.5H93c1.4 0 2.5 1.1 2.5 2.5s-1.1 2.5-2.4 2.5zM44.5 91c-4.7 0-8.5-3.8-8.5-8.5s3.8-8.5 8.5-8.5 8.5 3.8 8.5 8.5-3.8 8.5-8.5 8.5zm0-12c-1.9 0-3.5 1.6-3.5 3.5s1.6 3.5 3.5 3.5 3.5-1.6 3.5-3.5-1.6-3.5-3.5-3.5zM86.5 91c-4.7 0-8.5-3.8-8.5-8.5s3.8-8.5 8.5-8.5 8.5 3.8 8.5 8.5-3.8 8.5-8.5 8.5zm0-12c-1.9 0-3.5 1.6-3.5 3.5s1.6 3.5 3.5 3.5 3.5-1.6 3.5-3.5-1.6-3.5-3.5-3.5z"/></svg>