<?xml version="1.0" encoding="utf-8"?>
<!-- Generator: Adobe Illustrator 24.3.0, SVG Export Plug-In . SVG Version: 6.00 Build 0)  -->
<svg version="1.1" id="Layer_1" xmlns="http://www.w3.org/2000/svg" xmlns:xlink="http://www.w3.org/1999/xlink" x="0px" y="0px"
	 viewBox="0 0 128 128" style="enable-background:new 0 0 128 128;" xml:space="preserve">
<style type="text/css">
	.st0{fill:#D6B2F5;}
	.st1{fill:#231F20;}
</style>
<g>
	<circle class="st0" cx="100" cy="79" r="14.1"/>
	<g>
		<path class="st1" d="M79,78.7H65.5c-1.4,0-2.5-1.1-2.5-2.5s1.1-2.5,2.5-2.5H79c1.4,0,2.5,1.1,2.5,2.5S80.4,78.7,79,78.7z"/>
	</g>
	<g>
		<path class="st1" d="M25.8,78.5c-5.3,0-23.4-1.6-25.6-22.9c0-0.1-2.1-18.3,18.6-22.6c1.2-3.8,5-13.2,13.9-18.3
			c6.2-3.6,13.6-4.4,22-2.2c4.2-5,19.6-20.5,43.2-6.3c0.2,0.1,15.2,9.5,12,27c4.3,1.5,13.3,5.7,16.6,14.3c2.8,7.2,0.9,15.7-5.5,25.2
			c-0.8,1.1-2.3,1.4-3.5,0.7c-1.1-0.8-1.4-2.3-0.7-3.5c5.5-8.1,7.1-15,5-20.6c-3.4-8.9-15.3-12-15.5-12l-2.4-0.6l0.6-2.4
			c4.1-15.4-9.2-23.7-9.3-23.8c-23.5-14.1-37,5.4-37.6,6.3l-1,1.5l-1.8-0.5c-7.7-2.2-14.3-1.8-19.7,1.3c-9.2,5.3-12,16.6-12,16.8
			l-0.4,1.6l-1.6,0.3C3.7,40.5,5.1,54.4,5.2,55c2,20,20.8,18.5,21.6,18.5c1.4-0.1,2.6,0.9,2.7,2.3c0.1,1.4-0.9,2.6-2.2,2.7
			C27.3,78.5,26.7,78.5,25.8,78.5z"/>
	</g>
	<g>
		<path class="st1" d="M107.2,61.3c-1.4,0-2.5-1.1-2.5-2.5c0-3-2.4-5.4-5.4-5.4S94,55.8,94,58.8c0,1.4-1.1,2.5-2.5,2.5
			S89,60.1,89,58.8c0-5.7,4.7-10.4,10.4-10.4s10.4,4.7,10.4,10.4C109.7,60.1,108.6,61.3,107.2,61.3z"/>
	</g>
	<g>
		<path class="st1" d="M113.4,60.6c-1.4,0-2.5-1.1-2.5-2.5c0-6.6-5.4-11.9-11.9-11.9S87,51.5,87,58.1c0,1.4-1.1,2.5-2.5,2.5
			S82,59.5,82,58.1c0-9.3,7.6-16.9,16.9-16.9s16.9,7.6,16.9,16.9C115.9,59.5,114.8,60.6,113.4,60.6z"/>
	</g>
	<g>
		<path class="st1" d="M112.4,100.7H86.6c-2.8,0-7.4-1.3-7.4-9.8c0-1.4,1.1-2.5,2.5-2.5s2.5,1.1,2.5,2.5c0,4.8,1.6,4.8,2.4,4.8h25.8
			c1.9,0,3.5-1.6,3.5-3.5V66.4c0-1.9-1.6-3.5-3.5-3.5H86.6c-1.9,0-3.5,1.6-3.5,3.5v17.8c0,1.4-1.1,2.5-2.5,2.5s-2.5-1.1-2.5-2.5
			V66.4c0-4.7,3.8-8.5,8.5-8.5h25.8c4.7,0,8.5,3.8,8.5,8.5v25.8C120.9,96.9,117.1,100.7,112.4,100.7z"/>
	</g>
	<g>
		<path class="st1" d="M30.3,62.9c-1.3,0-3-0.6-4.5-2.7l-0.2-0.3l-0.1-0.3c-0.2-0.5-4.1-12.4,1.4-21.3c2.9-4.8,7.8-7.8,14.6-8.9
			C64.6,25.5,69.3,41,69.3,41.2c0.5,1.4,4.5,14.8-2.5,19.6c-2.1,1.5-4.1,1.3-5.3,0.9c-3.7-1.2-5.8-5.9-6.8-8.6
			c-0.5-1.5-1.6-2.6-3-3.2c-3.5-1.4-8.4-2.2-12,1.5c-0.3,0.3-0.6,0.7-0.7,1.2c-2.3,6.3-5,9.7-8,10.1C30.7,62.9,30.5,62.9,30.3,62.9z
			 M30.1,57.6c0.1,0.1,0.2,0.2,0.3,0.3c0.7-0.4,2.3-2.3,3.9-6.8c0.4-1.2,1-2.2,1.8-3c4.3-4.5,10.5-5.4,17.4-2.7
			c2.7,1.1,4.9,3.3,5.9,6.1c1.1,3.2,2.7,5.2,3.6,5.5c0.1,0,0.4,0.1,0.9-0.3c3.1-2.2,1.7-10.4,0.6-14.1c-0.2-0.5-3.7-11.5-22.3-8.4
			c-5.3,0.9-9,3.1-11.1,6.6C27.3,47,29.5,55.7,30.1,57.6z"/>
	</g>
	<g>
		<path class="st1" d="M49.6,83.1c-1.2,0-2.1-0.1-2.6-0.2c-12.1,0.4-19.5-7.7-20.6-22.8c-0.1-1.4,0.9-2.6,2.3-2.7
			c1.4-0.1,2.6,0.9,2.7,2.3c1,12.4,6.2,18.6,15.7,18.2l0.3,0l0.3,0.1c0.2,0,4.5,1,8.4-2c4-3,6.3-8.9,6.8-17.4
			c0.1-1.4,1.3-2.4,2.7-2.3c1.4,0.1,2.4,1.3,2.3,2.6C67.4,69,64.4,76.1,59.2,80C55.7,82.6,52.1,83.1,49.6,83.1z"/>
	</g>
	<g>
		<path class="st1" d="M47.2,105.2c-0.9,0-1.8-0.5-2.2-1.3l-7.2-13.8c-0.2-0.4-0.3-0.8-0.3-1.2v-8c0-1.4,1.1-2.5,2.5-2.5
			s2.5,1.1,2.5,2.5v7.4l4.6,8.7l4.5-9.6v-7c0-1.4,1.1-2.5,2.5-2.5s2.5,1.1,2.5,2.5V88c0,0.4-0.1,0.7-0.2,1.1l-6.9,14.7
			C49.1,104.6,48.2,105.2,47.2,105.2C47.3,105.2,47.2,105.2,47.2,105.2z"/>
	</g>
	<g>
		<path class="st1" d="M82.8,128.1H11c-1.4,0-2.5-1.1-2.5-2.5v-15.9c0-0.2,0-0.4,0.1-0.6c4.9-20.3,27.4-24.1,28.3-24.2
			c1.4-0.2,2.6,0.7,2.9,2.1c0.2,1.4-0.7,2.6-2.1,2.9c-0.3,0-19.9,3.4-24.2,20.2v13.1h67.1c0.5-5.4,0.5-20.3-11-28.1
			c-0.1-0.1-0.2-0.1-0.2-0.2c0,0-3.4-2.7-13.4-4.9c-1.3-0.3-2.2-1.6-1.9-3c0.3-1.3,1.6-2.2,3-1.9c10.5,2.3,14.6,5.3,15.5,5.9
			c16.8,11.5,12.9,34.2,12.7,35.2C85.1,127.3,84,128.1,82.8,128.1z"/>
	</g>
	<g>
		<path class="st1" d="M22.8,126C22.8,126,22.8,126,22.8,126c-1.4,0-2.5-1.1-2.5-2.5l0.1-8.4c-0.6-4.5,2.6-7.2,4.3-8
			c1.3-0.6,2.7,0,3.3,1.3c0.6,1.2,0,2.7-1.2,3.3c-0.4,0.2-1.7,1-1.4,2.9c0,0.1,0,0.3,0,0.4l-0.1,8.6C25.3,124.9,24.2,126,22.8,126z"
			/>
	</g>
	<g>
		<path class="st1" d="M96.3,80.6c-0.5,0-1-0.2-1.5-0.5c-2-1.5-3.1-3.8-3.1-6.3c0-4.3,3.5-7.8,7.8-7.8c4.3,0,7.8,3.5,7.8,7.8
			c0,1.8-0.6,3.6-1.8,5c-0.9,1.1-2.5,1.2-3.5,0.3c-1.1-0.9-1.2-2.5-0.3-3.5c0.3-0.4,0.6-1,0.6-1.8c0-1.6-1.3-2.8-2.8-2.8
			c-1.6,0-2.8,1.3-2.8,2.8c0,0.9,0.4,1.7,1.1,2.3c1.1,0.8,1.3,2.4,0.5,3.5C97.8,80.2,97,80.6,96.3,80.6z"/>
	</g>
	<g>
		<path class="st1" d="M103.6,91.8h-7.3c-1.4,0-2.5-1.1-2.5-2.5V78.1h5v8.7h2.3v-9.5h5v12C106.1,90.6,105,91.8,103.6,91.8z"/>
	</g>
	<g>
		<path class="st1" d="M75.2,121.4H45.5c-1.4,0-2.5-1.1-2.5-2.5s1.1-2.5,2.5-2.5h29.7c1.4,0,2.5,1.1,2.5,2.5S76.6,121.4,75.2,121.4z
			"/>
	</g>
	<g>
		<circle class="st1" cx="38.5" cy="118.9" r="2.9"/>
	</g>
	<g>
		<ellipse class="st1" cx="40.6" cy="61.4" rx="2.1" ry="2.9"/>
	</g>
	<g>
		<ellipse class="st1" cx="54.1" cy="61.4" rx="2.1" ry="2.9"/>
	</g>
	<g>
		<circle class="st1" cx="84.5" cy="15.6" r="2.9"/>
	</g>
	<g>
		<path class="st1" d="M96.3,35.3c-0.2,0-0.5,0-0.7-0.1c-1.3-0.4-2.1-1.8-1.7-3.1C96.3,24,91,21,90.4,20.7c-1.2-0.6-1.7-2.1-1.1-3.4
			c0.6-1.2,2.1-1.7,3.3-1.1c3.4,1.7,9,7.4,6.1,17.3C98.4,34.6,97.4,35.3,96.3,35.3z"/>
	</g>
</g>
</svg>
