<svg version="1.1" id="Layer_1" xmlns="http://www.w3.org/2000/svg" x="0" y="0" viewBox="0 0 128 128" style="enable-background:new 0 0 128 128" xml:space="preserve"><style>.st1{fill:#010101}</style><ellipse cx="82.5" cy="63.4" rx="16.4" ry="15.6" style="fill:#d6b2f5"/><path class="st1" d="M82.4 106.4c-25.2 0-45.7-20.5-45.7-45.7S57.2 15 82.4 15c10.3 0 20.1 3.4 28.1 9.7 1.1.9 1.3 2.5.4 3.6s-2.5 1.3-3.6.4c-7.2-5.6-15.8-8.6-24.9-8.6-22.3 0-40.5 18.2-40.5 40.5s18.2 40.5 40.5 40.5 40.5-18.2 40.5-40.5c0-7.3-2-14.5-5.7-20.8-.7-1.2-.3-2.8.9-3.6 1.2-.7 2.8-.3 3.6.9 4.2 7.1 6.5 15.2 6.5 23.5-.1 25.3-20.6 45.8-45.8 45.8z"/><path class="st1" d="M82.4 27.4c-1.4 0-2.6-1.2-2.6-2.6v-7.2c0-1.4 1.2-2.6 2.6-2.6 1.4 0 2.6 1.2 2.6 2.6v7.2c0 1.5-1.1 2.6-2.6 2.6zM124.5 63.3h-7.9c-1.4 0-2.6-1.2-2.6-2.6s1.1-2.6 2.6-2.6h7.9c1.4 0 2.6 1.2 2.6 2.6s-1.2 2.6-2.6 2.6zM45.8 63.3h-6.5c-1.4 0-2.6-1.2-2.6-2.6s1.2-2.6 2.6-2.6h6.5c1.4 0 2.6 1.2 2.6 2.6s-1.2 2.6-2.6 2.6zM82.4 104.9c-1.4 0-2.6-1.2-2.6-2.6V96c0-1.4 1.2-2.6 2.6-2.6 1.4 0 2.6 1.2 2.6 2.6v6.3c0 1.4-1.1 2.6-2.6 2.6zM82.5 71.1l-20.6-20c-1-1-1.1-2.6-.1-3.7 1-1 2.6-1.1 3.7-.1l16.8 16.3 41.3-44.2c1-1 2.6-1.1 3.7-.1 1 1 1.1 2.6.1 3.7L82.5 71.1z"/><path d="M9.2 39.3v-4.7c-.9.7-1.5 1-1.8 1-.1 0-.3-.1-.4-.2-.1-.1-.2-.2-.2-.4s.1-.3.2-.4c.1-.1.3-.2.6-.3.4-.2.7-.4 1-.6s.5-.5.7-.7c.2-.3.3-.4.4-.5.1-.1.2-.1.3-.1.2 0 .3.1.4.2.1.1.2.3.2.6v5.9c0 .7-.2 1-.7 1-.2 0-.4-.1-.5-.2s-.2-.4-.2-.6zM18.2 36.3c0 .6 0 1-.1 1.4s-.2.8-.4 1.1c-.2.4-.5.7-.9.9-.4.2-.8.3-1.2.3-.5 0-1-.1-1.4-.4-.4-.3-.7-.7-.9-1.2-.1-.3-.2-.6-.2-.9 0-.3-.1-.7-.1-1.1 0-.5 0-1 .1-1.4.1-.4.1-.8.3-1.1.2-.5.5-.9.9-1.1s.8-.4 1.4-.4c.4 0 .7.1 1 .2.3.1.5.3.8.5.2.2.4.5.6.8 0 .5.1 1.3.1 2.4zm-1.4-.1c0-.6 0-1.1-.1-1.5s-.2-.7-.4-.9-.4-.3-.7-.3c-.5 0-.8.2-.9.7-.2.5-.3 1.2-.3 2.1 0 .6 0 1.2.1 1.6.1.4.2.7.4.9s.4.3.7.3c.3 0 .6-.1.7-.3s.3-.5.4-.9c.1-.5.1-1.1.1-1.7zM19.6 35.2c0-.2.1-.4.2-.6.2-.1.3-.2.6-.2.2 0 .4.1.5.2.2.1.2.3.2.6 0 .2-.1.4-.2.5s-.3.2-.5.2-.4-.1-.5-.2c-.2-.2-.3-.3-.3-.5zm.8 4.9c-.2 0-.4-.1-.5-.2-.2-.1-.2-.3-.2-.6 0-.2.1-.4.2-.5.1-.2.3-.2.5-.2s.4.1.6.2c.2.1.2.3.2.5s-.1.4-.2.6c-.3.1-.4.2-.6.2zM27.8 36.3c0 .6 0 1-.1 1.4s-.2.8-.4 1.1c-.2.4-.5.7-.9.9-.4.2-.8.3-1.2.3-.5 0-1-.1-1.4-.4-.4-.3-.7-.7-.9-1.2-.1-.3-.2-.6-.2-.9 0-.3-.1-.7-.1-1.1 0-.5 0-1 .1-1.4.1-.4.1-.8.3-1.1.2-.5.5-.9.9-1.1s.8-.4 1.4-.4c.4 0 .7.1 1 .2.3.1.5.3.8.5.2.2.4.5.6.8-.1.5.1 1.3.1 2.4zm-1.5-.1c0-.6 0-1.1-.1-1.5s-.2-.7-.4-.9-.4-.3-.7-.3c-.5 0-.8.2-.9.7-.2.5-.3 1.2-.3 2.1 0 .6 0 1.2.1 1.6.1.4.2.7.4.9s.4.3.7.3c.3 0 .6-.1.7-.3s.3-.5.4-.9c.1-.5.1-1.1.1-1.7zM34 36.3c0 .6 0 1-.1 1.4s-.2.8-.4 1.1c-.2.4-.5.7-.9.9-.4.2-.8.3-1.2.3-.5 0-1-.1-1.4-.4-.4-.3-.7-.7-.9-1.2-.1-.3-.2-.6-.2-.9 0-.3-.1-.7-.1-1.1 0-.5 0-1 .1-1.4.1-.4.1-.8.3-1.1.2-.5.5-.9.9-1.1.4-.3.8-.4 1.4-.4.4 0 .7.1 1 .2.3.1.5.3.8.5.2.2.4.5.6.8 0 .5.1 1.3.1 2.4zm-1.4-.1c0-.6 0-1.1-.1-1.5s-.2-.7-.4-.9c-.2-.2-.4-.3-.7-.3-.5 0-.8.2-.9.7-.2.5-.3 1.2-.3 2.1 0 .6 0 1.2.1 1.6.1.4.2.7.4.9s.4.3.7.3c.3 0 .6-.1.7-.3.2-.2.3-.5.4-.9.1-.5.1-1.1.1-1.7zM13.8 60.6c-.2.3-.5.5-.8.6s-.6.2-.9.2c-.3 0-.6-.1-.9-.2s-.5-.3-.7-.5c-.2-.2-.4-.5-.5-.8-.1-.3-.2-.6-.2-.9 0-.4.1-.7.2-1s.3-.6.5-.8c.2-.2.5-.4.8-.5s.7-.2 1.1-.2c.4 0 .8.1 1.2.2s.6.4.9.7.4.7.5 1.2.2 1 .2 1.6c0 .7-.1 1.2-.2 1.7s-.3.9-.6 1.3c-.3.3-.6.6-.9.8-.4.2-.8.2-1.2.2-.4 0-.8-.1-1.2-.3-.3-.2-.6-.4-.7-.6-.2-.3-.3-.5-.3-.7 0-.1.1-.3.2-.4s.2-.2.4-.2.3 0 .4.1c.1.1.2.2.3.4.1.2.2.4.4.5.2.1.4.2.6.2.2 0 .4 0 .6-.1.2-.1.3-.2.4-.4.2-.5.3-1.1.4-2.1zm-.1-1.5c0-.2 0-.4-.1-.6-.1-.2-.2-.4-.3-.5s-.3-.3-.4-.3-.3-.1-.5-.1c-.3 0-.6.1-.8.4-.2.3-.3.6-.3 1.1 0 .5.1.8.3 1.1s.5.4.9.4c.2 0 .4-.1.6-.2.2-.1.4-.3.5-.5 0-.3.1-.6.1-.8zM16.6 59.2c0-.2.1-.4.2-.6.2-.1.3-.2.6-.2.2 0 .4.1.5.2s.2.3.2.6c0 .2-.1.4-.2.5s-.3.3-.5.3-.4-.1-.5-.2-.3-.4-.3-.6zm.8 4.9c-.2 0-.4-.1-.5-.2-.2-.1-.2-.3-.2-.6 0-.2.1-.4.2-.5.1-.2.3-.2.5-.2s.4.1.6.2c.2.1.2.3.2.5s-.1.4-.2.6c-.2.2-.4.2-.6.2zM24.8 60.3c0 .6 0 1-.1 1.4-.1.4-.2.8-.4 1.1-.2.4-.5.7-.9.9-.4.2-.8.3-1.2.3-.5 0-1-.1-1.4-.4-.4-.3-.7-.7-.9-1.2-.1-.3-.2-.6-.2-.9 0-.3-.1-.7-.1-1.1 0-.5 0-1 .1-1.4.1-.4.1-.8.3-1.1.2-.5.5-.9.9-1.1s.8-.4 1.4-.4c.4 0 .7.1 1 .2s.5.3.8.5.4.5.6.8c0 .6.1 1.4.1 2.4zm-1.4-.1c0-.6 0-1.1-.1-1.5s-.2-.7-.4-.9-.4-.3-.7-.3c-.5 0-.8.2-.9.7-.2.5-.3 1.2-.3 2.1 0 .6 0 1.2.1 1.6.1.4.2.7.4.9s.4.3.7.3c.3 0 .6-.1.7-.3.2-.2.3-.5.4-.9 0-.5.1-1 .1-1.7zM31 60.3c0 .6 0 1-.1 1.4-.1.4-.2.8-.4 1.1-.2.4-.5.7-.9.9-.4.2-.8.3-1.2.3-.5 0-1-.1-1.4-.4-.4-.3-.7-.7-.9-1.2-.1-.3-.2-.6-.2-.9 0-.3-.1-.7-.1-1.1 0-.5 0-1 .1-1.4s.1-.8.3-1.1c.2-.5.5-.9.9-1.1s.8-.4 1.4-.4c.4 0 .7.1 1 .2s.5.3.8.5.4.5.6.8c0 .6.1 1.4.1 2.4zm-1.4-.1c0-.6 0-1.1-.1-1.5s-.2-.7-.4-.9-.4-.3-.7-.3c-.5 0-.8.2-.9.7-.2.5-.3 1.2-.3 2.1 0 .6 0 1.2.1 1.6.1.4.2.7.4.9s.4.3.7.3c.3 0 .6-.1.7-.3.2-.2.3-.5.4-.9.1-.5.1-1 .1-1.7z"/><g><path d="M10.1 82.4c0-.3.1-.7.3-1 .2-.3.5-.5.8-.7.4-.2.8-.3 1.3-.3.4 0 .8.1 1.1.2.3.1.6.3.8.4.2.2.4.4.5.6.1.2.1.5.1.7 0 .3-.1.6-.3.9-.2.3-.4.5-.8.6.3.1.5.3.7.4.2.2.3.4.4.6.1.2.1.5.1.8 0 .4-.1.8-.3 1.2s-.5.6-.9.8c-.4.2-.9.3-1.4.3-.6 0-1.1-.1-1.5-.3-.4-.2-.7-.5-.9-.8-.2-.3-.3-.7-.3-1.2 0-.9.4-1.6 1.3-1.9-.6-.1-1-.6-1-1.3zm3.7 3.4c0-.3-.1-.5-.2-.7-.1-.2-.3-.4-.5-.5-.2-.1-.4-.2-.7-.2-.3 0-.6.1-.9.3-.2.2-.4.6-.4 1 0 .3.1.5.2.7.1.2.3.4.5.5s.4.2.6.2c.2 0 .5-.1.6-.2.2-.1.3-.3.5-.5.3-.1.3-.3.3-.6zm-1.3-4.4c-.3 0-.6.1-.8.3s-.3.5-.3.8c0 .3.1.5.3.7.2.2.5.3.8.3.2 0 .3 0 .4-.1.1-.1.2-.1.3-.2s.2-.2.2-.3.1-.3.1-.4c0-.2 0-.4-.1-.5s-.2-.3-.4-.4c-.1-.1-.2-.2-.5-.2zM16.6 83.2c0-.2.1-.4.2-.6.2-.1.3-.2.6-.2.2 0 .4.1.5.2s.2.3.2.6c0 .2-.1.4-.2.5-.2.2-.3.2-.5.2s-.4-.1-.5-.2c-.3-.1-.3-.3-.3-.5zm.7 5c-.2 0-.4-.1-.5-.2-.2-.1-.2-.3-.2-.6 0-.2.1-.4.2-.5.1-.2.3-.2.5-.2s.4.1.6.2c.2.1.2.3.2.5s-.1.4-.2.6c-.2.1-.4.2-.6.2zM24.7 84.3c0 .6 0 1-.1 1.4-.1.4-.2.8-.4 1.1-.2.4-.5.7-.9.9-.4.2-.8.3-1.2.3-.5 0-1-.1-1.4-.4-.4-.3-.7-.7-.9-1.2-.1-.3-.2-.6-.2-.9 0-.3-.1-.7-.1-1.1 0-.5 0-1 .1-1.4.1-.4.1-.8.3-1.1.2-.5.5-.9.9-1.1.4-.3.8-.4 1.4-.4.4 0 .7.1 1 .2s.5.3.8.5c.2.2.4.5.6.8 0 .6.1 1.4.1 2.4zm-1.4-.1c0-.6 0-1.1-.1-1.5-.1-.4-.2-.7-.4-.9-.2-.2-.4-.3-.7-.3-.5 0-.8.2-.9.7-.2.5-.3 1.2-.3 2.1 0 .6 0 1.2.1 1.6s.2.7.4.9.4.3.7.3c.3 0 .6-.1.7-.3.2-.2.3-.5.4-.9.1-.5.1-1 .1-1.7zM31 84.3c0 .6 0 1-.1 1.4-.1.4-.2.8-.4 1.1-.2.4-.5.7-.9.9s-.8.3-1.2.3c-.5 0-1-.1-1.4-.4-.4-.3-.7-.7-.9-1.2-.1-.3-.2-.6-.2-.9 0-.3-.1-.7-.1-1.1 0-.5 0-1 .1-1.4.1-.4.1-.8.3-1.1.2-.5.5-.9.9-1.1.4-.3.8-.4 1.4-.4.4 0 .7.1 1 .2s.5.3.8.5.4.5.6.8c0 .6.1 1.4.1 2.4zm-1.4-.1c0-.6 0-1.1-.1-1.5-.1-.4-.2-.7-.4-.9-.2-.2-.4-.3-.7-.3-.5 0-.8.2-.9.7-.2.5-.3 1.2-.3 2.1 0 .6 0 1.2.1 1.6.1.4.2.7.4.9.2.2.4.3.7.3.3 0 .6-.1.7-.3.2-.2.3-.5.4-.9 0-.5.1-1 .1-1.7z"/></g><g><path class="st1" d="M39.9 92.5H2.6c-1.1 0-2.1-.9-2.1-2.1V77.1c0-1.1.9-2.1 2.1-2.1l37.3.1c1.1 0 2.1.9 2.1 2.1v13.3c0 1.1-.9 2-2.1 2zM4.6 88.3l33.2.1v-9.1l-33.1-.1-.1 9.1z"/></g><g><path class="st1" d="M39.9 68.5H2.6c-1.1 0-2.1-.9-2.1-2.1V53.1c0-1.1.9-2.1 2.1-2.1l37.3.1c1.1 0 2.1.9 2.1 2.1v13.3c0 1.1-.9 2-2.1 2zM4.6 64.3l33.2.1v-9.1l-33.1-.1-.1 9.1z"/></g><g><path class="st1" d="M39.9 44.5H2.6c-1.1 0-2.1-.9-2.1-2.1V29.1c0-1.1.9-2.1 2.1-2.1l37.3.1c1.1 0 2.1.9 2.1 2.1v13.3c0 1.1-.9 2-2.1 2zM4.6 40.3l33.2.1v-9.1l-33.1-.1-.1 9.1z"/></g></svg>