<svg version="1.1" id="Layer_1" xmlns="http://www.w3.org/2000/svg" x="0" y="0" viewBox="0 0 128 128" xml:space="preserve"><style>.st2{fill:none;stroke:#070707;stroke-width:5;stroke-linecap:round;stroke-linejoin:round;stroke-miterlimit:10}</style><switch><g><g opacity=".24"><path d="M105.3 110.8H10.9V2.9h94.4v107.9zm-91.8-2.5h89.2V5.5H13.5v102.8z"/><path d="M21.8 104.1c-1.3 0-2.5-.5-3.4-1.4-.9-.9-1.4-2.1-1.4-3.4 0-1.3.5-2.5 1.4-3.4.9-.9 2.1-1.4 3.4-1.4s2.5.5 3.4 1.4c.9.9 1.4 2.1 1.4 3.4 0 1.3-.5 2.5-1.4 3.4-.9.9-2.2 1.4-3.4 1.4zm0-7.8c-.8 0-1.6.3-2.1.9-.6.6-.9 1.3-.9 2.1s.3 1.6.9 2.1 1.3.9 2.1.9 1.6-.3 2.1-.9c.6-.6.9-1.3.9-2.1s-.3-1.6-.9-2.1c-.6-.6-1.3-.9-2.1-.9zM45 74.1c-1.3 0-2.5-.5-3.4-1.4-.9-.9-1.4-2.1-1.4-3.4 0-1.3.5-2.5 1.4-3.4.9-.9 2.1-1.4 3.4-1.4s2.5.5 3.4 1.4c.9.9 1.4 2.1 1.4 3.4 0 1.3-.5 2.5-1.4 3.4-.9.9-2.1 1.4-3.4 1.4zm0-7.9c-.8 0-1.6.3-2.1.9-.6.6-.9 1.3-.9 2.1s.3 1.6.9 2.1c.6.6 1.3.9 2.1.9s1.6-.3 2.1-.9c.6-.6.9-1.3.9-2.1s-.3-1.6-.9-2.1c-.6-.6-1.3-.9-2.1-.9zM68.3 88.4c-1.3 0-2.5-.5-3.4-1.4-.9-.9-1.4-2.1-1.4-3.4s.5-2.5 1.4-3.4c.9-.9 2.1-1.4 3.4-1.4s2.5.5 3.4 1.4c.9.9 1.4 2.1 1.4 3.4s-.5 2.5-1.4 3.4c-.9.9-2.1 1.4-3.4 1.4zm0-7.9c-.8 0-1.6.3-2.1.9s-.9 1.3-.9 2.1.3 1.6.9 2.1 1.3.9 2.1.9 1.6-.3 2.1-.9.9-1.3.9-2.1-.3-1.6-.9-2.1c-.5-.6-1.3-.9-2.1-.9zM93.4 63.3c-1.3 0-2.5-.5-3.4-1.4-.9-.9-1.4-2.1-1.4-3.4s.5-2.5 1.4-3.4c.9-.9 2.1-1.4 3.4-1.4 1.3 0 2.5.5 3.4 1.4.9.9 1.4 2.1 1.4 3.4s-.5 2.5-1.4 3.4c-.9.9-2.1 1.4-3.4 1.4zm0-7.8c-.8 0-1.6.3-2.1.9s-.9 1.3-.9 2.1.3 1.6.9 2.1 1.3.9 2.1.9 1.6-.3 2.1-.9.9-1.3.9-2.1-.3-1.6-.9-2.1c-.6-.6-1.3-.9-2.1-.9z"/><path transform="rotate(-52.382 32.977 83.963)" d="M17.9 82.7h30.2v2.6H17.9z"/><path transform="rotate(-57.119 56.645 76.399)" d="M55.4 66.6H58v19.5h-2.6z"/><path transform="rotate(-45.001 80.853 70.997)" d="M67.1 69.7h27.5v2.6H67.1z"/><path d="M117.5 123.4H21.3v-9h2.6v6.4h91V18.2h-6.3v-2.5h8.9z"/><circle cx="56.6" cy="31.6" r="23.6" fill="#d6b2f5"/><path d="M21.1 19h71.3v2.6H21.1zM21.1 29.3h71.3v2.6H21.1zM21.1 40.9h71.3v2.6H21.1z"/></g><path class="st2" d="M10.9 2.9h94.4v107.9H10.9z"/><path class="st2" d="M21.8 110.8v12.6h95.7V17h-10.6M21.8 20.3h69.7M22.8 30.6h68.7M22.8 40.9h67.6"/><circle class="st2" cx="24" cy="96.3" r="5.2"/><circle class="st2" cx="44.6" cy="69.2" r="5.2"/><circle class="st2" cx="67.9" cy="83.5" r="5.2"/><circle class="st2" cx="93.2" cy="57.1" r="5.2"/><path class="st2" d="M26.6 88.8l12.1-14.3M51.4 72.2l11.3 7.4M73.2 78.3l14.5-16"/></g></switch></svg>