<?xml version="1.0" encoding="utf-8"?>
<!-- Generator: Adobe Illustrator 24.3.0, SVG Export Plug-In . SVG Version: 6.00 Build 0)  -->
<svg version="1.1" id="Layer_1" xmlns="http://www.w3.org/2000/svg" xmlns:xlink="http://www.w3.org/1999/xlink" x="0px" y="0px"
	 viewBox="0 0 128 128" style="enable-background:new 0 0 128 128;" xml:space="preserve">
<style type="text/css">
	.st0{fill:#D6B2F5;}
	.st1{fill:#231F20;}
</style>
<g>
	<circle class="st0" cx="65.7" cy="75.9" r="15.9"/>
	<circle class="st0" cx="39.7" cy="45.9" r="12.3"/>
	<circle class="st0" cx="89.7" cy="45.9" r="12.3"/>
	<g>
		<path class="st1" d="M42.6,59.3c-7.1,0-13-5.8-13-13s5.8-13,13-13s13,5.8,13,13S49.8,59.3,42.6,59.3z M42.6,38.4c-4.4,0-8,3.6-8,8
			s3.6,8,8,8s8-3.6,8-8S47,38.4,42.6,38.4z"/>
	</g>
	<g>
		<path class="st1" d="M65.5,92.6c-8.2,0-14.9-6.7-14.9-14.9s6.7-14.9,14.9-14.9s14.9,6.7,14.9,14.9S73.7,92.6,65.5,92.6z
			 M65.5,67.9c-5.4,0-9.9,4.4-9.9,9.9c0,5.4,4.4,9.9,9.9,9.9s9.9-4.4,9.9-9.9C75.3,72.3,70.9,67.9,65.5,67.9z"/>
	</g>
	<g>
		<path class="st1" d="M49.6,88.3h-29c-0.6,0-1.3-0.3-1.7-0.7c-0.5-0.5-0.7-1.1-0.7-1.8l0.1-8c-1-20.3,13.2-21.3,13.4-21.3
			c1.3-0.1,2.5,1,2.6,2.4c0.1,1.4-0.9,2.5-2.3,2.6c-1,0.1-9.6,1.2-8.8,16.2c0,0,0,0.1,0,0.1l0,5.5h26.5c1.3,0,2.4,1.1,2.4,2.5
			S50.9,88.3,49.6,88.3z"/>
	</g>
	<g>
		<path class="st1" d="M93,125.3H39.6c-0.7,0-1.3-0.3-1.8-0.7c-0.5-0.5-0.7-1.1-0.7-1.8l0-7.3c0-1.4,0-2.5-0.1-3.4
			c-1.1-11.4,3.3-17.3,7.2-20.3c4.2-3.2,8.7-3.7,8.9-3.7c1.4-0.1,2.6,0.9,2.7,2.3c0.1,1.4-0.9,2.6-2.2,2.7
			c-1.4,0.1-13.2,1.9-11.6,18.6c0.1,1.1,0.2,2.4,0.1,3.9l0,4.8h48.4v-14.7c0-2.8-0.8-5.5-2.2-7.6C86,94.5,82.6,92.8,78,93
			c-1.4,0-2.5-1-2.6-2.4c-0.1-1.4,1-2.5,2.4-2.6c8-0.3,12.5,3.7,14.8,7.2c2,3,3,6.6,3,10.4v17.2C95.5,124.2,94.4,125.3,93,125.3z"/>
	</g>
	<g>
		<path class="st1" d="M58.7,66c-0.8,0-1.6-0.5-2-1.4c-0.9-2.1-4.5-2.9-5.7-3.1c-1.2-0.1-2.1-1.4-2-2.7c0.1-1.4,1.2-2.4,2.5-2.2
			c0.7,0.1,7.1,0.9,9.3,5.8c0.6,1.2,0.1,2.7-1,3.4C59.4,65.9,59.1,66,58.7,66z"/>
	</g>
	<g>
		<path class="st1" d="M65.5,119.7c-0.7,0-1.3-0.3-1.8-0.7l-5.7-5.7c-0.6-0.6-0.8-1.4-0.7-2.2L59.8,96c0.2-1.4,1.5-2.3,2.9-2.1
			c1.4,0.2,2.3,1.5,2.1,2.9l-2.3,13.9l2.9,2.8l2.3-2.7l-2.5-14c-0.2-1.4,0.7-2.7,2-2.9c1.4-0.3,2.7,0.7,2.9,2l2.7,15.1
			c0.1,0.7-0.1,1.5-0.5,2.1l-4.8,5.7c-0.4,0.5-1.1,0.9-1.8,0.9C65.5,119.7,65.5,119.7,65.5,119.7z"/>
	</g>
	<g>
		<path class="st1" d="M87.3,59.3c-7.2,0-13-5.8-13-13s5.8-13,13-13s13,5.8,13,13S94.5,59.3,87.3,59.3z M87.3,38.4c-4.4,0-8,3.6-8,8
			s3.6,8,8,8s8-3.6,8-8S91.7,38.4,87.3,38.4z"/>
	</g>
	<g>
		<path class="st1" d="M109.4,88.3h-28c-1.3,0-2.3-1.1-2.3-2.5s1.1-2.5,2.3-2.5H107l0-5.5c0,0,0-0.1,0-0.1
			c0.8-15.4-8.1-16.1-8.5-16.2c-1.3-0.1-2.3-1.3-2.2-2.6c0.1-1.4,1.2-2.4,2.5-2.4c0.1,0,13.9,1.1,12.9,21.3l0,8
			c0,0.7-0.2,1.3-0.7,1.8C110.6,88.1,110,88.3,109.4,88.3z"/>
	</g>
	<g>
		<path class="st1" d="M72.2,66c-0.3,0-0.7-0.1-1-0.3c-1.1-0.6-1.6-2.1-1-3.4c2.2-4.9,8.5-5.7,9.2-5.8c1.2-0.1,2.3,0.9,2.5,2.2
			c0.1,1.4-0.8,2.6-2,2.7l0,0c-1.2,0.1-4.7,1-5.6,3.1C73.9,65.5,73.1,66,72.2,66z"/>
	</g>
	<g>
		<path class="st1" d="M88.3,81.6c-0.6,0-1.3-0.2-1.7-0.7l-4.8-4.6c-0.6-0.6-0.9-1.5-0.7-2.3l2.7-12.4c0.3-1.3,1.6-2.2,3-1.9
			c1.3,0.3,2.2,1.6,1.9,3l-2.4,11.1l2.2,2.1l2.8-2.3l-2.2-10.9c-0.3-1.4,0.6-2.7,2-2.9c1.4-0.3,2.7,0.6,2.9,2l2.5,12.4
			c0.2,0.9-0.2,1.8-0.9,2.4L89.9,81C89.4,81.4,88.9,81.6,88.3,81.6z"/>
	</g>
	<g>
		<path class="st1" d="M40.3,81.6c-0.6,0-1.3-0.2-1.7-0.7l-4.8-4.6c-0.6-0.6-0.9-1.5-0.7-2.3l2.7-12.4c0.3-1.3,1.6-2.2,3-1.9
			c1.3,0.3,2.2,1.6,1.9,3l-2.4,11.1l2.2,2.1l2.8-2.3l-2.2-10.9c-0.3-1.4,0.6-2.7,2-2.9c1.4-0.3,2.7,0.6,2.9,2l2.5,12.4
			c0.2,0.9-0.2,1.8-0.9,2.4L41.9,81C41.4,81.4,40.9,81.6,40.3,81.6z"/>
	</g>
	<g>
		<path class="st1" d="M45.5,33.6c-1.2,0-2.2-0.8-2.4-2l-2.9-13.1c-0.3-1.2,0.4-2.4,1.5-2.9c0.1-0.1,14.7-5.7,21.4-13.3
			c0.9-1,2.4-1.1,3.5-0.3c0.1,0.1,11.7,9.8,21.6,13.4c1,0.3,1.6,1.2,1.6,2.3c0,0.2,0.2,6.1-1.4,13.4c-0.3,1.3-1.6,2.2-3,1.9
			c-1.3-0.3-2.2-1.6-1.9-3c1-4.5,1.2-8.4,1.3-10.5c-7.9-3.3-16-9.3-19.6-12.1c-6.1,5.9-15.6,10.3-19.7,12.1l2.4,11.1
			c0.3,1.3-0.6,2.7-1.9,3C45.8,33.6,45.7,33.6,45.5,33.6z"/>
	</g>
	<g>
		<path class="st1" d="M61.7,36.5c-0.6,0-1.3-0.2-1.8-0.7l-6-6c-1-1-1-2.6,0-3.5c1-1,2.6-1,3.5,0l4.3,4.2l10.6-10.6c1-1,2.6-1,3.5,0
			c1,1,1,2.6,0,3.5L63.4,35.8C62.9,36.3,62.3,36.5,61.7,36.5z"/>
	</g>
	<g>
		<path class="st1" d="M64.6,56.4c-0.3,0-0.6,0-0.8,0c-5-0.5-7.9-5-8-5.2c-0.7-1.2-0.4-2.7,0.8-3.4c1.2-0.7,2.7-0.4,3.4,0.8
			c0.1,0.1,1.8,2.7,4.3,2.9c1.8,0.1,3.8-0.9,5.9-3.2c0.9-1,2.5-1.1,3.5-0.2c1,0.9,1.1,2.5,0.2,3.5C70.9,54.7,67.8,56.4,64.6,56.4z"
			/>
	</g>
</g>
</svg>
