<?xml version="1.0" encoding="utf-8"?>
<!-- Generator: Adobe Illustrator 24.3.0, SVG Export Plug-In . SVG Version: 6.00 Build 0)  -->
<svg version="1.1" id="Layer_1" xmlns="http://www.w3.org/2000/svg" xmlns:xlink="http://www.w3.org/1999/xlink" x="0px" y="0px"
	 viewBox="0 0 128 128" style="enable-background:new 0 0 128 128;" xml:space="preserve">
<style type="text/css">
	.st0{fill:#D6B2F5;}
	.st1{fill:#231F20;}
</style>
<g>
	<ellipse class="st0" cx="21" cy="67.3" rx="18" ry="20.1"/>
	<ellipse class="st0" cx="64" cy="67.3" rx="18" ry="20.1"/>
	<ellipse class="st0" cx="107" cy="67.3" rx="18" ry="20.1"/>
	<g>
		<g>
			<path class="st1" d="M64,33.7c-0.3,0-0.5,0-0.8-0.1l-29.5-9.7c-1-0.3-1.7-1.3-1.7-2.3c0-1.1,0.7-2,1.7-2.4C62.1,8.9,63,9,63.6,9
				c0.4,0,1.4,0,28.7,9.2c1,0.3,1.7,1.3,1.7,2.3c0,1.1-0.6,2-1.6,2.4L64.9,33.5C64.6,33.6,64.3,33.7,64,33.7z M42.2,21.4l21.7,7.1
				l20.2-7.9c-8.6-2.8-18.3-6-20.6-6.6C61.2,14.7,51.1,18.2,42.2,21.4z"/>
		</g>
		<g>
			<path class="st1" d="M79.4,46H47.3c-1.4,0-2.5-1.1-2.5-2.5V27.1c0-1.4,1.1-2.5,2.5-2.5s2.5,1.1,2.5,2.5V41h27.1V25.2
				c0-1.4,1.1-2.5,2.5-2.5s2.5,1.1,2.5,2.5v18.3C81.9,44.9,80.8,46,79.4,46z"/>
		</g>
		<g>
			<path class="st1" d="M87,23.8H61.1c-1.4,0-2.5-1.1-2.5-2.5s1.1-2.5,2.5-2.5H87c1.4,0,2.5,1.1,2.5,2.5S88.3,23.8,87,23.8z"/>
		</g>
		<g>
			<path class="st1" d="M92.5,36.9c-1.4,0-2.5-1.1-2.5-2.5v-13c0-1.4,1.1-2.5,2.5-2.5S95,20,95,21.3v13C95,35.7,93.8,36.9,92.5,36.9
				z"/>
		</g>
	</g>
	<g>
		<g>
			<path class="st1" d="M106.4,89.2c-7.9,0-14.2-6.4-14.2-14.2v-9.5c0-7.9,6.4-14.2,14.2-14.2c7.9,0,14.2,6.4,14.2,14.2V75
				C120.6,82.8,114.2,89.2,106.4,89.2z M106.4,54.9c-5.8,0-10.6,4.8-10.6,10.6V75c0,5.8,4.8,10.6,10.6,10.6
				c5.8,0,10.6-4.8,10.6-10.6v-9.5C117,59.6,112.2,54.9,106.4,54.9z"/>
		</g>
		<g>
			<path class="st1" d="M94.5,72.1c-0.2,0-0.5,0-0.7-0.1c-0.9-0.4-1.4-1.5-1-2.4c0.1-0.3,1.4-3,4.3-4.1c1.9-0.7,4-0.5,6.2,0.6
				c0.8,0.2,5.6,1.4,9.1-0.7l0.2-0.1c1.7-0.7,5.4-0.7,7.7,4.3c0.4,0.9,0,2-0.9,2.4c-0.9,0.4-2,0-2.4-0.9c-1.2-2.6-2.5-2.6-2.9-2.5
				c-5.2,3-11.8,1-12,0.9l-0.3-0.1c-1.3-0.7-2.5-0.8-3.5-0.5c-1.5,0.5-2.2,2.1-2.2,2.1C95.9,71.6,95.2,72.1,94.5,72.1z"/>
		</g>
		<g>
			<path class="st1" d="M123.2,106.8H88.8c-1,0-1.8-0.8-1.8-1.8v-6.6c0-5,4.1-9.1,9.1-9.1h3.9c1,0,1.8,0.8,1.8,1.8
				c0,1-0.8,1.8-1.8,1.8h-3.9c-3,0-5.5,2.4-5.5,5.5v4.8h30.7v-4.8c0-3-2.4-5.5-5.5-5.5h-4.1c-1,0-1.8-0.8-1.8-1.8
				c0-1,0.8-1.8,1.8-1.8h4.1c5,0,9.1,4.1,9.1,9.1v6.6C125,106,124.2,106.8,123.2,106.8z"/>
		</g>
		<g>
			<path class="st1" d="M106,106.8c-0.7,0-1.4-0.4-1.7-1.1l-5.9-13.9c-0.1-0.2-0.1-0.5-0.1-0.7v-3.7c0-1,0.8-1.8,1.8-1.8
				c1,0,1.8,0.8,1.8,1.8v3.3l4.1,9.6l4-9.6v-4.5c0-1,0.8-1.8,1.8-1.8s1.8,0.8,1.8,1.8v4.9c0,0.2,0,0.5-0.1,0.7l-5.8,13.9
				C107.4,106.3,106.7,106.8,106,106.8C106,106.8,106,106.8,106,106.8z"/>
		</g>
		<g>
			<path class="st1" d="M109.3,95.8c-0.2,0-0.4,0-0.6-0.1l-2.7-1l-2.6,1c-0.9,0.4-2-0.1-2.4-1c-0.4-0.9,0.1-2,1-2.4l3.2-1.3
				c0.4-0.2,0.9-0.2,1.3,0l3.4,1.3c0.9,0.4,1.4,1.4,1.1,2.4C110.7,95.4,110,95.8,109.3,95.8z"/>
		</g>
	</g>
	<g>
		<g>
			<path class="st1" d="M21.4,89.2c-7.9,0-14.2-6.4-14.2-14.2v-9.5c0-7.9,6.4-14.2,14.2-14.2c7.9,0,14.2,6.4,14.2,14.2V75
				C35.6,82.8,29.2,89.2,21.4,89.2z M21.4,54.9c-5.8,0-10.6,4.8-10.6,10.6V75c0,5.8,4.8,10.6,10.6,10.6S32,80.8,32,75v-9.5
				C32,59.6,27.2,54.9,21.4,54.9z"/>
		</g>
		<g>
			<path class="st1" d="M9.5,72.1c-0.2,0-0.5,0-0.7-0.1c-0.9-0.4-1.4-1.5-1-2.4c0.1-0.3,1.4-3,4.3-4.1c1.9-0.7,4-0.5,6.2,0.6
				c0.8,0.2,5.6,1.4,9.1-0.7l0.2-0.1c1.7-0.7,5.4-0.7,7.7,4.3c0.4,0.9,0,2-0.9,2.4c-0.9,0.4-2,0-2.4-0.9c-1.2-2.6-2.5-2.6-2.9-2.5
				c-5.2,3-11.8,1-12,0.9l-0.3-0.1c-1.3-0.7-2.5-0.8-3.5-0.5c-1.5,0.5-2.2,2.1-2.2,2.1C10.9,71.6,10.2,72.1,9.5,72.1z"/>
		</g>
		<g>
			<path class="st1" d="M38.2,106.8H3.8c-1,0-1.8-0.8-1.8-1.8v-6.6c0-5,4.1-9.1,9.1-9.1h3.9c1,0,1.8,0.8,1.8,1.8
				c0,1-0.8,1.8-1.8,1.8h-3.9c-3,0-5.5,2.4-5.5,5.5v4.8h30.7v-4.8c0-3-2.4-5.5-5.5-5.5h-4.1c-1,0-1.8-0.8-1.8-1.8
				c0-1,0.8-1.8,1.8-1.8h4.1c5,0,9.1,4.1,9.1,9.1v6.6C40,106,39.2,106.8,38.2,106.8z"/>
		</g>
		<g>
			<path class="st1" d="M21,106.8c-0.7,0-1.4-0.4-1.7-1.1l-5.9-13.9c-0.1-0.2-0.1-0.5-0.1-0.7v-3.7c0-1,0.8-1.8,1.8-1.8
				s1.8,0.8,1.8,1.8v3.3l4.1,9.6l4-9.6v-4.5c0-1,0.8-1.8,1.8-1.8c1,0,1.8,0.8,1.8,1.8v4.9c0,0.2,0,0.5-0.1,0.7l-5.8,13.9
				C22.4,106.3,21.7,106.8,21,106.8C21,106.8,21,106.8,21,106.8z"/>
		</g>
		<g>
			<path class="st1" d="M24.3,95.8c-0.2,0-0.4,0-0.6-0.1l-2.7-1l-2.6,1c-0.9,0.4-2-0.1-2.4-1c-0.4-0.9,0.1-2,1-2.4l3.2-1.3
				c0.4-0.2,0.9-0.2,1.3,0l3.4,1.3c0.9,0.4,1.4,1.4,1.1,2.4C25.7,95.4,25,95.8,24.3,95.8z"/>
		</g>
	</g>
	<g>
		<g>
			<path class="st1" d="M64.4,89.2c-7.9,0-14.3-6.4-14.3-14.2v-9.5c0-7.9,6.4-14.2,14.3-14.2c7.9,0,14.2,6.4,14.2,14.2V75
				C78.6,82.8,72.2,89.2,64.4,89.2z M64.4,54.9c-5.8,0-10.6,4.8-10.6,10.6V75c0,5.8,4.8,10.6,10.6,10.6S75,80.8,75,75v-9.5
				C75,59.6,70.2,54.9,64.4,54.9z"/>
		</g>
		<g>
			<path class="st1" d="M52.5,72.1c-0.2,0-0.5,0-0.7-0.1c-0.9-0.4-1.4-1.5-1-2.4c0.1-0.3,1.4-3,4.3-4.1c1.9-0.7,4-0.5,6.2,0.6
				c0.8,0.2,5.6,1.4,9.1-0.7l0.2-0.1c1.7-0.7,5.4-0.7,7.7,4.3c0.4,0.9,0,2-0.9,2.4c-0.9,0.4-2,0-2.4-0.9c-1.2-2.6-2.5-2.6-2.9-2.5
				c-5.2,3-11.8,1-12,0.9l-0.3-0.1c-1.3-0.7-2.5-0.8-3.5-0.5c-1.5,0.5-2.2,2.1-2.2,2.1C53.9,71.6,53.2,72.1,52.5,72.1z"/>
		</g>
		<g>
			<path class="st1" d="M81.2,106.8H46.8c-1,0-1.8-0.8-1.8-1.8v-6.6c0-5,4.1-9.1,9.1-9.1h3.9c1,0,1.8,0.8,1.8,1.8
				c0,1-0.8,1.8-1.8,1.8h-3.9c-3,0-5.5,2.4-5.5,5.5v4.8h30.7v-4.8c0-3-2.4-5.5-5.5-5.5h-4.1c-1,0-1.8-0.8-1.8-1.8
				c0-1,0.8-1.8,1.8-1.8h4.1c5,0,9.1,4.1,9.1,9.1v6.6C83,106,82.2,106.8,81.2,106.8z"/>
		</g>
		<g>
			<path class="st1" d="M64,106.8c-0.7,0-1.4-0.4-1.7-1.1l-5.9-13.9c-0.1-0.2-0.1-0.5-0.1-0.7v-3.7c0-1,0.8-1.8,1.8-1.8
				c1,0,1.8,0.8,1.8,1.8v3.3l4.1,9.6l4-9.6v-4.5c0-1,0.8-1.8,1.8-1.8s1.8,0.8,1.8,1.8v4.9c0,0.2,0,0.5-0.1,0.7l-5.8,13.9
				C65.4,106.3,64.7,106.8,64,106.8C64,106.8,64,106.8,64,106.8z"/>
		</g>
		<g>
			<path class="st1" d="M67.3,95.8c-0.2,0-0.4,0-0.6-0.1l-2.7-1l-2.6,1c-0.9,0.4-2-0.1-2.4-1c-0.4-0.9,0.1-2,1-2.4l3.2-1.3
				c0.4-0.2,0.9-0.2,1.3,0l3.4,1.3c0.9,0.4,1.4,1.4,1.1,2.4C68.7,95.4,68,95.8,67.3,95.8z"/>
		</g>
	</g>
	<g>
		<path class="st1" d="M122.6,108H4.4c-1.3,0-2.4-1.1-2.4-2.5s1.1-2.5,2.4-2.5h118.1c1.3,0,2.4,1.1,2.4,2.5S123.9,108,122.6,108z"/>
	</g>
</g>
</svg>
