<svg width="936" height="683" fill="none" xmlns="http://www.w3.org/2000/svg"><path d="M95.799 371.4c19.9-33.8-22.3-81.5-22.3-81.5s-21.4-28.5-2.9-68.4c13.4-28.7 113.6-80.3 152.6-101.5m51.7-15.5c43.6-4.3 281-14 222.5 51.6-42.4 47.4-78.5-70-6-84.6 90-18 220.2 57.4 288 79.2m25.9 27.9c3.5 48 60 61.5 60 61.5s31 11 38.6 63.9c5.6 38-40.3 165.4-57.6 216" stroke="#631AB8" stroke-dasharray="5 5"/><g filter="url(#a)"><path d="M757.901 203.6h-550.1c-9.389 0-17 7.611-17 17v348.7c0 9.389 7.611 17 17 17h550.1c9.389 0 17-7.611 17-17V220.6c0-9.389-7.611-17-17-17z" fill="#fff"/></g><path d="M278.199 309.9h496.7m-453.6 276.4V310.1" stroke="#D9D9D9" stroke-width=".5"/><path d="M316.501 303.7c-.4 0-.8 0-1.2-.2l-.7-.6c-.2-.3-.3-.6-.3-1h.7c0 .4.1.6.4.9.2.2.6.4 1 .4.5 0 .9-.2 1.2-.4.2-.2.4-.5.4-.9 0-.3-.1-.5-.3-.7-.1-.1-.3-.3-.5-.3l-.9-.3-1-.4c-.3 0-.5-.3-.7-.5-.2-.3-.3-.6-.3-1l.3-.9c.2-.3.4-.5.7-.6.3-.2.7-.3 1.1-.3.7 0 1.1.2 1.5.5.4.3.6.7.7 1.1h-.7c0-.2-.2-.5-.5-.7-.2-.2-.6-.3-1-.3s-.8.1-1 .3a1.003 1.003 0 0 0-.4.9c0 .3 0 .5.2.7l.5.4 1 .2 1 .4.7.5.2 1c0 .3 0 .6-.2.9l-.7.7-1.2.2zm8-5.2v5.1h-.8v-.9c-.1.4-.3.6-.7.8l-1 .2a2.002 2.002 0 0 1-1.5-.5c-.4-.4-.6-1-.6-1.7v-3h.6v3c0 .5.2 1 .4 1.2.3.3.7.5 1.2.5s.9-.2 1.2-.5c.3-.3.4-.8.4-1.4v-2.8H324.501zm3.9-.1a1.996 1.996 0 0 1 1.5.5c.4.4.6 1 .6 1.7v3h-.7v-3c0-.5-.1-1-.4-1.2-.3-.3-.7-.5-1.2-.5s-.9.2-1.2.5c-.3.3-.4.8-.4 1.4v2.8h-.7v-5.1h.7v.8l.7-.7 1-.2h.1z" fill="#AEAEAE"/><path d="M392.199 586.3V310.1" stroke="#D9D9D9" stroke-width=".5"/><path d="M391.002 297.1v6.5h-.6v-5.2l-2.3 5.3h-.5l-2.4-5.3v5.3h-.6V297h.7l2.5 5.7 2.5-5.7h.8l-.1.1zm3.8 6.6c-.5 0-.9 0-1.3-.3-.4-.2-.7-.5-1-1a2.99 2.99 0 0 1-.2-1.3c0-.6 0-1 .3-1.5.2-.4.5-.7 1-.9.3-.2.8-.3 1.3-.3.4 0 .9.1 1.3.3.4.2.7.5 1 1l.2 1.4c0 .5 0 1-.3 1.4-.2.4-.5.7-1 .9-.3.2-.8.3-1.3.3zm0-.6c.4 0 .7 0 1-.2.3-.1.5-.4.7-.7.2-.3.3-.7.3-1.1 0-.5-.1-.9-.3-1.2l-.7-.7a2 2 0 0 0-1-.2 1.997 1.997 0 0 0-1 .2l-.6.7c-.2.3-.3.7-.3 1.2 0 .4.1.8.3 1.1.2.3.4.6.7.7.3.2.6.2 1 .2h-.1zm6.3-4.7a2.002 2.002 0 0 1 1.5.5c.4.4.6 1 .6 1.7v3h-.7v-3c0-.5-.1-1-.4-1.2-.3-.3-.6-.5-1.1-.5-.5 0-1 .2-1.2.5-.3.3-.5.8-.5 1.4v2.8h-.6v-5.1h.6v.8l.7-.7 1-.2h.1z" fill="#AEAEAE"/><path d="M462.301 586.3V310.1" stroke="#D9D9D9" stroke-width=".5"/><path d="M460.298 297v.6h-1.9v6h-.6v-6h-1.9v-.6h4.4zm5.5 1.5v5.1h-.6v-.9c-.2.4-.4.6-.7.8l-1.1.2a2.002 2.002 0 0 1-1.5-.5c-.4-.4-.6-1-.6-1.7v-3h.6v3c0 .5.2 1 .5 1.2.2.3.6.5 1.1.5.5 0 1-.2 1.2-.5.3-.3.5-.8.5-1.4v-2.8h.6zm6.2 2.3v.5h-4.3c0 .4.1.7.3 1l.7.7.9.2c.4 0 .8-.1 1-.3.4-.3.6-.5.7-.9h.7c-.2.5-.4 1-.9 1.3-.4.3-.9.4-1.5.4-.5 0-1 0-1.3-.3-.4-.2-.7-.5-1-1a3.017 3.017 0 0 1-.3-1.3c0-.6.1-1 .4-1.5.2-.4.5-.7.9-.9.3-.2.8-.3 1.3-.3s1 0 1.3.3c.3.2.6.5.8.9.2.3.3.7.3 1.2zm-.6 0c0-.4-.1-.7-.3-1-.1-.3-.4-.5-.6-.6a1.997 1.997 0 0 0-1-.2c-.4 0-.9.1-1.2.4-.4.3-.6.8-.6 1.4h3.7z" fill="#AEAEAE"/><path d="M533.301 586.3V310.1" stroke="#D9D9D9" stroke-width=".5"/><path d="m532.799 297-1.9 6.6h-.7l-1.7-5.6-1.7 5.6h-.7l-1.9-6.6h.8l1.5 5.8 1.7-5.8h.7l1.7 5.8 1.5-5.8h.7zm5.7 3.8v.5h-4.3c0 .4.1.7.3 1l.7.7.9.2c.4 0 .8-.1 1-.3.3-.3.5-.5.6-.9h.7c0 .5-.4 1-.8 1.3-.4.3-1 .4-1.5.4s-1 0-1.3-.3c-.4-.2-.7-.5-1-1a3.002 3.002 0 0 1-.3-1.3c0-.6.1-1 .3-1.5.3-.4.6-.7 1-.9.3-.2.8-.3 1.3-.3s.9 0 1.3.3c.3.2.6.5.8.9.2.3.3.7.3 1.2zm-.7 0c0-.4 0-.7-.2-1l-.6-.6a1.997 1.997 0 0 0-1-.2c-.5 0-.9.1-1.2.4-.4.3-.6.8-.6 1.4h3.6zm1.6.2c0-.5.1-1 .4-1.4.2-.4.5-.7.8-.9.4-.2.8-.3 1.3-.3s.9.1 1.3.3c.3.2.6.5.8.9v-3h.6v7h-.6v-1.1a2.001 2.001 0 0 1-.8.9c-.4.2-.8.3-1.3.3s-.9 0-1.3-.3c-.3-.2-.6-.5-.9-1a3.013 3.013 0 0 1-.3-1.4zm4.6 0c0-.4-.1-.7-.3-1-.2-.4-.4-.6-.7-.8l-1-.2a2 2 0 0 0-1 .2c-.2.2-.5.4-.6.7a2.404 2.404 0 0 0 0 2.2c.1.4.4.6.6.8.3.2.7.2 1 .2a1.902 1.902 0 0 0 1.7-1c.2-.3.3-.6.3-1v-.1z" fill="#AEAEAE"/><path d="M604.199 586.3V310.1" stroke="#D9D9D9" stroke-width=".5"/><path d="M602.201 297v.6h-1.9v6h-.6v-6h-1.9v-.6h4.4zm3.5 1.4c.4 0 .8 0 1 .2.4.2.6.4.8.8.2.3.3.7.3 1.2v3h-.7v-3c0-.5-.1-1-.4-1.2-.3-.3-.7-.5-1.2-.5s-.9.2-1.1.5c-.3.3-.5.8-.5 1.4v2.8h-.7v-7h.7v2.7l.7-.7 1.1-.2zm8 0v5.3h-.6v-1c-.2.4-.4.6-.7.8l-1 .2c-.7 0-1.2-.2-1.6-.5-.4-.4-.6-1-.6-1.7v-3h.7v3c0 .5.1 1 .4 1.2.3.3.6.5 1.1.5.5 0 1-.2 1.2-.5.3-.3.5-.8.5-1.4v-2.8h.6v-.1z" fill="#AEAEAE"/><path d="M669.102 586.3V310.1" stroke="#D9D9D9" stroke-width=".5"/><path d="M669.401 297v.6h-3v2.4h2.5v.6h-2.4v3h-.7V297h3.6zm1.7 2.4.7-.8 1.1-.2v.7h-.2c-.4 0-.8 0-1.1.4-.3.2-.5.6-.5 1.3v2.8h-.6v-5.1h.6v.9zm3.2-2h-.4a.5.5 0 0 1-.1-.4l.1-.4h.7l.1.4-.1.3-.3.2v-.1zm.3 1v5.3h-.7v-5.2h.7v-.1z" fill="#AEAEAE"/><path d="M732.301 586.3V310.1" stroke="#D9D9D9" stroke-width=".5"/><path d="M728.402 303.7c-.4 0-.8 0-1.2-.2l-.8-.6-.3-1h.7c0 .4.2.6.5.9.2.2.6.4 1 .4.5 0 .9-.2 1.2-.4.2-.2.4-.5.4-.9 0-.3-.1-.5-.3-.7-.1-.1-.3-.3-.5-.3l-.9-.3a7.987 7.987 0 0 1-1-.4c-.3 0-.5-.3-.7-.5-.2-.3-.3-.6-.3-1 0-.3 0-.6.3-.9.1-.3.4-.5.7-.6.3-.2.7-.3 1.1-.3.6 0 1.1.2 1.5.5.4.3.6.7.7 1.1h-.8c0-.2-.1-.5-.4-.7-.3-.2-.6-.3-1-.3s-.8.1-1 .3a1.003 1.003 0 0 0-.4.9c0 .3 0 .5.2.7l.5.4 1 .2 1 .4.6.5c.2.3.3.6.3 1 0 .3 0 .6-.2.9-.2.3-.4.5-.8.7l-1.1.2zm3.1-2.7c0-.5.1-1 .3-1.4.2-.4.5-.7.9-.9.4-.2.8-.3 1.3-.3s.9.1 1.3.3c.3.3.6.5.7.9v-1.1h.7v5.1h-.7v-1.1c-.1.4-.4.6-.8.9-.3.2-.7.3-1.2.3s-1 0-1.3-.3c-.4-.2-.7-.5-.9-1a2.989 2.989 0 0 1-.3-1.4zm4.5 0c0-.4 0-.7-.2-1-.2-.4-.4-.6-.7-.8l-1-.2a1.997 1.997 0 0 0-1 .2l-.7.7-.2 1.1c0 .5 0 .8.2 1.2l.7.7c.3.2.6.2 1 .2a1.898 1.898 0 0 0 1.7-1c.2-.3.2-.6.2-1v-.1zm3-2v3.2c0 .4.1.6.3.7l.6.2h.6v.5h-.7c-.5 0-.8 0-1-.3-.3-.2-.4-.6-.4-1V299h-.7v-.5h.7v-1.3h.7v1.3h1.4v.5h-1.5z" fill="#AEAEAE"/><path d="M758.099 214.9h-68.4a3 3 0 0 0-3 3v13.9a3 3 0 0 0 3 3h68.4a3 3 0 0 0 3-3v-13.9a3 3 0 0 0-3-3z" fill="#3B1F5A"/><path d="M694.999 223.9h1.3v.5h-1.3v1.4h-.5v-1.4h-1.3v-.5h1.3v-1.5h.5v1.5zm7.8 2.7h-.7l-2.5-4.1c.021.433.021.867 0 1.3v2.8h-.6v-5h.8l2.4 4.2v-4.2h.6v5zm2.5-3.8c.4 0 .6 0 .8.2.3.1.4.3.5.6.2.2.2.5.2.9v.4h-2.4c0 .4.1.7.3 1 .2.1.5.3.8.3.419.002.832-.101 1.2-.3v.5a2.498 2.498 0 0 1-1.2.3c-.3 0-.6 0-.9-.2-.3-.2-.5-.4-.6-.7l-.2-1c0-.4 0-.8.2-1 .1-.4.3-.6.5-.8l.8-.2zm0 .5c-.2 0-.4 0-.6.3-.2.2-.2.4-.3.8h1.8l-.1-.6c0-.2-.2-.3-.3-.4a.8.8 0 0 0-.5-.1zm4.6 1.2c-.063-.201-.13-.401-.2-.6v-.4h-.1v.2l-.1.2c-.017.202-.05.403-.1.6l-.7 2.1h-.6l-1-3.7h.6l.5 2c.084.33.151.663.2 1v-.1l.1-.3.1-.3v-.2l.7-2.1h.7l.6 2c.055.264.088.531.1.8v.3h.1c.015-.236.049-.47.1-.7l.1-.4.5-2h.6l-1 3.7h-.6l-.6-2.1zm7.6 2.1-.5-1.5h-2l-.5 1.5h-.7l1.8-5h.6l1.8 5h-.6.1zm-1.2-3.6-.1-.2a9.808 9.808 0 0 0-.2-.6c-.053.27-.12.537-.2.8l-.5 1.5h1.5l-.5-1.5zm4.1-.2c.4 0 .8.1 1 .5.3.3.4.8.4 1.4l-.1 1.1-.5.7-.8.2-.5-.1a1.302 1.302 0 0 1-.6-.5c.011.233.011.467 0 .7v1.5h-.6v-5.4h.5v.5h.1l.3-.3.3-.2.5-.1zm-.1.5a1 1 0 0 0-.6.2l-.3.4v1.6c0 .2.2.4.3.5l.6.2c.2 0 .4 0 .5-.2.2-.1.3-.3.3-.5l.1-.8c0-.4 0-.8-.2-1a.805.805 0 0 0-.7-.4zm4.2-.5c.4 0 .7.1 1 .5.3.3.4.8.4 1.4 0 .5 0 .8-.2 1.1l-.5.7-.7.2-.5-.1a1.302 1.302 0 0 1-.6-.5c.008.233.008.467 0 .7v1.5h-.6v-5.4h.5v.5l.3-.3.4-.2.5-.1zm-.2.5c-.182.02-.355.089-.5.2-.2 0-.3.2-.3.4l-.1.7v.9l.4.5.6.2c.2 0 .3 0 .5-.2l.3-.5v-.8c0-.4 0-.8-.2-1a.805.805 0 0 0-.7-.4zm5.6 1.4-.1.9-.3.6-.6.4a1.8 1.8 0 0 1-1.3 0 1.505 1.505 0 0 1-.9-1v-.9l.1-1c.1-.3.3-.5.6-.7l.9-.2a1.5 1.5 0 0 1 1.4.9l.2 1zm-2.7 0c0 .3 0 .6.2.8 0 .2.1.4.3.5l.6.2c.2 0 .4 0 .5-.2l.4-.5V224a.997.997 0 0 0-.4-.5.997.997 0 0 0-.6-.2c-.3 0-.6.1-.7.4-.187.301-.29.646-.3 1zm4.2-1.8v3.7h-.6V223h.6v-.1zm-.3-1.4h.3v.6l-.3.1h-.2l-.1-.4v-.3h.3zm3.1 1.3c.5 0 .8.1 1 .3.2.2.3.6.3 1v2.5h-.6v-2.4c0-.3 0-.5-.2-.7l-.5-.2c-.4 0-.7.1-.8.4-.187.301-.29.646-.3 1v2h-.6v-3.8h.5l.1.5.3-.4.4-.1.5-.1h-.1zm3.6 3.4c.171-.009.339-.043.5-.1v.5h-1.1a.8.8 0 0 1-.4-.4l-.1-.7v-2.2h-.5v-.3l.5-.2.2-.8h.4v.9h1v.4h-1v2.2l.1.5.4.2zm5.1-3.4c.4 0 .7.1 1 .3l.2 1v2.5h-.6v-2.4c0-.3 0-.5-.2-.7 0-.1-.2-.2-.5-.2s-.6.1-.7.3c-.2.2-.2.5-.2 1v2h-.6v-2.4l-.1-.5-.2-.3a.698.698 0 0 0-.4 0h-.6l-.3.5v2.8h-.7v-3.8h.5l.1.5.3-.4.4-.1.4-.1.7.1.4.5.5-.5.6-.1zm3.7 0c.3 0 .5 0 .8.2l.5.6.1.9v.4h-2.4c0 .4.1.7.3 1 .2.1.5.3.8.3.419.002.832-.101 1.2-.3v.5a2.498 2.498 0 0 1-1.2.3c-.3 0-.6 0-.9-.2l-.6-.7-.2-1c0-.4 0-.8.2-1 .1-.4.3-.6.5-.8l.9-.2zm0 .5c-.3 0-.5 0-.7.3l-.3.8h1.8v-.6l-.4-.4a.693.693 0 0 0-.4-.1zm4-.5c.5 0 .8.1 1 .3.2.2.3.6.3 1v2.5h-.6v-2.4c0-.3 0-.5-.2-.7l-.5-.2c-.4 0-.7.1-.8.4-.187.301-.29.646-.3 1v2h-.6v-3.8h.5l.1.5.3-.4.4-.1.4-.1zm3.6 3.4a1.89 1.89 0 0 0 .5-.1v.5h-1.1a.8.8 0 0 1-.4-.4l-.1-.7v-2.2h-.5v-.3l.5-.2.2-.8h.4v.9h1v.4h-1v2.2l.1.5.4.2z" fill="#fff"/><path d="M385.398 203.6v40.7" stroke="#AEAEAE" stroke-width=".5"/><path d="M293.699 225c0-1.1.2-2 .7-3a5.203 5.203 0 0 1 4.7-2.7c1.3 0 2.3.3 3.2.9.9.6 1.5 1.4 2 2.5h-.9a4.001 4.001 0 0 0-1.6-2c-.7-.5-1.6-.8-2.7-.8-.9 0-1.7.2-2.4.6-.7.4-1.2 1-1.6 1.8-.4.8-.6 1.7-.6 2.7 0 1 .2 2 .6 2.7a4.407 4.407 0 0 0 4 2.4c1 0 2-.3 2.7-.8.7-.5 1.3-1.1 1.6-2h.8c-.4 1-1 2-1.9 2.5-.9.6-2 1-3.2 1-1 0-2-.3-2.8-.8a5.296 5.296 0 0 1-1.9-2c-.5-.9-.7-1.9-.7-3zm12.3 1.3c0-1 .2-1.7.6-2.4.3-.7.8-1.2 1.4-1.5.7-.4 1.4-.6 2.2-.6 1 0 1.7.2 2.4.7.6.4 1 1 1.3 1.7v-2.3h.7v8.7h-.7v-2.3c-.3.7-.7 1.3-1.4 1.8a4 4 0 0 1-2.3.6c-.8 0-1.5-.1-2.2-.5a4.002 4.002 0 0 1-1.4-1.6c-.4-.7-.6-1.4-.6-2.3zm7.9 0a3.996 3.996 0 0 0-.5-2c-.3-.6-.7-1-1.3-1.4-.5-.3-1.1-.5-1.8-.5s-1.3.2-1.8.5a3.006 3.006 0 0 0-1.3 1.3c-.3.6-.4 1.3-.4 2 0 .8.1 1.5.4 2.1.3.6.7 1 1.3 1.3a3.6 3.6 0 0 0 3.7 0c.5-.3 1-.7 1.2-1.3.4-.6.5-1.3.5-2zm4-7.5v11.8h-.7v-11.8h.8-.1zm10.5 6.9v.8h-7.5c0 .8.2 1.5.5 2s.7 1 1.3 1.2c.5.3 1 .4 1.7.4.8 0 1.5-.2 2.1-.6.6-.4 1-1 1.1-1.7h.8c-.2.8-.6 1.6-1.3 2.1-.8.6-1.6.8-2.7.8a3.797 3.797 0 0 1-3.7-2.1 5 5 0 0 1-.5-2.3c0-1 .1-1.7.5-2.4.3-.7.8-1.2 1.5-1.5.6-.4 1.4-.6 2.2-.6.8 0 1.5.2 2.1.6.7.3 1.1.8 1.4 1.4.4.6.5 1.2.5 1.9zm-.7.3c0-.8-.1-1.5-.4-2-.3-.5-.7-1-1.2-1.2-.6-.2-1.1-.4-1.7-.4-.6 0-1.2.2-1.7.4-.5.3-1 .7-1.3 1.2a4.006 4.006 0 0 0-.5 2h6.8zm6.8-4.3c1 0 1.9.4 2.6 1 .6.6 1 1.6 1 2.8v5.1h-.8v-5c0-1-.2-1.9-.8-2.4-.5-.6-1.2-.8-2-.8a3.002 3.002 0 0 0-2.3.9c-.6.6-.9 1.4-.9 2.6v4.7h-.7V222h.7v1.9c.3-.7.7-1.2 1.2-1.5.6-.4 1.3-.6 2-.6v-.1zm5.6 4.6c0-1 .2-1.7.6-2.4.3-.7.8-1.2 1.4-1.5.7-.4 1.4-.6 2.2-.6a3.997 3.997 0 0 1 2.3.7c.7.4 1.1 1 1.4 1.7v-5.4h.7v11.8h-.7v-2.3c-.3.7-.7 1.3-1.3 1.8a3.994 3.994 0 0 1-2.4.6c-.8 0-1.5-.1-2.2-.5a4.002 4.002 0 0 1-1.4-1.6c-.4-.7-.6-1.4-.6-2.3zm7.9 0a3.996 3.996 0 0 0-.5-2c-.3-.6-.7-1-1.3-1.4-.5-.3-1.1-.5-1.8-.5s-1.3.2-1.8.5a3.006 3.006 0 0 0-1.3 1.3c-.3.6-.4 1.3-.4 2 0 .8.1 1.5.4 2.1.3.6.7 1 1.3 1.3a3.6 3.6 0 0 0 3.7 0c.5-.3 1-.7 1.2-1.3.3-.6.5-1.3.5-2zm2.9 0c0-1 .2-1.7.5-2.4.4-.7.9-1.2 1.5-1.5.6-.4 1.4-.6 2.2-.6.9 0 1.7.2 2.3.7.7.4 1.1 1 1.4 1.7v-2.3h.7v8.7h-.7v-2.3c-.3.7-.7 1.3-1.4 1.8a4 4 0 0 1-2.3.6c-.8 0-1.6-.1-2.2-.5a3.998 3.998 0 0 1-1.5-1.6c-.3-.7-.5-1.4-.5-2.3zm7.9 0a3.996 3.996 0 0 0-.5-2c-.3-.6-.8-1-1.3-1.4-.5-.3-1.1-.5-1.8-.5s-1.3.2-1.9.5c-.521.303-.94.756-1.2 1.3-.3.6-.5 1.3-.5 2 0 .8.2 1.5.5 2.1.3.6.7 1 1.2 1.3.6.3 1.2.5 1.9.5s1.3-.2 1.8-.5c.6-.3 1-.7 1.3-1.3.3-.6.5-1.3.5-2zm4-2.6c.2-.6.6-1.1 1.2-1.4.5-.4 1.2-.6 2-.6v.8h-.2c-.9 0-1.6.2-2.1.7-.6.5-.9 1.3-.9 2.4v5h-.7V222h.7v1.8-.1z" fill="#656565"/><path d="M278.199 244.7h496.7" stroke="#D9D9D9"/><mask id="b" style="mask-type:luminance" maskUnits="userSpaceOnUse" x="661" y="219" width="12" height="13"><path d="M661.102 219.3h11.3v12.1h-11.3v-12.1z" fill="#fff"/></mask><g mask="url(#b)"><path d="M666.802 230.7h-4.2a1 1 0 0 1-1-1V222c0-.5.4-1 1-1h8.3c.5 0 1 .5 1 1v3.9" stroke="#000" stroke-miterlimit="10" stroke-linecap="round"/><path d="m667.002 229 2 1.7 2.9-3.2m-8.3-7.7v2.6m3-2.6v2.6m2.9-2.6v2.6" stroke="#000" stroke-miterlimit="10" stroke-linecap="round"/><path d="M663.801 225a.501.501 0 0 0 0-1 .5.5 0 1 0 0 1zm1.8 0a.501.501 0 0 0 0-1 .5.5 0 1 0 0 1zm2 0a.501.501 0 0 0 0-1 .5.5 0 1 0 0 1zm1.9 0a.501.501 0 0 0 0-1 .5.5 0 1 0 0 1zm-5.7 1.8a.4.4 0 1 0 0-.8.4.4 0 0 0 0 .8zm1.8 0a.4.4 0 1 0 0-.8.4.4 0 0 0 0 .8zm-1.8 1.8a.4.4 0 1 0 0-.8.4.4 0 0 0 0 .8zm1.8 0a.4.4 0 1 0 0-.8.4.4 0 0 0 0 .8zm2-1.8a.447.447 0 0 0 .45-.45.451.451 0 0 0-.45-.45.5.5 0 1 0 0 1v-.1zm1.9 0a.4.4 0 1 0 0-.8.4.4 0 0 0 0 .8z" fill="#000"/></g><path d="M366.199 254.1h-71.2a1.8 1.8 0 0 0-1.8 1.8v14.9a1.8 1.8 0 0 0 1.8 1.8h71.2a1.8 1.8 0 0 0 1.8-1.8v-14.9a1.8 1.8 0 0 0-1.8-1.8z" fill="#fff" stroke="#AEAEAE" stroke-width=".5"/><path d="M301.2 265.8h-2.6l-.5 1.4h-.6l2-5.6h.7l2 5.6h-.6l-.4-1.4zm-.2-.4-1.1-3-1.1 3h2.2zm2.7-4.2v6h-.6v-6h.6zm1.8 0v6h-.5v-6h.5zm4 5.5h2v.5H309v-5.6h.5v5.1zm4.8.5c-.4 0-.8 0-1.1-.3a2.004 2.004 0 0 1-.8-.7l-.3-1.2c0-.5.1-.9.3-1.2.2-.4.4-.6.8-.8.3-.2.7-.3 1-.3.5 0 .9.1 1.2.3.3.2.6.4.8.8.2.3.3.7.3 1.2l-.3 1.2a2.004 2.004 0 0 1-.8.7c-.3.2-.7.3-1.1.3zm0-.5c.3 0 .5 0 .8-.2l.6-.6.2-1c0-.3 0-.6-.2-.9l-.6-.6-.8-.2c-.3 0-.6 0-.8.2-.3.1-.5.3-.6.6a2 2 0 0 0-.2 1c0 .4 0 .7.2 1 .1.2.3.4.6.5.2.2.5.2.8.2zm3-1.7c0-.5 0-.9.2-1.2.2-.4.4-.6.8-.8.3-.2.6-.3 1-.3.6 0 1 .2 1.4.4.3.3.6.7.7 1.1h-.6c-.1-.3-.3-.6-.5-.7-.3-.2-.6-.3-1-.3-.2 0-.5 0-.7.2-.3.1-.5.3-.6.6l-.2 1c0 .4 0 .7.2 1 .1.2.3.4.6.5.2.2.5.2.8.2.3 0 .6 0 .9-.2.2-.2.4-.4.5-.8h.6c-.1.5-.4.8-.7 1.1-.4.3-.8.4-1.3.4s-.8 0-1.1-.3a2.004 2.004 0 0 1-.8-.7l-.3-1.2h.1zm4.8 0c0-.5.1-.9.3-1.2.2-.4.4-.6.7-.8.4-.2.7-.3 1.1-.3.4 0 .8.1 1.1.3l.7.7v-1h.5v4.5h-.5v-1l-.7.7c-.301.187-.646.29-1 .3a2.003 2.003 0 0 1-1.8-1c-.3-.4-.4-.8-.4-1.2zm3.9 0c0-.4-.1-.7-.3-1l-.6-.6-.8-.2c-.3 0-.6 0-.8.2l-.6.6a2 2 0 0 0-.2 1c0 .3 0 .6.2 1l.6.5c.2.2.5.2.8.2a1.6 1.6 0 0 0 1.4-.8c.2-.3.3-.6.3-1v.1zm2.5-1.7v2.7c0 .2 0 .4.2.5l.5.2h.5v.5h-.6c-.4 0-.7-.1-.9-.3-.2-.2-.2-.5-.2-1v-2.6h-.7v-.5h.7v-1.1h.5v1h1.2v.6h-1.2zm2.4-1.3s-.2 0-.3-.2v-.5l.3-.2c.1 0 .2 0 .3.2l.1.2v.3l-.4.2zm.3.8v4.4h-.6v-4.4h.6zm3.2 4.4c-.4 0-.8 0-1.1-.3a2.004 2.004 0 0 1-.8-.7l-.3-1.2c0-.5.1-.9.3-1.2.2-.4.5-.6.8-.8.3-.2.7-.3 1.1-.3.4 0 .8.1 1.1.3.3.2.6.4.8.8.2.3.3.7.3 1.2l-.3 1.2a2.004 2.004 0 0 1-.8.7c-.3.2-.7.3-1.1.3zm0-.5c.3 0 .5 0 .8-.2l.6-.6.2-1c0-.3 0-.6-.2-.9l-.6-.6-.8-.2c-.3 0-.6 0-.8.2-.3.1-.4.3-.6.6a2 2 0 0 0-.2 1c0 .4 0 .7.2 1 .2.2.3.4.6.5.2.2.5.2.8.2zm5.3-4c.5 0 .9.2 1.2.5.4.3.5.8.5 1.4v2.6h-.5v-2.5c0-.5-.1-.9-.4-1.1-.2-.3-.5-.4-1-.4-.4 0-.7.1-1 .4-.2.3-.3.7-.3 1.2v2.4h-.6v-4.4h.6v.7l.6-.6.9-.2zm4.5 4.5a1.997 1.997 0 0 1-1.3-.3c-.3-.3-.4-.6-.5-1h.6c0 .3.1.5.3.6.2.2.5.2.9.2.3 0 .5 0 .7-.2.2-.1.2-.3.2-.5l-.1-.4a1.006 1.006 0 0 0-.4-.2l-.6-.2a5.96 5.96 0 0 1-.8-.2l-.5-.4a1 1 0 0 1-.2-.7c0-.2 0-.4.2-.6.1-.2.3-.3.6-.4l.8-.2c.4 0 .8.1 1 .4.4.2.5.5.6 1h-.6c0-.3-.1-.5-.3-.7l-.8-.2c-.2 0-.5 0-.7.2l-.2.5.1.4.4.3.7.2.7.2.5.4.2.6c0 .2 0 .4-.2.6l-.5.5-.8.1z" fill="#656565"/><path d="m356.801 262.6 2.3 2.4 2.4-2.4" stroke="#656565" stroke-width=".8" stroke-linecap="round" stroke-linejoin="round"/><path d="M759 254.1H655.8a1.8 1.8 0 0 0-1.8 1.8v14.9a1.8 1.8 0 0 0 1.8 1.8H759a1.8 1.8 0 0 0 1.8-1.8v-14.9a1.8 1.8 0 0 0-1.8-1.8z" fill="#fff" stroke="#AEAEAE" stroke-width=".5"/><path d="m666.298 261-1.5 5.6h-.7l-1.4-4.7-1.4 4.7h-.6l-1.6-5.5h.6l1.3 4.9 1.4-5h.7l1.4 5 1.2-5h.6zm4.8 3.2v.5h-3.6l.2.8.6.6.8.1c.3 0 .7 0 .9-.2l.5-.7h.6c-.1.4-.4.7-.7 1a2.001 2.001 0 0 1-1.3.4c-.4 0-.8 0-1.1-.3a1.998 1.998 0 0 1-.8-.7l-.3-1.2c0-.5.1-.9.3-1.2.2-.4.4-.6.8-.8.3-.2.7-.3 1-.3.5 0 .9.1 1.2.3l.7.7c.2.3.2.7.2 1zm-.5 0c0-.3 0-.6-.2-.8-.2-.2-.3-.4-.6-.5l-.7-.2c-.5 0-.8.1-1.1.4-.3.3-.5.6-.5 1.1h3.1zm5.5 0v.5h-3.6c0 .3 0 .6.2.8l.6.6.8.1c.3 0 .6 0 .9-.2l.5-.7h.6c-.1.4-.4.7-.7 1a2.001 2.001 0 0 1-1.3.4c-.4 0-.8 0-1.1-.3a1.998 1.998 0 0 1-.8-.7l-.3-1.2c0-.5.1-.9.3-1.2.2-.4.4-.6.7-.8.4-.2.7-.3 1.2-.3.4 0 .7.1 1 .3.4.2.6.4.8.7l.2 1zm-.5 0-.2-.8-.6-.5a1.703 1.703 0 0 0-1.8.2c-.3.3-.5.6-.5 1.1h3.1zm4 2.4-1.9-2v2h-.6v-5.9h.6v3.5l1.8-2h.8l-2.1 2.3 2 2.1h-.7.1zm2-5.9v6h-.6v-6h.6zm4.8 1.6-2.6 6.4h-.6l.9-2-1.8-4.4h.6l1.5 3.7 1.4-3.7h.6zm12.8-1.3c.6 0 1.2.2 1.6.4.5.2.8.5 1 1 .3.4.4.9.4 1.5 0 .5-.1 1-.4 1.5-.2.4-.5.7-1 1l-1.6.2h-1.6v-5.5h1.6v-.1zm0 5.2c.8 0 1.4-.2 1.8-.6.4-.4.6-1 .6-1.7 0-.8-.2-1.3-.6-1.8-.4-.4-1-.6-1.8-.6h-1v4.7h1zm3.8-1.7c0-.5 0-.9.2-1.2.2-.4.4-.6.8-.8.3-.2.6-.3 1-.3.5 0 .8.1 1.1.3l.7.7v-1h.5v4.4h-.5v-1c-.2.4-.4.6-.7.8-.301.187-.646.29-1 .3a1.994 1.994 0 0 1-1.8-1c-.3-.4-.3-.8-.3-1.2zm3.8 0-.2-1-.6-.6-.9-.2c-.3 0-.5 0-.8.2l-.6.6c-.152.31-.221.655-.2 1 0 .3 0 .6.2.9l.6.6c.3.2.5.2.8.2a1.606 1.606 0 0 0 1.5-.8l.2-1v.1zm2-3-.2-.2-.1-.3.1-.3h.6l.1.3-.1.3-.3.2h-.1zm.4.8v4.3h-.6v-4.3h.6zm1.8-1.6v6h-.6v-6h.6zm4.9 1.6-2.6 6.4h-.6l.8-2-1.8-4.4h.7l1.4 3.7 1.5-3.7h.6z" fill="#656565"/><path d="M691.199 253.8v19.1m29.5-19.1v19.1" stroke="#AEAEAE" stroke-width=".5"/><path d="M731.998 261.1v5.5h-.5v-4.4l-2 4.4h-.4l-2-4.3v4.3h-.5v-5.5h.6l2 4.8 2.2-4.8h.6zm3.2 5.6c-.4 0-.8 0-1.1-.3a1.998 1.998 0 0 1-.8-.7l-.3-1.2c0-.5.1-.9.3-1.2.2-.4.5-.6.8-.8.3-.2.7-.3 1.1-.3.4 0 .8.1 1.1.3.4.2.6.4.8.8.2.3.3.7.3 1.2 0 .4 0 .8-.3 1.1a2 2 0 0 1-.8.8c-.3.2-.7.3-1 .3h-.1zm0-.5c.3 0 .6 0 .8-.2.3-.1.5-.3.6-.6.2-.2.2-.6.2-1 0-.3 0-.6-.2-1-.1-.2-.3-.4-.6-.5l-.8-.2c-.3 0-.5 0-.8.2l-.6.6c-.152.31-.221.655-.2 1 0 .3 0 .7.2 1l.6.5c.3.2.5.2.8.2zm5.3-4c.5 0 1 .2 1.3.5.3.3.5.8.5 1.4v2.5h-.6v-2.5c0-.4-.1-.8-.4-1-.2-.3-.5-.4-1-.4-.3 0-.7.1-1 .4-.2.3-.3.6-.3 1.2v2.3h-.6v-4.3h.6v.7l.6-.6.9-.2zm3.7.6v2.7c0 .2 0 .4.2.5l.5.2h.5v.4h-.6c-.4 0-.7 0-.9-.2l-.2-1v-2.6h-.7v-.5h.7v-1.1h.5v1h1.2v.6h-1.2zm4.2-.6c.4 0 .7 0 1 .2l.5.6c.2.3.3.7.3 1v2.6h-.6v-2.5c0-.4-.1-.8-.3-1-.3-.3-.6-.4-1-.4s-.8.1-1 .4c-.3.3-.4.6-.4 1.2v2.3h-.6v-5.9h.6v2.3l.6-.6c.31-.152.655-.221 1-.2h-.1zm3.6-1.5v6h-.6v-6h.6zm4.8 1.6-2.6 6.4h-.5l.8-2-1.8-4.4h.6l1.5 3.7 1.5-3.7h.5z" fill="#656565"/><path d="M599.001 254.1h-121.4a1.8 1.8 0 0 0-1.8 1.8v14.9a1.8 1.8 0 0 0 1.8 1.8h121.4a1.8 1.8 0 0 0 1.8-1.8v-14.9a1.8 1.8 0 0 0-1.8-1.8z" fill="#fff" stroke="#AEAEAE" stroke-width=".5"/><path d="M503.202 265.1c0 .4.1.6.4.8.2.2.4.3.8.3.5 0 .9-.2 1.1-.6.3-.4.4-1 .4-2-.1.4-.3.6-.6.8l-1 .2c-.6 0-1-.2-1.4-.5-.3-.3-.5-.8-.5-1.4 0-.4.1-.7.3-1 0-.3.3-.5.6-.6.301-.187.646-.29 1-.3.8 0 1.3.3 1.6.8.3.4.5 1.1.5 2 0 1-.2 1.8-.5 2.3-.3.5-.8.8-1.5.8-.5 0-1-.2-1.2-.5-.3-.2-.5-.6-.6-1h.6v-.1zm1.2-1 .7-.1a1.294 1.294 0 0 0 .7-1.2c0-.5-.1-.8-.4-1.1-.2-.3-.6-.4-1-.4-.5 0-.8.1-1 .4-.3.2-.4.6-.4 1s.1.8.3 1c.3.3.6.4 1 .4h.1zm3.9-1.4v2.8l.1.5.5.2h.6v.4h-.6c-.4 0-.7 0-1-.2l-.2-1v-2.6h-.6v-.5h.6v-1.1h.6v1h1.2v.6h-1.2v-.1zm4.2-.5c.3 0 .6 0 .9.2l.6.6.2 1v2.6h-.5v-2.5c0-.4-.2-.8-.4-1-.2-.3-.6-.4-1-.4s-.7.1-1 .4c-.2.3-.4.6-.4 1.2v2.3h-.5v-5.9h.5v2.3l.7-.6c.281-.136.589-.204.9-.2zm7.9 1.2v.5h-3.2v-.5h3.2zm6.2-2.3v4.2c0 .4-.2.8-.4 1-.3.3-.6.4-1 .4-.5 0-.9-.1-1.2-.4-.2-.3-.4-.7-.4-1.1h.6c0 .3 0 .5.2.7.2.2.4.3.7.3.3 0 .5 0 .7-.3l.2-.6V261h.6v.1zm5.2 1.2v4.3h-.6v-.7c-.1.3-.3.5-.6.6l-.9.2c-.5 0-1-.1-1.3-.5-.3-.3-.5-.8-.5-1.4v-2.5h.6v2.5c0 .4.1.8.3 1 .3.3.6.4 1 .4s.8-.1 1-.4c.3-.2.4-.6.4-1.1v-2.4h.6zm1.8-1.6v6h-.6v-6h.6zm3 .7v-.5h1.4v5.7h-.5v-5.2h-.9zm6.3 0h-3v2l.6-.4.9-.2c.4 0 .8 0 1 .3.3.1.5.4.7.7l.1.9c0 .4 0 .7-.2 1-.1.3-.3.5-.6.7a1.994 1.994 0 0 1-1.1.3 2.004 2.004 0 0 1-1.3-.5c-.4-.2-.6-.6-.7-1.1h.6c0 .3.2.6.5.8.2.2.5.3.9.3.5 0 .8-.1 1-.4.3-.3.4-.7.4-1.1 0-.5-.1-.8-.4-1-.2-.3-.5-.4-1-.4-.3 0-.6 0-.8.2-.2.1-.4.3-.5.6h-.6v-3.2h3.5v.5zm2.2 1.4v2.7l.1.5.6.2h.5v.4h-.6c-.4 0-.7 0-1-.2l-.2-1v-2.6h-.6v-.5h.6v-1.1h.6v1h1.2v.6h-1.3.1zm4.2-.6c.3 0 .6 0 .9.2l.6.6.2 1v2.6h-.5v-2.5c0-.4-.2-.8-.4-1-.2-.3-.6-.4-1-.4s-.7.1-1 .4c-.2.3-.4.6-.4 1.2v2.3h-.5v-5.9h.5v2.3l.7-.6c.281-.136.589-.204.9-.2zm3.5 3.5-.9 2.1h-.4l.6-2h.7v-.1zm2.8.5c1-.7 1.7-1.4 2.3-2 .5-.6.8-1.1.8-1.7 0-.4-.1-.7-.3-.9-.2-.2-.5-.3-.9-.3s-.7.1-1 .4c-.2.2-.3.6-.3 1h-.6c0-.6.3-1 .6-1.4.3-.3.8-.5 1.3-.5s1 .2 1.3.5c.3.2.4.7.4 1.2 0 .6-.2 1.3-.8 1.9-.5.6-1.2 1.2-2 1.7h3v.5h-3.8v-.4zm4.7-2.5c0-.9.1-1.6.4-2.1.3-.5.8-.8 1.5-.8.8 0 1.3.3 1.5.8.3.5.5 1.2.5 2.1 0 1-.2 1.7-.5 2.2-.2.5-.7.8-1.5.8-.7 0-1.2-.3-1.5-.8-.3-.5-.4-1.2-.4-2.2zm3.3 0v-1.2l-.5-.9c-.2-.2-.5-.3-.9-.3s-.6.1-.9.3l-.4.9v2.5l.4.8c.3.2.5.3 1 .3.3 0 .6 0 .8-.3l.4-.8.1-1.3zm1.5 2.5c1-.7 1.7-1.4 2.3-2 .5-.6.8-1.1.8-1.7 0-.4-.1-.7-.3-.9-.2-.2-.5-.3-.9-.3s-.7.1-1 .4c-.2.2-.3.6-.3 1h-.5c0-.6.2-1 .5-1.4.3-.3.8-.5 1.3-.5s1 .2 1.3.5c.3.2.4.7.4 1.2 0 .6-.2 1.3-.8 1.9-.5.6-1.2 1.2-2 1.7h3v.5h-3.8v-.4zm4.7-3.8c0-.5.2-.9.5-1.2a2.001 2.001 0 0 1 1.3-.4c.4 0 .7 0 1 .2l.5.5c.2.2.2.5.2.8 0 .3 0 .6-.3.8-.1.3-.4.4-.8.5l1 .5.2 1c0 .5-.1.9-.4 1.2-.3.2-.8.4-1.3.4-.6 0-1-.2-1.4-.4-.4-.3-.6-.8-.6-1.3h.5c0 .4.2.7.5.9.2.2.5.3 1 .3.4 0 .7 0 .9-.3.2-.2.3-.5.3-.8 0-.8-.6-1.2-1.7-1.2h-.2v-.5h.2c1 0 1.6-.4 1.6-1a.99.99 0 0 0-.3-.8c-.2-.2-.5-.3-.9-.3-.3 0-.6 0-.9.3l-.4.8h-.5z" fill="#656565"/><path d="m485.802 261.4-2.4 2.4 2.4 2.4m105.8-4.8 2.4 2.4-2.4 2.4" stroke="#656565" stroke-width=".8" stroke-linecap="round" stroke-linejoin="round"/><path d="M493.102 253.8v19.1m90.8-19.1v19.1" stroke="#AEAEAE" stroke-width=".5"/><path d="M419.798 254.1h-40.9a1.8 1.8 0 0 0-1.8 1.8v14.9a1.8 1.8 0 0 0 1.8 1.8h40.9a1.8 1.8 0 0 0 1.8-1.8v-14.9a1.8 1.8 0 0 0-1.8-1.8z" fill="#fff" stroke="#AEAEAE" stroke-width=".5"/><path d="M384.396 261.6v4.2c0 .4 0 .8-.4 1-.2.3-.6.4-1 .4-.5 0-.8-.1-1-.4-.4-.3-.5-.6-.5-1.1h.6c0 .3 0 .5.2.7.2.2.4.3.7.3.3 0 .5 0 .7-.3l.2-.6v-4.2h.5zm1.2 3.4c0-.5 0-.9.3-1.2.1-.4.4-.6.7-.8a2.002 2.002 0 0 1 2.2 0c.3.2.5.4.6.7v-1h.6v4.5h-.6v-1c-.1.3-.4.5-.7.7-.301.187-.646.29-1 .3a2.002 2.002 0 0 1-1.8-1l-.3-1.2zm3.8 0c0-.4 0-.7-.2-1l-.6-.6-.8-.2c-.3 0-.6 0-.9.2l-.5.6a2 2 0 0 0-.2 1c0 .3 0 .6.2 1 .1.2.3.4.6.5.2.2.5.2.8.2a1.6 1.6 0 0 0 1.4-.8l.2-1v.1zm3.9-2.3c.5 0 1 .2 1.3.5.3.3.5.8.5 1.4v2.6h-.6v-2.5c0-.5-.1-.9-.3-1.1-.3-.3-.6-.4-1-.4s-.8.1-1 .4c-.3.3-.4.7-.4 1.2v2.4h-.6v-4.4h.6v.7l.6-.6.9-.2zm7 2v.5h-3.7c0 .3.1.6.3.8.1.3.3.4.5.6l.8.1c.4 0 .7 0 1-.2l.4-.7h.6c-.1.4-.3.7-.7 1a1.998 1.998 0 0 1-1.3.4c-.4 0-.8 0-1.1-.3a2.004 2.004 0 0 1-.8-.7c-.2-.4-.2-.8-.2-1.2 0-.5 0-.9.2-1.2.2-.4.5-.6.8-.8.3-.2.7-.3 1-.3.5 0 .9.1 1.2.3l.7.7c.2.3.3.7.3 1zm-.6 0c0-.3 0-.6-.2-.8-.1-.2-.3-.4-.6-.5a1.7 1.7 0 0 0-1.8.2c-.3.3-.4.6-.5 1.1h3.1z" fill="#656565"/><path d="m410.398 262.6 2.4 2.4 2.4-2.4" stroke="#656565" stroke-width=".8" stroke-linecap="round" stroke-linejoin="round"/><g><path d="M190.801 220.6a17 17 0 0 1 17-17h70.4v382.7h-70.4a17 17 0 0 1-17-17V220.6z" fill="#210341"/><path d="M207 236.3a9 9 0 0 0 9-9 9 9 0 0 0-9-9 9 9 0 0 0-9 9 9 9 0 0 0 9 9z" fill="#fff"/><mask id="c" style="mask-type:luminance" maskUnits="userSpaceOnUse" x="200" y="222" width="14" height="14"><path d="M200 222.3h14v13h-14v-13z" fill="#fff"/></mask><g mask="url(#c)"><path d="M205.198 223.7h-2.2l-2.6 3h3.7l1-3h.1z" fill="#BDDDF4"/><path d="m213.698 226.7-2.6-3h-2.2l1 3h3.8z" fill="#5DADEC"/><path d="M210 226.7h3.7L207 234l3-7.2v-.1z" fill="#4289C1"/><path d="M203.998 226.7h-3.6l6.6 7.2-3-7.2zm1.2-3-1.1 3h5.9l-1.1-3h-3.7z" fill="#8CCAF7"/><path d="m207 234-3-7.3h6l-3 7.2v.1z" fill="#5DADEC"/></g><path d="M214.999 271.4c-.5 0-.9-.1-1.3-.3a2.402 2.402 0 0 1-1.2-2.2c0-.5.1-1 .3-1.3.2-.4.5-.7 1-.9.3-.2.7-.3 1.2-.3a2.498 2.498 0 0 1 2.1 1.2c.3.4.4.8.4 1.3s-.1.9-.4 1.3c-.2.4-.5.6-.9.9-.3.2-.8.3-1.2.3zm0-.7c.3 0 .6 0 .8-.2.3-.2.5-.4.6-.7.2-.2.2-.6.2-1 0-.3 0-.6-.2-.9l-.6-.6-.8-.2c-.3 0-.6 0-.9.2l-.6.6a2 2 0 0 0-.2 1c0 .3 0 .7.2 1a1.604 1.604 0 0 0 1.5.8zm4.7 0 1.1-3.2h.9l-1.5 3.8h-1l-1.4-3.8h.8l1.1 3.1v.1zm6.1-1.4v.4h-3a.994.994 0 0 0 1.1 1c.5 0 .8-.2 1-.5h.8a1.8 1.8 0 0 1-1.8 1.2 1.803 1.803 0 0 1-1.7-1l-.2-1c0-.4.1-.7.3-1 .1-.3.3-.6.6-.7.301-.187.646-.29 1-.3.4 0 .7 0 1 .2l.7.7.2 1zm-.8-.2a.998.998 0 0 0-.3-.8l-.8-.2c-.25-.023-.5.048-.7.2a1 1 0 0 0-.3.8h2.1zm2.4-1c.1-.3.3-.4.5-.5l.7-.2v.8h-.2c-.4 0-.6.1-.8.3l-.2.8v2h-.8v-3.8h.8v.6zm3.4 2.5 1-3.1h1l-1.5 3.8h-1l-1.5-3.8h.9l1 3.1h.1zm3-3.6c-.2 0-.3 0-.4-.2a.5.5 0 0 1-.2-.4s0-.2.2-.3l.3-.2c.2 0 .3 0 .4.2l.1.3-.1.4-.4.2h.1zm.3.5v3.8h-.8v-3.8h.8zm4.6 1.8v.4h-3c0 .3.2.6.4.7.2.2.4.3.7.3.5 0 .8-.2 1-.5h.8a1.7 1.7 0 0 1-1.8 1.2 1.803 1.803 0 0 1-1.7-1l-.2-1c0-.4 0-.7.2-1 .2-.3.4-.6.7-.7.301-.187.646-.29 1-.3.4 0 .7 0 1 .2l.7.7.2 1zm-.8-.2c0-.3-.1-.6-.3-.8l-.8-.2a1.005 1.005 0 0 0-1.1 1h2.2zm6.8-1.6-1.2 3.8h-.9l-.7-2.8-.8 2.8h-.9l-1.2-3.8h.8l.9 3 .8-3h.8l.8 3 .8-3h.8z" fill="#fff"/><mask id="d" style="mask-type:luminance" maskUnits="userSpaceOnUse" x="198" y="263" width="10" height="11"><path d="M198 263.3h10v10h-10v-10z" fill="#fff"/></mask><g fill="#fff" mask="url(#d)"><path d="m205.301 265.6-.1.2h.3l.1-.1-.1-.1-.1-.1v-.2h-.2v.1l.1.2zm-.1 0v-.1h-.2l-.1.2h.3v-.1zm-2.5.5h-.2v.1h.1l.1-.1z"/><path d="M208.002 268.3a5.23 5.23 0 0 0-.3-1.8v-.1a4.816 4.816 0 0 0-1.2-1.8 5.013 5.013 0 0 0-5.841-.676 5.005 5.005 0 0 0-1.559 1.376c-.7.8-1 1.9-1 3a5 5 0 1 0 10 0h-.1zm-.9-2 .1.2h-.1v-.2zm-.7-.9v-.2l.2.2v.2h-.4l.2-.2zm-6-.5h.2-.3.1zm.1.2h.1-.2.1zm7 2h-.5l-.2-.2h-.2v.2l-.2-.1-.4-.1v-.3h-.5l-.2.2h-.5v.4l-.5.3v.2h.1v.5l.4.5h1.2v.4l.3.6-.2.3v.2l.2.1v.4l.1.2v.3h.2a4.602 4.602 0 0 1-7.937-1.487 4.595 4.595 0 0 1 .137-3.213v-.1l.2-.2c0-.1 0-.2.2-.3l-.2.3-.2.3v.3h.2v.5l.2.3h.1v-.1l-.1-.3.3.4v.1l.1.3h.6v.1h.1l.2.1.3.3h.3v.3l-.2.2v.4l.3.4v.2h.2l.3.2v1.2l.2.2v.4l.1.3.3.3h.3v-.1l-.2-.2v-.2l-.1-.1v-.4h.2l.2-.1.1-.2.3-.3v-.5h.3l.2-.1v-.6l.2-.2v-.2h-.1l-.1-.2h-.4l-.4-.2v-.4h-.4l-.1-.2-.2-.1h-.3l-.4-.1-.2.3-.3-.1v-.4h-.3v-.3l-.3.2h-.2l-.1-.2v-.2l.2-.2.2-.2h.6v.2h.2v-.4l.4-.1v-.2l.3-.3.3-.1.2-.2h.1l-.1-.1v-.1h.5v.1l.2.2v-.1l-.1-.1.1-.1v-.2l-.1-.1v-.3l-.3.1v-.2h-.5v.4h-.3v.2h-.2v-.2h-.2l-.1-.1v-.2l.4-.2h.4v-.1h.1v-.1h.1l.3-.1h.2l-.4.3h.7v-.4l-.5-.2h-.3l-.2.1v.3h-.1v-.2l.1-.1h-.4v.2h-.1l-.3.1v-.2h.2l.1-.1h-.4l-.1-.1h-.3l-.2.2h.2v.1h.2v.1h-.2l-.2-.1h-.4a4.6 4.6 0 0 1 5.8.2l-.3.2v.2l.1.2.2-.1v.2h-.4l-.1.2h-.3v.3h.1v.1h-.5v.4h.5l.3-.4h.3l.3.3h-.2l.1.1h.2v-.2l-.2-.1v-.2h.1l.3.2v.2l.1.2.1-.3h.1v.1l.2.2h.2l.1.3.1.1zm-6.7-1.5h.2v.1h-.2v-.1zm.6.3v.1h-.3v-.1h.3zm.1.2v.1h-.1v-.1h.1zm0 0v-.2.2zm0 .2v.1h-.2v-.1h.2zm-.4-.2h.2l-.2.3h-.1v-.2l.1-.1zm.6.1v.1h-.1v-.1h.1zm5.8 1v.2-.2z"/><path d="M198.801 266.4v.1l.2-.3-.2.2z"/></g><path d="M212.499 298c0-.6.1-1 .3-1.4.2-.4.5-.6 1-.9.3-.2.7-.3 1.2-.3s1 .2 1.4.4c.4.3.7.6.8 1h-1c0-.2-.2-.4-.4-.5l-.8-.2-.9.2-.6.7a2 2 0 0 0-.2 1c0 .3 0 .6.2.9a1.604 1.604 0 0 0 1.5.8c.3 0 .5 0 .8-.2.2-.1.4-.3.5-.6h1c-.2.5-.5.9-1 1.1-.3.3-.8.4-1.3.4s-.9-.1-1.3-.3a2.402 2.402 0 0 1-1.2-2.2v.1zm5.4.4c0-.4 0-.7.2-1a1.802 1.802 0 0 1 2.4-.8c.3.1.4.3.6.5v-.6h.8v3.9h-.8v-.6l-.6.4c-.2.2-.5.2-.8.2-.3 0-.6 0-.9-.2-.3-.2-.5-.4-.7-.8l-.2-1zm3.2 0c0-.2 0-.5-.2-.7a1.115 1.115 0 0 0-.294-.357 1.091 1.091 0 0 0-1.306-.043c-.2 0-.3.2-.4.4l-.2.7c0 .3 0 .5.2.7l.4.5a1.103 1.103 0 0 0 1.2 0l.4-.5.2-.7zm2.6-3.2v5.2h-.8v-5.2h.8zm4.6 3.1v.4h-3a.994.994 0 0 0 1.1 1c.5 0 .8-.1 1-.5h.8a1.7 1.7 0 0 1-1.8 1.2 1.803 1.803 0 0 1-1.7-1l-.2-1c0-.4 0-.7.2-1 .2-.3.4-.6.7-.7.301-.187.646-.29 1-.3.4 0 .7.1 1 .3.3.1.5.4.7.6l.2 1zm-.8-.2a1.003 1.003 0 0 0-.3-.7c-.3-.2-.5-.3-.8-.3a1.003 1.003 0 0 0-.7.3 1.01 1.01 0 0 0-.4.7h2.2zm3.5-1.7c.3 0 .6 0 .8.2.3.1.5.3.6.6l.2.9v2.3h-.8v-2.2c0-.3 0-.6-.2-.8a1.003 1.003 0 0 0-.7-.3 1.004 1.004 0 0 0-.8.3l-.2.8v2.2h-.8v-4h.8v.5l.5-.3.6-.2zm2.4 2c0-.4 0-.7.2-1a1.803 1.803 0 0 1 2.274-.914c.281.108.531.285.726.514v-1.8h.7v5.2h-.8v-.6l-.5.4c-.3.2-.5.2-.8.2a1.799 1.799 0 0 1-1.6-1c-.2-.3-.2-.6-.2-1zm3.1 0-.1-.7a1.115 1.115 0 0 0-.294-.357 1.091 1.091 0 0 0-1.306-.043c-.2 0-.3.2-.5.4l-.1.7.1.7.5.5a1.096 1.096 0 0 0 1.1 0l.5-.5.1-.7zm1.6 0c0-.4 0-.7.2-1a1.802 1.802 0 0 1 2.4-.8c.3.1.4.3.6.5v-.6h.8v3.9h-.8v-.6l-.6.4c-.2.2-.5.2-.8.2-.3 0-.6 0-.9-.2-.3-.2-.5-.4-.7-.8l-.2-1zm3.2 0c0-.2 0-.5-.2-.7a1.115 1.115 0 0 0-.294-.357 1.091 1.091 0 0 0-1.306-.043c-.2 0-.3.2-.4.4l-.2.7c0 .3 0 .5.2.7l.4.5a1.103 1.103 0 0 0 1.2 0l.4-.5.2-.7zm2.6-1.3.5-.5.7-.2v.9h-.2c-.3 0-.6 0-.7.2-.2.2-.3.4-.3.8v2h-.8v-3.8h.8v.6z" fill="#fff"/><mask id="e" style="mask-type:luminance" maskUnits="userSpaceOnUse" x="198" y="292" width="10" height="11"><path d="M198 292.4h10v10h-10v-10z" fill="#fff"/></mask><g mask="url(#e)"><path d="M207.1 293a.3.3 0 0 0 0 .6c.2 0 .3.1.3.3v1.6h-8.7v-1.6c0-.2.1-.3.3-.3a.3.3 0 0 0 0-.6.997.997 0 0 0-1 1v7.4c0 .5.5 1 1 1h8.1c.5 0 1-.5 1-1V294c0-.5-.5-1-1-1zm.3 8.4c0 .2-.1.3-.3.3H199a.3.3 0 0 1-.3-.3v-5.3h8.7v5.3zm-7.5-7.2c.2 0 .3-.1.3-.3v-1.2a.306.306 0 0 0-.088-.212.3.3 0 0 0-.489.097.306.306 0 0 0-.023.115v1.2c0 .2.1.3.3.3zm1.3 0c.1 0 .3-.1.3-.3v-1.2a.346.346 0 0 0-.103-.247.346.346 0 0 0-.494 0 .346.346 0 0 0-.103.247v1.2c0 .2.2.3.4.3zm1.2 0c.2 0 .3-.1.3-.3v-1.2a.301.301 0 0 0-.3-.3.3.3 0 0 0-.3.3v1.2c0 .2.1.3.3.3zm1.3 0c.1 0 .3-.1.3-.3v-1.2a.346.346 0 0 0-.103-.247.346.346 0 0 0-.494 0 .346.346 0 0 0-.103.247v1.2c0 .2.2.3.4.3zm1.2 0c.2 0 .3-.1.3-.3v-1.2a.301.301 0 0 0-.3-.3.3.3 0 0 0-.3.3v1.2c0 .2.1.3.3.3zm1.3 0c.1 0 .3-.1.3-.3v-1.2a.346.346 0 0 0-.103-.247.346.346 0 0 0-.494 0 .346.346 0 0 0-.103.247v1.2c0 .2.2.3.4.3zm-1.4 6a.504.504 0 0 1-.354-.146.504.504 0 0 1-.146-.354.301.301 0 0 0-.3-.3.3.3 0 0 0-.3.3.99.99 0 0 0 .952.758.997.997 0 0 0 .979-.723.998.998 0 0 0-.131-.835c.2-.2.3-.5.3-.8a1.098 1.098 0 0 0-1.702-.558 1.098 1.098 0 0 0-.398.558.303.303 0 0 0 .185.277.306.306 0 0 0 .23 0 .3.3 0 0 0 .185-.277.502.502 0 0 1 .598-.49.498.498 0 0 1 .364.681.5.5 0 0 1-.462.309.3.3 0 0 0 0 .6.5.5 0 0 1 0 1zm-4.6.3c0 .2.2.3.3.3h1.6a.3.3 0 0 0 0-.6h-1c0-.2.2-.4.4-.5.4-.5 1-1 1-1.6a1.149 1.149 0 1 0-2.3 0 .3.3 0 0 0 .6 0 .5.5 0 1 1 1 0c0 .3-.4.8-.8 1.1-.4.5-.8.9-.8 1.3z" fill="#fff"/></g><path d="M212.499 327c0-.5.1-1 .3-1.4.2-.3.5-.6 1-.8.3-.2.7-.4 1.2-.4s1 .2 1.4.4c.4.3.7.6.8 1.1h-1c0-.2-.2-.4-.4-.6l-.8-.2-.9.3-.6.6a2 2 0 0 0-.2 1c0 .3 0 .6.2.9a1.604 1.604 0 0 0 1.5.8c.3 0 .5 0 .8-.2.2 0 .4-.3.5-.5h1c-.2.4-.5.8-1 1-.3.3-.8.4-1.3.4s-.9 0-1.3-.3a2.402 2.402 0 0 1-1.2-2.2v.1zm9.2-1.5v3.9h-.8v-.5l-.5.4-.7.1c-.3 0-.5 0-.8-.2-.2 0-.4-.3-.6-.5l-.2-1v-2.2h.8v2.2c0 .3.1.6.3.8l.7.2c.3 0 .5 0 .7-.2.2-.2.3-.5.3-.8v-2.2h.8zm2.4 4a1.985 1.985 0 0 1-.8-.2l-.6-.5-.2-.6h.8c0 .2.1.3.3.4l.5.2c.2 0 .4 0 .5-.2.2 0 .2-.2.2-.3 0-.1 0-.3-.2-.3l-.6-.3-.8-.2-.4-.3a.997.997 0 0 1-.2-.6c0-.2 0-.4.2-.6 0-.2.3-.3.5-.4l.8-.1c.4 0 .8 0 1 .3.3.2.4.5.5.9h-.8c0-.2-.1-.3-.3-.4a.801.801 0 0 0-.5-.2l-.5.1-.1.4v.2l.4.2.4.1.7.3c.2 0 .4.2.5.3l.2.6c0 .2 0 .4-.2.6l-.5.4-.8.1v.1zm3.3-3.3v2.4l.4.1h.5v.7h-.6c-.4 0-.6-.1-.8-.3-.2-.1-.3-.4-.3-.8v-2.1h-.5v-.7h.5v-1h.8v1h1v.7h-1zm3.3 3.2a2 2 0 0 1-1-.2c-.2-.2-.5-.4-.6-.7-.2-.3-.3-.7-.3-1 0-.5 0-.8.3-1.1.1-.3.4-.5.7-.7a2 2 0 0 1 1-.2c.3 0 .7 0 1 .2l.7.7c.2.3.2.6.2 1s0 .8-.2 1c-.2.4-.4.6-.8.8-.31.152-.655.221-1 .2zm0-.7a1.202 1.202 0 0 0 1-.5c.2-.2.2-.5.2-.8l-.1-.7a1.002 1.002 0 0 0-.5-.4l-.5-.2c-.2 0-.4 0-.6.2a1 1 0 0 0-.4.4l-.2.7c0 .5.1.8.3 1 .2.2.5.3.8.3zm7.5-3.2.8.1.6.6.2.9v2.3h-.8v-2.2c0-.3 0-.6-.3-.8a1.003 1.003 0 0 0-.7-.3 1.003 1.003 0 0 0-.7.3c-.2.2-.2.5-.2.8v2.2h-.8v-2.2c0-.3-.1-.6-.3-.8a1.003 1.003 0 0 0-.7-.3 1.003 1.003 0 0 0-.7.3c-.2.2-.3.5-.3.8v2.2h-.8v-3.9h.8v.5l.5-.4.7-.1.8.1.6.6c0-.2.3-.4.5-.5.2-.2.5-.2.8-.2zm6.1 1.9v.3h-3c0 .4.2.6.4.8.2.2.5.3.8.3.4 0 .7-.2.9-.6h.8c0 .4-.3.7-.6.9-.3.2-.7.3-1.1.3a1.803 1.803 0 0 1-1.7-1c-.2-.2-.3-.6-.3-1s.1-.7.3-1c.1-.3.4-.5.7-.7a2 2 0 0 1 1-.2c.3 0 .7 0 1 .2l.6.7c.2.2.2.6.2 1zm-.8-.3c0-.3-.1-.5-.3-.7-.2-.2-.5-.3-.8-.3a1.003 1.003 0 0 0-.7.3 1.003 1.003 0 0 0-.3.7h2.1zm2.4-1 .5-.5.7-.1v.8h-.2c-.3 0-.6 0-.7.2-.2.2-.3.5-.3.8v2h-.8v-3.8h.8v.6zm3.3 3.3a2.01 2.01 0 0 1-.8-.1l-.6-.5-.2-.6h.8c0 .2.1.3.3.4l.5.2c.2 0 .4 0 .5-.2l.2-.3c0-.1 0-.3-.2-.3l-.7-.3-.7-.2-.4-.3a.997.997 0 0 1-.2-.6l.1-.6.6-.4.7-.1c.5 0 .8 0 1.1.3.3.2.4.5.4.9h-.8c0-.2 0-.3-.2-.4a.801.801 0 0 0-.5-.2l-.5.1-.1.4v.2l.4.2.4.1.7.3c.2 0 .4.2.5.3l.2.6c0 .2 0 .4-.2.6l-.5.4-.8.1z" fill="#fff"/><mask id="f" style="mask-type:luminance" maskUnits="userSpaceOnUse" x="198" y="322" width="10" height="10"><path d="M198 322.4h10v9h-10v-9z" fill="#fff"/></mask><g mask="url(#f)"><path d="M202.4 323.3c-.3 0-.4.3-.4.5s.2.4.4.6l.4.4.2.2.2-.1c.6-.5.8-.8.8-1 0-.3 0-.5-.3-.6h-.6v.1h-.1a.602.602 0 0 0-.6-.1zm-2.7 2.2a1.003 1.003 0 0 0-.843.871c-.017.145-.002.291.043.429 0 .2 0 .3.3.5.2.2.4.3.7.3l.6-.1.4-.5c.3-.4.2-1-.2-1.3-.2-.2-.6-.3-1-.2zm.4.7c.2.1.3.4.1.6h-.4a.305.305 0 0 1-.189-.222.31.31 0 0 1 .008-.151.31.31 0 0 1 .081-.127c0-.1.3-.2.4 0v-.1zm2.7-.7-.5.2a.995.995 0 0 0-.4.8c0 .3.1.5.4.8.2.2.4.3.7.3.3 0 .6-.1.8-.3.3-.3.4-.5.3-.8a1.004 1.004 0 0 0-.3-.8c-.3-.2-.6-.3-1-.2zm.4.7.2.2c0 .3-.2.6-.5.4a.398.398 0 0 1-.2-.5c.1-.1.4-.2.5 0v-.1zm2.7-.7c-.3 0-.6.2-.7.5a1 1 0 0 0 0 1c0 .2.2.4.4.5h.5c.3 0 .6 0 .8-.2l.3-.5a.995.995 0 0 0-.131-.871 1.003 1.003 0 0 0-.769-.429.998.998 0 0 0-.4 0zm.4.7.2.2c0 .3-.2.5-.5.4-.2 0-.2-.1-.2-.3 0-.2.2-.4.5-.3zm-6.7 2.1a2.001 2.001 0 0 0-1.3 1c-.2.2-.3.6-.3.8l.2.4h9.6l.2-.1c.1-.2 0-.8-.2-1.2a2.003 2.003 0 0 0-1-.8h-1.5l-.6.5-.1.1-.2-.1-.5-.4c-.3-.2-.5-.2-.9-.2-.3 0-.5 0-.8.2-.2 0-.4.2-.6.4l-.1.1-.1-.1a1.893 1.893 0 0 0-1.4-.6h-.4zm.6.7.8.6v.2h-2.2l.1-.2.5-.5c.3 0 .5-.1.8 0v-.1zm3 0c.4.1.7.4.9.6v.2H202v-.2a1.205 1.205 0 0 1 1.4-.6h-.2zm3.2 0 .8.6v.2H205v-.2l.6-.5c.2 0 .5-.1.8 0v-.1z" fill="#fff"/></g><path d="m214.202 358.4-1-.1-.5-.5c-.2-.2-.3-.5-.3-.7h.9c0 .2 0 .3.2.5l.7.2c.2 0 .5 0 .6-.2.2-.2.2-.3.2-.5l-.1-.4a.999.999 0 0 0-.4-.3l-.6-.2-.7-.2-.5-.4c-.2-.2-.2-.4-.2-.7-.02-.273.046-.546.189-.78.144-.233.358-.415.611-.52l.8-.1c.5 0 .9 0 1.2.3.3.3.5.6.5 1h-.9c0-.2 0-.3-.2-.5a.998.998 0 0 0-.7-.2l-.5.2c-.2.1-.2.3-.2.5l.1.4.3.2.6.2c.3 0 .6.2.8.3.2 0 .4.2.5.4.2.2.2.4.2.7 0 .3 0 .5-.2.7 0 .2-.3.4-.5.5-.31.152-.655.221-1 .2h.1zm6.1-2v.4h-3a1 1 0 0 0 1.1 1c.5 0 .8-.2 1-.6h.8a1.698 1.698 0 0 1-1.8 1.3 1.803 1.803 0 0 1-1.7-1l-.2-1c0-.4.1-.8.3-1 .1-.4.3-.6.6-.8a2 2 0 0 1 1-.2c.4 0 .7 0 1 .2l.7.7.2 1zm-.8-.3a.995.995 0 0 0-.3-.7c-.2-.2-.5-.3-.8-.3a1.005 1.005 0 0 0-.7.3 1.003 1.003 0 0 0-.3.7h2.1zm2.4-1 .5-.5.7-.1v.8h-.2c-.4 0-.6 0-.8.2l-.2.9v2h-.8v-3.9h.8v.6zm3.4 2.6 1-3.2h1l-1.6 3.9h-.9l-1.5-3.9h.9l1 3.2h.1zm3-3.7-.4-.1a.51.51 0 0 1-.2-.4c0-.1 0-.3.2-.3l.3-.2c.2 0 .3 0 .4.2l.1.3-.1.4-.4.1h.1zm.3.5v3.9h-.8v-3.9h.8zm.8 2c0-.4 0-.8.2-1 .2-.4.4-.6.7-.8a2 2 0 0 1 1-.2c.5 0 .8 0 1.1.3.4.2.6.5.7 1h-.9a.994.994 0 0 0-.3-.5.997.997 0 0 0-1.4.2c-.2.2-.3.5-.3 1 0 .4.1.7.3 1 .2.2.5.3.8.3.5 0 .8-.2 1-.6h.8c-.1.4-.4.7-.7 1-.3.1-.6.3-1.1.3a1.803 1.803 0 0 1-1.7-1l-.2-1zm8-.1v.4h-3a1 1 0 0 0 1.1 1c.5 0 .8-.2 1-.6h.8a1.698 1.698 0 0 1-1.8 1.3 1.803 1.803 0 0 1-1.7-1l-.2-1c0-.4 0-.8.2-1 .2-.4.4-.6.7-.8a2 2 0 0 1 1-.2c.4 0 .7 0 1 .2l.7.7.2 1zm-.8-.3a.995.995 0 0 0-.3-.7c-.3-.2-.5-.3-.8-.3a1.005 1.005 0 0 0-.7.3 1.008 1.008 0 0 0-.4.7h2.2zm5 2.3-.9-.1-.6-.5-.2-.7h.8c0 .2.1.3.3.5l.6.2c.3 0 .5 0 .7-.2l.2-.5c0-.2 0-.3-.2-.4a.987.987 0 0 0-.3-.3c-.2 0-.4 0-.6-.2l-.8-.2-.5-.4-.2-.7c-.02-.273.046-.546.189-.78.144-.233.358-.415.611-.52l.9-.1c.4 0 .8 0 1.1.3.3.3.5.6.5 1h-.8c0-.2-.1-.3-.3-.5a.997.997 0 0 0-.6-.2l-.6.2-.2.5.1.4.4.2.6.2c.3 0 .6.2.8.3.2 0 .3.2.5.4l.2.7c0 .3 0 .5-.2.7-.1.2-.3.4-.6.5a2 2 0 0 1-.9.2zm6.2-2v.4h-3a1.002 1.002 0 0 0 1 1c.5 0 .8-.2 1-.6h.9a1.698 1.698 0 0 1-1.8 1.3 1.803 1.803 0 0 1-1.7-1c-.2-.3-.2-.6-.2-1s0-.8.2-1c.2-.4.4-.6.7-.8a2 2 0 0 1 1-.2c.4 0 .7 0 1 .2.2.2.5.4.6.7.2.3.3.6.3 1zm-.9-.3a.995.995 0 0 0-.3-.7c-.2-.2-.4-.3-.7-.3a.998.998 0 0 0-.8.3 1.003 1.003 0 0 0-.3.7h2.1zm2.6-1v2.5l.4.1h.5v.7h-.6c-.4 0-.6 0-.8-.3-.2-.1-.3-.4-.3-.8v-2.1h-.5v-.7h.5v-1h.8v1h1v.7h-1v-.1zm5.1-.6v3.9h-.8v-.5c0 .2-.2.3-.4.4l-.7.2-.8-.2-.6-.6-.2-.9v-2.3h.8v2.2c0 .3.1.6.3.8.1.2.4.3.7.3.3 0 .5-.1.7-.3.2-.2.3-.5.3-.8v-2.2h.7zm1.9.6c.1-.2.3-.3.6-.4.2-.2.4-.2.7-.2.4 0 .7 0 1 .2.2.2.5.4.6.7.2.3.3.7.3 1 0 .4-.1.8-.3 1-.1.4-.4.6-.6.8-.3.2-.6.3-1 .3a1.695 1.695 0 0 1-1.3-.7v2.4h-.8v-5.7h.8v.6zm2.3 1.3-.1-.6a1.102 1.102 0 0 0-1.172-.576 1.117 1.117 0 0 0-.428.176c-.2 0-.3.2-.4.4l-.2.7c0 .2 0 .5.2.7 0 .2.2.3.4.4a1.097 1.097 0 0 0 1.1 0l.5-.5.1-.7z" fill="#fff"/><mask id="g" style="mask-type:luminance" maskUnits="userSpaceOnUse" x="199" y="350" width="10" height="11"><path d="M199 350.4h10v10h-10v-10z" fill="#fff"/></mask><g fill="#fff" mask="url(#g)"><path d="M208.6 358.6c0 .3-.3.6-.6.6h-6.4l-.2-.2v-.4l.1-.1v-7c0-.4.4-.6.7-.6h5.8c.3 0 .6.2.6.6v7.1zm-7.5-1.2v1l-.2.6-.2.2-.7-.1-.2-.3v-.1l-.3-1v-4.2s0-.8.6-.8h.9l.1.2v4.5zm7.2-7h-6.5c-.4 0-.7.3-.7.7v1l-.1.1h-1.1c-.6 0-.8.5-.9.7v5.1s0 .5.2.8l.2.4c.2.2.4.4.6.4l.7.1h7.7c.4 0 .6-.3.6-.7v-7.9c0-.4-.3-.7-.7-.7z"/><path d="M202.8 352.5h4.5s.4 0 .4.2c0 .1 0 .2-.4.2h-4.5s-.2 0-.2-.2c0-.1 0-.2.2-.2zm0 1.1h4.5s.4 0 .4.3c0 0 0 .2-.4.2h-4.5s-.2 0-.2-.2c0-.1 0-.3.2-.3zm0 1.2h4.5s.3 0 .3.3c0 0 0 .2-.3.2h-4.5s-.3 0-.3-.2.1-.3.3-.3zm0 1.2h4.5s.3 0 .3.2c0 0 0 .2-.3.2h-4.5s-.3 0-.3-.2c0-.1.1-.2.3-.2zm0 1.1h4.5s.3 0 .3.3c0 0 0 .2-.3.2h-4.5s-.3 0-.3-.2c0-.1.1-.3.3-.3z"/></g><path d="M216 382.6v.6h-1.4v4.2h-.8v-4.2h-1.3v-.6h3.5zm4.2 2.8v.4h-3l.4.7c.2.2.5.3.8.3.4 0 .7-.2.9-.5h.8c0 .3-.3.6-.6.8-.3.3-.7.4-1.1.4a1.803 1.803 0 0 1-1.7-1c-.2-.3-.3-.6-.3-1s.1-.8.3-1c.1-.4.4-.6.7-.8.31-.152.655-.221 1-.2.3 0 .7 0 1 .2.2.2.5.4.6.7.2.3.2.6.2 1zm-.8-.3c0-.3 0-.5-.3-.7l-.8-.2a1 1 0 0 0-.7.2 1.003 1.003 0 0 0-.3.7h2.1zm1.4.4c0-.4 0-.8.2-1a1.8 1.8 0 0 1 1.6-1c.3 0 .6 0 .8.2l.5.4v-.5h.8v3.8h-.8v-.6l-.5.5-.8.2c-.4 0-.7-.1-1-.3l-.6-.7c-.2-.3-.2-.6-.2-1zm3.1 0-.1-.7a1.097 1.097 0 0 0-1-.6l-.6.1-.5.5-.1.7.1.7.5.4a1.095 1.095 0 0 0 1.1 0c.2 0 .3-.2.5-.4l.1-.7zm6.5-2c.3 0 .6 0 .9.2l.5.5c.2.3.2.6.2 1v2.2h-.8v-2.1c0-.4 0-.6-.2-.8a1.003 1.003 0 0 0-.7-.3 1.003 1.003 0 0 0-.7.3c-.2.2-.3.4-.3.8v2.1h-.8v-2.1c0-.4 0-.6-.2-.8a1.004 1.004 0 0 0-.8-.3 1.003 1.003 0 0 0-.7.3l-.2.8v2.1h-.8v-3.8h.8v.4l.5-.4.6-.1c.3 0 .6 0 .8.2.3.1.5.3.6.6.1-.3.3-.5.5-.6l.8-.2z" fill="#fff"/><mask id="h" style="mask-type:luminance" maskUnits="userSpaceOnUse" x="198" y="380" width="10" height="10"><path d="M198 380.4h10v9h-10v-9z" fill="#fff"/></mask><g fill="#fff" mask="url(#h)"><path d="M202.802 380.4a.903.903 0 0 0-.7.7v1.3h.1v.5l-.8.6-.3.3v.9h.3v-.4c0-.4 0-.3.2-.4.305-.271.64-.506 1-.7v-1.1l-.1-.4v-.6l.2-.2h.6l.2.2v2.1h.1c.36.232.695.5 1 .8v.6l.2.1h.2v-.8c0-.1 0-.2-.2-.3-.1-.2-.5-.4-1-.7v-.5l.2-.3v-1c-.1-.3-.3-.5-.5-.6h-.7v-.1z"/><path d="M203 384.5h-.1v1h-.1a.6.6 0 0 0-.4.7l-.4.3a6.483 6.483 0 0 0-.4.2v.4h.3l.4-.2.3-.3c.3.2.6.3.8.1.368.096.735.196 1.1.3v-.2l-.4-.3-.4-.2v-.1c0-.2 0-.4-.2-.6h-.2v-1.1h-.3zm.1 1.4.2.2c0 .2-.1.3-.3.3l-.2-.3.2-.2h.1zm-3.3-.8c-.3 0-.5.2-.6.5l-.1.7v.8h.1v.5l-1 .7-.2.3v.7a.2.2 0 0 0 .341.142.2.2 0 0 0 .059-.142v-.6l.2-.2a5.477 5.477 0 0 1 1-.6v-1l-.1-.6v-.4l.1-.2.4-.2h.3l.2.3v1l-.1.6v.4l.3.2.9.6v.7c0 .1.2.2.3 0v-.7c0-.2 0-.3-.2-.4l-.8-.5h-.1v-.6l.1-.2v-1.1a.897.897 0 0 0-.6-.7h-.5zm6 0c-.2 0-.4.2-.5.4l-.2.2v1.2l.1.2v.5l-1 .7v.1l-.1.6v.3l.2.1h.1v-.4l.1-.4 1-.6.1-.2v-2l.3-.3h.2c.2 0 .2 0 .3.2l.2.2v.9c-.2.1-.2.1-.2.6v.4l.2.2 1 .6v.7l.1.1h.3v-.8l-.1-.3-1-.7v-1.7c0-.4-.3-.7-.6-.8h-.5z"/></g><g><path d="M213.601 415.8h1.6v.6h-2.4v-4.8h.8v4.2zm4 .7a1.997 1.997 0 0 1-1-.2c-.3-.2-.6-.4-.7-.7-.2-.3-.3-.7-.3-1 0-.5.1-.8.3-1.1.1-.3.4-.6.7-.7.301-.187.646-.29 1-.3.3 0 .7.1 1 .3.3.1.5.4.7.7.2.3.2.6.2 1s0 .7-.2 1c-.2.4-.4.6-.7.8a2 2 0 0 1-1 .2zm0-.7a1.203 1.203 0 0 0 1-.6l.1-.7-.1-.7a1.006 1.006 0 0 0-.5-.4l-.5-.2c-.2 0-.4 0-.6.2a1 1 0 0 0-.4.4l-.2.7c0 .4.1.7.3 1 .3.2.5.3.8.3h.1zm2.5-1.3c0-.4 0-.7.2-1 .2-.3.4-.6.7-.7.301-.187.646-.29 1-.3.4 0 .8.1 1.1.4.3.2.5.5.6.9h-.8a1 1 0 0 0-.4-.4 1.002 1.002 0 0 0-.5-.2 1.004 1.004 0 0 0-.8.3c-.2.3-.3.6-.3 1s0 .7.3 1c.2.2.4.3.8.3s.7-.2.9-.6h.8c0 .4-.3.7-.6 1-.3.2-.7.3-1.1.3a1.803 1.803 0 0 1-1.7-1c-.2-.2-.2-.6-.2-1zm4.2 0c0-.4 0-.7.2-1a1.8 1.8 0 0 1 1.6-1c.3 0 .6 0 .8.2l.5.4v-.5h.8v3.8h-.8v-.5l-.5.4-.8.2c-.4 0-.7 0-1-.3l-.6-.7c-.2-.3-.2-.6-.2-1zm3.1 0-.1-.7a1.104 1.104 0 0 0-1-.6c-.3 0-.4 0-.6.2-.2 0-.3.2-.5.4l-.1.7.1.7.5.5a1.096 1.096 0 0 0 1.1 0l.5-.5.1-.7zm2.8-1.3v2.2l.1.3h.8v.7h-.6c-.3 0-.6 0-.8-.2-.2-.2-.3-.5-.3-.8v-2.2h-.5v-.6h.5v-1h.8v1h1v.6h-1zm2-1.1s-.2 0-.3-.2a.499.499 0 0 1-.1-.3l.1-.4.4-.2.3.2.2.4c0 .1 0 .2-.2.3l-.3.2h-.1zm.5.5v3.8h-.8v-3.8h.8zm2.7 3.9a1.997 1.997 0 0 1-1-.2l-.7-.7-.2-1c0-.5 0-.8.2-1.1.2-.3.4-.6.7-.7.301-.187.646-.29 1-.3.4 0 .7.1 1 .3.3.1.6.4.7.7.2.3.3.6.3 1s0 .7-.3 1c-.1.4-.4.6-.7.8a2 2 0 0 1-1 .2zm0-.7a1.203 1.203 0 0 0 1-.6l.2-.7c0-.3 0-.5-.2-.7a1 1 0 0 0-.4-.4l-.6-.2c-.2 0-.4 0-.6.2a1 1 0 0 0-.4.4l-.1.7c0 .4 0 .7.3 1 .2.2.5.3.8.3zm4.7-3.3c.3 0 .6 0 .8.2.3.1.5.3.6.6.2.2.2.5.2.9v2.2h-.8v-2.1c0-.4 0-.6-.2-.8a1.003 1.003 0 0 0-.7-.3 1.004 1.004 0 0 0-.8.3l-.2.8v2.1h-.8v-3.8h.8v.4c.1-.1.3-.3.5-.3l.6-.2zm4 4a1.985 1.985 0 0 1-.8-.2c-.2 0-.4-.2-.5-.4l-.3-.6h.9c0 .1 0 .3.2.4l.5.1.5-.1c.2 0 .2-.2.2-.3 0-.2 0-.3-.2-.4l-.6-.2-.7-.2c-.2 0-.4-.2-.5-.4a.997.997 0 0 1-.2-.6c0-.2 0-.4.2-.5 0-.2.3-.3.5-.4l.8-.2c.4 0 .8.1 1 .4.3.2.4.5.5.9h-.8l-.2-.5a.8.8 0 0 0-.6-.1l-.4.1-.2.3.1.3.3.2.5.1.6.2.5.4.2.6c0 .2 0 .4-.2.5 0 .2-.3.4-.5.5l-.8.1z" fill="#fff"/><mask id="i" style="mask-type:luminance" maskUnits="userSpaceOnUse" x="198" y="408" width="10" height="11"><path d="M198 408.4h10v10h-10v-10z" fill="#fff"/></mask><g fill="#fff" mask="url(#i)"><path d="m206.801 418-1.4-2.7v-.1l-.7-.3 1-2h.1a3 3 0 0 0-.6-3.6 3.008 3.008 0 0 0-2.2-.96 3 3 0 0 0-2.2.96 3.005 3.005 0 0 0-.5 3.7l1.1 1.9-.7.3v.1l-1.4 2.8v.3h.3l1.7-.7 1.6.7h.2l1.7-.7 1.6.7a.197.197 0 0 0 .232.05.185.185 0 0 0 .068-.05v-.3l.1-.1zm-6.1-5.3c-.2-.3-.3-.7-.3-1.2 0-1.4 1.2-2.5 2.6-2.6a2.594 2.594 0 0 1 1.94.76 2.594 2.594 0 0 1 .76 1.94c0 .4-.1.8-.3 1.1l-2.2 3.6-.2.1-.2-.1-2.1-3.6zm4.2 4.5h-.2l-1.7.7-1.6-.7h-.2l-1.2.5 1-2.1.7-.3.7 1.3c.1.2.4.3.6.3.3 0 .5-.1.7-.3l.7-1.3.6.3 1 2.1-1.1-.5z"/><path d="M203.002 410.4a1.151 1.151 0 0 0-.814 1.963 1.151 1.151 0 0 0 1.627-1.626 1.149 1.149 0 0 0-.813-.337zm0 1.8a.65.65 0 1 1-.002-1.298.65.65 0 0 1 .002 1.298z"/></g></g><g><path d="M214.999 445.5c-.5 0-.9-.1-1.3-.3a2.402 2.402 0 0 1-1.2-2.2c0-.5.1-.9.3-1.3.2-.3.5-.6 1-.8.3-.3.7-.4 1.2-.4a2.498 2.498 0 0 1 2.1 1.2c.3.4.4.8.4 1.3s-.1 1-.4 1.3c-.2.4-.5.7-.9.9-.3.2-.8.3-1.2.3zm0-.7c.3 0 .6 0 .8-.2.3-.1.5-.4.6-.6.2-.3.2-.6.2-1 0-.3 0-.7-.2-1l-.6-.6-.8-.2-.9.3-.6.6a2 2 0 0 0-.2 1c0 .3 0 .6.2.9a1.604 1.604 0 0 0 1.5.8zm5.2-3.3.8.2.6.6.2.9v2.3h-.8v-2.2c0-.3-.1-.6-.3-.8a1.003 1.003 0 0 0-.7-.3 1.003 1.003 0 0 0-.7.3c-.2.2-.3.5-.3.8v2.2h-.7v-3.9h.7v.4l.5-.3.7-.2zm3.4-1.2v5.2h-.8v-5.2h.8zm1.4.8c-.1 0-.2 0-.3-.2a.5.5 0 0 1-.2-.3c0-.2 0-.3.2-.4l.3-.1.4.1.2.4-.2.3-.4.2zm.4.5v3.9h-.8v-3.9h.8zm3 0 .8.1c.3.2.5.3.6.6l.2.9v2.3h-.8v-2.2c0-.3 0-.6-.2-.8a1.003 1.003 0 0 0-.7-.3 1.004 1.004 0 0 0-.8.3l-.2.8v2.2h-.8v-3.9h.8v.4l.5-.3.6-.2v.1zm6.2 1.8v.4h-3a.997.997 0 0 0 1 1c.5 0 .8-.1 1-.5h.9a1.7 1.7 0 0 1-1.8 1.2 1.803 1.803 0 0 1-1.7-1c-.2-.2-.2-.6-.2-1s0-.7.2-1c.2-.3.4-.6.7-.7.301-.187.646-.29 1-.3.4 0 .7.1 1 .3.3.1.5.4.6.7.2.2.3.6.3 1v-.1zm-.9-.2a1.003 1.003 0 0 0-.3-.7c-.2-.2-.4-.3-.7-.3a1.003 1.003 0 0 0-.7.3.998.998 0 0 0-.4.7h2.1zm6-.2c.3 0 .6.1.7.4.2.2.3.5.3.8 0 .2 0 .4-.2.6l-.5.5a2 2 0 0 1-.9.2h-2v-4.9h2c.3 0 .5 0 .8.2.2 0 .4.2.5.4l.2.6c0 .3 0 .6-.2.7l-.6.5h-.1zm-1.7-.4h1l.6-.1.2-.6c0-.2 0-.3-.2-.5a.9.9 0 0 0-.6-.2h-1v1.4zm1 2.2c.3 0 .5 0 .7-.2l.2-.5c0-.3 0-.5-.2-.6a1 1 0 0 0-.7-.2h-1v1.5h1zm4.3.7a2 2 0 0 1-1-.2c-.3-.2-.6-.4-.7-.7-.2-.3-.3-.7-.3-1 0-.5.1-.8.3-1.1.2-.3.4-.6.7-.7.301-.187.646-.29 1-.3.4 0 .7.1 1 .3.3.1.5.4.7.7.2.3.3.6.3 1s-.1.8-.3 1c-.2.4-.4.6-.7.8-.31.152-.655.221-1 .2zm0-.7a1.203 1.203 0 0 0 1-.6l.1-.7-.1-.7a1.002 1.002 0 0 0-.5-.4l-.5-.2c-.2 0-.4 0-.6.2a1 1 0 0 0-.4.4l-.2.7c0 .4.1.8.3 1 .3.2.5.3.9.3zm4.4.7a2 2 0 0 1-1-.2l-.7-.7-.2-1c0-.5 0-.8.2-1.1.2-.3.5-.6.8-.7.301-.187.646-.29 1-.3.3 0 .7.1 1 .3.3.1.5.4.7.7l.2 1c0 .4 0 .8-.2 1-.2.4-.5.6-.8.8-.31.152-.655.221-1 .2zm0-.7a1.203 1.203 0 0 0 1-.6l.2-.7c0-.3 0-.5-.2-.7a1 1 0 0 0-.4-.4l-.6-.2c-.2 0-.4 0-.5.2a1 1 0 0 0-.4.4l-.2.7c0 .4.1.8.3 1 .2.2.5.3.8.3zm4.3-1.3 1.8 2h-1l-1.5-1.7v1.7h-.8v-5.2h.8v3l1.4-1.7h1.1l-1.8 2v-.1zm2.8-2.4c-.2 0-.3 0-.4-.2a.499.499 0 0 1-.1-.3l.1-.4.4-.1.3.1.2.4c0 .1 0 .2-.2.3l-.3.2zm.4.5v3.9h-.8v-3.9h.8zm3 0 .8.1.6.6.2.9v2.3h-.8v-2.2c0-.3-.1-.6-.3-.8a1.003 1.003 0 0 0-.7-.3 1.003 1.003 0 0 0-.7.3c-.2.2-.3.5-.3.8v2.2h-.8v-3.9h.8v.4l.5-.3.7-.2v.1zm4.1 0a1.7 1.7 0 0 1 1.4.6v-.6h.8v4l-.3.9c-.1.2-.3.5-.6.6-.301.187-.646.29-1 .3-.5 0-1-.2-1.3-.4-.4-.2-.6-.6-.6-1h.8c0 .2.2.4.4.5l.7.2c.3 0 .6-.1.8-.3.2-.2.3-.5.3-.9v-.6a1.703 1.703 0 0 1-1.4.6 1.799 1.799 0 0 1-1.6-1l-.2-1c0-.4 0-.7.3-1a1.797 1.797 0 0 1 1.5-1v.1zm1.4 2c0-.3 0-.6-.2-.8a1.097 1.097 0 0 0-1-.6c-.2 0-.4 0-.6.2-.2 0-.3.2-.4.4l-.2.7c0 .3 0 .5.2.7l.4.5a1.103 1.103 0 0 0 1.2 0l.4-.5.2-.7v.1z" fill="#fff"/><path d="M201.6 441.7c0-.5.4-1.2 1.7-1.2m2.7 6h-6.4c-.5 0-1.6-.5-1.6-2.2 0-1.7 1.8-2.5 2.7-2.7 0-.7.5-2.1 2.6-2.1s2.6 1.8 2.6 2.7c.7 0 2.1.4 2.1 2.1 0 1.7-1.4 2.2-2 2.2z" stroke="#fff" stroke-width=".5" stroke-linecap="round"/></g><g fill="#fff"><path d="m214.198 474.5-1-.1-.5-.5c-.2-.2-.3-.5-.3-.8h.9c0 .2 0 .4.2.6l.7.2.6-.2c.2-.2.2-.3.2-.6l-.1-.4a1 1 0 0 0-.4-.2 5.024 5.024 0 0 0-.6-.2l-.7-.2-.5-.4c-.2-.2-.2-.5-.2-.8a1.3 1.3 0 0 1 .8-1.2l.8-.1c.5 0 .9 0 1.2.3.3.2.5.6.5 1h-.9c0-.2 0-.4-.2-.5a.997.997 0 0 0-.7-.2c-.2 0-.4 0-.5.2-.2.1-.2.3-.2.5l.1.4.3.2.6.2c.3 0 .6.2.8.3.2 0 .4.2.5.4.2.2.2.4.2.7 0 .3 0 .5-.2.7 0 .2-.3.4-.5.5-.31.152-.655.221-1 .2h.1zm6.1-2v.4h-3a1.017 1.017 0 0 0 .328.745 1 1 0 0 0 .772.255c.5 0 .8-.2 1-.6h.8a1.804 1.804 0 0 1-.699.901 1.805 1.805 0 0 1-1.101.299 1.805 1.805 0 0 1-1.7-1l-.2-1c0-.3.1-.7.3-1 .1-.3.3-.5.6-.7a2 2 0 0 1 1-.2c.4 0 .7 0 1 .2l.7.7.2 1zm-.8-.3a.995.995 0 0 0-.3-.7c-.2-.2-.5-.3-.8-.3a1.005 1.005 0 0 0-.7.3 1.003 1.003 0 0 0-.3.7h2.1zm2.5-1v2.2l.1.3.4.1h.5v.7h-.7c-.3 0-.6-.1-.8-.3-.2-.1-.3-.4-.3-.8v-2.1h-.4v-.7h.4v-1h.8v1h1v.7h-1v-.1zm5.2-.6v3.9h-.8v-.5l-.5.4-.6.1-.9-.1-.5-.6c-.2-.3-.2-.6-.2-1v-2.2h.8v2.2c0 .3 0 .6.2.8.2.2.4.2.7.2.3 0 .6 0 .7-.2.2-.2.3-.5.3-.8v-2.2h.8zm1.9.6c0-.2.3-.3.5-.5l.8-.1c.3 0 .6 0 1 .2l.6.7.2 1c0 .4 0 .8-.2 1-.2.4-.4.6-.7.8-.3.2-.6.2-.9.2a1.704 1.704 0 0 1-1.3-.6v2.4h-.8v-5.7h.8v.6zm2.3 1.3c0-.2 0-.5-.2-.6a.991.991 0 0 0-.4-.5l-.6-.1a1.1 1.1 0 0 0-1 .6l-.1.7.1.7.4.4a1.103 1.103 0 0 0 1.2 0l.4-.5.2-.7zM208.5 470.4h-.7c0-.3-.1-.5-.3-.8l.5-.5c.1-.3.1-.6-.1-.8l-.6-.7a.601.601 0 0 0-.8 0l-.6.4a4.043 4.043 0 0 0-.7-.3l-.1-.7c0-.3-.3-.5-.6-.5h-1c-.2 0-.5.2-.5.5l-.2.7-.6.3-.6-.4a.601.601 0 0 0-.8 0l-.6.7c-.2.2-.3.5-.1.8l.4.6a3.953 3.953 0 0 0-.3.6l-.7.2c-.3 0-.5.3-.5.6v.8c0 .4.2.6.5.7h.8l.2.8-.4.5c-.1.3-.1.6.1.8l.6.7a.596.596 0 0 0 .8 0l.6-.4.7.3v.7c.1.3.4.5.7.5h.9c.3 0 .5-.2.6-.5l.1-.7.7-.3.6.4a.596.596 0 0 0 .8 0l.6-.7c.2-.2.2-.5 0-.8l-.4-.6.3-.6.7-.2c.3 0 .5-.3.5-.6v-.9c0-.3-.2-.5-.5-.6zm0 1.5-1 .2-.2.2-.3 1c-.1 0 0 .1 0 .2l.5.7v.1l-.6.6h-.1l-.7-.5h-.3l-1 .4-.1.2-.2.9h-1l-.1-.9-.2-.2-.9-.4a.303.303 0 0 0-.3 0l-.7.6-.7-.7.5-.8v-.3c-.1-.2-.3-.5-.3-.8l-.3-.2-.9-.2v-1l1-.1.1-.2.4-1v-.2l-.5-.8.6-.7.8.6h.3l.9-.4.2-.2.1-1h1l.2 1s0 .2.2.2c.3 0 .6.2.9.4h.3l.7-.6.7.7-.5.8v.3l.3.8c0 .1.1.2.3.2l.8.2v1l.1-.1z"/><path d="M203.998 469.3a2.204 2.204 0 0 0-2.451 1.201 2.21 2.21 0 0 0 0 1.898 2.195 2.195 0 0 0 2.451 1.201 2.202 2.202 0 0 0 1.734-2.15 2.203 2.203 0 0 0-1.734-2.15zm0 3.8a1.6 1.6 0 1 1-.001-3.199 1.6 1.6 0 0 1 .001 3.199z"/></g><g><path d="m215.301 503.5-1.1-2h-.6v2h-.8v-4.9h1.6l1 .2.6.6.2.7-.3.9c-.2.2-.5.4-.9.5l1.2 2h-1 .1zm-1.7-2.6h.8c.3 0 .6 0 .7-.2.2-.2.2-.4.2-.6 0-.3 0-.5-.2-.6l-.7-.2h-.8v1.6zm7.1.6v.4h-3a1 1 0 0 0 1.1 1c.5 0 .8-.2 1-.5h.8a1.697 1.697 0 0 1-1.8 1.2 1.803 1.803 0 0 1-1.7-1l-.2-1c0-.4.1-.8.3-1 .1-.4.3-.6.6-.8.31-.152.655-.221 1-.2.4 0 .7 0 1 .2l.7.7.2 1zm-.8-.3a1.003 1.003 0 0 0-.3-.7c-.2-.2-.5-.2-.8-.2a1 1 0 0 0-.7.2.999.999 0 0 0-.3.7h2.1zm2.4-1c.1-.2.3-.3.6-.4.2-.2.5-.2.7-.2.4 0 .7 0 1 .2.2.2.5.4.6.7.2.3.3.7.3 1 0 .4-.1.8-.3 1.1-.1.3-.4.5-.6.7-.3.2-.6.3-1 .3a1.694 1.694 0 0 1-1.3-.7v2.4h-.8v-5.7h.8v.6zm2.3 1.4-.1-.7a.998.998 0 0 0-.5-.5 1.105 1.105 0 0 0-1.1 0l-.4.5-.2.7c0 .2 0 .5.2.7 0 .2.2.3.4.4a1.095 1.095 0 0 0 1.1 0c.2 0 .4-.2.5-.4l.1-.7zm3.3 2a2.001 2.001 0 0 1-1-.3c-.3-.1-.5-.4-.7-.7l-.2-1c0-.4 0-.8.2-1 .2-.4.5-.6.8-.8.31-.152.655-.221 1-.2.3 0 .7 0 1 .2l.7.7.2 1c0 .5 0 .8-.2 1.1-.2.3-.5.6-.8.7-.301.187-.646.29-1 .3zm0-.7a1.203 1.203 0 0 0 1-.6l.2-.7c0-.3 0-.5-.2-.7a1.002 1.002 0 0 0-.4-.5l-.6-.1-.5.1a.997.997 0 0 0-.4.5l-.2.7c0 .4.1.7.3 1 .2.2.5.3.8.3zm3.6-2.7.5-.4c.2-.2.4-.2.7-.2v.8h-.2c-.3 0-.6 0-.8.2l-.2.9v2h-.8v-3.9h.8v.6zm2.8.1v2.1l.1.3.4.1h.5v.7h-.7c-.3 0-.6 0-.8-.2-.2-.2-.3-.5-.3-.9v-2.1h-.4v-.7h.4v-1h.8v1h1v.7h-1zm3.1 3.3a1.985 1.985 0 0 1-.8-.2l-.6-.4-.2-.7h.8c0 .2.1.3.3.4l.5.2.5-.1.2-.4c0-.1 0-.2-.2-.3l-.7-.2-.7-.3c-.2 0-.3-.1-.4-.3a1 1 0 0 1-.2-.6l.1-.6.6-.4.7-.1c.5 0 .8.1 1.1.3.3.2.4.5.4 1h-.8c0-.2 0-.4-.2-.5a.802.802 0 0 0-.5-.1h-.5l-.1.4v.3l.3.1.5.2.7.2c.2 0 .3.2.5.3l.2.6c0 .2 0 .4-.2.6l-.5.4-.8.2z" fill="#fff"/><mask id="j" style="mask-type:luminance" maskUnits="userSpaceOnUse" x="198" y="495" width="10" height="11"><path d="M198 495.5h10v10h-10v-10z" fill="#fff"/></mask><g mask="url(#j)"><path d="M207.801 504.4h-9.5a.249.249 0 0 0-.25.25.25.25 0 0 0 .25.25h9.5l.2-.2c0-.2 0-.3-.2-.3zm-.6-7.2h-1.7c-.1 0-.2.1-.2.3v1.6h-1.3v-2.7c0-.2-.1-.3-.2-.3h-1.7c-.1 0-.2.1-.2.3v4.4h-1.2v-2c0-.1-.1-.2-.3-.2h-1.4c-.1 0-.3 0-.3.2v4.5c0 .2.2.3.3.3h8.2c.1 0 .2-.1.2-.3v-5.8c0-.2 0-.3-.2-.3zm-6.9 6h-1.2V499h1.2v4.2zm1.7 0h-1.2v-1.9h1.2V503.2zm1.6-3.9v3.8h-1.2v-6.5h1.2v2.7zm1.7 3.8h-1.3v-3.6h1.2v3.6h.1zm1.6 0h-1.1v-5.4h1.1v5.4z" fill="#fff"/></g></g><g><path d="M216.201 530.1c0 .3 0 .5-.2.7l-.6.6-1 .2h-.8v2h-.8v-5h1.6c.4 0 .7.1 1 .3.2 0 .4.3.6.5l.2.7zm-1.8.8c.3 0 .6 0 .7-.2.2-.1.2-.3.2-.6 0-.5-.3-.8-.9-.8h-.8v1.6h.8zm2.3.7c0-.4 0-.7.2-1a1.8 1.8 0 0 1 1.6-1c.3 0 .5 0 .8.2l.5.4v-.5h.8v3.8h-.8v-.5l-.5.4-.8.2c-.4 0-.7 0-1-.3l-.6-.7c-.2-.3-.2-.6-.2-1zm3.1 0c0-.3 0-.5-.2-.7a1.103 1.103 0 0 0-1.5-.4c-.2 0-.3.2-.5.4l-.1.7.1.7.5.4a1.095 1.095 0 0 0 1.1 0c.2 0 .3-.2.4-.4.2-.2.2-.4.2-.7zm5.3-2-2.3 5.7h-.9l.8-1.8-1.5-3.8h.9l1 3 1.2-3h.8v-.1zm5.3 0c.3 0 .6 0 .8.2.3.1.5.3.6.6l.2.9v2.2h-.8v-2.1c0-.4 0-.6-.2-.8a1 1 0 0 0-.8-.3 1.001 1.001 0 0 0-.7.3l-.2.8v2.1h-.8v-2.1c0-.4-.1-.6-.3-.8a1.003 1.003 0 0 0-.7-.3 1.001 1.001 0 0 0-.7.3c-.2.2-.3.4-.3.8v2.1h-.8v-3.8h.8v.4l.5-.4h.7l.8.1c.3.1.4.3.6.6 0-.3.3-.4.5-.6l.8-.2zm6.2 1.9v.4h-3c0 .3.1.6.3.7.2.2.5.3.8.3.4 0 .7-.2.9-.5h.8a1.8 1.8 0 0 1-1.7 1.2 1.803 1.803 0 0 1-1.7-1c-.2-.3-.2-.6-.2-1s0-.7.2-1c.2-.4.4-.6.7-.7.301-.187.646-.29 1-.3.3 0 .7 0 1 .2.2.2.5.4.6.7.2.3.3.6.3 1zm-.9-.2a1.004 1.004 0 0 0-.3-.8l-.8-.2a1 1 0 0 0-.7.2 1.004 1.004 0 0 0-.3.8h2.1zm3.6-1.7c.3 0 .6 0 .8.2l.6.6.2.9v2.2h-.8v-2.1c0-.4-.1-.6-.3-.8a1.003 1.003 0 0 0-.7-.3 1.001 1.001 0 0 0-.7.3c-.2.2-.3.4-.3.8v2.1h-.8v-3.8h.8v.4l.5-.4h.7v-.1zm3.5.7v2.2l.1.3h.9v.7h-.7c-.3 0-.6 0-.8-.2-.2-.2-.3-.5-.3-.8v-2.2h-.4v-.6h.4v-1h.8v1h1v.6h-1zm7.3 3.2-.6-.6-.8.6-1 .1c-.3 0-.6 0-.8-.2-.3 0-.5-.3-.7-.5l-.2-.8.3-.9.9-.6c-.2-.2-.3-.3-.3-.5l-.1-.4c0-.2 0-.4.2-.6 0-.2.2-.3.4-.4l.7-.1.7.1.5.4.1.6h-.8l-.1-.4-.4-.1-.4.1-.1.4.1.3c0 .2.2.3.4.5l1.3 1.3.5-.8h.8l-.6 1-.2.4 1.2 1.1h-1zm-2.3-.6c.4 0 .8-.1 1.1-.5l-1.3-1.3c-.5.2-.8.6-.8 1l.3.6c.2.2.4.2.7.2zm7.3.7c-.4 0-.7 0-1-.2l-.5-.5c-.2-.2-.3-.4-.3-.7h.9c0 .2 0 .4.2.5l.7.2c.2 0 .4 0 .6-.2.2-.1.2-.3.2-.5l-.1-.4a1.013 1.013 0 0 0-.4-.2 5.085 5.085 0 0 0-.6-.2 5.92 5.92 0 0 1-.7-.3c-.2 0-.4-.2-.5-.4-.2-.2-.3-.4-.3-.7a1.3 1.3 0 0 1 .8-1.2l1-.2c.4 0 .8.1 1 .4.4.2.5.5.6 1h-1c0-.3 0-.4-.2-.5a1 1 0 0 0-.6-.2c-.2 0-.4 0-.5.2-.2 0-.2.2-.2.5v.3l.4.3.6.1.8.3c.2 0 .4.2.5.4.2.2.2.4.2.7 0 .3 0 .5-.2.7-.1.3-.3.4-.6.6a1.99 1.99 0 0 1-.8.2zm2.3-2c0-.4 0-.7.2-1a1.8 1.8 0 0 1 1.6-1c.3 0 .6 0 .8.2l.6.4v-.5h.8v3.8h-.8v-.5l-.6.4-.8.2c-.3 0-.6 0-.9-.3-.3-.1-.5-.4-.7-.7l-.2-1zm3.2 0c0-.3 0-.5-.2-.7a1.105 1.105 0 0 0-1.172-.576c-.154.028-.3.088-.428.176-.2 0-.3.2-.4.4l-.2.7c0 .2 0 .5.2.7l.4.4a1.1 1.1 0 0 0 1.2 0l.4-.4.2-.7zm2.6-3.3v5.2h-.8v-5.2h.8zm4.6 3.2v.4h-3c0 .3.2.6.4.7.2.2.4.3.7.3.5 0 .8-.2 1-.5h.8a1.802 1.802 0 0 1-1.8 1.2 1.803 1.803 0 0 1-1.7-1l-.2-1c0-.4 0-.7.2-1 .2-.4.4-.6.7-.7.301-.187.646-.29 1-.3.4 0 .7 0 1 .2l.7.7.2 1zm-.8-.2a1.004 1.004 0 0 0-.3-.8l-.8-.2a1.008 1.008 0 0 0-1.1 1h2.2zm3 2.3a1.985 1.985 0 0 1-.8-.2c-.3 0-.5-.2-.6-.4l-.2-.7h.8c0 .2 0 .3.2.5l.6.1.5-.1.2-.3c0-.2 0-.3-.2-.4l-.7-.2-.7-.2-.5-.4a1 1 0 0 1-.2-.6l.2-.5.5-.4.8-.2c.5 0 .8.1 1 .3.3.3.5.6.5 1h-.8c0-.2 0-.4-.2-.5a.802.802 0 0 0-.5-.1l-.5.1-.2.3c0 .1 0 .2.2.3l.2.1.5.2.7.2c.2 0 .3.2.5.4l.2.6-.2.5-.5.4-.8.2z" fill="#fff"/><mask id="k" style="mask-type:luminance" maskUnits="userSpaceOnUse" x="199" y="524" width="8" height="14"><path d="M199 524.5h8v13h-8v-13z" fill="#fff"/></mask><g fill="#fff" mask="url(#k)"><path d="M199 531v4.7l.1.1.1.1h.8v-.2l.2-.3c.2 0 .4 0 .4.2 0 .4.5.4.6 0v-.1l.2-.1h.2v.2c.1.4.6.4.6 0 0-.2.3-.3.4-.2l.2.3c0 .3.4.3.5 0l.1-.3c.2 0 .4 0 .4.2 0 .4.5.4.6 0v-.1l.2-.1h.2v.2c.1.4.6.4.6 0 0-.2.3-.3.4-.2l.2.3v.1l.5.1h.4l.1-.2v-9.6h-.9l-.1.3c0 .1 0 .2-.2.2-.2.1-.3 0-.4-.2 0-.4-.5-.4-.5 0v.2h-.5v-.2c0-.4-.5-.4-.6 0 0 .2-.2.3-.4.2l-.1-.2c0-.3-.5-.3-.5 0 0 .1 0 .2-.2.2-.2.1-.3 0-.4-.2 0-.4-.5-.4-.5 0v.2h-.5v-.2c0-.4-.5-.4-.6 0 0 .2-.2.3-.4.2l-.1-.2v-.2H199v4.8zm.7-4.1a.797.797 0 0 0 1.1.2h4.4l.5.1c.3 0 .5-.1.7-.4v-.1 8.7-.2a.795.795 0 0 0-.7-.4c-.2 0-.3 0-.4.2h-.2c-.2-.2-.7-.2-1 0h-.1a.9.9 0 0 0-.9 0h-.1a.9.9 0 0 0-1 0c-.3-.2-.8-.2-1 0h-.2a.702.702 0 0 0-.4-.2c-.3 0-.6.2-.8.5a86.86 86.86 0 0 1 0-8.6l.1.2z"/><path d="M200.201 527.8c-.2.1-.1.4 0 .5h2.4c.2-.1.2-.4 0-.5h-2.4zm0 1.7c-.2 0-.1.3 0 .4h3l.1-.3v-.1h-3.1zm4.3 0-.1.3v.2h-.2c-.1 0-.3 0-.4.2-.5.3-.6.8-.4 1.2 0 .3.4.5.8.6h.1v1.2l-.5-.5c0-.2-.1-.3-.3-.3l-.1.1-.1.2c0 .4.4.8.9 1h.2v.5c.2.1.3.1.4 0l.1-.3v-.2h.2c.7-.2 1-.9.8-1.4-.1-.3-.4-.5-.8-.6h-.2v-1.2h.1l.4.5.3.3.2-.1v-.2c0-.4-.3-.9-.8-1h-.2v-.5h-.4zm-.1 1.5v.5h-.3c-.2-.2-.3-.4-.2-.6 0-.1.2-.3.5-.4v.5zm.7 1.3c.3 0 .4.3.3.5 0 0-.2.3-.4.3v-.9h.1v.1zm-4.9-1.3c-.2.2-.1.5 0 .5h2.4c.2 0 .2-.3 0-.4h-2.4v-.1zm0 1.7c-.2.1-.1.4 0 .5h2.4c.2-.1.2-.4 0-.5h-2.4z"/></g></g><g><path d="m229.7 227 .6.3.4.5.1.6c0 .3 0 .6-.2.8-.1.2-.3.4-.6.5-.3.2-.6.2-1 .2h-2v-5.6h2l.9.2.6.5.2.8c0 .3 0 .6-.3.8-.1.2-.4.4-.7.5v-.1zm-2-.2h1.2c.3 0 .6-.1.8-.3.2-.1.3-.4.3-.6 0-.3-.1-.6-.3-.7-.2-.2-.5-.3-.8-.3h-1.2v1.9zm1.3 2.5c.3 0 .6 0 .8-.2.2-.2.3-.4.3-.7 0-.4-.1-.6-.3-.8-.2-.2-.5-.2-.9-.2h-1.2v2h1.3v-.1zm3.6-5.3v6h-.8v-6h.8zm5.1 1.5v4.4h-.7v-.6l-.6.5-.8.2a1.997 1.997 0 0 1-1-.2l-.6-.7c-.2-.2-.2-.6-.2-1v-2.6h.7v2.5c0 .4.1.8.3 1 .2.2.5.4 1 .4.3 0 .6-.2.8-.4.3-.2.4-.6.4-1v-2.5h.7zm5.1 4.5c-.3 0-.7 0-1-.2-.3-.1-.5-.3-.6-.6-.2-.2-.3-.5-.3-.8h.8c0 .3.1.5.3.7.2.2.5.3.8.3.4 0 .6-.1.8-.3.2-.2.3-.4.3-.7l-.1-.5-.5-.3a6.81 6.81 0 0 0-.7-.2l-.9-.3-.5-.4c-.2-.3-.3-.5-.3-.9a1.401 1.401 0 0 1 1-1.3c.2-.2.5-.2.9-.2.5 0 1 .1 1.3.4.3.2.5.6.5 1h-.8l-.3-.6-.8-.2c-.3 0-.5 0-.7.2-.2.2-.3.4-.3.7l.1.5.5.3.7.2.9.3.5.5c.2.2.3.5.3.8 0 .3 0 .5-.2.8l-.7.6-1 .2zm2.7-2.3c0-.4 0-.8.3-1.2a1.998 1.998 0 0 1 1.8-1c.3 0 .7 0 1 .2l.6.6v-.8h.7v4.4h-.7v-.8c-.1.3-.4.5-.7.6-.301.187-.646.29-1 .3a1.993 1.993 0 0 1-1.7-1.1c-.2-.3-.3-.7-.3-1.2zm3.7 0c0-.3 0-.6-.2-.8-.1-.3-.3-.5-.6-.6l-.7-.2c-.3 0-.5 0-.7.2-.3.1-.4.3-.6.6l-.2.8c0 .4 0 .6.2.9l.6.6.7.2.8-.2.5-.6.2-.9zm2.7-3.7v6h-.7v-6h.7zm3.1 6c-.4 0-.7-.1-1-.3a2.001 2.001 0 0 1-.9-.8c-.2-.3-.2-.7-.2-1.2 0-.4 0-.8.2-1.2l.8-.8 1.2-.2c.4 0 .8 0 1.1.2l.8.8.3 1.2c0 .5-.1.9-.3 1.2a2 2 0 0 1-.8.8c-.4.2-.7.3-1.2.3zm0-.6.8-.2c.2-.2.4-.3.5-.6.2-.2.2-.5.2-.9 0-.3 0-.6-.2-.9l-.5-.5-.7-.2c-.3 0-.5 0-.8.2l-.5.5-.2 1c0 .3 0 .6.2.8.1.3.3.5.5.6l.7.2zm5.4-4c.5 0 1 .2 1.3.5.3.4.5.8.5 1.4v2.6h-.7v-2.5c0-.4-.2-.7-.4-1-.2-.2-.5-.3-.9-.3s-.7.1-.9.4c-.2.2-.3.5-.3 1v2.4h-.8v-4.4h.8v.7c.1-.3.3-.4.6-.6l.8-.1v-.1z" fill="#fff"/></g></g><path d="M278.199 363.5h496.7m-496.7 56.3h496.7m-496.7 56.3h496.7m-496.7 56.3h496.7" stroke="#D9D9D9" stroke-width=".5"/><g><path d="M457.898 342.7h-131a5 5 0 0 0-5 5v32a5 5 0 0 0 5 5h131a5 5 0 0 0 5-5v-32a5 5 0 0 0-5-5z" fill="#D4F1AE"/><path d="M321.898 347.7a5.001 5.001 0 0 1 5-5h35v42h-35a4.999 4.999 0 0 1-5-5v-32z" fill="#B6D88F"/><mask id="l" style="mask-type:luminance" maskUnits="userSpaceOnUse" x="332" y="353" width="21" height="23"><path d="M332 353.5h20.4v22.1H332v-22.1z" fill="#fff"/></mask><g fill="#fff" mask="url(#l)"><path d="M341.6 357s-.2-3.5-4.8-3.5c-2.8 0-4 1.7-4.5 3-.4 1-.3 2 .3 2.9.7.8 2 1.6 4.2 1.6 4.5 0 4.7-2.4 4.7-2.4s.6-.2 1.3.3c0 0 .4-1.2-1.2-1.8v-.1zm5.3 1.1a2 2 0 1 0-.001-4.001 2 2 0 0 0 .001 4.001zM332 375.6s0-3.6 2.3-3.6c1.8 0 2.2 1.2 2.2 3.6H332z"/><path d="M334.298 372a1.901 1.901 0 1 0 0-3.7 1.897 1.897 0 0 0-1.9 1.9 1.904 1.904 0 0 0 1.9 1.9v-.1zm3.1 3.6s0-3.6 2.2-3.6c1.9 0 2.2 1.2 2.2 3.6h-4.4z"/><path d="M339.599 372a1.897 1.897 0 0 0 2.144-1.023 1.897 1.897 0 0 0 0-1.654 1.907 1.907 0 0 0-1.296-1.027 1.897 1.897 0 0 0-.848.004c-.504 0-.987.2-1.343.557a1.896 1.896 0 0 0 0 2.687c.356.356.839.556 1.343.556v-.1zm3.3 3.6s0-3.6 2.2-3.6c1.9 0 2.2 1.2 2.2 3.6h-4.4z"/><path d="M345.002 372a1.897 1.897 0 0 0 2.143-1.023 1.898 1.898 0 0 0-2.143-2.677 1.898 1.898 0 0 0-1.9 1.9 1.901 1.901 0 0 0 1.9 1.9v-.1zm3 3.6s0-3.6 2.3-3.6c1.8 0 2.2 1.2 2.2 3.6h-4.5z"/><path d="M350.301 372a1.897 1.897 0 0 0 2.144-1.023 1.91 1.91 0 0 0 0-1.654 1.908 1.908 0 0 0-1.296-1.027 1.897 1.897 0 0 0-.848.004 1.9 1.9 0 1 0 0 3.8v-.1zm.2-8a9.004 9.004 0 0 0-.8-4.5c-.3-.6-.9-.9-1.5-.9h-2.5c-3 0-2.3 5.4-2.3 5.4h-1.6v.5h2v2.6h6.3v-2.5h1.6v-.6h-1.2zm-5.5-.1h-.7s-.2-2.1.4-2c.6 0 .3 2 .3 2zm4.2 0h-.7s-.2-2.1.4-2c.5 0 .3 2 .3 2z"/></g><path d="M369 353.1v-.4h1.3v5h-.5v-4.6H369zm2.4 2c0-.7.1-1.4.3-1.8.3-.5.7-.7 1.4-.7.6 0 1 .2 1.3.7.3.4.4 1 .4 1.9a4.003 4.003 0 0 1-.4 1.9c-.2.4-.7.6-1.3.6-.7 0-1.1-.2-1.4-.6a3.997 3.997 0 0 1-.3-2zm2.9 0-.1-1c0-.3-.2-.6-.4-.8l-.7-.2c-.4 0-.6 0-.8.2-.2.2-.3.5-.3.8l-.1 1v1.2l.4.7c.2.2.4.3.8.3.3 0 .6-.1.7-.3l.4-.7.1-1.1v-.1zm1.6 2.6h-.3v-.6h.5l.1.3v.2l-.3.1zm0-3-.3-.1v-.5l.3-.1h.2l.1.3v.3l-.3.1zm.9 1.8v-.3l2.5-3.5h.6v3.4h.8v.4h-.8v1.2h-.5v-1.2h-2.6zm2.7-3.2-2.1 2.8h2v-2.8h.1zm5-.2h-2.6v1.8l.5-.4.7-.2c.4 0 .7.1 1 .3.2.1.4.3.5.6l.2.8c0 .3 0 .6-.2.9l-.6.6c-.2.2-.6.2-1 .2s-.8 0-1.1-.3c-.3-.3-.5-.6-.5-1h.4c.1.3.2.5.5.7l.8.2c.4 0 .7-.1.9-.3.2-.3.3-.6.3-1s-.1-.7-.3-.9c-.2-.2-.5-.3-1-.3-.2 0-.4 0-.6.2-.2 0-.4.3-.5.5h-.4v-2.8h3v.4zm5.5 1.8v.4h-2.7v-.4h2.7zm2.9-1.8v-.4h1.2v5h-.5v-4.6h-.7zm2 0v-.4h1.2v5h-.5v-4.6h-.7zm2.5 4.6h-.2l-.1-.3v-.3h.6v.5l-.3.1zm0-3-.2-.1-.1-.3v-.2l.3-.1h.3v.6l-.3.1zm1.1-.7c0-.4.2-.8.5-1 .3-.3.7-.4 1.2-.4.3 0 .6 0 .8.2.2 0 .4.2.5.4l.2.7c0 .3-.1.5-.3.7-.2.3-.4.4-.7.4l.8.5.2.9c0 .4 0 .7-.4 1-.2.2-.6.3-1.1.3-.5 0-1 0-1.2-.3-.3-.3-.5-.6-.6-1.1h.5c0 .3.2.6.4.7.2.2.5.3.9.3.3 0 .6 0 .8-.2.2-.2.3-.5.3-.8 0-.7-.5-1-1.6-1h-.1v-.4h.2c.9 0 1.4-.3 1.4-1 0-.2-.1-.5-.3-.6a.999.999 0 0 0-.7-.3c-.4 0-.6.1-.8.3a.987.987 0 0 0-.4.7h-.5zm4.2 1.2c0-.8 0-1.5.3-2 .3-.4.7-.6 1.4-.6.6 0 1 .2 1.3.7.2.4.4 1 .4 1.9a4.003 4.003 0 0 1-.4 1.9c-.3.4-.7.6-1.3.6-.7 0-1.1-.2-1.4-.6a3.997 3.997 0 0 1-.3-2v.1zm2.9 0-.1-1.1c0-.3-.2-.6-.4-.8l-.7-.2c-.4 0-.6 0-.8.2l-.4.8v2.2c0 .3.2.5.4.7.2.2.4.3.8.3.3 0 .5-.1.7-.3l.4-.7v-1.1h.1zm-35.2 13.3v4c0 .5.1.9.4 1.2.2.2.6.4 1.1.4.5 0 .9-.2 1.1-.4.3-.3.4-.7.4-1.3v-4h.9v4c0 .5-.1 1-.3 1.3a2.001 2.001 0 0 1-.9.8l-1.2.3-1.2-.3a2.001 2.001 0 0 1-.9-.8c-.2-.3-.3-.8-.3-1.3v-4h.9v.1zm6 0v6.2h-.8v-6.2h.9-.1zm7.7 0v.6h-1.7v5.6h-.8v-5.6H380v-.6h4.2-.1zm5.4 1.3v5h-.8v-.8l-.6.6a2.2 2.2 0 0 1-2 0c-.3-.2-.5-.4-.7-.8-.2-.3-.3-.7-.3-1.1v-3h.8v2.9c0 .5.1.8.4 1.1.2.3.6.4 1 .4s.8-.1 1-.4c.3-.3.4-.7.4-1.2v-2.7h.8zm2.4.7v2.9c0 .2 0 .4.2.5l.5.1h.6v.7h-.7c-.5 0-.8 0-1-.3-.3-.2-.4-.5-.4-1v-3h-.6v-.6h.6v-1.2h.8v1.2h1.3v.7h-1.3zm4.5 4.3c-.5 0-1-.1-1.3-.3-.4-.2-.7-.5-.9-.9-.2-.4-.3-.8-.3-1.4 0-.5.1-.9.3-1.3.3-.4.6-.7 1-.9.3-.2.7-.3 1.2-.3s.9.1 1.3.3c.3.2.6.5.9 1 .2.3.3.7.3 1.3a2.305 2.305 0 0 1-1.3 2.2c-.3.2-.8.3-1.2.3zm0-.7c.3 0 .5 0 .8-.2l.6-.6a1.995 1.995 0 0 0 0-2c-.1-.3-.3-.5-.6-.7l-.8-.2c-.3 0-.6 0-.8.2l-.6.6c-.187.301-.29.646-.3 1 0 .5.1.8.3 1 .1.3.3.6.6.7l.8.2zm4.4-3.5c.1-.3.3-.5.6-.7.31-.152.655-.221 1-.2v.8h-.2c-1 0-1.4.5-1.4 1.5v2.7h-.8v-5h.8v.9zm3-1.6c-.2 0-.3 0-.4-.2a.494.494 0 0 1-.2-.4c0-.1 0-.3.2-.4l.4-.1.3.1c.2.1.2.3.2.4 0 .2 0 .3-.2.4l-.3.2zm.4.8v5h-.9v-5h.9zm1 2.4c0-.5.2-.9.4-1.3a2.199 2.199 0 0 1 2-1.2c.4 0 .8.1 1.1.3.3.2.6.4.7.7v-1h.9v5h-.9v-.9a2.005 2.005 0 0 1-.7.7c-.3.2-.7.3-1.1.3a2.208 2.208 0 0 1-2-1.2c-.2-.4-.3-.9-.3-1.4h-.1zm4.2 0c0-.3 0-.6-.2-1l-.6-.6-.8-.2-.9.2-.6.7c-.152.31-.221.655-.2 1 0 .3 0 .6.2 1l.6.6.9.2c.3 0 .6 0 .8-.2.3-.2.5-.4.6-.7.2-.3.2-.6.2-1zm3-4.1v6.6h-.7v-6.6h.8-.1zm5.8 8.3c-.6-.6-1-1.3-1.3-2.1-.3-1-.5-1.9-.5-2.9s.2-2 .5-2.9c.3-.9.8-1.6 1.4-2.2h.7c-.7.7-1.2 1.5-1.5 2.3a7.798 7.798 0 0 0 0 5.5c.3.9.8 1.6 1.4 2.2v.1h-.7zm1.7-5c0-1 .2-1.8.5-2.4.3-.5.9-.8 1.7-.8.8 0 1.4.3 1.7.8.3.6.5 1.4.5 2.4s-.2 1.9-.5 2.5c-.3.6-.9.8-1.7.8-.8 0-1.4-.2-1.7-.8-.3-.6-.5-1.4-.5-2.5zm3.8 0-.1-1.4c-.1-.4-.3-.7-.5-.9-.2-.2-.6-.4-1-.4s-.8.2-1 .4c-.2.2-.4.5-.4 1l-.2 1.3c0 .6 0 1.1.2 1.5 0 .4.2.7.4 1 .2.2.6.3 1 .3s.8-.1 1-.4c.2-.2.4-.5.5-1v-1.4h.1zm4.7-5.1-2.5 10h-.6l2.5-10h.6zm1 3.6c0-.5.3-1 .7-1.3.3-.3.8-.4 1.4-.4.4 0 .8 0 1 .2.4.1.6.3.7.6.2.2.3.5.3.8 0 .4-.2.7-.4 1-.2.3-.5.4-1 .5.5.1.8.3 1 .6.3.3.5.7.5 1.1 0 .5-.2 1-.6 1.3-.3.3-.8.5-1.4.5-.7 0-1.2-.2-1.6-.5a2.002 2.002 0 0 1-.7-1.4h.6c0 .4.3.7.5 1 .3.2.7.3 1.2.3.4 0 .8 0 1-.3.2-.3.4-.6.4-1 0-.9-.7-1.3-2-1.3h-.2v-.5h.2c1.2 0 1.8-.4 1.8-1.2a1 1 0 0 0-.3-.9c-.2-.2-.6-.3-1-.3s-.7.1-1 .3c-.3.2-.4.5-.5 1h-.6v-.1zm5.2 6.5c.6-.7 1-1.4 1.4-2.3a7.7 7.7 0 0 0 0-5.5c-.4-.8-.9-1.6-1.5-2.2h.7c.6.5 1 1.2 1.4 2.1.3.9.5 1.9.5 2.9s-.2 2-.5 2.9c-.3.8-.8 1.5-1.3 2.1h-.7z" fill="#232323"/></g><g><path d="M457.898 421.8h-131a5 5 0 0 0-5 5v75.1a5 5 0 0 0 5 5h131a5 5 0 0 0 5-5v-75.1a5 5 0 0 0-5-5z" fill="#B3D9FF"/><path d="M321.898 426.8a4.999 4.999 0 0 1 5-5h35v85h-35a5.002 5.002 0 0 1-5-5v-75z" fill="#66B3FF"/><mask id="m" style="mask-type:luminance" maskUnits="userSpaceOnUse" x="335" y="452" width="15" height="23"><path d="M335 452.6h14.5v22.3H335v-22.3z" fill="#fff"/></mask><g stroke="#fff" stroke-width=".8" stroke-miterlimit="10" mask="url(#m)"><path d="M335.398 456.3V455l7.6-1.9v21.3l-7.6-1.4v-15.6m7.6-3.4h6.1v19.3h-1" stroke-linecap="round"/><path d="M343 471.4h4.3v-15.5H343"/><path d="M339.797 464.4h1.7m1.5 8.9h4" stroke-linecap="round"/></g><path d="M369.299 434.2c0-.8.1-1.4.4-1.9.2-.4.7-.6 1.3-.6.7 0 1.1.2 1.4.6.2.5.3 1.1.3 2a3.992 3.992 0 0 1-.3 1.8c-.3.5-.7.7-1.4.7-.6 0-1-.2-1.3-.7a4 4 0 0 1-.4-1.9zm3 0-.1-1-.4-.8c-.2-.2-.4-.3-.8-.3-.3 0-.6.1-.7.3l-.4.7v2.2c0 .3.2.6.4.8l.7.2c.4 0 .6 0 .8-.2l.4-.8v-1l.1-.1zm1.1 1.4v-.4l2.6-3.4h.6v3.4h.7v.4h-.7v1.2h-.5v-1.2h-2.7zm2.7-3.3-2.1 2.9h2.1v-2.9zm2 4.5-.2-.1-.1-.3v-.2l.3-.1h.3v.6l-.3.1zm0-3-.2-.1-.1-.3v-.3h.6v.6h-.3v.1zm1.2.4c0-.8 0-1.4.3-1.9.3-.4.7-.6 1.4-.6.6 0 1 .2 1.3.6.2.5.4 1.1.4 2a3.992 3.992 0 0 1-.4 1.8c-.3.5-.7.7-1.3.7-.7 0-1.1-.2-1.4-.7a4 4 0 0 1-.3-1.9zm2.9 0-.1-1c0-.4-.2-.6-.4-.8-.2-.2-.4-.3-.7-.3-.4 0-.6.1-.8.3l-.4.7v2.2c0 .3.2.6.4.8l.8.2c.3 0 .5 0 .7-.2l.4-.8v-1l.1-.1zm1.4 0c0-.8.1-1.4.3-1.9.3-.4.7-.6 1.4-.6.6 0 1 .2 1.3.6.3.5.4 1.1.4 2a3.992 3.992 0 0 1-.4 1.8c-.2.5-.7.7-1.3.7-.7 0-1.1-.2-1.4-.7a4 4 0 0 1-.3-1.9zm2.9 0-.1-1c0-.4-.2-.6-.4-.8-.1-.2-.4-.3-.7-.3-.4 0-.6.1-.8.3l-.4.7v2.2l.4.8.8.2c.3 0 .6 0 .7-.2l.4-.8v-1l.1-.1zm5.8-.2v.4h-2.7v-.4h2.7zm3.1.2c0-.8.1-1.4.4-1.9.2-.4.7-.6 1.3-.6.6 0 1 .2 1.3.6.3.5.4 1.1.4 2a3.992 3.992 0 0 1-.4 1.8c-.2.5-.7.7-1.3.7-.6 0-1-.2-1.3-.7a4 4 0 0 1-.4-1.9zm3 0-.2-1c0-.4-.2-.6-.3-.8-.2-.2-.5-.3-.8-.3-.3 0-.6.1-.8.3-.1.2-.3.4-.3.7l-.1 1.1v1.1l.4.8.8.2c.3 0 .6 0 .8-.2.1-.2.3-.5.3-.8l.1-1 .1-.1zm4.2-1.2c-.1-.6-.4-1-1-1-.5 0-.8.2-1 .6-.3.4-.4 1-.4 1.7l.5-.6c.3-.2.6-.3 1-.3s.8.2 1.1.5c.3.3.4.7.4 1.2l-.1.9-.6.6-.9.2c-.7 0-1.2-.2-1.4-.7-.3-.4-.4-1-.4-1.9 0-1.7.6-2.5 1.8-2.5.4 0 .8 0 1 .3.3.3.4.6.5 1h-.5zm-1 .9h-.7l-.4.5c-.2.2-.2.4-.2.7 0 .3 0 .7.3.9.2.3.6.4 1 .4.3 0 .6-.1.8-.3.3-.3.4-.6.4-1s-.1-.7-.3-.9c-.3-.2-.6-.3-1-.3h.1zm2.7 3-.2-.2-.1-.3v-.2l.3-.1h.3v.6l-.3.1v.1zm0-3.1-.2-.1-.1-.3v-.3h.6v.6h-.3v.1zm1.1-.8c0-.4.2-.7.5-1 .3-.2.7-.3 1.2-.3l.8.1.5.5.1.6c0 .3 0 .6-.2.8-.2.2-.4.4-.7.4l.7.5c.2.2.3.5.3.8 0 .4-.1.8-.4 1-.2.3-.6.4-1.1.4-.5 0-1-.1-1.2-.4-.3-.2-.5-.6-.6-1h.5c0 .3.2.5.4.7.2.2.5.3.9.3.3 0 .6-.1.8-.3.2-.2.3-.4.3-.7 0-.7-.5-1-1.6-1h-.1v-.5h.1c1 0 1.5-.3 1.5-1l-.3-.6-.8-.2c-.3 0-.5 0-.7.2a.995.995 0 0 0-.4.7h-.5zm4.1 1.2c0-.8.2-1.4.4-1.9.3-.4.7-.6 1.3-.6.7 0 1.1.2 1.4.6.2.5.3 1.1.3 2a3.992 3.992 0 0 1-.3 1.8c-.3.5-.7.7-1.4.7-.6 0-1-.2-1.3-.7a4 4 0 0 1-.4-1.9zm3 0-.1-1c0-.4-.2-.6-.4-.8-.2-.2-.4-.3-.8-.3-.3 0-.5.1-.7.3l-.4.7v2.2c0 .3.2.6.4.8l.7.2c.4 0 .6 0 .8-.2l.4-.8v-1l.1-.1zm-39.2 21.2h-2.8l-.5 1.4h-.8l2.2-6.3h1l2.2 6.3h-.8l-.5-1.4zm-.3-.7-1.1-3.1-1.1 3.1h2.2zm3.5-2c.1-.2.4-.5.7-.6a2.299 2.299 0 0 1 2.3 0c.4.2.6.5.8.9.2.4.3.8.3 1.3s0 1-.3 1.3a2.297 2.297 0 0 1-2 1.3c-.4 0-.8-.1-1.1-.3a2.005 2.005 0 0 1-.7-.7v.9h-.9V450h.9v2.7zm3.3 1.6c0-.4 0-.7-.2-1l-.6-.6-.9-.2a1.601 1.601 0 0 0-1.4.8 2 2 0 0 0-.2 1c0 .4 0 .7.2 1 .1.3.3.5.6.6.3.2.5.2.8.2.3 0 .6 0 .9-.2l.6-.6.2-1zm2.7-1.5c.2-.3.5-.6.8-.7.3-.2.7-.3 1-.3.5 0 1 0 1.3.3.3.2.6.5.8.9.2.4.3.8.3 1.3s0 1-.3 1.3a2.297 2.297 0 0 1-2 1.3c-.4 0-.8-.1-1.1-.3a2.004 2.004 0 0 1-.8-.7v.9h-.8V450h.8V452.8zm3.4 1.5c0-.4 0-.7-.2-1l-.6-.6-.9-.2a1.601 1.601 0 0 0-1.4.8c-.187.301-.29.646-.3 1 0 .4.1.7.3 1 .1.3.3.5.6.6.2.2.5.2.8.2.3 0 .6 0 .9-.2l.6-.6.2-1zm6.2-2.4-3 7.2h-.8l1-2.4-2-4.8h.8l1.6 4 1.5-4h.9zm5.2-1.4c.6 0 1.2.1 1.7.4.5.3 1 .6 1.2 1 .3.6.4 1.1.4 1.8 0 .6-.1 1.2-.4 1.6-.3.5-.7.9-1.2 1.1a3.991 3.991 0 0 1-1.7.4h-2v-6.3h2zm0 5.6c.8 0 1.4-.2 1.8-.6.4-.5.7-1 .7-1.8s-.3-1.4-.7-1.9c-.4-.4-1-.6-1.8-.6h-1.3v5h1.2l.1-.1zm6.5.8-1.2-.3-1-1-.2-1.3c0-.5 0-1 .3-1.3.2-.4.5-.7.9-1l1.3-.2c.4 0 .9 0 1.2.3.4.2.7.5 1 .9.2.4.3.8.3 1.3s-.1 1-.4 1.4l-.9.9c-.4.2-.8.3-1.3.3zm0-.8c.3 0 .6 0 .9-.2l.6-.6.2-1c0-.4 0-.7-.2-1l-.6-.6-.8-.2c-.3 0-.6 0-.9.2l-.6.6a2 2 0 0 0-.2 1c0 .4 0 .8.2 1l.6.6c.3.2.5.2.8.2zm8.2-2v.5h-4c0 .5.2.9.5 1.2.3.2.7.4 1 .4.4 0 .7-.1 1-.3l.5-.6h.9c-.2.4-.4.8-.8 1.1-.4.3-1 .5-1.5.5s-.9-.1-1.3-.3l-.8-1c-.3-.3-.4-.8-.4-1.3s.1-1 .4-1.3c.2-.4.4-.7.8-1l1.3-.2c.5 0 .9 0 1.2.3.4.2.7.5.9.8l.3 1.2zm-.9-.1c0-.4 0-.6-.2-.8-.1-.3-.3-.4-.6-.6l-.8-.1c-.4 0-.7.1-1 .4-.3.2-.5.6-.5 1h3.1v.1z" fill="#232323"/></g><g><path d="M669.898 376.7h-131a5 5 0 0 0-5 5v32a5 5 0 0 0 5 5h131a5 5 0 0 0 5-5v-32a5 5 0 0 0-5-5z" fill="#FFFFB3"/><path d="M533.898 381.7a5.001 5.001 0 0 1 5-5h35v42h-35a4.999 4.999 0 0 1-5-5v-32z" fill="#FFD98C"/><mask id="n" style="mask-type:luminance" maskUnits="userSpaceOnUse" x="545" y="388" width="19" height="21"><path d="M545 388.6h18.2v19.8H545v-19.8z" fill="#fff"/></mask><g mask="url(#n)"><path d="M556.602 388.8c1 .3 1.5 1 2 1.8.4 1 .2 2.1 0 3.2-.3 1 0 .9.7.9l1.7.1c1.5.4 2.6 1.7 2.3 3.1-.5 2.3-.5 4.6-1.4 6.8l-.2 1c-.4 1.5-1.5 2.6-3.2 2.7-2 0-4 0-6-.7-1.7-.8-3.5-.9-5.3-.8-1.6 0-2.1-.5-2.1-2v-6.7c0-1.5.5-2.1 2-2 2.2.3 3.6-.4 4.8-2.2.6-1 1.3-1.9 1.5-3 0-.7.3-1.3.7-1.8.5-.7 1.2-.7 2-.4h.5zm-6.9 12.7v1c0 .9-.2 2 .2 2.6.3.5 1.5.5 2.2.8 1.9.6 3.8 1.1 5.8 1 .7 0 1.6 0 2-.9.3-1 .8-2.1.9-3.1 0-.9.6-1.6.5-2.3-.2-.9 0-1.5.3-2.2.5-1-.2-2-1.4-2h-2c-2.3 0-2.4-.1-1.4-2.4.4-1 .6-2 .2-3-.3-.6-.4-1-1-1-.5 0-1 .8-1 1.2-.3 2-1.5 3.8-3 5.1-.7.6-1.5 1.1-2 2-.4 1-.3 2.1-.3 3.2zm-1.6 3.1c0-.4-.2-.7-.7-.7-.4 0-.7.2-.7.6 0 .5.2.8.7.8.4 0 .7-.3.7-.7z" fill="#fff"/><path d="M548.003 404.6c0 .4-.2.7-.6.7-.5 0-.8-.3-.7-.8 0-.4.3-.6.7-.6.5 0 .7.3.7.7h-.1z" fill="#FFD98C"/></g><path d="M581.398 389.2c0-.8 0-1.4.3-1.9.3-.4.7-.7 1.4-.7.6 0 1 .3 1.3.7.2.5.4 1 .4 1.9a4.015 4.015 0 0 1-.4 1.9c-.3.4-.7.7-1.3.7-.7 0-1.1-.3-1.4-.7a3.997 3.997 0 0 1-.3-2v.1zm2.9 0-.1-1.1c0-.3-.2-.6-.4-.7-.1-.2-.4-.3-.7-.3-.4 0-.6 0-.8.3-.2.1-.3.4-.4.7v2.2c0 .3.2.5.4.7.2.2.4.3.8.3.3 0 .6 0 .7-.3l.4-.7v-1.1h.1zm1.1-2v-.5h1.2v5h-.5v-4.5h-.7zm2.5 4.6-.2-.1-.1-.3v-.2l.3-.1h.3v.6h-.3v.1zm0-3-.2-.2-.1-.2v-.3h.6v.5l-.3.1v.1zm1.1.4c0-.8.2-1.4.4-1.9.3-.4.7-.7 1.3-.7.7 0 1.1.3 1.4.7.2.5.3 1 .3 1.9.056.648-.047 1.3-.3 1.9-.3.4-.7.7-1.4.7-.6 0-1-.3-1.3-.7a3.996 3.996 0 0 1-.4-2v.1zm3 0-.1-1.1c-.1-.3-.2-.6-.4-.7-.2-.2-.4-.3-.8-.3-.3 0-.6 0-.7.3-.2.1-.3.4-.4.7v2.2c0 .3.2.5.4.7.1.2.4.3.7.3.4 0 .6 0 .8-.3l.4-.7v-1.1h.1zm1.4 0c0-.8 0-1.4.3-1.9.3-.4.7-.7 1.4-.7.6 0 1 .3 1.3.7.2.5.4 1 .4 1.9a4.015 4.015 0 0 1-.4 1.9c-.3.4-.7.7-1.3.7-.7 0-1.1-.3-1.4-.7a3.997 3.997 0 0 1-.3-2v.1zm2.9 0-.1-1.1c0-.3-.2-.6-.4-.7-.1-.2-.4-.3-.7-.3-.4 0-.6 0-.8.3-.2.1-.3.4-.4.7v2.2l.4.7c.2.2.4.3.8.3.3 0 .6 0 .7-.3l.4-.7v-1.1h.1zm5.8-.3v.5h-2.7v-.5h2.7zm3 .3c0-.8.2-1.4.5-1.9.2-.4.6-.7 1.3-.7.6 0 1 .3 1.3.7.3.5.4 1 .4 1.9a4.015 4.015 0 0 1-.4 1.9c-.2.4-.7.7-1.3.7-.7 0-1.1-.3-1.4-.7a3.997 3.997 0 0 1-.3-2l-.1.1zm3 0V388l-.4-.7c-.2-.2-.5-.3-.8-.3-.3 0-.6 0-.8.3-.2.1-.3.4-.3.7l-.1 1v1.2l.4.7c.2.2.5.3.8.3.3 0 .6 0 .8-.3.1-.2.3-.4.3-.7l.1-1.1v.1zm1.2-2v-.5h1.2v5h-.5v-4.5h-.7zm2.5 4.6-.3-.1-.1-.3v-.2l.4-.1h.2l.1.3-.1.3h-.2v.1zm0-3-.3-.2-.1-.2v-.3h.6l.1.3-.1.2-.2.1v.1zm1-.8c0-.4.2-.8.5-1 .3-.2.7-.4 1.2-.4.3 0 .6 0 .8.2l.5.5.2.6c0 .3-.1.6-.3.8l-.7.4c.3 0 .6.2.8.4.2.3.3.5.3 1 0 .3-.2.6-.4.9-.3.2-.7.4-1.2.4s-.9-.2-1.2-.4c-.3-.3-.5-.6-.5-1h.4l.4.7c.2.2.5.3.9.3s.6-.1.8-.3c.2-.2.3-.4.3-.7 0-.7-.5-1.1-1.5-1.1h-.2v-.4h.2c1 0 1.4-.3 1.4-1 0-.2 0-.4-.3-.6a1 1 0 0 0-.7-.2c-.3 0-.6 0-.8.2a.987.987 0 0 0-.4.7h-.5zm4.2 1.2c0-.8 0-1.4.3-1.9.3-.4.7-.7 1.4-.7.6 0 1 .3 1.3.7.2.5.4 1 .4 1.9a4.015 4.015 0 0 1-.4 1.9c-.2.4-.7.7-1.3.7-.7 0-1.1-.3-1.4-.7a3.997 3.997 0 0 1-.3-2v.1zm2.9 0-.1-1.1c0-.3-.2-.6-.4-.7-.1-.2-.4-.3-.7-.3-.4 0-.6 0-.8.3-.2.1-.3.4-.4.7v2.2l.4.7c.2.2.4.3.8.3.3 0 .6 0 .7-.3l.4-.7v-1.1h.1zm-33.5 13.3v6.3h-.8v-2.9h-3.2v2.9h-.8v-6.3h.8v2.7h3.2v-2.7h.8zm1.1 3.8c0-.5.1-1 .3-1.4a2.194 2.194 0 0 1 2-1.2c.5 0 .9.1 1.2.3.3.2.6.4.7.7v-.9h.8v5h-.8v-1a2.004 2.004 0 0 1-.7.8l-1.1.2a2.203 2.203 0 0 1-2-1.2c-.3-.4-.4-.8-.4-1.3zm4.2 0c0-.4 0-.7-.2-1l-.6-.6-.9-.3c-.3 0-.6.1-.8.3-.3.1-.5.3-.6.6-.152.31-.221.655-.2 1 0 .3 0 .7.2 1l.6.6.8.2c.3 0 .6 0 .9-.2l.6-.6.2-1zm2.7-3.3-.4-.1a.494.494 0 0 1-.2-.4c0-.2 0-.3.2-.4l.4-.2c.1 0 .2 0 .3.2l.2.4-.2.4-.3.1zm.3.8v5h-.8v-5h.8zm2.3.8c.1-.3.3-.5.6-.6.301-.187.646-.29 1-.3v.9h-.3c-.9 0-1.3.5-1.3 1.5v2.6h-.8v-4.9h.8v.8zm2.2 1.7c0-.5.1-1 .3-1.4.2-.3.5-.6.9-.8.3-.3.8-.4 1.2-.4.6 0 1.1.2 1.5.5.4.3.7.7.8 1.2h-.9c0-.3-.2-.5-.5-.7-.2-.2-.5-.3-.9-.3s-.8.2-1.1.5c-.3.3-.4.8-.4 1.4 0 .6.1 1 .4 1.4.3.3.7.4 1.1.4.4 0 .7 0 1-.2l.4-.7h.9c-.1.5-.4.9-.8 1.2-.4.3-.9.4-1.5.4-.4 0-.9 0-1.2-.3-.4-.2-.7-.5-.9-.9-.2-.4-.3-.8-.3-1.3zm10.2-2.5v5h-.8v-.8c-.2.3-.4.5-.7.6a2.203 2.203 0 0 1-2 0l-.7-.7c-.2-.3-.2-.7-.2-1.2v-2.9h.8v2.8c0 .5 0 .9.3 1.1.3.3.6.4 1 .4.5 0 .8-.1 1-.4.3-.3.5-.7.5-1.2v-2.7h.8zm2.4.7v2.9l.1.5.5.2h.7v.6h-.8c-.4 0-.8 0-1-.3-.2-.2-.4-.5-.4-1v-3h-.6v-.6h.6v-1.2h.9v1.2h1.3v.7h-1.3zm11.2-.7-1.6 5h-.6l-1.4-4.2-1.3 4.1h-.7l-1.5-4.9h.6l1.3 4.3 1.3-4.3h.7l1.3 4.3 1.2-4.3h.7zm1.2-.9-.4-.1-.1-.4.1-.3.4-.1.3.1.1.3-.1.4-.3.1zm.3 1v4.9h-.7v-5h.7v.1zm2.2.5v3c0 .3 0 .5.2.6.1.2.3.2.6.2h.6v.6h-.7c-.4 0-.8-.2-1-.4-.2-.2-.3-.5-.3-1v-3h-.7v-.6h.7v-1.2h.6v1.2h1.4v.6h-1.4zm4.8-.7c.3 0 .7.1 1 .3.3.1.5.4.7.7l.2 1.2v2.9h-.6v-2.9c0-.5-.1-.9-.4-1.2-.3-.3-.6-.4-1-.4-.6 0-1 .1-1.2.4-.3.3-.4.8-.4 1.4v2.6h-.7v-6.6h.7v2.6c.1-.3.3-.5.6-.7.3-.2.7-.3 1-.3h.1zm8.9-1.2v4.6c0 .5-.2 1-.5 1.3-.3.3-.7.4-1.3.4-.5 0-1-.1-1.2-.5-.4-.3-.5-.7-.5-1.3h.8c0 .4 0 .6.2.8.2.2.4.3.7.3.3 0 .6-.1.7-.3.2-.2.2-.4.2-.7v-4.6h.9zm1.3 3.8c0-.5 0-1 .3-1.4a2.194 2.194 0 0 1 2-1.2c.5 0 .8.1 1.2.3l.7.7v-.9h.8v5h-.8v-1a2 2 0 0 1-.8.8l-1 .2a2.195 2.195 0 0 1-2.1-1.2c-.2-.4-.3-.8-.3-1.3zm4.2 0c0-.4-.1-.7-.3-1-.1-.3-.3-.5-.6-.6-.2-.2-.5-.3-.8-.3-.3 0-.6.1-.8.3-.3.1-.5.3-.6.6a1.991 1.991 0 0 0-.3 1c0 .3.1.7.3 1l.6.6.8.2c.3 0 .6 0 .8-.2l.6-.6c.2-.3.3-.7.3-1zm6.4-2.5-3 7.3h-.8l1-2.4-2-4.9h1l1.5 4 1.5-4h.8z" fill="#232323"/></g><g><path d="M740.898 490.8h-131a5 5 0 0 0-5 5v32a5 5 0 0 0 5 5h131a5 5 0 0 0 5-5v-32a5 5 0 0 0-5-5z" fill="#B3BFFF"/><path d="M605 495.8a5 5 0 0 1 5-5h35v42h-35a5.004 5.004 0 0 1-3.536-1.464A5.004 5.004 0 0 1 605 527.8v-32z" fill="#8C98FF"/><mask id="o" style="mask-type:luminance" maskUnits="userSpaceOnUse" x="616" y="502" width="19" height="21"><path d="M616.098 502.7h18.2v19.8h-18.2v-19.8z" fill="#fff"/></mask><g mask="url(#o)"><path d="M627.598 502.8c1 .4 1.5 1 2 2 .4.9.3 2 0 3s0 1 .7 1l1.7.1c1.5.4 2.6 1.7 2.3 3-.5 2.3-.5 4.7-1.4 6.9l-.2.9c-.4 1.6-1.5 2.7-3.2 2.8-2 0-4 0-5.9-.8-1.7-.7-3.6-.8-5.4-.7-1.6 0-2-.5-2.1-2v-6.7c0-1.5.5-2.1 2-2 2.2.3 3.6-.4 4.8-2.3.6-1 1.3-1.8 1.5-3 0-.6.3-1.2.7-1.7.5-.7 1.2-.7 2-.5h.5zm-6.9 12.8v1c0 .9-.2 2 .2 2.6.3.5 1.5.5 2.2.8 2 .6 3.8 1.1 5.8 1 .7-.1 1.6-.1 2-.9.3-1 .8-2.1.9-3.2 0-.8.6-1.5.5-2.2-.2-.9 0-1.5.3-2.2.5-1-.2-2-1.4-2.1h-2c-2.3 0-2.4 0-1.4-2.3.4-1 .6-2 .2-3-.3-.6-.4-1-.9-1-.6 0-1 .8-1.2 1.2-.2 2-1.4 3.8-2.9 5.1-.7.6-1.5 1-2 2-.4 1-.3 2.1-.3 3.2zm-1.6 3c0-.3-.2-.6-.7-.6-.4 0-.7.2-.7.6 0 .5.2.8.7.8.4 0 .7-.3.7-.7v-.1z" fill="#fff"/><path d="M618.999 518.7c0 .4-.2.6-.6.7-.5 0-.7-.3-.7-.8 0-.4.3-.6.7-.6.5 0 .7.3.7.7h-.1z" fill="#FFD98C"/></g><path d="M652.398 503.3c0-.8 0-1.5.3-1.9.3-.4.7-.7 1.4-.7.6 0 1 .3 1.3.7.2.4.4 1 .4 1.9a4.012 4.012 0 0 1-.4 1.9c-.2.4-.7.6-1.3.6-.7 0-1.1-.2-1.4-.6a3.997 3.997 0 0 1-.3-2v.1zm2.9 0-.1-1.1c0-.3-.2-.6-.4-.8l-.7-.2c-.4 0-.6 0-.8.3-.2.1-.3.4-.4.7v2.2l.4.7c.2.2.4.3.8.3.3 0 .6-.1.7-.3l.4-.7v-1.1h.1zm1.4-1.2c0-.4.2-.8.5-1 .3-.3.6-.4 1.1-.4.3 0 .6 0 .8.2l.5.4.2.7c0 .3 0 .5-.3.8-.1.2-.4.3-.7.4.3 0 .6.2.8.4.2.2.3.5.3.9s-.1.7-.4 1c-.3.2-.7.4-1.2.4s-.9-.2-1.2-.4c-.3-.3-.5-.6-.5-1.1h.5c0 .3.1.6.4.8.2.2.5.2.8.2.4 0 .7 0 .8-.2.2-.2.3-.5.3-.7 0-.8-.5-1.1-1.5-1.1h-.2v-.4h.2c1 0 1.4-.3 1.4-1 0-.2 0-.4-.2-.6-.2-.2-.5-.3-.8-.3-.3 0-.6.1-.8.3a.998.998 0 0 0-.4.7h-.4zm4.3 3.8-.3-.1v-.6h.5l.1.3v.3h-.3v.1zm0-3-.3-.2v-.5l.3-.1.2.1.1.3v.2l-.3.1v.1zm1.1.4c0-.8.1-1.5.4-1.9.2-.4.7-.7 1.3-.7.6 0 1 .3 1.3.7.3.4.4 1 .4 1.9a4.012 4.012 0 0 1-.4 1.9c-.2.4-.7.6-1.3.6-.6 0-1-.2-1.3-.6a3.996 3.996 0 0 1-.4-2v.1zm3 0-.2-1.1c0-.3-.2-.6-.3-.8l-.8-.2c-.3 0-.6 0-.8.3-.1.1-.3.4-.3.7l-.1 1v1.2l.4.7c.2.2.5.3.8.3.3 0 .6-.1.8-.3.1-.2.3-.4.3-.7l.1-1.1h.1zm1.3 0c0-.8.1-1.5.4-1.9.2-.4.7-.7 1.3-.7.7 0 1.1.3 1.4.7.2.4.3 1 .3 1.9a4 4 0 0 1-.3 1.9c-.3.4-.7.6-1.4.6-.6 0-1-.2-1.3-.6a3.996 3.996 0 0 1-.4-2v.1zm3 0-.1-1.1-.4-.8-.8-.2c-.3 0-.6 0-.7.3-.2.1-.3.4-.4.7v2.2c0 .3.2.5.4.7.1.2.4.3.7.3.4 0 .6-.1.8-.3l.4-.7v-1.1h.1zm5.8-.3v.4h-2.8v-.4h2.8zm3 .3c0-.8.2-1.5.4-1.9.3-.4.7-.7 1.4-.7.6 0 1 .3 1.3.7.2.4.4 1 .4 1.9a4.012 4.012 0 0 1-.4 1.9c-.3.4-.7.6-1.3.6-.7 0-1.1-.2-1.4-.6a3.996 3.996 0 0 1-.4-2v.1zm3 0-.1-1.1c0-.3-.2-.6-.4-.8l-.8-.2c-.3 0-.5 0-.7.3-.2.1-.3.4-.4.7v2.2c0 .3.2.5.4.7.2.2.4.3.8.3.3 0 .5-.1.7-.3l.4-.7v-1.1h.1zm1.4-1.2c0-.4.1-.8.4-1 .3-.3.7-.4 1.2-.4.3 0 .6 0 .8.2l.5.4.2.7c0 .3-.1.5-.3.8l-.7.4c.3 0 .6.2.8.4.2.2.3.5.3.9s-.2.7-.4 1c-.3.2-.7.4-1.2.4s-.9-.2-1.2-.4c-.3-.3-.5-.6-.5-1.1h.4c0 .3.2.6.4.8.3.2.5.2.9.2s.6 0 .8-.2c.2-.2.3-.5.3-.7 0-.8-.5-1.1-1.5-1.1h-.2v-.4h.2c1 0 1.4-.3 1.4-1 0-.2 0-.4-.3-.6-.1-.2-.4-.3-.7-.3-.3 0-.6.1-.8.3a.998.998 0 0 0-.4.7h-.4zm4.3 3.8-.3-.1v-.6h.5l.1.3v.3h-.3v.1zm0-3-.3-.2v-.5l.3-.1.2.1.1.3v.2l-.3.1v.1zm.9 1.7v-.3l2.5-3.5h.6v3.4h.7v.4h-.7v1.2h-.5v-1.2h-2.6zm2.6-3.2-2 2.8h2v-2.8zm1.9 1.9c0-.8.1-1.5.4-1.9.2-.4.6-.7 1.3-.7.6 0 1 .3 1.3.7.3.4.4 1 .4 1.9a4.012 4.012 0 0 1-.4 1.9c-.2.4-.7.6-1.3.6-.7 0-1.1-.2-1.4-.6a3.997 3.997 0 0 1-.3-2v.1zm2.9 0v-1.1l-.4-.8-.8-.2c-.4 0-.6 0-.8.3-.2.1-.3.4-.3.7l-.1 1v1.2l.4.7c.2.2.4.3.8.3.3 0 .6-.1.8-.3l.3-.7.1-1.1zm-37.8 13.3v6.2h-.8V520h-3.2v2.8h-.8v-6.2h.8v2.7h3.2v-2.7h.8zm1.1 3.8c0-.6.1-1 .3-1.4a2.197 2.197 0 0 1 2-1.2c.5 0 .9.1 1.2.3.3.2.6.4.7.7v-.9h.8v5h-.8v-1a2.005 2.005 0 0 1-.7.7c-.3.2-.7.3-1.1.3a2.194 2.194 0 0 1-2-1.2c-.3-.4-.4-.8-.4-1.3zm4.2 0c0-.4 0-.7-.2-1l-.6-.6c-.3-.2-.5-.3-.9-.3-.3 0-.5.1-.8.3l-.6.6a2 2 0 0 0-.2 1c0 .3 0 .7.2 1l.6.6.8.2c.4 0 .6 0 .9-.2l.6-.7.2-1v.1zm2.7-3.3c-.2 0-.3 0-.4-.2a.49.49 0 0 1-.2-.4l.2-.4.4-.1.3.1.2.4c0 .2 0 .3-.2.4l-.3.2zm.4.8v5h-.9v-5h.9zm2.2.8c.1-.3.3-.5.6-.7.31-.152.655-.221 1-.2v.9h-.2c-1 0-1.4.5-1.4 1.5v2.6h-.8V518h.8v.8-.1zm2.2 1.7c0-.5.1-1 .3-1.4.2-.4.5-.7.9-.9.3-.2.8-.3 1.2-.3.6 0 1.1.2 1.5.5.4.3.7.7.8 1.2h-.9c0-.3-.2-.5-.5-.7-.2-.2-.5-.3-.9-.3s-.8.2-1.1.5c-.3.3-.4.8-.4 1.4 0 .6.1 1 .4 1.3.3.4.7.5 1.1.5.4 0 .7 0 1-.2l.4-.7h1c-.2.5-.5.9-.9 1.2-.4.3-.9.4-1.5.4-.4 0-.9 0-1.2-.3-.4-.2-.7-.5-.9-.9-.2-.4-.3-.8-.3-1.3zm10.2-2.5v5h-.8v-.8c-.2.3-.4.5-.7.6a2.203 2.203 0 0 1-2 0l-.7-.7-.2-1.2v-2.9h.8v2.8c0 .5.1.8.3 1.1.3.3.6.4 1 .4.5 0 .8-.1 1-.4.3-.3.5-.7.5-1.2V518h.8v-.1zm2.4.7v2.9l.1.5.6.1h.6v.7h-.8c-.4 0-.8 0-1-.3-.2-.2-.3-.5-.3-1v-3h-.7v-.6h.7v-1.2h.8v1.2h1.3v.7h-1.3zm11.2-.7-1.6 5h-.6l-1.3-4.2-1.4 4.1h-.6l-1.6-4.9h.7l1.2 4.3 1.4-4.3h.6l1.3 4.3 1.3-4.3h.6zm1.2-.9-.4-.1v-.7l.4-.1.3.1.1.3-.1.4-.3.1zm.3 1v4.8h-.6V518h.6zm2.2.5v3c0 .3 0 .5.2.6l.6.2h.6v.5h-.7c-.4 0-.8 0-1-.3-.2-.2-.3-.5-.3-1v-3h-.7v-.6h.7v-1.2h.6v1.2h1.4v.6h-1.4zm4.8-.7c.3 0 .7.1 1 .3.3.1.5.4.7.7l.2 1.2v2.8h-.6V520c0-.5-.1-1-.4-1.2-.3-.3-.6-.4-1-.4-.6 0-1 .1-1.2.4-.3.3-.4.8-.4 1.4v2.6h-.7v-6.6h.7v2.6c.1-.3.3-.6.6-.7l1-.3h.1zm8.9-1.2v4.6c0 .5-.2 1-.5 1.2-.3.3-.7.5-1.3.5-.5 0-1-.2-1.2-.5-.3-.3-.5-.7-.5-1.3h.8c0 .3.1.6.3.8.1.2.3.3.6.3.4 0 .6-.1.7-.3.2-.2.3-.4.3-.7v-4.6h.8zm3.8 6.3c-.5 0-1 0-1.3-.3-.4-.2-.7-.5-.9-.9-.2-.4-.3-.8-.3-1.3s.1-1 .3-1.4c.2-.4.5-.7 1-.9.3-.2.7-.3 1.2-.3s.9.1 1.3.3c.3.2.6.5.9 1 .2.3.3.8.3 1.3s-.1 1-.4 1.3c-.2.4-.5.7-.9.9-.3.2-.8.3-1.2.3zm0-.7c.3 0 .5 0 .8-.2l.6-.6c.2-.3.2-.6.2-1s0-.8-.2-1c-.1-.3-.3-.5-.6-.7l-.8-.2-.8.2c-.3.2-.5.4-.6.7a1.991 1.991 0 0 0-.3 1c0 .4.1.7.3 1 .1.3.3.5.5.6l.9.2zm6-4.4c.4 0 .7.1 1 .3.3.1.6.4.7.7.2.3.3.7.3 1.1v3h-.8V520c0-.4-.1-.8-.4-1-.2-.3-.6-.5-1-.5s-.8.2-1 .4c-.3.3-.4.7-.4 1.2v2.7h-.8v-6.6h.8v2.4l.7-.6 1-.2h-.1zm5.7 0c.6 0 1.1.2 1.5.6.4.3.6.8.6 1.5v3h-.9V520c0-.4 0-.8-.3-1-.3-.3-.6-.5-1-.5-.5 0-.8.2-1 .4-.3.3-.4.7-.4 1.2v2.7h-.9V518h.9v.7l.6-.6c.31-.152.655-.221 1-.2l-.1-.1z" fill="#232323"/></g><path d="M843.398 522.4c-30.6 19-222.2 75.6-192 8.5 28-62 90.5 51 21 96.6-32.2 21.1-136.5 49-223.5-21.6" stroke="#631AB8" stroke-dasharray="5 5"/><path d="M109.801 426.8c6.6 0 11.8.8 15.7 6.6a58.592 58.592 0 0 1 9.2 20.7c2.7 12.2 5.4 24.5 6.6 37 .7 7.2 2.7 14.1 3.7 21.3 1 7.5 2.7 14.7 4.7 22 3.5 12.6 7 25 13.6 36.4a95.989 95.989 0 0 0 28.5 32.4c11 7.7 25.3 9.4 38.3 9.4 38 0 69.2-22.5 104.5-33a117.007 117.007 0 0 1 67.4-2.6c8.7 2.6 21.2 7.3 24 17.2" stroke="#631AB8" stroke-linecap="round" stroke-dasharray="5 5"/><g><g filter="url(#p)"><path d="m277.125 89.546-55.856 4.004a8 8 0 0 0-7.408 8.552l4.004 55.856a8 8 0 0 0 8.551 7.408l55.857-4.004a8 8 0 0 0 7.408-8.552l-4.004-55.856a8 8 0 0 0-8.552-7.408z" fill="#fff"/></g><path d="m259.298 110.4.6 8.6-17.2 1.2 1.1 15.8-8.6.6-1.5-21.5a2.899 2.899 0 0 1 2.6-3l23-1.7z" fill="#4285F4"/><path d="m261.6 143.4-.6-8.6 8.6-.6-8 9.2z" fill="#EA4435"/><path d="m268.401 117-8.6.6 1.2 17.2 8.6-.6-1.2-17.3v.1z" fill="#FFBA00"/><path d="m261.601 143.4-.6-8.6-17.2 1.2.6 8.6 17.2-1.2z" fill="#00AC47"/><path d="m268.001 112.6.5 5.8-8.6.6-.6-8.6 5.7-.4a2.9 2.9 0 0 1 3 2.6z" fill="#0066DA"/><path d="m243.799 136 .6 8.6-5.7.4a2.9 2.9 0 0 1-3-2.6l-.5-5.8 8.6-.6z" fill="#188038"/><path d="M251.498 129c.1 1.4-.7 2.7-2.9 2.9-.7 0-1.5 0-2.2-.4l-.1-.1.3-1.2.2.1c.5.3 1.1.4 1.7.4a1.692 1.692 0 0 0 1.2-.6 1.194 1.194 0 0 0 .3-1c0-1-1-1.3-2-1.2h-.7l-.1-1.1h.8c.6-.1 1.6-.5 1.5-1.4 0-.6-.5-1-1.3-.9-.5 0-1 .3-1.5.6l-.1.2-.5-1.1v-.1a3.997 3.997 0 0 1 2.2-.8c1.7-.2 2.6.8 2.6 1.9a2.006 2.006 0 0 1-1 2 2.199 2.199 0 0 1 1.6 1.9v-.1zm3.9-6.1.6 8.3-1.4.1-.5-6.9-1.3.9-.4-1.2 2-1.1 1-.1z" fill="#4285F4"/></g><g><g filter="url(#q)"><path d="m818.423 121.204-55.28-8.954a8 8 0 0 0-9.176 6.619l-8.953 55.279a7.998 7.998 0 0 0 6.618 9.176l55.279 8.954a8.001 8.001 0 0 0 9.177-6.618l8.953-55.28a8 8 0 0 0-6.618-9.176z" fill="#fff"/></g><mask id="r" style="mask-type:luminance" maskUnits="userSpaceOnUse" x="762" y="127" width="45" height="50"><path d="m769.738 127.473 36.524 5.915-7.034 43.434-36.524-5.915 7.034-43.434z" fill="#fff"/></mask><g mask="url(#r)"><path d="M789.103 169c.2-.3 5-29.5 5-30.2l-15.4 1.2-3.4 20.5-8.1 1.8v-.3l4-25h.4l23.1-4.7h.8l11.4 5.4.2.1-5.7 35-3.6.5-9 1c-.3 0-.6 0-.8-.2l-20.2-11.4a1.01 1.01 0 0 1-.3-.3l21.5 6.6h.1z" fill="#DC3E15"/></g></g><g><g filter="url(#s)"><path d="m887.901 494.348-55.951-2.346a8 8 0 0 0-8.328 7.658l-2.345 55.951a8 8 0 0 0 7.658 8.328l55.951 2.345a8 8 0 0 0 8.328-7.658l2.345-55.95a8 8 0 0 0-7.658-8.328z" fill="#fff"/></g><mask id="t" style="mask-type:luminance" maskUnits="userSpaceOnUse" x="835" y="506" width="47" height="47"><path d="m837.641 506.533 43.961 1.843-1.842 43.961-43.962-1.842 1.843-43.962z" fill="#fff"/></mask><g mask="url(#t)"><path d="m860.501 500.6-23.6-1a2.002 2.002 0 0 0-2 1.8l-.1 2.2 13.1 4.7 14.3-3.5.1-2.2a2.004 2.004 0 0 0-1.8-2z" fill="#0364B8"/><path d="m863.798 521.9.6-2a1.006 1.006 0 0 0-.5-.7l-14.5-9.1a2.003 2.003 0 0 0-2.3-.1l-15.2 7.9c-.2 0-.3.1-.4.3l-.1.4c0 .7.2 1.3.4 2l15.3 12.2 16.7-10.9z" fill="#0A2767"/><path d="m853.998 504.4-9.6-.4-3 4 2.6 4.3 9.3 8.6 8.3.4.3-8.3-7.9-8.6z" fill="#28A8EA"/><path d="m834.798 503.6 9.6.4-.4 8.3-9.6-.4.4-8.3z" fill="#0078D4"/><path d="m853.999 504.4 8.3.4-.4 8.2-8.2-.3.3-8.3z" fill="#50D9FF"/><path d="m853.298 521-9.3-8.7-9.6-.4-.3 8.2 9.3 8.7 14.8 3-4.9-10.9v.1z" fill="#0364B8"/><path d="m843.999 512.3 9.7.4-.4 8.2-9.6-.4.3-8.2z" fill="#0078D4"/><path d="m834.001 520.1 9.7.4-.3 8.3-9.6-.4.3-8.3h-.1z" fill="#064A8C"/><path d="m853.3 521 8.3.3-.4 8.2-8.2-.3.3-8.3v.1z" fill="#0078D4"/><path opacity=".5" d="M847.6 532 832 519.5l.7-1.2 14.7 9.2a.693.693 0 0 0 .6 0l15.3-8 .7 1.3-16.3 11.2h-.1z" fill="#0A2767"/><path d="m863.898 520.8-15.3 7.8a1.995 1.995 0 0 1-2 0l5 7.3 11.2 2.9a2.001 2.001 0 0 0 .9-1.6l.7-17.2a1.006 1.006 0 0 1-.5.8z" fill="#1490DF"/><path opacity=".1" d="M863.698 537.2v-1l-13.4-8.4-1.7.9a1.995 1.995 0 0 1-2 0l5 7.2 11.1 2.9a2.002 2.002 0 0 0 1-1.6z" fill="#000"/><path opacity=".1" d="m863.598 537.7-14.7-9.2-.3.2a1.995 1.995 0 0 1-2 0l5 7.2 11.2 2.9c.3-.3.6-.6.8-1.1z" fill="#000"/><path d="M831.799 519.5a.901.901 0 0 1-.4-.9l-.7 17.2a2.001 2.001 0 0 0 .5 1.5 1.996 1.996 0 0 0 1.5.7l28.8 1.1a2.1 2.1 0 0 0 1.2-.3l-30.9-19.3z" fill="#28A8EA"/><path opacity=".1" d="m844.601 531.1 1-22.4a1.807 1.807 0 0 0-1.062-1.846 1.802 1.802 0 0 0-.738-.154l-9.1-.3-.4 10.2-2.4 1.3a.998.998 0 0 0-.5.7l-.6 13.8 12 .5a1.8 1.8 0 0 0 1.8-1.8z" fill="#000"/><path opacity=".2" d="m843.201 532.4 1-22.4a1.814 1.814 0 0 0-.451-1.404 1.8 1.8 0 0 0-1.349-.596l-7.8-.2-.3 8.8-2.4 1.3a.994.994 0 0 0-.5.7l-.6 15.2 10.5.4a1.799 1.799 0 0 0 2-1.8h-.1z" fill="#000"/><path opacity=".2" d="m843.298 529.7.8-19.7a1.805 1.805 0 0 0-.417-1.368 1.803 1.803 0 0 0-1.283-.632l-7.8-.2-.3 8.8-2.4 1.3a.997.997 0 0 0-.5.7l-.5 12.4 10.5.4a1.793 1.793 0 0 0 1.368-.417 1.794 1.794 0 0 0 .632-1.283h-.1z" fill="#000"/><path opacity=".2" d="m841.998 529.6.8-19.7a1.785 1.785 0 0 0-.49-1.338 1.81 1.81 0 0 0-1.31-.562l-6.4-.2-.3 8.8-2.4 1.3a.997.997 0 0 0-.5.7l-.5 12.4 9.2.4a1.8 1.8 0 0 0 1.9-1.8z" fill="#000"/><path d="m822.699 507.3 18.3.7a1.806 1.806 0 0 1 1.349.596c.171.189.299.412.376.654.078.242.104.497.075.75l-.8 18.3a1.795 1.795 0 0 1-1.9 1.7l-18.3-.7a1.805 1.805 0 0 1-1.349-.596 1.797 1.797 0 0 1-.451-1.404l.8-18.3a1.79 1.79 0 0 1 1.204-1.602c.223-.078.46-.111.696-.098z" fill="#0078D4"/><path d="M825.898 515c.5-1 1.3-2 2.3-2.5 1.1-.6 2.399-.8 3.599-.7 1.2 0 2.3.3 3.3 1 1 .6 1.701 1.4 2.101 2.4.5 1.1.699 2.4.599 3.6 0 1.2-.299 2.5-.899 3.6-.5 1-1.401 1.8-2.401 2.4-1 .5-2.2.8-3.4.7-1.2 0-2.399-.4-3.399-1s-1.701-1.5-2.101-2.5a7.502 7.502 0 0 1-.699-3.5c0-1.2.4-2.5 1-3.6v.1zm2.099 5.9c.3.6.701 1.2 1.201 1.7.6.4 1.3.6 2 .6.7.1 1.499 0 2.099-.5.6-.4 1-1 1.3-1.6a6.996 6.996 0 0 0 .2-4.6c-.2-.7-.5-1.3-1-1.7-.7-.5-1.4-.8-2.2-.8-.7 0-1.4.2-2 .5-.6.4-.999 1-1.399 1.6a6.6 6.6 0 0 0-.201 4.8z" fill="#fff"/></g></g><g><g filter="url(#u)"><path d="m124.973 369.77-55.85-4.102a8.001 8.001 0 0 0-8.564 7.393l-4.102 55.85a8 8 0 0 0 7.393 8.564l55.85 4.101a8 8 0 0 0 8.564-7.392l4.101-55.85a7.999 7.999 0 0 0-7.392-8.564z" fill="#fff"/></g><path d="m114.598 389.7-.7 8.9c0 .7-.4 1.4-1 2l-21.8 18.8c-.5.5-1.3.7-2 .6l-9-.6a2.4 2.4 0 0 1-2.1-2.6l.6-8.8c0-.8.4-1.5 1-2l21.8-18.8c.6-.5 1.3-.8 2.1-.7l8.8.7c1.4 0 2.4 1.2 2.3 2.5z" fill="#039BE5"/><path d="m112.998 410.5-.6 8.9a2.394 2.394 0 0 1-1.665 2.096 2.404 2.404 0 0 1-.935.104l-8.8-.7c-.8 0-1.5-.4-2-1l-3.6-4.2.5-7.6a4.804 4.804 0 0 1 3.31-4.283 4.79 4.79 0 0 1 1.89-.217l7.6.6 3.7 4.2c.4.6.7 1.3.6 2.1z" fill="#1976D2"/><path d="m79.5 396 .6-8.8a2.402 2.402 0 0 1 2.6-2.2l8.9.6c.7 0 1.4.4 2 1l3.6 4.2-.6 7.7a4.802 4.802 0 0 1-5.1 4.4l-7.7-.5-3.6-4.3c-.5-.5-.8-1.3-.7-2v-.1z" fill="#4DD0E1"/><path d="m92.001 412.6-15.9-1.2c-.8 0-1.5-.8-1.4-1.7l1.1-16c0-.8.9-1.5 1.7-1.4l16 1.2c.8 0 1.5.8 1.4 1.7l-1.1 15.8c0 .9-.9 1.5-1.7 1.5l-.1.1z" fill="#1976D2"/><path d="m88.198 399.4-4.2-.3-.1 2.4 3.8.3v1.6l-4-.3-.1 2.5 4.3.3-.1 1.6-6.2-.5.7-9.6 6 .5-.1 1.5z" fill="#fff"/></g><g><g filter="url(#v)"><path d="m452.888 573.118-54.015 14.777a7.999 7.999 0 0 0-5.606 9.827l14.777 54.015a8 8 0 0 0 9.828 5.606l54.015-14.777a8 8 0 0 0 5.605-9.828l-14.777-54.015a8 8 0 0 0-9.827-5.605z" fill="#fff"/></g><mask id="w" style="mask-type:luminance" maskUnits="userSpaceOnUse" x="404" y="584" width="63" height="62"><path d="m404.68 597.698 48.228-13.193 13.193 48.228-48.228 13.193-13.193-48.228z" fill="#fff"/></mask><g mask="url(#w)"><path fill-rule="evenodd" clip-rule="evenodd" d="m455.398 635.3-27.4 7.5a10.804 10.804 0 0 1-8.231-1.034 10.793 10.793 0 0 1-5.069-6.566l-7.5-27.4a10.784 10.784 0 0 1 1.034-8.231 10.804 10.804 0 0 1 6.566-5.069l27.4-7.5a10.799 10.799 0 0 1 13.3 7.6l7.5 27.4a10.802 10.802 0 0 1-7.6 13.3z" fill="#fff"/><path d="M424.196 603c.2.5.8.7 1.6.5.7-.2 1-.6 1-1.1-.2-.4-.6-.6-1.4-.6h-.9c-1.2.2-1.9-.3-2.1-1.2-.4-1.2.4-2.2 1.8-2.6 1.4-.4 2.6.1 3 1.2l-1.3.3c-.2-.5-.8-.7-1.4-.5-.6.2-1 .6-.9 1.1.2.4.5.6 1.3.5h.8c1.3-.1 2 .3 2.3 1.3.3 1.2-.4 2.2-2 2.7-1.5.4-2.7-.1-3-1.2l1.2-.4zm8.6-2.1-2.2.6v1.6l-1.3.4.4-6.8 1.6-.5 3.8 5.7-1.4.4-.9-1.4zm-2.1-.5 1.6-.4-1.5-2.3-.1 2.7zm6.3 1-1.4-5.2-1.8.5-.3-1 5-1.5.3 1.1-1.9.5 1.5 5.2-1.4.4z" fill="#FF3B30"/><path d="M423.996 610.3c4-1 7.4.9 8.4 4.2.6 2.4 0 4.5-2.8 9.6l-4.2 7.8 11.5-3.1.5 1.9-14.4 3.9-.4-1.5 5.6-10.3c2.2-4.1 2.7-5.7 2.1-7.6-.6-2.4-3-3.8-5.8-3-3 .7-4.6 3.3-3.9 6l-2 .6c-1-3.8 1.3-7.4 5.4-8.5zm13 8.6c-1.8-6.9 0-12.1 5-13.5 5-1.4 9 2.3 11 9.2 1.9 6.9.1 12.1-4.9 13.5-5 1.4-9.1-2.2-11-9.2h-.1zm13.9-3.8c-1.6-5.7-4.8-8.9-8.5-7.8-3.6 1-4.8 5.3-3.2 11 1.6 5.9 4.7 9 8.4 8s4.9-5.3 3.3-11.2z" fill="#000"/></g></g><defs><filter id="a" x="173.801" y="190.6" width="618.102" height="416.7" filterUnits="userSpaceOnUse" color-interpolation-filters="sRGB"><feFlood flood-opacity="0" result="BackgroundImageFix"/><feColorMatrix in="SourceAlpha" values="0 0 0 0 0 0 0 0 0 0 0 0 0 0 0 0 0 0 127 0" result="hardAlpha"/><feOffset dy="4"/><feGaussianBlur stdDeviation="8.5"/><feComposite in2="hardAlpha" operator="out"/><feColorMatrix values="0 0 0 0 0.388235 0 0 0 0 0.101961 0 0 0 0 0.721569 0 0 0 0.15 0"/><feBlend in2="BackgroundImageFix" result="effect1_dropShadow_1080_725"/><feBlend in="SourceGraphic" in2="effect1_dropShadow_1080_725" result="shape"/></filter><filter id="p" x="188.84" y="64.525" width="125.863" height="125.861" filterUnits="userSpaceOnUse" color-interpolation-filters="sRGB"><feFlood flood-opacity="0" result="BackgroundImageFix"/><feColorMatrix in="SourceAlpha" values="0 0 0 0 0 0 0 0 0 0 0 0 0 0 0 0 0 0 127 0" result="hardAlpha"/><feOffset/><feGaussianBlur stdDeviation="12.5"/><feComposite in2="hardAlpha" operator="out"/><feColorMatrix values="0 0 0 0 0.541176 0 0 0 0 0.168627 0 0 0 0 0.886275 0 0 0 0.25 0"/><feBlend in2="BackgroundImageFix" result="effect1_dropShadow_1080_725"/><feBlend in="SourceGraphic" in2="effect1_dropShadow_1080_725" result="shape"/></filter><filter id="q" x="719.91" y="87.147" width="130.234" height="130.235" filterUnits="userSpaceOnUse" color-interpolation-filters="sRGB"><feFlood flood-opacity="0" result="BackgroundImageFix"/><feColorMatrix in="SourceAlpha" values="0 0 0 0 0 0 0 0 0 0 0 0 0 0 0 0 0 0 127 0" result="hardAlpha"/><feOffset/><feGaussianBlur stdDeviation="12.5"/><feComposite in2="hardAlpha" operator="out"/><feColorMatrix values="0 0 0 0 0.541176 0 0 0 0 0.168627 0 0 0 0 0.886275 0 0 0 0.25 0"/><feBlend in2="BackgroundImageFix" result="effect1_dropShadow_1080_725"/><feBlend in="SourceGraphic" in2="effect1_dropShadow_1080_725" result="shape"/></filter><filter id="s" x="796.27" y="466.995" width="124.297" height="124.296" filterUnits="userSpaceOnUse" color-interpolation-filters="sRGB"><feFlood flood-opacity="0" result="BackgroundImageFix"/><feColorMatrix in="SourceAlpha" values="0 0 0 0 0 0 0 0 0 0 0 0 0 0 0 0 0 0 127 0" result="hardAlpha"/><feOffset/><feGaussianBlur stdDeviation="12.5"/><feComposite in2="hardAlpha" operator="out"/><feColorMatrix values="0 0 0 0 0.541176 0 0 0 0 0.168627 0 0 0 0 0.886275 0 0 0 0.25 0"/><feBlend in2="BackgroundImageFix" result="effect1_dropShadow_1080_725"/><feBlend in="SourceGraphic" in2="effect1_dropShadow_1080_725" result="shape"/></filter><filter id="u" x="31.434" y="340.646" width="125.953" height="125.952" filterUnits="userSpaceOnUse" color-interpolation-filters="sRGB"><feFlood flood-opacity="0" result="BackgroundImageFix"/><feColorMatrix in="SourceAlpha" values="0 0 0 0 0 0 0 0 0 0 0 0 0 0 0 0 0 0 127 0" result="hardAlpha"/><feOffset/><feGaussianBlur stdDeviation="12.5"/><feComposite in2="hardAlpha" operator="out"/><feColorMatrix values="0 0 0 0 0.541176 0 0 0 0 0.168627 0 0 0 0 0.886275 0 0 0 0.25 0"/><feBlend in2="BackgroundImageFix" result="effect1_dropShadow_1080_725"/><feBlend in="SourceGraphic" in2="effect1_dropShadow_1080_725" result="shape"/></filter><filter id="v" x="367.98" y="547.832" width="134.797" height="134.796" filterUnits="userSpaceOnUse" color-interpolation-filters="sRGB"><feFlood flood-opacity="0" result="BackgroundImageFix"/><feColorMatrix in="SourceAlpha" values="0 0 0 0 0 0 0 0 0 0 0 0 0 0 0 0 0 0 127 0" result="hardAlpha"/><feOffset/><feGaussianBlur stdDeviation="12.5"/><feComposite in2="hardAlpha" operator="out"/><feColorMatrix values="0 0 0 0 0.541176 0 0 0 0 0.168627 0 0 0 0 0.886275 0 0 0 0.25 0"/><feBlend in2="BackgroundImageFix" result="effect1_dropShadow_1080_725"/><feBlend in="SourceGraphic" in2="effect1_dropShadow_1080_725" result="shape"/></filter></defs></svg>