<svg xmlns="http://www.w3.org/2000/svg" width="1870" height="701.006" viewBox="0 0 1870 701.006"><defs><style>.a,.b{fill:#b079ee;}.a{opacity:0.3;}.b{opacity:0.6;}.c{fill:#8b22e2;}</style></defs><path class="a" d="M0,103.3S70.359,33.45,117.28,33.45c4.314,0,10.4.2,15.947,0,22.068-.8,51.705-1.944,82.432,10.745C261.183,63,306.991,103.3,328.711,103.3,368.774,103.3,509.974.013,592.415.013c13.637,0,43.326-.59,79.43,6.283,23.45,4.465,50.15,8.521,77.064,17.346,20.7,6.788,41.334,17.7,61.912,25.834,160.484,63.468,347.771,165.439,469.646,165.439,27.363,0,52.792-5.239,76.831-11.835,87.993-24.143,155.5-89.592,211.044-132.793,34.149-26.558,66.508-42.148,88.249-42.148,24.177,0,44.723,2.317,87.175,16.056C1779.469,55.75,1870,103.3,1870,103.3v597.7H0Z" transform="translate(0 0)"/><path class="b" d="M0,120.173S57.628,72.3,86.424,55.24c79.833-47.3,148.148-63,190.316-51.77,24.9,6.629,47.139,13.834,64.4,22.166,42.4,20.468,63.056,42.638,79.738,42.638,17.611,0,53.268-33.956,86.2-50.055a73.869,73.869,0,0,1,31.849-7.211c6.685,0,27.826-2.966,45.065,3.6C630.539,32.34,829.9,145.878,829.9,145.878s77.452,44.99,105.1,49.166c75.211,11.361,118.569-22.407,161.194-39.6,87.438-35.27,223.665-107.931,255.173-107.931,8.56,0,31.506-2.127,65.439,13.058,49.334,22.077,230.7,151.08,230.7,151.08s70.349-11.762,96.413-16.606c48.349-8.985,71.468-39.919,88.672-49.166s17.2-9.247,19.282-10.34S1870,120.173,1870,120.173V668.006H0Z" transform="translate(0 32)"/><path class="c" d="M0,145.866S31.058,85.018,48.76,64c31.072-36.889,66.43-52.272,92.978-52.272,62.51,0,214.736,94.661,259.518,103.754S714.137,1.059,766.992,1.059c11.631,0,51.177-5.259,101.338,7.659,24.037,6.19,152.238,55.816,173.33,61.781,119.854,33.9,134.342,44.984,163.613,44.984,18.176,0,78.048,6.129,155.594-14.616,58.424-15.63,130.952-57.08,180.422-68.693a377.393,377.393,0,0,1,88.083-9.947c29.422,0,133.1-1.2,178.386,38.078S1870,140.219,1870,140.219V607.006H0Z" transform="translate(0 93)"/></svg>