<svg xmlns="http://www.w3.org/2000/svg" width="306.123" height="371.191" viewBox="0 0 306.123 371.191"><defs><style>.a{fill:#1a2e35;}.b{fill:#f5f5f5;}.c{fill:#ff4f5b;}.d{fill:#d7fbff;}.e{opacity:0.6;}.f{fill:#b5e6bd;}.g{fill:#b5e5bd;}.h{fill:#8b22e2;}.i{fill:#fa0;}.j{fill:#fff;}.k,.n{opacity:0.1;}.l{opacity:0.3;}.m{fill:#eaaa7f;}.o{fill:#ba7343;}.p{fill:#f2866d;}.q,.r{fill:none;stroke:#ba7343;stroke-miterlimit:10;}.r{stroke-width:0.84px;}</style></defs><path class="a" d="M408.185,182.2s-10.33,11.753-6.8,24.666,15.859,18.722,5.171,26.973-1.5,18.558,7.793,15.661,37.409-10.382,37.409-10.382l5.094-38.541-34.522-28.547Z" transform="translate(-284.285 -166.977)"/><g transform="translate(29.275 50.604)"><path class="b" d="M252.177,258.372h37.729s-3.336-6.072-13.048-5.188c-9.275.844-9.746-2.987-14.462-3.458S253.749,252.87,252.177,258.372Z" transform="translate(-252.177 -249.685)"/></g><g transform="translate(0 86.448)"><g transform="translate(0 0)"><g transform="translate(284.34 142.39)"><path class="c" d="M687.207,557.727a10.16,10.16,0,0,1,.06-4.186,10.162,10.162,0,0,1-.06,4.186Z" transform="translate(-687.018 -553.541)"/></g><g transform="translate(283.931 150.76)"><path class="c" d="M686.434,571.986a10.165,10.165,0,0,1,.3-4.176,10.163,10.163,0,0,1-.3,4.176Z" transform="translate(-686.32 -567.81)"/></g><g transform="translate(282.996 159.101)"><path class="c" d="M684.8,586.181a10.147,10.147,0,0,1,.548-4.151,10.172,10.172,0,0,1-.548,4.151Z" transform="translate(-684.727 -582.03)"/></g><g transform="translate(281.554 167.384)"><path class="c" d="M682.323,600.263a10.159,10.159,0,0,1,.792-4.111,10.159,10.159,0,0,1-.792,4.111Z" transform="translate(-682.269 -596.151)"/></g><g transform="translate(279.62 175.58)"><path class="c" d="M679.013,614.183a10.167,10.167,0,0,1,1.034-4.057,10.168,10.168,0,0,1-1.034,4.057Z" transform="translate(-678.971 -610.125)"/></g><g transform="translate(277.202 183.661)"><path class="c" d="M674.882,627.891a10.158,10.158,0,0,1,1.273-3.989,10.165,10.165,0,0,1-1.273,3.989Z" transform="translate(-674.849 -623.901)"/></g><g transform="translate(274.311 191.598)"><path class="c" d="M669.946,641.34a10.168,10.168,0,0,1,1.507-3.906,10.17,10.17,0,0,1-1.507,3.906Z" transform="translate(-669.919 -637.432)"/></g><g transform="translate(270.958 199.363)"><path class="c" d="M664.225,654.481a10.158,10.158,0,0,1,1.736-3.81,10.149,10.149,0,0,1-1.736,3.81Z" transform="translate(-664.203 -650.67)"/></g><g transform="translate(267.156 206.928)"><path class="c" d="M657.741,667.271a10.158,10.158,0,0,1,1.957-3.7,5.188,5.188,0,0,1-.786,1.952C658.371,666.546,657.846,667.329,657.741,667.271Z" transform="translate(-657.722 -663.568)"/></g><g transform="translate(262.921 214.268)"><path class="c" d="M650.518,679.663a5.246,5.246,0,0,1,.9-1.9c.6-.987,1.168-1.737,1.272-1.676a5.184,5.184,0,0,1-.9,1.9C651.19,678.977,650.62,679.727,650.518,679.663Z" transform="translate(-650.502 -676.081)"/></g><g transform="translate(258.269 221.358)"><path class="c" d="M642.585,691.617a5.227,5.227,0,0,1,1.01-1.846c.656-.95,1.269-1.665,1.369-1.6a5.2,5.2,0,0,1-1.01,1.846C643.3,690.971,642.683,691.687,642.585,691.617Z" transform="translate(-642.571 -688.169)"/></g><g transform="translate(253.217 228.174)"><path class="c" d="M633.969,703.092a5.235,5.235,0,0,1,1.116-1.783c.71-.91,1.364-1.588,1.46-1.515a5.2,5.2,0,0,1-1.116,1.783C634.716,702.489,634.063,703.167,633.969,703.092Z" transform="translate(-633.958 -699.788)"/></g><g transform="translate(247.783 234.693)"><path class="c" d="M624.7,714.049c-.089-.081.457-.849,1.219-1.715s1.454-1.5,1.546-1.427-.453.845-1.218,1.714S624.793,714.13,624.7,714.049Z" transform="translate(-624.694 -710.901)"/></g><g transform="translate(241.986 240.892)"><path class="c" d="M614.82,724.452c-.084-.086.505-.821,1.316-1.641s1.54-1.417,1.627-1.334-.5.818-1.317,1.641S614.9,724.538,614.82,724.452Z" transform="translate(-614.812 -721.47)"/></g><g transform="translate(235.847 246.752)"><path class="c" d="M604.352,734.266c-.079-.091.553-.79,1.41-1.561s1.62-1.324,1.7-1.236-.549.786-1.41,1.56S604.432,734.357,604.352,734.266Z" transform="translate(-604.346 -731.46)"/></g><g transform="translate(229.386 252.252)"><path class="c" d="M593.337,743.458c-.074-.1.6-.756,1.5-1.475a5.228,5.228,0,0,1,1.771-1.135c.077.093-.594.753-1.5,1.475A5.2,5.2,0,0,1,593.337,743.458Z" transform="translate(-593.332 -740.836)"/></g><g transform="translate(222.625 257.373)"><path class="c" d="M581.81,751.994c-.068-.1.641-.72,1.583-1.385a5.237,5.237,0,0,1,1.834-1.029c.071.1-.637.717-1.583,1.385A5.184,5.184,0,0,1,581.81,751.994Z" transform="translate(-581.805 -749.567)"/></g><g transform="translate(215.587 262.097)"><path class="c" d="M569.81,759.845c-.062-.1.682-.681,1.661-1.29a5.215,5.215,0,0,1,1.892-.919c.065.1-.679.678-1.662,1.29A5.2,5.2,0,0,1,569.81,759.845Z" transform="translate(-569.806 -757.621)"/></g><g transform="translate(208.294 266.407)"><path class="c" d="M557.376,766.982a10.153,10.153,0,0,1,3.677-2c.059.1-.717.638-1.734,1.189A5.194,5.194,0,0,1,557.376,766.982Z" transform="translate(-557.373 -764.968)"/></g><g transform="translate(200.773 270.286)"><path class="c" d="M544.553,773.379a10.141,10.141,0,0,1,3.788-1.776,10.145,10.145,0,0,1-3.788,1.776Z" transform="translate(-544.55 -771.582)"/></g><g transform="translate(193.047 273.72)"><path class="c" d="M531.381,779.011a10.138,10.138,0,0,1,3.887-1.548,10.144,10.144,0,0,1-3.887,1.548Z" transform="translate(-531.379 -777.437)"/></g><g transform="translate(185.144 276.696)"><path class="c" d="M517.907,783.856a10.128,10.128,0,0,1,3.972-1.316,10.154,10.154,0,0,1-3.972,1.316Z" transform="translate(-517.906 -782.509)"/></g><g transform="translate(177.091 279.2)"><path class="c" d="M504.178,787.9a10.143,10.143,0,0,1,4.043-1.078,10.142,10.142,0,0,1-4.043,1.078Z" transform="translate(-504.178 -786.779)"/></g><g transform="translate(168.917 281.224)"><path class="c" d="M490.242,791.117a10.128,10.128,0,0,1,4.1-.836,10.161,10.161,0,0,1-4.1.836Z" transform="translate(-490.241 -790.229)"/></g><g transform="translate(160.649 282.757)"><path class="c" d="M476.147,793.505a10.139,10.139,0,0,1,4.144-.593,10.168,10.168,0,0,1-4.144.593Z" transform="translate(-476.147 -792.842)"/></g><g transform="translate(152.318 283.787)"><path class="c" d="M461.944,795.051a10.157,10.157,0,0,1,4.172-.349,10.156,10.156,0,0,1-4.172.349Z" transform="translate(-461.944 -794.598)"/></g><g transform="translate(143.953 284.295)"><path class="c" d="M447.682,795.742a10.146,10.146,0,0,1,4.185-.106,10.174,10.174,0,0,1-4.185.106Z" transform="translate(-447.682 -795.464)"/></g><g transform="translate(135.581 284.26)"><path class="c" d="M433.41,795.564a10.158,10.158,0,0,1,4.185.137,10.161,10.161,0,0,1-4.185-.137Z" transform="translate(-433.41 -795.404)"/></g><g transform="translate(127.232 283.682)"><path class="c" d="M419.177,794.519a10.161,10.161,0,0,1,4.169.38,10.164,10.164,0,0,1-4.169-.38Z" transform="translate(-419.177 -794.42)"/></g><g transform="translate(118.936 282.586)"><path class="c" d="M405.033,792.619a10.16,10.16,0,0,1,4.14.625,10.162,10.162,0,0,1-4.14-.625Z" transform="translate(-405.032 -792.552)"/></g><g transform="translate(110.721 280.989)"><path class="c" d="M391.028,789.878a10.148,10.148,0,0,1,4.1.868,10.175,10.175,0,0,1-4.1-.868Z" transform="translate(-391.027 -789.829)"/></g><g transform="translate(102.615 278.902)"><path class="c" d="M377.209,786.308a10.16,10.16,0,0,1,4.037,1.109,10.16,10.16,0,0,1-4.037-1.109Z" transform="translate(-377.208 -786.27)"/></g><g transform="translate(94.649 276.333)"><path class="c" d="M363.629,781.922a10.156,10.156,0,0,1,3.963,1.347,10.155,10.155,0,0,1-3.963-1.347Z" transform="translate(-363.628 -781.891)"/></g><g transform="translate(86.852 273.296)"><path class="c" d="M350.337,776.739a10.142,10.142,0,0,1,3.874,1.578,10.132,10.132,0,0,1-3.874-1.578Z" transform="translate(-350.335 -776.714)"/></g><g transform="translate(79.246 269.801)"><path class="c" d="M337.37,770.776a10.15,10.15,0,0,1,3.777,1.806,10.175,10.175,0,0,1-3.777-1.806Z" transform="translate(-337.368 -770.755)"/></g><g transform="translate(71.86 265.862)"><path class="c" d="M324.78,764.057a5.233,5.233,0,0,1,1.937.822c1.01.559,1.783,1.1,1.726,1.2a5.2,5.2,0,0,1-1.937-.822C325.493,764.7,324.72,764.161,324.78,764.057Z" transform="translate(-324.776 -764.039)"/></g><g transform="translate(64.721 261.494)"><path class="c" d="M312.609,756.607a5.229,5.229,0,0,1,1.885.934c.975.617,1.715,1.2,1.652,1.3a5.2,5.2,0,0,1-1.885-.934C313.283,757.291,312.543,756.708,312.609,756.607Z" transform="translate(-312.605 -756.592)"/></g><g transform="translate(57.85 256.714)"><path class="c" d="M300.9,748.456a5.237,5.237,0,0,1,1.827,1.043c.937.673,1.641,1.3,1.573,1.4a5.2,5.2,0,0,1-1.827-1.044C301.53,749.179,300.825,748.553,300.9,748.456Z" transform="translate(-300.892 -748.444)"/></g><g transform="translate(51.273 251.54)"><path class="c" d="M289.685,739.633a5.237,5.237,0,0,1,1.763,1.148c.9.727,1.562,1.393,1.488,1.488a5.192,5.192,0,0,1-1.763-1.148C290.274,740.392,289.607,739.726,289.685,739.633Z" transform="translate(-289.679 -739.623)"/></g><g transform="translate(45.01 245.99)"><path class="c" d="M279.009,730.17c.083-.087.841.472,1.692,1.25s1.478,1.482,1.4,1.572-.837-.469-1.692-1.25S278.926,730.257,279.009,730.17Z" transform="translate(-279.001 -730.161)"/></g><g transform="translate(39.082 240.083)"><path class="c" d="M268.9,720.1c.088-.082.811.52,1.616,1.347s1.388,1.565,1.3,1.651-.808-.517-1.616-1.346S268.818,720.181,268.9,720.1Z" transform="translate(-268.896 -720.091)"/></g><g transform="translate(33.511 233.841)"><path class="c" d="M259.408,709.456c.093-.077.78.567,1.534,1.438s1.295,1.644,1.2,1.724-.777-.564-1.534-1.439S259.316,709.533,259.408,709.456Z" transform="translate(-259.398 -709.449)"/></g><g transform="translate(28.314 227.284)"><path class="c" d="M250.55,698.275c.1-.072.745.611,1.448,1.526a5.216,5.216,0,0,1,1.1,1.791c-.094.075-.742-.608-1.448-1.526A5.2,5.2,0,0,1,250.55,698.275Z" transform="translate(-250.538 -698.27)"/></g><g transform="translate(23.51 220.433)"><path class="c" d="M242.363,686.6c.1-.066.708.654,1.356,1.608a5.22,5.22,0,0,1,.995,1.853c-.1.07-.705-.651-1.356-1.608A5.194,5.194,0,0,1,242.363,686.6Z" transform="translate(-242.349 -686.591)"/></g><g transform="translate(19.117 213.312)"><path class="c" d="M234.876,674.455c.1-.06.668.694,1.259,1.685a5.218,5.218,0,0,1,.884,1.908c-.1.064-.666-.69-1.259-1.685A5.2,5.2,0,0,1,234.876,674.455Z" transform="translate(-234.86 -674.451)"/></g><g transform="translate(15.15 205.945)"><path class="c" d="M228.116,661.894a10.144,10.144,0,0,1,1.927,3.713,10.144,10.144,0,0,1-1.927-3.713Z" transform="translate(-228.096 -661.892)"/></g><g transform="translate(11.624 198.357)"><path class="c" d="M222.109,648.957a10.142,10.142,0,0,1,1.705,3.82,10.142,10.142,0,0,1-1.705-3.82Z" transform="translate(-222.085 -648.955)"/></g><g transform="translate(8.553 190.572)"><path class="c" d="M216.877,635.685a10.139,10.139,0,0,1,1.476,3.915,10.148,10.148,0,0,1-1.476-3.915Z" transform="translate(-216.849 -635.684)"/></g><g transform="translate(5.946 182.619)"><path class="c" d="M212.439,622.125a10.145,10.145,0,0,1,1.241,4,10.146,10.146,0,0,1-1.241-4Z" transform="translate(-212.404 -622.124)"/></g><g transform="translate(3.812 174.525)"><path class="c" d="M208.811,608.327a10.131,10.131,0,0,1,1,4.063,10.164,10.164,0,0,1-1-4.063Z" transform="translate(-208.767 -608.326)"/></g><g transform="translate(2.157 166.318)"><path class="c" d="M206,594.335a10.136,10.136,0,0,1,.76,4.116,10.172,10.172,0,0,1-.76-4.116Z" transform="translate(-205.946 -594.334)"/></g><g transform="translate(0.981 158.027)"><path class="c" d="M204.018,580.2a10.151,10.151,0,0,1,.516,4.154,10.151,10.151,0,0,1-.516-4.154Z" transform="translate(-203.94 -580.2)"/></g><g transform="translate(0.273 149.683)"><path class="c" d="M202.853,565.974a10.152,10.152,0,0,1,.272,4.177,10.151,10.151,0,0,1-.272-4.177Z" transform="translate(-202.732 -565.974)"/></g><g transform="translate(0 141.312)"><path class="c" d="M202.481,551.7a5.489,5.489,0,0,1,.225,2.092,5.21,5.21,0,0,1-.2,2.095,5.216,5.216,0,0,1-.24-2.092A4.98,4.98,0,0,1,202.481,551.7Z" transform="translate(-202.268 -551.703)"/></g><g transform="translate(0.169 132.944)"><path class="c" d="M202.9,537.438a10.164,10.164,0,0,1-.214,4.181,10.164,10.164,0,0,1,.214-4.181Z" transform="translate(-202.556 -537.438)"/></g><g transform="translate(0.767 124.608)"><path class="c" d="M204.118,523.227a10.162,10.162,0,0,1-.457,4.162,10.16,10.16,0,0,1,.457-4.162Z" transform="translate(-203.575 -523.227)"/></g><g transform="translate(1.829 116.335)"><path class="c" d="M206.148,509.122a10.143,10.143,0,0,1-.7,4.127,10.17,10.17,0,0,1,.7-4.127Z" transform="translate(-205.385 -509.121)"/></g><g transform="translate(3.368 108.15)"><path class="c" d="M209,495.17a10.136,10.136,0,0,1-.944,4.078A10.162,10.162,0,0,1,209,495.17Z" transform="translate(-208.01 -495.169)"/></g><g transform="translate(5.387 100.086)"><path class="c" d="M212.673,481.421a10.16,10.16,0,0,1-1.184,4.016,10.152,10.152,0,0,1,1.184-4.016Z" transform="translate(-211.452 -481.42)"/></g><g transform="translate(7.882 92.169)"><path class="c" d="M217.155,467.924a10.151,10.151,0,0,1-1.421,3.938,10.15,10.15,0,0,1,1.421-3.938Z" transform="translate(-215.705 -467.922)"/></g><g transform="translate(10.845 84.426)"><path class="c" d="M222.432,454.725a10.153,10.153,0,0,1-1.651,3.847,10.153,10.153,0,0,1,1.651-3.847Z" transform="translate(-220.756 -454.722)"/></g><g transform="translate(14.264 76.887)"><path class="c" d="M228.483,441.872a10.148,10.148,0,0,1-1.876,3.742,10.146,10.146,0,0,1,1.876-3.742Z" transform="translate(-226.586 -441.869)"/></g><g transform="translate(18.129 69.576)"><path class="c" d="M235.286,429.409a5.229,5.229,0,0,1-.858,1.921c-.577,1-1.13,1.762-1.235,1.7a5.185,5.185,0,0,1,.858-1.922C234.63,430.11,235.183,429.347,235.286,429.409Z" transform="translate(-233.175 -429.406)"/></g><g transform="translate(22.425 62.518)"><path class="c" d="M242.815,417.378a5.236,5.236,0,0,1-.97,1.868c-.635.964-1.232,1.692-1.333,1.628a5.188,5.188,0,0,1,.969-1.868C242.119,418.039,242.716,417.31,242.815,417.378Z" transform="translate(-240.498 -417.374)"/></g><g transform="translate(27.134 55.738)"><path class="c" d="M251.043,405.819a5.234,5.234,0,0,1-1.077,1.807c-.69.925-1.329,1.617-1.427,1.547a5.187,5.187,0,0,1,1.077-1.807C250.309,406.438,250.948,405.746,251.043,405.819Z" transform="translate(-248.526 -405.814)"/></g><g transform="translate(32.24 49.257)"><path class="c" d="M259.938,394.771a5.216,5.216,0,0,1-1.181,1.741c-.743.883-1.421,1.536-1.515,1.461s.435-.856,1.181-1.741S259.847,394.692,259.938,394.771Z" transform="translate(-257.232 -394.765)"/></g><g transform="translate(37.725 43.097)"><path class="c" d="M269.47,384.272c.086.084-.487.831-1.281,1.668s-1.508,1.451-1.6,1.369.484-.828,1.281-1.669S269.384,384.188,269.47,384.272Z" transform="translate(-266.583 -384.265)"/></g><g transform="translate(43.57 37.28)"><path class="c" d="M279.6,374.356c.081.089-.535.8-1.375,1.591s-1.591,1.36-1.675,1.273.532-.8,1.376-1.591S279.524,374.266,279.6,374.356Z" transform="translate(-276.547 -374.346)"/></g><g transform="translate(49.754 31.824)"><path class="c" d="M290.309,365.056c.076.094-.581.769-1.466,1.508a5.223,5.223,0,0,1-1.746,1.173c-.079-.091.578-.766,1.467-1.508S290.233,364.962,290.309,365.056Z" transform="translate(-287.09 -365.045)"/></g><g transform="translate(56.258 26.749)"><path class="c" d="M301.546,356.406c.07.1-.625.734-1.553,1.419a5.226,5.226,0,0,1-1.811,1.069c-.073-.1.622-.731,1.552-1.42A5.2,5.2,0,0,1,301.546,356.406Z" transform="translate(-298.177 -356.393)"/></g><g transform="translate(63.057 22.073)"><path class="c" d="M313.278,348.436c.065.1-.667.7-1.632,1.326a5.226,5.226,0,0,1-1.871.96c-.067-.1.663-.693,1.633-1.326A5.186,5.186,0,0,1,313.278,348.436Z" transform="translate(-309.77 -348.421)"/></g><g transform="translate(70.132 17.812)"><path class="c" d="M325.466,341.176c.058.106-.707.655-1.708,1.227a5.212,5.212,0,0,1-1.924.849c-.062-.1.7-.653,1.708-1.227A5.186,5.186,0,0,1,325.466,341.176Z" transform="translate(-321.83 -341.158)"/></g><g transform="translate(77.456 13.983)"><path class="c" d="M338.068,334.65a10.17,10.17,0,0,1-3.748,1.858,10.144,10.144,0,0,1,3.748-1.858Z" transform="translate(-334.317 -334.629)"/></g><g transform="translate(85.007 10.599)"><path class="c" d="M351.044,328.885a10.136,10.136,0,0,1-3.851,1.634,10.136,10.136,0,0,1,3.851-1.634Z" transform="translate(-347.19 -328.86)"/></g><g transform="translate(92.758 7.672)"><path class="c" d="M364.348,323.9a10.154,10.154,0,0,1-3.942,1.4,10.153,10.153,0,0,1,3.942-1.4Z" transform="translate(-360.404 -323.87)"/></g><g transform="translate(100.683 5.213)"><path class="c" d="M377.935,319.716a10.146,10.146,0,0,1-4.019,1.166,10.148,10.148,0,0,1,4.019-1.166Z" transform="translate(-373.915 -319.679)"/></g><g transform="translate(108.754 3.23)"><path class="c" d="M391.757,316.345a10.151,10.151,0,0,1-4.081.926,10.147,10.147,0,0,1,4.081-.926Z" transform="translate(-387.675 -316.298)"/></g><g transform="translate(116.943 1.726)"><path class="c" d="M405.765,313.8a10.149,10.149,0,0,1-4.129.684,10.145,10.145,0,0,1,4.129-.684Z" transform="translate(-401.635 -313.733)"/></g><g transform="translate(125.22 0.698)"><path class="c" d="M419.91,312.07a10.158,10.158,0,0,1-4.163.439,10.16,10.16,0,0,1,4.163-.439Z" transform="translate(-415.747 -311.981)"/></g><g transform="translate(133.558 0.133)"><path class="c" d="M434.143,311.16a10.152,10.152,0,0,1-4.182.2,10.149,10.149,0,0,1,4.182-.2Z" transform="translate(-429.961 -311.018)"/></g><g transform="translate(141.924)"><path class="c" d="M448.41,311.038a5.235,5.235,0,0,1-2.1.191,5.453,5.453,0,0,1-2.091-.238,5,5,0,0,1,2.1-.2A5.2,5.2,0,0,1,448.41,311.038Z" transform="translate(-444.223 -310.791)"/></g><g transform="translate(150.295 0.298)"><path class="c" d="M462.67,311.706a10.152,10.152,0,0,1-4.176-.29,10.178,10.178,0,0,1,4.176.29Z" transform="translate(-458.494 -311.3)"/></g><g transform="translate(158.638 1.039)"><path class="c" d="M476.87,313.174a10.162,10.162,0,0,1-4.152-.534,10.162,10.162,0,0,1,4.152.534Z" transform="translate(-472.718 -312.563)"/></g><g transform="translate(166.925 2.251)"><path class="c" d="M490.96,315.463a10.162,10.162,0,0,1-4.114-.778,10.165,10.165,0,0,1,4.114.778Z" transform="translate(-486.846 -314.629)"/></g><g transform="translate(175.127 3.942)"><path class="c" d="M504.89,318.574a10.147,10.147,0,0,1-4.061-1.021,10.174,10.174,0,0,1,4.061,1.021Z" transform="translate(-500.829 -317.511)"/></g><g transform="translate(183.216 6.111)"><path class="c" d="M518.612,322.5a10.161,10.161,0,0,1-3.993-1.259,10.151,10.151,0,0,1,3.993,1.259Z" transform="translate(-514.618 -321.209)"/></g><g transform="translate(191.161 8.753)"><path class="c" d="M532.077,327.235a10.151,10.151,0,0,1-3.911-1.494,10.175,10.175,0,0,1,3.911,1.494Z" transform="translate(-528.165 -325.714)"/></g><g transform="translate(198.936 11.861)"><path class="c" d="M545.237,332.758a10.145,10.145,0,0,1-3.816-1.723,10.159,10.159,0,0,1,3.816,1.723Z" transform="translate(-541.42 -331.012)"/></g><g transform="translate(206.514 15.422)"><path class="c" d="M558.048,339.048a10.151,10.151,0,0,1-3.706-1.946,5.206,5.206,0,0,1,1.954.78C557.321,338.42,558.106,338.942,558.048,339.048Z" transform="translate(-554.338 -337.083)"/></g><g transform="translate(213.868 19.424)"><path class="c" d="M570.464,346.082a5.232,5.232,0,0,1-1.905-.893c-.988-.6-1.74-1.163-1.68-1.267a5.208,5.208,0,0,1,1.905.894C569.776,345.413,570.528,345.98,570.464,346.082Z" transform="translate(-566.875 -343.905)"/></g><g transform="translate(220.972 23.851)"><path class="c" d="M582.443,353.834a5.233,5.233,0,0,1-1.849-1c-.952-.653-1.669-1.263-1.6-1.363a5.174,5.174,0,0,1,1.849,1C581.8,353.125,582.513,353.736,582.443,353.834Z" transform="translate(-578.987 -351.453)"/></g><g transform="translate(227.804 28.687)"><path class="c" d="M593.946,362.275a5.231,5.231,0,0,1-1.787-1.11c-.911-.707-1.592-1.358-1.52-1.455a5.188,5.188,0,0,1,1.787,1.11C593.341,361.529,594.021,362.181,593.946,362.275Z" transform="translate(-590.634 -359.697)"/></g><g transform="translate(234.34 33.914)"><path class="c" d="M604.934,371.373c-.08.09-.85-.453-1.719-1.212s-1.51-1.449-1.432-1.542.847.451,1.719,1.213S605.015,371.284,604.934,371.373Z" transform="translate(-601.777 -368.609)"/></g><g transform="translate(240.559 39.515)"><path class="c" d="M615.37,381.1c-.086.084-.822-.5-1.645-1.311s-1.422-1.535-1.339-1.622.819.5,1.645,1.312S615.456,381.014,615.37,381.1Z" transform="translate(-612.378 -378.156)"/></g><g transform="translate(246.438 45.468)"><path class="c" d="M625.219,391.416c-.091.079-.792-.55-1.566-1.4s-1.33-1.615-1.242-1.7.789.547,1.566,1.4S625.309,391.337,625.219,391.416Z" transform="translate(-622.402 -388.307)"/></g><g transform="translate(251.959 51.755)"><path class="c" d="M634.446,402.292c-.1.073-.758-.6-1.481-1.494a5.218,5.218,0,0,1-1.14-1.767c.092-.077.755.592,1.48,1.494A5.2,5.2,0,0,1,634.446,402.292Z" transform="translate(-631.815 -399.025)"/></g><g transform="translate(257.102 58.354)"><path class="c" d="M643.021,413.688c-.1.069-.722-.638-1.39-1.578a5.225,5.225,0,0,1-1.035-1.831c.1-.072.719.635,1.391,1.578A5.2,5.2,0,0,1,643.021,413.688Z" transform="translate(-640.582 -410.275)"/></g><g transform="translate(261.849 65.242)"><path class="c" d="M650.911,425.568c-.1.062-.683-.68-1.3-1.657a5.236,5.236,0,0,1-.926-1.889c.1-.066.681.676,1.3,1.657A5.179,5.179,0,0,1,650.911,425.568Z" transform="translate(-648.675 -422.018)"/></g><g transform="translate(266.183 72.398)"><path class="c" d="M658.09,437.89c-.107.056-.642-.719-1.2-1.73a5.232,5.232,0,0,1-.813-1.94c.1-.06.64.714,1.2,1.73A5.188,5.188,0,0,1,658.09,437.89Z" transform="translate(-656.063 -434.217)"/></g><g transform="translate(270.087 79.797)"><path class="c" d="M664.529,450.615a10.133,10.133,0,0,1-1.788-3.782,10.13,10.13,0,0,1,1.788,3.782Z" transform="translate(-662.72 -446.831)"/></g><g transform="translate(273.547 87.413)"><path class="c" d="M670.205,463.7a10.143,10.143,0,0,1-1.561-3.882,10.148,10.148,0,0,1,1.561,3.882Z" transform="translate(-668.618 -459.815)"/></g><g transform="translate(276.549 95.222)"><path class="c" d="M675.1,477.1a10.144,10.144,0,0,1-1.329-3.968A10.148,10.148,0,0,1,675.1,477.1Z" transform="translate(-673.735 -473.128)"/></g><g transform="translate(279.081 103.195)"><path class="c" d="M679.182,490.763a10.16,10.16,0,0,1-1.092-4.04,10.131,10.131,0,0,1,1.092,4.04Z" transform="translate(-678.052 -486.721)"/></g><g transform="translate(281.132 111.307)"><path class="c" d="M682.45,504.648a10.151,10.151,0,0,1-.851-4.1,10.146,10.146,0,0,1,.851,4.1Z" transform="translate(-681.549 -500.55)"/></g><g transform="translate(282.693 119.527)"><path class="c" d="M684.886,518.705a10.156,10.156,0,0,1-.607-4.141,10.161,10.161,0,0,1,.607,4.141Z" transform="translate(-684.21 -514.563)"/></g><g transform="translate(283.752 127.826)"><path class="c" d="M686.48,532.883a10.152,10.152,0,0,1-.363-4.17,10.149,10.149,0,0,1,.363,4.17Z" transform="translate(-686.015 -528.713)"/></g><g transform="translate(284.29 136.176)"><path class="c" d="M687.219,547.133a10.159,10.159,0,0,1-.119-4.185,10.155,10.155,0,0,1,.119,4.185Z" transform="translate(-686.933 -542.948)"/></g></g><g transform="translate(11.369 11.351)"><g transform="translate(261.925 127.693)"><path class="a" d="M668.187,557c.07-1.5.117-2.979.122-4.466q.034-2.353-.02-4.693.053,2.34.02,4.693C668.3,554.016,668.257,555.5,668.187,557Z" transform="translate(-668.187 -547.836)"/></g><g transform="translate(2.276)"><path class="d" d="M470.766,483.494c-.856-3.057-.684-6.28-1.089-9.419-.217-1.686-.727-3.521-2.142-4.458a24.538,24.538,0,0,0-3.156-1.211c-3.672-1.7-3.944-7.212-7.336-9.4a12.474,12.474,0,0,0-3.543-1.288c-4.781-1.278-9.566-3.688-12.072-7.947a24.048,24.048,0,0,0-2.462-4.128c-1.107-1.187-2.973-1.9-4.333-1.045.73,2.2,1.438,4.4,2.15,6.575a16.324,16.324,0,0,0,2.667,5.6A5.556,5.556,0,0,0,445,458.836a3.819,3.819,0,0,1,2.027-.4,2.109,2.109,0,0,1,1.136.982c2.223,3.317.658,8.057-2.362,10.679-3,2.6-7.039,3.613-10.923,4.538a7.881,7.881,0,0,1-4.22.206c-2.477-.84-3.431-3.806-3.81-6.4-.866-5.741-.8-11.829-3.539-16.96-.877-1.614-2.038-3.145-2.448-4.942-.431-1.949.045-4.08-.829-5.861-.9-1.87-3.2-3.208-3.07-5.284a3.783,3.783,0,0,1,2.882-2.977c1.406-.446,2.91-.417,4.345-.775.567-.148,1.218-.452,1.322-1.024.125-.862-1.015-1.383-1.207-2.228-.2-.951.848-1.659,1.365-2.485,1.133-1.89-.667-4.224-2.58-5.339-1.892-1.112-4.249-2.061-4.908-4.168a11.813,11.813,0,0,1-.232-3.029c-.113-2.552-1.593-5.218-4.037-5.99-2.465-.775-5.58,1.058-5.532,3.621.048,1.411.92,2.627,1.289,3.979.391,1.356-.046,3.22-1.419,3.441-2.25.345-3.753-3.9-5.755-2.8.373,2.631.726,5.26,1.1,7.911-3.04,1.027-6.049-2.069-6.833-5.2-.787-3.11-.341-6.482-1.367-9.522-1.025-3.06-4.6-5.735-7.351-4.08-.652,3.636,3.958,5.811,5.665,9.075,1.231,2.357.5,5.793-1.971,6.818-2.454,1.028-5.7-1.851-4.483-4.21.432-.818,1.255-1.432,1.47-2.344.249-1.137-.582-2.2-1.358-3.067-1.206-1.368-2.415-2.717-3.623-4.065a8.762,8.762,0,0,0-2.668-2.272c-2.714-1.23-5.878.659-7.742,2.966-1.866,2.328-3.138,5.182-5.517,7-3.421,2.648-9.092,2.016-11.417-1.61-2.345-3.629-.036-9.455,4.258-10.028,1.622-.205,3.587.121,4.607-1.136,1.79-2.234-1.864-5.948-.091-8.206,1.361-1.73,4.109-.453,6.3-.787,2.164-.337,3.637-2.261,5.13-3.888,1.469-1.611,3.64-3.141,5.706-2.36a6.645,6.645,0,0,1,.766-3.7c.72-1.069,2.387-1.583,3.306-.7-1.3,1.573-.391,4.155,1.311,5.281s3.866,1.23,5.91,1.295c2.047.045,4.679-.328,5.134-2.316.157-.648.011-1.381.347-1.961,1.229-2.274,5.185,1.672,7.167-.011,1.13-.863.3-2.806-1.027-3.333-1.3-.545-2.794-.236-4.2-.4-1.4-.14-3-1.126-2.861-2.53.138-1.384,1.819-2.146,2.18-3.477.6-2.26-3.214-3.419-4.86-1.75-1.625,1.671-1.524,4.305-1.442,6.643.1,2.34-.083,5.059-2,6.416-.875.984-2.659.139-3.109-1.1-.47-1.241-.124-2.617-.04-3.924.088-1.329-.273-2.889-1.5-3.422a7.029,7.029,0,0,0-2.774-.087c-3.633-.086-5.449-5.063-3.827-8.306,1.6-3.268,5.164-4.995,8.557-6.285,2.482-.94,5.507-1.718,7.6-.1.981.75,1.572,1.883,2.529,2.65,1.652,1.328,3.945,1.262,6.012,1.6a14.4,14.4,0,0,1,8.426,4.76c.8.975,1.462,2.5.6,3.4-.934.954-3.2.856-3,2.164a4.5,4.5,0,0,0,6.1-2.784A3.773,3.773,0,0,1,419.333,378a6.713,6.713,0,0,1,9.633,2.211,8.479,8.479,0,0,0,1.471,2.58c.744.652,2.219.594,2.461-.357a1.983,1.983,0,0,0-.033-.927c-.29-1.467-.6-2.916-.9-4.362,2.057-.75,4.083,1.177,5.127,3.088,3.873,7.119,7.859,3.756,14.48,5.782,4.475,1.36,6.063,4.585,8.135,8.51,6.343,12.064,15.515,22.527,21.069,34.979.587,1.3,1.109,2.611,1.588,3.938-.078-.326-.137-.648-.215-.974a127.73,127.73,0,0,0-7.388-22.8q-1.012-2.347-2.095-4.64c-.45-.945-.917-1.913-1.391-2.841-.6-1.218-1.245-2.4-1.891-3.585-.512-.954-1.026-1.887-1.564-2.8-.368-.64-.757-1.283-1.146-1.926-.4-.728-.839-1.442-1.322-2.161l-1.436-2.24a7.664,7.664,0,0,0-.465-.7c-.494-.784-1.033-1.553-1.571-2.322a.589.589,0,0,0-.156-.232c-.137-.209-.295-.42-.453-.631-.43-.649-.9-1.283-1.357-1.915-.752-1.031-1.525-2.064-2.323-3.06-.65-.869-1.326-1.7-2.022-2.535-.606-.737-1.212-1.474-1.841-2.194-.609-.717-1.22-1.413-1.852-2.112-.755-.863-1.534-1.71-2.333-2.559l-.021,0q-3.292-3.526-6.859-6.754c-.591-.546-1.166-1.069-1.76-1.595-.591-.547-1.209-1.055-1.807-1.561-.618-.509-1.212-1.034-1.833-1.522-.615-.529-1.236-1.017-1.857-1.505-.507-.408-1-.794-1.509-1.161a8.7,8.7,0,0,0-.773-.594c-1.075-.825-2.173-1.634-3.277-2.4-.551-.394-1.1-.788-1.675-1.164-.7-.5-1.43-.982-2.159-1.444a1.855,1.855,0,0,0-.325-.215c-.65-.429-1.3-.859-1.975-1.271-.943-.576-1.886-1.153-2.833-1.709-1.081-.638-2.162-1.276-3.27-1.877-1.222-.679-2.447-1.338-3.7-1.959-1.248-.642-2.52-1.266-3.795-1.869s-2.555-1.166-3.857-1.732c-2.563-1.1-5.181-2.132-7.83-3.081-.038-.026-.1-.035-.138-.062-1.017-.357-2.034-.713-3.057-1.029a.916.916,0,0,0-.2-.071c-.44-.147-.9-.3-1.363-.428-1.9-.611-3.834-1.162-5.792-1.676-.22-.073-.463-.13-.707-.186-.562-.165-1.131-.289-1.717-.437-1.3-.313-2.594-.606-3.917-.88-1.36-.3-2.747-.565-4.137-.808-1.448-.273-2.9-.5-4.36-.715-3.858-.558-7.7-.946-11.526-1.143-.912-.069-1.806-.114-2.7-.14-.938-.031-1.877-.062-2.818-.072s-1.883-.021-2.807-.008c-.944.009-1.868.023-2.816.053-.8.01-1.618.038-2.422.09q-2.974.136-5.9.4-1.368.116-2.745.294c-.915.1-1.834.216-2.731.338-1.516.2-3,.446-4.48.693l-.021,0c-1.205.224-2.432.445-3.617.672a.156.156,0,0,0-.088.029c-1.229.241-2.42.509-3.635.794l-.194.035c-1.106.259-2.215.539-3.3.822-1.37.347-2.726.737-4.061,1.13-1.138.338-2.256.68-3.356,1.044-1.189.394-2.377.788-3.548,1.205l-.132.043c-1.127.4-2.257.826-3.369,1.273-1.154.441-2.289.905-3.431,1.411l-.021,0c-1.071.452-2.122.908-3.175,1.384-.4.172-.787.368-1.192.561-1.121.509-2.2,1.043-3.311,1.6-1.353.663-2.671,1.374-3.989,2.084-1.16.629-2.3,1.28-3.423,1.936a130.489,130.489,0,0,0-18.343,12.957c-2.024,1.676-3.951,3.41-5.842,5.189-1.6,1.528-3.169,3.082-4.683,4.707q-2.033,2.111-3.959,4.325,1.927-2.212,3.959-4.325c.335.006.669.013,1,.04,1.868.124,3.809.468,5.587-.093,1.649-.537,2.936-1.754,4.474-2.537,3.939-2.028,9.857-1.655,11.439-5.784.536-1.389.372-3.005,1.1-4.3,1.377-2.42,4.857-2.293,7.6-1.855,1.17.169,2.521.532,2.906,1.635a2.966,2.966,0,0,1-.467,2.363,22.536,22.536,0,0,1-11.094,10.212c-3.885,1.659-8.788,2.668-10.361,6.589.293,1.447,2.812,1.706,2.809,3.173-.022,1.17-1.586,1.551-2.268,2.5-1,1.385.524,3.47,2.24,3.634s3.309-.862,4.728-1.83c4.237-2.929,8.7-6.1,10.764-10.826.869-1.949,1.418-4.3,3.256-5.417a4.054,4.054,0,0,1,5.813,2.831c1.752-.668,4.375-.981,4.972.824a8.737,8.737,0,0,1,.07,1.98c.154,2.7,3.573,4.414,3.56,7.115-.011,3.12-4.16,4.134-7.286,4.163-2.833.03-5.666.06-8.5.111a7.766,7.766,0,0,0-3.608.609A2.719,2.719,0,0,0,286.6,389.1a8.251,8.251,0,0,0,1.223,1.686c1.966,2.631-.608,7.1-3.865,6.733-1.114-.12-2.143-.687-3.246-.889-3.263-.619-6.288,1.9-8.266,4.566s-3.626,5.8-6.539,7.394c-4.688,2.569-11.867.777-14.626,5.365-1.106,1.851-1,4.129-.973,6.292.026,2.141-.169,4.5-1.653,6.067-1.46,1.549-4.674,1.461-5.3-.6a4.79,4.79,0,0,1,.272-2.748c.932-2.966,1.843-5.935,2.755-8.9.676-2.207,1.349-4.687.282-6.727-1.493-2.856-5.716-3.215-8.438-1.493-2.7,1.726-4.175,4.823-5.3,7.824a36.919,36.919,0,0,1-3.521,7.83h0c-.8,2.483-1.522,5.018-2.166,7.586-.653,2.63-1.221,5.25-1.715,7.945a11.394,11.394,0,0,0,1.19-.834c1.486-1.147,4.908-6.414,6.848-3.305a2.117,2.117,0,0,1-.33,2.572c-.852.82-2.318.817-3.018,1.743-.849,1.093-.119,2.706.876,3.647.992.961,2.276,1.649,2.892,2.891,1.187,2.372-.722,5.428.418,7.834.978,2.069,3.629,2.578,5.872,3.154.26.08.5.157.762.236,1.289-4.423,3.935-7.791,10.294-8.3,8.775-.7,18.922,7.954,22.777,15.049,4.3,7.935,5.359,18.438,13.007,23.211,5.479,3.411,13.924,3.691,15.948,9.829,1.8,5.5-3.464,10.625-4.964,16.212-.974,3.694-.283,7.607-.54,11.4-.279,3.815-2.023,8.047-5.679,9.132-2.033.586-4.42.136-6.167,1.35-3.1,2.192-1.638,7.851-4.742,10.042a14.141,14.141,0,0,1-3.732,1.325c-6.585,2.212-7.727,11.266-5.779,17.938.07.241.143.461.213.7a131.019,131.019,0,0,0,63.859,27.989,130.414,130.414,0,0,0,63.043-6.344l.021,0a131.108,131.108,0,0,0,12.473-5.257,129.214,129.214,0,0,0,17.963-10.476,127.275,127.275,0,0,0,11.338-8.857c2.538-2.189,4.967-4.5,7.323-6.882,1.2-1.229,2.388-2.462,3.517-3.745a128.708,128.708,0,0,0,20.931-30.853,127.343,127.343,0,0,0,8.126-21.265c.811-2.858,1.547-5.769,2.182-8.715a7.543,7.543,0,0,1-5.548,1.564C473.791,489.527,471.6,486.549,470.766,483.494Z" transform="translate(-225.53 -330.142)"/></g><g transform="translate(184.293 194.322)"><path class="a" d="M553.374,679.115c-2.133-.009-4.45-1.4-6.24-.238-1.044.676-1.442,1.977-1.98,3.1a7.153,7.153,0,0,1-3.547,3.617,4.493,4.493,0,0,1-4.821-.787,3.305,3.305,0,0,1-.009-4.625,23.036,23.036,0,0,1,2.017-1.214c3.153-2.22,1.957-7.357,4.518-10.169,1.509-1.658,3.737-3.24,5.373-4.9,1.258-1.28,1.807-2.36,3.794-2.461C561.174,660.993,562.447,679.156,553.374,679.115Z" transform="translate(-535.838 -661.427)"/></g><g transform="translate(0 116.087)"><path class="c" d="M235.02,560.783c.127-3.775,1.9-7.311,2.5-11.058.415-2.58.625-5.337.961-7.949a36.02,36.02,0,0,1-6.454-1.876,2,2,0,0,1-1.122-.791,2.435,2.435,0,0,1-.068-1.414c.257-2.938-2.275-5.273-4.589-7.1a22.151,22.151,0,0,0-3.717-2.549c-.045.308-.086.6-.11.906a130.569,130.569,0,0,0,2.3,42.343,125.491,125.491,0,0,0,5.464,18.139c.931,2.545,1.991,5.065,3.119,7.554,1.4,3.073,2.889,6.1,4.539,9.038,1.52,2.818,3.172,5.592,4.942,8.279a129.714,129.714,0,0,0,7.808,10.768q3.7,4.621,7.83,8.885c-4.332-20.028-8.2-40.388-17.966-58.312C237.885,570.961,234.856,566.122,235.02,560.783Z" transform="translate(-221.651 -528.05)"/></g><g transform="translate(1.125 109.947)"><path class="a" d="M224.192,517.583c-.126.781-.267,1.554-.38,2.334-.092.636-.162,1.268-.244,1.9.082-.635.152-1.266.244-1.9C223.925,519.137,224.065,518.364,224.192,517.583Z" transform="translate(-223.568 -517.583)"/></g><g class="e" transform="translate(43.268 228.304)"><path class="a" d="M295.415,719.361q1.476,1.342,3,2.632c.709.6,1.421,1.19,2.153,1.778-.732-.588-1.444-1.173-2.153-1.778Q296.89,720.7,295.415,719.361Z" transform="translate(-295.415 -719.361)"/></g><g class="e" transform="translate(1.748 106.881)"><path class="a" d="M225.155,512.376l0-.021h0l0,.021c-.056.243-.11.466-.145.713-.142.765-.253,1.553-.38,2.333.126-.78.238-1.569.38-2.333C225.046,512.842,225.1,512.619,225.155,512.376Z" transform="translate(-224.631 -512.355)"/></g><g class="e" transform="translate(0.881 114.184)"><path class="a" d="M223.4,524.806c-.081.635-.174,1.274-.243,1.9h0C223.223,526.08,223.315,525.441,223.4,524.806Z" transform="translate(-223.153 -524.806)"/></g><g transform="translate(6.156 25.959)"><path class="f" d="M240.968,424.135c2.722-1.722,6.944-1.363,8.438,1.493,1.067,2.04.394,4.52-.282,6.727-.912,2.969-1.822,5.938-2.755,8.9a4.79,4.79,0,0,0-.272,2.748c.624,2.059,3.838,2.147,5.3.6,1.484-1.566,1.679-3.926,1.653-6.067-.022-2.162-.133-4.44.973-6.292,2.759-4.588,9.938-2.8,14.626-5.365,2.912-1.59,4.56-4.725,6.539-7.394s5-5.185,8.266-4.566c1.1.2,2.131.769,3.245.889,3.257.366,5.831-4.1,3.865-6.733a8.25,8.25,0,0,1-1.223-1.686,2.719,2.719,0,0,1,1.492-3.074,7.766,7.766,0,0,1,3.608-.609c2.837-.051,5.669-.081,8.5-.111,3.126-.029,7.275-1.043,7.286-4.163.014-2.7-3.406-4.411-3.56-7.115a8.735,8.735,0,0,0-.07-1.98c-.6-1.8-3.22-1.492-4.972-.824a4.054,4.054,0,0,0-5.814-2.831c-1.838,1.117-2.387,3.468-3.256,5.417-2.066,4.73-6.527,7.9-10.764,10.826-1.418.968-3.013,1.994-4.728,1.83s-3.237-2.249-2.24-3.634c.682-.949,2.245-1.33,2.268-2.5,0-1.466-2.516-1.726-2.809-3.173,1.573-3.921,6.475-4.93,10.361-6.589a22.537,22.537,0,0,0,11.094-10.212,2.965,2.965,0,0,0,.467-2.363c-.385-1.1-1.736-1.466-2.906-1.635-2.744-.439-6.225-.565-7.6,1.855-.733,1.3-.568,2.914-1.1,4.3-1.582,4.129-7.5,3.756-11.439,5.784-1.538.783-2.825,2-4.474,2.537-1.778.56-3.719.216-5.587.093-.331-.027-.665-.033-1-.04q-2.033,2.111-3.959,4.325t-3.751,4.513a129.644,129.644,0,0,0-14.874,23.453q-2.174,4.384-4.016,8.969t-3.348,9.348a36.935,36.935,0,0,0,3.521-7.83C236.793,428.958,238.267,425.861,240.968,424.135Z" transform="translate(-232.146 -374.398)"/></g><g class="e" transform="translate(259.202 142.414)"><path class="a" d="M665.263,578.52q.39-2.8.638-5.586-.249,2.784-.638,5.586c-.045.6-.131,1.2-.217,1.791-.416,2.874-.928,5.691-1.5,8.5.574-2.808,1.086-5.626,1.5-8.5C665.132,579.716,665.218,579.121,665.263,578.52Z" transform="translate(-663.544 -572.934)"/></g><g class="e" transform="translate(259.107 103.297)"><path class="a" d="M663.382,506.266q.567,2.6,1.025,5.211-.458-2.616-1.025-5.211s.023-.018,0-.021h0Z" transform="translate(-663.382 -506.245)"/></g><g transform="translate(132.206 31.774)"><path class="g" d="M575.753,500.538q.39-2.8.638-5.586t.367-5.562c.07-1.5.117-2.979.122-4.466q.034-2.353-.02-4.693a127.369,127.369,0,0,0-1.083-13.9q-.356-2.645-.814-5.259t-1.025-5.211l0-.021h0c-.479-1.326-1-2.638-1.588-3.938-5.554-12.453-14.727-22.916-21.069-34.98-2.072-3.925-3.66-7.15-8.135-8.51-6.621-2.027-10.607,1.336-14.48-5.782-1.043-1.911-3.069-3.839-5.127-3.088.294,1.447.608,2.9.9,4.362a1.986,1.986,0,0,1,.033.927c-.242.95-1.717,1.009-2.461.357a8.479,8.479,0,0,1-1.471-2.58,6.713,6.713,0,0,0-9.633-2.211,3.773,3.773,0,0,0-1.716-3.349,4.5,4.5,0,0,1-6.1,2.784c-.208-1.308,2.061-1.21,3-2.164.863-.9.2-2.423-.6-3.4a14.4,14.4,0,0,0-8.425-4.76c-2.067-.341-4.361-.275-6.012-1.6-.957-.767-1.548-1.9-2.529-2.65-2.091-1.622-5.116-.845-7.6.1-3.393,1.29-6.953,3.017-8.557,6.285-1.622,3.243.194,8.22,3.827,8.306a7.03,7.03,0,0,1,2.774.087c1.222.533,1.583,2.093,1.5,3.422-.084,1.307-.429,2.683.04,3.924.45,1.238,2.234,2.083,3.109,1.1,1.915-1.357,2.1-4.076,2-6.416-.082-2.337-.182-4.972,1.442-6.643,1.645-1.669,5.459-.51,4.86,1.75-.361,1.331-2.042,2.093-2.18,3.477-.14,1.4,1.456,2.39,2.861,2.53,1.4.161,2.892-.147,4.2.4,1.327.527,2.157,2.47,1.026,3.333-1.983,1.683-5.938-2.262-7.167.011-.336.58-.19,1.313-.347,1.961-.455,1.988-3.087,2.362-5.134,2.316-2.044-.065-4.208-.168-5.91-1.295s-2.607-3.708-1.311-5.281c-.919-.888-2.586-.374-3.306.7a6.645,6.645,0,0,0-.766,3.7c-2.066-.781-4.236.749-5.706,2.36-1.492,1.628-2.965,3.552-5.13,3.888-2.186.334-4.934-.944-6.3.787-1.773,2.258,1.881,5.971.092,8.206-1.02,1.257-2.984.931-4.607,1.136-4.294.573-6.6,6.4-4.258,10.028,2.325,3.626,8,4.257,11.417,1.61,2.379-1.814,3.651-4.668,5.517-7,1.864-2.308,5.028-4.2,7.742-2.966a8.762,8.762,0,0,1,2.668,2.272c1.208,1.348,2.417,2.7,3.623,4.065.775.867,1.607,1.93,1.358,3.067-.215.912-1.038,1.526-1.47,2.344-1.221,2.359,2.029,5.238,4.483,4.21,2.474-1.025,3.2-4.46,1.971-6.818-1.707-3.264-6.317-5.439-5.665-9.075,2.754-1.655,6.327,1.02,7.351,4.08,1.026,3.04.581,6.412,1.367,9.522.784,3.13,3.793,6.226,6.833,5.2-.371-2.651-.724-5.28-1.1-7.911,2-1.093,3.5,3.147,5.755,2.8,1.373-.221,1.81-2.085,1.419-3.441-.37-1.352-1.242-2.568-1.289-3.979-.048-2.563,3.067-4.4,5.532-3.621,2.444.772,3.924,3.438,4.037,5.99a11.814,11.814,0,0,0,.232,3.029c.659,2.107,3.016,3.055,4.908,4.168,1.913,1.115,3.713,3.449,2.58,5.339-.517.826-1.563,1.534-1.365,2.485.192.845,1.332,1.366,1.207,2.228-.1.572-.755.876-1.322,1.024-1.435.358-2.939.329-4.345.775a3.783,3.783,0,0,0-2.882,2.977c-.133,2.076,2.167,3.414,3.07,5.284.874,1.781.4,3.912.829,5.861.41,1.8,1.571,3.328,2.448,4.942,2.736,5.131,2.673,11.219,3.539,16.96.379,2.59,1.334,5.557,3.81,6.4a7.882,7.882,0,0,0,4.22-.206c3.884-.926,7.927-1.933,10.923-4.538,3.02-2.623,4.585-7.362,2.362-10.679a2.109,2.109,0,0,0-1.136-.982,3.818,3.818,0,0,0-2.027.4,5.556,5.556,0,0,1-5.548-2.059,16.324,16.324,0,0,1-2.667-5.6c-.712-2.177-1.421-4.375-2.15-6.575,1.36-.851,3.226-.141,4.333,1.045a24.049,24.049,0,0,1,2.462,4.128c2.506,4.259,7.291,6.669,12.072,7.947a12.472,12.472,0,0,1,3.543,1.288c3.392,2.188,3.664,7.7,7.336,9.4a24.554,24.554,0,0,1,3.156,1.211c1.414.938,1.924,2.772,2.142,4.459.4,3.139.232,6.361,1.089,9.419.837,3.054,3.025,6.032,6.139,6.524a7.543,7.543,0,0,0,5.548-1.564l0-.021c.574-2.809,1.086-5.626,1.5-8.5C575.622,501.734,575.708,501.138,575.753,500.538Z" transform="translate(-447.039 -384.312)"/></g><g transform="translate(184.293 194.322)"><path class="c" d="M552.48,661.434c-1.987.1-2.536,1.181-3.794,2.461-1.636,1.665-3.864,3.247-5.373,4.9-2.561,2.812-1.364,7.949-4.518,10.169a23.036,23.036,0,0,0-2.017,1.214,3.305,3.305,0,0,0,.009,4.625,4.493,4.493,0,0,0,4.821.787,7.153,7.153,0,0,0,3.547-3.617c.538-1.122.936-2.423,1.98-3.1,1.79-1.16,4.107.228,6.24.238C562.447,679.156,561.174,660.993,552.48,661.434Z" transform="translate(-535.838 -661.427)"/></g><g transform="translate(105.81 86.996)"><path class="g" d="M503.578,560.581c5.759-3.688,9.275-13.4,3.249-16.633-2.279-1.224-5.155-.919-7.408-2.189-2.94-1.658-3.888-5.365-4.559-8.672q-2.641-13.025-5.282-26.052c-1.061-5.232-2.929-11.387-8.055-12.876-2.9-.842-5.984.155-9,.265-10.4.378-23.9-26.614-34-11.22-.429-4.645-7.966-4.014-10.872-.366s-4.162,8.857-8.257,11.09c-3.123,1.7-7.273,1.232-9.961,3.562-1.891,1.639-2.551,4.248-3.112,6.686q-1.61,6.992-3.219,13.985c-.866,3.76-1.715,7.793-.313,11.386s6.059,6.151,9.251,3.984c1.469-1,2.274-2.707,3.536-3.956a7.438,7.438,0,0,1,7.949-1.516c2.214.944,3.808,2.911,5.176,4.89,11.14,16.115,12.94,37.026,10.718,56.49-.407,3.562-.931,7.207-.1,10.7.97,4.088,3.742,7.68,4.1,11.866.278,3.214-.9,6.536.014,9.63,1.685,5.7,9.854,7.111,14.874,3.93s7.463-9.134,9.206-14.815,3.219-11.72,7.18-16.151c2.457-2.747,5.778-4.75,7.676-7.91,2.652-4.417,2-10.2,4.518-14.7C490.231,566.024,497.819,564.269,503.578,560.581Z" transform="translate(-400.038 -477.455)"/></g><path class="g" d="M258.421,623.872l.021,0c1.163,1.237,2.354,2.415,3.569,3.575q1.434,1.387,2.908,2.728t3,2.631c.709.605,1.421,1.191,2.153,1.778-.07-.24-.143-.46-.213-.7-1.947-6.672-.805-15.726,5.779-17.938a14.142,14.142,0,0,0,3.732-1.324c3.1-2.191,1.639-7.851,4.742-10.042,1.747-1.214,4.134-.764,6.167-1.35,3.656-1.085,5.4-5.317,5.679-9.132.256-3.8-.435-7.71.539-11.4,1.5-5.587,6.767-10.713,4.964-16.212-2.024-6.138-10.47-6.418-15.948-9.829-7.648-4.773-8.706-15.277-13.007-23.211-3.855-7.1-14-15.75-22.777-15.049-6.359.505-9,3.873-10.294,8.3-.261-.079-.5-.156-.762-.236-2.243-.576-4.893-1.085-5.872-3.154-1.14-2.407.769-5.462-.418-7.834-.616-1.241-1.9-1.93-2.892-2.891-1-.94-1.726-2.555-.876-3.647.7-.926,2.166-.923,3.018-1.743a2.116,2.116,0,0,0,.33-2.572c-1.939-3.109-5.361,2.158-6.847,3.305a11.317,11.317,0,0,1-1.19.834l0,.021c-.056.243-.109.466-.145.712-.143.766-.253,1.554-.379,2.334s-.266,1.554-.38,2.334c-.092.636-.162,1.268-.244,1.9s-.174,1.273-.243,1.9c-.045.308-.086.6-.11.906a130.568,130.568,0,0,0,2.3,42.343,125.488,125.488,0,0,0,5.464,18.139c.931,2.545,1.991,5.065,3.119,7.554,1.4,3.073,2.889,6.1,4.539,9.038,1.52,2.818,3.172,5.592,4.942,8.278a129.713,129.713,0,0,0,7.808,10.768q3.7,4.621,7.83,8.885" transform="translate(-221.651 -401.874)"/><g transform="translate(184.293 194.322)"><path class="g" d="M552.48,661.434c-1.987.1-2.536,1.181-3.794,2.461-1.636,1.665-3.864,3.247-5.373,4.9-2.561,2.812-1.364,7.949-4.518,10.169a23.036,23.036,0,0,0-2.017,1.214,3.305,3.305,0,0,0,.009,4.625,4.493,4.493,0,0,0,4.821.787,7.153,7.153,0,0,0,3.547-3.617c.538-1.122.936-2.423,1.98-3.1,1.79-1.16,4.107.228,6.24.238C562.447,679.156,561.174,660.993,552.48,661.434Z" transform="translate(-535.838 -661.427)"/></g></g><g transform="translate(17.971 14.006)"><path class="h" d="M247.841,336.663a11.082,11.082,0,0,0-10.164,1.846s-6.835,5.225-4.144,12.941a12.7,12.7,0,0,0,5.642,6.707,16.114,16.114,0,0,0,3.107,1.417c3.729,1.221,14.587,4.038,14.587,4.038l1.194-.913c-.108-3.319-1.7-13.4-2.292-16.571C255.028,342.149,252.193,337.977,247.841,336.663Zm2.558,16.124a7.409,7.409,0,1,1,1.339-10.349A7.379,7.379,0,0,1,250.4,352.787Z" transform="translate(-232.906 -335.283)"/><path class="h" d="M249.953,335.179a11.082,11.082,0,0,0-10.164,1.845s-6.835,5.226-4.144,12.941a12.7,12.7,0,0,0,5.642,6.707,16.119,16.119,0,0,0,3.107,1.418c3.729,1.22,14.587,4.038,14.587,4.038s-.382-13.653-1.1-17.483C257.14,340.665,254.3,336.493,249.953,335.179Zm1.364,17.036a7.409,7.409,0,1,1,1.339-10.349A7.324,7.324,0,0,1,251.317,352.215Z" transform="translate(-233.779 -334.67)"/></g><g transform="translate(276.339 187.047)"><path class="h" d="M692.909,653.006a11.081,11.081,0,0,0,8.677-5.605s4.306-7.449-1.141-13.54a12.7,12.7,0,0,0-7.784-4.028,16.138,16.138,0,0,0-3.413-.116c-3.912.3-15.02,1.871-15.02,1.871l-.753,1.3c1.374,3.023,6.714,11.721,8.477,14.421C684.166,650.7,688.386,653.464,692.909,653.006ZM684.358,639.1a7.409,7.409,0,1,1,2.736,10.07A7.379,7.379,0,0,1,684.358,639.1Z" transform="translate(-673.418 -629.673)"/><path class="h" d="M692.059,655.188a11.083,11.083,0,0,0,8.677-5.606s4.305-7.449-1.141-13.54a12.7,12.7,0,0,0-7.784-4.028,16.126,16.126,0,0,0-3.413-.116c-3.912.3-15.02,1.871-15.02,1.871s5.594,12.46,7.725,15.723C683.316,652.882,687.536,655.645,692.059,655.188Zm-7.8-15.208A7.409,7.409,0,1,1,687,650.05,7.325,7.325,0,0,1,684.26,639.98Z" transform="translate(-673.377 -630.575)"/></g><g transform="translate(6.743 230.623)"><path class="i" d="M213.858,718.291a11.2,11.2,0,0,0,3.548,9.772s6.33,5.929,13.512,2.018a12.611,12.611,0,0,0,5.684-6.672,16.033,16.033,0,0,0,.877-3.307c.577-3.891,1.527-15.1,1.527-15.1l-1.106-1.036c-3.267.642-12.978,3.846-16.016,4.944C218.072,710.285,214.423,713.767,213.858,718.291Zm17.1-3.245a7.408,7.408,0,1,1-10.471.343A7.409,7.409,0,0,1,230.961,715.046Z" transform="translate(-213.764 -703.963)"/></g><g transform="translate(249.529 20.365)"><path class="i" d="M653.375,359.151a11.2,11.2,0,0,0-3.121-9.917s-6.066-6.2-13.411-2.6a12.608,12.608,0,0,0-5.969,6.418,16.082,16.082,0,0,0-1.02,3.265c-.745,3.863-2.182,15.023-2.182,15.023l1.06,1.082c3.292-.5,13.133-3.278,16.215-4.243C648.818,366.966,652.615,363.646,653.375,359.151Zm-17.228,2.5a7.409,7.409,0,1,1,10.477.112A7.409,7.409,0,0,1,636.147,361.651Z" transform="translate(-627.672 -345.51)"/></g><g transform="translate(105.197 192.074)"><path class="j" d="M381.611,645.393h31.054s-2.746-5-10.74-4.27c-7.634.695-8.022-2.458-11.9-2.847S382.9,640.865,381.611,645.393Z" transform="translate(-381.611 -638.243)"/></g><g transform="translate(126.547 161.703)"><path class="j" d="M418.009,597.051H463.97s-4.064-7.4-15.895-6.32c-11.3,1.028-11.873-3.638-17.619-4.213S419.924,590.347,418.009,597.051Z" transform="translate(-418.009 -586.467)"/></g><g transform="translate(66.942 96.665)"><path class="j" d="M316.392,482.512h30.067s-2.659-4.839-10.4-4.134c-7.391.672-7.767-2.38-11.526-2.756S317.645,478.127,316.392,482.512Z" transform="translate(-316.392 -475.589)"/></g></g><g transform="translate(105.658 15.148)"><g class="k" transform="translate(4.899 78.418)"><path d="M464.334,331.874c.668,1.19-4.82,21.912-10.417,32.509C452,368,447.531,369.3,443.372,369.261c-5.418-.055-9.41-6.933-15.8-6.678-5.693.227-7.466,4.859-12.855,6.711-10.733,3.69-20.532-5.276-22.245-12.149-2.162-8.673-1.865-14.784-1.354-26.122C391.115,331.023,453.323,312.255,464.334,331.874Z" transform="translate(-390.748 -322.928)"/></g><path class="h" d="M404.689,254.421c3.4,11,.923,13.849,4.609,24.76.982,2.91,13.482,32.543,15.709,34.677a13.23,13.23,0,0,0,8.338,3.277,39.521,39.521,0,0,0,9.1-.819c2.515-.425,5.219-.946,6.964-2.789a11.114,11.114,0,0,0,2.287-4.882c5.028-18.487,12.109-35.79,12.109-54.151-19.7-3.811-39.674-5-59.116-.073" transform="translate(-391.613 -214.207)"/><g class="l" transform="translate(38.972 55.089)"><path d="M448.836,330.751a6.054,6.054,0,0,0,3.082-3.517,17.959,17.959,0,0,0,.876-4.71c.818-8.62,1.638-17.284,1.086-25.926-.3-4.671-1.051-9.467-3.52-13.443Z" transform="translate(-448.836 -283.156)"/></g><g class="l" transform="translate(54.746 45.434)"><path d="M480.569,296.328c-.152-7.173-1.705-10.906-1.724-13.084s-.423-2.81.88-4.555c1.362-1.826,3.453-2.928,5.378-4.145s3.854-2.751,4.512-4.931c.265-.877.313-2.557-.545-2.879-.563-.212-1.339.553-1.871.834a37.6,37.6,0,0,0-7.03,4.813,12.776,12.776,0,0,0-3.973,5.179c-1.186,3.387.115,7.088,1.4,10.437" transform="translate(-475.729 -266.695)"/></g><g transform="translate(24.488)"><path class="m" d="M449.219,241.767s-.2-4.87-.2-4.815c0,0,8.34-1.4,10.046-12.294.848-5.416.556-14.292.083-21.546-.426-6.53-4.771-14.533-11.277-13.831l-20.308,5.181a3.83,3.83,0,0,0-3.417,3.891h0l1.638,37.068" transform="translate(-424.144 -189.238)"/><g transform="translate(10.287 43.857)"><path class="m" d="M456.27,267.864a27.7,27.7,0,0,1-14.588-3.857s3.4,8.826,14.3,7.783Z" transform="translate(-441.682 -264.007)"/></g></g><path class="m" d="M405.779,300.335l-12.793-41.373s-11.309,2.149-10.05,16.53,4.4,31.4,10.05,43.663,7.54,16.5,13.71,15.508,9.569-6.344,10.955-14.1,1.949-41.952,1.949-41.952l-10.33-2.261Z" transform="translate(-378.187 -217.718)"/><path class="n" d="M438.805,252.654c.979-.074,3.736,7.145,15.681-.074s9.319-8.532,9.319-8.532L453.7,264.787Z" transform="translate(-405.717 -211.898)"/><path class="m" d="M471.217,292.891l11.529-36s11.962,1.832,10.653,16.213-5.479,33.121-11.354,45.387-7.316,16.251-13.73,15.263-9.473-5.948-10.913-13.7-1.832-43.519-1.832-43.519l10.759-.812Z" transform="translate(-412.648 -217.21)"/><g transform="translate(42.032 32.947)"><path class="m" d="M466.429,273.293a7.253,7.253,0,0,1,3.314-6.318,110.244,110.244,0,0,0,10.365-9.044c1.386-3.135.807-8.765.7-9.539s-.443-2.655-3.54-1.881c0,0-.323-1.31-2.5-1.077s-2.369,1.32-2.369,1.32a11.488,11.488,0,0,0-2.5.621,4.3,4.3,0,0,0-1.983,3.069,5.492,5.492,0,0,0-2.779,1.034c-.847.851-2.017,1.75-2.017,3.3s1.51,2.149,2.714,2.071c0,0-4.311,1.476-5.127,1.709s-7.624,3.106-6.536,7.184.98,3.458.749,5.711c-.226,2.213.855,7.573.855,7.573Z" transform="translate(-454.054 -245.407)"/><g transform="translate(11.483 8.628)"><path class="o" d="M473.7,263.1c-.118-.024-.076-.713.094-1.537s.4-1.473.521-1.449.076.712-.094,1.537S473.815,263.126,473.7,263.1Z" transform="translate(-473.63 -260.116)"/></g><g transform="translate(8.892 5.067)"><path class="o" d="M476.892,259.137a2.617,2.617,0,0,1,.269-.653,3.506,3.506,0,0,0,.4-1.779,2.529,2.529,0,0,0-1.615-1.952,5.106,5.106,0,0,0-3.28-.022,4.441,4.441,0,0,0-2.606,1.942,3.187,3.187,0,0,0-.364,2.587,1.789,1.789,0,0,0,1.224,1.212,3.808,3.808,0,0,0,.679.062c.012.015-.233.17-.714.1a1.932,1.932,0,0,1-1.479-1.273,3.441,3.441,0,0,1,.306-2.893,4.743,4.743,0,0,1,2.827-2.159,5.356,5.356,0,0,1,3.563.069,2.818,2.818,0,0,1,1.766,2.294,3.365,3.365,0,0,1-.555,1.885C477.074,258.954,476.916,259.151,476.892,259.137Z" transform="translate(-469.213 -254.045)"/></g><g transform="translate(13.836 1.378)"><path class="o" d="M484.84,254.858c-.075-.022.221-.826.441-2.146a4.8,4.8,0,0,0-.138-2.274,3.336,3.336,0,0,0-1.851-1.929,3.664,3.664,0,0,0-2.7-.129,4.41,4.41,0,0,0-1.862,1.292,8.11,8.11,0,0,0-1.078,1.866,1.264,1.264,0,0,1,.087-.6,4.574,4.574,0,0,1,2.717-2.94,3.971,3.971,0,0,1,3.01.107,3.664,3.664,0,0,1,2.055,2.2,4.841,4.841,0,0,1,.062,2.455,9.522,9.522,0,0,1-.476,1.559C484.966,254.679,484.868,254.868,484.84,254.858Z" transform="translate(-477.642 -247.756)"/></g><g transform="translate(23.123 0.994)"><path class="o" d="M494.238,253.709c-.06-.015-.007-.41.1-1.034a12.6,12.6,0,0,0,.248-2.418,5.1,5.1,0,0,0-.574-2.291c-.291-.538-.582-.808-.537-.861.028-.042.408.152.8.7a4.44,4.44,0,0,1,.748,2.443,8.166,8.166,0,0,1-.384,2.5C494.453,253.36,494.3,253.723,494.238,253.709Z" transform="translate(-493.474 -247.101)"/></g><g transform="translate(3.937 25.99)"><path class="o" d="M464.6,290.625a25.388,25.388,0,0,0,3.726-.9,8.121,8.121,0,0,1-7.557.787" transform="translate(-460.765 -289.715)"/></g></g><path class="h" d="M491.1,278.719,509.9,263.732s-4.086-8.031-12.049-7.406C497.8,263.328,494.579,270.539,491.1,278.719Z" transform="translate(-430.336 -216.96)"/><path class="h" d="M394.121,257.887s-8.444-.172-11.725,13.543l16.479,5.949Z" transform="translate(-377.733 -218.556)"/><g transform="translate(15.189 31.381)"><path class="m" d="M424.172,271.618s.1-5.745-3.614-8.372a119.729,119.729,0,0,1-10.1-8.532,28.223,28.223,0,0,1-1.954-8.992c.11-.774.442-2.655,3.539-1.881,0,0,.324-1.31,2.5-1.077s2.369,1.321,2.369,1.321a11.45,11.45,0,0,1,2.5.621,4.3,4.3,0,0,1,1.983,3.068,5.491,5.491,0,0,1,2.779,1.034c.847.851,2.017,1.751,2.017,3.3s-1.51,2.149-2.714,2.071c0,0,4.311,1.476,5.127,1.709s7.672,3.276,6.585,7.354-1.029,3.288-.8,5.541c.226,2.213,0,7.307,0,7.307Z" transform="translate(-408.29 -242.737)"/><g transform="translate(9.416 5.067)"><path class="o" d="M425.321,256.467c-.025.014-.182-.182-.42-.575a3.367,3.367,0,0,1-.555-1.885,2.818,2.818,0,0,1,1.766-2.293,5.36,5.36,0,0,1,3.563-.069A4.747,4.747,0,0,1,432.5,253.8a3.44,3.44,0,0,1,.306,2.892,1.931,1.931,0,0,1-1.479,1.273c-.481.065-.726-.089-.713-.1a3.834,3.834,0,0,0,.679-.061,1.79,1.79,0,0,0,1.223-1.213,3.186,3.186,0,0,0-.364-2.586,4.44,4.44,0,0,0-2.606-1.943,5.106,5.106,0,0,0-3.28.022,2.529,2.529,0,0,0-1.615,1.952,3.506,3.506,0,0,0,.4,1.779A2.649,2.649,0,0,1,425.321,256.467Z" transform="translate(-424.344 -251.376)"/></g><g transform="translate(5.057 1.378)"><path class="o" d="M417.785,252.188c-.028.009-.126-.179-.269-.535a9.577,9.577,0,0,1-.476-1.559,4.847,4.847,0,0,1,.062-2.455,3.662,3.662,0,0,1,2.056-2.2,3.967,3.967,0,0,1,3.01-.108,4.573,4.573,0,0,1,2.717,2.94,1.264,1.264,0,0,1,.087.6A8.106,8.106,0,0,0,423.894,247a4.41,4.41,0,0,0-1.863-1.292,3.661,3.661,0,0,0-2.7.128,3.337,3.337,0,0,0-1.851,1.929,4.815,4.815,0,0,0-.138,2.274C417.565,251.362,417.861,252.166,417.785,252.188Z" transform="translate(-416.911 -245.086)"/></g><g transform="translate(2.29 0.994)"><path class="o" d="M412.982,251.039c-.057.014-.215-.35-.4-.963a8.165,8.165,0,0,1-.384-2.5,4.442,4.442,0,0,1,.748-2.444c.391-.544.77-.738.8-.7.046.052-.245.322-.537.861a5.108,5.108,0,0,0-.574,2.291,12.594,12.594,0,0,0,.248,2.418C412.988,250.629,413.042,251.024,412.982,251.039Z" transform="translate(-412.194 -244.431)"/></g><g transform="translate(15.468 26.002)"><path class="o" d="M438.388,287.964a25.257,25.257,0,0,0,3.831-.111,8.116,8.116,0,0,1-7.557-.787" transform="translate(-434.66 -287.066)"/></g></g></g><path class="n" d="M419.538,319.7s-6.053,14.365-6.053,19.327.523-17.76.523-17.76Z" transform="translate(-286.591 -222.025)"/><path class="n" d="M484.3,317.224s3.122,14.162,3.384,16.774.125-18.246.125-18.246Z" transform="translate(-318.869 -226.395)"/><circle class="p" cx="2.884" cy="2.884" r="2.884" transform="translate(135.696 35.961)"/><circle class="p" cx="2.884" cy="2.884" r="2.884" transform="translate(150.239 34.058)"/><path class="q" d="M447.254,218.474s-1.1,5.108-1.74,8.394c-.286,1.46,3.709,1.45,3.709,1.45" transform="translate(-302.827 -186.177)"/><circle class="o" cx="1.312" cy="1.312" r="1.312" transform="translate(138.208 28.834)"/><circle class="o" cx="1.312" cy="1.312" r="1.312" transform="translate(149.349 28.679)"/><path class="r" d="M442.642,239.1a4.469,4.469,0,0,0,4.845,3.485c4.3-.384,4.439-4.706,4.439-4.706" transform="translate(-301.646 -194.2)"/><path class="a" d="M410.394,185.9c1.967,6.617,33.917-6.666,33.917-6.666s2.136,11.828,7.6,18.789c7.357,9.363-5.34,13.647-.636,25.1,1.25,3.044-4.2,8.188-4.65,12.634s.368,27.391,12.261,22.025,15.039-21.233,9.625-26.647c-9.3-9.3,3.054-12.33,2.767-22.017-.333-11.231-12.286-2.581-8.061-26.469,2.568-14.516-27.8-24.262-43.312-16.483C412.957,169.649,408.427,179.282,410.394,185.9Z" transform="translate(-288.123 -163.413)"/></svg>