<svg xmlns="http://www.w3.org/2000/svg" width="489.339" height="343.587" viewBox="0 0 489.339 343.587"><defs><style>.a{fill:#b75742;}.b{fill:#8c16e2;}.c{fill:#f47257;}.d{fill:#3c8f7c;}.e{fill:#96d9c9;}.f{fill:#50bfa5;}.g{fill:#fa0;}.h{fill:#f7cc7f;}.i{fill:#fff;}.j{fill:#f48c7f;}.k{fill:#13375b;}.l{fill:#466eb6;}.m{fill:#ffab00;}.n{fill:#eaaa7f;}.o{fill:#1e2e72;}.p{fill:#601aa3;}.q{fill:#8b22e2;}.r{fill:#f7a491;}.s{opacity:0.1;}.t{fill:#75342c;}.u{fill:#d7fbff;}.v{fill:#7ad8ed;}.w{fill:#355389;}.x{fill:#441512;}.y{fill:#f47458;}.z{fill:#f2866d;}.aa{fill:none;stroke:#ba7343;stroke-miterlimit:10;stroke-width:0.745px;}.ab{fill:#ba7343;}</style></defs><g transform="translate(368.459 270.984)"><path class="a" d="M1077,918.789a59.554,59.554,0,0,1-11.762-12.874L1091,889.637s-.036-.06-.11-.172a33.408,33.408,0,0,0,6.459,6.6,40.236,40.236,0,0,0,18.927,8.249c9.013,1.435,18.312-1.57,24.526-4.343a66.637,66.637,0,0,0,11.615-6.589l22.85,4.416-4.3,19.766c-8.928,6.851-23.121,13.621-36.273,16.232A68.888,68.888,0,0,1,1077,918.789Z" transform="translate(-1065.233 -889.465)"/></g><path class="b" d="M834.024,424.294l6.048-3.135,6.011,3.2a.936.936,0,0,0,1.364-.978l-1.113-6.721,4.906-4.727a.936.936,0,0,0-.509-1.6L844,409.32l-2.979-6.127a.936.936,0,0,0-1.679-.009l-3.05,6.091-6.747.94a.936.936,0,0,0-.528,1.594l4.851,4.783-1.191,6.708A.936.936,0,0,0,834.024,424.294Z" transform="translate(-562.302 -341.692)"/><rect class="c" width="297.582" height="31.15" transform="translate(107.244 208.915)"/><g transform="translate(110.85 157.388)"><path class="d" d="M682.924,787.929A574.66,574.66,0,0,0,468.1,723.561q4.159-48.7,8.318-97.41A664.432,664.432,0,0,1,724.8,700.576Z" transform="translate(-468.101 -626.151)"/><path class="e" d="M483.392,715.38q2.834-30.376,5.668-60.75c7.864.806,14.909-4.269,15.765-11.543a659.58,659.58,0,0,1,208.256,62.4c-2.928,6.653.507,14.868,7.592,18.541l-25.71,54.746a12.363,12.363,0,0,0-17.161,6.064,579.218,579.218,0,0,0-182.88-54.8A13.1,13.1,0,0,0,483.392,715.38Z" transform="translate(-476.795 -635.781)"/><g transform="translate(32.922 37.881)"><path class="f" d="M753.64,759.018a33.718,33.718,0,0,1-42,20.974c-17.29-5.359-28.4-23.42-24.513-41.506,3.877-18.054,23.07-28.873,42.526-22.856C749.112,721.626,759.682,741.632,753.64,759.018Z" transform="translate(-625.116 -713.958)"/><path class="d" d="M734.916,786.864q.725-2.917,1.45-5.833a31.581,31.581,0,0,1-7.052-3.3,3.765,3.765,0,0,1-1.357-4.888l.107-.2a3.616,3.616,0,0,1,5.218-1.273,23.216,23.216,0,0,0,6.464,2.993c3.534.989,6.3.351,6.937-2.1.6-2.322-1.006-4.386-5.281-7.222-6.182-4.083-10.128-8.344-8.765-14.335,1.231-5.427,6.24-8.674,13.536-8.035q.716-2.919,1.431-5.838,3.218.892,6.429,1.817-.687,2.7-1.376,5.394a29.706,29.706,0,0,1,5.711,2.544,3.746,3.746,0,0,1,1.489,5.081h0a3.8,3.8,0,0,1-5.308,1.124,21.235,21.235,0,0,0-5.45-2.4c-4.189-1.19-5.965.171-6.384,1.89-.5,2.032,1.44,3.922,6.335,7.438,6.89,4.768,8.953,9.084,7.439,14.559-1.509,5.428-6.652,8.834-14,8.027q-.807,3.124-1.616,6.246Q737.9,787.689,734.916,786.864Z" transform="translate(-648.539 -726.961)"/><path class="f" d="M596.175,744.209q-25.656-5.92-51.762-9.633.6-4.683,1.207-9.366,26.451,3.758,52.487,9.768Z" transform="translate(-544.413 -720.356)"/><path class="f" d="M909.556,839.333q-23.875-11.676-48.542-21.246l3.119-8.865q24.991,9.7,49.222,21.543Z" transform="translate(-724.429 -768.124)"/></g></g><g transform="translate(114.768 111.639)"><path class="d" d="M719.444,616.186c-69.236,14.464-135.165,43.452-194.315,85.436l-47.946-82.732c68.391-48.543,144.62-82.059,224.672-98.783Q710.649,568.145,719.444,616.186Z" transform="translate(-477.182 -520.106)"/><path class="e" d="M537.742,695.434l-29.547-51.9c6.252-4.36,8.635-12.875,5.228-19.2A595.48,595.48,0,0,1,701.8,541.505a13.158,13.158,0,0,0,15.9,9.913q5.71,29.937,11.419,59.873c-6.689,1.46-10.834,8.588-9.3,15.734a522.9,522.9,0,0,0-165.422,72.732C550.99,693.435,543.5,691.423,537.742,695.434Z" transform="translate(-494.816 -532.273)"/><g transform="translate(42.781 42.912)"><path class="f" d="M762.79,647.307c5.207,17.7-3.636,36.611-19.359,43.386-15.739,6.734-33.969-.559-41.14-17.41-7.163-16.819,1-37.625,18.7-45.214C738.686,620.458,757.6,629.642,762.79,647.307Z" transform="translate(-646.485 -622.873)"/><path class="d" d="M763.146,699.144q-1.084-2.78-2.169-5.56a27.447,27.447,0,0,1-7.039,1.86,3.42,3.42,0,0,1-3.716-3.022l-.034-.231a3.74,3.74,0,0,1,3.144-4.331,20.206,20.206,0,0,0,6.434-1.731c3.158-1.461,4.843-3.727,3.956-6.08-.844-2.23-3.178-2.848-7.909-2.384-6.83.685-12.108-.193-14.43-5.822-2.1-5.1-.21-10.864,5.53-15q-1.092-2.776-2.185-5.551,2.87-1.338,5.755-2.644.99,2.581,1.979,5.164a25.916,25.916,0,0,1,5.628-1.609,3.4,3.4,0,0,1,3.92,3.093h0a3.911,3.911,0,0,1-3.294,4.269,18.554,18.554,0,0,0-5.356,1.557c-3.752,1.717-4.308,3.929-3.663,5.561.761,1.933,3.241,2.2,8.806,1.885,7.734-.591,11.653,1.529,13.575,6.844,1.9,5.275,0,11.254-5.879,15.286q1.139,3,2.276,5.993Q765.8,697.9,763.146,699.144Z" transform="translate(-669.712 -636.107)"/><path class="f" d="M624.215,738.989Q601.99,750.6,580.657,764.247l-4.309-8.214q21.611-13.832,44.167-25.612Z" transform="translate(-576.348 -682.601)"/><path class="f" d="M910.219,628.8q-24.107,5.9-47.629,13.978l-2.62-9.032q23.833-8.182,48.3-14.174Q909.243,624.189,910.219,628.8Z" transform="translate(-737.612 -619.575)"/></g></g><g transform="translate(127.288 169.483)"><path class="d" d="M746.992,752.947A526.553,526.553,0,0,0,534.462,784.1L506.2,691.311A608.817,608.817,0,0,1,751.936,655.3Q749.464,704.122,746.992,752.947Z" transform="translate(-506.203 -654.188)"/><path class="e" d="M547.412,771.74l-17.2-58.068c7.214-2.561,11.559-10.17,9.656-17.2a604.232,604.232,0,0,1,206.032-30.2c-.145,7.328,5.877,13.417,13.453,13.811q-1.314,30.486-2.627,60.974c-6.972-.362-12.74,5.438-12.885,12.761A530.6,530.6,0,0,0,562.912,780.34C561.011,773.318,554.051,769.384,547.412,771.74Z" transform="translate(-519.854 -660.927)"/><g transform="translate(38.319 18.856)"><path class="f" d="M801.083,727.93c1.04,18.506-12.132,34.468-29.3,36.854-17.171,2.343-33.544-9.55-36.728-27.761-3.182-18.177,9.754-36.149,29.07-38.8C783.442,695.554,800.049,709.457,801.083,727.93Z" transform="translate(-674.373 -697.895)"/><path class="d" d="M795.093,771.222q-.427-2.978-.855-5.956a28.383,28.383,0,0,1-7.411-.067,3.591,3.591,0,0,1-2.979-3.91c.006-.078.013-.155.02-.233a3.634,3.634,0,0,1,4.126-3.357,20.877,20.877,0,0,0,6.781.031c3.471-.577,5.669-2.322,5.337-4.835-.317-2.383-2.487-3.6-7.285-4.4-6.93-1.148-11.959-3.4-12.948-9.462-.9-5.491,2.323-10.569,8.976-13.047q-.436-2.976-.874-5.952,3.158-.533,6.321-1.033.38,2.761.759,5.523a26.66,26.66,0,0,1,5.953-.065,3.57,3.57,0,0,1,3.166,4.033h0a3.8,3.8,0,0,1-4.26,3.258,19.124,19.124,0,0,0-5.672.086c-4.12.667-5.186,2.66-4.927,4.411.3,2.073,2.7,2.992,8.291,4.16,7.805,1.479,11.2,4.57,11.863,10.224.654,5.609-2.626,10.89-9.389,13.235q.431,3.2.86,6.4Q798.017,770.727,795.093,771.222Z" transform="translate(-700.047 -709.894)"/><path class="f" d="M646.448,784.9q-24.737,5.34-49.063,12.893l-2.359-9.092q24.646-7.655,49.751-13.073Q645.613,780.269,646.448,784.9Z" transform="translate(-595.026 -742.096)"/><path class="f" d="M959.149,755.287q-25.272-.683-50.472.9-.247-4.718-.493-9.436,25.531-1.6,51.178-.909Q959.256,750.564,959.149,755.287Z" transform="translate(-773.084 -725.037)"/></g></g><rect class="c" width="297.582" height="130.968" transform="translate(107.244 208.915)"/><path class="a" d="M1032.1,971.663H958.469a6.056,6.056,0,0,0-5.912,6.19h0a6.056,6.056,0,0,0,5.912,6.19h-9.548a6.056,6.056,0,0,0-5.912,6.19h0a6.056,6.056,0,0,0,5.912,6.19h1.654a6.056,6.056,0,0,0-5.912,6.19,6.418,6.418,0,0,0,.5,2.485H1032.1Z" transform="translate(-627.279 -665.218)"/><rect class="a" width="270.894" height="10.17" transform="translate(118.21 215.363)"/><g transform="translate(103.969 256.919)"><rect class="g" width="142.244" height="81.338" rx="5"/><rect class="h" width="35.029" height="20.366" transform="translate(9.145 16.175)"/><rect class="h" width="62.117" height="3.802" transform="translate(71.122 11.016)"/><rect class="h" width="114.318" height="4.697" transform="translate(14.305 54.462)"/><rect class="h" width="114.318" height="4.697" transform="translate(14.305 65.521)"/></g><rect class="a" width="126.309" height="3.376" transform="translate(121.651 242.353)"/><g transform="translate(291.289 163.447)"><circle class="h" cx="28.13" cy="28.13" r="28.13" transform="translate(0 1.703) rotate(-1.735)"/><path class="g" d="M941.712,662.671a23.6,23.6,0,1,1-32.882-5.761A23.605,23.605,0,0,1,941.712,662.671Z" transform="translate(-893.422 -647.262)"/><g transform="translate(18.991 11.783)"><path class="i" d="M943.078,701.3l-1.029-3.8a19.13,19.13,0,0,1-5.025.442,2.4,2.4,0,0,1-2.274-2.364l0-.153a2.394,2.394,0,0,1,2.541-2.425,13.964,13.964,0,0,0,4.546-.426c2.282-.617,3.606-1.921,3.173-3.522-.412-1.522-1.953-2.136-5.187-2.336-4.674-.282-8.138-1.494-9.189-5.378-.953-3.524.783-6.958,4.84-8.958l-1.029-3.8,3.925-1.061.953,3.523a17.726,17.726,0,0,1,3.8-.461,2.394,2.394,0,0,1,2.395,2.368h0a2.4,2.4,0,0,1-2.447,2.428,12.754,12.754,0,0,0-3.653.453c-2.6.7-3.14,2.053-2.837,3.173.358,1.321,1.986,1.783,5.736,2.144,5.22.393,7.737,2.076,8.712,5.68.964,3.564-.736,7.289-5.124,9.335l1.1,4.084Z" transform="translate(-930.376 -667.508)"/></g></g><g transform="translate(311.084 246.732)"><circle class="h" cx="28.13" cy="28.13" r="28.13" transform="translate(0 53.24) rotate(-71.141)"/><path class="g" d="M1003.227,871.355a23.6,23.6,0,1,1-32.881-5.761A23.606,23.606,0,0,1,1003.227,871.355Z" transform="translate(-948.194 -849.203)"/><g transform="translate(25.735 18.527)"><path class="i" d="M1004.594,909.982l-1.029-3.8a19.15,19.15,0,0,1-5.026.442,2.4,2.4,0,0,1-2.274-2.364l0-.153a2.394,2.394,0,0,1,2.541-2.425,13.978,13.978,0,0,0,4.546-.426c2.283-.617,3.606-1.921,3.173-3.522-.412-1.522-1.953-2.136-5.187-2.336-4.674-.283-8.139-1.494-9.189-5.378-.953-3.524.783-6.958,4.839-8.957l-1.028-3.8,3.924-1.061.953,3.523a17.7,17.7,0,0,1,3.8-.461,2.394,2.394,0,0,1,2.395,2.368h0a2.4,2.4,0,0,1-2.447,2.428,12.75,12.75,0,0,0-3.653.453c-2.6.7-3.14,2.052-2.837,3.173.358,1.321,1.986,1.783,5.736,2.144,5.22.393,7.737,2.076,8.712,5.68.964,3.564-.736,7.289-5.124,9.335l1.1,4.084Z" transform="translate(-991.892 -876.193)"/></g></g><g transform="translate(260.959 216.061)"><circle class="h" cx="28.13" cy="28.13" r="28.13" transform="matrix(1, -0.017, 0.017, 1, 2.572, 3.509)"/><circle class="g" cx="23.605" cy="23.605" r="23.605" transform="translate(0 19.207) rotate(-24.006)"/><g transform="translate(19.914 14.572)"><path class="i" d="M866.155,827.682l1.343-3.7a19.127,19.127,0,0,1-4.367-2.525,2.4,2.4,0,0,1-.5-3.242l.086-.126a2.393,2.393,0,0,1,3.473-.526,13.963,13.963,0,0,0,3.966,2.262c2.223.806,4.055.5,4.62-1.06.538-1.482-.371-2.871-2.9-4.892-3.664-2.917-5.8-5.9-4.432-9.681,1.244-3.432,4.638-5.246,9.107-4.552l1.343-3.7,3.822,1.386-1.244,3.432a17.7,17.7,0,0,1,3.372,1.8,2.394,2.394,0,0,1,.6,3.314h0a2.4,2.4,0,0,1-3.4.582,12.746,12.746,0,0,0-3.25-1.728c-2.535-.919-3.749-.124-4.145.968-.466,1.287.6,2.6,3.464,5.05,4.047,3.321,5.141,6.144,3.868,9.654-1.259,3.471-4.79,5.544-9.557,4.7l-1.443,3.978Z" transform="translate(-862.21 -795.931)"/></g></g><rect class="j" width="127.403" height="68.28" transform="translate(261.702 263.448)"/><path class="a" d="M952.557,977.853h0a6.056,6.056,0,0,0,5.912,6.19h-9.548a6.056,6.056,0,0,0-5.912,6.19h0a6.056,6.056,0,0,0,5.912,6.19h1.654a5.671,5.671,0,0,0-2.376.522h68.184V971.663H958.469A6.056,6.056,0,0,0,952.557,977.853Z" transform="translate(-627.279 -665.218)"/><g transform="translate(3.092 310.439)"><g transform="translate(0 25.45)"><path class="k" d="M218.322,1041.909h0a1.928,1.928,0,0,0,1.852,2H682.081a1.928,1.928,0,0,0,1.853-2h0a1.929,1.929,0,0,0-1.853-2H220.174A1.928,1.928,0,0,0,218.322,1041.909Z" transform="translate(-218.322 -1039.913)"/></g><path class="g" d="M1043.758,1043.193H967.715a5.525,5.525,0,0,1-5.524-5.525h0a5.525,5.525,0,0,1,5.524-5.525h76.043a5.524,5.524,0,0,1,5.524,5.525h0A5.524,5.524,0,0,1,1043.758,1043.193Z" transform="translate(-641.278 -1010.046)"/><path class="h" d="M1040.174,1017.582H964.132a5.525,5.525,0,0,1-5.525-5.525h0a5.524,5.524,0,0,1,5.525-5.524h76.043a5.524,5.524,0,0,1,5.525,5.524h0A5.525,5.525,0,0,1,1040.174,1017.582Z" transform="translate(-639.24 -995.484)"/><path class="g" d="M1060.858,991.97H984.815a5.524,5.524,0,0,1-5.524-5.525h0a5.525,5.525,0,0,1,5.524-5.525h76.043a5.525,5.525,0,0,1,5.525,5.525h0A5.525,5.525,0,0,1,1060.858,991.97Z" transform="translate(-651 -980.921)"/></g><path class="l" d="M922.32,451.654l.968,6.545-10.359,2.72.234,9.744-7.42,3.3,1.672,3.756,9.924-4.418-.222-9.234,10.777-2.83-1.456-9.849Z" transform="translate(-606.089 -369.397)"/><g transform="translate(213.305 19.088)"><path class="m" d="M710.547,348.024l2-4.954a25.943,25.943,0,0,1-5.8-3.629,3.251,3.251,0,0,1-.527-4.415l.122-.167a3.244,3.244,0,0,1,4.73-.546,18.927,18.927,0,0,0,5.264,3.254c2.972,1.2,5.469.87,6.309-1.216.8-1.981-.366-3.906-3.7-6.764-4.824-4.126-7.579-8.267-5.541-13.325,1.849-4.589,6.532-6.884,12.553-5.731l2-4.954,5.11,2.06-1.849,4.589a23.978,23.978,0,0,1,4.482,2.6,3.245,3.245,0,0,1,.654,4.518h0a3.247,3.247,0,0,1-4.631.626,17.289,17.289,0,0,0-4.319-2.5c-3.39-1.366-5.073-.347-5.661,1.113-.694,1.721.69,3.551,4.45,7.006,5.323,4.691,6.67,8.568,4.779,13.261-1.87,4.641-6.752,7.28-13.17,5.907l-2.144,5.319Z" transform="translate(-705.589 -305.576)"/></g><path class="b" d="M695.509,489.59a2.075,2.075,0,0,1-.356,2.614,20.413,20.413,0,0,1-6.482,3.909,16.407,16.407,0,0,1-12.621-.173,15.12,15.12,0,0,1-6.5-5.909l-2.4.9a1.576,1.576,0,0,1-2.029-.921l-.023-.062a1.576,1.576,0,0,1,.921-2.029l1.968-.739c-.315-.653-.538-1.06-.677-1.429a15.482,15.482,0,0,1-.623-2.221l-2.029.761a1.575,1.575,0,0,1-2.029-.922h0a1.576,1.576,0,0,1,.922-2.029l2.46-.923a16.184,16.184,0,0,1,1.173-8.648,17.414,17.414,0,0,1,9.89-8.973,17.787,17.787,0,0,1,6.153-1.22,2.125,2.125,0,0,1,2.146,2.026l0,.036a2.131,2.131,0,0,1-2.054,2.224,15.238,15.238,0,0,0-4.785,1.015,11.343,11.343,0,0,0-6.455,5.79,9.46,9.46,0,0,0-.721,5.742l13.834-5.192a1.576,1.576,0,0,1,2.029.922h0a1.576,1.576,0,0,1-.921,2.029l-14.449,5.423c.192.7.384,1.4.546,1.83.207.553.415,1.106.754,1.821l14.48-5.434a1.61,1.61,0,0,1,2.072.941h0a1.61,1.61,0,0,1-.941,2.072l-13.865,5.2a10.006,10.006,0,0,0,4.06,3.527,11.08,11.08,0,0,0,8.878.105,17.351,17.351,0,0,0,4.617-2.6,2.076,2.076,0,0,1,3.053.537Z" transform="translate(-467.803 -375.188)"/><path class="f" d="M619.527,390.1l-6.281.637-2.142-9.993-9.3-.2-2.826-7.216-3.653,1.431,3.779,9.652,8.812.19,2.229,10.4,9.452-.959Z" transform="translate(-429.589 -325.01)"/><path class="g" d="M553.9,529.011l1.423-7.052,6.616-2.826a.989.989,0,0,0,.1-1.771l-6.268-3.532-.643-7.166a.988.988,0,0,0-1.654-.639l-5.3,4.869-7.013-1.6a.989.989,0,0,0-1.12,1.375l2.994,6.542-3.692,6.175a.988.988,0,0,0,.962,1.489l7.147-.826,4.732,5.419A.989.989,0,0,0,553.9,529.011Z" transform="translate(-397.68 -400.312)"/><g transform="translate(0 120.093)"><path class="n" d="M359.477,961.172s-8.818,6.357-10.207,8.254c-2,2.732,14.939,7.841,13.091,4.642-.425-.736-1.645-3.211-1.7-3.454-.284-1.3,3.309-4.81,3.309-4.81Z" transform="translate(-289.592 -779.346)"/><path class="o" d="M365.233,985.471l-5.988-8.461s-3.739-.869-7.576-5.186a14.032,14.032,0,0,0-5.57,4.169,97.608,97.608,0,0,0,10.185,9.182,28.287,28.287,0,0,0,8.721,4.953C370.066,991.838,365.233,985.471,365.233,985.471Z" transform="translate(-287.882 -785.402)"/><path class="n" d="M215.582,699.8s1.084.958,1.467,1.25c.45.342,1.872,1.267,1.872,1.267s5.147,2.927,5.321,2.542a2.549,2.549,0,0,0-.087-1.789c-.255-.292-1-.594-1.25-.886a.945.945,0,0,1-.014-1.208c.327-.326,2.086.634,2.086.634a6.567,6.567,0,0,1,2.02,1.748c2.064,3.312,1.438,3.5,1.714,3.923.327.494,7.545,3.771,7.545,3.771l14.168,6.735c.157,1-.768,3.236-1.468,6.209-3.311-1.675-18.951-8.716-21.281-10.031,0,0-3.489-.6-5.67-1.042a19.463,19.463,0,0,1-4.68-2.044,20.554,20.554,0,0,1-4.185-2.537c-1.849-1.433.538-.893.538-.893s3.886,2.06,3.987,1.733c.078-.252-2.107-1.255-4.169-2.82-.53-.4-1.052-.8-1.528-1.172-1.251-.972-1.032-1.992.433-1.177a16.315,16.315,0,0,1,1.923,1.225,13.477,13.477,0,0,0,1.867,1.045,17.624,17.624,0,0,0,1.931,1.066c0-.077.308-.1-.242-.547-.661-.534-2.308-1.368-3.222-2.225-.518-.487-1.66-1.44-1.66-1.44a14.313,14.313,0,0,1-1.395-1.868c.388-.629,1.72.3,2.34,1.047a10.967,10.967,0,0,1,1.809,1.32s2.831,1.581,3.05,1.193c.093-.165-1.533-1.337-2.954-2.729-1.319-1.292-2.447-2.8-2.237-3.094C213.968,698.512,215.582,699.8,215.582,699.8Z" transform="translate(-211.154 -630.216)"/><path class="p" d="M344.947,808.16l.074,6.7,35.065,31.894-25.1,25.4,6.777,6.926s37.07-27.221,38.406-30.788c2.057-5.492-27.781-41.662-27.781-41.662Z" transform="translate(-287.227 -691.474)"/><path class="n" d="M274.125,1003.081s-7.074,7.709-8.463,9.606c-2,2.732,12.938,6.765,11.089,3.566-.425-.736-1.645-3.211-1.7-3.455-.284-1.3,3.309-4.81,3.309-4.81Z" transform="translate(-242.042 -803.174)"/><path class="o" d="M282.015,1028.355l-9.736-3.558s-3.679,1.673-9.291.3a12.887,12.887,0,0,0-2.1,6.334s18.454,2.354,23.589.884S282.015,1028.355,282.015,1028.355Z" transform="translate(-239.43 -815.522)"/><path class="q" d="M305.734,811.589l1.575,43.521L276.2,893.257l8.417,4.61s34.418-29.54,38.2-37.768c2.344-5.1,10.378-52.709,10.378-52.709Z" transform="translate(-248.136 -691.907)"/><path class="n" d="M446.86,546.625c-.961-.8-1.38-2.733-1.539-3.975l-.428-1.643c.39-.16,8.015-1.245,10.315-1.3a4.182,4.182,0,0,1,.264,1.735c-.342,1.88-2.742,14.083-2.742,14.083l-6.567.131S447.592,548.415,446.86,546.625Z" transform="translate(-344.056 -539.703)"/><path class="r" d="M365.373,641.914l1.139,4.648s.26,4.046-1.619,4.41c-2.265.439-5.631-2.951-5.631-2.951l-1.95-13.107Z" transform="translate(-294.258 -593.839)"/><path class="n" d="M365.373,641.914l1.139,4.648s-.561,4.862-2.445,5.195c-4.963.876-5.109-3.8-5.109-3.8l-1.645-13.048Z" transform="translate(-294.258 -593.839)"/><path class="s" d="M358.189,638.934l1.571,11.373,6.725-5.395Z" transform="translate(-294.757 -596.124)"/><path class="n" d="M364.586,607.1a4.748,4.748,0,0,1,4.378,3.283,41.253,41.253,0,0,1,1.755,6.729c.851,5.041-2.019,9.654-4.517,10.023s-8.447-1.286-9.762-8.426c-.564-3.06-1.306-7.075,1.211-9.184A11.315,11.315,0,0,1,364.586,607.1Z" transform="translate(-293.444 -578.025)"/><path class="t" d="M346.919,615.539s-8.8-7.846-9.188-13.976,5.277-9.413,10.117-9.584a32.842,32.842,0,0,1,5.924.305c4.849.611,7.993,2.761,6.886,6.734-1.485,5.335-11.551.834-13.608,2.49-1.7,1.366,1.055,4.653-.595,5.906-1.551,1.179-.761.779-.248,3.02A39.569,39.569,0,0,1,346.919,615.539Z" transform="translate(-283.113 -569.412)"/><path class="n" d="M351.121,626.315c.218,1.469,1.116,2.553,2.006,2.422s1.434-1.428,1.215-2.9-1.116-2.553-2.006-2.421S350.9,624.846,351.121,626.315Z" transform="translate(-290.71 -587.296)"/><path class="g" d="M318.933,612.1l20.949-3.022,9.193-32.577,6.567-.131s-2.316,34.2-5.677,37.563-22.781,9.71-22.781,9.71l5.665,53.02-28.284,3.572-1.266-51.54s-5.182,24-6.676,27.366-22.483-4.421-22.483-4.421L278,643.359l11.1,3.292s6.007-27.512,8.209-28.612c3.735-1.867,15.884-4.372,14.665-3.306s3.519,4.836,5.631,2.951S318.933,612.1,318.933,612.1Z" transform="translate(-246.968 -560.55)"/><path class="s" d="M402.315,808.844l1.6,34.214-7.605-6.819Z" transform="translate(-316.433 -692.734)"/><path class="s" d="M341.73,697.655l6.2,34.366L343.118,746.2Z" transform="translate(-285.398 -629.513)"/></g><g transform="translate(1.785)"><path class="u" d="M221.021,333.414l100.251,51.619c5.395,2.778,12.215.277,15.234-5.585l25.6-49.721c3.019-5.862,1.092-12.866-4.3-15.644L257.553,262.464c-5.395-2.778-12.215-.277-15.234,5.585l-25.6,49.721C213.7,323.632,215.627,330.636,221.021,333.414Z" transform="translate(-215.292 -261.33)"/><rect class="v" width="16.966" height="134.733" transform="translate(2.002 55.323) rotate(-62.756)"/></g><rect class="h" width="29.705" height="16.477" transform="translate(42.073 8.234) rotate(27.293)"/><path class="n" d="M447.273,537.349c-.174-.472-.518-1.13-.349-1.388,1.069-1.633-.084-3.408-.861-2.019a8.726,8.726,0,0,0-1.175,3.505c.049.669.727,3.219.727,3.219A2.367,2.367,0,0,0,447.273,537.349Z" transform="translate(-344.05 -416.05)"/><g transform="translate(333.073 24.563)"><g transform="translate(0 0)"><g transform="translate(32.937 57.631)"><path class="n" d="M1125.744,940.648s-.617,7.685-.116,10.183c.268,1.337,1.761,4.09,1.076,5.349a3.412,3.412,0,0,1-1.468,1.573l-17.751.281c-.967.016-.328-.6.451-1.16a35.988,35.988,0,0,1,6.383-3.472c.265-.126,1.233-.732,1.582-.941a12.222,12.222,0,0,0,2.539-2.206c1.274-1.4,1.386-8.163,1.386-8.163Z" transform="translate(-1086.53 -729.777)"/><path class="w" d="M1109.924,701.324s-7.63-3.762-6.162,4.418,12.646,100.174,12.646,100.174l10.471.581s1.337-30.671,1.044-35.076a80.41,80.41,0,0,0-2.029-11.218l-.888-27.209-9.879-33.6Z" transform="translate(-1084.584 -592.605)"/><path class="d" d="M1114.219,967.51a16.322,16.322,0,0,0,10.106-.39c.5,1.4,1.164,3.146.812,4.155-.431,1.236-.993,1.785-1.534,1.8-4.288.111-15.759-.008-19.029.034a.525.525,0,0,1-.415-.864C1104.97,971.292,1113.869,967.721,1114.219,967.51Z" transform="translate(-1084.845 -744.829)"/><path class="n" d="M1079.6,505.287s-6.451-12.412-7.451-16.969-4.467-27.5-4.174-28.981,5.772-5.034,5.1-6.289-5.9-1.259-7.091-1.151a10.81,10.81,0,0,0-4.626,1.652c-1.029.848,1.157,28.347,1.809,34.267s8.667,24.153,8.667,24.153Z" transform="translate(-1060.425 -451.855)"/><path class="n" d="M1220.512,782.776s5.321-5.579,6.506-7.834c.634-1.208,1.209-4.286,2.534-4.832a3.411,3.411,0,0,1,2.131-.3l13.962,10.965c.761.6-.121.67-1.082.616a35.943,35.943,0,0,1-7.144-1.324c-.286-.069-1.419-.209-1.822-.266a12.23,12.23,0,0,0-3.362.113c-1.869.281-6.219,5.466-6.219,5.466Z" transform="translate(-1151.073 -632.61)"/><path class="d" d="M1244.8,779.412a16.324,16.324,0,0,0-8.094-6.064c.49-1.4,1.026-3.228,1.935-3.79,1.114-.688,1.881-.546,2.311-.215,3.4,2.616,12.3,9.771,14.864,11.8a.524.524,0,0,1-.222.932C1254.369,782.3,1245.208,779.469,1244.8,779.412Z" transform="translate(-1160.283 -632.219)"/><path class="x" d="M1158.468,546.436c-3.312-6.947-10.65-10.771-17.758-8.92a16.348,16.348,0,0,0-10.6-6.447c-8.1-1.147-18.541,2.78-17.475,11.231-2.558,5.911-1.931,14.055,3.178,18.048-.939,7.769,6.851,14.661,16.071,13.731,3.71,5.12,10.158,8.124,16.19,6.954a36.406,36.406,0,0,1,4.025-.742c-.473-.053,10.516,7.143,18.094-5.671C1177.929,561.544,1170.313,546.927,1158.468,546.436Z" transform="translate(-1088.904 -496.784)"/><path class="l" d="M1111.172,701.758s17.111-7.608,17.38-6.74c2.145,6.909,8.82,4.68,12.782,16.85,1.659,5.1,3.363,39,3.363,39s6.747-5.6,16.389-15.383c.739-.751,7.989,6.143,7.989,6.143-19.139,25.858-27.4,27.207-30.589,25.76-6.666-3.022-20.733-45.3-20.71-45.292C1116.088,718.8,1111.172,701.758,1111.172,701.758Z" transform="translate(-1088.904 -590.075)"/><path class="n" d="M1176.927,589.759s24.732-.031,30.027-.337c4.792-.276,23.8.208,24.544.122s5.657-8.407,6.473-7.514-2.734,4.126-1.636,4.965,12.895-1.04,12.738-.167c-.293,1.632-7.175,1.424-7.168,2.212s7.2-.442,7.691.866-6.922.533-7.218,1.117,6.873,1.652,6.139,2.869c-.4.661-6.352-1.1-6.323-.2s4.372,2.949,3.84,3.666-3.409-2.2-5.929-2.237-4.325-1.351-8.348-.248c-1.987.545-17.152,2.4-29.966,3.494-13.136,1.122-23.9,1.479-23.9,1.479Z" transform="translate(-1126.292 -525.832)"/><path class="q" d="M1086.59,599.418a31.467,31.467,0,0,1,.632-8.347c-1.2-4.125-3.756-12.925-4.675-14.654,0,0,4.306-8.275,8.714-8.218,0,0,4.5,10.147,7.982,11.963a8.625,8.625,0,0,0,1.751.522c3.361-.024,15.1-.38,17.3-.419l-1.234,16.661c-8.51,16.68-6.2,25.434-2.968,28.671,1.523,1.523-21.235,7.7-22.283,5.547C1090.57,628.6,1087.253,607.445,1086.59,599.418Z" transform="translate(-1072.628 -518.006)"/><path class="q" d="M1151.567,596.775c2.166-1.035,17.841-.516,17.841-.516s2.19,10.916.421,13.539c0,0-14.016,2.086-13.617,3.236Z" transform="translate(-1111.872 -533.887)"/><path class="n" d="M1128.432,577.173a81.272,81.272,0,0,0,0,8.432c.279,2.48-2.544,8.293-7.8,8.394s-.771-5.578-.311-8.018,1.012-11.992,1.012-11.992Z" transform="translate(-1092.846 -521.299)"/><path class="s" d="M1122.859,590.3l8.048-6.877-6.877-1.171Z" transform="translate(-1095.549 -525.997)"/><path class="n" d="M1129.957,539.978a8.732,8.732,0,0,1,4.646,3.866c1.67,2.977,2.373,11.45-4.044,14.941-4.149,2.256-7.454.6-9.193-2.31a9.815,9.815,0,0,1-1.33-5.471C1120.329,545.6,1121.982,538.472,1129.957,539.978Z" transform="translate(-1093.936 -501.844)"/><path class="n" d="M1116.793,557.806c.434,1.34,1.419,2.22,2.2,1.967s1.06-1.544.625-2.884-1.42-2.219-2.2-1.966S1116.358,556.467,1116.793,557.806Z" transform="translate(-1091.983 -510.433)"/><path class="x" d="M1140.977,539.693s3.258,8.909,6.59,9.914,2.984,5.352,2.984,5.352.616-10.049-2.4-12.572A13.379,13.379,0,0,0,1140.977,539.693Z" transform="translate(-1105.851 -501.799)"/><path class="n" d="M1152.5,564.107c-.542,1.373-.23,2.783.7,3.15s2.12-.449,2.663-1.822.23-2.783-.7-3.15S1153.04,562.734,1152.5,564.107Z" transform="translate(-1112.25 -514.594)"/><path class="s" d="M1193.406,600.228l4.829,9.072-4.243.878Z" transform="translate(-1135.661 -536.218)"/><path class="y" d="M1059.555,457.733s7.246.317,8.1.317,3.326-2.56,3.326-2.56Z" transform="translate(-1059.555 -453.922)"/></g><circle class="h" cx="28.13" cy="28.13" r="28.13" transform="matrix(0.976, -0.22, 0.22, 0.976, 0, 12.372)"/><path class="g" d="M1049.363,351.541a23.6,23.6,0,1,1-32.881-5.761A23.6,23.6,0,0,1,1049.363,351.541Z" transform="translate(-996.414 -331.474)"/><g transform="translate(23.65 16.442)"><path class="i" d="M1050.73,390.168l-1.028-3.8a19.154,19.154,0,0,1-5.026.442,2.4,2.4,0,0,1-2.274-2.365l0-.152a2.394,2.394,0,0,1,2.541-2.425,13.974,13.974,0,0,0,4.546-.426c2.282-.617,3.606-1.921,3.173-3.522-.412-1.522-1.953-2.136-5.187-2.336-4.674-.283-8.139-1.494-9.189-5.378-.953-3.524.782-6.958,4.839-8.957l-1.029-3.8,3.924-1.061.953,3.524a17.672,17.672,0,0,1,3.8-.461,2.394,2.394,0,0,1,2.395,2.368h0a2.4,2.4,0,0,1-2.447,2.429,12.748,12.748,0,0,0-3.653.453c-2.6.7-3.14,2.052-2.837,3.173.358,1.321,1.986,1.783,5.737,2.144,5.22.393,7.737,2.076,8.712,5.68.963,3.563-.736,7.289-5.124,9.335l1.1,4.084Z" transform="translate(-1038.028 -356.378)"/></g></g><path class="r" d="M1078.324,455.115l2.991-2.689s-1.412-1.687-.825-2.011c.954-.527,2.588,1.512,2.442,2.007a11.725,11.725,0,0,1-1.9,2.093Z" transform="translate(-1037.29 -393.356)"/></g><path class="s" d="M1145.681,634.309s-23.6,15.3-8.6,34.161c20.248,25.457,19.511,47.915,19.511,47.915s-.889-37.776-5.993-45.087c-5.328-7.631-13.5-7.576-10.8-21.6S1145.681,634.309,1145.681,634.309Z" transform="translate(-734.789 -473.402)"/><path class="s" d="M1111.9,715.84l19.567,91.483s1.373-22.656.858-27.805-1.888-14.417-1.888-14.417Z" transform="translate(-723.306 -519.759)"/><g transform="translate(67.317 155.193)"><circle class="z" cx="1.084" cy="1.084" r="1.084" transform="translate(5.763 2.682)"/><circle class="z" cx="1.021" cy="1.021" r="1.021" transform="translate(0 4.539)"/><path class="aa" d="M376.325,629.688l1,2.226a.5.5,0,0,1-.246.65l-.735.346" transform="translate(-372.385 -625.967)"/><path class="aa" d="M376.717,641.678a1.881,1.881,0,0,1-1.625,1.846c-1.718.434-2.447-1.557-2.447-1.557" transform="translate(-370.293 -632.785)"/><circle class="ab" cx="0.581" cy="0.581" r="0.581" transform="translate(4.971)"/><circle class="ab" cx="0.581" cy="0.581" r="0.581" transform="translate(0.089 1.044)"/></g><g transform="translate(395.905 126.31)"><circle class="z" cx="1.084" cy="1.084" r="1.084" transform="translate(5.918 4.308)"/><circle class="z" cx="1.021" cy="1.021" r="1.021" transform="translate(0 3.191)"/><path class="aa" d="M1137.2,563.327l-.175,2.434a.5.5,0,0,1-.525.456l-.811-.043" transform="translate(-1132.741 -559.352)"/><path class="aa" d="M1133.654,574.409a1.881,1.881,0,0,1-2.305.856c-1.719-.431-1.417-2.53-1.417-2.53" transform="translate(-1129.454 -564.701)"/><circle class="ab" cx="0.581" cy="0.581" r="0.581" transform="translate(6.789 1.393)"/><circle class="ab" cx="0.581" cy="0.581" r="0.581" transform="translate(1.994)"/></g></svg>