<svg xmlns="http://www.w3.org/2000/svg" width="82.8" height="73.2" viewBox="0 0 82.8 73.2"><defs><style>.a{fill:#d6b3f5;}</style></defs><g transform="translate(0 0)"><circle class="a" cx="12" cy="12" r="12" transform="translate(6.4 31)"/><g transform="translate(-8.6 -13.4)"><path d="M80.5,13.4h-61A10.926,10.926,0,0,0,8.6,24.3V75.7A10.926,10.926,0,0,0,19.5,86.6h61A10.926,10.926,0,0,0,91.4,75.7V24.3A10.926,10.926,0,0,0,80.5,13.4Zm-61,5.8h61a5.121,5.121,0,0,1,5.1,5.1V34H14.4V24.3A5.121,5.121,0,0,1,19.5,19.2Zm61,61.6h-61a5.121,5.121,0,0,1-5.1-5.1V39.9H85.6V75.7A5.121,5.121,0,0,1,80.5,80.8Z"/><path d="M30.9,44.1a10.1,10.1,0,1,0,0,20.2A9.988,9.988,0,0,0,41,54.3,10.158,10.158,0,0,0,30.9,44.1Zm0,14.5a4.354,4.354,0,0,1-4.3-4.4,4.3,4.3,0,1,1,8.6,0A4.354,4.354,0,0,1,30.9,58.6Z"/><path d="M35.2,68.7H26.5a2.9,2.9,0,0,0,0,5.8h8.7a2.9,2.9,0,0,0,0-5.8Z"/><path d="M55.8,68.7H47.1a2.9,2.9,0,1,0,0,5.8h8.7a2.9,2.9,0,0,0,0-5.8Z"/><path d="M55.8,51.4H47.1a2.9,2.9,0,1,0,0,5.8h8.7a2.9,2.9,0,1,0,0-5.8Z"/><path d="M76.4,68.7H67.7a2.9,2.9,0,0,0,0,5.8h8.7a2.9,2.9,0,0,0,0-5.8Z"/><path d="M76.4,51.4H67.7a2.9,2.9,0,0,0,0,5.8h8.7a2.9,2.9,0,1,0,0-5.8Z"/><circle cx="4.4" cy="4.4" r="4.4" transform="translate(22.9 22.1)"/><circle cx="4.4" cy="4.4" r="4.4" transform="translate(68.3 22.1)"/></g></g></svg>