<svg xmlns="http://www.w3.org/2000/svg" xmlns:xlink="http://www.w3.org/1999/xlink" width="967.18" height="359.54" viewBox="0 0 967.18 359.54"><defs><style>.a,.ak,.am,.ap,.ar,.ay,.n,.q,.u,.w{fill:none;}.b{clip-path:url(#a);}.c{fill:#5f96cf;}.d{fill:#eaaa7e;}.e{opacity:0.1;}.bf,.bn,.bo,.e{isolation:isolate;}.f{fill:#c8e5f7;}.ag,.ai,.g{fill:#fff;}.h{fill:#97b7d2;}.i{fill:#f8e6db;}.j{fill:#fcfdff;}.k{fill:#e2a372;}.l{fill:#f9f0d9;}.m{opacity:0.4;}.n{stroke:#808184;}.am,.ap,.ar,.ay,.n,.q,.u,.w{stroke-miterlimit:10;}.o{fill:#2d4856;}.p{fill:#668791;}.q{stroke:#2d4856;stroke-width:3px;}.r{fill:#40739e;}.s{fill:#0b0b0b;}.t{fill:#f0846c;}.u,.w{stroke:#b97343;}.ar,.u{stroke-width:0.75px;}.v{fill:#b97343;}.am,.ay,.w{stroke-linecap:round;}.x{fill:#f1a06c;}.y{fill:#282a2a;}.z{fill:#f6b54c;}.ak,.z{opacity:0.97;}.aa{fill:#434343;}.ab{fill:#466eb5;}.ac{fill:#2e4f80;}.ad{fill:#764e9e;}.ae{fill:#a587be;}.af{fill:#5a3c80;}.ag,.ah{opacity:0.31;}.ah{fill:#0086be;}.ai{opacity:0.51;}.aj{fill:#444;}.ak{stroke:#f6b54c;stroke-linecap:square;stroke-linejoin:round;}.ak,.am{stroke-width:4px;}.al{fill:#c57d56;}.am{stroke:#231f20;}.an{fill:#431613;}.ao{fill:#e7954d;}.ap{stroke:#d0d2d3;}.aq{fill:#234f8c;}.ar{stroke:#683d1e;}.as{fill:#683f24;}.at{fill:#f39f72;}.au{fill:#ef515d;}.av{fill:#3e1c34;}.aw{fill:#3a3939;}.ax{fill:#433c4c;}.ay{stroke:#433c4c;stroke-width:2px;}.az{fill:#5e5e5e;}.ba{fill:#934848;}.bb{clip-path:url(#b);}.bc{fill:#e95d5d;}.bd{fill:#d24052;}.be{fill:#3c8f7c;}.bf,.bo{opacity:0.21;}.bg{fill:#f3a785;}.bh{fill:#343435;}.bi{fill:#696a71;}.bj{fill:#e18f70;}.bk{fill:#4d1a10;}.bl{fill:#f7961d;}.bm{fill:#bf6e29;}.bn{opacity:0.08;}</style><clipPath id="a"><rect class="a" width="967.18" height="355.24" transform="translate(-10.77 -36.49)"/></clipPath><clipPath id="b"><path class="a" d="M490.6,109.06a7.46,7.46,0,0,0,3.09,6.19,5.43,5.43,0,0,0,5.63-.53c2.07-1.38,3.5-3.76,4.82-6a65.151,65.151,0,0,1-13.54.34Z" transform="translate(-10.77 -36.49)"/></clipPath></defs><g transform="translate(778.86 230.49)"><g transform="translate(-768.09 -194)"><g class="b"><path class="c" d="M723.26,323.04H612.29l.4-5.46.59-8.22,3.09-42.49,48.97,1.1,6.07.14,47.73,1.07,3.07,40.18.52,6.69Z"/><path class="c" d="M611.44,235.21l110.58,1.42,4.99,79.36-120.42,1.67Z"/><path class="d" d="M667.29,121.58l23.63,1.51s-.42,10.42,1.27,11.27l4,8.07v18.71l-19.84,9-14.77-4.72-2.53-13,1.48-10.21,1.05-4.89,5.28-4.68a81.984,81.984,0,0,1,.43-11.06Z" transform="translate(-10.77 -36.49)"/><path class="e" d="M671.57,131a59.638,59.638,0,0,0,10.73.38c6.07-.46,8.05-2.45,8.05-2.45-.58-2.07,2.36,8.41,2.7,10.9C693.33,141.82,671.57,131,671.57,131Z" transform="translate(-10.77 -36.49)"/><path class="c" d="M667.29,161.28s10.13,11.15,20.68,2.43v15.85l-13.51,3.83L670,177.22l-2.74-9.78Z" transform="translate(-10.77 -36.49)"/><path class="f" d="M691.8,132.65l39.7,9.53c6.19,2.06,8.73,10.72,9.62,17.36,1,7.53,2.6,11.27,4.12,21.86,0,0,6,48.84,4.53,56.28,0,0,.64,11.26-7.59,11.48l-10.34,1.91L749,345.85H686l-8.24-87.55-3.24,87.55H608.87l13.25-87.34s-8.44.21-10.13-10c0,0-5.28-22.32-2.11-41.88,0,0,.63-36.57,3.37-47.84,0,0-1.47-12.1,12.66-13.89l38.52-10.67,7.27,43.34,13.21.1Z" transform="translate(-10.77 -36.49)"/><path class="g" d="M630.74,104.09l22.07-6.23,13.61,67.6-24.89-27.03,6.13-4.65H640Z"/><path class="h" d="M632.42,103.62l21.24-6.34,13.12,67.51-24-27,5.91-4.64h-7.38Z"/><path class="h" d="M635.41,267.58H658.2s7.59,26.65-11.4,27.5C646.8,295.08,629.36,297.2,635.41,267.58Z" transform="translate(-10.77 -36.49)"/><path class="h" d="M696.88,267.58h22.79s7.6,26.65-11.39,27.5C708.28,295.08,690.83,297.2,696.88,267.58Z" transform="translate(-10.77 -36.49)"/><path class="g" d="M705.76,102.09l-23.21-5.71L670.31,165.4l25.04-27.75-6.04-4.47,7.38-.22Z"/><path class="h" d="M703.6,101.56l-22.9-5.59-10.85,69.44,23.65-28.17-6.04-4.47,7.38-.22Z"/><path class="i" d="M642.64,216.63l52.19,12.62,18.15-76.26-51.91-10.34Z"/><path class="j" d="M648.26,213.15l42.84,10.87,16.88-68.74L665.21,144.9Z"/><path class="k" d="M699.12,154.25l-26.3-6.77.49-1.95,26.3,6.78Z"/><path class="k" d="M693.22,185l1-5.48a3.91,3.91,0,0,1,1.74-2.6c1.8-1.13,4.87-2.12,6.76,2.33a3.84,3.84,0,0,1,.15,2.39l-1.35,5.29Z" transform="translate(-10.77 -36.49)"/><ellipse class="l" cx="1.8" cy="1.81" rx="1.8" ry="1.81" transform="translate(685.97 141.94)"/><g class="m"><line class="n" x2="34.16" y2="8.5" transform="translate(666.86 153.99)"/><line class="n" x2="34.16" y2="8.5" transform="translate(665.61 157.96)"/><line class="n" x2="34.16" y2="8.5" transform="translate(664.81 161.93)"/><line class="n" x2="34.16" y2="8.5" transform="translate(663.56 165.9)"/><line class="n" x2="34.16" y2="8.51" transform="translate(663.23 169.87)"/><line class="n" x2="34.16" y2="8.51" transform="translate(661.51 173.84)"/><line class="n" x2="34.16" y2="8.51" transform="translate(660.26 177.81)"/><line class="n" x2="34.17" y2="8.5" transform="translate(659.46 181.79)"/><line class="n" x2="34.16" y2="8.5" transform="translate(658.21 185.76)"/><line class="n" x2="34.16" y2="8.5" transform="translate(657.42 189.73)"/></g><path class="d" d="M643.4,213.87s-11.65-6.1-19.39-5.67c0,0-11.25-1.68-4.5,2.42l16,6.22s-12.52-1.42-13.22-1.13-7,.32-3.38,2.85l12.8,2.4h-9.28s-5.77,2.4,0,3.82l12.38,1.13-8.58,1.85s-5.07,1.61.56,2.72.7,0,.7,0l21-2.87S649.93,216.76,643.4,213.87Z" transform="translate(-10.77 -36.49)"/><path class="f" d="M656.42,248.47l80.14,1.73s13.44.38,13.14-10.2L746,208.67,718.12,216Z" transform="translate(-10.77 -36.49)"/><ellipse class="o" cx="6.61" cy="6.66" rx="6.61" ry="6.66" transform="translate(681.78 120.62)"/><ellipse class="p" cx="4.2" cy="4.23" rx="4.2" ry="4.23" transform="translate(684.19 123.05)"/><path class="q" d="M653.42,201.19s-5.12.64-4.91-5.1v-22a9.44,9.44,0,0,1,3.64-7.48c3.81-2.67,10-4.65,15.19,1.8a9.9,9.9,0,0,1,2.14,6.22v20.86s1,7.06-6.15,5.76" transform="translate(-10.77 -36.49)"/><ellipse class="o" cx="1.88" cy="1.89" rx="1.88" ry="1.89" transform="translate(642.1 162.99)"/><ellipse class="o" cx="1.88" cy="1.89" rx="1.88" ry="1.89" transform="translate(650.05 163.05)"/><path class="q" d="M659,165s1.63-34.73,5.61-37.14c0,0,12.47-19.31,28.67-2.89a11.26,11.26,0,0,1,3.12,6.26c1.16,7.58,4.49,26.1,3.1,27.32" transform="translate(-10.77 -36.49)"/><path class="h" d="M637.82,172.33c.2,3.22.3,6.43.38,9.65s.1,6.42.12,9.64,0,6.43-.12,9.64l-.14,4.82c-.08,1.61-.13,3.22-.24,4.82-.12-1.6-.16-3.21-.25-4.82l-.14-4.82c-.09-3.21-.1-6.43-.11-9.64s0-6.43.11-9.64S637.61,175.55,637.82,172.33Z" transform="translate(-10.77 -36.49)"/><path class="r" d="M683.6,315.59c.21,3.21.31,6.42.39,9.64s.1,6.43.11,9.64,0,6.43-.11,9.64l-.14,4.82c-.09,1.61-.13,3.22-.25,4.83-.11-1.61-.16-3.22-.24-4.83l-.14-4.82c-.09-3.21-.11-6.43-.12-9.64s0-6.43.12-9.64S683.4,318.8,683.6,315.59Z" transform="translate(-10.77 -36.49)"/><path class="h" d="M728,224.78a88.643,88.643,0,0,1-9.45,3.14,86.49,86.49,0,0,1-9.72,2.19,86.51,86.51,0,0,1,9.45-3.15,88.719,88.719,0,0,1,9.72-2.18Z" transform="translate(-10.77 -36.49)"/><path class="h" d="M663.52,210.62a90.521,90.521,0,0,1-18.51,4,77.3,77.3,0,0,1,9.15-2.47A79.3,79.3,0,0,1,663.52,210.62Z" transform="translate(-10.77 -36.49)"/><path class="h" d="M654.54,227.23a53.611,53.611,0,0,1-4-14,45.319,45.319,0,0,1,2.5,6.88,46.783,46.783,0,0,1,1.5,7.12Z" transform="translate(-10.77 -36.49)"/><path class="h" d="M736,228.83a84.3,84.3,0,0,1-15.88-9.23,74.185,74.185,0,0,1,8.19,4.18,75.992,75.992,0,0,1,7.69,5.05Z" transform="translate(-10.77 -36.49)"/><path class="d" d="M704.62,217.41l3.77,13.07,12.78-6a13.38,13.38,0,0,0,9.73-12.43l12.13.63a2.809,2.809,0,0,0,.65,0c.81-.16,2.83-1.17-.38-2.5l-10.69-2.75s12.8,2,13.36,1.24,4.36-.33.85-3.73l-14.91-2.26h13.92s4.79-2.84,0-4.83l-14.58.3s-3-.16,1.78-2.14l11.68-1.28s5.06-1.7.14-3.4l-17.73.85-15,21.83Z" transform="translate(-10.77 -36.49)"/><path class="f" d="M627.53,230.48l77.09-13.07,3.77,13.07-79.73,27.61s-14.39,6-17.62-11.89l-1.41-8.54Z" transform="translate(-10.77 -36.49)"/><path class="h" d="M702.58,232.49a48.143,48.143,0,0,1-2.5-6.89,46.525,46.525,0,0,1-1.54-7.16,45.725,45.725,0,0,1,2.5,6.88,46.9,46.9,0,0,1,1.54,7.17Z" transform="translate(-10.77 -36.49)"/><path class="r" d="M683.37,353.43a8.87,8.87,0,0,1,.07,3.12,8.72,8.72,0,0,1-.93,3,8.691,8.691,0,0,1-.06-3.13A8.868,8.868,0,0,1,683.37,353.43Z" transform="translate(-10.77 -36.49)"/><path class="r" d="M683.84,352.81a11.62,11.62,0,0,1,.62,6.73,10.409,10.409,0,0,1-.81-3.32,10.619,10.619,0,0,1,.19-3.41Z" transform="translate(-10.77 -36.49)"/><path class="d" d="M704.86,89.63a4.83,4.83,0,0,0-3.14.35c-2.37-15.77-11.36-27.5-22.11-27.5S659.7,74.42,657.43,90.39a5.15,5.15,0,0,0-3.91-.76c-3.37.79-5.19,5.27-4.06,10s4.73,7.91,8.09,7.17C660,122.39,668.94,134,679.61,134s19.57-11.51,22-27c3.11.11,6.24-2.93,7.27-7.27C710.05,94.9,708.23,90.42,704.86,89.63Z" transform="translate(-10.77 -36.49)"/><path class="s" d="M656.62,94.62s3.29-2.13,1.25-6.26a8.21,8.21,0,0,0,4.31-6.65s9.53,2.05,18.6-6.4c0,0,3.63,9.6,16.34,0,0,0-.54,4.78,1.77,7.64,0,0,3,5.84,2.18,11.67,0,0,7.16-7.89,4.67-21.6,0,0,5.59-3.2.53-10.74,0,0-4.16-4.12-8.7,1.6,0,0-8.62-16.69-31.76-16,0,0-31.08,5.25-13.61,29.71C652.2,77.59,653.9,91.83,656.62,94.62Z" transform="translate(-10.77 -36.49)"/><path class="s" d="M685.55,49.1a10.07,10.07,0,0,1,5.63.94,12.31,12.31,0,0,1,4.54,3.69,12.47,12.47,0,0,1,2.2,11,25.064,25.064,0,0,0-1.28-5.27,18.26,18.26,0,0,0-2.5-4.52,16.351,16.351,0,0,0-3.73-3.55A18.44,18.44,0,0,0,685.55,49.1Z" transform="translate(-10.77 -36.49)"/><path class="s" d="M703.24,56.91a14.42,14.42,0,0,0-1.84,1.37,10.789,10.789,0,0,0-1.34,1.46A12.859,12.859,0,0,0,699,61.43c-.34.62-.62,1.3-1,2.11a4.54,4.54,0,0,1,.47-5,4.789,4.789,0,0,1,2.17-1.6A3.54,3.54,0,0,1,703.24,56.91Z" transform="translate(-10.77 -36.49)"/><ellipse class="t" cx="2.28" cy="2.29" rx="2.28" ry="2.29" transform="translate(657.49 66.49)"/><ellipse class="t" cx="2.54" cy="2.56" rx="2.54" ry="2.56" transform="translate(677.26 65.96)"/><path class="u" d="M682.08,98.78l-2.9,6.44a1.94,1.94,0,0,0,.58,2l2,.88" transform="translate(-10.77 -36.49)"/><path class="u" d="M674.82,114a5.34,5.34,0,0,0,4.65,5.26c4.93,1.17,7-4.68,7-4.68" transform="translate(-10.77 -36.49)"/><ellipse class="v" cx="1.74" cy="1.75" rx="1.74" ry="1.75" transform="translate(659.51 54.17)"/><ellipse class="v" cx="1.74" cy="1.75" rx="1.74" ry="1.75" transform="translate(677.97 54.17)"/><path class="w" d="M653.88,96c-.74,1.88-.24,3.83,1.11,4.37" transform="translate(-10.77 -36.49)"/><path class="w" d="M702.87,95.05a3.47,3.47,0,0,1,.42,4.88" transform="translate(-10.77 -36.49)"/><path class="x" d="M364.23,257.13l-31.39,34.21L314,278.2v16.62L330.75,305s6.61,3.75,9.8-2.68c0,0,43.37-34.73,43.37-40.55l-9.85-8Z" transform="translate(-10.77 -36.49)"/><path class="x" d="M269.69,92.35s-5.72,30.39,9.58,55.76c0,0,.71,1.78,10.29,2.14l-4.26,10.37s-20.57,11.43-2.84,17.51c0,0,14.9,8.58,27.32-10.37l5.32-8.93.36-26.29,8.86-17.31L287.08,89.49Z" transform="translate(-10.77 -36.49)"/><path class="y" d="M271.05,100.41c7.58.84,30.63,4.61,32.7,19.82l6-3.93s10.29-4.65,7.8,8.58l-4.25,15.36s-1.3,8.22,4.7,2.86c0,0,20.19-26.44,12.38-46.82,0,0,26.61-17.51,3.55-38.95,0,0-28.38-20.38-41.86,14.65,0,0-23.06-5.72-35.83,15.37,0,0-15.84,25,14.31,37.82l-1.85-22.58a2.16,2.16,0,0,1,2.35-2.18Z" transform="translate(-10.77 -36.49)"/><path class="z" d="M256.21,253.81l65.58,1.61s-5.45,44.5-1.46,49.32c0,0-41.15,32.44-75.47,1.34C244.86,306.08,255.68,273.92,256.21,253.81Z" transform="translate(-10.77 -36.49)"/><path class="aa" d="M257.81,139.88v11.53L234.4,172.32c-1.23,1.1-12.61-13.49-12.61-13.49l9.35-8.48L219,141l-1.7-1.28-7.7-5.71-1.77-1.32-7.43-7.18-1.62-1.58-9.12-8.33-.07-.06L173.21,98.17c5-26.16,30.33-22.62,30.33-22.62l13,18.92,1.38,2,4.26,8c.76,1,1.44,1.94,2.06,2.82,5,7.12,5.66,10.31,5.66,10.31l.54.86,4.51,7.18c.54.67,1,1.3,1.48,1.89,3.63,4.88,3.84,7.2,3.84,7.2l8.78-6.14Z" transform="translate(-10.77 -36.49)"/><path class="ab" d="M333.78,356.88H289.19c-.44-1.85-1.11-4.18-1.85-5s-1.62.05-2.33,5H242.6c-.95-5-1.77-10.18-2.35-15.41,0,0-2.92-30.55,5.06-43.16,0,0,16.32,23.56,70.18,1.48,1.15-.48,2.31-1,3.48-1.48C319,298.31,337.48,314.66,333.78,356.88Z" transform="translate(-10.77 -36.49)"/><path class="ac" d="M246.9,307.85a39.859,39.859,0,0,0,8.21,4.83,50.189,50.189,0,0,0,9,3.13,57.15,57.15,0,0,0,9.37,1.5,60,60,0,0,0,9.48-.09,67.865,67.865,0,0,0,9.39-1.45c1.53-.39,3.08-.74,4.59-1.23l2.28-.69,2.25-.78a107.8,107.8,0,0,0,17.3-8.06l-4.07,2.53-4.2,2.32c-1.44.7-2.86,1.44-4.33,2.08s-2.92,1.32-4.43,1.85A69.4,69.4,0,0,1,283,318.21a55.539,55.539,0,0,1-19.13-1.66,43.83,43.83,0,0,1-16.97-8.7Z" transform="translate(-10.77 -36.49)"/><path class="e" d="M333.78,356.88h-6.26c-1-17.38-5.95-37-10.17-51-.64-2.16-1.27-4.18-1.86-6,1.15-.48,2.31-1,3.48-1.48C319,298.31,337.48,314.66,333.78,356.88Z" transform="translate(-10.77 -36.49)"/><path class="e" d="M287.34,349.25v2.67c-.77-.83-1.62.05-2.33,5h-3.22C284.3,347.51,287.34,349.25,287.34,349.25Z" transform="translate(-10.77 -36.49)"/><path class="ad" d="M388.35,257.48s1.24,7.14-11.18,7.5L361,262.48s-6.75-7.33-4.44-12.16l2.13-.52-18-29.22h0l-5.43-8.83-.1.22c-1.25,2.63-13.36,28.26-13,36.06l2.13,10.18s-.53,4.46-5.85,6.79c0,0-2.14.27-5.19.63-6.22.72-16.25,1.78-19.82,1.6L270,265.11s5.87,21.14-12.76,26.23c0,0-.18-21.89-2.13-22.78,0,0-6.74,10.54-19.33,7,0,0,0-11.8,11.52-20.38,0,0-4.43-3.75-.35-9.29,0,0-1.77-19.3-3.55-19.3,0,0-4.43,10.56-9.22,13.24,0,0-6.38,7.49-17.92.88,0,0-11-7.33-1.05-20.38l41.31-61.47h20.76l8,1.79s-18.8,12.15-2.3,17.78c0,0,17.06,7.95,29.74-15.28l29.32,12.51S375.23,220,385,248.72C385,248.72,391,248.36,388.35,257.48Z" transform="translate(-10.77 -36.49)"/><path class="ae" d="M315.1,158.83s5.85,3.22,5.32,9.47c0,0-.18,17.16-10.11,20,0,0-3.37-8.58-10.46-6.44,0,0-22.53,19.66-28.91,41.46,0,0,7.19-37.81,20.49-43.68C291.43,179.66,304,179,315.1,158.83Z" transform="translate(-10.77 -36.49)"/><path class="ae" d="M286.84,156.88s-7-.56-12.67,1.63c0,0-12.21,8.2-8.29,17.83,0,0,5.89-4.14,9.76.9a146.618,146.618,0,0,1-8.83,42s22.11-35.21,13.39-42.43c0,0-3.21-4.06-1.73-8.9C279.65,164.13,287.25,161,286.84,156.88Z" transform="translate(-10.77 -36.49)"/><path class="af" d="M247,245.86a30.88,30.88,0,0,0,8.22,4.95,58.315,58.315,0,0,0,9.11,3,89.73,89.73,0,0,0,19,2.61l2.4.14H293c3.21-.13,6.41-.33,9.62-.51,3.2-.33,6.41-.59,9.61-1s6.37-.9,9.58-1.31c-3.17.63-6.34,1.19-9.51,1.79s-6.4.84-9.61,1.26c-1.6.19-3.22.26-4.83.37s-3.22.24-4.84.29h-7.28l-2.42-.12c-1.61-.11-3.23-.17-4.84-.31l-4.83-.59a74,74,0,0,1-9.51-2,59.16,59.16,0,0,1-9.11-3.34l-2.16-1.12c-.7-.4-1.38-.84-2.08-1.25A21.24,21.24,0,0,1,247,245.86Z" transform="translate(-10.77 -36.49)"/><path class="af" d="M360.86,249a14.541,14.541,0,0,0,5.61,1.53,31.428,31.428,0,0,0,5.82,0c1,0,1.94-.21,2.91-.29l2.91-.45,2.9-.55c1-.19,1.93-.42,2.91-.58-.91.38-1.85.7-2.78,1.06a28.517,28.517,0,0,1-2.87.83c-.96.26-1.95.43-2.92.62a21.371,21.371,0,0,1-3,.36,23.729,23.729,0,0,1-6-.25,11.33,11.33,0,0,1-5.49-2.28Z" transform="translate(-10.77 -36.49)"/><path class="af" d="M326.19,194.84a83.109,83.109,0,0,1,5,8.2,80.357,80.357,0,0,1,4.13,8.69,82.194,82.194,0,0,1-5-8.21,80.146,80.146,0,0,1-4.13-8.68Z" transform="translate(-10.77 -36.49)"/><path class="af" d="M260.42,193c-1.2,2.75-2.49,5.45-3.8,8.14s-2.68,5.35-4.05,8-2.79,5.29-4.25,7.9l-2.2,3.92c-.76,1.29-1.5,2.59-2.29,3.86.59-1.38,1.24-2.72,1.86-4.09l1.95-4c1.3-2.7,2.67-5.36,4-8s2.79-5.3,4.26-7.91S258.86,195.56,260.42,193Z" transform="translate(-10.77 -36.49)"/><path class="af" d="M270.54,218.29c-.34,2.73-.78,5.43-1.24,8.13s-1,5.39-1.51,8.08-1.1,5.37-1.73,8l-.94,4c-.35,1.32-.67,2.66-1.05,4,.16-1.37.38-2.72.57-4.08l.67-4.05c.45-2.71,1-5.4,1.5-8.08s1.11-5.37,1.74-8S269.8,220.94,270.54,218.29Z" transform="translate(-10.77 -36.49)"/><path class="af" d="M267.3,265.61a37.241,37.241,0,0,1-.75,11.85,23.269,23.269,0,0,1-2.06,5.64,10,10,0,0,1-1.81,2.45,3.68,3.68,0,0,1-2.74,1.14,3.7,3.7,0,0,0,2.38-1.48,11.289,11.289,0,0,0,1.47-2.46,29.888,29.888,0,0,0,1.78-5.52A91.133,91.133,0,0,0,267.3,265.61Z" transform="translate(-10.77 -36.49)"/><path class="af" d="M252.42,261.78a8.59,8.59,0,0,1-.89,4.83,11,11,0,0,1-3.22,3.84,13.22,13.22,0,0,1-9.39,2.53,18.2,18.2,0,0,0,8.79-3.33A11.63,11.63,0,0,0,252.42,261.78Z" transform="translate(-10.77 -36.49)"/><path class="e" d="M322.19,248l2.13,10.18s-.53,4.46-5.85,6.79c0,0-2.14.27-5.19.63-.2-2.85-.37-6.39-.42-10.32-.22-17.84,2.14-43.9,16.78-52l5.58,8.67C334,214.58,321.86,240.21,322.19,248Z" transform="translate(-10.77 -36.49)"/><path class="g" d="M236.41,127.57c-2.42,4.41-7.72,10.16-19.14,12.11l-7.7-5.71c5.93-1.46,16.24-5.37,20.85-15.47l4.51,7.18C235.47,126.35,236,127,236.41,127.57Z" transform="translate(-10.77 -36.49)"/><path class="ag" d="M185.44,116.16h0C185.23,116.2,185.22,116.19,185.44,116.16Z" transform="translate(-10.77 -36.49)"/><path class="g" d="M224.22,107.33c-1.94,5.92-7.57,15.49-23.85,18.14l-1.62-1.58-9.12-8.33c7.06-1.52,20.85-6.41,26.89-21.09l1.38,2,4.26,8C222.92,105.51,223.6,106.45,224.22,107.33Z" transform="translate(-10.77 -36.49)"/><ellipse class="ah" cx="16.52" cy="4.71" rx="16.52" ry="4.71" transform="translate(165.167 58.852) rotate(-36.26)"/><ellipse class="ah" cx="11.42" cy="3.26" rx="11.42" ry="3.26" transform="translate(171.458 58.523) rotate(-36.26)"/><ellipse class="ai" cx="2.06" cy="2.07" rx="2.06" ry="2.07" transform="translate(175.82 47.08)"/><ellipse class="ai" cx="3" cy="3.03" rx="3" ry="3.03" transform="translate(178.27 48.19)"/><path class="x" d="M246.9,161.06v2.15a10.38,10.38,0,0,1-2.09,6.26l-3.76,5-3.46,44.8s1.06,18.19-14.9,19c0,0-10.37.54-6.38-22.51l13.57-41.55-12-9.92s-2.51-9.92,3.91-15.28c0,0,7.15-2.41,9.34,1.34l-5,4.55a26.17,26.17,0,0,0-3.8,4.48l12.06,12.95Z" transform="translate(-10.77 -36.49)"/><path class="aj" d="M229.88,174.2s-14.11,10.62-6.66,16.89c0,0,13.4,7.24,16.86-4.1l-.36,12.94s-8.17,7.81-20.7-.58a5.23,5.23,0,0,1-2.31-4.6l.79-16a5.32,5.32,0,0,1,2.36-4.16l5.84-3.86Z" transform="translate(-10.77 -36.49)"/><path class="ak" d="M292,72s13.48,19.84,38.31,24.3,7.85,71.7,7.85,71.7" transform="translate(-10.77 -36.49)"/><path class="ak" d="M292,72s13.48,19.84,38.31,24.3,39.2,27.61,39.2,27.61" transform="translate(-10.77 -36.49)"/><ellipse class="t" cx="2.01" cy="2.02" rx="2.01" ry="2.02" transform="translate(262.97 89.86)"/><ellipse class="t" cx="2.01" cy="2.02" rx="2.01" ry="2.02" transform="translate(278.22 90.56)"/><path class="u" d="M284.3,124.16l-2.3,5.08a1.54,1.54,0,0,0,.46,1.62l1.6.69" transform="translate(-10.77 -36.49)"/><path class="u" d="M278.57,136.16a4.22,4.22,0,0,0,3.67,4.16c3.89.92,5.5-3.7,5.5-3.7" transform="translate(-10.77 -36.49)"/><ellipse class="v" cx="1.37" cy="1.38" rx="1.37" ry="1.38" transform="translate(264.22 81.26)"/><ellipse class="v" cx="1.37" cy="1.38" rx="1.37" ry="1.38" transform="translate(278.79 81.26)"/><path class="e" d="M295.74,149.28s3.59,1.49,9.33.17a31.9,31.9,0,0,0,10.22-4.53s-.19,11.6-.19,13.91S295.74,149.28,295.74,149.28Z" transform="translate(-10.77 -36.49)"/><ellipse class="al" cx="31.44" cy="35.96" rx="31.44" ry="35.96" transform="matrix(0.941, -0.338, 0.338, 0.941, 747.047, 67.79)"/><line class="am" x1="37.66" y2="39.71" transform="translate(899.35 115.71)"/><path class="al" d="M912.47,214.47l6.37-7.86a61.083,61.083,0,0,1,9.58-4.78,10.69,10.69,0,0,0,7.14-10.42,6.831,6.831,0,0,0-.51-2.38s4.94-2.28.52-6.42c0,0,5.85-10.13-4.83-10.13l-7.39,7.24s-3,.52-3-1.34c0,0,4.78-3.63,3.75-4.25s-11.56-3-12.86,1.66l-.41,6.82-1,13.66-9,10.54Z" transform="translate(-10.77 -36.49)"/><path class="g" d="M900.88,180.87l7.19-7.03-13.02-11.76-6.08,7.89Z"/><path class="ab" d="M917.19,215.92c-16.23,25.4-39.09,44.65-45.94,50.14-1.3,1-2,1.57-2,1.57l-.1,53.37c.06.93.08,1.89.08,2.87,0,10.79-2.7,24.4-5.56,35.68H787.81c-9.57-43.7-3.2-58-3.2-58a25.081,25.081,0,0,0,2.47-6.85,24.531,24.531,0,0,0-.91-12.8,19.2,19.2,0,0,0-1.56-3.52c-5.29-6.35-9.94-14.67-13.76-22.81h0a228.355,228.355,0,0,1-11.31-29.71c-9.24-17.38,0-31,0-31l26-19.87,6.06-4.64L810,187.37l3.74-20.2a.16.16,0,0,0,0-.12l9.77,3.43,12.8,4.52c14.37,1.66,19.7,22.76,19.7,22.76,7.4,19,9.45,42.19,9.45,42.19l35.31-37.23,1.17.94.93.75L913.62,213l1.34,1.08Z" transform="translate(-10.77 -36.49)"/><path class="an" d="M804.25,74.21s18.78,27.31-29.87,42.2c0,0-4.93,43,15.39,41l1.49,6.9s-31.66-3.25-39-30.56c0,0-5.55-21.1,11.08-47.16C763.29,86.62,773.15,63,804.25,74.21Z" transform="translate(-10.77 -36.49)"/><path class="an" d="M800.46,75.4S802,96.64,826,113.59c0,0,7.71,38.75-18.29,44.12l1,7.53s31.75-.91,34.49-6.7c0,0-10.95-13.51-7-44.68C836.31,113.86,843.78,68.12,800.46,75.4Z" transform="translate(-10.77 -36.49)"/><ellipse class="al" cx="7.55" cy="10.41" rx="7.55" ry="10.41" transform="translate(748.924 81.84) rotate(-20.38)"/><path class="al" d="M799.26,116.75H778.94l2.46,22.96,17.86,11.17,8.62-2.48Z"/><path class="g" d="M812.77,133.81l-9.75-3.26-3.76,20.33-18.49-17.07-6.06,4.64,46.72,71.58Z"/><path class="ao" d="M867.42,229.06l-92.71,6.62,4.23,59.57,91.76-9.1Z"/><path class="al" d="M819.89,305.68l7.39,10,9,1.59s13.7,4.7,8.16,9l-5.34.53-.24,7.36s-5.41,4.42-8.33,3.75c0,0-5.75.21-8-3.52,0,0-7.18,0-6.77-3.93v-7.95l-9.91-10.15Z" transform="translate(-10.77 -36.49)"/><path class="g" d="M809.53,270.02l5.13,6.61-12.73,8.07-3.86-8.27Z"/><path class="ab" d="M772.03,183.42l41.06,88.25-15.02,9.1-37.99-61.71Z"/><line class="ap" x1="16.34" y1="7.82" transform="translate(799.26 150.88)"/><path class="ap" d="M804.15,153.22l-4.55-2.34-6.7,15.44"/><path class="aq" d="M797.79,155.04l9.13,32.75,14.51,22.24-3.02-26.61-13.95-29.65-5.2-2.89Z"/><path class="aq" d="M805.85,269.46c-2.11-4-4.12-8.13-6.11-12.23s-3.91-8.22-5.87-12.33-3.81-8.28-5.66-12.44l-2.75-6.25c-.89-2.1-1.81-4.18-2.66-6.3,1.06,2,2.06,4.06,3.1,6.09l3,6.14c2,4.09,3.91,8.22,5.86,12.34s3.82,8.27,5.66,12.43S804.11,265.24,805.85,269.46Z" transform="translate(-10.77 -36.49)"/><path class="aq" d="M846.08,267.61c-.67-4.52-1.23-9-1.78-13.57s-1-9.06-1.51-13.6-.89-9.07-1.28-13.61L841,220c-.15-2.28-.33-4.55-.45-6.83.34,2.26.62,4.52.94,6.78l.84,6.79c.54,4.52,1,9.06,1.51,13.59s.89,9.08,1.28,13.62S845.82,263.05,846.08,267.61Z" transform="translate(-10.77 -36.49)"/><ellipse class="t" cx="2.41" cy="2.6" rx="2.41" ry="2.6" transform="translate(781.82 92.35)"/><ellipse class="t" cx="2.41" cy="2.6" rx="2.41" ry="2.6" transform="translate(800.18 93.26)"/><path class="ar" d="M802.43,126l2.76,6.53a2.09,2.09,0,0,1-.55,2.08l-1.93.89" transform="translate(-10.77 -36.49)"/><path class="ar" d="M798.4,141.46a5.31,5.31,0,0,0,4.41,5.35c4.69,1.19,6.62-4.75,6.62-4.75" transform="translate(-10.77 -36.49)"/><ellipse class="as" cx="1.65" cy="1.78" rx="1.65" ry="1.78" transform="translate(780.63 82.18)"/><ellipse class="as" cx="1.65" cy="1.78" rx="1.65" ry="1.78" transform="translate(800.86 81.28)"/><path class="e" d="M793.05,158.41a57.309,57.309,0,0,0,10.37.41c5.88-.41,7.8-2.33,7.8-2.33-.54-2,2.25,8.15,2.57,10.56C814.05,169,793.05,158.41,793.05,158.41Z" transform="translate(-10.77 -36.49)"/><path class="aq" d="M551,361.05H509.6l-10.28-44.89-3.51,44.89H444.6c-.27-23.45,1.09-58.2,10-79.53h3.32l82.95-.4Z" transform="translate(-10.77 -36.49)"/><path class="at" d="M553.63,212.07l19.47-32.56L593.45,218s16.21,15.37-5.29,42.8l-45.82,32.62-1.45-26.09,29.86-29.63S557.75,219,553.63,212.07Z" transform="translate(-10.77 -36.49)"/><path class="au" d="M540.88,255.18l-1.12,4.33s7.89,85,18.75,101.54H449l8.88-79.21.09-.34c.61-2.31,4-16.08,3.38-29a47.315,47.315,0,0,0-1-8.11,2.462,2.462,0,0,0-.07-.29,30.5,30.5,0,0,0-1.46-4.63l-12.39-33.34-9.71,9.71S434,226,427.31,227c0,0,5.46-34.47-9.11-58.26l.26-.59c1.67-3.73,11.54-23.93,31.79-31l2.11-.55,13.24-3.46,4.14-1.08s20.33,15.77,46.55,1.69a53.661,53.661,0,0,1,8.49,1.22,61,61,0,0,1,9.88,3h.08a44.061,44.061,0,0,1,16.51,11.26l36.91,46.61L562.42,229.4l-12.26-10-9.28,35.8Z" transform="translate(-10.77 -36.49)"/><path class="av" d="M558.6,361.05H447.22c2-12.86,11.17-73.83,7.88-79.53,0,0,6.13-16.24,6.22-29.06a25.651,25.651,0,0,0-1-8.11l-.09-.27h0c.56-.75,16-22.27-7.85-107.47l13.24-3.46s7.47,48.36,37.58,47.39c0,0,29.55,4.79,26.87-20.07L524.78,135l9.88,3h.08c.43.88,20.85,43.33,18,60.95l-11.83,56.2h0C540.94,256.26,545.53,333.66,558.6,361.05Z" transform="translate(-10.77 -36.49)"/><ellipse class="at" cx="6.02" cy="10.51" rx="6.02" ry="10.51" transform="translate(506.1 42.59)"/><path class="aw" d="M468.67,60.05s-14.9-8.14-1.91-19.55l21.61-4s15.9.61,9.35,17c0,0,24.35,4.42,23.06,27.8,0,0,7.77,18.21-1,31.69l-.73,10s4.86,7.28,8.62,5.34c0,0-3.4,19.43-31.32,18.7,0,0-26.95-2.19-31.44-18.21,0,0-7.35-14.81-5.62-19.67l-.82-33.75S459.06,65,468.67,60.05Z" transform="translate(-10.77 -36.49)"/><ellipse class="at" cx="6.02" cy="10.51" rx="6.02" ry="10.51" transform="translate(439.401 46.681) rotate(-6.03)"/><path class="at" d="M473.8,104.86l-3.34-3.18a5.38,5.38,0,0,1-1.68-3.47c-.25-2.72-.19-8.27,1.82-18.67,1-5.18,5.76-11.16,10.67-13.11,17.12-6.82,33.39-.67,35,15.35,0,0,6.15,12,0,21.6,0,0-9.71-5.34-19.67-1.45a20.59,20.59,0,0,0-22.8,2.93Z" transform="translate(-10.77 -36.49)"/><path class="at" d="M427.31,227s-10.57,15.55-24,9.07c0,0-10.52-7.12-10.68-22.66,0,0,.48-45.32,2.42-60.05,0,0-5-4.37-7-8.74,0,0-6.47-13.76-5.5-16.67,0,0-1.3-6.15,2.1-8.42l14.73-7.61s9.88-1.78,9.39,13c0,0,5.18-7.44,8.42-7.77,0,0,3.56.16-.33,7.77,0,0-4.69,13.11-3.07,16.84,0,0,.16,20.23,4.37,26.06C421.65,172.5,435,204.79,427.31,227Z" transform="translate(-10.77 -36.49)"/><path class="ax" d="M405.56,169.67l-7.22-19.59L385.5,118.2a12.73,12.73,0,0,0-5.82-6.38l-12.95,1.42s-14.41-11.86-8.91-21.5c0,0,50.11-19.35,70.94-20.49,0,0,7.08,2.59,6.11,15.22l-30.11,15.22s2.06,65.39,4.35,67C409.11,168.7,408,171.77,405.56,169.67Z" transform="translate(-10.77 -36.49)"/><path class="at" d="M383.19,124.21a8.55,8.55,0,0,1,4.24-7.86c4.56-2.64,11.65-6.22,14.75-5,0,0,4.53-.64,4.69,4.7,0,0,2.91,7.8,1.78,13.85,0,0,2.59,11-4.53,14.94,0,0-4.86,4.07-10.36,3.74,0,0-6.68-3.84-9-14a63.319,63.319,0,0,1-1.57-10.37Z" transform="translate(-10.77 -36.49)"/><path class="ay" d="M407.68,167.89s.29.66.77,1.87c3.15,8,14.72,40.12,8.22,66.3h0a45.42,45.42,0,0,1-10,19.55c-26.23,29.46-45.65,69.76-39,81.74,0,0,0,10.52,24.11,15.87,0,0,9.82.92,15.54,7.82" transform="translate(-10.77 -36.49)"/><ellipse class="az" cx="2.91" cy="5.5" rx="2.91" ry="5.5" transform="translate(414.557 37.754) rotate(-15.91)"/><ellipse class="at" cx="10.04" cy="5.09" rx="10.04" ry="5.09" transform="translate(475.8 69.54)"/><path class="ba" d="M489.57,108.36a7.57,7.57,0,0,0,2.5,6.79c1.82.95,7.19,1,8.92-.35,2.29-1.55,1.66-3.64,3.28-6.16C499.6,109.36,494.2,108.68,489.57,108.36Z" transform="translate(-10.77 -36.49)"/><g class="bb"><path class="bc" d="M506.33,117.28a4.47,4.47,0,0,0-2.63-3.67,14.341,14.341,0,0,0-5.09-1.27,10.64,10.64,0,0,0-3.38.09,5.39,5.39,0,0,0-3.1,1.91,4.12,4.12,0,0,0-.68,1.94,5.74,5.74,0,0,0,4,6.22,11.74,11.74,0,0,0,9.51-1.7" transform="translate(-10.77 -36.49)"/></g><path class="bd" d="M558.81,222.6c1.72-2.56,3.52-5,5.33-7.52s3.68-4.92,5.55-7.36,3.78-4.84,5.73-7.21l2.93-3.56c1-1.16,2-2.34,3-3.49-.85,1.29-1.75,2.53-2.63,3.79L576,201c-1.81,2.48-3.68,4.92-5.55,7.36s-3.78,4.84-5.73,7.21S560.85,220.3,558.81,222.6Z" transform="translate(-10.77 -36.49)"/><path class="bd" d="M436.13,212.86c-1-2.92-1.83-5.87-2.68-8.82s-1.64-5.92-2.42-8.89-1.52-6-2.2-8.94l-1-4.5c-.3-1.5-.64-3-.92-4.51.5,1.45.93,2.93,1.39,4.39l1.29,4.43c.86,2.94,1.64,5.91,2.42,8.88s1.52,5.95,2.2,8.95S435.56,209.84,436.13,212.86Z" transform="translate(-10.77 -36.49)"/><path class="bd" d="M446.18,205.66a76.463,76.463,0,0,1-1-9.17,74.64,74.64,0,0,1,0-9.22,74.9,74.9,0,0,1,1,9.17,76.667,76.667,0,0,1,0,9.22Z" transform="translate(-10.77 -36.49)"/><path class="bd" d="M468.67,142.47a64.105,64.105,0,0,0,6.55,4.35,63.5,63.5,0,0,0,6.95,3.6,46.841,46.841,0,0,0,15,4.06,29.86,29.86,0,0,0,21.73-6.58,42.7,42.7,0,0,0,5.66-5.43,33.47,33.47,0,0,1-11.94,10.21,26.51,26.51,0,0,1-7.57,2.44,31.76,31.76,0,0,1-8,.35,45.5,45.5,0,0,1-15.21-4.35,58.391,58.391,0,0,1-13.17-8.65Z" transform="translate(-10.77 -36.49)"/><path d="M474.53,254.15c2.48.38,5,.75,7.46,1s5,.63,7.49.87c5,.49,10,.93,15,1a123.371,123.371,0,0,0,15-.27,33.422,33.422,0,0,0,3.73-.38,35.731,35.731,0,0,0,3.71-.57c1.22-.25,2.48-.4,3.68-.74l3.64-1a56.46,56.46,0,0,1-14.69,3.46c-1.26.13-2.51.26-3.77.35l-3.78.15c-1.27.08-2.53,0-3.79.05s-2.52,0-3.78-.06c-5-.18-10.07-.61-15.06-1.27a149.157,149.157,0,0,1-14.84-2.59Z" transform="translate(-10.77 -36.49)"/><path d="M500.26,261.12h4.73c1.57,0,3.15,0,4.73-.05,3.14-.07,6.29-.14,9.42-.35s6.27-.45,9.37-.89c.79-.08,1.56-.23,2.33-.36s1.55-.25,2.31-.45,1.54-.3,2.3-.51,1.51-.44,2.28-.65a39.867,39.867,0,0,1-9.09,2.73,75,75,0,0,1-9.44,1.12c-3.16.19-6.33.24-9.49.13A93.218,93.218,0,0,1,500.26,261.12Z" transform="translate(-10.77 -36.49)"/><path d="M455.1,359.05a13.191,13.191,0,0,1,3.84.52,13.051,13.051,0,0,1,3.56,1.48,13.219,13.219,0,0,1-3.83-.52,13.359,13.359,0,0,1-3.57-1.48Z" transform="translate(-10.77 -36.49)"/><path d="M548.34,355.25a16.939,16.939,0,0,1-4.32,3.64,17.9,17.9,0,0,1-5.23,2.16c1.54-1.13,3.14-2.05,4.71-3S546.65,356.12,548.34,355.25Z" transform="translate(-10.77 -36.49)"/><ellipse class="t" cx="2.82" cy="2.84" rx="2.82" ry="2.84" transform="translate(493.95 57.33)"/><ellipse class="t" cx="2.82" cy="2.84" rx="2.82" ry="2.84" transform="translate(471.44 57.27)"/><path class="u" d="M495.51,88.62l3.22,7.15a2.15,2.15,0,0,1-.64,2.27l-2.26,1" transform="translate(-10.77 -36.49)"/><ellipse class="v" cx="1.93" cy="1.95" rx="1.93" ry="1.95" transform="translate(492.93 44.16)"/><ellipse class="v" cx="1.93" cy="1.95" rx="1.93" ry="1.95" transform="translate(472.42 44.16)"/><path class="be" d="M133.63,359.54,129,332.2l-.56-3.31-5.82,30.65H75.87l7.6-71.41c.55-7.46,1.63-12,2.79-14.76,2.09-4.95,4.43-4.14,4.43-4.14H96.1l63.79-.05h3.94q.78,1.08,1.53,2.31c.37.61.74,1.25,1.09,1.91,4.54,8.43,7.92,20.93,10.42,34.34.56,3,1.07,6,1.55,9.07,2.41,15.48,3.78,31.25,4.55,42.73Z" transform="translate(-10.77 -36.49)"/><path class="bf" d="M118.18,260.69V295.7l-.56-3.31-5.82,30.65h-6.45l5.18-28.31Z"/><path class="bf" d="M178.42,316.81c2.41,15.48,3.78,31.25,4.55,42.73h-4.54c-.19-10.27-2-22.88-4.56-35.61-.46-2.37-1-4.75-1.47-7.12-.65-3.05-1.34-6.09-2-9.07-1-4.05-1.92-8-2.89-11.79-2.1-8.18-4.16-15.59-5.86-21.46-.56-1.95-1.09-3.73-1.56-5.31h3.78q.78,1.08,1.53,2.31c.37.61.74,1.25,1.09,1.91,4.54,8.43,7.92,20.93,10.42,34.34C177.43,310.73,177.94,313.76,178.42,316.81Z" transform="translate(-10.77 -36.49)"/><path class="bg" d="M111.46,113.29h26s-.38,18.5,4.54,22.84a31.1,31.1,0,0,0,12,4.33l2,22.84-22.25,16.54-17.52-6.7-11.82-7.87L101,154.63,98,144v-4.33s7.88-1.18,9.85-1.58C107.92,138.09,117.24,114.69,111.46,113.29Z" transform="translate(-10.77 -36.49)"/><rect class="bh" width="47.72" height="9.08" transform="translate(159.29 271.24)"/><ellipse class="bh" cx="9.31" cy="16.92" rx="9.31" ry="16.92" transform="translate(146.77 259.41)"/><ellipse class="bh" cx="9.15" cy="16.64" rx="9.15" ry="16.64" transform="translate(202.89 259.69)"/><ellipse class="bi" cx="5.03" cy="10.89" rx="5.03" ry="10.89" transform="translate(146.77 264.89)"/><ellipse class="bi" cx="4.95" cy="10.71" rx="4.95" ry="10.71" transform="translate(210.33 265.08)"/><path class="bg" d="M162.26,141a22.78,22.78,0,0,1,16.93,3s13.39,2.55,13.78,29.73c0,0,10.64,24,11,50v10.43s3.11,8.38-.05,36.14l.15,33.52s5.31,10.19,2.07,14.62c0,0-23.11,10.05-19.64-2.08.59-2.07-1.19-6.93,3.24-11.65l-3.39-57-.89-13.88s-11.47-14-14.57-44.9l-5.81-10Z" transform="translate(-10.77 -36.49)"/><path class="bj" d="M193.92,226.16a39,39,0,0,1-8.37,9.15,33.269,33.269,0,0,1,3.82-4.91,35.2,35.2,0,0,1,4.55-4.24Z" transform="translate(-10.77 -36.49)"/><ellipse class="bg" cx="4.18" cy="6.72" rx="4.18" ry="6.72" transform="translate(84.775 52.106) rotate(-15.65)"/><ellipse class="bg" cx="6.72" cy="4.29" rx="6.72" ry="4.29" transform="translate(130.469 63.235) rotate(-80.25)"/><ellipse class="bg" cx="21.41" cy="31.38" rx="21.41" ry="31.38" transform="translate(92.03 24.51)"/><path class="bk" d="M105.09,90.47l1.13-15.1S119,77.85,134.4,69c0,0,9.3,8.86,7.38,21.92l3.32.37s11.52-25.21-4.61-39.83c0,0-17.76-10-32.38,3.36,0,0-12,5.83-7.44,33Z" transform="translate(-10.77 -36.49)"/><path class="e" d="M115.53,122.48s3.92,1.63,10.21.18A35.08,35.08,0,0,0,137.49,117s0,11.64,2,14.81C140.91,133.94,115.53,122.48,115.53,122.48Z" transform="translate(-10.77 -36.49)"/><ellipse class="t" cx="1.9" cy="2.04" rx="1.9" ry="2.04" transform="translate(118.01 59.4)"/><ellipse class="t" cx="1.9" cy="2.04" rx="1.9" ry="2.04" transform="translate(103.59 60.11)"/><path class="ar" d="M124.84,93.68l-2.16,5.13a1.62,1.62,0,0,0,.43,1.63l1.52.7" transform="translate(-10.77 -36.49)"/><path class="ar" d="M128,105.8a4.18,4.18,0,0,1-3.47,4.2c-3.68.93-5.19-3.73-5.19-3.73" transform="translate(-10.77 -36.49)"/><ellipse class="as" cx="1.3" cy="1.4" rx="1.3" ry="1.4" transform="translate(120.14 51.41)"/><ellipse class="as" cx="1.3" cy="1.4" rx="1.3" ry="1.4" transform="translate(104.26 50.7)"/><rect class="bh" width="42.34" height="8.06" transform="translate(14.26 101.01)"/><ellipse class="bh" cx="9.07" cy="16.49" rx="9.07" ry="16.49" transform="translate(0 89.04)"/><ellipse class="bi" cx="4.9" cy="10.61" rx="4.9" ry="10.61" transform="translate(0 94.38)"/><path class="bg" d="M87.16,142S68,140.58,61.47,154.17c0,0-8,20-6.11,24.61l-1.72-24.61s6.94-10.73,5.47-16.59c0,0-5.62-11.47-12.7-10.58,0,0-10.34,4.72-6.8,13.58,0,0,2.26,9.2,1,17.72-.3,2.07-5,45.71-1.18,51.83,0,0,4,27.91,15.8,27.91,0,0,11.48,2.65,18.16-19l2.95-27.17s1.63-6.35,7.24-5.46Z" transform="translate(-10.77 -36.49)"/><path class="bj" d="M55.36,178.78c1,4,1.73,8.1,2.37,12.18s1.14,8.19,1.38,12.34c-1-4-1.73-8.1-2.37-12.19S55.6,182.92,55.36,178.78Z" transform="translate(-10.77 -36.49)"/><ellipse class="bh" cx="8.92" cy="16.22" rx="8.92" ry="16.22" transform="translate(55.12 89.59)"/><ellipse class="bi" cx="4.82" cy="10.43" rx="4.82" ry="10.43" transform="translate(62.39 94.57)"/><path class="bl" d="M161.86,242.05l5.52,31.11-.2.06c-3.56.89-55.83,13.62-81.32-.06,0,0,6.7-34.26,4.34-40.55,0,0-3.94-40.18-8.67-42.93l4.73-48.43,14.77-2s1,21.31,26,22.5c0,0,24.74,1.16,20.09-23.1,0,0,18.31.25,18.71,1.43.24.76,2.27,23.42,3.7,39.56.8,9,1.41,16,1.41,16S161.08,231.82,161.86,242.05Z" transform="translate(-10.77 -36.49)"/><path class="bm" d="M96.1,269.22q3.9,1.17,7.86,2c1.32.29,2.65.52,4,.79l4,.64a114.267,114.267,0,0,0,16.1,1.24c2.7.09,5.39-.07,8.08-.17,1.34-.1,2.68-.26,4-.38l2-.2,2-.31c1.33-.21,2.66-.39,4-.62l4-.89c.65-.15,1.32-.27,2-.44l1.95-.57,3.9-1.13a77.7,77.7,0,0,1-15.64,4.41l-2,.38-2,.23c-1.35.14-2.7.31-4.06.42-2.71.14-5.43.34-8.15.27a103.61,103.61,0,0,1-16.21-1.48,86.642,86.642,0,0,1-15.83-4.19Z" transform="translate(-10.77 -36.49)"/><path class="bm" d="M98.07,147.94a58.311,58.311,0,0,0,5.79,6.66,49,49,0,0,0,6.69,5.69,35.559,35.559,0,0,0,7.65,4.18,23.46,23.46,0,0,0,8.47,1.61,20.76,20.76,0,0,0,8.42-1.74,29.72,29.72,0,0,0,7.39-4.56A60.461,60.461,0,0,0,154,146.56l-2.35,3.76c-.84,1.21-1.73,2.39-2.59,3.6a35.767,35.767,0,0,1-2.9,3.37l-1.58,1.58c-.26.26-.52.53-.79.78l-.86.72c-.57.48-1.13,1-1.71,1.44l-1.86,1.26a16.931,16.931,0,0,1-1.94,1.13,15.049,15.049,0,0,1-2,1,21.68,21.68,0,0,1-8.77,1.9c-6.09,0-11.84-2.62-16.57-6.17a51.17,51.17,0,0,1-12.01-12.99Z" transform="translate(-10.77 -36.49)"/><path class="bn" d="M161.86,242.05l5.52,31.11-.2.06-5-4.78a27.81,27.81,0,0,1-8.25-15.18c-6.1-33.93,6-50.59,6-50.59l9.62-23c.8,9,1.41,16,1.41,16S161.08,231.82,161.86,242.05Z" transform="translate(-10.77 -36.49)"/><g class="bo"><path d="M90.69,284a74.865,74.865,0,0,0,8.69,3.1c1.48.43,3,.84,4.45,1.21s3,.71,4.51,1,3,.55,4.54.78l4.56.59L122,291a22.172,22.172,0,0,0,2.3.07h4.6l2.3-.12c1.53-.1,3.07-.11,4.59-.29l4.57-.59,1.14-.14c.38-.06.75-.16,1.13-.23l2.25-.44A101.82,101.82,0,0,0,162.57,284l-4.25,1.83a39.846,39.846,0,0,1-4.32,1.69l-4.42,1.4c-.37.11-.74.24-1.11.34l-1.13.26-2.27.52a76.478,76.478,0,0,1-9.16,1.55c-1.53.2-3.09.22-4.63.34l-2.32.15h-2.33a86.064,86.064,0,0,1-18.455-2A74.231,74.231,0,0,1,90.69,284Z" transform="translate(-10.77 -36.49)"/></g><path class="g" d="M85.42,565c-.1.2-.24.46-.42.77Z" transform="translate(-10.77 -36.49)"/><path class="g" d="M170.13,543v.79a3.751,3.751,0,0,0-.14-.79Z" transform="translate(-10.77 -36.49)"/><path class="g" d="M170.13,543.79c.05.24.08.46.11.69h-.11Z" transform="translate(-10.77 -36.49)"/><path class="g" d="M175.6,480.81v.48l-.03-.47Z"/><path class="g" d="M170.13,543v.79a3.751,3.751,0,0,0-.14-.79Z" transform="translate(-10.77 -36.49)"/><path class="g" d="M175.6,480.81v.48l-.03-.47Z"/></g><rect class="ad" width="884.41" height="5.33" transform="translate(28.21 317.72)"/></g></g></svg>