<svg xmlns="http://www.w3.org/2000/svg" viewBox="0 0 939.01 550.45"><defs><clipPath id="clip-path" transform="translate(-10.77 -36.49)"><path class="cls-1" d="M0 0h967.18v355.24H0z"/></clipPath><clipPath id="clip-path-2" transform="translate(-10.77 -36.49)"><path class="cls-1" d="M490.6 109.06a7.46 7.46 0 003.09 6.19 5.43 5.43 0 005.63-.53c2.07-1.38 3.5-3.76 4.82-6a65.15 65.15 0 01-13.54.34z"/></clipPath><style>.cls-1,.cls-15,.cls-18,.cls-22,.cls-24,.cls-39,.cls-46,.cls-48,.cls-73{fill:none}.cls-3{fill:#eaaa7e}.cls-4{fill:#5f96cf}.cls-5{fill:#95b8d1}.cls-6{opacity:.1}.cls-27,.cls-33,.cls-6,.cls-66{isolation:isolate}.cls-7{fill:#c8e5f7}.cls-37,.cls-8{fill:#fff}.cls-9{fill:#97b7d2}.cls-12{fill:#e2a372}.cls-15{stroke:#808184}.cls-15,.cls-18,.cls-22,.cls-24,.cls-46,.cls-48,.cls-73{stroke-miterlimit:10}.cls-16{fill:#2d4856}.cls-18{stroke:#2d4856;stroke-width:3px}.cls-19{fill:#40739e}.cls-20{fill:#0b0b0b}.cls-21{fill:#f0846c}.cls-22,.cls-24{stroke:#b97343}.cls-22,.cls-48{stroke-width:.75px}.cls-23{fill:#b97343}.cls-24,.cls-73{stroke-linecap:round}.cls-25{fill:#f1a06c}.cls-27{fill:#ffba08}.cls-28{fill:#293171}.cls-33{fill:#d5c4e3;opacity:1}.cls-34{fill:#5a3c80}.cls-36{opacity:.31;fill:#0086be}.cls-37{opacity:.51}.cls-39{stroke:#f6b54c;stroke-linecap:square;stroke-linejoin:round;opacity:.97;stroke-width:4px}.cls-40{fill:#c57d56}.cls-42{fill:#466eb5}.cls-43{fill:#431613}.cls-45{fill:#080707}.cls-46{stroke:#d0d2d3}.cls-47{fill:#234f8c}.cls-48{stroke:#683d1e}.cls-49{fill:#683f24}.cls-50{fill:#f39f72}.cls-57{fill:#8a6362;opacity:.42}.cls-58{fill:#e2e2e2}.cls-62{fill:#d24052}.cls-63{fill:#132e4c}.cls-64{fill:#f3a785}.cls-66{opacity:.21}.cls-67{fill:#343435}.cls-68{fill:#696a71}.cls-69{fill:#e18f70}.cls-71{fill:#ef515d}.cls-72{fill:#dddddc}.cls-73{stroke:#f1f1f2}.cls-74{fill:#bf6e29}</style></defs><g id="Layer_2" data-name="Layer 2"><g id="Layer_1-2" data-name="Layer 1"><g clip-path="url(#clip-path)"><path class="cls-3" d="M723.82 549.31h18.69l6.5 13.91s-26.82 6.55-25.19 2.46 0-16.37 0-16.37zM642.54 548.34h-18.68l-6.5 13.92s26.81 6.55 25.18 2.45 0-16.37 0-16.37z" transform="translate(-10.77 -36.49)"/><path class="cls-4" d="M616.37 266.88l102.77 2.3 18.74 244.79-37.8 6.74-27.34-179.43-36.54 177.99-38.1-.85 18.27-251.54z"/><path class="cls-5" d="M611.44 235.21l110.58 1.42 4.99 79.36-120.42 1.67 4.85-82.45z"/><path class="cls-3" d="M667.29 121.58l23.63 1.51s-.42 10.42 1.27 11.27l4 8.07v18.71l-19.84 9-14.77-4.72-2.53-13 1.48-10.21 1.05-4.89 5.28-4.68a82 82 0 01.43-11.06z" transform="translate(-10.77 -36.49)"/><path class="cls-6" d="M671.57 131a59.64 59.64 0 0010.73.38c6.07-.46 8.05-2.45 8.05-2.45-.58-2.07 2.36 8.41 2.7 10.9.28 1.99-21.48-8.83-21.48-8.83z" transform="translate(-10.77 -36.49)"/><path class="cls-5" d="M667.29 161.28s10.13 11.15 20.68 2.43v15.85l-13.51 3.83-4.46-6.17-2.74-9.78z" transform="translate(-10.77 -36.49)"/><path class="cls-7" d="M691.8 132.65l39.7 9.53c6.19 2.06 8.73 10.72 9.62 17.36 1 7.53 2.6 11.27 4.12 21.86 0 0 6 48.84 4.53 56.28 0 0 .64 11.26-7.59 11.48l-10.34 1.91L749 345.85h-63l-8.24-87.55-3.24 87.55h-65.65l13.25-87.34s-8.44.21-10.13-10c0 0-5.28-22.32-2.11-41.88 0 0 .63-36.57 3.37-47.84 0 0-1.47-12.1 12.66-13.89l38.52-10.67 7.27 43.34 13.21.1z" transform="translate(-10.77 -36.49)"/><path class="cls-8" d="M630.74 104.09l22.07-6.23 13.61 67.6-24.89-27.03 6.13-4.65H640l-9.26-29.69z"/><path class="cls-9" d="M632.42 103.62l21.24-6.34 13.12 67.51-24-27 5.91-4.64h-7.38l-8.89-29.53z"/><path class="cls-9" d="M635.41 267.58h22.79s7.59 26.65-11.4 27.5c0 0-17.44 2.12-11.39-27.5zM696.88 267.58h22.79s7.6 26.65-11.39 27.5c0 0-17.45 2.12-11.4-27.5z" transform="translate(-10.77 -36.49)"/><path class="cls-8" d="M705.76 102.09l-23.21-5.71-12.24 69.02 25.04-27.75-6.04-4.47 7.38-.22 9.07-30.87z"/><path class="cls-9" d="M703.6 101.56l-22.9-5.59-10.85 69.44 23.65-28.17-6.04-4.47 7.38-.22 8.76-30.99z"/><path fill="#f8e6db" d="M642.64 216.63l52.19 12.62 18.15-76.26-51.91-10.34-18.43 73.98z"/><path fill="#fcfdff" d="M648.26 213.15l42.84 10.87 16.88-68.74-42.77-10.38-16.95 68.25z"/><path class="cls-12" d="M699.12 154.25l-26.3-6.77.49-1.95 26.3 6.78-.49 1.94z"/><path class="cls-12" d="M693.22 185l1-5.48a3.91 3.91 0 011.74-2.6c1.8-1.13 4.87-2.12 6.76 2.33a3.84 3.84 0 01.15 2.39l-1.35 5.29z" transform="translate(-10.77 -36.49)"/><ellipse cx="687.77" cy="143.75" rx="1.8" ry="1.81" fill="#f9f0d9"/><g opacity=".4"><path class="cls-15" d="M666.86 153.99l34.16 8.5M665.61 157.96l34.16 8.5M664.81 161.93l34.16 8.5M663.56 165.9l34.16 8.5M663.23 169.87l34.16 8.51M661.51 173.84l34.16 8.51M660.26 177.81l34.16 8.51M659.46 181.79l34.17 8.5M658.21 185.76l34.16 8.5M657.42 189.73l34.16 8.5"/></g><path class="cls-3" d="M643.4 213.87s-11.65-6.1-19.39-5.67c0 0-11.25-1.68-4.5 2.42l16 6.22s-12.52-1.42-13.22-1.13-7 .32-3.38 2.85l12.8 2.4h-9.28s-5.77 2.4 0 3.82l12.38 1.13-8.58 1.85s-5.07 1.61.56 2.72.7 0 .7 0l21-2.87s1.44-10.85-5.09-13.74z" transform="translate(-10.77 -36.49)"/><path class="cls-7" d="M656.42 248.47l80.14 1.73s13.44.38 13.14-10.2l-3.7-31.33-27.88 7.33z" transform="translate(-10.77 -36.49)"/><ellipse class="cls-16" cx="688.39" cy="127.28" rx="6.61" ry="6.66"/><ellipse cx="688.39" cy="127.28" rx="4.2" ry="4.23" fill="#668791"/><path class="cls-18" d="M653.42 201.19s-5.12.64-4.91-5.1v-22a9.44 9.44 0 013.64-7.48c3.81-2.67 10-4.65 15.19 1.8a9.9 9.9 0 012.14 6.22v20.86s1 7.06-6.15 5.76" transform="translate(-10.77 -36.49)"/><ellipse class="cls-16" cx="643.98" cy="164.88" rx="1.88" ry="1.89"/><ellipse class="cls-16" cx="651.93" cy="164.94" rx="1.88" ry="1.89"/><path class="cls-18" d="M659 165s1.63-34.73 5.61-37.14c0 0 12.47-19.31 28.67-2.89a11.26 11.26 0 013.12 6.26c1.16 7.58 4.49 26.1 3.1 27.32" transform="translate(-10.77 -36.49)"/><path class="cls-9" d="M637.82 172.33c.2 3.22.3 6.43.38 9.65s.1 6.42.12 9.64 0 6.43-.12 9.64l-.14 4.82c-.08 1.61-.13 3.22-.24 4.82-.12-1.6-.16-3.21-.25-4.82l-.14-4.82c-.09-3.21-.1-6.43-.11-9.64s0-6.43.11-9.64.18-6.43.39-9.65z" transform="translate(-10.77 -36.49)"/><path class="cls-19" d="M683.6 315.59c.21 3.21.31 6.42.39 9.64s.1 6.43.11 9.64 0 6.43-.11 9.64l-.14 4.82c-.09 1.61-.13 3.22-.25 4.83-.11-1.61-.16-3.22-.24-4.83l-.14-4.82c-.09-3.21-.11-6.43-.12-9.64s0-6.43.12-9.64.18-6.43.38-9.64z" transform="translate(-10.77 -36.49)"/><path class="cls-9" d="M728 224.78a88.65 88.65 0 01-9.45 3.14 86.49 86.49 0 01-9.72 2.19 86.51 86.51 0 019.45-3.15 88.71 88.71 0 019.72-2.18zM663.52 210.62a90.52 90.52 0 01-18.51 4 77.3 77.3 0 019.15-2.47 79.31 79.31 0 019.36-1.53z" transform="translate(-10.77 -36.49)"/><path class="cls-9" d="M654.54 227.23a53.61 53.61 0 01-4-14 45.32 45.32 0 012.5 6.88 46.78 46.78 0 011.5 7.12zM736 228.83a84.3 84.3 0 01-15.88-9.23 74.18 74.18 0 018.19 4.18 76 76 0 017.69 5.05z" transform="translate(-10.77 -36.49)"/><path class="cls-3" d="M704.62 217.41l3.77 13.07 12.78-6a13.38 13.38 0 009.73-12.43l12.13.63a2.81 2.81 0 00.65 0c.81-.16 2.83-1.17-.38-2.5l-10.69-2.75s12.8 2 13.36 1.24 4.36-.33.85-3.73l-14.91-2.26h13.92s4.79-2.84 0-4.83l-14.58.3s-3-.16 1.78-2.14l11.68-1.28s5.06-1.7.14-3.4l-17.73.85-15 21.83z" transform="translate(-10.77 -36.49)"/><path class="cls-7" d="M627.53 230.48l77.09-13.07 3.77 13.07-79.73 27.61s-14.39 6-17.62-11.89l-1.41-8.54z" transform="translate(-10.77 -36.49)"/><path class="cls-9" d="M702.58 232.49a48.14 48.14 0 01-2.5-6.89 46.53 46.53 0 01-1.54-7.16 45.72 45.72 0 012.5 6.88 46.91 46.91 0 011.54 7.17z" transform="translate(-10.77 -36.49)"/><path class="cls-19" d="M679.81 378.59c.09-2.12.29-4.23.51-6.34s.49-4.21.77-6.31.62-4.19 1-6.27l.58-3.13c.23-1 .43-2.08.69-3.11 0 1.06-.14 2.12-.2 3.18l-.31 3.16c-.21 2.11-.49 4.21-.78 6.31s-.61 4.19-1 6.27-.76 4.17-1.26 6.24zM686.23 378.65c-.4-2.13-.7-4.28-1-6.43s-.5-4.29-.71-6.45-.38-4.3-.49-6.47l-.16-3.24c0-1.08-.07-2.17 0-3.25.21 1.06.36 2.14.54 3.21l.44 3.21c.29 2.15.5 4.3.71 6.45s.38 4.31.49 6.47.19 4.33.18 6.5z" transform="translate(-10.77 -36.49)"/><path class="cls-7" d="M785.07 586.67c-4.27.62-64 0-64 0V557.2c2.44 0 15.23 12.28 26.2 0 0 0 28 8.6 33.51 12.9a47.51 47.51 0 016.28 8.95c1.8 3.58 2.26 7-1.99 7.62z" transform="translate(-10.77 -36.49)"/><path class="cls-4" d="M785.07 586.67c-4.27.62-64 0-64 0v-7.62h66c1.79 3.58 2.25 7-2 7.62z" transform="translate(-10.77 -36.49)"/><path class="cls-7" d="M580.28 586.67c4.27.62 64 0 64 0V557.2c-2.44 0-15.23 12.28-26.2 0 0 0-28 8.6-33.51 12.9a47.51 47.51 0 00-6.28 8.95c-1.8 3.58-2.29 7 1.99 7.62z" transform="translate(-10.77 -36.49)"/><path class="cls-4" d="M580.28 586.67c4.27.62 64 0 64 0v-7.62h-66c-1.79 3.58-2.28 7 2 7.62z" transform="translate(-10.77 -36.49)"/><g id="doctor-head"><path class="cls-3" d="M704.86 89.63a4.83 4.83 0 00-3.14.35c-2.37-15.77-11.36-27.5-22.11-27.5s-19.91 11.94-22.18 27.91a5.15 5.15 0 00-3.91-.76c-3.37.79-5.19 5.27-4.06 10s4.73 7.91 8.09 7.17c2.45 15.59 11.39 27.2 22.06 27.2s19.57-11.51 22-27c3.11.11 6.24-2.93 7.27-7.27 1.17-4.83-.65-9.31-4.02-10.1z" transform="translate(-10.77 -36.49)"/><path class="cls-20" d="M656.62 94.62s3.29-2.13 1.25-6.26a8.21 8.21 0 004.31-6.65s9.53 2.05 18.6-6.4c0 0 3.63 9.6 16.34 0 0 0-.54 4.78 1.77 7.64 0 0 3 5.84 2.18 11.67 0 0 7.16-7.89 4.67-21.6 0 0 5.59-3.2.53-10.74 0 0-4.16-4.12-8.7 1.6 0 0-8.62-16.69-31.76-16 0 0-31.08 5.25-13.61 29.71 0 0 1.7 14.24 4.42 17.03z" transform="translate(-10.77 -36.49)"/><path class="cls-20" d="M685.55 49.1a10.07 10.07 0 015.63.94 12.31 12.31 0 014.54 3.69 12.47 12.47 0 012.2 11 25.07 25.07 0 00-1.28-5.27 18.26 18.26 0 00-2.5-4.52 16.35 16.35 0 00-3.73-3.55 18.44 18.44 0 00-4.86-2.29z" transform="translate(-10.77 -36.49)"/><path class="cls-20" d="M703.24 56.91a14.42 14.42 0 00-1.84 1.37 10.79 10.79 0 00-1.34 1.46 12.86 12.86 0 00-1.06 1.69c-.34.62-.62 1.3-1 2.11a4.54 4.54 0 01.47-5 4.79 4.79 0 012.17-1.6 3.54 3.54 0 012.6-.03z" transform="translate(-10.77 -36.49)"/><ellipse class="cls-21" cx="659.77" cy="68.78" rx="2.28" ry="2.29"/><ellipse class="cls-21" cx="679.8" cy="68.52" rx="2.54" ry="2.56"/><path class="cls-22" d="M682.08 98.78l-2.9 6.44a1.94 1.94 0 00.58 2l2 .88M674.82 114a5.34 5.34 0 004.65 5.26c4.93 1.17 7-4.68 7-4.68" transform="translate(-10.77 -36.49)"/><ellipse class="cls-23" cx="661.25" cy="55.92" rx="1.74" ry="1.75"/><ellipse class="cls-23" cx="679.71" cy="55.92" rx="1.74" ry="1.75"/><path class="cls-24" d="M653.88 96c-.74 1.88-.24 3.83 1.11 4.37M702.87 95.05a3.47 3.47 0 01.42 4.88" transform="translate(-10.77 -36.49)"/></g><path class="cls-25" d="M364.23 257.13l-31.39 34.21L314 278.2v16.62L330.75 305s6.61 3.75 9.8-2.68c0 0 43.37-34.73 43.37-40.55l-9.85-8zM269.69 92.35s-5.72 30.39 9.58 55.76c0 0 .71 1.78 10.29 2.14l-4.26 10.37s-20.57 11.43-2.84 17.51c0 0 14.9 8.58 27.32-10.37l5.32-8.93.36-26.29 8.86-17.31-37.24-25.74z" transform="translate(-10.77 -36.49)"/><path d="M271.05 100.41c7.58.84 30.63 4.61 32.7 19.82l6-3.93s10.29-4.65 7.8 8.58l-4.25 15.36s-1.3 8.22 4.7 2.86c0 0 20.19-26.44 12.38-46.82 0 0 26.61-17.51 3.55-38.95 0 0-28.38-20.38-41.86 14.65 0 0-23.06-5.72-35.83 15.37 0 0-15.84 25 14.31 37.82l-1.85-22.58a2.16 2.16 0 012.35-2.18z" transform="translate(-10.77 -36.49)" fill="#282a2a"/><path class="cls-27" d="M256.21 253.81l65.58 1.61s-5.45 44.5-1.46 49.32c0 0-41.15 32.44-75.47 1.34 0 0 10.82-32.16 11.35-52.27z" transform="translate(-10.77 -36.49)"/><path class="cls-25" d="M263.87 512.28l16.13 1.46-6.24 31.09s-18.59 10.37-26.39 5.36c0 0 12.06-9.65 11.7-16.08-.02 0 6.42-16.5 4.8-21.83zM333.19 516.6h13.48V538l3.55 9.29s-7.81 11.8-20.58 2.51c0 0 2.49-9.3 2.49-10.37s0-20.69 1.06-22.83z" transform="translate(-10.77 -36.49)"/><path class="cls-28" d="M245.22 547.24s13 8.22 28.52-3.58c0 0 7.66 12.87-1.56 13.23L230 559.75s-5.36-5.01 15.22-12.51zM329.64 549.84s12.95 7.14 20.58-2.51c0 0 8.69 11.62-2 13.59H327s-8-2.68 2.64-11.08z" transform="translate(-10.77 -36.49)"/><path d="M257.81 139.88v11.53l-23.41 20.91c-1.23 1.1-12.61-13.49-12.61-13.49l9.35-8.48L219 141l-1.7-1.28-7.7-5.71-1.77-1.32-7.43-7.18-1.62-1.58-9.12-8.33-.07-.06-16.38-17.37c5-26.16 30.33-22.62 30.33-22.62l13 18.92 1.38 2 4.26 8c.76 1 1.44 1.94 2.06 2.82 5 7.12 5.66 10.31 5.66 10.31l.54.86 4.51 7.18c.54.67 1 1.3 1.48 1.89 3.63 4.88 3.84 7.2 3.84 7.2l8.78-6.14z" transform="translate(-10.77 -36.49)" fill="#434343"/><path d="M351.5 493.41c-.38 9.19-1.19 18.08-2.71 25 0 0-8.77 5.9-17 0 0 0-3.19-53.88-13-75.32 0 0-16.75-27.34-21.54-51.46l-7.45-32.17s-1.09-6.13-2.39-7.51c-.87-.93-1.84.28-2.6 7 0 0-2.08 52 0 60.85 0 0 6.05 20.91 6.32 28.42 0 0 1.86 36.45-10.38 69.69a9.17 9.17 0 01-3.46 2.31c-2.8 1.12-7.31 1.6-13.56-1.78 0 0 2.12-56.83-.54-63.26 0 0-8.78-57.63-10.64-61.38 0 0-9.32-25.73-12.24-52.27 0 0-2.92-30.56 5.06-43.16 0 0 16.32 23.56 70.18 1.47 1.15-.48 2.31-1 3.49-1.47 0 0 19.71 17.42 14.38 62.73 0 0-.66 42.75 2.67 50.65 3.73 8.85 14.37 20.92 14.63 33.78-.06-.06 1.71 24.86.78 47.88z" transform="translate(-10.77 -36.49)" style="isolation:isolate" fill="#07a0c3"/><path d="M246.9 307.85a39.86 39.86 0 008.21 4.83 50.19 50.19 0 009 3.13 57.15 57.15 0 009.37 1.5 60 60 0 009.48-.09 67.86 67.86 0 009.39-1.45c1.53-.39 3.08-.74 4.59-1.23l2.28-.69 2.25-.78a107.8 107.8 0 0017.3-8.06l-4.07 2.53-4.2 2.32c-1.44.7-2.86 1.44-4.33 2.08s-2.92 1.32-4.43 1.85a69.4 69.4 0 01-18.74 4.42 55.54 55.54 0 01-19.13-1.66 43.83 43.83 0 01-16.97-8.7z" transform="translate(-10.77 -36.49)" fill="#07869b"/><path class="cls-6" d="M351.5 493.41l-2.57-1.3c9.18-34.31-18.18-68.11-18.18-68.11-10.59-11.26-3.77-50.4-3.77-50.4 3.33-22.35-5.68-55.62-11.49-73.85 1.15-.48 2.31-1 3.49-1.47 0 0 19.71 17.42 14.38 62.73 0 0-.66 42.75 2.67 50.65 3.73 8.85 14.37 20.92 14.63 33.78 0 .03 1.77 24.95.84 47.97zM280.69 517.85a9.17 9.17 0 01-3.46 2.31l6.09-39.57c6.89-16.35 2.16-48.79 2.16-48.79-7.72-5.89-6.92-24.4-6.92-24.4-1.06-63.79 8.79-58.16 8.79-58.16v2.68c-.87-.93-1.84.28-2.6 7 0 0-2.08 52 0 60.85 0 0 6.05 20.91 6.32 28.42 0-.03 1.86 36.42-10.38 69.66z" transform="translate(-10.77 -36.49)"/><path d="M388.35 257.48s1.24 7.14-11.18 7.5l-16.17-2.5s-6.75-7.33-4.44-12.16l2.13-.52-18-29.22-5.43-8.83-.1.22c-1.25 2.63-13.36 28.26-13 36.06l2.13 10.18s-.53 4.46-5.85 6.79c0 0-2.14.27-5.19.63-6.22.72-16.25 1.78-19.82 1.6L270 265.11s5.87 21.14-12.76 26.23c0 0-.18-21.89-2.13-22.78 0 0-6.74 10.54-19.33 7 0 0 0-11.8 11.52-20.38 0 0-4.43-3.75-.35-9.29 0 0-1.77-19.3-3.55-19.3 0 0-4.43 10.56-9.22 13.24 0 0-6.38 7.49-17.92.88 0 0-11-7.33-1.05-20.38l41.31-61.47h20.76l8 1.79s-18.8 12.15-2.3 17.78c0 0 17.06 7.95 29.74-15.28l29.32 12.51S375.23 220 385 248.72c0 0 6-.36 3.35 8.76z" transform="translate(-10.77 -36.49)" fill="#7e4eb9"/><path class="cls-33" d="M315.1 158.83s5.85 3.22 5.32 9.47c0 0-.18 17.16-10.11 20 0 0-3.37-8.58-10.46-6.44 0 0-22.53 19.66-28.91 41.46 0 0 7.19-37.81 20.49-43.68 0 .02 12.57-.64 23.67-20.81z" transform="translate(-10.77 -36.49)"/><path class="cls-33" d="M286.84 156.88s-7-.56-12.67 1.63c0 0-12.21 8.2-8.29 17.83 0 0 5.89-4.14 9.76.9a146.62 146.62 0 01-8.83 42s22.11-35.21 13.39-42.43c0 0-3.21-4.06-1.73-8.9 1.18-3.78 8.78-6.91 8.37-11.03z" transform="translate(-10.77 -36.49)"/><path class="cls-34" d="M247 245.86a30.88 30.88 0 008.22 4.95 58.32 58.32 0 009.11 3 89.73 89.73 0 0019 2.61l2.4.14H293c3.21-.13 6.41-.33 9.62-.51 3.2-.33 6.41-.59 9.61-1s6.37-.9 9.58-1.31c-3.17.63-6.34 1.19-9.51 1.79s-6.4.84-9.61 1.26c-1.6.19-3.22.26-4.83.37s-3.22.24-4.84.29H285.74l-2.42-.12c-1.61-.11-3.23-.17-4.84-.31l-4.83-.59a74 74 0 01-9.51-2 59.16 59.16 0 01-9.11-3.34l-2.16-1.12c-.7-.4-1.38-.84-2.08-1.25a21.24 21.24 0 01-3.79-2.86zM360.86 249a14.54 14.54 0 005.61 1.53 31.43 31.43 0 005.82 0c1 0 1.94-.21 2.91-.29l2.91-.45 2.9-.55c1-.19 1.93-.42 2.91-.58-.91.38-1.85.7-2.78 1.06s-1.91.57-2.87.83-1.95.43-2.92.62-2 .31-3 .36a23.73 23.73 0 01-6-.25 11.33 11.33 0 01-5.49-2.28zM326.19 194.84a83.11 83.11 0 015 8.2 80.36 80.36 0 014.13 8.69 82.2 82.2 0 01-5-8.21 80.14 80.14 0 01-4.13-8.68zM260.42 193c-1.2 2.75-2.49 5.45-3.8 8.14s-2.68 5.35-4.05 8-2.79 5.29-4.25 7.9l-2.2 3.92c-.76 1.29-1.5 2.59-2.29 3.86.59-1.38 1.24-2.72 1.86-4.09l1.95-4c1.3-2.7 2.67-5.36 4-8s2.79-5.3 4.26-7.91 2.96-5.26 4.52-7.82z" transform="translate(-10.77 -36.49)"/><path class="cls-34" d="M270.54 218.29c-.34 2.73-.78 5.43-1.24 8.13s-1 5.39-1.51 8.08-1.1 5.37-1.73 8l-.94 4c-.35 1.32-.67 2.66-1.05 4 .16-1.37.38-2.72.57-4.08l.67-4.05c.45-2.71 1-5.4 1.5-8.08s1.11-5.37 1.74-8 1.25-5.35 1.99-8zM267.3 265.61a37.24 37.24 0 01-.75 11.85 23.27 23.27 0 01-2.06 5.64 10 10 0 01-1.81 2.45 3.68 3.68 0 01-2.74 1.14 3.7 3.7 0 002.38-1.48 11.29 11.29 0 001.47-2.46 29.89 29.89 0 001.78-5.52 91.14 91.14 0 001.73-11.62zM252.42 261.78a8.59 8.59 0 01-.89 4.83 11 11 0 01-3.22 3.84 13.22 13.22 0 01-9.39 2.53 18.2 18.2 0 008.79-3.33 11.63 11.63 0 004.71-7.87z" transform="translate(-10.77 -36.49)"/><path class="cls-6" d="M322.19 248l2.13 10.18s-.53 4.46-5.85 6.79c0 0-2.14.27-5.19.63-.2-2.85-.37-6.39-.42-10.32-.22-17.84 2.14-43.9 16.78-52l5.58 8.67c-1.22 2.63-13.36 28.26-13.03 36.05z" transform="translate(-10.77 -36.49)"/><path class="cls-8" d="M236.41 127.57c-2.42 4.41-7.72 10.16-19.14 12.11l-7.7-5.71c5.93-1.46 16.24-5.37 20.85-15.47l4.51 7.18c.54.67 1.07 1.32 1.48 1.89z" transform="translate(-10.77 -36.49)"/><path d="M185.44 116.16c-.21.04-.22.03 0 0z" transform="translate(-10.77 -36.49)" opacity=".31" fill="#fff"/><path class="cls-8" d="M224.22 107.33c-1.94 5.92-7.57 15.49-23.85 18.14l-1.62-1.58-9.12-8.33c7.06-1.52 20.85-6.41 26.89-21.09l1.38 2 4.26 8c.76 1.04 1.44 1.98 2.06 2.86z" transform="translate(-10.77 -36.49)"/><ellipse class="cls-36" cx="192.04" cy="89.38" rx="16.52" ry="4.71" transform="rotate(-36.26 130.918 87.57)"/><ellipse class="cls-36" cx="193.37" cy="90.9" rx="11.42" ry="3.26" transform="rotate(-36.26 132.242 89.103)"/><ellipse class="cls-37" cx="177.88" cy="49.15" rx="2.06" ry="2.07"/><ellipse class="cls-37" cx="181.27" cy="51.22" rx="3" ry="3.03"/><path class="cls-25" d="M246.9 161.06v2.15a10.38 10.38 0 01-2.09 6.26l-3.76 5-3.46 44.8s1.06 18.19-14.9 19c0 0-10.37.54-6.38-22.51l13.57-41.55-12-9.92s-2.51-9.92 3.91-15.28c0 0 7.15-2.41 9.34 1.34l-5 4.55a26.17 26.17 0 00-3.8 4.48l12.06 12.95z" transform="translate(-10.77 -36.49)"/><path d="M229.88 174.2s-14.11 10.62-6.66 16.89c0 0 13.4 7.24 16.86-4.1l-.36 12.94s-8.17 7.81-20.7-.58a5.23 5.23 0 01-2.31-4.6l.79-16a5.32 5.32 0 012.36-4.16l5.84-3.86z" transform="translate(-10.77 -36.49)" fill="#444"/><path class="cls-39" d="M292 72s13.48 19.84 38.31 24.3 7.85 71.7 7.85 71.7" transform="translate(-10.77 -36.49)"/><path class="cls-39" d="M292 72s13.48 19.84 38.31 24.3 39.2 27.61 39.2 27.61" transform="translate(-10.77 -36.49)"/><ellipse class="cls-21" cx="264.98" cy="91.88" rx="2.01" ry="2.02"/><ellipse class="cls-21" cx="280.23" cy="92.58" rx="2.01" ry="2.02"/><path class="cls-22" d="M284.3 124.16l-2.3 5.08a1.54 1.54 0 00.46 1.62l1.6.69M278.57 136.16a4.22 4.22 0 003.67 4.16c3.89.92 5.5-3.7 5.5-3.7" transform="translate(-10.77 -36.49)"/><ellipse class="cls-23" cx="265.59" cy="82.64" rx="1.37" ry="1.38"/><ellipse class="cls-23" cx="280.16" cy="82.64" rx="1.37" ry="1.38"/><path class="cls-6" d="M295.74 149.28s3.59 1.49 9.33.17a31.9 31.9 0 0010.22-4.53s-.19 11.6-.19 13.91-19.36-9.55-19.36-9.55z" transform="translate(-10.77 -36.49)"/><ellipse class="cls-40" cx="799.56" cy="127.46" rx="31.44" ry="35.96" transform="rotate(-19.77 689.562 140.118)"/><g id="handwithpen"><path stroke="#231f20" stroke-width="4" stroke-linecap="round" stroke-miterlimit="10" fill="none" d="M937.01 115.71l-37.66 39.71"/><path class="cls-40" d="M912.47 214.47l6.37-7.86a61.09 61.09 0 019.58-4.78 10.69 10.69 0 007.14-10.42 6.83 6.83 0 00-.51-2.38s4.94-2.28.52-6.42c0 0 5.85-10.13-4.83-10.13l-7.39 7.24s-3 .52-3-1.34c0 0 4.78-3.63 3.75-4.25s-11.56-3-12.86 1.66l-.41 6.82-1 13.66-9 10.54z" transform="translate(-10.77 -36.49)"/></g><path class="cls-8" d="M900.88 180.87l7.19-7.03-13.02-11.76-6.08 7.89 11.91 10.9z"/><path class="cls-40" d="M850.06 376.84s4.31 8.27 0 20.06c0 0 .32 27.48-2.26 38.68l-10.26 59.57s-2.26 14.27 1.85 18L849.86 527s8 7.86-7.39 2.28l-18.89-17.17s2-19.44 0-36.2c0 0-4.52-39.09-1.64-51.09 0 0 2.87-44.05 1-44.67zM818 378.7s3.28 14.06-1.85 18.41c0 0-4.52 36-12.73 50.26 0 0-8.62 26.68-15.19 35.16 0 0-11.5 27.1-10.88 32.27 0 0-5.13 24-13.34 27.92 0 0-8.42 2.69-7.6-6.82l10.68-25.45 7-38.26s4.51-39.3 9.64-51.09l7.6-26.48 9.67-20.27z" transform="translate(-10.77 -36.49)"/><path class="cls-42" d="M813.79 167.05L810 187.37l-18.49-17.06-32 24.51s-9.24 13.65 0 31c0 0 9.92 34.34 25.08 52.54a24.42 24.42 0 010 23.17S776 321 794 383.87c0 0 39 15.3 63.23-2.48 0 0 13.14-38.06 11.91-60.4l.08-53.37s28.66-21.51 48-51.71l-16.42-13.23-35.31 37.23s-2.05-23.17-9.44-42.2c0 0-5.34-21.09-19.71-22.75z" transform="translate(-10.77 -36.49)"/><path class="cls-43" d="M804.25 74.21s18.78 27.31-29.87 42.2c0 0-4.93 43 15.39 41l1.49 6.9s-31.66-3.25-39-30.56c0 0-5.55-21.1 11.08-47.16-.05.03 9.81-23.59 40.91-12.38z" transform="translate(-10.77 -36.49)"/><path class="cls-43" d="M800.46 75.4S802 96.64 826 113.59c0 0 7.71 38.75-18.29 44.12l1 7.53s31.75-.91 34.49-6.7c0 0-10.95-13.51-7-44.68.11 0 7.58-45.74-35.74-38.46z" transform="translate(-10.77 -36.49)"/><ellipse class="cls-40" cx="770.39" cy="125.41" rx="7.55" ry="10.41" transform="rotate(-20.38 663.633 137.12)"/><path class="cls-40" d="M799.26 116.75h-20.32l2.46 22.96 17.86 11.17 8.62-2.48-8.62-31.65z"/><path class="cls-8" d="M812.77 133.81l-9.75-3.26-3.76 20.33-18.49-17.07-6.06 4.64 46.72 71.58-8.66-76.22z"/><path fill="#e7954d" d="M867.42 229.06l-92.71 6.62 4.23 59.57 91.76-9.1-3.28-57.09z"/><path class="cls-40" d="M819.89 305.68l7.39 10 9 1.59s13.7 4.7 8.16 9l-5.34.53-.24 7.36s-5.41 4.42-8.33 3.75c0 0-5.75.21-8-3.52 0 0-7.18 0-6.77-3.93v-7.95l-9.91-10.15z" transform="translate(-10.77 -36.49)"/><path class="cls-8" d="M809.53 270.02l5.13 6.61-12.73 8.07-3.86-8.27 11.46-6.41z"/><path class="cls-42" d="M772.03 183.42l41.06 88.25-15.02 9.1-37.99-61.71 11.95-35.64z"/><path class="cls-45" d="M849.86 527s7.94 7.45-7.39 2.28l-18.89-17.17s-4.1 2.89-2.6 12.82l1.51 12.41h3.33v-12.61s3-2 6.52 3.51l12 11.86s11 5.52 18.07 5.24c0 0 7.39-.83 1.64-8.27.04 0-9.81-8.55-14.19-10.07zM777.12 516s-5.4 17-6.77 19.34c0 0-14 16.91-14-.47 0 0-12.74 18.2-3.16 21.79 0 0 13.42 2.2 19.75-15 .06 0 8.06-24.96 4.18-25.66z" transform="translate(-10.77 -36.49)"/><path class="cls-46" d="M815.6 158.7l-16.34-7.82M804.15 153.22l-4.55-2.34-6.7 15.44"/><path class="cls-47" d="M797.79 155.04l9.13 32.75 14.51 22.24-3.02-26.61-13.95-29.65-5.2-2.89-1.47 4.16z"/><path class="cls-47" d="M805.85 269.46c-2.11-4-4.12-8.13-6.11-12.23s-3.91-8.22-5.87-12.33-3.81-8.28-5.66-12.44l-2.75-6.25c-.89-2.1-1.81-4.18-2.66-6.3 1.06 2 2.06 4.06 3.1 6.09l3 6.14c2 4.09 3.91 8.22 5.86 12.34s3.82 8.27 5.66 12.43 3.69 8.33 5.43 12.55zM846.08 267.61c-.67-4.52-1.23-9-1.78-13.57s-1-9.06-1.51-13.6-.89-9.07-1.28-13.61L841 220c-.15-2.28-.33-4.55-.45-6.83.34 2.26.62 4.52.94 6.78l.84 6.79c.54 4.52 1 9.06 1.51 13.59s.89 9.08 1.28 13.62.7 9.1.96 13.66zM854.37 378.14a144.26 144.26 0 01-14 4.37 67.58 67.58 0 01-14.6 2 61.15 61.15 0 01-14.65-1.6c-1.21-.24-2.38-.62-3.56-.93s-2.36-.69-3.52-1.09c-2.33-.76-4.6-1.7-6.86-2.64 2.34.72 4.63 1.57 7 2.17 1.17.35 2.34.69 3.54.94s2.36.61 3.56.79a64.1 64.1 0 0014.48 1.36 71.9 71.9 0 0014.44-1.77c2.39-.49 4.75-1.1 7.11-1.72z" transform="translate(-10.77 -36.49)"/><ellipse class="cls-21" cx="784.23" cy="94.95" rx="2.41" ry="2.6"/><ellipse class="cls-21" cx="802.59" cy="95.86" rx="2.41" ry="2.6"/><path class="cls-48" d="M802.43 126l2.76 6.53a2.09 2.09 0 01-.55 2.08l-1.93.89M798.4 141.46a5.31 5.31 0 004.41 5.35c4.69 1.19 6.62-4.75 6.62-4.75" transform="translate(-10.77 -36.49)"/><ellipse class="cls-49" cx="782.28" cy="83.96" rx="1.65" ry="1.78"/><ellipse class="cls-49" cx="802.51" cy="83.06" rx="1.65" ry="1.78"/><path class="cls-6" d="M793.05 158.41a57.31 57.31 0 0010.37.41c5.88-.41 7.8-2.33 7.8-2.33-.54-2 2.25 8.15 2.57 10.56.26 1.95-20.74-8.64-20.74-8.64z" transform="translate(-10.77 -36.49)"/><path class="cls-50" d="M460.45 502.78h19.91l-3.14 32.94s-6.58 5.91-11.92-2.34zM548.82 506.18h18.94V530s-.48 9.71-13.59 3.88z" transform="translate(-10.77 -36.49)"/><path class="cls-47" d="M454.62 281.52l86.27-.42 27.68 219.58s6.48 6.15 0 10h-25.9s-6.8-2.92-1-9.39l-42.38-185.13-14.56 186.14a9.85 9.85 0 01-.33 10.36H456s-4.09-4.53 0-10.36l-10.45-116.54s-5.38-69.7 9.07-104.24z" transform="translate(-10.77 -36.49)"/><path class="cls-50" d="M553.63 212.07l19.47-32.56L593.45 218s16.21 15.37-5.29 42.8l-45.82 32.62-1.45-26.09 29.86-29.63s-13-18.7-17.12-25.63z" transform="translate(-10.77 -36.49)"/><path d="M516.29 133.73s21.85.81 35 15.54l36.91 46.62-25.78 33.51-12.26-10-10.4 40.13s8 86.61 19 102c-.14-1.86-49.37 29.22-110.14 2.23l9.19-81.88s7.37-26.71.89-42.41l-12.39-33.34-9.71 9.71S434 226 427.31 227c0 0 5.46-34.47-9.11-58.26 0 0 9.71-23.8 32.05-31.57l19.49-5.08s20.33 15.73 46.55 1.64z" transform="translate(-10.77 -36.49)" style="isolation:isolate" fill="#fe5f55"/><path d="M452.36 136.58l13.24-3.45s7.47 48.35 37.58 47.38c0 0 29.55 4.8 26.87-20.07L524.78 135l10 3s20.88 43.15 18 61l-11.83 56.2s4.61 79.13 17.93 106.32c0 0-59.19 29.45-112 1.93 0 0 11.93-75.53 8.25-81.91 0 0 9.43-25 5.09-37.43-.03-.03 16.42-20.77-7.86-107.53z" transform="translate(-10.77 -36.49)" fill="#3e1c34"/><ellipse class="cls-50" cx="512.12" cy="53.1" rx="6.02" ry="10.51"/><path d="M468.67 60.05s-14.9-8.14-1.91-19.55l21.61-4s15.9.61 9.35 17c0 0 24.35 4.42 23.06 27.8 0 0 7.77 18.21-1 31.69l-.73 10s4.86 7.28 8.62 5.34c0 0-3.4 19.43-31.32 18.7 0 0-26.95-2.19-31.44-18.21 0 0-7.35-14.81-5.62-19.67l-.82-33.75s.59-10.4 10.2-15.35z" transform="translate(-10.77 -36.49)" fill="#3a3939"/><ellipse class="cls-50" cx="457.26" cy="93.01" rx="6.02" ry="10.51" transform="rotate(-6.03 105.29 176.99)"/><path class="cls-50" d="M473.8 104.86l-3.34-3.18a5.38 5.38 0 01-1.68-3.47c-.25-2.72-.19-8.27 1.82-18.67 1-5.18 5.76-11.16 10.67-13.11 17.12-6.82 33.39-.67 35 15.35 0 0 6.15 12 0 21.6 0 0-9.71-5.34-19.67-1.45a20.59 20.59 0 00-22.8 2.93z" transform="translate(-10.77 -36.49)"/><g id="hand-hairdryer"><path class="cls-50" d="M427.31 227s-10.57 15.55-24 9.07c0 0-10.52-7.12-10.68-22.66 0 0 .48-45.32 2.42-60.05 0 0-5-4.37-7-8.74 0 0-6.47-13.76-5.5-16.67 0 0-1.3-6.15 2.1-8.42l14.73-7.61s9.88-1.78 9.39 13c0 0 5.18-7.44 8.42-7.77 0 0 3.56.16-.33 7.77 0 0-4.69 13.11-3.07 16.84 0 0 .16 20.23 4.37 26.06 3.49 4.68 16.84 36.97 9.15 59.18z" transform="translate(-10.77 -36.49)"/><path d="M405.56 169.67l-7.22-19.59-12.84-31.88a12.73 12.73 0 00-5.82-6.38l-12.95 1.42s-14.41-11.86-8.91-21.5c0 0 50.11-19.35 70.94-20.49 0 0 7.08 2.59 6.11 15.22l-30.11 15.22s2.06 65.39 4.35 67c0 .01-1.11 3.08-3.55.98z" transform="translate(-10.77 -36.49)" fill="#433c4c"/><path class="cls-50" d="M383.19 124.21a8.55 8.55 0 014.24-7.86c4.56-2.64 11.65-6.22 14.75-5 0 0 4.53-.64 4.69 4.7 0 0 2.91 7.8 1.78 13.85 0 0 2.59 11-4.53 14.94 0 0-4.86 4.07-10.36 3.74 0 0-6.68-3.84-9-14a63.32 63.32 0 01-1.57-10.37z" transform="translate(-10.77 -36.49)"/><path d="M396.91 131.4s25.25 58.27-1 87.73-45.65 69.76-39 81.74c0 0 0 10.52 24.12 15.86 0 0 27.67 2.59 17.15 31.73l-31.05 51.79s-6.16 13.6 10 14.9a48.7 48.7 0 0035.77-7.13" stroke="#433c4c" stroke-width="2" stroke-linecap="round" stroke-miterlimit="10" fill="none"/><ellipse cx="429.64" cy="78.77" rx="2.91" ry="5.5" transform="rotate(-15.91 293.57 99.062)" fill="#5e5e5e"/></g><path class="cls-57" d="M464.74 533.05s8.1 9.07 13.76.33l2.91 20.72s-18.61 9.38-30.91 0z" transform="translate(-10.77 -36.49)"/><path class="cls-58" d="M450.5 553s7.44 9.71 30.91 0c0 0 2.76 5.82 0 7.77 0 0-16.34 11.33-30.91 1.29a8 8 0 010-9.06z" transform="translate(-10.77 -36.49)"/><path class="cls-57" d="M605.8 556h-54.71s-3.06-3.27-3.26-6.81a5.3 5.3 0 011-3.57l3.89-12.6s9.06 4.2 15.06-1.3c0 0 36.08 12 38 16.18 0 0 .3.52.68 1.29 1.15 2.38 2.99 7.1-.66 6.81z" transform="translate(-10.77 -36.49)"/><path class="cls-58" d="M605.8 556h-54.71s-3.06-3.27-3.26-6.81h58.65c1.13 2.38 2.97 7.1-.68 6.81z" transform="translate(-10.77 -36.49)"/><ellipse class="cls-50" cx="485.84" cy="74.63" rx="10.04" ry="5.09"/><path d="M489.57 108.36a7.57 7.57 0 002.5 6.79c1.82.95 7.19 1 8.92-.35 2.29-1.55 1.66-3.64 3.28-6.16-4.67.72-10.07.04-14.7-.28z" transform="translate(-10.77 -36.49)" fill="#934848"/><g clip-path="url(#clip-path-2)"><path d="M506.33 117.28a4.47 4.47 0 00-2.63-3.67 14.34 14.34 0 00-5.09-1.27 10.64 10.64 0 00-3.38.09 5.39 5.39 0 00-3.1 1.91 4.12 4.12 0 00-.68 1.94 5.74 5.74 0 004 6.22 11.74 11.74 0 009.51-1.7" transform="translate(-10.77 -36.49)" fill="#e95d5d"/></g><path class="cls-62" d="M558.81 222.6c1.72-2.56 3.52-5 5.33-7.52s3.68-4.92 5.55-7.36 3.78-4.84 5.73-7.21l2.93-3.56c1-1.16 2-2.34 3-3.49-.85 1.29-1.75 2.53-2.63 3.79L576 201c-1.81 2.48-3.68 4.92-5.55 7.36s-3.78 4.84-5.73 7.21-3.87 4.73-5.91 7.03zM436.13 212.86c-1-2.92-1.83-5.87-2.68-8.82s-1.64-5.92-2.42-8.89-1.52-6-2.2-8.94l-1-4.5c-.3-1.5-.64-3-.92-4.51.5 1.45.93 2.93 1.39 4.39l1.29 4.43c.86 2.94 1.64 5.91 2.42 8.88s1.52 5.95 2.2 8.95 1.35 5.99 1.92 9.01zM446.18 205.66a76.46 76.46 0 01-1-9.17 74.65 74.65 0 010-9.22 74.91 74.91 0 011 9.17 76.66 76.66 0 010 9.22zM468.67 142.47a64.11 64.11 0 006.55 4.35 63.5 63.5 0 006.95 3.6 46.84 46.84 0 0015 4.06 29.86 29.86 0 0021.73-6.58 42.7 42.7 0 005.66-5.43 33.47 33.47 0 01-11.94 10.21 26.51 26.51 0 01-7.57 2.44 31.76 31.76 0 01-8 .35 45.5 45.5 0 01-15.21-4.35 58.39 58.39 0 01-13.17-8.65z" transform="translate(-10.77 -36.49)"/><path d="M474.53 254.15c2.48.38 5 .75 7.46 1s5 .63 7.49.87c5 .49 10 .93 15 1a123.38 123.38 0 0015-.27c1.25 0 2.49-.24 3.73-.38a35.73 35.73 0 003.71-.57c1.22-.25 2.48-.4 3.68-.74l3.64-1a56.46 56.46 0 01-14.69 3.46c-1.26.13-2.51.26-3.77.35l-3.78.15c-1.27.08-2.53 0-3.79.05s-2.52 0-3.78-.06c-5-.18-10.07-.61-15.06-1.27a149.17 149.17 0 01-14.84-2.59zM500.26 261.12h4.73c1.57 0 3.15 0 4.73-.05 3.14-.07 6.29-.14 9.42-.35s6.27-.45 9.37-.89c.79-.08 1.56-.23 2.33-.36s1.55-.25 2.31-.45 1.54-.3 2.3-.51 1.51-.44 2.28-.65a39.87 39.87 0 01-9.09 2.73 75 75 0 01-9.44 1.12c-3.16.19-6.33.24-9.49.13a93.22 93.22 0 01-9.45-.72z" transform="translate(-10.77 -36.49)"/><path class="cls-63" d="M543.74 501.32c3.85-.21 7.67-.21 11.49-.24h5.73c1.91 0 3.82 0 5.74-.08a52.62 52.62 0 01-11.47 1.11 77.55 77.55 0 01-11.49-.79zM458.92 502.68c3.84-.21 7.67-.21 11.49-.24h5.73c1.91 0 3.82 0 5.74-.09a52.62 52.62 0 01-11.47 1.11 76.22 76.22 0 01-11.49-.78z" transform="translate(-10.77 -36.49)"/><path d="M455.1 359.05q5.83 1.56 11.72 2.76t11.84 2.19c4 .59 7.93 1.16 11.92 1.55s8 .65 12 .76a106 106 0 0023.87-1.75 58.74 58.74 0 0011.48-3.41 45.71 45.71 0 0010.43-5.89c-6.18 5.19-13.88 8.37-21.75 10.05a101.72 101.72 0 01-24.06 2 169.45 169.45 0 01-24-2.55 179.31 179.31 0 01-23.45-5.71z" transform="translate(-10.77 -36.49)"/><ellipse class="cls-21" cx="496.77" cy="60.17" rx="2.82" ry="2.84"/><ellipse class="cls-21" cx="474.26" cy="60.11" rx="2.82" ry="2.84"/><path class="cls-22" d="M495.51 88.62l3.22 7.15a2.15 2.15 0 01-.64 2.27l-2.26 1" transform="translate(-10.77 -36.49)"/><ellipse class="cls-23" cx="494.86" cy="46.11" rx="1.93" ry="1.95"/><ellipse class="cls-23" cx="474.35" cy="46.11" rx="1.93" ry="1.95"/><path class="cls-64" d="M56.47 480.81l16.24 5.32v21.85H56.47v-27.17zM175.6 480.81l-16.24 5.32v21.85h16.24v-27.17z"/><path d="M192.79 532.94l-5.55 1-23 4.22L129 332.19l-.57-3.31-39.49 208-4.94-1.39-26.06-7.16 25.57-240.2c1.54-20.88 7.21-18.91 7.21-18.91l69.36-.05h3.78c17.73 24.37 20 107.56 20 107.56z" transform="translate(-10.77 -36.49)" fill="#5f7367"/><path class="cls-66" d="M118.19 260.69v35.01l-.57-3.31-39.49 207.96L73.2 499l37.33-204.27 7.66-34.04z"/><path class="cls-66" d="M192.79 532.94l-5.55 1-9-167.08c2.07-26.29-12.24-77.72-18.2-97.71h3.78c17.73 24.37 20 107.56 20 107.56z" transform="translate(-10.77 -36.49)"/><path class="cls-64" d="M111.46 113.29h26s-.38 18.5 4.54 22.84a31.1 31.1 0 0012 4.33l2 22.84-22.25 16.54-17.52-6.7-11.82-7.87-3.41-10.64L98 144v-4.33s7.88-1.18 9.85-1.58c.07 0 9.39-23.4 3.61-24.8z" transform="translate(-10.77 -36.49)"/><g id="lefthand"><path class="cls-67" d="M159.29 271.24h47.72v9.08h-47.72z"/><ellipse class="cls-67" cx="156.08" cy="276.33" rx="9.31" ry="16.92"/><ellipse class="cls-67" cx="212.04" cy="276.33" rx="9.15" ry="16.64"/><ellipse class="cls-68" cx="151.8" cy="275.78" rx="5.03" ry="10.89"/><ellipse class="cls-68" cx="215.28" cy="275.79" rx="4.95" ry="10.71"/><path class="cls-64" d="M162.26 141a22.78 22.78 0 0116.93 3s13.39 2.55 13.78 29.73c0 0 10.64 24 11 50v10.43s3.11 8.38-.05 36.14l.15 33.52s5.31 10.19 2.07 14.62c0 0-23.11 10.05-19.64-2.08.59-2.07-1.19-6.93 3.24-11.65l-3.39-57-.89-13.88s-11.47-14-14.57-44.9l-5.81-10z" transform="translate(-10.77 -36.49)"/><path class="cls-69" d="M193.92 226.16a39 39 0 01-8.37 9.15 33.27 33.27 0 013.82-4.91 35.2 35.2 0 014.55-4.24z" transform="translate(-10.77 -36.49)"/></g><ellipse class="cls-64" cx="101.38" cy="93.94" rx="4.18" ry="6.72" transform="rotate(-15.65 -36.768 114.868)"/><ellipse class="cls-64" cx="146.62" cy="93.84" rx="6.72" ry="4.29" transform="rotate(-80.25 119.574 81.988)"/><ellipse class="cls-64" cx="113.44" cy="55.89" rx="21.41" ry="31.38"/><path d="M105.09 90.47l1.13-15.1S119 77.85 134.4 69c0 0 9.3 8.86 7.38 21.92l3.32.37s11.52-25.21-4.61-39.83c0 0-17.76-10-32.38 3.36 0 0-12 5.83-7.44 33z" transform="translate(-10.77 -36.49)" fill="#4d1a10"/><path class="cls-6" d="M115.53 122.48s3.92 1.63 10.21.18a35.08 35.08 0 0011.75-5.66s0 11.64 2 14.81c1.42 2.13-23.96-9.33-23.96-9.33z" transform="translate(-10.77 -36.49)"/><ellipse class="cls-21" cx="119.91" cy="61.44" rx="1.9" ry="2.04"/><ellipse class="cls-21" cx="105.49" cy="62.15" rx="1.9" ry="2.04"/><path class="cls-48" d="M124.84 93.68l-2.16 5.13a1.62 1.62 0 00.43 1.63l1.52.7M128 105.8a4.18 4.18 0 01-3.47 4.2c-3.68.93-5.19-3.73-5.19-3.73" transform="translate(-10.77 -36.49)"/><ellipse class="cls-49" cx="121.44" cy="52.81" rx="1.3" ry="1.4"/><ellipse class="cls-49" cx="105.56" cy="52.1" rx="1.3" ry="1.4"/><g id="righthand"><path class="cls-67" d="M14.26 101.01H56.6v8.06H14.26z"/><ellipse class="cls-67" cx="9.07" cy="105.53" rx="9.07" ry="16.49"/><ellipse class="cls-68" cx="4.9" cy="104.99" rx="4.9" ry="10.61"/><path class="cls-64" d="M87.16 142S68 140.58 61.47 154.17c0 0-8 20-6.11 24.61l-1.72-24.61s6.94-10.73 5.47-16.59c0 0-5.62-11.47-12.7-10.58 0 0-10.34 4.72-6.8 13.58 0 0 2.26 9.2 1 17.72-.3 2.07-5 45.71-1.18 51.83 0 0 4 27.91 15.8 27.91 0 0 11.48 2.65 18.16-19l2.95-27.17s1.63-6.35 7.24-5.46z" transform="translate(-10.77 -36.49)"/><path class="cls-69" d="M55.36 178.78c1 4 1.73 8.1 2.37 12.18s1.14 8.19 1.38 12.34c-1-4-1.73-8.1-2.37-12.19s-1.14-8.19-1.38-12.33z" transform="translate(-10.77 -36.49)"/><ellipse class="cls-67" cx="64.04" cy="105.81" rx="8.92" ry="16.22"/><ellipse class="cls-68" cx="67.21" cy="105" rx="4.82" ry="10.43"/></g><path class="cls-71" d="M85.67 564.56s-10.31 21-27.76 18.51c0 0-13.7-.77-11.67-12.25a25.83 25.83 0 013.49-8.49l17.51-20.81s10 6.82 16.24 0l1.63 17.18z" transform="translate(-10.77 -36.49)"/><path class="cls-72" d="M85.67 564.56s-10.31 21.26-27.76 18.51c0 0-13.7-.77-11.67-12.25 2.23 3 6.38 6.23 13.42 6.15a16.58 16.58 0 0011.21-4.67l14.24-13.6z" transform="translate(-10.77 -36.49)"/><path class="cls-73" d="M64.23 548.32c0 3.14 5 5.69 11.13 5.69M61.67 552c0 3.15 5 5.69 11.13 5.69M59.11 555.72c0 3.15 5 5.69 11.13 5.69M56.55 559.43c0 3.14 5 5.69 11.13 5.69" transform="translate(-10.77 -36.49)"/><path class="cls-71" d="M202.62 579.91s-9.74 7.1-22.14 0c0 0-12.11-8.27-12.11-13.87v-9.45A20.62 20.62 0 00170 543h17.87s-3 4.73 2.35 6.79l12.41 15.07a14.26 14.26 0 012.08 2.68c1.83 3.01 3.43 7.99-2.09 12.37z" transform="translate(-10.77 -36.49)"/><path class="cls-72" d="M202.62 579.91s-9.74 7.1-22.14 0c0 0-12.11-8.27-12.11-13.87v-4l11.27 9.77a20.4 20.4 0 0016.44 4.9c4.72-.74 9-3.06 8.62-9.16 1.84 3 3.44 7.98-2.08 12.36z" transform="translate(-10.77 -36.49)"/><path class="cls-73" d="M180.24 560.28c2.94.86 8-.38 9.65-6.13M183 563.69a7.9 7.9 0 009.89-5.66M185.76 567.09c2.93.86 8-1 9.69-6.72M188.52 570.5c2.93.86 7.73-1.32 9.41-7.06" transform="translate(-10.77 -36.49)"/><path class="cls-27" d="M161.86 242.05l5.52 31.11-.2.06c-3.56.89-55.83 13.62-81.32-.06 0 0 6.7-34.26 4.34-40.55 0 0-3.94-40.18-8.67-42.93l4.73-48.43 14.77-2s1 21.31 26 22.5c0 0 24.74 1.16 20.09-23.1 0 0 18.31.25 18.71 1.43.24.76 2.27 23.42 3.7 39.56.8 9 1.41 16 1.41 16s-9.86 36.18-9.08 46.41z" transform="translate(-10.77 -36.49)"/><path class="cls-74" d="M96.1 269.22q3.9 1.17 7.86 2c1.32.29 2.65.52 4 .79l4 .64a114.27 114.27 0 0016.1 1.24c2.7.09 5.39-.07 8.08-.17 1.34-.1 2.68-.26 4-.38l2-.2 2-.31c1.33-.21 2.66-.39 4-.62l4-.89c.65-.15 1.32-.27 2-.44l1.95-.57 3.9-1.13a77.7 77.7 0 01-15.64 4.41l-2 .38-2 .23c-1.35.14-2.7.31-4.06.42-2.71.14-5.43.34-8.15.27a103.61 103.61 0 01-16.21-1.48 86.64 86.64 0 01-15.83-4.19zM98.07 147.94a58.31 58.31 0 005.79 6.66 49 49 0 006.69 5.69 35.56 35.56 0 007.65 4.18 23.46 23.46 0 008.47 1.61 20.76 20.76 0 008.42-1.74 29.72 29.72 0 007.39-4.56A60.46 60.46 0 00154 146.56l-2.35 3.76c-.84 1.21-1.73 2.39-2.59 3.6s-1.9 2.28-2.9 3.37l-1.58 1.58c-.26.26-.52.53-.79.78l-.86.72c-.57.48-1.13 1-1.71 1.44l-1.86 1.26a16.93 16.93 0 01-1.94 1.13 15.05 15.05 0 01-2 1 21.68 21.68 0 01-8.77 1.9c-6.09 0-11.84-2.62-16.57-6.17a51.17 51.17 0 01-12.01-12.99z" transform="translate(-10.77 -36.49)"/><path d="M161.86 242.05l5.52 31.11-.2.06-5-4.78a27.81 27.81 0 01-8.25-15.18c-6.1-33.93 6-50.59 6-50.59l9.62-23c.8 9 1.41 16 1.41 16s-9.88 36.15-9.1 46.38z" transform="translate(-10.77 -36.49)" style="isolation:isolate" opacity=".08"/><path d="M90.69 284a74.86 74.86 0 008.69 3.1c1.48.43 3 .84 4.45 1.21s3 .71 4.51 1 3 .55 4.54.78l4.56.59 4.56.32a22.17 22.17 0 002.3.07h4.6l2.3-.12c1.53-.1 3.07-.11 4.59-.29l4.57-.59 1.14-.14c.38-.06.75-.16 1.13-.23l2.25-.44a101.82 101.82 0 0017.69-5.26l-4.25 1.83a39.84 39.84 0 01-4.32 1.69l-4.42 1.4c-.37.11-.74.24-1.11.34l-1.13.26-2.27.52a76.48 76.48 0 01-9.16 1.55c-1.53.2-3.09.22-4.63.34l-2.32.15h-2.33a86.05 86.05 0 01-18.45-2A74.23 74.23 0 0190.69 284z" transform="translate(-10.77 -36.49)" opacity=".21"/></g><path style="isolation:isolate" fill="#423c49" d="M28.34 317.72h884.41v5.33H28.34z"/></g></g></svg>