<svg xmlns="http://www.w3.org/2000/svg" width="272" height="68.977" viewBox="0 0 272 68.977"><defs><style>.a{fill:#e6e7e7;}.b{fill:#fff;}</style></defs><g transform="translate(0)"><path class="a" d="M60.3,8.54H5.258A5.274,5.274,0,0,0,0,13.8V68.839A5.27,5.27,0,0,0,5.258,74.1H60.3a5.27,5.27,0,0,0,5.258-5.258V13.8A5.274,5.274,0,0,0,60.3,8.54ZM52.567,54.559a1.92,1.92,0,0,1-3.84,0V45.565a1.51,1.51,0,0,0-1.506-1.51H47.1a1.514,1.514,0,0,0-1.51,1.51V56.9a5.506,5.506,0,1,1-11.008,0V36.732a1.638,1.638,0,0,0-1.634-1.63h-.072a1.634,1.634,0,0,0-1.642,1.63V51.508a5.506,5.506,0,1,1-11.01.176V45.605a1.462,1.462,0,0,0-1.454-1.458h-.284a1.458,1.458,0,0,0-1.454,1.458V60.382a2.026,2.026,0,0,1-4.049,0V45.73A5.506,5.506,0,1,1,24,45.73v.553h0v5.206a1.65,1.65,0,0,0,1.646,1.642h.1a1.65,1.65,0,0,0,1.646-1.642V36.671h0a5.506,5.506,0,0,1,11.008.052V56.95a1.578,1.578,0,0,0,1.57,1.57h0a1.574,1.574,0,0,0,1.57-1.57V45.738a5.506,5.506,0,1,1,11.012,0ZM18.32,30.533a4,4,0,1,1-4,4A4,4,0,0,1,18.32,30.533ZM15.561,18.663V14.33a1.153,1.153,0,0,1,1.149-1.149h1.746a1.153,1.153,0,0,1,1.165,1.149v4.333a1.153,1.153,0,0,1-1.149,1.149H16.711a1.153,1.153,0,0,1-1.149-1.149Zm13.355,6.856a4,4,0,1,1,4,4,4,4,0,0,1-4-4Zm18.248,5.014a4,4,0,1,1-4,4A4,4,0,0,1,47.165,30.533Zm-1-11.869V14.33a1.153,1.153,0,0,1,1.149-1.149h1.746a1.153,1.153,0,0,1,1.149,1.149v4.333a1.153,1.153,0,0,1-1.149,1.149H47.317A1.153,1.153,0,0,1,46.168,18.663Z" transform="translate(0 -5.12)"/><path class="b" d="M62.4,18.84H15.582a5.258,5.258,0,0,0-5.242,5.246V70.9a5.262,5.262,0,0,0,5.242,5.266H62.4a5.262,5.262,0,0,0,5.242-5.246V24.086A5.258,5.258,0,0,0,62.4,18.84ZM52.367,20.506a1.153,1.153,0,0,1,1.149-1.149h1.746a1.153,1.153,0,0,1,1.149,1.149v4.333a1.153,1.153,0,0,1-1.149,1.149H53.516a1.153,1.153,0,0,1-1.149-1.149Zm1,16.214a1.66,1.66,0,1,1,0-.012ZM39.1,27.714a4,4,0,1,1-4,4A4,4,0,0,1,39.1,27.714ZM21.761,20.506a1.153,1.153,0,0,1,1.149-1.149h1.746a1.153,1.153,0,0,1,1.165,1.149v4.333a1.153,1.153,0,0,1-1.149,1.149H22.91a1.153,1.153,0,0,1-1.149-1.149ZM24.52,36.72a1.66,1.66,0,1,1,0-.012ZM58.766,60.747a1.92,1.92,0,0,1-3.84,0V51.741a1.51,1.51,0,0,0-1.506-1.51H53.3a1.514,1.514,0,0,0-1.51,1.51V63.077a5.506,5.506,0,1,1-11.008,0V42.907a1.638,1.638,0,0,0-1.634-1.63h-.072a1.634,1.634,0,0,0-1.642,1.63V57.683a5.506,5.506,0,1,1-11.01.176V51.781a1.462,1.462,0,0,0-1.454-1.458h-.284a1.458,1.458,0,0,0-1.454,1.458V66.557a2.026,2.026,0,0,1-4.049,0V51.9a5.506,5.506,0,0,1,11.012,0v.553h0v5.206a1.65,1.65,0,0,0,1.646,1.642h.1a1.65,1.65,0,0,0,1.646-1.642V42.847h0A5.506,5.506,0,0,1,44.6,42.9V63.125a1.578,1.578,0,0,0,1.57,1.57h0a1.574,1.574,0,0,0,1.57-1.57V51.913a5.506,5.506,0,1,1,11.012,0Z" transform="translate(-6.199 -11.296)"/><rect class="b" width="4.045" height="10.071" rx="1.34" transform="translate(15.561)"/><rect class="b" width="4.045" height="10.071" rx="1.34" transform="translate(46.168)"/><path class="b" d="M198.334,87.412H190.81V49.83h15.045a14.588,14.588,0,0,1,4,.537,14.993,14.993,0,0,1,3.556,1.534,15.106,15.106,0,0,1,6.92,9.018,15.019,15.019,0,0,1-8.65,17.824,14.536,14.536,0,0,1-5.831,1.2h-7.52Zm0-30.062V72.395h7.52a7.276,7.276,0,0,0,2.911-.589,7.545,7.545,0,0,0,2.4-12.25,7.712,7.712,0,0,0-2.383-1.6,7.276,7.276,0,0,0-2.911-.589Z" transform="translate(-114.401 -29.875)"/><path class="b" d="M278.308,47.4a4.6,4.6,0,0,1-.38,1.862,4.77,4.77,0,0,1-1.037,1.526,4.942,4.942,0,0,1-1.534,1.021,4.8,4.8,0,0,1-6.287-2.527,4.529,4.529,0,0,1-.38-1.862,4.582,4.582,0,0,1,.38-1.85,4.794,4.794,0,0,1,6.3-2.559,4.942,4.942,0,0,1,1.534,1.021,4.733,4.733,0,0,1,1.037,1.518A4.649,4.649,0,0,1,278.308,47.4Zm-1.233,35.7h-7.208V55.028h7.208Z" transform="translate(-161.093 -25.559)"/><path class="b" d="M322.092,77.565l-5.242,5.266a7.1,7.1,0,0,0-1.077-1.978,7.325,7.325,0,0,0-1.53-1.482,6.724,6.724,0,0,0-3.9-1.217,6.5,6.5,0,0,0-2.763.6,6.808,6.808,0,0,0-2.255,1.69,8.109,8.109,0,0,0-1.506,2.583,9.466,9.466,0,0,0-.553,3.3,6.892,6.892,0,0,0,.553,2.751,7.053,7.053,0,0,0,8.542,4.037,7.337,7.337,0,0,0,1.822-.825,6.88,6.88,0,0,0,1.522-1.309,6.98,6.98,0,0,0,1.089-1.718l5.23,5.254a14.013,14.013,0,0,1-2.295,2.543,14.414,14.414,0,0,1-2.8,1.914,14.083,14.083,0,0,1-3.172,1.2,14.332,14.332,0,0,1-3.424.4,13.972,13.972,0,0,1-5.566-1.113,14.34,14.34,0,0,1-7.641-7.609A13.764,13.764,0,0,1,296,86.319a16.018,16.018,0,0,1,1.129-6.031,15.538,15.538,0,0,1,3.079-4.885,14.548,14.548,0,0,1,4.561-3.292,13.138,13.138,0,0,1,5.566-1.2,13.482,13.482,0,0,1,3.46.436,14.148,14.148,0,0,1,3.224,1.3,13.885,13.885,0,0,1,2.831,2.086A12.969,12.969,0,0,1,322.092,77.565Z" transform="translate(-177.467 -42.514)"/><path class="b" d="M373.718,84.924H366.51V45.68h7.208V70.424L384.386,56.9h8.229l-9.3,11.689,9.3,16.326h-8.229L378.72,74.728l-4.982,6.607Z" transform="translate(-219.742 -27.388)"/><path class="b" d="M446.552,84.948a12.174,12.174,0,0,1-4.877-.981,12.674,12.674,0,0,1-6.7-6.7A12.173,12.173,0,0,1,434,72.394V64.06H430.51V56.933H434V45.72h7.12V56.933H451.97V64.06H441.118v8.333a5.382,5.382,0,0,0,1.574,3.828,5.531,5.531,0,0,0,1.73,1.165,5.254,5.254,0,0,0,2.122.432h5.426v7.128Z" transform="translate(-258.113 -27.412)"/><path class="b" d="M497.453,47.429a4.6,4.6,0,0,1-.38,1.862,4.837,4.837,0,0,1-1.037,1.526,4.99,4.99,0,0,1-1.534,1.021,4.8,4.8,0,0,1-5.266-1.021,4.873,4.873,0,0,1-1.025-1.506,4.6,4.6,0,0,1-.38-1.862,4.65,4.65,0,0,1,.38-1.85,4.834,4.834,0,0,1,1.025-1.518A4.8,4.8,0,0,1,494.5,43.06a4.989,4.989,0,0,1,1.534,1.021,4.805,4.805,0,0,1,1.037,1.518A4.649,4.649,0,0,1,497.453,47.429Zm-1.233,35.7h-7.208V55.058h7.208Z" transform="translate(-292.479 -25.589)"/><path class="b" d="M554.716,100.938h-7.132V83.118a3.539,3.539,0,0,0-.272-1.39,3.648,3.648,0,0,0-.773-1.153A3.58,3.58,0,0,0,544,79.526a3.452,3.452,0,0,0-2.5,1.049,3.683,3.683,0,0,0-.761,1.153,3.54,3.54,0,0,0-.276,1.39v17.82H533.3V83.118a3.536,3.536,0,0,0-1.049-2.543,3.58,3.58,0,0,0-2.539-1.049,3.44,3.44,0,0,0-1.377.276,3.48,3.48,0,0,0-1.129.773,3.743,3.743,0,0,0-.757,1.153,3.541,3.541,0,0,0-.276,1.39v17.82H519V72.87h1.73l1.954,2.166a11.536,11.536,0,0,1,3.292-1.95,10.239,10.239,0,0,1,3.736-.7,10.444,10.444,0,0,1,3.836.733,7.821,7.821,0,0,1,3.292,2.543,7.16,7.16,0,0,1,1.494-1.518,8.467,8.467,0,0,1,1.77-1.025,8.705,8.705,0,0,1,1.926-.561A11.38,11.38,0,0,1,544,72.39a10.451,10.451,0,0,1,4.181.841,10.679,10.679,0,0,1,6.539,9.887Z" transform="translate(-311.168 -43.401)"/><path class="b" d="M626.787,93.18a3.912,3.912,0,0,0,.841.168,8.362,8.362,0,0,0,.837.04,7.028,7.028,0,0,0,2-.288,7.336,7.336,0,0,0,1.822-.825,6.832,6.832,0,0,0,2.607-3.027l5.242,5.266a13.848,13.848,0,0,1-2.291,2.543,14.416,14.416,0,0,1-2.8,1.914,14.083,14.083,0,0,1-3.172,1.2,14.648,14.648,0,0,1-8.986-.7A14.055,14.055,0,0,1,618.33,96.4a14.316,14.316,0,0,1-3.051-4.681,15.358,15.358,0,0,1-1.149-5.967,15.862,15.862,0,0,1,1.149-6.075,13.728,13.728,0,0,1,7.608-7.7,14.485,14.485,0,0,1,5.57-1.077,14.087,14.087,0,0,1,3.436.4,14.46,14.46,0,0,1,8.309,5.686Zm3.672-14.757a4.1,4.1,0,0,0-.985-.236,9.048,9.048,0,0,0-1.009-.052,7.108,7.108,0,0,0-2.763.537,6.536,6.536,0,0,0-2.254,1.534,7.209,7.209,0,0,0-1.506,2.4,8.539,8.539,0,0,0-.553,3.156,7.191,7.191,0,0,0,.04.893,8.952,8.952,0,0,0,.132,1.009c.06.34.132.669.22.981a3.65,3.65,0,0,0,.34.841Z" transform="translate(-368.202 -42.508)"/></g></svg>