<svg xmlns="http://www.w3.org/2000/svg" xmlns:xlink="http://www.w3.org/1999/xlink" viewBox="0 0 949.25 888.19" width="658" height="593.947"><defs>
	<style>.cls-1,.cls-10,.cls-13,.cls-15,.cls-19,.cls-20,.cls-21,.cls-30,.cls-35{fill:none;}.cls-1{stroke:#ebcbf7;}.cls-1,.cls-10,.cls-13,.cls-15,.cls-19,.cls-20,.cls-21,.cls-30,.cls-35,.cls-38{stroke-miterlimit:10;}.cls-14,.cls-17,.cls-2,.cls-45,.cls-46{fill:#8b22e2;}.cls-3{clip-path:url(#clip-path);}.cls-4{fill:#dec0f9;}.cls-4,.cls-45{opacity:0.4;}.cls-5,.cls-8{fill:#9c9ce2;}.cls-5{opacity:0.51;}.cls-6{fill:#d7d4ff;}.cls-11,.cls-12,.cls-26,.cls-38,.cls-53,.cls-7,.cls-9{fill:#fff;}.cls-7{opacity:0.43;}.cls-10,.cls-9{opacity:0.6;}.cls-10{stroke:#fff;}.cls-11{opacity:0.81;}.cls-12{opacity:0.22;}.cls-13,.cls-15,.cls-19,.cls-20{stroke:#f1f2f2;}.cls-13{opacity:0.54;}.cls-14{opacity:0.53;}.cls-15{opacity:0.5;}.cls-16{fill:#d3acf9;}.cls-17{opacity:0.8;}.cls-18{opacity:0.47;}.cls-19{opacity:0.44;}.cls-20{opacity:0.49;}.cls-21{stroke:#8b22e2;}.cls-22{fill:#e6a16c;}.cls-23{fill:#6884dd;}.cls-24,.cls-33{fill:#020202;}.cls-24,.cls-31{opacity:0.17;}.cls-25{opacity:0.1;}.cls-25,.cls-56,.cls-59{isolation:isolate;}.cls-27{fill:#fa0;}.cls-28{fill:#c98409;}.cls-29{fill:#1b0500;}.cls-30{stroke:#020202;stroke-linecap:round;stroke-width:3px;}.cls-32{fill:#101521;}.cls-34{fill:#f2866d;}.cls-35{stroke:#ba7343;stroke-width:0.75px;}.cls-36{fill:#ba7343;}.cls-37{fill:#b388e5;}.cls-38{stroke:#b388e5;stroke-width:2px;}.cls-39{fill:#570d9e;}.cls-40{fill:#a67ce8;}.cls-41{fill:#3ead6b;}.cls-42{fill:#f2f4f3;opacity:0.14;}.cls-43{fill:#b281e4;}.cls-44{fill:#d9cce6;}.cls-46{opacity:0.33;}.cls-47{fill:#ffbca0;}.cls-48{fill:#8c4d37;}.cls-49{fill:#6139bd;}.cls-50,.cls-51,.cls-53{opacity:0.15;}.cls-52{fill:#050505;}.cls-54{fill:#f0f2f8;opacity:0.39;}.cls-55{fill:#f84260;}.cls-56,.cls-59{opacity:1;}.cls-57{fill:#c3b7ce;}.cls-58,.cls-59{fill:#d5c4e3;}.cls-60{fill:#ae6fe2;}






#finger1{
  animation: finger 1s forwards;
  transform-box:fill-box;
  transform-origin:left;
}
@keyframes finger{
  0%{
   	transform: rotate(-15deg);
   }
50%{
   transform: rotate(20deg);
   }
100%{
    transform: rotate(0deg);
   }
}


#calendar{

    animation: rightmark 1s ease-in-out 0s forwards;
    animation-delay: 1s;
    transform-box:fill-box;
    transform-origin:left;
    opacity: 0;
}

@keyframes rightmark{

0% {
   transform:scale(0,0);
}
50% {
   transform:scale(1,1);
}
100% {
    transform:scale(1,1);
    opacity: 1;
}
}


#redtag{
   animation: rightmark 1.5s ease-in-out forwards;
    animation-delay: 1.5s;
    transform-box:fill-box;
    transform-origin:left;
    opacity: 0;
}

@keyframes red{

 0%{
   
    transform:scale(0,0);
   
   }
50%{
  
   transform:scale(0,0);

 
   }
100%{
   
	transform:scale(1,1);
	 opacity: 1;
   }

}


#hand_1_{
  animation: G_hand 0.5s  linear;
  animation-delay: 2.2s;
  transform-box:fill-box;
 transform-origin: right;

}
@keyframes G_hand{
  0%{
   	transform: rotate(0deg);
   }
50%{
   transform: rotate(10deg);
   }
100%{
    transform: rotate(0deg);
   }
}

#greentag{
 animation: green 0.9s  ease-in-out 0s forwards;
 /*transform-origin: center;*/
  transform-origin: 591px 66%;
  animation-delay: 2.9s;
  opacity: 0;
 
}
@keyframes green{
  0%{
   transform: scale(0,0);
    opacity: 0.5;
  }
  100%{
   transform: scale(1,1);
   opacity: 1;
  }
}



#womanhead{
    animation: w-head 2s infinite linear;
    transform-box: fill-box;
    transform-origin: bottom;
}
@keyframes w-head{
  0%{
   	transform: rotate(0deg);
   }
50%{
   transform: rotate(3deg);
   }
100%{
    transform: rotate(0deg);
   }
}



#smallleafes{
	animation: wiggle 10s ease infinite;
    animation-direction: alternate;
    transform-box:fill-box;
     transform-origin:left;
}

  @keyframes wiggle{
0%{
   	transform: rotate(0deg);
   }
50%{
   transform: rotate(10deg);
   }
100%{
    transform: rotate(0deg);
   }
}
 #lightleaf{
  animation: leaf 5s infinite linear;
  transform-box:fill-box;
  transform-origin:right;
 }
  #darkleaf{
  animation: leaf 10s infinite linear;
  transform-box:fill-box;
  transform-origin:right;
  }  
  @keyframes leaf{
0%{
   	transform: rotate(0deg);
   }
50%{
   transform: rotate(10deg);
   }
100%{
    transform: rotate(0deg);
   }
}
#leg1{
  animation: leg 1.2s infinite linear;
  transform-box:fill-box;
  transform-origin:right;
}
@keyframes leg{
  0%{
   	transform: rotate(0deg);
   }
50%{
   transform: rotate(10deg);
   }
100%{
    transform: rotate(0deg);
   }
}
#thinline-2{
animation: clock 30s infinite linear;
transform-box:fill-box;
transform-origin: bottom;
}
#thinline{
animation: clock 30s infinite linear;
transform-box:fill-box;
transform-origin: bottom;
}
@keyframes clock{
  
to{
    transform:rotate(360deg);
  }
}


#leaf3{
  animation: leaf 13s infinite linear;
  transform-box:fill-box;
 transform-origin: bottom;
}
#leaf2{
  animation: leaf 7s infinite linear;
  transform-box:fill-box;
 transform-origin: bottom;
}

#leaf1{
  animation: leaf 10s infinite linear;
  transform-box:fill-box;
 transform-origin: bottom;
}

@keyframes leaf{

 0%{
   	transform: skewX(-10deg);
   }
50%{
   transform: skewX(0deg);
   }
100%{
    transform: skewX(-10deg);
   }

}
#manhead{
animation: head 2s infinite linear;
transform-box:fill-box;
transform-origin: center;
}
@keyframes head{
  0%{
   	transform: rotate(0deg);
   }
50%{
   transform: rotate(10deg);
   }
100%{
    transform: rotate(0deg);
   }
}

#greentickmar{
	animation: grow 1s forwards;
    animation-iteration-count: infinite;
    transform-box:fill-box;
    transform-origin: center;
}
@keyframes grow{
  0%{
   	transform: scale(.9);
   }
50%{
   transform: scale(1.10);
    
   }
100%{
    transform: scale(.9);

   }
}


@media only screen and (max-width:767px){
#leaf2{ 
  animation: none;
 }
}




	</style>
	<clipPath id="clip-path" transform="translate(0 31.56)"><circle class="cls-1" cx="439.84" cy="222" r="221.5"/></clipPath></defs><g id="Layer_2" data-name="Layer 2"><g id="Layer_2-2" data-name="Layer 2"><g id="Picktime-Hero"><g id="Base"><path class="cls-2" d="M51,856.63H945.49c2.08,0,3.76-1.07,3.76-2.39s-1.68-2.39-3.76-2.39H51c-2.08,0-3.76,1.07-3.76,2.39S48.9,856.63,51,856.63Z" transform="translate(0 31.56)"/></g><g id="Man-Booking"><g class="cls-3"><circle class="cls-4" cx="440" cy="256.93" r="229.97"/><rect class="cls-5" x="294.88" y="152.1" width="42.28" height="28.06" transform="translate(482.15 -118.33) rotate(90)"/><rect class="cls-6" x="455.61" y="20.59" width="110.62" height="281.87"/><rect class="cls-6" x="385.3" y="55.42" width="70.31" height="247.05"/><rect class="cls-7" x="464.8" y="34.04" width="38.83" height="20.73"/><rect class="cls-7" x="519.16" y="34.04" width="38.83" height="20.73"/><rect class="cls-7" x="464.8" y="63.12" width="38.83" height="20.73"/><rect class="cls-7" x="519.16" y="63.12" width="38.83" height="20.73"/><rect class="cls-7" x="464.8" y="92.21" width="38.83" height="20.73"/><rect class="cls-7" x="519.16" y="92.21" width="38.83" height="20.73"/><rect class="cls-7" x="464.8" y="121.29" width="38.83" height="20.73"/><rect class="cls-7" x="519.16" y="121.29" width="38.83" height="20.73"/><rect class="cls-7" x="464.8" y="150.38" width="38.83" height="20.73"/><rect class="cls-7" x="519.16" y="150.38" width="38.83" height="20.73"/><rect class="cls-7" x="464.8" y="179.46" width="38.83" height="20.73"/><rect class="cls-7" x="519.16" y="179.46" width="38.83" height="20.73"/><rect class="cls-7" x="464.8" y="208.55" width="38.83" height="20.73"/><rect class="cls-7" x="519.16" y="208.55" width="38.83" height="20.73"/><rect class="cls-7" x="464.8" y="237.63" width="38.83" height="20.73"/><rect class="cls-7" x="519.16" y="237.63" width="38.83" height="20.73"/><rect class="cls-7" x="464.8" y="266.71" width="38.83" height="20.73"/><rect class="cls-7" x="519.16" y="266.71" width="38.83" height="20.73"/><rect class="cls-7" x="404.75" y="58.88" width="37.33" height="19.92"/><rect class="cls-7" x="404.75" y="86.84" width="37.33" height="19.92"/><rect class="cls-7" x="404.75" y="114.8" width="37.33" height="19.92"/><rect class="cls-7" x="404.75" y="142.75" width="37.33" height="19.92"/><rect class="cls-7" x="404.75" y="170.71" width="37.33" height="19.92"/><rect class="cls-7" x="404.75" y="198.67" width="37.33" height="19.92"/><rect class="cls-7" x="404.75" y="226.63" width="37.33" height="19.92"/><rect class="cls-7" x="404.75" y="254.59" width="37.33" height="19.92"/><rect class="cls-7" x="404.75" y="282.54" width="37.33" height="19.92"/><rect class="cls-6" x="579.63" y="47.79" width="29.04" height="251.73"/><rect class="cls-6" x="342.58" y="90.37" width="29.04" height="216.09"/><rect class="cls-6" x="617.43" y="170.95" width="44.49" height="93.48" transform="translate(1279.36 466.95) rotate(180)"/><rect class="cls-5" x="626.36" y="182.99" width="26.63" height="8.08" transform="translate(1279.36 405.62) rotate(180)"/><rect class="cls-5" x="626.36" y="209.07" width="26.63" height="8.08" transform="translate(1279.36 457.79) rotate(180)"/><rect class="cls-5" x="626.36" y="235.15" width="26.63" height="8.08" transform="translate(1279.36 509.95) rotate(180)"/><rect class="cls-5" x="263.11" y="218.91" width="69.12" height="42.28"/><path class="cls-8" d="M568.37,253.56s-9.14-15.65.88-21.44c0,0,3-13.93,14.75-4.89,0,0,17,6.54,8.19,16.27,0,0,1.67,9.17-4.69,12Z" transform="translate(0 31.56)"/><rect class="cls-8" x="577.6" y="272.05" width="2.93" height="37.3"/><rect class="cls-6" x="233.89" y="237.63" width="98.5" height="69.12"/><rect class="cls-5" x="281.72" y="254.31" width="40.54" height="24.8"/><path class="cls-8" d="M575.37,355.27s-26.16-44.79,2.51-61.36c0,0,8.62-39.87,42.22-14,0,0,48.5,18.72,23.44,46.54,0,0,4.77,26.24-13.44,34.39Z" transform="translate(0 31.56)"/><path class="cls-8" d="M367.77,251.39s-9.14-15.66.88-21.45c0,0,3-13.93,14.76-4.89,0,0,16.95,6.54,8.19,16.27,0,0,1.66,9.17-4.7,12Z" transform="translate(0 31.56)"/><rect class="cls-8" x="377" y="269.87" width="2.93" height="37.3"/><path class="cls-5" d="M610.08,299.43s-20.87-26.66,0-37.47c0,0,5.21-24.52,31.07-9.58,0,0,37.5,12.57,19.66,30.16,0,0,13.33,11.19,0,16.61Z" transform="translate(0 31.56)"/><path class="cls-6" d="M549.8,386.49s-36.78-47,0-66c0,0,9.18-43.21,54.73-16.89,0,0,66.08,22.16,34.65,53.15,0,0,23.49,19.71,0,29.27Z" transform="translate(0 31.56)"/><rect class="cls-5" x="226.45" y="176.34" width="42.48" height="17.37" transform="translate(432.71 -31.1) rotate(90)"/><rect class="cls-5" x="148.17" y="188.07" width="136.45" height="38.62" transform="translate(423.78 22.54) rotate(90)"/><path class="cls-9" d="M289.16,68.42S283.48,51,307.71,48c0,0,11.45-27.57,30.74,1.4,0,0,25.88,1.56,14.7,19Z" transform="translate(0 31.56)"/><path class="cls-9" d="M479.9,31.12s-4.07-12.52,13.3-14.64c0,0,8.2-19.75,22,1,0,0,18.55,1.11,10.54,13.63Z" transform="translate(0 31.56)"/><path class="cls-10" d="M350.63,43.77s-2.29-7,7.47-8.22c0,0,4.61-11.09,12.37.57,0,0,10.42.62,5.92,7.65Z" transform="translate(0 31.56)"/><path class="cls-10" d="M533.39,70.51S528,54,550.91,51.22c0,0,10.81-26,29,1.33,0,0,24.44,1.47,13.88,18Z" transform="translate(0 31.56)"/><path class="cls-11" d="M456,47.49C450.84,45.34,444,45,444,45c-19.29-22.3-30.73-1.08-30.73-1.08C389,46.22,394.69,59.66,394.69,59.66h64l44.49-2.45Z" transform="translate(0 31.56)"/><path class="cls-8" d="M571.37,418S520,367.52,488.88,404.82c0,0,18.54-67.92,62.45-29.57Z" transform="translate(0 31.56)"/><path class="cls-8" d="M566.85,416.35s45.4-61.16,77-45.22c0,0-7.94-10.66-25.9-11.75-26.51-1.61-49,19.33-50.48,45.83Z" transform="translate(0 31.56)"/><path class="cls-8" d="M572,415.22s-37.91-102.85,10.52-106.91c0,0-40.11,8-34,65.94Z" transform="translate(0 31.56)"/><path class="cls-8" d="M566.85,416.35s17.44-82.08,49.56-90.52c0,0-34.62-11.66-53.52,43.48Z" transform="translate(0 31.56)"/><path class="cls-8" d="M544.71,439S497,392.09,468,426.78c0,0,17.25-63.16,58.08-27.5Z" transform="translate(0 31.56)"/><path class="cls-8" d="M540.5,437.5s42.22-56.87,71.6-42.05c0,0-7.38-9.91-24.09-10.93-24.64-1.49-45.58,18-46.94,42.63Z" transform="translate(0 31.56)"/><path class="cls-8" d="M545.31,436.45S510.06,340.81,555.1,337c0,0-37.3,7.42-31.59,61.32Z" transform="translate(0 31.56)"/><path class="cls-8" d="M540.5,437.5s16.22-76.32,46.1-84.17c0,0-32.2-10.84-49.78,40.43Z" transform="translate(0 31.56)"/><rect class="cls-12" x="410.89" y="-16.46" width="57.04" height="455.84" transform="translate(0.95 456.46) rotate(-51.65)"/><rect class="cls-12" x="470.74" y="-44.84" width="29.65" height="416.56" transform="translate(56.13 474.43) rotate(-51.65)"/><rect class="cls-12" x="519.97" y="-84.2" width="15.78" height="309.9" transform="translate(144.88 472.42) rotate(-51.65)"/><rect class="cls-12" x="605.19" y="160.46" width="21.97" height="102.78" transform="translate(67.75 595.24) rotate(-51.65)"/><rect class="cls-12" x="247.21" y="97.83" width="21.97" height="84.04" transform="translate(-11.67 287.15) rotate(-51.65)"/><rect class="cls-12" x="443.11" y="-33.54" width="51.7" height="244.75" transform="translate(108.35 433.08) rotate(-51.65)"/><rect class="cls-12" x="221.35" y="168.08" width="51.7" height="57.74" transform="translate(-60.63 300.2) rotate(-51.65)"/><path class="cls-13" d="M371.92,448.24s-6.38-38.07,5.81-51.24" transform="translate(0 31.56)"/><path class="cls-14" d="M357.73,471.11S427.15,355.69,523,378.65C523,378.65,340.92,303.56,357.73,471.11Z" transform="translate(0 31.56)"/><path class="cls-15" d="M508.33,376.17c-52.59-4-109.1,24-151.7,94.94" transform="translate(0 31.56)"/><path class="cls-13" d="M396,420.68s-1.24-28.07,10.47-39.77" transform="translate(0 31.56)"/><path class="cls-13" d="M429.87,394.87s-.95-17.86,19.53-26.15" transform="translate(0 31.56)"/><path class="cls-13" d="M464,380.91s5.41-11.21,17.6-9.26" transform="translate(0 31.56)"/><path class="cls-16" d="M370.41,511s69.42-115.43,165.31-92.46C535.72,418.53,353.6,343.43,370.41,511Z" transform="translate(0 31.56)"/><path class="cls-15" d="M521,416.05c-52.6-4-109.11,24-151.7,94.94" transform="translate(0 31.56)"/><path class="cls-13" d="M408.71,460.55s-1.24-28.06,10.46-39.76" transform="translate(0 31.56)"/><path class="cls-13" d="M442.55,434.75s-.95-17.86,19.53-26.15" transform="translate(0 31.56)"/><path class="cls-13" d="M476.65,420.79s5.42-11.21,17.6-9.26" transform="translate(0 31.56)"/><path class="cls-17" d="M310.6,403.43S184,369,226.84,202.57C226.84,202.57,374,285,310.6,403.43Z" transform="translate(0 31.56)"/><g class="cls-18"><line class="cls-19" x1="226.84" y1="234.13" x2="310.6" y2="435"/><line class="cls-20" x1="274.36" y1="400.78" x2="303.01" y2="416.8"/><line class="cls-20" x1="308.99" y1="394.93" x2="308.32" y2="429.54"/><line class="cls-20" x1="261.61" y1="370.48" x2="290.25" y2="386.5"/><line class="cls-20" x1="296.23" y1="364.63" x2="295.56" y2="399.24"/><line class="cls-20" x1="249.63" y1="342.4" x2="278.28" y2="358.42"/><line class="cls-20" x1="284.25" y1="336.54" x2="283.59" y2="371.15"/><line class="cls-20" x1="238.47" y1="313.69" x2="267.11" y2="329.71"/><line class="cls-20" x1="273.09" y1="307.84" x2="272.42" y2="342.45"/><line class="cls-20" x1="228.9" y1="291.37" x2="257.54" y2="307.39"/><line class="cls-20" x1="263.52" y1="285.51" x2="262.86" y2="320.12"/><line class="cls-20" x1="219.33" y1="267.45" x2="247.98" y2="283.47"/><line class="cls-20" x1="253.96" y1="261.59" x2="253.29" y2="296.2"/></g><g id="smallleafes"><path class="cls-21" d="M416.76,255.42c-49.67,53.1-62.8,121.37-29.37,152.65" transform="translate(0 31.56)"/><path class="cls-17" d="M402.07,272.94s10.09-12.43,21.39-4.85a3.72,3.72,0,0,1,1.68,3.42C424.85,274.24,421.21,277.57,402.07,272.94Z" transform="translate(0 31.56)"/><path class="cls-17" d="M391.2,289.29s8.31-13.68,20.53-7.71a3.7,3.7,0,0,1,2.13,3.16C413.94,287.48,410.79,291.27,391.2,289.29Z" transform="translate(0 31.56)"/><path class="cls-17" d="M381.89,308.51s8.88-14.62,21.78-7C403.67,301.47,411.28,311.49,381.89,308.51Z" transform="translate(0 31.56)"/><path class="cls-17" d="M374.2,328.87s6.94-15.63,20.7-9.76C394.9,319.11,403.73,328.07,374.2,328.87Z" transform="translate(0 31.56)"/><path class="cls-17" d="M369.6,351s3.83-16.66,18.46-13.53C388.06,337.44,398.44,344.56,369.6,351Z" transform="translate(0 31.56)"/><path class="cls-17" d="M370.22,369.53s3.53-16.73,18.21-13.86C388.43,355.67,398.94,362.6,370.22,369.53Z" transform="translate(0 31.56)"/><path class="cls-17" d="M376.54,392.37s-3.92-16.64,10.6-20.28C387.14,372.09,399.59,373.89,376.54,392.37Z" transform="translate(0 31.56)"/><path class="cls-17" d="M390.65,288.36s6.3-15.89-7.52-21.61C383.13,266.75,370.54,266.72,390.65,288.36Z" transform="translate(0 31.56)"/><path class="cls-17" d="M382.4,306s6.52-15.81-7.22-21.72C375.18,284.26,362.59,284.07,382.4,306Z" transform="translate(0 31.56)"/><path class="cls-17" d="M375.05,322.66s4.05-16.61-10.43-20.37C364.62,302.29,352.15,304,375.05,322.66Z" transform="translate(0 31.56)"/><path class="cls-17" d="M369.13,362.61s-1.75-17-16.65-15.7C352.48,346.91,341.3,352.7,369.13,362.61Z" transform="translate(0 31.56)"/><path class="cls-17" d="M370.32,340.44s1-17.08-13.95-18.14C356.37,322.3,344.42,326.24,370.32,340.44Z" transform="translate(0 31.56)"/><path class="cls-17" d="M372.35,384.49s-4.52-16.49-19-12.75C353.34,371.74,343.27,379.29,372.35,384.49Z" transform="translate(0 31.56)"/><path class="cls-17" d="M401,274.19s8.55-13.53-2.24-21.81a3.71,3.71,0,0,0-3.78-.5C392.47,253,390.48,257.54,401,274.19Z" transform="translate(0 31.56)"/><path class="cls-17" d="M416.28,256.4s-1-15.61,12.28-17.4a3,3,0,0,1,2.15.47C432.86,241,435.75,245.58,416.28,256.4Z" transform="translate(0 31.56)"/></g><path class="cls-22" d="M444.11,316.55l13.76.28,4.05-4.45a10.25,10.25,0,0,1,11.26-2.64l9.24,3.59,14.29-10.75a4.21,4.21,0,0,1,4.16-.52l.7.29a4.21,4.21,0,0,1,2.44,5c-1.86,6.63-6.56,20.43-14.36,24.49,0,0-7.92,10.59-21.52,7.57l-25-4.56Z" transform="translate(0 31.56)"/><path class="cls-23" d="M302.84,451.24l23,127.47c-26.63,33.92-32.34,123.11-32.34,123.11l1.87.54L327,711.42l35.83-85.75a65.21,65.21,0,0,0,14-37.8l11.75-73.73.24.39,22.6,39.39c-20.49,17.73-64.55,113.13-64.55,113.13l2.78,3.39,20.48,24.92,95.17-114.2c10.49-15.51-3.09-53.42-3.09-53.42-1.55-22.12-48.05-122.38-48.05-122.38L320.19,390.3l-.75-.12C291,406.55,302.84,451.24,302.84,451.24Z" transform="translate(0 31.56)"/><path class="cls-24" d="M346.79,667.05l2.78,3.39,69.67-118.16-34.19-59.9-5.17-11.65,8.86,33.8,22.6,39.39C390.85,571.65,346.79,667.05,346.79,667.05Z" transform="translate(0 31.56)"/><path class="cls-24" d="M302.84,451.24l23,127.47c-26.63,33.92-32.34,123.11-32.34,123.11l1.87.54,31.81-106.15c9.57-13.55,2-36.6,2-36.6L311.61,444.23c-7.39-24.52.12-42.53,8.58-53.93l-.75-.12C291,406.55,302.84,451.24,302.84,451.24Z" transform="translate(0 31.56)"/><polygon class="cls-22" points="355.61 201.99 352.31 228.66 357.45 243.97 329.03 243.25 309.81 223.05 307.33 213.74 318.28 204.23 324.05 201.55 327.43 181.31 355.61 201.99"/><path class="cls-25" d="M354.7,178.17c-10.55-5.94-12.29-4.62-22.83-11.41,3.44,10.76,20.7,40,20.7,40C352.72,200.58,353.93,178.54,354.7,178.17Z" transform="translate(0 31.56)"/><path class="cls-26" d="M324.46,162.94s20.92,26.51,29,27.25l-.47,20s-10.43-2.4-18.24-7.87c0,0-17.73-14.57-17.49-19.15S310.94,172.75,324.46,162.94Z" transform="translate(0 31.56)"/><path id="finger1" class="cls-22" d="M428.72,296.67,443.27,290s2.28-6.87,15.84-14.26a2.13,2.13,0,0,1,.89-.26l19.88-1.36a2.34,2.34,0,0,1,1.55.47l10.85,8.25a3.8,3.8,0,0,1,1.43,2.3h0a2.53,2.53,0,0,1-3.52,2.8L478.9,282.8a2.29,2.29,0,0,0-1.39-.16l-8.3,1.66a1,1,0,0,0-.74,1.1c.34,1.75,1.53,5.29,5.63,4.47,0,0,5.4-3.38,6.2,3,0,0,3.3,9.71-4.24,13.81a2.34,2.34,0,0,1-.9.26l-17,1.58-18,1.27-5.3,1.53Z" transform="translate(0 31.56)"/><path class="cls-27" d="M279.67,276.05c11,34.1,35.68,62.05,35.68,62.05l-3.05,56.74c.9,1.59,2.94,3.06,5.89,4.38,23.25,10.56,101.93,13.35,101.93,13.35,5.93-7.49-9.17-76.68-9.17-76.68l36.61,2,1.13-21.06-12.81-.69,6.29-6.09-4.48-19-36.8,4.28c1.38-8.65-16.09-59.31-16.09-59.31-.77-5.79-13.7-24.48-22.68-36.91-4.88-6.75-8.6-11.65-8.6-11.65L353,210.21c-28.13-3.2-36.35-41-36.35-41-4.4,1.89-8.67,5.74-12.56,10.25-1,1.15-1.93,2.32-2.85,3.53a142.65,142.65,0,0,0-14.14,23.64C265.48,226.12,279.67,276.05,279.67,276.05Z" transform="translate(0 31.56)"/><path class="cls-24" d="M279.09,276.43c11,34.1,35.68,62.05,35.68,62.05l-3,56.74c.89,1.59,2.94,3.06,5.89,4.38l3-56.25c-38.55-62.81-31.82-102.27-31.82-102.27-1.57-18.16,5.86-42,11.83-57.67a141.85,141.85,0,0,0-14.15,23.64C264.9,226.5,279.09,276.43,279.09,276.43Z" transform="translate(0 31.56)"/><path class="cls-28" d="M304.06,179.49,318,198.21A39.44,39.44,0,0,0,334.19,211l23.15,9.89L362.12,199c-4.88-6.75-8.6-11.65-8.6-11.65L353,210.21c-27.35-9-36.35-41-36.35-41C312.22,171.13,308,175,304.06,179.49Z" transform="translate(0 31.56)"/><path class="cls-29" d="M377.15,691.16l-22.88-39.88-41.15,70s-20,21.87,6.5,24.21L391.27,753s1.13-12.33-24-23.78l-20.44-12.57Z" transform="translate(0 31.56)"/><path class="cls-29" d="M328,700.45l-35.71-10.18-8.41,45.45s-14,30.46,7.19,28.39c0,0,55.92,18.61,85.68,11.49,0,0,11.57-10.4-18.79-26.26l-32-19.62Z" transform="translate(0 31.56)"/><line class="cls-30" x1="524.42" y1="305.62" x2="472.61" y2="364.34"/><g class="cls-31"><path class="cls-32" d="M332.81,239.12c2.26,5.8,4.41,11.65,6.55,17.49s4.2,11.73,6.31,17.59,4.09,11.76,6.08,17.66l3,8.85c.95,3,1.94,5.92,2.86,8.9-1.14-2.9-2.22-5.82-3.33-8.73L351,292.11c-2.14-5.85-4.2-11.72-6.31-17.58s-4.09-11.76-6.08-17.66S334.68,245.06,332.81,239.12Z" transform="translate(0 31.56)"/></g><g class="cls-31"><path class="cls-32" d="M409.34,553.58c2.09-.09,4.18-.08,6.27,0s4.18.12,6.27.22,4.17.24,6.25.45l3.12.3c1,.14,2.07.25,3.11.42-1.05.05-2.09.05-3.14.07l-3.14,0c-2.09,0-4.17-.13-6.26-.23s-4.17-.25-6.25-.45S411.41,553.9,409.34,553.58Z" transform="translate(0 31.56)"/></g><g class="cls-31"><path class="cls-32" d="M324.39,579.09c2.1-.1,4.19-.08,6.28-.05s4.17.12,6.26.22,4.17.25,6.25.45l3.12.31c1,.14,2.08.24,3.12.41-1.05.06-2.1.05-3.15.08l-3.13,0c-2.09,0-4.18-.12-6.26-.22s-4.17-.25-6.25-.45S326.47,579.4,324.39,579.09Z" transform="translate(0 31.56)"/></g><g class="cls-31"><path class="cls-32" d="M357.58,309.61c3.55-1.4,7.12-2.68,10.71-4s7.19-2.46,10.79-3.69,7.23-2.36,10.86-3.48l5.46-1.66c1.83-.52,3.65-1.07,5.49-1.57-1.77.71-3.56,1.35-5.34,2l-5.37,1.93c-3.58,1.27-7.19,2.46-10.79,3.69s-7.23,2.36-10.86,3.48S361.26,308.61,357.58,309.61Z" transform="translate(0 31.56)"/></g><g class="cls-31"><path class="cls-32" d="M435.23,314.05a87.11,87.11,0,0,1-5.41-17.8,87.62,87.62,0,0,1,5.41,17.8Z" transform="translate(0 31.56)"/></g><g class="cls-31"><path class="cls-32" d="M439.7,336.2a86.52,86.52,0,0,1,1.76-18.53,76,76,0,0,1-.39,9.31A78,78,0,0,1,439.7,336.2Z" transform="translate(0 31.56)"/></g><g class="cls-31"><path class="cls-32" d="M417.42,403.24c-8.72.71-17.47.94-26.22.93s-17.5-.41-26.23-1.12a201.75,201.75,0,0,1-26-3.88c-8.5-2-17-4.59-24.47-9.26a63.59,63.59,0,0,0,12,5.16,117,117,0,0,0,12.64,3.35c4.27.86,8.57,1.61,12.89,2.21s8.66,1.05,13,1.43c8.69.79,17.42,1.16,26.15,1.34q6.54.15,13.1.09T417.42,403.24Z" transform="translate(0 31.56)"/></g><g class="cls-31"><path class="cls-32" d="M416.5,420.26c-8.71.7-17.47.94-26.22.92s-17.5-.4-26.23-1.11a205.15,205.15,0,0,1-26-3.88c-8.5-2-17-4.6-24.48-9.27a63.72,63.72,0,0,0,12,5.17,117.42,117.42,0,0,0,12.63,3.35c4.28.85,8.57,1.61,12.89,2.21s8.66,1,13,1.42c8.69.79,17.42,1.17,26.15,1.35,4.37.1,8.74.12,13.11.09S412.13,420.41,416.5,420.26Z" transform="translate(0 31.56)"/></g><g class="cls-31"><path class="cls-32" d="M321.2,343a43.14,43.14,0,0,0,11.1,6.26A41.28,41.28,0,0,0,344.68,352a39.39,39.39,0,0,0,12.56-1.31,46,46,0,0,0,11.6-5.05h.05l15.69-7,15.71-7c10.5-4.6,21-9.2,31.55-13.67-10.37,4.89-20.79,9.65-31.21,14.42L385,339.43l-15.69,7,.06,0a47.53,47.53,0,0,1-11.87,5.07,38.1,38.1,0,0,1-12.84,1.17,40.33,40.33,0,0,1-12.49-3.05A41.23,41.23,0,0,1,321.2,343Z" transform="translate(0 31.56)"/></g><g class="cls-31"><path class="cls-32" d="M369.16,421.33c1.06,4.25,2,8.52,3,12.79s1.79,8.57,2.69,12.85,1.69,8.59,2.47,12.89l1.15,6.47c.35,2.16.74,4.31,1.05,6.48-.54-2.12-1-4.26-1.53-6.39L376.53,460c-.94-4.27-1.8-8.56-2.7-12.84s-1.68-8.59-2.46-12.89S369.82,425.66,369.16,421.33Z" transform="translate(0 31.56)"/></g><g class="cls-31"><path class="cls-32" d="M381.75,486c.45,3.68.8,7.37,1.12,11.06s.6,7.38.86,11.07.47,7.39.63,11.09l.23,5.56c0,1.85.12,3.7.13,5.55-.24-1.84-.41-3.68-.62-5.52l-.51-5.53c-.34-3.69-.6-7.39-.86-11.08s-.47-7.39-.62-11.09S381.79,489.72,381.75,486Z" transform="translate(0 31.56)"/></g><g id="manhead"><path class="cls-22" d="M383.19,121l-3.9,37.44a22.49,22.49,0,0,1-14.45,19c-5.92,2.12-13.57,1.91-22.54-4.78,0,0-15.26-6.35-15.95-22l.72-13.42s-15.28-6,5.92-19C333,118.26,362.91,88.35,383.19,121Z" transform="translate(0 31.56)"/><path class="cls-33" d="M382.8,128.28s25-1.41,1.32-24.71c0,0-2.89-17.6-40.09-8.58,0,0-18.44-5.14-20.84,8.74l-3.14,23.35a8.12,8.12,0,0,0,.14,3L325.93,155l1,0,.14-17.71L326,128.59s8.75-2.51,11.18-13.89a15.3,15.3,0,0,1,3.72,1.56,16.15,16.15,0,0,0,10.48,2.08c8.71-1.1,21.48-1.62,24.53,4.06Z" transform="translate(0 31.56)"/><ellipse class="cls-34" cx="376.03" cy="153.66" rx="3.18" ry="2.45" transform="translate(148.83 521.96) rotate(-78.22)"/><ellipse class="cls-34" cx="361.66" cy="150.66" rx="2.89" ry="2.23" transform="translate(140.33 505.5) rotate(-78.22)"/><path class="cls-35" d="M367.44,155.71l1.71-.53a2.33,2.33,0,0,0,.85-1.89l-.89-6.69" transform="translate(0 31.56)"/><path id="msmile" class="cls-35" d="M362.65,161.2s.35,6,4.3,5.63c2,.12,4-1.82,4.55-4.37" transform="translate(0 31.56)"/><ellipse class="cls-36" cx="378.55" cy="140.48" rx="1.73" ry="1.34" transform="translate(163.73 513.94) rotate(-78.22)"/><ellipse class="cls-36" cx="363.36" cy="139.2" rx="1.73" ry="1.34" transform="translate(152.9 498.05) rotate(-78.22)"/><ellipse class="cls-22" cx="328.57" cy="128.49" rx="7.45" ry="4.16" transform="translate(182.62 481.26) rotate(-86.92)"/></g></g><circle class="cls-1" cx="439.84" cy="253.56" r="221.5"/><path id="darkleaf" class="cls-2" d="M304.29,385.75s-26-6.92-37.58,2.3a4.11,4.11,0,0,1-2,.83c-5.19.8-24.53,2.74-23.68-13.07a3.26,3.26,0,0,1,1.26-2.41c4.14-3.25,17.74-14.7,4.28-15,0,0-37.51,5.57-46.17-1.18,0,0-16.41-13.61,4.1-26.28,0,0,16.22-10.3-3-13,0,0-64.12-1.25-52.19-42.3,0,0,16.29-28.26,55.28,18.91,0,0,12.28,10,11.39-4.63,0,0-6.49-26.35,9.24-14.5,0,0,9.39,11.37,8.46,25.52a21.2,21.2,0,0,0,2.51,11.41c1.78,3.29,4.23,6.82,7.14,8.36a5.34,5.34,0,0,0,7.52-3.4c1.8-6.37,6.71-20.16,13-8.47a14.15,14.15,0,0,1,1.6,8.05c-.53,5.56-.95,16.54,2.94,23.29,1.4,2.42,2,5.28,3.59,7.56,2.36,3.32,3.73,6.08,8.9,1.32,0,0,3.37-30.33,15.44-21.72a5.5,5.5,0,0,0,2,.9c2,.43,5.7,4.16,3.38,16.17a50.8,50.8,0,0,0-.61,15.8Z" transform="translate(0 31.56)"/><path id="lightleaf" class="cls-37" d="M312.31,396.08s-19.1,2.1-26.24,10.95a15.26,15.26,0,0,1-5.57,4.46,27.31,27.31,0,0,1-6.58,2.09c-7.09,1.17-12.38-6.33-9.25-12.79,2.35-4.86,4.29-11.18-3.3-8.44,0,0-26.36,15-34.77,12.47,0,0-16.18-5.41-4.54-20.79,0,0,9.12-12.36-6-8.81,0,0-46.23,16.88-50.91-14.44a8.55,8.55,0,0,1,.5-4.48c2.36-5.82,11.7-18.59,46,.58,0,0,12,3.9,7.15-6.75,0,0-12.45-17.77,2.71-13.48,0,0,10.28,5.76,13.68,16.56a13.24,13.24,0,0,0,3.84,6c.83.71,1.61,1.42,2.08,1.88a8.54,8.54,0,0,0,14.53-5.23c.4-4.26-.12-9.16,4.15-5.64a11.58,11.58,0,0,1,3.7,5.79,49.34,49.34,0,0,0,9.25,16.71c1.26,1.5,3,2.53,4.26,4s3.37,3.1,5.39,1.36a4.73,4.73,0,0,0,1.44-4.57c-1.12-5.38-3.39-20.95,5.65-19.07a12.08,12.08,0,0,0,2.08.27c1.72.07,5.67,1.57,7.26,13.29a21.4,21.4,0,0,0,2.38,7.29Z" transform="translate(0 31.56)"/><g id="sideleaf"><path class="cls-14" d="M430.07,442.2s96.35,7.26,112.56,76.12C542.63,518.32,532,377.39,430.07,442.2Z" transform="translate(0 31.56)"/><path class="cls-15" d="M539.48,508.09c-14.38-35-50.58-62.17-109.76-66.6" transform="translate(0 31.56)"/><path class="cls-13" d="M474.74,450.48s17.58-9.85,28.86-6.12" transform="translate(0 31.56)"/><path class="cls-13" d="M502.19,463.84s11.14-6.37,23.05,4.08" transform="translate(0 31.56)"/><path class="cls-13" d="M522.13,481.19s8.93-.14,11.61,8.3" transform="translate(0 31.56)"/></g><g id="clock"><circle class="cls-38" cx="261.82" cy="151.16" r="39.36"/><g id="thinline"><rect class="cls-37" x="263.45" y="120.22" width="1.15" height="31.5"/></g><g id="thickline"><rect class="cls-37" x="263.51" y="149.36" width="22.77" height="2.37"/></g><path class="cls-38" d="M210.72,132.92l-.88.31c-.07-.19-6.79-19.82,2.22-36.61,5.56-10.37,15.85-17.52,30.58-21.26l.23.92c-14.46,3.66-24.55,10.66-30,20.78C204.07,113.49,210.66,132.73,210.72,132.92Z" transform="translate(0 31.56)"/></g><g id="calendar"><path class="cls-2" d="M522.23,245.67l19.66-31.86A50.15,50.15,0,0,1,532.2,184,50.57,50.57,0,1,1,564,231Zm60.59-110.9a49.26,49.26,0,0,0-39.5,78.71l.35.47-16.55,27.44,37.06-11.74.17.07a49.27,49.27,0,1,0,18.47-94.95Z" transform="translate(0 31.56)"/><path class="cls-2" d="M603.46,218.91H563.14a13.09,13.09,0,0,1-13.08-13.08V165.51a13.1,13.1,0,0,1,13.08-13.09h40.32a13.1,13.1,0,0,1,13.09,13.09v40.32A13.09,13.09,0,0,1,603.46,218.91Zm-40.32-65.13a11.74,11.74,0,0,0-11.73,11.73v40.32a11.74,11.74,0,0,0,11.73,11.73h40.32a11.74,11.74,0,0,0,11.73-11.73V165.51a11.74,11.74,0,0,0-11.73-11.73Z" transform="translate(0 31.56)"/><path class="cls-39" d="M559.9,184.67H606.7a9.17,9.17,0,0,1,9.17,9.17V204a0,0,0,0,1,0,0H550.73a0,0,0,0,1,0,0V193.84A9.17,9.17,0,0,1,559.9,184.67Z"/><path class="cls-40" d="M567.72,187.58v-7.21a6.41,6.41,0,0,1-2.71,1.54.82.82,0,0,1-.59-.26.89.89,0,0,1-.26-.62.68.68,0,0,1,.26-.59,5.18,5.18,0,0,1,.89-.49,6.94,6.94,0,0,0,1.54-1,6.26,6.26,0,0,0,1-1.11c.3-.41.49-.67.58-.76A.67.67,0,0,1,569,177a.8.8,0,0,1,.67.33,1.41,1.41,0,0,1,.26.89v9.08c0,1.06-.36,1.59-1.09,1.59a1,1,0,0,1-.78-.32A1.43,1.43,0,0,1,567.72,187.58Z" transform="translate(0 31.56)"/><path class="cls-40" d="M576.41,186.79h4.14a1.5,1.5,0,0,1,.94.26.82.82,0,0,1,.32.69.92.92,0,0,1-.25.66,1.1,1.1,0,0,1-.78.26h-5.84a1.33,1.33,0,0,1-.93-.32,1.07,1.07,0,0,1-.33-.78,1.83,1.83,0,0,1,.22-.75,2.61,2.61,0,0,1,.46-.75c.71-.72,1.34-1.35,1.91-1.87a13.55,13.55,0,0,1,1.21-1,6.82,6.82,0,0,0,1.08-.92,3.71,3.71,0,0,0,.66-1,2.27,2.27,0,0,0,.22-1,1.71,1.71,0,0,0-.24-.9,1.67,1.67,0,0,0-.66-.63,2,2,0,0,0-.9-.22,1.88,1.88,0,0,0-1.64.91,4.23,4.23,0,0,0-.26.65,3,3,0,0,1-.42.82.94.94,0,0,1-1.34,0,.93.93,0,0,1-.27-.71,3.09,3.09,0,0,1,.25-1.14,3.23,3.23,0,0,1,.73-1.08,3.75,3.75,0,0,1,1.24-.78,4.68,4.68,0,0,1,1.75-.3,5.14,5.14,0,0,1,2.07.38,3.25,3.25,0,0,1,1,.7,3.36,3.36,0,0,1,.89,2.24,3.4,3.4,0,0,1-.49,1.78,5.48,5.48,0,0,1-1,1.26c-.33.31-.9.79-1.7,1.43a12.41,12.41,0,0,0-1.63,1.52A3.77,3.77,0,0,0,576.41,186.79Z" transform="translate(0 31.56)"/><polygon id="rightmark" class="cls-39" points="586.73 241.2 569.67 225.45 571.5 223.47 586.7 237.5 623 203.01 624.87 204.97 586.73 241.2"/><circle class="cls-40" cx="587.33" cy="195.61" r="2.64"/><circle class="cls-40" cx="594.86" cy="195.61" r="2.64"/><circle class="cls-40" cx="602.38" cy="195.61" r="2.64"/><path class="cls-2" d="M522.86,177.12l-1.33-.28c.07-.3,6.5-29.47,30.15-43.38,14.61-8.59,32.62-9.68,53.53-3.25l-.39,1.3c-20.54-6.32-38.18-5.27-52.45,3.12C529.22,148.24,522.92,176.83,522.86,177.12Z" transform="translate(0 31.56)"/></g></g><g id="New-Booking"><polygon class="cls-41" points="701.29 415.61 701.29 340.65 522.23 340.65 522.23 415.61 678.45 415.61 684.37 425.88 690.3 436.14 696.23 425.88 702.16 415.61 701.29 415.61"/><polygon class="cls-42" points="650.4 415.61 700.38 415.61 700.38 340.65 698.02 340.65 650.4 415.61"/><path class="cls-26" d="M541,334.37a1.2,1.2,0,0,1,.32.3l9.36,12.15a5.46,5.46,0,0,1,0-.57c0-.18,0-.36,0-.53V334.3h1.92v16.12h-1.1a1,1,0,0,1-.44-.09,1.15,1.15,0,0,1-.34-.3l-9.35-12.14,0,.55c0,.18,0,.35,0,.5v11.48h-1.91V334.3h1.12A1.18,1.18,0,0,1,541,334.37Z" transform="translate(0 31.56)"/><path class="cls-26" d="M560.71,338.85a5.08,5.08,0,0,1,1.89.34,4.27,4.27,0,0,1,1.5,1,4.52,4.52,0,0,1,1,1.6,6.27,6.27,0,0,1,.35,2.16,1.25,1.25,0,0,1-.1.63.41.41,0,0,1-.38.16h-7.6a6.19,6.19,0,0,0,.29,1.88,4,4,0,0,0,.74,1.33,3.08,3.08,0,0,0,1.13.8A4,4,0,0,0,561,349a4.18,4.18,0,0,0,1.3-.17,5.72,5.72,0,0,0,.94-.38,6,6,0,0,0,.66-.37.87.87,0,0,1,.46-.18.44.44,0,0,1,.38.19l.57.73a3.93,3.93,0,0,1-.89.78,5.07,5.07,0,0,1-1.12.55,7.05,7.05,0,0,1-1.22.32,7.64,7.64,0,0,1-1.25.11,5.91,5.91,0,0,1-2.18-.4,4.91,4.91,0,0,1-1.73-1.17,5.38,5.38,0,0,1-1.13-1.91,7.73,7.73,0,0,1-.41-2.61,6.47,6.47,0,0,1,.37-2.22,5.21,5.21,0,0,1,1-1.8,5,5,0,0,1,1.68-1.19A5.53,5.53,0,0,1,560.71,338.85Zm0,1.47a3.09,3.09,0,0,0-2.29.84,4,4,0,0,0-1,2.32h6.22a4.35,4.35,0,0,0-.19-1.28,2.9,2.9,0,0,0-.57-1,2.49,2.49,0,0,0-.91-.65A3.09,3.09,0,0,0,560.75,340.32Z" transform="translate(0 31.56)"/><path class="cls-26" d="M566.51,339h1.58a.66.66,0,0,1,.41.12.59.59,0,0,1,.21.29l2.19,7.34c.06.27.12.53.17.78s.1.5.14.76c.06-.26.12-.51.2-.76s.15-.51.24-.78l2.41-7.38a.52.52,0,0,1,.2-.28.51.51,0,0,1,.35-.12h.87a.57.57,0,0,1,.37.12.54.54,0,0,1,.21.28l2.35,7.38c.09.26.16.52.22.77s.13.51.19.76q.06-.37.15-.78c.06-.27.12-.52.19-.75l2.23-7.34a.63.63,0,0,1,.21-.3A.68.68,0,0,1,582,339h1.51l-3.7,11.39H578.2c-.2,0-.33-.13-.41-.38l-2.52-7.73a5.08,5.08,0,0,1-.15-.52c0-.18-.08-.35-.11-.53l-.12.53a3.18,3.18,0,0,1-.14.53L572.19,350a.48.48,0,0,1-.47.38h-1.51Z" transform="translate(0 31.56)"/><path class="cls-26" d="M590,350.42V334.3h5.15a10.11,10.11,0,0,1,2.57.29,5,5,0,0,1,1.77.84,3.3,3.3,0,0,1,1,1.32,4.49,4.49,0,0,1,.33,1.76,3.46,3.46,0,0,1-.75,2.17,3.89,3.89,0,0,1-.95.84,5.26,5.26,0,0,1-1.33.61,5,5,0,0,1,2.67,1.27,3.35,3.35,0,0,1,.9,2.43,4.4,4.4,0,0,1-.38,1.87,4.08,4.08,0,0,1-1.1,1.45,5.29,5.29,0,0,1-1.78.94,8.12,8.12,0,0,1-2.41.33Zm2.19-8.9H595a5.47,5.47,0,0,0,1.6-.2,3.18,3.18,0,0,0,1.12-.56,2.15,2.15,0,0,0,.66-.87,2.94,2.94,0,0,0,.21-1.12,2.46,2.46,0,0,0-.85-2.08,4.3,4.3,0,0,0-2.67-.67h-3Zm0,1.56v5.61h3.49a5.09,5.09,0,0,0,1.61-.22,3,3,0,0,0,1.11-.6A2.23,2.23,0,0,0,599,347a3.22,3.22,0,0,0,.21-1.18,2.41,2.41,0,0,0-.89-2,4.18,4.18,0,0,0-2.68-.72Z" transform="translate(0 31.56)"/><path class="cls-26" d="M608.85,338.85a5.8,5.8,0,0,1,2.26.41,4.76,4.76,0,0,1,1.72,1.18,5.22,5.22,0,0,1,1.08,1.85,7.46,7.46,0,0,1,.38,2.43,7.38,7.38,0,0,1-.38,2.43,5.18,5.18,0,0,1-1.08,1.84,4.76,4.76,0,0,1-1.72,1.18,6.43,6.43,0,0,1-4.52,0,4.85,4.85,0,0,1-1.72-1.18,5.2,5.2,0,0,1-1.09-1.84,7.12,7.12,0,0,1-.39-2.43,7.2,7.2,0,0,1,.39-2.43,5.24,5.24,0,0,1,1.09-1.85,4.85,4.85,0,0,1,1.72-1.18A5.83,5.83,0,0,1,608.85,338.85Zm0,10.16a2.93,2.93,0,0,0,2.53-1.13,6.43,6.43,0,0,0,0-6.32,2.93,2.93,0,0,0-2.53-1.14,3.63,3.63,0,0,0-1.49.29,2.8,2.8,0,0,0-1.05.85,3.75,3.75,0,0,0-.63,1.35,7.22,7.22,0,0,0-.21,1.82,7.14,7.14,0,0,0,.21,1.81,3.7,3.7,0,0,0,.63,1.34,2.69,2.69,0,0,0,1.05.84A3.48,3.48,0,0,0,608.85,349Z" transform="translate(0 31.56)"/><path class="cls-26" d="M621.39,338.85a5.88,5.88,0,0,1,2.27.41,4.81,4.81,0,0,1,1.71,1.18,5.22,5.22,0,0,1,1.08,1.85,7.46,7.46,0,0,1,.38,2.43,7.38,7.38,0,0,1-.38,2.43,5.18,5.18,0,0,1-1.08,1.84,4.81,4.81,0,0,1-1.71,1.18,6.46,6.46,0,0,1-4.53,0,4.94,4.94,0,0,1-1.72-1.18,5.2,5.2,0,0,1-1.09-1.84,7.12,7.12,0,0,1-.38-2.43,7.2,7.2,0,0,1,.38-2.43,5.24,5.24,0,0,1,1.09-1.85,4.94,4.94,0,0,1,1.72-1.18A5.87,5.87,0,0,1,621.39,338.85Zm0,10.16a2.93,2.93,0,0,0,2.53-1.13,6.43,6.43,0,0,0,0-6.32,2.93,2.93,0,0,0-2.53-1.14,3.55,3.55,0,0,0-1.48.29,2.76,2.76,0,0,0-1.06.85,3.75,3.75,0,0,0-.63,1.35,7.22,7.22,0,0,0-.21,1.82,7.14,7.14,0,0,0,.21,1.81,3.7,3.7,0,0,0,.63,1.34,2.65,2.65,0,0,0,1.06.84A3.4,3.4,0,0,0,621.39,349Z" transform="translate(0 31.56)"/><path class="cls-26" d="M631.4,333.85v9.75h.52a1,1,0,0,0,.37-.06,1,1,0,0,0,.33-.25l3.6-3.86a2.11,2.11,0,0,1,.34-.29A.79.79,0,0,1,637,339h1.83l-4.21,4.46a2.56,2.56,0,0,1-.31.34,1.8,1.8,0,0,1-.34.26,1.85,1.85,0,0,1,.37.31,2.64,2.64,0,0,1,.31.4l4.46,5.62h-1.8a.77.77,0,0,1-.42-.1,1.12,1.12,0,0,1-.34-.29l-3.75-4.67a.94.94,0,0,0-.34-.31A1.32,1.32,0,0,0,632,345h-.56v5.44h-2V333.85Z" transform="translate(0 31.56)"/><path class="cls-26" d="M643.81,335.45a1.37,1.37,0,0,1-.11.54,1.6,1.6,0,0,1-.32.45,1.21,1.21,0,0,1-.46.31,1.39,1.39,0,0,1-1.55-.31,1.57,1.57,0,0,1-.31-.45,1.37,1.37,0,0,1-.11-.54,1.51,1.51,0,0,1,.11-.56,1.62,1.62,0,0,1,.31-.46,1.57,1.57,0,0,1,.45-.31,1.43,1.43,0,0,1,1.1,0,1.49,1.49,0,0,1,.46.31,1.65,1.65,0,0,1,.32.46A1.51,1.51,0,0,1,643.81,335.45Zm-.45,3.58v11.39h-2V339Z" transform="translate(0 31.56)"/><path class="cls-26" d="M646.9,350.42V339h1.2a.5.5,0,0,1,.54.41l.16,1.24a6.36,6.36,0,0,1,1.66-1.33,4.33,4.33,0,0,1,2.13-.5,4.08,4.08,0,0,1,1.65.31,3.1,3.1,0,0,1,1.2.87,3.81,3.81,0,0,1,.72,1.37,5.78,5.78,0,0,1,.25,1.77v7.25h-2v-7.25a3,3,0,0,0-.59-2,2.2,2.2,0,0,0-1.81-.72,3.42,3.42,0,0,0-1.66.43,5.53,5.53,0,0,0-1.43,1.16v8.39Z" transform="translate(0 31.56)"/><path class="cls-26" d="M663.29,338.83a5.57,5.57,0,0,1,1.39.17,4.3,4.3,0,0,1,1.18.48H669v.74c0,.25-.15.4-.47.47l-1.3.18a3.41,3.41,0,0,1,.39,1.63,3.52,3.52,0,0,1-.32,1.51,3.46,3.46,0,0,1-.9,1.17,4,4,0,0,1-1.35.74,5.54,5.54,0,0,1-1.72.26,5.68,5.68,0,0,1-1.51-.19,1.93,1.93,0,0,0-.55.5.93.93,0,0,0-.18.52.74.74,0,0,0,.32.64,2.33,2.33,0,0,0,.87.3,6.51,6.51,0,0,0,1.23.1h1.41a8.18,8.18,0,0,1,1.4.12,4.45,4.45,0,0,1,1.23.41,2.18,2.18,0,0,1,1.2,2.09,3.08,3.08,0,0,1-.37,1.43,4,4,0,0,1-1.06,1.24,5.42,5.42,0,0,1-1.68.86,7.08,7.08,0,0,1-2.24.33,8.94,8.94,0,0,1-2.2-.25,5.35,5.35,0,0,1-1.56-.67,2.83,2.83,0,0,1-.93-1,2.32,2.32,0,0,1-.31-1.14,2.08,2.08,0,0,1,.54-1.44,3.85,3.85,0,0,1,1.47-.94,2,2,0,0,1-.77-.6,1.61,1.61,0,0,1-.29-1,1.52,1.52,0,0,1,.09-.51,1.94,1.94,0,0,1,.28-.53,3,3,0,0,1,1.08-.91,3.53,3.53,0,0,1-1.32-1.25,3.42,3.42,0,0,1-.48-1.83,3.55,3.55,0,0,1,.32-1.51,3.4,3.4,0,0,1,.9-1.16,4.19,4.19,0,0,1,1.37-.74A5.67,5.67,0,0,1,663.29,338.83ZM666.86,351a1,1,0,0,0-.24-.7,1.54,1.54,0,0,0-.64-.41,5.47,5.47,0,0,0-.94-.21,8,8,0,0,0-1.12-.07h-1.19a4.34,4.34,0,0,1-1.16-.15,3.34,3.34,0,0,0-1.05.74,1.54,1.54,0,0,0-.4,1.05,1.42,1.42,0,0,0,.2.72,1.65,1.65,0,0,0,.6.57,3.45,3.45,0,0,0,1,.38,6.25,6.25,0,0,0,1.45.14,6.49,6.49,0,0,0,1.46-.15,3.76,3.76,0,0,0,1.09-.42,2.12,2.12,0,0,0,.68-.65A1.57,1.57,0,0,0,666.86,351Zm-3.57-6.15a3,3,0,0,0,1.08-.17,2.17,2.17,0,0,0,.78-.47,2,2,0,0,0,.48-.72,2.79,2.79,0,0,0,.15-.93,2.25,2.25,0,0,0-.63-1.67,2.59,2.59,0,0,0-1.86-.62,2.54,2.54,0,0,0-1.84.62,2.22,2.22,0,0,0-.64,1.67,2.56,2.56,0,0,0,.16.93,2,2,0,0,0,.48.72,2.17,2.17,0,0,0,.78.47A2.91,2.91,0,0,0,663.29,344.85Z" transform="translate(0 31.56)"/><path class="cls-26" d="M671.78,349.18a1.46,1.46,0,0,1,.11-.55,1.51,1.51,0,0,1,.29-.45,1.37,1.37,0,0,1,.45-.3,1.29,1.29,0,0,1,.55-.11,1.33,1.33,0,0,1,.56.11,1.37,1.37,0,0,1,.45.3,1.77,1.77,0,0,1,.3.45,1.45,1.45,0,0,1,.1.55,1.43,1.43,0,0,1-.1.56,1.55,1.55,0,0,1-.3.44,1.37,1.37,0,0,1-.45.3,1.51,1.51,0,0,1-.56.11,1.46,1.46,0,0,1-.55-.11,1.37,1.37,0,0,1-.45-.3,1.35,1.35,0,0,1-.29-.44A1.43,1.43,0,0,1,671.78,349.18Zm2.39-14.88v6.44c0,.33,0,.66,0,1s0,.64,0,1-.05.66-.09,1-.07.71-.12,1.1h-1.36c0-.39-.08-.76-.12-1.1s-.06-.68-.08-1,0-.65-.05-1,0-.66,0-1V334.3Z" transform="translate(0 31.56)"/></g><g id="Clock-2" data-name="Clock"><rect class="cls-43" x="820.55" y="309.03" width="106.29" height="106.29" rx="53.15"/><rect class="cls-44" x="822.99" y="311.02" width="101.43" height="101.43" rx="50.71"/><g id="thinline-2" data-name="thinline"><rect class="cls-2" x="873.92" y="333.57" width="1" height="28.95"/></g><g id="thickline-2" data-name="thickline"><rect class="cls-2" x="874.42" y="361.37" width="20.27" height="1.77"/></g><circle class="cls-2" cx="874.53" cy="362.51" r="2.1"/><circle class="cls-43" cx="872.95" cy="322.35" r="2.26"/><circle class="cls-43" cx="854.78" cy="328.48" r="2.26"/><circle class="cls-43" cx="841.14" cy="342.84" r="2.26"/><circle class="cls-43" cx="892.76" cy="327.06" r="2.26"/><circle class="cls-43" cx="908.18" cy="341.91" r="2.26"/><circle class="cls-43" cx="876.86" cy="397.87" r="2.26"/><circle class="cls-43" cx="911.73" cy="360.99" r="2.26"/><circle class="cls-43" cx="908.18" cy="378.04" r="2.26"/><circle class="cls-43" cx="896.09" cy="391.85" r="2.26"/><circle class="cls-43" cx="835.29" cy="360.99" r="2.26"/><circle class="cls-43" cx="841.14" cy="377.19" r="2.26"/><circle class="cls-43" cx="854.78" cy="391.85" r="2.26"/></g><g id="Women-Working"><g id="Chair"><path class="cls-45" d="M657.28,654.55v23.51l211.06,3.44c-3.42-80.15,24.76-197.68,24.76-197.68,11.13-36.47-7.19-40.15-12.86-40.42a11,11,0,0,0-1.59,0C853.91,441,831.94,449,831.94,449c-34.34,15.68-3.48,89.74-3.48,89.74,26.14,54.26-19.94,104-19.94,104-28,34.33-93.49,10.52-93.49,10.52Z" transform="translate(0 31.56)"/><path class="cls-46" d="M657.28,665.61v12.45l211.06,3.44c-3.42-80.15,24.76-197.68,24.76-197.68,11.13-36.47-7.19-40.15-12.86-40.42,2.79,1.51,5,3.37,6,5.63,0,0,11,11.31-2.73,31.35,0,0-22,116.57-21.32,139.14l-.69,46.09Z" transform="translate(0 31.56)"/><path class="cls-46" d="M866.81,681.5H847.9s-.69,70.3,9.45,85.91c0,0,8.77,61.65,25.27,83.46h6.19l-15.13-60.58S862.46,701.79,866.81,681.5Z" transform="translate(0 31.56)"/><path class="cls-46" d="M826.41,680.89h-18.9s-.69,70.91,9.45,86.64c0,0,8.77,62.19,25.27,84.18h6.18l-15.12-61.09S822.07,701.36,826.41,680.89Z" transform="translate(0 31.56)"/><path class="cls-46" d="M694,678.63h18.91s.69,71.85-9.46,87.79c0,0-8.76,63-25.26,85.29H672l15.13-61.9S698.31,699.37,694,678.63Z" transform="translate(0 31.56)"/><path class="cls-46" d="M657.68,678.06h18.91s.69,72.08-9.45,88.08c0,0-8.77,63.21-25.27,85.57h-6.19l15.13-62.1S662,698.87,657.68,678.06Z" transform="translate(0 31.56)"/></g><g id="Women"><g id="womanhead"><path class="cls-47" d="M778.09,380.72l6.28,3.67s-4.93,25.18,0,32.69l9.31,7.51L762.4,444h-20V429l7.5-6.26V399.56Z" transform="translate(0 31.56)"/><g id="womanhead-2" data-name="womanhead"><ellipse class="cls-47" cx="756.18" cy="370.79" rx="36.91" ry="28.19" transform="matrix(0.23, -0.97, 0.97, 0.23, 222.21, 1053.63)"/><circle class="cls-34" cx="737.55" cy="410.35" r="2.95"/><circle class="cls-34" cx="756.05" cy="413.03" r="2.68"/><path class="cls-35" d="M746.19,376.38l-2.69,5.89a1.79,1.79,0,0,0,.54,1.88l1.88.81" transform="translate(0 31.56)"/><path id="gsmile" class="cls-35" d="M739.48,390.32a4.9,4.9,0,0,0,4.29,4.82c4.56,1.08,6.44-4.29,6.44-4.29" transform="translate(0 31.56)"/><circle class="cls-36" cx="741.63" cy="399.63" r="1.61"/><circle class="cls-36" cx="756.85" cy="402.31" r="1.61"/><path class="cls-48" d="M789.12,370.79s-28,10-41.11-28.78l-6.83,6a11.3,11.3,0,0,0-3.7,6.53,54.35,54.35,0,0,1-4.7,14.42,13.88,13.88,0,0,0-1.47,7.21c.7,9.89,4.24,30.53,18.57,30.62v15.95L748.32,444l-7.51-1.56-.94-19.71s-8.13-5-8.75-13.45c0,0-8.14-42.23-5-54.12,0,0,6.26-19.08,20.33-28.15,0,0,24.92-8.44,44.21-5,0,0,25.55,4.06,27.74,41.6,0,0-3.44,40.59,11.26,48.76,0,0,31.28,7.86,31.28,33.82,0,1.57-.31,18.46-8.44,25.65l-35.35-37.53-36.91-14.71S778,388,789.12,370.79Z" transform="translate(0 31.56)"/></g><ellipse class="cls-47" cx="784.37" cy="407.72" rx="6.28" ry="8.22"/><path class="cls-25" d="M749.88,420s25.54-18.17,25-17.9c-8.59,4.69-15.42,8-26.13,4.83C748.6,407,749.88,420,749.88,420Z" transform="translate(0 31.56)"/></g><g id="leg2"><path class="cls-47" d="M708.19,759.92s2.28,19.4,8.54,28l15.24,7.3s4.78,6.46-1.9,11.89c0,0-27.32,30.86-34,31.28,0,0-6.24,4.17,2.5-17.94,0,0,2-14-.83-22.73l-7.91-30.86Z" transform="translate(0 31.56)"/><path class="cls-49" d="M730.91,793.5s-12,26.9-36.08,38.16l-7.14,7.88s-5,12.35,8.18,5.89c0,0,13.56-4.17,24.61-22.32,0,0,13.69-11.47,18.35-15.85C738.83,807.26,748.42,797.67,730.91,793.5Z" transform="translate(0 31.56)"/></g><g id="leg1"><path class="cls-47" d="M563,751s-10.43,17.93-10.84,28.78c0,0-24.82,10.42-47.76-3.34,0,0-2.71-1.24,23.15-7.92l7.3-4,10.63-19Z" transform="translate(0 31.56)"/><path class="cls-49" d="M554.9,778.07s8.76,10-2.3,14c0,0-11.88,1.25-21.48-1.88,0,0-20.43-2.29-29-1.46,0,0-16.9-1.87-19-6.46,0,0,0-4.8,9.38-6l12.72-2.29s1.59,6.88,28.43,8.13Z" transform="translate(0 31.56)"/></g><path class="cls-28" d="M681.69,631.25s12.1,27.53,16.68,49.64c0,0,13.35,53,15,87.17,0,0-10,10-27.53,6.25,0,0-41.71-103.85-46.71-105.94Z" transform="translate(0 31.56)"/><path class="cls-27" d="M841.85,611.65a19,19,0,0,1,6.88,16.27s-2.5,44.1-43.79,41.29c0,0-26.9,4.69-82.27-13.14l-34.1-8.76s-14.07-12.2-26.59,16c0,0-24.4,37.53-46.61,55.05s-50.67,41.6-50.67,41.6-22.21-.31-27.22-5.94l71.95-116.05L648.22,586s15.33-11.89,41.92,0Z" transform="translate(0 31.56)"/><path class="cls-23" d="M672.63,513.42l15,27.85,2.09,13.8s20-22.47,27.47-35c2.11-3.55,3.48-6.58,3.55-8.52,0,0,4.86-4.76,4.63,13.74,0,.52,0,1,0,1.58-.54,20.33-4.61,64.3-4.61,64.3l72.85,13.75,49.16,18.6s17.82,2.82,14.69-18.76L840,554.42l-6.18-26.83-.08-.39c-.43.28,6.9,4.14,15,8.75a162.91,162.91,0,0,1,15,9.45s7.64-20.54-9.16-71.81c0,0-9.9-53.06-72.16-54.63,0,0-.61,17.52-20.33,21.27,0,0-14.49.84-12.2-20.22a56.63,56.63,0,0,0-34.08,12.71s-14.72,11.58-33.49,68.51Z" transform="translate(0 31.56)"/><path class="cls-50" d="M687.68,541.27l5.59,10.33s26-30.29,27.52-40Z" transform="translate(0 31.56)"/><path class="cls-50" d="M793.64,604.93l49.16,18.6s17.82,2.82,14.69-18.76L840,554.42l-6.18-26.83-6.61-15S774.68,570,793.64,604.93Z" transform="translate(0 31.56)"/><g class="cls-51"><path class="cls-52" d="M833.72,527.19c-2.18-4.37-4.26-8.78-6.33-13.2s-4.06-8.87-6.09-13.31-3.95-8.91-5.87-13.4l-2.87-6.73c-.92-2.26-1.87-4.51-2.76-6.78,1.1,2.18,2.14,4.39,3.21,6.58l3.12,6.62c2.06,4.42,4,8.87,6.08,13.31s4,8.91,5.88,13.4S831.91,522.66,833.72,527.19Z" transform="translate(0 31.56)"/></g><g class="cls-51"><path class="cls-52" d="M737.44,464c-1.06,3.9-2.23,7.77-3.42,11.63s-2.45,7.69-3.67,11.54-2.56,7.66-3.9,11.47l-2,5.72c-.71,1.89-1.39,3.79-2.13,5.67.52-2,1.11-3.88,1.66-5.83l1.76-5.8c1.19-3.86,2.45-7.69,3.68-11.54s2.55-7.66,3.89-11.47S736,467.78,737.44,464Z" transform="translate(0 31.56)"/></g><g class="cls-51"><path class="cls-52" d="M790.65,423.74A58.54,58.54,0,0,1,786.56,434a47,47,0,0,1-6.12,9.21,28.25,28.25,0,0,1-4.05,3.83,21.57,21.57,0,0,1-4.8,2.87,19.32,19.32,0,0,1-5.45,1.43,20.77,20.77,0,0,1-5.62-.31h.17a20.12,20.12,0,0,1-5-.13,18.48,18.48,0,0,1-4.78-1.34,15,15,0,0,1-4.18-2.69,14.64,14.64,0,0,1-3-3.94,17.59,17.59,0,0,1-1.67-4.63,25.76,25.76,0,0,1-.62-4.86,44.72,44.72,0,0,1,.92-9.67,47.28,47.28,0,0,0-.45,9.65,27.89,27.89,0,0,0,.74,4.73,16.73,16.73,0,0,0,1.73,4.43,14.15,14.15,0,0,0,6.89,6.16,19.19,19.19,0,0,0,9.26,1.32h.09l.08,0a21.65,21.65,0,0,0,5.33.3,18.11,18.11,0,0,0,5.17-1.31,25,25,0,0,0,8.62-6.39,46.29,46.29,0,0,0,6.27-8.91A65.13,65.13,0,0,0,790.65,423.74Z" transform="translate(0 31.56)"/></g><g class="cls-51"><path class="cls-52" d="M730.75,571.66c9.63,3.43,19.22,7,28.8,10.52l28.71,10.76,28.62,11,14.29,5.57,14.24,5.67L831,610l-14.38-5.31-28.7-10.76-28.63-11C749.76,579.19,740.23,575.48,730.75,571.66Z" transform="translate(0 31.56)"/></g><g class="cls-51"><path class="cls-52" d="M695,541.52c-1.78-2.67-3.47-5.4-5.14-8.14s-3.3-5.5-4.92-8.27-3.18-5.57-4.71-8.39L678,512.48c-.73-1.43-1.49-2.84-2.2-4.29.9,1.33,1.75,2.7,2.62,4l2.53,4.1c1.68,2.73,3.3,5.5,4.91,8.28s3.18,5.56,4.71,8.39S693.6,538.64,695,541.52Z" transform="translate(0 31.56)"/></g><path class="cls-2" d="M539.37,487.58l-14.19.5a2.59,2.59,0,0,0-2.34,3.5l32.77,87.68H702.29l-3.59-9.77-28.83-78.22a5.62,5.62,0,0,0-5.28-3.69Z" transform="translate(0 31.56)"/><path class="cls-53" d="M523.15,493.43l33.05,85.83H698.63l-3.49-9.21c-20.22-1.64-57.18-1.75-93.3-19.53C601.84,550.52,557.24,527.61,523.15,493.43Z" transform="translate(0 31.56)"/><circle class="cls-54" cx="610.89" cy="568.65" r="7.7"/><path class="cls-2" d="M689.44,570.09h74.72a0,0,0,0,1,0,0v9.17a0,0,0,0,1,0,0H693a3.52,3.52,0,0,1-3.52-3.52v-5.65A0,0,0,0,1,689.44,570.09Z" transform="translate(1453.61 1180.91) rotate(-180)"/><g id="hand"><path class="cls-47" d="M720,563.48s-6.14,8.71-2.61,7.18,5.93-4.58,12.45-4.89S720,563.48,720,563.48Z" transform="translate(0 31.56)"/><path class="cls-47" d="M726,564.45s-6.15,8.71-2.62,7.18,5.94-4.58,12.46-4.89S726,564.45,726,564.45Z" transform="translate(0 31.56)"/><path class="cls-47" d="M731,564.45s-6.14,8.71-2.61,7.18,5.93-4.58,12.45-4.89S731,564.45,731,564.45Z" transform="translate(0 31.56)"/><path class="cls-47" d="M858.13,548.89,838,537.64s-5.42,4.39-11.68,4.07l-62.56,13.45-15.64-7.5s-9-3.75-1.56,7.5c0,0-14.78-5.08-33.39,9.22a.93.93,0,0,0,.42,1.65c6.4.91,26,3.52,40.48,3.52,0,0,86.26-7,88.18-8C848.57,558.09,853.28,559.59,858.13,548.89Z" transform="translate(0 31.56)"/></g><path class="cls-23" d="M833.72,527.2l31.13,12.91s-3.92,22.34-21.46,24.12l-18.18-28.08Z" transform="translate(0 31.56)"/><g class="cls-51"><path class="cls-52" d="M850.89,538.26a97.59,97.59,0,0,1-9-5.12,95.4,95.4,0,0,1-8.5-6,92,92,0,0,1,9,5.12A95.4,95.4,0,0,1,850.89,538.26Z" transform="translate(0 31.56)"/></g></g><g id="Table"><polygon class="cls-17" points="380.73 624.84 361.74 623.55 321.51 882.79 328.61 882.76 380.73 624.84"/><polygon class="cls-17" points="849.52 623.19 832.43 624.78 880.98 882.64 886.03 882.64 849.52 623.19"/><rect class="cls-2" x="254.44" y="575.31" width="680.08" height="22.68" rx="3.47" transform="translate(1188.96 1204.86) rotate(-180)"/><path class="cls-53" d="M257.56,578.46h671a3.25,3.25,0,0,1,3.25,3.25v13a3.25,3.25,0,0,1-3.25,3.25h-671a2.87,2.87,0,0,1-2.87-2.87V581.32a2.87,2.87,0,0,1,2.87-2.87Z" transform="translate(1186.5 1208.01) rotate(180)"/></g></g><g id="Booking-Confirmed"><polygon class="cls-55" points="633.74 114.58 633.74 185.3 633.78 185.3 639.37 194.98 644.97 204.67 650.56 194.98 656.15 185.3 875.49 185.3 875.49 114.58 633.74 114.58"/><polygon class="cls-53" points="680.89 185.3 633.74 185.3 633.74 114.58 635.97 114.58 680.89 185.3"/><path class="cls-26" d="M644.48,124.26V108.14h5.16a10.08,10.08,0,0,1,2.56.29,5,5,0,0,1,1.77.83,3.22,3.22,0,0,1,1,1.32,4.52,4.52,0,0,1,.33,1.76,3.69,3.69,0,0,1-.18,1.15,3.6,3.6,0,0,1-.57,1,4.11,4.11,0,0,1-1,.84,5.11,5.11,0,0,1-1.33.61,4.92,4.92,0,0,1,2.67,1.27,3.32,3.32,0,0,1,.9,2.43,4.51,4.51,0,0,1-.37,1.86,4.06,4.06,0,0,1-1.11,1.46,5.18,5.18,0,0,1-1.78.93,7.75,7.75,0,0,1-2.41.34Zm2.19-8.9h2.89a5.83,5.83,0,0,0,1.6-.2,3.37,3.37,0,0,0,1.12-.57,2.15,2.15,0,0,0,.66-.87,2.9,2.9,0,0,0,.22-1.12,2.49,2.49,0,0,0-.86-2.08,4.36,4.36,0,0,0-2.66-.66h-3Zm0,1.55v5.61h3.5a5.35,5.35,0,0,0,1.6-.21,3,3,0,0,0,1.11-.6,2.43,2.43,0,0,0,.64-.92,3.44,3.44,0,0,0,.2-1.18,2.41,2.41,0,0,0-.89-2,4.11,4.11,0,0,0-2.67-.73Z" transform="translate(0 31.56)"/><path class="cls-26" d="M663.38,112.68a5.89,5.89,0,0,1,2.27.42,4.81,4.81,0,0,1,1.71,1.18,5.22,5.22,0,0,1,1.08,1.85,7.93,7.93,0,0,1,0,4.85,5.22,5.22,0,0,1-1.08,1.85,4.66,4.66,0,0,1-1.71,1.17,6.46,6.46,0,0,1-4.53,0,4.78,4.78,0,0,1-1.72-1.17,5.4,5.4,0,0,1-1.09-1.85,7.93,7.93,0,0,1,0-4.85,5.4,5.4,0,0,1,1.09-1.85,4.94,4.94,0,0,1,1.72-1.18A5.87,5.87,0,0,1,663.38,112.68Zm0,10.17a3,3,0,0,0,2.53-1.13,5.19,5.19,0,0,0,.84-3.15,5.27,5.27,0,0,0-.84-3.18,3,3,0,0,0-2.53-1.13,3.4,3.4,0,0,0-1.48.29,2.74,2.74,0,0,0-1.06.84,3.8,3.8,0,0,0-.63,1.36,7.95,7.95,0,0,0,0,3.63,3.7,3.7,0,0,0,.63,1.34,2.83,2.83,0,0,0,1.06.84A3.55,3.55,0,0,0,663.38,122.85Z" transform="translate(0 31.56)"/><path class="cls-26" d="M675.93,112.68a5.87,5.87,0,0,1,2.26.42,4.81,4.81,0,0,1,1.71,1.18,5.22,5.22,0,0,1,1.08,1.85,7.93,7.93,0,0,1,0,4.85,5.22,5.22,0,0,1-1.08,1.85,4.66,4.66,0,0,1-1.71,1.17,6.46,6.46,0,0,1-4.53,0,4.78,4.78,0,0,1-1.72-1.17,5.4,5.4,0,0,1-1.09-1.85,7.93,7.93,0,0,1,0-4.85,5.4,5.4,0,0,1,1.09-1.85,4.94,4.94,0,0,1,1.72-1.18A5.89,5.89,0,0,1,675.93,112.68Zm0,10.17a2.93,2.93,0,0,0,2.52-1.13,5.19,5.19,0,0,0,.84-3.15,5.27,5.27,0,0,0-.84-3.18,2.93,2.93,0,0,0-2.52-1.13,3.42,3.42,0,0,0-1.49.29,2.81,2.81,0,0,0-1.06.84,3.8,3.8,0,0,0-.63,1.36,7.95,7.95,0,0,0,0,3.63,3.7,3.7,0,0,0,.63,1.34,2.91,2.91,0,0,0,1.06.84A3.57,3.57,0,0,0,675.93,122.85Z" transform="translate(0 31.56)"/><path class="cls-26" d="M685.93,107.69v9.75h.52a1,1,0,0,0,.37-.06,1.1,1.1,0,0,0,.33-.25l3.61-3.86a2.24,2.24,0,0,1,.33-.3.89.89,0,0,1,.46-.11h1.82l-4.2,4.47-.31.34a2.22,2.22,0,0,1-.35.25,2.25,2.25,0,0,1,.37.31,3.25,3.25,0,0,1,.31.4l4.47,5.63h-1.81a.77.77,0,0,1-.42-.1,1,1,0,0,1-.34-.3l-3.75-4.66a.8.8,0,0,0-.34-.31,1.29,1.29,0,0,0-.51-.08h-.56v5.45h-2V107.69Z" transform="translate(0 31.56)"/><path class="cls-26" d="M698.35,109.29a1.25,1.25,0,0,1-.12.54,1.6,1.6,0,0,1-.32.45,1.39,1.39,0,0,1-.45.31,1.51,1.51,0,0,1-.56.11,1.41,1.41,0,0,1-.54-.11,1.55,1.55,0,0,1-.46-.31,1.57,1.57,0,0,1-.31-.45,1.41,1.41,0,0,1-.11-.54,1.47,1.47,0,0,1,.11-.56,1.49,1.49,0,0,1,.31-.46,1.55,1.55,0,0,1,.46-.31,1.24,1.24,0,0,1,.54-.11,1.33,1.33,0,0,1,.56.11,1.39,1.39,0,0,1,.45.31,1.52,1.52,0,0,1,.32.46A1.31,1.31,0,0,1,698.35,109.29Zm-.45,3.57v11.4h-2v-11.4Z" transform="translate(0 31.56)"/><path class="cls-26" d="M701.44,124.26v-11.4h1.19a.5.5,0,0,1,.54.42l.16,1.24a6.4,6.4,0,0,1,1.67-1.33,4.29,4.29,0,0,1,2.12-.51,4.19,4.19,0,0,1,1.65.31,3.23,3.23,0,0,1,1.2.88,3.9,3.9,0,0,1,.73,1.37,6.09,6.09,0,0,1,.24,1.76v7.26h-2V117a3.05,3.05,0,0,0-.6-2,2.22,2.22,0,0,0-1.81-.71,3.34,3.34,0,0,0-1.66.43,5.49,5.49,0,0,0-1.43,1.16v8.39Z" transform="translate(0 31.56)"/><path class="cls-26" d="M717.82,112.67a6.25,6.25,0,0,1,1.4.16,4.36,4.36,0,0,1,1.17.48h3.11v.74q0,.38-.48.48l-1.29.18a3.5,3.5,0,0,1,.38,1.63,3.55,3.55,0,0,1-.32,1.51,3.64,3.64,0,0,1-.89,1.17,4.14,4.14,0,0,1-1.36.74,5.49,5.49,0,0,1-1.72.26,6.18,6.18,0,0,1-1.51-.19,1.75,1.75,0,0,0-.54.5.86.86,0,0,0-.19.52.7.7,0,0,0,.33.63,2.06,2.06,0,0,0,.86.31,7.63,7.63,0,0,0,1.23.09h1.41a8.1,8.1,0,0,1,1.4.13,4.14,4.14,0,0,1,1.23.41,2.15,2.15,0,0,1,1.2,2.08,3.12,3.12,0,0,1-.37,1.44,3.92,3.92,0,0,1-1,1.23,5.55,5.55,0,0,1-1.68.87,7.45,7.45,0,0,1-2.25.32,8.46,8.46,0,0,1-2.19-.25,4.89,4.89,0,0,1-1.56-.66,2.82,2.82,0,0,1-.93-1,2.3,2.3,0,0,1-.32-1.15,2,2,0,0,1,.54-1.43,3.73,3.73,0,0,1,1.47-.94,2,2,0,0,1-.77-.6,1.64,1.64,0,0,1-.29-1,1.61,1.61,0,0,1,.09-.51,1.89,1.89,0,0,1,.28-.52,2.63,2.63,0,0,1,.46-.49,2.88,2.88,0,0,1,.63-.42,3.56,3.56,0,0,1-1.33-1.25,3.45,3.45,0,0,1-.48-1.83,3.52,3.52,0,0,1,.32-1.51,3.43,3.43,0,0,1,.9-1.16,4,4,0,0,1,1.37-.74A5.67,5.67,0,0,1,717.82,112.67Zm3.57,12.16a1,1,0,0,0-.24-.69,1.45,1.45,0,0,0-.64-.41,4.07,4.07,0,0,0-.94-.21,7.87,7.87,0,0,0-1.11-.07h-1.2a4,4,0,0,1-1.16-.16,3.53,3.53,0,0,0-1.05.75,1.53,1.53,0,0,0-.4,1,1.39,1.39,0,0,0,.2.71,1.71,1.71,0,0,0,.61.58,3.45,3.45,0,0,0,1,.38,6.75,6.75,0,0,0,1.44.14,6.43,6.43,0,0,0,1.46-.15,3.76,3.76,0,0,0,1.09-.42,2.15,2.15,0,0,0,.68-.66A1.53,1.53,0,0,0,721.39,124.83Zm-3.57-6.14a3.22,3.22,0,0,0,1.08-.17,2.17,2.17,0,0,0,.78-.47,2,2,0,0,0,.48-.73,2.75,2.75,0,0,0,.16-.93,2.23,2.23,0,0,0-.64-1.66,2.58,2.58,0,0,0-1.86-.62,2.54,2.54,0,0,0-1.84.62,2.19,2.19,0,0,0-.64,1.66,2.52,2.52,0,0,0,.17.93,1.9,1.9,0,0,0,.48.73,2.21,2.21,0,0,0,.77.47A3.14,3.14,0,0,0,717.82,118.69Z" transform="translate(0 31.56)"/><path class="cls-26" d="M741.56,120.93a.49.49,0,0,1,.33.14l.86.94a7,7,0,0,1-2.41,1.79,8.33,8.33,0,0,1-3.41.64,7.9,7.9,0,0,1-3.17-.61,7,7,0,0,1-2.43-1.68,7.8,7.8,0,0,1-1.55-2.61,9.63,9.63,0,0,1-.55-3.34,9,9,0,0,1,.59-3.34,7.67,7.67,0,0,1,1.66-2.61,7.56,7.56,0,0,1,2.57-1.69,8.73,8.73,0,0,1,3.3-.6,7.32,7.32,0,0,1,5.36,2.05l-.71,1a.77.77,0,0,1-.18.18.46.46,0,0,1-.29.08.58.58,0,0,1-.31-.11l-.39-.27-.53-.33a4,4,0,0,0-.72-.34,6.36,6.36,0,0,0-1-.27,6.93,6.93,0,0,0-1.28-.1,6.29,6.29,0,0,0-2.37.44,5.23,5.23,0,0,0-1.85,1.27,5.66,5.66,0,0,0-1.22,2,7.62,7.62,0,0,0-.43,2.64,7.75,7.75,0,0,0,.43,2.69,6,6,0,0,0,1.19,2,5,5,0,0,0,1.77,1.24,5.62,5.62,0,0,0,2.21.43,8.47,8.47,0,0,0,1.3-.09,4.93,4.93,0,0,0,1.07-.26,4.32,4.32,0,0,0,.91-.46,6.87,6.87,0,0,0,.85-.65A.54.54,0,0,1,741.56,120.93Z" transform="translate(0 31.56)"/><path class="cls-26" d="M749.93,112.68a5.8,5.8,0,0,1,2.26.42,4.76,4.76,0,0,1,1.72,1.18,5.22,5.22,0,0,1,1.08,1.85,7.93,7.93,0,0,1,0,4.85,5.22,5.22,0,0,1-1.08,1.85,4.62,4.62,0,0,1-1.72,1.17,6.43,6.43,0,0,1-4.52,0,4.7,4.7,0,0,1-1.72-1.17,5.24,5.24,0,0,1-1.09-1.85,7.73,7.73,0,0,1,0-4.85,5.24,5.24,0,0,1,1.09-1.85,4.85,4.85,0,0,1,1.72-1.18A5.83,5.83,0,0,1,749.93,112.68Zm0,10.17a3,3,0,0,0,2.53-1.13,5.2,5.2,0,0,0,.83-3.15,5.27,5.27,0,0,0-.83-3.18,3,3,0,0,0-2.53-1.13,3.48,3.48,0,0,0-1.49.29,2.78,2.78,0,0,0-1.05.84,3.8,3.8,0,0,0-.63,1.36,7.95,7.95,0,0,0,0,3.63,3.7,3.7,0,0,0,.63,1.34,2.88,2.88,0,0,0,1.05.84A3.63,3.63,0,0,0,749.93,122.85Z" transform="translate(0 31.56)"/><path class="cls-26" d="M757.85,124.26v-11.4H759a.52.52,0,0,1,.55.42l.15,1.24a6.4,6.4,0,0,1,1.67-1.33,4.63,4.63,0,0,1,3.78-.2,3.27,3.27,0,0,1,1.19.88,3.9,3.9,0,0,1,.73,1.37,6.08,6.08,0,0,1,.25,1.76v7.26h-2V117a3.11,3.11,0,0,0-.59-2,2.24,2.24,0,0,0-1.81-.71,3.35,3.35,0,0,0-1.67.43,5.29,5.29,0,0,0-1.42,1.16v8.39Z" transform="translate(0 31.56)"/><path class="cls-26" d="M770.84,124.26v-9.69l-1.26-.14a1,1,0,0,1-.39-.18.41.41,0,0,1-.15-.34v-.82h1.8v-.63a5.37,5.37,0,0,1,.33-1.92,4,4,0,0,1,1-1.5,4.49,4.49,0,0,1,1.63-1,6.81,6.81,0,0,1,2.27-.35,6.62,6.62,0,0,1,.88.06,3.83,3.83,0,0,1,.77.17l-.07,1a.21.21,0,0,1-.13.18,1.34,1.34,0,0,1-.33,0h-.56a4.25,4.25,0,0,0-2.91.82,3.22,3.22,0,0,0-.91,2.49v.57h6.91v11.17h-2v-9.72h-4.83v9.72Z" transform="translate(0 31.56)"/><path class="cls-26" d="M783.25,124.26v-11.4h1.15a.59.59,0,0,1,.45.13.75.75,0,0,1,.17.42l.13,1.78a5.34,5.34,0,0,1,1.45-1.86,3.39,3.39,0,0,1,2.88-.56,3,3,0,0,1,.71.29l-.25,1.5a.34.34,0,0,1-.35.28,1.74,1.74,0,0,1-.49-.1,2.78,2.78,0,0,0-.91-.11,2.58,2.58,0,0,0-1.76.61,4.56,4.56,0,0,0-1.18,1.76v7.26Z" transform="translate(0 31.56)"/><path class="cls-26" d="M792.34,124.26v-11.4h1.19a.5.5,0,0,1,.54.42l.15,1.17a5.67,5.67,0,0,1,1.42-1.27,3.33,3.33,0,0,1,1.82-.5,2.72,2.72,0,0,1,1.87.64,3.62,3.62,0,0,1,1,1.74A3.5,3.5,0,0,1,801,114a3.58,3.58,0,0,1,1.91-1.17,4.56,4.56,0,0,1,1.11-.14,4.28,4.28,0,0,1,1.61.29,3.07,3.07,0,0,1,1.19.84,3.61,3.61,0,0,1,.75,1.35,5.8,5.8,0,0,1,.26,1.84v7.26h-2V117a3.07,3.07,0,0,0-.58-2,2.11,2.11,0,0,0-1.7-.69,2.71,2.71,0,0,0-.95.17,2.37,2.37,0,0,0-1.32,1.36,3.38,3.38,0,0,0-.19,1.19v7.26h-2V117a3.26,3.26,0,0,0-.55-2,2,2,0,0,0-1.62-.67,2.54,2.54,0,0,0-1.38.4,4.91,4.91,0,0,0-1.17,1.08v8.5Z" transform="translate(0 31.56)"/><path class="cls-26" d="M815.38,112.68a5.08,5.08,0,0,1,1.89.35,4,4,0,0,1,1.5,1,4.57,4.57,0,0,1,1,1.59,6.13,6.13,0,0,1,.36,2.17,1.28,1.28,0,0,1-.11.63.42.42,0,0,1-.38.16H812a6.07,6.07,0,0,0,.29,1.87,3.77,3.77,0,0,0,.75,1.34,3.07,3.07,0,0,0,1.12.8,4,4,0,0,0,1.47.26,4.16,4.16,0,0,0,1.3-.18,5.76,5.76,0,0,0,.94-.37,5.89,5.89,0,0,0,.66-.38.93.93,0,0,1,.46-.17.42.42,0,0,1,.38.19l.57.73a3.93,3.93,0,0,1-.89.78A6.37,6.37,0,0,1,818,124a7.41,7.41,0,0,1-1.23.32,7.61,7.61,0,0,1-1.25.1,5.91,5.91,0,0,1-2.18-.39,4.91,4.91,0,0,1-1.73-1.17,5.47,5.47,0,0,1-1.13-1.91,7.77,7.77,0,0,1-.41-2.61,6.73,6.73,0,0,1,.37-2.23,5.23,5.23,0,0,1,1.05-1.79,4.67,4.67,0,0,1,1.69-1.19A5.48,5.48,0,0,1,815.38,112.68Zm0,1.48a3.12,3.12,0,0,0-2.29.83,4,4,0,0,0-1,2.33h6.21a4,4,0,0,0-.19-1.28,2.81,2.81,0,0,0-.57-1,2.45,2.45,0,0,0-.9-.65A3,3,0,0,0,815.42,114.16Z" transform="translate(0 31.56)"/><path class="cls-26" d="M830.72,124.26a.52.52,0,0,1-.55-.42l-.18-1.38a5.93,5.93,0,0,1-1.67,1.42,4.27,4.27,0,0,1-2.16.53,4.14,4.14,0,0,1-1.78-.37,3.66,3.66,0,0,1-1.37-1.11,5.6,5.6,0,0,1-.87-1.82,9.54,9.54,0,0,1-.3-2.51,7.76,7.76,0,0,1,.34-2.35,5.68,5.68,0,0,1,1-1.88,4.62,4.62,0,0,1,1.56-1.25,4.47,4.47,0,0,1,2.07-.46,4.2,4.2,0,0,1,1.79.35,4.27,4.27,0,0,1,1.33,1v-6.32h2v16.57Zm-3.89-1.47a3.21,3.21,0,0,0,1.71-.45,4.76,4.76,0,0,0,1.36-1.27v-5.51a3.16,3.16,0,0,0-1.21-1,3.5,3.5,0,0,0-1.46-.3,2.89,2.89,0,0,0-2.46,1.14,5.32,5.32,0,0,0-.85,3.24,8.16,8.16,0,0,0,.19,1.91,3.7,3.7,0,0,0,.56,1.3,2.26,2.26,0,0,0,.91.75A3.1,3.1,0,0,0,826.83,122.79Z" transform="translate(0 31.56)"/><circle class="cls-41" cx="851.18" cy="147.99" r="12.02"/><polygon class="cls-26" points="858.75 143.54 856.9 141.87 848.86 150.79 845.49 146.94 843.61 148.59 848.45 154.1 848.83 153.77 849.22 154.12 858.75 143.54"/></g><g id="Plant-pot"><g id="leaf3" class="cls-56"><path class="cls-57" d="M151.7,746.48s16.28,14.27,17.46,36.74l-3.09.28s-5.87-22.68-15.69-31.77c-1.69-1.56-3-3-3.75-3.74s-20-15.8-12.45-10.12c.2.15.36-12.32,1-11.85C136.28,726.82,151.7,746.48,151.7,746.48Z" transform="translate(0 31.56)"/><g id="leaf3-2" data-name="leaf3"><path class="cls-58" d="M135.19,726s20.1-23.45,1.24-38.34c0,0-13.78-8.34-25-7.67,0,0,15.91,26.69,10.76,29.35s-15.59-31-15.59-31-31.35-3-41.43,1.81c0,0,26.8,21.93,21.15,23.24s-34.59-20.23-34.59-20.23-29.18,5-27.62,22.77,11.61,23.29,16,22.82S70.39,718.41,71,722s-15,15.45-25.89,16c0,0,20.57,22.68,34.24,16.14s14.84-16.93,23.36-20.82,15.8-3.88,12.28.09S96,741.27,91.13,749.89,81.89,764.33,96,762.2s37.14-12.48,38.15-24.33Z" transform="translate(0 31.56)"/><path class="cls-57" d="M38.44,706.41s79.24-3,96.75,19.61c0,0,4,11.22,15.95,21.78l-.84,1.45s-12.27-7.76-16.12-11.38C134.18,737.87,141.86,709.79,38.44,706.41Z" transform="translate(0 31.56)"/></g></g><g id="leaf2" class="cls-56"><g id="leaf2-2" data-name="leaf2"><path class="cls-59" d="M205.46,696.53s-32-17.9-17.05-42.2c0,0,11.93-14.92,24.72-18.76,0,0-6.82,36.23,0,37.09s4.69-40.93,4.69-40.93,33.68-16.2,46.9-14.92c0,0-20.89,35.38-14.07,34.53s30.27-36.66,30.27-36.66,34.53-6.4,40.07,14.07-3.41,30.69-8.53,32-37.94.85-37.08,5.12,23,11.08,35.38,7.24c0,0-13.64,33.68-31.55,32s-23.45-12.79-34.53-13.65-19.18,2.14-13.64,5.12,24.3,1,33.25,8.59,16.2,12.3-.43,15.71-46.46,1.28-52.43-11.51Z" transform="translate(0 31.56)"/><path class="cls-57" d="M305.22,635.14s-89.53,29-99.76,61.39c0,0,.43,14.49-8.53,31.12v6.4s9.38-21.75,14.5-24.73C211.43,709.32,191.39,681.18,305.22,635.14Z" transform="translate(0 31.56)"/></g><path class="cls-57" d="M196.93,727.65s-13.8,21-5.93,46.49l3.55-1s-3.45-28.11,3.78-42.24S196.93,727.65,196.93,727.65Z" transform="translate(0 31.56)"/></g><g id="leaf1" class="cls-56"><path class="cls-57" d="M167.12,712.33s16.91,28.17,6.54,61.81L169,772.88s4.55-37-5-55.69c-1.41-2.76-16.35-26.16-16.94-27.85-.79-2.24,7.82-18.83,7.53-17.5C154.25,673.43,167.12,712.33,167.12,712.33Z" transform="translate(0 31.56)"/><g id="leaf1-2" data-name="leaf1"><path class="cls-59" d="M154.59,671.84s42.15-23.61,22.48-55.64c0,0-15.73-19.66-32.59-24.72,0,0,9,47.76,0,48.89s-6.18-54-6.18-54-44.4-21.35-61.82-19.67c0,0,27.54,46.64,18.55,45.52s-39.9-48.33-39.9-48.33S9.61,555.51,2.3,582.49,6.8,623,13.54,624.63s50,1.13,48.89,6.75S32.09,646,15.79,640.93c0,0,18,44.39,41.59,42.15s30.9-16.86,45.51-18,25.29,2.81,18,6.75-32,1.29-43.84,11.32-21.35,16.21.57,20.71,61.25,1.68,69.12-15.17Z" transform="translate(0 31.56)"/><path class="cls-57" d="M23.1,590.92s118,38.21,131.49,80.92c0,0,.73,18.58,12.53,40.49l-1.3,6.12s-14.07-19.65-19.09-29.75C146.73,688.7,173.14,651.61,23.1,590.92Z" transform="translate(0 31.56)"/></g></g><path class="cls-57" d="M72.32,851.29H239.71a10.19,10.19,0,0,0-10.18-10.19H82.5a10.19,10.19,0,0,0-10.18,10.19Z" transform="translate(0 31.56)"/><path class="cls-59" d="M156,847.09a82.55,82.55,0,0,1-82.55-82.56H238.57A82.56,82.56,0,0,1,156,847.09Z" transform="translate(0 31.56)"/><rect class="cls-60" x="71.58" y="764.53" width="169.71" height="5.04" transform="translate(312.87 1565.66) rotate(180)"/></g></g></g></g></svg>