<?xml version="1.0" encoding="utf-8"?>
<!-- Generator: Adobe Illustrator 24.3.0, SVG Export Plug-In . SVG Version: 6.00 Build 0)  -->
<svg version="1.1" id="Layer_1" xmlns="http://www.w3.org/2000/svg" xmlns:xlink="http://www.w3.org/1999/xlink" x="0px" y="0px"
	 viewBox="0 0 1000 1000" style="enable-background:new 0 0 1000 1000;" xml:space="preserve">
<style type="text/css">
	.st0{fill:#8B22E2;}
	.st1{opacity:0.4;clip-path:url(#SVGID_2_);fill:#DEC0F9;}
	.st2{clip-path:url(#SVGID_2_);}
	.st3{opacity:0.51;fill:#9C9CE2;}
	.st4{fill:#D7D4FF;}
	.st5{opacity:0.43;fill:#FFFFFF;}
	.st6{fill:#9C9CE2;}
	.st7{opacity:0.6;fill:#FFFFFF;}
	.st8{opacity:0.6;fill:none;stroke:#FFFFFF;stroke-miterlimit:10;}
	.st9{opacity:0.81;fill:#FFFFFF;}
	.st10{opacity:0.22;clip-path:url(#SVGID_2_);fill:#FFFFFF;}
	.st11{opacity:0.54;clip-path:url(#SVGID_2_);fill:none;stroke:#F1F2F2;stroke-miterlimit:10;}
	.st12{opacity:0.53;fill:#8B22E2;}
	.st13{opacity:0.5;fill:none;stroke:#F1F2F2;stroke-miterlimit:10;}
	.st14{opacity:0.54;fill:none;stroke:#F1F2F2;stroke-miterlimit:10;}
	.st15{fill:#D3ACF9;}
	.st16{opacity:0.8;clip-path:url(#SVGID_2_);fill:#8B22E2;}
	.st17{opacity:0.47;clip-path:url(#SVGID_2_);}
	.st18{opacity:0.44;fill:none;stroke:#F1F2F2;stroke-miterlimit:10;}
	.st19{opacity:0.49;fill:none;stroke:#F1F2F2;stroke-miterlimit:10;}
	.st20{fill:none;stroke:#8B22E2;stroke-miterlimit:10;}
	.st21{opacity:0.8;fill:#8B22E2;}
	.st22{fill:#6884DD;}
	.st23{opacity:0.17;fill:#020202;}
	.st24{fill:#E6A16C;}
	.st25{opacity:0.1;enable-background:new    ;}
	.st26{fill:#FFFFFF;}
	.st27{fill:none;stroke:#020202;stroke-width:3;stroke-linecap:round;stroke-miterlimit:10;}
	.st28{fill:#FFAA00;}
	.st29{fill:#C98409;}
	.st30{fill:#1B0500;}
	.st31{opacity:0.17;}
	.st32{fill:#101521;}
	.st33{fill:#020202;}
	.st34{fill:#F2866D;}
	.st35{fill:none;stroke:#BA7343;stroke-width:0.745;stroke-miterlimit:10;}
	.st36{fill:#BA7343;}
	.st37{fill:#B388E5;}
	.st38{fill:#570D9E;}
	.st39{fill:#A67CE8;}
	.st40{fill:#FFFFFF;stroke:#B388E5;stroke-width:2;stroke-miterlimit:10;}
	.st41{fill:#3EAD6B;}
	.st42{opacity:0.14;fill:#F2F4F3;}
	.st43{font-family:'Lato-Regular';}
	.st44{font-size:22.4965px;}
	.st45{fill:#B281E4;}
	.st46{fill:#D9CCE6;}
	.st47{opacity:0.4;fill:#8B22E2;}
	.st48{opacity:0.33;fill:#8B22E2;}
	.st49{fill:#FFBCA0;}
	.st50{fill:#6139BD;}
	.st51{fill:#8C4D37;}
	.st52{opacity:0.15;}
	.st53{fill:#050505;}
	.st54{fill:none;}
	.st55{opacity:0.15;fill:#FFFFFF;}
	.st56{opacity:0.39;fill:#F0F2F8;}
	.st57{fill:#F84260;}
	.st58{display:none;fill:#FFFFFF;}
	.st59{fill:none;stroke:#FFFFFF;stroke-width:4;stroke-miterlimit:10;}
	.st60{opacity:0.996;enable-background:new    ;}
	.st61{fill:#C3B7CE;}
	.st62{fill:#D5C4E3;}
	.st63{opacity:0.996;fill:#D5C4E3;enable-background:new    ;}
	.st64{fill:#AE6FE2;}

	

#finger_1_{
  animation: finger 1s forwards;
  transform-box:fill-box;
  transform-origin:left;
}
@keyframes finger{
  0%{
   	transform: rotate(-15deg);
   }
50%{
   transform: rotate(20deg);
   }
100%{
    transform: rotate(0deg);
   }
}


#calendar{

    animation: rightmark 1s ease-in-out 0s forwards;
    animation-delay: 1s;
    transform-box:fill-box;
    transform-origin:left;
    opacity: 0;
}

@keyframes rightmark{

0% {
   transform:scale(0,0);
}
50% {
   transform:scale(1,1);
}
100% {
    transform:scale(1,1);
    opacity: 1;
}
}


#redtag{
   animation: rightmark 1.5s ease-in-out forwards;
    animation-delay: 1.5s;
    transform-box:fill-box;
    transform-origin:left;
    opacity: 0;
}

@keyframes red{

 0%{
   
    transform:scale(0,0);
   
   }
50%{
  
   transform:scale(0,0);

 
   }
100%{
   
	transform:scale(1,1);
	 opacity: 1;
   }

}


#hand_1_{
  animation: G_hand 0.5s  linear;
  animation-delay: 2.2s;
  transform-box:fill-box;
 transform-origin: right;

}
@keyframes G_hand{
  0%{
   	transform: rotate(0deg);
   }
50%{
   transform: rotate(10deg);
   }
100%{
    transform: rotate(0deg);
   }
}

#greentag{
 animation: green 0.9s  ease-in-out 0s forwards;
 /*transform-origin: center;*/
  transform-origin: 591px 66%;
  animation-delay: 2.9s;
  opacity: 0;
 
}
@keyframes green{
  0%{
   transform: scale(0,0);
    opacity: 0.5;
  }
  100%{
   transform: scale(1,1);
   opacity: 1;
  }
}
#msmile{
	animation: smile 1s  ease-in-out 2s forwards;
    animation-direction: alternate;
    transform-box:fill-box;
     transform-origin:center;
}

#gsmile{
animation: smile 1s  ease-in-out 3.5s forwards;
    animation-direction: alternate;
    transform-box:fill-box;
     transform-origin:center;
}

  @keyframes smile{
0%{
  transform: scale(1,1);
   }
50%{
   transform: scale(0.5,0);
   }
100%{
  transform: scale(1,1);
   }
}


#womanhead{
    animation: w-head 2s infinite linear;
    transform-box: fill-box;
    transform-origin: bottom;
}
@keyframes w-head{
  0%{
   	transform: rotate(0deg);
   }
50%{
   transform: rotate(3deg);
   }
100%{
    transform: rotate(0deg);
   }
}



#smallleafes{
	animation: wiggle 10s ease infinite;
    animation-direction: alternate;
    transform-box:fill-box;
     transform-origin:left;
}

  @keyframes wiggle{
0%{
   	transform: rotate(0deg);
   }
50%{
   transform: rotate(10deg);
   }
100%{
    transform: rotate(0deg);
   }
}
 #lightleaf{
  animation: leaf 5s infinite linear;
  transform-box:fill-box;
  transform-origin:right;
 }
  #darkleaf{
  animation: leaf 10s infinite linear;
  transform-box:fill-box;
  transform-origin:right;
  }  
  @keyframes leaf{
0%{
   	transform: rotate(0deg);
   }
50%{
   transform: rotate(10deg);
   }
100%{
    transform: rotate(0deg);
   }
}
#leg1{
  animation: leg 1.2s infinite linear;
  transform-box:fill-box;
  transform-origin:right;
}
@keyframes leg{
  0%{
   	transform: rotate(0deg);
   }
50%{
   transform: rotate(10deg);
   }
100%{
    transform: rotate(0deg);
   }
}
#thinline_1_{
animation: clock 30s infinite linear;
transform-box:fill-box;
transform-origin: bottom;
}
#thinline{
animation: clock 30s infinite linear;
transform-box:fill-box;
transform-origin: bottom;
}
@keyframes clock{
  
to{
    transform:rotate(360deg);
  }
}


#leaf3_1_{
  animation: leaf 3s infinite linear;
  transform-box:fill-box;
 transform-origin: bottom;
}
#leaf2{
  animation: leaf 2s infinite linear;
  transform-box:fill-box;
 transform-origin: bottom;
}

#leaf1_1_{
  animation: leaf 5s infinite linear;
  transform-box:fill-box;
 transform-origin: bottom;
}

@keyframes leaf{

 0%{
   	transform: skewX(-10deg);
   }
50%{
   transform: skewX(0deg);
   }
100%{
    transform: skewX(-10deg);
   }

}
#manhead{
animation: head 2s infinite linear;
transform-box:fill-box;
transform-origin: center;
}
@keyframes head{
  0%{
   	transform: rotate(0deg);
   }
50%{
   transform: rotate(10deg);
   }
100%{
    transform: rotate(0deg);
   }
}

#greentickmar{
	animation: grow 1s forwards;
    animation-iteration-count: infinite;
    transform-box:fill-box;
    transform-origin: center;
}
@keyframes grow{
  0%{
   	transform: scale(.9);
   }
50%{
   transform: scale(1.10);
    
   }
100%{
    transform: scale(.9);

   }
}

</style>
<g id="leafs">
	<g>
		<path class="st0" d="M76.4,906.9h894.5c2.1,0,3.8-1.1,3.8-2.4s-1.7-2.4-3.8-2.4H76.4c-2.1,0-3.8,1.1-3.8,2.4
			S74.3,906.9,76.4,906.9z"/>
	</g>
	<g id="clock">
		<g>
			<defs>
				<circle id="SVGID_1_" cx="465.2" cy="272.2" r="221.5"/>
			</defs>
			<clipPath id="SVGID_2_">
				<use xlink:href="#SVGID_1_"  style="overflow:visible;"/>
			</clipPath>
			<circle class="st1" cx="465.4" cy="275.6" r="230"/>
			<g class="st2">
				
					<rect x="320.3" y="202.3" transform="matrix(-1.836970e-16 1 -1 -1.836970e-16 557.7623 -125.0331)" class="st3" width="42.3" height="28.1"/>
				<g>
					<rect x="481" y="39.3" class="st4" width="110.6" height="281.9"/>
					<rect x="410.7" y="74.1" class="st4" width="70.3" height="247"/>
					<g>
						<rect x="490.2" y="52.7" class="st5" width="38.8" height="20.7"/>
						<rect x="544.5" y="52.7" class="st5" width="38.8" height="20.7"/>
						<rect x="490.2" y="81.8" class="st5" width="38.8" height="20.7"/>
						<rect x="544.5" y="81.8" class="st5" width="38.8" height="20.7"/>
						<rect x="490.2" y="110.9" class="st5" width="38.8" height="20.7"/>
						<rect x="544.5" y="110.9" class="st5" width="38.8" height="20.7"/>
						<rect x="490.2" y="140" class="st5" width="38.8" height="20.7"/>
						<rect x="544.5" y="140" class="st5" width="38.8" height="20.7"/>
						<rect x="490.2" y="169.1" class="st5" width="38.8" height="20.7"/>
						<rect x="544.5" y="169.1" class="st5" width="38.8" height="20.7"/>
						<rect x="490.2" y="198.1" class="st5" width="38.8" height="20.7"/>
						<rect x="544.5" y="198.1" class="st5" width="38.8" height="20.7"/>
						<rect x="490.2" y="227.2" class="st5" width="38.8" height="20.7"/>
						<rect x="544.5" y="227.2" class="st5" width="38.8" height="20.7"/>
						<rect x="490.2" y="256.3" class="st5" width="38.8" height="20.7"/>
						<rect x="544.5" y="256.3" class="st5" width="38.8" height="20.7"/>
						<rect x="490.2" y="285.4" class="st5" width="38.8" height="20.7"/>
						<rect x="544.5" y="285.4" class="st5" width="38.8" height="20.7"/>
					</g>
					<g>
						<rect x="430.1" y="77.6" class="st5" width="37.3" height="19.9"/>
						<rect x="430.1" y="105.5" class="st5" width="37.3" height="19.9"/>
						<rect x="430.1" y="133.5" class="st5" width="37.3" height="19.9"/>
						<rect x="430.1" y="161.4" class="st5" width="37.3" height="19.9"/>
						<rect x="430.1" y="189.4" class="st5" width="37.3" height="19.9"/>
						<rect x="430.1" y="217.3" class="st5" width="37.3" height="19.9"/>
						<rect x="430.1" y="245.3" class="st5" width="37.3" height="19.9"/>
						<rect x="430.1" y="273.3" class="st5" width="37.3" height="19.9"/>
						<rect x="430.1" y="301.2" class="st5" width="37.3" height="19.9"/>
					</g>
				</g>
				<rect x="605" y="66.5" class="st4" width="29" height="251.7"/>
				<rect x="368" y="109" class="st4" width="29" height="216.1"/>
				<g>
					
						<rect x="642.8" y="221.2" transform="matrix(-1 -1.224647e-16 1.224647e-16 -1 1330.1074 535.8619)" class="st4" width="44.5" height="93.5"/>
					
						<rect x="651.7" y="233.2" transform="matrix(-1 -1.224647e-16 1.224647e-16 -1 1330.1074 474.5402)" class="st3" width="26.6" height="8.1"/>
					
						<rect x="651.7" y="259.3" transform="matrix(-1 -1.224647e-16 1.224647e-16 -1 1330.1074 526.7029)" class="st3" width="26.6" height="8.1"/>
					
						<rect x="651.7" y="285.4" transform="matrix(-1 -1.224647e-16 1.224647e-16 -1 1330.1074 578.8657)" class="st3" width="26.6" height="8.1"/>
				</g>
				<rect x="288.5" y="237.6" class="st3" width="69.1" height="42.3"/>
				<g>
					<path class="st6" d="M593.7,303.8c0,0-9.1-15.7,0.9-21.4c0,0,3-13.9,14.8-4.9c0,0,16.9,6.5,8.2,16.3c0,0,1.7,9.2-4.7,12
						L593.7,303.8z"/>
					<rect x="603" y="290.7" class="st6" width="2.9" height="37.3"/>
				</g>
				<rect x="259.3" y="256.3" class="st4" width="98.5" height="69.1"/>
				<rect x="307.1" y="273" class="st3" width="40.5" height="24.8"/>
				<path class="st6" d="M600.7,405.5c0,0-26.2-44.8,2.5-61.4c0,0,8.6-39.9,42.2-14c0,0,48.5,18.7,23.4,46.5c0,0,4.8,26.2-13.4,34.4
					L600.7,405.5z"/>
				<g>
					<path class="st6" d="M393.1,301.6c0,0-9.1-15.7,0.9-21.4c0,0,3-13.9,14.8-4.9c0,0,16.9,6.5,8.2,16.3c0,0,1.7,9.2-4.7,12
						L393.1,301.6z"/>
					<rect x="402.4" y="288.5" class="st6" width="2.9" height="37.3"/>
				</g>
				<path class="st3" d="M635.5,349.7c0,0-20.9-26.7,0-37.5c0,0,5.2-24.5,31.1-9.6c0,0,37.5,12.6,19.7,30.2c0,0,13.3,11.2,0,16.6
					L635.5,349.7z"/>
				<path class="st4" d="M575.2,436.7c0,0-36.8-47,0-66c0,0,9.2-43.2,54.7-16.9c0,0,66.1,22.2,34.6,53.1c0,0,23.5,19.7,0,29.3
					L575.2,436.7z"/>
				
					<rect x="251.8" y="226.6" transform="matrix(-1.836970e-16 1 -1 -1.836970e-16 508.325 -37.7951)" class="st3" width="42.5" height="17.4"/>
				
					<rect x="173.6" y="238.3" transform="matrix(-1.836970e-16 1 -1 -1.836970e-16 499.3926 15.8381)" class="st3" width="136.5" height="38.6"/>
				<path class="st7" d="M314.5,118.7c0,0-5.7-17.5,18.6-20.4c0,0,11.4-27.6,30.7,1.4c0,0,25.9,1.6,14.7,19H314.5z"/>
				<path class="st7" d="M505.3,81.4c0,0-4.1-12.5,13.3-14.6c0,0,8.2-19.8,22,1c0,0,18.6,1.1,10.5,13.6H505.3z"/>
				<path class="st8" d="M376,94c0,0-2.3-7,7.5-8.2c0,0,4.6-11.1,12.4,0.6c0,0,10.4,0.6,5.9,7.7H376z"/>
				<path class="st8" d="M558.8,120.8c0,0-5.4-16.5,17.5-19.3c0,0,10.8-26,29,1.3c0,0,24.4,1.5,13.9,18H558.8z"/>
				<path class="st9" d="M481.3,97.7c-5.1-2.1-12-2.5-12-2.5c-19.3-22.3-30.7-1.1-30.7-1.1c-24.2,2.3-18.6,15.7-18.6,15.7h64
					l44.5-2.4L481.3,97.7z"/>
				<g>
					<path class="st6" d="M596.7,468.2c0,0-51.3-50.5-82.5-13.2c0,0,18.5-67.9,62.5-29.6L596.7,468.2z"/>
					<path class="st6" d="M592.2,466.6c0,0,45.4-61.2,77-45.2c0,0-7.9-10.7-25.9-11.8c-26.5-1.6-49,19.3-50.5,45.8L592.2,466.6z"/>
					<path class="st6" d="M597.4,465.5c0,0-37.9-102.8,10.5-106.9c0,0-40.1,8-34,65.9L597.4,465.5z"/>
					<path class="st6" d="M592.2,466.6c0,0,17.4-82.1,49.6-90.5c0,0-34.6-11.7-53.5,43.5L592.2,466.6z"/>
				</g>
				<g>
					<path class="st6" d="M570.1,489.3c0,0-47.7-46.9-76.7-12.2c0,0,17.2-63.2,58.1-27.5L570.1,489.3z"/>
					<path class="st6" d="M565.9,487.7c0,0,42.2-56.9,71.6-42c0,0-7.4-9.9-24.1-10.9c-24.6-1.5-45.6,18-46.9,42.6L565.9,487.7z"/>
					<path class="st6" d="M570.7,486.7c0,0-35.3-95.6,9.8-99.4c0,0-37.3,7.4-31.6,61.3L570.7,486.7z"/>
					<path class="st6" d="M565.9,487.7c0,0,16.2-76.3,46.1-84.2c0,0-32.2-10.8-49.8,40.4L565.9,487.7z"/>
				</g>
			</g>
			
				<rect x="461.5" y="21.6" transform="matrix(0.6204 -0.7843 0.7843 0.6204 -34.8829 491.1816)" class="st10" width="57" height="520.1"/>
			
				<rect x="509.3" y="-34" transform="matrix(0.6204 -0.7843 0.7843 0.6204 20.261 493.8826)" class="st10" width="22" height="520.1"/>
			
				<rect x="627.8" y="-73.8" transform="matrix(0.6204 -0.7843 0.7843 0.6204 95.2664 569.205)" class="st10" width="15.8" height="520.1"/>
			
				<rect x="794.2" y="131.5" transform="matrix(0.6204 -0.7843 0.7843 0.6204 -1.4258 780.1171)" class="st10" width="22" height="520.1"/>
			
				<rect x="272.6" y="148.1" transform="matrix(0.6204 -0.7843 0.7843 0.6204 -41.4391 294.5555)" class="st10" width="22" height="84"/>
			
				<rect x="403.4" y="-117.8" transform="matrix(0.6204 -0.7843 0.7843 0.6204 94.2567 369.8639)" class="st10" width="51.7" height="410.8"/>
			
				<rect x="205.8" y="133.8" transform="matrix(0.6204 -0.7843 0.7843 0.6204 -80.5508 263.2635)" class="st10" width="51.7" height="162"/>
			<path class="st11" d="M397.3,498.5c0,0-6.4-38.1,5.8-51.2"/>
			<g class="st2">
				<path class="st12" d="M383.1,521.4c0,0,69.4-115.4,165.3-92.5C548.4,428.9,366.3,353.8,383.1,521.4z"/>
				<path class="st13" d="M533.7,426.4c-52.6-4-109.1,24-151.7,94.9"/>
				<path class="st14" d="M421.4,470.9c0,0-1.2-28.1,10.5-39.8"/>
				<path class="st14" d="M455.2,445.1c0,0-0.9-17.9,19.5-26.1"/>
				<path class="st14" d="M489.4,431.2c0,0,5.4-11.2,17.6-9.3"/>
			</g>
			<g class="st2">
				<path class="st15" d="M395.8,561.2c0,0,69.4-115.4,165.3-92.5C561.1,468.8,379,393.7,395.8,561.2z"/>
				<path class="st13" d="M546.4,466.3c-52.6-4-109.1,24-151.7,94.9"/>
				<path class="st14" d="M434.1,510.8c0,0-1.2-28.1,10.5-39.8"/>
				<path class="st14" d="M467.9,485c0,0-0.9-17.9,19.5-26.1"/>
				<path class="st14" d="M502,471c0,0,5.4-11.2,17.6-9.3"/>
			</g>
			<path class="st16" d="M336,453.7c0,0-126.6-34.4-83.8-200.9C252.2,252.8,399.4,335.2,336,453.7z"/>
			<g class="st17">
				<line class="st18" x1="252.2" y1="252.8" x2="336" y2="453.7"/>
				<line class="st19" x1="299.7" y1="419.5" x2="328.4" y2="435.5"/>
				<line class="st19" x1="334.4" y1="413.6" x2="333.7" y2="448.2"/>
				<line class="st19" x1="287" y1="389.2" x2="315.6" y2="405.2"/>
				<line class="st19" x1="321.6" y1="383.3" x2="320.9" y2="417.9"/>
				<line class="st19" x1="275" y1="361.1" x2="303.7" y2="377.1"/>
				<line class="st19" x1="309.6" y1="355.2" x2="309" y2="389.8"/>
				<line class="st19" x1="263.8" y1="332.4" x2="292.5" y2="348.4"/>
				<line class="st19" x1="298.5" y1="326.5" x2="297.8" y2="361.1"/>
				<line class="st19" x1="254.3" y1="310" x2="282.9" y2="326.1"/>
				<line class="st19" x1="288.9" y1="304.2" x2="288.2" y2="338.8"/>
				<line class="st19" x1="244.7" y1="286.1" x2="273.4" y2="302.1"/>
				<line class="st19" x1="279.3" y1="280.3" x2="278.7" y2="314.9"/>
			</g>
			<g id="smallleafes" class="st2">
				<path class="st20" d="M442.1,305.7c-49.7,53.1-62.8,121.4-29.4,152.6"/>
				<path class="st21" d="M427.4,323.2c0,0,10.8-13.3,22.5-4C450,319.2,456.2,330.1,427.4,323.2z"/>
				<path class="st21" d="M416.6,339.5c0,0,8.9-14.6,21.8-7C438.4,332.5,446,342.5,416.6,339.5z"/>
				<path class="st21" d="M407.3,358.7c0,0,8.9-14.6,21.8-7C429,351.7,436.7,361.7,407.3,358.7z"/>
				<path class="st21" d="M399.6,379.1c0,0,6.9-15.6,20.7-9.8C420.3,369.3,429.1,378.3,399.6,379.1z"/>
				<path class="st21" d="M395,401.2c0,0,3.8-16.7,18.5-13.5C413.4,387.7,423.8,394.8,395,401.2z"/>
				<path class="st21" d="M395.6,419.8c0,0,3.5-16.7,18.2-13.9C413.8,405.9,424.3,412.8,395.6,419.8z"/>
				<path class="st21" d="M401.9,442.6c0,0-3.9-16.6,10.6-20.3C412.5,422.3,425,424.1,401.9,442.6z"/>
				<path class="st21" d="M416,338.6c0,0,6.3-15.9-7.5-21.6C408.5,317,395.9,317,416,338.6z"/>
				<path class="st21" d="M407.8,356.2c0,0,6.5-15.8-7.2-21.7C400.6,334.5,388,334.3,407.8,356.2z"/>
				<path class="st21" d="M400.4,372.9c0,0,4.1-16.6-10.4-20.4C390,352.5,377.5,354.2,400.4,372.9z"/>
				<path class="st21" d="M394.5,412.8c0,0-1.8-17-16.7-15.7C377.9,397.2,366.7,402.9,394.5,412.8z"/>
				<path class="st21" d="M395.7,390.7c0,0,1-17.1-14-18.1C381.7,372.5,369.8,376.5,395.7,390.7z"/>
				<path class="st21" d="M397.7,434.7c0,0-4.5-16.5-19-12.7C378.7,422,368.6,429.5,397.7,434.7z"/>
				<path class="st21" d="M426.4,324.4c0,0,9.1-14.5-3.4-22.6C423,301.8,410.6,299.4,426.4,324.4z"/>
				<path class="st21" d="M439.4,308.3c0,0-1-16.4,13.3-17.5C452.7,290.8,464.2,294.5,439.4,308.3z"/>
			</g>
			<g class="st2">
				<path class="st22" d="M328.2,501.5l23,127.5c-26.6,33.9-32.3,123.1-32.3,123.1l1.9,0.5l31.6,9.1l35.8-85.7
					c14.3-18,14-37.8,14-37.8l11.8-73.7l0.2,0.4l22.6,39.4c-20.5,17.7-64.6,113.1-64.6,113.1l2.8,3.4l20.5,24.9l95.2-114.2
					c10.5-15.5-3.1-53.4-3.1-53.4c-1.6-22.1-48-122.4-48-122.4l-93.9-15.1l-0.8-0.1C316.4,456.8,328.2,501.5,328.2,501.5z"/>
				<path class="st23" d="M372.2,717.3l2.8,3.4l69.7-118.2l-34.2-59.9l-5.2-11.7l8.9,33.8l22.6,39.4
					C416.2,621.9,372.2,717.3,372.2,717.3z"/>
				<path class="st23" d="M328.2,501.5l23,127.5c-26.6,33.9-32.3,123.1-32.3,123.1l1.9,0.5l31.8-106.1c9.6-13.6,2-36.6,2-36.6
					L337,494.5c-7.4-24.5,0.1-42.5,8.6-53.9l-0.8-0.1C316.4,456.8,328.2,501.5,328.2,501.5z"/>
				<polygon class="st24" points="381,220.7 377.7,247.3 382.8,262.6 354.4,261.9 335.2,241.7 332.7,232.4 343.7,222.9 349.4,220.2 
					352.8,200 				"/>
				<path class="st25" d="M380.1,228.4c-10.6-5.9-12.3-4.6-22.8-11.4c3.4,10.8,20.7,40,20.7,40C378.1,250.8,379.3,228.8,380.1,228.4
					z"/>
				<path class="st26" d="M349.8,213.2c0,0,20.9,26.5,29,27.3l-0.5,20c0,0-10.4-2.4-18.2-7.9c0,0-17.7-14.6-17.5-19.1
					C342.9,228.9,336.3,223,349.8,213.2z"/>
				<g id="handwithphone">
					<path class="st24" d="M469.5,366.8l13.8,0.3l4.1-4.4c2.8-3.1,7.3-4.2,11.3-2.6l9.2,3.6l14.3-10.8c1.2-0.9,2.8-1.1,4.2-0.5
						l0.7,0.3c2,0.8,3,3,2.4,5c-1.9,6.6-6.6,20.4-14.4,24.5c0,0-7.9,10.6-21.5,7.6l-25-4.6L469.5,366.8z"/>
					<line class="st27" x1="549.8" y1="324.3" x2="498" y2="383"/>
				</g>
				<path id="finger_1_" class="st24" d="M454.1,346.9l14.5-6.7c0,0,2.3-7,16.3-14.5l21.2-1.4l12.7,9.7l0.3,1.4
					c0.4,2-1.6,3.6-3.5,2.8l-12-5.4l-9,1.8c-0.5,0.1-0.8,0.6-0.7,1.1c0.3,1.7,1.5,5.3,5.6,4.5c0,0,5.4-3.4,6.2,3
					c0,0,3.4,10.1-4.7,14l-17.4,1.6l-18,1.3l-5.3,1.5L454.1,346.9z"/>
				<path class="st28" d="M305,326.3c11,34.1,35.7,62,35.7,62l-3.1,56.7c0.9,1.6,2.9,3.1,5.9,4.4c23.3,10.6,101.9,13.3,101.9,13.3
					c5.9-7.5-9.2-76.7-9.2-76.7l36.6,2l1.1-21.1l-12.8-0.7l6.3-6.1l-4.5-19.1l-36.8,4.3c1.4-8.7-16.1-59.3-16.1-59.3
					c-0.8-5.8-13.7-24.5-22.7-36.9c-4.9-6.7-8.6-11.7-8.6-11.7l-0.5,22.8c-28.1-3.2-36.4-41-36.4-41c-4.4,1.9-8.7,5.7-12.6,10.3
					c-1,1.1-1.9,2.3-2.9,3.5c-8.3,10.9-14.1,23.6-14.1,23.6C290.9,276.4,305,326.3,305,326.3z"/>
				<path class="st23" d="M304.5,326.7c11,34.1,35.7,62,35.7,62l-3.1,56.7c0.9,1.6,2.9,3.1,5.9,4.4l3-56.3
					c-38.5-62.8-31.8-102.3-31.8-102.3c-1.6-18.2,5.9-42,11.8-57.7c-8.3,10.9-14.1,23.6-14.1,23.6
					C290.3,276.7,304.5,326.7,304.5,326.7z"/>
				<path class="st29" d="M329.4,229.7l13.9,18.7c4.2,5.6,9.8,10,16.2,12.8l23.2,9.9l4.8-21.8c-4.9-6.7-8.6-11.7-8.6-11.7l-0.5,22.8
					c-27.4-9-36.4-41-36.4-41C337.6,221.4,333.3,225.2,329.4,229.7z"/>
				<path class="st30" d="M402.5,741.4l-22.9-39.9l-41.2,70c0,0-20,21.9,6.5,24.2l71.7,7.5c0,0,1.1-12.3-24-23.8l-20.4-12.6
					L402.5,741.4z"/>
				<path class="st30" d="M353.4,750.7l-35.7-10.2l-8.4,45.4c0,0-14,30.5,7.2,28.4c0,0,55.9,18.6,85.7,11.5c0,0,11.6-10.4-18.8-26.3
					l-32-19.6L353.4,750.7z"/>
				<g class="st31">
					<path class="st32" d="M358.2,289.4c2.3,5.8,4.4,11.6,6.6,17.5c2.1,5.8,4.2,11.7,6.3,17.6c2,5.9,4.1,11.8,6.1,17.7l3,8.9
						c1,3,1.9,5.9,2.9,8.9c-1.1-2.9-2.2-5.8-3.3-8.7l-3.2-8.8c-2.1-5.8-4.2-11.7-6.3-17.6c-2-5.9-4.1-11.8-6.1-17.7
						C362,301.2,360.1,295.3,358.2,289.4z"/>
				</g>
				<g class="st31">
					<path class="st32" d="M434.7,603.8c2.1-0.1,4.2-0.1,6.3,0c2.1,0,4.2,0.1,6.3,0.2c2.1,0.1,4.2,0.2,6.2,0.5l3.1,0.3
						c1,0.1,2.1,0.2,3.1,0.4c-1,0.1-2.1,0-3.1,0.1l-3.1,0c-2.1,0-4.2-0.1-6.3-0.2c-2.1-0.1-4.2-0.2-6.2-0.5
						C438.9,604.3,436.8,604.1,434.7,603.8z"/>
				</g>
				<g class="st31">
					<path class="st32" d="M349.8,629.3c2.1-0.1,4.2-0.1,6.3,0c2.1,0,4.2,0.1,6.3,0.2c2.1,0.1,4.2,0.2,6.2,0.5l3.1,0.3
						c1,0.1,2.1,0.2,3.1,0.4c-1,0.1-2.1,0-3.1,0.1l-3.1,0c-2.1,0-4.2-0.1-6.3-0.2c-2.1-0.1-4.2-0.2-6.2-0.5
						C353.9,629.9,351.8,629.6,349.8,629.3z"/>
				</g>
				<g class="st31">
					<path class="st32" d="M383,359.8c3.5-1.4,7.1-2.7,10.7-4c3.6-1.3,7.2-2.5,10.8-3.7c3.6-1.2,7.2-2.4,10.9-3.5l5.5-1.7
						c1.8-0.5,3.7-1.1,5.5-1.6c-1.8,0.7-3.6,1.3-5.3,2l-5.4,1.9c-3.6,1.3-7.2,2.5-10.8,3.7c-3.6,1.2-7.2,2.4-10.9,3.5
						C390.3,357.7,386.6,358.8,383,359.8z"/>
				</g>
				<g class="st31">
					<path class="st32" d="M460.6,364.3c-1.3-2.9-2.3-5.8-3.2-8.8c-0.9-3-1.7-6-2.2-9c1.3,2.9,2.3,5.8,3.2,8.8
						C459.3,358.2,460.1,361.2,460.6,364.3z"/>
				</g>
				<g class="st31">
					<path class="st32" d="M465.1,386.4c-0.1-3.1,0.1-6.2,0.4-9.3c0.3-3.1,0.7-6.2,1.4-9.2c0.1,3.1-0.1,6.2-0.4,9.3
						C466.1,380.3,465.8,383.4,465.1,386.4z"/>
				</g>
				<g class="st31">
					<path class="st32" d="M442.8,453.5c-8.7,0.7-17.5,0.9-26.2,0.9c-8.8,0-17.5-0.4-26.2-1.1c-8.7-0.8-17.4-2-26-3.9
						c-8.5-2-17-4.6-24.5-9.3c3.8,2.2,7.9,3.8,12,5.2c4.1,1.4,8.4,2.4,12.6,3.3c4.3,0.9,8.6,1.6,12.9,2.2c4.3,0.6,8.7,1,13,1.4
						c8.7,0.8,17.4,1.2,26.2,1.3c4.4,0.1,8.7,0.1,13.1,0.1C434.1,453.7,438.4,453.6,442.8,453.5z"/>
				</g>
				<g class="st31">
					<path class="st32" d="M441.9,470.5c-8.7,0.7-17.5,0.9-26.2,0.9c-8.8,0-17.5-0.4-26.2-1.1c-8.7-0.8-17.4-2-26-3.9
						c-8.5-2-17-4.6-24.5-9.3c3.8,2.2,7.9,3.8,12,5.2c4.1,1.4,8.4,2.4,12.6,3.3c4.3,0.9,8.6,1.6,12.9,2.2c4.3,0.6,8.7,1,13,1.4
						c8.7,0.8,17.4,1.2,26.2,1.3c4.4,0.1,8.7,0.1,13.1,0.1C433.1,470.7,437.5,470.6,441.9,470.5z"/>
				</g>
				<g class="st31">
					<path class="st32" d="M346.6,393.2c3.4,2.6,7.1,4.7,11.1,6.3c4,1.5,8.1,2.5,12.4,2.7c4.2,0.3,8.5-0.2,12.6-1.3
						c4.1-1.1,8-2.9,11.6-5.1l0,0l0,0l15.7-7l15.7-7c10.5-4.6,21-9.2,31.5-13.7c-10.4,4.9-20.8,9.7-31.2,14.4l-15.7,7.1l-15.7,7
						l0.1,0c-3.7,2.2-7.7,4-11.9,5.1c-4.2,1.1-8.5,1.5-12.8,1.2c-4.3-0.4-8.5-1.4-12.5-3C353.6,398.2,349.8,396,346.6,393.2z"/>
				</g>
				<g class="st31">
					<path class="st32" d="M394.5,471.6c1.1,4.2,2,8.5,3,12.8c0.9,4.3,1.8,8.6,2.7,12.8c0.8,4.3,1.7,8.6,2.5,12.9l1.2,6.5
						c0.3,2.2,0.7,4.3,1.1,6.5c-0.5-2.1-1-4.3-1.5-6.4l-1.4-6.4c-0.9-4.3-1.8-8.6-2.7-12.8c-0.8-4.3-1.7-8.6-2.5-12.9
						C396,480.2,395.2,475.9,394.5,471.6z"/>
				</g>
				<g class="st31">
					<path class="st32" d="M407.1,536.3c0.5,3.7,0.8,7.4,1.1,11.1c0.3,3.7,0.6,7.4,0.9,11.1c0.2,3.7,0.5,7.4,0.6,11.1l0.2,5.6
						c0,1.9,0.1,3.7,0.1,5.6c-0.2-1.8-0.4-3.7-0.6-5.5l-0.5-5.5c-0.3-3.7-0.6-7.4-0.9-11.1c-0.2-3.7-0.5-7.4-0.6-11.1
						C407.3,543.7,407.2,540,407.1,536.3z"/>
				</g>
				<g id="manhead">
					<path class="st24" d="M408.6,171.2l-3.9,37.4c-0.9,8.5-6.4,16.1-14.5,19c-5.9,2.1-13.6,1.9-22.5-4.8c0,0-15.3-6.4-16-22
						l0.7-13.4c0,0-15.3-6,5.9-19C358.4,168.5,388.3,138.6,408.6,171.2z"/>
					<path class="st33" d="M408.2,178.5c0,0,25-1.4,1.3-24.7c0,0-2.9-17.6-40.1-8.6c0,0-18.4-5.1-20.8,8.7l-3.1,23.4
						c-0.1,1-0.1,2,0.1,3l5.7,24.9l1,0l0.1-17.7l-1.1-8.6c0,0,8.7-2.5,11.2-13.9c0,0,2,0.5,3.7,1.6c3.1,1.9,6.9,2.5,10.5,2.1
						c8.7-1.1,21.5-1.6,24.5,4.1L408.2,178.5z"/>
					<g transform="translate(67.317 155.193)">
						
							<ellipse transform="matrix(0.2042 -0.9789 0.9789 0.2042 218.1898 365.8145)" class="st34" cx="334.1" cy="48.7" rx="3.2" ry="2.5"/>
						
							<ellipse transform="matrix(0.2042 -0.9789 0.9789 0.2042 209.6908 349.3543)" class="st34" cx="319.7" cy="45.7" rx="2.9" ry="2.2"/>
						<path class="st35" d="M325.5,50.8l1.7-0.5c0.6-0.5,1-1.3,0.9-1.9l-0.9-6.7"/>
						<path id="msmile" class="st35" d="M320.7,56.3c0,0,0.3,6,4.3,5.6c2,0.1,4-1.8,4.6-4.4"/>
						
							<ellipse transform="matrix(0.2042 -0.9789 0.9789 0.2042 233.0938 357.7917)" class="st36" cx="336.6" cy="35.5" rx="1.7" ry="1.3"/>
						
							<ellipse transform="matrix(0.2042 -0.9789 0.9789 0.2042 222.2663 341.9056)" class="st36" cx="321.4" cy="34.2" rx="1.7" ry="1.3"/>
					</g>
					
						<ellipse transform="matrix(5.368260e-02 -0.9986 0.9986 5.368260e-02 156.4702 522.5772)" class="st24" cx="353.9" cy="178.7" rx="7.4" ry="4.2"/>
				</g>
			</g>
			<use xlink:href="#SVGID_1_"  style="overflow:visible;fill:none;stroke:#EBCBF7;stroke-miterlimit:10;"/>
		</g>
		<g id="lightleaf">
			<path id="darkleaf" class="st21" d="M329.7,436c0,0-27.1-7.2-38.3,2.9c0,0-27.4,5.7-24.8-14.4c0,0,21.1-15.5,5.4-15.9
				c0,0-37.5,5.6-46.2-1.2c0,0-16.4-13.6,4.1-26.3c0,0,16.2-10.3-3-13c0,0-64.1-1.2-52.2-42.3c0,0,16.3-28.3,55.3,18.9
				c0,0,12.3,10,11.4-4.6c0,0-6.5-26.3,9.2-14.5c0,0,11.4,13.8,7.8,29.9c0,0,7.3,21.6,17,14.9c0,0,6.8-30.7,15.7-6.8
				c0,0-3.7,22.3,5.1,30c0,0,1.2,13.7,9.9,5.7c0,0,3.5-30.8,16.4-20c0,0,9.6-0.7,2.8,22.2L329.7,436z"/>
			<path class="st37" d="M337.7,446.3c0,0-22.3,2.5-27.7,13.2c0,0-18.8,12.2-22.7-3.6c0,0,11.2-17.7-0.6-13.4c0,0-26.4,15-34.8,12.5
				c0,0-16.2-5.4-4.5-20.8c0,0,9.1-12.4-6-8.8c0,0-48.2,17.6-51.2-16.5c0,0,4-25.8,46.7-1.9c0,0,12,3.9,7.2-6.7
				c0,0-12.5-17.8,2.7-13.5c0,0,12.5,7,14.5,20c0,0,11.7,14,17,6.2c0,0-3.8-24.9,9.8-9.6c0,0,3.7,17.7,12.5,20.9c0,0,4.9,9.8,9,1.4
				c0,0-6.3-24,6.4-19.6c0,0,6.9-3.3,8.5,15.8L337.7,446.3z"/>
		</g>
		<g>
			<path class="st12" d="M455.4,492.4c0,0,96.4,7.3,112.6,76.1C568,568.6,557.4,427.6,455.4,492.4z"/>
			<path class="st13" d="M564.9,558.3c-14.4-35-50.6-62.2-109.8-66.6"/>
			<path class="st14" d="M500.1,500.7c0,0,17.6-9.8,28.9-6.1"/>
			<path class="st14" d="M527.6,514.1c0,0,11.1-6.4,23.1,4.1"/>
			<path class="st14" d="M547.5,531.4c0,0,8.9-0.1,11.6,8.3"/>
		</g>
		<g id="calendar">
			<g>
				<path class="st0" d="M547.6,295.9l19.7-31.9c-6.3-8.7-9.7-19-9.7-29.8c0-27.9,22.7-50.6,50.6-50.6s50.6,22.7,50.6,50.6
					c0,27.9-22.7,50.6-50.6,50.6c-6.5,0-12.8-1.2-18.8-3.6L547.6,295.9z M608.2,185c-27.2,0-49.3,22.1-49.3,49.3
					c0,10.7,3.4,20.9,9.8,29.4l0.4,0.5l-16.6,27.4l37.1-11.7l0.2,0.1c5.9,2.4,12.1,3.6,18.5,3.6c27.2,0,49.3-22.1,49.3-49.3
					C657.5,207.1,635.4,185,608.2,185z"/>
			</g>
			<g>
				<path class="st0" d="M628.8,269.2h-40.3c-7.2,0-13.1-5.9-13.1-13.1v-40.3c0-7.2,5.9-13.1,13.1-13.1h40.3
					c7.2,0,13.1,5.9,13.1,13.1v40.3C641.9,263.3,636.1,269.2,628.8,269.2z M588.5,204c-6.5,0-11.7,5.3-11.7,11.7v40.3
					c0,6.5,5.3,11.7,11.7,11.7h40.3c6.5,0,11.7-5.3,11.7-11.7v-40.3c0-6.5-5.3-11.7-11.7-11.7H588.5z"/>
			</g>
			<path class="st38" d="M641.2,222.7h-65.1v-10.2c0-5.1,4.1-9.2,9.2-9.2h46.8c5.1,0,9.2,4.1,9.2,9.2V222.7z"/>
			<g>
				<path class="st39" d="M593.1,237.8v-7.2c-1.3,1-2.2,1.5-2.7,1.5c-0.2,0-0.4-0.1-0.6-0.3s-0.3-0.4-0.3-0.6c0-0.3,0.1-0.5,0.3-0.6
					s0.5-0.3,0.9-0.5c0.6-0.3,1.2-0.6,1.5-1c0.4-0.3,0.7-0.7,1-1.1c0.3-0.4,0.5-0.7,0.6-0.8c0.1-0.1,0.3-0.1,0.5-0.1
					c0.3,0,0.5,0.1,0.7,0.3s0.3,0.5,0.3,0.9v9.1c0,1.1-0.4,1.6-1.1,1.6c-0.3,0-0.6-0.1-0.8-0.3S593.1,238.2,593.1,237.8z"/>
				<path class="st39" d="M601.8,237h4.1c0.4,0,0.7,0.1,0.9,0.3c0.2,0.2,0.3,0.4,0.3,0.7c0,0.3-0.1,0.5-0.3,0.7
					c-0.2,0.2-0.4,0.3-0.8,0.3h-5.8c-0.4,0-0.7-0.1-0.9-0.3s-0.3-0.5-0.3-0.8c0-0.2,0.1-0.4,0.2-0.8c0.1-0.3,0.3-0.6,0.5-0.7
					c0.7-0.7,1.3-1.4,1.9-1.9c0.6-0.5,1-0.9,1.2-1c0.4-0.3,0.8-0.6,1.1-0.9c0.3-0.3,0.5-0.6,0.7-1c0.2-0.3,0.2-0.6,0.2-1
					c0-0.3-0.1-0.6-0.2-0.9c-0.2-0.3-0.4-0.5-0.7-0.6c-0.3-0.1-0.6-0.2-0.9-0.2c-0.7,0-1.2,0.3-1.6,0.9c-0.1,0.1-0.1,0.3-0.3,0.6
					c-0.1,0.4-0.3,0.6-0.4,0.8c-0.2,0.2-0.4,0.3-0.7,0.3c-0.3,0-0.5-0.1-0.7-0.3s-0.3-0.4-0.3-0.7c0-0.4,0.1-0.7,0.2-1.1
					s0.4-0.8,0.7-1.1c0.3-0.3,0.7-0.6,1.2-0.8c0.5-0.2,1.1-0.3,1.8-0.3c0.8,0,1.5,0.1,2.1,0.4c0.4,0.2,0.7,0.4,1,0.7
					c0.3,0.3,0.5,0.6,0.7,1c0.2,0.4,0.2,0.8,0.2,1.2c0,0.7-0.2,1.3-0.5,1.8c-0.3,0.5-0.7,1-1,1.3s-0.9,0.8-1.7,1.4
					c-0.8,0.6-1.3,1.2-1.6,1.5C602,236.7,601.9,236.8,601.8,237z"/>
			</g>
			<g>
				<polygon id="rightmark" class="st38" points="612.1,259.9 595,244.1 596.9,242.1 612.1,256.2 648.4,221.7 650.2,223.6 				"/>
			</g>
			<circle id="circle3" class="st39" cx="612.7" cy="214.3" r="2.6"/>
			<circle id="circle2" class="st39" cx="620.2" cy="214.3" r="2.6"/>
			<circle id="circle1" class="st39" cx="627.8" cy="214.3" r="2.6"/>
			<g>
				<path class="st0" d="M548.2,227.4l-1.3-0.3c0.1-0.3,6.5-29.5,30.1-43.4c14.6-8.6,32.6-9.7,53.5-3.2l-0.4,1.3
					c-20.5-6.3-38.2-5.3-52.4,3.1C554.6,198.5,548.3,227.1,548.2,227.4z"/>
			</g>
		</g>
		<g id="_x3C_Group_x3E_">
			<circle class="st40" cx="287.2" cy="169.8" r="39.4"/>
			<g>
				<g id="thinline_1_">
					<rect x="285.8" y="138.9" class="st37" width="1.2" height="31.5"/>
				</g>
				<g id="thickline_1_">
					<rect x="285.9" y="168" class="st37" width="22.8" height="2.4"/>
				</g>
			</g>
			<g>
				<path class="st40" d="M236.1,183.2l-0.9,0.3c-0.1-0.2-6.8-19.8,2.2-36.6c5.6-10.4,15.9-17.5,30.6-21.3l0.2,0.9
					c-14.5,3.7-24.5,10.7-30,20.8C229.4,163.7,236,183,236.1,183.2z"/>
			</g>
		</g>
	</g>
	<g id="greentag">
		<polygon class="st41" points="726.7,434.3 726.7,359.3 547.6,359.3 547.6,434.3 703.8,434.3 709.7,444.6 715.7,454.8 721.6,444.6 
			727.5,434.3 		"/>
		<polygon class="st42" points="675.8,434.3 725.8,434.3 725.8,359.3 723.4,359.3 		"/>
		<text transform="matrix(1.0027 0 0 1 562.8605 400.6606)" class="st26 st43 st44">New Booking! </text>
	</g>
	<g>
		<path class="st45" d="M899.1,434L899.1,434c-29.4,0-53.1-23.8-53.1-53.1v0c0-29.4,23.8-53.1,53.1-53.1h0
			c29.4,0,53.1,23.8,53.1,53.1v0C952.2,410.2,928.4,434,899.1,434z"/>
		<path class="st46" d="M899.1,431.1L899.1,431.1c-28,0-50.7-22.7-50.7-50.7v0c0-28,22.7-50.7,50.7-50.7h0c28,0,50.7,22.7,50.7,50.7
			v0C949.8,408.4,927.1,431.1,899.1,431.1z"/>
		<g id="thinline">
			<rect x="899.3" y="352.2" class="st0" width="1" height="28.9"/>
		</g>
		<g id="thickline">
			<rect x="899.8" y="380" class="st0" width="20.3" height="1.8"/>
		</g>
		<circle class="st0" cx="899.9" cy="381.2" r="2.1"/>
		<g>
			<g>
				<circle class="st45" cx="898.3" cy="341" r="2.3"/>
				<circle class="st45" cx="880.2" cy="347.2" r="2.3"/>
				<circle class="st45" cx="866.5" cy="361.5" r="2.3"/>
				<circle class="st45" cx="918.1" cy="345.7" r="2.3"/>
				<circle class="st45" cx="933.6" cy="360.6" r="2.3"/>
				<circle class="st45" cx="902.2" cy="416.5" r="2.3"/>
				<circle class="st45" cx="937.1" cy="379.7" r="2.3"/>
				<circle class="st45" cx="933.6" cy="396.7" r="2.3"/>
				<circle class="st45" cx="921.5" cy="410.5" r="2.3"/>
				<circle class="st45" cx="860.7" cy="379.7" r="2.3"/>
				<circle class="st45" cx="866.5" cy="395.9" r="2.3"/>
				<circle class="st45" cx="880.2" cy="410.5" r="2.3"/>
			</g>
		</g>
	</g>
	<g>
		<g>
			<path class="st47" d="M682.7,704.8v23.5l211.1,3.4c-3.4-80.1,24.8-197.7,24.8-197.7c11.1-36.5-7.2-40.2-12.9-40.4
				c-1-0.1-1.6,0-1.6,0c-24.7-2.4-46.7,5.6-46.7,5.6c-34.3,15.7-3.5,89.7-3.5,89.7c26.1,54.3-19.9,104-19.9,104
				c-28,34.3-93.5,10.5-93.5,10.5L682.7,704.8z"/>
			<path class="st48" d="M682.7,715.9v12.4l211.1,3.4c-3.4-80.1,24.8-197.7,24.8-197.7c11.1-36.5-7.2-40.2-12.9-40.4
				c2.8,1.5,4.9,3.4,6,5.6c0,0,11,11.3-2.7,31.3c0,0-22,116.6-21.3,139.1l-0.7,46.1H682.7z"/>
			<path class="st48" d="M892.2,731.7h-18.9c0,0-0.7,70.3,9.5,85.9c0,0,8.8,61.7,25.3,83.5h6.2l-15.1-60.6
				C899.1,840.5,887.8,752,892.2,731.7z"/>
			<path class="st48" d="M851.8,731.1h-18.9c0,0-0.7,70.9,9.5,86.6c0,0,8.8,62.2,25.3,84.2h6.2l-15.1-61.1
				C858.7,840.9,847.4,751.6,851.8,731.1z"/>
			<path class="st48" d="M719.3,728.9h18.9c0,0,0.7,71.8-9.5,87.8c0,0-8.8,63-25.3,85.3h-6.2l15.1-61.9
				C712.5,840.1,723.7,749.6,719.3,728.9z"/>
			<path class="st48" d="M683.1,728.3H702c0,0,0.7,72.1-9.5,88.1c0,0-8.8,63.2-25.3,85.6h-6.2l15.1-62.1
				C676.2,839.8,687.4,749.1,683.1,728.3z"/>
		</g>
		<g>
			<g>
				<g id="leg2">
					<path class="st49" d="M733.6,810.2c0,0,2.3,19.4,8.5,27.9l15.2,7.3c0,0,4.8,6.5-1.9,11.9c0,0-27.3,30.9-34,31.3
						c0,0-6.2,4.2,2.5-17.9c0,0,2-14-0.8-22.7l-7.9-30.9L733.6,810.2z"/>
					<path class="st50" d="M756.3,843.7c0,0-12,26.9-36.1,38.2l-7.1,7.9c0,0-5,12.3,8.2,5.9c0,0,13.6-4.2,24.6-22.3
						c0,0,13.7-11.5,18.4-15.8C764.2,857.5,773.8,847.9,756.3,843.7z"/>
				</g>
				<g id="leg1">
					<path class="st49" d="M588.4,801.2c0,0-10.4,17.9-10.8,28.8c0,0-24.8,10.4-47.8-3.3c0,0-2.7-1.2,23.1-7.9l7.3-3.9l10.6-19
						L588.4,801.2z"/>
					<path class="st50" d="M580.3,828.3c0,0,8.8,10-2.3,14c0,0-11.9,1.3-21.5-1.9c0,0-20.4-2.3-29-1.5c0,0-16.9-1.9-19-6.5
						c0,0,0-4.8,9.4-6l12.7-2.3c0,0,1.6,6.9,28.4,8.1L580.3,828.3z"/>
				</g>
			</g>
			<g id="womanhead">
				
					<ellipse transform="matrix(0.2288 -0.9735 0.9735 0.2288 192.8719 1085.5126)" class="st49" cx="781.6" cy="421" rx="36.9" ry="28.2"/>
				<g transform="translate(67.317 155.193)">
					<circle class="st34" cx="695.6" cy="273.8" r="2.9"/>
					<circle class="st34" cx="714.1" cy="276.5" r="2.7"/>
					<path class="st35" d="M704.2,271.4l-2.7,5.9c-0.3,0.5,0,1.3,0.5,1.9l1.9,0.8"/>
					<path id="gsmile" class="st35" d="M697.5,285.4c0,2.4,1.9,4.6,4.3,4.8c4.6,1.1,6.4-4.3,6.4-4.3"/>
					<circle class="st36" cx="699.7" cy="263.1" r="1.6"/>
					<circle class="st36" cx="714.9" cy="265.8" r="1.6"/>
				</g>
				<path class="st49" d="M803.5,431l6.3,3.7c0,0-4.9,25.2,0,32.7l9.3,7.5l-31.3,19.4h-20v-15l7.5-6.3v-23.1L803.5,431z"/>
				<path class="st51" d="M814.5,421c0,0-28,10-41.1-28.8l-6.8,6c-1.9,1.7-3.2,4-3.7,6.5c-0.6,3.5-2,9-4.7,14.4
					c-1.1,2.2-1.7,4.7-1.5,7.2c0.7,9.9,4.2,30.5,18.6,30.6v16l-1.6,21.3l-7.5-1.6l-0.9-19.7c0,0-8.1-5-8.8-13.5c0,0-8.1-42.2-5-54.1
					c0,0,6.3-19.1,20.3-28.2c0,0,24.9-8.4,44.2-5c0,0,25.5,4.1,27.7,41.6c0,0-3.4,40.6,11.3,48.8c0,0,31.3,7.9,31.3,33.8
					c0,1.6-0.3,18.5-8.4,25.7l-35.3-37.5l-36.9-14.7C805.6,469.8,803.4,438.2,814.5,421z"/>
				<ellipse class="st49" cx="809.7" cy="426.4" rx="6.3" ry="8.2"/>
				<path class="st25" d="M775.3,470.2c0,0,25.5-18.2,25-17.9c-8.6,4.7-15.4,8-26.1,4.8C774,457.2,775.3,470.2,775.3,470.2z"/>
			</g>
			<path class="st29" d="M707.1,681.5c0,0,12.1,27.5,16.7,49.6c0,0,13.3,53,15,87.2c0,0-10,10-27.5,6.3c0,0-41.7-103.9-46.7-105.9
				L707.1,681.5z"/>
			<path class="st28" d="M867.2,661.9c0,0,7.5,5.3,6.9,16.3c0,0-2.5,44.1-43.8,41.3c0,0-26.9,4.7-82.3-13.1l-34.1-8.8
				c0,0-14.1-12.2-26.6,16c0,0-24.4,37.5-46.6,55.1c-22.2,17.5-50.7,41.6-50.7,41.6s-22.2-0.3-27.2-5.9l71.9-116.1l38.8-51.9
				c0,0,15.3-11.9,41.9,0L867.2,661.9z"/>
			<path class="st22" d="M698,563.7l15.1,27.8l2.1,13.8c0,0,20-22.5,27.5-35c2.1-3.5,3.5-6.6,3.5-8.5c0,0,4.9-4.8,4.6,13.7
				c0,0.5,0,1,0,1.6c-0.5,20.3-4.6,64.3-4.6,64.3l72.9,13.7l49.2,18.6c0,0,17.8,2.8,14.7-18.8l-17.5-50.3l-6.2-26.8l-0.1-0.4
				c-0.4,0.3,6.9,4.1,15.1,8.8c6.9,3.9,12.8,7.8,15,9.5c0,0,7.6-20.5-9.2-71.8c0,0-9.9-53.1-72.2-54.6c0,0-0.6,17.5-20.3,21.3
				c0,0-14.5,0.8-12.2-20.2c0,0-18.1-0.4-34.1,12.7c0,0-14.7,11.6-33.5,68.5L698,563.7z"/>
			<path class="st52" d="M713.1,591.5l5.6,10.3c0,0,26-30.3,27.5-40L713.1,591.5z"/>
			<path class="st52" d="M819,655.2l49.2,18.6c0,0,17.8,2.8,14.7-18.8l-17.5-50.3l-6.2-26.8l-6.6-15
				C852.6,562.9,800.1,620.2,819,655.2z"/>
			<g class="st52">
				<path class="st53" d="M859.1,577.4c-2.2-4.4-4.3-8.8-6.3-13.2c-2.1-4.4-4.1-8.9-6.1-13.3c-2-4.5-4-8.9-5.9-13.4l-2.9-6.7
					c-0.9-2.3-1.9-4.5-2.8-6.8c1.1,2.2,2.1,4.4,3.2,6.6l3.1,6.6c2.1,4.4,4.1,8.9,6.1,13.3c2,4.5,4,8.9,5.9,13.4
					C855.4,568.4,857.3,572.9,859.1,577.4z"/>
			</g>
			<g class="st52">
				<path class="st53" d="M762.8,514.3c-1.1,3.9-2.2,7.8-3.4,11.6c-1.2,3.9-2.5,7.7-3.7,11.5c-1.3,3.8-2.6,7.7-3.9,11.5l-2,5.7
					c-0.7,1.9-1.4,3.8-2.1,5.7c0.5-2,1.1-3.9,1.7-5.8l1.8-5.8c1.2-3.9,2.5-7.7,3.7-11.5c1.3-3.8,2.6-7.7,3.9-11.5
					C760,521.8,761.4,518,762.8,514.3z"/>
			</g>
			<g class="st52">
				<path class="st53" d="M816,474c-1,3.5-2.4,6.9-4.1,10.2c-1.7,3.3-3.7,6.4-6.1,9.2c-1.2,1.4-2.6,2.7-4,3.8
					c-1.5,1.1-3.1,2.2-4.8,2.9c-1.7,0.7-3.6,1.2-5.4,1.4c-1.9,0.2-3.8,0-5.6-0.3l0.2,0c-1.7,0.2-3.3,0.1-5-0.1
					c-1.6-0.2-3.3-0.7-4.8-1.3c-1.5-0.7-3-1.6-4.2-2.7c-1.2-1.1-2.2-2.5-3-3.9c-0.8-1.5-1.3-3-1.7-4.6c-0.4-1.6-0.5-3.2-0.6-4.9
					c-0.1-3.3,0.3-6.5,0.9-9.7c-0.4,3.2-0.7,6.4-0.5,9.7c0.2,1.6,0.3,3.2,0.7,4.7c0.4,1.5,0.9,3,1.7,4.4c1.5,2.8,4,5,6.9,6.2
					c2.9,1.2,6.2,1.6,9.3,1.3l0.1,0l0.1,0c1.8,0.3,3.6,0.4,5.3,0.3c1.8-0.2,3.5-0.6,5.2-1.3c3.3-1.4,6.2-3.7,8.6-6.4
					c2.4-2.7,4.5-5.7,6.3-8.9C813.3,480.8,814.8,477.4,816,474z"/>
			</g>
			<g class="st52">
				<path class="st53" d="M756.1,621.9c9.6,3.4,19.2,7,28.8,10.5l28.7,10.8l28.6,11l14.3,5.6l14.2,5.7l-14.4-5.2l-14.4-5.3
					l-28.7-10.8l-28.6-11C775.1,629.4,765.6,625.7,756.1,621.9z"/>
			</g>
			<g class="st52">
				<path class="st54" d="M858.5,569.6"/>
			</g>
			<g class="st52">
				<path class="st54" d="M885.9,582.5"/>
			</g>
			<g class="st52">
				<path class="st53" d="M720.4,591.8c-1.8-2.7-3.5-5.4-5.1-8.1c-1.7-2.7-3.3-5.5-4.9-8.3c-1.6-2.8-3.2-5.6-4.7-8.4l-2.3-4.2
					c-0.7-1.4-1.5-2.8-2.2-4.3c0.9,1.3,1.7,2.7,2.6,4l2.5,4.1c1.7,2.7,3.3,5.5,4.9,8.3c1.6,2.8,3.2,5.6,4.7,8.4
					C717.5,586.1,719,588.9,720.4,591.8z"/>
			</g>
			<g>
				<path class="st0" d="M564.7,537.8l-14.2,0.5c-1.8,0.1-3,1.8-2.3,3.5l32.8,87.7h146.7l-3.6-9.8l-28.8-78.2
					c-0.8-2.2-2.9-3.7-5.3-3.7H564.7z"/>
				<path class="st55" d="M548.5,543.7l33,85.8H724l-3.5-9.2c-20.2-1.6-57.2-1.7-93.3-19.5C627.2,600.8,582.6,577.9,548.5,543.7z"/>
				<circle class="st56" cx="636.3" cy="587.3" r="7.7"/>
				<path class="st0" d="M714.8,629.5h74.7v-5.7c0-1.9-1.6-3.5-3.5-3.5h-71.2V629.5z"/>
			</g>
			<g id="hand_1_">
				<path class="st49" d="M745.4,613.7c0,0-6.1,8.7-2.6,7.2c3.5-1.5,5.9-4.6,12.5-4.9C761.8,615.7,745.4,613.7,745.4,613.7z"/>
				<path class="st49" d="M751.4,614.7c0,0-6.1,8.7-2.6,7.2c3.5-1.5,5.9-4.6,12.5-4.9C767.8,616.7,751.4,614.7,751.4,614.7z"/>
				<path class="st49" d="M756.4,614.7c0,0-6.1,8.7-2.6,7.2c3.5-1.5,5.9-4.6,12.5-4.9S756.4,614.7,756.4,614.7z"/>
				<path class="st49" d="M883.5,599.1l-20.1-11.2c0,0-5.4,4.4-11.7,4.1l-62.6,13.5l-15.6-7.5c0,0-9-3.7-1.6,7.5
					c0,0-14.8-5.1-33.4,9.2c-0.6,0.5-0.4,1.5,0.4,1.6c6.4,0.9,26,3.5,40.5,3.5c0,0,86.3-7,88.2-8
					C873.9,608.3,878.7,609.8,883.5,599.1z"/>
			</g>
			<path class="st22" d="M859.1,577.4l31.1,12.9c0,0-3.9,22.3-21.5,24.1l-18.2-28.1L859.1,577.4z"/>
			<g class="st52">
				<path class="st53" d="M876.3,588.5c-3.1-1.5-6.1-3.3-9-5.1c-2.9-1.9-5.8-3.8-8.5-6c3.1,1.5,6.1,3.3,9,5.1
					C870.7,584.4,873.6,586.3,876.3,588.5z"/>
			</g>
		</g>
		<g>
			<polygon class="st21" points="406.1,643.5 387.1,642.2 346.9,901.5 354,901.4 			"/>
			<polygon class="st21" points="874.9,641.9 857.8,643.5 906.4,901.3 911.4,901.3 			"/>
			<path class="st0" d="M283.3,648.2h673.1c1.9,0,3.5-1.6,3.5-3.5V629c0-1.9-1.6-3.5-3.5-3.5H283.3c-1.9,0-3.5,1.6-3.5,3.5v15.7
				C279.8,646.7,281.4,648.2,283.3,648.2z"/>
			<path class="st55" d="M283.3,648.2h671c1.6,0,2.9-1.3,2.9-2.9v-13.8c0-1.6-1.3-2.9-2.9-2.9h-671c-1.8,0-3.3,1.5-3.3,3.3v13
				C280.1,646.8,281.5,648.2,283.3,648.2z"/>
		</g>
	</g>
	<g id="redtag">
		<polygon class="st57" points="659.1,133.3 659.1,204 659.2,204 664.7,213.7 670.3,223.3 675.9,213.7 681.5,204 900.9,204 
			900.9,133.3 		"/>
		<polygon class="st55" points="706.3,204 659.1,204 659.1,133.3 661.3,133.3 		"/>
		<text transform="matrix(1.0027 0 0 1 673.8966 174.497)" class="st26 st43 st44">Booking Confirmed </text>
		<g id="greentickmark">
			<circle class="st41" cx="876.6" cy="166.7" r="16.7"/>
			<polygon class="st58" points="890,158.8 886.7,155.8 872.5,171.6 866.5,164.8 863.2,167.7 871.7,177.5 872.4,176.9 873.1,177.5 
							"/>
			<line id="tick1" class="st59" x1="864" y1="166.4" x2="872.5" y2="175.6"/>
			<line id="tick2" class="st59" x1="870.5" y1="175.6" x2="889.8" y2="157.8"/>
		</g>
	</g>
	<g>
		<g id="group" class="st60">
			<g>
				<path class="st61" d="M177.1,796.7c0,0,16.3,14.3,17.5,36.7l-3.1,0.3c0,0-5.9-22.7-15.7-31.8c-1.7-1.6-3-3-3.7-3.7
					c-0.8-0.8-20-15.8-12.5-10.1c0.2,0.2,0.4-12.3,1-11.9C161.7,777.1,177.1,796.7,177.1,796.7z"/>
			</g>
			<g id="leaf3_1_">
				<path class="st62" d="M160.6,776.3c0,0,20.1-23.4,1.2-38.3c0,0-13.8-8.3-25-7.7c0,0,15.9,26.7,10.8,29.3
					c-5.1,2.7-15.6-31-15.6-31s-31.3-3-41.4,1.8c0,0,26.8,21.9,21.2,23.2c-5.6,1.3-34.6-20.2-34.6-20.2s-29.2,5-27.6,22.8
					c1.6,17.8,11.6,23.3,16,22.8c4.4-0.5,30.3-10.3,30.8-6.7s-15,15.5-25.9,16c0,0,20.6,22.7,34.2,16.1
					c13.7-6.5,14.8-16.9,23.4-20.8c8.5-3.9,15.8-3.9,12.3,0.1c-3.5,4-18.9,7.8-23.8,16.4c-4.9,8.6-9.2,14.4,4.9,12.3
					c14.1-2.1,37.1-12.5,38.1-24.3C160.6,776.3,160.6,776.3,160.6,776.3z"/>
				<path class="st61" d="M63.8,756.6c0,0,79.2-3.1,96.8,19.6c0,0,4,11.2,16,21.8l-0.8,1.5c0,0-12.3-7.8-16.1-11.4
					C159.6,788.1,167.2,760,63.8,756.6z"/>
			</g>
		</g>
		<g class="st60">
			<g id="leaf2">
				<path class="st63" d="M230.8,746.8c0,0-32-17.9-17.1-42.2c0,0,11.9-14.9,24.7-18.8c0,0-6.8,36.2,0,37.1
					c6.8,0.9,4.7-40.9,4.7-40.9s33.7-16.2,46.9-14.9c0,0-20.9,35.4-14.1,34.5c6.8-0.9,30.3-36.7,30.3-36.7s34.5-6.4,40.1,14.1
					c5.5,20.5-3.4,30.7-8.5,32c-5.1,1.3-37.9,0.9-37.1,5.1c0.9,4.3,23,11.1,35.4,7.2c0,0-13.6,33.7-31.5,32
					c-17.9-1.7-23.4-12.8-34.5-13.6c-11.1-0.9-19.2,2.1-13.6,5.1c5.5,3,24.3,1,33.3,8.6c9,7.6,16.2,12.3-0.4,15.7
					c-16.6,3.4-46.5,1.3-52.4-11.5C230.8,746.8,230.8,746.8,230.8,746.8z"/>
				<path class="st61" d="M330.6,685.4c0,0-89.5,29-99.8,61.4c0,0,0.4,14.5-8.5,31.1v6.4c0,0,9.4-21.7,14.5-24.7
					C236.8,759.6,216.8,731.4,330.6,685.4z"/>
			</g>
			<g>
				<path class="st61" d="M222.3,777.9c0,0-13.8,21-5.9,46.5l3.6-1c0,0-3.4-28.1,3.8-42.2C230.9,767,222.3,777.9,222.3,777.9z"/>
			</g>
		</g>
		<g class="st60">
			<g>
				<path class="st61" d="M192.5,762.6c0,0,16.9,28.2,6.5,61.8l-4.7-1.3c0,0,4.5-37.1-5-55.7c-1.4-2.8-16.3-26.2-16.9-27.8
					c-0.8-2.2,7.8-18.8,7.5-17.5C179.6,723.7,192.5,762.6,192.5,762.6z"/>
				<g id="leaf1_1_">
					<path class="st63" d="M180,722.1c0,0,42.1-23.6,22.5-55.6c0,0-15.7-19.7-32.6-24.7c0,0,9,47.8,0,48.9c-9,1.1-6.2-53.9-6.2-53.9
						s-44.4-21.4-61.8-19.7c0,0,27.5,46.6,18.5,45.5c-9-1.1-39.9-48.3-39.9-48.3s-45.5-8.4-52.8,18.5c-7.3,27,4.5,40.5,11.2,42.1
						c6.7,1.7,50,1.1,48.9,6.7c-1.1,5.6-30.3,14.6-46.6,9.6c0,0,18,44.4,41.6,42.1c23.6-2.2,30.9-16.9,45.5-18
						c14.6-1.1,25.3,2.8,18,6.7c-7.3,3.9-32,1.3-43.8,11.3s-21.4,16.2,0.6,20.7s61.3,1.7,69.1-15.2C180,722.1,180,722.1,180,722.1z"
						/>
					<path class="st61" d="M48.5,641.2c0,0,118,38.2,131.5,80.9c0,0,0.7,18.6,12.5,40.5l-1.3,6.1c0,0-14.1-19.6-19.1-29.8
						C172.1,738.9,198.5,701.8,48.5,641.2z"/>
				</g>
			</g>
		</g>
		<path class="st61" d="M97.7,901.5h167.4l0,0c0-5.6-4.6-10.2-10.2-10.2h-147C102.3,891.3,97.7,895.9,97.7,901.5L97.7,901.5z"/>
		<path class="st63" d="M181.4,897.3c-45.6,0-82.6-37-82.6-82.6h165.1C263.9,860.4,227,897.3,181.4,897.3z"/>
		
			<rect x="97" y="814.8" transform="matrix(-1 -1.224647e-16 1.224647e-16 -1 363.6175 1634.5809)" class="st64" width="169.7" height="5"/>
	</g>
</g>
</svg>
