<svg xmlns="http://www.w3.org/2000/svg" viewBox="0 0 679.26 178.11"><defs><style>.cls-1{fill:#e6e7e7;}.cls-2,.cls-3{fill:#fff;}.cls-3{font-size:134.05px;font-family:Righteous-Regular, Righteous;letter-spacing:-0.02em;}</style></defs><g id="Layer_2" data-name="Layer 2"><g id="Layer_1-2" data-name="Layer 1"><path class="cls-1" d="M150.59,8.54H13.13A13.17,13.17,0,0,0,0,21.67V159.12a13.16,13.16,0,0,0,13.13,13.13H150.59a13.16,13.16,0,0,0,13.13-13.13V21.67A13.17,13.17,0,0,0,150.59,8.54ZM131.27,123.46a4.81,4.81,0,0,1-4.79,4.79,4.79,4.79,0,0,1-4.8-4.79V101a3.77,3.77,0,0,0-3.76-3.77h-.3a3.78,3.78,0,0,0-3.77,3.77v28.31a13.75,13.75,0,1,1-27.49,0V78.94a4.09,4.09,0,0,0-4.08-4.07H82.1A4.08,4.08,0,0,0,78,78.94v36.9a13.75,13.75,0,0,1-27.49.44V101.1a3.65,3.65,0,0,0-3.63-3.64h-.71a3.64,3.64,0,0,0-3.63,3.64V138a5.06,5.06,0,0,1-10.11,0V101.41a13.75,13.75,0,0,1,27.5,0v1.38h0v13a4.12,4.12,0,0,0,4.11,4.1h.25a4.12,4.12,0,0,0,4.11-4.1v-37h0a13.75,13.75,0,0,1,27.49.13v50.51a3.94,3.94,0,0,0,3.92,3.92h0a3.93,3.93,0,0,0,3.92-3.92v-28a13.75,13.75,0,0,1,27.5,0Zm-85.52-60a10,10,0,1,1-10,10A10,10,0,0,1,45.75,63.46ZM38.86,33.82V23a2.88,2.88,0,0,1,2.87-2.87h4.36A2.88,2.88,0,0,1,49,23V33.82a2.88,2.88,0,0,1-2.87,2.87H41.73A2.88,2.88,0,0,1,38.86,33.82ZM72.21,50.94a10,10,0,1,1,10,10A10,10,0,0,1,72.21,50.94Zm45.57,12.52a10,10,0,1,1-10,10A10,10,0,0,1,117.78,63.46Zm-2.49-29.64V23a2.88,2.88,0,0,1,2.87-2.87h4.36A2.88,2.88,0,0,1,125.39,23V33.82a2.88,2.88,0,0,1-2.87,2.87h-4.36A2.88,2.88,0,0,1,115.29,33.82Z"/><path class="cls-2" d="M140.35,18.84H23.43a13.13,13.13,0,0,0-13.09,13.1V148.85A13.14,13.14,0,0,0,23.43,162H140.35a13.14,13.14,0,0,0,13.09-13.1V31.94A13.13,13.13,0,0,0,140.35,18.84ZM115.29,23a2.88,2.88,0,0,1,2.87-2.87h4.36A2.88,2.88,0,0,1,125.39,23V33.82a2.88,2.88,0,0,1-2.87,2.87h-4.36a2.88,2.88,0,0,1-2.87-2.87Zm2.49,40.49a10,10,0,1,1-10,10A10,10,0,0,1,117.78,63.46ZM82.17,41a10,10,0,1,1-10,10A10,10,0,0,1,82.17,41ZM38.86,23a2.88,2.88,0,0,1,2.87-2.87h4.36A2.88,2.88,0,0,1,49,23V33.82a2.88,2.88,0,0,1-2.87,2.87H41.73a2.88,2.88,0,0,1-2.87-2.87Zm6.89,40.49a10,10,0,1,1-10,10A10,10,0,0,1,45.75,63.46Zm85.52,60a4.81,4.81,0,0,1-4.79,4.79,4.79,4.79,0,0,1-4.8-4.79V101a3.77,3.77,0,0,0-3.76-3.77h-.3a3.78,3.78,0,0,0-3.77,3.77v28.31a13.75,13.75,0,1,1-27.49,0V78.94a4.09,4.09,0,0,0-4.08-4.07H82.1A4.08,4.08,0,0,0,78,78.94v36.9a13.75,13.75,0,0,1-27.49.44V101.1a3.65,3.65,0,0,0-3.63-3.64h-.71a3.64,3.64,0,0,0-3.63,3.64V138a5.06,5.06,0,0,1-10.11,0V101.41a13.75,13.75,0,0,1,27.5,0v1.38h0v13a4.12,4.12,0,0,0,4.11,4.1h.25a4.12,4.12,0,0,0,4.11-4.1v-37h0a13.75,13.75,0,0,1,27.49.13v50.51a3.94,3.94,0,0,0,3.92,3.92h0a3.93,3.93,0,0,0,3.92-3.92v-28a13.75,13.75,0,0,1,27.5,0Z"/><rect class="cls-2" x="38.86" width="10.1" height="25.15" rx="1.34"/><rect class="cls-2" x="115.29" width="10.1" height="25.15" rx="1.34"/><text class="cls-3" transform="translate(182.11 143.68)">Picktime</text></g></g></svg>