<svg xmlns="http://www.w3.org/2000/svg" width="361.974" height="404.92" viewBox="0 0 361.974 404.92"><defs><style>.a{opacity:0.1;}.b{fill:#fff;}.c{fill:#454e7c;}.d{fill:#eaaa7f;}.e{fill:#5c79bf;}.f{fill:#6884dd;}.g{fill:#1a1b39;}.h{fill:#d2e0e8;}.i{fill:#f0f2f8;}.j{fill:#8b22e2;}.k{fill:#441512;}.l{fill:#fa0;}.m{fill:#f0938b;stroke:#1c1c1b;stroke-linecap:round;stroke-linejoin:round;stroke-width:1.427px;}.n{fill:#f4a98e;}.o{fill:#ba7343;}.p{fill:#f2866d;}.q{fill:none;stroke:#ba7343;stroke-miterlimit:10;stroke-width:1.033px;}</style></defs><ellipse class="a" cx="53.271" cy="7.875" rx="53.271" ry="7.875" transform="translate(244.158 372.968)"/><path class="b" d="M636.588,308.622q-.286-.377-.544-.772a6.571,6.571,0,0,0-.949-1.143,14.427,14.427,0,0,1-1.216-1.364,12.574,12.574,0,0,0-.867-1.146c-.14-.156-.273-.319-.412-.474a2.046,2.046,0,0,0-.721-.491,2.125,2.125,0,0,0-1.214-.551,1.541,1.541,0,0,0-.486-.084.823.823,0,0,0-.9.393,1.589,1.589,0,0,0-.34.529,1.532,1.532,0,0,0-.251.535,2.462,2.462,0,0,0-.005.944c-.166,1.486,1.134,3.059,2.1,4.123a13.3,13.3,0,0,0,1.226,1.2,3.227,3.227,0,0,0,.748.537c.273.12.549.236.826.347s.529.2.8.287a1.944,1.944,0,0,0,2.049-.7A1.917,1.917,0,0,0,636.588,308.622Z" transform="translate(-419.325 -274.896)"/><path class="b" d="M650.436,295.353c-.033-.193-.076-.383-.112-.575-.011-.059-.072-.518-.082-.547-.011-.131-.023-.27-.026-.3-.016-.193-.03-.385-.049-.578a15.487,15.487,0,0,1-.06-2.53c.026-.39.076-.777.115-1.166a4.139,4.139,0,0,0-.059-1.25,3.65,3.65,0,0,0-.4-1.746,1.943,1.943,0,0,0-1.319-1.31,1.905,1.905,0,0,0-1.686.379,2.574,2.574,0,0,0-1.115.985c-.106.164-.566.78-.052.24a4.591,4.591,0,0,0-1.027,2.9,14.423,14.423,0,0,0,.088,3.115c.313,2.468,1.211,5.6,3.9,6.333a1.411,1.411,0,0,0,1.694-.962A5.687,5.687,0,0,0,650.436,295.353Z" transform="translate(-423.96 -269.847)"/><path class="b" d="M670.493,292.78l-.035-.087q0-.082,0-.164a1.512,1.512,0,0,0-2.251-1.292l-.088.046-.206.033a3,3,0,0,0-.915.485,5.3,5.3,0,0,0-1.422,1.6,21.7,21.7,0,0,0-1.3,2.415,15.973,15.973,0,0,0-1.866,6.061,2.027,2.027,0,0,0,1.477,1.94,2.134,2.134,0,0,0,2.272-.925,28.44,28.44,0,0,0,2.544-4.707c.394-.792.81-1.57,1.19-2.37.095-.2.2-.4.288-.6a3.987,3.987,0,0,0,.351-1.47A2.548,2.548,0,0,0,670.493,292.78Z" transform="translate(-429.186 -271.533)"/><path class="c" d="M721.585,786.5c-2.89.2-10.65,2.514-12.618,4.251s-.578,4.748.927,4.98,17.371,0,19.572,0,2.036-6.7,1.416-8.358-1.879-3.339-2.574-3.223S721.585,786.5,721.585,786.5Z" transform="translate(-442.497 -415.521)"/><path class="d" d="M727.627,764.948s-1.571,13.025-.573,15.311,8.3,2.409,9.3.873-.369-15.342-1.117-17.057S728.927,762.011,727.627,764.948Z" transform="translate(-447.965 -409.276)"/><path class="c" d="M779.326,786.5c-2.89.2-10.65,2.514-12.618,4.251s-.579,4.748.926,4.98,17.371,0,19.572,0,2.036-6.7,1.416-8.358-1.879-3.339-2.574-3.223S779.326,786.5,779.326,786.5Z" transform="translate(-459.358 -415.521)"/><path class="d" d="M784.283,762.982s-.589,14.4.409,16.683,5.578,2.683,6.574,1.147.125-17.112-.623-18.828S785.583,760.046,784.283,762.982Z" transform="translate(-464.724 -408.682)"/><path class="e" d="M718.9,521.657s-8.042,47.786-3.258,73.3,6.573,97.378,2.985,102.959,20.737,2.637,20.737,2.637,8.687-161.781,8.687-175.525C748.054,520.346,718.9,521.657,718.9,521.657Z" transform="translate(-444.287 -338.821)"/><ellipse class="a" cx="100.521" cy="12.97" rx="100.521" ry="12.97" transform="translate(33.143 379.06) rotate(-4.51)"/><path class="f" d="M790.58,696.054l-18.881.7s-22.714-170.97-12.737-175.939c8.084-4.028,28.669-2.891,28.669-2.891s.214,60.11,5.4,107.155S790.58,696.054,790.58,696.054Z" transform="translate(-456.64 -337.737)"/><g transform="translate(0 6.698)"><path class="c" d="M540.744,641.405l-158.159,15.81A14.373,14.373,0,0,1,366.9,644.381l-33.838-338.5A14.372,14.372,0,0,1,345.9,290.195l158.159-15.81a14.372,14.372,0,0,1,15.685,12.834l33.838,338.5A14.373,14.373,0,0,1,540.744,641.405Z" transform="translate(-332.991 -273.341)"/><path class="g" d="M554.469,640.033l-158.159,15.81a14.373,14.373,0,0,1-15.685-12.834l-33.838-338.5a14.374,14.374,0,0,1,12.834-15.685l158.159-15.81a14.373,14.373,0,0,1,15.685,12.834l33.838,338.5A14.374,14.374,0,0,1,554.469,640.033Z" transform="translate(-336.999 -272.94)"/><path class="h" d="M552.851,636.194l-149.8,14.975a10.918,10.918,0,0,1-11.915-9.75L358.12,311.162a10.917,10.917,0,0,1,9.749-11.915l149.8-14.975a10.917,10.917,0,0,1,11.915,9.749L562.6,624.279A10.917,10.917,0,0,1,552.851,636.194Z" transform="translate(-340.313 -276.234)"/><path class="b" d="M551.245,635.276,406.476,649.747A10.918,10.918,0,0,1,394.561,640l-32.58-325.921a10.918,10.918,0,0,1,9.749-11.915L516.5,287.691a10.917,10.917,0,0,1,11.915,9.749l32.58,325.921A10.919,10.919,0,0,1,551.245,635.276Z" transform="translate(-341.441 -277.232)"/><rect class="i" width="154.256" height="73.654" rx="12" transform="translate(35.055 81.293) rotate(-5.709)"/><path class="j" d="M526.134,436.658,396.766,449.59A12.158,12.158,0,0,1,383.5,438.734l-6.426-63.485a12.157,12.157,0,0,1,10.856-13.267L517.3,349.05a12.157,12.157,0,0,1,13.267,10.856l6.425,63.485A12.157,12.157,0,0,1,526.134,436.658Z" transform="translate(-346.287 -299.329)"/><rect class="i" width="64.042" height="73.654" rx="12" transform="translate(39.362 160.915) rotate(-5.709)"/><rect class="i" width="98.552" height="59.716" rx="12" transform="translate(54.045 307.799) rotate(-5.709)"/><rect class="i" width="46.748" height="59.716" rx="12" transform="translate(161.02 297.106) rotate(-5.709)"/><rect class="i" width="83.15" height="73.654" rx="12" transform="matrix(0.995, -0.099, 0.099, 0.995, 110.115, 153.843)"/><rect class="i" width="154.256" height="56.936" rx="12" transform="translate(47.589 243.212) rotate(-5.709)"/><g transform="translate(81.017 77.81)"><path class="b" d="M450.982,403.987a2.118,2.118,0,0,1,.19-1.121l4.983-12.093-.006-.069-7.141.714a1.385,1.385,0,1,1-.276-2.755l8.575-.857a1.878,1.878,0,0,1,2.256,1.687,4.4,4.4,0,0,1-.45,2.109l-4.957,12.473a1.557,1.557,0,0,1-1.449,1.165A1.44,1.44,0,0,1,450.982,403.987Z" transform="translate(-447.424 -380.288)"/><path class="b" d="M466.022,407.7a1.858,1.858,0,1,1,2.033,1.663A1.842,1.842,0,0,1,466.022,407.7Z" transform="translate(-452.852 -385.505)"/><path class="b" d="M474.446,400.186a2.517,2.517,0,0,1-.373-1.065,1.389,1.389,0,0,1,1.381-1.611,1.526,1.526,0,0,1,1.56.76A3.194,3.194,0,0,0,480.4,399.8c1.7-.169,2.772-1.274,2.634-2.651-.149-1.609-1.421-2.386-3.43-2.185l-.723.072a1.243,1.243,0,1,1-.247-2.468l.678-.068c1.734-.173,2.765-1.228,2.629-2.582-.134-1.332-1.118-2.126-2.794-1.958a2.783,2.783,0,0,0-2.615,2.035,1.537,1.537,0,0,1-1.453,1.224,1.315,1.315,0,0,1-1.6-1.255,2.643,2.643,0,0,1,.141-1.138c.573-1.692,2.32-3.235,5.248-3.528,3.5-.35,6.041,1.148,6.305,3.8a3.983,3.983,0,0,1-3.068,4.226l.007.069c2.491-.018,4.232,1.27,4.46,3.554.3,3.007-2.106,5.266-5.951,5.65C477.467,402.91,475.389,401.738,474.446,400.186Z" transform="translate(-455.03 -379.545)"/><path class="b" d="M494.154,392.452c-.535-5.35,1.72-8.892,5.9-9.309s7.077,2.6,7.612,7.946-1.679,8.946-5.881,9.366S494.69,397.813,494.154,392.452Zm9.988-1c-.377-3.777-1.779-5.735-3.811-5.532s-3.029,2.414-2.653,6.179c.38,3.8,1.785,5.781,3.828,5.578S504.522,395.254,504.142,391.453Z" transform="translate(-461.047 -378.92)"/><path class="b" d="M523.533,396.444l-1.318-13.18a1.627,1.627,0,0,1,1.553-1.976l5.005-.5a5.438,5.438,0,0,1,6.307,5.1c.34,3.4-1.855,5.914-5.345,6.263l-3.1.309L527,396.1a1.743,1.743,0,1,1-3.467.347Zm5.174-6.93c1.987-.2,3.04-1.371,2.85-3.265s-1.441-2.824-3.427-2.626l-2.354.236.589,5.89Z" transform="translate(-469.26 -378.233)"/><path class="b" d="M544.071,394.137l-1.315-13.157a2.063,2.063,0,0,1,2.015-2.462,2.316,2.316,0,0,1,2.555,1.553l5.127,9.772.093-.01,3.08-10.592a2.346,2.346,0,0,1,2.221-2.031,2.055,2.055,0,0,1,2.45,2.016l1.315,13.157a1.554,1.554,0,1,1-3.088.309l-.978-9.782-.091.009-3.1,10.432a1.47,1.47,0,0,1-1.376,1.2,1.5,1.5,0,0,1-1.608-.894l-5.1-9.624-.092.009.978,9.781a1.553,1.553,0,1,1-3.088.309Z" transform="translate(-475.258 -377.194)"/></g><path class="b" d="M404.747,430.891c-17.915,1.791-1.112,28.474,2.808,28.082C412.313,458.5,422.663,429.1,404.747,430.891Zm1.5,13.884a4.876,4.876,0,1,1,4.815-5.362A5.105,5.105,0,0,1,406.247,444.774Z" transform="translate(-351.578 -319.041)"/><circle class="b" cx="9.366" cy="9.366" r="9.366" transform="translate(41.287 105.695) rotate(-85.143)"/><path class="j" d="M408.833,404.252c-.1-.4-.578-.7-.877-.963-.281-.251-.554-.509-.827-.77-.566-.54-1.14-1.07-1.712-1.6-.014-.013-.035-.016-.05-.028q-.284-2.8-.579-5.6a.57.57,0,0,0-1.134.113c.188,1.961.373,3.923.568,5.884a.747.747,0,0,0,.089.613.511.511,0,0,0,.266.3l.188.176a3.657,3.657,0,0,0,.51.476c.306.287.61.576.92.859.27.247.542.493.82.731.147.125.292.253.447.367a2.625,2.625,0,0,0,.338.211.857.857,0,0,0,.393.086.58.58,0,0,0,.07,0c.015,0,.028,0,.043,0V405.1a.52.52,0,0,0,.166-.03A.654.654,0,0,0,408.833,404.252Z" transform="translate(-353.624 -304.522)"/><circle class="i" cx="10.083" cy="10.083" r="10.083" transform="translate(31.332 42.594) rotate(-50.887)"/><path class="i" d="M582.161,303.111a5.041,5.041,0,1,1-5.518-4.515A5.041,5.041,0,0,1,582.161,303.111Z" transform="translate(-402.815 -280.425)"/><path class="b" d="M579.09,429.35a5.041,5.041,0,1,1-5.518-4.516A5.041,5.041,0,0,1,579.09,429.35Z" transform="translate(-401.918 -317.288)"/><path class="i" d="M561.687,305.158a5.041,5.041,0,1,1-5.517-4.515A5.041,5.041,0,0,1,561.687,305.158Z" transform="translate(-396.836 -281.023)"/><path class="i" d="M541.214,307.205a5.041,5.041,0,1,1-5.518-4.516A5.041,5.041,0,0,1,541.214,307.205Z" transform="translate(-390.858 -281.62)"/><path class="g" d="M482.779,308.325a3,3,0,1,1-3.28-2.684A3,3,0,0,1,482.779,308.325Z" transform="translate(-374.985 -282.485)"/><path class="b" d="M499.189,435.046l-55.314,5.529a2.464,2.464,0,0,1-2.689-2.2h0a2.463,2.463,0,0,1,2.2-2.688l55.314-5.529a2.463,2.463,0,0,1,2.688,2.2h0A2.463,2.463,0,0,1,499.189,435.046Z" transform="translate(-364.582 -318.846)"/><path class="b" d="M517.68,445l-72.567,7.254a2.463,2.463,0,0,1-2.688-2.2h0a2.463,2.463,0,0,1,2.2-2.688l72.567-7.255a2.465,2.465,0,0,1,2.689,2.2h0A2.464,2.464,0,0,1,517.68,445Z" transform="translate(-364.944 -321.752)"/><rect class="g" width="5.906" height="33.045" rx="2.293" transform="translate(6.703 78.514) rotate(-5.707)"/><rect class="g" width="5.906" height="33.045" rx="2.293" transform="translate(10.96 121.105) rotate(-5.706)"/></g><path class="k" d="M747.957,263.514c-3.906.15-11.7,5.316-14.353,11.562s1.39,16.536,12.19,21.291,2.694,7.546.7,11.135-5.183,17.941,15.948,37.077,2.79,32.16,4.252,39.47,2.126,28.572,29.636,16.213,10.366-44.519,7.309-46.246-9.835-18.074-6.247-34.686-12.226-21-15.15-29.9C779.912,282.33,773.308,262.544,747.957,263.514Z" transform="translate(-449.745 -263.479)"/><path class="k" d="M735.711,264.037c3.837-.741,12.6,2.522,16.6,8s2.4,16.42-7.037,23.5-.91,7.961,1.846,11,9.121,16.3-7.112,39.729,4.584,31.954,4.82,39.4,4.417,28.309-25.18,22.518-20.2-41-17.618-43.38,5.474-19.834-1.793-35.2,7.14-23.225,7.966-32.56C708.862,289.617,710.8,268.848,735.711,264.037Z" transform="translate(-439.636 -263.612)"/><g transform="translate(217.319 23.294)"><path class="d" d="M815.048,412.326c-1.853-1.544-10.938,8.889-10.938,8.889s7.837,14.724,8.919,17.5-6.145,36.352-7.226,38.05c-2.046,1.313-6.91,2.355-7.489,3.4-.53.954.794,2.179,3.149,1.941-1.953,2.364-3.841,4.758-4,5.625-.309,1.7,1.544,1.544,1.544,1.544s-.618,2.625.463,3.4a2.73,2.73,0,0,0,2.471.154,4.447,4.447,0,0,0,1.389,2.007,1.945,1.945,0,0,0,1.853.155,3.86,3.86,0,0,0,1.7,1c1.08.309,4.014-2.856,5.867-7.488a53.785,53.785,0,0,0,2.471-8.029c.617-2.008,10.309-33.166,10.618-43.357S816.9,413.87,815.048,412.326Z" transform="translate(-685.932 -330.193)"/><path class="d" d="M695.368,411.374l-6.949,16.213s-.772,21.54,6.022,17.371,10.963-12.429,13.433-21.231,0-11.118-1.235-11.735S695.368,411.374,695.368,411.374Z" transform="translate(-654.092 -329.96)"/><path class="l" d="M716.926,374.47c-12.2,2.625-20.074,17.448-22.389,24.4,0,0,5.868,10.346,15.132,12.2,0,0,4.089,60.124.847,65.991,0,0,2.242,6.118,30.5,5.192S769.331,475,769.331,475s-4.074-50.966-2.221-67.951c0,0,6.709,5.392,7.944,6.627s11.771-4.433,14.51-9c.927-1.544-8.4-20.173-12.263-24.187s-10.809-5.4-17.448-7.258-24.86,2.471-25.478,2.316S716.926,374.47,716.926,374.47Z" transform="translate(-655.886 -318.688)"/><path class="d" d="M738.823,354.277s.1,6.741-2.78,9.573-9.882,4.632-9.882,4.632,7.088,16.683,23.162,16.059c15.9-.617,19.764-17.294,19.764-17.294s-7.412-2.007-10.5-3.551-3.551-11.426-3.551-11.426Z" transform="translate(-665.121 -312.701)"/><path class="d" d="M658.741,379.567s2.162,23.162,5.559,37.985,12.893,15.518,21.077,11.812-.154-7.8-4.324-18.76-10.345-31.191-11.735-35.515,3.4-11.118-3.706-15.9c-5.617-3.785-7.721,2.471-8.184,2.78S658.741,379.567,658.741,379.567Z" transform="translate(-645.027 -314.366)"/><path class="g" d="M640.1,327.408l11.966,37.1a3.161,3.161,0,0,0,3.319,2.175l14.592-1.9a3.161,3.161,0,0,0,2.791-3.756l-9.379-37.7a3.161,3.161,0,0,0-3.557-2.517l-17.179,2.5A3.161,3.161,0,0,0,640.1,327.408Z" transform="translate(-639.944 -303.504)"/><path class="c" d="M681.019,361.027l-9.379-37.7a3.154,3.154,0,0,0-3.434-2.523,3.2,3.2,0,0,1,2.089,2.4l9.542,38.356a3.2,3.2,0,0,1-1.164,3.13A3.15,3.15,0,0,0,681.019,361.027Z" transform="translate(-648.197 -303.508)"/><path class="d" d="M657.267,379.643c-5.5.549-9.728-11.118-8.8-15.75s6.082-8.362,11.117-9.033c3.475-.463,3.011,1.621,2.548,2.78s-4.169,2.78-5.327,6.254c0,0,3.706-3.011,5.79-3.243s2.548,2.316,1.39,3.706-4.4,5.791-4.864,8.106c0,0,3.011-2.547,5.327-2.78s2.085,1.39,1.158,2.78S661.9,379.179,657.267,379.643Z" transform="translate(-642.395 -313.438)"/><path class="m" d="M741.428,357.286" transform="translate(-669.579 -314.166)"/><path class="d" d="M761.509,310.924s4.5-3.731,4.652,2.553c.149,6.256-2.564,7.05-4.487,6.908,0,0-2.774,22.377-16.868,22.023-18.134-.455-18.85-24.978-18.439-36.279,0,0,2.617-6.666,7.754-9.748,0,0,10.068,9.452,13.562,10.274s3.9-3.7,3.9-3.7S754.933,309.9,761.509,310.924Z" transform="translate(-665.16 -296.381)"/><path class="n" d="M663.9,359.735a3.72,3.72,0,0,0-1.829.939A13.044,13.044,0,0,0,660.633,362a15.054,15.054,0,0,0-2.374,3.306c-.287.556-.745,1.374-.523,2.022.263.767,1.008-.1,1.209-.426.365-.583.642-1.22,1-1.807a13.927,13.927,0,0,1,1.094-1.551,16.518,16.518,0,0,1,1.575-1.674,7.182,7.182,0,0,0,1.591-1.6A.36.36,0,0,0,663.9,359.735Z" transform="translate(-645.123 -314.881)"/><path class="n" d="M668.3,368.59c-.089-.225-.092-.4-.41-.44-.423-.05-.782.331-1.017.623a24.456,24.456,0,0,0-1.882,2.861q-.889,1.486-1.672,3.029c-.255.5-.515,1-.741,1.517a2.608,2.608,0,0,0-.372,1.6.312.312,0,0,0,.452.183,2.317,2.317,0,0,0,.822-1.056c.222-.423.425-.856.641-1.283.457-.9.94-1.794,1.436-2.677.483-.859.99-1.7,1.512-2.538a9.549,9.549,0,0,1,1.116-1.732C668.241,368.7,668.326,368.663,668.3,368.59Z" transform="translate(-646.434 -317.337)"/><path class="n" d="M668.3,384.539a12,12,0,0,1-.793,1.173,5.547,5.547,0,0,1-.392.45,5.786,5.786,0,0,1-.525.478.466.466,0,0,1-.054.042c-.05.037-.1.073-.151.108q-.139.1-.282.188c-.2.127-.409.236-.616.349a6.265,6.265,0,0,0-.633.37c-.077.054-.171.093-.254.147a1.233,1.233,0,0,0-.241.256.176.176,0,0,0,.035.273,1.13,1.13,0,0,0,.341.147,3.017,3.017,0,0,0,.376,0,1.975,1.975,0,0,0,.813-.159,5.164,5.164,0,0,0,1.434-.869,4.79,4.79,0,0,0,1.708-2.634A.421.421,0,0,0,668.3,384.539Z" transform="translate(-647.061 -322.064)"/><path class="c" d="M646.408,329.521a.939.939,0,0,0-.38-.676c-.809-.615-2.089.154-1.626,1.167a1.118,1.118,0,0,0,1.549.462A1.081,1.081,0,0,0,646.408,329.521Z" transform="translate(-641.217 -305.797)"/><path class="c" d="M650.333,331.157a.933.933,0,0,0-.38-.676c-.809-.615-2.089.154-1.625,1.166a1.119,1.119,0,0,0,1.549.463A1.083,1.083,0,0,0,650.333,331.157Z" transform="translate(-642.364 -306.274)"/><path class="c" d="M647.635,333.937a.937.937,0,0,0-.38-.676c-.809-.615-2.09.154-1.626,1.166a1.119,1.119,0,0,0,1.549.463A1.084,1.084,0,0,0,647.635,333.937Z" transform="translate(-641.576 -307.086)"/><path class="o" d="M802.693,514.132c-.013-.028-.018-.031-.021-.033s0-.018-.01-.05a.163.163,0,0,0-.238-.1c-.025.017-.092.067-.023.032-.073.036-.15.023-.224.079a1.126,1.126,0,0,0-.236.292,5.752,5.752,0,0,0-.363.711c-.229.5-.477.992-.734,1.479s-.512.94-.783,1.4c-.135.23-.265.464-.38.705a1.239,1.239,0,0,0-.111.329,1.2,1.2,0,0,1-.057.334.1.1,0,0,0,.149.115,1.474,1.474,0,0,1,.326-.173,1.142,1.142,0,0,0,.268-.219,5.812,5.812,0,0,0,.537-.663c.318-.451.61-.916.883-1.4s.5-.944.726-1.429a4.534,4.534,0,0,0,.311-.817,1.365,1.365,0,0,0,.057-.377A.552.552,0,0,0,802.693,514.132Z" transform="translate(-686.537 -359.908)"/><path class="o" d="M807.334,518.165a.314.314,0,0,0-.384-.217,1.619,1.619,0,0,0-.576.508,4.9,4.9,0,0,0-.491.766q-.438.737-.908,1.453c-.3.463-.622.919-.918,1.387a6.094,6.094,0,0,0-.447.758c-.049.111-.1.224-.143.337s-.037.246-.081.353.1.2.186.142.2-.072.29-.137c.113-.079.223-.164.331-.251a4.546,4.546,0,0,0,.566-.6,15.145,15.145,0,0,0,1.065-1.436q.479-.711.924-1.445a5.84,5.84,0,0,0,.411-.743c.059-.139.079-.284.125-.426A.749.749,0,0,0,807.334,518.165Z" transform="translate(-687.669 -361.077)"/><path class="o" d="M812.579,518.943a.14.14,0,0,0-.258-.07c-.677,1.156-1.091,2.455-1.743,3.63a17.916,17.916,0,0,1-1.058,1.671c-.195.274-.423.529-.593.818a2.088,2.088,0,0,0-.229.443.859.859,0,0,1-.1.321c-.028.041.029.1.07.07a.949.949,0,0,1,.315-.111,1.53,1.53,0,0,0,.4-.252,4.6,4.6,0,0,0,.734-.759,12.758,12.758,0,0,0,1.224-1.757A7.393,7.393,0,0,0,812.579,518.943Z" transform="translate(-689.19 -361.332)"/></g><g transform="translate(286.006 36.415)"><circle class="p" cx="2.468" cy="2.468" r="2.468" transform="translate(0 7.252)"/><circle class="p" cx="2.324" cy="2.324" r="2.324" transform="translate(14.013 7.849)"/><path class="q" d="M749.068,326.044l-.861,5.486a1.138,1.138,0,0,0,.93,1.281l1.82.321" transform="translate(-740.242 -318.164)"/><path class="q" d="M746.092,343.448s.641,3.157,4.673,3.083,4.442-4.883,4.442-4.883" transform="translate(-739.628 -322.72)"/><circle class="o" cx="1.323" cy="1.323" r="1.323" transform="translate(2.084 0.627)"/><circle class="o" cx="1.323" cy="1.323" r="1.323" transform="translate(13.432 0)"/></g><path class="a" d="M743.471,359.315s12.492.8,17.01-1.063c.246-.1.93,4.253,2.791,6.911S743.471,359.315,743.471,359.315Z" transform="translate(-452.856 -291.153)"/><path class="a" d="M696.676,413.8l10.366,19.934s4.841-10.315,3.19-10.565C703.653,422.175,695.381,413.244,696.676,413.8Z" transform="translate(-439.152 -307.368)"/><path class="a" d="M795.13,419.035l-3.841-5.222s-.789,57.472-.8,77.344c0,.537,4.816-1.994,7.06-3.929C793.218,459.578,795.13,419.035,795.13,419.035Z" transform="translate(-466.587 -307.379)"/><path class="a" d="M809.788,427.734l2.763,4.714,9.59-13S814.99,426.271,809.788,427.734Z" transform="translate(-472.222 -309.023)"/><path class="a" d="M689.855,428.721s2.631,11.3,2.166,13-.928-15.167-.928-15.167Z" transform="translate(-437.2 -311.1)"/></svg>