<svg xmlns="http://www.w3.org/2000/svg" width="81.922" height="73.9" viewBox="0 0 81.922 73.9"><defs><style>.a{fill:#d6b3f5;}.b{stroke:#000;stroke-width:1.7px;}</style></defs><g transform="translate(0.85 0.85)"><circle class="a" cx="6.5" cy="6.5" r="6.5" transform="translate(10 30)"/><circle class="a" cx="6.5" cy="6.5" r="6.5" transform="translate(56 13)"/><g transform="translate(-2 -5)"><g transform="translate(2 5)"><path class="b" d="M74.2,5H10.022A8.03,8.03,0,0,0,2,13.022V54.47a8.03,8.03,0,0,0,8.022,8.022H30.078V66.5H23.393a6.693,6.693,0,0,0-6.685,6.685v2.674A1.337,1.337,0,0,0,18.044,77.2H66.178a1.336,1.336,0,0,0,1.337-1.337V73.189A6.693,6.693,0,0,0,60.83,66.5H54.145V62.493H74.2a8.03,8.03,0,0,0,8.022-8.022V13.022A8.03,8.03,0,0,0,74.2,5ZM10.022,7.674H74.2a5.354,5.354,0,0,1,5.348,5.348v36.1H4.674v-36.1A5.354,5.354,0,0,1,10.022,7.674ZM64.841,73.189v1.337H19.382V73.189a4.016,4.016,0,0,1,4.011-4.011H60.83A4.016,4.016,0,0,1,64.841,73.189ZM51.47,66.5H32.752V62.493H51.47ZM74.2,59.819H10.022A5.354,5.354,0,0,1,4.674,54.47V51.8H79.548V54.47A5.354,5.354,0,0,1,74.2,59.819Z" transform="translate(-2 -5)"/><path class="b" d="M47.4,42H23.337a1.337,1.337,0,1,0,0,2.674H47.4A1.337,1.337,0,1,0,47.4,42Z" transform="translate(4.741 7.47)"/><path class="b" d="M16.348,40.067a5.317,5.317,0,0,0,4.98-7.26l10.322-7.379a5.1,5.1,0,0,0,4.92,1.027l2.713,4.515a5.361,5.361,0,1,0,8.786,1.837l10.322-7.379A5.288,5.288,0,0,0,61.807,26.7a5.394,5.394,0,1,0-4.98-3.436L46.505,30.639a5.288,5.288,0,0,0-3.416-1.269,5.229,5.229,0,0,0-1.5.242L38.873,25.1a5.361,5.361,0,1,0-8.787-1.837L19.764,30.639a5.291,5.291,0,0,0-3.416-1.269,5.348,5.348,0,1,0,0,10.7ZM61.807,18.674a2.674,2.674,0,1,1-2.674,2.674A2.677,2.677,0,0,1,61.807,18.674ZM45.763,34.719a2.674,2.674,0,1,1-2.674-2.674A2.677,2.677,0,0,1,45.763,34.719Zm-10.7-16.044a2.674,2.674,0,1,1-2.674,2.674A2.677,2.677,0,0,1,35.067,18.674ZM16.348,32.044a2.674,2.674,0,1,1-2.674,2.674A2.677,2.677,0,0,1,16.348,32.044Z" transform="translate(1.033 -1.293)"/></g></g></g></svg>