<svg version="1.1" id="Layer_1" xmlns="http://www.w3.org/2000/svg" x="0" y="0" viewBox="0 0 1000 612.7" style="enable-background:new 0 0 1000 612.7" xml:space="preserve"><style>.st3{fill:#fbac0b}.st5{fill:#fff}.st7{fill:#333}.st8{opacity:.71;fill:#656666}.st10{fill:#3d3d3d}.st11{fill:#f1f2f2}.st12,.st13{opacity:.93;fill:#6b2fb2}.st13{opacity:.74}.st15{fill:#e6e7e8}.st17{opacity:.71;fill:#6b2fb2}.st19{fill:#fefefe}.st21{fill:#f9514d}.st23{fill:#fc9}.st24{fill:#683521}.st28{fill:#e59967}.st29{fill:#1a2c36}.st34{fill:#3f3f3f}.st40{opacity:.71}.st41{fill:#7fb576}.st43{fill:#f0a24f}</style><path d="M51.2 592.6s-100.1-251.7 94.3-381.5c0 0-8.7-9.1 85.1-146.9 76-111.6 192-18.2 295.3-42.2s208.2 38 235 109.3c26.8 71.3 59.3 136.5 130.1 140.3 70.8 3.8 152.5 163.3 56.1 298.6l-25.6 23.9-870.3-1.5z" style="opacity:.51;fill:#c9aef4"/><path d="M51.2 592.7S-48.9 352 145.5 227.9c0 0-8.7-8.7 85.1-140.4 76-106.7 192-17.4 295.3-40.3S734 83.5 760.8 151.7c26.8 68.2 59.3 130.5 130.1 134.1S1043.4 442 947 571.4l-25.6 22.9-870.2-1.6z" style="fill:#c9aef4"/><path d="M221.9 594.2s-20-57.9 15-43.2c35 14.7 38.8 28.3 28.6 0-10.2-28.3-37.2-48.1-3.8-61.4 33.4-13.3 53.2-2.6 58.8-28.9s33.1-50 66.2-33.7c33.1 16.3 68.5 46.9 82.8 26.1 14.3-20.8 26.5-27.5 45.2-1 18.8 26.5 26.4 43.2 23.7 68-2.7 24.7 17.2 37.1 41.5 31s91 24.2 62.5 42.7l-420.5.4z" style="fill:#89b97e"/><path class="st3" d="M760.2 422.3h213v170.3h-213z"/><path style="fill:#e5970c" d="M922.5 422.3h50.8v170.3h-50.8z"/><path class="st5" d="M792.2 494.9H891v25.6h-98.8z"/><path transform="rotate(-90 841.632 510.068)" class="st5" d="M792.2 497.3H891v25.6h-98.8z"/><path style="fill:#699eee" d="M29.9 389.6h108v88.9h-108z"/><path class="st7" d="m360.7 504.4-6.8 72.5s-4.1 21.9 28.7 16.4l116 .9s-36.8-2.2-36.8-21.4 1.4-68.4 1.4-68.4H360.7z"/><path class="st8" d="m366.7 504.4-6.5 72.5s-3.9 21.9 27.5 16.4l111.1.9s-35.2-2.2-35.2-21.4 1.3-68.4 1.3-68.4h-98.2z"/><path d="m362.6 549.3 102-35.3s1.3 26.3-.8 38.7c-.7 4.2-101.1 35.2-101.1 35.2s-2.4-13.1-.1-38.6z" style="fill:#656666"/><path class="st7" d="M118.8 106.6h504.5L726.6 514H211.7z"/><path class="st10" d="M124.3 106.6h499.9l99.1 397.8H216.5z"/><path class="st8" d="M128.3 106.6h495l79.3 319.6H202.2z"/><path class="st11" d="M147.7 123h457.8L682 412.8H215.8z"/><path class="st12" d="M147.7 123h457.8l8.6 32.8H155.9z"/><path class="st13" d="M159.7 174.7h459.4l3.7 13.7H162.9z"/><ellipse transform="rotate(-13.615 473.142 467.96)" cx="473.1" cy="467.8" rx="12.7" ry="15.2" style="fill:#232323"/><circle class="st11" cx="553.2" cy="139.4" r="3.2"/><circle class="st11" cx="568.1" cy="139.4" r="3.2"/><circle class="st11" cx="583" cy="139.4" r="3.2"/><g><path class="st15" d="M169.7 212.5h459.6v1.2H169.7zM175.2 236.5h460.4v1.2H175.2zM181.2 262.3h461.3v1.2H181.2zM187.2 288.4h462.1v1.2H187.2zM192.8 312.6h462.9v1.2H192.8zM197.8 334.1h463.6v1.2H197.8zM203.9 360.7h464.5v1.2H203.9z"/><path transform="matrix(1 -.00781 .00781 1 -3.017 3.47)" class="st15" d="M210.4 387.2h464.5v1.2H210.4z"/><path transform="rotate(-13.27 236.948 300.665)" class="st15" d="M236.3 185.3h1.2v230.6h-1.2z"/><path transform="rotate(-13.279 286.536 300.593)" class="st15" d="M286 185.3h1.2v230.6H286z"/><path transform="rotate(-13.079 333.292 300.591)" class="st15" d="M332.7 185.4h1.2v230.4h-1.2z"/><path transform="rotate(-12.967 379.497 300.552)" class="st15" d="M379 185.5h1.2v230.3H379z"/><path transform="rotate(-13.597 426.51 300.561)" class="st15" d="M426 185.2h1.2v230.9H426z"/><path transform="rotate(-13.999 470.69 300.614)" class="st15" d="M470.1 185h1.2v231.3h-1.2z"/><path transform="rotate(-13.079 517.83 300.587)" class="st15" d="M517.3 185.4h1.2v230.4h-1.2z"/><path transform="rotate(-12.88 564.557 300.58)" class="st15" d="M564 185.5h1.2v230.2H564z"/><path transform="rotate(-12.839 609.947 300.644)" class="st15" d="M609.5 185.5h1.2v230.2h-1.2z"/></g><g style="opacity:.76"><path class="st17" d="M221.9 237.1h49.7l6.1 25.8H228zM310.7 213.1h49l6 25.5h-49zM462.5 262.4H509l5.7 25.5h-46.5zM427.7 312h46.4l5.7 23h-46.4zM475.1 312h44.2l5.5 23h-44.3zM449 213.9h46.5l5.7 23h-46.5z"/></g><path style="opacity:.44;fill:#2b4489" d="M29.9 389.6h23.2v88.9H29.9z"/><path class="st19" d="M70.5 426.9h51.3v15.9H70.5z"/><path class="st13" d="M36.9 478.5h139.6v114.1H36.9z"/><path style="opacity:.33;fill:#3d3d3d" d="M36.9 478.5h33.7v114.1H36.9z"/><g><path transform="rotate(41.918 125.978 535.525)" class="st19" d="M118 502.7h16v65.7h-16z"/><path transform="rotate(138.082 125.994 535.513)" class="st19" d="M118 502.7h16v65.7h-16z"/></g><g><path transform="rotate(-180 922.465 369.943)" class="st21" d="M857.6 318.1h129.7v103.7H857.6z"/><path transform="rotate(-180 873.066 369.943)" style="opacity:.18;fill:#3d3d3d" d="M857.6 318.1h30.9v103.7h-30.9z"/><path class="st5" d="M908.7 361.5h60.7v16.8h-60.7z"/><circle class="st5" cx="939.4" cy="343.2" r="7.5"/><circle class="st5" cx="939.4" cy="395.2" r="7.5"/></g><g><path class="st23" d="M759 476.9s5.5 10.6 4.4 18c-1.1 7.4-5.3 17.3-5.3 17.3s14.6-6.6 19.3-21.5l-9.7-17.8-8.7 4z"/><path class="st12" d="M758.2 510.1s-9.5 13.7 0 8.9c8.1-4 20.3-19.8 23.9-24.5.7-.9.8-2.1.2-3-1.2-2.2-3.7-5.3-6.6-2.1-4 4.6 1.6 11.4-17.5 20.7z"/><path class="st7" d="m736.5 427.2 22.8 54.1 10.3-4.4-10.3-68.5s-13.5-12.2-19 0c-5.4 12.2-3.8 18.8-3.8 18.8z"/><path class="st23" d="M689.8 465.2s-5.1 12.3-15.4 13.7c0 0-3.7 3.3 7.7 4.4 11.4 1.1 14.3 1.8 15.8-2 1.5-3.9 2.9-11.6 2.9-11.6l-11-4.5z"/><path class="st12" d="M676.2 477.4s-14-.7-11 3.9 11.2 6.7 18.4 7.9c4.7.8 10.7.1 13.6.1 1.2 0 2.2-.8 2.4-1.9.6-2.2 1-5.7-1.7-6-4-.7-14.3 5.6-21.7-4z"/><path class="st10" d="M828.8 393s8.7 33.1-17.3 29.2-59.5-13.8-59.5-13.8-11.6 31-38.1 49.2l-11.6 14.9-13.8-5 45.2-82.2s7.2-17.3 37.5-6.9l29.8 6.9 27.8 7.7z"/><path class="st24" d="M776 270.3s-.4 7.3 2.7 13.9 9.6 7.4 9.6 7.4 1.4-4.6 1.7-5.4c.3-.8-1.7-8-1.7-8l-5.3-3.3-7-4.6z"/><path class="st23" d="m719.1 327.4-3.3-1.3s-1.9-9.2-13-7.8c-11 1.4-4.1 11.6 0 12.1 4.1.6 7.4 0 7.4 0l7.2 5.3 1.7-8.3z"/><ellipse transform="rotate(-72.993 788.415 262.042)" class="st23" cx="788.5" cy="262" rx="18.9" ry="11.8"/><path class="st23" d="M785.6 272.4V297l19.9-7-4.6-26.4z"/><path class="st24" d="m777.8 259 7.8-13.3s3.9 12.3 9.9 13.3c6.1 1 6.3 4.5 5.5 9.6s4.5 15.6 4.5 15.6 21.5.6 27 26.5c0 0 6.6-6.1 3.9-13.8-2.8-7.7-17.7-16.7-18.2-25.5s1.7-33.6-10.8-36.9c-12.4-3.3-18.2-4.4-27.2 5.5-8.6 9.6-2.4 19-2.4 19z"/><path class="st12" d="M841.6 364h-12.8c9 9 4.8 31.3 4.8 31.3-1.7 1.6-7.2.9-14.2-.9-17.5-4.5-54.2-17.3-54.2-17.3-5-13.6-11-21.6-11-21.6l-40.3-19.7 5-11.7s21 11 28.7 11.7c7.7.6 6.6 0 6.6 0s4.4-18.8 10.5-34.3c6.1-15.5 21-17.1 21-17.1-1.1 14.3 19.9 0 19.9 0 20.6 0 27 26.5 27 26.5l9.1 38.1c4.1 9.8-.1 15-.1 15z"/><path class="st23" d="M792.2 352.8s-8.6-4.1-13.6 0c-4.9 4.1-5.2 7.1-1.3 8.8 3.9 1.7 12.7-.8 12.7-.8l2.2-8z"/><path style="fill:#1b4589" d="M725.2 337.8h56.6L790 375h20.2v2h-75.3z"/><circle cx="756.9" cy="356.8" r="4" style="opacity:.71;fill:#639ae9"/><ellipse transform="rotate(-68.556 800.73 261.174)" class="st23" cx="800.8" cy="261.2" rx="4.6" ry="3.2"/><path d="M792.2 350.8s-8.9 11.3 0 10.8c8.8-.5 36.6 2.4 36.6 2.4s20.8 5.9 12.8-15.1l-12.8-45.2s-15.1-12-17.8 4.5c-2.8 16.5 9.9 32.1 9.9 32.1l2.2 3-30.9 7.5z" style="opacity:.93;fill:#582999"/></g><path class="st10" d="M974.8 600.3h-953c-1.7 0-3.1-1.4-3.1-3.1v-1.7c0-1.7 1.4-3.1 3.1-3.1h953c1.7 0 3.1 1.4 3.1 3.1v1.7c0 1.8-1.4 3.1-3.1 3.1z"/><g><path class="st28" d="m248.8 563.3 1.8 23.5s5.3 4 8.6 1.1l-1.6-24.6h-8.8zM312 563.3s7.7 8.8 6.6 12.9c0 0 14.7 12.1 22.4 12.9 0 0-19.1-23.1-21-27.9l-8 2.1z"/><path class="st21" d="M318.1 572.5s-3.5 6.2-1.7 10.7c1.8 4.4 3.3 9.6 3.3 9.6h4v-7.4s5.1 1.1 6.3 5.5c1.1 4.4 14.7 4 14.7 4s2.2-3.4-5.5-8.2c-7.7-4.6-15-4.9-21.1-14.2zM250.4 583.8s-3.2 7.9 1.8 9.7c5.1 1.8 8.7 0 8.7 0s2.8-1.8-1.7-8.1c0 0-.3 3.3-8.8-1.6z"/><path class="st28" d="m256.1 296.7-2.1 25s2.5 10.7 14.7 6.3c12.2-4.4 4.2-11.4 4.2-11.4l-2-9.2-14.8-10.7z"/><ellipse class="st28" cx="269.2" cy="294" rx="11.6" ry="16.1"/><path class="st29" d="M259.2 294s9.7-4.8 12-9.9c2.3-5.1 5.5 1.8 5.5 1.8l3.8 11.4s3.6-16.2-4.9-23.9c-8.5-7.7-17.5-11-23.4-6.6-6 4.4-10.8 10.8-11.1 22.3-.4 11.5 0 15.2-14 18.5 0 0-21 8.5-21.3 24.6 0 0 8.6 18 24 23.5 0 0-2.6-32.7 13.8-37.2 16.3-4.4 12.2-2.6 12.2-2.6V294h3.4z"/><path d="M252.2 319.8c3.5 1.8 23.2-1.8 23.2-1.8s15.3 23.6 9.4 62.8l-.7 32.5-28.4 1.5s10.8-56.3 6-67.7-9.5-27.3-9.5-27.3z" style="fill:#e5f1fd"/><path d="M232.6 407s-4.4 44.5 0 72.1 14 85.7 14 85.7h15.1l2.2-98.9s15.3 34.9 17.4 46.3c2.1 11.4 28 54.4 28 54.4H326l-16.7-57.4-21.2-100.8c0 .1-41.9 3.4-55.5-1.4z" style="fill:#4570ad"/><path class="st28" d="M344.2 330.4s-1.3-3.9 3.5-6.9c4.8-2.9 12.5-4.8 12.1 0-.4 4.8-5.8 11.8-7.9 11-2-.7-7.9 1.8-7.9 1.8l.2-5.9z"/><path class="st21" d="M256.4 316s-18.7.3-23.5 10.6c-6.2 13.6-3.7 48.8-3.7 48.8s-1.8 7.5 4 7.5c5.9 0 2.2 3.4 2.2 3.4s-11.4 35.3-12.9 43.2c-1.5 7.9-6.6 10.5 9.9 13.1s21.9 6.4 23.1-6.4 7.4-56.8 7.4-56.8 5.5-37.4 0-49c-5.3-11.7-6.5-14.4-6.5-14.4zM270.8 317.3s8.5-4.4 19.1 5.1c10.7 9.6 18.8 18 18.8 18s4.4 6.3 12.9 2.2c8.5-4 21.7-13.6 21.7-13.6l4.4 6.7s-20.6 20.5-22.8 24.4c-2.2 3.9-7.7 7.6-19.5 2.4-11.8-5.1-13.2-6.6-13.2-6.6l2.6 48.2 1.8 36.8h-15.3v-92.7c0-.1-2-25.1-10.5-30.9z"/><path class="st28" d="m257.6 371.3 17.8-2.6s4.6-10.3 10.8-10.7c6.1-.3 13.1 2.9 6.5 6.6-6.6 3.7-7.6 12.5-11.4 11.8s-25.6 4.3-25.6 4.3l1.9-9.4z"/><ellipse class="st28" cx="255.7" cy="294" rx="3.5" ry="4.9"/><path d="M257.6 369.5v13.2s-22.3 2.6-27 0c0 0-1.7-8.2-.8-22.7s2.8-29.6 2.8-29.6 10.5-7.4 14.8 1.8c3.1 6.5 1.4 16.2 1.4 16.2l-3.3 20.2 12.1.9z" style="fill:#e24b4b"/></g><g><ellipse transform="rotate(-68.556 590.322 265.806)" class="st23" cx="590.3" cy="265.8" rx="20.9" ry="12.8"/><path class="st23" d="M584.2 282.2v19.2l18.2-4.9v-18.3z"/><path d="M623.4 408.4s-1.7 56.4 0 58.6c1.7 2.2 9.6 34.8 11.4 60.7 1.8 25.9 0 53.7 0 53.7h-18.2s-3.1-47.1-16.9-63.6v-70.1l2.8-38.6 20.9-.7z" style="fill:#254260"/><path class="st34" d="M596.8 573.8v18.8h-33.5s-2.8-4.9 2.8-5.9 15.4-1.8 15.4-5.3 2.8-7.6 2.8-7.6h12.5zM617.7 577.9s-9.5 7.7-15.2 8.8c-5.7 1.1-5.7 5.9-5.7 5.9h38v-14.7H617.7z"/><path d="M571.5 408.5s-2.2 50.9 3.3 76l6.6 93.4h21l6.6-123s10-37.5 6.9-42.5c-3-5-44.4-3.9-44.4-3.9z" style="fill:#376193"/><path class="st29" d="M577.6 248.4s-1.6-8.8 12.7-8.3c14.3.6 23.7 8.3 23.7 8.3s4.4 2.7 0 14c-4.4 11.4-11.6 19.1-11.6 19.1s-12.1 3.6-12.1-6.1 2.7-12.2-3.3-9.7l-9.4-17.3z"/><path class="st3" d="m580.9 296.5-22.6 33.1s-13.2 17.6-2.8 28.1 13.2 15.5 13.2 15.5l-2.6 39.2s44 15.4 60 0c0 0 4.4-45.9 0-54.7 0 0 14.3-18 6.1-31.6 0 0-16.8-28-29.8-34.4l-21.5 4.8z"/><path d="m579.7 364-8.6-15.6 11-14.3c1.7-1.2 6 5.1 6.3 7.2.8 6.6.9 18.7-8.7 22.7z" style="opacity:.15;fill:#262626"/><path d="m571.1 378.3 8.8-5.7-.2-8.6-8.6-15.6 17.6-23.1s-.4-24.6-17.6-14.8L555.5 334s-8.8 14.2 0 23.7c8.8 9.4 15.6 20.6 15.6 20.6z" style="fill:#e89c05"/><path class="st23" d="M577.6 370.4s10.2 7.7 2.1 14.9-9.5-3.8-9.5-3.8l-1.4-8.3 8.8-2.8z"/><ellipse transform="rotate(-68.556 590.322 265.806)" class="st23" cx="590.3" cy="265.8" rx="5.5" ry="3.3"/></g><g><path d="M91.6 340.7s-18.4-10.5 0-21.5c0 0 .3 12.7 2.2 11s1.6-13.6 1.6-13.6 12.3-5.9 13.6-4.4c1.3 1.5-3.9 11-3.9 11s-1.3 4.3 2.1 0c3.4-4.3 8.9-11.3 8.9-11.3s14.6-2 13 9c-1.6 11-3.6 7.9-3.6 7.9s-17-1.1-11.2 1.5 9.3 3.7 9.3 3.7-.3 9-6 8.8c-5.7-.2-15.7-8.3-18.8-4.6-3.1 3.7 5.6 4.3 8.4 3.2 2.9-1.1 5.9 2 5.9 2s2.6 4.2-5.9 5.8c-8.4 1.7-10.9 0-15.6-8.5z" style="fill:#8aba7d"/><path d="M58.2 326.3s25.1-14.3 0-29.3c0 0-.4 17.3-3 15.1-2.6-2.2-2.1-18.6-2.1-18.6s-16.8-8.1-18.6-6 5.3 15 5.3 15 1.8 5.8-2.9 0S24.7 287 24.7 287 4.8 284.1 7 299.2c2.2 15.1 4.9 10.7 4.9 10.7s23.2-1.4 15.3 2.1-12.7 5.1-12.7 5.1.4 12.3 8.2 12 21.5-11.4 25.7-6.3-7.6 5.9-11.5 4.4c-3.9-1.5-8 2.8-8 2.8s-3.5 5.7 8 8 14.9-.1 21.3-11.7z" style="fill:#97c18a"/><g class="st40"><path class="st41" d="M65.1 356.1c-.6-3.2-1.3-6.4-2.2-9.5-.9-3.1-1.9-6.2-3-9.2-2.3-6-5.2-11.8-9-17-3.8-5.1-8.4-9.7-13.9-12.9-2.7-1.7-5.7-2.9-8.7-3.9-3-1.1-6.3-1.6-9.5-2.1 6.5-.1 13.2 1.2 19.1 4.4 6 3 11 7.8 14.9 13.1 3.9 5.4 6.8 11.5 8.8 17.8 2 6.2 3.3 12.8 3.5 19.3z"/></g><g class="st40"><path class="st41" d="M76.2 356.1c1.6-4.1 3.9-7.8 6.7-11.3 2.8-3.4 6-6.5 9.7-9 3.7-2.5 7.9-4.3 12.2-5.2 4.4-1 8.9-.8 13.1.1-4.4 0-8.6.5-12.7 1.7-2 .6-4 1.3-5.9 2.3-1.9.9-3.7 1.9-5.5 3.1-3.5 2.3-6.7 5.2-9.6 8.2-2.9 3.2-5.6 6.5-8 10.1z"/></g><path d="M81.3 319.2s-31.2-17.8 0-36.5c0 0 .5 21.5 3.7 18.8 3.2-2.8 2.7-23.2 2.7-23.2s21-10.1 23.2-7.5c2.2 2.6-6.6 18.7-6.6 18.7s-2.2 7.3 3.6 0c5.8-7.3 15.2-19.3 15.2-19.3s24.8-3.5 22.1 15.3c-2.8 18.8-6.1 13.4-6.1 13.4s-28.8-1.8-19.1 2.6 15.8 6.4 15.8 6.4-.6 15.3-10.2 15c-9.7-.4-26.7-14.2-32-7.8-5.3 6.3 9.5 7.3 14.3 5.5 4.9-1.9 10 3.4 10 3.4s4.3 7.1-10 9.9c-14.4 2.7-18.6-.2-26.6-14.7z" style="fill:#acd4a2"/><g class="st40"><path class="st41" d="M71.7 358.3c-.1-7.3.9-14.5 2.6-21.6 1.7-7.1 4.3-14 7.7-20.5 1.8-3.2 3.8-6.3 6.1-9.2 2.3-2.9 4.9-5.5 7.7-7.9 2.8-2.4 6-4.3 9.2-6l2.5-1.1c.8-.4 1.7-.6 2.6-1 1.7-.7 3.5-1.1 5.2-1.5-6.8 2.6-13 6.3-18.3 11.1-5.2 4.8-9.5 10.6-12.9 16.8-3.4 6.3-6 13-8 19.8-1 3.4-1.9 6.9-2.6 10.5-.7 3.5-1.3 7-1.8 10.6z"/></g><g><path class="st43" d="M114.2 352.9v.4c-.2 19-15.7 34.4-34.8 34.4-11.6 0-21.9-5.7-28.2-14.5-4.1-5.7-6.5-12.7-6.5-20.3h69.5z"/><path style="opacity:.71;fill:#d76712" d="M41.5 351.1h75.2v2.2H41.5z"/><path d="M114.2 353.3c-.2 19-15.7 34.4-34.8 34.4-11.6 0-21.9-5.7-28.2-14.5 47.4 10.9 60-19.8 60-19.8l3-.1z" style="opacity:.14;fill:#fefefe"/><path class="st43" d="M117 389.6H43.2c-.9 0-1.7-.8-1.7-1.7v-.7c0-.9.8-1.7 1.7-1.7H117c.9 0 1.7.8 1.7 1.7v.7c.1.9-.7 1.7-1.7 1.7z"/></g></g></svg>