<?xml version="1.0" encoding="utf-8"?>
<!-- Generator: Adobe Illustrator 24.3.0, SVG Export Plug-In . SVG Version: 6.00 Build 0)  -->
<svg version="1.1" id="Layer_1" xmlns="http://www.w3.org/2000/svg" xmlns:xlink="http://www.w3.org/1999/xlink" x="0px" y="0px"
	 viewBox="0 0 1000 763.11" style="enable-background:new 0 0 1000 763.11;" xml:space="preserve">
<style type="text/css">
	.st0{fill:none;stroke:#AE83DB;stroke-width:3;stroke-linecap:round;stroke-miterlimit:10;stroke-dasharray:4.9998,4.9998;}
	.st1{opacity:0.53;}
	.st2{fill:none;stroke:#AE83DB;stroke-width:3;stroke-linecap:round;stroke-miterlimit:10;stroke-dasharray:4.995,4.995;}
	.st3{fill:#BB9AE8;}
	.st4{fill:#FFFFFF;}
	.st5{fill:#4C5658;}
	.st6{fill:#447583;}
	.st7{fill:#E6E7E8;}
	.st8{fill:#3EC2C7;}
	.st9{fill:#17B384;}
	.st10{fill:#F0868E;}
	.st11{fill:none;stroke:#FFFFFF;stroke-miterlimit:10;}
	.st12{fill:#F1F2F2;}
	.st13{fill:#393A3A;}
	.st14{fill:#6B6B6B;}
	.st15{opacity:0.31;fill:#3EC2C7;}
	.st16{fill:#FFAA00;}
	.st17{fill:#FF4E55;}
	.st18{fill:#E5D1F7;}
</style>
<g>
	<g>
		<circle class="st0" cx="657.15" cy="291.34" r="281.68"/>
	</g>
	<g class="st1">
		<circle class="st2" cx="741.82" cy="528.76" r="211.46"/>
	</g>
	<circle class="st3" cx="513.18" cy="445" r="307.6"/>
	<g>
		<path class="st4" d="M632.43,703.78H413.29c-8.36,0-15.13-6.78-15.13-15.13V234.01c0-8.36,6.78-15.13,15.13-15.13h219.13
			c8.36,0,15.13,6.78,15.13,15.13v454.64C647.56,697.01,640.78,703.78,632.43,703.78z"/>
		<rect x="416.28" y="268.39" class="st5" width="214.98" height="370.17"/>
		<rect x="416.28" y="268.39" class="st6" width="214.98" height="13.89"/>
		<rect x="416.28" y="584.82" class="st6" width="214.98" height="53.25"/>
		<circle class="st7" cx="525.58" cy="670.57" r="16.91"/>
		<g>
			<line class="st7" x1="501.82" y1="244.92" x2="555.93" y2="244.92"/>
			<path class="st7" d="M555.93,248.22h-54.11c-1.82,0-3.29-1.47-3.29-3.29s1.47-3.29,3.29-3.29h54.11c1.82,0,3.29,1.47,3.29,3.29
				S557.75,248.22,555.93,248.22z"/>
		</g>
		<g>
			<path class="st8" d="M462.38,631.45h-24.42c-3.76,0-6.81-3.05-6.81-6.81v-24.42c0-3.76,3.05-6.81,6.81-6.81h24.42
				c3.76,0,6.81,3.05,6.81,6.81v24.42C469.19,628.4,466.14,631.45,462.38,631.45z"/>
			<g>
				<rect x="438.46" y="606.96" class="st4" width="24.36" height="14.9"/>
				<g>
					<g>
						<path class="st8" d="M440.02,608.86c-0.06,0-0.12-0.02-0.18-0.05l-0.55-0.36c-0.15-0.1-0.2-0.3-0.1-0.46
							c0.1-0.15,0.3-0.2,0.46-0.1l0.55,0.36c0.15,0.1,0.2,0.3,0.1,0.46C440.24,608.8,440.13,608.86,440.02,608.86z"/>
					</g>
					<g>
						<path class="st8" d="M448.73,614.48c-0.06,0-0.12-0.02-0.18-0.05l-1.09-0.7c-0.15-0.1-0.2-0.3-0.1-0.46
							c0.1-0.15,0.3-0.2,0.46-0.1l1.09,0.7c0.15,0.1,0.2,0.3,0.1,0.46C448.94,614.43,448.84,614.48,448.73,614.48z M446.55,613.08
							c-0.06,0-0.12-0.02-0.18-0.05l-1.09-0.7c-0.15-0.1-0.2-0.3-0.1-0.46c0.1-0.15,0.3-0.2,0.46-0.1l1.09,0.7
							c0.15,0.1,0.2,0.3,0.1,0.46C446.77,613.02,446.66,613.08,446.55,613.08z M444.38,611.67c-0.06,0-0.12-0.02-0.18-0.05
							l-1.09-0.7c-0.15-0.1-0.2-0.3-0.1-0.46c0.1-0.15,0.3-0.2,0.46-0.1l1.09,0.7c0.15,0.1,0.2,0.3,0.1,0.46
							C444.59,611.62,444.48,611.67,444.38,611.67z M442.2,610.26c-0.06,0-0.12-0.02-0.18-0.05l-1.09-0.7
							c-0.15-0.1-0.2-0.3-0.1-0.46c0.1-0.15,0.3-0.2,0.46-0.1l1.09,0.7c0.15,0.1,0.2,0.3,0.1,0.46
							C442.41,610.21,442.31,610.26,442.2,610.26z"/>
					</g>
					<g>
						<path class="st8" d="M450.37,615.6l-0.73-0.47c-0.15-0.1-0.2-0.3-0.1-0.46c0.1-0.15,0.3-0.2,0.45-0.1l0.38,0.24l0.38-0.24
							c0.15-0.09,0.36-0.05,0.45,0.11c0.1,0.15,0.05,0.36-0.11,0.45L450.37,615.6z"/>
					</g>
					<g>
						<path class="st8" d="M452.08,614.49c-0.11,0-0.22-0.06-0.28-0.16c-0.1-0.15-0.05-0.36,0.11-0.45l1.15-0.71
							c0.15-0.1,0.36-0.05,0.45,0.11c0.1,0.15,0.05,0.36-0.11,0.45l-1.15,0.71C452.2,614.48,452.14,614.49,452.08,614.49z
							 M454.37,613.08c-0.11,0-0.22-0.06-0.28-0.16c-0.1-0.15-0.05-0.36,0.11-0.45l1.15-0.71c0.15-0.1,0.36-0.05,0.45,0.11
							c0.1,0.15,0.05,0.36-0.11,0.45l-1.15,0.71C454.49,613.06,454.43,613.08,454.37,613.08z M456.67,611.67
							c-0.11,0-0.22-0.06-0.28-0.16c-0.1-0.15-0.05-0.36,0.11-0.45l1.15-0.71c0.15-0.1,0.36-0.05,0.45,0.11
							c0.1,0.15,0.05,0.36-0.11,0.45l-1.15,0.71C456.78,611.65,456.73,611.67,456.67,611.67z M458.96,610.26
							c-0.11,0-0.22-0.06-0.28-0.16c-0.1-0.15-0.05-0.36,0.11-0.45l1.15-0.71c0.15-0.1,0.36-0.05,0.45,0.11
							c0.1,0.15,0.05,0.36-0.11,0.45l-1.15,0.71C459.08,610.24,459.02,610.26,458.96,610.26z"/>
					</g>
					<g>
						<path class="st8" d="M461.25,608.84c-0.11,0-0.22-0.06-0.28-0.16c-0.1-0.15-0.05-0.36,0.11-0.45l0.56-0.34
							c0.15-0.1,0.36-0.05,0.45,0.11c0.1,0.15,0.05,0.36-0.11,0.45l-0.56,0.34C461.37,608.83,461.31,608.84,461.25,608.84z"/>
					</g>
				</g>
				<g>
					<g>
						<path class="st8" d="M461.82,620.58c-0.08,0-0.16-0.03-0.22-0.09l-0.48-0.44c-0.13-0.12-0.14-0.33-0.02-0.47
							c0.12-0.13,0.33-0.14,0.46-0.02l0.48,0.44c0.13,0.12,0.14,0.33,0.02,0.47C462,620.54,461.91,620.58,461.82,620.58z"/>
					</g>
					<g>
						<path class="st8" d="M460.35,619.23c-0.08,0-0.16-0.03-0.22-0.09l-0.99-0.91c-0.13-0.12-0.14-0.33-0.02-0.47
							c0.12-0.13,0.33-0.14,0.46-0.02l0.99,0.91c0.13,0.12,0.14,0.33,0.02,0.47C460.52,619.19,460.44,619.23,460.35,619.23z
							 M458.37,617.42c-0.08,0-0.16-0.03-0.22-0.09l-0.99-0.91c-0.13-0.12-0.14-0.33-0.02-0.46c0.12-0.13,0.33-0.14,0.46-0.02
							l0.99,0.91c0.13,0.12,0.14,0.33,0.02,0.46C458.55,617.38,458.46,617.42,458.37,617.42z M456.4,615.61
							c-0.08,0-0.16-0.03-0.22-0.09l-0.99-0.91c-0.13-0.12-0.14-0.33-0.02-0.47c0.12-0.13,0.33-0.14,0.46-0.02l0.99,0.91
							c0.13,0.12,0.14,0.33,0.02,0.47C456.58,615.57,456.49,615.61,456.4,615.61z"/>
					</g>
					<g>
						<path class="st8" d="M454.43,613.79c-0.08,0-0.16-0.03-0.22-0.09l-0.48-0.44c-0.13-0.12-0.14-0.33-0.02-0.47
							c0.12-0.13,0.33-0.14,0.46-0.02l0.48,0.44c0.13,0.12,0.14,0.33,0.02,0.47C454.61,613.76,454.52,613.79,454.43,613.79z"/>
					</g>
				</g>
				<g>
					<g>
						<path class="st8" d="M446.7,613.93c-0.09,0-0.18-0.04-0.24-0.11c-0.12-0.13-0.11-0.34,0.02-0.47l0.48-0.44
							c0.13-0.12,0.34-0.11,0.46,0.02c0.12,0.13,0.11,0.34-0.02,0.47l-0.48,0.44C446.86,613.9,446.78,613.93,446.7,613.93z"/>
					</g>
					<g>
						<path class="st8" d="M440.92,619.25c-0.09,0-0.18-0.04-0.24-0.11c-0.12-0.13-0.11-0.34,0.02-0.47l0.96-0.89
							c0.13-0.12,0.34-0.11,0.46,0.02c0.12,0.13,0.11,0.34-0.02,0.47l-0.96,0.89C441.08,619.22,441,619.25,440.92,619.25z
							 M442.85,617.47c-0.09,0-0.18-0.04-0.24-0.11c-0.12-0.13-0.11-0.34,0.02-0.46l0.96-0.89c0.14-0.12,0.34-0.12,0.47,0.02
							c0.12,0.13,0.11,0.34-0.02,0.46l-0.96,0.89C443.01,617.44,442.93,617.47,442.85,617.47z M444.78,615.7
							c-0.09,0-0.18-0.04-0.24-0.11c-0.12-0.13-0.11-0.34,0.02-0.46l0.96-0.89c0.13-0.12,0.34-0.11,0.46,0.02
							c0.12,0.13,0.11,0.34-0.02,0.46l-0.96,0.89C444.94,615.67,444.86,615.7,444.78,615.7z"/>
					</g>
					<g>
						<path class="st8" d="M439.47,620.58c-0.09,0-0.18-0.04-0.24-0.11c-0.12-0.13-0.11-0.34,0.02-0.46l0.48-0.45
							c0.13-0.12,0.34-0.11,0.47,0.02c0.12,0.13,0.11,0.34-0.02,0.46l-0.48,0.45C439.63,620.55,439.55,620.58,439.47,620.58z"/>
					</g>
				</g>
			</g>
		</g>
		<g>
			<path class="st9" d="M511.56,631.45h-24.42c-3.76,0-6.81-3.05-6.81-6.81v-24.42c0-3.76,3.05-6.81,6.81-6.81h24.42
				c3.76,0,6.81,3.05,6.81,6.81v24.42C518.37,628.4,515.32,631.45,511.56,631.45z"/>
			<g>
				<g>
					<path class="st4" d="M499.58,629.14c-8.69,0-15.76-7.07-15.76-15.76c0-8.69,7.07-15.76,15.76-15.76s15.76,7.07,15.76,15.76
						C515.34,622.08,508.27,629.14,499.58,629.14z M499.58,598.95c-7.96,0-14.44,6.48-14.44,14.44c0,7.96,6.48,14.44,14.44,14.44
						c7.96,0,14.44-6.48,14.44-14.44C514.02,605.43,507.55,598.95,499.58,598.95z"/>
				</g>
				<path class="st4" d="M491.84,619.17c0,0,5.43,6.64,12.28-2.22c0,0,6.64-6.2,0.6-12.39l-4.14,4.82c0,0,4.74,2.96,0.72,6.17
					c0,0-3.62,3.84-6.24,0L491.84,619.17z"/>
			</g>
		</g>
		<g>
			<path class="st10" d="M560.74,631.45h-24.42c-3.76,0-6.81-3.05-6.81-6.81v-24.42c0-3.76,3.05-6.81,6.81-6.81h24.42
				c3.76,0,6.81,3.05,6.81,6.81v24.42C567.55,628.4,564.5,631.45,560.74,631.45z"/>
			<g>
				<g>
					<path class="st4" d="M548.53,629.08c-8.69,0-15.76-7.07-15.76-15.76c0-8.69,7.07-15.76,15.76-15.76
						c8.69,0,15.76,7.07,15.76,15.76C564.28,622.02,557.22,629.08,548.53,629.08z M548.53,598.89c-7.96,0-14.44,6.48-14.44,14.44
						c0,7.96,6.48,14.44,14.44,14.44c7.96,0,14.44-6.48,14.44-14.44C562.97,605.37,556.49,598.89,548.53,598.89z"/>
				</g>
				<g>
					<rect x="544.19" y="607.09" class="st4" width="12.28" height="4.85"/>
					<line class="st11" x1="545.2" y1="610.36" x2="545.2" y2="618.36"/>
					<line class="st11" x1="555.77" y1="610.36" x2="555.77" y2="618.36"/>
					<ellipse class="st4" cx="542.63" cy="618.01" rx="3.57" ry="1.96"/>
				</g>
				<ellipse class="st4" cx="553.21" cy="618.01" rx="3.57" ry="1.96"/>
			</g>
		</g>
		<g>
			<path class="st12" d="M609.92,631.45h-24.42c-3.76,0-6.81-3.05-6.81-6.81v-24.42c0-3.76,3.05-6.81,6.81-6.81h24.42
				c3.76,0,6.81,3.05,6.81,6.81v24.42C616.73,628.4,613.68,631.45,609.92,631.45z"/>
			<g>
				<circle class="st13" cx="598.08" cy="613.74" r="15.11"/>
				<circle class="st14" cx="598.08" cy="613.74" r="11.68"/>
				<circle class="st15" cx="598.08" cy="613.74" r="8.44"/>
				<circle class="st4" cx="601.84" cy="611.85" r="3.78"/>
			</g>
		</g>
	</g>
	<g>
		<path class="st16" d="M908.48,140.27H611.38c-8.75,0-15.85,7.1-15.85,15.85v146.74c0,8.75,7.1,15.85,15.85,15.85h68.03l-7.8,44.38
			l49.53-44.38h187.34c8.75,0,15.85-7.1,15.85-15.85V156.12C924.33,147.37,917.24,140.27,908.48,140.27z"/>
		<g>
			<g>
				<path class="st12" d="M880.86,194.44H768.94c-2.18,0-3.95-1.77-3.95-3.95c0-2.18,1.77-3.95,3.95-3.95h111.92
					c2.18,0,3.95,1.77,3.95,3.95C884.81,192.67,883.04,194.44,880.86,194.44z"/>
			</g>
			<g>
				<path class="st12" d="M880.86,218.19H768.94c-2.18,0-3.95-1.77-3.95-3.95c0-2.18,1.77-3.95,3.95-3.95h111.92
					c2.18,0,3.95,1.77,3.95,3.95C884.81,216.42,883.04,218.19,880.86,218.19z"/>
			</g>
			<g>
				<path class="st12" d="M880.86,241.54H768.94c-2.18,0-3.95-1.77-3.95-3.95s1.77-3.95,3.95-3.95h111.92
					c2.18,0,3.95,1.77,3.95,3.95S883.04,241.54,880.86,241.54z"/>
			</g>
			<g>
				<path class="st12" d="M841.4,264.09h-72.47c-2.18,0-3.95-1.77-3.95-3.95c0-2.18,1.77-3.95,3.95-3.95h72.47
					c2.18,0,3.95,1.77,3.95,3.95C845.35,262.32,843.58,264.09,841.4,264.09z"/>
			</g>
		</g>
		<g>
			<circle class="st4" cx="677.82" cy="271.03" r="8.45"/>
			<path class="st4" d="M638.1,269.2H717v-7.85c0,0-10.47-1.61-11.27-17.31c0,0,8.05-32.61-8.45-45.89l-10.87-6.04
				c0,0,2.42-13.69-12.08-11.67c0,0-8.86-0.81-8.45,12.48c0,0-24.56,6.44-18.12,40.26c0,0,2.42,28.58-9.66,27.38V269.2z"/>
		</g>
	</g>
	<g>
		<path class="st17" d="M61.12,286.81h421.83c12.43,0,22.51,10.08,22.51,22.51v208.34c0,12.43-10.08,22.51-22.51,22.51h-96.6
			l11.07,63.02l-70.32-63.02H61.12c-12.43,0-22.51-10.08-22.51-22.51V309.31C38.61,296.88,48.69,286.81,61.12,286.81z"/>
		<g>
			<g>
				<path class="st12" d="M448.01,367.35H289.1c-3.1,0-5.61-2.51-5.61-5.61c0-3.1,2.51-5.61,5.61-5.61h158.9
					c3.1,0,5.61,2.51,5.61,5.61C453.62,364.84,451.1,367.35,448.01,367.35z"/>
			</g>
			<g>
				<path class="st12" d="M448.01,401.07H289.1c-3.1,0-5.61-2.51-5.61-5.61s2.51-5.61,5.61-5.61h158.9c3.1,0,5.61,2.51,5.61,5.61
					S451.1,401.07,448.01,401.07z"/>
			</g>
			<g>
				<path class="st12" d="M448.01,434.23H289.1c-3.1,0-5.61-2.51-5.61-5.61c0-3.1,2.51-5.61,5.61-5.61h158.9
					c3.1,0,5.61,2.51,5.61,5.61C453.62,431.72,451.1,434.23,448.01,434.23z"/>
			</g>
			<g>
				<path class="st12" d="M391.99,466.24H289.1c-3.1,0-5.61-2.51-5.61-5.61s2.51-5.61,5.61-5.61h102.89c3.1,0,5.61,2.51,5.61,5.61
					S395.09,466.24,391.99,466.24z"/>
			</g>
		</g>
		<g>
			<circle class="st4" cx="152.93" cy="478.79" r="12.93"/>
			<path class="st4" d="M213.67,475.98H92.99v-12.01c0,0,16.01-2.46,17.24-26.48c0,0-12.31-49.87,12.93-70.19l16.62-9.24
				c0,0-3.69-20.93,18.47-17.86c0,0,13.55-1.23,12.93,19.09c0,0,37.56,9.85,27.71,61.57c0,0-3.69,43.72,14.78,41.87V475.98z"/>
		</g>
	</g>
	<polygon class="st18" points="764.99,362.45 771.26,375.16 785.29,377.2 775.14,387.1 777.54,401.07 764.99,394.48 752.44,401.07 
		754.83,387.1 744.68,377.2 758.71,375.16 	"/>
	<polygon class="st18" points="340.55,194.44 346.98,207.48 361.37,209.57 350.96,219.72 353.41,234.04 340.55,227.28 
		327.68,234.04 330.14,219.72 319.73,209.57 334.11,207.48 	"/>
	<polygon class="st18" points="522.86,145.4 526.69,153.17 535.27,154.41 529.06,160.46 530.53,169 522.86,164.97 515.19,169 
		516.66,160.46 510.45,154.41 519.03,153.17 	"/>
	<polygon class="st18" points="686.27,464.18 690.1,471.95 698.68,473.2 692.47,479.24 693.94,487.78 686.27,483.75 678.6,487.78 
		680.07,479.24 673.86,473.2 682.44,471.95 	"/>
	<polygon class="st18" points="319.73,586.83 323.56,594.6 332.13,595.85 325.93,601.89 327.39,610.43 319.73,606.4 312.06,610.43 
		313.52,601.89 307.32,595.85 315.89,594.6 	"/>
	<polygon class="st18" points="729.41,573.02 733.24,580.79 741.82,582.03 735.61,588.08 737.08,596.62 729.41,592.59 
		721.74,596.62 723.21,588.08 717,582.03 725.58,580.79 	"/>
</g>
</svg>
