<svg version="1.1" id="Layer_1" xmlns="http://www.w3.org/2000/svg" x="0" y="0" viewBox="0 0 889.35 756.42" style="enable-background:new 0 0 889.35 756.42" xml:space="preserve"><style>.st1{fill:#cfb5f6}.st3{fill:#e59479}.st4{fill:#2c2c2d}.st9{fill:#d1d3d4}.st10{fill:#4570ad}.st11{fill:#a7a9ac}.st12{fill:#f35f39}.st13{fill:#f9a082}.st16{fill:none}.st17{opacity:.31;fill:#fff}</style><path d="M631.57 176.29C574.76 71.31 463.67 0 335.93 0 150.4 0 0 150.4 0 335.93s150.4 335.93 335.93 335.93c17.45 0 34.59-1.33 51.32-3.9 50.25 44.7 116.44 71.87 188.99 71.87 157.11 0 284.47-127.36 284.47-284.47 0-138.17-98.52-253.32-229.14-279.07z" style="fill:#e3d4f9"/><path class="st1" d="M660.21 192.88C603.4 87.9 492.31 16.59 364.57 16.59c-185.53 0-335.93 150.4-335.93 335.93s150.4 335.93 335.93 335.93c17.45 0 34.59-1.33 51.32-3.9 50.25 44.7 116.44 71.87 188.99 71.87 157.11 0 284.47-127.36 284.47-284.47 0-138.17-98.52-253.32-229.14-279.07z"/><ellipse cx="411.2" cy="685.17" rx="359.54" ry="12.68" style="opacity:.11;fill:#606060"/><path class="st3" d="m265.93 350.73 8.14 12.91s32.1 13.97 15.59 24.76-27.06-13.3-27.06-13.3l-9.17-16.97 12.5-7.4zM153.92 645.68l-1.83 32.56s19.72 15.59 25.22 0l-5.96-10.55v-22.01h-17.43zM200.24 645.68v30.73s27.52 7.8 46.78 0c0 0-15.13-6.37-26.14-10.98l-.92-19.75h-19.72z"/><path class="st4" d="M200.24 670.45s19.72 11.49 40.82 3.45c0 0 26.06 7.83 15.13 11.27-2.75.87-46.78 6.37-59.62-1.89 0 .01-2.75-12.38 3.67-12.83z"/><path d="M144.75 475.54v174.27s32.56.46 33.48 0c.92-.46 14.68-158.22 14.68-158.22l5.5 158.42h33.94l8.71-177.22-96.31 2.75z" style="fill:#252626"/><ellipse transform="rotate(-5.19 216.996 158.61)" class="st3" cx="217.1" cy="158.59" rx="23.86" ry="36.93"/><ellipse class="st3" cx="193.23" cy="160.33" rx="6.41" ry="9.92"/><path class="st3" d="m194.25 166.97-3.79 37.69s18.34 18.96 33.63 10.09l-3.67-16.2-.31-13.15-25.86-18.43z"/><path style="fill:#ea2f21" d="m190.46 192.04 18.65 17.21 11.31-10.7 8.87 6.72-15.9 67.88-35.16-75.83z"/><path d="m220.42 198.55 21.71 16.2s9.17 10.09 9.78 25.68 0 66.04 0 66.04l19.57 45.86-18.96 9.17s-8.56-13.76-8.56-12.84c0 .92.31 14.37.31 14.37l.47 115.72-113.75 2.75L129 244.71s-.61-40.66 46.78-47.39l14.68-5.28-3.63 5.59 24.42 60.54 14.07-55.9-4.9-3.72z" style="fill:#f1f2f2"/><path d="M190.46 158.59s9.43 4.04 9.78-12.33c0 0 5.62-4.03 11.24 4.15s17.81 1.74 17.81 1.74 13.26 2.58 11.72 12.53c-1.54 9.96 14.73-19.34 2.34-36.76s-21.86-19.72-39.59-18.8-31.95 20.64-31.95 20.64-7.8 8.25-2.29 18.8c0 0-5.96 8.38.92 18.41 6.88 10.02 10.09 16.9 10.09 16.9l11.71 3.19 1.01-16.81c-.02 0-12.19-3.78-2.79-11.66z" style="fill:#272728"/><path class="st4" d="M152.09 670.45s8.16 13.76 20.82 0c0 0 17.25 11.46 4.41 16.97h-23.39c-.01-.01-5.51-3.67-1.84-16.97z"/><path class="st9" d="M158.05 255.18c1.73 8.91 3.34 17.83 5.01 26.75l4.81 26.78-.42-.56c8.38 3.87 16.71 7.85 25.05 11.79l25.03 11.84.86.41-.37.88-9.75 23-.34.8-.81-.29-20.34-7.18-20.29-7.31-10.14-3.66-2.54-.91-.63-.23c-.22-.07-.45-.19-.65-.28-.41-.2-.83-.4-1.23-.61a41.52 41.52 0 0 1-4.63-2.87c-2.93-2.13-5.61-4.63-7.82-7.5a28.739 28.739 0 0 1-4.88-9.59c1.15 3.41 2.95 6.57 5.22 9.32 2.27 2.76 4.98 5.12 7.93 7.12 1.48.98 3.02 1.88 4.62 2.66.4.2.8.38 1.2.56.21.09.38.17.59.24l.64.22 2.55.86 10.21 3.46 20.42 6.92 20.37 7.05-1.15.51 9.61-23.06.49 1.29-24.95-12.01c-8.31-4.01-16.65-7.98-24.93-12.06l-.36-.18-.06-.38-4.26-26.87c-1.35-8.97-2.77-17.93-4.06-26.91zM214.35 269.03c.41 4.62.63 9.23.78 13.85.16 4.62.2 9.23.22 13.85-.02 4.62-.06 9.23-.22 13.85-.15 4.62-.36 9.23-.78 13.85-.42-4.62-.63-9.23-.78-13.85-.16-4.62-.2-9.23-.22-13.85.02-4.62.06-9.23.22-13.85.15-4.62.37-9.24.78-13.85zM211.48 455.36c.18 2.07.17 4.11.08 6.15-.08 2.04-.24 4.07-.47 6.09-.22 2.02-.53 4.03-.91 6.04s-.82 4-1.47 5.98c-.18-2.07-.17-4.12-.08-6.15.09-2.04.24-4.07.47-6.09.23-2.02.54-4.03.91-6.04.38-2 .83-4 1.47-5.98zM241.06 276.51c.47 7.2.84 14.41 1.19 21.62l.92 21.63.69 21.63.26 10.82c.05 3.61.14 7.22.16 10.82-.25-3.6-.43-7.2-.65-10.81l-.54-10.81-.92-21.63-.69-21.63c-.19-7.21-.36-14.42-.42-21.64z"/><path class="st3" d="m217.1 332.69-5.62 18.57 22.7 6.19s8.03 5.5 12.61 1.15c4.59-4.36 5.96-5.5 5.96-5.5l-5.5-6.61 7.57 5.7s5.96 3.9 3.9-1.61l-9.17-11.24s-1.86-1.83-14.23-2.98c-12.38-1.15-18.22-3.67-18.22-3.67z"/><path class="st9" d="M48.67 442.29h724.36v13.07H48.67zM70 579.5h677.78v3.97H70z"/><path class="st10" d="M752.39 442.29H66.22c-7.41 0-13.41-6.01-13.41-13.41V414.8c0-10.24 8.3-18.55 18.55-18.55H752.4c9.5 0 17.2 7.7 17.2 17.2v11.64c-.01 9.5-7.71 17.2-17.21 17.2z"/><path class="st9" d="M70 455.36h21.32v232.41H70zM397.64 455.36h21.32v232.41h-21.32zM726.45 455.36h21.32v232.41h-21.32z"/><path class="st10" d="M604.5 413.4s12.28-29.64 67.36-37.18c0 0 34.97-27.31 46.4-19.49s33.84 22.74 29.51 46.92c-4.32 24.2-143.27 9.75-143.27 9.75z"/><g><path transform="rotate(-36.825 103.853 327.56)" class="st11" d="M90.58 327.07h26.55v1H90.58z"/><path class="st12" d="M101.64 330.24c-.3 0-.6-.14-.8-.4-.33-.44-.24-1.07.2-1.4l12.85-9.62c.44-.33 1.07-.24 1.4.2.33.44.24 1.07-.2 1.4l-12.85 9.62c-.19.13-.4.2-.6.2z"/></g><g><path transform="rotate(-36.825 115.128 346.768)" class="st11" d="M101.86 346.28h26.55v1h-26.55z"/><path class="st12" d="M112.91 349.45c-.3 0-.6-.14-.8-.4-.33-.44-.24-1.07.2-1.4l12.85-9.62c.44-.33 1.07-.24 1.4.2.33.44.24 1.07-.2 1.4l-12.85 9.62c-.18.13-.39.2-.6.2z"/></g><g><path transform="rotate(-88.997 125.984 359.002)" class="st11" d="M112.69 358.48h26.55v1h-26.55z"/><path class="st12" d="M126.71 362.37a.997.997 0 0 1-1.79-.63l.28-16.05c.01-.55.46-.99 1.02-.98.55.01.99.46.98 1.02l-.28 16.05c-.01.22-.08.42-.21.59z"/></g><g><path transform="rotate(-88.997 152.016 356.71)" class="st11" d="M138.72 356.19h26.55v1h-26.55z"/><path class="st12" d="M152.74 360.08a.997.997 0 0 1-1.79-.63l.28-16.05c.01-.55.46-.99 1.02-.98.55.01.99.46.98 1.02l-.28 16.05c-.01.22-.08.42-.21.59z"/></g><g><path transform="rotate(-88.997 177.24 355.655)" class="st11" d="M163.95 355.13h26.55v1h-26.55z"/><path class="st12" d="M177.96 359.02a.997.997 0 0 1-1.79-.63l.28-16.05c.01-.55.46-.99 1.02-.98.55.01.99.46.98 1.02l-.28 16.05c0 .22-.08.43-.21.59z"/></g><g><path transform="rotate(-88.997 207.507 351.958)" class="st11" d="M194.21 351.44h26.55v1h-26.55z"/><path class="st12" d="M208.23 355.33a.997.997 0 0 1-1.79-.63l.28-16.05c.01-.55.46-.99 1.02-.98.55.01.99.46.98 1.02l-.28 16.05c-.01.22-.09.42-.21.59z"/></g><g><path transform="rotate(-16.619 280.36 343.869)" class="st11" d="M279.87 330.6h1v26.55h-1z"/><path class="st12" d="M282.1 346.88a.99.99 0 0 1-.65.61.988.988 0 0 1-1.24-.67l-4.59-15.38a.988.988 0 0 1 .67-1.24.988.988 0 0 1 1.24.67l4.59 15.38c.07.22.06.44-.02.63z"/></g><g><path transform="rotate(-2.654 303.555 339.118)" class="st11" d="M303.24 328.69h.79v21.03h-.79z"/><path class="st12" d="M304.4 341.85c-.14.2-.36.33-.62.35a.793.793 0 0 1-.83-.75l-.59-12.7c-.02-.44.32-.81.75-.83.44-.02.81.32.83.75l.59 12.7a.81.81 0 0 1-.13.48z"/></g><g><path transform="rotate(-31.196 257.155 347.683)" class="st11" d="M256.63 334.41h1v26.55h-1z"/><path class="st12" d="M259.56 350.15c-.03.3-.2.59-.48.76a.986.986 0 0 1-1.37-.34l-8.31-13.73a.986.986 0 0 1 .34-1.37.986.986 0 0 1 1.37.34l8.31 13.73c.12.19.16.41.14.61z"/></g><g><ellipse transform="rotate(-84.376 671.838 340.77)" class="st13" cx="671.86" cy="340.77" rx="21.09" ry="36.69"/><path class="st13" d="M643.25 347.13c-.69 0-34.85 1.83-34.85 1.83l12.15 20.87 43.57-9.78-20.87-12.92z"/><path class="st13" d="M594.57 356.41c2.5-.39 5.05-.25 7.5.39 8.07 2.14 23.65 8.76 11.64 26.7 0 0-6.95 11.05-28.73 12.23-21.78 1.18-181.88 0-181.88 0l-15.29.47s6.93-12.4 23.39-14.43l17.62.54 165.75-25.9zM323.83 350.73s-15.92-5.72-49.92 6.46c0 0-24.3 5.3-44.63 7.37s-103.57 6.4-103.57 6.4-10.32.71-19.26-12.48c-8.94-13.18-17.2-31.07-17.2-31.07s-8.94-3.22 0 21.78l6.19 42s3.74 10.63 19.26 5.07h209.12v-45.53z"/><path d="M711.12 370.96c-5.29 7.74-19.38 17.66-42.35 13.26-5.62-1.07-11.4-.94-16.99.24-8.62 1.8-20.28 5.09-25.96 10.36-9.63 8.95-24.08 10.32-38.52 7.57 0 0-12.38-12.38 25.45-26.14 0 0 6.22-2.53 5.19-7.2-.4-1.89-2-4.12-5.67-6.68-6.76-4.71-15.14-6.46-23.26-5.16l-159.24 25.45s-28.2-4.75-36.46 8.52l-4.13 5.02-71.54.69v-50.41l213.94-9.71s16.51-16.01 38.52-4.09l42.65 13.8s5.32 16.73 13.23 19.15c.62.2 1.25.3 1.9.3 0 0 31.41-12.32 48.84-9.63 0 0 13.99-3.67.69-9.82-13.17-6.1.61-26.16.61-26.16s-7.86-2.17-6.16-2.77c5.11-1.79 28.99-3.66 39.26 13.76 10.55 17.88 9.91 25.14 0 39.65z" style="fill:#feac02"/><path d="M711.12 370.96c-5.29 7.74-19.38 17.66-42.35 13.26-5.62-1.07-11.4-.94-16.99.24-8.62 1.8-20.28 5.09-25.96 10.36-9.63 8.95-24.08 10.32-38.52 7.57 0 0-12.38-12.38 25.45-26.14 0 0 6.22-2.53 5.19-7.2l8.04-3.42c.62.2 1.25.3 1.9.3 0 0 31.41-12.32 48.84-9.63 0 0 13.99-3.67.69-9.82-13.17-6.1.61-26.16.61-26.16s-7.86-2.17-6.16-2.77c5.11-1.79 28.99-3.66 39.26 13.76 10.55 17.88 9.91 25.14 0 39.65z" style="fill:#511b18"/></g><g><path transform="rotate(-88.997 577.335 357.728)" class="st11" d="M564.01 357.22h26.55v1h-26.55z"/><path class="st12" d="M578.03 361.11a.997.997 0 0 1-1.79-.63l.28-16.05c.01-.55.46-.99 1.02-.98.55.01.99.46.98 1.02l-.28 16.05c-.01.22-.09.42-.21.59z"/></g><g><path transform="rotate(-5.411 550.079 365.63)" class="st11" d="M549.44 352.27h1v26.55h-1z"/><path class="st12" d="M551.06 368.83c-.16.26-.43.44-.76.47a1 1 0 0 1-1.09-.9l-1.51-15.98a1 1 0 1 1 1.99-.19l1.51 15.98c.02.23-.04.44-.14.62z"/></g><g><path transform="rotate(-16.619 498.66 369.016)" class="st11" d="M498.18 355.75h1v26.55h-1z"/><path class="st12" d="M500.41 372.03a.99.99 0 0 1-.65.61.988.988 0 0 1-1.24-.67l-4.59-15.38a.988.988 0 0 1 .67-1.24.988.988 0 0 1 1.24.67l4.59 15.38c.06.21.05.43-.02.63z"/></g><g><path transform="rotate(-16.619 463.772 370.077)" class="st11" d="M463.29 356.81h1v26.55h-1z"/><path class="st12" d="M465.52 373.09a.99.99 0 0 1-.65.61.988.988 0 0 1-1.24-.67l-4.59-15.38a.988.988 0 0 1 .67-1.24.988.988 0 0 1 1.24.67l4.59 15.38c.06.21.05.43-.02.63z"/></g><g><path transform="rotate(-2.654 513.996 365.508)" class="st11" d="M513.74 355.09h.79v21.03h-.79z"/><path class="st12" d="M514.89 368.25c-.14.2-.36.33-.62.35a.793.793 0 0 1-.83-.75l-.59-12.7c-.02-.44.32-.81.75-.83.44-.02.81.32.83.75l.59 12.7a.69.69 0 0 1-.13.48z"/></g><g><path transform="rotate(-31.196 426.872 381.266)" class="st11" d="M426.34 367.99h1v26.55h-1z"/><path class="st12" d="M429.27 383.74c-.03.3-.2.59-.48.76a.986.986 0 0 1-1.37-.34l-8.31-13.73a.986.986 0 0 1 .34-1.37.986.986 0 0 1 1.37.34l8.31 13.73c.12.19.16.4.14.61z"/></g><ellipse transform="rotate(-67.058 463.784 94.199)" class="st17" cx="463.79" cy="94.2" rx="32.17" ry="108.77"/><ellipse class="st17" cx="852.52" cy="481.5" rx="21.21" ry="71.73"/><ellipse transform="rotate(-60 685.148 170.923)" class="st1" cx="685.14" cy="170.91" rx="14.55" ry="37.9"/></svg>