<svg version="1.1" id="Layer_1" xmlns="http://www.w3.org/2000/svg" x="0" y="0" viewBox="0 0 1000 616.4" style="enable-background:new 0 0 1000 616.4" xml:space="preserve"><style>.st2{fill:#efb5a0}.st3{fill:#111}.st4{fill:#f1f2f2}.st5{fill:#fff}.st10{fill:#231f20}.st13{opacity:.5;fill:#d1d3d4}.st14{fill:#5d9963}.st15{fill:#99c19e}.st16{fill:#cfe6d2}.st17{fill:#58595b}.st19{fill:#1b3c41}.st23{fill:#f9b5b2}.st25{fill:#161616}.st28{opacity:.57;fill:#231f20}</style><path d="M74.9 592.1S-74.2 364.3 200 214.3c9.1-5 272.9-254.1 460.2-175.3s226.6 271.8 242.7 386c16.1 114.2 30.3 154.7 47.4 163.5s12.1 13.1 12.1 13.1H74.9v-9.5z" style="fill:#e2d4fd"/><path d="M98.3 587.6S-42.6 367.2 216.5 222c8.6-4.8 257.9-245.9 434.9-169.7s214.1 263 229.3 373.6 28.6 149.7 44.8 158.2 11.4 12.7 11.4 12.7H98.3v-9.2z" style="fill:#cfb5f5"/><path class="st2" d="M541 368s-14.8 4.2-19.1 13.1c-4.3 8.9-3.3 27-3.3 27s2.2 4.4 6-3.2c0 0 .6-9.5 2.8-10.8 2.2-1.3 2.3 9.8 2.3 9.8s.9 1.8 4.7-3.4l2.2-15 13-5.7L541 368z"/><path class="st3" d="M713.6 307h-30.2v14.8h7.6l.4-7.2h22.2zM604.1 441s-44.8 80.5-41.7 104.2 14.8 36.9 15.1 36.3c.3-.6 38.9 26.5 72.3 6.1S604.1 441 604.1 441z"/><circle class="st3" cx="504" cy="569.2" r="24.9"/><ellipse transform="rotate(-86.788 622.108 264.346) scale(.99997)" class="st2" cx="622.1" cy="264.3" rx="25.3" ry="18.3"/><ellipse transform="rotate(-86.788 639.682 264.346) scale(.99997)" class="st2" cx="639.7" cy="264.3" rx="6.1" ry="4.5"/><path class="st2" d="m622.1 287.2 2.7 19.8s30 3.1 25.7-14.8l-11.8-18.1-16.6 13.1z"/><path class="st4" d="M609.3 246.9s-10.2-2.1 0-11.1 22.2-5.2 22.2-5.2 12.4-1.9 15.7 4.8c3.3 6.7 13.3 12.9 9.5 19.5s-1.9 13.6-1.9 13.6-1 8.2-7.6 11.6c-6.7 3.4-11.1 0-11.1 0l3.3-9.5s5.9 0 3.8-10.2c0 0-2.6-4.3-9.7-4.6-7.1-.3 0-7.5 0-7.5s1.4-2.9-4.3-3.3-10.1-4.6-19.9 1.9z"/><path class="st5" d="M622.1 293.4s-12.6 7.2-17.3 21c-4.7 13.8-14.7 41-14.7 49.5l-51.9 4.3 8.1 12.9h58.6s-3.8 22.4 0 22.4 48.2-1 63.9 5.2l14.8 2.4s7.1-49.6 5.2-73.4-11.6-41.5-20-45.5c-7.6-3.6-21-4.5-21-4.5s5.2 19-16.4 15.2c-.2 0-5.3 2.4-9.3-9.5z"/><path d="M499.9 532.1s-32.8 7.1-30.5 24.8h35.3l17.2-15.9-22-8.9z" style="fill:#bcbec0"/><path d="M533.7 532.1s-35.1 15.7-28.9 24.8h33.4l21.4-15.2-25.9-9.6z" style="fill:#d1d3d4"/><path class="st2" d="m576.7 344.9-6.7-6s-1.9-2.2-10.8-3.2-16.5 0-16.5 0-1.3 4 2.1 4.4c3.3.4 3.7 1.6 3.7 1.6s-14.3.2-19.1-1.6c0 0-5.1 1 1.3 4.8s12.4 6.6 21.4 4.6c0 0 9.6-.4 12.7.7 3.1 1.1 4 2.7 4 2.7l7.9-8z"/><path class="st3" d="M463 556.9h75.1v11.3H463zM761.9 304.5h-30.8l-13.8 126.7 7.6 5.3 14.7-121.9 22.3-.2z"/><path class="st3" d="M726.6 382.5H538.1l-2.4 33.2 9.1-4.6 1.4-21.1 178.8.3z"/><path class="st4" d="m639.7 320.3-19.2 37.2-45.1-14.9-10.6 12.1 42.4 24.8s16.8 6.7 25.4 0S671 343 671 343s7.3-19.6-5.4-26.2c-12.7-6.6-25.9 3.5-25.9 3.5z"/><path d="m607.2 401.1-62.9 6.2s-18.1-3.3-26.2 31c-8.1 34.3-23.2 95.8-23.2 95.8s20.3 13.3 33.2 4.3l7.1-21.4-1.9 18.6s15.7 1.4 22.4 9.5c0 0 8.1 5.7 11.4-8.6 3.3-14.3 17.6-80 37.6-97.1 19.5-16.7 44.8-32.9 78.7-27.2 0-.1-41.7-14.5-76.2-11.1z" style="fill:#4570ad"/><path d="M584.8 411.1s-22.9-2.4-31 29.5c-8.1 31.9-9.1 41-9.1 41s1-46.7 9.5-57.2 13.4-17.1 30.6-13.3z" style="opacity:.5;fill:#231f20"/><circle class="st3" cx="555.9" cy="569.2" r="24.9"/><circle class="st5" cx="555.9" cy="569.2" r="16.8"/><circle class="st3" cx="671" cy="503.4" r="92.3"/><circle class="st5" cx="671" cy="503.4" r="83.7"/><circle class="st3" cx="671" cy="503.4" r="15.9"/><path transform="rotate(-16.704 656.648 457.191)" class="st10" d="M655.5 430.6h2.1v53.2h-2.1z"/><path transform="rotate(-48.166 706.01 466.092)" class="st10" d="M679.4 465.1h53.2v2.1h-53.2z"/><path transform="rotate(-79.1 625 492.732)" class="st10" d="M624 466.1h2.1v53.2H624z"/><path transform="rotate(-18.396 685.91 548.67)" class="st10" d="M684.9 523.4h2.1V574h-2.1z"/><path transform="rotate(-76.467 717.973 513.98)" class="st10" d="M716.9 486.2h2.1v55.5h-2.1z"/><path transform="rotate(-46.896 637.693 537.004)" class="st10" d="M612 535.9h51.2v2.1H612z"/><path class="st3" d="m586.2 388.7-20.9 157.4 10.5 4.6 18-162z"/><g style="opacity:.6"><path style="fill:#414042" d="M115.5 330h170.6v265.6H115.5z"/><path class="st13" d="M184.1 358.2h82V412h-82zM184.1 435.9h82v53.8h-82zM184.1 517.4h82v53.8h-82zM115.5 330H167v265.6h-51.5z"/></g><g><path class="st14" d="m820.2 537.4 19.1 10.1s5.3-39.4 14.5-53.9-19.1-44.4-4.6-69.9c14.5-25.5 35.9-57.9 35.9-57.9s10.7-53.2-28.3-57c-39-3.8-49.7 33.1-41 72.8 0 0-3.3 133.9 4.4 155.8z"/><path class="st15" d="M798.8 537.4s-1.8-36.4-22.3-74.5-11.5-68.8 11.1-77.1c22.6-8.3 41.8-11 37.9 26.2-3.9 37.2-8.9 31.1.5 60.5s0 71 0 71l-27.2-6.1z"/><path class="st16" d="m853 543.6 16.8-55.6 22.9-59.4s16.4-30.1-27.7-31.5c-44.1-1.4-33.1 146.4-33.1 146.4H853z"/><path class="st17" d="M794.3 535.1h62.6s0 43.5-13.7 58.3l-31.3 1.1c-.1 0-13.1-10.3-17.6-59.4z"/></g><g><path class="st14" d="m148.3 309.3 14.5 4.9s-.8-28.2 4-39.4-18.4-28.9-11.2-48.4c4.4-11.8 10.2-25.6 14.2-34.7 4.2-9.6 4.7-20.4 1.1-30.2-3.3-8.9-9.9-17.1-23-16.3-27.7 1.8-31 28.8-20.4 55.6-.1.1 12.9 94.1 20.8 108.5z"/><path class="st15" d="M139.4 294.2s-6.6-25-26.5-48.3-18.1-46-3.7-55.1c14.4-9.1 27.3-13.8 30.2 12.6 2.8 26.4-1.6 22.9 9.3 41.9s10.5 49.2 10.5 49.2l-19.8-.3z"/><path class="st16" d="m162.9 294.9 14.1-38.7 18.6-41.1s12.8-20.6-18.4-23.4C146.1 189 148 294 148 294l14.9.9z"/><path class="st17" d="M128.7 289H173s0 30.8-9.7 41.3l-22.2.8c0-.1-9.1-7.3-12.4-42.1z"/></g><g><circle class="st5" cx="741.5" cy="172" r="35.9"/><path d="M741.4 207.4c-19.8 0-35.9-16.1-35.9-35.9s16.1-35.9 35.9-35.9c19.8 0 35.9 16.1 35.9 35.9s-16.2 35.9-35.9 35.9zm0-70.7c-19.2 0-34.8 15.6-34.8 34.8s15.6 34.8 34.8 34.8c19.2 0 34.8-15.6 34.8-34.8s-15.6-34.8-34.8-34.8z" style="fill:#19363c"/><path class="st19" d="M740.8 143.9h1v28.7h-1z"/><path transform="rotate(-60.87 752.687 177.064)" class="st19" d="M751.6 164.9h2.1v24.4h-2.1z"/></g><path style="fill:#1d2e33" d="M63.1 594.2h910v9.6h-910z"/><g><path d="M477.5 239.1H318.1c-6.6 0-12-5.4-12-12V102.4c0-6.6 5.4-12 12-12h159.4c6.6 0 12 5.4 12 12v124.7c0 6.6-5.4 12-12 12z" style="opacity:.32;fill:#f1f2f2"/><path d="M556.2 186.5h-68.5c-6.6 0-12-5.4-12-12v-51c0-6.6 5.4-12 12-12h68.5c6.6 0 12 5.4 12 12v51c0 6.6-5.4 12-12 12z" style="opacity:.32;fill:#fff"/></g><g><path class="st23" d="M413.4 191.8s-1.3 9.8-10.8 14.3c0 0 7.3 16.8 19.7 15.9l5.1-15.1-14-15.1zM477.1 282s5.7-1 10-6.7 7.8-8.7 7.8-8.7 3.8 2.5 0 6.3-6.6 7.1-3.5 7.1c3.1 0 6.9-4 8.1-4 1.2 0 10.7-1.9 9.3 4.5-1.4 6.4-5 10-10.2 10.5s-18.8 2.4-18.8 2.4-4.9-12.4-2.7-11.4z"/><path d="M500 268.4h21.9l-1.2 20.5s.2 6-3.1 6.9c-3.3 1-14.1 0-14.1 0s-4.1-.9-3.6-5 .1-22.4.1-22.4z" style="fill:#f79d19"/><path class="st25" d="m394.2 323.9 7.1 91.5s1.4 42.4-3.6 70-6 92.9-6 92.9-25.3 1.9-24.3 0-2.4-113.4-2.4-113.4l10.5-143.1 18.7 2.1z"/><path class="st17" d="M321.8 572.6s-9.5 11 0 14.8c7.8 3.1 30.1 6.8 38.1 8.1 2.5.4 5.1-.9 5.9-3.3.8-2.2.1-5.2-5.9-7.9-11.9-5.5-15.2-7.4-15.7-11.7h-22.4z"/><path class="st17" d="M367.5 578.3s-5.2 15.7 1.9 17.6 45.7 0 45.7 0 5.2-5.7-9.1-11.7l-14.3-6h-24.2z"/><path d="M335.1 314.4s-5.2 19-3.3 45.7c0 0 8.1 46.7 6.7 83.9s-16.7 128.6-16.7 128.6h24.8l18.6-92.4s20-58.6 21-71.5 5.7-86.9 5.7-86.9l-56.8-7.4z" style="fill:#3a3a3a"/><ellipse transform="rotate(-72.986 435.654 188.172)" class="st23" cx="435.6" cy="188.2" rx="26.1" ry="17.9"/><path class="st25" d="M422.9 197.4s-5.9-11.2 2-17c0 0 9.4 5.9 14.8-3.9 0 0 11.4-2 14.3 1.9 0 0 4.2-15.2-8.9-21.6-13-6.4-24.2 0-24.2 0s.7-13.7-15.8-4.8c-16.5 8.9-7.9 33.7 1.3 26 0 .1-1.6 19.5 16.5 19.4z"/><path d="M404.2 203.4s-23.1-2.4-31.4 16.7c-8.3 19.1-16.4 51.2-23.1 62.7s-17.9 33.6-17.9 33.6 14.1 13.8 36.2 13.6c22.2-.2 31.7 3.3 39.1-17.6 0 0 19.3 6.2 49.6 8.1 0 0-1.2-7.1 1.7-15l-7.6-4.5 31.7-4.1-4-18.3-45.3.2-11.2-59.3c-.2-.2-12.6-1.8-17.8-16.1z" style="fill:#ff4d53"/><path class="st23" d="M454.7 316s6.5.4 11.7 2.6 17.8 4.6 23.1 2.2 7.7-7.1 2.9-7.9c-4.8-.7-10 0-10 0s5-4 0-4.8c-5-.7-9.8 0-9.8 0l-17.9-1.2v9.1z"/><path class="st28" d="M383.3 260.4s-.1 46.7 8.2 51.7c8.3 4.9 13.4 4.7 13.4 4.7s3.3-5.8 3.3-6c0-.1-14.8-5.6-17.3-22.4-2.5-16.8-7.3-36.2-7.3-36.2l-.3 8.2zM415.3 262.1l-3.3 19s.2 10.6 3.2 11.7c3 1.1 11.7 0 11.7 0s-10.2-13.8-9.3-29.1c.1 0-.4-4-2.3-1.6z"/><path d="M383.5 247c-.1.9-.1 1.8.1 2.7 1.6 7.9 9.8 47.7 11.1 49.9 1.4 2.4 6.3 9.5 13.5 13s48.4 7.8 48.4 7.8.2-11.7 1.7-15l-37.5-13.6s-4.2-4.5-3-17.2c.8-8.7-.8-23.5-1.9-31.9-.6-4.4-3-8.3-6.8-10.7-8.3-5-22.5-9.8-25.6 15z" style="fill:#ea4b57"/><ellipse class="st23" cx="424.9" cy="188.2" rx="5.3" ry="7.7"/></g></svg>