<svg version="1.1" id="Layer_1" xmlns="http://www.w3.org/2000/svg" x="0" y="0" viewBox="0 0 1000 880.5" style="enable-background:new 0 0 1000 880.5" xml:space="preserve"><style>.st0{fill:#e6e7e8}.st4{fill:#939598}.st5{fill:#fff}.st6{fill:#f7c1ad}.st7{fill:#feac02}.st10{fill:#ff485c}.st12{opacity:.36;fill:#231f20}.st13{fill:#6d6e71}.st14{fill:#e24058}.st16{fill:#414042}.st18{fill:#1c353d}</style><path class="st0" d="M127.9 842.5s-7.1-144.2 22.7-291.7c23.1-114.4-12.8-120.6-32.6-144.7S6.9 277.2 178.7 158 496.6 17.6 582.4 10.6s206.8 33.2 139.3 167.1c-55.7 110.5 24.7 160.9 54.5 175.2 5.5 2.6 11.3 4.4 17.3 5.3 27 4.2 125.8 25.9 173.4 122 73.7 149-73.2 240.4-29 362.3h-810z"/><path d="M25.8 843.2S-5 701.3 137.2 611.4c10.1-6.4 17.5-16.3 20.4-27.9 6.8-26.8 13.6-81.1-6.6-165.1-30.3-125.5-2-264 94-302.6S555.5-3 662.3 58.4s-12.5 235.1 44.4 277.7 105.3 18.3 180.7 67.3c49.2 32 106.7 101 65.2 250-5.3 18.9-15.6 36-29 50.4-17.4 18.7-28.3 63.3-17.4 139.4H25.8z" style="fill:#cfb5f6"/><path d="M938.3 870.4H35.6c-7.5 0-13.5-6.1-13.5-13.5v-.9c0-7.5 6.1-13.5 13.5-13.5h902.7c7.5 0 13.5 6.1 13.5 13.5v.8c0 7.5-6 13.6-13.5 13.6z" style="fill:#58595b"/><g style="opacity:.47"><path class="st4" d="M206.6 139.6h191.3v702.9H206.6z"/><path class="st4" d="M396.5 184.5h48.7v658h-48.7zM445.2 311.5h189.7v532.2H445.2z"/><path class="st4" d="M907.4 595.3c-6.6-1.9-139.9-108.6-145.6-103-5.7 5.6-129.6 89.8-129.6 89.8l2.7 261.7 272.5 2.3V595.3z"/><path class="st5" d="M743.1 630.1h43.5V685h-43.5zM652 630.1h43.5V685H652zM560.7 706.4h43.5v54.9h-43.5zM486.6 595.3h43.5v54.9h-43.5zM376.2 712.2h43.5v54.9h-43.5zM235.2 712.2h43.5v54.9h-43.5zM303.3 595.3h43.5v54.9h-43.5zM303.3 206.7h43.5v54.9h-43.5zM374.7 595.3h43.5v54.9h-43.5zM830.2 630.1h43.5V685h-43.5z"/></g><path class="st6" d="M239.9 595.3s.9 24.1 0 42.5 7.1 141.8 7.1 141.8 4.3 19.4 0 35.5-11.9 32.6 2.8 30.7c14.7-1.9 12.8-5.2 13.8-25.5s.9-20.3.9-20.3v-14.2s9.5-67.1 9-88.4c-.5-21.3-.9-69.1 0-81.3 1-12.2 0-16.1 0-16.1l-33.6-4.7zM325 601.4s7.1 15.1 12.3 55.8c5.2 40.7 40.7 142.3 40.7 142.3s16.1 55.2 35 40.5c0 0-8.5 2.9-11.8-25.4 0 0-1.4-22.7-7.1-37.8l-36.4-188.1-32.7 12.7z"/><path d="M264.5 800.8s6 4.4 5.1 13.6c0 0-5 19.8-3.6 31.7 0 0 .6 10.6-9.1 10.6 0 0-16.3 2.2-21.4 0-5-2.2-3-11.3 4.3-16.1 0 0 13 5.7 19.6-.3.1-.2 6.2-29.5 5.1-39.5zM377.1 796.9s-12.6 6.4-9 19.6c0 0 2.5 3.2 4.2 12.6s0 26.1 0 26.1h4.8v-31.8s2.5-3.8 4.4.3c1.9 4.1 6.6 25.5 6.6 25.5s1.3 4.7 8.2 6c6.9 1.3 31.2 0 31.2 0s3.2-2.8-1.9-6c-5-3.2-13.2-9.8-13.2-9.8s-4.6 5.4-14.4-1.3c0 0-9.2-29-13-32.1l-7.9-9.1z"/><path class="st5" d="M260.3 235.1s25.1 14.6 39.5-4.3c0 0 34.7 84.6 27.2 152.7l1.1 23.2-38.9 2.8-8.7-89.4c-.1.1-14.1-81.2-20.2-85z"/><ellipse class="st6" cx="282.5" cy="150" rx="52.9" ry="60.5"/><path class="st6" d="M260.3 201.1v41.1s34 18 40.2-3.3l-3.3-37.8h-36.9z"/><path class="st7" d="m340.2 112.7-126.7 10.9s-3.8-58.1 47.1-70.3c2.9-.7 5.9-1.2 9.1-1.6 7-.8 13.3-.6 19.1.3 43.6 7.4 51.4 60.7 51.4 60.7z"/><path d="M209.7 123.5s-10.9 92.7 0 119.1l50.6-17.5v-20.2s-22.9-7.7-30.1-42.7c0 0-1.7-7.8 5.5-18.1 0 0 15.8 3.1 29.9-11.5 0 0 8-8.8 44 2.8 2.3.7 19.9 1.9 19.9 1.9l1.6 23c.7 10.7-2.2 21.3-8.6 29.9-5.4 7.3-13.4 14.7-24.5 17.8l1.5 17.2s21.5 1.9 36.2 10.9c0 0 6.5-27.7 10.4-52.9 4.4-27.9-5.7-64-5.7-64v-6.5l-130.7 10.8z" style="fill:#1c2225"/><path d="M350.2 398.6s13.6 51.1 17.4 106.4c3.8 55.3 12.8 80.4 12.8 80.4s-22.2 34.5-135.9 14.2c0 0-22.9-1.4-38.5-12.3 0 0 6.6 2.8 5.2-47.3 0 0 .4-80.2 1.9-92.2l18-51.5 119.1 2.3z" style="fill:#2b2b2b"/><path class="st10" d="M260.3 225.2s34.5 74.7 32.6 193.8l.1 44.9s-85.9 4.8-80.4-22.2c.5-2.4 23.2-68.1 23.2-68.1s-7.6 1.9-11.3-17L196 265.3s-1.7-17.4 13.7-22.7c15.4-5.3 50.6-17.4 50.6-17.4zM299.2 225.2s17.7 59.1 20.1 107.8c2.4 48.7 1.9 128.6 4.3 128.6s43.5-11.3 43.5-11.3-18.4-66.7-18.4-84.1l26.5-.9s23.2-4.7 16.1-28.8l-35-71.4s-17.4-29.5-30.2-33.4c-13-4.2-26.9-6.5-26.9-6.5z"/><ellipse transform="rotate(-10.568 228.482 147.943)" class="st6" cx="228.5" cy="147.9" rx="8.1" ry="13.3"/><ellipse transform="rotate(-82.796 335.299 146.905)" class="st6" cx="335.3" cy="146.9" rx="13.3" ry="8.1"/><path d="M339.6 109.2 211.5 118c-2.7.2-4.7 2.5-4.5 5.1v.3c.2 2.7 2.5 4.7 5.1 4.5l128.1-8.8c2.7-.2 4.7-2.5 4.5-5.1v-.3c-.2-2.7-2.5-4.7-5.1-4.5z" style="fill:#d38407"/><path class="st12" d="m243.1 283.1 25.8 50.5-15.2 11.5-16.6-55.4z"/><path class="st7" d="m324.4 230.6-2.7 5.8-.9 1.9-3.4 7.3-.1.3-4 8.4-.9 1.9-3.3 6.9-.9 1.9-8.6 18.3-.8 1.7-3.5 7.3-.6 1.2-8.3 17.6-.9 1.9-3.4 7.2-.9 1.9-26.2 55.6-.9 1.9-2.9 6.1-.9 1.9-3.5 7.4-.9 1.9-3.5 7.4-.9 1.9-3.5 7.4-.9 1.9-3.5 7.4-.9 1.9-3.5 7.4-.9 1.9-3.5 7.4-.9 1.9-4.1 8.7-.4.9-3.3 7-.9 1.9-3.5 7.4-.9 1.9-3.5 7.4-.9 1.9-3.5 7.4-.9 1.9-3.3 6.9-.9 1.9-.5 1.1s-20.8-9.5-18.9-9.5c1.9 0 127.9-268.9 127.9-268.9l18.1 9.3z"/><path class="st13" d="m197.4 502.1-.9 1.8-6.5-4 1-1.8zM200.6 495.1l-6.3-3.9 1-1.8 6.2 3.9zM205 485.9l-6.4-4 1.1-1.7 6.2 3.8zM210.2 474.8l-.8 1.8-6.4-3.9 1.1-1.7zM214.6 465.5l-.9 1.9-6.3-3.9 1.1-1.8z"/><path transform="rotate(-58.198 214.622 456.429)" class="st13" d="M213.6 452.6h2.1v7.8h-2.1z"/><path class="st13" d="m223.3 447-6-3.7-1.1 1.7 6.3 3.9zM227.7 437.7l-.9 1.9-6.2-3.8 1.1-1.8zM232.1 428.5l-.9 1.9-6.2-3.9 1.1-1.7zM236.4 419.3l-.9 1.8-6.1-3.8 1.1-1.8zM240.8 410l-.9 1.9-6.1-3.8 1-1.8zM245.2 400.7l-.9 1.9-6.2-3.8 1.1-1.7zM248.6 393.4l-6.1-3.8 1.1-1.8 5.9 3.7zM252.4 385.4l-6.5-4 1.1-1.8 6.3 3.9z"/><path transform="rotate(-63.82 272.775 333.115)" class="st13" d="M271.8 329.2h2.1v7.8h-2.1z"/><path transform="rotate(-62.671 276.699 324.825)" class="st13" d="M275.7 321h2.1v7.8h-2.1z"/><path class="st13" d="m283.8 318.9-6.4-4 1.1-1.7 6.2 3.8z"/><path transform="rotate(-62.464 284.937 307.28)" class="st13" d="M283.9 303.4h2.1v7.8h-2.1z"/><path class="st13" d="M293 299.3v.1l-.4.6-6.6-4.1 1.1-1.8 6.5 4zM297 290.8v.1l-6.6-4 1-1.8 6.4 4z"/><path transform="rotate(-62.876 298.609 278.314)" class="st13" d="M297.6 274.4h2.1v7.8h-2.1z"/><path class="st13" d="m307.4 268.9-.9 1.9-6.2-3.9 1.1-1.7zM310.6 262l-6.5-4.1 1.1-1.7 6.3 3.9zM319.9 242.3l-.9 1.9-6.2-3.9 1.1-1.7z"/><path transform="rotate(-58.198 311.79 250.288)" class="st13" d="M310.8 246.4h2.1v7.8h-2.1z"/><path class="st14" d="M213.4 242.6S239 236 240.9 270c0 0 3.3 43 12.8 61.9l6.6 16.5h62.4l2.4 23.2-61 8.5s-21.7 5.5-34.5-10L196 265.3s-.2-21.7 17.4-22.7z"/><path class="st6" d="M313.2 335.8s-27.5.9-37.9 0c0 0-26.4-6.3-20 .4 0 0 2.6 11.9 9.7 18s8.7 7.4 18.8.9l29.4 4.4v-23.7z"/><path class="st14" d="M307.5 333.4v26.5l38.3 5.7 29.3-.5s26.4-7.7 14.7-31.7c0 0-8.1-10.9-35-4.3l-47.3 4.3z"/><path d="M292.8 105.7c-4.8 1-7.4-1.9-8.8-4.8-1.1-2.2-1.5-4.7-1.4-7.1.5-14.7-11.3-30.1-22-40.4 2.9-.7 5.9-1.2 9.1-1.6 7-.8 13.3-.6 19.1.3 19.2 17.9 15.5 37.3 12.5 46-1.4 3.8-4.5 6.8-8.5 7.6z" style="opacity:.37;fill:#fff"/><path class="st12" d="m345.9 330-5.7-49 23.1 46.5z"/><g><path class="st16" d="m523.7 540.2-62.4 267.3h9.2L537.1 536zM621.4 540.9l48.9 234.7 7.1-2.8L631.3 536z"/><path style="fill:#4570ad" d="M435.6 197h315.6l-69.5 347.5h-317z"/><path class="st5" d="M444.1 214.1H732l-60.2 312.6-291.5-2.8z"/><path class="st16" d="m750 197 11.8 13.2-65.4 326.4-14.7 7.9z"/><path class="st18" d="M517.9 413.4c-.3 0-.6-.1-.8-.3l-8.1-5.3h-39.8l10.6-46.9h-8l-12.2-14.3 6.6-27.5 17.2-10.8h64.1v-12.1l22-19.4 34.3-10.6 18.6 10.8 14.8 19.6-13.9 56.2h9.6l9.9 17.5-3 23.8-18 13.6h-97.7c-.9 0-1.5-.7-1.5-1.5 0-.9.7-1.5 1.5-1.5h96.6l16.1-12.2 2.7-21.5-8.5-15.1h-11.7l14.5-58.6-13.5-17.9-16.9-9.8-32.4 10-20.5 18.1v13.8h-66.3l-15.4 9.6-6 24.7 10.3 12h10.4l-10.5 47h36.8l8.9 5.8c.7.5.9 1.4.4 2.1-.2.5-.7.7-1.2.7zM621.4 437.3h-156c-.3 0-.5-.2-.5-.5s.2-.5.5-.5h156c.3 0 .5.2.5.5s-.2.5-.5.5zM625.7 454H430c-.3 0-.5-.2-.5-.5s.2-.5.5-.5h195.7c.3 0 .5.2.5.5s-.3.5-.5.5z"/><path transform="rotate(-78.329 663.418 338.563)" class="st18" d="M594.2 338h138.4v1H594.2z"/><path transform="rotate(-80.281 645.36 378.913)" class="st18" d="M621.3 378.4h48.2v1h-48.2z"/><path class="st18" d="M480.3 293.6h63.1v1h-63.1z"/><path transform="rotate(-77.484 445.218 356.8)" class="st18" d="M394.5 356.3h101.4v1H394.5z"/><path transform="rotate(-77.196 446.657 382.889)" class="st18" d="M422.6 382.4h48v1h-48z"/><path class="st18" d="M561.5 425.3h-76.1l2.9-19.1 1 .2-2.7 17.9h74.1l4.9-18.1 1 .2zM551.3 306.8h38.2v1h-38.2zM489.2 338.9l-.8-.7 10.3-10.9 3.1-17.4 1 .2-3.1 17.7zM518.4 374.4l-1-.2 2.7-14.2h-31.3v-1.1h32.5z"/><path transform="rotate(-77.508 508.353 390.309)" class="st18" d="M491.9 389.8h32.8v1h-32.8z"/><path transform="rotate(-86.305 494.923 349.692) scale(.99998)" class="st18" d="M485.1 349.2h19.6v1h-19.6z"/><path transform="rotate(-80.149 553.714 388.445)" class="st18" d="M539.3 387.9h28.8v1h-28.8z"/><path transform="rotate(-79.304 544.842 332.578)" class="st18" d="M521.8 332.1h46v1h-46z"/><path class="st18" d="m582.2 359.9-8.4-4.2h-36.7v-1.1H574l8.6 4.4zM582.4 353.9h39v1h-39zM601.9 299.5h23.8v1h-23.8zM601.9 309.5h19.5v1h-19.5zM536.6 327h1v8.7h-1z"/><g><path class="st10" d="m474.8 544.5-5.1-1 5.2-26.7c.2-1.2 1.3-2.1 2.5-2.1l82.5 1c.7 0 1.4.3 1.9.8s.7 1.2.7 1.9l-1.8 25.7-5.1-.4 1.6-23-77.6-.9-4.8 24.7z"/></g></g><g><path class="st10" d="M634.9 777.5c2.2-.1 104.2-14.6 104.2-14.6l3.5-8.5 73.7-9.2 2.4 26.7-183.8 5.6z"/><ellipse cx="817.8" cy="769.2" rx="6.7" ry="23.9" style="fill:#172934"/><path class="st0" d="m477.4 782.3 366.4-11.2-4.7 11.2s17-5.3 13.5 28.7c0 0 9.5 31.4.5 44.8 0 0-411.7-6.9-411.7-9.9s-13.3-27.4 5-38.4h30.5l.5-25.2z"/><path class="st4" d="M830.6 835.9c2.8-.7 12.1 0 12.1 0s-3.9-27.6 2.8-28.4l6.4 3.5s4.3-32.7-13.5-28.7c0 0-6 1.7-1.4 18.4l-6.4 35.2z"/><path class="st0" d="M784.5 800.8h58.9s-11.4 28.5-2.8 41.8h-78l21.9-41.8z"/><path class="st4" d="M827 800.8s-2.9-12.4-13.5-11.8c0 0-5.1 1.5-5.7 11.8H827z"/><path class="st5" d="M827.8 800.8s-13.5-26.6-19.1 0c0 0-4.2 35.7 9.6 45.2l-371.9-6.5s-10-1.9-9.6-10.3c.4-8.4 2.5-21.6 9.6-21.6h30.5L814.4 789c-.1-.1 9.8 2.1 13.4 11.8z"/><ellipse transform="matrix(.9968 -.07963 .07963 .9968 -63.505 70.234)" cx="848.9" cy="831.4" rx="6.7" ry="23.9" style="fill:#d1d3d4"/></g></svg>