<svg version="1.1" id="Layer_1" xmlns="http://www.w3.org/2000/svg" xmlns:xlink="http://www.w3.org/1999/xlink" x="0" y="0" viewBox="0 0 1000 789" style="enable-background:new 0 0 1000 789" xml:space="preserve"><style>.st0{fill:#b694ed}.st3{fill:#1b1c1c}.st4{fill:#e08f58}.st5{fill:#fdae00}.st7{fill:#222223}.st8{fill:#e6e7e8}.st9{fill:#fff}.st10{fill:#a7a9ac}.st13{fill:#4570ad}.st14{fill:#e4b33f}.st15{fill:#f9c193}.st16{fill:#ff4d53}.st17{fill:#facf6c}.st19{fill:#6330b5}.st20{fill:#231f20}.st21{fill:#a7ce89}.st22{fill:#414042}.st25{fill:#464f89}.st27{fill:#3b6acf}.st28{fill:#6d6e71}</style><ellipse class="st0" cx="495.5" cy="393" rx="467" ry="386"/><defs><ellipse id="SVGID_1_" cx="495.5" cy="393" rx="445.5" ry="368.2"/></defs><clipPath id="SVGID_2_"><use xlink:href="#SVGID_1_" style="overflow:visible"/></clipPath><g style="clip-path:url(#SVGID_2_)"><path class="st0" d="M-73 37h1133v725.3H-73z"/><path style="fill:#e3d5f9" d="M-59 54.8h1112.4V730H-59z"/><path class="st3" d="M326.6 697.2s-4.4 13.8 0 14.7c3.2.6 16.5.3 23.8.1 2.3-.1 3.6-2.7 2.2-4.5-1.4-1.8-3.3-3.7-5.9-4.4-5.7-1.5-9-3.7-9-3.7l-11.1-2.2zM370.3 699.6s-6 8.7-1.6 10.9c3.2 1.6 17 .9 24.2.4 2.1-.2 3.1-2.7 1.5-4.2-1.9-1.9-4.9-3.9-9.1-5l-4.1-2.1h-10.9z"/><path class="st3" d="m331.1 474.9-7.7 226.8h18.3l21.9-189 22.9 62.9s4.4.9 1.7 10.4l-18.7 115.7h13.9l30.1-105.6s4-17.2 1.8-28.3c-2.2-11.1-29.9-95.1-29.9-95.1l-54.3 2.2z"/><ellipse transform="rotate(-17.007 353.156 332.756)" class="st4" cx="353.2" cy="332.8" rx="12.2" ry="19.4"/><path class="st4" d="m340.9 349.4-2.1 12.7s-2.2 1.1 3.3 4.4c5.5 3.3 15.5 0 13.3-7.7l.6-9.4h-15.1z"/><path class="st5" d="M351 356.6s6.6 0 21 7.7 16.5 11.1 26.5 23.2c10 12.2 8.9 22.1 8.9 22.1s2.2 6.6-5.5 11.1c0 0 4.4 13.3-12.2 21l-1.7 33.9-57 3s-8.8-38-12.1-50.2S307.7 393 316 377c8.4-16 23.3-19 23.3-19s.4 7.8 7.7 7 4-8.4 4-8.4z"/><path d="m404.4 418.9-.6-1.3s-.8-11.3-9.4-8c-8.6 3.3-21.3 0-21.3 0s-17.7-21-34.7-30.4c-17-9.4-18.3 17.1-18 17.7 9.2 20.5 25.7 28.5 45 38.2 11 5.5 22.3 4.7 30.8 2.5" style="fill:#dc992c"/><path class="st7" d="M358.7 318.4s4-14.9-3-13.3c-5.9 1.4-20.3 14.2-24.4 17.8-.8.7-1.4 1.5-1.8 2.5-1.5 3.4-4.3 12.2.7 19.5 6.4 9.4 11.3 11.6 11.3 11.6s10.1 1.1 9.2-8.3c0 0-6.4-11.6-4.2-15.5 2.3-3.8 11.1-9.3 12.2-14.3z"/><ellipse transform="rotate(-30 346.519 339.422)" class="st4" cx="346.5" cy="339.4" rx="3.1" ry="4.9"/><path class="st8" d="M111.2 251.7h182.4v421.6H111.2z"/><path class="st9" d="M159.6 324.6h95.7v17.8h-95.7zM159.6 359.1h95.7v17.8h-95.7z"/><path class="st10" d="M98.5 326.3h-1.1v-82.4h196.2v1.2H98.5zM97.4 480.2h1.1v191.5h-1.1z"/><g><path style="fill:#d1d3d4" d="m339.2 538.8 4.6-53.4 69.9-.1-3.7 53.5z"/><path class="st9" d="m341.4 535.5 4.2-46.7 63.5-.1-3.4 46.8z"/><path class="st10" d="M311 538.8h99v6.6h-99z"/><g style="opacity:.52"><path transform="matrix(.03595 -.9994 .9994 .03595 -134.247 878.39)" class="st13" d="M375.9 506.6h24.5v4.4h-24.5z"/><path transform="matrix(.03595 -.9994 .9994 .03595 -145.227 871.389)" class="st13" d="M369 508.9h20.1v4.2H369z"/><path transform="matrix(.03595 -.9994 .9994 .03595 -152.77 865.788)" class="st13" d="M363.4 510h17.9v4.2h-17.9z"/><path transform="matrix(.03595 -.9994 .9994 .03595 -163.085 862.862)" class="st13" d="M360.6 513.7h10.1v4.5h-10.1z"/><path transform="matrix(.03595 -.9994 .9994 .03595 -173.113 855.563)" class="st13" d="M353.5 513.1h6.8v8.9h-6.8z"/><path class="st13" d="M349.1 523.1h42.4v3.9h-42.4z"/></g></g><g><path class="st14" d="M199.6 618.3 179 724.5l3.9.8 27.8-102.6zM218.5 624.9l-.3 1.9-13.9 90.6h3.3l20.6-92.5zM250.2 624.9l23.2 99.6h2.3L261.3 623z"/><ellipse transform="rotate(-12.252 250.263 440.343)" class="st15" cx="250.2" cy="440.3" rx="13.5" ry="17.9"/><path class="st7" d="m267.9 606.8 24.6 109.3 10.6-1.1L293 601.6z"/><path class="st7" d="M294.3 715s-2.7 5.6 1.7 8.4h18c2.6 0 3.9-2.4 2-3.7-1.6-1.1-3.7-2-6.5-2.5l-6.6-3.1-8.6.9z"/><path class="st15" d="M343.8 530.3s11.5-3.3 17.1 3.4c5.6 6.7 2.2 4.4 2.2 4.4l-16.5.7h-2.8v-8.5z"/><path class="st9" d="M147.7 510.2s6.3-39.9 26.4-27.6c20 12.2 27.6 9.9 27.6 9.9l5.7 106.9s2.1 7 19.4 7.4c17.3.4 31.8 1.5 31.8 1.5l25.5-1.1s4.9 1.4 1.3 8.5c-3.6 7.1-29.9 11.5-29.9 11.5s-31.5 3.4-50.4-3.3c0 0-36.7-12.2-46.7-41.2-10-29-13.7-48.3-10.7-72.5z"/><path class="st7" d="M276.5 716.1s-2.7 5.6 1.7 8.4h18c2.6 0 3.9-2.4 2-3.7-1.6-1.1-3.7-2-6.5-2.5l-6.6-3.1-8.6.9z"/><path class="st7" d="M206.3 558.2s-11.1 27.8 1.1 41.2 71.2 7.8 71.2 7.8 2.2-3.2 0 52.4c-2.2 55.5-3.1 56.6-3.1 56.6h13.1l18.9-75.6 10-38.9s5.6-23.4-7.8-27.8l-54.2-15.6h-49.2z"/><path class="st16" d="M238.5 460.3s21.1 1.4 29.5 11.2c8.3 9.9 21.7 41 21.7 41s2.2 10 16.7 12.2c14.5 2.2 40.2 5.5 40.2 5.5v8.5l-41.1 6.6s-13.6 2.8-19.2-5l-25.1-24.8s8.4 9.2 2.8 18.1c-5.6 8.9-4.2 26.5-4.2 26.5h-55.6l3.7-31.8 10.7-64.9c.1.1 13.3-4.2 19.9-3.1z"/><path class="st7" d="M260.2 429.6s4.6-11-4.6-15.7c-9.2-4.7-23.1 7.5-24 13.6 0 0-4.7 9.8 0 18 0 0 4.4 12.6-2.1 14.8-6.5 2.2-31 5.6-27.7 25.6 0 0 4.4 8.9-4.4 16.7-8.9 7.8 8.9 46.1 43.4 16.9 0 0 8.9-2.2 9.5-17.9.6-15.7-4.3-22.5 5.3-26.3s0-21.6 0-21.6-9-11.1-5.3-17.8c3.3-6.2 8-8.6 9.9-6.3z"/><ellipse transform="rotate(-12.252 250.263 440.343)" class="st15" cx="250.2" cy="440.3" rx="3.1" ry="4.1"/></g><g><path class="st17" d="m275.5 554.9-59.7 177.9h4.6l75-172.6zM652.7 560.2l52.8 172.6h4.6l-38.3-172.6z"/><path class="st17" d="M667.9 564.3h-389c-6 0-10.9-4.9-10.9-10.9v-8h411.6v7.2c0 6.5-5.2 11.7-11.7 11.7z"/></g><g><ellipse transform="rotate(-4.188 514.394 427.473) scale(.99997)" class="st15" cx="514.4" cy="427.5" rx="12.8" ry="20"/><path class="st15" d="M494.9 441.4v20.9h22.3l-1.8-26.5z"/><path class="st3" d="M531.1 563.6s33.4 3.3 37.8 22.2c4.4 18.9-25.6 134.6-25.6 134.6h-16.8l12.4-105.7-45.6-2-4.4-51.6c-.1.1 41.1.3 42.2 2.5z"/><path class="st13" d="M489.9 453.6h28.2s25.2 4.4 30.8 25.6c5.6 21.1 7.8 54.5 7.8 54.5s2.2 17.8-10 18.9c-12.2 1.1-12.2-43.4-12.2-43.4v55.6h-70.2l-5.4-81.2s-1.1-17.8 20-26.7l11-3.3z"/><path class="st3" d="M503.9 621.6v97.9l17.7-2.6 7.5-103.5z"/><path class="st7" d="M505.5 716.1s-3.3 10 0 11.1c3.3 1.1 25.5 0 25.5 0s-2-6.7-9.9-7.8c0 0-3.1-2.2-2.7-4.4l-12.9 1.1z"/><path class="st7" d="M529.1 716.1s-3.6 4.4-2.4 8.9c1.1 4.4 26.5 2.2 26.5 2.2s.9-6.7-6.1-6.7l-3.7-1.1-1.4-3.3h-12.9z"/><path d="M520.7 413.4s4.9-11.3-7.9-11.7c0 0-23.9 1.9-27.3 17.4-3.3 15.6.9 24.5 8.8 28.4s17.9-2.7 18.4-11.7 4.2-21.4 8-22.4z" style="fill:#020347"/><path class="st14" d="m436.5 618.4-20 110.6h3.3l26.8-107.4zM475.5 627.9l-12.3 102.4h3l17.9-102.4zM495.6 621.6l2.9 101.9h-2.9L488.8 618zM516.2 620.7 559.4 729h4.6l-39.6-110.6z"/><path class="st9" d="M405.4 533.8s-3.3-48.9 25.6-43.4c0 0 17.8 11.1 37.8 3.3 20-7.8 30 11.1 28.9 21.1s.1 72.9.1 72.9 2 21.5 21 19.9c19-1.6 25.7-3.8 20.1 5.1 0 0-21.1 13-45.6 14.8-24.5 1.9-60.1 1.9-73.4-17-13.4-18.8-14.5-76.7-14.5-76.7z"/></g><g><path class="st19" d="M702.5 137.1H444.3c-5.8 0-10.5-4.7-10.5-10.5v-2.4c0-5.8 4.7-10.5 10.5-10.5h258.2c5.8 0 10.5 4.7 10.5 10.5v2.4c0 5.8-4.7 10.5-10.5 10.5z"/><path class="st9" d="M437.1 137.1h263.6v240.3H437.1z"/><path class="st20" d="M479.9 112.1h18.9V131h-18.9zM642.9 111.6h18.9v18.9h-18.9z"/><path class="st20" d="M488.3 55h2.2v61.8h-2.2zM651.2 55h2.2v66h-2.2zM548.3 349.6h-59v-36.7h59v36.7zm-57.8-1.1h56.7V314h-56.7v34.5z"/><path class="st20" d="M542.8 314H505v-99h37.8v99zm-36.7-1.1h35.6v-96.8h-35.6v96.8z"/><path class="st20" d="M542.8 216.1H505v-.6c0-16.9 13.7-30.6 30.6-30.6h7.2v31.2zm-36.7-1.1h35.6v-28.9h-6.1c-16.1 0-29.2 12.9-29.5 28.9zM647.3 349.6H547.2v-21.1h100.1v21.1zm-99-1.1h97.9v-18.9h-97.9v18.9z"/><path class="st20" d="M647.3 329.6H547.2v-11.1h95.3c2.7 0 4.8 2.2 4.8 4.8v6.3zm-99-1.1h97.9v-5.2c0-2.1-1.7-3.7-3.7-3.7h-94.2v8.9z"/><path class="st20" d="M643.4 318.6h-1.1v-53.9l-14.2-27.8h-85.9v-1.1h86.6l14.6 28.6zM539.4 349.6H525v-24.5h14.5v24.5zm-13.3-1.1h12.2v-22.2h-12.2v22.2zM515 345.2h-12.2v-20H515v20zm-11.2-1.1h10v-17.8h-10v17.8z"/><path class="st20" d="M634 265.1h-86.8v-14.5h74.1c7 0 12.7 5.7 12.7 12.7v1.8zm-85.7-1.1h84.5v-.6c0-6.4-5.2-11.6-11.6-11.6h-72.9V264zM637.3 286.2h-90.1v-13.3h90.1v13.3zm-89-1.1h87.9V274h-87.9v11.1zM542.8 219.6H505V215h37.8v4.6zm-36.7-1.1h35.6v-2.4h-35.6v2.4zM637.3 307.3h-90.1v-11.1h90.1v11.1zm-89-1.1h87.9v-8.9h-87.9v8.9zM570 234.9l-1.1-.1c0-.4 2.2-43.2-38.4-72.7l-.5 23.4h-1.1l.5-24.5c0-.2.1-.4.3-.5.2-.1.4-.1.6 0 42 30 39.8 74 39.7 74.4z"/><path class="st20" d="M605.1 236.3H604c0-.4-.7-45.3-58.9-71l-.7-.3c-3.7-1.7-7.6-3.4-11.5-3.4H530v-1.1h2.8c4.2 0 8.1 1.8 12 3.5l.7.3c58.9 26.1 59.6 71.6 59.6 72z"/><path class="st20" d="M594.3 234.9c0-.5-5.4-49.3-62.3-73.4l.4-1c57.5 24.3 62.9 73.8 62.9 74.3l-1 .1z"/><path class="st20" d="m582.6 235-1.1-.2c.1-.3 6.2-33.9-45.2-71l.7-.9c52 37.5 45.7 71.8 45.6 72.1zM554.8 345.2h-7v-1.1h5.9l.2-4 1.1.1zM570 342.5c-1.6-9.4-10.1-9.2-10.5-9.2v-1.1c.1 0 9.9-.3 11.6 10.1l-1.1.2zM600.9 345.2h-6.7v-.6c0-.1.4-6.2-2.7-9.3-1.3-1.4-3.1-2-5.4-1.9-2.3.1-4.1.9-5.4 2.4-2.7 3.3-2 8.8-2 8.9l.1.6h-5v-1.1h3.7c-.1-1.6-.2-6.1 2.3-9.1 1.5-1.7 3.5-2.7 6.2-2.8 2.5-.1 4.6.7 6.2 2.3 2.9 3 3.1 7.9 3.1 9.6h5.5v1zM646.5 345.2h-6.7v-.6c0-.1.4-6.2-2.7-9.3-1.3-1.4-3.1-2-5.4-1.9-2.3.1-4.1.9-5.4 2.4-2.7 3.3-2 8.8-2 8.9l.1.6h-5v-1.1h3.7c-.1-1.6-.2-6.1 2.3-9.1 1.5-1.7 3.5-2.7 6.2-2.8 2.6-.1 4.6.7 6.2 2.3 2.9 3 3.1 7.9 3.1 9.6h5.5v1zM617.6 339c-2.1-3-4.4-4.6-6.9-5-3.3-.5-5.8 1.6-5.8 1.6l-.7-.9c.1-.1 2.9-2.3 6.6-1.8 2.8.4 5.4 2.2 7.7 5.4l-.9.7zM516.1 226.1h-7.8v-5.6h7.8v5.6zm-6.7-1.1h5.6v-3.3h-5.6v3.3zM516.1 235h-7.8v-5.6h7.8v5.6zm-6.7-1.1h5.6v-3.3h-5.6v3.3z"/><path class="st20" d="M510.5 225.6h3.3v4.4h-3.3zM516.1 245.1h-7.8v-5.6h7.8v5.6zm-6.7-1.2h5.6v-3.3h-5.6v3.3zM516.1 254h-7.8v-5.6h7.8v5.6zm-6.7-1.2h5.6v-3.3h-5.6v3.3z"/><path class="st20" d="M510.5 244.5h3.3v4.4h-3.3z"/><g><path class="st20" d="M516.1 264h-7.8v-5.6h7.8v5.6zm-6.7-1.1h5.6v-3.3h-5.6v3.3zM516.1 272.9h-7.8v-5.6h7.8v5.6zm-6.7-1.2h5.6v-3.3h-5.6v3.3z"/><path class="st20" d="M510.5 263.4h3.3v4.4h-3.3z"/></g><g><path class="st20" d="M510.5 254h3.3v4.4h-3.3z"/></g><g><path class="st20" d="M510.5 235h3.3v4.4h-3.3z"/></g><g><path class="st20" d="M516.1 282.9h-7.8v-5.6h7.8v5.6zm-6.7-1.1h5.6v-3.3h-5.6v3.3zM516.1 291.8h-7.8v-5.6h7.8v5.6zm-6.7-1.1h5.6v-3.3h-5.6v3.3z"/><path class="st20" d="M510.5 282.3h3.3v4.4h-3.3zM516.1 301.8h-7.8v-5.6h7.8v5.6zm-6.7-1.1h5.6v-3.3h-5.6v3.3zM516.1 310.7h-7.8v-5.6h7.8v5.6zm-6.7-1.1h5.6v-3.3h-5.6v3.3z"/><path class="st20" d="M510.5 301.2h3.3v4.4h-3.3z"/><g><path class="st20" d="M510.5 291.8h3.3v4.4h-3.3z"/></g><g><path class="st20" d="M510.5 272.9h3.3v4.4h-3.3z"/></g></g><g><path class="st20" d="M533.9 226.1h-7.8v-5.6h7.8v5.6zm-6.7-1.1h5.6v-3.3h-5.6v3.3zM533.9 235h-7.8v-5.6h7.8v5.6zm-6.7-1.1h5.6v-3.3h-5.6v3.3z"/><path class="st20" d="M528.3 225.6h3.3v4.4h-3.3zM533.9 245.1h-7.8v-5.6h7.8v5.6zm-6.7-1.2h5.6v-3.3h-5.6v3.3zM533.9 254h-7.8v-5.6h7.8v5.6zm-6.7-1.2h5.6v-3.3h-5.6v3.3z"/><path class="st20" d="M528.3 244.5h3.3v4.4h-3.3z"/><g><path class="st20" d="M533.9 264h-7.8v-5.6h7.8v5.6zm-6.7-1.1h5.6v-3.3h-5.6v3.3zM533.9 272.9h-7.8v-5.6h7.8v5.6zm-6.7-1.2h5.6v-3.3h-5.6v3.3z"/><path class="st20" d="M528.3 263.4h3.3v4.4h-3.3z"/></g><g><path class="st20" d="M528.3 254h3.3v4.4h-3.3z"/></g><g><path class="st20" d="M528.3 235h3.3v4.4h-3.3z"/></g><g><path class="st20" d="M533.9 282.9h-7.8v-5.6h7.8v5.6zm-6.7-1.1h5.6v-3.3h-5.6v3.3zM533.9 291.8h-7.8v-5.6h7.8v5.6zm-6.7-1.1h5.6v-3.3h-5.6v3.3z"/><path class="st20" d="M528.3 282.3h3.3v4.4h-3.3zM533.9 301.8h-7.8v-5.6h7.8v5.6zm-6.7-1.1h5.6v-3.3h-5.6v3.3zM533.9 310.7h-7.8v-5.6h7.8v5.6zm-6.7-1.1h5.6v-3.3h-5.6v3.3z"/><path class="st20" d="M528.3 301.2h3.3v4.4h-3.3z"/><g><path class="st20" d="M528.3 291.8h3.3v4.4h-3.3z"/></g><g><path class="st20" d="M528.3 272.9h3.3v4.4h-3.3z"/></g></g></g><g><path class="st20" d="M539.4 226.1h-7.8v-5.6h7.8v5.6zm-6.6-1.1h5.6v-3.3h-5.6v3.3zM539.4 235h-7.8v-5.6h7.8v5.6zm-6.6-1.1h5.6v-3.3h-5.6v3.3z"/><path class="st20" d="M533.9 225.6h3.3v4.4h-3.3zM539.4 245.1h-7.8v-5.6h7.8v5.6zm-6.6-1.2h5.6v-3.3h-5.6v3.3zM539.4 254h-7.8v-5.6h7.8v5.6zm-6.6-1.2h5.6v-3.3h-5.6v3.3z"/><path class="st20" d="M533.9 244.5h3.3v4.4h-3.3z"/><g><path class="st20" d="M539.4 264h-7.8v-5.6h7.8v5.6zm-6.6-1.1h5.6v-3.3h-5.6v3.3zM539.4 272.9h-7.8v-5.6h7.8v5.6zm-6.6-1.2h5.6v-3.3h-5.6v3.3z"/><path class="st20" d="M533.9 263.4h3.3v4.4h-3.3z"/></g><g><path class="st20" d="M533.9 254h3.3v4.4h-3.3z"/></g><g><path class="st20" d="M533.9 235h3.3v4.4h-3.3z"/></g><g><path class="st20" d="M539.4 282.9h-7.8v-5.6h7.8v5.6zm-6.6-1.1h5.6v-3.3h-5.6v3.3zM539.4 291.8h-7.8v-5.6h7.8v5.6zm-6.6-1.1h5.6v-3.3h-5.6v3.3z"/><path class="st20" d="M533.9 282.3h3.3v4.4h-3.3zM539.4 301.8h-7.8v-5.6h7.8v5.6zm-6.6-1.1h5.6v-3.3h-5.6v3.3zM539.4 310.7h-7.8v-5.6h7.8v5.6zm-6.6-1.1h5.6v-3.3h-5.6v3.3z"/><path class="st20" d="M533.9 301.2h3.3v4.4h-3.3z"/><g><path class="st20" d="M533.9 291.8h3.3v4.4h-3.3z"/></g><g><path class="st20" d="M533.9 272.9h3.3v4.4h-3.3z"/></g></g></g><g><path class="st20" d="M518.3 220.6h1.1v90.1h-1.1z"/></g><g><path class="st20" d="M521.6 220.6h1.1v90.1h-1.1z"/></g><path class="st19" d="M702.5 399.7H444.3c-5.8 0-10.5-4.7-10.5-10.5v-2.4c0-5.8 4.7-10.5 10.5-10.5h258.2c5.8 0 10.5 4.7 10.5 10.5v2.4c0 5.8-4.7 10.5-10.5 10.5z"/></g><g><path class="st21" d="M605.5 488.7s2.3-16.1-15.5-21.7c0 0-5.3-2-7.7-8.2-2.4-6.2-14.8-19.8-20.2-9.7 0 0-3.4 8 8.9 18 0 0 2.3 3-1.6 9.3s-.9 10.9 2.6 14.7c3.5 3.8 4.6 4.9 3.5 9.3-1.1 4.4 10.3 12.2 10.3 12.2l17 1.3 2.7-25.2zM606.5 507.5s-.7-29.4 18.1-35.5 33.3-6.1 29.9 2.8c-3.3 8.9-14.5 5.6-14.5 11.1 0 5.6 6.7 15.6-5.6 21.1-12.1 5.6-27.9.5-27.9.5z"/><path class="st5" d="M590.1 511.5s-15.3-12.7-2.6-24.2c0 0 4.9-4.8 9.3-3.7 0 0-5.6-21.2 6.1-23.4 0 0 8.4 0 10.6-6.7 2.2-6.7 5.6-16.6 12.8-12.7 7.2 3.8 0 15 0 15s-.8 5 3.2 9.7-3.2 17.6-3.2 17.6-.6 6 2.8 10.4c3.3 4.4-2.1 12.2-10.5 18.9l-28.5-.9z"/><path class="st9" d="M602.1 509.6c.3-6.1 1.2-12.2 2.4-18.3 1.2-6 2.8-12 4.7-17.9l1.5-4.4 1.7-4.3c.5-1.4 1.2-2.8 1.8-4.2.7-1.4 1.2-2.8 2-4.2 2.8-5.5 6.2-10.7 9.9-15.5-1.6 2.6-3.5 5.1-4.9 7.8-.7 1.3-1.6 2.6-2.3 4l-2 4.1c-2.6 5.5-5 11.2-6.8 17-2 5.8-3.5 11.7-4.9 17.7-.7 3-1.3 6-1.8 9-.5 3.1-.9 6.2-1.3 9.2z"/><g><path class="st22" d="M619.6 522h-33.9c-3.4 0-6.2-2.8-6.2-6.2v-7.1h46.7v6.8c0 3.6-2.9 6.5-6.6 6.5z"/><path class="st22" d="m587.4 519.5 2.7 27 23.6-.5 3.1-26.2z"/></g></g><g><path class="st20" d="M681.8 514.3h257v11.1h-257z"/><path class="st20" d="M796.4 522h11.1v144.6h-11.1zM819.8 522h10v144.6h-10zM755.2 666.6h114.6v8.9H755.2z"/><g><path class="st13" d="m772.5 388 100.1 1.1 18.3 36.1v57.3H772.5z"/><path d="m755.8 303.5-2.3 84.5 99.2.9c.1 0-15.6-81-96.9-85.4z" style="fill:#fdfffb"/><path class="st13" d="M694.6 475.9H778v38.4h-83.4z"/><path class="st8" d="M760.2 475.9H778v37.8h-17.8z"/><path class="st5" d="M778 492.6h127.9v21.1H778z"/><path class="st17" d="M903.7 492.6H778v-10h116.7c5 0 9 4 9 9v1z"/><path class="st9" d="M709.1 491.4h14.5v21.1h-14.5z"/><path class="st8" d="M735.8 491.4h15.6v21.1h-15.6z"/><path style="fill:#3852b2" d="M714.6 365.7h57.8v110.1h-57.8z"/><path class="st25" d="M772.5 365.7h-57.8c3.7-6.5 8.8-12 14.7-16.7 12.3-9.6 27.6-14.5 43.1-14.5v31.2zM758 365.7h14.5v110.1H758z"/><path style="fill:#fffdff" d="M718 368h35.6v106.8H718z"/><path class="st20" d="M823.9 388.6h-.1c-.3-.1-.5-.4-.4-.7 0-.1 2.6-10.1-4.4-25.3-6.5-14.1-22.7-35.7-63.4-58.6-.3-.2-.4-.5-.2-.8.2-.3.5-.4.8-.2 40.9 23.1 57.3 44.9 63.9 59.2 7.1 15.6 4.5 25.5 4.4 26-.2.2-.4.4-.6.4z"/><path class="st20" d="M840.9 388.6c-.3 0-.5-.2-.5-.4s-3.6-17.3-15.5-36.2c-11-17.4-31.5-39.7-66.9-47.8-.3-.1-.5-.4-.4-.7.1-.3.4-.5.7-.4 35.8 8.2 56.5 30.8 67.6 48.3 12 19 15.6 36.3 15.6 36.5.1.3-.1.6-.4.7-.2-.1-.2 0-.2 0z"/><path class="st9" d="M875.9 422.5h-99v-18.9h81.2c9.8 0 17.8 8 17.8 17.8v1.1zm-96.7-2.2h94.5c-.6-8.1-7.3-14.5-15.5-14.5h-79v14.5zM880.4 469.2H776.9v-16.7h103.5v16.7zM779.2 467h99v-12.2h-99V467zM880.4 445.8H776.9v-16.7h103.5v16.7zm-101.2-2.2h99v-12.2h-99v12.2z"/><path class="st27" d="M718 463.2h35.6v3.3H718zM718 452h35.6v3.3H718zM718 442.1h35.6v3.3H718zM718 431.9h35.6v3.3H718zM718.5 420.8h35.6v3.3h-35.6zM718.5 410.8h35.6v3.3h-35.6zM718.5 399.7h35.6v3.3h-35.6zM718.5 388.6h35.6v3.3h-35.6zM718.5 378.5h35.6v3.3h-35.6z"/><path class="st27" d="M723.2 368h3.3v107.3h-3.3zM732.9 368h3.3v107.3h-3.3zM741.8 368h3.3v107.3h-3.3z"/><g><path class="st27" d="M808.8 513.7h-6.9l.2-1.3c1.6-12.1-5.7-13.3-5.8-13.3-3.9-.3-6.8.6-8.7 2.6-3.5 3.8-2.4 10.6-2.4 10.6l-2.2.4c-.1-.3-1.3-7.9 3-12.5 2.4-2.6 5.9-3.7 10.6-3.3.2 0 9.1 1.4 7.9 14.5h4.4v2.3zM811.2 503.7l-1.9-1.2c.1-.1 6.2-9.6 17.6-4l-1 2c-9.5-4.7-14.4 2.9-14.7 3.2zM837.6 512.7h-10.1v-7.4h2.2v5.2h5.4c-.1-2.4.1-7.5 3-10.7 1.7-1.9 4-2.9 7-2.9h.1c2.8-.3 8.5.4 10.5 5.9l-2.1.8c-2-5.2-8-4.5-8.3-4.4h-.2c-2.3-.1-4.1.7-5.5 2.1-3.1 3.5-2.4 10.1-2.4 10.2l.4 1.2zM858.3 512.7v-2.3h5.4v-7.3h2.2v9.5zM903.7 512.7h-23l.2-1.3c.4-3.2-.2-5.9-1.8-8-2.8-3.7-7.9-4.3-8-4.3l.3-2.2c.2 0 6 .7 9.4 5.1 1.8 2.3 2.6 5.1 2.4 8.4h20.5v2.3z"/></g><g><path class="st20" d="M852.8 389.4c-.3 0-.5-.2-.5-.5 0-.2-2.4-16.9-14.9-35.6-11.6-17.3-34.4-39.9-77.3-49.3-.3-.1-.5-.4-.4-.7.1-.3.4-.5.7-.4 43.3 9.5 66.2 32.4 77.9 49.8 12.6 19 15 35.9 15.1 36.1 0 .3-.3.6-.6.6z"/></g></g></g><g><path class="st5" d="M159.6 189.4 146.7 215h23.2zM251.9 189.4 239 215h23.2zM340.9 189.4 328 215h23.2z"/></g><path class="st16" d="M384 189.4H118.7c-4.1 0-7.5-3.4-7.5-7.5v-5c0-4.1 3.4-7.5 7.5-7.5H384c4.1 0 7.5 3.4 7.5 7.5v5c0 4.2-3.4 7.5-7.5 7.5z"/><g><path class="st28" d="M156 57.6h4.4v111.8H156z"/></g><g><path class="st28" d="M339.2 169.5 337 55.1l4.4-.1 2.2 114.4z"/></g></g></svg>