<svg version="1.1" id="Layer_1" xmlns="http://www.w3.org/2000/svg" x="0" y="0" viewBox="0 0 931.87 717.25" style="enable-background:new 0 0 931.87 717.25" xml:space="preserve"><style>.st1{fill:#b06f47}.st2{fill:#fff}.st3{fill:#ffa195}.st4{fill:#7a2dc4}.st5{fill:#070707}.st6{fill:#f65355}.st7{fill:#0f0000}.st9{fill:#f55651}.st11{fill:#9b3dea}.st14{fill:#fbe578}.st16{fill:#008b7a}.st19{fill:#d2ebf7}.st22{fill:#f5af00}.st23{fill:#a01717}</style><path d="M862.99 704.4s140.95-262.07-11.75-379.36c0 0-61.94-8.03-51.4-95.97 11.01-91.8-74.45-211.18-199.49-218.06 0 0-139.53-31.64-242 78.42-88.17 94.7-260.42 115.55-301.7 155.9s-64.66 103.66-30.27 222.9 92.44 236.18 92.44 236.18h744.17z" style="fill:#e2cef6"/><path class="st1" d="m368.94 170.6-53.65 529.22h19.26l46.77-496.89zM627.97 460.66h17.89v237.1h-17.89z"/><path class="st1" d="M747.52 468.23h-162.8c-8.86 0-16.05-7.19-16.05-16.05s7.19-16.05 16.05-16.05h162.8c8.86 0 16.05 7.19 16.05 16.05s-7.19 16.05-16.05 16.05z"/><path class="st1" d="M732.38 462.73h17.89v237.1h-17.89z"/><path class="st1" d="M632.58 592.29h117.69v13.52H632.58zM584.8 421.8l-197.73 26.1a4.313 4.313 0 0 1-4.87-4.02l-17.34-289.4a4.311 4.311 0 0 1 4.26-4.57l185.77-2.19a9.825 9.825 0 0 1 9.88 8.73l28.51 254.52c.59 5.31-3.18 10.13-8.48 10.83z"/><path class="st2" d="m575.21 406.32-168.43 15.13-21.1-258.19h164.37z"/><path class="st1" d="m388.89 436.13 29.58 263.69h24.77l-35.09-269.88zM519.59 421.45l-12.07 278.37h20.33l13.6-278.37z"/><path class="st1" d="M341.43 473.73v18.12l65.35 4.12-3.44-17.19zM341.43 549.63l182.6-17.2-3.06 17.2-183.67 18.12zM419.85 586.09l3.44 15.82 165.86-28.2-2.83-17.2z"/><path class="st1" d="m571.21 457.03 25.43 242.79h17.88l-21.65-221.83z"/><ellipse class="st3" cx="683.31" cy="189.52" rx="28.2" ry="39.55"/><path class="st3" d="m678.5 222.88 4.81 35.77 37.84-10.32-21.33-38.52zM576.61 252.54s-4.43-18.34-17.81-19.57-28.66 3.06-28.36 9.78c.31 6.73 5.5 9.17 10.09 9.78s15.59 2.75 15.59 2.75l6.73 10.39 13.76-13.13z"/><path class="st4" d="m678.5 255.65-2.4 60.54-39.56 23.39s-25.45 17.2-35.08 0c-9.63-17.2-42.65-79.11-42.65-79.11l17.89-15.13 48.15 50.94 53.65-40.63z"/><path class="st5" d="M655.11 149.96s-17.2 35.08 12.38 30.96c0 0 10.62-1.76 18.88-7.57 8.25-5.81 8.25 4.89 8.25 4.89s-1.22 9.78 3.67 12.54 6.11 16.51 6.11 16.51-.61 11.62 13.45 6.73c14.06-4.89 25.07-18.73 18.34-24.5s2.03-15.86 2.03-15.86 4.09-16.82-2.94-22.01-12.38 1.22-23.77-8.87-22.7-13.45-30.96-5.5c-8.25 7.95-5.81 1.53-11.31 1.22-5.5-.31-11.62 1.53-10.39 7.03 1.23 5.5-3.74 4.43-3.74 4.43z"/><path class="st5" d="M693.4 141.25s-24.46-22.01-10.09-33.32c14.37-11.31 17.58.31 28.2 1.83 10.62 1.53 21.94-5.2 22.85 18.34.92 23.54-31.68 16.2-31.68 16.2l-9.28-3.05z"/><path class="st6" d="M680.56 137.27s29.35 4.89 43.72 2.75c14.37-2.14 1.22 9.94 1.22 9.94s-43.17-3.9-46.71-6.34c-3.54-2.45 1.77-6.35 1.77-6.35z"/><path class="st6" d="m686.37 140.64-18.65-23.54v14.36l-15.29 5.81 28.44 6.35z"/><path class="st7" d="M658.67 526.24s48.61 16.51 23.85 32.1l-56.87 33.94s-16.51.92-7.8-20.18 18.8-34.85 18.8-34.85l22.02-11.01z"/><path d="m609.71 437.5 66.39 88.05-33.19 20.18-84.86-135.08c-5.57-8.87-3.06-20.58 5.68-26.35 10.15-6.7 26.13-13.49 49.1-13.32 45.12.33 81.95-2.65 81.95-2.65s23.19 49.4 20.64 46.47c-2.55-2.93-105.71 0-105.71 0v22.7z" style="fill:#ce3a3a"/><path class="st7" d="M659.46 545.73s48.61 16.51 23.85 32.1l-56.87 33.94s-16.51.92-7.8-20.18 18.8-34.85 18.8-34.85l22.02-11.01z"/><ellipse transform="rotate(-48.502 705.768 189.497)" class="st3" cx="705.76" cy="189.52" rx="11.77" ry="8.39"/><path class="st9" d="M746.36 396.24s10.45 49.6-34.84 46.85-92.87-6.5-92.87-6.5l50.75 108.23-36.53 22.93-79.8-128.41s-16.51-47.69 22.01-52.28c38.52-4.59 101.01-7.34 101.01-7.34l70.27 16.52z"/><path d="M750.27 412.05s-2.41 6.05-3.51.16c2.25-.09 3.51-.16 3.51-.16z" style="fill:#8055e2"/><path class="st11" d="M746.76 412.21c-14.6.54-70.79 1.49-91.65-14.61l2.87-26.64 13.64-126.76.07.01c.48.09 3.13.55 7.02.88l.08.01c9.49.79 26.23.77 36.43-7.47 0 0 41.7 43.03 34.13 119.38-3.54 35.69-3.57 50.04-2.59 55.2z"/><path style="fill:#ffa70b" d="m666.11 338.1 3.29 24.09-11.42 8.77 13.64-126.76.07.01 7.02.88.08.01z"/><ellipse transform="rotate(-2.922 570.842 345.432)" cx="571.21" cy="345.28" rx="51.25" ry="23.7" style="fill:#eb977f"/><ellipse transform="rotate(-2.922 546.891 353.61)" class="st14" cx="547.26" cy="353.47" rx="7.87" ry="3.64"/><ellipse transform="rotate(-2.922 574.847 330.03)" cx="575.21" cy="329.87" rx="7.87" ry="3.64" style="opacity:.64;fill:#f71577"/><ellipse transform="rotate(-2.922 599.386 334.616)" class="st5" cx="599.76" cy="334.44" rx="7.87" ry="3.64"/><ellipse transform="rotate(-2.922 576.234 357.747)" class="st2" cx="576.61" cy="357.59" rx="7.87" ry="3.64"/><ellipse transform="rotate(-2.922 549.195 337.13)" class="st16" cx="549.55" cy="336.98" rx="7.87" ry="3.64"/><path class="st4" d="M687.44 283.41s20.23-36.38 41.27 2.75c21.04 39.13 11.69 91.49 11.69 91.49s-10.82 33.71-34.65 30.27c-23.82-3.44-96.05-32.33-96.05-32.33l4.13-26.83 91.93 22.21s-24.51-53.16-18.32-87.56z"/><path class="st3" d="M614.52 353.47s-12.54-4.93-17.12-9.52c-4.59-4.59-7.03 2.75 0 7.64s8.87 12.54 2.45 13.45c-6.42.92-36.08 4.59-36.08 4.59s.39 8.18 14.72 7.15c14.33-1.03 20.06-5.77 25.64-3.48 5.58 2.29 10.39 2.14 10.39 2.14v-21.97z"/><path class="st1" d="M524.03 260.15a1.5 1.5 0 0 1-.83-2.75l67.87-44.94a1.5 1.5 0 1 1 1.66 2.5l-67.87 44.94c-.26.17-.55.25-.83.25z" style="opacity:.64"/><path class="st14" d="M513.27 257.71c.92 0 13.76-4.89 13.76-4.89l2.75 4.89-11.01 8.87-5.5-8.87z"/><path class="st3" d="M567.13 253.76s-6.73 1.38-6.73-5.43c0 0-19.26 2.68-18.96-1.91s12.07-3.67 12.07-3.67 2.88-9.67 7.49-8.52c4.61 1.15 12.18 5.01 14.19 14.1l-8.06 5.43z"/><circle cx="494.05" cy="194.85" r="14.96" style="fill:orange"/><path class="st16" d="M396.23 292.36s22.93-23.39 39.44-6.19c16.51 17.2 22.01 6.19 22.01 6.19s17.89-11.76 39.21 5.47l66.52-5.47.36 9.63s-70.88 2.75-83.32 9.63C468 318.5 399 326.21 399 326.21l-2.77-33.85z"/><path class="st19" d="M401.22 353.47s71.08-20.75 85.44 4.12c14.36 24.88 34.87 13.38 34.87 13.38s34.67 11.5 2.96 21.82C492.76 403.11 406 412 406 412l-4.78-58.53zM454.93 215.21s-24.92-.25-17.2-11.25c7.72-11.01 25.16-19.95 35.97-14.96 10.81 4.99 9.43 13.24 14.25 14.96 4.82 1.72 4.05-3.41 19.57-2.56s15.01 10.81 15.01 10.81l31 7.23h-53.2l-45.4-4.23z"/><g><path class="st11" d="M170.83 495.97h144.46v203.85H170.83z"/><path class="st2" d="M182.04 511.8h122.03V684H182.04z"/></g><g><path class="st1" d="M125.16 595.35a1.499 1.499 0 0 1 2.78.73l2.86 81.35c.03.83-.62 1.52-1.45 1.55-.83.03-1.52-.62-1.55-1.45l-2.86-81.35c-.01-.3.07-.58.22-.83z"/><path class="st14" d="M132.86 587.46c-.48.78-3.02 14.29-3.02 14.29l-5.61-.21-1.81-14.02 10.44-.06z"/><path class="st1" d="M139.92 609.08a1.499 1.499 0 0 1 2.78.73l2.86 81.35c.03.83-.62 1.52-1.45 1.55-.83.03-1.52-.62-1.55-1.45l-2.86-81.35c-.01-.3.07-.59.22-.83z"/><path d="M147.63 601.19c-.48.78-3.02 14.29-3.02 14.29l-5.61-.21-1.81-14.02 10.44-.06z" style="fill:#6ca7ab"/><g><path class="st1" d="M155.67 585.09c.29-.39.77-.62 1.29-.59.83.06 1.45.77 1.4 1.6l-5.41 81.22c-.05.83-.77 1.45-1.6 1.4-.83-.06-1.45-.77-1.4-1.6l5.41-81.22c.02-.3.13-.58.31-.81z"/><path d="M164.13 578.02c-.56.73-4.45 13.91-4.45 13.91l-5.56-.78-.38-14.13 10.39 1z" style="fill:#f4a77d"/></g><path class="st9" d="M123.3 640.91h39.97v62.83H123.3z"/></g><g><path class="st22" d="m828.86 636.83-1.78-.91c.1-.2 9.83-21.5-16.66-103.5-26.87-83.21-11.05-112.29-10.37-113.49l1.73.99-.87-.5.87.5c-.16.29-16 29.71 10.53 111.88 26.88 83.19 16.99 104.18 16.55 105.03z"/><ellipse class="st22" cx="800.31" cy="403.32" rx="7.55" ry="16.11"/><ellipse transform="rotate(-30 786.353 436.724)" class="st22" cx="786.38" cy="436.69" rx="7.55" ry="16.11"/><ellipse transform="rotate(-48.502 786.398 464.925)" class="st22" cx="786.38" cy="464.95" rx="7.55" ry="16.11"/><ellipse transform="rotate(-48.502 790.521 488.858)" class="st22" cx="790.51" cy="488.88" rx="7.55" ry="16.11"/><ellipse transform="rotate(-48.502 795.905 514.22)" class="st22" cx="795.89" cy="514.24" rx="7.55" ry="16.11"/><ellipse transform="rotate(-55.911 800.298 534.723)" class="st22" cx="800.31" cy="534.74" rx="7.55" ry="16.11"/><ellipse transform="rotate(-60 805.163 432.46)" class="st22" cx="805.15" cy="432.44" rx="16.11" ry="7.55"/><ellipse transform="rotate(-50.963 807.887 453.222)" class="st22" cx="807.86" cy="453.2" rx="16.11" ry="7.55"/><ellipse transform="rotate(-50.963 810.582 478.52)" class="st22" cx="810.55" cy="478.5" rx="16.11" ry="7.55"/><ellipse transform="rotate(-50.963 815.434 505.64)" class="st22" cx="815.41" cy="505.62" rx="16.11" ry="7.55"/><ellipse transform="rotate(-50.963 824.672 527.929)" class="st22" cx="824.64" cy="527.91" rx="16.11" ry="7.55"/></g><g><path class="st2" d="M818.06 643.14c-.47-.93-11.27-23.85 18.26-115.28 29.36-90.93 11.74-123.46 11.56-123.78l.87-.5c.18.32 18.06 33.14-11.47 124.59-29.4 91.04-18.43 114.3-18.32 114.52l-.9.45z"/><ellipse class="st2" cx="848.99" cy="386.07" rx="8.32" ry="17.75"/><ellipse transform="rotate(-60 864.353 422.87)" class="st2" cx="864.34" cy="422.85" rx="17.75" ry="8.32"/><ellipse transform="rotate(-41.496 864.327 453.957)" class="st2" cx="864.34" cy="453.99" rx="17.75" ry="8.32"/><ellipse transform="rotate(-41.496 859.785 480.332)" class="st2" cx="859.8" cy="480.36" rx="17.75" ry="8.32"/><ellipse transform="rotate(-41.496 853.853 508.282)" class="st2" cx="853.86" cy="508.31" rx="17.75" ry="8.32"/><ellipse transform="rotate(-34.089 848.931 530.879)" class="st2" cx="848.99" cy="530.91" rx="17.75" ry="8.32"/><ellipse transform="rotate(-30 843.627 418.199)" class="st2" cx="843.66" cy="418.16" rx="8.32" ry="17.75"/><ellipse transform="rotate(-39.037 840.72 441.066)" class="st2" cx="840.67" cy="441.04" rx="8.32" ry="17.75"/><ellipse transform="rotate(-39.037 837.75 468.946)" class="st2" cx="837.7" cy="468.92" rx="8.32" ry="17.75"/><ellipse transform="rotate(-39.037 832.403 498.834)" class="st2" cx="832.36" cy="498.81" rx="8.32" ry="17.75"/><ellipse transform="rotate(-39.037 822.222 523.398)" class="st2" cx="822.17" cy="523.37" rx="8.32" ry="17.75"/></g><g><path class="st16" d="M847.49 703.28h-59.62s-18.69-32.7-17.27-67.41c.23-5.68 1-11.41 2.47-17.05.99-3.77 2.28-7.49 3.95-11.14 1.09-2.41 2.34-4.78 3.76-7.11l.02-.03c.78-1.27 1.61-2.53 2.49-3.77 0 0 1.87-3.38 3.55-9.93 2.24-8.67 4.16-22.9 1.03-42.23h61.45s-1.8 21.69 2.51 42.23c.99 4.72 2.31 9.38 4.04 13.7 1.01 2.51 2.16 4.91 3.46 7.14.61 1.03 1.25 2.02 1.92 2.97 1.7 2.4 3.16 5.15 4.39 8.17 2.03 5.06 3.4 10.86 4.1 17.05 2.71 24.01-4.71 53.77-22.25 67.41z"/><path class="st23" d="M786.84 585.84h64.99v2h-64.99zM770.6 634.87h99.14v2H770.6z"/><path class="st22" d="M773.07 616.82h92.57v4h-92.57z"/><path class="st9" d="M859.33 607.68h-82.31l3.76-7.11.02-.03h75.07c1.01 2.51 2.16 4.91 3.46 7.14z"/></g></svg>