<svg version="1.1" id="Layer_1" xmlns="http://www.w3.org/2000/svg" x="0" y="0" viewBox="0 0 1000 836" style="enable-background:new 0 0 1000 836" xml:space="preserve"><style>.st0{fill:#e6d9f7}.st1{fill:#cfb5f6}.st2{fill:#ff4d53}.st3{fill:#fff}.st4{fill:#466eb6}.st5{opacity:.52}.st6{fill:#e8f0fb}.st11{fill:#d7c7f9}.st12{fill:#e1dcef}.st13{fill:#b5a3e8}.st15{fill:#feafa8}.st16{fill:#1e1e1e}</style><ellipse transform="rotate(-51.786 474.436 419.295)" class="st0" cx="474.4" cy="419.3" rx="420.5" ry="384.3"/><ellipse transform="rotate(-65.821 474.433 419.28)" class="st1" cx="474.4" cy="419.3" rx="404.2" ry="365.2"/><ellipse class="st1" cx="479" cy="794" rx="293" ry="30"/><ellipse class="st0" cx="474" cy="776" rx="293" ry="30"/><path class="st2" d="m203.6 470-4.1 12.8 7.8 5.1c-.6 5.4-.1 10.8 1.2 15.9l-8 6.3 5.6 12.2 11-1.7c3 3.6 6.6 6.8 10.7 9.4l-.8 11.2 12.8 4.1 5.9-8.9c5.1.7 10.2.4 15.1-.7l7.6 8.5 12-5.9-2.3-10.7c4.2-3.2 7.9-7.2 10.8-11.9l10 1 5-12.4-8.7-6.2c.6-4.3.5-8.7-.2-12.8l8.9-8.1-6.4-11.8-9.6 2.2c-3.5-5.2-8.1-9.6-13.7-12.9v-9.5l-12.9-3.6-4 7.2c-5.6-.8-11.2-.4-16.5.9l-5.6-7.2-12.4 5 1.5 10.2c-4.4 3.5-8.3 7.8-11.1 12.9l-9.6-.6z"/><path class="st3" d="M261 461.4c17.5 5.6 27.2 24.4 21.6 42-5.6 17.5-24.4 27.2-42 21.6-13.5-4.3-22.8-16.7-23.2-30.9 0-.8.6-1.5 1.5-1.6.8 0 1.5.6 1.6 1.5.3 12.9 8.8 24.2 21.1 28.1 15.9 5.1 33.1-3.7 38.2-19.7 5.1-15.9-3.7-33.1-19.7-38.2-8.1-2.6-16.9-1.6-24.3 2.5-.7.4-1.6.2-2.1-.6-.4-.7-.2-1.6.6-2.1 8.1-4.4 17.8-5.4 26.7-2.6z"/><path class="st3" d="M255 480.2c7.2 2.3 11.1 10 8.9 17.2-2.3 7.2-10 11.1-17.2 8.9-7.2-2.3-11.1-10-8.9-17.2s10-11.2 17.2-8.9zm-7.4 23.2c5.6 1.8 11.6-1.3 13.4-6.9s-1.3-11.6-6.9-13.4c-5.6-1.8-11.6 1.3-13.4 6.9-1.7 5.6 1.3 11.6 6.9 13.4zM228.4 556.8c.1 0 .1 0 .2.1 1.8.7 3.6 1.4 5.5 2 1.3.4 2.1 1.8 1.6 3.2-.4 1.3-1.8 2.1-3.2 1.6-2-.6-4-1.4-5.9-2.1-1.3-.5-1.9-2-1.4-3.3.7-1.3 2-1.9 3.2-1.5zM262.3 413.3c1.1.3 1.8 1.4 1.7 2.6-.1 1.4-1.3 2.4-2.7 2.4-3.7-.2-7.5-.2-11.2.2-1.4.1-2.6-.9-2.8-2.3-.1-1.4.9-2.6 2.3-2.8 4-.4 8-.5 12-.2.3 0 .5 0 .7.1zm-23 2.2c.8.3 1.4.9 1.7 1.8.4 1.3-.4 2.7-1.8 3.1-3.6.9-7.1 2.2-10.5 3.7-1.3.6-2.8 0-3.3-1.3-.6-1.3 0-2.8 1.3-3.3 3.7-1.6 7.5-2.9 11.3-4 .4-.1.9-.1 1.3 0zm-21.1 9.3c.5.2 1 .5 1.3 1 .8 1.2.4 2.7-.8 3.5-3.1 2-6.1 4.3-8.9 6.8-1 .9-2.6.8-3.6-.2-.9-1-.8-2.6.2-3.6 3-2.6 6.2-5.1 9.5-7.2.8-.4 1.6-.5 2.3-.3zM201 440.2c.3.1.6.2.8.5 1.1.9 1.2 2.5.3 3.5-2.4 2.9-4.5 5.9-6.4 9.2-.7 1.2-2.3 1.6-3.5.9-1.2-.7-1.6-2.3-.9-3.5 2-3.4 4.4-6.7 6.9-9.8.7-.8 1.8-1.1 2.8-.8zM189.2 460c.1 0 .1 0 .2.1 1.3.5 1.9 2 1.4 3.3-.7 1.7-1.3 3.5-1.9 5.2-.6 1.8-1.1 3.6-1.5 5.4-.3 1.4-1.7 2.2-3 1.9-1.4-.3-2.2-1.7-1.9-3 .5-1.9 1-3.9 1.6-5.8.6-1.9 1.3-3.8 2-5.6.5-1.3 1.8-1.9 3.1-1.5zm-5.4 22.5c1.1.3 1.8 1.4 1.7 2.6-.3 3.7-.3 7.5-.1 11.2.1 1.4-.9 2.6-2.3 2.7-1.4.1-2.6-.9-2.7-2.3-.3-4-.3-8 .1-12 .1-1.4 1.3-2.4 2.7-2.3.3 0 .4 0 .6.1zm1.7 23c.8.3 1.5.9 1.7 1.8.8 3.6 2 7.2 3.3 10.7.5 1.3-.1 2.8-1.4 3.3-1.3.5-2.8-.1-3.3-1.4-1.5-3.7-2.7-7.5-3.6-11.4-.3-1.4.5-2.7 1.9-3 .5-.2 1-.2 1.4 0zm8.6 21.4c.6.2 1.1.6 1.4 1.1 1.9 3.2 4.1 6.3 6.5 9.1.9 1.1.7 2.7-.3 3.5-1.1.9-2.7.7-3.5-.3-2.5-3.1-4.9-6.3-6.9-9.8-.7-1.2-.3-2.7.9-3.5.5-.2 1.2-.3 1.9-.1zm14.7 17.7c.3.1.6.3.9.5 2.8 2.4 5.8 4.7 9 6.6 1.2.7 1.5 2.3.8 3.5-.7 1.2-2.3 1.5-3.5.8-3.4-2.1-6.6-4.5-9.6-7.1-1-.9-1.2-2.5-.2-3.6.6-.7 1.7-1 2.6-.7zM279.6 416.5c1.3.4 2.1 1.8 1.6 3.2-.4 1.3-1.8 2.1-3.2 1.6-1.9-.6-3.7-1.1-5.6-1.5-1.4-.3-2.2-1.7-1.9-3 .3-1.4 1.7-2.2 3-1.9 2.1.4 4.1 1 6.1 1.6z"/><g><path class="st4" d="m306.6 581.7-20.7-.9-4.5 13.6c-8.3 1.3-16.2 4.2-23.2 8.3l-12.7-9.4-15.9 13.2 7 15.7c-4.2 5.9-7.5 12.6-9.7 19.7l-17 3.4-.9 20.7 15.6 5.1c1.1 7.9 3.6 15.4 7.1 22.3l-9.6 14.8 13.6 15.5 14.9-7.8c6.5 5 14 8.8 22.1 11.2l2.5 15.3 20.6 2.3 5.7-15.5c6.7-.9 13.1-2.8 19-5.6l15.7 10 14.9-14.3-7.2-13.4c6.3-7.3 11-16 13.7-25.6l14.1-3.9.2-20.7-12.3-3.1c-1.2-8.7-3.9-16.9-8.1-24.3l8.5-11.2-12.5-16.5-14.7 6.4c-7-5.2-15-9.1-23.7-11.4l-2.5-13.9z"/><g class="st5"><path class="st6" d="M342.7 663.8c-1.2 28.4-25.3 50.5-53.7 49.3-28.4-1.2-50.5-25.3-49.3-53.7.9-21.9 15.6-40.8 36.6-47.1 1.2-.4 2.5.3 2.9 1.6.4 1.2-.3 2.5-1.6 2.9-19 5.7-32.4 23-33.3 42.9-1.1 25.8 19 47.8 44.8 48.9s47.7-19 48.9-44.8c.6-13.1-4.4-25.9-13.6-35.1-.9-.9-.9-2.4 0-3.3.9-.9 2.4-.9 3.3 0 10.2 9.9 15.7 24 15 38.4z"/></g><g class="st5"><path class="st6" d="M312.3 662.5c-.5 11.6-10.4 20.7-22 20.2s-20.7-10.4-20.2-22 10.4-20.7 22-20.2c11.7.5 20.7 10.4 20.2 22zm-37.5-1.6c-.4 9 6.7 16.7 15.7 17.1s16.7-6.7 17.1-15.7c.4-9-6.7-16.7-15.7-17.1-9-.4-16.7 6.6-17.1 15.7z"/></g><g><path class="st3" d="M289.2 769c-.1 1.4-1.3 2.6-2.7 2.5-2.1-.1-4.3-.2-6.4-.5-1.4-.1-2.5-1.4-2.3-2.9.1-1.4 1.4-2.5 2.9-2.3 2 .2 4.1.3 6.1.4 1.4.2 2.5 1.4 2.4 2.8zM270.2 766.6c0 .1 0 .3-.1.4-.3 1.4-1.7 2.3-3.1 2-4.3-.9-8.6-2.2-12.8-3.6-1.4-.5-2.1-2-1.6-3.3.5-1.4 2-2.1 3.3-1.6 4 1.4 8.1 2.5 12.2 3.4 1.3.3 2.1 1.4 2.1 2.7zm8.9-208.7c-.1 1.2-1 2.3-2.3 2.5-4.2.5-8.4 1.3-12.4 2.4-1.4.4-2.8-.5-3.2-1.9-.4-1.4.5-2.8 1.9-3.2 4.3-1.1 8.7-1.9 13-2.5 1.4-.2 2.7.8 2.9 2.2.1.2.1.4.1.5zm-33.4 200.2c0 .3-.1.7-.3 1-.6 1.3-2.2 1.8-3.5 1.2-4-1.9-7.9-4.1-11.6-6.5-1.2-.8-1.6-2.4-.8-3.6.8-1.2 2.4-1.6 3.6-.8 3.5 2.3 7.2 4.4 11 6.2 1.1.5 1.6 1.5 1.6 2.5zm8.3-193.8c0 1-.7 1.9-1.7 2.3-3.9 1.5-7.8 3.3-11.5 5.2-1.3.7-2.9.2-3.5-1.1-.7-1.3-.2-2.9 1.1-3.5 3.9-2.1 8-3.9 12.1-5.5 1.3-.5 2.9.2 3.4 1.5 0 .4.1.7.1 1.1zm-30.1 179.8c0 .5-.2 1.1-.6 1.5-.9 1.1-2.6 1.3-3.7.3-3.4-2.8-6.7-5.9-9.7-9.1-1-1-.9-2.7.1-3.7s2.7-.9 3.7.1c2.9 3 6 6 9.2 8.6.7.7 1.1 1.5 1 2.3zm7.2-167.7c0 .8-.4 1.5-1.1 2-3.5 2.4-6.8 5-9.9 7.8-1.1 1-2.7.9-3.7-.2s-.9-2.7.2-3.7c3.3-2.9 6.8-5.7 10.4-8.2 1.2-.8 2.8-.5 3.6.7.4.5.5 1 .5 1.6zm-25 148.9c0 .8-.4 1.5-1.1 2-1.2.9-2.8.6-3.6-.5-2.6-3.5-5.1-7.3-7.3-11.1-.7-1.3-.3-2.8 1-3.6 1.3-.7 2.8-.3 3.6 1 2.1 3.6 4.4 7.2 6.9 10.6.4.4.5 1 .5 1.6zm5.7-131.7c0 .6-.2 1.1-.7 1.6-2.8 3.2-5.4 6.5-7.8 10-.8 1.2-2.4 1.5-3.6.7-1.2-.8-1.5-2.4-.7-3.6 2.5-3.6 5.2-7.1 8.2-10.5 1-1.1 2.6-1.2 3.7-.2.6.4.9 1.2.9 2zm-18.5 109.2c0 1-.6 1.9-1.6 2.3-1.3.6-2.9-.1-3.4-1.4-1.7-4.1-3.1-8.3-4.3-12.6-.4-1.4.4-2.8 1.8-3.2 1.4-.4 2.8.4 3.2 1.8 1.1 4 2.5 8.1 4.1 11.9.2.4.3.8.2 1.2zm3.8-87.9c0 .4-.1.7-.3 1.1-1.9 3.7-3.7 7.6-5.1 11.6-.5 1.4-2 2-3.4 1.5s-2-2-1.5-3.4c1.5-4.1 3.3-8.2 5.4-12.2.7-1.3 2.2-1.8 3.5-1.1.9.6 1.4 1.5 1.4 2.5zm-10.6 62.9c-.1 1.2-1 2.3-2.2 2.5-1.4.2-2.7-.8-3-2.2-.6-4.4-1-8.8-1.1-13.2 0-1.4 1.1-2.6 2.6-2.7 1.4 0 2.6 1.1 2.7 2.6.1 4.2.4 8.4 1 12.6v.4zm1.6-38.6c0 .2 0 .3-.1.5-1 4.1-1.7 8.3-2.1 12.5-.1 1.4-1.4 2.5-2.9 2.3-1.4-.1-2.5-1.4-2.3-2.9.5-4.4 1.2-8.8 2.2-13.1.3-1.4 1.7-2.3 3.1-1.9 1.4.2 2.2 1.4 2.1 2.6zM298.4 557.1c-.1 1.4-1.3 2.6-2.7 2.5-2-.1-4.1-.1-6.1-.1-1.4 0-2.6-1.1-2.6-2.6 0-1.4 1.1-2.6 2.6-2.6 2.1 0 4.3 0 6.4.1 1.3 0 2.4 1.2 2.4 2.7z"/></g></g><g><path d="M593.4 370.8s251.4 46.7 270.2-263.2c0 0-285 8.8-270.2 263.2z" style="fill:#fa0"/><path class="st3" d="M606.9 363.7c21.6-19.7 43-39.7 64.2-59.9 10.6-10 21.2-20.2 31.8-30.3l31.6-30.5 31.4-30.7c10.4-10.3 20.9-20.5 31.2-30.8 20.8-20.6 41.4-41.4 61.7-62.4-21.6 19.7-43 39.7-64.2 59.9-10.6 10-21.2 20.2-31.8 30.3l-31.6 30.5-31.4 30.7c-10.4 10.3-20.9 20.5-31.2 30.8-20.7 20.6-41.3 41.4-61.7 62.4z"/><path class="st3" d="M642.8 250c.8 7.7 1.5 15.4 1.9 23 .4 7.6.6 15.3.3 22.8-.3 7.6-1.1 15.1-2.9 22.4-1.8 7.3-4.7 14.3-9.5 20.5 6.2-4.8 10.5-12 13-19.4 1.3-3.7 2.2-7.6 2.9-11.5.6-3.9 1-7.8 1.2-11.7.1-3.9.1-7.8-.1-11.8-.3-3.9-.6-7.8-1.2-11.6-1.3-7.7-3-15.3-5.6-22.7zM758.7 314.2c-2.6-2.5-5.5-4.4-8.6-6.2-1.5-.9-3.1-1.7-4.7-2.5s-3.2-1.5-4.8-2.2c-1.6-.7-3.3-1.3-4.9-1.9-1.7-.6-3.4-1.1-5-1.7-1.7-.6-3.4-1-5.1-1.4-1.7-.5-3.4-.9-5.2-1.3l-5.2-1.1-5.2-.8c-1.7-.3-3.5-.5-5.3-.6-1.8-.2-3.5-.3-5.3-.4-3.5-.2-7-.2-10.6-.3-3.5.1-7 .3-10.5.7 3.5.7 6.9 1.1 10.4 1.6l5.2.8c1.7.3 3.4.4 5.1.8 3.4.7 6.9 1 10.2 1.8l5.1.9 5.1 1.1c1.7.3 3.4.7 5 1.1 1.7.4 3.4.8 5 1.3 1.7.4 3.3.9 5 1.3 1.6.5 3.3 1 5 1.5 3.3 1.1 6.6 2.1 9.8 3.4 3.2 1.1 6.4 2.5 9.5 4.1zM732.9 170.9c.4 7.4.7 14.8.8 22.1 0 7.3-.2 14.6-1 21.8-.3 3.6-.9 7.2-1.6 10.7-.6 3.6-1.5 7.1-2.6 10.5-2.2 6.9-5.4 13.4-10 19.3 6-4.5 10.4-11.1 13.3-18.1 3-7 4.6-14.5 5.4-22 .3-3.8.6-7.5.6-11.3-.1-3.8-.2-7.5-.6-11.2-.7-7.3-2-14.7-4.3-21.8zM818.8 233.4c-5.2-3.5-10.8-6.4-16.6-8.8-5.8-2.4-11.9-4.3-18.1-5.5-6.2-1.2-12.7-1.8-19.1-1-3.2.4-6.4 1.3-9.3 2.6-2.9 1.4-5.6 3.3-7.5 5.9 5.2-3.6 11.2-4.7 17.1-4.9 3 0 6 .1 9 .5 3 .3 6 .8 9 1.4 3 .5 6 1.3 8.9 2 3 .7 5.9 1.6 8.9 2.4 5.8 1.7 11.7 3.6 17.7 5.4zM804.1 132.8c2.2 3.2 4.1 6.4 5.4 9.7 1.4 3.3 2.1 6.7 2.1 10 0 1.7-.2 3.4-.6 5-.4 1.7-.9 3.3-1.6 5-1.4 3.3-3.3 6.5-5.4 9.8 3.4-1.9 6.3-4.7 8.5-8.1 2.2-3.4 3.6-7.5 3.6-11.7 0-4.2-1.3-8.4-3.5-11.7-2.1-3.3-5-6.2-8.5-8zM858.9 152.6c-1.2-3.1-3.3-5.7-6-7.8-2.7-2.1-6-3.5-9.6-3.7-.4 0-.9-.1-1.3-.1l-1.3.1c-.9.1-1.8.1-2.6.4-.8.3-1.7.5-2.5.8-.8.4-1.5.8-2.3 1.2-.4.2-.7.4-1.1.6l-1 .8c-.6.5-1.3 1.1-1.9 1.6-1.1 1.2-2.1 2.5-3 3.9 1.6-.6 2.9-1.4 4.3-2.1l2.1-.9 1-.5c.3-.1.7-.2 1-.3.7-.2 1.4-.4 2-.6l2.1-.4c.7-.2 1.4-.2 2-.2l1-.1c.3 0 .7.1 1 .1 2.7.2 5.4.9 8 2.2 2.9 1.5 5.5 3.1 8.1 5z"/></g><g><path d="M626.1 365.1S756 464 855.8 292.7c0 0-164.9-76.9-229.7 72.4z" style="fill:#029e77"/><path class="st3" d="M635.9 365c18-5 35.9-10.3 53.8-15.7 9-2.7 17.9-5.4 26.8-8.1l26.8-8.3 26.7-8.4c8.9-2.9 17.8-5.7 26.7-8.6 17.8-5.8 35.5-11.7 53.2-17.8-18 5-35.9 10.3-53.8 15.7-9 2.7-17.9 5.4-26.8 8.1l-26.8 8.3-26.7 8.5c-8.9 2.9-17.8 5.7-26.7 8.6-17.8 5.6-35.6 11.5-53.2 17.7z"/><path class="st3" d="M689 310.5c-1.8 4.6-3.6 9.2-5.5 13.7-2 4.5-4 8.9-6.4 13.1-2.3 4.2-5 8.3-8.1 12-3.1 3.6-6.8 6.8-11.3 8.9 4.9-.9 9.4-3.8 13-7.4 1.8-1.8 3.4-3.7 4.9-5.7 1.5-2 2.8-4.2 4-6.4 1.2-2.2 2.3-4.5 3.3-6.7 1-2.3 1.9-4.6 2.7-7 1.6-4.8 2.8-9.6 3.4-14.5zM736.7 380.4c-.8-2.1-1.9-4.1-3.1-6-.6-1-1.3-1.9-1.9-2.8l-2.1-2.7c-.7-.9-1.5-1.7-2.3-2.5l-2.4-2.4c-.8-.8-1.7-1.5-2.5-2.3-.8-.8-1.7-1.5-2.6-2.2l-2.7-2.1-2.8-1.9c-.9-.6-1.9-1.3-2.8-1.9-.9-.6-1.9-1.2-2.9-1.8-1.9-1.1-4-2.1-5.9-3.2-2.1-.9-4.1-1.8-6.2-2.6 1.8 1.4 3.6 2.6 5.5 3.9l2.7 1.9c.9.7 1.8 1.2 2.7 1.9 1.7 1.4 3.6 2.5 5.3 4l2.6 2 2.6 2.1c.9.7 1.7 1.4 2.6 2.1.8.7 1.7 1.4 2.5 2.2.8.7 1.7 1.4 2.5 2.2.8.8 1.6 1.5 2.4 2.3 1.6 1.6 3.1 3.1 4.6 4.8 1.4 1.4 2.9 3.1 4.2 5zM763.2 291.2c-1.9 4.4-3.8 8.6-5.9 12.8-2.1 4.2-4.3 8.3-6.8 12.2-1.2 2-2.6 3.9-4 5.7-1.4 1.8-2.9 3.6-4.5 5.2-3.2 3.3-6.9 6.1-11.2 8.1 4.7-.9 9.1-3.3 12.8-6.5 3.7-3.1 6.8-7 9.4-11 1.3-2 2.5-4.1 3.6-6.3 1-2.2 2.1-4.3 2.9-6.6 1.5-4.3 2.9-8.8 3.7-13.6zM794.2 351.6c-1.9-3.5-4.3-6.7-7-9.8-2.6-3-5.5-5.8-8.7-8.4-3.2-2.5-6.7-4.7-10.6-6-1.9-.7-4-1.1-6.1-1.2-2.1 0-4.2.3-6 1.2 4-.6 7.7.5 11.2 2.1 1.7.8 3.4 1.8 5 2.9 1.6 1.1 3.2 2.2 4.7 3.4 1.5 1.2 3 2.4 4.5 3.7 1.5 1.3 2.9 2.6 4.4 3.9 2.8 2.7 5.7 5.4 8.6 8.2zM814.7 290c.3 2.5.5 4.8.3 7.1s-.7 4.4-1.7 6.3c-.5 1-1.1 1.9-1.8 2.7-.7.8-1.5 1.6-2.4 2.4-1.7 1.5-3.8 2.7-5.9 4 2.5-.1 4.9-.9 7.2-2.1 2.2-1.3 4.2-3.2 5.4-5.6 1.2-2.4 1.6-5.1 1.4-7.7-.2-2.6-1-5.1-2.5-7.1zM840.2 317c.2-2.1-.3-4.2-1.2-6.1-.9-1.9-2.4-3.7-4.4-4.9-.2-.1-.5-.3-.7-.4l-.8-.3c-.5-.2-1-.4-1.6-.5-.6-.1-1.1-.2-1.6-.3h-1.6c-.3 0-.5 0-.8.1l-.8.2c-.5.1-1 .3-1.5.4-1 .4-1.9.8-2.8 1.4 1.1.1 2 0 3 .1.5 0 1 .1 1.4.1h.7c.2 0 .5.1.7.1.5.1.9.2 1.3.2l1.3.4c.4.1.8.3 1.2.5l.6.3.6.3c1.5.9 2.8 2.1 3.9 3.5 1.2 1.5 2.2 3.1 3.1 4.9z"/></g><g><path d="m317 100 380 9s25-1 34 51c9.7 56.2 16 577 16 577s-.2 1.6-.9 4.2c-5.5 20.1-23.9 34.1-44.8 34.4l-376.8 5.9s-39 8-34.5-44.5l-5-606s0-24 32-31z" style="fill:#414042"/><path d="m339 135 343.3 7.7s25.7-2.1 33.2 42.8c7.6 45.2-4.2 440.9-3.6 490 .1 5.1.1 10.1-2 14.8-3.1 6.8-7.1 15.5-18.6 20.5-4.2 1.8-8.7 2.7-13.2 2.8l-331.8 5.1c-.5 0-.9 0-1.4.1-4.5.7-33.2 3.2-29.6-38.2l-4.4-519c.1-.1.1-20.6 28.1-26.6z" style="fill:#8135bc"/><path class="st3" d="M684.9 687.5H331.1c-7.5 0-13.6-6.1-13.6-13.6V63.6c0-7.5 6.1-13.6 13.6-13.6h353.8c7.5 0 13.6 6.1 13.6 13.6v610.3c0 7.5-6.1 13.6-13.6 13.6z"/><path class="st11" d="M696 146H319V66.2c0-4 3.2-7.2 7.2-7.2h362.6c4 0 7.2 3.2 7.2 7.2V146zM437 687H334.3c-7.4 0-13.3-6-13.3-13.3V161h116v526z"/><path class="st12" d="M444 161h255v74H444zM444 241h255v43H444zM444 290h255v43H444zM444 339h255v43H444zM444 388h255v43H444zM444 437h255v43H444zM444 486h255v43H444zM444 535h255v43H444zM444 584h255v43H444zM444 633h255v43H444z"/><path class="st3" d="M337 120h81v81h-81zM321 215h111v52H321zM321 274h111v45H321zM321 326h111v45H321zM321 378h111v45H321zM321 430h111v45H321zM321 482h111v45H321zM321 534h111v45H321zM432 687h-95.6c-8.5 0-15.4-6.9-15.4-15.4V586h111v101z"/><circle class="st13" cx="468.5" cy="262.5" r="15.5"/><path class="st13" d="M651.2 260.5H499c-1.9 0-3.5-1.6-3.5-3.5s1.6-3.5 3.5-3.5h152.2c1.9 0 3.5 1.6 3.5 3.5s-1.5 3.5-3.5 3.5zM585.7 275.5H499c-1.9 0-3.5-1.6-3.5-3.5s1.6-3.5 3.5-3.5h86.7c1.9 0 3.5 1.6 3.5 3.5s-1.6 3.5-3.5 3.5z"/><circle class="st13" cx="468.5" cy="311.5" r="15.5"/><path class="st13" d="M651.2 309.5H499c-1.9 0-3.5-1.6-3.5-3.5s1.6-3.5 3.5-3.5h152.2c1.9 0 3.5 1.6 3.5 3.5s-1.5 3.5-3.5 3.5zM585.7 324.5H499c-1.9 0-3.5-1.6-3.5-3.5s1.6-3.5 3.5-3.5h86.7c1.9 0 3.5 1.6 3.5 3.5s-1.6 3.5-3.5 3.5z"/><circle class="st13" cx="468.5" cy="360.5" r="15.5"/><path class="st13" d="M651.2 358.5H499c-1.9 0-3.5-1.6-3.5-3.5s1.6-3.5 3.5-3.5h152.2c1.9 0 3.5 1.6 3.5 3.5s-1.5 3.5-3.5 3.5zM585.7 373.5H499c-1.9 0-3.5-1.6-3.5-3.5s1.6-3.5 3.5-3.5h86.7c1.9 0 3.5 1.6 3.5 3.5s-1.6 3.5-3.5 3.5z"/><circle class="st13" cx="468.5" cy="409.5" r="15.5"/><path class="st13" d="M651.2 407.5H499c-1.9 0-3.5-1.6-3.5-3.5s1.6-3.5 3.5-3.5h152.2c1.9 0 3.5 1.6 3.5 3.5s-1.5 3.5-3.5 3.5zM585.7 422.5H499c-1.9 0-3.5-1.6-3.5-3.5s1.6-3.5 3.5-3.5h86.7c1.9 0 3.5 1.6 3.5 3.5s-1.6 3.5-3.5 3.5z"/><circle class="st13" cx="468.5" cy="458.5" r="15.5"/><path class="st13" d="M651.2 456.5H499c-1.9 0-3.5-1.6-3.5-3.5s1.6-3.5 3.5-3.5h152.2c1.9 0 3.5 1.6 3.5 3.5s-1.5 3.5-3.5 3.5zM585.7 471.5H499c-1.9 0-3.5-1.6-3.5-3.5s1.6-3.5 3.5-3.5h86.7c1.9 0 3.5 1.6 3.5 3.5s-1.6 3.5-3.5 3.5z"/><circle class="st13" cx="468.5" cy="507.5" r="15.5"/><path class="st13" d="M651.2 505.5H499c-1.9 0-3.5-1.6-3.5-3.5s1.6-3.5 3.5-3.5h152.2c1.9 0 3.5 1.6 3.5 3.5s-1.5 3.5-3.5 3.5zM585.7 520.5H499c-1.9 0-3.5-1.6-3.5-3.5s1.6-3.5 3.5-3.5h86.7c1.9 0 3.5 1.6 3.5 3.5s-1.6 3.5-3.5 3.5z"/><g><circle class="st13" cx="468.5" cy="556.5" r="15.5"/><path class="st13" d="M651.2 554.5H499c-1.9 0-3.5-1.6-3.5-3.5s1.6-3.5 3.5-3.5h152.2c1.9 0 3.5 1.6 3.5 3.5s-1.5 3.5-3.5 3.5zM585.7 569.5H499c-1.9 0-3.5-1.6-3.5-3.5s1.6-3.5 3.5-3.5h86.7c1.9 0 3.5 1.6 3.5 3.5s-1.6 3.5-3.5 3.5z"/></g><g><circle class="st13" cx="468.5" cy="605.5" r="15.5"/><path class="st13" d="M651.2 603.5H499c-1.9 0-3.5-1.6-3.5-3.5s1.6-3.5 3.5-3.5h152.2c1.9 0 3.5 1.6 3.5 3.5s-1.5 3.5-3.5 3.5zM585.7 618.5H499c-1.9 0-3.5-1.6-3.5-3.5s1.6-3.5 3.5-3.5h86.7c1.9 0 3.5 1.6 3.5 3.5s-1.6 3.5-3.5 3.5z"/></g><g><circle class="st13" cx="468.5" cy="654.5" r="15.5"/><path class="st13" d="M651.2 652.5H499c-1.9 0-3.5-1.6-3.5-3.5s1.6-3.5 3.5-3.5h152.2c1.9 0 3.5 1.6 3.5 3.5s-1.5 3.5-3.5 3.5zM585.7 667.5H499c-1.9 0-3.5-1.6-3.5-3.5s1.6-3.5 3.5-3.5h86.7c1.9 0 3.5 1.6 3.5 3.5s-1.6 3.5-3.5 3.5z"/></g><g><path class="st13" d="M414.2 247h-69.4c-1.5 0-2.8-1.6-2.8-3.5s1.3-3.5 2.8-3.5h69.4c1.5 0 2.8 1.6 2.8 3.5s-1.3 3.5-2.8 3.5z"/></g><g><path class="st13" d="M414.2 300h-69.4c-1.5 0-2.8-1.6-2.8-3.5s1.3-3.5 2.8-3.5h69.4c1.5 0 2.8 1.6 2.8 3.5s-1.3 3.5-2.8 3.5z"/></g><g><path class="st13" d="M414.2 353h-69.4c-1.5 0-2.8-1.6-2.8-3.5s1.3-3.5 2.8-3.5h69.4c1.5 0 2.8 1.6 2.8 3.5s-1.3 3.5-2.8 3.5z"/></g><g><path class="st13" d="M414.2 406h-69.4c-1.5 0-2.8-1.6-2.8-3.5s1.3-3.5 2.8-3.5h69.4c1.5 0 2.8 1.6 2.8 3.5s-1.3 3.5-2.8 3.5z"/></g><g><path class="st13" d="M414.2 459h-69.4c-1.5 0-2.8-1.6-2.8-3.5s1.3-3.5 2.8-3.5h69.4c1.5 0 2.8 1.6 2.8 3.5s-1.3 3.5-2.8 3.5z"/></g><g><path class="st13" d="M414.2 512h-69.4c-1.5 0-2.8-1.6-2.8-3.5s1.3-3.5 2.8-3.5h69.4c1.5 0 2.8 1.6 2.8 3.5s-1.3 3.5-2.8 3.5z"/></g><g><path class="st13" d="M414.2 565h-69.4c-1.5 0-2.8-1.6-2.8-3.5s1.3-3.5 2.8-3.5h69.4c1.5 0 2.8 1.6 2.8 3.5s-1.3 3.5-2.8 3.5z"/></g></g><g><ellipse cx="751.5" cy="805" rx="92.5" ry="13" style="opacity:.14;fill:#1e1e1e"/><ellipse transform="rotate(-87.086 743.005 265.502)" class="st15" cx="743" cy="265.5" rx="35.5" ry="26"/><path class="st16" d="M719.2 252.3s4-17.2 20.2 0 22.1 15.5 22.1 15.5 5.5-.8 7 15.7c0 0 20-13 11-44 0 0 21.7.9 10.1-20.1-2-3.5-5-6.3-8.7-7.8-7.2-3-18.7-4.9-19.3 12.9-.1 0-45.1-8-42.4 27.8z"/><path class="st15" d="M748.5 295.5s9 8-9 23c0 0-4 7.7 3.5 12.3s32.5-22.3 32.5-22.3l-4-1-3.1-35.5-19.9 23.5zM716.5 362.5l-15 33-67-23s-6.3-9-11.6-10-16.4-6-14.4 3 4 17 16 16c0 0 11 0 27 11s45 24 45 24 12 6.3 20-5.9 9-15.1 9-15.1l-9-33z"/><path d="M717.5 467.5s-8 8-8 73 19 250 19 250 4 7 13 3c0 0 15-118 8-172s-12-159-12-159l-20 5z" style="fill:#3a619b"/><path class="st4" d="M727.9 462.5s-4.4 39 9.6 109 15 54 17 62 33 157 33 157 2 9 12 2c0 0 2.5-129.8-9.3-163.9 0 0-2.7-36.1-.7-50.1s8.2-105 2.1-116h-63.7z"/><path class="st2" d="M728.5 790.5s-24 10-29 10-3 5.8 0 5.9 43 .1 43 .1l-1-13-13-3zM787.5 790.5l-30 12s-2.1 4 2.5 4h41.3l-1.7-16h-12.1z"/><path class="st16" d="M624.5 384c-.9 0-1.7-.5-2.2-1.3l-21-38c-.7-1.2-.2-2.7 1-3.4 1.2-.7 2.7-.2 3.4 1l21 38c.7 1.2.2 2.7-1 3.4-.4.2-.8.3-1.2.3z"/><ellipse transform="rotate(-75.517 767.987 269.518)" class="st15" cx="768" cy="269.5" rx="9.2" ry="6.7"/><path class="st2" d="m735.5 316.5-19 28s-11 8.5 0 31.7c0 0 11 34.3 4 63.3s-5 32-5 32 17-9 50-4 27.5-7.3 27.5-7.3-10.5-41.7-3.5-74.7c0 0-13-43-11-60 0 0 3.7-14 14.9-9l-21.9-9s-13.2 11.9-23.6 14.6c-2.5.7-5-1.1-5.3-3.7l-.3-2.4-6.8.5z"/><path class="st15" d="M805 331.4s-6.7-22-20.1-15c-13.4 7.1-5.6 25-5.6 25l11.7 50.5s9.5 22.7 5.2 50.4c-3.4 22.1-8.7 73.2-8.7 73.2L777 537.7s1.5 3.8 6.5-4.2l-3 11s8 9 15-7v-26l20-62s5-33 3-51c0 0-7-60.2-13.5-67.1z"/></g></svg>