<svg version="1.1" id="Layer_1" xmlns="http://www.w3.org/2000/svg" x="0" y="0" viewBox="0 0 927.29 780.08" style="enable-background:new 0 0 927.29 780.08" xml:space="preserve"><style>.st3{fill:#f1f2f2}.st4{fill:#e6e7e8}.st5{fill:#e1e1e1}.st7{fill:#d1d3d4}.st8{fill:#f6f6f6}.st9{fill:#fbad91}.st11{fill:#1a2e35}.st13{fill:#231f20}.st14{fill:#fff}.st15{fill:#414042}.st18{opacity:.1}.st19{fill:#e9e9e9}.st20{opacity:.44}.st23{fill:#bcbec0}.st24{fill:#fe515c}.st25{opacity:.12;fill:#301316}.st26{fill:#808285}.st27{fill:#939496}</style><path d="M799.47 757.76c-51.84 8.28-118.77 11.85-189.15 12.62 31.5-2.03 60.73-4.96 86.29-9.05 195.88-31.31 64.5-189.24 111.46-422.85C854.69 106.52 627.79 64.72 517.93 23.75c27.9-14.36 61.89-19.08 100.52-4.45 108.92 41.26 339.42 81.99 292.47 315.61-46.95 233.61 84.43 391.54-111.45 422.85z" style="fill:#d3aff9"/><path d="M610.32 770.37c-209.91 13.47-520.79-13.79-520.79-13.79C85.26 761.32-48.48 514 53.95 377.15c0 0 57.41-102.45 136.85-101.02 79.44 1.42 137.31-67.01 141.11-133.26 2.79-48.7 74.76-161.27 183.68-120.02.78.29 1.55.59 2.34.88-50.76 26.12-81.36 84.14-83.16 115.57-3.79 66.25-61.67 134.67-141.11 133.25-79.44-1.42-136.83 101.03-136.83 101.03C54.38 510.41 188.12 757.74 192.4 753c-.01.01 222.34 19.5 417.92 17.37z" style="opacity:.1;fill:#d3aff9"/><path class="st3" d="M799.47 633.4h41.74v34.26h-41.74z"/><path class="st4" d="M679 629.78h128.06v41.5H679z"/><path class="st5" d="M783.34 671.28h45.53v89.4h-45.53z"/><path style="opacity:.44;fill:#e6e7e8" d="M672.52 708.35h110.82"/><path class="st4" d="M807.06 630.3h34.15v3.1h-34.15zM807.06 667.66h34.15v3.1h-34.15z"/><path class="st7" d="M733.2 558.64c8.91-.22 50.15 0 50.15 0l-6.64 71.14h-50.75l7.24-71.14z"/><path class="st4" d="M735.32 562.16c8.02-.2 45.18 0 45.18 0l-5.98 64.09H728.8l6.52-64.09z"/><path class="st7" d="m780.03 594.16 19.44 35.62h-9.72l-11.38-17.81z"/><path class="st8" d="M744.93 571.92h21.81l-2.84 43.87h-23.24zM699 629.78h16.05v41.5H699zM780.5 629.78h5.22v41.5h-5.22z"/><path class="st4" d="M660.57 671.38h122.77v36.97H660.57z"/><path class="st7" d="M660.57 708.35h122.77v16.87H660.57z"/><path class="st4" d="M650.55 724.88h132.8v19.16h-132.8z"/><path class="st7" d="M650.55 740.87h132.8v16.7h-132.8z"/><path class="st9" d="m381.63 434.38-23.48-34.15s-2.13-10.67-19.21-26.32c-8.69-7.96-13.69-12.98-16.51-15.99a12.41 12.41 0 0 0-9.06-3.93h-10.75c-3.9 0-7.46 2.2-9.21 5.69 0 0-7.11 2.4-7.11 11.87 0 9.47.71 46.46 8.54 54.65 7.83 8.18 34.86 8.18 34.86 8.18l24.19 31.3 27.74-31.3z"/><ellipse transform="rotate(-72.549 563.22 230.286)" class="st9" cx="563.24" cy="230.29" rx="77.37" ry="55.97"/><path class="st9" d="M542.52 294.56v72.86s75.21 17.63 89.32-19.98l-17.63-32.91-2.72-69.08-68.97 49.11z"/><path class="st8" d="M540.51 323.08c4.38 3.35 18.97 24.5 18.97 24.5l54.72-33.05s30.61 29.36 30.26 29.09c-.36-.27-87.83 316.27-87.83 316.27s-96.75 16.69-106-6.4c-9.25-23.09 63.32-310.18 66.16-310.18s23.72-20.23 23.72-20.23z"/><path d="m446.86 639.27-12.09 123.08h93.91l8.53-11.38 2.84 11.38s125.22 4.98 125.22 0-26.72-123.08-26.72-123.08-182.44 10.67-191.69 0z" style="fill:#132226"/><path class="st11" d="M510.6 220.82s-8.59-17.18-5.55-31.88c2.31-11.16 4.62-20.25 16.01-29.88 13.23-11.18 25.83-20.09 42.18-12.09s39.64-12.09 48.17 7.11 28.37 29.88 25.21 44.82c-3.16 14.94.92 19.92-1.21 36.99s-17.39 27.49-17.39 27.49 7.39-10.81-1.39-16.31c-8.78-5.5-13.76-12.61-11.62-28.97 2.13-16.36-6.97-36.28-21.19-39.13-14.23-2.85-28.61 5.69-28.61 5.69s-11.45-12.76-23.48-3.56c-11.66 8.94-21.13 39.72-21.13 39.72z"/><path d="M542.67 304.67s25.09 2.07 41.15-13.49c0 0-14.15 28.38-40.15 29.8l-1-16.31z" style="opacity:.22;fill:#3c5762"/><ellipse transform="rotate(-63.673 622.584 248.923)" class="st9" cx="622.57" cy="248.94" rx="15.14" ry="11.61"/><path class="st13" d="M576.8 242.57c-3 0-6.5-.44-10.57-1.44a.75.75 0 0 1-.16-.05c-.13-.05-12.13-4.62-10.56-17.15h-11.69c-1.43 4.26-7.43 18.49-23.59 17.16-.52-.04-13.06-1.21-15.62-21.36-.06-.44.08-.89.37-1.22.29-.33.72-.53 1.16-.53h87.75c.85 0 1.55.69 1.55 1.54 0 .23.02 5.65-1.51 11.16-1.6 5.81-5.96 11.89-17.13 11.89zm-9.74-4.43c13.42 3.28 21.46.49 23.88-8.29.94-3.41 1.25-6.85 1.35-8.77H558.2c.13.09.25.2.35.32.29.37.41.85.3 1.31-2.41 10.92 7.18 15.02 8.21 15.43zm-59.12-17.06c2.66 15.84 12.13 16.88 12.54 16.91 16.2 1.34 20.5-15.28 20.68-15.99.1-.39.34-.72.65-.93h-33.87z"/><path class="st14" d="M608.57 229.23h-16.13"/><path class="st13" d="M592.44 227.16h16.13v4.14h-16.13z"/><path class="st11" d="M618.47 318.62s29.94 33.94 49.15 36.78c19.21 2.85 42.69 19.77 43.4 53.99 0 0 11.64 33.51 3.1 53.43l10.03 58.34s23.28 14.01 2.88 66.74c-2.44 6.3-8.4 10.56-15.15 10.89-12.82.62-33.83-1.85-47.81-21.43l-7.83-54.07-4.27 6.05s17 179.63 23.79 192.44l-94.94 15.65s-25.61 12.09-28.46-17.79c-2.85-29.88-13.52-161.49-14.23-167.9-.71-6.4 44.82-157.73 44.82-157.73l35.52-75.39z"/><path class="st8" d="M600.75 440.07c2.85-2.85 31.09-27.75 31.09-27.75l8.75 27.75h-39.84z"/><path class="st9" d="M671.89 537.53s36.28 15.65 24.9-32.01c0 0-4.27-14.51-17.07-25.39-12.81-10.89-21.34-45.04-21.34-45.04s14.94-18.5 4.98-18.5-22.12 15.65-18.88 41.97L631 462.94c-7.76 2.52-11.37 11.77-6.9 18.61.44.67.95 1.32 1.56 1.92 0 0-6.12 11.38 6.19 17.07 0 0-.5 7.83 8.75 9.96 0 0-3.56 13.52 15.65 12.81 19.2-.72 15.64 14.22 15.64 14.22z"/><path class="st11" d="M540.51 323.08s-50.04 22.37-54.31 22.37c-4.27 0-41.26-1.73-45.53 48.58-4.27 50.31-9.96 86.59-9.96 86.59l-44.11-57.63-47.67 41.26 69.72 92.48s31.3 22.05 42.69 7.83l-25.61 169.32 19.92-17.07 50.51-285.28c.01 0 19.45-71.46 44.35-108.45z"/><g><path class="st15" d="M596.04 446.56c4.1-.21 8.21-.32 12.31-.41 4.1-.09 8.21-.09 12.31-.14 4.1.03 8.21.02 12.31.09l6.16.13c2.05.08 4.1.12 6.16.23-2.05.12-4.1.17-6.16.26l-6.16.15c-4.1.09-8.21.09-12.31.14-4.1-.03-8.21-.02-12.31-.09-4.1-.07-8.21-.16-12.31-.36z"/></g><g><path class="st15" d="M459.17 429.32c3.01-.21 6.02-.3 9.03-.38 3.01-.09 6.02-.1 9.03-.12 3.01.01 6.02.02 9.03.12l4.52.14c1.51.08 3.01.13 4.52.25-1.51.11-3.01.16-4.52.25l-4.52.14c-3.01.09-6.02.1-9.03.12-3.01-.01-6.02-.03-9.03-.12-3.01-.1-6.02-.2-9.03-.4z"/></g><g><path class="st15" d="M592.44 656.34c4.34-.21 8.67-.3 13.01-.38 4.34-.08 8.67-.07 13.01-.12 4.34.04 8.67.04 13.01.11l6.5.14c2.17.08 4.34.13 6.5.25-2.17.11-4.34.16-6.5.25l-6.5.14c-4.34.08-8.67.08-13.01.11-4.34-.04-8.67-.03-13.01-.12-4.34-.08-8.68-.17-13.01-.38z"/></g><g><path class="st15" d="m542.67 671.28-9.38.17-9.38.12.29-.25c-.53 3.76-1 7.52-1.44 11.29-.45 3.77-.89 7.54-1.27 11.31-.76 7.55-1.37 15.12-1.71 22.69-.16 3.79-.22 7.58-.1 11.36.16 3.77.36 7.58 1.36 11.19.26.89.57 1.78 1.03 2.57.45.79 1.07 1.49 1.86 1.8 1.77.6 3.6 1.09 5.46 1.41 3.7.57 7.65.5 11.12-1.11-3.4 1.78-7.41 1.97-11.18 1.52-1.9-.25-3.76-.7-5.59-1.29-.99-.37-1.7-1.18-2.21-2.02-.51-.85-.85-1.77-1.14-2.69-1.09-3.71-1.41-7.55-1.58-11.35-.15-3.81-.11-7.62.02-11.43.25-7.61.92-15.19 1.74-22.75.81-7.56 1.83-15.1 3.04-22.6l.04-.25h.25l9.38.12 9.39.19z"/></g><g><path class="st15" d="M542.67 688.35c.03 3.51-.06 7.01-.16 10.51-.09 3.5-.26 7-.42 10.5-.19 3.5-.38 6.99-.65 10.49l-.41 5.24c-.17 1.74-.31 3.49-.51 5.23-.02-1.75.02-3.51.02-5.26l.13-5.25c.09-3.5.26-7 .42-10.5.19-3.5.38-6.99.66-10.49.26-3.49.53-6.98.92-10.47z"/></g><path class="st4" d="m559.48 347.58-24.19 23.97-8.35-23.97 13.57-24.5zM614.21 314.54l-50.97 30.77 29.05 28.91 26.18-55.6z"/><path d="M547.14 345.45v26.1l-21.81 57.14s-39.13 123.08-38.42 138.02c.71 14.94 20.33 49.09 23.68 49.09s21.85-36.28 21.85-36.28l27.75-170.11 7.11-37.85 16.36-16.85s-8.13-7.39-20.43-9.39-16.09.13-16.09.13z" style="fill:#ff505c"/><g><path class="st11" d="M304.79 393.37c-1.71 0-3.1-1.39-3.1-3.1v-91.54c0-1.71 1.39-3.1 3.1-3.1 1.71 0 3.1 1.39 3.1 3.1v91.54a3.09 3.09 0 0 1-3.1 3.1z"/></g><g><path d="m295.48 359.68 27.38 14.84s16.73 15.9-.35 12.02c0 0 12.5 8.71 1.12 13.55 0 0 7.42 10.16-3.02 13.31 0 0 8.54 14.52-.95 14.16s-22.77 0-22.77 0-18.01-53.04-1.41-67.88z" style="opacity:.1;fill:#1a2e35"/><path class="st9" d="m293.41 359.68 27.38 14.54s16.73 15.58-.35 11.78c0 0 12.5 8.54 1.12 13.28 0 0 7.42 9.96-3.02 13.04 0 0 8.54 14.23-.95 13.87s-22.77 0-22.77 0-18.01-51.97-1.41-66.51z"/><g class="st18"><path class="st15" d="M299.58 379.36c3.6.73 7.1 1.75 10.59 2.84 3.47 1.12 6.92 2.31 10.28 3.8-3.6-.73-7.1-1.75-10.59-2.84-3.47-1.13-6.92-2.32-10.28-3.8z"/></g><g class="st18"><path class="st15" d="M299.54 392.81c3.6.64 7.12 1.57 10.61 2.57 3.49 1.03 6.95 2.13 10.34 3.53-3.6-.64-7.12-1.57-10.61-2.57-3.5-1.03-6.96-2.14-10.34-3.53z"/></g><g class="st18"><path class="st15" d="M299.58 406.24c3.61.83 7.11 1.94 10.6 3.12 3.47 1.21 6.92 2.49 10.27 4.07-3.61-.82-7.11-1.94-10.6-3.12-3.47-1.22-6.92-2.5-10.27-4.07z"/></g></g><path class="st15" d="M89.52 756.58h739.35v13.58H89.52z"/><g><path class="st3" d="M201.87 96.69h229.1v166.7h-229.1z"/><path class="st14" d="M219.76 110.92h189.99v138.24H219.76z"/><path class="st19" d="M264.77 164.58a4.18 4.18 0 0 1-1.61-1.72c-.38-.74-.57-1.6-.57-2.58v-3.62c0-.98.19-1.84.57-2.58.38-.74.92-1.32 1.61-1.73.69-.41 1.49-.61 2.41-.61.76 0 1.45.16 2.09.48.63.32 1.16.78 1.59 1.37s.71 1.28.87 2.06h-1.89c-.12-.41-.31-.78-.58-1.1-.27-.32-.58-.57-.95-.75-.36-.18-.74-.26-1.12-.26-.54 0-1.01.13-1.41.39-.41.26-.72.62-.94 1.09-.22.47-.34 1.01-.34 1.64v3.62c0 .62.11 1.16.34 1.63.22.47.54.84.94 1.09.4.26.88.39 1.41.39.39 0 .77-.08 1.13-.25.36-.16.67-.4.94-.73.27-.32.46-.7.58-1.14h1.89c-.15.78-.44 1.47-.87 2.06s-.96 1.05-1.6 1.37-1.33.49-2.08.49c-.92-.01-1.72-.21-2.41-.61zM274.35 151.87h1.85v13.18h-1.85v-13.18zm.89 0h7.57v1.76h-7.57v-1.76zm0 5.75h6.57v1.76h-6.57v-1.76zm0 5.67h7.57v1.76h-7.57v-1.76zM285.44 151.86h1.85v13.19h-1.85v-13.19zm.81 5.85h4.5c.35 0 .66-.08.93-.25.27-.17.48-.41.63-.72.15-.31.22-.67.22-1.07s-.07-.76-.22-1.07c-.15-.31-.36-.55-.63-.72-.27-.17-.58-.25-.94-.25h-4.5v-1.76h4.42c.76 0 1.43.16 2.01.47.58.31 1.02.76 1.34 1.34s.48 1.24.48 2-.16 1.42-.48 2c-.32.58-.77 1.02-1.35 1.34-.58.31-1.24.47-2 .47h-4.42v-1.78zm3.59 1.35 1.84-.42 3.37 6.4h-2.19l-3.02-5.98zM295.73 151.87h9.3v1.76h-9.3v-1.76zm3.73 1.07h1.85v12.1h-1.85v-12.1zM308.33 165.05h-1.85v-13.18h1.85v13.18zM311.6 151.87h1.85v13.18h-1.85v-13.18zm.91 0h7.39v1.76h-7.39v-1.76zm0 5.87h6.39v1.76h-6.39v-1.76zM323.83 165.05h-1.85v-13.18h1.85v13.18zM329 164.58a4.18 4.18 0 0 1-1.61-1.72c-.38-.74-.57-1.6-.57-2.58v-3.62c0-.98.19-1.84.57-2.58.38-.74.92-1.32 1.61-1.73.69-.41 1.49-.61 2.41-.61.76 0 1.45.16 2.09.48.63.32 1.16.78 1.59 1.37s.71 1.28.87 2.06h-1.89c-.12-.41-.31-.78-.58-1.1-.27-.32-.58-.57-.95-.75-.36-.18-.74-.26-1.12-.26-.54 0-1.01.13-1.41.39-.41.26-.72.62-.94 1.09-.22.47-.34 1.01-.34 1.64v3.62c0 .62.11 1.16.34 1.63.22.47.54.84.94 1.09.4.26.88.39 1.41.39.39 0 .77-.08 1.13-.25.36-.16.67-.4.94-.73.27-.32.46-.7.58-1.14h1.89c-.15.78-.44 1.47-.87 2.06s-.96 1.05-1.6 1.37-1.33.49-2.08.49c-.91-.01-1.72-.21-2.41-.61zM342.17 151.87h1.58l4.86 13.18h-1.99l-3.65-10.63-3.65 10.63h-1.99l4.84-13.18zm-2.62 8.53h6.94v1.76h-6.94v-1.76zM348.79 151.87h9.3v1.76h-9.3v-1.76zm3.72 1.07h1.85v12.1h-1.85v-12.1zM359.54 151.87h1.85v13.18h-1.85v-13.18zm.9 0h7.57v1.76h-7.57v-1.76zm0 5.75h6.57v1.76h-6.57v-1.76zm0 5.67h7.57v1.76h-7.57v-1.76z"/><g class="st20"><path class="st5" d="M350.8 135.15h-72.09c-.29 0-.52-.23-.52-.52 0-.29.23-.52.52-.52h72.09c.29 0 .52.23.52.52 0 .29-.24.52-.52.52z"/></g><g class="st20"><path class="st5" d="M367.83 180.55H262.59c-.29 0-.52-.23-.52-.52 0-.29.23-.52.52-.52h105.24c.29 0 .52.23.52.52a.53.53 0 0 1-.52.52z"/></g><g class="st20"><path class="st5" d="M367.83 199.41H262.59c-.29 0-.52-.23-.52-.52 0-.29.23-.52.52-.52h105.24c.29 0 .52.23.52.52a.53.53 0 0 1-.52.52z"/></g><circle cx="314.75" cy="222.42" r="12.33" style="opacity:.44;fill:#e1e1e1"/><g><path class="st5" d="M359.34 222.94h-23.71c-.29 0-.52-.23-.52-.52 0-.29.23-.52.52-.52h23.71c.29 0 .52.23.52.52a.53.53 0 0 1-.52.52z"/></g><g><path class="st5" d="M286.3 222.94h-33.2c-.29 0-.52-.23-.52-.52 0-.29.23-.52.52-.52h33.2c.29 0 .52.23.52.52a.53.53 0 0 1-.52.52z"/></g></g><g><path class="st3" d="M665.27 179.52h170.25v111.66H665.27z"/><path class="st14" d="M686.49 193.44h127.79v83.82H686.49z"/><path style="opacity:.09;fill:#1a2e35" d="M709.36 222.94h81.58v19.63h-81.58z"/></g><g><path class="st4" d="M185.75 696.74h173.59v58.77H185.75z"/><path class="st3" d="M219.23 708.61h5.11v27.09h-5.11v-27.09zm2.27 22.17h15.88v4.92H221.5v-4.92zM249.23 708.61h3.24l10.36 27.09h-5.5l-6.48-18.5-6.48 18.5h-5.5l10.36-27.09zm-5.38 17.83h14.26v4.92h-14.26v-4.92zM275.64 708.61h4.1l5.18 18.08 3.48-18.08h5.25l-6.24 27.09h-4.81l-4.81-18.93-5.03 18.93h-4.81l-6.24-27.09h5.25l3.48 18.08 5.2-18.08z"/></g><g><path class="st23" d="M155.47 703.5c-4.47-59.34 4.69-98.01 4.78-98.4l3.02.73c-.09.38-9.14 38.62-4.7 97.43l-3.1.24z"/><path class="st23" d="m158.56 658.88-3.1-.12c.99-24.78-12.41-45.12-12.54-45.32l2.58-1.73c.57.87 14.09 21.36 13.06 47.17z"/><path class="st23" d="m158.56 669.83-3.1-.2c1.08-16.67 9.52-16.78 9.86-16.76l-.03 3.1.02-1.55.02 1.55c-.06.01-5.9.37-6.77 13.86z"/><path class="st24" d="M163.26 642.46s-3.17 14.83 7.27 16.42c10.43 1.6 16.13-16.42 31.3-10.97s12.33-16.13-3.79-18.5c-16.13-2.36-33.4 1.46-34.78 13.05zM142.92 613.44c-.85 1.75-25.27 1.98-35.7-17.94-5.21-9.95-8.06-15.35-9.6-18.25-1.72-3.25-2.41-7-1.7-10.61.92-4.69 4.07-9.41 13.67-6.47 17.07 5.22 35.57 14.47 39.6 31.3 4.03 16.84-6.27 21.97-6.27 21.97zM161.69 605.45c-1.46-.3-10.37-1.64-9.42-30.81.69-21.07 10.4-29.02 15.74-31.81 2.29-1.2 4.97-1.32 7.33-.26 4.54 2.03 11.19 7.67 8.94 23.07-3.32 22.75-10.64 42.31-22.59 39.81z"/><path class="st25" d="M142.92 613.44s-15.93-31.56-26.53-39.69c-10.6-8.13 24.23 15.04 29.11 37.96l-2.58 1.73zM160.4 604.04l9.89-47.43-7.03 49.22zM163.26 651.63s10.11-17 28.13-13.91c0 0-22.05 5.99-26.09 17.74l-2.04-3.83z"/><g><path class="st26" d="M129.74 754h54.54v5.22h-54.54zM127.16 706.8h57.13v45.69h-57.13z"/><path class="st26" d="M121.2 691.78h68.81v16.01H121.2z"/><path class="st27" d="M121.2 696.96h68.81v12.85H121.2zM121.2 750.6h68.81v4.74H121.2z"/></g></g></svg>