<svg version="1.1" id="Layer_1" xmlns="http://www.w3.org/2000/svg" x="0" y="0" viewBox="0 0 968.6 725" style="enable-background:new 0 0 968.6 725" xml:space="preserve"><style>.st3{fill:#f1f2f2}.st4{opacity:.18;fill:#3e5c74}.st6{fill:#4570ad}.st7{fill:#eda57e}.st8{fill:#091138}.st9{fill:#2a2b2b}.st11{fill:#3a3e63}.st12{fill:#f1eaf2}.st13{fill:#fa7070}.st14{fill:#3e5c74}.st16{opacity:.56}.st19{fill:#fefefc}.st20{fill:#2b2f52}.st23{fill:#fff}.st24{fill:#f7b49a}.st26{fill:#58595b}.st30{fill:#ff4d53}</style><path style="opacity:.47;fill:#d1d3d4" d="M0 597.5h968.6v121.8H0z"/><circle cx="599.6" cy="235.8" r="235.8" style="fill:#e0d5f8"/><circle cx="329.3" cy="320.1" r="288.7" style="fill:#cfb5f6"/><circle class="st3" cx="632.5" cy="443.2" r="235.8"/><ellipse class="st4" cx="133.4" cy="652.3" rx="63.4" ry="7.9"/><ellipse class="st4" cx="478.3" cy="691.8" rx="95.1" ry="12.2"/><ellipse class="st4" cx="804.5" cy="679.4" rx="127.4" ry="15.9"/><path d="M765.7 663.5h-555c-7.7 0-14-6.2-14-14v-.5c0-7.7 6.2-14 14-14h555c7.7 0 14 6.2 14 14v.5c0 7.8-6.3 14-14 14z" style="opacity:.21;fill:#3e5c74"/><path class="st6" d="M105.1 641.2s-2 9.8 0 11.5c2 1.7 26.5 0 26.5 0s2.6-4.6-8.6-8.3-9.8-3.2-9.8-3.2h-8.1z"/><path class="st6" d="M128.6 641.2s-2 9.8 0 11.5c2 1.7 26.5 0 26.5 0s2.6-4.6-8.6-8.3c-11.2-3.7-9.8-3.2-9.8-3.2h-8.1z"/><ellipse transform="rotate(-63.332 217.268 373.346)" class="st7" cx="217.3" cy="373.3" rx="21" ry="14.4"/><path class="st7" d="M195.7 365.7s-6.6 10.5-17.3 14.6c0 0 23.3 32.8 25 28.5 1.7-4.3-2.6-22.7 0-26.5l.4-13.4-8.1-3.2z"/><path class="st8" d="M196.5 368.1s1.6 5.2 11.2 5.2c0 0-.7-11.7 6-9.6 0 0 1.5 5.7 6.1-.3 0 0 2.6 8.5 10.6 9 8.1.5 3.7-10.7 3.7-10.7s-3.5-12.1-12.1-12.1-21.3-2-24.2 3.5-4.4 9-1.3 15z"/><path class="st6" d="M233.7 373.3s11.5 2 17.5 0 1.2-9.1-2.6-9.6-14.4-1.9-14.4-1.9 6.6-12.1-10.1-19.8c0 0-21.2-8.3-27.9 14.6 0 0 5.8 5.7 22.5 8.2.1 0 7.2 7.7 15 8.5z"/><path class="st9" d="M183.3 377.8s7.7 6 9.5 14.8c0 0 6.2 11.8 11 10.9 0 0 3.4 29.6-13.9 46.3-17.3 16.7-27.6 30.8-27.6 30.8l-4 80s-1.2 19.5-4.3 32.2c-3.2 12.7-8.9 51.5-8.9 51.5l-16.7-1.7v-52.9s-5.8 11.5-8.3 26.5c-2.6 15-2.3 26.5-2.3 26.5H104s-1.7-7.2-2.6-14.4c-.9-7.2-3.2-26.5 4.6-47.8 0 0 5.8-13.8 6.3-40.3 0 0-3.5-56.4-1.4-69 0 0 .3-9.8 16.1-33.4 10.4-15.5 16.8-28.6 20-35.8 2.8-6.4 6.8-12.2 11.9-16.9 6.4-6.1 15.5-11.6 24.4-7.3z"/><path class="st6" d="M173.8 379.7s11.9-1.5 17.3 14.6-10.1 43.3-23.1 55.2-19.3 18.8-19.3 18.8-11.2 10.4-7.5-2.6c3.7-12.9 15.5-62.4 15.5-62.4s2.4-17.9 17.1-23.6z"/><path d="m254 435.3 4.6-1.3s2 7.8 4.9 5.2c2.9-2.6 0-7.5 0-7.5l3.5-1.7s6.6 2.9 2.6 11.2l-1.4 1.9 9.2 23.9 2.9 7.2-5.6 1.4-5.6-15.8-6.3-14.6-2.8-2.2c-.1.2-4.5 0-6-7.7z" style="fill:#0e1438"/><path class="st7" d="m247.7 448.1 13.5-1.7s15-4.9 13.2 6.1c-1.7 10.9-8.6 8-8.6 8l-4.7-2.7-16 1.2 2.6-10.9z"/><path class="st6" d="M172.4 382.4c2.7-1.5 6.4-2 11.1.4 0 0 12.2 12.4 15.6 34.3 0 0 4 14.1 23 21s28.2 8.9 28.2 8.9l-3.5 14.8-38.5-9.3s-20.5-7.9-27.6-26.6c0 0-9.4-10-13.5-31.6-.9-4.7 1-9.6 5.2-11.9z"/><ellipse class="st7" cx="210.7" cy="367.9" rx="3.6" ry="5.2"/><g><circle class="st11" cx="695.3" cy="595.8" r="57.5"/><path class="st12" d="M695.3 558.6c-21.3 0-38.5 17.3-38.5 38.5s17.2 38.5 38.5 38.5 38.5-17.2 38.5-38.5-17.2-38.5-38.5-38.5zm8.8 30.7 4.9-5.5 5.6-6.3c1.3-1.5 3.7-1.3 4.5.2l2.6 5.7 2.6 5.7c.7 1.6-.7 3.5-2.7 3.6l-8.4.3-7.4.2c-2.1 0-3.1-2.2-1.7-3.9zm-19.7 17.5-5 5.5-5.6 6.2c-1.3 1.5-3.7 1.3-4.5-.3l-2.6-5.7-2.6-5.7c-.7-1.6.7-3.5 2.7-3.6l8.4-.2 7.4-.2c2.2.1 3.2 2.4 1.8 4zm-1.1-15.3-7.4-.5-8.4-.6c-2-.1-3.3-2.1-2.5-3.7l2.8-5.6 2.8-5.6c.8-1.6 3.2-1.6 4.5-.1l5.4 6.5 4.7 5.7c1.4 1.9.3 4.1-1.9 3.9zm17.5 37h-12.3c-1.7 0-2.8-2.3-2.1-4.2l3.3-8.4 2.9-7.3c.9-2.2 3.3-2.2 4.1 0l2.9 7.3 3.3 8.4c.7 1.9-.4 4.2-2.1 4.2zm2.1-58.2-3.3 8.4-2.9 7.3c-.9 2.2-3.3 2.2-4.1 0l-2.9-7.3-3.3-8.4c-.8-2 .4-4.3 2.1-4.3h12.3c1.7.1 2.8 2.4 2.1 4.3zm21.1 37.9-3.2 5.4-3.2 5.4c-.9 1.5-3.3 1.4-4.5-.2l-5-6.8-4.4-5.9c-1.3-1.8 0-3.9 2.1-3.6l7.3.9 8.4 1c2.2.2 3.4 2.3 2.5 3.8z"/><circle class="st11" cx="295.4" cy="595.8" r="57.5"/><path class="st12" d="M295.4 558.6c-21.3 0-38.5 17.3-38.5 38.5s17.2 38.5 38.5 38.5 38.5-17.2 38.5-38.5-17.2-38.5-38.5-38.5zm8.8 30.7 4.9-5.5 5.6-6.3c1.3-1.5 3.7-1.3 4.5.2l2.6 5.7 2.6 5.7c.7 1.6-.7 3.5-2.7 3.6l-8.4.3-7.4.2c-2.1 0-3.1-2.2-1.7-3.9zm-19.7 17.5-5 5.5-5.6 6.2c-1.3 1.5-3.7 1.3-4.5-.3l-2.6-5.7-2.6-5.7c-.7-1.6.7-3.5 2.7-3.6l8.4-.2 7.4-.2c2.2.1 3.3 2.4 1.8 4zm-1.1-15.3-7.4-.5-8.4-.6c-2-.1-3.3-2.1-2.5-3.7l2.8-5.6 2.8-5.6c.8-1.6 3.2-1.6 4.5-.1l5.4 6.5 4.7 5.7c1.4 1.9.3 4.1-1.9 3.9zm17.5 37h-12.3c-1.7 0-2.8-2.3-2.1-4.2l3.3-8.4 2.9-7.3c.9-2.2 3.3-2.2 4.1 0l2.9 7.3 3.3 8.4c.8 1.9-.3 4.2-2.1 4.2zm2.1-58.2-3.3 8.4-2.9 7.3c-.9 2.2-3.3 2.2-4.1 0l-2.9-7.3-3.3-8.4c-.8-2 .4-4.3 2.1-4.3h12.3c1.8.1 2.9 2.4 2.1 4.3zm21.2 37.9-3.2 5.4-3.2 5.4c-.9 1.5-3.3 1.4-4.5-.2l-5-6.8-4.4-5.9c-1.3-1.8 0-3.9 2.1-3.6l7.3.9 8.4 1c2.1.2 3.4 2.3 2.5 3.8z"/><path class="st13" d="M167 589.6s-5-57.7 15.8-86.2c0 0 37.4-35.5 135.2-45.5 0 0 99.3-77.5 205.3-63.6 0 0 75.7-.8 151.3 41.1 0 0 50.1 34.4 78.3 35 28.3.6 60.5 39.1 56.4 82.8-4 43.7-12.2 49.8-12.2 49.8l-43 4s8.6-52.6-49.8-68.2c0 0-72.3-5.8-66.5 68.2H351.9s10.4-60.5-53.5-68.6c0 0-61.1-4.1-60.5 64.7 0-.2-63.7-8.2-70.9-13.5z"/><path class="st14" d="M166.5 571.6s48.5-4.2 28.4 11.4l-28.4 3.5v-14.9z"/><path d="M193 510s15.7-37.9 137.1-49.1l22.9-3s55.9-59.5 186.5-54.9c0 0 70.2-.3 157.6 58.8 0 0 27.3 13.8 46.2 16.4 18.9 2.5-29.5 29-71.5 30.2s-344.1 4.8-344.1 4.8S184.8 550.3 193 510z" style="fill:#f9a2ab"/><path class="st14" d="M325.9 520.4h-13.7c-1 0-1.8-.8-1.8-1.8v-6.5c0-1 .8-1.8 1.8-1.8h13.7c1 0 1.8.8 1.8 1.8v6.5c0 1-.8 1.8-1.8 1.8zM667.3 508h-10.8c-1.4 0-2.5-1.1-2.5-2.5v-10.8c0-1.4 1.1-2.5 2.5-2.5h10.8c1.4 0 2.5 1.1 2.5 2.5v10.8c0 1.4-1.2 2.5-2.5 2.5z"/><path class="st13" d="M678.7 503.4h-30.6c-1.6 0-2.8-1.3-2.8-2.8 0-1.5 1.1-2.7 2.6-2.8l30.6-2.1c1.6-.1 3 1.2 3 2.8v2.1c.1 1.5-1.2 2.8-2.8 2.8z"/><path d="M609 598.8c-.9 0-1.6-.1-1.9-.1l-245.9-1.6.3-1.5c3.8-20.2-8.5-42.4-19-49.5-10.4-7-5.4-16.6-4.5-18.1l12.5-46.1c.2-.7.9-1.1 1.5-.9.7.2 1.1.9.9 1.5L340.3 529l-.1.2c-.2.4-5.5 8.7 3.7 14.8 10.9 7.2 23.5 29.7 20.4 50.5l243.2 1.6h.1s4.4.8 6.9-1.8c1.8-1.8 2.3-5 1.4-9.4-1.6-8.3 3.3-21.3 12.6-32.9 11.2-14 27.2-24.9 45.3-30.6l.3-.1c.1 0 8.4-.7 14.3-8.5 6.2-8.1 7.7-20.6 4.6-37.2-.1-.7.3-1.3 1-1.5.7-.1 1.3.3 1.5 1 3.3 17.4 1.6 30.6-5.1 39.3-6.2 8.1-14.6 9.3-15.9 9.4-39.6 12.6-58.8 46.4-56 60.6 1 5.3.3 9.2-2.1 11.7-2.5 2.3-5.5 2.7-7.4 2.7z" style="fill:#6d6e71" class="st16"/><path class="st14" d="M320.5 457.9h30.2s56-39.9 88-44.5l-9.2-10.6c.1-.1-77.6 28.8-109 55.1z"/><path d="M790.8 492.4s-70.1 12.9-54 33.1c0 0 24.4 15 69.7 3.2 0 0-8.3-33.7-15.7-36.3z" style="fill:#3f5471"/><path class="st13" d="M791.5 492.4s-60.2 12.9-46.1 33.1c0 0 21.4 15 61.2 3.2-.1 0-8.7-33.7-15.1-36.3z"/><path class="st14" d="M353 482.2s65.5-78.5 148.4-73.1c0 0 112.6-8.3 191.4 65.5L353 482.2z"/><g class="st16"><path class="st19" d="M359.6 480.8s63-72.1 142.7-67.2c0 0 108.3-7.6 183.9 60.2l-326.6 7z"/></g><g><path class="st14" d="M633.4 475h6.9l-6.9-39.7-8.7-2zM520.6 410.3h7.6v67h-7.6zM407.7 480.6l-16.6-30.8 3.3-1.7L411 480z"/></g><g><g class="st16"><path class="st19" d="M240.8 510.3s-5.2 15.8-23.6 26.7h-45.5s.1-.3.4-1c.8-2 2.9-6.9 7.2-15.2 2.8-5.4 7.7-9.3 13.5-10.8 7.1-1.8 17.1-4.2 26.3-5.4 12.4-1.6 23-1.1 21.7 5.7z"/></g><path class="st3" d="M221.2 509.3s-5.2 15.8-23.6 26.7h-25.5c.8-2 2.9-6.9 7.2-15.2 2.8-5.4 7.7-9.3 13.5-10.8 7.1-1.8 17.1-4.2 26.3-5.4 1.8 1 2.5 2.5 2.1 4.7z"/></g></g><g><path class="st6" d="M515.6 674.8s-1.7 8.3 2.3 12.9c3 3.4 17.2 4 24.3 4 2 0 3.2-2.1 2.2-3.8-1.6-2.6-4.4-5.7-9.2-6.8 0 0-6.3-1.2-8.6-6.3h-11zM416.3 677.4s-8.6 3.5-16.4 10.1c-7.8 6.6 4.3 4.3 4.3 4.3h24.5s3.5-11.8 0-15.8l-12.4 1.4z"/><path class="st7" d="M523.2 504.2s10.7-3.7 11.6 4.1c.9 7.7-3.2 14.5-3.2 14.5H521c0-.1-1.9-12.5 2.2-18.6z"/><path class="st20" d="m539.1 487.2 7.2 6.6-7.2 3-25 35.6v5.4l-7.3-5.9 4.3-1.8 25.7-36.3z"/><path class="st20" d="m506.9 492.2-4.8 8.6 7.8.5 34.6 26.4 1.7 5.1 5.2-7.9-4.7-.4-35.5-26.6z"/><path class="st7" d="M516.7 500.2s4.6 6 4.6 9.2 2 12.4 2 12.4 4.9 4.6 2.6-6.3c0 0 .6-10.9 3.7-10.9 0 0 .9-1.7-2.6-8.5-3.4-6.8-10.3 4.1-10.3 4.1z"/><path class="st6" d="M494.9 367.9s10.6 0 12.6 21.6 7.2 61.3 7.2 61.3 3.2 12.9 7.2 23.9c4 10.9 5.5 23.6 5.5 23.6l-11.8 4.6s-12.9-37.7-18.2-43.4l-2.5-91.6z"/><ellipse class="st7" cx="458.7" cy="343.1" rx="16.4" ry="21.3"/><path d="M441.5 342.2s.7 1 5.6-9.4c3.1-6.6 17.3-2.9 17.3-2.9l10.7 13.2s4.2-9.1 2.5-13.7c-1.7-4.7-9.5-13.3-17.9-13.3s-16.5 1.7-18.3 8.6c-1.7 6.9.1 17.5.1 17.5z" style="fill:#080e32"/><path class="st7" d="m448 352.4-3.7 25.3s21.8 24.7 30.9 13.8c9.1-10.9 0-20.7 0-20.7l-5.4-11.8-21.8-6.6z"/><path d="M445 365.7s6.4 18.3 18.5 16c12.1-2.3 13.3-7.2 9.8-15l19.6.6s6.9-.2 9.2 14.6c2.3 14.8-5.8 68.3-4.6 79.2 1.2 10.9 10.9 20.1 0 21.9-10.9 1.7-51.8 4.6-74.2-6.3 0 0 8.1-36.8-4-56.4 0 0 21.3-32.8 13.8-46.9 0 0-4-5.3-6.9-5.3l18.8-2.4z" style="fill:#1a2c36"/><path class="st9" d="m497.7 478.9 10.4 60.4 23.6 136.4-18.7 1.7-50.6-133.8s-2-10.9-4.3-4-25 139.8-25 139.8h-17.8v-168s-.3-26.8 8.1-34.8c8.3-8.1 3.2-2 3.2-2l71.1 4.3z"/><path class="st6" d="M444.2 333s4.6 1.8 7.2 5.8c0 0 8.6 2.9 20.4 0 0 0 2-5.1 5.2-2.3 0 0 6.3-9.5 0-18.2s-14.7-11.2-21.3-9.2c0 0-9.4 2.3-13.5 8.6s-3.5 13.2-3.5 13.2l5.5 2.1z"/><path class="st23" d="m451.4 420.8 40.1 4.4-6.9 52.9-38.3-2.3z"/><path class="st7" d="M449.1 445h12.7s15.5-7.2 17.5 7.2-15.1 8.3-15.1 8.3-8.8-6.9-15.1-5.8 0-9.7 0-9.7z"/><path class="st6" d="M427.6 368.8s-9.2-.1-12.4 7.4-20.7 52.9-20.7 52.9-13.5 23.3 12.4 27c25.9 3.7 44.6 0 44.6 0v-12.7s-31.4-1.4-37.4-8.2c0 0-1.2-7.6 5.2-15.1 0 0 18.6-31.5 15.2-42.3-.1.1-.3-5.5-6.9-9z"/></g><g><path class="st24" d="m716.4 546.8-4.9-1.4s-1.4-6-7.2-6.6-11.5-1.7-11.5-1.7 0 4.3 3.5 4.9c3.5.6 8.6 3.5 8.3 4.9s-5.8 1.4-5.8 1.4-.6 2 2.3 2.6c2.9.6 15.2 2.3 15.2 2.3v-6.4z"/><path class="st6" d="M748.6 671.4v9.1c0 2-1.5 3.7-3.5 4l-27 3.1s-4.3-4.9 0-6.3 13.1-5.5 14.3-6.9c1.2-1.4 3-2.9 3-2.9h13.2zM897.3 660.4l11.8 12.4s4.6 3.2 4.9 0c.2-2.5-3.1-16.4-4.5-22.4-.4-1.7-1.7-3.1-3.4-3.5-3.3-.8-8.6-1.7-10.2.8-2.3 3.8 1.4 12.7 1.4 12.7zM763.8 505.7s-6.9 4-9.2 21.3c-2.3 17.3-2.6 15.6-2.6 15.6l-37.4 2.5v11.2l38.3 2s8.1 1.4 10.9-6.6c2.9-8.1 3.2-16.1 3.2-16.1s-2.9-12.4-2.9-18.4c0-6.1-.3-11.5-.3-11.5z"/><ellipse transform="matrix(.00732 -1 1 .00732 282.332 1248.895)" class="st24" cx="770.2" cy="482.2" rx="17.9" ry="12.3"/><path class="st24" d="M789.5 484.7s1 10.6 7.5 17.7c0 0-30.3 15.9-30 12 .4-3.9 3.6-10.5 3.1-14.3l.1-10.3 19.3-5.1z"/><path class="st8" d="M787.9 486.3s-3.2 3.3-10.5-.4c0 0 5-8.6-.9-9.6 0 0-3.4 3.8-4.6-2.6 0 0-5.2 5.4-11.6 2.7-6.3-2.7 1.3-9.6 1.3-9.6s7.3-7.8 13.8-4.5c6.6 3.3 16.9 6.7 17 11.9.3 5.4.3 8.7-4.5 12.1z"/><path class="st6" d="M757.7 475.9s-9.5-2.9-13.3-6.8 2.6-7.3 5.6-6.3c3 1.1 11.7 4.1 11.7 4.1s-.4-11.7 15.3-11.2c0 0 19.3 1.9 15.6 21.8 0 0-6.6 2.1-20.2-2.4 0 .1-8.4 3.2-14.7.8z"/><path class="st9" d="M768.1 502.8s.3 6.7 17.2 5.5c0 0 6.9-2.1 10.3-7.4 0 0 10.4 1.6 16.4 9.4s14.7 32.2 14.1 53.5c-.6 21.3 0 29 0 29l11.2 57s15.5-4.9 35.4-5.2c19.8-.3 24.7 0 24.7 0l2.3 19.3-46.9 9.8s-30.2 10.1-32.5 2.6c-2.3-7.5-29.1-72.5-29.1-72.5l-43.5 7.2 2.6 62.4-16.9-.6-7.7-58.8c-.4-3.2-1.1-6.5-1.9-9.6-.9-3.5-1.1-9.3 6.5-11.6 11.2-3.4 42.9-13.2 48.3-17.5 0 0 .8-11.5-3.5-19.3-2.6-4.7-7.3-15.1-10.6-22.4-3.2-7.2-4.3-15.2-2.9-23 .6-3.4 1.6-6.8 3.2-9.7l5.2-.8-1.9 2.7z"/><path class="st6" d="M770.2 503.7s-7.8 3.4-6 15c1.7 11.6 2.9 9.7 2.9 9.7l18.6.1s-3.9-17.1 5.1-22.9c0 .1-14.2 7.8-20.6-1.9z"/><path d="M779.6 587.4c-2.3-8.1-12.6-5.2-12.6-5.2l-23.8-11.8v-3.7c-2.5-6.6-10.9-5.5-10.9-5.5l-.8 2.9c5.2.3 6.9 5.5 3.5 7.6-3.5 2.1-6.9-3-6.9-3s-.9 5.2 4.2 7.5c5.1 2.3 8.5-.9 8.5-.9l21.5 12.1c.2 1.1.4 2.1.6 3 1.8 6.5 9.6 9.3 14.7 4.9 2-1.6 3.1-4.1 2-7.9zm-8.3 5.4c-1.7 0-3.1-1.4-3.1-3.1 0-1.7 1.4-3.1 3.1-3.1 1.7 0 3.1 1.4 3.1 3.1 0 1.7-1.4 3.1-3.1 3.1z" style="fill:#eae2ef"/><path class="st6" d="M793.8 510.9s-3.9 31 0 38.2c0 0 1.9 20.6 16 22.5 14.1 1.9 10.8-16.2 10.8-16.2s-3.5-35-10-40.4c-6.5-5.3-15.4-10.3-16.8-4.1z"/><path class="st24" d="M767.7 571.8s-7.6-.3-11.1 0-7.2 2.6-7.2 2.6l-2.3 5.1s-1 4.9 2.3 5.6c3.3.7 14.3-.4 15.7-3.6 1.3-3.3 7.4-4.1 7.4-4.1l-4.8-5.6z"/><path class="st6" d="M792.6 515.1s2.6-15.8 13.2-6.5c10.6 9.2 14.4 44 14.4 44s3.7 10.9-11.5 15.5-38.5 11.4-38.5 11.4l-3.1-9.7s26.4-19.6 32.1-19.6c0 .1-8.3-15.6-6.6-35.1z"/><ellipse transform="rotate(-62.915 777.202 480.874)" class="st24" cx="777.2" cy="480.9" rx="4.7" ry="3.2"/></g><g><path class="st23" d="M362.8 308.6h-37.7l34.6 67.7-69.3-67.7h-65.2V174h137.6z"/><path class="st26" d="M287.8 209.8h-20c-1.7 0-3.1-1.4-3.1-3.1v-6.1c0-1.7 1.4-3.1 3.1-3.1h20c1.7 0 3.1 1.4 3.1 3.1v6.1c0 1.7-1.4 3.1-3.1 3.1zm-20-9.8c-.3 0-.6.3-.6.6v6.1c0 .3.3.6.6.6h20c.3 0 .6-.3.6-.6v-6.1c0-.3-.3-.6-.6-.6h-20zM320.6 284.6h-58.8c-1.7 0-3.1-1.4-3.1-3.1v-64.7c0-1.7 1.4-3.1 3.1-3.1h27.8c3.2 0 6.2 1.3 8.4 3.6l24.8 25.6c.6.6.9 1.4.9 2.2v36.5c0 1.6-1.4 3-3.1 3zm-58.8-68.5c-.3 0-.6.3-.6.6v64.7c0 .3.3.6.6.6h58.8c.3 0 .6-.3.6-.6v-36.5c0-.2-.1-.3-.2-.4l-24.8-25.6c-1.7-1.8-4.2-2.8-6.6-2.8h-27.8z"/><path class="st26" d="M308.6 274.2h-36c-1.7 0-3.1-1.4-3.1-3.1v-45.2c0-1.7 1.4-3.1 3.1-3.1h11.8c.8 0 1.6.3 2.2.9l21.3 21.1c2.4 2.4 3.8 5.6 3.8 9v17.3c0 1.7-1.4 3.1-3.1 3.1zm-36-48.9c-.3 0-.6.3-.6.6v45.2c0 .3.3.6.6.6h36c.3 0 .6-.3.6-.6v-17.3c0-2.7-1.1-5.3-3-7.2l-21.3-21.1c-.1-.1-.3-.2-.4-.2h-11.9z"/><path class="st26" d="M289.1 267.2c-2.2 0-4.5-.6-6.6-1.9-5.7-3.6-5.5-9.5-3.6-13.4.1-.2.3-.4.4-.6l6.5-9.1c.6-.7 1.8-1.1 3.2-1.1.6 0 2.2.2 2.9 1.3 1.3 1.9 3.5 5.3 6.2 11.1 2.4 5.1.6 8.5-1.3 10.5-1.8 2.1-4.7 3.2-7.7 3.2zm-1.2-23.4-6.5 9c-.1.1-.1.2-.1.2-.8 1.5-2.8 6.7 2.6 10.1 3.8 2.4 8.5 2 11.4-1 2-2.1 2.3-4.6.8-7.7-2.6-5.6-4.7-8.9-6-10.7-.3-.2-1.8-.2-2.2.1z"/></g><g><path class="st13" d="M531.7 69.9v137.2h-69.4l-13.2 75-9.9-75h-44.7V69.9z"/><path class="st23" d="M439.1 128.3c-9.7 0-17.6-7.9-17.6-17.6 0-6.1 3.3-11.9 8.6-15.1.6-.4 1.4-.2 1.7.4.4.6.2 1.4-.4 1.7-4.5 2.7-7.3 7.7-7.3 12.9 0 8.3 6.7 15 15 15s15.1-6.7 15.1-15c0-5.5-3-10.5-7.7-13.2-.6-.3-.8-1.1-.5-1.7.3-.6 1.1-.8 1.7-.5 5.6 3.1 9 9 9 15.3 0 9.9-7.9 17.8-17.6 17.8z"/><path class="st23" d="M428.6 162.8c-.2 0-.5-.1-.7-.2-.6-.4-.8-1.2-.4-1.7 9.2-14.2 0-37-.1-37.2-.3-.6 0-1.4.7-1.6.6-.3 1.4 0 1.6.7.4 1 9.8 24.2-.1 39.5-.1.3-.6.5-1 .5zM447.1 161c-.4 0-.8-.2-1.1-.6-8.6-14.6-.4-35.1-.1-35.9.3-.6 1-1 1.6-.7.6.3 1 1 .7 1.6-.1.2-8 20.2-.1 33.7.4.6.2 1.4-.4 1.7-.2.2-.4.2-.6.2zM447.1 189.5c-.7 0-1.3-.6-1.3-1.3v-15.1H432V188c0 .7-.6 1.3-1.3 1.3-.7 0-1.3-.6-1.3-1.3v-16.1c0-.7.6-1.3 1.3-1.3H447c.7 0 1.3.6 1.3 1.3v16.3c0 .7-.5 1.3-1.2 1.3zM447.1 114.1h-16.3c-.7 0-1.3-.6-1.3-1.3V96.7c0-.7.6-1.3 1.3-1.3.7 0 1.3.6 1.3 1.3v14.8h13.8v-15c0-.7.6-1.3 1.3-1.3.7 0 1.3.6 1.3 1.3v16.3c-.2.7-.7 1.3-1.4 1.3z"/><path class="st23" d="m447.7 189.3-1.2-2.2c4.8-2.7 7.7-7.7 7.7-13.1 0-8.3-6.8-15-15.1-15s-15 6.7-15 15c0 5.3 2.7 10.2 7.3 12.9l-1.3 2.2c-5.4-3.2-8.6-8.8-8.6-15.1 0-9.7 7.9-17.6 17.6-17.6 9.7 0 17.6 7.9 17.6 17.6 0 6.4-3.5 12.2-9 15.3z"/><g><path class="st23" d="M483.1 187.3h-17.3c-.7 0-1.3-.6-1.3-1.3v-41.8c0-.3.1-.6.3-.8l3.9-5v-25.1c-1-.8-2.9-2.9-3-5.7-.1-2.4.9-4.7 3.2-6.9l.3-4.4c0-.7.6-1.2 1.3-1.2h7.6c.6 0 1.1.4 1.2 1.1l.9 5.6c.8.8 2.6 2.8 2.6 5.6 0 2.2-1.2 4.2-3.5 6V138l4.8 5.8c.2.2.3.5.3.8V186c-.1.8-.6 1.3-1.3 1.3zm-16-2.5h14.8v-39.7l-4.8-5.8c-.2-.2-.3-.5-.3-.8v-25.7c0-.4.2-.8.5-1 1.9-1.4 3-2.9 3-4.4 0-2.2-2-3.9-2-3.9-.2-.2-.4-.5-.5-.8l-.8-4.9h-5.4l-.2 3.7c0 .3-.2.6-.4.8-1.9 1.8-2.9 3.6-2.8 5.3.2 2.5 2.5 4.3 2.5 4.3.3.2.5.6.5 1V139c0 .3-.1.6-.3.8l-3.9 5v40zm3-83.5z"/><path class="st23" d="M477 140.9h-6c-.7 0-1.3-.6-1.3-1.3 0-.7.6-1.3 1.3-1.3h6c.7 0 1.3.6 1.3 1.3 0 .8-.6 1.3-1.3 1.3z"/></g></g><g><path d="M710.3 125.3v124.1c0 3.5-2.8 6.3-6.3 6.3h-69.3l-70.3 87.5 42.7-87.5h-27.2c-3.5 0-6.3-2.8-6.3-6.3V125.3c0-3.5 2.8-6.3 6.3-6.3H704c3.5 0 6.3 2.8 6.3 6.3z" style="fill:#feac02"/><path class="st23" d="M665.6 151.3h-44.9c-.6 0-1.1-.4-1.2-1-.5-2.5.2-4.8 2-6.8 1.9-2.2 4.9-3.4 8-3.4h8.1c-.1-1.3-.1-3 .9-4.4.9-1.3 2.5-2.1 4.6-2.2 2.2-.1 3.9.5 5 1.9 1.2 1.5 1.4 3.4 1.3 4.8 1.8.1 5 .3 9.2 1.1 6.9 1.3 8.2 8.4 8.3 8.7.1.4 0 .7-.3 1-.2.1-.6.3-1 .3zm-43.7-2.5H664c-.7-1.8-2.3-4.5-5.8-5.2-5.9-1.1-10.1-1.1-10.1-1.1-.4 0-.8-.2-1-.5-.2-.3-.3-.7-.2-1.1.2-.7.4-2.9-.6-4.1-.6-.7-1.6-1-2.9-.9-1.3.1-2.1.4-2.6 1.1-.8 1.2-.5 3.2-.3 3.9.1.4 0 .8-.2 1.1-.2.3-.6.5-1 .5h-9.7c-2.4 0-4.7.9-6.2 2.6-1 1.1-1.5 2.3-1.5 3.7zM600.8 194.2c-.2 0-.4-.1-.6-.2-.6-.4-.8-1.1-.4-1.7l21.9-36.5c.4-.6 1.1-.8 1.7-.4.6.4.8 1.1.4 1.7l-21.9 36.5c-.2.4-.7.6-1.1.6zM624.2 171.9c-.1 0-.3 0-.4-.1-.6-.2-1-1-.7-1.6l5.4-14.2c.2-.6 1-1 1.6-.7.6.2 1 1 .7 1.6l-5.4 14.2c-.2.5-.7.8-1.2.8zM637.3 170.1c-.7 0-1.3-.6-1.3-1.3v-12.4c0-.7.6-1.3 1.3-1.3.7 0 1.3.6 1.3 1.3v12.4c0 .7-.6 1.3-1.3 1.3zM645.7 170.1c-.7 0-1.3-.6-1.3-1.3v-12.4c0-.7.6-1.3 1.3-1.3s1.3.6 1.3 1.3v12.4c-.1.7-.6 1.3-1.3 1.3zM656.8 170.1c-.5 0-1-.3-1.2-.8l-4.6-12.4c-.2-.6.1-1.4.7-1.6.7-.2 1.4.1 1.6.7l4.6 12.4c.2.6-.1 1.4-.7 1.6-.1 0-.2.1-.4.1zM680.6 194.2c-.4 0-.9-.2-1.1-.6l-20.7-36.5c-.3-.6-.1-1.4.5-1.7.6-.3 1.4-.1 1.7.5l20.7 36.5c.3.6.1 1.4-.5 1.7-.2.1-.4.1-.6.1zM652 226.8c-15.8 0-35.6-.6-37.7-.7-.7.1-3.8.4-6.1-1.5-1.5-1.2-2.4-3.1-2.5-5.4-.4-6.6 0-14.4 0-15 0-.5.1-3 2.2-5 1.9-1.7 4.7-2.5 8.5-2.2 0-3.4.7-11.6 6.4-17.4 4.4-4.5 10.7-6.5 18.7-6.1 23.5 1.3 24.4 14.2 25 22.8.1.8.1 1.6.2 2.4 3.3.2 8.4 1.8 9.3 7.2l.2.9c1.2 6.6 3.2 17.7-5.8 19.4-2.7.4-10 .6-18.4.6zm-37.8-3.2h.1c.5 0 47.9 1.5 55.7 0 6-1.1 5.2-8.4 3.8-16.5l-.2-.9c-.9-5.3-7.6-5.1-7.9-5.1h-1.1l-.2-1.1c-.2-1.1-.2-2.3-.3-3.6-.6-8.6-1.4-19.3-22.7-20.5-7.3-.4-13 1.4-16.8 5.3-6.4 6.5-5.7 16.9-5.7 17l.1 1.5-1.5-.2c-3.6-.5-6.4 0-7.9 1.3-1.4 1.3-1.4 3-1.4 3.1 0 .2-.4 8.2 0 14.9.1 1.6.6 2.9 1.6 3.6 1.7 1.4 4.3 1 4.3 1l.1.2z"/><path class="st23" d="M657.9 200H623v-1.2c0-.4-.1-9 5.5-14.3 3.2-3 7.6-4.3 13-3.8 6 .5 10.4 2.6 13.3 6.2 4.2 5.3 3.3 11.8 3.3 12.1l-.2 1zm-32.4-2.5h30.1c0-1.9-.2-5.9-2.8-9.1-2.4-3-6.3-4.8-11.5-5.3-4.7-.4-8.4.6-11.1 3.1-3.7 3.5-4.5 8.9-4.7 11.3zM623.2 238.4c-4 0-6.8-1.6-6.9-1.7l-.6-.4v-12h15.2v12.1l-.7.3c-2.6 1.2-4.9 1.7-7 1.7zm-5-3.6c1.5.7 5.4 2 10.1 0v-8h-10.1v8zM658.5 238.4c-4 0-6.8-1.6-6.9-1.7l-.6-.4v-12h15.2v12.1l-.7.3c-2.6 1.2-4.9 1.7-7 1.7zm-5-3.6c1.5.7 5.4 2 10.1 0v-8h-10.1v8zM623.7 220.2c-4.6 0-8.4-3.7-8.4-8.4 0-4.6 3.7-8.3 8.4-8.3 4.6 0 8.4 3.7 8.4 8.3 0 4.7-3.8 8.4-8.4 8.4zm0-14.2c-3.2 0-5.8 2.6-5.8 5.8s2.6 5.8 5.8 5.8c3.2 0 5.8-2.6 5.8-5.8s-2.5-5.8-5.8-5.8zM659.9 220.2c-4.6 0-8.4-3.7-8.4-8.4 0-4.6 3.7-8.3 8.4-8.3 4.6 0 8.4 3.7 8.4 8.3-.1 4.7-3.8 8.4-8.4 8.4zm0-14.2c-3.2 0-5.8 2.6-5.8 5.8s2.6 5.8 5.8 5.8c3.2 0 5.8-2.6 5.8-5.8s-2.6-5.8-5.8-5.8z"/></g><g><path d="M842.1 276.4v119.7c0 3.8-3.1 6.9-6.9 6.9H711.5c-3.8 0-6.9-3.1-6.9-6.9v-31.9l-76.2 20.9 76.2-41.9v-66.9c0-3.8 3.1-6.9 6.9-6.9h123.7c3.8.1 6.9 3.2 6.9 7z" style="fill:#9972d6"/><path class="st23" d="M731.2 318.9c-6.5 0-10.2-2.8-10.4-3-.2-.2-.4-.4-.4-.7-.7-3.1-.3-5.5 1.4-7.1 3.8-3.7 12.3-1.6 13.2-1.3 7.7 2.2 10.8 1.3 17-.5l1.1-.3c4.5-1.3 7.9 1 9.2 3.8 1.3 2.7.7 5.7-1.6 7.3-4.3 3.1-16.4.3-19.1-.4-4 1.7-7.5 2.2-10.4 2.2zm-8.4-4.7c1.5 1 7.9 4.4 18.3 0 .3-.1.5-.1.8-.1 5.3 1.4 14.7 2.9 17.4.9 1.6-1.1 1.4-3 .8-4.2-.9-1.8-3.2-3.3-6.3-2.4l-1.1.3c-6.2 1.7-9.9 2.8-18.3.5-2.2-.6-8.4-1.6-10.8.7-1 .9-1.2 2.4-.8 4.3zM751.5 365.7h-22.6c-.7 0-1.3-.6-1.3-1.3s.6-1.3 1.3-1.3h22.6c.7 0 1.3.6 1.3 1.3s-.6 1.3-1.3 1.3z"/><path class="st23" d="M741.5 365.7c-.7 0-1.3-.6-1.3-1.3v-49c0-.7.6-1.3 1.3-1.3.7 0 1.3.6 1.3 1.3v49c0 .7-.6 1.3-1.3 1.3z"/><path class="st23" d="M764.2 367.9c-4.2 0-8.4-2.2-10.7-4-.3-.2-.5-.6-.5-1v-18.5h-9.7c-.7 0-1.3-.6-1.3-1.3 0-.7.6-1.3 1.3-1.3h11c.7 0 1.3.6 1.3 1.3v19.1c2 1.4 9.8 6.2 15.1.2v-19.3c0-.7.6-1.3 1.3-1.3h6.5c.7 0 1.3.6 1.3 1.3 0 .7-.6 1.3-1.3 1.3h-5.3v18.5c0 .3-.1.6-.3.8-2.6 3.1-5.7 4.2-8.7 4.2z"/><path class="st23" d="M795.3 367.9c-17.5 0-31.7-14.2-31.7-31.7s14.2-31.7 31.7-31.7 31.7 14.2 31.7 31.7-14.2 31.7-31.7 31.7zm0-60.9c-16.1 0-29.2 13.1-29.2 29.2s13.1 29.2 29.2 29.2 29.2-13.1 29.2-29.2-13.1-29.2-29.2-29.2z"/><path class="st23" d="M795.3 356c-10.9 0-19.8-8.9-19.8-19.8s8.9-19.8 19.8-19.8 19.8 8.9 19.8 19.8-8.9 19.8-19.8 19.8zm0-37.1c-9.5 0-17.3 7.7-17.3 17.3s7.7 17.3 17.3 17.3 17.3-7.7 17.3-17.3-7.8-17.3-17.3-17.3z"/><path class="st23" d="M793.3 329.8c-.9 0-1.8-.5-2.3-1.2l-5.2-7.9c-.4-.6-.2-1.4.4-1.7.6-.4 1.4-.2 1.7.4l5.2 7.9s.1.1.2.1.2-.1.2-.2l1.9-9.7c.1-.7.8-1.1 1.5-1 .7.1 1.1.8 1 1.5l-1.9 9.7c-.2 1.1-1.1 1.9-2.1 2.2-.3-.1-.4-.1-.6-.1zM786.4 335.9h-.4l-9.3-1.5c-.7-.1-1.2-.8-1-1.4.1-.7.7-1.2 1.4-1l9.3 1.5s.1 0 .2-.1 0-.2 0-.2l-5.9-7.9c-.4-.6-.3-1.3.3-1.8.6-.4 1.3-.3 1.8.3l5.9 7.9c.7.9.7 2.1.1 3-.6.7-1.5 1.2-2.4 1.2zM800.3 333.5c-.7 0-1.4-.3-2-.8-.8-.8-1-2-.5-3l3.8-8.6c.3-.6 1-.9 1.7-.6.6.3.9 1 .6 1.7l-3.8 8.6s-.1.1 0 .2.2.1.2.1l9.2-3.6c.6-.3 1.4.1 1.6.7.3.6-.1 1.4-.7 1.6l-9.2 3.6c-.2 0-.5.1-.9.1zM795.3 356.2c-.7 0-1.3-.6-1.3-1.3v-8.7c0-1.1.7-2.1 1.7-2.5 1-.4 2.1-.3 2.8.4l6.6 5.7c.5.5.6 1.2.1 1.8-.5.5-1.2.6-1.8.1l-6.6-5.7s-.1 0-.2.1c0 0-.1.1-.1.2v8.7c0 .6-.5 1.2-1.2 1.2zM784.4 352.2c-.3 0-.6-.1-.8-.3-.5-.4-.6-1.2-.2-1.8l5.9-6.9H789l-9.3 1.3c-.7.1-1.3-.4-1.4-1.1-.1-.7.4-1.3 1.1-1.4l9.3-1.3c1.2-.2 2.3.4 2.8 1.4.5.9.4 2-.3 2.8l-5.9 7c-.2.1-.6.3-.9.3zM808.6 346c-.3 0-.7-.1-.9-.4l-5.9-6.1c-.7-.7-.9-1.8-.5-2.7.5-1 1.5-1.7 2.7-1.7l9.7.3c.7 0 1.2.6 1.2 1.3 0 .7-.7 1.3-1.3 1.2l-9.7-.3c-.2 0-.3.1-.3.2l5.9 6c.5.5.5 1.3 0 1.8-.3.3-.6.4-.9.4z"/><circle class="st23" cx="794.9" cy="336.7" r="3.2"/></g><g><path class="st6" d="M170.7 327.3h-60.4c-2.7 0-4.8-2.2-4.8-4.8v-88.3c0-2.7 2.2-4.8 4.8-4.8h60.4c2.7 0 4.8 2.2 4.8 4.8v88.3c0 2.7-2.1 4.8-4.8 4.8z"/><path class="st23" d="M171.9 233.7v73.5h-14.2v15.2h-48.3v-88.7z"/><path style="fill:#e6e7e8" d="M171.9 306.4h-14.4v15.8z"/><path class="st30" d="M160.4 223.1v12.8h-37v-12.8h12.3c-.1.4-.2.8-.2 1.3 0 2.9 2.4 5.3 5.3 5.3s5.3-2.4 5.3-5.3c0-.4-.1-.9-.2-1.3h14.5z"/><path d="M149 223.1c-.6-4-4.1-7.1-8.2-7.1-4.2 0-7.6 3.1-8.2 7.1-.1.4-.1.8-.1 1.3 0 4.6 3.7 8.3 8.3 8.3 4.6 0 8.3-3.7 8.3-8.3 0-.4 0-.9-.1-1.3zm-8.2 6.6c-2.9 0-5.3-2.4-5.3-5.3 0-.4.1-.9.2-1.3.6-2.3 2.6-4 5.1-4 2.5 0 4.6 1.7 5.1 4 .1.4.2.8.2 1.3 0 2.9-2.3 5.3-5.3 5.3z" style="fill:#fb5764"/><path class="st30" d="M132.2 248.2h18.6M150.8 249.2h-18.5c-.6 0-1-.5-1-1s.5-1 1-1h18.5c.6 0 1 .5 1 1s-.5 1-1 1zM154.5 248.2h10.9M165.4 249.2h-10.9c-.6 0-1-.5-1-1s.5-1 1-1h10.9c.6 0 1 .5 1 1s-.4 1-1 1zM132.2 253.1h9.3M141.5 254.2h-9.3c-.6 0-1-.5-1-1 0-.6.5-1 1-1h9.3c.6 0 1 .5 1 1s-.4 1-1 1z"/><g><path class="st30" d="M144.2 253.1h21.2M165.4 254.2h-21.2c-.6 0-1-.5-1-1 0-.6.5-1 1-1h21.2c.6 0 1 .5 1 1s-.4 1-1 1z"/></g><g><path class="st30" d="M120.6 257c-.4 0-.7-.2-.9-.5l-4.7-7.8c-.3-.5-.1-1.1.3-1.4.5-.3 1.1-.1 1.4.3l3.8 6.4 7.5-11.1c.3-.5.9-.6 1.4-.3.5.3.6.9.3 1.4l-8.4 12.4c0 .4-.4.6-.7.6z"/></g><g><path class="st30" d="M132.2 268.9h18.6M150.8 269.9h-18.5c-.6 0-1-.5-1-1 0-.6.5-1 1-1h18.5c.6 0 1 .5 1 1 0 .6-.5 1-1 1zM154.5 268.9h10.9M165.4 269.9h-10.9c-.6 0-1-.5-1-1 0-.6.5-1 1-1h10.9c.6 0 1 .5 1 1 0 .6-.4 1-1 1zM132.2 273.9h9.3M141.5 274.9h-9.3c-.6 0-1-.5-1-1s.5-1 1-1h9.3c.6 0 1 .5 1 1s-.4 1-1 1z"/><g><path class="st30" d="M144.2 273.9h21.2M165.4 274.9h-21.2c-.6 0-1-.5-1-1s.5-1 1-1h21.2c.6 0 1 .5 1 1s-.4 1-1 1z"/></g><g><path class="st30" d="M120.6 277.7c-.4 0-.7-.2-.9-.5l-4.7-7.8c-.3-.5-.1-1.1.3-1.4.5-.3 1.1-.1 1.4.3l3.8 6.4 7.5-11.1c.3-.5.9-.6 1.4-.3.5.3.6.9.3 1.4l-8.4 12.4c0 .5-.4.6-.7.6z"/></g></g><g><path class="st30" d="M132 289.7h18.5M150.5 290.7H132c-.6 0-1-.5-1-1s.5-1 1-1h18.5c.6 0 1 .5 1 1s-.4 1-1 1zM154.3 289.7h10.9M165.2 290.7h-10.9c-.6 0-1-.5-1-1s.5-1 1-1h10.9c.6 0 1 .5 1 1s-.5 1-1 1zM132 294.7h9.3M141.3 295.7H132c-.6 0-1-.5-1-1 0-.6.5-1 1-1h9.3c.6 0 1 .5 1 1s-.5 1-1 1z"/><g><path class="st30" d="M144 294.7h21.2M165.2 295.7H144c-.6 0-1-.5-1-1 0-.6.5-1 1-1h21.2c.6 0 1 .5 1 1s-.5 1-1 1z"/></g><g><path class="st30" d="M120.4 298.5c-.4 0-.7-.2-.9-.5l-4.7-7.8c-.3-.5-.1-1.1.3-1.4.5-.3 1.1-.1 1.4.3l3.8 6.4 7.5-11.1c.3-.5.9-.6 1.4-.3.5.3.6.9.3 1.4l-8.4 12.4c-.1.4-.4.6-.7.6z"/></g></g></g></svg>