<svg version="1.1" id="Layer_1" xmlns="http://www.w3.org/2000/svg" x="0" y="0" viewBox="0 0 1000 957.5" style="enable-background:new 0 0 1000 957.5" xml:space="preserve"><style>.st1{fill:#c9aae5}.st3{fill:#7bba6c}.st4{fill:#feac02}.st5{fill:#e6e7e8}.st6{fill:#4570ad}.st7{fill:#353535}.st9{opacity:.77}.st10{fill:#f4534e}.st11{fill:#f7b6ad}</style><path d="M196.3 720.4s-206.5-16.2-78.7-165.9S220.3 356 234.7 308.6s84.7-364.4 340.1-182 380 446.5 380 446.5 81.8 198.4-143.4 286.6-245.4 55.7-420.9-67.6c0 0-84.8-42.7-194.2-71.7z" style="fill:#dacced"/><path class="st1" d="M217.8 705.2s-192.9-15.2-73.5-155 96-185.4 109.4-229.6 79.1-340.3 317.6-169.9 354.8 417 354.8 417 76.4 185.3-133.9 267.7-229.2 51.8-393-63.3c.1 0-79.2-39.8-181.4-66.9z"/><ellipse transform="rotate(-69.591 150.197 368.713)" class="st1" cx="150.2" cy="368.7" rx="105.7" ry="52.9"/><ellipse transform="rotate(-69.591 203.064 159.683)" class="st1" cx="203.1" cy="159.7" rx="44" ry="32.3"/><ellipse cx="441.6" cy="917.4" rx="232" ry="21.7" style="opacity:.11;fill:#231f20"/><path class="st3" d="M506.5 715.5c1.5-3.3-.8-42.6 73.2-79.9 0 0 31.4-22.9-1.3-53.6-32.4-30.5-61.9-46.4-36.8-58.5 25.1-12.1 57.2-.7 46.5-26.2s-10.5-27.9 4-41.5c0 0-15.9 17.7 2.3 33.8 18.1 16 15.7 48.1-9.5 47.3-25.2-.8-31.5 0-31.5 0s33.3 16.3 57.6 40.1c29 28.3 19.3 69.6-6.8 95.3l-25.8 28.4-71.9 14.8z"/><path class="st4" d="M431.5 746.3s-43.3 15.7-60.6-3.1l-4.3-21.1-17.7 5.5s-17.2-6.3-17.2-15.7c0-9.4 7.3-11.7 7.3-11.7s-15.9 7.8-25.3 3.9-19.6-22.7-19.6-22.7l14.1-10.2h-25.6s-27.7-25.2-24.5-36.5c3.2-11.3 16.9-9 16.9-9s-36.5-8.7-29.4-29.7c0 0 1.6-12.7 15.7-18 0 0-18.3-11.7-16.6-26.6l-9.4-43.1 36.4 5.8s21.6-12.7 25.5-3.8 3.7 15.4 3.7 15.4 7.6-24.3 22.7-11.5c0 0 20 5 20.7 27.7l.7 22.7s1.6-17.8 18.8-16.3 22.7 25 22.7 25l4.9 11s11.7-12.1 18.3 6.1c6.6 18.2 1.2 40.1 1.2 40.1s18.3-20.4 25.2 0c6.8 20.4 5.3 37.6 5.3 37.6l-9.9 17.7 16 4.3c0-.1 8.5 36.7-16 56.2z"/><path class="st5" d="M426.4 734.7c-.5 0-1-.2-1.3-.6L252.4 526.8c-.6-.7-.5-1.8.2-2.4.7-.6 1.8-.5 2.4.2l172.7 207.3c.6.7.5 1.8-.2 2.4-.4.3-.8.4-1.1.4zM407.2 718.3c-6.5 0-52.5-4.5-54.5-4.7-.9-.1-1.6-.9-1.5-1.9.1-.9.9-1.6 1.9-1.5.5 0 47.8 4.7 54.1 4.7.9 0 1.7.8 1.7 1.7 0 .9-.8 1.7-1.7 1.7zM407.2 698.3h-.2c-.9-.1-1.6-1-1.5-1.9l6.2-52.3c.1-.9 1-1.6 1.9-1.5.9.1 1.6 1 1.5 1.9l-6.2 52.3c-.1.9-.8 1.5-1.7 1.5zM373.3 683h-.1l-54.8-4.7c-.9-.1-1.6-.9-1.6-1.8.1-.9.9-1.7 1.8-1.6l54.8 4.7c.9.1 1.6.9 1.6 1.8-.1 1-.9 1.6-1.7 1.6zM380.1 662.7c-.1 0-.3 0-.4-.1-.9-.2-1.5-1.2-1.2-2.1l17.5-65.1c.2-.9 1.2-1.4 2.1-1.2.9.2 1.5 1.2 1.2 2.1l-17.5 65.1c-.3.8-1 1.3-1.7 1.3zM344.4 653.3h-.2l-69.3-7.3c-.9-.1-1.6-.9-1.5-1.9.1-.9.9-1.6 1.9-1.5l69.3 7.3c.9.1 1.6.9 1.5 1.9-.1.8-.9 1.5-1.7 1.5zM352.9 624.6h-.4c-.9-.2-1.5-1.1-1.3-2.1l13.8-56.6c.2-.9 1.2-1.5 2.1-1.3.9.2 1.5 1.1 1.3 2.1l-13.8 56.6c-.2.7-.9 1.3-1.7 1.3zM318.5 624.6h-.4l-58-12.8c-.9-.2-1.5-1.1-1.3-2 .2-.9 1.1-1.5 2-1.3l58 12.8c.9.2 1.5 1.1 1.3 2-.2.7-.9 1.3-1.6 1.3zM325.3 599.6s-.1 0 0 0c-1-.1-1.8-.9-1.7-1.8l3.3-60c.1-.9.9-1.7 1.8-1.6.9.1 1.7.9 1.6 1.8l-3.3 60c-.1.9-.8 1.6-1.7 1.6zM253.7 596.2c-.9 0-1.7-.8-1.7-1.7 0-.9.8-1.7 1.7-1.7.4 0 37.5-.1 47 0 .9 0 1.7.8 1.7 1.7 0 .9-.8 1.7-1.7 1.7-9.6-.1-46.6 0-47 0zM295 561.7c-.9 0-1.7-.8-1.7-1.7v-34.2c0-.9.8-1.7 1.7-1.7.9 0 1.7.8 1.7 1.7V560c0 .9-.8 1.7-1.7 1.7zM271.7 561.7c-.3 0-.7-.1-1-.3l-24.6-17.1c-.8-.5-1-1.6-.4-2.4.5-.8 1.6-1 2.4-.4l24.6 17.1c.8.5 1 1.6.4 2.4-.3.4-.8.7-1.4.7z"/><g><path class="st3" d="M409.8 849.1s-3.9-153.3-174-128c0 0-1.5 78.8 54.5 118.4s119.5 9.6 119.5 9.6z"/><path transform="rotate(-54.38 317.838 780.144)" class="st5" d="M316.6 685.2h2.5v189.9h-2.5z"/><path transform="rotate(-4.117 347.669 828.101) scale(.99998)" class="st5" d="M326 826.9h43.4v2.5H326z"/><path transform="rotate(-18.029 358.301 775.51)" class="st5" d="M357.1 743.8h2.5v63.5h-2.5z"/><path transform="rotate(-13.904 308.893 809.563)" class="st5" d="M284.7 808.3h48.4v2.5h-48.4z"/><path transform="rotate(-23.451 322.215 749.294)" class="st5" d="M320.9 727.5h2.5v43.6h-2.5z"/><path transform="rotate(-9.141 291.168 792.933)" class="st5" d="M268.2 791.5h45.7v2.5h-45.7z"/><path transform="rotate(-23.451 292.212 739.748)" class="st5" d="M290.9 724.8h2.5v29.8h-2.5z"/><path transform="rotate(-11.725 266.195 770.58)" class="st5" d="M251.9 769.2h28.6v2.5h-28.6z"/><path transform="rotate(-23.451 270.639 733.352)" class="st5" d="M269.4 723.6h2.5V743h-2.5z"/><path transform="rotate(-23.451 254.17 751.096)" class="st5" d="M243.5 749.8h21.3v2.5h-21.3z"/></g><path class="st6" d="M421 737.3s-34.7-15.7-66.3 0-56.6-7-59.8-29.8c-3.1-22.7-5.5-35.2-27.4-39.2s-62.5 19.6-87.2-32.9c0 0-21.8-43.9 1.3-97 2.4-5.5 3-11.5 1.8-17.4-3.4-17.3-9.8-53.4-7.5-65.4 3.1-16 35.2-27.8 35.2-27.8s29.8-6.3 19.6-32.1-18-22.7-18-22.7 21.9 29.8-7.8 41.5-51.7 16.9-42.3 50.7c9.4 33.9 15.2 39.5-2.2 65.3-17.4 25.7-22.9 78.3-5.6 112.7 17.2 34.4 38.9 44.7 59.5 50.8 20.6 6.1 37.6-13.3 47.8-7.8 10.2 5.5 20.1 14.9 9.7 33.7-10.5 18.8-2.6 50.1 25.6 54.8 28.2 4.7 42.3 3.1 61.9-15.7s58.7 24.3 58.7 24.3l3-46z"/><path class="st7" d="M538.3 787.5c4.2-7.9 58.2-26.7 59-50.2 0 0-16.4-3.1 0-21.1 10.8-11.8 23.6-31.4 37.3-38.4 9.7-4.9 21.4 1 23.5 11.7 1.9 9.6 6.4 24.1 16.7 29.8 22.3 12.4 9.3-36 3.9-38.4s-36-25-17.2-37.5c18.8-12.6 35.9-27.7 17.2-38.2s-32.8-21.8-17.2-32.6c15.7-10.8 36 11 48.6 5.6 12.5-5.4 6.3-29.7 6.3-29.7s18 24.3 6.3 33.7c-11.7 9.4-43.9-4-43.9-4s-16.5 2.4 0 12.6 40 30.5 23.5 43.9C685.8 648 659 653.6 678.7 668s40 19.1 33.7 46.5c-6.3 27.4-39.2 39.9-54.8 19.6-15.7-20.4-22.7-25.1-28.2-7.8-5.5 17.2-2.3 57.2-2.3 57.2l-88.8 4z"/><g><path class="st3" d="M450 753.7s-39.2-96.9 74-127.1c0 0 22.3 48.8-2 88.8-24.2 39.9-72 38.3-72 38.3z"/><path transform="rotate(-59.075 488.809 685.744)" class="st5" d="M424.1 684.9h129.4v1.7H424.1z"/><path transform="rotate(-19.335 483.22 723.828)" class="st5" d="M468.4 722.9H498v1.7h-29.6z"/><path transform="rotate(-5.426 462.236 693.798) scale(.99998)" class="st5" d="M461.4 672.2h1.7v43.3h-1.7z"/><path transform="rotate(-9.556 502.246 701.57)" class="st5" d="M485.8 700.8h33v1.7h-33z"/><path class="st5" d="M476.9 652.7h1.7v29.7h-1.7z"/><path transform="rotate(-14.304 509.056 686.361)" class="st5" d="M493.4 685.4h31.1v1.7h-31.1z"/><path class="st5" d="M493 643.3h1.7v20.3H493z"/><path transform="rotate(-11.735 518.279 665.519)" class="st5" d="M508.8 664.8h19.5v1.7h-19.5z"/><path class="st5" d="M504.8 637h1.7v13.2h-1.7zM513.5 649.4H528v1.7h-14.5z"/></g><g><path d="M426.8 816.2c-.3-3.7 7.5-83.6 28.7-68.7 21.1 14.9 16-1.8 16-1.8s9-25.6 21.6-6.8c0 0 4 19.6 8.3 7.8 0 0-12.2-29 4.3-25.1 16.4 3.9 16.4 7.8 16.4 7.8s-14.8-36.1 5.9-35.3l14.4 7.1s-2.9-27.4 5.6-25.8c8.5 1.6 16.3 11 16.3 11s-6.7-34.5 7.2-33.7c13.9.8 16.6 15.3 16.6 15.3s16.8-25.5 23.9-15.3-14.9 41.5-14.9 41.5 23.5-10.2 21.9 0c-1.6 10.2-21.9 21.9-21.9 21.9s23.6 2.4 7.8 19.6c-15.8 17.2-13 14-13 14s20.8-4.6 13 7.2c-7.8 11.7-20.4 12.5-20.4 12.5s11.9 7.1 0 16-31.1 2.1-31.1 2.1 22.8 16.2 6.8 21.6-30-1.5-30-1.5 7.6 14.8-12.3 14.2c-19.9-.7-35.3 2.4-35.3 2.4s-3.9 21.8-32.9 14.3c-28.7-7.4-22.9-22.3-22.9-22.3z" style="fill:#ac67ce"/><g class="st9"><path class="st5" d="m436.6 816.9-.9-1.5c1.4-.9 143.1-88 161.1-143.4l1.6.5C580.2 728.6 438 816 436.6 816.9z"/></g><g class="st9"><path class="st5" d="M463.4 762.3h1.7V795h-1.7z"/></g><g class="st9"><path transform="matrix(.9972 -.07416 .07416 .9972 -57.126 39.463)" class="st5" d="M482.8 788.1h40v1.7h-40z"/></g><g class="st9"><path class="st5" d="M488.3 745.2h1.7v28.9h-1.7z"/></g><g class="st9"><path transform="rotate(-6.066 523.875 772.203)" class="st5" d="M505.5 771.3h37v1.7h-37z"/></g><g class="st9"><path class="st5" d="M512.6 728.7h1.7v25.1h-1.7z"/></g><g class="st9"><path transform="matrix(.9965 -.08402 .08402 .9965 -61.175 49.833)" class="st5" d="M538.2 750.9h46.6v1.7h-46.6z"/></g><g class="st9"><path class="st5" d="M537.4 704.4h1.7v29h-1.7z"/></g><g class="st9"><path transform="rotate(-11.637 557.159 699.008)" class="st5" d="M556.2 682.1h1.7v33.6h-1.7z"/></g><g class="st9"><path transform="rotate(-13.357 575.292 678.988)" class="st5" d="M574.4 663.2h1.7v31.4h-1.7z"/></g><g class="st9"><path transform="rotate(-9.607 571.014 731.139)" class="st5" d="M556.9 730.2H585v1.7h-28.1z"/></g><g class="st9"><path transform="rotate(-26.064 586.427 709.837)" class="st5" d="M574 709h25v1.7h-25z"/></g></g><g><path class="st6" d="M437.8 863.1s88.1 23.5 154.4-18.3c0 0 78-39.4 34.9-61.3s-174.8 30.6-188.9 43.1C424 839.1 424 852.4 424 852.4l13.8 10.7z"/><path class="st5" d="m431.6 849.3-.2-1.7c1.3-.1 132.7-13 197.5-51.6l.9 1.5c-65.2 38.8-196.9 51.7-198.2 51.8zM481.2 864c-13.7 0-25.8-14.4-26.4-15l1.3-1.1c.1.2 13.1 15.6 26.6 14.3l.2 1.7c-.5.1-1.1.1-1.7.1zM461 839.4l-1.6-.6c.3-.7 7.3-17.6 23.1-24.7l.7 1.6c-15.2 6.7-22.1 23.5-22.2 23.7z"/><path class="st5" d="M521.3 863.9c-22.7 0-32.8-20.1-32.9-20.3l1.5-.8c.1.2 9.8 19.4 31.3 19.4h.8v1.7h-.7zM497.8 833.1c-.1-.1-6.4-14.1 7.4-22.2l.9 1.5c-12.5 7.4-7 19.5-6.7 20l-1.6.7zM542.9 856.7c-22.1 0-25.4-12.7-25.6-13.3l1.7-.4c.1.5 3.5 12.9 26.5 11.9l.1 1.7c-.9.1-1.8.1-2.7.1zM517.4 827.2c-.1-.2-5.2-15.4 20.6-25.7l.6 1.6c-24.3 9.8-19.7 23.5-19.6 23.6l-1.6.5zM564.2 849.7c-16.6 0-26.5-13.1-26.6-13.3l1.4-1c.1.2 11.4 15.1 30 12.2l.3 1.7c-1.8.3-3.5.4-5.1.4zM543.3 822.3l-1.7-.2c.1-.7 2.4-17.3 11.4-29.8l1.4 1c-8.8 12.2-11.1 28.9-11.1 29zM582.7 841.9c-12.1 0-22.7-8.4-22.8-8.5l1.1-1.3c.2.2 20 15.8 35.7 3.1l1.1 1.3c-4.9 4-10.1 5.4-15.1 5.4zM563.5 814.8c0-.2-.6-20.4 15-26.7l.6 1.6c-14.5 5.9-14 24.9-14 25.1h-1.6zM591.9 831.6c-5.3 0-7.6-2.4-7.8-2.5l1.2-1.2-.6.6.6-.6c.1.1 6.9 6.7 24.8-4.8l.9 1.4c-8.6 5.6-14.8 7.1-19.1 7.1zM579.3 808.3l-.9-1.5c.8-.5 1.5-2.7 2.2-5 2-6.6 5.1-16.5 17-17.6l.2 1.7c-10.7 1-13.5 9.9-15.5 16.4-1 3-1.7 5.1-3 6zM605.9 801.9l-1.7-.1c0-.2.9-17.9 15-17.6v1.7h-.2c-12.2 0-13 15.3-13.1 16zM613 817.7c-2 0-2.8-.7-3-.9l1.2-1.3s3.9 2.9 17.7-7.1l1 1.4c-8.9 6.4-14.1 7.9-16.9 7.9zM444.5 843.4c-.1-.5-2.4-11.9 5-18.3l1.1 1.3c-6.6 5.8-4.4 16.6-4.4 16.7l-1.7.3z"/></g><path class="st10" d="M413.7 784.3s-40.7 42.3-74.6 14.1c-33.9-28.2-69.1 16.4-102.4-20.4 0 0-13.3-29 17-60.3 0 0 17.8-22.7-23.8-39.2 0 0-15.7-18.8 18.8-39.2 0 0 23.5-19.8-1.6-34.2 0 0-68.9-6.5-39.9-27.7 0 0 67.6 3.6 59.3-26.4 0 0-13.8-14.3-40.5-14.3 0 0 25.8 6.3 22.7 19.6s-32.2 3.1-48.6 5.5-30.5 23.5-8.6 37.6 40.9 6.3 45.1 20.4c4.2 14.1-27.1 12.5-27.9 35.2-.8 22.7 22.5 25 26.5 39.1 4 14.1-32.8 33.7-23.4 65.8 0 0-4 63.8 53.2 71.1 0 0 79.9 56.2 155.9 0l-3.9-58.5-3.3 11.8z"/><path class="st4" d="M416.3 841.4s-40.2 18.8-77.2 8.6c0 0-18-39.2-38.1-31.3-20.1 7.8-49.9 16.7-49.9 16.7s-28.2 4.5-47-32.3c0 0 6.3-25.1-19.6-27.4-25.8-2.3-38.4.8-42.3-31.3 0 0 24.3-49.3-3.9-50.1-28.2-.8-21.9 21.9-42.3 17.2L83.5 706s9.4 25.1 29 15.7c0 0 20.4-22.7 23.5-8.6 3.1 14.1-16.4 20.4-7.8 57.2 0 0 .8 22.7 36 21.9 0 0 19.6-14.1 25.1 8.6s7.6 46 46.1 52.4c38.5 6.4 39.8 0 39.8 0s10-9.3 25.9 8.7c0 0 1.6 32.1 38.1 23.5 0 0 17.1-2.4 40.5-20.6h30.2l14.2-25.6-7.8 2.2z"/><g><path class="st11" d="m411.1 512.2 6.8 337.3s14.1 20.9 19.8 13.6c0 0 33.9-339.4 25.1-355l-51.7 4.1z"/><path class="st7" d="M413.7 848.5s-8.9 16.7 0 26.1c8.9 9.4 9.4 33.9 9.4 33.9s.4 12.5 14.6 9.4l.4-58s-13-2.6-20.3-15.1l-4.1 3.7z"/><path class="st11" d="m265.5 433.4-66.3 18.8s-39.2 7.3-22.5 37.6c16.7 30.3 67.4 51.2 98.7 65.3 31.3 14.1 95.5 50.1 95.5 50.1v-23.9s-90.3-79.5-103.9-84.2l56.4-8.4-57.9-55.3z"/><path class="st7" d="M367.8 574.4s17.8-6.8 21.4 6.3c0 0-2.1 12.5 4.2 20.9s20.1 25 20.1 25 6.5 17.8 0 16.7c-6.5-1-34.7-24.2-42.5-35.3-7.8-11.1 0-2.8 0-2.8s-7-29.7-3.2-30.8z"/><path class="st11" d="M493.1 236.4s11.5-6.7 5.7-52.6c-5.7-45.9-56.1-123.2-56.1-123.2s-25.8-18.3-25.6-30.3c.1-4.5.6-7.7 1.1-9.9.6-2.5 3.5-3.5 5.5-2 5 3.6 14.3 10.4 20.1 15.1 8.4 6.8 12.2 19.8 12.2 19.8s58.9 51.2 65.1 83c0 0 28.7 53.8 11.5 107.6 0 0-6.3 25.6-25.1 29.8l-14.4-37.3zM325.5 236.4s-10.4-7.3-12-25.3c-1.6-17.9.5-82.7 12-97.3s45.4-61.6 45.4-61.6 19.3 2.6 28.2-8.9 14.6-22.5 14.6-22.5-.5-9.9-12.5-2.1c-12 7.8-30.3 15.7-30.3 15.7l-7.6 4.2s-50.4 37.1-69.7 73.6c-19.3 36.5-17.8 61.1-17.8 61.1s-8.9 67.9 31.3 94.5l18.4-31.4z"/><ellipse transform="rotate(-84.666 384.037 211.182) scale(1.00003)" class="st11" cx="384" cy="211.2" rx="35.8" ry="27.6"/><path class="st11" d="M384 242.3v29.2s-17.8-20.4-34.5-19.8c-16.7.5-8.4 25.1-8.4 25.1l14.1 19.3s30.3-4.2 38.6 17.2l4.7 7.3 7.8-7.8s38.1-26.6 56.4-4.7c0 0 34.5-33.4 13.1-41.8 0 0-4.7-8.4-19.8-5.7s-29.8 12.5-29.8 12.5-4.2-3.1-5.2-12.5-3.9-45.4-3.9-45.4l-9.2 2.1-23.9 25z"/><path class="st10" d="M354.7 252.2s-4.2-14.6-29.8-25l-24 38.1s40.7 25.6 47 70.5 8.4 64.2 8.4 64.2l60.9 38.6 43-41.8s-.5-66.8 14.1-84.1c14.6-17.2 39.2-39.2 39.2-39.2l-18.3-41.2s-35.9 10.6-35.5 27.8c0 0 10.5 5.1 6.8 16.1-3.7 11-3.2 25.1-3.2 25.1s-26.4-14.6-52.6 4.7l-7.1 8.9s-12.8-32.4-46.8-23.5c0 0-13.9-21.5-2.1-39.2z"/><path class="st10" d="M578.2 465.8s.5 18.8-19.8 23c0 0-12.5 17.2-35.5 14.1 0 0-11.6 13.6-40 9.9 0 0-12.2 9.4-34.2 5.8 0 0-27.7 5.7-51.2-3.7 0 0-32.4 5.2-44.4-10.5 0 0-31.8-2.1-42.3-18.8 0 0-30.3-9.9-33.9-23.5 0 0-21.9-9.4-21.9-23.5 0 0-17.7-7.8-14.6-20.9 0 0-2.2-3.2-3.7-7.3-1.9-5.1-2.6-11.7 3.3-15.1h120.5l53.8 33.9 46-38.1 123.4 47.5h.1l8.1 3.1c-.1.1 3.5 18.3-13.7 24.1z"/><path class="st7" d="M578.2 465.8s.5 18.8-19.8 23c0 0-12.5 17.2-35.5 14.1 0 0-11.6 13.6-40 9.9 0 0-12.2 9.4-34.2 5.8 0 0-27.7 5.7-51.2-3.7 0 0-32.4 5.2-44.4-10.5 0 0-31.8-2.1-42.3-18.8 0 0-30.3-9.9-33.9-23.5 0 0-21.9-9.4-21.9-23.5 0 0-17.7-7.8-14.6-20.9 0 0-2.2-3.2-3.7-7.3h82L256 428.7s.5 14.1 7.8 14.1c7.2 0 60.9-18.2 62.6-18.8L280 452.7s5.2 19.8 20.9 20.9c15.7 1.1 54.8-35 54.8-35l-7.8 53.2s20.9 25.1 50.7 16.7l18.6-55.9 31 57.6s23.9 5.6 34.7-4.3l-30-54.8 69.4 45.9s26.1-1 25.6-15.7l-51.2-40.2 74.2 27.7 10.4-16.2-51.2-25.1 53.5 11h.1l8.1 3.1c0 .2 3.6 18.4-13.6 24.2zM362.9 189.4s-18.4-6.1 0-20.7S419 157 432 179c0 0 6.8 5.8 10.4-1s25.9-11.2 32.1 7.1c6.3 18.3 2.3 31.6-17.5 37.8s-23.5-7.8-23.5-7.8-1.1 24.2-14.7 21c0 0-.1-15.5-7.3-22.4l-4.3-4.9s-22.1-6.8-23.2-18.3c0 .1-1.4-10.2-21.1-1.1z"/><ellipse transform="rotate(-79.164 417.134 211.178)" class="st11" cx="417.2" cy="211.2" rx="9.1" ry="7"/><path class="st10" d="M433.6 217.7c-.4 0-.9-.1-1.3-.3-1.2-.7-1.7-2.3-1-3.5 8.8-15.6 4-31.6 3.9-31.8-.4-1.4.3-2.8 1.7-3.2 1.4-.4 2.8.3 3.2 1.7.2.7 5.5 18.3-4.4 35.8-.4.9-1.2 1.3-2.1 1.3z"/><path d="M429.4 250.6h-.4c-1.4-.2-2.4-1.5-2.2-2.9l4.2-29.2c.2-1.4 1.5-2.4 2.9-2.2 1.4.2 2.4 1.5 2.2 2.9l-4.2 29.2c-.2 1.3-1.2 2.2-2.5 2.2z" style="fill:#ff4d53"/><path class="st10" d="M445.3 242.3c-.9 0-1.8-.5-2.3-1.4L432 220c-.7-1.3-.2-2.8 1.1-3.5 1.3-.7 2.8-.2 3.5 1.1l11 20.9c.7 1.3.2 2.8-1.1 3.5-.4.2-.8.3-1.2.3z"/></g></svg>