<svg version="1.1" id="Layer_1" xmlns="http://www.w3.org/2000/svg" x="0" y="0" viewBox="0 0 1000 698.9" style="enable-background:new 0 0 1000 698.9" xml:space="preserve"><style>.st2{fill:#a6c48c}.st4{fill:#f1f2f2}.st5{fill:#f9c295}.st6{fill:#1c1c1c}.st8{fill:#4570ad}.st10{opacity:.18}.st13{fill:#fff}.st14{fill:#dd4759}.st17{opacity:.79}.st21{fill:#f4b382}</style><path d="M63 683.1S-64.4 462.5 98.9 333.2c6.1-4.8 13.3-7.9 19.6-12.5 21.3-15.5 87.5-51.8 206.5-15.4 1.1.3 2.2.7 3.3 1.1 5.4 1.8 80.6-.3 102.6-86.1 36.8-143.6 375.7-150.2 388 18.2 11 149.8 68.8 177 76.8 180.1 1.1.4 2.2.9 3.3 1.3 16.7 7.6 115.9 58.5 75.6 175.3 0 0-16.5 46.8-51.6 84.8l-860 3.1z" style="fill:#ebe0fb"/><path d="M62.2 683.1S-63 473.7 97.5 351c6-4.6 13.1-7.5 19.2-11.9 20.9-14.7 86-49.2 203-14.6 1.1.3 2.2.7 3.3 1 5.3 1.7 92.2-.3 113.8-81.7 36.1-136.3 356.3-142.5 368.5 17.3 10.8 142.1 67.6 168 75.5 170.9 1.1.4 2.2.8 3.2 1.3 16.4 7.2 114 55.5 74.3 166.4 0 0-16.2 44.4-50.7 80.5l-845.4 2.9z" style="fill:#cfb5f6"/><path class="st2" d="M101.1 680.2s31.1-96.7 113.2-57.3l42.2 23.9S335.3 680 414.7 663c79.4-16.9 59.2-40.7 153-32.1 0 0 72.2 14 120.2-28.1s77.2 30.2 77.2 30.2 2.2 20.5 46.4 9.7 70.2 37.3 70.2 37.3H101.1z"/><path class="st2" d="M805.3 652.6s-35.9-32.3-19.7-25.3c16.2 6.9 19.7 25.3 19.7 25.3zM840.7 652.6s4.3-31.7 16.2-34.7c11.9-3.1 13.5 3.4 4.3 17.4-9.2 13.9-20.5 17.3-20.5 17.3zM831 647.2s-9.7-24.7 0-33.9c9.7-9.3 7.5 16.6 0 33.9zM813.7 652.6l-19.2-26.3s2.5-18.8 10.8-7 8.4 33.3 8.4 33.3zM145.4 647.2l-35.6-42.1s-4.3-21.6 13-10.8 22.6 52.9 22.6 52.9zM127.3 647.2s-11-13.6-18.1-12.2c0 0 9.7-7.6 18.1 4.5s0 7.7 0 7.7z"/><g><circle cx="292.9" cy="248.4" r="29.3" style="fill:#fd4d53"/><path class="st4" d="M316 254.4c-.1 0-.2 0-.3-.1-21.2-14.8-50.1-12.5-50.4-12.5-.3 0-.6-.2-.6-.5s.2-.6.5-.6 29.6-2.4 51.1 12.7c.3.2.3.6.1.8-.1.1-.3.2-.4.2z"/><path class="st4" d="M298.3 268.5c-.2 0-.4-.1-.5-.3-4.3-8.3-2.7-20.3-2.6-20.8.7-5.9 2.8-9.9 6.4-12 6.2-3.6 14.2-.2 14.5-.1.3.1.4.5.3.8-.1.3-.5.4-.8.3-.1 0-7.8-3.3-13.5 0-3.3 1.9-5.2 5.7-5.9 11.1 0 .1-1.7 12.1 2.5 20.1.1.3 0 .6-.3.8.1 0 0 .1-.1.1zM285.7 274.2c-.3 0-.6-.3-.6-.6v-14c-.7-26.9 9.5-37.4 9.9-37.8.2-.2.6-.2.8 0 .2.2.2.6 0 .8-.1.1-10.2 10.6-9.5 37v14.1c0 .3-.2.5-.6.5zM272.4 261.2c-.1 0-.3 0-.4-.1-.3-.2-.3-.6-.1-.8 14-16.9 5.4-32.5 5.3-32.7-.2-.3-.1-.6.2-.8.3-.2.6-.1.8.2.1.2 9.1 16.5-5.4 34 0 .1-.2.2-.4.2z"/><path class="st5" d="m244.7 340 2.7 14.1h-22.7l3.4-17.9zM196.8 572.7s-7.2 25.6-7.2 54.3c0 28.8-1 42.2-1 42.2l14.6.1 17-71.1s5-14.4 3.2-18.7l-26.6-6.8z"/><path class="st5" d="M223.9 572.7s-.7 32.7 2.5 55.4c3.2 22.7 6.6 41.8 7.7 41.1s12.8-4.4 12.8-4.4l9.7-88.9-32.7-3.2z"/><path class="st6" d="M188.3 663.1s11.2-8.7 16.2-2.2c0 0 5.7 7.9 10 9.7 4.3 1.8 9.4 2.5 9.4 2.5s4.3 4 0 6.1c-4.3 2.2-36.7 0-36.7 0l1.1-16.1zM232.1 663s1.1-3.4 5.8-4.6c4.7-1.2 9.4 2.3 9.4 2.3s4 5.5 10.8 8.6c3.4 1.5 5.8 2 7.4 2.1 2 .1 3.9 1.2 4.8 3.1.9 1.9.9 4.1-2.5 5.6h-35.6V663z"/><path style="fill:#39648e" d="m199 473.7-4 101.2 29.7 8.2 6-102.5z"/><path class="st8" d="M210.5 479.8s-.4 22.3 4.3 42.1 6.8 53.3 6.8 53.3l37.1 4.3 6.5-105.8-54.7 6.1z"/><ellipse transform="rotate(-20.653 238.392 320.332)" class="st5" cx="238.4" cy="320.4" rx="17.3" ry="23.8"/><path d="m241.9 324 7.3-19s6.6-13.6-7.3-12.5c-13.9 1.1-32.8 2.2-36.1 11.9-3.2 9.7 14.6 30.2 14.6 30.2s16.2 9.9 18 2.7c0 0-5.8-14.3-3.6-14.8 7.1-1.6 7.1 1.5 7.1 1.5z"/><path class="st5" d="M278.8 279.2s-8.5-4.1-8.9-10.2c-.4-6.1 4.5-10.8 4.5-10.8s4-2.2 4.5 4c.5 6.1 6.9 11.5 6.9 11.5v5.6l-5.8 2.4-1.2-2.5z"/><path d="M307.3 342.4c-.6 4.7-3.3 6-3.3 6l-42.8 31 7.2 99s0 .1-.2.2c-1.3 1.3-10.4 9.7-33.7 11-25.2 1.4-38.2-11.2-38.2-11.2l1.9-45 .5-12.2-5.6 4-.2 1.8-5.9 46.8h-11.9s-.7-35.6-2.2-53.6c-1.4-18 7.2-20.5 7.2-20.5l44.4-51.2 22.7 1.5 37.2-16.9-7.9-52.9 10.4-4.7s16.6 47.9 19.4 59c1.2 3.3 1.3 5.9 1 7.9z" style="fill:#feac02"/><path class="st5" d="M177 473.7s-6.8 5.8-4.1 10.4c2.7 4.7 11.7 4.3 12.8 0 1.1-4.3 1.4-10.4 1.4-10.4H177z"/><ellipse transform="rotate(-20.653 238.392 325.296)" class="st5" cx="238.4" cy="325.3" rx="3.7" ry="5.1"/><path class="st10" d="m198.3 433.4.5-12.2-5.6 3.9-.2 1.8-3-3.6 2.8-1.9 17.7-21.5zM307.3 342.4c-.6 4.7-3.3 6-3.3 6l-42.8 31 7.2 99s0 .1-.2.2c-7.1-41.4-12.9-92.5-9.9-99.8 2.7-6.5 37.4-29.1 49-36.4z"/></g><g><path style="fill:#223861" d="M538.1 15.6h267.2v193H538.1z"/><path style="fill:#d1d3d4" d="M521.9 15.6h272.6v189.5H521.9z"/><path class="st13" d="M527.3 18.8h267.2V205H527.3z"/><path class="st14" d="M597.3 64.2h124.3v96.4H597.3z"/><path class="st13" d="M606.7 72.3h106.9v79.4H606.7z"/><path style="fill:#414042" d="M649.6 160.5h22.2v313.2h-22.2z"/><path d="m597.3 157.2 14.1 96.3c0 4.3 2.9 7.7 6.5 7.7h57.8c2.9 0 5.3-2.8 5.3-6.2l14-97.8h-97.7z" style="opacity:.29;fill:#f7b579"/><g class="st17"><path transform="rotate(-40.97 632.518 226.605)" class="st13" d="M631.4 193h2.4v67.3h-2.4z"/></g><g class="st17"><path transform="rotate(-49.018 628.751 201.006)" class="st13" d="M595.1 199.8h67.3v2.4h-67.3z"/></g><g class="st17"><path transform="rotate(-49.018 640.18 215.103)" class="st13" d="M606.5 213.9h67.3v2.4h-67.3z"/></g><g class="st17"><path transform="rotate(-49.018 655.481 228.006)" class="st13" d="M621.8 226.8h67.3v2.4h-67.3z"/></g><g class="st17"><path transform="rotate(-40.97 669.955 183.764)" class="st13" d="M668.8 154.6h2.4V213h-2.4z"/></g><g class="st17"><path transform="rotate(-40.483 646.766 215.114)" class="st13" d="M645.6 176.9h2.4v76.4h-2.4z"/></g><g class="st17"><path transform="rotate(-40.58 655.363 194.338)" class="st13" d="M654.2 151.4h2.4v85.9h-2.4z"/></g><path class="st13" d="M679.7 262.3h-66.2l-3.9-21.6-9.8-42.6-3.7-38.8 100.4.4-5.2 45.4-11.6 57.2zm-64.3-2.3h62.3l11.1-55.1 4.9-42.7-95.2-.4 3.5 36.1 9.8 42.4 3.6 19.7z"/><path style="fill:#f7b579" d="M585.6 153.8h120.7v6.7H585.6z"/><path d="M688.4 480v200.2h-55.9V480c0-12.3 8-22.8 19.1-26.5 2.8-.9 5.7-1.4 8.8-1.4 7.7 0 14.7 3.1 19.8 8.2 5.1 5 8.2 12 8.2 19.7z" style="fill:#1d498a"/><path d="M651.7 453.5v226.7h-19.1V480c0-12.4 8-22.8 19.1-26.5z" style="opacity:.27;fill:#0f0f0f"/></g><g><path class="st21" d="m451.5 575.4-10.8 85.3 18.4 2.4 12.9-35.3s12.5-36.7 9.8-52.4h-30.3zM496.3 583.1c.5 1.4 10.8 88.3 10.8 88.3h14.4s9.3-88.1 5.5-88.3c-3.7-.1-30.7 0-30.7 0z"/><path class="st6" d="M459 663.1v17.1h-43.2s-3.8-4.9 2.7-6c6.5-1.1 14.6-3.8 18.3-8.6l3.8-4.9 18.4 2.4zM502.7 680.2s1-11.9 9.4-14.6c8.4-2.7 12.2 2.8 12.7 7.3.5 4.6 0 7.3 0 7.3h-22.1z"/><path class="st14" d="m455.2 466.4-7.5 113.1h39.4l9-108.8z"/><path d="m478.3 468.8 14.2 118.5h38.3s3.5-112.3 3.1-123.7c0 0-31.9 10.4-55.6 5.2z" style="fill:#ff4d53"/><ellipse class="st21" cx="496.1" cy="317.9" rx="17.8" ry="22.1"/><path class="st21" d="M487.1 331.9V354s18.1 9.2 26.3-2.2l-4.3-24.3-22 4.4z"/><path d="M481.4 305.4s-12.7-11.6-3.1-15c11.5-4.1 21.5-7 30.8-2.2 9.3 4.9 16.3 15 10.9 28s-10.2 15.7-10.2 15.7 6.1-12.8-.8-14.8-4.3 0-4.3 0-3.7 4.2-6.2-8.6c.1 0-2.8-7-17.1-3.1z"/><path class="st21" d="m551.5 366 13.4 6.5s4.9 3.8 5.9-3.2c1.1-7 7-33 7-33s-9.2-10.7-4.3-15.8c4.9-5.2 13-4 14.6 2.2 1.6 6.2 0 15.4 0 15.4l.7 43.1s-1.8 13.5-13.1 13l-29-4.4 4.8-23.8zM451.5 336.2l-17.3-13.7-7-37.4s7.6-15.8-4.9-19.6c-12.4-3.8-5.4 19.6-5.4 19.6l-2 37.4s.4 10.9 5.2 13.7l22.1 19.4 9.3-19.4z"/><ellipse class="st21" cx="509.1" cy="317.1" rx="4.3" ry="5.4"/><path class="st8" d="m554 367.6-3.2 23.8s-.1 0-.2-.1c-1-.4-6.4-2.8-12.5-4.2-6.7-1.6-6.8 5.9-6.8 5.9l2.7 75c-5.4 5.9-20.6 9.2-20.6 9.2-39 6.5-62-8.6-62-8.6s8.6-77.7 7.6-87.5c-1.1-9.8-4.3-12.9-4.3-12.9l-16.2-10.5.6-1.1 11.8-23.4s5.4 3.8 11.9 7 24 4.2 24 4.2c4.3 16.4 26.3 2.3 26.3 2.3 11.5 1.8 14.2 4.4 14.2 4.4l26.7 16.5z"/><path d="M451.5 468.5s8.6-77.7 7.6-87.5c-1.1-9.8-4.3-12.9-4.3-12.9l-16.2-10.5.6-1.1c6.9 1.8 21.1 6.4 22.3 13.7 1.4 9.5 2.8 56.9-10 98.3z" style="opacity:.24"/><path d="m550.8 391.3-.1-.1s.1 0 .1.1z"/></g><path d="M41.7 677.6h897.2v8.4H41.7z"/></svg>