<svg xmlns="http://www.w3.org/2000/svg" width="792.839" height="545.284" viewBox="0 0 792.839 545.284"><defs><style>.a{fill:#872fdd;opacity:0.22;}.b{fill:#050707;opacity:0.67;}.c{fill:#4e6189;}.d{fill:#6b82c1;}.e{fill:#8299ce;}.f{fill:#25130f;}.g{fill:#4cc0a6;}.h{fill:#f5a98f;}.i{fill:#fcfcfc;}.j{fill:#fba594;}.k{fill:#210801;}.l{fill:#8b22e2;}.m{fill:#7a6262;}.n{fill:#595858;}.o{opacity:0.13;}.p{opacity:0.23;}.q{fill:#fba78f;}.r{fill:#2c1213;}.s{fill:#f0505d;}.t{opacity:0.24;}.u{opacity:0.15;}.v{fill:#f3a598;}.w{fill:#1f0c08;}.x{fill:#3571b8;}.y{opacity:0.08;}.z{fill:#fff;}.aa{fill:#fba919;}.ab{fill:none;stroke:#633f3b;stroke-miterlimit:10;stroke-width:3px;}.ab,.ac{opacity:0.75;}.ac{fill:#633f3b;}.ad{fill:#e0b3b9;}</style></defs><g transform="translate(-13.194 -55.573)"><g transform="translate(13.194 55.573)"><rect class="a" width="792.839" height="102.957" rx="51.479" transform="translate(0 442.327)"/><rect class="b" width="40.224" height="62.89" transform="translate(124.239 439.329)"/><rect class="b" width="159.769" height="13.598" transform="translate(64.191 491.446)"/><path class="c" d="M389.028,457.7l-2.677-.642h0c-14.421-3.41-23.555,6.44-29.328,19.4-.3.667-.585,1.342-.865,2.034-5.312,12.963-7.495,28.406-8.351,36.848-.387,3.887-.494,6.292-.494,6.292l-1.935,2.3-36.592,43.6s-56.128,1.647-111.49,2.117l-7.478.058c-40.4.3-79.015-.074-93.486-2.174-35.093-5.139-44.153-35.167-44.153-35.167L25,377.531c.568-27.384,28.332-26.931,28.332-26.931H197.378l1.8,3.887,17.9,38.783,7.725,16.744,7.165-.436,14.125-.824,16.472-1,17.353-1.054,105.42,3.344C407.312,424.839,395.024,448.566,389.028,457.7Z" transform="translate(-18.543 -121.369)"/><path class="d" d="M189.817,569.667c-40.4.3-79.015-.074-93.486-2.174-35.093-5.1-44.153-35.126-44.153-35.126L25,377.531c.568-27.384,28.332-26.931,28.332-26.931h5.3l14.528,2.759s14.1,4.159,24.312,46.813c0,0,3.723,5.287,37.268,9.817l33.561,120.1Z" transform="translate(-18.543 -121.369)"/><path class="e" d="M367.128,535.6l-36.592,43.6s-56.128,1.647-111.49,2.117c-1.408-.7-2.817-1.4-4.225-2.117-36.971-18.7-41.781-45.858-41.781-45.858s-28.332-72.55-24.362-95.784a73.178,73.178,0,0,1,1.59-7.239,15.426,15.426,0,0,1,6.251-8.648h0a28.579,28.579,0,0,1,28.159-2.248h0a12.749,12.749,0,0,1,6.589,7.206l5.057,14L211.378,482.3a99.333,99.333,0,0,0,.651,10.575c1.235,11.151,4.81,28,15.187,34.179,16.085,9.628,102.76,3.4,102.76,3.4Z" transform="translate(-40.294 -133.036)"/><path class="c" d="M368.88,545.728l48.806-42.308-9.71,45.174-21.537,14.125Z" transform="translate(-79.206 -148.328)"/><ellipse class="e" cx="13.103" cy="24.074" rx="13.103" ry="24.074" transform="translate(353.14 288.183)"/><rect class="d" width="75.919" height="147.489" transform="translate(419.25 193.972)"/><path class="c" d="M618.39,307.79h0a16.62,16.62,0,0,1,16.62,16.645V455.3H618.39Z" transform="translate(-123.222 -113.818)"/><rect class="f" width="78.752" height="10.6" transform="translate(400.365 338.793)"/><path class="g" d="M419.384,542.719s-14.24,40.809,0,63.746,41.443,20.722,41.443,20.722H576.4S614.362,612.519,592.874,585s-39.4-27.434-39.4-27.434-31.659-5.172-44.853-24.436c-1.845-2.685-3.739-5.271-5.65-7.734-19.239-24.807-57.091-25.169-75.68.124A46.22,46.22,0,0,0,419.384,542.719Z" transform="translate(-86.999 -148.902)"/><rect class="f" width="8.59" height="127.665" transform="translate(439.741 347.885)"/><ellipse class="h" cx="6.144" cy="4.085" rx="6.144" ry="4.085" transform="translate(578.333 274.02) rotate(-71.88)"/><rect class="b" width="16.62" height="40.224" transform="translate(591.858 480.904)"/><rect class="b" width="97.431" height="9.817" transform="translate(549.954 513.312)"/><rect class="e" width="119.841" height="58.681" rx="20.16" transform="translate(548.307 435.129)"/><ellipse class="h" cx="19.832" cy="24.362" rx="19.832" ry="24.362" transform="translate(545.968 243.355)"/><path class="h" d="M703.264,422.287l13.219-6.037,1.886,11.893,7.552,5.287s-9.249,13.6-20.392,12.09-4.349-10.007-4.349-10.007S706.658,427.764,703.264,422.287Z" transform="translate(-137.465 -132.951)"/><path class="h" d="M661.61,472.42s-12.082,25.12-14,30.218-7.742,6.235-7.742,6.235-13.787,0-24.551,2.644-12.247.914-12.247.914-9.059-4.942-12.09-2.471-7.832,3.986-10.2,3.014c-1.235-.511-4.118,3.986,0,4.744a33.6,33.6,0,0,0,9.257,0A9.883,9.883,0,0,0,594,522.659c3.023,1.886,4.719,3.591,8.878,2.833s8.121-1.968,9.817-2.026,30.028,2.965,30.028,2.965,14.734.758,17.757-7.174,19.634-32.3,19.634-32.3Z" transform="translate(-116.21 -142.859)"/><path class="i" d="M697.308,434.724s3.023,17.748,19.231-2.067L737.533,430s10.954-.75,15.862,7.561,11.711,18.317,11.711,18.317l-21.718,14.915,9.628,27.179,12.09,29.839-59.867,4-9.817-50.923-23.612-13,16.628-24.848S692.4,437.409,697.308,434.724Z" transform="translate(-132.645 -135.373)"/><path class="j" d="M643.772,681.313s7.182,12.84,0,17.18-12.082,7.742-12.082,7.742,2.6,4.942,15.278,4.118a33.388,33.388,0,0,0,20.59-9.06L658.5,681.28Z" transform="translate(-125.568 -179.704)"/><path class="k" d="M631.078,708.059l-12.65,8.639a5.922,5.922,0,0,0-2.668,4.662c-.058,2.108,1.046,4.349,6.16,4.077,9.438-.5,33.677-6.861,33.677-6.861l11.769-4.456a3.772,3.772,0,0,0,2.059-5.2c-1.087-2.215-3.846-5.156-5.073-5.518C662.078,702.714,633.253,719.136,631.078,708.059Z" transform="translate(-122.757 -183.603)"/><path class="j" d="M680.412,685.14s7.182,12.84,0,17.18-12.082,7.742-12.082,7.742,2.6,4.942,15.278,4.159a33.429,33.429,0,0,0,20.59-9.06l-9.059-20.013Z" transform="translate(-132.031 -180.385)"/><path class="k" d="M667.725,711.885l-12.617,8.639a5.922,5.922,0,0,0-2.669,4.661c-.058,2.108,1.046,4.349,6.161,4.118,9.447-.511,33.677-6.869,33.677-6.869l11.777-4.447a3.772,3.772,0,0,0,2.051-5.2c-1.087-2.224-3.846-5.156-5.073-5.526C698.734,706.532,669.966,722.963,667.725,711.885Z" transform="translate(-129.228 -184.284)"/><path class="l" d="M682.985,433.651l2.644,43.469,6.589,47.217s-4.513,14.726-13.771,15.483-43.807,7.552-43.807,7.552-19.074,7.931-18.325,22.1,7.561,41.731,7.561,41.731l13.787,36.238,26.059-.947-4.942-22.1,10.385,21.348,23.794-.947s-1.7-43.815-10.385-57.413c0,0-2.471-7.931,5.477-8.121s34.937,8.31,48.724,6.235,26.248-3.97,29.27-17-7.511-47.562-7.511-47.562l-12.469-33.24s-20.779-21.529-25.688-30.234-3.163-25.861-3.163-25.861H710.18l1.128,29.452-20.771,5.469-2.644-32.894Z" transform="translate(-122.852 -135.659)"/><path class="h" d="M745.438,476.46s9.941,19.124,10.88,28c0,0,.189,2.471-5.856,6.984S709.678,534.3,709.678,534.3s-10.2,1.507-12.09,0c-1.441-1.153-7.47-2.52-10.27-3.1a2.141,2.141,0,0,0-2.578,1.581c-.132.618.082,1.219,1.137,1.524,1.516.428,2.718,2.29,3.467,3.8a3.08,3.08,0,0,1-.823,3.78,8.928,8.928,0,0,1-7.141,2.043l-6.185-1.112a1.523,1.523,0,0,0-1.8,1.647,3.07,3.07,0,0,0,3.294,3.187c4.34.091,5.263,1.244,5.263,1.244s2.858,10.929,10.221,8.285,15.484-9.249,15.648-10.385,55.716-16.809,55.716-16.809,16.95-2.866,13.952-19.091-13.037-46.945-14.265-46.945C754.975,463.991,745.438,476.46,745.438,476.46Z" transform="translate(-132.924 -141.365)"/><path class="m" d="M694.226,354.79s3.541,7.083,1.491,14.545c-2.314,8.4-10.591,17.444-17.188,20.491,0,0,2.471,14.545,6.5,18.028s-5.362,0-5.362,0S669.65,399,671.725,388.607c0,0-2.471-17.386,4.942-25.7a24.659,24.659,0,0,1,14.339-7.808A20.181,20.181,0,0,1,694.226,354.79Z" transform="translate(-132.561 -122.109)"/><path class="m" d="M692.77,355.5s5.477-5.856,13.029-2.833,17.188,7.174,19.074,16.991-1.128,12.041-1.128,12.041A16.361,16.361,0,0,1,738.471,393.9s2.833,1.252,17.378,6.16,9.06,12.84,19.453,18.119,6.795,15.113.939,19.264-16.274-7.552-16.274-7.552-1.853-13.787-20.17-15.1a43.412,43.412,0,0,1-19.766,3.681c-4.382-.288-4.192-9.883-4.192-9.883s-5.5-1.359,3.764-10.806l-1.31-11.324s-19.264-9.059-19.074-18.7Z" transform="translate(-136.343 -121.581)"/><rect class="n" width="3.723" height="42.407" transform="translate(462.038 357.638) rotate(-23.73)"/><path class="h" d="M580.55,528.06l.758,4.777a7.413,7.413,0,0,0,3.4,5.609c3.212,1.886,5.666,2.471,8.121,2.076s5.287-4.118,4.719-4.7-8.458-7.758-8.458-7.758Z" transform="translate(-116.546 -152.675)"/><ellipse class="h" cx="4.423" cy="7.322" rx="4.423" ry="7.322" transform="translate(577.783 261.507)"/><g class="o" transform="translate(524.966 440.152)"><path d="M654.57,606.7c1.227,3.616,2.306,7.272,3.294,10.937s1.96,7.363,2.883,11.053,1.754,7.412,2.528,11.143,1.515,7.47,2.084,11.25c-1.235-3.624-2.314-7.272-3.294-10.946s-1.968-7.355-2.883-11.053-1.754-7.412-2.528-11.143S655.138,610.472,654.57,606.7Z" transform="translate(-654.57 -606.7)"/></g><g class="p" transform="translate(585.681 394.369)"><path d="M728.29,558.432c3.706-.947,7.412-1.738,11.176-2.471s7.486-1.384,11.242-2.01,7.528-1.178,11.3-1.647,7.569-.922,11.382-1.194c-3.706.947-7.412,1.73-11.176,2.471s-7.487,1.384-11.242,2.01-7.528,1.169-11.3,1.647S732.1,558.176,728.29,558.432Z" transform="translate(-728.29 -551.11)"/></g><g class="p" transform="translate(565.915 333.11)"><path d="M704.29,483.055c2.471-.824,4.942-1.565,7.412-2.207s5.007-1.219,7.519-1.763,5.049-1,7.6-1.4,5.1-.766,7.684-.955c-2.471.824-4.941,1.565-7.412,2.207s-5.007,1.219-7.528,1.763-5.049,1-7.594,1.4S706.876,482.866,704.29,483.055Z" transform="translate(-704.29 -476.73)"/></g><ellipse class="q" cx="20.367" cy="24.93" rx="20.367" ry="24.93" transform="translate(412.068 122.139)"/><path class="r" d="M536.589,220.747s-9.059-4.538-11.7,2.265-1.515,11.333-6.8,8.31c0,0,4.159,9.817-2.265,13.219-3.508,1.853-1.029,7.684,1.944,12.585a19.412,19.412,0,0,0,11.16,8.549c3.846,1.137,8.236,4.019-1.021,7.948-8.771,3.723-17.74-11.193-17.74-11.193s-12.84-2.388-12.84-17.872c0,0,.288-5.65,3.023-17.427s8.681-7.849,8.681-7.849,3.023-16.274,17.378-15.516c11.374.6,14.923.947,23.8,2.948a18.267,18.267,0,0,1,14.24,16.077c0,.445.074.9.107,1.367,0,0,12.082,2.125,11.7,14.66s-5.658,7.248-5.658,7.248-2.644,8.236,3.772,8.475,5.287,10.031-1.886,14.38-21.529,3.212-23.415,0,0-17.938,4.942-20.96-5.287-10.46-5.287-10.46S542.642,233.6,536.589,220.747Z" transform="translate(-101.864 -95.462)"/><ellipse class="q" cx="6.539" cy="5.345" rx="6.539" ry="5.345" transform="translate(445.528 149.741) rotate(-57.43)"/><path class="q" d="M541.338,273.65l13.252-6.3s-.873,8.771,4.851,14.7-10.517,16.521-10.517,16.521l-11.7-4.118,3.2-4.53Z" transform="translate(-108.903 -106.684)"/><path class="i" d="M533.814,285.676s-19.231,2.026-24.9,13.35-14.347,28.332-14.347,28.332l15.862,12.84,3.014,34,71.768,1.754V313.356s4.48-15.566-15.92-29.27l-14.388-1.326-11.991,10.954Z" transform="translate(-101.379 -109.402)"/><path class="s" d="M513.1,287.542l-11.786,33.4V350.16l-2.718,29.509a12.354,12.354,0,0,1-7.495,10.254l-35.983,15.245s-21.3,6.424-27.393,25.309,4.118,83.092,4.118,83.092l28.29-3.8,7.939-55.881s2.677-24.93,10.608-24.172c0,0-3.4,7.931-3.4,21.15s-.749,54.991-.749,54.991l29.46,1.6V465.413s-.445-17.3,17.715-18.761c11.53-.922,26.355-4.942,35.579-7.725a20.408,20.408,0,0,0,13.507-13.219c2.644-8.154,4.942-21.175,2.734-39.425l.906-20.392s-29.872-22.286-31.659-42.308,11.044-38.9,11.044-38.9l-11.044-1.894-5.955,37.4-25.3.749,10.163-35.258Z" transform="translate(-89.244 -109.407)"/><g class="t" transform="translate(413.007 272.84)"><path d="M518.63,403.55q8.063.107,16.1.535c5.362.255,10.707.609,16.077.98s10.707.824,16.044,1.351,10.707,1.1,16.011,1.812q-8.063-.1-16.109-.527c-5.362-.264-10.707-.618-16.068-.988s-10.707-.824-16.044-1.351S523.959,404.258,518.63,403.55Z" transform="translate(-518.63 -403.55)"/></g><g class="t" transform="translate(414.72 216.684)"><path d="M520.71,335.567c3.113-.189,6.21-.222,9.315-.189s6.2.132,9.3.272,6.185.346,9.274.634,6.177.6,9.257,1.087c-3.113.2-6.218.222-9.315.189s-6.2-.132-9.3-.272-6.193-.346-9.282-.634S523.782,336.053,520.71,335.567Z" transform="translate(-520.71 -335.366)"/></g><g class="u" transform="translate(389.427 292.087)"><path d="M490,451.076c3.418-2.314,6.918-4.48,10.443-6.589s7.091-4.176,10.665-6.2,7.2-3.986,10.847-5.889,7.322-3.764,11.069-5.477c-3.418,2.314-6.91,4.48-10.443,6.589s-7.083,4.176-10.666,6.2-7.2,3.986-10.847,5.88S493.739,449.363,490,451.076Z" transform="translate(-490 -426.92)"/></g><path class="q" d="M487.852,337.83l-12.09,15.484-29.081,12.659h0s-9.471,6.737,5.065,10.888,16.085.066,32.7-10.32,18.786-19.272,18.786-19.272Z" transform="translate(-92.396 -119.117)"/><path class="q" d="M572.4,327.74s-4.118,12.84-9.249,20.392-22.476,24.551-22.476,24.551c-8.689,11.9-32.672,6.045-32.672,6.045s-12.906-.774-25.976-1.73c-11.934-.873-24-1.894-26.52-2.619a14.812,14.812,0,0,1-1.482-.5,11.251,11.251,0,0,1-4.587-3.154,5.516,5.516,0,0,1-.733-1.062s.354,0,.939-.049c2.66-.148,10.13-.717,11.53-2.471,1.647-2.141,0-4.645-5.263-6.1s-1.837-3.08-1.837-3.08a29.8,29.8,0,0,0,4.439-.535,48.954,48.954,0,0,0,6.655-1.73c6.589-2.191,17.567,10.575,17.567,10.575l.445-.049c3.789-.379,30.613-3.13,36.683-5.18,6.589-2.215,15.747-11.011,15.747-11.011l13.6-22.278Z" transform="translate(-93.287 -117.337)"/><rect class="n" width="3.723" height="42.407" transform="matrix(0.79, 0.613, -0.613, 0.79, 377.744, 223.133)"/><rect class="b" width="16.62" height="40.224" transform="translate(389.411 478.565)"/><rect class="b" width="97.431" height="12.461" transform="translate(348.256 509.161)"/><path class="g" d="M368.374,554.12s-14.24,40.8,0,63.746,41.4,20.68,41.4,20.68H525.392s37.951-14.676,16.422-42.184-39.4-27.442-39.4-27.442-31.692-5.164-44.869-24.428c-1.837-2.685-3.731-5.271-5.642-7.734-19.239-24.807-57.091-25.177-75.688.115a46.442,46.442,0,0,0-7.841,17.246Z" transform="translate(-78 -150.905)"/><rect class="f" width="248.148" height="12.206" transform="translate(247.02 260.395)"/><ellipse class="v" cx="23.036" cy="30.218" rx="23.036" ry="30.218" transform="translate(153.989 128.103) rotate(-10.24)"/><path class="w" d="M216.787,212.8s12.848,3.681,7.561,16.571-23.654,8.763-15.9,24.914c12.617,26.174,15.451,38.445-.5,41.608C191.256,299.187,187.3,270.97,187.3,270.97S183.555,224.133,216.787,212.8Z" transform="translate(-47.152 -97.061)"/><ellipse class="v" cx="5.485" cy="6.984" rx="5.485" ry="6.984" transform="matrix(0.789, -0.614, 0.614, 0.789, 152.405, 158.518)"/><path class="w" d="M223.13,212.524s12.041-6.185,26.4,8.549,20.013,51.367,20.013,51.367,1.7,28.76-13.762,23.448c-21.735-7.47-5.872-20.433-5.872-20.433s10.575-10.2,3.772-27.566S227.619,229.7,227.619,229.7Z" transform="translate(-53.495 -96.785)"/><path class="v" d="M223.684,284.4l18.885,1.507v16.052h5.082l13.993,22.1-1.507,16.81-10.666,9.578L225.2,337.464l-8.689-13.976,2.833-14.693,4.513-6.375Z" transform="translate(-52.327 -109.691)"/><path class="v" d="M509.573,539.351s5.287,4.159,18.506,0S548.1,528.018,548.1,528.018s9.447-3.434,5.666,6.589-20.03,18-20.03,21.364-1.507,16.62-14,14.355-21.5-17.716-21.5-17.716Z" transform="translate(-102.026 -152.567)"/><path class="v" d="M477.557,513.22s2.817,6.111,16.472,8.425,22.986-.972,22.986-.972,9.974,1.235,2.042,8.45-26,6.877-27.549,9.883-8.911,14.108-18.943,6.416-11.086-25.606-11.086-25.606Z" transform="translate(-95.541 -150.057)"/><path class="x" d="M311.59,432.019l5.658,41.55,43.939-9.447s9.7-4.942,24.807,7.561,53.632,45.3,53.632,45.3l18.9-20.746L409.8,441.054s-15.879-20.359-42.7-16.175S311.59,432.019,311.59,432.019Z" transform="translate(-69.1 -134.373)"/><path class="x" d="M218.964,451.067s68.358-4.118,71.76-10.2,14.718,32.483,14.718,32.483,46.08,3.023,71.381,13.6,90.653,35.126,90.653,35.126l-12.782,22.286-95.5-20.952a12.739,12.739,0,0,0-1.853-.28c-7.676-.651-59.76-3.871-77.236,3.822-10.855,4.777-22.937,4.192-31.239,2.841a26.923,26.923,0,0,1-19.4-13.77C223.757,505.432,217.7,485.864,218.964,451.067Z" transform="translate(-52.73 -137.179)"/><g class="y" transform="translate(189.418 315.773)"><path d="M247.15,463.01c3.706-.947,7.412-1.738,11.176-2.471s7.486-1.392,11.242-2.018,7.519-1.17,11.3-1.647,7.569-.922,11.382-1.194c-3.706.947-7.412,1.73-11.176,2.471s-7.486,1.384-11.242,2.01-7.528,1.169-11.3,1.647S250.963,462.73,247.15,463.01Z" transform="translate(-247.15 -455.68)"/></g><path class="z" d="M218.95,312.556l33.421,35.472L248.08,305.72l43.766,39.285v76.3l-57.067,7.931Z" transform="translate(-52.757 -113.452)"/><path class="aa" d="M214.98,307.79,182.308,326.3s-9.447-.214-10.007,12.272-4.118,54.769-4.118,54.769-5.856,23.983,17.946,27.179l3.583,49.292h53.632l-3.2-57.223-12.7-28.686S212.312,326.774,214.98,307.79Z" transform="translate(-43.689 -113.818)"/><path class="v" d="M415.53,363.7l14.734-1.392s19.009-6.292,19.387-4.274-8.812,5.666-8.812,5.666,14.825-1.45,16.192.189,3.83,5.609.824,8.689c-3.212,3.294-19.033,3.97-19.033,3.97L416.041,374.9Z" transform="translate(-87.436 -122.611)"/><path class="aa" d="M247.15,305.583s18.35,38.906,27.179,66.859,8.483,49.663,8.483,49.663l8.31,32.672,28.513-2.644-7.544-78.785s46.838,4.942,62.7-1.318l25.49-4.349-1.128-16.8-42.868,1.886s-13.408,1.318-23.061-4.53-52.306-37.959-52.306-37.959S264.528,302.75,247.15,305.583Z" transform="translate(-57.732 -113.316)"/><path class="v" d="M264.733,395.748c-3.459,1.293,9.883-2.306,9.883-2.265,1.326.947,5.386-7.569,5.386-8.327s4.118-2.6,3.961,1.392a41.91,41.91,0,0,1-1.647,8.631s6.7.288,8.121-1.507,4.06.189,4.727,2.075,3.681,10.616-1.894,12.98-15.953,2.52-15.953,2.52l-11.711-.3L261.9,395.542Z" transform="translate(-60.334 -127.273)"/><path class="aa" d="M198.727,404.352l50.42-8.442L255,413.79,188.91,436.077S171.549,411.525,198.727,404.352Z" transform="translate(-46.494 -129.363)"/><g class="y" transform="translate(136.93 268.829)"><path d="M183.42,406c3.7-.947,7.412-1.73,11.168-2.471s7.486-1.384,11.242-2.01,7.528-1.17,11.308-1.647,7.561-.922,11.374-1.194c-3.7.947-7.412,1.738-11.168,2.471s-7.495,1.384-11.25,2.01-7.519,1.169-11.3,1.647S187.233,405.73,183.42,406Z" transform="translate(-183.42 -398.68)"/></g><g class="y" transform="translate(152.411 244.516)"><path d="M203.043,369.16c.346,2.323.519,4.653.642,6.976s.165,4.653.181,6.984-.049,4.653-.181,6.976-.3,4.653-.642,6.984c-.338-2.331-.519-4.653-.642-6.984s-.165-4.653-.181-6.976.049-4.653.181-6.984S202.705,371.5,203.043,369.16Z" transform="translate(-202.217 -369.16)"/></g><g class="y" transform="translate(244.277 236.775)"><path d="M313.76,359.76c1.235,2,2.314,4.069,3.344,6.16s1.993,4.209,2.932,6.342,1.787,4.291,2.586,6.482,1.565,4.4,2.166,6.671c-1.227-2-2.314-4.069-3.344-6.16s-1.993-4.209-2.924-6.342-1.787-4.3-2.586-6.482S314.369,362.033,313.76,359.76Z" transform="translate(-313.76 -359.76)"/></g><g class="y" transform="translate(202.983 192.161)"><path d="M263.62,305.59q2.52,7.9,4.736,15.862c1.5,5.3,2.9,10.633,4.291,15.969s2.693,10.707,3.937,16.06,2.43,10.756,3.492,16.175q-2.52-7.882-4.736-15.854c-1.5-5.3-2.907-10.641-4.291-15.969s-2.693-10.707-3.937-16.068S264.682,311.009,263.62,305.59Z" transform="translate(-263.62 -305.59)"/></g><g class="y" transform="translate(161.169 199.762)"><path d="M212.85,314.82q2.52,7.882,4.736,15.854c1.5,5.3,2.907,10.641,4.3,15.969s2.693,10.707,3.937,16.06,2.471,10.764,3.492,16.184q-2.52-7.89-4.736-15.862c-1.5-5.3-2.907-10.633-4.291-15.969s-2.693-10.707-3.937-16.06S213.921,320.239,212.85,314.82Z" transform="translate(-212.85 -314.82)"/></g><g class="y" transform="translate(224.828 312.685)"><path d="M290.149,451.93c.642,2.265,1.128,4.546,1.557,6.836s.782,4.587,1.1,6.893.568,4.62.749,6.943.313,4.653.288,7c-.651-2.257-1.137-4.538-1.565-6.828s-.782-4.6-1.1-6.9-.56-4.612-.741-6.943S290.116,454.285,290.149,451.93Z" transform="translate(-290.144 -451.93)"/></g><g class="y" transform="translate(142.399 290.382)"><path d="M190.06,441.182q6.589-2.471,13.317-4.695c4.464-1.491,8.952-2.883,13.449-4.258s9.018-2.677,13.556-3.912,9.06-2.413,13.688-3.467q-6.589,2.471-13.317,4.694c-4.464,1.491-8.952,2.883-13.449,4.258s-9.018,2.677-13.556,3.912S194.647,440.128,190.06,441.182Z" transform="translate(-190.06 -424.85)"/></g><path class="z" d="M487.19,373.023l-1.12,10.789c-11.934-.873-24-1.894-26.52-2.619a14.82,14.82,0,0,1-1.482-.5,11.251,11.251,0,0,1-4.587-3.154l.206-1.112c2.66-.148,10.13-.717,11.53-2.471,1.647-2.141,0-4.645-5.263-6.1s-1.837-3.08-1.837-3.08a29.807,29.807,0,0,0,4.439-.535,48.952,48.952,0,0,0,6.655-1.73c6.589-2.191,17.567,10.575,17.567,10.575Z" transform="translate(-94.13 -123.425)"/><ellipse class="l" cx="39.467" cy="36.633" rx="39.467" ry="36.633" transform="translate(466.656)"/><ellipse class="z" cx="32.524" cy="30.193" rx="32.524" ry="30.193" transform="translate(473.599 6.44)"/><rect class="f" width="14.726" height="1.771" transform="translate(506.122 36.032)"/><rect class="f" width="22.336" height="1.17" transform="translate(506.122 14.289) rotate(90)"/><ellipse class="f" cx="2.718" cy="2.528" rx="2.718" ry="2.528" transform="translate(503.404 34.105)"/><rect class="f" width="137.038" height="15.105" transform="translate(216.926 76.693)"/><path class="s" d="M392.258,155.238l-69.495-.041s-4.052-26.182,15.171-46.846q.329-.371.692-.741h40.035s.642.889,1.647,2.471C385.093,117.411,398.18,139.7,392.258,155.238Z" transform="translate(-71.008 -78.504)"/><path class="ab" d="M351.477,103.218s-6.786-29.468,11.53-26.824,11.53,26.824,11.53,26.824" transform="translate(-75.919 -72.968)"/><path class="ac" d="M383.642,110.064l-15.821,21.109-6.408,8.541-5.93-9.224L341.26,108.351q.329-.371.692-.741h40.035S382.629,108.5,383.642,110.064Z" transform="translate(-74.334 -78.504)"/><circle class="ad" cx="8.17" cy="8.17" r="8.17" transform="translate(278.86 49.498)"/></g></g></svg>