<svg xmlns="http://www.w3.org/2000/svg" width="520.214" height="536.678" viewBox="0 0 520.214 536.678"><defs><style>.a,.k{fill:#2d2d2d;}.a{opacity:0.05;}.b{fill:#029e77;}.c,.o,.p{fill:#fff;}.d{fill:#fa0;}.e{opacity:0.52;}.f{fill:#2bd284;}.g{fill:#2cd286;}.h{fill:#2dd283;}.i{fill:#019d76;}.j{fill:#d1b3f4;opacity:0.87;}.l{fill:#f1f2f2;}.m,.n{fill:#a062dd;}.m{opacity:0.31;}.o{opacity:0.84;}.p{opacity:0.18;}.q{fill:#ff4f5b;}.r{fill:#ecf6ff;}.s{opacity:0.57;}.t{fill:none;stroke:#fff;stroke-linecap:round;stroke-miterlimit:10;stroke-width:5px;stroke-dasharray:11.95 11.95;}.u{fill:#e59507;}</style></defs><g transform="translate(-63.786 -82)"><g transform="translate(63.786 82)"><ellipse class="a" cx="135.86" cy="17.373" rx="135.86" ry="17.373" transform="translate(144.406 501.931)"/><path class="b" d="M302.075,350.186S62.884,432.044,0,131.594C0,131.594,279.924,99.242,302.075,350.186Z" transform="translate(0 -50.677)"/><path class="c" d="M291.778,352.907q-35.975-24.3-71.436-49.31c-11.857-8.284-23.617-16.708-35.431-25.046l-35.272-25.266L114.531,227.8c-11.662-8.552-23.372-17.05-34.985-25.657Q44.6,176.411,10.18,149.96q35.975,24.3,71.473,49.3c11.857,8.284,23.617,16.708,35.431,25.046L152.3,249.558l35.132,25.474c11.662,8.552,23.366,17.05,34.979,25.657Q257.349,326.462,291.778,352.907Z" transform="translate(-3.961 -58.352)"/><path class="c" d="M385.662,308.6c.342,7.673.788,15.272,1.43,22.8a220.536,220.536,0,0,0,2.963,22.395A111.791,111.791,0,0,0,396.09,375.3a52.427,52.427,0,0,0,12.266,18.638c-6.756-3.775-11.961-10.2-15.48-17.147a71.472,71.472,0,0,1-4.459-10.843,113.952,113.952,0,0,1-2.828-11.289c-.66-3.824-1.222-7.66-1.546-11.515s-.513-7.709-.476-11.564a116.1,116.1,0,0,1,2.1-22.981Z" transform="translate(-149.251 -120.082)"/><path class="c" d="M216.42,418.895a46.183,46.183,0,0,1,7.5-7.331c1.35-1.124,2.8-2.1,4.215-3.146s2.932-1.906,4.4-2.865,3.024-1.765,4.563-2.608,3.122-1.588,4.679-2.382,3.2-1.423,4.8-2.132,3.219-1.381,4.887-1.979l4.93-1.778,5.015-1.515c1.674-.495,3.354-.965,5.052-1.35s3.39-.812,5.095-1.185c3.4-.733,6.86-1.222,10.287-1.772,3.464-.36,6.927-.709,10.385-.861-3.3,1.148-6.628,2.077-9.933,3.054l-4.93,1.533c-1.637.531-3.311.91-4.93,1.484-3.232,1.155-6.555,1.979-9.774,3.207l-4.844,1.655-4.789,1.784c-1.613.55-3.195,1.179-4.771,1.833s-3.17,1.222-4.716,1.943-3.14,1.319-4.692,2.028-3.054,1.436-4.63,2.156c-3.054,1.527-6.109,3.054-9.065,4.747a86.267,86.267,0,0,0-8.736,5.48Z" transform="translate(-84.213 -150.974)"/><path class="c" d="M223.217,203.1c.641,7.331,1.423,14.57,2.444,21.753a195.162,195.162,0,0,0,4.105,21.222,101.985,101.985,0,0,0,3.054,10.275,83.593,83.593,0,0,0,4.075,9.884,60.093,60.093,0,0,0,12.59,17.441,42.9,42.9,0,0,1-15.645-15.736,75.8,75.8,0,0,1-8.436-20.77c-.874-3.629-1.643-7.27-2.169-10.947a108.761,108.761,0,0,1-1.057-11.063,102.36,102.36,0,0,1,1.039-22.059Z" transform="translate(-86.38 -79.03)"/><path class="c" d="M101.19,308.96a89.569,89.569,0,0,1,15.015-10.953,98.967,98.967,0,0,1,16.879-8.021,58.481,58.481,0,0,1,18.546-3.7,31.863,31.863,0,0,1,9.505,1.222,19.64,19.64,0,0,1,8.18,4.667c-5.59-2.816-11.607-3.054-17.453-2.346a64.071,64.071,0,0,0-8.705,1.778c-2.871.764-5.73,1.662-8.552,2.682s-5.638,2.083-8.424,3.256-5.553,2.407-8.345,3.623C112.3,303.67,106.8,306.315,101.19,308.96Z" transform="translate(-39.375 -111.395)"/><path class="c" d="M95.244,158.93a50.776,50.776,0,0,0-3.934,10.257,25.657,25.657,0,0,0-.611,10.128,20.9,20.9,0,0,0,1.3,4.844,27.184,27.184,0,0,0,2.3,4.624,71.25,71.25,0,0,0,6.653,8.809,25.327,25.327,0,0,1-9.542-6.671,20.984,20.984,0,0,1-5.223-10.941A21.381,21.381,0,0,1,87.95,168,22.688,22.688,0,0,1,95.244,158.93Z" transform="translate(-33.454 -61.843)"/><path class="c" d="M18,194.678a18.228,18.228,0,0,1,4.716-8.455,17.374,17.374,0,0,1,8.839-4.979c.428-.085.849-.214,1.283-.257l1.313-.079a11.161,11.161,0,0,1,2.6.061c.855.134,1.71.238,2.541.422a17.033,17.033,0,0,1,2.382.861,12.046,12.046,0,0,1,1.155.476l1.063.611c.709.428,1.393.874,2.065,1.32a30.139,30.139,0,0,1,3.451,3.384c-1.613-.379-3.054-.947-4.472-1.4-.739-.171-1.466-.348-2.175-.538l-1.032-.275c-.348-.079-.715-.092-1.063-.159-.709-.1-1.405-.208-2.089-.342l-2.059-.055a8.845,8.845,0,0,0-2.01.11l-1,.079a7.566,7.566,0,0,0-.977.226,21.442,21.442,0,0,0-7.5,3.256A52.687,52.687,0,0,0,18,194.678Z" transform="translate(-7.004 -70.376)"/><path class="d" d="M427.2,418.6S101.938,387.238,188.348,0C188.348,0,535.127,111.388,427.2,418.6Z" transform="translate(-67.607)"/><path class="c" d="M423.392,415.272q-29.365-47.789-57.734-96.183C356.122,303,346.775,286.81,337.343,270.67l-28.058-48.577-27.752-48.736c-9.163-16.3-18.406-32.548-27.49-48.907Q226.682,75.481,200.28,26q29.371,47.814,57.765,96.183c9.536,16.084,18.876,32.279,28.314,48.418l28.021,48.583,27.746,48.724c9.163,16.3,18.406,32.548,27.49,48.9Q396.984,365.766,423.392,415.272Z" transform="translate(-77.933 -10.117)"/><path class="c" d="M541.285,414c-3.665,9.212-7.215,18.375-10.483,27.6a284.954,284.954,0,0,0-8.473,27.942,144.221,144.221,0,0,0-4.38,28.546,67.782,67.782,0,0,0,4.484,28.485c-5.938-8.051-8.638-18.387-9.066-28.449a92.818,92.818,0,0,1,.544-15.144,147.779,147.779,0,0,1,2.712-14.838c1.271-4.857,2.682-9.658,4.331-14.38s3.513-9.346,5.608-13.867A150.847,150.847,0,0,1,541.285,414Z" transform="translate(-199.723 -161.095)"/><path class="c" d="M288.94,470.77a59.308,59.308,0,0,1,12.737-4.606c2.193-.611,4.417-.977,6.64-1.454s4.472-.672,6.72-1.014,4.508-.47,6.762-.641,4.521-.2,6.787-.3,4.521.031,6.781.049,4.527.092,6.775.269l6.756.538,6.72.892c2.236.312,4.459.66,6.671,1.112s4.423.855,6.622,1.326c4.4.953,8.73,2.224,13.055,3.409,4.276,1.423,8.552,2.865,12.706,4.539-4.5-.409-8.913-1.1-13.323-1.723l-6.622-.825c-2.211-.25-4.38-.69-6.591-.88-4.423-.373-8.772-1.179-13.189-1.436l-6.585-.641-6.591-.452c-2.193-.22-4.392-.318-6.591-.4s-4.4-.226-6.591-.232-4.4-.122-6.6-.116-4.4.043-6.6.061c-4.4.177-8.815.305-13.207.745A111.336,111.336,0,0,0,288.94,470.77Z" transform="translate(-112.432 -180.051)"/><path class="c" d="M409.14,202.78c-3.164,8.98-6.109,17.911-8.766,26.879a254.078,254.078,0,0,0-6.5,27.172A131.206,131.206,0,0,0,392,270.576a108.6,108.6,0,0,0-.483,13.806,77.527,77.527,0,0,0,5.443,27.27c-5.73-7.667-8.925-17.257-10.012-26.879a98.493,98.493,0,0,1,1.142-28.925c.91-4.728,1.949-9.432,3.3-14.05a140.836,140.836,0,0,1,4.661-13.592A131.273,131.273,0,0,1,409.14,202.78Z" transform="translate(-150.334 -78.905)"/><path class="c" d="M214.8,275.173a115.762,115.762,0,0,1,23.525-4.887,128.552,128.552,0,0,1,24.154-.434A75.829,75.829,0,0,1,286.3,275.4a41.41,41.41,0,0,1,10.538,6.506,25.528,25.528,0,0,1,7.123,9.884c-5.083-6.3-12.065-9.774-19.292-12.077a80.391,80.391,0,0,0-11.191-2.584c-3.787-.641-7.63-1.106-11.5-1.411s-7.752-.562-11.656-.666-7.819-.141-11.753-.2C230.713,274.88,222.815,275.051,214.8,275.173Z" transform="translate(-83.583 -104.86)"/><path class="c" d="M287.971,85.16a65.976,65.976,0,0,0-10.128,9.976,33.018,33.018,0,0,0-6.152,11.607,27.043,27.043,0,0,0-1.069,6.39,35.1,35.1,0,0,0,.244,6.677,92.411,92.411,0,0,0,3.128,13.922,32.719,32.719,0,0,1-7.642-12.932,27.178,27.178,0,0,1-.312-15.669,27.655,27.655,0,0,1,8.485-13.164A29.322,29.322,0,0,1,287.971,85.16Z" transform="translate(-103.131 -33.137)"/><path class="c" d="M181,87.448a23.513,23.513,0,0,1,10.073-7.428,22.413,22.413,0,0,1,13.061-1.142c.55.128,1.112.2,1.649.385l1.582.611a14.392,14.392,0,0,1,3.024,1.46c.935.611,1.888,1.222,2.767,1.833a18,18,0,0,1,2.346,2.285,14.358,14.358,0,0,1,1.106,1.179l.91,1.313c.611.886,1.173,1.772,1.723,2.657a37.9,37.9,0,0,1,2.254,5.822c-1.692-1.3-3.054-2.731-4.514-4.026q-1.173-.9-2.266-1.8l-1.081-.91c-.367-.287-.794-.5-1.167-.764-.782-.495-1.539-1-2.272-1.515L207.8,86.245a11.724,11.724,0,0,0-2.444-.941l-1.222-.44a11.142,11.142,0,0,0-1.271-.257,27.88,27.88,0,0,0-10.574-.171A68.419,68.419,0,0,0,181,87.448Z" transform="translate(-70.43 -30.502)"/><path class="b" d="M657.888,162.224s12.3-41.742,13.354-72.695c1.161-34.118-4.148-45.517-23.14-41.18-20.636,4.71-2.162,42.682-1.692,59.561S657.888,162.224,657.888,162.224Z" transform="translate(-248.396 -18.472)"/><g class="e" transform="translate(406.299 48.443)"><line class="f" x1="3.36" y1="89.317" transform="translate(0.047)"/><path class="g" d="M668.51,168.617c-.66-7.428-1.136-14.863-1.552-22.3-.226-3.714-.385-7.434-.574-11.155l-.47-11.167-.373-11.167c-.086-3.72-.214-7.447-.269-11.167-.147-7.453-.226-14.9-.122-22.358.66,7.428,1.136,14.863,1.552,22.3.226,3.72.385,7.441.574,11.161l.47,11.161.367,11.167c.092,3.72.214,7.447.269,11.173C668.528,153.711,668.608,161.164,668.51,168.617Z" transform="translate(-665.103 -79.3)"/></g><path class="h" d="M656.51,179.508s2.211-60.2,14.429-101.284c13.476-45.291,25.468-57.924,48.492-43.88,25.009,15.272-15.938,56.983-23.977,78.932S656.51,179.508,656.51,179.508Z" transform="translate(-255.46 -11.247)"/><path class="i" d="M660.36,188.653q4.967-14.661,10.257-29.194c1.741-4.85,3.543-9.682,5.315-14.521l5.418-14.49,5.5-14.453c1.869-4.808,3.7-9.627,5.6-14.423q5.638-14.4,11.607-28.711Q699.09,87.521,693.8,102.054c-1.741,4.857-3.543,9.682-5.315,14.527l-5.418,14.49-5.5,14.453c-1.833,4.8-3.7,9.621-5.6,14.417Q666.31,174.352,660.36,188.653Z" transform="translate(-256.958 -28.351)"/><path class="d" d="M685.235,146.82c-2.987,5.156-6.109,10.208-9.261,15.272l-10.519,14.337-21.008,28.711-21.014,28.711-10.5,14.3c-3.879,4.508-7.746,9.023-11.741,13.439,3.012-5.144,6.145-10.2,9.273-15.272l10.507-14.35,21.008-28.711,21.014-28.711,10.495-14.356C677.355,155.745,681.222,151.206,685.235,146.82Z" transform="translate(-233.934 -57.13)"/><path class="d" d="M731.45,127.953S737.223,93.133,745.3,85.8s26.567-3.922,12,15.687S731.45,127.953,731.45,127.953Z" transform="translate(-284.621 -32.002)"/><path class="d" d="M711,172.418s36.042-37.789,48.333-22.309S728.636,153.48,711,172.418Z" transform="translate(-276.663 -56.961)"/><path class="d" d="M707.826,156.934s10.073-24.13-4.41-35.162S704.742,143.6,707.826,156.934Z" transform="translate(-271.37 -46.517)"/><path class="d" d="M672,223.223s43.592-37.93,61.522-28.284-3.555,17.538-3.555,17.538S699.007,217.731,672,223.223Z" transform="translate(-261.488 -75.243)"/><path class="d" d="M668.122,196.968s17.538-54.454-3.745-48.48S666.821,154.322,668.122,196.968Z" transform="translate(-255.087 -57.601)"/><path class="j" d="M155.375,133.982s187.48-165.317,252.9-8.9S592.992,353.735,521.134,424.6,278.407,560.982,229.17,502.692,79.559,421.207,77.341,302.439,155.375,133.982,155.375,133.982Z" transform="translate(-30.077 -22.49)"/><rect class="k" width="233.644" height="425.754" rx="35.33" transform="translate(169.868 65.645)"/><rect class="l" width="228.109" height="412.937" rx="37.65" transform="translate(172.635 71.296)"/><path class="k" d="M401.54,110.71h82.793v7.508a9.8,9.8,0,0,1-9.817,9.829H411.345a9.8,9.8,0,0,1-9.8-9.829Z" transform="translate(-156.247 -43.079)"/><rect class="m" width="362.729" height="180.082" rx="25.68" transform="translate(105.902 203.197)"/><path class="n" d="M542.15,293.747V459.034a15.687,15.687,0,0,1-15.687,15.694H161.706A15.687,15.687,0,0,1,146,459.034V293.747a15.687,15.687,0,0,1,15.687-15.687H526.445a15.687,15.687,0,0,1,15.706,15.687Z" transform="translate(-56.811 -108.198)"/><rect class="o" width="112.06" height="15.125" rx="7.563" transform="translate(280.266 234.291)"/><rect class="o" width="163.044" height="15.125" rx="7.563" transform="translate(280.266 286.027)"/><rect class="o" width="51.827" height="15.125" rx="7.563" transform="translate(280.266 260.162)"/><rect class="o" width="71.717" height="15.125" rx="7.563" transform="translate(345.539 260.162)"/><rect class="p" width="398.289" height="17.789" transform="translate(87.002 180.503)"/><rect class="p" width="398.289" height="4.692" transform="translate(88.126 206.557)"/><rect class="p" width="26.891" height="26.891" transform="translate(444.404 327.86)"/><rect class="p" width="26.891" height="26.891" transform="translate(430.958 314.415)"/><circle class="q" cx="54.631" cy="54.631" r="54.631" transform="translate(410.952 132.457)"/><path class="r" d="M771.824,298.216l-.611,13.055H730.73V299.053l9.053-6.353q1.992-1.356,7.434-5.864t7.1-6.915a8.8,8.8,0,0,0,1.655-5.064,5.7,5.7,0,0,0-1.448-4.068,4.954,4.954,0,0,0-3.788-1.539q-5.864,0-6.573,9.194l-13.439-2.608q1.484-9.389,7.331-13.971a21.87,21.87,0,0,1,13.855-4.575q8.65,0,14.124,4.637a15.443,15.443,0,0,1,5.5,12.352,17.794,17.794,0,0,1-2.981,9.774q-2.975,4.637-17.435,14.185Z" transform="translate(-284.341 -100.113)"/><circle class="c" cx="3.781" cy="3.781" r="3.781" transform="translate(168.487 234.297)"/><g class="s" transform="translate(110.777 194.627)"><circle class="t" cx="74.363" cy="74.363" r="74.363"/></g><circle class="u" cx="19.328" cy="19.328" r="19.328" transform="translate(166.783 293.59)"/><path class="d" d="M268.026,331.25s-35.859,2.8-37.539,42.023c0,0-3.36,35.3-12.89,47.038,0,0-16.805,21.851,7.288,22.969h87.967s18.491-1.118,5.6-20.159c0,0-14.771-29.053-13.391-47a38.742,38.742,0,0,0-.66-11.332C301.827,353.12,293.659,332.453,268.026,331.25Z" transform="translate(-82.453 -128.896)"/></g></g></svg>