<svg xmlns="http://www.w3.org/2000/svg" width="578" height="501.835" viewBox="0 0 578 501.835"><defs><style>.a{fill:#c5b7f7;}.a,.d{opacity:0.44;}.b,.c{fill:#e2cdf7;}.b{font-size:8px;font-family:MyriadPro-Regular, Myriad Pro;}.c{opacity:0.79;}.d{fill:#8155ff;}.e{fill:#e6e7e8;}.f{fill:#fff;}.g{fill:#8922e1;}.h{fill:#a062dd;}.i{fill:#fba78f;}.j{fill:#182044;}.k{fill:#fbfdff;}.l{fill:#33292a;}.m{fill:#2b66a0;}.n{fill:#3470b9;}.o{fill:#fba81e;}.p{fill:#282727;}</style></defs><g transform="translate(-0.016 0.002)"><g transform="translate(0.016 -0.002)"><path class="a" d="M162.347,372.5s-237.422-105.683-138-208.155S181.1,60.012,240.464,17.679,414.021,79.2,416.754,160.506s43.02,156.415-8.705,202.988-125.214,61.341-175.961,42.288S162.347,372.5,162.347,372.5Z" transform="translate(-0.016 -1.999)"/><text class="b" transform="translate(307.016 228.894)"><tspan x="0" y="0">E2CDF7</tspan></text><path class="c" d="M230.357,364.591s-237.422-105.683-138-208.162S249.119,52.105,308.474,9.78,482.031,71.293,484.771,152.6s43.012,156.415-8.713,202.988S350.845,416.921,300.1,397.875,230.357,364.591,230.357,364.591Z" transform="translate(-17.249 0.002)"/><rect class="d" width="377.62" height="95.185" transform="translate(72.148 259.829)"/><rect class="e" width="378.001" height="236.936" transform="translate(72.753 102.608)"/><rect class="f" width="70.532" height="46.223" transform="translate(96.719 148.143)"/><rect class="f" width="70.532" height="46.223" transform="translate(183.005 148.143)"/><rect class="f" width="67.792" height="46.223" transform="translate(270.656 148.143)"/><rect class="f" width="68.666" height="46.223" transform="translate(356.935 148.143)"/><rect class="f" width="70.532" height="46.223" transform="translate(97.309 210.926)"/><rect class="f" width="70.532" height="46.223" transform="translate(183.594 210.926)"/><rect class="f" width="67.792" height="46.223" transform="translate(271.246 210.926)"/><rect class="f" width="68.666" height="46.223" transform="translate(357.532 210.926)"/><rect class="f" width="70.532" height="46.223" transform="translate(97.309 273.708)"/><rect class="f" width="70.532" height="46.223" transform="translate(183.594 273.708)"/><rect class="f" width="67.792" height="46.223" transform="translate(271.246 273.708)"/><rect class="f" width="68.666" height="46.223" transform="translate(357.532 273.708)"/><rect class="g" width="378.001" height="34.583" transform="translate(72.701 102.653)"/><circle class="g" cx="14.551" cy="14.551" r="14.551" transform="translate(118.975 219.489)"/><path class="f" d="M172.551,319.618l-6.861-8.534,2.329-1.874,4.778,5.943,11.834-11.834,2.105,2.113Z" transform="translate(-41.996 -76.857)"/><circle class="g" cx="14.551" cy="14.551" r="14.551" transform="translate(203.715 219.489)"/><path class="f" d="M286.051,319.618l-6.861-8.534,2.329-1.874,4.778,5.943,11.834-11.834,2.113,2.113Z" transform="translate(-70.756 -76.857)"/><circle class="g" cx="14.551" cy="14.551" r="14.551" transform="translate(376.72 155.617)"/><path class="f" d="M517.771,234.068l-6.861-8.534,2.322-1.874,4.778,5.943,11.841-11.834,2.105,2.113Z" transform="translate(-129.472 -55.18)"/><circle class="h" cx="10.512" cy="10.512" r="10.512" transform="translate(160.502 108.939)"/><rect class="g" width="7.877" height="48.963" rx="3.938" transform="translate(167.251 73.505)"/><circle class="h" cx="10.512" cy="10.512" r="10.512" transform="translate(333.917 109.686)"/><rect class="g" width="7.877" height="48.963" rx="3.938" transform="translate(340.532 73.505)"/><path class="i" d="M656.31,622.322l1.389,14.6h16.664l-2.972-15.746Z" transform="translate(-166.315 -157.4)"/><path class="j" d="M668.03,654.326l-54.323,2.509a4.42,4.42,0,0,1-.179-3.173c.747-2.673,3.733-6.719,14.1-10.751l14.38-9.81s6.846,8.444,21.458,4.338a48.142,48.142,0,0,1,4.4,10.453C668.463,650.272,668.68,652.594,668.03,654.326Z" transform="translate(-155.42 -160.42)"/><path class="f" d="M668.03,659.351l-54.323,2.509a4.42,4.42,0,0,1-.179-3.173l54.338-5.756C668.463,655.3,668.68,657.619,668.03,659.351Z" transform="translate(-155.42 -165.445)"/><path class="k" d="M650.293,643.035a.747.747,0,0,1-.582-.276l-4.48-5.532a.747.747,0,0,1,1.157-.941l4.48,5.532a.747.747,0,0,1-.575,1.217Z" transform="translate(-163.471 -161.165)"/><path class="k" d="M644.37,646.25a.747.747,0,0,1-.582-.276l-4.054-5.047a.749.749,0,0,1,1.165-.941l4.054,5.055a.747.747,0,0,1-.582,1.21Z" transform="translate(-162.072 -162.095)"/><path class="k" d="M639.089,649.622a.746.746,0,0,1-.6-.306l-3.733-5.04a.748.748,0,0,1,1.209-.881l3.7,5.032a.752.752,0,0,1-.567,1.195Z" transform="translate(-160.816 -162.951)"/><path class="i" d="M674.99,570.914l19.688,13.857,10.363-13.051L682.9,557.93Z" transform="translate(-171.048 -141.373)"/><path class="j" d="M724.086,577.685,692.3,621.818a4.218,4.218,0,0,1-2.15-1.284c-1.867-1.934-3.733-6.719-.231-18.389l1.157-17.441s10.953-.045,16.776-14.074a48.992,48.992,0,0,1,11.2,3.21A11.575,11.575,0,0,1,724.086,577.685Z" transform="translate(-174.332 -144.591)"/><path class="f" d="M724.833,578.775,693.05,622.907a4.219,4.219,0,0,1-2.15-1.284l28.894-46.693A11.556,11.556,0,0,1,724.833,578.775Z" transform="translate(-175.079 -145.681)"/><path class="k" d="M700.129,594.114a.746.746,0,0,1-.582.269h-7.13a.747.747,0,0,1,0-1.493h7.13a.754.754,0,0,1,.582,1.224Z" transform="translate(-175.275 -150.232)"/><path class="k" d="M699.21,599.7a.747.747,0,0,1-.582.276l-6.481-.052a.747.747,0,1,1,0-1.493l6.473.052a.747.747,0,0,1,.575,1.217Z" transform="translate(-175.206 -151.635)"/><path class="k" d="M698.22,605.238a.747.747,0,0,1-.62.276l-6.242-.321a.748.748,0,1,1,.075-1.493l6.242.321a.718.718,0,0,1,.545,1.217Z" transform="translate(-175.016 -152.97)"/><ellipse class="i" cx="15.582" cy="20.032" rx="15.582" ry="20.032" transform="translate(452.993 198.069)"/><circle class="l" cx="13.103" cy="13.103" r="13.103" transform="translate(488.607 185.466)"/><path class="i" d="M629.334,310.046s2.046,11.744.4,13.909a8.563,8.563,0,0,1-4.047,2.8s-5.7,10.042,7.19,13.439,19.972-11.416,19.972-11.416l1.829-5.973-5.712-.687-2.1-2.277s-3.263-15.291-4.48-22.831Z" transform="translate(-158.236 -75.258)"/><path class="m" d="M622.08,406.71l-17.239,53.756s-10.385,29.558-2.165,47.589c0,0,30.133,26.251,53.412,32.642l12.9-24.877-12.446-6.167S629.27,497.1,627.672,487.859s11.64-77.946,11.64-77.946Z" transform="translate(-151.922 -103.055)"/><path class="i" d="M587.442,360.325l-6.615,5.824s-1.493,5.129-11.528.679c-10.759-4.763-25.235-9.833-29.118-11.468a29.618,29.618,0,0,0-3.464-3.823c-2.561-2.4-6.675-7-7.13-6.152-1.643,3.046,1.829,6.384,1.829,6.384s-6.048-.3-8.676-2.24-9.93,3.479-4.106,7.018,8.213,4.338,10.385,4.562a43.1,43.1,0,0,0,5.7,0l6.846,4.121,30.35,18.829s6.622,4.943,12.558.986,13.349-11.259,13.349-11.259Z" transform="translate(-130.872 -87.49)"/><path class="i" d="M676.21,362.634s11.3,5.883,15.067,10.094,32.694,41.72,32.694,41.72,3.427,2.4,2.568,8.041,2.912,5.308,3.942,1.717.851-6.854,3.076-1.717,3.77,6.51,3.942,9.415c0,0,4.517,4.524,7.227-.941a9.235,9.235,0,0,0-.918-9.5,34.469,34.469,0,0,0-8.534-8.213l-3.972-1.725-20.114-35.091s-7.279-13.521-12.409-17.463S686.17,348,686.17,348Z" transform="translate(-171.357 -88.179)"/><path class="n" d="M627.62,405.33h35.591s10.617,14.723,6.167,37.666-10.96,41.429-5.48,67.449,4.793,58.236,4.793,58.236l-26.079,1.03s-15.679-93.819-13.3-113.335S627.62,405.33,627.62,405.33Z" transform="translate(-159.045 -102.706)"/><path class="o" d="M623.682,332.537l-21,20.771,16.2,19.18,2.419-3.2-2.419,28.259,42.781-1.867-4.315-34.038,2.4,1.142L669.9,341.563s-8.788-9.706-20.771-10.848l-6.227-.515a25.385,25.385,0,0,1-4.539,7.571,10.348,10.348,0,0,1-11.08,3.091C624.451,339.876,622.025,337.614,623.682,332.537Z" transform="translate(-152.725 -83.668)"/><path class="l" d="M606.687,280.347l18.3-4.48a3.733,3.733,0,0,1,4.427,2.419l2.2,6.361,3.651-.978s3.375,8.295,4.383,13.573c0,0,8.4-2.091,10.453-18.531,0,0-.231-7.78-8.676-15.074,0,0-10.273-9.348-26.251-1.814C615.176,261.854,605.022,267.983,606.687,280.347Z" transform="translate(-153.694 -65.599)"/><ellipse class="i" cx="4.95" cy="3.853" rx="4.95" ry="3.853" transform="translate(478.885 221.529) rotate(-71.31)"/><rect class="p" width="196.562" height="6.167" transform="translate(381.438 495.668)"/></g></g></svg>