<svg xmlns="http://www.w3.org/2000/svg" width="731.845" height="549.433" viewBox="0 0 731.845 549.433"><defs><style>.a{fill:#e5d1f7;opacity:0.56;}.b{fill:#e2cdf7;}.c{fill:#2f2f30;}.d,.e{fill:#fff;}.d{opacity:0.11;}.f{opacity:0.87;}.g{fill:#8922e1;}.h{fill:#a062dd;}.i{fill:#ff4e56;}.j{fill:#ffaa01;}.k{fill:#595959;}.l{fill:#96d9c9;}.m{fill:#fa0;}.n{fill:#3c8f7c;}.o{fill:#fcfcfc;}</style></defs><g transform="translate(-3.515)"><g transform="translate(-0.425 0)"><ellipse class="a" cx="328.737" cy="48.966" rx="328.737" ry="48.966" transform="translate(78.312 451.5)"/><path class="b" d="M105.526,325.925c-32.072-20.639-40.487-63.873-18.1-94.723C145.574,150.986,255.044,25.428,369.847,26.737c168.568,1.924,243.435,35.018,263.6,103.713s-51.721,74.4-34.563,146.484,80.025,230.852-32.1,210.692S265.831,533.136,203.675,428.1a306.645,306.645,0,0,0-98.148-102.172Z" transform="translate(-14.751 -5.388)"/><path class="c" d="M608.427,29.294V441.049a29.286,29.286,0,0,1-29.294,29.294h-301a29.294,29.294,0,0,1-29.294-29.294V29.294A29.294,29.294,0,0,1,278.142,0h301a29.262,29.262,0,0,1,29.294,29.294Z" transform="translate(-49.825 0)"/><path class="d" d="M605.07,15.569,280.916,470.343h-2.723A29.294,29.294,0,0,1,248.9,441.049V29.294A29.294,29.294,0,0,1,278.154,0h301A29.3,29.3,0,0,1,605.07,15.569Z" transform="translate(-49.837 0)"/><rect class="e" width="295.1" height="374.454" transform="translate(230.433 46.292)"/><g class="f" transform="translate(255.231 93.406)"><rect class="g" width="31.409" height="146.308" rx="15.705" transform="translate(0 164.496)"/><rect class="g" width="31.409" height="267.826" rx="15.705" transform="translate(54.563 42.986)"/><rect class="g" width="31.409" height="310.805" rx="15.705" transform="translate(161.191)"/><rect class="g" width="31.409" height="242.197" rx="15.705" transform="translate(214.021 68.607)"/><rect class="g" width="31.409" height="183.506" rx="15.705" transform="translate(107.051 127.298)"/></g><path class="h" d="M549.294,96.933H520.552a2.252,2.252,0,0,1,0-4.5h28.743a2.252,2.252,0,1,1,0,4.5Z" transform="translate(-104.146 -18.633)"/><path class="h" d="M554.469,107.8H542.437c-.894,0-1.6-1.006-1.6-2.252s.726-2.252,1.6-2.252h12.032c.9,0,1.6,1.006,1.6,2.252S555.339,107.8,554.469,107.8Z" transform="translate(-108.689 -20.824)"/><path class="h" d="M414.824,151.463H386.081a2.252,2.252,0,0,1,0-4.5h28.743a2.252,2.252,0,0,1,0,4.5Z" transform="translate(-77.038 -29.626)"/><path class="h" d="M420.009,162.333H407.977c-.894,0-1.6-1.006-1.6-2.252s.727-2.252,1.6-2.252h12.032c.894,0,1.6,1.006,1.6,2.252S420.9,162.333,420.009,162.333Z" transform="translate(-81.583 -31.817)"/><path class="h" d="M484.174,258.443H455.432a2.252,2.252,0,1,1,0-4.5h28.743a2.252,2.252,0,1,1,0,4.5Z" transform="translate(-91.018 -51.192)"/><path class="h" d="M489.379,269.313H477.347c-.894,0-1.6-1.006-1.6-2.252s.727-2.252,1.6-2.252h12.032c.894,0,1.6,1.006,1.6,2.252S490.273,269.313,489.379,269.313Z" transform="translate(-95.568 -53.383)"/><path class="h" d="M349.048,304.69H320.306a2.26,2.26,0,1,1,0-4.511h28.743a2.26,2.26,0,1,1,0,4.511Z" transform="translate(-63.749 -60.513)"/><path class="h" d="M354.269,315.563H342.237c-.894,0-1.6-1.006-1.6-2.252s.727-2.252,1.6-2.252h12.032c.894,0,1.6,1.006,1.6,2.252S355.163,315.563,354.269,315.563Z" transform="translate(-68.331 -62.707)"/><path class="h" d="M617.174,182.633H588.432a2.252,2.252,0,1,1,0-4.5h28.743a2.252,2.252,0,0,1,0,4.5Z" transform="translate(-117.83 -35.909)"/><path class="h" d="M620.388,195.033H609.873c-.8,0-1.413-1.006-1.413-2.252s.631-2.252,1.413-2.252h10.515c.8,0,1.413,1.006,1.413,2.252S621.171,195.033,620.388,195.033Z" transform="translate(-122.321 -38.409)"/><line class="i" x1="153.758" transform="translate(3.94 173.59)"/><line class="i" x1="96.304" transform="translate(61.393 156.624)"/><line class="i" x1="96.304" transform="translate(61.393 142.221)"/><line class="i" x1="153.75" transform="translate(164.907 11.01)"/><path class="h" d="M358.873,16.492H205.123a3.609,3.609,0,1,1,0-7.186h153.75a3.609,3.609,0,0,1,0,7.186Z" transform="translate(-40.216 -1.873)"/><path class="j" d="M539.986,60.85a9.206,9.206,0,1,1-9.166,9.238A9.206,9.206,0,0,1,539.986,60.85Zm.064,15.7a6.507,6.507,0,1,0-6.531-6.475A6.507,6.507,0,0,0,540.05,76.555Z" transform="translate(-106.67 -12.267)"/><path class="j" d="M213.083,26.182l231.626-.9,26.962,28.847a1.35,1.35,0,0,1-1.972,1.844L443.536,28.027l-230.445.862a1.357,1.357,0,1,1,0-2.707Z" transform="translate(-42.324 -5.096)"/><path class="j" d="M407.524,536.971a9.206,9.206,0,1,1,9.2-9.206A9.206,9.206,0,0,1,407.524,536.971Zm0-15.7a6.479,6.479,0,1,1,0,.04Z" transform="translate(-79.957 -104.537)"/><path class="j" d="M673.205,569.456H441.579l-26.851-28.95a1.353,1.353,0,1,1,1.98-1.844l26.052,28.128H673.205a1.357,1.357,0,1,1,0,2.707Z" transform="translate(-83.193 -108.503)"/><path class="k" d="M533.726,597.13a31.771,31.771,0,0,0-12.934,2.747h0l-14.9-2.747,1.868,13.469a31.825,31.825,0,1,0,25.964-13.429Z" transform="translate(-100.841 -120.376)"/><path class="e" d="M561.067,630.484a25.549,25.549,0,0,1-3.776,13.453l-22.052-13.453-18.363,18.188a25.829,25.829,0,1,1,44.192-18.188Z" transform="translate(-102.353 -121.898)"/><path class="k" d="M675.659,597.54a31.733,31.733,0,0,0-12.926,2.763h0l-14.906-2.747,1.876,13.429a31.817,31.817,0,1,0,25.956-13.429Z" transform="translate(-129.456 -120.459)"/><path class="e" d="M703.962,630.531a27.146,27.146,0,0,1-40.232,23.761l13.1-23.761-25.206,10.06a27.146,27.146,0,1,1,52.336-10.044Z" transform="translate(-130.628 -121.625)"/><path class="l" d="M749.884,520.559s-79.841-33.845-38.228-104.975c0,0,1.972-4.543-7.441-21.445s12.671-34.906,12.671-34.906,18.866,25.621,26,5.2,5.038-50,5.038-50,10.858-34.938,25.19-6.5l.695,33.326s-2.339,11.92,17.844,6.747.208,25.373.208,25.373-12.878,23.593,4.79,39.577,6.387,50.659-1.6,58.771S749.884,520.559,749.884,520.559Z" transform="translate(-140.702 -59.829)"/><path class="e" d="M761.453,517.969a35.485,35.485,0,0,1-5.517-6.906,61.266,61.266,0,0,1-4.136-7.848,78.25,78.25,0,0,1-5.126-16.974,107.553,107.553,0,0,1-1.828-17.669c-.128-2.962,0-5.924.072-8.886.064-1.477.192-2.954.287-4.431s.176-2.954.367-4.423a200.4,200.4,0,0,1,6.834-34.787c.407-1.421.8-2.85,1.214-4.263l1.349-4.224,1.341-4.224c.463-1.405.982-2.786,1.469-4.184l1.493-4.168.742-2.092.8-2.06,3.289-8.224v.048a96.167,96.167,0,0,0,2.467-10.563c.647-3.569,1.078-7.186,1.373-10.786a83.876,83.876,0,0,0,.176-10.882l-.184-2.715c-.072-.91-.216-1.8-.311-2.707l-.168-1.357c-.056-.447-.16-.894-.24-1.341l-.5-2.683a64.666,64.666,0,0,1,1.8,10.779,83.591,83.591,0,0,1,.168,10.954,102.257,102.257,0,0,1-1.158,10.906,98.69,98.69,0,0,1-2.3,10.747h0v.032c-2.076,5.509-4.224,10.986-6.108,16.559-.471,1.389-.982,2.771-1.437,4.168l-1.309,4.216-1.317,4.208c-.415,1.405-.8,2.834-1.182,4.248a221.262,221.262,0,0,0-6.834,34.531c-.2,1.453-.287,2.914-.4,4.383s-.239,2.922-.3,4.383c-.08,2.93-.232,5.868-.128,8.783a106.338,106.338,0,0,0,1.461,17.517,84.23,84.23,0,0,0,4.687,16.926,60.811,60.811,0,0,0,3.864,7.9,37.234,37.234,0,0,0,5.229,7.106Z" transform="translate(-149.804 -68.464)"/><path class="e" d="M782.554,479.72c-1.932,1.453-3.833,2.946-5.645,4.527s-3.609,3.194-5.341,4.838a91.142,91.142,0,0,0-9.581,10.7,65.744,65.744,0,0,0-3.992,5.924,58.755,58.755,0,0,0-3.25,6.387,48.937,48.937,0,0,0-2.267,6.779,44.215,44.215,0,0,0-1.1,7.122,35.853,35.853,0,0,1,.335-7.274,40.441,40.441,0,0,1,1.876-7.082,50.935,50.935,0,0,1,3.1-6.659,64.879,64.879,0,0,1,4.032-6.132,71.718,71.718,0,0,1,10-10.643A70.269,70.269,0,0,1,782.554,479.72Z" transform="translate(-151.12 -96.707)"/><path class="e" d="M781.332,415.9a60.171,60.171,0,0,0-9.661,2.307,36.831,36.831,0,0,0-8.783,4.224,23.328,23.328,0,0,0-3.7,3.1,19.5,19.5,0,0,0-2.946,3.808c-.439.679-.75,1.429-1.126,2.156a20.14,20.14,0,0,0-.854,2.291,30.189,30.189,0,0,0-1.094,4.838,20.582,20.582,0,0,1,.335-5.038,22.04,22.04,0,0,1,.639-2.475,18.733,18.733,0,0,1,1.014-2.4,20.327,20.327,0,0,1,6.834-7.625,30.574,30.574,0,0,1,9.325-4.1A34.562,34.562,0,0,1,781.332,415.9Z" transform="translate(-151.487 -83.838)"/><path class="e" d="M705.09,483.79a53.346,53.346,0,0,0,6.084.455c2.036.1,4.088.224,6.132.495a28.806,28.806,0,0,1,11.816,3.848,17.7,17.7,0,0,1,7.545,9.908,23.72,23.72,0,0,1,1.078,6.132,33.524,33.524,0,0,1-.271,6.14,50.668,50.668,0,0,0-.519-6.052,26.267,26.267,0,0,0-1.469-5.8,17.692,17.692,0,0,0-7.186-8.974,32.181,32.181,0,0,0-11.178-3.992c-1.98-.367-3.992-.663-6-.942A34.337,34.337,0,0,1,705.09,483.79Z" transform="translate(-141.801 -97.528)"/><path class="e" d="M726.37,418c1.341.735,2.755,1.3,4.152,1.932s2.794,1.277,4.152,2.02a27.213,27.213,0,0,1,7.409,5.7,19.627,19.627,0,0,1,2.667,3.936,17.779,17.779,0,0,1,1.541,4.487,20.319,20.319,0,0,1-.447,9.254,28.4,28.4,0,0,0-.8-8.966,19.3,19.3,0,0,0-4.192-7.657,32.82,32.82,0,0,0-6.85-5.685q-1.9-1.2-3.872-2.4A27.369,27.369,0,0,1,726.37,418Z" transform="translate(-146.091 -84.265)"/><path class="m" d="M735.5,351.806s-8.735-36.216,4.511-29.988S735.5,351.806,735.5,351.806Z" transform="translate(-147.361 -64.731)"/><path class="m" d="M729.33,384.7s12.128-26.148,17.174-16.016S729.33,384.7,729.33,384.7Z" transform="translate(-146.687 -73.852)"/><path class="m" d="M722.59,409.634s11.641-25.094,16.479-15.369S722.59,409.634,722.59,409.634Z" transform="translate(-145.329 -79.029)"/><path class="m" d="M720.07,442.524s6.643-27.1,13.341-18.922S720.07,442.524,720.07,442.524Z" transform="translate(-144.821 -85.084)"/><path class="m" d="M727.28,470.228s.934-31.026,10.3-21.222S727.28,470.228,727.28,470.228Z" transform="translate(-146.274 -90.13)"/><path class="m" d="M736.191,489.416s-.99-25.932,7.321-17.182S736.191,489.416,736.191,489.416Z" transform="translate(-148.063 -94.835)"/><path class="m" d="M727.355,374.562s2.978-29.605-6.826-23.258S727.355,374.562,727.355,374.562Z" transform="translate(-144.289 -70.64)"/><path class="m" d="M720.324,399.854s-1.269-28.32-9.645-20.99S720.324,399.854,720.324,399.854Z" transform="translate(-142.48 -76.131)"/><path class="m" d="M715,428.453s-1.277-28.375-9.669-21.03S715,428.453,715,428.453Z" transform="translate(-141.401 -81.888)"/><path class="m" d="M716.379,453.424s-13.573-24.439-18.164-16.184S716.379,453.424,716.379,453.424Z" transform="translate(-140.292 -87.8)"/><path class="m" d="M728.2,486.935s-14.842-25.7-19.345-15.681S728.2,486.935,728.2,486.935Z" transform="translate(-142.446 -94.533)"/><path class="m" d="M738.8,503.9s-20.6-14.555-19.489-4.192S738.8,503.9,738.8,503.9Z" transform="translate(-144.659 -99.986)"/><path class="m" d="M748.687,491.972a139.839,139.839,0,0,1-18.571-28.463c-7.753-15.7-15.585-39.545-8.886-64.024l12.878-46.954,1.365.367L722.611,399.86c-12.615,46.06,26.763,90.723,27.146,91.17Z" transform="translate(-144.543 -71.067)"/><path class="n" d="M723.244,545.485s-53.877-67.945,16.711-110.46c0,0,3.9-3.042,3.737-22.4s27.832-24.551,27.832-24.551,4.287,31.529,20.336,17.014,28.367-41.477,28.367-41.477,26.26-25.469,25.222,6.387L830.1,399.592s-7.761,9.349,12.431,14.475-11.976,22.355-11.976,22.355-22.6,14.539-14.779,37.022-18.659,47.529-29.541,50.819S723.244,545.485,723.244,545.485Z" transform="translate(-141.496 -71.358)"/><path class="o" d="M737.247,544.087a35.664,35.664,0,0,1-1.533-8.7,60.937,60.937,0,0,1,.128-8.87,78.806,78.806,0,0,1,3.633-17.365,107.8,107.8,0,0,1,6.826-16.423c1.317-2.659,2.85-5.19,4.327-7.76.759-1.269,1.6-2.5,2.4-3.753s1.6-2.515,2.451-3.713a201.218,201.218,0,0,1,22.659-27.266c1.03-1.054,2.052-2.124,3.106-3.194l3.194-3.058,3.194-3.066c1.07-1.006,2.2-1.972,3.289-2.962L794.221,435l1.653-1.477,1.7-1.421,6.826-5.637h0a98.224,98.224,0,0,0,7.234-8.088c2.267-2.826,4.375-5.78,6.387-8.782a84.367,84.367,0,0,0,5.365-9.469l1.142-2.475c.375-.8.671-1.685,1.022-2.523l.5-1.269c.16-.423.287-.862.431-1.293l.846-2.595a63.929,63.929,0,0,1-3.585,10.355,84.332,84.332,0,0,1-5.1,9.693,102.929,102.929,0,0,1-6.236,9.022,97.005,97.005,0,0,1-7.186,8.335h0c-4.455,3.848-8.966,7.617-13.286,11.617-1.086.99-2.2,1.956-3.258,2.97l-3.257,3.122-3.194,3.066c-1.046,1.038-2.044,2.116-3.074,3.194A221.592,221.592,0,0,0,756.68,478.33c-.87,1.182-1.645,2.4-2.443,3.657s-1.6,2.451-2.4,3.7c-1.469,2.539-3.01,5.038-4.327,7.657a106.757,106.757,0,0,0-7.082,16.08,83.9,83.9,0,0,0-3.992,17.11,60.946,60.946,0,0,0-.4,8.783A37.8,37.8,0,0,0,737.247,544.087Z" transform="translate(-147.953 -78.615)"/><path class="o" d="M786.781,521.74c-2.4.343-4.79.743-7.13,1.27s-4.687,1.062-7,1.685a90.86,90.86,0,0,0-13.509,4.79,69.213,69.213,0,0,0-6.387,3.282,59.084,59.084,0,0,0-5.892,3.992,48.612,48.612,0,0,0-5.238,4.862,43.967,43.967,0,0,0-4.383,5.725,36.311,36.311,0,0,1,3.784-6.228,40.664,40.664,0,0,1,5.038-5.317,49.839,49.839,0,0,1,5.908-4.359,64.452,64.452,0,0,1,6.475-3.449,71.8,71.8,0,0,1,13.868-4.567A70.516,70.516,0,0,1,786.781,521.74Z" transform="translate(-148.282 -105.178)"/><path class="o" d="M819.111,463.558a59.339,59.339,0,0,0-9.581-2.6,36.725,36.725,0,0,0-9.741-.5,23.734,23.734,0,0,0-4.727.95,19.167,19.167,0,0,0-4.407,1.94,22.7,22.7,0,0,0-2.02,1.341,22.081,22.081,0,0,0-1.852,1.6,30.564,30.564,0,0,0-3.273,3.729,20.759,20.759,0,0,1,2.7-4.263,22.745,22.745,0,0,1,1.749-1.868,20.758,20.758,0,0,1,2.028-1.6,20.511,20.511,0,0,1,9.653-3.425,30.707,30.707,0,0,1,10.148.878A34.394,34.394,0,0,1,819.111,463.558Z" transform="translate(-157.61 -92.481)"/><path class="o" d="M722.41,484.44a55.485,55.485,0,0,0,5.126,3.305c1.741,1.062,3.481,2.156,5.142,3.369a28.91,28.91,0,0,1,8.567,9.046,18.17,18.17,0,0,1,2.06,6,18.361,18.361,0,0,1-.184,6.307,23.521,23.521,0,0,1-1.988,5.892,33.392,33.392,0,0,1-3.194,5.262,51.911,51.911,0,0,0,2.451-5.589,26,26,0,0,0,1.485-5.8,17.7,17.7,0,0,0-2.044-11.329,31.57,31.57,0,0,0-7.888-8.838c-1.6-1.269-3.194-2.491-4.79-3.7A34.669,34.669,0,0,1,722.41,484.44Z" transform="translate(-145.292 -97.659)"/><path class="o" d="M772.59,436.88c.8,1.293,1.788,2.467,2.723,3.689s1.836,2.459,2.675,3.76a27.226,27.226,0,0,1,3.777,8.559,19.619,19.619,0,0,1,.455,4.735,18.059,18.059,0,0,1-.8,4.671,20.248,20.248,0,0,1-4.79,7.9,28.119,28.119,0,0,0,3.617-8.232,19.288,19.288,0,0,0,0-8.727,32.527,32.527,0,0,0-3.337-8.279c-.726-1.325-1.485-2.643-2.251-3.992A26.9,26.9,0,0,1,772.59,436.88Z" transform="translate(-155.408 -88.071)"/><rect class="m" width="142.676" height="16.264" rx="8.132" transform="translate(548.583 460.498)"/><path class="l" d="M182.147,526.509s79.841-33.845,38.228-104.975c0,0-1.964-4.543,7.449-21.445s-12.679-34.859-12.679-34.859-18.874,25.613-26,5.19-5.038-50-5.038-50-10.858-34.938-25.19-6.5l-.695,33.326s2.339,11.92-17.844,6.747-.208,25.373-.208,25.373,12.886,23.593-4.751,39.585-6.387,50.651,1.6,58.763S182.147,526.509,182.147,526.509Z" transform="translate(-25.072 -61.037)"/><path class="e" d="M191.39,523.9a37.526,37.526,0,0,0,5.222-7.082,60.8,60.8,0,0,0,3.864-7.9,84.231,84.231,0,0,0,4.687-16.926,107.234,107.234,0,0,0,1.485-17.533c.1-2.93-.056-5.86-.136-8.783-.064-1.461-.2-2.922-.3-4.383s-.2-2.93-.4-4.383a221.455,221.455,0,0,0-6.834-34.531c-.4-1.413-.8-2.834-1.182-4.248l-1.309-4.208-1.285-4.2c-.447-1.405-.958-2.786-1.437-4.176-1.876-5.589-3.992-11.05-6.1-16.559v-.04h0a98.292,98.292,0,0,1-2.3-10.747,102.2,102.2,0,0,1-1.15-10.906,82.237,82.237,0,0,1,.16-10.954,64.782,64.782,0,0,1,1.8-10.779l-.5,2.683c-.08.447-.176.894-.24,1.341l-.16,1.357c-.1.9-.248,1.8-.319,2.707l-.184,2.715a83.871,83.871,0,0,0,.176,10.882c.3,3.617.727,7.186,1.373,10.787a95.766,95.766,0,0,0,2.475,10.563v-.048l3.3,8.224.8,2.06.75,2.092,1.485,4.176c.487,1.389,1.006,2.77,1.469,4.176l1.349,4.224,1.341,4.224c.431,1.413.8,2.842,1.214,4.263a200.4,200.4,0,0,1,6.834,34.787c.192,1.469.271,2.946.375,4.423s.224,2.954.279,4.431c.064,2.962.2,5.924.08,8.886a107.557,107.557,0,0,1-1.828,17.669,79.211,79.211,0,0,1-5.126,16.982A62.276,62.276,0,0,1,196.97,517a35.44,35.44,0,0,1-5.581,6.9Z" transform="translate(-36.774 -69.662)"/><path class="e" d="M168.44,485.68a70.653,70.653,0,0,1,11.832,8.455,72.144,72.144,0,0,1,9.988,10.651,63.766,63.766,0,0,1,3.992,6.124,48.916,48.916,0,0,1,3.1,6.659,40.441,40.441,0,0,1,1.876,7.082,35.29,35.29,0,0,1,.335,7.273,43.115,43.115,0,0,0-1.1-7.114,48.706,48.706,0,0,0-2.267-6.786,60.18,60.18,0,0,0-3.242-6.387,67.512,67.512,0,0,0-3.992-5.924,92.622,92.622,0,0,0-9.581-10.7c-1.733-1.661-3.513-3.281-5.349-4.838S170.38,487.133,168.44,485.68Z" transform="translate(-33.617 -97.909)"/><path class="e" d="M170.43,421.865a34.563,34.563,0,0,1,10.012,1.118,30.612,30.612,0,0,1,9.333,4.1,20.454,20.454,0,0,1,6.834,7.625,19.963,19.963,0,0,1,1.006,2.4,21.3,21.3,0,0,1,.647,2.475,20.583,20.583,0,0,1,.327,5.038,30.178,30.178,0,0,0-1.086-4.838,21.827,21.827,0,0,0-.862-2.291,22.968,22.968,0,0,0-1.126-2.156,19.465,19.465,0,0,0-2.938-3.808,24.2,24.2,0,0,0-3.7-3.1,36.831,36.831,0,0,0-8.782-4.224,60.172,60.172,0,0,0-9.661-2.331Z" transform="translate(-34.018 -85.04)"/><path class="e" d="M245.541,489.76a35.051,35.051,0,0,1-6.012,1.222c-2.012.279-3.992.575-6,.942a31.585,31.585,0,0,0-11.178,3.992,17.676,17.676,0,0,0-7.186,8.974,25.846,25.846,0,0,0-1.477,5.8,52.41,52.41,0,0,0-.511,6.06,33.533,33.533,0,0,1-.263-6.14,23.425,23.425,0,0,1,1.07-6.132,18.515,18.515,0,0,1,2.858-5.589,18.3,18.3,0,0,1,4.687-4.287,28.877,28.877,0,0,1,11.824-3.848c2.036-.271,4.088-.4,6.124-.5A55.075,55.075,0,0,0,245.541,489.76Z" transform="translate(-42.574 -98.731)"/><path class="e" d="M227.4,424a27.859,27.859,0,0,1-3.792,2.619c-1.309.8-2.611,1.6-3.88,2.4a32.615,32.615,0,0,0-6.85,5.693,19.418,19.418,0,0,0-4.192,7.649,28.4,28.4,0,0,0-.8,8.966,20.4,20.4,0,0,1-.447-9.246,17.725,17.725,0,0,1,1.541-4.5,19.683,19.683,0,0,1,2.667-3.928,26.993,26.993,0,0,1,7.417-5.709c1.349-.743,2.747-1.4,4.144-2.02S226.047,424.719,227.4,424Z" transform="translate(-41.411 -85.475)"/><path class="m" d="M220.292,357.762s8.735-36.216-4.511-30.012S220.292,357.762,220.292,357.762Z" transform="translate(-42.171 -65.927)"/><path class="m" d="M225.016,390.657s-12.128-26.148-17.206-16.016S225.016,390.657,225.016,390.657Z" transform="translate(-41.402 -75.054)"/><path class="m" d="M231.957,415.554s-11.649-25.094-16.487-15.369S231.957,415.554,231.957,415.554Z" transform="translate(-42.954 -80.222)"/><path class="m" d="M235.1,448.484s-6.651-27.1-13.349-18.922S235.1,448.484,235.1,448.484Z" transform="translate(-44.088 -86.286)"/><path class="m" d="M228.361,476.16s-.934-31.018-10.3-21.214S228.361,476.16,228.361,476.16Z" transform="translate(-43.11 -91.327)"/><path class="m" d="M220.218,495.376s1-25.932-7.313-17.182S220.218,495.376,220.218,495.376Z" transform="translate(-42.09 -96.036)"/><path class="m" d="M228.893,380.522s-2.978-29.605,6.834-23.258S228.893,380.522,228.893,380.522Z" transform="translate(-45.718 -71.842)"/><path class="m" d="M235.56,405.816s1.277-28.32,9.653-20.982S235.56,405.816,235.56,405.816Z" transform="translate(-47.148 -77.334)"/><path class="m" d="M240.86,434.383s1.277-28.375,9.669-21.03S240.86,434.383,240.86,434.383Z" transform="translate(-48.216 -83.084)"/><path class="m" d="M237.77,459.384s13.573-24.439,18.164-16.184S237.77,459.384,237.77,459.384Z" transform="translate(-47.593 -89.002)"/><path class="m" d="M225.65,492.9S240.492,467.2,245,477.215,225.65,492.9,225.65,492.9Z" transform="translate(-45.15 -95.736)"/><path class="m" d="M215.15,509.861s20.6-14.555,19.5-4.192S215.15,509.861,215.15,509.861Z" transform="translate(-43.033 -101.188)"/><path class="m" d="M202.366,497.932a140.7,140.7,0,0,0,18.587-28.455c7.745-15.7,15.585-39.553,8.878-64.024L216.969,358.49l-1.365.367,12.862,46.962c12.615,46.06-26.755,90.723-27.146,91.17Z" transform="translate(-40.245 -72.268)"/><path class="n" d="M198.876,551.451s53.877-67.953-16.719-110.468c0,0-3.9-3.042-3.729-22.4S150.6,394.037,150.6,394.037s-4.3,31.529-20.335,17.014-28.375-41.485-28.375-41.485-26.26-25.469-25.222,6.387l15.353,29.541s7.761,9.341-12.439,14.467,11.976,22.355,11.976,22.355,22.611,14.539,14.787,37.022,18.651,47.529,29.541,50.819S198.876,551.451,198.876,551.451Z" transform="translate(-14.36 -72.558)"/><path class="o" d="M198.487,550.021a37.366,37.366,0,0,0,1.2-8.719,60.988,60.988,0,0,0-.4-8.783,84.218,84.218,0,0,0-3.992-17.1,106.087,106.087,0,0,0-7.09-16.08c-1.309-2.627-2.85-5.126-4.327-7.665-.8-1.253-1.6-2.467-2.4-3.7s-1.6-2.475-2.443-3.657A221.572,221.572,0,0,0,156.5,457.278c-1.022-1.054-2.028-2.132-3.074-3.194l-3.194-3.066-3.194-3.066c-1.07-1.014-2.18-1.98-3.265-2.97-4.319-3.992-8.83-7.769-13.286-11.617h0a98.462,98.462,0,0,1-7.186-8.335,102.924,102.924,0,0,1-6.236-9.022,85.588,85.588,0,0,1-5.1-9.693A63.92,63.92,0,0,1,108.45,396l.846,2.595c.144.431.271.87.431,1.293l.511,1.27c.343.838.647,1.693,1.014,2.523l1.142,2.475a84.383,84.383,0,0,0,5.365,9.469,101.85,101.85,0,0,0,6.387,8.783,96.694,96.694,0,0,0,7.186,8.088h0l6.834,5.637,1.693,1.421,1.653,1.477,3.305,2.954c1.1.99,2.22,1.956,3.3,2.962l3.194,3.066,3.194,3.058c1.054,1.038,2.068,2.116,3.106,3.194a200.708,200.708,0,0,1,22.651,27.274c.87,1.2,1.653,2.451,2.451,3.7s1.6,2.483,2.4,3.753c1.469,2.571,3.01,5.1,4.319,7.768a107.372,107.372,0,0,1,6.858,16.375,78.788,78.788,0,0,1,3.625,17.31,60.938,60.938,0,0,1,.128,8.87A35.665,35.665,0,0,1,198.487,550.021Z" transform="translate(-21.523 -79.83)"/><path class="o" d="M159.59,527.7a70.438,70.438,0,0,1,14.435,1.748,72.347,72.347,0,0,1,13.836,4.567,63.634,63.634,0,0,1,6.475,3.449,48.577,48.577,0,0,1,5.908,4.359,40.726,40.726,0,0,1,5.046,5.317,35.777,35.777,0,0,1,3.776,6.228,43.962,43.962,0,0,0-4.383-5.725,48.627,48.627,0,0,0-5.238-4.862,58.162,58.162,0,0,0-5.892-4.032,70.172,70.172,0,0,0-6.347-3.282,91.194,91.194,0,0,0-13.509-4.79c-2.315-.623-4.655-1.2-7.01-1.685S161.985,528.043,159.59,527.7Z" transform="translate(-31.833 -106.38)"/><path class="o" d="M130.78,469.531a34.4,34.4,0,0,1,9.325-3.776,30.521,30.521,0,0,1,10.156-.87,20.47,20.47,0,0,1,9.653,3.417,21.629,21.629,0,0,1,2.02,1.6,22.729,22.729,0,0,1,1.749,1.868,20.758,20.758,0,0,1,2.707,4.263,30.622,30.622,0,0,0-3.281-3.729,23.257,23.257,0,0,0-1.844-1.6,24.053,24.053,0,0,0-2.028-1.341,18.886,18.886,0,0,0-4.407-2.012,23.627,23.627,0,0,0-4.727-.95,36.624,36.624,0,0,0-9.733.5,59.431,59.431,0,0,0-9.589,2.627Z" transform="translate(-26.025 -93.696)"/><path class="o" d="M231.158,490.4a34.016,34.016,0,0,1-4.687,3.992c-1.6,1.214-3.266,2.4-4.79,3.7a31.479,31.479,0,0,0-7.9,8.838,17.717,17.717,0,0,0-2.044,11.337,26.484,26.484,0,0,0,1.485,5.789,51.9,51.9,0,0,0,2.451,5.589,33.352,33.352,0,0,1-3.194-5.262,23.218,23.218,0,0,1-2-5.892,18.572,18.572,0,0,1-.184-6.307,18.172,18.172,0,0,1,2.06-6,28.91,28.91,0,0,1,8.535-9.046c1.661-1.214,3.4-2.307,5.142-3.369a54.434,54.434,0,0,0,5.118-3.369Z" transform="translate(-42.019 -98.86)"/><path class="o" d="M183.877,442.84a27.639,27.639,0,0,1-2.076,4.12c-.8,1.317-1.533,2.635-2.252,3.992a32.527,32.527,0,0,0-3.289,8.279,19.29,19.29,0,0,0,0,8.727,28.327,28.327,0,0,0,3.617,8.232,20.343,20.343,0,0,1-4.79-7.9,18.061,18.061,0,0,1-.8-4.671,19.609,19.609,0,0,1,.463-4.735,26.867,26.867,0,0,1,3.776-8.559c.8-1.3,1.749-2.539,2.667-3.761S183.047,444.133,183.877,442.84Z" transform="translate(-34.795 -89.273)"/><rect class="m" width="142.676" height="16.264" rx="8.132" transform="translate(93.905 468.953)"/></g></g></svg>