<svg version="1.1" id="Layer_1" xmlns="http://www.w3.org/2000/svg" x="0" y="0" viewBox="0 0 1000 1000" style="enable-background:new 0 0 1000 1000" xml:space="preserve"><style>.st4{fill:#252526}.st5{fill:#fff}.st7{fill:#3073b7}.st9{fill:#ff4d53}.st12{opacity:.34;fill:#fff}.st14{fill:#f69b62}.st17{fill:#3270b8}.st19{fill:#f7b77a}</style><ellipse cx="511.5" cy="863.5" rx="439.5" ry="43.5" style="opacity:.24;fill:#252526"/><path d="M381.79 834.58S-113.5 702.46 101.13 386s435.72-361.78 593.6-282.5 245.75 173.17 239.21 324.69c-5 115.8-48.13 286.17-171.73 344.87s-235.73 74.67-380.42 61.52z" style="opacity:.41;fill:#caa6ee"/><path d="M405.08 828.54s-469.3-125.19-265.94-425.05S552 60.69 701.61 135.81 934.47 299.9 928.27 443.46c-4.74 109.73-45.6 271.15-162.72 326.77s-223.37 70.76-360.47 58.31z" style="fill:#caa6ee"/><path style="fill:#2d2d2d" d="m447.46 725.91-11.25 102.5h186.25l-20-96.25z"/><path class="st4" d="M861.51 745.43 166 737.69c-26.2-.29-47.29-21.61-47.29-47.82V334.85c0-21.43 17.5-38.74 38.94-38.5l695.7 7.89c20.48.23 37.16 16.53 37.85 37l12.28 361.23c.81 23.67-18.3 43.22-41.97 42.96z"/><path class="st5" d="m843.64 706.72-674.43-10.36c-16.19-.25-29.16-13.5-29.06-29.7l-5.78-326.69c-.28-15.93 12.6-28.98 28.54-28.91l681.89 3.24c18.81.09 33.91 15.52 33.6 34.33l-5.46 329.7c-.26 15.93-13.38 28.63-29.3 28.39z"/><g style="opacity:.28"><path class="st7" d="M589.34 399.66h-382.5c-13.46 0-24.37-10.91-24.37-24.38 0-13.46 10.91-24.37 24.37-24.37h382.5c13.46 0 24.38 10.91 24.38 24.37-.01 13.47-10.92 24.38-24.38 24.38zM804.96 399.66H658.09c-13.46 0-24.37-10.91-24.37-24.38 0-13.46 10.91-24.37 24.37-24.37h146.88c13.46 0 24.38 10.91 24.38 24.37-.01 13.47-10.92 24.38-24.39 24.38z"/><path d="M808.71 692.16H204.96c-12.43 0-22.5-10.07-22.5-22.5v-235c0-12.43 10.07-22.5 22.5-22.5h603.75c12.43 0 22.5 10.07 22.5 22.5v235c0 12.43-10.07 22.5-22.5 22.5z" style="opacity:.51;fill:#3073b7"/><path class="st7" d="M567.46 654.3H228.71c-12.43 0-22.5-10.07-22.5-22.5V448.77c0-12.43 10.07-22.5 22.5-22.5h338.75c12.43 0 22.5 10.07 22.5 22.5V631.8c0 12.43-10.07 22.5-22.5 22.5zM794.96 547.16h-137.5c-13.12 0-23.75-10.63-23.75-23.75v-60c0-13.12 10.63-23.75 23.75-23.75h137.5c13.12 0 23.75 10.63 23.75 23.75v60c0 13.12-10.63 23.75-23.75 23.75zM794.96 662.16h-137.5c-13.12 0-23.75-10.63-23.75-23.75v-60c0-13.12 10.63-23.75 23.75-23.75h137.5c13.12 0 23.75 10.63 23.75 23.75v60c0 13.12-10.63 23.75-23.75 23.75z"/></g><path class="st4" d="M656.21 852.16h-247.5c-10.36 0-18.75-8.39-18.75-18.75s8.39-18.75 18.75-18.75h247.5c10.36 0 18.75 8.39 18.75 18.75s-8.39 18.75-18.75 18.75z"/><path class="st9" d="M868.64 378.39c.32 13.64-10.5 25-24.26 25.46l-311.42 10.58c-16.13.55-29.97-11.29-31.78-27.19l-21.8-191.53-2.29-20.16c-1.56-13.72 8.89-25.89 22.8-26.55l335.79-16.06c14.95-.71 27.56 10.93 27.9 25.76l.32 14.07 4.74 205.62z"/><path class="st5" d="m617.21 341.34-70.71 4.54c-8.75.56-16.22-6.26-16.45-15.03l-2.39-91.09c-.17-6.62 4.91-12.2 11.52-12.64l68.58-4.55c7.62-.51 14.24 5.18 14.89 12.78l7.82 90.57c.68 7.95-5.3 14.91-13.26 15.42z"/><path transform="rotate(-1.926 638.873 202.56)" class="st5" d="M521.09 195.75h236.5v13.9h-236.5z"/><path transform="rotate(-1.926 739.222 227.482)" class="st5" d="M637.07 220.91h205.37v13.46H637.07z"/><path transform="rotate(-1.926 740.088 253.306)" class="st5" d="M637.94 246.75h205.37v13.46H637.94z"/><path transform="rotate(-1.926 740.929 277.312)" class="st5" d="M638.78 270.77h205.37v13.46H638.78z"/><path transform="rotate(-1.926 741.735 302.313)" class="st5" d="M639.59 295.79h205.37v13.46H639.59z"/><path transform="rotate(-1.926 742.606 327.316)" class="st5" d="M640.46 320.81h205.37v13.46H640.46z"/><path transform="rotate(-1.926 743.413 352.318)" class="st5" d="M641.27 345.84h205.37v13.46H641.27z"/><path d="M855.03 371.11c.3 12.69-9.77 23.26-22.57 23.69l-289.77 9.84c-15.01.51-27.89-10.51-29.57-25.3l-20.28-178.22-2.13-18.76c-1.45-12.77 8.27-24.09 21.21-24.7l312.45-14.94c13.91-.66 25.64 10.17 25.96 23.97l.3 13.09 4.4 191.33z" style="opacity:.29;fill:#fff"/><path d="m863.9 172.77-384.52 22.94-2.29-20.16c-1.56-13.72 8.89-25.89 22.8-26.55l335.79-16.06c14.95-.71 27.56 10.93 27.9 25.76l.32 14.07z" style="opacity:.43;fill:#ee505d"/><g><circle class="st12" cx="509.59" cy="175.1" r="6.88"/><circle class="st12" cx="532.2" cy="174.34" r="6.88"/><circle class="st12" cx="554.81" cy="173.58" r="6.88"/></g><g><path d="M478.46 532H377.52c-9.29 0-16.82-7.53-16.82-16.82v-41.26c0-9.29 7.53-16.82 16.82-16.82h100.94c9.29 0 16.82 7.53 16.82 16.82v41.26c0 9.29-7.53 16.82-16.82 16.82z" style="fill:#8922e1"/><path class="st5" d="M476.7 527.74h-98.98c-7.27 0-13.18-5.91-13.18-13.18v-40.02c0-7.27 5.91-13.18 13.18-13.18h98.98c7.27 0 13.18 5.91 13.18 13.18v40.02c0 7.27-5.91 13.18-13.18 13.18zm-98.97-64.9c-6.45 0-11.7 5.25-11.7 11.7v40.02c0 6.45 5.25 11.7 11.7 11.7h98.98c6.45 0 11.7-5.25 11.7-11.7v-40.02c0-6.45-5.25-11.7-11.7-11.7h-98.98z"/><path class="st5" d="M371.5 485.52h3.07v16.27h-3.07v-16.27zm1.34 13.31h5.19c.7 0 1.24-.17 1.63-.51.38-.34.58-.81.58-1.43v-.03c0-.41-.09-.76-.26-1.05-.17-.29-.42-.51-.76-.67-.33-.15-.73-.23-1.19-.23h-5.19v-2.95h5.19c.63 0 1.12-.16 1.47-.48.35-.32.52-.77.52-1.35 0-.52-.17-.93-.52-1.22-.35-.29-.84-.44-1.47-.44h-5.19v-2.95h5.29c1.05 0 1.95.17 2.7.52.75.35 1.31.85 1.7 1.51.39.66.58 1.45.58 2.38 0 .63-.13 1.2-.38 1.68-.25.49-.61.89-1.09 1.2-.48.31-1.05.53-1.72.64.72.1 1.33.32 1.84.65.51.34.9.78 1.16 1.33.26.54.4 1.17.4 1.89v.03c0 .93-.2 1.73-.59 2.4-.39.66-.96 1.17-1.71 1.52-.75.35-1.65.52-2.7.52h-5.48v-2.96zM388.45 501.21c-.9-.5-1.59-1.2-2.09-2.1-.49-.91-.74-1.96-.74-3.15v-4.61c0-1.19.25-2.24.74-3.15.49-.91 1.19-1.61 2.09-2.1.9-.5 1.94-.74 3.12-.74 1.18 0 2.22.25 3.12.74.9.5 1.59 1.2 2.09 2.1.49.91.74 1.96.74 3.15v4.61c0 1.19-.25 2.24-.74 3.15-.49.91-1.19 1.61-2.09 2.1-.9.5-1.94.74-3.12.74-1.18 0-2.22-.24-3.12-.74zm4.57-2.67c.42-.24.74-.57.97-1 .23-.43.34-.93.34-1.5v-4.77c0-.57-.11-1.07-.34-1.5-.23-.43-.55-.77-.97-1-.42-.24-.9-.35-1.45-.35-.55 0-1.04.12-1.45.35-.42.24-.74.57-.97 1-.23.43-.34.93-.34 1.5v4.77c0 .57.11 1.07.34 1.5.23.43.55.77.97 1 .42.24.9.35 1.45.35.55 0 1.03-.12 1.45-.35zM402.79 501.21c-.9-.5-1.59-1.2-2.09-2.1-.49-.91-.74-1.96-.74-3.15v-4.61c0-1.19.25-2.24.74-3.15.49-.91 1.19-1.61 2.09-2.1.9-.5 1.94-.74 3.12-.74 1.18 0 2.22.25 3.12.74.9.5 1.59 1.2 2.09 2.1.49.91.74 1.96.74 3.15v4.61c0 1.19-.25 2.24-.74 3.15-.49.91-1.19 1.61-2.09 2.1-.9.5-1.94.74-3.12.74-1.18 0-2.22-.24-3.12-.74zm4.58-2.67c.42-.24.74-.57.97-1 .23-.43.34-.93.34-1.5v-4.77c0-.57-.11-1.07-.34-1.5-.23-.43-.55-.77-.97-1-.42-.24-.9-.35-1.45-.35-.55 0-1.04.12-1.45.35-.42.24-.74.57-.97 1-.23.43-.34.93-.34 1.5v4.77c0 .57.11 1.07.34 1.5.23.43.55.77.97 1 .42.24.9.35 1.45.35.54 0 1.03-.12 1.45-.35zM414.87 485.52h3.07v16.27h-3.07v-16.27zm1.85 9.91 6.52-9.92h3.86l-9.99 13.9-.39-3.98zm2.71-1.88 2.64-1.67 5.72 9.9h-3.64l-4.72-8.23zM435.73 485.52h3.75l6.05 12.47-.27.29v-12.76h2.93v16.26h-3.77l-6.03-12.28.27-.29v12.57h-2.93v-16.26zM454.27 501.21c-.9-.5-1.59-1.2-2.09-2.1-.49-.91-.74-1.96-.74-3.15v-4.61c0-1.19.25-2.24.74-3.15.49-.91 1.19-1.61 2.09-2.1.9-.5 1.94-.74 3.12-.74 1.18 0 2.22.25 3.12.74.9.5 1.59 1.2 2.09 2.1.49.91.74 1.96.74 3.15v4.61c0 1.19-.25 2.24-.74 3.15-.49.91-1.19 1.61-2.09 2.1-.9.5-1.94.74-3.12.74-1.18 0-2.22-.24-3.12-.74zm4.57-2.67c.42-.24.74-.57.97-1 .23-.43.34-.93.34-1.5v-4.77c0-.57-.11-1.07-.34-1.5-.23-.43-.55-.77-.97-1-.42-.24-.9-.35-1.45-.35-.55 0-1.04.12-1.45.35-.42.24-.74.57-.97 1-.23.43-.34.93-.34 1.5v4.77c0 .57.11 1.07.34 1.5.23.43.55.77.97 1 .42.24.9.35 1.45.35.55 0 1.04-.12 1.45-.35zM473.26 485.52h2.46l3.11 10.86 2.09-10.86h3.16l-3.75 16.27h-2.89l-2.89-11.37-3.02 11.37h-2.89l-3.75-16.27h3.16l2.09 10.86 3.12-10.86z"/></g><g><path class="st14" d="m246.96 453.53-14.9 36.57 30.03 10.06 6.41-29.09z"/><ellipse transform="rotate(-25.445 267.487 449.882)" class="st14" cx="267.5" cy="449.86" rx="19.26" ry="28.09"/><path class="st14" d="M315.99 505.5s9.4-4.82 28.89-21.1l8.94-11.3s-5.04-11.17 0-24.01 6.65-10.32 6.65-10.32l2.29 41.04s-6.65 6.42-8.71 11.01c-2.06 4.59-8.03 25.22-27.52 32.56l-10.54-17.88z"/><path d="M266.11 432.21s15.48-4.59 12.27-11.92c-3.21-7.34-9.88-8.71-9.88-8.71s-10.07-.8-11.1 7.34c0 0-3.67 5.5-8.14 5.73-4.47.23-12.15.23-10.55 11.12 0 0 4.01 1.83 1.49 6.65 0 0-5.62 5.16.57 9.75l9.97 7.22 5.5-1.72s-5.5-15.13-3.9-19.38c1.61-4.24 6.31-6.31 9.4-5.96 3.11.33 4.37-.12 4.37-.12z" style="fill:#202068"/><path d="M277.01 507.68s13.64 2.29 40.36-3.9l12.5 19.03s-14.9 17.89-38.18 15.59c0 0-20.87-18.68-14.68-30.72z" style="fill:#d63e51"/><path class="st14" d="M325.38 548.8s24.99-1.15 39.21-10.32c0 0 2.52-8.71 9.63-8.03 7.11.69 22.93 4.36 31.41 1.61s8.25-.23 8.25-.23-11.24 10.09-17.2 11.24-25.22.69-25.22.69l-10.55 8.4s-13.07 18.43-32.1 20.95l-3.43-24.31zM158.91 822.13l1.61 16.05h15.13l-4.59-19.26z"/><path class="st17" d="M157.3 831.76s7.57 4.36 18.34-1.38c0 0 15.13 15.59 10.78 21.32h-30.5l1.38-19.94z"/><path class="st14" d="m220.59 820.29 3.9 19.49s17.2-3.21 16.74-3.9c-.46-.69-10.31-19.49-10.31-19.49l-10.33 3.9z"/><path class="st17" d="M220.59 833.14s13.3-1.83 17.66-5.04l27.97 18.34s7.8 4.59 0 5.27c-7.8.69-42.88 0-42.88 0s-7.55-7.17-2.75-18.57z"/><path d="M162.12 602.69s-12.61 7.57-9.63 31.41l3.9 190.55h19.72l7.57-141.25s2.07-16.98 5.27-1.83S218.3 821.9 218.3 821.9l18.8-.46-10.08-124.19s-1.84-62.23-9.87-72.55l-55.03-22.01z" style="fill:#383738"/><ellipse transform="rotate(-32.796 248.66 456.055)" class="st14" cx="248.67" cy="456.1" rx="4.65" ry="6.79"/><path class="st9" d="M235.95 484.26s10.57 10.97 27.41 10.13c0 0 20.05 3.63 32.21 29.31 0 0 14.68 20.75 30.5 23.16l6.31 27.97s-21.1 8.48-39.21-2.87c-18.11-11.35-25.91-20.64-25.91-20.64s-1.61-3.67-4.36 1.83-35.2 61.11-35.2 61.11-4.59 8.03-5.39 13.76-5.27 1.03-5.27 1.03l-56.18-20.75s-4.36-2.87.57-8.71c4.93-5.85 41.85-102.38 41.85-102.38s3.67-25.34 32.67-12.95z"/></g><g><path class="st19" d="m750.04 702.89 12.17 70.17 14.44 60.35-18.81 12.57s11.03 2.29 18.81 0c7.79-2.29 12.37-6.42 12.37-6.42s-5.96-6.88-5.04-13.76c.92-6.88-4.13-122.9-4.13-122.9h-29.81z"/><path class="st4" d="M762.21 843.06s7.55 3.5 17.18 0c9.63-3.5 9.63-8.47 9.63-8.47s11.01 11.85 5.04 14.6c-5.96 2.75-44.03 2.97-44.03 2.97s5.15-10.62 12.18-9.1z"/><path class="st19" d="m789.02 697.85 57.67 116.81s8.6 32.89 0 32.33c0 0 19.37-2.85 14.33-27.16-5.04-24.31.84-2.29.84-2.29s-6.34-5.5-7.26-13.3c-.92-7.8-5.04-40.12-25.22-58.81l-18.34-59.05-22.02 11.47z"/><path class="st4" d="M850.23 842.79s-23.6 5.94-10.3 7.32 21.93 0 21.93 0l7.42-35.44s-2.23-7.49-10.28-6.2c-.01-.01 3.24 30.37-8.77 34.32z"/><path d="m744.54 588.7 38.06-2.75s18.48 18.34 21.85 30.73c3.37 12.38 10.71 75.48 10.71 75.48s-40.36 29.12-66.5 14.56c.01 0-20.63-67.11-4.12-118.02z" style="fill:#436eaa"/><path class="st19" d="M734.45 507.93s-37.15-24.57-45.86-58.8 1.49-36.97 1.49-36.97 4.97-4.71-2.87-6.9l-7.84-2.19s-6.84-23.95-18.3-23.49c-11.46.46-5.96 27.88 10.55 36.87l3.17 32.68s4.17 42.35 23.89 65.28 24.76 25.88 24.76 25.88l11.01-32.36z"/><path class="st19" d="M769.19 493.41s-40.7-31.28-45.29-48.71 0-28.25 0-28.25l14.24-8.89-25.7.11v24.66s-2.98 34.6 16.97 54.57l28.89 31.18 10.89-24.67z"/><path d="m731.53 502.03-11.29 38.26s5.79 1.02 5.65 11.88 14.99 28.29 16.37 41.59l43.57-3.21v-77.5c-.02-.02-47.6-6.9-54.3-11.02z" style="fill:#feac02"/><ellipse transform="rotate(-63.404 769.202 468.047)" class="st19" cx="769.19" cy="468.06" rx="25.35" ry="19.61"/><path d="M772.05 435.6c4.65-2.66 14.2-7.3 22.88-6.33 5.6.63 10.25 4.65 11.79 10.07 1.37 4.82 2.36 14.44 7.52 16.21 12.84 4.38 17.19 11.62 4.47 28.59 0 0 38.18 8.07 25.34 40.95 0 0 3.51.35 0 15.19-1.8 7.6-5.8 7.6-12.84 14.38-11.9 11.44-38.06 23.95-56.86 6.98s-5.16-40.75-5.16-40.75-15.71-18.4 0-35.37c0 0 1.95-13.36 12.5-17.46 0 0 10.95-5.14-10.27-28.32a2.677 2.677 0 0 1 .63-4.14z" style="fill:#323233"/></g><path class="st4" d="M891.97 860H92.5c-2.49 0-4.5-2.01-4.5-4.5s2.01-4.5 4.5-4.5h799.47c2.29 0 4.22 1.72 4.47 4 .3 2.67-1.79 5-4.47 5z"/></svg>