<svg version="1.1" id="Layer_1" xmlns="http://www.w3.org/2000/svg" xmlns:xlink="http://www.w3.org/1999/xlink" x="0" y="0" viewBox="0 0 938.29 843.36" style="enable-background:new 0 0 938.29 843.36" xml:space="preserve"><style>.st1{opacity:.26;fill:#cfb5f6}.st5{opacity:.75}.st6{fill:#fff}.st7{fill:#f1f2f2}.st8{fill:#3c79a5}.st9{fill:#d1d3d4}.st10{fill:#fcaf49}.st12{fill:#414042}.st14{fill:#7367e3}.st15{fill:#fe6a80}.st17{fill:#5e5e5e}.st18{opacity:.53}.st18,.st19{fill:#7367e5}.st20{fill:#f7f6f1}.st21{fill:#fdd247}.st23{fill:#fe6a82}.st25{fill:#f5b48a}.st26{fill:#262626}.st32{fill:#f6b692}.st34{fill:#4570ad}.st37{fill:#252626}.st39{fill:#f2a186}.st40{fill:#222b56}.st44{fill:#231f20}</style><path d="M878.17 427.66c42.89 213.19-249.43 415.71-469.56 374.52C196.36 762.46 57.24 661.26 57.24 443.8S292.34 87.78 503.29 34.95C756.93-28.57 833.7 206.66 878.17 427.66z" style="fill:#cfb5f6"/><path class="st1" d="M827.86 408.44c42.89 213.19-249.43 415.71-469.56 374.52C146.05 743.25 6.94 642.04 6.94 424.58S242.04 68.56 452.98 15.74c253.64-63.52 330.41 171.71 374.88 392.7z"/><path class="st1" d="M848.46 408.44c42.89 213.19-249.43 415.71-469.56 374.52C166.65 743.25 27.54 642.04 27.54 424.58S262.64 68.56 473.59 15.74C727.22-47.78 804 187.45 848.46 408.44z"/><path class="st1" d="M926.16 452.82c42.89 213.19-249.43 415.71-469.56 374.52-212.24-39.71-351.36-140.92-351.36-358.38s235.1-356.02 446.05-408.84C804.92-3.4 881.7 231.83 926.16 452.82z"/><path class="st1" d="M899.64 441.68c42.89 213.19-249.43 415.71-469.56 374.52C217.83 776.49 78.72 675.28 78.72 457.82S313.82 101.8 524.77 48.98c253.64-63.52 330.41 171.71 374.87 392.7z"/><defs><circle id="SVGID_1_" cx="478.96" cy="441.14" r="373.73"/></defs><clipPath id="SVGID_2_"><use xlink:href="#SVGID_1_" style="overflow:visible"/></clipPath><g style="clip-path:url(#SVGID_2_)"><path style="opacity:.94;fill:#e6e7e8" d="M20.24 147.36h874.73v522.63H20.24z"/><path style="fill:#dccbf7" d="M267.85 147.36h372v517.03h-372z"/><g class="st5"><path class="st6" d="M639.85 264.6h248.27v152.44H639.85z"/><path class="st7" d="M650.46 271.11h227.06v139.41H650.46z"/><path class="st8" d="m707.07 356.68 10.23 18.18-20.86-.23-20.86-.23 10.63-17.95 10.62-17.95z"/><path class="st9" d="m765.35 350.06 13.96 24.8-28.46-.32-28.46-.31 14.5-24.49 14.5-24.49z"/><path class="st10" d="m842.24 340.82 19.15 34.04-39.05-.43-39.06-.43 19.9-33.61 19.9-33.61z"/></g><g style="opacity:.67"><path class="st6" d="M20.24 265.46h248.27V417.9H20.24z"/><path class="st7" d="M30.85 271.97h227.06v139.41H30.85z"/><g class="st5"><path class="st12" d="M62.31 352.66h19.07v29.16H62.31z"/><path style="fill:#00666b" d="M91.32 338.09h19.07v43.73H91.32z"/><path class="st14" d="M120.34 323.51h19.07v58.31h-19.07z"/><path class="st10" d="M149.35 312.01h19.07v69.81h-19.07z"/><path class="st8" d="M178.36 299.55h19.07v82.28h-19.07z"/><path class="st15" d="M207.37 284.3h19.07v97.52h-19.07z"/></g></g><ellipse cx="474.87" cy="649.24" rx="420.11" ry="19.12" style="opacity:.08;fill:#231f20"/><path transform="rotate(-86.267 345.089 606.423)" class="st17" d="M294.82 604.3h100.52v4.26H294.82z"/><path transform="rotate(-87.013 485.152 606.46)" class="st17" d="M434.9 604.3h100.44v4.26H434.9z"/><path transform="rotate(-4.513 543.29 490.341)" class="st17" d="M541.43 323.88h4.26V657.1h-4.26z"/><path class="st17" d="M512.48 556.28H324.89l20.84-280.07h190.19z"/><path class="st6" d="M507.89 548.46H330.78l19.68-268.35h179.57z"/><path class="st18" d="M393.93 304.1h86.45v4.24h-86.45zM363.54 314.95h145.9v4.24h-145.9zM378.3 324.94h116.59v4.24H378.3z"/><circle class="st19" cx="391.02" cy="377.14" r="25.4"/><circle class="st20" cx="391.02" cy="377.14" r="19.87"/><path class="st15" d="M389.88 356.82v20.95l21.29-1.09c-.01 0 2-19.41-21.29-19.86z"/><circle class="st19" cx="467.75" cy="377.14" r="25.4"/><circle class="st20" cx="467.75" cy="377.14" r="19.87"/><path class="st21" d="M468.9 356.82v20.95l-21.29-1.09s-2-19.41 21.29-19.86z"/><path style="opacity:.53;fill:#e6e7e8" d="M354.85 414.29h142.86v36.37H354.85z"/><path class="st23" d="m357.15 448.73-1.12-.87 20.59-26.37 8.57 13.28 17.9-.98.09.02 20.19 3.58 12.83-5.57 16.59-9.82h27.6v1.42h-27.21l-16.33 9.67-13.3 5.77-20.54-3.64-18.57 1.02-7.93-12.3z"/><path class="st8" d="M386.96 486.68h-17.18c-2.3 0-4.16-1.86-4.16-4.16v-17.18c0-2.3 1.86-4.16 4.16-4.16h17.18c2.3 0 4.16 1.86 4.16 4.16v17.18c0 2.3-1.86 4.16-4.16 4.16z"/><path d="M441.99 486.68h-17.18c-2.3 0-4.16-1.86-4.16-4.16v-17.18c0-2.3 1.86-4.16 4.16-4.16h17.18c2.3 0 4.16 1.86 4.16 4.16v17.18c0 2.3-1.86 4.16-4.16 4.16z" style="fill:#fd6b80"/><path class="st21" d="M496.21 485.69h-17.18c-2.3 0-4.16-1.86-4.16-4.16v-17.18c0-2.3 1.86-4.16 4.16-4.16h17.18c2.3 0 4.16 1.86 4.16 4.16v17.18c0 2.3-1.87 4.16-4.16 4.16z"/><path class="st18" d="M349.04 493.32h40.83v5.86h-40.83zM349.04 501.46h40.83v5.86h-40.83zM349.04 509.6h40.83v5.86h-40.83zM349.04 517.74h40.83v5.86h-40.83zM369.46 525.88h20.42v5.86h-20.42z"/><g><path class="st18" d="M405.87 493.32h40.83v5.86h-40.83zM405.87 501.46h40.83v5.86h-40.83zM405.87 509.6h40.83v5.86h-40.83zM405.87 517.74h40.83v5.86h-40.83zM426.28 525.88h20.42v5.86h-20.42z"/></g><g><path class="st18" d="M456.88 493.32h40.83v5.86h-40.83zM456.88 501.46h40.83v5.86h-40.83zM456.88 509.6h40.83v5.86h-40.83zM456.88 517.74h40.83v5.86h-40.83zM477.3 525.88h20.42v5.86H477.3z"/></g><circle class="st8" cx="384.73" cy="434.77" r="1.88"/><circle class="st8" cx="403.99" cy="434.77" r="1.88"/><circle class="st8" cx="376.49" cy="421.53" r="1.88"/><circle class="st8" cx="424.4" cy="437.89" r="1.88"/><circle class="st8" cx="453.18" cy="423.42" r="1.88"/><g><path class="st25" d="m531.62 639.09-1.52 13.25 11.07 1.08v-15.63z"/><path class="st26" d="M542.04 650.38s-7.38 1.74-11.94-1.95-4.34 1.47-4.99 2.36c-.65.89-4.56 4.8-8.9 5.02-4.34.22-10.42.65-9.34 5.21H544c-.01 0-1.09-9.33-1.96-10.64z"/><path class="st25" d="m602.39 639.31 1.3 12.81s11.13 1.3 10.88 0-2.42-12.81-2.42-12.81h-9.76z"/><path class="st26" d="M615.85 654.07s-3.69-2.38-6.3-4.77c-2.61-2.39-4.7-2.61-6.15 0-1.45 2.61-.58 3.47-2.1 5.64-1.52 2.17-2.82 4.99 0 6.08 2.82 1.09 14.55 0 14.55 0v-6.95z"/><path d="M542.91 501.88c0 1.09-3.47 67.52-3.47 67.52l-9.04 69.62-.29 2.25h12.81s5.86-23.88 11.51-36.69 8.49-28.01 6.96-38.86l12.8-38.21L587.43 582s13.03 59.27 13.68 59.27h13.46s.87-51.24-7.16-71c0 0-1.09-8.25-.43-25.62.65-17.37 2.82-38.43-2.82-42.77h-61.25z" style="fill:#2a6899"/><path class="st6" d="m486.67 392.45-2.6-6.51 9.99-3.69 2.38 7.16z"/><path class="st25" d="M486.46 384.1s-7.16-3.13-6.95-6.94c.22-3.81 3.26-10.32 6.95-10.32s4.78-.81 3.8-4.56c-.8-3.05-2.11-11.29.52-8.14s3.28 11.18 3.28 11.18 2.61 11.07 0 13.68l.29 4.13-7.89 2.82v-1.85z"/><ellipse transform="rotate(-85.791 566.147 354.133)" class="st25" cx="566.14" cy="354.13" rx="15.96" ry="11.72"/><path class="st25" d="m563.75 364.45 2.39 18.67 18.45-6.95s-8.68-11.26-10.42-19.31l-10.42 7.59z"/><path d="M557.35 345.26s-7.27-7.04 0-11.82 12.05-1.3 16.82 0c4.78 1.3 14.76-1.74 15.2 9.12.37 9.25-4.23 19.9-4.85 25.01a2.445 2.445 0 0 1-2.79 2.1c-2.54-.39-4.35-2.41-5.72-7.52-.84-3.13 3.47-11.8-1.84-18.99 0 0-9.33-5.19-16.82 2.1z" style="fill:#232c55"/><path class="st8" d="M586.79 377.42s16.69 8.52 26.67 21.11 23.88 37.34 23.88 37.34 6.3 6.3-1.09 13.68c-7.38 7.38-33.87 30.4-33.87 30.4l-9.12-10.42L616.72 445s2.17-2.39-1.3-6.08c-3.47-3.69-8.25-10.23-8.25-10.23s-6.51 20-5.21 29.55c1.3 9.55 4.99 45.59 4.99 45.59l-65.35 1.52v-84.24l-25.4 11.51s-11.07 3.69-14.98-1.09-17.15-40.38-17.15-40.38 12.81-4.78 12.81-4.13 12.59 26.92 12.59 26.92 46.03-35.92 51.46-36.52c5.43-.6 4.34-1.13 4.34-1.13l3.91 3.73 17.61-2.6z"/><path d="M560.38 466.49s-1.18 32.53-4.01 38.52l10-.23s-8.48-18.75-5.99-38.29z" style="opacity:.57;fill:#5e5e5e"/><path class="st6" d="m564.07 376.17 5.11 3.85 14.33-6.29 4.24 3.69s-16.3 20.02-21.29 44.34l-5.86 22.15s-9.28-29.96-6.16-44.29c3.12-14.33 9.63-23.45 9.63-23.45z"/><path class="st23" d="m567.56 384.23-12.65 34.99 5.68 24.69 7.29-23.57 2.72-36.11z"/><path class="st6" d="m595.88 470.4-4.78 4.34 7.6 7.38 3.69-4.12z"/><ellipse transform="rotate(-65.731 579.487 356.38)" class="st25" cx="579.48" cy="356.37" rx="4.31" ry="3.17"/><path class="st7" d="m583.59 373.73-14.41 6.29 5.59 5.92 11.58-9.8zM564.67 375.17l4.51 4.85-5.69 5.92-2.5-6.1z"/><ellipse class="st23" cx="569.08" cy="382.68" rx="2.82" ry="1.85"/><path class="st25" d="M587.41 483.64s-3 5.48-1.06 12.48c1.93 7 6.66 7 6.66 7s6.18-1.76 4.56-7.8c-1.63-6.04-1.46-10.35-1.46-10.35l1.74-3.7-5.8-5.64-4.64 8.01z"/><path d="m588.24 379.03 7.2 16.95-9.59 12.84 3.4 5.25L557.78 451l-9.53-36.93 2.63-7.83-5.26-16.45 13.95-12.17 5.47-1.33s-13.92 18.07-12.36 31.25 7.32 36.37 7.32 36.37l11.93-38.55c.16-.53.4-1.04.7-1.52l15.61-24.81z" style="fill:#306782"/><path d="m587.75 377.43 5.75 18.56-8.9 12.84 3.15 5.25-29.54 35.98-8.51-35.98 2.44-7.83-4.89-16.45 12.94-12.17 5.07-1.33s-11.15 14.8-11.15 27.5c0 13.26 6.48 40.11 6.48 40.11l8.58-32.16c.15-.53 8.39-18.82 8.67-19.3l9.91-15.02z" style="fill:#397499"/></g><g><ellipse class="st32" cx="690.33" cy="370.02" rx="13.11" ry="15.86"/><path d="M680.77 361.44s-8.03-5.21-1.95-12.38 13.46-3.91 15.85-1.09c2.39 2.82 7.6 6.95 11.94 7.82 4.34.87 8.25 6.51 5.64 11.51-2.61 4.99-5.21 11.72-3.91 15.63 1.3 3.91 9.34 12.16 9.34 12.16s7.38 9.72 0 13.76c-7.38 4.04-17.59 6.22-18.93-9.64-1.34-15.86-2.13-19.35-2.13-19.35s9.99-6.91 5.64-9.85c0 0-7.82 5.31-9.12-5.98.01.02-3.03-12.79-12.37-2.59z" style="fill:#454a59"/><path class="st32" d="M687.94 383.37s-.65 9.55-5.64 14.98c0 0 11.29 4.99 19.97 0l-5.64-18.48-8.69 3.5zM647.77 548.59v19.11s-2.17 6.51 3.04 19.11c5.21 12.59 25.84 54.49 25.84 54.49s6.73 1.95 8.03-4.56c0 0-5.21-22.36-6.51-30.18-1.3-7.82-3.26-21.28-8.68-26.7-5.43-5.43-7.6-8.68-5.43-12.81 2.17-4.13 8.25-14.98 8.25-14.98l-24.54-3.48zM678.82 551.63l4.34 33.44 6.51 58.84s8.68 3.91 9.55 0c0 0 2.61-33.22 2.61-33.87 0-.65 5.21-11.07 1.3-27.79l1.45-30.61h-25.76z"/><path class="st34" d="m686.66 637.48-11.54 3.43s2.72 5.5-.86 9.38c-3.58 3.88-10.98 8.39-10.98 8.39s-.64 2.84 2.85 2.66c3.49-.18 16.71-2.73 16.71-2.73l3.29-9.46s3.03 5.08 2.09 8.75l3-.49-2.03-12.43c.02.01.93-6.52-2.53-7.5z"/><ellipse transform="rotate(-52.345 700.952 372.426)" class="st32" cx="700.89" cy="372.42" rx="4.16" ry="3.44"/><path class="st34" d="m700.23 641.11-11.94 1.52s1.8 5.86-2.36 9.12c-4.16 3.26-12.19 6.51-12.19 6.51s-1.09 2.7 2.39 3.09c3.47.39 16.93 0 16.93 0l4.78-8.81s2.17 5.51.65 8.98h3.04v-12.6c.01 0 1.96-6.29-1.3-7.81zM662.97 477.6s-13.46 22.15-15.2 46.9c-1.74 24.75-1.3 26.49-1.3 26.49l67.96 7.6 2.61-44.72s3.91-24-4.13-32.95c-8.03-8.95-3.26-3.3-3.26-3.3h-46.68z"/><path d="M683.59 393.57s8.6 4.22 17.3-.48c0 0 21.13 3.73 23.08 24.14 1.95 20.41-6.95 42.77-6.95 42.77l-12.16-8.98 6.73 28.52s-43.42 3.04-50.37 0c0 0 4.78-17.31 4.56-28.52s-3.26-13.79-3.26-13.79l-14.76-1.76 22.58-32.13c.01 0 6.96-8.9 13.25-9.77z" style="fill:#fc5766"/><path class="st32" d="M717.03 460.01s-2.12 5.08-8.44 6.78c-6.32 1.69-36.5-11.06-41.5-15.75l13.9-4.26 19.9 7.82 3.98-3.55 12.16 8.96z"/><path class="st32" d="m648.35 434.81-5.79 9.14s-3.02 8.9 3.37 9.34c6.4.43 45.77-1.3 45.77-1.3s7.52 3.75 15.99-.95 1.74-7.09 1.74-7.09h-8.54s-2.83-.22-2.14-1.95c.69-1.74 4.68-3.47 4.68-3.47s-2.47-3.04-5.95-.22c-3.47 2.82-5.21 5.05-5.21 5.05l-32.78-2.49 2.22-3.72-13.36-2.34z"/></g><g><ellipse class="st32" cx="276.28" cy="365.99" rx="13.11" ry="15.86"/><path d="M285.83 357.4s8.03-5.21 1.95-12.38c-6.08-7.16-13.46-3.91-15.85-1.09-2.39 2.82-7.6 6.95-11.94 7.82-4.34.87-8.25 6.51-5.64 11.51 2.61 4.99 5.21 11.72 3.91 15.63-1.3 3.91-9.34 12.16-9.34 12.16s-7.38 9.72 0 13.76c7.38 4.04 17.59 6.22 18.93-9.64 1.34-15.86 2.13-19.35 2.13-19.35s-9.99-6.91-5.64-9.85c0 0 7.82 5.31 9.12-5.98 0 .02 3.04-12.79 12.37-2.59z" style="fill:#39393a"/><path class="st32" d="M278.67 379.33s.65 9.55 5.64 14.98c0 0-11.29 4.99-19.97 0l5.64-18.48 8.69 3.5zM318.83 544.55v19.11s2.17 6.51-3.04 19.11c-5.21 12.59-25.84 54.49-25.84 54.49s-6.73 1.95-8.03-4.56c0 0 5.21-22.36 6.51-30.18 1.3-7.82 3.26-21.28 8.68-26.7 5.43-5.43 7.6-8.68 5.43-12.81s-8.25-14.98-8.25-14.98l24.54-3.48zM287.79 547.59l-4.34 33.44-6.51 58.84s-8.68 3.91-9.55 0c0 0-2.61-33.22-2.61-33.87 0-.65-5.21-11.07-1.3-27.79l-1.45-30.61h25.76z"/><path class="st37" d="m279.94 633.44 11.54 3.42s-2.72 5.5.86 9.38c3.58 3.88 10.98 8.39 10.98 8.39s.64 2.84-2.85 2.66c-3.49-.18-16.71-2.73-16.71-2.73l-3.29-9.46s-3.03 5.08-2.09 8.75l-3-.49 2.03-12.43c-.01.02-.93-6.51 2.53-7.49z"/><ellipse transform="rotate(-37.655 265.67 368.357)" class="st32" cx="265.71" cy="368.38" rx="3.44" ry="4.16"/><path class="st37" d="m266.37 637.07 11.94 1.52s-1.8 5.86 2.36 9.12c4.16 3.26 12.19 6.51 12.19 6.51s1.09 2.7-2.39 3.09-16.93 0-16.93 0l-4.78-8.81s-2.17 5.51-.65 8.98h-3.04v-12.6c0 .01-1.95-6.29 1.3-7.81z"/><path class="st14" d="M303.63 473.56s13.46 22.15 15.2 46.9c1.74 24.75 1.35 47.9 1.35 47.9l-61.07 3.12-9.54-61.66s-3.91-24 4.13-32.95c8.03-8.95 3.26-3.3 3.26-3.3h46.67z"/><path d="M283.01 389.54s-8.6 4.22-17.3-.48c0 0-21.13 3.73-23.08 24.14-1.95 20.41 6.95 42.77 6.95 42.77l12.16-8.98-6.74 28.52s43.42 3.04 50.37 0c0 0-4.78-17.31-4.56-28.52s3.26-13.79 3.26-13.79l14.76-1.76-22.58-32.13s-6.94-8.91-13.24-9.77z" style="fill:#feac02"/><path class="st32" d="M249.57 455.97s2.12 5.08 8.44 6.78 36.5-11.06 41.5-15.75l-13.9-4.26-19.9 7.82-3.98-3.55-12.16 8.96z"/><path class="st32" d="m318.26 430.77 5.79 9.14s3.02 8.9-3.37 9.34c-6.4.43-45.77-1.3-45.77-1.3s-7.52 3.75-15.99-.95-1.74-7.09-1.74-7.09h8.54s2.83-.22 2.14-1.95c-.69-1.74-4.68-3.47-4.68-3.47s2.47-3.04 5.95-.22c3.47 2.82 5.21 5.05 5.21 5.05l32.78-2.49-2.22-3.72 13.36-2.34z"/></g><g><path class="st39" d="m826.32 626.95 4.23 11.4s10.1 1.63 9.12 0c-.98-1.63-2.93-16.65-2.93-16.65l-10.42 5.25z"/><path class="st14" d="M827.94 640s3.26-7.77 9.77-3.73c6.51 4.04 6.19 9.41 6.19 9.41l-14.33 5.38c0-.01-2.66-5.19-1.63-11.06z"/><path class="st39" d="m767.04 632.79-1.3 10.98s7.49 6.11 11.4 3.92v-14.91h-10.1z"/><path class="st14" d="M760.86 643.77s3.58-4.02 7.82 0 10.42 1.9 10.42 1.9 4.89 8.16 1.95 10.35l-35.5.48s-5.54-5.7 1.3-7.04c6.84-1.34 12.05-.59 14.01-5.69z"/><ellipse transform="rotate(-25.096 774.76 354.44)" class="st39" cx="774.86" cy="354.43" rx="11.47" ry="15.95"/><path class="st40" d="M768.35 345.34s-6.19 6.42-12.05-1.4 9.77-11.4 9.77-11.4 8.47.65 11.4-1.63c2.38-1.85 10.25-.74 10.98 6.57.41 4.09 1.25 8.11 2.86 11.9.82 1.93 1.38 4.17 1.14 6.46-.65 6.33-4.58 3.73-4.58 3.73s-1.94-6.01-8.45-14.24c0 .01-6.19-5.43-11.07.01z"/><path class="st39" d="M777.14 364.99v12.68s14 4.04 20.84-3.45l-11.86-16.93-8.98 7.7z"/><path d="m758.25 484.38 5.86 151.55h13.03s3.57-30.32 8.62-42.94c0 0 3.74-22.77 0-32.84l3.43-75.77h-30.94z" style="fill:#072030"/><path d="M773.72 480.75s6.02 43.94 8.3 55.02c2.28 11.07 6.19 20.52 9.77 27.68s33.54 66.44 33.54 66.44l12.38-4.23s-11.07-45.27-15.63-55.69-12.05-14.64-12.05-14.64 10.1-52.95 4.89-70.93l-41.2-3.65z" style="fill:#061923"/><ellipse transform="rotate(-25.096 786.017 348.534)" class="st39" cx="786.12" cy="348.53" rx="4.44" ry="6.17"/><path class="st14" d="M774.86 370.17s1.63 4.41 12.7 2.44l11.07-1.96s17.91 9.77 22.8 19.21c0 0 11.4 14 10.42 27.03l-21.82 1.63s4.89 7.16 7.49 69.37h-62.54l-1.62-71-15.31-4.89c.01.01 20.16-36.65 36.81-41.83z"/><path d="M727.64 391.17h36.15s4.97-1.63 7.05 6.84 14.15 56.34 14.15 56.34 2.58 3.58-1.66 4.56c-4.23.98-35.5 0-35.5 0s-3.26 1.63-5.54-4.88c-.97-2.78-3.78-13.55-6.68-24.99-3.9-15.39-7.97-32-7.97-32s-3.26-5.87 0-5.87z" style="fill:#8ebfdd"/><path class="st39" d="M738.06 429.03s6.84-.01 5.54 6.79c-1.3 6.8.16 11.93.16 11.93s-8.63 2.96-10.26-2.71c-1.63-5.68-2.32-16.34 2.11-16.01 4.44.33 2.45 0 2.45 0zM829.93 417.04s1.52 3.78 1.98 24.08c.44 19.1-5.03 15.86-16.65 15.03-11.63-.83-29.14-8.4-29.14-8.4s-7.02 5.68-11.26-2.71l-1.12-6.13s-5.39-9.7-1.49-7.55c3.91 2.15 8.47 6.06 9.12 2.8 0 0-1.3-8.47.98-7.16s9.44 8.2 7.82 11.92l19.21-.45.65-19.94 19.9-1.49z"/></g><g><path class="st39" d="m137.49 629.88-4.23 11.4s-10.1 1.63-9.12 0c.98-1.63 2.93-16.65 2.93-16.65l10.42 5.25z"/><path class="st8" d="M135.87 642.93s-3.26-7.77-9.77-3.73c-6.51 4.04-6.19 9.41-6.19 9.41l14.33 5.38c0-.01 2.66-5.19 1.63-11.06z"/><path class="st39" d="m196.77 635.72 1.3 10.98s-7.49 6.11-11.4 3.92v-14.91h10.1z"/><path class="st34" d="M202.95 646.7s-3.58-4.02-7.82 0c-4.23 4.02-10.42 1.9-10.42 1.9s-4.89 8.16-1.95 10.35l35.5.48s5.54-5.7-1.3-7.04c-6.84-1.34-12.05-.59-14.01-5.69z"/><ellipse transform="rotate(-64.906 188.964 357.378)" class="st39" cx="188.95" cy="357.36" rx="15.95" ry="11.47"/><path class="st40" d="M195.46 348.27s6.19 6.42 12.05-1.4-9.77-11.4-9.77-11.4-8.47.65-11.4-1.63c-2.38-1.85-10.25-.74-10.98 6.57-.41 4.09-1.25 8.11-2.86 11.9-.82 1.93-1.38 4.17-1.14 6.46.65 6.33 4.58 3.73 4.58 3.73s1.94-6.01 8.45-14.24c0 .01 6.19-5.43 11.07.01z"/><path class="st39" d="M186.67 367.92v12.68s-14 4.04-20.84-3.45l11.86-16.93 8.98 7.7z"/><path class="st12" d="m205.56 487.31-5.86 151.55h-13.03s-3.57-30.32-8.62-42.94c0 0-3.74-22.77 0-32.84l-3.43-75.77h30.94z"/><path class="st44" d="M190.09 483.68s-6.02 43.94-8.3 55.02-6.19 20.52-9.77 27.68-33.54 66.44-33.54 66.44l-12.38-4.23s11.07-45.27 15.63-55.69c4.56-10.42 12.05-14.64 12.05-14.64s-10.1-52.95-4.89-70.93l41.2-3.65z"/><ellipse transform="rotate(-64.906 177.705 351.47)" class="st39" cx="177.69" cy="351.46" rx="6.17" ry="4.44"/><path class="st34" d="M188.95 373.1s-1.63 4.41-12.7 2.44l-11.07-1.96s-17.91 9.77-22.8 19.21c0 0-11.4 14-10.42 27.03l21.82 1.63s-4.89 7.16-7.49 69.37h62.54l1.62-71 15.31-4.89c-.01.01-20.16-36.65-36.81-41.83z"/><path class="st9" d="M236.17 394.1h-36.15s-4.97-1.63-7.05 6.84-14.15 56.34-14.15 56.34-2.58 3.58 1.66 4.56c4.23.98 35.5 0 35.5 0s3.26 1.63 5.54-4.89c.97-2.78 3.78-13.55 6.68-24.99 3.9-15.39 7.97-32 7.97-32s3.26-5.86 0-5.86z"/><path class="st39" d="M225.75 431.96s-6.84-.01-5.54 6.79c1.3 6.8-.16 11.93-.16 11.93s8.63 2.96 10.26-2.71c1.63-5.68 2.32-16.34-2.11-16.01s-2.45 0-2.45 0zM133.88 419.97s-1.52 3.78-1.98 24.08c-.44 19.1 5.03 15.86 16.65 15.03 11.63-.83 29.14-8.4 29.14-8.4s7.02 5.68 11.26-2.71l1.12-6.13s5.39-9.7 1.49-7.55c-3.91 2.15-8.47 6.06-9.12 2.8 0 0 1.3-8.47-.98-7.16s-9.44 8.2-7.82 11.92l-19.21-.45-.65-19.94-19.9-1.49z"/></g><path class="st44" d="M20.24 661.52h874.73V670H20.24z"/><g><path style="fill:#ed6666" d="M650.46 284.3h-78.71v30.65h5.44l2.45 4.24 6.71 11.63 6.71-11.63 2.45-4.24h54.95z"/><path class="st6" d="M581.35 292.63h59.51v4.26h-59.51zM581.35 300.87h59.51v4.26h-59.51z"/></g><g><path class="st6" d="M757.33 286.33h-78.7v30.65h5.43l2.45 4.24 6.71 11.62 6.71-11.62 2.45-4.24h54.95z"/><g style="opacity:.44"><path class="st12" d="M688.23 294.66h59.51v4.26h-59.51zM688.23 302.9h59.51v4.26h-59.51z"/></g></g><g><path class="st14" d="M224.98 288.75h78.71v30.65h-5.44l-2.45 4.24-6.71 11.62-6.7-11.62-2.45-4.24h-54.96z"/><path class="st6" d="M234.58 297.08h59.51v4.26h-59.51zM234.58 305.32h59.51v4.26h-59.51z"/></g><g><path class="st10" d="M71.05 336.7h78.7v30.65h-5.43l-2.45 4.24-6.71 11.62-6.71-11.62-2.45-4.24H71.05z"/><path class="st6" d="M80.65 345.03h59.51v4.26H80.65zM80.65 353.27h59.51v4.26H80.65z"/></g></g><g style="opacity:.69"><path d="M859.35 430.65c20.06 209.78-166.5 348.45-380.38 357.33C271.72 796.59 61.84 644.35 79.8 438.52 98.11 228.57 302.88 116.07 498.76 49 683.2-14.14 838.97 217.52 859.35 430.65z" style="fill:none;stroke:#fff;stroke-width:4;stroke-miterlimit:10;stroke-dasharray:4.9947,4.9947"/></g></svg>