<svg version="1.1" id="Layer_1" xmlns="http://www.w3.org/2000/svg" x="0" y="0" viewBox="0 0 922.7 728.25" style="enable-background:new 0 0 922.7 728.25" xml:space="preserve"><style>.st1{fill:#348661}.st3{fill:none;stroke:#ebf5ff;stroke-miterlimit:10}.st7{fill:#ffb49e}.st8{fill:#344982}.st11{fill:#fff}.st12{fill:#3365de}.st13{fill:none;stroke:#69a5ef;stroke-width:2;stroke-miterlimit:10}.st14{fill:#ffa31e}.st15{fill:#3f9ed0}.st16{fill:#3d4b60}.st20{fill:#f5284b}.st21{fill:#3db07f}.st23{fill:#ebf5ff}.st24{fill:none;stroke:#69a5ef;stroke-width:3;stroke-miterlimit:10}.st25{fill:#2f4c9c}.st26{fill:#f2c07c}.st27{fill:none;stroke:#fff;stroke-width:3;stroke-linecap:round;stroke-linejoin:round;stroke-miterlimit:10}.st28{fill:#297553}.st29{fill:#5fc999}.st30,.st31,.st32,.st33,.st34{fill:none;stroke:#5f86f2;stroke-miterlimit:10}.st31,.st32,.st33,.st34{stroke:#297553;stroke-width:2}.st32,.st33,.st34{stroke:#fff;stroke-linecap:round}.st33,.st34{fill:#2f4c9c}.st34{fill:none;stroke:#2f4c9c;stroke-width:3;stroke-linejoin:round}</style><path d="M169.25 319.8S-94.97 425.68 54.99 588.05s501.94 123.09 501.94 123.09 282.26 22.77 334.54-153.33c52.28-176.1 17.89-392.5-110.06-498.24C703.05-5.19 670.77 5.33 657.52 23.21c-16.48 22.24-36.91 41.27-61.01 54.9L169.25 319.8z" style="fill:#e5d1f7"/><path class="st1" d="M430.38 182.5s29.95-7.74 39.12-30.24c0 0 8.25-15.62 2.75-24.33s-19.99 20.18-19.99 20.18-16.24 16.05-15.78-1.83c0 0 14.09-3.21 20.11-23.85s3.73-26.14 3.73-26.14-8.54-11.46-14.36 2.29-3.07 16.51-7.66 8.71.63-28.43-7.94-38.52c-8.57-10.09-9.49 7.6-9.49 7.6s-1.83 32.76-11.01 20.84c0 0 9.63-15.39-8.25-31.54S373.2 45.38 373.2 45.38s-21.97 20.18-6.86 48.15-2.77 8.71-2.77 8.71-23.85-25.22-16.05 9.17c0 0 6.88 27.97 35.77 25.22 0 0-.66 13.76-14.78 8.25s-17.78-3.16-11.36 7.36c6.42 10.52 22.93 14.65 22.93 14.65s1.38 14.72-10.09 9.19c-11.46-5.52-16.83 26.58 21.78 16.49s38.61-10.07 38.61-10.07z"/><path class="st1" d="M407.4 188.8s21.1-22.62 45.25-19.94c0 0 17.67.2 22.69 9.2 5.03 9-27.27 7.93-27.27 7.93s-21.86 6.6-5.92 14.74c0 0 9.55-10.85 30.56-6.29 21.01 4.56 24.75 9.2 24.75 9.2s6 12.97-8.87 11.52c-14.87-1.45-15.97-5.19-11.31 2.57s25.29 13.02 30.06 25.37-11.21 4.71-11.21 4.71-29.66-14.03-23.56-.28c0 0 18.12-1.11 23.77 22.31 5.65 23.43 4.24 34.66 4.24 34.66s-28.22 9.67-45.58-16.97-8.98-1.72-8.98-1.72 10.78 33-15.72 9.72c0 0-21.3-19.4-5.08-43.47 0 0-12.4-5.99-14.31 9.04-1.9 15.03-5.72 17.13-11.9 6.47-6.18-10.66-1.92-27.14-1.92-27.14s-12.27-8.24-12.89 4.48c-.62 12.71-31.39 2.09-4.09-27.01l27.29-29.1z"/><path d="M423.64 177s-54.57-39.2-65.58-18.91c0 0-1.33 5.61 8.28 10.2 9.61 4.59 0 12.38 0 12.38h-27.08s-21.1 2.75-8.25 11.92c12.84 9.17 21.1 13.76 9.63 19.72l-24.31-4.13s-37.61 3.67-21.1 19.26l20.18 4.13s16.51 2.75-2.75 11.92-15.13 49.99-15.13 49.99 28.89 9.63 44.94 0l11.01-9.17s10.79-7.99 11.88.9c1.09 8.89 17.23 26.25 19.19 6.94 1.96-19.31-2.63-31.23-2.63-31.23s6.42-16.8 14.22-2.44 15.13 21.7 19.26 8.4c4.13-13.3-2.02-32.56-2.02-32.56s9.35-11.01 14.86 4.13 7.34 13.3 7.34 13.3 14.68-14.22 9.17-34.85c-5.52-20.64-21.11-39.9-21.11-39.9z" style="fill:#48b38c"/><path class="st3" d="M300.74 289.36s65.12-87.59 120.15-109.61"/><path d="M641.63 609.05c-2.29-1.83-11.46-19.72-11.46-19.72l-15.59-5.96-76.13-31.64s-21.1-3.67-21.55 10.09c-.46 13.76 3.21 151.8 3.21 151.8l56.41-2.75-.92-95.85 53.2 25.68 12.83-31.65z" style="fill:#142133"/><ellipse cx="396.19" cy="462.05" rx="306.11" ry="156.99" style="fill:#176aae"/><ellipse cx="396.8" cy="446.48" rx="306.11" ry="141.57" style="fill:#e8eff9"/><ellipse class="st7" cx="569.08" cy="136.82" rx="34.85" ry="38.98"/><path class="st8" d="M564.04 105.64s16.97 22.01 32.1 22.01l2.87 26.54s.8 26.66 4.92 27.57c4.13.92 30.27 11.92 35.77 18.8 5.5 6.88 7.03 41.58 7.03 41.58s7.64 31.8 21.86 19.87c14.22-11.92 22.47-12.84 15.59-28.89-6.88-16.05-5.04-34.39-4.13-44.48.92-10.09-5.04-20.64-22.01-31.64s-23.85-30.73-23.85-51.36-33.48-34.85-37.15-35.31c-3.65-.46-33 35.31-33 35.31z"/><path class="st8" d="m598.89 74.91-37.15 34.39-22.31 7.02s-7.69 22.68-4.21 33.34c2.74 8.41 17.7 21.7 17.7 21.7s-28.18-4.39-37.05.85c-7.67 4.53 5.05-32.64 5.05-32.64s-12.84-15.59-6.88-21.1 23.85-46.32 23.85-46.32 21.55-22.93 48.61-6.88c27.07 16.06 12.39 9.64 12.39 9.64z"/><path class="st7" d="m557.67 167.44-17.48 21.66s-11.41 13.3 8.74 24.31c20.15 11.01 38.5 4.13 43.08 0 4.59-4.13 18.33-13.86 22.01-20.01 3.68-6.15 0-7.79 0-7.79l-6.31-2.58s-8.36 4.92-8.6-26.49l-41.44 10.9zM589.87 333.25l-4.28 7.03s-50.75-7.03-52.89-7.03h-17.12l-26.29-13.45-32.41 1.53s-2.14 5.5 7.03 5.5 17.73.61 17.73.61l-9.78 2.6-11.31 13.91s.31 5.92 4.89 3.11c4.59-2.81 9.48-11.67 9.48-11.67l6.42-1.58-14.37 19.01s2.45 3.67 4.59 2.45 2.45 3.97 5.5 1.53c3.06-2.45 8.07-9.73 8.07-9.73h8.13l14.06 6.37s6.73.92 9.17-1.22l43.41 11.62 31.49 3.67s7.64 1.53 12.54-10.39c4.89-11.92 4.89-13.42 4.89-13.42l-18.95-10.45zM473.69 276.39s-3.97 8.25-14.06 9.48-41.27-6.73-41.27-6.73l-19.26-6.11s-28.43-2.45-26.9 3.97c1.53 6.42 15.29 4.28 15.29 4.28s11.01 2.14 2.14 6.73-30.88 2.14-20.48 14.06c10.39 11.92 30.57 1.53 30.57 1.53l11.62-4.89 31.18 9.09 10.7 2.53s17.73 4.89 22.62 0c4.89-4.89 18.65-17.79 18.65-17.79l-20.8-16.15z"/><path d="M557.67 173.66s-16.61 23.85 0 32.41c0 0 17.53 12.54 37.71-11.62s10.45-12.11 10.45-12.11 30.21 10.47 33.88 18.23c3.67 7.76 12.23 29.04 7.03 41.58s-31.08 103.64-31.08 103.64-19.98 6.73-30.07-10.7l-68.79-16.82s-.61-9.78 5.2-18.96c0 0-6.22-12.84-9.53-20.79-3.31-7.95-17.38 19.26-17.38 19.26l-31.18-22.01s24.46-41.27 29.66-51.97c5.2-10.7 10.09-48.61 27.36-54.42 17.27-5.81 36.74 4.28 36.74 4.28z" style="fill:#f32a49"/><ellipse transform="rotate(-73.076 602.93 141.299)" class="st7" cx="602.94" cy="141.3" rx="13.47" ry="8.93"/><g style="opacity:.79"><path class="st11" d="m456.97 407.38 103.45-21.34L669.8 485l-108.51 19.01z"/><path class="st12" d="m516.92 400.93 18.76 19.05 43.56-6.57-18.03-19.76z"/><path class="st3" d="m526.51 405.41 5.37-1.34 5.37-1.34M538.46 412.37l-6.58-8.3M544.29 411.54l-4.01-10.51 12.91 7.52M543.82 407.81l4.58-1.5M548.35 400.92l17.18 6.27M556.77 398.75l-.19 10.55"/><path class="st13" d="m481.82 421.03 41.94-7.37M489.42 426.05l41.93-7.37M477.27 415.02l41.93-7.37M543.23 424.77l41.93-7.38M548.69 430.22l41.93-7.37M508.93 444.52l89.44-14.86M513.13 448.07l89.45-14.87M516.41 452.55l89.44-14.86M581.57 445.21l26.99-4.48M568.38 457.5l14.47-2.41M576.96 465.66l14.47-2.41M524.81 459.93l89.45-14.87M534.02 468.19l89.44-14.86M542.41 476.14l89.44-14.86M547.6 480.49l89.44-14.86M553.28 486.45l89.44-14.86M560 492.19l89.44-14.86M495.08 431.96l41.33-6.84 8.31 6.65-41.59 6.96z"/></g><path class="st11" d="m385.64 465.64 89.89-55.49 136.66 55.49-95.43 55.03z"/><path class="st12" d="m439.76 439.04 24.15 11.46 38.68-21.09-23.72-12.38z"/><path class="st3" d="m450.31 439.96 4.58-3.1 4.59-3.1M463.91 442.4l-9.02-5.54M469.11 439.63l-7.37-8.51 14.71 2.64M467.39 436.29l3.78-2.98M469.28 428.26h18.29M476.45 423.33l3.44 9.98"/><path class="st13" d="m413.67 469.95 36.87-21.3M422.53 472.06l36.87-21.29M407.34 465.86l36.87-21.29M472.64 452.42l36.87-21.3M479.64 455.67l36.87-21.29M447.19 482.73l78.94-44.61M452.35 484.62l78.94-44.61M456.97 487.71l78.93-44.61M515.67 458.49l23.82-13.46M507.48 474.55l12.78-7.22M518.34 479.28l12.77-7.22M467.39 491.76l78.93-44.61M478.87 496.36l78.94-44.61M489.48 500.96l78.93-44.61M495.84 503.27l78.94-44.61M503.21 506.92l78.94-44.61M511.5 510.02l78.94-44.61M429.87 475.67l36.49-20.58 10.09 3.4-36.69 20.79z"/><ellipse transform="rotate(-75.458 657.019 319.223)" class="st7" cx="657.03" cy="319.24" rx="47.5" ry="37.1"/><path class="st7" d="M657.03 357.41s22.12 27.52 21.2 37.15c-.92 9.63 58.7 14.22 61.91-5.04s-12.38-21.07-12.38-21.07l-5.5 3.65-5.04-19.26-60.19 4.57zM641.54 415.19l-41.73 3.21-15.13-5.96-28.53-2.29-15.03 6.42s.92 0 2.29 1.83c1.38 1.83-4.59 5.04-4.59 5.04v3.21l-3.67 5.56s-.92 5.45 5.04 3.61c5.96-1.83 15.95-7.34 15.95-7.34l18.45.46s6.88 6.72-3.67 7.26c0 0-17.17-1.75-14.78 3.75 2.39 5.5 34.04 0 34.04 0l4.59-3.21 27.06 5.66 19.71-27.21zM575.04 507.37l-11.01 16.05-7.9-27.06 4.69-15.13-1.38-24.76c.35-.22-4.13-3.13-5.96 2.83-1.93 6.28-.62 14.13-.62 14.13s-.75-18.34-10.38-24.31c-2.8-1.73-4.79-2.77-6.21-3.36-1.5-.63-3 .91-2.35 2.41l7.95 11.13s-8.41-4.08-10.7 2.11c-2.42 6.53-8.22-.82-5.47 10.65 0 0 4.09 4.74 5.62 15.59 1.41 10.02 6.11 11.01 6.11 11.01l5.04 50s7.09 31.23 30.14 14.69 36.2-39.93 36.2-39.93l-33.77-16.05z"/><path class="st14" d="M669.97 386.3s34.39 10.09 54.57-20.64h30.73s31.64 5.96 39.44 31.18V607.8l-156.38 19.26s-20.64-9.17-15.13-26.14 2-83.46 2-83.46l-10.71 11.01s-25.68 8.25-44.03-14.68c0 0-11.46-10.09 0-20.64 0 0 47.69-66.5 48.61-65.12.92 1.38 5.86-12.38 29.3-21.1l21.6-20.63z"/><path class="st8" d="M637.41 246.43s-37.82 35.77 19.61 47.69c0 0 5.15 26.39 6.99 25.12 1.83-1.27 22.24 2.35 16.39 27.83-5.84 25.48 20.75 20.49 20.75 20.49s14.68 6.36 26.14-15.2 15.59-38.98 15.59-61.91c0 0-1.83-31.64-33.94-38.98-32.1-7.34-51.93-9.63-51.93-9.63s-14.43-1.4-19.6 4.59z"/><ellipse transform="rotate(-73.076 672.144 330.11)" class="st7" cx="672.15" cy="330.11" rx="13.98" ry="9.96"/><path class="st15" d="M565.36 608.26s-39.39-24.31-35.26 16.51c4.13 40.82 25.3 53.17 46.13 63.28 20.83 10.1 74.49 24.78 77.24 22.94 2.75-1.83 31.64-.46 65.12-18.8l70.17-26.14s53.66-35.31 62.37-77.04 0-128.87 0-128.87-14.22-39.9-48.15-24.31c-33.94 15.59-87.13 43.11-87.13 43.11s-36.23 31.64-47.24 74.75l-39.9 84.38-63.35-29.81z"/><path class="st16" d="m413.44 348.94-121.81 61.21-39.66-87.64 127.32-60.7z"/><path class="st16" d="m411.48 349.93 79.82 30.57c2.84 1.09 3.14 4.98.5 6.49L376 453.25l-84.38-43.1 119.86-60.22z"/><path style="opacity:.85;fill:#f7f7f7" d="m411.48 349.93 79.82 30.56-116.66 64.54-83.01-34.88z"/><path style="fill:#cecece" d="m406.51 345.07-114.88 54.52-30.52-72.03 115.36-54.99z"/><path style="opacity:.06;fill:none;stroke:#69a5ef;stroke-width:3;stroke-miterlimit:10" d="m408.57 465.41 34.4-20.38"/><g><path class="st20" d="m221.92 389.97 20.64 7.51 18.55-9.8-19.59-7.8z"/><path class="st20" d="m241.52 436.29 19.59-10.02v-38.59l-39.19 2.29v39.9z"/><path class="st15" d="m196.65 412.33 20.64 6.41 18.54-8.37-19.59-6.66z"/><path class="st15" d="m216.24 451.88 19.59-8.55v-32.96l-39.18 1.96v34.07z"/><g><path class="st21" d="m169.25 437.66 19.2 7.37 20.98-11.27-20.68-6.65z"/><path class="st21" d="m191.38 466.55 19.59-11.33-1.54-21.46-38.72 3.29 1.07 21.86z"/></g></g><path d="m274.54 454.82 34.53-14.86 18.57 12.92-33.62 17.77c-.67.36-1.49.31-2.11-.12l-17.71-12.14c-1.33-.92-1.14-2.94.34-3.57z" style="fill:#346fba"/><g><path class="st16" d="m374.03 503.55 1.53 13.45 50.22-20.64-1.32-6.98a4.664 4.664 0 0 0-6.32-3.46l-44.11 17.63z"/><path class="st16" d="m375.55 517 37.88 26.29 47.06-19.39c1.47-.6 1.68-2.59.37-3.49l-35.1-24.06L375.55 517z"/><path class="st23" d="m378.33 504.31 2.1 8.21 40.89-16.9-1.53-4.22c-.63-1.74-3.29-2.53-5.51-1.63l-35.95 14.54zM426.79 512.3l-6.66 3.6-4.3-3.46 6.54-3.46zM418.92 506.95l-6.66 3.59-4.29-3.45 6.54-3.46zM407.14 510.58l-6.66 3.59-4.29-3.46 6.54-3.46zM394.3 515.87l-6.66 3.59-4.29-3.46 6.54-3.45zM403.58 521.68l-6.66 3.59-4.3-3.46 6.54-3.46zM414.61 516.87l-6.66 3.59-4.29-3.46 6.54-3.46zM423.48 522.78l-6.66 3.59-4.3-3.45 6.54-3.46zM432.26 529.32l-6.66 3.59-4.29-3.46 6.54-3.46zM411.52 527.45l-6.65 3.59-4.3-3.46 6.54-3.45zM420.09 533.85l-6.66 3.59-4.3-3.46 6.54-3.45zM429.87 501.16l-6.66 3.59-4.29-3.46 6.54-3.46zM438.58 507.12l-6.65 3.59-4.3-3.46 6.54-3.45z"/><path class="st20" d="m455.66 519.14-6.43 3.2-13.76-9.69 6.58-2.99z"/><path class="st23" d="m435.35 518.22-6.66 3.59-4.3-3.46 6.55-3.45zM444.06 523.99l-6.66 3.59-4.29-3.45 6.54-3.46z"/></g><path class="st12" d="m237.36 343.68 28.74-11.65 7.03 17.9-9.78 4.42-2.24 6.73-3.87-3.67-13.15 5.2z"/><path class="st23" d="m270.99 326.45 25.91 66.73 103.42-49.5-28.17-63.34z"/><path class="st24" d="m350.33 292.53 25.91 60.06M287.73 366.12l100.44-46.32"/><path class="st13" d="M286.59 354.89s1.15-4.82 6.42-3.9c5.27.92 9.86 1.15 9.86-5.5s-2.06-16.05 2.75-14.45c4.82 1.61 8.03 9.4 8.03 9.4s6.42 5.96 5.73-2.29c-.69-8.25 7.26-1.39 7.26-1.39s2.88 7.32 6.06 0c3.18-7.32 8.92-4.73 8.92-4.73s9.4 9.1 11.01-5.58c0 0-5.73-21.55 3.67-23.39"/><path class="st13" d="m315.71 315.68 5.73 13.29 18.57-9.17-6.2-12.84z"/><path class="st3" d="m320.52 317.97 11.01-5.47M322.59 322.56l10.11-5.51M299.98 376.77c.46 1.7 2.54 3.16 4.83 3.49 4.48.65 7.98-3.86 7.04-8.54-.52-2.59-3.92-4.72-7.29-4.03-3.96.81-5.67 4.98-4.58 9.08z"/><path class="st3" d="m302.64 375.06 4.58 1.38v-5.96"/><circle class="st25" cx="368.79" cy="297.45" r="9.51"/><circle class="st23" cx="368.79" cy="297.45" r="6.21"/><path class="st13" d="m368.79 313.61 13.18-5.96M371.66 317.97l12.15-5.47"/><g><ellipse class="st14" cx="297.88" cy="507.94" rx="24.75" ry="11.27"/><ellipse class="st26" cx="297.88" cy="507.2" rx="22.89" ry="9.61"/><path class="st27" d="M289.37 505.86s1.15 4.68 6.65 3.77c3.7-.62 3.67-2.61 3.25-3.85-.43-1.3-.07-2.81 1.08-3.55 1.29-.84 3.58-.84 7.6 2.52M307.95 502.14l-1.91 1.17M289.37 509.74l1.55-1.38"/></g><g><path transform="rotate(-26.729 295.376 451.718)" class="st16" d="M276.15 449.77h38.52v4h-38.52z"/></g><g><path transform="rotate(-26.285 304.688 452.027)" class="st23" d="M297.09 450.54h15.28v3h-15.28z"/></g><g><path transform="rotate(-27.782 309.86 455.11)" class="st23" d="M302.95 453.59h13.78v3h-13.78z"/></g><g><path class="st21" d="m365.27 501.58-39.53-26.85 24.02-14.77 42.07 24.39-25.3 17.63"/><path class="st28" d="m364.5 499.01-34.64-23.53 21.05-12.95 36.87 21.38-22.18 15.45"/><path class="st21" d="m364.07 497.55-31.88-21.65 19.37-11.91 33.92 19.67-20.4 14.21"/><ellipse transform="rotate(-12.11 354.786 478.462)" class="st28" cx="354.85" cy="478.53" rx="12.26" ry="5.83"/><ellipse transform="rotate(-12.11 354.786 478.462)" class="st29" cx="354.85" cy="478.53" rx="11.23" ry="5.35"/><path class="st30" d="M348.13 479.41s1.41 2.91 4.89 1.53c2.34-.92 2.04-2.23 1.59-2.98-.47-.79-.44-1.83.21-2.48.73-.73 2.23-1.05 5.33.58M359.79 474.36l-1.09 1.03M348.68 481.96l.82-1.12"/><g><path class="st31" d="M349.14 479.19s1.41 2.91 4.89 1.53c2.34-.92 2.04-2.23 1.59-2.98-.47-.79-.44-1.83.21-2.48.73-.73 2.23-1.05 5.33.58M360.8 474.14l-1.09 1.04M349.69 481.74l.82-1.12"/></g><g><path class="st21" d="m340.24 506.6-33.02-34.54 26.59-9.41 36.01 32.68-28.43 11.92"/><path class="st28" d="m340.03 503.93-28.94-30.28 23.3-8.24 31.56 28.64-24.92 10.45"/><path class="st21" d="m339.91 502.41-26.62-27.85 21.43-7.59 29.04 26.35-22.93 9.61"/><ellipse class="st28" cx="334.88" cy="481.88" rx="12.26" ry="5.83"/><ellipse class="st29" cx="334.88" cy="481.88" rx="11.23" ry="5.35"/><path class="st30" d="M328.13 481.33s.77 3.14 4.46 2.53c2.48-.41 2.46-1.75 2.18-2.58-.29-.87-.05-1.88.72-2.38.86-.56 2.4-.56 5.09 1.69M340.59 478.84l-1.28.78M328.13 483.94l1.04-.93"/><g><path class="st31" d="M329.17 481.33s.77 3.14 4.46 2.53c2.48-.41 2.46-1.75 2.18-2.58-.29-.87-.05-1.88.72-2.38.86-.56 2.4-.56 5.09 1.69M341.63 478.84l-1.28.78M329.17 483.94l1.04-.93"/></g></g></g><path class="st25" d="m310.32 407.85 102.38-52.16 39.65 14.79-103.17 52.85z"/><g><path class="st32" d="m320.41 410.83 100.9-51.93M339.55 418.75l101.42-51.19M324.72 400.52l7.04 3.44"/><path class="st33" d="m341.5 398.68-6.74-3.28M351.71 393.18l-6.76-2.97M360.65 388.48l-6.02-3.21M371.89 383.55l-7.53-3.23M381.33 378.16l-6.96-2.94M391.83 373.46l-8.16-2.98M400.32 368.41l-6.85-2.92M411.1 363.83l-7.95-3.28M415.11 369.68l-6.65-3.56M405.59 374.61l-5.96-3.44M334.76 411.98l96.69-49.3M329.12 407.17l7.27 3.98M339.55 402.24l7.99 3.23M348.33 397.04l9.31 2.9M358.59 392.26l8.82 3.07M368.9 386.04l8.03 4.17M378.99 381.93l8.15 3.34M389.31 376.69l7.49 2.85M336.39 411.98l8.56 3.56M346.34 406.07l9.04 4.08M356.29 401.59l8.07 3.51M365.46 397.04l7.92 2.9M376.24 391.23l8.49 3.44M385.64 386.04l9.06 4.17M396.19 381.25l8.71 3.62M405.59 376.44l8.72 3.88M414.81 371.17l9.58 4.05"/><path class="st32" d="m362.48 408.11 8.38 3.87M371.89 402.92l8.59 4.25M382.43 398.49l7.74 3.75M391.83 393.18l8.72 3.21M401.46 388.13l9.64 3.1M411.78 383.06l9.06 2.98M421.31 378.38l10 2.87M431.45 373.46l8.77 2.98"/></g><g><path class="st34" d="m358.07 426.86 8.37-4.13M369.88 420.89l7.05-3.46M379.9 415.17l5.8-3.02M363.46 419.12l6.42-3.38"/></g><path class="st25" d="m403.15 408.11 25.72-14.31 17.31 7.79-25.34 14.75zM383.35 406.59l47.35-24.66 7.34 4.11-46.78 25.11zM433.06 381.25l21.41-10.58 7.34 4.11-20.84 11.03z"/><path style="fill:none;stroke:#f7f7f7;stroke-width:2;stroke-linecap:round;stroke-miterlimit:10" d="m444.92 376.44 5.84 3.1"/><g><ellipse class="st14" cx="246.67" cy="489.34" rx="24.75" ry="11.27"/><ellipse class="st26" cx="246.67" cy="488.59" rx="22.89" ry="9.61"/><path class="st27" d="M238.16 487.25s1.15 4.68 6.65 3.77c3.7-.62 3.67-2.61 3.25-3.85-.43-1.3-.07-2.81 1.08-3.55 1.29-.84 3.58-.84 7.6 2.52M256.74 483.54l-1.91 1.16M238.16 491.14l1.55-1.38"/><g><ellipse class="st14" cx="246.67" cy="482.39" rx="24.75" ry="11.27"/><ellipse class="st26" cx="246.67" cy="481.65" rx="22.89" ry="9.61"/><path class="st27" d="M238.16 480.31s1.15 4.68 6.65 3.77c3.7-.62 3.67-2.61 3.25-3.85-.43-1.3-.07-2.81 1.08-3.55 1.29-.84 3.58-.84 7.6 2.52M256.74 476.59l-1.91 1.17M238.16 484.19l1.55-1.38"/></g><g><ellipse class="st14" cx="246.67" cy="476.12" rx="24.75" ry="11.27"/><ellipse class="st26" cx="246.67" cy="475.38" rx="22.89" ry="9.61"/><path class="st27" d="M238.16 474.03s1.15 4.68 6.65 3.77c3.7-.62 3.67-2.61 3.25-3.85-.43-1.3-.07-2.81 1.08-3.55 1.29-.84 3.58-.84 7.6 2.52M256.74 470.32l-1.91 1.16M238.16 477.92l1.55-1.38"/></g></g><path class="st32" d="m246.67 347.07 17.6-7.7M248.98 352.59l17.43-7.11"/></svg>