<?xml version="1.0" encoding="utf-8"?>
<!-- Generator: Adobe Illustrator 24.3.0, SVG Export Plug-In . SVG Version: 6.00 Build 0)  -->
<svg version="1.1" id="Layer_1" xmlns="http://www.w3.org/2000/svg" xmlns:xlink="http://www.w3.org/1999/xlink" x="0px" y="0px"
	 viewBox="0 0 875.01 878.68" style="enable-background:new 0 0 875.01 878.68;" xml:space="preserve">
<style type="text/css">
	.st0{fill:#D2C9F7;}
	.st1{clip-path:url(#SVGID_2_);fill:#8151CE;}
	.st2{clip-path:url(#SVGID_2_);fill:#D2C9F7;}
	.st3{clip-path:url(#SVGID_2_);}
	.st4{fill:#231F20;}
	.st5{fill:#414042;}
	.st6{fill:#E8E8E8;}
	.st7{opacity:0.12;clip-path:url(#SVGID_2_);fill:#060807;}
	.st8{fill:#0E2044;}
	.st9{opacity:0.58;fill:#EAF3FA;}
	.st10{fill:#F1F2F2;}
	.st11{fill:#060807;}
	.st12{opacity:0.82;fill:#FF5660;}
	.st13{fill:#585958;}
	.st14{fill:#514750;}
	.st15{fill:#0B8E00;}
	.st16{fill:#DE1E1B;}
	.st17{fill:#DA2127;}
	.st18{fill:#414141;}
	.st19{fill:#404040;}
	.st20{fill:#D1CBCB;}
	.st21{fill:#9E6DCC;}
	.st22{fill:#A7A9AC;}
	.st23{fill:#FF5660;}
	.st24{fill:#F49E21;}
	.st25{fill:#BCBEC0;}
	.st26{fill:#F42900;}
	.st27{fill:#1E6FA5;}
	.st28{fill:#FFFFFF;}
	.st29{fill:#5CB1E0;}
	.st30{opacity:0.26;fill:#F1F2F2;}
</style>
<g>
	<circle class="st0" cx="439.2" cy="440.83" r="428.23"/>
	<g>
		<defs>
			<circle id="SVGID_1_" cx="439.2" cy="440.83" r="428.23"/>
		</defs>
		<clipPath id="SVGID_2_">
			<use xlink:href="#SVGID_1_"  style="overflow:visible;"/>
		</clipPath>
		<circle class="st1" cx="439.2" cy="440.83" r="413.73"/>
		<circle class="st2" cx="439.2" cy="440.83" r="389.47"/>
		<g class="st3">
			<polygon class="st4" points="282.35,487.33 228.71,464.16 69.59,472.8 132.23,502.99 			"/>
			<polygon class="st4" points="128.81,496.94 69.49,470.98 70.53,522.64 131.82,552.43 			"/>
			<g>
				<path class="st5" d="M134.62,554.58l150.68-8.18c3.67-0.2,6.48-3.33,6.28-7l-2.48-45.78c-0.2-3.67-3.33-6.48-7-6.28
					l-150.68,8.18c-3.67,0.2-6.48,3.33-6.28,7l2.48,45.78C127.82,551.97,130.95,554.78,134.62,554.58z"/>
				<g>
					<g>
						<path class="st4" d="M140.12,509.76l45.4-2.46c0.8-0.04,1.41-0.72,1.36-1.52s-0.72-1.41-1.52-1.36l-45.4,2.46
							c-0.8,0.04-1.41,0.72-1.36,1.52S139.32,509.8,140.12,509.76z"/>
					</g>
					<g>
						<path class="st4" d="M140.51,516.93l45.4-2.46c0.8-0.04,1.41-0.72,1.36-1.52c-0.04-0.8-0.72-1.41-1.52-1.36l-45.4,2.46
							c-0.8,0.04-1.41,0.72-1.36,1.52C139.03,516.36,139.71,516.97,140.51,516.93z"/>
					</g>
					<g>
						<path class="st4" d="M140.9,524.1l45.4-2.46c0.8-0.04,1.41-0.72,1.36-1.52s-0.72-1.41-1.52-1.36l-45.4,2.46
							c-0.8,0.04-1.41,0.72-1.36,1.52S140.1,524.14,140.9,524.1z"/>
					</g>
					<g>
						<path class="st4" d="M141.28,531.27l45.4-2.46c0.8-0.04,1.41-0.72,1.36-1.52c-0.04-0.8-0.72-1.41-1.52-1.36l-45.4,2.46
							c-0.8,0.04-1.41,0.72-1.36,1.52C139.81,530.7,140.49,531.31,141.28,531.27z"/>
					</g>
					<g>
						<path class="st4" d="M141.67,538.44l45.4-2.46c0.8-0.04,1.41-0.72,1.36-1.52s-0.72-1.41-1.52-1.36l-45.4,2.46
							c-0.8,0.04-1.41,0.72-1.36,1.52S140.88,538.49,141.67,538.44z"/>
					</g>
					<g>
						<path class="st4" d="M142.06,545.61l45.4-2.46c0.8-0.04,1.41-0.72,1.36-1.52c-0.04-0.8-0.72-1.41-1.52-1.36l-45.4,2.46
							c-0.8,0.04-1.41,0.72-1.36,1.52C140.59,545.05,141.27,545.66,142.06,545.61z"/>
					</g>
				</g>
				<circle class="st4" cx="257.33" cy="519.19" r="21.63"/>
				<circle class="st6" cx="257.33" cy="519.19" r="18.66"/>
			</g>
		</g>
		<polygon class="st7" points="248.96,517.95 420.82,662.57 499.68,552.71 251.71,514.37 		"/>
		<g class="st3">
			<polygon class="st8" points="467.77,443.3 345.19,443.3 371.72,527.52 545.77,527.52 545.77,520.22 494.52,517.65 			"/>
			<circle class="st9" cx="415.8" cy="483.07" r="7.37"/>
		</g>
		<g class="st3">
			<g>
				<rect x="149.63" y="205.37" class="st10" width="328.44" height="225.18"/>
				<g>
					<path class="st11" d="M480.78,433.94H152.34c-1.87,0-3.39-1.52-3.39-3.39s1.52-3.39,3.39-3.39h328.44
						c1.87,0,3.39,1.52,3.39,3.39S482.66,433.94,480.78,433.94z"/>
				</g>
				<path class="st11" d="M474.46,217.81H152c-4.74,0-8.59-3.84-8.59-8.59v-7.71c0-4.74,3.84-8.59,8.59-8.59h322.46
					c4.74,0,8.59,3.84,8.59,8.59v7.71C483.05,213.96,479.2,217.81,474.46,217.81z"/>
			</g>
			<circle class="st12" cx="312.91" cy="317.96" r="68.57"/>
		</g>
		<g class="st3">
			<polygon class="st13" points="335.01,702.72 283.7,677.14 176.31,682.97 227.57,708.55 			"/>
			<polygon class="st14" points="335.01,702.72 335.77,716.69 229.4,722.46 227.57,708.55 			"/>
			<path class="st14" d="M227.57,708.55l1.83,13.91c0,0-53.42-25.81-53.57-28.41c-0.38-6.72,0.49-11.08,0.49-11.08L227.57,708.55z"
				/>
			<g>
				
					<ellipse transform="matrix(0.9985 -0.0542 0.0542 0.9985 -37.3183 17.0998)" class="st15" cx="296.65" cy="696.68" rx="7.82" ry="2.93"/>
				
					<rect x="288.76" y="693.75" transform="matrix(0.9985 -0.0542 0.0542 0.9985 -37.2392 17.0933)" class="st15" width="15.63" height="2.93"/>
				
					<ellipse transform="matrix(0.9985 -0.0542 0.0542 0.9985 -37.1601 17.0869)" class="st15" cx="296.49" cy="693.76" rx="7.82" ry="2.93"/>
			</g>
			<g>
				
					<ellipse transform="matrix(0.9985 -0.0542 0.0542 0.9985 -37.4417 15.9305)" class="st16" cx="275.03" cy="698.37" rx="7.82" ry="2.93"/>
				
					<rect x="267.13" y="695.44" transform="matrix(0.9985 -0.0542 0.0542 0.9985 -37.3626 15.9241)" class="st17" width="15.63" height="2.93"/>
				
					<ellipse transform="matrix(0.9985 -0.0542 0.0542 0.9985 -37.2835 15.9176)" class="st17" cx="274.87" cy="695.45" rx="7.82" ry="2.93"/>
			</g>
			<path class="st14" d="M291.39,599.71c0,0,12.16,15.65,31.54,4.16c0,0,5.82-9.01-0.82-15.18c-6.64-6.16-25.67-8.17-31.22,1.69
				c0,0-21.46,4.64-34.54,28.62c0,0-17.03,30.71-12.57,68.96l8.89-0.48c0,0-2.96-38.54,9.37-59.65
				C274.37,606.72,278.21,605.21,291.39,599.71z"/>
			
				<ellipse transform="matrix(0.9985 -0.0542 0.0542 0.9985 -36.8861 14.4691)" class="st14" cx="248.36" cy="687.39" rx="7" ry="2.28"/>
		</g>
		<g class="st3">
			<g>
				<path class="st18" d="M554.93,576.86c-0.27,0-0.55-0.03-0.83-0.09c-2.2-0.45-3.62-2.61-3.17-4.81l31.14-150.78
					c0.45-2.2,2.62-3.62,4.81-3.17c2.2,0.45,3.62,2.61,3.17,4.81l-31.14,150.78C558.52,575.53,556.82,576.86,554.93,576.86z"/>
			</g>
			<g>
				<path class="st18" d="M630.92,544.47c-2.25,0-4.07-1.82-4.07-4.07V422.01c0-2.25,1.82-4.07,4.07-4.07
					c2.25,0,4.07,1.82,4.07,4.07V540.4C634.99,542.65,633.17,544.47,630.92,544.47z"/>
			</g>
			<g>
				<path class="st18" d="M707.53,576.86c-1.89,0-3.59-1.33-3.99-3.25L672.4,422.83c-0.45-2.2,0.96-4.36,3.17-4.81
					c2.2-0.45,4.36,0.96,4.81,3.17l31.14,150.78c0.45,2.2-0.96,4.36-3.17,4.81C708.08,576.83,707.8,576.86,707.53,576.86z"/>
			</g>
			<rect x="541.22" y="178.5" class="st18" width="189.35" height="243.5"/>
			<rect x="550.91" y="178.5" class="st10" width="169.98" height="231.71"/>
			<g>
				<path class="st19" d="M651.25,193.45h-36.92c-2.53,0-4.59-2.05-4.59-4.59v-5.15c0-2.53,2.05-4.59,4.59-4.59h36.92
					c2.53,0,4.59,2.05,4.59,4.59v5.15C655.83,191.4,653.78,193.45,651.25,193.45z"/>
				<circle class="st19" cx="633.18" cy="171.03" r="9.97"/>
				<circle class="st20" cx="633.18" cy="171.03" r="7.05"/>
			</g>
			<g>
				<rect x="570.5" y="212.14" class="st21" width="56.34" height="56.34"/>
				<rect x="566.76" y="336.69" class="st22" width="33.97" height="33.97"/>
				<rect x="618.91" y="336.69" class="st23" width="33.97" height="33.97"/>
				<rect x="667.7" y="336.69" class="st24" width="33.97" height="33.97"/>
				<g>
					<rect x="647.79" y="221.2" class="st25" width="63.82" height="6.79"/>
				</g>
				<g>
					<rect x="647.79" y="236.92" class="st25" width="63.82" height="6.79"/>
				</g>
				<g>
					<rect x="566.76" y="287.57" class="st25" width="140.77" height="5.71"/>
				</g>
				<g>
					<rect x="566.76" y="300.25" class="st25" width="140.77" height="5.71"/>
				</g>
				<g>
					<rect x="566.76" y="312.65" class="st25" width="140.77" height="5.71"/>
				</g>
			</g>
		</g>
		<g class="st3">
			<polygon class="st26" points="439.2,705.72 439.2,730.01 622.94,730.01 666.54,702.6 665.41,680.18 621.7,707.47 			"/>
			<polygon class="st27" points="443.56,680.18 478.44,652.77 663.22,654.02 621.7,680.18 			"/>
			<path class="st28" d="M443.56,684.23c0,0,11.83,7.79,0,16.82h175.03c0,0,20.14-12.77,0-16.82
				C609.18,682.34,443.56,684.23,443.56,684.23z"/>
			<path class="st29" d="M618.72,688.28H442.18c-1.65,0-2.98-1.33-2.98-2.98v-2.14c0-1.65,1.33-2.98,2.98-2.98h176.54
				c1.65,0,2.98,1.33,2.98,2.98v2.14C621.7,686.94,620.36,688.28,618.72,688.28z"/>
			<path class="st29" d="M617.65,707.81H443.24c-2.24,0-4.05-1.81-4.05-4.05l0,0c0-2.24,1.81-4.05,4.05-4.05h174.41
				c2.24,0,4.05,1.81,4.05,4.05l0,0C621.7,706,619.89,707.81,617.65,707.81z"/>
			<path class="st28" d="M617.62,681.54v27.29l47.79-28.65c0,0-4.06-11.83-2.19-26.16L617.62,681.54z"/>
		</g>
		<g class="st3">
			<g>
				<path class="st24" d="M549.23,646.97c-0.14,1.18-1.17,2.08-2.38,2.02c-1.27-0.05-2.26-1.13-2.2-2.4l4.5-103.92
					c0.06-1.28,1.13-2.26,2.4-2.2c1.27,0.05,2.26,1.13,2.2,2.4l-4.5,103.92C549.24,646.85,549.23,646.91,549.23,646.97z"/>
			</g>
			<g>
				<path class="st26" d="M569.19,648.34c-0.14,1.18-1.17,2.08-2.38,2.02c-1.27-0.05-2.26-1.13-2.2-2.4l4.5-103.92
					c0.06-1.28,1.13-2.26,2.4-2.2c1.27,0.05,2.26,1.13,2.2,2.4l-4.5,103.92C569.2,648.23,569.2,648.28,569.19,648.34z"/>
			</g>
			<g>
				<path class="st11" d="M556.55,646.61c0.15,1.18-0.63,2.3-1.81,2.55c-1.24,0.26-2.46-0.54-2.72-1.78l-21.26-101.82
					c-0.26-1.25,0.54-2.46,1.78-2.72c1.24-0.26,2.46,0.54,2.72,1.78l21.26,101.82C556.53,646.49,556.54,646.55,556.55,646.61z"/>
			</g>
			<g>
				<path class="st27" d="M541.74,644.54c-0.15,1.18,0.63,2.3,1.81,2.55c1.24,0.26,2.46-0.54,2.72-1.78l21.26-101.82
					c0.26-1.25-0.54-2.46-1.78-2.72c-1.24-0.26-2.46,0.54-2.72,1.78l-21.26,101.82C541.75,644.43,541.74,644.48,541.74,644.54z"/>
			</g>
			<g>
				<path class="st29" d="M563.56,645.86c-0.15,1.18,0.63,2.3,1.81,2.55c1.24,0.26,2.46-0.54,2.72-1.78l21.26-101.82
					c0.26-1.25-0.54-2.46-1.78-2.72c-1.24-0.26-2.46,0.54-2.72,1.78l-21.26,101.82C563.58,645.74,563.57,645.8,563.56,645.86z"/>
			</g>
			<g>
				<path class="st24" d="M575.47,672.01h-41.04c-5.38,0-9.75-4.36-9.75-9.75v-63.63h60.54v63.63
					C585.22,667.65,580.85,672.01,575.47,672.01z"/>
				<path class="st30" d="M556.32,672.01h-20.87c-5.95,0-10.78-4.83-10.78-10.78v-62.6h31.64V672.01z"/>
			</g>
		</g>
	</g>
</g>
</svg>
