<svg version="1.1" id="Layer_1" xmlns="http://www.w3.org/2000/svg" x="0" y="0" viewBox="0 0 753.94 580.59" style="enable-background:new 0 0 753.94 580.59" xml:space="preserve"><style>.st1{fill:#0a2e50}.st2{fill:#f3a597}.st5{fill:#6b82c0}.st6{fill:#3470ba}.st8{fill:#3e9ed0}.st10{fill:#506088}.st12{fill:#fff}.st13{opacity:.6}</style><path d="M59.1 565.64s-70.29-66.16-47.2-128.58c5.39-14.56 16.58-26.15 30.59-32.84 17.91-8.55 49.23-31.89 56.97-92.19 0 0-26.6-58.24 31.18-85.76s64.2-100.89 64.2-100.89S215.02 21.74 276.47 9.82c34.21-6.64 67.27.08 89.85 7.35 14.53 4.67 28.17 11.81 40.25 21.14 20.72 15.99 67.44 44.89 109.75 20.12 0 0 150.42.64 142.85 164.04 0 0-8.9 71.68 33.5 89.57 42.4 17.89 9.21 82.09 9.21 82.09s-16.73 50.45 12.36 68.79 41.01 80.23 7.07 96.76L59.1 565.64z" style="fill:#e5d1f7"/><path class="st1" d="M363.99 184.91s-9.66-8.53-27.69-3.83c-18.02 4.7-33.02 66.83-15 97.85l-13.52 31.03s-20.63 20.68-4.51 40.43-6.16 42.31-6.16 42.31v20.68s45.06-64.87 83-65.81v-13.09l-28.13-30.16s-24.01-64.46 2.06-91.46c26.07-27.01 9.95-27.95 9.95-27.95z"/><path class="st2" d="m465.42 400.54-88.06 15.59s-25.22-28.43-9.63-45.86c4.32-4.82 6.99-10.77 8.58-16.86 4.17-15.88 1.05-32.67 1.05-32.67l47.7-8.71.57 2.83 6.77 33.4 29.39 7.2 3.63 45.08z"/><path d="M376.31 371.19c4.17-22.7 1.05-46.71 1.05-46.71l47.7-12.45.57 4.05-49.32 55.11z" style="opacity:.13"/><path d="M377.36 350.01s3.89 37.69 34.05 29.43c30.16-8.25 20.99-34.85 20.99-34.85s56.08 10.2 76.13 40.36c20.05 30.16 68.79 118.32 68.79 118.32s30.27 57.78-14.68 55.03l-80.31 4.23-59.1 3.11-11.81-34.85 100.78-12.84s16.51 0-2.75-17.43l-21.1-26.6s-25.28 78.88-12.84 88.97l-155.01-3.21V515.2s2.75-16.51-8.25-9.17-47.69 53.2-47.69 53.2l-60.54-7.34 69.71-102.73 28.32-42.5c-.01 0 37.71-54.81 75.31-56.65z" style="fill:#fca819"/><ellipse transform="rotate(-10.469 391.88 265.93)" class="st2" cx="391.79" cy="265.88" rx="51.29" ry="69.48"/><path class="st1" d="M358.1 180.41s-21.1 33.94 5.5 50.45 68.79 34.85 68.79 34.85l-5.5 81.17s59.62 8.71 81.63 38.06c22.01 29.35 41.27 68.79 41.27 68.79s54.11-18.34 37.61-70.62c0 0-37.61-38.52-30.27-66.04 7.34-27.52-30.27-46.09-30.27-46.09s-38.52 2.06-36.69-54.8c0 0-18.34-84.38-107.31-58.7l-24.76 22.93z"/><path class="st5" d="M246.66 539.96v19.72H357.4l-1.4-18.3z"/><path class="st5" d="m268.87 556.14-194.6 3.54-24.64-146.05c-1-5.93 3.56-11.34 9.58-11.36l182.86-.36 26.8 154.23z"/><path class="st6" d="M260.88 559.68H74.23l-25.22-146.3h186.65z"/><circle cx="152.12" cy="481.64" r="15.59" style="fill:#8299cc"/><ellipse class="st8" cx="438.36" cy="270.02" rx="17.89" ry="22.47"/><path class="st6" d="M655.28 557.36h-29.83c-5.57 0-10.08-4.51-10.08-10.08v-63.73h49.99v63.73c0 5.57-4.51 10.08-10.08 10.08z"/><path d="M666.46 546.86c-5.1 0-9-.71-9.36-.78l.93-4.91c.17.03 17.13 3.11 25.3-4.05 3.19-2.8 4.6-6.78 4.3-12.16-.33-5.96-2.37-10.39-6.07-13.16-7.9-5.91-21-2.92-21.13-2.89l-1.16-4.86c.63-.15 15.47-3.57 25.26 3.73 4.95 3.7 7.67 9.39 8.08 16.91.38 6.93-1.64 12.38-6.01 16.2-5.54 4.86-13.78 5.97-20.14 5.97z" style="fill:#1084ad"/><path class="st8" d="m338.47 258.24 9.69 48.75s-22.33-10.55-19.12-30.73 9.43-18.02 9.43-18.02z"/><path class="st10" d="M652.98 557.36v-73.81h12.38v61.43c0 6.84-5.54 12.38-12.38 12.38zM38.92 557.36h667.26v18.85H38.92z"/><path class="st2" d="M420.17 532.62s-13.19 5.04-35.49 0c-22.29-5.04-40.04 9.17-40.04 9.17l-19.11 23.39s-4.55 13.76 15.47 10.55c20.02-3.21 24.11-13.3 24.11-13.3s20.02-5.5 25.48 6.42c0 0 21.84-1.97 33.67-14.97l-4.09-21.26z"/><path d="M704.8 84.57H536.96c-11.4 0-20.64 9.24-20.64 20.64v88.05c0 11.4 9.24 20.64 20.64 20.64h4.13v33.66l37.84-33.66H704.8c11.4 0 20.64-9.24 20.64-20.64V105.2c0-11.39-9.24-20.63-20.64-20.63z" style="fill:#ef505d"/><path class="st12" d="M698.38 113.29h-157.3c-1.93 0-3.5-1.57-3.5-3.5s1.57-3.5 3.5-3.5h157.3c1.93 0 3.5 1.57 3.5 3.5s-1.57 3.5-3.5 3.5zM698.27 137.75H541.19c-1.99 0-3.61-1.57-3.61-3.5s1.62-3.5 3.61-3.5h157.08c1.99 0 3.61 1.57 3.61 3.5s-1.62 3.5-3.61 3.5zM621.8 162.21h-80.71c-1.93 0-3.5-1.57-3.5-3.5s1.57-3.5 3.5-3.5h80.71c1.93 0 3.5 1.57 3.5 3.5s-1.57 3.5-3.5 3.5zM588.78 186.67h-47.69c-1.93 0-3.5-1.57-3.5-3.5s1.57-3.5 3.5-3.5h47.69c1.93 0 3.5 1.57 3.5 3.5s-1.57 3.5-3.5 3.5zM698.73 162.21h-47.69c-1.93 0-3.5-1.57-3.5-3.5s1.57-3.5 3.5-3.5h47.69c1.93 0 3.5 1.57 3.5 3.5s-1.56 3.5-3.5 3.5z"/><g class="st13"><path class="st12" d="M640.37 476.42c-.14 0-.28-.01-.42-.03-.53-.09-12.98-2.3-18.39-14.15-5.45-11.94-1.62-28.82 11.4-50.15 31.66-51.89 12.94-72.91 12.75-73.12a2.497 2.497 0 1 1 3.65-3.41c.89.96 21.49 24.03-12.13 79.14-11.91 19.51-15.76 35.22-11.14 45.41 4.27 9.44 14.6 11.34 14.7 11.36 1.36.24 2.27 1.53 2.04 2.88a2.497 2.497 0 0 1-2.46 2.07z"/></g><g class="st13"><path class="st12" d="M647.54 468.55c-.88 0-1.74-.47-2.19-1.29-.2-.35-19.17-35.69 12.47-55.97 1.16-.74 2.71-.41 3.45.75s.41 2.71-.75 3.45c-11.62 7.45-16.98 17.97-15.94 31.25.79 10.1 5.1 18.02 5.14 18.1a2.5 2.5 0 0 1-2.18 3.71z"/></g></svg>