<svg version="1.1" id="Layer_1" xmlns="http://www.w3.org/2000/svg" x="0" y="0" viewBox="0 0 1000 906" style="enable-background:new 0 0 1000 906" xml:space="preserve"><style>.st0{fill:#cfb5f6}.st2{fill:#231f20}.st3{fill:#f1f2f2}.st4{fill:#4570ad}.st5{fill:#fff}.st6{fill:none;stroke:#fff;stroke-width:2;stroke-miterlimit:10}.st7{fill:#ff4d53}.st9{opacity:.51;fill:#231f20}.st10{fill:#fc7a83}.st11{opacity:.22;fill:#fff}.st12{fill:#f29b5f}.st14{opacity:.45;fill:#414042}.st15{fill:#feac02}.st16{fill:#f9c29d}.st17{fill:#d1d3d4}</style><path class="st0" d="M142.4 425.4S62.6 621.3 87.1 699.8s69.7 212.1 462.3 177.4c0 0 259.1-74.7 257.9-232C806.1 487.8 678.7 414.4 667 414c-11.7-.3-249-199.3-524.6 11.4z"/><path d="M942 386.7c0 215.6-159.8 415.1-369.6 415.1S131.3 524.1 131.3 308.5 365.8 12 575.6 12 942 171 942 386.7z" style="fill:#e2d5f8"/><path class="st0" d="M929.7 395.1c0 211.3-154.7 406.6-357.8 406.6s-427-272-427-483.2S371.9 28.1 575 28.1s354.7 155.7 354.7 367z"/><path transform="rotate(-12.88 260.545 102.184)" class="st2" d="M164.4 79.6h192.1v45.2H164.4z"/><path transform="rotate(-12.88 260.804 103.316)" class="st3" d="M164.7 81.9h192.1v42.9H164.7z"/><path transform="rotate(-12.516 260.717 99.474)" class="st2" d="M173.7 98.8h173.9v1.2H173.7z"/><path class="st4" d="M228.3 138.7h63v63h-63zM199.9 201.7h117.4v65.5H199.9zM349.4 534.2H162.8V294.6c0-15.1 12.3-27.4 27.4-27.4h131.9c15.1 0 27.4 12.3 27.4 27.4v239.6z"/><path class="st5" d="M284.5 140.7s32.8 70.9 105.1 81.4v-20.4s-54-17.4-67.2-70.2l-37.9 9.2z"/><path class="st2" d="M373.8 208.4c-64-35.7-57.5-62.2-57.1-63.3l1.2.3c-.1.3-6.4 26.8 56.6 61.9l-.7 1.1z"/><path transform="rotate(-12.88 260.557 105.599)" class="st2" d="M198.5 70h123.9v71.2H198.5z"/><path transform="rotate(-12.88 259.278 105.988)" class="st5" d="M195.3 72.9H323V139H195.3z"/><path transform="rotate(-11.431 255.59 82.904)" class="st2" d="M209.9 82.3h91.4v1.2h-91.4z"/><g><path class="st5" d="M266 202.9c-.7 0-1.2-.6-1.2-1.2v-38.9c0-.7.6-1.2 1.2-1.2.7 0 1.2.6 1.2 1.2v38.9c0 .7-.5 1.2-1.2 1.2z"/></g><path class="st6" d="M291.3 222.1v38.8"/><g><path class="st2" d="M704.2 752.6 824 738.4s-3 18.1-21 24.7c-17.9 6.6-67.9 11.3-67.9 11.3l-30.9-21.8zM142.4 688s23.1 6.2 41.2 0 23-51 23-51l-52.1-9.7-12.1 60.7zM382.2 698.9s1.3-133.5 68.3-126.8 94.2 98 95.8 148.5c1.5 50.5-1.9 25.9-1.9 25.9l-158.3-46-3.9-1.6z"/><path class="st2" d="M466.3 598.7 489.7 798s47.7-8.7 59.7-16.6c12-7.8 23.3-37.4 24.5-46.7 0 0-11.2-146.4-74.3-138.1l-33.3 2.1z"/><path class="st7" d="M922.1 698.4s-1.6 19.5-28.2 28.3c-24.6 8.2-200.6 46-321.7 25.8-9.5-1.6-18.7-3.5-27.5-5.9l-.3-.1c.2-1.2.4-2.3.6-3.5 7-43.8-15.2-95.6-15.2-95.6-37.8-98.6-99.7-67.8-99.7-67.8-37.8 10.9-43.5 86.9-44.1 120.1l-4.3-1.3L176.4 637l-1.4-.5c.1-1.9 0-4-.4-6.3-6.2-35.5-22.2-93-48.7-94.9-25.2-1.8-25.5 71.4-25.5 78.6-5.3-1.4-12.7-6.2-13-21.8-.5-24.1 0-95.2 0-95.2s10.2-22.2 31.7-30.3 20.4-18.5 20.4-18.5 21.3-26.2 52.7-48c24.2-16.7 54.4-30.7 85.6-28.1 0 0 164.6-8.7 272 21.6s153.1 66.1 177.8 91.5c0 0 8.1 6.8 25.1 11.7 0 0 99.8 13.6 141.2 66.7 0 0 38.9 29.7 25.3 110 0 .3-4.2 17.4 2.9 24.9z"/><path d="M719 646.3c-51.1 70.3-110 96.5-146.8 106.3-9.5-1.6-18.7-3.5-27.5-5.9l-.3-.1c.2-1.2.4-2.3.6-3.5 7-43.8-15.2-95.6-15.2-95.6-37.8-98.6-99.7-67.8-99.7-67.8-37.8 10.9-43.5 86.9-44.1 120.1l-4.3-1.3L176.4 637l-1.4-.5c.1-1.9 0-4-.4-6.3-6.2-35.5-22.2-93-48.7-94.9-25.2-1.8-25.5 71.4-25.5 78.6-5.3-1.4-12.7-6.2-13-21.8-.5-24.1 0-95.2 0-95.2s10.2-22.2 31.7-30.3 20.4-18.5 20.4-18.5 21.3-26.2 52.7-48c20.7-11 59.9-26.5 106.1-18.2 68.8 12.4 101.8 74.2 113.6 97.6 11.7 23.5 77.9 36.1 77.9 36.1 171.2 27.5 237.9 82.9 237.9 82.9 28.3 16.7-8.7 47.8-8.7 47.8z" style="opacity:.23;fill:#fff"/><path class="st2" d="M345.4 386.5s53.5 38.9 81.3 87.1c0 0 6.8 17.1 53.1 16.6s224.3 0 224.3 0-79.5-72.5-157.8-85.3c.1 0-167.8-25.2-200.9-18.4z"/><path class="st9" d="M719 598.8c-11.1 18.9-64.1 15.8-64.1 15.8h-53.3c-58.1-6.1-71.8-49.8-71.8-49.8 6.3-1.1 12.9-1.9 19.7-2.2 60.4-3.3 133.9 22.4 159.9 32.4 6.1 2.3 9.6 3.8 9.6 3.8z"/><path class="st7" d="M709.3 594.9c-36.6 20.2-91.6 10.3-117 3.9-17.2-4.4-34.1-22.8-42.9-36.2 60.4-3.3 133.9 22.3 159.9 32.3z"/><path class="st2" d="M753.8 607.7s103.8-25.9 151.9-8.9c0 0-83.7 38-151.9 8.9z"/><path class="st9" d="M614.5 665.6s172.5 22 228.7 10.2 62.5-22.7 62.5-22.7 19.1-2 4.5 13.1c-14.6 15.1-64.9 36.9-136.1 33.4l-159.6-34z"/><path class="st2" d="M714 741.8s14.4-22.4 51.1-23 128.7-18.9 128.7-18.9 22.9-5.5 2.5 13.2c0 .1-137.8 37.3-182.3 28.7z"/><path class="st10" d="M641.7 738.1h-2.3s-32.8 5.1-45.8-30.2l-1.3-14.3s-16.5-29 37.4-8.7c6 2.2 12.8 5.1 20.7 8.7l30.3 16.1c-.1 0 2.7 28.6-39 28.4z"/><path class="st2" d="M411.8 502.6s-36.5-83.3-74.8-101.2c-38.3-17.9-79.8-16.7-117.1-5.6s-64.6 49.3-64.6 49.3-8.5 17.4 19.3 24.2c27.8 6.8 179.8 40 237.2 33.3z"/><path class="st11" d="m509.5 416.6 33.5 72.5 161.2 1s-89.6-53-136-64.8c-40.7-10.2-58.7-8.7-58.7-8.7z"/><path class="st7" d="M641.7 738.1h-2.3s-32.8 5.1-45.8-30.2l-1.3-14.3s-16.5-29 37.4-8.7c5.4 16.3 12.4 40.1 12 53.2z"/><path class="st2" d="m100.3 614 74.6 22.5S163.5 536 125.8 535.4c0 0-29.3-4-25.5 78.6z"/><ellipse transform="rotate(-5.413 138.74 620.652) scale(.99996)" class="st10" cx="138.7" cy="620.7" rx="32.8" ry="73.1"/><ellipse transform="rotate(-5.413 138.74 618.18) scale(.99996)" class="st7" cx="138.7" cy="618.2" rx="24.6" ry="54.9"/><ellipse transform="rotate(-9.249 467.261 701.578)" class="st10" cx="467.1" cy="701.4" rx="64.2" ry="102"/><ellipse transform="rotate(-9.249 468.497 701.578)" class="st7" cx="468.3" cy="701.4" rx="49" ry="77.7"/><path class="st11" d="M392.3 493.9s-30.9-70.7-63.4-85.9c-32.5-15.2-67.7-14.2-99.4-4.7-31.7 9.4-54.8 41.8-54.8 41.8s-7.2 14.8 16.3 20.5c23.6 5.8 152.5 34 201.3 28.3z"/></g><g><path class="st12" d="M186.3 576.2s2.5 11.1-4.9 16.1c-7.4 4.9-7.4 22.2-6.2 26 1.2 3.7 5.8 5.8 8.5-3.3s6.4-11.6 10.1-10.3c2 .7 3.7 2.1 4.8 3.3.6.6 1.7.3 1.9-.6.6-3.1 1.2-8.8-.5-12.4-2.5-5.1 1.1-18.7 1.1-18.7h-14.8zM183.6 803.3l-11.9 15.1 16.1 15.5 13.2-22.7z"/><path class="st2" d="M189.3 889.4c-9.2 5.7-23-5.9-23-5.9s-18.6-40.5-13-55c.5-1.3 1.1-2.3 2-3.1 0 0 1-1.4 2.7-3.3 3.9-4.4 11.4-11.3 18.6-8.5 7.8 3 13.4 12.6 15.7 17.1.8 1.5 1.2 3.2 1.2 4.9V868s1.1 3.5 1.3 7.8c.3 4.8-.6 10.6-5.5 13.6z"/><path class="st4" d="M187.8 887.7c-8.3 5.5-20.6-5.7-20.6-5.7s-16.7-38.7-11.7-52.6c.4-1.2 1-2.2 1.8-3 0 0 .9-1.4 2.4-3.2 3.5-4.2 10.3-10.8 16.8-8.1 9.3 3.8 15.2 18.7 15.2 18.7v33.4s1 3.4 1.2 7.5c.1 4.7-.8 10.2-5.1 13z"/><path class="st3" d="M187.8 887.7c-4.1 2.7-9.3 1.3-13.4-.8-4.4-2.3-7.8-6.2-9.6-10.8-4.4-11.4-13.1-36.2-9.3-46.7.4-1.2 1-2.2 1.8-3 0 0 .9-1.4 2.4-3.2 6.5-2.1 14.3-1.8 16.8 10.6 0 0-4.2 13.6 9.9 28.4 0 0 5 2.4 6.4 12.5.2 4.7-.7 10.2-5 13z"/><path class="st5" d="M187.8 887.7c-8.3 5.5-20.6-5.7-20.6-5.7s-16.7-38.7-11.7-52.6c4.8-2 10.8-2.6 13.5 4.4 5 13 1.3 25.3 10 31.5 8.5 6.3 11.5 12.6 8.8 22.4z"/><path class="st2" d="M191.6 845.5c-.1 0-.3 0-.4-.1l-8.3-3c-.6-.2-1-.9-.7-1.6.2-.6.9-1 1.6-.7l8.3 3c.6.2 1 .9.7 1.6-.3.5-.7.8-1.2.8zM191.6 853.1h-.3l-8.3-2c-.7-.2-1.1-.8-.9-1.5.2-.7.8-1.1 1.5-.9l8.3 2c.7.2 1.1.8.9 1.5-.2.6-.7.9-1.2.9z"/><path class="st12" d="m288.3 841.3-2.5 21h21v-21z"/><path class="st2" d="M280.4 857.6s.8-6.5 11.3 0c0 0 12 3.8 14.6-1.4l31.8 14.6s17.7 7.4 7.5 19.6l-50.6 1.8s-17.9-1.6-17.9-12.2 3.3-22.4 3.3-22.4z"/><path class="st4" d="m343.5 889.2-47.2 1.7s-16.7-1.5-16.7-11.4c0-.8 0-1.6.1-2.4.4-9.2 3-18.5 3-18.5s.7-6.1 10.6 0c0 0 11.2 3.6 13.6-1.3l29.6 13.6s9.4 4 9.9 10.8c.1 2.3-.6 4.8-2.9 7.5z"/><path class="st2" d="m343.5 888.8-47.2 2.2s-16.7-1.9-16.7-14.5c0-1 0-2 .1-3.1 6.2 4.6 16.8 9.3 33.3 7.7 13.8-1.4 25.1-1.8 33.4-1.8.1 2.7-.6 5.9-2.9 9.5z"/><path class="st5" d="m343.5 889.2-47.2 1.7s-16.7-1.5-16.7-11.4c0-.8 0-1.6.1-2.4 6.2 3.6 16.8 7.3 33.3 6 13.8-1.1 25.1-1.4 33.4-1.4.1 2.3-.6 4.8-2.9 7.5z"/><path class="st2" d="M309.3 868.5c-.4 0-.8-.2-1.1-.6-.3-.6-.2-1.3.4-1.7l8.3-4.9c.6-.3 1.3-.2 1.7.4.3.6.2 1.3-.4 1.7l-8.3 4.9c-.2.1-.4.2-.6.2zM317.6 873.5c-.4 0-.8-.2-1-.5-.4-.6-.2-1.3.3-1.7l8.8-5.9c.6-.4 1.3-.2 1.7.3.4.6.2 1.3-.3 1.7l-8.8 5.9c-.2.1-.5.2-.7.2z"/><path d="M291 592.4c-.3 5.1-13.2 77.1-13.2 77.1s-3.7 24.1-21.6 65.7c-17.9 41.7-58.7 83.2-58.7 83.2-2.5-7.4-21-11.1-21-11.1s27.2-76.6 32.1-97.6c2.6-11 10.6-49.2 17.7-83 3.3-15.9 6.4-30.8 8.6-41.5 2.1-10 3.4-16.4 3.4-16.4h50.3c-.1 0 2.7 18.5 2.4 23.6z" style="fill:#385f8e"/><path class="st14" d="M253.6 598.8c-1.2 7.7-1.6 14.5-1.8 18.4-.1 2.2-1.3 4.2-3.2 5.2l-12.6 7.2c-1.4.8-3.2.8-4.7 0l-5.2-3c3.3-15.9 6.4-30.8 8.6-41.5l17 3.4c.1 0 3.8-1.7 1.9 10.3z"/><path class="st4" d="M329.3 568.8s15.2 64.3 9 118.6-26 157.2-26 157.2-28.4 2.8-29.7 0c0 0 1-111.7-1.9-132.6 0 0-5.5-44.4-12.9-67.9s-9.9-70.4-4.9-80.3l66.4 5z"/><path class="st14" d="M277.1 592.2h34.8c1.7 0 3 1.3 3.1 3l1 28.5c0 1.1-.6 2.2-1.6 2.8l-17.8 10c-1 .6-2.2.5-3.2-.1l-18-11.7c-.9-.6-1.4-1.5-1.4-2.6v-26.9c0-1.6 1.4-3 3.1-3z"/><path class="st12" d="M288.9 378.4s1.2 23.5-6.2 34.6l27.8 2.4 1.9-30.8-23.5-6.2z"/><ellipse transform="rotate(-30 310.476 367.328)" class="st12" cx="310.5" cy="367.3" rx="18.5" ry="27.8"/><path class="st2" d="m280.7 371 9.4 14.8s2.8 4.9 8.2-3.7l3-5.7-1.8-10.1 1.8-4.2s-20 2.7-20.6 8.9z"/><path class="st15" d="m277.7 372.3 38.6-14.3s20.7-.6 26.9-5.5c0 0-1.3-3.4-6.2-3.6-4.9-.1-15.6 2.1-15.6 2.1s-9.1-14.6-26.4-10.9c-17.3 3.7-17.3 19.8-17.3 19.8v12.4z"/><ellipse transform="rotate(-30 298.117 371.035)" class="st12" cx="298.1" cy="371" rx="4.2" ry="6.2"/><g><circle class="st5" cx="483.5" cy="314.8" r="9.9"/><circle class="st6" cx="436.6" cy="314.8" r="9.9"/><circle class="st6" cx="460" cy="297.5" r="7.4"/><circle class="st5" cx="411.8" cy="366.7" r="9.9"/><circle class="st5" cx="426.7" cy="355.6" r="9.9"/><circle class="st5" cx="442.7" cy="346.9" r="9.9"/><circle class="st5" cx="450.2" cy="335.8" r="9.9"/><circle class="st5" cx="462.5" cy="329.6" r="9.9"/><circle class="st5" cx="469.9" cy="335.8" r="9.9"/><circle class="st5" cx="483.5" cy="340.7" r="9.9"/><circle class="st5" cx="489.7" cy="340.7" r="9.9"/><circle class="st5" cx="483.5" cy="350.6" r="9.9"/><circle class="st5" cx="489.7" cy="355.6" r="9.9"/><circle class="st5" cx="499.6" cy="356.8" r="9.9"/><circle class="st5" cx="493.4" cy="374.1" r="9.9"/><circle class="st5" cx="499.6" cy="376.6" r="9.9"/><circle class="st5" cx="489.7" cy="384" r="9.9"/></g><path class="st4" d="M489.5 379.1 446 407.4c-3.9 2.5-9.1 1.4-11.6-2.5L417 378.3c-2.5-3.9-1.4-9.1 2.5-11.6l43.5-28.3c3.9-2.5 9.1-1.4 11.6 2.5l17.3 26.6c2.6 3.8 1.5 9.1-2.4 11.6z"/><path class="st12" d="m416 404.9 8.7-9.8s1.1-4.3 0-6.8-4.1-6.2-4.1-6.2 1.2-3.7 8.3 0c0 0 2.9-1.3 3.8-7.4.8-6.1 5.8-21 13.2-9.9s4.4 27.1-3.4 32.1c-7.8 5-15.5 17.1-15.5 17.1l-11-9.1z"/><path class="st15" d="M280.2 410.6s-13.6 0-28.4 9.9c-13.4 8.9-54.7 44.5-60.7 84.7s-7.4 74.3-7.4 74.3h18.9s6-55.1 15.9-70c9.9-14.8 7-14.3 13.4-15.8s8.8 5.9 8.8 15.8-8.8 63.2-8.8 63.2 50.9 8.8 69.4 6.8c0 0 30.9.5 38.3-10.6l-3.6-63.6s-.1-35.2 22.2-35.2c22.2 0 43.3-11.1 54.4-27.2 11.1-16.1 17.5-27.3 17.5-27.3l-12.5-14.7s-26.1 26-38.4 30.9c-12.4 4.9-24.7-9.9-37.1-16.2-11.4-5.8-31.5-6-31.5-6l-30.4 1z"/></g><g><path class="st2" d="M563.4 74.5h-.2c-77.2-14-155.2-.1-156 0-.7.1-1.3-.3-1.4-1-.1-.7.3-1.3 1-1.4.8-.1 79.2-14 156.9 0 .7.1 1.1.8 1 1.4-.2.6-.7 1-1.3 1zM586.7 93.8h-.3c-76.6-17.2-155.1-6.7-155.9-6.6-.7.1-1.3-.4-1.4-1.1-.1-.7.4-1.3 1.1-1.4.8-.1 79.7-10.7 156.7 6.6.7.1 1.1.8.9 1.5-.1.7-.6 1-1.1 1zM592.9 103.2c-.3 0-.6-.1-.8-.3-.3-.3-.5-.8-.4-1.2l2.1-9 2.1-9c.1-.4.4-.8.8-.9.4-.1.9 0 1.2.3l13.4 12.6c.3.3.5.8.4 1.2-.1.4-.4.8-.8.9l-17.6 5.3c-.1.1-.3.1-.4.1zm3.3-9.9-1.6 6.9 13.5-4.1-10.3-9.7-1.6 6.9z"/></g><g><path class="st2" d="M562.8 844.5h-.3c-90.7 22.6-185 17.7-186 17.6-.8-.1-1.5.5-1.6 1.2-.1.7.5 1.3 1.3 1.3.9.1 95.7 5 187-17.7.8-.2 1.3-.9 1.1-1.5-.2-.6-.8-1-1.5-.9zM562.9 825h-.3c-75.9 19.9-154.7 12.2-155.5 12.2-.7-.1-1.3.4-1.4 1.1-.1.7.4 1.3 1.1 1.4.8.1 80.1 7.8 156.4-12.2.7-.2 1.1-.8.9-1.5-.1-.7-.6-1.1-1.2-1zM581.6 808.9l23.4-3.1c.6-.1 1.1.2 1.5.6.3.4.4 1 .2 1.6l-9 21.8c-.2.5-.7.9-1.3 1-.6.1-1.1-.2-1.5-.6l-7.2-9.4-7.2-9.4c-.3-.4-.4-1-.2-1.6.2-.4.4-.7.8-.8.2-.1.3-.1.5-.1zm14.1 17.1 6.9-16.7-18 2.4 5.5 7.2 5.6 7.1z"/></g><path class="st7" d="M861.4 535.3c-7.8 13.4-21.5 8.5-21.5 8.5-13.7 9.6-27.1-1-27.1-1-30.9 6.2-26-18.5-26-18.5-7.4-8.7 2-19.2 2-19.2l-.2-.3c4.5 1.2 9.4 2.6 14.4 4.2.1 0 .3.1.4.1 14 4.5 29.3 10.4 44 18.1.7.4 1.5.8 2.2 1.2 4.1 2.2 8 4.5 11.8 6.9z"/><g><path class="st4" d="M694.7 457.4c-25.1-17.8-62-37.4-118.7-55.6l1.5-12.6.6-4.6 107.5-2.5c.5.7 1.1 2.2 1.6 4.5 3.2 13.6 6.2 51.6 7.5 70.8z"/><ellipse transform="rotate(-19.109 638.635 159.923)" class="st16" cx="638.6" cy="159.9" rx="19.7" ry="29.8"/><path class="st16" d="m650.4 176.8-7.7 31.6h-38.2l21.6-36.4z"/><path class="st15" d="M607.7 154.7s.9 8.7 18.4 0c0 0 5.1-3.7 24.3-3.1 0 0 19.3-1.4 23-6.6 0 0 1.1-2.7-6.3-3.9h-11.9s-9.7-23.1-31.7-18.9c0 0-25.7 9.1-15.8 32.5z"/><path class="st2" d="M609 152.3s-11.1 7.4-6.2 16.1c4.9 8.7 12.4 8.5 12.4 8.5s9.7 1.3 12.3-1.7l-3.9-15.2 2.6-5.2-17.2-2.5z"/><path class="st15" d="M610.8 199.9s-16.1 6.6-26.3 8.6-25 13.1-31.2 22.9-24.7 35.8-29.7 56.9-4.9 28.4 6.2 34.6c0 0-1.2-19.8 18.5-26l12.4 1.2 1.2 82.8s3.7 6.2 17.3 8.7c13.6 2.5 68 12.4 106.3-2.5 0 0 8.7-1.2 9.9-11.1 1.2-9.9 0-70.9 0-70.9l7.3-7.3s11.2-15.7 23.6-9.6c12.4 6.2 14.8 16.1 14.8 16.1v5.3s7.4-18.9 3.7-26.3-30.9-54.4-50.7-69.2c0 0-18.9-18.5-49.6-13.6 0 0-4.1 8.5-21.1 8-16.9-.6-17.5-3.7-12.6-8.6z"/><path class="st16" d="M712.5 289s13.1-8.7 25.8 9.5c0 0 9 14.4-4.6 21.9-13.6 7.4-51.9 19.8-51.9 19.8L667 325.4l4.9-1.2-4.9-7.6s-.6-4.8 4-2.9 10.8 8.1 10.8 8.1l30.7-32.8z"/><path class="st2" d="M594.3 311.6s-2.6-3.6 2.3-9.8 16.1-21 16.1-21 6.2-8.7 12.4-3.7l103.8 111.2s-3.7 8.7-9.9 8.7l-43.3-42s-4.9-3.7-11.1 1.2-12.4 9.9-17.3 4.9l-53-49.5z"/><path class="st5" d="M878.4 518.1c-2.5 16.1-16.3 16.1-16.3 16.1-.2.4-.4.8-.6 1.1-7.8 13.4-21.5 8.5-21.5 8.5-13.7 9.6-27.1-1-27.1-1-30.9 6.2-26-18.5-26-18.5-7.4-8.7 2-19.2 2-19.2l-.2-.3L719 397l9.9-8.7 117.4 91.5c12.4-6.2 22.2 7.4 22.2 7.4s8.7-9.9 18.5 3.7-8.6 27.2-8.6 27.2z"/><path class="st17" d="M741.3 414c-.4 0-.7-.2-1-.5l-12.5-15.8c-.4-.5-.3-1.3.2-1.7.5-.4 1.3-.3 1.7.2l12.5 15.8c.4.5.3 1.3-.2 1.7-.2.2-.4.3-.7.3zM786.9 466.2c-.3 0-.7-.1-.9-.4l-41-47.1c-.4-.5-.4-1.3.1-1.7.5-.4 1.3-.4 1.7.1l41 47.1c.4.5.4 1.3-.1 1.7-.2.2-.5.3-.8.3zM811.7 497.1c-.4 0-.7-.2-1-.5l-17.3-21c-.4-.5-.4-1.3.2-1.7.5-.4 1.3-.4 1.7.2l17.3 21c.4.5.4 1.3-.2 1.7-.2.2-.5.3-.7.3zM819.1 479.8c-.3 0-.6-.1-.8-.3l-45.7-43.3c-.5-.5-.5-1.3 0-1.7.5-.5 1.3-.5 1.7 0l45.7 43.3c.5.5.5 1.3 0 1.7-.3.2-.6.3-.9.3zM807.5 535.4c-2.6 0-5.1-.8-7.2-2.1-4.4-2.7-7.8-8.5-5.2-15.2 2.1-5.5 7-8.8 7.2-8.9.6-.4 1.3-.2 1.7.3.4.6.2 1.3-.3 1.7 0 0-4.5 3-6.2 7.8-2.2 5.7.9 10.2 4.2 12.2 3.8 2.3 9.4 2.7 13.5-1.8 1-1.1 2-2.4 2.8-3.9.3-.6 1.1-.8 1.7-.5.6.3.8 1.1.5 1.7-1 1.7-2 3.2-3.2 4.4-2.8 3.1-6.2 4.3-9.5 4.3zM835.8 538.5c-4 0-7.1-1.1-9.1-3.3-3.3-3.5-2.7-8.4-2.6-8.6.1-.7.7-1.2 1.4-1.1.7.1 1.1.7 1.1 1.4 0 .1-.5 4 2 6.6 1.9 1.9 4.9 2.8 9.2 2.4 3.8-.3 7.2-2.6 8.8-5.9.6-1.1 1-2.3 1.4-3.7.2-.7.9-1 1.5-.8.7.2 1 .9.8 1.5-.4 1.5-1 2.8-1.6 4.1-2 4.1-6.2 6.8-10.8 7.2-.8.2-1.5.2-2.1.2zM864.6 515.9c-6.4 0-12.1-4.5-12.4-4.7-.5-.4-.6-1.2-.2-1.7.4-.5 1.2-.6 1.7-.2.1.1 7.1 5.5 13.4 3.8 3.4-.9 6-3.8 7.9-8.4.1-.1 1.2-3-.4-6.1-1.5-3.1-5-5.4-10.4-6.9-.7-.2-1-.9-.9-1.5.2-.7.9-1 1.5-.9 6.1 1.7 10.2 4.5 12 8.3 2 4.2.5 7.9.4 8.1-2.2 5.4-5.4 8.8-9.6 9.9-.9.2-1.9.3-3 .3z"/><ellipse transform="rotate(-19.109 623.6 164.614)" class="st16" cx="623.5" cy="164.6" rx="5.8" ry="7.8"/><path class="st16" d="M529.9 319.1s-3.7 8.7 29.7 14.8c0 0 37.9 2.5 56.9 2.5 1.2 0 9.9 6.2 13.6 13.6 3.7 7.4 14.8 9.9 14.8 9.9s-5-7.2-6.2-12.9c-1.2-5.7 1.3-10.6 6.2-10.6s10 2.4 10 2.4 1.1-3.7-11.2-7.4c0 0-10.4-.8-20-4.1 0 0-23.2-13.2-36.8-19.4-13.6-6.2-29.3-10.2-29.3-10.2s-13.1-1.7-17.9 3.6c-4.9 5.5-9.8 17.8-9.8 17.8z"/><g><path class="st5" d="M867.3 448.3c-5.8 0-10.5 4.7-10.5 10.5s4.7 10.5 10.5 10.5 10.5-4.7 10.5-10.5-4.7-10.5-10.5-10.5zm0 18.5c-4.4 0-8-3.6-8-8s3.6-8 8-8 8 3.6 8 8-3.6 8-8 8z"/></g><g><path class="st2" d="M867.3 256.7c-4.4 0-8 3.6-8 8s3.6 8 8 8 8-3.6 8-8-3.6-8-8-8zm0 14.2c-3.4 0-6.1-2.8-6.1-6.1s2.8-6.1 6.1-6.1c3.4 0 6.1 2.8 6.1 6.1s-2.7 6.1-6.1 6.1z"/></g><g><path class="st5" d="M880.9 410c-8.5 0-15.4 6.9-15.4 15.4s6.9 15.4 15.4 15.4 15.4-6.9 15.4-15.4-6.9-15.4-15.4-15.4zm0 28.4c-7.2 0-13-5.8-13-13s5.8-13 13-13 13 5.8 13 13c-.1 7.2-5.9 13-13 13z"/></g><g><path class="st5" d="M862.3 363c-10.6 0-19.2 8.6-19.2 19.2s8.6 19.2 19.2 19.2 19.2-8.6 19.2-19.2-8.6-19.2-19.2-19.2zm0 35.8c-9.2 0-16.7-7.5-16.7-16.7s7.5-16.7 16.7-16.7S879 373 879 382.1c0 9.2-7.5 16.7-16.7 16.7z"/></g><g><circle class="st2" cx="812.3" cy="172.7" r="55"/><circle class="st5" cx="812.3" cy="172.7" r="53.1"/><path d="M812.3 140.2s-38.3 46.1-4.9 60.2c5 2.1 12.1 1.4 16.7-1.4 9.7-6.2 21-21.9-11.8-58.8z" style="fill:#60a1ef"/><path class="st2" d="M776.4 197.4c-.4 0-.8-.2-1-.5-18.8-27.6 2.7-57.1 2.9-57.4.4-.5 1.2-.7 1.7-.3.5.4.7 1.2.3 1.7-.2.3-20.7 28.4-2.9 54.6.4.6.2 1.3-.3 1.7-.2.1-.4.2-.7.2z"/><g><path class="st2" d="M852.1 198.6c-.2 0-.5-.1-.7-.2-.6-.4-.7-1.2-.3-1.7 17.8-26.1-2.7-54.3-2.9-54.6-.4-.5-.3-1.3.3-1.7.5-.4 1.3-.3 1.7.3.2.3 21.7 29.8 2.9 57.4-.2.3-.6.5-1 .5z"/></g></g><g><path class="st5" d="M688.1 356.8c-.3 0-.6-.1-.8-.3l-63.7-58.2c-.5-.5-.5-1.2-.1-1.7.5-.5 1.2-.5 1.7-.1l63.7 58.2c.5.5.5 1.2.1 1.7-.3.3-.6.4-.9.4z"/></g></g><g><path class="st5" d="M494.2 201.1c-10.6 0-19.2 8.6-19.2 19.2s8.6 19.2 19.2 19.2 19.2-8.6 19.2-19.2-8.6-19.2-19.2-19.2zm0 35.8c-9.2 0-16.7-7.5-16.7-16.7s7.5-16.7 16.7-16.7 16.7 7.5 16.7 16.7-7.5 16.7-16.7 16.7z"/></g><g><path class="st5" d="M401.5 138.1c-9.2 0-16.6 7.5-16.6 16.6s7.5 16.6 16.6 16.6c9.2 0 16.6-7.5 16.6-16.6s-7.4-16.6-16.6-16.6zm0 31.1c-8 0-14.5-6.5-14.5-14.5s6.5-14.5 14.5-14.5 14.5 6.5 14.5 14.5-6.5 14.5-14.5 14.5z"/></g></svg>