<?xml version="1.0" encoding="utf-8"?>
<!-- Generator: Adobe Illustrator 24.3.0, SVG Export Plug-In . SVG Version: 6.00 Build 0)  -->
<svg version="1.1" id="Layer_1" xmlns="http://www.w3.org/2000/svg" xmlns:xlink="http://www.w3.org/1999/xlink" x="0px" y="0px"
	 viewBox="0 0 1000 884.6" style="enable-background:new 0 0 1000 884.6;" xml:space="preserve">
<style type="text/css">
	.st0{fill:#EFE2FF;}
	.st1{fill:#CFB5F6;}
	.st2{fill:#F1F2F2;}
	.st3{fill:#E6E7E8;}
	.st4{fill:#F9B1A0;}
	.st5{fill:#F9AA0B;}
	.st6{opacity:0.3;fill:#FFFEF5;}
	.st7{fill:#E5960A;}
	.st8{fill:#4570AD;}
	.st9{fill:#162C3D;}
	.st10{opacity:0.36;fill:#E4E8EB;}
	.st11{opacity:0.32;fill:#FFFEF5;}
	.st12{opacity:0.89;fill:#E6E7E8;}
	.st13{opacity:0.89;fill:#FFFFFF;}
	.st14{fill:#222127;}
	.st15{fill:#FFFEF5;}
	.st16{fill:#191919;}
	.st17{fill:#FF4753;}
	.st18{fill:#D5D5D7;}
	.st19{fill:#FFFFFF;}
	.st20{opacity:0.53;fill:#0C0C0C;}
</style>
<g>
	<g>
		<g>
			<path class="st0" d="M790.7,227.5c0,0,45.2-152.6-141-157.5c-186.2-4.9-402.1,58.4-401.8,298c0.3,239.6,180.6,365,363.4,363.3
				c0,0,64.1,1.7,133.6-25.4l-81.4,8.5c0,0,149.2-17,110.2-167.8C734.7,395.7,748.3,308.6,790.7,227.5z"/>
			<path class="st0" d="M795.5,249.9c0,0-59.1,129.3-28.6,218.1L795.5,249.9z"/>
			<path class="st0" d="M226.2,388.8c0,0-52.1,76.2,44.2,166.2C270.4,555,224.5,498.9,226.2,388.8z"/>
		</g>
	</g>
	<g>
		<path class="st1" d="M768.6,240.8c0,0,41.8-140.9-130.2-145.4s-371.2,53.9-370.9,275.1s166.7,337,335.5,335.5
			c0,0,59.2,1.6,123.4-23.5l-75.1,7.8c0,0,137.7-15.7,101.7-154.9C717,396,729.5,315.7,768.6,240.8z"/>
		<path class="st1" d="M773.1,261.4c0,0-54.5,119.4-26.4,201.3L773.1,261.4z"/>
		<path class="st1" d="M247.5,389.7c0,0-48.1,70.4,40.9,153.5C288.3,543.2,245.9,491.3,247.5,389.7z"/>
	</g>
	<ellipse class="st2" cx="508.1" cy="814.6" rx="303.4" ry="63.6"/>
	<ellipse class="st3" cx="508.1" cy="814.6" rx="253.7" ry="53.2"/>
	<path class="st4" d="M364.1,214.5l7-21.9c0,0,9.8-22.8-3.1-25.9c-12.9-3.1-36.8,1.6-50.9-2.3c-14.3-3.9-33.6-18-36.8-4.7
		c-3.1,13.3,20.6,25,49.6,28.2c0,0,15.4,4.7,13.8,21.1s-1.6,16.4-1.6,16.4L364.1,214.5z"/>
	<g>
		<path class="st5" d="M313.2,59.5c0,0,0-20.9,15.7-21.4c15.7-0.5,19.8,8.9,20.3,21.4H313.2z"/>
		<path class="st5" d="M415.7,135.3v6.7l-12.1-0.5h-0.2l-161.1-7.1h-0.1l-10.9-0.5c0,0,4.7-61.6,72.5-77.5h0c3.5-0.8,7.1-1.5,11-2.1
			c0,0,11.7-2.8,27.4-0.4C367,57.6,401.9,74.2,415.7,135.3z"/>
		<path class="st6" d="M303.8,56.4c-49,18.8-61.5,78-61.5,78h-0.1l-10.9-0.5C231.3,133.9,236,72.3,303.8,56.4z"/>
		<path class="st7" d="M415.7,135.3v6.5l-12.1-0.3h-0.2c-1.7-42.3-43.5-75.4-61.2-87.5C367,57.6,401.9,74.2,415.7,135.3z"/>
		<path class="st8" d="M441,140.5l-27.7,19.7c0,0.2,0,0.5,0,0.7c-0.3,5.5-9.9,10.5-9.9,10.5l-165.4-11.2c-0.1-3.4-1.4-6.8-3.3-10
			c-0.3-0.4-0.5-0.9-0.8-1.3c-6.2-9.6-17.3-17.4-17.3-17.4s0,0,0.1,0c4.1-1.4,11.2-2.4,19.1-3.3c19.4-2.1,44.2-1.8,44.2-1.8
			c2.2-0.1,4.5-0.3,7-0.3c9.4-0.2,20.5,0.1,32.5,0.8C372.3,130.1,441,140.5,441,140.5z"/>
		<path class="st9" d="M413.4,160.9c-0.3,5.5-9.9,10.5-9.9,10.5l-165.4-11.2c-0.1-3.8-1.8-7.7-4.1-11.3L413.4,160.9z"/>
		<path class="st10" d="M374.7,138.7v12.2c0,0.9,0.7,1.7,1.7,1.8l36.4,2.6c0.4,0,0.9-0.1,1.2-0.4l12-9c1.3-1,0.7-3-0.9-3.2
			l-48.4-5.7C375.6,136.8,374.7,137.6,374.7,138.7z"/>
		<path class="st11" d="M377.1,161.5l-0.3,5.2c0,0.8,0.6,1.6,1.4,1.6l24.9,1.3c0.6,0,1.2-0.3,1.4-0.8l1.8-3.5c0.5-1-0.1-2.1-1.2-2.2
			l-26.4-3C377.9,159.9,377.1,160.6,377.1,161.5z"/>
		<path class="st10" d="M319.5,126.9c0,0-58,5.1-63.7,23.3h-21c-0.3-0.4-0.5-0.9-0.8-1.3c-6.2-9.6-17.3-17.4-17.3-17.4s0,0,0.1,0
			c0.8-0.2,7.3-1.8,19.1-3.3c11.9-1.6,29.1-2,51.2-2.1C296.9,126,307.8,126.3,319.5,126.9z"/>
		<path class="st6" d="M368,130l37,3.9c0,0-28.7-73.9-68.3-80.6l-5.5,0.6C331.2,53.9,374.2,102.6,368,130z"/>
		<ellipse class="st12" cx="331.5" cy="52.6" rx="3.1" ry="2.1"/>
		<polygon class="st13" points="378.9,95.1 397.2,79.5 381,97.1 397.2,116.1 379.2,99.5 360.6,116.1 376.9,97.1 360.6,79.5 		"/>
		<polygon class="st13" points="383.4,81.5 397.2,69.8 385,83 397.2,97.3 383.7,84.8 369.7,97.3 381.9,83 369.7,69.8 		"/>
		<path class="st11" d="M338.4,52.6c0,0-1.4-3.2-9.6-2.8s4.3-10.4,9.6-4.5s8.3,9.5,8.3,9.5L338.4,52.6z"/>
		
			<ellipse transform="matrix(0.5612 -0.8277 0.8277 0.5612 49.071 279.6891)" class="st11" cx="288.3" cy="93.6" rx="19.2" ry="8.8"/>
	</g>
	<path class="st4" d="M460.3,745.8v29c0,0,26.3,19.6,38.6,3.1l-8.2-32.1H460.3z"/>
	<path class="st14" d="M493.5,756.8c0,0,5.9,0.7,9,14.6s2.8,20.2-4.5,22.3c-7.3,2.1-47,15.3-47,15.3l-38.6,11.1
		c0,0-34.1,5.6-36.2-5.6c-2.1-11.1,7.7-17,21.6-20.2c13.9-3.1,47.3-21.6,47.3-21.6s10.2-9.8,14.4-18.4c0,0,8.5,20.2,23.5,20.3
		C483.1,774.8,498.4,779.1,493.5,756.8z"/>
	<path class="st4" d="M548,765.2v38.6l36-3.9c0,0,1.6-36.5-3.1-34.7C576.1,767,548,765.2,548,765.2z"/>
	<path class="st14" d="M544.8,803.6c0.2-4.5,1.9-8.8,4.7-12.3c7-8.8,20.9-21.8,31.7-4.8c1.1,1.8,10.4,15.7,14.3,38.6
		c2.2,13.4-4.4,22.4-10.3,27.6c-3.9,3.5-8.8,5.7-14,6.7c-12.1,2.3-38.6,5.9-38.3-6.4c0.3-16,7.3-21.2,9.7-31.3
		C544,815.7,544.6,808.5,544.8,803.6z"/>
	<path class="st14" d="M418.1,436.7l10.2,138.5c0,0,3.9,27.4,14.9,59.5l15.4,119.7h44c0,0-9.4-119.7-19.6-136.9s-8.6-57.9-8.6-57.9
		l6.3-132.3C480.7,427.3,428.2,395.3,418.1,436.7z"/>
	<path class="st14" d="M471.3,428.1l43,177.6c0,0,19.6,75.9,21.1,103.3c1.6,27.4,6.9,65.7,6.9,65.7h47.1c0,0-9.4-129.1-22.7-151
		c0,0-10.2-32.9-12.5-65.7c-2.3-32.9-7-125.2-7-125.2L471.3,428.1z"/>
	<polygon class="st4" points="467.4,133.9 472.1,180.8 538.6,164.4 527.6,112.8 	"/>
	<path class="st15" d="M534.3,144.1c2.4,6.2,8.1,29.7,8.1,29.7s-46,77.5-63.3,86.1S455.6,274,455.6,274s-19.6-16.4-17.2-44.6
		c2.3-28.2,18.6-64.1,18.6-64.1l12.7-7.5c0,0,7.9,11.3,30.5,6.6C522.9,159.7,534.3,144.1,534.3,144.1z"/>
	<path class="st15" d="M447.5,171.4c0,0-27.8,12.5-48.2,56.3s-28.2,63.7-28.2,63.7L368,209h-33.6v129.1c0,0,5.5,59.5,35.2,28.2
		c29.7-31.3,43.9-63.4,43.9-63.4l10.8-25L447.5,171.4z"/>
	
		<ellipse transform="matrix(9.538566e-02 -0.9954 0.9954 9.538566e-02 365.9917 569.8207)" class="st4" cx="496.5" cy="83.5" rx="65.9" ry="46.3"/>
	<path class="st16" d="M451.3,72.1c0,0,4.5-35.6,23.1-29c20.5,7.2,26.6,7,36,3.9c9.4-3.1,16.4-2.2,16.4,9.9s0,48,0,48h7.2l8.6-17
		l-12.8,36.3l1.8,9.6c0,0,15.6-12.7,18.9-31.5c3.3-18.8,0-38.1,0-38.1s9.8-31.3-8.1-39.9H537l-2.7-14.2l-2,10.6
		c0,0-29.8-20.7-54.8-8.2c0,0-33.7,7.8-29.7,32.1C447.8,44.7,446.3,63.6,451.3,72.1z"/>
	<path class="st17" d="M443.9,168.3c0,0-27.4,61.8-29.7,116.6c-2.3,54.8-3.1,159.6-3.1,159.6s32.9,1.6,47-21.1
		c0,0,33.6,35.2,100.9,28.2l7.8-187l-7-20.3c0,0-14.9,32.9-25-3.9c0,0-10.2-33.6,29-72l-25-3.9c0,0-58.7,93.1-77.5,90.8
		c0,0-20.3-27.1,6.3-96C467.4,159.2,450.1,165.2,443.9,168.3z"/>
	<path class="st18" d="M513.1,399.9v46.4h-3.3v21.4l3.3,1.3v4.7h3.8v2.9c0,0,12.5,1,13.4,0s0-82.4,0-82.4S513.1,391.9,513.1,399.9z"
		/>
	<path class="st4" d="M519.8,381.9c0,0-14.4,3.3-20.9-6.5c-6.5-9.9-28.4-23.7-37.8,3.5c-9.4,27.3,10.2,37.4,10.2,37.4l51.6-7.8
		L519.8,381.9z"/>
	<path class="st15" d="M553.1,166.7c0,0-42.7,50.9-20,83c0,0,12.8,28.5,29.5,2.9l32.3,85.5c0,0-54.8,32.1-83.7,42.3l-3.1,36
		c0,0,72.8-16.4,108-44.6c0,0,34.4-11,18-57.9l-39.1-118.2C594.9,195.7,575.8,166.9,553.1,166.7z"/>
	
		<ellipse transform="matrix(0.4017 -0.9158 0.9158 0.4017 234.1791 548.2163)" class="st4" cx="536.6" cy="94.9" rx="15.2" ry="10.4"/>
	<path class="st16" d="M534.1,23.3c0,0,1.3-5,5.7-4.4c4.4,0.5,7,4.4,7,4.4s-8.9-1.8-8.3,1C539.1,27.2,534.1,23.3,534.1,23.3z"/>
	<path class="st14" d="M492.5,183.7l-26.4,6.1l-1.4-34.6c0,0,17.6,2.5,27.8,10.3c0,0,18.8-8,30.4-5.5l2.6,33.8
		C525.5,193.8,499.3,189.9,492.5,183.7z"/>
	<path class="st14" d="M468.9,226.5c-2.6,3.1-4.4,7.4-0.7,12.2c1.9,2.4,5.2,2.9,7.5,1c2-1.7,3.7-4.7,2.3-10.2
		C476.7,224.4,471.9,222.9,468.9,226.5z"/>
	<path class="st14" d="M481.2,191.4c-2.9,2.8-5.1,7-1.8,12c1.7,2.6,4.9,3.4,7.4,1.7c2.2-1.5,4.2-4.3,3.2-9.9
		C489.2,190.1,484.5,188.2,481.2,191.4z"/>
	<path class="st2" d="M618.7,381.8c-1-2.5-1.9-5.8-2.6-10c-3.9-23.5-28.7-31.6-28.7-31.6s22.7-3.1,26.6,12
		C616.1,360.5,617.7,372.5,618.7,381.8z"/>
	<g>
		<path class="st19" d="M630.7,488.4h-21.4l-2.4-8.1l-0.5,12.8l-15.4,4.2l-4.2-1.6c0,0-16.7,3.9-19,3.1c-2.4-0.8-1,3.1-1,3.1H525
			l-0.3-2.6l-1.8-0.5v-38.9l2.1-1.6l-1.6-38.5l-0.5-11.3c0,0,3.5-30.7-9.7-28.9c0,0-0.4-4.7,1.2-9.2c1.4-3.7,4.3-7.1,10-7.5
			c0,0,16.7,2.5,26.1-3.5c9.4-6,20.4-10.2,20.4-10.2l16.4-9.1c0,0,22.7-3.1,26.6,12c2.1,8.2,3.7,20.3,4.7,29.5
			c0.8,7.7,1.3,13.5,1.3,13.5l9.1,61.1L630.7,488.4z"/>
		<path class="st2" d="M606.9,480.3c0,0-12-103.6-23-114.5v-12c0,0,19.8,49,23,77.2C610,459.2,606.9,480.3,606.9,480.3z"/>
		<path class="st2" d="M566.7,365.3c0,0,17.2,57.9,17.2,79.8C584,445.1,587.6,380.4,566.7,365.3z"/>
		<path class="st2" d="M563.6,452.5l4.2,46.3C567.8,498.8,570.9,459.5,563.6,452.5z"/>
		<path class="st2" d="M533.9,375.4c0,0,12.3,57.7,8.5,80.9C542.4,456.3,554.2,401.2,533.9,375.4z"/>
		<path class="st2" d="M545.8,370.5c0,0,10.5,21.9,11,34.7c0.5,12.8,0,20.6,0,20.6S569.7,394.5,545.8,370.5z"/>
		<polygon class="st2" points="525,501.9 530.8,480.3 533.9,501.9 		"/>
		<polygon class="st2" points="622,431 625.7,488.4 630.7,488.4 624.9,428.1 		"/>
		<path class="st2" d="M523.4,419.9l-0.5-11.3c0,0,3.5-30.7-9.7-28.9c0,0-0.4-4.7,1.2-9.2l0,0C514.5,370.5,540.2,381.5,523.4,419.9z
			"/>
		<path class="st2" d="M591,497.2c-0.2-3.5-0.3-7-0.4-10.4c-0.1-3.4-0.2-6.9-0.4-10.2c-0.2-3.4-0.4-6.8-0.9-10.1
			c-0.5-3.4-1.1-6.7-1.9-10.1c2.2,2.8,3.6,6.2,4.5,9.6c1,3.4,1.4,7,1.7,10.5c0.2,3.5,0.1,7.1-0.3,10.5
			C592.8,490.4,592.2,493.9,591,497.2z"/>
	</g>
	<path class="st20" d="M460.3,262.5c-1.8,6.3-3.2,12.6-4.4,19c-0.6,3.2-1.2,6.4-1.7,9.6l-0.7,4.8l-0.6,4.8
		c-1.6,12.9-2.6,25.9-2.8,38.9c-0.1,3.2,0,6.5-0.1,9.7l0,4.9c0,1.6,0.1,3.2,0.2,4.9l0.4,9.7c0.2,3.2,0.5,6.5,0.7,9.7l0.3,4.9
		c0.1,1.6,0.3,3.2,0.5,4.9l1.1,9.7l0.3,2.4l0.4,2.4l0.7,4.8c0.5,3.2,0.9,6.4,1.4,9.7c-0.7-3.2-1.3-6.4-1.9-9.6l-0.9-4.8l-0.5-2.4
		l-0.4-2.4l-1.4-9.7c-0.2-1.6-0.5-3.2-0.6-4.9l-0.5-4.9c-0.3-3.2-0.6-6.5-0.9-9.8l-0.5-9.8c-0.1-1.6-0.2-3.3-0.2-4.9l0-4.9
		c0-3.3-0.1-6.5,0-9.8l0.4-9.8c0.1-3.3,0.5-6.5,0.7-9.8c0.2-3.3,0.6-6.5,0.9-9.8l0.5-4.9l0.7-4.8l0.7-4.8l0.9-4.8
		c0.6-3.2,1.3-6.4,1.9-9.6C456.5,275,458.1,268.6,460.3,262.5z"/>
	<path class="st20" d="M496.5,276.6c2.7-0.4,5.5-0.6,8.2-0.8c2.7-0.2,5.5-0.2,8.2-0.2c2.7,0,5.5,0.1,8.2,0.2
		c2.7,0.1,5.5,0.4,8.2,0.8c-2.7,0.4-5.5,0.6-8.2,0.8c-2.7,0.2-5.5,0.2-8.2,0.2c-2.7,0-5.5-0.1-8.2-0.2
		C502,277.2,499.3,277,496.5,276.6z"/>
</g>
</svg>
