<svg version="1.1" id="Layer_1" xmlns="http://www.w3.org/2000/svg" x="0" y="0" viewBox="0 0 1000 598.5" style="enable-background:new 0 0 1000 598.5" xml:space="preserve"><style>.st2{fill:#fff}.st3{fill:#e6e7e8}.st4{fill:#c4cabf}.st9{fill:#f1f2f2}.st10{fill:#f2ae2c}.st11{opacity:.68;fill:#fc9103}.st12{opacity:.39;fill:#fd9001}.st13{fill:#ff9102}.st15{fill:#ffc4a8}.st16{fill:#4570ad}.st18{fill:#162d2c}.st19{fill:#1a2e35}.st20{fill:#feac02}.st22{fill:#232323}.st24{fill:#ff4d53}.st26{fill:#8b623c}.st28{fill:#f2bc9a}.st31{fill:#776852}.st32{fill:#3f372c}.st33{opacity:.68;fill:#1d2f32}</style><path d="M954.3 447.9H930c-1.6-4-3.7-7.6-6.2-10.9 23-4.2 40.5-24.3 40.5-48.5 0-27.2-22.1-49.3-49.3-49.3h-12.5c2.1-3.5 4-6.9 5.7-10.3h45c13.5 0 24.5-11 24.5-24.5s-11-24.5-24.5-24.5h-31.6c.6-10.7-.2-21.1-2.1-31h23.3c19.2 0 34.9-15.6 34.9-34.9 0-19.2-15.6-34.9-34.9-34.9h-56c-4.3-5.6-8.7-10.7-13-15.2h55c9 0 16.3-7.3 16.3-16.3s-7.3-16.3-16.3-16.3H791.6c-3.8-2.2-7.6-5-11.4-8.7h57c27.2 0 49.3-22.1 49.3-49.3 0-27.2-22.1-49.3-49.3-49.3H689.3c-62.8-26.2-148.1-20.7-176.7-.4-.2.1-.4.3-.6.4H173.1c-27.2 0-49.3 22.1-49.3 49.3 0 21.7 14 40 33.4 46.7-4 12.3-6 24.5-6.1 35.3H123c-6.6 0-12 5.4-12 12s5.4 12 12 12h29.6c.3 6.6.4 13.5.2 20.7H65c-13.5 0-24.5 11-24.5 24.5S51.5 249 65 249h79.6c-2.1 6.7-4.6 13.6-7.6 20.7H80c-19.2 0-34.9 15.6-34.9 34.9 0 19.2 15.6 34.9 34.9 34.9h10.7c-1.8 2-3.7 4.1-5.6 6.1H58c-27.2 0-49.3 22.1-49.3 49.3 0 25.8 19.9 47 45.2 49.1.5 3.9 1 7.8 1.7 11.7-10.4 2.8-18 12.3-18 23.6 0 13.5 11 24.5 24.5 24.5H69c.9 2.5 1.8 4.9 2.8 7.3H43.6c-19.2 0-34.9 15.6-34.9 34.9 0 19.2 15.6 34.9 34.9 34.9h63.5c1.4 2.3 2.3 3.5 2.3 3.5l573.8-3.5h236c19.2 0 34.9-15.6 34.9-34.9 0-15.2-9.7-28.1-23.3-32.9 1.1-5.3 2-10.6 2.8-16h20.8c13.5 0 24.5-11 24.5-24.5-.1-13.7-11-24.7-24.6-24.7z" style="fill:#cfb5f6"/><path class="st2" d="M129.8 585.4S30.5 433.6 102 358.8s71.6-136.9 67.5-181.7S201.4 48.2 280.8 68.5s191.6 1.6 230.9-27 192.2-26.8 228 55.3c35.8 82.1 69.8 42.9 99.3 66.8 29.5 24 93.6 103.7 38.8 189.3 0 0-12.4 50.1 21.4 87.5s-12.1 140.3-12.1 140.3l-757.3 4.7z"/><path class="st3" d="M406.5 432.8v77.8l-61.2.7-61.3.7v-79.2z"/><path class="st4" d="M406.5 432.8v77.8l-30.1.7-30 .7v-79.2z"/><path class="st2" d="M311.9 432.8h12.6v22.6h-12.6z"/><path class="st3" d="M747.4 439.5v138.1l-65.6 1.3-65.5 1.2V439.5z"/><path class="st4" d="M747.4 439.5v138.1l-32.2 1.3-32.2 1.2V439.5z"/><path class="st2" d="M646.1 439.5h13.5v22.6h-13.5z"/><path class="st3" d="M358.6 485.1v-95.9l56.8.9v-29.7h125.7l1.8 124.7z"/><path style="opacity:.68;fill:#b2cad2" d="M450.8 360.4h90.3v124.7h-90.3z"/><path style="opacity:.68;fill:#d1d3d4" d="M356.4 506.2V584l-61.2.7-61.3.7v-79.2z"/><path style="opacity:.68;fill:#fff" d="M356.4 506.2V584l-30.1.7-30 .7v-79.2z"/><path class="st2" d="M261.8 506.2h12.6v22.6h-12.6z"/><g style="opacity:.65"><path class="st9" d="M176.2 134.7h181.6v447.7H176.2zM380.2 134.8h181.6v447.7H380.2zM583 134.5h181.6v447.7H583z"/></g><path class="st10" d="M616.3 377.2v85.2l-146.8.8v-86zM465.6 477.4v103l-84.7 1-84.6.9V477.4z"/><path class="st11" d="M465.6 477.4v103l-41.6 1-41.6.9V477.4z"/><g><path class="st10" d="M631.3 462.3v116.9l-104.1 1.1-104.1 1v-119z"/><path class="st11" d="M631.3 462.3v115.3l-52.7 1.1-52.8 1V462.3z"/></g><g><path class="st10" d="M716 476.4v103l-84.7 1-84.6.9V476.4z"/><path class="st11" d="M716 476.4v104h-41.6l-41.6-.1V476.4z"/></g><path class="st12" d="M542.9 376.2v85.2l-73.4.8v-86z"/><path class="st13" d="M470.7 377.5 457.3 413h70.5l10.1-30.9 12.3 30.9s74.7.2 74.7 0-10.9-36.8-10.9-36.8l-143.3 1.3z"/><path style="fill:#58595b" d="M108.6 580.1H868v5.3H108.6z"/><g><path class="st15" d="M751.1 558v13.8h-18.6v-17.6h18.6zM828.1 546.1l5.2 12.7-17.3 7.1-6.6-16.3 17.2-7.1z"/><path class="st16" d="M837.8 567.8s-28.9 12.3-36.5 13.5c-2.3.4-4 .1-5.2-.5-3-1.3-3.7-4.2-3.7-4.2-4.8-3.5 20.4-18.6 20.4-18.6l20.5-3.8c3.3 2.8 4.8 5.5 5.3 7.8.7 3.5-.8 5.8-.8 5.8z"/><path class="st2" d="M837.8 567.8s-28.9 12.3-36.5 13.5c-2.3.4-4 .1-5.2-.5l42.4-18.9c.8 3.6-.7 5.9-.7 5.9z"/><path class="st16" d="M751.4 582.8s-31.3 3-38.8 1.9c-2.3-.3-3.8-1.1-4.9-2-2.5-2.2-2.3-5.2-2.3-5.2-3.5-4.8 25-11.6 25-11.6l20.7 2.5c2.3 3.7 2.9 6.7 2.7 9-.3 3.5-2.4 5.4-2.4 5.4z"/><path class="st2" d="M751.4 582.8s-31.3 3-38.8 1.9c-2.3-.3-3.8-1.1-4.9-2l46.1-5.2c-.3 3.4-2.4 5.3-2.4 5.3z"/><path class="st16" d="M735.2 395.5 728.4 558H756l15.2-118.3s10.9 50.2 20.6 66.7l17.9 47.8 21-7.9s-25.8-111.7-24.1-150.8h-71.4z"/><path class="st15" d="M669.8 294.4s3.3-7 7.9-6.7c4.7.3 3.4 4.9 3.4 4.9l-11.3 1.8z"/><path class="st18" d="M658.2 302.6c-.6 0-1.2-.4-1.4-1.1-.2-.8.2-1.6 1-1.9l45.3-13.3c.8-.2 1.6.2 1.9 1s-.2 1.6-1 1.9l-45.3 13.3c-.2.1-.4.1-.5.1z" style="opacity:.68"/><path class="st15" d="M718.7 334.5s-3.7 4.9-7.6 3.7l-19.9-30.9s3.7-9.2 0-14.4c-3.7-5.2-11.6-6.7-9.2-2.8 2.4 4-1.5 7-4.9 7-3.4 0-7 2.8-3.7 8.6 3.4 5.8 7 7.4 7 7.4l21.7 45.5s8.3 12.8 18.6 4 14.1-15.7 14.1-15.7l-16.1-12.4z"/><ellipse class="st15" cx="762.1" cy="250" rx="19.3" ry="28.1"/><path class="st15" d="M759.1 275.7v20.8s21.2 8.9 21.3-7.6c.1-16.5-2.3-31.6-2.3-31.6l-19 18.4z"/><path class="st19" d="M744.9 237.4s-10.6.3-6.6-11.9c4-12.2 21.4-14.1 26.9-14.1s16.5-.3 20.8 7.9c0 0 11.6-11 23.2 12.5 0 0 2.8 10.1 19.9 16.5 0 0 12.2 8.3-2.8 12.5 0 0 5.5 13.5-9.8 10.7 0 0-8.3 18.3-19 4.3 0 0-1.8-28.4-9.8-20.6l-7.6 18-2.1-16.1s-.1-13-3.1-17.9c-3.1-4.9-15.8-6.8-15.9-17.1.1.1-12.7 9.8-14.1 15.3z"/><path class="st20" d="M757.6 287s-9.5-2.4-25.4 19.9c-15.9 22.3-16.2 27.2-16.2 27.2l19 15.6-.6 50.4s36.4 11 72.5 0l-1.8-33-.9-18.3 22.3-14.1-20.8-31.2s-8.7-19.1-25.2-16.6c-.1 0-11 8-22.9.1z"/><g style="opacity:.32"><path class="st22" d="M748.6 327.8 734.9 349"/><path class="st18" d="M748.6 327.8c-.8 2-1.7 3.9-2.8 5.7-1 1.9-2.1 3.6-3.2 5.4-1.2 1.8-2.3 3.5-3.6 5.2-1.3 1.7-2.6 3.3-4.1 4.9.8-2 1.7-3.9 2.7-5.7 1-1.9 2.1-3.6 3.2-5.4 1.2-1.8 2.3-3.5 3.6-5.2 1.4-1.7 2.7-3.4 4.2-4.9z"/></g><g style="opacity:.24"><path class="st22" d="m789.7 321.8 12.9 21.7"/><path class="st18" d="M789.7 321.8c1.4 1.6 2.7 3.3 3.9 5 1.2 1.7 2.3 3.5 3.4 5.3 1.1 1.8 2.1 3.6 3 5.5.9 1.9 1.8 3.8 2.6 5.8-1.4-1.6-2.7-3.3-3.9-5-1.2-1.7-2.3-3.5-3.4-5.3-1.1-1.8-2.1-3.6-3-5.5-1-1.8-1.9-3.7-2.6-5.8z"/></g><path class="st19" d="M732.5 315.7h42.8l9.1 53.5-43 1.6z"/><path class="st15" d="m821.2 337.6 7.9 14.8S837 371 816.9 369s-47.1-11.1-47.1-11.1-21.1 2.4-26.9-4.6c-5.8-7-6.7-12.2 0-13.1 6.7-.9 12.2 1.8 12.2 1.8s1.5-.3-1.8-3.4c-3.4-3.1-.6-5.2 4.3-3.1s10.1 5.5 13.6 12.8l39.3 1.5-4.6-2.1 15.3-10.1z"/><ellipse transform="rotate(-72.524 780.454 250.015)" class="st15" cx="780.4" cy="250" rx="7.6" ry="5.2"/><path class="st20" d="m786 220 1.9 18.4c.2 1.8 1.8 1.9 2.1.1l3.4-21.6s-5.1-1.2-7.4 3.1z"/></g><g><path class="st24" d="M358.6 566.4s-42.5 19.9-49.8 15.6c-.5-.3-.9-.6-1.3-1-6-5.7-6.3-22.8-6.3-22.8l19.9-4 3.7 5.8s16.2.9 25.4-.3c3.8-.5 5.9.6 7.1 2 1.5 2 1.3 4.7 1.3 4.7zM178 573.5c-2.7.6-5.9-1-5.9-1L147 535.9l3.3-2.2 12.9-8.8 11.6 16.5c-1.2 5.5 6.4 24.5 6.4 24.5.7 5.3-1.1 7.2-3.2 7.6z"/><path d="M214.9 397.7v66l-55 61.1 16.5 22s67.6-57.2 68.2-58.7 11-8.6 9.8-20.2.1-27.5.1-27.5L299 562.8l25.7-7.3-37-159.9-72.8 2.1z" style="fill:#1c2f36"/><path class="st26" d="m282.7 326.2 18.4-17.2 25.7-6 18.5 6-8.3 11.5-39.4 9.6z"/><path style="opacity:.68;fill:#ee6c5f" d="m301.1 307.1 17.6 19.1 8.9-25.4z"/><ellipse transform="rotate(-9.306 247.232 250.828)" class="st28" cx="247.3" cy="250.9" rx="19.3" ry="27.2"/><path d="M230.1 245.7c1.6.4 2.2-6.3 3.3-11.4.6-3.2 3.6-5.3 6.8-4.9 7.2.9 20.7 2 26.6-.7 8.3-3.8 9.8-11.7 4.3-11.7-5.5 0-7.3-10.1-12.5-6.4-5.2 3.7-13.5 3.7-18.6 2.8-5.2-.9-21.7.9-23.5 10.4s-9.5 7.3-9.5 13.5c0 6.1 4.3 21.4 14.1 26.6l7.3 6.4c-.1-.1-11.8-28 1.7-24.6z" style="fill:#1a292f"/><path class="st28" d="m225.5 255.5 2.5 36.1s14.6 19.5 21.7 1.8c.6-1.5 0-19.6 0-19.6l-24.2-18.3z"/><path class="st24" d="M226.5 288.5s-18.9 4.6-17.7 20.8 2.8 90.5 2.8 90.5S262 413.3 291 398l-4-80.7s-19.3-32.7-36.1-28.7c0-.1-4.3 10.9-24.4-.1z"/><path style="fill:#efad2b" d="M395.6 317.9v70.9l-60.6.6-60.6.7v-72.2z"/><path class="st12" d="M335 317.9v71.5l-60.6.7v-72.2z"/><path class="st13" d="m275.3 319.1-11.2 29.8h59.2l8.5-25.9 10.3 25.9s62.7.2 62.7 0-9.2-31-9.2-31l-120.3 1.2z"/><ellipse class="st31" cx="295.2" cy="286.9" rx="12.5" ry="10.9"/><ellipse class="st31" cx="326.8" cy="286.9" rx="12.5" ry="10.9"/><ellipse class="st32" cx="326.8" cy="286.9" rx="6.4" ry="5.6"/><ellipse class="st32" cx="295.2" cy="286.9" rx="7.6" ry="6.6"/><ellipse class="st26" cx="310.4" cy="293.6" rx="19.4" ry="15.4"/><circle class="st33" cx="302.9" cy="292.8" r="1.8"/><circle class="st33" cx="317.5" cy="292.8" r="1.8"/><ellipse class="st33" cx="310.4" cy="299.6" rx="3.5" ry="1.8"/><path d="M311.4 306.2c-2.9 0-4.8-1.6-4.8-1.6-.2-.2-.2-.5 0-.7.2-.2.5-.2.7-.1.2.1 4.4 3.7 9.9-1 .2-.2.5-.1.7.1.2.2.1.5-.1.7-2.4 2-4.6 2.6-6.4 2.6z" style="fill:#1d2f32"/><path style="fill:#232f2d" d="m344.3 310.4 9.9 7.9 3.9-11.1z"/><path class="st28" d="M232.1 351.2s9.6 15.6 30.1 22 39.1 11.3 39.1 11.3 24.5 12.5 31.8 0c0 0-2.4-7-15.3-7.6l10.4-3.7s1.2-3.3-4.9-2.6c-6.1.7-13 5.6-20.2 2-2.4-1.2-26.6-13.1-33.6-15.9-7-2.8-18.7-19.6-18.7-19.6l-18.7 14.1z"/><path d="m226.5 298.3 27.9 36.7s-17.2 21.7-27.9 19.6l-15.2-23.2c-.1-.1-7.8-38.6 15.2-33.1z" style="fill:#db4b5f"/><ellipse transform="rotate(-9.306 226.403 250.827)" class="st28" cx="226.5" cy="250.9" rx="5.5" ry="7.8"/><path class="st2" d="M178 573.5c-2.7.6-5.9-1-5.9-1L147 535.9l3.3-2.2 27.7 39.8zM358.6 566.4s-42.5 19.9-49.8 15.6c-.5-.3-.9-.6-1.3-1l49.7-19.3c1.6 2 1.4 4.7 1.4 4.7z"/></g></svg>