<svg version="1.1" id="Layer_1" xmlns="http://www.w3.org/2000/svg" xmlns:xlink="http://www.w3.org/1999/xlink" x="0" y="0" viewBox="0 0 799.34 803.46" style="enable-background:new 0 0 799.34 803.46" xml:space="preserve"><style>.st2{fill:#fff}.st3{fill:#f5a899}.st5{fill:#fefdff}.st7{fill:none;stroke:#000;stroke-miterlimit:10}.st8{fill:#3470b9}.st9{fill:#f9b5a2}.st12{fill:#fff;stroke:#000;stroke-miterlimit:10}.st13{fill:#8a22e1}.st14{fill:none;stroke:#020202;stroke-miterlimit:10}.st15{fill:#fca819}.st16{fill:#ef505d}.st17{fill:#25130e}</style><path d="M270.53 111.59s19.32-142.44 214.88-86.92 269.2 214.6 269.2 214.6 112.08 316.47-78.34 446.61-377.32 172.33-598.56-71.21c0 0-116.28-77.67-45.21-229.68 23.85-51.02 66.2-90.81 117.91-113.12 43.34-18.7 101.28-61.77 120.12-160.28z" style="fill:#e5d1f7"/><path style="fill:#4e6187" d="M22.97 332.08h585.32v280.19H22.97z"/><path class="st2" d="M35.09 352.58h247.56v244.41H35.09zM308.26 349.29h247.56V593.7H308.26z"/><ellipse class="st3" cx="218.13" cy="415.86" rx="31.69" ry="43.4"/><path class="st3" d="M201.72 432.7s6.04 21.13-22.94 44.06 19.92 30.78 19.92 30.78 53.11 2.41 59.15-10.26c6.04-12.68-5.88-19.92-5.88-19.92s-23.09-5.25-22.49-7.15c.6-1.9 6.64-30.11 6.64-30.11l-34.4-7.4zM274.89 494.77s47.76 111.97 65.26 114.99c17.5 3.02-18.92 33.59-18.92 33.59s-44.66-26.56-51.3-48.29c-6.64-21.73 4.96-100.29 4.96-100.29z"/><path d="M211.38 745.35s12.9 21.13 38.44 22.94h9.74s33.12-5.89 20.02-19.31c-13.1-13.43-26.56-31.39-41.04-26.56-14.48 4.82-27.16 22.93-27.16 22.93z" style="fill:#4c6289"/><path d="M129.9 623.43s-44.66-28.37-71.83 5.43 53.65 89.33 53.65 89.33 68.65 36.82 102.87 39.23l23.95-35.01 21.02 6.04 20.02 20.52s51.91-4.23 79.67-50.1c27.76-45.87 28.37-70.62 28.37-70.62s3.62-27.16-30.78-21.13l-77.86 47.68-109.37 1.69-39.71-33.06z"/><path class="st5" d="M352.62 718.47h77.26v26.46h-77.26z"/><path d="M276.57 716.38s-24.75 13.28-3.02 31.99h156.33s10.86-1.41 0-3.42-71.22 0-71.22 0-12.68-13.88-.6-23.34h70.62s7.85-2.21 1.21-5.23c-6.65-3.02-153.32 0-153.32 0z" style="fill:#fcab0b"/><path class="st7" d="M374.95 726.04h10.26M395.47 726.04h30.18M368.31 737.5h11.77"/><path class="st5" d="M339.74 756.57h85.91v26.46h-85.91z"/><path class="st7" d="M387.73 737.5h34.9"/><path class="st8" d="M270.53 748.37s-16.3 26.56 0 42.85h152.11s15.09-3.02 0-9.05l-78.45 1.21s-7.39-20.52 2.87-25.95h78.6s8.45-9.05 0-9.05c-8.46-.01-155.13-.01-155.13-.01z"/><path class="st7" d="M352.62 764.67h12.07M374.2 764.67h48.43M356.24 774.93h8.45M371.44 774.93h48.17"/><path class="st9" d="M583.18 356.65s2.41 18.11-6.04 30.78 44.06 3.62 44.06 3.62-11.99-24.07-10.45-38.43l-27.57 4.03z"/><ellipse transform="rotate(-70.361 593.35 332.091)" class="st9" cx="593.35" cy="332.08" rx="37.57" ry="27.61"/><path d="M577.75 278.18s-26.56 17.5 0 37.42c0 0 11.59-7.61 20.52 8.45 0 0 11.09 2.98 12.49 10.54 1.4 7.57 7.66 2.54 0 18.03-7.66 15.49 2.9 0 2.9 0s13.58 12.88 29.88 0V340.1s12.07-10.17 4.23-21.26c0 0 16.3-40.66-28.97-47.3 0 0-7.85-1.81-13.88 7.85-.01 0-12.08-10.26-27.17-1.21z" style="fill:#161511"/><path d="M569.91 376.56h42.25l31.27 132.51s-75.46 14.06-92-10.03c-16.53-24.09 18.48-122.48 18.48-122.48z" style="fill:#fffff8"/><path d="M542.74 658.44s-9.05 19.92 0 21.13c9.05 1.21 78.47 2.28 78.47 2.28s15.38-16.16.44-27.03l-78.91 3.62z"/><path d="m583.72 771.68-7.81-1.14c.78-5.33-2.6-7.25-4.21-7.85h-42.6l-.78-.35c-6.33-2.88-8.21-6.98-8.67-9.92-1.28-8.13 6.73-15.68 7.64-16.51.73-.66 1.67-1.03 2.66-1.03h81.14c3.29 0 6.51-1.31 8.64-3.82 1.05-1.24 1.58-2.43 1.55-3.52-.03-1.05-.57-2.13-1.35-3.15-2.04-2.65-5.29-4.09-8.63-4.09h-76.31l-1.17-1.27c-6.46-6.99-8.93-13.4-7.34-19.05 2.15-7.61 10.81-10.13 11.18-10.23l.6-.17.62.02c.49.02 49.17 1.78 64.37.02 3.58-.41 6.11-1.63 7.51-3.61 2.29-3.23 1.27-7.82 1.26-7.86l7.68-1.84c.2.81 1.8 8.1-2.44 14.18-2.75 3.94-7.16 6.29-13.11 6.97-13.7 1.58-51.43.49-62.53.13-2.2-.07-4.4.63-6.01 2.14-.7.66-1.29 1.46-1.55 2.41-.23.83-.21 1.78.05 2.84 1.1 4.45 5.34 7.41 9.93 7.41h73.1l.85.43c1.12.57 10.91 5.82 11.18 14.44.17 5.49-3.52 10.52-10.96 14.94l-.93.55H536.4c-3.85 0-7.43 2.34-8.65 5.99-.29.86-.41 1.69-.29 2.44.11.66.44 1.3 1.01 1.9 1.09 1.15 2.67 1.7 4.26 1.7h40.12l.51.14c4.25 1.16 11.91 6.14 10.36 16.76z"/><path d="M635.38 794.24H519.86a9.29 9.29 0 0 1-9.29-9.29v-5.87a9.29 9.29 0 0 1 9.29-9.29h115.51a9.29 9.29 0 0 1 9.29 9.29v5.87c0 5.13-4.16 9.29-9.28 9.29z"/><path class="st12" d="m402.67 398.25-55.52 31.99s-10.32 22.94 2.96 34.4l67 13.88s-9.66 108.64 27.76 139.43 86.92 60.96 179.87 37.42c0 0 18.64-3.56 38.36-13.7 27.54-14.16 43.06-44.28 38.83-74.96-3.73-27.08-15.18-60.2-48.3-67.09l-118.23-7.3-11.94-8.35s-17.04-96.57-44.8-104.42c0 0-78.36-30.18-76 9.05v9.65z"/><path class="st13" d="M679.76 525.04s15.69-51.3 50.7-53.11 37.42 3.62 37.42 3.62 22.94 9.05 14.49 54.93l-4.83 38.58S737.76 584.2 732 556.43c0 0 4.5-50.94-17.83-48.71l-25.35 25.77-9.06-8.45z"/><path class="st14" d="M694.24 507.72s32.59-35.19 57.94-22.52c25.35 12.68 19.92 64.58 19.92 64.58"/><path class="st9" d="m489.03 652.4-7.25 13.84 15.09 9.7 13.71-18.32z"/><path class="st8" d="M484.75 660.57s-11.1-.29-22.93 12.61c-1.6 1.74-3.26 3.41-5.08 4.91-7.94 6.54-29.16 25.99-5.14 29.24 21.59 2.92 38.94-11.83 47.8-17.91 3.93-2.7 3.41-4.68 4.77-9.25 1.58-5.29.73-11.04-1.61-11.84-2.83-.97-17.81-7.76-17.81-7.76z"/><path class="st13" d="M537.92 494.77s-53.2 86.05 25.31 102.23 76.09-51.11 76.09-51.11l.01-36.12-101.41-15z"/><path class="st14" d="M621.21 522.37s7.74 69.67-41.4 68.47"/><path class="st15" d="M506.54 336.73H370.6c-7.6 0-13.76-6.16-13.76-13.76v-8.7c0-7.6 6.16-13.76 13.76-13.76h135.94c7.6 0 13.76 6.16 13.76 13.76v8.7c0 7.6-6.16 13.76-13.76 13.76z"/><path class="st8" d="M489.44 300.51H382.5c-6.11 0-11.06-4.95-11.06-11.06v-6.99c0-6.11 4.95-11.06 11.06-11.06h106.94c6.11 0 11.06 4.95 11.06 11.06v6.99c-.01 6.11-4.96 11.06-11.06 11.06z"/><path class="st16" d="M474.35 271.22H398.8c-6.11 0-11.06-4.95-11.06-11.06v-6.99c0-6.11 4.95-11.06 11.06-11.06h75.55c6.11 0 11.06 4.95 11.06 11.06v6.99c-.01 6.11-4.96 11.06-11.06 11.06z"/><path class="st13" d="M459.26 241.91h-44.88c-6.11 0-11.06-4.95-11.06-11.06v-6.99c0-6.11 4.95-11.06 11.06-11.06h44.88c6.11 0 11.06 4.95 11.06 11.06v6.99c-.01 6.11-4.96 11.06-11.06 11.06z"/><path class="st7" d="M452.38 440.91s1.81 33.64-34.4 37.6"/><path class="st2" d="M427.47 212.8s-1.49-15.88 13.74-11.06c0 0 6.78 4.61 3.15 11.06"/><path d="M249.82 404.93s-4.64-19.31-18.52-12.07c-13.88 7.24-25.35 15.69-35.61 12.07s3.69 31.91 3.69 31.91 8.39 10.34-10.33 35.08c0 0-46.48 2.41-57.34 25.95s-36.82 30.78-60.36 29.58-47.08-25.95-38.03-50.7 22.59-38.63-1.98-65.79 10.43-60.36 34.58-54.32c24.14 6.04 47.68 41.04 86.92 20.52 0 0 40.44-40.44 84.5-17.5-.01 0 21.34 19.32 12.48 45.27z"/><ellipse transform="rotate(-30 193 414.544)" class="st3" cx="193.02" cy="414.54" rx="9.26" ry="12.68"/><path class="st16" d="M189.05 471.93s-42.25 0-57.34 25.95-26.56 40.44-22.33 74.24l50.1 3.02-10.7 70.02 133.83 3.62s-10.86-32.59 3.02-67c13.88-34.4-7.85-82.09-7.85-82.09s-12.65-27.76-45.56-27.76c0 0 33.26 18.71-17.63 18.71s-25.54-18.71-25.54-18.71z"/><path class="st3" d="M111.74 572.27s-1.76 30.04 12.73 51.16c14.49 21.13 48.29 34.4 48.29 34.4l50.7 3.62 12.07-13.95s-4.88-12.48-30.22-.82c0 0-51.14-20.84-50.66-39.97.5-19.76 4.83-31.57 4.83-31.57l-47.74-2.87z"/><path class="st9" d="M719.59 325.56v-32.29s2.72-9.36 7.85 0c0 0-1.75 11.77 4.56 11.47 6.31-.3 14.46-12.07 14.46-12.07s11.17-6.04 14.79 0c3.62 6.04-7.24 11.47-7.24 11.47h7.98s1.98 2.41-2.85 7.54-23.84 25.05-23.84 25.05l-15.71-11.17z"/><path class="st15" d="M588.62 373.4H568.1s-24.75 2.56-46.48 27.3c-21.73 24.75-24.75 36.21-24.75 36.21l6.64 42.85 39.23-33.8s7.24-6.64 4.23 13.28c-3.02 19.92-9.05 35.51-9.05 35.51l17.5 5.53 6.64-84.44c0 .02 12.67-43.18 26.56-42.44z"/><path d="M565.95 494.77s-53.99 53.51-62.44 78.41c-8.45 24.9-21.73 81.64-21.73 81.64l27.76 6.64s12-53.11 56.4-79.67c44.4-26.56 91.33-62.13 75.62-80.61s-75.61-6.41-75.61-6.41z"/><path class="st15" d="M612.65 368.47s6.42 14.13 37.97 8.1c0 0 29.74-1.81 44.83-20.52s22.33-34.4 22.33-34.4l20.52 10.44s.6 47.51-30.18 74.67c0 0-32.59 23.54-50.7 25.95 0 0 26.56 45.08 7.85 62.07-18.71 17-32.59 17-32.59 17l-16.82-71.66c-.01-.02-25.1-60.64-3.21-71.65z"/><path class="st13" d="M406.43 396.67s.42 6.84 19.73 0c19.3-6.84 35.4 9.25 35.4 9.25s21.37 8.98 9.68 73.9 24.32 50.84 24.32 50.84-12.68-27.76 20.32-44.66l8.79-4.02-20.05-70.17s-15.36-37.58-39.06-41.04c-23.71-3.47-39.39-2.48-39.39-2.48s-22.98 3.5-21.76 13.33c-.01-.01-4.82 10.22 2.02 15.05z"/><path class="st12" d="M452.21 415.86s-32.93-.26-22.8-63.23c0-.01 35.47 2.93 22.8 63.23z"/><path class="st14" d="M433.09 357.85s-2.2 10.92 7.35 26.39c9.55 15.46 8.74 25.52 8.74 25.52"/><path class="st7" d="M444.76 700.28s19.39 8.13 51.42-15.81M465.03 674.13l7.52 7.71M458.44 680.16l6.59 8.05M231.9 748.37s8.5-18.24 15.11-16.67M239.46 753.33s8.5-18.24 15.11-16.67"/><defs><circle id="SVGID_1_" cx="163.65" cy="180.49" r="90.92"/></defs><use xlink:href="#SVGID_1_" style="overflow:visible;fill:#b1e6f2"/><clipPath id="SVGID_2_"><use xlink:href="#SVGID_1_" style="overflow:visible"/></clipPath><use xlink:href="#SVGID_1_" style="overflow:visible;fill:none;stroke:#000;stroke-miterlimit:10"/><g><path class="st17" d="M168 295.55c-3.94 0-7.68-.24-11.2-.64-28.54-3.27-48.18-17.61-49-18.22-2.92-2.16-3.53-6.28-1.37-9.21a6.578 6.578 0 0 1 9.19-1.38c.18.13 18.03 13.05 43.21 15.78 33.31 3.61 63.47-11.54 89.66-45.04.83-1.18 12.82-18.63 15.71-43.38 3.95-33.84-10.19-65-42.05-92.61a6.574 6.574 0 0 1-.66-9.28 6.574 6.574 0 0 1 9.28-.66c44.28 38.38 49.69 78.12 46.43 104.71-3.53 28.76-17.53 48.23-18.12 49.05l-.13.17c-31.7 40.62-65.35 50.71-90.95 50.71z"/><path class="st17" d="M164.9 331.54c-3.63 0-6.58-2.82-6.58-6.29V290.5c0-3.47 2.95-6.29 6.58-6.29s6.58 2.82 6.58 6.29v34.75c.01 3.47-2.94 6.29-6.58 6.29z"/><path class="st17" d="M195.69 331.54h-62.47c-3.63 0-6.58-2.95-6.58-6.58s2.95-6.58 6.58-6.58h62.47c3.63 0 6.58 2.95 6.58 6.58s-2.95 6.58-6.58 6.58z"/></g><path class="st2" d="m169.61 645.72 104.54 7.87 84.5-56.11s18.71-3.62 10.86 9.05l-83.29 54.93-102.61 10.26-9.99-10.26-4.01-15.74z"/><ellipse transform="rotate(-42.752 615.848 340.122)" class="st9" cx="615.85" cy="340.11" rx="10.21" ry="7.5"/><g><path class="st7" d="M202.07 98.17s-4.48.51-9.93 6.31c-5.45 5.8-10.45-2.16-6.93-2.5s9.66-3.86 1.7-5.23c-7.95-1.36-12.84-2.16-15.68 1.82-2.84 3.98-8.52 9.43-8.52 9.43s-5.34 5.34 2.84 4.09c0 0 4.43 8.64 6.36 2.5 1.93-6.14 1.93-8.18 2.73-10 .8-1.82 4.89-2.32 4.43 1.62s-2.39 5.31 2.39 4.63c4.77-.68 4.09 4.09 1.25 5.11-2.84 1.02-4.77-1.93-7.39 2.84s-9.32 2.16-9.77 1.7-2.18-3.44-4.55 1.12c-2.38 4.56-10.22 5.81-10.22 5.81s-7.95-1.25-1.48 5.45c0 0 .68 3.18-8.07 4.77-8.75 1.59-3.75 8.07-.57 7.5 3.18-.57 16.25-8.41 16.25-8.41s4.55-2.39 7.39 2.61 2.39 6.59 6.7 5.23c4.32-1.36-2.41-6.25-2.41-6.25s.14-5 5.37-1.48 4.43 8.33 4.43 8.33 1.48 4.4 3.64.53c2.16-3.86 1.48-4.2 4.43-.68 2.95 3.52 4.2 5.34 8.41 3.64 4.2-1.7 8.3 5.11 3.75 9.32-4.55 4.2-20.57-1.59-20.57-1.59s-6.36 7.73-15.56-2.73c0 0 1.36-5-5.34-4.32s-12.5-2.39-24.2 8.64-9.09 17.95-7.61 22.39c1.48 4.43-1.14 8.52 5 12.39 6.14 3.86 1.93 6.48 13.75 6.14 0 0 7.84-4.49 12.61.03 0 0 4.43-3.44 5 4.86 0 0-2.05 5.34 2.95 11.48 5 6.14-.45 12.39-.45 12.39s2.27 10 5.11 17.84c2.84 7.84 11.59 1.02 11.59 1.02l5.34-6.59s7.16.23 3.98-6.82c0 0 6.02-1.82 7.84-7.16 1.82-5.34-.11-11.93 5.91-16.14 6.02-4.2 11.48-12.84 11.48-12.84s5.57-8.52-1.14-6.02c-6.7 2.5-7.39-6.02-8.64-6.82-1.25-.8-6.36-4.66-8.07-12.67-1.7-8.01-2.56-8.86 2.39-7.16s10.91 18.07 10.91 18.07 1.7 4.6 9.89-.17c8.18-4.77 8.69-7.16 8.69-7.16s1.53-4.43-5.45-4.43-7.5-9.55-7.5-9.55.68-2.39 9.03 3.07c8.35 5.45 8.69 3.24 8.69 3.24s5.8-1.53 6.65 6.82c0 0 5.11-1.87 5.62 11.93.51 13.81 0 8.35 0 8.35s3.92-2.05 6.14-11.42c2.22-9.37 1.92-7.97 1.92-7.97M154.76 90.46c-.85-.08-30.3 12.53-33.17 17.56-2.88 5.03-5.77-4.14.84-8.82s32.33-8.74 32.33-8.74zM74.48 194.69s11.24 5.87 15.57 16.39c0 0 14.1-1.28 16.81 17.18s.58 10.72.58 10.72-2.43 5.94 1.42 12.21c3.85 6.28-.76.04-.76.04s-28.3-19.35-33.62-56.54zM210.21 225.32s-2.25 13.15-11.08 13.12c0 0 5.45-7.84 11.08-13.12zM109.37 108.95s-3.67 13.47-10.83 16.87c0 0-1.87 4.94-10.06 10.74-8.18 5.8-4.77 3.41-4.77 3.41s8.25-14.66 12.48-19.6c4.22-4.94 13.18-11.42 13.18-11.42z"/><path class="st7" d="M145.95 120.66s1.53-8.69 5.11-3.41c3.58 5.28-1.36 6.31-1.36 6.31s-6.95 2.18-3.75-2.9zM136.44 108.56s9.17-3.75 4.91-1.19-4.91 1.19-4.91 1.19z"/></g><path style="fill:none;stroke:#a09f9f;stroke-width:2;stroke-linecap:round;stroke-miterlimit:10" d="m368.31 600.49-83.7 55.93-106.89 6.29"/></svg>