<svg version="1.1" id="Layer_1" xmlns="http://www.w3.org/2000/svg" x="0" y="0" viewBox="0 0 720.92 709.91" style="enable-background:new 0 0 720.92 709.91" xml:space="preserve"><style>.st3{fill:#f9c2b4}.st4{fill:#222323}.st5{opacity:.11;fill:#37241d}.st9{fill:#3d3d3d}.st10{fill:#f7aa2d}.st11{fill:#ffad91}</style><circle cx="342.51" cy="344.98" r="335.65" style="opacity:.82;fill:#e3d4f9"/><circle cx="360.29" cy="324.67" r="295.18" style="fill:#cfb5f6"/><path d="M673.9 699.27H27.73c-7.09 0-12.84-5.75-12.84-12.84s5.75-12.84 12.84-12.84H673.9c7.09 0 12.84 5.75 12.84 12.84s-5.75 12.84-12.84 12.84z" style="opacity:.12;fill:#3d3d3d"/><path class="st3" d="M400.57 175.09s27.06 9.63 39.9 9.63 29.81-7.8 17.89-27.52c0 0-23.12-29.35-66.82-53.2l-25.95-9.62s-19.13-11.02-26.92 5.49c0 0-7.96 8.88-1.46 12.46 6.5 3.59 30.4-1 30.4-1l41.04 36.23-12.19-3.21 4.11 30.74zM307.94 644.85s-51.36 12.84-30.27 22.01h50.45v-28.43l-20.18-3.67v10.09zM382.24 644.74s51.97 10.11 31.39 20.38l-50.38 2.66-1.5-28.39 19.96-4.73.53 10.08z"/><path class="st4" d="m282.25 353.48 5.51 288.92h48.83l5.92-288.92z"/><path class="st4" d="M337.56 355.33 349.95 644l51.96-2.75-11.41-288.71z"/><ellipse transform="rotate(-45.001 272.108 99.81)" class="st3" cx="272.11" cy="99.81" rx="5.36" ry="8.52"/><ellipse transform="rotate(-80.253 316.403 85.944)" class="st3" cx="316.42" cy="85.95" rx="8.52" ry="5.36"/><path class="st3" d="M326.32 137.75c-4.8 8.8-36.64 9.82-36.64 9.82l-1.92-26.14.24-.13 27.33-14.64 1.49 4.22 9.5 26.87z"/><path class="st5" d="M316.82 110.88 302.54 130l-5.04 6.75-7.61 10.19L288 121.3l27.33-14.64zM744 139.14l-21.66 29-5.04 6.75-7.61 10.19-2.29-31.06 35.19-18.86z"/><ellipse transform="rotate(-13.386 294.918 94.4)" class="st3" cx="294.87" cy="94.39" rx="25.45" ry="33.14"/><path d="M287.76 135.66s28.1 14.21 33.77-10.55h11.82l69.52 10.55 3.21 42.19-23.02 2.55 20.81 170.12s-105.55 22.69-129.86 6.18l-2.29-71.54v-44.48h-38.98s6.88-35.57 8.25-53.09c1.38-17.53 16.97-34.04 16.97-34.04l29.8-17.89z" style="fill:#4570ad"/><path class="st3" d="M236.85 240.67v34.39s.92 32.1 28.89 15.59l54.05-63.13s19.32-4.28 22.07-13.45-3.8-18.5-11.67-16.51-17.68 3.51-22.26 14.59l-43.11 32.09.41-3.57h-28.38z"/><path d="M269.86 97.62s-.95-19.13 2.65-20.62c10.6-4.39 14.9-4.32 22.76-10.3 9.64-7.34 20.7 11.83 20.7 11.83s-.3-12.74-4.27-18.55c-3.97-5.81-18.96-18.96-36.99-10.7-18.04 8.25-14.37 28.43-14.37 28.43s3.76 15.07 9.52 19.91z" style="fill:#472b24"/><g><path d="M694.81 446.78H33.87c-10.48 0-18.98-8.5-18.98-18.98s8.5-18.98 18.98-18.98h660.94c10.48 0 18.98 8.5 18.98 18.98 0 10.49-8.49 18.98-18.98 18.98z" style="fill:#b76930"/><path class="st9" d="M678.71 461.23H48.6c-7.98 0-14.45-6.47-14.45-14.45h659.01c0 7.98-6.47 14.45-14.45 14.45z"/><path class="st9" d="M65.11 458.45h13.76V694H65.11zM645.01 458.45h13.76V694h-13.76z"/></g><g><path class="st10" d="M419.83 408.82h-98.31v-23.61c0-5.87 4.76-10.63 10.63-10.63h87.68v34.24z"/><path class="st11" d="M370.3 199.85c0 1.83-7.83 28.43-7.83 28.43s12.26 12.94 38.1 5.96l-3.21-28.89-27.06-5.5z"/><path class="st5" d="M368.49 207.79s23.95 7.08 29.91 0l.1 5.46s-14.34 8.09-30.9-1.16l.89-4.3z"/><ellipse transform="rotate(-72.878 388.65 182.089)" class="st11" cx="388.65" cy="182.1" rx="32.94" ry="24.33"/><path d="M379.48 155.37s2.19 7.08 14.45 7.57c0 0 5.75 20.87 17.32 23.16 0 0-3.06 17.05-12.87 22.67l.36 19.52 21.32 9.63s16.6-16.57 0-32.33c0 0-8.48-4.36-2.98-34.17 0 0 3.67-23.85-24.31-29.81-27.97-5.96-33.02 25.22-33.02 25.22l-4.13 37.15 9.96 18.8s4.02-15.37 3.23-16.73c-5-8.66-6.34-16.66-6.34-16.66s-1.76-15.17 5.79-17.25 13.05-12.64 11.22-16.77z" style="fill:#37241d"/><path d="M365.95 221.39s8.02 11.33 30.34 5.22c0 0 17.35 2.16 27.17 6.89 0 0 18.38 7.17 20.83 46s15.29 64.51 11.01 81.02c0 0 .92-19.57-30.88-14.37L418 326.27l-.92 20.79 3.97 36.08-95.96-3.02s-4.48-29.08-3.57-46.82c.92-17.73-1.73-105.78-1.73-105.78s7.4-97.53 18.4-116.18c0 0-9.54 22.01 24.27 25.38 0 0-6.85 59.01-6.85 63.13.02 4.13 10.34 21.54 10.34 21.54z" style="fill:#ff4d53"/><path class="st11" d="m389.26 540.59 4.59 32.41s-.61 19.87 8.56 19.87 7.64-20.18 7.64-20.18l1.83-33.94-22.62 1.84z"/><path d="m393.58 576.36 3.01 27.82s1.53 15.29 12.84 13.45c11.31-1.83 4.59-33.63 4.59-33.63l-3.97-11.31s-.61 17.91-7.95 18.34c0 .01-3.66 1.84-8.52-14.67z"/><path class="st11" d="M364.83 540.59 359.94 573s.65 19.87-9.14 19.87-8.16-20.18-8.16-20.18l-1.96-33.94 24.15 1.84z"/><path d="M360.29 576.36 357 604.18s-1.63 15.29-13.7 13.45c-12.07-1.83-4.89-33.63-4.89-33.63l4.24-11.31s.65 17.91 8.48 18.34c0 .01 3.98 1.84 9.16-14.67z"/><path class="st11" d="M337.2 112.34s-5.37 15.88 15.79 23.95c0 0 57.28 7.84 69.2 8.15 0 0 29.04 30.57 26.9 16.51-2.14-14.06-2.45-15.59-2.45-15.59l-15.59-11.92-62.98-24.46c.01 0-22.61-7.03-30.87 3.36zM443.04 346.16l4.98 2.14c3.2 1.38 5.58 4.18 6.36 7.57 1.43 6.18.87 15.6-13.85 19.32-17.82 4.5-74.94-2.75-74.94-2.75s-3.27 11.04-13.04 9.34c-9.76-1.7-22.3-10.56-22.3-10.56s-1.83-6.11 15.59-12.54l18.04 1.53 60.54-14.06 11.57-1.1c2.4-.23 4.83.15 7.05 1.11z"/><path class="st10" d="M380.6 375.97c5.56-5.92 15.01-11.74 29.14-7.51 0 0 17.12-.61 15.9 37.61s-2.75 132.69-2.75 132.69-16.82 12.23-42.19 3.06l-6.13-149.39c-.25-6.08 1.88-12.03 6.03-16.46zM369.91 392.91c-.23-6.12-2.62-12.04-6.97-16.36-4.95-4.91-13.05-9.08-25.64-6.09 0 0-19.04.84-16.22 38.98 2.82 38.13 10.22 131.72 10.22 131.72s13.63 13.2 44.18 1.35l-5.57-149.6z"/><ellipse transform="rotate(-70.574 365.569 179.72)" class="st11" cx="365.59" cy="179.72" rx="8.05" ry="5.95"/><ellipse transform="rotate(-70.574 408.62 187.57)" class="st11" cx="408.64" cy="187.57" rx="8.05" ry="5.95"/></g><ellipse cx="352.76" cy="660.31" rx="107.24" ry="16.31" style="opacity:.1;fill:#3d3d3d"/></svg>