<?xml version="1.0" encoding="utf-8"?>
<!-- Generator: Adobe Illustrator 24.3.0, SVG Export Plug-In . SVG Version: 6.00 Build 0)  -->
<svg version="1.1" id="Layer_1" xmlns="http://www.w3.org/2000/svg" xmlns:xlink="http://www.w3.org/1999/xlink" x="0px" y="0px"
	 viewBox="0 0 844.52 784.97" style="enable-background:new 0 0 844.52 784.97;" xml:space="preserve">
<style type="text/css">
	.st0{opacity:0.21;fill:#7921CD;}
	.st1{opacity:0.39;fill:#B48CED;}
	.st2{fill:#FF4E59;}
	.st3{fill:#FFAA01;}
	.st4{fill:#029E77;}
	.st5{opacity:0.52;}
	.st6{fill:#2BD284;}
	.st7{fill:#2CD286;}
	.st8{fill:#2DD283;}
	.st9{fill:#019D76;}
	.st10{fill:#2BD185;}
	.st11{fill:#01122E;}
	.st12{fill:#F9F7FA;}
	.st13{opacity:0.39;fill:#7921CD;}
	.st14{fill:#FFF8FF;}
	.st15{fill:#FFFFFF;}
	.st16{opacity:0.39;}
	.st17{fill:#7921CD;}
	.st18{fill:#42484F;}
	.st19{fill:#323233;}
	.st20{fill:#FF7F5C;}
	.st21{fill:#D88B0F;}
	.st22{fill:#F5AB88;}
	.st23{fill:#D2E1F8;}
	.st24{fill:#305B8E;}
	.st25{fill:#4170B3;}
	.st26{fill:#000E31;}
	.st27{fill:#17384B;}
	.st28{fill:#F4AB8B;}
	.st29{fill:#011031;}
	.st30{fill:#2D3252;}
	.st31{fill:#FF5766;}
	.st32{fill:#263A52;}
	.st33{fill:#451C7F;}
	.st34{fill:#E22446;}
</style>
<g>
	<ellipse class="st0" cx="425.15" cy="750.13" rx="415.49" ry="34.85"/>
	<path class="st1" d="M57.35,752.13c0,0-93.41-94.41,26.29-177.64c0,0-67.41-109.39-30.5-197.09c0,0,10.01-38.46,12.15-66.75
		c2.14-28.29,2.14-125.42,86.06-150.69s277.76,21.92,292.28,16.67s165.4-11.85,226.62,10.71s181.39,117.29,153.86,217.62
		c-27.54,100.33-104.56,158.25-98.14,190.26c6.42,32.01,66.02,112.95,55.75,137.03c-10.28,24.07-6.68,14.68-6.68,14.68L57.35,752.13
		z"/>
	<g>
		<g>
			<path class="st2" d="M725.99,177.07c-4.89,8.44-10.03,16.71-15.16,24.98l-17.22,23.47l-34.39,46.97l-34.39,46.97l-17.2,23.49
				c-6.35,7.38-12.67,14.77-19.21,22.01c4.92-8.42,10.06-16.69,15.18-24.96l17.2-23.49l34.39-46.97l34.39-46.97l17.18-23.5
				C713.09,191.68,719.41,184.29,725.99,177.07z"/>
			<path class="st2" d="M718.67,187.33c0,0,9.45-57.04,22.67-68.96c13.22-11.92,43.49-6.42,19.64,25.68
				C737.14,176.15,718.67,187.33,718.67,187.33z"/>
			<path class="st2" d="M698.22,219.23c0,0,58.95-61.86,79.13-36.52S727.09,188.29,698.22,219.23z"/>
			<path class="st2" d="M701.68,211c0,0,16.49-39.5-7.21-57.55S696.64,189.18,701.68,211z"/>
			<path class="st2" d="M659.21,272.5c0,0,71.36-62.09,100.71-46.3s-5.81,28.7-5.81,28.7S703.42,263.51,659.21,272.5z"/>
			<path class="st2" d="M663.34,258.39c0,0,28.71-89.12-6.14-79.36S661.23,188.58,663.34,258.39z"/>
		</g>
	</g>
	<g>
		<g>
			<path class="st3" d="M95.24,300.2c4.89,8.44,10.03,16.71,15.16,24.98l17.22,23.47l34.39,46.97l34.39,46.97l17.2,23.49
				c6.35,7.38,12.67,14.77,19.21,22.01c-4.92-8.42-10.06-16.69-15.18-24.96l-17.2-23.49l-34.39-46.97l-34.39-46.97l-17.18-23.5
				C108.14,314.81,101.81,307.41,95.24,300.2z"/>
			<path class="st3" d="M102.56,310.45c0,0-9.45-57.04-22.67-68.96s-43.49-6.42-19.64,25.68S102.56,310.45,102.56,310.45z"/>
			<path class="st3" d="M123,342.36c0,0-58.95-61.86-79.13-36.52C23.7,331.18,94.14,311.41,123,342.36z"/>
			<path class="st3" d="M119.54,334.13c0,0-16.49-39.5,7.21-57.55C150.46,258.52,124.59,312.31,119.54,334.13z"/>
			<path class="st3" d="M162.01,395.62c0,0-71.36-62.09-100.71-46.3s5.81,28.7,5.81,28.7S117.8,386.63,162.01,395.62z"/>
			<path class="st3" d="M157.88,381.52c0,0-28.71-89.12,6.14-79.36C198.88,311.92,159.99,311.71,157.88,381.52z"/>
		</g>
	</g>
	<g>
		<g>
			<path class="st4" d="M463.08,179.03c0,0,44.38-55.72,65.04-102c22.79-51.02,21.76-71.59-9.72-76.72
				c-34.19-5.57-29.58,63.41-39.27,89.29C469.45,115.5,463.08,179.03,463.08,179.03z"/>
			<g class="st5">
				<line class="st6" x1="467.1" y1="170.08" x2="517.04" y2="32.55"/>
				<path class="st7" d="M467.1,170.08c3.58-11.67,7.44-23.24,11.39-34.78c1.95-5.78,4-11.52,6.01-17.28l6.17-17.22l6.32-17.16
					c2.16-5.7,4.27-11.42,6.48-17.11c4.37-11.39,8.84-22.74,13.59-33.98c-3.58,11.67-7.43,23.25-11.39,34.78
					c-1.95,5.78-4.01,11.52-6.01,17.28l-6.17,17.22l-6.32,17.16c-2.16,5.7-4.27,11.42-6.48,17.11
					C476.31,147.48,471.84,158.83,467.1,170.08z"/>
			</g>
		</g>
		<g>
			<path class="st8" d="M435.17,211c0,0,40.45-89.94,84.3-144.71c48.35-60.39,74.32-72.16,100.58-36.67
				c28.53,38.55-59.29,76.6-85,104.93C509.33,162.89,435.17,211,435.17,211z"/>
			<path class="st9" d="M443.64,200.38c11.04-12.78,22.22-25.43,33.54-37.95c5.63-6.29,11.34-12.5,17.02-18.75l17.14-18.64
				l17.26-18.53c5.79-6.14,11.55-12.31,17.38-18.41c11.61-12.25,23.36-24.38,35.26-36.37c-11.04,12.78-22.22,25.44-33.54,37.96
				c-5.63,6.29-11.34,12.5-17.02,18.75l-17.14,18.63l-17.26,18.52c-5.79,6.14-11.55,12.31-17.38,18.41
				C467.29,176.26,455.54,188.39,443.64,200.38z"/>
		</g>
	</g>
	<g>
		<g>
			<path class="st4" d="M276.11,392.63c0,0-12.9-29.15-16.75-83.04s-46.72-61.19-54.61-100.54s-21.08-71.83-47.94-76.14
				c-26.87-4.31-16.69-24.48-32.44-50.49S95.85,37.7,91.59,60.69c-4.26,22.99,5.25,74.95,15.2,83.68
				c9.95,8.74,5.18,19.29,6.54,40.28s44.01,39.68,46.87,59.95c2.86,20.27-37.84,16.15,5.16,61.66s68.68,56.85,81.05,83.75
				c12.36,26.9,36.26,50.24,36.26,50.24L276.11,392.63z"/>
			<path class="st10" d="M103.75,72.67c6.65,14.24,13.45,28.4,20.17,42.61l20.42,42.48c6.77,14.18,13.72,28.27,20.58,42.4
				l20.65,42.36l20.86,42.25c6.97,14.07,13.86,28.19,20.92,42.22l21.09,42.13c7.12,14,14.15,28.04,21.34,42
				c-6.65-14.24-13.45-28.41-20.17-42.61l-20.42-42.48c-6.77-14.18-13.72-28.26-20.59-42.39l-20.65-42.36l-20.86-42.25
				c-6.97-14.07-13.86-28.19-20.92-42.22l-21.09-42.14C117.97,100.67,110.93,86.63,103.75,72.67z"/>
		</g>
		<g>
			<path class="st10" d="M311.62,544.81c0,0-23.63-30.6-77.07-66.4s-40-84.61-76.54-116.02s-63.45-64.27-54.75-94.7
				s-16.97-31.77-35.99-63.47s-31.98-55.97-6.3-46.82s74.38,49.69,78.49,65.17c4.11,15.48,17.28,16.77,38.17,30.56
				s19.24,69.1,38.65,84.03s35.07-29.73,60.78,41.76s24.81,104.84,46.39,133.55c21.58,28.71,33.86,67.28,33.86,67.28L311.62,544.81z
				"/>
			<path class="st9" d="M67.32,177.07c11.37,15.31,22.59,30.73,33.89,46.09l33.64,46.27c11.25,15.4,22.32,30.92,33.47,46.39
				l33.41,46.43l33.19,46.59c11.04,15.55,22.17,31.02,33.13,46.64L301,502.23c10.9,15.65,21.88,31.24,32.7,46.94
				c-11.38-15.31-22.59-30.72-33.9-46.08l-33.64-46.27c-11.25-15.4-22.31-30.93-33.47-46.39l-33.41-46.43l-33.19-46.59
				c-11.04-15.54-22.17-31.03-33.12-46.64l-32.96-46.76C89.13,208.36,78.15,192.77,67.32,177.07z"/>
		</g>
	</g>
	<g>
		<g>
			<path class="st4" d="M566.97,547.57c0,0,13.27-25.11,17.23-71.53c3.96-46.41,48.06-52.71,56.18-86.6s21.68-61.88,49.32-65.59
				s17.17-21.08,33.37-43.49s29.32-38.52,33.7-18.71c4.38,19.81-5.4,64.56-15.64,72.08s-5.33,16.62-6.73,34.7
				c-1.39,18.08-45.27,34.18-48.21,51.64s38.92,13.91-5.31,53.11c-44.23,39.2-70.65,48.97-83.37,72.14
				c-12.72,23.17-37.29,43.27-37.29,43.27L566.97,547.57z"/>
			<path class="st10" d="M744.27,271.96c-6.84,12.27-13.84,24.47-20.75,36.7l-21.01,36.59c-6.97,12.21-14.11,24.35-21.17,36.52
				l-21.24,36.49l-21.46,36.4c-7.17,12.12-14.26,24.29-21.52,36.37l-21.69,36.29c-7.32,12.06-14.56,24.15-21.95,36.18
				c6.84-12.27,13.83-24.47,20.75-36.7l21.01-36.59c6.97-12.21,14.12-24.35,21.18-36.52l21.24-36.49l21.46-36.39
				c7.17-12.12,14.26-24.28,21.52-36.37l21.69-36.29C729.64,296.08,736.87,283.99,744.27,271.96z"/>
		</g>
		<g>
			<path class="st10" d="M530.44,678.66c0,0,24.3-26.36,79.28-57.2c54.97-30.84,41.15-72.88,78.73-99.94
				c37.59-27.06,65.27-55.36,56.32-81.57c-8.95-26.21,17.46-27.37,37.02-54.68s32.9-48.21,6.48-40.33
				c-26.42,7.88-76.51,42.8-80.74,56.14c-4.23,13.34-17.77,14.44-39.26,26.33c-21.49,11.88-19.79,59.52-39.76,72.38
				c-19.97,12.86-36.08-25.61-62.52,35.97c-26.45,61.58-25.52,90.3-47.72,115.03c-22.2,24.73-34.83,57.95-34.83,57.95L530.44,678.66
				z"/>
			<path class="st9" d="M781.73,361.89c-11.7,13.19-23.24,26.47-34.86,39.7l-34.6,39.86c-11.57,13.26-22.96,26.64-34.43,39.96
				l-34.36,40l-34.14,40.13c-11.36,13.39-22.81,26.72-34.07,40.17l-33.9,40.27c-11.21,13.48-22.5,26.91-33.64,40.43
				c11.7-13.18,23.24-26.47,34.87-39.7l34.6-39.85c11.57-13.26,22.95-26.64,34.43-39.96l34.36-40l34.14-40.13
				c11.36-13.39,22.81-26.73,34.07-40.17l33.9-40.27C759.3,388.85,770.6,375.42,781.73,361.89z"/>
		</g>
	</g>
	<g>
		<path class="st11" d="M651.17,752.13H210c-12.92,0-23.39-10.47-23.39-23.39V148.15c0-12.92,10.47-23.39,23.39-23.39h441.17
			c12.92,0,23.39,10.47,23.39,23.39v580.59C674.56,741.66,664.09,752.13,651.17,752.13z"/>
		<path class="st12" d="M625.95,722.78H236.14c-7.09,0-12.84-5.75-12.84-12.84V196.31c0-7.09,5.75-12.84,12.84-12.84h389.81
			c7.09,0,12.84,5.75,12.84,12.84v513.63C638.79,717.03,633.04,722.78,625.95,722.78z"/>
		<path class="st13" d="M624.66,182.71H237.43c-7.81,0-14.13,6.33-14.13,14.13v72.83h415.49v-72.83
			C638.79,189.04,632.46,182.71,624.66,182.71z"/>
		<rect x="380.31" y="281.48" class="st0" width="255.9" height="57.91"/>
		<rect x="224.95" y="279.5" class="st0" width="150.42" height="429.25"/>
		<rect x="259.99" y="239.29" class="st14" width="84.38" height="84.38"/>
		<rect x="230.64" y="333.76" class="st14" width="136.66" height="47.53"/>
		<rect x="230.64" y="391.38" class="st14" width="136.66" height="47.53"/>
		<rect x="230.64" y="449" class="st14" width="136.66" height="47.53"/>
		<rect x="230.64" y="506.62" class="st14" width="136.66" height="47.53"/>
		<rect x="230.64" y="564.23" class="st14" width="136.66" height="47.53"/>
		<rect x="230.64" y="621.85" class="st14" width="136.66" height="47.53"/>
		<g>
			<g>
				<path class="st15" d="M597.52,311.37H423.67c-2.76,0-5-2.24-5-5s2.24-5,5-5h173.84c2.76,0,5,2.24,5,5
					S600.28,311.37,597.52,311.37z"/>
			</g>
			<g>
				<path class="st15" d="M564.07,330.95H443.51c-2.76,0-5-2.24-5-5s2.24-5,5-5h120.56c2.76,0,5,2.24,5,5
					S566.83,330.95,564.07,330.95z"/>
			</g>
		</g>
		<g>
			<rect x="380.31" y="349.01" class="st0" width="255.9" height="57.62"/>
			<g>
				<g>
					<path class="st15" d="M606.01,373.66H454.85c-2.4,0-4.35-1.95-4.35-4.35c0-2.4,1.95-4.35,4.35-4.35h151.16
						c2.4,0,4.35,1.95,4.35,4.35C610.36,371.71,608.41,373.66,606.01,373.66z"/>
				</g>
				<g>
					<path class="st15" d="M576.93,390.68H472.1c-2.4,0-4.35-1.95-4.35-4.35c0-2.4,1.95-4.35,4.35-4.35h104.83
						c2.4,0,4.35,1.95,4.35,4.35C581.28,388.74,579.33,390.68,576.93,390.68z"/>
				</g>
			</g>
			<circle class="st15" cx="408.3" cy="377.82" r="22.74"/>
		</g>
		<g>
			<rect x="380.31" y="424.31" class="st0" width="255.9" height="57.62"/>
			<g>
				<g>
					<path class="st15" d="M606.01,448.96H454.85c-2.4,0-4.35-1.95-4.35-4.35c0-2.4,1.95-4.35,4.35-4.35h151.16
						c2.4,0,4.35,1.95,4.35,4.35C610.36,447.01,608.41,448.96,606.01,448.96z"/>
				</g>
				<g>
					<path class="st15" d="M576.93,465.98H472.1c-2.4,0-4.35-1.95-4.35-4.35c0-2.4,1.95-4.35,4.35-4.35h104.83
						c2.4,0,4.35,1.95,4.35,4.35C581.28,464.03,579.33,465.98,576.93,465.98z"/>
				</g>
			</g>
			<circle class="st15" cx="408.3" cy="453.12" r="22.74"/>
		</g>
		<g>
			<rect x="380.31" y="499.61" class="st0" width="255.9" height="57.62"/>
			<g>
				<g>
					<path class="st15" d="M606.01,524.25H454.85c-2.4,0-4.35-1.95-4.35-4.35s1.95-4.35,4.35-4.35h151.16c2.4,0,4.35,1.95,4.35,4.35
						S608.41,524.25,606.01,524.25z"/>
				</g>
				<g>
					<path class="st15" d="M576.93,541.28H472.1c-2.4,0-4.35-1.95-4.35-4.35s1.95-4.35,4.35-4.35h104.83c2.4,0,4.35,1.95,4.35,4.35
						S579.33,541.28,576.93,541.28z"/>
				</g>
			</g>
			<circle class="st15" cx="408.3" cy="528.42" r="22.74"/>
		</g>
		<g>
			<rect x="380.31" y="574.91" class="st0" width="255.9" height="57.62"/>
			<g>
				<g>
					<path class="st15" d="M606.01,599.55H454.85c-2.4,0-4.35-1.95-4.35-4.35s1.95-4.35,4.35-4.35h151.16c2.4,0,4.35,1.95,4.35,4.35
						S608.41,599.55,606.01,599.55z"/>
				</g>
				<g>
					<path class="st15" d="M576.93,616.58H472.1c-2.4,0-4.35-1.95-4.35-4.35s1.95-4.35,4.35-4.35h104.83c2.4,0,4.35,1.95,4.35,4.35
						S579.33,616.58,576.93,616.58z"/>
				</g>
			</g>
			<circle class="st15" cx="408.3" cy="603.72" r="22.74"/>
		</g>
		<g>
			<rect x="380.31" y="650.2" class="st0" width="255.9" height="57.62"/>
			<g>
				<g>
					<path class="st15" d="M606.01,674.85H454.85c-2.4,0-4.35-1.95-4.35-4.35s1.95-4.35,4.35-4.35h151.16c2.4,0,4.35,1.95,4.35,4.35
						S608.41,674.85,606.01,674.85z"/>
				</g>
				<g>
					<path class="st15" d="M576.93,691.87H472.1c-2.4,0-4.35-1.95-4.35-4.35s1.95-4.35,4.35-4.35h104.83c2.4,0,4.35,1.95,4.35,4.35
						S579.33,691.87,576.93,691.87z"/>
				</g>
			</g>
			<circle class="st15" cx="408.3" cy="679.01" r="22.74"/>
		</g>
		<g class="st16">
			<g class="st5">
				<path class="st17" d="M348.79,352.56h-99.06c-2.21,0-4-1.79-4-4s1.79-4,4-4h99.06c2.21,0,4,1.79,4,4S351,352.56,348.79,352.56z"
					/>
			</g>
			<g class="st5">
				<path class="st17" d="M336.08,371.59h-73.29c-1.63,0-2.96-1.79-2.96-4s1.33-4,2.96-4h73.29c1.63,0,2.96,1.79,2.96,4
					S337.71,371.59,336.08,371.59z"/>
			</g>
		</g>
		<g class="st16">
			<g class="st5">
				<path class="st17" d="M348.04,409.63h-99.06c-2.21,0-4-1.79-4-4s1.79-4,4-4h99.06c2.21,0,4,1.79,4,4
					S350.25,409.63,348.04,409.63z"/>
			</g>
			<g class="st5">
				<path class="st17" d="M335.33,428.66h-73.29c-1.63,0-2.96-1.79-2.96-4s1.33-4,2.96-4h73.29c1.63,0,2.96,1.79,2.96,4
					S336.96,428.66,335.33,428.66z"/>
			</g>
		</g>
		<g class="st16">
			<g class="st5">
				<path class="st17" d="M348.96,469.35H249.9c-2.21,0-4-1.79-4-4s1.79-4,4-4h99.06c2.21,0,4,1.79,4,4S351.17,469.35,348.96,469.35
					z"/>
			</g>
			<g class="st5">
				<path class="st17" d="M336.25,488.38h-73.29c-1.63,0-2.96-1.79-2.96-4s1.33-4,2.96-4h73.29c1.63,0,2.96,1.79,2.96,4
					S337.88,488.38,336.25,488.38z"/>
			</g>
		</g>
		<g class="st16">
			<g class="st5">
				<path class="st17" d="M348.04,525.42h-99.06c-2.21,0-4-1.79-4-4s1.79-4,4-4h99.06c2.21,0,4,1.79,4,4
					S350.25,525.42,348.04,525.42z"/>
			</g>
			<g class="st5">
				<path class="st17" d="M335.33,544.45h-73.29c-1.63,0-2.96-1.79-2.96-4s1.33-4,2.96-4h73.29c1.63,0,2.96,1.79,2.96,4
					S336.96,544.45,335.33,544.45z"/>
			</g>
		</g>
		<g class="st16">
			<g class="st5">
				<path class="st17" d="M348.04,582.48h-99.06c-2.21,0-4-1.79-4-4s1.79-4,4-4h99.06c2.21,0,4,1.79,4,4
					S350.25,582.48,348.04,582.48z"/>
			</g>
			<g class="st5">
				<path class="st17" d="M335.33,601.51h-73.29c-1.63,0-2.96-1.79-2.96-4s1.33-4,2.96-4h73.29c1.63,0,2.96,1.79,2.96,4
					S336.96,601.51,335.33,601.51z"/>
			</g>
		</g>
		<g class="st16">
			<g class="st5">
				<path class="st17" d="M348.04,639.55h-99.06c-2.21,0-4-1.79-4-4s1.79-4,4-4h99.06c2.21,0,4,1.79,4,4
					S350.25,639.55,348.04,639.55z"/>
			</g>
			<g class="st5">
				<path class="st17" d="M335.33,658.58h-73.29c-1.63,0-2.96-1.79-2.96-4s1.33-4,2.96-4h73.29c1.63,0,2.96,1.79,2.96,4
					S336.96,658.58,335.33,658.58z"/>
			</g>
		</g>
		<g class="st5">
			<path class="st18" d="M508.48,158.22H319.54c-3,0-5.43-2.14-5.43-4.77c0-2.63,2.43-4.77,5.43-4.77h188.94
				c3,0,5.43,2.14,5.43,4.77C513.91,156.08,511.48,158.22,508.48,158.22z"/>
		</g>
		<circle class="st18" cx="547.26" cy="154.95" r="5"/>
	</g>
	<g>
		<rect x="665.91" y="603.54" class="st19" width="8.71" height="143.37"/>
		<rect x="789.73" y="603.54" class="st19" width="7.64" height="146.12"/>
		<rect x="670.5" y="646.93" class="st19" width="122.45" height="6.88"/>
		<path class="st20" d="M812.2,607.71H651.69l0,0c0-14.86,12.05-26.91,26.91-26.91h106.69C800.16,580.8,812.2,592.85,812.2,607.71
			L812.2,607.71z"/>
	</g>
	<g>
		<path class="st21" d="M695.87,413.2c0,0-18.8,18.04-27.52,46.93c0,0-9.94,19.41-1.83,37.45l27.67,36.23l-3.82-31.8l-10.76-18.65
			l22.07-33.32L695.87,413.2z"/>
		<path class="st21" d="M771.08,411.67c0,0,20.18,23.98,26.45,41.19c6.27,17.2,5.81,30.66,5.81,30.66s0,16.51-12.23,28.59
			c-12.23,12.08-18.65,17.89-18.65,17.89l-5.04-11.01l15.29-27.36c0,0,4.43-6.27-0.15-14.37c-4.59-8.1-15.13-30.42-15.13-30.42
			L771.08,411.67z"/>
		<ellipse class="st22" cx="734.59" cy="366.67" rx="22.67" ry="33.08"/>
		<polygon class="st22" points="724.51,393.02 722.32,424.14 759.92,422.07 747.66,408.58 744.84,391 		"/>
		<path class="st3" d="M723.67,404.95c0,0-13.66,1.04-26.34,6.5c-1.89,0.81-3.02,2.77-2.84,4.82l7.35,83.18h69.4l1.22-42.51v-43.14
			c0-2.24-1.55-4.18-3.73-4.68c-5.64-1.28-16.14-3.42-20.72-2.64c0,0-5.81,8.43-12.54,8.43
			C728.74,414.88,723.36,409.97,723.67,404.95z"/>
		<path class="st12" d="M686.9,477.41h94.03c2.33,0,4.12,2.09,3.75,4.39l-8.96,55.89c-0.29,1.82-1.86,3.17-3.7,3.19l-76.8,0.85
			c-1.9,0.02-3.52-1.37-3.8-3.25l-8.27-56.73C682.81,479.46,684.59,477.41,686.9,477.41z"/>
		<circle class="st23" cx="733.13" cy="504.73" r="7.15"/>
		<path class="st24" d="M697.55,533.81c0,0-19.77-5.56-19.04,24.19c0.15,6.03,2.37,11.8,6.3,16.38
			c6.24,7.25,17.79,17.46,35.21,20.65l8.71,136.29h22.93l5.04-160.05L697.55,533.81z"/>
		<path class="st25" d="M775.72,537.69c0,0,21.75,31.09,0,43.11c0,0-23.99,7.44-35.02-3.11c0,0-1.6-5.65-6.78,5.66l-41.86,115.41
			l-21.55-7.06l27.52-116.97c0,0,2.99-42.45,29.93-44.74C754.88,527.7,775.72,537.69,775.72,537.69z"/>
		<path class="st26" d="M729.73,731.54c-2.1,3.67-0.56,24.76-0.56,24.76h42.29c0,0,12.23-2.75-8.41-15.13c0,0-4.89-2.14-13.61-10.85
			L729.73,731.54z"/>
		<path class="st26" d="M691.17,698.76l-8.07,23.85h-44.25c0,0-6.32-15.65,5.96-16.97c14.22-1.53,21.1-9.94,21.1-9.94l4.59-4
			L691.17,698.76z"/>
		<path class="st27" d="M713.76,355.98l41.58-0.48c0,0,5.36,17.25-1.07,26.01c0,0-1.23,6.62-8.57,14.11l0.62,8.1l16.05,0.61
			c0,0,4.72-2.56,4.53-13.4c-0.03-1.51-0.01-3.03,0.12-4.54c0.49-5.88,1.49-21.43-0.83-30.9c-2.9-11.85-7.49-28.51-29.04-30.35
			s-31.8,23.69-31.8,23.69s-8.32,22.02-6.98,34.61c0.17,1.6,0.21,3.21,0.05,4.81c-0.44,4.36-0.29,13.1,7.85,13.33l17.41,2.75
			l0.56-8.11c0,0-9.61-8.41-11.31-19.73C711.16,364.7,713.76,355.98,713.76,355.98z"/>
		
			<ellipse transform="matrix(0.1759 -0.9844 0.9844 0.1759 258.844 1054.2151)" class="st22" cx="759.07" cy="372.51" rx="8.31" ry="4.8"/>
	</g>
	<g>
		<g>
			<polygon class="st28" points="68.97,697.53 57.35,710.99 75.08,725.97 83.64,707.01 			"/>
			<path class="st25" d="M60.41,704.26l-13.76,16.82l35.46,35.16c0,0,12.84,2.75,9.17-9.48c0,0-10.62-22.11-10.39-28.13
				C80.89,718.63,63.16,711.9,60.41,704.26z"/>
		</g>
		<g>
			<path class="st28" d="M138.37,722.6l4.28,20.48l21.71-3.06c0,0-15.59-19.87-14.68-23.85C150.6,712.21,138.37,722.6,138.37,722.6z
				"/>
			<path class="st25" d="M138.37,735.14v24.15h52.89c0,0,7.03-7.03-4.59-12.08c-11.62-5.04-25.68-16.84-25.68-16.84
				S153.35,740.03,138.37,735.14z"/>
		</g>
		<path class="st29" d="M171.39,528.16l-12.54,70.93c0,0,2.45,27.73-19.57,51.32c-22.01,23.59-56.56,60.58-56.56,60.58L65.3,697.53
			l34.55-50.45l20.48-31.73l14.68-87.2H171.39z"/>
		<path class="st30" d="M75.08,528.46l41.27,79.49c0,0,7.95,11.62,5.35,18.34l14.83,99.67h24.46l-6.11-100.59
			c0,0-1.83-26.27-9.17-47.07c-7.34-20.8-14.68-53.07-14.68-53.07L75.08,528.46z"/>
		<ellipse class="st28" cx="125.34" cy="304.36" rx="23.53" ry="31.8"/>
		<path class="st28" d="M113.3,328.51c0,0,3.67,11.01,0,18.34c-3.67,7.34,32.1,4.28,32.1,4.28l-9.17-11c0,0-5.2-11.02-3.36-11.63
			C134.7,327.9,113.3,328.51,113.3,328.51z"/>
		<path class="st31" d="M114.91,337.99l-32.7,14.4c0,0-12.02,4.87-12.02,25.04c0,0,2.75,28.02,4.59,47.05l-1.22,105.72
			c0,0,51.97,14.79,82.55,6.07l17.12-2.92V385.69l-6.92-28.49c-0.5-2.05-1.65-3.88-3.29-5.22c-4.79-3.95-15.75-11.97-27.81-14.11
			c0,0-4.18,16.64-18.24,4.71L114.91,337.99z"/>
		<path class="st32" d="M106.88,291.83c0,0-0.31-16.82,10.39-13.76c10.7,3.06,16.82,3.24,16.82,3.24s13.15-1.93,11.31,6.43
			s3.47,11.12,3.47,11.12l-1.16,11.78l7.17-27.68c0,0-2.14-18.96-8.25-17.12c-6.11,1.83-5.2-3.36-8.25-8.56
			c-3.06-5.2-13.15-0.31-15.29,0c-2.14,0.31-2.36,3.06-10.05,3.06s-11.05,1.53-13.19,7.64s-8.56,5.5-6.11,11.62
			s-4.89,7.03-3.67,10.09c1.22,3.06,11.74,20.95,11.74,20.95L106.88,291.83z"/>
		<g>
			<path class="st17" d="M301.34,361.37L179.76,520.91c-4.05,5.32-11.65,6.34-16.96,2.29L116.6,488
				c-5.32-4.05-6.34-11.65-2.29-16.96l121.58-159.55c4.05-5.32,11.65-6.34,16.96-2.29l46.2,35.2
				C304.37,348.46,305.39,356.05,301.34,361.37z"/>
			<circle class="st33" cx="165.76" cy="472.78" r="34.59"/>
			<circle class="st17" cx="157.65" cy="465.34" r="11.94"/>
			<path class="st17" d="M176.54,505.65c-8.95-6.92-10.65-19.78-3.78-28.79c6.57-8.62,18.63-10.62,27.58-4.81"/>
			<g>
				<g>
					<path class="st33" d="M266.53,343.65l-69.24,90.86c-1,1.32-2.89,1.57-4.2,0.57c-1.32-1-1.57-2.89-0.57-4.2l69.24-90.86
						c1-1.32,2.89-1.57,4.2-0.57S267.54,342.33,266.53,343.65z"/>
				</g>
			</g>
			<g>
				<g>
					<path class="st33" d="M253.1,330.05l-69.24,90.86c-1,1.32-2.89,1.57-4.2,0.57s-1.57-2.89-0.57-4.2l69.24-90.86
						c1-1.32,2.89-1.57,4.2-0.57C253.85,326.85,254.11,328.73,253.1,330.05z"/>
				</g>
			</g>
			<g>
				<g>
					<path class="st33" d="M279.96,351.87l-69.24,90.86c-1,1.32-2.89,1.57-4.2,0.57s-1.57-2.89-0.57-4.2l69.24-90.86
						c1-1.32,2.89-1.57,4.2-0.57C280.71,348.67,280.96,350.55,279.96,351.87z"/>
				</g>
			</g>
		</g>
		
			<ellipse transform="matrix(0.9795 -0.2014 0.2014 0.9795 -59.2467 26.0643)" class="st28" cx="98.46" cy="304.19" rx="5.05" ry="8.1"/>
		
			<ellipse transform="matrix(0.1438 -0.9896 0.9896 0.1438 -172.0205 406.4283)" class="st28" cx="148.87" cy="302.63" rx="8.1" ry="5.05"/>
		<path class="st34" d="M77.85,358.87c2.58-1.42,5.82-0.95,7.95,1.07c3.31,3.13,8.19,9.51,10.68,21.18
			c3.97,18.63,13.45,53.79,13.45,53.79s10.7,22.01,25.07,31.8s32.1,17.5,32.1,17.5l-4.89,16.43c0,0-29.29-1.79-44.29-17.17
			c-2.07-2.12-4.24-4.15-6.6-5.94c-7.19-5.46-22.46-19.04-27.08-38.79c0,0-15.53-41.2-13.42-54.77
			C72.63,372.39,70.67,362.82,77.85,358.87z"/>
		<path class="st28" d="M161.91,484.21h8.56c0,0,5.2-17.45,14.06-15.03s-3.06,7.4-3.06,7.4s-2.75,6.79,2.14,7.63
			s27.07,0.01,19.73,7.04c-7.34,7.03-9.95,12.45-9.95,12.45s-3.06,5.53-6.73,4.59c-10.4-2.66-21.1-5.81-27.82-14.06L161.91,484.21z"
			/>
		<path class="st28" d="M261.89,416.15l-10.77-5.37c0,0-9.52-4.13-4.68,3.12c0,0-11.87-5.37-8.12,0.74s4.93,4.37,4.93,4.37
			l-6.32,0.99c0,0-4.76,3.02,3.06,4.46c7.82,1.45-4.01,2.09-4.01,2.09s-3.41,2.23,1.53,6.5c4.94,4.27,7.06,4.58,7.06,4.58
			L261.89,416.15z"/>
	</g>
	<g>
		<path class="st2" d="M833.51,406.46h-50.05c-6.08,0-11.01,4.93-11.01,11.01v20.31c0,6.08,4.93,11.01,11.01,11.01h16.38l2.2,4.49
			l4.68,9.54l5.92-8.82l3.49-5.2h17.37c6.08,0,11.01-4.93,11.01-11.01v-20.31C844.52,411.39,839.59,406.46,833.51,406.46z"/>
		<g>
			<circle class="st14" cx="790.27" cy="426.93" r="4.16"/>
			<circle class="st14" cx="807.2" cy="426.93" r="4.16"/>
			<circle class="st14" cx="824.13" cy="426.93" r="4.16"/>
		</g>
	</g>
</g>
</svg>
