<svg version="1.1" id="Layer_1" xmlns="http://www.w3.org/2000/svg" xmlns:xlink="http://www.w3.org/1999/xlink" x="0" y="0" viewBox="0 0 1000 785.12" style="enable-background:new 0 0 1000 785.12" xml:space="preserve"><style>.st3,.st4,.st6,.st7,.st8{clip-path:url(#SVGID_2_);fill:#58595b}.st4,.st6,.st7,.st8{fill:#e8a6a0}.st6,.st7,.st8{fill:#fff}.st7,.st8{fill:#f4b0a6}.st8{fill:#f3a193}.st11{fill:#e29688}.st11,.st12,.st15{clip-path:url(#SVGID_2_)}.st12{fill:#170500}.st15{opacity:.21}.st16{fill:#191919}.st18{clip-path:url(#SVGID_2_);fill:#db8905}.st22{fill:#4c4c4b}.st22,.st25{clip-path:url(#SVGID_2_)}.st26{fill:#a7a9ac}.st27{fill:#472f17}</style><path d="M795.68 771.87c-159.22 18.03-561.27-26.89-628.71-77.52C-6.38 564.23-19.21 246.53 214.68 78.18c224.04-161.27 601.79 21.87 613.25 34.51 139.79 154.09 233.78 629.06-32.25 659.18z" style="fill:#cfb0f6"/><defs><path id="SVGID_1_" d="M768.12 742.38c-147.18 21.23-520.87-24.95-583.47-71.94C23.77 549.68 11.86 254.85 228.92 98.61c207.91-149.66 558.39 23.13 569.66 34.26 144.92 143.08 214.62 574.16-30.46 609.51z"/></defs><clipPath id="SVGID_2_"><use xlink:href="#SVGID_1_" style="overflow:visible"/></clipPath><path d="M768.12 742.38c-147.76 16.73-520.87-24.95-583.47-71.94C23.77 549.68 11.86 254.85 228.92 98.61c207.91-149.66 567.84 8.89 576.44 22.19 117.9 182.24 209.63 593.63-37.24 621.58z" style="clip-path:url(#SVGID_2_);fill:#e3d4f9"/><path d="M763.64 594.02s-146.69-14.33-166.91 26.14c-20.22 40.46-22.5 117.51-22.5 117.51l80.5 9.63 108.91-153.28z" style="clip-path:url(#SVGID_2_);fill:#191919"/><path class="st3" d="M153.43 358.35c-8.3 6.58-98.34 11.06-105.22 73.43-5.8 52.57 24.54 174.22 34.22 211.14 2.04 7.8 7.25 14.39 14.39 18.14 15.52 8.15 46.96 19.54 95.72 14.3 73.05-7.86 57.86-66.15 57.86-66.15l-96.97-250.86zM369.22 247.24c-8.3 6.58-98.34 11.06-105.22 73.43-6.88 62.37 37.11 221.96 37.11 221.96s34.17 29.47 107.22 21.61 57.86-66.15 57.86-66.15l-96.97-250.85z"/><path class="st4" d="m346.65 258.88-6.77 34.34 52.97 9.16-6.88-43.5z"/><path style="clip-path:url(#SVGID_2_);fill:#f1f2f2" d="M449.71 370.52 725.1 396 574.23 737.66l-387.68-63.29z"/><path class="st6" d="m653.93 510.69-112.61-7.61-46.78 88.78 132.9 12.38z"/><path class="st7" d="M664.06 481.23s-55.37-16.07-61.82 3.93c-3.94 12.19-3.1 22.58-1.85 28.83.73 3.67 3.95 6.3 7.7 6.3h1.15c6.85 0 13.49-2.11 19.25-5.81 7.06-4.53 19.3-8.97 35.58-1.8 26.64 11.73-.01-31.45-.01-31.45z"/><path class="st3" d="m679.24 178.04 54.11 1.5s30.27-4.59 22.01 56.87c-8.25 61.45-24.76 169.19-24.76 169.19l-177.94-25.05 18.9-171.35s-10.73-30.01 30.63-30.57c42.93-.59 77.05-.59 77.05-.59z"/><ellipse transform="rotate(-81.013 645.133 146.761)" class="st8" cx="645.12" cy="146.76" rx="47.46" ry="35.08"/><path class="st8" d="M621.59 184.85v38.26h48.48s5.5-56.41 0-56.41-48.48 18.15-48.48 18.15z"/><ellipse transform="rotate(-15.754 364.183 233.204)" class="st7" cx="364.18" cy="233.2" rx="36.23" ry="46.32"/><path d="M344.46 215.68s47.69 4.75 54.11-16.15c0 0-.92-27.32-34.39-32.82-33.48-5.5-58.24 7.86-64.66 32.82-6.42 24.96-17.43 46.06 4.59 65.32 5.5 4.82 11.12 7.8 16.5 9.42 16.12 4.86 30.05-2.54 32.12-9.42 2.74-9.18-15.6-32.31-8.27-49.17z" style="clip-path:url(#SVGID_2_);fill:#4c261f"/><path d="m325.2 279.52-35.43 27.49a21.769 21.769 0 0 0-8.26 19.96c4.11 32.11 18.95 113.29 50.11 127.73 37.61 17.43 32.56 16.51 32.56 16.51l63.75-56.87s-4.59-33.02 23.85-25.68c28.43 7.34 19.7 15.02 19.7 15.02l5.21-45.29s3.51-12.84-13.91-33.94-53.2-54.11-53.2-54.11h-26.6l-2.75 25.57-35.43-20.09-19.6 3.7z" style="clip-path:url(#SVGID_2_);fill:#ff4d53"/><path class="st4" d="m385.74 314.37-14.68-18.46-21.33-9.97s3.9-12.17 14.45-7.46l10.55 4.71s-8.83-5.5 2-12.84c10.84-7.34 26.43-8.31 29.18 5.48 2.75 13.78 2.75 32.13 2.75 32.13v6.42h-22.92z"/><ellipse transform="rotate(-4.014 220.624 307.757)" class="st11" cx="220.78" cy="307.95" rx="39.67" ry="58.02"/><path class="st11" d="m187.17 323.55-24.31 35.77s19.26 49.07 39.9 52.74c20.64 3.67 33.48-41.27 33.48-41.27l-11.4-4.95.39-6.06-38.06-36.23z"/><path class="st12" d="M199.86 302.62s-4.44-11.63 1.98-18.05 24.31-.97 28.43-8.74c2.43-4.57 10.08-5.66 15.98-5.78 5.57-.12 10.71-3.11 13.55-7.91 3.99-6.75 6.71-15.89-3.85-20.22-17.89-7.34-32.56-15.13-50.9-11.46-18.34 3.67-42.19 6.42-49.99 16.97-7.8 10.55-11.92 30.73-9.63 45.86s9.71 48.04 17.43 51.36l7.72 3.32 16.59-24.42 5.37-7.34s-7.03-15.72 7.32-13.59z"/><path d="M173.87 347.96s26.57 34.33 43.11 32.59h11.92l15.59 86.99s13.3 21.55 0 16.97c-13.3-4.59-24.76-27.52-26.14-31.64-1.38-4.13-21.1-47.27-21.1-47.27l-23.39-34.82-7.86-16.09 7.87-6.73z" style="clip-path:url(#SVGID_2_);fill:#fffaff"/><path class="st6" d="M349.74 491.79s104.33-2.35 101.58 0-54.57 78.02-54.57 78.02l-106.85-4.59 59.84-73.43zM464.82 406.41l56 4.7-32.17 51.76-72.19-6.79zM653.93 391.42l-15.5 40.35-88.05-2.26 26.15-39.06z"/><path d="M615.96 93.33s-25.85 11.92-6.59 29.35l5.66 3.02s.51-6.15 6.56-9.12c7.29-3.58 24.66 11.03 32.34-1.24s7.79 1.83 10.13 11.01c2.34 9.17 8.4 15.56 12.43 14.68 4.03-.89 0 24.45 0 24.45s15.59 3.06 14.68-23.54c-.92-26.6-3.67-44.03-3.67-44.03s-2.94-13.76-33.57-11.92c-30.64 1.84-37.97 7.34-37.97 7.34z" style="clip-path:url(#SVGID_2_);fill:#3c0105"/><g class="st15"><path class="st16" d="M321.54 288.74c-.84 3.75-1.64 7.51-2.05 11.3-.18 1.88-.36 3.81-.11 5.59.06.44.17.87.33 1.21.17.34.37.57.58.63.22.06.56-.01.92-.15l1.3-.57c7.01-3.13 14.06-6.18 21.12-9.19l.74-.31.46.67c2.58 3.76 5.1 7.55 7.64 11.34l7.53 11.41c2.49 3.82 4.96 7.65 7.41 11.49 2.42 3.87 4.87 7.71 7.22 11.62-2.75-3.64-5.4-7.35-8.09-11.04-2.66-3.7-5.29-7.43-7.9-11.16l-7.77-11.25c-2.56-3.77-5.14-7.52-7.67-11.32l1.2.36c-7.08 2.97-14.17 5.89-21.3 8.73l-1.35.54c-.53.18-1.17.36-1.89.13-.72-.27-1.11-.89-1.33-1.41-.21-.54-.3-1.06-.35-1.57-.16-2.04.09-3.97.43-5.88.7-3.81 1.69-7.53 2.93-11.17z"/></g><g class="st15"><path class="st16" d="M419.89 335.47c1.02.82 1.86 1.74 2.67 2.7.79.96 1.52 1.97 2.19 3.01.67 1.04 1.28 2.12 1.83 3.24.54 1.13 1.03 2.28 1.35 3.55-1.02-.81-1.87-1.74-2.67-2.7a32.08 32.08 0 0 1-2.19-3.01c-.67-1.04-1.28-2.12-1.83-3.24-.53-1.13-1.03-2.28-1.35-3.55z"/></g><g class="st15"><path class="st16" d="M451.37 347.96c-1.98 1.51-3.93 2.99-5.85 4.5-1.9 1.52-3.79 3.04-5.53 4.71-.46.39-.89.81-1.31 1.24-.42.43-.87.84-1.25 1.29l-1.21 1.32-1.12 1.4c-1.43 1.91-2.66 3.95-3.51 6.32.01-2.51.93-5 2.21-7.19 1.26-2.23 3.01-4.1 4.82-5.84.93-.86 1.9-1.65 2.89-2.42 1.02-.72 2.03-1.47 3.11-2.1 2.14-1.3 4.37-2.45 6.75-3.23z"/></g><path d="M616.87 199.72s22.56 14.68 28.25 14.68c5.69 0 27.01-19.49 27.01-19.49l56.64 24.08s35.77 23.85 34.85 55.03-12.84 122.9-12.84 122.9l-184.36-17.43v-53.2l-13.76 5.5 21.1 18.34-14.68 38.52-53.2-17.43s-11.01-11.01 0-48.61c7.5-25.64 24.39-62.58 34.37-83.49a60.86 60.86 0 0 1 27.93-28.32c12.82-6.33 30.4-12.48 48.69-11.08z" style="clip-path:url(#SVGID_2_);fill:#feac02"/><path class="st18" d="M611.37 199.53v32.3l33.75-17.43zM672.13 194.91l-27.01 19.49 17.61 17.43 20.26-32.3z"/><path style="clip-path:url(#SVGID_2_);fill:#282828" d="m628.24 223.11 4.08 15.14-16.36 116.44 16.36 18.38 14.73-18.38V231.83l6.88-8.72-8.81-8.71-12.8-1.03z"/><ellipse transform="rotate(-81.013 672.454 146.951)" class="st8" cx="672.44" cy="146.95" rx="11.96" ry="8.84"/><path class="st11" d="M347.22 471.22h13.3s19.03-14.22 18.69-20.19c-.34-5.96 10.66 0 7.45 8.25s-4.59 6.42-4.59 6.42 18.34-7.34 26.6-1.38c8.25 5.96 14.68 11.83 9.17 20.82-5.5 8.99-41.1 6.24-41.1 6.24l-27 4.18-5.73-14.35 3.21-9.99z"/><path d="m166.53 347.96-77.96 61.8s-17.89 19.26-16.05 46.78c1.7 25.51 6.16 74.66 33.11 164.63 3.97 13.25 16.51 22.06 30.31 21.22 28.89-1.76 76.38-7.39 95.26-25.34 27.97-26.6 64.2-66.5 64.2-66.5l12.09-15.82s10.9-12.45 11.2-12.93c11.52-18.37-8.8-19.73 12.1-13.98l21.61-4.75v-38.54s-21.23-2.05-35.9-5.71c-14.68-3.67-30.27-23.39-30.27-23.39l-28.43-51.36s-14.74-19.45-27.73-19.13l-13.08 15.6 23.39 90.67-47.69-84.86-26.16-38.39z" style="clip-path:url(#SVGID_2_);fill:#4570ad"/><path d="M294.94 362.07s-23.85-51.36 7.34-39.44c31.18 11.92 70.62 50.45 70.62 50.45l3.84-65.12h36.52v97.65s-3.67 30.76-26.6 22.5c0 0-74.76-28.01-91.72-66.04z" style="clip-path:url(#SVGID_2_);fill:#e54551"/><path class="st22" d="M153.43 358.35c.34 7.02.48 14.05.73 21.08l.25 10.55.1 5.27.02 1.32.01.33c0 .1.01.12.02.21.02.15.05.32.09.49.18.67.5 1.35.98 1.93.9 1.21 2.23 2.14 3.69 2.84 1.44.74 3.06 1.2 4.68 1.63l2.49.47 2.54.3c.84.12 1.7.11 2.55.17l1.27.07c.47.01 1 .04 1.48.11 1.93.25 3.92.91 5.56 2.36.41.35.74.81 1.09 1.23.26.48.58.95.76 1.46.15.52.36 1.04.42 1.56.05.52.11 1.04.13 1.56-.07 1-.13 2.01-.41 2.93-.18.96-.53 1.83-.86 2.71-.66 1.74-1.39 3.27-2.09 4.9-.69 1.6-1.41 3.19-1.95 4.75-.52 1.56-.89 3.07-.62 4.45.23 1.39 1.01 2.77 1.96 4.12.97 1.35 2.1 2.65 3.23 3.96 4.64 5.34 9.09 10.77 13.48 16.26 8.81 10.96 17.37 22.1 25.75 33.39-4.68-5.25-9.22-10.61-13.85-15.89l-13.7-16c-4.59-5.31-9.09-10.71-13.79-15.86-1.2-1.31-2.38-2.67-3.47-4.17-1.06-1.5-2.12-3.23-2.49-5.32-.4-2.12.13-4.15.7-5.89.6-1.76 1.32-3.38 2.02-5 .69-1.59 1.48-3.24 2.07-4.78.29-.77.61-1.53.75-2.3.24-.78.27-1.52.34-2.27-.01-1.46-.41-2.77-1.43-3.65-1-.9-2.46-1.46-3.99-1.69-.4-.06-.74-.09-1.15-.11l-1.35-.1c-.9-.08-1.81-.09-2.7-.23-.9-.12-1.79-.23-2.69-.37l-2.67-.56c-1.77-.5-3.54-1.03-5.21-1.95-1.66-.88-3.27-2.05-4.43-3.71a7.721 7.721 0 0 1-1.27-2.79c-.06-.26-.1-.52-.12-.81-.01-.13-.02-.32-.01-.45l.01-.33.02-1.32.1-5.26.25-10.53c.22-7.03.37-14.05.71-21.07zM230.06 364.95c2.47.78 4.8 2.07 6.85 3.74a18.19 18.19 0 0 1 4.96 6.28c.15.31.32.61.44.92l.32.97c.19.65.47 1.3.54 1.98l.34 2.03c.04.68.04 1.36.05 2.05l.01 1.03c-.03.34-.09.67-.13 1.01l-.27 2.02c-.27 1.32-.68 2.61-1.02 3.92l.08-.45c-.02 4.33-.04 8.66-.14 12.99l-.15 6.49-.23 6.49c-.07 2.16-.18 4.33-.29 6.49-.1 2.16-.23 4.33-.37 6.49-.27 4.33-.6 8.65-1.07 12.98-.33-4.34-.52-8.67-.65-13.01-.07-2.17-.13-4.33-.16-6.5-.04-2.17-.09-4.33-.08-6.5l-.02-6.5.06-6.5c.04-4.33.17-8.66.28-12.99l.01-.19.08-.26c.35-1.17.77-2.33 1.06-3.52l.32-1.8c.05-.3.11-.6.16-.9l.04-.9c.02-.6.07-1.21.08-1.81l-.18-1.8c-.01-.61-.23-1.18-.36-1.77l-.22-.88c-.08-.29-.21-.57-.32-.85-.82-2.29-2.21-4.39-3.94-6.2-1.77-1.75-3.8-3.34-6.08-4.55z"/><ellipse transform="rotate(-36.08 192.528 307.948)" class="st11" cx="192.54" cy="307.95" rx="9.06" ry="13.26"/><path class="st7" d="m691.2 347.96 20.14 42.49 45.46-42.49-32.8-31.71z"/><ellipse transform="rotate(-48.24 668.62 334.33)" class="st7" cx="668.59" cy="334.36" rx="38" ry="54.09"/><path class="st12" d="M621.59 326.04s-23.98-22.58-5.63-37.31c13.61-10.92 38.16-28.89 49.92-37.43 4.77-3.47 10.62-5.12 16.5-4.6 14.97 1.34 42.44 8.15 49.6 39.56 9.99 43.8 0 48.09 0 48.09l-33.02 23.99s-29.07-3.97-26.23-16.63-8.67-25.46-8.67-25.46-9.76 12.41-10.13 18.11c-.37 5.7-17.53-25.08-32.34-8.32z"/><path d="m756.8 347.96-8.31-13.6-48.15 30.59v21.41l-9.13 20.05s-40.04 65.64-27.15 106.27l12.89 40.62s18.5 17.89-4.51 16.51c-23.01-1.38-70.21-6.88-70.21-6.88l-18.84 53.66 99.6 26.6v38.06l123.28 6.88s22.64-70.17 21.26-111.44 59.91-121.07 59.91-121.07l-52.28-82.55s-21.68-42.85-59.16-31.36c-37.48 11.5-19.2 6.25-19.2 6.25z" style="clip-path:url(#SVGID_2_);fill:#488bc0"/><path class="st7" d="M599.34 571.17c-.54 1.53-5.28-6.76-9.46-14.55-4.9-9.13-13.82-15.51-24.09-16.9-4.5-.61-8.77-.61-11.27.85-2.17 1.26-4.42 2.37-6.86 2.98-6.02 1.49-15.97 4.89-21.17 11.81-7.76 10.34-7.37 25.48 0 25.48h23.88s12.94 17.6 27.52 13.76c14.58-3.84 12.05 6.88 12.05 6.88l9.4-30.31z"/><path d="M668.59 456.04s22.12-36.73 45.51 0c23.39 36.73 60.54 84.88 31.64 164.68 0 0-22.4 33.25-62.75 22.47s-99.6-26.6-99.6-26.6l18.84-53.66 70.21 6.88s19.64 6.88 4.51-16.51c-15.13-23.38-18.97-70.58-8.36-97.26z" style="clip-path:url(#SVGID_2_);fill:#3f7faa"/><ellipse transform="rotate(-4.014 663.367 329.892)" class="st7" cx="663.81" cy="330.09" rx="10.2" ry="14.53"/><path class="st3" d="M765.19 685.84c22.88 1.28 41.93-15.39 45.96-37.94 8.31-46.44 14.7-78.08 22.93-110.56 10-39.47 65.75-95.92 65.75-95.92s19.26-17.44 27.52 14.21c8.25 31.64 5.5 123.82-33.02 196.74-33.33 63.08-88.05 86.68-118.32 94.93-30.27 8.25-121.27 0-121.27 0s-20.8-17.89-9.61-31.64c11.19-13.76 5.5-36.2 37.87-34.39l82.19 4.57z"/><g class="st25"><path class="st26" d="M894.25 458.28c-2.77 5.14-5.64 10.2-8.63 15.2-2.96 5.01-6.02 9.97-9.1 14.91-3.11 4.92-6.24 9.83-9.47 14.67-3.21 4.86-6.52 9.65-9.95 14.37 2.77-5.14 5.64-10.21 8.63-15.2 2.96-5.01 6.02-9.97 9.1-14.91 3.11-4.92 6.24-9.83 9.47-14.67 3.22-4.86 6.53-9.65 9.95-14.37zM836.47 527.43c3.36.87 6.29 2.98 8.75 5.42 2.45 2.48 4.46 5.37 6.09 8.45 3.2 6.22 4.89 13.08 5.95 19.94l.63 5.18c.18 1.72.28 3.44.43 5.16l.77 10.33 1.42 20.65c.77 13.78 1.59 27.56 2.21 41.34l.88 20.68c.21 6.9.49 13.79.63 20.69-.59-6.88-1.06-13.76-1.61-20.64l-1.43-20.65-2.67-41.31-1.24-20.66-.68-10.32-.37-5.15-.48-5.11c-.86-6.77-2.36-13.54-5.3-19.7-1.46-3.08-3.31-5.99-5.6-8.52l-.88-.94c-.29-.31-.63-.58-.94-.87-.32-.28-.63-.58-.97-.84l-1.03-.77c-1.4-.98-2.91-1.86-4.56-2.36zM655.28 723.31c-.94-3.04-.67-6.41.5-9.39.58-1.5 1.37-2.92 2.36-4.2.45-.67 1.03-1.24 1.55-1.86.57-.56 1.14-1.15 1.75-1.67 4.92-4.22 11.04-6.62 17.14-8.43 6.16-1.74 12.48-2.78 18.81-3.4 6.34-.61 12.71-.95 19.06-.93l4.76-.05 2.38-.02 2.38.06c3.18.12 6.35.16 9.53.35 3.17.24 6.35.38 9.51.7l4.75.51 2.37.26 2.36.35 4.72.71c1.57.3 3.13.61 4.69.94 1.57.29 3.11.71 4.65 1.11l2.32.6c.77.21 1.52.48 2.29.71l2.28.73c.76.25 1.5.56 2.25.84.74.3 1.5.56 2.23.88l2.18 1.01c.74.31 1.43.74 2.13 1.11l1.05.58 1.02.66c.69.41 1.33.92 1.97 1.42.63.52 1.22 1.04 1.79 1.73l.05.06.01.06c.19.86.15 1.62.03 2.39s-.33 1.51-.62 2.22c-.57 1.42-1.35 2.73-2.29 3.91-.43.62-.98 1.14-1.46 1.71-.53.53-1.06 1.06-1.61 1.56-.57.48-1.13.98-1.71 1.44l-1.79 1.34 1.71-1.44c.56-.49 1.08-1.02 1.62-1.52.52-.53 1.01-1.08 1.51-1.62.45-.59.96-1.12 1.36-1.74.87-1.19 1.57-2.49 2.05-3.86.24-.68.41-1.39.49-2.09.09-.69.07-1.45-.09-2.04l.06.12c-.99-1.06-2.31-1.99-3.63-2.78l-1-.61-1.04-.54c-.7-.35-1.37-.74-2.11-1.03l-2.16-.93c-.72-.3-1.47-.54-2.21-.81-.74-.25-1.47-.55-2.22-.77l-2.26-.66c-.76-.21-1.5-.45-2.27-.64l-2.3-.53c-1.53-.36-3.06-.73-4.62-.98l-4.64-.86-4.68-.66-2.34-.33-2.35-.24-4.71-.46c-3.14-.29-6.3-.4-9.45-.61-6.31-.22-12.62-.38-18.95-.33-12.62-.04-25.3.8-37.52 3.78-3.02.83-6.04 1.74-8.9 3-2.86 1.26-5.6 2.8-8.05 4.73-.61.48-1.18 1.02-1.75 1.54-.52.57-1.1 1.1-1.57 1.73-1 1.19-1.82 2.54-2.45 3.96-1.22 2.85-1.68 6.13-.92 9.22z"/></g><path class="st3" d="m186.55 688.13 387.68 62.12v-12.59l-387.68-63.29z"/><path class="st4" d="m437.33 389.68-9.4 24.67s6.5 11.92 12.99 0c6.5-11.92-7.58 22.01 0 26.6s22.74-1.83 28.15-15.59 0-32.79 0-32.79-23.89-11.78-31.74-2.89z"/><g class="st25"><path class="st16" d="M337.7 521.02c-.45 0-.91-.15-1.28-.47l-55.94-46.89a2 2 0 0 1-.25-2.82 2 2 0 0 1 2.82-.25l55.94 46.89a2 2 0 0 1 .25 2.82c-.41.48-.97.72-1.54.72z"/></g><g class="st25"><path class="st27" d="M601.47 522.66c-.12-.44-.1-.92.1-1.36l29.94-66.57a1.995 1.995 0 0 1 2.65-1c1.01.45 1.46 1.64 1 2.64l-29.94 66.57a1.995 1.995 0 0 1-2.65 1c-.55-.25-.94-.73-1.1-1.28z"/></g><g class="st25"><path class="st27" d="M618.25 405.26c-.41-.2-.75-.53-.96-.98l-30.2-66.46c-.46-1.01-.01-2.19.99-2.65 1.01-.46 2.19-.01 2.65.99l30.2 66.46a2.002 2.002 0 0 1-2.68 2.64z"/></g><path class="st11" d="M260.92 521.93c2.75-1.83 13.44-32.31 33.02-33.02 11.18-.41 20.81.91 27.01 2.11 6.44 1.25 10.15 8.17 7.47 14.16l-.09.21c-3.21 6.92 2.39 9.21 1.43 16.55-.97 7.34-9.68 7.8-9.68 7.8H307.7l-22.47 22.01-24.31-29.82z"/><path d="M86.27 471.22s-7.8-57.33 21.1-44.03c28.89 13.3 71.08 97.22 71.08 97.22s2.75 11.92 11.46 17.89c0 0 5.85 3.21 14.16-7.34l55.55-35.31 35.77 50.9-59.16 61.65s-65.58 43.83-87.59 9.9c-22.01-33.94-62.37-150.88-62.37-150.88z" style="clip-path:url(#SVGID_2_);fill:#3c6799"/><path class="st7" d="M628.24 485.15s-37.45 21.27-26.85 21.99c10.61.72 21.61 2.95 26.85-4.06 5.24-7.01 13.57-17.93 13.57-17.93h-13.57z"/><path class="st8" d="M565.64 360.54s44.03-1.83 52.28 20.18c8.25 22.01 0 22.01 0 22.01s-1.83 12.78-12.84 8.68-31.96-26.21-46.78-25.05l7.34-25.82z"/><g style="opacity:.25"><path class="st16" d="M791.24 373.17c-5.26 5.1-10.71 9.98-16.23 14.77-2.74 2.42-5.55 4.75-8.33 7.13l-8.43 7-8.53 6.87c-2.88 2.25-5.73 4.54-8.64 6.74-5.8 4.45-11.66 8.82-17.71 12.96 5.26-5.11 10.71-9.98 16.23-14.77 2.74-2.42 5.55-4.75 8.33-7.13l8.43-6.99 8.54-6.87c2.88-2.25 5.73-4.53 8.64-6.74 5.79-4.46 11.65-8.83 17.7-12.97z"/></g><g style="opacity:.21"><path class="st16" d="M583.04 270.45c-.99 4.77-2.16 9.49-3.41 14.18-1.23 4.7-2.57 9.37-3.94 14.03-1.4 4.65-2.83 9.29-4.36 13.9-1.52 4.61-3.12 9.2-4.9 13.74.99-4.77 2.16-9.49 3.4-14.19 1.23-4.7 2.58-9.37 3.94-14.03 1.4-4.65 2.83-9.29 4.37-13.9 1.53-4.61 3.12-9.2 4.9-13.73z"/></g></svg>