<svg version="1.1" id="Layer_1" xmlns="http://www.w3.org/2000/svg" x="0" y="0" viewBox="0 0 1000 646" style="enable-background:new 0 0 1000 646" xml:space="preserve"><style>.st2{fill:#8da873}.st3{fill:#a6c48c}.st4{fill:#fff}.st5{fill:#3466ad}.st6{fill:#feb5a9}.st7{fill:#161516}.st8{fill:#feac02}.st9{fill:#fc806f}.st10{fill:#f9b7b6}.st13{fill:#231f20}.st14{fill:#1f1f23}.st15{fill:#ff4d53}.st17{fill:#f1f2f2}.st19{fill:#f7b3aa}</style><path d="M180.2 537.5S2.4 540.3 7.5 411.4c.3-6.9 4.3-13.1 6.1-19.8 4.5-16.8 20.2-51.9 74.6-63.5 72.5-15.5 18.4-51.2 0-77.1S30.9 104.3 156 101s169.7 67.7 255.7 17.4C492.5 71.2 547.8 61.9 648.6 94c13 4.1 26.9 4.4 40 .5C752.4 75.6 951 33.7 942.8 245.9c-.2 4.5-1 8.9-2.5 13.2-6.2 17.7-24.4 74.2-37.5 159.8-16.1 104.6 60.7 113.6 6.5 140.2s-729.1-21.6-729.1-21.6z" style="fill:#c8a2f4"/><path d="M211.2 518.8S22.9 508.3 58.6 408.5c2-5.7 3.8-11.5 5.4-17.4 4-14.7 17.9-45.4 65.9-55.5 64-13.5 16.3-44.8 0-67.5S79.2 139.9 189.8 137s149.9 59.2 226 15.2c71.4-41.3 120.3-49.4 209.3-21.3 11.5 3.6 23.8 3.8 35.3.4 57.1-16.7 235.9-53.9 224.3 138.8 0 0-20.9 53.5-35 145-14.2 91.5 53.6 99.4 5.7 122.6-47.9 23.2-644.2-18.9-644.2-18.9z" style="opacity:.17;fill:#fff"/><path class="st2" d="M160.9 480.2s28.5-110.7 104.1-65.6l38.8 27.4s72.4 38 145.4 18.6 54.4-46.6 140.6-36.7c0 0 66.4 16.1 110.5-32.1s70.9 34.6 70.9 34.6 2 23.5 42.7 11.1 64.5 42.7 64.5 42.7H160.9z"/><path class="st2" d="M808.2 448.6s-33-37-18.1-29c14.8 8 18.1 29 18.1 29zM840.7 448.6s4-36.3 14.9-39.8 12.4 3.9 4 19.9-18.9 19.9-18.9 19.9zM831.7 442.5s-8.9-28.2 0-38.8c9-10.7 7 19 0 38.8zM815.9 448.6l-17.6-30.2s2.3-21.5 9.9-8 7.7 38.2 7.7 38.2zM201.5 442.5l-32.8-48.2s-4-24.7 11.9-12.4c16 12.4 20.9 60.6 20.9 60.6zM185 442.5s-10.1-15.6-16.6-14c0 0 8.9-8.7 16.6 5.1 7.6 13.8 0 8.9 0 8.9zM433 467.2l-25.7-37.8s-3.1-19.4 9.3-9.7c12.5 9.7 16.4 47.5 16.4 47.5zM420 467.8s-10.1-15.6-16.6-14c0 0 8.9-8.7 16.6 5.1 7.7 13.8 0 8.9 0 8.9zM620.6 426l25.7-37.8s3.1-19.4-9.3-9.7c-12.5 9.8-16.4 47.5-16.4 47.5zM633.6 426.7s10.1-15.6 16.6-14c0 0-8.9-8.7-16.6 5.1-7.7 13.8 0 8.9 0 8.9z"/><path class="st3" d="M172.5 480.5s28.5-88.9 104.1-52.7l38.8 22s72.4 30.5 145.4 14.9 54.4-37.4 140.6-29.5c0 0 66.4 12.9 110.5-25.8 44.2-38.7 70.9 27.8 70.9 27.8s2 18.9 42.7 8.9 64.5 34.3 64.5 34.3H172.5z"/><path class="st3" d="M819.8 455.1s-33-29.7-18.1-23.3c14.8 6.4 18.1 23.3 18.1 23.3zM852.3 455.1s4-29.1 14.9-31.9c10.9-2.8 12.4 3.1 4 16-8.5 12.8-18.9 15.9-18.9 15.9zM843.3 450.1s-8.9-22.7 0-31.2c9-8.5 7 15.4 0 31.2zM827.5 455.1l-17.6-24.2s2.3-17.3 9.9-6.5c7.7 10.9 7.7 30.7 7.7 30.7zM213.1 450.1l-32.8-38.7s-4-19.8 11.9-9.9c16 9.9 20.9 48.6 20.9 48.6zM196.5 450.1s-10.1-12.5-16.6-11.2c0 0 8.9-7 16.6 4.1 7.7 11.1 0 7.1 0 7.1z"/><g><path class="st2" d="M892.3 505.3s-19.7-39 14.3-74.9c0 0 20.9-57.5 42-37.6s1.4 31.8 0 41.8c-1.4 10 10.3 54.2-11.5 66.5-21.8 12.2-44.8 4.2-44.8 4.2z"/><path class="st4" d="m898.9 501.4-1.1-1c3.2-3.7 47.9-83.3 46.5-97l1.4-.1c1.5 14.8-43.8 94.7-46.8 98.1z"/><g><path class="st3" d="M907.5 510.9s-4.8-32 27.5-49.3c0 0 28.1-35.5 38.2-16.6 10.2 18.8-6.4 22.7-9.7 29.3-3.3 6.7-5.4 40.4-23.6 44s-32.4-7.4-32.4-7.4z"/><path class="st4" d="m913 509.8-.5-.9c3.1-1.8 53-47.3 55.2-57.2l1 .2c-2.3 10.6-52.8 56.2-55.7 57.9z"/></g></g><g><path class="st2" d="M181.3 494.7s19.7-39-14.3-74.9c0 0-20.9-57.5-42-37.6s-1.4 31.8 0 41.8c1.4 10-10.3 54.2 11.5 66.5 21.8 12.2 44.8 4.2 44.8 4.2z"/><path class="st4" d="m174.7 490.9 1.1-1c-3.2-3.7-47.9-83.3-46.5-97l-1.4-.1c-1.6 14.7 43.8 94.7 46.8 98.1z"/><g><path class="st3" d="M166 500.4s4.8-32-27.5-49.3c0 0-28.1-35.5-38.2-16.6s6.4 22.7 9.7 29.3c3.3 6.7 5.4 40.4 23.6 44s32.4-7.4 32.4-7.4z"/><path class="st4" d="m160.5 499.2.5-.9c-3.1-1.8-53-47.3-55.2-57.2l-1 .2c2.3 10.7 52.8 56.3 55.7 57.9z"/></g></g><g><path class="st5" d="M186.9 482.3 47.7 566.7h946.5l-141.1-92.8z"/><path class="st4" d="M523.7 522.4c-23.8 0-49-2.6-49-7.4 0-4.8 25.3-7.4 49-7.4 23.8 0 49 2.6 49 7.4 0 4.8-25.3 7.4-49 7.4zm0-13.7c-30.9 0-48 3.7-48 6.3 0 2.6 17.1 6.3 48 6.3s48-3.7 48-6.3c-.1-2.6-17.1-6.3-48-6.3zM938.4 557.2c-20.9 0-65.9-.4-112-3.4-84.5-5.5-132.3-16.7-142.1-33.3-2.6-4.3-2.8-8.4-.6-12 15.9-26.9 157.6-23.2 163.6-23h.2l.1.1 104.7 71.6H938.4zm-111.3-70.9c-40.9 0-130.5 2.4-142.5 22.7-2 3.3-1.7 6.9.6 10.9 21.9 37.1 242.1 36.3 263.7 36.1l-101.8-69.6c-1.2.1-8.7-.1-20-.1z"/><path class="st4" d="M925.5 549.8c-31.4 0-223.4-1.2-233.5-29.3-1-2.7-.6-5.3 1.1-7.6 16-22.2 148.6-19 154.2-18.9v1.1c-1.4 0-137.6-3.2-153.3 18.5-1.5 2.1-1.8 4.3-1 6.7 10.5 29.4 234.2 28.7 236.5 28.6v1.1c-.6-.2-1.9-.2-4-.2z"/><path transform="matrix(.01136 -.9999 .9999 .01136 261.31 1324.81)" class="st4" d="M800.1 433h1.1v194.5h-1.1z"/><path class="st4" d="M703.4 507.6h149.2v1.1H703.4zM740.8 525.6c-23.8 0-49-2.6-49-7.4s25.3-7.4 49-7.4 49 2.6 49 7.4-25.2 7.4-49 7.4zm0-13.7c-30.9 0-48 3.7-48 6.3 0 2.6 17.1 6.3 48 6.3s48-3.7 48-6.3c0-2.6-17.1-6.3-48-6.3z"/><path transform="rotate(-37.552 736.908 519.994)" class="st4" d="M736.4 513.7h1.1v12.6h-1.1z"/><g><path class="st4" d="M93.6 556.1h-1.7l104.7-71.6.1-.1h.2c6-.2 147.8-3.9 163.6 23 2.1 3.6 1.9 7.7-.6 12-9.8 16.6-57.6 27.7-142.1 33.3-46.1 3-91 3.4-112 3.4-7.6.1-12.1 0-12.2 0zm103.5-70.6L95.3 555.1c21.6.2 241.8 1 263.7-36.1 2.4-4 2.6-7.6.6-10.9-12-20.4-101.6-22.7-142.5-22.7-11.3-.1-18.8.1-20 .1z"/><path class="st4" d="M118.7 548.8c31.4 0 223.4-1.2 233.5-29.3 1-2.7.6-5.3-1.1-7.6-16-22.2-148.6-19-154.2-18.9v1.1c1.4 0 137.6-3.2 153.3 18.5 1.5 2.1 1.8 4.3 1 6.7-10.5 29.4-234.2 28.7-236.5 28.6v1.1c.5-.2 1.9-.2 4-.2z"/><path transform="matrix(.9999 -.01136 .01136 .9999 -5.997 2.801)" class="st4" d="M146.3 528.7h194.5v1.1H146.3z"/><path class="st4" d="M191.6 506.6h149.2v1.1H191.6zM254.3 517.1c0-4.8 25.3-7.4 49-7.4 23.8 0 49 2.6 49 7.4s-25.3 7.4-49 7.4-49-2.6-49-7.4zm1.1 0c0 2.6 17.1 6.3 48 6.3s48-3.7 48-6.3c0-2.6-17.1-6.3-48-6.3s-48 3.7-48 6.3z"/><path transform="rotate(-52.447 307.247 518.99)" class="st4" d="M300.9 518.4h12.6v1.1h-12.6z"/></g><g><path class="st4" d="m76 558.2 115.5-72.7h.1l655.8-8.4.1.1 116.3 80-887.8 1zm115.8-71.6L79.6 557.2l880.9-1-113.4-78-655.3 8.4z"/></g><g><path class="st4" d="M523.1 481.8h1.1v74.4h-1.1z"/></g></g><g><path class="st6" d="M520.5 444.9 510 487.1l5.2 3.9 21.7-42.9z"/><path class="st6" d="M555.9 436.5s-.4 10.1-5.3 14.2-33.7 19-33.7 19l-3.2-7.4 23.2-13.7s-.5-9 .5-7.9c1 1.1 6.4-15.8 18.5-4.2z"/><path class="st7" d="M508 486.2s-7.5 3-2.2 8.2 16.9 12.9 16.9 12.9 5.3.8 3.2-4.5c-2.1-5.3-9.2-11.9-9.2-11.9l-8.7-4.7zM513.7 460.7s-9 1.8-6.3 7.3 11.1 20.2 11.1 20.2 5.8 2.5 5-1.9c-.8-4.4-5.6-18.3-5.6-18.3l-4.2-7.3zM502.6 386.9l5.4 61.2h28.9l3.6-11.6h26.4l-23.2-56.9z"/><ellipse transform="rotate(-9.495 535.719 296.69)" class="st6" cx="535.8" cy="296.8" rx="10" ry="15.3"/><path class="st7" d="M539.3 283.5s2.5-12-9.7-12.2-24.9 7.1-22.3 20.8c2.6 13.7 24.5 17.7 24.5 17.7l-8.8-14.9s8.1 2.5 8.1-4.4l8.2-7z"/><path class="st7" d="M513.7 280s-14.8-12.6-23.2 3.5c-10 19.2 10 45.9 0 53.1-10 7.2 10 9.2 16.9-10.2s4.2-34.8 4.2-34.8l2.1-11.6z"/><path class="st8" d="m508 327.9-8.6 61.1s18.2 6.3 33.9 0l12.5-7.4L543 316l-5.7-8-22.1 5.1c0 .1-6 8.5-7.2 14.8z"/><ellipse transform="rotate(-16.757 524.249 298.95)" class="st6" cx="524.2" cy="298.9" rx="2.8" ry="4.2"/><path class="st6" d="M535.5 306.7c-2.4 1.3-4.1 3.7-4.3 6.4-.2 2.5.9 5 5.7 4.9 9.7-.1 26.2-18.4 29-27 2.8-8.7 7.5-27.4 7.5-27.4s5.1-2.7 6-7.3c.9-4.7 6.8-10.4 6.8-10.4s1.2-6.5-7.1-3.3c0 0-8.2 2.4-10.3 13.6l-.5 6.4s-.6 10.4-11.1 25.1c-7.8 10.7-17.2 16.6-21.7 19z"/><path class="st6" d="M511.4 320.1c-2.4 1.9-3.8 4.8-3.4 7.8.3 2.8 1.9 5.3 7.2 4.2 10.5-2.1 24.8-25.3 26.1-35.3 1.3-10 2.6-31.4 2.6-31.4s5-3.9 5-9.2 5.3-12.6 5.3-12.6 0-7.4-8.4-2.1c0 0-8.4 4.2-8.4 16.9l.8 7.1s1.4 11.5-7 29.6c-6.3 13.1-15.3 21.4-19.8 25z"/></g><g><path class="st9" d="M795.4 110.7c0 11.7-4.6 22.4-12.1 30.3-1 1.1-2 2.1-3.2 3-5.1 4.4-11.1 7.6-17.8 9.3-1.3.3-2.7.6-4 .8-2.2.3-4.5.5-6.8.5-14.5 0-27.4-7-35.4-17.9-.8-1-1.5-2.1-2.2-3.2-4-6.6-6.4-14.5-6.4-22.8 0-2.8.3-5.6.8-8.3.3-1.5.7-3 1.1-4.4 2.9-9.5 8.8-17.6 16.8-23.2 1.1-.8 2.3-1.5 3.4-2.2 6.4-3.7 13.9-5.8 21.9-5.8 3.1 0 6.1.3 9 .9 1.5.3 2.9.7 4.3 1.1 5.7 1.8 10.8 4.7 15.2 8.4 1.1.9 2.2 1.9 3.1 3 3.4 3.5 6.2 7.5 8.2 12 .6 1.3 1.2 2.7 1.7 4.1 1.6 4.5 2.4 9.3 2.4 14.4z"/><path class="st7" d="M793 96.3c-.4.2-.9.2-1.4.1-3.2-1.1-6.5-2-9.7-2.8-.7-.2-1.5-.4-2.2-.5-.5-.1-1.1-.2-1.6-.3-2.5-.5-5-1-7.6-1.3l-2.4-.3c-.5-.1-1-.1-1.5-.2-7.4-.8-14.6-.7-21.6.1l-2.4.3c-.5.1-1 .1-1.5.2-10.9 1.7-21.4 5.3-31.2 10.7-.3.2-.6.2-.9.2-.2 0-.3 0-.5-.1.3-1.5.7-3 1.1-4.4 9.4-5 19.4-8.4 29.8-10.1.9-.2 1.8-.3 2.7-.4.5-.1.9-.1 1.4-.2 7.3-.9 14.9-1 22.6-.3.8.1 1.7.2 2.5.3.5.1 1 .1 1.5.2 2.8.3 5.6.8 8.3 1.4.7.1 1.5.3 2.2.5.5.1 1.1.2 1.6.4 3.1.7 6.1 1.6 9.2 2.6.6 1.1 1.2 2.4 1.6 3.9z"/><path class="st7" d="M716.3 136.5c-.1.1-.1.1-.2.1-.8-1-1.5-2.1-2.2-3.2 12.2-10.1 31.4-28.7 27-42-.1-.5-.3-.9-.5-1.3-.4-.8-.8-1.6-1.2-2.3-2.8-5-7-9.2-12.4-12.3-.3-.2-.5-.4-.7-.7 1.1-.8 2.3-1.5 3.4-2.2 6.1 3.7 10.7 8.6 13.7 14.6.2.4.4.9.6 1.3.4.8.7 1.6.9 2.4 4.3 14.6-12.8 32.7-28.4 45.6zM762.4 153.2c-1.3.3-2.7.6-4 .8-.1-.3-.1-.7 0-1 7.3-24.1 10.1-45 8.1-62.2-.1-.5-.1-1-.2-1.5-.1-.8-.2-1.7-.4-2.5-1-6.6-2.8-12.6-5.4-17.8-.2-.5-.2-.9-.1-1.4 1.5.3 2.9.7 4.3 1.1 2.5 5.5 4.2 11.7 5.2 18.6.1.5.1 1 .2 1.5.1.8.2 1.7.3 2.5 1.9 17.4-.9 38.2-8 61.9zM783.4 140.9c-1 1.1-2 2.1-3.2 3-.3-.3-.5-.7-.6-1.1-2.1-17.1-2.7-34-1.6-50.1 0-.6.1-1.1.1-1.7.1-.7.1-1.5.2-2.2.3-3.4.6-6.9 1.1-10.4.1-.4.3-.8.6-1.1l3.1 3c-.4 3.2-.7 6.3-1 9.4 0 .5-.1 1.1-.1 1.7-.1.8-.1 1.5-.1 2.3-1 15.1-.5 31 1.5 47.2z"/></g><g><path class="st10" d="M306.1 496.8s4.6 14.9-1.7 25.8-6.3 16.4-6.3 16.4l6.3 3.5s4.9-5.8 10.4-14.8 9.3-26.5 4.7-30.9h-13.4z"/><path class="st10" d="M323.4 495.5s3.6 17.8-1.9 25.8-6.8 11-6.8 11l6.5 4.4s8.6-12.8 12.2-16.9c3.6-4.1 5.9-9.1 5.8-14.5-.1-5.4 0-16.3 0-16.3s-13.7-1.9-15.8 6.5z"/><path class="st7" d="M298.1 539s-5.3 6-2.1 10.3c3.2 4.2 16.8 6.2 16.8 6.2s4.1-3.6 0-6.4-8.3-6.4-8.3-6.4l-6.4-3.7zM313.9 532.7s-5.3 6-2.1 10.3c3.2 4.2 16.8 6.2 16.8 6.2s4.1-3.6 0-6.4c-4.1-2.9-8.3-6.4-8.3-6.4l-6.4-3.7z"/><ellipse class="st10" cx="317.9" cy="374.3" rx="13.4" ry="17.4"/><path class="st7" d="M304.4 370.1s1.1-7.4 6.3-6.3 12.3 3 17.7-.1c5.4-3.1 2.8-6.7 2.8-6.7s14.2-4.7 4.7-10-21.1-5.3-31.6 0-13.7 11.6-12.6 20c1.1 8.4 7.4 15.6 12.6 18.9l3.9.7-3.8-16.5z"/><path class="st10" d="M321.3 386.5v16.7s-8.1 1.5-13 0v-21.5l13 4.8z"/><path d="M306.5 396.4s-12.6 0-13.7 11.6l-1.1 11.6h7.4l-4.2 33.7h44.4l-4.3-37.9s1.1-6.7-3.7-13.4-10-5.6-10-5.6-5.3 12.7-14.8 0z" style="fill:#ffad00"/><path style="fill:#4570ad" d="m298.4 451-.3 47.7h25.1l8.1-7.7h9.6l-1.9-40z"/><path class="st9" d="M367.4 433.2c0 6.4-2.5 12.1-6.6 16.4-.5.6-1.1 1.1-1.7 1.6-2.7 2.4-6 4.1-9.7 5.1-.7.2-1.5.3-2.2.5-1.2.2-2.4.3-3.7.3-7.9 0-14.9-3.8-19.2-9.7-.4-.6-.8-1.1-1.2-1.8-2.2-3.6-3.5-7.8-3.5-12.4 0-1.5.1-3.1.4-4.5l.6-2.4c1.6-5.1 4.8-9.5 9.1-12.6.6-.4 1.2-.8 1.9-1.2 3.5-2 7.5-3.2 11.9-3.2 1.7 0 3.3.2 4.9.5.8.2 1.6.4 2.3.6 3.1 1 5.9 2.5 8.3 4.6.6.5 1.2 1 1.7 1.6 1.8 1.9 3.3 4.1 4.5 6.5.3.7.6 1.5.9 2.2.8 2.6 1.3 5.2 1.3 7.9z"/><path class="st7" d="M366.1 425.4c-.2.1-.5.1-.8 0-1.7-.6-3.5-1.1-5.3-1.5l-1.2-.3c-.3-.1-.6-.1-.9-.2-1.4-.3-2.7-.5-4.1-.7-.4-.1-.9-.1-1.3-.2-.3 0-.6-.1-.8-.1-4-.4-7.9-.4-11.7 0-.4 0-.9.1-1.3.2-.3 0-.5.1-.8.1-5.9.9-11.6 2.9-16.9 5.8-.2.1-.3.1-.5.1h-.3l.6-2.4c5.1-2.7 10.5-4.6 16.2-5.5.5-.1 1-.2 1.5-.2.3 0 .5-.1.8-.1 4-.5 8.1-.6 12.3-.2.5 0 .9.1 1.4.1.3 0 .5.1.8.1 1.5.2 3 .4 4.5.8l1.2.3c.3.1.6.1.9.2 1.7.4 3.3.9 5 1.4.1.8.4 1.5.7 2.3z"/><path class="st7" d="m324.5 447.3-.1.1c-.4-.6-.8-1.1-1.2-1.8 6.6-5.5 17-15.6 14.7-22.8-.1-.2-.2-.5-.3-.7-.2-.4-.4-.9-.6-1.3-1.5-2.7-3.8-5-6.7-6.7-.2-.1-.3-.2-.4-.4.6-.4 1.2-.8 1.9-1.2 3.3 2 5.8 4.7 7.4 7.9.1.2.2.5.3.7.2.4.4.9.5 1.3 2.2 8-7.1 17.9-15.5 24.9zM349.5 456.3c-.7.2-1.5.3-2.2.5v-.5c4-13.1 5.5-24.4 4.4-33.7 0-.3-.1-.5-.1-.8-.1-.5-.1-.9-.2-1.3-.6-3.6-1.5-6.8-2.9-9.7-.1-.2-.1-.5-.1-.8.8.2 1.6.4 2.3.6 1.3 3 2.3 6.4 2.8 10.1 0 .3.1.5.1.8.1.4.1.9.2 1.4 1 9.2-.5 20.5-4.3 33.4zM360.8 449.6c-.5.6-1.1 1.1-1.7 1.6-.2-.2-.3-.4-.3-.6-1.2-9.3-1.5-18.4-.9-27.2 0-.3 0-.6.1-.9 0-.4.1-.8.1-1.2.2-1.9.3-3.7.6-5.6 0-.2.1-.5.3-.6l1.7 1.6c-.2 1.7-.4 3.4-.5 5.1 0 .3 0 .6-.1.9 0 .4-.1.8-.1 1.2-.5 8.3-.2 17 .8 25.7z"/><ellipse class="st10" cx="304.4" cy="375.9" rx="3.9" ry="5.8"/><path class="st10" d="m295 419.6 3.1 19s4.5 6.3 11.7 6.3 25.2-2.1 25.2-2.1 14-4 11.7-10.4c-2.2-6.5-8.3-10.6-10.5-6.4-2.3 4.2-5.2 9.9-5.8 10.2-.7.3-20.6-1.3-20.6-1.3v-15.3H295z"/></g><g><path class="st10" d="M142.1 519.8v76.3s3.2 7 8.4 4.9c5.3-2.1 5.3-5.3 5.3-5.3l7.6-75.9h-21.3zM182.7 519.8l18.4 77s10.2 5.3 12.5 0l-6.1-77h-24.8z"/><path class="st13" d="M140 596.7s-13.7 16.9-7.4 20c6.3 3.2 25.3 3.2 26.4-1.1s-1.4-19-1.4-19H140zM199.8 596.7V617h34.9c2.4 0 3.9-2.4 3-4.6-1.1-2.4-2.9-5.2-6-7.3-6.3-4.2-18.1-10.4-18.1-10.4l-13.8 2z"/><ellipse transform="rotate(-15.956 173.185 250.442)" class="st10" cx="173.2" cy="250.4" rx="13.7" ry="21.1"/><path class="st10" d="m157.9 260.5-2.1 31.6h22l.1-27.4-19.7-14.3z"/><path class="st14" d="M157.9 260.5s-11.6-7.4-9.5-17.9 18-21.2 31.7-13.8c0 0 5.4 3.2 4.8 13.8 0 0-9-12.6-15.4-9.5 0 0-5 10.9-7.3 16l-4.3 11.4z"/><path class="st10" d="M103.1 319.5s-17.9 14.8-17.9 37.9c0 0-3.2 33.7 29.5 55.9 0 0 2.1 16.9 14.8 15.8 0 0 11.6-7.4 4.2-20 0 0-7.4-6.3-15.8-3.2 0 0-11-17.9-10.3-31.6.8-13.7 6-28.5 13.4-34.8l-17.9-20zM230 292.1s22.8-7.9 33.8-20.8 16.3-32.9 16.3-32.9 3.2-15.8 15.8-22.1c12.6-6.3 15.8-7.4 15.8-7.4s3.2 0-2.1 4.2c-5.3 4.2-8.4 6.3-8.4 6.3s8.9 17.9-10.3 23.2c0 0 2.9 27.4-8.7 43.2 0 0-14.8 28.5-49.5 32.7l-2.7-26.4z"/><path class="st7" d="m140 449.1-3.9 73.4h35.3V479s5.5-2.9 5.5 6.8v36.7H211l-1.5-84-69.5 10.6z"/><path class="st15" d="m148.4 242.5 32.1-6.9 23.7-4.7s2.1-7.4-8.4-7.4h-14.3s-9.9-16.9-27.9-3.2c.1.1-8.4 5.4-5.2 22.2z"/><ellipse transform="rotate(-15.956 159.48 252.55)" class="st10" cx="159.5" cy="252.5" rx="4" ry="6.2"/><path class="st15" d="M153.7 283.6s13.6 8.4 24.2 0l56.4 3.7 1.7 32.1-22.1 6.3-1.1 114.9s-57 27.3-73.8 10.5c-2.1-2.1-7.4-113.8-7.4-113.8l-10.1 5.8-23.6-25.8 21.4-25.3s.8-4.2 11.3-6.3 23.1-2.1 23.1-2.1z"/><path class="st4" d="m166.7 336.1-.3-.1c-24.2-10-19.6-50.6-19.3-52.3l2.1.3c0 .4-4.6 40.5 17.8 50l10.3-1.2c1.7-3 11-21.6 6.6-48.9l2.1-.3c4.9 30.6-6.6 50-7.1 50.8l-.3.4-11.9 1.3z"/><path class="st14" d="m167.6 330.9.4 5.8h6.6v5.4h9.1v-7.7l-4.7-.7v-2.8z"/></g><g><path class="st5" d="M882.1 161.9h15.8v360.5h-15.8z"/><path class="st5" d="m803 52.2 157.6-31.6s14.8 1 14.2 15.8 0 134 0 134 .5 14.7-16.3 13.6c-16.9-1.1-162.3-22.1-162.3-22.1L803 52.2z"/><path class="st4" d="m819 61.9 127.1-25.5s11.9.8 11.5 12.7 0 108.1 0 108.1.4 11.8-13.2 11c-13.6-.9-130.9-17.9-130.9-17.9l5.5-88.4z"/></g><g><path d="M880.5 219.5V216c0-4.9.4-9.8 1-14.7.1-.6.1-1.1.2-1.7.3-2.6.8-5.1 1.2-7.7.6-3.1 1.2-6.2 1.9-9.1l.5-2.2c1.1-4.3 2.2-8.4 3.4-12.2.2-.7.4-1.4.7-2.1 4.1-13.1 8.1-22.1 8.1-22.1l-127.8 13.5c1.8 2.2 3.6 4.3 5.2 6.5 2.4 3.2 4.5 6.3 6.5 9.5 1.6 2.6 3 5.2 4.4 7.7l1.5 3c2.5 5.1 4.4 10.1 6 14.9.4 1.3.8 2.6 1.2 3.8l.3.9v.1l1.3 5.4c1.2 5.5 1.9 10.7 2.3 15.5.1 1 .1 2 .2 2.9.1 1.5.1 3.1.2 4.5.1 4.3-.1 8.2-.4 11.6-.9 10-2.8 16.2-2.8 16.2 3.4 1 6.7 1.8 10 2.5.7.1 1.4.3 2.1.4 1.5.3 3 .5 4.4.7.9.1 1.7.2 2.5.3 1 .1 2 .3 3 .4.7.1 1.4.1 2.1.2 2.6.2 5.1.3 7.5.4h5.4c.7 0 1.4 0 2.1-.1 2.4-.1 4.8-.2 7.1-.4.8-.1 1.5-.1 2.3-.2.7-.1 1.4-.1 2.1-.2l2.1-.3c2.6-.3 5.1-.7 7.5-1.2l2-.4c.9-.2 1.7-.3 2.6-.5.7-.2 1.5-.3 2.2-.5 1.6-.4 3.1-.7 4.5-1.1l2.1-.6c1.7-.5 3.3-.9 4.8-1.4l2.1-.7c1.8-.6 3.4-1.2 4.9-1.7.7-.3 1.4-.5 2-.8 4.1-1.6 6.4-2.8 6.4-2.8-2.3-3.5-4.1-7.3-5.5-11.3-.4-1.1-.7-2.2-1-3.3-1.4-5.1-2.2-10.5-2.4-16v-2.1z" style="fill:#f7d69c"/><path class="st17" d="M787.9 167.6v15.9c0 .4-.2.8-.6.9l-1.5-3V167.1c.7.2 1.4.3 2.1.5zM796.9 208.6c0 .5-.3.9-.8 1l-1.3-5.4V200l-.1-10.6v-3.3l-.1-9.7v-7.8l2.1.3.1 6.7v3.3l.1 9.7v3.3l.1 10.8v3.5l-.1 2.4zM821.2 170.1v.2l-.4 2.6-2.1 12.2-.5 2.6-1.8 11-.5 2.7-1.5 8.7-.5 2.7-1.7 10.2-.5 2.8-2.2 13.1-.5 2.8-2 11.5-.5 3-1.1 6.6c.7.1 1.4.3 2.1.4l.8-4.5.5-3 2-11.8.5-2.8 2.2-13.1.5-2.8 1.7-10.3.5-2.7 1.5-8.8.5-2.7 1.9-11.1.4-2.6 2.1-12.2.4-2.6.3-2v-.2l-2.1.1zM833.7 169.3l-2.1 12.3-.5 2.6-2 12.2-.5 2.6-2 11.6-.5 2.7-1.5 9.1-.5 2.7-1.9 11-.5 2.8-2.2 13.1-.5 2.8-1.6 9.7v.1c.7.1 1.4.1 2.1.2l1.3-7.7.5-2.8 2.2-13.1.5-2.8 1.9-11.2.5-2.7 1.5-9.1.5-2.7 2-11.7.4-2.6 2-12.1.5-2.6 2.4-14.5-2 .1zM847.5 167.7l-1.6 10.6-.4 2.8-2.1 13.5-.4 2.7-1.9 12.3-.4 2.7-1.9 12.4-.4 2.7-1.5 9.7-.4 2.8-1.9 12.3-.4 2.9-1.6 10.2v.2c.7 0 1.4 0 2.1-.1l1.2-8 .4-2.9 1.9-12.4.4-2.8 1.5-9.7.4-2.8 1.9-12.5.4-2.7 1.9-12.3.4-2.7 2-13.3.4-2.8 2-13v-.1l-2 .3zM862.4 164.9l-1.6 11-.4 2.8-2 14.5-.4 2.8-1.8 12.6-.4 2.7-1.7 12.3-.4 2.7-1.9 13.3-.4 2.8-1.4 10.3-.4 2.8-1.2 8.7-2.1.3v-.3l1.5-10.9.4-2.8 1.4-10.2.4-2.8 1.9-13.2.4-2.7 1.7-12.3.4-2.7 1.8-12.8.4-2.8 2-14.4.4-2.8 1.2-8.5c.7-.1 1.4-.3 2.2-.4zM873.9 161.6l-.9 7.1-.3 2.6-2.1 15.6-.4 2.8-2 15.1-.4 2.8-1.6 11.9-.4 2.7-1.7 12.4-.4 2.7-1.9 14-.4 2.8-1.1 8.1c.7-.2 1.5-.3 2.2-.5l.7-5.5.4-2.8 1.9-14.1.4-2.7 1.7-12.3.4-2.7 1.6-11.7.4-2.8 2-15.2.4-2.8 2.1-15.9.3-2.6 1.2-9.1v-.5l-2.1.6zM886.6 157.1l-.6 6-.3 2.6-1.4 13.8-.3 2.7-1 9.8-.9 8.5v.2l-1.6 15.4v.1l-.3 3.1-.3 2.8-1.2 11.3-.3 2.8-1.3 12.6-.3 2.8-.7 6.4-2.1.7c0-.1-.1-.3 0-.4l.9-8.7.3-2.8 1.3-12.7.3-2.8L878 220l.3-2.9L880 201l.3-2.9 1.8-17.6.3-2.7 1.4-13.7.3-2.6.4-3.8c.7-.3 1.4-.7 2.1-1-.1 0 0 .2 0 .4z"/><path class="st17" d="M879.3 159.7c.1.1.1.3.3.4l4.2 3.8 1.9 1.8 2.7 2.5c.1.1.2.2.4.2.2-.7.4-1.4.7-2.1l-3.5-3.2-1.9-1.7-2.7-2.4-2.1.7zM867.5 163.5l5.4 5.2 1.9 1.8 7.5 7.1 1.9 1.8 1.2 1.1-.5 2.2c-.2 0-.3-.1-.5-.3l-.4-.4-1.9-1.8-7.5-7.2-1.9-1.8-7-6.7c-.1-.1-.2-.3-.3-.5l2.1-.5zM882.1 200.4v.2l-.3.6c-.2.2-.5.3-.7.3-.3 0-.6-.1-.8-.4l-.3-.3-7.9-9-1.8-2.1-9.7-11-1.8-2.1-7.8-8.8c-.1-.1-.2-.3-.2-.5.8-.1 1.5-.3 2.3-.4l6.2 7 1.8 2.1 9.7 11 1.8 2.1 7.9 8.9 1.6 1.8c-.1.1 0 .4 0 .6zM880.5 219.5l-.3-.4-1.9-2.2-8.3-9.9-1.8-2.2-9.7-11.6-1.8-2.2-8.8-10.5-1.8-2.2-7.6-9c-.4-.5-1-.5-1.5-.1-.4.4-.5 1-.1 1.5l8.7 10.4 1.8 2.2 8.9 10.6 1.8 2.2 9.7 11.6 1.8 2.2 8.4 10 1.5 1.8c.1.1.2.2.4.3.1.1.3.1.4.1h.3l-.1-2.6zM818.6 170.1c0 .2.1.5.3.7l1.9 2.1 1.8 2 8.6 9.4 1.8 2 10 11 1.8 2 9.1 10 1.8 2 9.9 10.9 1.9 2 8.9 9.7 1.9 2.1 4.5 4.9c.2.2.5.3.8.3.1 0 .2 0 .3-.1-.4-1.1-.7-2.2-1-3.3l-4.3-4.7-1.9-2.1-8.8-9.6-1.9-2-9.9-10.9-1.8-2-9.1-10-1.8-2-10-11-1.8-2-8.6-9.4-1.8-2-.1-.2-2.5.2zM802.4 169.6c-.1.3-.1.8.2 1.1l3.9 4.3 1.9 2 9.8 10.7 1.8 2 8.6 9.4 1.8 2 10.2 11.2 1.8 2 9.3 10.1 1.8 2 10 10.9 1.9 2 9.3 10.1 1.9 2.1 4.2 4.6c.7-.3 1.4-.5 2-.8 0-.1-.1-.2-.2-.3l-5.8-6.3-1.9-2.1-9.2-10-1.9-2-10-10.9-1.8-2-9.3-10.1-1.8-2-10.2-11.1-1.8-2-8.6-9.4-1.8-2-9.9-10.8-1.9-2-2.3-2.5-2-.2zM869.2 260c0-.1-.1-.3-.2-.4l-5.3-6.2-1.8-2.1-10-11.6-1.8-2.1-9.3-10.8-1.8-2.1-10.3-11.9-1.8-2.1-8.5-9.9-1.8-2.1-9.4-10.9-1.8-2.1-8.6-9.9-2.1-2.5-4.7-5.4c-.4-.4-1-.5-1.5-.1-.2.1-.3.3-.3.5v.5c0 .2.1.3.2.4l6.3 7.3 2.1 2.5 8.1 9.4 1.8 2.1 9.4 10.8 1.8 2.1 8.5 9.9 1.8 2.1 10.4 12 1.8 2.1 9.4 10.8 1.8 2.1 10 11.6 1.8 2.1 3.8 4.4 2-.5zM857.8 262.7l-2 .4-6.3-7.5-1.8-2.2-9.4-11.3-1.8-2.2-10.4-12.6-1.8-2.1-8.5-10.2-1.8-2.1-9-10.8-1.8-2.2-6.5-7.8-2.1-2.6-6.7-8-2.1-2.5-4.4-5.2c-1.9-3.2-4.1-6.3-6.5-9.5.4-.3 1.1-.3 1.4.2l9.4 11.3 2.1 2.5 6.6 8 2.1 2.6 6.9 8.3 1.8 2.2 9.1 10.9 1.8 2.1 8.5 10.2 1.8 2.1 10.4 12.5 1.8 2.2 9.4 11.3 1.8 2.2 7.6 9.1c.4.1.5.4.4.7zM794.5 203.2l.3.4 2.1 2.8 4.6 6 1.8 2.4 8.5 11.1 1.7 2.3 8.3 10.9 1.8 2.3 10.5 13.7 1.8 2.3 5.8 7.6c.8-.1 1.5-.1 2.3-.2 0-.2-.1-.4-.2-.5l-7.5-9.8-1.8-2.3-10.5-13.7-1.7-2.3-8.4-10.9-1.7-2.3-8.6-11.2-1.8-2.4-5.1-6.6-2.1-2.8-.2-.3c-.3-.4-.7-.5-1.1-.4l1.2 3.9zM829.6 265.4h-2.4l-6.2-8.1-1.8-2.3-8.3-10.9-1.7-2.3-8.1-10.5-1.8-2.4-.7-.8c-.1-1-.1-1.9-.2-2.9.3 0 .7.1.9.4l.3.4 1.8 2.4 8.1 10.6 1.7 2.3 8.3 10.9 1.8 2.3 7.9 10.3c.4.2.4.4.4.6z"/><path class="st17" d="m807.3 169.9-.3 2.3-.4 2.7-1.4 10.7-.4 2.8-1.1 8.6-.4 2.8-1.3 9.6-.4 2.9-1.8 13.6-.4 2.9-.5 3.7c.1 4.3-.1 8.2-.4 11.6l8.3 12 1.7 2.5 3.6 5.3c.9.1 1.7.2 2.5.3 0-.2 0-.5-.2-.6l-5.5-8-1.7-2.5-7.6-11 1.5-11 .4-2.9 1.8-13.6.4-2.9 1.3-9.8.4-2.8 1.2-8.7.4-2.8 1.5-10.8.4-2.7.6-4.2v-.1l-2.2.1z"/><ellipse transform="scale(.99998) rotate(-5.3 833.22 150.187)" cx="833.2" cy="150.2" rx="64.7" ry="19.3" style="fill:#ce9d4e"/><ellipse transform="scale(.99998) rotate(-5.3 833.414 150.104)" class="st4" cx="833.4" cy="150.1" rx="61.8" ry="17.8"/></g><g><path class="st19" d="m827.3 524 13.7 69.6h10.5l-2-69.6zM863.9 521.3s2.4 14.3 10.8 23.8 22.1 33.7 22.1 33.7l7.4-3.2s-4.2-26.4-12.6-36.9c-8.4-10.5-11.6-23.2-11.6-23.2l-16.1 5.8z"/><path class="st7" d="M850.5 593.6c2.2 0 4.1 1.3 5 3.3 1.3 2.9 2.1 6.9-1.8 8.2-4.7 1.6-18.8.8-25.7.3-3.8-.3-5.8-4.9-3.2-7.7.6-.6 1.4-1.2 2.6-1.7 6.3-2.5 13.7-2.5 13.7-2.5h9.4zM895.4 577.5c.1-1.8 1.2-3.3 2.8-3.9 3-1.1 7.5-2.1 9 1.2 2.3 5.1.2 24.1-5.1 27.2-5.3 3.1-14.8 5.1-16.9-2.2 0 0 1.1-3.1 6.3-5.2 5.3-2.1 3.3-5.3 3.3-5.3l.6-11.8z"/><ellipse transform="rotate(-50.29 843.129 322.784)" class="st19" cx="843.1" cy="322.8" rx="19" ry="13.2"/><path class="st8" d="M837.8 354.3c-2.1 0-28.5-2.1-28.5-2.1l-6.3 26.4 4.2 3.2 5.3 52.7 46.4-5.3v-73.8l-21.1-1.1z"/><path class="st19" d="M810.4 356.4s-20-20-24.2-28.5c-4.2-8.4-8.4-36.9-8.4-36.9s1.1-8.4-2.1-11.6c-3.2-3.2-8.4-16.9-12.6-16.9s-9.5 2.1-6.3 12.6 12.6 14.8 12.6 14.8-1.1 30.6 2.1 40.1 14.8 31.6 17.9 33.7c3.2 2.1 15.8 13.7 15.8 13.7l5.2-21zM825.2 357.4s-19-19-23.2-27.4c-4.2-8.4-6.3-21.1-6.3-21.1v-12.7s-1.1-16.8 4.2-18.9 9.5-1.1 8.4 11.6c-1.1 12.6-5.3 15.2-5.3 15.2s6.2 14.7 7.3 18.7 27.2 20.4 27.2 20.4l-12.3 14.2z"/><path d="m813.6 431.2 3 95.6h32.6l2.4-19.7L861 525l28.5-11.6s-16.9-74.8-32.7-87.5l-43.2 5.3z" style="fill:#7b45c9"/><path class="st7" d="M843.1 311.5s-4.2-6.9 0-10c0 0 5.3-9.4 16.9-3.1 11.6 6.3 8.4 14.8 8.4 14.8s17.9 6.3 14.8 13.7c-3.2 7.4-8.4 7.4-8.4 7.4s-1.1 5.3 5.3 7.4c6.3 2.1 27.4 1.1 13.7 40.1 0 0-11.6 23.2-36.9 20-25.3-3.2-28.5-27.4-25.3-33.7 3.2-6.3 1.1-8-1-11.4-2.2-3.4-.3-15.8 6.1-17 6.5-1.2 5.4-9.6 5.4-9.6s4.2 1.1 5.3-3.2c1.1-4.2 2.1-10.5 0-10.5-2.2-.1-4.3-4.9-4.3-4.9z"/></g></svg>