<svg version="1.1" id="Layer_1" xmlns="http://www.w3.org/2000/svg" xmlns:xlink="http://www.w3.org/1999/xlink" x="0" y="0" viewBox="0 0 909.23 873.63" style="enable-background:new 0 0 909.23 873.63" xml:space="preserve"><style>.st5{opacity:.34;fill:#fff}.st7{opacity:.17}.st7,.st9{fill:#fff}.st10{fill:#fca819}.st11{fill:#ffcc83}.st12{fill:#27273f}.st13{fill:#3470b9}</style><path d="M551.11 862.43c-67.26 11.08-136.21 5.9-201.12-14.92C227.43 808.21 13.95 714.84 1.04 538.74-17.13 290.86 207.37 26.15 376.28 7 499.95-7.02 928.35-25.94 908.57 235.43 889 493.99 929.23 653.64 780.79 768.1c-74.58 57.52-161.58 83.11-229.68 94.33z" style="opacity:.34;fill:#9952d1"/><defs><path id="SVGID_1_" d="M539.62 837.38c-63.33 10.44-128.25 5.56-189.36-14.05-115.39-37-316.39-124.91-328.55-290.71C4.6 299.23 215.98 50 375.01 31.97 491.45 18.77 894.8.95 876.18 247.05c-18.42 243.44 19.45 393.76-120.3 501.53-70.23 54.15-152.14 78.24-216.26 88.8z"/></defs><clipPath id="SVGID_2_"><use xlink:href="#SVGID_1_" style="overflow:visible"/></clipPath><g style="clip-path:url(#SVGID_2_)"><path style="opacity:.47;fill:#bf6df7" d="M23.39 28.39h870.16v833.15H23.39z"/><path style="opacity:.31;fill:#fff" d="M63.39 81.43h744.57V808.5H63.39z"/><circle cx="342.64" cy="157.17" r="39.67" style="opacity:.36;fill:#fff"/><path class="st5" d="M265.47 212.89s-2.81-30.23-33.04-25.46c0 0-7.95-27.84-32.61-19.89-24.66 7.95-15.11 30.39-15.11 30.39s-26.25-22.91-45.34 0l-70 10.39 196.1 4.57zM537.6 227.57s3.56-39.72 41.78-33.45c0 0 10.06-36.58 41.24-26.13s19.11 39.93 19.11 39.93 33.19-30.1 57.33 0l88.51 13.66-247.97 5.99z"/><linearGradient id="SVGID_3_" gradientUnits="userSpaceOnUse" x1="216.658" y1="316.762" x2="215.067" y2="94.026" gradientTransform="matrix(-1 0 0 1 470.192 0)"><stop offset="0" style="stop-color:#fff"/><stop offset="1" style="stop-color:#fff;stop-opacity:0"/></linearGradient><path style="opacity:.38;fill:url(#SVGID_3_)" d="m299.1 83.68-2.82 220.39v18.67l-84.99 19.47V83.68z"/><path class="st7" d="M807.95 81.43c-7.95 1.59-321.37 176.2-321.37 176.2l15.49 31.39 31.13 38.44L807.95 192.8M807.95 218.26l-238.24 121.7 9.94 23.07 228.3-96.85z"/><g style="opacity:.09"><path transform="rotate(-40.896 368.864 462.47)" d="M366.68 297.24h4.34v330.47h-4.34z"/><path d="m208.16 338.41 87.06-32.6 7.01 18.72-27.88 10.44 10.64 25.35-7.36 3.15-26.1-19.96-36.36 13.62zM596.36 374.97v31.81l-26.26 11.14H560l11.7-39.77z"/><ellipse transform="rotate(-70.123 565.297 350.142)" cx="565.29" cy="350.13" rx="45.25" ry="29.69"/><path d="M601.86 384.02h-23.77s-.12-43.9-12.8-43.9c-12.68 0-7.33 21.95-7.33 21.95l-12.56-37.59 70.38 7.08-13.92 52.46zM539.08 486.33l-23.07-24.29-25.46 27.47s-39.77 20.68-56.48 15.91-36.59-4.77-32.61 12.73c3.98 17.5 24.66 3.98 24.66 3.98h49.32s21.48 2.39 35.8-8.75c14.32-11.14 27.84-27.05 27.84-27.05zM531.92 587.36l13.48 140.8-22.23 10.34-31.02-151.14zM481.01 732.14l7.16 21.48-41.37 23.86s-4.56-13.52 3.29-19.09 13.42-19.89 13.42-19.89l17.5-6.36z"/><path d="m540.85 716.7 7.16 21.48-41.37 23.86s-4.56-13.52 3.29-19.09 13.42-19.89 13.42-19.89l17.5-6.36z"/><ellipse transform="rotate(-78.54 564.714 355.224)" cx="564.73" cy="355.24" rx="14.71" ry="9.28"/><path d="M615.78 343.94h-112.5v-6.36l37.06-4.54s-4.96-31.26 40.24-31.26 35.2 42.16 35.2 42.16zM647.27 555.54s-3.98 38.98-24.66 42.16-77.2 0-77.2 0l-75.39 1.41 15.77 139.39-24.66 7.95-24.66-140.8s-13.31-31.82 13.63-42.96 115.2-12.73 115.2-12.73l81.97 5.58z"/><path d="M575.7 639.42h-87.53l15.11 87.51H560z"/><path d="m490.46 639.82 3.38-.79c-.02-.09-2.2-9.95 3.97-19.12 5.31-7.91 15.12-13.08 29.14-15.36 11.5-1.87 21.03.07 28.32 5.77 12.99 10.16 14.69 29.06 14.7 29.26l3.46-.28c-.07-.84-1.82-20.58-16-31.69-8.09-6.33-18.53-8.51-31.04-6.47-15.04 2.45-25.63 8.14-31.5 16.9-6.99 10.44-4.54 21.32-4.43 21.78zM667.79 613.75c.95 0 1.73-.77 1.73-1.72l4.94-551.27c.01-.96-.76-1.74-1.72-1.75h-.02c-.95 0-1.73.77-1.73 1.72L666.05 612c-.01.96.76 1.74 1.72 1.75h.02zM483.4 606.99c.96 0 1.73-.78 1.73-1.73V57.57c0-.96-.78-1.73-1.73-1.73s-1.73.78-1.73 1.73v547.69c-.01.96.77 1.73 1.73 1.73z"/><path transform="rotate(-180 575.697 605.258)" d="M478.67 598.5h194.05v13.52H478.67z"/><path d="m664.77 494.58 15.11-22.56s-2.39-25.46-15.11-15.11-8.35 25.28-8.35 25.28l8.35 12.39z"/><path d="m659.2 449.33 17.5 56.89s-1.59 9.55-11.93 8.75c-10.34-.8-23.86-20.39-23.86-20.39l-4.77-40.86 23.06-4.39z"/><path d="M616.72 396.44s-40.34-.95-51.43 3.5c-11.09 4.45-32.57 13.21-43.71 26.73s-13.52 42.96-13.52 42.96l29.43 29.43 17.5 56.48h92.28v-93.5l17.5-12.71s-21.26-53.15-48.05-52.89z"/><path d="m616.72 396.44 5.09 57.99-35.4 4.06-21.12-58.55-12.57 5.34s26.38 59.21 25.46 76.89l9.08 73.36h52.05l-7.95-101.11-2.51-54.59-12.13-3.39z"/></g><g><path transform="rotate(-40.896 383.183 462.47)" class="st9" d="M381 297.24h4.34v330.47H381z"/><path class="st10" d="m222.48 338.41 87.06-32.6 7.01 18.72-27.89 10.44 10.65 25.35-7.36 3.15-26.1-19.96-36.36 13.62z"/><path class="st11" d="M610.67 374.97v31.81l-26.25 11.14h-10.1l11.69-39.77z"/><ellipse transform="rotate(-70.123 579.616 350.142)" class="st11" cx="579.61" cy="350.13" rx="45.25" ry="29.69"/><path class="st12" d="M616.18 384.02h-23.77s-.12-43.9-12.8-43.9-7.33 21.95-7.33 21.95l-12.56-37.59 70.38 7.08-13.92 52.46z"/><path class="st11" d="m553.4 486.33-23.07-24.29-25.46 27.47s-39.77 20.68-56.48 15.91-36.59-4.77-32.61 12.73c3.98 17.5 24.66 3.98 24.66 3.98h49.32s21.48 2.39 35.8-8.75c14.32-11.14 27.84-27.05 27.84-27.05z"/><path class="st13" d="m546.24 587.36 13.48 140.8-22.23 10.34-31.02-151.14z"/><path class="st12" d="m495.33 732.14 7.16 21.48-41.37 23.86s-4.56-13.52 3.29-19.09 13.42-19.89 13.42-19.89l17.5-6.36zM555.16 716.7l7.16 21.48-41.37 23.86s-4.56-13.52 3.29-19.09 13.42-19.89 13.42-19.89l17.5-6.36z"/><ellipse transform="rotate(-78.54 579.032 355.224)" class="st11" cx="579.05" cy="355.24" rx="14.71" ry="9.28"/><path class="st10" d="M630.1 343.94H517.6v-6.36l37.06-4.54s-4.96-31.26 40.24-31.26 35.2 42.16 35.2 42.16z"/><path class="st13" d="M661.59 555.54s-3.98 38.98-24.66 42.16-77.2 0-77.2 0l-75.39 1.41L500.1 738.5l-24.66 7.95-24.66-140.8s-13.31-31.82 13.63-42.96 115.2-12.73 115.2-12.73l81.98 5.58z"/><path class="st10" d="M590.02 639.42h-87.53l15.11 87.51h56.72z"/><path class="st9" d="m504.78 639.82 3.38-.79c-.02-.09-2.2-9.95 3.97-19.12 5.31-7.91 15.12-13.08 29.14-15.36 11.5-1.87 21.03.07 28.32 5.77 12.99 10.16 14.69 29.06 14.7 29.26l3.46-.28c-.07-.84-1.82-20.58-16-31.69-8.09-6.33-18.53-8.51-31.04-6.47-15.04 2.45-25.63 8.14-31.5 16.9-6.99 10.44-4.54 21.32-4.43 21.78zM682.1 613.75c.95 0 1.73-.77 1.73-1.72l4.94-551.27c.01-.96-.76-1.74-1.72-1.75h-.02c-.95 0-1.73.77-1.73 1.72L680.37 612c-.01.96.76 1.74 1.72 1.75h.01zM497.72 606.99c.96 0 1.73-.78 1.73-1.73V57.57c0-.96-.78-1.73-1.73-1.73s-1.73.78-1.73 1.73v547.69c-.01.96.77 1.73 1.73 1.73z"/><path transform="rotate(-180 590.016 605.258)" style="fill:#fb6d55" d="M492.99 598.5h194.05v13.52H492.99z"/><path class="st11" d="m679.09 494.58 15.11-22.56s-2.39-25.46-15.11-15.11-8.35 25.28-8.35 25.28l8.35 12.39z"/><path class="st11" d="m673.52 449.33 17.5 56.89s-1.59 9.55-11.93 8.75c-10.34-.8-23.86-20.39-23.86-20.39l-4.77-40.86 23.06-4.39z"/><path class="st9" d="M631.04 396.44s-40.34-.95-51.43 3.5-32.57 13.21-43.71 26.73-13.52 42.96-13.52 42.96l29.43 29.43 17.5 56.48h92.28v-93.5l17.5-12.71s-21.26-53.15-48.05-52.89z"/><path class="st13" d="m631.04 396.44 5.09 57.99-35.4 4.06-21.12-58.55-12.57 5.34s26.38 59.21 25.46 76.89l9.08 73.36h52.05l-7.95-101.11-2.51-54.59-12.13-3.39z"/></g></g></svg>