<svg version="1.1" id="Layer_1" xmlns="http://www.w3.org/2000/svg" xmlns:xlink="http://www.w3.org/1999/xlink" x="0" y="0" viewBox="0 0 1000 564.99" style="enable-background:new 0 0 1000 564.99" xml:space="preserve"><style>.st4{clip-path:url(#SVGID_2_)}.st5{fill:#1f3458}.st6{fill:#2c4c7c}.st8{opacity:.56;clip-path:url(#SVGID_2_)}.st13,.st8{fill:#fff}.st15{fill:#feb182}.st16{fill:#feac02}.st17{fill:#232323}.st20{fill:#f77c48}.st21{fill:#f2aa7c}.st22{fill:#1a2c36}.st23{fill:#4570ad}.st24{fill:#e6e7e8}.st26{fill:#fcb07f}.st28{fill:#ff4d53}.st29{fill:#fcb280}.st30{fill:#ffb384}.st34{fill:#202121}.st35{fill:#283150}.st36{fill:#ffb17c}.st37{fill:#1e1e1e}.st38{clip-path:url(#SVGID_2_);fill:#fff}</style><path d="M36.98 552.38s-74.61-73.66-4.76-207.43c31.93-61.15 44.21-195 44.21-195S79.05 24.66 214.38 14.29 371.12 56.68 444.55 66.1s114.22 2.83 166.46-15.07c52.23-17.9 134.43 32.49 140.95 97.26 6.53 64.77-2.37 139.42 34.99 158.78 32.09 16.63 110.45 115.12 43.77 247.01l-793.74-1.7z" style="opacity:.49;fill:#e0d5fc"/><path d="M173.18 552.38s-74.61-73.66-4.76-207.43c31.93-61.15 44.21-195 44.21-195S215.25 24.66 350.58 14.3s156.74 42.39 230.17 51.81 114.22 2.83 166.46-15.07 134.43 32.49 140.95 97.26-2.37 139.42 34.99 158.78c32.09 16.63 110.45 115.12 43.77 247.01l-793.74-1.71z" style="opacity:.4;fill:#e0d5fc"/><defs><path id="SVGID_1_" d="M55.33 552.45s-84.43-70.84-5.39-199.49c36.13-58.81 50.03-187.54 50.03-187.54s2.97-120.49 156.1-130.46 177.36 40.77 260.45 49.83 129.25 2.72 188.35-14.5c59.1-17.21 152.11 31.25 159.49 93.54s-2.68 134.08 39.59 152.7c36.31 16 124.97 110.71 49.53 237.55l-898.15-1.63z"/></defs><clipPath id="SVGID_2_"><use xlink:href="#SVGID_1_" style="overflow:visible"/></clipPath><path d="M55.33 552.45s-84.43-70.84-5.39-199.49c36.13-58.81 50.03-187.54 50.03-187.54s2.97-120.49 156.1-130.46 177.36 40.77 260.45 49.83 129.25 2.72 188.35-14.5c59.1-17.21 152.11 31.25 159.49 93.54s-2.68 134.08 39.59 152.7c36.31 16 124.97 110.71 49.53 237.55l-898.15-1.63z" style="clip-path:url(#SVGID_2_);fill:#ca9ded"/><path style="opacity:.54;clip-path:url(#SVGID_2_);fill:#fff" d="M532.13 146.33 423.05 543.31l213.45 1.79-74.86-382.39z"/><g class="st4"><path class="st5" d="M460.79 209.19h160.1v260.54h-160.1z"/><circle class="st6" cx="542.48" cy="267.4" r="41.76"/><circle class="st5" cx="542.48" cy="267.4" r="35.77"/><circle class="st6" cx="542.48" cy="267.4" r="32.89"/><g><circle class="st6" cx="544.74" cy="396.08" r="58.24"/><circle class="st5" cx="544.74" cy="396.08" r="49.88"/><circle class="st6" cx="544.74" cy="396.08" r="45.86"/></g></g><path d="M931.31 549.59H435.08V491.7c0-12.14 9.84-21.97 21.97-21.97H931.3v79.86z" style="clip-path:url(#SVGID_2_);fill:#1f3458"/><path class="st8" d="M207.09 146.33 98.01 546.42l213.45 1.81-74.87-385.39z"/><path style="opacity:.61;clip-path:url(#SVGID_2_);fill:#fff" d="m390.26 148.1 109.07 397.2-213.44 1.8 74.86-382.61z"/><path class="st8" d="m722.56 144.53 109.08 403.24-213.45 1.82 74.86-388.42z"/><g class="st4"><path style="fill:#223963" d="M659.17 355.59h272.14v194H659.17z"/><path style="opacity:.56;fill:#1b468c" d="M659.17 471.45h272.14v78.14H659.17z"/><g style="opacity:.54"><path class="st13" d="M689.49 399.38h10.78v60.63h-10.78zM668.6 437.77h10.78V460H668.6zM711.72 423.63h10.78v36.38h-10.78zM733.94 387.25h10.78V460h-10.78zM756.17 399.38h10.78v60.63h-10.78zM778.4 429.69h8.76V460h-8.76zM800.63 408.81h10.78V460h-10.78zM822.86 429.69h10.78V460h-10.78zM845.09 415.54h10.78V460h-10.78zM867.32 408.81h10.78V460h-10.78zM889.55 399.38h10.78v60.63h-10.78zM911.78 425.65h10.78V460h-10.78z"/></g><circle class="st13" cx="712.74" cy="491.65" r="2.68"/><circle class="st13" cx="751.67" cy="491.65" r="2.68"/><circle class="st13" cx="788.58" cy="491.65" r="2.68"/><circle class="st13" cx="825.49" cy="491.65" r="2.68"/><circle class="st13" cx="862.4" cy="491.65" r="2.68"/><circle class="st13" cx="899.31" cy="491.65" r="2.68"/><circle class="st13" cx="712.75" cy="513.22" r="2.69"/><circle class="st13" cx="751.67" cy="513.09" r="2.68"/><circle class="st13" cx="788.58" cy="513.09" r="2.68"/><circle class="st13" cx="825.49" cy="513.09" r="2.68"/><circle class="st13" cx="862.4" cy="513.09" r="2.68"/><circle class="st13" cx="899.31" cy="513.09" r="2.68"/></g><path style="clip-path:url(#SVGID_2_);fill:#f67c4a" d="M711.72 350.2h75.2v5.39h-75.2z"/><g class="st4"><ellipse transform="rotate(-16.704 815.229 256.84)" class="st15" cx="815.09" cy="256.87" rx="12.47" ry="15.59"/><path class="st15" d="m815.09 268.47-3.68 11.23s12.21 15.27 18.01 7.19c5.79-8.08 5.69-18.41 5.69-18.41h-3.49l-3.86-7.95-12.67 7.94z"/><path class="st16" d="M813.06 271.61s-11.08-.22-17.81 12.35-8.33 15.72-8.33 15.72l13.07 12.57s2.89-3.82 3.56 0c.67 3.82 6.06 22.68-.9 40.64l-1.12 2.69h54.34s-1.12-44.68-4.94-46.93c-3.82-2.25 2.02-2.25 2.02-2.25l13.02-14.37-12.35-15.94s-9.43-12.35-22-7.63c0 0 .83 8.73-8.36 11.45 0 .01-7.44 3.16-10.2-8.3z"/><path class="st17" d="M814.1 248.71s-3.37-4.74-7.41-.9c-4.04 3.84-5.95 8.26-5.95 8.26s-10.44-1.3-6.62-8.48 7.41-13.25 12.8-14.82 4.94-4.27 9.21-3.14c4.27 1.12 7.86 1.57 11.9 6.74s4.72 11.45 4.72 11.45l-2.92 13.7h-2.19s-1.48-15.95-4.38-16.84-9.16 4.03-9.16 4.03z"/><circle class="st16" cx="822.61" cy="251.09" r="7.52"/><circle cx="822.61" cy="251.09" r="5.65" style="opacity:.74;fill:#fff"/><path class="st16" d="M822.61 243.56s-11.7-11.47-17.4-10.12l4.51-1.81s9.29.46 15.38 11.93h-2.49z"/><path class="st15" d="M788.31 301.02s-9.01 20.44-15.75 24.93c-6.74 4.49-22 18.64-22 18.64s-9.43.22-11.23 5.61c-1.8 5.39 2.92 0 2.92 0h4.27s6.51 1.8 8.53.9c2.02-.9 1.57-3.82 9.88-8.08 8.31-4.27 25.03-15.27 28.34-20.77 3.32-5.5 7.36-12.69 7.36-12.69l-12.32-8.54zM851.86 305.61l8.05 10.69s1.12 4.94-1.35 9.66-8.08 15.72-8.08 15.72-16.39-.45-13.92 6.74l2.69 1.8h16.62l1.35-3.37 15.49-22.9s5.61-5.39 1.35-11c-4.27-5.61-10.12-18.64-10.12-18.64l-12.08 11.3z"/><path style="fill:#f67c4a" d="M835.11 350.2h75.2v5.39h-75.2z"/></g><g class="st4"><path class="st20" d="M600.57 531.61v16.62h28.74s3.37-3.59-2.47-5.84-13.25-4.49-13.25-4.49-3.14-2.47-3.14-4.04-9.88-2.25-9.88-2.25zM654.68 532.51v14.59h28.15s2.39-4.94-6.59-5.84c-8.98-.9-9.21-8.76-9.21-8.76h-12.35z"/><ellipse transform="rotate(-7.141 661.795 318.696)" class="st21" cx="661.64" cy="318.63" rx="12.35" ry="15.61"/><path class="st17" d="M657.38 315.83s-2.25-6.51 4.27-6.06 13.25 1.57 13.25-3.14-4.49-6.51-4.49-6.51l-11.23-2.47s-16.17-3.78-15.49 7.54c.67 11.32 3 19.14 7.04 23.63l.83-1.89s2.69-6.16 2.01-9.97c-.68-3.83 3.81-1.13 3.81-1.13z"/><path class="st21" d="m653.34 327.5-2.92 12.13s5.61 15.49 16.39 3.59V327.5h-13.47zM677.14 367.92l2.25 15.72s.51 1.12 2.84 2.02c2.33.9 20.96-1.12 20.96-1.12s2.25-.67 4.94-4.27l2.69-3.59s3.14.45 0 5.84l8.98-.67s4.27.91 1.57 4.05c-2.69 3.14-13.7 4.49-13.7 4.49h-2.47l-24.47 9.21s-8.24 3.44-12.12-3.14c-3.89-6.58-3.59-12.24-3.59-12.24l12.12-16.3zM615.56 352.2l-17.24 15.72s-3.82 2.92-4.49 10.1c-.67 7.19 0 30.76 0 30.76s4.49 12.57 8.53 7.63l.67-10.55 4.72 1.12s2.92-.22-1.12-4.72-5.84-5.16-5.84-5.16.45-14.18 7.86-20.9c7.41-6.72 15.32-11.03 15.32-11.03l-8.41-12.97z"/><path class="st22" d="M613.59 407.66s-3.37 34.8 3.82 55.24c0 0 2.02 9.43-3.59 16.62-5.61 7.19-15.27 53.89-15.27 53.89l13.7 2.47 22.68-42.23s7.86-13.68 7.86-24.46c0-10.78 1.35-14.59 1.35-14.59l13.47 17.18s6.06 3.93 0 8.42-4.04 54.11-4.04 54.11l15.94 1.57 11.68-52.77s4.72-7.63-1.8-20.21-22-46.7-22-46.7l-43.8-8.54z"/><path class="st23" d="M650.42 334.24s-12.35-1.79-18.86 3.37-17.06 12.57-17.06 12.57 7.63 14.82 10.78 15.94c0 0-4.72 17.06-8.53 30.09l-6.29 11.45s24.47 15.04 49.85 9.66c0 0-2.02-30.76 17.74-46.03 0 0 6.06-8.76 3.59-19.09-2.47-10.33-14.82-14.59-14.82-14.59s2.47 4.43-8.2 3.33c-10.67-1.09-8.2-6.7-8.2-6.7z"/><ellipse transform="rotate(-7.141 654.833 318.696)" class="st21" cx="654.68" cy="318.63" rx="3.35" ry="4.24"/></g><g class="st4"><path class="st24" d="M229.2 529.61v16.62h28.74s3.37-3.59-2.47-5.84-13.25-4.49-13.25-4.49-3.14-2.47-3.14-4.04-9.88-2.25-9.88-2.25zM283.31 530.51v14.59h28.15s2.39-4.94-6.59-5.84c-8.98-.9-9.21-8.76-9.21-8.76h-12.35z"/><ellipse transform="rotate(-18.177 263.039 318.11)" class="st21" cx="263.08" cy="318.12" rx="12.35" ry="15.61"/><path class="st17" d="M258.36 316.18s-3.45-5.96 3.03-6.77c6.48-.81 13.3-.99 12.4-5.62-.9-4.63-5.65-5.53-5.65-5.53l-11.49-.28s-16.59-.62-13.76 10.37c2.83 10.98 6.6 18.21 11.43 21.85l.45-2.01s1.46-6.56.07-10.17c-1.41-3.62 3.52-1.84 3.52-1.84z"/><path class="st21" d="m255.01 328.73-.9 12.53s9.15 14 18.74.01l-3.01-15.43-14.83 2.89zM290.69 361.97l7.04 14.23s.83.91 3.33 1.04c2.49.13 19.57-7.6 19.57-7.6s1.92-1.34 3.36-5.59l1.44-4.25s3.13-.55 1.82 5.55l8.32-3.44s4.34-.47 2.76 3.36c-1.58 3.82-11.61 8.53-11.61 8.53l-2.35.77-20.38 16.38s-6.75 5.83-12.5.79-7.23-10.51-7.23-10.51l6.43-19.26zM227.64 363.55l-11.99 20.01s-2.82 3.89-1.4 10.97 8.85 29.46 8.85 29.46 7.92 10.75 10.37 4.86l-2.39-10.3 4.84-.28s2.73-1.05-2.43-4.19c-5.16-3.14-7.08-3.27-7.08-3.27s-3.65-13.71 1.52-22.28c5.16-8.57 11.5-14.97 11.5-14.97l-11.79-10.01z"/><path d="M242.22 405.66s-3.37 34.8 3.82 55.24c0 0 2.02 9.43-3.59 16.62s-15.27 53.89-15.27 53.89l13.7 2.47 22.68-42.23s7.86-13.68 7.86-24.46c0-10.78 1.35-14.59 1.35-14.59l13.47 17.18s6.06 3.93 0 8.42-4.04 54.11-4.04 54.11l15.94 1.57 11.68-52.77s4.72-7.63-1.8-20.21-22-46.7-22-46.7l-43.8-8.54z" style="fill:#1f396b"/><path class="st16" d="M255.28 336.51s-12.34 1.83-17.1 8.65c-4.75 6.82-12.73 16.95-12.73 16.95s11.57 12 14.91 12.17c0 0 .39 17.7.48 31.27l-2.73 12.78s27.77 7.37 50.52-5.09c0 0-10.78-28.88 3.75-49.19 0 0 3.29-10.13-2.05-19.31-5.34-9.18-18.39-9.72-18.39-9.72s3.64 3.53-6.89 5.55c-10.52 2.03-9.77-4.06-9.77-4.06z"/><ellipse transform="rotate(-18.177 256.207 319.441)" class="st21" cx="256.25" cy="319.45" rx="3.35" ry="4.24"/></g><g class="st4"><ellipse transform="rotate(-73.662 529.703 310.935)" class="st26" cx="529.72" cy="310.92" rx="12.89" ry="10.33"/><path d="M521.17 304.78s-10.64-5.77-1.36-11.16c0 0 9.28-4.19 21.26 0 11.98 4.19 5.39 15.57 5.39 15.57l-8.9 12.04s.13-7.14.52-9.73c.97-6.42-.6-8.31-6.08-8.31-1.36 0-7.09 3.31-9.49 1.22-2.37-2.08-1.34.37-1.34.37z" style="fill:#512e25"/><path class="st26" d="M522.84 321.48v14.13s19.77 7.97 18.23-1.27c-.3-1.8-2.69-7.52-2.69-7.52l-1.5-10.18-14.04 4.84zM552.74 322.96l11.98-19.78v-40.55s-5.24-.45-5.01-5.84c.22-5.39-.67-6.51 1.57-3.82 2.25 2.69 2.47-2.69-.22-4.04-2.69-1.35-.3-7.41 3.67-3.59 3.97 3.82 5.54 10.1 5.09 14.82-.45 4.72 7.86 39.74 7.86 39.74s3.14 7.86-1.35 15.72-13.06 26.4-13.06 26.4-10.3-13.52-10.53-19.06zM505.81 326.81s-12.13-5.8-16.84-8.72c-4.72-2.92-6.06-8.53-6.06-8.53l-2.25-18.86s3.37-4.94 4.27-7.19c.9-2.25-3.37-2.92-4.27-1.57-.9 1.35 5.84-5.61 1.12-6.06-4.72-.45-10.55 1.12-9.88 6.29s1.8 34.46 1.8 34.46.9 6.85 6.29 12.69 23.35 16.4 23.35 16.4l2.47-18.91zM560.83 529.61s2.47 9.43 1.12 9.66c-1.35.22-9.66 0-9.66 0v-10.78l8.54 1.12z"/><path class="st22" d="M563.3 533.92s2.02 10.95 0 11.18c-2.02.22-27.62 1.12-27.62 1.12s-3.82-5.56 2.69-6.15 11.01-4.63 11.01-4.63l13.92-1.52z"/><path class="st26" d="M465.62 500.64v7.41s8.53.9 8.53 0 1.8-7.41 1.8-7.41h-10.33z"/><path class="st22" d="m463.38 504.55 12.57 1.93-2.47 9.21-27.62-3.59s-1.57-5.61 3.37-6.51c4.94-.9 7.19 1.74 14.15-1.04z"/><path class="st23" d="m505.81 408.13-33.96 26.94s-6.46 2.47-6.91 14.82c-.45 12.35-1.57 52.54-1.57 52.54l14.15 2.47s12.57-44.68 8.98-54.11c0 0 29.41-2.47 32.78-8.53 0 0-.9 39.29 8.76 52.99 9.66 13.7 22.45 38.62 22.45 38.62l15.24-3.37s-9.18-47.6-18.83-59.05c0 0 11.45-48.86 6.96-54.97l-48.05-8.35z"/><path class="st28" d="m519.18 327.62-14.63-2.11-3.47 20.21s9.28 6.58 10.27 25.74c.99 19.16-7.99 37.35-7.99 37.35s14.78 13.93 54.19 9.06c0 0 5.69-39.52 2.1-62.27 0 0 .9-8.74 5.09-16.65 0 0-12.87-12.39-11.08-19.28l-15.27 7.15s-1.98 6.93-6.38 6.93c0 0-7.36.53-9.16-6.93l-3.67.8z"/></g><g class="st4"><ellipse class="st29" cx="398.71" cy="330.27" rx="9.43" ry="13.64"/><path class="st30" d="m390.03 335.61-.75 11.88s.45 6.71-6.74 0-26.5-35.99-26.5-35.99 4.04-4.86 4.04-10.47-3.14-7.21-4.04-3.04c-.9 4.17-5.84 1.62-5.84 8.51s9.88 31.15 16.17 39.23c6.29 8.08 16.62 22.42 17.06 28.5h31.44l-4.04-14.43s18.86-21.73 20.21-29.57c1.35-7.84 4.49-16.11 4.49-16.11s2.25-2.8 4.49-3.33 9.85-1.43 5.6-2.32-6.5-1.95-6.5-1.95 2.25-2.28 4.04-3.31c1.8-1.03 9.85-8.02 2.46-5.2-7.4 2.82-11.89 10.46-11.89 10.46s-14.37 30.09-23.8 35.48c0 0-3.59 5.39-7.63 6.29l-.9-8.17-11.37-6.46zM373.56 434.4l1.8 35.36s-28.74 22.79-31.44 30.87c0 0-4.94-2.25-6.74 0-1.8 2.25-7.19 12.57-7.19 12.57l52.54-26.5s7.63-1.35 11.68-15.72c4.04-14.37 8.08-29.19 8.08-29.19l-28.73-7.39z"/><path class="st30" d="M415.77 439.57s1.8 33.23-2.69 49.4-10.78 44.96-10.78 44.96l5.84 9.38s-12.57-3.49-12.57-9.38-1.8-33.28-1.8-33.28-.45-13.02 4.94-17.51l-9.43-45.36 26.49 1.79z"/><path d="M392.52 333.39s7.98-2.65 10.38-10.59c0 0 1.2-1.05 2.4 3.14s3.59 4.32 3.59 4.32 2.4-5.52-1.35-9.86c-3.74-4.34-5.09-4.64-9.43-5.54-4.34-.9-2.25-5.99-6.81-5.69-4.57.3-13.4 2.1-14.59 1.58-1.2-.53-2.69-3.82-2.1-6.07.6-2.25-6.14-.14-7.78 6.07-1.65 6.21-4.64 9.65.75 12.95 5.39 3.29 15.27-.6 18.26-3.14 2.99-2.54 5.46-3.14 5.46-3.14s-4.86 2.1-6.21 4.94-2.99 8.98-1.05 11.68c1.95 2.69 4.64 5.99 4.64 5.99l3.84-6.64z" style="fill:#1d4688"/><ellipse transform="rotate(-32.87 389.974 333.414)" class="st29" cx="389.98" cy="333.39" rx="2.34" ry="3.39"/><path d="m391.3 317.42 3.65-5.47s1.42 2.55 3.16 2.92l-6.81 2.55z" style="fill:#f47d4c"/><path d="M385.69 347.49s.09 15.28-3.77 21.8c0 0 6.02 20.02 3.77 24.5s-20.66 17.05-21.11 40.63c0 0 25.15 16.84 53.44 7.41 0 0 0-31.89-5.84-43.34 0 0-2.69-5.39 1.35-16.28s0-21.38-2.69-22.42l-3.98-12.29-4.55 2.72-2.85 9.57-10.17-9.57-3.6-2.73z" style="fill:#8842cc"/><path class="st34" d="M395.53 531.94s-7 4.08-4.23 7.42c2.77 3.34 21.33 10.53 21.33 10.53s4.15-.53.12-4.79c-4.38-4.63-7.49-6.43-7.49-6.43s4.08 6.43-1.01 3.14c-5.09-3.29-8.54-5.32-8.72-9.87zM341.1 499.78s-2.42-3.48-6.31-1.98-10.78 19.46-10.78 19.46 1.8 6.59 9.87-6c0 0-3.96-.48.84-6.71 4.81-6.24 6.38-4.77 6.38-4.77z"/></g><g class="st4"><path class="st35" d="m151.72 327.3 1.12 4.49 5.91-1.59-1.79-6.04z"/><path class="st36" d="m139.5 316.63-.66 20.03h12.88v-12.5z"/><ellipse transform="rotate(-75.275 152.837 316.621)" class="st36" cx="152.84" cy="316.63" rx="13.46" ry="9"/><ellipse transform="rotate(-10.549 142.808 316.636)" class="st36" cx="142.83" cy="316.63" rx="2.35" ry="3.51"/><path class="st35" d="M144.19 314.09s4.38 5.57 12.16-7.6c0 0 4.19-.72 3.29 4.43-.9 5.15 1.8 11 1.8 11s7.19-11.84.9-17.68-12.27-4.94-12.27-4.94-9.13-2.4-15.12 4.94c-5.99 7.33-6.44 17.06-6.44 17.06l11.53 4.53 1.7-6.39c0 .01-2.7-5.8 2.45-5.35z"/><path class="st36" d="m186.3 373.26 19.76 2.84s4.07-2.54 7.8-2.84c3.73-.3 5.53 1.5 2.68 2.84s-4.64 2.4-4.19 4.19c.45 1.8-1.5 3.29-4.94 3.29h-26.94l5.83-10.32zM117.14 373.22l-11.08-7.9s2.84-4.94 0-6.59c-2.84-1.65-4.49-.75-4.49-.75s1.5-5.09-1.2-3.89c-2.69 1.2-3.14 8.83-1.05 11.08 2.1 2.25 17.81 20.21 17.81 20.21v-12.16zM121.63 436.87l1.5 31.88s1.95 13.47 5.09 22.75l7.63 40.42s7.33 1.95 8.53-1.2c1.2-3.14 1.95-46.11-2.54-54.04l4.94-41.61-25.15 1.8z"/><path class="st36" d="m138.99 437.32 6.29 28.29s3.14 11.38 8.83 13.47c5.69 2.1 50 26.2 50 26.2s.75-5.09-1.2-7.78c-1.95-2.69-24.4-28.74-36.82-33.83l.75-29.49-27.85 3.14z"/><path class="st34" d="M202.01 494.51s3.89-5.84 6.29-2.99c2.4 2.84 11.23 20.06 11.23 20.06s-3.29 2.69-7.63-1.5c-4.34-4.19-7.78-4.79-7.78-4.79l-4.34-9.88 2.23-.9zM135.41 529.61l10.17-1.12 2.54 4.46c.9 1.58.29 3.59-1.34 4.38-1.68.81-3.71 2.06-5.24 3.88-3.14 3.74-6.13 5.69-6.13 5.69s-6.3 1.95-8.54.6c-2.25-1.35-.15-7.16 4.64-9.27 0 0 4.28-6.61 3.9-8.62z"/><path class="st28" d="M137.65 327.97s6.29 6.21 14.07 3.82l8.08 2.4s5.24 2.1 7.33 8.23 2.1 16.47 7.33 19.46c5.24 2.99 12.87 6.59 13.92 9.43 1.05 2.84-6.44 12.27-6.44 12.27l-.6 3.89s-20.06-2.69-20.36-6.29c-.3-3.59-5.76-4.04-5.76-4.04s-.97 3.89 2.17 7.93c3.14 4.04 23.05 33.98 22.6 50.15 0 0-49.4 9.43-61.97 3.14 0 0-6.29-2.1-4.04-6.89 2.25-4.79 8.68-37.87 6.14-41.02s-3.74-4.79-3.74-4.79l-.6-14.07s6.14 1.5 5.69-3.29c-.45-4.79.9-26.94.9-26.94s.64-8.9 15.28-13.39z"/></g><g class="st4"><path class="st37" d="M121.81 96.92h707.07v3.59H121.81zM98.01 133.07h758.31v3.82H98.01z"/><path class="st37" d="m114.93 134.98-2.47-2.12 31.32-35.94 2.47 2.12zM148.72 135.8l-2.47-2.12 31.32-35.94 2.47 2.12zM183.89 135.8l-2.47-2.12 31.32-35.94 2.47 2.12zM219.07 135.8l-2.48-2.12 31.32-35.94 2.47 2.12zM254.24 135.8l-2.48-2.12 31.32-35.94 2.47 2.12zM289.41 135.8l-2.48-2.12 31.32-35.94 2.47 2.12zM324.58 135.8l-2.48-2.12 31.32-35.94 2.48 2.12zM359.75 135.8l-2.48-2.12 31.32-35.94 2.48 2.12zM394.92 135.8l-2.48-2.12 31.32-35.94 2.48 2.12zM430.09 135.8l-2.47-2.12 31.31-35.94 2.48 2.12zM465.26 135.8l-2.47-2.12 31.31-35.94 2.48 2.12zM500.43 135.8l-2.47-2.12 31.31-35.94 2.48 2.12zM535.6 135.8l-2.47-2.12 31.32-35.94 2.47 2.12zM570.77 135.8l-2.47-2.12 31.32-35.94 2.47 2.12zM605.94 135.8l-2.47-2.12 31.32-35.94 2.47 2.12zM641.11 135.8l-2.47-2.12 31.32-35.94 2.47 2.12zM676.28 135.8l-2.47-2.12 31.32-35.94 2.47 2.12zM711.45 135.8l-2.47-2.12 31.32-35.94 2.47 2.12zM746.62 135.8l-2.47-2.12 31.32-35.94 2.47 2.12zM781.79 135.8l-2.47-2.12 31.32-35.94 2.47 2.12zM816.96 135.8l-2.47-2.12 31.32-35.94 2.47 2.12z"/><path class="st37" d="m845.81 135.8 2.47-2.12-31.32-35.94-2.47 2.12zM814.08 136.78l2.48-2.12-31.32-35.94-2.47 2.12zM779.14 136.78l2.48-2.12-31.32-35.94-2.48 2.12zM744.2 136.78l2.47-2.12-31.32-35.94-2.47 2.12zM709.26 136.78l2.47-2.12-31.32-35.94-2.47 2.12zM674.31 136.78l2.48-2.12-31.32-35.94-2.47 2.12zM639.37 136.78l2.47-2.12-31.31-35.94-2.48 2.12zM604.43 136.78l2.47-2.12-31.32-35.94-2.47 2.12zM569.49 136.78l2.47-2.12-31.32-35.94-2.47 2.12zM534.54 136.78l2.48-2.12-31.32-35.94-2.47 2.12zM499.6 136.78l2.47-2.12-31.31-35.94-2.48 2.12zM464.66 136.78l2.47-2.12-31.32-35.94-2.47 2.12zM429.72 136.78l2.47-2.12-31.32-35.94-2.47 2.12zM394.77 136.78l2.48-2.12-31.32-35.94-2.47 2.12zM359.83 136.78l2.47-2.12-31.31-35.94-2.48 2.12zM324.89 136.78l2.47-2.12-31.32-35.94-2.47 2.12zM289.95 136.78l2.47-2.12-31.32-35.94-2.47 2.12zM255 136.78l2.48-2.12-31.32-35.94-2.48 2.12zM220.06 136.78l2.47-2.12-31.31-35.94-2.48 2.12zM185.12 136.78l2.47-2.12-31.32-35.94-2.47 2.12zM150.17 136.78l2.48-2.12-31.32-35.94-2.47 2.12z"/></g><g class="st4"><path class="st37" d="M204.25 144.75h28.19l6.99 19.54h-29.78z"/><path class="st13" d="M207.09 146.33h23.65l5.85 16.38h-24.98z"/></g><g class="st4"><path class="st37" d="M528.13 144.75h28.19l6.99 19.54h-29.78z"/><path class="st13" d="M530.97 146.33h23.64l5.86 16.38h-24.98z"/></g><g class="st4"><path class="st37" d="M395.45 146.33h-28.2l-6.98 19.53h29.78z"/><path class="st13" d="M392.61 147.9h-23.65l-5.86 16.39h24.98z"/></g><g class="st4"><path class="st37" d="M724.59 144.75H696.4l-6.98 19.54h29.78z"/><path class="st13" d="M721.76 146.33h-23.65l-5.86 16.38h24.98z"/></g><circle class="st38" cx="463.33" cy="169.06" r="2.68"/><circle class="st38" cx="506.71" cy="171.73" r="2.68"/><circle class="st38" cx="418.02" cy="174.41" r="2.69"/><circle class="st38" cx="437.76" cy="209.19" r="2.68"/><circle class="st38" cx="319.01" cy="243.56" r="2.68"/><circle class="st38" cx="316.33" cy="206.51" r="2.68"/><circle class="st38" cx="290.92" cy="206.51" r="2.68"/><circle class="st38" cx="267.34" cy="211.87" r="2.68"/><circle class="st38" cx="590.6" cy="171.73" r="2.68"/><circle class="st38" cx="630.28" cy="171.73" r="2.68"/><circle class="st38" cx="659.28" cy="203.83" r="2.68"/><circle class="st38" cx="751.67" cy="171.73" r="2.68"/><circle class="st38" cx="800.63" cy="171.72" r="2.68"/><circle class="st38" cx="842.51" cy="174.4" r="2.68"/><circle class="st38" cx="800.63" cy="203.83" r="2.68"/><circle class="st38" cx="155.24" cy="169.06" r="2.68"/><circle class="st38" cx="155.24" cy="243.56" r="2.68"/><circle class="st38" cx="121.63" cy="171.72" r="2.68"/><circle class="st38" cx="269.32" cy="171.73" r="2.68"/><circle class="st38" cx="313.65" cy="174.41" r="2.68"/><path style="clip-path:url(#SVGID_2_);fill:#1e1e1e" d="M38.1 547.97h924.2v6.11H38.1z"/></svg>