<svg version="1.1" id="Layer_1" xmlns="http://www.w3.org/2000/svg" xmlns:xlink="http://www.w3.org/1999/xlink" x="0" y="0" viewBox="0 0 1000 790.9" style="enable-background:new 0 0 1000 790.9" xml:space="preserve"><style>.st3{opacity:.53;fill:#ef505d}.st4{fill:none;stroke:#f3f2f4;stroke-miterlimit:10}.st6{fill:#ef505d}.st7{fill:#59c8d1}.st8{fill:#9b9bff}.st9{fill:#f3f2f4}.st12{fill:#676768}.st13{fill:#fefefe}.st15{fill:#daccbf}.st16{fill:#fca819}.st17{fill:#488bc0}.st18{opacity:.11}.st19{fill:#fbb172}.st20{fill:#032644}.st21{fill:#216a9f}.st22{fill:#3b79a3}.st24{fill:#060d29}.st28{clip-path:url(#SVGID_2_);fill:#a8a8a8}.st29{fill:#676768}.st29,.st31{clip-path:url(#SVGID_2_)}.st32{fill:#f2a385}.st34{fill:#2b3b54}.st36{opacity:.19}</style><path style="fill:#e6e7e8" d="M0 691.8h1000v99.1H0z"/><path d="M959.5 393.2c78.5 177.3-185.3 344.2-397 287.3-256.5-69-321.8-171.3-331.2-287.3C215.6 199.9 343.2 78.6 562.5 78.6s282.3 55.4 397 314.6z" style="opacity:.51;fill:#e2d3fa"/><path d="M921.3 385.2c71.4 161.3-168.5 313.2-361.2 261.4-233.4-62.7-292.7-155.8-301.3-261.4C244.5 209.4 360.6 99.1 560.1 99.1s256.8 50.3 361.2 286.1z" style="fill:#cfb5f6"/><path class="st3" d="M772.3 128.1s1.2-99.8 109-104.8c-.1 0-.5 98.4-109 104.8z"/><path class="st4" d="m772.3 128.1 16-15.5 92.9-89.3"/><path class="st4" d="M832.8 99.3s-26.1 19.2-44.5 13.3M816.8 52.8S794.3 86.3 805.5 96M862.6 70.7s-25.3 15.9-41.5 10.4M849.6 34.7s-19.5 17.5-12.5 31.1M873.7 45.3s-9.6 13-25.7 9.9"/><path class="st3" d="M714.2 197.8s-71.1-70 0-151.2c0 0 70.6 68.5 0 151.2z"/><path class="st4" d="M714.2 197.8V46.6M735.4 134.2s-4.3 32.1-21.2 41.3M690.8 113.6s8.5 39.4 23.3 38.1M735.4 92.9s-6.1 29.3-21.2 37.1M700.4 77.4s-.9 26.2 13.8 30.6M724.8 67.3s2.7 15.9-10.6 25.4"/><g><path class="st3" d="M733.4 180.5s72.9-37.6 118.2 38.7c0 0-71.6 37.7-118.2-38.7z"/><path class="st4" d="m733.4 180.5 17.5 5.7 100.7 33"/><path class="st4" d="M777.7 213.4s-24-11.6-26.8-27.2M805.3 183.8s-33-3.5-35.7 8.5M810 223.9s-21.3-12.3-23.6-26.1M831.1 200.6s-20.3-7.4-27.5 2.9M832.8 222.2s-13.1-2-17.1-14.8"/></g><g style="opacity:.53"><path class="st6" d="M667.3 260.8c-.4 0-.9-.1-1.3-.4-.9-.7-1-2-.3-2.8l104.9-130.7c.7-.9 2-1 2.8-.3.9.7 1 2 .3 2.8L668.9 260c-.4.5-1 .8-1.6.8z"/></g><g><path class="st7" d="M440.7 92c.1-.4.3-.8.7-1.1.9-.7 2.1-.6 2.8.3l105.9 129.9c.7.9.6 2.1-.3 2.8-.9.7-2.1.6-2.8-.3l-105.9-130c-.4-.5-.5-1.1-.4-1.6z"/><path class="st7" d="M449.3 97.8s-1-83.8-91.5-88c-.1 0 .3 82.6 91.5 88z"/><path class="st4" d="m449.3 97.8-13.5-13-78.1-75M398.4 73.7s21.9 16.1 37.4 11.2M411.9 34.6s18.9 28.1 9.5 36.3"/><path class="st4" d="M373.4 49.6s21.3 13.4 34.9 8.8M384.3 19.4s16.4 14.7 10.5 26.2M364 28.2s8.1 10.9 21.6 8.4"/><g><path class="st7" d="M467 134.5s-58.8-59.7-127 0c0 0 57.5 59.3 127 0z"/><path class="st4" d="M467 134.5H340M413.6 152.3s27-3.6 34.7-17.8M396.3 114.8s33.1 7.1 32 19.6M378.9 152.3s24.6-5.1 31.2-17.8M365.8 122.9s22-.7 25.7 11.6M357.3 143.4s13.4 2.3 21.3-8.9"/></g><g><path class="st7" d="M487.3 141.9s-59.7-58.8 0-127c0 0 59.3 57.5 0 127z"/><path class="st4" d="M487.3 141.9v-127M505.1 88.5s-3.6 27-17.8 34.7M467.6 71.2s7.1 33.1 19.6 32M505.1 53.8S500 78.4 487.3 85M475.7 40.7s-.7 22 11.6 25.7M496.2 32.3s2.3 13.4-8.9 21.3"/></g></g><g><path class="st8" d="M438.4 273.5s65.9-38.2 28.8-111.8c0 0-65.2 37.2-28.8 111.8z"/><path transform="rotate(-75.558 452.848 217.587)" class="st9" d="M395.1 217.1h115.4v.9H395.1z"/><path class="st9" d="M442.4 257.3c-10.8-10.1-8.1-33.9-8-34.9l.9.1c0 .2-2.8 24.4 7.7 34.2l-.6.6zM448.1 240.1c-.3-.1-.6-.2-1-.3l.3-.9c10.2 3.7 23.8-23.2 23.9-23.5l.8.4c-.5 1.2-13.3 26.4-24 24.3zM451 223.8c-9.7-8.7-8.8-30.9-8.8-31.9h.9c0 .2-.9 22.7 8.5 31.2l-.6.7zM455.6 207.5v-.9c11.2-.5 15.5-19.5 15.6-19.7l.9.2c-.3.9-4.7 19.9-16.5 20.4zM458.1 196c-8.1-9.6-3.1-21.2-3.1-21.3l.8.4c0 .1-4.8 11.1 2.9 20.3l-.6.6z"/><g><path class="st8" d="M425.1 264.4s-65.3-39.2-111.8 28.8c0-.1 64.1 39.1 111.8-28.8z"/><path transform="rotate(-14.413 369.24 278.778)" class="st9" d="M311.5 278.3h115.4v.9H311.5z"/><path class="st9" d="M409 268.7c-3.6 14.4-25.8 23.5-26.7 23.9l-.3-.8c.2-.1 22.8-9.3 26.2-23.2l.8.1zM386.3 266.9c2.7 1.5 4.6 3.5 5.1 6.1l-.9.1c-1.7-10.7-31.8-9.6-32.1-9.6v-.9c.9 0 18.9-.6 27.9 4.3zM375.5 277.4c-2.9 12.7-22.8 22.7-23.7 23.1l-.4-.8c.2-.1 20.3-10.1 23.2-22.5l.9.2zM354.7 277.2c1.7.9 3.2 2.3 4.3 4.1l-.8.5c-5.8-9.6-24.5-4.2-24.7-4.1l-.3-.9c.7-.3 13.6-4 21.5.4zM347.8 284.5c-4.5 11.8-17 13-17.1 13l-.1-.9c.1 0 12.1-1.2 16.4-12.4l.8.3z"/></g><g><path class="st8" d="M391.7 229.6c0-.4.2-.8.5-1.1.7-.7 1.9-.7 2.6 0l106.1 109.3c.7.7.7 1.9 0 2.6-.7.7-1.9.7-2.6 0L392.2 231.1c-.4-.4-.5-1-.5-1.5z"/></g><g><path class="st8" d="M397 234.2s13.5-75-66.6-94.3c0 0-13.9 73.8 66.6 94.3z"/><path transform="rotate(-35.244 363.691 187.06)" class="st9" d="M363.2 129.4h.9v115.4h-.9z"/><path class="st9" d="M367.1 214.2c-6.6-4.5-11.4-9.5-11.7-9.9l.7-.6c.2.2 16.8 17.9 31 16.2l.1.9c-6.9.8-14.2-2.7-20.1-6.6zM376.9 205.8l-.5-.8c9.4-5.4-2.3-33.1-2.4-33.4l.8-.4c.6 1.2 12.2 28.8 2.1 34.6zM345.6 185.1c-4.8-3.2-8.1-6.3-8.4-6.6l.6-.7c.2.2 16.7 15.4 29.2 13.7l.1.9c-7.1 1-15.4-3.2-21.5-7.3zM357.8 178.5l-.7-.6c6.9-8.8-4.8-24.4-4.9-24.6l.7-.5c.5.6 12.2 16.3 4.9 25.7zM339.7 165.7c-4.9-3.3-7.2-8-7.3-8.1l.8-.4c.1.1 5.4 10.9 17.4 10.9v.9c-4.5.1-8.1-1.4-10.9-3.3z"/></g></g><g><path d="m247.3 618.2-.9 5.5-2.3 13.3s-137.6.5-159.1 0-24.3-23.4-24.3-23.4l-9.4-146.4c-.4-5.9 4.3-10.9 10.2-10.9h67.1l-.9 81.6 50.4 42.3 69.2 38z" style="fill:#266084"/><path d="m246.4 623.7-2.3 13.3s-137.6.5-159.1 0-24.3-23.4-24.3-23.4l-9.5-148c-.3-5.1 3.7-9.3 8.8-9.3h4.9L80 603.5s.1 16.5 23 20.2h143.4z" style="fill:#83b0cc"/><path class="st12" d="M128.3 637.2h36.9v9.4h-36.9zM92.9 747.4h101.5v14.5H92.9z"/><path class="st12" d="M138.9 641.9h14.2v118.2h-14.2z"/></g><g><path transform="rotate(-8.482 690.541 594.952)" class="st12" d="M686.3 477.5h8.1v234.7h-8.1z"/><path transform="scale(-1) rotate(8.482 8021.298 -6501.643)" class="st12" d="M478.1 477.5h8.1v234.7h-8.1z"/><path class="st12" d="M722.5 524.9H422.7l31-441h298.8z"/><path class="st13" d="M716.7 515.4H429.8l29.7-422h285.9z"/><path style="opacity:.43;fill:#3ea0cd" d="M528 126.6h146.8v11.9H528z"/><path class="st15" d="M506 161.4h184.4v10.1H506z"/><path class="st12" d="M484 147.4h235.7v3.9H484z"/><path class="st16" d="M590.1 283.1h64.8v62.5h-64.8z"/><path class="st8" d="m529.4 285.2-1.4 60.4 60.6.5 1-22.4s29.2 6.4 20.9-14.7c0 0-9.2-15.8-22.9-3v-20.8H570V309h-19l-1.8-23.8h-19.8z"/><path class="st17" d="M595.9 238.2v-14.1h59v59.3h-23.5s14.1 25.1-10.1 25.7c0 0-19.6-.9-10.7-25.7l-19.3-.6v-13.6s-23.2 5.1-19.3-17.9c0 0 5.2-17.1 21.7-7.3l3.1 1.2-.9-7z"/><path class="st15" d="M560.1 198.1h-64.4l-.7 58.7h19.7c-.7 1.8-1 3.8-1 5.8 0 8.6 6.3 15.6 14.1 15.6s14.1-7 14.1-15.6c0-2.1-.4-4-1-5.8H555V238l-19.5-.8-.9-18 25.7.1v-21.2z"/><path class="st7" d="M482.1 373h47.7v41.6h-47.7z"/><path class="st8" d="M570 373h47.7v41.6H570z"/><path class="st16" d="M650.9 373h47.7v41.6h-47.7z"/><path class="st17" d="M470.8 424h58.5v9.7h-58.5z"/><path class="st15" d="M470.8 435.8h58.5v9.7h-58.5z"/><path class="st8" d="M470.8 447.6h58.5v9.7h-58.5z"/><path class="st16" d="M470.8 459.6h58.5v9.7h-58.5z"/><path class="st12" d="M496.2 471.7h33v8.6h-33z"/><g><path class="st17" d="M550.3 424.3h58.5v9.7h-58.5z"/><path class="st15" d="M550.3 436.2h58.5v9.7h-58.5z"/><path class="st8" d="M550.3 448h58.5v9.7h-58.5z"/><path class="st16" d="M550.3 459.9h58.5v9.7h-58.5z"/><path class="st12" d="M575.7 472h33v8.6h-33z"/></g><g><path class="st17" d="M633.5 426.2H692v9.7h-58.5z"/><path class="st15" d="M633.5 438H692v9.7h-58.5z"/><path class="st8" d="M633.5 449.8H692v9.7h-58.5z"/><path class="st16" d="M633.5 461.8H692v9.7h-58.5z"/><path class="st12" d="M658.9 473.8h33v8.6h-33z"/></g></g><g><ellipse class="st18" cx="794.2" cy="720.1" rx="127.5" ry="19.1"/><path class="st19" d="m833 292.1-32.1 3.2v-33.9l16-4.6 7.6 16.7z"/><path class="st18" d="m801.7 281.3 19.5-14.2-2.9-6.5-16.5 2.4z"/><path class="st19" d="m748.6 687-7.3 26.1 25.2-2.7-2.3-25.7z"/><path class="st20" d="M738 701.2s9.6-1.9 14.5 4.1c0 0 5.3 5.5 14 1.8 0 0 7.3 13.9 2.3 19.1h-60.1s-9.6-13.6 18.8-13.1l11.3-6-.8-5.9z"/><path class="st19" d="m856.8 681 4.6 32.1s15.6 3.2 16.1 0c.5-3.2 0-28.4 0-28.4l-20.7-3.7z"/><path class="st20" d="M861 710.2s6.7-6.2 16.6 0 7.2 19.5 7.2 19.5h-32.6c0-.1.6-16.8 8.8-19.5z"/><path class="st21" d="m882 691.6-27.5 2.8s-7.3-29.8-9.2-40.8c-1.8-11-21.1-78.4-21.1-78.4L816 521l-1.9 3.4-2.7 4.8s-10.5 37.6-9.6 46.8c.9 9.2-14.2 55.5-14.2 55.5l-17 62.8h-29.4l14.2-100 12.4-110.8h97.7c7.8 13.1-.9 76.4-.5 79.1.5 2.8 11.5 57.3 11.5 57.3l5.5 71.7z"/><path class="st19" d="M685.8 295.8s9.6-8 6-21.7c-3.7-13.7-2.6-24.9-2.6-24.9s-1.1-8.8-5.7-3.5v20.2s-3.7-4.2-11 1.2-5.5 15-5.5 15-.5 8.3 2.8 10c3.2 1.7 6.4 8.1 6.4 8.1l9.6-4.4z"/><path class="st13" d="m801.2 280.6 4.2 5.3c1.8 2.2 4.8 3 7.5 2l16.3-6.4-25.1 107.9-23.8 2.3-2.3-91.5 22.5-19.6c.2-.2.5-.2.7 0z"/><path class="st6" d="M806.5 286.9s-11.4 23.1-12.3 32.3c-.9 9.2-10.3 55.5-10.3 55.5v30.7h20.6l-1.3-54.2 3.9-45.4 5.5-17.7-6.1-1.2z"/><path class="st13" d="m679.3 309.1-4.5-11.9 15.1-6 6.9 15.1z"/><path class="st17" d="M916.4 367.3c-8.4-13.6-39.9-56.7-47.8-67.3-1.2-1.6-2.7-3-4.5-3.9-6.4-3.5-22.8-12-35.4-14.7-.3-.1-.6-.1-.8-.2-.3-.1-.7-.1-1-.2 0 0-13.8 26.2-17.8 44.6-4 18.3-8.3 51.8-8.3 51.8l-5.9 20.6-.9 3.2-8.2-60.5s0-37.6 15.1-60.5c0 0-13.3 1.3-27 14.1-13.8 12.8-56 44.1-56 44.1l-21.1-39.9-22 8.7 22 56.4s11 17.4 32.1 5.5l37.2-17.9-1.4 139 103.2-1.9s-1.6-32.3-8-47.9l38.7-30.5 16.1-13.8c-.1.1 11.4-13.2 1.7-28.8zm-41.7 26.2-16.4 16.9c.1-10.8.5-22 1.7-27.9 2.8-13.8 7.8-22 7.8-22l9.6 18.3c.1 0 2.4 4.1-2.7 14.7z"/><path class="st22" d="m836.6 300.2-14.9 26s-4.8-5-4.8 18.8l-12.4 52.7-7 21.1-2.6-20.7 5.9-20.6s4.3-33.5 8.3-51.8c4-18.3 17.8-44.6 17.8-44.6.3.1.7.1 1 .2l8.7 18.9zM781.9 292.5l-3.5 28.7s10.1-1.1-1.6 19.4l9.4 47.7 5.1 30.4 2.7-17.2-2.1-15.9s-9.6-42.6-4-60.3c5.6-17.7 11.7-44.5 11.7-44.5-.3-.1-.6-.2-1-.3l-16.7 12z"/><path class="st19" d="M845.9 431.3s-3.2-6.1-9.6 2.2c-6.4 8.3 0 24.8 0 24.8s10.5 7.7 17.6 2.8c4.8-3.4 8.9-8.2 2.3-14.6-6.9-6.7-5.4-6.1-5.4-6.1l-4.9-9.1z"/><path class="st13" d="m849.1 421.6-6.3 7 9.3 14.3 6.5-4.2z"/><ellipse transform="rotate(-71.856 807.177 243.945)" class="st19" cx="807.2" cy="244" rx="24.1" ry="20.4"/><ellipse transform="rotate(-71.856 825.834 250.059)" cx="825.8" cy="250.1" rx="6.5" ry="5.5" style="fill:none;stroke:#676768;stroke-miterlimit:10"/><path class="st24" d="M787.8 238.6s-5.7-17 2.1-23c7.8-6 17.3-6 17.3-6s9.3 6 14.3 5.5 14.7-3.2 17.4 6.4c2.8 9.6-.6 26.7-7.9 31.2 0 0 .7 10.7-5.2 14.8s-7.5-3.9-7.5-3.9l3.7-16.8s-2.7-17-9.2-16.1c-6.5.9-3.2-5.5-3.2-5.5s-10.2 4.2-16 3.3c-3.7-.5-5.8 10.1-5.8 10.1z"/><ellipse transform="rotate(-71.856 821.735 246.576)" class="st19" cx="821.7" cy="246.6" rx="6.2" ry="4.6"/><path class="st21" d="M794.9 398c.6 7.6 1.1 15.3 1.4 22.9.4 7.6.6 15.3.9 22.9.2 7.6.4 15.3.4 22.9.1 7.6 0 15.3-.1 22.9-.6-7.6-1.1-15.3-1.4-22.9-.4-7.6-.6-15.3-.9-22.9-.2-7.6-.4-15.3-.4-22.9-.1-7.6 0-15.2.1-22.9z"/><g><path class="st21" d="M855.8 337.4c1.3 1.7 2.5 3.5 3.6 5.4 1.1 1.8 2.1 3.7 3.1 5.6 1 1.9 1.9 3.8 2.7 5.8.8 2 1.6 4 2.2 6.1-1.4-1.7-2.5-3.5-3.6-5.4-1.1-1.8-2.1-3.7-3.1-5.6-1-1.9-1.9-3.8-2.7-5.8-.8-2-1.6-4.1-2.2-6.1z"/></g><path d="m815.8 513.2-1.7 11.2-2.7 4.8s-10.5 37.6-9.6 46.8c.9 9.2-14.2 55.5-14.2 55.5l-17 62.8H767l3.5-23.4 15.2-67.2 13.8-66.3 16.3-24.2z" style="opacity:.19;fill:#032644"/></g><g><path class="st12" d="m469.3 490.8-167.1-.9c-7.1 0-12.6-6.3-11.8-13.4l15.7-125.3c.9-7.3 7.1-12.8 14.5-12.8h168.6c5.7 0 10.2 5 9.4 10.7l-16.2 130.1c-.8 6.7-6.4 11.6-13.1 11.6z"/><path class="st12" d="M419.3 515.9h-44.7l-7.6-25.6h41.3z"/><defs><path id="SVGID_1_" d="m460.9 482.9-151.3-.8c-6.5 0-11.4-5.7-10.6-12.1l14.2-113.4c.8-6.6 6.5-11.6 13.1-11.6h152.6c5.2 0 9.2 4.5 8.6 9.7l-14.7 117.8c-.8 6-5.9 10.5-11.9 10.4z"/></defs><clipPath id="SVGID_2_"><use xlink:href="#SVGID_1_" style="overflow:visible"/></clipPath><path d="m460.2 483.6-151.3-.8c-6.5 0-11.4-5.7-10.6-12.1l14.2-113.4c.8-6.6 6.5-11.6 13.1-11.6h152.6c5.2 0 9.2 4.5 8.6 9.7l-14.7 117.8c-.7 5.9-5.8 10.4-11.9 10.4z" style="clip-path:url(#SVGID_2_);fill:#f4fef6"/><path style="clip-path:url(#SVGID_2_);fill:#fca819" d="M308.6 349.7h92.8v34.7h-92.8z"/><path class="st28" d="M298.2 426.2h47v19.7h-47zM358.4 425.7h47v19.7h-47zM421.6 426.2h47v19.7h-47z"/><path class="st29" d="M303.2 392.4h53.5v15.2h-53.5zM362.7 392.4h53.5v15.2h-53.5z"/><path style="clip-path:url(#SVGID_2_);fill:#59c8d1" d="M289 414.6h193.1v6.9H289z"/><path class="st29" d="M420.5 392.4H474v15.2h-53.5z"/><g class="st31"><path class="st16" d="M420.4 354.7h58.4v5h-58.4z"/><path class="st17" d="M420.4 362.1h58.4v5h-58.4z"/><path class="st7" d="M420.4 369.3h58.4v5h-58.4z"/><path class="st12" d="M420.4 376.8h58.4v5h-58.4z"/></g><g class="st31"><path class="st16" d="M291.7 450.6h58.4v5h-58.4z"/><path class="st17" d="M291.7 458h58.4v5h-58.4z"/><path class="st7" d="M291.7 465.2h58.4v5h-58.4z"/><path class="st12" d="M291.7 472.7h58.4v5h-58.4z"/></g><g class="st31"><path class="st16" d="M356.6 450.6H415v5h-58.4z"/><path class="st17" d="M356.6 458H415v5h-58.4z"/><path class="st7" d="M356.6 465.2H415v5h-58.4z"/><path class="st12" d="M356.6 472.7H415v5h-58.4z"/></g><g class="st31"><path class="st16" d="M420.7 450.6h58.4v5h-58.4z"/><path class="st17" d="M420.7 458h58.4v5h-58.4z"/><path class="st7" d="M420.7 465.2h58.4v5h-58.4z"/><path class="st12" d="M420.7 472.7h58.4v5h-58.4z"/></g><g><path class="st12" d="M218.5 515.9h336.4v17.9H218.5z"/><path transform="rotate(-8.482 491.085 649.315)" class="st12" d="M486.9 531.8h8.1v234.7h-8.1z"/><path transform="scale(-1) rotate(8.482 8754.084 -3489.863)" class="st12" d="M254.8 531.8h8.1v234.7h-8.1z"/></g></g><g><ellipse class="st18" cx="165.5" cy="757.8" rx="108.3" ry="22.3"/><path class="st32" d="m138 435.4-6.2-26.1 10.3-9 6.5-5.7 10.1-2.2s-4.1 8.8-2.8 19.7c.4 3.3 1.2 6.8 2.8 10.2 6.8 15.2-20.7 13.1-20.7 13.1z"/><path class="st18" d="M155.8 412.1 142 400.3l6.5-5.7 10.1-2.2s-4.1 8.8-2.8 19.7z"/><path d="m189.6 462.7 10.1 23.8s14.3 8.9 22.5 10.3c8.2 1.4 0 16.8 0 16.8h-18.3s-17.9-2.4-22.5-16.8c-4.6-14.4-7.8-29.5-7.8-29.5l6.4-11 9.6 6.4z" style="fill:#db8f77"/><path class="st32" d="m326.7 713.8 6 25.5 22-3.7-7.3-26.1z"/><path class="st34" d="M331.5 726.2s17.2 12.7 24.4 9.8c0 0-.4 6.6 4.1 9.3 4.5 2.7 20.9 7.2 22.7 13.2 1.1 3.6-11.2 5.3-16.9 5.9-1.8.2-3.7 0-5.4-.7-3.5-1.3-10.2-4.1-18.4-8.7-9.9-5.6-6.9-1.1-6.9-1.1l2.9 11.6-4.4 3-5.3-20.9c.1 0-5.3-13.8 3.2-21.4z"/><path d="m357.5 720.5-21.2 2.1-10.5 1.1-21.6-41.3s-28.4-43.1-36.2-49.5c-2.8-2.3-3.2-9.6-2.6-18 1.1-14.9 5.4-33.4 5.4-33.4s19.7-6.4 28.4 9.2 39 86.2 39 86.2l19.3 43.6z" style="fill:#d84459"/><path class="st36" d="m336.3 722.6-10.5 1.1-21.6-41.3s-28.4-43.1-36.2-49.5c-2.8-2.3-3.2-9.6-2.6-18l70.9 107.7z"/><path class="st32" d="m181.3 696.2-16.1 20.6s10.5 14.7 19.3 14.7l17.9-19.7-21.1-15.6z"/><path class="st34" d="M165.3 713.8s13.6 16.5 21.2 15.5c0 0-2 6.3 1.7 10s18.5 12 18.8 18.3c.2 4.8-20.5 1.2-20.5 1.2s-7.9-4.9-18-14.5c-8.2-7.8-6.4-2.8-6.4-2.8v11.9l-5 1.8v-21.6c-.1.2-1.9-14.5 8.2-19.8z"/><path class="st6" d="m283.1 633.8-42.6 45.9-43.1 44-19.4-17.9-4.5-4.2L234 620l-113.7 2.3c-40.3-6.9-29.8-61.5-29.8-61.5 1.1.2 2.1.4 3.2.5 40.6 6 69.8-19.3 69.8-19.3l126.1 40.3c26.1 27.6-6.5 51.5-6.5 51.5z"/><path class="st36" d="m249 615-71 90.8-4.5-4.2L234 620l-113.7 2.3c-40.3-6.9-29.8-61.5-29.8-61.5 1.1.2 2.1.4 3.2.5 0 10.1.6 32.9 6.5 38 0 0 6.9 14.9 20.4 17.4C134.1 619.3 249 615 249 615z"/><path d="m189.6 462.7-12.2 3.5-3.9 1.1s4.2 60.1-8.9 78.4v9.2s-2.9 2.3-7.8 5.3c-14 8.6-44.4 22.7-68.2 3 0 0-13.8-20.2 16-35.3 0 0 9.6-35.8 4.6-46.3 0 0-2.3-20.2 3.2-39s26.6-22 26.6-22l6.4 8c.1.2.3.4.5.5 4 4.2 11.2 1.3 11.5-4.5l.3-5.8c.1-.1 36.8 23.7 31.9 43.9z" style="fill:#8c1ef0"/><path d="M173.5 467.3s4.2 60.1-8.9 78.4v9.2s-2.9 2.3-7.8 5.3c0 0-6.3-11.7 2.8-18.1s9.4-70.4 9.4-70.4V451l8.3 15.2-3.8 1.1z" style="opacity:.1"/><path class="st32" d="m138.9 475.6 30.9-14.2 13.8 27.5s8.7 8.6 16.5 8c7.8-.6 50.9 3 50.9 3s14.7-14.7 27.5-7.3 13.8 19.7 13.8 19.7l-39.4 2.8s-36.7 7.8-55 4.6c0 0-22 2.3-29.4-4.6-7.4-7-29.6-39.5-29.6-39.5z"/><ellipse transform="rotate(-83.218 163.423 370.55)" class="st32" cx="163.4" cy="370.5" rx="30.3" ry="22.5"/><path class="st24" d="M184.7 348.8s11.7 13.3-25.5 21.8c0 0-10.5 7.2-10.8 24-.2 16.8 5.3 22.3-9.2 31.2-14.4 8.9-22 8.3-22.7 23.4 0 0-19.9 11-11.7-21.3 0 0 12.8-10.9 9.4-26.8-3.4-15.9 8.6-15.3 8.6-15.3s4-16.5-.3-30.3c0 0 1.8-20.8 25.4-21.7 23.6-.9 36.8 15 36.8 15z"/></g><path class="st18" d="m104.7 527.8 29.8 6-40.5 1.1zM126.7 472.9l23.7 19-25.2-31.7z"/></svg>