<svg version="1.1" id="Layer_1" xmlns="http://www.w3.org/2000/svg" xmlns:xlink="http://www.w3.org/1999/xlink" x="0" y="0" viewBox="0 0 1000 691.4" style="enable-background:new 0 0 1000 691.4" xml:space="preserve"><style>.st3{fill:#fcb4b5}.st3,.st5{clip-path:url(#SVGID_2_)}.st6{fill:#ff969f}.st7{fill:#fff}.st8{opacity:.5}.st9{fill:#ffb454}.st10{clip-path:url(#SVGID_2_);fill:#723e29}.st11{fill:#f9c5c5}.st12{fill:#353a3e}.st15{fill:#383b40}.st17{fill:#506da7}.st19{fill:#df5759}.st20{fill:#fcb4b5}.st22{fill:#353a40}.st23{fill:#f45656}.st24{fill:#ffde17}.st25{fill:#e5a5a9}.st27{fill:none;stroke:#ffde17;stroke-width:2;stroke-linecap:round;stroke-miterlimit:10}.st30{fill:#ba6563}.st33,.st36{fill:#2e3839}.st36{clip-path:url(#SVGID_2_)}</style><path d="M69.8 235.8S-8.9 25.2 262.3 6.1c0 0 110-31.9 294.4 50.6C570 62.6 595.5 83 757.5 83s219.6 67.3 206.8 239.9c0 0-28.7 89.1 0 145.9 28.7 56.8 16.2 194.3-65.1 203.7-71.4 8.3-557.3 15.1-675.1 16.6-19.5.3-38.9-2.8-57.3-9.1C113 661.6 10.1 614.8 15.7 528c7.5-117.3 93.1-188.4 54.1-292.2z" style="fill:#cfb5f6"/><defs><path id="SVGID_1_" d="M244.8 672.1c-69.2 1.3-134.6-32.8-171.9-91-26.1-40.6-40-95.2-15.3-164.9 27.5-77.7 55.9-143.1 34.7-220.1-19.5-70.5 24.1-141.5 110.1-165.3 75.2-20.8 222-27.5 308.1 17.8 31 16.3 43.8 30.3 84.4 41.6 53.1 14.8 123.9 1.5 189 5 159.3 8.7 177.6 164.6 151.3 268.7C912.9 452.3 1000 555 912 636.4c-48 44.5-501.9 32.7-667.2 35.7z"/></defs><clipPath id="SVGID_2_"><use xlink:href="#SVGID_1_" style="overflow:visible"/></clipPath><path style="clip-path:url(#SVGID_2_);fill:#cfb5f6" d="M0 2.2h1000v689.2H0z"/><path style="clip-path:url(#SVGID_2_);fill:#e3d4f9" d="M0 40.2h1000v614.5H0z"/><path class="st3" d="M802.8 483.4 786 512.1l1.3 28.7s21.4-6.6 24.1-19.9L826 494l-23.2-10.6zM837.6 404.7c0 2.4 7.8 11.1 4.6 27.6 0 0 28-3.6 33-8.9L856.4 392l-18.8 12.7z"/><path d="M841.2 423.4s-23.7 14.7-29.8 25.6c-6 10.9-13.8 33.2-13.8 33.2l28.4 11.7 11.5 64.5s5.5 5.3 32.1 2.9 65.6-23.8 65.6-23.8l-12.8-82s-12.4-40.2-27.5-43.4c0 0-21.1-3.2-27.8 5.1 0 0-2.9 6.4-25.9 6.2z" style="clip-path:url(#SVGID_2_);fill:#f45656"/><path class="st3" d="M811.8 537.5s-15.4 2.5-18.8 11.8c-3.4 9.3-1.8 11.9-1.8 11.9h37.4l-16.8-23.7z"/><g class="st5"><path class="st6" d="M700.2 339.2H555.1l.1-1.1 22.1-219.2H719l-.1 1.1-18.7 219.2zm-142.9-2h141.1l18.4-216.3H579.1l-21.8 216.3z"/><path class="st7" d="M692.6 331.9H547.5l22.2-199.4h141.6l-.1 1.1-18.6 198.3zm-142.8-2h141.1l18.4-195.4H571.6l-21.8 195.4z"/><path class="st7" d="M563.8 125.5h143.1s-21.3 198.6-23.4 197.9c-2.1-.7-145.1 0-145.1 0l25.4-197.9z"/><path class="st7" d="m730.8 257.5-1-.3c6.2-20.9-2.7-38.7-2.8-38.8-18.8-39.6 1.7-90.6 2.7-93 .6-9.8-1.5-17.1-6.3-21.6-6.7-6.2-16.4-4.9-16.5-4.9H569.4c-6.8 3-10.7 6.9-11.5 11.5-1.3 7.5 6.2 14.6 6.2 14.7l-.7.7c-.3-.3-7.9-7.5-6.5-15.6.8-5 4.9-9.1 12.2-12.3H706.9c.3-.1 10.2-1.4 17.3 5.2 5.1 4.7 7.3 12.3 6.6 22.4v.2c-.2.5-21.7 52.3-2.8 92.2 0 .2 9.1 18.3 2.8 39.6z"/><path class="st7" d="M701 125.9c-.3-.2-6.7-6-6.6-13.4.1-4.3 2.3-8.2 6.6-11.7l.6.8c-4.1 3.3-6.2 6.9-6.2 10.9-.1 7 6.2 12.6 6.2 12.7l-.6.7z"/><path transform="rotate(-80.27 565.942 389.46)" class="st6" d="M515 388.5h101.9v2H515z"/><path transform="rotate(-10.662 692.084 389.39)" class="st6" d="M691.2 338.4h2v102.2h-2z"/><path transform="rotate(-14.117 733.013 323.627)" class="st6" d="M731.9 227.5h2v192.3h-2z"/><g class="st8"><path class="st9" d="M656 155.2h-.2c-.5-.1-.9-.6-.8-1.2l3.2-17.4h-52.1v17.6c0 .6-.4 1-1 1s-1-.4-1-1v-19.6h56.5l-3.7 19.8c-.1.5-.5.8-.9.8z"/></g><path class="st6" d="M627.7 173.5c-7.7-2.3-12.7-6.2-15-11.6-3.5-8.4 1-17.1 1.1-17.5l1.8.9c0 .1-4.2 8.3-1.1 15.8 2 4.8 6.7 8.3 13.7 10.4l-.5 2zM642.6 251.8l-.4-2c21.7-4.7 25.2-27.1 25.2-27.3 6.8-28.8-25-41.9-25.4-42l.7-1.9c.3.1 33.7 13.8 26.6 44.3 0 .2-3.7 23.9-26.7 28.9zM606.8 286.7c-1.3-9.5.4-17.3 5.1-23.2 7.5-9.3 19.7-10.3 20.2-10.3l.1 2c-.1 0-11.9 1-18.9 9.6-4.4 5.4-5.9 12.7-4.7 21.6l-1.8.3z"/><g class="st8"><path class="st9" d="M621.5 240.5c-12 0-21.8-11-21.8-24.5s9.8-24.5 21.8-24.5 21.8 11 21.8 24.5c.1 13.5-9.7 24.5-21.8 24.5zm0-47.1c-10.9 0-19.8 10.1-19.8 22.5s8.9 22.5 19.8 22.5 19.8-10.1 19.8-22.5-8.8-22.5-19.8-22.5z"/></g><g class="st8"><path class="st9" d="M638 315.1h-53l1.6-22.5c0-.6.5-1 1.1-.9.6 0 1 .5.9 1.1l-1.5 20.3H636l1.3-18.6c0-.6.5-1 1.1-.9.6 0 1 .5.9 1.1l-1.3 20.4z"/></g><path class="st6" d="M579.1 185.7c-.1 0-.2 0-.3-.1-.5-.2-.8-.8-.6-1.3.6-1.5.9-2.4.9-2.4.2-.5.8-.7 1.3-.5.5.2.7.8.5 1.3 0 0-.3.8-.9 2.3-.1.4-.5.7-.9.7zM620.6 272.4h-.2c-1.6-.4-3.3-.9-4.9-1.4-.5-.2-.8-.7-.6-1.3.2-.5.7-.8 1.3-.6 1.6.5 3.2 1 4.8 1.4.5.1.9.7.7 1.2-.3.4-.7.7-1.1.7zm-9.6-3.2c-.1 0-.3 0-.4-.1-1.6-.7-3.1-1.4-4.6-2.2-.5-.3-.7-.9-.4-1.3.3-.5.9-.7 1.3-.4 1.5.8 3 1.5 4.5 2.1.5.2.7.8.5 1.3-.1.4-.5.6-.9.6zm-9-4.6c-.2 0-.4 0-.5-.1-1.5-.9-2.9-1.8-4.3-2.8-.4-.3-.5-.9-.2-1.4.3-.4.9-.5 1.4-.2 1.3 1 2.7 1.9 4.1 2.8.5.3.6.9.3 1.4-.1.2-.4.3-.8.3zm-8.1-5.9c-.2 0-.5-.1-.6-.2-1.3-1.1-2.6-2.3-3.8-3.5-.4-.4-.4-1 0-1.4.4-.4 1-.4 1.4 0 1.1 1.1 2.4 2.3 3.6 3.4.4.4.5 1 .1 1.4-.1.2-.4.3-.7.3zm-7.1-7.1c-.3 0-.5-.1-.7-.3-.8-.9-1.7-1.8-2.7-2.8l-.8-.8c-.4-.4-.4-1 0-1.4.4-.4 1-.4 1.4 0 .2.3.5.5.7.8 1 1 1.9 2 2.8 2.9.4.4.3 1-.1 1.4-.1.1-.4.2-.6.2zm-6.7-7.6c-.3 0-.6-.2-.8-.4-1-1.4-1.9-2.9-2.6-4.5-.2-.5 0-1.1.4-1.3.5-.2 1.1 0 1.3.4.7 1.5 1.6 2.9 2.5 4.2.3.5.2 1.1-.3 1.4-.1.2-.3.2-.5.2zm-4.5-8.9c-.4 0-.8-.3-.9-.7-.5-1.6-1-3.2-1.4-5-.1-.5.2-1.1.8-1.2.5-.1 1.1.2 1.2.8.4 1.6.8 3.2 1.3 4.7.2.5-.1 1.1-.6 1.3-.1 0-.3.1-.4.1zm-2.2-9.9c-.5 0-.9-.4-1-.9-.2-1.6-.3-3.4-.4-5.1 0-.6.4-1 1-1 .5 0 1 .4 1 1 .1 1.7.2 3.3.4 4.9.1.5-.3 1-.9 1.1h-.1zm-.4-10c-.6 0-1-.5-1-1 .1-1.7.2-3.4.4-5.1.1-.5.5-.9 1.1-.9.5.1 1 .5.9 1.1-.2 1.7-.3 3.3-.3 5-.1.5-.5.9-1.1.9zm1-10h-.2c-.5-.1-.9-.6-.8-1.1.3-1.6.6-3.3.9-5 .1-.5.6-.9 1.2-.8s.9.6.8 1.2c-.3 1.7-.7 3.3-.9 4.9-.1.4-.5.8-1 .8zm2.1-9.9h-.3c-.5-.1-.9-.7-.7-1.2.4-1.6.9-3.3 1.4-4.9.2-.5.7-.8 1.3-.7.5.2.8.7.7 1.3-.5 1.6-.9 3.2-1.4 4.8-.2.4-.6.7-1 .7zM628 273.8h-.1c-.8-.1-1.7-.3-2.5-.4-.5-.1-.9-.6-.8-1.2.1-.5.6-.9 1.2-.8.8.1 1.6.3 2.4.4.5.1.9.6.9 1.1-.2.6-.6.9-1.1.9z"/><g class="st8"><path class="st9" d="M694.4 219.2H557.3c-.6 0-1-.4-1-1s.4-1 1-1h137.1c.6 0 1 .4 1 1s-.4 1-1 1z"/></g><path class="st6" d="M643.9 275.8c-.2 0-.5-.1-.7-.3l-4.5-4.1c-.4-.4-.4-1-.1-1.4.4-.4 1-.4 1.4-.1l4.5 4.1c.4.4.4 1 .1 1.4-.2.2-.4.4-.7.4z"/><path class="st6" d="M639.4 275.8c-.3 0-.6-.1-.8-.3-.4-.4-.3-1 .1-1.4l4.7-4.1c.4-.4 1-.3 1.4.1.4.4.3 1-.1 1.4l-4.7 4.1c-.2.1-.4.2-.6.2zM614.4 296.4c-.2 0-.5-.1-.7-.3l-4.5-4.1c-.4-.4-.4-1-.1-1.4.4-.4 1-.4 1.4-.1l4.5 4.1c.4.4.4 1 .1 1.4-.2.3-.4.4-.7.4z"/><path class="st6" d="M609.9 296.4c-.3 0-.6-.1-.8-.3-.4-.4-.3-1 .1-1.4l4.7-4.1c.4-.4 1-.3 1.4.1.4.4.3 1-.1 1.4l-4.7 4.1c-.2.1-.4.2-.6.2z"/><g><path class="st6" d="M640.2 255.3c-.2 0-.5-.1-.7-.3l-4.5-4c-.4-.4-.4-1-.1-1.4.4-.4 1-.4 1.4-.1l4.5 4.1c.4.4.4 1 .1 1.4-.2.2-.4.3-.7.3z"/><path class="st6" d="M635.7 255.3c-.3 0-.6-.1-.8-.3-.4-.4-.3-1 .1-1.4l4.7-4.1c.4-.4 1-.3 1.4.1.4.4.3 1-.1 1.4l-4.7 4.1c-.1.2-.4.2-.6.2z"/></g><g><path class="st6" d="M637.8 178.7c-.2 0-.5-.1-.7-.3l-4.5-4.1c-.4-.4-.4-1-.1-1.4.4-.4 1-.4 1.4-.1l4.5 4.1c.4.4.4 1 .1 1.4-.2.3-.4.4-.7.4z"/><path class="st6" d="M633.3 178.7c-.3 0-.6-.1-.8-.3-.4-.4-.3-1 .1-1.4l4.7-4.1c.4-.4 1-.3 1.4.1.4.4.3 1-.1 1.4l-4.7 4.1c-.1.1-.4.2-.6.2z"/></g><g><path class="st6" d="M585 178.7c-.2 0-.5-.1-.7-.3l-4.5-4.1c-.4-.4-.4-1-.1-1.4.4-.4 1-.4 1.4-.1l4.5 4.1c.4.4.4 1 .1 1.4-.1.3-.4.4-.7.4z"/><path class="st6" d="M580.5 178.7c-.3 0-.6-.1-.8-.3-.4-.4-.3-1 .1-1.4l4.7-4.1c.4-.4 1-.3 1.4.1.4.4.3 1-.1 1.4l-4.7 4.1c-.1.1-.3.2-.6.2z"/></g><g><path class="st9" d="M631.6 161.3c-.2 0-.5-.1-.7-.3l-4.5-4.1c-.4-.4-.4-1-.1-1.4.4-.4 1-.4 1.4-.1l4.5 4.1c.4.4.4 1 .1 1.4-.1.2-.4.4-.7.4z"/><path class="st9" d="M627.1 161.3c-.3 0-.6-.1-.8-.3-.4-.4-.3-1 .1-1.4l4.7-4.1c.4-.4 1-.3 1.4.1.4.4.3 1-.1 1.4l-4.7 4.1c-.1.1-.3.2-.6.2z"/></g></g><path class="st10" d="M66.7 561.3h868.6v30.1H66.7z"/><g class="st5"><path class="st11" d="M405.1 443.8v9.2s7.3 2.8 12.8 0l-1.2-9.2h-11.6z"/><path class="st12" d="M404.2 449.9s-3.4 7.8 0 9.8c3.4 2 25.2 2 25.2 2s5.5-2.1 1.8-5.2-13.3-7.5-13.3-7.5-4.6-1.5-5.7 1.8c.1 0-3.3 2.6-8-.9z"/><path class="st11" d="M459.9 439.7v9.2s7.3 2.8 12.8 0l-1.2-9.2h-11.6z"/><path class="st12" d="M458.9 445.8s-3.4 7.8 0 9.8c3.4 2 25.2 2 25.2 2s5.5-2.1 1.8-5.2-13.3-7.5-13.3-7.5-4.6-1.5-5.7 1.8c.1 0-3.2 2.6-8-.9z"/><path d="M405.4 259.4 403 445.9h16.2l21.4-170.3s4.4-4 4.3 5.5l9.1 52s3.7 12.2 2.1 31.2.4 79.8.4 79.8l17.7-.6 5.5-70s4.6-28.1 2.4-37.9c-2.1-9.8-6.1-90.3-6.1-90.3h-73l2.4 14.1z" style="fill:#486593"/><path class="st11" d="m435.5 125.5-3.7 26.3s23.8 12.8 28.1 2.8c1.5-3.7-2.4-25.3-2.4-25.3l-22-3.8z"/><path d="M433 143s5.4 10.3 13 9.4c7.6-.9 13.4-7.4 13.4-7.4l8.7 5.9 3.2 97.6-54-.8L421 211l9.8-69 2.2 1z" style="fill:#fefffb"/><ellipse transform="rotate(-7.221 448.03 115.758)" class="st11" cx="448.2" cy="115.8" rx="14.9" ry="22"/><path class="st15" d="M436.3 119.9s-.3-8.4 0-14 6.1-4.6 8.3-2.1c2.1 2.4 9 1.8 10.1-2 0 0 12.2 2.9 11.6-3.5-.6-6.4-6.1-5.8-6.1-5.8s9.8-8.9 1.5-11c-8.3-2.1-10.4 3.1-10.4 3.1l-1.5 3.1s-.3-11.9-11.6-4.3-4.3 12.8-4.3 12.8-11.9-9.5-12.5 2.4c-.6 11.9 6.1 17.2 6.1 17.2s.3 11.8 2.5 12.7c2.1.9 7.4.6 7.4.6l-1.1-9.2zM409.4 240.7v6.7l71 2.1s.6-7-1.3-7.3c-1.8-.2-69.7-1.5-69.7-1.5zM446 152.4l-6 9s.6 4.1 5 4.4l-6.2 57.2 8.1 16.5 7.5-16.1-4.9-58.1s5.4-1.7 2.4-6.1l-5.9-6.8z"/><path class="st11" d="m574.6 191.1 5.5-3.4 2.1-6.4s3-.7 2.5 1.8-1.1 3.6 1.4 3.1 7.6-5.3 9.4-5c1.8.3 6.9 3.1 4.8 6.7-2.1 3.7-7.3 7.6-12.6 6.9l-8.3 5-4.8-8.7z"/><path d="m433 143-3.1 18.5 8.8 3.9 7.2-12.8 10 11 4.2-6.8-.9-11.6s-11.4 10.3-16.5 7.2c-5-3.2-9.3-6.8-9.7-9.4z" style="fill:#f1f2f2"/><ellipse transform="rotate(-17.768 432.713 119.894)" class="st11" cx="432.8" cy="119.9" rx="4.4" ry="7.1"/><path class="st17" d="M431.8 143.8s-27.3-1.8-31.9 0c-4.6 1.8-32.7 21.1-32.7 21.1l-27.7 26.4c-4.4 4.2-6.1 10.5-4.2 16.2 1.2 3.5 3.8 6.8 8.9 8.5 13.8 4.6 56.3 10.1 56.3 10.1l1.5-12.2-31.5-13.8 26.3-12.2-.6 80.4h22.6l13-124.5zM459.5 143l6.8 125.2h22.3l1.8-71.2 30 22.9s7 9.2 21.4 3.1c14.4-6.1 40.4-22.3 40.4-22.3l-6.4-13.1-40.1 14.4-38.3-45s-7.6-13.5-22.6-12.5l-15.3-1.5z"/><ellipse cx="446.5" cy="244.5" rx="7.3" ry="4.1" style="fill:#d1d3d4"/><path class="st7" d="M360.2 281c-.5 0-.9-.4-1-.9-.1-.5.4-1 .9-1.1 8.7-.8 10.2-4.9 10.2-5 .2-.5.7-.8 1.3-.6.5.2.8.7.7 1.2-.2.3-1.9 5.5-12.1 6.4zM363.2 283.9c-.5 0-.9-.4-1-.9-.1-.5.4-1 .9-1.1 8.7-.8 10.2-4.9 10.2-5 .2-.5.7-.8 1.3-.6.5.2.8.7.7 1.2-.2.2-1.8 5.4-12.1 6.4zM368.7 286.7c-.5 0-.9-.4-1-.9-.1-.5.4-1 .9-1.1 8.7-.8 10.2-4.9 10.2-5 .2-.5.7-.8 1.3-.6.5.2.8.7.7 1.2-.1.2-1.8 5.4-12.1 6.4.1 0 .1 0 0 0zM373.3 288.7c-.5 0-.9-.4-1-.9-.1-.5.4-1 .9-1.1 8.7-.8 10.2-4.9 10.2-5 .2-.5.7-.8 1.3-.6.5.2.8.7.7 1.2-.2.2-1.9 5.4-12.1 6.4zM379.8 290.5c-.5 0-.9-.4-1-.9-.1-.5.4-1 .9-1.1 8.7-.8 10.2-4.9 10.2-5 .2-.5.7-.8 1.3-.6.5.2.8.7.7 1.2-.1.3-1.8 5.4-12.1 6.4.1 0 0 0 0 0z"/><g><path class="st7" d="M499 231.1c.2-.5.7-.8 1.2-.7.5.1.9.6.8 1.2-1.9 8.6 1.6 11.2 1.6 11.2.4.3.5.9.2 1.4-.3.4-.9.6-1.4.2-.2 0-4.6-3.2-2.4-13.3 0 .1 0 .1 0 0z"/><path class="st7" d="M495.4 232.1c.2-.5.7-.8 1.2-.7.5.1.9.6.8 1.2-1.9 8.6 1.6 11.2 1.6 11.2.4.3.5.9.2 1.4-.3.4-.9.6-1.4.2-.2 0-4.6-3.2-2.4-13.3 0 .1 0 .1 0 0zM491 233.1c.2-.5.7-.8 1.2-.7.5.1.9.6.8 1.2-1.9 8.6 1.6 11.2 1.6 11.2.4.3.5.9.2 1.4-.3.4-.9.6-1.4.2-.1 0-4.6-3.2-2.4-13.3zM485.6 233.1c.2-.5.7-.8 1.2-.7.5.1.9.6.8 1.2-1.9 8.6 1.6 11.2 1.6 11.2.4.3.5.9.2 1.4-.3.4-.9.6-1.4.2-.2 0-4.6-3.2-2.4-13.3zM481 234.2c.2-.5.7-.8 1.2-.7.5.1.9.6.8 1.2-1.9 8.6 1.6 11.2 1.6 11.2.4.3.5.9.2 1.4-.3.4-.9.6-1.4.2-.1-.1-4.5-3.3-2.4-13.3z"/></g><path class="st19" d="M458.5 135.6s20 1.5 24 26 7.9 35.5 7.9 35.5 15.6 19.3 11 34.2l-21.1 2.8s5.5-15.6-3.1-32.4c-8.6-16.8-8.9-32.1-8.9-32.1s-4-20.8-8.9-22.6l-.9-11.4zM434.4 133.5s-18.2 1.5-23.7 18.9-2.6 36.7-8.3 43.7c0 0-14.7 38.8-18 41.3s-4.6 19.6-4.6 19.6-5.8 15-11 16.2l22 10.7s9.5-9.2 9.2-24.5c-.3-15.3 8.9-29 8.9-29s12.2-23.8 12.5-31.5c.3-7.6 5.2-19 2.8-33-2.4-14.1 7.7-22 7.7-22l2.5-10.4z"/></g><g class="st5"><path class="st6" d="M343.7 378.7H102.3V112.3h241.4v266.4zm-239.4-2h237.4V114.3H104.3v262.4z"/><path class="st6" d="M182.1 115.8h2v261.9h-2zM262.9 113.3h2v264.4h-2zM120.8 131.5h44.9v2h-44.9zM120.8 138.9h44.9v2h-44.9zM120.8 146.4h44.9v2h-44.9zM204.2 131.5h44.9v2h-44.9zM204.2 138.9h44.9v2h-44.9zM204.2 146.4h44.9v2h-44.9zM280.4 131.5h44.9v2h-44.9zM280.4 138.9h44.9v2h-44.9zM280.4 146.4h44.9v2h-44.9zM170.2 258.5c-3 0-5.5-2.5-5.5-5.5s2.5-5.5 5.5-5.5 5.5 2.5 5.5 5.5-2.5 5.5-5.5 5.5zm0-9c-1.9 0-3.5 1.6-3.5 3.5s1.6 3.5 3.5 3.5 3.5-1.6 3.5-3.5-1.6-3.5-3.5-3.5z"/><g><path class="st6" d="M249.2 257.8c-3 0-5.5-2.5-5.5-5.5s2.5-5.5 5.5-5.5 5.5 2.5 5.5 5.5-2.5 5.5-5.5 5.5zm0-9c-1.9 0-3.5 1.6-3.5 3.5s1.6 3.5 3.5 3.5 3.5-1.6 3.5-3.5-1.6-3.5-3.5-3.5z"/></g><g><path class="st6" d="M329.8 258.5c-3 0-5.5-2.5-5.5-5.5s2.5-5.5 5.5-5.5 5.5 2.5 5.5 5.5-2.5 5.5-5.5 5.5zm0-9c-1.9 0-3.5 1.6-3.5 3.5s1.6 3.5 3.5 3.5 3.5-1.6 3.5-3.5-1.6-3.5-3.5-3.5z"/></g><g><path class="st6" d="M108.8 377.7h2v17.4h-2z"/></g><g><path class="st6" d="M256.4 377.7h2v17.4h-2z"/></g><g><path class="st6" d="M268.4 377.7h2v17.4h-2z"/></g><g><path class="st6" d="M341.7 377.7h2v17.4h-2z"/></g><g><path class="st6" d="M910.1 379.7h-80.9V111.3h80.9v268.4zm-78.9-2h76.9V113.3h-76.9v264.4z"/><path class="st6" d="M847.6 131.5h44.9v2h-44.9zM847.6 139.2h44.9v2h-44.9zM847.6 148.3h44.9v2h-44.9zM898.5 258.5c-2.8 0-5.1-2.3-5.1-5.1s2.3-5.1 5.1-5.1 5.1 2.3 5.1 5.1-2.3 5.1-5.1 5.1zm0-8.2c-1.7 0-3.1 1.4-3.1 3.1s1.4 3.1 3.1 3.1 3.1-1.4 3.1-3.1-1.4-3.1-3.1-3.1zM829.2 378.7h2v13.2h-2zM903.5 378.7h2v13.2h-2z"/></g></g><g class="st5"><path class="st20" d="M203.8 512.1s26.8-15.5 29.3 11c2.5 26.6 0 38.2 0 38.2h-29.3l-2.3-8.6 2.3-40.6zM173.7 403.9l-19.4 20.6s11.8 13.3 27.9 11.5l12-18.8-18.5-19.8-2 6.5z"/><ellipse transform="rotate(-13.443 196.78 397.408)" class="st20" cx="196.8" cy="397.4" rx="17.9" ry="26.9"/><path d="M190.8 396.3s4-2.2 6-9.9 13.4-7.7 13.4-7.7 8.3-.1 2.3-10.2c-6-10.1-8.3-9.2-12.8-8.3-4.6.9-8.9-6-17.5-2.8s-10.2 10.2-11.9 14.7c-1.7 4.5-10.4 3.8-8.6 17.2 0 0 4.3 3.9 5.1 10.3.8 6.4 10.3 10.7 15.4 9.7-.1.1-5.8-22.8 8.6-13z" style="fill:#333a40"/><path class="st22" d="M81.8 540.5s-6.9 32.6 16.1 39.4 61.9 6.9 85.3-12.4c0 0 56.9-23.4 28.9-53.7 0 0-38.6 36.7-50.7 37.4s-50.7 10-79.6-10.7z"/><ellipse transform="rotate(-13.443 186.255 397.408)" class="st20" cx="186.2" cy="397.4" rx="4.7" ry="7"/><path class="st20" d="M164.7 500.2s-10.4 40.4 2.2 51.2c0 0 6.1 9.8 23.6-2.6 17.4-12.4 21.6-34.9 21.6-34.9l13.6 1.7c3.9.5 7.8-1 10.1-4.2 2.1-2.9 2.5-6.9-3.9-11.3 0 0-16.5-3.2-23.4 3.7-6.9 6.9-14.2 10.5-14.2 10.5v-10.4l-29.6-3.7z"/><path class="st23" d="M157 414.9s-23.8-8.7-39 4.6c-15.1 13.3-29.4 65.1-29.4 65.1l-11 56.4s19.7 22.9 66 18.3c0 0 20-1.4 26.5-5.5 0 0-17-6-5.5-53.7l32.1 4.1 7-40.4s1.4-21.6-13.8-32.1c.1.1-26.9-.3-32.9-16.8z"/><path class="st7" d="M121.7 468.5c-.7 0-1.5-.1-2.2-.2-6.3-1.2-10.4-7.3-9.1-13.5.6-3 2.3-5.6 4.9-7.4 2.6-1.7 5.6-2.4 8.7-1.8 3 .6 5.6 2.3 7.4 4.9 1.7 2.6 2.4 5.6 1.8 8.7-1.3 5.4-6.1 9.3-11.5 9.3zm-.1-20.1c-1.7 0-3.3.5-4.8 1.5-1.9 1.3-3.2 3.2-3.6 5.5-.9 4.6 2.1 9.1 6.8 10 4.6.9 9.1-2.1 10-6.8.4-2.2 0-4.5-1.3-6.4-1.3-1.9-3.2-3.2-5.5-3.6-.5-.2-1-.2-1.6-.2z"/><path class="st7" d="M113.1 502.7c-.8 0-1.7-.1-2.5-.2-4.2-.8-7.8-3.6-10-7.8-2.2-4.1-2.9-9.1-1.9-14 1-5 3.4-9.3 7-12.3 3.6-3.1 8-4.3 12.2-3.5 4.2.8 7.8 3.6 10 7.8 2.2 4.1 2.9 9.1 1.9 14-1 5-3.4 9.3-7 12.3-3 2.4-6.4 3.7-9.7 3.7zm2.2-35.1c-2.7 0-5.4 1-7.7 3-3 2.5-5.1 6.3-6 10.6-.8 4.3-.3 8.6 1.6 12 1.8 3.4 4.6 5.6 7.9 6.2 3.3.6 6.7-.4 9.7-2.8 3-2.5 5.1-6.3 6-10.6.8-4.3.3-8.6-1.6-12-1.8-3.4-4.6-5.6-7.9-6.2-.7-.1-1.4-.2-2-.2z"/><path class="st24" d="M164.7 501.2c-.6 0-1-.5-1-1.1l2-29.8c.1-12.5 5.9-14.3 6.1-14.3.5-.1 1.1.2 1.2.7.1.5-.2 1.1-.7 1.2-.1 0-4.6 1.7-4.7 12.5l-2 29.9c.1.5-.4.9-.9.9z"/><path class="st24" d="M166.7 458.6c-.1 0-.2 0-.4-.1-.5-.2-.8-.8-.6-1.3 6.7-17.5 22.3-14.5 22.4-14.4.5.1.9.6.8 1.2-.1.5-.6.9-1.2.8-.6-.1-14-2.7-20.1 13.2-.1.3-.5.6-.9.6z"/><g><path class="st24" d="M180 440c-3.7 0-8.2-.8-13.6-2.9-6.5-2.6-10.9-6.3-12.9-11.1-2.6-6.3-.2-12.1-.1-12.3.2-.5.8-.7 1.3-.5.5.2.7.8.5 1.3 0 .1-2.2 5.3.2 10.8 1.8 4.3 5.7 7.6 11.7 10 17.7 7 24.7-1.4 25-1.7.3-.4 1-.5 1.4-.2.4.3.5 1 .2 1.4-.3.2-4.4 5.2-13.7 5.2z"/></g><path class="st20" d="m206.2 591.4.8 23.4 10.3-3.8 5.2-19.6zM173 591.9l.9 23.4 10.3-3.8 5.2-19.6z"/><path class="st22" d="M174.2 610.6s-4.4 10.9 10.7 6.4 16-16.7 7.4-14.4l-6.8 3.1c0-.1-3.4 8.4-11.3 4.9zM206.8 610.2s-5.5 8.6 5.8 10.1c0 0 14.5-1.2 16.1-4.2 0 0 7.4-7-1.2-9.1h-9.1c-.1 0-3.4 7.6-11.6 3.2z"/></g><g class="st5"><path class="st25" d="M311.1 591.4v22.4s10.8 4.5 13.2-4.3l3.1-18.1h-16.3zM346.9 591.4V614s11.5 3.6 13.3-6.5l2-16.1h-15.3z"/><path class="st22" d="M311.1 607.5s-7.8 12.2 0 13 13.8-4.9 16.3-10.5c0 0 3.2-4.4-3.1-4 0-.1-9.5 17.2-13.2 1.5zM346.9 609.9s-6.9 8.6 0 10.5c6.9 1.9 20.6-3.7 20.9-10.5 0 0-.7-4.4-7.6-2.4 0 0-9.2 11.3-13.3 2.4zM279.4 550.8s-4.1 26.5 21.1 33.3h42.2s17 1.8 27.5-9.7c0 0 14.8-9 13.6-28.6l-10.2-4.9s2.6 12.6-22.2 14.1c-24.7 1.6-72-4.2-72-4.2z"/><path class="st25" d="M311.1 404.8v18.8l32.6-1.9-2-18.8z"/><path class="st23" d="M279 419.9s57.3-14.2 96.3 3.7 36.3 70.2 36.3 70.2l-36.3 9s-3.3 1.6-3 8.5c.3 6.9 2 43.9 2 43.9s-65.5 16.2-100.8-3.5v-48.8L237 493l8.7-42.3c0-.1 6.3-26.5 33.3-30.8z"/><path class="st25" d="m406.9 495.4 2.3 40.1s-2 21.7-18.8 13.6l-16.8-8.1v-24.7l6.3 2.8-2.3-16.3 29.3-7.4zM240.6 492.4l-2.2 34.1s1.9 18.5 18.4 11.6l16.5-6.9v-21l-6.1 2.3 1.8-11-28.4-9.1z"/><path class="st7" d="M305.6 497c-3.2 0-6.5 0-9.3-.1-2.7-.1-4.4-.9-4.9-2.4-1.1-2.9 2.8-6.6 4-7.7l19.2-18.1c1.5-1.5 2.3-3.5 2.2-5.6-.3-3.4-2-6.2-5.2-8.1-4.1-2.5-9.5-2.2-13.1.8-5.5 4.6-1.4 10.7-1.3 11 .5.7.3 1.6-.4 2.1s-1.6.3-2.1-.4c-2-3-4.2-9.9 1.8-14.9 4.6-3.9 11.3-4.3 16.6-1.1 4 2.5 6.3 6.1 6.7 10.5.2 3-.9 5.9-3.1 8l-19.3 18c-2 1.7-3.4 3.9-3.2 4.4 0 0 .4.4 2.2.5 8.1.2 21.3 0 21.5 0 .8 0 1.5.7 1.5 1.5s-.7 1.5-1.5 1.5c0 0-5.9.1-12.3.1zM335.7 501.3c-1.4 0-2.9-.1-4.4-.4h-.2c-.5-.1-11.5-3.5-11-13 0-.8.8-1.4 1.6-1.4s1.5.8 1.4 1.6c-.4 6.7 7.8 9.6 8.8 9.9 5 .8 9 .1 11.8-2 3.3-2.5 3.8-6.1 3.8-6.1 0-.2.1-.3.2-.5 1.2-2.3 1.3-4.3.5-6.3-2-4.5-9.1-7.3-11.7-8-.6-.2-1.1-.8-1.1-1.4 0-.7.4-1.3 1.1-1.5 5.3-1.6 8.5-3.9 9.7-6.8 1.2-3.1-.5-6-.5-6-2.1-3.4-4.6-5.2-7.3-5.3-5.2-.3-10.1 5.4-10.1 5.5-.5.6-1.5.7-2.1.2-.6-.5-.7-1.5-.2-2.1.2-.3 5.8-7 12.6-6.6 3.7.2 7 2.5 9.7 6.7.1.2 2.5 4.1.8 8.6-1.1 3-3.7 5.4-7.7 7.2 3.4 1.5 7.9 4.2 9.7 8.3 1.2 2.7 1 5.6-.4 8.6-.2 1.1-1.2 5-5 7.8-2.8 2-6 3-10 3z"/><ellipse class="st25" cx="347.2" cy="383.1" rx="4.5" ry="6.4"/><ellipse class="st25" cx="307.6" cy="386.4" rx="4.5" ry="6.4"/><path d="M329.8 352.5s-22.1-14.5-24.9 17c-.2 2.2.3 4.4 1.3 6.4 2.1 3.8 5.4 10.9 4.4 15.7-1.4 6.9-10.1 17.9 0 18.1 10.1.2 33.1-4.3 33.1-4.3s12-4.1 0-10.1l2.2-16.4c0-.2 5.8-30.8-16.1-26.4z" style="fill:#5b3c2f"/><path class="st27" d="m373.6 461.6 1.7 41.1M383.9 458.6s-2.7 20.1-8.7 27.4M268.4 458.6l5.1 44.1M257.4 456.9s4.5 24.8 13.5 24.9"/></g><path class="st10" d="M93.3 591.4h7.9v44.9h-7.9zM904.1 591.5h7.9v44.9h-7.9z"/><g class="st5"><path style="fill:#f2776f" d="m706.9 402.9 4.5 20.7-29.6 2.9v-23.6z"/><path d="M681.8 413s-8.9-5.5-11.5-14.2c-2.5-8.7-.6-10-2.4-13.5-1.8-3.5 7.3-16.9 17.4-11.7 0 0 1.8 1.4 12.2-1.2s11.8 11.4 11 14.5 6.5 15.3 2.9 17.8c0 0-8.8 14.3-29.6 8.3z" style="fill:#59322e"/><path class="st30" d="M791.5 483.7s11.7 13.5 6.9 43.5c-4.8 30-6.9 41.2-6.9 41.2l17.2 10.2s10.3 12.9-8.6 12.9l-20.4-9.7c-4.2-2-6.8-6.2-6.8-10.8v-11.1l3.4-36.8-13.1-20.4 28.3-19zM578.1 591.4l-2.4 19.9 7.1 2.4 13.1-22.3zM644.5 591.4l6.1 22.3s7.9 5.2 9.5 0l1.2-22.3h-16.8zM624.9 512.6s-1.2-11.7 13.5-17.2l8.3-1.5v12.7l-21.8 6z"/><path class="st30" d="M626.7 506.2s-32.1-1.7-37.6 26.7-7.1 28.4-7.1 28.4h32.6l.7-16.6 11.4-38.5zM624.5 409.6l-6.4-6.6 47.4-13.5s40.4 12.4 29.9-10.7c0 0-16.8-7.3-28.5 0h-48.8s-41.4-1.3-29 30.9l19.5 24.3 15.9-24.4z"/><path d="m649.1 507.2-11.1-3s-28 7.6-26.7 40c0 0 16.7 18.1 32 24.2 0 0 27.3 18.5 59.3 16 34-2.6 40.7-10.1 42.7-23.1V555h-89.2l-7-47.8z" style="fill:#3d383c"/><path class="st23" d="M680.3 421.7c-1.2.3-13.8 1.2-19 6.4l-37.9-23.5-22.4 29.3 41.1 35.2 7 83.6s7.6 13 55.9 13.3c0 0 37.9 1.5 44.3-9.5 0 0-2.1-37.4 2.4-51.9s4.6-14.5 4.6-14.5l6.9 12.5 32.3-20.9s-19.9-36-33.6-47.9C748.1 422 705.6 419 705.6 419l-25.3 2.7z"/><path d="M710.7 508.8c-.6 0-1.1 0-1.7-.1-16.2-2.4-15.5-24.9-15.5-25.1 0-.9-.2-23.6 13-27.5 3.6-1.1 6.9-.8 9.7 1 5.6 3.5 7.1 11.4 7.2 11.8.1.8-.4 1.6-1.2 1.7-.8.1-1.6-.4-1.7-1.2 0-.1-1.3-7-5.8-9.8-2-1.2-4.5-1.5-7.2-.6-10.2 3-10.8 21.4-10.8 24.3 2.6-8.1 10.5-9.7 13.3-10h.1c.8-.1 1.7-.2 2.6 0 9.2 2 12.4 12.8 10.7 22-1.4 6.9-5.8 13.5-12.7 13.5zm-13.2-16.2c1.4 5.6 4.6 12 12 13.1 6.4 1 9.8-5.4 10.9-11.1 1.4-7.8-1-16.9-8.4-18.5-.5-.1-1.1 0-1.7 0h-.1c-4.7.5-12.4 3.1-11.4 14.8 0 .9-.6 1.6-1.3 1.7z" style="fill:#fff8f5"/><path class="st24" d="m755.4 492.3-4.6-26c-.1-.5.3-1.1.8-1.2.5-.1 1.1.3 1.2.8l2.6 15c1.9-15.7-.9-31.7-.9-31.9-.1-.5.3-1.1.8-1.2.5-.1 1.1.3 1.2.8 0 .2 3.7 20.7 0 38.4l-1.1 5.3zM656.1 459.1c-.2 0-.4-.1-.6-.2-.5-.3-.6-.9-.3-1.4 7.1-10.3 0-28.3-.1-28.5-.2-.5 0-1.1.6-1.3.5-.2 1.1 0 1.3.5.3.8 7.6 19.1-.1 30.4-.1.3-.4.5-.8.5zM659.5 467.1c-.2 0-.5-.1-.7-.3-.4-.4-.4-1 0-1.4 5.1-5.3 10.5-25.6 10.6-25.8.1-.5.7-.8 1.2-.7.5.1.9.7.7 1.2-.2.9-5.6 21-11.1 26.7-.2.2-.4.3-.7.3z"/><path class="st33" d="M585 612.1s-3.2 2.2-9.5-4.7c0 0-17.3-6.4-18.2 1.8-.9 8.3 24.8 11.2 24.8 11.2s4-2.2 2.9-8.3zM649.4 609.3s-5.9-6-13.7-1.8 13.7 13.4 13.7 13.4 18 6 10.7-7.1c0-.1-3.5 2.4-10.7-4.5z"/></g><ellipse class="st3" cx="833.4" cy="389.5" rx="15.8" ry="21.1"/><path d="M829.2 368.4s-4-13.6 9.3-12.7c13.3.9 31.2 9.7 31.2 29.6l-3.2 14.9s20.6 5.1 22 10.3c1.4 5.3-4.1 6.7-4.1 6.7s5.5 2.3 4.3 6.2-8.5 3.1-8.5 3.1-2.3 8.5-5 4.9c-2.8-3.7-13.3-24.3-13.3-24.3s-11.7-1.3-12.6-6c-.9-4.6-.3-15.8-.3-15.8s-7.3 8.1-10.5 4.1c-3.2-3.9.5-13.6-2.3-17.3-2.8-3.7-7-3.7-7-3.7z" style="clip-path:url(#SVGID_2_);fill:#8e5351"/><path d="M833.4 519.4 806 539.1s26 26.2 43.2 34.9 58 6.6 69.5-5.6c0 0 20.6-13.2 14.7-30.8l-62.3 18.1s-21.9 4.6-27.3-1.8c-5.3-6.5-10.4-34.5-10.4-34.5z" style="clip-path:url(#SVGID_2_);fill:#3d383c"/><ellipse class="st3" cx="848" cy="391.9" rx="4.2" ry="5.6"/><path class="st3" d="m797.7 591.5 7.6 29.3s6.1 5.5 10.4 0l2.8-29.3h-20.8zM831.3 591.5l7.6 26.5s1.2 5.5 9.2 2.1l3.4-28.7h-20.2z"/><path class="st36" d="M804.5 617.8s-16.4-4-13.6 3.4c2.8 7.5 18.9 7.8 18.9 7.8s12 2.4 5.9-8.3c0 .1-4 5.8-11.2-2.9zM837.8 613.9c0-.2-12.6-5.9-12.6.2 0 6 7.3 10.9 16.2 12.8 8.9 1.8 6.7-6.7 6.7-6.7s-8.2 1.2-10.3-6.3z"/><g class="st5"><path class="st7" d="M887.8 491.3c-.7 0-1.3-.5-1.5-1.2L878 454l-3.3 8.2c-.3.8-1.2 1.1-1.9.8-.8-.3-1.1-1.2-.8-1.9l5-12.7c.2-.6.9-1 1.5-.9.7.1 1.2.5 1.3 1.2l9.4 40.9c.2.8-.3 1.6-1.1 1.8-.1-.1-.2-.1-.3-.1z"/></g><g class="st5"><path class="st7" d="M905.7 480.8c-2.5 0-5.4-.6-8.6-1.9-.8-.3-1.1-1.2-.8-1.9.3-.8 1.2-1.2 1.9-.8 5.2 2.1 9.2 2.3 11.8.6 2.9-1.9 3.7-6 3.8-9.1.1-3.1-.8-6-2.7-8.1-1.6-1.8-3.3-2.7-5.3-2.8-4.8-.2-9.5 4.4-9.6 4.4-.4.4-1 .5-1.5.4-.5-.2-.9-.6-1-1.1l-3.2-15.8c-.1-.7.2-1.4.9-1.7l16.2-7.3c.8-.3 1.6 0 2 .7.3.8 0 1.6-.7 2l-15.1 6.8 2.5 12.2c2.2-1.6 5.8-3.8 9.8-3.6 2.9.1 5.4 1.4 7.5 3.8 2.4 2.7 3.6 6.4 3.4 10.2-.2 3.8-1.2 8.9-5.2 11.4-1.9 1-3.8 1.6-6.1 1.6z"/></g><g class="st5"><path class="st20" d="M453.3 544.2s-20.6 6.2-16.5 17.1H454l-.7-17.1zM500 413.3l-5 17.7s32.6 9.2 38.1-4.6l-6-16.7-27.1 3.6z"/><path d="M523.4 369.5s-2.3-7.7-8.7-12.8v6.4s-16-3.2-19.7 0l4.4 4.6s-9.9 4.7-9 17.7c0 0 5.1 2.8 4.6 7.5-.5 4.6 0 20.5 0 20.5s1.3 4.4 11.9 3.9c10.6-.5 14.2-2.9 16.5-2.6 2.3.3 4.1 3.1 5-1.3s2.3-17.8 6.4-20.5c0 0 4.6-16.5-2.3-20.6.1-.1-2.7-3.8-9.1-2.8z" style="fill:#282828"/><path class="st23" d="M495 423.6s-48.2-1.5-54.6 27.5-8.6 44.4-8.6 44.4l34.5 7.3s-.6 37-2.9 46.3c0 0 20.1 29.8 89.8 15.4 0 0 9.8-4.2 12.7-30.4v-46.2l26.3-11.8-6.9-22.8c-2.5-8.5-7.5-16-14.3-21.6-5-4.1-10.9-7.9-16-8.1-11.5-.4-23 0-23 0s-15.9 13.7-37 0z"/><path class="st7" d="M504.6 506.2c-.8 0-1.5-.7-1.5-1.5v-38.8l-7 8.7c-.5.6-1.5.7-2.1.2-.6-.5-.7-1.5-.2-2.1l12.3-15.3v47.3c0 .8-.7 1.5-1.5 1.5zM533.4 507.2c-8.8 0-15.6-10.8-15.6-24.6s6.9-24.6 15.6-24.6 15.6 10.8 15.6 24.6-6.8 24.6-15.6 24.6zm0-46.1c-7 0-12.6 9.7-12.6 21.6s5.7 21.6 12.6 21.6 12.6-9.7 12.6-21.6-5.6-21.6-12.6-21.6z"/><path class="st24" d="M466.3 492c-.5 0-.9-.3-1-.8-1.7-7.1 4.8-23.7 5.1-24.4.2-.5.8-.8 1.3-.6.5.2.8.8.6 1.3-.1.2-6.5 16.7-5 23.2.1.5-.2 1.1-.7 1.2-.2.1-.2.1-.3.1zM471.3 487c-.3 0-.5-.1-.7-.3-.4-.4-.4-1 0-1.4 4.7-4.7 6.4-18.1 6.4-18.3.1-.5.6-.9 1.1-.9.5.1.9.6.9 1.1-.1.6-1.8 14.3-7 19.4-.2.3-.5.4-.7.4zM562.9 477.1c-.5 0-.9-.3-1-.8l-5.5-31.6c-.1-.5.3-1.1.8-1.2.5-.1 1.1.3 1.2.8l5.5 31.6c.1.5-.3 1.1-.8 1.2h-.2zM565.9 474.6c-.1 0-.2 0-.3-.1-.5-.2-.8-.7-.6-1.3 2.9-8.7 0-18.8 0-18.9-.2-.5.1-1.1.7-1.2.5-.2 1.1.1 1.2.7.1.4 3.1 10.8 0 20.1-.2.5-.5.7-1 .7z"/><path class="st20" d="m591.6 476.5 9.3 39.3s1.3 21.7-16.5 16.2-18.9-5.5-18.9-5.5l.3-24.4 3.6 1.8-4.7-15.7 26.9-11.7zM434.7 495.9l-2.2 32.7s-.5 19.1 20.3 13.1c13.5-3.9 12.6-8.5 12.6-8.5l1-21-5.1 2.3 2.1-13.2-28.7-5.4z"/><path class="st22" d="M464.6 540.9c0 .1 13.9 22.9 49.5 23.6s41.1-1.9 41.1-1.9-5.9 22.4-32.1 21.7c-6-.2-38.9 2.3-55.4-7.9 0 0-17.1-9.2-17.5-32.2l14.4-3.3z"/><path class="st20" d="m440.9 591.4-17 14.2s-9.6.5-9.2-9.2l6.9-5h19.3z"/><path class="st33" d="M414.7 595.3s-9.4-2.3-13.3 0c-3.9 2.3-1.1 7 2.1 8.5 3.2 1.4 13.3 7.4 13.3 7.4s10.1 1.8 9.6-5.5l-.3-1.9s-11.4 1.6-11.4-8.5zM492 609.3s6-8.2 11.9-3.7c0 0 4.8 3.9-1.4 11.5L492 629.5s-9.9 1.8-8.5-4.4l8.5-15.8z"/><path class="st20" d="m481.7 591.4 10.3 17.9 10.6-4.5-1.7-13.5z"/></g></svg>