<svg version="1.1" id="Layer_1" xmlns="http://www.w3.org/2000/svg" xmlns:xlink="http://www.w3.org/1999/xlink" x="0" y="0" viewBox="0 0 1000 703.7" style="enable-background:new 0 0 1000 703.7" xml:space="preserve"><style>.st5{fill:#b3b3b5}.st6{fill:#f1f2f2}.st8{fill:#fff}.st9{opacity:.64;fill:#e4eff4}.st11{fill:#fffffe}.st12{fill:#787372}.st13{fill:#6b869a}.st14{fill:#ee9f8c}.st15{fill:#ffc752}.st19{fill:#9bbbcc}.st22{fill:#e0a375}.st26{fill:#9abccc}.st27{fill:#192e39}.st28{fill:#f9b741}.st29{fill:#be8b71}.st30{fill:#ff4d53}.st33{fill:#f1c6a9}.st36{fill:#038d68}.st38{fill:#158864}.st39{fill:#e4eff4}.st40{fill:#12222c}.st41{fill:#f7c4ae}.st44{fill:#2d5c6f}.st48{fill:#f7c2a9}.st49{fill:#1e3a47}.st51{fill:#2f2b28}.st52{fill:#be8b73}.st54{fill:#f0c4a8}.st55{opacity:.64;fill:#e6ddd0}.st59{fill:#2a5b71}</style><path d="M136.9 509S-64.6 244.6 77 147.7s230-186.5 438.4-118S768.9 129.8 895.8 241s70.9 271.6 24 340.7-79.5 116.9-160.5 121.6c-81.1 4.8-461.9-44.6-622.4-194.3z" style="opacity:.34;fill:#daaff9"/><path d="M278.4 687.9s-317-100.2-256.9-261S102.2 142.1 312 78.1s265-64 432.8-46.1 214.3 181.3 215.8 264.8 2.3 141.3-61.3 191.8S495.8 718 278.4 687.9z" style="opacity:.36;fill:#daaff9"/><path d="M239.7 638.5S-48.2 472.2 45.2 328.2s140.3-260.7 359-277.9S676.7 45 836.7 98.7 1006.8 322 990.2 403.9c-16.6 81.8-28.3 138.5-101.3 174.1-73 35.6-443.4 136.8-649.2 60.5z" style="opacity:.6;fill:#daaff9"/><path d="M169.3 535.7S-51.5 309.9 70.7 202.1 265.7-.5 470.1 39.8s250.7 64.9 383.2 154.9 98.4 247.8 62.4 318.4c-36.1 70.6-61.3 119.4-137.1 133.3S338 658.1 169.3 535.7z" style="opacity:.76;fill:#daaff9"/><defs><path id="SVGID_1_" d="M218.8 583.5S-20.7 395.3 82.7 276.8 243.8 58.5 444.4 71.3s247.9 30.6 386 100.1S955.6 396.1 930 468.2 886.4 590.1 815.5 613c-70.8 22.7-419.9 66.4-596.7-29.5z"/></defs><clipPath id="SVGID_2_"><use xlink:href="#SVGID_1_" style="overflow:visible"/></clipPath><g style="clip-path:url(#SVGID_2_)"><path class="st5" d="M42.5 459.1h974.4v59H42.5z"/><path class="st6" d="M43.6 517.5H1018v99.7H43.6z"/><path class="st5" d="M41.3 93.6H1017v37.9H41.3z"/><path style="fill:#e7dedd" d="M42.5 131.6h974.4v329.1H42.5z"/><path class="st8" d="M537.4 131.6h479.5v315H537.4z"/><path class="st9" d="M543.2 136.7h114.6V193H543.2zM661.6 136.7h114.6V193H661.6zM781.3 135.9h114.6v56.3H781.3zM901 135.1h114.6v56.3H901zM543.2 198.6h114.6v56.3H543.2zM661.6 198.6h114.6v56.3H661.6zM781.3 197.8h114.6v56.3H781.3zM901 197h114.6v56.3H901zM543.2 322.3h114.6v56.3H543.2zM661.6 322.3h114.6v56.3H661.6zM781.3 321.5h114.6v56.3H781.3zM901 320.7h114.6V377H901zM543.2 384.2h114.6v56.3H543.2zM661.6 384.2h114.6v56.3H661.6zM781.3 383.4h114.6v56.3H781.3zM901 382.6h114.6v56.3H901z"/><g><path class="st9" d="M543.2 260.4h114.6v56.3H543.2zM661.6 260.4h114.6v56.3H661.6zM781.3 259.7h114.6V316H781.3zM901 258.9h114.6v56.3H901z"/></g><g><path style="fill:#b7d6eb" d="M314.1 164h183.8v108.1H314.1z"/><path class="st8" d="M306.6 162.1h197.1v3.8H306.6zM306.6 272.2h197.1v3.8H306.6z"/></g><g><path class="st11" d="M329.9 362.8h137.3v9.8H329.9z"/><path class="st12" d="M338.6 372.5h113.8V383H338.6zM338.6 383h4.6v83.8h-4.6zM448.2 383h5.1v83.8h-5.1zM360.1 408.6h6.7v58.2h-6.7zM413.4 408.6h6.7v58.2h-6.7zM371.9 383h5.6v14.1h-5.6zM402.4 383h5.6v14.1h-5.6z"/><path class="st13" d="M416.7 362.8h-53.3v-18.3c0-7.4 6-13.5 13.5-13.5h26.4c7.4 0 13.5 6 13.5 13.5v18.3z"/><path class="st14" d="M338.6 358.1h39v4.6h-39z"/><path class="st15" d="M335.8 353.3h39v4.6h-39z"/><path class="st11" d="M329.6 348.7h39v4.6h-39z"/><path class="st13" d="M423.7 408.6h-66.1v-5.1c0-4.9 4-8.9 8.9-8.9h48.2c4.9 0 8.9 4 8.9 8.9v5.1z"/></g><path style="fill:none" d="m692.6 256.6-11 2.5"/><path d="M809.8 335.1v-16.9s2.7.3 3.1 5.8 1.7 11.1 1.7 11.1h-4.8z" style="fill:none;stroke:#ec7451;stroke-miterlimit:10"/><g><path class="st11" d="M195 356.6h137.3v9.8H195z"/><path class="st12" d="M203.8 366.4h113.8v10.5H203.8zM203.8 376.9h4.6v83.8h-4.6zM313.4 376.9h5.1v83.8h-5.1zM225.3 402.4h6.7v58.2h-6.7zM278.6 402.4h6.7v58.2h-6.7zM237.1 376.9h5.6V391h-5.6zM267.5 376.9h5.6V391h-5.6z"/><path class="st13" d="M281.9 356.6h-53.3v-18.3c0-7.4 6-13.5 13.5-13.5h26.4c7.4 0 13.5 6 13.5 13.5v18.3z"/><path class="st14" d="M203.8 352h39v4.6h-39z"/><path class="st15" d="M200.9 347.2h39v4.6h-39z"/><path class="st11" d="M194.8 342.5h39v4.6h-39z"/><path class="st13" d="M288.9 402.4h-66.1v-5.1c0-4.9 4-8.9 8.9-8.9h48.2c4.9 0 8.9 4 8.9 8.9v5.1z"/></g><g><path class="st11" d="M63.6 355.1h137.3v9.8H63.6z"/><path class="st12" d="M72.3 364.8h113.8v10.5H72.3zM72.3 375.3h4.6v83.8h-4.6zM181.9 375.3h5.1v83.8h-5.1zM93.9 400.9h6.7v58.2h-6.7zM147.2 400.9h6.7v58.2h-6.7zM105.7 375.3h5.6v14.1h-5.6zM136.1 375.3h5.6v14.1h-5.6z"/><path class="st13" d="M150.5 355.1H97.2v-18.3c0-7.4 6-13.5 13.5-13.5H137c7.4 0 13.5 6 13.5 13.5v18.3z"/><path class="st14" d="M72.3 350.5h39v4.6h-39z"/><path class="st15" d="M69.5 345.7h39v4.6h-39z"/><path class="st11" d="M63.3 341h39v4.6h-39z"/><path class="st13" d="M157.4 400.9H91.3v-5.1c0-4.9 4-8.9 8.9-8.9h48.2c4.9 0 8.9 4 8.9 8.9v5.1z"/></g><g><circle cx="261.4" cy="201.5" r="23.6" style="fill:#1f4356"/><circle class="st8" cx="261.4" cy="201.5" r="21.7"/><path class="st19" d="M260.3 179.8h2.2v4.1h-2.2zM240.5 200.3h4.1v2.2h-4.1zM279 200.3h4.1v2.2H279zM260.3 219h2.2v4.1h-2.2z"/><path transform="rotate(-48.247 265.898 195.194)" class="st19" d="M257.5 194.6h16.8v1.1h-16.8z"/><path class="st19" d="M250.1 200.3h11.4v2.2h-11.4z"/></g><ellipse cx="528.6" cy="570" rx="309.2" ry="23" style="opacity:.6;fill:#b3b3b5"/><g><path d="M251 287.7s-15.4 1.7-12.3 29.7 1.1 53.3 23.5 58.8h8.8l-10.7-91.1-9.3 2.6z" style="fill:#182d36"/><ellipse transform="matrix(.996 -.08921 .08921 .996 -19.422 26.761)" class="st22" cx="289.7" cy="230.7" rx="15.8" ry="23.1"/><path d="M302.6 217.2s11.9-9.1 5-16.7h-29c-2.7 0-5.3 1-7.2 2.8-2.7 2.5-6 6.5-5.8 10.5.3 6.8.3 24.3 5.1 29.4 4.8 5.1 7.9 5.1 7.9 5.1s-.6-2.3-1.4-5.7c-1.2-5.7-2.7-14.3-2.1-20.1 1-9.3 9.6-6.6 9.6-6.6s14.4 4.7 17.9 1.3z" style="fill:#3a2d28"/><path class="st22" d="M276.8 242s.9 12.6 0 19c-.9 6.3-1.4 11.8 8.9 13.5 10.3 1.7 22.7-4.1 18.3-15.4l-4.3-2.4-.3-9.6-22.6-5.1z"/><path d="M278.3 256.9s3.9 8.9 12.3 9.1c8.4.2 9.1-9.2 9.1-9.2l15 3.1s10.6 2.5 15 15 13 35.4 13 35.4 8.2 18.1-5.1 19.8l-13.3 1.7 3.9 45.6s-40.3 13.7-66 3.2l-1.4-50.7S242.7 297.4 248 274c0 0 .3-7.7 10.1-9.1 0 0 9.3-6.3 20.2-8z" style="fill:#feac02"/><path d="m263.6 378.6-7.2 182.8h18.5l12-80 9.3-62.9s2-8.5 3 1.7c1 10.3 6.2 139.1 6.2 139.1s22.2-.3 21.2-1.4c-1-1 1.4-184.2 1.4-184.2l-64.4 4.9z" style="fill:#232323"/><path class="st26" d="M289.2 574H254v-12.7h23.9c6.1 0 8.9 4.9 10.3 8.6.8 2.3 1 4.1 1 4.1zM350.7 574h-46.5v-14.9l22.2-1.2 11.3 3.4c6.3 1.9 9.7 5.7 11.3 8.6 1.4 2.4 1.7 4.1 1.7 4.1z"/><path class="st22" d="M310.2 303s6.8-3.4 10.9 0 8.5 8.9 8.5 8.9l-14 2.7-5.4-11.6zM310.2 317.7v12.4s-14.1-1.5-19.4-4.2c-5.3-2.7-6.6-13 1.4-11.3 8 1.8 18 3.1 18 3.1z"/><path class="st27" d="m260.3 263.6 5.7-2.9s18.3 18.5 15.3 47.7l-6.4 1.2c0-.1-.9-41.7-14.6-46zM274 328.8l-12.6 20.7.3 13s19.2-30.2 19.6-36l-7.3 2.3z"/><path class="st28" d="m319.9 294.1 9.7 17.8-19.4 5.8v14.4l14.1-.3 18.3-3.7s6.6-6.2 1.2-14.9l-17.3-44.6-5-5.2s-7.4 2.7-7.4 11.5c.1 8.7 5.8 19.2 5.8 19.2z"/><ellipse transform="rotate(-22.256 272.251 230.737)" class="st22" cx="272.2" cy="230.8" rx="3.7" ry="4.8"/><path class="st28" d="M248.2 273.4c2.3-7.7 12.2-9.9 17.5-3.8 2.5 2.8 4.5 6.7 5.3 12 2.7 17.8 3.8 28 3.8 28l35.3-6.5 5.4 13-44.4 13.7s-9.5 2.6-12.9-5-11.1-35.8-11.1-35.8l1-15 .1-.6z"/><path class="st6" d="M288.2 570c.8 2.2 1 4 1 4H254v-4h34.2zM350.7 574h-46.5v-4H349c1.4 2.3 1.7 4 1.7 4z"/></g><g><path class="st29" d="M415 303.4c1.4 2.4-1.4 51.6 1.7 59.1s6.5 29 6.5 29 2.7 22.9-2.1 24.6c-4.8 1.7-11.3-1-11.3-7.5 0 0 3.4-2.4 3.8-9.2.3-6.8-1.7-14.9-1.7-14.9l-6.4-16.6s-5.3-15.1-3.9-23.4c1.4-8.3 2.8-41.2 2.8-41.2H415zM349 427.1l-3.1 96-1.6 41.5s29.4 11.8 26.2 3.1c-.6-1.5-12.4-7.3-13-8.4-.6-1 17.9-132.3 17.9-132.3H349zM382.9 427.1l-2.1 66 1 73s21.2 7.7 28 1.7c0 0-5.1-3.6-14.5-8l12.1-132.6h-24.5z"/><path class="st30" d="M379.5 564.1v9.9h39.6s-1.8-6.2-6.4-8c-4.5-1.9-13.9-4.6-13.9-4.6s11.3 4.1 6.7 6.3-26-3.6-26-3.6zM342.2 561.4V574H377s3.7-4.4-10.5-9.2c0 0 2.7 2.5-4.9 2.9-7.5.4-19.4-6.3-19.4-6.3z"/><ellipse class="st29" cx="379.5" cy="243" rx="18.7" ry="23"/><path d="M363.9 258.4s-12.4-8.7-13.1-23.6c-.7-14.9 10.6-30.2 28.8-26.7s23.3 9.6 23.8 22.5-8.8 26.1-8.8 26.1 3.3-16.8 1.4-21.7c-2.4-6.2-22.3-2-22.3-2s-7.2-.7-6.2 19.8l1 10.5-4.6-4.9z" style="fill:#312b28"/><path class="st29" d="M369 256.7v13.5l-17.1 4.6s16.2 19 34.2 17c17.9-2.1 18.5-17.4 18.5-17.4l-10.8-4.6-5.1-1.5-.5-7.5-19.2-4.1z"/><path class="st30" d="M355.2 273.9s13.6 11.6 30.4 9.6c16.8-2 15.4-10.8 15.4-10.8s14.7 3.6 15.4 12.3 0 20.7 0 20.7h-8.2s-6.5 66.6-2.1 72.1h-56.7l4.1-68.4-16.1-6.2 2.7-20.5c.1.2 6.9-9.6 15.1-8.8z"/><path d="M350.7 376.2s-3 15-3 20.8-1.8 33.8-1.8 33.8h31.2l1.1-7.2 3.7 7.2h28s-2-51.3-6.5-54.7h-52.7z" style="fill:#3a6393"/><path class="st29" d="M335.4 332.1s-.6 13.7 7.5 16.1c8.1 2.4 38.6 10.3 38.6 10.3s18.2 3.4 21.9-2.7c3.7-6.2 1.5-4.8 1.5-4.8l-10 .7s-4.8-2.4-4.1-3.8-3.4-4.2-7.2-2.1-4.4 3.1-9.6 1.4-23.3-10.9-23.3-10.9l2.8-26.7-16.1-6.2-2 28.7z"/></g><g><path class="st33" d="M430 377.9s-4.6 17.9-2.8 23.8c1.8 5.9 3.3 15.9 7.2 16.9s4.1-18.7 4.1-18.7 2.7 6.4 4.1 4.6c1.4-1.8.5-14.9-1.8-17.2-2.3-2.3.3-7.4.3-7.4l-11.1-2z"/><path style="fill:#f1ede5" d="M428.6 370.6v10.9h14v-10.9z"/><path d="m442.8 384.5 11.8 176.9H472l2.4-154.8s4.6-9.7 6.5 7.2 12.7 147.6 12.7 147.6h13.3l-3.6-179.9-60.5 3z" style="fill:#3a3a3a"/><path class="st36" d="M490.5 574s-2.7-12.6 5.1-12.6c7.9 0 12.5-1.7 14.1 4.6 1.6 6.3 0 8 0 8h-19.2zM472.1 561.4h-21.9s-17.1 3.9-17.1 9.5 9.5 3.2 9.5 3.2l32.3-1.7c0-.1.2-11-2.8-11z"/><ellipse class="st33" cx="468.6" cy="228" rx="15.8" ry="20.3"/><path d="M455.5 216.8s-11.4 1.1-8.7-6.7c2.7-7.9 9.2-13.7 15.4-14.7 6.2-1 17.8-3.1 22.2 3.4 4.4 6.5 7.5 24.1 5.8 31.9-1.7 7.8-7.8 7.3-7.8 7.3s5.4-10 2-16.3c-3.4-6.3 0-1.7 0-1.7s-6.1-1.4-8.9-6.5-17.8-3.3-20 3.3z" style="fill:#342f31"/><path class="st33" d="m464.2 247.5-3.1 18.5 9.6 19.1 17.1-26.7-2.1-6.6-1.3-18.8z"/><path class="st38" d="m463.2 253.4-19.9 8.6s-11.3.5-11.8 15.9-3.1 95.8-3.1 95.8h15.4s-4.9 14.9 4.6 18.2c9.5 3.3 22.8-3.3 22.8-3.3s.8 4.4 7.9 6.2c7.2 1.8 26.1-6.7 26.1-6.7l4.4-124.8s-5.6-7.7-16.4-9.5l-8.1-8.7s1.4 19.7-14.5 34.8c.2.1-11.9-15.5-7.4-26.5z"/><ellipse class="st33" cx="484.4" cy="223.3" rx="3.4" ry="4.4"/><path class="st39" d="m465.2 252.1 1.4 15-13.8 2.8 6.9-16.1zM482.3 262.4l11.2 4.2-2.8-15.7-5.4-5.7z"/></g><g><path class="st40" d="m496 373-18.5 123.1-3.1 61.9H490s11.4-69.7 10.2-75.9c-1.2-6.2 8-22.6 8-22.6l19.8-52.6s6.5 79.6 6.2 90.2c-.3 10.6 0 58.8 0 58.8s15.7 1.4 16 .3c.3-1 6.5-47.2 6.5-49.9 0-2.7.3-47.8 3.1-66.6 0 0 7.5-61.6 1.4-69.1L496 373z"/><path class="st6" d="M551.9 570.9c0 1.9.1 3.2.1 3.2h-35.5s-.5-1.3-.2-3.2c.2-1.5.9-3.3 2.8-4.9 4.3-3.6 13.1-6.1 15-8 1.9-1.9 3.9-1.8 3.9-1.8l14 1.8c-.2 1.4-.1 8.6-.1 12.9zM490.5 574l-40.3-.4s-1.1-1.1-1.2-2.7c-.1-1.7.8-3.9 5-5.8 8.2-3.7 18.4-3 20.5-7.1h15.6l.4 12.9v3.1z"/><path class="st41" d="m523.3 252.1-2.1 18.8s8.9 15.4 17.1 8.2c8.2-7.2 5.1-12.5 5.1-12.5l-1-3.2L541 247l-17.7 5.1z"/><ellipse class="st41" cx="530.2" cy="238" rx="15" ry="19.2"/><path d="M524.6 224.4c3.7-.1 8.6-.3 13.4-.8 1.4-.1 2.7.7 3.2 2 .6 1.8 2.3 5 1.8 9.9-.8 7.2-1.4 18.2-1.1 23.1.1 1.4 1.1 2.6 2.5 2.8l7.5 1.3c1.9.3 3.6-1.1 3.6-3v-37.9c0-.3 0-.6-.1-.9-.8-2.6-5.4-15.9-18.8-15.6-14.9.3-16.9 2.4-16.9 2.4s-7.9 5.1-8.5 11.1c-.6 4.9-1 31-1.2 40.9 0 1.9 1.7 3.4 3.6 3.1l7.3-1.3c1.3-.2 2.4-1.3 2.5-2.7l.2-1.9c.1-.9-.2-1.8-.8-2.4-2.3-2.5-8-9.9-6.9-21.9.4-4.7 4.1-8.1 8.7-8.2z" style="fill:#664331"/><path d="M524.4 263.3s1.3 10.2 9.7 8.4c0 0 8.6 1.2 7.8-11.1l5.6 1.6-10.9 68-1.3 42.8h-25.6v-22.3l3.3-53 4.6-31.1 2.1-4.8 3.8-1.1.9 2.6z" style="fill:#f8f5fb"/><path class="st44" d="m521.3 261.2-7.5 101.9-2.7 33.5s-15.2-.7-17.6-9.1l3.9-49.2-5.3-1.4s-9.6-1-9.4-7.1c.2-6.2 8.4-42.7 8.4-42.7s2.5-21.2 13.8-23.1c11.3-1.8 16.4-2.8 16.4-2.8z"/><path class="st41" d="M521.3 339.9s9.1 4.5 15.1-1.7.2-8 .2-8l-16.2 1.9.9 7.8z"/><path class="st44" d="M523.7 329.5v12.8l-33-5.5s-10.2 1.3-6.5-16.7h14.2l25.3 9.4z"/><path style="fill:#f4d79d" d="m497 289.7 6.5-6.8 27.3 2.2 1.9 35v16.7l-33.6-4.7z"/><path style="fill:#ee7452" d="m497 289.7 28.2 3.8v42.2l-26.1-3.6z"/><path class="st44" d="m543.2 261.2 21.8 3.9s9.7 2.1 7.9 17.3c-1.9 15.2-13.5 48.4-13.5 48.4l5.5 53s-16 17.4-32.2 14.6c0 0-3.6-66.9-.7-85 2.9-18.2 11.2-52.2 11.2-52.2z"/><path class="st41" d="M513.6 317.7s-3.5-3.4-6.6-4.4-3.4-1-5-3.8-4.3-3.1-3.6 0 6.2 4.8 5.1 6.5c-1 1.7-6 0-5.2-1.7.8-1.7-3-5-4-1.8s-1.7 9.2 3.1 12.8c4.8 3.7 13.9 1.6 13.9 1.6l2.3-9.2z"/><path d="M551.2 277.8c.6-3.6 2.8-6.7 6-8.4 4.9-2.6 12-4.5 15.1 3.4 5 12.8-12.9 57.9-12.9 57.9s-2.9 10.9-19.3 8.9L509.7 328l2.1-10.6 27.9 4.9s5.2.9 5.5-4.9c.3-4.5 4.2-29 6-39.6z" style="fill:#244c59"/><path class="st26" d="m490.4 570.9.1 3.2-40.3-.4s-1.1-1.1-1.2-2.7h41.4zM552 574h-35.5s-.5-1.3-.2-3.2H552v3.2z"/></g><g><path class="st48" d="M605.6 238v17.9s7.3 13.9 17.2 10.7c9.9-3.2 8.2-14.5 8.2-14.5h-2.2v-12.3l-23.2-1.8z"/><path class="st30" d="m663.8 269.9-8.9 108h-70.7v-4.1l-.6-66.4h-16s2.3-17 3.3-33c1-16.1 8.2-17.1 8.2-17.1l8.4-1.9 11-2.5 7.5-2c1.5 7.2 7.3 10.6 14.8 9.9 7.5-.7 8-12.3 8-12.3s19.3 4.1 26.5 5.8c7.1 1.6 8.5 15.6 8.5 15.6z"/><path class="st49" d="M571.1 330.2s-12 44.5 13 40.4l-.3-32.4-.1-8.4-12.6.4z"/><path class="st48" d="M635.1 224.7c0 13.1-7.2 23.7-16.1 23.7-5.6 0-10.5-4.1-13.4-10.4-1.8-3.8-2.8-8.4-2.8-13.3 0-13.1 7.2-23.7 16.1-23.7 9 0 16.2 10.6 16.2 23.7z"/><ellipse class="st48" cx="602.8" cy="227.8" rx="4.3" ry="6.2"/><ellipse class="st48" cx="633" cy="227.8" rx="4.3" ry="6.2"/><path class="st49" d="m598.4 252.7-2.6 64.7h-9.6v-15.9l1.2-46.3z"/><path class="st48" d="m567.5 307.3 2.3 20.2s3 9.4 14 10.7c11 1.4 35.2-4.1 35.2-4.1l-3.3-13.5-28.2 2.3-3.8-2.8-.1-12.8h-16.1z"/><path class="st48" d="m639.3 301.5-8.2 5.8-34.9.7s-7.6-4.7-13-6.6c-5.5-1.9-6.8-5.7-7.2-1.9-.3 3.8 2.7 3.9 2.7 3.9s7.2 3.9 4.8 3.9H576s-4.8 1.7 1.7 9.5c6.5 7.7 7.6 6.3 9.8 6.1s12.3-2.3 12.3-2.3l40.2-.5-.7-18.6z"/><path d="m584 376.2.2 50.9-5.5 129.1 18.1 1.8 22.1-146.6s2.5-7.2 6.9 23.2 18.8 124.7 18.8 124.7h17.1L652.1 376l-68.1.2z" style="fill:#4570ad"/><path class="st30" d="M596.8 558s4.4 15.4 0 16.1c-4.4.7-33.1 0-33.1 0s-.1-6.9 4.5-8.9c4.7-2 10.5-8.9 10.5-8.9l18.1 1.7zM644.7 559.3s12.6-7.5 17.1 0c4.4 7.5 2 15 2 15h-19.1v-15z"/><path class="st51" d="M602.8 224.7s-5.2-11.9 2.8-19.4 14.5-12 21.3-6.1c6.8 5.8 10.9 15.3 10.4 17.2s-4.3 11.4-4.3 11.4v-13.9s-4.7 2.5-9.6-.7c0 0-5 5.7-17.9 3.2l-2.7 8.3z"/><path class="st38" d="M599.7 213.1c0-10.6 8.6-21.5 19.2-21.5s19.2 10.8 19.2 21.5"/><path class="st38" d="M599.7 210.9h42v2.9h-42z"/></g><g><path class="st19" d="m653.3 395 8.4 162.9h14.4l6.2-141.8s5.9-4.1 6.4 2.7 17.6 139.1 17.6 139.1h14.4l-2.4-166.4-65 3.5z"/><path class="st40" d="M676.1 558s4.8 11.3 3.1 16.1l-41.4.3s-3.4-7.2 6.8-9.2 17-7.1 17-7.1h14.5zM706.2 558s-15.3 7.3-17.6 9.6c-2.3 2.3-1.7 6.7-1.7 6.7l36.7-.3s.7-16.1-3.1-16.1c-3.7.1-14.3.1-14.3.1z"/><path class="st52" d="M633 395s-2.4 10.5-4.3 16.7c-1.9 6.2 2.3 19.1 2.3 19.1s8.9 5.5 8.8-2.5 0-14.5 0-14.5 1.9-3.7 1.9 2.7 4.6 5.4 4.6 5.4 1.7-16.8 0-20.2c-1.7-3.4-1.7-5-1.7-5L633 395zM671 257.2v28s24.3 7.7 29.5-2.2c5.2-9.9-5.2-18.9-5.2-18.9l-2.2-18.8-22.1 11.9z"/><path d="m673.4 264-25.3 9.3s-7.9 0-8.2 19.1c-.3 19.2-8.8 105.8-8.8 105.8h13.6c1 0 10.6-75.4 10.6-75.4l-2 73.8 65.9-1.6-2.7-46.2 20.8 1.6s6.5.3 4.4-10.5l-8.5-54.8s-3.4-12.8-13.7-14.2l-23.2-6.9s4.2 18.9-12.3 17.8c-16.2-1.1-11-14.7-10.6-17.8z" style="fill:#182d38"/><path class="st19" d="m615.6 320.6 5.1 28.2h47.2l-4.1-30z"/><path class="st52" d="M688.6 333.8c-2.6-.3-9.4-2.6-9.4-2.6s-11.9-7.3-15.2-6-.2 4.6-.2 4.6l-17.8-.5s-3.1-.8 0 1.8 9.2 2.6 9.2 2.6-1 8.2 8.7 8.5c9.7.3 24.6 0 24.6 0l.1-6.5v-1.9z"/><path class="st40" d="M686 331.2h34.5l-6.2-43.3s4.8-21.6 15-10.6l3.8 7.7 8.5 54.8s2.7 11.1-7.2 10.3c-9.9-.7-48.5-5.5-48.5-5.5v-13.4z"/><ellipse class="st52" cx="678.1" cy="238" rx="16.3" ry="21.6"/><path class="st51" d="M654.1 213.8s-.3 15.9 8.7 13.9 18.6-7.6 22.4-6.2c3.8 1.4 8 20.2 8 20.2v8.3s8-7.7 6-22.3-10.1-20.1-10.1-20.1-10.4-3.8-21 0-14 6.2-14 6.2z"/><ellipse class="st52" cx="694.4" cy="235.9" rx="4.1" ry="5.9"/></g><g><path class="st54" d="m749.1 423.8 1.8 47.7s-.3 14.9 3.3 32c3.6 17.2 6.9 54.5 6.9 54.5l11.7 1.4s2.4-62.5 1.6-71c-.8-8.5.2-64.6.2-64.6h-25.5zM778.7 423.8l2.2 31.3s.3 19.5 4.9 35.4c4.6 15.9 13.1 68.9 13.1 68.9h12l-6.2-92.5.5-43.1h-26.5z"/><path class="st55" d="M777.3 570c-.2 2.4-.7 4.3-.7 4.3h-42.3s-.8-2.4-.5-4.3c.2-1.2.8-2.3 2.3-2.4 3.8-.5 23.3-9.6 23.3-9.6l15.3 2.6c2.8 1 2.9 5.8 2.6 9.4zM815.2 570c0 2.4-.2 4.3-.2 4.3h-36.3s-.1-1.8 0-4.3v-1.2c.1-3.1 18.3-9.5 18.3-9.5h13.8c3.7 0 4.4 6.3 4.4 10.7z"/><path class="st40" d="M733.8 570h43.5c-.2 2.4-.7 4.3-.7 4.3h-42.3s-.8-2.3-.5-4.3zM815.2 570c0 2.4-.2 4.3-.2 4.3h-36.3s-.1-1.8 0-4.3h36.5z"/><ellipse class="st54" cx="776.2" cy="237.4" rx="17.3" ry="25.3"/><path d="M759.1 241.8s4.4-17.4 7.9-16.4 12.3 5.8 20.2 2.7c0 0 1.9 9.4 6.2 9.4 0 0-1.2 13.6-5.1 17.9 0 0 3.3-.4 9.7-10.2 0 0 12.6-8.6 5.1-19.8 0 0-2.3-3.3-6.4-3.3 0 0-3.5-10.2-14.5-11 0 0-20.9-6.4-25.3 13.1.2-.1-.8 12.4 2.2 17.6z" style="fill:#29231e"/><path class="st54" d="m770.9 259.6-3.6 18.3s24.1 9.2 27.2 0l-3.3-9.2s-4.1-4.9-5.1-13.4l-15.2 4.3z"/><path d="M767.3 264s1.4 15.1 13.6 12.6 8.5-13.9 8.5-13.9l18.5 9.3s10.8 4.6 11 18.7c.3 14.1 0 46.6 0 46.6s1.3 15.6-11.3 11.8l2.6 23.1h-63.6V365.5l-4.5 21.8h-15.2l12.6-91.5s.3-15.6 11.8-21.6c11.4-6 16-10.2 16-10.2z" style="fill:#efe9e4"/><path style="fill:#7f50c9" d="m748.1 369.4-3.6 56.9 68.5 1-3.2-57.9z"/><path class="st59" d="M799.1 266.5c-.2 1-14.9 10.3-17.9 35.7v3.8s4.6 3.3 8.9 0c0 0 4.4-24.6 17.7-34.1l-8.7-5.4zM780.9 322.8l2.1 35.4s-5.1 0-4.2 9c.9 9 7.3 35.9 7.3 35.9s2.3 2.8 4.9 2.8c2.6 0 36.7-3.6 36.7-3.6s4.1-2.1 2.8-8.2c-1.3-6.2-11.4-37.4-11.4-37.4l-3.7-1-.1-7-7.6.6.3 6.4-16.4.3-.8-17.9L789 323h-8.1z"/><path d="M790.2 318.2c-1.3 1.3-7.4 6.9-7.4 6.9s5.9 11.8 13.6 17.4c7.7 5.7 11.3 6.7 11.3 6.7s11.2 2.6 11.3-9.5l-.8-54.9s-9.1-11.8-17.3 0l4.8 44.9-15.5-11.5z" style="fill:#e6ddd2"/><path class="st54" d="M785.3 325.1s-9.9-3.1-10.6-7.2c-.7-4.1-1.1-8.2 0-11.8 1.1-3.6 6.6-5.6 6.6-5.6s-1.5 7.4 2.5 7.1 5.7 1.9 6.4-1.5c.7-3.4 3.6 4 1.8 6.1-1.8 2.1-1.8 5.9-1.8 5.9l-4.9 7zM728.4 386.1v9.5s-4.1 7.7-1.5 13.6c2.6 5.9 9.7 6.7 11.3 6.4 1.5-.3 5.4-5.1 2.3-6.7s-3.3-5.9-3.3-5.9l.8-7.7 1.8-9.2h-11.4z"/><ellipse transform="rotate(-69.996 793.438 239.477)" class="st54" cx="793.5" cy="239.5" rx="5.9" ry="4"/></g></g></svg>