<svg version="1.1" id="Layer_1" xmlns="http://www.w3.org/2000/svg" x="0" y="0" viewBox="0 0 1000 717.2" style="enable-background:new 0 0 1000 717.2" xml:space="preserve"><style>.st0{fill:#e2d4fa}.st3{fill:#95d8b2}.st4{fill:#f7ffff}.st5{fill:#79b27e}.st6{fill:#fcfefd}.st7{fill:#e6e7e8}.st8{fill:#4889e7}.st9{fill:#a7d1a1}.st10{opacity:.11;fill:#fff}.st11{fill:#86a880}.st12{fill:#f89746}.st13{fill:#ed7c30}.st14{fill:#d2661d}.st15{fill:#c04b42}.st17{fill:#ecf5fc}.st18{fill:#f9c2a7}.st21{fill:#222323}.st22{fill:#ff4d53}.st25{fill:#fff}.st28{fill:#fcb788}.st29{fill:#7b9eef}.st34{fill:#ffab7a}.st35{fill:#fcb388}.st38{fill:#262525}.st40{fill:#231f20}.st41{fill:#3557a0}</style><ellipse class="st0" cx="719.5" cy="61.6" rx="109.7" ry="36.5"/><ellipse class="st0" cx="502.1" cy="679.6" rx="493.8" ry="28.4"/><ellipse transform="rotate(-78.591 542.192 36.493)" class="st0" cx="542.2" cy="36.5" rx="23.6" ry="36.5"/><path class="st0" d="M964.8 291.7c48.1 485.8-94.3 373.4-459.4 392.5-314.3 16.5-572.7-14.9-480.3-382.1C88.3 50.8 185-40.8 542.2 73.9 866.1 177.8 931.6-42.9 964.8 291.7z"/><path d="M905.3 294.5c44.6 440.2-84 338.5-409.2 355.8C216.2 665.2-14 636.8 68.3 303.9 124.6 76.2 238.7 11.4 548.4 137 832.9 252.4 879.2 36.4 905.3 294.5z" style="fill:#cfb5f6"/><g style="opacity:.34"><path class="st3" d="M525.9 569.3s432.7-219.1 250.7-268.6-301.4 274-301.4 274l50.7-5.4z"/><path class="st4" d="M766.6 331.4c3.6 5.2 5.6 11.4 6.4 17.7.8 6.3.3 12.8-1.1 19-1.5 6.2-4 12.1-7.2 17.7l-1.2 2.1-1.3 2c-.9 1.3-1.7 2.7-2.6 4l-2.8 3.9-3 3.7c-1 1.3-2.1 2.4-3.1 3.6-1.1 1.2-2.1 2.4-3.2 3.5l-3.4 3.4-1.7 1.7-1.8 1.6c-2.4 2.1-4.7 4.3-7.2 6.2l-3.7 3c-1.2 1-2.5 1.9-3.8 2.9-10.2 7.6-20.9 14.4-31.9 20.7-22 12.4-44 24.7-66.3 36.7-22.3 11.9-44.5 24-67.5 34.4 11.3-5.7 22.3-11.8 33.3-17.9 11.1-6.1 22.1-12.3 33.1-18.5l65.9-37.3c10.9-6.2 21.6-12.9 31.7-20.4 1.3-.9 2.5-1.8 3.8-2.8l3.7-2.9c2.5-1.9 4.8-4 7.2-6.1l1.8-1.5 1.7-1.6 3.4-3.3c1.1-1.1 2.2-2.3 3.2-3.4 1.1-1.1 2.2-2.3 3.2-3.5l3-3.6 2.8-3.7c1-1.2 1.8-2.5 2.7-3.8l1.3-1.9c.4-.7.8-1.3 1.2-2 3.2-5.4 5.8-11.1 7.4-17.1 1.7-6 2.4-12.3 1.8-18.5-.3-3.1-.9-6.2-1.8-9.2-1.1-3.2-2.3-6.2-4-8.8z"/><path class="st5" d="M563.3 478.6s215-242.1 204.7-341c0 0 27.9-118.9-39.3-98.9S621.5 112.8 616 137.6c-5.5 24.7-67.3 241-70.9 283.7-3.6 42.7 6.1 81.8 6.1 81.8l12.1-24.5z"/><path class="st6" d="M721.3 104.2c-5.6 12.6-11.4 25.1-17 37.7l-17.2 37.6-34.7 75.1-35.2 74.9-17.7 37.4c-6 12.4-11.9 24.9-17.9 37.3 5.6-12.6 11.4-25.1 17-37.7l17.2-37.6 34.7-75.1 35.2-74.9 17.7-37.4c6-12.5 11.9-24.9 17.9-37.3z"/><g><path class="st3" d="M400.1 556.4S-32.6 337.3 149.4 287.8s301.3 273.9 301.3 273.9l-50.6-5.3z"/><path class="st4" d="M159.3 318.4c-1.7 2.7-2.9 5.6-3.8 8.6-.9 3-1.5 6.1-1.8 9.2-.6 6.2.1 12.5 1.8 18.5 1.6 6 4.2 11.8 7.4 17.1.4.7.8 1.4 1.2 2l1.3 1.9c.9 1.3 1.7 2.6 2.7 3.8l2.8 3.7 3 3.6c1 1.2 2.1 2.3 3.2 3.5 1.1 1.1 2.1 2.3 3.2 3.4l3.4 3.3 1.7 1.6 1.8 1.5c2.4 2.1 4.7 4.2 7.2 6.1l3.7 2.9c1.2 1 2.5 1.9 3.8 2.8 10.1 7.5 20.7 14.2 31.7 20.4l65.9 37.3c11 6.2 22 12.4 33.1 18.5 11 6.1 22.1 12.3 33.3 17.9-23-10.4-45.2-22.5-67.5-34.4-22.2-12-44.3-24.3-66.3-36.7-11-6.3-21.7-13.1-31.9-20.7-1.3-1-2.6-1.9-3.8-2.9l-3.7-3c-2.5-2-4.8-4.1-7.2-6.2l-1.8-1.6-1.7-1.7-3.4-3.4c-1.1-1.1-2.2-2.3-3.2-3.5-1.1-1.2-2.2-2.3-3.1-3.6l-3-3.7-2.8-3.9c-1-1.3-1.8-2.6-2.6-4l-1.3-2-1.2-2.1c-3.1-5.6-5.7-11.5-7.2-17.7-1.5-6.2-2-12.7-1.1-19 .6-6 2.6-12.2 6.2-17.5z"/></g><g><path class="st5" d="M444.2 551.1s-215-242.1-204.7-341c0 0-27.9-118.9 39.3-98.9s107.2 74.1 112.7 98.9 67.3 241 70.9 283.7c3.6 42.7-6.1 81.8-6.1 81.8l-12.1-24.5z"/><path class="st6" d="M286.2 176.7c6 12.4 11.9 24.9 17.9 37.3l17.7 37.4 35.2 74.9 34.7 75.1 17.2 37.6c5.7 12.6 11.4 25.1 17 37.7-6-12.4-11.9-24.9-17.9-37.3L390.3 402l-35.2-74.9-34.6-75.1-17.2-37.6c-5.7-12.6-11.5-25.1-17.1-37.7z"/></g></g><path class="st7" d="M681.8 399.3h123.8v16.8H681.8z"/><path class="st7" d="M769.7 414.3s29.4 265.4 28.7 265.4h4.9l-25-265.4h-8.6zM715.3 414.3s-29.4 265.4-28.7 265.4h-4.9l25-265.4h8.6z"/><path class="st8" d="M721 422.5c0 15.5-1.4 30.7-4 45.4-6.9 38.5-22.3 74-44.2 104.5C626.1 637.3 550 679.6 464 679.6c-35 0-68.4-7-98.8-19.7-55.4-23.1-101-65.1-128.8-117.9-18.8-35.7-29.4-76.3-29.4-119.5 0-19.1 2.1-37.7 6-55.6 10.9-49.3 35.9-93.3 70.5-127.4 46.4-45.8 110.2-74.1 180.5-74.1 21.3 0 41.9 2.6 61.7 7.5 50.6 12.5 95.4 39.9 129.2 77.4 41.1 45.6 66.1 106 66.1 172.2z"/><path class="st9" d="M721 422.5c0 15.5-1.4 30.7-4 45.4 0 0-30.6-16.4-52.4 11.7-21.8 28.2-66.3 17.3-66.3 17.3s-89.1-8.2-134.3-33.6c-45.3-25.4-30.1-40.8-30.1-40.8s18.2-38.3 55.4-40.1c37.3-1.8 45.4-14.5 45.4-14.5 23.6-26.4 46.4-22.7 46.4-22.7 38.2-10 17.3-46.3 17.3-46.3-4.8-32.5 24.7-44.6 56.5-48.5C696 295.9 721 356.3 721 422.5z"/><path class="st9" d="M562.9 326.6s-50.9-6-66.3 19.5-62.7-5.6-56.3-20.1c6.4-14.4 24.5-31.7 49.1-40.8s50.9-10.9 61.8 0 28 21.9 11.7 41.4zM347.5 457.8s24.5 48.2-21.8 72.7c-46.4 24.5-60-12-74.5 0-4.5 3.7-9.7 7.7-14.8 11.5-18.8-35.7-29.4-76.3-29.4-119.5 0-19.1 2.1-37.7 6-55.6 11.6-9.3 26.7-18.6 45.5-24.5 0 0 19.1-1.8 48.2-40 0 0 48.2-28.1 52.7 24.1 0 0-1.8 34.9-15.5 54-13.7 19.2 3.6 77.3 3.6 77.3z"/><path class="st10" d="M525.6 172.9c-29.1 26.5-68.9 56.2-114.5 72.3-41.4 14.6-88 7.3-127.6-5.6 46.4-45.8 110.2-74.1 180.5-74.1 21.2 0 41.9 2.5 61.6 7.4zM672.8 572.4C626.1 637.3 550 679.6 464 679.6c-35 0-68.4-7-98.8-19.7 73.1-33.9 168.7-72.4 243.2-82.1 23-3 44.6-4.7 64.4-5.4z"/><path class="st9" d="M546 260.8s2-16.5 18.1-13.1c0 0 .3 16.4-18.1 13.1zM545.1 259.4s-.7-15.2-15.7-13.2c0 0-1.4 15 15.7 13.2z"/><path class="st9" d="M545.6 252.9s6.3-5.6.2-11.3c0 0-6.9 4.6-.2 11.3z"/><path class="st9" d="M545.1 252.2h.8v22.1h-.8z"/><g><path class="st9" d="M579 238.5s6.7-56.2 61.7-44.6c-.1-.1 1.1 55.6-61.7 44.6zM577 238s-.1-57.5-56.8-52.3c0 0-7.9 56 56.8 52.3z"/><path class="st9" d="M577.6 215.1s25.3-22.6.7-45.7c.1 0-27.7 18.6-.7 45.7z"/><path class="st9" d="M576.1 209h2.9v75.2h-2.9z"/></g><g><path class="st11" d="M644.1 316.7s3.3-27.9 30.6-22.1c0-.1.6 27.6-30.6 22.1zM642.6 314.3s-1.2-25.7-26.5-22.3c0 .1-2.4 25.3 26.5 22.3z"/><path class="st11" d="M643.4 303.3s10.6-9.5.3-19.1c0 0-11.6 7.8-.3 19.1z"/><path class="st11" d="M642.6 302.1h1.4v37.3h-1.4z"/></g><g><path class="st12" d="M681.8 560.3h145.4v119.3H681.8z"/><path class="st13" d="m681.8 560.3 27.3 31.8h144.2l-28.7-31.8z"/><path class="st14" d="M610.1 560.1v119.5h71.7V560.3z"/><path class="st13" d="m680.3 560.1-31 32.3-69.9-1.6 30.7-30.7z"/><g><path class="st15" d="M723.4 526.7s-9.1-2.4-8.3-13.9c0 0-9.7-4.7-4.4-13.8 5.3-9 12.7-1.2 12.7-1.2l8.5-1s5-10.9 14.5-3.2c0 0 4.8 5.3-1 11.9 0 0 6.7 10.9-2.2 16.8 0 0 3.6-1 6.1 2.8 0 0 12.1-3.6 23 3.2 0 0 6.9 4 7.1 9.3.2 5.3-2 9.7-7.1 7.7l-9.3-9.9s-5.7-3-3 3c2.6 6.1 7.3 20.4 6.9 21.9s-52.1 2.5-52.1 2.5-5-13.3 1-19.4c0 0-4.8-.4-5.5 4.4s-1 15.1-8.5 11.1 0-18.8 0-18.8 2.6-8.5 15.8-7.9l5.8-5.5z"/><path d="M646 543.9c.3-.6-2.1-10.3 9.6-8.7s12.1 4.3 12.1 4.3 3.4.6 3.2-2.8c0 0-5.1-6.3 1.9-8.9 0 0 1.4-10.7 9-6.3 0 0 3.6 1.5 2.4 5.4l3.6 1.5s7.7-3.1 7.5 3.8c-.2 6.9-5.7 6.1-5.7 6.1s3.7 8.1-7.9 7.3c0 0 8.9 6.7 9.5 13.5 0 0-9.3 2.3-9.5 1.3s-1.5-5.5-1.5-5.5l-.9 5.3h-32.1s.2-13 10.7-15.8c0 0 1.4-1.8-4.2-1.2-5.6.5-7.7.7-7.7.7z" style="fill:#fbb040"/><path class="st17" d="M616.6 560.3s-6.3-13.2-1.8-16.9c0 0 12.7 1.2 11.3 16.9h-9.5z"/><path class="st13" d="m618.2 558.2-1.4-11.3s8.5 4.2 6.9 11.3h-5.5z"/><g><path class="st17" d="M630.7 560.1s-4.4-15.8 3.4-12.8c7.9 3 8.5 9.7 8.5 9.7l-4.4.2v3.1l-7.5-.2z"/><path class="st13" d="M633.1 560.1s-3.7-5 0-8.3 6.7 2.9 6.7 2.9l-2.8 2 .2 3.8-4.1-.4z"/></g></g></g><g><ellipse transform="rotate(-2.736 98.038 390.593) scale(1.00004)" class="st18" cx="98" cy="390.6" rx="13.9" ry="21"/><path d="M83.4 407.5s7.6-6.9 4.8-17c0 0 14.4 1 17.4-6.1 2.9-7.1 5.9-3.3 6.1 2.8s0 8.3 0 8.3 7.7-7.4 2.8-17.1c0 0-5.3-16.2-14.7-14.9s-12.3 2-12.3 2-15.3-13.3-23.8.8 0 18.6-11.7 26.3 2 17 2 17 7.7 6.5 1.6 16.6c0 0 2.4-10.9 12.5-13.3 0-.1 13.9 5.9 15.3-5.4z" style="fill:#442c19"/><path class="st18" d="M100.4 407.5s-3.2 9.3 0 12.9c0 0 7.2 5.3 5.7 11.9-1.5 6.7-15.1 7.3-24.4 2.4-9.2-4.8-9.8-10.1-10.5-12-.6-1.9 2.2-8.5 2.2-8.5s6.2 1.8 10.8-3.4l2.7-8.2 13.5 4.9zM103.9 452.4l9.7 20.3s7.6 10.9 18.8 13.3 27 3.3 27 3.3l10.3 3.3s5.8-6.1-9.1-9.1c0 0-23-5.1-32.1-17l-15.1-33.9-9.5 19.8z"/><path d="m92.7 501.5 3.9 36.4s0 44.5-3.9 59.7c-3.9 15.1 8.5 66.3 8.5 66.3H90.3S71.7 630 71.1 621.2c-.5-8.8 1-32.7-4.2-39.2-5.1-6.5-3-82.4-3-82.4l28.8 1.9z" style="fill:#e54854"/><path class="st21" d="m35.1 666.9-2.3 13.9h26.8s3.1-5.5-3.4-7c-6.6-1.5-7.8-3.9-7.8-3.9l-1.3-4.8-12 1.8zM91.5 665s-5.5 12.1-1.2 15.8h27.9s-.9-5.8-7.3-7.9c-6.4-2.1-9.4-5.5-9.7-6.1-.3-.6 0-3 0-3l-9.7 1.2z"/><path class="st22" d="M82.3 384.9c-1.1 0-1.9-.8-2-1.9-.7-16.6 5-17.7 6.2-17.8 1.1-.1 2 .8 2.1 1.9.1 1-.7 1.9-1.7 2.1-.3.1-3.1 1.9-2.6 13.7.1 1.1-.8 2-2 2 .1 0 .1 0 0 0zm4.5-15.7zm0 0zM39.1 496.9v54.2s5.4 39.7-1.7 53.3-3.8 62.4-3.8 62.4l13.5-1.8s2.6-39.7 9.1-52.7S66 590.8 67 581.9c0 0 17-57.4 16.4-72.3v-8.2l-44.3-4.5z"/><path d="M77.6 413.9s-5.1 11.8 5.5 16.7c10.6 4.8 18.4 4.6 17.9-2.7l-.5-7.4s13.7 4 15.7 14.9l-5.8 7.6s1.5 7.3-6.4 16.7-6 31.8-6 31.8 2.9 13.3-5.3 15.1-37.6 3.6-50.6-2.7c-13-6.4 5.1-21.5 5.1-21.5s10.7-17.3 10.1-30.9-1.7-25.3-1.7-25.3 3.1-14 15.6-12.2h6.4z" style="fill:#703dc1"/><path class="st18" d="M56.3 429.7c-.5-2 .8-4.1 2.8-4.6 5.3-1.2 14.5-2.8 15.6.9 1.7 5.3 10.3 34.9 10.3 34.9s5.8 14.7 12.9 17.9c7.1 3.2 21.6 11.6 21.6 11.6s19.1-2.4 21.2 4.2c0 0-3.6 6.7-8.8 6.7-5.1 0-14.5-3.9-14.5-3.9l-27-6.7S77.7 488 74 479.2c-3.6-8.8-15.1-37.3-15.1-37.3l-2.6-12.2z"/></g><g><path style="fill:#f1f2f2" d="m203.6 521.8 16.9 93.9-8.4 62.7h-48.5l-41.2-25.5-9.1-52.8 15.8-30.2-13-32.4 18.7-49.1z"/><path class="st7" d="m218.1 618.1-27.5 27.2 23.8 16zM120 540.2l42.7 25.2-10.6-19.7zM192.7 585.7s-13.9 23-35.7 24.2l27.3 3.3 8.4-27.5zM129.1 572.4l10.3 18.4-23.3 3.9zM163.6 678.4l-16.7-21.5-24.5-4zM201.5 521.8s-52.1-1.6-59.1-22.8c0 0-1.5-9.3-7.6-10.6 0 0 31.2-.3 40 7.3s26.7 26.1 26.7 26.1z"/><path class="st25" d="m163.6 513.4-.9-8.3s.3-6.6-7.8-5.6-8.9 5.6-8.9 5.6 6.9 7.5 17.6 8.3z"/><path style="fill:#939598" d="m201.5 521.8-15.3-15.4-10.2 3.7 3.8 9.3z"/><path d="M168.1 515s-5.4-6.5 0-9.9c0 0 .7-11.3 6.7-9.4 6 1.9 11.4 10.7 11.4 10.7l-5 4.5-1.4 8.5s-9.7-1-11.7-4.4z" style="fill:#f77e49"/></g><g><ellipse transform="rotate(-51.369 264.818 501.993)" class="st28" cx="264.8" cy="502" rx="15.6" ry="10.5"/><path class="st28" d="M258.8 513.4v8.4s6.5 6.2 12.7 2.1l2.1-11.1-14.8.6zM244.2 609v59.9s6.9 6.1 10.1 0c0 0 7.4-23.4 4.5-40.1l.7-19.8h-15.3z"/><path class="st28" d="m273.5 607.1 1.7 61.8s-6.1 4.4-7.7 0c-1.6-4.4-12.9-57.8-11.3-61.8h17.3z"/><path class="st29" d="M251.8 668.5s5.8 6.5 4.3 9.9c-1.5 3.4-26.9 1.3-26.9 1.3s-3.6-5.1 3.2-6.7l11.7-4 7.7-.5z"/><path class="st29" d="m267.6 668.9-15.8 8.1s-1.2 4.8 0 3.8 25.9 0 25.9 0l-2.4-11.9h-7.7z"/><path class="st28" d="m249.1 532.2-14.6-24.8s-8.8-7.5-6.2-8.4c2.6-1 7-2.1 7-2.1l8.9 10.5 20.3 24.8h-15.4z"/><path class="st17" d="M217.8 496.9s9.7 10.5 10 9.5c.2-1.1 11.9-9.5 11.9-9.5l-10.9-11.5-11 11.5zM215.5 481.5l-2.6 2.2h-6l-12.4 15.8s-1.6 2.8 1 5.6 6 4.8 6 4.8 3.2 1.9 5.5-1.6l10.9-14.1v-5.8l1.7-3-4.1-3.9z"/><path class="st21" d="M262 499.7s-7.2-15.1 0-18.3c0 0 0 2 8.4 3.2 8.5 1.2 16.9 5.3 12.7 16.8-4.2 11.5-13.5 12.6-13.5 12.6s-7.5.2-5.5-12.6l-2.1-1.7z"/><ellipse transform="rotate(-51.369 264.154 501.463)" class="st28" cx="264.1" cy="501.5" rx="4.1" ry="2.7"/><path class="st29" d="m244.6 576.2-4.8 34.5s29.5 4.2 37.6-1.7c0 0 6.1-21.7 2.4-30.2l-35.2-2.6z"/><path class="st28" d="M242.3 521.8s-12.6-4.4-16.7-9-12.5-13.3-12.5-13.3-6.1-11.4-12.9-4c0 0 1.4.8 6.8 6.5s13.2 22.4 18.3 25.1c5.1 2.7 17.1 7.7 17.1 7.7v-13z"/><path class="st17" d="M239.7 519.4V536s4.4.4 6.1 7.5l-3 35.7s29.2 9.3 40.3 2.4l-1.8-48.5s-1.8-9.5-7.8-11.4c-5.9-1.9-33.8-2.3-33.8-2.3z"/></g><g><path class="st17" d="M559.5 629s12.8.1 13.1-5.3 0-3.8 0-3.8-8.2-1.9-10.5 2c-2.4 4-2.6 7.1-2.6 7.1z"/><path class="st17" d="M568.8 631.1s-2.6-4.6 3.9-4.5c2 0 4 .1 6 .1 4.4 0 8.2-.1 8.2-.1l2.2 4.5h-20.3z"/><path class="st13" d="M573.5 622.4h11s3.7 4.7-1.5 4.7h-9.5s-4.2-3.1 0-4.7zM589 631.2s-2.8-4.4 1.4-7c4.2-2.6 1.2-4.3 1.2-4.3s3.2-3.3 4.7-.4 3.1 6.1 3.1 6.1l.5 5.5-10.9.1z"/><path d="M625 629.9s-4.1-7.9-7.2-9.9c-3.4-2.3-10 4.8-10 4.8l3 6.4 14.2-1.3z" style="fill:#f9d1b7"/><path class="st13" d="M608.3 624.8c1.9.2 7.8.3 9.5-4.8 0 0-6.7-4.2-9.8 4.2-.2.3 0 .6.3.6z"/><path d="M591.6 630.9s-2.1-3.3 1-5.2c3.1-1.9.9-3.2.9-3.2s2.4-2.5 3.5-.3c1.1 2.1 2.3 4.6 2.3 4.6l.4 4.2-8.1-.1z" style="opacity:.21;fill:#ecf5fc"/><path class="st13" d="m568.8 634.8-3.2.8-3.6.8-24.6-14.4s-1.7-3.2-.6-4.5c.5-.6 1.7-.9 4.1-.1l27.9 17.4z"/><path d="m568.8 634.8-3.2.8-28.8-18.1c.5-.6 1.7-.9 4.1-.1l27.9 17.4z" style="opacity:.14;fill:#f9d1b7"/><path class="st17" d="M647.9 629.9s-2-6.8-8.2-10.5c0 0 4.6-6.1 0-6.5s-7.8 0-4.6 5.3 0 3.1 0 3.1-8.2-2.4-9.3 2.5l-6.1 2.9-12.1.8s-6.8-.4-5.6 2.4c1.4 2.7 45.9 0 45.9 0z"/><path class="st13" d="M635.2 619.4s1.8 3.3 5.3.9l-.7-.9c-.1 0-2.8-.5-4.6 0z"/><g><path class="st17" d="m610.7 635.8-3 .3-2.8.3-15.9-31.1c.4-.6.8-1 1.2-1.3 2.6-2 4.4 2.9 4.4 2.9l16.1 28.9z"/><path d="m607.7 636.1-2.8.3-15.9-31.1c.4-.6.8-1 1.2-1.3l17.5 32.1z" style="fill:#d1d3d4"/></g><g><path class="st12" d="M585.9 628.8h62v50.9h-62z"/><path class="st13" d="m585.9 628.8 11.6 13.5H659l-12.2-13.5z"/><path class="st14" d="M555.3 628.7v50.9h30.6v-50.8z"/><path class="st13" d="M585.2 628.7 572 642.5l-29.8-.7 13.1-13.1z"/></g></g><path class="st34" d="M932.7 519.9s-3 8.7 1.4 10.7 8.9 2.1 9.5-2.8c.6-4.9-2.6-7.9-2.6-7.9l-1.6-3.6-6.7 3.6z"/><g><ellipse transform="rotate(-4.127 737.994 152.233)" class="st35" cx="738" cy="152.2" rx="11.5" ry="16.4"/><path class="st35" d="M738.1 165.3s5.6 9.5 0 12.7v12.7l21.5-5-.8-13.1s-2.7 1.2-4.9-2.6-5-12.7-5-12.7l-10.8 8zM727.3 185.8s-11.3 28.5-17.2 32.7c-5.9 4.2-25 10.9-25 10.9s-11.3 3.8-8.3 7.7c3 3.8 3 2.6 9.5 0s18.6-4.2 18.6-4.2 8.2.4 16.2-7.3 14.1-19 14.1-19l-7.9-20.8z"/><path class="st21" d="m745.2 242.7-3.2 66.4s3.2 21 3.2 29.9c0 8.9-8.9 48.3-8.9 48.3l8.9 2s11.7-17.6 16.8-35.7c5-18.2 2.2-30.3 2.2-30.3l.8-50.3-3.4-29.5-16.4-.8z"/><path d="M787 235.1s6.5 1.6 6.7 20.4-3.4 67.5-3.4 67.5-.6 5.9 2.4 9.3c3 3.4 7.7 24.7 4.6 43.3l-.6 13.9H787s-5.9-42.4-12.5-52.7c-6.7-10.3-7.7-16.8-7.3-22.2l-9.3-73.7 29.1-5.8z" style="fill:#373838"/><path class="st21" d="M787 389.4s-4.4 5.3-7.5 5.7c-3 .4-7.9 1.2-5.5 5h25.2l-2.6-10.7H787zM736.4 386.5l-5.3 6.1s-13.1.6-10.1 6.7h24.6l-.4-10.7-8.8-2.1z"/><path class="st15" d="M705.7 241s10.3 3.4 13.3 19.1c0 0 3 8.7-5.5 12.9-8.5 4.2-21.8 9.3-21.8 9.3s-13.7 4.6-16.6-7.5c0 0-1.6-6.1-7.9-9.3s-23.8-4.4-32.5 2.4l-2.8-1.8s7.1-6.9 15.3-8.5c8.3-1.6 26.9-1.8 26.9-1.8s2.4.6 4.2-4 7.5-3.2 7.5-3.2-.4-8.7 7.3-5.9c0 0 2.2 3.2 5.3 0 3-3.2 7.3-1.7 7.3-1.7z"/><path d="M677.8 259.7c-.3 0-.6-.1-.9-.2-.7-.3-1-1-1.1-1.7-.1-.2-.2-.6-.3-1.1-1.2-3.8-4.3-13.9-.6-20.8 1.6-2.9 4.2-5 7.7-6 15.6-4.6 26.5 12.2 27 12.9.6.9.3 2.1-.6 2.7-.9.6-2.1.3-2.7-.6-.1-.2-9.8-15-22.5-11.2-2.5.7-4.2 2.1-5.3 4.1-2.9 5.4-.1 14.4.9 17.7.5 1.7.7 2.2.3 3.1-.5.7-1.2 1.1-1.9 1.1zm-1.8-2.9z" style="fill:#c7493b"/><path class="st25" d="M633.4 269s-6.1 7.1-4 11.3c2 4.2 6.5 4 8.3-1.2-.1 0-.3-6.5-4.3-10.1z"/><path class="st38" d="M727 154.9s3.1-4.4 2.1-13.1c0 0 2.4-3.3 5 2s5.9 7.2 8.7 7.7 6.7 1.3 6.7 1.3l-.4 3.7s8.6.9 10.5-7.8-3.8-13.5-3.8-13.5 0-1.1 1.9-1.3c1.5-.1 2.7-1 3.3-2.3 1.5-3.3 2.7-9-4.8-12.5-10.9-5-10.7 6.7-10.7 6.7s-12.1-2.2-16.2 7.9c0-.2-8.2 8.5-2.3 21.2z"/><path class="st22" d="M739.9 173.7s-11.4 2.2-14.2 13.1l8.9 24.4s6.1 20 6.7 32.9c0 0 9.1 4.2 25 1.2 16-3 21.2-6.5 21.2-6.5s5.9-2.8.8-11.3c-5-8.5-8.5-7.4-11.5-17.5 0 0-2.6-24.3-.2-30.1 2.4-5.9-2.2-10.9-6.7-11.3s-16.6 0-16.6 0 3.5 7.9-2.3 11.7c-6 3.9-11.1-6.6-11.1-6.6z"/><path class="st35" d="M762.8 180.7s12.8-3.3 12.7 7.7c0 1.2-10.1 28.5-11.5 31.3-1.4 2.8-2.4 10.1-11.7 12.9-9.3 2.8-26.7 8.1-26.7 8.1s-10.3 1-13.1 4c0 0-12.7 2.4-10.3-3.2s13.7-6.5 13.7-6.5l9.7.2 23.2-13.5s2.7-1.9 4.1-5.8 9.9-35.2 9.9-35.2z"/><ellipse transform="rotate(-63.11 747.035 153.81)" class="st35" cx="747.1" cy="153.8" rx="3.6" ry="2.8"/></g><g><path d="M851.8 467.5s-1.8 18.2-4.4 23.3c-2.6 5.2-19 32.4-19 32.4s3.4 6.5 6.5 5.9c3-.6 23.3-19.5 26.9-30.8l1.6-4.4-11.6-26.4z" style="fill:#ef9b06"/><path class="st34" d="M832.9 529.2s.8 7.9-4.4 11.3c-5.3 3.4-11.5 1.4-11.5 1.4s-5.9-3.6-2.5-7.8 6.5-5 8.7-4.9 5.3-5.9 5.3-5.9l4.4 5.9z"/><path class="st8" d="m795.7 522.1 40.2 25.6s2.6 2 7.3 1.8c4.6-.2 8.3 1.4 8.3 1.4s1.8-1.4-.8-2.2l-2.6-.8 11.1-7.4s-9.9-1.2-13.1 1.8l-8.1-.4-30.7-18.4c-.1 0-9.6-5.9-11.6-1.4z"/><ellipse transform="rotate(-24.133 841.693 422.171)" class="st34" cx="841.7" cy="422.2" rx="10.3" ry="13.7"/><path class="st40" d="M830.8 418.7s-9.3-.3-8.1-6.6c1.2-6.3 7.3-10.7 17.6-12.7s16.4-3.6 18.5 4.8c2.1 8.5-1.4 20.5-1.4 20.5s-2.1 2.7-4.5.8l-.6-5.1s1.7-3.9-2.1-4.5l-2.7 2.1s-2.5 1.3-4.6-2.8c0 0-.5-2.5-3.6-1.7-3.3.7-8.5 5.2-8.5 5.2z"/><path class="st34" d="m845 433.2 10.5 14.3s8.5-9.3 9.1-14.3l-15.8-10.7-3.8 10.7z"/><path class="st41" d="m875.1 535.7 8.5 130.8h14.5s10.1-47.7 10.5-69.9c.4-22.2 5.3-71.1 5.3-71.1l-38.8 10.2z"/><path class="st41" d="M884.4 535.7s21.4 62.9 36.8 85.5l22.5 40 10.6-4.4s-9.7-65.4-14.9-69.5c0 0-15.8-25.8-17-43.8-1.2-18-3-23.1-3-23.1l-35 15.3z"/><path class="st40" d="m898.1 666.5-2 13.2-25.9-.1s-2.8-2.6 4.8-4.6 10.9-8.5 10.9-8.5h12.2zM943.6 661.2s-1.1 12.1-4.3 13.7c-3.2 1.6-5.4 6.5-1.7 6.9 3.7.4 10.2.4 13.8-6.9 3.6-7.3 5.7-8.5 5.7-8.5s1.6-8.9-2.8-9.7c-4.5-.7-10.7 4.5-10.7 4.5z"/><ellipse cx="849.6" cy="418.7" rx="3.3" ry="4.4" style="fill:#ffb288"/><path d="M859.4 431.8s5.2-6.4 17.3 3.2c12.1 9.7 39.6 30.9 39.6 30.9s10.7 7.5 14.7 21 8.3 29.7 8.3 29.7l-6.7 3.8-12.3-21.4-2-2.4 4.2 19.2s3 9.5-6.1 13.1c-9.1 3.6-37.2 11.5-37.2 11.5h-8.7s.3-28.1-11.2-46.3l-12-31.7s-.6-14.5 4.3-19.4c.2.1 8.7 1 7.8-11.2z" style="fill:#feac02"/></g><path class="st38" d="M983.9 686.5H8.2c-1.1 0-2.1-.9-2.1-2.1v-2.8c0-1.1.9-2.1 2.1-2.1h975.7c1.1 0 2.1.9 2.1 2.1v2.8c0 1.2-.9 2.1-2.1 2.1z"/></svg>