<svg version="1.1" id="Layer_1" xmlns="http://www.w3.org/2000/svg" x="0" y="0" viewBox="0 0 1000 704.4" style="enable-background:new 0 0 1000 704.4" xml:space="preserve"><style>.st2{fill:#1a2e35}.st4{opacity:.26}.st5{fill:#808285}.st6{fill:#e89f95}.st7{fill:#ff4c53}.st9{fill:#feac02}.st10{opacity:.45}.st11{fill:#231f20}.st13{opacity:.89;fill:#fff}.st16{fill:#ea9706}.st17{fill:#ffad03}.st18{fill:#161515}.st19{opacity:.49}.st20{fill:#424b4c}.st23{fill:#f9ccb9}.st24{fill:#7546c1}.st25{fill:#fff}.st28{fill:#58595b}.st30{fill:#ffbba9}.st31{fill:#f1f2f2}.st34{fill:#bcbec0}.st35{fill:#375763}.st36{fill:#192f35}.st37{fill:none;stroke:#1a2e35;stroke-miterlimit:10}.st40{fill:#e6e7e8}.st41{fill:none;stroke:#fff;stroke-width:2;stroke-miterlimit:10}.st42{fill:#939598}</style><path d="M53.4 474.2S3.1 276.1 65.5 160.7 250.9 18.5 308.8 31.6c211.6 48.2 356.1-50.2 484.8-8.8C922.8 64.3 899 157.7 987.2 387c39.4 102.5-13.9 190.9-132.7 253.7-153.4 81-382.1 45-559.5 26.5-224.2-23.5-241.6-193-241.6-193z" style="fill:#cfb5f6"/><path d="M80.7 470S33.4 286.1 92.1 178.9s174.5-132.1 229-119.8c199.1 44.7 335.1-46.6 456.2-8.2C898.8 89.5 876.5 176.2 959.4 389c37.1 95.2-13 177.3-124.9 235.5C690.2 699.7 475 666.3 308 649.1 97.1 627.4 80.7 470 80.7 470z" style="opacity:.51;fill:#fff"/><path class="st2" d="M105 527.4h842.7v5.5H105z"/><ellipse cx="517.7" cy="634.9" rx="288.8" ry="14.5" style="opacity:.18;fill:#1a2e35"/><g class="st4"><path class="st5" d="M821.4 202.5h103.2v330.4H821.4zM832.1 168.9H873v33.2h-40.9z"/><g><path class="st5" d="m694 530.2 2.9-208.9 77.7.6v-15.5h17.7v-9.6h18.5v-6.9h34.7v240.3z"/><path class="st5" d="M810.3 248.7h1v44.4h-1zM775.8 258.8h1v51.3h-1zM758.2 267.7h1v53.6h-1z"/><path transform="matrix(1 -.00586 .00586 1 -1.688 4.442)" class="st5" d="M703.7 289.8h107v1h-107z"/><path class="st5" d="m707 298.5-.1-1 84.9-1.2v-37.5h1v38.4zM707.7 305.9h66.9v1h-66.9z"/></g></g><g class="st4"><path class="st5" d="m420.7 63.8 2.1-.1L442 258.1h-30.5l9.2-194.3zm1.4 14.4-8.4 177.9h26L422.1 78.2z"/><path class="st5" d="m304.2 140.6 379 2.1 37.9 31.7H296.4l7.8-33.8zm378.3 4.1-376.6-2.1-6.8 29.6h416.4l-33-27.5z"/><path class="st5" d="m682.5 144.7.6-2-261.6-80-117.1 78.1 1.2 1.7L421.9 65z"/><path class="st5" d="m343.2 175.1 23.5-31.4 24.3 31.2 27-31.1 22.7 31.2 27.8-30.9 25.3 30.7 36.9-31.7 28.7 31.7 31.6-29.7 30.6 29.7 31.6-31.2 29.6 31.2 17.3-18.5-1.5-1.4-15.8 16.9-29.6-31.1-31.6 31.1-30.6-29.6-31.5 29.6-28.7-31.6-36.8 31.6-25.4-30.9-27.7 30.7-22.8-31.1-27 31.2-24.4-31.5-23.4 31.3-20-31.1-26.4 32.2 1.6 1.4 24.6-30.1z"/><path class="st5" d="m361.2 175 30.7-31.8 24.6 31.8 24.3-29.7 24.8 29.5 28.3-29.7 34.9 29.6 30.5-29.5c9.1 9.4 28.7 29.2 31.6 29.2 2.8 0 19.5-17.9 29.7-29.1l27.6 29.5L678 150l28 24.1 1.4-1.6-29.4-25.2-29.6 24.6-27.8-29.7-.8.8c-12.4 13.7-26.8 28.7-29 29.3-2-.6-17.4-15.5-30.7-29.3l-.7-.7-30.7 29.7-34.9-29.6-28.1 29.5-24.9-29.7-24.2 29.6-24.5-31.8-30.5 31.5-17.3-29.7-25 29.8-15.9-20.3-1.6 1.3 17.5 22.4 24.7-29.5 17.2 29.5z"/><path class="st5" d="m413.1 258 29.6-16.6-28.5-23.9 22.4-18.3-18.8-20.6 15.2-14.3-13.5-21.7 10.9-4.8-9.8-21.7 7.5-5.6-6.9-10.7 3.9-11.1-2-.7-4.3 12.1 6.5 9.9-7.3 5.4 9.6 21.4-11.1 4.9 13.8 22.3-15.5 14.5 18.8 20.5-22.6 18.5 28 23.5-26.9 15.2z"/><path class="st5" d="m435.3 257.9 1.5-1.6-21.6-20.5 23.5-17.1-21.9-20 17.6-20.1-15.4-21.8 13-4.3-12.2-20.8 8.2-10.3-7.6-11.8-1.8 1.2 6.8 10.4-8.1 10.3 11.6 19.9-13.2 4.3 16 22.8-17.8 20.4 21.5 19.6-23.4 17.1z"/></g><ellipse transform="rotate(-11.706 358.286 170.528)" class="st6" cx="358.3" cy="170.6" rx="27.5" ry="38.6"/><path class="st6" d="M334.4 174.6v53.5s24.3 21.3 38.3-5.3l-4-24.7-34.3-23.5z"/><path class="st7" d="M305.1 218.9c-15.6-4.5-34.7 80.8-34.7 80.8s-5.3 11.6 0 22.7l12.9 38.2 25.3-9.8L298 317s-4.7-7.6 3.2-13.8l5.2 17.3s26.7-20 7.6-66.3l-8.9-35.3zM334.9 210.4s-11.4 2.8-11.5 3.9c-.1 1.1 35 44.5 35.8 44.5s18.2-45.4 18.2-45.4l-6.7-1.9s-1.2 17.6-17 17.7c-.1-.1-20.8-.7-18.8-18.8zM394.5 218.7s13.6 4.4 14.8 20.4 2.1 135.8 2.1 135.8l-16.9-5.6V218.7z"/><path d="m301.3 364.8-18 248.2h31.4l16.4-111.4s8.3-19.3 9-32 10.3-55.4 10.3-55.4.7-5.3 3.2 6.7S369.4 613 369.4 613h34.5l-1-248.1c.1-.1-74.4 15.3-101.6-.1z" style="fill:#4670ae"/><path class="st2" d="M285.9 613.1s-5.8 18.5 0 19.9c5.8 1.3 47.8 7.3 47.8 7.3s10.2-.2 2-6-21.6-13.1-21.6-13.1l-.2-8.2-28 .1zM371.4 613v23.3l55.4.9s2-4.2-3.6-5.6L401 623s-.4-.9-.7-2.7c-.2-1.8-1-7.3-1-7.3h-27.9z"/><path class="st9" d="M397.2 219.2v152.1s-40.9 14.2-60 5.3c0 0-26.7-1.7-31.1 2.9l-.4-11.4-.6-15.7-.2-5.4-.6-16-.5-14.8s16-12.9 12.9-32c-3.1-19.1-15.4-65.3-15.4-65.3l26.6-6.5 32.2 38.4s14.6-22.8 10.9-39.4c0 0 18.2 2.5 26.2 7.8z"/><path class="st6" d="M409.3 373.4s-3.9 10.6-12.2 14.2-14.5-8-14.5-8 4.4-10.6 11.9-10.3c7.4.3 4.7 1 4.7 1l10.1 3.1z"/><g class="st10"><path class="st11" d="M328.9 380.5c0 3.3-.8 6.7-2.2 9.8-.7 1.6-1.6 3-2.6 4.4-1 1.4-2.3 2.6-3.6 3.7-2.7 2.2-5.9 3.7-9.2 4.4-3.3.8-6.7.9-10 .4 3.3-.3 6.6-.9 9.6-1.9.8-.2 1.5-.6 2.3-.8.7-.3 1.5-.6 2.2-1 1.4-.7 2.8-1.6 4-2.6 2.5-2 4.5-4.5 6.1-7.3 1.4-2.8 2.6-5.8 3.4-9.1z"/></g><g class="st10"><path class="st11" d="M378 375.8c1 2.5 2.2 4.9 3.7 7 1.5 2.1 3.4 4 5.5 5.3.5.4 1.1.7 1.7 1 .6.3 1.1.6 1.7.8l1.8.7c.6.1 1.3.3 1.9.5l1 .2 1 .1 2 .3c1.3.1 2.7.1 4 .3-1.3.3-2.7.6-4 .7h-3.1l-1-.1-2.1-.3-2-.6c-.7-.2-1.3-.5-1.9-.8-.6-.3-1.3-.6-1.9-1-.6-.4-1.2-.8-1.7-1.3s-1.1-.9-1.5-1.5l-1.3-1.6c-.4-.6-.8-1.2-1.1-1.8-1.6-2.4-2.5-5.1-2.7-7.9z"/></g><path d="M334.4 379.6c1.7.2 3.3.4 5 .5 1.7.2 3.3.3 5 .5 3.3.3 6.7.5 10 .7 3.3.1 6.7.2 10 .1.8 0 1.7-.1 2.5-.1s1.7-.1 2.5-.2 1.7-.1 2.5-.2 1.7-.2 2.5-.3c-3.2.9-6.6 1.3-10 1.6-3.4.3-6.7.2-10.1.1-3.4-.2-6.7-.5-10.1-.9-3.2-.6-6.5-1.1-9.8-1.8z" style="opacity:.45;fill:#231f20"/><path class="st13" d="M397.5 365.2h-.3c-5.6-.1-81.8-1.4-91.6 3l-.6-19.5h91.2l.9 12.1.4 4.4zM397.5 338.5h-.3c-5.7-.1-86.3-1.4-92.2 3.4h-.1l-.6-19.9h92l.9 12.1.3 4.4z"/><path class="st11" d="M301.2 303.3c.2-2.3.5-4.6.9-6.9.4-2.3.9-4.5 1.4-6.7l1.8-6.6c.7-2.2 1.4-4.4 2.4-6.5-.2 2.3-.5 4.6-.9 6.9-.4 2.3-.9 4.5-1.4 6.7-.6 2.2-1.2 4.4-1.9 6.6-.6 2.2-1.3 4.3-2.3 6.5z" style="opacity:.48"/><path class="st6" d="m286.6 359.7 14.7 28.6s7.3 9.1 7 12.1c0 0 12.7 2.7 17.2-13.9l-3.3-6.9s8.1 1.4 10.7-3.1c0 0-3.6-.7-9.5-1.6-5.9-.9-12.4-4.5-13.6-5.6s-8.5-16.1-8.5-16.1l-14.7 6.5z"/><path d="m329.7 164 27.2-11.6-9 12.6 22.2-10.2s12.3-4 13.8 8.7c2.5 20.9 6.7-26.8-2.5-28.9-9.4-2.1-24.6-10.9-40.2 3.3 0 0-9.3-.2-7.5 5.3 1.8 5.5-4 20.8-4 20.8z" style="fill:#111"/><path class="st16" d="M350.3 121.1v-5.6s8.9-2.1 15.7 0v5.6h-15.7z"/><path class="st9" d="M331.1 154v-23.1s11-13.9 28.9-12.5c17.9 1.5 23.2 10.4 23.2 10.4s5.2 15 3 23.3c0 0-19.5-10-55.1 1.9z"/><path class="st17" d="M386.8 158.3c-2-.2-3.8-.9-3.8-.9-4.1-6.3-13.7-5.8-13.7-5.8-28.1-1.8-35 7.5-35.1 7.8-16.8-3.8-1.3-9.3-1.3-9.3s5.8-4.4 27.2-5.3c21.4-.9 31.5 6.6 31.5 6.6 1.6 6.3-1.8 7.2-4.8 6.9z"/><path class="st18" d="M386.8 159.3c-2-.2-3.8-.9-3.8-.9-4.1-6.3-13.7-5.8-13.7-5.8-28.1-1.8-35 7.5-35.1 7.8 0-.4 1.3-11.1 25.8-11.1 25-.1 26.8 10 26.8 10z"/><g class="st19"><path class="st20" d="M337 148.3c.9-2.1 1.9-4.2 3-6.3l1.5-3.1c.5-1 1-2.1 1.6-3.1l.2-.4h.4c2.4-.1 4.8-.1 7.3-.2 2.4-.1 4.8-.1 7.3-.1h7.3c2.4 0 4.8.1 7.3.1h.4l.2.2c2 2.1 4.1 4.2 6.1 6.3 2 2.1 4 4.2 5.9 6.4-2.3-1.8-4.5-3.8-6.6-5.7-2.2-1.9-4.3-3.9-6.5-5.9l.6.2c-2.4 0-4.8.1-7.3.1h-7.3c-2.4 0-4.8 0-7.3-.1-2.4 0-4.8-.1-7.3-.2l.6-.4-1.8 3-1.8 3c-1.3 2.3-2.6 4.2-3.8 6.2z"/></g><g class="st19"><path class="st20" d="M353.6 121.1c.3 1.2.5 2.3.5 3.5.1 1.2.1 2.3 0 3.4s-.2 2.3-.4 3.4-.5 2.3-1 3.4c-.3-1.2-.5-2.3-.5-3.5-.1-1.2-.1-2.3 0-3.4s.2-2.3.4-3.4c.2-1.2.5-2.3 1-3.4z"/></g><g class="st19"><path class="st20" d="M362.9 120c.5 1.3.9 2.6 1.2 4 .3 1.3.5 2.7.6 4 .1 1.3.2 2.7.2 4 0 1.4-.1 2.7-.4 4.1-.5-1.3-.9-2.6-1.2-4-.3-1.3-.5-2.7-.6-4-.1-1.3-.2-2.7-.2-4 .1-1.3.2-2.7.4-4.1z"/></g><path style="fill:#1c2d35" d="m329.7 164 4.7 6.6 9.2-12.5z"/><ellipse transform="rotate(-20.615 334.373 174.543)" class="st6" cx="334.4" cy="174.6" rx="7.3" ry="9.8"/><g><path class="st2" d="M605.8 618.3s1.8 8-4 11.1c-5.8 3.1-13.3 4.9-13.3 4.9s-4.4 3.5 0 4.9c4.4 1.4 36.3 0 36.3 0l-.1-20.9h-18.9z"/><path d="M567.9 422.6s-3.7 19.6 7.7 51.1l9.8 35.6s7.9 28.5 8.8 42.7 10.2 68.9 10.2 68.9h20.3l-2.9-89.8-7.5-100.3-46.4-8.2z" style="fill:#d1394b"/><path class="st2" d="M634.8 616.5s-2.5 11.3-6.3 12.1c-3.8.8-12 3.3-9.8 7 2.2 3.7 11.1 3.5 11.1 3.5h22.7s2.7-21.8 0-22.7c-2.7-.8-17.7.1-17.7.1z"/><path class="st7" d="m592 429.2 14.2 73.5s1.3 19.6 16.9 45.4c0 0 5.3 20.5 5.3 43.6l2.7 26.7h22.2s7.8-59.1 1.9-77.8c-5.9-18.7-5-53.5-5-53.5l.9-38.8s3.6-5.6 2.2-14.5l-61.3-4.6z"/><ellipse transform="rotate(-82.733 599.285 217.755)" class="st23" cx="599.3" cy="217.8" rx="31" ry="21.8"/><path class="st23" d="M592 238.1s1.2 27.1 4.1 30.2c3 3.1 33.2-11.5 33.2-11.5l-14.2-30.7-23.1 12z"/><path class="st24" d="m625.8 249.2-26.5 13.2-6-6.6-4 4.9v28.1l40-30z"/><path class="st9" d="M625.3 256.8s26.2 0 30.2 16c0 0 6.2 1.3 4.4 28.9s-2.2 100.8-2.2 100.8 3.1 29.1-2.7 38.8c0 0-20.5-9.3-35.6-7.1s-53.7-7.6-53.7-7.6l5.5-136.7s5.3-21.5 10.3-24.2 10.3-8.3 10.3-8.3V283l33.5-26.2z"/><path class="st24" d="m614.3 318.5 15-42.6s11.1-24.4 25.3-5.8c0 0 2.2 54.1-2.2 73.7h-19.1l8-22.2-27-3.1zM578.6 271.4s-10.4 4.1-12.7 11.6l5.5 10.5 7.2-22.1z"/><path class="st25" d="M658.3 357.8s-13.3 1.7-26.5-5-62.9-2.2-62.9-2.2l-.6 13.8 45.9 2.4s14.9-.8 24.1 3.3 19.7 2.7 19.7 2.7l.3-15zM657.9 386.2l-90-9.4v18.3l89.9 7.3z"/><path d="m614.3 185.6 17.5 18.2s4.4 1.2 2.9 8.2c0 0 4.8.7 6.6 5.8 0 0 9.3 5 2.7 12 0 0 3.6 9.2-2.7 13.2s-14.1 2.3-15.5 6.3l-8-17.3s1.3-9.6-1.4-12.6-3.5-12.8-3.5-17.7c0-4.9-12.6-6.7-12.6-6.7l-11.8 1.8-6.9 7.1s-6 19.5-3 26.9 13.9 16.7 13.9 16.7l.3 4s-9 0-14.3-10.3c0 0 .9-6.2-4-8.9s-3.4-22.1 0-30.7c3.4-8.6 5.8-11.8 17.3-14.8 11.7-3 22.5-1.2 22.5-1.2z" style="fill:#352019"/><path d="M614.3 318.5s-6.1 11.5-21.1 15.3-17.6 2.4-17.6 2.4l3 21.5h31.1s22.3 3.4 23.6-13.9l8-22.2-27-3.1z" style="fill:#edbfb0"/><path class="st23" d="M584.4 335.8s22.2-1 31.6 0 18.8-.8 17.3 8.1-10.1 13.9-16.9 13.9-23.7-2.7-23.7-2.7h-14.5l-2.6-18.8 8.8-.5z"/><path class="st16" d="m598 167.9.1-5s8.8-1.6 15.4.4l-.1 5-15.4-.4z"/><path class="st9" d="m578.3 196.6.6-20.5s11.2-12.1 28.7-10.2 22.5 9.9 22.5 9.9 4.7 13.4 2.3 20.7c0 0-18.9-9.4-54.1.1z"/><path class="st17" d="M632.2 202.5c-2-.2-3.8-.9-3.8-.9-4-5.9-13.7-5.8-13.7-5.8-28.4-2.4-35.7 5.9-35.8 6.1-16.9-4-1.1-8.6-1.1-8.6s6-3.9 27.7-4.1c21.7-.2 31.8 7 31.8 7 1.4 5.9-2.1 6.6-5.1 6.3z"/><path class="st18" d="M632.8 203c-1.9-.2-3.7-.9-3.7-.9-3.9-5.7-13.3-5.6-13.3-5.6-27.5-2.4-34.5 5.7-34.7 5.9 0-.4 1.6-9.8 25.6-9.2 24.6.8 26.1 9.8 26.1 9.8z"/><g class="st19"><path class="st20" d="M584.2 191.7c1-1.8 2-3.7 3.1-5.5l1.6-2.7c.5-.9 1.1-1.8 1.6-2.7l.2-.3h.4c2.4 0 4.8 0 7.1.1 2.4 0 4.8.1 7.1.1 2.4 0 4.8.2 7.1.2 2.4.1 4.8.2 7.1.3h.3l.2.2c1.9 1.9 3.9 3.8 5.8 5.7 1.9 1.9 3.8 3.9 5.6 5.9-2.2-1.7-4.3-3.5-6.4-5.2-2.1-1.8-4.1-3.6-6.2-5.4l.6.2c-2.4 0-4.8 0-7.1-.1-2.4-.1-4.8-.1-7.1-.2-2.4-.1-4.8-.1-7.1-.3-2.4-.1-4.8-.2-7.1-.4l.6-.3c-.6.9-1.2 1.7-1.8 2.6l-1.8 2.6c-1.3 1.8-2.5 3.5-3.8 5.2z"/></g><g class="st19"><path class="st20" d="M601.2 168c.3 1 .4 2.1.4 3.1s0 2-.1 3.1c-.1 1-.3 2-.5 3-.3 1-.6 2-1.1 3-.3-1-.4-2.1-.4-3.1s0-2 .1-3.1c.1-1 .3-2 .5-3 .3-1 .6-2 1.1-3z"/></g><g class="st19"><path class="st20" d="M610.4 167.4c.5 1.2.8 2.4 1 3.5.2 1.2.4 2.4.5 3.6.1 1.2.1 2.4.1 3.6 0 1.2-.2 2.4-.5 3.6-.5-1.2-.8-2.4-1-3.5-.2-1.2-.4-2.4-.5-3.6-.1-1.2-.1-2.4-.1-3.6.1-1.2.2-2.4.5-3.6z"/></g></g><g><path class="st28" d="M451.9 621s1.3 3.3-4 6.3-15.6 5.9-15.6 5.9-2.2 2.2 0 3.6 40.5 1.1 40.5 1.1l-.7-16.9h-20.2zM499.3 623v14.9h42.9s.2-4.5-5.6-6-15.9-6.1-15.9-6.1l-.8-2.8h-20.6z"/><path d="M422.6 429.2c-1.8 2.8 10.6 98.4 10.6 98.4s-1.3 34.7 7.6 60.5c0 0 4 35.1 5.3 35.1h27.6l11.6-148.5s6.4-7.1 5.6 3.1c-.7 10.2 4.6 148 4.6 148h30.8s3.4-17.2 9.2-31c5.8-13.8 3.1-50.7 3.1-50.7l10.7-112.7-126.7-2.2z" style="fill:#2b2b2b"/><ellipse transform="rotate(-78.691 492.118 211.962)" class="st30" cx="492.1" cy="212" rx="34.5" ry="22.5"/><path class="st30" d="M485.2 238.9v23.6s30.8 12.5 36.1-11.8l-3.1-42.9-33 31.1z"/><path class="st31" d="M513.5 219.3s9.4-10.4 12.8-.5c0 0 6.8-14.5 0-24.3 0 0-13-25.7-37.5-19.3-24.5 6.4-21.8 21.6-21.8 21.6l4.4 5.8s5-4.9 7.2-8c2.2-3.1 11.1-8 13.5-4.4 2.5 3.6 3.4 3.1 7.8 1.8s6.7 4.9 6.7 4.9l7.1-1.9 1.4 9.3-1.6 15z"/><path class="st25" d="M480.8 248.7s19.8 28.5 40.4 0l5.2 2.3s-29.1 45.3-26 100.9.9 74.7.9 74.7h-45.8l15.6-98.7 6.7-55.6 3-23.6z"/><path class="st2" d="M420.8 426.6v9.4l125.8-1.8v-7.6z"/><path d="M452.1 431.5v49.4s-7.5 16.5-23.6 8.7c-16.1-7.8-19.1-14.9-19.1-14.9v-22.2l7-1.8 1.8-9.3 4.9-.3-.4-11.8 29.4 2.2z" style="fill:#385e8c"/><path class="st25" d="M413.2 455.1c2.7 1.3 5.4 2.5 8.2 3.4 2.8.9 5.7 1.6 8.6 2 2.9.3 5.8.2 8.5-.7 1.3-.5 2.6-1.1 3.6-2 1.1-.9 2-2 2.7-3.1l1.3-1.9.5 2.2c.8 3.8 1.4 7.6 1.7 11.5.2 1.9.3 3.9.2 5.8-.1 2-.2 3.9-.8 5.9-.3 1-.7 2-1.5 2.8-.7.7-1.4 1.4-2.1 2-1.5 1.3-3.2 2.4-5 3.1-1.8.7-3.9 1.1-5.8.9-2-.2-3.8-.9-5.4-2 1.7.8 3.6 1.4 5.4 1.4 1.9 0 3.7-.4 5.4-1.2 1.7-.8 3.2-1.9 4.5-3.2.7-.6 1.3-1.3 1.9-2 .5-.6.8-1.4 1.1-2.3.4-1.7.6-3.6.6-5.5s-.1-3.8-.3-5.6c-.4-3.8-1-7.5-1.7-11.2l1.7.3c-.9 1.3-1.9 2.6-3.2 3.6-1.3 1-2.7 1.7-4.2 2.2-3 1-6.2.9-9.2.5-3-.5-5.9-1.4-8.7-2.6-2.8-1.3-5.5-2.7-8-4.3z"/><path class="st25" d="M435 460.4v-10.7s9.3-6.7 3.1-13.8c0 0-2.4 14.3-6.8 7.1v-7s-7.6 3.1-4.2 8.9l3.4 5.8-.1 9.8h4.6z"/><ellipse transform="rotate(-78.691 521.302 217.798)" class="st30" cx="521.3" cy="217.8" rx="7.8" ry="5.1"/><path class="st16" d="m490.6 157 .4-5.6s9.5-1.4 16.6 1.2l-.4 5.6-16.6-1.2z"/><path class="st9" d="m468.9 188.4 1.7-23.1s12.7-13.1 31.5-10.2c18.8 2.8 23.8 12.1 23.8 12.1s4.4 15.3 1.5 23.5c-.1 0-20.1-11.4-58.5-2.3z"/><path class="st17" d="M526.2 197.5c-2.2-.3-4.1-1.2-4.1-1.2-4.1-6.9-14.6-7.1-14.6-7.1-30.7-4-39 5-39.2 5.3-18.2-5.2-.8-9.7-.8-9.7s6.7-4.1 30.3-3.4c23.6.7 34.2 9.3 34.2 9.3 1.3 6.6-2.6 7.3-5.8 6.8z"/><path class="st18" d="M526.4 197.9c-2.1-.3-3.9-1.2-3.9-1.2-3.9-6.6-14-6.9-14-6.9-29.5-3.9-37.5 4.9-37.7 5.1.1-.4 2.2-10.9 28.1-9.1 26.4 1.9 27.5 12.1 27.5 12.1z"/><g class="st19"><path class="st20" d="m474.5 183.1 3.6-6 1.8-3c.6-1 1.2-2 1.9-3l.2-.3h.5c2.6.1 5.1.2 7.7.4 2.6.1 5.1.3 7.7.5 2.6.2 5.1.4 7.7.6 2.6.2 5.1.4 7.7.7h.4l.2.2c2 2.2 4 4.5 6 6.7 2 2.3 3.9 4.5 5.8 6.9-2.3-2-4.4-4.1-6.6-6.2-2.2-2.1-4.3-4.2-6.4-6.3l.6.3c-2.6-.1-5.1-.3-7.7-.4-2.6-.2-5.1-.3-7.7-.5-2.6-.2-5.1-.4-7.7-.6-2.6-.2-5.1-.5-7.7-.7l.7-.3c-.7.9-1.4 1.9-2.1 2.8l-2.1 2.8c-1.5 1.7-3 3.6-4.5 5.4z"/></g><g class="st19"><path class="st20" d="M494 157.3c.3 1.2.3 2.4.3 3.5 0 1.2-.1 2.3-.3 3.4-.2 1.1-.4 2.3-.7 3.4-.3 1.1-.7 2.2-1.3 3.3-.3-1.2-.3-2.4-.3-3.5 0-1.2.1-2.3.3-3.4.2-1.1.4-2.3.7-3.4.4-1.1.7-2.3 1.3-3.3z"/></g><g class="st19"><path class="st20" d="M504 156.9c.5 1.3.7 2.7.9 4 .2 1.3.3 2.7.4 4 .1 1.3 0 2.7-.1 4.1-.1 1.4-.3 2.7-.7 4.1-.5-1.3-.7-2.7-.9-4-.2-1.3-.3-2.7-.4-4 0-1.3 0-2.7.1-4.1.2-1.3.3-2.7.7-4.1z"/></g><path class="st9" d="M482.1 281.2c1.3 9.8-22.1 150.3-22.1 150.3l-43.2-2.7-2-26.6-1.1-14.3-.5-6.4s5.3-110.1 11.1-117.7c.6-.7 1.2-1.5 1.9-2.2 3.2-3.3 7.5-6.5 11-8.9 2.6-1.8 5.6-3 8.7-3.6 1.6-.3 3.3-.5 4.9-.5h34.4c-5.1 3-4.4 22.8-3.1 32.6zM521.2 248.7s-32 58.2-26.8 110.3l-.6 70.3 61.7 2.2s-2.2-139.2 0-139.2h15.6s-4.4-22.7-18.7-29.4c-14.2-6.6-31.2-14.2-31.2-14.2z"/><path class="st13" d="m448.5 400.9-33.7 1.3-1.1-14.3h32.9z"/><path class="st25" d="M473.7 248.7c-3.7 6.2-10.9 19.1-11.7 27.2l-12.8-4.2s-2.5-10.3 10.8-23.1h13.7zM441.3 268.3l-15.1-6.6c3.2-3.3 7.5-6.5 11-8.9 2.6-1.8 5.6-3 8.7-3.6-2.3 5.9-5.1 14.4-4.6 19.1zM539 256.8s-11.4 9.8-11.5 33.8l11.5 2.6s5.5-22.9 10.4-30.8l-10.4-5.6zM559.5 268.3l-14.7 25.1 26.3-1.1s-4.4-18.7-11.6-24z"/><g><path d="m351.3 226.1 103.8 46 87.4 19.7 51.6-3.2-3.1 142.5L466.8 417 418 377.9l-55.1-12.3s8.8-68.5-6.8-105.4l-4.8-34.1z" style="fill:#a7a9ac"/><path class="st25" d="m353.6 229.8 101.9 44.8 85.8 19.1 50.7-3.1-3.1 138.7L467 415.6l-47.9-38-54.1-12s8.6-66.6-6.7-102.5l-4.7-33.3z"/><path class="st34" d="M411.4 268.3c1 8.3 1.9 16.7 2.6 25.1.8 8.4 1.5 16.7 2.1 25.1.6 8.4 1.2 16.7 1.7 25.1.5 8.4.9 16.8 1.1 25.2-1-8.3-1.9-16.7-2.6-25.1-.8-8.4-1.5-16.7-2.1-25.1-.6-8.4-1.2-16.7-1.7-25.1-.4-8.4-.8-16.8-1.1-25.2zM452.1 281.2c1.4 10.4 2.6 20.8 3.8 31.3 1.2 10.4 2.2 20.9 3.2 31.3 1 10.4 1.9 20.9 2.8 31.4.9 10.5 1.6 20.9 2.3 31.4-1.4-10.4-2.6-20.8-3.8-31.3-1.2-10.4-2.2-20.9-3.2-31.3-1-10.4-1.9-20.9-2.8-31.4-1-10.4-1.7-20.9-2.3-31.4zM539.9 297.4c.4 10.1.6 20.1.8 30.2.2 10.1.2 20.1.2 30.2 0 10.1-.1 20.1-.2 30.2-.1 10.1-.4 20.1-.8 30.2-.4-10.1-.6-20.1-.8-30.2-.2-10.1-.2-20.1-.2-30.2 0-10.1.1-20.1.2-30.2.2-10.1.5-20.1.8-30.2z"/><path class="st30" d="m593.8 318.5-15.6 7.1s-8 9.8 0 12c8 2.2 13.8 0 13.8 0s8-6.6 1.8-19.1zM355.8 265.7s17.8 1.2 18.7 13.3c0 0 2.7 12.5-9.3 11.6 0 0-8.9-2.2-9.3-9.3-.5-7.2-.1-15.6-.1-15.6z"/></g></g><g><path class="st2" d="M783.1 639.8H671.9v-70.2h102.3z"/><path class="st2" d="M742.4 570.1c-5.1-7.5-10.5-11.3-16.1-11.3h-.1c-9.6.1-16.8 11.2-16.8 11.3l-1.6-1c.3-.5 7.8-12.1 18.4-12.2 6.4-.1 12.4 4 17.9 12.2l-1.7 1z"/><path class="st35" d="M671.9 573.8c3.6 3 7.4 5.7 11.4 8.1 4 2.4 8.2 4.4 12.5 6 4.3 1.6 8.8 2.8 13.4 3.3 4.6.6 9.2.6 13.7-.1 4.5-.6 9-1.9 13.2-3.8 2.1-.9 4.2-1.9 6.3-3l6.3-3c8.4-4 16.9-8 25.5-11.8-8.2 4.5-16.5 8.9-24.8 13.1l-6.2 3.2c-2.1 1.1-4.1 2.1-6.3 3.1-4.3 1.9-8.9 3.3-13.7 4-9.5 1.4-19.2-.2-27.9-3.8-4.4-1.7-8.6-4-12.5-6.6-3.9-2.5-7.6-5.3-10.9-8.7z"/><path class="st35" d="M783.1 639.8h-10.6l1.5-70.1v-.1h.2z"/></g><g><path class="st2" d="M850.4 457c-.8 0-1.5-.7-1.5-1.5v-24c0-.8.7-1.5 1.5-1.5s1.5.7 1.5 1.5v24c0 .9-.7 1.5-1.5 1.5z"/><path class="st36" d="M883.7 449.7h13.2v7.8h-13.2z"/><path class="st2" d="M895.1 527.5H782.3c-8.3 0-15.1-6.7-15.1-15.1 0-8.3 6.7-15.1 15.1-15.1h112.8c8.3 0 15.1 6.7 15.1 15.1-.1 8.3-6.8 15.1-15.1 15.1z"/><circle class="st28" cx="783" cy="514.2" r="13.2"/><circle class="st28" cx="896.9" cy="514.2" r="13.2"/><path class="st9" d="M796.2 491.6h128.4v-27c0-4.5-3.7-8.2-8.2-8.2h-70v-15.1h-39.1l-11 32s-26.4 3.3-18.4 13.7h18.4v4.6z"/><path class="st28" d="M796.2 491.6h128.4v5.7H796.2z"/><path class="st2" d="m694 252.5-12.3-13.8s-17.4 7.8-2.6 10.8l14.9 3z"/><path transform="rotate(-42.057 798.963 350.436)" class="st2" d="M798 214.1h1.9v272.7H798z"/><path class="st36" d="M805.7 445.8h5.1l-5.1 24h-8.3zM819.2 445.8h12.9l-3.1 20.6s-.4 4.6-3.3 5.1-14.9 0-14.9 0l8.4-25.7z"/><path class="st37" d="M845.5 460.4v19.1s1.1 9.8-6.8 9.3c-7.9-.4-32.8 0-32.8 0M890.3 463.1h23.2M890.3 466.5h23.2M890.3 469.8h23.2M890.3 473.2h23.2"/><path transform="rotate(-23.645 734.925 326.477)" class="st2" d="M722.4 325h25.1v2.9h-25.1z"/><path class="st2" d="m721 272.5 6.7-1.1s5.3-8.7 10.6.5c0 0 .2 7.3-5.3 5.4l-4.6 9.5-7.4-14.3zM677.8 249.2h1v48.2h-1zM674.7 297.4h6.1v6.1h-6.1z"/><path class="st9" d="M665.2 302.8h22.9l-10.2 24.8z"/><path d="M674.7 334.4s4.4 3.7 5.8-.4c.6-1.8.1-3.8-1.2-5.2l-1-1.2" style="fill:none;stroke:#1a2e35;stroke-width:3;stroke-linecap:round;stroke-miterlimit:10"/><path class="st2" d="M715.9 302.8h-.1c-.5-.1-.9-.6-.8-1.1l3.9-30.4c.1-.5.6-.9 1.1-.8.5.1.9.6.8 1.1l-3.9 30.4c-.1.4-.5.8-1 .8zM787.2 467.4h-.3c-.5-.1-.8-.7-.7-1.2l9.9-34.1-41-16.9 15.4-41.6c-5.5-2.2-33.9-13.6-36-14.7-.9-.5-2.1-1.1 3.2-19.9 2.1-7.4 4.3-14.7 5.1-17.1l-28.5-13.8c-.5-.2-.7-.8-.5-1.3.2-.5.8-.7 1.3-.5l30 14.5-.3.8c-5 15.6-9.7 32.9-9.2 35.5 2.9 1.4 24.9 10.2 36.5 14.8l.9.4-15.4 41.6 40.9 16.9-10.4 35.8c-.1.6-.5.8-.9.8z"/><path transform="rotate(-23.393 785.734 438.677)" class="st2" d="M773.2 437.3h25.3v2.9h-25.3z"/><path class="st2" d="M725.8 330.4h-.2c-.5-.1-.8-.6-.7-1.2l7.2-30.5c.1-.5.6-.8 1.2-.7.5.1.8.6.7 1.2l-7.2 30.5c-.1.4-.5.7-1 .7z"/><path transform="rotate(-24.133 747.397 355.082)" class="st2" d="M732.7 353.6h29.5v2.9h-29.5z"/><path class="st2" d="M746.5 385.3c-.1 0-.2 0-.4-.1-.5-.2-.7-.8-.5-1.3l14.4-35.3c.2-.5.8-.7 1.3-.5.5.2.7.8.5 1.3l-14.4 35.3c-.1.4-.5.6-.9.6zM774.2 442.3c-.1 0-.2 0-.3-.1-.5-.2-.8-.7-.6-1.2l13-38.8c.2-.5.7-.8 1.2-.6.5.2.8.7.6 1.2l-13 38.8c-.1.4-.5.7-.9.7zM732.4 295.4c-.2 0-.3 0-.5-.1l-27.6-16.9c-.5-.3-.6-.9-.3-1.3.3-.5.9-.6 1.3-.3l27.6 16.9c.5.3.6.9.3 1.3-.2.3-.5.4-.8.4zM703.5 276l-1.2-3.3 15.5-6.1 1.2 3.3z"/><path transform="rotate(-25.53 723.864 299.963)" class="st2" d="M713.7 298.5H734v2.9h-20.3z"/><path class="st2" d="m744.4 389.6-1.3-2.9 30-14.3 1.3 2.9z"/><path transform="rotate(-27.315 772.067 409.298)" class="st2" d="M754 407.9h36.1v2.9H754z"/><path class="st2" d="M760.3 348.7c-.1 0-.2 0-.3-.1l-34.5-12.4c-.5-.2-.8-.7-.6-1.2.2-.5.7-.8 1.2-.6l34.5 12.4c.5.2.8.7.6 1.2-.1.4-.5.7-.9.7zM785.4 401.7h-.3l-40.5-13.1c-.5-.2-.8-.7-.6-1.2.2-.5.7-.8 1.2-.6l40.5 13.1c.5.2.8.7.6 1.2-.1.4-.4.6-.9.6zM802.5 455.9c-.1 0-.2 0-.3-.1l-27.7-9.8c-.5-.2-.8-.7-.6-1.2.2-.5.7-.8 1.2-.6l27.7 9.8c.5.2.8.7.6 1.2-.1.4-.5.7-.9.7zM715.2 259.3l-1.8.8-12.8 5.7-1.8.8-.1-.3c-1.5-1.5-12-12.4-10.6-21.2.6-3.3 2.7-5.9 6.5-7.7.5-.3 2.4-1.5 5.2-.7 5.3 1.5 10.3 8.8 14.9 21.8l.5.8z"/><path class="st2" d="M797.1 426.3c-7.8-23.8-18.3-45-18.4-45.3l-63.5-121.7-.5-1c-4.6-12.9-9.6-20.3-14.9-21.8-2.8-.8-4.7.3-5.2.7-3.7 1.8-5.9 4.4-6.5 7.7-1.5 8.8 9.1 19.7 10.6 21.2l.1.3L743 388c5.9 27.1 21.8 42.5 23.4 43.9l24.7 43.1.7-.2c5.2-1.3 11.8-20.3 13.1-24.1l.1-.3-7.9-24.1zm-3.2 47.5L768 431l-.1-.1-.1-.1c-.2-.1-16.9-15.3-22.9-43.1v-.1l-44.3-121.8-.2-.4-.1-.2-.2-.2c-.1-.1-11.5-11.4-10.2-19.7.4-2.7 2.2-4.8 5.4-6.3l.2-.1s.8-.6 2.2-.6c.4 0 .9.1 1.5.2 3.2 1 8.2 5.3 13.5 20.6v.1l.5 1L776.7 382c.1.2 10.6 21.3 18.3 45l7.7 23.7c-2.4 7.8-5.5 20.9-8.8 23.1z"/></g><g class="st4"><path class="st5" d="M91.2 226.1H252v301.4H91.2z"/><path style="fill:#606060" d="M77.9 217.8h186.8v8.3H77.9z"/><path class="st40" d="M193.3 258.8H236v34.7h-42.7z"/><path class="st5" d="M89 225.9h85.4v301.4H89z"/><path class="st40" d="M193.3 321.3H236V356h-42.7zM193.3 389.2H236v34.7h-42.7z"/><path class="st41" d="M91.2 305.7H252M89.9 380.9h160.8M89 453.6h160.8"/><path class="st25" d="M125.1 265.9h13.3v27.5h-13.3zM125.1 328.5h13.3V356h-13.3zM125.1 396.4h13.3v27.5h-13.3z"/><g><path class="st31" d="M215.1 218.3H201l8.9-90.4h1l4.2 90.4zm-13-1h12.1l-3.9-82.7-8.2 82.7z"/><path class="st31" d="M268.7 179.3H71.2l17.6-14.7 176.2-1 3.7 15.7zm-194.8-1h193.6l-3.2-13.8-175.1 1-15.3 12.8z"/><path class="st31" d="m89.2 165.5-.3-.9 121.6-37.2 54.4 36.3-.5.8-54.1-36z"/><path class="st31" d="M246.9 179.7 236 165l-11.3 14.6-12.5-14.5-10.6 14.5-13-14.4-11.7 14.3-17.1-14.7-13.4 14.7-14.7-13.8-14.2 13.8-14.7-14.5L89 179.5l-8-8.6.7-.7 7.3 7.9 13.8-14.5 14.7 14.5 14.2-13.7 14.6 13.7 13.4-14.7 17.1 14.7 11.8-14.3 12.9 14.2 10.6-14.5 12.5 14.5 11.4-14.6 10.9 14.6 9.3-14.5 12.3 15-.8.6-11.4-14z"/><path class="st31" d="m238.5 179.6-14.3-14.8-11.4 14.8-11.3-13.8-11.5 13.7-13.2-13.8-16.2 13.8-14.2-13.7c-4.2 4.3-13.3 13.6-14.7 13.6-1.3 0-9-8.3-13.8-13.5l-12.8 13.7L91.2 168l-13 11.2-.6-.7 13.7-11.7 13.7 11.4 12.9-13.8.4.4c5.8 6.4 12.5 13.3 13.5 13.6.9-.3 8.1-7.2 14.3-13.6l.3-.3 14.3 13.8 16.2-13.8 13.1 13.7 11.6-13.8 11.3 13.7 11.4-14.7 14.2 14.7 8-13.8L258 178l7.4-9.5.8.6-8.1 10.4-11.5-13.7-8.1 13.8z"/><path class="st31" d="m214.4 218.2-13.7-7.7 13.2-11.1-10.4-8.5 8.7-9.6-7-6.7 6.2-10.1-5-2.2 4.5-10.1-3.5-2.6 3.3-5-1.9-5.1.9-.4 2 5.7-3 4.6 3.5 2.5-4.5 9.9 5.1 2.3-6.4 10.4 7.2 6.7-8.7 9.6 10.5 8.6-13 10.9 12.5 7z"/><path class="st31" d="m204.1 218.1-.7-.7 10-9.5-10.9-8 10.2-9.3-8.2-9.3 7.2-10.2-6.1-1.9 5.7-9.7-3.8-4.8 3.5-5.5.8.5-3.1 4.9 3.8 4.8-5.4 9.2 6.1 2-7.4 10.6 8.2 9.5-9.9 9.1 10.8 8z"/></g><g><path class="st42" d="M215.1 218.3H201l8.9-90.4h1l4.2 90.4zm-13-1h12.1l-3.9-82.7-8.2 82.7z"/><path class="st42" d="M268.7 179.3H71.2l17.6-14.7 176.2-1 3.7 15.7zm-194.8-1h193.6l-3.2-13.8-175.1 1-15.3 12.8z"/><path class="st42" d="m89.2 165.5-.3-.9 121.6-37.2 54.4 36.3-.5.8-54.1-36z"/><path class="st42" d="M246.9 179.7 236 165l-11.3 14.6-12.5-14.5-10.6 14.5-13-14.4-11.7 14.3-17.1-14.7-13.4 14.7-14.7-13.8-14.2 13.8-14.7-14.5L89 179.5l-8-8.6.7-.7 7.3 7.9 13.8-14.5 14.7 14.5 14.2-13.7 14.6 13.7 13.4-14.7 17.1 14.7 11.8-14.3 12.9 14.2 10.6-14.5 12.5 14.5 11.4-14.6 10.9 14.6 9.3-14.5 12.3 15-.8.6-11.4-14z"/><path class="st42" d="m238.5 179.6-14.3-14.8-11.4 14.8-11.3-13.8-11.5 13.7-13.2-13.8-16.2 13.8-14.2-13.7c-4.2 4.3-13.3 13.6-14.7 13.6-1.3 0-9-8.3-13.8-13.5l-12.8 13.7L91.2 168l-13 11.2-.6-.7 13.7-11.7 13.7 11.4 12.9-13.8.4.4c5.8 6.4 12.5 13.3 13.5 13.6.9-.3 8.1-7.2 14.3-13.6l.3-.3 14.3 13.8 16.2-13.8 13.1 13.7 11.6-13.8 11.3 13.7 11.4-14.7 14.2 14.7 8-13.8L258 178l7.4-9.5.8.6-8.1 10.4-11.5-13.7-8.1 13.8z"/><path class="st42" d="m214.4 218.2-13.7-7.7 13.2-11.1-10.4-8.5 8.7-9.6-7-6.7 6.2-10.1-5-2.2 4.5-10.1-3.5-2.6 3.3-5-1.9-5.1.9-.4 2 5.7-3 4.6 3.5 2.5-4.5 9.9 5.1 2.3-6.4 10.4 7.2 6.7-8.7 9.6 10.5 8.6-13 10.9 12.5 7z"/><path class="st42" d="m204.1 218.1-.7-.7 10-9.5-10.9-8 10.2-9.3-8.2-9.3 7.2-10.2-6.1-1.9 5.7-9.7-3.8-4.8 3.5-5.5.8.5-3.1 4.9 3.8 4.8-5.4 9.2 6.1 2-7.4 10.6 8.2 9.5-9.9 9.1 10.8 8z"/></g></g></svg>