<svg version="1.1" id="Layer_1" xmlns="http://www.w3.org/2000/svg" x="0" y="0" viewBox="0 0 1000 792.5" style="enable-background:new 0 0 1000 792.5" xml:space="preserve"><style>.st1{opacity:.46;fill:#e4d4fa}.st2{fill:#e6e7e8}.st3{fill:#fff}.st5{fill:#244084}.st7{fill:#6b6b6b}.st8{fill:#e8ab69}.st10{fill:#7e3f12}.st11{fill:#f9c984}.st12{fill:#3b2828}.st14{fill:#466eb5}.st16{fill:#616161}.st21{fill:#232121}.st22{fill:#a87869}.st23{fill:#e08119}.st25{fill:#8520ec}.st26{fill:#f7961d}.st27{fill:#54af86}.st28{fill:#46916b}.st29{fill:#8ab79d}.st30{fill:#414042}.st32{fill:none}.st33{fill:#3c3c3d}.st34{fill:#6b82c0}.st35{fill:#f1a583}.st37{fill:#ef4923}.st38{fill:#f8a585}.st41{fill:#f8b0a1}.st42{fill:#f34624}</style><path style="opacity:.51;fill:#6b82c0" d="M1378.5 625.3h1000v115.6h-1000z"/><path class="st1" d="M1378.5 81.4h1000v543.9h-1000z"/><path class="st2" d="M1673.2 81.4h406.9v367.1h-406.9z"/><path class="st3" d="M1682.7 89.9h388v350h-388z"/><path class="st2" d="M1870.5 89.9h12.3v350h-12.3z"/><path class="st2" d="M1682.7 260.3h388v9.3h-388z"/><path class="st1" d="m1682.7 369.9 277.5-280h75.7l-353.2 350zM1742.8 439.9c6.9 0 327.8-312.4 327.8-312.4v93.6l-226.1 218.8h-101.7z"/><ellipse cx="1870.2" cy="680.7" rx="478.7" ry="22.7" style="opacity:.13;fill:#231f20"/><path class="st5" d="M1393.4 336.7s5.4-5.5 9.9-2c4.6 3.5 19.9 29.5 23.8 53.8 0 0 6.1 20.6 5 33s2.8 30.4-13.5 31l-25.2-115.8z"/><path style="fill:none;stroke:#e8ab69;stroke-width:5;stroke-linecap:round;stroke-linejoin:round;stroke-miterlimit:10" d="m1435 519.7-39.9-183"/><path class="st5" d="M1436.5 523s-11-25.6 26.4-30.3c27.2-3.4 52.7-2.7 64.4-2.1 6.1.3 12 2 17.3 4.9 8.7 4.7 19.1 13.5 15.4 27.6h-123.5z"/><path class="st7" d="M1442.6 520.1v60.4s1.3 37-11.6 80.1c0 0-9.8 25.7-12.5 29.4l3.1 2.4s18.9-35.8 22.2-62.1l6.2-81 1.5-29.7-8.9.5zM1551 520.1v60.4s-1.3 37 11.6 80.1c0 0 9.8 25.7 12.5 29.4l-3.1 2.4s-18.9-35.8-22.2-62.1l-6.2-81-1.5-29.7 8.9.5zM1493.7 520.1h7.9l-3.7 172.3h-1.8z"/><path class="st8" d="M1432.8 515.9h127.8v8.4h-127.8z"/><path class="st7" d="M1442.5 587.5h104.6v4.2h-104.6z"/><g><path d="m1501.3 349.4 31.5 57.2s10.4 11.9 23.5 6.4l60.5-9.5s15-.6 19.6-7c4.6-6.4 5.5-15.6-4.9-12.8-6.9 1.8-10.3.5-11.8-.7-1-.7-2.3-.9-3.5-.4-2.1.8-5.2 2.8-7 7.2l-45.4 5.8s-14.2-1.5-18.2-10.4-27.2-46.2-27.2-46.2l-17.1 10.4z" style="fill:#e2af6d"/><path class="st10" d="m1497.9 213 13.7 18.7s3.4 18.6 2.8 29c-.6 10.4-14.3 21.4-10.5 34.9s12.4 40.1-16.4 51.4c-14.5 5.7-29 5.7-39.9 4.2-11.6-1.5-22.2-7.6-29.4-16.9-5-6.4-9.7-14.3-9.9-20.9-.3-13.8-6.4-18 18-41 17.1-16 19.3-31 19-38.6-.1-4.1 1.1-8.2 3.3-11.7 3.5-5.4 8.8-13 14.1-17.3 8.9-7.3 30.9-2.5 30.9-2.5l4.3 10.7z"/><ellipse class="st11" cx="1489.1" cy="240.7" rx="23.4" ry="34.1"/><path class="st11" d="M1471.3 262.8v37.4l-1.4 9.8 17.7 29 23.5-9.2-14.4-39.1-7.6-.3s-2.1-15.3 0-22.3c2.1-7.1-17.8-5.3-17.8-5.3zM1580.3 657.7s-2.3 8 1.6 14.2 12.6 17.4 16.7 15.4c4.1-2.1 0-12.2 0-12.2l-5.5-19.7-12.8 2.3z"/><path class="st12" d="M1598.5 674.2s5.9 13.8-5.6 6.4l-12.8-17.4s-4.3 3.3-3.4 8.3l1.1 19.9h1.6v-8.8s.4-2.7 1.5-3.8c5.6 6.8 15 15.6 15 15.6s11.7 8.2 14.2 3.4c2.6-4.8-11.6-23.6-11.6-23.6z"/><path class="st11" d="M1680.4 618.4s1.1 8.3 7.1 12.4 18.5 11 21.5 7.5-4.8-11.2-4.8-11.2l-12.9-15.9-10.9 7.2z"/><path class="st12" d="M1703.6 626.4s10.9 10.3-2.6 8.1l-18.6-11s-2.6 4.8.1 9l8.9 17.9 1.5-.6-3.5-8.1s-.7-2.6-.2-4.1c7.8 4.1 20 8.4 20 8.4s14 2.9 14.4-2.5c.5-5.5-20-17.1-20-17.1z"/><path d="M1545 491.2s34.9 6.9 33.9 23.8c-.9 17-4.6 57.3-4.6 57.3l1.4 90.3h25.5l17.7-107.3s19.8-41.7 0-50.9c-19.8-9.2-36.3-22.5-36.3-22.5l-37.6 9.3z" style="fill:#3e67a3"/><path class="st14" d="M1442.8 440.6s-12 22.2 3.6 41.4c15.6 19.3 76.1 21.1 76.1 21.1s43.8.2 70.6-3c26.8-3.2 36.5 11.9 33.7 22s16.7 40.6 16.7 40.6l31.6 66 21.6-13.3-33.4-93.1-11.1-32.1s.5-25.4-18.3-28.3c-18.8-2.9-87.1-13.3-87.1-13.3l-35.2-17.7-68.8 9.7z"/><path d="m1476.4 291.9-20.7 10.7s-17 2.2-16.3 18.4 8.3 44.3 9.6 44.6c1.2.3 14.4-6.7 22.2-10.4l-17.3 52.9-12.5 36.8s57.2 13.3 81.9-9.9c0 0-9.8-35.5-5.2-51.4 4.6-15.9 8.6-20.5 8.6-20.5s7.3-9.2 0-19.9-17.1-33.9-17.1-33.9-1.8-20.2-10.4-20.2-10.1 1.2-10.1 1.2 16.2 18.3 10.1 26.6c-6.2 8.3-25.7 2.8-22.8-25z" style="fill:#ef505d"/><path class="st10" d="M1497.9 221s-4.9 9.8-14.4 18c-9.5 8.3-8.3 29.2-8.3 29.2s5.4 41.6-6.3 49.2c-1.2.8-2.5 1.6-3.6 2.5-3.4 2.7-11.6 7.7-23 4.5-15.3-4.3 21.4-115.9 21.4-115.9l23.8-6.1s14.4.1 19 8.9 5.1 20.5 5.1 20.5l-13.7-10.8z"/><path class="st16" d="m1656.1 372 16.1 15.3c1.6 1.6 1.3 4.3-.8 5.3l-74.7 38.1c-1.7.9-3.8.1-4.5-1.7l-9.4-22.6c-.7-1.6.1-3.5 1.7-4.2l68-30.8c1.2-.6 2.6-.3 3.6.6z"/><path class="st3" d="m1654.9 371.9 14.3 14.1c1.5 1.4 1.1 3.9-.7 4.9l-66.2 35.1c-1.5.8-3.3.1-4-1.5l-8.4-20.8c-.6-1.5.1-3.2 1.5-3.9l60.2-28.4c1.1-.6 2.4-.3 3.3.5z"/><path class="st16" d="m1657.8 377.9 5.1-2.2c.6-.4 1.5-.3 2.1.2l3.5 3.2c.8.7.7 2.1-.2 2.7l-4.3 2.9-6.2-6.8z"/><path d="M1666 376.7s2-4.7 5.3-1.7c3.1 2.8-3.9 4-3.9 4" style="fill:none;stroke:#616161;stroke-width:2;stroke-linecap:round;stroke-miterlimit:10"/><path style="fill:none;stroke:#616161;stroke-width:2;stroke-linecap:round;stroke-linejoin:round;stroke-miterlimit:10" d="m1569.2 348.7 40.5 35.4"/><path class="st11" d="m1449 365.6 27.8 57.2s7.9 14.4 26 3.7c18-10.7 76.4-39.4 76.4-39.4s13.8 3.2 22-13c0 0-2.8-12.1-12.3-8.8s-14.9 6.2-16.7 10.2c-1.8 4-7.9 4.6-7.9 4.6l-59.3 19.8s-12.8 5.2-15.9 2.4c-3.1-2.8-17.8-47.1-17.8-47.1l-22.3 10.4z"/></g><g><path class="st8" d="M1788.5 613.7s-6.9 54.6-22.9 67.4c0 0 1.4 9.2 22.9-16.1 0 0 18.8-33.5 26.6-59.2l-26.6 7.9zM1823.4 600.7s-7.3 40.1-19.7 49.6c0 0-6.4 6.9 3.7 3.7 0 0 35.3-36 37.1-53.3h-21.1zM2159.1 605.9l23.8 5.4s6.4 39.6 19.7 45.5l-6.4 2.3s-26.6-20.7-37.1-53.2zM2207.2 615h26.6s3.7 53.2 21.1 67.7l-5 2c0 .1-40.4-32.1-42.7-69.7z"/><path class="st8" d="M1723.7 587.5s6.2 20.4 33.2 21.7c0 0 70.5-8.9 94.4-15.9 4.1-1.2 8.5-1.4 12.6-2.5 25.5-6.8 102.9-12 117.2-11.3 18.3.9 97.7-2.8 145.4 10.9 0 0 80.7 12.1 96.8 16.1l26.6 2v11.2s-55.9 3.8-89.9-8.4c0 0-81.6-18.7-94.9-15.9 0 0-133.5-6-164.2.9l-84.8 15s-58.2 16.4-74.3 9c0-.1-24.3-.4-18.1-32.8z"/><path d="m1765.6 532.5-42 55s-15.2 38.1 96.5 12.5c98.6-22.6 176.1-20.7 176.1-20.7l83.5 2.9 84.9 15.2 51.7 8.4 33.5 2.5s4.1-80 33-116.2l78.7-113.3s20-49.1 0-53.2c0 0-11.7-11.9-25.5 8.7 0 0-87.6 95.8-88.5 114.2l-32.1 79.8s-3.7 27.1-20.6 13.3c0 0-86.7-22.5-163.7-22 0 0-105 .9-137.6 15.1.1.1-123.8 33.1-127.9-2.2z" style="fill:#8299cc"/><path d="M1816.1 492.1s-50.4 22.4-50.4 40.4c0 23.8 52.2 15.7 52.2 15.7s45.3-3.7 83.8-15.3c8.5-2.6 17.3-4.3 26.1-5.1 26-2.3 80.6-6.8 117-7.6 10.3-.2 20.6.4 30.9 1.9 25.4 3.6 77.4 10.6 103.5 16.9 5.3 1.3 10.5 3.2 15.4 5.6 5.7 2.8 18 5.2 23.3-22.3 0 0 39.7-101.7 69.7-132.2l61.3-67.9-99.5-3.9-90.8 147.4s-245.4 3.4-246.7 3.4c-1.4.1-95.8 23-95.8 23z" style="fill:#213a78"/></g><g><path class="st21" d="M2244.5 293.1s4.9-8.6 17.4-8.6c12.5 0 30.9 11.3 32.7 29 1.8 17.7-5.8 41-5.8 41s-3.4 14.1 7.6 33.6c0 0 5 27.2-18.3 37s-36.7-2.4-36.7-2.4-18.1-14.4-15.3-42.8.6-28-5.8-36c-6.4-8 2.8-34.3 13.5-39.5 10.7-5.2 7-2.8 8.9-7l1.8-4.3z"/><ellipse transform="rotate(-60 2250.897 326.401)" class="st22" cx="2250.9" cy="326.4" rx="31.9" ry="21.2"/><path class="st21" d="M2244.5 299.2s7.7 9.5 6.3 17.4c-1.4 7.9 8.1 9.7 8.1 9.7s7.6 5 2.9 12.2c0 0 2.2-.3-5.1 12.4-7.3 12.8-13.5 22.1.4 39.4 13.8 17.3 27.8-2.1 27.8-2.1l4-75.8-23.5-22-20.9 8.8z"/><ellipse transform="rotate(-30 2262.378 340.094)" class="st22" cx="2262.4" cy="340" rx="7" ry="4.7"/><path class="st22" d="M2238.4 348.4v21.2l-20.2 6.1 10.1 15.8 22.5-7s-6.2-16.8 2.9-35.1l-15.3-1zM2008.2 393.1s9.5-2.5 27.8 4.4 60.8 24.9 60.8 24.9l7.3 3.1-4.6 19.4-56.9-19.7-24.8-15-9.6-17.1z"/><path class="st23" d="m2173 399.2-38.5 17.4s-20.5 10.7-37.6 5.8l-6.7 19.6s-.3 12.5 14.4 15.9c14.7 3.4 44.2-13.7 44.2-13.7l35-28.8-10.8-16.2z"/><path class="st22" d="M1887 512.7s-4.6 7-11.8 8-21.4 1.8-22.6-2.7c-1.1-4.5 9.2-7.9 9.2-7.9l18.6-8.7 6.6 11.3z"/><path class="st12" d="M1862.7 509.7s-14.3 4.5-1.3 8.4l21.6-1.7s.3 5.4-4.1 8l-15.9 12.1-1-1.2 6.7-5.7s1.8-2 2-3.6c-8.8.2-21.6-1.2-21.6-1.2s-13.9-3.5-11.9-8.6c2-5 25.5-6.5 25.5-6.5z"/><path d="M2127.7 448.6s-28.1.4-43.7-15.3l-78-50.3s-19.6-11.6-31.8 0-40.8 43.3-40.8 43.3l-67.9 68.6 19.1 24.2 76.4-74.2 18.8-11.4s8.9-8.3 14.4-1.5c5.5 6.7 30.9 28.4 30.9 28.4l43.7 32.7s37.9 6.1 48.3-4c10.3-10.1 10.6-40.5 10.6-40.5z" style="fill:#6b17cc"/><path class="st22" d="M1795.2 521.8s-9.2.7-14.8-5.2c-5.6-6-15.5-18.7-12.2-22.9 3.3-4.3 13 2.9 13 2.9l19.8 11-5.8 14.2z"/><path class="st12" d="M1784.2 499.2s-14.7-10-8.9 4.4l17.3 18.4s-4.9 3.8-10.5 1.6l-23-6.4.4-1.7 10.3 2.3s3.2.3 4.8-.6c-6.6-7.8-14.6-20.4-14.6-20.4s-6.8-14.9-.6-16.4c6.2-1.5 24.8 18.8 24.8 18.8z"/><path class="st25" d="M2152.2 509s-19.6 12.8-38.8 10.1l-131.8-24.2-37.5-8.3s-15.1-3.7-33.1 4.6-69.1 20.8-69.1 20.8l-48 10.1-7.3-24.5 68.8-19.9 55.9-22.3s23.2-11 40.4-8.9l117.7 6.1s45.9.1 56.6-4.1l26.2 60.5z"/><path class="st26" d="m2240.3 369.4-59 13s-19.3-1.2-17.1 19.3l-15 33.3-32.1 16.5s26.9 45.2 25.7 67.6l56.3-36.4s51.6-38.9 55.8-54.2c0 0 17-20.4 9.6-29.3-7.3-8.9-13.6-18.8-13.6-18.8s-6 9.9-14.9 3.8c0 0-4.9-7.3 4.3-14.8z"/><path class="st23" d="M2236 395.2s18.8-12.2 21.6 9.8c0 0 6.5 5.6-14.6 23.8s-52.9 34.9-52.9 34.9-7.3 1.9-19.9-1.7c-1.5-.4-23.1-16.9-23.1-16.9s10.2-7.9 12.1-11.7c1.8-3.8.4 1.9.4 1.9s12.1 7.4 28 .7c0 0 34.2-26.3 34.5-27.2.4-1 13.9-13.6 13.9-13.6z"/><path class="st22" d="m2166.6 437.8-42.9-29.1s-6.4-4-7.9-9.5-8.6-18.6-8.6-18.6-2.8-1.5-1.8 1.8c.9 3.4 5.5 6.7-1.8 7-7.3.3-20.8-14.1-20.8-14.1s-5.2 5.8-1.2 14.1 19.9 17.2 19.9 17.2 10.7 5.1 13.5 9.7l37 32.3 14.6-10.8z"/></g><g><path class="st27" d="M2238.6 604.7s16.1-16-4.2-17.6c-20.4-1.6-22.3 17.6-28.2 21.1s-11.4 13.8-11 25.8c0 0 21.9-7 30.5-3.5 8.6 3.5 22.3 1.6 25.8-5.5 3.5-7 1.5-16.4-5.8-18.4s-7.1-1.9-7.1-1.9zM2163.2 501.6s-.3-15-10.3-6c-10.1 9-1.8 18.7-2.8 23.1-1 4.4 1.4 11.7 7.3 17 0 0 6.7-13.7 12.3-16.2 5.6-2.5 11-9.9 9.2-14.8-1.7-4.9-7.2-8.2-11.4-5.7l-4.3 2.6zM2205.2 490.4s-14.5-4-8.7 8.2c5.7 12.2 17.4 7.1 21.3 9.3 3.9 2.2 11.6 2 18.4-2.1 0 0-11.2-10.3-12-16.4s-6.4-13.3-11.6-13c-5.2.3-9.9 4.5-8.7 9.3s1.3 4.7 1.3 4.7zM2191.8 462s-1.1 7.1 4.4 3.7c5.5-3.4 2.4-8.7 3.2-10.7s.3-5.6-2.1-8.6c0 0-4.2 5.9-7.1 6.6-2.9.7-6 3.8-5.5 6.3s2.7 4.4 4.9 3.6l2.2-.9zM2182.1 469.3s3.5 4.2-1.4 4.1c-4.9-.1-5-4.7-6.3-5.6s-2.4-3.5-2.1-6.4c0 0 5.1 2.1 7.2 1.5 2.1-.7 5.4.1 6.1 1.9s0 4-1.8 4.3l-1.7.2zM2171.8 563.5s-1.3-25.3-17.8-9.6c-16.5 15.7-2.1 31.7-3.5 39.2-1.5 7.5 3 19.7 13.2 28.4 0 0 10.5-23.4 19.9-28 9.4-4.5 18-17.3 14.8-25.5-3.2-8.2-12.5-13.5-19.6-9s-7 4.5-7 4.5zM2246.3 532.2s.3-25.4 17.4-10.3c17.1 15.1 3.3 31.6 5 39 1.8 7.4-2.2 19.8-12.1 28.9 0 0-11.4-23-21-27.2s-18.6-16.6-15.7-24.9c2.9-8.3 12-14 19.2-9.7l7.2 4.2zM2302.6 586.9s2.7-19.9 14.7-6.9c12 13-.5 25 .1 31s-3.7 15.4-12.4 21.8c0 0-6.7-18.9-13.9-22.8-7.1-3.9-13.1-14.3-10-20.7 3.1-6.3 10.8-10.1 16.1-6.3l5.4 3.9zM2306.4 533.4s-8.1-3.2-1.4-6.9c6.7-3.7 10.4 2.7 13 3.1 2.6.3 6.1 3.1 7.9 7.4 0 0-8.6.9-10.9 3.5s-7.3 4-9.7 2.1c-2.3-1.9-3.2-5.6-1-7.4l2.1-1.8zM2287.8 533.9s1.1 5.3-3.1 3-2.1-6.4-2.8-7.8c-.7-1.4-.4-4.2 1.2-6.6 0 0 3.4 4.2 5.5 4.5 2.1.4 4.6 2.5 4.3 4.3-.2 1.9-1.8 3.5-3.5 3l-1.6-.4z"/><path class="st28" d="M2183.7 464c2.8 5.5 5 11.3 7 17.1 1 2.9 1.9 5.9 2.7 8.9l1.1 4.5c.4 1.5.7 3 1 4.5l.5 2.3.4 2.3c.3 1.5.5 3 .8 4.6.4 3.1.9 6.1 1.1 9.2.6 6.2.6 12.4.5 18.6v-.3c.9 4.5 1.9 8.9 3 13.4 1.1 4.4 2.2 8.9 3.5 13.2 1.3 4.4 2.7 8.7 4.4 12.9.9 2.1 1.8 4.1 2.9 6 1.1 1.9 2.4 3.7 3.9 4.9l.3.2.1.3c1.6 3.3 2.9 6.6 4.2 9.9 1.3 3.3 2.4 6.7 3.4 10.1 2 6.8 3.6 13.8 4.4 20.9.2 1.8.4 3.6.4 5.3.1 1.8.2 3.6 0 5.4l-.1 2.7c0 .9-.2 1.8-.3 2.7l-.3 2.7-.5 2.6-1.9 10.5c-.3 1.7-.6 3.5-1 5.2l-.5 2.6-.3 1.3-.2.6-.1.3c0 .1 0 .1-.1.2s-.1-.1-.1-.1v.1s0-.1.1-.2l.1-.3.1-.7.2-1.3.4-2.6.7-5.3 1.3-10.5.3-2.6.2-2.6c0-.9.2-1.7.2-2.6v-2.6c0-1.7-.1-3.5-.2-5.2-.1-1.7-.4-3.5-.6-5.2-1-6.9-2.7-13.8-4.8-20.4-2.2-6.7-4.7-13.3-7.7-19.5l.5.5c-2.2-1.7-3.5-3.7-4.7-5.8-1.2-2.1-2.2-4.2-3.1-6.4-1.8-4.3-3.3-8.7-4.5-13.1-1.3-4.4-2.4-8.9-3.5-13.4s-2-9-2.8-13.5v-.4c.2-6.1.3-12.2-.1-18.3-.1-3-.5-6.1-.8-9.1l-.6-4.5-.3-2.3-.4-2.3c-1-6-2.4-12-4-17.9-1.9-6-3.8-11.8-6.2-17.5z"/><path class="st29" d="M2161.1 608.6c-.9-2.7-1.6-5.5-2.1-8.4-.6-2.8-1-5.7-1.2-8.6-.2-2.9-.3-5.8-.1-8.7.1-2.9.6-5.8 1.2-8.6.7-2.8 1.6-5.6 2.9-8.3 1.3-2.6 3-5.1 5-7.3 4-4.4 9.4-7.3 15-9h.2c3.1 0 5.9.7 8.6 1.8 2.7 1.1 5.3 2.6 7.4 4.6.6.5 1 1 1.5 1.5l.8.8.7.9c.4.6.9 1.2 1.3 1.8l1.1 1.9c.2.3.4.6.5.9l.4 1 .9 2c.5 1.3.9 2.7 1.3 4.1-.6-1.3-1.1-2.6-1.7-3.9l-1-1.9-.5-.9-.6-.9-1.2-1.7c-.4-.6-.9-1.1-1.4-1.6l-.7-.8-.8-.7c-.5-.5-1-1-1.5-1.4-2.1-1.8-4.6-3.1-7.2-4.1-2.6-.9-5.4-1.5-8-1.4h.2c-5.3 1.7-10.3 4.5-14.1 8.6-1.9 2-3.5 4.3-4.8 6.8-1.2 2.5-2.2 5.1-2.9 7.8-1.4 5.4-1.8 11.2-1.7 16.8.6 5.6 1.3 11.3 2.5 16.9zM2199.1 632.8c2.2-4.3 4.9-8.3 8.1-12 3.1-3.7 6.7-7.1 10.8-9.9 2-1.4 4.2-2.6 6.4-3.6 2.3-1 4.6-1.8 7.1-2.2 2.4-.4 4.9-.5 7.4-.3 2.4.3 4.8.9 7 1.8-2.4-.5-4.7-.8-7.1-.8-2.4 0-4.7.3-7 .8-4.5 1.2-8.8 3.2-12.7 5.9-3.9 2.6-7.4 5.8-10.7 9.3-3.4 3.5-6.4 7.2-9.3 11zM2192.2 487.4c.2-1.1.5-2.3.9-3.4s1-2.2 1.8-3.1c.4-.5.9-.9 1.5-1.2.6-.3 1.3-.4 2-.3 1.4.2 2.4 1 3.3 1.9 3.3 3.5 5.9 7.2 8.8 10.7 1.4 1.8 2.9 3.5 4.4 5.2 1.5 1.7 3.1 3.3 4.8 4.8 1.7 1.4 3.6 2.8 5.6 3.6 1 .4 2.1.8 3.2.9 1.1.1 2.3.1 3.4-.1-1.1.4-2.2.6-3.4.7-1.2 0-2.4-.2-3.5-.5-2.3-.7-4.4-1.9-6.2-3.3-3.8-2.8-6.9-6.4-9.8-10-1.4-1.8-2.8-3.7-4.2-5.5-1.4-1.8-2.7-3.7-4.1-5.4-.7-.8-1.6-1.5-2.5-1.7-.9-.3-1.9.1-2.6.9-.8.7-1.4 1.7-2 2.7-.6.9-1 2-1.4 3.1zM2158.4 533.7c-.4 0-.6-.4-.8-.7-.2-.3-.3-.7-.5-1-.3-.7-.4-1.4-.6-2.1-.3-1.4-.4-2.9-.6-4.3-.2-2.9-.2-5.8.1-8.7.3-2.9.7-5.8 1.6-8.6.4-1.4 1-2.8 1.7-4.2.8-1.3 1.8-2.7 3.5-3.4l-.6.6c.6-1.9 1.3-3.7 2.3-5.5 1-1.7 2.1-3.4 3.6-4.8s3.5-2.5 5.7-2.6c1.1-.1 2.2.1 3.2.5 1 .3 1.9.8 2.8 1.3 3.3 2.1 6.3 4.5 9.1 7.3 1.4 1.3 2.7 2.8 3.9 4.3 1.2 1.5 2.4 3 3.4 4.7-2.4-3-5.1-5.7-8-8.2-2.9-2.5-6-4.7-9.2-6.6-.8-.5-1.6-.9-2.4-1.1-.8-.3-1.7-.4-2.5-.3-1.7.1-3.2 1-4.5 2.2-1.3 1.2-2.3 2.7-3.2 4.4-.9 1.6-1.6 3.4-2.2 5.1l-.1.5-.4.2c-1 .4-1.9 1.4-2.6 2.6-.7 1.1-1.2 2.4-1.7 3.7-.9 2.7-1.4 5.4-1.8 8.3-.4 2.8-.6 5.7-.6 8.5 0 1.4 0 2.9.2 4.3l.3 2.1c.1.3.2.7.3 1 0 .1.2.5.6.5z"/><path class="st28" d="M2301.5 535.7c-3.9 2.9-6.7 7-9.3 11.1-2.5 4.1-4.7 8.5-6.5 12.9-.5 1.1-.9 2.2-1.4 3.4l-1.3 3.4c-.8 2.3-1.6 4.6-2.3 6.9-.7 2.3-1.4 4.6-2 7l-1.8 7v.2l-.1.2c-1.4 2.7-2.8 5.5-4.1 8.3-1.4 2.8-2.7 5.6-3.9 8.4-2.5 5.7-5 11.4-7.1 17.2-2.2 5.8-4.1 11.7-5.7 17.6-.8 3-1.4 6-1.9 9.1-.5 3.1-.8 6.1-.8 9.3-.8-6.2 0-12.5 1.1-18.7.6-3.1 1.3-6.1 2.1-9.2.8-3 1.8-6 2.8-9 2-5.9 4.3-11.8 6.8-17.5 2.5-5.7 5.2-11.4 8.2-16.9l-.1.3 1.9-7.1c.7-2.4 1.5-4.7 2.2-7 .8-2.3 1.7-4.6 2.5-6.9l1.5-3.4c.5-1.1 1-2.3 1.5-3.4l1.6-3.3 1.8-3.2c.6-1.1 1.3-2.1 1.9-3.2.6-1.1 1.3-2.1 2.1-3.1 1.4-2 3-3.9 4.7-5.7 1.6-1.8 3.4-3.5 5.6-4.7z"/><path class="st29" d="M2307.1 626.2c.6-1.8 1.1-3.6 1.5-5.5.3-1.9.4-3.7.5-5.6.1-3.7-.3-7.5-1.1-11.1-.7-3.7-1.8-7.3-3-10.8-1.3-3.5-2.7-7-4.4-10.3v-.1c-1.5-3.1-3.7-6.3-6.6-8.1-1.5-.9-3.1-1.4-4.8-1.3-1.7.1-3.3.8-4.8 1.8-3 2-5.4 4.9-7.5 7.9-2.1 3-4 6.3-5.7 9.5 1.4-3.4 3.1-6.8 5.1-10 2-3.2 4.3-6.3 7.4-8.6 1.6-1.1 3.4-2 5.5-2.2 2-.2 4.1.3 5.8 1.4 1.7 1 3.2 2.4 4.4 3.9 1.2 1.5 2.2 3.1 3.1 4.9v-.1c1.8 3.4 3.3 7 4.5 10.6 1.3 3.6 2.2 7.4 2.8 11.2.6 3.8.8 7.7.5 11.5-.5 3.9-1.4 7.7-3.2 11zM2204.6 564.8c0-4.5.4-9 .9-13.4.3-2.2.6-4.5 1.1-6.7.5-2.2 1-4.4 1.6-6.6 1.3-4.3 3.1-8.6 6.1-12.3 1.5-1.8 3.4-3.4 5.7-4.2 2.3-.9 4.8-1 7.2-.4l-.6.1c1-.4 1.9-.5 2.8-.5.9 0 1.8.2 2.6.4 1.7.5 3.2 1.3 4.7 2.2 2.8 1.9 5 4.5 7 7.1 4 5.3 6.5 11.4 9 17.4 2.4 6.1 4.5 12.2 6.4 18.4 1.9 6.2 3.6 12.5 5.1 18.8l-3-9.2c-1-3.1-2.1-6.1-3.2-9.2-2.2-6.1-4.4-12.2-6.9-18.1-1.2-3-2.6-5.9-4-8.8-1.5-2.8-3-5.6-5-8.1-1.9-2.5-4.1-4.9-6.6-6.6-1.3-.9-2.6-1.6-4-2-.7-.2-1.4-.3-2.1-.3-.4 0-.7 0-1.1.1-.3 0-.7.1-.9.2l-.3.1-.3-.1c-2-.4-4.2-.4-6.1.3-1.9.7-3.6 2-5 3.6-2.8 3.3-4.7 7.4-6.1 11.5-1.4 4.2-2.4 8.6-3.2 12.9-.9 4.5-1.4 8.9-1.8 13.4zM2287.3 530c1.8 2.8 3 5.8 3.8 9 .4 1.6.6 3.3.5 4.9-.1 1.7-.4 3.4-1.4 4.7.6-1.5.7-3.1.6-4.7-.1-1.6-.3-3.2-.7-4.7-.3-1.6-.8-3.1-1.3-4.6-.5-1.5-1-3-1.5-4.6zM2196.7 455.7c-1 1.3-2 2.6-3 3.8-1 1.3-1.9 2.6-2.7 4-.9 1.3-1.6 2.7-2.2 4.2-.6 1.5-1.1 3-1 4.6-.4-1.6-.2-3.3.3-4.9.5-1.6 1.3-3.1 2.1-4.5 1.7-2.7 3.9-5.2 6.5-7.2z"/><g><path class="st30" d="M2275.5 646.1s-1.6 10.4-4.4 23.2c-1.6 7.6-3.6 16-5.8 23.5-3.4 11.5-7.4 21-11.6 22.5l-40.2-.5s-5.9-7.6-12.3-21.9c-2.9-6.5-5.9-14.3-8.4-23.5-2-7-3.7-14.7-5-23.2h87.7z"/><path class="st30" d="M2193 711.5h80.1v4.4H2193z"/></g></g><g><path class="st27" d="M1514.1 605.8s16.1-16-4.2-17.6c-20.4-1.6-22.3 17.6-28.2 21.1s-11.3 13.8-11 25.8c0 0 21.9-7 30.5-3.5 8.6 3.5 22.3 1.6 25.8-5.5 3.5-7 1.5-16.4-5.8-18.4s-7.1-1.9-7.1-1.9zM1438.6 502.8s-.3-15-10.3-6c-10.1 9-1.8 18.7-2.8 23.1s1.4 11.7 7.3 17c0 0 6.7-13.7 12.3-16.2 5.6-2.5 11-9.9 9.2-14.8-1.7-4.9-7.2-8.2-11.4-5.7l-4.3 2.6zM1480.7 491.5s-14.5-4-8.7 8.2c5.7 12.2 17.4 7.1 21.3 9.3 3.9 2.2 11.6 2 18.4-2.1 0 0-11.2-10.3-12-16.4-.8-6.1-6.4-13.3-11.6-13-5.2.3-9.9 4.5-8.7 9.3l1.3 4.7zM1467.3 463.2s-1.1 7.1 4.4 3.7c5.5-3.4 2.4-8.7 3.2-10.7s.3-5.6-2.1-8.6c0 0-4.2 5.9-7.1 6.6-2.9.7-6 3.8-5.5 6.3.4 2.5 2.7 4.4 4.9 3.6s2.2-.9 2.2-.9zM1457.6 470.4s3.5 4.2-1.4 4.1c-4.9-.1-5-4.7-6.3-5.6-1.3-1-2.4-3.5-2.1-6.4 0 0 5.1 2.1 7.2 1.5s5.4.1 6.1 1.9c.7 1.8 0 4-1.8 4.3s-1.7.2-1.7.2zM1447.3 564.6s-1.3-25.3-17.8-9.6-2.1 31.7-3.5 39.2c-1.5 7.5 3 19.7 13.2 28.4 0 0 10.5-23.4 19.9-28 9.4-4.5 18-17.3 14.8-25.5-3.2-8.2-12.5-13.5-19.6-9s-7 4.5-7 4.5zM1521.7 533.3s.3-25.4 17.4-10.3c17.1 15.1 3.3 31.6 5 39 1.8 7.4-2.2 19.8-12.1 28.9 0 0-11.4-23-21-27.2s-18.6-16.6-15.7-24.9c2.9-8.3 12-14 19.2-9.7s7.2 4.2 7.2 4.2zM1578.1 588.1s2.7-19.9 14.7-6.9c12 13-.5 25 .1 31s-3.7 15.4-12.4 21.8c0 0-6.7-18.9-13.9-22.8-7.1-3.9-13.1-14.3-10-20.7 3.1-6.3 10.8-10.1 16.1-6.3l5.4 3.9zM1581.9 534.5s-8.1-3.2-1.4-6.9c6.7-3.7 10.4 2.7 13 3.1 2.6.3 6.1 3.1 7.9 7.4 0 0-8.6.9-10.9 3.5s-7.3 4-9.7 2.1c-2.3-1.9-3.2-5.6-1-7.4l2.1-1.8zM1563.3 535.1s1.1 5.3-3.1 3c-4.2-2.2-2.1-6.4-2.8-7.8-.7-1.4-.4-4.2 1.2-6.6 0 0 3.4 4.2 5.5 4.5 2.1.4 4.6 2.5 4.3 4.3-.2 1.9-1.8 3.5-3.5 3l-1.6-.4z"/><path class="st28" d="M1459.2 465.2c2.8 5.5 5 11.3 7 17.1 1 2.9 1.9 5.9 2.7 8.9l1.1 4.5c.4 1.5.7 3 1 4.5l.5 2.3.4 2.3c.3 1.5.5 3 .8 4.6.4 3.1.9 6.1 1.1 9.2.6 6.2.6 12.4.5 18.6v-.3c.9 4.5 1.9 8.9 3 13.4 1.1 4.4 2.2 8.9 3.5 13.2 1.3 4.4 2.7 8.7 4.4 12.9.9 2.1 1.8 4.1 2.9 6 1.1 1.9 2.4 3.7 3.9 4.9l.3.2.1.3c1.6 3.3 2.9 6.6 4.2 9.9 1.3 3.3 2.4 6.7 3.4 10.1 2 6.8 3.6 13.8 4.4 20.9.2 1.8.4 3.6.4 5.3.1 1.8.2 3.6 0 5.4l-.1 2.7c0 .9-.2 1.8-.3 2.7l-.3 2.7-.5 2.6-1.9 10.5c-.3 1.7-.6 3.5-1 5.2l-.5 2.6-.3 1.3-.2.6-.1.3c0 .1 0 .1-.1.2s-.1-.1-.1-.1v.1s0-.1.1-.2l.1-.3.1-.7.2-1.3.4-2.6.7-5.3 1.3-10.5.3-2.6.2-2.6c0-.9.2-1.7.2-2.6v-2.6c0-1.7-.1-3.5-.2-5.2-.1-1.7-.4-3.5-.6-5.2-1-6.9-2.7-13.8-4.8-20.4-2.2-6.7-4.7-13.3-7.7-19.5l.5.5c-2.2-1.7-3.5-3.7-4.7-5.8-1.2-2.1-2.2-4.2-3.1-6.4-1.8-4.3-3.3-8.7-4.5-13.1-1.3-4.4-2.4-8.9-3.5-13.4s-2-9-2.8-13.5v-.4c.2-6.1.3-12.2-.1-18.3-.1-3-.5-6.1-.8-9.1l-.6-4.5-.3-2.3-.4-2.3c-1-6-2.4-12-4-17.9-1.9-6-3.8-11.8-6.2-17.5z"/><path class="st29" d="M1436.6 609.8c-.9-2.7-1.6-5.5-2.1-8.4-.6-2.8-1-5.7-1.2-8.6-.2-2.9-.3-5.8-.1-8.7.1-2.9.6-5.8 1.2-8.6.7-2.8 1.6-5.6 2.9-8.3 1.3-2.6 3-5.1 5-7.3 4-4.4 9.4-7.3 15-9h.2c3.1 0 5.9.7 8.6 1.8 2.7 1.1 5.3 2.6 7.4 4.6.6.5 1 1 1.5 1.5l.8.8.7.9c.4.6.9 1.2 1.3 1.8l1.1 1.9c.2.3.4.6.5.9l.4 1 .9 2c.5 1.3.9 2.7 1.3 4.1-.6-1.3-1.1-2.6-1.7-3.9l-1-1.9-.5-.9-.6-.9-1.2-1.7c-.4-.6-.9-1.1-1.4-1.6l-.7-.8-.8-.7c-.5-.5-1-1-1.5-1.4-2.1-1.8-4.6-3.1-7.2-4.1-2.6-.9-5.4-1.5-8-1.4h.2c-5.3 1.7-10.3 4.5-14.1 8.6-1.9 2-3.5 4.3-4.8 6.8-1.2 2.5-2.2 5.1-2.9 7.8-1.4 5.4-1.8 11.2-1.7 16.8.6 5.6 1.3 11.3 2.5 16.9zM1474.6 634c2.2-4.3 4.9-8.3 8.1-12 3.1-3.7 6.7-7.1 10.8-9.9 2-1.4 4.2-2.6 6.4-3.6 2.3-1 4.6-1.8 7.1-2.2 2.4-.4 4.9-.5 7.4-.3 2.4.3 4.8.9 7 1.8-2.4-.5-4.7-.8-7.1-.8-2.4 0-4.7.3-7 .8-4.5 1.2-8.8 3.2-12.7 5.9-3.9 2.6-7.4 5.8-10.7 9.3-3.4 3.4-6.5 7.1-9.3 11zM1467.6 488.5c.2-1.1.5-2.3.9-3.4s1-2.2 1.8-3.1c.4-.5.9-.9 1.5-1.2.6-.3 1.3-.4 2-.3 1.4.2 2.4 1 3.3 1.9 3.3 3.5 5.9 7.2 8.8 10.7 1.4 1.8 2.9 3.5 4.4 5.2 1.5 1.7 3.1 3.3 4.8 4.8 1.7 1.4 3.6 2.8 5.6 3.6 1 .4 2.1.8 3.2.9 1.1.1 2.3.1 3.4-.1-1.1.4-2.2.6-3.4.7-1.2 0-2.4-.2-3.5-.5-2.3-.7-4.4-1.9-6.2-3.3-3.8-2.8-6.9-6.4-9.8-10-1.4-1.8-2.8-3.7-4.2-5.5-1.4-1.8-2.7-3.7-4.1-5.4-.7-.8-1.6-1.5-2.5-1.7-.9-.3-1.9.1-2.6.9-.8.7-1.4 1.7-2 2.7-.5 1-1 2.1-1.4 3.1zM1433.8 534.9c-.4 0-.6-.4-.8-.7-.2-.3-.3-.7-.5-1-.3-.7-.4-1.4-.6-2.1-.3-1.4-.4-2.9-.6-4.3-.2-2.9-.2-5.8.1-8.7.3-2.9.7-5.8 1.6-8.6.4-1.4 1-2.8 1.7-4.2.8-1.3 1.8-2.7 3.5-3.4l-.6.6c.6-1.9 1.3-3.7 2.3-5.5 1-1.7 2.1-3.4 3.6-4.8s3.5-2.5 5.7-2.6c1.1-.1 2.2.1 3.2.5 1 .3 1.9.8 2.8 1.3 3.3 2.1 6.3 4.5 9.1 7.3 1.4 1.3 2.7 2.8 3.9 4.3 1.2 1.5 2.4 3 3.4 4.7-2.4-3-5.1-5.7-8-8.2-2.9-2.5-6-4.7-9.2-6.6-.8-.5-1.6-.9-2.4-1.1-.8-.3-1.7-.4-2.5-.3-1.7.1-3.2 1-4.5 2.2-1.3 1.2-2.3 2.7-3.2 4.4-.9 1.6-1.6 3.4-2.2 5.1l-.1.5-.4.2c-1 .4-1.9 1.4-2.6 2.6-.7 1.1-1.2 2.4-1.7 3.7-.9 2.7-1.4 5.4-1.8 8.3-.4 2.8-.6 5.7-.6 8.5 0 1.4 0 2.9.2 4.3l.3 2.1c.1.3.2.7.3 1 .1.1.3.4.6.5z"/><path class="st28" d="M1577 536.9c-3.9 2.9-6.7 7-9.3 11.1-2.5 4.1-4.7 8.5-6.5 12.9-.5 1.1-.9 2.2-1.4 3.4l-1.3 3.4c-.8 2.3-1.6 4.6-2.3 6.9-.7 2.3-1.4 4.6-2 7l-1.8 7v.2l-.1.2c-1.4 2.7-2.8 5.5-4.1 8.3-1.4 2.8-2.7 5.6-3.9 8.4-2.5 5.7-5 11.4-7.1 17.2-2.2 5.8-4.1 11.7-5.7 17.6-.8 3-1.4 6-1.9 9.1-.5 3.1-.8 6.1-.8 9.3-.8-6.2 0-12.5 1.1-18.7.6-3.1 1.3-6.1 2.1-9.2.8-3 1.8-6 2.8-9 2-5.9 4.3-11.8 6.8-17.5 2.5-5.7 5.2-11.4 8.2-16.9l-.1.3 1.9-7.1c.7-2.4 1.5-4.7 2.2-7 .8-2.3 1.7-4.6 2.5-6.9l1.5-3.4c.5-1.1 1-2.3 1.5-3.4l1.6-3.3 1.8-3.2c.6-1.1 1.3-2.1 1.9-3.2.6-1.1 1.3-2.1 2.1-3.1 1.4-2 3-3.9 4.7-5.7 1.6-1.8 3.4-3.5 5.6-4.7z"/><path class="st29" d="M1582.6 627.4c.6-1.8 1.1-3.6 1.5-5.5.3-1.9.4-3.7.5-5.6.1-3.7-.3-7.5-1.1-11.1-.7-3.7-1.8-7.3-3-10.8-1.3-3.5-2.7-7-4.4-10.3v-.1c-1.5-3.1-3.7-6.3-6.6-8.1-1.5-.9-3.1-1.4-4.8-1.3-1.7.1-3.3.8-4.8 1.8-3 2-5.4 4.9-7.5 7.9-2.1 3-4 6.3-5.7 9.5 1.4-3.4 3.1-6.8 5.1-10 2-3.2 4.3-6.3 7.4-8.6 1.6-1.1 3.4-2 5.5-2.2 2-.2 4.1.3 5.8 1.4 1.7 1 3.2 2.4 4.4 3.9 1.2 1.5 2.2 3.1 3.1 4.9v-.1c1.8 3.4 3.3 7 4.5 10.6 1.3 3.6 2.2 7.4 2.8 11.2.6 3.8.8 7.7.5 11.5-.5 3.8-1.4 7.6-3.2 11zM1480.1 565.9c0-4.5.4-9 .9-13.4.3-2.2.6-4.5 1.1-6.7.5-2.2 1-4.4 1.6-6.6 1.3-4.3 3.1-8.6 6.1-12.3 1.5-1.8 3.4-3.4 5.7-4.2 2.3-.9 4.8-1 7.2-.4l-.6.1c1-.4 1.9-.5 2.8-.5.9 0 1.8.2 2.6.4 1.7.5 3.2 1.3 4.7 2.2 2.8 1.9 5 4.5 7 7.1 4 5.3 6.5 11.4 9 17.4 2.4 6.1 4.5 12.2 6.4 18.4 1.9 6.2 3.6 12.5 5.1 18.8l-3-9.2c-1-3.1-2.1-6.1-3.2-9.2-2.2-6.1-4.4-12.2-6.9-18.1-1.2-3-2.6-5.9-4-8.8-1.5-2.8-3-5.6-5-8.1-1.9-2.5-4.1-4.9-6.6-6.6-1.3-.9-2.6-1.6-4-2-.7-.2-1.4-.3-2.1-.3-.4 0-.7 0-1.1.1-.3 0-.7.1-.9.2l-.3.1-.3-.1c-2-.4-4.2-.4-6.1.3-1.9.7-3.6 2-5 3.6-2.8 3.3-4.7 7.4-6.1 11.5-1.4 4.2-2.4 8.6-3.2 12.9-.9 4.5-1.5 9-1.8 13.4zM1562.8 531.2c1.8 2.8 3 5.8 3.8 9 .4 1.6.6 3.3.5 4.9-.1 1.7-.4 3.4-1.4 4.7.6-1.5.7-3.1.6-4.7-.1-1.6-.3-3.2-.7-4.7-.3-1.6-.8-3.1-1.3-4.6-.5-1.5-1-3.1-1.5-4.6zM1472.2 456.9c-1 1.3-2 2.6-3 3.8-1 1.3-1.9 2.6-2.7 4-.9 1.3-1.6 2.7-2.2 4.2-.6 1.5-1.1 3-1 4.6-.4-1.6-.2-3.3.3-4.9.5-1.6 1.3-3.1 2.1-4.5 1.7-2.7 3.9-5.2 6.5-7.2z"/><g><path class="st30" d="M1551 647.3s-1.6 10.4-4.4 23.2c-1.6 7.6-3.6 16-5.8 23.5-3.4 11.5-7.4 21-11.6 22.5l-40.2-.5s-5.9-7.6-12.3-21.9c-2.9-6.5-5.9-14.3-8.4-23.5-2-7-3.7-14.7-5-23.2h87.7z"/></g><path class="st30" d="M1469.6 711.5h80.1v4.4h-80.1z"/></g><g><path class="st2" d="M2159.1 120.7h129.8v148.9h-129.8z"/><path class="st3" d="M2172.3 135.8h103.4v118.6h-103.4z"/><path class="st2" d="M2198.6 174.1h15.6v59.3h-15.6zM2217.5 203.8h15.6v29.7h-15.6zM2235.2 203.8h15.6v29.7h-15.6z"/></g><g><path class="st2" d="M1524.6 114.9h129.8v148.9h-129.8z"/><path class="st3" d="M1537.7 130.1h103.4v118.6h-103.4z"/><path class="st2" d="M1547.2 163.3h82.7v43.3h-82.7z"/></g><g><path class="st2" d="M901.6 777.1H98.4c-33.2 0-60-26.9-60-60 0-33.2 26.9-60 60-60h803.2c33.2 0 60 26.9 60 60 .1 33.1-26.8 60-60 60z"/><path class="st1" d="M190.3 564.1S-8.9 429.6 66.9 265c15.5-33.5 45.8-53.6 77.9-52.2 85.1 3.6 275.9-.3 360.6-98.7 0 0 226-191.8 323.2-45.8s24.3 258.5 61.5 294.7 119.5 94.8 64.5 166-143.4 58.1-235.3 58.1-529-23-529-23z"/><path d="M175.8 544.6s-68.6-39-110-99.2c-57-82.9 3-195.7 103.6-195.6 94.9 0 248-12 321.5-83.8 0 0 226-161.4 323.2-38.5s24.3 217.5 61.5 247.9c37.1 30.4 119.5 79.7 64.5 139.7-54.9 60-143.4 48.9-235.3 48.9s-529-19.4-529-19.4z" style="fill:#cfb5f6"/><path class="st32" d="m213.8 571.5-46.9 158.1"/><path class="st33" d="M166.9 738c-.8 0-1.6-.1-2.4-.4-4.5-1.3-7-6-5.7-10.5l47-158.1c1.3-4.5 6-7 10.5-5.7 4.5 1.3 7 6 5.7 10.5L175 732c-1.1 3.7-4.5 6-8.1 6z"/><path class="st32" d="m314.5 587 19.2 155"/><path class="st33" d="M333.6 751c-4.5 0-8.4-3.3-8.9-7.9l-19.1-155c-.6-4.9 2.9-9.4 7.8-10 4.9-.6 9.4 2.9 10 7.8l19.1 155c.6 4.9-2.9 9.4-7.8 10-.3.1-.7.1-1.1.1z"/><path class="st32" d="m405.7 493 54.5 129.3"/><path class="st33" d="M460.2 631.3c-3.5 0-6.8-2.1-8.3-5.5l-54.6-129.3c-1.9-4.6.2-9.9 4.8-11.8 4.6-1.9 9.9.2 11.8 4.8l54.6 129.3c1.9 4.6-.2 9.9-4.8 11.8-1.1.5-2.3.7-3.5.7z"/><g><path class="st32" d="M342.4 521.9v82.2"/><path class="st33" d="M342.4 613.1c-5 0-9-4-9-9v-82.2c0-5 4-9 9-9s9 4 9 9v82.2c0 5-4.1 9-9 9z"/><path class="st34" d="M112.2 347.2s-.5-67.8 70.2-80.7c0 0 90.2-13.3 130-2.4.6.2 1.2.4 1.8.5 38.8 11.9 44.8 38.8 44.8 38.8l-7.8 152.4-8.3 33.2s114.2 20.5 91.7 42.5c0 0-34.9 45.9-66.3 44-31.4-1.8-2 .1-2 .1s-67.9 19.7-100.9 13.2c0 0-43.1 2.3-63.3-22S155.3 471 155.3 471l-43.1-123.8z"/></g><g><path class="st33" d="m850 566.9 46.9 158.2M896.9 733.5c.8 0 1.6-.1 2.4-.4 4.5-1.3 7-6 5.7-10.5l-47-158.1c-1.3-4.5-6-7-10.5-5.7-4.5 1.3-7 6-5.7 10.5l47 158.1c1.1 3.7 4.5 6.1 8.1 6.1zM749.2 582.5l-19.1 155M730.1 746.5c4.5 0 8.4-3.3 8.9-7.9l19.1-155c.6-4.9-2.9-9.4-7.8-10-4.9-.6-9.4 2.9-10 7.8l-19.1 155c-.6 4.9 2.9 9.4 7.8 10 .4.1.8.1 1.1.1z"/><g><path class="st33" d="m658.1 488.5-54.5 129.3M603.6 626.8c3.5 0 6.8-2.1 8.3-5.5L666.4 492c1.9-4.6-.2-9.9-4.8-11.8-4.6-1.9-9.9.2-11.8 4.8l-54.6 129.3c-1.9 4.6.2 9.9 4.8 11.8 1.2.5 2.4.7 3.6.7z"/></g><g><path class="st33" d="M721.4 517.4v82.2M721.4 608.6c5 0 9-4 9-9v-82.2c0-5-4-9-9-9s-9 4-9 9v82.2c0 5 4 9 9 9z"/><path class="st34" d="M951.6 342.6s.5-67.8-70.2-80.7c0 0-90.2-13.3-130-2.4-.6.2-1.2.4-1.8.5-38.8 11.9-44.8 38.8-44.8 38.8l7.8 152.4 8.3 33.2s-114.2 20.5-91.7 42.5c0 0 34.9 45.9 66.3 44 31.4-1.8 2 .1 2 .1s67.9 19.7 100.9 13.2c0 0 43.1 2.3 63.3-22s46.8-95.8 46.8-95.8l43.1-123.8z"/></g></g><g><ellipse class="st35" cx="271.8" cy="245.3" rx="29.2" ry="37.8"/><path d="M249.3 226.5s14.7 11.9 34.4 4.1c19.7-7.8 17.3 14.7 17.3 14.7s9.7.9 6.5-18.8c-3.2-19.7-2.8-22-12.8-30.7s-7.8-18.8-45.4-16.1c0 0-31.6 9.6-40.4 30.7s.5 25.7 0 34.9-1.4 14.2 6.9 20.2 6.4 16.1 13.8 17.7c7.3 1.6 16.1 3.9 17.9 0 1.8-3.9-1.8-19-1.8-19s-4.9-23.3 3.6-37.7z" style="fill:#1f135b"/><ellipse transform="rotate(-25.702 239.598 248.82)" class="st35" cx="239.6" cy="248.8" rx="8" ry="10.4"/><path class="st35" d="M247.5 261.4s1.8 33.9-11 41.3c-12.8 7.3 3.1 19.3 3.1 19.3s39.1 22.9 57.4 2.8c18.3-20.2 4-22.5 4-22.5l-14.1-1.4s-8.7-17.4-6.4-28-33-11.5-33-11.5zM325.2 425.1l26.8-11.2.9 8 50.9-2.4s7.8-7.7 12.4-9.1c4.6-1.4 5-11.5 9.6-11s2.3 12.8 2.3 12.8 13.8-11 19.3-6 7.8 12.8-4.1 18.8c-11.9 6-37.6 8.3-37.6 8.3l-43.4 12.9s-32.9 10.7-31.8-6l-5.3-15.1z"/><path class="st25" d="m239.3 444.7-4.7 35L320 465l-3.2-57.3 9.2 27.1 27.1-15.6-15.6-89.9s-5.5-24.8-29.2-29.4c-23.7-4.5-21.3.9-21.3.9s-15.3 20.6-44.3-.9l-37.4 9.2s-27.4 9.2-26 42.2 13.8 85.8 13.8 85.8 9.6 31.6 26.1 38.1c0 0 12.2-7.3 19.8-28.9.3-.8.5-1.5.8-2.3"/><path class="st37" d="m225.5 472.8 94.1-15.2 2.6 6.3s74.4-25.6 86.3-6.3c0 0 14.7 8.7-17.9 39 0 0-22-3.7-32.1 18.8l-43.1 27.1s-45.9 11.5-61 4.6c0 0-33.9 3.7-31.6-25.7-.1 0-4.7-40.4 2.7-48.6z"/><path class="st38" d="m392.9 487.9 15.6-30.3 70.6 165.6s23.8 18.3 44.9 21.6c21.1 3.2-5.5 17-5.5 17l-35.8-10.5-17.9-6s-9.8-3.2-2.4-16.1L438.3 587s-30.9-31.6-37-52.2c-6.1-20.7-8.4-46.9-8.4-46.9z"/><path class="st38" d="M358.6 504.5s17-19.3 30-11.9c13 7.3 20.4 26.6 14.4 37.1 0 0-2.3.5-5 32.1l-12.8 104.6 3.5 33.5s9 17.9 0 20.6-20.5-4.6-20.5-15.1-12.8-25.7-8.7-38.1c4.1-12.4-.5-54.1-.5-55.5s-3.7-51.4-3.7-51.4-3-29.1 3.2-44.9l.1-11z"/><path class="st37" d="M462.5 636.5s28.3 17.1 45.9 18.8c0 0 20.1-.2 11.6-11.3 0 0 39.7 5.8 16.3 17.7-23.4 11.9-39.9 0-39.9 0l-18.3-5 5 18.3h-7.3s0-10.1-5-13.3-12.9-5.9-8.3-25.2zM392.9 711.7s-3.2 8.8-12.1 4.7c-4.2-1.9-7.3-5.7-8.8-10.1-3.6-11.1-11.9-37.8-11.5-44.6 0 0-11.7 11-7.5 20.6l6.4 31.6s.4 2.3 2.9 0c.8-.7 1.1-3 1.1-5.8 4.4 11 8.3 20.9 8.3 20.9s21.1 26.6 28 4.6c0 .1 0-11.8-6.8-21.9z"/><path style="fill:#c9c9c9" d="m325.1 458.3 65.3-9.8-20.6 39-73.2 9.1z"/><path class="st3" d="m324.1 456.3 63-9.8-19.9 39-70.6 9.1z"/><path style="fill:none;stroke:#4e4f4f;stroke-width:4;stroke-linecap:round;stroke-miterlimit:10" d="m365.1 454.5-38.2 36.2"/><path class="st35" d="M238.8 446.2 320 465s37.1-18.4 41.7 0-16.1 22.5-32.1 19.8c-16.1-2.8-90-5.9-90-5.9l-20.5-3.7 19.7-29z"/></g><g><ellipse transform="rotate(-13.479 737.557 246.894)" class="st41" cx="737.5" cy="246.9" rx="32.5" ry="37.8"/><path class="st41" d="M741.7 274.8s16.4 0-4.2 27.5c-20.6 27.5 5.2 22 5.2 22l42.1 5.1 11.9-27.3-4.6-20.4-21.8 6.8s-8-14.8-7.3-23.4c.9-8.5-21.3 9.7-21.3 9.7z"/><path class="st26" d="M739.9 299s-10.5-5.5-28 4.6-29.8 42.6-29.8 42.6l-14.7 44 25.7 10.5 28.9-44s-5.1 32.6 7.6 46.8c12.6 14.2 0 2.8 0 2.8L727 454l97.2 15.2-4.6-28.4 9.2-4.1s12.8-8.7 14.7-39.4c1.8-30.7 4.1-67.8 4.1-67.8s-5.5-38.5-31.6-35.8l-41.2-6.4c0-.2-8.8 42.1-34.9 11.7z"/><path class="st41" d="m630.7 612.3-2.8 24.3s-26.1 31.2-31.2 32.1c-5 .9 0 10.5 0 10.5s10.5 5 18.8-2.3 33.9-28.4 33.9-28.4v-34.4l-18.7-1.8z"/><path class="st42" d="M649.5 643.9c0 4.1-4.3 5.5-4.3 5.5l-33.3 28.7c-2.3 2-5.4 3-8.5 2.5-8.9-1.5-3.4-14-3.4-14-28.8 16.3-22.1 26.3-9.2 25.9s23.4-6.9 23.4-6.9 13.7-11 24.8-20.2l2.8 15.4h7.8s-2.8-9-1.8-15.4c0-.3.1-.6.2-.9-.8-.6 3.9-3.2 3.5-2.2 3.6-8.9-2-22.5-2-18.4z"/><path class="st41" d="m681.6 635.7 1.8 48.6s-3.4 23.4-1.6 27.1c1.8 3.7 11.7 10.5 19 0 7.3-10.5 4.1-50.9 4.1-50.9l-6.9-24.8h-16.4z"/><path class="st42" d="m711 701.3 5.3-4.6-2.4-16c2.4-14.3-2.4-22.6-2.4-22.6l-7.9-3.1-2.6 46.6s-8.5 18.8-19.5 1.8c0 0-8.8 16.5-6.6 23.8 2.2 7.3 2.9 12.2 20.2 6.2 0 0 8.4-2.5 13.7-26.4 0 0-.9-8.6 1.1-17l1.1 11.3z"/><path d="M656.9 456.4s-29.8-.1-28.9 25.9c.9 26 0 137.4 0 137.4h22s-1.3-38 12.7-52.7c13.9-14.7 12.1-22.5 12.1-22.5l-17.9-88.1z" style="fill:#3b629b"/><path d="M668.4 388.6s-8.3 20.6 10.4 24.8c18.7 4.1 20.2-14.7 20.2-14.7l17.9-71.8c.6-2.3 1-4.6 1.2-6.9l2.4-22.7 8.6-20.7-.8-18.6c-.2-4.6-4.6-7.7-9-6.4l-8.3 2.5-2.4 13.1v21.1l-22.5 54.1c0-.1-17 31.8-17.7 46.2z" style="opacity:.15;fill:#3c3c3d"/><path class="st41" d="M664.4 392.6s-8.3 20.6 10.4 24.8c18.7 4.1 20.2-14.7 20.2-14.7l17.9-71.8c.6-2.3 1-4.6 1.2-6.9l2.4-22.7 8.6-20.7-.8-18.6c-.2-4.6-4.6-7.7-9-6.4l-8.3 2.5-2.4 13.1v21.1l-22.5 54.1c0-.1-17 31.8-17.7 46.2z"/><path d="M706.1 248s-4.4-15.6 8.2-23.2c12.2-7.4 28.5 5.2 38.5 11.1 7.5 4.4 17.2 19.4 17.2 19.4s-2.9-2.3-.4 29.3-1.2 39 17.2 51.8c0 0 34.9-28.4 28.4-52.7-6.4-24.3-20-21.6-24.4-36.7-4.3-14.5-3.1-12.6-7.2-19.7-2.1-3.7 3.5-11.3 1.2-20.4-4.6-17.9-20.2-30.8-38.6-32.4h-.6c-10.9-.9-21.7 2.7-29.9 9.9l-11 9.7c-.1-.2-22.4 14.2 1.4 53.9z" style="fill:#1c1155"/><ellipse transform="rotate(-71.367 768.423 246.884)" class="st41" cx="768.4" cy="246.9" rx="10.4" ry="8.3"/><path class="st14" d="m727.2 450.4 96.4 14.9s17.3 52.5-6.8 71.7c-24.2 19.3-53.6 6-53.6 6L700 520.1s-8-6.4-4 8.3c4 14.7 8.1 73.4 8.1 73.4l-1.8 42.2H678l-13.3-70.2-20.7-69.7s-21.1-40.9 8.3-50c0-.1 26.6-8.7 74.9-3.7z"/><path class="st41" d="m810 415.6-72.5 40.1-14.6 5.7s-17.7-7.4-26.9 0c-9.3 7.4-12.5 18.4-12.5 18.4s6.9 15.1 14.7 8.7c7.8-6.4 21.1-2.8 21.1-2.8l13.8-9.2 59.2-23.7 36.7-16.2-19-21z"/></g><path class="st26" d="m811.4 328.4 5.4 77.5-13.2 10.5s21 17 20.1 21.6c-.9 4.6 15.6-11.2 17.7-26.4 2.1-15.3 6.2-80.4 6.2-80.4s-6.2-31.2-19.1-33.7c-12.9-2.7-18.9 13-17.1 30.9z"/><g><path class="st27" d="M149.1 611.3s18.9-18.8-5-20.6c-23.8-1.8-26.1 20.6-33 24.8s-13.3 16.2-12.8 30.3c0 0 25.7-8.3 35.8-4.1s26.1 1.8 30.3-6.4c4.1-8.3 1.7-19.2-6.7-21.6l-8.6-2.4zM60.8 490.6s-.3-17.6-12.1-7.1c-11.8 10.5-2.1 21.9-3.3 27.1-1.2 5.2 1.6 13.7 8.5 20 0 0 7.8-16 14.4-18.9 6.6-2.9 12.8-11.6 10.8-17.4-2-5.7-8.4-9.6-13.4-6.6l-4.9 2.9zM110.1 477.4s-16.9-4.7-10.2 9.6c6.7 14.3 20.4 8.3 25 10.9s13.6 2.4 21.6-2.5c0 0-13.1-12.1-14-19.2s-7.5-15.6-13.6-15.3c-6.1.3-11.6 5.3-10.2 10.9l1.4 5.6zM94.3 444.2s-1.3 8.3 5.1 4.3c6.4-4 2.8-10.2 3.7-12.5 1-2.3.3-6.6-2.4-10.1 0 0-5 6.9-8.3 7.8-3.3.9-7 4.5-6.5 7.3.5 2.9 3.2 5.2 5.8 4.2l2.6-1zM83 452.7s4.1 4.9-1.6 4.8-5.8-5.5-7.4-6.6c-1.6-1.1-2.8-4.1-2.4-7.5 0 0 6 2.5 8.5 1.7s6.3.1 7.1 2.2c.8 2.1 0 4.6-2.1 5l-2.1.4zM70.9 563.1s-1.5-29.7-20.8-11.3-2.4 37.1-4.1 45.9 3.5 23.1 15.5 33.3c0 0 12.3-27.5 23.3-32.8s21.1-20.3 17.3-29.9c-3.8-9.6-14.7-15.8-22.9-10.5s-8.3 5.3-8.3 5.3zM158.1 526.4s.3-29.7 20.4-12.1c20 17.6 3.8 37 5.9 45.7 2.1 8.7-2.6 23.2-14.2 33.8 0 0-13.4-27-24.6-31.8-11.2-4.9-21.8-19.5-18.4-29.2 3.4-9.7 14.1-16.4 22.5-11.4l8.4 5zM224.2 590.5s3.2-23.3 17.3-8.1c14.1 15.2-.6 29.3.1 36.3s-4.3 18.1-14.6 25.6c0 0-7.9-22.1-16.2-26.7-8.3-4.6-15.3-16.8-11.7-24.2 3.6-7.4 12.7-11.9 18.9-7.4l6.2 4.5zM228.6 527.8s-9.4-3.7-1.6-8.1c7.8-4.4 12.2 3.2 15.2 3.6 3 .4 7.1 3.6 9.3 8.7 0 0-10.1 1.1-12.8 4.1-2.8 3-8.6 4.7-11.3 2.4-2.7-2.3-3.7-6.5-1.2-8.7l2.4-2zM206.9 528.4s1.2 6.2-3.6 3.6c-4.9-2.6-2.4-7.5-3.2-9.1-.8-1.7-.5-4.9 1.4-7.7 0 0 3.9 4.9 6.5 5.3 2.5.4 5.3 2.9 5.1 5.1-.3 2.2-2.2 4.1-4.1 3.5l-2.1-.7z"/><path class="st28" d="M84.8 446.5c3.2 6.4 5.8 13.2 8.1 20.1.5 1.7 1.1 3.4 1.6 5.2L96 477l1.3 5.3c.4 1.8.8 3.5 1.1 5.3l.6 2.7.5 2.7.9 5.4c.4 3.6 1 7.2 1.2 10.8.8 7.2.7 14.5.5 21.7v-.3c1 5.2 2.2 10.5 3.5 15.7 1.3 5.2 2.6 10.4 4.1 15.5 1.5 5.1 3.2 10.2 5.2 15.1 1 2.4 2.1 4.8 3.4 7.1 1.3 2.2 2.8 4.4 4.6 5.8l.3.2.1.3c1.8 3.8 3.4 7.7 4.9 11.6 1.5 3.9 2.8 7.9 4.1 11.8 2.4 8 4.2 16.2 5.1 24.5.2 2.1.5 4.2.5 6.3l.1 3.1c.1 1 0 2.1 0 3.1l-.1 3.1c0 1-.2 2.1-.3 3.1l-.4 3.1-.5 3.1-2.1 12.3c-.4 2-.7 4.1-1.1 6.1l-.6 3-.3 1.5-.2.8-.1.4c0 .1 0 .1-.1.2h-.1v-.1s0 .2.1.1c0-.1 0-.1.1-.2l.1-.4.1-.8.2-1.5.4-3.1.8-6.2 1.6-12.3.4-3.1.2-3.1c.1-1 .2-2 .2-3.1v-3.1c0-1 .1-2 0-3.1l-.2-3.1c-.1-2.1-.4-4.1-.7-6.1-1.1-8.1-3.2-16.1-5.6-24-2.5-7.8-5.5-15.5-9.1-22.9l.5.5c-2.5-1.9-4-4.3-5.4-6.7-1.4-2.4-2.5-4.9-3.6-7.4-2.1-5-3.8-10.2-5.3-15.4-1.5-5.2-2.9-10.4-4.1-15.7-1.2-5.3-2.4-10.5-3.3-15.8V530.5c.3-7.1.4-14.3-.2-21.4-.1-3.6-.6-7.1-1-10.7-.2-1.8-.5-3.5-.7-5.3l-.4-2.7-.5-2.6c-1.2-7.1-2.9-14.1-4.8-21-2-6.8-4.2-13.6-7.1-20.3z"/><path class="st29" d="M58.4 616c-1-3.2-1.8-6.5-2.4-9.8-.6-3.3-1.1-6.7-1.3-10-.3-3.4-.3-6.8-.1-10.2.2-3.4.7-6.8 1.5-10.1s1.9-6.6 3.4-9.7c1.6-3.1 3.5-5.9 5.9-8.5 4.7-5.1 11-8.5 17.5-10.5h.2c3.6 0 6.9.8 10.1 2.1 3.2 1.3 6.1 3.1 8.6 5.4.7.5 1.2 1.2 1.8 1.8l.9.9.8 1c.5.7 1 1.3 1.5 2l1.3 2.2c.2.4.4.7.6 1.1l.5 1.2 1 2.3c.6 1.6 1 3.2 1.6 4.8-.6-1.5-1.2-3.1-1.9-4.6l-1.2-2.2-.6-1.1c-.2-.4-.5-.7-.7-1L106 561c-.5-.7-1.1-1.3-1.6-1.9l-.8-.9-.9-.8c-.6-.5-1.1-1.2-1.8-1.7-2.5-2.1-5.4-3.7-8.4-4.8-3-1.1-6.3-1.8-9.4-1.7h.2c-6.3 2-12.2 5.3-16.6 10.1-2.2 2.4-4.1 5.1-5.6 8-1.5 2.9-2.6 6-3.4 9.2-1.7 6.4-2.1 13.1-1.9 19.8.3 6.4 1.1 13.1 2.6 19.7zM102.9 644.3c2.6-5 5.9-9.7 9.6-14 3.7-4.3 7.9-8.3 12.6-11.5 2.4-1.6 4.9-3.1 7.5-4.2 2.6-1.1 5.4-2.1 8.2-2.6 2.8-.5 5.7-.6 8.6-.4 2.8.3 5.6 1 8.3 2-2.8-.6-5.5-1.1-8.3-1.1-2.8 0-5.5.3-8.2.9-5.3 1.3-10.4 3.8-14.9 6.9-4.6 3.1-8.7 6.9-12.6 10.9-1.9 2-3.8 4.1-5.6 6.3-1.9 2.3-3.6 4.5-5.2 6.8zM94.7 473.9c.2-1.3.6-2.6 1.1-3.9.5-1.3 1.1-2.5 2.1-3.6.5-.5 1.1-1 1.8-1.3.7-.3 1.5-.4 2.3-.3 1.6.3 2.8 1.2 3.8 2.2 1 1 1.9 2 2.7 3.1l2.5 3.2c1.7 2.1 3.3 4.3 5 6.3 1.7 2.1 3.4 4.2 5.2 6.1 1.8 2 3.7 3.9 5.7 5.6 2 1.7 4.2 3.2 6.6 4.2 1.2.5 2.5.9 3.8 1 1.3.1 2.7.1 4-.2-1.3.5-2.6.7-4 .7s-2.8-.3-4.1-.7c-2.7-.8-5.1-2.3-7.3-3.9-4.4-3.3-8-7.5-11.4-11.7-1.7-2.1-3.3-4.3-4.9-6.4-1.6-2.1-3.2-4.4-4.9-6.3-.9-.9-1.9-1.7-3-2-1.1-.3-2.2.2-3.2 1.1-.9.9-1.7 2-2.3 3.1-.5 1.2-1 2.4-1.5 3.7zM55.1 528.2c-.4 0-.7-.4-1-.8-.2-.4-.4-.8-.5-1.2-.3-.8-.5-1.6-.6-2.5-.3-1.7-.5-3.4-.6-5.1-.2-3.4-.2-6.8.1-10.2.3-3.4.8-6.8 1.9-10.1.5-1.7 1.1-3.3 2-4.8.9-1.5 2.1-3.1 4-3.9l-.6.6c.7-2.3 1.6-4.4 2.7-6.4s2.5-4 4.2-5.6c1.7-1.6 4-2.9 6.6-3 1.2-.1 2.5.1 3.6.5.6.2 1.1.4 1.7.7.5.3 1.1.6 1.5.9 3.8 2.5 7.4 5.3 10.6 8.5 1.6 1.6 3.1 3.3 4.6 5 1.4 1.7 2.8 3.5 4 5.5-2.8-3.5-5.9-6.8-9.3-9.7-3.4-2.9-7-5.6-10.8-7.8-.5-.3-.9-.5-1.4-.8l-1.5-.6c-1-.3-2-.4-3-.4-2 .2-3.9 1.1-5.4 2.6-1.5 1.5-2.8 3.2-3.8 5.2-1 1.9-1.9 4-2.6 6l-.1.5-.4.2c-1.3.5-2.3 1.7-3.1 3.1-.8 1.3-1.5 2.9-2 4.4-1 3.1-1.7 6.4-2.1 9.7-.4 3.3-.7 6.7-.7 10 0 1.7 0 3.4.2 5 .1.8.2 1.7.4 2.5.1.4.2.8.4 1.2.4.3.6.7 1 .8z"/><path class="st28" d="M222.8 530.6c-4.6 3.4-8 8.1-11 12.9-2.9 4.8-5.5 9.9-7.7 15.1-.3.7-.6 1.3-.8 2l-.8 2-1.5 4c-.9 2.7-1.9 5.4-2.7 8.1-.8 2.7-1.6 5.4-2.4 8.2l-2.2 8.2v.2l-.1.2c-1.7 3.2-3.3 6.5-4.9 9.7-1.6 3.3-3.1 6.6-4.6 9.9-2.9 6.6-5.8 13.3-8.3 20.1-2.5 6.8-4.8 13.7-6.6 20.7-1.8 7-3.1 14.2-3 21.5-.4-3.6-.4-7.3-.1-11 .3-3.7.8-7.3 1.5-10.9.7-3.6 1.6-7.2 2.6-10.7 1-3.5 2.1-7 3.3-10.5 2.4-6.9 5-13.8 8-20.5 2.9-6.7 6.1-13.3 9.5-19.8l-.1.3 2.2-8.3c.8-2.8 1.7-5.5 2.6-8.2.9-2.7 1.9-5.4 3-8.1l1.7-4 .8-2c.3-.7.6-1.3.9-2l1.9-3.9 2.1-3.8c.7-1.3 1.5-2.5 2.2-3.7.7-1.2 1.6-2.4 2.4-3.6 1.6-2.4 3.5-4.6 5.4-6.7 2.1-2 4.2-4 6.7-5.4z"/><path class="st29" d="M229.5 636.6c.8-2.1 1.4-4.2 1.8-6.4.4-2.2.6-4.4.6-6.6.1-4.4-.4-8.8-1.2-13.1-.8-4.3-2.1-8.5-3.5-12.7-1.5-4.1-3.2-8.2-5.2-12.1v-.1c-1.8-3.7-4.4-7.4-7.8-9.6-1.7-1.1-3.7-1.7-5.7-1.5-2 .1-4 1-5.7 2.1-3.5 2.3-6.3 5.8-8.8 9.3-2.5 3.5-4.6 7.4-6.7 11.2 1.7-4 3.7-7.9 6-11.7 2.3-3.7 5-7.3 8.7-10 1.8-1.3 4-2.3 6.4-2.5 2.4-.3 4.8.4 6.7 1.6 2 1.2 3.7 2.8 5.1 4.5 1.4 1.8 2.6 3.6 3.6 5.7v-.1c2.1 4 3.9 8.1 5.3 12.4 1.5 4.2 2.6 8.6 3.3 13 .7 4.4 1 9 .6 13.5-.2 2.2-.6 4.5-1.1 6.6-.7 2.4-1.4 4.5-2.4 6.5zM109.3 564.6c0-5.3.5-10.5 1.2-15.7.3-2.6.8-5.2 1.3-7.8.5-2.6 1.2-5.2 2-7.7s1.7-5 2.8-7.5c1.1-2.4 2.5-4.8 4.3-6.8 1.8-2.1 4-3.9 6.6-4.9 2.6-1 5.6-1.1 8.3-.5l-.6.1c1.2-.5 2.1-.5 3.2-.5 1 0 2.1.2 3 .4 2 .5 3.8 1.5 5.4 2.6 3.3 2.2 5.9 5.2 8.2 8.3 2.4 3.1 4.2 6.5 5.9 9.9 1.7 3.4 3.2 6.9 4.6 10.5 2.8 7.1 5.2 14.3 7.5 21.5 2.2 7.3 4.3 14.6 6.1 21.9l-3.5-10.8c-1.2-3.6-2.4-7.2-3.7-10.8-2.5-7.2-5.1-14.3-8-21.2-2.9-6.9-6-13.9-10.5-19.9-2.2-3-4.8-5.7-7.8-7.8-1.5-1-3.1-1.9-4.8-2.3-.8-.2-1.7-.4-2.6-.4-.4 0-.9 0-1.3.1s-.9.2-1.1.3l-.3.1-.3-.1c-2.4-.5-4.9-.5-7.2.4-2.3.8-4.3 2.4-5.9 4.3-3.3 3.9-5.5 8.7-7.1 13.6-1.7 4.9-2.8 10.1-3.7 15.2-.9 5.1-1.6 10.3-2 15.5zM206.2 523.9c1 1.6 1.9 3.4 2.6 5.1.7 1.8 1.3 3.6 1.7 5.5.2.9.4 1.9.5 2.9.1 1 .2 1.9.1 2.9-.1 1.9-.5 3.9-1.6 5.5.7-1.8.8-3.7.8-5.5-.1-1.9-.4-3.7-.8-5.5-.4-1.8-.9-3.6-1.5-5.4-.5-1.9-1.1-3.7-1.8-5.5zM100.1 436.8c-1.2 1.5-2.4 3-3.5 4.5s-2.2 3-3.2 4.6c-1 1.6-1.9 3.2-2.6 4.9-.7 1.7-1.2 3.5-1.1 5.5-.5-1.9-.2-3.9.4-5.7.3-.9.7-1.8 1.1-2.7.5-.9.9-1.7 1.4-2.5 1-1.6 2.2-3.2 3.5-4.6 1.1-1.5 2.5-2.8 4-4z"/><g><path d="M192.4 659.9s-1.9 12.2-5.1 27.2c-1.9 8.9-4.2 18.7-6.8 27.5-4 13.5-8.7 24.6-13.6 26.3l-47.1-.6s-6.9-8.8-14.4-25.7c-3.4-7.6-6.9-16.8-9.9-27.5-2.3-8.2-4.3-17.2-5.8-27.2h102.7z" style="fill:#1e1e1e"/><path class="st3" d="M187.3 687c-1.9 8.9-4.2 18.7-6.8 27.5h-75.1c-3.4-7.6-6.9-16.8-9.9-27.5h91.8z"/></g></g></g></svg>