<svg version="1.1" id="Layer_1" xmlns="http://www.w3.org/2000/svg" x="0" y="0" viewBox="0 0 1000 576.5" style="enable-background:new 0 0 1000 576.5" xml:space="preserve"><style>.st0{fill:#f1f2f2}.st2{fill:#fdffff}.st3{opacity:.57;fill:#f1f2f2}.st4{fill:#fcbd99}.st5{opacity:.61;fill:#d1d3d4}.st6{fill:#4570ad}.st8{fill:#feac02}.st11{fill:#ae5354}.st14{fill:#ff4d53}.st16{fill:#fad2a0}.st17{fill:#491f42}.st19{fill:#262626}.st22{fill:#ffd5ad}.st23{fill:#fbcfa5}</style><path class="st0" d="M0 418.6h1000v149.9H0z"/><path style="fill:#c8b7f9" d="M0 11.2h1000v407.3H0z"/><path class="st0" d="M14.8 43.8h973.6v348H14.8z"/><path class="st2" d="M25.2 46.1h301.2v345.1H25.2zM350.4 46.1h301.2v345.1H350.4zM676.7 46.1h301.2v345.1H676.7z"/><path class="st3" d="M267.9 46.1 25.2 288.8v-29L238.9 46.1zM326.3 60.7v76.1L72 391.2H25.2v-29.3zM146.5 391.2l179.8-193v69.7L216.2 391.2l-.6.6zM524.6 46.1 350.4 241v-68.6L468.1 46.1zM643.2 46.1 404.9 391.2l-.5.6h-36.1l.5-.6L605.7 46.1zM534.6 391.2l116.9-160v60.7l-74.6 99.3-.5.6h-42.3zM786.8 46.1 676.7 196.7v61.7L836.4 46.1zM907.9 46.1 676.7 366.3v24.9l43.3.6L967.1 46.1zM977.9 206.1 854.6 391.2s46.9.8 48.5.4c1.6-.4 74.8-118.3 74.8-118.3v-67.2z"/><g><path class="st4" d="m841.5 116.5 3.7 16.4 18.8 10.7V130z"/><ellipse class="st5" cx="840.2" cy="496.5" rx="107" ry="12.6"/><path class="st4" d="m784 326.2-18.4 139.6s4.7 15.8 18.4 0l36.5-126.1-36.5-13.5zM893.5 312.8l15.9 6.1s-11.6 40-11.1 60.1l-2.1 21.4s16.3 11.8 21.6-5.1l25.3-69s17.4-33.8-15.3-42.7l-11.1-4.7-23.2 33.9z"/><path class="st6" d="M766.2 461.6s-5.3 1.5-4.8 11.3L744 491.1s-12.1 18.4 11.1 14.8l29-19.2c2.6-1.7 4.3-4.7 4.3-7.8.1-6.4-.2-16.6-3.2-17.3-4.3-1-9 16.8-19 0zM897.4 388.9s-11.7 5.5-10.6 15.4c1.1 9.9 17.4 14.6 22.1 26.2 4.7 11.6 32.1 16.9 27.4 0-4.7-16.9-16.1-26.3-17.2-38.7 0 0-11.1 19.2-21.7-2.9z"/><ellipse class="st4" cx="859.9" cy="107.8" rx="18.4" ry="28.1"/><path d="M876.9 118.6s11.9.1 8.3-14.1c0 0 1.1-9 4.2-13.7 0 0 .2-9.5-6.2-11.1 0 0-3.8-9-12.7-9.5-9-.5-11.1 3.7-15.8 0-4.7-3.7-9-3.7-13.2 2.6-4.2 6.3-13.2 3.2-12.1 11.6s-7.3 9.2-.1 16.8c0 0-5.7 8.7 2.2 13.6s8.6 8.9 11.2 8.1-8.6-20.3-.9-19.7c0 0 10.3-7.2 14-10.9 3.7-3.7 2.6-2.6 9-.5s10.3-.4 10.3-.4 6.4 17.3 1.8 27.2z" style="fill:#471b3e"/><path class="st8" d="M832 123s26.3.2 43.7 36.2c0 0 9.5 31.2 0 55.9 0 0-5.3 31.6 4.2 40.6 0 0-24.8 31.6-100.6 15.8 0 0-.5-19.5 16.9-40l18.4-67.6c0-.1.5-39.8 17.4-40.9z"/><path d="m787.7 270.4-6.3 58.5s22.4 21.6 44.9 15.3c0 0 15.3-45.8 31.5-43.7 16.3 2.1 40.5 14.8 40.5 14.8s13.7-30.1 29.5-31.6c0 0-7.8-11-52.1-28.4.1-.2-30.5 23-88 15.1z" style="fill:#4670ad"/><path class="st4" d="M816 159.1s-42.8 39.1-11.8 47l11.8-47z"/><ellipse class="st4" cx="841.5" cy="108.9" rx="5" ry="7.7"/><path class="st4" d="m826.3 153.4 10.1 31.1s4.9 13.8 23.5 17.4c18.5 3.6 42.1 0 42.1 0s13.2 10 13.7 13.2c.5 3.2 10 4.2 9.5-5.8s-7.4-10.7-11.1-13.5c-3.7-2.8-13.2-7-13.2-7l-32.1-9.5-15.8-33.1-26.7 7.2z"/><path d="m822.5 157.6-2-24.8s7.1-16 18.4-8.7c11.2 7.4 21 23.2 21 23.2l-37.4 10.3z" style="fill:#ea9706"/></g><g><ellipse class="st5" cx="632.5" cy="470.6" rx="98.3" ry="11.5"/><path class="st6" d="M591.2 439.1s6.8 7.3 2.6 16c-4.2 8.6-21.6 15.5-21.6 15.5s-20 4.7-19-4.2c1.1-9 16.3-19.5 16.3-19.5l.2-7.7h21.5zM658.3 375.2l-7.2 7.2c-2.2 2.2-2.6 5.6-1.1 8.3 3.2 5.4 8.1 14.9 9.1 23 1.1 8.2 9.7 10.8 15.1 11.6 2.8.4 5.6-1.3 6.3-4.1.9-3.4 1.2-8.5-2-14.4 0 0-6.1-14.7-3.6-22l-16.6-9.6z"/><path class="st11" d="m638 147.4-3.7 13.2 22.8 10.2.9-10.2z"/><ellipse class="st11" cx="655.8" cy="139.3" rx="19.2" ry="24.5"/><path d="M638.2 146.2s8.3-9.6 10.1-16.3c1.8-6.7 14.8-3.5 15.8 0 1.1 3.5 4.6 4.9 8.4 4.2s2.7 6.7 2.3 9.2c-.4 2.5 3.7-2.5 4.7-12.3l4.6-3.2s.7-6.3-7-8.4c0 0 .9-8.9-11.2-6.7-12.1 2.3-20.2-1.8-27.6 7.7s-7.3 23.9-1.6 33l1.5-7.2z" style="fill:#441839"/><path d="m599.9 267.1-7.1 48.6s-5.3 44.3-12.6 63.2c-7.4 19-10.5 63.2-10.5 63.2s20.5 5.6 26.3-3c0 0 7.4-49.7 15.3-63.9 7.9-14.2 29-61.9 29-61.9s-1.4-8.2 15.6 2.9 22.8 13.2 22.8 13.2 4.7 1.2 0 10.3c-4.7 9.2-20.4 35.5-20.4 35.5l16.8 13.7 37.3-40.6s12.6-13.2 5.3-25.8-48.9-59.5-48.9-59.5l-68.9 4.1z" style="fill:#414042"/><path class="st11" d="M605.7 198.8s-15.1 11.3-8.7 19.3l6.4 8 2.3-27.3z"/><ellipse class="st11" cx="638.2" cy="141" rx="4.1" ry="5.2"/><path class="st14" d="M669.5 187.5s-5.8 55.3 0 64.1c5.8 8.8 5.5 17.9 5.5 17.9s-41.7 30.7-75.8 5.3l6.7-79s2.2-29.9 17.2-38.3c15-8.4 32.7 4.7 32.7 4.7s12.3 12.8 13.7 25.3z"/><path class="st11" d="M655.8 192.9s13.3 12.1 30.7 11.6 41.6-4.2 49 0c7.4 4.2 13.7-.6 12.1-7-1.6-6.3-2.6-3.6-7.9-4.7-3.6-.7-.9-1.8 1.1-2.5 1.4-.4 1.6-2.5.2-3-.7-.3-1.6-.1-2.9 1.1 0 0-4.6 2.5-7.7 2.5-3.2 0-39.3-4.8-45-3.6L666 176.7l-10.2 16.2z"/><path d="M631.6 155.8c5.1-2.3 11.1-1.3 15.5 2.3l9.6 7.7 12.1 10.2-12.1 19.8S627 185.1 624.6 174c-1.8-8 .1-15.1 7-18.2z" style="fill:#ef505c"/></g><g><ellipse class="st5" cx="414.3" cy="501.8" rx="98.3" ry="11.5"/><ellipse transform="rotate(-69.739 438.446 101.216)" class="st16" cx="438.4" cy="101.2" rx="26.1" ry="17.5"/><path class="st17" d="M453.9 82s-10.4 15.4-27.7 14.7l-6 4.3-.4 10s-15.2-8.8-27.3 11.3c-12.1 20-12.1 35.3-12.1 35.3s-20-.5-20-18.4-10.5-25.9 6.3-38 12.1-24.7 12.1-24.7 1.1-13.2 22.1-7.4 28.5-10 37.4-9 29.5 3.7 26.3 17.4c-3.2 13.7.3 14.2.3 14.2s8.6 10.5-3 17.1c-11.5 6.6-.5 20.8-.5 20.8s4.7 20.5-5.3 16.3c-10-4.2-21-19.7-21-19.7s19.9-3.1 21.2-25.1c1.6-23-2.4-19.1-2.4-19.1z"/><path class="st16" d="m381.5 215.1-13.2 33.7s28.5 18.4 60.6 10c0 0 15.3-.5 22.1-10 0 0-7.4-9-9-22.1l-60.5-11.6z"/><path d="m479 375.2-3.7 29s14.8 9.5 20 0v-26.3l-16.3-2.7z" style="fill:#fdd2a3"/><path class="st19" d="M475.3 388.9s-11.6 6.8-11.1 11.6c.5 4.7 7.9 20 8.4 27.4.5 7.4 23.3 27.2 27.7 11.2s-6.7-17-2.4-33.4c0 0 2.1-7.9-2.6-14 0 0-1.2 19.9-19.1 4.8l-.9-7.6z"/><path d="m339.2 425.7-4.6 48.6s3.7 17.4 14.2 6.8l3.2-10 10-38.5-22.8-6.9z" style="fill:#fecea5"/><path class="st19" d="M332.5 470.6s-10.5 3.1-6.8 13.9l-12.1 15s-8.4 11.1 14.2 10.5c0 0 25.8-11.6 25.8-13.2 0-1.6 1.6-26.3 1.6-26.3l-3.2.5c0 .1-4.2 11.7-19.5-.4z"/><path class="st16" d="M485.3 191.9s2.6 14.2 0 16.9c0 0 6.7-1.1 5.3-8.4-1.5-7.4 6.8 7.4 4.7 11.6 0 0 11.1 2.1 10-10-1.1-12.1-1.6-13.7-10-19-8.4-5.3-10 8.9-10 8.9z"/><ellipse transform="rotate(-69.739 422.386 95.289)" class="st16" cx="422.4" cy="95.3" rx="6.1" ry="4.1"/><path class="st8" d="M374.1 245.1s47.3 12 71.9-4.8c0 0 5.6-.5 5 8.5 0 0 9.5 0 14.8 8.4 0 0 23.8 13.7 34.6 22.1s22.8 19.5 14.9 50.1-17.4 52.7-17.4 52.7-17.4 3.7-21.6-3.2c-4.2-6.8 3.7-54.8 3.7-54.8s-10.6-9-34-20c-23.4-11.1-47.1 34.8-47.1 34.8s-8.4 22.7-11.1 41.6c-2.6 19-15.8 26.9-15.8 26.9s0 40.6-22.1 30c-22.1-10.5-7.4-42.7-7.4-42.7s6.8-8.4 5.8-15.8c-1.1-7.4 5.3-9.5 5.3-9.5l5.8-69s-4.2-16.9 4.2-31.1c0 0 2.6-26.7 4.7-26.3s5.8 2.1 5.8 2.1z"/><path d="M388.5 129.8s10.9-28.6 31.4-18.7c0 0 15.6 13.2 25.2 26.7 0 0 47.6 34.1 52.9 41.5 0 0-4.7 13.2-14.2 17.4 0 0-4.2-14.2-23.2-20.5l-7.4-2.1s-2 19.5-9.9 35.8c0 0 11 18.4 5.7 23.2-5.3 4.7-42.4 2.1-60.5-11.1l-14.4 6.3s5.8-14.8 6.8-41.1-2.8-35.8 7.6-57.4z" style="fill:#9e46cc"/></g><g><ellipse class="st5" cx="162.5" cy="484.5" rx="98.3" ry="11.5"/><path class="st22" d="m178 130.2-9.3 6 17.3 12.1 11-5.4z"/><ellipse class="st22" cx="194" cy="126" rx="18.4" ry="24.8"/><path class="st23" d="M110.7 369.4 97 461.6s5.8 9.5 10.5 4.7c4.7-4.7 4.3-11.3 4.3-11.3l25.8-83.6-26.9-2zM238.7 325.2l-15.8 63.7s15.3 15.3 19-3.2l22.1-53.2-25.3-7.3z"/><path class="st19" d="M222.9 381s-13.7 15.3-7.4 21.6 11.1 8.4 19.5 20.5c5.1 7.4 13.2 9.1 18.7 9.3 3.8.1 6.9-3 6.8-6.8-.2-4-1.5-9.4-6-15.2-9-11.6-11.1-28.6-11.1-28.6s-8.9 23.5-20.5-.8zM98.5 451.7s-7.3 2.6-8.3 11.5L70.7 478s-6.8 11.6 7.9 12.4 34.8-16.1 34.8-16.1 4.2-7.4 3.4-16.3c0 0 .3-8.3-5-6.3 0 0-7.6 17.4-13.3 0z"/><path class="st17" d="M172.8 133s4.8-.1 4.2-7c-.7-7-1.8-10.5 3.2-10.5s12.3-11.6 18.3-8.1 5.6 11.3 9.1 10.2 4.9 12.6 4.9 12.6l-1.1 5.6s8.9-1.1 7.8-9.9 6.3-12.2 2.8-17c-3.5-4.8-.7-6.5-5.3-13.7-4.6-7.2-5.3-10.7-12.6-9.3s-13.3-7.4-23.2 3.5c0 0-8.3.4-8 8.8 0 0-8.8 2.5-8.8 11.6s-3.2 11.2 0 16.1 8.7 7.1 8.7 7.1z"/><path class="st14" d="m127.1 257.7-19.5 113.8 31.1 3.7 36.9-82.7s50.6 16.9 63.2 19.5v16.3s21.6 12.1 27.4 7.4l8.4-19.2s9.5-16.6-4.7-26.6-70.1-38.4-70.1-38.4-31.6 23.1-72.7 6.2z"/><path class="st6" d="m171.3 131.8 22.7 19s10 26.9 6.8 35.3c-3.2 8.4-7.4 19-3.2 36.9s8.4 33.2 8.4 33.2-37.4 26.3-60.6 13.7c-23.2-12.6-20.5-6.3-20.5-6.3s-2.1-22.7 10.5-37.4c0 0 3.7-12.1 4.2-29.2s0-36.6 0-36.6 5.8-22.1 18.4-20.5c.1-.2 12.3-.7 13.3-8.1z"/><path d="M139.8 162.9s3.1 30.2 20 21.4c0 0 19.1-17.3 8.3-41.5-.1.1-22-13.6-28.3 20.1z" style="fill:#f3cea9"/><path class="st22" d="M137.6 160.1s-8.1-14.8 9.8-20c0 0 20.3 1.4 32.3 6 12 4.6 14.2 4.7 14.2 4.7h26.5s13-4.4 15.1 1.6c2.1 6 0 9.1 0 9.1H231l-1.8 3.2-6.3-2.5-7-.7s-31.6 6.3-46.7 6c-15.1-.4-31.6-7.4-31.6-7.4z"/></g></svg>