<?xml version="1.0" encoding="utf-8"?>
<!-- Generator: Adobe Illustrator 24.3.0, SVG Export Plug-In . SVG Version: 6.00 Build 0)  -->
<svg version="1.1" id="Layer_1" xmlns="http://www.w3.org/2000/svg" xmlns:xlink="http://www.w3.org/1999/xlink" x="0px" y="0px"
	 viewBox="0 0 1000 806.28" style="enable-background:new 0 0 1000 806.28;" xml:space="preserve">
<style type="text/css">
	.st0{opacity:0.08;fill:#9B72DB;}
	.st1{opacity:0.25;}
	.st2{fill:#9B72DB;}
	.st3{fill:#D3C3FC;}
	.st4{opacity:0.56;}
	.st5{fill:#FDBF9E;}
	.st6{fill:#774CC9;}
	.st7{fill:#FF4D53;}
	.st8{fill:#2D2A2D;}
	.st9{fill:#3A3A3A;}
	.st10{fill:#FFFFFF;}
	.st11{fill:#4570AD;}
	.st12{fill:#FEAC02;}
</style>
<g>
	<ellipse class="st0" cx="493.78" cy="715.54" rx="487.34" ry="78.67"/>
	<g class="st1">
		<path class="st2" d="M234.19,520.64c-20.54-4.75-40.19-12.76-58.14-23.82C116.69,460.25-7.49,369.56,41.72,275.85
			C105.51,154.36,208.3,199.23,343.6,170S498.93,56.53,551.86,25.16s231.92-48.98,260.65,44.18s-24.85,133.98,29.89,207.83
			s71.82,81.43,63.47,147.57C900.59,466.63,693.73,626.99,234.19,520.64z"/>
		
			<ellipse transform="matrix(0.9878 -0.156 0.156 0.9878 -22.453 139.5678)" class="st2" cx="878.17" cy="212.87" rx="30.92" ry="62.72"/>
		
			<ellipse transform="matrix(0.9615 -0.2746 0.2746 0.9615 -20.1058 92.4202)" class="st2" cx="320" cy="118.01" rx="96.37" ry="44.31"/>
		
			<ellipse transform="matrix(0.9737 -0.2279 0.2279 0.9737 0.397 107.5006)" class="st2" cx="465.63" cy="52.03" rx="20.81" ry="19.16"/>
	</g>
	<ellipse class="st3" cx="500.45" cy="665.35" rx="487.34" ry="111.67"/>
	<g class="st4">
		<path class="st2" d="M256.15,515.1c-19.16-4.44-37.5-11.91-54.24-22.22C146.53,458.76,30.67,374.15,76.58,286.72
			c59.52-113.34,155.41-71.48,281.65-98.75S503.14,82.11,552.52,52.84S768.89,7.15,795.7,94.06s-23.18,125,27.89,193.9
			c51.07,68.9,67,75.97,59.22,137.68C877.87,464.71,684.88,614.32,256.15,515.1z"/>
	</g>
	<g>
		<path class="st5" d="M626.65,503.88c0,0-8.41,14.36-8.41,17.98c0,3.62,0,16.17,0,16.17s3.62,2.85,4.14-1.81
			c0.65-4.66,1.81-11.9,6.6-13.07c4.79-1.16,5.95,3.62,2.46,4.79c-3.62,1.16-5.56,9.06-5.56,9.06s1.94,2.98,4.4-0.65
			c2.46-3.62,2.46-3.62,2.46-3.62s-3.88,13.84-3.11,15.91s3.75,6.34,4.01,0c0.26-6.34,5.05-11.13,5.05-11.13v14.49
			c0,0,3.62,3.49,4.79-1.29s2.46-14.36,2.46-14.36s7.25,12.03,14.36,10.87c0,0,2.46-2.46-2.46-5.95
			c-4.92-3.49-10.87-16.82-10.87-16.82s-5.95-24.06-12.03-26.39L626.65,503.88z"/>
		<path class="st5" d="M336.2,443.08c0,0-12.16,9.19-13.33,17.6s-19.15,30.02-19.15,30.02s0.13,2.46,6.08,0l3.49-3.62
			c0,0-2.85,9.44-7.63,14.1c-1.42,1.42-1.81,3.75-0.52,5.3c0.52,0.65,1.16,0.91,1.94,0.65c2.72-0.91,9.32-12.29,9.32-12.29
			L312.13,511c0,0,3.62,0.91,7.25-8.41c3.62-9.32-1.81,9.96-1.81,9.96s2.98,4.53,4.92,0c3.62-8.41,9.96-28.2,9.96-28.2
			s3.11-9.57,8.8-4.66s8.15,8.54,11.77,6.08c0,0-3.62-8.41-8.41-13.2c-4.79-4.79-7.25-9.57-5.95-13.2c1.16-3.62,7.25-7.25,7.25-7.25
			L336.2,443.08z"/>
		<path class="st5" d="M561.7,512.29h21.09c0,0-4.27,3.62-13.84,10.87c-9.57,7.24-19.15,21.61-25.23,25.23
			c-6.08,3.62-18.37,16.3-24.84,16.56c-6.47,0.26-12.03,4.79-12.81,12.16c-0.78,7.37-8.41,38.04-4.53,41.27
			c3.75,3.23,26.65-39.98,26.65-39.98l79.18-54.08c0,0,27.95-22.77,11-31.83c0,0-12.16-12.68-21.74-11.39l-25.88-2.2L561.7,512.29z"
			/>
		<g>
			<g>
				<path class="st6" d="M519,564.82c0,0-15.01-11.26-18.5,7.76c-3.49,19.02-8.67,41.79-8.67,41.79l1.16,14.36
					c0,0,11.26,5.69,12.42-10.35c0,0-1.16-22.9,0-32.09C506.58,577.11,508.53,565.73,519,564.82z"/>
				<polygon class="st6" points="519,564.82 526.9,580.73 519,591.99 504.9,597.55 505.03,589.79 520.95,585.52 513.57,566.63 				
					"/>
			</g>
		</g>
		<path class="st5" d="M470.49,587.98v61.71c0,0,5.82,32.34,13.07,42.95l7.25,24.97h10.61c0,0-12.94-120.06-11.13-136.88
			L470.49,587.98z"/>
		<path class="st6" d="M488.47,712.83c0,0,0,0-8.15,26c0,0-7.89,31.57,9.7,29.24c17.6-2.46,16.04-33.64,16.04-33.64l-4.4-24.06
			L488.47,712.83z"/>
		<path class="st5" d="M486.01,738.44h15.53c0,0-5.3,18.37-9.7,16.17C487.31,752.42,484.72,748.53,486.01,738.44z"/>
		<polygon class="st5" points="486.01,728.61 501.54,728.61 501.54,719.68 489.77,719.94 		"/>
		<path class="st5" d="M532.46,332.33c-4.4,18.5-20.05,30.66-34.93,27.04c-14.88-3.62-21.99-21.48-17.6-39.98
			c4.4-18.5,18.89-30.66,33.77-27.04C528.45,295.98,536.86,313.83,532.46,332.33z"/>
		<path class="st5" d="M489.9,356.01v10.09h-28.85c0,0-13.84,20.05,34.93,30.27c0,0,41.66,3.11,47.61-7.76
			c0,0-7.25-13.2-19.15-14.36c-12.03-1.16-12.03-1.16-12.03-1.16l11.39-23.68L489.9,356.01z"/>
		<polygon class="st7" points="478.64,366.1 474.89,380.59 480.97,384.34 485.88,366.1 		"/>
		<polygon class="st7" points="519,373.73 519,388.74 523.66,388.09 524.57,374.25 		"/>
		<path class="st6" d="M446.17,500.39c0,0,0.26,34.67,5.18,47.87c4.79,13.2,17.98,44.38,17.98,44.38s16.82,7.25,20.44-8.41
			c3.62-15.65,1.94-61.97-3.88-65.21c-5.82-3.23,13.84-1.03,20.18-4.53c6.34-3.49,57.96,0,57.96,0s15.65-29.89,7.25-39.59
			l-49.68-4.4C521.72,470.76,501.15,516.17,446.17,500.39z"/>
		<path class="st8" d="M483.69,307.49c0,0-1.94-20.7,22.51-28.59c0,0,19.67-3.11,31.7,4.01c0,0,5.95-12.03,15.65,4.79
			c0,0,3.11,13.07,1.55,19.79c0,0,2.07,24.19-11.13,35.19c0,0-17.34,18.11-24.32,15.78l7.89-13.97c0,0,14.36-12.68,13.58-14.23
			c-0.78-1.68-8.15,0.39-8.15,0.39s3.23-22.38-6.08-29.63c-9.32-7.25-22.64-15.01-37-0.39L483.69,307.49z"/>
		<path class="st7" d="M496.36,389.26c0,0,33.38,2.46,42.18-7.5l48.39,51.36c0,0,42.05,50.46,48,64.82l-8.41,5.95
			c0,0-17.98-26.39-25.23-28.85s-29.76-25.49-32.86-31.96c-3.11-6.47-37.91-38.81-37.91-38.81s-1.16,27.56-10.87,42.05
			c-9.7,14.49,4.79,27.56,4.79,27.56s-17.34,45.67-78.27,30.02c0,0-0.91-17.98,3.88-32.47c4.79-14.36,9.7-17.08,6.08-28.33
			c-3.62-11.26-8.67-39.33-4.92-46.32l-105.57,55.5l-13.33-9.19l128.86-76.98C461.17,366.1,472.95,386.15,496.36,389.26z"/>
		
			<ellipse transform="matrix(0.4437 -0.8962 0.8962 0.4437 -3.9489 667.3093)" class="st5" cx="535.52" cy="336.84" rx="8.8" ry="5.95"/>
	</g>
	<g>
		<path class="st5" d="M356.51,350.18c0,0-8.41,14.36-8.41,17.98c0,3.62,0,16.17,0,16.17s3.62,2.85,4.14-1.81
			c0.65-4.66,1.81-11.9,6.6-13.07c4.79-1.16,5.95,3.62,2.46,4.79c-3.49,1.16-5.56,9.06-5.56,9.06s1.94,2.98,4.4-0.65
			c2.46-3.62,2.46-3.62,2.46-3.62s-3.88,13.84-3.11,15.91c0.78,2.07,3.75,6.34,4.01,0c0.26-6.34,5.05-11.13,5.05-11.13v14.49
			c0,0,3.62,3.49,4.79-1.29c1.16-4.79,2.46-14.36,2.46-14.36s7.25,12.03,14.36,10.87c0,0,2.46-2.46-2.46-5.95
			c-4.79-3.62-10.87-16.82-10.87-16.82s-5.95-24.06-12.03-26.39L356.51,350.18z"/>
		<path class="st5" d="M66.06,289.38c0,0-12.16,9.19-13.33,17.6c-1.16,8.41-19.15,30.02-19.15,30.02s0.13,2.46,6.08,0l3.49-3.62
			c0,0-2.85,9.44-7.63,14.1c-1.42,1.42-1.81,3.75-0.52,5.3c0.52,0.65,1.16,0.91,1.94,0.65c2.72-0.91,9.32-12.29,9.32-12.29
			l-4.27,16.17c0,0,3.62,0.91,7.25-8.41s-1.81,9.96-1.81,9.96s2.98,4.53,4.92,0c3.62-8.41,9.96-28.2,9.96-28.2s3.11-9.57,8.8-4.66
			s8.15,8.54,11.77,6.08c0,0-3.62-8.41-8.41-13.2c-4.79-4.79-7.25-9.57-5.95-13.2c1.16-3.62,7.25-7.25,7.25-7.25L66.06,289.38z"/>
		<path class="st5" d="M291.69,358.59h21.09c0,0-4.27,3.62-13.84,10.87c-9.57,7.25-19.15,21.61-25.23,25.23
			c-5.95,3.62-18.37,16.3-24.84,16.56s-12.03,4.79-12.81,12.16c-0.78,7.37-8.41,38.04-4.53,41.27c3.75,3.23,26.65-39.98,26.65-39.98
			l79.18-54.08c0,0,27.95-22.77,11-31.83c0,0-12.16-12.68-21.74-11.39l-25.88-2.2L291.69,358.59z"/>
		<g>
			<path class="st9" d="M248.87,411.12c0,0-15.01-11.26-18.5,7.76c-3.49,19.02-8.67,41.79-8.67,41.79l1.16,14.36
				c0,0,11.26,5.69,12.42-10.35c0,0-1.16-22.9,0-32.09C236.45,423.41,238.39,412.16,248.87,411.12z"/>
			<polygon class="st9" points="248.87,411.12 256.76,427.03 248.87,438.29 234.77,443.85 234.89,436.09 250.81,431.82 
				243.43,412.93 			"/>
		</g>
		<path class="st5" d="M200.35,434.28v61.71c0,0,5.82,32.34,13.07,42.95l7.25,24.97h10.61c0,0-12.94-120.06-11.13-136.88
			L200.35,434.28z"/>
		<path class="st9" d="M218.33,559.13c0,0,0,0-8.15,26c0,0-7.89,31.57,9.7,29.24c17.6-2.46,16.04-33.64,16.04-33.64l-4.4-24.06
			L218.33,559.13z"/>
		<path class="st5" d="M215.88,584.74h15.53c0,0-5.3,18.37-9.7,16.17C217.17,598.72,214.58,594.83,215.88,584.74z"/>
		<polygon class="st5" points="215.88,574.91 231.4,574.91 231.4,566.11 219.63,566.37 		"/>
		<path class="st5" d="M262.32,178.76c-4.4,18.5-20.05,30.66-34.93,27.04c-14.88-3.62-21.99-21.48-17.6-39.98
			c4.4-18.5,18.89-30.66,33.77-27.04C258.31,142.28,266.72,160.26,262.32,178.76z"/>
		<path class="st5" d="M219.76,202.31v10.09h-28.85c0,0-13.84,20.05,34.93,30.27c0,0,41.66,3.11,47.61-7.76
			c0,0-7.25-13.2-19.15-14.36c-11.9-1.16-12.03-1.16-12.03-1.16l11.39-23.68L219.76,202.31z"/>
		<polygon class="st10" points="208.5,212.4 204.75,226.89 210.83,230.64 215.75,212.4 		"/>
		<polygon class="st10" points="248.87,220.03 248.87,235.04 253.52,234.39 254.43,220.55 		"/>
		<path class="st9" d="M176.03,346.82c0,0,0.26,34.67,5.18,47.87c4.79,13.2,17.98,44.38,17.98,44.38s16.82,7.25,20.44-8.41
			c3.62-15.65,1.94-61.97-3.88-65.21c-5.82-3.23,13.84-1.04,20.18-4.53c6.47-3.49,57.96,0,57.96,0s15.65-29.89,7.25-39.59
			l-49.68-4.4C251.58,317.06,231.01,362.48,176.03,346.82z"/>
		<path class="st8" d="M213.55,153.92c0,0-1.94-20.7,22.51-28.59c0,0,19.67-3.11,31.7,4.01c0,0,5.95-12.03,15.65,4.79
			c0,0,3.11,13.07,1.55,19.79c0,0,2.07,24.19-11.13,35.19c0,0-17.34,18.11-24.32,15.78l7.89-13.97c0,0,14.36-12.68,13.58-14.23
			c-0.78-1.55-8.15,0.39-8.15,0.39s3.23-22.38-6.08-29.63c-9.32-7.25-22.64-15.01-37-0.39L213.55,153.92z"/>
		<path class="st10" d="M226.23,235.56c0,0,33.38,2.46,42.18-7.5l48.39,51.36c0,0,42.05,50.46,48,64.82l-8.41,5.95
			c0,0-17.98-26.39-25.23-28.85c-7.25-2.46-29.76-25.49-32.86-31.96c-3.11-6.47-37.91-38.81-37.91-38.81s-1.16,27.56-10.87,42.05
			c-9.57,14.36,4.79,27.56,4.79,27.56s-17.34,45.67-78.27,30.02c0,0-0.91-17.98,3.88-32.47c4.79-14.36,9.7-17.08,6.08-28.33
			c-3.62-11.26-8.67-39.33-4.92-46.32L75.5,298.56l-13.33-9.19l128.86-76.98C191.04,212.4,202.81,232.45,226.23,235.56z"/>
		
			<ellipse transform="matrix(0.4437 -0.8962 0.8962 0.4437 -16.5243 339.7106)" class="st5" cx="265.36" cy="183.17" rx="8.8" ry="5.95"/>
	</g>
	<g>
		<path class="st5" d="M960.59,417.36c0,0-8.41,14.36-8.41,17.98c0,3.62,0,16.17,0,16.17s3.62,2.85,4.14-1.81
			c0.52-4.66,1.81-11.9,6.6-13.07c4.79-1.16,5.95,3.62,2.46,4.79c-3.62,1.16-5.56,9.06-5.56,9.06s1.94,2.98,4.4-0.65
			s2.46-3.62,2.46-3.62s-3.88,13.84-3.11,15.91c0.78,2.07,3.75,6.34,4.01,0c0.26-6.34,5.05-11.13,5.05-11.13v14.49
			c0,0,3.62,3.49,4.79-1.29c1.16-4.79,2.46-14.36,2.46-14.36s7.24,12.03,14.36,10.87c0,0,2.46-2.46-2.46-5.95
			c-4.79-3.62-10.87-16.82-10.87-16.82s-5.95-24.06-12.03-26.39L960.59,417.36z"/>
		<path class="st5" d="M670.14,356.56c0,0-12.16,9.19-13.33,17.6c-1.16,8.41-19.15,30.02-19.15,30.02s0.13,2.46,6.08,0l3.49-3.62
			c0,0-2.85,9.44-7.63,14.1c-1.42,1.42-1.81,3.75-0.52,5.3c0.52,0.65,1.16,0.91,1.94,0.65c2.72-0.91,9.32-12.29,9.32-12.29
			l-4.27,16.17c0,0,3.62,0.91,7.25-8.41c3.62-9.32-1.81,9.96-1.81,9.96s2.98,4.53,4.92,0c3.62-8.41,9.96-28.2,9.96-28.2
			s3.11-9.57,8.8-4.66c5.69,4.92,8.15,8.54,11.77,6.08c0,0-3.62-8.41-8.41-13.2s-7.25-9.57-5.95-13.2s7.25-7.25,7.25-7.25
			L670.14,356.56z"/>
		<path class="st5" d="M895.77,425.77h21.09c0,0-4.27,3.62-13.84,10.87c-9.57,7.25-19.15,21.61-25.23,25.23
			c-5.95,3.62-18.37,16.3-24.84,16.56c-6.47,0.26-12.03,4.79-12.81,12.16c-0.78,7.37-8.41,38.04-4.53,41.27
			c3.75,3.23,26.65-39.98,26.65-39.98l79.18-54.08c0,0,27.95-22.77,11-31.83c0,0-12.16-12.68-21.74-11.39l-25.88-2.2L895.77,425.77z
			"/>
		<g>
			<g>
				<path class="st11" d="M852.95,478.3c0,0-15.01-11.26-18.5,7.76c-3.49,19.02-8.67,41.79-8.67,41.79l1.16,14.36
					c0,0,11.26,5.69,12.42-10.35c0,0-1.16-22.9,0-32.09C840.53,490.59,842.6,479.21,852.95,478.3z"/>
				<polygon class="st11" points="852.95,478.3 860.84,494.21 852.95,505.47 838.84,510.9 839.1,503.27 855.02,499 847.51,480.11 
									"/>
			</g>
		</g>
		<path class="st5" d="M804.56,501.33v61.71c0,0,5.82,32.34,13.07,42.95l7.25,24.97h10.61c0,0-12.94-120.06-11.13-136.88
			L804.56,501.33z"/>
		<path class="st11" d="M822.54,626.18c0,0,0,0-8.15,26c0,0-7.89,31.57,9.7,29.24c17.6-2.46,16.04-33.64,16.04-33.64l-4.4-24.06
			L822.54,626.18z"/>
		<path class="st5" d="M820.09,651.92h15.53c0,0-5.3,18.37-9.7,16.17C821.38,665.9,818.79,662.02,820.09,651.92z"/>
		<polygon class="st5" points="820.09,641.96 835.48,641.96 835.48,633.16 823.71,633.42 		"/>
		<path class="st5" d="M866.4,245.81c-4.4,18.5-20.05,30.66-34.93,27.04c-14.88-3.62-21.99-21.48-17.6-39.98
			c4.4-18.5,18.89-30.66,33.77-27.04C862.52,209.46,870.93,227.31,866.4,245.81z"/>
		<path class="st5" d="M823.97,269.36v10.09h-28.85c0,0-13.84,20.05,34.93,30.27c0,0,41.66,3.11,47.61-7.76
			c0,0-7.25-13.2-19.15-14.36c-12.03-1.16-12.03-1.16-12.03-1.16l11.39-23.68L823.97,269.36z"/>
		<polygon class="st12" points="812.58,279.58 808.96,293.94 814.91,297.69 819.96,279.58 		"/>
		<polygon class="st12" points="852.95,287.08 852.95,302.22 857.6,301.57 858.51,287.6 		"/>
		<path class="st11" d="M780.24,413.87c0,0,0.26,34.67,5.18,47.87c4.79,13.2,17.98,44.38,17.98,44.38s16.82,7.25,20.44-8.41
			c3.62-15.65,1.94-61.97-3.88-65.21c-5.82-3.23,13.84-1.03,20.18-4.53c6.34-3.49,57.96,0,57.96,0s15.65-29.89,7.25-39.59
			l-49.68-4.4C855.79,384.11,835.09,429.66,780.24,413.87z"/>
		<path class="st8" d="M817.63,220.97c0,0-1.94-20.7,22.51-28.59c0,0,19.67-3.11,31.7,4.01c0,0,5.95-12.03,15.65,4.79
			c0,0,3.11,13.07,1.55,19.79c0,0,2.07,24.19-11.13,35.19c0,0-17.34,18.11-24.32,15.78l7.89-13.97c0,0,14.36-12.68,13.58-14.23
			c-0.78-1.68-8.15,0.39-8.15,0.39s3.23-22.38-6.08-29.63c-9.32-7.25-22.64-15.01-37-0.39L817.63,220.97z"/>
		<path class="st12" d="M830.31,302.61c0,0,33.38,2.46,42.18-7.5l48.39,51.36c0,0,42.05,50.46,48,64.82l-8.41,5.95
			c0,0-17.98-26.39-25.23-28.85c-7.25-2.46-29.76-25.49-32.86-31.96s-37.91-38.81-37.91-38.81s-1.16,27.56-10.87,42.05
			c-9.7,14.49,4.79,27.56,4.79,27.56s-17.34,45.67-78.27,30.02c0,0-0.91-17.98,3.88-32.47s9.7-17.08,6.08-28.33
			c-3.62-11.26-8.67-39.33-4.92-46.32l-105.44,55.63l-13.33-9.19l128.86-76.98C795.12,279.58,806.89,299.63,830.31,302.61z"/>
		
			<ellipse transform="matrix(0.4437 -0.8962 0.8962 0.4437 259.5052 918.3918)" class="st5" cx="869.49" cy="250.17" rx="8.8" ry="5.95"/>
	</g>
</g>
</svg>
