<svg version="1.1" id="Layer_1" xmlns="http://www.w3.org/2000/svg" xmlns:xlink="http://www.w3.org/1999/xlink" x="0" y="0" viewBox="0 0 1000 743" style="enable-background:new 0 0 1000 743" xml:space="preserve"><style>.st0{fill:#e2d5f7}.st4{fill:#cfb5f6}.st5{fill:#a983e5}.st6{fill:#fff}.st7{opacity:.41;fill:#d1d3d4}.st8{opacity:.14;fill:#a983e5}.st9{fill:#fdb47b}.st10{fill:#272828}.st14{fill:#f9bf98}.st16{fill:#ff9a44}.st17{opacity:.29;fill:#fff}.st18{fill:#a2bfec}.st22{fill:#f1f2f2}.st24{opacity:.49;fill:#bcbec0}.st25{fill:#fccba9}</style><ellipse class="st0" cx="475.9" cy="638.4" rx="387.9" ry="97.5"/><path class="st0" d="M108.5 591.2S27 552.9 46.2 432.4s30.3-147.8 10.1-204.9S100.4-29.4 492.1 10.9C776 40 890.3 22 940 178s-36.1 158.8-23.4 280 3.3 120.6-39.7 147.1-768.4-13.9-768.4-13.9z"/><defs><path id="SVGID_1_" d="M920.1 186.6C864 41 746 38 492.5 27.4 117.2 11.7 57.5 179.5 76.7 234c19.2 54.5 8.8 80.5-9.6 195.5S126.5 581 126.5 581s8.6.5 23.8 1.3c-27.7 13-43.3 27.9-43.3 43.7 0 51.4 165.7 93 370 93s370-41.6 370-93c0-9.1-5.2-17.9-15-26.3 14.1-1.3 23.6-3.1 27.5-5.5 41-25.3 50-24.7 37.9-140.3-12.2-115.6 78.9-121.5 22.7-267.3z"/></defs><clipPath id="SVGID_2_"><use xlink:href="#SVGID_1_" style="overflow:visible"/></clipPath><g style="clip-path:url(#SVGID_2_)"><path style="fill:#e6e7e8" d="M49 581h908v138H49z"/><path style="fill:#eae0fd" d="M49 49.5h908V581H49z"/><ellipse class="st4" cx="477" cy="626" rx="370" ry="93"/><path class="st4" d="M126.5 581s-77.8-36.5-59.4-151.5S96 288.5 76.7 234 119.4-16.7 492.5 27.4s380.2 10.4 427.6 159.2-34.9 151.7-22.7 267.3c12.1 115.6 3.1 115-37.9 140.3s-733-13.2-733-13.2z"/><path class="st5" d="M49.5 381.5h908v21h-908z"/><path class="st6" d="M318 51h384v330H318z"/><path class="st5" d="M295.5 50.2h23V385h-23zM702.5 49h23v334.8h-23zM506 47.9h9v334.8h-9z"/><path transform="rotate(90 507.5 215.5)" class="st5" d="M503 18h9v395h-9z"/><path class="st7" d="M610 379v-93.8l23.7.9V188h25v-66.2l24.9-2v-35h18.9v297zM318 142.6h40V379h-40zM358 262.8h106V383H358z"/><path class="st7" d="M372 200.2h74v65.6h-74zM464 322.4h146V379H464z"/><path class="st7" d="M512 233h31v90.4h-31z"/><path class="st8" d="M318.5 319.5 546.6 47.9h35L318.5 363.5zM702 107.2 515 382.7h31.6L705 142.6zM318.5 185.3l80-134.3h66l-146 211.1z"/><g><path class="st9" d="M625.5 651.5s3.8 18.5-2.1 19.7-43.4 0-43.4 0-1.8-6.4 7.3-9.6c0 0 12.2-.1 17.2-4.1s7-8 7-8l14 2zM701.7 649.5s-7.5 9.3-12.8 11.1c-5.3 1.9-14.3 3.9-14.3 6.9v3h44s2-15 0-21h-16.9z"/><ellipse transform="rotate(-79.211 707.012 259.01)" class="st9" cx="707" cy="259" rx="23" ry="16"/><path class="st10" d="M693.7 247s-12.2-4.5-7.2-13.5 22-8 22-8 18 0 26 8-2.6 30.3-2.6 30.3l-9.4 8.7-1-9.7s2.8-11.2-.1-9.7-5.6 5-5.6 5-3.3-12.5-6.3-13.5-14.6-3.2-15.8 2.4z"/><path class="st9" d="m700.5 276.5-1 24s24 14 26-10L722 259l-21.5 17.5z"/><path d="M668.5 409.5s-27 56-38 87-17 63-19 82-4 73-4 73l21 2s18-74 21-92 34.1-55.8 34.1-55.8l37.3-96.2h-52.4z" style="fill:#3b689e"/><path d="M739.6 409.5s6.1 68.7 0 102.3-12.2 125.7-18.6 141.7l-22.4-1-11.5-243h52.5z" style="fill:#4570ad"/><path class="st9" d="M762.5 173.5s-5-8-7-12-3-11-3-11 5-.7 5 1.7 3 5.3 3 5.3 3-5 0-11 6-5 9 2 2 15 2 15l1.9 10h-10.9zM591.3 257.2s2.2-9.7 4.2-15.7 2-8 2-8-1.2-2.3-3.1 2.4-4.9 6.6-6.9 4.6 0-15 0-15-6.9-5.5-8.4 1.3c-1.6 6.8-2.4 21.7 0 22.3l2.1 13.1 10.1-5z"/><ellipse transform="rotate(-76.361 720.017 258.995)" class="st9" cx="720" cy="259" rx="6.1" ry="4.3"/><path d="M696.2 291.7s-17.7 2.8-29.7 4.8-43.4-3.8-47.7-2.4c0 0-22.9-33.6-26.6-40.1l-13.1 3.2 20.5 47.4s4 8.9 18 14.9 45 12 46 12 4 81 4 81h73.6l4.4-78 37-65s8-14 5-31-13-70-13-70l-15 3 6 68-25 40s-12 9-17 11-11.8 13.4-27.4 1.2z" style="fill:#feac02"/></g><g><ellipse transform="rotate(-10.44 502.465 282.147)" class="st14" cx="502.3" cy="282.1" rx="17.5" ry="24.1"/><path class="st14" d="M486.1 289.1V309s-3.6 7.5-8.6 4.5c-7.3-4.4-27-27-27-27l-24-44s9-17 7-22c0 0-4 1.6-7 7.3s-4 1.7-4 1.7v-5s-5-1-5 6 2 16 2 16l12.8 37.6s3.2 10.4 6.2 13.4 25 34 25 34 8 11 9 18l2 7 25.5-18h24.5l2-6 24-33s7-10 10-20 12-34 12-34 13-3 13-7l-1-13s-11 1-14 8l-5 8-20 37s-24 38-37 34l-1-13-21.4-10.4zM445.5 509.5v14.1s0 7.9-7 12.9-33 20-48 35-11 10-11 10-3.2 3.6-5.6.8c-2.4-2.8-2.4-5.8-7.4-5.8s-4.8 4.7-5.4 6.9c-.6 2.1-.6 5.1-4.6 7.1s-10 7-10 10 15 2 37-9 71-28 71-28 11-2 18-17 14.5-33 14.5-33-26.5-8-41.5-4zM493.5 516.5l6.5 27.3s3.5 11.1 0 17.4c-3.5 6.3-2.5 83.9-2.5 83.9s-8 9.2-4 13.8c4 4.6 7 1.6 13 8.6s19 2 19 2 0-4-5-5c0 0-12.1-9.8-11.6-13.4s18.6-80.6 18.6-80.6l5-43-39-11z"/><path class="st10" d="M510.2 262s-3.7 17.6-15.2 22.1c0 0-6.5-5.4-8-2s0 9.6 0 9.6-14.5-3.2-12.5-20.2c0 0 2-10 10-14 0 0-32 24-41 7s7-28 7-28 9-3 13 4c0 0 4 0 15-1s19 9 19 9l2.5 4.1s18.5-1.1 22.5 16.9l-2.4 14.6s-.2-18.5-9.9-22.1z"/><ellipse transform="rotate(-10.44 488.462 284.148)" class="st14" cx="488.3" cy="284.1" rx="4.5" ry="6.2"/><path d="M484.9 257.2s5.5-8.5 15-5.9" style="fill:none;stroke:#fff;stroke-width:3;stroke-linecap:round;stroke-miterlimit:10"/><path class="st6" d="M482.5 313.5s4 19.7 1 28.4c-3 8.6-11 12.8-11 12.8s12 23.8-6 44.8-42 78-42 78-17 25-26 28c0 0 23 15 48 10s44 8 61 13 44.2 6 52.6 0 15.4-7 15.4-7-8-48-22-73-31-48-31-48 17-37 4-68l-11.9-20.6-6.1.6-2 17-20.4-20.5-3.6 4.5z"/></g><g><path class="st16" d="M126.5 118c0-18.2 14.8-33 33-33s33 14.8 33 33"/><path class="st17" d="M159.5 85s-14.3 14.5-15.4 33h-10.2s1.1-23.5 25.6-33z"/><path class="st18" d="M156 49h7v36h-7z"/></g><g><path class="st16" d="M793.5 120c0-18.2 14.8-33 33-33s33 14.8 33 33"/><path class="st17" d="M826.5 87s-14.3 14.5-15.4 33h-10.2s1.1-23.5 25.6-33z"/><path class="st18" d="M823 51h7v36h-7z"/></g><g><path class="st6" d="M830 185h98v98h-98z"/><path class="st22" d="M846 201h66v66h-66z"/><path d="M879.5 245c-9.1 0-16.5-7.4-16.5-16.5s7.4-16.5 16.5-16.5" style="opacity:.6;fill:#bcbec0"/><path class="st24" d="M870.4 254c7 5.8 17.4 4.7 23.2-2.3 5.8-7 4.7-17.4-2.3-23.2"/></g><g><path class="st6" d="M87 185h98v98H87z"/><path class="st22" d="M103 201h66v66h-66z"/><circle class="st24" cx="136.5" cy="234.5" r="16.5"/></g><g><path class="st25" d="m169.5 579.5-9 48-13.6 24.8s6.6 11.2 20.6 2.2l6-26 32.3-49h-36.3zM248.5 587.5l15 46.5s-6 16.9 0 19.7 42.2 0 42.2 0 2.8-5.2-8.2-6.2c0 0-10 0-17-6l-3.2-8.4-2.8-51.6-26 6zM201.5 347.5s4 28.3-5 39.1c0 0 58 8.9 67-4.1 0 0-6-13-5-40l-57 5z"/><ellipse transform="rotate(-10.44 224.062 257.061)" class="st25" cx="224" cy="257" rx="16" ry="23"/><path class="st25" d="M212.5 265.5s4.5 13.4-3.2 24.2c0 0 11.2 9.8 22.2 4.8s10.8-8 10.8-8-3.8 2-7.8-2-3-13-3-13l-19-6zM244.5 288.5l32.6-26.7s4.4-2.3 6.4-15.3 5-37 5-37-7-7-7-12 3 0 3 0 3 4.3 4 2.6c1-1.6 0-9.5 0-9.5s3-10.2 8 1.8c0 0 4 5.8 0 15.9l3 38.1s3 14-6 25-35 46-35 46-17-16.9-14-28.9zM207.5 287.5 168.9 257s-5.4-2.5-6.4-14.5l-4-36s5-7 5-11c0 0 0-5-3-2l-2 4.5s-1 2.5-2-1.5 0-9.9 0-9.9l-.4-3.3s-8.6.2-8.6 10.2 2 13 2 13l-2 38.9s-4 7.1 9 24.1 42 54 42 54 15-15 9-36z"/><path d="M201.5 382.5s-24 7-26 83c0 0 11 57-6 76l-33 28s9.8 19.6 41.4 16.3 39.3 6 39.3 6 29.3 6.6 49.3-2.4 50-4 50-4-33.6-47.2-32.8-79.1.8-65.9-8.2-94.9L262 379.9s-38.5 10.6-60.5 2.6z" style="fill:#fc3a2b"/><path d="M230 237.1s12.5-1.6 8.5-10.6-17-5-20-5-16 4-16 4-.4-8-8.2-7c-4.2.5-9 .5-13.2 2-5.4 2-8.3 7.7-7.2 13.4.5 2.6.5 6-1.5 8.9-4 5.7 5.4 14.2 5.4 14.2s7.2 10.5 15.9 0c0 0 6 1.5 7.3 8.5s9.8 2.7 9.8 2.7-3-9.4-3.3-13 4.5-3.1 4.5-3.1 5.6 1.4 5.4-8.1c.3 0-3.9-6.3 12.6-6.9z" style="fill:#231f20"/><path d="M205.5 285.5s0 32-9 37c0 0 0 22.7 4.5 28.4 0 0 16.5 4.6 37.5 1.6s22-8 22-8 4-16-1-29c0 0-12.3-12-12.6-29h-4.6s-9.2 6.6-16.5 6.3-14.8-6.3-14.8-6.3l-5.5-1z" style="fill:#282727"/><ellipse transform="rotate(-30 210.985 257.007)" class="st25" cx="211" cy="257" rx="4.4" ry="6.3"/></g></g></svg>