<svg version="1.1" id="Layer_1" xmlns="http://www.w3.org/2000/svg" x="0" y="0" viewBox="0 0 1000 715.4" style="enable-background:new 0 0 1000 715.4" xml:space="preserve"><style>.st2{fill:#6d6e71}.st3{fill:#3ea388}.st4{fill:#6b82c0}.st5{fill:#fca819}.st6{fill:#f74c5d}.st7{fill:#4cc0a7}.st8{fill:#9d9d9e}.st9{fill:#eea77b}.st10{opacity:.24}.st13{fill:#eda189}.st21{fill:#f1a180}.st22{opacity:.18;fill:#050505}.st24{fill:#8a22e1}.st26{fill:#fff}.st30{stroke:#a7a9ac;stroke-width:2;stroke-miterlimit:10}.st30,.st32{fill:none}.st33{fill:#231f20}</style><path d="M84 695.7s-155.4-282.8 4.2-507.5S348 20.9 453.3 11.4s369.6 15.7 423.3 178.4c55.4 167.9 97.8 353.5 27.6 499.4L84 695.7z" style="fill:#eee0fd"/><path d="M84 704.3s-155.4-267 4.2-479.2 259.8-158 365.1-167 369.6 14.8 423.3 168.5c55.4 158.6 97.8 333.8 27.6 471.6L84 704.3z" style="fill:#cfb5f6"/><path class="st2" d="M871 215.6H94.2v-7.1c0-3.1 2.5-5.6 5.6-5.6 1.5 0 2.8.6 3.8 1.5H871c3.1 0 5.6 2.5 5.6 5.6s-2.5 5.6-5.6 5.6z"/><path class="st2" d="M217.7 692.8c-3.1 0-5.6-2.5-5.6-5.6V96.8c0-3.1 2.5-5.6 5.6-5.6s5.6 2.5 5.6 5.6v590.4c-.1 3.1-2.6 5.6-5.6 5.6zM728.1 697.2c-3.1 0-5.6-2.5-5.6-5.6V96.8c0-3.1 2.5-5.6 5.6-5.6 3.1 0 5.6 2.5 5.6 5.6v594.8c0 3.1-2.5 5.6-5.6 5.6z"/><path class="st3" d="M839.7 680.7h-11.1V248.6l.1-.6c2.4-10.4 6.3-40.5-4.7-54.3-4.1-5.2-10-7.7-18-7.7H705.8v-11.1h100.3c11.4 0 20.4 4 26.7 11.9 15.7 19.7 8.2 57.5 6.9 63.1v430.8z"/><path class="st3" d="M709.1 176.2s-19.4-28.6-37.7-29.1c-18.4-.5 18.9 38.8 34.7 38.3 15.8-.5 3-9.2 3-9.2zM759.7 167.7s-19.4-28.6-37.7-29.1c-18.4-.5 18.9 38.8 34.7 38.3 15.7-.5 3-9.2 3-9.2zM784.2 186.5s-18.3 21.6-33.3 20.4c-15-1.2 18.8-29.9 31.6-28.1 12.9 1.8 1.7 7.7 1.7 7.7z"/><path class="st4" d="M794 686s38.8-21.8 30.6-47.1 23.5-31.4 25.5-64 33.7-9.8 31.6-48.3c-2-38.4 25.5-9.4 27.5-47.9s16.3-44.6 16.3-44.6-42.8 24.1-45.9 41.1-14.3 41.5-30.6 42.5-31.6 60.2-31.6 60.2-22.4 16.3-17.3 41.8c0 0-7.5 20.2-10.9 27.9-3.3 7.9-12.5 23.2 4.8 38.4z"/><path class="st5" d="M833.8 695.3s-3.1-29.1 13.3-40.3 15.3-29.1 15.3-29.1S895 593.3 895 582s6.1-22 6.1-22-16.8 19.9-25 22.5c-8.2 2.6-36.2 21.2-39.3 36.9-3.1 15.6-14.8 11.3-19.4 28.3-4.6 16.9-12.8 31.4-11.2 42.4 1.6 11.1 27.6 5.2 27.6 5.2z"/><path class="st6" d="M853.6 689.7s-12.1-13.9 9.8-38.6 12.8-43 31.6-54.7c0 0 4.6-25.3 15.8-28.2 0 0 3.6 17.5-2 36.3-5.6 18.9-10.2 29.4-7.7 46.6 2.6 17.2-15.8 38.6-15.8 38.6h-31.7z"/><path class="st7" d="M769.5 689.7s-11.2-72.7 0-92.4c11.2-19.8-2.6-13.7 10.2-47.3s9.5-37.7 9.5-37.7 3.2-13.1 12.4-20.3c9.2-7.2 6.6-29.2 6.6-29.2s6.1-12.8 15.3-21.5c0 0 6.1-25.5 20.9-28.5 0 0 18.4-14.3 14.3 11.7 0 0-8.2 21.4-4.1 29.1 4.1 7.7-7.6 28.2-7.6 28.2s10.2 29.1-5.9 40.7c0 0 3.3 24-3.8 33.4-7.1 9.4-22.5 11-23.2 25-.8 14 9.8 30.1-1.6 38.3-11.4 8.3-23 8.7-17.5 19.8 5.4 11.1-6.1 8.9-3.6 28 2.6 19.1-7.7 25.5-7.7 25.5l-14.2-2.8z"/><path class="st8" d="M745.6 683.6s-23.5-69.7-15.9-91.1-4.9-13 1.9-48.4 2.9-38.8 2.9-38.8.9-13.5 8.7-22.1c7.8-8.7 1.5-29.9 1.5-29.9s3.8-13.7 11.4-23.8c0 0 1.7-26.1 15.7-31.7 0 0 15.6-17.2 16.1 9.1 0 0-4.4 22.5 1 29.3s-2.7 29.1-2.7 29.1 15 26.9 1.2 41.1c0 0 7.4 23.1 2 33.5s-20.2 14.7-18.6 28.6c1.7 13.9 14.9 27.9 5 38-9.8 10.1-21.1 12.5-13.9 22.5 7.3 10-4.5 9.9 1.3 28.2 5.8 18.3-3.2 26.5-3.2 26.5l-14.4-.1z"/><path class="st4" d="M175.3 692.1s-38.8-21.8-30.6-47.1c8.2-25.3-23.5-31.4-25.5-64s-33.7-9.8-31.6-48.3S62 523.3 60 484.8s-16.3-44.6-16.3-44.6 42.8 24.1 45.9 41.1 14.3 41.5 30.6 42.5 31.6 60.2 31.6 60.2 22.4 16.3 17.3 41.8c0 0 7.5 20.2 10.9 27.9 3.4 7.8 12.6 23.2-4.7 38.4z"/><path class="st5" d="M135.5 701.3s3.1-29.1-13.3-40.3-15.3-29-15.3-29-32.6-32.6-32.6-43.9-6.1-22-6.1-22 16.8 19.9 25 22.5 36.2 21.2 39.3 36.9c3.1 15.6 14.8 11.3 19.4 28.3 4.6 16.9 12.8 31.4 11.2 42.4-1.6 11.1-27.6 5.1-27.6 5.1z"/><path class="st6" d="M115.7 695.7s12.1-13.9-9.8-38.6-12.8-43-31.6-54.7c0 0-4.6-25.3-15.8-28.2 0 0-3.6 17.5 2 36.3 5.6 18.9 10.2 29.4 7.7 46.6-2.6 17.2 15.8 38.6 15.8 38.6h31.7z"/><path class="st7" d="M199.7 695.7s11.2-72.7 0-92.4c-11.2-19.8 2.6-13.7-10.2-47.3-12.8-33.7-9.5-37.7-9.5-37.7s-3.2-13.1-12.4-20.3c-9.2-7.2-6.6-29.2-6.6-29.2s-6.1-12.8-15.3-21.5c0 0-6.1-25.5-20.9-28.5 0 0-18.4-14.3-14.3 11.7 0 0 8.2 21.4 4.1 29.1-4.1 7.7 7.6 28.2 7.6 28.2s-10.2 29.1 5.9 40.7c0 0-3.3 24 3.8 33.4 7.1 9.4 22.5 11 23.2 25 .8 14-9.8 30.1 1.6 38.3 11.4 8.3 23 8.7 17.5 19.8-5.4 11.1 6.1 8.9 3.6 28-2.6 19.1 7.7 25.5 7.7 25.5l14.2-2.8z"/><path class="st8" d="M223.7 689.6s23.5-69.7 15.9-91.1c-7.7-21.4 4.9-13-1.9-48.4s-2.9-38.8-2.9-38.8-.9-13.5-8.7-22.1c-7.8-8.7-1.5-29.9-1.5-29.9s-3.8-13.7-11.4-23.8c0 0-1.7-26.1-15.7-31.7 0 0-15.6-17.2-16.1 9.1 0 0 4.4 22.5-1 29.3-5.4 6.8 2.7 29.1 2.7 29.1s-15 26.9-1.2 41.1c0 0-7.4 23.1-2 33.5 5.4 10.4 20.2 14.7 18.6 28.6-1.7 13.9-14.9 27.9-5 38 9.8 10.1 21.1 12.5 13.9 22.5s4.5 9.9-1.3 28.2c-5.8 18.3 3.2 26.5 3.2 26.5l14.4-.1z"/><g><path class="st9" d="m453.3 439.6-56.6 15.3s-30.1-22.2-49.6-41.5c-12.1-11.9-20.2-22.8-14.6-26.6 6.4-4.4 8.9-14 9.7-23.4 1-12-.8-23.6-.8-23.6l52.8 20.9 4.1 1.6 14.3 17.3h.3l18.4-1.9 16.8 19.7 5.2 42.2z"/><path class="st10" d="m394.1 360.7-47 52.7c-12.1-11.9-20.2-22.8-14.6-26.6 6.4-4.4 8.9-14 9.7-23.4 1-12-.8-23.6-.8-23.6l52.7 20.9z"/><path d="m338 380.2-52.2 36.4s-33.7 19.9-43.6 85.7c-9.9 65.8-12.2 90.3-12.2 90.3l88.7-25.2s-9.2 76.5 0 96.4c9.2 19.9 264-126.2 264-126.2L516 408.2s-22.2-38.3-52-39-52 0-52 0v66.6l-74-55.6z" style="fill:#3470b9"/><ellipse transform="rotate(-8.996 384.296 319.588)" class="st9" cx="384.3" cy="319.7" rx="49.3" ry="68.6"/><path d="M423.9 284s-.9-13.3-14.1-9.9c0 0-12.9 12.4-31.6 4.7-18.7-7.7-13.6 9.9-13.6 9.9s-1.3 23.2-14.3 24.1l-3.4 19.7s-13.6 4.8-19.4-22.4c-5.8-27.2 5-46.2 5-46.2s18.5-26.5 44-23.5c25.5 3.1 42.2 17.6 42.2 17.6s8.8 13.8 5.2 26z" style="fill:#222223"/><ellipse transform="rotate(-22.806 338.253 327.852)" class="st9" cx="338.3" cy="327.9" rx="11.7" ry="16.3"/><path class="st9" d="M236.4 590.7S223 648.4 263.6 653s97.9-52 97.9-52l56.6-36.7s15.3-38.3 25.2-37.5c9.9.8 20.1 0 20.1 0s8.7-5.9-3.6-9.6-21.9-3.7-21.9-3.7 21.8-9.2 28.5-6.6 0-8.7 0-8.7 11.8-9.2-.4-9.7c0 0 10.7-5.6-3.6-9.2l-13.3-2s-12.8-3.6-27 4.1c-14.3 7.7-18.9 9.7-21.4 23.5l-5.6 24.5-34.1 16.3-75 27.5-49.6 17.5z"/><path d="M323 473.5c.2 6.7.1 13.4 0 20.2-.1 3.4-.2 6.7-.4 10.1l-.5 10-.7 10c-.3 3.3-.5 6.7-.9 10-.6 6.7-1.3 13.4-2.4 20-.2-6.7-.1-13.4 0-20.2.1-3.4.2-6.7.4-10.1l.5-10 .7-10c.3-3.3.5-6.7.9-10 .6-6.7 1.3-13.4 2.4-20z" class="st10"/><g class="st10"><path d="M492.8 500.9c3.1 6 5.8 12.1 8.5 18.3 1.4 3.1 2.6 6.2 4 9.3l3.8 9.3 3.7 9.4c1.2 3.1 2.4 6.3 3.5 9.4 2.3 6.3 4.5 12.7 6.4 19.1-3.1-6-5.8-12.1-8.5-18.3-1.4-3.1-2.6-6.2-4-9.3l-3.8-9.3-3.6-9.4c-1.2-3.1-2.4-6.3-3.5-9.4-2.4-6.3-4.6-12.7-6.5-19.1z"/></g></g><g><path class="st13" d="M674.7 316.6s-8.2 33-8.2 34-34.7 45.2-34.7 45.2l-21.9-40-.8-1.5s-10.2-40.5-10.2-45.2l45.6-37.1c2.9 7.4 6.3 13.9 9.7 19.5 10 16.7 20.5 25.1 20.5 25.1z"/><path class="st10" d="m654.1 291.6-44.2 64.3-.8-1.5s-10.2-40.5-10.2-45.2l45.6-37.1c2.8 7.4 6.2 13.9 9.6 19.5z"/><path style="fill:#ef505d" d="M769.5 677.4h-172l1.9-24.3 2.5-30.8 160.8-8.1 3 27.3z"/><path class="st10" d="m765.7 641.5-166.3 11.6 2.5-30.8 160.8-8.1z"/><ellipse class="st13" cx="603.9" cy="258.1" rx="47.1" ry="61.6"/><path d="m555.3 263.3 59.2-48.6 25.5 25.6s11.9 22.9 9.7 31.8c0 0 29-2.8 18.5-42.7 0 0-4-13.7-21.5-18.5 0 0-7.7-27.2-41-29.9 0 0-31.3-7.1-52.7 25.5-21.5 32.6 2.3 56.8 2.3 56.8z" style="fill:#0f0f0f"/><path d="m667.5 313.6 47.9 15.3s10.2.3 26.9 16c16.7 15.6 25.5 36.7 25.5 36.7l16 62.6 5.4 36.4-34.3 18S778 618 768.2 621c-9.9 3.1-113.9 5.4-113.9 5.4h-55.4l-8.5-174.8-54.1-12.9 11.2-47.1s25.5-30.7 38.8-42.3C599.6 337.7 606 333 606 333l28.6 43.9c-.1-.1 29.5-39.5 32.9-63.3z" style="fill:#ff4d53"/><ellipse class="st9" cx="646.7" cy="243.7" rx="11" ry="14.4"/><path d="M731.4 680.7c-1.6 0-3-1.1-3.3-2.7 0-.2-4.2-18.6-19.6-41.5-14.2-21.1-41.2-50.6-89.2-70.8-79.9-33.6-124.9-73.7-134-98.5-2.5-6.9-2.6-12.8-.2-17.7 2.4-5 3.3-12.7 4.2-20.8 1.6-15 3.4-32 16-41.4 9.2-6.9 22.5-8.6 40.8-5.1 3.5.1 32.8 1.4 51.8 17.1 1.4 1.1 1.9 3.1 1 4.6-1.1 1.9-3.6 2.3-5.2 1-18-15-47.8-15.7-48.1-15.7l-.6-.1c-16.4-3.1-28.1-1.9-35.7 3.8-10.2 7.6-11.8 22.3-13.3 36.6-.9 8.8-1.8 17-4.8 23.1-1.5 3.1-1.4 7.2.5 12.2 8.3 22.6 52.7 61.9 130.2 94.5 49.7 20.9 77.7 51.6 92.4 73.6 16.1 24 20.3 42.9 20.4 43.6.4 1.9-.8 3.7-2.6 4.1-.2.1-.4.1-.7.1z" style="fill:#5fc3cc"/><path d="m550.6 461.8-35-39.4 5.8-25.1s-.3-15.7-12.2-11c-11.9 4.8-15 9.5-15 9.5s-7.5 6.5-7.5 11.9c0 0-4.4 2.7-3.4 14.3 1 11.6 5.1 17 9.9 17 4.8 0 8.6 2.2 8.6 2.2s-2.9 23 30.8 61l18-40.4z" style="fill:#e09885"/><path d="M616.1 443.9s79-32 81 32.6-59.4 85-59.4 85l-32 3.4s46.1 20 45.3 55.8c0 0 19.6 49.3-29.3 56.8-49 7.5-56.2 0-56.2 0l50.6-233.6z" style="fill:#04add6"/><path class="st13" d="M719.6 487.7s-1.4 12.2-5.4 21.1l-39.4 56.1-23.8 26.8s-19.7-16-27.5 4.1l-6.5 13.3s4.8 11.6 12.6 11.6 20.7-9.9 23.8-3.4c0 0 6.8 1.7 15-9.2 0 0 19.7-5.8 51.3-40.8 31.6-35 34-40.5 34-40.5s17-35 11.2-46.2l-45.3 7.1z"/><path d="M766.1 384c-2-1.4-52 53.7-52 53.7l2 60.9 73.1-18c.1-.1-17.6-92.9-23.1-96.6z" style="fill:#d34455"/></g><g><path class="st21" d="M576.7 560.4c1.8 18.6 14.8 42.3 14.8 42.3l-8.9 20.4-80.9-50.5s11.8-12.7 25-26.5c.5-.5.9-1 1.4-1.5 11.3-13.7 3.7-32.1 3.7-32.1l61-10s-8 17.6-12.8 34.8c-2.3 8.6-3.9 17-3.3 23.1z"/><path class="st22" d="M592.8 502.5s-8 17.6-12.8 34.8l-51.9 7.3c11.3-13.7 3.7-32.1 3.7-32.1l61-10z"/><ellipse transform="rotate(-51.003 568.333 464.565)" class="st21" cx="568.3" cy="464.6" rx="68.3" ry="46.7"/><path d="m558.5 413.7 21.6-7.1s-7.1-1-4.2 12.6 10.5 26.9 2.3 62.6c0 0 29.3-10.3 11.6 26.9-17.7 37.1-15.2 55.8-12.1 68.4s30.6 52.4 30.6 52.4l7.5 15.2s10.4-40.9-4.4-64c0 0-13.8-38.6 21.9-61.2 35.7-22.7 24.5-71.4 24.5-71.4s-1.5-30.4-45.9-49.3c0-.1-33.2-12.8-53.4 14.9z" style="fill:#562422"/><path class="st24" d="m513.5 673.7 83.1-66.3s31.7 30.6 14.3 55.6l-7.7 14.5-89.8.1v-3.9z"/><path style="fill:#8d21de" d="m354 645.8 43.7 31.7H295.2z"/><path class="st26" d="m501.7 546.7 97.1 62.1-82 68.6-122.2 4.9-48.4-36.5z"/><ellipse transform="rotate(-51.003 582.589 495.652)" class="st22" cx="582.6" cy="495.7" rx="17" ry="12.1"/><ellipse transform="rotate(-51.003 583.7 490.091)" class="st21" cx="583.7" cy="490.1" rx="17" ry="12.1"/></g><g><circle class="st24" cx="185.4" cy="321.9" r="80.7"/><circle class="st26" cx="185.4" cy="321.9" r="65.2"/><path class="st24" d="M114.3 395.5c-21.5-17.1-33.4-41.7-34.3-71.1-.7-22 4.9-38.7 5.1-39.4l9.5 3.2c-.1.2-5.3 16-4.6 36.2.9 26.6 11.2 47.9 30.5 63.3l-6.2 7.8z"/><path transform="rotate(-12.446 99.74 336.87)" class="st24" d="M86.3 331.9h26.8v10H86.3z"/><g><path class="st24" d="M286.2 360.5c11-25.2 9.9-52.5-3.1-78.9-9.7-19.7-22.5-31.9-23-32.4l-6.9 7.3c.1.1 12.2 11.7 21.1 29.8 11.7 23.9 12.6 47.5 2.7 70.2l9.2 4z"/><path transform="rotate(-15.528 271.553 301.892)" class="st24" d="M258.1 296.9h26.8v10h-26.8z"/></g></g><path d="M292.5 661.7H162.6c-8.4 0-13.9-8.9-10-16.4l13.8-27c6.5-12.8 20.1-20.5 34.4-19.6l110.3 7.3c9.2.6 14.7 10.5 10.4 18.7l-15.3 28.7c-2.7 5.1-8 8.3-13.7 8.3z" style="fill:#615e65"/><g><path d="M126.6 684.2c-3.1 0-5.9-2.2-6.5-5.3-.3-1.3-6.4-32.1 8.7-49 7.3-8.1 17.8-11.5 31.4-10.2 3.7.4 6.3 3.6 6 7.3-.4 3.7-3.6 6.3-7.3 6-9.2-.9-15.7 1-20.1 5.8-8.8 9.8-7 30.3-5.6 37.4.7 3.6-1.6 7.1-5.2 7.9-.5.1-.9.1-1.4.1z" style="fill:#939598"/><path d="M292.5 661.7H162.6c-8.4 0-13.9-8.9-10-16.4l13.8-27c6.5-12.8 20.1-20.5 34.4-19.6l110.3 7.3c9.2.6 14.7 10.5 10.4 18.7l-15.3 28.7c-2.7 5.1-8 8.3-13.7 8.3z" style="fill:#bcbec0"/><path class="st26" d="m159.9 640.6 18.1-27.3c2.5-3.7 6.6-5.8 11.1-5.7l112 4c4.4.2 7 5 4.6 8.7L290.1 645c-2 3.2-5.7 5.1-9.5 5l-117.9-4c-2.7-.1-4.3-3.1-2.8-5.4z"/><path class="st30" d="m175.2 638.7 17-24.2M183.7 638.2l17-24.1M192.2 638.7l17-24.2M200.7 638.7l17-24.2M209.2 638.7l17-24.2M217.7 638.7l17-24.2M226.2 638.2l17-24.1M235.2 638.4l17-24.1M243.7 638.4l17-24.1M252.2 638.4l17-24.1M260.7 638.4l17-24.1M269.2 638l17-24.1M278.2 638l17-24.1"/></g><path d="M892.6 704.3H67.1c-6.4 0-11.6-5.2-11.6-11.6v-2.6c0-6.4 5.2-11.6 11.6-11.6h825.5c6.4 0 11.6 5.2 11.6 11.6v2.6c0 6.4-5.2 11.6-11.6 11.6z" style="fill:#504a57"/><path class="st32" d="M871 210v-1.5"/><g><path class="st33" d="m467.8 487.5 50-7.9M467.5 488.4c-.3-.1-.4-.4-.4-.8 0-.5.4-1 .7-1l50-7.9c.4-.1.6.3.6.8s-.4 1-.7 1l-50 7.9h-.2z"/></g></svg>