<svg version="1.1" id="Layer_1" xmlns="http://www.w3.org/2000/svg" x="0" y="0" viewBox="0 0 1000 840.4" style="enable-background:new 0 0 1000 840.4" xml:space="preserve"><style>.st4{fill:#fdbf9e}.st7{fill:#bcbec0}.st10{fill:#ffbf9c}.st12{fill:#4570ad}.st13{fill:#fff}.st15{fill:#010101}.st17{fill:#212121}.st18{fill:none;stroke:#010101;stroke-width:2;stroke-linecap:round;stroke-miterlimit:10}.st22{fill:#c98977}.st25{fill:none;stroke:#444344;stroke-width:2;stroke-linecap:round;stroke-miterlimit:10}</style><ellipse cx="517.5" cy="820.4" rx="432.8" ry="20" style="opacity:.29;fill:#4570ad"/><circle cx="500.6" cy="419.2" r="408.6" style="fill:#cfb5f6"/><path d="M538.7 129.5H127.8s-20.2 5.5-18.3 26.6l-.1 632.8s-1.3 17.5 29.7 19.8h439.1s16.5.4 22.9-19.8c7.6-23.8 0-257.6 0-257.6" style="fill:#f1f2f2;stroke:#777676;stroke-width:3;stroke-miterlimit:10"/><path d="M240.2 315.4h-61.9c-5.1 0-9.3-4.2-9.3-9.3v-84.6c0-5.1 4.2-9.3 9.3-9.3h61.9c5.1 0 9.3 4.2 9.3 9.3v84.6c0 5.2-4.1 9.3-9.3 9.3z" style="fill:#fff;stroke:#727272;stroke-miterlimit:10"/><ellipse class="st4" cx="210.4" cy="252.5" rx="16.5" ry="21.7"/><path class="st4" d="m202.4 268.6-3.1 32.8s16.5 11.4 19.9-3.8v-29h-16.8z"/><path d="M201.3 281s-24.7-1.6-24.7-19 11-33.2 29.6-37.4c18.6-4.1 48.9 27.3 29.1 53.4l-16 3v-12.4s11.6-2.4 5.1-27.7l-27.7-.5s-7.5 23.8 5.7 28.2l-1.1 12.4z" style="fill:#1a2c36"/><path d="M199.3 293.8s7.6 11 19.9 0l30.3 2.4v8.6c0 5.3-4.3 9.6-9.6 9.6H178c-4.9 0-9-4-9-9v-8.9c0 .1 22.7-7.5 30.3-2.7z" style="fill:#ffa700"/><g><path class="st7" d="M317.3 212.2h212.2v18.6H317.3zM317.3 252.7h212.2v18.6H317.3zM317.3 293.2h212.2v18.6H317.3zM317.3 333.6h212.2v18.6H317.3zM317.3 374.1h212.2v18.6H317.3zM317.3 414.6h212.2v18.6H317.3zM317.3 455.1h212.2v18.6H317.3zM317.3 495.5h212.2v18.6H317.3zM387.5 641.4h169.1V660H387.5zM387.5 678.1h169.1v18.6H387.5zM450.4 600.5h106.1v18.6H450.4z"/></g><g><path d="M465.7 182.7H263c-7.4 0-13.4-6-13.4-13.4v-42c0-7.4 6-13.4 13.4-13.4h202.7c7.4 0 13.4 6 13.4 13.4v42c0 7.4-6 13.4-13.4 13.4z" style="fill:#ff4d53;stroke:#333;stroke-width:2;stroke-miterlimit:10"/><path d="M389.7 63c-7.1-7.1-16.8-11.5-27.6-11.5-21.6 0-39.1 17.5-39.1 39.1v69.1h78.2V90.6c-.1-10.8-4.5-20.6-11.5-27.6zm-27.6 46.3c-8.9 0-16-7.2-16-16s7.2-16 16-16c8.9 0 16 7.2 16 16s-7.1 16-16 16z" style="fill:#ff4d53;stroke:#212121;stroke-width:2;stroke-miterlimit:10"/></g><g><path class="st10" d="m364.3 399.5 24.8-32.9s4.6-8.7 17-11c0 0 7.9-3.1 10.7-6.6.4-.4.6-.9.8-1.4 1.4-4 6.9 2 0 9.3 0 0 12.8-3.9 13.8-9.3s12.8-3.1 6 7.5c-6.9 10.5-24.8 18.6-33.5 17.1 0 0-6 .4-8.3 7.2-2.3 6.9-16.5 33.9-16.5 33.9s-12-.1-14.8-13.8zM193.8 749.5h13.8v22.9h-13.8zM297 754.1v32.1l17.3-5.5s6.9-25.7 0-26.6c-6.9-.9-17.3 0-17.3 0z"/><ellipse class="st10" cx="271.3" cy="301.4" rx="17" ry="23.4"/><path class="st10" d="M244.6 297.6s-.9 30.9-6.4 33.3c-5.5 2.4-3.1 11.3 6.4 14.7 9.5 3.4 29.8 3.8 26.2-8.9l-3.9-4-.3-12.5s-11.9-19.2-22-22.6z"/><path d="m185.2 506.4 2 248.6H212s35-201.8 39.4-194.4c4.5 7.3 38.2 200.9 38.2 200.9h30.3l-5-255H185.2z" style="fill:#414042"/><path class="st12" d="m242.1 327.9-27.2 2.4L228.5 522h64.1s-20.8-116.2-12.8-136.1c7.9-19.9 11.6-54.1 11.6-54.1l-24.5-1.9s11.7 14.4-13.1 14.1c0 .1-25.4.6-11.7-16.1z"/><path class="st13" d="M216.1 327.9s30 69.1 30.3 148.9l-3.4 133-62.4-2.1s-10.1-1.8-7.6-14.4c2.4-12.5 15.3-118.9 15.3-118.9l-30-89.6c.1-.1 21.8-54.2 57.8-56.9zM286.5 327.9s-32.7 52.6-29.7 95.4c3.1 42.8 1.8 183.7 1.8 183.7s68.8 15.6 75.5-7.3-15.6-163-15.6-163 28.4 15.6 49.5 0 21.1-23.4 21.1-23.4L368 394.5l-21 14.7s-6.4.8-11-9.7-13.1-42.6-13.1-42.6-8.6-18-36.4-29z"/><path d="M271.3 538.5s22.5 23.8 43.6 0" style="fill:none;stroke:#fff;stroke-miterlimit:10"/><path class="st13" d="M152.9 410.1s-21.7 10.5-10.9 35.8c5.5 12.8 16.4 9.6 16.4 9.6l-4.1-17.9 1.9-12.7-3.3-14.8z"/><path class="st15" d="m243.4 301.4-2.8-32.1s4.8-16.5 19.9 0c0 0 4.1-13.8 19.3 2.8 0 0-.7-1.1 13.8 4s5.3 25.6-5.3 19.4c-10.5-6.2-10-12.8-17.5-13.8-7.5-.9-13.7 6.9-13.7 6.9l-2.5 17.2c.1 0-4.4-.5-11.2-4.4z"/><ellipse transform="rotate(-20.446 255.364 290.836)" class="st10" cx="255.4" cy="290.9" rx="5" ry="7"/><path style="fill:#ff4d53" d="M147.3 389h67.6l16.8 86H168z"/><path class="st10" d="M149.3 428s8-4.1 9.1 2.8c1.1 6.9 0 4.1 0 4.1s17.1-2 20.3-9.9c0 0 17.4-1.5 6.4 17.3 0 0-15.8 13.7-27.9 11 0 0-7.4-6.8-4.6-14 0-.1-.1-9.5-3.3-11.3z"/><path class="st12" d="M357.1 803.6h-64.5l.1-6.4.4-19.3c8.5 7.3 23.2-5.5 23.2-5.5s11.4 5.5 27.9 13.8c7.6 3.8 10.9 7.8 12.3 11 1.7 3.7.6 6.4.6 6.4z"/><path class="st13" d="M357.1 803.6h-64.5l.1-6.4h63.8c1.7 3.7.6 6.4.6 6.4z"/><g><path class="st12" d="m214.9 769.9-7.3 34.6c-11.9 11-25.7-3.7-25.7-3.7-.6-2.9-.8-5.8-.7-8.6.5-14.8 8.9-27.1 8.9-27.1 7.5-4.5 19.3 1.6 23.3 4 1 .5 1.5.8 1.5.8z"/><path class="st13" d="m214.9 769.9-7.3 34.6c-11.9 11-25.7-3.7-25.7-3.7-.6-2.9-.8-5.8-.7-8.6 5.4 6.1 15.1 13.8 26.4 8.2l5.9-31.3c.9.5 1.4.8 1.4.8z"/></g></g><g><path class="st10" d="M606.6 22.9s-61.9 71.7-57.8 155.6-59.2 119.1-59.2 119.1-19.3 18.5 0 39.1 26.1 19.3 26.1 19.3 15.1 6.2 0 23.1c-15.1 16.8 6.9 31.1 6.9 31.1s-22 2.2-6.9 22.9c0 0 1.4 8.3 16.5 13.8s-2.8 38.5-2.8 38.5-8.3 28 28.9 36.7 93.6 6 93.6 6 44 4.1 59.2 66c15.1 61.9 44.1 142.7 44.1 142.7s218.6-171.6 137.5-422c0-.1-37.1-214.7-286.1-291.9z"/><path class="st15" d="M537.8 153.8s-5.5 35.8 17.9 24.8c0 0 11-38 56.4-36.9l45.4 1.1-33.8-17.8c-18.6-9.8-40.8-10.7-59.7-1.5-11.6 5.5-22.1 14.8-26.2 30.3z"/><path class="st17" d="M555.7 217.1c3.5 3.9 7.8 7 12.5 9.2 4.6 2.2 9.7 3.6 14.8 4.1 5.1.5 10.3.1 15.4-.8s10.1-2.5 15.1-4.2c-4.6 2.5-9.6 4.5-14.8 5.7l-1.9.5c-.7.1-1.3.2-2 .3-1.3.3-2.6.4-4 .5-2.7.2-5.4.2-8 0-2.7-.3-5.3-.8-7.9-1.5-2.6-.8-5.1-1.8-7.4-3.1-4.8-2.7-9-6.3-11.8-10.7zM500.4 333c6.6-.9 13.2.6 18.9 3.8 2.8 1.5 5.4 3.6 7.6 5.9l1.7 1.7c.5.6 1 1.2 1.6 1.7 1.1 1.1 2.3 2.1 3.6 2.8 1.3.7 2.8 1.3 4.3 1.3s3-.4 4.3-1.1c2.7-1.5 4.6-4.1 6.3-6.7 3.3-5.4 5.3-11.4 7-17.5-1.5 6.1-3.4 12.2-6.6 17.7-1.6 2.7-3.5 5.4-6.3 7.1-1.4.8-3 1.4-4.7 1.4-1.7 0-3.3-.5-4.7-1.3-1.5-.8-2.7-1.8-3.9-2.9-.6-.5-1.1-1.1-1.7-1.7l-1.6-1.6c-2.2-2.1-4.7-4.1-7.5-5.5-2.7-1.4-5.7-2.4-8.7-3-.8-.1-1.5-.2-2.3-.3-.8 0-1.5-.1-2.3-.1-1.5 0-3.1.1-4.5.3l-.5-2z"/></g><g><path class="st18" d="m547.6 206.2-1.9 2.3"/><path style="fill:none;stroke:#010101;stroke-width:2;stroke-linecap:round;stroke-miterlimit:10;stroke-dasharray:5.8555,5.8555" d="m541.9 213-81 96.3"/><path class="st18" d="m459 311.5-1.9 2.3 1 2.8"/><path style="fill:none;stroke:#010101;stroke-width:2;stroke-linecap:round;stroke-miterlimit:10;stroke-dasharray:6.0917,6.0917" d="m460.1 322.4 75.1 215.7"/><path class="st18" d="m536.2 541 1 2.8"/></g><g><ellipse cx="811.4" cy="813.6" rx="113" ry="8.2" style="opacity:9.000000e-02;fill:#231f20"/><path class="st22" d="m790 761.9-1.8 17.4s19.7 13.3 23.4-2.3l-4.6-18.8-17 3.7z"/><path class="st12" d="M818 793.8c-1 4.7-3.7 8.5-3.7 8.5l-67 2.8s-7.6.5-7.3-5.4c.1-1.9 1-4.5 3.2-7.9 9.2-14.2 45.6-18.4 45.6-18.4 13 4.5 21.8 0 21.8 0s.9 3.8 6 11.3c2 2.8 2.1 6.1 1.4 9.1z"/><path class="st13" d="M818 793.8c-1 4.7-3.7 8.5-3.7 8.5l-67 2.8s-7.6.5-7.3-5.4l78-5.9z"/><path class="st22" d="m871.2 744.4 4 24.8 18.9-11-4.1-5-2.3-16.5z"/><path class="st12" d="m909.2 773.2-45.9 35.4c-3.5.1-6.3-.3-8.5-1.1-11.2-4.2-8.4-19 .7-28.2 11-11 15.6-23.4 15.6-23.4 12.4 6.4 18.8-2.8 18.8-2.8 6 2.2 11.7 9 15.4 14 2.5 3.5 3.9 6.1 3.9 6.1z"/><path class="st13" d="m909.2 773.2-45.9 35.4c-3.5.1-6.3-.3-8.5-1.1l50.5-40.3c2.5 3.4 3.9 6 3.9 6z"/><ellipse transform="rotate(-68.734 786.4 328.986)" class="st22" cx="786.4" cy="329" rx="30" ry="25.6"/><path class="st22" d="M780.4 351.1v37s22 10.1 31.2 2.3l-6-23.4h-3.2l-1.4-24.1-20.6 8.2z"/><path d="M648.7 347.8h64.1c.9 0 1.8.6 2.1 1.5l25.2 77.4c.4 1.4-.6 2.8-2 2.8l-60.2 1.7c-.9 0-1.8-.5-2.1-1.4l-29.1-79.1c-.6-1.4.5-2.9 2-2.9z" style="fill:#fff;stroke:#444344;stroke-width:2;stroke-linecap:round;stroke-miterlimit:10"/><path d="M670 343.2h16.7c1 0 1.9.7 2.2 1.6l2.7 8.7c.5 1.5-.6 3-2.2 3l-17.3.2c-1.1 0-2-.7-2.3-1.8l-2.1-8.9c-.3-1.4.8-2.8 2.3-2.8z" style="fill:#444344"/><path class="st25" d="M672.6 367h23.3M679.8 374.1h32.7M684.3 383.4h28.2M691.2 400.4h33"/><path class="st22" d="M725.8 413.3s-12.8 10.1-25.7-2.3-26.1-27.6-26.1-27.6 3.3-13-6.9-16.4c-2.8-.9-3.7-12.1-9.2-9.9l2.3 11.1s2.8 5.7-2.3 4.4c-5-1.4-6-11.5-6-11.5s-10.5 6.9-4.6 15.6c6 8.7 15.1 6.8 19.3 16.7s29.3 44.7 29.3 44.7 24.8 12.8 35.4.9l5.5-3.4-11-22.3z"/><path class="st12" d="m742.8 628.4 39.9 137.1 28.9-1.8-18.4-190.8-54.6 4.6zM802.4 624.7 868 749l26.1-6s-20.9-107-37.8-126.7l-53.9 8.4z"/><path d="M782.7 368.1s-17.4.2-29.4 11.7-36.7 28.5-36.7 28.5l14.7 30.7 20.2-12.4s-6 110.5-14.7 129.8c-8.7 19.3-1.8 80.7-1.8 80.7s17.9 8.3 23.8 1.8l2.3-38.5 11.9 38s83.6-2.7 102.1-19.5c0 0-50.8-159.4-42.5-178.2 8.3-18.8 10.1-27.5 10.1-27.5L815.6 368l-13.3-1.1s11.3 15.8-6.5 16.4c.1.1-13.7 3.1-13.1-15.2z" style="fill:#fcac07"/><path class="st15" d="M761.1 311.8s7 17.5 19.2 14.9 7.5 1 8.1 9.7 13.1 14.8 13.1 14.8 11.9-3.8 13.7-26.2c0 0 4.1 9.9-1.8 26.2-6 16.4-16.9 43.5 3.2 58.6s49.5 8.7 57.3-17c7.8-25.7-23.8-39.4-27.1-63.7s-19.3-37.9-41.3-26.5c0 0-17-13.6-36.2 0l-8.2 9.2z"/><ellipse transform="rotate(-68.734 786.4 328.986)" class="st22" cx="786.4" cy="329" rx="7.4" ry="5.7"/></g></svg>