<svg version="1.1" id="Layer_1" xmlns="http://www.w3.org/2000/svg" x="0" y="0" viewBox="0 0 1000 902.5" style="enable-background:new 0 0 1000 902.5" xml:space="preserve"><style>.st0{opacity:.29;fill:#8e38c6}.st2{fill:#f1f2f2}.st3{opacity:.11;fill:#424142}.st4{fill:#4570ad}.st5{fill:#343435}.st6{fill:#fff}.st7{fill:#4469aa}.st9{fill:#31537c}.st10{opacity:.73;fill:#e0ecf8}.st11{fill:#424142}.st13{fill:none;stroke:#272728;stroke-miterlimit:10}.st15{fill:#1669cf}.st17{opacity:.43}.st18,.st19{fill:#353535}.st19{opacity:.43}.st20{fill:#f4b998}.st22{fill:#282828}.st24{fill:#3f73b2}.st27{fill:#272728}.st29{fill:#8e38c6}.st30{opacity:.35}.st31{fill:#d1d3d4}.st32{fill:#e6e7e8}</style><path class="st0" d="M278.3 754.3c-127-22.5-216.4-114.5-251.9-238.5-9.6-33.4-13.2-65.4-4.9-90.4 30.2-90.7 48.2-117.2 51.2-214.1S114.5-3.2 244.2 13s161.2 42.6 304.1 26.4S797 43.8 836.6 87.9s-20.5 42.4 114.6 190.7c113.9 125.1-45.5 179.6-47 249.9S1005.6 635 888 725.8c-97.3 75.2-393.5 66.8-609.7 28.5z"/><path class="st2" d="M106.7 89.9h797.5v513.6H106.7z"/><ellipse class="st3" cx="182.8" cy="806.5" rx="146" ry="16.9"/><ellipse class="st3" cx="522.3" cy="864.5" rx="381.9" ry="28.8"/><path class="st4" d="m736 636.8 44.8 91.8 9.2-3.7-27-119.7z"/><path class="st4" d="M739.7 572.6 627.8 877.7h11.3l155.1-330.4z"/><path class="st5" d="m552.1 191.4 168.2-41.8M552 195.1c-1.7 0-3.2-1.1-3.6-2.8-.5-2 .7-4 2.7-4.5L719.4 146c2-.5 4 .7 4.5 2.7s-.7 4-2.7 4.5L553 195c-.3.1-.7.1-1 .1zM735.1 164.3l-39.6 80.6M695.5 248.6c-.6 0-1.1-.1-1.6-.4-1.9-.9-2.6-3.1-1.7-5l39.6-80.5c.9-1.9 3.2-2.6 5-1.7 1.9.9 2.6 3.1 1.7 5l-39.6 80.5c-.7 1.3-2 2.1-3.4 2.1z"/><circle class="st5" cx="735.1" cy="149.6" r="19.2"/><circle class="st6" cx="735.1" cy="149.6" r="13.6"/><path class="st7" d="m690.6 213.2-277.9 11.4c-7.1.3-13.1-5.2-13.4-12.3l-.1-1.7c-.3-7.1 5.2-13.1 12.3-13.4l277.9-11.4c7.1-.3 13.1 5.2 13.4 12.3l.1 1.7c.3 7.1-5.2 13.1-12.3 13.4z"/><path class="st6" d="m687.8 210.5-272.3 11.1c-6 .2-11.1-4.4-11.3-10.4l-.1-1.5c-.2-6 4.4-11.1 10.4-11.3l272.3-11.1c6-.2 11.1 4.4 11.3 10.4l.1 1.5c.3 6-4.4 11.1-10.4 11.3z"/><path class="st4" d="M648 593.4h63.5l101.6-56.6s10.3-9.6-7.3-14.7H685.3L648 593.4z"/><path style="opacity:.61;fill:#f1f2f2" d="m709.6 577.8 88.8-49.4-113.1-6.3-29.2 55.7z"/><path class="st9" d="m711.7 672.2 28.7-92.9-61.7 13.6 23.2 91.5z"/><path class="st9" d="M700 684.7H572.8c-6.5 0-11.7-5.2-11.7-11.7v-68.4c0-6.5 5.2-11.7 11.7-11.7H700c6.5 0 11.7 5.2 11.7 11.7V673c0 6.4-5.2 11.7-11.7 11.7z"/><path class="st10" d="M694 677.3H577.5c-5.8 0-10.5-4.7-10.5-10.5v-17.5c0-5.8 4.7-10.5 10.5-10.5H694c5.8 0 10.5 4.7 10.5 10.5v17.5c0 5.8-4.7 10.5-10.5 10.5zM695.7 634.7H575.8c-4.8 0-8.7-3.9-8.7-8.7v-21c0-4.8 3.9-8.7 8.7-8.7h119.9c4.8 0 8.7 3.9 8.7 8.7v21c.1 4.8-3.9 8.7-8.7 8.7z"/><path class="st11" d="m328.8 250.8 429.8-7c.4 0 .8 0 1.2-.1 4.4-.6 34-4 29.9 13.3-4 16.9-65.3 279.4-76.7 328.5-1.1 4.6-5.2 7.9-10 7.8l-457-5.2c-6.4-.1-11.1-6-9.8-12.3l66.2-304.3c.1-.3.1-.6.1-.9.4-2.5 3.3-19.4 26.3-19.8z"/><path class="st6" d="m334.3 254.9 412-6.6c.4 0 .7 0 1.1-.1 4.2-.6 32.6-3.8 28.6 12.5-3.9 15.9-62.6 263-73.6 309.2-1 4.3-5 7.4-9.5 7.3l-438-4.9c-6.1-.1-10.7-5.6-9.4-11.5L309 274.4c.1-.3.1-.5.1-.8.3-2.5 3.1-18.4 25.2-18.7z"/><path class="st0" d="M747.4 248.2s32.7-4.7 27.7 16.2c-5 20.9-72.2 299.7-72.2 299.7s-2.5 16.8-10.1 13.1l-22-1s-5.4-4.6-2.1-12.1c3.4-7.4 78.7-315.9 78.7-315.9z"/><path class="st2" d="m650.8 551.3-337.4-4.5c-6.6-.1-11.5-6-10.4-12.5L346.6 278c.9-5.1 5.3-8.9 10.5-8.9h350.5c6.8 0 11.9 6.3 10.4 12.9l-56.6 260.9c-1.1 5-5.5 8.5-10.6 8.4z"/><g style="opacity:.5"><path class="st13" d="m403.2 520 196.9 2.1-42.6-2.1M370.3 321l240.5 4.8M479.6 326.8 435 520M490.5 513.7s19.3-52.8 61.5-46.4 48.1 54.8 48.1 54.8M426 387h73.7"/><path class="st13" d="M516.3 327.7 470.5 520c1.1-4.7 16.1-12.5 16.1-12.5l-7-10.6 10.9-8.4-7.9-7.5 14.8-9.3-8.9-12.2 13.2-9.2-8.1-13.6 11.9-8.8-5.8-15 13.3-9.2-9.5-8.8 12.8-9.8-7.3-15.4 13.3-5.6-9.3-12 14.2-9.8-8.8-12.5M533.4 326.8l-44.9 195.3M563.8 520l47-192.3-4.3 194.4"/></g><path style="fill:#c992f4" d="m675 249.5 13.3-.3-87.5 327.1-15.9-.2z"/><path class="st15" d="M673.1 255.5h6.4v2.1h-6.4zM670.9 263.4h6.4v2.1h-6.4zM663.5 289.8h6.4v2.1h-6.4zM661.4 298.5h6.4v2.1h-6.4zM659.3 307.3h6.4v2.1h-6.4zM657.1 316h6.4v2.1h-6.4zM655 324.7h6.4v2.1H655zM651.8 333.4h6.4v2.1h-6.4zM649.7 342.2h6.4v2.1h-6.4zM644.4 359.8h6.4v2.1h-6.4zM642.3 367.5h6.4v2.1h-6.4zM640.1 375.2h6.4v2.1h-6.4zM638 383.9h6.4v2.1H638zM635.9 392.7h6.4v2.1h-6.4zM633.1 401.5h6.4v2.1h-6.4zM631 410.3h6.4v2.1H631zM617.2 461.1h6.4v2.1h-6.4zM614 469.5h6.4v2.1H614zM600.1 520h6.4v2.1h-6.4zM598.3 528.4h6.4v2.1h-6.4zM596 536.8h6.4v2.1H596zM593.8 545.2h6.4v2.1h-6.4zM591.6 553.6h6.4v2.1h-6.4zM588.7 562h6.4v2.1h-6.4zM586.3 570.4h6.4v2.1h-6.4zM668.8 272.3h6.4v2.1h-6.4zM665.6 281.1h6.4v2.1h-6.4zM647.6 351h6.4v2.1h-6.4zM628.8 419h6.4v2.1h-6.4zM625.7 427.8h6.4v2.1h-6.4zM623.5 436.6h6.4v2.1h-6.4zM621.4 444.2h6.4v2.1h-6.4zM619.3 452.7h6.4v2.1h-6.4zM611.8 477.9h6.4v2.1h-6.4zM609.7 486.3h6.4v2.1h-6.4zM607.6 494.7h6.4v2.1h-6.4zM605.5 503.1h6.4v2.1h-6.4zM603.3 511.5h6.4v2.1h-6.4z"/><g><path style="fill:#f7b32b" d="m731 312.7.5 12.7-371.7 2.3-4-13.3z"/><g class="st17"><path transform="rotate(-15.319 695.597 315.849)" class="st18" d="M694.4 312.6h2.2v6.4h-2.2z"/></g><g class="st17"><path transform="rotate(-15.319 687.251 315.94)" class="st18" d="M686.1 312.7h2.2v6.4h-2.2z"/></g><g class="st17"><path transform="rotate(-15.319 659.169 315.946)" class="st18" d="M658 312.7h2.2v6.4H658z"/></g><g class="st17"><path transform="rotate(-15.319 649.99 316.267)" class="st18" d="M648.8 313.1h2.2v6.4h-2.2z"/></g><g class="st17"><path transform="rotate(-15.319 640.81 316.587)" class="st18" d="M639.6 313.4h2.2v6.4h-2.2z"/></g><g class="st17"><path transform="rotate(-15.319 631.63 316.908)" class="st18" d="M630.5 313.7h2.2v6.4h-2.2z"/></g><g class="st17"><path transform="rotate(-15.319 622.446 317.215)" class="st18" d="M621.3 314h2.2v6.4h-2.2z"/></g><g class="st17"><path transform="rotate(-15.319 612.985 316.508)" class="st18" d="M611.8 313.3h2.2v6.4h-2.2z"/></g><g class="st17"><path transform="rotate(-15.319 603.758 316.841)" class="st18" d="M602.6 313.6h2.2v6.4h-2.2z"/></g><g class="st17"><path transform="rotate(-15.319 585.024 316.48)" class="st18" d="M583.9 313.3h2.2v6.4h-2.2z"/></g><g class="st17"><path transform="rotate(-15.319 576.852 316.525)" class="st18" d="M575.7 313.3h2.2v6.4h-2.2z"/></g><g class="st17"><path transform="rotate(-15.319 568.68 316.569)" class="st18" d="M567.5 313.4h2.2v6.4h-2.2z"/></g><g class="st17"><path transform="rotate(-15.319 559.45 316.89)" class="st18" d="M558.3 313.7h2.2v6.4h-2.2z"/></g><g class="st17"><path transform="rotate(-15.319 550.222 317.223)" class="st18" d="M549.1 314h2.2v6.4h-2.2z"/></g><g class="st17"><path transform="rotate(-15.319 540.818 316.908)" class="st18" d="M539.7 313.7h2.2v6.4h-2.2z"/></g><g class="st17"><path transform="rotate(-15.319 531.592 317.242)" class="st18" d="M530.4 314h2.2v6.4h-2.2z"/></g><g class="st17"><path transform="rotate(-15.319 477.77 317.715)" class="st18" d="M476.6 314.5h2.2v6.4h-2.2z"/></g><g class="st17"><path transform="rotate(-15.319 468.618 316.924)" class="st18" d="M467.5 313.7h2.2v6.4h-2.2z"/></g><g class="st17"><path transform="rotate(-15.319 415.106 317.285)" class="st18" d="M414 314.1h2.2v6.4H414z"/></g><g class="st17"><path transform="rotate(-15.319 406.31 317.789)" class="st18" d="M405.2 314.6h2.2v6.4h-2.2z"/></g><g class="st17"><path transform="rotate(-15.319 397.377 317.802)" class="st18" d="M396.2 314.6h2.2v6.4h-2.2z"/></g><g class="st17"><path transform="rotate(-15.319 388.49 317.979)" class="st18" d="M387.3 314.8h2.2v6.4h-2.2z"/></g><g class="st17"><path transform="rotate(-15.319 379.62 318.214)" class="st18" d="M378.5 315h2.2v6.4h-2.2z"/></g><g class="st17"><path transform="rotate(-15.319 370.523 317.625)" class="st18" d="M369.4 314.4h2.2v6.4h-2.2z"/></g><g class="st17"><path transform="rotate(-15.319 361.586 317.62)" class="st18" d="M360.4 314.4h2.2v6.4h-2.2z"/></g><g class="st17"><path transform="rotate(-15.319 677.81 316.333)" class="st18" d="M676.6 313.1h2.2v6.4h-2.2z"/></g><g class="st17"><path transform="rotate(-15.319 668.349 315.626)" class="st18" d="M667.2 312.4h2.2v6.4h-2.2z"/></g><g class="st17"><path transform="rotate(-15.319 594.532 317.174)" class="st18" d="M593.4 314h2.2v6.4h-2.2z"/></g><g class="st17"><path transform="rotate(-15.319 522.365 317.575)" class="st18" d="M521.2 314.4h2.2v6.4h-2.2z"/></g><g class="st17"><path transform="rotate(-15.319 512.857 316.881)" class="st18" d="M511.7 313.7h2.2v6.4h-2.2z"/></g><g class="st17"><path transform="rotate(-15.319 503.63 317.214)" class="st18" d="M502.5 314h2.2v6.4h-2.2z"/></g><g class="st17"><path transform="rotate(-15.319 495.512 317.244)" class="st18" d="M494.4 314h2.2v6.4h-2.2z"/></g><g class="st17"><path transform="rotate(-15.319 486.641 317.48)" class="st18" d="M485.5 314.3h2.2v6.4h-2.2z"/></g><g class="st17"><path transform="rotate(-15.319 459.744 317.146)" class="st18" d="M458.6 313.9h2.2v6.4h-2.2z"/></g><g class="st17"><path transform="rotate(-15.319 450.87 317.369)" class="st18" d="M449.7 314.2h2.2v6.4h-2.2z"/></g><g class="st17"><path transform="rotate(-15.319 442.003 317.618)" class="st18" d="M440.9 314.4h2.2v6.4h-2.2z"/></g><g class="st17"><path transform="rotate(-15.319 433.129 317.84)" class="st18" d="M432 314.6h2.2v6.4H432z"/></g><g class="st17"><path transform="rotate(-15.319 424.258 318.076)" class="st18" d="M423.1 314.9h2.2v6.4h-2.2z"/></g><g class="st17"><path transform="rotate(-15.319 703.072 315.849)" class="st18" d="M701.9 312.6h2.2v6.4h-2.2z"/></g><g class="st17"><path transform="rotate(-15.319 711.576 315.849)" class="st18" d="M710.4 312.6h2.2v6.4h-2.2z"/></g><g class="st17"><path transform="rotate(-15.319 720.392 315.848)" class="st18" d="M719.2 312.6h2.2v6.4h-2.2z"/></g></g><path class="st7" d="M564 274.5h-63.9c-3.6 0-6.5-2.9-6.5-6.5v-18.3c0-3.6 2.9-6.5 6.5-6.5H564c3.6 0 6.5 2.9 6.5 6.5V268c0 3.6-2.9 6.5-6.5 6.5z"/><path class="st9" d="m283.5 582.4-86.7 271.4 7.4 1.2 141.5-272.6z"/><g><path class="st20" d="m321 340-3 42.6 38.2-5.9-2.9-36.7z"/><ellipse transform="rotate(-18.773 345.46 317.483)" class="st20" cx="345.5" cy="317.5" rx="27.7" ry="36.9"/><path d="M345.5 306.2s24.7-14.7 21.8-32.3-11.2-15.4-21.8-10.3-48 22-46.5 47.7c0 0-2.9 19.1 7.3 27.2s31.1 16.6 33.2-9c0 .1-6.3-19.6 6-23.3z" style="fill:#2a2a2b"/><path class="st20" d="M428.2 334.1s-.7-14.7 8.1-21.3c8.8-6.6 21.3-13.2 21.3-13.2s5.1 4.4-2.9 11.8c-8.1 7.3 4.6 5.5 4.6 5.5s10.1-1.5 4.3 5.3c-5.9 6.8-2.9 6.1-18.4 12.7s-17-.8-17-.8zM563.8 363.7s2.5-18.6 9.1-23.7 24.2-6.6 33.1 0c0 0-8.1 7.5-11.8 6.7-3.7-.8 0 5.8-5.9 14.6-5.8 8.8-10.3 13.7-10.3 13.7l-14.2-11.3z"/><path class="st22" d="M388.6 628c0 2.2-25 229.2-25 229.2s30.9 5.9 29.4 0 61-224 61-224l-65.4-5.2z"/><ellipse transform="rotate(-18.773 336.928 322.148)" class="st20" cx="336.9" cy="322.2" rx="5.9" ry="7.8"/><path style="fill:#ed4a56" d="m427.5 326.8 17.6 8.1-30.8 71.2-35.3-15.4z"/><path class="st4" d="M364.3 855s-5.1 20.6 0 25.7c5.1 5.1 81.5 3.7 81.5 3.7s1.5-16.9-12.5-18.4-46.3-11-46.3-11h-22.7z"/><path class="st24" d="m298.6 677.9 123.7 194.7h8.9L333 675z"/><path class="st24" d="m390.3 675 27.2 2.9-134 186.6H274z"/><path d="M435 677.9H283.5v-8.5c0-18 14.6-32.7 32.7-32.7h86.1c18 0 32.7 14.6 32.7 32.7v8.5z" style="fill:#65a6ff"/><path class="st4" d="M405.5 853.8s-5.1 20.6 0 25.7c5.1 5.1 81.5 3.7 81.5 3.7s1.5-16.9-12.5-18.4-46.3-11-46.3-11h-22.7z"/><path class="st22" d="M279.1 556s-9.5 57.3 12.5 73.5 169.7 11.8 169.7 11.8-67.6 216-59.5 216h33.1l72.7-193.9s26.4-54.4-12.5-75.7c-38.9-21.3-98.4-31.6-98.4-31.6H279.1z"/><path d="M314.4 361.3H371s29.4 6.6 55.1 25.7c25.7 19.1 54.4 38.2 54.4 38.2l84.5-66.8 17.6 11.8-82.8 90.4s-20.8 26.1-51.3 6.8C418 448.1 407 442.9 407 442.9s-2.2 117.5-4.4 117.5H274l-19.8-111.7s-13-58.4 33.1-80.1l27.1-7.3z" style="fill:#ff4d53"/><path class="st27" d="m175.5 625.3-71.3-144.5.6-.2c11.5-3.1 41-12.8 39.3-21.1-.3-1.5-1.1-2.6-2.5-3.3-6.8-3.5-23.8 3.6-23.9 3.7-5.3 2.2-13.6 6.6-13.2 9 .1.6.9 1.6 5.6 2.2l17.5-8.7.8 9.2-1.1.1-.7-7.6-16.3 8.1h-.2c-4.2-.5-6.4-1.5-6.7-3.1-.6-3.9 11.4-9.1 13.9-10.2.7-.3 17.6-7.4 24.8-3.7 1.7.9 2.7 2.2 3.1 4.1 2.2 10.4-34 20.7-39.4 22.2l70.7 143.4-1 .4z"/><path class="st6" d="m144.7 459.4 91.3 198-39.1 9.5L105 481.1s36.7-7.6 39.7-21.7z"/><path class="st6" d="M170.5 598.8 140 810.3s-21.2 8.6-30.5-7.5l25.7-213.3c-.1-.1 13.1 16.7 35.3 9.3zM214.9 340l92.3 470.3-71.3-.5L138 376.2c.1 0 74.7-13.2 76.9-36.2z"/><path d="M294.5 799.9 191 611.8c-7.5-13.6-10.3 3.7-10.3 3.7S152.8 774.9 149.8 794c-2.9 19.1 8.8 16.2 8.8 16.2s111.7-.8 129.3 0c17.7.7 6.6-10.3 6.6-10.3zm-46.4-20.6h-69.6c-1.6 0-2.8-1.4-2.5-3l16-98.4c.4-2.4 3.6-2.9 4.8-.8l53.6 98.4c.9 1.7-.3 3.8-2.3 3.8z" style="fill:#feac02"/><g><path class="st27" d="m199.3 628.1-61.9-252.3.5-.1c.7-.1 67.4-13.6 75.6-32.3 1.3-2.9 1.1-5.7-.7-8.6-3.1-1.1-58.7 13.4-71.4 22.7-1.9 1.4-2.1 2.2-2 2.5.1.6 1 1 1.7 1.3 16.1 5.6 36.6-9.6 36.8-9.8l.5-.4 4.8 10.4-1 .4-4.3-9.3c-3.4 2.4-21.9 14.9-37.3 9.5-1.7-.6-2.5-1.4-2.4-2.5.3-6.6 41.5-18.8 56-22.5 18.4-4.8 19.2-3.6 19.4-3.2 1.9 3.2 2.2 6.4.8 9.6-8.1 18.5-68.9 31.4-75.9 32.8l61.7 251.2-.9.6z"/></g><g><path class="st27" d="m110 800.7-1.1-.1L134.8 588l.8 1.2c.1.2 10.6 15.9 28.2 11 4-1.1 6.1-2.7 6.4-4.6.6-5.4-12.4-12.6-12.5-12.6-4.1-1.6-15.6-5.3-18-2.4-.8 1-.6 2.7.8 5.2l9.5 3.4-1.1 8.3-1.1-.1.9-7.5-9.1-3.3-.1-.2c-1.7-3-2-5.2-.8-6.6 3.4-3.9 17.7 1.5 19.3 2.2.6.3 13.8 7.6 13.1 13.7-.3 2.4-2.7 4.3-7.1 5.5-15.5 4.3-25.7-6.7-28.6-10.4L110 800.7z"/></g></g><g><circle class="st29" cx="289.7" cy="183.4" r="39.1"/><circle class="st6" cx="289.7" cy="183.4" r="33.8"/><circle class="st29" cx="289.6" cy="184.4" r="2.9"/><path class="st29" d="M288.5 159.2h2.1v25.3h-2.1z"/><path transform="rotate(-17.768 298.283 182.246)" class="st29" d="M291.1 181.2h14.4v2.1h-14.4z"/></g><g><g class="st30"><path class="st27" d="m213.9 672.8 7.4-5.1"/><path transform="rotate(-34.014 217.633 670.264)" class="st27" d="M213.1 669.2h9v2.1h-9z"/></g><g class="st30"><path class="st27" d="m218.7 681.5 7.4-5"/><path transform="rotate(-34.014 222.427 679.03)" class="st27" d="M217.9 677.9h9v2.1h-9z"/></g><g class="st30"><path class="st27" d="m223.5 690.2 7.4-5"/><path transform="rotate(-34.014 227.22 687.736)" class="st27" d="M222.7 686.6h9v2.1h-9z"/></g><g class="st30"><path class="st27" d="m227.8 698.9 7.5-5"/><path transform="rotate(-34.068 231.574 696.429)" class="st27" d="M227.1 695.3h9v2.1h-9z"/></g></g><g><g class="st30"><path class="st27" d="m194.9 637.6 7.4-5"/><path transform="rotate(-34.014 198.638 635.145)" class="st27" d="M194.1 634.1h9v2.1h-9z"/></g><g class="st30"><path class="st27" d="m199.7 646.4 7.4-5"/><path transform="rotate(-34.014 203.432 643.91)" class="st27" d="M198.9 642.8h9v2.1h-9z"/></g><g class="st30"><path class="st27" d="m204.5 655.1 7.4-5"/><path transform="rotate(-34.014 208.226 652.616)" class="st27" d="M203.7 651.5h9v2.1h-9z"/></g><g class="st30"><path class="st27" d="m208.8 663.8 7.5-5"/><path transform="rotate(-34.068 212.58 661.31)" class="st27" d="M208.1 660.2h9v2.1h-9z"/></g></g><g><g class="st30"><path class="st27" d="m234.6 709.1 7.5-5"/><path transform="rotate(-34.014 238.367 706.65)" class="st27" d="M233.8 705.6h9v2.1h-9z"/></g><g class="st30"><path class="st27" d="m239.4 717.9 7.5-5"/><path transform="rotate(-34.014 243.161 715.415)" class="st27" d="M238.6 714.3h9v2.1h-9z"/></g><g class="st30"><path class="st27" d="m244.2 726.6 7.5-5"/><path transform="rotate(-34.014 247.955 724.122)" class="st27" d="M243.4 723h9v2.1h-9z"/></g><g class="st30"><path class="st27" d="m248.6 735.3 7.4-5"/><path transform="rotate(-34.068 252.309 732.814)" class="st27" d="M247.8 731.7h9v2.1h-9z"/></g></g><g><g class="st30"><path class="st27" d="m253 744.2 7.5-5"/><path transform="rotate(-34.014 256.777 741.731)" class="st27" d="M252.3 740.6h9v2.1h-9z"/></g><g class="st30"><path class="st27" d="m257.8 753 7.5-5.1"/><path transform="rotate(-34.014 261.57 750.496)" class="st27" d="M257 749.4h9v2.1h-9z"/></g><g class="st30"><path class="st27" d="m262.6 761.7 7.5-5"/><path transform="rotate(-34.014 266.364 759.203)" class="st27" d="M261.8 758.1h9v2.1h-9z"/></g><g class="st30"><path class="st27" d="m267 770.4 7.4-5"/><path transform="rotate(-34.068 270.717 767.894)" class="st27" d="M266.2 766.8h9v2.1h-9z"/></g></g><g><g class="st30"><path class="st27" d="m272.8 780.3 7.5-5"/><path transform="rotate(-34.014 276.568 777.859)" class="st27" d="M272 776.8h9v2.1h-9z"/></g><g class="st30"><path class="st27" d="m277.6 789.1 7.5-5"/><path transform="rotate(-34.014 281.362 786.624)" class="st27" d="M276.8 785.5h9v2.1h-9z"/></g><g class="st30"><path class="st27" d="m282.4 797.8 7.5-5"/><path transform="rotate(-34.014 286.156 795.331)" class="st27" d="M281.6 794.2h9v2.1h-9z"/></g><g class="st30"><path class="st27" d="m286.8 806.5 7.4-5"/><path transform="rotate(-34.068 290.508 804.021)" class="st27" d="M286 802.9h9v2.1h-9z"/></g></g><g><g class="st30"><path class="st27" d="m165.3 809.3-.8-9"/><path transform="rotate(-5.146 164.925 804.847) scale(1.00003)" class="st27" d="M163.8 800.3h2.1v9h-2.1z"/></g><g class="st30"><path class="st27" d="m175.3 809.3-.8-8.9"/><path transform="rotate(-5.146 174.916 804.881) scale(1.00003)" class="st27" d="M173.8 800.4h2.1v9h-2.1z"/></g><g class="st30"><path class="st27" d="m185.2 809.3-.8-8.9"/><path transform="rotate(-5.146 184.855 804.887) scale(1.00003)" class="st27" d="M183.8 800.4h2.1v9h-2.1z"/></g><g class="st30"><path class="st27" d="m195 809.7-.8-8.9"/><path transform="matrix(.9959 -.09064 .09064 .9959 -72.19 20.951)" class="st27" d="M193.5 800.8h2.1v9h-2.1z"/></g></g><g><g class="st30"><path class="st27" d="m206.9 809.1-.8-9"/><path transform="rotate(-5.146 206.522 804.632) scale(1.00003)" class="st27" d="M205.4 800.1h2.1v9h-2.1z"/></g><g class="st30"><path class="st27" d="m216.9 809.1-.8-8.9"/><path transform="rotate(-5.146 216.512 804.666) scale(1.00003)" class="st27" d="M215.4 800.1h2.1v9h-2.1z"/></g><g class="st30"><path class="st27" d="m226.8 809.1-.8-8.9"/><path transform="rotate(-5.146 226.451 804.673) scale(1.00003)" class="st27" d="M225.4 800.2h2.1v9h-2.1z"/></g><g class="st30"><path class="st27" d="m236.6 809.5-.8-8.9"/><path transform="matrix(.9959 -.09064 .09064 .9959 -72 24.721)" class="st27" d="M235.1 800.5h2.1v9h-2.1z"/></g></g><g><g class="st30"><path class="st27" d="m247.6 809.5-.8-8.9"/><path transform="rotate(-5.146 247.202 805.06) scale(1.00003)" class="st27" d="M246.1 800.5h2.1v9h-2.1z"/></g><g class="st30"><path class="st27" d="m257.6 809.6-.8-9"/><path transform="rotate(-5.146 257.193 805.095) scale(1.00003)" class="st27" d="M256.1 800.6h2.1v9h-2.1z"/></g><g class="st30"><path class="st27" d="m267.5 809.6-.8-9"/><path transform="rotate(-5.146 267.132 805.1) scale(1.00003)" class="st27" d="M266 800.6h2.1v9H266z"/></g><g class="st30"><path class="st27" d="m277.3 809.9-.9-8.9"/><path transform="matrix(.9959 -.09064 .09064 .9959 -71.87 28.41)" class="st27" d="M275.8 801h2.1v9h-2.1z"/></g></g><g><g class="st30"><path class="st27" d="m166.2 697.9 8.9.7"/><path transform="rotate(-85.42 170.651 698.296)" class="st27" d="M169.6 693.8h2.1v9h-2.1z"/></g><g class="st30"><path class="st27" d="m164.4 707.8 9 .7"/><path transform="rotate(-85.42 168.93 708.136)" class="st27" d="M167.9 703.6h2.1v9h-2.1z"/></g><g class="st30"><path class="st27" d="m162.8 717.6 8.9.7"/><path transform="rotate(-85.42 167.245 717.931)" class="st27" d="M166.2 713.4h2.1v9h-2.1z"/></g><g class="st30"><path class="st27" d="m160.7 727.1 9 .7"/><path transform="rotate(-85.475 165.216 727.45) scale(1.00002)" class="st27" d="M164.1 723h2.1v9h-2.1z"/></g></g><g><g class="st30"><path class="st27" d="m173.1 658.7 9 .7"/><path transform="rotate(-85.42 177.62 659.065)" class="st27" d="M176.5 654.6h2.1v9h-2.1z"/></g><g class="st30"><path class="st27" d="m171.4 668.5 9 .8"/><path transform="rotate(-85.42 175.898 668.905)" class="st27" d="M174.8 664.4h2.1v9h-2.1z"/></g><g class="st30"><path class="st27" d="m169.7 678.3 9 .8"/><path transform="rotate(-85.42 174.213 678.7)" class="st27" d="M173.1 674.2h2.1v9h-2.1z"/></g><g class="st30"><path class="st27" d="m167.7 687.9 9 .7"/><path transform="rotate(-85.475 172.184 688.22) scale(1.00002)" class="st27" d="M171.1 683.7h2.1v9h-2.1z"/></g></g><g><g class="st30"><path class="st27" d="m180.4 620.2 9 .7"/><path transform="rotate(-85.42 184.902 620.544)" class="st27" d="M183.8 616h2.1v9h-2.1z"/></g><g class="st30"><path class="st27" d="m178.7 630 9 .7"/><path transform="rotate(-85.42 183.18 630.384)" class="st27" d="M182.1 625.9h2.1v9h-2.1z"/></g><g class="st30"><path class="st27" d="m177 639.8 9 .7"/><path transform="rotate(-85.42 181.496 640.18)" class="st27" d="M180.4 635.7h2.1v9h-2.1z"/></g><g class="st30"><path class="st27" d="m175 649.3 9 .8"/><path transform="rotate(-85.475 179.467 649.699) scale(1.00002)" class="st27" d="M178.4 645.2h2.1v9h-2.1z"/></g></g><g><g class="st30"><path class="st27" d="m160 738 9 .8"/><path transform="rotate(-85.42 164.521 738.41)" class="st27" d="M163.5 733.9h2.1v9h-2.1z"/></g><g class="st30"><path class="st27" d="m158.3 747.9 9 .7"/><path transform="rotate(-85.42 162.8 748.25)" class="st27" d="M161.7 743.7h2.1v9h-2.1z"/></g><g class="st30"><path class="st27" d="m156.6 757.7 9 .7"/><path transform="rotate(-85.42 161.115 758.045)" class="st27" d="M160 753.5h2.1v9H160z"/></g><g class="st30"><path class="st27" d="m154.6 767.2 9 .7"/><path transform="rotate(-85.475 159.086 767.564) scale(1.00002)" class="st27" d="M158 763.1h2.1v9H158z"/></g></g><g><g class="st30"><path class="st27" d="m152.8 776.4 9 .7"/><path transform="rotate(-85.42 157.323 776.781)" class="st27" d="M156.3 772.3h2.1v9h-2.1z"/></g><g class="st30"><path class="st27" d="m151.1 786.3 9 .7"/><path transform="rotate(-85.42 155.602 786.622)" class="st27" d="M154.5 782.1h2.1v9h-2.1z"/></g><g class="st30"><path class="st27" d="m149.4 796.1 9 .7"/><path transform="rotate(-85.42 153.917 796.417)" class="st27" d="M152.8 791.9h2.1v9h-2.1z"/></g></g><path class="st11" d="m743.7 453.7 32.7 74.7 13.6-.5-46.3-89.2z"/><g><path transform="matrix(.00636 -1 1 .00636 -120.02 542.344)" class="st31" d="M208.9 252.9h8v157.3h-8z"/></g><path transform="rotate(10.263 151.742 282.605)" class="st31" d="M142.8 237.1h18v91h-18z"/><path transform="rotate(10.263 190.908 284.85)" class="st31" d="M181.9 239.3h18v91h-18z"/><path transform="rotate(90 239.893 316.478)" class="st32" d="M230.9 271h18v91h-18z"/><path transform="rotate(90 244.49 296.909)" class="st31" d="M235.5 251.4h18v91h-18z"/><path transform="rotate(90 244.172 279.761)" class="st32" d="M237.6 239h13.2v81.6h-13.2z"/><path transform="rotate(10.263 169.625 285.848)" class="st32" d="M160.7 240.3h18v91h-18z"/></svg>