<svg version="1.1" id="Layer_1" xmlns="http://www.w3.org/2000/svg" x="0" y="0" viewBox="0 0 1000 900.7" style="enable-background:new 0 0 1000 900.7" xml:space="preserve"><style>.st2{fill:#fff}.st3{fill:#ffbe9d}.st4,.st5{fill:#4570ad}.st5{opacity:.49}.st6{fill:#231f20}.st10{fill:#e6e7e8}.st11{fill:#365c89}.st13{opacity:.9;fill:#4570ad}.st15{fill:#ff4d53}.st16{opacity:.5;fill:#fff}.st18{fill:#ed4350}.st24{opacity:.37;fill:#231f20}</style><ellipse cx="500" cy="870.4" rx="458.4" ry="19.7" style="opacity:.17;fill:#231f20"/><circle cx="502.8" cy="452.9" r="428.6" style="fill:#cfb5f6"/><path class="st2" d="M757.4 424.2H182.5c-15.2 0-27.5-12.3-27.5-27.5V48.5c0-15.2 12.3-27.5 27.5-27.5h574.8c15.2 0 27.5 12.3 27.5 27.5v348.2c.1 15.2-12.2 27.5-27.4 27.5z"/><path class="st3" d="M244 246.2h37.2v71H244z"/><path class="st4" d="M784.9 99.8H155v-49c0-16.5 13.3-29.8 29.8-29.8h570.3c16.5 0 29.8 13.3 29.8 29.8v49z"/><path class="st2" d="M604.6 80.7H331.7c-8.6 0-15.6-7-15.6-15.6V58c0-8.6 7-15.6 15.6-15.6h272.9c8.6 0 15.6 7 15.6 15.6v7.1c0 8.6-7 15.6-15.6 15.6z"/><path class="st5" d="M666 153.9H384.4c-7.6 0-13.8-6.2-13.8-13.8v-6.3c0-7.6 6.2-13.8 13.8-13.8H666c7.6 0 13.8 6.2 13.8 13.8v6.3c0 7.6-6.2 13.8-13.8 13.8zM683.4 393H384.3c-10 0-18.1-8.1-18.1-18.1v-8.3c0-10 8.1-18.1 18.1-18.1h299.1c10 0 18.1 8.1 18.1 18.1v8.3c0 9.9-8.1 18.1-18.1 18.1zM516.5 192.2H374.9c-4.8 0-8.7-3.9-8.7-8.7v-4c0-4.8 3.9-8.7 8.7-8.7h141.6c4.8 0 8.7 3.9 8.7 8.7v4c0 4.8-3.9 8.7-8.7 8.7zM516.5 230.5H374.9c-4.8 0-8.7-3.9-8.7-8.7v-4c0-4.8 3.9-8.7 8.7-8.7h141.6c4.8 0 8.7 3.9 8.7 8.7v4c0 4.8-3.9 8.7-8.7 8.7zM399.3 269.9h-27.4c-3.2 0-5.7-2.6-5.7-5.7v-2.6c0-3.2 2.6-5.7 5.7-5.7h27.4c3.2 0 5.7 2.6 5.7 5.7v2.6c.1 3.1-2.5 5.7-5.7 5.7zM584.1 269.9h-16.9c-2.7 0-4.8-2.2-4.8-4.8v-2.2c0-2.7 2.2-4.8 4.8-4.8h16.9c2.7 0 4.8 2.2 4.8 4.8v2.2c.1 2.6-2.1 4.8-4.8 4.8zM584.1 291.6h-16.9c-2.7 0-4.8-2.2-4.8-4.8v-2.2c0-2.7 2.2-4.8 4.8-4.8h16.9c2.7 0 4.8 2.2 4.8 4.8v2.2c.1 2.6-2.1 4.8-4.8 4.8zM510.4 268.2h-77.9c-2.8 0-5-2.3-5-5v-2.3c0-2.8 2.3-5 5-5h77.9c2.8 0 5 2.3 5 5v2.3c0 2.7-2.2 5-5 5zM698.5 268.2h-77.9c-2.8 0-5-2.3-5-5v-2.3c0-2.8 2.3-5 5-5h77.9c2.8 0 5 2.3 5 5v2.3c0 2.7-2.2 5-5 5zM698.5 292.6h-77.9c-2.8 0-5-2.3-5-5v-2.3c0-2.8 2.3-5 5-5h77.9c2.8 0 5 2.3 5 5v2.3c0 2.7-2.2 5-5 5zM678.2 323.4h-77.9c-2.8 0-5-2.3-5-5V316c0-2.8 2.3-5 5-5h77.9c2.8 0 5 2.3 5 5v2.3c.1 2.8-2.2 5.1-5 5.1zM472.4 291.9h-39.9c-2.8 0-5-2.3-5-5v-2.3c0-2.8 2.3-5 5-5h39.9c2.8 0 5 2.3 5 5v2.3c0 2.7-2.2 5-5 5zM472.4 323.4h-39.9c-2.8 0-5-2.3-5-5V316c0-2.8 2.3-5 5-5h39.9c2.8 0 5 2.3 5 5v2.3c0 2.8-2.2 5.1-5 5.1zM399.3 293.5h-27.4c-3.2 0-5.7-2.6-5.7-5.7v-2.6c0-3.2 2.6-5.7 5.7-5.7h27.4c3.2 0 5.7 2.6 5.7 5.7v2.6c.1 3.2-2.5 5.7-5.7 5.7zM399.3 325.1h-27.4c-3.2 0-5.7-2.6-5.7-5.7v-2.6c0-3.2 2.6-5.7 5.7-5.7h27.4c3.2 0 5.7 2.6 5.7 5.7v2.6c.1 3.1-2.5 5.7-5.7 5.7z"/><ellipse class="st3" cx="262.6" cy="212.9" rx="40" ry="50"/><path class="st6" d="M263.6 162.9s-20.4 31-41.4 46.2c0 0 2.9 39.7 22.1 46.7l-.2 33.2s-51.6 3.4-60.4 11.3V258s31.5-3.1 22.1-45.2c-9.3-42.1 1.2-65.7 33.8-75.9 0 0 12.8-6.2 20.4 2.3 0 0 16.3-12.3 33.2-5.5 16.9 6.8 37.1 33.8 41.9 47.8 5.3 15.8-4.6 60.8 10.6 67.6v51.2s-46.7-12.9-64.2-8.7l-.3-33.5s21.3-15.2 20.4-55.2c.1-.1-2.4-32.1-38-40z"/><path d="M281.1 290.4s17.5-.9 36.2 1.9c21.3 3.1 27.2 9.7 27.2 9.7s3.4 23.1-13 25.6h-137s-12.1-9.2-12.1-23.9c0-2 12.5-17.2 60.3-14.6 0 0 4.9 19.3 21 19.3 15.8-.1 17.4-18 17.4-18z" style="fill:#7a39e2"/><path class="st6" d="M331.7 328.8H194.2l-.2-.1c-.2-.1-16.1-5.9-12.9-28.6l-.4-120.7c0-.7.5-1.2 1.2-1.2s1.2.5 1.2 1.2l.4 120.9v.1c-2.8 19.6 9.4 25.2 11.1 25.9h136.8c3.9-.5 6.9-2.2 8.9-5.1 5.1-7.1 2.9-19 2.9-19.1v-.2c0-1.6 2.5-156.8.3-167.8-2-9.8-10.4-12.5-11.6-12.8H217.8c-.7 0-1.2-.5-1.2-1.2s.5-1.2 1.2-1.2h114.6c.5.1 11.2 2.9 13.6 14.8 2.2 11.2-.1 160.2-.3 168.2.3 1.4 2.2 13.3-3.3 20.9-2.4 3.4-6 5.4-10.7 6z"/><path d="M210.8 382.5s-1.7-26.2 3.4-22 2.5 18 13.5 11.5 10.7-24 16.3-18.6c5.6 5.4 11.4 38.9 20.7 39.5s-2.4-20.5 6-22.2c8.4-1.7 11 16 20.3 11.8 9.3-4.2 25.1-29 25.1-29" style="fill:none;stroke:#231f20;stroke-miterlimit:10"/><path d="M124.8 156.9s-8.4 12.3-3.2 23.4c5.3 11.1.7 19.7.7 19.7s-10.1 1.1-12.4 3c-2.3 1.9-4.5 9.3-4.1 11.8.4 2.5 7.1 2.7 6.8 7.9-.4 5.1-.4 10.4-3 10.4s-8.6-1.9-10.1 3.4-3.8 8.6 0 12 8.6 6.4 6 12.4c-2.6 6-6 9.8-8.4 9.8-2.4 0-6 1.6-8.5 5.6-2.3 3.9-1.5 11.4-1.5 11.4l13.5 14.2 21.4-5.3 36.1-130.9-33.3-8.8z" style="fill:none;stroke:#231f20;stroke-width:2;stroke-miterlimit:10"/><path class="st6" d="m111.4 283.3-1.6-.5c-1.9-.6-3-2.5-2.4-4.4L137.7 175c.6-1.9 2.5-3 4.4-2.4l1.6.5c1.9.6 3 2.5 2.4 4.4l-30.3 103.3c-.5 1.9-2.5 3-4.4 2.5zM193.5 88.8c-.7-.7-1.6-1.2-2.6-1.5-5.2-1.8-25.1-8.8-42.3-13.9-13.4-4-24.6 2.7-30.5 7.6-2.8 2.3-4.8 5.3-5.9 8.7L97.6 137c-3.4 11 10.1 16.9 10.1 16.9s47.3 11.5 64.2 16.9c16.9 5.4 19-7.9 19-7.9s3.5-9.4 10.5-36.3c5.9-22.2-4-34.3-7.9-37.8zM177 104.3l-1.7 6.8c-.5 2.2-2.8 3.5-4.9 3l-28.2-6.9c-2.2-.5-3.5-2.8-3-4.9l1.7-6.8c.5-2.2 2.8-3.5 4.9-3l28.2 6.9c2.2.5 3.6 2.7 3 4.9z"/><g><path class="st10" d="M184.8 110.3c-2.2 0-4.4-.1-6.6-.4-12-1.6-23-7.5-31-16.6-.4-.5-.4-1.3.1-1.7.5-.4 1.3-.4 1.7.1 7.6 8.7 18.1 14.3 29.5 15.8 2 .3 4.1.4 6.2.4 6.8 0 13.3-1.4 19.5-4.2 17-7.7 28-24.6 28-43.2 0-26.2-21.3-47.4-47.4-47.4-26.1 0-47.4 21.3-47.4 47.4 0 4.1.5 8.1 1.5 11.9.2.7-.2 1.3-.9 1.5-.7.2-1.3-.2-1.5-.9-1.1-4.1-1.6-8.3-1.6-12.6 0-27.5 22.4-49.9 49.9-49.9s49.9 22.4 49.9 49.9c0 19.6-11.5 37.4-29.4 45.5-6.5 2.9-13.4 4.4-20.5 4.4zm-1.2-8.1c-1.8 0-3.5-.1-5.2-.3-4.7-.6-9.3-2-13.5-4.1-.6-.3-.9-1-.5-1.6.3-.6 1-.9 1.6-.5 4 2 8.3 3.3 12.8 3.9 1.6.2 3.2.3 4.9.3 6.2 0 12.2-1.4 17.7-4.2C214.7 89 223 75.5 223 60.6c0-21.7-17.6-39.3-39.3-39.3s-39.3 17.6-39.3 39.3c0 3.9.6 7.8 1.7 11.5.2.6-.2 1.3-.8 1.5-.6.2-1.3-.2-1.5-.8-1.2-3.9-1.8-8-1.8-12.2 0-23 18.7-41.8 41.8-41.8s41.8 18.7 41.8 41.8c0 15.9-8.8 30.2-23 37.3-6.1 2.8-12.4 4.3-19 4.3z"/></g><g><path class="st3" d="m822.2 821.4 4.5 30.8 29.7-6.4s-12.8-24.4-14.3-27l-19.9 2.6z"/><path class="st11" d="M819.2 852.9s-3.4-12.7 16.9-7.1c0 0 4.1 2.6 7.5-3.8 3.4-6.4 40.2 10.8 40.2 10.8s27.8 17 14.6 23.3l-77.7 1.8s-1.5.8-1.7-7.1c-.2-7.7.2-17.9.2-17.9z"/><path class="st10" d="M879.6 862.4c-.4 0-.8-.2-1-.6-5.3-8.1-22.3-11.8-22.5-11.9-.7-.1-1.1-.8-.9-1.5.1-.7.8-1.1 1.5-.9.7.2 18.2 4 24.1 12.9.4.6.2 1.3-.4 1.7-.3.3-.6.3-.8.3zM890.5 871.7h-66.1c-.7 0-1.2-.5-1.2-1.2s.5-1.2 1.2-1.2h66.1c.7 0 1.2.5 1.2 1.2 0 .6-.5 1.2-1.2 1.2z"/><path class="st3" d="M694.9 814.6v20.7h16.5l2.6-20.7z"/><path class="st11" d="M684.8 842.1c.8-1.1 5.6-17.3 21.4-13.9 0 0 10.9.4 9.8 13.9-1.1 13.5.1 22.5.1 22.5s.7 12.4-7.6 13.1-26.7 0-26.7 0-10.9-4.5-5.6-15.4 8.6-20.2 8.6-20.2z"/><path class="st10" d="M704.5 854.1h-16c-.7 0-1.2-.5-1.2-1.2s.5-1.2 1.2-1.2h16c.7 0 1.2.5 1.2 1.2s-.5 1.2-1.2 1.2zM695.3 871.7c-9.6 0-14.7-4-15-4.3-.5-.4-.6-1.2-.2-1.7s1.2-.6 1.7-.2c.1.1 9.5 7.4 26.6 1.3.6-.2 1.3.1 1.6.7.2.6-.1 1.3-.7 1.6-5.5 1.9-10.1 2.6-14 2.6z"/><ellipse transform="rotate(-22.587 776.819 313.67)" class="st3" cx="776.7" cy="313.7" rx="22.3" ry="30.7"/><path class="st6" d="M788.4 297.8s11.3-8.7 4.8-16.6-24.8-16.9-37.2-7.9c0 0 3.4-17.7-7.6-14.9s-17.2 4.8-13.2 11.8c3.9 7 11 9.6 11 9.6s2.5 7.3-20 14.1-59.1 8.4-79.1-3.4c-20-11.8-40.5 17.2-22.8 35.2 2.2 2.3 4.3 4.1 6.3 5.7 4.6 3.6-.2 10.6-5.2 7.5-.2-.1-.4-.2-.6-.4-15.8-10.2-27.7 17.1-15.5 28.9 1.8 1.7 3.5 3.4 5 5.3 5.4 6.9 21.1 21.6 50.4 11.5 0 0 24.2-16 54.3-23.1s41.1-7.6 41.1-7.6l5.2-18.8s-12.9-12-9.9-17.5 4.6-11.9 13.1-11.9 19.9-7.5 19.9-7.5z"/><path class="st3" d="m765.5 328.7-7.8 29.9-4.3 12.4 31.5 1.1v-35.5z"/><path class="st4" d="M705 529.3s-16.9 89-16.5 167.8 2.9 120.1 2.9 120.1l29.4 2.6s15.8-100.6 19.1-115.6c3.4-15 17.6-66.8 17.6-66.8l62.7 190.7 29.3-5.3-17.6-134.4-17.3-154.3-109.6-4.8z"/><path d="M882.6 318.4h-66.3c-4.4 0-7.9-3.6-7.9-7.9v-32.6c0-4.4 3.6-7.9 7.9-7.9h66.3c4.4 0 7.9 3.6 7.9 7.9v32.6c0 4.3-3.6 7.9-7.9 7.9z" style="fill:#f1f2f2"/><path class="st13" d="M820.3 281.9h14.2v16.9h-14.2zM873.3 286.4H845c-1 0-1.8-.8-1.8-1.8v-.8c0-1 .8-1.8 1.8-1.8h28.2c1 0 1.8.8 1.8 1.8v.8c.1 1-.7 1.8-1.7 1.8zM872.6 305.1h-28.2c-1 0-1.8-.8-1.8-1.8v-.8c0-1 .8-1.8 1.8-1.8h28.2c1 0 1.8.8 1.8 1.8v.8c.1 1-.8 1.8-1.8 1.8zM866.9 296.7H845c-1 0-1.8-.8-1.8-1.8v-1.4c0-1 .8-1.8 1.8-1.8h21.9c1 0 1.8.8 1.8 1.8v1.4c0 1-.8 1.8-1.8 1.8z"/><ellipse transform="rotate(-32.567 757.662 318.345)" class="st3" cx="757.7" cy="318.4" rx="5.4" ry="7.5"/><path class="st2" d="M708.4 519.9s-18.4 30-16.9 36.8c1.5 6.8 17.6-10.5 29.3-9.8 11.6.8 22.9 19.5 37.9 17.6 15-1.9 19.9-11.3 27.8-19.9s19.5 14.5 27.8 20 5.6-39.2 5.6-39.2l-111.5-5.5z"/><path class="st3" d="M889.7 373.1s-1.1-23.7-4.8-29.7c-3.8-6-20.6-18.4-20.6-18.4s-1.9-2.6 3.8-2.2 6.4 6.4 13.5 3c7.1-3.4 7.9-15 2.6-20.3s-4.5-12.4-.4-9.4 10.9 15.8 10.9 15.8 7.5 11.6 6.8 19.5c-.8 7.9 6.2 46.6 6.2 46.6l-2.8 4.4-15.8-4.9.6-4.4z"/><path d="M784.9 353.5s27 2.9 38.6 20.3 27.2 51.9 35.5 51.5 27-53.2 27-53.2l24 6.7-24.5 68c-2.3 6.3-6.7 11.8-12.6 14.9-6.3 3.3-17.4 4.9-26-3.7l-30.8-32.7 5.6 102.9s-82.2 4.5-116.4-4.5c0 0 13.9-61.6 15-78.8 1.1-17.3.4-43.6.4-43.6s-28.9 6.4-39.4 18C670.9 431 693.8 473 693.8 473l-13.1 13.1s-26.3-31.6-29.3-43.6-15-33.4 7.5-49.1c22.5-15.8 42.7-27.5 42.7-27.5s48.8-13.3 57.5-12.4c0 0-1.7 15.9 12.1 15.5-.1 0 17-2.5 13.7-15.5z" style="fill:#feac02"/><path class="st3" d="m683.1 483.9 23.1 27s16.1 6 22.9-3.4c0 0 3.8-6.8 12.4-3.4 8.6 3.4 10.9-11.3 5.3-13.1 0 0-12.8-9-22.2-1.1s-11.6 6-11.6 6l-21.6-22.5-8.3 10.5z"/></g><g><path d="M150.3 878.1H96.5c-5.5 0-10-4.5-10-10V767.8h73.9V868c-.1 5.6-4.6 10.1-10.1 10.1zM642.4 878.1h-53.8c-5.5 0-10-4.5-10-10V767.8h73.9V868c-.1 5.6-4.6 10.1-10.1 10.1z"/><path class="st6" d="m665.9 590.5-38.5 8s-11.7-2.7-19.1-2.6l-5.9-8.9h10.2v-26.6s3.4-10.4 14.9-9.2c11.5 1.2 33.3 5.5 33.3 5.5s7 4.4 9.5 12.3c2.4 7.9 0 11 0 11s.9.6 1.4 1.7c.8 1.9.7 5-5.8 8.8z"/><path class="st15" d="m663.6 589.2-35.4 7.3s-10.8-2.5-17.6-2.4l-5.5-8.1h9.4v-24.4s3.1-9.6 13.6-8.4c10.6 1.1 30.6 5.1 30.6 5.1s6.5 4 8.7 11.3c2.2 7.3 0 10.1 0 10.1s.8.6 1.3 1.6c.9 1.5.8 4.4-5.1 7.9z"/><path class="st16" d="m663.6 589.2-35.4 7.3s-10.8-2.5-17.6-2.4l-5.5-8.1h9.4v-1c16.4-1.2 39.5-2.8 54.2-3.8.9 1.6.8 4.5-5.1 8z"/><path class="st6" d="m73.5 590.5 38.5 8s11.7-2.7 19.1-2.6l5.9-8.9h-10.2v-26.6s-3.4-10.4-14.9-9.2c-11.5 1.2-33.3 5.5-33.3 5.5s-7 4.4-9.5 12.3c-2.4 7.9 0 11 0 11s-.9.6-1.4 1.7c-.8 1.9-.7 5 5.8 8.8z"/><path class="st15" d="m75.9 589.2 35.4 7.3s10.8-2.5 17.6-2.4l5.5-8.1H125v-24.4s-3.1-9.6-13.6-8.4c-10.6 1.1-30.6 5.1-30.6 5.1s-6.5 4-8.7 11.3c-2.2 7.3 0 10.1 0 10.1s-.8.6-1.3 1.6c-1 1.5-.9 4.4 5.1 7.9z"/><path class="st16" d="m75.9 589.2 35.4 7.3s10.8-2.5 17.6-2.4l5.5-8.1H125v-1c-16.4-1.2-39.5-2.8-54.2-3.8-1 1.6-.9 4.5 5.1 8z"/><path d="M661.9 707.1c0 16.4-2.2 33.6-7.1 50.6-15.9 54.6-3.7 63.4-36.6 69.2-32.9 5.9-485.7 2.8-485.7 2.8s-32 12.2-43.4-32.2C82 769.7 78.8 732 77.5 707.7c-.8-14.4-1-24.1-1-24.1s-3.1-41 43.4-82c0 0 18.4-22.9 23.7-37.3 0 0 31.7-98.1 80.2-98.1s192.5-13.7 280.4 0c0 0 48-3.6 67.4 46 19.3 49.6 38.7 81.5 62.6 107.6 16.5 18.1 27.6 50.8 27.7 87.3z" style="fill:#161616"/><path class="st15" d="M658.8 706.4c0 16.2-2.1 33.3-7 50-15.8 54.1-3.7 62.7-36.2 68.5-32.5 5.8-480.6 2.7-480.6 2.7s-31.7 12.1-43-31.8C84.9 768.3 81.9 731 80.6 707c-.8-14.3-.9-23.8-.9-23.8s-3.1-40.5 43-81.1c0 0 18.2-22.6 23.5-36.9 0 0 31.4-97.1 79.3-97.1s190.5-13.5 277.5 0c0 0 47.5-3.5 66.7 45.5 19.1 49.1 38.3 80.6 62 106.5 16.1 17.9 27 50.3 27.1 86.3z"/><path class="st6" d="M552.9 716.5s-240.4 39.8-370.8 0l36.9-38.3s4.3-7.1 14.9-14.1c8.4-5.6 20.6-11 37.8-13 38.8-4.4 150.1-6.2 185.5 0 0 0 19.6-3.5 42.6 13.2 6 4.3 12.2 10 18.4 17.6l34.7 34.6z"/><path class="st18" d="M549.5 715.4s-235.3 38-363.1 0l36.1-36.6s4.2-6.8 14.6-13.5c8.2-5.3 20.2-10.6 37-12.4 38-4.2 147-5.9 181.6 0 0 0 19.2-3.3 41.7 12.6 5.9 4.2 12 9.6 18 16.8l34.1 33.1z"/><path class="st18" d="M658.8 706.4c0 16.2-2.1 33.3-7 50-15.8 54.1-3.7 62.7-36.2 68.5-32.5 5.8-480.6 2.7-480.6 2.7s-31.7 12.1-43-31.8C84.9 768.3 81.9 731 80.6 707c14.8 1.3 35.1 3 58.6 4.8 73.4 5.7 179.1 12.6 254.7 11.9 71.7-.6 151.8-6.6 208-11.7 24.2-2.2 44.1-4.2 56.9-5.6z"/><path d="M525.2 807.1H206.8v-7.7c0-18.7 15.2-33.9 33.9-33.9h250.5c18.7 0 33.9 15.2 33.9 33.9v7.7z" style="fill:#000100"/><path class="st2" d="M107.7 731.6s-14.6-5-9.6 17.3l4.3 29.6s-2 9 17.1 10.7 58 0 58 0 8.4-1.1 18.6-8.4c6.1-4.4 10.8-8.2 13.6-10.5 3.9-3.3 3.8-9.5-.4-12.4-.7-.5-1.5-.9-2.4-1.4-6-2.8-17.2-6.8-24.6-9.3-3.6-1.2-7.1-2.8-10.5-4.6-3.2-1.7-9.5-5.2-20.8-5.7-2-.1-4-.3-5.9-.5l-37.4-4.8z"/><path class="st15" d="m109.6 746.3 4.1 21.5s1.5 9.3 15.4 9.7c13.9.4 19.1 0 19.1 0s10.1 1 6.5-9.7c-3.5-10.6-6.9-16.2-6.9-16.2s-1.1-5.3-10.9-7.5c-9.8-2.3-20.6-2.3-20.6-2.3s-7.7-.5-6.7 4.5z"/><path class="st2" d="M630 731.6s14.6-5 9.6 17.3l-4.3 29.6s2 9-17.1 10.7-58 0-58 0-8.4-1.1-18.6-8.4c-6.1-4.4-10.8-8.2-13.6-10.5-3.9-3.3-3.8-9.5.4-12.4.7-.5 1.5-.9 2.4-1.4 6-2.8 17.2-6.8 24.6-9.3 3.6-1.2 7.1-2.8 10.5-4.6 3.2-1.7 9.5-5.2 20.8-5.7 2-.1 4-.3 5.9-.5l37.4-4.8z"/><path class="st15" d="m628.1 746.3-4.1 21.5s-1.5 9.3-15.4 9.7-19.1 0-19.1 0-10.1 1-6.5-9.7 6.9-16.2 6.9-16.2 1.1-5.3 10.9-7.5c9.8-2.3 20.6-2.3 20.6-2.3s7.7-.5 6.7 4.5z"/><path class="st2" d="m604.3 719.3-49.4 8.4c-35.7 14.6-59.7 19.8-59.7 19.8s-257.9 5.6-278.2-5.6c-20.3-11.3-77.9-22.5-77.9-22.5V712c73.4 5.7 179.1 12.6 254.7 11.9 71.7-.6 151.8-6.6 208-11.7l2.5 7.1z"/><path class="st6" d="M497.4 665.4c-28.6 1.3-82.5 3.9-96.6 5.2-19.4 1.7-31.2 23.7-31.2 23.7l-11-10.1c-9.3-14.4-25.3-13.5-25.3-13.5s-60.4-3.7-96.1-5.3c8.2-5.3 20.2-10.6 37-12.4 38-4.2 147-5.9 181.6 0-.1-.2 19.1-3.5 41.6 12.4z"/><g><path class="st2" d="M628.2 649s4.4 9.5-8 12.8c-12.4 3.4-45.3 3.9-45.3 3.9s-21.7 1.1-30.8-2.8c-4.9-2.2-11.8-5-16.9-7.1-4.2-1.7-7.3-3-7.3-3s-3-4.9 0-7.2c0 0 13.5-11.4 33.2-14.8 13.1-2.2 37.5-5 52.5-6.6 7.6-.8 12.8-1.3 12.8-1.3s5.9-3.8 9.7 11.3c3.9 15.3.1 14.8.1 14.8z"/><path class="st6" d="M600.5 649c-14.3 4.3-52.2 6.1-73.2 6.8-4.2-1.7-7.3-3-7.3-3s-3-4.9 0-7.2c0 0 13.5-11.4 33.2-14.8 13.1-2.2 37.5-5 52.5-6.6 4.2 8.6 7.6 21-5.2 24.8z"/></g><g><path class="st2" d="M106.4 649s-4.4 9.5 8 12.8c12.4 3.4 45.3 3.9 45.3 3.9s21.7 1.1 30.8-2.8c4.9-2.2 11.8-5 16.9-7.1 4.2-1.7 7.3-3 7.3-3s3-4.9 0-7.2c0 0-13.5-11.4-33.2-14.8-13.1-2.2-37.5-5-52.5-6.6-7.6-.8-12.8-1.3-12.8-1.3s-5.9-3.8-9.7 11.3c-3.9 15.3-.1 14.8-.1 14.8z"/><path class="st6" d="M134.1 649c14.3 4.3 52.2 6.1 73.2 6.8 4.2-1.7 7.3-3 7.3-3s3-4.9 0-7.2c0 0-13.5-11.4-33.2-14.8-13.1-2.2-37.5-5-52.5-6.6-4.2 8.6-7.6 21 5.2 24.8z"/></g><path style="fill:none;stroke:#161616;stroke-width:2;stroke-miterlimit:10" d="M144 567.8h450.4"/><path d="M170.5 557.1H564s11.1 2.3 6.6-9c-2.7-6.8-13.5-25.5-21.6-39.2-9.4-16-25.6-27.2-44-29.7-.7-.1-1.5-.2-2.3-.3-21.5-2.5-215.6-.6-263.8-.1-9.8.1-19.5 2.4-28.1 6.9-9.3 4.9-19.7 12.6-24.4 24.1-9.5 23.1-21.3 43.3-21.3 43.3s-1 4 5.4 4z" style="opacity:.59;fill:#fff"/><path d="M211.5 556.9h339.8s9.6 1.8 5.7-7.2c-2.4-5.5-11.7-20.5-18.6-31.5-8.2-12.9-22.1-21.8-38-23.9-.6-.1-1.3-.2-2-.2-18.5-2-186.2-.5-227.8-.1-8.4.1-16.8 1.9-24.3 5.6-8 3.9-17 10.1-21.1 19.4-8.2 18.5-18.4 34.7-18.4 34.7s-.8 3.2 4.7 3.2z" style="opacity:.22;fill:#fff"/><path class="st24" d="m237.2 557.1 6.8-31s-.6-9.2 14.1-8.9c14.6.3 30.4 0 30.4 0s10.7-3.4 14.6 15.6c3.7 18 3.4 24 3.4 24l-69.3.3zM430.7 557.1l6.8-31s-.6-9.2 14.1-8.9 30.4 0 30.4 0 10.7-3.4 14.6 15.6c3.7 18 3.4 24 3.4 24l-69.3.3z"/></g></svg>