<svg version="1.1" id="Layer_1" xmlns="http://www.w3.org/2000/svg" x="0" y="0" viewBox="0 0 849.3 839.3" style="enable-background:new 0 0 849.3 839.3" xml:space="preserve"><style>.st1{fill:#cfb5f6}.st3{fill:#e6e7e8}.st4{fill:#fdbf9e}.st5{fill:#fff}.st6{fill:#774ec6}.st11{fill:#ffbf9c}.st12{fill:#db4b4b}.st13{fill:#ff4d53}.st14{fill:#4570ad}.st15{fill:#58595b}.st16{fill:#feac02}</style><path d="M771 830.6H219.6c-115.3 0-208.8-93.5-208.8-208.8V70.4C10.8 31.5 42.4 0 81.3 0h513.8c136.1 0 246.4 110.3 246.4 246.4v513.8c0 38.9-31.6 70.4-70.5 70.4z" style="fill:#e2d5f8"/><path class="st1" d="M763.1 807.7H227.5c-107 0-193.7-86.7-193.7-193.7V78.3c0-30.6 24.8-55.4 55.4-55.4h498.1c127.8 0 231.3 103.6 231.3 231.3v498.1c-.1 30.6-24.9 55.4-55.5 55.4z"/><ellipse cx="705.2" cy="711.5" rx="106.6" ry="20" style="opacity:.11"/><path class="st3" d="M808.9 812.9H81.6c-14.6 0-26.4-11.8-26.4-26.4v-7.7c0-14.6 11.8-26.4 26.4-26.4h727.3c14.6 0 26.4 11.8 26.4 26.4v7.7c0 14.5-11.8 26.4-26.4 26.4z"/><path class="st4" d="m453 740-6.6 38.4s24.4 11.6 27.6-3.7V740h-21z"/><path class="st1" d="M674.7 502.3H125.2c-14.4 0-26.1-11.7-26.1-26.1V86.8c0-14.4 11.7-26.1 26.1-26.1h549.5c14.4 0 26.1 11.7 26.1 26.1v389.3c.1 14.5-11.6 26.2-26.1 26.2z"/><path class="st5" d="M658 502.3H108.4c-14.4 0-26.1-11.7-26.1-26.1V86.8c0-14.4 11.7-26.1 26.1-26.1H658c14.4 0 26.1 11.7 26.1 26.1v389.3c0 14.5-11.7 26.2-26.1 26.2z"/><path class="st6" d="M329.6 78.7h-34.7l-24.5 24.5v34.7l24.5 24.5h34.7l24.5-24.5v-34.7z"/><path class="st5" d="M328.4 81.6h-32.3l-22.8 22.8v32.3l22.8 22.8h32.3l22.8-22.8v-32.3z"/><path class="st6" d="M326.1 87.1h-27.7l-19.6 19.6v27.7l19.6 19.6h27.7l19.6-19.6v-27.7z"/><path class="st5" d="m282.1 122.7 4.7-.8c.4 1.3 1.4 2 3 2 1.3 0 1.9-.3 1.9-1 0-.4-.1-.6-.4-.8-.3-.2-.8-.4-1.6-.5-2.9-.5-4.7-1.3-5.5-2.2-.8-.9-1.2-1.9-1.2-3.1 0-1.5.6-2.8 1.8-3.8 1.2-1 2.8-1.5 5-1.5 3.3 0 5.5 1.3 6.6 4l-4.2 1.3c-.4-1.1-1.3-1.6-2.6-1.6-1.1 0-1.6.3-1.6 1 0 .3.1.5.4.7.2.2.7.3 1.4.5 2 .4 3.3.8 4.2 1.1s1.5.9 2.1 1.6c.5.8.8 1.7.8 2.7 0 1.7-.7 3-2 4s-3.1 1.5-5.3 1.5c-4.1-.1-6.6-1.8-7.5-5.1zM305.6 115v12.4h-4.7V115h-3.4v-3.9H309v3.9h-3.4zM317.4 127.7c-2.3 0-4.2-.8-5.6-2.3-1.4-1.5-2.2-3.6-2.2-6.1 0-2.4.7-4.5 2.1-6 1.4-1.6 3.3-2.4 5.8-2.4 2.3 0 4.1.8 5.6 2.2 1.4 1.5 2.1 3.5 2.1 6 0 2.6-.7 4.7-2.2 6.2-1.4 1.6-3.3 2.4-5.6 2.4zm0-3.7c.8 0 1.5-.4 1.8-1.1.4-.7.6-2.1.6-4 0-2.8-.8-4.3-2.3-4.3-1.6 0-2.5 1.6-2.5 4.9 0 3 .8 4.5 2.4 4.5zM332.4 121.5v5.9h-5.1v-16.3h7c1.7 0 3.1.2 4 .6.9.4 1.6 1 2.2 1.8.5.8.8 1.7.8 2.8 0 1.6-.5 2.8-1.6 3.8s-2.5 1.4-4.3 1.4h-3zm-.1-3.5h1.7c1.5 0 2.2-.5 2.2-1.6 0-1-.7-1.5-2-1.5h-1.8v3.1z"/><g style="opacity:.39"><path class="st1" d="M124.3 142.8h97.8v30.8h-97.8z"/><path class="st1" d="m220.9 116.4 1.3 68.2c.2 10.8 4.3 21.3 11.9 29.1 5.9 6 14.3 11.5 25.8 12.5h94.2s24.2 6.5 16.1 33.5H400l.2-57.7-126.9-.6s-19.7-1.8-22.2-20.7 0-63.5 0-63.5l-30.2-.8z"/><path class="st1" d="M370.2 124h30v78h-30zM573.4 87.1h71.8v27.5h-71.8z"/><path class="st1" d="M400 176.7h102.5v30.2H400zM456.7 206.9h26v69.9h-26zM482.7 250h143.5v26.8H482.7zM238.3 291.8h102.9V321H238.3zM345.7 364.2H418v67.1h-72.3z"/><path class="st1" d="M502.4 176.7s16.2 0 19.1-39.4 51.9-50.2 51.9-50.2v27.5s-26.8 11.7-28.4 36.1c-1.6 24.4-9.5 44.7-42.6 56.3v-30.3zM590.7 276.8s.8 19.7-23.7 29.6c0 0-48.1 4.6-57.6 41.1l-3.9 118.9h29.2V354.1s7.9-19.1 31.5-20.2 56.7-27.1 59.9-57.1h-35.4zM490.6 350.4c0 34.4-27.9 62.3-62.3 62.3-3.5 0-6.9-.3-10.2-.8l-.9-30.1c3.4 1.3 10.6 2 14.5 2 17.4 0 31.5-14.1 31.5-31.5s-14.1-31.5-31.5-31.5c-.9 0-1.9 0-2.8.1-1 2.8-2.2 5.4-3.7 7.9l3.5-40.7c34.2.2 61.9 28.1 61.9 62.3z"/><path class="st1" d="M431.7 304.8c0 5.6-1 11.1-2.8 16.1-1 2.8-2.2 5.4-3.7 7.9-8.2 14-23.5 23.5-40.9 23.5-21.9 0-40.4-14.9-45.8-35.1-1.1-4-1.6-8.1-1.6-12.4 0-4.3.6-8.4 1.6-12.4 4.3-15.7 16.4-28.2 31.9-33 4.4-1.4 9.1-2.1 13.9-2.1 5.2 0 10.1.8 14.8 2.3 13.7 4.5 24.6 15 29.7 28.4 1.8 5.3 2.9 11 2.9 16.8z"/><circle class="st5" cx="384.2" cy="304.8" r="26.2"/><path class="st1" d="M238.3 291.8s-41.3 3.1-48.2 36.1v95.6h21.4v-78.3s1-20.5 26.8-24.2v-29.2z"/><path class="st5" d="M124.3 156.7h4v3h-4zM209.9 159.7h-8.2v-3h8.2v3zm-16.3 0h-8.2v-3h8.2v3zm-16.4 0H169v-3h8.2v3zm-16.3 0h-8.2v-3h8.2v3zm-16.3 0h-8.2v-3h8.2v3zM218.1 156.7h4v3h-4zM269.4 214.5c-1.6 0-3.2-.1-4.7-.2l.2-3c2.4.2 5.1.2 7.8.1l.2 3c-1.2 0-2.4.1-3.5.1zm115.4-.1h-8v-3h8v3zm-16 0h-8v-3h8v3zm-16 0h-8v-3h8v3zm-16 0h-8v-3h8v3zm-16 0h-8v-3h8v3zm-16 0h-8v-3h8v3zm-16 0h-8v-3h8v3zm-32.3-1.5c-2.8-.8-5.4-1.8-7.7-3.1l1.5-2.6c2.1 1.2 4.5 2.1 7.1 2.8l-.9 2.9zm-14.4-8.1c-2-2-3.7-4.2-5.1-6.7l2.6-1.5c1.3 2.2 2.8 4.3 4.6 6l-2.1 2.2zm-8.2-14.5c-.9-3.3-1-5.6-1-5.7V182h3v2.6s.1 2.1.9 5l-2.9.7zm2-16.3h-3v-8h3v8zm0-16h-3v-8h3v8zm0-16h-3v-8h3v8zm0-16h-3v-8h3v8z"/><path class="st5" d="M386.7 257.4h-3V252h3v5.4zm0-13.4h-3v-8h3v8zm0-16h-3v-8h3v8zm0-16h-3v-8h3v8zm0-16h-3v-8h3v8zm0-16h-3v-8h3v8zm0-16h-3v-8h3v8zm0-16h-3v-8h3v8zm0-16h-3v-8h3v8z"/><path class="st5" d="M502.8 193.3h-5.6v-3h4.9c.7-.3 1.5-.7 2.2-1l1.3 2.7c-.8.4-1.7.8-2.5 1.2l-.3.1zm-13.6 0h-8v-3h8v3zm-16 0h-8v-3h8v3zm-16 0h-8v-3h8v3zm-16 0h-8v-3h8v3zm-16 0h-8v-3h8v3zm-16 0h-8v-3h8v3zm-16 0h-8v-3h8v3zm119.6-5-1.5-2.6c2.6-1.4 4.7-2.8 6.5-4.2l1.8 2.4c-1.9 1.4-4.2 2.9-6.8 4.4zm12.9-10.2-2.4-1.8c1.5-2 2.6-4 3.4-6.6l2.9.9c-1 2.9-2.2 5.2-3.9 7.5zm5.6-15.5-3-.5c.2-1.1.3-2.2.5-3.4.2-1.4.4-2.9.7-4.5l3 .5c-.3 1.6-.5 3-.7 4.5-.2 1.1-.3 2.3-.5 3.4zm2.7-15.7-2.9-.6c.5-2.1.9-4.1 1.5-6.1.2-.6.3-1.2.5-1.7l2.9.9c-.2.5-.3 1.1-.5 1.6-.6 1.9-1.1 3.9-1.5 5.9zm4.8-14.8-2.7-1.3c1.2-2.4 2.6-4.8 4.2-7l2.4 1.7c-1.4 2.1-2.8 4.3-3.9 6.6zm8.9-12.7-2.2-2.1c1.8-1.9 3.8-3.8 6-5.6l1.9 2.3c-2 1.8-3.9 3.6-5.7 5.4zm12-9.9-1.6-2.5c2.3-1.5 4.6-2.9 7-4.1l1.4 2.7c-2.3 1.1-4.6 2.4-6.8 3.9zm85.5-7.2h-8v-3h8v3zm-16 0h-8v-3h8v3zm-16 0h-8v-3h8v3zm-16 0h-8v-3h8v3zm-16 0h-7.8v-.8l-.7-2.1.5-.2h8v3.1zM387.8 343.9l-.2-3c2.6-.2 5.1-.6 7.5-1.3l.8 2.9c-2.6.7-5.3 1.2-8.1 1.4zm-8.3-.3c-2.7-.4-5.5-1.1-8-2.1l1.1-2.8c2.4.9 4.9 1.5 7.4 1.9l-.5 3zm24.2-4.3-1.4-2.6c2.2-1.2 4.4-2.7 6.3-4.4l2 2.3c-2.2 1.8-4.5 3.4-6.9 4.7zm-39.6-1.5c-2.3-1.5-4.5-3.3-6.4-5.2l2.1-2.1c1.8 1.8 3.8 3.4 5.9 4.8l-1.6 2.5zm52.1-9.3-2.4-1.8c1.5-2 2.9-4.3 3.9-6.6l2.7 1.3c-1.1 2.5-2.6 4.9-4.2 7.1zm-63.7-2.5c-1.5-2.3-2.7-4.8-3.7-7.4l2.8-1c.9 2.4 2 4.7 3.4 6.9l-2.5 1.5zm70.6-12.5-2.9-.6c.5-2.5.8-5.1.8-7.6h3c-.1 2.7-.4 5.5-.9 8.2zm-76.3-3c-.2-1.7-.4-3.5-.4-5.2 0-1 0-2 .1-3.1l3 .2c-.1.9-.1 1.9-.1 2.8 0 1.6.1 3.2.3 4.8l-2.9.5zm74.1-7.3c-.1-2.6-.6-5.1-1.2-7.6l2.9-.8c.7 2.7 1.2 5.4 1.4 8.2l-3.1.2zm-69.9-8.3-2.9-.9c.8-2.7 1.9-5.2 3.2-7.6l2.6 1.5c-1.2 2.2-2.2 4.6-2.9 7zm65.8-6.4c-1.2-2.3-2.6-4.4-4.3-6.3l2.3-1.9c1.8 2.1 3.4 4.4 4.7 6.9l-2.7 1.3zm-58.4-6.9-2.2-2c1.8-2.1 3.9-4 6.1-5.6l1.8 2.4c-2.1 1.6-4 3.3-5.7 5.2zm48.6-4.7c-2-1.6-4.2-2.9-6.5-4l1.3-2.7c2.5 1.2 4.9 2.6 7.1 4.3l-1.9 2.4zm-36.3-4.3-1.2-2.7c2.5-1.1 5.2-2 7.9-2.5l.6 2.9c-2.5.5-5 1.2-7.3 2.3zm22.5-2.2c-2.5-.6-5-.9-7.6-.9v-3c2.8 0 5.6.4 8.2 1l-.6 2.9zM406.6 425h-8v-3h8v3zm-16 0h-8v-3h8v3zm-16 0h-8v-3h8v3zm-16 0h-3.9v-7.1h3v4.1h.9v3zm49.5-3h-3v-8h3v8zm-50.4-12.1h-3v-8h3v8zm50.4-3.9h-3v-8h3v8zm-50.4-12.1h-3v-8h3v8zm50.4-3.9h-3v-8h3v8zm-50.4-12.1h-3v-6.3h4.7v3h-1.7v3.3zm48.9-3.3h-7.1v-3h8.6v2.4h-1.5v.6zm-15.1 0h-8v-3h8v3zm-16 0h-8v-3h8v3zM418.3 399.8H410.4v-3h8.1l-.2 3zm8.2-.1-.2-3c2.6-.2 5.3-.4 7.8-.8l.5 3c-2.6.4-5.4.7-8.1.8zm16.1-2.5-.8-2.9c2.6-.7 5.1-1.5 7.4-2.4l1.1 2.8c-2.4.9-5 1.8-7.7 2.5zm15.2-6.2-1.5-2.6c2.3-1.3 4.4-2.8 6.3-4.5l2 2.3c-2.1 1.8-4.4 3.4-6.8 4.8zm12.4-10.8-2.4-1.8c1.5-2 2.9-4.2 4-6.5l2.7 1.3c-1.2 2.5-2.7 4.8-4.3 7zm7.1-14.8-2.9-.8c.6-2.3 1-4.7 1.3-7.1v-.5l3 .3v.5c-.3 2.6-.8 5.2-1.4 7.6zm-1.4-16.1c-.1-2.6-.5-5.2-1.1-7.6l2.9-.7c.6 2.6 1 5.4 1.2 8.2l-3 .1zm-3.6-14.9c-1.1-2.3-2.4-4.5-3.9-6.6l2.4-1.8c1.6 2.2 3.1 4.6 4.2 7.1l-2.7 1.3zm-9-12.4c-1.8-1.7-3.8-3.4-6-4.9l1.7-2.5c2.3 1.6 4.5 3.4 6.4 5.2l-2.1 2.2zm-12.7-9c-2.3-1.2-4.7-2.3-7.2-3.2l1.1-2.8c2.6 1 5.1 2.1 7.5 3.4l-1.4 2.6zm-14.6-5.6c-2.4-.6-4-1-4.4-1h-3.1v-3h3.5c.1 0 1.9.3 4.8 1.1l-.8 2.9z"/><g><path class="st5" d="M198.4 404.8h-3v-8h3v8zm0-16h-3v-8h3v8zm0-16h-3v-8h3v8zm0-16h-3v-8h3v8zm0-16h-3v-1.3c.5-2.4 1.3-4.7 2.2-6.9l2.8 1.2c-.8 2-1.5 4.1-2 6.2v.8zm5.8-13.8-2.5-1.7c1.5-2.2 3.3-4.3 5.3-6.3l2.1 2.1c-1.8 1.9-3.5 3.9-4.9 5.9zm10.9-10.9-1.8-2.4c2.2-1.6 4.5-3 7-4.3l1.4 2.6c-2.3 1.3-4.6 2.7-6.6 4.1zm13.7-7.4-1.1-2.8c3.7-1.5 6.2-2.1 6.3-2.1h1.9v3h-1.4c-.5.1-2.7.7-5.7 1.9zm119.1-1.9h-8v-3h8v3zm-16 0h-8v-3h8v3zm-16 0h-8v-3h8v3zm-16 0h-8v-3h8v3zm-16 0h-8v-3h8v3zm-16 0h-8v-3h8v3zm-16 0h-8v-3h8v3z"/></g><g><path class="st5" d="m522.6 467.5-1.1-1.1H520V465h1.5v-.1.1h1.5v.6c0 1.2 0 1.4-.4 1.9zM520 457v-8h3v8h-3zm0-16v-8h3v8h-3zm0-16v-8h3v8h-3zm3-16.1h-3v-8h3v8zm0-16h-3v-8h3v8zm0-15.9h-3v-3.8c0-1.4 0-2.9.1-4.2l3 .1c-.1 1.3-.1 2.7-.1 4.1v3.8zm.8-15.8-3-.4c.4-2.8.9-5.5 1.6-8l2.9.8c-.6 2.3-1.1 4.9-1.5 7.6zm4.1-14.9-2.7-1.3c1.2-2.6 2.6-5 4.2-7.1l2.4 1.8c-1.5 2-2.8 4.2-3.9 6.6zM537 334l-2-2.3c2-1.7 4.2-3.4 6.7-4.8l1.5 2.6c-2.3 1.4-4.4 2.9-6.2 4.5zm13.2-8-1.2-2.8c2.3-1 4.9-2 7.6-2.8l.9 2.9c-2.6.8-5.1 1.7-7.3 2.7zm14.9-4.9-.7-2.9c2.5-.6 5.1-1.2 7.9-1.7l.6 2.9c-2.7.6-5.3 1.2-7.8 1.7zm15.7-3.7-1-2.8c2.4-.9 4.8-1.9 7-3.2l1.5 2.6c-2.3 1.3-4.9 2.5-7.5 3.4zm14.2-8.3-2-2.3c1.9-1.7 3.7-3.5 5.3-5.6l2.3 1.9c-1.7 2.2-3.6 4.2-5.6 6zm10.3-12.8-2.6-1.5c1.3-2.2 2.4-4.5 3.4-7l2.8 1.1c-1.1 2.7-2.3 5.1-3.6 7.4zm6.3-15-2.9-.8c.7-2.5 1.3-5.1 1.8-7.7l2.9.5c-.4 2.7-1 5.4-1.8 8zm1.5-15.1-7.7-.1v-3l9.2.1-.1 1.9-1.5-.1.1 1.2zm-15.7-.1-8-.1v-3l8 .1v3zm-16-.1-8-.1v-3l8 .1v3zm-16-.2-8-.1v-3l8 .1v3zm-16-.1-8-.1v-3l8 .1v3zm-16-.2-8-.1v-3l8 .1v3zm-16-.1-8-.1v-3l8 .1v3zm-16-.2-8-.1v-3l8 .1v3zm-16-.1-8-.1v-3l8 .1v3zm-16-.2h-1.9v-9.1h3v7.6h-1.1v1.5zm1.1-17.1h-3v-8h3v8zm0-16h-3v-8h3v8zm0-16h-3v-8h3v8zm0-16h-3v-8h3v8z"/></g></g><g><circle class="st6" cx="606.7" cy="176.7" r="38.1"/><circle class="st5" cx="606.7" cy="176.7" r="36.2"/><circle class="st6" cx="606.7" cy="176.7" r="29.7"/><path transform="rotate(-45.001 607.126 176.282)" class="st5" d="M602.5 142.4h9.2v67.8h-9.2z"/><path transform="rotate(-44.992 606.394 176.239)" class="st5" d="M572.5 171.7h67.7v9.2h-67.7z"/></g><g><circle class="st6" cx="466" cy="121.7" r="38.1"/><circle class="st5" cx="466" cy="121.7" r="30.7"/><path class="st6" d="m482.8 106.4-8.1-4.7v4.5h-14.6c-7.6 2.4-6.9 9.7-6.9 9.7v27.9h10.1v-26.5c0-.8.6-1.4 1.4-1.4h10v4.4l8.1-4.7 8.1-4.7-8.1-4.5z"/></g><g><path d="M197 278.7h-68.4c-2.9 0-5.2-2.3-5.2-5.2v-68.4c0-2.9 2.3-5.2 5.2-5.2H197c2.9 0 5.2 2.3 5.2 5.2v68.4c0 2.8-2.3 5.2-5.2 5.2z" style="fill:#7448bc"/><path class="st5" d="M190 271.6h-54.3c-2.9 0-5.2-2.3-5.2-5.2v-54.3c0-2.9 2.3-5.2 5.2-5.2H190c2.9 0 5.2 2.3 5.2 5.2v54.3c0 2.9-2.3 5.2-5.2 5.2z"/><path class="st6" d="M187.4 269.2H138c-2.9 0-5.2-2.3-5.2-5.2v-49.4c0-2.9 2.3-5.2 5.2-5.2h49.4c2.9 0 5.2 2.3 5.2 5.2V264c0 2.8-2.3 5.2-5.2 5.2z"/><path class="st5" d="M150.6 217.9h12.1c4.3 0 7.7 1.2 10.2 3.6 2.6 2.4 3.9 5.6 3.9 9.6 0 4.2-1.3 7.5-3.9 9.8-2.6 2.4-6.2 3.6-10.8 3.6h-1.7v16.4h-9.8v-43zm9.7 8.3v10.2c2.2 0 3.8-.5 4.9-1.3 1-.8 1.6-2.1 1.6-3.8 0-1.8-.5-3.2-1.5-3.9-1.1-.8-2.7-1.2-5-1.2z"/></g><g><path class="st6" d="m567.6 384.4 18.6-32.3c2.7-4.8 9.6-4.8 12.4 0l18.6 32.3 18.6 32.3c2.7 4.8-.7 10.7-6.2 10.7H555c-5.5 0-8.9-5.9-6.2-10.7l18.8-32.3z"/><path class="st5" d="m572 387.2 16.5-28.6c1.5-2.6 5.4-2.6 6.9 0l16.5 28.6 16.5 28.6c1.5 2.6-.4 6-3.4 6h-66.1c-3.1 0-5-3.3-3.4-6l16.5-28.6z"/><path class="st6" d="M592.7 398.9h-1c-1.9 0-3.4-1.5-3.4-3.4v-20.3c0-1.9 1.5-3.4 3.4-3.4h1c1.9 0 3.4 1.5 3.4 3.4v20.3c0 1.8-1.5 3.4-3.4 3.4z"/><circle class="st6" cx="592.2" cy="406" r="4.2"/></g><ellipse transform="rotate(-18.286 340.972 356.513)" class="st4" cx="341" cy="356.5" rx="4.7" ry="7.7"/><path style="fill:#6d6e71" d="M203 494h394.3v22.1H203z"/><path style="fill:none;stroke:#caddfe;stroke-miterlimit:10" d="M400.3 349.5"/><g><path class="st11" d="M668.5 665.9v22.6s11.6 6.8 17.6 0c6-6.8-.8 0 0-1.3s.5-21.3.5-21.3h-18.1zM770.8 661.4l2.1 23.4 15-2.1-1.9-22.9z"/><path d="M686.5 684.8c-1.1-.8-9.8 2.6-9.8 2.6s-2.1-4.7-8.1-4.7-39.4 21-39.4 21-8.4 8.9 3.2 10.5c11.6 1.6 56.4 0 56.4 0s4.1 0 2.2-9.5l-2.2-20h-2.3zM769 675.6v25.2s-3.7 10.5 3.7 12.6c7.4 2.1 23.9 3.7 25.8-1.8s-5.8-36.3-10.5-36c-4.7.3-3.2 5.5-3.2 5.5l-3.4-5.5-6.8 1.6v3.2l-5.6-4.8z"/><path class="st12" d="M678.1 441.9s-16.7-6.8-12.2-20.7c4.5-13.9 15.2-8.4 15.2-8.4l-3 29.1z"/><ellipse transform="rotate(-84.042 708.717 201.998)" class="st11" cx="708.7" cy="202" rx="29.9" ry="21.3"/><path class="st11" d="M708.7 227.2V254s16.3 15.5 31.3 0l-2.4-47.1-28.9 20.3z"/><path d="M690.1 186.7s-11.6-2.9-4.3-17.9c0 0 2.6-9.1 17.7-2.9 0 0 13.5.3 18.3-4.7 4.7-5 12.4-.3 10.6 8.2 0 0 18.8-9.4 20.6 6.5 0 0 2.1 8.5-6.2 18-8.2 9.4-6.8 15-6.8 15l.6 11.5s-9.1 5.4-12.7-3.1l-.9-1.7s4.2-13.3 2-21.1c0 0-2.8.2-13.9-8.9 0 0-8.5-3.8-13.8-.3-5.5 3.6-11.2 1.4-11.2 1.4z"/><path class="st11" d="m566.3 254-15-20.1s-11 6.1-15-6.5c-3.9-12.6 1.3-18.9 1.3-18.9l-15.2-4.2s-3.2-6 2.6-5.8c5.8.3 28.4 5 28.4 5s5 0 10.3 11.8c5.3 11.8 15.8 27.6 15.8 27.6L566.3 254z"/><path d="M681.2 412.7s-18.1 227.6-15.5 256.5h24.7l22.9-132.5 15.5-63.9s41 181.9 37.9 192.1l22.3-1.3s6.8-150.1-2.1-205.6l-5.3-29.2-100.4-16.1z"/><path class="st13" d="M711.4 242.1s-14.2 0-37.9 6.8-37.3 25.8-60.5 15.8c0 0-27.1-15.2-31.5-29.2l-22.3 21.3s18.7 30 26.5 37.6 14.5 19.7 32.6 19.7 52.3-11.3 52.3-11.3 3.9-2.4 4.2 7.4c.3 9.7-8.9 110.9-8.9 110.9s4.6-11.8 83.5 11.8c0 0 30.3 11.1 42.4-1.7 0 0 1.1-34.6-8.1-58.8 0 0 23.4-16.6 28.4-30.8 0 0 11-23.1 3.4-52.6-7.6-29.4-55.2-43.6-55.2-43.6l-20.9-4.2c0 .1-13.8 30.6-28 .9z"/><path class="st12" d="m738.2 355.4 6 23.9s33-1.9 39.4-6.8c6.4-4.9 38.6-28.5 34.5-58.1 0 0 2.1-24.7-7.2-35.5s-34.1-8.1-37 20.3c0 0 7.4 29.7-10.5 42.1-17.8 12.3-25.2 14.1-25.2 14.1z"/><ellipse transform="rotate(-60 726.88 200.22)" class="st11" cx="726.9" cy="200.2" rx="7.1" ry="5"/><path class="st3" d="M616.8 356H674l71.6 31.2h-55.7z"/><path class="st11" d="m740 356.7-18.4 7.4s-9.2-5.5-18.4-6.3c-9.2-.8-12.9 4.5-5.5 6.3s13.4 6.3 3.1 9.2c-10.2 2.9-21.3 6-21.3 6s-5 2.9 3.4 6.6c8.4 3.7 25 5.8 31.3 0 6.3-5.8 6.3-5.5 11.6-6.6 5.3-1.1 19.7-6.2 19.7-6.2l-5.5-16.4z"/></g><g><path class="st11" d="M166.2 367.4s9.1 15.4 0 27.3 1.4 17.9 17.5 15.4c16.1-2.5 14.8-8.8 9.9-13.7v-13.9l-8.8-15.2c0 .1-11.2-9.3-18.6.1zM224.4 721.8l-14.7 27.3s9.5 15.4 22.8 0 18.6-22.1 18.6-22.1l-26.7-5.2z"/><path d="M213.6 738.9c-1.4-.6-18.1 12.4-18 20.4l60.8 39.9s18.6 2.8 16.8-16.5l-38.7-36.1s-4.7-2.1-14.9-2.5l-6-5.2z"/><path class="st11" d="M282.7 738.9v29.8l22.7-4.2-2.5-25.6z"/><path d="m280.8 753.8-6 33.2s-4.6 5.6 25.2 7.7c29.8 2.1 44.9 0 44.9 0s16.8-13.7-2.1-23.1L304.5 756c.1-.1-2.6 10.2-23.7-2.2z"/><ellipse transform="rotate(-13.033 194.864 358.916)" class="st11" cx="194.8" cy="358.9" rx="16.5" ry="25.2"/><path d="M206.7 346.2s10.7-.5 0-15.3c0 0-1.8-8.1-13.1-4.2-11.3 3.9-9.9 1.1-16.5-1.5-6.7-2.7-7.7.8-7.7 6.4 0 0-1.8 2.8-12.3-2.8 0 0-12.3-1.1-8.4 11.6s13.7 29.1 13.7 29.1 8.9 5 12.6-5.3c0 0-1.7-10.9 3.4-10.5 5 .4 12.8-.5 15.2-6.2 2.4-5.7 13.1-1.3 13.1-1.3zM232.5 623.6l40.3 123h35.4l-12.6-152.4z"/><path d="m235.6 558.8 73.9 34.3s33.3 14 17.2 46.3c-16.1 32.2-76 100.6-76 100.6l-32.2-15.8 52.9-88.8-82.7-57 46.9-19.6z"/><path class="st14" d="M168.2 391.6s-17.7 2-29.3 16.9c-12 15.3-21.4 100.9 1.8 152.1 0 0 28.4 15.1 73.6 14.7s24.2-20.3 24.2-20.3-25.2-16.1-16.1-40.3c0 0 20.4 13.2 42.1 16.8l22.7 1.8-4.5-42.8s-17.9 7.7-29.9-16.8c-11.9-24.5-5.6-40.3-20.3-56.1-14.7-15.8-26.9-18.9-38.9-21 0 0-2.9 13.7-17.6 9.5.1-.1-17.6-.7-7.8-14.5z"/><path class="st15" d="M172.5 626.8v145.1l-48 1.4s-18.9 6.3-16.5 25.9h151.4s1.8-22.1-17.9-27h-45.9l-1.4-145.4h-21.7z"/><path class="st13" d="M84.2 498.5s-2.8-47.3 51.5-39.6 58.5 65.9 58.5 65.9 4.6 61 29.4 63.4h35.7s26.3 5.6 15.1 34.7c0 0-6 9.5-24.5 11.6-18.6 2.1-107.9 0-107.9 0s-32.2-9.5-37.1-34.3c-4.9-24.9-20.7-101.7-20.7-101.7z"/><ellipse transform="rotate(-26.389 177.368 357.66)" class="st11" cx="177.3" cy="357.7" rx="4.2" ry="7"/></g><g><path class="st4" d="M388.1 738.9v35.8s-22.9 9.7-24.4 0c-1.6-9.7 0-34.7 0-34.7l24.4-1.1z"/><path d="M392.3 755.9s10.3 16.6 20.2 16.8c0 0 9.3 9.3 15.8 9.8 6.5.6 15.3 17.3 0 16.8-6.3-.2-76.4 0-76.4 0s-4.4-23.5 0-38.1c0 .1 22.5 25.2 40.4-5.3z"/><path d="M446.4 761.3s-18.6 20.2-8.9 29.7c9.7 9.5 58.6 8.4 58.6 8.4s27.6-9.2 11.8-19c0 0-13.4-4.7-23.7-11.6l-10.3-6.9s-8.6 18.7-21 12.9l-6.5-13.5z"/><ellipse class="st4" cx="355" cy="354.1" rx="15.2" ry="25.2"/><path class="st4" d="M332 366.7 321.8 395s0 6.5 8.4 6.1c8.4-.4 24.7-3.8 24.7-3.8l-1.6-23.7-12.3-12.7-9 5.8z"/><path class="st14" d="M383.2 525.2s101.1 26.8 107.4 60.7c6.3 33.9-11.8 160.7-11.8 160.7h-41.2l3.9-116-89.6-55.3 31.3-50.1z"/><path class="st14" d="m428.3 612-33.1 134.6h-39l11.3-129.9z"/><path class="st4" d="M466 484.4s30.1-12.5 42.7 9.6v7.2l-21.3-2.7-21.3-1.7v-12.4z"/><path class="st16" d="M351.6 393.7s16.1-2.1 26.3 7.4c10.2 9.4 20.7 40.3 24.9 48.3 0 0 2.8 11.2 18.9 17.2 16.1 6 47.3 14 47.3 14v19.3l-49.8-1.8s-21.7-3.2-36.1-17.9l-7-6.3s-10.9 23.8 1.1 40.7c0 0 6.7 8.8 12.6 9.8 0 0 .4 13.3-15.8 14.7-16.1 1.4-83.1-8.4-83.1-8.4v-96.1l2.1-38.1s22.9-2.8 29.5-3c.1 0 12.7 9.7 29.1.2z"/><path d="M343.4 354.1c2.5-5.5 24.1-14.3 24.1-14.3s-5.7-19-32.6-13.7l-13.7 7.7s-28.9-19.2-34.7 5.8c-5.8 25 .5 71.5-24.2 91.6 0 0 11.6 9.1 43.6-2.5 0 0 21-7.9 12.1-33.1-8.9-25.2-15.8-41.5-3.2-48.4 0 0-3.9 23 14.2 25.8 0 0 13 1.1 11.8-8.9.2.1-2.7 1.6 2.6-10z"/><path class="st16" d="m315 347.3 3.3-15.1 3 1.8c0-.1-1.6 15.4-6.3 13.3z"/><ellipse class="st4" cx="344.7" cy="353.6" rx="4.4" ry="7.3"/><path class="st15" d="M348.5 626.8v144.7h-46.3s-25.6 7.7-18.2 27.7h152.8s5.6-17.5-14.4-26.3l-51.9-1.1v-145h-22z"/><path class="st13" d="M259.5 500.3s6-64.5 73.9-36.1c0 0 35 7.4 42.8 88.3 0 0-2.8 37.5 38.9 37.5 0 0 33.6-4.9 37.5 17.9S434 632.7 434 632.7H320.1s-26.3-1.8-38.2-29.4c-11.9-27.7-22.4-103-22.4-103z"/></g></svg>