<svg version="1.1" id="Layer_1" xmlns="http://www.w3.org/2000/svg" xmlns:xlink="http://www.w3.org/1999/xlink" x="0" y="0" viewBox="0 0 1000 957.2" style="enable-background:new 0 0 1000 957.2" xml:space="preserve"><style>.st2{clip-path:url(#SVGID_2_)}.st3{fill:none;stroke:#fff;stroke-width:20;stroke-linecap:round;stroke-miterlimit:10}.st6,.st7{clip-path:url(#SVGID_2_);fill:#494848}.st7{fill:#f5aa90}.st8{fill:#3c3c3d}.st11{fill:#fba692}.st13,.st14{clip-path:url(#SVGID_2_);fill:#3470b9}.st14{fill:#5c92bf}.st20{fill:#fbfbfb}.st21{fill:#231f20}</style><defs><path id="SVGID_1_" d="M980 351.8c-6.1 251.3-100.5 365.3-100.5 365.3S771.3 854.5 609.1 915.7c-117.2 44.2-290.5-3-395.2-71.4-40.2-26.3-70.3-55.7-83.3-84.3C84 657 24.7 668 64.2 217c0 0 38.2-217 247.8-217s493 49 493 49 108.2 30.8 154.6 160.7c13.5 38.2 21.8 85 20.4 142.1z"/></defs><clipPath id="SVGID_2_"><use xlink:href="#SVGID_1_" style="overflow:visible"/></clipPath><path d="M982.7 359.4c-6.1 251.3-100.5 365.3-100.5 365.3S773.9 862.1 611.7 923.3c-117.2 44.2-290.5-3-395.2-71.4-40.2-26.3-70.3-55.7-83.3-84.3-46.6-103-105.8-91.9-66.4-543 0 0 38.2-217 247.8-217s493 49 493 49 108.2 30.8 154.6 160.7c13.6 38.2 21.9 85 20.5 142.1z" style="clip-path:url(#SVGID_2_);fill:#e5d1f7"/><path d="M980 366.8c-6 247.3-98.2 359.5-98.2 359.5S776.1 861.5 617.6 921.8c-114.5 43.5-283.8-2.9-386.1-70.3-24.3-59.4-37.6-124.5-37.6-192.7 0-279.8 225.2-506.6 502.9-506.6 96.5 0 186.6 27.4 263.1 74.8 13.4 37.6 21.5 83.7 20.1 139.8z" style="opacity:.44;clip-path:url(#SVGID_2_);fill:#742abd"/><g class="st2"><path class="st3" d="M598.1 364.4c-3-3.4-2.7-8.2.6-14"/><path d="M620.7 327.1c53.3-43.3 182.7-103.3 284.1-101.7" style="fill:none;stroke:#fff;stroke-width:20;stroke-linecap:round;stroke-miterlimit:10;stroke-dasharray:32.2491,32.2491"/><path class="st3" d="M920.9 226.2c5.1.4 10 1 14.9 1.8"/></g><path d="M75.9 389.4s81.8-53.4 144.2 9.5S356 403 435.6 448.1 563 575.7 505.8 617.3c-57.2 41.5-102.3 38.3-91.6 159.8s8.8 132.3-36 133.5c-44.8 1.1-365.3-183-302.3-521.2z" style="clip-path:url(#SVGID_2_);fill:#e6e7e8"/><path class="st6" d="m65.5 272.7 907.7 129.8V456L60.4 316z"/><path class="st7" d="m807 342.9-9.5 63.9h73.6l-8.3-74.2z"/><ellipse transform="rotate(-42.215 820.16 309.85)" class="st7" cx="820.1" cy="309.8" rx="52.4" ry="38.2"/><g class="st2"><circle class="st8" cx="359.2" cy="434.7" r="133.6"/><circle cx="361.8" cy="434.7" r="107.6" style="fill:#e6e7e8"/><path class="st8" d="m270.1 378.3 39 8.3s7.1-10.7 19-10.7 85.5 15.4 85.5 15.4 3 11.3 7.7 11.9c4.7.6 44.2 5.3 44.2 5.3l3.9 29.7-55.2-8.9s-14.9 44.1-44.4 38.6c0 0-61.9 8.4-60.1-21.9 0 0 1.2-24.4-5.3-29.1S258 406.2 258 406.2l12.1-27.9z"/><path d="m347 403.3 29.7 3s23.1 4.6 7.1 28.4c-16 23.8-4.7 6-4.7 6s7 9-17.3 5.4c-24.3-3.6-14.8 0-14.8 0s-8.3-2-10.7-11.4 0-24.3 0-24.3 4.2-10.7 10.7-7.1z" style="fill:#fff"/></g><g class="st2"><path class="st11" d="m365.9 508.3 40.1 6.2s38.3 4.5 49-17.8c10.7-22.3 17.8-67.7 17.8-67.7s1.8-11.6-16-28.5-12.5-38.3-12.5-38.3 28.6 20.5 28.5 8c0-12.5-14.3-21.3-14.3-21.3s-10.7-17.9 5.3-13.5c16 4.5 41.8 12.5 41.8 50.7v111.3s1.8 41.8-22.3 55.2-89 34.7-123.7 18.7 6.3-63 6.3-63zM182.3 343.6 161.9 456h100.6l4.5-20.7s-33.9-13.7-32.9-35.5c.9-21.8 5.3-35.7 5.3-35.7l-57.1-20.5z"/><ellipse class="st11" cx="239.3" cy="316" rx="45.4" ry="62.3"/><path d="M235.2 308s58.8-19.6 49-54.3-30.3-32.9-30.3-32.9-29.4-2.7-41.8 15.1c0 0-16.9-29.4-41.8 8s-10.7 43.6-10.7 43.6-41.8-7.1-32.1 28.5 57 41 57 41 30.3 3.6 32.9-31.2 17.8-17.8 17.8-17.8z"/><path d="M120.9 444.2s110 3.1 129.8-18.1c0 0 107 38.5 129.3 59 22.3 20.5 8 111.3 8 111.3l-61.4-6.2s29.4 79.2 47.2 97 25.8 40.1 25.8 40.1 11.8 19.1-5.3 53.4c-16.9 33.8-78.6 105.8-154.9 54.7-44.1-29.6-80.6-74.4-105.6-110.9-24.1-35.2-36.9-77-36.9-119.7V519s8.9-84.6 24-74.8z" style="fill:#fda81a"/><ellipse transform="rotate(-10.568 225.441 316.002)" class="st11" cx="225.5" cy="316" rx="11.1" ry="15.3"/></g><circle class="st6" cx="561.8" cy="478" r="52.2"/><path class="st13" d="M92.4 516.3S156.5 551 223.3 551s74.8 34.2 74.8 34.2L331 706.8l30.3 117.5s13 55.2-6.8 76.6c0 0-218.4-96.2-244.2-220.8S92.4 516.3 92.4 516.3z"/><path class="st14" d="M125.4 500.3v53.4s5.3 16.9 14.2 4.5v-52.5c0-.1-5.9-13.9-14.2-5.4zM193.9 511v53.4s5.3 16.9 14.2 4.5v-52.5c0-.1-5.8-13.9-14.2-5.4z"/><path d="M805.2 227.6s-49.8 29 5 43.2c0 0 22.9-15.9 40.7 13.8L820.1 327l-44.3-17.2s-18.4 58 37.5 44.5c0 0 24.5-14.9 37.5-11.5 13.1 3.4 14.2 3.4 33.8-25.7s24.3-25.2 24.3-25.2 14.2-25.8-7.1-31.8c-21.4-5.9-25.5-11.3-25.5-21.4 0 0 3-.6-23.1-1.8s-33.7-1.8-33.2-9.5c.7-7.5-14.8.2-14.8.2z" style="clip-path:url(#SVGID_2_);fill:#050505"/><path class="st7" d="M665.8 440.1s-30.9 10.7-60.5-33.2l-31.2-97s-2.3-66.8-12.3-77.5c-10-10.7-16.7-40.4-16.7-40.4s-6.3-11.9-9.9 0c-3.6 11.9 6.4 39.2 6.4 39.2s-30-21.4-27.1 22.6c2.9 43.9 27.1 47.3 27.1 47.3l25.7 155s29.3 48.8 58.2 52.2 55.8 8.1 55.8 8.1l-15.5-76.3z"/><path d="M820.1 387.2s-35-2.4-47.2 8.3c-12.2 10.7-61.5 5.3-88.8 14.8-27.3 9.5-41 21.4-41 21.4l12.5 89.6s71.2 34.6 67.7 63.9c-3.6 29.3 0 98.7 0 98.7l229.1-29.1s-17.8-90.4 0-119.4 12.5-125.1 2.4-126.3c0 0-17.2-42-65.3-22.2-48.1 19.9-69.4.3-69.4.3z" style="clip-path:url(#SVGID_2_);fill:#ef505d"/><path d="m649.1 738-63.5-2.4s-29.1-4.2-47.5 32.1c-18.4 36.2-54.3 80.7-54.3 80.7s-27.6 39.2 11.6 38l74.8 8.3L649.1 738z" style="clip-path:url(#SVGID_2_);fill:#8299cc"/><path d="M588.6 82.8v57h19V89.9s-6-31.6-19-7.1z" style="clip-path:url(#SVGID_2_);fill:#909091"/><ellipse transform="rotate(-30 852.926 309.876)" class="st7" cx="853" cy="309.8" rx="13" ry="9.5"/><path d="m665 169.1-159.2-20.9c-10.5-1.4-17.9-11-16.6-21.6l1.5-11.2c1.4-10.5 11-17.9 21.6-16.6l159.2 20.9c10.5 1.4 17.9 11 16.6 21.6l-1.5 11.2c-1.4 10.6-11.1 18-21.6 16.6z" style="opacity:.98;clip-path:url(#SVGID_2_);fill:#fbfbfb"/><g class="st2"><path class="st20" d="m414.9 166.7-68.7 17.5-49.5-50.8L316 65.1l68.7-17.4 49.5 50.8z"/><path d="m404.2 155.7-53.8 13.7-38.8-39.8 15.1-53.5 53.8-13.6 38.8 39.8z"/></g><g class="st2"><path class="st21" d="M96.9 568.3c18.3 7.1 36.9 13.6 55.7 19.1 9.4 2.8 18.9 5.3 28.4 7.5s19.2 4 28.8 5.1c4.8.6 9.7.9 14.5 1h3.6c1.2 0 2.5 0 3.8.1 1.3 0 2.6.2 3.8.4.6.1 1.3.1 1.9.3l1.9.5c5 1.2 9.8 3.6 13.8 6.8 4 3.2 7.4 7.2 10.1 11.4 5.4 8.6 8.6 18.3 10.7 28 2.1 9.8 3.2 19.6 3.2 29.7l-.1-.5 12.1 52.1 11.9 52.1c3.9 17.4 7.8 34.8 11.6 52.2 3.8 17.4 7.6 34.8 11.3 52.2-4.5-17.2-8.7-34.5-13.1-51.8-4.3-17.3-8.6-34.6-12.8-51.9l-12.5-51.9-12.3-52v-.5c-.1-9.6-1.1-19.4-3.1-28.8-2-9.4-5.1-18.7-10.1-26.8-2.5-4-5.6-7.7-9.2-10.6-3.6-2.9-7.8-5.1-12.4-6.2l-1.7-.4c-.6-.1-1.2-.2-1.7-.3-1.2-.1-2.3-.4-3.5-.4l-3.6-.1h-3.7c-5-.1-9.9-.6-14.9-1.2-19.6-2.6-38.7-7.9-57.4-13.9-9.4-3.1-18.6-6.4-27.8-9.9-4.6-1.7-9.2-3.5-13.7-5.4-4.5-2-9.1-3.9-13.5-5.9z"/></g><path class="st13" d="M96.9 397s1.8-49.9 50.7-32.9 40.1 14.7 40.1 14.7 37.1 16.4 40.3 51.2c3.3 34.7 5.9 73 5.9 73s5 29.4-24.2 28.5l-111-27.1s-17.9.9-10.7-40.3 8.9-67.1 8.9-67.1z"/><g class="st2"><path class="st21" d="M107.8 399.8c-1-2.3-1.7-4.9-1.4-7.5.1-1.3.6-2.7 1.4-3.8.8-1.2 1.8-2.1 3-2.9 2.4-1.4 5.1-2 7.7-2.2.7-.1 1.3-.1 2-.1h2l2 .1 1.9.2c5.2.5 10.2 1.8 15.1 3.2 4.9 1.4 9.7 3.2 14.4 4.9 9.5 3.7 18.8 8 27.4 13.5 4.3 2.7 8.5 5.7 12.3 9.1.9.9 1.9 1.7 2.8 2.6.9.9 1.8 1.8 2.7 2.8 1.7 1.9 3.3 3.9 4.5 6.1-1.6-2-3.4-3.7-5.3-5.3-1.9-1.6-3.9-3.2-5.9-4.6-1-.8-2-1.4-3.1-2.1l-1.6-1-1.6-1c-1.1-.6-2.1-1.3-3.2-1.9l-3.3-1.8c-1.1-.6-2.2-1.2-3.3-1.7l-3.3-1.7c-2.3-1.1-4.5-2.2-6.8-3.2l-6.9-3-7-2.8c-4.7-1.8-9.4-3.5-14.1-5.1-4.7-1.6-9.5-2.9-14.4-3.7-2.4-.5-4.9-.6-7.3-.7-2.4 0-4.8.3-6.9 1.3-1 .5-2 1.2-2.7 2.1-.7.9-1.2 1.9-1.5 3.1-.3 1.2-.4 2.4-.3 3.6.2 1.1.4 2.3.7 3.5z"/></g><path d="M88.1 236.9S135.3 2.5 455.6 40.3s364.5 48.8 364.5 48.8" style="clip-path:url(#SVGID_2_);fill:none;stroke:#f1f2f2;stroke-width:4;stroke-miterlimit:10"/><path d="M448.5 666.8s46.5 26.1 20.9 122.3c-25.6 96.2-38.7 133-38.7 133" style="clip-path:url(#SVGID_2_);fill:none;stroke:#dbdbdb;stroke-width:4;stroke-miterlimit:10"/><path class="st6" d="m514.4 703 5.3 47.2-10.7 22.2 10.7 9.5-5.3 8.9 12.5 8.3s.6 17.2 8.3 19c7.7 1.8 42.1-6.5 38.6-19-3.6-12.5.3-27.3.3-27.3l-10.3-11.2-1.9-16.1-11.7-.6-18.4-52.2-17.4 11.3z"/><path class="st13" d="M944.5 578.4s-106.4 9.7-126.2 6.9c-19.8-2.8-112.2-17.6-140.7 35.8-28.5 53.4-10.1 73-52.8 138.9-42.7 65.9-62.9 114.5-62.9 114.5s-20.8 45.7 17.8 47.5c38.6 1.8 354.9-38.6 372.7-267.1l-7.9-76.5z"/><g class="st2"><path class="st21" d="M630.1 900.9c8.3-17 16.5-33.9 24.4-51.1 8-17.1 15.9-34.2 23.4-51.5 7.4-17.3 14.8-34.7 21-52.4.8-2.2 1.6-4.4 2.3-6.6l2.1-6.7c1.5-4.4 2.6-9 3.8-13.5l1.8-6.9c.6-2.3 1.1-4.6 2-6.9.8-2.3 1.5-4.6 2.3-6.8l2.7-6.7c4-8.7 9.1-17 15.5-24.3 3.3-3.6 6.7-7 10.6-9.9l3-2.1c1-.7 2.1-1.3 3.1-2 1.1-.6 2.1-1.2 3.2-1.8.5-.3 1.1-.5 1.7-.8.1-.1.3-.1.5-.2s.4-.1.5-.2c.3-.1.6-.2 1-.3 4.9-1.1 9.6-1.4 14.4-1.6 4.8-.2 9.5-.1 14.3.1 2.4.1 4.7.2 7.1.4l3.6.2 3.5.3c4.7.4 9.5 1.1 14.1 1.4 4.6.5 9.3.6 14 .7 4.7-.1 9.4-.1 14.1-.4 4.7-.2 9.4-.7 14.1-1 4.7-.5 9.4-.9 14-1.6 18.7-2.2 37.3-5.5 55.8-9.3-9.1 2.4-18.4 4.4-27.6 6.3-9.3 1.9-18.6 3.5-27.9 4.9-4.7.7-9.4 1.3-14.1 1.9-4.7.5-9.4 1-14.1 1.3-4.7.4-9.5.5-14.2.7-4.8 0-9.5 0-14.3-.4-4.8-.3-9.4-.9-14.1-1.2l-3.5-.3-3.5-.2c-2.3-.2-4.7-.2-7-.3-4.7-.1-9.4-.2-14 0s-9.3.6-13.6 1.6c-.3.1-.5.1-.8.2-.1 0-.2.1-.3.1-.1 0-.2.1-.4.1-.5.2-1 .4-1.5.7-1 .5-2 1.1-3 1.6-1 .6-1.9 1.2-2.9 1.8l-2.8 2c-3.6 2.8-6.9 6-10 9.5-6.1 6.9-10.9 14.9-14.7 23.4l-2.7 6.4c-.8 2.2-1.5 4.4-2.2 6.6-.8 2.2-1.3 4.5-1.9 6.7l-1.8 6.8c-1.2 4.6-2.3 9.3-3.9 13.8l-2.2 6.8c-.7 2.3-1.6 4.5-2.4 6.7l-2.5 6.7c-.8 2.2-1.7 4.4-2.6 6.6-1.8 4.4-3.5 8.8-5.4 13.1-1.9 4.3-3.7 8.7-5.6 13l-5.8 12.9c-7.9 17.2-16.1 34.2-24.5 51.1-2.1 4.2-4.3 8.4-6.4 12.6-2.1 4.2-4.3 8.4-6.5 12.6l-6.6 12.5-6.6 12.9z"/></g><path d="M904 663.3c-19.7 26.7-41.1 52.1-63.6 76.5-11.2 12.2-22.8 24.1-34.7 35.7-11.8 11.6-24.1 22.9-36.6 33.7-6.2 5.5-12.7 10.7-19.1 16-6.5 5.1-13 10.3-19.7 15.2l-5 3.7-5.1 3.6c-3.4 2.4-6.8 4.8-10.2 7.1l-10.4 6.8c-.9.6-1.7 1.1-2.6 1.7l-2.7 1.6-5.3 3.2c-14.3 8.5-28.9 16.4-44.2 22.9-15.3 6.5-31 12-47.2 15.7 16.1-4.1 31.7-9.8 46.8-16.5 15.2-6.7 29.7-14.7 43.8-23.4l5.3-3.3 2.6-1.6c.9-.6 1.7-1.1 2.6-1.7l10.3-6.9c3.4-2.3 6.8-4.8 10.2-7.1 1.7-1.2 3.4-2.4 5-3.6l5-3.7c6.7-4.9 13.1-10.1 19.6-15.2 6.4-5.3 12.8-10.5 19-16 25.1-21.6 48.7-44.9 71.5-69 11.4-12.1 22.4-24.4 33.2-37 10.9-12.5 21.4-25.3 31.5-38.4z" class="st2"/><g class="st2"><text transform="translate(332.08 123.046)" class="st20" style="font-size:31.061px;font-family:'FranklinGothic-Heavy'">STOP</text></g><path class="st14" d="m803.7 557-9.1 44.5s7.1 14.8 15.4 4.2l13-48.7h-19.3zM888.9 547.5v55.8s13.1 13.1 17.2-2.4V538l-17.2 9.5z"/><path class="st13" d="M946.5 434.5s5-52.3-48.4-41.3-43.8 9.9-43.8 9.9-40.9 12.1-49.1 47.9c-8.2 35.8-16.2 75.4-16.2 75.4s-9.2 30 21.4 33L930 546.3s18.5 3.4 16.7-40.6-.2-71.2-.2-71.2z"/><circle class="st6" cx="514.4" cy="678" r="30.6"/><path style="clip-path:url(#SVGID_2_);fill:none;stroke:#e6e7e8;stroke-width:18;stroke-miterlimit:10" d="m531.6 128.1 111.2 14.6"/><g class="st2"><path class="st21" d="M819.7 524.4c1.2-6.2 2.6-12.3 3.9-18.5 1.4-6.1 2.8-12.3 4.2-18.4 1.5-6.1 2.9-12.2 4.4-18.4 1.5-6.1 3-12.2 4.6-18.3l.1-.3.2-.2c2.5-3.7 5.1-6.9 8.1-10 2.9-3.1 6.1-6 9.5-8.6 6.8-5.2 14.6-9.3 23.1-11.1 1.1-.2 2.1-.4 3.2-.5l1.6-.2 1.6-.1c2.2-.2 4.2-.2 6.3-.4 4.1-.3 8.3-.6 12.4-1.1 4.1-.5 8.3-1 12.4-1.7s8.2-1.5 12.2-2.7c-3.8 1.7-7.9 2.9-11.9 3.9-4.1 1-8.2 1.9-12.3 2.6-4.1.7-8.3 1.3-12.5 1.8-2.1.2-4.2.4-6.2.6l-1.5.2-1.5.3c-1 .1-2 .4-3 .6-3.9.9-7.7 2.4-11.3 4.3-3.6 1.9-7 4.1-10.2 6.6-3.2 2.5-6.2 5.3-9 8.3-2.8 2.9-5.5 6.1-7.7 9.4l.2-.6c-1.6 6.1-3.3 12.2-4.9 18.2-1.6 6.1-3.4 12.1-5.1 18.2-1.7 6-3.5 12.1-5.3 18.1-1.8 6-3.7 12-5.6 18z"/></g></svg>