<svg version="1.1" id="Layer_1" xmlns="http://www.w3.org/2000/svg" x="0" y="0" viewBox="0 0 1000 749.8" style="enable-background:new 0 0 1000 749.8" xml:space="preserve"><style>.st0{fill:#e3d4fa}.st3{fill:#d1d3d4}.st4{fill:#fff}.st5{fill:none;stroke:#d1d3d4;stroke-miterlimit:10}.st6{fill:#e1e1e1}.st7{fill:#e6e7e8}.st10{fill:none;stroke:#e6e7e8;stroke-miterlimit:10}.st12{fill:#545a5b}.st13{fill:#a7a9ac}.st15{fill:#939598}.st16{fill:#ff4d53}.st17{fill:#1a2b33}.st19{fill:#e2e2e2}.st21{fill:#1a2e35}.st22{fill:#ffbc9d}.st26{opacity:.23}.st27{fill:#231f20}</style><path class="st0" d="M35.5 654.8h925.9v88.8H35.5z"/><path d="M43.5 653.3s-4.3-90.4-28.8-194.1 10.5-212.8 69.6-247.7S194.3 168 218.6 106s64.5-92.3 199.5-99.5 226 21.6 259.8 96.6c25.3 56 111.2 70.1 153 73.7 20.8 1.8 41 8.2 58.8 19.1 49.2 29.9 128.1 99.7 90.3 226.2-53.4 178.7-26 232.7-26 232.7l-910.5-1.5z" style="fill:#cfb5f6"/><path class="st0" d="M61.6 655.7S57.5 569.1 34 469.8 44 266 100.6 232.6 206 191 229.3 131.6s61.7-88.4 191-95.3S636.7 57 669.1 128.8c24.2 53.7 106.5 67.2 146.5 70.6 19.9 1.7 39.2 7.9 56.3 18.3 47.1 28.6 122.7 95.4 86.5 216.6-51.1 171.1-24.9 222.8-24.9 222.8l-871.9-1.4z"/><path d="M80.9 653.7S77 571.5 54.7 477.3s9.5-193.4 63.3-225.1 100-39.6 122.1-95.9 58.6-83.9 181.3-90.5 205.4 19.7 236.2 87.8c23 50.9 101.1 63.8 139.1 67 18.9 1.6 37.2 7.5 53.4 17.3 44.7 27.2 116.4 90.6 82.1 205.6C883.7 605.9 908.6 655 908.6 655l-827.7-1.3z" style="opacity:.4;fill:#fff"/><path class="st3" d="M868.5 309.4h53v327.3h-53z"/><path class="st3" d="M694.5 302.5h239.3V318H694.5z"/><path class="st4" d="M699.8 315.7h168.8v321H699.8z"/><path class="st5" d="M710.3 327.4h147.9v50.7H710.3zM710.3 393h147.9v50.7H710.3zM709 458.7h147.9v50.7H709zM710 524.4h147.9v50.7H710z"/><path class="st3" d="M856.9 636.7h9.6v19.4h-9.6zM907.1 636.7h9.6v19.4h-9.6z"/><path class="st6" d="M694.5 302.5h176.7V318H694.5z"/><path class="st7" d="M345.6 87.3h266v189.3h-266z"/><path class="st4" d="M349.1 93.3h248.6v178.6H349.1z"/><path style="fill:#fff;stroke:#e6e7e8;stroke-miterlimit:10" d="M374.3 117.1h200.5v129H374.3z"/><path style="fill:#e6e7e8;stroke:#fff;stroke-miterlimit:10" d="M410.6 156.6h128.9v44.8H410.6z"/><path class="st10" d="m349.1 94.5 25.2 22.6M574.8 117.1l22.8-23.8M574.8 246.2l22.8 25.6M374.3 246.2l-25.2 25.6"/><g><path class="st3" d="m343.8 456.8 76.9 1.3v120h-76.9z"/><path class="st6" d="M95.1 456.8h265.1v121.3H95.1z"/><path class="st4" d="M101.5 463h249v108.1h-249z"/><path class="st6" d="M101.5 497.2h249v1h-249zM101.5 532.9h249v1h-249zM125.4 578.1h20.1l-24.7 78h-8.3zM323.1 578.1h16l11.4 78h-6.7zM371.3 578.1h16.4l15.6 78H395z"/></g><g><path style="opacity:.72;fill:#545a5b" d="M304.4 386.4h41.5v41.5h-41.5z"/><path class="st12" d="M326 421.9c-8 0-14.5-6.5-14.5-14.5s6.5-14.5 14.5-14.5 14.5 6.5 14.5 14.5-6.5 14.5-14.5 14.5zm0-28c-7.4 0-13.5 6.1-13.5 13.5s6.1 13.5 13.5 13.5 13.5-6.1 13.5-13.5-6.1-13.5-13.5-13.5z"/><circle class="st12" cx="320.4" cy="407.1" r="2.1"/><circle class="st13" cx="309.9" cy="390.6" r="2.1"/><circle class="st13" cx="309.9" cy="423.5" r="2.1"/><circle class="st13" cx="340" cy="423.5" r="2.1"/><circle class="st13" cx="340" cy="390.6" r="2.1"/><circle class="st12" cx="330.5" cy="407.1" r="2.1"/></g><g><path style="opacity:.68;fill:#545a5b" d="M350.5 386.7H392v41.5h-41.5z"/><path class="st15" d="M367.6 405.3c-7.6 0-14.8-3.4-15.2-3.6-.5-.2-.7-.8-.5-1.3.2-.5.8-.7 1.3-.5.1.1 13.4 6.3 22.3 1.6 4.3-2.3 7-6.8 8-13.4.1-.5.6-.9 1.1-.8.5.1.9.6.8 1.1-1.1 7.3-4.2 12.3-9.1 14.9-2.6 1.5-5.7 2-8.7 2z"/><path class="st15" d="M362.3 398.2c-2.6 0-4.5-.3-4.7-.3-.5-.1-.9-.6-.8-1.1.1-.5.6-.9 1.1-.8.2 0 16.6 2.5 19.7-7.9.2-.5.7-.8 1.2-.7.5.2.8.7.7 1.2-2.5 8.2-11.5 9.6-17.2 9.6zM385.9 434.9c-16.3 0-32.7-22.9-33.4-24-.2-.2-.1-.5.1-.7.2-.2.5-.1.7.1.2.3 19.6 27.3 36.4 23.1 6.5-1.6 10.9-7.8 10.3-14.3-.7-7.9-8.1-12.6-21.5-13.6-.3 0-.5-.3-.5-.5s.3-.5.5-.5c17.5 1.3 21.9 8.6 22.4 14.5.6 7-4.1 13.6-11.1 15.3-1.3.4-2.6.6-3.9.6zM398.8 404.9c-8.4 0-14.4-4.5-14.5-4.5-.2-.2-.3-.5-.1-.7.2-.2.5-.3.7-.1.1.1 11.4 8.4 24.2 1.8l6.7-4.6c.2-.2.5-.1.7.1.2.2.1.5-.1.7l-6.7 4.6c-3.9 1.9-7.6 2.7-10.9 2.7z"/><path class="st15" d="M415.1 405.9c-.1 0-.2 0-.3-.1l-4.9-4.3c-.2-.2-.2-.5 0-.7.2-.2.5-.2.7 0l4.9 4.3c.2.2.2.5 0 .7-.1 0-.3.1-.4.1z"/><path class="st15" d="M418.2 403.6h-.1l-7.4-2.3c-.3-.1-.4-.4-.3-.6.1-.3.4-.4.6-.3l7.4 2.3c.3.1.4.4.3.6 0 .2-.2.3-.5.3zM364.1 425.5c-2.9 0-4.9-.2-5.2-.2-.3 0-.5-.3-.5-.5 0-.3.3-.5.5-.5.3 0 25.7 2.1 28.8-9.3.6-2.2.3-4.2-.9-6-4.2-6.2-18.1-7.8-18.2-7.8-.3 0-.5-.3-.4-.6 0-.3.3-.5.6-.4.6.1 14.5 1.7 19 8.3 1.4 2 1.7 4.3 1 6.8-2.5 9-16.8 10.2-24.7 10.2z"/></g><g><path class="st16" d="M246.4 502.7c-3.6 18.7-6.3 25.6-19 23.7-6.8-1-7.6-14.5-4.4-29.1s9.7-22.9 16-23.7c6.7-.8 11.2 9.3 7.4 29.1zM230.3 565.3s.6-17.7 19.8-18.3c19.3-.6 20.8 13.8 16.5 15.6-4.3 1.8-20.8-.6-23.8 5.2 0 0-8.4 9.8-12.5-2.5zM216.2 532s-13.8 13.2-29-11-12.5-29.9-7-31.8c5.5-1.9 23.8 3.6 33.3 18.6 9.5 15 2.7 24.2 2.7 24.2z"/><path class="st15" d="M224.2 614.6c-.4-10.1-.4-20.2-.3-30.4.1-10.1.5-20.2 1.2-30.4.7-10.1 1.5-20.2 3-30.3.7-5 1.6-10 2.8-15l1-3.7c.4-1.2.7-2.4 1.2-3.6.9-2.4 1.9-4.8 3.3-6.8-2.4 4.5-3.6 9.4-4.5 14.4-1 4.9-1.6 10-2.2 15-.6 5-1.1 10-1.5 15.1-.4 5-.8 10.1-1.1 15.1-.3 5-.6 10.1-.9 15.1l-.7 15.1-1.3 30.4z"/><path class="st15" d="M247.4 554.5c-1.9.6-3.7 1.5-5.3 2.6-.8.5-1.6 1.1-2.3 1.7-.7.6-1.4 1.3-2.1 2-2.7 2.8-4.8 6.1-6.5 9.5-1 1.7-1.6 3.5-2.3 5.3-.7 1.8-1.2 3.7-1.9 5.6l-1.5 5.7c-.4 1.9-.8 3.9-1.3 5.8l.3-6c.2-2 .6-4 .9-5.9.2-1 .5-1.9.8-2.9.3-1 .5-2 .8-2.9.7-1.9 1.4-3.8 2.3-5.6.9-1.8 2-3.5 3.1-5.2l1.9-2.4 2.2-2.2c.8-.6 1.6-1.3 2.4-1.9.9-.5 1.7-1.1 2.6-1.5 2-.8 3.9-1.5 5.9-1.7zM193.8 503.2c4.9 2.9 9.2 6.8 13 11.1 3.8 4.3 7 9.1 9.7 14.2.7 1.3 1.2 2.6 1.8 3.9l.9 2 .8 2 1.5 4c.4 1.4.8 2.8 1.2 4.1l.6 2.1c.2.7.3 1.4.4 2.1l.8 4.2.3 2.1.2 2.1c.1 1.4.3 2.8.4 4.2-.7-2.8-1.1-5.6-1.8-8.3l-1.1-4.1-.5-2-.7-2c-.5-1.3-.9-2.7-1.3-4l-1.6-3.9-.8-2-.9-1.9c-.6-1.3-1.2-2.5-1.8-3.8l-2-3.7c-.7-1.2-1.5-2.4-2.2-3.6-.7-1.2-1.5-2.3-2.3-3.5-.4-.6-.8-1.2-1.2-1.7l-1.3-1.7c-3.8-4.2-7.7-8.3-12.1-11.9z"/></g><g><path class="st17" d="M202.4 604.4h45v45h-45z"/><path style="fill:#afafaf" d="m222.3 629.2-6.1-6-6 6-6.8-6.7 1.5-1.4 5.3 5.3 6-6 6.1 6 6-6 6 6 6.1-6 6.7 6.7-1.4 1.4-5.3-5.3-6.1 6-6-6z"/><path class="st17" d="M196.9 598.2h56.9v12.4h-56.9zM194.6 644h59.2l-6.4 12.1h-45z"/></g><g><path class="st19" d="m852.4 268.8 12.5 33.7h13.5l-23.3-49.3z"/><path class="st19" d="M799.2 216.5h61.7l-7 86h-62z"/><path class="st4" d="M805 220.8h48.6l-5.5 76.1h-48.9z"/><path class="st19" d="M816.1 233.4h24.2l-2.7 49.5h-24.4z"/></g><path style="fill:#414042" d="M35.5 654.8h925.9v9H35.5z"/><g><path class="st7" d="M205.2 355.4h11V461h-11z"/><path class="st7" d="M174 376.9h68.8v9.7H174zM156.5 461l17.5-74.3h9.1L164.8 463zM247.3 463l-14.6-76.3h10.1l14.6 76.3z"/><path class="st3" d="M140.9 265.7h139.4v89.7H140.9z"/><path class="st7" d="M145 265.7h1v89.7h-1zM149.9 265.7h1v89.7h-1zM154.7 265.7h1v89.7h-1zM159.5 265.7h1v89.7h-1zM164.3 265.7h1v89.7h-1zM169.1 265.7h1v89.7h-1zM173.9 265.7h1v89.7h-1zM178.7 265.7h1v89.7h-1zM183.6 265.7h1v89.7h-1zM188.4 265.7h1v89.7h-1zM193.2 265.7h1v89.7h-1zM198 265.7h1v89.7h-1zM202.8 265.7h1v89.7h-1zM207.6 265.7h1v89.7h-1zM212.4 265.7h1v89.7h-1zM217.3 265.7h1v89.7h-1zM222.1 265.7h1v89.7h-1zM226.9 265.7h1v89.7h-1zM231.7 265.7h1v89.7h-1zM236.5 265.7h1v89.7h-1zM241.3 265.7h1v89.7h-1zM246.2 265.7h1v89.7h-1zM251 265.7h1v89.7h-1zM255.8 265.7h1v89.7h-1zM260.6 265.7h1v89.7h-1zM265.4 265.7h1v89.7h-1zM270.2 265.7h1v89.7h-1zM275 265.7h1v89.7h-1z"/></g><g><path class="st21" d="M531.7 606s5.5 19.3-11 27.5c-16.5 8.3-34.4 13.2-30 22.7h83.7v-55.7l-42.7 5.5zM792.2 638.1h16.5s22 38.5 28.4 41.3l6.4 2.8-11.9-90.8-47.7 9.2 8.3 37.5z"/><ellipse transform="matrix(.9984 -.05736 .05736 .9984 -15.087 31.633)" class="st22" cx="543.5" cy="278.6" rx="34.7" ry="48.3"/><path class="st21" d="M517.6 309.4s-5.2-26.2-17.6-30.8-10.1-11.3-6.7-19.3c3.4-8-8.2-21.6 6.7-23.9 0 0 16.4-34.1 43.5-18.2 0 0 16.9-4.5 20.3 5.7 0 0 18.3-9.1 23.3 21.6 0 0 15.3 20.5 8.5 39.8 0 0 2.3 14.8-3.4 18.2 0 0-3.6-11.4-22.2-35.8 0 0-12.7-24.3-26-29-13.2-4.7-22.3 9.1-21.1 14.8 0 0-17.7 1.7-14 28.1l8.7 28.8z"/><path class="st22" d="m544 317.3 17.5 42 37.9-43.8-21.3-38.9z"/><path class="st4" d="M592.2 302.5s-22.9-2-33.9 29.2-14.8 49.5-14.8 49.5l43.6 16.5s-16.6 44.9-9 55.9c0 0 104.9-9.2 128.7-37.6.1.1-31-80.3-114.6-113.5z"/><path d="m801.3 647.3-14.3.9-19.1 1.2-79.4 5.2s-49.5 10.1-55-21.1c-5.5-31.2-4.6-100.1-4.6-100.1l-50.8-5.4 3.3 55.2 1.1 17.7.5 7.8-8.7.8-41.8 3.7-11.9 1.1-.7-6.8-1.7-16.9-9.6-98.4s-5-32.5 34.7-35.8c39.7-3.2 34.7-11 34.7-11l13.1-34.8 61.3 30.7 54.2-25.2s46.8 37.6 13.8 107.3c0 0-10.1 10.1-10.1 17.4 0 7.3-3.7 44.9-3.7 44.9l58.5 4.3 19 1.4 9.6.7 7.6 55.2z" style="fill:#feac02"/><path d="m557.4 417.9-78.9-20.2s-7.3-13.8-18.3-11c-11 2.8-33.2 3.4-19.3 31.2 0 0 1.8 21.1 33 8.3l64.2 22 19.3-30.3z" style="fill:#ffbf9c"/><ellipse class="st22" cx="578.1" cy="271.8" rx="9" ry="12.5"/><path class="st4" d="m582.6 600.9-8.3.9-42.5 4.4-11.8 1.3-1.6-16.9 63.1-7.4z"/><path style="fill:#fffffb" d="m787 648.2-19.1 1.2-2.5-59.3 19 1.4z"/><g class="st26"><path class="st27" d="M523 537.6c-1.2 2.2-2.2 4.4-2.7 6.8-.2 1.2-.3 2.4-.1 3.5.1.5.4 1 .7 1.4.3.4.8.7 1.2 1 .5.2 1 .4 1.6.5.6.1 1.1.2 1.8.3l1.8.2 1.8.1c2.4.1 4.9.1 7.4.1s4.9 0 7.4-.1c2.5 0 4.9-.1 7.4-.2l14.8-.4-.6.7.3-6.9c.1-2.3.2-4.6.4-6.9.2 2.3.3 4.6.4 6.9l.3 6.9v.6l-.6.1c-4.9.5-9.9.8-14.8 1-5 .2-9.9.4-14.9.3-2.5 0-5-.1-7.5-.3l-1.9-.2-1.9-.3c-.6-.1-1.3-.3-1.9-.4-.6-.1-1.3-.4-1.9-.7-.6-.4-1.2-.8-1.6-1.4-.4-.6-.7-1.3-.8-2-.2-1.4 0-2.7.4-3.9.7-2.5 2-4.7 3.5-6.7z"/></g><g class="st26"><path style="fill:#fe735b" d="M527.5 533.4h33.1"/><path class="st27" d="M527.5 533.4c2.8-.4 5.5-.6 8.3-.8 2.8-.2 5.5-.2 8.3-.2 2.8 0 5.5.1 8.3.2 2.8.1 5.5.4 8.3.8-2.8.4-5.5.6-8.3.8-2.8.2-5.5.2-8.3.2-2.8 0-5.5-.1-8.3-.2-2.7-.2-5.5-.4-8.3-.8z"/></g><g class="st26"><path class="st27" d="M555.5 513.3c2.3.2 4.6.7 6.8 1.5 2.2.7 4.4 1.7 6.4 2.9 1 .6 2 1.3 3 2 .9.8 1.9 1.5 2.7 2.3 1.8 1.6 3.2 3.5 4.6 5.5l-1.7.9c-1.4-2.8-3-5.5-4.7-8.2-1.7-2.7-3.4-5.3-5.4-7.7-1.9-2.5-4-4.8-6.3-6.9-2.3-2.1-5-3.8-8.1-4.7 1.6.1 3.2.6 4.6 1.3 1.5.7 2.9 1.5 4.2 2.5 2.6 1.9 4.9 4.2 7 6.7 2.1 2.5 4 5.1 5.7 7.8 1.7 2.7 3.3 5.5 4.8 8.4l-1.7.9c-1.3-1.8-2.5-3.7-4.2-5.3-.8-.8-1.6-1.5-2.5-2.3-.9-.7-1.8-1.4-2.7-2-1.9-1.3-3.9-2.4-6-3.3-2-1-4.2-1.7-6.5-2.3z"/></g><g class="st26"><path class="st27" d="m589.9 471.1 4.4 23.3c1.4 7.7 2.7 15.3 4 22.9l-1.1-.8c2-.3 4.1-.8 6.1-1.3s4-1.1 5.8-2c.9-.4 1.8-.9 2.4-1.5.3-.3.6-.6.7-.9 0-.1.1-.1.1-.2v-1c0-2-.2-4.2-.3-6.2l-1.2-12.6-1.4-12.6.1.3c-1.1-1.4-2.5-2.6-4-3.7s-3.1-2-4.8-2.7c-1.7-.7-3.5-1.1-5.4-1.3-.5 0-.9-.1-1.4-.1l-1.4.1c-.5 0-.9.1-1.4.2l-1.2.1zm0 0c1.8-.5 3.7-.9 5.6-.8 1.9 0 3.8.4 5.6 1 1.8.6 3.5 1.5 5.1 2.5 1.6 1.1 3.1 2.3 4.4 3.7l.1.1v.2l1.8 12.6c.5 4.2 1 8.4 1.4 12.6.2 2.1.4 4.2.4 6.4v1.1l-.1.3c0 .2-.1.4-.2.5-.3.7-.7 1.2-1.2 1.6-.9.9-1.9 1.4-2.9 1.9-2 .9-4.1 1.6-6.2 2.1-2.1.5-4.2 1-6.3 1.3l-.9.1-.1-.9c-1.2-7.8-2.3-15.7-3.4-23.4l-1.6-11.6-1.5-11.3z"/></g><g class="st26"><path class="st27" d="M684.2 605.8c1.6-1.6 3.2-3.1 4.9-4.6 1.6-1.5 3.3-3 5-4.5 3.3-2.9 6.7-5.8 10.2-8.7l3.6-3-2.1 4.2c-1.2 2.4-2.3 4.9-3.4 7.4s-2.1 5-3 7.6c-1 2.6-1.8 5.2-2.6 7.8-.8 2.6-1.5 5.3-2.2 7.9.2-2.7.6-5.5 1.1-8.2.5-2.7 1.2-5.4 2.1-8 .8-2.6 1.7-5.3 2.8-7.8 1-2.6 2.2-5.1 3.5-7.6l1.5 1.2c-3.4 2.8-6.9 5.6-10.5 8.3-1.8 1.4-3.5 2.7-5.3 4-1.9 1.4-3.7 2.7-5.6 4z"/></g><g class="st26"><path class="st27" d="M633.4 431.7c.2-2.3.6-4.6 1.1-6.9.5-2.3 1-4.5 1.6-6.7.6-2.2 1.3-4.4 2.1-6.6.8-2.2 1.6-4.3 2.6-6.4-.2 2.3-.6 4.6-1.1 6.9-.5 2.3-1 4.5-1.6 6.7-.6 2.2-1.3 4.4-2.1 6.6-.7 2.1-1.6 4.3-2.6 6.4z"/></g><g class="st26"><path class="st27" d="M640.8 435.4c2.3-2.6 4.7-5.1 7.2-7.6s5-4.8 7.5-7.2c2.6-2.3 5.2-4.6 7.8-6.8 2.7-2.2 5.4-4.4 8.2-6.4-2.3 2.6-4.7 5.1-7.2 7.6l-7.5 7.2c-2.6 2.3-5.2 4.6-7.8 6.8-2.6 2.2-5.3 4.4-8.2 6.4z"/></g><g class="st26"><path class="st27" d="M611 341.2c-.6 5.2-1.2 10.4-1.9 15.6-.7 5.2-1.3 10.4-2.1 15.5-1.4 10.3-2.9 20.7-4.5 31l-.2 1.3-1.2-.5c-9.7-4-19.4-8-29-12.1-4.8-2-9.6-4.1-14.4-6.2-4.8-2.1-9.6-4.2-14.4-6.4 4.9 1.8 9.8 3.7 14.7 5.5 4.9 1.9 9.8 3.8 14.6 5.7 9.8 3.8 19.5 7.8 29.2 11.7l-1.4.8c1.6-10.3 3.2-20.6 4.9-30.9.8-5.1 1.7-10.3 2.6-15.4 1.2-5.3 2.1-10.5 3.1-15.6z"/></g><g class="st26"><path class="st27" d="M616.1 343.2c.5 2.2.5 4.5.4 6.7-.2 2.3-.6 4.5-1.3 6.7-.7 2.2-1.7 4.2-3 6.1-1.3 1.9-2.9 3.5-4.8 4.8 1.3-1.9 2.5-3.7 3.4-5.6.3-.5.5-1 .7-1.5.2-.5.5-1 .6-1.5l.6-1.5.5-1.5c.7-2 1.2-4.1 1.7-6.3.4-2 .8-4.2 1.2-6.4z"/></g><path class="st21" d="M463.8 412.1c-.2 0-.4 0-.6-.1l-65.1-27.5c-.8-.3-1.1-1.2-.8-2 .3-.8 1.2-1.1 2-.8l65.1 27.5c.8.3 1.1 1.2.8 2-.3.6-.8.9-1.4.9zM455.5 474.8 395 457.4l17.4-16 43.1 6.8z"/><path d="M578.1 448.2s116.3-8.7 138.8-6.4c22.5 2.3 12.8 68.8 12.8 68.8s-.5 16.1-17.4 17c-17 .9-28.9 0-28.9 0s-12.4-2.8-14.2-11.5c-1.8-8.7.5-65.6.5-65.6l-105.2 3.2 13.6-5.5z" style="fill:#4570ad"/><path class="st27" d="M678 453.7c3.6-.4 7.3-.6 10.9-.8 3.6-.2 7.3-.2 10.9-.2 3.6 0 7.3.1 10.9.2 3.6.1 7.3.4 10.9.8-3.6.4-7.3.6-10.9.8-3.6.2-7.3.2-10.9.2-3.6 0-7.3-.1-10.9-.2-3.7-.1-7.3-.4-10.9-.8zM678 462c3.6-.4 7.3-.6 10.9-.8 3.6-.2 7.3-.2 10.9-.2 3.6 0 7.3.1 10.9.2 3.6.1 7.3.4 10.9.8-3.6.4-7.3.6-10.9.8-3.6.2-7.3.2-10.9.2-3.6 0-7.3-.1-10.9-.2-3.7-.2-7.3-.4-10.9-.8zM678 479c.5 2.8 1.3 5.5 2.6 8.1 1.2 2.5 2.8 4.9 4.7 6.8 2 1.9 4.3 3.5 6.8 4.4 2.5 1 5.3 1.5 8 1.6 2.7.1 5.5-.2 8-1.2 2.5-.9 4.8-2.5 6.7-4.6 1.8-2 3.3-4.5 4.4-7 1.1-2.6 1.9-5.3 2.4-8.2-.2 5.7-1.8 11.6-5.6 16.2-.9 1.2-2 2.2-3.2 3.1-1.2.9-2.5 1.7-3.9 2.2-2.8 1.2-5.8 1.5-8.8 1.4-2.9-.1-5.9-.7-8.7-1.8-2.7-1.2-5.3-2.9-7.2-5.1-4-4.4-6-10.2-6.2-15.9z"/><path class="st22" d="m550.9 383.1-12.8 33-66 28.4-51.4 3.7s-.9 8.3 8.3 9.2l9.2.9-12.8 8.3s-2.8 7.3 4.6 7.3h11s-6.4 4.6 5.5 10.1 20.2-8.3 29.4-10.1c9.2-1.8 75.2-18.1 75.2-18.1s16.5-.5 29.3-15.9 17.1-37.1 17.1-37.1l-46.6-19.7z"/></g></svg>