<svg version="1.1" id="Layer_1" xmlns="http://www.w3.org/2000/svg" xmlns:xlink="http://www.w3.org/1999/xlink" x="0" y="0" viewBox="0 0 1000 708.54" style="enable-background:new 0 0 1000 708.54" xml:space="preserve"><style>.st4{opacity:.36;fill:#fff}.st6{fill:#fababb}.st9{fill:#e6e7e8}.st12{fill:#f1f2f2}.st13{fill:#4570ad}.st13,.st14{opacity:.74}.st15{fill:#4570ad}.st17{fill:#ff4b52}.st18{opacity:.57;fill:#fababb}.st21{fill:#6055c6}.st26{fill:#f9f7f9}</style><ellipse cx="500.82" cy="354.79" rx="485.77" ry="347.26" style="opacity:.4;fill:#895ecc"/><ellipse cx="500.82" cy="354.79" rx="467.67" ry="334.31" style="opacity:.68;fill:#895ecc"/><defs><ellipse id="SVGID_1_" cx="502.21" cy="354.79" rx="433.55" ry="311.25"/></defs><clipPath id="SVGID_2_"><use xlink:href="#SVGID_1_" style="overflow:visible"/></clipPath><g style="clip-path:url(#SVGID_2_)"><path style="opacity:.61;fill:#f1f2f2" d="M.59 32.19h971.88v431.17H.59z"/><path class="st4" d="M618.54 26.91 171.66 458.5H85.53v-56.67L468.95 26.91zM879.54 46.42l-446.88 431.6h-86.14v-56.67L729.95 46.42zM342.09-37.05-16.95 318.96l-75.92 11.3-4.58-39.04L210.22-17.42zM391.8 5.9-9.46 417.99l10.05 28L406.01 15.9zM1054.97 28.91 653.71 440.99 663.76 469l405.42-430.09z"/><path style="opacity:.47;fill:#ebe0fb" d="M11.84 301.26h962.01v158.46H11.84z"/><ellipse transform="rotate(-78.89 463.686 286.606)" class="st6" cx="463.72" cy="286.62" rx="39.6" ry="31.35"/><path d="M445.68 257.41s-.61 16.01 8.19 18.21-4.43 12.08 10.84 16.5c15.28 4.42 33.32.05 25.24 6.96s-5.42 15.91-5.42 15.91.48 16.73 10.21 24.42c0 0 32.82 0 43.82 36.3s17.6 60.1 17.6 60.1 29.7-23.8-5.5-61.2c0 0-11-18.6-3.3-28s8.8-11.6-9.9-26.99-5.5-52.79-5.5-52.79-2.2-27.5-35.2-33-26.4 8.8-26.4 8.8-23.1-11-41.8 17.6c0 0 .68 14.34-8.18 24.19-5.17 5.75-7.04 13.75-4.89 21.18 3.33 11.56 6.87 26.16 4.27 28.59-4.4 4.13-22 20.63-2.2 47.57 0 0 12.1-55.54 37.4-41.25l2.11-15.04s-28.56-13.01-24.05-34.52c4.53-21.5 12.66-33.54 12.66-33.54z" style="fill:#242c3f"/><path class="st6" d="M483.04 307.46s.93 24.15 14.74 30.7l-11.52 24.47s-1.69 16.55-22.37 10.34-21.43-18.62-21.43-18.62v-7.59l10.43-7.47 2.39-15.58 27.76-16.25z"/><path d="M454.93 339.14s-1.19 19.46 6.8 21.23c7.99 1.78 28.24 5.44 27.65-15.54l-1.94 115.85h-73.21s7.1-80.79 19.97-98.98c12.88-18.19 20.73-22.56 20.73-22.56z" style="fill:#fefeff"/><path class="st9" d="M25.16 460.69h943.33v51.93H25.16z"/><path style="fill:#913c0c" d="M23.08 512.62h949.39v51.93H23.08z"/><path style="fill:#491d09" d="M23.08 564.56h950.77v61.85H23.08z"/><path class="st9" d="M575.43 347.29h96.99v112.06h-96.99z"/><path class="st12" d="M575.43 327.98h96.99v19.31h-96.99z"/><path transform="rotate(-180 610.25 387.032)" class="st13" d="M597.51 367.39h25.48v39.29h-25.48z"/><path transform="rotate(-180 648.59 387.032)" class="st13" d="M635.85 367.39h25.48v39.29h-25.48z"/><path transform="rotate(-180 608.447 433.013)" class="st13" d="M595.71 413.37h25.48v39.29h-25.48z"/><path transform="rotate(-180 646.788 433.013)" class="st13" d="M634.05 413.37h25.48v39.29h-25.48z"/><g class="st14"><path class="st15" d="M582.86 332.84h5.99v12.69h-5.99zM594.85 332.84h5.99v12.69h-5.99zM606.83 332.84h5.99v12.69h-5.99zM618.81 332.84h5.99v12.69h-5.99zM630.8 332.84h5.99v12.69h-5.99zM642.78 332.84h5.99v12.69h-5.99z"/></g><path class="st9" d="M850.77 348.63h117.72v112.06H850.77z"/><path class="st12" d="M850.77 329.32h117.72v19.95H850.77z"/><path transform="rotate(-180 921.397 388.374)" class="st13" d="M908.66 368.73h25.48v39.29h-25.48z"/><path transform="rotate(-180 959.739 388.374)" class="st13" d="M947 368.73h25.48v39.29H947z"/><path transform="rotate(-180 919.595 434.355)" class="st13" d="M906.86 414.71h25.48V454h-25.48z"/><path transform="rotate(-180 957.936 434.355)" class="st13" d="M945.2 414.71h25.48V454H945.2z"/><g class="st14"><path class="st15" d="M899.82 334.18h5.99v12.69h-5.99zM911.8 334.18h5.99v12.69h-5.99zM923.78 334.18h5.99v12.69h-5.99zM935.77 334.18h5.99v12.69h-5.99zM947.75 334.18h5.99v12.69h-5.99zM959.74 334.18h5.99v12.69h-5.99z"/></g><path class="st13" d="M682.98 357.28H877.4v103.41H682.98zM670.55 297.8h219.27v51.47H670.55z"/><path class="st12" d="M670.55 348.63h219.27v9.52H670.55zM697.14 358.16h21.35V460.7h-21.35zM745.99 358.16h21.35V460.7h-21.35zM793.04 358.16h21.35V460.7h-21.35zM840.09 358.16h21.35V460.7h-21.35z"/><path class="st13" d="m736.82 248.08 40.76-24.72a2.13 2.13 0 0 1 2.23 0l46.67 28.27 67.56 42.03c1.86 1.16 1.01 4.03-1.18 3.98l-114.54-2.37-114.37 2.37c-2.19.05-3.04-2.84-1.17-3.99l74.04-45.57z"/><path class="st12" d="m741.72 254.4 37.55-22.82c.67-.41 1.5-.41 2.17 0l42.94 26.02 61.91 38.52c1.81 1.12.98 3.92-1.15 3.88l-105.2-2.07-105.04 2.29c-2.13.05-2.96-2.76-1.14-3.88l67.96-41.94z"/><path style="opacity:.57;fill:none;stroke:#48487c;stroke-width:3;stroke-miterlimit:10" d="m779.84 227.2.35-65.24"/><path class="st17" d="M782.71 164.33s11.24-.89 12.43 11.54c0 0 .89 5.33 5.62 9.77 4.73 4.44 2.96 32.25 2.96 32.25s-9.81-1.78-10.68-10.95c-.87-9.17-10.33-2.37-10.33-2.37v-40.24z"/><path class="st12" d="M634.29 32.19h24.51v427.16h-24.51zM151.18 28.45h23.16v428.51h-23.16z"/><ellipse class="st6" cx="172.97" cy="316.43" rx="29.74" ry="41.72"/><ellipse class="st18" cx="186.53" cy="327.98" rx="7.28" ry="10.21"/><path d="m143.23 340.53-8.88 41.22 59.46 4.47s-15.87-27.23-14.55-36.94l-36.03-8.75z" style="fill:#fbbbbc"/><path class="st15" d="m214.25 570.33 69.24 20.42s38.17 21.31 23.97 35.67H172.97v-61.85l41.28 5.76z"/><path class="st18" d="m326.11 413.37 9.77-14.51 11.54-10.49s10.65-7.14 4.44 5.29l-6.21 12.43s12.43-8.05 20.42-6.24l17.76-11.48s15.09.59 3.55 10.49-15.18 19.14-28.45 15.85l-16.82 14.47-16-15.81z"/><ellipse transform="rotate(-78.89 486.44 297.794)" class="st6" cx="486.48" cy="297.8" rx="8.34" ry="6.6"/><path d="M288.36 455.25h-3.52c-6.6 0-12-5.4-12-12v-70.64c0-6.6 5.4-12 12-12h3.52c6.6 0 12 5.4 12 12v70.64c0 6.6-5.4 12-12 12z" style="opacity:.4;fill:#fff"/><path class="st21" d="M454.65 335.7s-21.31 1.13-28.63 19.64-10.36 46.76-14.36 59.19c-3.99 12.43-8.43 35.07-18.2 35.51-9.77.44-52.38 9.77-52.38 9.77l83 2.22s-2.66-70.13 9.32-94.99 21.24-22.19 21.24-22.19v-9.15z"/><path class="st6" d="M451.81 455.53c-2.28.6-23.79-7.15-23.79-7.15s-8.54-4.69-18.83 7.18-5.73 5.32-5.73 5.32l48.35 1.79v-7.14z"/><path d="M143.23 271.16s-22.19-4.76-17.75 36.68c4.44 41.44 33.7 45.56 33.7 45.56s31.06-7.99 34.63-45.56c0 0 30.21-23.7 8.9-36.85-21.31-13.15-46.16-8.76-46.16-8.76s-6 8.04-13.32 8.93z" style="fill:#324476"/><path class="st17" d="M102.93 374.37c9.72-4.03 75.94-11.63 107.39 7.38 0 0 18.14 11.91 27.01 40.32l37.29 64.58 51.49-73.29 21.31 14.88-46.16 95.03s-13.32 27.96-34.62 15.31c-21.31-12.65-41.46-47.41-41.46-47.41l-5.59 86.25s-14.95 29.3-40.32 27.52c-25.37-1.78-90.18 8.43-121.25-15.98-31.07-24.41 0-128.27 0-128.27s14.37-73.66 44.91-86.32z"/><g><path d="M249.96 626.93c-4.34-28.28-14.89-48.29-31.35-59.46-20.95-14.21-44.64-8.98-44.88-8.93l-1.54-6.6c1.08-.25 26.69-5.99 50.13 9.86 18.14 12.26 29.69 33.83 34.33 64.1l-6.69 1.03z" style="fill:#414042"/></g><path class="st12" d="M176.82 626.41H23.08V473.95c0-4.14 3.35-7.49 7.49-7.49h138.75c4.14 0 7.49 3.35 7.49 7.49v152.46z"/><g><path d="M600.5 479.49c-1.07 0-1.94-.87-1.94-1.94V309.77c0-1.07.87-1.94 1.94-1.94s1.94.87 1.94 1.94v167.78c0 1.08-.87 1.94-1.94 1.94z" style="fill:#bcbec0"/><ellipse cx="601.42" cy="485.34" rx="22.09" ry="5.84" style="fill:#e8e8e8"/><ellipse class="st26" cx="601.42" cy="483.4" rx="22.09" ry="5.84"/><ellipse class="st12" cx="600.5" cy="482.14" rx="16.31" ry="3.07"/><ellipse class="st26" cx="600.5" cy="479.07" rx="16.31" ry="3.07"/></g><path d="M600.5 321.76s43.44 61.7 58.3 71.91l-45.51 57.02-37.86-41.7s-6.52-13.79-1.64-22.77 26.71-64.46 26.71-64.46z" style="fill:#feac02"/><path d="M162.76 642.96H23.08V480.91h98.4c22.79 0 41.27 18.48 41.27 41.27v120.78z" style="opacity:.38;fill:#d1d3d4"/><path style="fill:#140803" d="M.59 626.93h967.89v55.1H.59z"/><path class="st21" d="M490.12 338.18s-25.94 37.29-23.4 70.58c2.54 33.29 0 45.72 0 45.72h-18.99v7.55h117.85l-26.66-91.09s-11.13-27.63-42.17-31.52l-6.63-1.24z"/></g></svg>