<svg version="1.1" id="Layer_1" xmlns="http://www.w3.org/2000/svg" x="0" y="0" viewBox="0 0 577.88 648.87" style="enable-background:new 0 0 577.88 648.87" xml:space="preserve"><style>.st1{opacity:.74;fill:#c897f2}.st3{fill:#2e2a29}.st4{fill:#fff}.st6{fill:#e3c2f9}.st9{fill:#ffaa01}.st11{fill:#e98293}</style><path d="M142.12 628.34S-7.79 552.05 37.34 456.02s4.69-137.98-4.32-154.03c-9-16.05-62.35-67.15 29.06-165.83 0 0 54.07-41.99 59.43-85.66 5.36-43.67 23.34-70.25 104.44-32.28s111.8 37.03 156.01 23.73 80.86-32.28 86.97 37.97c6.11 70.25-14.9 139.53 55.35 223.16s79.8 158.55-22.01 216.46c0 0-131.37 48.81-179.99 93.64-49.65 45.78-180.16 15.16-180.16 15.16z" style="opacity:.5;fill:#c897f2"/><path class="st1" d="M156.48 633.89s-135.05-73.7-94.39-166.48S66.31 334.1 58.2 318.6c-8.11-15.51-78.74-90.72 17.57-169.6 0 0 58.22-31.18 63.05-73.38s20.13-67.87 93.19-31.18S332.72 80.2 372.55 67.36s72.85-31.18 78.35 36.69-3.67 133.74 59.62 214.54 54.11 143.17-37.61 199.12c0 0-113.82 54.49-154.13 101.54s-162.3 14.64-162.3 14.64z"/><ellipse cx="272.38" cy="635.63" rx="281.12" ry="13.24" style="fill:#939598"/><path class="st3" d="M410.42 629.61H129.38c-14.71 0-26.64-11.93-26.64-26.64V130.69c0-14.71 11.93-26.64 26.64-26.64h281.04c14.71 0 26.64 11.93 26.64 26.64v472.27c0 14.72-11.93 26.65-26.64 26.65z"/><path class="st4" d="M407.79 580.08h-272.4c-6.08 0-11.01-4.93-11.01-11.01V141.2H418.8v427.87c0 6.08-4.93 11.01-11.01 11.01z"/><path style="opacity:.75;fill:#8922e1" d="M124.38 141.2H418.8v24.76H124.38z"/><path class="st1" d="M146.39 185.22h247.64v94.93H146.39z"/><path class="st6" d="M362.74 361.64H177c-2.09 0-3.78-1.69-3.78-3.78s1.69-3.78 3.78-3.78h185.73c2.09 0 3.78 1.69 3.78 3.78a3.768 3.768 0 0 1-3.77 3.78zM362.74 375.83H177c-2.09 0-3.78-1.69-3.78-3.78s1.69-3.78 3.78-3.78h185.73c2.09 0 3.78 1.69 3.78 3.78a3.768 3.768 0 0 1-3.77 3.78zM362.74 390.02H177c-2.09 0-3.78-1.69-3.78-3.78s1.69-3.78 3.78-3.78h185.73c2.09 0 3.78 1.69 3.78 3.78a3.762 3.762 0 0 1-3.77 3.78zM362.74 404.21H177c-2.09 0-3.78-1.69-3.78-3.78s1.69-3.78 3.78-3.78h185.73c2.09 0 3.78 1.69 3.78 3.78a3.762 3.762 0 0 1-3.77 3.78zM362.74 418.4H177c-2.09 0-3.78-1.69-3.78-3.78s1.69-3.78 3.78-3.78h185.73c2.09 0 3.78 1.69 3.78 3.78a3.762 3.762 0 0 1-3.77 3.78zM362.74 432.59H177c-2.09 0-3.78-1.69-3.78-3.78s1.69-3.78 3.78-3.78h185.73c2.09 0 3.78 1.69 3.78 3.78a3.762 3.762 0 0 1-3.77 3.78z"/><path d="M362.74 442.18H177c-2.09 0-3.78-1.69-3.78-3.78s1.69-3.78 3.78-3.78h185.73c2.09 0 3.78 1.69 3.78 3.78a3.762 3.762 0 0 1-3.77 3.78z" style="fill:none;stroke:#fff;stroke-miterlimit:10"/><path d="M360.51 504.66H176.84c-6.65 0-12.04-5.39-12.04-12.04v-23.39c0-6.65 5.39-12.04 12.04-12.04h183.67c6.65 0 12.04 5.39 12.04 12.04v23.39c0 6.65-5.39 12.04-12.04 12.04z" style="fill:#fa525f"/><g><path class="st9" d="m195.33 307.92 3.47 7.02 7.75 1.13-5.61 5.47 1.32 7.72-6.93-3.65-6.94 3.65 1.33-7.72-5.61-5.47 7.75-1.13zM230.38 307.92l3.46 7.02 7.76 1.13-5.61 5.47 1.32 7.72-6.93-3.65-6.94 3.65 1.33-7.72-5.61-5.47 7.75-1.13zM265.42 307.92l3.47 7.02 7.75 1.13-5.61 5.47 1.33 7.72-6.94-3.65-6.93 3.65 1.32-7.72-5.61-5.47 7.76-1.13zM300.47 307.92l3.47 7.02 7.75 1.13-5.61 5.47 1.33 7.72-6.94-3.65-6.93 3.65 1.32-7.72-5.61-5.47 7.75-1.13zM335.52 307.92l3.46 7.02 7.76 1.13-5.61 5.47 1.32 7.72-6.93-3.65-6.94 3.65 1.33-7.72-5.61-5.47 7.75-1.13z"/></g><g><path class="st4" d="M218.58 467.4h10.29c5.8 0 8.37 3.07 8.37 6.73 0 3.33-1.82 4.75-3.23 5.35 1.95.81 4.14 2.74 4.14 6.39 0 5.1-3.84 8.01-9.47 8.01h-10.1V467.4zm9.36 10.42c2.78 0 4.07-.88 4.07-3.13 0-2.19-1.49-3.17-3.79-3.17h-4.34v6.3h4.06zm-4.07 11.99h4.41c2.45 0 4.37-1.18 4.37-3.92 0-2.58-1.51-3.98-4.77-3.98h-4v7.9zM264.99 480.52c0 7.62-3.68 13.75-12.03 13.75-8.17 0-11.66-6.29-11.66-13.81 0-6.52 3.57-13.41 12.03-13.41 8.01 0 11.66 6.34 11.66 13.47zm-18.1-.04c0 5.29 2.11 9.5 6.3 9.5 4.61 0 6.27-3.91 6.27-9.45 0-4.88-1.64-9.18-6.36-9.18-4.38 0-6.21 4.04-6.21 9.13zM292.27 480.52c0 7.62-3.68 13.75-12.03 13.75-8.17 0-11.66-6.29-11.66-13.81 0-6.52 3.57-13.41 12.03-13.41 8.01 0 11.66 6.34 11.66 13.47zm-18.1-.04c0 5.29 2.11 9.5 6.3 9.5 4.6 0 6.26-3.91 6.26-9.45 0-4.88-1.64-9.18-6.36-9.18-4.37 0-6.2 4.04-6.2 9.13zM296.98 467.4h5.3v12.22c2.82-3.62 6.78-8.67 9.51-12.22h6.44l-9.03 10.67 9.58 15.81h-6.44l-6.84-12.25-3.18 3.52v8.73h-5.33V467.4z"/></g><path d="M334.02 126.41H214.67a4.3 4.3 0 1 1 0-8.6h119.35a4.3 4.3 0 0 1 4.3 4.3c0 2.37-1.93 4.3-4.3 4.3z" style="fill:#58595b"/><g><path class="st11" d="m28.99 620.13 1.53 14.37s14.5 3.97 12.91 0c-1.59-3.97-1.61-16.82-1.61-16.82l-12.83 2.45z"/><path class="st3" d="M28.16 629.61h15.27s5.13 5.06 12.2 6.66c0 0 5.77 4.04 0 6.18H28.16v-12.84z"/><path class="st11" d="m75.77 619.52 2.75 14.37 10.8-1.53s.51-12.23-1.94-12.84-11.61 0-11.61 0z"/><path class="st3" d="M76.65 629.13h15.27s5.13 5.06 12.2 6.66c0 0 5.77 4.04 0 6.18H76.65v-12.84z"/><ellipse transform="rotate(-12.773 53.21 386.211)" class="st11" cx="53.21" cy="386.24" rx="10.09" ry="14.19"/><path d="M41.52 391.4s6.12-5.19 4.9-10.36 11.31 1.22 17.43-1.53 4.89-9.48 4.89-9.48-8.73.42-15.52-1.78-14.75-.4-15.97 7.57c-1.23 7.98 4.27 15.58 4.27 15.58z" style="fill:#222"/><path class="st11" d="M45.97 391.4v19.43s11.15 10.57 14.21 5.67 1.53-11.91 1.53-11.91l-3.67-1.85.61-7.64-12.68-3.7z"/><path d="m23.79 494.27 2.45 128.3h17.19l11.2-110.37s10.94 34.55 14.2 41.27c3.26 6.73 0 1.53 0 1.53l4.79 67.57h15.29v-66.65s2.14-21.1-3.36-36.08l-9.78-31.49c0 .01-15.59 12.76-51.98 5.92z" style="fill:#3a71b4"/><path d="M227.88 481.9s-79.35 75.55-80.27 75.55c-.91 0-13.45-36.99-13.45-36.99L7.28 551.34l-3.47-15.03L0 519.84l128.66-29.86-11.62-39.54 110.65 31.4.19.06z" style="fill:#f1f2f2"/><path class="st4" d="M227.69 481.84 3.81 536.31 0 519.84l128.66-29.86-11.62-39.54z"/><ellipse transform="rotate(-12.773 43.421 388.43)" class="st11" cx="43.42" cy="388.46" rx="3.06" ry="4.3"/><path class="st11" d="M78.52 438.4s12.84 19.99 27.21 27.03l14.37 9.24s7.34 10.53 18.34 6c0 0 2.75-5.2-6.73-9.15s-7.34-2.42-7.34-2.42-4.28-3.01-10.39-9c-6.11-5.98-14.06-15.77-14.06-15.77L88.3 428.81l-9.78 9.59z"/><g><path class="st9" d="M44.58 404.21s3.6 8.94 9.44 8.32c5.84-.61 4.01-9.78 4.01-9.78s9.17-3.06 15.29 3.36c6.11 6.42 18.34 24.46 18.34 24.46l-12.54 10.09s-2.14-1.22-1.22 3.97-.31 48-.31 48-18.65 18.96-55.03 3.06l1.83-70.67c.01.01.63-15.07 20.19-20.81z"/><path d="M23.79 452.04h23.85V427.7c0-5.67-3.29-10.95-8.55-13.07-3.61-1.46-8.01-1.37-12.49 3.18 0 0-3.61 7.41-2.44 16.82l-.37 17.41z" style="opacity:.42;fill:#e29205"/></g><path d="M28.99 452.04h14.43s-3.71 40.49 2.54 52.62l6.98 9.69s3.78 9.17 0 11.92c-.96.7-2.04 1.16-3.12 1.46-2.97.83-5.91-1.49-5.74-4.57.12-2.11.02-4.56-.67-6.67-1.59-4.89-4.65-6.42-4.65-6.42s-6.11-20.28-7.03-29.4-2.74-28.63-2.74-28.63z" style="fill:#e4828f"/></g></svg>