<svg version="1.1" id="Layer_1" xmlns="http://www.w3.org/2000/svg" x="0" y="0" viewBox="0 0 931.41 697.53" style="enable-background:new 0 0 931.41 697.53" xml:space="preserve"><style>.st0{fill:#cbb8f1}.st3{fill:#fff}.st5{fill:#3f3f47}.st8{fill:#8d6b9b}.st13{fill:#f7b686}.st15{fill:#4570ad}.st16{fill:#1f296a}.st17{fill:#aaf9fe}.st21{fill:#ffac00}.st22{opacity:.15;fill:#f1f2f2}.st27{fill:#231f20}.st30{opacity:.78}.st31{opacity:.32;fill:#fff}.st32{fill:none;stroke:#fff;stroke-width:2;stroke-miterlimit:10}</style><path class="st0" d="M160.28 510.28S-60.09 465.47 31.73 310.43c19.3-32.6 48.07-58.43 81.95-75.38 30.25-15.13 69.91-44.02 67.22-90.68-2.62-45.53 19.23-89.32 58.77-112.05C287.36 4.9 354.9-5.69 431.23 66.3c0 0 59.75 58.99 116.99 8.78 57.24-50.22 254.08-79.41 282.86 65.84s-38.5 152.15-35.94 192.44 52.06 90.73 62.42 116.16c10.36 25.43 12.28 51.91-38.75 69.75-51.03 17.84-654.88 21.56-654.88 21.56l-3.65-30.55z"/><ellipse transform="rotate(-52.244 138.414 179.114)" class="st0" cx="138.42" cy="179.11" rx="47.77" ry="19.36"/><ellipse class="st0" cx="492.46" cy="52.2" rx="40.74" ry="31.94"/><ellipse class="st0" cx="855.9" cy="329.02" rx="35.21" ry="74.22"/><ellipse class="st0" cx="485.9" cy="575.99" rx="439.72" ry="109.61"/><path style="fill:#484849" d="m326.64 469.02-6.74 74.75 102.27 7.45-3.48-79.56z"/><path d="m570.57 485.26-412.94-11.83c-10.89-.31-19.46-9.39-19.15-20.28l6.14-214.34c.31-10.89 9.39-19.46 20.28-19.15l412.94 11.83c10.89.31 19.46 9.39 19.15 20.28l-6.14 214.34c-.31 10.89-9.39 19.46-20.28 19.15z" style="fill:#2d2d2d"/><path class="st3" d="m570.08 467.21-409.71-11.74c-5.61-.16-10.02-4.84-9.86-10.45l5.79-201.88c.16-5.61 4.84-10.02 10.45-9.86l409.71 11.74c5.61.16 10.02 4.84 9.86 10.45l-5.79 201.88c-.16 5.61-4.84 10.02-10.45 9.86z"/><path d="m319.03 533.11 103.65 4.51c15.43.67 27.6 13.38 27.6 28.83l-158.85-6.91c0-15.06 12.55-27.08 27.6-26.43z" style="fill:#1d1d1e"/><path class="st3" d="M304.02 549.77c.28-1.33.95-2.55 1.75-3.65.85-1.07 1.86-2.03 2.99-2.81 2.26-1.6 4.92-2.54 7.6-3.11 1.34-.34 2.71-.42 4.08-.59 1.37-.1 2.74-.11 4.11-.13l4.07.2 4.04.1c10.78.27 21.54.69 32.31 1.14 10.76.49 21.52 1.02 32.27 1.69 10.75.64 21.5 1.44 32.25 2.4-10.79.01-21.57-.13-32.35-.44-10.78-.27-21.56-.69-32.33-1.15-10.77-.5-21.54-1.03-32.29-1.7-2.7-.16-5.38-.32-8.03-.61-1.32-.04-2.65-.1-3.97-.07-1.32.09-2.64.11-3.94.36-2.6.37-5.2 1.08-7.45 2.46-2.23 1.36-4.25 3.32-5.11 5.91z"/><path class="st5" d="M807.32 599.37H650.24c-4.94 0-8.94-4-8.94-8.94V224.99c0-4.94 4-8.94 8.94-8.94h157.08c4.94 0 8.94 4 8.94 8.94v365.43c.01 4.94-4 8.95-8.94 8.95z"/><path style="fill:#c68960" d="M657.41 227.46h147.34V579.7H657.41z"/><path class="st5" d="M780.03 254.79H672.07a5.16 5.16 0 0 1-5.16-5.16V247a5.16 5.16 0 0 1 5.16-5.16h107.96a5.16 5.16 0 0 1 5.16 5.16v2.63a5.16 5.16 0 0 1-5.16 5.16zM786.69 268.9H666.84c-1.39 0-2.52-1.13-2.52-2.52v-1.29c0-1.39 1.13-2.52 2.52-2.52h119.85c1.39 0 2.52 1.13 2.52 2.52v1.29a2.51 2.51 0 0 1-2.52 2.52z"/><circle class="st5" cx="728.76" cy="555.53" r="10.91"/><circle cx="782.25" cy="280.81" r="3.83" style="fill:#414042"/><path class="st5" d="M796.12 393.47H671.23c-1.73 0-3.14-1.4-3.14-3.14 0-1.73 1.4-3.14 3.14-3.14h124.89c1.73 0 3.14 1.4 3.14 3.14 0 1.74-1.41 3.14-3.14 3.14zM796.12 445.33H671.23c-1.73 0-3.14-1.4-3.14-3.14 0-1.73 1.4-3.14 3.14-3.14h124.89a3.139 3.139 0 1 1 0 6.28zM796.39 497.18h-122.6c-1.73 0-3.14-1.4-3.14-3.14 0-1.73 1.4-3.14 3.14-3.14h122.59c1.73 0 3.14 1.4 3.14 3.14 0 1.73-1.4 3.14-3.13 3.14z"/><g><path class="st8" d="m491.5 593.61-55.1-83.49 59.27-19.22 14.11 34.69z"/><path class="st8" d="M699.48 533.09 621.2 483l-128.74 11.04 12.48 40.14z"/><path d="M689.23 599.37H499.71c-5.79 0-10.48-4.69-10.48-10.48v-52.82c0-5.79 4.69-10.48 10.48-10.48h189.52c5.79 0 10.48 4.69 10.48 10.48v52.82c0 5.79-4.69 10.48-10.48 10.48z" style="fill:#8a48a8"/><circle cx="602.71" cy="562.48" r="26.13" style="opacity:.64;fill:#1d1d1e"/><circle cx="620.6" cy="566.45" r="21.82" style="fill:#7698f4"/><path d="M522.14 592.36h-5.73c-6.21 0-11.24-5.03-11.24-11.24v-36.8c0-6.21 5.03-11.24 11.24-11.24h5.73c6.21 0 11.24 5.03 11.24 11.24v36.8c-.01 6.21-5.04 11.24-11.24 11.24z" style="opacity:.37;fill:#fff"/></g><g><path class="st13" d="m726.01 421.72-18.45 23.3-8.08-9.93 14.94-20.17zM758.06 607.71h8.59v11.51h-8.59z"/><path class="st5" d="M768.5 615.09h-12.66s-18.13 0-18.99 11.8h31.66v-11.8z"/><path class="st13" d="m809.74 602.72 2.69 16.5 9.59-5.76-4.22-12.28z"/><path class="st5" d="M811.49 613.46s11.42-.61 9.27-5.76c0 0 10.18 13.72 9.02 22.93s-8.92 11.22-12.37 6.62-5.92-23.79-5.92-23.79z"/><ellipse transform="rotate(-82.866 760.533 364.742)" class="st13" cx="760.58" cy="364.75" rx="17.05" ry="11.65"/><path class="st5" d="M760.58 356.34s-16.26-2.26-8.2-13.19c0 0 12.93-6.99 26.03 4.56 0 0-.83 2.83 3.83 8.63 4.67 5.8-11.16 19.46-11.16 19.46s-5.12-15.24-4.43-16.75c.69-1.52-6.07-2.71-6.07-2.71z"/><path class="st13" d="M754.3 372.15v22.57s12.18 1.6 18.04 0l-1.84-27.01-16.2 4.44z"/><path d="m735.09 479.65 20.74 130.74h15.16s-11.5-99.38-6.9-96.31c4.6 3.07 44.51 91.7 44.51 91.7l13.43-3.84-44.16-122.3h-42.78z" style="fill:#d6414c"/><ellipse transform="rotate(-66.273 770.814 364.965)" class="st13" cx="770.81" cy="364.98" rx="4.19" ry="2.86"/><path class="st15" d="M754.11 387.2s1.73 8.82 9.98 8.22c8.25-.6 8.25-5.24 8.25-5.24s7.47-2.55 16.87 1.59c9.4 4.13 17.07 17.41 12.47 29.96s-13.41 34.46-29.35 39.62l6.07 20.12-44.73 1.53s-3.74-41.37-2.59-51.19v-16.24l-4.32 6.15-13.7-6.15s6.51-19.24 11.11-23.8c4.6-4.57 15.49-5.23 15.49-5.23l14.45.66z"/><path class="st13" d="m760.58 451.63 11.76 11.03s-22.84 7.68-34.35 4.22c-11.51-3.45-5.65-2.8-5.65-2.8s-9.5 1.62-8.63-3.94c.86-5.56-4.77-2.76-4.77-2.76s-6.27-8.92 1.5-7.77c7.77 1.15 14.92 1.15 14.65 6.04 0 0 .02 3.38 2.04 2.99s16.4-.7 23.45-7.01z"/></g><g><path class="st16" d="M691.37 148.03h39.71l5.76 5.76v-8.63s-15.54-2.88-15.54-9.78 2.3-56.4 2.3-56.4 30.71-6.91 48.74-2.3c0 0 11.69 1.73 12.85 9.21s.89 49.5.89 49.5l-3.83 5.55s19.63 3.08 22.51 12.87l-1.7 59.28s-2.91 6.91-10.39 9.21h-51.22s-10.94-2.3-10.36-8.63c.58-6.33 0-14.96 0-14.96l-4.32 5.18-35.4-1.73v-54.13z"/><path class="st17" d="M728.78 84.14h25.52v52.38h-27.53z"/><path class="st16" d="M619.08 126.73s63.08 5.92 72.87 14.18c9.78 8.26 7.48 55.36 0 65.24-7.48 9.89-56.03 21.3-69.74 21.3-13.72.01-3.13-100.72-3.13-100.72z"/><ellipse cx="619.08" cy="177.16" rx="16.98" ry="50.43" style="fill:#161f47"/><ellipse class="st17" cx="619.28" cy="179.11" rx="9.84" ry="38.19"/></g><g><path style="fill:#a93981" d="M191.55 564.13h256.7v31.13h-256.7z"/><path style="fill:#63358b" d="m191.55 564.13-4.94-54.01h242.88l18.75 54.01z"/><circle class="st21" cx="429.49" cy="575.99" r="4.88"/></g><g><path class="st15" d="M155.34 537.83c2.2-8.52 14.67-46.01 57.75-16.26l33.96-.58s27.86-22.55 50.67.29c3.97 3.98 6.48 9.2 7.14 14.78l6.1 51.58c.49 4.11-.5 8.28-2.92 11.63-3.48 4.82-9.98 9.88-21.27 6.89 0 0-14.96-6.8-28.78-31.66l-51.8-1.73s-19.57 31.08-31.08 34.28c0 0-8.84 2.09-16.11-.45-5-1.75-8.09-6.79-7.74-12.08l3.61-53.71c.06-1 .22-2 .47-2.98z"/><circle class="st22" cx="186.61" cy="542.26" r="22.99"/><circle class="st22" cx="272.54" cy="542.26" r="22.99"/><circle cx="272.54" cy="532.24" r="4.62" style="fill:#e99d52"/><circle cx="263.31" cy="542.26" r="4.62" style="fill:#7c0aa3"/><circle cx="283.03" cy="542.26" r="4.62" style="fill:#d142a2"/><circle cx="273.79" cy="551.87" r="4.62" style="fill:#4aaaf9"/><path class="st27" d="M199.27 546.15h-25.32c-1.39 0-2.51-1.12-2.51-2.51s1.12-2.51 2.51-2.51h25.32c1.39 0 2.51 1.12 2.51 2.51s-1.12 2.51-2.51 2.51z"/><path class="st27" d="M186.61 559c-1.39 0-2.51-1.12-2.51-2.51V530.2c0-1.39 1.12-2.51 2.51-2.51s2.51 1.12 2.51 2.51v26.29c0 1.38-1.12 2.51-2.51 2.51z"/><g><path d="M238.99 536.06h-20.14c-1.04 0-1.88-.84-1.88-1.88s.84-1.88 1.88-1.88h20.14c1.04 0 1.88.84 1.88 1.88s-.84 1.88-1.88 1.88z" style="fill:#3a3839"/></g></g><g><path class="st21" d="m407.62 324.15 256.7-27.63s24.73-6.91 35.39 27.63c10.66 34.53 18.14 150.8 18.14 150.8s7.77 22.23-18.14 22.23-270.21 35.91-270.21 35.91-18.42 7.47-21.87-16.7c-3.45-24.17 0-6.27 0-6.27L386.9 350.24s-4.43-23.38 20.72-26.09z"/><path d="M398.41 358.68s-2.3-19.57 14.96-19.57c17.27 0 244.03-28.78 244.03-28.78s24.17 1.15 32.23 29.93 19.57 128.76 19.57 128.76-3.45 21.88-16.12 21.88c-12.66 0-250.94 25.48-250.94 25.48s-27.63 9.94-28.78-19.2c-1.13-29.14-14.95-138.5-14.95-138.5z" style="fill:#ff4d53"/><path class="st3" d="m481.52 360.14 8.37-1.09 5.79 44.43-8.37 1.09-5.79-44.43zm3.05-.4 26.12-3.4 1.05 8.07-26.12 3.4-1.05-8.07zm2.44 18.73 22.76-2.96 1.05 8.07-22.76 2.96-1.05-8.07zM528.88 397.55c-2.63-1.04-4.78-2.7-6.45-5s-2.71-5.08-3.14-8.34l-1.64-12.59c-.43-3.26-.13-6.21.9-8.86 1.02-2.65 2.67-4.81 4.95-6.49 2.28-1.67 5.03-2.72 8.25-3.14 3.22-.42 6.14-.11 8.77.92 2.63 1.04 4.78 2.7 6.45 5s2.71 5.08 3.14 8.34l1.64 12.59c.42 3.26.12 6.21-.9 8.86a14.264 14.264 0 0 1-4.95 6.49c-2.28 1.67-5.03 2.72-8.24 3.14-3.23.42-6.15.11-8.78-.92zm11.53-8.93c1.06-.79 1.82-1.82 2.29-3.08s.6-2.67.4-4.22l-1.7-13.02c-.2-1.55-.69-2.87-1.47-3.97-.77-1.1-1.77-1.9-3-2.39s-2.59-.64-4.1-.45c-1.51.2-2.79.69-3.85 1.48s-1.82 1.82-2.29 3.08-.6 2.67-.4 4.22l1.7 13.02c.2 1.55.69 2.87 1.46 3.97s1.77 1.9 3 2.39c1.22.49 2.59.64 4.1.44 1.52-.19 2.8-.68 3.86-1.47zM556.28 350.37l8.37-1.09 5.79 44.46-8.37 1.09-5.79-44.46zm5.74 18.08 15.46-2.01c.85-.11 1.58-.42 2.18-.94.6-.51 1.02-1.19 1.27-2.03.25-.84.32-1.78.21-2.82-.13-1.04-.43-1.93-.89-2.68-.46-.75-1.04-1.29-1.75-1.64-.71-.34-1.5-.46-2.37-.34L560.66 358l-1.05-8.07 16.13-2.1c2.44-.32 4.66-.05 6.66.81 2 .86 3.64 2.22 4.91 4.1 1.28 1.87 2.09 4.13 2.44 6.78.35 2.65.14 5.04-.62 7.18-.76 2.14-2 3.88-3.72 5.22-1.72 1.34-3.79 2.17-6.22 2.49l-16.13 2.1-1.04-8.06zm10.22 5.47 8.77-2.57 14.67 19.09-10.14 1.32-13.3-17.84zM491.29 435.19l8.37-1.09 5.79 44.46-8.37 1.09-5.79-44.46zm5.74 18.09 15.46-2.01c.85-.11 1.58-.42 2.18-.94.6-.51 1.02-1.19 1.27-2.03.25-.84.32-1.78.21-2.82-.13-1.04-.43-1.93-.89-2.68-.46-.75-1.04-1.29-1.75-1.64-.71-.34-1.5-.46-2.37-.34l-15.46 2.01-1.05-8.07 16.13-2.1c2.44-.32 4.66-.05 6.66.81s3.64 2.22 4.91 4.1c1.28 1.87 2.09 4.14 2.44 6.78.34 2.65.14 5.04-.62 7.18-.76 2.14-2 3.88-3.72 5.22-1.72 1.34-3.79 2.17-6.22 2.49l-16.13 2.1-1.05-8.06zm10.23 5.47 8.77-2.57 14.67 19.1-10.14 1.32-13.3-17.85zM532.09 429.91l8.37-1.09 5.79 44.43-8.37 1.09-5.79-44.43zm3.02-.39 26.73-3.48 1.05 8.07-26.73 3.48-1.05-8.07zm2.39 18.33 23.37-3.04 1.05 8.07-23.37 3.04-1.05-8.07zm2.34 18.03 26.74-3.48 1.05 8.07-26.73 3.48-1.06-8.07zM569.48 425.04l10.24-1.33 20.96 31.88-.63.89-4.54-34.83 8-1.04 5.78 44.4-10.3 1.34-20.83-31.37.63-.89 4.47 34.31-8.01 1.04-5.77-44.4zM609.63 419.81l32.57-4.24 1.05 8.07-32.57 4.24-1.05-8.07zm12.57 2.06 8.37-1.09 5.31 40.79-8.37 1.09-5.31-40.79z"/></g><g class="st30"><path class="st3" d="m214.72 119.99-2.91-.15c.02-.44 2.65-44.8 37.86-69.6 28.29-19.93 69.12-22.05 121.35-6.3l-.84 2.79c-51.32-15.47-91.3-13.5-118.81 5.87-34.04 23.97-36.62 66.96-36.65 67.39z"/></g><g class="st30"><path class="st3" d="M41.36 410.83c-11.97-19.16-15.53-36.77-10.57-52.32 6.27-19.67 24.63-30.21 30.43-33.11.95-.48 2.11-.05 2.52.94-.24.1-23.95 10.25-31.12 32.77-4.77 14.99-1.28 32.04 10.38 50.7l-1.64 1.02z"/></g><ellipse class="st31" cx="295.53" cy="97.43" rx="14.76" ry="11.57"/><ellipse transform="rotate(-45.001 101.17 296.76)" class="st31" cx="101.17" cy="296.76" rx="9.53" ry="7.47"/><circle class="st31" cx="681.34" cy="66.08" r="10.68"/><path class="st32" d="m454.97 138.02 11.83 2.61 8.79-8.33 11.83 2.6 8.81-8.33 11.83 2.61M63.73 360.94l12.32 2.71 9.16-8.67 12.31 2.71 9.17-8.67 12.32 2.71"/></svg>