<?xml version="1.0" encoding="utf-8"?>
<!-- Generator: Adobe Illustrator 24.3.0, SVG Export Plug-In . SVG Version: 6.00 Build 0)  -->
<svg version="1.1" id="Layer_1" xmlns="http://www.w3.org/2000/svg" xmlns:xlink="http://www.w3.org/1999/xlink" x="0px" y="0px"
	 viewBox="0 0 1000 821.8" style="enable-background:new 0 0 1000 821.8;" xml:space="preserve">
<style type="text/css">
	.st0{fill:#E3D4F9;}
	.st1{fill:#CFB5F6;}
	.st2{clip-path:url(#SVGID_2_);}
	.st3{opacity:0.58;fill:#385B64;}
	.st4{fill:none;stroke:#FFFFFF;stroke-miterlimit:10;}
	.st5{fill:none;stroke:#385B64;stroke-miterlimit:10;}
	.st6{fill:#385B64;}
	.st7{opacity:0.72;fill:#FFFFFF;}
	.st8{fill:#1D3635;}
	.st9{fill:none;stroke:#3B5C63;stroke-miterlimit:10;}
	.st10{fill:#D58980;}
	.st11{fill:#395B69;}
	.st12{fill:#3B5C63;}
	.st13{fill:#3171BB;}
	.st14{fill:#FEC1A1;}
	.st15{fill:#FCA819;}
	.st16{fill:#25363E;}
	.st17{opacity:0.65;fill:#FDD6CF;}
	.st18{fill:#FDD6CF;}
	.st19{fill:#D68918;}
	.st20{opacity:0.58;fill:#FFFFFF;}
	.st21{opacity:0.42;}
	.st22{fill:#FFFFFF;}
	.st23{opacity:0.45;fill:#FFFFFF;}
	.st24{fill:#FEC19F;}
	.st25{fill:#172F37;}
	.st26{opacity:0.58;fill:#FEC19F;}
	.st27{fill:#359E85;}
	.st28{fill:#4CC0A7;}
	.st29{fill:#FF725B;}
	.st30{fill:#F1F2F2;}
	.st31{fill:#192E37;}
	.st32{fill:#231F20;}
</style>
<g>
	<g>
		<g>
			<path class="st0" d="M745,681.3c-4.9,1.9-24.1,2.6-29.4,2.6c-61.5-1-108.6-24.2-209.6,45.7c-136.6,94.7-246.7-38-308.6-65.9
				c-62-27.9-173.1-4.1-170.4-94s7.2-134.5-1.7-197.3s75.4-132.5,140.2-143c64.8-10.5,173.7-55.5,205.2-115.1
				c20.2-38.2,57.9-93.7,174.8-89.1c70.3,2.8,143.5,37,129.2,108.3c-20.5,102.1,73.7,111.4,118.2,79.9
				c44.5-31.5,163.6-70,183.8,70.6c28.6,199.1-58.9,285.5-153.6,355C823.3,639,792.7,663.2,745,681.3z"/>
		</g>
	</g>
	<g>
		<g>
			<g>
				<path class="st1" d="M731.9,673.4c-4.7,1.7-9.4-3.4-14.4-3.5c-58-0.9-115.3-21.4-210.4,44.5c-128.8,89.2-232.5-35.8-290.9-62.1
					c-58.4-26.3-163.1-3.8-160.6-88.6s6.7-126.8-1.6-185.9S125.2,252.9,186.2,243s163.7-52.3,193.4-108.4
					c19-36,54.6-88.3,164.8-83.9c66.2,2.6,135.3,34.8,121.8,102c-19.3,96.2,69.5,105,111.4,75.3c41.9-29.7,189.5-66.6,178.3,100.6
					c-11,164.1-62.8,200.3-134.1,293.1C821.8,621.6,779.1,656.1,731.9,673.4z"/>
			</g>
		</g>
	</g>
	<g>
		<defs>
			<path id="SVGID_1_" d="M716.5,678.1c-13.5,1.7-51.3-14.5-64.9-15.4c-83.2-5.5-84.9-12.6-167.4,47.4
				c-120.3,87.4-222-51.4-276.6-78.1c-54.6-26.7-154.6-8.5-149.7-88.8s10.1-120.1,4-176.4s71.1-116.4,129.3-123.9
				S329,201.7,366,154.1c25.1-32.3,75.8-78.1,179.3-62.4c42.9,6.5,101.9,51.7,103,73.1c1.7,33.9,64.5,88.4,111.2,74.2
				c51.2-15.6,161.6-96.4,192.4,59.6c30.8,155.9-94.8,298.5-179.9,352.3C772,650.8,752.6,673.6,716.5,678.1z"/>
		</defs>
		<clipPath id="SVGID_2_">
			<use xlink:href="#SVGID_1_"  style="overflow:visible;"/>
		</clipPath>
		<g class="st2">
			<rect x="71" y="118.1" class="st1" width="847.1" height="565.7"/>
			<rect x="394.3" y="189.5" class="st3" width="220.2" height="484.5"/>
			<circle class="st4" cx="623.2" cy="351.1" r="1.2"/>
			<circle class="st4" cx="503.2" cy="577.1" r="1.1"/>
			<circle class="st4" cx="885.2" cy="444.4" r="2.3"/>
			<circle class="st4" cx="556.5" cy="495.5" r="1"/>
			<ellipse class="st4" cx="863.4" cy="577.6" rx="6.2" ry="0.6"/>
			<rect x="410.7" y="210.7" class="st5" width="187.4" height="438.4"/>
			<rect x="450.5" y="265" class="st6" width="12.9" height="56.7"/>
			<rect x="474.2" y="265" class="st6" width="12.9" height="56.7"/>
			<rect x="497.9" y="265" class="st6" width="12.9" height="56.7"/>
			<rect x="522.2" y="265" class="st6" width="12.9" height="56.7"/>
			<rect x="544.7" y="265" class="st6" width="12.9" height="56.7"/>
			<rect x="557.6" y="405.2" class="st5" width="33" height="56.7"/>
			<circle class="st7" cx="573.2" cy="422.5" r="8.8"/>
			<path class="st6" d="M574.7,444.7c1-0.5,1.7-1.6,1.7-2.8c0-1.8-1.4-3.2-3.2-3.2c-1.8,0-3.2,1.4-3.2,3.2c0,1.2,0.6,2.2,1.5,2.7"/>
			<polyline class="st6" points="574.7,444.7 576.4,452.5 570,452.5 571.5,444.7 			"/>
			
				<ellipse transform="matrix(0.9543 -0.299 0.299 0.9543 -79.8006 97.5367)" class="st8" cx="278.9" cy="309.6" rx="7.3" ry="10.8"/>
			<g>
				<rect x="766.9" y="199.3" class="st6" width="7.2" height="63.9"/>
				<rect x="784.3" y="199.3" class="st6" width="7.2" height="63.9"/>
				<rect x="803.5" y="199.3" class="st6" width="7.2" height="63.9"/>
				<rect x="822" y="199.3" class="st6" width="7.2" height="63.9"/>
				<rect x="841.1" y="199.3" class="st6" width="7.2" height="63.9"/>
				<rect x="756.4" y="191.2" class="st9" width="103.5" height="80.1"/>
				<rect x="766.9" y="199.3" class="st9" width="82.5" height="63.9"/>
			</g>
			<g>
				<rect x="184" y="157.1" class="st6" width="7.2" height="63.9"/>
				<rect x="201.4" y="157.1" class="st6" width="7.2" height="63.9"/>
				<rect x="220.6" y="157.1" class="st6" width="7.2" height="63.9"/>
				<rect x="239.1" y="157.1" class="st6" width="7.2" height="63.9"/>
				<rect x="258.2" y="157.1" class="st6" width="7.2" height="63.9"/>
				<rect x="173.5" y="149" class="st9" width="103.5" height="80.1"/>
				<rect x="184" y="157.1" class="st9" width="82.5" height="63.9"/>
			</g>
			<g>
				<path class="st6" d="M353.2,222.8c-17,0-30.8-13.8-30.8-30.8s13.8-30.8,30.8-30.8c17,0,30.8,13.8,30.8,30.8
					S370.2,222.8,353.2,222.8z M353.2,162.1c-16.5,0-29.9,13.4-29.9,29.9s13.4,29.9,29.9,29.9c16.5,0,29.9-13.4,29.9-29.9
					S369.7,162.1,353.2,162.1z"/>
			</g>
			<g>
				<path d="M352.6,196.7c0.4-1.2,0.9-2.3,1.5-3.1c0.6-0.8,1.3-1.8,2.3-2.9c0.7-0.8,1.2-1.5,1.6-2c0.4-0.5,0.7-1.1,1-1.8
					c0.3-0.6,0.4-1.3,0.4-2.1v0c0-1.3-0.4-2.3-1.1-3c-0.8-0.7-1.8-1.1-3.2-1.1c-1.4,0-2.5,0.4-3.2,1.3c-0.8,0.9-1.2,2.1-1.2,3.8v0
					h-5.3v0c0.1-2,0.5-3.6,1.3-5c0.8-1.4,1.9-2.4,3.3-3.2c1.4-0.7,3.1-1.1,5.1-1.1c2,0,3.8,0.3,5.2,1c1.5,0.7,2.6,1.6,3.3,2.8
					c0.8,1.2,1.1,2.7,1.1,4.5v0c0,1.1-0.2,2-0.5,2.8c-0.3,0.8-0.7,1.6-1.2,2.2c-0.5,0.6-1.1,1.4-1.9,2.3c-0.9,1-1.5,1.8-2.1,2.5
					c-0.5,0.7-1,1.6-1.3,2.6s-0.5,2.2-0.5,3.6H352C352,199.3,352.2,197.9,352.6,196.7z M351.8,204.5h5.5v4.8h-5.5V204.5z"/>
			</g>
			<g>
				<g>
					<path class="st6" d="M651.8,254.4c-17,0-30.8-13.8-30.8-30.8s13.8-30.8,30.8-30.8s30.8,13.8,30.8,30.8S668.8,254.4,651.8,254.4
						z M651.8,193.7c-16.5,0-29.9,13.4-29.9,29.9s13.4,29.9,29.9,29.9c16.5,0,29.9-13.4,29.9-29.9S668.3,193.7,651.8,193.7z"/>
				</g>
				<g>
					<g>
						<path class="st10" d="M643.3,221.8c-0.8,0-1.6-0.1-2.3-0.3c-2-0.5-3.4-1.7-3.9-3.3c-1.1-3.2,1.6-7,6-8.5
							c2.1-0.7,4.2-0.9,6.1-0.4c2,0.5,3.4,1.7,3.9,3.3c1.1,3.2-1.6,7-6,8.5C645.8,221.5,644.5,221.8,643.3,221.8z M646.7,210.8
							c-1,0-2.1,0.2-3.1,0.6c-3.4,1.2-5.6,4-4.9,6.2c0.4,1,1.3,1.8,2.7,2.1c1.5,0.4,3.3,0.3,5-0.3c3.4-1.2,5.6-4,4.9-6.2
							c-0.4-1-1.3-1.8-2.7-2.1C648,210.9,647.4,210.8,646.7,210.8z"/>
					</g>
					<g>
						<path class="st10" d="M641.2,212.1c-0.3,0-0.7,0-1-0.1c-0.9-0.2-1.6-0.8-1.8-1.6c-0.3-0.8-0.1-1.6,0.4-2.4
							c0.5-0.7,1.2-1.2,2.1-1.5c1.9-0.7,3.9-0.1,4.4,1.4l0,0c0.5,1.5-0.6,3.2-2.5,3.8C642.3,212,641.8,212.1,641.2,212.1z
							 M642.5,208.1c-0.3,0-0.6,0.1-0.9,0.2c-0.5,0.2-1,0.5-1.2,0.8c-0.1,0.1-0.3,0.4-0.2,0.7c0.1,0.3,0.4,0.4,0.6,0.4
							c0.4,0.1,1,0.1,1.5-0.1c1-0.3,1.6-1.1,1.4-1.5l0,0C643.5,208.3,643.1,208.1,642.5,208.1z"/>
					</g>
					<polygon class="st10" points="645.8,220.3 656.6,240.9 662.9,237.3 661.4,235.2 658.9,236.4 658.1,234.5 660.3,232.7 
						658.9,230 655.2,231.6 648.3,218.8 					"/>
				</g>
			</g>
			<g>
				<ellipse class="st4" cx="321.1" cy="274.2" rx="2.5" ry="5"/>
				<circle class="st4" cx="334.2" cy="306.5" r="3.1"/>
				<path class="st11" d="M291.8,652.7c0,0,1.7,10-6.6,12.2c-8.3,2.2-8.3,2.2-8.3,2.2h-3c0,0-7.2,3.6-0.8,6.9h42.4v-21.3H291.8z"/>
				<path class="st12" d="M345,654.4c0,0-3.7,13.7,1.8,16.9s20.4,15.8,24.9,15c4.6-0.8,2.4-9.2,2.4-9.2l-6-10.1c0,0-3.7-3.4-3.7-7.5
					c0-4.1,0-8.2,0-8.2L345,654.4z"/>
				<polygon class="st13" points="282.8,439.1 288.9,657.7 321,657.7 326.5,474.5 342.3,657.7 371.4,654.9 368.7,440.7 				"/>
				
					<ellipse transform="matrix(0.2473 -0.9689 0.9689 0.2473 -10.8196 503.4469)" class="st14" cx="318.6" cy="258.7" rx="30.3" ry="24.7"/>
				<polygon class="st14" points="311.6,282.6 306.2,309.6 348.6,303.3 339.4,296.1 337.3,272.6 				"/>
				<path class="st14" d="M268.1,349.6v104.7c0,0-8.6,16.6,5.8,23c14.4,6.4,6.4,3,6.4,3l4.4-130.8H268.1z"/>
				<path class="st15" d="M297.4,303.3c0,0,38.3-0.7,43.9-5.8l20.1,5.8c0,0,21.2,10.7,15.4,34.6c-5.8,24-5,21.9-5,21.9l-4.2-2.1
					l1.2,88.9l-89.3-5l2.5-86l-19.1-0.4l3.7-33.7C266.7,321.6,273,299.4,297.4,303.3z"/>
				<polygon class="st8" points="312.2,291.1 287.3,299.2 276.1,299.2 284.8,317.9 314.5,297.6 				"/>
				<path class="st16" d="M331.1,224c0,0-2.3-15.4-24.1-7.5c0,0-14.5,8.7-15.2,14.5c0,0-7.1,4.4-12.6,3.3c-5.5-1,4.4,17.5,13.7,14.1
					c9.3-3.3,28.7-19.4,34.4-17.7L331.1,224z"/>
				<path class="st16" d="M327.4,220.6c0,0,14.8-1.7,17.9,7.7c3.1,9.3,5.2,16.4,7.5,17.7c2.3,1.2-10.5,5.2-9,10
					c1.5,4.8-2.4,17.7-2.4,17.7s-9-16.4-8.1-24.7c0.8-8.3-8.6-19.9-8.6-19.9L327.4,220.6z"/>
				<polygon class="st17" points="274.9,302.5 93.3,352.6 156.8,457.6 284.5,313.9 				"/>
				
					<ellipse transform="matrix(0.2473 -0.9689 0.9689 0.2473 0.9026 529.5634)" class="st14" cx="341.3" cy="264.2" rx="7.5" ry="6.1"/>
				
					<ellipse transform="matrix(0.8424 -0.5389 0.5389 0.8424 -198.9084 130.2481)" class="st18" cx="123.2" cy="405.2" rx="36.8" ry="61.1"/>
				<path class="st14" d="M346.1,340.3l-2.9,9.6l-24.5-46.5c0,0-1.2-15.4-12.5-17.3s-8.7,2.7-8.7,2.7s-6.8,2.2-3.7,6
					c3,3.7,4.4,2.8,4.4,2.8s-1.9,13.1,5.4,16.4c7.3,3.3,21.1,54.9,21.1,54.9s8.3,22,22,16.6s22.3-29.5,22.3-29.5L346.1,340.3z"/>
				<path class="st19" d="M341.3,343l11.9-28.6c1.7-4.2,5.5-7.2,10-7.7c4.2-0.5,9,1.1,10.8,9c0,0,8.5,14.3,0,35.5l-1.8,10.9
					L341.3,343z"/>
			</g>
			
				<ellipse transform="matrix(0.9543 -0.299 0.299 0.9543 -79.8006 97.5367)" class="st20" cx="278.9" cy="309.6" rx="5.9" ry="8.8"/>
			<g class="st21">
				<rect x="865.3" y="249.7" class="st22" width="61.1" height="27"/>
				<rect x="508.1" y="153.2" class="st22" width="61.1" height="27"/>
				<rect x="436" y="153.2" class="st22" width="61.1" height="27"/>
				<rect x="827.8" y="283.2" class="st22" width="61.1" height="27"/>
				<rect x="895.8" y="283.2" class="st22" width="61.1" height="27"/>
				<rect x="123.4" y="242.3" class="st22" width="61.1" height="27"/>
				<rect x="85.9" y="275.7" class="st22" width="61.1" height="27"/>
				<rect x="153.9" y="275.7" class="st22" width="61.1" height="27"/>
				<rect x="215" y="511.1" class="st22" width="61.1" height="27"/>
				<rect x="177.6" y="548.4" class="st22" width="61.1" height="27"/>
				<rect x="142.7" y="513" class="st22" width="61.1" height="27"/>
				<rect x="241.8" y="548.4" class="st22" width="42.8" height="27"/>
				<rect x="617.2" y="530.9" class="st22" width="61.1" height="27"/>
				<rect x="621.4" y="561.9" class="st22" width="26.4" height="27"/>
				<rect x="652" y="561.9" class="st22" width="26.4" height="27"/>
			</g>
			<rect x="752" y="575.4" class="st23" width="126.5" height="98.1"/>
			<g>
				<path class="st24" d="M664.9,651v15.8c0,0,12.5,15,13.9,3c1.4-11.9,0.8-20.8,0-20.8C677.9,649.1,664.9,651,664.9,651z"/>
				<path class="st24" d="M683.5,652.1l-2.8,15.5c0,0,19.1,18,18,0c-1.1-18-1.7-16.6-1.7-16.6L683.5,652.1z"/>
				<path class="st25" d="M683.5,666c0,0,8.1,7.2,11.4,0c0,0,17.7-0.3,20.2,8c2.5,8.3-18,6.9-18,6.9l-20.8,0.1
					C676.3,681,672.1,666,683.5,666z"/>
				<path class="st25" d="M666.3,663.3l-1.8,0.9c-1.9,0.9-2.7,3-2,5c1.8,5,2.4,22.3,11.9,21.8c8.7-0.5,7.8-15.3,7.8-15.3l-2.5-12.3
					C679.6,663.3,674.6,672.3,666.3,663.3z"/>
				<ellipse class="st26" cx="687.6" cy="293.4" rx="22.4" ry="28.3"/>
				<circle class="st4" cx="676.3" cy="537.2" r="1.2"/>
				<path class="st26" d="M677.9,313.9c0,0,2.5,12.2-2.5,15.2l-10.2,2.8l-4.7,2.2l42.4,28l3.3-26l-7.5-3.9l-1.9-18.3H677.9z"/>
				<path class="st27" d="M737.8,444.4c0,0,9.4,36.5,1.7,55.1s-16.3,62.6-16.3,62.6l-12.5,56l-10.2,39.9l-19.7-3.9
					c0,0,20.2-76.7,17.7-87.5s-3.3-56.8-3.3-56.8l-4.2-60.4L737.8,444.4z"/>
				<path class="st28" d="M651.3,449.3c0,0-8.9,23,1.4,53.2l15.2,52.1c0,0,8.3,18.8-2.2,38.2l-4.7,65.1h22.4l19.9-68.7
					c0,0,3.9-22.4,2.5-39.3s-1.9-94.2-1.9-94.2L651.3,449.3z"/>
				<path class="st29" d="M738.4,355.9c0,0-6.6-18.3-27.4-21.1l-11.4-3.6l-0.6,20.2l-33-22.7l-19.4,11.6c0,0-11.4,6.1-7.8,30.8
					l5.5,83.4c0,0,53.7,13.6,96.4-7.5"/>
				<path class="st30" d="M622,354.3l40.7,7.8l31-1.9c0,0,11.1-3.3,12.5,9.4c0,0-2.5-11.1,5.4-11.1c7.9,0,15.9-0.8,15.9-0.8
					l32.7-7.8l38-11.9l-10,95.9l-45.7,5l-37.4,20.9l-53.2,2.1l-16.3-3.3l1.8-23l-7.6,22.2l-23-5L622,354.3z"/>
				<line class="st3" x1="662.2" y1="367.1" x2="651.9" y2="461.8"/>
				<line class="st3" x1="752" y1="352.4" x2="745.8" y2="439.1"/>
				<path class="st31" d="M674.6,270.4c0,0,11.4,6.1,26.3,4.4c0,0,10,11.4,9.1,27.7c0,0-6.7,17.8-12.8,16.4c0,0-0.5,12.7,5.1,14.5
					c5.6,1.8,17.2,1.4,24.6,9.6c0,0,8.2-12.9-1.3-31.3c-2.8-5.4-4.7-11.2-5.8-17.1c-1.7-8.8-4.5-20.5-8.4-24.2
					c-6.5-6.1-12.6-12.7-22.3-12.7s-14.7,0.6-14.7,0.6V270.4z"/>
				<path class="st31" d="M678.5,265.1c-1.5,3.9-4.5,10.9-9.7,18.2c0,0,8.3,15.8,5.4,25.8c0,0,8.7,12.2,1.2,19.9
					c0,0-25.7,6.7-31.7,13.9c-6,7.2-13.5-8.3-1.3-23c8.8-10.6,11.4-25.7,12.2-33.1c0.4-4.2,1.4-8.3,3.1-12.1
					c3.5-8,10.1-19.2,18.5-15.3C678.4,260.5,679.3,263,678.5,265.1z"/>
				<path class="st24" d="M610.3,386.7v16.1c0,0,16.3,6.9,17.5-2.9S610.3,386.7,610.3,386.7z"/>
			</g>
			<g>
				<path class="st32" d="M894.2,675.8H93.3c-1.3,0-2.3-1-2.3-2.3c0-1.3,1-2.3,2.3-2.3h800.8c1.3,0,2.3,1,2.3,2.3
					C896.4,674.7,895.4,675.8,894.2,675.8z"/>
			</g>
			<path class="st24" d="M801.2,362.1l-1.1,17.5c0,0-9.7,2.8-13-8.7S801.2,362.1,801.2,362.1z"/>
			<circle class="st3" cx="508.6" cy="104.1" r="33.5"/>
			<circle class="st6" cx="508.6" cy="104" r="29.6"/>
		</g>
	</g>
</g>
</svg>
