<svg version="1.1" id="Layer_1" xmlns="http://www.w3.org/2000/svg" x="0" y="0" viewBox="0 0 1000 674.1" style="enable-background:new 0 0 1000 674.1" xml:space="preserve"><style>.st2{opacity:.58;fill:#385b64}.st3,.st4{fill:none;stroke:#fff;stroke-miterlimit:10}.st4{stroke:#385b64}.st5{fill:#385b64}.st7{fill:#1d3635}.st8{fill:none;stroke:#3b5c63;stroke-miterlimit:10}.st9{fill:#d58980}.st10{fill:#ebe2f7}.st14{fill:#fec1a1}.st16{fill:#25363e}.st21{fill:#fec19f}.st22{fill:#172f37}.st23{opacity:.58;fill:#fec19f}.st28{fill:#192e37}</style><path style="fill:#be9ae8" d="M0 10.8h1000v653.7H0z"/><path style="fill:#f6f0fc" d="M12.3 37.1h975.4v611.8H12.3z"/><path class="st2" d="M409.7 103.4h243.1v534.7H409.7z"/><circle class="st3" cx="662.4" cy="281.8" r="1.4"/><circle class="st3" cx="530" cy="531.2" r="1.3"/><circle class="st3" cx="951.5" cy="384.8" r="2.5"/><circle class="st3" cx="588.8" cy="441.2" r="1.1"/><ellipse class="st3" cx="927.4" cy="531.8" rx="6.9" ry=".6"/><path class="st4" d="M427.8 126.8h206.8v483.8H427.8z"/><path class="st5" d="M471.8 186.8h14.3v62.5h-14.3zM497.9 186.8h14.3v62.5h-14.3zM524.1 186.8h14.3v62.5h-14.3zM550.9 186.8h14.3v62.5h-14.3zM575.7 186.8H590v62.5h-14.3zM820.9 70.4h7.9v70.5h-7.9zM840.2 70.4h7.9v70.5h-7.9zM861.3 70.4h7.9v70.5h-7.9zM881.8 70.4h7.9v70.5h-7.9zM902.8 70.4h7.9v70.5h-7.9z"/><path class="st4" d="M589.9 341.4h36.5v62.5h-36.5z"/><circle cx="607.1" cy="360.6" r="9.7" style="opacity:.72;fill:#fff"/><path class="st5" d="M608.8 385.1c1.1-.6 1.9-1.8 1.9-3.1 0-2-1.6-3.5-3.5-3.5-2 0-3.6 1.6-3.6 3.5 0 1.3.7 2.4 1.7 3M608.8 385.1l1.9 8.6h-7.1l1.7-8.7"/><ellipse transform="rotate(-17.397 282.313 235.937)" class="st7" cx="282.3" cy="235.9" rx="8" ry="11.9"/><path class="st8" d="M809.4 61.5h114.2v88.4H809.4z"/><path class="st8" d="M820.9 70.4H912v70.5h-91.1z"/><path class="st5" d="M727.8 145.8c-18.7 0-34-15.2-34-34s15.2-34 34-34 34 15.2 34 34-15.3 34-34 34zm0-67c-18.2 0-33 14.8-33 33s14.8 33 33 33 33-14.8 33-33-14.8-33-33-33zM249.3 140.1c-18.7 0-34-15.2-34-34s15.2-34 34-34 34 15.2 34 34-15.3 34-34 34zm0-66.9c-18.2 0-33 14.8-33 33s14.8 33 33 33 33-14.8 33-33-14.8-33-33-33z"/><path d="M248.6 114.8c.5-1.6 1-2.9 1.6-4 .6-1.1 1.5-2.3 2.5-3.7.8-1 1.4-1.9 1.8-2.6.4-.7.8-1.4 1.1-2.2.3-.8.4-1.7.4-2.6 0-1.6-.4-2.9-1.3-3.8-.8-.9-2-1.4-3.5-1.4s-2.7.6-3.6 1.7c-.8 1.1-1.3 2.7-1.3 4.8h-5.9c.1-2.5.5-4.6 1.4-6.4.9-1.8 2.1-3.1 3.7-4 1.6-.9 3.4-1.4 5.6-1.4 2.2 0 4.2.4 5.8 1.2 1.6.8 2.8 2 3.7 3.6.8 1.6 1.3 3.5 1.3 5.7 0 1.3-.2 2.5-.5 3.6s-.8 2-1.3 2.8c-.5.8-1.2 1.8-2.1 2.9-.9 1.2-1.7 2.3-2.3 3.2-.6.9-1.1 2.1-1.5 3.4s-.6 2.8-.6 4.5h-5.8c.1-1.9.3-3.7.8-5.3zm-.9 9.9h6.1v6.1h-6.1v-6.1z"/><path class="st9" d="M718.3 109.8c-.9 0-1.8-.1-2.6-.3-2.2-.6-3.7-1.9-4.3-3.6-1.2-3.5 1.7-7.7 6.6-9.4 2.3-.8 4.7-.9 6.7-.4 2.2.6 3.7 1.9 4.3 3.6 1.2 3.5-1.7 7.7-6.6 9.4-1.3.5-2.7.7-4.1.7zm3.8-12.1c-1.1 0-2.3.2-3.4.6-3.7 1.3-6.2 4.5-5.4 6.9.4 1.1 1.4 2 3 2.4 1.6.4 3.6.3 5.5-.3 3.7-1.3 6.2-4.5 5.4-6.9-.4-1.1-1.4-2-3-2.4-.7-.2-1.4-.3-2.1-.3z"/><path class="st9" d="M716.1 99.2c-.4 0-.8 0-1.1-.1-1-.3-1.7-.9-2-1.7-.3-.8-.1-1.8.5-2.6.5-.7 1.3-1.3 2.3-1.6 2.1-.7 4.3-.1 4.8 1.6.6 1.6-.7 3.5-2.8 4.2-.6.1-1.2.2-1.7.2zm1.3-4.5c-.3 0-.7.1-1 .2-.6.2-1.1.5-1.4.9-.1.1-.3.5-.2.8.1.3.5.4.6.5.5.1 1.1.1 1.6-.1 1.1-.4 1.7-1.2 1.6-1.7 0-.3-.5-.6-1.2-.6zM721.1 108.2l11.9 22.7 6.9-4-1.6-2.3-2.7 1.4-1-2.1 2.5-2-1.5-3-4.2 1.8-7.6-14.2z"/><path class="st10" d="M866.5 166.2h67.4V196h-67.4zM535.3 63.4h67.4v29.8h-67.4zM455.8 63.4h67.4v29.8h-67.4zM825.1 203.2h67.4V233h-67.4zM900.2 203.2h67.4V233h-67.4zM211.9 458.4h67.4v29.8h-67.4zM170.6 499.5H238v29.8h-67.4zM132.1 460.5h67.4v29.8h-67.4zM241.4 499.5h47.2v29.8h-47.2z"/><ellipse class="st3" cx="329" cy="197" rx="2.8" ry="5.5"/><circle class="st3" cx="343.4" cy="232.5" r="3.4"/><path d="M296.6 614.6s1.8 11-7.3 13.5l-9.2 2.4h-3.4s-7.9 4-.9 7.6h46.8v-23.5h-26z" style="fill:#395b69"/><path d="M355.3 616.5s-4.1 15.1 1.9 18.7c6.1 3.6 22.5 17.4 27.5 16.5 5-.9 2.6-10.2 2.6-10.2l-6.6-11.1s-4.1-3.8-4.1-8.3V613l-21.3 3.5z" style="fill:#3b5c63"/><path style="fill:#3171bb" d="m286.6 378.9 6.8 241.2h35.4l6.1-202.1 17.5 202.1 32.1-3.1-3.1-236.3z"/><ellipse transform="rotate(-75.682 326.23 179.802)" class="st14" cx="326.2" cy="179.8" rx="33.5" ry="27.3"/><path class="st14" d="m318.4 206.1-5.9 29.8 46.7-6.8-10-8.1-2.3-25.9zM270.5 280.1v115.6s-9.5 18.3 6.4 25.4c15.9 7 7 3.4 7 3.4l4.9-144.3h-18.3z"/><path d="M302.8 229.1s42.2-.8 48.4-6.4l22.2 6.4s23.4 11.8 17 38.2-5.5 24.2-5.5 24.2l-4.6-2.3 1.4 98.1-98.6-5.5 2.8-94.9-21.1-.5 4.1-37.1c0-.1 6.9-24.6 33.9-20.2z" style="fill:#fca819"/><path class="st7" d="m319.1 215.5-27.5 9h-12.3l9.5 20.6 32.8-22.4z"/><path class="st16" d="M340 141.5s-2.5-17-26.6-8.3c0 0-16.1 9.6-16.7 16.1 0 0-7.8 4.8-13.9 3.7s4.8 19.3 15.1 15.6 31.7-21.4 38-19.5l4.1-7.6z"/><path class="st16" d="M335.9 137.8s16.3-1.8 19.7 8.5c3.4 10.3 5.7 18.1 8.3 19.5 2.5 1.4-11.5 5.7-9.9 11 1.6 5.3-2.7 19.5-2.7 19.5s-9.9-18.1-9-27.3c.9-9.2-9.4-22-9.4-22l3-9.2z"/><path style="opacity:.65;fill:#fdd6cf" d="M278 228.2 77.6 283.5l70 115.9 140.9-158.7z"/><ellipse transform="rotate(-75.682 351.252 185.887)" class="st14" cx="351.2" cy="185.9" rx="8.2" ry="6.7"/><ellipse transform="rotate(-32.608 110.529 341.422)" cx="110.5" cy="341.4" rx="40.6" ry="67.5" style="fill:#fdd6cf"/><path class="st14" d="m356.5 269.9-3.2 10.5-27.1-51.4s-1.4-17-13.8-19c-12.4-2.1-9.6 3-9.6 3s-7.5 2.4-4.1 6.6c3.4 4.1 4.9 3.1 4.9 3.1s-2.1 14.5 6 18.1c8.1 3.7 23.2 60.5 23.2 60.5s9.2 24.3 24.3 18.3c15.1-6 24.6-32.6 24.6-32.6l-25.2-17.1z"/><path d="m351.2 272.8 13.1-31.5c1.9-4.6 6.1-8 11.1-8.5 4.7-.5 9.9 1.2 11.9 9.9 0 0 9.3 15.7 0 39.1l-2 12.1-34.1-21.1z" style="fill:#d68918"/><ellipse transform="rotate(-17.397 282.313 235.937)" cx="282.3" cy="235.9" rx="6.6" ry="9.7" style="opacity:.58;fill:#fff"/><path class="st10" d="M655.8 480.3h67.4v29.8h-67.4zM660.3 514.4h29.2v29.8h-29.2zM694.1 514.4h29.2v29.8h-29.2zM804.5 529.3h139.6v108.3H804.5z"/><g><path class="st21" d="M708.4 612.8v17.4s13.8 16.5 15.3 3.4.9-22.9 0-22.9c-.9-.1-15.3 2.1-15.3 2.1zM728.9 614l-3.1 17.1s21.1 19.9 19.9 0c-1.2-19.9-1.8-18.3-1.8-18.3l-15 1.2z"/><path class="st22" d="M728.9 629.3s8.9 7.9 12.5 0c0 0 19.6-.3 22.3 8.9 2.8 9.2-19.9 7.6-19.9 7.6l-22.9.1s-4.6-16.6 8-16.6z"/><path class="st22" d="m709.9 626.3-2 1c-2 1-3 3.3-2.2 5.5 2 5.5 2.7 24.6 13.1 24 9.6-.5 8.6-16.8 8.6-16.8l-2.7-13.6c-.1-.1-5.6 9.8-14.8-.1z"/><ellipse class="st23" cx="733.5" cy="218.1" rx="24.8" ry="31.2"/><circle class="st3" cx="720.9" cy="487.2" r="1.3"/><path class="st23" d="M722.8 240.7s2.8 13.5-2.8 16.8l-11.3 3.1-5.2 2.4 46.8 30.9 3.7-28.7-8.3-4.3-2.1-20.2h-20.8z"/><path d="M788.8 384.8s10.4 40.3 1.8 60.8-18 69.1-18 69.1l-13.8 61.8-11.3 44-21.7-4.3s22.3-84.7 19.6-96.6-3.7-62.7-3.7-62.7l-4.6-66.6 51.7-5.5z" style="fill:#359e85"/><path d="M693.4 390.2s-9.8 25.4 1.5 58.7l16.8 57.5s9.2 20.8-2.4 42.2l-5.2 71.8h24.8l22-75.8s4.3-24.8 2.8-43.4c-1.5-18.6-2.1-103.9-2.1-103.9l-58.2-7.1z" style="fill:#4cc0a7"/><path d="M789.5 287.1s-7.3-20.2-30.3-23.2l-12.5-4-.6 22.3-36.4-25.1-21.4 12.9s-12.5 6.7-8.6 33.9l6.1 92s59.3 15 106.4-8.3" style="fill:#ff725b"/><path d="m661 285.3 44.9 8.6 34.2-2.1s12.2-3.7 13.8 10.4c0 0-2.7-12.2 6-12.2s17.6-.9 17.6-.9l36.1-8.6 41.9-13.1-11 105.8-50.4 5.5-41.3 23.1-58.7 2.3-18-3.7 2-25.4-8.4 24.5-25.4-5.5L661 285.3z" style="fill:#f1f2f2"/><path class="st2" d="M705.4 299.5 694 403.9M804.5 283.2l-6.8 95.7"/><path class="st28" d="M719.1 192.7s12.5 6.7 29.1 4.9c0 0 11 12.5 10.1 30.6 0 0-7.4 19.6-14.1 18.1 0 0-.5 14 5.7 16s19 1.6 27.2 10.6c0 0 9-14.3-1.4-34.5-3.1-5.9-5.1-12.3-6.4-18.9-1.8-9.7-5-22.7-9.3-26.7-7.2-6.7-13.9-14.1-24.6-14.1-10.7 0-16.2.7-16.2.7v13.3z"/><path class="st28" d="M723.4 186.9c-1.6 4.3-4.9 12-10.7 20.1 0 0 9.2 17.4 6 28.4 0 0 9.6 13.5 1.4 22 0 0-28.4 7.3-35 15.3-6.6 7.9-14.9-9.2-1.4-25.4 9.8-11.7 12.6-28.3 13.4-36.5.5-4.6 1.6-9.1 3.4-13.4 3.9-8.9 11.1-21.1 20.4-16.8 2.3 1.2 3.3 3.9 2.5 6.3z"/><path class="st21" d="M648.2 321.1v17.7s18 7.6 19.3-3.2c1.1-10.8-19.3-14.5-19.3-14.5z"/></g><g><path d="M961.4 644.1H77.6c-1.4 0-2.5-1.1-2.5-2.5s1.1-2.5 2.5-2.5h883.8c1.4 0 2.5 1.1 2.5 2.5s-1.1 2.5-2.5 2.5z" style="fill:#231f20"/></g><path class="st21" d="m858.8 293.9-1.2 19.3s-10.7 3.1-14.4-9.6c-3.7-12.8 15.6-9.7 15.6-9.7z"/></svg>