<svg version="1.1" id="Layer_1" xmlns="http://www.w3.org/2000/svg" xmlns:xlink="http://www.w3.org/1999/xlink" x="0" y="0" viewBox="0 0 1000 896" style="enable-background:new 0 0 1000 896" xml:space="preserve"><style>.st5{fill:#fdd2c5}.st6{fill:#1a2c36}.st7{fill:#4570ad}.st12{fill:#fff}.st13{fill:#fcedbe}.st14{fill:#d44f6c}.st15{fill:#7544c1}.st16{fill:#3d3853}.st17{fill:#414042}.st19{fill:#f1f2f2}.st20{fill:#ff4d53}.st23{fill:#fdd1c7}.st24{fill:#fec4ae}.st25{fill:#453c66}.st27{fill:#f8dc88}.st28{fill:#fbefba}.st29{fill:#d24b6b}.st32{fill:#6e8e59}</style><circle cx="509" cy="452" r="444" style="fill:#a683dd"/><defs><circle id="SVGID_1_" cx="509.5" cy="451.5" r="419.8"/></defs><clipPath id="SVGID_2_"><use xlink:href="#SVGID_1_" style="overflow:visible"/></clipPath><g style="clip-path:url(#SVGID_2_)"><path d="m542.7 72.5-4.2 273.9L92.2 585.8S-5.6 286.9 170.1 72.5h372.6z" style="fill:#cfb5f6"/><path style="fill:#ede5f9" d="M542.7 72.5V338l398 218.1-.3-483.6z"/><path d="M92.2 585.8 542.7 332s398 237.3 398 241.2v190.9s-234.4 220.1-497.2 131S92.2 585.8 92.2 585.8z" style="fill:#e4d5f7"/><path class="st5" d="M351 714.3s2.8 8.5-2.8 12.3c0 0 .5 2.6 3.6 7.5s11.6 4.9 12.6 3c.9-1.9 5.7-7.6 5.7-7.6l-1.1-6.6-.7-8.5H351zM396.6 721v7.1l2.8 12.8s8.8 5.7 13.4 0 3.5-8.7 3.5-8.7l-3.9-9.3-1.6-5.7-14.2 3.8z"/><path class="st6" d="M370 721.5s3.8 9.6 0 20.7c0 0-2.8 8.2-15.2 12 0 0-19 9.5-20.9 9.5s-14.2 2.8-16.1-4.7c0 0-.9-6.6 4.7-13.3l25.6-19s2.5-.3 5 3.6c0 0 2.6 7.7 7.3 3s9.6-11.8 9.6-11.8zM395.6 727.6s-1.9 7 0 13.9 5.9 16.5 6.8 22.6c.8 6.1 9.4 20.3 19.8 15.6 10.4-4.7 4.7-19.9 4.7-19.9s-5.5-7.3-6.5-18.3c-1.1-11.1-6.6-15.2-6.6-15.2s1.7 7 .8 7.9c-.9.9-8.5-.9-10.4 2.8 0 0-.5 5.2-3.1 1.2s-2.6-10.7-2.6-10.7h-2.9z"/><path class="st7" d="m333 556.8-.9 56.9s.9 20.9 3.8 37c2.8 16.1 10.4 67.4 10.4 67.4l35.1-1.9s-2.8-16.1-3.8-27.5c-.9-11.4-6.6-42.7-6.6-42.7l4.7-57.9 3.4 44s4.2 26.2 4.2 35.7 6.6 49.3 6.6 49.3-.9 5.7 8.5 5.7 19-2.8 19-2.8l.9-84.4s3.8-38.9.9-83.5c.1 0-40.6 22.8-86.2 4.7z"/><path class="st5" d="M381.1 374.2c3.6 12.5-1 24.7-10.2 27.4s-18.7-5.4-22.3-17.9c-3.6-12.5.1-24.6 9.3-27.3s19.6 5.3 23.2 17.8z"/><path class="st5" d="m380.6 378.9 6.5 14.7 2.1 5.6c.5 1.3.4 2.8-.2 4.1-2.4 5-9.6 16.6-20.9 12.1 0 0-8.6-2.8-8.6-14.7v-6l21.1-15.8z"/><path d="M353.2 393.5s-15.4 3.9-18.3 16.2c-2.8 12.3-9.5 32.3-6.6 52.2 0 0 1.9 7.6-2.8 10.4l-3.8 8.5s9.5 4.7 10.4 14.2l6.6-4.7s-6.6 43.6-11.4 55c-1.8 4.3-2.9 6.8-3.6 8.3-.6 1.2 0 2.7 1.2 3.2 7.9 3.5 34.2 13.9 57.3 9.7 0 0 25.7.6 36.1-8.8l2.8-3.8-4.7-51.2 11.4-4.7s9.5-5.7 8.5-19l-7.6-54.1s-.9-14.2-13.3-19.9c-12.3-5.7-29.6-14.1-29.6-14.1s5.3 13.5-11.1 20.6c-2.2.9-4.7 1-6.9 0-2.9-1.3-6.3-4.2-6-10.6 0 0-4.5-.8-8.6-7.4z" style="fill:#feac02"/><path d="M347.8 368.5s-13.9.5-14.8-10.9c-.9-11.4 5.7-22.8 5.7-22.8s.9 3.8 6.6 3.8c5.7 0 17.1-9.5 25.6-5.7s9.5 6 13.3 12 4.7 13.5 4.7 18.3c0 4.7-3.1 12.5-3.1 12.5l-3.4 7.5-.2-11-3.5-3.6s-5.1-6.3-11.7-6.3-15.8 6.7-19.2 6.2z" style="fill:#584f74"/><path class="st5" d="M323.8 479.3s9.9 4.1 9.1 14.2l-8.4 7.8-6.7 3.3-6.6-5.7 12.6-19.6z"/><path d="m292.2 499 27.5-.9s14.2 8.5 18 12.3c0 0 19.5-14 34-18.4l-7 11.3 11.5-3-9.7 10.1-42 13.3-32.3-24.7z" style="fill:#fffc94"/><path class="st5" d="M297.9 508.4s-1.6 7.9 4 10.1c5.5 2.2 14.1 3.2 14.1 3.2l-18.1-13.3zM407.5 488.2c3.7 1.2 10 4.7 5 14.2-.4.8-1.2 1.5-2.1 1.8l-20.5 7.4-13.3 6.3s-11.4 1.9-19-.9l9.5-3.8 4.7-3.8s-1.9-1.9-4.7-.9c-2.8.9-4.7.9-4.7.9s-2-2.7 2.3-3.2 6.8-3.1 6.8-3.1 6.7-3.5 14.5 0l17.5-14.2c1.1-.9 2.6-1.2 4-.7z"/><ellipse transform="rotate(-82.82 382.328 372.292)" class="st5" cx="382.3" cy="372.3" rx="6.2" ry="4.6"/><path d="M323.1 529.1 287 500.8c-1-.8-1.2-2.3-.4-3.3.8-1 2.3-1.2 3.3-.4l34.1 26.7 42.4-13.8c1.2-.4 2.6.3 3 1.5.4 1.2-.3 2.6-1.5 3l-44.8 14.6z" style="fill:#cb4f65"/><path class="st12" d="M715.3 72.5v175.2s-33.1-30-41.5-25.8 0 19.7 0 19.7-18.8 4.5-19.7-5c-.9-9.5-25.7-164.1-25.7-164.1h86.9z"/><path class="st13" d="m701.1 73 1.9 115.7-49.3-22.7-7.7-34.2 1.8-59.3z"/><path class="st12" d="M882.3 72.5v262.7l-120.5-65.8V72.5z"/><path class="st13" d="M779.9 73v158.6l84.4 45.4V72.5z"/><g><ellipse class="st6" cx="222.7" cy="543.7" rx="43.9" ry="28"/><path class="st14" d="m182.6 448.7 82.1 95.3-3.6-86.3z"/><path class="st15" d="m182.6 452.5-.5 81s23.2 43.8 82.5 9.6l-3.6-93c.1 0-83.1-3.8-78.4 2.4z"/><ellipse class="st6" cx="223" cy="448.7" rx="40.3" ry="28"/><path class="st16" d="M205.4 554.5c-.5 0-1-.4-.9-1l.2-79.6c0-.5.4-1 1-.9.5 0 .9.4.9 1l-.2 79.6c0 .4-.5.9-1 .9zM240.3 554.3c-.5 0-.9-.4-.9-.9V474c0-.5.4-.9.9-.9s.9.4.9.9v79.4c0 .5-.4.9-.9.9z"/><path class="st16" d="M224.5 495.2c-7.2 0-13.6-1.4-18.8-3.3-14.6-5.2-23.4-14.6-23.8-15-.4-.4-.3-1 0-1.3.4-.4 1-.3 1.3 0 .1.1 9 9.5 23.1 14.6 18.9 6.8 37.9 3 56.2-11.2.4-.3 1-.2 1.3.2.3.4.2 1-.2 1.3-14.2 11.1-27.7 14.7-39.1 14.7zM224.3 534.4h-.8c-24.2-.4-41.9-20.4-42.1-20.6-.3-.4-.3-1 .1-1.3.4-.3 1-.3 1.3.1.2.2 17.4 19.5 40.7 19.9 14.2.2 27.8-6.5 40.4-19.9.4-.4 1-.4 1.3 0 .4.4.4 1 0 1.3-12.6 13.6-26.4 20.5-40.9 20.5z"/><ellipse class="st17" cx="223" cy="443" rx="40.3" ry="22.3"/></g><g><ellipse class="st6" cx="153.5" cy="582.6" rx="43.9" ry="28"/><path class="st14" d="m113.4 487.6 82 95.3-3.5-86.3z"/><path class="st15" d="m113.4 491.4-.5 81s23.2 43.8 82.5 9.6l-3.6-93c.1 0-83.2-3.8-78.4 2.4z"/><ellipse class="st6" cx="153.7" cy="487.6" rx="40.3" ry="28"/><path class="st16" d="M136.2 593.4c-.5 0-1-.4-.9-1l.2-79.6c0-.5.4-1 1-.9.5 0 .9.4.9 1l-.2 79.6c-.1.4-.5.9-1 .9zM171 593.2c-.5 0-.9-.4-.9-.9v-79.4c0-.5.4-.9.9-.9s.9.4.9.9v79.4c.1.4-.4.9-.9.9z"/><path class="st16" d="M155.3 534.1c-7.2 0-13.6-1.4-18.8-3.3-14.6-5.2-23.4-14.6-23.8-15-.4-.4-.3-1 0-1.3.4-.4 1-.3 1.3 0 .1.1 9 9.5 23.1 14.6 18.9 6.8 37.9 3 56.2-11.2.4-.3 1-.2 1.3.2.3.4.2 1-.2 1.3-14.3 11.1-27.8 14.7-39.1 14.7zM155.1 573.3h-.8c-24.2-.4-41.9-20.4-42.1-20.6-.3-.4-.3-1 .1-1.3.4-.3 1-.3 1.3.1.2.2 17.4 19.5 40.7 19.9 14.2.2 27.8-6.5 40.4-19.9.4-.4 1-.4 1.3 0 .4.4.4 1 0 1.3-12.6 13.6-26.5 20.5-40.9 20.5z"/><ellipse class="st17" cx="153.7" cy="481.9" rx="40.3" ry="22.3"/></g><g><path class="st15" d="M873.8 591v123.8s11.2 10.9 19.4 0V596.5l-19.4-5.5zM661.3 464.8v123.8s11.2 10.9 19.4 0V470.3l-19.4-5.5z"/><path class="st15" d="M657.5 451.5v14.6l232.4 138.2 15.9-7.8z"/><path style="fill:#3e3954" d="m622.2 418.4-.3 14.9L924.1 609l16.6-7.6-.3-12.2-15.5 4.3z"/><path class="st19" d="m762.1 338-139.9 80.4s-3.6 5.6 13.5 14.7c14.4 7.6 288.4 168.4 288.4 168.4l16.3-7.9.3-159.6-178.6-96z"/><path class="st20" d="m846.3 433.5-47.1 15 43.5 59.3 58.3-28.5-41.8-51.5z"/><path class="st6" d="M784.2 410.2c-12.2 11.8-29.5 4.3-34.1 1.7-.7-.4-1.1-2.1-1.1-2.9l.4-7.6L751 380l.1-.9.3-4.4h29.4l.5 4.4.1.6 2.2 21.6 1.3 6.8c.1.8-.1 1.6-.7 2.1z"/><path class="st6" d="M783.6 379.4s2.9 2.8 2 8.5c-.9 5.7-2.8 6.6-2.8 6.6l.9 2.8s9.2-7.6 5.7-17.1c0 0-1.4-5.7-5-5.7l-3.4 1.2-.1 3.5 2.7.2z"/><path class="st20" d="M783.6 401.4s-18.8 12.5-34 0L751 380l.4-.6s15.2 11.4 29.4 0l.5.4 2.3 21.6z"/><path class="st17" d="M780.8 374.7c0 1.8-1.6 3.4-4.2 4.6-2.7 1.2-6.4 2-10.5 2s-7.8-.8-10.5-2c-2.6-1.2-4.2-2.8-4.2-4.6 0-3.7 6.6-6.6 14.7-6.6 8.1-.1 14.7 2.9 14.7 6.6z"/><path d="M776.6 379.3c-2.7 1.2-6.4 2-10.5 2s-7.8-.8-10.5-2c.1-2.6 4.8-4.6 10.5-4.6s10.4 2.1 10.5 4.6z" style="fill:#5697fe"/><path class="st12" d="m802.6 439.2 61.7 45.2 51.5-29.2-69.5-42.6z"/><path class="st16" d="M855.3 444.4c-.3 0-.6-.2-.8-.5-.3-.5-.1-1 .4-1.3l13.3-7.6c.5-.3 1-.1 1.3.4.3.5.1 1-.4 1.3l-13.3 7.6c-.2.1-.4.1-.5.1zM837.3 447.3c-.3 0-.6-.2-.8-.5-.3-.5-.1-1 .3-1.3l22.9-13.6c.5-.3 1-.1 1.3.3.3.5.1 1-.3 1.3l-22.9 13.6c-.2.1-.4.2-.5.2zM828.5 444.4c-.3 0-.6-.2-.8-.5-.3-.5-.1-1 .3-1.3l23.9-14.2c.4-.3 1-.1 1.3.3.3.5.1 1-.3 1.3L829 444.3c-.1.1-.3.1-.5.1z"/><circle class="st20" cx="874.7" cy="457.2" r="5.2"/></g><g><path d="M668.9 709.6s21.3 23.2 37 23.7c0 0 5.2-7.2 0-18.1-5.2-10.8-16.6-13.8-22.3-14.2-5.7-.4-14.7 8.6-14.7 8.6z" style="fill:#231f20"/><path class="st23" d="m679.3 706.7-5.7 3.8 13.8 13.6 13.3-8.7c.1 0-8.1-14.4-21.4-8.7z"/><path class="st6" d="m673.6 709.1-5.6 5.6s8.5 24.2 12.2 29.9c3.8 5.7 16.5 6.6 23.4 0 0 0 2.5-5.7-1.4-6.6-4-1-13.5-6.7-13.5-6.7l1-8.8c.1.1-4.7-14.8-16.1-13.4z"/><path class="st12" d="M662.6 720.4s5.3-8.4 11-3.9 6.4 16.8 6.4 16.8 6.9 19.9 12.6 14.2c0 0 11.4-1 11.9-6.2 0 0-.5 7.1-7.1 10 0 0-13.3.9-19-3.8-5.7-4.7-15.3-19.1-15.8-27.1zM612.3 677.7s-2.2 9.3-5.1 24.3c-4.3 22.3 10 22.3 10 22.3s-10.2-8.1-6.3-22.8c0 0 3.9-7.1 6.8-14.7 2.8-7.6-5.4-9.1-5.4-9.1z"/><path class="st6" d="m635.7 693.4-5.7 4.7s-2.8 4.7-2.8 12.3c0 0-5.7.9 1.9 6.6 0 0 6.6 5.4-7.1 7s-13.1-11.3-13.1-11.3.9-16.8 4.4-16.7l5.1-11.5 17.3 8.9z"/><path class="st23" d="M643.7 517.3s-9-10.7 9.9-14.5 52.2 2.4 61.7-3.6c0 0 7.5-12.1 19.4-10.4 11.9 1.7 15.7 3.6 13.8 5.5-1.9 1.9-8.6.4-13.8 5.4 0 0-9.9 6-7.1 8.8 2.8 2.8 5.7-3.8 5.7-3.8s4.7-.1 1.4 5.6c-3.3 5.8-14.7 5.8-14.7 5.8s-13.3-3.8-17.1-.9c-3.8 2.8-27 5.2-27 5.2l-11.9 4.3-20.3-7.4zM692.6 552.1s-9-1.4-18.5-8.1c-9.5-6.6-16.1 14.2-10.4 21.8 0 0 7.6 25.6 25.6 27.5 18 1.9 5.7-13.3 5.7-13.3l7.3-1.9-9.7-26z"/><path class="st16" d="M742.4 534.5s26.6 7.6 13.3 37c0 0-1.4 6.6-13.3 9.2-11.9 2.6-8.1 6.4-23.2 4.5-15.2-1.9-30-17-31.1-25.1s-2.1-10 12.2-15.7 13.7-15.6 19.2-15.4c5.3.3 22.9 5.5 22.9 5.5z"/><path class="st23" d="m712.5 630.8 3.8 7.6s5.7-3.8 19.9-4.7 13.6-1.9 13.6-1.9 5.4-5.7 13.9-.9c2.4 1.4 3.8 3.3 4.5 5.3 1.8 5.3-1.1 11-6.2 13.2l-1.2.5s0-5.7-5.7-5.7-18 7.6-18 7.6-10.4 4.7-19.9 6.6c0 0-11.1 4.7-13.1 0s-3.3-8.5-3.3-8.5l11.7-19.1z"/><path class="st6" d="M611 658.3s-3.8 15.2 4.7 24.7l27.5 18s17.1 4.7 33.2-2.8l-7.6 11.4s11.3-4.7 21.3 0 15.7 23.7 15.7 23.7l55-66.4s4.7-21.8-4.7-23.7c-9.5-1.9-56 7.6-56 7.6l-33.2 19-43.6-5.7-12.3-5.8z"/><path class="st7" d="M687.4 548.4s-3.9-2.4-5.5-12.6-4.5-14-4.5-14-13.2-16.2-31.3-7.6c0 0-6.8 7.2-5.3 15s.6 20.4-6.1 28.3c-6.7 7.9-11.4 44-11.4 44L610 654.6s-2.8 14.2 19.9 23.7c14.9 6.2 33.9 1.8 45.2-1.9 5.8-1.9 11.2-5.1 15.8-9.2l3.5-3.1v-13.9l5.7.6 15.2-23.7-6.6-24.7-12.8-22.3s1.9 12.9-14 5.7c0 0-18.7-14.7-10.2-36.6 0 0 1.1-6.6 15.7 2.8v-3.6z"/></g><g><path class="st24" d="M595.8 224.8s13.3 6.6 18 11.4c0 0 2.8 1.9 6.6-2.8s25.6-34.2 25.6-34.2-1.9-12.3 0-15.6c1.9-3.3 2.8-6.2 1.9-7.1-.9-.9.8-4.7 3.3 0 2.4 4.7 0 7.1 0 7.1s4.3-5.2 6.2-4.3c1.9.9 6.3 4.7 5.5 12.3-.8 7.6-10.3 18-10.3 18l-9.5 20.9s-2.8 9.5-11.4 19l-3.8 5.7s-3.8 7.6-8.5 4.7-25.6-7.6-25.6-7.6l2-27.5zM504.7 399.3s.9 8.5-1.9 20.9c-2.8 12.3-7.6 26.6-8.5 45.5-.9 19-1.9 42.7-1.9 42.7s3.8 8.6 19-5.2c0 0 8.5-4.3 5.7-10h-8.5s7.8-36 9.1-44.6c1.3-8.6 8.9-17.1 9.9-24.7s7.6-23.7 7.6-23.7l-30.5-.9z"/><path class="st6" d="M492.4 501.3s-6.9 8.4-3 17.2c3.9 8.9 20.1-3.5 20.1-3.5l18.2-13.8s7.4-7.1 1.7-11.9c-5.7-4.7-20.9 3.8-20.9 3.8s7.6-.9 7.6 2.8-16.1 12.5-16.1 12.5-7.6 1.9-7.6-7.1z"/><path class="st24" d="M538.5 401.3s.4 14.2 2.3 18.9c1.9 4.7 2.8 10.1 0 17.4-2.8 7.3-3.8 28.1-3.8 32.9 0 3.6.5 28 1.5 41 .4 4.3.8 7.4 1.3 8 1.9 2.3 18.2 4.9 26.2 2.2 0 0 11.2-5 6.3-10.5h-10s-9.2-.7-8.2-8.3 4.7-30.4 4.7-38.9 1.9-16.1 3.8-19.9c1.9-3.8 2.8-8.5 1.9-14.2-.9-5.7 3.8-14.2 3.8-14.2s1.9-12.3.9-19l-30.7 4.6z"/><path class="st6" d="M537.9 511.5s-2.7 14.8.5 17.3c3.3 2.4 6.6 3.4 16.8 2s19.7.5 26.3-4.3c4.2-3 4.6-8.2 4.3-11.7-.2-2.1-1.8-3.9-3.9-4.2-2.7-.4-6.6-.8-10.9-.3-8.5 1.1-10.4.9-10.4.9s7.4.7 9.5 2.8c1.9 1.9-3.6 6.6-12.7 6.2-9-.4-17.6-.9-19.5-8.7z"/><ellipse transform="rotate(-14.502 567.66 174.012)" class="st24" cx="567.6" cy="174" rx="16.5" ry="21.8"/><path class="st24" d="M570.2 191.6v21.3l-27.5 9 7.6-30.3z"/><path class="st15" d="M571.1 209.6s8.5 1.9 16.1 7.6l8.1 4.7s9 7.9 0 31L593 258s-7.6-4.7-9.5-4.7c-1.9 0-8.5 42.7-8.5 42.7s-7.6 11.4-31.3 11.4c-.9 0-28.5-4.7-31.3-10.4-2.8-5.7 2.8-9.5 2.8-18s-5.3-52.1-5.3-52.1-.9-10.5 12.6-20c0-.1 27.8 8.4 48.6 2.7z"/><path class="st20" d="M515.2 296.9s-8.5 25.6-11.4 37.9c-2.8 12.3-15.2 57.9-15.2 57.9s-1.9 9.5 24.7 10.4c26.6.9 35.1 2.8 35.1 2.8s8.5 6.6 23.7-7.6c0 0 18-5.7 16.1-19.9l-19-79.7-54-1.8z"/><path class="st24" d="m503.8 267.5-.9 26.6s.9 25.8 0 30.5c0 0-7.7 6.9-1.9 21.9l16.2-51.4 2.8-27.5h-16.2z"/><path class="st16" d="M572.9 154.7s2-6.8-7.5-8.7c-9.5-1.9-28.8 4.3-28.8 4.3s-16.7 7.1-11.9 29.8c0 0 2.8 8.5 6.6 10.4 0 0 2.8 2.8 0 6.6s-30.4 41.7-30.4 41.7l-.9 3.8s6.6 0 4.7 3.8c-1.9 3.8-10.4 17.1-10.4 17.1s16.1 14.2 32.3 4.7c16.1-9.5 20.9-29.1 29.9-67.7 0 0 17.6-14.8 10-18.6 0 0-8.1-6.7.2-8.1-.1.2 9.9-14.2 6.2-19.1z"/></g><path class="st20" d="m398.9 130.6-16.6 61 3.7 102.7h7.7s-.9 16.9 10.5 19.7c11.4 2.8 31.3 27.5 45.5 2.8l-13.2-94.9 6.6-9.5s-.1-93.4-44.2-81.8z"/><g><path class="st25" d="M474 236c-1.9 0-3.8-.6-5.5-1.7-10.1-6.9-12.9-33.8-15.1-55.3-.4-4.3-.9-8.4-1.3-11.7-2.9-22.1 6.3-52.8 6.7-54.1.4-1.3 1.7-2 3-1.6 1.3.4 2 1.7 1.6 3-.1.2-3.8 12.8-5.8 27.3 3-7.3 7.9-12.6 12.5-13.5 4.1-.7 7.9 3.7 12.2 14.4 2.8 6.9 4.8 13.8 4.8 14.1 0 .1.1.2.1.4s2.2 18.1 2.2 36.5c0 26-4.1 39.7-12.4 42-1.1.1-2 .2-3 .2zm-13.8-39.8c2 15 5.2 30.1 11.1 34.1 1.4.9 2.8 1.1 4.4.7 11-3.1 10-46.4 6.8-73.1-.1-.4-.4-1.3-.8-2.5 1.4 14.4.1 37.6-5 46.4-2.1 3.7-4.6 4.4-6.3 4.4-4.8 0-8-3.8-10.2-10zm10.6-63.2c-4.5.8-12.7 13.1-11.5 26.9.1 1 .2 2.2.3 3.4.9 11.4 3.2 38.1 10.8 38.2.6 0 1.4-.7 2.2-2 6.1-10.5 6.2-46.2 2.5-52.5-2.5-4.3-4-5.3-4.4-5.5-.5.6-2.3 3.8-2.1 18.7.1 8.8.2 15.3.2 19.1v3.3c-.1 2-.9 3-2.3 3.1-.5 0-2.4-.1-2.6-2.7 0-.4 0-.8.2-1.1 0-1.9.1-7.2-.2-21.6-.3-19.2 2.5-22.6 5.6-23.5 2.2-.6 4.2.6 5.9 2.4-2.9-5.9-4.5-6.2-4.6-6.2z"/></g><g><path class="st25" d="M504 125.4h-.3c-4.3-.2-6.8-5.1-7.1-5.6-.2-.3-.2-.7-.2-1v-21c0-1.3 1.1-2.4 2.4-2.4 1.3 0 2.4 1.1 2.4 2.4v20.3c.6 1 1.8 2.5 2.8 2.5.9 0 2.1-1.1 3.4-3.2.7-1.1 2.1-1.5 3.3-.8 1.1.7 1.5 2.1.8 3.3-2.3 3.7-4.8 5.5-7.5 5.5z"/></g><g><path class="st6" d="M172 308.9c-1 0-2-.5-2.6-1.5-.9-1.4-.4-3.3 1-4.1l25.4-15.3c1.4-.9 3.3-.4 4.1 1 .9 1.4.4 3.3-1 4.1l-25.4 15.3c-.5.4-1 .5-1.5.5z"/><path style="opacity:.47;fill:#413854" d="m174.4 280.8 42.4 25.1L361 221.1l-45.1-20.9z"/><path class="st27" d="m174.4 277 42.4 25.1L361 217.3l-45.1-20.9z"/><path class="st7" d="M193.1 268.2v9.9l27.8 13.6 37.2-20.7-2.5-2.8-.2-2.7z"/><path class="st28" d="m221.9 289.3-27.2-14.7c-.7-.4-1-1.3-.6-2.1.4-.7 1.3-1 2.1-.6l25.7 13.9 33-18.9c.7-.4 1.7-.2 2.1.6.4.7.2 1.7-.6 2.1l-34.5 19.7z"/><path class="st7" d="M193.1 268.2 222 284l36.1-20-27-14.1z"/><path class="st29" d="M193.1 257v9.2l25.9 12.7 34.7-19.3-2.3-2.6-.2-2.6z"/><path class="st28" d="M220 276.7 194.6 263c-.7-.4-1-1.2-.6-1.9s1.2-1 1.9-.6l24 12.9 30.8-17.6c.7-.4 1.6-.2 1.9.5.4.7.2 1.6-.5 1.9L220 276.7z"/><path class="st29" d="m193.1 257 27 14.7 33.6-18.7-25.2-13z"/><g><path class="st19" d="m259 212-3.8 29.9s1.9 11.9 27.5 11.2c0 0 19.9-.7 20.9-11.2l-3.8-29.9H259z"/><ellipse cx="279.4" cy="212" rx="20.4" ry="10.9" style="fill:#443d64"/><ellipse cx="279.4" cy="209.6" rx="16.9" ry="8.5" style="fill:#2d2a42"/><path class="st32" d="M276.1 212.4s2.8 1.9 6.6.9c3.8-.9 6.4-2.5 6.5-10.7.1-8.3 1-27.2 2.9-30.1 0 0-9 11.4-9.3 14.2-.2 2.8-3.5 19.3-3.5 19.3l-3.2 6.4z"/><path d="M280.4 213c.8-.3 1.4-1.1 1.6-1.9.6-4.2 2.3-17.6.7-30.9-1.9-16.1-7.6-46.5-7.6-46.5l-2.8 37s-4.7 27.5-1.9 37c2.1 7.1 7.5 6.2 10 5.3z" style="fill:#84af6b"/><path class="st32" d="M273.2 216.2s-5.8 1.3-6.7-12.1c-.9-13.5-1.8-46.7-1.8-46.7l6.9 16.4c.5 1.1.9 2.3 1.2 3.5 1.1 4.3 3.6 14.9 4.1 22.6.1 1.9.4 3.8.9 5.7.9 3.9 1.5 10.6-4.6 10.6z"/></g><path class="st27" d="M334.9 219.1s-13.3 14.2-29.4.9l.5-7.5 1.8-27.6 14.1-3.2 9.2 3.2 3.1 27.6.7 6.6z"/><path class="st29" d="M334.9 219.1s-13.3 14.2-29.4.9l.5-7.5c4.7 3.3 15.6 8.9 28.2 0l.7 6.6z"/><ellipse cx="320.2" cy="184.1" rx="11.9" ry="7.5" style="fill:#443e62"/><ellipse cx="320.7" cy="181.7" rx="9.5" ry="5.1" style="fill:#5d597a"/></g><path class="st15" d="m376.1 867.7 120.3-67 185.5 100.5 49.2-13.4 3.7-1-.4-.1-235.6-133.2-164.9 92.1z"/></g></svg>