<svg version="1.1" id="Layer_1" xmlns="http://www.w3.org/2000/svg" x="0" y="0" viewBox="0 0 801.14 727.37" style="enable-background:new 0 0 801.14 727.37" xml:space="preserve"><style>.st0{fill:none;stroke:#353535;stroke-width:3;stroke-linecap:round;stroke-miterlimit:10}.st7{fill:#fff}.st9{fill:#c798f1}.st11{fill:#e1e0e2}.st12{fill:#606060}.st13{fill:#ffaa01}.st16{fill:#8922e1}.st17{opacity:.47;fill:#fff}.st18{fill:#f7c2a4}.st19{fill:#262525}.st20{fill:#ff4e56}.st22{fill:#333}.st24{fill:#fc707b}.st26{fill:#f4be40}.st27{fill:#f4c362}.st28{opacity:.59}</style><switch><g><path class="st0" d="M689.32 637.68s1.47.08 4 .08"/><path d="M700.94 637.56c27.45-1.52 90.28-13.08 38.9-90.4" style="fill:none;stroke:#353535;stroke-width:3;stroke-linecap:round;stroke-miterlimit:10;stroke-dasharray:7.6247,7.6247"/><path class="st0" d="M737.7 544c-.74-1.08-1.51-2.17-2.3-3.28M646.87 453.6s1.32.57 3.7 1.5"/><path d="M657.88 457.81c30.64 10.81 115.46 34.26 127.88-32.24" style="fill:none;stroke:#353535;stroke-width:3;stroke-linecap:round;stroke-miterlimit:10;stroke-dasharray:7.7966,7.7966"/><path class="st0" d="M786.38 421.73c.18-1.29.33-2.62.46-3.97M634.1 301.25s1.33.52 3.74 1.4"/><path d="M645.51 305.35c34.5 11.72 135.69 40.87 141.33-18.51 4.03-42.41-2.21-55.58-7.96-59.26" style="fill:none;stroke:#353535;stroke-width:3;stroke-linecap:round;stroke-miterlimit:10;stroke-dasharray:8.1299,8.1299"/><path class="st0" d="M775.05 226.3c-2.26-.15-3.89.71-3.89.71"/><ellipse cx="398.42" cy="692.01" rx="355.67" ry="35.36" style="opacity:.65;fill:#adadad"/><path d="M401.76 688.34S124.05 785.31 38.09 529.3 69.31 153.93 203.2 61.31 582.63 3.73 639.25 38.54s118.79 77.15 41.92 153.82-77.51 147.58-38.88 179.66c38.63 32.08 73.33 75.81 19.54 146.44-53.79 70.64-215.94 171.95-260.07 169.88z" style="opacity:.53;fill:#c798f1"/><path d="m108.97 206.74 487.1 1.54 98.68 435.74s1.78 27.8-16.92 32.53c-26.47 6.7-421.49 0-421.49 0s-25.34 6.22-25.36-18.9c-.01-25.11-122.01-450.91-122.01-450.91z" style="fill:#828282"/><path class="st7" d="m106.94 210.81 484.28 1.5 98.11 425.37s1.77 27.14-16.82 31.76c-26.32 6.54-419.05 0-419.05 0s-25.19 6.07-25.21-18.45c-.02-24.52-121.31-440.18-121.31-440.18z"/><path class="st9" d="M183.15 334.35h408.07l36.44 205.96-412.05 5.61z" style="opacity:.54"/><path class="st7" d="M190.16 376.98h406.66v6.11H190.16z"/><path transform="matrix(1 -.0044 .0044 1 -1.927 1.782)" class="st7" d="M199.39 436.24h410.24v6.11H199.39z"/><path class="st7" d="M207.03 486.94h411.72v6.11H207.03z"/><path transform="rotate(-10.691 268.546 440.17)" class="st7" d="M265.46 332.48h6.11v215.31h-6.11z"/><path transform="rotate(-11.526 326.651 439.186)" class="st7" d="M323.64 332.19h6.11v214.08h-6.11z"/><path transform="rotate(-10.101 386.902 438.94)" class="st7" d="M383.73 332.7h6.11v212.28h-6.11z"/><path transform="rotate(-10.311 444.682 438.362)" class="st7" d="M441.72 332.64h6.11v211.61h-6.11z"/><path transform="rotate(-9.769 501.326 438.075)" class="st7" d="M498.12 332.82h6.11v210.5h-6.11z"/><path transform="rotate(-10.755 557.03 437.769)" class="st7" d="M553.83 332.5h6.11v210.36h-6.11z"/><path style="fill:#994ae5" d="m351.07 543.5-10.28-50.45 52.7.86 8.91 49.96z"/><circle class="st11" cx="311.64" cy="250.14" r="4.88"/><circle class="st11" cx="253.08" cy="250.14" r="4.88"/><circle class="st11" cx="203.2" cy="250.14" r="4.88"/><circle class="st11" cx="347.91" cy="250.14" r="4.88"/><circle class="st11" cx="398.42" cy="250.14" r="4.88"/><circle class="st11" cx="451.05" cy="245.26" r="4.88"/><g><path class="st12" d="m202.67 249.73-1.15-2.83c40.28-16.34 27.69-49.52 27.14-50.93-3.9-10.12-10.08-16.87-18.4-20.07-16.82-6.47-37.04 3.6-37.25 3.7l-1.38-2.73c.87-.44 21.61-10.79 39.71-3.83 9.16 3.52 15.95 10.86 20.16 21.82.15.36 14.3 37.37-28.83 54.87z"/><path class="st12" d="m253.82 249.8-.74-2.96c11.42-2.86 20.55-11.31 23.83-22.05 3.98-13.06-1.02-28.23-14.09-42.71-6.36-7.05-13.2-10.12-20.33-9.12-20.51 2.87-37.75 37.63-37.93 37.98l-2.74-1.34c.73-1.49 18.13-36.56 40.24-39.66 8.2-1.15 15.95 2.25 23.03 10.1 13.81 15.32 19.05 31.53 14.74 45.65-3.58 11.75-13.55 20.99-26.01 24.11z"/><path class="st12" d="m313.22 249.55-1.81-2.46c13.63-10.02 20.55-20.96 20.56-32.49.01-18.73-18.32-33.4-20.37-34.98-15.01-4.96-26.83-4.44-35.14 1.54-12.91 9.28-13.1 28.91-13.1 29.11h-3.06c0-.87.18-21.37 14.35-31.58 9.2-6.62 22.03-7.26 38.15-1.89l.23.08.19.14c.89.65 21.8 16.28 21.8 37.57 0 12.55-7.33 24.32-21.8 34.96z"/><path class="st12" d="m347.91 249.74-1.1-2.85c18.78-7.26 29.69-17.02 32.42-29.03 3.94-17.32-10.54-33.96-12.05-35.64-10.79-6.75-21.04-8.55-30.48-5.36-19.78 6.68-29.86 33.18-29.96 33.44l-2.86-1.07c.43-1.14 10.67-28.11 31.83-35.27 10.41-3.52 21.6-1.58 33.27 5.78l.3.25c.71.76 17.42 18.81 12.93 38.55-2.98 13.06-14.52 23.56-34.3 31.2z"/><path class="st12" d="m399.73 249.66-1.44-2.69c19.53-10.48 29.98-22.11 31.06-34.55 1.35-15.61-12.84-27.61-14.16-28.69-12.36-6.54-23.54-7.8-33.22-3.77-17.66 7.36-24.67 30.03-24.74 30.26l-2.93-.88c.3-.99 7.51-24.29 26.49-32.2 10.59-4.41 22.69-3.08 35.95 3.96l.22.15c.69.54 16.96 13.47 15.42 31.42-1.14 13.53-12.13 25.98-32.65 36.99z"/><path class="st12" d="m451.11 247.29-1.44-2.69c19.53-10.48 29.98-22.11 31.06-34.55 1.35-15.61-12.84-27.61-14.16-28.69-12.36-6.54-23.54-7.8-33.22-3.77-17.66 7.36-24.67 30.03-24.74 30.26l-2.93-.88c.3-.99 7.51-24.29 26.49-32.2 10.59-4.41 22.69-3.08 35.95 3.96l.22.15c.69.54 16.96 13.47 15.42 31.42-1.15 13.53-12.14 25.98-32.65 36.99z"/></g><g><path class="st12" d="m669.54 286.84-2.48-1.78c23.2-32.24 22.94-75.81-.73-119.55-24.99-46.17-69.86-79.84-104.48-78.26-60.47 2.73-187.03-11.22-222.32-34.7-9.36 7.34-17.12 12.63-17.95 13.19l-.12.07c-30 16.45-61.85 23.49-94.66 20.92-26.22-2.05-53.09-10.2-79.88-24.24C101.39 38.64 71.46 5.55 71.16 5.22l2.28-2.04c.29.33 29.92 33.06 74.99 56.65 41.44 21.69 104.82 39.87 171.5 3.33 4.26-2.89 10.42-7.32 17.03-12.48-2-1.58-3.59-3.2-4.72-4.86-8.21-12.06-8.13-25.21.22-35.19C341.1.31 356.04-2.91 368.79 2.81c3.76 1.69 5.82 4.27 6.12 7.68.93 10.66-17.42 27.71-32.86 40.06 33.8 21.39 154.88 36.56 219.67 33.64 17.68-.81 38.42 7.09 58.36 22.2 19.4 14.71 36.78 35.18 48.94 57.66 24.24 44.8 24.43 89.56.52 122.79zM355.7 3.05c-7.99 0-15.71 3.34-20.9 9.54-7.43 8.87-7.44 20.65-.04 31.51 1.07 1.57 2.64 3.12 4.65 4.64 15.89-12.67 33.24-28.93 32.45-37.98-.2-2.26-1.61-3.94-4.32-5.16a28.826 28.826 0 0 0-11.84-2.55z"/><path class="st13" d="m99.29 38.54 30.13 20.32-45.83 25.23z"/><path class="st9" d="m153.14 71.47 41.22 12.62-26.4 29.43z"/><path d="m235.23 92.19 38.71-3.9-9.98 40.64s-16.11-8.3-28.73-36.74z" style="fill:#ff4c56"/><path d="m404.51 79.18 36.75 4.91-28.36 52.56c-.01-.01-17.81-29.44-8.39-57.47z" style="fill:#8ec3e5"/><path class="st16" d="m475.59 88.29 50.79-2.57s-24.16 47.42-36.08 50.92c.01 0-8.4-37.84-14.71-48.35z"/><path class="st13" d="M676.01 207.2v38.06s-22.42 3.5-39.94 0c0 0 28.03-33.38 39.94-38.06zM300.58 77.24l33.67-17.75s13.56 18.2 18.63 35.33c0 0-42.59-9.23-52.3-17.58z"/></g><g><path class="st13" d="m490.31 691.71 22.42-119.89 84.09 84.09c0-.01-33.59 59.73-106.51 35.8z"/><path class="st12" d="M481.86 692.22c-5.43-15.32-9.25-22.5-12.39-23.28-2.05-.51-4.67 1.91-7.98 4.96-4.33 3.99-10.25 9.46-19.09 12.15-4.96 1.51-9.69.89-14.07-1.82-15.95-9.92-21.87-44.82-22.11-46.3l3.02-.5c.06.35 5.94 35.02 20.71 44.2 3.64 2.26 7.42 2.75 11.56 1.49 8.17-2.48 13.57-7.46 17.91-11.47 3.99-3.68 7.14-6.59 10.79-5.69 4.47 1.11 8.41 7.94 14.53 25.22l-2.88 1.04zM600.91 651.18c-.05-.41-1.18-10.22 6.16-17.36 6.56-6.37 17.57-8.41 32.73-6.06 11.3 1.75 20.02-.19 25.92-5.77 10.45-9.88 8.78-28.12 8.76-28.31l3.04-.3c.08.81 1.84 19.89-9.69 30.82-6.62 6.28-16.22 8.49-28.5 6.58-14.13-2.19-24.26-.44-30.1 5.21-6.26 6.05-5.3 14.73-5.29 14.81l-3.03.38z"/><circle class="st17" cx="549.85" cy="640.81" r="15.94"/><circle class="st17" cx="513.45" cy="664.83" r="12.35"/><circle class="st17" cx="521.9" cy="605.73" r="8.73"/><circle class="st17" cx="579.52" cy="660.4" r="6.17"/></g><path class="st16" d="M402.4 509.03s75.99 7.65-39.51-146.75S542.11 88.43 600.62 219.4c60.22 134.79 24.44 170.43 6.01 222.04S476.3 554.71 402.4 509.03z"/><g><path d="M172.32 175.18s12.15 66.96-12.46 87.21c-24.6 20.24-87.21 8.8-87.21 8.8s-5.61-51.16 27.41-77.01 55.13-41.42 72.26-19z"/><ellipse transform="rotate(-74.365 157 192.354)" class="st18" cx="157" cy="192.35" rx="22.31" ry="15.77"/><path class="st18" d="m132.91 188.9-8.86 43.9s19.62 4.67 24.92 2.18c5.29-2.49 4.05-9.03 4.05-9.03s-4.98.93-4.98-.62.93-17.44.93-17.44l-16.06-18.99z"/><path d="M171.52 178.97s14.66-8.69 8.36-18.5c-6.31-9.81-13.31 0-35.04-9.11-21.72-9.11-68.67 51.86-71.48 52.56-2.8.7-33.64 23.12-25.93 39.24s25.23 28.03 25.23 28.03l-.93-21.26-4.05-5.29s12.15-13.08 33.01-19l25.17-1.82 7.32-33.49s11.11-1.14 13.91-6.12c2.81-4.98 16.15-11.11 24.43-5.24z"/><path class="st18" d="m124.05 633.48 8.53 35.74s15.77 1.4 16.47-2.8 3.5-30.83 0-32.94c-3.51-2.1-25 0-25 0zM200.2 641.89l3 32.23 25.04-4.68-9.82-31.76z"/><path class="st19" d="M129.4 655.9s10.71-7.71 20.78 0l2.96 24.53-23.74 26.63s-23.8 4.91-22.4-5.61c1.4-10.51 22.4-45.55 22.4-45.55zM200.2 666.41s15.45-9.11 28.05-4.91l30.12 29.43s12.18 21.6-9.11 17.26c-5.61-1.14-44.85-12.44-49.05-23.61-4.22-11.16-.01-18.17-.01-18.17z"/><path class="st7" d="M244.67 697.15c-21.1 0-41.14-15.26-42.1-16l1.25-1.61c.26.2 26.33 20.05 49.4 14.62l.47 1.98c-3 .7-6.02 1.01-9.02 1.01zM119.2 704.11c-1.84 0-3.74-.31-5.71-1l.67-1.92c16.96 5.94 29.63-21.01 29.75-21.28l1.85.85c-.49 1.06-10.97 23.35-26.56 23.35z"/><path class="st18" d="m202.09 245.26 13.52 56.76-21.25 17.52-12.91-57.46z"/><path d="M241.49 223.82h75.03l-49.05 95.72h-79.89z"/><ellipse transform="rotate(-14.413 138.739 188.894)" class="st18" cx="138.75" cy="188.9" rx="5.75" ry="8.14"/><path d="M92.28 362.29s-10.51 21.02-8.41 70.08c0 0 39.24 189.9 36.44 206.02 0 0 32.02 8.41 32.83 3.5l-7.6-212.33s27.33 84.09 39.24 113.52c0 0 5.61 82.69 12.61 103.71 0 0 21.72 4.91 30.83-2.8 0 0 .7-125.44-7.01-145.76-7.71-20.32-19.07-109.32-30.21-132.09l-98.72-3.85z"/><path class="st20" d="M125.86 223.82s10.02 11.47 22.17 1.51l28.65 4.07s25.54 7.45 26.47 11.19c.93 3.74-14.64 33.82-14.64 33.82L185 294.55c-2.35 13.53-6.19 21.94-3.56 35.42l11.12 42.05s-91.25-.31-106.51-6.23c0 0 8.72-26.16 5.92-37.06l-2.49-15.54c-.62-5.2-1.7-10.34-3.22-15.36l-14.53-47.9-4.05-5.29s23.3-18.3 34.85-19.13c11.55-.84 23.33-1.69 23.33-1.69z"/><path class="st18" d="m70.79 245.26 28.96 27.41s.93 25.59 1.87 25.25c.93-.34 51.52-26.73 51.52-26.73s8.59-4.75 13.58-3.82c4.98.93 27.41 5.61 27.41 5.61s1.87 3.6-4.98 4.29c-6.85.69-13.39 2.25-16.51 5.36s-10.28-.31-10.28-.31-49.83 41.11-54.5 42.36-12.46 6.85-24.29-9.34-12.78-70.08-12.78-70.08zM268.17 314.63s-14.02-15.42 9.11-32.23c0 0 8.41 10.02 6.31 15.52-2.11 5.5-15.42 16.71-15.42 16.71z"/></g><g><path class="st22" d="m443.77 280.51 46.81 34.31a8.532 8.532 0 0 0 11.58-1.4l2.79-3.34c2.99-3.57 2.56-8.89-.96-11.93l-26.93-23.27-33.29 5.63z"/><circle class="st22" cx="535.44" cy="196" r="28.09"/><path class="st7" d="m406.48 267.26 19.07 25.86 137.54-38.54-69.56-99.51z"/><path d="M491.49 150.87s6.64-14.72 17.85-9.81c0 0 62.36 86.9 67.96 99.16 0 0 1.78 15.07-15.23 14.36l-70.58-103.71z" style="fill:#cc93ff"/><path class="st12" d="m550.89 154.89-1.42-2.71 9.51-4.99c3.59-1.88 6.39-5 7.89-8.77l1.43-3.61c1.76-4.45 5.07-8.12 9.31-10.34l3.45-1.81a16.91 16.91 0 0 0 7.88-8.76l3.97-9.99 2.84 1.13-3.97 9.99a20.035 20.035 0 0 1-9.3 10.34l-3.45 1.81c-3.59 1.88-6.39 5-7.89 8.76l-1.43 3.61a20.016 20.016 0 0 1-9.31 10.34l-9.51 5zM598.15 202.01l-.64-2.99 10.5-2.24c3.97-.85 7.5-3.09 9.96-6.32l2.35-3.09a20.02 20.02 0 0 1 11.75-7.45l3.81-.81c3.96-.85 7.5-3.09 9.95-6.31l6.51-8.55 2.43 1.85-6.51 8.55c-2.9 3.8-7.07 6.45-11.75 7.45l-3.81.81c-3.97.85-7.5 3.09-9.96 6.31l-2.35 3.09a20.02 20.02 0 0 1-11.75 7.45l-10.49 2.25zM580.24 166.36l-.4-3.03 8.11-1.07c4.46-.59 8.57-2.97 11.29-6.55l.28-.37c3.21-4.22 8.07-7.04 13.33-7.73l.48-.06c4.45-.59 8.57-2.97 11.29-6.54l4.96-6.52 2.43 1.85-4.96 6.52c-3.21 4.22-8.07 7.03-13.32 7.72l-.48.06c-4.46.59-8.57 2.97-11.29 6.55l-.28.37a20.154 20.154 0 0 1-13.33 7.73l-8.11 1.07z"/></g><g><circle class="st16" cx="721.3" cy="383.09" r="65.53"/><circle class="st7" cx="721.3" cy="383.09" r="60.44"/><g><path class="st20" d="M706.13 363.12c-2.33 0-16.64-4.66-9.98-16.97 0 0 8.65-4.33 11.31-9.32s4.34-1.66 5.66 6.32c1.33 7.98 3.65 18.3 5.98 19.96s-12.97.01-12.97.01z"/><path class="st20" d="M721.77 363.86s-7.65-11.88-4.33-24.9c0 0 1-7.66 11.64-5.69 10.65 1.98 13.31 5.64 9.32 10.96-3.99 5.32-11.31 19.63-11.31 19.63h-5.32z"/><path class="st20" d="M724.77 363.86s1.86-8.98 15.4-11.98c13.54-2.99 22.19-9.65 22.53-12.64.33-2.99 6.99 4.66 0 12.31 0 0 .67 7.32-7.98 7.65-8.65.33-22.77-2.17-26.32 4.66h-3.63z"/><path class="st24" d="M709.89 362.83c-1.82 0-13.03-3.65-7.82-13.29 0 0 6.78-3.39 8.86-7.3s3.4-1.3 4.43 4.95c1.04 6.25 2.86 14.33 4.69 15.64 1.82 1.3-10.16 0-10.16 0z"/><path class="st24" d="M722.13 363.41s-5.99-9.3-3.39-19.51c0 0 .78-6 9.12-4.45 8.34 1.55 10.42 4.42 7.3 8.58-3.13 4.17-8.86 15.37-8.86 15.37h-4.17zM730.34 360.46s2.03-6.89 12.79-8.36c10.76-1.47 17.94-6.11 18.39-8.43s5.16 4.08-.79 9.61c0 0 .05 5.76-6.72 5.46-6.77-.29-17.63-3.15-20.84 1.95l-2.83-.23z"/><path d="M737.32 417.76h-33.77c-7.03 0-12.73-5.7-12.73-12.73v-31.11c0-7.03 5.7-12.73 12.73-12.73h33.77c7.03 0 12.73 5.7 12.73 12.73v31.11c0 7.03-5.7 12.73-12.73 12.73z" style="fill:#f6aa1e"/><path class="st20" d="M716.93 361.42h11.74v56.33h-11.74z"/></g></g><g><circle class="st16" cx="710.72" cy="235.71" r="65.53"/><circle class="st7" cx="710.72" cy="235.71" r="60.44"/><g><circle class="st26" cx="735.94" cy="243.88" r="33.05"/><circle class="st27" cx="735.94" cy="243.88" r="30.42"/><g class="st28"><path class="st7" d="M735.37 220.84h4.59v3.79c3.71.35 6.92 1.76 9.63 4.23l-5.06 6.31c-1.84-1.55-3.39-2.52-4.65-2.91v8c7.03 2.14 10.54 6.11 10.54 11.9 0 2.91-.9 5.37-2.68 7.36-1.79 1.99-4.43 3.3-7.91 3.93v4.81h-4.51v-4.76h-.75c-1.7 0-3.68-.48-5.95-1.44s-4.03-2.19-5.28-3.68l4.84-6.06c2.05 2.12 4.43 3.45 7.14 3.98V247c-3.36-.85-5.92-2.32-7.68-4.43-1.76-2.1-2.64-4.54-2.64-7.3 0-2.93.85-5.41 2.56-7.43 1.71-2.02 4.31-3.11 7.82-3.28v-3.72zm-.06 18.02v-6.81c-1.72.59-2.57 1.69-2.57 3.29 0 1.74.86 2.91 2.57 3.52zm4.57 9.79v7.19c1.9-.48 2.85-1.67 2.85-3.57 0-1.73-.95-2.94-2.85-3.62z"/></g><g><circle class="st26" cx="690.47" cy="235.78" r="39.49"/><circle class="st27" cx="690.47" cy="235.78" r="36.34"/><g class="st28"><path class="st7" d="M689.79 208.25h5.49v4.53c4.43.42 8.26 2.1 11.5 5.06l-6.05 7.54c-2.2-1.85-4.05-3.01-5.55-3.47v9.55c8.4 2.56 12.59 7.29 12.59 14.21 0 3.48-1.07 6.41-3.21 8.79-2.14 2.38-5.29 3.94-9.45 4.69v5.75h-5.39v-5.69h-.89c-2.03 0-4.4-.57-7.11-1.72s-4.82-2.61-6.31-4.4l5.78-7.24c2.45 2.53 5.29 4.12 8.53 4.76V239.5c-4.01-1.01-7.07-2.78-9.17-5.29-2.1-2.51-3.16-5.42-3.16-8.73 0-3.5 1.02-6.46 3.06-8.88 2.04-2.41 5.15-3.72 9.34-3.92v-4.43zm-.07 21.52v-8.13c-2.05.71-3.07 2.02-3.07 3.93 0 2.08 1.02 3.48 3.07 4.2zm5.46 11.71v8.59c2.27-.57 3.4-1.99 3.4-4.26 0-2.08-1.13-3.52-3.4-4.33z"/></g></g></g></g><g><circle class="st16" cx="674.96" cy="540.72" r="65.53"/><circle class="st7" cx="674.96" cy="540.72" r="60.44"/></g><g><path class="st20" d="m379.2 527.64-24.04-23.06 2.92-3.04 20.6 19.76 28.73-38.32 3.37 2.53z"/></g><path class="st20" d="M709.96 527.29c0-20.6-16.69-37.29-37.29-37.29-20.59 0-37.29 16.69-37.29 37.29 0 10.46 4.31 19.91 11.25 26.68l10.01 17.34L665.7 587c3.42 5.92 11.96 5.92 15.38 0l9.05-15.69 13.13-22.74c1.21-1.73 2.28-3.57 3.18-5.51l.44-.76h-.09c2.04-4.59 3.17-9.67 3.17-15.01zm-36.18 27.44c-14.86 0-26.91-12.05-26.91-26.91s12.05-26.91 26.91-26.91 26.91 12.05 26.91 26.91-12.05 26.91-26.91 26.91z"/></g></switch></svg>