<?xml version="1.0" encoding="utf-8"?>
<!-- Generator: Adobe Illustrator 24.3.0, SVG Export Plug-In . SVG Version: 6.00 Build 0)  -->
<svg version="1.1" id="Layer_1" xmlns="http://www.w3.org/2000/svg" xmlns:xlink="http://www.w3.org/1999/xlink" x="0px" y="0px"
	 viewBox="0 0 1000 974" style="enable-background:new 0 0 1000 974;" xml:space="preserve">
<style type="text/css">
	.st0{fill:#E3D4F8;}
	.st1{fill:#CFB5F6;}
	.st2{fill:none;stroke:#FFFFFF;stroke-miterlimit:10;}
	.st3{fill:#58595B;}
	.st4{fill:#414042;}
	.st5{fill:#F1F2F2;}
	.st6{fill:#FFFFFF;}
	.st7{opacity:0.44;}
	.st8{fill:#FEAC02;}
	.st9{fill:#FF4D53;}
	.st10{opacity:0.51;fill:#4570AD;}
	.st11{fill:#7D4ACE;}
	.st12{fill:#1A2C36;}
	.st13{fill:#723218;}
	.st14{fill:#F9757F;}
	.st15{fill:#4570AD;}
	.st16{fill:#A483E5;}
	.st17{fill:#F7D292;}
	.st18{fill:#FF8E8B;}
	.st19{fill:#FFAA9E;}
	.st20{fill:#0F076D;}
	.st21{fill:#FF8882;}
</style>
<g>
	<path class="st0" d="M932.5,464.2c0,255.5-192.9,435.5-438.8,435.5S60.2,724.5,41.9,464.2C24,209.3,241.3,8,487.2,8
		S932.5,208.7,932.5,464.2z"/>
	<path class="st1" d="M909,480.5c0,245.9-183.1,419.2-416.7,419.2S80.5,731,63.2,480.5c-17-245.3,189.3-439,422.9-439
		S909,234.6,909,480.5z"/>
	<g>
		<path class="st2" d="M221.9,133.3c0,0,23.7-9.9,50.9,0h477.8c0,0,33.1,7.4,43.1,38.4s34.7,675.9,34.7,675.9s-3.7,13.6-34.7,17.4
			S279,876.1,279,876.1s-76.9,9.9-93-31s0-661,0-661S182.2,155.6,221.9,133.3z"/>
		<path class="st3" d="M221.9,133.3c0,0,23.7-9.9,50.9,0h477.8c0,0,33.1,7.4,43.1,38.4s34.7,675.9,34.7,675.9s-3.7,13.6-34.7,17.4
			S279,876.1,279,876.1s-76.9,9.9-93-31s0-661,0-661S182.2,155.6,221.9,133.3z"/>
		<path class="st4" d="M218.8,159.9c0,0-11-38.4,54-26.7l459.4,20.5c0,0,40.9-13.6,42.2,24.8c1.2,38.4,32.2,628.8,32.2,628.8
			s-2.5,17.4-19.8,21.1c-17.4,3.7-501,16.1-501,16.1s-62.2,6.9-67.7-27.6S218.8,159.9,218.8,159.9z"/>
		<path class="st5" d="M227.5,163.6c0,0-6.2-22.3,47.1-12.4L736,171.1c0,0,24.8-1.2,24.8,18.6s33.5,608.9,33.5,608.9
			s-6.2,19.8-34.7,21.1c-28.5,1.2-483.7,13.6-483.7,13.6s-47.6-1.1-48.6-60.1C226.2,714.3,227.5,163.6,227.5,163.6z"/>
		<g>
			<path class="st6" d="M393.9,499.7h-39c-4,0-7.2-3.2-7.2-7.2V461c0-4,3.2-7.2,7.2-7.2h39c4,0,7.2,3.2,7.2,7.2v31.5
				C401.1,496.5,397.9,499.7,393.9,499.7z"/>
			<g>
				<path class="st6" d="M402.8,510h-56.6c-5.6,0-10.1-4.5-10.1-10.1v-46.2c0-5.6,4.5-10.1,10.1-10.1h56.6c5.6,0,10.1,4.5,10.1,10.1
					v46.2C412.9,505.5,408.3,510,402.8,510z M346.1,446c-4.2,0-7.7,3.4-7.7,7.7v46.2c0,4.2,3.4,7.7,7.7,7.7h56.6
					c4.2,0,7.7-3.4,7.7-7.7v-46.2c0-4.2-3.4-7.7-7.7-7.7H346.1z"/>
			</g>
		</g>
		<g class="st7">
			<g>
				<path class="st8" d="M396.4,591.5h-39c-4,0-7.2-3.2-7.2-7.2v-31.5c0-4,3.2-7.2,7.2-7.2h39c4,0,7.2,3.2,7.2,7.2v31.5
					C403.6,588.3,400.4,591.5,396.4,591.5z"/>
				<g>
					<path class="st8" d="M405.2,601.8h-56.6c-5.6,0-10.1-4.5-10.1-10.1v-46.2c0-5.6,4.5-10.1,10.1-10.1h56.6
						c5.6,0,10.1,4.5,10.1,10.1v46.2C415.4,597.3,410.8,601.8,405.2,601.8z M348.6,537.8c-4.2,0-7.7,3.4-7.7,7.7v46.2
						c0,4.2,3.4,7.7,7.7,7.7h56.6c4.2,0,7.7-3.4,7.7-7.7v-46.2c0-4.2-3.4-7.7-7.7-7.7H348.6z"/>
				</g>
			</g>
		</g>
		<g>
			<path class="st6" d="M396.4,690.7h-39c-4,0-7.2-3.2-7.2-7.2V652c0-4,3.2-7.2,7.2-7.2h39c4,0,7.2,3.2,7.2,7.2v31.5
				C403.6,687.5,400.4,690.7,396.4,690.7z"/>
			<g>
				<path class="st6" d="M405.2,701h-56.6c-5.6,0-10.1-4.5-10.1-10.1v-46.2c0-5.6,4.5-10.1,10.1-10.1h56.6c5.6,0,10.1,4.5,10.1,10.1
					v46.2C415.4,696.5,410.8,701,405.2,701z M348.6,637c-4.2,0-7.7,3.4-7.7,7.7v46.2c0,4.2,3.4,7.7,7.7,7.7h56.6
					c4.2,0,7.7-3.4,7.7-7.7v-46.2c0-4.2-3.4-7.7-7.7-7.7H348.6z"/>
			</g>
		</g>
		<g>
			<path class="st6" d="M396.4,785h-39c-4,0-7.2-3.2-7.2-7.2v-31.5c0-4,3.2-7.2,7.2-7.2h39c4,0,7.2,3.2,7.2,7.2v31.5
				C403.6,781.8,400.4,785,396.4,785z"/>
			<g>
				<path class="st6" d="M405.2,795.3h-56.6c-5.6,0-10.1-4.5-10.1-10.1v-46.2c0-5.6,4.5-10.1,10.1-10.1h56.6
					c5.6,0,10.1,4.5,10.1,10.1v46.2C415.4,790.7,410.8,795.3,405.2,795.3z M348.6,731.3c-4.2,0-7.7,3.4-7.7,7.7v46.2
					c0,4.2,3.4,7.7,7.7,7.7h56.6c4.2,0,7.7-3.4,7.7-7.7v-46.2c0-4.2-3.4-7.7-7.7-7.7H348.6z"/>
			</g>
		</g>
		<g>
			<g>
				<path class="st9" d="M382.4,591.7l-34.3-24.3c-1.7-1.2-2.1-3.5-0.9-5.2c1.2-1.7,3.5-2.1,5.2-0.9l26.5,18.8l21.2-53.8
					c0.8-1.9,2.9-2.9,4.8-2.1c1.9,0.8,2.9,2.9,2.1,4.8L382.4,591.7z"/>
			</g>
			<g>
				<path class="st9" d="M382.4,692.2l-34.3-24.3c-1.7-1.2-2.1-3.5-0.9-5.2c1.2-1.7,3.5-2.1,5.2-0.9l26.5,18.8l21.2-53.8
					c0.8-1.9,2.9-2.9,4.8-2.1c1.9,0.8,2.9,2.9,2.1,4.8L382.4,692.2z"/>
			</g>
			<g>
				<path class="st9" d="M382.4,792.6l-34.3-24.3c-1.7-1.2-2.1-3.5-0.9-5.2c1.2-1.7,3.5-2.1,5.2-0.9l26.5,18.8l21.2-53.8
					c0.8-1.9,2.9-2.9,4.8-2.1c1.9,0.8,2.9,2.9,2.1,4.8L382.4,792.6z"/>
			</g>
		</g>
		<rect x="438.9" y="469.4" class="st10" width="227" height="18.6"/>
		<rect x="438.9" y="563.6" class="st10" width="227" height="18.6"/>
		<rect x="438.9" y="661.6" class="st10" width="227" height="18.6"/>
		<g>
			<g>
				<path class="st11" d="M289.5,218.3h15v107.2h-15V218.3z M296.8,218.3h61.6v14.3h-61.6V218.3z M296.8,265.2h53.5v14.3h-53.5
					V265.2z M296.8,311.3h61.6v14.3h-61.6V311.3z"/>
				<path class="st11" d="M368.7,218.3h16.4l25.7,84.1l25.7-84.1h16.4l-35,107.2h-14.3L368.7,218.3z"/>
				<path class="st11" d="M469.2,218.3h15v107.2h-15V218.3z M476.5,218.3H538v14.3h-61.6V218.3z M476.5,265.2h53.5v14.3h-53.5V265.2
					z M476.5,311.3H538v14.3h-61.6V311.3z"/>
				<path class="st11" d="M559.4,218.3h13.6l52.4,82.9l-1.8,1.9v-84.8h14.9v107.1h-13.8l-52.3-81.6l1.8-1.9v83.5h-14.9V218.3z"/>
				<path class="st11" d="M656.3,218.3H732v14.3h-75.7V218.3z M686.6,227.1h15v98.4h-15V227.1z"/>
			</g>
		</g>
		<g>
			<path class="st12" d="M323.1,339.4h6.1v46.5h-6.4V351l0.3,2l-11.4,26.3h-4.5l-11.4-25.7l0.3-2.7v34.8h-6.4v-46.5h6.1l13.6,30.7
				L323.1,339.4z"/>
			<path class="st12" d="M352.7,339.4h5.6l17.1,46.5h-7l-12.9-37.5l-12.9,37.5h-7L352.7,339.4z M343.5,369.4h24.4v6.2h-24.4V369.4z"
				/>
			<path class="st12" d="M382.4,339.4h5.9l22.7,35.9l-0.8,0.8v-36.7h6.5v46.4h-6l-22.7-35.4l0.8-0.8v36.2h-6.5V339.4z"/>
			<path class="st12" d="M440.2,339.4h5.6l17.1,46.5h-7L443,348.3l-12.9,37.5h-7L440.2,339.4z M431,369.4h24.4v6.2H431V369.4z"/>
			<path class="st12" d="M499.1,360.8v8.1c0,3.5-0.7,6.5-2,9.1c-1.3,2.6-3.2,4.7-5.7,6.1c-2.5,1.4-5.3,2.2-8.5,2.2
				c-3.3,0-6.2-0.7-8.6-2c-2.5-1.4-4.4-3.3-5.8-5.7c-1.4-2.5-2-5.3-2-8.6v-13.7c0-3.5,0.7-6.5,2-9.1c1.3-2.6,3.2-4.6,5.7-6.1
				c2.5-1.4,5.3-2.2,8.5-2.2c2.7,0,5.1,0.6,7.4,1.7c2.2,1.1,4.1,2.8,5.6,4.8c1.5,2.1,2.5,4.5,3.1,7.3h-7.1c-0.4-1.6-1-2.9-1.9-4
				c-0.9-1.1-2-2-3.2-2.6c-1.2-0.6-2.5-0.9-3.8-0.9c-1.9,0-3.6,0.5-5,1.4c-1.4,0.9-2.6,2.2-3.4,3.9c-0.8,1.7-1.2,3.6-1.2,5.8v13.7
				c0,2,0.4,3.8,1.2,5.3c0.8,1.5,2,2.7,3.4,3.5s3.2,1.2,5.1,1.2c1.9,0,3.6-0.4,5-1.3c1.4-0.9,2.6-2.1,3.4-3.8
				c0.8-1.6,1.2-3.6,1.2-5.8v-2H483v-6.2H499.1z"/>
			<path class="st12" d="M509.1,339.4h6.5v46.5h-6.5V339.4z M512.2,339.4h26.7v6.2h-26.7V339.4z M512.2,359.7h23.2v6.2h-23.2V359.7z
				 M512.2,379.6h26.7v6.2h-26.7V379.6z"/>
			<path class="st12" d="M581.5,339.4h6.1v46.5h-6.4V351l0.3,2l-11.4,26.3h-4.5l-11.4-25.7l0.3-2.7v34.8h-6.4v-46.5h6.1l13.6,30.7
				L581.5,339.4z"/>
			<path class="st12" d="M599.2,339.4h6.5v46.5h-6.5V339.4z M602.3,339.4H629v6.2h-26.7V339.4z M602.3,359.7h23.2v6.2h-23.2V359.7z
				 M602.3,379.6H629v6.2h-26.7V379.6z"/>
			<path class="st12" d="M638.3,339.4h5.9l22.7,35.9l-0.8,0.8v-36.7h6.5v46.4h-6l-22.7-35.4l0.8-0.8v36.2h-6.5V339.4z"/>
			<path class="st12" d="M680.2,339.4H713v6.2h-32.8V339.4z M693.4,343.2h6.5v42.7h-6.5V343.2z"/>
		</g>
		<g>
			<ellipse class="st4" cx="215.4" cy="455.1" rx="84.6" ry="79.4"/>
			<ellipse class="st6" cx="217.4" cy="457" rx="70.8" ry="66.4"/>
			<path class="st13" d="M270.3,509.8H163.1c-9.1,0-16.4-7.4-16.4-16.5v-58.3c0-4.9,3.2-9.2,7.8-10.6c19.2-5.9,70.6-18,120,1.7
				c4.4,1.7,7.4,5.8,7.8,10.6l0.6,7l3.9,48.3C287.5,501.6,279.9,509.8,270.3,509.8z"/>
			<rect x="174.6" y="397.4" class="st8" width="20.7" height="27.9"/>
			<polygon class="st8" points="204.3,396.2 224.2,396.2 223.1,415.5 204.3,416.8 			"/>
			<rect x="231.5" y="399.9" class="st8" width="18.6" height="23.5"/>
			<path class="st9" d="M184.8,392.1c0,0-9.6,1.3-7.6-7.9c2.1-9.3,9.2-14.4,9.2-14.4s7.7,11.7,7,17.2
				C192.6,392.4,184.8,392.1,184.8,392.1z"/>
			<path class="st9" d="M213.4,390c0,0-9.6,1.3-7.6-7.9c2.1-9.3,9.2-14.4,9.2-14.4s7.7,11.7,7,17.2C221.2,390.3,213.4,390,213.4,390
				z"/>
			<path class="st9" d="M239.7,392.1c0,0-9.6,1.3-7.6-7.9c2.1-9.3,9.2-14.4,9.2-14.4s7.7,11.7,7,17.2
				C247.5,392.4,239.7,392.1,239.7,392.1z"/>
			<path class="st9" d="M278.1,457c0,0,8.4,10.5,0,19.6c-8.4,9.1-12.5-5.4-12.5-5.4v-17.9c-2.3-11.8-11.3-4.3-11.3-4.3
				s2.5,16.1-4,16.8c-6.5,0.7-8.3-5.6-7.9-12.5c0.4-6.8-6.6-8-9.1-4.2c-1.4,2.2-1.2,7.5-0.8,11.6c0.4,3.9-3.4,7.1-7.1,5.7
				c-2.5-1-4.5-3.5-4.6-9.3c-0.1-14.3-5.4-13.1-5.4-13.1c-11.7-0.1-13,11.2-8.7,21.8c4.2,10.6-6.7,13-14.7,11.1
				c-8-1.9-0.6-19.2-4-30.1c-3.3-10.9-11.3,0-11.3,0v11.7c0,1.9-1,3.7-2.7,4.7c-3.4,1.9-10.4,3.1-9.8-7.9c0.4-7.3-0.3-11.4-1.5-13.6
				c-1.5-2.9-5.9-1.8-5.9,1.5v12.1c-2.1,7.1-6.6,6.7-10.2,5v-25.1c0-4.9,3.2-9.2,7.8-10.6c19.2-5.9,70.6-18,120,1.7
				c4.4,1.7,7.4,5.8,7.8,10.6l0.6,7l-1.1,2.4c0,0-2.8-1-6.5,0.3C271.6,447.6,278.1,457,278.1,457z"/>
		</g>
		<g>
			<ellipse class="st4" cx="165.9" cy="636.6" rx="85" ry="79.4"/>
			<ellipse class="st6" cx="167.9" cy="638.4" rx="71" ry="66.4"/>
		</g>
		<g>
			<ellipse class="st4" cx="204.3" cy="833.9" rx="85" ry="80.7"/>
			<ellipse class="st6" cx="206.3" cy="835.8" rx="71" ry="67.5"/>
		</g>
		<g>
			<circle class="st8" cx="220.7" cy="650.4" r="40.9"/>
			<circle class="st6" cx="220.7" cy="650.4" r="36.1"/>
			<g>
				<g>
					<path class="st8" d="M213.4,671.1c-1.8-0.5-3.5-1.2-5.1-2.2c-1.6-1-3.1-2.2-4.5-3.7l4.3-5.3c1.5,1.8,3.2,3.2,5,4.1
						c1.8,0.9,3.9,1.4,6,1.4c3,0,5.2-0.6,6.7-1.8c1.5-1.2,2.2-2.9,2.2-5.3v0c0-1.5-0.4-2.7-1.1-3.6c-0.7-0.9-1.6-1.6-2.8-2
						c-1.1-0.4-2.6-0.8-4.4-1.2c-0.1,0-0.1,0-0.2,0c-0.1,0-0.1,0-0.2,0c-0.1,0-0.2,0-0.3-0.1c-0.1,0-0.2,0-0.3-0.1
						c-2.8-0.5-5.1-1.1-6.9-1.8c-1.8-0.7-3.2-1.8-4.5-3.6c-1.2-1.7-1.9-4.2-1.9-7.3v0c0-3.1,0.6-5.6,1.7-7.7c1.1-2,2.8-3.6,5-4.6
						c2.2-1,5-1.5,8.4-1.5c1.5,0,2.9,0.2,4.4,0.5c1.4,0.3,2.9,0.8,4.3,1.4c1.4,0.6,2.8,1.4,4.2,2.3l-3.9,5.3
						c-1.6-1.1-3.1-1.8-4.6-2.4c-1.5-0.5-3-0.8-4.4-0.8c-2.8,0-4.9,0.6-6.3,1.7c-1.4,1.2-2.1,2.9-2.1,5.2v0c0,1.6,0.4,2.8,1.2,3.7
						c0.8,0.9,1.8,1.6,3,2c1.2,0.4,2.9,0.9,5,1.3c0.1,0,0.2,0,0.3,0.1c0.1,0,0.2,0,0.3,0.1c0.1,0,0.2,0,0.3,0.1c0.1,0,0.2,0,0.3,0.1
						c2.5,0.5,4.6,1.2,6.2,2c1.7,0.8,3.1,2.1,4.2,3.8c1.1,1.8,1.7,4.1,1.7,7.2v0.1c0,3-0.6,5.4-1.7,7.4s-2.9,3.4-5.2,4.4
						c-2.3,1-5.2,1.5-8.7,1.5C217.2,671.9,215.3,671.6,213.4,671.1z M216.6,619.8h6.5v7.2h-6.5V619.8z M216.6,669.4h6.5v7.6h-6.5
						V669.4z"/>
				</g>
			</g>
		</g>
		<g>
			<circle class="st8" cx="179.7" cy="650.4" r="40.9"/>
			<circle class="st6" cx="179.7" cy="650.4" r="36.1"/>
			<g>
				<g>
					<path class="st8" d="M172.5,671.1c-1.8-0.5-3.5-1.2-5.1-2.2c-1.6-1-3.1-2.2-4.5-3.7l4.3-5.3c1.5,1.8,3.2,3.2,5,4.1
						c1.8,0.9,3.9,1.4,6,1.4c3,0,5.2-0.6,6.7-1.8c1.5-1.2,2.2-2.9,2.2-5.3v0c0-1.5-0.4-2.7-1.1-3.6c-0.7-0.9-1.6-1.6-2.8-2
						c-1.1-0.4-2.6-0.8-4.4-1.2c-0.1,0-0.1,0-0.2,0c-0.1,0-0.1,0-0.2,0c-0.1,0-0.2,0-0.3-0.1c-0.1,0-0.2,0-0.3-0.1
						c-2.8-0.5-5.1-1.1-6.9-1.8c-1.8-0.7-3.2-1.8-4.5-3.6c-1.2-1.7-1.9-4.2-1.9-7.3v0c0-3.1,0.6-5.6,1.7-7.7c1.1-2,2.8-3.6,5-4.6
						c2.2-1,5-1.5,8.4-1.5c1.5,0,2.9,0.2,4.4,0.5c1.4,0.3,2.9,0.8,4.3,1.4c1.4,0.6,2.8,1.4,4.2,2.3l-3.9,5.3
						c-1.6-1.1-3.1-1.8-4.6-2.4c-1.5-0.5-3-0.8-4.4-0.8c-2.8,0-4.9,0.6-6.3,1.7c-1.4,1.2-2.1,2.9-2.1,5.2v0c0,1.6,0.4,2.8,1.2,3.7
						c0.8,0.9,1.8,1.6,3,2c1.2,0.4,2.9,0.9,5,1.3c0.1,0,0.2,0,0.3,0.1c0.1,0,0.2,0,0.3,0.1c0.1,0,0.2,0,0.3,0.1c0.1,0,0.2,0,0.3,0.1
						c2.5,0.5,4.6,1.2,6.2,2c1.7,0.8,3.1,2.1,4.2,3.8c1.1,1.8,1.7,4.1,1.7,7.2v0.1c0,3-0.6,5.4-1.7,7.4c-1.2,2-2.9,3.4-5.2,4.4
						c-2.3,1-5.2,1.5-8.7,1.5C176.3,671.9,174.3,671.6,172.5,671.1z M175.7,619.8h6.5v7.2h-6.5V619.8z M175.7,669.4h6.5v7.6h-6.5
						V669.4z"/>
				</g>
			</g>
		</g>
		<g>
			<circle class="st8" cx="119" cy="626.9" r="63.2"/>
			<circle class="st6" cx="119" cy="626.9" r="55.8"/>
			<g>
				<g>
					<path class="st8" d="M107.8,658.9c-2.8-0.8-5.5-1.9-7.9-3.4c-2.5-1.5-4.8-3.4-6.9-5.7l6.7-8.1c2.3,2.8,4.9,5,7.8,6.4
						c2.9,1.4,6,2.1,9.3,2.1c4.6,0,8.1-0.9,10.4-2.7c2.3-1.8,3.4-4.6,3.4-8.2v0c0-2.3-0.6-4.2-1.7-5.6c-1.1-1.4-2.5-2.4-4.3-3.1
						c-1.8-0.7-4-1.3-6.7-1.8c-0.1,0-0.2,0-0.3,0c-0.1,0-0.2,0-0.3,0c-0.2,0-0.3-0.1-0.5-0.1c-0.2,0-0.4-0.1-0.5-0.1
						c-4.4-0.8-7.9-1.7-10.6-2.7c-2.7-1-5-2.8-6.9-5.5c-1.9-2.7-2.9-6.4-2.9-11.3v0c0-4.8,0.9-8.7,2.6-11.9c1.7-3.1,4.3-5.5,7.8-7.1
						c3.4-1.6,7.8-2.4,12.9-2.4c2.3,0,4.5,0.2,6.8,0.7c2.2,0.5,4.4,1.2,6.6,2.2c2.2,1,4.4,2.2,6.5,3.6l-6,8.3
						c-2.4-1.6-4.8-2.8-7.1-3.6c-2.3-0.8-4.6-1.2-6.8-1.2c-4.3,0-7.5,0.9-9.7,2.7c-2.2,1.8-3.2,4.4-3.2,8v0c0,2.4,0.6,4.4,1.9,5.7
						c1.2,1.4,2.8,2.4,4.7,3.1c1.9,0.7,4.4,1.3,7.7,2.1c0.1,0,0.3,0.1,0.4,0.1c0.1,0,0.3,0.1,0.4,0.1c0.2,0,0.3,0.1,0.5,0.1
						c0.1,0,0.3,0.1,0.5,0.1c3.8,0.8,7.1,1.9,9.7,3.1c2.6,1.2,4.8,3.2,6.5,5.9c1.7,2.7,2.6,6.4,2.6,11.1v0.1c0,4.6-0.9,8.4-2.7,11.5
						c-1.8,3-4.5,5.3-8,6.8c-3.6,1.5-8,2.3-13.4,2.3C113.6,660,110.6,659.6,107.8,658.9z M112.7,579.5h10v11.2h-10V579.5z
						 M112.7,656.2h10v11.8h-10V656.2z"/>
				</g>
			</g>
		</g>
		<path class="st9" d="M227.9,745c-13.3-5.4-28.3-6.5-41.6-0.7C97,783.6,208.3,891,208.3,891C302.1,795.3,258.1,757.3,227.9,745z
			 M208.3,837.7c-21.9,0-39.7-17.8-39.7-39.7c0-21.9,17.8-39.7,39.7-39.7s39.7,17.8,39.7,39.7C247.9,819.9,230.2,837.7,208.3,837.7z
			"/>
		<g>
			<path class="st14" d="M447,755.8l6.9,114.9c0,0,4.6,19,15.3,17.8c8-0.9,65.5-0.5,93.9-0.2c8.7,0.1,15.8-6.9,15.8-15.6V755.8
				c0,0,3.7-9.7-14.8-16.7c-18.5-6.9-98.9-1.2-98.9-1.2S447.5,747.2,447,755.8z"/>
			<path class="st15" d="M496.6,743.4l-31.4-5.4c0,0-25.7-7.4-3.6-24.5c0,0,8.4-34.1,25.1-23.8c16.7,10.3,26.4,46.1,26.4,46.1
				S513.3,752,496.6,743.4z"/>
			<rect x="500.9" y="729.8" class="st15" width="31" height="157.5"/>
			<path class="st15" d="M509.3,713.4c0,0,2.3-13.4,3.8-24.6c1.5-11.2,20.7-11.2,23.5-1.2c2.8,9.9,11.9,26.1,22.8,29.2
				s6,23.1-7,21.1s-39.3-2.2-39.3-2.2S511.5,708.3,509.3,713.4z"/>
		</g>
		<g>
			<path class="st16" d="M570.3,775.4h86.1c0,0,21.4-1.8,22.3,17.2s0,76.2,0,76.2s0.4,17.7-22.3,18.1s-75.1,0-75.1,0
				s-9.7,3.8-17.1-9.7c-7.4-13.5-14.3-84.6-14.3-84.6S555.2,775.2,570.3,775.4z"/>
			<path class="st17" d="M603.2,776.9l-31.4-5.4c0,0-25.7-7.4-3.6-24.5c0,0,8.4-34.1,25.1-23.8c16.7,10.3,26.4,46.1,26.4,46.1
				S620,785.5,603.2,776.9z"/>
			<rect x="606.4" y="775.7" class="st17" width="31" height="111.6"/>
			<path class="st17" d="M612.7,753.3c0,0,0.7-14.7,0.9-26.9c0.2-12.2,21.5-14.9,26-4.6s16.7,26.4,29.4,28.2s9.8,24-5,23.7
				s-44.1,3.1-44.1,3.1S614.5,747.5,612.7,753.3z"/>
		</g>
		<g>
			<g>
				<path class="st9" d="M593.8,98.8l-61.2-3.4c0,0,26-39.7-8.7-65.7c-20.2-15.1-35.5-10.5-44.9-3.9c-6.5,4.6-10.3,12.1-10.3,20.1
					v43.4c0,0-26.7-3.7-57.7,0s-17,39.6-17,39.6s204.3,5,211.4,0c14.3-10.1,7.1-19.8,0.6-25.2C602.6,100.7,598.3,99.1,593.8,98.8z
					 M500.9,75.6c-7.9,0-14.3-6.4-14.3-14.3c0-7.9,6.4-14.3,14.3-14.3c7.9,0,14.3,6.4,14.3,14.3C515.2,69.2,508.8,75.6,500.9,75.6z"
					/>
				<path class="st4" d="M336.9,122.7h316.8c4.7,0,9.2,1.7,12.8,4.8c10.5,9.1,28.1,29.4-1.7,44.7c-2.7,1.4-5.8,2.1-8.8,2.1H337.6
					c-8.6,0-16.7-4.4-21.2-11.7c-4.4-7.3-7.2-17.3-0.7-28.1C320.2,127.1,328.3,122.7,336.9,122.7z"/>
			</g>
		</g>
	</g>
	<path class="st18" d="M174.8,397.4"/>
	<g>
		<path class="st19" d="M760.8,491.1l16.1,26c0,0,11.2,3.7,11.2,12.4s-4.9,17.3-12.4,16.7c-7.5-0.6-18.6,3.1-18.6-4.3
			c0-7.4,4.7-13.6,4.7-13.6l-4.7-11.3L760.8,491.1z"/>
		<polygon class="st19" points="807.9,879.2 807.9,893.4 826.6,893.4 826.6,877.2 		"/>
		<polygon class="st19" points="898.4,868.1 904.5,885.3 919.5,877.2 914.6,865.6 		"/>
		<path class="st12" d="M807.9,887.5c0,0-21.1,1.7-28.5,15.3c0,0-7.4,6.2-3.7,11.2h55.2l-0.6-23.6
			C830.2,890.4,812.9,892,807.9,887.5z"/>
		<path class="st12" d="M898.4,881.7c0,0,13.6-7.5,21.1-6.3c0,0,9.9,8.7,12.4,23.6c0,0,3.7,26-16.7,14.9c0,0-9.3-7.4-11.8-14.9
			S898.4,881.7,898.4,881.7z"/>
		<ellipse class="st19" cx="749" cy="503.5" rx="16.7" ry="24.8"/>
		<path class="st20" d="M735,489.9c0,0-18.9-1.3-16.4-10c2.5-8.7,7.9-20.1,16.4-15c8.4,5.1,17.1,2.6,17.1,2.6s11.2-8.7,17.4,5
			c0,0,1.2,6.2,5,9.9s-1.9,19.2-1.9,19.2l-2.5,5c0,0-13-6.8-14.3-11.8c-1.2-5,0-7.4-5-7.4S735,489.9,735,489.9z"/>
		<path class="st19" d="M713.6,615.1c0,0-13.6,13.6-31,6.2c-17.4-7.4-19-6.2-19-6.2l0.4,11.2c0,0,17.4,11.2,29.8,14.9
			c12.4,3.7,36-2.5,36-2.5v-8.2L713.6,615.1z"/>
		<polygon class="st15" points="774.4,659.7 805.4,881.7 829,880.5 829,731.1 896,870.6 919.5,868.1 878.6,747.8 837.7,669.6 		"/>
		<path class="st8" d="M781.9,519.6l26,3.7c0,0,23.6-3.7,33.5,9.9c7.1,9.7,17.3,23.3,22.6,30.2c2.3,3,3.7,6.5,4.1,10.1l5.5,44
			l-24.8,1.2l-4.1-23.5c-0.6-3.3-1.6-13.2-4-15.6l-11.2-16.1l10.5,108.5l-72.6-5.3l-13-64.1c0,0-12.4,37.2-24.8,36l-16.1-23.6
			c0,0,16.1-23.9,18.6-39.8c0,0-1-40.7,28.7-45.7c0,0-1.4,13.6,12.3,9.9S781.9,519.6,781.9,519.6z"/>
		
			<ellipse transform="matrix(0.1519 -0.9884 0.9884 0.1519 155.9716 1181.2551)" class="st19" cx="766.3" cy="499.7" rx="7.5" ry="5.1"/>
		<path class="st19" d="M871.3,616.9c0,0,3.7,25.8-10,41.7l-6.2,11c0,0-2.7,3.7-12.5,0c0,0-9,3.7-12.6,2.5c-3.5-1.2-8.5-2.5-7.3-6.1
			c1.2-3.7,6.2-4.9,10-4.9c3.7,0,10,1.2,10,1.2s0.3,1.1,4.5-5.6c4.2-6.7,3-36.1,3-36.1l-0.4-3.7H871.3z"/>
	</g>
	<g>
		<path class="st9" d="M547.5,582.8l390.7,115.3c0,0,28.5,21.4,1.6,54.9c-5.4,6.8-14.5,9.5-22.8,6.9L531.3,639.9L547.5,582.8z"/>
		<path class="st21" d="M532.7,639.8l-58.9-31.3l-50.3-30.6l60,1.2l66.5,3.8C549.9,582.8,567.5,618.7,532.7,639.8z"/>
		<path class="st12" d="M483.4,579c0.1,8.8-1.8,19.7-9.6,29.4l-50.3-30.6L483.4,579z"/>
		<g>
			<path class="st6" d="M932.5,718c-0.2,0-0.3,0-0.5-0.1L561.9,610.3c-1-0.3-1.6-1.3-1.3-2.3c0.3-1,1.3-1.6,2.3-1.3l370.1,107.7
				c1,0.3,1.6,1.3,1.3,2.3C934.1,717.5,933.3,718,932.5,718z"/>
		</g>
		<g>
			<path class="st6" d="M921.4,740.3c-0.2,0-0.4,0-0.5-0.1L557.3,630.4c-1-0.3-1.5-1.3-1.2-2.3c0.3-1,1.3-1.5,2.3-1.2l363.5,109.8
				c1,0.3,1.5,1.3,1.2,2.3C922.9,739.8,922.2,740.3,921.4,740.3z"/>
		</g>
	</g>
</g>
</svg>
