<svg version="1.1" id="Layer_1" xmlns="http://www.w3.org/2000/svg" x="0" y="0" viewBox="0 0 932.95 728.41" style="enable-background:new 0 0 932.95 728.41" xml:space="preserve"><style>.st0{fill:#d5b8e8}.st1{fill:#f8ac0e}.st2{fill:#fff}.st3{fill:#466eb6}.st4{fill:#e6e7e8}.st6{fill:#96d9c9}.st7{fill:#7bb7a7}.st9{fill:#fefefe}.st13{fill:#8e21dd}.st14{fill:#ff4f5b}</style><switch><g><path class="st0" d="M101.48 651.53s-224.74-225.12 13.77-389.03c0 0 152.56-46.19 243.7-179.37s434.83-106.35 483.56 157.3c41.51 224.57-34.65 431.26-180.7 465.56-37 8.69-75.79.92-107.72-19.71-33.53-21.67-99.73-45.45-195.14 6.87-143.12 78.48-257.47-41.62-257.47-41.62z"/><path class="st1" d="M177.46 350.09h555.56c17.77 0 25.36-22.59 11.19-33.32L498.49 130.74c-12.2-9.24-29.1-9.1-41.15.33L219.8 316.96c-13.88 10.86-6.2 33.14 11.42 33.14h556.99"/><path class="st2" d="M698.48 548.08H259.96c-8.61 0-15.59-6.98-15.59-15.59V167.7c0-8.61 6.98-15.59 15.59-15.59h438.51c8.61 0 15.59 6.98 15.59 15.59v364.79c.01 8.61-6.97 15.59-15.58 15.59z"/><path class="st3" d="M461.63 207.66H302.64c-5.73 0-10.37-4.64-10.37-10.37 0-5.73 4.64-10.37 10.37-10.37h158.99c5.73 0 10.37 4.64 10.37 10.37 0 5.73-4.64 10.37-10.37 10.37z"/><path class="st4" d="M658.83 262.5h-356.2c-5.73 0-10.37-4.64-10.37-10.37 0-5.73 4.64-10.37 10.37-10.37h356.2c5.73 0 10.37 4.64 10.37 10.37 0 5.73-4.64 10.37-10.37 10.37zM658.83 308.07h-356.2c-5.73 0-10.37-4.64-10.37-10.37s4.64-10.37 10.37-10.37h356.2c5.73 0 10.37 4.64 10.37 10.37s-4.64 10.37-10.37 10.37zM660.94 347.47h-356.2c-5.73 0-10.37-4.64-10.37-10.37 0-5.73 4.64-10.37 10.37-10.37h356.2c5.73 0 10.37 4.64 10.37 10.37 0 5.73-4.65 10.37-10.37 10.37zM660.94 393.03h-356.2c-5.73 0-10.37-4.64-10.37-10.37 0-5.73 4.64-10.37 10.37-10.37h356.2c5.73 0 10.37 4.64 10.37 10.37 0 5.73-4.65 10.37-10.37 10.37zM660.94 438.6h-356.2c-5.73 0-10.37-4.64-10.37-10.37 0-5.73 4.64-10.37 10.37-10.37h356.2c5.73 0 10.37 4.64 10.37 10.37 0 5.72-4.65 10.37-10.37 10.37z"/><path class="st1" d="M753.9 339.68v272.91c0 12.32-9.98 22.3-22.3 22.3H233.97c-12.32 0-22.3-9.98-22.3-22.3V339.68c0-12.32 9.98-22.29 22.3-22.29h13.99l213.67 133.08.99-.64c12.3-7.9 28.07-7.93 40.42-.12l1.01.64L716.89 317.4h14.71c12.32 0 22.3 9.97 22.3 22.28z"/><path d="M753.9 608.75v3.84c0 12.32-9.98 22.3-22.3 22.3H233.97c-12.32 0-22.3-9.98-22.3-22.3v-1.74l249.96-160.37.99-.64c12.3-7.9 28.07-7.93 40.42-.12l1.01.64L753.9 608.75z" style="opacity:.27;fill:#fff"/><path class="st6" d="m195.67 207.67-77.42 66.7.02-.68 3.71-85.81 37.09 9.96z"/><path class="st7" d="m159.07 197.84-40.8 75.85 3.71-85.81z"/><path style="fill:#f3b347" d="M304.74 436.3h356.2"/><path transform="rotate(-4.002 689.95 387.953)" class="st3" d="M572.07 340.52h236.27v95.13H572.07z"/><circle class="st9" cx="622.78" cy="395.81" r="43.32"/><path d="M686.24 363.65c-2-.36-3.57-2.04-3.71-4.16a4.534 4.534 0 0 1 4.22-4.83l93.22-6.25a4.54 4.54 0 0 1 4.83 4.22c.17 2.5-1.72 4.66-4.22 4.83l-93.22 6.25c-.38.03-.76.01-1.12-.06z" style="fill:#345e9b"/><path class="st2" d="M687.03 381.58c-2-.36-3.57-2.04-3.71-4.16a4.534 4.534 0 0 1 4.22-4.83l93.22-6.25c2.49-.16 4.66 1.72 4.83 4.22.17 2.5-1.72 4.66-4.22 4.83l-93.22 6.25c-.38.03-.76 0-1.12-.06zM687.34 403.81c-2-.36-3.57-2.04-3.71-4.16a4.534 4.534 0 0 1 4.22-4.83l93.22-6.25c2.49-.16 4.66 1.72 4.83 4.22.17 2.5-1.72 4.66-4.22 4.83l-93.22 6.25c-.39.03-.76.01-1.12-.06zM689.99 426.47c-2-.36-3.57-2.04-3.71-4.16a4.534 4.534 0 0 1 4.22-4.83l93.22-6.25c2.49-.16 4.66 1.72 4.83 4.22.17 2.5-1.72 4.66-4.22 4.83l-93.22 6.25c-.38.03-.76.01-1.12-.06z"/><g><circle class="st3" cx="622.52" cy="379.17" r="14.77"/><path class="st3" d="M597.57 423.92c0-14.49 11.75-26.24 26.24-26.24s26.24 11.75 26.24 26.24"/></g><g><path transform="rotate(-14.35 701.84 297.704)" style="fill:#8924da" d="M583.8 250.13h236.27v95.13H583.8z"/><circle class="st9" cx="636.98" cy="317.4" r="43.32"/><path d="M693.64 274.37a4.539 4.539 0 0 1-1.11-8.94l90.58-22.89c2.42-.61 4.9.86 5.51 3.29.61 2.43-.86 4.9-3.29 5.51l-90.58 22.89c-.37.09-.74.14-1.11.14z" style="fill:#5e1a99"/><path class="st9" d="M697.63 291.86a4.539 4.539 0 0 1-1.11-8.94l90.58-22.89c2.42-.61 4.9.86 5.51 3.29.61 2.43-.86 4.9-3.29 5.51l-90.58 22.89c-.36.1-.74.14-1.11.14zM701.93 313.68a4.539 4.539 0 0 1-1.11-8.94l90.58-22.89c2.42-.61 4.9.86 5.51 3.29.61 2.43-.86 4.9-3.29 5.51l-90.58 22.89c-.37.09-.74.14-1.11.14zM708.61 335.5a4.539 4.539 0 0 1-1.11-8.94l90.58-22.89c2.42-.61 4.9.86 5.51 3.29.61 2.43-.86 4.9-3.29 5.51l-90.58 22.89c-.37.09-.74.14-1.11.14z"/><g><circle class="st13" cx="634.02" cy="308.07" r="14.77"/><path class="st13" d="M624.81 358.63c-4.84-13.66 2.31-28.66 15.97-33.5s28.66 2.31 33.5 15.97"/></g></g><g><circle class="st14" cx="862.91" cy="417.85" r="63.9"/><path class="st2" d="M888.63 461.68c-7.9 4.16-15.94 5.74-25.56 5.74-23.55 0-43.51-17.23-43.51-44.8 0-29.58 20.53-55.14 52.41-55.14 24.99 0 41.79 17.52 41.79 41.5 0 21.54-12.06 34.18-25.56 34.18-5.74 0-11.06-3.88-10.63-12.64H877c-5.03 8.47-11.63 12.64-20.25 12.64-8.33 0-15.51-6.75-15.51-18.09 0-17.81 14.07-34.03 34.03-34.03 6.17 0 11.63 1.29 15.37 3.02l-4.88 25.99c-2.15 10.91-.43 15.94 4.31 16.08 7.32.14 15.51-9.62 15.51-26.28 0-20.82-12.49-35.76-34.75-35.76-23.41 0-43.08 18.52-43.08 47.68 0 23.98 15.65 38.77 36.91 38.77 8.19 0 15.8-1.72 21.68-5.03l2.29 6.17zm-7.9-62.03c-1.44-.43-3.88-1.01-7.18-1.01-12.64 0-22.83 11.92-22.83 25.85 0 6.32 3.16 10.91 9.48 10.91 8.33 0 15.94-10.63 17.52-19.53l3.01-16.22z"/></g><g><path class="st6" d="M414.41 550.46s-2.23 1.68-6.46 4.32M110.46 212.09a3.222 3.222 0 0 0-4.29-1.59c-4.17 1.91-8.32 4.02-12.3 6.26a3.233 3.233 0 0 0-1.23 4.41c.6 1.06 1.7 1.66 2.83 1.66.54 0 1.09-.14 1.59-.41 3.82-2.17 7.79-4.19 11.81-6.02a3.251 3.251 0 0 0 1.59-4.31zM85.1 225.91a3.229 3.229 0 0 0-4.51-.79 157.61 157.61 0 0 0-12.42 9.61 3.248 3.248 0 0 0-.35 4.58c.64.74 1.56 1.13 2.46 1.13.75 0 1.49-.26 2.1-.78 3.81-3.25 7.82-6.37 11.91-9.23 1.47-1.04 1.83-3.06.81-4.52zm-23.77 19.5a3.23 3.23 0 0 0-4.58.09c-3.6 3.73-7.08 7.7-10.33 11.8a3.24 3.24 0 0 0 .52 4.55c.6.48 1.31.7 2.01.7.96 0 1.91-.41 2.54-1.22 3.14-3.93 6.47-7.75 9.93-11.33a3.233 3.233 0 0 0-.09-4.59zm-19.6 23.64c-1.5-.97-3.51-.56-4.5.93a181.09 181.09 0 0 0-8 13.48 3.242 3.242 0 0 0 2.85 4.77c1.15 0 2.28-.62 2.87-1.71 2.37-4.45 4.97-8.82 7.71-12.98.98-1.49.56-3.5-.93-4.49zm-15.04 26.83a3.24 3.24 0 0 0-4.25 1.7c-2.05 4.76-3.93 9.67-5.57 14.62a3.251 3.251 0 0 0 3.08 4.28c1.35 0 2.62-.86 3.07-2.22 1.59-4.78 3.41-9.53 5.38-14.12.7-1.64-.06-3.55-1.71-4.26zm179.08 36.23c-.62-.01-1.22-.04-1.85-.01-4.65 0-9.35.29-13.95.86-1.78.23-3.05 1.84-2.83 3.62a3.255 3.255 0 0 0 3.22 2.85c.13 0 .27-.01.4-.03 4.36-.54 8.78-.82 13.16-.82.58-.03 1.17 0 1.75.01 1.83.06 3.27-1.4 3.29-3.19.03-1.78-1.4-3.26-3.19-3.29zm31.21 4.98c-5.02-1.57-10.2-2.77-15.43-3.6a3.22 3.22 0 0 0-3.71 2.68 3.22 3.22 0 0 0 2.68 3.71c4.93.79 9.81 1.93 14.52 3.4.32.1.65.14.97.14 1.37 0 2.66-.88 3.09-2.27.54-1.71-.41-3.53-2.12-4.06zM16.42 324.87c-1.74-.44-3.49.64-3.92 2.37a193.38 193.38 0 0 0-3.14 15.32 3.231 3.231 0 0 0 3.2 3.76c1.56 0 2.93-1.13 3.19-2.71.82-4.98 1.83-9.96 3.03-14.83.44-1.74-.62-3.49-2.36-3.91zM178.4 338.3c-.47-1.72-2.26-2.75-3.98-2.27a108.93 108.93 0 0 0-14.95 5.25c-1.65.71-2.4 2.62-1.69 4.27a3.233 3.233 0 0 0 4.26 1.67c4.52-1.97 9.26-3.63 14.07-4.94a3.235 3.235 0 0 0 2.29-3.98zm87.05 12.57c-4.34-2.98-8.96-5.67-13.72-7.97a3.246 3.246 0 0 0-4.33 1.52 3.25 3.25 0 0 0 1.5 4.33c4.47 2.15 8.8 4.67 12.86 7.47.57.39 1.21.57 1.84.57 1.02 0 2.05-.49 2.67-1.4 1.02-1.48.66-3.51-.82-4.52zm-115.54-1.18a3.228 3.228 0 0 0-4.46-1.02c-4.5 2.83-8.79 6.02-12.76 9.46a3.255 3.255 0 0 0-.32 4.58c.65.74 1.54 1.11 2.45 1.11.75 0 1.52-.26 2.13-.8 3.71-3.23 7.73-6.21 11.94-8.85 1.51-.96 1.98-2.96 1.02-4.48zm-138.96 5.44c-1.76-.12-3.34 1.18-3.49 2.97-.43 5.19-.66 10.44-.67 15.62a3.233 3.233 0 0 0 3.23 3.25h.01c1.78 0 3.23-1.44 3.24-3.23.01-5.02.23-10.1.65-15.12a3.245 3.245 0 0 0-2.97-3.49zm277.52 17.45c-3.27-4.17-6.86-8.13-10.68-11.73a3.23 3.23 0 0 0-4.58.14 3.24 3.24 0 0 0 .13 4.58c3.59 3.38 6.95 7.08 10.02 11.01.64.82 1.58 1.24 2.55 1.24.7 0 1.4-.22 1.98-.69 1.43-1.11 1.69-3.14.58-4.55zm-162.34-3.5a3.245 3.245 0 0 0-4.56.41c-3.38 4.04-6.47 8.41-9.18 12.96-.91 1.54-.4 3.53 1.14 4.45.52.31 1.09.45 1.65.45 1.1 0 2.18-.57 2.79-1.58 2.54-4.27 5.42-8.35 8.58-12.13 1.14-1.37.95-3.41-.42-4.56zm178 30.89-.12-.29c-1.96-4.84-4.23-9.53-6.74-13.94a3.232 3.232 0 0 0-4.42-1.21c-1.56.88-2.1 2.87-1.21 4.42 2.36 4.16 4.51 8.6 6.37 13.17l.13.3a3.209 3.209 0 0 0 4.22 1.76 3.201 3.201 0 0 0 1.77-4.21zm-288.51 3.9c-.8-4.93-1.4-9.98-1.79-15.01a3.242 3.242 0 0 0-3.49-2.98c-1.78.14-3.11 1.7-2.98 3.49.41 5.2 1.04 10.44 1.85 15.54a3.25 3.25 0 0 0 3.2 2.72c.17 0 .35-.01.52-.05a3.23 3.23 0 0 0 2.69-3.71zm93.95-8.98a3.23 3.23 0 0 0-4.21 1.79c-1.94 4.82-3.57 9.9-4.84 15.08a3.25 3.25 0 0 0 2.39 3.93c.26.05.52.09.76.09 1.47 0 2.79-1 3.15-2.48 1.19-4.87 2.72-9.66 4.55-14.2.67-1.66-.14-3.55-1.8-4.21zm199.36 20.44c-.29-1.76-1.94-2.97-3.71-2.68a3.227 3.227 0 0 0-2.7 3.71c.52 3.27 1.14 8.49 1.21 14.84a3.241 3.241 0 0 0 3.24 3.22h.03a3.248 3.248 0 0 0 3.22-3.27c-.07-6.75-.74-12.33-1.29-15.82zm-285.95 17.8c-1.63-4.71-3.1-9.57-4.32-14.47a3.254 3.254 0 0 0-3.94-2.36 3.24 3.24 0 0 0-2.35 3.94 173.38 173.38 0 0 0 4.49 15.01 3.247 3.247 0 0 0 3.06 2.18c.35 0 .71-.06 1.06-.18 1.71-.59 2.6-2.43 2-4.12zm78.4-8.68a3.237 3.237 0 0 0-3.54 2.92c-.35 3.5-.53 7.07-.53 10.61 0 1.74.05 3.5.13 5.24a3.24 3.24 0 0 0 3.23 3.09h.17a3.242 3.242 0 0 0 3.07-3.4c-.08-1.63-.12-3.29-.12-4.93 0-3.33.17-6.68.49-9.97.19-1.8-1.12-3.38-2.9-3.56zm205.05 18.89a3.24 3.24 0 0 0-3.66 2.76c-.7 4.98-1.79 9.85-3.24 14.49-.53 1.7.41 3.53 2.13 4.06.32.1.65.14.97.14 1.37 0 2.66-.88 3.09-2.27 1.56-4.97 2.72-10.19 3.47-15.53.25-1.77-.98-3.41-2.76-3.65zM35.56 460.48c-2.5-4.28-4.85-8.76-6.95-13.37a3.254 3.254 0 0 0-4.3-1.59 3.254 3.254 0 0 0-1.59 4.3c2.2 4.78 4.64 9.48 7.25 13.92a3.236 3.236 0 0 0 4.43 1.17 3.255 3.255 0 0 0 1.16-4.43zm73.78 11.77c-1.54-4.84-2.79-9.72-3.68-14.52-.32-1.76-2.02-2.92-3.79-2.59-1.75.34-2.92 2.02-2.58 3.79.95 5.07 2.24 10.22 3.88 15.3a3.227 3.227 0 0 0 4.08 2.1c1.7-.56 2.64-2.37 2.09-4.08zm-55.97 12.38c-3.36-3.64-6.57-7.55-9.55-11.59a3.254 3.254 0 0 0-4.54-.69 3.231 3.231 0 0 0-.69 4.52c3.12 4.24 6.5 8.32 10.01 12.15.64.7 1.52 1.05 2.39 1.05.79 0 1.57-.29 2.19-.87 1.32-1.2 1.4-3.25.19-4.57zm244.89-11.75a3.235 3.235 0 0 0-4.37 1.37c-2.28 4.36-4.99 8.5-8.04 12.37a3.24 3.24 0 0 0 .52 4.55c.6.47 1.31.7 2.02.7.95 0 1.89-.43 2.54-1.23a86.92 86.92 0 0 0 8.7-13.38c.84-1.59.23-3.55-1.37-4.38zm-176.71 26.84c-2.53-4.42-4.82-8.93-6.83-13.43a3.23 3.23 0 0 0-4.28-1.63 3.256 3.256 0 0 0-1.65 4.28c2.1 4.69 4.5 9.4 7.13 14a3.259 3.259 0 0 0 4.44 1.2 3.232 3.232 0 0 0 1.19-4.42zm-45.5 4.49c-4.11-2.8-8.12-5.87-11.9-9.14a3.232 3.232 0 0 0-4.56.34 3.238 3.238 0 0 0 .34 4.58c3.97 3.42 8.17 6.65 12.5 9.59.56.38 1.18.56 1.82.56 1.04 0 2.05-.51 2.68-1.43.98-1.48.61-3.49-.88-4.5zm204.19-6.6a3.253 3.253 0 0 0-4.58-.29 93.28 93.28 0 0 1-11.9 8.85 3.244 3.244 0 0 0-1.02 4.47c.62.97 1.67 1.52 2.75 1.52.6 0 1.19-.17 1.72-.51 4.58-2.88 8.87-6.07 12.73-9.48a3.22 3.22 0 0 0 .3-4.56zM102.6 518.09c-4.68-1.8-9.28-3.89-13.66-6.18a3.248 3.248 0 0 0-4.38 1.36 3.252 3.252 0 0 0 1.37 4.38c4.6 2.41 9.43 4.59 14.33 6.5.39.14.79.22 1.18.22 1.3 0 2.52-.79 3.02-2.07.64-1.68-.19-3.56-1.86-4.21zm152.3-3.25a3.24 3.24 0 0 0-4.29-1.61 137.52 137.52 0 0 1-13.99 5.41c-1.7.56-2.63 2.39-2.07 4.08a3.228 3.228 0 0 0 4.08 2.08c5.13-1.69 10.07-3.59 14.66-5.68a3.216 3.216 0 0 0 1.61-4.28zm-28.94 10.23a3.242 3.242 0 0 0-3.88-2.44c-4.75 1.09-9.75 2.02-14.87 2.8-1.76.26-2.98 1.91-2.72 3.68a3.25 3.25 0 0 0 3.2 2.76c.17 0 .32-.01.49-.04 5.28-.79 10.44-1.76 15.34-2.88 1.75-.4 2.84-2.13 2.44-3.88zm-87.06-.66c-3.16-3.68-6.26-7.7-9.24-11.94a3.238 3.238 0 0 0-4.51-.79 3.229 3.229 0 0 0-.79 4.51c2.4 3.42 4.9 6.72 7.43 9.81-.06-.01-.13-.03-.18-.04-5-.83-9.96-1.91-14.71-3.19-1.74-.47-3.51.56-3.98 2.28-.47 1.72.56 3.51 2.29 3.98 4.95 1.34 10.11 2.45 15.32 3.32.18.04.36.05.54.05 1.56 0 2.93-1.13 3.19-2.71.04-.26.05-.51.04-.75a3.237 3.237 0 0 0 4.25.03c1.36-1.17 1.52-3.2.35-4.56zm53.25 2.8c-4.89.43-10 .74-15.17.92-1.79.05-3.19 1.56-3.14 3.34.06 1.75 1.5 3.12 3.24 3.12h.12c5.29-.18 10.51-.49 15.52-.93 1.78-.16 3.1-1.74 2.94-3.51-.16-1.79-1.74-3.11-3.51-2.94zm-30.48 7.58h.04c1.78 0 3.22-1.43 3.24-3.22a3.254 3.254 0 0 0-3.22-3.27c-2.13-.01-4.28-.05-6.46-.12-2.94-.08-5.86-.22-8.7-.44-1.79-.12-3.34 1.21-3.47 2.99a3.234 3.234 0 0 0 2.75 3.45c-.19.17-.36.35-.52.56-1.04 1.45-.71 3.49.74 4.52 4.23 3.05 8.54 6 12.82 8.79.54.35 1.15.52 1.76.52 1.06 0 2.1-.52 2.72-1.48.97-1.49.54-3.5-.95-4.47a317.46 317.46 0 0 1-11.9-8.13c1.52.06 3.03.13 4.56.17 2.24.08 4.43.12 6.59.13zm27.09 23.08c-4.46-2.27-8.96-4.71-13.37-7.27a3.254 3.254 0 0 0-4.43 1.18c-.89 1.56-.36 3.54 1.18 4.43 4.51 2.62 9.11 5.12 13.68 7.44.47.23.97.35 1.47.35 1.18 0 2.32-.65 2.89-1.78a3.23 3.23 0 0 0-1.42-4.35zm208.68 3a3.243 3.243 0 0 0-4.36-1.4c-4.43 2.28-9.05 4.46-13.73 6.47a3.25 3.25 0 0 0-1.7 4.25 3.235 3.235 0 0 0 2.98 1.96c.43 0 .86-.08 1.27-.26 4.82-2.06 9.58-4.3 14.14-6.65 1.6-.81 2.23-2.77 1.4-4.37zm-180.86 9.16c-4.69-1.72-9.44-3.63-14.09-5.67-1.63-.71-3.55.03-4.27 1.67-.71 1.63.03 3.55 1.67 4.27 4.77 2.09 9.63 4.04 14.46 5.81.38.14.75.21 1.11.21 1.32 0 2.57-.82 3.05-2.13a3.22 3.22 0 0 0-1.93-4.16zm152.77 3.39c-.58-1.69-2.44-2.57-4.12-1.98a220.22 220.22 0 0 1-14.48 4.52 3.245 3.245 0 0 0-2.26 3.99 3.232 3.232 0 0 0 3.98 2.25c4.98-1.37 10-2.94 14.9-4.65a3.233 3.233 0 0 0 1.98-4.13zm-123.66 5.18a228.01 228.01 0 0 1-14.69-3.8c-1.72-.52-3.51.47-4.03 2.19-.51 1.71.48 3.51 2.2 4.02 4.99 1.48 10.07 2.79 15.1 3.92a3.226 3.226 0 0 0 3.86-2.45c.4-1.76-.69-3.49-2.44-3.88zm94.12 3.43a3.23 3.23 0 0 0-3.82-2.53c-4.93 1-9.96 1.84-14.95 2.5a3.251 3.251 0 0 0-2.8 3.64 3.252 3.252 0 0 0 3.65 2.78c5.15-.69 10.32-1.56 15.4-2.58a3.214 3.214 0 0 0 2.52-3.81zm-64.16 1.13c-5-.41-10.07-1-15.06-1.76-1.76-.27-3.42.95-3.68 2.71-.27 1.78.95 3.44 2.71 3.69 5.13.79 10.35 1.4 15.51 1.82.09 0 .18.01.27.01 1.67 0 3.09-1.28 3.23-2.98.13-1.79-1.2-3.35-2.98-3.49zm30.3.3c-5.02.31-10.09.44-15.16.39h-.04c-1.78 0-3.22 1.43-3.24 3.2a3.27 3.27 0 0 0 3.22 3.28c.74 0 1.48.01 2.22.01 4.46 0 8.96-.14 13.39-.41 1.79-.1 3.15-1.65 3.03-3.44-.1-1.77-1.64-3.12-3.42-3.03zM114.61 210.39c2.39-.96 4.82-1.87 7.28-2.73"/></g><g><path class="st14" d="M533.32 514.79s.88 2.74 2.86 7.23M647.49 600.2l-1.29-.01a3.24 3.24 0 0 1 .03-6.48h.03l1.23.01c4.58 0 9.32-.23 14.09-.7a3.23 3.23 0 0 1 3.54 2.91 3.242 3.242 0 0 1-2.91 3.54c-4.99.49-9.94.73-14.72.73zm-16.89-1.07c-.14 0-.28-.01-.42-.03-5.37-.7-10.69-1.74-15.79-3.1a3.233 3.233 0 0 1-2.29-3.97 3.24 3.24 0 0 1 3.97-2.29c4.83 1.29 9.86 2.28 14.95 2.94 1.78.23 3.03 1.86 2.8 3.63a3.26 3.26 0 0 1-3.22 2.82zm46.8-1.88c-1.53 0-2.89-1.08-3.18-2.64-.33-1.76.82-3.46 2.58-3.79 4.9-.93 9.96-2.1 15.03-3.49 1.73-.47 3.51.55 3.98 2.28.47 1.73-.55 3.51-2.28 3.98-5.23 1.43-10.45 2.64-15.52 3.6-.21.05-.41.06-.61.06zm-76.99-6.22c-.42 0-.85-.08-1.26-.26-4.93-2.09-9.76-4.56-14.36-7.34a3.25 3.25 0 0 1-1.1-4.45 3.25 3.25 0 0 1 4.45-1.1 107.2 107.2 0 0 0 13.54 6.92c1.65.7 2.42 2.6 1.72 4.25a3.252 3.252 0 0 1-2.99 1.98zm107.24-1.97c-1.34 0-2.6-.84-3.06-2.18-.59-1.69.31-3.54 2-4.12 2.01-.7 4.09-1.45 6.18-2.23 1.22-.61 3.33-1.89 6.59-4.52a3.243 3.243 0 1 1 4.07 5.05c-3.09 2.5-5.76 4.3-7.94 5.37l-.29.12c-2.2.83-4.38 1.62-6.5 2.35-.34.1-.7.16-1.05.16zm-134.01-14.18c-.72 0-1.44-.24-2.04-.72-4.11-3.33-8.08-7-11.82-10.92a3.23 3.23 0 0 1 .11-4.58 3.248 3.248 0 0 1 4.58.11c3.55 3.72 7.32 7.21 11.21 10.36a3.25 3.25 0 0 1 .48 4.56c-.63.78-1.57 1.19-2.52 1.19zm159.28-3.78a3.238 3.238 0 0 1-2.32-5.5c3.45-3.53 6.93-7.4 10.36-11.48a3.247 3.247 0 0 1 4.57-.4c1.37 1.15 1.55 3.2.4 4.57-3.53 4.2-7.13 8.18-10.68 11.83-.64.65-1.49.98-2.33.98zm-180.89-18.84c-.99 0-1.96-.45-2.6-1.3-3.17-4.24-6.16-8.74-8.88-13.37a3.246 3.246 0 0 1 1.15-4.44c1.54-.91 3.53-.39 4.44 1.15 2.6 4.42 5.45 8.71 8.48 12.77a3.25 3.25 0 0 1-.65 4.54c-.59.44-1.27.65-1.94.65zm189.27-5.16c-5.23 0-10.35-.33-15.2-.98a3.235 3.235 0 0 1-2.78-3.64c.24-1.77 1.87-3.03 3.64-2.78 4.57.61 9.39.92 14.34.92h.85l.03 6.48h-.88zm11.84 0a3.242 3.242 0 0 1-2.61-5.16c3.08-4.19 6.03-8.49 8.75-12.77a3.25 3.25 0 0 1 4.47-1c1.51.96 1.96 2.96 1 4.47-1.4 2.2-2.85 4.4-4.35 6.59 3.97-.55 8.06-1.28 12.2-2.16 1.75-.37 3.47.74 3.85 2.5.37 1.75-.74 3.47-2.5 3.85-5.36 1.14-10.66 2.03-15.75 2.64-.83.1-1.61-.12-2.24-.56-.07.09-.14.19-.2.28-.64.86-1.62 1.32-2.62 1.32zm-41.89-4.32c-.33 0-.65-.05-.98-.15-5.3-1.68-10.34-3.86-14.97-6.47-1.56-.88-2.11-2.85-1.23-4.41s2.86-2.11 4.41-1.23c4.24 2.39 8.87 4.39 13.75 5.93 1.71.54 2.65 2.36 2.11 4.07a3.253 3.253 0 0 1-3.09 2.26zm77.11-3.64c-1.3 0-2.53-.79-3.02-2.08-.64-1.67.19-3.55 1.86-4.19 4.72-1.82 9.32-4.02 13.69-6.55a3.24 3.24 0 0 1 4.43 1.18c.9 1.55.37 3.53-1.18 4.43-4.66 2.69-9.57 5.04-14.6 6.99-.4.15-.8.22-1.18.22zm-104.14-11.73c-.78 0-1.56-.28-2.19-.85-4.01-3.66-7.62-7.83-10.74-12.37a3.245 3.245 0 0 1 .84-4.51 3.245 3.245 0 0 1 4.51.84c2.84 4.14 6.13 7.92 9.77 11.25a3.25 3.25 0 0 1 .21 4.58c-.65.71-1.52 1.06-2.4 1.06zm131.17-3.96a3.238 3.238 0 0 1-2.06-5.74c3.92-3.24 7.54-6.8 10.74-10.59a3.246 3.246 0 0 1 4.57-.39c1.37 1.15 1.54 3.2.39 4.57a90.463 90.463 0 0 1-11.57 11.41c-.61.5-1.34.74-2.07.74zm-45.45-2.84a3.237 3.237 0 0 1-2.85-4.77c2.5-4.68 4.73-9.35 6.64-13.89a3.237 3.237 0 0 1 4.25-1.73c1.65.7 2.42 2.6 1.73 4.25-1.99 4.72-4.31 9.57-6.9 14.42a3.269 3.269 0 0 1-2.87 1.72zm-103.39-18.78c-1.28 0-2.49-.76-3-2.01a85.585 85.585 0 0 1-4.68-15.6c-.35-1.75.79-3.46 2.55-3.81 1.74-.34 3.46.79 3.81 2.55 1 5 2.45 9.85 4.32 14.4a3.238 3.238 0 0 1-3 4.47zm168.92-2.23c-.54 0-1.09-.13-1.59-.42a3.236 3.236 0 0 1-1.23-4.41c.97-1.73 1.89-3.51 2.74-5.31a3.242 3.242 0 0 1 5.87 2.75 88.86 88.86 0 0 1-2.96 5.74c-.6 1.05-1.7 1.65-2.83 1.65zm-53.48-7.92a3.244 3.244 0 0 1-3.12-4.15c1.48-5.09 2.55-10.08 3.17-14.84a3.244 3.244 0 0 1 3.64-2.79c1.78.23 3.02 1.86 2.79 3.64-.67 5.08-1.8 10.4-3.38 15.81a3.216 3.216 0 0 1-3.1 2.33zm-121.62-20.43c-1.76 0-3.2-1.41-3.24-3.18-.01-.65-.02-1.29-.02-1.94 0-4.76.36-9.55 1.07-14.25a3.236 3.236 0 0 1 3.69-2.72c1.77.27 2.99 1.92 2.72 3.69-.66 4.38-1 8.84-1 13.28 0 .6.01 1.2.02 1.8a3.247 3.247 0 0 1-3.17 3.31c-.02.01-.05.01-.07.01zm125.43-10.53c-1.69 0-3.11-1.3-3.23-3.01-.36-5.09-1.32-9.99-2.84-14.55-.57-1.7.35-3.53 2.05-4.1 1.7-.57 3.54.35 4.1 2.05 1.7 5.08 2.76 10.51 3.16 16.14a3.231 3.231 0 0 1-3 3.46c-.08 0-.16.01-.24.01zM665.08 440.4c-.35 0-.7-.06-1.05-.17a3.24 3.24 0 0 1-2.02-4.11c1.8-5.28 4.07-10.28 6.75-14.85a3.247 3.247 0 0 1 4.44-1.16c1.54.91 2.06 2.89 1.16 4.44-2.46 4.19-4.55 8.79-6.21 13.66a3.25 3.25 0 0 1-3.07 2.19zm110.8-9.04c-1.04 0-2.06-.5-2.69-1.42-2.68-3.97-5.98-7.72-9.8-11.16a3.243 3.243 0 1 1 4.34-4.82c4.21 3.79 7.85 7.94 10.83 12.34 1 1.48.62 3.5-.87 4.5-.55.38-1.19.56-1.81.56zm-94.87-17.68c-.82 0-1.64-.31-2.27-.93a3.23 3.23 0 0 1-.04-4.58c4.01-4.09 8.46-7.46 13.22-10.02 1.58-.85 3.54-.26 4.39 1.32.85 1.58.26 3.54-1.32 4.39-4.19 2.25-8.12 5.23-11.67 8.85-.63.65-1.47.97-2.31.97zm71.94-3.34c-.57 0-1.15-.15-1.67-.47-1.77-1.07-3.63-2.11-5.54-3.11a86.453 86.453 0 0 0-7.98-3.66 3.246 3.246 0 0 1-1.82-4.21 3.246 3.246 0 0 1 4.21-1.82c2.83 1.12 5.72 2.44 8.59 3.94 2.03 1.06 4.02 2.17 5.9 3.31a3.25 3.25 0 0 1 1.1 4.45 3.295 3.295 0 0 1-2.79 1.57zm-44.72-11.09c-1.56 0-2.94-1.13-3.2-2.73-.28-1.77.92-3.43 2.69-3.71 5.32-.85 10.92-.87 16.59-.04a3.238 3.238 0 1 1-.93 6.41c-5.03-.73-9.97-.72-14.64.03-.17.03-.34.04-.51.04zM841.34 483.57c.86-2.38 1.65-4.85 2.34-7.42"/></g><path class="st6" d="M306.35 108.11 204.46 252.13l-61.37-47.81-13.49-10.5-67.27-52.42z"/><path class="st7" d="m287.51 116.43-144.42 87.89-13.49-10.5z"/><circle class="st0" cx="318.21" cy="90.86" r="8.78"/><circle class="st0" cx="267.75" cy="90.86" r="6.21"/><ellipse class="st0" cx="464.35" cy="696.59" rx="57.28" ry="21.24"/><path d="m449.35 61.5 3.81 7.72a4.727 4.727 0 0 0 3.55 2.58l8.52 1.24c3.87.56 5.42 5.32 2.62 8.05l-6.17 6.01a4.737 4.737 0 0 0-1.36 4.18l1.46 8.49c.66 3.86-3.39 6.8-6.85 4.98l-7.62-4.01a4.731 4.731 0 0 0-4.39 0l-7.62 4.01c-3.46 1.82-7.51-1.12-6.85-4.98l1.46-8.49c.26-1.53-.25-3.09-1.36-4.18l-6.17-6.01c-2.8-2.73-1.26-7.49 2.62-8.05l8.52-1.24a4.693 4.693 0 0 0 3.55-2.58l3.81-7.72c1.74-3.51 6.74-3.51 8.47 0z" style="opacity:.39;fill:#fff"/></g></switch></svg>