<svg version="1.1" id="Layer_1" xmlns="http://www.w3.org/2000/svg" xmlns:xlink="http://www.w3.org/1999/xlink" x="0" y="0" viewBox="0 0 1000 753.8" style="enable-background:new 0 0 1000 753.8" xml:space="preserve"><style>.st3{clip-path:url(#SVGID_2_)}.st9{opacity:.4}.st10{fill:#231f20}.st13{fill:#421e11}.st15{fill:#7d3f26}.st17{fill:#371e19}.st18{opacity:.43;fill:#1d1e1e}.st19,.st20{clip-path:url(#SVGID_2_);fill:#4570ad}.st20{fill:#e2ab9a}.st22{opacity:.58}.st22,.st23,.st28,.st30{clip-path:url(#SVGID_2_)}.st23{opacity:.51}.st28,.st30{fill:#490f25}.st30{fill:#080204}</style><path d="M227.9 703s-265-173.5-199.2-332.2 150-333.1 459.6-354.9 451.9 95 460.7 187.9c8.8 92.9 46.8 214.5-36.3 330.7s-67.8 185.4-293.4 206.8S227.9 703 227.9 703z" style="opacity:.56;fill:#cfb5f6"/><path d="M247.8 700.3S-8.8 537.7 50.5 381.8 186.3 54.2 481.2 25.6s433.2 81.8 443.6 171.9c10.5 90.2 49.3 207.6-27.4 322.6S836.8 702 622.1 728.3c-214.7 26.3-374.3-28-374.3-28z" style="fill:#cfb5f6"/><path d="M259.5 662.2s-216-169.4-150.6-309S256 60.7 521.3 56.2s379.9 107.8 382.1 192c2.1 84.1 27.5 195.5-50.1 296S784.8 707.8 591.1 716s-331.6-53.8-331.6-53.8z" style="fill:#fff"/><defs><path id="SVGID_1_" d="M282 727.9S37.2 575.9 87.4 419.4s115.8-329.3 389.9-368 406.8 65.8 419.5 154.7 52.9 203.9-14.9 320.5S831.5 709 632 742.5c-199.4 33.6-350-14.6-350-14.6z"/></defs><clipPath id="SVGID_2_"><use xlink:href="#SVGID_1_" style="overflow:visible"/></clipPath><g class="st3"><path style="fill:#e2ab9a" d="m683.3 60.3 62.9-6.2 21.7 82.2-58 17.8z"/><path d="M830.6 584.6s91 13.4 50.6 45.5-195.4 62-310.6 40.3c0 0-93-30-42.6-75.4s279.8-15.3 302.6-10.4z" style="opacity:.45;fill:#161616"/><path d="M760.3 360.8s170.5 11.9 171.6 95.6c0 0 28.9 134.4-158.1 180.9 0 0-106.2 18.4-162.3 0-56.1-18.4-79.6-129.2-8.3-172.6s108.5-123.1 157.1-103.9z" style="fill:#8bc3c6"/><path d="M774.4 250.7s-57.6-33.3-90.9-28.2c0 0-14.1 14.1-35.9-6.4s-43.5-23-49.9-9c-6.4 14.1-17.9 20.6-26.9 17.3-9-3.3-15.4 0-15.4 0s-11.5 3.1-15.4 7-26.9 20.5-34.6 19.2c-7.7-1.3-24.3 21.8-16.6 39.7 0 0-9 9 14.1 44.8H386.4s-65.3 21.8-58.9 65.3c6.4 43.5 43.5 116.5 99.9 125.5 56.3 9 92.2 0 92.2 0s-10.2-28.2 11.5-47.4c21.8-19.2 85.8-44.8 85.8-44.8s15.4 28.2 47.4 11.5c0 0 23-20.5 14.1-51.2l41-57.6c-.1.1 71.6-65.2 55-85.7z" style="fill:#f4beab"/><path d="M658.9 240.9s34.5 9.3 20.9 51.9c0 .1-41.8-23.2-20.9-51.9z" style="opacity:.29;fill:#b97a59"/><g class="st9"><path class="st10" d="M502.4 334.4c1.6 4.1 3.6 8.1 5.9 11.8 2.3 3.7 4.8 7.4 7.6 10.7 2.8 3.3 5.9 6.5 9.2 9.3 1.6 1.5 3.4 2.8 5.1 4.1.8.7 1.8 1.3 2.7 1.9.9.6 1.8 1.3 2.7 1.9-1-.5-2-.9-3-1.4-1-.5-2-1-3-1.6l-2.9-1.8c-.5-.3-.9-.6-1.4-.9l-1.3-1c-1.8-1.3-3.5-2.8-5.2-4.3-.8-.7-1.6-1.6-2.4-2.4l-1.2-1.2c-.4-.4-.7-.9-1.1-1.3-.7-.9-1.4-1.7-2.1-2.6l-2-2.7c-1.2-1.9-2.4-3.8-3.4-5.8-1.7-4.1-3.4-8.3-4.2-12.7z"/></g><path d="M501.6 634.9c-24.1 65.3-124.1 70.1-144.8 70.4H353l-24.2-.5C182 701.5 64.6 581.5 64.6 434.6V244.3l43.3 1.2 142.7 3.9s122.9 16.7 167.7 33.3c44.8 16.6 59.5 46.1 59.5 46.1l.7 11.5c-93.5-9-125.5 17.4-125.5 17.4-46.1 39.2 11.5 97.8 53.8 123.4 42.3 25.6 119.1 20.5 119.1 20.5 10.8 21.8-24.3 133.3-24.3 133.3z" style="fill:#f99a10"/><path d="M356.9 708.3h-3.8l-32.7-.7C178.2 704.4 64.6 588.3 64.6 446.1V247.3l43.3 1.2c28.6 11.7 62.9 28.6 94.9 52.1 20.5 15.1 40.1 32.8 56.7 53.6.1 0 50.4 45.9 97.4 354.1z" style="fill:#eef3ff"/><path class="st13" d="M589 231.6s-6.2-19.4 3.1-20.9c9.3-1.6 3.1 14.7-3.1 20.9z"/><g class="st9"><path class="st10" d="M587 240.9c1.4 1.1 2.8 1.9 4.2 2.6 1.4.7 2.9 1.3 4.5 1.8 1.5.5 3.1.9 4.7 1.1.8.2 1.6.3 2.4.4.8.1 1.7.2 2.5.4-.8.2-1.7.4-2.5.6-.9.1-1.7.2-2.6.2-1.7 0-3.5-.3-5.2-.8-1.7-.5-3.3-1.3-4.7-2.4-1.3-1-2.6-2.3-3.3-3.9z"/></g><path class="st13" d="M675.8 235.5s9.3-8.5 15.5 0c6.2 8.5 18.6 27.9 18.6 38s-3.9 24-7.8 27.1c0 0 .8-30.2-9.3-39.5l-17-25.6z"/><path d="M678.5 296.7s21.3 33.3-2.7 35.7c0 0-51.2-31.8-55.8-68.2-4.7-36.4 14-37.3 14-37.3s15 .5 19.7 24.3c0 0-7.5 17.1 21.3 42.6 1.2.9 2.3 1.9 3.5 2.9z" style="fill:#f0f1f3"/><g class="st9"><path class="st10" d="M613.8 405.3c-1.6.1-3.3.4-4.8.9s-2.9 1.4-3.8 2.6c-1 1.2-1.3 2.7-1.3 4.2s.4 3.1 1 4.6c.6 1.5 1.3 2.9 2.1 4.3.7 1.4 1.7 2.7 2.6 4 2 2.5 4.2 4.8 6.8 6.7 5.1 3.9 11.1 6.5 17.5 7.5 1.6.4 3.2.3 4.8.5H642.3l1.2-.1c3.3-.1 6.4-1.1 9.6-2-6 2.7-12.8 4.1-19.4 3.1-3.3-.3-6.6-1.3-9.7-2.5l-2.3-1c-.8-.4-1.5-.8-2.2-1.2l-1.1-.6-1-.7c-.7-.5-1.4-.9-2.1-1.4-2.7-2.1-5-4.5-7.1-7.2-.9-1.4-1.9-2.8-2.6-4.3-.8-1.5-1.5-3-2-4.6-.5-1.6-.9-3.3-.8-5.1.1-1.7.6-3.6 1.9-4.9 1.2-1.3 2.8-2.1 4.4-2.5 1.4-.4 3.1-.5 4.7-.3z"/></g><path class="st13" d="M628.1 412.2s43.8-4.7 28.3 0c-15.4 4.7-28.3 0-28.3 0z"/><g class="st9"><path class="st10" d="M628.1 423.3c1.8 1.5 3.8 2.5 5.9 3.1 2.1.6 4.3.7 6.4.5 2.2-.1 4.3-.7 6.5-1.3 1-.4 2.1-.7 3.2-1.1 1.1-.4 2.1-.9 3.2-1.2-.9.7-1.8 1.4-2.8 2.1-1 .6-2 1.2-3.1 1.7-2.2.9-4.4 1.7-6.9 1.8-2.4.2-4.9-.1-7.1-1.1-2.2-.9-4.2-2.4-5.3-4.5z"/></g><g class="st9"><path class="st10" d="m640.7 433.2 6.9-1.4c2.3-.5 4.5-1 6.7-1.7 2.2-.6 4.3-1.4 6.3-2.5 2-1 3.8-2.4 5.3-4.2-.7 2.3-2.5 4.2-4.5 5.6-1 .7-2.1 1.3-3.2 1.8s-2.2.9-3.4 1.3c-2.3.7-4.6 1.1-7 1.3-2.4.1-4.8.1-7.1-.2z"/></g><path class="st15" d="M689 363.2s-51.2 7.2-60.8 26.5c0 0 35.6-24 56-19.8l4.8-6.7z"/><path class="st15" d="M687.3 376.5s-30.8-13.1-55.6 28.8c0 0 28.3-38 55.6-25.6 27.3 12.4 0-3.2 0-3.2z"/><path class="st15" d="M682 383.1s-8.5-9-16.3 0c-7.8 9-9.5 22.2-21.8 22.2 0 0 3 9 21.6-13.1 0 0 3.4-16.6 16.5-9.1z"/><path d="M528 231.7s12.2-15.1 19.1-4.9c0 0 3-11.5 14.7-5.7 0 0 6.1 9.5 0 26.3l-11.6 18.8c.1 0-17.3-21.2-22.2-34.5z" style="fill:#7c2b27"/><path class="st10" d="M549.5 257.2s-5.4-42.9-2.3-30.4 4.9 25.7 2.3 30.4z"/><path class="st17" d="M675.8 290.4s-26.4-17.4-20.6-42c.1 0 5.1 21 20.6 42z"/><path class="st18" d="M202.9 300.6c13.9.1 27.9.6 41.8 1.2 7 .3 13.9.6 20.9 1l20.9 1.2 20.8 1.3c6.9.5 13.9 1 20.8 1.5 13.9 1.1 27.8 2.3 41.6 3.8-13.9-.1-27.9-.6-41.8-1.2-7-.3-13.9-.7-20.9-1l-20.9-1.2-20.8-1.4c-6.9-.5-13.9-1-20.8-1.5-13.9-.9-27.8-2.1-41.6-3.7zM470.9 329.3c-20.2-2.1-40.6-3.2-60.9-2.7-10.1.3-20.3.8-30.3 2.3-5 .7-10 1.7-14.9 2.9s-9.7 2.9-14.1 5l-1.7.8-1.6.9c-1.1.6-2.2 1.2-3.1 2-1 .7-2 1.4-2.9 2.3-.9.8-1.8 1.6-2.7 2.6-3.5 3.6-6.9 7.4-10.1 11.3-6.4 7.8-12 16.2-15.8 25.5-3.8 9.2-5.5 19.3-4.5 29.2.4 4.9 1.5 9.8 2.9 14.6 1.5 4.7 3.5 9.3 5.8 13.8 4.7 8.9 10.5 17.1 17 24.8 6.5 7.7 13.7 14.9 21.3 21.6 15.2 13.4 32.4 24.3 50.5 33.4 18.1 9.1 37.3 16.1 56.7 21.9 9.7 2.9 19.6 5.6 29.4 8.1 9.9 2.5 19.8 4.9 29.6 7.5-19.9-4.4-39.8-8.6-59.5-14-19.6-5.5-39-12.2-57.4-21.1-18.4-8.8-35.9-20-51.3-33.4-7.7-6.7-15-14-21.7-21.8-6.7-7.8-12.7-16.2-17.6-25.4-2.3-4.6-4.4-9.4-5.9-14.4s-2.6-10.1-3-15.3c-.4-5.2-.3-10.5.6-15.6.8-5.2 2.3-10.2 4.3-15 4-9.6 9.8-18.3 16.4-26.2 3.3-3.9 6.8-7.7 10.4-11.4.9-.9 1.9-1.8 2.9-2.7 1-.9 2.1-1.6 3.2-2.4 1.1-.8 2.2-1.4 3.4-2l1.7-1 1.8-.8c4.7-2.2 9.7-3.8 14.7-4.9 5-1.2 10.1-2.1 15.1-2.7 2.5-.4 5.1-.6 7.6-.9 2.5-.2 5.1-.4 7.6-.5 5.1-.3 10.2-.4 15.3-.5 10.2 0 20.4.4 30.6 1.1 10 .6 20.2 1.6 30.2 3.1z"/><path class="st18" d="M462.7 522.6c5.3-.4 10.6-.4 15.8-.3 2.6 0 5.3.1 7.9.2l7.9.4 7.9.6c2.6.3 5.2.5 7.9.8 5.2.6 10.5 1.3 15.7 2.3-5.3.4-10.6.4-15.8.3-2.6 0-5.3-.2-7.9-.2l-7.9-.4-7.9-.6c-2.6-.3-5.2-.5-7.9-.8-5.3-.6-10.5-1.3-15.7-2.3zM339.1 604.3c5.2-.7 10.4-1.1 15.6-1.3 2.6-.2 5.2-.2 7.8-.3l7.8-.1 7.8.1c2.6.1 5.2.1 7.8.3 5.2.2 10.4.6 15.6 1.3-5.2.7-10.4 1.1-15.6 1.3-2.6.2-5.2.2-7.8.3l-7.8.1-7.8-.1c-2.6-.1-5.2-.1-7.8-.3-5.1-.2-10.3-.6-15.6-1.3z"/><g class="st9"><path class="st10" d="M545.6 380.8c2 .7 4 1.5 5.9 2.4 1.9.9 3.8 1.9 5.7 2.9 1.8 1 3.7 2.1 5.4 3.2 1.8 1.1 3.5 2.4 5.2 3.7-2-.7-4-1.5-5.9-2.4-1.9-.9-3.8-1.9-5.6-2.9-1.8-1-3.7-2.1-5.4-3.2-1.9-1.1-3.6-2.3-5.3-3.7z"/></g><g class="st9"><path class="st10" d="M665.4 239.6c2.4.8 4.6 2.2 6.6 3.7 2 1.6 3.9 3.4 5.4 5.4 3.2 4.1 5.3 8.9 6.5 13.9 1.2 5 1.3 10.2.8 15.3-.5 5.1-1.7 10-3.4 14.8.9-5 1.7-9.9 1.9-14.9.1-2.5.1-5-.1-7.4-.1-1.2-.2-2.5-.4-3.7-.2-1.2-.4-2.4-.7-3.6-1-4.8-3-9.4-5.8-13.5-1.4-2-3-3.9-4.8-5.6-1.9-1.7-3.8-3.2-6-4.4z"/></g><path class="st17" d="M655.3 248.4 644.7 238l8.4 11.4-8.2-8 8.3 10.8-10.1-9.4s8.1 10.1 10.8 12.2l-10.6-7.1 9.7 7.6s-10.7-1.5-9.9-1.9 10.2 5.5 10.2 5.5l-7.8-.6 8.6 3-7.5 1.7 7.4 1.7-6.2 3.4 7.7.8s-4.1 6.8-3.6 9.8c0 0 6.3-5.8 6.2-6.4-.1-.6-2.5 10.4-2.5 10.4l4.3-7.2-1.6 12.3 3.2-9.4-1.6 14.8 5.5-11.4s1.4 3.8-.3 17.4c-.2 1.6 6.4-12.4 6.4-12.4s-17.6-27.1-16.2-38.6z"/><path class="st15" d="M637.8 709c-3.9-.4-6.2-.7-6.2-.7s1.2 1.5 6.2.7z"/><path class="st15" d="M856.8 609.8c-.5-8.3-1.5-17.1-3-26.7 6.9 2.9 14.4 5.3 22.5 7.3 107.5 25.8 96.1-37 96.1-37s0 20.5-69.7 6c-31.6-6.6-51.2-39.2-63.3-72.9 11-23.9 13.1-43.9 13.1-43.9 14.5-42.4-5.2-128.2-20.7-178.3-15.5-50.1-67.2-20.5-67.2-20.5 14.4 20.3-47.6 78.7-47.6 78.7l-52.3 66.1 4.7 11.2c1.5 24.7-7.8 29.2-16.1 32.9l-9.8 6.9c-11.2 5-24.3.1-32.7-8.8l-3.7-3.9s-26.2 11.2-61.6 28.8c-35.5 17.6-38 45.8-38 45.8l18.5 3c3.8 29.5-19.3 110.3-16.5 124 1.5 7.3 2.2 29 2.5 47.7-5.7 6.5-12 11-18.6 12.3-17.6 3.4-3.3 6 18.8 1.3.1 9.9.1 16.9.1 16.9l20.7-.7c.1-1.6 1.5-11.1 3.4-23.7 5.6-2.4 11.2-5.2 16.4-8.7-4.1 14.7-8.7 27-14 33.1 0 0 32 7.5 53.1-51.9 3.8 4.5 7.2 9 9.7 13.2-7.2 11.6-17.4 21.5-31.8 25.6 0 0 18-3.9 36.4-13.5.2 3.4-.9 6.3-3.8 8.4-92.9 66.4 30.4 6.3 40.7-12.3 4.3-7.6 11.8-8.3 16.1-7.9-8.6 14.2-18.6 25.7-30.5 32.3 0 0 86.2-41.1 120.4-93.6-8.1 22-19.1 40.2-33.9 51.5-48.3 37-69.4 45.6-78.3 47 19.2 1.9 78.4 5.1 115.7-23.2 16.7-12.7 28.9-31.8 37.6-52.8-11.6 38.7-19.6 46.7-19.6 46.7s41.8-17.2 61-54.3c4.9 3.9 10 7.5 15.2 10.6 3.4 23.8 2.8 45.1-4.8 59.8 0 0 11.9-18 14.5-54.5 9.3 4.4 18.9 7.4 28.9 8.3 69.2 6.2 92-25.7 92-25.7s-47.6 23.9-120.6-10.6zm-17.3-9.4c.2-.7.3-1.5.4-2.2.3 1 .5 2 .8 3-.4-.3-.8-.6-1.2-.8z"/></g><path class="st19" d="M797.5 194.9s35.7 70.8 82.2 105.7 145.7 70.3 190.7 75.9V160.3L810 141.7l-12.5 53.2z"/><path class="st19" d="M977.4 177.4s-27.2-67.4 31-111.6c71.3-54.3 82.7 44.1 82.7 44.1s66.1 281.7-20.7 370.7L1023.8 366"/><path class="st20" d="m996.5 379-33.1 62.3-105-58.3c-10.4 8.8-26.8 6.7-26.8 6.7-.6 16.5-39.5.1-39.5.1l-61.9-25.7-2.4-1-13.7-6.9c-1.8-.9-2.5-3.2-1.5-4.9l3-5.3c1-1.7 2.8-2.8 4.8-2.8l35.7 10.9-39.7-18.8-6.5-3.1-13.8-9.2c-1.8-1.2-2.3-3.6-1.2-5.5l3.1-4.9c.8-1.3 2.3-2.1 3.8-2.1L724 313l-14.6-9c-1.9-1.9-2.2-5-.5-7.2l2.5-3.4c1.3-1.8 3.6-2.6 5.7-2.1l6.8 1.6.5-.4 2.8.7 1.8-4.2 2.7-2.1h7.7c-.8-8.2 21.8 0 21.8 0l52.7 13.7 18.6 5s27.1 1.2 31.8-5c4.6-6.2-20.9-7.8-20.9-7.8l-55-10.1-22.8-3.8-19.2-3.2-4.6-4.6c-2.5-2.5-1.4-6.8 2.1-7.7 5.3-1.4 14.3.2 19.7 1.4 2.7.6 4.6 1.1 4.6 1.1s16.4 1.2 35 .1c18.6-1.1 45.7 13.4 45.7 13.4l38.1 26L996.5 379zM646.9 202.9l-3.9-20.8-2.3-37.3-9-61.2c6.2-17.1 17 3.9 17 3.9l6 135.4 1.7.1 8.1.7 6.9-25.4c6.9-25.4 44.3-46 44.3-46s32.1-47.8-13.5-85S616.1 82 616.1 82l-19.3 17.8c-19.3 17.8 6.4 35.7 6.4 35.7-10.6 19.4 0 40.3 0 40.3l22.2 55.9v.2c-.7 12.5 15.3 31.1 15.3 31.1 12 .3 8.5-11 7.5-13.8v-.1c-.1-.3-.2-.5-.2-.5l-7.2-19.5-10.8-35.4 8.7 10.5c2.3 2.9 6.9 2.1 8.2-1.3z"/><path d="m655.2 257.5-4.9-135.4s3.9-41.9-6.3-46.5c-10.2-4.7-15.3 10.1-12.3 19.1s9 87.4 9 87.4l14 94 .5-18.6z" style="clip-path:url(#SVGID_2_);fill:#58595b"/><g class="st22"><path class="st10" d="M858.4 337.8c-6 .3-12 .4-18 .5-6 .1-12 .3-18 .3h-.2c-4.6-.6-9-1.5-13.5-2.6-4.4-1.1-8.8-2.4-13.1-4.2-1.1-.5-2.1-.9-3.2-1.4-1-.5-2.1-1-3.1-1.6-1-.6-2-1.1-3-1.8l-2.8-2c-3.6-2.6-7.5-4.9-11.5-7.1-7.9-4.5-15.9-8.6-24-12.8l-15.3-9c8.4 3.5 7.7 3.8 15.9 7.7 8.2 3.9 16.4 7.9 24.4 12.3 4 2.2 7.9 4.5 11.7 7.2l2.7 1.9c.9.6 1.9 1.1 2.8 1.7l3 1.5c1 .5 2 .9 3.1 1.4 8.3 3.4 17.1 5.5 26 7h-.1l18 .3c6.2.4 12.2.5 18.2.7z"/></g><g class="st22"><path class="st10" d="M724 314c2.6 1.2 5.1 2.6 7.6 4 5 2.8 9.8 5.9 14.4 9.1 2.4 1.6 4.7 3.3 6.9 5 2.2 1.7 4.7 3.1 7.1 4.5 4.9 2.8 9.9 5.3 15.1 7.7 10.3 4.7 20.9 8.7 31.6 12.5 5.4 1.9 10.7 3.7 16.2 5.3 2.7.8 5.4 1.6 8.2 2.4 1.4.4 2.7.7 4.1 1 1.4.3 2.8.6 4.2.5-1.4.2-2.8 0-4.3-.2-1.4-.2-2.8-.5-4.2-.8-2.8-.6-5.6-1.2-8.3-1.9-5.5-1.4-11-3-16.4-4.7-10.9-3.4-21.5-7.4-32-12.1-5.2-2.4-10.3-4.9-15.2-7.9-2.4-1.5-4.9-3-7.2-4.8-2.3-1.7-4.5-3.5-6.8-5.1-4.6-3.4-9.2-6.6-14-9.6"/></g><g class="st22"><path class="st10" d="M822.3 383.1c-.7-.3-1.5-.3-2.2-.5l-2.3-.4c-1.5-.3-3-.5-4.5-.8-3-.6-6-1.2-8.9-2-5.9-1.5-11.8-3.4-17.5-5.6-2.8-1.1-5.7-2.4-8.4-3.7-2.7-1.4-5.5-2.8-8.1-4.4-2.6-1.6-5.1-3.4-7.6-5.2-2.4-1.9-4.7-4-6.8-6.2 2.4 1.9 4.9 3.6 7.4 5.3 2.5 1.6 5.2 3.2 7.8 4.6 5.3 2.8 10.8 5.3 16.5 7.5 5.6 2.2 11.4 4.2 17.1 6 2.9.9 5.8 1.8 8.7 2.6l4.4 1.3c1.6.4 3.1.8 4.4 1.5z"/></g><g class="st23"><path class="st10" d="M687.3 110.7c.3 1.8-.3 3.6-.8 5.3-.6 1.7-1.3 3.4-2.1 5-1.6 3.2-3.5 6.3-5.5 9.3-1 1.5-2 3-3.1 4.4-1.1 1.4-2.2 2.9-3.2 4.3s-2.1 2.8-3 4.3l-1.4 2.2-1.2 2.3c-.4.8-.9 1.5-1.2 2.3l-1.1 2.4c-.8 1.6-1.4 3.2-2 4.9-.7 1.6-1.2 3.3-1.8 5-.5 1.7-1.1 3.4-1.6 5.1-1.9 6.8-3.5 13.7-4.5 20.8.1-7.1 1.1-14.3 2.8-21.3 1.6-7 4.1-13.8 7.5-20.2l1.3-2.4 1.4-2.3c.9-1.6 2-3 3.1-4.4 1.1-1.5 2.2-2.8 3.3-4.2l3.3-4.2c2.1-2.8 4.1-5.7 6-8.8.9-1.5 1.8-3.1 2.5-4.7.4-.8.7-1.6.9-2.5.2-.8.4-1.7.4-2.6z"/></g><g class="st23"><path class="st10" d="M619.3 110.7c6.1 2.7 11.3 7.2 15.2 12.8 2 2.7 3.5 5.8 4.7 9l.8 2.4c.1.4.3.8.4 1.2l.3 1.2.5 2.5c.2.8.2 1.7.3 2.5l.3 2.5.1 2.5.3 5c.1 3.3.3 6.6.4 9.9.3 6.6.4 13.2.3 19.9-.8-6.6-1.5-13.2-2.1-19.8-.3-3.3-.5-6.6-.8-9.9l-.3-5-.2-2.5-.3-2.4c-.1-.8-.1-1.6-.3-2.4l-.5-2.4-.2-1.2-.3-1.2-.7-2.3c-1.1-3-2.4-6-4.2-8.7-3.4-5.3-8.1-10.1-13.7-13.6z"/></g><g class="st22"><path class="st10" d="M870.3 294.4c3.9 2.6 7.3 5.9 10.4 9.5 3 3.6 5.6 7.6 7.4 12.1.9 2.2 1.6 4.5 2 6.9.4 2.4.6 4.8.5 7.2 0 1.2-.2 2.4-.4 3.6-.2 1.2-.4 2.4-.8 3.5-.6 2.3-1.6 4.6-2.6 6.7l.1-.7c.5 3.1.6 6.1.5 9.1-.2 3-.6 6.1-1.5 9-.9 2.9-2.3 5.7-4.2 8.2-1.9 2.4-4.4 4.4-7.1 5.8l-.3.1-.3-.1c-1.8-.4-3.6-.7-5.5-.8-1.8-.1-3.7-.1-5.5.3-1.8.4-3.5 1.2-4.4 2.9-.8 1.6-.8 3.6-.4 5.4-.5-1.8-.9-3.8-.1-5.7.8-1.9 2.7-3 4.6-3.5 1.9-.6 3.8-.7 5.8-.7 1.9 0 3.8.2 5.8.6l-.5.1c2.5-1.4 4.7-3.3 6.3-5.6 1.7-2.3 2.9-4.9 3.7-7.6.8-2.8 1.2-5.6 1.3-8.5.1-2.9 0-5.8-.5-8.6l-.1-.4.2-.3c2-4.1 3.4-8.5 3.6-13 .2-2.3 0-4.5-.3-6.8-.4-2.2-.9-4.5-1.7-6.6-1.6-4.3-3.9-8.3-6.7-12-2.5-3.7-5.7-7.1-9.3-10.1z"/></g><path d="M533.8 230.5s2.9-5.9 8.1-3.3c-.1 0-1.2 3.2-8.1 3.3z" style="opacity:.34;clip-path:url(#SVGID_2_);fill:#f0f1f3"/><path class="st20" d="M961.9 194.9s-40.3 27.2-77.5 29.6C847.1 227 781 194.9 781 194.9s-19.9-1-24.9-6.7c0 0-21.6 6.7-22.6-12.9s22.6-49.6 22.6-49.6 176.9 47.4 205.8 69.2z"/><g class="st3"><path class="st10" d="M777.8 163.4c2.1 1.4 3.8 3.3 5.2 5.4 1.4 2.1 2.4 4.6 2.6 7.2.1 1.3 0 2.7-.4 3.9-.4 1.3-.9 2.5-1.7 3.5-1.5 2.1-3.5 3.7-5.8 4.8 1.8-1.7 3.3-3.6 4.4-5.6 1.1-2 1.6-4.3 1.4-6.5-.2-2.2-.9-4.5-2-6.6-1-2.1-2.3-4.1-3.7-6.1z"/></g><path d="M809.9 163.4s15.5 39.9 72.3 18.6c.1 0-28.1-31-72.3-18.6z" style="opacity:.46;clip-path:url(#SVGID_2_);fill:#865858"/><g class="st3"><path d="m653 266.9 73.8 5.8 131.6 22.4s26.8 6.3 0 10.6-50.2-6.5-50.2-6.5l-92-12.2s-37.5-7.3-61.4-10.9l34.2 1s81.4 11.9 111.7 15.8c30.2 3.9 49.6 7.8 49.6 7.8s-89.1-14.1-113.7-18.3c-24.9-4.4-83.6-15.5-83.6-15.5z" style="fill:#080204"/><path d="m653.3 268 73.7 6 131.3 20.3s26.7 5.5-.1 8.5-50.1-6.1-50.1-6.1l-91.8-11.4s-37.4-6.5-61.3-9.8l34.2 1.4s81.3 11 111.4 14.6c30.2 3.6 49.5 7.1 49.5 7.1s-88.9-12.9-113.4-16.8c-24.8-3.9-83.4-13.8-83.4-13.8z" style="fill:#58595b"/></g><g class="st23"><path class="st10" d="M605.3 143.8c1.9 2.4 3.6 5 5.3 7.6 1.7 2.6 3.2 5.2 4.7 7.9s3 5.4 4.3 8.1c1.4 2.8 2.7 5.5 3.8 8.4-1.9-2.4-3.6-5-5.3-7.6-1.7-2.6-3.2-5.2-4.7-7.9s-3-5.4-4.3-8.1c-1.4-2.7-2.7-5.5-3.8-8.4z"/></g><path class="st28" d="m671.5 198.3-5.7 21.2c-.7 2.4-3 4-5.5 3.8-2.4-.2-4.4-2-4.7-4.4-.3-2.3-.5-5-.4-8.3.7-26.7 16.3-12.3 16.3-12.3zM646.7 261.6c-2.7 1.8-6.3 1-8.3-1.6-4.4-5.7-13.5-18.7-13-28.2 1.8-3.9 4.9-7 9.9-2 5.1 5.2 9.8 13.3 12.9 19.3.7 2.2 3.1 9.5-1.5 12.5zM646.9 202.9c-1.3 3.4-5.8 4.2-8.1 1.3l-8.7-10.5-3-3.6c-1.1-1.4-1.9-2.9-2.3-4.7-1.2-5-2.3-14.8 7-13.2 4.9.8 8.6 5.1 11.3 9.9l3.8 20.8zM717.3 344.4l16.3 6.9c1.4.7 2.4 1.8 2.8 3.3.7 2.5 1.1 6.2-2.4 8.3-1.9 1.1-4.2 1.2-6.2.4h-.1l-14.5-7.3c-1.8-.9-2.5-3.2-1.5-4.9l3.8-5.6M716.4 335.5l-4.8-2.3c-1.1-.5-2.2-1.1-3.2-1.8l-11.1-7.4c-2.5-1.6-3.2-4.9-1.6-7.4l2.9-4.6c.5-.8 1.4-1.3 2.3-1.3 3.1 0 6.2.6 9 1.8l4.6 1.9c3.2 1.4 6 3.8 7.5 7 1.9 4 2 9.3-5.6 14.1zM718.1 309.7l-8.2-5.8c-2.2-1.8-2.6-5-.9-7.3l2.4-3.2c1.3-1.7 3.5-2.5 5.6-2l3.1.8c1.8.5 3.5 1.2 5.1 2.3l.7.4 6.1 3.3c1.4 1 2.2 2.7 2 4.5-.9 9.4-10 10.4-10 10.4M761.4 292.2s8.2 13.4-9.2 13.4l-21.9-10.3c-2.8-1.3-3.3-5.1-1-7.1.3-.3.7-.4 1.1-.3l31 4.3zM765.4 279l-16.4-2.7c-1.9-.3-3.6-1.2-4.9-2.5l-2.3-2.3c-2.7-2.7-1.3-7.3 2.4-8.1 5.4-1.1 13.9.4 19.1 1.6 3.9 4.7 6.8 10.5 2.1 14z"/><g class="st3"><path class="st17" d="M812 165.1c1.8 2.4 3.9 4.5 6.2 6.4 2.2 1.9 4.7 3.6 7.2 5.1 5.1 2.9 10.6 4.9 16.4 6 2.9.6 5.8.9 8.7 1.1 2.9.2 5.9.2 8.8.1 5.9-.2 11.8-1 17.8-2-5.6 2.2-11.6 3.7-17.6 4.3-1.5.2-3 .3-4.6.4-.8 0-1.5.1-2.3.1h-2.3c-3.1-.1-6.1-.4-9.2-1-3-.6-6-1.5-8.9-2.6-2.8-1.2-5.6-2.6-8.1-4.4-2.6-1.7-4.9-3.7-7-6-1.9-2.3-3.8-4.8-5.1-7.5z"/></g><path d="m816.9 169.7-13.5 7 14.8-3.5-11.6 6 14.1-3.8-13.8 7.9s13.5-4.1 16.7-6.7l-11.9 10.6 11.9-8.8s-6.7 15.7-6.7 14.1c0-1.6 10.3-11.4 10.3-11.4l-4.5 11.9 7.1-11.1-2.2 13.4 5.3-10.4v12.7l4.6-11.5s4.2 12.4 7.3 14.2c0 0-2.2-15.1-2.8-15.4-.6-.3 8.4 13 8.4 13l-4.5-13 10.6 13.3-7.1-13.3 12.9 15.4-8-15.4s9 6.3 16.1 12.3c1.5 1.3-11.3-12.3-11.3-12.3s-32.3-3-42.2-15.2z" style="clip-path:url(#SVGID_2_);fill:#371e19"/><path class="st30" d="M1050.7 257.2c4 3.3 4.1 71-30 100 0 0 68.2-48 49.6-118.6-18.5-70.5-19.6 18.6-19.6 18.6z"/><path class="st19" d="M1076.6 484.3 951 448.7l45.5-91.5 73.9 19.3z"/><path class="st30" d="m1071.3 45.9-1.8-1.5c-18-46.8-62.9-66.3-88-86.2-6.2-4.9-14.4-8.9-24.1-12.1-24.9-10.6-54.7-16.3-90.5-15.2-5.5.2-10.9.1-16.4-.2C825.4-70.7 746-70.6 708-18c-22.8 31.6-7 73.5 12.3 85.3 0 0-22 58.9 64.8 86.8 78.9 25.4 187.2 35.3 215.6 72.4-13.8 17.6-32 32.7-49.8 44.5-30.5 20.3-43.9 18.6-43.9 18.6s30 11.8 72.3-13.5c8.9-5.3 18.7-14.2 28.5-25.6-3 39.6-74.4 60.3-74.4 60.3s3.6 20.2 39.2 21.7c35.7 1.6 72.9-12.5 79.1-52.8 3.8-24.8 5.3-34.3 5.9-38 7.5 18.4 14 34.5 18.7 46.2 1.9 10.5 2.5 21.6.3 32.2-7.8 37.2-23.3 54.6-23.3 54.6s30.8-10 35-56.3l22.2 59.7c-.1-.2 16-184.5-39.2-332.2z"/></svg>