<svg version="1.1" id="Layer_1" xmlns="http://www.w3.org/2000/svg" x="0" y="0" viewBox="0 0 1000 887.9" style="enable-background:new 0 0 1000 887.9" xml:space="preserve"><style>.st5{fill:#2b2b2b}.st6{fill:#fdfffe}.st9{opacity:.91;fill:#fff}.st10{fill:#efba8e}.st15{fill:#1e4322}.st16{fill:#79872f}.st18{fill:#204124}.st20{fill:#006838}</style><path style="fill:#446fac" d="M37 831.5h913.9v42H37z"/><path d="M984.6 435.2c0 234.2-179.8 424-401.6 424-19.1 0-37.9-1.4-56.3-4.1C397.7 836 288.4 752.2 229 635.9c-13-25.5-23.6-52.6-31.5-80.9-5.7-20.5-10-41.6-12.7-63.2-2.3-18.5-3.5-37.3-3.5-56.5 0-8.2.2-16.4.7-24.5 1-19.2 3.3-38.1 6.7-56.6 35.8-195.4 198.7-343 394.3-343 221.8 0 401.6 189.8 401.6 424z" style="fill:#e3d4f9"/><path d="M921.2 424c0 234.2-179.8 424-401.6 424-19.1 0-37.9-1.4-56.3-4.1C334.3 824.8 225 741 165.7 624.7c-13-25.5-23.6-52.6-31.5-80.9-5.7-20.5-10-41.6-12.7-63.2-2.3-18.5-3.5-37.3-3.5-56.5 0-8.2.2-16.4.7-24.5 1-19.2 3.3-38.1 6.7-56.6C161.1 147.6 324 0 519.6 0c221.8 0 401.6 189.8 401.6 424z" style="fill:#cfb5f6"/><path d="M873.8 420.2c0 220.2-169.1 398.8-377.7 398.8-18 0-35.6-1.3-52.9-3.9-121.3-18-224.2-96.8-280-206.2-12.2-24-22.2-49.5-29.6-76.1-5.4-19.3-9.4-39.1-12-59.5-2.2-17.4-3.3-35.1-3.3-53.1 0-7.7.2-15.4.6-23 1-18.1 3.1-35.8 6.3-53.2 33.7-183.8 187-322.6 370.9-322.6 208.6 0 377.7 178.5 377.7 398.8z" style="fill:#f6f3ff"/><path style="fill:#231f20" d="M567.6 510.9h5v268.7h-5z"/><path class="st5" d="M509.5 862.5c-2.6 0-5.1-.3-7.2-.9-14.7-3.7-25.9-14.7-29.2-28.7-2.8-11.7.3-23.4 8.2-31.3 6.9-6.8 16.3-9.6 25.3-7.4 7.5 1.8 12.9 5.6 15.9 11 5.3 9.5 1.8 20.8 1.6 21.3-2 6.7-6.8 11-13.4 12.2-7.3 1.3-15.7-1.7-19.8-7.2-3.1-4-3.5-8.8-1.2-13.5 2.4-4.8 5.3-7.7 8.9-8.6 3.3-.8 7.1.2 10.9 3 3.6 2.7 4.7 7.6 2.5 11.3-1 1.6-2.4 2.6-4 2.9-3.7.7-7.5-2.3-8-2.6-.6-.5-.8-1.5-.2-2.1.5-.6 1.5-.8 2.1-.2.9.7 3.6 2.4 5.6 2 .8-.1 1.5-.6 2-1.5 1.4-2.4.7-5.6-1.7-7.4-2.1-1.5-5.3-3.2-8.4-2.5-2.6.7-5 3-6.9 7-2.3 4.7-.8 8.2.9 10.4 3.5 4.6 10.6 7.2 16.9 6.1 5.4-1 9.4-4.6 11.1-10.1 0-.1 3.3-10.6-1.4-18.9-2.6-4.7-7.4-7.9-14-9.6-8-2-16.4.5-22.5 6.6-7.2 7.2-10 17.8-7.4 28.5 3.1 12.9 13.4 23.1 27 26.5 13.5 3.4 38.9-3.8 49.3-37.8l15.8-44.5c.3-.8 1.1-1.2 1.9-.9.8.3 1.2 1.1.9 1.9L555.2 822c-9.4 30.5-30.6 40.5-45.7 40.5z"/><path class="st5" d="M631 862.5c-16.7 0-36-13-44.5-40.7l-16.7-44.4c-.3-.8.1-1.6.9-1.9.8-.3 1.6.1 1.9.9l16.8 44.5c9.2 30.3 31.8 42.1 48.3 37.9 13.6-3.5 24-13.6 27-26.5 2.6-10.7-.2-21.3-7.4-28.5-6.1-6.1-14.5-8.5-22.5-6.6-6.7 1.6-11.4 4.9-14 9.6-4.7 8.4-1.4 18.8-1.4 18.9 1.7 5.6 5.6 9.2 11.1 10.1 6.3 1.1 13.4-1.4 16.9-6.1 1.7-2.2 3.1-5.8.9-10.4-1.9-4-4.3-6.4-6.9-7-3.1-.8-6.3.9-8.4 2.5-2.4 1.7-3.1 5-1.7 7.4.5.9 1.2 1.3 2 1.5 2 .4 4.7-1.3 5.6-2 .7-.5 1.6-.4 2.1.2.5.6.4 1.6-.2 2.1-.4.3-4.3 3.3-8 2.6-1.7-.3-3.1-1.3-4-2.9-2.2-3.7-1.2-8.7 2.4-11.3 3.8-2.8 7.5-3.8 10.9-3 3.5.9 6.5 3.8 8.9 8.6 2.3 4.7 1.9 9.5-1.2 13.5-4.1 5.5-12.5 8.5-19.8 7.2-6.6-1.2-11.4-5.5-13.4-12.2-.1-.4-3.7-11.7 1.6-21.2 3.1-5.5 8.4-9.2 15.9-11 9-2.2 18.5.6 25.3 7.4 8 7.9 11 19.6 8.2 31.3-3.3 14-14.5 25-29.2 28.7-2.4.5-4.9.8-7.4.8z"/><path class="st6" d="M552.5 114.6s12.8-18.3 25.7 0c0 0-9.2 24.8 20.2 20.2 0 0 17.6-1.8 25.9 1.8 0 0-6.7 37.6-27.8 42.2-21.1 4.6-74.2-1.7-82.5-21.1l-8.3-19.4 28.5-3.5c0-.1 30.2 6.4 18.3-20.2z"/><path d="M519.8 135.7s7.3 36.4 55.9 33.3c0 0 29.4-3 40.4-33.3 0 0 32.1-1.4 42.2 38.3s11.9 188.3 11.9 188.3h-18.3s-3.7-74.3-11-100-14.7-53.6-14.7-53.6-16.7 38.2-3.5 60.8c4.8 8.1 8.5 16.9 10.4 26.1 7.4 34.9 21.6 110.5 16.1 152.8l-3.7 84.6H500s-5.1-130.2 0-155.9c0 0-3.2-74.3 21.6-114.6 0 0-5.5-33.9-16.5-59.6 0 0-13 71.1-11.1 110.3l-.2 50.2h-19s-7.3-70-3.7-115.7 1-101.9 48.7-112z" style="fill:#ff4d53"/><path class="st5" d="M568.5 273.2c-20.3 0-37.2-4.8-48-8.8l.7-1.9c18.6 7.1 56 16.2 97.6-1.8l.8 1.8c-18.1 7.9-35.6 10.7-51.1 10.7z"/><path class="st6" d="M726.1 224.4s-26.2-46.2 0-54.3c26.2-8.1 49.6-5.6 49.6-5.6s25.2 9.5 47.2 54.1c19.8 40.1-63.5 43.1-63.5 43.1l-33.3-37.3z"/><path class="st5" d="M799.6 232.2s-78-52.3-78 15.3c0 0-4.7 30.9 16.9 50.6 21.6 19.7 0 69.3 0 69.3s-58.8 77.3-31.7 141.1l155.1 2.4s28.9-92.6 0-132.5-6.9-80.3-6.9-80.3l-31.2-80.5-24.2 14.6z"/><path d="M443.2 343.9V815c-121.3-17.9-224.2-96.7-280-206.1-12.2-24-22.2-49.5-29.6-76.1-5.4-19.3-9.4-39.1-12-59.5-2.2-17.4-3.3-35.1-3.3-53.1 0-7.7.2-15.4.6-23 1-18.1 3.1-35.8 6.3-53.2h318z" style="fill:#e6e7e8"/><path class="st9" d="M404.2 397.1v76.1H121.7c-2.2-17.4-3.3-35.1-3.3-53.1 0-7.7.2-15.4.6-23h285.2zM410.4 532.7v76.1H163.2c-12.2-24-22.2-49.5-29.6-76.1h276.8z"/><g><ellipse class="st10" cx="297.7" cy="98.9" rx="30.3" ry="55"/><path class="st10" d="M266.8 124.1s-16.1 26.2-11.9 30.6c4.2 4.4 31.5 19.4 31.5 19.4l7.7-25.2-27.3-24.8z"/><path d="m258.7 146.6 29.6 18.2s1.7 12.6 12.7 16.8l30.9 29.6s18.6 17.2 8.3 37.1c0 0-6.2 55 0 66.7l-84.6 2.8s-24.7-82.1-22-117.6 10.3-41.1 25.1-53.6z" style="fill:#feac02"/><path class="st10" d="m279.5 243.5 29.1 38.5s13.8 26.1 42 11.7 66.7-45.4 66.7-45.4 22 0 32.3-4.8l15.1 10.3s6.9-3.4-2.8-10.3l-9.6-6.9s8.3 0 23.4 6.2c0 0 6.2-3.4 0-6.2l-6.4-4.4h14.1s7-1.1 2.1-4.7h-12.2s0-4 6.4-4.6c6.4-.6 7.9-5.8 3.4-5.2-4.6.6-21.4-.3-35.2 4.9-13.8 5.2-24.5 5.5-24.5 5.5s-13.1-.3-24.8 7.3c-11.6 7.6-54.1 20.2-54.1 20.2s-4.8 4.3-12.6-2.8c-7.8-7-26.2-35.2-26.2-35.2l-26.2 25.9z"/><path class="st10" d="m333.6 292.9 2.4 31.5s80.4-23.2 88.1-32.1c0 0 15.9-2.8 18.3-15.9 2.4-13.1-1.8-25.1-1.8-25.1s-22-12-26.6 6.5l-2.4 19.7s-.4-.1-9.8 3.7c-1.6.7-68.2 11.7-68.2 11.7z"/><path class="st5" d="M427.7 249.3s-11 8.5-13.8 33.2c-2.4 21.3 7.9 261.4 7.9 261.4s-2.4 14.1-12.2 13.8v7.3s16.8 2.4 20.2-17.4c0 0-11.6-272.1-7.6-279.4s15.4-18.2 15.4-18.2l-9.9-.7zM220.4 742.6s-20.5 1.2-24.8 24.5c0 0 .9 5.8-3.1 12.2-4 6.4-11.3 22.3-11.3 22.3l4.6 3.4 15-25.4s3.7-6.7 4 1.2c.3 7.9.9 25.7.9 25.7s10.4 25.7 39.4 24.5c0 0 6.4-5.2 0-14.1-6.4-8.9-9.2-10.4-9.2-10.4s-8.2-2.4-8.2-23.2-4.7-42.7-4.7-42.7l-2.6 2z"/><path d="M274.9 578.1s3.4 26-.3 37.6c-3.7 11.6-8.9 33.6-6.4 57.8L266 809.6s30.9 59.6 53.2 44.3c0 0-11.6-2.8-14.7-21.7-3.1-19-6.4-27.2-6.4-27.2s14.4-165.4 15.3-174.9c.9-9.5 9.2-27.8 9.2-27.8s8.3-20.8 5.5-31.5l-53.2 7.3z" style="fill:#e2af88"/><path class="st5" d="M326.2 79.9s-6.2 0-10.1-12.5c0 0-7.6 12.9-25.5 6.1 0 0-2.6 8.8-21.6 20.6 0 0 20.7 25.2 3.6 34.8 0 0-14 2.4-14 16.5 0 5.8-3.2 11.1-8.2 14.1-6.8 3.9-15.8 6.8-21.8-.7-2.4-2.9-2.1-7.1.4-9.9 4.7-5.2 11.9-14.8 10-23.3 0 0-9.2-4.3-9.1-18.7 0-1 3.4-13.5 15.1-18.5 0 0 .5-39.9 30.7-44.6 0 0 36.4-9.3 50.4 21.9 0 0 11.6 45.9 1.8 86.9 0 0-17.4 14.8-36.6 0 0 0 31.1.9 34.6-34.6l.3-38.1z"/><path d="M236.3 203.6s2.1-50.2 37.1-29.6l35.1 44.7-29.1 29.6-43.1-44.7z" style="fill:#db8f07"/><path class="st5" d="M264.5 799.8s-17.1 11.3-9.2 33.9l1.8 5.8 1.7 33.9h5.6v-33s4.9-1.2 10.1 10.1c5.2 11.3 6.7 16.2 22.8 19.3 16.1 3.1 31.3-1.5 31.3-1.5s2.2-9.2-7.9-15-8.4-3.8-8.4-3.8-5.3 4.1-13.6-5c-8.2-9.2-25.1-42.6-34.2-44.7z"/><path class="st10" d="M345.2 557.4s17.4 40.4 1.5 65.4c-15.9 25.1-96 132.7-96 132.7s-18.3 38.5-14.1 57.2c0 0-18 5.5-16.2-70 0 0 10.1-5.7 21.4-29s64.8-101.2 64.8-101.2l14.1-45.2 24.5-9.9z"/><path d="M256.8 315.8s-19.6 33.6-29.4 108.8c-9.8 75.2-14.4 137.3-14.4 137.3s26.9-3.7 37 15.6c0 0 60.2 20.8 96-14.4 0 0 15-15 26-16.2l-32.7-234-82.5 2.9z" style="fill:#446fab"/></g><g><path class="st15" d="M728.4 751.2s-10.3 11.5-20.6-5c0 0-2.3-7.3 18.8-6.9 0 0 2.3-6.6 10.1-7.2s35.3 0 35.3 0-15.1 9.9-22.9 12.2c-7.8 2.3-14.1.4-20.7 6.9z"/><path class="st16" d="M721.7 677.9s-19.9-31.3 7.2-45.6c0 0 10-5.5 11-13.3 1-7.8 11.8-12.1 25.3-11.5 0 0 6.4-8.7 20.2-8.3 0 0 18.8-8.3 23.4-16.5 0 0-2.3 30.3-14.2 39.4 0 0 2.8 21.1-22.5 33 0 0-8.3 9.9-14.2 22.6s-29.3 20.3-36.2.2z"/><path d="M717.4 631.9s25.7-37.6 54.6-50.9 52.7-23.8 53.2-38.1c0 0-7.8 1.4-41.3 4.6-33.5 3.2-67 18.3-73.8 51.4-6.9 33 7.3 33 7.3 33z" style="fill:#798533"/><path class="st15" d="M695.9 583.2s-14.4-10.1-22.5-23.5c-1.4-2.3-17.4-7.3-2.3-17 0 0-22-24.3 4.6-29.4l26.6-5 3 61.7-9.4 13.2z"/><path class="st18" d="M650 619.1s-30.3-55-70.6-70.6c0 0-14.7-24.3 17.4-16.5 32.1 7.8 44.5 28 44.5 28s4.1 8.3 13.8 9.6c9.6 1.4 6.4 17.9 6.4 17.9s20.2 31.6-11.5 31.6zM644.1 626.9s21.6-1.4 27.1 5 6.9 14.7 3.2 23.4c0 0 6 4.1-1.8 14.7 0 0-6.8 25.1-15.1 16.1-10.7-11.5-13.4-59.2-13.4-59.2z"/><path class="st15" d="M641.3 712.2s10.3 12.6 21.1 0c0 0 8.3-5.5-5.5-7.8s-19.3-7.3-19.3-7.3-29.8-8.5-37.1-2c0 0 12.8 11.6 30.3 13.4l10.5 3.7z"/><path class="st16" d="M700.9 583.2c-1.4-2.4 25.7-73.9 86.2-116.8 0 0 38.5-23.6 33-51.2 0 0-23.4 30.3-53.2 39.4-29.8 9.2-65.1 35.8-71.5 53.7-6.4 17.9-8.3 28.9-3.2 33.5 0 0 0 12 10.5 28.9l-1.8 12.5z"/><path d="M657.4 686s-37.9-59.6-81.3-75.2c0 0-30.6-16.2-28.3-36.1 0 0 19.3 20.5 41.7 21.4 22.5.9 53.2 16.1 60.5 29.8s11.5 22.9 7.3 29.4c0 0 1.5 10.3-1.4 17.4l1.5 13.3z" style="fill:#758032"/><path class="st20" d="M722.9 754.8c-1.8 5.8-3.7 11.6-5.7 17.3-2 5.7-4.1 11.4-6.2 17.1-2.2 5.7-4.3 11.3-6.6 16.9-2.3 5.6-4.6 11.2-7.2 16.7 1.8-5.8 3.7-11.6 5.7-17.3 2-5.7 4.1-11.4 6.2-17.1 2.2-5.7 4.3-11.3 6.6-16.9 2.3-5.6 4.7-11.1 7.2-16.7zM697.3 805.3c.4-5.5.9-11.1 1.4-16.6.5-5.5 1.1-11 1.8-16.6 1.4-11 2.9-22 4.8-33 1.9-10.9 4-21.9 6.7-32.7.3-1.4.6-2.7 1-4.1l1.1-4c.8-2.7 1.4-5.4 2.3-8 .9-2.6 1.7-5.3 2.6-7.9l3-7.8c4.8-8.3 10.1-16.2 15.8-23.9 2.8-3.8 5.7-7.6 8.8-11.3 3-3.7 6.2-7.3 9.4-10.8 6.5-7 13.4-13.6 20.9-19.5 3.7-3 7.6-5.7 11.6-8.4 4-2.6 8.2-4.9 12.4-7-4.2 2.3-8.2 4.8-12.1 7.4-3.9 2.7-7.7 5.6-11.3 8.7-7.3 6.1-14 12.8-20.4 19.8-6.3 7.1-12.3 14.5-17.8 22.1-5.6 7.7-10.8 15.6-15.5 23.8v-.1c-4.2 10.2-7.3 20.8-10.1 31.5s-4.9 21.6-6.9 32.5c-2.1 10.9-3.8 21.8-5.3 32.8-1.6 11-3 22-4.2 33.1zM676.2 809.9c-.6-3.9-1.2-7.8-1.9-11.7-.3-2-.6-3.9-1-5.9-.3-1.9-.7-3.9-1-5.8-.7-3.9-1.4-7.8-2.2-11.6l-1.2-5.8-1.3-5.8c-.4-1.9-.9-3.8-1.3-5.8-.5-1.9-.9-3.8-1.4-5.7l-1.5-5.7-1.7-5.7c-.5-1.9-1.2-3.7-1.8-5.6l-.9-2.8c-.3-.9-.7-1.8-1-2.8l-1-2.8c-.3-.9-.7-1.9-1.1-2.7l-2.4-5.4c4.1 6.8 7.2 14.2 9.8 21.7 2.7 7.5 4.6 15.2 6.5 22.9 1.8 7.7 3.2 15.6 4.3 23.4.8 7.7 1.6 15.6 2.1 23.6zM685.3 805.3l-4.9-30.9c-1.7-10.3-3.3-20.6-5.1-30.9-1.8-10.3-3.7-20.5-5.9-30.7-1.1-5.1-2.3-10.2-3.7-15.2-.7-2.5-1.5-5-2.4-7.4-.2-.6-.5-1.2-.7-1.8-.3-.6-.5-1.2-.8-1.8l-.9-1.7-1.1-1.6c1.8 1.9 3 4.3 4.1 6.7 1.1 2.4 2 4.8 2.8 7.3 1.7 5 3.1 10 4.3 15.1 1.3 5.1 2.4 10.2 3.4 15.3 1 5.1 2 10.3 2.9 15.4 1.8 10.3 3.3 20.6 4.7 31 1.3 10.4 2.5 20.8 3.3 31.2zM689 805.3l-7.3-47c-2.5-15.6-4.9-31.3-7.5-46.9-1.3-7.8-2.6-15.6-4-23.4-1.4-7.8-2.9-15.6-4.4-23.3-1.5-7.8-3.2-15.5-5-23.2-.5-1.9-.9-3.8-1.5-5.7-.5-1.9-1.1-3.8-1.6-5.7l-.4-1.4-.5-1.4c-.3-.9-.6-1.9-1-2.8l-1.1-2.7c-.4-.9-.9-1.7-1.4-2.6 2.3 3.3 3.6 7.1 5 10.8.7 1.9 1.3 3.8 1.9 5.7.6 1.9 1.2 3.8 1.7 5.7 2.1 7.7 3.9 15.4 5.6 23.1 3.4 15.5 6.1 31.1 8.8 46.7 2.5 15.6 4.9 31.3 7.1 47 1.1 7.9 2.1 15.7 3.1 23.6.7 7.7 1.7 15.6 2.5 23.5z"/><path class="st20" d="M689 819c-.8-10.2-1.3-20.4-1.8-30.7-.4-10.2-.8-20.5-1.1-30.7-.5-20.5-.6-41-.3-61.5.2-10.2.6-20.5 1.1-30.7.5-10.2 1.2-20.5 2.2-30.7 1-10.2 2.3-20.4 4.3-30.5 1-5 2.1-10 3.6-15 .7-2.5 1.6-4.9 2.5-7.3 1-2.4 2-4.7 3.3-6.9-2.4 4.6-4 9.4-5.3 14.4-1.3 4.9-2.3 10-3.1 15-1.7 10.1-2.9 20.2-3.7 30.4-1.7 20.4-2.5 40.8-2.8 61.3-.5 20.5-.4 40.9-.1 61.4.1 10.2.3 20.5.5 30.7.1 10.4.4 20.6.7 30.8zM694.7 834.9c-.4-8.7-.5-17.4-.7-26-.1-8.7 0-17.4.1-26.1.1-8.7.4-17.4.8-26 .4-8.7.9-17.4 1.5-26 .7-8.7 1.5-17.3 2.5-26 1-8.6 2.1-17.3 3.7-25.8 1.5-8.6 3.3-17.1 5.6-25.5.6-2.1 1.3-4.2 1.9-6.3.6-2.1 1.4-4.1 2.1-6.2.3-1 .8-2 1.2-3l1.2-3c.9-2 1.9-3.9 2.9-5.9-3.7 7.9-6.3 16.2-8.4 24.6-2.1 8.4-3.7 16.9-5 25.5-2.7 17.1-4.5 34.4-5.7 51.7-1.4 17.3-2.1 34.6-2.7 52-.3 8.7-.5 17.3-.7 26-.2 8.7-.3 17.4-.3 26z"/><path d="M654.2 795.9h64.2v58.9s-19 40.9-59.1 3.3l-5.1-62.2z" style="fill:#cd877a"/><path class="st5" d="M655.2 796.8h63.2v5.5h-63.2zM717.9 866.4h-57.7c-1.5 0-2.7 1.2-2.7 2.7v1.6c0 1.5 1.2 2.7 2.7 2.7h57.7c1.5 0 2.7-1.2 2.7-2.7v-1.6c0-1.5-1.2-2.7-2.7-2.7z"/></g><path class="st5" d="M37 873.5h913.9v7H37z"/></svg>