<svg version="1.1" id="Layer_1" xmlns="http://www.w3.org/2000/svg" x="0" y="0" viewBox="0 0 1000 546.2" style="enable-background:new 0 0 1000 546.2" xml:space="preserve"><style>.st1{fill:#cfb5f6}.st2{fill:#3b907d}.st3{fill:#97d9ca}.st4{fill:#51bea7}.st5{opacity:.28}.st6{opacity:.32;fill:#446fab}.st7{fill:#f9cd7f}.st8{fill:#e0a341}.st9{fill:#e6a343}.st10{fill:#ff4d53}.st11{fill:#333232}.st12{fill:#ffbf9c}.st16{fill:#e29627}</style><g style="opacity:.69"><ellipse transform="rotate(-85.158 528.101 113.385) scale(.99997)" class="st1" cx="528.1" cy="113.4" rx="57.3" ry="109.5"/><ellipse class="st1" cx="924.6" cy="341.4" rx="26.2" ry="50.2"/><ellipse transform="rotate(-68.932 60.31 177.396)" class="st1" cx="60.3" cy="177.4" rx="57.9" ry="30.3"/><path class="st1" d="M134.8 529.1S-41 416.7 53 279.2s36.5-202 106-241.1C251.7-14.1 366.2.2 392.6 90.8s95 97.5 125.8 97.6c28 .1 109-18.8 157.7-61.6s166.4-19.5 204.3 69.5c37.9 88.9-10.2 143 12.5 192.6s140.9 64.5 59.6 147.2l-817.7-7z"/></g><path class="st2" d="m201.1 188.4-85 66.9 133.8 215.1 78.9-76.9z"/><path class="st3" d="M241.2 445c-1.2.7-2.2 1.4-3.2 2.3l-107-172c.2-.1.5-.2.7-.4 8.8-4.9 11.9-16 7-24.8-.9-1.5-1.9-2.9-3.1-4l50.8-40c.2.4.4.9.7 1.3 4.9 8.8 16 11.9 24.8 7 .7-.4 1.4-.9 2.1-1.3l99.9 160.4c-8.1 5.1-10.9 15.8-6.2 24.3 1.2 2.2 2.8 4 4.6 5.4l-47.8 46.6c-5.4-7.1-15.3-9.3-23.3-4.8z"/><ellipse transform="rotate(-29.226 224.699 335.252)" class="st4" cx="224.7" cy="335.3" rx="39.2" ry="47.3"/><path d="m193.7 340.2 6.8-2.1c-1.2-3.9-1.2-8.3-.3-11.2l5.1.2c-.8 2.9-1.1 6.9.1 10.6 1.5 4.8 5.3 7.1 9.1 5.9 3.7-1.2 5.2-4.5 5.6-10.1.5-7.7 2.3-13 8.2-14.8 5.6-1.8 11.1.9 14.1 6.7l6.8-2.1 1.3 4.2-6.5 2.1c1.1 4 .9 7.2.4 9.4l-5-.2c.4-1.7 1-5-.4-9.2-1.6-5.2-5.4-6.2-8.1-5.3-3.5 1.1-4.4 4.1-5 10.8-.6 7.8-3 12.4-9 14.3-5.4 1.7-11.5-.4-14.8-7l-7 2.2-1.4-4.4z" class="st5"/><path class="st2" d="m101.6 295.8-27.2 97.1 219.1 88.4L310.6 380z"/><path class="st3" d="M272.9 467c-.5 1.1-.9 2.3-1.2 3.5l-175-70.7c.1-.2.2-.5.3-.7 3.9-8.5.2-18.6-8.4-22.5-1.5-.7-3-1.1-4.5-1.4l16.3-58.1 1.2.6c8.5 3.9 18.6.2 22.5-8.4.3-.7.6-1.4.8-2.1l163.4 65.9c-3.3 8.3.5 17.9 8.7 21.7 2.1 1 4.3 1.5 6.5 1.5l-10.4 61.4c-7.9-2.3-16.6 1.5-20.2 9.3z"/><ellipse transform="rotate(-65.36 200.188 393.408)" class="st4" cx="200.2" cy="393.4" rx="36.6" ry="44.1"/><path d="m179.6 414.1 3.9-5.3c-3-2.3-5.5-5.6-6.4-8.3l3.9-2.6c1 2.7 3 5.7 5.9 7.9 3.8 2.8 7.9 2.5 10.1-.6 2.1-2.9 1.4-6.2-1.4-10.7-3.8-6.1-5.4-11.1-2-15.7 3.2-4.4 8.8-5.4 14.3-2.7l3.9-5.3 3.3 2.4-3.8 5.2c3.1 2.4 4.6 4.9 5.5 6.9l-3.9 2.6c-.7-1.5-2-4.3-5.3-6.8-4.1-3-7.4-1.7-9 .5-2 2.7-1.1 5.6 2.1 10.9 3.8 6.2 4.6 11 1.1 15.7-3.1 4.2-8.9 6-15 2.9l-4 5.5-3.2-2.5z" class="st5"/><path class="st2" d="m119.1 429.4 15.7 99.7 236.1-11-26.7-99.2z"/><path class="st3" d="M346.2 513.7c0 1.2.1 2.5.4 3.6l-188.7 8.8v-.8c0-9.4-7.6-17-17-17-1.6 0-3.2.2-4.7.7l-9.4-59.6c.4 0 .9.1 1.4.1 9.4 0 17-7.6 17-17 0-.8-.1-1.5-.2-2.3l176-8.2c.5 9 7.9 16.1 17 16.1 2.3 0 4.5-.5 6.5-1.3l16.2 60.1c-8.2 1.1-14.5 8.2-14.5 16.8z"/><ellipse class="st4" cx="249.4" cy="477.1" rx="44.1" ry="36.6"/><path d="m239.3 504.5 1.3-6.5c-3.7-.8-7.3-2.8-9.3-4.9l2.5-4c2 2 5.1 4 8.7 4.7 4.6 1 8.2-1.1 9-4.7.7-3.6-1.3-6.2-5.7-9.2-6-3.9-9.5-7.8-8.4-13.4 1.1-5.4 5.7-8.6 11.9-8.4l1.3-6.5 4 .8-1.3 6.3c3.8.9 6.2 2.5 7.9 4l-2.4 3.9c-1.2-1.1-3.6-3.1-7.7-3.9-5-1-7.4 1.6-8 4.2-.7 3.3 1.3 5.5 6.5 9 6.1 4.1 8.8 8.1 7.6 13.8-1.1 5.1-5.6 9.2-12.5 8.9l-1.4 6.7-4-.8z" class="st5"/><path class="st6" d="M435.4 263h56.1v263.4h-56.1zM518.4 148.5h56.1v379.7h-56.1zM688.1 59.9h56.1v472h-56.1zM773.5 161.9h56.1v365.6h-56.1zM603 202.7h56.1v327.4H603z"/><g><path class="st6" d="M435.4 313.5h56.1v213.9h-56.1zM518.4 220.5h56.1v308.4h-56.1zM688.1 148.5h56.1v383.4h-56.1zM773.5 231.4h56.1v296.9h-56.1zM603 264.5h56.1v265.9H603z"/></g><g><ellipse class="st7" cx="332.6" cy="521" rx="106" ry="12.3"/><path class="st7" d="M226.6 498.2c-.5 5.7 0 22.8 0 22.8h212v-22.4l-212-.4z"/><ellipse class="st8" cx="332.6" cy="498.2" rx="106" ry="12.3"/><ellipse class="st7" cx="332.6" cy="498.2" rx="99.1" ry="11.5"/><path class="st9" d="M284.9 510.5h2.1v21.6h-2.1zM383.4 509.6h2.1V532h-2.1z"/></g><g><ellipse class="st7" cx="317.8" cy="497.4" rx="106" ry="12.3"/><path class="st7" d="M211.8 474.5c-.5 5.7 0 22.8 0 22.8h212v-22.4l-212-.4z"/><ellipse class="st8" cx="317.8" cy="474.5" rx="106" ry="12.3"/><ellipse class="st7" cx="317.8" cy="474.5" rx="99.1" ry="11.5"/><path class="st9" d="M270.1 486.8h2.1v21.6h-2.1zM368.6 485.9h2.1v22.4h-2.1z"/></g><g><ellipse class="st7" cx="329.4" cy="473.7" rx="106" ry="12.3"/><path class="st7" d="M223.4 450.9c-.5 5.7 0 22.8 0 22.8h212v-22.4l-212-.4z"/><ellipse class="st8" cx="329.4" cy="450.9" rx="106" ry="12.3"/><ellipse class="st7" cx="329.4" cy="450.9" rx="99.1" ry="11.5"/><path class="st9" d="M281.6 463.1h2.1v21.6h-2.1zM380.2 462.3h2.1v22.4h-2.1z"/></g><g><ellipse class="st7" cx="317.9" cy="441.7" rx="106" ry="12.3"/><path class="st7" d="M211.9 418.9c-.5 5.7 0 22.8 0 22.8h212v-22.4l-212-.4z"/><ellipse class="st8" cx="317.9" cy="418.9" rx="106" ry="12.3"/><ellipse class="st7" cx="317.9" cy="418.9" rx="99.1" ry="11.5"/><path class="st9" d="M270.2 431.1h2.1v21.6h-2.1zM368.7 430.3h2.1v22.4h-2.1z"/></g><g><ellipse class="st7" cx="793.7" cy="525.1" rx="106" ry="12.3"/><path class="st7" d="M687.8 502.3c-.5 5.7 0 22.8 0 22.8h212v-22.4l-212-.4z"/><ellipse class="st8" cx="793.7" cy="502.3" rx="106" ry="12.3"/><ellipse class="st7" cx="793.7" cy="502.3" rx="99.1" ry="11.5"/><path class="st9" d="M746 514.5h2.1v21.6H746zM844.5 513.7h2.1v22.4h-2.1z"/><g><ellipse class="st7" cx="811.5" cy="496.1" rx="106" ry="12.3"/><path class="st7" d="M705.5 473.3c-.5 5.7 0 22.8 0 22.8h212v-22.4l-212-.4z"/><ellipse class="st8" cx="811.5" cy="473.3" rx="106" ry="12.3"/><ellipse class="st7" cx="811.5" cy="473.3" rx="99.1" ry="11.5"/><path class="st9" d="M763.7 485.6h2.1v21.6h-2.1zM862.3 484.7h2.1v22.4h-2.1z"/></g><g><ellipse class="st7" cx="818.5" cy="474.5" rx="106" ry="12.3"/><path class="st7" d="M712.6 451.7c-.5 5.7 0 22.8 0 22.8h212v-22.4l-212-.4z"/><ellipse class="st8" cx="818.5" cy="451.7" rx="106" ry="12.3"/><ellipse class="st7" cx="818.5" cy="451.7" rx="99.1" ry="11.5"/><path class="st9" d="M770.8 464h2.1v21.6h-2.1zM869.3 463.1h2.1v22.4h-2.1z"/></g><g><ellipse class="st7" cx="836.9" cy="443.8" rx="106" ry="12.3"/><path class="st7" d="M730.9 421c-.5 5.7 0 22.8 0 22.8h212v-22.4l-212-.4z"/><ellipse class="st8" cx="836.9" cy="421" rx="106" ry="12.3"/><ellipse class="st7" cx="836.9" cy="421" rx="99.1" ry="11.5"/><path class="st9" d="M789.2 433.3h2.1v21.6h-2.1zM887.7 432.4h2.1v22.4h-2.1z"/></g><g><ellipse transform="rotate(-17.259 842.536 303.456)" class="st7" cx="842.5" cy="303.5" rx="89.1" ry="10.3"/><path class="st7" d="M751.7 311.6c1 4.7 5.7 18.3 5.7 18.3L927.6 277l-5.6-18-170.3 52.6z"/><ellipse transform="rotate(-17.259 836.849 285.15)" class="st8" cx="836.8" cy="285.1" rx="89.1" ry="10.3"/><ellipse transform="rotate(-17.259 836.849 285.15)" class="st7" cx="836.8" cy="285.1" rx="83.3" ry="9.6"/><path transform="rotate(-17.259 805.146 315.27)" class="st9" d="M804.2 306.2h1.8v18.1h-1.8z"/><path transform="rotate(-17.259 884.116 290.36)" class="st9" d="M883.2 280.9h1.8v18.8h-1.8z"/></g><g><ellipse transform="rotate(-75.942 859.512 391.757)" class="st7" cx="859.5" cy="391.7" rx="12.3" ry="106"/><path class="st7" d="M762.2 343.9c-1.9 5.4-5.6 22.1-5.6 22.1l205.7 51.5 5.5-21.8-205.6-51.8z"/><ellipse transform="rotate(-75.942 865.053 369.636)" class="st8" cx="865" cy="369.6" rx="12.3" ry="106"/><ellipse transform="rotate(-75.942 865.053 369.636)" class="st7" cx="865" cy="369.6" rx="11.5" ry="99.1"/><path transform="rotate(-75.942 814.203 380.641)" class="st9" d="M803.4 379.5H825v2.1h-21.6z"/><path transform="rotate(-75.942 909.871 404.163)" class="st9" d="M898.6 403.1H921v2.1h-22.4z"/></g></g><g><path class="st10" d="M428.7 461.5c-.7 0-1.5-.2-2.3-.5l4.3-9.8c-2-.9-3.9-.3-4.6.3 6.1-4.8 48.4-67.1 73.7-105.2l4.4-6.7 58.2 85.8L650 212.7l65.3 100.1L849.1 77.2l9.3 5.3-142.6 250.9-63.8-97.8-87.4 212.3-60.4-89.1c-6.5 9.7-19.2 28.7-32 47.5-10.7 15.7-19.5 28.1-25.9 36.9-3.9 5.3-7 9.4-9.3 12.1-2.5 3.1-5.1 6.2-8.3 6.2z"/><path class="st10" d="m814.2 98.2 48-34.5-7.2 54.2-12.5-18z"/></g><g><path class="st2" d="M376.2 311.4c-.3 0-.6-.1-.9-.4-.4-.5-.3-1.1.2-1.5 0 0 .8-.6 1.9-1.7.4-.4 1.1-.4 1.5 0 .4.4.4 1.1 0 1.5-1.3 1.2-2.1 1.8-2.1 1.9-.1.2-.4.2-.6.2zM381.7 305.7c-.2 0-.5-.1-.7-.2-.5-.4-.6-1-.2-1.5 1.1-1.3 2-2.8 2.9-4.3.3-.5 1-.7 1.5-.4.5.3.7 1 .4 1.5-.9 1.6-2 3.1-3.1 4.5-.1.2-.4.4-.8.4zm5.6-9.1c-.2 0-.3 0-.4-.1-.5-.2-.8-.9-.5-1.4.7-1.6 1.4-3.2 1.9-4.8.2-.6.8-.9 1.4-.7.6.2.9.8.7 1.4-.6 1.7-1.2 3.4-2 5.1-.3.3-.7.5-1.1.5zm3.3-10.1h-.2c-.6-.1-.9-.7-.8-1.3.4-1.7.7-3.4.9-5.1.1-.6.6-1 1.2-.9.6.1 1 .6.9 1.2-.2 1.8-.5 3.6-.9 5.4-.1.4-.6.7-1.1.7zm1.3-10.5s-.1 0 0 0c-.6 0-1.1-.5-1.1-1.1v-1.1c0-1.4 0-2.7-.1-4.1 0-.6.4-1.1 1-1.1s1.1.4 1.1 1c.1 1.4.1 2.9.1 4.3v1.1c0 .5-.5 1-1 1zm-.8-10.7c-.5 0-1-.4-1.1-.9-.3-1.7-.6-3.4-1-5.2-.1-.6.2-1.2.8-1.3.6-.1 1.2.2 1.3.8.4 1.8.7 3.6 1 5.3.1.6-.3 1.1-.9 1.2 0 .1 0 .1-.1.1zm-2-10.4c-.5 0-1-.4-1.1-.9-.3-1.8-.5-3.7-.6-5.4 0-.6.4-1.1 1-1.1s1.1.4 1.1 1c.1 1.7.3 3.4.6 5.2.1.6-.3 1.1-.9 1.2h-.1zm-.7-10.6c-.7 0-1.1-.5-1.1-1.1.1-1.9.3-3.7.7-5.4.1-.6.7-1 1.3-.8.6.1 1 .7.8 1.3-.3 1.6-.6 3.3-.7 5.1 0 .4-.4.9-1 .9zm2.2-10.4c-.1 0-.3 0-.4-.1-.5-.2-.8-.9-.6-1.4.7-1.7 1.6-3.4 2.6-4.9.3-.5 1-.6 1.5-.3s.6 1 .3 1.5c-.9 1.4-1.7 2.9-2.4 4.5-.2.5-.6.7-1 .7zm6-8.7c-.3 0-.6-.1-.8-.3-.4-.4-.4-1.1 0-1.5 1.3-1.3 2.8-2.4 4.4-3.4.5-.3 1.2-.2 1.5.4.3.5.2 1.2-.4 1.5-1.5.9-2.8 1.9-4 3.1-.2.1-.5.2-.7.2zM405.6 219.6c-.4 0-.9-.3-1-.7-.2-.6.1-1.2.6-1.4 1.6-.6 2.7-.8 2.7-.8.6-.1 1.1.3 1.3.9.1.6-.3 1.1-.9 1.3 0 0-1 .2-2.4.7h-.3z"/></g><path class="st3" d="M398.7 206.1s37.1-9.4 44.5-9.9l-14.7 26.3-29.8-16.4z"/><path class="st2" d="M439.5 198.2c-.5.7-30.2 12.8-30.2 12.8v16.1l8.7-10.4 21.5-18.5z"/><path class="st11" d="M53.1 529.1h914.7v8.2H53.1z"/><g><path class="st12" d="m439.5 499.9 5.2 18.2 17.7-2.5-8.6-15.7zM293.4 239.7v26.9s4.8 17.4 19.7 15.9c14.9-1.5 6.1-22.3 6.1-22.3l-5.6-.7-1-12.5-19.2-7.3z"/><ellipse transform="rotate(-78.329 310.623 229.13)" class="st12" cx="310.6" cy="229.1" rx="25.9" ry="15.5"/><path d="M382.1 360.7h27.8s10.1-1.5 13.8 13.1 34 129.5 34 129.5-19.2 2-20.2 0-19.2-39.2-19.9-39.2-22.4-31.5-23.4-53l-1-12.8-26.1 1.2v-35l15-3.8z" style="fill:#3b6393"/><path class="st12" d="m390 504.2 4.9 15.1 17.5-2.9-7.2-16.5z"/><path class="st11" d="M392.1 512.7s-8.8 12.1-.4 16c6.5 3.1 30.4 2.4 40.7 2 2.5-.1 3.9-3.1 2.3-5-1.9-2.3-5.2-4.9-10.7-6.3-2-.5-11.6-5.4-11.6-5.4s-11.7 1.4-20.3-1.3zM441.6 513.7s-6.8 13.3.1 16.3c5.4 2.3 30.4 1 41 .3 2.9-.2 4.4-3.5 2.7-5.8-1.4-1.8-3.7-3.7-7.5-5.1-9.9-3.4-15.2-5.7-15.2-5.7s-12.7 3.4-21.1 0z"/><path d="M269.1 378.2s-5.2 21.7 5.9 34.5 58.6 3.4 58.6 3.4l19.1-5.7s1.6 28.3 8.5 37.4l27.6 57.1h19.5l-19-92.8-2.7-12.1-5.2-20.7s-2.2-12.3-14.3-10.9c-12.1 1.4-36.9-1.4-36.9-1.4l-39.6 6.3-21.5 4.9z" style="fill:#4570ad"/><path d="m361.2 310.2-5.1 22-7.9 34.1-81.3 14.3 10.3-54 .1-.4h-22.5v-39.1c1.7-18 10.7-23.6 15.1-25.3 1.5-.6 2.5-.7 2.5-.7l21.2-2.3 1-.1 16.2 18.7 3-17.9s7.4-2.3 19.5-.8c7.4.9 11.6 5.5 13.7 9 1.3 2.1 1.8 3.8 1.8 3.8l12.4 38.7z" style="fill:#feac02"/><path class="st12" d="m257.5 324 4.2 37.9s.5 7.9 11.1 6.4 45.6-8.1 45.6-8.1l13.8 2.5 4.2-17.8s-10.2-1-14.5 2.5c-4.3 3.4-2.3 2.2-2.3 2.2l-42.1-.2.5-25.4h-20.5z"/><path class="st16" d="m280.9 326.7-3.8-.1-22.4-.4v-39.1c1.7-18 10.7-23.6 15.1-25.3 4.8 4.6 11.4 14.1 11.1 30.6-.5 25.7 0 34.3 0 34.3zM361.2 310.2l-5.1 22-11.9-.6s-.2-50 2.2-61.1c.2-1 .3-2 .4-2.8 1.3 2.1 1.8 3.8 1.8 3.8l12.6 38.7z"/><path class="st11" d="m324.7 365.4 17.2-53.7 69-2.7s6.4-.5 3 10.5c-3.4 11-16.3 43-16.3 43s-1.2 5.5-8.6 6.1c-7.4.6-67.2 2.5-67.2 2.5l-36.3 2.8v-5.2l39.2-3.3z"/><circle cx="375.1" cy="337.3" r="6.5" style="fill:#6d6e71"/><path d="M296.3 221.6s10.1-7.8 11.3-12.2c0 0 3-3.3 10.3 0 11.6 5.2 8.7 17.7 8.7 17.7l-.7 5.2-2.3 7.5s7.8-2.8 9-14.5 5.4-13.1-3.8-22.5-15.1-9.9-25.2-9c-10.1 1-21.2 1.8-20.8 22.8s11.8 30.9 11.8 30.9l1.7-25.9z" style="fill:#3f2821"/><ellipse transform="rotate(-17.259 294.472 227.853)" class="st12" cx="294.5" cy="227.8" rx="5.4" ry="8"/></g></svg>