<svg version="1.1" id="Layer_1" xmlns="http://www.w3.org/2000/svg" x="0" y="0" viewBox="0 0 968.56 605.35" style="enable-background:new 0 0 968.56 605.35" xml:space="preserve"><style>.st2{fill:#fc9866}.st6{fill:#2d2d2d}.st7{fill:#4a7ea8}.st9{opacity:.57;fill:#f1f2f2}.st10{fill:#a7a9ac}.st10,.st11{opacity:.57}.st15{fill:#ffa05f}</style><path d="M412.55 581.69s-345.89 15.24-391.5-204.6 44.33-224.91 134.3-271.79S336.53-21.4 453.09 39.42s183.71 89.96 238.19 65.88c54.48-24.07 108.27 4.09 169.43 110.37s120.71 54.34 92.84 174.7-50.21 152.04-116.96 167.24c-66.75 15.21-424.04 24.08-424.04 24.08z" style="opacity:.52;fill:#cfb5f6"/><path d="M425.46 594.13S99.42 609.37 56.43 389.53s41.79-224.91 126.59-271.79S353.8-8.95 463.68 51.86s173.17 89.96 224.52 65.88c51.35-24.07 102.06 4.09 159.71 110.37 57.65 106.28 113.78 54.34 87.51 174.7-26.27 120.36-47.33 152.04-110.25 167.24-62.92 15.21-399.71 24.08-399.71 24.08z" style="fill:#cfb5f6"/><path class="st2" d="M178.57 207.1s-4.47 38.2-13.64 50.99c-9.17 12.78 38.13 33.24 38.13 33.24l20.27-30.68-15.2-11.43s-5.16-8 1.64-23.34l-31.2-18.78z"/><ellipse class="st2" cx="209.78" cy="214.43" rx="22.34" ry="29.84"/><path d="M228.74 198.66s24.19-30.23-5.82-30.23c-2.11 0-16.89-.42-35.48-5.07 0 0-26.61 1.27-21.96 32.1s10.14 20.19 9.71 35.01h5.07s9.69-4.57-1.89-16.04c0 0 2.87-13.54 13.15 0 0 0 8.72 5.58 9.92-7.33 0 0-1.42-7 8.34-5.73 0 0 14.17-5.03 10.49-13.28l8.47 10.57z" style="fill:#371911"/><path d="M169.4 246.98s4.53 26.94 21.42 27.2 18.96-22.55 18.96-22.55 26.23 12.25 32.56 29.56 20.69 43.92 20.69 43.92l-10.98 29.99s-22.81-9.29-28.72-22.38c0 0-9.16 42.66-21.9 48.15 0 0-3.78-8.7-24.56-15.63-2.53-.84-45.61 4.65-57.44 12.25 0 0 10.56-52.37 5.07-79.4-5.48-27.04 44.9-51.11 44.9-51.11z" style="fill:#ff4d53"/><path class="st2" d="M252.99 352.55s26.52 10.57 23.99-20.68c0 0-6.76-19.43-26.18-37.59 0 0-2.96-10.22 2.96-20.1 0 0 2.96-14.53-10.56-20.44s-15.87-13.27-15.32-3.68c.54 9.59 4.25 41.27 4.25 41.27s4.9 49.39 20.86 61.22z"/><path d="M122.4 372.84s-28.72 27.45-13.94 51.52 27.52 37.59 76.48 16.05c0 0 46.84-8.87 62.05-30.83 0 0 4.87-43.5 20.92-52.79 0 0-46.4-3.95-55.2 9.29-8.8 13.24-13.86 14.78-13.86 14.78s1.45-18.27-21.96-15.63l-54.49 7.61z" style="fill:#29292b"/><path class="st2" d="M172.66 369.64s7.63-11.48 20.89-3.57c13.26 7.92 3.61 24.5 3.61 24.5l-27.87 77.71s-3.62 16.89-4.35 28.3c0 0-19.3-1.27-20.57-5.91-1.27-4.65-2.11-79.4-2.11-79.4s18.84-30.62 30.4-41.63zM257.13 365.8s13.93-19.65 27.02-2.51-2.96 59.8-2.96 59.8-16.89 30.83-18.16 45.19c-1.27 14.36 0 21.96 0 21.96l-20.69-6.33V445.9l4.65-36.32s2.22-32.05 10.14-43.78z"/><path class="st6" d="M143.94 486.49s14.91 10.93 21.6 3.75c0 0 3.73 7.18 19.15 15.2 0 0 33.35 18.62 13.31 21.96-2.53.42-17.74 3.38-30.41-4.22-12.67-7.6-17.32-4.22-25.34-8.87-8.02-4.64-13.93-12.98 1.69-27.82zM242.34 474.62s-22.38 4.22-8.02 24.5c0 0 30.83 5.49 46.46 12.67s32.1-3.8 17.74-13.09-31.74-12.2-31.74-12.2l-3.73-7.86c-.01-.01-12.26 1.47-20.71-4.02z"/><circle class="st7" cx="227.79" cy="260.07" r="23.39"/><path class="st2" d="m177.73 320.04-2.53 38.85s27.03 4.85 41.39-30.09 10.92-66.01 10.92-66.01-7.97-13.88-15.99-12.73c-8.02 1.14-10.43-1.39-10.07 3.68.36 5.07-9.45 13.28.09 20.44 9.53 7.16 14.96 11.66 8.25 19.68-6.72 8.02-23.62 25.76-32.06 26.18z"/><ellipse transform="rotate(-25.614 184.952 214.44)" class="st2" cx="184.94" cy="214.43" rx="6.31" ry="8.42"/><g><ellipse cx="357.75" cy="353.98" rx="68.46" ry="5.14" style="opacity:.11;fill:#2d2d2d"/><circle class="st7" cx="335.88" cy="323.09" r="31.86"/><path class="st7" d="M319.65 298.24a2.57 2.57 0 0 1-2.57-2.57v-9.03c0-7.58 6.17-13.75 13.75-13.75H341c3.69 0 7.16 1.44 9.76 4.07 2.6 2.62 4.02 6.1 3.99 9.8l-.07 8.94a2.563 2.563 0 0 1-2.57 2.54h-.02a2.554 2.554 0 0 1-2.54-2.59l.07-8.94c.02-2.32-.87-4.5-2.5-6.14a8.569 8.569 0 0 0-6.12-2.55h-10.17c-4.75 0-8.62 3.87-8.62 8.62v9.03a2.554 2.554 0 0 1-2.56 2.57z"/><g><circle class="st7" cx="394.08" cy="328.84" r="20"/><path class="st7" d="M383.89 313.24c-.89 0-1.61-.72-1.61-1.61v-5.67c0-4.76 3.87-8.63 8.63-8.63h6.38c2.32 0 4.5.91 6.13 2.55a8.583 8.583 0 0 1 2.5 6.15l-.05 5.61c-.01.89-.73 1.6-1.61 1.6h-.01c-.89-.01-1.6-.73-1.6-1.62l.05-5.61a5.39 5.39 0 0 0-1.57-3.85 5.378 5.378 0 0 0-3.84-1.6h-6.38a5.42 5.42 0 0 0-5.41 5.41v5.67c0 .88-.72 1.6-1.61 1.6z"/></g></g><g><path class="st9" d="M546.31 358.52h-75.76c-9.88 0-17.88-8.01-17.88-17.88v-.93c0-9.88 8.01-17.88 17.88-17.88h75.76c9.88 0 17.88 8.01 17.88 17.88v.93c0 9.87-8 17.88-17.88 17.88z"/><path class="st10" d="M546.31 323.76h-75.76c-9.88 0-17.88-8.01-17.88-17.88v-.93c0-9.88 8.01-17.88 17.88-17.88h75.76c9.88 0 17.88 8.01 17.88 17.88v.93c0 9.87-8 17.88-17.88 17.88z"/><path class="st9" d="M546.31 287.3h-75.76c-9.88 0-17.88-8.01-17.88-17.88v-.93c0-9.88 8.01-17.88 17.88-17.88h75.76c9.88 0 17.88 8.01 17.88 17.88v.93c0 9.88-8 17.88-17.88 17.88z"/><path style="fill:#f1f2f2" d="M507.23 238.77h329.22v10.26H507.23z" class="st11"/><g class="st11"><path style="fill:#a7a9ac" d="M507.23 228.34h329.22v10.26H507.23z"/></g><g><path class="st9" d="M843.01 358.31h-75.76c-9.88 0-17.88-8.01-17.88-17.88v-.93c0-9.88 8.01-17.88 17.88-17.88h75.76c9.88 0 17.88 8.01 17.88 17.88v.93c0 9.87-8.01 17.88-17.88 17.88z"/><path class="st10" d="M843.01 322.71h-75.76c-9.88 0-17.88-8.01-17.88-17.88v-.93c0-9.88 8.01-17.88 17.88-17.88h75.76c9.88 0 17.88 8.01 17.88 17.88v.93c0 9.87-8.01 17.88-17.88 17.88z"/><path class="st9" d="M843.01 287.3h-75.76c-9.88 0-17.88-8.01-17.88-17.88v-.93c0-9.88 8.01-17.88 17.88-17.88h75.76c9.88 0 17.88 8.01 17.88 17.88v.93c0 9.88-8.01 17.88-17.88 17.88z"/></g></g><g><path style="fill:#88add8" d="m368.64 457.64-64.61 38.48 606.88 3.75-45.61-39.05z"/><ellipse class="st15" cx="464.08" cy="226.9" rx="23.28" ry="32.78"/><ellipse class="st15" cx="476.71" cy="224.06" rx="5.21" ry="7.33"/><path class="st15" d="m471.51 251.96 20.45 17.74 16.47-22.38-24.07-15.93z"/><path d="M440.8 224.06c-.24 2.31-12.19-9.68-5.85-22.78s30.83-19.43 30.83-19.43-9.71-29.56 19.85-23.23 10.98 32.27 10.98 32.27 5.19 5.74 5.76 18.83c.57 13.09-8.49 27.96-8.49 27.96l-11.96-8.53s1.72-14.51-9.32-9.58c0 0-2.6 10.48-10.2-2.85-7.6-13.32-20.4-4.09-21.6 7.34z" style="fill:#41231b"/><path class="st15" d="M785.48 450.46s21.12 8.87 22.81 21.54c0 0-8.87 10.56-15.2 13.09-6.33 2.53 5.49 21.96 26.18 0 0 0 7.6-16.47 11.4-23.23 3.8-6.76 5.91-13.94-5.07-16.05-10.98-2.11-29.56-12.25-29.56-12.25l-10.56 16.9z"/><circle cx="487.36" cy="413.35" r="74.91" style="fill:#434d88"/><path d="m609.79 369.79 175.27 87.84 16.05-24.5s-19.43-19.85-35.48-38.01c-16.05-18.16-28.3-7.6-64.62-40.97 0 0-34.63-48.99-54.48-53.21l-36.74 68.85z" style="fill:#feac02"/><path class="st15" d="M499.95 255.79s9.16-14.34 20.36-11.03c11.2 3.31 13.91 8.09 14.68 14.7.77 6.62-13.91 76.83-13.91 83.82 0 6.98-2.32 11.03-14.68 11.4-12.36.37-59.87 0-59.87 0s-11.2-1.84-12.75-6.98 0-15.81 0-15.81 1.55-2.21 9.66-2.21l-.39-4.41s8.11 0 6.95 5.51c-1.16 5.51.39 8.82.39 8.82l47.17-3.31 2.39-80.5z"/><path d="M481.92 268.01s18.49-20.27 21.44-27.87c0 0 24.07-1.87 44.77 19.55 20.69 21.42 38.01 31.97 64.62 29.02s40.97 15.2 40.97 15.2-18.58 15.2-27.03 46.88c-8.45 31.67-27.03 33.36-27.03 33.36s-6.33-16.89-29.14-21.12c-22.81-4.22-66.73-20.31-77.71-50.91-10.98-30.59-10.89-44.11-10.89-44.11z" style="fill:#a72de9"/><path class="st15" d="M499.29 261.85s10.02-16.47 22.26-12.67c12.25 3.8 15.2 9.29 16.05 16.89.84 7.6-15.2 88.27-15.2 96.29 0 8.02-2.53 12.67-16.05 13.09-13.51.42-65.46 0-65.46 0s-12.25-2.11-13.94-8.02 0-18.16 0-18.16 1.69-2.53 10.56-2.53l-.42-5.07s8.87 0 7.6 6.33c-1.27 6.33.42 10.14.42 10.14l51.57-3.8 2.61-92.49z"/></g></svg>