<svg version="1.1" id="Layer_1" xmlns="http://www.w3.org/2000/svg" x="0" y="0" viewBox="0 0 701.66 681.02" style="enable-background:new 0 0 701.66 681.02" xml:space="preserve"><style>.st0{fill:#fa0}.st1{fill:#51998b}.st3{opacity:.54;fill:#c6aeed}.st5{fill:#456eb6}.st7{opacity:.77;fill:#131319}.st8{fill:#fff}.st9{fill:#8b22e2}.st10{fill:#ff515b}.st11{opacity:.77}.st13{fill:#ffaa01}.st14{fill:#fb535b}.st16{fill:#8ba4f9}.st17{fill:#204c9d}</style><path class="st0" d="M650.19 211.12s26.23-45.66 33.81-26.42c7.57 19.24-33.81 26.42-33.81 26.42zM621.45 230.18s37.86-15.05 33.2.26c-4.67 15.3-33.2-.26-33.2-.26zM596.71 245.23s36.34-14.44 31.86.25c-4.48 14.68-31.86-.25-31.86-.25zM568.57 270.82s33.15-21.35 32.09-6.45c-1.07 14.91-32.09 6.45-32.09 6.45zM552.45 299.68s31.11-30.94 31.2-11.77c.09 19.17-31.2 11.77-31.2 11.77z"/><path class="st0" d="M545.68 321.47s24.19-27.58 24.22-10.53c.03 17.05-24.22 10.53-24.22 10.53zM628.61 223.49s31.83-27.49 15.6-30.52c-16.24-3.02-15.6 30.52-15.6 30.52zM604 238.74s26.22-30.31 10.5-30.93-10.5 30.93-10.5 30.93zM577.46 258.07s26.27-30.38 10.52-30.99c-15.77-.61-10.52 30.99-10.52 30.99zM561.47 280.03s9.83-38.27-2.92-34.26 2.92 34.26 2.92 34.26zM545.37 316.93s9.74-40.81-4.62-34.9 4.62 34.9 4.62 34.9zM542.79 336.89s-6.99-34.97-15.93-23.25 15.93 23.25 15.93 23.25z"/><path class="st0" d="M536.53 364.05c.01-.21.69-21.71 8.59-47.28 7.3-23.65 22.45-55.75 53.11-74.35l58.85-35.71 1.04 1.71-58.85 35.71c-57.71 35.02-60.71 119.13-60.74 119.98l-2-.06z"/><path class="st1" d="M651.25 146.54s26.23-45.66 33.81-26.42c7.57 19.24-33.81 26.42-33.81 26.42zM622.51 165.6s37.86-15.05 33.2.26c-4.67 15.3-33.2-.26-33.2-.26zM597.78 180.65s36.34-14.44 31.86.25-31.86-.25-31.86-.25zM569.63 206.24s33.15-21.35 32.09-6.45c-1.07 14.91-32.09 6.45-32.09 6.45zM553.52 235.1s31.11-30.94 31.2-11.77c.08 19.17-31.2 11.77-31.2 11.77z"/><path class="st1" d="M546.75 256.89s24.19-27.58 24.22-10.53c.02 17.05-24.22 10.53-24.22 10.53zM629.67 158.91s31.83-27.49 15.6-30.52c-16.24-3.02-15.6 30.52-15.6 30.52zM605.07 174.16s26.22-30.31 10.5-30.93-10.5 30.93-10.5 30.93zM578.52 193.49s26.27-30.38 10.52-30.99c-15.76-.61-10.52 30.99-10.52 30.99zM562.54 215.45s9.83-38.27-2.92-34.26c-12.75 4 2.92 34.26 2.92 34.26zM546.43 252.35s9.74-40.81-4.62-34.9c-14.36 5.89 4.62 34.9 4.62 34.9zM543.85 272.31s-6.99-34.97-15.93-23.25c-8.94 11.72 15.93 23.25 15.93 23.25z"/><path class="st1" d="M537.6 299.47c.01-.21.69-21.71 8.59-47.28 7.3-23.65 22.45-55.75 53.11-74.35l58.85-35.71 1.04 1.71-58.85 35.71c-57.71 35.02-60.71 119.13-60.74 119.98l-2-.06zM117.21 112.96S90.98 67.3 83.4 86.54c-7.57 19.24 33.81 26.42 33.81 26.42zM145.95 132.02s-37.86-15.05-33.2.26 33.2-.26 33.2-.26zM170.69 147.07s-36.34-14.44-31.86.25c4.48 14.68 31.86-.25 31.86-.25zM198.83 172.66s-33.15-21.35-32.09-6.45c1.07 14.91 32.09 6.45 32.09 6.45zM214.95 201.53s-31.11-30.94-31.2-11.77c-.09 19.16 31.2 11.77 31.2 11.77z"/><path class="st1" d="M221.72 223.31s-24.19-27.58-24.22-10.53c-.03 17.05 24.22 10.53 24.22 10.53zM138.79 125.33s-31.83-27.49-15.6-30.52 15.6 30.52 15.6 30.52zM163.4 140.58s-26.22-30.31-10.5-30.93 10.5 30.93 10.5 30.93zM189.95 159.92s-26.27-30.38-10.52-30.99c15.76-.61 10.52 30.99 10.52 30.99zM205.93 181.87s-9.83-38.27 2.92-34.26c12.75 4.01-2.92 34.26-2.92 34.26zM222.03 218.77s-9.74-40.81 4.62-34.9-4.62 34.9-4.62 34.9zM224.62 238.74s6.99-34.97 15.93-23.25c8.94 11.71-15.93 23.25-15.93 23.25z"/><path class="st1" d="M230.87 265.9c-.01-.21-.69-21.71-8.59-47.28-7.3-23.65-22.45-55.75-53.11-74.35l-58.85-35.71-1.04 1.71 58.85 35.71c57.71 35.02 60.71 119.13 60.74 119.98l2-.06z"/><g><path class="st0" d="M219.6 89.99s-3.54-52.54-18.79-38.57 18.79 38.57 18.79 38.57zM237.06 119.73s-27.42-30.13-29.94-14.33 29.94 14.33 29.94 14.33zM252.68 144.1s-26.32-28.92-28.74-13.76c-2.41 15.17 28.74 13.76 28.74 13.76zM266.75 179.45s-20.43-33.73-26.01-19.87 26.01 19.87 26.01 19.87zM268.57 212.46s-14.38-41.45-22.87-24.26 22.87 24.26 22.87 24.26z"/><path class="st0" d="M265.09 235s-9.63-35.4-17.14-20.09c-7.51 15.32 17.14 20.09 17.14 20.09zM233.56 110.57s-16.54-38.67-.63-34.27.63 34.27.63 34.27zM248.98 135.08s-10.26-38.74 4.14-32.39c14.4 6.34-4.14 32.39-4.14 32.39zM264.36 164.1s-10.28-38.82 4.15-32.46c14.42 6.36-4.15 32.46-4.15 32.46zM269.08 190.84s7.95-38.7 17.65-29.51c9.71 9.19-17.65 29.51-17.65 29.51zM267.37 231.06s9.15-40.94 19.46-29.34-19.46 29.34-19.46 29.34zM260.93 250.14s21.63-28.36 24.52-13.9c2.89 14.44-24.52 13.9-24.52 13.9z"/><path class="st0" d="M254.63 277.28c.09-.2 8.91-19.81 13.03-46.25 3.81-24.46 4.29-59.94-15.11-90.12l-37.22-57.9-1.68 1.08 37.22 57.9c36.5 56.79 2.29 133.69 1.94 134.46l1.82.83z"/></g><circle cx="366.62" cy="337.22" r="233.34" style="fill:#a8a8e5"/><circle class="st3" cx="389.83" cy="242.52" r="233.34"/><circle class="st3" cx="454.4" cy="437.34" r="233.34"/><circle class="st3" cx="246.41" cy="387.85" r="233.34"/><path d="M483.12 549.26h-233c-18.19 0-32.94-14.75-32.94-32.94V172.33c0-18.19 14.75-32.94 32.94-32.94h233c18.19 0 32.94 14.75 32.94 32.94v343.99c0 18.19-14.75 32.94-32.94 32.94z" style="fill:#484849"/><path class="st5" d="M483.12 549.26h-233c-18.19 0-32.94-14.75-32.94-32.94V172.33c0-18.19 14.75-32.94 32.94-32.94h233c18.19 0 32.94 14.75 32.94 32.94v343.99c0 18.19-14.75 32.94-32.94 32.94z"/><path d="M516.06 177.42H217.18v-3.88c0-18.86 15.29-34.15 34.15-34.15h230.58c18.86 0 34.15 15.29 34.15 34.15v3.88z" style="fill:#355389"/><circle class="st7" cx="263.15" cy="158.4" r="3.89"/><circle class="st7" cx="246.41" cy="158.4" r="3.89"/><circle class="st7" cx="283.1" cy="158.4" r="3.89"/><path class="st8" d="M496.11 121.7h-193.3c-6.84 0-12.38-5.54-12.38-12.38V62.54c0-6.84 5.54-12.38 12.38-12.38h193.3c6.84 0 12.38 5.54 12.38 12.38v46.78c.01 6.84-5.54 12.38-12.38 12.38zM569.03 240.02h-117.2c-6.84 0-12.38-5.54-12.38-12.38V196c0-6.84 5.54-12.38 12.38-12.38h117.2c6.84 0 12.38 5.54 12.38 12.38v31.64c0 6.84-5.54 12.38-12.38 12.38zM246.17 272.04h-115.8c-9.38 0-16.98-7.6-16.98-16.98v-48.59c0-9.38 7.6-16.98 16.98-16.98h115.8c9.38 0 16.98 7.6 16.98 16.98v48.59c0 9.38-7.6 16.98-16.98 16.98z"/><circle class="st9" cx="475.81" cy="210.82" r="18.32"/><circle class="st10" cx="156.29" cy="229.13" r="25.05"/><circle class="st5" cx="327.86" cy="83.93" r="19.95"/><g><circle class="st8" cx="328.86" cy="74.51" r="7.3"/><path class="st8" d="M315.61 96.58c0-7.32 5.94-13.26 13.26-13.26s13.26 5.94 13.26 13.26"/></g><g><g class="st11"><path class="st5" d="M487.63 69.67H361.75c-1.66 0-3-1.34-3-3s1.34-3 3-3h125.89c1.66 0 3 1.34 3 3s-1.35 3-3.01 3z"/></g><g class="st11"><path class="st5" d="M419.53 104.75h-59.39c-1.66 0-3-1.34-3-3s1.34-3 3-3h59.39c1.66 0 3 1.34 3 3s-1.34 3-3 3z"/></g><g class="st11"><path class="st5" d="M487.63 87.81H361.75c-1.66 0-3-1.34-3-3s1.34-3 3-3h125.89c1.66 0 3 1.34 3 3s-1.35 3-3.01 3z"/></g></g><g><path class="st10" d="M246.41 209.96h-49.3a2.5 2.5 0 0 1 0-5h49.3a2.5 2.5 0 0 1 0 5zM246.41 226.93h-49.3a2.5 2.5 0 0 1 0-5h49.3a2.5 2.5 0 0 1 0 5zM246.41 242.52h-49.3a2.5 2.5 0 0 1 0-5h49.3a2.5 2.5 0 0 1 0 5zM217.18 256.68h-20.07a2.5 2.5 0 0 1 0-5h20.07a2.5 2.5 0 0 1 0 5z"/></g><g><path class="st9" d="M566.28 195H508.5a2.5 2.5 0 0 1 0-5h57.78a2.5 2.5 0 0 1 0 5zM533.72 204H508.5a2.5 2.5 0 0 1 0-5h25.22a2.5 2.5 0 0 1 0 5zM566.28 221.42H508.5a2.5 2.5 0 0 1 0-5h57.78a2.5 2.5 0 0 1 0 5zM533.72 229.68H508.5a2.5 2.5 0 0 1 0-5h25.22a2.5 2.5 0 0 1 0 5z"/></g><g><path class="st8" d="m473.02 221.88-10.78-13.15 3.09-2.54 8.01 9.77 13.58-13.31 2.8 2.86z"/></g><path d="m149.29 229.13.48-9.8c.1-2.05 2.38-3.22 4.11-2.11l8.25 5.32 8.25 5.32c1.72 1.11 1.6 3.67-.23 4.61l-8.73 4.49-8.73 4.49c-1.83.94-3.98-.45-3.88-2.5l.48-9.82z" style="fill:#f2f8fd"/><g><circle class="st0" cx="599.64" cy="308.34" r="27.17"/><path class="st8" d="M598.03 320.52v-3.61c-2.08-.04-4.23-.69-5.5-1.59l.87-2.43c1.29.86 3.17 1.56 5.16 1.56 2.57 0 4.29-1.48 4.29-3.52 0-1.98-1.39-3.2-4.06-4.28-3.67-1.44-5.96-3.12-5.96-6.25 0-2.99 2.12-5.25 5.43-5.8v-3.62h2.26v3.5c2.14.06 3.62.65 4.65 1.26l-.87 2.38c-.76-.43-2.26-1.25-4.54-1.25-2.77 0-3.81 1.66-3.81 3.12 0 1.84 1.32 2.79 4.46 4.1 3.7 1.52 5.58 3.36 5.58 6.56 0 2.87-1.98 5.52-5.69 6.12v3.74h-2.27z"/></g><g><path class="st8" d="M271.52 430.34H115.36c-8.55 0-15.48-6.93-15.48-15.48v-80.48c0-8.55 6.93-15.48 15.48-15.48h156.15c8.55 0 15.48 6.93 15.48 15.48v80.48c0 8.55-6.93 15.48-15.47 15.48z"/><path class="st13" d="M117.77 335.82h10.8v10.8h-10.8zM132.68 335.82h10.8v10.8h-10.8zM147.35 335.82h10.8v10.8h-10.8zM162.48 335.82h10.8v10.8h-10.8zM119.38 412.22l10.06-11.45a4.485 4.485 0 0 1 6.62-.13l2.29 2.4c1.86 1.95 5.01 1.84 6.72-.25l18.49-22.56a4.493 4.493 0 0 1 6.78-.19l9.66 10.53a4.484 4.484 0 0 0 6.66-.05l18.83-21.1c1.85-2.08 5.13-1.98 6.86.2l12.01 15.13c1.71 2.15 4.93 2.28 6.8.27l36.8-39.52.92 66.73h-149.5z"/></g><g><path class="st8" d="M439.89 270.74h-94.2c-12.06 0-21.83 9.77-21.83 21.83v31.33c0 12.05 9.77 21.82 21.83 21.82h94.2c12.06 0 21.83-9.77 21.83-21.82v-31.33c0-12.06-9.77-21.83-21.83-21.83z"/><circle class="st14" cx="348.98" cy="288.35" r="6.31"/><circle class="st14" cx="347.98" cy="309.34" r="6.31"/><circle class="st14" cx="347.98" cy="329.51" r="6.31"/><g><path class="st13" d="M445.9 286.09h-13.53a2.5 2.5 0 0 1 0-5h13.53a2.5 2.5 0 0 1 0 5zM445.9 298.93h-13.53a2.5 2.5 0 0 1 0-5h13.53a2.5 2.5 0 0 1 0 5zM445.9 311.77h-13.53a2.5 2.5 0 0 1 0-5h13.53a2.5 2.5 0 0 1 0 5zM445.9 324.61h-13.53a2.5 2.5 0 0 1 0-5h13.53a2.5 2.5 0 0 1 0 5zM445.9 337.45h-13.53a2.5 2.5 0 0 1 0-5h13.53a2.5 2.5 0 0 1 0 5z"/></g><g><path d="M406.39 284.18a27.914 27.914 0 0 0-12.6-2.98c-9.45 0-17.82 4.66-22.91 11.81-.7.98-1.34 2-1.91 3.06a27.94 27.94 0 0 0-3.32 13.26c0 10.31 5.54 19.32 13.81 24.22.24.14.48.28.73.41 4.03 2.24 8.67 3.51 13.6 3.51 9.03 0 17.07-4.26 22.21-10.88a27.999 27.999 0 0 0 5.92-17.26c0-11.01-6.32-20.54-15.53-25.15zm-12.6 43.5c-3.04 0-5.91-.74-8.44-2.06-.41-.2-.81-.43-1.2-.67-5.23-3.24-8.71-9.02-8.71-15.62 0-2.83.64-5.51 1.79-7.9.36-.75.76-1.47 1.22-2.15 3.27-5 8.92-8.3 15.34-8.3 2.83 0 5.51.64 7.91 1.79 6.18 2.96 10.44 9.26 10.44 16.56 0 4.55-1.65 8.71-4.39 11.91-3.37 3.94-8.37 6.44-13.96 6.44z" style="fill:#f8ab73"/><path class="st10" d="M421.92 309.33c0 6.51-2.21 12.49-5.92 17.26l-8.25-5.35c2.74-3.2 4.39-7.36 4.39-11.91 0-7.3-4.26-13.6-10.44-16.56-2.4-1.15-5.08-1.79-7.91-1.79-6.42 0-12.07 3.3-15.34 8.3-.46.68-.86 1.4-1.22 2.15l-8.26-5.36c.57-1.06 1.21-2.08 1.91-3.06 5.09-7.15 13.46-11.81 22.91-11.81 4.53 0 8.81 1.07 12.6 2.98 9.21 4.61 15.53 14.14 15.53 25.15z"/><path class="st9" d="m406.39 284.18-4.69 8.59c-2.4-1.15-5.08-1.79-7.91-1.79-6.42 0-12.07 3.3-15.34 8.3-.46.68-.86 1.4-1.22 2.15a18.169 18.169 0 0 0-1.79 7.9c0 6.6 3.48 12.38 8.71 15.62l-4.69 8.6c-8.27-4.9-13.81-13.91-13.81-24.22 0-4.8 1.2-9.31 3.32-13.26.57-1.06 1.21-2.08 1.91-3.06 5.09-7.15 13.46-11.81 22.91-11.81 4.53 0 8.81 1.07 12.6 2.98z"/><path class="st16" d="m385.35 325.62-5.16 8.34c-.25-.13-.49-.27-.73-.41-8.27-4.9-13.81-13.91-13.81-24.22 0-4.8 1.2-9.31 3.32-13.26.57-1.06 1.21-2.08 1.91-3.06l7.57 6.27c-.46.68-.86 1.4-1.22 2.15a18.169 18.169 0 0 0-1.79 7.9c0 6.6 3.48 12.38 8.71 15.62.39.24.79.47 1.2.67z"/></g></g><g><path class="st8" d="M304.58 571.59H176.92c-11.39 0-20.63-9.23-20.63-20.63v-64.97c0-11.39 9.23-20.63 20.63-20.63h127.66c11.39 0 20.63 9.23 20.63 20.63v64.97c-.01 11.39-9.24 20.63-20.63 20.63z"/><path class="st17" d="M299.38 489.7h-44.03a2.5 2.5 0 0 1 0-5h44.03a2.5 2.5 0 0 1 0 5zM299.38 504.84h-44.03a2.5 2.5 0 0 1 0-5h44.03a2.5 2.5 0 0 1 0 5zM299.38 520.97h-44.03a2.5 2.5 0 0 1 0-5h44.03a2.5 2.5 0 0 1 0 5zM299.38 536.02h-44.03a2.5 2.5 0 0 1 0-5h44.03a2.5 2.5 0 0 1 0 5zM299.38 553.45h-44.03a2.5 2.5 0 0 1 0-5h44.03a2.5 2.5 0 0 1 0 5z"/><g><path class="st0" d="M222.29 488.09c-4.1-2.25-8.73-3.51-13.63-3.51-10.22 0-19.28 5.5-24.79 13.93-.76 1.16-1.45 2.36-2.07 3.61-2.29 4.66-3.59 9.98-3.59 15.64 0 12.16 5.99 22.79 14.94 28.57.26.17.52.33.79.48 4.36 2.64 9.38 4.14 14.71 4.14 9.77 0 18.47-5.02 24.03-12.83 4.01-5.63 6.4-12.68 6.4-20.36.01-12.99-6.83-24.23-16.79-29.67zm-13.64 51.31c-3.29 0-6.39-.87-9.13-2.43-.44-.24-.88-.51-1.3-.79-5.66-3.82-9.42-10.64-9.42-18.42 0-3.34.69-6.5 1.94-9.32.39-.88.82-1.73 1.32-2.54 3.54-5.9 9.65-9.79 16.6-9.79 3.06 0 5.96.75 8.56 2.11 6.69 3.49 11.3 10.92 11.3 19.53 0 5.37-1.79 10.27-4.75 14.05-3.66 4.65-9.07 7.6-15.12 7.6z"/><path class="st10" d="M239.09 517.76c0 7.68-2.39 14.73-6.4 20.36l-8.93-6.31c2.96-3.77 4.75-8.68 4.75-14.05 0-8.61-4.61-16.04-11.3-19.53-2.6-1.36-5.5-2.11-8.56-2.11-6.95 0-13.06 3.89-16.6 9.79-.5.8-.93 1.65-1.32 2.54l-8.94-6.32c.62-1.25 1.31-2.45 2.07-3.61 5.51-8.43 14.56-13.93 24.79-13.93 4.9 0 9.53 1.26 13.63 3.51 9.97 5.43 16.81 16.67 16.81 29.66z"/><path class="st16" d="m222.29 488.09-5.07 10.13c-2.6-1.36-5.5-2.11-8.56-2.11-6.95 0-13.06 3.89-16.6 9.79-.5.8-.93 1.65-1.32 2.54a23.125 23.125 0 0 0-1.94 9.32c0 7.78 3.77 14.6 9.42 18.42l-5.07 10.14c-8.95-5.78-14.94-16.41-14.94-28.57 0-5.66 1.3-10.98 3.59-15.64.62-1.25 1.31-2.45 2.07-3.61 5.51-8.43 14.56-13.93 24.79-13.93 4.9.01 9.53 1.27 13.63 3.52z"/><path class="st9" d="m199.52 536.97-5.58 9.84c-.27-.15-.53-.32-.79-.48-8.95-5.78-14.94-16.41-14.94-28.57 0-5.66 1.3-10.98 3.59-15.64.62-1.25 1.31-2.45 2.07-3.61l8.19 7.4c-.5.8-.93 1.65-1.32 2.54a23.125 23.125 0 0 0-1.94 9.32c0 7.78 3.77 14.6 9.42 18.42.43.27.86.55 1.3.78z"/></g></g><g><path class="st8" d="M539.81 594.97h-118c-12.34 0-22.34-10-22.34-22.34V395.5c0-12.34 10-22.34 22.34-22.34h118.01c12.34 0 22.34 10 22.34 22.34v177.13c-.01 12.34-10.01 22.34-22.35 22.34z"/><g style="opacity:.46"><path class="st5" d="M426.41 533.77c-1.66 0-3-1.34-3-3V404.66c0-1.66 1.34-3 3-3s3 1.34 3 3v126.11c0 1.66-1.35 3-3 3zM451.4 533.77c-1.66 0-3-1.34-3-3V404.66c0-1.66 1.34-3 3-3s3 1.34 3 3v126.11c0 1.66-1.34 3-3 3zM475.98 533.77c-1.66 0-3-1.34-3-3V404.66c0-1.66 1.34-3 3-3s3 1.34 3 3v126.11c0 1.66-1.35 3-3 3zM500.91 533.77c-1.66 0-3-1.34-3-3V404.66c0-1.66 1.34-3 3-3s3 1.34 3 3v126.11c0 1.66-1.34 3-3 3zM527.51 533.77c-1.66 0-3-1.34-3-3V404.66c0-1.66 1.34-3 3-3s3 1.34 3 3v126.11c0 1.66-1.34 3-3 3z"/></g><path class="st13" d="M426.41 534.02c-1.66 0-3-1.34-3-3v-74.09c0-1.66 1.34-3 3-3s3 1.34 3 3v74.09c0 1.66-1.35 3-3 3zM451.4 531.02c-1.66 0-3-1.34-3-3v-55.03c0-1.66 1.34-3 3-3s3 1.34 3 3v55.03c0 1.66-1.34 3-3 3zM475.98 531.02c-1.66 0-3-1.34-3-3v-95.39c0-1.66 1.34-3 3-3s3 1.34 3 3v95.39c0 1.66-1.35 3-3 3zM500.91 534.02c-1.66 0-3-1.34-3-3v-80.51c0-1.66 1.34-3 3-3s3 1.34 3 3v80.51c0 1.66-1.34 3-3 3zM527.51 534.02c-1.66 0-3-1.34-3-3v-58.04c0-1.66 1.34-3 3-3s3 1.34 3 3v58.04c0 1.66-1.34 3-3 3z"/><path class="st9" d="M444.21 577.44H428.6c-3.42 0-6.19-2.77-6.19-6.19v-15.61c0-3.42 2.77-6.19 6.19-6.19h15.61c3.42 0 6.19 2.77 6.19 6.19v15.61c0 3.42-2.77 6.19-6.19 6.19z"/><g><path class="st9" d="M527.51 551.76h-61.2a2.5 2.5 0 0 1 0-5h61.2a2.5 2.5 0 0 1 0 5zM530.51 567.67h-64.2a2.5 2.5 0 0 1 0-5h64.2a2.5 2.5 0 0 1 0 5zM512.62 579.94H466.3a2.5 2.5 0 0 1 0-5h46.32a2.5 2.5 0 0 1 0 5z"/></g></g></svg>