<svg version="1.1" id="Layer_1" xmlns="http://www.w3.org/2000/svg" xmlns:xlink="http://www.w3.org/1999/xlink" x="0" y="0" viewBox="0 0 908.07 842.44" style="enable-background:new 0 0 908.07 842.44" xml:space="preserve"><style>.st0{opacity:.14;fill:#6426b5}.st4{stroke:#5265a7;stroke-width:4;stroke-miterlimit:10}.st7,.st8{opacity:.31}.st7{fill:none;stroke:#d3d3d3;stroke-width:6;stroke-miterlimit:10}.st8{fill:#d3d3d3}.st9{fill:#fb7963}.st12{fill:#fd7968}.st14{opacity:.4}.st15{fill:#fdfdfd}.st16{fill:#dc4b45}.st18{fill:#fffff7}.st21{fill:#bcbec0}.st22{fill:none;stroke:#010101;stroke-width:2;stroke-linecap:round;stroke-miterlimit:10}.st23{fill:#f79389}.st25{fill:#fefefe}.st26{fill:#f9b0aa}.st28{fill:#f5f5f5}.st29{fill:#5265a7}.st30{fill:#fff}.st32{fill:#f98f87}</style><ellipse class="st0" cx="415.38" cy="413.42" rx="415.38" ry="413.42"/><ellipse class="st0" cx="484.88" cy="420.35" rx="415.38" ry="413.42"/><defs><path id="SVGID_1_" d="M182.04 757.46c-45.95-7.19-86.57-34.05-110.79-73.76-27.7-45.42-53.69-110.64-35.86-179.59C68.41 376.4 45.78 380.18 63.73 285.79 85.55 171.05 215.7 113.73 292.78 124.68s190.9 37.09 237 19.2c67.43-26.16 167.97-67.06 249.99-16.86 60.69 37.15 96.64 98.57 60.87 213.18s-35.86 159 .51 208.34c0 0 54.32 128.7-112.94 198.19-159.75 66.37-417.82 30.81-546.17 10.73z"/></defs><clipPath id="SVGID_2_"><use xlink:href="#SVGID_1_" style="overflow:visible"/></clipPath><g style="clip-path:url(#SVGID_2_)"><path style="opacity:.07;fill:#6426b5" d="M-45.11 84.47h1000v486.55h-1000z"/><g style="opacity:.57"><path class="st4" d="M102.98 119.57v452.64M499.58 121.13v452.65M876.45 117.69v452.64"/></g><path style="opacity:.5;fill:#6426b5" d="M-45.11 573.78h1000v211.96h-1000z"/><path d="M23.82 676.36c-11.4-.2-22.42 4.21-30.44 12.31-14.63 14.77-22.64 38.29 61.18 46.32 125.66 12.03 322.4 3.61 329.96 6.9s162.44 39.98 221.66 25.31c59.23-14.68 42.13-31.4 96.54-32.21 54.41-.81 135.12 31.03 167.22-6.9 32.1-37.93-65.12-59-65.12-59l-177.31-3.01-327.15 12.93-197.39-1.27-79.15-1.38z" style="opacity:.11"/><path class="st7" d="M575.88 152.68h233.54v188.31H575.88z"/><path class="st7" d="M589.53 163.68h206.24v166.29H589.53zM147.17 200.96h105.7v114.96h-105.7z"/><path class="st8" d="M-45.11 266.88H63.74v306.9H-45.11zM876.45 394.13h78.44v179.65h-78.44zM876.45 232.08h78.44v63.12h-78.44zM68.12 228.8h34.85v344.98H68.12z"/><path class="st7" d="M309.58 106.2h105.7v114.96h-105.7z"/><g><ellipse class="st9" cx="371.68" cy="233.25" rx="21.32" ry="27.05"/><path d="M361.02 252.31s3.55 14.79-2.52 21.1l-8.14 3.38 3.44 10.73 22.93 3.21 11.58-6.54 5.73-4.47.57-5.16-5.73-.57s-3.21-2.18-4.47-9.29c-1.26-7.11.11-12.38.11-12.38h-23.5z" style="fill:#fd7765"/><path d="M358.34 216.42c.46-.98 1.95-.57 1.83.5-.28 2.46.73 7.92 15.18 8.1 15.19.19 15.26.44 15.59 2.13.22 1.12.2 2.27-.03 3.39-.45 2.13-.85 5.39.49 6.61l1.61 1.87s5.39-3.34 4.59-17.79-6.19-22.47-17.31-25.34c-11.12-2.87-20.52.57-25.45 5.27s-7.57 10.2-7.57 15.25.82 15.4.82 15.4l4.11 5.33s5.04-2.62 5.16-15.46c-.01.01.13-3.45.98-5.26z" style="fill:#1f201d"/><ellipse transform="rotate(-75.942 393.472 239.038)" class="st9" cx="393.47" cy="239.02" rx="5.84" ry="4.61"/><ellipse transform="rotate(-14.058 350.425 237.19)" class="st9" cx="350.36" cy="237.15" rx="4.61" ry="5.84"/><path class="st12" d="m318.71 280.78-24.15 3.06s-4.65-.61-5.69-9.78-2.87-28.43-6.54-38.52c0 0-2.45-4.59 3.36-7.03 5.81-2.45 12.54-4.59 10.09-13.45 0 0-2.87-2.87-5.16-1.49 0 0 2.64-4.01.57-5.39-2.06-1.38-15.48-4.01-19.38-1.15s-4.36 8.48-4.36 8.48-.11 6.76 1.83 9.97c0 0-3.31 13.18-1.31 59.56 0 0 2.69 16.91 10.71 21.96 8.03 5.04 18.69 9.86 33.82 8.71l6.21-34.93zM442.08 282.69h18.8s-.92-32.79 3.21-47.69c0 0 3.21-6.19-2.29-7.57s-12.84-6.07-11.24-10.49c1.61-4.42 4.32-3.27 4.32-3.27s-1.57-8.06 8.06-7.47c9.63.59 11.01-1.7 13.76 3.57s2.06 14.68 0 14.68 7.57 30.84 5.5 47.06 2.29 31.13-15.36 38.69c-17.66 7.57-38.52 5.67-38.52 5.67l13.76-33.18z"/><path d="m365.27 567.47-7.92 13.07s-11.65-10.74-26.25-24c-20.25-18.38-46.18-41.61-54.57-47.69-14.45-10.47-5.13-23.92-5.13-23.92l25.83-32.34 35.89 31.36s-29.77 12.67-14.4 21.61c15.36 8.95 24.53 31.65 24.53 31.65l2.56 3.52 19.46 26.74z" style="fill:#fe7b63"/><path class="st14" d="m365.27 567.47-7.92 13.07s-11.65-10.74-26.25-24c3.58-2.98 9.41-8.39 14.71-15.81l19.46 26.74z"/><path class="st15" d="M374.67 592.93c-8.26 19.26-10.55 19.49-10.55 19.49s-2.67 2.69-5.59 3.73c-2.69.96-5.58.51-6.79-4.73l-.69-16.43s-.46-11.92-9.4-16.51c0 0-2.75-13.3 9.4-8.48 0 0 7.57 11.65 7.8-1.05 0 0-6.13-11.3-5.25-17.51.56-3.91 10.04-2.45 16.99-.83 4.08.95 7.29 1.96 7.29 1.96s5.04 21.09-3.21 40.36z"/><path class="st16" d="M374.67 592.93c-8.26 19.26-10.55 19.49-10.55 19.49s-2.67 2.69-5.59 3.73c1.58-4.08 4.78-12.61 9.95-27.35 4.81-13.74 3.68-28.73 2.11-38.19 4.08.95 7.29 1.96 7.29 1.96s5.04 21.09-3.21 40.36z"/><path d="M403.56 660.34c-.69 13.07 4.36 14.22 4.36 14.22-2.76 5.73-23.39-1.61-23.39-1.61s3.44-17.65 3.21-29.58c-.08-4.12-.46-9.1-1.1-14.48-1.21-10.17-3.36-21.79-6.15-31.84-4.26-15.36-1.09-28.19 1.06-38.75 2.15-10.55 0-29.81 0-29.81-5.28-9.86-2.15-29.35-2.15-29.35l33.99 1.61s.26 12.61-1.35 24.07c-1.6 11.47.69 31.65.69 31.65 3.21 28.89-6.42 62.68-6.42 62.68l-.68 10.22-2.07 30.97z" style="fill:#ff7864"/><path d="M407.92 674.56c-2.76 5.73-23.39-1.61-23.39-1.61s3.44-17.65 3.21-29.58c-.08-4.12-.46-9.1-1.1-14.48l18.99.48-2.07 30.97c-.69 13.07 4.36 14.22 4.36 14.22z"/><path class="st18" d="M413.41 693.82s-11.91 8.25-37.14-1.15c0 0 .18-4.27.84-9.01.61-4.44 1.62-9.29 3.29-11.4l.69-5.5s2.52-10.51 5.27-5.14 2.75 12.02 4.82 5.14c0 0 .23-15.59 11.69-12.15 0 0 5.7 3.12 1.48 15.09 0 0 6.09 10.13 9.99 13.11 1.69 1.29 3.86 2.68 4.84 4.21 1.28 1.98.57 4.21-5.77 6.8z"/><path class="st16" d="M413.41 693.82s-11.91 8.25-37.14-1.15c0 0 .18-4.27.84-9.01 4.48 2.87 12.22 6.89 20.88 7.18 9.41.32 17.26-2.23 21.19-3.82 1.28 1.98.57 4.21-5.77 6.8z"/><path d="M339.12 394.13s4.82 4.82-12.38 28.89l-33.71 33.71s33.02 13.76 31.65 30.96c0 0 25.45-10.53 36.46-19.71 11.01-9.18 7.57 5.22 7.57 5.22l3.78 35.66s23.73 9.48 43.68 0V453.6s12.38-18.27 0-52.97l-77.05-6.5z" style="fill:#355389"/><path d="m358.68 272.25-47.76 6.31s-.23 35.31-1.83 37.95l18.23 1.49s3.67.23 4.47 7.57.69 50.79.69 50.79-3.9 6.76 0 12.27v17.31s17.89 7.57 45.97 1.26c0 0 9.75-3.55 25.34.57 15.59 4.13 16.85-1.15 16.85-1.15l-2.41-36.34s2.64-13.41-.57-19.61c-3.21-6.19 2.98-17.77 2.98-17.77s-1.49-14.1 14.79-16.62c0 0 .11-13.3 12.73-35.54l-33.25-3.1-24.99-4.24s-1.49 9.86-19.61 11.12c0 0-15.48-.91-11.63-12.27z" style="fill:#fa0"/><path class="st21" d="M416.24 413.77c.89 3.59 1.34 7.27 1.68 10.96.29 3.69.38 7.41.19 11.12-.03.93-.08 1.86-.16 2.78-.08.93-.13 1.85-.24 2.78-.24 1.84-.43 3.69-.78 5.52-.56 3.68-1.55 7.28-2.59 10.86l.05-.29c-.03 8-.12 16-.3 24-.09 4-.21 8-.35 12-.19 4-.31 8-.56 12-.22-4-.3-8-.45-12-.1-4-.19-8-.24-12-.11-8-.13-16-.08-24v-.14l.05-.15c1.05-3.48 2-7.01 2.65-10.6.72-3.58 1.17-7.21 1.49-10.85.31-3.64.44-7.31.39-10.98a92.27 92.27 0 0 0-.75-11.01zM362.43 452.67c.79.87 1.38 1.82 1.93 2.78.54.97 1 1.97 1.4 2.99.4 1.02.74 2.07 1 3.15.25 1.08.46 2.18.47 3.36-.79-.87-1.39-1.82-1.93-2.78-.54-.97-1-1.97-1.4-2.99-.4-1.02-.74-2.07-1-3.15-.25-1.09-.45-2.19-.47-3.36z"/><path class="st22" d="M357.35 585.9h-8.72M360.39 588.96h-10.53M360.39 592.31h-8.69M348.63 585.36s-3.55-6.99-8.54-3.04c-4.99 3.96 4.23 8.37 8.54 4.07M349.55 584.64s-7.45-8.56 0-10.62c7.45-2.06 4.07 10.15.63 11.06M396.22 676.11l9.84-3.68M398.85 679.38l9.07-3.27M403.38 682.93l7.64-3.55M404.44 672.87s.99-9.62 7.75-5.95c6.76 3.67-2.78 8.29-6.8 7.42"/><path class="st22" d="M404.77 673.14s-5.46-7.98-9.65-1.53 6.39 5.96 9.52 3.27"/></g><g><ellipse class="st23" cx="730.76" cy="239.83" rx="21.32" ry="27.05"/><path class="st23" d="M720.1 258.89s3.55 14.79-2.52 21.1l-8.14 3.38 3.44 10.73 22.93 3.21 11.58-6.54 5.73-4.47.57-5.16-5.73-.57s-3.21-2.18-4.47-9.29.11-12.38.11-12.38h-23.5zM724.35 574.06l-7.92 13.07s-11.65-10.74-26.25-24c-20.25-18.38-46.18-41.61-54.57-47.69-14.45-10.47-5.13-23.92-5.13-23.92l25.83-32.34 35.89 31.36s-29.77 12.67-14.4 21.61c15.36 8.95 24.53 31.65 24.53 31.65l2.56 3.52 19.46 26.74z"/><path class="st14" d="m724.35 574.06-7.92 13.07s-11.65-10.74-26.25-24c3.58-2.98 9.41-8.39 14.71-15.81l19.46 26.74z"/><path class="st15" d="M733.75 599.52c-8.26 19.26-10.55 19.49-10.55 19.49s-2.67 2.69-5.59 3.73c-2.69.96-5.58.51-6.79-4.73l-.69-16.43s-.46-11.92-9.4-16.51c0 0-2.75-13.3 9.4-8.48 0 0 7.57 11.65 7.8-1.05 0 0-6.13-11.3-5.25-17.51.56-3.91 10.04-2.45 16.99-.83 4.08.95 7.29 1.96 7.29 1.96s5.04 21.09-3.21 40.36z"/><path class="st16" d="M733.75 599.52c-8.26 19.26-10.55 19.49-10.55 19.49s-2.67 2.69-5.59 3.73c1.58-4.08 4.78-12.61 9.95-27.35 4.81-13.74 3.68-28.73 2.11-38.19 4.08.95 7.29 1.96 7.29 1.96s5.04 21.09-3.21 40.36z"/><path class="st23" d="M762.64 666.93c-.69 13.07 4.36 14.22 4.36 14.22-2.76 5.73-23.39-1.61-23.39-1.61s3.44-17.65 3.21-29.58c-.08-4.12-.46-9.1-1.1-14.48-1.21-10.17-3.36-21.79-6.15-31.84-4.26-15.36-1.09-28.19 1.06-38.75 2.15-10.55 0-29.81 0-29.81-5.28-9.86-2.15-29.35-2.15-29.35l33.99 1.61s.26 12.61-1.35 24.07c-1.6 11.47.69 31.65.69 31.65 3.21 28.89-6.42 62.68-6.42 62.68l-.68 10.22-2.07 30.97z"/><path d="M767 681.15c-2.76 5.73-23.39-1.61-23.39-1.61s3.44-17.65 3.21-29.58c-.08-4.12-.46-9.1-1.1-14.48l18.99.48-2.07 30.97c-.69 13.07 4.36 14.22 4.36 14.22z"/><path class="st18" d="M772.49 700.41s-11.91 8.25-37.14-1.15c0 0 .18-4.27.84-9.01.61-4.44 1.62-9.29 3.29-11.4l.69-5.5s2.52-10.51 5.27-5.14 2.75 12.02 4.82 5.14c0 0 .23-15.59 11.69-12.15 0 0 5.7 3.12 1.48 15.09 0 0 6.09 10.13 9.99 13.11 1.69 1.29 3.86 2.68 4.84 4.21 1.28 1.98.57 4.21-5.77 6.8z"/><path class="st16" d="M772.49 700.41s-11.91 8.25-37.14-1.15c0 0 .18-4.27.84-9.01 4.48 2.87 12.22 6.89 20.88 7.18 9.41.32 17.26-2.23 21.19-3.82 1.28 1.98.57 4.21-5.77 6.8z"/><path d="M698.2 400.71s4.82 4.82-12.38 28.89l-33.71 33.71s33.02 13.76 31.65 30.96c0 0 25.45-10.53 36.46-19.71 11.01-9.18 7.57 5.22 7.57 5.22l3.78 35.66s23.73 9.48 43.68 0v-55.26s12.38-18.27 0-52.97l-77.05-6.5z" style="fill:#6426b5"/><path d="M775.32 420.35c.89 3.59 1.34 7.27 1.68 10.96.29 3.69.38 7.41.19 11.12-.03.93-.08 1.86-.16 2.78-.08.93-.13 1.85-.24 2.78-.24 1.84-.43 3.69-.78 5.52-.56 3.68-1.55 7.28-2.59 10.86l.05-.29c-.03 8-.12 16-.3 24-.09 4-.21 8-.35 12-.19 4-.31 8-.56 12-.22-4-.3-8-.45-12-.1-4-.19-8-.24-12-.11-8-.13-16-.08-24v-.14l.05-.15c1.05-3.48 2-7.01 2.65-10.6.72-3.58 1.17-7.21 1.49-10.85.31-3.64.44-7.31.39-10.98a90.23 90.23 0 0 0-.75-11.01zM721.52 459.25c.79.87 1.38 1.82 1.93 2.78.54.97 1 1.97 1.4 2.99.4 1.02.74 2.07 1 3.15.25 1.08.46 2.18.47 3.36-.79-.87-1.39-1.82-1.93-2.78-.54-.97-1-1.97-1.4-2.99-.4-1.02-.74-2.07-1-3.15-.25-1.08-.46-2.18-.47-3.36z"/><path class="st22" d="M716.43 592.48h-8.72M719.47 595.54h-10.53M719.47 598.89h-8.68M707.71 591.95s-3.55-6.99-8.54-3.04c-4.99 3.96 4.23 8.37 8.54 4.07M708.64 591.22s-7.45-8.56 0-10.62c7.45-2.06 4.07 10.15.63 11.06M755.3 682.69l9.85-3.68M757.94 685.96l9.06-3.27M762.47 689.51l7.63-3.55M763.53 679.45s.99-9.62 7.75-5.95c6.76 3.67-2.78 8.29-6.8 7.42"/><path class="st22" d="M763.85 679.72s-5.46-7.98-9.65-1.53 6.39 5.96 9.52 3.27"/><path class="st23" d="m708.29 282-33.11 5.69-21.54 2.73s-4.65-.61-5.69-9.78-2.87-28.43-6.54-38.52c0 0-2.45-4.59 3.36-7.03s12.54-4.59 10.09-13.45c0 0-2.87-2.87-5.16-1.49 0 0 2.64-4.01.57-5.39-2.06-1.38-15.48-4.01-19.38-1.15-3.9 2.87-4.36 8.48-4.36 8.48s-.11 6.76 1.83 9.97c0 0-3.31 13.18-1.31 59.56 0 0 2.69 16.91 10.71 21.96 7.32 4.6 16.84 8.99 29.94 8.87v.01s.03-.01.08-.01c1.24-.01 2.5-.05 3.8-.15l.04-.24c5.78-.32 16.36.23 20.59 7.88l4.82 14.9 13.76-31.41-2.5-31.43zM759.28 282l33.11 5.69 21.54 2.73s4.65-.61 5.69-9.78 2.87-28.43 6.54-38.52c0 0 2.45-4.59-3.36-7.03s-12.54-4.59-10.09-13.45c0 0 2.87-2.87 5.16-1.49 0 0-2.64-4.01-.57-5.39 2.06-1.38 15.48-4.01 19.38-1.15 3.9 2.87 4.36 8.48 4.36 8.48s.11 6.76-1.83 9.97c0 0 3.31 13.18 1.31 59.56 0 0-2.69 16.91-10.71 21.96-7.32 4.6-16.84 8.99-29.94 8.87v.01s-.03-.01-.08-.01c-1.24-.01-2.5-.05-3.8-.15l-.04-.24c-5.78-.32-16.36.23-20.59 7.88l-4.82 14.9-13.76-31.41 2.5-31.43z"/><path class="st25" d="M705.08 281.08s2.55 32.77-10.99 54.56c0 0 3.65 24.09 4.57 41.97 0 0-4.61-.23 1.02 9.86l-1.43 19.5 79.49 8.14s3.76-4.03-1.09-9.07c-4.84-5.04-1.17-9.54-1.17-9.54s4.15-4.22-1.02-10.41 2.19-8.25 2.19-8.25 1.83-6.65-2.19-13.53c0 0-2.65-22.24 3.31-29.35 0 0-11.63-4.96-13.3-28.66s.33-23.36.33-23.36l-11.11-1.82s-.91 10.38-18.34 11.73c-20.12 1.55-21.78-11.78-21.78-11.78h-8.49z"/><path d="M713.91 242.62s3.55-8.92 0-17.18c0 0-8.44-.31 7.15 1.53s23.54-1.55 23.54-1.55 9.92 1.88 7.49 14.41c-2.43 12.53 4.93 6.9 4.93 6.9l-.26-24.04s2.82-9.81-10.02-16.52-14.68 2.46-24.15-3.35l-17.12-9.17s-5.81 7.34 3.97 15.29l-9.48-2.76s-3.67 14.38 7.64 19.88l1.83 13.78.72 7 3.76-4.22z"/><ellipse transform="rotate(-14.058 709.574 243.768)" class="st23" cx="709.44" cy="243.73" rx="4.61" ry="5.84"/><ellipse transform="rotate(-75.942 752.565 245.626)" class="st23" cx="752.55" cy="245.61" rx="5.84" ry="4.61"/></g><g><ellipse transform="rotate(-10.89 549.175 327.907)" class="st26" cx="549.25" cy="328.02" rx="4.65" ry="6.12"/><ellipse transform="rotate(-79.1 590.535 328.01)" class="st26" cx="590.52" cy="328.02" rx="6.12" ry="4.65"/><path class="st26" d="M559.41 342.71s5.5 14.67-5.81 21.09c-11.31 6.42-10.7 22.32-10.7 22.32s-.61 13.45 15.59 15.59c16.2 2.14 32.03-6.42 32.03-6.42s10.78-6.99 9.86-22.91c-.92-15.91-14.98-10.72-14.98-10.72s-3.36.61-5.5-18.95h-20.49zM544.12 364.41l-8.87 31.18s-7.03-4.28-16.51-9.48c0 0-36.08-3.32-50.14-13.74 0 0-18.04-3.99-12.54-21.72 5.5-17.73 16.51-49.22 16.51-49.22s1.22-14.06 8.87-21.4l13.45 1.83s4.89 7.64.92 12.53c-3.97 4.89-13.15 9.48-14.06 17.42-.92 7.95-3.67 30.88-3.67 30.88s-3.36 12.23 4.28 14.06c7.64 1.83 23.54 4.59 23.54 4.59s32.24-2.94 38.22 3.07zM600.43 362.58s1.47 35.83 11.26 37.79c0 0 4.28-11.5 12.54-11.5 8.25 0 40.97 4.28 50.14-3.06 0 0 16.82-1.19 14.68-13.43 0 0-5.81-26.69-15.29-47.59 0 0 1.83-14.18-3.67-18.46s-8.56-12.84-17.12-8.71-1.22 14.52-1.22 14.52l7.34 8.56s5.5 7.03 5.2 14.06c-.31 7.03 1.83 22.32 1.83 24.76 0 2.45 3.97 7.95-4.59 8.87-8.56.92-22.93-.61-22.93-.61s-12.88-7.06-23.85-5.2h-14.32z"/><ellipse class="st26" cx="568.88" cy="324.79" rx="20.64" ry="27.17"/><path class="st26" d="M535.56 424.47s11.31 25.37 0 44.69c-11.31 19.32-7.03 14.99-7.03 14.99s15.34 7.79 43.13 8.65 39.41-4.04 39.41-4.04 3.67-5.77-7.25-20.47c-.94-1.27-4.95-28.54.53-38.93l-68.79-4.89zM459.13 554.06s64.81 44.21 66.04 50.63c0 0 10.09-20.97 6.73-25.31 0 0-9.17-4.95-14.06-7.7-4.89-2.75-42.19-36.99-42.19-36.99l-16.52 19.37zM563.39 627.62s-6.73 24.76-6.11 45.55l-7.64 40.35h17.73s2.75-21.4 9.17-33.93c6.42-12.53 14.68-40.66 10.09-49.22s-23.24-2.75-23.24-2.75z"/><path d="M532.51 469.27s-1.83 15.59-13.45 20.79l-67.87 19.56s-25.68 8.25-12.84 30.26l23.24 19.56s17.73-19.87 25.38-18.04l-1.83-4.59 75.82-1.83s6.11 18.65 3.67 40.96c-2.45 22.32-4.59 28.43-3.06 40.35 1.53 11.92-.92 16.2-.92 16.2s14.06 10.39 27.82 4.59c0 0 3.97-46.16 10.7-55.33 6.73-9.17 19.87-49.83 15.59-69.09l-4.44-34.03c-.01.02-55.19 15.09-77.81-9.36z" style="fill:#466eb6"/><path class="st28" d="M530.72 482.41c2.75 1.7 5.7 2.99 8.74 4 1.5.55 3.05.98 4.57 1.45 1.56.37 3.09.84 4.65 1.17 6.24 1.41 12.6 2.22 18.99 2.59 6.39.51 12.81.38 19.23.28l9.64-.5c3.21-.24 6.42-.55 9.65-.74-3.17.63-6.36 1.14-9.55 1.71-3.21.41-6.43.77-9.65 1.09l-4.85.26c-1.62.07-3.24.2-4.86.16-3.25-.02-6.49-.01-9.73-.27-3.25-.16-6.47-.62-9.69-1.03l-4.8-.9c-1.6-.32-3.17-.76-4.74-1.15-1.57-.42-3.12-.94-4.67-1.43-.77-.27-1.52-.58-2.28-.87-.76-.3-1.52-.57-2.26-.93l-2.21-1.03-2.15-1.15c-1.41-.81-2.81-1.64-4.03-2.71zM606.19 492.91c1.36 2.59 2.23 5.41 2.92 8.25l.48 2.15c.15.72.24 1.44.37 2.17.11.72.25 1.45.34 2.17l.22 2.19.2 2.19.07 2.2c.04 1.47.13 2.94.04 4.4-.05 1.47-.08 2.94-.16 4.4l-.42 4.38c-.11 1.47-.35 2.92-.58 4.36l-.71 4.35c-.67 2.86-1.22 5.74-1.98 8.58l-1.22 4.23c-.42 1.4-.78 2.83-1.3 4.2-.99 2.76-1.9 5.55-2.96 8.28l-3.39 8.11c-1.13 2.64-2.17 5.37-3.17 8.09-2.03 5.44-3.79 10.98-5.39 16.56-1.56 5.59-2.89 11.25-3.86 16.98-1 5.72-1.57 11.52-1.54 17.36-.48-5.82-.1-11.7.57-17.51.74-5.81 1.87-11.57 3.32-17.24 1.43-5.68 3.17-11.28 5.11-16.8.97-2.77 2.02-5.49 3.16-8.22l3.32-8.05c1.05-2.7 1.97-5.45 2.97-8.18.52-1.35.88-2.76 1.3-4.14l1.24-4.16c.79-2.79 1.39-5.62 2.09-8.43l.77-4.27c.27-1.42.55-2.85.69-4.29l.53-4.31.29-4.33c.14-1.44.1-2.89.12-4.34l.01-2.17-.11-2.17c-.27-5.76-1.11-11.59-3.34-16.99zM552.07 522.15c.41.53.9.96 1.35 1.44.45.48.9.95 1.31 1.45.85.98 1.66 2 2.42 3.05.76 1.05 1.46 2.15 2.1 3.29.65 1.14 1.24 2.31 1.68 3.61-1.11-.8-2.06-1.72-2.94-2.69a32.47 32.47 0 0 1-2.47-3.04c-.76-1.06-1.45-2.18-2.07-3.34-.31-.58-.59-1.18-.85-1.8-.22-.63-.52-1.26-.53-1.97zM476.56 532.24c.06.61.41 1.03.75 1.47.34.44.73.84 1.1 1.26.76.83 1.54 1.65 2.3 2.51.76.85 1.5 1.73 2.21 2.65.7.93 1.38 1.89 1.96 2.98-1.14-.48-2.13-1.15-3.07-1.88-.93-.73-1.8-1.54-2.59-2.43-.79-.89-1.51-1.86-2.09-2.94-.29-.54-.53-1.12-.7-1.73a5.05 5.05 0 0 1-.14-.96c.01-.33.07-.68.27-.93z"/><path class="st29" d="M549.62 600.41c3.67 11.31-3.67 29.65-3.67 29.65-1.48 3.63-3.14 5.68-4.77 6.74-1.32.86-2.62 1.06-3.8.93-2.71-.31-4.74-2.59-5.12-5.28-1.91-13.49-9.28-30.76-9.28-30.76 6.38-11.87 4.06-24.94 4.06-24.94s4.6-2.97 10.35-4.63c2.62-.76 5.48-1.24 8.26-1.05 8.87.61 3.97 29.34 3.97 29.34z"/><path class="st30" d="M549.62 600.41c3.67 11.31-3.67 29.65-3.67 29.65-1.48 3.63-3.14 5.68-4.77 6.74 3.75-17.16 2.94-38.84 2.94-38.84 1.52-11.51-2.67-20.3-6.73-25.85 2.62-.76 5.48-1.24 8.26-1.05 8.87.62 3.97 29.35 3.97 29.35z"/><path class="st22" d="M525.17 607.2h7.41M526.97 611.2h5.61M528.32 615.33h4.26M525.02 607.48s-12.83-1.93-8.94 4.99c3.83 6.82 8.94-4.99 8.94-4.99"/><path class="st28" d="M563.08 631.13c2.06.67 4.06 1.32 6.07 1.94 1.01.3 2 .6 3.01.85l1.51.39 1.52.33c.5.13 1.01.19 1.52.3.51.11 1.02.17 1.52.23.51.06 1.02.17 1.53.19.51.02 1.02.06 1.54.11 2.06.06 4.1-.1 6.24-.51-1.82 1.19-3.99 1.84-6.19 2.07-2.21.21-4.42-.01-6.57-.43-2.14-.46-4.21-1.17-6.18-2.07-1.97-.92-3.86-2-5.52-3.4zM459.13 554.06c.23-.03.4-.24.58-.39.18-.16.36-.33.53-.5l1.04-1.02c.7-.67 1.4-1.35 2.11-2 1.42-1.32 2.87-2.6 4.37-3.84a84.32 84.32 0 0 1 4.61-3.56c1.58-1.14 3.2-2.23 4.94-3.18-1.2 1.58-2.54 3.01-3.94 4.37a67.148 67.148 0 0 1-4.34 3.91c-1.5 1.24-3.06 2.41-4.68 3.51-.81.55-1.64 1.07-2.49 1.57-.44.24-.87.48-1.32.69-.43.19-.89.48-1.41.44z"/><path class="st29" d="M579.97 740.34s-30.27 5.96-39.21-5.51c0 0-.6-2.91-.27-6.75.28-3.23 1.21-7.1 3.69-10.45l5.44-7.33s15.8 1.85 18.03 1.15c2.23-.69 9.57 16.27 14.38 21.32.44.46.78.9 1.03 1.31 2.6 4.17-3.09 6.26-3.09 6.26z"/><path class="st30" d="M579.97 740.34s-30.27 5.96-39.21-5.51c0 0-.6-2.91-.27-6.75 3.67 3.65 11.08 7.67 25.95 7.67 7.23 0 12.62-.68 16.62-1.67 2.6 4.17-3.09 6.26-3.09 6.26z"/><path class="st22" d="M555.99 718.56h14.18M559.12 721.94h14.18M561.7 725.7h14.18M569.87 717.97s5.49-9.65 8.42-3.59-7.95 4.82-7.95 4.82M568.1 718.1s-4.96-8.72-7.61-3.25c-2.65 5.47 7.18 4.36 7.18 4.36"/><path d="M590.52 308.6s-1.23-11.69-13.62-17.89c0 0 8.71-9.48-2.75-13.91s-12.38 5.04-12.38 5.04-.31 6.57 4.59 9.63c0 0-5.04-1.38-9.32 2.6-4.28 3.97-8.87 9.02-9.78 16.2-.92 7.18 2 18.65 2 18.65s-.16-9.17 4.58-12.84c9.78-1.07 17.84-12.15 17.84-12.15 2.39 2.94 7.03 7.83 14.41 12.15l2.29 11.94c-.01 0 4.98-8.64 2.14-19.42z" style="fill:#1d231b"/><path class="st25" d="M539.84 361.36s-7.95 22.32-8.25 33.32-3.36 19.26 4.13 37.6l11.16.31 56.87.92 11.01-34.24s-11.01-6.11-11.01-37.91l-18.04-1.83s17.43 22.93-6.73 29.96c0 0-23.39 8.87-29.73-8.87 0 0-3.6-8.06 6.8-18.55l-16.21-.71z"/></g><g><ellipse transform="rotate(-10.887 197.171 311.59)" class="st32" cx="197.19" cy="311.63" rx="4.65" ry="6.13"/><ellipse transform="rotate(-79.111 238.475 311.63)" class="st32" cx="238.47" cy="311.63" rx="6.13" ry="4.65"/><path class="st32" d="M207.36 326.32s5.5 14.68-5.81 21.1c-11.31 6.42-10.7 22.32-10.7 22.32s-.61 13.45 15.59 15.59c16.2 2.14 32.03-6.42 32.03-6.42s10.78-6.99 9.86-22.91c-.92-15.92-14.98-10.72-14.98-10.72s-3.36.61-5.5-18.96h-20.49zM192.07 348.02l-8.87 31.18s-7.03-4.28-16.51-9.48c0 0-36.08-3.33-50.14-13.74 0 0-18.04-3.99-12.54-21.73 5.5-17.73 16.51-49.22 16.51-49.22s1.22-14.06 8.87-21.4l13.45 1.83s4.89 7.64.92 12.54-13.15 9.48-14.06 17.43c-.92 7.95-3.67 30.88-3.67 30.88s-3.36 12.23 4.28 14.06c7.64 1.83 23.54 4.59 23.54 4.59s32.23-2.95 38.22 3.06zM248.38 346.19s1.47 35.84 11.26 37.79c0 0 4.28-11.5 12.54-11.5 8.25 0 40.97 4.28 50.14-3.06 0 0 16.82-1.19 14.68-13.43 0 0-5.81-26.69-15.29-47.6 0 0 1.83-14.18-3.67-18.46-5.5-4.28-8.56-12.84-17.12-8.71-8.56 4.13-1.22 14.52-1.22 14.52l7.34 8.56s5.5 7.03 5.2 14.06c-.31 7.03 1.83 22.32 1.83 24.76s3.97 7.95-4.59 8.87c-8.56.92-22.93-.61-22.93-.61s-12.88-7.06-23.85-5.2h-14.32z"/><ellipse class="st32" cx="216.83" cy="308.39" rx="20.64" ry="27.17"/><path d="M227.23 277.4c9.17-18.04-7.62-18.96-7.62-18.96-17.4 1.22-9.2 17.43-9.2 17.43-22.32 7.34-13.12 29.73-13.12 29.73 2.81-1.25 5.16-3.69 6.99-6.23.24 1.34.79 2.45 1.85 2.94 0 0-.28-3.45.71-7.05l.18-.33c-.21 2.67.06 5.47 1.94 6.36 0 0-.32-3.93.92-7.78-.27 2.78-.06 5.82 1.91 6.75 0 0-.32-3.93.92-7.78-.27 2.78-.06 5.82 1.91 6.75 0 0-.23-2.83.46-6.04-.24 2.71.02 5.6 1.93 6.5 0 0-.23-2.9.48-6.15-.27 2.77-.06 5.8 1.91 6.73 0 0-.33-4.08.99-8-.37 2.94-.3 6.42 1.83 7.42 0 0-.3-3.7.82-7.44.14.03.27.07.41.1-.57 3.13-.92 7.76 1.6 8.94 0 0-.34-4.22 1.07-8.21l.1.03c-.53 3.12-.78 7.49 1.65 8.63 0 0-.18-2.22.25-4.96-.09 2.93.33 6.27 2.5 7.07 0 0-.41-2.41-.16-5.36 3.35 6.11 9.14 7.13 9.14 7.13 8.44-23.48-12.37-28.22-12.37-28.22z" style="fill:#9b3e53"/><path class="st32" d="M183.51 403.97s11.31 26.9 0 47.39-7.03 15.9-7.03 15.9 15.34 8.25 43.13 9.17 39.41-4.28 39.41-4.28 3.67-6.11-7.25-21.71c-.94-1.35-4.95-30.26.53-41.27l-68.79-5.2z"/><path d="M187.79 344.97s-7.95 22.32-8.25 33.32c-.31 11.01-3.36 19.26 4.13 37.61l11.16.31 56.87.92 11.01-34.24s-11.01-6.11-11.01-37.91l-18.04-1.83s17.43 22.93-6.73 29.96c0 0-23.39 8.87-29.73-8.87 0 0-3.6-8.06 6.8-18.55l-16.21-.72z" style="fill:#c3d1ef"/><path class="st32" d="M107.08 537.69s64.81 44.21 66.04 50.63c0 0 10.09-20.98 6.73-25.32 0 0-9.17-4.95-14.06-7.7s-42.19-36.99-42.19-36.99l-16.52 19.38zM211.33 611.26s-6.73 24.76-6.11 45.55l-7.64 40.36h17.73s2.75-21.4 9.17-33.94 14.68-40.66 10.09-49.22c-4.59-8.56-23.24-2.75-23.24-2.75z"/><path d="M180.45 452.89s-1.83 15.59-13.45 20.79l-67.87 19.57s-25.68 8.25-12.84 30.27l23.24 19.57s17.73-19.87 25.38-18.04l-1.83-4.59 75.82-1.83s6.11 18.65 3.67 40.97-4.59 28.43-3.06 40.36c1.53 11.92-.92 16.2-.92 16.2s14.06 10.39 27.82 4.59c0 0 3.97-46.17 10.7-55.34 6.73-9.17 19.87-49.83 15.59-69.1l-4.44-34.03c-.01-.01-55.18 15.07-77.81-9.39z" style="fill:#ff4f5b"/><path class="st28" d="M178.66 466.04c2.75 1.7 5.7 2.99 8.74 4 1.5.55 3.05.98 4.57 1.45 1.56.37 3.09.84 4.65 1.17 6.24 1.41 12.6 2.22 18.99 2.59 6.39.51 12.81.38 19.23.28l9.64-.5c3.21-.24 6.42-.55 9.65-.74-3.17.63-6.36 1.14-9.55 1.71-3.21.41-6.43.77-9.65 1.09l-4.85.26c-1.62.07-3.24.2-4.86.16-3.25-.02-6.49-.01-9.73-.27-3.25-.16-6.47-.62-9.69-1.03l-4.8-.9c-1.6-.32-3.17-.76-4.74-1.15-1.57-.42-3.12-.94-4.67-1.43-.77-.27-1.52-.58-2.28-.87-.76-.3-1.52-.57-2.26-.93l-2.21-1.03-2.15-1.15c-1.4-.81-2.8-1.65-4.03-2.71zM254.14 476.54c1.36 2.59 2.23 5.41 2.92 8.25l.48 2.15c.15.72.24 1.44.37 2.17.11.72.25 1.45.34 2.17l.22 2.19.2 2.19.07 2.2c.04 1.47.13 2.94.04 4.4-.05 1.47-.08 2.94-.16 4.4l-.42 4.39c-.11 1.47-.35 2.92-.58 4.37l-.71 4.35c-.67 2.86-1.22 5.74-1.98 8.58l-1.22 4.23c-.42 1.4-.78 2.83-1.3 4.2-.99 2.76-1.9 5.55-2.96 8.29l-3.39 8.11c-1.13 2.64-2.17 5.37-3.17 8.09-2.03 5.44-3.79 10.98-5.39 16.56-1.56 5.59-2.89 11.25-3.86 16.98-1 5.72-1.57 11.53-1.54 17.36-.48-5.82-.1-11.7.57-17.51.74-5.81 1.87-11.57 3.32-17.24 1.43-5.68 3.17-11.28 5.11-16.8.97-2.77 2.02-5.49 3.16-8.22l3.32-8.05c1.05-2.7 1.97-5.45 2.97-8.18.52-1.35.88-2.76 1.3-4.15l1.24-4.16c.79-2.79 1.39-5.62 2.09-8.43l.77-4.27c.27-1.42.55-2.85.69-4.29l.53-4.31.29-4.33c.14-1.45.1-2.89.12-4.34l.01-2.17-.11-2.17c-.27-5.78-1.11-11.61-3.34-17.01zM200.02 505.78c.41.53.9.96 1.35 1.44.45.48.9.95 1.31 1.45.85.98 1.66 2 2.42 3.05.76 1.05 1.46 2.15 2.1 3.29.65 1.14 1.24 2.31 1.68 3.61-1.11-.8-2.06-1.72-2.94-2.69a32.47 32.47 0 0 1-2.47-3.04c-.76-1.06-1.45-2.18-2.07-3.34-.31-.58-.59-1.18-.85-1.8-.23-.63-.53-1.26-.53-1.97zM124.51 515.87c.06.61.41 1.03.75 1.47.34.44.73.84 1.1 1.26.76.83 1.54 1.65 2.3 2.51.76.85 1.5 1.73 2.21 2.65.7.93 1.38 1.89 1.96 2.98-1.14-.48-2.13-1.15-3.07-1.88-.93-.73-1.8-1.54-2.59-2.43-.79-.89-1.51-1.86-2.09-2.94-.29-.54-.53-1.12-.7-1.73a5.05 5.05 0 0 1-.14-.96c.01-.33.07-.68.27-.93z"/><path d="M197.57 584.05c3.67 11.31-3.67 29.65-3.67 29.65-1.48 3.63-3.14 5.68-4.77 6.74-1.32.86-2.62 1.06-3.8.93-2.71-.31-4.74-2.59-5.12-5.28-1.91-13.49-9.28-30.77-9.28-30.77 6.38-11.87 4.06-24.94 4.06-24.94s4.6-2.97 10.35-4.63c2.62-.76 5.48-1.24 8.26-1.05 8.87.61 3.97 29.35 3.97 29.35z" style="fill:#f77fa8"/><path class="st28" d="M197.57 584.05c3.67 11.31-3.67 29.65-3.67 29.65-1.48 3.63-3.14 5.68-4.77 6.74 3.75-17.16 2.94-38.84 2.94-38.84 1.52-11.51-2.67-20.3-6.73-25.85 2.62-.76 5.48-1.24 8.26-1.05 8.87.61 3.97 29.35 3.97 29.35z"/><path class="st22" d="M173.12 590.84h7.41M174.92 594.84h5.61M176.27 598.97h4.26M172.97 591.12s-12.83-1.93-8.94 4.99c3.83 6.82 8.94-4.99 8.94-4.99"/><path class="st28" d="M211.03 614.77c2.06.67 4.06 1.32 6.07 1.94 1.01.3 2 .6 3.01.85l1.51.39 1.52.33c.5.13 1.01.19 1.52.3.51.11 1.02.17 1.52.23.51.06 1.02.17 1.53.19.51.02 1.02.06 1.54.11 2.06.06 4.1-.1 6.24-.51-1.82 1.19-3.99 1.84-6.19 2.07-2.21.21-4.42-.01-6.57-.43-2.14-.46-4.21-1.17-6.18-2.07-1.97-.92-3.86-2-5.52-3.4zM107.08 537.69c.23-.03.4-.24.58-.39.18-.16.36-.33.53-.5l1.04-1.02c.7-.67 1.4-1.35 2.11-2 1.42-1.32 2.87-2.6 4.37-3.84a84.32 84.32 0 0 1 4.61-3.56c1.58-1.14 3.2-2.23 4.94-3.18-1.2 1.58-2.54 3.01-3.94 4.37a67.148 67.148 0 0 1-4.34 3.91c-1.5 1.24-3.06 2.41-4.68 3.51-.81.55-1.64 1.07-2.49 1.57-.44.24-.87.48-1.32.69-.43.19-.89.49-1.41.44z"/><path d="M227.92 724s-30.27 5.96-39.21-5.51c0 0-.6-2.91-.27-6.75.28-3.23 1.21-7.1 3.69-10.45l5.44-7.33s15.8 1.85 18.03 1.15c2.23-.69 9.57 16.27 14.38 21.32.44.46.78.9 1.03 1.31 2.6 4.17-3.09 6.26-3.09 6.26z" style="fill:#f77fa6"/><path class="st28" d="M227.92 724s-30.27 5.96-39.21-5.51c0 0-.6-2.91-.27-6.75 3.67 3.65 11.08 7.67 25.95 7.67 7.23 0 12.62-.68 16.62-1.67 2.6 4.17-3.09 6.26-3.09 6.26z"/><path class="st22" d="M203.94 702.21h14.18M207.07 705.6h14.17M209.65 709.36h14.18M217.81 701.63s5.49-9.65 8.42-3.6c2.93 6.05-7.95 4.83-7.95 4.83M216.05 701.76s-4.96-8.72-7.61-3.25c-2.65 5.47 7.18 4.36 7.18 4.36"/></g></g></svg>