<svg version="1.1" id="Layer_1" xmlns="http://www.w3.org/2000/svg" xmlns:xlink="http://www.w3.org/1999/xlink" x="0" y="0" viewBox="0 0 908.1 842.4" style="enable-background:new 0 0 908.1 842.4" xml:space="preserve"><style>.st0{opacity:.14;fill:#6426b5}.st4{stroke:#5265a7;stroke-width:4;stroke-miterlimit:10}.st7,.st8{opacity:.31}.st7{fill:none;stroke:#d3d3d3;stroke-width:6;stroke-miterlimit:10}.st8{fill:#d3d3d3}.st9{fill:#fb7963}.st12{fill:#fd7968}.st14{fill:#fdfdfd}.st15{fill:#dc4b45}.st17{fill:#fffff7}.st20{fill:#bcbec0}.st21{fill:none;stroke:#010101;stroke-width:2;stroke-linecap:round;stroke-miterlimit:10}.st22{fill:#f79389}.st24{fill:#fefefe}.st25{fill:#f9b0aa}.st27{fill:#f5f5f5}.st28{fill:#5265a7}.st29{fill:#fff}.st31{fill:#f98f87}</style><ellipse class="st0" cx="415.4" cy="413.4" rx="415.4" ry="413.4"/><ellipse class="st0" cx="484.9" cy="420.4" rx="415.4" ry="413.4"/><defs><path id="SVGID_1_" d="M182 757.5c-46-7.2-86.6-34-110.8-73.8-27.7-45.4-53.7-110.6-35.9-179.6 33-127.7 10.4-123.9 28.3-218.3 21.8-114.7 152-172.1 229-161.1s190.9 37.1 237 19.2c67.4-26.2 168-67.1 250-16.9 60.7 37.1 96.6 98.6 60.9 213.2s-35.9 159 .5 208.3c0 0 54.3 128.7-112.9 198.2-159.6 66.4-417.7 30.8-546.1 10.8z"/></defs><clipPath id="SVGID_2_"><use xlink:href="#SVGID_1_" style="overflow:visible"/></clipPath><g style="clip-path:url(#SVGID_2_)"><path style="opacity:7.000000e-02;fill:#6426b5" d="M-45.1 84.5h1000v486.6h-1000z"/><g style="opacity:.57"><path class="st4" d="M103 119.6v452.6M499.6 121.1v452.7M876.5 117.7v452.6"/></g><path style="opacity:.5;fill:#6426b5" d="M-45.1 573.8h1000v212h-1000z"/><path d="M23.8 676.4c-11.4-.2-22.4 4.2-30.4 12.3-14.7 14.7-22.7 38.3 61.2 46.3 125.7 12 322.4 3.6 330 6.9s162.4 40 221.7 25.3c59.2-14.7 42.1-31.4 96.5-32.2 54.4-.8 135.1 31 167.2-6.9 32.1-37.9-65.1-59-65.1-59l-177.3-3L300.4 679 103 677.7l-79.2-1.3z" style="opacity:.11"/><path class="st7" d="M575.9 152.7h233.5V341H575.9z"/><path class="st7" d="M589.5 163.7h206.2V330H589.5zM147.2 201h105.7v115H147.2z"/><path class="st8" d="M-45.1 266.9H63.7v306.9H-45.1zM876.5 394.1h78.4v179.7h-78.4zM876.5 232.1h78.4v63.1h-78.4zM68.1 228.8H103v345H68.1z"/><path class="st7" d="M309.6 106.2h105.7v115H309.6z"/><g><ellipse class="st9" cx="371.7" cy="233.2" rx="21.3" ry="27"/><path d="M361 252.3s3.6 14.8-2.5 21.1l-8.1 3.4 3.4 10.7 22.9 3.2 11.6-6.5 5.7-4.5.6-5.2-5.7-.6s-3.2-2.2-4.5-9.3c-1.3-7.1.1-12.4.1-12.4H361z" style="fill:#fd7765"/><path d="M358.3 216.4c.5-1 1.9-.6 1.8.5-.3 2.5.7 7.9 15.2 8.1 15.2.2 15.3.4 15.6 2.1.2 1.1.2 2.3 0 3.4-.4 2.1-.8 5.4.5 6.6l1.6 1.9s5.4-3.3 4.6-17.8-6.2-22.5-17.3-25.3c-11.1-2.9-20.5.6-25.5 5.3s-7.6 10.2-7.6 15.2.8 15.4.8 15.4l4.1 5.3s5-2.6 5.2-15.5c.1.1.2-3.4 1-5.2z" style="fill:#1f201d"/><ellipse transform="rotate(-75.942 393.472 239.038)" class="st9" cx="393.5" cy="239" rx="5.8" ry="4.6"/><ellipse transform="rotate(-14.058 350.425 237.19)" class="st9" cx="350.4" cy="237.2" rx="4.6" ry="5.8"/><path class="st12" d="m318.7 280.8-24.2 3.1s-4.6-.6-5.7-9.8c-1-9.2-2.9-28.4-6.5-38.5 0 0-2.4-4.6 3.4-7 5.8-2.4 12.5-4.6 10.1-13.5 0 0-2.9-2.9-5.2-1.5 0 0 2.6-4 .6-5.4-2.1-1.4-15.5-4-19.4-1.1s-4.4 8.5-4.4 8.5-.1 6.8 1.8 10c0 0-3.3 13.2-1.3 59.6 0 0 2.7 16.9 10.7 22 8 5 18.7 9.9 33.8 8.7l6.3-35.1zM442.1 282.7h18.8s-.9-32.8 3.2-47.7c0 0 3.2-6.2-2.3-7.6s-12.8-6.1-11.2-10.5c1.6-4.4 4.3-3.3 4.3-3.3s-1.6-8.1 8.1-7.5c9.6.6 11-1.7 13.8 3.6 2.8 5.3 2.1 14.7 0 14.7s7.6 30.8 5.5 47.1 2.3 31.1-15.4 38.7c-17.7 7.6-38.5 5.7-38.5 5.7l13.7-33.2z"/><path d="m365.3 567.5-7.9 13.1s-11.7-10.7-26.2-24C311 538.2 285 515 276.6 508.9c-14.5-10.5-5.1-23.9-5.1-23.9l25.8-32.3 35.9 31.4s-29.8 12.7-14.4 21.6c15.4 9 24.5 31.6 24.5 31.6l2.6 3.5 19.4 26.7z" style="fill:#fe7b63"/><path d="m365.3 567.5-7.9 13.1s-11.7-10.7-26.2-24c3.6-3 9.4-8.4 14.7-15.8l19.4 26.7z"/><path class="st14" d="M374.7 592.9c-8.3 19.3-10.6 19.5-10.6 19.5s-2.7 2.7-5.6 3.7c-2.7 1-5.6.5-6.8-4.7L351 595s-.5-11.9-9.4-16.5c0 0-2.8-13.3 9.4-8.5 0 0 7.6 11.6 7.8-1.1 0 0-6.1-11.3-5.2-17.5.6-3.9 10-2.5 17-.8 4.1 1 7.3 2 7.3 2s5 21.1-3.2 40.3z"/><path class="st15" d="M374.7 592.9c-8.3 19.3-10.6 19.5-10.6 19.5s-2.7 2.7-5.6 3.7c1.6-4.1 4.8-12.6 10-27.3 4.8-13.7 3.7-28.7 2.1-38.2 4.1 1 7.3 2 7.3 2s5 21.1-3.2 40.3z"/><path d="M403.6 660.3c-.7 13.1 4.4 14.2 4.4 14.2-2.8 5.7-23.4-1.6-23.4-1.6s3.4-17.6 3.2-29.6c-.1-4.1-.5-9.1-1.1-14.5-1.2-10.2-3.4-21.8-6.2-31.8-4.3-15.4-1.1-28.2 1.1-38.8 2.2-10.5 0-29.8 0-29.8-5.3-9.9-2.1-29.4-2.1-29.4l34 1.6s.3 12.6-1.3 24.1c-1.6 11.5.7 31.6.7 31.6 3.2 28.9-6.4 62.7-6.4 62.7l-.7 10.2-2.2 31.1z" style="fill:#ff7864"/><path d="M407.9 674.6c-2.8 5.7-23.4-1.6-23.4-1.6s3.4-17.6 3.2-29.6c-.1-4.1-.5-9.1-1.1-14.5l19 .5-2.1 31c-.6 13 4.4 14.2 4.4 14.2z"/><path class="st17" d="M413.4 693.8s-11.9 8.2-37.1-1.2c0 0 .2-4.3.8-9 .6-4.4 1.6-9.3 3.3-11.4l.7-5.5s2.5-10.5 5.3-5.1 2.8 12 4.8 5.1c0 0 .2-15.6 11.7-12.2 0 0 5.7 3.1 1.5 15.1 0 0 6.1 10.1 10 13.1 1.7 1.3 3.9 2.7 4.8 4.2 1.3 2.1.5 4.3-5.8 6.9z"/><path class="st15" d="M413.4 693.8s-11.9 8.2-37.1-1.2c0 0 .2-4.3.8-9 4.5 2.9 12.2 6.9 20.9 7.2 9.4.3 17.3-2.2 21.2-3.8 1.3 2 .5 4.2-5.8 6.8z"/><path d="M339.1 394.1s4.8 4.8-12.4 28.9L293 456.7s33 13.8 31.6 31c0 0 25.5-10.5 36.5-19.7s7.6 5.2 7.6 5.2l3.8 35.7s23.7 9.5 43.7 0v-55.3s12.4-18.3 0-53l-77.1-6.5z" style="fill:#355389"/><path d="m358.7 272.3-47.8 6.3s-.2 35.3-1.8 37.9l18.2 1.5s3.7.2 4.5 7.6.7 50.8.7 50.8-3.9 6.8 0 12.3V406s17.9 7.6 46 1.3c0 0 9.7-3.6 25.3.6 15.6 4.1 16.9-1.1 16.9-1.1l-2.4-36.3s2.6-13.4-.6-19.6c-3.2-6.2 3-17.8 3-17.8s-1.5-14.1 14.8-16.6c0 0 .1-13.3 12.7-35.5l-33.2-3.1-25-4.2s-1.5 9.9-19.6 11.1c-.1-.3-15.6-1.2-11.7-12.5z" style="fill:#fa0"/><path class="st20" d="M416.2 413.8c.9 3.6 1.3 7.3 1.7 11 .3 3.7.4 7.4.2 11.1 0 .9-.1 1.9-.2 2.8-.1.9-.1 1.9-.2 2.8-.2 1.8-.4 3.7-.8 5.5-.6 3.7-1.6 7.3-2.6 10.9v-.3c0 8-.1 16-.3 24l-.3 12c-.2 4-.3 8-.6 12-.2-4-.3-8-.5-12-.1-4-.2-8-.2-12-.1-8-.1-16-.1-24V457.3c1.1-3.5 2-7 2.7-10.6.7-3.6 1.2-7.2 1.5-10.8.3-3.6.4-7.3.4-11 .1-3.8-.2-7.5-.7-11.1zM362.4 452.7c.8.9 1.4 1.8 1.9 2.8.5 1 1 2 1.4 3 .4 1 .7 2.1 1 3.1.3 1.1.5 2.2.5 3.4-.8-.9-1.4-1.8-1.9-2.8-.5-1-1-2-1.4-3-.4-1-.7-2.1-1-3.1-.2-1.2-.5-2.3-.5-3.4z"/><path class="st21" d="M357.3 585.9h-8.7M360.4 589h-10.5M360.4 592.3h-8.7M348.6 585.4s-3.5-7-8.5-3 4.2 8.4 8.5 4.1M349.6 584.6s-7.5-8.6 0-10.6c7.5-2.1 4.1 10.1.6 11.1M396.2 676.1l9.9-3.7M398.9 679.4l9-3.3M403.4 682.9l7.6-3.5M404.4 672.9s1-9.6 7.8-6c6.8 3.7-2.8 8.3-6.8 7.4"/><path class="st21" d="M404.8 673.1s-5.5-8-9.7-1.5c-4.2 6.5 6.4 6 9.5 3.3"/></g><g><ellipse class="st22" cx="730.8" cy="239.8" rx="21.3" ry="27"/><path class="st22" d="M720.1 258.9s3.6 14.8-2.5 21.1l-8.1 3.4 3.4 10.7 22.9 3.2 11.6-6.5 5.7-4.5.6-5.2-5.7-.6s-3.2-2.2-4.5-9.3.1-12.4.1-12.4h-23.5zM724.3 574.1l-7.9 13.1s-11.7-10.7-26.2-24c-20.2-18.4-46.2-41.6-54.6-47.7-14.5-10.5-5.1-23.9-5.1-23.9l25.8-32.3 35.9 31.4s-29.8 12.7-14.4 21.6c15.4 9 24.5 31.6 24.5 31.6l2.6 3.5 19.4 26.7z"/><path d="m724.3 574.1-7.9 13.1s-11.7-10.7-26.2-24c3.6-3 9.4-8.4 14.7-15.8l19.4 26.7z"/><path class="st14" d="M733.7 599.5c-8.3 19.3-10.6 19.5-10.6 19.5s-2.7 2.7-5.6 3.7c-2.7 1-5.6.5-6.8-4.7l-.7-16.4s-.5-11.9-9.4-16.5c0 0-2.8-13.3 9.4-8.5 0 0 7.6 11.6 7.8-1.1 0 0-6.1-11.3-5.2-17.5.6-3.9 10-2.5 17-.8 4.1 1 7.3 2 7.3 2s5.1 21-3.2 40.3z"/><path class="st15" d="M733.7 599.5c-8.3 19.3-10.6 19.5-10.6 19.5s-2.7 2.7-5.6 3.7c1.6-4.1 4.8-12.6 10-27.3 4.8-13.7 3.7-28.7 2.1-38.2 4.1 1 7.3 2 7.3 2s5.1 21-3.2 40.3z"/><path class="st22" d="M762.6 666.9c-.7 13.1 4.4 14.2 4.4 14.2-2.8 5.7-23.4-1.6-23.4-1.6s3.4-17.6 3.2-29.6c-.1-4.1-.5-9.1-1.1-14.5-1.2-10.2-3.4-21.8-6.2-31.8-4.3-15.4-1.1-28.2 1.1-38.8 2.2-10.5 0-29.8 0-29.8-5.3-9.9-2.1-29.4-2.1-29.4l34 1.6s.3 12.6-1.3 24.1c-1.6 11.5.7 31.6.7 31.6 3.2 28.9-6.4 62.7-6.4 62.7l-.7 10.2-2.2 31.1z"/><path d="M767 681.1c-2.8 5.7-23.4-1.6-23.4-1.6s3.4-17.6 3.2-29.6c-.1-4.1-.5-9.1-1.1-14.5l19 .5-2.1 31c-.7 13.1 4.4 14.2 4.4 14.2z"/><path class="st17" d="M772.5 700.4s-11.9 8.2-37.1-1.2c0 0 .2-4.3.8-9 .6-4.4 1.6-9.3 3.3-11.4l.7-5.5s2.5-10.5 5.3-5.1 2.8 12 4.8 5.1c0 0 .2-15.6 11.7-12.2 0 0 5.7 3.1 1.5 15.1 0 0 6.1 10.1 10 13.1 1.7 1.3 3.9 2.7 4.8 4.2 1.2 2.1.5 4.3-5.8 6.9z"/><path class="st15" d="M772.5 700.4s-11.9 8.2-37.1-1.2c0 0 .2-4.3.8-9 4.5 2.9 12.2 6.9 20.9 7.2 9.4.3 17.3-2.2 21.2-3.8 1.2 2 .5 4.2-5.8 6.8z"/><path d="M698.2 400.7s4.8 4.8-12.4 28.9l-33.7 33.7s33 13.8 31.6 31c0 0 25.5-10.5 36.5-19.7s7.6 5.2 7.6 5.2l3.8 35.7s23.7 9.5 43.7 0v-55.3s12.4-18.3 0-53l-77.1-6.5z" style="fill:#6426b5"/><path d="M775.3 420.4c.9 3.6 1.3 7.3 1.7 11 .3 3.7.4 7.4.2 11.1 0 .9-.1 1.9-.2 2.8-.1.9-.1 1.9-.2 2.8-.2 1.8-.4 3.7-.8 5.5-.6 3.7-1.6 7.3-2.6 10.9v-.3c0 8-.1 16-.3 24l-.3 12c-.2 4-.3 8-.6 12-.2-4-.3-8-.5-12-.1-4-.2-8-.2-12-.1-8-.1-16-.1-24V463.9c1.1-3.5 2-7 2.7-10.6.7-3.6 1.2-7.2 1.5-10.8.3-3.6.4-7.3.4-11 0-3.8-.2-7.5-.7-11.1zM721.5 459.3c.8.9 1.4 1.8 1.9 2.8.5 1 1 2 1.4 3 .4 1 .7 2.1 1 3.1.3 1.1.5 2.2.5 3.4-.8-.9-1.4-1.8-1.9-2.8-.5-1-1-2-1.4-3-.4-1-.7-2.1-1-3.1-.3-1.2-.5-2.3-.5-3.4z"/><path class="st21" d="M716.4 592.5h-8.7M719.5 595.5h-10.6M719.5 598.9h-8.7M707.7 591.9s-3.5-7-8.5-3 4.2 8.4 8.5 4.1M708.6 591.2s-7.5-8.6 0-10.6c7.5-2.1 4.1 10.1.6 11.1M755.3 682.7l9.8-3.7M757.9 686l9.1-3.3M762.5 689.5l7.6-3.5M763.5 679.4s1-9.6 7.8-6c6.8 3.7-2.8 8.3-6.8 7.4"/><path class="st21" d="M763.9 679.7s-5.5-8-9.7-1.5c-4.2 6.5 6.4 6 9.5 3.3"/><path class="st22" d="m708.3 282-33.1 5.7-21.5 2.7s-4.6-.6-5.7-9.8c-1-9.2-2.9-28.4-6.5-38.5 0 0-2.4-4.6 3.4-7s12.5-4.6 10.1-13.5c0 0-2.9-2.9-5.2-1.5 0 0 2.6-4 .6-5.4-2.1-1.4-15.5-4-19.4-1.1-3.9 2.9-4.4 8.5-4.4 8.5s-.1 6.8 1.8 10c0 0-3.3 13.2-1.3 59.6 0 0 2.7 16.9 10.7 22 7.3 4.6 16.8 9 29.9 8.9h.1c1.2 0 2.5-.1 3.8-.2v-.2c5.8-.3 16.4.2 20.6 7.9L697 345l13.8-31.4-2.5-31.6zM759.3 282l33.1 5.7 21.5 2.7s4.6-.6 5.7-9.8c1-9.2 2.9-28.4 6.5-38.5 0 0 2.4-4.6-3.4-7s-12.5-4.6-10.1-13.5c0 0 2.9-2.9 5.2-1.5 0 0-2.6-4-.6-5.4 2.1-1.4 15.5-4 19.4-1.1 3.9 2.9 4.4 8.5 4.4 8.5s.1 6.8-1.8 10c0 0 3.3 13.2 1.3 59.6 0 0-2.7 16.9-10.7 22-7.3 4.6-16.8 9-29.9 8.9h-.1c-1.2 0-2.5-.1-3.8-.2v-.2c-5.8-.3-16.4.2-20.6 7.9l-4.8 14.9-13.8-31.4 2.5-31.6z"/><path class="st24" d="M705.1 281.1s2.6 32.8-11 54.6c0 0 3.7 24.1 4.6 42 0 0-4.6-.2 1 9.9l-1.4 19.5 79.5 8.1s3.8-4-1.1-9.1c-4.8-5-1.2-9.5-1.2-9.5s4.2-4.2-1-10.4 2.2-8.3 2.2-8.3 1.8-6.6-2.2-13.5c0 0-2.7-22.2 3.3-29.4 0 0-11.6-5-13.3-28.7-1.7-23.7.3-23.4.3-23.4l-11.1-1.8s-.9 10.4-18.3 11.7c-20.1 1.6-21.8-11.8-21.8-11.8h-8.5z"/><path d="M713.9 242.6s3.6-8.9 0-17.2c0 0-8.4-.3 7.1 1.5s23.5-1.5 23.5-1.5 9.9 1.9 7.5 14.4c-2.4 12.5 4.9 6.9 4.9 6.9l-.3-24s2.8-9.8-10-16.5-14.7 2.5-24.2-3.4l-17.1-9.2s-5.8 7.3 4 15.3l-9.5-2.8s-3.7 14.4 7.6 19.9l1.8 13.8.7 7 4-4.2z"/><ellipse transform="rotate(-14.058 709.574 243.768)" class="st22" cx="709.4" cy="243.7" rx="4.6" ry="5.8"/><ellipse transform="rotate(-75.942 752.565 245.626)" class="st22" cx="752.5" cy="245.6" rx="5.8" ry="4.6"/></g><g><ellipse transform="rotate(-10.89 549.175 327.907)" class="st25" cx="549.2" cy="328" rx="4.7" ry="6.1"/><ellipse transform="rotate(-79.1 590.535 328.01)" class="st25" cx="590.5" cy="328" rx="6.1" ry="4.7"/><path class="st25" d="M559.4 342.7s5.5 14.7-5.8 21.1c-11.3 6.4-10.7 22.3-10.7 22.3s-.6 13.5 15.6 15.6c16.2 2.1 32-6.4 32-6.4s10.8-7 9.9-22.9c-.9-15.9-15-10.7-15-10.7s-3.4.6-5.5-19h-20.5zM544.1 364.4l-8.9 31.2s-7-4.3-16.5-9.5c0 0-36.1-3.3-50.1-13.7 0 0-18-4-12.5-21.7s16.5-49.2 16.5-49.2 1.2-14.1 8.9-21.4l13.5 1.8s4.9 7.6.9 12.5-13.1 9.5-14.1 17.4c-.9 7.9-3.7 30.9-3.7 30.9s-3.4 12.2 4.3 14.1c7.6 1.8 23.5 4.6 23.5 4.6s32.2-3 38.2 3zM600.4 362.6s1.5 35.8 11.3 37.8c0 0 4.3-11.5 12.5-11.5 8.3 0 41 4.3 50.1-3.1 0 0 16.8-1.2 14.7-13.4 0 0-5.8-26.7-15.3-47.6 0 0 1.8-14.2-3.7-18.5s-8.6-12.8-17.1-8.7-1.2 14.5-1.2 14.5l7.3 8.6s5.5 7 5.2 14.1c-.3 7 1.8 22.3 1.8 24.8 0 2.4 4 7.9-4.6 8.9-8.6.9-22.9-.6-22.9-.6s-12.9-7.1-23.8-5.2h-14.3z"/><ellipse class="st25" cx="568.9" cy="324.8" rx="20.6" ry="27.2"/><path class="st25" d="M535.6 424.5s11.3 25.4 0 44.7c-11.3 19.3-7 15-7 15s15.3 7.8 43.1 8.7 39.4-4 39.4-4 3.7-5.8-7.3-20.5c-.9-1.3-5-28.5.5-38.9l-68.7-5zM459.1 554.1s64.8 44.2 66 50.6c0 0 10.1-21 6.7-25.3 0 0-9.2-5-14.1-7.7-4.9-2.8-42.2-37-42.2-37l-16.4 19.4zM563.4 627.6s-6.7 24.8-6.1 45.5l-7.6 40.4h17.7s2.8-21.4 9.2-33.9c6.4-12.5 14.7-40.7 10.1-49.2s-23.3-2.8-23.3-2.8z"/><path d="M532.5 469.3s-1.8 15.6-13.5 20.8l-67.9 19.6s-25.7 8.3-12.8 30.3l23.2 19.6s17.7-19.9 25.4-18l-1.8-4.6 75.8-1.8s6.1 18.6 3.7 41c-2.4 22.3-4.6 28.4-3.1 40.4 1.5 11.9-.9 16.2-.9 16.2s14.1 10.4 27.8 4.6c0 0 4-46.2 10.7-55.3 6.7-9.2 19.9-49.8 15.6-69.1l-4.4-34c0-.4-55.2 14.7-77.8-9.7z" style="fill:#466eb6"/><path class="st27" d="M530.7 482.4c2.7 1.7 5.7 3 8.7 4 1.5.6 3 1 4.6 1.5 1.6.4 3.1.8 4.7 1.2 6.2 1.4 12.6 2.2 19 2.6 6.4.5 12.8.4 19.2.3l9.6-.5c3.2-.2 6.4-.6 9.7-.7-3.2.6-6.4 1.1-9.5 1.7-3.2.4-6.4.8-9.7 1.1l-4.9.3c-1.6.1-3.2.2-4.9.2-3.2 0-6.5 0-9.7-.3-3.2-.2-6.5-.6-9.7-1l-4.8-.9c-1.6-.3-3.2-.8-4.7-1.2-1.6-.4-3.1-.9-4.7-1.4-.8-.3-1.5-.6-2.3-.9-.8-.3-1.5-.6-2.3-.9l-2.2-1-2.2-1.1c-1.3-1.1-2.7-1.9-3.9-3zM606.2 492.9c1.4 2.6 2.2 5.4 2.9 8.3l.5 2.1c.1.7.2 1.4.4 2.2.1.7.2 1.4.3 2.2l.2 2.2.2 2.2.1 2.2c0 1.5.1 2.9 0 4.4 0 1.5-.1 2.9-.2 4.4l-.4 4.4c-.1 1.5-.3 2.9-.6 4.4l-.7 4.3c-.7 2.9-1.2 5.7-2 8.6l-1.2 4.2c-.4 1.4-.8 2.8-1.3 4.2-1 2.8-1.9 5.5-3 8.3l-3.4 8.1c-1.1 2.6-2.2 5.4-3.2 8.1-2 5.4-3.8 11-5.4 16.6-1.6 5.6-2.9 11.3-3.9 17-1 5.7-1.6 11.5-1.5 17.4-.5-5.8-.1-11.7.6-17.5.7-5.8 1.9-11.6 3.3-17.2 1.4-5.7 3.2-11.3 5.1-16.8 1-2.8 2-5.5 3.2-8.2l3.3-8.1c1.1-2.7 2-5.5 3-8.2.5-1.4.9-2.8 1.3-4.1l1.2-4.2c.8-2.8 1.4-5.6 2.1-8.4l.8-4.3c.3-1.4.5-2.8.7-4.3l.5-4.3.3-4.3c.1-1.4.1-2.9.1-4.3v-2.2l-.1-2.2c-.1-6-1-11.8-3.2-17.2zM552.1 522.2c.4.5.9 1 1.3 1.4.4.5.9 1 1.3 1.4.9 1 1.7 2 2.4 3.1.8 1.1 1.5 2.2 2.1 3.3.6 1.1 1.2 2.3 1.7 3.6-1.1-.8-2.1-1.7-2.9-2.7-.9-1-1.7-2-2.5-3-.8-1.1-1.5-2.2-2.1-3.3l-.9-1.8c-.1-.7-.4-1.3-.4-2zM476.6 532.2c.1.6.4 1 .8 1.5.3.4.7.8 1.1 1.3.8.8 1.5 1.7 2.3 2.5.8.9 1.5 1.7 2.2 2.7.7.9 1.4 1.9 2 3-1.1-.5-2.1-1.2-3.1-1.9-.9-.7-1.8-1.5-2.6-2.4-.8-.9-1.5-1.9-2.1-2.9-.3-.5-.5-1.1-.7-1.7-.1-.3-.1-.6-.1-1-.1-.5 0-.8.2-1.1z"/><path class="st28" d="M549.6 600.4c3.7 11.3-3.7 29.6-3.7 29.6-1.5 3.6-3.1 5.7-4.8 6.7-1.3.9-2.6 1.1-3.8.9-2.7-.3-4.7-2.6-5.1-5.3-1.9-13.5-9.3-30.8-9.3-30.8 6.4-11.9 4.1-24.9 4.1-24.9s4.6-3 10.3-4.6c2.6-.8 5.5-1.2 8.3-1 8.9.7 4 29.4 4 29.4z"/><path class="st29" d="M549.6 600.4c3.7 11.3-3.7 29.6-3.7 29.6-1.5 3.6-3.1 5.7-4.8 6.7 3.8-17.2 2.9-38.8 2.9-38.8 1.5-11.5-2.7-20.3-6.7-25.8 2.6-.8 5.5-1.2 8.3-1 8.9.6 4 29.3 4 29.3z"/><path class="st21" d="M525.2 607.2h7.4M527 611.2h5.6M528.3 615.3h4.3M525 607.5s-12.8-1.9-8.9 5c3.8 6.8 8.9-5 8.9-5"/><path class="st27" d="M563.1 631.1c2.1.7 4.1 1.3 6.1 1.9l3 .9 1.5.4 1.5.3 1.5.3c.5.1 1 .2 1.5.2.5.1 1 .2 1.5.2s1 .1 1.5.1c2.1.1 4.1-.1 6.2-.5-1.8 1.2-4 1.8-6.2 2.1-2.2.2-4.4 0-6.6-.4-2.1-.5-4.2-1.2-6.2-2.1-1.8-.9-3.7-2-5.3-3.4zM459.1 554.1c.2 0 .4-.2.6-.4.2-.2.4-.3.5-.5l1-1c.7-.7 1.4-1.3 2.1-2 1.4-1.3 2.9-2.6 4.4-3.8 1.5-1.2 3-2.4 4.6-3.6 1.6-1.1 3.2-2.2 4.9-3.2-1.2 1.6-2.5 3-3.9 4.4-1.4 1.4-2.8 2.7-4.3 3.9-1.5 1.2-3.1 2.4-4.7 3.5-.8.6-1.6 1.1-2.5 1.6-.4.2-.9.5-1.3.7-.4.1-.9.4-1.4.4z"/><path class="st28" d="M580 740.3s-30.3 6-39.2-5.5c0 0-.6-2.9-.3-6.7.3-3.2 1.2-7.1 3.7-10.4l5.4-7.3s15.8 1.8 18 1.1c2.2-.7 9.6 16.3 14.4 21.3.4.5.8.9 1 1.3 2.7 4.2-3 6.2-3 6.2z"/><path class="st29" d="M580 740.3s-30.3 6-39.2-5.5c0 0-.6-2.9-.3-6.7 3.7 3.6 11.1 7.7 25.9 7.7 7.2 0 12.6-.7 16.6-1.7 2.7 4.2-3 6.2-3 6.2z"/><path class="st21" d="M556 718.6h14.2M559.1 721.9h14.2M561.7 725.7h14.2M569.9 718s5.5-9.6 8.4-3.6-7.9 4.8-7.9 4.8M568.1 718.1s-5-8.7-7.6-3.2c-2.7 5.5 7.2 4.4 7.2 4.4"/><path d="M590.5 308.6s-1.2-11.7-13.6-17.9c0 0 8.7-9.5-2.8-13.9s-12.4 5-12.4 5-.3 6.6 4.6 9.6c0 0-5-1.4-9.3 2.6-4.3 4-8.9 9-9.8 16.2-.9 7.2 2 18.6 2 18.6s-.2-9.2 4.6-12.8c9.8-1.1 17.8-12.2 17.8-12.2 2.4 2.9 7 7.8 14.4 12.2l2.3 11.9c.1.1 5.1-8.5 2.2-19.3z" style="fill:#1d231b"/><path class="st24" d="M539.8 361.4s-7.9 22.3-8.3 33.3-3.4 19.3 4.1 37.6l11.2.3 56.9.9 11-34.2s-11-6.1-11-37.9l-18-1.8s17.4 22.9-6.7 30c0 0-23.4 8.9-29.7-8.9 0 0-3.6-8.1 6.8-18.5l-16.3-.8z"/></g><g><ellipse transform="rotate(-10.887 197.171 311.59)" class="st31" cx="197.2" cy="311.6" rx="4.7" ry="6.1"/><ellipse transform="rotate(-79.111 238.475 311.63)" class="st31" cx="238.5" cy="311.6" rx="6.1" ry="4.7"/><path class="st31" d="M207.4 326.3s5.5 14.7-5.8 21.1c-11.3 6.4-10.7 22.3-10.7 22.3s-.6 13.5 15.6 15.6c16.2 2.1 32-6.4 32-6.4s10.8-7 9.9-22.9c-.9-15.9-15-10.7-15-10.7s-3.4.6-5.5-19h-20.5zM192.1 348l-8.9 31.2s-7-4.3-16.5-9.5c0 0-36.1-3.3-50.1-13.7 0 0-18-4-12.5-21.7s16.5-49.2 16.5-49.2 1.2-14.1 8.9-21.4l13.5 1.8s4.9 7.6.9 12.5-13.1 9.5-14.1 17.4c-.9 7.9-3.7 30.9-3.7 30.9s-3.4 12.2 4.3 14.1c7.6 1.8 23.5 4.6 23.5 4.6s32.2-3 38.2 3zM248.4 346.2s1.5 35.8 11.3 37.8c0 0 4.3-11.5 12.5-11.5 8.3 0 41 4.3 50.1-3.1 0 0 16.8-1.2 14.7-13.4 0 0-5.8-26.7-15.3-47.6 0 0 1.8-14.2-3.7-18.5-5.5-4.3-8.6-12.8-17.1-8.7-8.6 4.1-1.2 14.5-1.2 14.5l7.3 8.6s5.5 7 5.2 14.1c-.3 7 1.8 22.3 1.8 24.8s4 7.9-4.6 8.9c-8.6.9-22.9-.6-22.9-.6s-12.9-7.1-23.8-5.2h-14.3z"/><ellipse class="st31" cx="216.8" cy="308.4" rx="20.6" ry="27.2"/><path d="M227.2 277.4c9.2-18-7.6-19-7.6-19-17.4 1.2-9.2 17.4-9.2 17.4-22.3 7.3-13.1 29.7-13.1 29.7 2.8-1.3 5.2-3.7 7-6.2.2 1.3.8 2.4 1.8 2.9 0 0-.3-3.4.7-7.1.1-.1.1-.2.2-.3-.2 2.7.1 5.5 1.9 6.4 0 0-.3-3.9.9-7.8-.3 2.8-.1 5.8 1.9 6.8 0 0-.3-3.9.9-7.8-.3 2.8-.1 5.8 1.9 6.8 0 0-.2-2.8.5-6-.2 2.7 0 5.6 1.9 6.5 0 0-.2-2.9.5-6.2-.3 2.8-.1 5.8 1.9 6.7 0 0-.3-4.1 1-8-.4 2.9-.3 6.4 1.8 7.4 0 0-.3-3.7.8-7.4.1 0 .3.1.4.1-.6 3.1-.9 7.8 1.6 8.9 0 0-.3-4.2 1.1-8.2h.1c-.5 3.1-.8 7.5 1.7 8.6 0 0-.2-2.2.3-5-.1 2.9.3 6.3 2.5 7.1 0 0-.4-2.4-.2-5.4 3.4 6.1 9.1 7.1 9.1 7.1 8.5-23.3-12.3-28-12.3-28z" style="fill:#9b3e53"/><path class="st31" d="M183.5 404s11.3 26.9 0 47.4-7 15.9-7 15.9 15.3 8.3 43.1 9.2 39.4-4.3 39.4-4.3 3.7-6.1-7.3-21.7c-.9-1.3-5-30.3.5-41.3l-68.7-5.2z"/><path d="M187.8 345s-7.9 22.3-8.3 33.3c-.3 11-3.4 19.3 4.1 37.6l11.2.3 56.9.9 11-34.2s-11-6.1-11-37.9l-18-1.8s17.4 22.9-6.7 30c0 0-23.4 8.9-29.7-8.9 0 0-3.6-8.1 6.8-18.6l-16.3-.7z" style="fill:#c3d1ef"/><path class="st31" d="M107.1 537.7s64.8 44.2 66 50.6c0 0 10.1-21 6.7-25.3 0 0-9.2-5-14.1-7.7s-42.2-37-42.2-37l-16.4 19.4zM211.3 611.3s-6.7 24.8-6.1 45.6l-7.6 40.4h17.7s2.8-21.4 9.2-33.9 14.7-40.7 10.1-49.2c-4.6-8.8-23.3-2.9-23.3-2.9z"/><path d="M180.5 452.9s-1.8 15.6-13.5 20.8l-67.9 19.6s-25.7 8.3-12.8 30.3l23.2 19.6s17.7-19.9 25.4-18l-1.8-4.6 75.8-1.8s6.1 18.6 3.7 41-4.6 28.4-3.1 40.4c1.5 11.9-.9 16.2-.9 16.2s14.1 10.4 27.8 4.6c0 0 4-46.2 10.7-55.3 6.7-9.2 19.9-49.8 15.6-69.1l-4.4-34c0-.3-55.2 14.7-77.8-9.7z" style="fill:#ff4f5b"/><path class="st27" d="M178.7 466c2.7 1.7 5.7 3 8.7 4 1.5.6 3 1 4.6 1.5 1.6.4 3.1.8 4.7 1.2 6.2 1.4 12.6 2.2 19 2.6 6.4.5 12.8.4 19.2.3l9.6-.5c3.2-.2 6.4-.6 9.7-.7-3.2.6-6.4 1.1-9.5 1.7-3.2.4-6.4.8-9.7 1.1l-4.9.3c-1.6.1-3.2.2-4.9.2-3.2 0-6.5 0-9.7-.3-3.2-.2-6.5-.6-9.7-1l-4.8-.9c-1.6-.3-3.2-.8-4.7-1.2-1.6-.4-3.1-.9-4.7-1.4-.8-.3-1.5-.6-2.3-.9-.8-.3-1.5-.6-2.3-.9l-2.2-1-2.2-1.1c-1.3-1.1-2.7-1.9-3.9-3zM254.1 476.5c1.4 2.6 2.2 5.4 2.9 8.3l.5 2.1c.1.7.2 1.4.4 2.2.1.7.2 1.4.3 2.2l.2 2.2.2 2.2.1 2.2c0 1.5.1 2.9 0 4.4 0 1.5-.1 2.9-.2 4.4l-.4 4.4c-.1 1.5-.3 2.9-.6 4.4l-.7 4.3c-.7 2.9-1.2 5.7-2 8.6l-1.2 4.2c-.4 1.4-.8 2.8-1.3 4.2-1 2.8-1.9 5.6-3 8.3l-3.4 8.1c-1.1 2.6-2.2 5.4-3.2 8.1-2 5.4-3.8 11-5.4 16.6-1.6 5.6-2.9 11.3-3.9 17-1 5.7-1.6 11.5-1.5 17.4-.5-5.8-.1-11.7.6-17.5.7-5.8 1.9-11.6 3.3-17.2 1.4-5.7 3.2-11.3 5.1-16.8 1-2.8 2-5.5 3.2-8.2l3.3-8.1c1.1-2.7 2-5.5 3-8.2.5-1.4.9-2.8 1.3-4.1l1.2-4.2c.8-2.8 1.4-5.6 2.1-8.4l.8-4.3c.3-1.4.5-2.8.7-4.3l.5-4.3.3-4.3c.1-1.4.1-2.9.1-4.3v-2.2l-.1-2.2c-.1-5.9-.9-11.8-3.2-17.2zM200 505.8c.4.5.9 1 1.3 1.4.4.5.9 1 1.3 1.4.9 1 1.7 2 2.4 3.1.8 1.1 1.5 2.2 2.1 3.3.6 1.1 1.2 2.3 1.7 3.6-1.1-.8-2.1-1.7-2.9-2.7-.9-1-1.7-2-2.5-3-.8-1.1-1.5-2.2-2.1-3.3l-.9-1.8c-.1-.7-.4-1.3-.4-2zM124.5 515.9c.1.6.4 1 .8 1.5.3.4.7.8 1.1 1.3.8.8 1.5 1.7 2.3 2.5.8.9 1.5 1.7 2.2 2.7.7.9 1.4 1.9 2 3-1.1-.5-2.1-1.2-3.1-1.9-.9-.7-1.8-1.5-2.6-2.4-.8-.9-1.5-1.9-2.1-2.9-.3-.5-.5-1.1-.7-1.7-.1-.3-.1-.6-.1-1-.1-.5 0-.9.2-1.1z"/><path d="M197.6 584.1c3.7 11.3-3.7 29.7-3.7 29.7-1.5 3.6-3.1 5.7-4.8 6.7-1.3.9-2.6 1.1-3.8.9-2.7-.3-4.7-2.6-5.1-5.3-1.9-13.5-9.3-30.8-9.3-30.8 6.4-11.9 4.1-24.9 4.1-24.9s4.6-3 10.3-4.6c2.6-.8 5.5-1.2 8.3-1 8.9.5 4 29.3 4 29.3z" style="fill:#f77fa8"/><path class="st27" d="M197.6 584.1c3.7 11.3-3.7 29.7-3.7 29.7-1.5 3.6-3.1 5.7-4.8 6.7 3.8-17.2 2.9-38.8 2.9-38.8 1.5-11.5-2.7-20.3-6.7-25.9 2.6-.8 5.5-1.2 8.3-1 8.9.5 4 29.3 4 29.3z"/><path class="st21" d="M173.1 590.8h7.4M174.9 594.8h5.6M176.3 599h4.2M173 591.1s-12.8-1.9-8.9 5c3.8 6.8 8.9-5 8.9-5"/><path class="st27" d="M211 614.8c2.1.7 4.1 1.3 6.1 1.9l3 .9 1.5.4 1.5.3 1.5.3c.5.1 1 .2 1.5.2.5.1 1 .2 1.5.2s1 .1 1.5.1c2.1.1 4.1-.1 6.2-.5-1.8 1.2-4 1.8-6.2 2.1-2.2.2-4.4 0-6.6-.4-2.1-.5-4.2-1.2-6.2-2.1-1.7-.9-3.6-2-5.3-3.4zM107.1 537.7c.2 0 .4-.2.6-.4.2-.2.4-.3.5-.5l1-1c.7-.7 1.4-1.3 2.1-2 1.4-1.3 2.9-2.6 4.4-3.8 1.5-1.2 3-2.4 4.6-3.6 1.6-1.1 3.2-2.2 4.9-3.2-1.2 1.6-2.5 3-3.9 4.4-1.4 1.4-2.8 2.7-4.3 3.9-1.5 1.2-3.1 2.4-4.7 3.5-.8.6-1.6 1.1-2.5 1.6-.4.2-.9.5-1.3.7-.4.1-.9.4-1.4.4z"/><path d="M227.9 724s-30.3 6-39.2-5.5c0 0-.6-2.9-.3-6.8.3-3.2 1.2-7.1 3.7-10.4l5.4-7.3s15.8 1.8 18 1.2c2.2-.7 9.6 16.3 14.4 21.3.4.5.8.9 1 1.3 2.7 4.1-3 6.2-3 6.2z" style="fill:#f77fa6"/><path class="st27" d="M227.9 724s-30.3 6-39.2-5.5c0 0-.6-2.9-.3-6.8 3.7 3.7 11.1 7.7 25.9 7.7 7.2 0 12.6-.7 16.6-1.7 2.7 4.2-3 6.3-3 6.3z"/><path class="st21" d="M203.9 702.2h14.2M207.1 705.6h14.1M209.6 709.4h14.2M217.8 701.6s5.5-9.7 8.4-3.6c2.9 6.1-7.9 4.8-7.9 4.8M216 701.8s-5-8.7-7.6-3.2c-2.7 5.5 7.2 4.4 7.2 4.4"/></g></g></svg>