<svg version="1.1" id="Layer_1" xmlns="http://www.w3.org/2000/svg" x="0" y="0" viewBox="0 0 1000 899.7" style="enable-background:new 0 0 1000 899.7" xml:space="preserve"><style>.st0{fill:#e2d4fe}.st3{opacity:9.000000e-02}.st4{fill:#606060}.st5{opacity:.47;fill:none;stroke:#7b7c7c;stroke-width:2;stroke-miterlimit:10}.st6{fill:#304d54}.st7{fill:#fff}.st8{fill:#f1f2f2}.st10{fill:#ff4d53}.st11{fill:#3c5c68}.st12{fill:#feac02}.st13{fill:#6e8387}.st14{fill:#89aa61}.st17{fill:#ffbe9e}.st19{fill:#192f35}.st22,.st23{opacity:.47}.st23{fill:#375a62}.st26{fill:#7b7c7c}.st28{fill:#e6e7e8}</style><ellipse class="st0" cx="80.9" cy="318.5" rx="25.4" ry="27.9"/><ellipse class="st0" cx="70.9" cy="247.5" rx="19.1" ry="21"/><ellipse class="st0" cx="64.6" cy="189.6" rx="13.2" ry="14.5"/><ellipse class="st0" cx="90" cy="414.9" rx="56.3" ry="61.7"/><path class="st0" d="M317.3 875.2S-31.4 759 61.1 529.3c73.2-181.9 62-258.1 45.8-302.6-13.9-37.9-10.5-80.2 10.4-114.8C145.8 64.8 209 15 349.1 12c269.8-5.8 718 16 603 416.4-.1-.1 199.1 598-634.8 446.8z"/><path d="M350.1 882.1S20.7 790 96.1 572.3C155.8 399.9 142 329.5 124.8 289c-14.7-34.6-13.4-74.1 4.4-107.2 24.3-45.1 80.8-94.2 210.9-103.5 250.5-17.7 668.1-17.9 579.5 359.4.1.1 212.5 546.9-569.5 444.4z" style="fill:#cfb5f6"/><path d="M364 848.8S62.2 764.5 131.3 564.9c55.6-160.4 41.6-224.4 25.6-261.3-11.9-27.3-12.2-58.4-.4-85.7 18.9-43.9 68.8-96.4 198.4-105.6C584.4 96.1 967 95.9 885.8 441.7c0 0 194.6 500.9-521.8 407.1z" style="fill:#f7f5fc"/><g class="st3"><path class="st4" d="M279.6 621h85.9s-10.2 9.6-10.2 28.8-7.7 31.6-22 33.9l.2 10.9 20.7.4v8.2h-62.5l1.2-9 20.7-.4.8-10.4s1.5 0-9.2-4.3c-10.8-4.3-18.5-16.5-13.6-45.2l-12-12.9z"/><path class="st5" d="M322.6 678.8v-52.2M326.9 678.8s14.3.3 12.4-28.8c-1.8-29.1 6.6-23.4 6.6-23.4M336.4 678.8s16-4.3 14-29.3 4.5-23.3 4.5-23.3M318.1 678.8s-13.9-2.7-12.3-32.5c0 0 1.1-15-6.9-20.2M308.5 678.8s-17-11.2-15.4-26.1c1.6-14.9 4-24.5-.1-26.1"/><g><path class="st6" d="M279.6 619.4s-11.8-10.1 0-23.4c0 0-21.2-5.3-17.5-25.6 3.7-20.2-5.3-34.1 4.8-35.7 10.1-1.6 17.6 2.1 17.6 2.1s4.2-33.5 22.9-29.3c18.6 4.3 19.2 3.7 21.3 8 2.1 4.3 20.8-4.8 29.3 17.6 8.5 22.4 0 18.6 0 18.6s25.6-6.9 28.2 22.4l2.1 10.1s10.1 10.7-2.7 20.2c-12.8 9.6-11.7 2.1-11.7 2.1s10.8 7.5-8.4 12.8c-19.2 5.4-85.9.1-85.9.1z"/><path class="st7" d="M345.2 578.2s-.9-19.6-18.3-7.9c-17.4 11.7-11.5 24-11.5 24s7.5 15.4 23.4 9.6c0 0 5.3-1.1 6.4-9.1 0 .1 11.7-9.8 0-16.6z"/><path class="st8" d="M314.8 588.4s5.4-18.4 18.3-16.8c12.9 1.7 3.6 14.9 3.6 14.9s-11.3 8.4-21.9 1.9z"/><path class="st8" d="M316 589.6s16.1-10.5 24.8-.9-7 13.7-7 13.7-14-1-17.8-12.8z"/><path class="st7" d="M316.5 590.1s9.3-16.8 21.5-12.4c12.2 4.5.2 15.4.2 15.4s-12.8 5.6-21.7-3z"/><path class="st8" d="M367.1 589.6s15.4 2.1 21.2-5.4l-4.2-19.8s-12.6-12.2-17-3.1c0 0-15-3.6-11.8 12.6s11.8 15.7 11.8 15.7z"/><path class="st7" d="M367.1 581s-4.3-17.6 4.5-16.5 16.2 2.9 11.9 9.5c-4.3 6.6-16.4 15.7-16.4 15.7V581zM320.2 556.8s29.5 3.7 34.7-22.9c0 0-3.3-14.8-22.5-14.6 0 0-25-15.7-30.9-2.4-5.8 13.3-3.2 32.5 18.7 39.9z"/><path class="st8" d="M322.2 548s-5.2-32.2 11.2-28.5c16.5 3.6 19.6 12.9 8.9 20.8S321 552.8 321 552.8l1.2-4.8z"/><path class="st8" d="M317 549.3s-22.9-23.2-7.4-29.8c15.5-6.6 23.5-.8 19.3 11.7-4.1 12.6-10.1 22.6-10.1 22.6l-1.8-4.5z"/><path class="st7" d="M292.5 560.4s-12.3-28.1-30.1-10V569s-2.4 16.5 4.6 21.7c6.9 5.3 29.8-8.6 25.5-30.3z"/><path class="st8" d="M289.7 562s-12.2 15.9-24.6 3.6c0 0-4.9-20 10.7-14.5 15.6 5.4 13.9 10.9 13.9 10.9z"/><path class="st8" d="M289.2 568.1s-3.5 19.7-20.1 14.6c0 0-13.6-15.4 2.7-17.8 16.3-2.4 17.4 3.2 17.4 3.2z"/><path class="st7" d="M277.5 591.7s28.8-10.2 23.5 15.9c0 0-8.7 16.5-21.4 11.7 0 0-10.2-11.2 0-23.4l-2.1-4.2z"/><path class="st8" d="m296.2 607.7-18.7-2.6s-1.1-14.9 9.4-10.1c10.4 4.7 9.3 12.7 9.3 12.7z"/><path class="st8" d="m296.2 602.7-18.7 2.6s-1.1 14.9 9.4 10.1c10.4-4.7 9.3-12.7 9.3-12.7z"/><path class="st7" d="M319 548.1s-12.6-28.7 4.3-28.9 22.1 7.6 13.5 17.3c-8.5 9.6-17.8 16.4-17.8 16.4v-4.8zM294.5 603.5s-4.6 11-13.6 5.8c0 0-5.8-10.8 4-10 9.8.8 9.6 4.2 9.6 4.2z"/></g></g><g class="st3"><path class="st4" d="M697.1 623.6H783s-10.2 9.6-10.2 28.8c0 19.2-7.7 31.6-22 33.9l.2 10.9 20.7.4v8.2h-62.5l1.2-9 20.7-.4.8-10.4s1.5 0-9.2-4.3c-10.8-4.3-18.5-16.5-13.6-45.2l-12-12.9z"/><path class="st5" d="M740.1 681.5v-52.2M744.4 681.5s14.3.3 12.4-28.8c-1.8-29.1 6.6-23.4 6.6-23.4M753.9 681.5s16-4.3 14-29.3 4.5-23.3 4.5-23.3M735.5 681.5s-13.9-2.7-12.3-32.5c0 0 1.1-15-6.9-20.2M725.9 681.5s-17-11.2-15.4-26.1 4-24.5-.1-26.1"/><g><path class="st6" d="M697.1 622.1s-11.8-10.1 0-23.4c0 0-21.2-5.3-17.5-25.6s-5.3-34.1 4.8-35.7 17.6 2.1 17.6 2.1 4.2-33.5 22.9-29.3c18.6 4.3 19.2 3.7 21.3 8 2.1 4.3 20.8-4.8 29.3 17.6 8.5 22.4 0 18.6 0 18.6s25.6-6.9 28.2 22.4l2.1 10.1s10.1 10.7-2.7 20.2-11.7 2.1-11.7 2.1 10.8 7.5-8.4 12.8-85.9.1-85.9.1z"/><path class="st7" d="M762.7 580.9s-.9-19.6-18.3-7.9c-17.4 11.7-11.5 24-11.5 24s7.5 15.4 23.4 9.6c0 0 5.3-1.1 6.4-9.1 0 .1 11.7-9.8 0-16.6z"/><path class="st8" d="M732.3 591.1s5.4-18.4 18.3-16.8 3.6 14.9 3.6 14.9-11.3 8.3-21.9 1.9z"/><path class="st8" d="M733.5 592.3s16.1-10.5 24.8-.9-7 13.7-7 13.7-14-1-17.8-12.8z"/><path class="st7" d="M734 592.8s9.3-16.8 21.5-12.4.2 15.4.2 15.4-12.8 5.6-21.7-3z"/><path class="st8" d="M784.6 592.3s15.4 2.1 21.2-5.4l-4.2-19.8s-12.6-12.2-17-3.1c0 0-15-3.6-11.8 12.6 3.2 16.2 11.8 15.7 11.8 15.7z"/><path class="st7" d="M784.6 583.6s-4.3-17.6 4.5-16.5c8.7 1.1 16.2 2.9 11.9 9.5-4.3 6.6-16.4 15.7-16.4 15.7v-8.7zM737.7 559.5s29.5 3.7 34.7-22.9c0 0-3.3-14.8-22.5-14.6 0 0-25-15.7-30.9-2.4-5.8 13.3-3.2 32.5 18.7 39.9z"/><path class="st8" d="M739.7 550.7s-5.2-32.2 11.2-28.5c16.5 3.6 19.6 12.9 8.9 20.8s-21.4 12.6-21.4 12.6l1.3-4.9z"/><path class="st8" d="M734.5 552s-22.9-23.2-7.4-29.8c15.5-6.6 23.5-.8 19.3 11.7-4.1 12.6-10.1 22.6-10.1 22.6l-1.8-4.5z"/><path class="st7" d="M710 563.1s-12.3-28.1-30.1-10v18.6s-2.4 16.5 4.6 21.7c6.9 5.3 29.7-8.6 25.5-30.3z"/><path class="st8" d="M707.2 564.7s-12.2 15.9-24.6 3.6c0 0-4.9-20 10.7-14.5 15.6 5.4 13.9 10.9 13.9 10.9z"/><path class="st8" d="M706.7 570.8s-3.5 19.7-20.1 14.6c0 0-13.6-15.4 2.7-17.8s17.4 3.2 17.4 3.2z"/><path class="st7" d="M695 594.4s28.8-10.2 23.5 15.9c0 0-8.7 16.5-21.4 11.7 0 0-10.2-11.2 0-23.4l-2.1-4.2z"/><path class="st8" d="m713.7 610.3-18.7-2.6s-1.1-14.9 9.4-10.1c10.4 4.7 9.3 12.7 9.3 12.7z"/><path class="st8" d="M713.7 605.4 695 608s-1.1 14.9 9.4 10.1c10.4-4.7 9.3-12.7 9.3-12.7z"/><path class="st7" d="M736.5 550.8s-12.6-28.7 4.3-28.9c16.9-.3 22.1 7.6 13.5 17.3-8.5 9.6-17.8 16.4-17.8 16.4v-4.8zM712 606.2s-4.6 11-13.6 5.8c0 0-5.8-10.8 4-10 9.7.8 9.6 4.2 9.6 4.2z"/></g></g><path d="M614.7 567.7s20.7-39.4 18.9-61.2c-1.8-21.8.9-28.2 9.1-10.1v10.1s8.2-21.8 16.8-10.1c0 0 4.3 2.1 0 10.1 0 0 18.8-10.1 19 0s-11.5 16-11.5 16 23.4-6.9 22.4 4.3-12.8-4.9-30.9 10c-18.1 15-24.5 41.7-24.5 41.7s.9-9.8-19.3-10.8z" style="fill:#58595b"/><path class="st10" d="M689.2 410.9s-10.7-10.7-7-20.8c0 0 12.2.6 14.9 13.9 0 0 3.7 5.2 4.8 0 1.1-5 4.1-10.7 12.8-10.1 0 0 5.9 7.5-8.5 20.2 0 0 2.7-1.9 9.1 2.9 6.4 4.8 8.9 8.8 7.4 15.2-.7 2.8-13 3.2-19.6-6.4 0 0 2.5 17.6-8.1 20.2 0 0-10-9.2-3.7-20.2 0 0 1.6-3.4-4.3-2.8-5.9.7-14.9.7-18.1-4.9 0 0 12.3-11.5 20.3-7.2z"/><circle class="st7" cx="698.4" cy="416.2" r="3"/><path class="st11" d="M648.3 525.2c4.7-2.8 9.7-5.1 14.9-6.9 5.1-1.9 10.5-3.3 15.9-4.4 5.4-1.1 10.9-1.5 16.4-1.5 5.5 0 11 .9 16.3 2.2-1.4-.1-2.7-.2-4.1-.4-.7-.1-1.3-.2-2-.2h-2c-1.4 0-2.7-.1-4.1-.1l-4.1.1c-1.3 0-2.7.2-4 .3-1.3.1-2.7.2-4 .4l-4 .5-4 .7c-5.3 1-10.6 2.3-15.7 3.9-2.6.8-5.2 1.6-7.7 2.6-2.8.8-5.3 1.8-7.8 2.8z"/><path class="st11" d="M787.3 510.8c-5.3-1.8-10.7-3.4-16.2-4.5s-11.1-1.9-16.6-2.5c-5.6-.5-11.2-.8-16.8-.8-5.6 0-11.2.3-16.8.7-11.2.9-22.3 2.4-33.3 4.7-11 2.3-21.9 5-32.5 8.6l-2 .7.8-1.9 9-20.4L672 475c3.1-6.8 6.1-13.6 9.2-20.4 3.1-6.8 6.2-13.6 9.3-20.3-2.8 6.9-5.7 13.8-8.6 20.6-2.8 6.9-5.8 13.7-8.7 20.6l-8.7 20.5-8.9 20.5-1.2-1.2c10.7-3.7 21.7-6.5 32.7-8.7 11.1-2.2 22.3-3.7 33.6-4.5 11.3-.7 22.6-.6 33.8.7 5.6.6 11.2 1.7 16.7 2.9 5.4 1.3 10.8 3.1 16.1 5.1z"/><path class="st11" d="M660 510.8c6.1-2.6 12.3-5 18.6-7.2 6.3-2.2 12.6-4.3 19-6.2 12.7-3.9 25.7-7.1 38.7-9.6 6.5-1.2 13.1-2.2 19.8-3 6.6-.8 13.3-1.4 19.9-1.5 13.3-.4 26.8.8 39.5 4.7-6.5-1.6-13-2.5-19.6-2.9-1.7-.1-3.3-.3-5-.3l-5-.1c-3.3 0-6.6 0-9.9.2-13.2.6-26.4 2.4-39.4 4.9-6.5 1.2-13 2.6-19.4 4.1-6.4 1.5-12.8 3.3-19.2 5-6.4 1.8-12.8 3.7-19.1 5.7-6.4 1.9-12.7 4-18.9 6.2zM659.4 506.5c3.8-4.2 7.9-8.1 12.2-11.9 4.2-3.8 8.6-7.4 13.2-10.8 4.6-3.4 9.2-6.7 14.1-9.5 4.9-2.9 10-5.4 15.4-7.2-5.1 2.5-9.9 5.5-14.6 8.5-1.2.8-2.3 1.6-3.5 2.3l-3.4 2.4c-1.2.8-2.3 1.6-3.4 2.5-1.1.8-2.3 1.7-3.4 2.5-4.5 3.3-8.9 6.9-13.3 10.4-4.5 3.6-8.9 7.2-13.3 10.8zM648.3 510.8c6.9-8.6 14.2-17 21.7-25 7.5-8.1 15.4-15.9 23.5-23.4 8.2-7.5 16.6-14.7 25.6-21.1 4.5-3.2 9.2-6.3 14-9 4.9-2.7 9.9-5.1 15.2-6.6-5.2 2-10.1 4.5-14.7 7.5-4.7 2.9-9.2 6.1-13.6 9.4-4.4 3.3-8.7 6.8-12.8 10.4-4.2 3.6-8.3 7.2-12.4 11-4.1 3.7-8.1 7.5-12 11.4-4 3.8-7.9 7.7-11.7 11.7-7.7 7.6-15.3 15.6-22.8 23.7zM712.1 414.9c1.5-2.1 3.2-4 4.9-5.8 1.7-1.9 3.5-3.7 5.3-5.4 1.8-1.7 3.7-3.5 5.6-5.1 1.9-1.7 3.9-3.3 6-4.7-1.5 2.1-3.2 4-4.9 5.8-1.7 1.9-3.5 3.7-5.3 5.4-1.8 1.7-3.7 3.5-5.6 5.1-2 1.7-3.9 3.3-6 4.7zM702.1 403.2c-.1-3.2-.2-6.3-.2-9.5s.1-6.3.1-9.5c.1-3.1.3-6.3.5-9.4.2-3.1.6-6.3 1.1-9.4.3 3.2.4 6.3.5 9.5.1 3.2 0 6.3-.1 9.5s-.3 6.3-.6 9.4c-.1 1.6-.3 3.1-.5 4.7s-.4 3.1-.8 4.7z"/><path class="st11" d="M652 510.8c1.9-6.5 3.6-13.1 5.1-19.7 1.6-6.6 3-13.2 4.2-19.9 2.5-13.3 4.5-26.7 5.5-40.3.6-6.7.9-13.5 1-20.3.1-6.8-.1-13.5-.6-20.3-.5-6.7-1.3-13.5-2.5-20.1-1.2-6.7-2.9-13.2-4.9-19.7 2.5 6.3 4.4 12.9 5.9 19.5 1.4 6.7 2.4 13.4 3.1 20.2.7 6.8.8 13.6.8 20.4 0 6.8-.4 13.6-.9 20.4-.6 6.8-1.4 13.6-2.4 20.3-1 6.7-2.2 13.4-3.6 20.1-1.4 6.7-3 13.3-4.8 19.8-1.7 6.7-3.6 13.2-5.9 19.6z"/><path class="st11" d="M645.6 510.8c1.3-3.4 2.4-6.8 3.2-10.4.4-1.8.8-3.5 1.1-5.3l.5-2.7.4-2.7c1-7.1 1.4-14.3 1.3-21.5-.2-3.6-.2-7.2-.7-10.8-.2-1.8-.3-3.6-.5-5.4l-.8-5.3-.4-2.7-.5-2.7-1.1-5.3c-.7-3.5-1.8-7-2.6-10.6l1.8 5.1.9 2.6c.3.9.6 1.7.8 2.6l1.4 5.3.7 2.6.5 2.7 1 5.4c.3 1.8.5 3.6.7 5.4.2 1.8.4 3.6.5 5.5l.3 5.5c.1 7.3-.4 14.6-1.8 21.8-1.3 7.4-3.3 14.5-6.7 20.9zM640.3 510.8c1.2-6.4 1.9-12.9 2.4-19.5.5-6.5.7-13 .5-19.6-.3-13-2-26-5.5-38.6-3.5-12.5-9-24.5-16.8-34.9l-1.5-1.9c-.5-.7-1-1.3-1.5-1.9l-3.2-3.7c-1.1-1.2-2.3-2.3-3.4-3.5l-1.7-1.7c-.6-.6-1.2-1.1-1.8-1.6l-3.7-3.2-3.9-2.9c-.7-.5-1.3-1-2-1.5l-2.1-1.3-4.1-2.7 4.3 2.4 2.1 1.2c.7.4 1.4.9 2 1.4l4.1 2.8 3.9 3.1c.6.5 1.3 1 1.9 1.6l1.8 1.7c1.2 1.1 2.4 2.2 3.6 3.4l3.3 3.6c.6.6 1.1 1.2 1.6 1.9l1.5 1.9c4.1 5.2 7.6 10.8 10.4 16.8 2.9 5.9 5.3 12.1 7.1 18.5 1.7 6.4 3 12.9 3.9 19.4.8 6.5 1.3 13.1 1.3 19.7-.1 13.2-1.4 26.4-4.5 39.1z"/><path class="st11" d="M591.8 421.4c3.6-1.8 7.6-2.9 11.6-3.6 4-.7 8.1-.9 12.2-.5s8.1 1.5 11.8 3.3c3.7 1.7 7 4.3 9.6 7.4-3.2-2.4-6.6-4.5-10.3-5.9-.9-.4-1.8-.7-2.8-1-.9-.3-1.9-.6-2.8-.8-1.9-.5-3.8-.8-5.8-1-3.9-.4-7.9-.4-11.8 0-3.8.4-7.8 1.1-11.7 2.1zM618.6 376.1c-1.2 1.3-2 2.8-2.4 4.3-.4 1.5-.5 3.2-.3 4.8 0 .8.3 1.6.4 2.4.2.8.4 1.6.7 2.4.3.8.5 1.6.8 2.4.3.8.6 1.6.9 2.5-.6-.6-1.2-1.3-1.7-2s-1-1.5-1.4-2.3c-.4-.8-.7-1.7-1-2.5-.2-.9-.5-1.8-.6-2.7-.2-1.8 0-3.8.9-5.5.7-1.7 2-3.2 3.7-3.8zM639.7 525.2c.7-2.7 1.5-5.3 1.9-8 .5-2.7.7-5.4.8-8.1.2-5.4-.4-10.9-1.7-16.1-.6-2.7-1.4-5.3-2.3-7.8-.9-2.6-2-5.1-3.1-7.6-1.2-2.5-2.5-4.9-3.8-7.2-1.4-2.4-2.9-4.7-4.5-6.9 3.9 4 7.1 8.6 9.8 13.5 2.7 4.9 4.7 10.2 6 15.6 1.3 5.5 1.8 11.1 1.3 16.7-.5 5.4-2.1 10.8-4.4 15.9zM741.9 463.4c3.6-2.5 7.9-3.9 12.1-4.9 4.3-.9 8.7-1.2 13.1-1.1l3.3.2c1.1.1 2.2.3 3.3.4 2.2.2 4.3.7 6.5 1.2 1.1.2 2.1.6 3.2.9l3.1.9c2.1.8 4.1 1.5 6.1 2.4l-6.3-1.9-3.2-.8c-1.1-.2-2.1-.6-3.2-.7-2.1-.3-4.2-.9-6.4-1.1-1.1-.1-2.1-.3-3.2-.4l-3.2-.2c-4.3-.2-8.7.1-12.9.9-1.1.2-2.1.4-3.2.7l-1.6.4-1.5.5c-2.1.8-4.1 1.6-6 2.6z"/><path class="st11" d="M773.2 445.8c.4 1.4.3 2.9-.1 4.3s-1.1 2.8-2.1 3.9-2.2 2-3.5 2.6c-.6.3-1.3.6-2 .8-.7.2-1.4.3-2.1.5.6-.3 1.3-.6 1.9-.9.6-.4 1.2-.7 1.8-1 .6-.4 1.2-.7 1.7-1.2.6-.4 1-.9 1.5-1.4 1.7-2.1 2.8-4.8 2.9-7.6z"/><path class="st12" d="M735.8 389.2s-6.9-6.9-4.5-13.5c0 0 7.9.4 9.6 9 0 0 2.4 3.4 3.1 0 .7-3.3 2.7-7 8.2-6.6 0 0 3.8 4.8-5.5 13.1 0 0 1.8-1.2 5.9 1.9 4.1 3.1 5.8 5.7 4.8 9.9-.4 1.8-8.4 2.1-12.6-4.1 0 0 1.6 11.4-5.2 13.1 0 0-6.4-6-2.4-13.1 0 0 1-2.2-2.7-1.8-3.8.4-9.6.4-11.7-3.2 0-.1 7.9-7.5 13-4.7z"/><ellipse class="st7" cx="741.8" cy="392.6" rx="1.9" ry="2"/><path class="st10" d="M697.6 364.6s-5.6 8.1-2 14.1c0 0 7.8-1.8 7.9-10.6 0 0 1.7-3.8 3.1-.6 1.3 3.1 3.9 6.4 9.4 5 0 0 2.9-5.5-7.8-11.9 0 0 2 .9 5.5-2.9s4.7-6.7 2.9-10.6c-.8-1.7-8.7-.5-11.7 6.4 0 0-.5-11.5-7.6-12 0 0-5.3 7.1 0 13.4 0 0 1.4 2-2.4 2.3-3.8.3-9.6 1.3-11 5.3 0-.1 9.2 5.7 13.7 2.1z"/><circle class="st7" cx="702.9" cy="360.1" r="2"/><path class="st10" d="M653.2 422.9c-.9-5.9-7.4-14.1-26.2-25.2 0 0-26.1-.3 10.4 31.8 6.8 5.9 17.2 1.6 15.8-6.6z"/><path class="st13" d="M652.1 428.2s-28.9 6.7-25.4-33.7c0 0 18.6-13.4 25.4 33.7z"/><path class="st10" d="M654 428.5s-28.9 6.7-25.4-33.7c0 0 18.7-13.4 25.4 33.7zM790.2 516.1c3.2 5 12.3 10.1 34 12.9 0 0 24.1-10-22.1-25.2-8.5-2.8-16.4 5.3-11.9 12.3z"/><path class="st13" d="M789.2 510.8s24-17.6 36.6 21c-.1 0-12 19.6-36.6-21z"/><path class="st10" d="M787.3 511.2s24-17.6 36.6 21c-.1 0-12 19.7-36.6-21z"/><path class="st12" d="M709.8 517.1c2.3 3.6 8.8 7.2 24.2 9.2 0 0 17.2-7.1-15.7-17.9-6-2-11.7 3.7-8.5 8.7z"/><path class="st13" d="M709.1 513.3s17.1-12.5 26.1 15c0-.1-8.5 13.9-26.1-15z"/><path class="st12" d="M707.7 513.6s17.1-12.5 26.1 15c0 0-8.5 14-26.1-15zM627 463.3l-13 11.4s.2-5.8-4.1-6.4c-4.3-.6 0-7 0-7s-5.4-3.9-1.9-4.1c3.5-.2 12.6-2.3 19 6.1z"/><path class="st12" d="m623 459.6-16.2-7.7s-6.3-6.1 0-5.8c0 0-3.3-11.2 3.1-8.2l4.8 3.8s-1.9-12.2 3.3-3.8c5.2 8.4 5 21.7 5 21.7zM628.3 461.2s-5.6-19.9 0-19.6 5.3 7.7 5.3 7.7 5.6-2.1 5.6 2.5-10.9 9.4-10.9 9.4z"/><path class="st14" d="M759.6 504.1s2.2.7 4.8 2.4c5.2 3.5 12.4 11.2 8.3 26.4 0 0-13.7-7.9-10.6-19.6s-2.5-9.2-2.5-9.2zM812 487.5s1.6-.3 4 .2c4.7.9 12.5 4.6 16.5 18.8 0 0-11.8-1.4-15-12.4s-5.5-6.6-5.5-6.6zM764 485.2s1.6-.3 4 .2c4.7.9 12.5 4.6 16.5 18.8 0 0-11.8-1.4-15-12.4-3.1-10.9-5.5-6.6-5.5-6.6zM668.1 388.1s-.7-1.5-.9-3.9c-.4-4.8 1.1-13.2 13.8-20.9 0 0 1.8 11.8-7.9 17.7-9.7 6-5 7.1-5 7.1zM668.1 435.9s-.7-1.5-.9-3.9c-.4-4.8 1.1-13.2 13.8-20.9 0 0 1.8 11.8-7.9 17.7-9.7 6-5 7.1-5 7.1zM654.1 470.3s-.7-1.5-.9-3.9c-.4-4.8 1.1-13.2 13.8-20.9 0 0 1.8 11.8-7.9 17.7-9.7 6-5 7.1-5 7.1zM720.8 492.9s1.4-.8 3.8-1.3c4.7-.9 13.3-.3 22.3 11.4 0 0-11.5 3-18.5-6-7-8.9-7.6-4.1-7.6-4.1zM681.8 488.8s1.3-1 3.6-1.8c4.6-1.5 13.1-2 23.6 8.5 0 0-11.1 4.5-19.1-3.6-8.1-8-8.1-3.1-8.1-3.1zM687.2 471.7s.6-1.5 2.3-3.3c3.3-3.5 10.5-8.1 24.7-4 0 0-7.5 9.3-18.4 6.1-11-3-8.6 1.2-8.6 1.2zM742.8 428s1.3-1 3.6-1.8c4.6-1.5 13.1-2 23.6 8.5 0 0-11.1 4.5-19.1-3.6-8.1-7.9-8.1-3.1-8.1-3.1zM716 445.4s.7-1 2.3-2c3-2 9.2-4.1 18.9 1.5 0 0-7.2 5.5-14.7 1.2s-6.5-.7-6.5-.7zM795.3 483.8s1.6.3 4-.2c4.7-.9 12.5-4.6 16.5-18.8 0 0-11.8 1.4-15 12.4-3.2 10.9-5.5 6.6-5.5 6.6zM664 368.7s.2-1.6-.2-4c-.9-4.7-4.8-12.4-19-16.3 0 0 1.6 11.8 12.5 14.8 11 3.1 6.7 5.5 6.7 5.5zM667.9 410.7s.4-1.6.2-4c-.4-4.8-3.2-12.9-17-18.4 0 0 .2 11.9 10.7 16.2 10.6 4.4 6.1 6.2 6.1 6.2zM651.5 484s.3-1.6-.1-4c-.8-4.7-4.3-12.6-18.4-17 0 0 1.1 11.9 12 15.3 10.8 3.5 6.5 5.7 6.5 5.7z"/><path class="st14" d="M663.4 457.9s.8-1.4 1.2-3.8c.8-4.7.1-13.3-11.8-22.1 0 0-2.9 11.6 6.2 18.4s4.4 7.5 4.4 7.5zM750.2 485.4s1.3.2 3.2-.1c3.8-.7 10-3.7 13.3-15.2 0 0-9.5 1.2-12.1 10-2.5 8.8-4.4 5.3-4.4 5.3zM734.7 431.3s1.2-.3 2.7-1.2c3-1.9 7.4-6.6 6.3-17.7 0 0-7.8 4.3-7 12.8s-2 6.1-2 6.1zM702.9 454.6s1.2-.3 2.6-1.4c2.9-2.1 6.9-7.2 5-18.1 0 0-7.5 4.8-6.1 13.2s-1.5 6.3-1.5 6.3z"/><ellipse class="st12" cx="592.6" cy="382.1" rx="8.3" ry="3.5"/><ellipse transform="rotate(-14.939 601.756 372.49)" class="st12" cx="601.7" cy="372.5" rx="2.6" ry="6.3"/><ellipse transform="rotate(-72.572 589.152 371.758)" class="st12" cx="589.2" cy="371.8" rx="3.2" ry="6.9"/><ellipse transform="rotate(-72.572 792.575 463.437)" cx="792.6" cy="463.4" rx="2.5" ry="4.6" style="fill:#ff4b52"/><ellipse transform="rotate(-37.688 785.577 457.872)" class="st10" cx="785.6" cy="457.9" rx="3.6" ry="2.5"/><ellipse transform="rotate(-50.617 784.544 464.732)" cx="784.5" cy="464.7" rx="2.5" ry="3.6" style="fill:#ff4b53"/><g><path class="st12" d="M711.6 475.5c5.8 1.3 15.8-1.5 33.2-14.7 0 0 10.1-24.1-33.4-2.3-8 3.9-8 15.1.2 17z"/><path class="st13" d="M707.1 472.4s4.7-29.3 40.8-10.8c-.1 0 5.3 22.3-40.8 10.8z"/><path class="st12" d="M706.1 474.1s4.7-29.3 40.8-10.8c-.1-.1 5.3 22.3-40.8 10.8z"/></g><g><path class="st17" d="m464.4 341.3-13.2 80.9h-16s32 60.7 64.9 67.7c32.9 7 48.9-7.9 42.3-32.5C535.8 432.8 532 424 532 424l-13.2-7.5-.9-28.6-53.5-46.6z"/><path d="M553.3 336.7c0 39.8-20.5 72.1-45.7 72.1-21.9 0-40.1-24.2-44.7-56.5-.7-5-1.1-10.3-1.1-15.6 0-39.8 20.5-72.1 45.7-72.1 25.3 0 45.8 32.3 45.8 72.1z" style="opacity:.2;fill:#606060"/><path class="st17" d="M554.9 331.8c0 39.8-20.5 72.1-45.7 72.1-21.9 0-40.1-24.2-44.7-56.5-.7-5-1.1-10.3-1.1-15.6 0-39.8 20.5-72.1 45.7-72.1s45.8 32.3 45.8 72.1z"/><path class="st19" d="M518.2 252.4s-63.3-31.7-90.6 39.6c-24.3 63.6-24.9 95-41 114.1-3.3 4-5.2 8.9-5.1 14.1.1 6.9-2.2 17.8-14.6 30.2 0 0-3.7 13.4 1.5 24.3 0 0 2.4-28.6 24-42.8l62.5-9.7 7-68.6 8.8-45.7s35.2-22 47.5-42.2c0 0 6.5 1.5 14.4 9.1 10.4 10 16 23.8 16 38.2v36.4c0 13.1-3.6 26.1-10.7 37.1-5.1 7.9-11.9 14.8-20.1 14.9l1.3 21.7 45.7 5.3s11.4-63.6-6.2-97.3c0-.1 15-83.9-40.4-78.7z"/><path class="st12" d="M443.8 422.2s46.9 55.5 57.5 57.1c9.9 1.5 18.6 3 21.1-10.1.5-2.4 1-4.9 1.5-7.3 1.6-6.8 4.2-21.5 1.4-38.1l43.1 4.4s22.3 1.6 29.8 38.3c0 0 18.6 58.6 19.2 83.1l3.2 12.2s-32 30.4-33 42.6c-1.1 12.2 3.2 27.2 21.3 27.2s24.3-17 24.3-17-5.1 20.8-18.4 25-21.3-3.7-21.3-3.7l16.5 66.6H382s20.8-70.8 35.7-85.7c0 0-44.4-81.2-45.8-120.4 0 0-12.9-41.2 18.1-63.4l53.8-10.8z"/><path d="m428.3 425.3 26.7 82.2 111.3-10.1s5.3-14.5-6.9-32.5-25-39.9-25-39.9l14.3 1.2 28.3 43 2.7 107s-10.1 17 4.8 30.9l13.8 48.1 11.7 47.3H382s21.3-65.5 35.7-85.7 35.5-56.7 35.5-56.7l-39.2-132 14.3-2.8z" style="fill:#4570ad"/><path class="st7" d="m527.9 509.1 2.7 13.4 34.1-3.2-2.2-12.8z"/><path class="st17" d="M466.5 569.3s-23.8 33 10.8 52.7l94.3-58.3s6.9-7.7 15.4-5.1c0 0 10.1-2.7 12.8-10.1h22.4s11.2-6.9 0-8.5c-11.2-1.6-22.9 4.3-18.6-9.1h33s7.4-9.6-8.5-11.7h-21.8s5.3-3.7 18.6-4.8 21.8-1.1 16-8h-31.2s-1.8-3.2 7.3-6.9 14.4-2.7 14.4-2.7 4.8-4.5.5-5.2c-4.3-.7-41 3.1-41 3.1s-9.1 6.4-15.4 19.7-22 19.2-22 19.2l-87 35.7z"/><path class="st17" d="M588.6 597.5s-9 33.6 18.7 34.1c0 0 15.2 2.6 25-17 1.6-3.2 12.2-33.5 12.2-33.5s18.1-4.8 19.2-13.3c0 0 7.5-1 5.9-10.9 0 0 7.9-8.3.2-15.7 0 0-2.6-.7 3.4-4.3 6-3.7 4.4-10.1-3-11.1-7.5-1.1-29 0-29 0s-3.5 5.3 5 8.5l-22.4-1.1s-11.6 6.3 1.4 11.1l15.9 2.7-20.5 1.6s-8 2.7 3.7 5.9 4.8 2.4 4.8 2.4-13.8-.3-10.1 5l-30.4 35.6z"/><path d="M420.5 454.1 452.8 556s-.9 13.8 13.7 13.3c0 0-24.8 28.2 10.8 52.7 0 0-40.1 33.9-59.6-5.3 0 0-45.2-85.2-48.4-149.6 0 0 10.1-31.9 32.5-29 8.8 1.1 16 7.5 18.7 16z" style="fill:#e28e07"/></g><path class="st19" d="M173.8 702.4h676.3v4.8H173.8z"/><g><g class="st22"><path class="st11" d="M385.1 747.5c-4.7-1.5-9.3-3-14-4.3-4.7-1.4-9.4-2.7-14.1-3.9-9.5-2.4-19-4.6-28.6-6.1-4.8-.8-9.6-1.5-14.5-1.9-4.9-.5-9.7-.7-14.6-.7s-9.7.3-14.5 1.1c-4.8.7-9.6 1.9-14.1 3.9 4.3-2.3 9.1-3.7 13.9-4.7 4.8-.9 9.7-1.4 14.7-1.5 9.8-.2 19.7.8 29.4 2.3 4.8.8 9.7 1.8 14.4 2.9 4.8 1.1 9.6 2.2 14.3 3.6 4.7 1.3 9.4 2.8 14.1 4.3 4.5 1.6 9.1 3.2 13.6 5z"/></g><path class="st12" d="M271.5 743.6c-4.9 6.2-17 11.1-43.8 10.5 0 0-27.2-18.6 31.9-29.7 10.8-2 18.7 10.5 11.9 19.2z"/><path class="st23" d="M273.8 736.5s-25.5-28.8-48.7 21c0 0 10.5 29.1 48.7-21z"/><path class="st12" d="M276 737.6s-25.5-28.8-48.7 21c0-.1 10.5 29.1 48.7-21z"/></g><g><g class="st22"><path class="st11" d="M416.6 759.6c-4.9-.5-9.7-1-14.6-1.4-4.9-.4-9.8-.7-14.6-.9-9.8-.4-19.5-.6-29.3-.1-4.9.2-9.7.5-14.6 1.1-4.8.5-9.7 1.3-14.4 2.3-4.8 1-9.5 2.3-14 4-4.6 1.7-9 3.9-13 6.7 3.8-3.1 8.2-5.5 12.7-7.4 4.5-1.9 9.3-3.3 14-4.5 9.6-2.2 19.4-3.2 29.2-3.7 4.9-.2 9.8-.2 14.7-.1 4.9.1 9.8.2 14.7.6 4.9.3 9.8.8 14.6 1.3 4.9.6 9.8 1.2 14.6 2.1z"/></g><path class="st14" d="M336.1 757.6s-2.7.8-6.1 3.1c-6.7 4.5-15.9 14.9-11.3 36.5 0 0 17.4-10.4 13.9-26.9-3.5-16.6 3.5-12.7 3.5-12.7z"/><path d="M309.1 778c-3.9 4.9-13.4 8.8-34.7 8.3 0 0-21.5-14.7 25.3-23.5 8.5-1.6 14.8 8.4 9.4 15.2z" style="fill:#ff4b50"/><path class="st23" d="M310.9 772.4s-20.2-22.8-38.5 16.6c0 0 8.2 23.1 38.5-16.6z"/><path class="st10" d="M312.7 773.3s-20.2-22.8-38.5 16.6c-.1 0 8.2 23 38.5-16.6z"/></g><g><g class="st22"><path class="st11" d="M303.8 713.5c4.6 1.1 9.1 2.1 13.7 3.1s9.1 2 13.7 2.9c9.2 1.8 18.3 3.6 27.6 5 9.2 1.5 18.5 2.7 27.8 3.5 4.6.4 9.3.7 14 .7 4.7.1 9.3 0 14-.4-9.3 1.5-18.7 1.5-28 .9-9.4-.5-18.7-1.7-27.9-3.2l-13.8-2.4c-4.6-.9-9.2-1.9-13.7-2.9-9.4-2.1-18.4-4.5-27.4-7.2z"/></g><path class="st14" d="M344.2 722.7s-3.3-1-7.4-3.8c-8.2-5.6-19.5-18.3-13.8-44.6 0 0 21.3 12.7 17 32.9s4.2 15.5 4.2 15.5z"/><path class="st10" d="M302.1 700.7c-4.1-6.7-15.5-13.1-42.3-15.7 0 0-29.2 15.2 28.1 33.3 10.6 3.3 19.9-8.2 14.2-17.6z"/><path class="st23" d="M303.5 708s-28.8 25.6-45.8-26.6c0 0 13.9-27.7 45.8 26.6z"/><path class="st10" d="M305.9 707.2s-28.8 25.6-45.8-26.6c0 0 13.8-27.7 45.8 26.6z"/></g><g><g class="st22"><path class="st11" d="M777.1 720.8c-6.1-.1-14.7-1.9-20.8-1.7-6.1.2-12.1.5-18.2.9-12.1.9-24.2 2.1-36.2 4.1-6 .9-12 2.1-17.9 3.5-3 .7-5.9 1.5-8.8 2.2-1.5.4-2.9.9-4.4 1.3-1.5.4-2.9.9-4.3 1.3-2.9.9-5.7 2-8.6 3l-4.2 1.7c-1.4.6-2.8 1.3-4.1 1.9-5.5 2.6-10.8 5.6-15.7 9.1 9.6-7.6 20.8-12.9 32.3-16.9 5.8-2 11.6-3.7 17.6-5.1 5.9-1.4 11.9-2.6 17.9-3.6 12-1.9 24.2-3.2 36.4-3.8 12.1-.4 26.9 1.3 39 2.1z"/></g><path class="st14" d="M738.7 720.4s2.3.1 5.5 1.1c6.2 2 15.5 7.8 15.6 24.1 0 0-15.9-4.2-16-16.8-.2-12.5-5.1-8.4-5.1-8.4z"/><path class="st10" d="M764.3 723c4.9 4.4 16.3 7.1 40.5 3.6 0 0 22.9-18.1-31.4-20.4-9.9-.4-16 10.6-9.1 16.8z"/><path class="st13" d="M761.6 717.6s20.5-26.1 45.7 11.5c.1 0-6.8 24.7-45.7-11.5z"/><path class="st10" d="M759.7 718.6s20.5-26.1 45.7 11.5c.1.1-6.8 24.8-45.7-11.5z"/></g><g><g class="st22"><path class="st11" d="M649.9 746.4c7-3.6 14.6-6.2 22.4-7.8 7.8-1.6 15.8-2.2 23.8-1.6 4 .4 7.9.9 11.8 1.9 1 .2 1.9.5 2.9.8 1 .3 1.9.6 2.8.9.9.3 1.9.7 2.8 1l2.7 1.2c7.3 3.2 13.9 7.9 19.6 13.3-3.1-2.4-6.2-4.9-9.6-6.9-3.3-2.1-6.9-3.8-10.5-5.4-7.2-3-14.9-4.8-22.7-5.4-3.9-.3-7.8-.3-11.7-.1-3.9.2-7.8.7-11.7 1.4-3.9.7-7.7 1.6-11.5 2.7s-7.5 2.4-11.1 4z"/></g><g class="st22"><path class="st11" d="M694.3 739.2c2.6 1.1 4.9 2.7 7.1 4.5 2.2 1.8 4.1 4 5.6 6.5.7 1.3 1.3 2.6 1.6 4.1.3 1.4.4 3 .1 4.4-.5 2.9-2.3 5.4-4.4 7.2 1.6-2.3 3-4.7 3.2-7.4.3-2.6-.5-5.2-1.8-7.5s-3.1-4.4-5-6.3c-2.1-2-4.2-3.8-6.4-5.5z"/></g><g class="st22"><path class="st11" d="M722.6 745.1c1.3-.6 2.6-1 3.9-1.4 1.3-.4 2.6-.7 4-1 1.3-.3 2.7-.5 4.1-.7 1.4-.2 2.7-.3 4.1-.2-1.3.6-2.6 1-3.9 1.4-1.3.4-2.6.7-4 1-1.3.3-2.7.5-4.1.6-1.3.2-2.7.4-4.1.3z"/></g></g><path class="st7" d="M364.5 704.8 521 737.1V752s-175.7 29.8-176.8 26.6c-1.1-3.2 20.3-73.8 20.3-73.8z"/><path class="st4" d="m265.4 294.5-2.6 24.3-4.6 42.4-.5 4.2h-23.2l-.6-4.2-5.6-42.4-3.2-24.3z"/><g><path class="st4" d="M241.4 321.4c-.4 0-.7-.3-.8-.7l-8.5-67.5c-.1-.4.2-.8.7-.9.4-.1.8.2.9.7l8.5 67.5c0 .5-.3.8-.8.9.1 0 0 0 0 0z"/></g><g><path class="st4" d="M245.3 310.8c-.4 0-.8-.3-.8-.8v-78.4c0-.4.3-.8.8-.8.4 0 .8.3.8.8V310c-.1.4-.4.8-.8.8z"/></g><g><path class="st4" d="M250.5 308.6h-.2c-.4-.1-.7-.5-.6-.9l6.9-33c.1-.4.5-.7.9-.6.4.1.7.5.6.9l-6.9 33c0 .4-.4.6-.7.6z"/></g><g><path class="st4" d="M257.4 312.9h-.1c-.4-.1-.7-.5-.7-.9 2.7-18.7 12.6-29.6 13-30.1.3-.3.8-.3 1.1 0 .3.3.3.8 0 1.1-.1.1-10 11.1-12.6 29.3 0 .3-.3.6-.7.6z"/></g><g><path class="st4" d="M233.7 306c-.2 0-.5-.1-.6-.3-18.2-24.1-8-46.8-7.9-47.1.2-.4.6-.6 1-.4.4.2.6.6.4 1-.1.2-9.9 22.2 7.7 45.5.3.3.2.8-.2 1.1-.1.1-.3.2-.4.2z"/></g><g><path class="st4" d="M222.2 273.2c-.3 0-.5-.1-.7-.4l-4.2-7c-.2-.4-.1-.8.3-1.1.4-.2.8-.1 1.1.3l4.2 7c.2.4.1.8-.3 1.1-.1.1-.3.1-.4.1z"/></g><g><path class="st4" d="M225.1 289.7c-.2 0-.3-.1-.5-.2l-13.5-10.9c-.3-.3-.4-.8-.1-1.1.3-.3.8-.4 1.1-.1l13.5 10.9c.3.3.4.8.1 1.1-.1.2-.3.3-.6.3z"/></g><g><path class="st4" d="M211.6 287.3c-.3 0-.6-.2-.7-.4-.2-.4 0-.8.4-1l6.4-3.1c.4-.2.8 0 1 .4.2.4 0 .8-.4 1l-6.4 3.1h-.3z"/></g><circle class="st10" cx="232.9" cy="241.8" r="11.4"/><circle class="st10" cx="259.4" cy="265.4" r="11.4"/><circle class="st10" cx="275.4" cy="277.7" r="8.2"/><circle class="st10" cx="245.3" cy="218.9" r="14.9"/><path style="fill:#a7a9ac" d="m262.8 318.8-4.6 42.4h-24.3l-5.6-42.4z"/><g><path class="st26" d="M228.7 319.9h33.9v1.4h-33.9zM229.2 324.1H262v1.4h-32.8zM229.5 328.4h32.1v1.2h-32.1zM230.4 332.6h30.4v1.4h-30.4zM230.9 336.9h29.8v1.4h-29.8zM231.5 341.2h28.8v1.4h-28.8zM232.1 345.4h27.8v1.4h-27.8zM232.5 349.7h26.7v1.4h-26.7zM233.2 353.9H259v1.4h-25.8zM233.7 358.2h24.8v1.4h-24.8z"/></g><path class="st4" d="M223.6 294.1h43.1v3.2h-43.1zM278.1 288.9h86.4v2.4h-86.4z"/><g><path class="st4" d="M278.1 288.9H364s-10.2 9.6-10.2 28.8c0 19.2-7.7 31.6-22 33.9l.2 10.9 20.7.4v8.2h-62.5l1.2-9 20.7-.4.8-10.4s1.5 0-9.2-4.3c-10.8-4.3-18.5-16.5-13.6-45.2l-12-12.9z"/><path class="st5" d="M321 346.7v-52.2M325.4 346.7s14.3.3 12.4-28.8c-1.8-29.1 6.6-23.4 6.6-23.4M334.9 346.7s16-4.3 14-29.3 4.5-23.3 4.5-23.3M316.5 346.7s-13.9-2.7-12.3-32.5c0 0 1.1-15-6.9-20.2M306.9 346.7s-17-11.2-15.4-26.1c1.6-14.9 4-24.5-.1-26.1"/><g><path class="st14" d="M278.1 287.3s-11.8-10.1 0-23.4c0 0-21.2-5.3-17.5-25.6 3.7-20.2-5.3-34.1 4.8-35.7 10.1-1.6 17.6 2.1 17.6 2.1s4.2-33.5 22.9-29.3c18.6 4.3 19.2 3.7 21.3 8 2.1 4.3 20.8-4.8 29.3 17.6 8.5 22.4 0 18.6 0 18.6s25.6-6.9 28.2 22.4l2.1 10.1s10.1 10.7-2.7 20.2-11.7 2.1-11.7 2.1 10.8 7.5-8.4 12.8c-19.3 5.4-85.9.1-85.9.1z"/><path class="st7" d="M343.7 246.2s-.9-19.6-18.3-7.9c-17.4 11.7-11.5 24-11.5 24s7.5 15.4 23.4 9.6c0 0 5.3-1.1 6.4-9.1 0 0 11.7-9.8 0-16.6z"/><path class="st8" d="M313.3 256.3s5.4-18.4 18.3-16.8 3.6 14.9 3.6 14.9-11.3 8.4-21.9 1.9z"/><path class="st8" d="M314.4 257.6s16.1-10.5 24.8-.9-7 13.7-7 13.7-13.9-1-17.8-12.8z"/><path class="st7" d="M315 258s9.3-16.8 21.5-12.4.2 15.4.2 15.4-12.8 5.7-21.7-3z"/><path class="st8" d="M365.6 257.5s15.4 2.1 21.2-5.4l-4.2-19.8s-12.6-12.2-17-3.1c0 0-15-3.6-11.8 12.6 3.2 16.2 11.8 15.7 11.8 15.7z"/><path class="st7" d="M365.6 248.9s-4.3-17.6 4.5-16.5c8.7 1.1 16.2 2.9 11.9 9.5-4.3 6.6-16.4 15.7-16.4 15.7v-8.7zM318.6 224.8s29.5 3.7 34.7-22.9c0 0-3.3-14.8-22.5-14.6 0 0-25-15.7-30.9-2.4-5.8 13.3-3.1 32.4 18.7 39.9z"/><path class="st8" d="M320.6 216s-5.2-32.2 11.2-28.5 19.6 12.9 8.9 20.8c-10.6 7.9-21.4 12.6-21.4 12.6l1.3-4.9z"/><path class="st8" d="M315.4 217.3s-22.9-23.2-7.4-29.8c15.5-6.6 23.5-.8 19.3 11.7s-10.1 22.6-10.1 22.6l-1.8-4.5z"/><path class="st7" d="M290.9 228.4s-12.3-28.1-30.1-10V237s-2.4 16.5 4.6 21.7c6.9 5.3 29.8-8.7 25.5-30.3z"/><path class="st8" d="M288.1 229.9s-12.2 15.9-24.6 3.6c0 0-4.9-20 10.7-14.5s13.9 10.9 13.9 10.9z"/><path class="st8" d="M287.6 236s-3.5 19.7-20.1 14.6c0 0-13.6-15.4 2.7-17.8s17.4 3.2 17.4 3.2z"/><path class="st7" d="M275.9 259.7s28.8-10.2 23.5 15.9c0 0-8.7 16.5-21.4 11.7 0 0-10.2-11.2 0-23.4l-2.1-4.2z"/><path class="st8" d="M294.7 275.6 276 273s-1.1-14.9 9.4-10.1c10.3 4.7 9.3 12.7 9.3 12.7z"/><path class="st8" d="m294.7 270.7-18.7 2.6s-1.1 14.9 9.4 10.1c10.3-4.7 9.3-12.7 9.3-12.7z"/><path class="st7" d="M317.5 216.1s-12.6-28.7 4.3-28.9c16.9-.3 22.1 7.6 13.5 17.3-8.5 9.6-17.8 16.4-17.8 16.4v-4.8zM293 271.5s-4.6 11-13.6 5.8c0 0-5.8-10.8 4-10 9.7.8 9.6 4.2 9.6 4.2z"/></g></g><circle class="st4" cx="217.2" cy="262.9" r="2.9"/><circle class="st4" cx="226.1" cy="256.6" r="3.3"/><circle class="st4" cx="209.8" cy="277.3" r="3.2"/><circle class="st4" cx="209.3" cy="287.7" r="2.7"/><path style="fill:#d1d3d4" d="M592.6 179.5h196.3v154.7H592.6z"/><path class="st7" d="M599.3 184.7h182.9v144.2H599.3z"/><path class="st8" d="M622.8 203.3h135.9v107.1H622.8z"/><g><path transform="rotate(-51.757 611.053 194.019)" class="st8" d="M610.7 179h.8v30h-.8z"/></g><g><path transform="rotate(-38.259 770.453 194.032)" class="st8" d="M755.5 193.6h30v.8h-30z"/></g><g><path transform="rotate(-51.757 770.46 319.649)" class="st8" d="M770.1 304.7h.8v30h-.8z"/></g><g><path class="st8" d="m599.5 329.2-.5-.6c7.9-6.1 23.4-18.4 23.5-18.5l.5.6c-.1.1-15.6 12.4-23.5 18.5z"/></g><g><path class="st28" d="M688 260.6c2.1-.6 4.1-1.4 6.1-2.3l1.5-.7 1.4-.8c1-.5 1.9-1.1 2.8-1.6 3.6-2.3 7-5 10.1-7.9l2.3-2.2c.8-.7 1.4-1.6 2.2-2.4 1.5-1.5 2.8-3.3 4.2-4.9.7-.8 1.3-1.7 2-2.6l2-2.6c1.2-1.8 2.4-3.6 3.7-5.4-.9 2-1.8 4-2.8 6-1.1 1.9-2.2 3.8-3.4 5.6-1.3 1.8-2.5 3.6-4 5.3-.7.8-1.4 1.7-2.2 2.5l-2.4 2.4c-.4.4-.8.8-1.2 1.1l-1.3 1.1-1.3 1.1-1.3 1c-.9.6-1.8 1.3-2.8 1.9-1 .6-1.9 1.2-2.9 1.7s-2 1-3 1.4l-1.5.6-1.6.5c-2.2.6-4.4 1.1-6.6 1.2z"/><path class="st28" d="M723.1 253.3c-1.2-.9-2.4-1.6-3.6-2.1-1.2-.5-2.4-.8-3.7-1-1.3-.1-2.6-.1-3.9 0-.7 0-1.3.2-2.1.2-.7.1-1.4.2-2.2.3.6-.5 1.2-.9 1.8-1.3.7-.3 1.3-.7 2.1-.9 1.4-.5 3-.7 4.6-.5 1.6.2 3.1.8 4.3 1.7 1.3.9 2.3 2.2 2.7 3.6z"/><ellipse transform="rotate(-56.796 726.162 227.353)" class="st28" cx="726.2" cy="227.3" rx="4.6" ry="2.5"/><ellipse transform="rotate(-3.542 724.545 235.955) scale(1.00001)" class="st28" cx="724.5" cy="236" rx="3.6" ry="2.5"/><ellipse transform="rotate(-78.749 719.115 231.461)" class="st28" cx="719.1" cy="231.5" rx="3.6" ry="2.5"/></g><g><path class="st28" d="M689.8 257.4c-2.2-.4-4.2-1-6.3-1.7l-1.5-.5-1.5-.6c-1-.4-2-.9-2.9-1.3-3.8-1.9-7.5-4.2-10.9-6.8l-2.5-2-2.4-2.1c-1.7-1.4-3.1-3-4.7-4.4-.8-.7-1.5-1.6-2.2-2.4l-2.2-2.4c-1.4-1.6-2.8-3.3-4.3-4.9 1.1 1.9 2.2 3.8 3.4 5.6 1.3 1.8 2.5 3.6 4 5.3 1.4 1.7 2.9 3.3 4.5 4.8.8.8 1.6 1.5 2.4 2.2l2.6 2.1c.4.4.9.7 1.3 1l1.4.9 1.4.9 1.4.8c1 .5 1.9 1.1 2.9 1.6s2 1 3 1.3c1 .4 2.1.8 3.1 1.1l1.6.5 1.6.4c2.4.5 4.6.8 6.8.6z"/><path class="st28" d="M654.1 253.9c1.1-1 2.2-1.8 3.3-2.4 1.1-.6 2.3-1.1 3.6-1.4 1.2-.3 2.5-.4 3.9-.4h2.1c.7 0 1.4.1 2.2 0-.6-.4-1.3-.8-1.9-1.1-.7-.3-1.4-.5-2.1-.7-1.5-.3-3.1-.3-4.6 0-1.5.4-3 1.1-4.1 2.2-1.3.9-2.2 2.3-2.4 3.8z"/><ellipse transform="rotate(-39.204 648.383 228.32)" class="st28" cx="648.4" cy="228.3" rx="2.5" ry="4.6"/><ellipse transform="rotate(-2.458 650.904 236.781) scale(1.00002)" class="st28" cx="650.9" cy="236.8" rx="3.6" ry="2.5"/><ellipse transform="rotate(-17.254 655.688 231.683)" class="st28" cx="655.8" cy="231.7" rx="2.5" ry="3.6"/></g><g><path class="st28" d="M678.5 245.1s-13.3-13.3-8.7-25.9c0 0 15.3.7 18.6 17.3 0 0 4.6 6.5 6 0 1.3-6.3 5.2-13.4 15.9-12.6 0 0 7.3 9.3-10.6 25.2 0 0 3.4-2.3 11.4 3.6 8 6 11.1 11 9.2 18.9-.8 3.5-16.2 4-24.4-8 0 0 3.1 21.9-10.1 25.2 0 0-12.5-11.5-4.6-25.2 0 0 2-4.3-5.3-3.5-7.3.8-18.6.8-22.6-6.1-.1.1 15.2-14.2 25.2-8.9z"/><circle class="st7" cx="690" cy="251.7" r="3.8"/></g><g><path class="st28" d="m237.5 616.5-.8-.1c.2-1.3 15.5-125.3-15.6-150.4l.5-.6c13.2 10.6 19.9 39.3 19.9 85.2 0 34.2-3.9 65.6-4 65.9z"/></g><g><path class="st28" d="M227.9 605.1c0-.2-4.3-22.4-4.4-47.4-.1-23.1 3.6-53.5 21.3-66.7l.5.6c-33.5 25-16.8 112.4-16.7 113.3l-.7.2z"/></g><path class="st7" d="M190.5 441.7s15.8 6 20.3 19 16.9 5.7 12.1-5.2c0 0-13.6-20.1-11-30.4l-5.4 3.9-6.2-6.9v12.3l-9.9-2.1 5 9.1-4.9.3zM194.6 521.9s10.2 1.7 14.4 8.9c4.2 7.2 10.8 1.4 6.6-4.5 0 0-10.5-10.4-10.1-16.9l-2.8 3-4.5-3.4 1.4 7.3-6.2-.1 4 4.8-2.8.9zM278.8 477.2s-15.4.9-22.8 10.9-16.2.3-9.1-7.8c0 0 17.2-13.8 17.8-23.4l3.7 4.9 7.2-4.3-3.3 10.6 9.2.9-6.8 6.5 4.1 1.7zM239.8 548.3s1.3.2 3.2-.1c3.8-.7 10-3.7 13.3-15.2 0 0-9.5 1.2-12.1 10-2.5 8.8-4.4 5.3-4.4 5.3z"/><path class="st8" d="M240 517.6s1.1-.7 2.4-2.2c2.5-3 5.4-9.3.6-20.2 0 0-6.6 7-3 15.4 3.6 8.5 0 7 0 7z"/><path class="st7" d="M229.7 478.9s1.2-.5 2.7-1.7c3-2.5 6.9-8.2 4.1-19.8 0 0-7.7 5.7-5.6 14.6 2.2 8.9-1.2 6.9-1.2 6.9zM227.1 518.6s.7-1.1 1.1-3c.9-3.8.6-10.7-8.6-18.3 0 0-2.7 9.2 4.3 15.1 7.2 5.9 3.2 6.2 3.2 6.2z"/><path class="st8" d="M223.7 580.3s1.3.2 3.2-.1c3.8-.7 10-3.7 13.3-15.2 0 0-9.5 1.2-12.1 10-2.5 8.7-4.4 5.3-4.4 5.3z"/><g><path class="st28" d="M244.8 605.4c-.8-30.5-9-48.3-15.7-58-7.2-10.4-14.4-13.7-14.5-13.8l.3-.7c.3.1 7.4 3.4 14.7 14 6.8 9.7 15 27.8 15.8 58.5h-.6z"/></g><path class="st28" d="M222.2 591.1h29.4V702h-29.4z"/><path style="fill:#bcbec0" d="M200.4 365.4h165.2v22.7H200.4z"/></svg>