<svg version="1.1" id="Layer_1" xmlns="http://www.w3.org/2000/svg" x="0" y="0" viewBox="0 0 1000 702.2" style="enable-background:new 0 0 1000 702.2" xml:space="preserve"><style>.st0{opacity:.48;fill:#b68ce0}.st4{fill:#f1f2f2}.st6{display:inline}.st7{fill:#6d9dcc}.st8{fill:#fff}.st9{fill:#a3d8ca}.st10{fill:#5da08d}.st11{fill:#356fb6}.st16{opacity:.85}.st18{fill:#151616}.st19{fill:#262626}.st20{fill:#feb5a6}.st21{fill:#ffaa01}.st23{fill:#fca7ae}</style><path class="st0" d="M90.6 636.9S5.3 566 39.3 458.1s57.5-117.8 37.9-155.9S-7.2 181.7 60.9 134s85.2-120.6 216.7-68.4c0 0 134.9 45.6 194.7 0s188.1-98.9 250.7-23 80 95.4 135.1 95.7 100.1 57.1 88.6 115.1c-11.5 58-46.1 135.5-14.6 173.8 31.5 38.4 50.4 90.7 25.2 136.3-25.2 45.5-71 69.4-71 69.4l-795.7 4z"/><ellipse class="st0" cx="494.2" cy="646.1" rx="411.4" ry="47.1"/><path style="fill:#e6e7e8" d="M424.5 303.2 322 324.8l-44.5 9.3-107 22.6-39.9-139.5 106.1-22.8 46-9.9 112.4-24.1z"/><path style="fill:#c5dae8" d="m322 324.8-44.5 9.3-40.8-139.7 46-9.9z"/><path transform="rotate(-11.678 263.93 183.231)" style="fill:#9ac1e2" d="M111.7 163.1h304.5v40.3H111.7z"/><path class="st4" d="M363.6 108.6c-16.6 15.5-37.6 30.5-49.9 39-6.3 4.3-10.3 6.9-10.3 6.9l-3.3.5c4.7-3.5 18.2-20.1 33.2-35.6 12.4-12.9 15-22.6 11.1-27.6-1.7-2.2-3.3-4.6-4.6-7.3-4.2-8.2-10.8-10.4-17.3-10-10.4.6-19.3 7.6-22.9 17.4L275.2 158l13.4-1.2-24.7 3.7 32-94.5s36.3-22.4 57.8.4c2.8 2.9 5.9 5.6 9.2 7.9 7.7 5.3 18.9 17.4.7 34.3z"/><path class="st4" d="m318.7 141.5 67-27.7-8.1 16.8 10 6.5-84.2 17.4zM153.4 140.8c20.1 10.7 44.2 19.9 58.2 24.9 7.2 2.6 11.8 4 11.8 4l3.3-.4c-5.4-2.1-22.8-14.8-41.2-25.9-15.3-9.2-20.3-18-17.8-23.9 1.1-2.6 2-5.3 2.6-8.2 1.9-9 7.8-12.8 14.1-14.1 10.2-2.1 20.6 2.4 26.6 10.9l40.6 57.6-13.3 2.3 24.9-2.8-55.1-83.1s-40.8-12.4-55.8 15.2c-1.9 3.6-4.2 6.9-6.8 10-6.2 7.3-14 21.9 7.9 33.5z"/><path class="st4" d="m205.3 161.1-71.8-11.8 18.9 16.4-14.8 21.4 85.8-17.3z"/><path d="M140 289.5s-7.3-43 29.4-43 618.4-13.6 618.4-13.6 37.8-1 34.6 39.9l-6.3 356.9s0 21-21 18.9l-629.9.1s-25.8.2-19.9-31.6L140 289.5z" style="fill:#ff505b"/><path d="M159.4 298.1s-6.9-40.6 27.7-40.6 583.2-12.9 583.2-12.9 35.6-1 32.7 37.6l-5.9 336.7s0 19.8-19.8 17.8l-594.1.1s-24.3.2-18.8-29.8l-5-308.9z" style="opacity:.15;fill:#e9e9f4"/><g class="st16"><path class="st8" d="M492.8 365.9H192.5c-5.1 0-9.2-4.1-9.2-9.2s4.1-9.2 9.2-9.2h300.3c5.1 0 9.2 4.1 9.2 9.2s-4.2 9.2-9.2 9.2z"/></g><g class="st16"><path class="st8" d="M336.3 411H192.5c-5.1 0-9.2-4.1-9.2-9.2s4.1-9.2 9.2-9.2h143.8c5.1 0 9.2 4.1 9.2 9.2s-4.1 9.2-9.2 9.2z"/></g><path class="st8" d="M265.9 478.9c0 35.5-18.6 53.1-40.4 53.1-21 0-39.1-16.8-39.4-50.8 0-33.7 18.4-52.6 40.7-52.6 23.5 0 39.1 18.2 39.1 50.3zm-61.7 1.5c-.5 21.5 7.5 37.8 21.8 37.8 15 0 21.8-16.1 21.8-38.3 0-20.5-6-37.6-21.8-37.6-14.2 0-21.8 16.9-21.8 38.1zm19.7 122.3 98.9-174h14.5l-98.9 174h-14.5zm151.5-54.2c0 35.5-18.6 53.1-40.1 53.1-21 0-39.1-16.8-39.4-50.5 0-33.9 18.4-52.8 40.7-52.8 23.5 0 38.8 18.1 38.8 50.2zm-61.6 1.6c-.3 21.5 8 37.8 22 37.8 15 0 21.8-16.1 21.8-38.3 0-20.5-6-37.6-21.8-37.6-14.2 0-22 16.8-22 38.1zM784.1 526.8c0-1.7-1.1-168.5 0-215.2 1-46.1-36.9-49.8-37.3-49.8L308 270.1V269l438.8-8.4c.5 0 39.4 3.7 38.4 51-1 46.7 0 213.5 0 215.2h-1.1z"/><path d="m748.6 594.6-229.2 1.1c-2.1 0-3.9-1.7-3.9-3.9l-.1-57.1c0-2.1 1.7-3.8 3.7-3.9l227-8.2c2.1-.1 3.9 1.6 4 3.7l2.3 64.1c.2 2.3-1.6 4.2-3.8 4.2z" style="fill:none;stroke:#151616;stroke-width:2;stroke-miterlimit:10"/><path transform="matrix(.9994 -.0359 .0359 .9994 -19.849 19.555)" class="st18" d="M532.6 545.2h3.9v34.6h-3.9z"/><path transform="matrix(.9994 -.0359 .0359 .9994 -19.833 19.841)" class="st18" d="M539.2 544.9h6.8v34.6h-6.8z"/><path transform="matrix(.9994 -.0359 .0359 .9994 -19.8 20.453)" class="st18" d="M554.4 544.3h10.5v34.6h-10.5z"/><path transform="matrix(.9994 -.0359 .0359 .9994 -19.818 20.119)" class="st18" d="M548.6 544.6h3.4v34.6h-3.4z"/><path transform="matrix(.9994 -.0359 .0359 .9994 -19.577 24.599)" class="st18" d="M673.2 540.1h3.9v34.6h-3.9z"/><path transform="matrix(.9994 -.0359 .0359 .9994 -19.561 24.885)" class="st18" d="M679.7 539.8h6.8v34.6h-6.8z"/><path transform="matrix(.9994 -.0359 .0359 .9994 -19.528 25.497)" class="st18" d="M695 539.2h10.5v34.6H695z"/><path transform="matrix(.9994 -.0359 .0359 .9994 -19.547 25.163)" class="st18" d="M689.2 539.5h3.4v34.6h-3.4z"/><path transform="matrix(.9994 -.0359 .0359 .9994 -19.515 25.755)" class="st18" d="M705.5 538.9h3.9v34.6h-3.9z"/><path transform="matrix(.9994 -.0359 .0359 .9994 -19.5 26.042)" class="st18" d="M712 538.7h6.8v34.6H712z"/><path transform="matrix(.9994 -.0359 .0359 .9994 -19.466 26.654)" class="st18" d="M727.2 538h10.5v34.6h-10.5z"/><path transform="matrix(.9994 -.0359 .0359 .9994 -19.484 26.32)" class="st18" d="M721.4 538.4h3.4V573h-3.4z"/><path transform="matrix(.9994 -.0359 .0359 .9994 -19.78 20.824)" class="st18" d="M568 543.9h3.9v34.6H568z"/><path transform="matrix(.9994 -.0359 .0359 .9994 -19.765 21.11)" class="st18" d="M574.5 543.6h6.8v34.6h-6.8z"/><path transform="matrix(.9994 -.0359 .0359 .9994 -19.732 21.722)" class="st18" d="M589.7 543h10.5v34.6h-10.5z"/><path transform="matrix(.9994 -.0359 .0359 .9994 -19.75 21.388)" class="st18" d="M584 543.3h3.4v34.6H584z"/><path transform="matrix(.9994 -.0359 .0359 .9994 -19.713 22.077)" class="st18" d="M602.9 542.6h3.9v34.6h-3.9z"/><path transform="matrix(.9994 -.0359 .0359 .9994 -19.697 22.363)" class="st18" d="M609.5 542.3h6.8v34.6h-6.8z"/><path transform="matrix(.9994 -.0359 .0359 .9994 -19.664 22.975)" class="st18" d="M624.7 541.7h10.5v34.6h-10.5z"/><path transform="matrix(.9994 -.0359 .0359 .9994 -19.682 22.64)" class="st18" d="M618.9 542.1h3.4v34.6h-3.4z"/><path transform="matrix(.9994 -.0359 .0359 .9994 -19.644 23.346)" class="st18" d="M638.3 541.4h3.9V576h-3.9z"/><path transform="matrix(.9994 -.0359 .0359 .9994 -19.629 23.632)" class="st18" d="M644.8 541.1h6.8v34.6h-6.8z"/><path transform="matrix(.9994 -.0359 .0359 .9994 -19.596 24.244)" class="st18" d="M660 540.5h10.5v34.6H660z"/><path transform="matrix(.9994 -.0359 .0359 .9994 -19.614 23.91)" class="st18" d="M654.3 540.8h3.4v34.6h-3.4z"/><path class="st19" d="M711.7 655.6s2.4 2.1 8.9 0c6.6-2.1 8.9-5.5 8.9-5.5s5.5 5.2 4.7 10.2l-29.1 1.8c0 .1-4.2-2.8 6.6-6.5zM771.2 656.7s8.6 1 10.2-5.5-5.2-15 2.4-19.4c0 0 4.2.3 4.1 3.4-.2 3.1-4.4 16.5-4.1 21 0 0-.5 4.5-9.7 4.2l-9.2-.3s1.4-3.9 6.3-3.4z"/><path class="st20" d="m701.4 556 20.5 92.7-11.8 8s8 3.7 13.2 1.3 9.2-5.8 9.2-5.8l-2.9-2.1-4.2-60.9V552l-24 4zM734.2 555.4l13.4 29.7s5.2 13.9 9.4 20.3l12.9 23s5.4 6.8 4.1 17.1c0 0 1.6 8.9-2.8 11.3 0 0 8.1 4.2 11.3-3.4l1.3-20.2s0-.5-2.6-.8c0 0-5.2-25.2-8.7-31 0 0-4.5-10.5-10.2-16.3 0 0-3.7-6.8-4.5-9.4l-8.4-30.4-15.2 10.1z"/><path class="st21" d="m470.1 107.9 34.1 8.3c1.7.4 3.5 0 4.8-1.2l26.2-23.4c3.3-2.9 8.5-.8 8.8 3.6l2.7 35c.1 1.7 1.1 3.3 2.6 4.2l30.4 17.7c3.8 2.2 3.4 7.8-.7 9.5L546.5 175c-1.6.7-2.8 2.1-3.2 3.8L536 213c-.9 4.3-6.4 5.7-9.2 2.3L504 188.6c-1.1-1.3-2.8-2-4.6-1.8l-35 3.5c-4.4.4-7.4-4.3-5.1-8.1l18.5-29.9c.9-1.5 1-3.3.3-4.9L464 115.2c-1.8-4 1.8-8.4 6.1-7.3z"/><path class="st7" d="m625.8 129.7 14.6 3.5c.7.2 1.5 0 2-.5l11.2-10c1.4-1.3 3.6-.4 3.8 1.5l1.1 14.9c.1.7.5 1.4 1.1 1.8l12.9 7.5c1.6.9 1.5 3.3-.3 4.1l-13.9 5.7c-.7.3-1.2.9-1.4 1.6l-3.2 14.6c-.4 1.8-2.7 2.4-3.9 1l-9.7-11.4c-.5-.6-1.2-.9-2-.8l-14.9 1.5c-1.9.2-3.1-1.8-2.2-3.4l7.9-12.7c.4-.6.4-1.4.1-2.1l-6-13.7c-.6-1.7 1-3.6 2.8-3.1z"/><path class="st8" d="m605.6 57.4 10.2 2.5c.5.1 1 0 1.4-.4l7.8-7c1-.9 2.5-.2 2.6 1.1l.8 10.4c0 .5.3 1 .8 1.2l9 5.3c1.1.7 1 2.3-.2 2.8l-9.7 4c-.5.2-.8.6-.9 1.1l-2.2 10.2c-.3 1.3-1.9 1.7-2.8.7l-6.8-8c-.3-.4-.8-.6-1.4-.6l-10.4 1.1c-1.3.1-2.2-1.3-1.5-2.4l5.5-8.9c.3-.4.3-1 .1-1.5l-4.2-9.6c-.4-1 .6-2.3 1.9-2z"/><path d="M300.2 155c-.7.5-1.1.8-1.1.8l-10.4.9 11.5-1.7z" style="fill:#fff;stroke:#fff;stroke-miterlimit:10"/><path class="st23" d="M723 403.2s-13.7-6.8-22.1-15.9c0 0-16.5-19.2-17.8-27.5-.9-6-5.8-17.6-1.1-20.5 4.7-2.9 4.5-4.8 4.5-4.8s-3.1-1.2-5.7.7-7.4-.2-7.9-4.4-8.5-13.8-11.9-8.6c-3.4 5.2.4 13.7 3.7 17.5 4.6 5.4 7.8 11.2 8.5 16.7.6 5.5 7.1 27.7 10.7 34.1 3.7 6.5 22.3 34.4 33 35.5l6.1-22.8z"/><ellipse transform="rotate(-60 720.851 381.308)" class="st23" cx="720.8" cy="381.3" rx="19.4" ry="14.5"/><path class="st21" d="m717.4 413.7-26.8-4.5-10 24.5 4.7 3.3s-3.3 10.1 1.6 14c4.9 3.8 10.7 21 10.7 21l31.8-1.2s-.5-11 1-16.1c1.6-5.1 2.6-38.3 2.6-38.3l-15.6-2.7z"/><path class="st11" d="M698 469.9s-2.6 18-2.4 24.8l1.2 62.7S740 562.9 751 547l-6.6-50.5s-1-11.4-14.7-21.9l-1.6-5.8-30.1 1.1z"/><path d="M727.4 356.7s-10.7 4.7-4.3 15.7c0 0 7.8 10.1 0 14.8 0 0-3.6-.1-5.2 8.8 0 0-16.8 6.2-4.7 25.2 0 0-11 24.7 14.2 34.7 0 0 23.1 9.1 37.3-15.2 0 0 12.1 2 4.7-11.1 0 0-1-3.7 4.2-8.4 0 0 4.2-14.7-12.6-23.1 0 0-9.6.4-7.5-5.5.3-.8.9-1.8 1.7-2.9 6.8-8.9 0-17.8-5.2-17.8s-5.8-2.7-5.8-6.1c0-3.3-3.7-13.8-16.8-9.1z" style="fill:#303030"/><g><path class="st4" d="M673 168.6c-2.6-4.7-9.2-5.2-12.4-.8L611.8 234l-13.5 118.3c-.7 5.8 3.6 11 9.4 11.6l71.4 6.8c5.3.5 10.2-3.1 11.2-8.4l23.4-119.2-40.7-74.5zm-10.7 50.7c-6.4 0-11.5-5.2-11.5-11.5 0-6.4 5.2-11.5 11.5-11.5 6.4 0 11.5 5.2 11.5 11.5.1 6.4-5.1 11.5-11.5 11.5zm-8 51.4c0 13.7-7.2 20.6-15.6 20.6-8.1 0-15.1-6.5-15.2-19.7 0-13 7.1-20.4 15.7-20.4 9.1 0 15.1 7 15.1 19.5zm-23.9.6c-.2 8.3 2.9 14.6 8.4 14.6 5.8 0 8.4-6.2 8.4-14.8 0-7.9-2.3-14.5-8.4-14.5-5.5-.1-8.4 6.5-8.4 14.7zm7.6 47.3 38.3-67.4h5.6l-38.3 67.4H638zm58.7-20.9c0 13.7-7.2 20.6-15.5 20.6-8.1 0-15.1-6.5-15.2-19.6 0-13.1 7.1-20.5 15.7-20.5 9.1 0 15 7 15 19.5zm-23.9.6c-.1 8.3 3.1 14.6 8.5 14.6 5.8 0 8.4-6.2 8.4-14.8 0-7.9-2.3-14.5-8.4-14.5-5.5-.1-8.5 6.4-8.5 14.7z"/><path class="st4" d="M664.3 211.2c-.6-6.7-.8-13.5-.9-20.2 0-6.8.2-13.5.8-20.3.3-3.4.7-6.8 1.2-10.1.5-3.4 1.2-6.7 2.1-10.1.9-3.3 2-6.7 3.7-9.9.8-1.6 1.8-3.2 3.1-4.6 1.3-1.4 2.9-2.8 5-3.5 2-.8 4.3-.8 6.3-.3s3.7 1.4 5.3 2.4c1.6 1 2.9 2.2 4.2 3.3.7.6 1.3 1.2 1.9 1.9l.9.9.9 1c4.7 5.4 7.6 12.3 8.3 19.3.8 7-.3 14-2.4 20.5-1.1 3.3-2.4 6.4-3.9 9.4s-3.2 6-5.2 8.7c1.6-3 2.9-6.1 4.1-9.2 1.2-3.1 2.2-6.3 2.9-9.5 1.5-6.4 2.1-13.1 1.1-19.4-.5-3.2-1.5-6.2-2.8-9.1-1.3-2.9-3.1-5.5-5.3-7.9l-.8-.9-.9-.8c-.6-.5-1.1-1.1-1.7-1.6-1.2-1-2.4-2.1-3.7-2.9-2.5-1.7-5.3-2.5-7.5-1.6-2.3.8-4.3 3.3-5.7 6-1.5 2.8-2.5 5.8-3.5 9-1.9 6.3-3 12.9-3.9 19.5-1.9 13.1-2.9 26.6-3.6 40z"/></g><path class="st23" d="M691.4 410.8s-12.8-8.4-20.1-18.4c0 0-14.2-21-14.4-29.4-.2-6-3.7-18.1 1.3-20.5 5-2.4 5-4.2 5-4.2s-2.9-1.6-5.8 0-7.3-1-7.3-5.2-6.8-14.7-10.8-10-1.2 13.7 1.6 17.8c3.9 5.9 6.5 12.1 6.5 17.6s3.8 28.3 6.7 35.1 18.1 36.8 28.6 39.1l8.7-21.9z"/><g><path class="st10" d="m796.5 597.2 46-361.1s14.8-66.8-47.4-111.3c0 0-39.3-12.8-49.4-53.8 0 0-47.8 95.3 6.8 140.3 0 0 20.2 14.6 52.7 56.5s-8.7 329.4-8.7 329.4z"/><path class="st9" d="M834.3 290.4c.5-9.7.3-19.3-.7-28.9-.9-9.6-2.4-19.1-4.8-28.4-1.2-4.7-2.7-9.2-4.3-13.7-.8-2.3-1.8-4.5-2.7-6.7-1-2.2-2-4.4-3.2-6.4-1.1-2.1-2.4-4.2-3.6-6.2-1.3-2-2.6-4-4.1-5.9-1.4-1.9-3-3.7-4.5-5.5-1.7-1.7-3.3-3.4-5-5.1-6.9-6.8-13.6-13.8-20.2-20.9-6.5-7.2-12.9-14.5-18.7-22.3-5.8-7.8-11.2-15.9-15.6-24.5-4.3-8.7-7.6-18-8.3-27.7 1.2 9.6 4.7 18.7 9.3 27.2 4.6 8.5 10.1 16.4 16 24 11.9 15.1 25.3 29.1 39.1 42.6 1.7 1.7 3.4 3.5 5.1 5.2 1.6 1.9 3.2 3.7 4.6 5.7 1.5 1.9 2.8 4 4.2 6 1.2 2.1 2.5 4.2 3.6 6.4 1.2 2.1 2.1 4.4 3.2 6.6.9 2.3 1.9 4.5 2.7 6.8 1.7 4.6 3.1 9.2 4.2 14 2.3 9.5 3.6 19.1 4.2 28.8.5 9.5.6 19.2-.5 28.9z"/><path class="st7" d="M836.1 646.1s-25.2-92.5 40.9-100.9c0 0 37.8-13.6 80.3 0 0 0-14.2 4.2-18.9 35.7 0 0-11 17.6-53.5 24.5-42.5 6.9-48.8 40.7-48.8 40.7z"/><path class="st8" d="M839.4 636.9c-1.4-6.7-1.4-13.6-.6-20.4.4-3.4 1.2-6.8 2.1-10.1 1-3.3 2.2-6.5 3.7-9.6 2.9-6.2 6.9-12 11.5-17.1 4.7-5.1 10-9.5 15.8-13.3 11.6-7.4 24.5-12.5 37.8-15.7 13.3-3.3 26.9-4.9 40.4-5.6-13.5 1.5-26.9 3.8-40 7.3-1.6.4-3.2 1-4.9 1.4l-4.8 1.5-4.7 1.8c-1.6.6-3.2 1.1-4.7 1.9l-4.6 2c-1.5.7-3 1.5-4.5 2.3l-2.2 1.2c-.8.4-1.4.9-2.2 1.3-1.4.9-2.9 1.7-4.3 2.6-11.2 7.3-20.9 17.2-26.9 29.2-1.6 3-2.7 6.1-3.8 9.3-1 3.2-1.9 6.5-2.4 9.8-1.4 6.6-1.7 13.5-.7 20.2z"/><path class="st9" d="m814.8 636.9 9.8-270.8s-14.8-56.2 36.5-96c0 0 32.9-12.2 40.1-47.3 0 0 43.7 79.2-1.1 119.2 0 0-16.7 13.1-42.8 49.7-26.2 36.7-42.5 245.2-42.5 245.2z"/><path class="st10" d="M833.3 411.8c-2.3-16.3-2-32.9 1.2-49.2.8-4.1 1.8-8.1 3.1-12 1.2-3.9 2.7-7.8 4.5-11.6.8-1.9 1.9-3.7 2.9-5.5 1.1-1.8 2.1-3.6 3.3-5.3 1.1-1.7 2.5-3.4 3.7-5 1.4-1.6 2.8-3.2 4.1-4.6 11.3-11.9 22.1-24.2 31.7-37.4 4.8-6.6 9.2-13.5 12.8-20.8 3.6-7.3 6.3-15.1 7-23.3-.2 8.2-2.7 16.3-6 23.8-3.4 7.5-7.8 14.6-12.4 21.4-4.6 6.8-9.8 13.2-15.1 19.5-5.3 6.3-10.8 12.4-16.4 18.4-1.4 1.5-2.8 3-4.1 4.5-1.2 1.6-2.6 3.1-3.7 4.8-1.2 1.6-2.2 3.4-3.3 5.1-1 1.8-2 3.5-2.8 5.4a73.9 73.9 0 0 0-4.5 11.3c-1.3 3.9-2.4 7.8-3.2 11.8-1.8 8-2.8 16.1-3.2 24.3-.4 8-.3 16.2.4 24.4z"/><g><path class="st11" d="m822.6 646.1 16.6-165.8s-3.1-58 55.1-86.6c0 0 34.6-5.3 48.8-38.2 0 0 26.8 86.4-25.2 116.5 0 0-19 9.4-52 40-32.9 30.6-43.3 134.1-43.3 134.1z"/><path class="st9" d="M838.5 526.8c1.1-16.4 4.7-32.6 11.1-47.9 1.6-3.8 3.4-7.5 5.4-11.1 2-3.6 4.3-7.1 6.8-10.4 1.2-1.7 2.6-3.3 3.9-4.8 1.4-1.5 2.8-3.1 4.3-4.5 1.5-1.5 3.1-2.8 4.7-4.1 1.7-1.3 3.3-2.5 5-3.7 13.4-9.4 26.5-19.2 38.6-30.2 6-5.5 11.8-11.4 16.8-17.8s9.2-13.6 11.6-21.4c-1.9 8-5.9 15.4-10.7 22.1-4.9 6.7-10.5 12.7-16.5 18.4-5.9 5.7-12.3 11-18.7 16.1-6.5 5.1-13.1 10-19.8 14.7-1.7 1.2-3.3 2.4-4.9 3.6-1.5 1.3-3.1 2.5-4.6 4-1.5 1.4-2.9 2.9-4.2 4.3-1.3 1.5-2.7 3.1-3.9 4.7-2.5 3.2-4.7 6.6-6.7 10.1s-3.9 7.1-5.5 10.9c-3.3 7.4-6 15.2-8 23.1-2.2 7.7-3.7 15.7-4.7 23.9z"/></g><path d="M815.3 623.6s-11.9-13.5 8.4-16.8c28.5-4.7 24.4 4 24.4 4s4.8 23.6-32.8 12.8z" style="fill:#58595b"/><path d="M815.4 657.9s-23.3-26.2 16.3-32.7c55.4-9.2 47.4 7.8 47.4 7.8s9.4 45.9-63.7 24.9z" style="fill:#434747"/></g></svg>