<svg version="1.1" id="Layer_1" xmlns="http://www.w3.org/2000/svg" x="0" y="0" viewBox="0 0 1000 652" style="enable-background:new 0 0 1000 652" xml:space="preserve"><style>.st2{fill:#f7fafc}.st4{opacity:.1;fill:#202123}.st5{opacity:.62;fill:#fff}.st10{fill:#231f20}.st11{fill:#14274c}.st13{fill:#efd57a}.st14{fill:#f7af9e}.st15{fill:#fff}.st17{fill:#202752}.st18{fill:#1d222e}.st20{opacity:.62;fill:#3b7f5a}.st22,.st23{opacity:.21;fill:#fff}.st23{opacity:.58}.st24{fill:#e2c66d}.st26{fill:#3c6799}.st27{fill:#4570ad}.st30{fill:#212c54}.st31{fill:#8ed37c}.st32{fill:#70b332}</style><path d="M98.2 495.3s-111.5 8.3-66 75.5 292.7 70.3 385 64c92.3-6.3 232-32 271.4-33.3s230.8 1.9 264.3-19.1c33.5-21.1 33.7-68.7 5.8-78 0 0-49-20.8-93.6-15.6l-766.9 6.5z" style="fill:#cfb5f6"/><path d="m945 508.2-681.6-10.9-40.2-.7-3.2-.1-37.8-.6-57.5-.9s-73.9-126.6-13.6-287.5c11.6-30.9 25.9-56.9 42.2-78.7 2.2-3 4.5-5.9 6.7-8.7 32.3-39.9 71.3-64.7 111-79.9 8.3-3.2 16.7-6 25-8.4 35.6-10.3 70.8-14 101-14.9 90.8-2.8 197 25.9 279 116.1s175.4 93.7 262.5 178.9c87 85.3 6.5 196.3 6.5 196.3z" style="fill:#dfd4f1"/><path class="st2" d="M296 31.8c-8.3 2.4-16.7 5.2-25 8.4-39.7 15.3-78.7 40-111 79.9-2.3 2.8-4.5 5.7-6.7 8.7V389h285.8V31.8H296z"/><path d="M432.3 40.2v340.4H160V120.1c32.3-39.9 71.3-64.7 111-79.9h161.3z" style="fill:#bee3fb"/><path class="st4" d="M159.6 120h62v260.5h-62zM222.6 163.1h38.9v217.5h-38.9zM392.8 163.1h38.9v217.5h-38.9zM352.9 219.8h38.9v160.7h-38.9zM261.5 297.6h91.4v81.9h-91.4z"/><path class="st5" d="M206.1 101.7 307.2 98s2.6-11.6-9.5-13.7c-12.1-2.1-6.3-15.6-19.2-12.5s-4.9-19.5-24.7-13.5-22.4 21.2-22.4 21.2-1.7-8.8-17.4-3-7.9 25.2-7.9 25.2zM357 87.3l35.8-1.3s.9-4.1-3.3-4.8-2.2-5.5-6.8-4.4c-4.6 1.1-1.7-6.9-8.7-4.8-7 2.1-7.9 7.5-7.9 7.5s-.6-3.1-6.2-1.1c-5.6 2.1-2.9 8.9-2.9 8.9zM338.1 178.7l45.2-1.7s1.2-5.2-4.2-6.1c-5.4-.9-2.8-7-8.6-5.6s-2.2-8.7-11-6c-8.8 2.7-10 9.5-10 9.5s-.8-3.9-7.8-1.4c-7 2.7-3.6 11.3-3.6 11.3z"/><path class="st2" d="M293 37h11v344.1h-11z"/><path class="st2" d="M163.3 135.3h268.9v9.5H163.3zM156.5 256.6h275.8v12.1H156.5z"/><path style="opacity:.62;fill:#f1f2ed" d="M519.4 159.4h125v84h-125z"/><path class="st2" d="M531.2 167.3h101.6v68.3H531.2z"/><path style="fill:#e6e7e8" d="M618.7 362.7h207v12.6h-207z"/><path style="fill:#e29e05" d="M520 348.5h73.5v16.3H520z"/><path style="fill:#feac02" d="M594 348.5h271v16.8H594z"/><path class="st10" d="M582.2 365.4v145.1h8.6l10.9-145.7zM830.1 365.4l11.5 145.1h9.4l-2.9-145.1zM530.1 364.8 520 495.3h-6.5v-133z"/><path class="st11" d="M657.1 323.3H676v23.1h-18.9z"/><path class="st11" d="M644.4 343.3h44.1v3.2h-44.1zM603.5 340.1h24.2v8.4h-24.2zM591.9 235.6h149.2v91.9H591.9z"/><path class="st2" d="M600.9 238.2h132.9v85.6H600.9z"/><path d="M548.2 331.5s11.7-8.4 8.5-19.6h-4l-4.5-5.4-2.9 5.4-4.3-5.4v5.4l-5.3-6.2-1.3 6.2-4.2-5.4-2.2 8.4-6.1-5.1s-1.3 10.2 4.7 17.4c6 7.2 21.6 4.3 21.6 4.3z" style="fill:#458f68"/><path class="st13" d="M524.4 327.2H553s4.5 20.8-14.3 21.4c-18.7.5-14.3-21.4-14.3-21.4z"/><path class="st10" d="M787.1 365.1 777 495.6h-6.5V362.7z"/><g><path class="st14" d="m435.1 264.5-4.9 19-48.2-12.1-7.7-6.9-6.1 17.4h11.3l44.9 23.9s15.6 13.4 21.7.8 9.6-35.1 9.6-35.1l-19.3-11.9-1.3 4.9zM454.3 546.1v11.3l-15 17.6s.1 7.3 9.6 1.8l22.6-21.6-2.3-10.6-14.9 1.5zM481.5 547.8l-2.6 12.5-14.9 22.1s-1.4 5.8 7.6 2.1c9-3.7 28.5-30.4 28.5-30.4v-9.6l-18.6 3.3z"/><path class="st15" d="M454.3 557.3s-25 23.5-36.7 25c0 0-2.9 5 5.8 5.4 8.7.3 30.8-2 30.8-2l17.2-22.5s9 1.2 5.9-5.9-5.2-10.2-5.2-10.2l-5.4 10.2s-17 22.2-22.6 17.6c-5.6-4.7 10.2-17.6 10.2-17.6z"/><path class="st15" d="M500 554.1s4.9 2.7 5.3 11v17.3h-4.1l-1.2-11.5-14.9 22.3s-17.1 6.5-32.9 6.5c-15.8 0-11.4-6.5-11.4-6.5s14.7-4.8 23-14.4c8.3-9.6 15-18.4 15-18.4s-23.7 32.1-7.3 24.2l28.5-30.5z"/><path class="st10" d="M435.6 334.4s-10.7 51-11.8 67.8c-1.1 16.8.2 43.8 5.9 62.4 5.7 18.5 22.5 85.8 22.5 85.8l20-3.2s3.2-57.5 0-68.7-8.3-24.6-8.3-24.6l4.8-41.4 10.6 137.8 21.9-2.4s8.8-68 4.6-93.2c0 0-4.2-23.1 6.3-49.4 10.5-26.3 9.5-62.4 0-73.8l-76.5 2.9z"/><ellipse transform="rotate(-80.718 477.45 177.217)" class="st14" cx="477.5" cy="177.2" rx="27.3" ry="20.8"/><path class="st14" d="M468.7 199.7v34.5H487l11-22.3-2.3-4.3-1.8-15.5z"/><path class="st2" d="m492.3 210.3-15.7 18.1-8.2-19.1s-7.8 1.5-9.4 5.2c0 0-8.5 1.6-14 11.1s-17.8 33-17.8 33l13.4 10.1-5.3 68.3s60.1 9.5 81.5-2.6c0 0-8-31-9-45.7-1.1-14.7-2.1-17.3-2.1-17.3l5.2 6.8 24.7-18.7-5.8-25.3s-7-15.2-14-17.7-20.2-9-20.2-9l-3.3 2.8z"/><path d="M476.6 150.6s-5.4 4.8-12.3 9.4c-4.2 2.8-7 7.4-7.5 12.5-.7 7.6 1.9 24.2 7.4 26.3 7.7 3 4.2 10.5 4.2 10.5l-14.3 7.2s2-34 1.1-42.9c-1-8.9 4.9-29.5 18.3-36 13.3-6.5 29.4 0 36.6 13s13.5 48.2 13.5 48.2l.7 25.6s3.3-4.5-28.6-16.9l-1.8-15.4s7.6-20 4.5-24.3c-3.1-4.2-.3-3.7-9-10.8-8.8-7-12.8-6.4-12.8-6.4z" style="fill:#202123"/><ellipse transform="rotate(-71.844 498.026 176.267)" class="st14" cx="498" cy="176.3" rx="8.5" ry="5.3"/><path class="st14" d="m536.2 259.2 2.1 36.8s2.1 11.6-8.4 21c-10.5 9.5-25.2 28.4-25.2 28.4s-16.2 10.8-28.1 5.4-12.8-10.3-12.8-10.3-.6-8.8 10.1-6.1c10.8 2.6 14.3-.5 12.5-4.7-1.8-4.2-7.7-8.1-3.2-8.2 4.5-.2 9.9 8.2 9.9 8.2s1.6 2.1 7-6.3c5.5-8.4 15.6-24.2 15.6-24.2l-2.7-22.6 23.2-17.4z"/></g><g><path class="st17" d="m60.9 295.5 21 169.1 84-34.6-14.7-144z"/><path class="st15" d="m63.9 300.2 19.8 159.2 79.1-32.6L149 291.3z"/><path class="st18" d="m81.9 464.6 11.5 82 4.8-2.1-10.4-82.3z"/><path style="fill:#1d244b" d="m160.7 433.1 11.5 82 4.8-2.2-10.4-82.3z"/><path class="st18" d="M76.5 401.2 47.2 521.4l7.3 2.1 24.2-104.3zM105.7 450.3l5.5 54.1 5.3-1.9-3.1-55.4z"/></g><g><path class="st13" d="M395.2 207.8c-2.3 4.7-10 5.1-16.6 1.4s-1.7-9.6-3.7-14.5c-2.1-5.3 11-9.7 13.7-2.1 3 8.4 10.5 7.3 6.6 15.2z"/><path class="st13" d="M377.3 205.7c-2.3 4.7-10 5.1-16.6 1.4-6.5-3.8-1.7-9.6-3.7-14.5-2.1-5.3 11-9.7 13.7-2.1 3 8.4 10.6 7.3 6.6 15.2z"/><path class="st20" d="M404.6 205.7c1.6 5-3.5 10.7-10.8 12.6-7.3 1.9-8-5.6-12.8-7.7-5.2-2.3 1-14.6 8.2-11.1 8 3.9 12.6-2.2 15.4 6.2zM359.4 203.6c1.6 5-3.5 10.7-10.8 12.6-7.3 1.9-8-5.6-12.8-7.7-5.2-2.3 1-14.6 8.2-11.1 8 3.9 12.6-2.2 15.4 6.2z"/><path d="M402.9 219.4s4.1-9.6-3.3-11.7-10.5-2.7-10.5-2.7 3.4-8.9-7.2-9.9c-10.6-1.1-10.1 1.6-10.1 1.6h-7.7l-3.4-7.9S345 183.5 344 193c-1.1 9.5-10.5 5.3-6.3 8.4 4.2 3.2-1.1 7.2-1.1 7.2l-2.2 6.5 68.5 4.3z" style="fill:#f87dc6"/><path class="st22" d="M359.4 200.7c-1.7 3.3-6.4 4-10.2 1.8-3.8-2.2-.5-6.4-1.4-9.6-1-3.4 7.3-7.1 8.4-2.2 1.3 5.6 6 4.4 3.2 10zM372.2 206.1c-.7 1.5-3.2 1.5-5.4.2s-.7-3.1-1.4-4.6c-.8-1.7 3.5-2.9 4.5-.5 1 2.7 3.5 2.4 2.3 4.9zM390.2 214.4c-1.7 3.3-6 4.2-9.3 2.4-3.3-1.9-.1-6.2-.7-9.2-.7-3.2 6.9-7.3 7.7-2.6.9 5.3 5.2 3.9 2.3 9.4z"/><path class="st22" d="M375.5 214.4c-1.7 3.3-6 4.2-9.3 2.4-3.3-1.9-.1-6.2-.7-9.2-.7-3.2 6.9-7.3 7.7-2.6.9 5.3 5.2 3.9 2.3 9.4zM349.3 211.2c-1.7 3.3-6 4.2-9.3 2.4-3.3-1.9-.1-6.2-.7-9.2-.7-3.2 6.9-7.3 7.7-2.6.9 5.3 5.1 3.9 2.3 9.4z"/><path class="st23" d="M384.2 196.7c.9 1.9-1.4 4.6-4.9 6.1-3.5 1.4-4.1-1.5-6.4-1.9-2.6-.4.1-6 3.7-5.2 4 .7 6.1-2.2 7.6 1zM362.3 213.8c-1.3 2.6-5.3 3.1-8.4 1.3-3.2-1.8-.6-5.2-1.4-7.8-.9-2.8 5.9-5.6 7-1.6 1.2 4.6 5.1 3.7 2.8 8.1zM400.9 216.3c-1.2 2.4-4.6 2.9-7.2 1.4-2.7-1.5-.3-4.6-.9-6.9-.7-2.4 5.2-5.2 6-1.6.9 4 4.2 3.2 2.1 7.1z"/><path class="st13" d="M330.3 220.4s10.5-1.1 13.7 7.4 17.7 45.3 3.2 64c-.1.1-5.3 11.4-5.3 11.4l33.6 3.4s-4.2-12.6-3.2-27.3c1.1-14.7 4.3-32.6 15.8-41s19.8-12.6 19.8-12.6-.9-9.5-18.8-8.4c-17.9 1.1-20 1.1-26.3-3.2-4.4-3-16.7-2.8-25-.2-3.5 1.1-6.3 2.6-7.5 4.4-4.2 6.3 0 2.1 0 2.1z"/><path class="st24" d="M347.1 219.9c4 5.6 6.9 12 9.2 18.5 2.3 6.5 3.8 13.4 4.5 20.3.3 3.5.4 7 .3 10.5 0 .9-.1 1.7-.2 2.6-.1.9-.1 1.7-.2 2.6l-.3 2.6-.5 2.6c-1.2 6.9-3.6 13.5-6.9 19.5 2.1-6.6 3.7-13.2 4.5-19.9.8-6.7.8-13.5.2-20.2-.3-3.4-.8-6.7-1.4-10-.6-3.3-1.4-6.6-2.3-9.9-1.8-6.5-4.1-13-6.9-19.2zM384.8 219.4c-3.4 6-6.2 12.2-8.6 18.6-1.2 3.2-2.3 6.4-3.1 9.6-.9 3.3-1.7 6.5-2.3 9.8-1.2 6.6-1.8 13.4-1.6 20.1.2 6.8 1.2 13.5 2.7 20.2-2.8-6.3-4.5-13.1-5.1-20.1l-.2-2.6-.1-2.6v-2.6c0-.9 0-1.7.1-2.6.2-3.5.6-6.9 1.2-10.4 1.3-6.9 3.4-13.5 6.3-19.9 2.7-6.2 6.2-12.2 10.7-17.5z"/><path d="M240.8 147.9s-5-1.2-6.6 6.7c-1.6 7.9-2.3 18.4-2.3 18.4l-3.8-1.6-2.8 17.4-17.9 7.9 11.6-24.4s-5.3-18.1-4.7-24.9c.5-6.9 26.5.5 26.5.5z" style="fill:#1e2751"/><ellipse transform="rotate(-9.105 247.843 163.617)" class="st14" cx="247.9" cy="163.6" rx="17.9" ry="26.8"/><ellipse transform="rotate(-9.105 226.833 163.618)" class="st14" cx="226.8" cy="163.6" rx="5.3" ry="8"/><path class="st14" d="M225.6 163.6s7.1 24.2-8.2 37.8c0 0 30.6 10.5 39.4-4.2 0 0-7.6-12.1-7.1-12.9.5-.7-24.1-20.7-24.1-20.7zM275.7 271.9s3.2 10.3 17.9 11.5c14.7 1.1 57.3-2.5 57.3-2.5 1.2 1 1.6-1.2 1.6-11 0-6 4.2-7.4 4.2-7.4s2-3.2-3.2-2.1-5.6 4.5-5.6 4.5-4.2 4.9-8.2 4.9c-4 .1-41.8-8.4-41.8-8.4l-4.2-2.1-18 12.6zM185.9 544.5l-3.7 28.9 20 3.1 3.9-32zM231.6 539.8v30.7s17.9 11.1 25.7-1.9c0 0-5-5.2-5.4-11.2s-.5-17.6-.5-17.6h-19.8z"/><path class="st26" d="M207.4 589.5c-.9 4.1-3.5 7.8-7.3 10-3.1 1.8-7 2.6-11.7 1.3-15.6-4.3-16.7-13-16.7-13l.8-1.7 6.6-14.8s13.7-12.6 18.9-6.3c2.6 3.1 5.6 8.4 8 13 1.8 3.6 2.2 7.7 1.4 11.5z"/><path class="st27" d="m275.7 593.1-54.1-1.9v-18.8c3.7-14.6 10-11.9 10-11.9s11.6 13.9 15 8.5c.9-1.4 1.8-2.4 2.8-3.2 2.8-2.4 5.5-2.6 5.5-2.6s15.6 11.2 20.9 11.7c1.3.1 2.6.1 3.7.1 3.2.1 5.6.7 8.2 7.4 3.3 8.9-12 10.7-12 10.7z"/><path class="st15" d="m275.7 593.1-49.2-1.8c-2.8-.1-4.9-2.4-4.9-5.1v-3.5c6.2.8 20.8 2.7 28.9 4.3 10.5 2.1 30 3.2 37.1-4.7 3.4 9-11.9 10.8-11.9 10.8zM279.4 575c-1.9 5.3-4.7 3.2-12.1 1.7-9.5-1.9-18-10.9-18-10.9 2.8-2.4 5.5-2.6 5.5-2.6s15.6 11.2 20.9 11.7c1.3.1 2.5.1 3.7.1zM188.3 580.6c-.9-2 6.5 8.4 9.6-5.7 0 0 3.9-10.6-4.9-9.2-8.7 1.4-4.7 14.9-4.7 14.9zM207.4 589.5c-.9 4.1-3.5 7.8-7.3 10-3.1 1.8-7 2.6-11.7 1.3-15.6-4.3-16.7-13-16.7-13l.8-1.7c3.6 4.4 9.4 9 17.3 9 9.1-.1 14.6-3.2 17.6-5.6z"/><path d="M214.2 147.4s30.5 7.4 61.5 0c0 0 10.5-4.3-8.4-7.1 0 0-3.2-20.8-29.4-20.2-26.3.5-23.7 27.3-23.7 27.3z" style="fill:#f6524f"/><path class="st15" d="m246.4 135.3 15.1-2.3v7.2l-15.1 2z"/><path class="st26" d="M267.3 329.6s9.5 55.6 0 104.5l-4.2 68.9-1.6 41.5h-34.6l-5.3-69.4 7.9-88.7v-33.6l.3-23.1h37.5z"/><path class="st27" d="m189.8 329.6-3.4 105.1-4.2 43.1v67.7s14 8.8 31.2 0c0 0 7.7-57 8.2-60.2s8.9-35.4 12.6-59.7c3.7-24.4 3.7-91.1 3.7-91.1l-48.1-4.9z"/><path d="M225.3 188.9s-21 7.4-27.3 14.7c-6.3 7.4-23.1 52.5-23.1 52.5l25.2 11.8 6.3-13.9s-6.3 41-13.7 53.6c-7.4 12.6-4.4 26.8-4.4 26.8s73.4 13.1 81.4 0l-4.5-47.8 1.6-22 8.9 7.3 17.9-12.6-14.7-48.3s-12.6-17.9-27.3-15.8c-.1 0-14.8 9.4-26.3-6.3z" style="fill:#ff4d53"/><path class="st30" d="m275.7 281.9 45.2.5-35.7 47.2h-44.4z"/><path class="st17" d="M193.1 314.9H169v80.2h20.7z"/><path class="st15" d="M247.3 225.6h18.6l1.4 12.6h-19.4z"/><path class="st30" d="M251.5 195.2s-3.2 64.1-28.4 90.3c-25.2 26.3-34.6 33.2-34.6 33.2l-.2 15.6s51.7-37.4 63.2-80.4c11.6-43 9.9-57.4 9.9-57.4l-9.9-1.3z"/><path class="st14" d="m174.8 256.1-3.2 24.2s-1.4 15.9 16.6 19 55.9 6.3 55.9 6.3 10.2 20.3 19.3 21.7c9.1 1.4 8-7 8-7s-9.5-9.2-10-16.1c-.5-7 5.8-5.8 5.8-5.8s-4.2-4.3-10.5-4.3h-12.6L198 282.4l.2-15.4-23.4-10.9z"/></g><path class="st31" d="M891.7 468.3s2.8-22.7 20.6-39.2c0 0 1.1-18.6 10.5-22.8 9.5-4.2 22.1-3.2 22.1-3.2s1.9 19.4-12.7 26-15.6 20.3-15.6 20.3l-13.7 23.1-11.2-4.2zM870.5 472.5s-12.8-9.5-8.6-24.2-.8-33-.8-33-8.8-9-12.4-22.1c-3.6-13.1-4.6-17.3-4.6-17.3s21 5.3 24.2 20c3.2 14.7 4.8 43.6 7.1 49.6s5.8 22.9 5.8 22.9l-10.7 4.1z"/><path class="st32" d="M885.5 472.5s-20.1-45.8-22.9-64.4c-2.8-18.6-5.1-42.8-5.1-42.8l5.1-22.1s14.3 6 14.7 17.7c.4 11.7-4.8 25.3-1.7 35.8 3.2 10.5 15.8 18.1 13.1 35.3-2.6 17.2.4 42.4.4 42.4l-3.6-1.9z"/><path class="st31" d="M883.5 362.7s-12.1 12.9-9 25.7-1.1 28.5 2.1 39 1.2 26.3 2.2 30.5c1 4.2 0 20.1 0 20.1l12.9-3.4s7.7-56.9 6.3-71.5c-1.4-14.6-3.4-36.8-14.5-40.4z"/><path class="st32" d="M902.9 365.4s3.1 18.2-4.7 25.9c-7.9 7.7-10 10.2-9.5 23.1.5 13-1.6 31.2-1 38.3.5 7.2-.1 25.3-.1 25.3h10.6s6.8-20.5 14.2-40.3c7.4-19.8 2.1-24 0-32.9-2.1-8.9 7.8-11.9 6-18.3-1.9-6.4-15.5-21.1-15.5-21.1z"/><path d="M893.9 508.2h-10.3c-10.2 0-18.5-8.3-18.5-18.5v-21.4h47.3v21.4c-.1 10.3-8.3 18.5-18.5 18.5z" style="fill:#3e4e84"/><g><path class="st26" d="m733.7 419.4 11-70.9s11.6-63.9 37.6-74.5c15.8-6.4 33.9-5 45.6-3 7.3 1.3 12.5 7.6 12.5 15v19.7L823 390.6l-9.6 38.6s6.1 24.7-26.3 23.5-74.6-.7-90.8-23.5v-14.3c0-4.1 2.4-7.9 6.1-9.7 6.3-3 20.3-6.7 34.4-7.3l-3.1 21.5z"/><path class="st26" d="M741.1 445.4v34s14.1 12.2 21.7 0v-27.6l-21.7-6.4z"/><path class="st10" d="M748.8 484.7h6.3v47.5h-6.3z"/><path class="st10" d="M787.3 537.9c-.6-7.3-5.1-12.5-8.7-15.6-1.6-1.4-3.7-2.1-5.8-2.1-7.2.2-25.3.5-39.2-.1-4.6-.2-8.1.9-10.3 3.2-3.2 3.4-2.9 8.6-2.9 8.6l-6.3.5c0-.3-.7-8 4.5-13.5 3.5-3.7 8.6-5.4 15.1-5.1 13.7.5 31.7.2 38.8.1 3.7-.1 7.2 1.2 10 3.5 4.6 3.9 10.2 10.5 10.9 19.9l-6.1.6z"/><circle class="st10" cx="717.5" cy="535" r="5.8"/><circle class="st10" cx="752.1" cy="535" r="5.8"/><circle class="st10" cx="788.9" cy="534" r="5.8"/><path d="M698.2 408.9c3.8 3.4 8.1 6.1 12.6 8.4 4.4 2.4 9.2 4.2 13.9 5.9 9.6 3.2 19.6 4.9 29.6 5.7 2.5.2 5 .4 7.6.5H773.3l3.8-.3 7.6-.5c2.5-.2 5-.6 7.5-.9l7.5-.9 15-2.7c-4.9 1.3-9.9 2.4-14.8 3.7-5 .8-10 1.8-15.1 2.4l-7.6.7-3.8.3c-1.3.1-2.6.1-3.8.1l-7.7.1c-2.6-.1-5.1-.3-7.7-.5-10.2-.9-20.4-2.7-30-6.3l-3.6-1.4c-1.2-.5-2.4-.9-3.5-1.5-2.3-1.1-4.6-2.2-6.8-3.6-4.4-2.5-8.7-5.4-12.1-9.2z" style="opacity:.43;fill:#20284e"/></g><path class="st5" d="M505.8 76.4h37.8v15.8h-37.8zM525.2 98H563v15.8h-37.8zM326.6 439.4h37.8v15.8h-37.8zM647.1 452h37.8v15.8h-37.8zM538.9 437.3h37.8v15.8h-37.8zM525.2 416.3H563v15.8h-37.8zM566.2 416.3H582v15.8h-15.8zM879.3 319.7h37.8v15.8h-37.8zM857.2 298.6H895v15.8h-37.8zM838.3 321.8h37.8v15.8h-37.8z"/></svg>