<svg version="1.1" id="Layer_1" xmlns="http://www.w3.org/2000/svg" x="0" y="0" viewBox="0 0 814.5 938.6" style="enable-background:new 0 0 814.5 938.6" xml:space="preserve"><style>.st4{fill:#87994f}.st5{fill:#0c0a0b}.st8{fill:#fcbba7}.st9{opacity:8.000000e-02}.st11{fill:#3470b9}.st12{fill:#cc3e56}.st14{opacity:.13}.st17{fill:none;stroke:#fff;stroke-width:3;stroke-linecap:round;stroke-miterlimit:10}</style><ellipse cx="409.4" cy="330.2" rx="396.7" ry="330.2" style="opacity:.5;fill:#dec0f9"/><ellipse cx="402.6" cy="388.5" rx="360.5" ry="376.6" style="fill:#dec0f9"/><path d="M791.2 666.9c4.8 14.2 7.2 29 7.2 44 0 125.7-173.5 227.7-387.6 227.7S23.2 836.7 23.2 710.9c0-5.5.3-11 1-16.4" style="fill:#5b7215"/><ellipse cx="407.4" cy="678.7" rx="384.3" ry="217.9" style="fill:#678718"/><ellipse class="st4" cx="363.8" cy="666" rx="94.5" ry="53.6"/><ellipse class="st4" cx="489.9" cy="708.8" rx="19.7" ry="11.2"/><g><path class="st5" d="M482.1 692.5h15.6l-1 16.2s-6 5.2-11.5 0l-3.1-16.2z"/><circle cx="489.9" cy="681.6" r="14.8" style="fill:#f5f5f5"/></g><g><path d="m386 493.5-11 64.7v58.7s16.4 6 25.6 0c0 0-.4-16.1 5.1-32.1l17.4-62.8s13.8-14.5 5.3-38.7L386 493.5z" style="fill:#fabba9"/><path class="st8" d="M302.2 509.5s-4.6 22.5-3.2 45.9l3.1 95.4 26.2-4.6s.9-38.5 7.8-63.7l20.2-76.6-54.1 3.6zM444.6 210.3c-4.5 16.7-16.5 28.5-28.7 29.3-2.1.1-4.2-.1-6.2-.6-14.1-3.7-21.3-22.7-16.1-42.2 5.2-19.6 20.9-32.4 34.9-28.7 5.6 1.5 10.1 5.4 13.2 10.7 4.7 8.1 6.1 19.7 2.9 31.5z"/><path class="st9" d="M444.6 210.3c-4.5 16.7-16.5 28.5-28.7 29.3 25.2-9.6 27.1-41.6 25.8-60.8 4.7 8.1 6.1 19.7 2.9 31.5z"/><path d="M392.5 208.6s-.6-17 13.6-22.2 16.9 6.9 16.9 6.9 20.4 20.2 24 9.3c3.6-10.9 4.4-28.1-8.4-34.3-13.7-6.5-23.1-12.2-32.9-2.4-9.8 9.8-8.9 3.8-16 16.2-7.1 12.4 2.8 26.5 2.8 26.5z" style="fill:#0a0a0a"/><ellipse class="st8" cx="392.7" cy="201" rx="5.9" ry="7.7"/><path class="st11" d="M389.8 182.1s15.6 15.6 23.8 15.1l14.7 13.8s6.3 8.1 18.3 6.1l17 .3-14.7-21.1s5.5-21.1-9.1-32.6c0 0-18.4-15.6-37.2-4.1 0 0-12.4 10-12.8 22.5z"/><path class="st12" d="m313 259.8 5.3 10.4 10.7-10.4z"/><path d="M333.4 224.3v38.1l-50.5 2.8c-24.3 3.2-15.1-31.2-15.1-31.2-2.3-10.1 11.5-38.3 11.5-38.3l23.9-63 12.7 8.1 3.8 2.5-6 16-9.2 41.8c.9 18.8-5.1 32.2-5.5 32.9 3.8-4.7 34.4-9.7 34.4-9.7z" style="fill:#f9bba6"/><path class="st9" d="M333.4 224.3v2.9l-41.7 15.4s-2.8 1.2 3.2-6.9c6-8 7.8-40.2 7.8-40.2l13.1-54.9 3.8 2.5-6 16-9.2 41.8c.9 18.8-5.1 32.2-5.5 32.9 3.9-4.5 34.5-9.5 34.5-9.5z"/><path class="st11" d="M431.1 495.8c-16.4 7.6-31.2 8.3-39.7 7.8-4.8-.3-7.6-.9-7.6-.9-8.7-13.3-26.8-76.6-26.8-76.6l.2 4.4 3.3 82.7c-21 13.6-36.8 13.6-46.9 10.6-9.1-2.7-13.7-7.8-13.7-7.8l-3.2-65.6c-3.2-22.9 0-42.7 0-42.7l7.8-33.5c3.8 1.9 7.9 3.5 12 4.8 36.2 11.1 82.1-.7 82.1-.7l15.9 43.1c16.9 36.4 16.6 74.4 16.6 74.4z"/><path class="st14" d="M307.9 426.5c0 7.6 4.9 85 5.6 97.2-9.1-2.7-13.7-7.8-13.7-7.8l-3.2-65.6c-3.2-22.9 0-42.7 0-42.7l7.8-33.5c3.8 1.9 7.9 3.5 12 4.8-2.4 11.8-8.5 41.1-8.5 47.6zM383.8 502.7c-8.7-13.3-26.8-76.6-26.8-76.6l.2 4.4-2.2-15.4 6.7-4.6s7.6 8.2 8.5 23.2c.9 14.9 12.6 43.8 12.6 43.8l8.7 26.1c-4.9-.3-7.7-.9-7.7-.9z"/><path d="M331.9 708.6s-17.7 3.1-24.5-16.5c0 0-9.1-20.2-7-35.2 0-.2.1-.4.1-.6l1.4-11s17.3-9.5 25.6-4.3l10.1 21.4 9.8 24.5s1 2.8 1.1 6.4c.2 6-2.2 14.3-16.6 15.3z" style="fill:#79c3dc"/><path d="M423.4 659.4s-13.5 4-22.8-7.3c0 0-9.3-12.2-19.4-14.7 0 0-12.2-4.3-17.4-16.5 0 0 .6-1.5 1.5-3.6 1.7-4.3 4.3-11.3 4.9-15.3 0 0 7.2-1.8 6.8 11 0 0 3.6 3.7 15.5-3.4 11.9-7 13.4-1.7 13.4-1.7l23.1 24.6s6.3 6.6 10.4 10.5c1.1 1 2 1.8 2.6 2.3.1 0 .4 14.1-18.6 14.1z" style="fill:#78c2db"/><path class="st11" d="M310.8 646.8s9.1-7.3 13.6-1.8 9.1 26 9.1 26-4 10.1-13.8 5.5c-.1 0-8.3-22.3-8.9-29.7zM394.7 615.6s15.3 16.8 22 17.7c6.7.9 10.9-2.5 10.9-2.5l-20.1-21.4-12.8 6.2z"/><path class="st17" d="M313.5 669.1s17-4.5 21.7-2.8M312 661.8s11.9-7.9 21.4-3.7M310.8 653.5s11.9-6.1 18.6-2.8M408.1 635.8s8.6-12.3 13.2-11.6M402.9 630s6.2-12.9 12.9-11.7M396.8 624.1s10.3-13.1 14.3-10.8"/><path class="st5" d="M288.4 130.7s-4.1 6.6 4 7.6l102.7-52.6 23.4-10.4s13.2-4.6 28.2 3.4c15 7.9 31.2 15.1 25.7-4.7s-41.3-10.6-41.3-10.6-138.4 61.5-142.7 67.3z"/><path d="M299 390.6s10.5 10.7 34.4 13.1c0 0 53.7-.2 69.2-14.6v-5.7s-62.2 18.6-78 10.2L301 383.4l-2 7.2z" style="fill:#934732"/><path class="st11" d="M331.2 394.6h3.1v9.2h-3.1z"/><path transform="rotate(-8.885 385.119 392.627)" class="st11" d="M383.5 388h3.1v9.2h-3.1z"/><path d="M426.7 309.1s-7.1 25.7-17.2 30.3c0 0 1.8 39.4-6.9 44 0 0-5.4 2.3-14 5-22.4 7.1-66.2 16.5-89.6-7.3 0 0 .8-3.6 2.2-9.7 5.5-23.8 20.8-84.6 37.3-101.8l-20.2.5s1-1.6 2.2-4.8c2.6-7 5.9-21.3.5-42.4l34.9-5.5 53.7 11.9 30.3 21.1s1.6 1.4 3.3 4.2c4.5 7.8 9.5 26-16.5 54.5z" style="fill:#ef505d"/><path class="st9" d="M426.7 309.1s-7.1 25.7-17.2 30.3c0 0 1.8 39.4-6.9 44 0 0-5.4 2.3-14 5l-3.5-.5s13.4-3.4 19.4-20.8c6-17.4 2.3-21.3 2.3-21.3l-11.5 6.6s-4.6 2.5 9.9-12.6c14.4-15.1 21.5-39.2 21.5-39.2 14-13 16.2-35.7 16.3-46 4.7 7.8 9.7 26-16.3 54.5z"/><path class="st12" d="m389.7 262 3.7 19.6 15.2-10.7z"/><path class="st8" d="m419.1 239.2-8.7 31-1.8 6.4s-14.2-9.6-29.6-22.9c-15.4-13.3-30.5-31.6-30.5-31.6L315 168.8l-15.3-21.5h-.9c-1 0-1.7-.7-1.8-1.7l-2-21.9c-.1-1.3.6-2.6 1.8-3.1l11-5.3c1.2-.6 2.6-.8 3.9-.6 14 2.8 22.6 43 22.6 43l48.6 52.7c9.6 7.9 36.2 28.8 36.2 28.8z"/><path class="st9" d="m410.4 270.2-1.8 6.4s-14.2-9.6-29.6-22.9c-15.4-13.3-30.5-31.6-30.5-31.6L315 168.8l-17.8-21.5 20.3 21.1L349 216s43.4 42.8 61.4 54.2z"/><path class="st9" d="M394.4 282.6c17.7-10.7 16.1-46.6 16.1-46.6l27.3 16.5s21.1 25.8-10.1 55.3l-33.3-25.2z"/><path d="M396.4 280.6c17.7-10.7 16.1-46.6 16.1-46.6l27.3 16.5s21.1 25.8-10.1 55.3l-33.3-25.2z" style="fill:#ea495d"/><path class="st9" d="m360.7 249.8-46.8 79.8-12.8 41.9c5.5-23.8 20.8-84.6 37.3-101.8l-20.2.5s1-1.6 2.2-4.8l40.3-15.6z"/><path class="st11" d="M331.9 708.6s-17.7 3.1-24.5-16.5c0 0-9.1-20.2-7-35.2 2.3 5 6.3 14.4 5.7 20.8-.8 9 8.9 19.7 8.9 19.7s10.3 11.5 23.4 4.1c5-2.8 8.1-5.7 10.1-8.2.2 6-2.2 14.3-16.6 15.3zM423.4 659.4s-13.5 4-22.8-7.3c0 0-9.3-12.2-19.4-14.7 0 0-12.2-4.3-17.4-16.5 0 0 .6-1.5 1.5-3.6 3.1 3.4 10.3 11.1 15.1 12.8 6.2 2.2 18.3 11.9 18.3 11.9s4.6 11.7 12.4 12.6c7.8.9 12.6-2.5 17.4-3.7 4.8-1.1 10.6-1 10.9-7.8 1.1 1 2 1.8 2.6 2.3.1-.1.4 14-18.6 14z"/></g></svg>