<svg version="1.1" id="Layer_1" xmlns="http://www.w3.org/2000/svg" xmlns:xlink="http://www.w3.org/1999/xlink" x="0" y="0" viewBox="0 0 1000 710.13" style="enable-background:new 0 0 1000 710.13" xml:space="preserve"><style>.st6{fill:#fff}.st7{opacity:.46;fill:#ff4d53}.st8{fill:#9a5625}.st9{fill:#595959}.st10{fill:#304c95}.st11{fill:#191919}.st12{fill:#13171a}.st13{fill:#bcbec0}.st14{fill:#1b191a}.st16{fill:#6f2fba}.st17{fill:#f2f2f2}.st18{fill:#f0ac7d}.st28{fill:#ebad86}.st29{fill:#f5ac7f}.st30{fill:#1a2c36}.st31{fill:#feac02}.st32{fill:#192853}.st35{fill:#d62422}.st36{opacity:.33;fill:#828282}.st37{opacity:.58;fill:#779e2b}</style><path d="M220.24 691.41c-11.06 0-22.03-2-32.38-5.89-45.5-17.1-165.7-73.51-178.56-195.74-15.9-151.12 30.72-182.1 34.83-187.36 4.11-5.26 77.55-83.55 72.06-165.34-4.9-72.99 168.79-191.93 340.09-84.09 1.49.94 2.89 2.01 4.21 3.16 9.18 7.95 56.68 43.63 168.01 41.65 125.24-2.22 250.35-29.83 302.67 99.58s86.19 167.78 59.48 248.04c-26.7 80.26-8.16 128.4 5.67 162 9.99 24.26-17.72 57.27-33.9 73.75A34.193 34.193 0 0 1 938 691.41H220.24z" style="opacity:.51;fill:#e3d4f9"/><path d="M231.92 677.33c-10.61 0-21.12-1.91-31.04-5.65-43.62-16.4-158.86-70.48-171.19-187.66-15.24-144.87 29.45-174.56 33.39-179.61 3.94-5.05 74.35-80.1 69.09-158.51-4.7-69.98 161.81-184 326.04-80.61 1.43.9 2.77 1.92 4.04 3.03 8.8 7.62 54.34 41.83 161.07 39.93 120.07-2.13 240.01-28.6 290.16 95.47s82.63 160.85 57.03 237.8-7.82 123.1 5.44 155.3c9.58 23.26-16.99 54.91-32.5 70.71a32.802 32.802 0 0 1-23.41 9.81H231.92z" style="fill:#cfb5f6"/><defs><path id="SVGID_1_" d="M242.63 658.55c-6.23 0-12.41-1.05-18.28-3.11-35.08-12.29-155.18-62.62-167.43-179.07-14.37-136.55 27.76-164.54 31.47-169.29 3.71-4.76 70.67-85.11 65.11-149.39-5.73-66.18 154.21-174.5 309.56-74.53 0 0 40.18 41.05 153.34 39.04 113.16-2.01 226.2-26.96 273.47 89.98 47.27 116.93 77.87 151.6 53.75 224.12-24.13 72.52-7.37 116.01 5.13 146.37 6.36 15.45-4.2 34.83-16.11 50.14-12.65 16.26-32.12 25.75-52.73 25.75H242.63z"/></defs><clipPath id="SVGID_2_"><use xlink:href="#SVGID_1_" style="overflow:visible"/></clipPath><g style="clip-path:url(#SVGID_2_)"><path style="opacity:.58;fill:#bebfc1" d="M19.95 561.98h950.18v96.57H19.95z"/><path style="fill:#e1d5f8" d="M19.95 83.16h950.18v481.65H19.95z"/><path style="fill:#7b4dc4" d="M350.57 122.2h252.44v279.26H350.57z"/><path class="st6" d="M363.29 134.61h230.19v252.47H363.29z"/><path class="st7" d="M596.99 360.8h299.88v76.11H596.99z"/><path class="st8" d="M596.99 436.91h299.88v8.04H596.99z"/><path class="st8" d="M616.4 444.94h12.05v135.59H616.4zM866.35 444.94h12.05v135.59h-12.05z"/><path class="st9" d="M821.08 508.58h31.69v74.08h-31.69zM855.43 420.26a.97.97 0 0 1-.97-.97v-24.12c0-.54.44-.97.97-.97s.97.44.97.97v24.12c.01.54-.43.97-.97.97zM865.37 418.02a.97.97 0 0 1-.97-.97v-21.87a.97.97 0 0 1 1.94 0v21.87c.01.53-.43.97-.97.97z"/><path class="st10" d="M808.82 394.52c.13-1.31-.58-2.56-1.78-3.11-3.97-1.84-12.61-4.79-13.64 3.76-1.14 9.53-14.8 60.76-18.76 75.49-.73 2.71 0 5.62 1.98 7.62 3.58 3.63 9.98 8.16 17.23 4.39 0 0 8.04-4.46 8.48-16.52.4-10.73 5.39-60.74 6.49-71.63z"/><path class="st11" d="M775.53 502.75h-77.17c-3.72 0-6.73-3.01-6.73-6.73v-.51c0-3.72 3.01-6.73 6.73-6.73h77.17c3.72 0 6.73 3.01 6.73 6.73v.51c0 3.72-3.01 6.73-6.73 6.73z"/><path class="st11" d="M777.33 492.41h20.09v4.91h-20.09zM804.33 440.93s7.13-3.35 7.03 4.02c-.1 7.37-7.03 49.92-7.03 49.92l-6.91-2.46 6.91-51.48zM733.7 502.75h7.48v62.05h-7.48z"/><path class="st12" d="M737.44 556.32c3.74 2.23 36.14 14.87 36.14 14.87l3.76 7.45h-3.76l-4.28-3.01-32.07-13.95.21-5.36z"/><circle class="st12" cx="775.07" cy="580.85" r="3.24"/><path class="st12" d="M737.62 556.41c-3.74 2.23-36.14 14.87-36.14 14.87l-3.76 7.45h3.76l4.28-3.01 32.07-13.95-.21-5.36z"/><circle class="st12" cx="699.99" cy="580.94" r="3.24"/><g><path class="st9" d="M829.51 520.48c-.21-.17-5.21-4.22-9.28-11.41-2.76-4.89-4.37-8.92-3.27-12.71.8-2.74 2.95-5.02 6.58-6.96 2.81-1.5 4.58-3.77 5.27-6.74 1.16-4.97-.99-10.9-3.62-14.58-4.68-6.52-.34-22.71-.15-23.39l1.88.51c-.04.16-4.29 15.97-.15 21.75 2.68 3.74 5.32 10.21 3.94 16.15-.82 3.54-2.93 6.23-6.25 8.01-3.15 1.69-4.99 3.58-5.63 5.79-.91 3.14.58 6.75 3.1 11.21 3.87 6.85 8.75 10.81 8.8 10.85l-1.22 1.52z"/></g><ellipse class="st9" cx="826.93" cy="433.79" rx="10.31" ry="3.12"/><path class="st10" d="m852.77 412.55 13.58-.56-1.97 24.92h-8.93z"/><g><path class="st13" d="M849.05 517.97h-25.2a.49.49 0 0 1 0-.98h25.2a.49.49 0 0 1 0 .98zM849.05 522.73h-25.2a.49.49 0 0 1 0-.98h25.2a.49.49 0 0 1 0 .98zM849.05 527.49h-25.2a.49.49 0 0 1 0-.98h25.2a.49.49 0 0 1 0 .98zM849.05 532.26h-25.2a.49.49 0 0 1 0-.98h25.2a.49.49 0 0 1 0 .98zM849.05 537.02h-25.2a.49.49 0 0 1 0-.98h25.2a.49.49 0 0 1 0 .98zM849.05 541.78h-25.2a.49.49 0 0 1 0-.98h25.2a.49.49 0 0 1 0 .98zM849.05 546.54h-25.2a.49.49 0 0 1 0-.98h25.2a.49.49 0 0 1 0 .98zM849.05 551.3h-25.2a.49.49 0 0 1 0-.98h25.2a.49.49 0 0 1 0 .98zM849.05 556.06h-25.2a.49.49 0 0 1 0-.98h25.2a.49.49 0 0 1 0 .98zM849.05 560.83h-25.2a.49.49 0 0 1 0-.98h25.2a.49.49 0 0 1 0 .98zM849.05 565.59h-25.2a.49.49 0 0 1 0-.98h25.2a.49.49 0 0 1 0 .98zM849.05 570.35h-25.2a.49.49 0 0 1 0-.98h25.2a.49.49 0 0 1 0 .98zM849.05 575.11h-25.2a.49.49 0 0 1 0-.98h25.2a.49.49 0 0 1 0 .98zM849.05 579.87h-25.2a.49.49 0 0 1 0-.98h25.2a.49.49 0 0 1 0 .98z"/></g><g><path class="st14" d="M718.15 414.33h-97.62c-2.28 0-4.13-1.85-4.13-4.13v-53.54c0-2.28 1.85-4.13 4.13-4.13h97.62c2.28 0 4.13 1.85 4.13 4.13v53.54c0 2.29-1.85 4.13-4.13 4.13z"/><path class="st6" d="M714.13 411.99h-89.58c-2.28 0-4.13-1.85-4.13-4.13v-48.85c0-2.28 1.85-4.13 4.13-4.13h89.58c2.28 0 4.13 1.85 4.13 4.13v48.85c0 2.28-1.85 4.13-4.13 4.13z"/><path class="st14" d="M662.61 414.33h14.48v22.57h-14.48z"/><path class="st14" d="M646.09 430.44h45.53v6.47h-45.53z"/></g><g><path class="st7" d="M56.92 359.95H356.8v76.11H56.92z"/><path class="st8" d="M56.92 436.07H356.8v8.04H56.92z"/><path class="st8" d="M76.34 444.1h12.05v135.59H76.34zM326.28 444.1h12.05v135.59h-12.05z"/><path class="st9" d="M113.93 507.74h31.69v74.08h-31.69zM335.37 426.16a.975.975 0 0 1-1.18-.72L328.52 402a.975.975 0 0 1 .72-1.18.975.975 0 0 1 1.18.72l5.67 23.44c.13.53-.2 1.05-.72 1.18zM338.33 423.06a.97.97 0 0 1-.97-.97v-21.87c0-.54.44-.97.97-.97s.97.44.97.97v21.87c.01.53-.43.97-.97.97z"/><path class="st14" d="M178.08 413.49H80.47c-2.28 0-4.13-1.85-4.13-4.13v-53.54c0-2.28 1.85-4.13 4.13-4.13h97.62c2.28 0 4.13 1.85 4.13 4.13v53.54a4.146 4.146 0 0 1-4.14 4.13z"/><path class="st6" d="M174.07 411.15H84.48c-2.28 0-4.13-1.85-4.13-4.13v-48.85c0-2.28 1.85-4.13 4.13-4.13h89.58c2.28 0 4.13 1.85 4.13 4.13v48.85c0 2.28-1.84 4.13-4.12 4.13z"/><path class="st14" d="M122.54 413.49h14.48v22.57h-14.48z"/><path class="st14" d="M106.02 429.59h45.53v6.47h-45.53z"/><path class="st9" d="M119.59 511.68c-.21-.17-5.21-4.22-9.28-11.41-2.76-4.89-4.37-8.92-3.27-12.71.8-2.74 2.95-5.02 6.58-6.96 2.81-1.5 4.58-3.77 5.27-6.74 1.16-4.97-.99-10.9-3.62-14.58-4.68-6.52-.34-22.71-.15-23.39l1.88.51c-.04.16-4.29 15.97-.15 21.75 2.68 3.74 5.32 10.21 3.94 16.15-.82 3.54-2.93 6.23-6.25 8.01-3.15 1.69-4.99 3.58-5.63 5.79-.91 3.14.58 6.75 3.1 11.21 3.87 6.85 8.75 10.81 8.8 10.85l-1.22 1.52z"/><ellipse class="st9" cx="192.53" cy="433.49" rx="10.31" ry="3.12"/><path class="st10" d="m331.55 417.86 13.57-.41-1.97 18.05h-8.92z"/><g><path class="st10" d="M162.05 391.83c-.13-1.31.58-2.56 1.78-3.11 3.97-1.84 12.61-4.79 13.64 3.76 1.14 9.53 14.8 60.76 18.76 75.49.73 2.71 0 5.62-1.98 7.62-3.58 3.63-9.98 8.16-17.23 4.39 0 0-8.04-4.46-8.48-16.52-.4-10.73-5.4-60.75-6.49-71.63z"/><path class="st11" d="M195.34 500.06h77.17c3.72 0 6.73-3.01 6.73-6.73v-.51c0-3.72-3.01-6.73-6.73-6.73h-77.17c-3.72 0-6.73 3.01-6.73 6.73v.51c0 3.72 3.01 6.73 6.73 6.73z"/><path transform="rotate(-180 183.488 492.168)" class="st11" d="M173.44 489.71h20.09v4.91h-20.09z"/><path class="st11" d="M166.53 438.23s-7.13-3.35-7.03 4.02c.1 7.37 7.03 49.92 7.03 49.92l6.91-2.46-6.91-51.48z"/><path transform="rotate(-180 233.428 531.085)" class="st11" d="M229.69 500.06h7.48v62.05h-7.48z"/><path class="st12" d="M233.43 553.63c-3.74 2.23-36.14 14.87-36.14 14.87l-3.76 7.45h3.76l4.28-3.01 32.07-13.95-.21-5.36z"/><circle class="st12" cx="195.8" cy="578.15" r="3.24"/><g><path class="st12" d="M233.24 553.72c3.74 2.23 36.14 14.87 36.14 14.87l3.76 7.45h-3.76l-4.28-3.01-32.07-13.95.21-5.36z"/><circle class="st12" cx="270.88" cy="578.25" r="3.24"/></g></g><g><path class="st13" d="M141.87 514.85h-25.2a.49.49 0 0 1 0-.98h25.2a.49.49 0 0 1 0 .98zM141.87 519.61h-25.2a.49.49 0 0 1 0-.98h25.2a.49.49 0 0 1 0 .98zM141.87 524.37h-25.2a.49.49 0 0 1 0-.98h25.2a.49.49 0 0 1 0 .98zM141.87 529.13h-25.2a.49.49 0 0 1 0-.98h25.2a.49.49 0 0 1 0 .98zM141.87 533.89h-25.2a.49.49 0 0 1 0-.98h25.2a.49.49 0 0 1 0 .98zM141.87 538.66h-25.2a.49.49 0 0 1 0-.98h25.2a.49.49 0 0 1 0 .98zM141.87 543.42h-25.2a.49.49 0 0 1 0-.98h25.2a.49.49 0 0 1 0 .98zM141.87 548.18h-25.2a.49.49 0 0 1 0-.98h25.2a.49.49 0 0 1 0 .98zM141.87 552.94h-25.2a.49.49 0 0 1 0-.98h25.2a.49.49 0 0 1 0 .98zM141.87 557.7h-25.2a.49.49 0 0 1 0-.98h25.2a.49.49 0 0 1 0 .98zM141.87 562.46h-25.2a.49.49 0 0 1 0-.98h25.2a.49.49 0 0 1 0 .98zM141.87 567.23h-25.2a.49.49 0 0 1 0-.98h25.2a.49.49 0 0 1 0 .98zM141.87 571.99h-25.2a.49.49 0 0 1 0-.98h25.2a.49.49 0 0 1 0 .98zM141.87 576.75h-25.2a.49.49 0 0 1 0-.98h25.2a.49.49 0 0 1 0 .98z"/></g></g><path style="opacity:.58;fill:#3a3a3a" d="M128.93 191.83h140.62v84.37H128.93z"/><g><circle class="st16" cx="701.39" cy="225.27" r="31.49"/><circle class="st17" cx="701.39" cy="225.27" r="28.13"/><circle class="st16" cx="701.39" cy="225.27" r="3.31"/><path class="st16" d="M702.37 226.25h-13.42v-1.95h11.47v-15.73h1.95zM700.42 197.14h1.95v6.97h-1.95zM722.28 224.3h7.24v1.95h-7.24zM673.27 224.3h7.64v1.95h-7.64zM700.42 247.86h1.95v5.54h-1.95z"/></g><g><circle class="st16" cx="783.23" cy="226.25" r="31.49"/><circle class="st17" cx="783.23" cy="226.25" r="28.13"/><circle class="st16" cx="783.23" cy="226.25" r="3.31"/><path class="st16" d="M782.26 198.12h1.95v6.97h-1.95zM804.12 225.27h7.24v1.95h-7.24zM755.11 225.27h7.64v1.95h-7.64zM782.26 248.83h1.95v5.54h-1.95z"/><path transform="rotate(-46.203 778.223 221.335)" class="st16" d="M777.19 215.66h1.95v11.36h-1.95z"/><path class="st16" d="M782.26 208.57h1.95v17.67h-1.95z"/></g><g><circle class="st16" cx="865.37" cy="225.98" r="31.49"/><circle class="st17" cx="865.37" cy="225.98" r="28.13"/><circle class="st16" cx="865.37" cy="225.98" r="3.31"/><path class="st16" d="M864.4 197.85h1.95v6.97h-1.95zM886.25 225h7.24v1.95h-7.24zM837.24 225h7.64v1.95h-7.64zM864.4 248.56h1.95v5.54h-1.95z"/><path transform="rotate(-42.135 860.268 231.743)" class="st16" d="M854.62 230.78h11.36v1.95h-11.36z"/><path class="st16" d="M864.4 208.3h1.95v17.67h-1.95z"/></g><g><path class="st18" d="M496.69 490.11s2.38 7.14 0 12.5 2.68 44.94 2.68 44.94l2.38 26.78 11.61-1.19s0-52.68 2.08-60.41c2.08-7.74 5.36-19.64 2.68-22.62-2.68-2.98-21.43 0-21.43 0z"/><path class="st18" d="M526.75 488.78s1.79 10.85-2.08 18.58l-2.38 16.37-1.49 48.51h-12.4v-83.38l18.35-.08z"/><path d="M508.73 573.35s10.63 1.71 12.42-2.16l23.81 13.69s5.06 3.27-1.19 4.46-18.19 0-18.19 0-5.61-5.95-12.76-6.25l.3 6.78h-2.98l-.6-7.97s-2.1-2.99-.81-8.55z" style="fill:#282828"/><path class="st12" d="M500.94 572.38s10.63 2.68 12.42-1.19l23.81 13.69s5.06 3.27-1.19 4.46-18.19 0-18.19 0-5.61-5.95-12.76-6.25l.3 6.78h-2.98l-.6-7.97s-2.1-3.96-.81-9.52z"/><path style="fill:#fde9aa" d="M559.04 385.11h53.57v34.52h-53.57z"/><path class="st18" d="m551.91 377.8 11.74 1.89s9.82 1.49 11.31 5.95c1.49 4.46-2.98 8.93-7.44 5.65-4.46-3.27-6.84-3.27-6.84-3.27l-11.01.6 2.24-10.82zM492.53 301.13c-.89.89-1.79 20.83-1.79 20.83l25.89 2.68s-10.12-16.76-9.18-21.43-14.92-2.08-14.92-2.08z"/><ellipse class="st18" cx="510.86" cy="284.57" rx="15.82" ry="19.08"/><path class="st12" d="M484.49 414.33s-2.44 10.3 4.88 29.64l3.45 49.4h36.6l3.27-80.83-48.2 1.79z"/><path d="m490.74 312.53 22.92 3.18 13.02 22.02s10.04 12.5 0 21.13c0 0-3.65 11.61 0 29.46 3.65 17.86 6.62 26.01 6.62 26.01s-25.3 9.11-50.29 3.45c0 0-.13-1.32-.19-3.45-.19-5.88.07-17.91 4.66-25.12 0 0 4.46-25.89.3-33.63-.01.01-6.56-32.55 2.96-43.05z" style="fill:#ff4d53"/><path d="M509.64 281.34s-4.74-5.21 2.83-9.08c7.89-4.03 10.38-1.12 10.38-1.12s.06-9.29-8.22-12.48c-9.08-3.5-16.93-1.24-21.42 1.68-2.64 1.72-4.59 4.32-5.56 7.31-.91 2.81-1.82 6.72-1.67 10.86.3 8.04-.02 27.08-.02 27.08s2.8 1.06 7.46 2.08c4.76 1.04 18.75.03 18.75.03s-4.14-9.95-6.67-13.72c-2.06-3.06-3.03-7.29-3.03-7.29s-5.85-9.34-1.6-8.49c4.25.85 6.25 3.66 6.25 3.66l1.93 1.73.59-2.25z" style="fill:#191a1c"/><ellipse transform="rotate(-24.066 503.473 281.35)" class="st18" cx="503.44" cy="281.34" rx="4.26" ry="5.7"/><path d="M489.56 332.56c-.12-1.08 2.06-5.41 2.97-6 3.68-2.36 11.5-3.9 15.51 5.89 5.03 12.28 3.91 36.6 3.91 36.6s-.45 2.68 3.57 4.02c4.02 1.34 38.17 2.9 38.17 2.9v15.62l-47.54-2.01s-12.95.75-12.95-11.79c0-10.87-2.88-38.2-3.64-45.23z" style="fill:#ef4d59"/></g><g><path class="st9" d="M667.96 486.01c0 1.79 7.14 82.58 7.14 82.58s21.65 2.9 21.87 1.12c.22-1.79.67-61.13.67-61.13l-29.68-22.57z"/><path class="st11" d="m675.11 568.6-5.26 3.65s-23.31 2.38-19.29 10.42h46.8l-.37-12.95-21.88-1.12z"/><path class="st18" d="M748.05 348.59c.13-6.07.19-13.45-.21-13.88h16.1l1.33 4.21 5.59 17.64h-23.02c0-.01.12-3.66.21-7.97z"/><path d="M748.05 348.59c.13-6.07.19-13.45-.21-13.88h16.1l1.33 4.21-17.22 9.67z" style="opacity:.12;fill:#3a3c3b"/><ellipse class="st18" cx="747.84" cy="322.65" rx="14.95" ry="19"/><path d="M783.81 458.56s2.9 27.45-8.04 31.69c-10.94 4.24-75.89 0-75.89 0s-6.7-1.56-2.46 4.69 34.37 59.15 34.37 59.15l-14.51 7.59-54.68-74.33s-5.36-18.08 12.95-26.11 60.6-5.3 60.6-5.3l47.66 2.62z" style="fill:#303030"/><path class="st11" d="M731.07 552.97s7.95 10.04 7.06 13.84l-8.26 5.58-4.02-2.1-21.87 12.36s-9.82-.67-3.57-8.93 17.04-13.16 17.04-13.16l13.62-7.59z"/><path style="opacity:.58;fill:#3a3c3b" d="m739.84 419.64-48.22 5.98v11.29h51.79z"/><path d="M770.86 350.53s9.82 16.94 10.27 34.58 4.46 77.69 4.46 77.69-43.52 2.46-49.77-3.35c0 0 3.35-25.89-4.24-56.02-7.59-30.13 16.44-52.9 16.44-52.9h22.84z" style="fill:#446eab"/><path class="st9" d="M737.55 297.82s-10.13 10.57 2.5 16.05c0 0 9.15-2.75 7.7 4.99-1.46 7.74-.86 8.98-.86 8.98h1.9s4.99-15.16 7.25-4.81c.99 4.55.17 3.23-.69 5.86-1.12 3.45-.64 7.43 1.41 10.2 1.39 1.87 3.48 3.15 6.59 2.26 0 0 8.87-10.03 7.35-28.73-1.52-18.71-12.96-14.97-12.96-14.97l-20.19.17z"/><ellipse transform="rotate(-75.877 755.583 321.938)" class="st18" cx="755.61" cy="321.95" rx="5.48" ry="3.96"/><path class="st18" d="M691.62 428.27h-8.82s-13.5-8.64-20.2 0c-6.7 8.64-4.46 8.64-4.46 8.64H691.62v-8.64zM722.28 480.43H707.7s-3.57 3.57 0 3.57 11.26 2.75 6.5 4.78c-4.77 2.03-12.43 2.08-13.19 6.38-.77 4.3 8.03 14.28 16.29 7.14s12.8-16.29 12.8-16.29l-7.82-5.58z"/><path class="st6" d="M749.96 376.3c4.14-4.85 11.85-11.1 18.95-1.57 1.29 1.73 2 3.82 2.12 5.96l2.55 44.93s-.77 13.72-10.78 27.34c-10.01 13.63-32.7 37.29-32.7 37.29l-9.9-8.93 27.65-38.39s5.1-10.52 3.9-17.31c-.95-5.4-3.43-30.76-4.41-40.94-.3-3.03.64-6.06 2.62-8.38z"/></g><path class="st6" d="M137.78 197.14h122.91v73.75H137.78z"/><g><path class="st28" d="m282.72 414.33 10.94 1.59s10.71-.46 11.38 4.35c.67 4.8-3.12 8.87-7.81 7.17-4.69-1.7-16.52-4.39-16.52-4.39l2.01-8.72zM209.29 348.52l-2.43 17.86h20.98l-4.94-23.44z"/><ellipse class="st29" cx="227.84" cy="333.03" rx="14.26" ry="18.66"/><path class="st30" d="M223.35 331.04s-4.26 1.48-5.48 5.24c-1.22 3.76.34 15.46-8.14 15.41 0 0-12.28-13-8.04-29.29s20.68-15.32 20.68-15.32 13.03-.17 18.38 10.19c0 0 1.56 2.01 0 5.36.01 0-19.86-3.93-17.4 8.41z"/><path class="st30" d="M209.96 312.36s-.67 10.94-3.1 6.7c-.41-.72-.86-1.14-1.31-1.32v-.01c-2.24-.97-4.74 3.34-4.74 3.34s2.68 7.37 0 21.88c-2.57 13.94-14.63 7.27-15.56 6.73.36.16 2.14.76 3.81-2.04 1.85-3.12.82-16.07.15-25-.66-8.93.67-12.05 7.3-14.29 3.85-1.29 7.77.26 10.37 1.8v.01c1.87 1.1 3.08 2.2 3.08 2.2z"/><ellipse transform="rotate(-18.195 217.896 331.041)" class="st29" cx="217.87" cy="331.04" rx="3.57" ry="5.6"/><path class="st31" d="m241.45 407.77 42.83 5.72-1.56 13.27-45.98-.57z"/><path class="st28" d="M266.2 427.45s14.73-3.04 16.52-.69c0 0 6.92 3.31 7.59 7.29.67 3.98-8.26 1.46-8.26 1.46l-3.78-1.46-10.06 2.02-3.57-.57 1.56-8.05z"/><path class="st32" d="M279.15 567.23c-.67.48 0 14.26 0 14.26l10.27-.09s.22-5.96 4.69-3.24c4.46 2.72 5.8 4.73 5.8 4.73h16.96s2.23-6.32-3.12-6.62c-5.36-.3-21.64-10.01-21.64-10.01s14.66 9.4 5.99 8.11-18.95-7.14-18.95-7.14z"/><path class="st32" d="M288.66 561.49c-.67.48 0 14.26 0 14.26l10.27-.09s.22-5.96 4.69-3.24c4.46 2.72 5.8 4.73 5.8 4.73h16.96s2.23-6.32-3.12-6.62c-5.36-.3-20.89-9.04-20.89-9.04s12.61 7.83 5.24 7.13c-8.74-.82-18.95-7.13-18.95-7.13z"/><path class="st28" d="M303.48 469.72s12.05-.12 11.83 9.54c-.22 9.66-12.95 82.23-12.95 82.23s4.91 4.43 11.16 7.55c0 0-.69 4.23-11.16-.89s-12.05-5.69-12.05-5.69l6.47-59.49c0 .01 5.13-32.36 6.7-33.25z"/><path class="st28" d="m279.15 497.84.89 70.53s18.53 7.24 22.99 6.64c4.46-.61-7.37-5.59-10.49-7.78-3.12-2.2 6.03-52.38 6.03-52.38s9.58-32.08 5.46-35.59-8.36-2.84-8.36-2.84l-16.52 21.42z"/><path d="M196.5 472.4s-4.12 15.69 6.34 20.68 72.74 2.31 76.98 7.22c0 0 23.21-1.34 25.22-31.47 0 0-46.87-4.69-55.35-8.26-8.48-3.57-7.59-2.01-7.59-2.01l-45.6 13.84z" style="fill:#4570ad"/><path class="st31" d="M207.5 361.69s13.69 3.9 19.79 2.06l11.46 22.94s9.82 10.26 6.03 19.64c-3.79 9.37-1.16 39.06.87 42.41 2.03 3.35 4.04 9.82 4.04 9.82s-22.21 18.01-54.3 15.54c0 0-1.05-26.02 5.66-40.47 1.18-2.53 1.88-5.26 1.91-8.05.09-7.49-.17-22.18-3.05-32.42-4.02-14.28 7.59-31.47 7.59-31.47z"/><path class="st31" d="M203.91 380.07c3.8-2.42 10.44-4.45 16.09 5.06 0 0 6.03 31.11 5.58 33.3-.45 2.19-.45 3.6 5.8 3.23 6.25-.37 36.83 4.53 36.83 4.53v9.88l-48.43 1.41s-8.7.49-9.82-5.62c-.93-5.08-6.65-35.82-8.54-45.99-.43-2.27.55-4.57 2.49-5.8z"/><path d="M209.96 312.36s-.67 10.94-3.1 6.7c-.41-.72-.86-1.14-1.31-1.32v-.01l1.31-7.57c1.89 1.1 3.1 2.2 3.1 2.2z" style="fill:#fcb63a"/></g><g><path class="st35" d="M321.33 436.47h-12.71c-.87 0-1.57-.7-1.57-1.57v-16.48h15.85v16.48c0 .87-.71 1.57-1.57 1.57z"/><path class="st35" d="M307.21 433.81c-1.4 0-2.56-.35-3.47-1.05-1.43-1.1-1.66-2.62-1.68-2.79l-.23-4.76c-.07-1.5.37-2.74 1.3-3.69 1.89-1.93 5.14-1.88 5.27-1.87l.95.02v13.94l-.84.12c-.45.05-.88.08-1.3.08zm.2-12.16c-.86.11-2.1.42-2.89 1.22-.55.56-.79 1.29-.74 2.24l.22 4.69c.03.17.43 2.1 3.41 2.05v-10.2z"/></g><path class="st36" d="M153.5 213.26h18.89v37.37H153.5zM219.37 213.26h18.89v37.37h-18.89zM195.48 197.14h2.26v73.75h-2.26z"/><g><path class="st8" d="M933.22 553.36c-.71-.28-17.3-7.56-.66-64.6 5.66-19.41 4.62-40.08-2.93-58.21-.26-.62-.53-1.25-.8-1.89l1.79-.78c.28.64.55 1.28.81 1.91 7.72 18.53 8.79 39.66 3.01 59.5-16.02 54.94-.64 62.19-.48 62.25l-.74 1.82z"/><path class="st37" d="M928.22 521.16s1.79-29.99 30.8-28.76c0 0 .89 28.08-12.95 31.4-13.84 3.31-17.85-2.64-17.85-2.64zM937.53 477.64s8.66-32.48 35.1-25.21c-.01.01-5.39 39.4-35.1 25.21zM926.12 527.01s1.61-22.47-21.43-24.25c-23.03-1.79-10.71 0-10.71 0s-2.67 27.85 12.5 33.29c15.16 5.43 19.64-9.04 19.64-9.04zM930.12 497.32s4.22-20.01-9.18-25.36c-13.39-5.36-14.28-4.44-14.28-4.44s-5.8 21.27 4.02 28.25 16.67 12.02 19.44 1.55zM931.71 443.54s-13.38-22.51-27.54-10.61c0 0-5.35 19.25 13.46 23.76 18.81 4.51 14.08-13.15 14.08-13.15zM938.04 449.48c-1.83-.34 5.41-38.08 18.75-37.49 0 0 10.27 1.63 6.25 18.74-4.02 17.12-8.93 21.72-25 18.75zM931.1 429.96s-19.34-7.75-7.21-29.53c-.01 0 22.8 6.23 7.21 29.53z"/></g><path style="fill:#828282" d="m903.22 541.78 50-.97-4.47 41.85h-40.17z"/></g></svg>