<svg version="1.1" id="Layer_1" xmlns="http://www.w3.org/2000/svg" x="0" y="0" viewBox="0 0 954.25 615.28" style="enable-background:new 0 0 954.25 615.28" xml:space="preserve"><style>.st2{fill:#8a22e1}.st3{fill:#8ac1b3}.st4{fill:#faa40d}.st6{fill:#808285}.st7{fill:#ee505d}.st11{fill:#fb9392}.st15{opacity:.13}.st16{fill:#1d1d1e}.st18{fill:#fff}.st19{fill:#050634}.st20{fill:#caa6ee}.st21{fill:#b7bdf9}.st24{fill:#fb9799}.st25{fill:#f8908f}.st27{fill:#c16f6f}.st29{fill:#160a32}.st30{fill:#fcb0ae}.st33{fill:#4851ec}.st35{fill:#f77269}.st36{fill:#fffeff}.st37{fill:#f1f2f2}.st39{fill:#8759ea}</style><path d="M124.7 609.59S-11.64 528.65 16.76 404.38c0 0-1.42-97.5 95.16-151.54 0 0 44.03-50.85 49.71-131.81S345.81-13.89 446.17 3.15 619.9 69.66 686.89 70.49c55.96.69 140.19 13.35 184.83 77.93 14.16 20.48 19.17 45.87 14.54 70.33-6.46 34.09-9.7 95.74 33.85 146.29 63.85 74.12 27.66 222.98-23.13 250.23l-772.28-5.68z" style="fill:#e6d0f9"/><g style="opacity:.49"><path class="st2" d="m881.38 389.14 2.45-.21c-4.46-52.09 7.85-108.9 18.96-147.38 12.04-41.72 25.3-71.46 25.43-71.76l-2.24-1.01c-.13.3-13.46 30.2-25.55 72.08-11.17 38.69-23.54 95.81-19.05 148.28z"/><path class="st2" d="M924.5 174.48c20.26-26.12 21.49-26.01 39.81-39.75 4.16-3.12 5.04-9.81 1.59-13.71-3.75-4.23-11.58-4.33-27.88 15.41.01 0-9.52 11.19-13.52 38.05zM914.01 203.05c24.89-19.12 20.52-13.18 40.76-22.8 4.48-2.13 8.16-6.51 5.88-10.9-2.49-4.78-8.25-10.98-27.98 3.23 0 0-8.67 6.79-18.66 30.47zM901.56 241.39c26.13-17.39 23.76-12.73 44.6-20.95 4.61-1.82 8.59-5.94 6.6-10.48-2.16-4.94-7.49-11.51-28.13 1.33 0-.01-11.5 7.14-23.07 30.1zM889.75 289.82c26.84-25.07 24.79-19.17 46.92-32.54 4.89-2.96 8.79-8.5 6.02-13.48-3.02-5.41-9.77-12.17-31.09 6.58 0 0-11.88 10.44-21.85 39.44zM913.93 201.43s12.39-81.93-5.93-69.94 5.93 69.94 5.93 69.94zM901.47 239.99s-37.47-85.78-14.43-81.48c23.04 4.3 14.43 81.48 14.43 81.48zM889.57 287.86s1.41-56.58-11.42-68.81c0 0-9.32-12.67-16-2.01s21.8 46.18 27.42 70.82zM881.85 335.18s1.71-47.38-18.33-47.74c0 0-13.97 2.47 18.33 47.74zM883.12 340.2s10.7-35.26 22.61-45.03c0 0 14.94-12.77 16.96 1.48 0 .01-3.17 14.56-39.57 43.55z"/></g><path class="st3" d="m868.8 401.99-2.45-.21c4.46-52.09-7.85-108.9-18.96-147.38-12.04-41.72-25.3-71.46-25.43-71.76l2.24-1.01c.13.3 13.46 30.2 25.55 72.08 11.17 38.68 23.54 95.81 19.05 148.28z"/><path class="st3" d="M825.68 187.32c-20.26-26.12-21.49-26.01-39.81-39.75-4.16-3.12-5.04-9.81-1.59-13.71 3.75-4.23 11.58-4.33 27.88 15.41-.01.01 9.52 11.19 13.52 38.05zM836.17 215.9c-24.89-19.12-20.52-13.18-40.76-22.8-4.48-2.13-8.16-6.51-5.88-10.9 2.49-4.78 8.25-10.98 27.98 3.23 0-.01 8.67 6.78 18.66 30.47zM848.63 254.23c-26.13-17.39-23.76-12.73-44.6-20.95-4.61-1.82-8.59-5.94-6.6-10.48 2.16-4.94 7.49-11.51 28.13 1.33-.01 0 11.49 7.15 23.07 30.1zM860.44 302.67c-26.84-25.07-24.79-19.17-46.92-32.54-4.89-2.96-8.79-8.5-6.02-13.48 3.02-5.41 9.77-12.17 31.09 6.58 0 0 11.87 10.44 21.85 39.44zM836.25 214.28s-12.39-81.93 5.93-69.94c18.34 12-5.93 69.94-5.93 69.94zM848.72 252.84s37.47-85.78 14.43-81.48c-23.05 4.3-14.43 81.48-14.43 81.48zM860.61 300.7s-1.41-56.58 11.42-68.81c0 0 9.32-12.67 16-2.01 6.69 10.66-21.8 46.19-27.42 70.82zM868.33 348.02s-1.71-47.38 18.33-47.74c0 0 13.98 2.47-18.33 47.74zM867.07 353.05s-10.7-35.26-22.61-45.03c0 0-14.94-12.77-16.96 1.48-.01 0 3.16 14.56 39.57 43.55z"/><g><path class="st4" d="M904.39 321.04s7.28-35.67-5.41-32.99 5.41 32.99 5.41 32.99zM894.01 356.29s1.98-43.89-12.14-38.11c-14.11 5.78 12.14 38.11 12.14 38.11z"/><path class="st4" d="M894.01 356.29s1.98-43.89-12.14-38.11c-14.11 5.78 12.14 38.11 12.14 38.11zM895.21 354.31s29.86-32.22 35.66-18.11c5.79 14.11-35.66 18.11-35.66 18.11zM906.85 320.9s25-23.31 30.57-11.6c5.57 11.72-30.57 11.6-30.57 11.6z"/><path class="st4" d="m892.42 396.14 2.33-.79c-11.08-32.43 20.49-92.81 20.81-93.42l-2.17-1.15c-1.34 2.51-32.39 61.92-20.97 95.36z"/><path class="st4" d="M913.03 304.01s41.88-28.62 25.94-31.26c-17.5-2.9-25.94 31.26-25.94 31.26z"/></g><g><path style="fill:#2d2d2d" d="M277.38 456.21h661.13v26.27H277.38z"/><path class="st6" d="m704.7 603.89-6.31-.98 20.22-120.42 6.31.98zM907.97 603.89l6.31-.98-20.22-120.42-6.31.98z"/></g><g><path class="st7" d="M841.08 374.31h73.2v88.05h-73.2z"/><path style="opacity:.26;fill:#0a0a0a" d="M893.25 374.31h21.03v88.05h-21.03z"/><path class="st7" d="M829.43 449.59c4.79 0 10.44-1.08 16.91-3.23 1.52-.51 2.32-2.08 1.78-3.5-.54-1.43-2.21-2.17-3.73-1.67-10.87 3.62-18.92 3.88-23.27.74-4.39-3.16-3.94-9.13-3.93-9.19l.01-.23v-29.65c1.45-4.05 3.86-6.79 7.37-8.36 8.23-3.69 19.61.44 19.73.48 1.5.56 3.2-.14 3.79-1.54.59-1.41-.14-3-1.64-3.56-.56-.21-13.82-5.06-24.37-.35-5.11 2.28-8.67 6.34-10.59 12.07l-.13.4v30.4c-.08 1.22-.35 9.09 6.15 13.83 3.05 2.24 7.04 3.36 11.92 3.36z"/><path style="opacity:.46;fill:none;stroke:#331c2d;stroke-linecap:round;stroke-miterlimit:10" d="M853.94 387.48v62.11"/></g><path d="M287.32 605.34H81.39V338.09c0-22.23 18.02-40.24 40.24-40.24h165.7v307.49z" style="fill:#4e8ac4"/><g><path class="st11" d="M273.12 297.85h4.26v8.53c-26.27 11.37-54.26-6.39-54.26-6.39 8.04-.41 9.24-23.65 8.82-43.2-.31-14.32-1.49-26.66-1.49-26.66l46.93 32.94-3.5 28.54-.76 6.24z"/><path d="m277.38 263.06-3.5 28.54-41.94-34.82c-.31-14.32-1.49-26.66-1.49-26.66l46.93 32.94z" style="opacity:.21"/><ellipse transform="rotate(-36.366 223.146 231.166)" class="st11" cx="223.13" cy="231.15" rx="8.59" ry="11.73"/><ellipse transform="rotate(-53.634 306.653 224.977)" class="st11" cx="306.64" cy="224.96" rx="11.73" ry="8.59"/><ellipse transform="rotate(-15.334 267.03 214.237)" class="st11" cx="266.98" cy="214.23" rx="42.26" ry="57.76"/><path d="M309.95 214.23s-4.17-30.71-15.53-29.29c-11.36 1.42-41.19-4.26-41.19-4.26s-26.27-4.09-19.17 16.77c0 0 .71 23-4.97 36.49 0 0-12.78-10.66-24.85-46.87 0 0-2.84-40.48 32.67-54.68 0 0 28.2-7.1 30.08-11.36 0 0-11.19 27.7-16.73 24.85l50.56-12.07-14.2 13.49s29.83 3.55 37.64 2.13c0 0-13.91 34.8-17.61 28.05-.01.01 6.76 21.3 3.3 36.75z" style="fill:#232323"/><path d="M175.12 562.73s-4.97 17.04 53.97 42.61h241.44s-4.26-15.62-65.33-48.29l-69.59-25.56c0-.01-144.86 46.86-160.49 31.24z" style="fill:#2a649e"/><path class="st11" d="M403.78 310.17s-14.2-23.68-19.88-25.81c-5.68-2.13-13.49-9.23-13.49-9.23s-2.84-11.36 16.69 0c0 0-15.98-39.05-8.17-41.18 7.81-2.13 8.09 11.36 8.09 11.36s-1.7-15.62 5.4-11.36c7.1 4.26 5.68 11.36 5.68 11.36s1.42-17.75 8.52-6.39 5.68 15.62 5.68 15.62-1.42-18.46 4.97-10.65c6.39 7.81 4.26 26.26 4.26 26.26s9.94 5.69 7.81 17.77c-2.13 12.07-3.44 25.01-3.44 25.01l-22.12-2.76z"/><path class="st4" d="M229.22 289.48s12.66 15.47 43.9 8.37c0 0 21.86-6.25 45.45 17.77 0 0 23.43 25.55 29.83 48.99 6.39 23.43 19.88 22.01 24.14 8.52 4.26-13.49 26.27-69.59 26.27-69.59l27.7.71s-8.52 129.24-15.62 143.45-29.12 31.96-56.81 6.39l-29.26-26.27s2.27 91.61 20.03 104.39c0 0-85.22 58.23-173.27 38.35l-9.94-28.41s-52.55-19.17-55.39-53.26c-4.19-50.24 3.55-120.72 3.55-120.72s3.55-28.91 37.02-42.45c5.1-2.06 9.81-4.97 14.43-7.96 9.9-6.41 27.82-17.31 42.04-22 7.2-2.38 12.16-4.15 19.84-5.24l6.09-1.04z"/><g class="st15"><path class="st16" d="M124.7 346.61c2.23-1.79 4.66-3.32 7.2-4.65 2.54-1.32 5.21-2.41 7.99-3.14 2.78-.73 5.67-1.1 8.56-.94 2.88.16 5.75.88 8.36 2.15 5.27 2.53 9.27 7.09 12.2 12.02 2.95 4.98 4.96 10.42 6.56 15.94l.02.08v.1l-1.51 40.84-1.62 40.84-.01.13-.06.16c-1.65 4.65-2.54 9.75-2.29 14.69.14 2.47.61 4.92 1.52 7.18s2.29 4.3 4.04 5.97c.81.74 1.88 1.34 2.99 1.86 1.11.51 2.28.96 3.47 1.35 2.38.78 4.84 1.41 7.32 1.96 4.96 1.08 9.99 1.91 15.04 2.64 10.1 1.43 20.28 2.43 30.46 3.25 10.19.81 20.4 1.44 30.6 1.88l.8.03.03.79 1.32 31.91.03.63-.62.12-50.6 9.49-50.63 9.31 50.46-10.21 50.49-10.02-.59.75-1.58-31.89.83.82c-10.25-.39-20.47-.99-30.68-1.76-10.22-.78-20.42-1.74-30.59-3.14-5.08-.7-10.16-1.53-15.19-2.67-2.52-.57-5.02-1.22-7.5-2.04-1.24-.41-2.47-.88-3.67-1.45-1.2-.57-2.4-1.22-3.48-2.21a18.893 18.893 0 0 1-4.47-6.66c-.99-2.5-1.49-5.14-1.63-7.78-.24-5.29.69-10.47 2.46-15.45l-.06.29 1.83-40.83 1.94-40.82.02.18c-1.52-5.47-3.46-10.85-6.28-15.76-2.79-4.88-6.6-9.37-11.66-11.91a21.151 21.151 0 0 0-8.1-2.23c-2.82-.21-5.67.11-8.43.78-5.51 1.39-10.72 4-15.29 7.42z"/></g><g class="st15"><path class="st16" d="M296.55 386.62c2.7 3.2 5.23 6.51 7.71 9.86 2.49 3.34 4.88 6.75 7.25 10.17 2.34 3.44 4.66 6.9 6.89 10.42 2.23 3.52 4.41 7.07 6.42 10.74-2.7-3.2-5.23-6.51-7.71-9.86-2.49-3.34-4.88-6.75-7.25-10.17-2.34-3.44-4.66-6.9-6.88-10.42-2.24-3.52-4.41-7.08-6.43-10.74z"/></g><path d="M340.95 451.95h64.83c7.64 0 12.83 7.77 9.89 14.83l-28.46 68.48a26.134 26.134 0 0 1-24.15 16.11h-56.24c-8.57 0-14.45-8.63-11.31-16.6l27.87-70.85a18.888 18.888 0 0 1 17.57-11.97z" style="fill:#d4d4d8"/><path class="st11" d="M265.75 496.69s17.31 2.84 26.54-3.55 23.43-8.52 25.56-12.78c2.13-4.26 7.81-.08 0 8.48s-11.36 16.37-4.97 12.11c6.39-4.26 36.01-8.75 32.67 9.94-3.35 18.69-31.96 19.88-45.45 16.33-13.49-3.55-33.12-7.1-33.12-7.1l-1.23-23.43z"/><circle class="st18" cx="361.51" cy="490.52" r="8.04"/></g><g><path class="st19" d="M769.47 399.4H469.15c-5.51 0-9.97-4.47-9.97-9.97V184.26c0-5.51 4.47-9.97 9.97-9.97h300.32c5.51 0 9.97 4.47 9.97 9.97v205.16c0 5.51-4.46 9.98-9.97 9.98z"/><path class="st18" d="M466.99 180.68h305.36v203.1H466.99z"/><path class="st19" d="M587.71 393.72h57.52v61.78h-57.52z"/><path class="st19" d="M567.11 443.43h99.18v12.78h-99.18z"/><path class="st20" d="M472.67 185.41h106.99v191.26H472.67z"/><circle class="st18" cx="492.55" cy="203.88" r="8.28"/><circle class="st18" cx="492.55" cy="241.49" r="8.28"/><circle class="st18" cx="492.55" cy="282.23" r="8.28"/><circle class="st18" cx="492.55" cy="321.21" r="8.28"/><path class="st18" d="M484.26 351.11h85.45v17.04h-85.45zM510.54 195.59h25.09v2.06h-25.09zM510.54 202.85h54.92v2.06h-54.92zM510.54 211.13h42.13v2.06h-42.13zM510.54 232.18h25.09v2.06h-25.09zM510.54 240.46h56.57v2.06h-56.57zM510.54 246.4h42.13v2.06h-42.13z"/><g><path class="st18" d="M510.54 272.91h25.09v2.06h-25.09zM510.54 281.2h54.92v2.06h-54.92zM510.54 287.42h42.13v2.06h-42.13z"/></g><g><path class="st18" d="M510.54 311.89h25.09v2.06h-25.09zM510.54 320.08h54.92v2.06h-54.92zM510.54 327.35h42.13v2.06h-42.13z"/></g><path class="st21" d="M584.39 185.41h84.98v95.63h-84.98z"/><path style="opacity:.46;fill:#f97068" d="M669.5 185.41h84.98v96.66H669.5z"/><path style="opacity:.46;fill:#dde8fe" d="M584.39 281.09h84.98v96.66h-84.98z"/><path class="st21" d="M669.8 282.12h84.98v95.63H669.8z"/><g><path class="st24" d="M619.66 235.38v19.39l17.85-2.07-1.74-5.94-.24-24.23z"/><ellipse transform="rotate(-75.759 623.575 218.99)" class="st25" cx="623.59" cy="219" rx="19.84" ry="14.36"/><ellipse transform="rotate(-17.025 609.988 221.231)" class="st25" cx="609.93" cy="221.22" rx="2.96" ry="4.09"/><path class="st4" d="M619.58 246.4s-18.61 5.53-20.98 8.37c-2.37 2.84-14.2 26.27-14.2 26.27h84.98l-4.26-16.33s-1.42-5.92-8.99-9.94-20.59-7.34-20.59-7.34-11.69 8.07-15.96-1.03z"/><path class="st19" d="M609.93 216.42s1.21-9.23 5.47-8.99c0 0 2.36 5.67 11.48 2.13 0 0 8.17 0 8.88 5.44.71 5.44 0 12.41 0 12.41l5.92-8.42s.47-4.23 3.31-4.47c0 0 .95-4.26-.95-5.92 0 0 1.18-7.94-3.79-10.95s-4.73-4.43-9.71-4.67-13.97 1.18-15.62 2.6c-1.66 1.42-3.14 2.37-5 4.5-1.86 2.13-5.04 6.21-1.86 8.76l1.87 7.58z"/><ellipse transform="rotate(-51.684 637.215 224.225)" class="st25" cx="637.24" cy="224.22" rx="4.09" ry="2.96"/><path class="st25" d="m597.18 271.73-.63-5.37s-2.68-8.84-1.58-11.6c0 0-1.56-5.71-.27-7.34.82-1.03 1.84.95 1.84.95s-1.26-4.42.63-4.26 1.74 2.28 1.74 2.28.16-5.15 1.42-3.87 1.74 3.01 1.74 3.01-.7-5.81 1.1-4.05c1.67 1.63 3.92 7.04 3.54 10.04s.88 3.63 1.98 3.24c1.1-.39 2.84-3.24 2.84-3.24s4.58-3.16 2.05 1.89-2.05 6.31-4.73 9.15c-2.68 2.84-2.14 8.21-2.14 8.21l-9.53.96z"/><g style="opacity:.4"><path class="st27" d="M602.07 244.51c.52 1.15.82 2.34 1.06 3.54.22 1.21.38 2.42.32 3.68-.52-1.15-.82-2.34-1.06-3.54-.22-1.21-.38-2.42-.32-3.68zM598.91 246.4c.53 1.2.84 2.45 1.1 3.7.23 1.26.41 2.53.36 3.84-.53-1.2-.84-2.44-1.1-3.7-.23-1.26-.41-2.53-.36-3.84zM596.54 248.38c.48 1.14.73 2.31.92 3.49.17 1.19.29 2.38.18 3.61-.48-1.14-.73-2.31-.92-3.49-.17-1.19-.28-2.38-.18-3.61z"/></g><path style="fill:#d38411" d="m591.73 281.05 4.26-11.84h12.55l1.39 11.84z"/></g><g><path class="st29" d="M698.01 192.96s8.17 1.09 10.42-.92c2.25-2.01 12.21-1.42 13.15 1.89.94 3.31 6.03-.36 8.63 3.43 2.6 3.79.59 5.21 3.67 7.1s7.57 5.44 6.98 9.47c-.59 4.02.12 8.37 3.67 10.28 3.55 1.91 5.8 6.88 3.67 10.19-2.13 3.31 3.2 7.76.83 11.99s-6.86 4.11-8.64 6.71-1.07 3.71-8.88 3.33c-7.81-.37-23.2 4.95-26.75 1.99-3.55-2.96-7.87-4.18-10.3-6.04s-5.09-1.66-5.09-1.66-13.73-1.31-12.43-11.19c0 0-6.98-7.39-3.31-13.66 3.67-6.27 2.84-13.14 2.84-13.14s-2.96-8.4 7.46-8.88c0 0 4.97-.83 8.05-5.33 3.07-4.47 2.85-5.82 6.03-5.56z"/><path class="st30" d="M702.39 236.54s4.5 9.71 2.84 14.68c0 0 5.56 7.46 10.42 3.55 4.85-3.91 4.38-7.34 4.38-7.34s-1.64-14.67 1.55-21l-1.79-3.22s-10.77 16.65-17.4 13.33z"/><ellipse transform="rotate(-75.759 706.103 219.25)" class="st30" cx="706.12" cy="219.26" rx="19.32" ry="14.87"/><path class="st18" d="M704.64 248.12s8.64 4.76 16.1-2.81l19.06 8.64s8.88 1.3 11.36 13.85c2.49 12.55 2.13 14.29 2.13 14.29l-79.18-.2 4.26-17.63s2.54-10.22 14.79-14.07l11.48-2.07z"/><path class="st29" d="M692.75 212.42s4.2-3.81 7.04-8.43c0 0 1.78-2.49 3.67 2.25 0 0 .36 1.3 4.26 2.37 0 0 3.79 5.68 7.93 7.1s4.5 6.46 4.5 6.46v10.93l12.66-2.84-3.55-16.33-8.88-16.33h-11.24l-11.01 1.3-6.92 4.38-4.33 6.04-4.5 7.22 3.79 10.3 3.67 7.34 1.89-.71 1.05-3.06c.01-.01-3.95-13.83-.03-17.99z"/><ellipse transform="rotate(-22.246 691.22 223.206)" class="st30" cx="691.22" cy="223.21" rx="3.37" ry="4.38"/><ellipse transform="rotate(-67.754 722.148 222.173)" class="st30" cx="722.18" cy="222.18" rx="4.38" ry="3.37"/></g><g><ellipse transform="rotate(-78.79 622.59 317.757)" class="st24" cx="622.56" cy="317.75" rx="19.54" ry="14.78"/><path class="st24" d="M619.66 334.78s2.37 8.99 1.18 12.55c-1.18 3.55 9.35 8.76 17.7-1.89 0 0-6.5-7.46-3.41-14.2s3.41-9.08 3.41-9.08h-5.15l-13.73 12.62z"/><path d="m619.66 303.77 17.58 14.91s-2.2 11.46-3.62 18.28c0 0-.71 5.39 6.87 7.76s20.03 7.1 22.88 15.86c2.84 8.76 3.64 13.73 3.64 13.73l2.37-.95v-28.41s-2.84-1.18-2.84-5.92 3.31-10.59-6.86-16.89c0 0-12.55 1.53-13.26-6.53-.71-8.06 1.84-18.95-17.31-25.1 0 0-18.3-2.6-22.39 13.73 0 0-1.29 11.56-7.07 15.84-5.78 4.28-2.7 11.25-1.99 16.88.71 5.63-7.1 8.23-7.1 8.23s-9.47 2.13 0 18.46c0 0 5.92-15.15 21.07-18.23l9.51-2.1-.95-6.37s-3.23 1.13-9.3-5.54c0 0-5.05-12.41-2.3-18.64 2.74-6.21 11.07-9 11.07-9z" style="fill:#040533"/><ellipse transform="rotate(-55.978 638.539 320.339)" class="st24" cx="638.54" cy="320.33" rx="4.5" ry="3.4"/><ellipse transform="rotate(-34.439 608.576 321.124)" class="st24" cx="608.57" cy="321.11" rx="3.4" ry="4.5"/><path d="M621.13 343.33s5.12 9.68 16.38.09c0 0 20.16 4.6 23.95 12.28 3.78 7.68 7.91 21.92 7.91 21.92h-84.98s3.81-16.71 12.15-23.26c0 0 4.89-7.75 17.8-9.53l6.79-1.5z" style="fill:#f24d62"/></g><path class="st11" d="M702.39 336.96s2.49 3.97 1.07 9.65c0 0 6.86 9.47 16.1 1.89 0 0-1.63-11.6 2.63-17.28l-19.8 5.74z"/><g><ellipse transform="rotate(-67.754 711.068 319.264)" class="st11" cx="711.11" cy="319.27" rx="21.9" ry="16.57"/><ellipse transform="rotate(-30 694.607 320.335)" class="st11" cx="694.63" cy="320.31" rx="3.31" ry="4.37"/><ellipse transform="rotate(-60 725.798 325.261)" class="st11" cx="725.79" cy="325.24" rx="4.37" ry="3.31"/><path class="st18" d="m702.39 343.33 8.72 4.47 10.47-3.55.6 33.37h-20.85z"/><path class="st33" d="m720.5 346.61 17.04 8.99s14.2 7.81 17.04 12.55v9.47l-34.09.09v-31.1zM703.46 346.61l-25.8 13.02s-6.39 2.37-7.34 10.18v7.81l33.14.09v-31.1z"/><path d="M694.63 315.62s-.64-7.59 1.49-10.9c0 0-3.4-2.84-1.58-4.5 0 0-3.63-7.34 1.58-7.57 5.21-.24 14.1.24 17.58 0 3.48-.24 11.21 2.13 12.08 3.31 0 0-2.21-6.05 1.11-3.38 0 0 1.89 5.28 5.92 6.93 4.02 1.66-2.13 4.25-2.13 4.25s4.73 5 2.13 10.2-6.37 11.59-6.37 11.59l-2.63-.3-1.63-13.35s1.16-2.44-4.29-1.97c-5.44.47-10.51.24-6.79-3.79l-10.08-.15s-5.37 4.65-5.26 7.02c.12 2.36-1.13 2.61-1.13 2.61z" style="fill:#0c0d3b"/><path class="st35" d="m708.43 352.48-2.31 25.14h7.21l-1.57-25.14z"/></g><ellipse class="st35" cx="709.97" cy="352.48" rx="3.36" ry="2.48"/><circle class="st19" cx="612.65" cy="161.28" r="13.01"/><circle class="st18" cx="612.65" cy="161.28" r="4.27"/></g><g><path class="st36" d="M798.38 422.13h-79.07c13.77-14.76 4.66-29.51 1.17-34.08-.69-.93-1.17-1.43-1.17-1.43h77.17l1.85 34.49.05 1.02z"/><path class="st37" d="m798.33 421.11-1.37 1.02h-15.55c-3.18-9.59-2.44-17.76-16.17-26.04-7.25-4.38-30.8-6.18-44.76-8.04-.69-.93-1.17-1.43-1.17-1.43h77.17l1.85 34.49z"/><path d="M719.32 386.62h127.82s24.14 14.79 0 35.5H719.32v-5.33l58.38 1.11c2.94.06 5.83-1.05 8.18-3.26 3.68-3.48 7.55-9.56 2.77-17.68-2.08-3.54-5.39-6.93-8.91-7.02l-60.42-.36v-2.96z" style="fill:#3270b8"/></g><g><path class="st36" d="M783.14 456.21h84.83c-14.77-14.17-5-28.33-1.25-32.71.74-.89 1.25-1.37 1.25-1.37h-82.79l-1.98 33.11-.06.97z"/><path class="st37" d="m783.2 455.23 1.47.98h16.68c3.41-9.2 2.62-17.04 17.34-24.99 7.78-4.2 33.05-5.93 48.02-7.72.74-.89 1.25-1.37 1.25-1.37h-82.79l-1.97 33.1z"/><path class="st20" d="M867.97 422.13H730.83s-25.9 14.2 0 34.08h137.14v-5.11l-62.63 1.07c-3.15.05-6.26-1.01-8.78-3.13-3.95-3.34-8.1-9.18-2.97-16.97 2.24-3.4 5.79-6.65 9.56-6.74l64.82-.35v-2.85z"/></g><g><circle class="st39" cx="420.95" cy="95.82" r="59.06"/><circle class="st18" cx="420.95" cy="95.82" r="49.59"/><circle class="st39" cx="420.95" cy="95.82" r="6.98"/><circle class="st18" cx="420.95" cy="95.82" r="4.15"/><g><path class="st39" d="M416.8 92.71c-.62 0-1.23-.28-1.64-.81l-13.85-18.09c-.69-.91-.52-2.2.38-2.89.91-.69 2.2-.52 2.89.38l13.85 18.09c.69.91.52 2.2-.38 2.89-.37.29-.81.43-1.25.43z"/></g><g><path class="st39" d="M465.18 99.54h-38.02c-.86 0-1.55-.69-1.55-1.55s.69-1.55 1.55-1.55h38.02c.86 0 1.55.69 1.55 1.55s-.7 1.55-1.55 1.55z"/></g></g><path style="fill:#252527" d="M56.53 603.89h888.55v11.39H56.53z"/></svg>