<svg version="1.1" id="Layer_1" xmlns="http://www.w3.org/2000/svg" x="0" y="0" viewBox="0 0 871.3 713.6" style="enable-background:new 0 0 871.3 713.6" xml:space="preserve"><style>.st4{fill:#414042}.st5{fill:#2f1214}.st6{fill:#808285}.st10,.st9{opacity:.46;fill:#d7e7ff}.st10{fill:#fff}.st12{fill:#fda188}.st13{fill:#2a2b2b}.st15{fill:#ec4149}.st17{fill:#ea9f1b}.st22{fill:#f1f2f2}.st23{fill:#fff}.st28{fill:#ff6160}.st29{opacity:.46;fill:#f73b49}</style><path d="M787.3 683.3s-536.1 55-648.4-9.6-176.1-239.6-80.8-336.8S255.8 258.2 269 137.4C282.2 16.5 509.7-5.6 601.8 31s232.8 158.7 251.5 314.1c0 0 2.2 144.8-80.5 250.6 0 0 150.2 64.5 14.5 87.6z" style="opacity:.57;fill:#d7aff9"/><path d="M770.8 668.2s-511.1 52.4-618.2-9.2c-37.1-21.3-68.7-55.3-90.3-94.5-9.4-16.9-16.8-34.8-22.1-53.1C22.5 450.1 29.8 384.6 75.5 338c44.9-45.8 91.4-64.7 128.6-85.9 5.2-3 10.3-6.1 15.1-9.2 22.4-14.8 40.1-32.3 50-60.8 1.3-3.6 2.4-7.4 3.4-11.4.3-1 .5-2 .7-3.1 1.4-6.1 2.5-12.7 3.3-19.8.8-7.7 2.6-15 5.2-21.9.7-1.8 1.4-3.7 2.2-5.5 3.8-8.4 8.9-16.2 15-23.3 2.6-3 5.3-5.9 8.2-8.7 4.8-4.6 10.1-8.9 15.8-12.9 71.5-50.2 206.1-54.8 270.8-29.2 87.9 34.9 221.9 151.3 239.8 299.5 0 0 1.3 81.9-34.2 165.6-10.6 25-24.4 50.1-42.5 73.3.1 0 143.2 61.5 13.9 83.5z" style="fill:#d7aff9"/><path d="M757 584.7c18.1-23.2 32-48.3 42.5-73.3H40.2c5.3 18.3 12.8 36.2 22.1 53.1 21.6 39.2 53.1 73.1 90.3 94.5 107.1 61.6 618.2 9.2 618.2 9.2 129.3-22-13.8-83.5-13.8-83.5z" style="fill:#ffd5ab"/><path style="fill:#94b5dd" d="m355.4 375.1 94-30.4 384.3 1.1v32.1z"/><path class="st4" d="M782.3 546.3H354.4V375.1h2v169.2h425.9z"/><path class="st4" d="m355.8 546.2-.8-1.8 83.7-36.5v-130h2v131.3zM515.8 546.8V377.9h2v165.9l83.3-35.4-1.8-130.5h2l1.8 131.8zM679.1 544.9v-167h2V542l82.3-33.2 1.9-130.9h2l-1.9 132.3z"/><path transform="matrix(.0238 -.9997 .9997 .0238 -42.473 975.51)" class="st4" d="M477.3 471h2v77.1h-2z"/><path transform="scale(.99996) rotate(-88.964 640.177 509.75)" class="st4" d="M639.2 471.7h2v76.1h-2z"/><path transform="matrix(.0263 -.9997 .9997 .0263 251.51 1278.139)" class="st4" d="M780.9 492.5h2v34.9h-2z"/><path class="st5" d="m613.8 343.4-166.2-2.2.3-.7 43.2-100.7h165.3l-.3.7-42.3 102.9zm-164.7-3.2 164 2.2 41.8-101.6H491.8l-42.7 99.4z"/><path class="st6" d="M405.3 359.3H569l44.5-16.4-165.1-2.2z"/><path d="m613.5 350-45.4 19.6H408.8c-2.1 0-3.9-1.4-4.3-3.5l-.8-3.6c-.4-1.7.9-3.2 2.6-3.2H569l45.3-16.4-.8 7.1z" style="fill:#58595b"/><path transform="matrix(.00996 -1 1 .00996 258.792 839.14)" class="st4" d="M552.7 206.7h1v164.4h-1z"/><path transform="rotate(-69.403 544.643 290.508)" style="fill:#231f20" d="M491 290h107.3v1H491z"/><path class="st9" d="m471.3 287.9 73.3 1L526 341l-77.6-1z"/><path class="st10" d="M490.6 240.3h72.3l-17.6 48.1-74.6-1z"/><path class="st9" d="M563.2 240.7h89.5l-17.9 48.4-88.3-1z"/><path class="st10" d="M545.8 288.9h89.5l-21.9 53.4-88.3-2z"/><path style="opacity:.46;fill:#5aaca6" d="m469.4 336.3-8.5 4.1 37.8-.5 8.6-4.4z"/><path class="st12" d="M484.1 335.9s-3.7 1.6-2 2 3.9-1.3 3.9-1.3.4-.8-.2-1-1.7.3-1.7.3zM492.2 337.5s-3.7 1.6-2 2c1.7.4 3.9-1.3 3.9-1.3s.4-.8-.2-1c-.5-.1-1.7.3-1.7.3z"/><path class="st13" d="M504.3 301.5s-1.4 3.6-.4 4.8c1 1.2 1 .9 1 .9s-2 2-4-.3 1.1-4.3 1.1-4.3l2.3-1.1z"/><path class="st12" d="M500 297.5s2-2.5 6.5-2.8l2.2-.3s.9 0 2.4.8c1.4.8 1.8.9 1.8.9s-.2.6-1.5-.2c0 0 .2.5-.8.1 0 0-1.3-.1-1.5-.6 0 0 0-.6-1.3-.2-1.3.4-5.1 1.5-6 2.7l-1.8-.4z"/><path class="st12" d="m498.7 302.6 3.1-4.6-1.8-.6s-4.8 4.3-5.2 7.7c0 0 1.2 1.6 2.3.1s1.6-2.6 1.6-2.6zM503.9 303c-1.2 1-2.8 1.2-3.4.4-.7-.8-.2-2.5 1-3.6 1.2-1 2.7-1 3.4-.2.7.8.2 2.3-1 3.4z"/><path class="st12" d="m500.8 301.4-3.4 3.2s1.1 2.2 2.3 1.6c1.2-.6 1.1-1.2 1.1-1.2l.8-1.3-.8-2.3z"/><path d="M497.7 314.6s.1 2.5-.5 5.6-3.2 17.5-3.2 17.5-.3.6-1.6.2l.1-5.9s-.1-3.1.4-4.3.4-4 .4-4l-.2-5.9s-1.1 1.4-1.9 3.7c-.9 2.3-1.8 4.4-3.1 7.5-1.3 3.1-2.3 6.6-2.3 6.6s-1.2 1-1.7.2l.6-4.9s.4-2.7 1.3-4.9c.9-2.1 1.2-4 1.2-4l2-6.4s1-3.4 2.6-4c0 0 4.5-.1 5.9 3z" style="fill:#45598b"/><path class="st15" d="m500.8 304.9.5.7s-.8.6-1.1 2.4l-.2 1.1s0-.4 0 0c0 0-.5 1.2-1.1 1.6l-1.4 3.9s-3.6-1.8-6.2-2.7l3.4-6.6s2.4-.6 2.9-1.8l1-.8.3.7s-1.1 1.6.1 1.8c1.3.2 1.8-.3 1.8-.3z"/><path class="st12" d="M496.8 313.9c.2 1.1 1.2 1.4 1.2 1.4l4.4-.7c1.1-.1.8-1.3.8-1.3s-.2-4.4-.5-5.6c-.3-1.2-1.3-2.1-1.3-2.1-1.3 1-1.5 3.1-1.5 3.1s-.4.8.3.3c.1-.1.2.2.2.2l.7 3c.4 1.3-.2 1-.2 1l-2.5.6c.2-.4 0-1.3 0-1.3s-1.1-.8-1.4.1-.2 1.3-.2 1.3z"/><path class="st13" d="m501.5 299.8 2.8 1.1c.3.1.4.5.3.7l-.6 1.3s2.2-1 1.2-3-3.5-.9-3.7-.1z"/><path class="st12" d="M501.8 300.4c-.1.3-.4.5-.6.4-.2-.1-.3-.5-.2-.8s.4-.4.6-.4c.2.1.3.5.2.8z"/><g><path style="fill:#9db8e0" d="m558.1 336.1-8.5 4.1 37.8-.5 8.7-4.3z"/><path class="st12" d="M569.4 335.9s-3.7 1.6-2 2c1.7.4 3.9-1.3 3.9-1.3s.4-.8-.2-1c-.5-.1-1.7.3-1.7.3zM577.5 337.5s-3.7 1.6-2 2c1.7.4 3.9-1.3 3.9-1.3s.4-.8-.2-1c-.5-.1-1.7.3-1.7.3z"/><path class="st13" d="M589.6 301.5s-1.4 3.6-.4 4.8 1 .9 1 .9-2 2-4-.3 1.1-4.3 1.1-4.3l2.3-1.1z"/><path class="st12" d="M585.3 297.5s2-2.5 6.5-2.8l2.2-.3s.9 0 2.4.8c1.4.8 1.8.9 1.8.9s-.2.6-1.5-.2c0 0 .2.5-.8.1 0 0-1.3-.1-1.5-.6 0 0 0-.6-1.3-.2-1.3.4-5.1 1.5-6 2.7l-1.8-.4z"/><path class="st12" d="m584 302.6 3.1-4.6-1.8-.6s-4.8 4.3-5.2 7.7c0 0 1.2 1.6 2.3.1 1.1-1.4 1.6-2.6 1.6-2.6zM589.2 303c-1.2 1-2.8 1.2-3.4.4-.7-.8-.2-2.5 1-3.6 1.2-1 2.7-1 3.4-.2.7.8.2 2.3-1 3.4z"/><path class="st12" d="m586.1 301.4-3.4 3.2s1.1 2.2 2.3 1.6c1.2-.6 1.1-1.2 1.1-1.2l.8-1.3-.8-2.3z"/><path class="st17" d="M583 314.6s.1 2.5-.5 5.6-3.2 17.5-3.2 17.5-.3.6-1.6.2l.1-5.9s-.1-3.1.4-4.3c.5-1.2.4-4 .4-4l-.2-5.9s-1.1 1.4-1.9 3.7c-.9 2.3-1.8 4.4-3.1 7.5-1.3 3.1-2.3 6.6-2.3 6.6s-1.2 1-1.7.2l.6-4.9s.4-2.7 1.3-4.9c.9-2.1 1.2-4 1.2-4l2-6.4s1-3.4 2.6-4c0 0 4.5-.1 5.9 3z"/><path d="m586.1 304.9.5.7s-.8.6-1.1 2.4l-.2 1.1s0-.4 0 0c0 0-.5 1.2-1.1 1.6l-1.4 3.9s-3.6-1.8-6.2-2.7l3.4-6.6s2.4-.6 2.9-1.8l1-.8.3.7s-1.1 1.6.1 1.8c1.3.2 1.8-.3 1.8-.3z" style="fill:#5683cc"/><path class="st12" d="M582.1 313.9c.2 1.1 1.2 1.4 1.2 1.4l4.4-.7c1.1-.1.8-1.3.8-1.3s-.2-4.4-.5-5.6c-.3-1.2-1.3-2.1-1.3-2.1-1.3 1-1.5 3.1-1.5 3.1s-.4.8.3.3c.1-.1.2.2.2.2l.7 3c.4 1.3-.2 1-.2 1l-2.5.6c.2-.4 0-1.3 0-1.3s-1.1-.8-1.4.1-.2 1.3-.2 1.3z"/><path class="st13" d="m586.8 299.8 2.8 1.1c.3.1.4.5.3.7l-.6 1.3s2.2-1 1.2-3-3.5-.9-3.7-.1z"/><path class="st12" d="M587.1 300.4c-.1.3-.4.5-.6.4-.2-.1-.3-.5-.2-.8.1-.3.4-.4.6-.4.2.1.3.5.2.8z"/></g><g><path style="fill:#e8959c" d="m494.8 283.8-8.7 3.7 37.8 1.2 8.9-4z"/><path class="st12" d="M506.7 285.6s-3.7 1.6-2 2 3.9-1.3 3.9-1.3.4-.8-.2-1c-.5-.2-1.7.3-1.7.3zM514.8 287.2s-3.7 1.6-2 2c1.7.4 3.9-1.3 3.9-1.3s.4-.8-.2-1-1.7.3-1.7.3zM522.6 247.2s2-2.5 6.5-2.8l2.2-.3s.9 0 2.4.8c1.4.8 1.8.9 1.8.9s-.2.6-1.5-.2c0 0 .2.5-.8.1 0 0-1.3-.1-1.5-.6 0 0 0-.6-1.3-.2s-5.1 1.5-6 2.7l-1.8-.4z"/><path class="st12" d="m521.3 252.3 3.1-4.6-1.8-.6s-4.8 4.3-5.2 7.7c0 0 1.2 1.6 2.3.1 1.1-1.4 1.6-2.6 1.6-2.6zM526.6 252.6c-1.2 1-2.8 1.2-3.4.4-.7-.8-.2-2.5 1-3.6 1.2-1 2.7-1 3.4-.2.6.9.2 2.4-1 3.4z"/><path class="st12" d="m523.4 251-3.4 3.2s1.1 2.2 2.3 1.6c1.2-.6 1.1-1.2 1.1-1.2l.8-1.3-.8-2.3z"/><path class="st13" d="M520.4 264.2s.1 2.5-.5 5.6c-.6 3.2-3.2 17.5-3.2 17.5s-.3.6-1.6.2l.1-5.9s-.1-3.1.4-4.3c.5-1.2.4-4 .4-4l-.2-5.9s-1.1 1.4-1.9 3.7c-.9 2.3-1.8 4.4-3.1 7.5-1.3 3.1-2.3 6.6-2.3 6.6s-1.2 1-1.7.2l.6-4.9s.4-2.7 1.3-4.9 1.2-4 1.2-4l2-6.4s1-3.4 2.6-4c-.1.1 4.4-.1 5.9 3z"/><path d="m523.4 254.5.5.7s-.8.6-1.1 2.4l-.2 1.1s0-.4 0 0c0 0-.5 1.2-1.1 1.6l-1.4 3.9s-3.6-1.8-6.2-2.7l3.4-6.6s2.4-.6 2.9-1.8l1-.8.3.7s-1.1 1.6.1 1.8 1.8-.3 1.8-.3z" style="fill:#6a3ab5"/><path class="st12" d="M519.4 263.6c.2 1.1 1.2 1.4 1.2 1.4l4.4-.7c1.1-.1.8-1.3.8-1.3s-.2-4.4-.5-5.6-1.3-2.1-1.3-2.1c-1.3 1-1.5 3.1-1.5 3.1s-.4.8.3.3c.1-.1.2.2.2.2l.7 3c.4 1.3-.2 1-.2 1l-2.5.6c.2-.4 0-1.3 0-1.3s-1.1-.8-1.4.1c-.3.8-.2 1.3-.2 1.3z"/><path class="st13" d="m524.1 249.5 2.8 1.1c.3.1.4.5.3.7l-.6 1.3s2.2-1 1.2-3-3.5-1-3.7-.1z"/><path class="st12" d="M524.4 250c-.1.3-.4.5-.6.4-.2-.1-.3-.5-.2-.8s.4-.4.6-.4c.3.2.3.5.2.8z"/><path class="st13" d="M525.8 248.4s0-2.5 2.1-1.3c1.8 1.1-.1 2.4-.1 2.4l-2-1.1z"/></g><g><path style="fill:#f7d49c" d="m568.7 284.4-8.6 4.1 37.8-.2 8.7-4.3z"/><path class="st13" d="M597.9 253.5s.8 1.2 1.8 0c1.1-1.2 1.4-.5 1.5-1.2.2-.7.2-1.9-.3-2.4-.5-.6-.5-.9-1.2-1.2s-.2-.2-1.5-.3c-1.3-.1-.5.1-1.9.8s-1.4 1.6-1.3 1.7c0 .1.7 1.4 1.1 1.3.5 0 1.8 1.3 1.8 1.3z"/><path class="st12" d="M579.7 285.6s-3.7 1.6-2 2 3.9-1.3 3.9-1.3.4-.8-.2-1c-.5-.2-1.7.3-1.7.3zM587.8 287.2s-3.7 1.6-2 2c1.7.4 3.9-1.3 3.9-1.3s.4-.8-.2-1c-.5-.2-1.7.3-1.7.3zM595.6 247.2s2-2.5 6.5-2.8l2.2-.3s.9 0 2.4.8c1.4.8 1.8.9 1.8.9s-.2.6-1.5-.2c0 0 .2.5-.8.1 0 0-1.3-.1-1.5-.6 0 0 0-.6-1.3-.2s-5.1 1.5-6 2.7l-1.8-.4z"/><path class="st12" d="m594.3 252.3 3.1-4.6-1.8-.6s-4.8 4.3-5.2 7.7c0 0 1.2 1.6 2.3.1 1.1-1.4 1.6-2.6 1.6-2.6zM599.6 252.6c-1.2 1-2.8 1.2-3.4.4s-.2-2.5 1-3.6c1.2-1 2.7-1 3.4-.2s.2 2.4-1 3.4z"/><path class="st12" d="m596.4 251-3.4 3.2s1.1 2.2 2.3 1.6c1.2-.6 1.1-1.2 1.1-1.2l.8-1.3-.8-2.3z"/><path class="st15" d="M593.4 264.2s.1 2.5-.5 5.6c-.6 3.2-3.2 17.5-3.2 17.5s-.3.6-1.6.2l.1-5.9s-.1-3.1.4-4.3c.5-1.2.4-4 .4-4l-.2-5.9s-1.1 1.4-1.9 3.7c-.9 2.3-1.8 4.4-3.1 7.5-1.3 3.1-2.3 6.6-2.3 6.6s-1.2 1-1.7.2l.6-4.9s.4-2.7 1.3-4.9c.9-2.1 1.2-4 1.2-4l2-6.4s1-3.4 2.6-4c-.1.1 4.4-.1 5.9 3z"/><path class="st17" d="m596.4 254.5.5.7s-.8.6-1.1 2.4l-.2 1.1s0-.4 0 0c0 0-.5 1.2-1.1 1.6l-1.4 3.9s-3.6-1.8-6.2-2.7l3.4-6.6s2.4-.6 2.9-1.8l1-.8.3.7s-1.1 1.6.1 1.8c1.3.2 1.8-.3 1.8-.3z"/><path class="st12" d="M592.4 263.6c.2 1.1 1.2 1.4 1.2 1.4l4.4-.7c1.1-.1.8-1.3.8-1.3s-.2-4.4-.5-5.6-1.3-2.1-1.3-2.1c-1.3 1-1.5 3.1-1.5 3.1s-.4.8.3.3c.1-.1.2.2.2.2l.7 3c.4 1.3-.2 1-.2 1l-2.5.6c.2-.4 0-1.3 0-1.3s-1.1-.8-1.4.1-.2 1.3-.2 1.3z"/><path class="st13" d="m597.1 249.5 2.8 1.1c.3.1.4.5.3.7l-.6 1.3s2.2-1 1.2-3-3.5-1-3.7-.1z"/><path class="st12" d="M597.4 250c-.1.3-.4.5-.6.4-.2-.1-.3-.5-.2-.8.1-.3.4-.4.6-.4.3.2.3.5.2.8z"/></g><g><path class="st22" d="M397.9 88.7h96.3v127.9h-96.3z"/><path class="st23" d="M402.8 95.3h86.5v114.9h-86.5z"/></g><g><path class="st22" d="M540.6 100.6h96.3v101.1h-96.3z"/><path class="st23" d="M545.5 105.7H632v90.8h-86.5z"/></g><path d="M744.4 310.4s39.2-64.1 33.7-131.6c0 0 9.6-23.2 17.2 17.7 0 0-13.1 25-7.6 38.8 5.5 13.8 2 17.8-5.9 23-7.9 5.2 6.3 33-15.2 46.3-21.5 13.2-22.2 5.8-22.2 5.8z" style="fill:#99bfa2"/><path d="M736.1 315.3s-39.1-83.6-104.2-98.6c0 0-6-26.6 22.9-15 0 0 .7 17.8 24.1 11.6 23.4-6.2 33.9-6.2 39 18.6 0 0 24.7 17.8 26.4 46.8 1.7 29 7.6 46.2 7.6 46.2l-15.8-9.6z" style="fill:#8dc4aa"/><path d="M755.4 319.2s6.9-183.9-8.3-201c-15.1-17.1-21.3-19.9-17.9 2.9s13.8 29.6 9.6 42c-4.1 12.4-13.8 16.4 0 35.7 13.8 19.3-9.9 43.6-9.9 43.6s-8 14.9 5.8 36.2c13.8 21.3 14.7 37 14.7 37l6 3.6z" style="fill:#a2ddbd"/><path d="M744.4 364.1c-14.6 0-26.4-11.8-26.4-26.4v-29.1c0-2.3 1.8-4.1 4.1-4.1h44.5c2.3 0 4.1 1.8 4.1 4.1v29.1c.1 14.6-11.7 26.4-26.3 26.4z" style="fill:#fc952e"/><path class="st6" d="M544.4 571.4 446 659H152.6c-37.1-21.3-68.7-55.3-90.3-94.5h479.5c3.6 0 5.3 4.5 2.6 6.9z"/><g><ellipse class="st28" cx="495.9" cy="607.8" rx="17.6" ry="23"/><ellipse class="st29" cx="489.9" cy="608.9" rx="10.7" ry="20.2"/><path class="st28" d="m448.2 611.8 40.1-7.8s9.5 4.6 1.7 11.6l-40.2 8.6-1.6-12.4z"/><ellipse cx="437.3" cy="621.6" rx="18.3" ry="22.9" style="fill:#ff6070"/><ellipse class="st29" cx="430.4" cy="621.7" rx="11.4" ry="19.5"/></g><g><path d="M623.4 652.3c-11.3 2.4-22 .9-29.4 0-7.4-.9-4.2-9.5-4.2-9.5s-.9-31.2 2.8-44.1c3.7-12.9 1.2-26.5-2.1-45.2-3.4-18.7 7.9-22.2 7.9-22.2l22.9.2c9.5 8 5.2 30 5.2 30s-.8 2.9-1.6 6.9c-1.5 6.9-3.2 17.3-1.4 22.1 2.7 7.5 4.8 48.2 5.8 55.4v.2c.8 6.5-5.9 6.2-5.9 6.2z" style="fill:#fbffff"/><path d="m629.2 645.9-3.6.9c-22.3 4.9-29.5-2.2-29.5-2.2l3.5-77c11.3 3.5 19.8 2.5 25.3.8-1.5 6.9-3.2 17.3-1.4 22.1 2.6 7.6 4.7 48.3 5.7 55.4z" style="opacity:.5;fill:#b8dcff"/><path class="st28" d="M596.1 525.1h25.2v7.8h-25.2z"/><path class="st28" d="M614.5 529h-10.4v-14.5c0-1.7 1.4-3.1 3.1-3.1h4.2c1.7 0 3.1 1.4 3.1 3.1V529z"/></g><g><path class="st12" d="M339 129.3c-12.3 16.4-31.1 23.1-42.1 14.9-11-8.2-9.9-31.1 2.4-47.6s31.1-20.1 42.1-11.9c11 8.3 9.9 28.2-2.4 44.6z"/><path class="st12" d="m285.6 118.2-33.9 49.6s20.2 24.3 33.9 13.3c13.8-11 10.1-18.8 10.1-18.8l6-18.3-16.1-25.8zM177.8 597.6s-7.8 21.1 6.4 21.6 40.8-33 40.8-33-.6-12.8-19.8-5.5L192 591.1l-14.2 6.5zM287.4 596.6s-8.7 21.1 3.2 22.5c11.9 1.4 28-16.5 44.5-32.6 0 0 5.2-11-12.8-5.5s-18 8.2-18 8.2-2.2 12.5-16.9 7.4z"/><path d="M285.1 293s7.9 30.7 9.8 72.5c1.8 41.7 9.5 229.3 9.5 229.3s-1.8 8.7-19.3 6.9L269 526.9s-10.1-38.5-6.9-55c3.2-16.5-6.9-51.4-6.9-51.4L236 346.7s-9.2 21.1-13.8 52.3-9.8 61-17 103.2c-7.3 42.2-9.6 89.9-9.6 89.9s-12.8 16.1-21.1 7.8l-6.4-63.7s-3.2-35.3 2.3-64.7 4.1-53.7 4.1-53.7l6.6-86.7s3.4-45.8 20.6-58.2c.1 0 56.4-14.7 83.4 20.1z" style="fill:#6f90d1"/><path class="st12" d="M265.2 72s18.1-36.7 74-53.7l26.1-10.1s11.9-2.3 32.1 3.7 25.2 6.4 25.2 6.4-.9 8.3-18.8 1.8c0 0 4.6 6-9.2 3.7 0 0-16.5 2.8-20.6-3.2 0 0-2.3-7.3-17 1.8-14.7 9.2-59.4 33.5-67.7 51.4L265.2 72z"/><path class="st15" d="m295.7 162.3 8.7 6.9s-16.7 10.1-15 33.5c0 0-.6 29.4 9.5 13.3 0 0 4.6-.5 5.5 4.8 0 0-8.2 12.2-15.1 19l-6.4 53.2s-50.5-11.7-85.1-16.3l24.1-92.7s28.9-14.8 31-30.8l10.1-12.9 6.2 7.5s-9.3 23.6 6.1 23c15.3-.7 20.4-8.5 20.4-8.5z"/><path class="st5" d="M328.7 123.8s16.7-4.1 20.3-15.1c3.6-11 5.4-17.4-2.4-24.8-7.8-7.3-29.4-9.2-29.4-9.2s-12.4-4.6-17-6.9c-4.6-2.3-69.7-18.8-89.4 33s19.3 102.7 19.3 102.7 12.8 14.7.5 24.8c-12.4 10.1-16.5 21.6-4.1 22.9 12.4 1.4 35.3-13.8 35.3-20.2s-2.8 16.1 4.6 4.6 17.8-28 12.3-44 8.8 13.8 4.2-2.8-12.4-24.3-16.1-33.9c-3.7-9.6-6-20.2-2.8-33.9 3.2-13.8 23.4-26.6 23.4-26.6l-6.9 31.7s10.1-3.4 14.2 8c0 0 11.7 2.5 17.5-3.7s6.2-12.1 16.5-6.6z"/><path class="st12" d="M323.9 129.8c-2.9 3.9-7.4 5.5-10 3.5-2.6-1.9-2.3-7.4.6-11.3 2.9-3.9 7.4-4.8 10-2.8 2.5 2 2.3 6.7-.6 10.6zM304.4 169.2s13.9 8.3 21.9 22.9 22.7 69.2 22.7 69.2 7.2 14.7-6.5 18.8l-53.1 21.1s-12.3-.8-18.4-13.9c-6-13.1-6.5-25.9-5.1-29.2 1.4-3.2 6.4 5 7.8 14.2 1.4 9.2 8.7-1.8 8.7-1.8l3.8-5.5s4.7 11 3.2 16.5l29.8-14.7s8.4 2.3 0-13.3l-17.4-35.9s-1.5-3.4-2.9-1.7c-6.7 8.3-8 1.3-8 1.3s-10.2-37.2 13.5-48z"/><path class="st15" d="M308 71.2s-6 20.5-20.6 23.3c0 0 10.5 6.9 29.8-19.7l-9.2-3.6z"/></g></svg>