<svg version="1.1" id="Layer_1" xmlns="http://www.w3.org/2000/svg" x="0" y="0" viewBox="0 0 1000 789.7" style="enable-background:new 0 0 1000 789.7" xml:space="preserve"><style>.st1{fill:#f0e8fc}.st4{fill:#1a2e35}.st5{fill:#ffb573}.st7{fill:none;stroke:#808285;stroke-width:4;stroke-miterlimit:10}.st9{fill:#939598}.st10{fill:#a7a9ac}.st12{fill:#fff}.st14{fill:#e6e7e8}</style><path style="fill:#cfb5f6" d="M60.2 9.4H953v770H60.2z"/><path class="st1" d="M78.1 670.8h849.3v108.6H78.1z"/><ellipse cx="491.2" cy="746.1" rx="377.3" ry="18.4" style="opacity:.67;fill:#bcbec0"/><path class="st1" d="M78.1 30.1h849.3v648.5H78.1z"/><path style="fill:#4570ad" d="M113.1 552.5h773v125h-773z"/><path class="st4" d="M451.4 356.8s3.2 6.1-31.1 0-75.8-9.2-115.8-8.2-144.5 2.6-144.5 2.6-32.3-23.1-26.6-7.2l24.2 26c2.5 2.7 7 2.2 8.7-1 1.6-3 4.9-5.1 11.6-3 3.6 1.1 107.6 26.2 144.5 21.1 0 0 36.9 2.6 51.7 9.2 14.9 6.7 69.8 19 80.2 21 10.5 2 60.1 3 84.7-3.6s91.2-23.5 94.8-24.6c3.6-1 97.8-4.1 131.1-14.9l38.9-8.3s3.1 15 7.2 12.6c4.1-2.3 36.9-33.1 36.9-33.1s1.5-12.8-8.2-4.6-24.6 9.7-43.5 8.7-118.3-1.5-118.3-1.5-71.7-1-92.7 4.1-46.6 8.7-46.6 8.7-9.2-16.9-15.9-20c0 .2-8 27.8-71.3 16z"/><ellipse class="st5" cx="427.2" cy="199" rx="24.1" ry="32.4"/><path class="st4" d="M445.1 206.4s-7.9-9.4-11.5-22.7c0 0-23.5 7.7-30.5 7.2l.3 13.5s-3.7-13.5-7.8-16.1c-4.1-2.6 0-19.3 10.8-21.7 10.8-2.4 23.1-7.5 23.1-7.5s17.6-3.6 21.9 11.8 2.8 21.3 2.8 21.3l-2.8 17.7-6.3-3.5z"/><path class="st5" d="M433.1 226.7s19 12.3 0 18.4h-8.8s8 31.8 27.1 43.5c0 0 38.9-41 41.8-46.6 0 0-10.9-4.6-28.8-4.6L450.9 205l-17.8 21.7z"/><path d="M414.6 250.8s36.4 84 32.3 107.1c0 0 59.4 24.6 80.9-11.8 0 0-5.1-75.3-16.4-87.1 0 0-3.1-20.7-24.4-18.8l-35.7 42.9s-23.1-21.2-19.3-40.5c0 0-15.3 3.6-17.4 8.2z" style="fill:#feac02"/><path class="st7" d="M452.5 463.9h-54.2c-2.3 0-4.1-1.9-4.1-4.1v-28.1c0-2.3 1.9-4.1 4.1-4.1h54.2c2.3 0 4.1 1.9 4.1 4.1v28.1c0 2.2-1.8 4.1-4.1 4.1zM526.7 463.9h-54.2c-2.3 0-4.1-1.9-4.1-4.1v-28.1c0-2.3 1.9-4.1 4.1-4.1h54.2c2.3 0 4.1 1.9 4.1 4.1v28.1c.1 2.2-1.8 4.1-4.1 4.1z"/><path class="st5" d="M486.8 254.9s8.8-20.7 18.8-8.1S515 325 515 325s-3.1 41.5-8.2 56.3c0 0-6.6 28.5-2 36.8s-7.7 27.2-18 11.9c0 0-2.1-9.7 3.6-20.5 0 0 3.9-86.6 2.7-96.3-1.1-9.6-6.3-58.3-6.3-58.3zM414.6 250.8s-9.7 1-7.7 18.4c2 17.4 14.3 140.6 14.3 140.6s-7.7 20.3 0 23.4c7.7 3.1 15.1 3.4 17.5-7.7 0 0-3.6-14.3-4.6-25.6-1-11.3-3.2-107.6-3.2-107.6l-16.3-41.5z"/><ellipse transform="rotate(-72.578 451.357 200.969)" class="st5" cx="451.4" cy="201" rx="9.2" ry="6.9"/><path d="m296.3 533-20.5-50.7s-11.3-32.3 23.1-39.4h340.6s37.4 13.3 17.9 52.2C638 534.1 640 533 640 533H296.3z" style="fill:#ff4d53"/><path class="st9" d="m340.9 546.9 12.3 40.4 7.1-16.4-9.7-24z"/><path class="st9" d="m403.9 543.8-50.7 199.3h-66.1l79.4-199.3z"/><path class="st10" d="m383.4 543.8-65 199.3h-31.3l79.4-199.3z"/><path class="st9" d="M589.3 546.9 577 587.3l-7.2-16.4 9.8-24z"/><path class="st9" d="M526.3 543.8 577 743.1h66.1l-79.4-199.3z"/><path class="st10" d="m546.7 543.8 65 199.3h31.4l-79.4-199.3z"/><path style="fill:#1a2c36" d="M291.7 531h353.4v15.9H291.7z"/><g><path class="st12" d="M706.3 322c-34.1 0-61.8-27.7-61.8-61.8 0-34.1 27.7-61.8 61.8-61.8 34.1 0 61.8 27.7 61.8 61.8 0 34-27.7 61.8-61.8 61.8zm0-122.5c-33.4 0-60.7 27.2-60.7 60.7s27.2 60.7 60.7 60.7 60.7-27.2 60.7-60.7-27.2-60.7-60.7-60.7z"/><path class="st12" d="m767.6 260.2-55.5 1.8 43.7 34.2-45.9-31.1 15.4 53.3-19-52.2-18.9 52.2 15.4-53.3-46 31.1 43.8-34.2-55.5-1.8 55.5-1.9-43.8-34.1 46 31.1-15.4-53.3 18.9 52.2 19-52.2-15.4 53.3 45.9-31.1-43.7 34.1z"/></g><g><path class="st12" d="M298.6 220.5c-34.1 0-61.8-27.7-61.8-61.8 0-34.1 27.7-61.8 61.8-61.8 34.1 0 61.8 27.7 61.8 61.8-.1 34.1-27.8 61.8-61.8 61.8zm0-122.4c-33.4 0-60.7 27.2-60.7 60.7s27.2 60.7 60.7 60.7 60.7-27.2 60.7-60.7-27.3-60.7-60.7-60.7z"/><path class="st12" d="m359.8 158.7-55.5 1.9 43.8 34.1-46-31.1 15.4 53.4-18.9-52.2-19 52.2 15.4-53.4-46 31.1 43.8-34.1-55.5-1.9 55.5-1.8-43.8-34.2 46 31.2-15.4-53.4 19 52.2 18.9-52.2-15.4 53.4 46-31.2-43.8 34.2z"/></g><g><path class="st12" d="M383.4 62.1h211.4v87.7H383.4z"/><path style="fill:#f1f2f2" d="M393 69.6h195.2v69.8H393z"/><path class="st14" d="M403.1 76.4h35.6v61.8h-35.6zM542.9 76.4h35.6v61.8h-35.6zM460.1 91.6h61.8V121h-61.8z"/></g></svg>