<svg version="1.1" id="Layer_1" xmlns="http://www.w3.org/2000/svg" xmlns:xlink="http://www.w3.org/1999/xlink" x="0" y="0" viewBox="0 0 1000 753.94" style="enable-background:new 0 0 1000 753.94" xml:space="preserve"><style>.st8{opacity:.73;clip-path:url(#SVGID_4_);fill:#fff}.st10{fill:#f7f7f9}.st11{fill:#453db4}.st12{fill:#e6e7e8}.st13{fill:#7ba1c6}.st15{fill:#e67356}.st16{fill:#f47d53}.st17{opacity:.18}.st18{fill:#1a1938}.st19{fill:#eb7454}.st20{fill:#3a3474}.st21{fill:#4b5cc8}.st22{opacity:.43;fill:#212c7b}.st24{fill:none;stroke:#fff;stroke-width:6;stroke-linecap:round;stroke-miterlimit:10}.st29{fill:#302f7f}.st30{opacity:.12;fill:#353432}.st35{fill:#e87254}.st36{fill:#212542}.st37{fill:#302e81}.st41{opacity:.1}.st42{fill:#020202}.st49{fill:#939598}.st50{fill:#38393a}.st51{fill:none;stroke:#38393a;stroke-width:6;stroke-linecap:round;stroke-miterlimit:10}.st53{fill:#0c0c0c}.st54{fill:none;stroke:#0c0c0c;stroke-width:3;stroke-linecap:round;stroke-miterlimit:10}</style><path d="M358.35 725.33c-72.92-12.7-139.59-49.2-189.47-103.89C64.61 507.11-79.25 300.57 63.33 153.88 270.32-59.08 673.35 25.13 673.35 25.13s395.31 26.01 304.54 361.74c-84.23 311.56-214.83 408.96-619.54 338.46z" style="opacity:.19;fill:#8b22e2"/><defs><path id="SVGID_1_" d="M367.43 702.67c-68.16-11.87-130.48-45.99-177.11-97.11C92.85 498.68-41.62 305.62 91.65 168.5 285.14-30.57 661.88 48.14 661.88 48.14s369.52 24.31 284.68 338.14c-78.74 291.24-200.82 382.29-579.13 316.39z"/></defs><clipPath id="SVGID_2_"><use xlink:href="#SVGID_1_" style="overflow:visible"/></clipPath><g style="clip-path:url(#SVGID_2_)"><path style="opacity:.43;fill:#b2d5f1" d="M38.58 501.94h934.08v205.43H38.58z"/><path style="opacity:.39;fill:#8b22e2" d="M968.72 486.9H38.22V46.43h930.5z"/><path style="fill:#91adbb" d="M38.58 486.99h934.08v13.79H38.58z"/><path style="opacity:.7;fill:#edddec" d="M328.49 103.05 38.58 486.99l930.14-.09V103.05z"/><defs><path id="SVGID_3_" d="M492.47 61.91h401.68v379.31H492.47z"/></defs><clipPath id="SVGID_4_"><use xlink:href="#SVGID_3_" style="overflow:visible"/></clipPath><path style="opacity:.77;clip-path:url(#SVGID_4_);fill:#fff" d="M492.47 61.91h401.68v379.31H492.47z"/><path style="opacity:.29;clip-path:url(#SVGID_4_);fill:#453db4" d="M499.9 71.1h379.9v358.74H499.9z"/><path class="st8" d="M588.61 72.2h7.57v361.11h-7.57zM686.06 72.2h7.57v361.11h-7.57zM786.8 72.2h7.57v361.11h-7.57z"/><g style="opacity:.37;clip-path:url(#SVGID_4_)"><path transform="rotate(35.534 613.717 173.831)" class="st10" d="M592.06-48.9h43.4v445.52h-43.4z"/><path transform="rotate(35.534 794.315 258.87)" class="st10" d="M772.67 36.14h43.4v445.52h-43.4z"/><path transform="rotate(35.534 631.585 225.19)" class="st10" d="M626.15 2.46h10.97v445.52h-10.97z"/><path transform="rotate(35.534 752.252 252.723)" class="st10" d="M746.82 30h10.97v445.52h-10.97z"/></g><path class="st11" d="M72.65 97.05h15.86v404.89H72.65z"/><path class="st12" d="M72.65 97.05h12v404.89h-12z"/><path class="st11" d="M244.09 95.83h15.86v404.89h-15.86z"/><path class="st12" d="M244.09 95.83h12v404.89h-12z"/><path class="st13" d="M88.51 133.48h155.58v4.43H88.51z"/><path class="st11" d="M88.07 137.91h155.58v4.43H88.07z"/><path class="st13" d="M88.29 181.47h155.58v4.43H88.29z"/><path class="st11" d="M88.78 185.9h155.58v4.43H88.78z"/><path class="st13" d="M88.56 227.26h155.58v4.43H88.56z"/><path class="st11" d="M89.05 231.69h155.58v4.43H89.05z"/><path class="st13" d="M88.78 273.04h155.58v4.43H88.78z"/><path class="st11" d="M88.34 277.47h155.58v4.43H88.34z"/><g><path class="st13" d="M88.07 321.03h155.58v4.43H88.07z"/><path style="opacity:.98;fill:#453db4" d="M88.56 325.46h155.58v4.43H88.56z"/></g><g><path class="st13" d="M88.29 366.81h155.58v4.43H88.29z"/><path class="st11" d="M88.78 371.24h155.58v4.43H88.78z"/></g><g><path class="st13" d="M88.07 413.7h155.58v4.43H88.07z"/><path class="st11" d="M88.56 418.13h155.58v4.43H88.56z"/></g><g><path class="st13" d="M86.91 460.59h155.58v4.43H86.91z"/><path class="st11" d="M88.34 465.02h155.58v4.43H88.34z"/></g><g><path class="st12" d="m193.73 177.22.11.18a4.784 4.784 0 0 0 6.56 1.68l42.76-25.31a4.784 4.784 0 0 0 1.68-6.56l-.11-.18a4.784 4.784 0 0 0-6.56-1.68l-42.76 25.31c-2.28 1.34-3.03 4.28-1.68 6.56z"/><path class="st11" d="m193.73 177.22.11.18a4.784 4.784 0 0 0 6.56 1.68l17.47-10.34a4.784 4.784 0 0 0 1.68-6.56l-.11-.18a4.784 4.784 0 0 0-6.56-1.68l-17.47 10.34c-2.28 1.34-3.03 4.28-1.68 6.56z"/></g><g><path class="st11" d="M261.21 96.44h15.86v404.89h-15.86z"/><path class="st12" d="M263.13 96.44h12v404.89h-12z"/><path class="st11" d="M432.64 95.22h15.86v404.89h-15.86z"/><path class="st12" d="M432.64 95.22h12v404.89h-12z"/><path class="st12" d="M275.07 147.5h158.18v7.15H275.07zM491.44 187.29l-.14.16a4.784 4.784 0 0 1-6.76.44l-37.34-32.78a4.784 4.784 0 0 1-.44-6.76l.14-.16a4.784 4.784 0 0 1 6.76-.44L491 180.53c1.99 1.74 2.18 4.77.44 6.76z"/><path class="st11" d="m491.44 187.29-.14.16a4.784 4.784 0 0 1-6.76.44l-15.26-13.39a4.784 4.784 0 0 1-.44-6.76l.14-.16a4.784 4.784 0 0 1 6.76-.44L491 180.53c1.99 1.74 2.18 4.77.44 6.76z"/><path class="st13" d="M276.4 272.43h155.58v4.43H276.4z"/><path class="st11" d="M277.83 276.86h155.58v4.43H277.83z"/><g><path class="st13" d="M275.69 320.42h155.58v4.43H275.69z"/><path class="st11" d="M277.12 324.85H432.7v4.43H277.12z"/></g><g><path class="st13" d="M274.97 366.2h155.58v4.43H274.97z"/><path class="st11" d="M276.4 370.62h155.58v4.43H276.4z"/></g><g><path class="st13" d="M275.69 413.09h158.36v4.43H275.69z"/><path class="st11" d="M277.14 417.52H435.5v4.43H277.14z"/></g><g><path class="st13" d="M276.4 459.98h158.36v4.43H276.4z"/><path class="st11" d="M277.86 464.41h158.36v4.43H277.86z"/></g></g><g><path class="st15" d="m482.4 337.1 10.08 44.22-36.84 14s-5.72-42-16.01-46c-10.29-4 42.77-12.22 42.77-12.22z"/><path class="st16" d="m445.34 293.32-14.58 14-6.24-10.32-6.04-9.97 10-15.13.59.74z"/><path class="st17" d="m431.97 271.9.73.85-5.62 27.83-7.46-11.39zM431.91 264.7s-.64.71-1.71 1.92l.36-1.92h1.35z"/><ellipse transform="rotate(-23.199 411.42 267.486)" class="st16" cx="411.39" cy="267.47" rx="19.09" ry="25"/><path class="st18" d="M391.27 262.89s12.02-4.34 19.87 3.37c0 0 5.88 6 18.58 8.57l3.11 2.65s3.59-15.74-.92-23.16c-4.52-7.43-13.48-11.48-13.48-11.48s-11.67-4.52-20.51 4.74-6.65 15.31-6.65 15.31z"/><ellipse transform="rotate(-6.316 416.786 267.567)" class="st16" cx="416.61" cy="267.47" rx="4.25" ry="5.57"/><path class="st18" d="M412.61 244.08s-4.99-21.04 15.3-23.61c20.28-2.57 24 18.28 24 18.28s.29 20.57 20 20.86c19.71.29 23.71 21.14 18.86 25.43s-4.86 27.14 6.29 26.28c11.14-.86-24 9.14-39.71-8.29 0 0-8.86-13.43-7.71-22.86 1.14-9.43-7.14-13.35-7.14-13.35s-7.77-8.05-8.44-18.18c-.19-2.84-2.03-5.31-4.75-6.16-3.76-1.17-8.43-1.75-9.1 2.26-1.16 6.87-7.6-.66-7.6-.66z"/><path class="st19" d="m431.26 497.31-18.86 84.57 20.29 11.96 13.27-51.1s9.15-19.86 6.44-32.85c-2.72-13.01-21.14-12.58-21.14-12.58z"/><path class="st20" d="m471.36 544.42-.15-.02a3.488 3.488 0 0 1-2.92-3.99l14.75-95.87a3.488 3.488 0 0 1 3.99-2.92l.15.02c1.91.29 3.22 2.08 2.92 3.99l-14.75 95.87a3.493 3.493 0 0 1-3.99 2.92z"/><ellipse class="st20" cx="475.21" cy="518.3" rx="9.83" ry="6.71"/><ellipse transform="rotate(-27.34 370.288 526.906)" class="st20" cx="370.23" cy="526.89" rx="10.97" ry="7.49"/><ellipse transform="rotate(-27.34 345.948 448.229)" class="st20" cx="345.9" cy="448.21" rx="10.97" ry="7.49"/><path transform="rotate(-16.625 361.203 492.388)" class="st20" d="M355.88 408.93h10.57v166.85h-10.57z"/><path class="st21" d="M345.84 618.8s-52.98-8.54-13.78-42.42c3.88-3.36 8.36-5.97 13.18-7.74l50.74-18.62s67.99-21.27 87.35-5.84c18.47 14.72 34.4 38.64 4.61 69.45a14.688 14.688 0 0 1-10.49 4.5l-131.61.67z"/><circle class="st22" cx="463.64" cy="581.88" r="28.02"/><circle cx="463.64" cy="581.88" r="20.29" style="fill:#d1d3d4"/><circle class="st22" cx="463.64" cy="581.88" r="8.72"/><path class="st24" d="m454.92 552.72 8.72 29.16M445.62 560.65c-.17-1.02 12.87-15.86 12.87-15.86"/><path d="M449.7 433.31s22.78 15.43 33.63 14.86c10.86-.57 27.14 2.59 27.71-7.42.57-10.01-15.71-14.29-15.71-14.29l-45.63 6.85z" style="fill:#4284ce"/><path class="st19" d="M382.48 461.88s-14.28 7.43-4.86 21.71c9.43 14.28 60.67 70.57 60.67 70.57l-2.68 20.14 1.26 1.33a2.66 2.66 0 0 0 4.05-.23l1.25-1.66 7.15-22.71c.53-1.33.31-2.84-.57-3.97-5.32-6.8-23.72-30.36-23.72-30.61 0-.29-13.43-41.14-22.28-41.43 0 0-1.14-8 3.71-10.28l-23.98-2.86z"/><path style="fill:#5c79bf" d="m477.61 447.02-23.13 52.57-1.14 10.29-5.55-2.29-18.74-7.71 9.24-66.57 28.01 9.77z"/><path class="st17" d="m477.61 447.02-23.13 52.57-1.14 10.29-5.55-2.29 18.51-64.51z"/><path d="M492.47 432.17c-25.43 10.28-48.56 12.85-48.56 12.85l-39.42 23.72-5.68-.91-21.17-3.38 25.71-34.28s33.16-32.57 52.29-34.85l-.97-6.19 36.19-14.96s13.91 7.43 16.19 23.72c0 0 1.31 2.89 1.95 7.09 1.21 7.91.08 20.47-16.53 27.19z" style="fill:#6884dd"/><path class="st17" d="M492.47 432.17c-25.43 10.28-48.56 12.85-48.56 12.85l-39.42 23.72-5.68-.91c4.53-7.19 17.76-22.62 50.82-30.5 31.44-7.48 50.86-23.71 59.37-32.35 1.21 7.91.08 20.47-16.53 27.19z"/><path class="st15" d="M445.34 353.6s-.09 7.92-.7 16.28c-.46 6.37-1.21 12.99-2.45 16.58-2.86 8.29-12.28 5.14-14.57 5.71-2.29.58-22.86-8.38-22.86-8.38l-19.43-12.19-9.71.86-10.29-3.43s-.07-.59-.33-1.38c-.54-1.61-1.93-4.05-5.38-4.05-5.15 0-6.58 9.19-6.58 9.19s-5.14 1.38-4.85-3.47c.28-4.86 8-11.43 15.43-12.01 7.42-.57 20 5.03 20 5.03l41.12 10.45 4.31-20.89 16.29 1.7z"/><path class="st17" d="M444.64 369.88c-.46 6.37-1.21 12.99-2.45 16.58-2.86 8.29-12.28 5.14-14.57 5.71-2.29.58-22.86-8.38-22.86-8.38l-19.43-12.19-9.71.86-10.29-3.43s-.07-.59-.33-1.38c5.69-.67 16.34-1.23 22.61 2.81 8.85 5.71 33.43 17.43 33.43 17.43s16.18 6.86 19.52-6.29c1.29-5.06 2.76-8.9 4.08-11.72z"/><path d="m426.68 300.58-8.2 4.17s-5.43 8.57 0 22.57 9.43 24 9.43 24l6.29 8 49.14-17.43s-8.57-49.42-24.28-56.28-17.06 3.46-17.06 3.46-2.26 16.19-15.32 11.51z" style="fill:#ffa43b"/><path class="st15" d="m469.05 318.75-3.43 38.85s-.28 13.43-20.28 14.29c-20.01.85-51.43 2.28-51.43 2.28s-.65-.82-1.71-1.38c-1.35-.73-3.35-1.02-5.43 1.38-1.71 1.97-2.38 3.88-2.63 5.36-.35 2.18-2.43 3.75-4.55 3.16-.71-.2-1.2-.61-1.11-1.37.29-2.58 1.72-9.43-2.85-8.86-5.46.68-7.48 6.64-8.21 9.63-.23.99-1.12 1.69-2.14 1.69-.85 0-1.5-.69-1.5-1.5 0-.12.02-.25.05-.37l1.52-6.03-3.27 4.99c-1.01 1.53-2.87 2.38-4.65 1.96-1.14-.26-1.8-.96-.36-2.67 3.15-3.71 7.43-9.43 7.43-9.43l-5.14 1.72s-4.18-1.35 4-5.43c5.97-2.97 21.43-1.71 21.43-1.71l60.57-8.58V301.6s1.14-21.43 13.14-14.29c5 2.97 7.66 8.92 9.07 14.85 1.96 8.32 1.48 16.59 1.48 16.59z"/><path class="st17" d="m469.05 318.75-3.43 38.85s-.28 13.43-20.28 14.29c-20.01.85-51.43 2.28-51.43 2.28s-.65-.82-1.71-1.38v-.69s50.28-2.5 57.84-3.68c7.56-1.2 12.66-10.81 12.66-10.81l4.85-55.43c1.98 8.3 1.5 16.57 1.5 16.57z"/><path class="st29" d="M304.7 618.8h217.27v7.07H304.7z"/><path class="st29" d="M323.44 634.87h-13.69c-2.79 0-5.04-2.26-5.04-5.04v-5.98c0-2.79 2.26-5.04 5.04-5.04h13.69c2.79 0 5.04 2.26 5.04 5.04v5.98c.01 2.78-2.25 5.04-5.04 5.04zM517.73 634.87h-13.59c-2.34 0-4.24-1.9-4.24-4.24v-7.59c0-2.34 1.9-4.24 4.24-4.24h13.59c2.34 0 4.24 1.9 4.24 4.24v7.59c0 2.34-1.9 4.24-4.24 4.24z"/><ellipse class="st30" cx="418.05" cy="635.51" rx="128.13" ry="4.07"/><path d="m360.22 425.52-41.92-16.23c-3.67-1.42-5.5-5.55-4.08-9.22l.11-.29c1.42-3.67 5.55-5.5 9.22-4.08l41.92 16.23c3.67 1.42 5.5 5.55 4.08 9.22l-.11.29c-1.41 3.67-5.54 5.5-9.22 4.08z" style="fill:#2a2977"/><path d="M348.2 435.6h30.85s19.71-2.55 10.86-24.99c-8.86-22.44-15.5-36.44-15.5-36.44" style="fill:none;stroke:#322e7a;stroke-width:6;stroke-linecap:round;stroke-miterlimit:10"/></g><g><path d="m693.57 246.34-15.4 4.13s-23.15-6.86-15.43-12.86c3.21-2.49 5.06-6.17 6.14-9.61 1.51-4.83 1.49-9.19 1.49-9.19l14.94 10.23 2.68 10.53.19.71 5.39 6.06z" style="fill:#e5714a"/><path d="m688 239.57-18.68-14.22c1.51-4.83 1.06-6.54 1.06-6.54l14.94 10.23 2.68 10.53z" style="opacity:.07"/><ellipse transform="rotate(-9.881 682.92 211.973)" class="st35" cx="682.73" cy="211.93" rx="13.7" ry="21"/><path class="st36" d="M693.58 201.67s-13.98-4.91-16.84 10.23c0 0-2 8.35-6.78 11.44 0 0-17.22-13.73-6.93-29.44 0 0 18.24-14.46 30.55 7.77z"/><ellipse class="st35" cx="672.79" cy="214.9" rx="3.76" ry="5.11"/><path class="st35" d="M709.31 274.01s15.27 5.03 32.98 1.88c17.71-3.14 21.14-4.86 21.14-4.86s0 3.22 11.14 7.47c11.14 4.24 1.14-11.68 1.14-11.68s-3.14-3.79-8.86-5.22c-5.71-1.43-7.71 0-7.71 0s-34.28-3.43-40.85-2.57c-6.56.87-8.98 14.98-8.98 14.98z"/><path class="st36" d="m664.74 198.47 6.57-4.57-16.28-14.86s-26-4-21.71 19.43c0 0 14.86 16 1.71 25.14-13.14 9.14-13.71 16.86-8.28 25.71 5.43 8.86 15.14 9.71 15.14 9.71s-12.28-13.71-.86-19.71c11.43-6 18-2 21.43-11.71s-5.37-17.83-5.37-17.83-10.92-5.31-8.06-13.31c2.86-8 15.71 2 15.71 2z"/><path class="st37" d="M863.73 521.3H575.45c-7.65 0-13.84-6.2-13.84-13.84v-.6c0-7.65 6.2-13.84 13.84-13.84h288.28v28.28z"/><path class="st21" d="M863.73 530.73H575.45c-7.65 0-13.84-6.2-13.84-13.84v-.6c0-7.65 6.2-13.84 13.84-13.84h288.28v28.28zM752.31 493.29l65.14-13.9 36.85 1.71s18.86 9 9.43 12.86-2.14 0-2.14 0l-109.28-.67z"/><path class="st29" d="M817.44 479.39s2.57-122.69-20.57-143.62h-54.42s-.59.49-6.43-2.94H719.3v-13.64h19.99l4.46-4.83 2.98-3.23 55.28-20.57s12.43-9.15 12.43 5.85c0 8.87-.39 14.44.17 17.95.37 2.44 1.21 3.89 2.92 4.77 4.21 2.14 27.77 53.71 30.34 87.71 2.57 34 6.43 74.28 6.43 74.28l-36.86-1.73z"/><path d="M814.61 313.41h-70.86l2.98-3.23 55.28-20.57s12.43-9.15 12.43 5.85c0 8.87-.39 14.44.17 17.95z" style="fill:#4a5bc5"/><path class="st37" d="m802.74 298.19-36.19 12.47c-3.94 1.36-8.24-.74-9.6-4.68l-.05-.15 50.47-17.4.05.15a7.554 7.554 0 0 1-4.68 9.61z"/><path class="st29" d="M591.56 520.45h-5.91c-2.55 0-4.61-2.07-4.61-4.61v-.2c0-2.55 2.07-4.61 4.61-4.61h5.91c2.55 0 4.61 2.07 4.61 4.61v.2c.01 2.54-2.06 4.61-4.61 4.61zM782.19 519.3h-5.91c-2.55 0-4.61-2.07-4.61-4.61v-.2c0-2.55 2.07-4.61 4.61-4.61h5.91c2.55 0 4.61 2.07 4.61 4.61v.2c0 2.55-2.06 4.61-4.61 4.61zM847.26 520.45h-28.48c-2.55 0-4.61-2.07-4.61-4.61v-.2c0-2.55 2.07-4.61 4.61-4.61h28.48c2.55 0 4.61 2.07 4.61 4.61v.2c0 2.54-2.06 4.61-4.61 4.61zM582.82 530.73h3.86v6.11h-3.86z"/><path class="st29" d="M575.86 536.09h18.75v2.68h-18.75zM849.46 530.36h3.86v6.11h-3.86z"/><path class="st29" d="M842.5 535.71h18.75v2.68H842.5z"/><ellipse class="st30" cx="715.88" cy="537.43" rx="173.41" ry="4.07"/><path d="M719.17 501.72s7.48 15.7 13.91 16.72c6.43 1.02 4.88-5.28 4.88-5.28s-5.75-13.51-10.46-15.86c-4.7-2.36-8.33 4.42-8.33 4.42z"/><path class="st35" d="m730.74 500.45-6-11.43-5.14-27.14s-6.86-48.85-8.29-50.85c-1.43-2-21.56 5.43-21.56 5.43s12.14 50.85 16.85 60.85c4.71 10 9.85 18.28 9.85 18.28l5.43 9.14s2.29 5.14 7.86 5.14 1-9.42 1-9.42z"/><path d="M575.68 456.48s-5.19-.09-4.65 7.28c.54 7.36.53 13.85 1.69 17.25 1.46 4.3 6.81 9.3 8.98 2.71 2.17-6.59 1.55-18.55 1.55-18.55l-7.57-8.69z"/><path d="M637.32 408.69s-30.57 21.43-36 28.28c-5.43 6.86-18.57 16-18.57 16s-9.57 3.62-9.57 8.98-1.29 11.36 3.86 11.78 9.14-9.05 9.14-9.05 20.28-11.43 22.28-12.28c2-.86 26.28-14.57 28.85-15.71 2.57-1.14 16.28-7.43 17.14-16.86.87-9.43-17.13-11.14-17.13-11.14z" style="fill:#e27a53"/><path d="M713.52 413.59c0 2.12-13.1 6.09-19.85 8-2.35.66-3.92 1.07-3.92 1.07l-18.55-53.61-.46-1.32-16.29 57.57-19.43-16.29s5.87-48.85 4.44-66.28c-1.43-17.43 7.28-32.57 7.28-32.57l52.76 10.19s2.66 7.23 3.37 12.96c1.92 15.48 5 36.84 5 36.84s5.65 40.59 5.65 43.44z" style="fill:#8b22e2"/><path class="st17" d="M693.68 421.59c-2.35.66-3.92 1.07-3.92 1.07l-18.55-55.48 3.49-8.05 18.98 62.46z"/><g class="st41"><path class="st42" d="M681.06 349.13c-1.44 3.06-3.14 5.95-4.91 8.81-1.79 2.84-3.64 5.64-5.76 8.28 1.44-3.06 3.14-5.95 4.91-8.81 1.79-2.84 3.65-5.64 5.76-8.28z"/></g><path d="M665.62 234.64s-19.51 8.97-20.65 26.97 4.86 32.28 4.86 32.28l-5 16.86s9.06 18.28 36.77 18.57c27.71.29 20.57-6.29 20.57-6.29l-2.86-36.28-.89-14.25 15.11 1.96s-2.8-12.91 8.41-14.89l-32.47-17.85s2.76-.69-10.13-1.26-13.72-5.82-13.72-5.82z" style="fill:#ff4f5b"/><path class="st35" d="M686.74 286.18s-18.99 3.14-9.37 15.71l39.37 15.71s5.14.29 6.57 4.86 6.86 8 13.71 5.14-3.43-9.54-9.14-14.2-18.57-15.8-18.57-15.8-10.57-9.71-22.57-11.42z"/><g class="st41"><path class="st42" d="M669.03 259.04c2.18 2.18 4.28 4.44 6.36 6.7 2.09 2.26 4.13 4.57 6.16 6.88 2.02 2.32 4.03 4.65 5.98 7.03l2.93 3.57c.95 1.21 1.92 2.4 2.85 3.64-1.1-1.08-2.15-2.21-3.22-3.32l-3.14-3.38c-2.09-2.26-4.13-4.57-6.16-6.88-2.01-2.33-4.03-4.65-5.98-7.03-1.96-2.38-3.91-4.76-5.78-7.21z"/></g><g class="st41"><path class="st42" d="M654.49 286.85c2.02 1.08 3.98 2.25 5.93 3.44 1.96 1.18 3.87 2.42 5.79 3.66 1.9 1.26 3.8 2.53 5.66 3.86l2.78 2c.91.7 1.83 1.36 2.73 2.09-1.02-.53-2-1.12-3-1.68l-2.94-1.76c-1.96-1.18-3.87-2.42-5.78-3.66-1.9-1.26-3.8-2.53-5.66-3.86-1.86-1.33-3.72-2.66-5.51-4.09z"/></g><g class="st41"><path class="st42" d="M686.33 264.71c2.3 1.02 4.43 2.3 6.52 3.64 2.07 1.36 4.11 2.79 5.97 4.47-2.3-1.02-4.43-2.3-6.52-3.64-2.08-1.36-4.11-2.79-5.97-4.47z"/></g></g><g><ellipse class="st30" cx="809.34" cy="629.7" rx="44.57" ry="4.07"/><path d="M864.62 574.41c0 5.63-.84 11.05-2.4 16.18a54.96 54.96 0 0 1-8.05 16.18c-6.24 8.64-14.93 15.41-25.05 19.28h-.01c-6.13 2.35-12.78 3.64-19.75 3.64s-13.62-1.29-19.76-3.64h-.01c-20.77-7.95-35.51-28.07-35.51-51.64 0-26.53 18.68-48.69 43.61-54.05 3.77-.8 7.66-1.23 11.67-1.23.56 0 1.11.01 1.66.03 29.75.88 53.6 25.28 53.6 55.25z" style="fill:#ee7eb6"/><path d="M864.62 574.41c0 5.63-.84 11.05-2.4 16.18a54.96 54.96 0 0 1-8.05 16.18c-3.76.81-7.66 1.23-11.66 1.23-30.53 0-55.28-24.75-55.28-55.28 0-12.08 3.88-23.26 10.46-32.36 3.77-.8 7.66-1.23 11.67-1.23.56 0 1.11.01 1.66.03 29.75.88 53.6 25.28 53.6 55.25z" style="opacity:.11;fill:#fff"/><path d="M864.62 574.41c0 5.63-.84 11.05-2.4 16.18a54.911 54.911 0 0 1-18.1-3.62c-20.77-7.95-35.51-28.07-35.51-51.64 0-5.63.84-11.06 2.4-16.18 29.76.89 53.61 25.29 53.61 55.26z" style="opacity:.16;fill:#fff"/><ellipse transform="rotate(-27.34 836.702 544.791)" cx="836.61" cy="544.8" rx="10.44" ry="13.55" style="opacity:.28;fill:#fff"/><ellipse transform="rotate(-27.34 850.312 564.096)" cx="850.22" cy="564.1" rx="2.78" ry="3.6" style="opacity:.32;fill:#fff"/></g><g><path class="st49" d="M88.51 519.44h38.14v8.57H88.51z"/><path class="st49" d="M87.25 542.3h-5.2c-5.19 0-9.4-4.21-9.4-9.4v-16.77c0-5.19 4.21-9.4 9.4-9.4h5.2c5.19 0 9.4 4.21 9.4 9.4v16.77c0 5.19-4.21 9.4-9.4 9.4zM137.39 540.89h-5.2c-5.19 0-9.4-4.21-9.4-9.4v-16.77c0-5.19 4.21-9.4 9.4-9.4h5.2c5.19 0 9.4 4.21 9.4 9.4v16.77c0 5.19-4.21 9.4-9.4 9.4z"/></g><g><path class="st50" d="M219.28 516.59c0 16.15-13.09 26.44-29.25 26.44s-29.25-10.29-29.25-26.44c0-16.15 13.09-29.25 29.25-29.25s29.25 13.1 29.25 29.25z"/><path class="st51" d="M177.64 498.62s-24.62-24.29-2.56-36.35c4.25-2.32 9.05-3.43 13.89-3.5 12.99-.18 39.9 3.39 14.8 39.85"/></g><g><path class="st50" d="M282.66 523.11c0 13.53-10.97 21.69-24.49 21.69-13.53 0-24.49-8.16-24.49-21.69s10.97-24.49 24.49-24.49c13.52 0 24.49 10.96 24.49 24.49z"/><path class="st51" d="M247.27 510.59s-21.71-21.41-2.25-32.05c3.75-2.05 7.98-3.03 12.25-3.09 11.46-.16 35.18 2.99 13.05 35.13"/></g><g><path d="M174 590.6c0 4.76-1.3 9.21-3.57 13.03a25.493 25.493 0 0 1-10.14 9.64 25.401 25.401 0 0 1-11.9 2.93c-1.71 0-3.37-.17-4.99-.5-4.13-.81-7.91-2.63-11.06-5.18-5-4.02-8.46-9.9-9.33-16.58v-.01a24.59 24.59 0 0 1-.22-3.35c0-4.43 1.13-8.6 3.11-12.23 3.06-5.63 8.17-9.98 14.33-12.04 2.57-.87 5.32-1.34 8.17-1.34 2.2 0 4.33.28 6.36.79h.01c4.49 1.16 8.49 3.49 11.68 6.65 3.96 3.93 6.64 9.15 7.35 14.98.14 1.07.2 2.13.2 3.21z" style="fill:#f9f2ec"/><path class="st53" d="M155.01 578.68h-11.55l-5.78 10 5.78 10h11.55l5.77-10z"/><path class="st54" d="m143.29 580.69-6.64-5.1M154.36 581.44l5.71-10.14M160.21 589.67l8.43 1.91M153.07 598.68l.15 11.76"/><path style="fill:none;stroke:#0c0c0c;stroke-width:3;stroke-linecap:square;stroke-miterlimit:10" d="m140.08 594.35-8.45 4.33"/><path class="st53" d="m132.54 610.41-.21.12c-5-4.02-8.46-9.9-9.33-16.58l9.39 5.27.15 11.19zM160.29 613.27a25.401 25.401 0 0 1-11.9 2.93c-1.71 0-3.37-.17-4.99-.5l-.01-.82 9.62-5.71.2.11 7.08 3.99zM174 590.6c0 4.76-1.3 9.21-3.57 13.03l-3.1-2 .5-10.22.05-.95 5.92-3.04c.14 1.04.2 2.1.2 3.18zM166.44 572.43l-6.59.39-.44.03-4.65-7.07a25.59 25.59 0 0 1 11.68 6.65zM140.22 566.32l-3.23 9.53-.11.34-10.97 2.2-.01-.02a25.55 25.55 0 0 1 14.32-12.05z"/></g></g></svg>