<svg version="1.1" id="Layer_1" xmlns="http://www.w3.org/2000/svg" xmlns:xlink="http://www.w3.org/1999/xlink" x="0" y="0" viewBox="0 0 1000 801" style="enable-background:new 0 0 1000 801" xml:space="preserve"><style>.st0{fill:#dbcff9}.st3{clip-path:url(#SVGID_2_)}.st5{fill:#fff}.st7{opacity:.32;fill:#dbcff9}.st8{fill:#efc0af}.st10{fill:#06001b}.st11,.st13{fill:#262626}.st13{opacity:.46}.st14{fill:#100d20}.st15{fill:#efefef}.st17{fill:#f9d1c5}.st20{fill:#f9a30b}.st21{fill:#f9cfc2}.st22{fill:#c63838}.st25{opacity:.38;fill:#a3c3d8}</style><circle class="st0" cx="340.6" cy="79.2" r="79.2"/><circle class="st0" cx="466.7" cy="43.1" r="36.2"/><circle class="st0" cx="466.7" cy="60.6" r="36.2"/><circle class="st0" cx="546" cy="35.2" r="17.6"/><defs><path id="SVGID_1_" d="M235.3 787.8c-26.9-.5-53.4-7-77.5-19C106.1 743 30.2 689.6 55.1 605.9c36.7-123.6 94.1-220.2 57.4-274S90.2 101.2 177.1 74s226.5 14 334.6-17 190.1-66.1 313.5-8.7 58 322.7 58 322.7-57.4 191 12.8 235c70.2 43.9 55.4 166.8 4.6 181.1-43.9 12.3-531.4 3.4-665.3.7z"/></defs><clipPath id="SVGID_2_"><use xlink:href="#SVGID_1_" style="overflow:visible"/></clipPath><path style="clip-path:url(#SVGID_2_);fill:#dbcff9" d="M-51.5 14.4h1159.8v605.5H-51.5z"/><path style="clip-path:url(#SVGID_2_);fill:#a3c3d8" d="M-51.5 619.9h1159.8V801H-51.5z"/><g class="st3"><path style="fill:#b8aaf2" d="M208.4 16H838v502.4H208.4z"/><path class="st5" d="M224.2 16h598.1v489.8H224.2z"/><path style="opacity:.67;fill:#e6e7e8" d="m225.3 350.3 71.8-1.7-2.5-227 13.9-34.9 16.7 34.9V268h73.7v85.4h26.3V104.2h108l3 381.4 14.8.1V344.2l44.3-2.1v-81.8h48l1.4 229.6h27.8V209.5l36.6-87.9 45.1 96.6v271.7l14.6-4.2V348.6h48.6l2.1 157.2H227.8z"/><path class="st0" d="M407.9 14.6h11.2v492.6h-11.2zM628.4 14.6h11.2v492.6h-11.2z"/><path transform="rotate(90 521.953 167.701)" class="st0" d="M516.4-132.4h11.2v600.2h-11.2z"/><path transform="rotate(90 523.186 349.921)" class="st0" d="M517.6 49.8h11.2V650h-11.2z"/><path class="st7" d="M224.2 311 582.1 16h93.7L224.2 402.3zM224.2 474.4 734.6 16h31.1L224.2 505.8z"/></g><g class="st3"><path class="st8" d="M223.9 481s-8.2 38.9 5.6 65.8 36.3 118.9 36.3 118.9 2.4 16.1 17.7 15.3 11.2-13.9 11.2-13.9l-9.3-175.9-61.5-10.2z"/><ellipse class="st8" cx="248.6" cy="196.7" rx="28.3" ry="38.1"/><path class="st8" d="M252.6 226.7v38.6s15.7 25.5 31.4 3.3 0-37.3 0-37.3L272.4 211l-19.8 15.7z"/><path d="M224.4 177s-24.7-14.9 2.8-26 49.8-4.6 49.8-4.6 36.5 14.4 27.3 39.2-20.3 45.7-20.3 45.7-13.5-18.4-11.6-34.6L265 201s-4.5 10.5-12.3-10c0 0 4.4-16.6-4-14.6-8.5 2-24.3.6-24.3.6z" style="fill:#07091d"/><path class="st8" d="m240.6 260.1-29.4 45.1-3.9 7.2-22.9-30.1s-4.6-15 2.6-18.3 11.1-20.3 1.3-22.9-30.1-4.6-28.1 20.3 26.1 66.6 26.1 66.6 9.4 29.4 31.5 19.6 29.3-28.1 29.3-28.1l-6.5-59.4z"/><path class="st10" d="M337.6 452.9 291 526.7l-65.2-20.2 34.2-53.6z"/><path class="st11" d="M148.1 752.8h82.4v18.3h-82.4zM311.2 752.8h82.4v18.3h-82.4z"/><path style="fill:#6b45a8" d="M148.1 708.4h245.7v47.1H148.1z"/><path class="st13" d="M148.1 708.4h245.7v19H148.1z"/><path class="st8" d="M200.1 418.9s-41.8 13.8-20.3 41.9c21.6 28.1 88.8 83 88.8 83s-.9 22.9 12 15.7c12.9-7.2 14-29.4 14-29.4s-32.5-32.7-34.4-55.6c-1.9-22.9-60.1-55.6-60.1-55.6z"/><ellipse class="st8" cx="272.4" cy="201" rx="7.4" ry="10"/><path class="st14" d="m287.9 702.5-73.7 5.9c-2-1.3-3.5-2.5-4.7-3.6-12.2-11.5 13.4-15.6 22.9-18.6 10.5-3.3 31.1-23.8 31.1-23.8 17.3 25.2 27.2 0 27.2 0h6.7s2.4 19.9 3 31.7c.6 11.7-12.5 8.4-12.5 8.4z"/><path class="st15" d="m287.9 702.5-73.7 5.9c-2-1.3-3.5-2.5-4.7-3.6l90.9-10.7c.6 11.7-12.5 8.4-12.5 8.4zM214.2 691.6s22 5 27.6-10.7l-27.6 10.7z"/><g><path class="st14" d="M305 565.5 243.7 607c-2.4-.1-4.3-.4-5.9-.8-16.3-4 4-20.2 10.8-27.5 7.5-8 15.2-36.1 15.2-36.1 27.5 13.4 23.7-13.4 23.7-13.4l5.8-3.3s11.9 16.1 18.3 26.1c6.3 9.9-6.6 13.5-6.6 13.5z"/><path class="st15" d="M305 565.5 243.7 607c-2.4-.1-4.3-.4-5.9-.8l73.8-54.2c6.3 9.9-6.6 13.5-6.6 13.5zM235.5 592.4s21.6-6.5 18.7-22.9l-18.7 22.9z"/></g><path class="st10" d="m260 384.9-70.1 34 66.7 55.6s85.6-9.1 92.8-25.5l-5.2-14.4c-.1-.1-22.7-48.4-84.2-49.7z"/><path d="m255.9 239.8 9.1 22.9 19.1-31.4 33.3 3.5s-23.2 12.9-15.3 48.2c7.8 35.3 38.9 19 38.9 19l19 108.5s9.8 34-10.5 38.6c0 0-41.2-54.2-66.7-59.5-25.5-5.2-34.1 1.3-34.1 1.3s-1.9-62.7-11.7-70.6l-4.6-63.4c0-.1 11.1-16.4 23.5-17.1z" style="fill:#794ecc"/><path class="st8" d="M308.9 240.5c2-3.5 6.2-5.3 10.1-4.3 8 2 21.8 6.4 32.7 14.7 16.3 12.4 53.6 40.5 53.6 40.5s33.3 17.6 7.8 48.7c-25.5 31-45.5 56.5-45.5 56.5s-4.8 33.3-21.1 18.3c-16.3-15-11.1-22.9-6.5-27.4 4.6-4.6 13.7-10.5 13.7-10.5l31.4-41.8s3.3-16.3-7.8-19.6c-11.1-3.3-32.7-13.7-32.7-13.7s-28.7 15.9-40.9-11.9c-8.9-20.1-.3-40.1 5.2-49.5z"/></g><g class="st3"><path class="st17" d="M709.9 477.1s-8.2 38.9 5.6 65.8c13.7 26.9 36.3 118.9 36.3 118.9s2.4 16.1 17.7 15.3 11.2-13.9 11.2-13.9l-9.3-175.9-61.5-10.2z"/><ellipse class="st17" cx="734.6" cy="192.9" rx="28.3" ry="38.1"/><path class="st17" d="M738.6 222.9v38.6s15.7 25.5 31.4 3.3 0-37.3 0-37.3l-11.6-20.3-19.8 15.7z"/><path d="M710.3 173.1s-24.7-14.9 2.8-26c27.4-11.1 49.8-4.6 49.8-4.6s36.5 14.4 27.3 39.2c-9.1 24.8-20.3 45.7-20.3 45.7s-13.5-18.4-11.6-34.6l-7.4 4.3s-4.5 10.5-12.3-10c0 0 4.4-16.6-4-14.6-8.4 2.1-24.3.6-24.3.6z" style="fill:#723d2a"/><path class="st17" d="m718.6 252.5-29.4 45.1-3.9 7.2-22.9-30.1s-4.6-15 2.6-18.3c7.2-3.3 11.1-20.3 1.3-22.9-9.8-2.6-30.1-4.6-28.1 20.3s26.1 66.6 26.1 66.6 9.4 29.4 31.5 19.6c22.1-9.8 29.3-28.1 29.3-28.1l-6.5-59.4z"/><path class="st10" d="m823.5 449-46.6 73.9-65.1-20.3 34.1-53.6z"/><path class="st11" d="M634 749h82.4v18.3H634zM797.2 749h82.4v18.3h-82.4z"/><path style="fill:#ad6c04" d="M634 704.6h245.7v47.1H634z"/><path class="st13" d="M634 704.6h245.7v19H634z"/><path class="st17" d="M686.1 415s-41.8 13.8-20.3 41.9c21.6 28.1 88.8 83 88.8 83s-.9 22.9 12 15.7c12.9-7.2 14-29.4 14-29.4s-32.5-32.7-34.4-55.6c-2-22.9-60.1-55.6-60.1-55.6z"/><ellipse class="st17" cx="758.3" cy="197.2" rx="7.4" ry="10"/><path class="st20" d="m773.9 698.7-73.7 5.9c-2-1.3-3.5-2.5-4.7-3.6-12.2-11.5 13.4-15.6 22.9-18.6 10.5-3.3 31.1-23.8 31.1-23.8 17.3 25.2 27.2 0 27.2 0h6.7s2.4 19.9 3 31.7c.5 11.7-12.5 8.4-12.5 8.4z"/><path class="st15" d="m773.9 698.7-73.7 5.9c-2-1.3-3.5-2.5-4.7-3.6l90.9-10.7c.5 11.7-12.5 8.4-12.5 8.4zM700.1 687.8s22 5 27.6-10.7l-27.6 10.7z"/><path class="st20" d="m790.9 561.7-61.2 41.5c-2.4-.1-4.3-.4-5.9-.8-16.3-4 4-20.2 10.8-27.5 7.5-8 15.2-36.1 15.2-36.1 27.5 13.4 23.7-13.4 23.7-13.4l5.8-3.3s11.9 16.1 18.3 26.1c6.3 9.9-6.7 13.5-6.7 13.5z"/><path class="st15" d="m790.9 561.7-61.2 41.5c-2.4-.1-4.3-.4-5.9-.8l73.8-54.2c6.3 9.9-6.7 13.5-6.7 13.5zM721.4 588.6s21.6-6.5 18.7-22.9l-18.7 22.9z"/><path class="st10" d="m745.9 381.1-70.1 34 66.7 55.6s85.6-9.1 92.8-25.5l-5.2-14.4c0-.1-22.6-48.4-84.2-49.7z"/><path class="st14" d="m695.4 286.9 23.5 41 10-25-4.8-56.8s-24 15.5-28.7 40.8z"/><path class="st20" d="m738.6 235.6 12.3 23.3 19.1-31.4 29 3c1.5.2 2 2 .9 3-6.1 5.2-17.8 19.1-11.9 45.7 7.8 35.3 38.9 19 38.9 19l19 108.5s9.8 34-10.5 38.6c0 0-41.2-54.2-66.7-59.5-25.5-5.2-34.1 1.3-34.1 1.3s-1.9-62.7-11.7-70.6l-5.5-65.1c0-.1 7.8-7.8 21.2-15.8z"/><path class="st17" d="M794.8 236.6c2-3.5 6.2-5.3 10.1-4.3 8 2 21.8 6.4 32.7 14.7 16.3 12.4 53.6 40.5 53.6 40.5s33.3 17.6 7.8 48.7c-25.5 31-45.5 56.5-45.5 56.5s-4.8 33.3-21.1 18.3c-16.3-15-11.1-22.9-6.5-27.4 4.6-4.6 13.7-10.5 13.7-10.5l31.4-41.8s3.3-16.3-7.8-19.6c-11.1-3.3-32.7-13.7-32.7-13.7s-28.7 15.9-40.9-11.9c-8.9-20-.2-40 5.2-49.5z"/><path class="st14" d="M797.2 230.3s34.4 5.5 65.6 35.8L847.2 311h-13.4c-30.4 0-55.9-24.1-56.4-54.5-.2-14.1 4.4-25.6 19.8-26.2z"/></g><g class="st3"><path class="st21" d="M491.5 175.5s-14.5 44.9-38.9 47.9c-3.7.5 5.2-43.6 5.2-43.6s.9-7.8 7-8.7 10.9-18.3 1.7-23.1c-9.1-4.8-23.5-5.7-26.1 7.8s-1.7 25.3-1.7 25.3l-10.5 53.5s-5.2 25 24 16.7 53-30 53-30l1.7-53.1s-7.5-2.8-15.4 7.3zM499.7 485.2c0 2.2 38.3 86.1 38.3 86.1s20 19.5 23.5 0c.4-2.4-24.8-99.8-24.8-99.8l-39.6 7.2 2.6 6.5z"/><path class="st5" d="M567.2 573.8c-.4 4.4-1.2 14.1-1.7 21.9-.5 6.4-.8 11.6-.8 11.6l-78.9 1.3s-2.3-2.6-4.1-5.9c-3.3-5.8-5.5-14.1 6.7-15.9 20.9-3 27.4-5.2 36.2-13 6.9-6.1 13.5-8.8 13.5-8.8 3.4.1 11.3 21.7 22.7 1.9-.1 0 7.6-4.9 6.4 6.9z"/><path class="st22" d="M565.5 595.8c-.5 6.4-.8 11.6-.8 11.6l-78.9 1.3s-2.3-2.6-4.1-5.9l83.8-7z"/><ellipse class="st21" cx="506.9" cy="118.3" rx="22.8" ry="30.4"/><path class="st21" d="M511.4 144.9v32.9l24.6-24.6-6.3-34.9z"/><path d="m512.9 367-35.5 62.7s-11.8 20.5 5.2 44.9l16.1 18.5 33.7-25.9s-.5-39.2 22.5-50.1 52.4-50.1 52.4-50.1h-94.4z" style="fill:#396991"/><path class="st21" d="m443.5 382.4 80.2 60.1s25.2 11.5 23-8.6c0 0-61.9-70.3-70.6-86.8-8.7-16.5-32.6 35.3-32.6 35.3z"/><path class="st5" d="M572.8 451.9 526 511.3s-8.6 2.5-14.8.4c-4.1-1.4-7.2-4.9-5.7-12.6 3.7-19.2 12.4-27.4 13.3-36.6.9-9.1 1.3-18.7 1.3-18.7 2.2-2.6 17.9 4.6 25.3-11.2 0 0-4.3-7.5 7-3.8 6.3 2.1 11.9 9 15.7 14.8 2.9 4.5 4.7 8.3 4.7 8.3z"/><path class="st22" d="M572.8 451.9 526 511.3s-8.6 2.5-14.8.4c7.3-3.8 19.5-12.1 25.9-27.9 7-17.2 22.9-33.1 31-40.3 2.9 4.6 4.7 8.4 4.7 8.4z"/><path d="M527.4 305.3 443 320.1s-28.8 3.6-24 33.8c4.8 30.2 24.4 28.5 24.4 28.5l32.7-35.3 15.3 23.5s31.8-5.7 62.3 7c19.2 8 36.4 2.4 46.4-2.8 6.7-3.4 11.5-9.6 13-17 1.4-6.5 2.1-15.5-.2-26.2-4.7-22.2-85.5-26.3-85.5-26.3z" style="fill:#3e71a3"/><path class="st14" d="M491.5 105.7s-20-1.7-7.4-17.8 25.7-22.2 43.3-16.1c17.6 6.1 24.2 18.7 24.2 18.7s27-7.8 27.4 35.7c.4 43.6 5.2 41.4 13.1 41.8s10.3 15.9-7.3 17.3c0 0-48.7-22.6-37.9-51.8 0 0-1.7-7.8-7.9 8.3l-4.8 1s-8.8-13.2-3.5-27.2c5.3-13.9 1.3 2.5 1.3 2.5s-4.7-16.1-13.5-4.5c0 0-7-2.8-11.5-14.1-2.8-6.7-9 2-15.5 6.2z"/><ellipse class="st21" cx="524.5" cy="113.8" rx="6.1" ry="8.1"/><path class="st22" d="M532.8 148s-13.5 22.6-21.3 21.3v-6.4l-9.6 2.9-3.5 25.7s-13.9 16.2-2.2 34.1 30.5 34.7 30.1 56.4c-.4 21.6-1.7 26.9-1.7 26.9s24.4-6.1 40.1 11.3c15.7 17.4 51.4 15.7 51.4 15.7l-33.9-114.2s-41.7-1.1-49.5-20.1 2.4-39.1 12-42.3l-9.4-10.4-2.5-.9z"/><path class="st21" d="M544.6 159.1s44.4 32.1 71.5 41.9c27 9.8 23.5 37.6 13.5 58.6-10 20.9-29.2 47.1-29.2 47.1s-.4 35.3-21.3 34c-20.9-1.3-21.8-15.7-13.9-27s19.2-18.5 19.2-18.5l20.9-54.9s1.3-11.1-14.4-16.4c-15.7-5.2-30-3.5-30-3.5s-32.9-5.9-33.3-32c-.2-.1 0-20.8 17-29.3z"/><g><path class="st11" d="M401.6 654.8H484v18.3h-82.4zM564.8 654.8h82.4v18.3h-82.4z"/><path class="st22" d="M401.6 610.4h245.7v47.1H401.6z"/><path class="st13" d="M401.6 610.4h245.7v19H401.6z"/></g></g><ellipse class="st25" cx="907.9" cy="421.2" rx="17.1" ry="63.8"/><ellipse class="st0" cx="895.1" cy="507.3" rx="23.1" ry="86.2"/><ellipse class="st25" cx="66.5" cy="462.7" rx="17.1" ry="48.6"/><ellipse class="st0" cx="78.1" cy="389.3" rx="27.9" ry="73.4"/></svg>