<svg xmlns="http://www.w3.org/2000/svg" width="588" height="356.798"><defs><style>.a{fill:#e9daf6}.a,.b,.f,.k{opacity:.68}.b,.c{fill:#fff}.e{opacity:.73}.g,.k{fill:#8922e1}.h{fill:#cb7254}.l{fill:#fb9a6f}.o{fill:#1a2e37}.p{fill:#d8a29a}.t{fill:#ffbf9b}.w{fill:#ff9a6a}</style></defs><g transform="translate(.009 -.003)"><path class="a" d="M80.036 78.078s4.821-4.767-6.855-5.808c0 0-3.324-3.868-9.961-1.774s-8.908 3.549-12.681.591-16.272-5.382-7.045-8.044c0 0 13.344 2.082 8.872-1.774s-.864-4.761 6.282-3.868c0 0 2.644-1.775 1.916-5.956s14.622-4.761 29.87-3.549 17.035 3.868 29.243 1.183c0 0 11.013-2.082 17.863 4.14 0 0 11.6 2.082 2.366-2.082s-1.485-6.252-1.485-6.252h-8.931s7.423-7.743 13.983-4.17 11.019 2.283 18.164-.94c0 0-8.334 6.3 0 8.086 0 0-6.252 7.145-9.227 3.549s-5.655 1.774 1.183 2.679 8.038-4.466 8.038-4.466 11.019 0 4.767-5.956c0 0-1.491-6.642 4.14-3.916s-3.549 3.022 0 3.916 4.767-6.767 9.233-4.572-5.359 2.786-5.661 5.465-.3 3.549.591 7.145 9.168-1.485 6.222-4.761 2.413-7.441 5.986-5.359 4.761-5.063 10.12-1.183 12.5 5.95 11.013 9.825c0 0 8.931 3.549 3.277 6.548s-6.554-3.549-7.743.3 1.491 2.366-.3 5.359-.3 5.956-4.466 3.874-4.466-1.491-7.441-4.767a4.467 4.467 0 00-6.252-.591 62.648 62.648 0 008.032-4.767c2.674-2.088 5.063-2.679 3.549-5.057s-4.466-.893-7.139-2.088 2.674 5.66-5.661 7.145-7.145.538-4.14 2.206.893 2.259-3.874 2.259-6.252 2.366-6.252 2.366-1.485-4.827-.3-4.643-4.761 4.347-8.931 6.429-14.888 11.611-4.466 14.586 8.636 5.655 8.636 5.655-2.088 10.239 1.485 6.761-3.549-10.055 3.549-11.522 7.447-2.679 9.529-8.931 0-7.914 7.145-5.743 5.359 4.85 6.843 8.127 2.679-1.491 6.849-2.366-1.491 5.359 1.774 8.636 9.529 2.366 5.956 9.523 5.359 1.514 3.868 6.116-4.732 7.583-9.227 6.542-4.17-1.621-.591-6.542 5.956-4.921-1.774-2.242-5.956 2.957-8.931.893-10.718 0-9.227 1.349 5.956-1.053 6.548 1.331-2.082 4.88 3.277 5.418 8.931-.657.893 2.319-11.907 6.849-11.907 6.849 8.038-6.412 2.366-5.288-8.63-3.366-9.825 2.449-6.548 9.109-9.523 10.292-5.661 1.26-5.956 8.511-11.89 11.164-11.89 11.164 2.957 7.2-.591 11.167-7.441 4.963-7.441 0 1.183-6.151-3.868-6.151-7.447 4.14-10.422 2.082-2.679-6.548-9.227 1.183-9.825 19.353-2.957 24.416c0 0 .3 7.837 13.4-6.849 0 0 4.507-1.774 1.958 7.441 0 0-10.889 6.849 1.615 5.956 0 0 7.145-2.679 3.549 6.849 0 0-4.14 12.421 7.447 11.717 0 0 1.485-2.869 5.057 0a19.016 19.016 0 017.441-6.063c4.767-2.088 5.063-3.549 6.849-2.366s1.183 5.359 5.956 4.466 8.931-5.063 11.907-.3 6.1 2.366 8.872 8.334 12.877 5.063 14.663 11.611 5.956 5.743 16.674 11.356 16.455 7.778 10.2 20.554-.591 11.7-3.277 18.028-6.264 15.828-13.1 16.887c0 0-5.956 1.774-4.466 6.926s-7.145 17.946-7.145 17.946-7.329-5.282-6.938-1.6 6.08 6.063 3.235 9.34-8.364.3-9.771 2.957 3.194 3.549 0 5.956 1.106.591 0 5.95-4.986-1.183-3.2 6.554-2.366 4.732 1.774 11.6 12.5 8.932 12.5 8.932-4.466 8.636-15.775-2.366-14.935-9.464-14.314-20.045-.651-12.717-.373-14.444-20.432-70.604-23.407-77.146-17.561-11.025-11.309-19.347 16.071-3.1 13.989-11.238 1.183-12.545-3.549-11.83-9.411 6.678-16.467-11.185c0 0-11.664-1.491-12.114-8.784a16.471 16.471 0 01-13.758-.444c-7.672-3.573-14.669-35.874-13.6-43.77s1.4-10.085 1.4-10.085-1.088 1.928-7.376 4.241-21.293.408-21.293.408.384-10.008 8.228-13.433 14.988-12.208 14.1-17.567-3.549-5.655-.3-6.1c0 0-2.366-6.7-.745-6.843zM.026 233.348l45.544-.355s-.5-7.447-15.284-6.678-8.233-6.719-19.844-4.915S.026 233.348.026 233.348zM235.815 33.503l45.544-.361s-.5-7.441-15.284-6.678-8.233-6.719-19.844-4.909-10.416 11.948-10.416 11.948zM263.189 18.095l67.364-.532s-.733-11.008-22.6-9.878-12.179-9.937-29.355-7.263-15.409 17.673-15.409 17.673zM569.933 244.923s-.4 7.737 2.774 9.227 1.774 4.211 1.774 6.92 1.774 6.276 3.549 5.288-.592 3.212 1.774 6.666 8.139 13.6 2.183 19.135-7.737 6.914-10.315 10.3-3.774 11.333-7.944 9.943-2.366.154-6.548 1.183-7.938 1.183-8.931-2.366 2.366-8.76-1.585-8.872-4.566 1.7-4.566 1.7a4.861 4.861 0 00-1.183-5.164c-2.366-2.206-11.623-3.371-15.639-.4 0 0-4.483-10.055-5.915-12.569s2.058-7.6 2.058-7.6-1.106 2.041-5.838-.556-7.66-2.6-8.985-4.761-4.963-7.1 0-4.211a15.944 15.944 0 0015.479 0c4.365-2.455 4.566-10.99 8.931-11.782s1.467-6.548 5-4.963 6.6 4.371 8.34.8 4.14-4.986 4.921-5.17-4.614 1.183 3.052 0 8.281 0 4.886 2.188-3.371 3.549-.591 6.353 8.34 9.925 9.529.793 3.79-12.082 3.79-12.082zM552.342 317.776l6.075 1.981s.349 7.542-6.075 5.56c0 .001-2.313-8.298 0-7.541zM530.824 243.823s7.151-7.417 8.44-5.631-8.832 3.129-8.44 5.631zM524.401 231.84v-13.894s1.644 3.774 6.418 1.591c0 0-2.171 3.969 1.183 10.712l-1.987 1.591s-3.176-8.736-3.372-4.14zM525.323 215.959l10.712-.793-.929 2.78zM518.024 238.985h8.446M514.558 239.009a92.1 92.1 0 01-12.108-1.071c-4.761-.911-12.3-5.678-4.365-5.081 0 0 6.063 3.714 9.286 3.046s8.346 3.105 8.346 3.105zM504.089 218.939s-4.7-4.566 3.283-6.353a22.484 22.484 0 014.8-3.549c3.573-2.159 1.325-2.78 3.549-4.732s2.3-6.11 2.3-6.11a7.211 7.211 0 014.218 4.686 6.611 6.611 0 01-1.68 6.554s4.8 5.915 1.68 7.1-1.532 3.874-3.318 6.406.591 9.872-2.183 6.7-4.566-1.774-8.334-3.377-4.315-7.325-4.315-7.325zM499.275 222.962s6.252-2.041 4.815 3.318-7.79-1.089-4.815-3.318zM474.663 204.649s7.181 7.34 10.647 15.083 9 13.1 10 12.108-.988-7.441 1.6-8.872c0 0-5.761-2.041-5.164-6.406 0 0-12.392-6.944-12.421-9.925s-4.662-1.988-4.662-1.988z"/><path class="a" d="M492.525 214.307c-1.585-2.319-8.695-2.91-7.222-11.445 0 0-5.767.9-6.021-19.294 0 0-.249-4.921-2.236-6.311s-5.158 0-5.158 0l-.994-3.969s-4.909-6.151-5.631-10.913c0 0-1.1-1.591-3.59 1.183s-6.063.2-6.063.2-2.958 6.749-5.755 9.127a57.82 57.82 0 01-8.121 5.2s2.762 1.39 1.774 7.145-4.028 17.265-7.1 9.919-4.631-6.885-5.229-11.084.172-4.14-1.307-6.536-4.205-4.8-3.235-12.149c0 0-3.6 3.862-7.565-3.425 0 0-4.963-4.312-5.554-6.3s-14.491 2.579-20.045-3.371-6.95-1.183-6.95-1.183-5.95-4.963-6.743-6.749-8.34-3.549-3.975 2.957 9.925 3.969 9.328 7.938 6.749 1.585 7.145 0-.4-.994 3.377 3.549 9.328 2.366 2.958 8.73-11.51 16.928-18.259 16.5-10.321 2.153-10.321 2.153a15.872 15.872 0 01-2.774-7.689c-.2-4.188-9.529-11.54-9.328-18.289s-6.518-11.694-8.695-11.918 1.39 1.981 2.183 7.737 4.365 10.617 5.56 14.935 6.151 8.683 8.931 14.639 3.371 7.411 16.869 3.6c0 0 4.732-1.461-1.39 8.979s-19.049 22.134-20.043 30.17-3.969 6.749-.994 11.865 1.183 5.116 2.78 11.859-1.774 7.287-4.963 9-8.535 7.47-6.749 9.464 2.366 10.789-2.881 10.647c0 0-.3 2.644-5.057 8.4s-4.667 13.663-20.891 12.883c0 0-39.629 5.714-41.629-5.767s1.692-43.51 1.692-58.64 5.43-32.331-3.785-32.082-12.19 2.632-15.97.053-6.749-.071-8.334-8.281-6.554-9.795-7.743-10.588.2-6.175 1.39-13.509-1.183-4.353-.793-9.511 1.91-7.541 5.619-11.315 6.885-3.9 9.464-10.185.994-4.9 5.956-9.464 1.981-3.969 8.133-3.549-.4 1.987 7.541-1.384 6.175-4.241 12.711-2.52 6.743 2.715 6.743 2.715 1.39 8.535 4.963 8.73 9.3 4.963 10.8 6.554-2.957-5.755 3.235-6.95 8.926 2.957 13.125 3.549 4.194-.793 6.772-1.585 3.176 3.371 5.56.793 8.139-13.965 1.775-13.829-5.252 3.312-9.174 2.319-5.116.124-6.9-2.319-1.656-4.01-2.5-7.352-6.619-2.183-6.216 0 4.631 3.549 4.1 3.969-2.224 5.956-3.46 4.566-1.437-1.39-4.016-3.969-2.608-6.157-2.295-9.328-8.281-2.52-12.114-8.872-3.253 3.141 1.112 7.1 11.634 3.768 8.2 7.541a48.607 48.607 0 00-5.069 6.412s2.827-4.827-3.129-8.6-7.8-4.14-8.364-6.944-.3-.793-4.732.2-5.028 2.183-6.2 1.183-3.549-.2-4.732 3.549 1.981 4.17-1.686 7.743-7.045 5.359-9.825 4.14-3.774-.071-5.359-1.325-4.767-4.229-1.774-9-4.17-5.359 2.579-6.548 8.931 2.183 12.7.4-1.183-5.915-1.183-5.915a1.778 1.778 0 001.183-2.614c-1-1.987-6.944-2.774-6.944-2.774s.591-.8 3.774-1.987 0-2.8 4.862-3.188 3.667-.4 7.642-4.14 2.052-3.371 4.992-4.56 2.957 2.579 2.957-1.183 3.549-6.1 3.549-6.1c.988 1.142 5.359.5 2.366-2.455s-.2-.97-1.39-3.354-3.33-2.78-4.442 0-3.5 4.466-3.892 2.135-1.97-4.342-.964-7.541 2.928-3.265 6.506-4.211 6.778-7.689 8.76-10.274 6.151-2.579 8.73-3.377 5.56-2.579 8.139-2.366 3.176-1.591 6.548.793 3.176 1.183 7.547 2.957 3.549.591 6.743 2.183c2.366 1.183 5.507 3.129 4.655 3.922-.3.272-1.053.408-2.472.337-5.554-.29-12.338-1.088-9.742 1.3s7.961 2.957 8.157 2.366 4.365-3.176 6.548-7.346 5.56-1.39 5.755 0 1.39 1.183 6.157-.2a37.264 37.264 0 019.523-1.455c1.774-.13-1.774-4.7 1.987-3.5s7.542 1.774 9.328 2.579-2.78-1.118-2.579-4.43 1.183-8.985 5.158-3.963 5.359 6.873 5.755 9.316a6.435 6.435 0 001.774 3.661s2.366-.154.591-3.661-1.987-5.814-2.78-7.938.994 2.319 4.963 0-1.183-2.957 6.151-4.9 8.535-2.957 13.5-3.366 1.775-3.105 10.12-1.851 11.711 3.614 12.9 5.217.432 2.484 4.282 2.141 2.9 3.295 6.95 2.762 6.962-6.4 17.313-1.378 6.187 5.016 16.508 2.242 14.882-3.111 20.442-.864 2.212 3.046 10.729 2.449 6.536-.592 13.882 1.987 2.579 2.183 10.913 1.774 7.145-1.987 13.3.591 10.522 1.029 16.278 4.785 11.51 7.127 5.95 5.915-13.1-4.371-13.3-2.957-3.371 1.4-.994 3.578 3.975 2.886 4.963.946 3.549-1.739 1.987 1.236-5.211 5.359-7.867 4.17-8.606-1.106-8.009 1.136-8.139 2.33-3.549 5.164 6.548.645 8.529 9.18-.4 10.83-2.366 8.789-4.149-2.684-8.549-8.817-7.742-5.246-4.963-9.162 2.78-.059 2.957-5.164 1.39-5.507-1.774-2.922-3.969 5.448-6.347 2.922-6.169-1.934-4.075 1.443-.3 7.411-1.68 5.093-4.141-.526-6.157-3.508-38.7.793-36.915 25.8-8.334 15.68 1.591 41.481 2.685 26.4 2.685 26.4-3.082 3.371 1.283 7.737 6.625 3.975 5.495 12.309-2.916 6.548-4.5 8.535-.994 6.944-3.176 1.585-2.153-6.548-5.146-8.931a39.776 39.776 0 00-5.323-3.614s-6.033 1.828-.875 8.375 4.093 1.987 6.713 8.34 2.218 5.82 2.816 9.919z"/><path class="a" d="M380.792 249.105s2.579 2.774 0 9.825a123.294 123.294 0 00-5.158 17.6c-.793 4.14-5.956 8.647-6.548 2.916s-2.147-7.79 0-12.084c.793-1.585 1.774-2.437 1.585-6.282s-2.579-2.957 1.987-4.986 5.95-1.236 7.34-5 .794-1.989.794-1.989zM276.894 72.571s3.123-.893 3.72 3.868-2.679.893.591 4.761 2.833 2.827 4.767 5.655-1.041 6.7-3.129 5.063-1.774-.556-3.425.39-3.123 1.692-3.72.8-1.774 1.491-.745-2.366.893-4.614 1.94-4.614 1.485 1.041 1.337-1.183.3-1.934-1.041-3.271-2.827-2.088-3.425-3.129-.893-2.212 0-2.744A4.241 4.241 0 00276 73.187c.445-1.509.894-.616.894-.616z"/><path class="a" d="M271.978 79.864c.45-.148 3.72 3.04 3.72 3.04s-1.183 1.272-1.857 2.017 1.857 3.549-1.266 4.022-2.088-1.491-4.466 0-3.277 3.164-2.827.988 1.638-2.537 1.638-4.513 1.934-2.147 2.827-2.514 1.041.532 1.633-1.254z"/><path class="b" d="M319.015 58.878c.207-.426 8.778-4.62 5.507-.591s-5.962 3.271-5.513 6.548.591 5.063 1.774 5.655 8.778-4.466 10.564-1.934 1.491 3.277-1.934 2.827-5.8-.976-6.1.929-2.957.414-2.366 1.307 4.448-2.366 4.732 0 1.644 3.123-1.183 2.827-4.022-3.153-3.549.059 2.23 3.957-.45 5.6-.592 2.532-5.359 1.934-4.359.225-7.908.189a48.6 48.6 0 00-4.892 0c-1.49.112-4.318-2.123 0-2.567s1.147.136 4.892-1.774 3.147 1.343 4.336-2.082 1.638-5.59 3.549-5.471 1.934-2.526 0-3.064-3.549-5.1-.893-6.542 3.603-1.466 4.793-3.85z"/><path class="c" d="M334.049 117.074c-.444-1.041 2.957-1.491 0-4.17s2.236-3.549 1.934-4.466 0-8.186 4.14-6.1 4.022 5.655 5.507 4.016 0-2.082 2.679-3.72 3.72-4.016 4.732-1.638 0 1.343-1.041 3.425-2.082 2.679-1.041 3.123 9.529 1.638 9.529 4.915.591 7.293-4.318 4.614-6.855-4.318-9.381-2.679-1.041-1.041-5.057.745-4.466 1.337-5.211 1.774a5.057 5.057 0 01-2.472.161zM377.665 105.463s5.655-5.879 1.041-5.471-8.636-2.117-8.334 5.471.745 3.425 3.271 10.422 1.5 6.7 1.774 9.079 9.819 7.743 9.375 2.957-4.14-7.737-2.957-9.079 5.394 1.183 2.993-2.366-3.886-.893-6.264-5.205-3.3-8.038-.899-5.808z"/><path class="a" d="M443.284 193.73s-2.957 6.7 1.183 8.636 1.7-5.063 1.7-5.063zM500.167 168.533c-1.183.491-1.266 6.6 1.23 4.809s2.271-4.7 0-4.809-1.23 0-1.23 0zM545.57 209.96c-.473 1.254 42.421 0 42.421 0s-2.236-5.43-11.759-5.471-12.8.041-15.331-1.774-10.421-5.856-15.331 7.245zM215.752 326.057c-.467 1.254 42.421 0 42.421 0s-2.23-5.43-11.759-5.471-12.8.041-15.331-1.774-10.415-5.868-15.331 7.245z"/><path class="b" d="M139.812 100.891s5.146-1.638 8.121 0 7.145-.444 3.549-3.72-11.67 3.72-11.67 3.72z"/><path class="b" d="M150.961 110.378c-.893-.591 2.366-7.045 0-7.618s4.767-3.744 5.359 0-.219 4.324-2.786 5.968-3.034 3.111-3.034 3.111z"/><path class="c" d="M153.493 113.975h-4.909a.319.319 0 01-.325-.325.325.325 0 01.325-.325h4.909a.326.326 0 110 .651z"/><path fill="#e9daf6" d="M134.825 85.412v5.56"/><path class="c" d="M124.089 66.295c-5.578 5.359-7.364.3-5.578 5.359M125.267 56.554c-7.944 2.319-13.746.946-5.489 0s5.489 0 5.489 0zM148.583 104.741s-12.185 1.774-8.772 7.145-3.134 1.171 8.772-7.145z"/><g class="e"><g class="f"><path class="g" d="M87.524 123.231l-.053 2.117a39.949 39.949 0 11-6.944-3.839l1.461-1.325a41.664 41.664 0 105.536 3.046z"/></g><g class="e"><path class="g" d="M87.637 124.26a1.064 1.064 0 01-.591.2.852.852 0 01-.881-.911l.432-6.347-4.614 4.1a.958.958 0 01-1.331 0 .917.917 0 01.118-1.307l6.305-5.6a1.006 1.006 0 011.035-.189.84.84 0 01.515.84l-.591 8.494a1.035 1.035 0 01-.397.72z"/></g></g><ellipse class="h" cx="11.836" cy="16.674" rx="11.836" ry="16.674" transform="rotate(-13.18 479.731 -147.902)"/><path class="h" d="M52.402 127.531l.917 11.623v10.717h14.683l-.994-11.167-.988-6.3z"/><path class="h" d="M101.522 135.387l-.379 14.485c1.987 26.025-4.56 28.983-4.56 28.983-6.075 6.217-12.149.284-14.84-3.129a23.163 23.163 0 01-1.437-2.035l.988 19.247c-14.29 9.925-33.715 1.183-33.715 1.183s2.366-11.706 2.957-16.272-3.768-6.151-3.768-6.151l-1.987 21.033c-8.931-2.78-14.491-15.674-14.491-15.674l1.591-14.314.243-2.153.355-3.182c4.566-12.3 10.315-14.485 15.473-16.869a19.09 19.09 0 012.585-.988 7.512 7.512 0 012.78-.379 1.981 1.981 0 011.183.379 12.567 12.567 0 000 2.106c.473 5.388 4.986 4.773 5.625 4.655h.077c5.7 2.957 6.548-9.286 6.548-9.286 3.306-1.147 7.411 1.343 11.782 5.116 1.834 1.591 3.549 5.051 5.093 8.837l.053.124c2.07 5.152 3.744 10.877 4.773 13.267.591 1.4 1.218 1.774 1.774 1.7a1.774 1.774 0 00.958-.591 3.9 3.9 0 00.964-2.881c-.284-4.667-.591-21.424-.272-22.618.4-1.39-.526-3.484-2.9-4.732-1.94-1-1.739-2.159-1.739-2.159a1.414 1.414 0 012.407-.444 16.107 16.107 0 003.179 2.151 71.2 71.2 0 00-1.39-7.258c-.739-2.9 1.183-2.052 1.987-1.183s1.774 6.648 1.774 6.648l.254-6.749c.438-4.939 1.875 0 1.875 0l1.13 6.246a31.5 31.5 0 00.3-4.974c0-3.289 1.39-2.265 1.39-2.265l.674 6.175s1.053-5.394 1.928-3.91c1.578 2.697-1.222 7.861-1.222 7.861z"/><path d="M81.745 175.72a23.156 23.156 0 01-1.437-2.035l.988 19.253c-14.29 9.925-33.715 1.183-33.715 1.183s2.366-11.705 2.957-16.272-3.768-6.151-3.768-6.151l-1.987 21.033c-8.931-2.78-14.491-15.674-14.491-15.674l1.591-14.314c5.773-.591 14.97-2.786 18.655-10.3v-13.74l2.78.449a22.1 22.1 0 001.183 2.484c1.183 2.2 3.23 5.01 5.625 4.655h.077c3.922-.7 5.093-2.3 6.548-9.286h3.241s-1.508 14.652 13.63 13.952l.053.124 6.548 14.965z" fill="#ffa810"/><path d="M48.421 124.621s3.308-9.683 6.508-7.693c0 0 1.774-4.566 5.353-2.957 0 0 2.585-3.052 4.572-.337a17.515 17.515 0 004.566-1.13 4.513 4.513 0 013.768 0s.657-8.458-6.619-11.83c0 0 5.826-3.17-3.105-8.334 0 0-4.732-8.535-12.9-1.774 0 0-9.328-5.158-11.315 3.176 0 0-9.127.4-4.365 9.529 0 0-7.334 4.56 5.164 9.328-.026-.039 5.108 10.529 8.373 12.022z" fill="#1e3138"/><ellipse class="h" cx="2.632" cy="3.348" rx="2.632" ry="3.348" transform="rotate(-36.42 208.425 -9.6)"/><path class="g" d="M106.037 99.874c-3.437-11.41-16.124-10.316-18.661.952-1.621 7.228 10.511 22.056 10.511 22.056 12.498-16.366 8.15-23.008 8.15-23.008zm-9.038 8.872a6.533 6.533 0 100-.018z"/><g class="e" transform="translate(67.526 208.99)"><g class="f"><path class="g" d="M15.935 31.869A15.935 15.935 0 1131.87 15.94a15.935 15.935 0 01-15.935 15.929zm0-30.562A14.633 14.633 0 1030.568 15.94 14.633 14.633 0 0015.935 1.307z"/></g><circle class="k" cx="1.384" cy="1.384" r="1.384" transform="translate(9.742 14.556)"/><circle class="k" cx="1.384" cy="1.384" r="1.384" transform="translate(14.556 14.556)"/><circle class="k" cx="1.384" cy="1.384" r="1.384" transform="translate(19.371 14.556)"/><g class="f"><path class="g" d="M31.237 32.573l-6.838-3.537.6-1.153 3.833 1.981-1.556-4.146 1.213-.455z"/></g></g><g class="e"><g class="f"><path class="g" d="M163.915 270.162l-1.414 1.816a43.433 43.433 0 11-3.6-7.837l2.129-.219a45.26 45.26 0 102.881 6.24z"/></g><g class="e"><path class="g" d="M163.347 271.138a1.134 1.134 0 01-.651-.207.923.923 0 01-.183-1.366l4.472-5.276-6.672.591a1.041 1.041 0 01-1.183-.87 1.006 1.006 0 01.952-1.065l9.127-.828a1.077 1.077 0 011.029.5.9.9 0 01-.089 1.065l-5.992 7.062a1.088 1.088 0 01-.81.39z"/></g></g><path class="g" d="M194.459 245.904c-3.437-11.416-16.124-10.315-18.661.946-1.627 7.234 10.511 22.056 10.511 22.056 12.497-16.376 8.15-23.002 8.15-23.002zm-9.038 8.872a4.66 4.66 0 10-.024-.018z"/><path class="l" d="M110.912 233.348v33.46s15.787 12.054 23.381 3.549-3.551-14.739-3.551-14.739l-1.774-11.161z"/><ellipse class="l" cx="14.344" cy="18.448" rx="14.344" ry="18.448" transform="rotate(-5.44 2313.943 -1042.306)"/><path d="M110.912 256.103s-19.395 2.679-23.659 13.841-11.433 25.9-11.433 25.9l17.559 5.359 3.649 20.542s18.088 20.11 49.348 0v-25.008l17.419.45s-3.519-25.96-19.649-36.619l-13.4-4.915s-11.956 17.86-19.834.45z" fill="#3270b8"/><path class="l" d="M160.194 293.164s13.4 23.547.893 30.243c0 0-9.381 8.606-26.351-27.563 0 0-8.281 3.472-13.64-5.755l-6.157 1.774s-1.686 0-.692-2.478c0 0-3.549-1.591-1.591-3.277s.5 0 .5 0l11.912-5.856s7.34 4.963 10.221 6.648l5.258 3.076 8.334 8.038-.1-2.182zM78.422 295.152l-2.187 2.679s-1.39-.8-1.686-3.969-2.78-28.391-2.78-28.391 1.987-.793 2.579-3.969a44.8 44.8 0 013.549-3.969c.373-.1-.4-2.366-2.129-1.39a14.857 14.857 0 00-3.626 3.774s-2.478.893-2.478-1.591-.5-10.718-.5-10.718-2.082-1.686-2.579 0 0 8.837 0 8.837-1.686 2.875-1.491-.2 0-9.381 0-9.381-1.668-2.437-2.366 0 0 9.677 0 9.677-.893.8-1.094-.3-.4-8.233-.4-8.233-2.366-2.088-2.579.591 0 8.636 0 8.636a22 22 0 00-1.094-5.063c-.7-1.39-2.679-.591-1.686 2.679l.994 3.277s.988 4.365 2.875 6.151 3.969 40.487 3.969 40.487 3.277 17.662 18.561 12.5c0 0 10.913-13.793 12.007-18.058z"/><path d="M108.262 228.663s.591 8.73 3.8 1.39c0 0-1.384-6.353 2.585-6.353 0 0 .852-8.281 5.584-6.909s12.421 6.713 16.709 3.336c0 0 8.47-6.548-.858-11.309 0 0-7.754.793-11.717-1.774 0 0-6.938-2.585-10.712 2.774 0 0 1.727 2.366-5.388 4.767-.003-.011-1.219 3.361-.003 14.078z" fill="#1b2f36"/><ellipse class="l" cx="2.603" cy="3.389" rx="2.603" ry="3.389" transform="rotate(-13.18 1051.172 -345.455)"/><g class="e"><g class="f"><path class="g" d="M323.804 229.462l-.242 2.218a42.078 42.078 0 11-6.956-4.637l1.65-1.26a43.77 43.77 0 105.548 3.679z"/></g><g class="e"><path class="g" d="M323.804 230.556a1.106 1.106 0 01-.645.16.9.9 0 01-.846-1.035l1.006-6.619-5.187 3.886a1.017 1.017 0 01-1.4-.13.964.964 0 01.242-1.36l7.1-5.323a1.059 1.059 0 011.106-.112.881.881 0 01.467.929l-1.349 8.872a1.059 1.059 0 01-.494.732z"/></g></g><path class="g" d="M338.16 181.723c-3.437-11.416-16.124-10.315-18.661.946-1.609 7.246 10.517 22.033 10.517 22.033 12.497-16.354 8.144-22.979 8.144-22.979zm-9.038 8.872a10.375 10.375 0 10.006-.018z"/><path class="o" d="M309.609 211.398s1.916 14.953 8.665 18.685c0 0-2.957 2.017 0 4.17s4.347 7.713 2.573 10.67-2.957 1.183-1.39 6.749.591 7.417-1.39 5.8-1.449 8.494-8.464 2.739-9.168-7.725-9-12a66.579 66.579 0 00-.592-10.31c-.177-1.5 3.791-12.344 4.188-14.965s.591-6.388.994-7.577 4.416-3.961 4.416-3.961z"/><ellipse class="p" cx="11.836" cy="16.674" rx="11.836" ry="16.674" transform="translate(286.511 204.726)"/><path class="p" d="M288.102 227.48l-7.145 25.9s15.881 7.435 25.008 2.271-1.774-8.334-1.774-8.334l-3.372-1.532-.2-11.534z"/><path class="g" d="M284.53 245.787s9.529 6.506 17.668-.852c0 0 9.523-.124 15.875 12.545l6.95 21.79-10.919 13.894.793 12.309s-22.441 9.7-41.676-3.176l4.963-9.121s-9.724-2.845-10.919-16.207.591-20.507.591-20.507l5.158-8.234s5.465-7.35 11.516-2.441z"/><path class="p" d="M279.171 294.353s7.021 11.912 16.112 2.78 23.186-23.719 23.186-23.719 7.346-2.165 6.554-9.765c0 0 3.371-.651 4.365 1.136 0 0 2.957-1.183 1.39-2.78s-8.34-4.525-8.34-4.525-5.158-.917-8.73 6.169c0 0 .929 1.845-4.1 5.258s-17.532 14.332-17.532 14.332l-2.188 2.7-2.295-2.892-9.41 7.93z"/><path d="M333.603 252.08h13.27s2.673.444 0 5.359-8.784 16.674-8.784 16.674h-14.716z" fill="#1d2b36"/><circle cx="1.343" cy="1.343" r="1.343" transform="translate(338.893 254.754)" fill="#606060"/><path class="p" d="M314.305 289.793s-2.366 13.87 5.554 12.492c0 0 13.5-10.836 18.46-23.275 0 0 6.151-5.175 5.95-12.38s-6.548-6.607-6.548-6.607-1.39.651 2.579 3.626c0 0 2.78 4.732-1.981 1.136l-3.774-1.136s-3.034-2.638-3.306 1.532l5.294 2.579-5.294-.2s-3.105 1.774 0 2.774 5.489-.592 3.508 3.076l-11.114 10.422-.591-4.827z"/><path class="o" d="M309.609 216.284s-6.181-16.053-11.238-9.872c0 0-1.739 11.274-9.269 13.291s-4.732 6.613-4.732 6.613 6.707 2.614 3.549 7.938 3.371 6.731 2.78 13.965 1.455 11.008 4.6 12.794c0 0-8.967 6.554-14.326-.988l-3.371 2.1s-4.761-8.056-4.761-12.025l-4.963 6.353s-8.334-6.506-1.39-13.971c0 0 1.987-4.093-.994-7.269s4.17-5.678 5.56-10.28-2.78-6.193.2-9.765 7.742-9.127 9.724-11.907 8.34-11.315 19.85-3.549c-.02-.026 15.991 1.437 8.781 16.572z"/><ellipse class="p" cx="3.218" cy="4.531" rx="3.218" ry="4.531" transform="translate(282.649 218.413)"/><g class="e"><g class="f"><path class="g" d="M520.367 285.186l-1.059 1.692a37.512 37.512 0 11-3.78-6.429l1.81-.373a39.038 39.038 0 103.028 5.11z"/></g><g class="e"><path class="g" d="M519.955 286.073a.935.935 0 01-.591-.118.8.8 0 01-.278-1.183l3.377-4.927-5.661 1.159a.9.9 0 01-1.071-.651.858.858 0 01.722-1l7.772-1.508a.935.935 0 01.935.337.8.8 0 010 .929l-4.531 6.6a.922.922 0 01-.674.362z"/></g></g><path d="M475.011 268.825s-9.825 1.266-10.718 7.37-3.265 6.82-6.1 7.056-2.679 5.323-2.526 9.618-6.1 4.14-4.022 8.038 2.366 6.548 7.89 5.8 19.347-14.29 19.8-14.734 3.549-10.422 3.354-11.167-7.678-11.981-7.678-11.981z" fill="#182f35" opacity=".68"/><ellipse class="t" cx="12.616" cy="17.774" rx="12.616" ry="17.774" transform="translate(470.067 247.703)"/><path class="t" d="M478.141 279.01v21.566l19.945 1.8-2.786-16.36-.225-17.194z"/><path d="M471.771 256.564s1.774-9.393 6.37-5.223 6.843 5.235 9.972 5.223 6.548 6.234 5.655 8.914-1.946 7.1.142 8.1 1.774 14.71 1.774 14.71l6.749 1.307-1.041-14.29s5.181-1.934 5.181-11.451c0 0 3.129-10.315-2.957-13.569 0 0-2.23-1.183-6.252-5.631s-16.077-3.123-16.077-3.123-6.063 1.029-9.517 8.47c0 0-2.626 7.293-1.7 11.907z" fill="#182f35"/><path class="t" d="M449.56 295.844s.852-4.986 0-8.015a9.811 9.811 0 013.271-3.164s1.609-1.644.242-2.194a1.846 1.846 0 00-1.993.5l-2.189 2.326s-1.916-.627-1.473-3.549l-.089-6.66s-1.567-3.206-2.011.444a27.8 27.8 0 000 6.7s-.621.225-.692-1.337-.651-7.1-.651-7.1-1.414-1.674-1.934 0 0 8.145 0 8.145-.816.3-.893-1.118 0-6.252 0-6.252-2.011-1.561-2.159.526 0 6.772 0 6.772a16.449 16.449 0 01-1.414-3.5c-.444-1.774-1.183-.964-1.118.148a21.121 21.121 0 001.55 6.8c1.183 2.733 1.952 2.81 1.774 4.667a59.555 59.555 0 00.225 6.329z"/><path d="M478.88 285.606s-1.485 10.688 6.849 11.132a10.829 10.829 0 009.079-8.908s6.252-2.4 15.929 6.08c0 0 4.17 1.337 7 13.841l2.827 12.5s-8.819 13.545-13.19 14.142l-5.116-12.8 1.772 14.443s-20.992 13.989-41.4-1.343v-5.187s-9.641 17.4-19.341.722c0 0-6.1-23.517-5.211-36.767l14.438-.148.591 23.37 10.416-22.772s4.343-10.511 15.357-8.305z" fill="#7ac6b0"/><path class="g" d="M554.845 270.594c-3.437-11.41-16.124-10.292-18.661.946-1.627 7.228 10.511 22.056 10.511 22.056 12.521-16.377 8.15-23.002 8.15-23.002zm-9.038 8.872a6.533 6.533 0 100-.018z"/><g class="e" transform="translate(425.433 221.264)"><g class="f"><path class="g" d="M20.767 41.51A20.755 20.755 0 1141.51 20.759 20.755 20.755 0 0120.767 41.51zm0-39.813a19.064 19.064 0 1019.064 19.062A19.063 19.063 0 0020.767 1.7z"/></g><circle class="k" cx="1.804" cy="1.804" r="1.804" transform="translate(12.699 18.951)"/><circle class="k" cx="1.804" cy="1.804" r="1.804" transform="translate(18.969 18.951)"/><circle class="k" cx="1.804" cy="1.804" r="1.804" transform="translate(25.239 18.951)"/><g class="e"><path class="g" d="M40.7 42.427l-8.908-4.608.775-1.5 5 2.585-2.035-5.406 1.585-.6z"/></g></g><path class="g" d="M445.465 66.918c-3.437-11.41-16.124-10.315-18.655.952-1.627 7.228 10.511 22.08 10.511 22.08 12.499-16.398 8.144-23.032 8.144-23.032zm-9.032 8.872a6.524 6.524 0 100-.035z"/><g class="e" transform="translate(453.145 26.305)"><g class="f"><path class="g" d="M15.941 31.869A15.935 15.935 0 1131.87 15.938a15.935 15.935 0 01-15.929 15.931zm0-30.562A14.633 14.633 0 1030.574 15.94 14.633 14.633 0 0015.941 1.31z"/></g><circle class="k" cx="1.384" cy="1.384" r="1.384" transform="translate(9.742 14.556)"/><circle class="k" cx="1.384" cy="1.384" r="1.384" transform="translate(14.556 14.556)"/><circle class="k" cx="1.384" cy="1.384" r="1.384" transform="translate(19.371 14.556)"/><g class="e"><path class="g" d="M31.237 32.573l-6.838-3.537.6-1.153 3.839 1.981-1.562-4.152 1.213-.455z"/></g></g><g class="e"><g class="f"><path class="g" d="M474.787 112.431a45.249 45.249 0 1011.948-19.359l1.97.834a42.913 42.913 0 11-5.743 6.435l-.816-2.153a45.045 45.045 0 00-7.358 14.243z"/></g><g class="e"><path class="g" d="M482.402 99.276a1.112 1.112 0 00.68 0 .923.923 0 00.591-1.254l-2.727-6.353 6.2 2.537a1.047 1.047 0 001.366-.5 1.006 1.006 0 00-.592-1.3l-8.482-3.472a1.082 1.082 0 00-1.13.172.911.911 0 00-.225 1.053l3.644 8.506a1.112 1.112 0 00.674.6z"/></g></g><path class="w" d="M506.271 90.545s0 18.058-3.123 21.962 21.885 19.59 27.681 10.286 0-14.669 0-14.669l-4.909-3.673-2.236-20.891z"/><ellipse class="w" cx="17.963" cy="14.539" rx="17.963" ry="14.539" transform="rotate(-76.26 306.66 -266.067)"/><path d="M494.117 88.18s3.176 4.176 4.566-.988 1.485-15.089 1.485-15.089 11.025-1.562 14.2-4.371 5.56.4 5.164 3.774 1.94 9.937 1.94 9.937 3.762 2.419 3.164 8.328 3.23 0 3.23 0 5.158-.8 5.56-3.578 3.549-5.187 0-6.66-1.987-.089-5.761-10.014-7.938-7.737-7.938-7.737-1.7-3.969-9.683-2.579-8.375 1.585-12.344.793-3.549 3.969-3.549 3.969-6.749 2.78-4.566 7.938-.994 7.595 1.774 9.156 2.758 7.121 2.758 7.121z" fill="#172e36"/><ellipse class="w" cx="4.052" cy="2.792" rx="4.052" ry="2.792" transform="rotate(-76.26 314.599 -288.87)"/><path d="M456.208 77.628l12.877-5.359 5.785 27.983-14.888.8z" fill="#395a63" opacity=".68"/><path class="w" d="M451.051 102.038s-.592-11.114 1.981-14.089 7.743-6.353 9.925-2.957a24.623 24.623 0 012.526 5.542 1.774 1.774 0 01-1.656 2.289h-3.253l.793 6.459z"/><path d="M505.71 104.055s-6.341-3.8-17.952 8.281a286.835 286.835 0 01-22.589 20.962l-3.823-34.034h-11.49l2.827 44.308s2.236 15.728 19.649 6.3l19.206-16.562-4.466 23.659s18.75 18.082 41.079 10.381l3.129-26.025 7.145 23.659 12.054-9.819-5.95-33.715s.485-10.428-18.928-17.81c.018.042-11.439 10.311-19.891.415z" fill="#ee505d"/><circle cx="1.437" cy="1.437" r="1.437" transform="translate(461.171 76.64)" fill="#2c464c"/><path class="a" d="M379.404 20.159c-3.436-11.41-16.124-10.315-18.661.952-1.621 7.228 10.517 22.056 10.517 22.056 12.486-16.412 8.144-23.008 8.144-23.008zm-9.038 8.872a5.373 5.373 0 10-.012-.047z"/><path d="M159.698 161.707c-2.591-8.6-12.155-7.772-14.065.716-1.224 5.453 7.92 16.627 7.92 16.627 9.421-12.345 6.145-17.343 6.145-17.343zm-6.832 6.678a4.927 4.927 0 113.486-1.445 4.933 4.933 0 01-3.486 1.445z" fill="#e1e1e1" opacity=".68"/><path class="g" d="M109.273 119.611a.905.905 0 01-.278-.041c-1.556-.455-2.443-.668-2.449-.674a.973.973 0 11.45-1.893c.035 0 .94.225 2.549.7a.976.976 0 01-.272 1.911zM186.119 220.566h-.053a.976.976 0 01-.923-1.029c.1-1.775.16-3.549.177-5.247a.976.976 0 01.97-.964.976.976 0 01.964.982c0 1.775-.077 3.549-.177 5.323a.97.97 0 01-.958.935zm.095-10.582a.982.982 0 01-.97-.94 106.138 106.138 0 00-.337-5.229.976.976 0 011.94-.171q.24 2.662.343 5.323a.97.97 0 01-.935 1.012zm-.958-10.534a.976.976 0 01-.964-.834 96.317 96.317 0 00-.9-5.152.976.976 0 011.91-.39c.355 1.727.662 3.5.923 5.264a.982.982 0 01-.828 1.106zm-2.123-10.357a.97.97 0 01-.94-.722 84.934 84.934 0 00-1.5-5.01.976.976 0 011.851-.591c.556 1.68 1.071 3.4 1.526 5.122a.976.976 0 01-.686 1.183 1.289 1.289 0 01-.254.018zm-3.33-10.055a.976.976 0 01-.9-.591 84.587 84.587 0 00-2.094-4.791.982.982 0 011.774-.84 85.679 85.679 0 012.147 4.9.976.976 0 01-.9 1.337zm-4.537-9.552a.976.976 0 01-.852-.5 88.586 88.586 0 00-2.674-4.5.976.976 0 111.644-1.047 86.392 86.392 0 012.733 4.6.976.976 0 01-.384 1.325.947.947 0 01-.467.142zm-5.672-8.925a.964.964 0 01-.787-.408 85.21 85.21 0 00-3.194-4.14.976.976 0 011.514-1.23 94.357 94.357 0 013.253 4.241.982.982 0 01-.787 1.55zm-6.672-8.18a.946.946 0 01-.716-.319c-1.183-1.278-2.366-2.543-3.644-3.774a.976.976 0 111.366-1.39 98.024 98.024 0 013.715 3.851.98.98 0 01-.722 1.633zm-7.559-7.417a.958.958 0 01-.645-.248 110.485 110.485 0 00-4.016-3.377.976.976 0 011.218-1.52c1.4 1.118 2.768 2.271 4.087 3.442a.97.97 0 01.083 1.372.958.958 0 01-.728.331zm-8.281-6.631a.97.97 0 01-.591-.183 120.078 120.078 0 00-4.324-2.993.976.976 0 011.076-1.627c1.491.988 2.957 2.011 4.389 3.046a.976.976 0 01.219 1.36.988.988 0 01-.751.39zm-8.837-5.838a.982.982 0 01-.5-.142 122.437 122.437 0 00-4.566-2.608.976.976 0 01.935-1.709c1.567.852 3.123 1.745 4.637 2.65a.976.976 0 01-.5 1.81zm-9.3-5.075a.929.929 0 01-.432-.1 163.323 163.323 0 00-4.732-2.236.976.976 0 01.787-1.774c1.621.722 3.247 1.485 4.838 2.271a.976.976 0 01-.432 1.845zm-9.671-4.342a.952.952 0 01-.355-.071 121.285 121.285 0 00-4.933-1.845.976.976 0 11.645-1.84c1.65.591 3.336 1.213 5 1.875a.976.976 0 01-.361 1.881zM185.397 228.451h-.118a.976.976 0 01-.852-1.082c.106-.858.2-1.715.284-2.561a.972.972 0 011.934.2c-.083.858-.177 1.727-.284 2.6a.97.97 0 01-.964.852zM199.788 249.655a1 1 0 01-.343-.059.982.982 0 01-.591-1.254c0-.036.343-.917 1.047-2.449a.976.976 0 011.774.81c-.674 1.461-.988 2.313-.994 2.319a.976.976 0 01-.893.633zM203.107 242.7a.946.946 0 01-.467-.118.97.97 0 01-.384-1.319 95.621 95.621 0 012.6-4.477.976.976 0 011.656 1.023 79.319 79.319 0 00-2.549 4.383.976.976 0 01-.856.508zm5.394-8.713a.97.97 0 01-.8-1.526 99.359 99.359 0 013.058-4.176.97.97 0 011.538 1.183 106.392 106.392 0 00-3 4.093.97.97 0 01-.8.426zm6.264-8.1a.958.958 0 01-.633-.237.976.976 0 01-.106-1.372c1.118-1.307 2.283-2.6 3.46-3.845a.964.964 0 011.372-.036.976.976 0 01.041 1.378c-1.183 1.218-2.3 2.484-3.4 3.768a.982.982 0 01-.739.343zm7.039-7.441a.976.976 0 01-.674-1.68 100.46 100.46 0 013.827-3.472.976.976 0 111.254 1.467 102.529 102.529 0 00-3.756 3.413.981.981 0 01-.651.269zm7.748-6.69a.988.988 0 01-.769-.373.976.976 0 01.172-1.366 111.271 111.271 0 014.14-3.076.976.976 0 011.118 1.6c-1.378.964-2.75 1.976-4.081 3.011a.94.94 0 01-.58.201zm8.387-5.868a.976.976 0 01-.521-1.774c1.449-.911 2.957-1.774 4.448-2.638a.976.976 0 11.946 1.7 90.875 90.875 0 00-4.359 2.585.957.957 0 01-.515.124zm8.931-5a.976.976 0 01-.438-1.845c1.538-.763 3.111-1.5 4.685-2.183a.976.976 0 11.781 1.774c-1.544.674-3.094 1.4-4.6 2.141a1.047 1.047 0 01-.432.106zm9.375-4.093a.976.976 0 01-.343-1.887c1.6-.591 3.235-1.183 4.868-1.715a.97.97 0 011.224.621.982.982 0 01-.621 1.23c-1.6.521-3.212 1.088-4.785 1.686a.882.882 0 01-.343.059zm9.724-3.182a.976.976 0 01-.26-1.916 114.9 114.9 0 015-1.266.976.976 0 01.438 1.9c-1.656.379-3.306.8-4.921 1.248a.992.992 0 01-.26.03zm9.972-2.3a.976.976 0 01-.958-.8.964.964 0 01.781-1.13c1.674-.314 3.383-.592 5.087-.84a.976.976 0 01.278 1.928c-1.68.242-3.366.52-5.01.822zm10.126-1.461a.971.971 0 01-.1-1.94 134.68 134.68 0 015.134-.432.972.972 0 01.13 1.94c-1.692.112-3.4.254-5.063.432zm25.564-.367h-.065c-1.7-.118-3.419-.207-5.087-.266a.976.976 0 01.071-1.946c1.692.059 3.425.154 5.146.266a.976.976 0 01-.065 1.946zm-15.379-.308a.976.976 0 010-1.946c1.485-.047 3-.065 4.5-.065h.657a.976.976 0 010 1.946h-.671c-1.485 0-2.957 0-4.442.065zM319.351 190.175h-.106c-.864-.095-1.721-.189-2.573-.272a.972.972 0 01.189-1.934c.864.083 1.727.172 2.6.272a.971.971 0 11-.107 1.94zM341.578 185.012a.982.982 0 01-.9-.591.97.97 0 01.515-1.278c.035 0 .881-.373 2.466-.958a.976.976 0 11.668 1.816 139.67 139.67 0 00-2.366.923.965.965 0 01-.385.089zM535.556 260.822a.976.976 0 01-.846-.485 213.017 213.017 0 00-2.614-4.383.97.97 0 01.319-1.337.982.982 0 011.343.319 341.452 341.452 0 012.638 4.424.97.97 0 01-.84 1.461zm-5.323-8.742a.964.964 0 01-.816-.45 212.058 212.058 0 00-2.81-4.265.976.976 0 011.621-1.088c.952 1.414 1.9 2.857 2.827 4.3a.97.97 0 01-.3 1.343.946.946 0 01-.522.16zm-5.731-8.5a.982.982 0 01-.793-.414 240.983 240.983 0 00-3-4.14.98.98 0 111.561-1.183 284.362 284.362 0 013.029 4.14.97.97 0 01-.237 1.354.941.941 0 01-.58.243zm-6.128-8.216a.976.976 0 01-.763-.373 192.57 192.57 0 00-3.206-3.969.976.976 0 111.5-1.242 189.344 189.344 0 013.235 4 .976.976 0 01-.769 1.579zm-6.56-7.89a.976.976 0 01-.733-.331 161.3 161.3 0 00-3.413-3.785.976.976 0 111.431-1.325c1.183 1.248 2.319 2.537 3.448 3.827a.97.97 0 01-.095 1.372.952.952 0 01-.638.242zm-6.968-7.518a.952.952 0 01-.692-.29c-1.183-1.183-2.413-2.419-3.626-3.549a.976.976 0 011.349-1.408c1.224 1.183 2.455 2.366 3.667 3.62a.982.982 0 010 1.378.97.97 0 01-.698.249zm-7.4-7.1a.976.976 0 01-.651-.249 157.365 157.365 0 00-3.839-3.348.976.976 0 111.26-1.491c1.3 1.1 2.608 2.242 3.88 3.389a.97.97 0 01-.651 1.7zm-7.825-6.613a.964.964 0 01-.591-.213 140.51 140.51 0 00-4.046-3.088.976.976 0 111.153-1.567 157.576 157.576 0 014.1 3.129.976.976 0 01-.592 1.739zm-8.245-6.08a.947.947 0 01-.55-.172 141.49 141.49 0 00-4.247-2.81.976.976 0 011.047-1.644c1.431.917 2.881 1.875 4.3 2.851a.97.97 0 01-.55 1.774zm-8.642-5.519a.953.953 0 01-.5-.136 151.11 151.11 0 00-4.43-2.5.976.976 0 01.929-1.715c1.508.816 3.016 1.674 4.489 2.543a.97.97 0 01-.491 1.81zm-9.014-4.88a1.047 1.047 0 01-.432-.1 126.81 126.81 0 00-4.6-2.183.976.976 0 01.8-1.774c1.556.7 3.123 1.449 4.661 2.212a.97.97 0 01-.432 1.845zm-9.34-4.217a.887.887 0 01-.367-.077 179.8 179.8 0 00-4.732-1.84.976.976 0 11.674-1.828c1.609.591 3.229 1.218 4.809 1.869a.976.976 0 01-.367 1.875zm-105.539-3.141a.976.976 0 01-.29-1.9c1.6-.509 3.259-1 4.945-1.473a.976.976 0 01.526 1.875c-1.668.467-3.306.952-4.886 1.455a1 1 0 01-.3.059zm95.915-.39a1.071 1.071 0 01-.3-.047c-1.6-.521-3.241-1.023-4.868-1.491a.976.976 0 01.538-1.875c1.65.473 3.312.982 4.933 1.514a.976.976 0 01-.3 1.9zm-86.037-2.366a.976.976 0 01-.231-1.922c1.656-.4 3.348-.787 5.028-1.147a.976.976 0 11.408 1.9 187.46 187.46 0 00-4.974 1.136 1.028 1.028 0 01-.248.035zm76.183-.45a1.119 1.119 0 01-.237 0 137.5 137.5 0 00-4.963-1.142.976.976 0 01.4-1.9c1.68.355 3.371.745 5.034 1.153a.976.976 0 01-.237 1.922zm-66.146-1.674a.976.976 0 01-.172-1.934c1.686-.3 3.4-.592 5.087-.84a.976.976 0 01.29 1.928c-1.674.248-3.366.532-5.028.828a.9.9 0 01-.176.021zm56.12-.438h-.166c-1.662-.29-3.354-.556-5.033-.793a.964.964 0 01-.828-1.094.976.976 0 011.094-.834c1.7.237 3.419.509 5.1.8a.976.976 0 01-.166 1.934zm-45.976-1.082a.976.976 0 01-.112-1.94c1.7-.2 3.425-.379 5.128-.532a.982.982 0 011.053.887.97.97 0 01-.881 1.053c-1.686.154-3.389.325-5.075.526zm35.82-.331h-.1a159.13 159.13 0 00-5.075-.444.972.972 0 01.136-1.94c1.715.118 3.442.272 5.14.45a.971.971 0 11-.1 1.94zm-25.605-.592a.976.976 0 01-.059-1.946c1.721-.1 3.454-.172 5.158-.213a.976.976 0 11.047 1.946c-1.68.041-3.4.112-5.093.213zm15.379-.154h-.041c-1.686-.065-3.4-.106-5.093-.112a.976.976 0 110-1.946c1.709 0 3.448.047 5.158.106a.976.976 0 01-.036 1.952zM539.383 267.607a.976.976 0 01-.858-.509q-.591-1.142-1.242-2.271a.973.973 0 011.7-.946l1.26 2.283a.988.988 0 01-.39 1.325 1.018 1.018 0 01-.47.118zM110.913 105.692a.976.976 0 01-.5-1.81c.035 0 .816-.485 2.295-1.3a.976.976 0 01.935 1.709c-1.437.787-2.218 1.254-2.23 1.26a1 1 0 01-.5.136zM322.273 161.323a.97.97 0 01-.869-.538 202.408 202.408 0 00-2.366-4.531.972.972 0 011.715-.917c.8 1.491 1.6 3.028 2.366 4.572a.976.976 0 01-.869 1.414zm-4.838-9.05a.982.982 0 01-.852-.491c-.834-1.479-1.7-2.957-2.567-4.413a.972.972 0 011.668-1 141.307 141.307 0 012.6 4.448.976.976 0 01-.367 1.331 1.017 1.017 0 01-.479.124zm-5.288-8.789a.982.982 0 01-.822-.45 204.272 204.272 0 00-2.8-4.259.973.973 0 011.609-1.094c.952 1.4 1.9 2.845 2.839 4.306a.976.976 0 01-.822 1.5zm-5.767-8.482a.97.97 0 01-.787-.4c-1-1.384-2.029-2.762-3.052-4.087a.976.976 0 111.544-1.183 171.356 171.356 0 013.088 4.14.97.97 0 01-.793 1.544zm-6.27-8.115a.988.988 0 01-.751-.355 141.68 141.68 0 00-3.306-3.874.976.976 0 111.461-1.289c1.124 1.278 2.254 2.6 3.348 3.922a.976.976 0 01-.13 1.372.988.988 0 01-.621.225zm-6.79-7.689a.964.964 0 01-.71-.308 207.93 207.93 0 00-3.549-3.626.976.976 0 111.366-1.39 134.162 134.162 0 013.62 3.679.97.97 0 01-.7 1.644zm-7.334-7.175a.976.976 0 01-.651-.249 136.366 136.366 0 00-3.839-3.348.972.972 0 011.248-1.491 119.87 119.87 0 013.9 3.4.978.978 0 01-.657 1.7zm-7.861-6.571a.982.982 0 01-.591-.2 125.619 125.619 0 00-4.093-3.023.976.976 0 111.124-1.591c1.4.988 2.792 2.017 4.14 3.07a.976.976 0 01-.591 1.745zm-160.412-3.42a.97.97 0 01-.444-1.84c1.5-.757 3.058-1.514 4.643-2.259a.979.979 0 11.828 1.774c-1.567.739-3.111 1.5-4.59 2.242a.964.964 0 01-.438.083zm152.012-2.5a.941.941 0 01-.526-.154c-1.42-.911-2.881-1.81-4.336-2.656a.976.976 0 01.976-1.686 130.92 130.92 0 014.407 2.7.97.97 0 01.29 1.349.958.958 0 01-.793.444zM127 97.639a.97.97 0 01-.39-1.863 247.246 247.246 0 014.732-2.023.97.97 0 11.739 1.774 236.021 236.021 0 00-4.7 2.005.912.912 0 01-.381.112zm133.888-3.289a.976.976 0 01-.455-.112 114.708 114.708 0 00-4.549-2.271.979.979 0 01.828-1.774c1.556.728 3.111 1.508 4.631 2.307a.976.976 0 01-.455 1.834zm-124.4-.615a.976.976 0 01-.355-1.881c1.6-.591 3.224-1.224 4.838-1.774a.971.971 0 11.657 1.828c-1.6.591-3.212 1.183-4.791 1.774a1.064 1.064 0 01-.344.058zm9.665-3.466a.976.976 0 01-.308-1.9 201.62 201.62 0 014.909-1.567.977.977 0 11.591 1.863 228.225 228.225 0 00-4.874 1.55.9.9 0 01-.313.059zm105.485-.278a.941.941 0 01-.379-.077 116.145 116.145 0 00-4.732-1.863.976.976 0 11.674-1.828c1.615.591 3.229 1.23 4.809 1.893a.976.976 0 01-.373 1.875zm-95.643-2.721a.976.976 0 01-.26-1.911c1.656-.461 3.336-.9 4.986-1.325a.976.976 0 01.479 1.893c-1.638.408-3.3.852-4.939 1.307a1.028 1.028 0 01-.3.035zm86.014-.822a1.063 1.063 0 01-.3-.047c-1.6-.509-3.247-1-4.88-1.443a.972.972 0 11.515-1.875c1.656.449 3.33.94 4.957 1.461a.976.976 0 01-.3 1.9zm-76.053-1.68a.97.97 0 01-.213-1.922 184.28 184.28 0 015.051-1.059.976.976 0 01.373 1.91c-1.65.319-3.33.674-5 1.047a.905.905 0 01-.242.024zm66.167-1.012a.869.869 0 01-.213 0 122.186 122.186 0 00-4.986-1.023.976.976 0 01-.781-1.136.964.964 0 011.136-.781c1.692.313 3.4.662 5.063 1.041a.976.976 0 01-.219 1.922zm-56.089-.95a.976.976 0 01-.16-1.934c1.7-.284 3.413-.544 5.1-.775a.973.973 0 11.26 1.928c-1.668.231-3.366.485-5.045.763a.735.735 0 01-.189.018zm46-.917h-.142a116.25 116.25 0 00-5.051-.621.976.976 0 11.2-1.94c1.709.177 3.437.39 5.128.633a.97.97 0 01-.136 1.934zm-35.832-.473a.971.971 0 11-.1-1.94 171.76 171.76 0 015.146-.461.982.982 0 011.011.881.97.97 0 01-.9 1.041c-1.68.124-3.389.278-5.081.461zm25.621-.588h-.059c-1.68-.106-3.4-.183-5.093-.237a.97.97 0 01-.946-1 .982.982 0 011-.946c1.727.047 3.46.13 5.164.242a.976.976 0 01-.065 1.946zm-15.379-.172a.976.976 0 01-.041-1.946c1.727-.071 3.46-.112 5.164-.124a.976.976 0 010 1.946c-1.68 0-3.4.053-5.093.124zM325.66 168.32a.976.976 0 01-.887-.562q-.544-1.183-1.1-2.366a.982.982 0 111.774-.84c.373.781.745 1.567 1.112 2.366a.976.976 0 01-.473 1.3.993.993 0 01-.426.102zM335.664 164.428a1.028 1.028 0 01-.266-.036.976.976 0 01-.674-1.183c0-.035.26-.929.781-2.52a.976.976 0 011.851.591c-.509 1.544-.757 2.425-.757 2.437a.97.97 0 01-.934.71zM338.119 157.153a.883.883 0 01-.343-.065.97.97 0 01-.591-1.254 177.33 177.33 0 011.881-4.773.976.976 0 011.775.745 125.773 125.773 0 00-1.863 4.732.97.97 0 01-.859.615zm3.9-9.422a.976.976 0 01-.881-1.378c.7-1.544 1.437-3.105 2.194-4.631a.985.985 0 111.774.858 161.171 161.171 0 00-2.165 4.578.982.982 0 01-.923.574zm4.519-9.138a.906.906 0 01-.455-.118.964.964 0 01-.4-1.313c.816-1.52 1.662-3.023 2.508-4.478a.976.976 0 111.686.982 135.022 135.022 0 00-2.478 4.412.958.958 0 01-.858.515zm5.14-8.8a.922.922 0 01-.521-.154.97.97 0 01-.3-1.343c.923-1.455 1.875-2.9 2.833-4.282a.976.976 0 111.6 1.106 124.992 124.992 0 00-2.792 4.223.976.976 0 01-.822.45zm5.785-8.381a.964.964 0 01-.591-.2.976.976 0 01-.2-1.366 118.643 118.643 0 013.182-4.034.97.97 0 011.366-.13.982.982 0 01.136 1.372 113.356 113.356 0 00-3.129 3.963.976.976 0 01-.769.39zm6.506-7.855a1 1 0 01-.656-.248.982.982 0 01-.065-1.378 143.12 143.12 0 013.549-3.715.972.972 0 011.372 1.378 95.066 95.066 0 00-3.484 3.644.97.97 0 01-.733.319zm7.222-7.169a.976.976 0 01-.657-1.7 92.833 92.833 0 013.939-3.312.976.976 0 011.183 1.532 82.442 82.442 0 00-3.851 3.235.988.988 0 01-.633.248zm7.985-6.311a.976.976 0 01-.556-1.774 79.314 79.314 0 014.318-2.8.982.982 0 011.337.337.964.964 0 01-.331 1.331 76.96 76.96 0 00-4.211 2.739.976.976 0 01-.574.172zm8.713-5.241a.976.976 0 01-.45-1.84c1.532-.787 3.1-1.52 4.667-2.188a.976.976 0 11.763 1.774 68.822 68.822 0 00-4.537 2.129 1 1 0 01-.461.124zm9.351-3.981a.97.97 0 01-.319-1.893 68.895 68.895 0 014.939-1.491.972.972 0 01.491 1.881c-1.609.42-3.224.911-4.8 1.449a1 1 0 01-.331.053zm9.825-2.579a.976.976 0 01-.177-1.934 76.085 76.085 0 015.093-.757.976.976 0 01.219 1.94 69.715 69.715 0 00-4.957.733zm10.1-1.142a.976.976 0 01-.041-1.946 77.953 77.953 0 015.152-.047.976.976 0 010 1.946c-1.7-.035-3.377 0-5.022.047zM429.899 87.635h-.118c-.858-.1-1.709-.183-2.549-.26a.964.964 0 01-.887-1.053.982.982 0 011.053-.887c.864.077 1.733.166 2.614.266a.976.976 0 01-.112 1.946z"/></g></svg>