<svg xmlns="http://www.w3.org/2000/svg" width="486" height="473.562"><defs><style>.a{fill:#f1f2f2}.b{fill:#bd7c5e}.c{fill:#6d63fa}.d{fill:#333}.e{fill:#2d2d2d}.f{fill:#bd7871}.g{fill:#fda819}.h{fill:#fda57d}.i{fill:#ee505d}.j{fill:#6e3b2a}.k{fill:#fdb696}.m{fill:#fdb795}.n{fill:#686767}.o{fill:#444}.p{fill:#fbd739}.q{fill:#f9bca5}.r{fill:#f7b69f}</style></defs><g><circle class="a" cx="70.882" cy="70.882" r="70.882" transform="translate(1.592 5.597)"/><rect class="b" width="23.554" height="32.123" rx="8.48" transform="translate(59.295 100.706)"/><path class="c" d="M30.39 132.829s2.139-19.27 28.911-12.846c0 0 9.642 19.27 23.561 0 0 0 25.693-5.71 28.551 12.846-.006 0-32.489 32.84-81.023 0z"/><ellipse class="b" cx="32.423" cy="34.921" rx="32.423" ry="34.921" transform="translate(38.593 41.558)"/><ellipse class="b" cx="6.303" cy="8.222" rx="6.303" ry="8.222" transform="rotate(-25.09 184.968 -54.634)"/><path class="d" d="M41.451 93.21s5.71 9.282 12.134-31.4c0 0 32.483 1.426 40.332-6.783s7.146-16.421-4.285-22.844c0 0-4.664 3.565-13.206-2.5S49.82 32.535 49.82 32.535s-22.288-2.139-17.99 5.71c0 0-.713 7.856-7.136 10.708s0 11.894 0 11.894-2.872 16.305 16.757 32.363z"/><path class="d" d="M88.566 53.238s14.272 11.78 13.559 26.413c0 0 5.737-12.493-6.77-32.123z"/><circle class="a" cx="70.882" cy="70.882" r="70.882" transform="translate(172.914 .073)"/><path class="e" d="M201.705 108.289s44.969 32.563 78.878 0l-17.99-51.712-44.108-3.692z"/><rect class="f" width="20.342" height="32.123" rx="8.48" transform="translate(230.97 95.342)"/><path class="g" d="M200.613 127.265s2.139-19.276 28.911-12.846c0 0 9.635 19.27 23.554 0 0 0 25.7-5.71 28.551 12.846.004 0-32.475 32.816-81.016 0z"/><circle class="f" cx="30.33" cy="30.33" r="30.33" transform="translate(210.794 47.628)"/><path class="e" d="M210.727 75.886s-6.589-40.035 32.29-39.845c31.51.167 28.218 38.346 28.218 38.346l-2.912-8.536-53.638-1.526z"/><ellipse class="f" cx="6.217" cy="4.624" rx="6.217" ry="4.624" transform="rotate(-79.17 180.254 -119.942)"/><ellipse class="f" cx="4.624" cy="6.217" rx="4.624" ry="6.217" transform="rotate(-10.83 467.135 -1046.857)"/><circle class="a" cx="70.882" cy="70.882" r="70.882" transform="translate(344.236)"/><rect class="h" width="22.841" height="32.123" rx="8.48" transform="translate(402.645 97.128)"/><path class="i" d="M373.074 128.261s2.139-19.276 28.911-12.853c0 0 9.635 19.276 23.554 0 0 0 25.7-5.71 28.551 12.853.001 0-32.475 32.833-81.016 0z"/><circle class="h" cx="31.183" cy="31.183" r="31.183" transform="translate(382.395 41.778)"/><path class="j" d="M382.393 74.387l6-18.423s3.092-6.91 11.654 0 24.514 6.323 24.514 6.323 16.238-8.662 18.35 0 4.729 13.168 4.729 13.168 2.612-20.436-9.282-30.65c0 0 .473-10.708-9.522-10.941 0 0 2.619-8.089.48-10.468 0 0-2.619 4.757-12.133 4.757l.473-6.9-6.423 7.376s-13.12 3.112-21.069 12.387c-8.722 10.139-14.166 29.473-7.771 33.371zM384.461 75.886s11.067 10.781 16.071 14.759c1.912 1.526 3.538 3.378 5.917 3.951 5.25 1.273 13.932 2.545 18.7-1.266 7.116-5.71 16.618-15.372 16.618-15.372l2.385 3.118s-4.051 15.325-14.519 20.582c0 0-14.332 10.408-33.662.446a8.241 8.241 0 01-1.673-1.159c-3.327-2.997-15.421-14.831-9.837-25.059zM398.84 92.144s15.745-8.8 27.739 0"/><ellipse class="h" cx="5.937" cy="4.218" rx="5.937" ry="4.218" transform="rotate(-74.23 272.24 -249.875)"/><ellipse class="h" cx="4.218" cy="5.937" rx="4.218" ry="5.937" transform="rotate(-15.77 445.071 -1330.247)"/><circle class="a" cx="70.882" cy="70.882" r="70.882" transform="translate(0 160.354)"/><circle class="k" cx="32.363" cy="32.363" r="32.363" transform="translate(38.713 201.386)"/><path class="d" d="M38.752 235.381s4.364-29.491 15.784-22.128 21.415 9.522 33.549 6.423 11.241-3.2 12.8 1.453S103.436 238 103.436 238s4.664-5.47 0-23.081c0 0-3.691-9.941-9.4-13.533 0 0-.24-6.217-9.042-9.548 0 0 5-4.278 1.906-9.275 0 0-6.19 7.376-13.326 4.044l1.666-5.71s-8.804 7.61-15.939 10.941-12.607 10.947-12.607 10.947-14.452 14.712-7.942 32.596z"/><ellipse class="k" cx="4.618" cy="6.143" rx="4.618" ry="6.143" transform="rotate(-8.71 1527.578 -113.523)"/><ellipse class="k" cx="6.143" cy="4.618" rx="6.143" ry="4.618" transform="rotate(-76.79 198.494 58.886)"/><rect class="k" width="22.841" height="32.123" rx="8.48" transform="translate(59.961 256.796)"/><path class="g" d="M30.39 287.926s2.139-19.276 28.911-12.853c0 0 9.642 19.276 23.561 0 0 0 25.693-5.71 28.551 12.853-.006 0-32.489 32.836-81.023 0z"/><circle class="a" cx="70.882" cy="70.882" r="70.882" transform="translate(168.99 163.333)"/><circle class="k" cx="32.363" cy="32.363" r="32.363" transform="translate(207.476 204.73)"/><rect class="k" width="20.942" height="32.123" rx="8.48" transform="translate(229.191 260.141)"/><path d="M199.147 291.271s2.139-19.276 28.911-12.853c0 0 9.635 19.276 23.554 0 0 0 25.7-5.71 28.551 12.853.004 0-32.475 32.836-81.016 0z" fill="#8922e1"/><path class="j" d="M207.473 237.093s6.49-29.784 16.245-20.982 23.794 10.228 36.407 7.136 10.368.713 12.08 9.042-.939 12.547-.939 12.547 8.935-10.168 1.513-25.873c0 0-3.085-14.419-20.269-20.462-21.655-7.609-37.353 9.042-37.353 9.042s-12.032 13.339-7.684 29.55z"/><path class="j" d="M230.617 202.559s-6.663-9.515 2.379-15.465c0 0-2.432-12.133 10.8-11.66 0 0 9.468.1 6.33 10.947 0 0 8.329 4.811 2.139 15.019z"/><ellipse class="k" cx="6.143" cy="4.618" rx="6.143" ry="4.618" transform="rotate(-76.79 286.035 -45.085)"/><ellipse class="k" cx="4.618" cy="6.143" rx="4.618" ry="6.143" transform="rotate(-8.71 1634.003 -1219.816)"/><circle class="a" cx="70.882" cy="70.882" r="70.882" transform="translate(344.203 164.818)"/><circle class="m" cx="30.617" cy="30.617" r="30.617" transform="translate(384.881 209.095)"/><rect class="m" width="20.942" height="32.123" rx="8.48" transform="translate(404.85 261.207)"/><path class="c" d="M374.813 292.337s2.139-19.276 28.911-12.853c0 0 9.635 19.276 23.554 0 0 0 25.7-5.71 28.551 12.853.001 0-32.475 32.822-81.016 0z"/><path class="n" d="M399.786 213.019l-16.658 30.217s-4.917-24.08 16.658-30.217zM447.187 244.416s6.15-24.334-9.435-26.073l9.435 26.073"/><path class="o" d="M407.948 247.794h-8.94a3.065 3.065 0 01-3.058-3.058v-2.479a3.065 3.065 0 013.058-3.058h8.942a3.065 3.065 0 013.058 3.058v2.479a3.065 3.065 0 01-3.058 3.058zm-8.942-7.036a1.5 1.5 0 00-1.5 1.5v2.479a1.506 1.506 0 001.5 1.506h8.942a1.506 1.506 0 001.506-1.506v-2.479a1.506 1.506 0 00-1.506-1.5zM433.288 248.18h-8.942a3.065 3.065 0 01-3.058-3.065v-2.472a3.065 3.065 0 013.058-3.058h8.942a3.065 3.065 0 013.065 3.058v2.472a3.065 3.065 0 01-3.065 3.065zm-8.942-7.043a1.506 1.506 0 00-1.5 1.506v2.472a1.506 1.506 0 001.5 1.506h8.942a1.506 1.506 0 001.506-1.506v-2.472a1.506 1.506 0 00-1.506-1.506z"/><path class="o" d="M422.341 242.347a.786.786 0 01-.38-.1c-5.3-2.992-11.427 0-11.487 0a.78.78 0 01-.7-1.393c.287-.14 6.923-3.385 12.953 0a.78.78 0 01-.387 1.453zM436.373 243.536a.773.773 0 01-.56-1.333l7.4-7.749a.78.78 0 111.126 1.073l-7.4 7.749a.78.78 0 01-.566.26zM396.728 244.276a.773.773 0 01-.52-.2l-9.748-8.775a.78.78 0 111.039-1.159l9.735 8.775a.78.78 0 01-.506 1.359z"/><ellipse class="m" cx="4.618" cy="6.143" rx="4.618" ry="6.143" transform="rotate(-8.71 1728.914 -2372.616)"/><ellipse class="m" cx="6.143" cy="4.618" rx="6.143" ry="4.618" transform="rotate(-76.79 374.542 -155.383)"/><circle class="a" cx="70.882" cy="70.882" r="70.882" transform="translate(0 323.061)"/><path class="p" d="M39.099 425.772s5.211 26.406 19.723 28.551 16.418 7.683 29.264-3.418a66.463 66.463 0 006.37-6.33 63.966 63.966 0 0015.918-45.513 30.8 30.8 0 00-1.826-9.935c-3.838-9.168-8.555-20.956-29.737-21.415s-35.281 5.71-38.106 14.519-9.928-4.044-3.771 34.5z"/><circle class="q" cx="32.363" cy="32.363" r="32.363" transform="translate(39.099 364.118)"/><rect class="q" width="20.942" height="32.123" rx="8.48" transform="translate(60.814 419.529)"/><path class="i" d="M30.777 450.659s2.139-19.277 28.91-12.857c0 0 9.635 19.276 23.554 0 0 0 25.7-5.71 28.551 12.853.002.004-32.505 32.84-81.015.004z"/><path class="p" d="M39.1 390.045s.926-12.133 12.82 0 39.112 9.781 45.509 8.109 4.664 9.995 4.664 9.995a33.263 33.263 0 006.13-10.714 21.169 21.169 0 00-1.333-17.424c-4.158-7.523-13.193-17.651-32.216-20.4 0 0-30.71-3.638-39.372 28.431a13.6 13.6 0 001.333 10.2 22.641 22.641 0 002.5 3.958c.412-.022-.035-12.155-.035-12.155z"/><ellipse class="q" cx="6.143" cy="4.618" rx="6.143" ry="4.618" transform="rotate(-76.79 302.421 140.844)"/><ellipse class="q" cx="4.618" cy="6.143" rx="4.618" ry="6.143" transform="rotate(-8.71 2596.165 -34.594)"/><circle class="a" cx="70.882" cy="70.882" r="70.882" transform="translate(173.634 330.963)"/><path class="d" d="M284.628 410.507c-.033 26.652-22.921 30.65-46.162 30.65s-32.356-16.458-32.356-36.76 15.991-40.305 39.259-40.305 39.299 16.67 39.259 46.415z"/><circle class="r" cx="32.363" cy="32.363" r="32.363" transform="translate(213.039 372.427)"/><rect class="r" width="20.942" height="32.123" rx="8.48" transform="translate(234.754 427.838)"/><path class="c" d="M204.717 458.968s2.139-19.276 28.9-12.853c0 0 9.642 19.276 23.561 0 0 0 25.693-5.71 28.551 12.853.005 0-32.478 32.836-81.012 0z"/><path class="d" d="M208.868 409.114s15.378-3.1 33.489-21.895c0 0 19.07 18.917 37.806 19.2l-3.072-18.1a6.662 6.662 0 00-1.626-3.372c-6.1-6.8-32.649-32.649-60.328-2.952-4.377 4.684-5.709 13.32-6.269 27.119z"/><ellipse class="r" cx="6.143" cy="4.618" rx="6.143" ry="4.618" transform="rotate(-76.79 395.476 34.137)"/><ellipse class="r" cx="4.618" cy="6.143" rx="4.618" ry="6.143" transform="rotate(-8.71 2737.8 -1172.432)"/></g></svg>