<svg xmlns="http://www.w3.org/2000/svg" width="694" height="563.491"><defs><style>.a,.b{fill:#d7c7f9}.b{opacity:.46}.c{fill:#96d9c9}.d{fill:#fff}.e{fill:#3c8f7c}.f{fill:#fcfcfc}.g{fill:#fa0}.h{fill:#282828}.i{fill:#e1dcef}.j{fill:#eeebf7}.k{fill:#b5a3e8}.l{fill:#231f20}</style></defs><g transform="translate(.004 10)"><path class="a" d="M49.77 374.245s-87.586 26.86-30.388 66.171c0 0 81.576-15.194 90.4 17.873s8.907 90.272 73.213 70.606 44.639-82.222 92.007-68.821 57.2 80.443 119.782 65.249 48.385-54.519 100.61-56.3 92.436 24.131 102.715-25.031 69.445-78.055 29.14-91.311-151.151-30.7-195.862-31.035-203.412-3.005-266.679 1.205S49.77 374.245 49.77 374.245z"/><path class="b" d="M74.213 394.847s-87.594 26.86-30.388 66.178c0 0 81.576-15.194 90.389 17.873s8.907 90.236 73.205 70.577 44.653-82.229 92.015-68.82 57.176 80.436 119.761 65.242 48.392-54.5 100.61-56.305 92.443 24.131 102.723-25.053 69.476-78.034 29.131-91.292S500.53 342.575 455.84 342.22s-203.412-3.013-266.679 1.205-114.948 51.422-114.948 51.422z"/><path class="b" d="M591.354 374.244s87.586 26.86 30.388 66.171c0 0-81.576-15.194-90.4 17.873s-8.907 90.272-73.212 70.606-44.639-82.222-92.007-68.82-57.202 80.441-119.779 65.249-48.385-54.519-100.61-56.3-92.428 24.125-102.705-25.036-69.445-78.055-29.14-91.311 151.136-30.7 195.819-31.035 203.42-3.02 266.679 1.205 114.967 51.398 114.967 51.398z"/><path class="c" d="M526.991 401.381s-56.741-68.559 14.773-113.7c0 0 3.935-3.2 3.347-23.056s28.029-25.786 28.029-25.786 5.082 32.254 21.234 17.024 28.211-43.175 28.211-43.175 26.4-26.693 26.018 5.982l-15.114 30.672s-7.76 9.757 13.067 14.584-11.8 23.231-11.8 23.231-22.882 15.4-14.374 38.309-18.149 49.162-29.234 52.77-64.157 23.145-64.157 23.145z"/><path class="d" d="M534.548 392.284a37.1 37.1 0 01-1.742-8.9 63.506 63.506 0 01-.044-9.1 81.016 81.016 0 013.376-17.873 110.032 110.032 0 016.693-16.944c1.285-2.751 2.817-5.379 4.269-8.051.726-1.314 1.568-2.6 2.352-3.9s1.561-2.606 2.425-3.855a207.709 207.709 0 0122.657-28.45c1.038-1.1 2.062-2.221 3.114-3.31l3.223-3.209 3.223-3.216c1.082-1.06 2.178-2.069 3.31-3.114l3.325-3.1 1.662-1.546 1.713-1.5 6.875-5.946v.036a98.519 98.519 0 007.259-8.472c2.272-2.947 4.356-6.033 6.338-9.191a85.489 85.489 0 005.285-9.844l1.118-2.563c.363-.857.653-1.75.987-2.621l.486-1.307c.16-.443.276-.893.414-1.336l.806-2.686a66.511 66.511 0 01-3.543 10.664 87.108 87.108 0 01-5.045 10.04 105.885 105.885 0 01-6.207 9.379 99.763 99.763 0 01-7.187 8.711c-4.5 4.036-9.053 7.986-13.4 12.2-1.089 1.045-2.178 2.054-3.281 3.122l-3.187 3.216-3.187 3.209a152.12 152.12 0 00-3.085 3.318 226.01 226.01 0 00-22.548 28.232c-.871 1.234-1.641 2.526-2.432 3.811s-1.6 2.555-2.352 3.855c-1.452 2.635-2.984 5.234-4.276 7.985a109.855 109.855 0 00-6.911 16.7 86.155 86.155 0 00-3.7 17.648 61.581 61.581 0 00-.2 9.038 38.33 38.33 0 001.416 8.871z"/><path class="d" d="M583.978 341.075c-2.454.385-4.886.842-7.26 1.452s-4.8 1.169-7.165 1.858a91.292 91.292 0 00-13.793 5.212 68.465 68.465 0 00-6.454 3.514 60.679 60.679 0 00-5.96 4.283 49.4 49.4 0 00-5.256 5.133 44.277 44.277 0 00-4.356 5.989 37.547 37.547 0 013.775-6.439 42.108 42.108 0 015.082-5.539 50.827 50.827 0 015.967-4.581 63.709 63.709 0 016.534-3.63 77.5 77.5 0 0128.864-7.182zM606.607 293.936a58.394 58.394 0 00-9.88-2.526 36.89 36.89 0 00-9.989-.377 24.146 24.146 0 00-4.849 1.082 19.468 19.468 0 00-4.486 2.105 24.7 24.7 0 00-2.047 1.452 24.208 24.208 0 00-1.858 1.7 29.417 29.417 0 00-3.245 3.935 21.563 21.563 0 012.715-4.407 21.134 21.134 0 011.764-1.938 19.658 19.658 0 012.04-1.67 21.053 21.053 0 019.8-3.688 31.9 31.9 0 0110.41.661 36.35 36.35 0 019.625 3.671zM520.363 311.841a50.008 50.008 0 005.307 3.325c1.8 1.06 3.63 2.178 5.328 3.368a29.733 29.733 0 018.915 9.082 18.554 18.554 0 012.236 6.083 18.871 18.871 0 01-.036 6.447 12.92 12.92 0 01-.327 1.575c-.138.515-.24 1.038-.414 1.539a29.214 29.214 0 01-1.147 2.969 37.319 37.319 0 01-3.1 5.488l.661-1.452c.218-.472.472-.929.661-1.452.392-.966.813-1.917 1.118-2.9a26.851 26.851 0 001.452-5.982 18.149 18.149 0 00-2.33-11.615 32.23 32.23 0 00-8.327-8.9c-1.633-1.27-3.332-2.475-5.045-3.681-.849-.617-1.7-1.227-2.541-1.858a18.366 18.366 0 01-2.411-2.036zM560.654 272.03c.857 1.314 1.866 2.5 2.831 3.746s1.924 2.49 2.8 3.819a27.95 27.95 0 014.029 8.675 20 20 0 01.573 4.828 18.144 18.144 0 01-.726 4.8 21.161 21.161 0 01-4.7 8.232 28.443 28.443 0 003.63-8.515 19.811 19.811 0 00-.182-8.995 32.937 32.937 0 00-3.586-8.436 126.853 126.853 0 00-2.417-4 29.411 29.411 0 01-2.25-4.152z"/><path class="e" d="M495.666 400.611s-16.98-87.361 67.412-92.741c0 0 4.995-.929 13.989-18.635s36.951-9.22 36.951-9.22-10.984 30.751 10.468 25.111 45.438-24.385 45.438-24.385 35.956-10.795 19.978 17.713l-27.964 19.7s-11.485 4.849 4.494 19.056-21.474 14.73-21.474 14.73-27.47 2.563-30.962 26.744-39.448 34.483-50.94 32.327-67.39-10.4-67.39-10.4z"/><path class="f" d="M506.65 396.255a36.653 36.653 0 012.737-8.668 63.54 63.54 0 014.312-7.986 81.5 81.5 0 0111.528-14.076 110.253 110.253 0 0113.989-11.666c2.446-1.8 5.082-3.376 7.6-5.024 1.292-.8 2.621-1.532 3.935-2.3s2.613-1.539 3.978-2.214a207.224 207.224 0 0133.51-14.127c1.452-.472 2.9-.973 4.319-1.416l4.356-1.278 4.356-1.278c1.452-.414 2.9-.762 4.4-1.147l4.4-1.125 2.178-.566 2.178-.494 8.886-1.924h-.042a99.943 99.943 0 0010.41-3.971c3.4-1.5 6.722-3.2 9.96-5.031a85.2 85.2 0 009.358-6.113l2.172-1.714c.726-.581 1.408-1.227 2.12-1.829l1.053-.915c.348-.312.668-.653 1-.98l2-1.967a67 67 0 01-8.152 7.7 86.184 86.184 0 01-9.1 6.41 106.4 106.4 0 01-9.938 5.256 99.865 99.865 0 01-10.468 4.189h-.044c-5.88 1.387-11.775 2.693-17.6 4.29-1.452.392-2.9.726-4.356 1.169l-4.356 1.292-4.356 1.3c-1.452.45-2.86.951-4.3 1.452a226.046 226.046 0 00-33.321 13.982c-1.358.668-2.65 1.452-3.964 2.178s-2.628 1.452-3.913 2.258c-2.534 1.619-5.125 3.172-7.557 4.944a108.534 108.534 0 00-14.048 11.313 86.221 86.221 0 00-11.731 13.721 62.512 62.512 0 00-4.5 7.833 38.519 38.519 0 00-2.989 8.522z"/><path class="f" d="M574.57 374.977c-2.338-.842-4.7-1.6-7.078-2.258s-4.777-1.27-7.18-1.8a92.913 92.913 0 00-14.592-2.018 69.007 69.007 0 00-7.354 0 58.672 58.672 0 00-7.26.9 49.18 49.18 0 00-7.071 1.982 44.324 44.324 0 00-6.679 3.194 37.077 37.077 0 016.4-3.848 42.107 42.107 0 017.078-2.417 52.257 52.257 0 017.434-1.162 66.519 66.519 0 017.514-.08 77.307 77.307 0 0128.777 7.528zM617.017 344.407a58.634 58.634 0 00-7.463-6.955 37.22 37.22 0 00-8.639-5.082 24.57 24.57 0 00-4.74-1.408 19.508 19.508 0 00-4.951-.3 22.032 22.032 0 00-2.483.283 22.28 22.28 0 00-2.446.6 29.946 29.946 0 00-4.733 1.895 21.643 21.643 0 014.494-2.57 22.126 22.126 0 012.475-.857 20.327 20.327 0 0112.958.973 31.483 31.483 0 018.82 5.561 35.906 35.906 0 016.708 7.855zM532.719 318.847a49.67 49.67 0 003.071 5.452c1.074 1.8 2.134 3.63 3.063 5.51a29.759 29.759 0 013.477 12.247 18.664 18.664 0 01-.951 6.41 19.048 19.048 0 01-3.122 5.641 12.039 12.039 0 01-1.038 1.227c-.37.385-.726.8-1.1 1.154a28.45 28.45 0 01-2.432 2.054 36.522 36.522 0 01-5.35 3.332l1.263-.929c.421-.312.864-.588 1.256-.929.813-.661 1.641-1.292 2.381-2.018a26.955 26.955 0 004.138-4.53 18.149 18.149 0 003.528-11.339c-.1-4.051-1.452-7.985-3.049-11.8-.828-1.9-1.742-3.775-2.664-5.648-.45-.944-.907-1.887-1.336-2.846a18.053 18.053 0 01-1.132-2.984zM587.15 303.18c.131 1.568.443 3.1.726 4.653s.494 3.107.632 4.69a28.132 28.132 0 01-.617 9.554 20.326 20.326 0 01-1.808 4.508 18.343 18.343 0 01-2.9 3.877 21.182 21.182 0 01-8.065 4.973 28.652 28.652 0 007.26-5.742 19.767 19.767 0 004.145-7.985 32.956 32.956 0 00.9-9.125 143.271 143.271 0 00-.211-4.675 30.211 30.211 0 01-.058-4.726z"/><path class="g" d="M589.866 233.213s9.154-37.111 18.294-25.205-18.294 25.205-18.294 25.205zM573.67 252.28s23.4-18.091 23.231-6.476-23.231 6.476-23.231 6.476zM559.39 267.732s22.461-17.35 22.265-6.214-22.265 6.214-22.265 6.214zM544.878 291.231s18.875-21.546 21.1-10.933-21.1 10.933-21.1 10.933zM539.419 314.6s15.506-27.826 19.412-14.468-19.412 14.468-19.412 14.468z"/><path class="g" d="M539.064 331.159s11.376-24.094 14.788-12.2-14.788 12.2-14.788 12.2zM577.304 246.171s16.7-25.561 4.77-24.421-4.77 24.421-4.77 24.421zM563.173 261.743s12.218-26.4 1.125-23.681-1.125 23.681-1.125 23.681zM548.523 280.553s12.247-26.454 1.133-23.724-1.133 23.724-1.133 23.724zM541.771 299.079s-.77-28.668-8.9-23.289 8.9 23.289 8.9 23.289zM537.931 328.059s-1.379-30.425-10.221-23.427 10.221 23.427 10.221 23.427zM540.131 342.498s-11.891-23-15.775-13.031 15.775 13.031 15.775 13.031z"/><path class="g" d="M541.212 362.702a144.343 144.343 0 01-3.485-34.708c.356-17.967 4.486-43.4 22.156-62.526l33.909-36.7 1.067.987-33.909 36.7c-33.249 36-18.5 95.289-18.33 95.884z"/><path class="c" d="M134.315 421.649s66-59.7 1.721-114.643c0 0-3.441-3.739 0-23.3s-24.029-29.554-24.029-29.554-9.661 31.221-23.461 13.798-21.721-46.781-21.721-46.781-22.279-30.207-26.601 2.173l10.541 32.559s6.28 10.766-15.027 12.552 8.341 24.689 8.341 24.689 20.436 18.534 8.711 39.971 10.889 51.26 21.35 56.428 60.175 32.108 60.175 32.108z"/><path class="d" d="M128.144 411.543a38.629 38.629 0 002.693-8.6 62.223 62.223 0 001.1-8.965 85.939 85.939 0 00-1.1-18.011 110.053 110.053 0 00-4.443-17.488c-.893-2.9-2.025-5.67-3.093-8.486-.552-1.394-1.183-2.766-1.771-4.152s-1.176-2.773-1.858-4.116a226.492 226.492 0 00-18.258-31.216c-.864-1.241-1.7-2.5-2.577-3.724l-2.693-3.63-2.693-3.63c-.907-1.205-1.866-2.374-2.8-3.557-3.7-4.777-7.63-9.358-11.506-14a101.41 101.41 0 01-5.858-9.633 104.732 104.732 0 01-4.791-10.163 86.2 86.2 0 01-3.55-10.664 67.135 67.135 0 01-1.913-11.043l.414 2.773c.073.457.131.922.218 1.379l.3 1.372c.2.907.363 1.829.6 2.73l.726 2.7a86.733 86.733 0 003.819 10.5c1.5 3.412 3.129 6.759 4.951 10.011a99.888 99.888 0 005.946 9.437v-.042l5.953 6.868 1.452 1.728 1.452 1.771 2.846 3.55c.944 1.183 1.909 2.352 2.831 3.557l2.722 3.63 2.73 3.63c.893 1.22 1.735 2.483 2.606 3.724a206.22 206.22 0 0118.33 31.4c.682 1.358 1.256 2.766 1.851 4.16s1.212 2.788 1.771 4.2c1.053 2.846 2.178 5.67 3.064 8.581a110.613 110.613 0 014.2 17.728 81.457 81.457 0 01.77 18.149 63.737 63.737 0 01-1.358 8.995 36.647 36.647 0 01-3.071 8.537z"/><path class="d" d="M86.554 353.794a77.4 77.4 0 0127.586 11.25 66.258 66.258 0 015.967 4.574 52.586 52.586 0 015.249 5.394 41.781 41.781 0 014.218 6.214 37.086 37.086 0 012.817 6.918 44.671 44.671 0 00-3.427-6.534 49.164 49.164 0 00-4.465-5.808 60.245 60.245 0 00-5.285-5.082 68.248 68.248 0 00-5.88-4.414 93.146 93.146 0 00-12.886-7.136c-2.243-1.024-4.515-1.989-6.824-2.867s-4.67-1.776-7.07-2.509zM70.968 303.87a36.109 36.109 0 0110.084-2.178 31.8 31.8 0 0110.4.842 21.053 21.053 0 019.169 5.082 22.5 22.5 0 011.786 1.938 22.768 22.768 0 011.452 2.178 20.971 20.971 0 012.054 4.748 29.27 29.27 0 00-2.65-4.356 22.754 22.754 0 00-1.59-1.953c-.6-.581-1.162-1.2-1.815-1.713a19.6 19.6 0 00-4.145-2.73 24.433 24.433 0 00-4.646-1.771 36.924 36.924 0 00-9.967-1.111 57.822 57.822 0 00-10.132 1.024zM153.742 334.004a18.471 18.471 0 01-2.657 1.691 68.95 68.95 0 01-2.78 1.452c-1.866.951-3.717 1.9-5.525 2.9a32.335 32.335 0 00-9.517 7.615 18.185 18.185 0 00-3.978 11.194 26.424 26.424 0 00.552 6.12c.152 1.031.436 2.025.69 3.042.109.508.3.995.45 1.5l.45 1.5a36.427 36.427 0 01-2.279-5.873 28.183 28.183 0 01-.726-3.1c-.1-.53-.131-1.06-.2-1.59a11.814 11.814 0 01-.087-1.6 19 19 0 01.886-6.388 18.8 18.8 0 013.085-5.7 30.031 30.031 0 0110.127-7.71c1.887-.951 3.826-1.771 5.757-2.563a49.794 49.794 0 005.75-2.49zM119.594 288.814a29.5 29.5 0 01-2.831 3.782c-1.009 1.205-2.011 2.4-2.969 3.63a32.567 32.567 0 00-4.733 7.826 19.717 19.717 0 00-1.452 8.871 28.225 28.225 0 002.345 8.936 21.154 21.154 0 01-3.47-8.82 18.076 18.076 0 010-4.849 19.739 19.739 0 011.263-4.69 27.812 27.812 0 015.234-7.985c1.053-1.191 2.178-2.294 3.318-3.383s2.249-2.142 3.295-3.318z"/><path class="e" d="M135.287 307.369s-4.936-1.176-13.067-19.3-36.392-11.042-36.392-11.042 9.437 31.26-11.717 24.566-44.182-26.606-44.182-26.606-35.376-12.559-20.828 16.7l26.956 21.047s8.806 4.254-.784 14.519a14.729 14.729 0 00-5.728 5.191c-2.664 2.432-3.5 4.479-3.093 6.192-9.612 25.931 37.321 23.035 37.321 23.035 29.169 17.277-4.994 18.435-4.994 18.435s-21.975 11.7-6.991 26.744c10.679 10.73 43.782 5.038 61.931.886 6.693 2.229 12.806 3.114 16.5 2.606 11.615-1.583 67.848-7.049 67.848-7.049s21.25-86.37-62.78-95.924z"/><path class="f" d="M178.155 381.779a38.657 38.657 0 00-2.592-8.661 62.215 62.215 0 00-4.073-8.036 86.387 86.387 0 00-11.005-14.279 109.544 109.544 0 00-13.474-12c-2.345-1.895-4.849-3.572-7.31-5.314-1.241-.842-2.534-1.626-3.8-2.446s-2.526-1.641-3.84-2.374a226.872 226.872 0 00-32.588-15.623c-1.408-.544-2.8-1.118-4.218-1.641l-4.3-1.5-4.269-1.5c-1.452-.494-2.9-.922-4.312-1.387-5.735-1.88-11.564-3.477-17.365-5.154a99.169 99.169 0 01-10.25-4.7 106.224 106.224 0 01-9.67-5.742 86.652 86.652 0 01-8.951-6.918 66.4 66.4 0 01-7.76-8.087l1.895 2.062c.319.341.617.726.951 1.024l1.009.973c.682.639 1.328 1.314 2.025 1.924l2.12 1.829a86.094 86.094 0 009.038 6.525c3.151 1.989 6.381 3.855 9.706 5.525a101.524 101.524 0 0010.163 4.479h-.044l8.777 2.359 2.178.6 2.178.675 4.356 1.343c1.452.457 2.9.878 4.356 1.365l4.29 1.488 4.3 1.452c1.452.523 2.831 1.089 4.247 1.633a205.785 205.785 0 0132.77 15.768c1.328.726 2.592 1.583 3.869 2.41s2.563 1.626 3.811 2.49c2.468 1.771 4.987 3.477 7.347 5.394a111.118 111.118 0 0113.394 12.341 81.306 81.306 0 0110.802 14.643 62.038 62.038 0 013.927 8.276 36.495 36.495 0 012.309 8.784z"/><path class="f" d="M111.375 357.155a73.554 73.554 0 0114.229-4.45 74.7 74.7 0 0114.881-1.641 66.42 66.42 0 017.5.45 51.865 51.865 0 017.368 1.532 41.967 41.967 0 016.976 2.78 37.447 37.447 0 016.2 4.16 44.35 44.35 0 00-6.534-3.514 49.411 49.411 0 00-6.969-2.338 60.707 60.707 0 00-7.26-1.256 66.886 66.886 0 00-7.339-.363 91.529 91.529 0 00-14.672 1.3c-2.432.407-4.857.878-7.26 1.452s-4.746 1.169-7.12 1.888zM70.489 324.523a36.24 36.24 0 017.122-7.485 31.76 31.76 0 019.089-5.118 21.052 21.052 0 0110.425-.936 20.255 20.255 0 012.563.61 23.641 23.641 0 012.432.98 21.169 21.169 0 014.356 2.788 29.548 29.548 0 00-4.632-2.127 23.027 23.027 0 00-2.41-.726 23.63 23.63 0 00-2.468-.406 19.885 19.885 0 00-4.958.058 24.114 24.114 0 00-4.835 1.133 37.1 37.1 0 00-8.886 4.653 58.716 58.716 0 00-7.8 6.577zM155.948 303.166a19.174 19.174 0 01-1.249 2.9c-.479.936-.987 1.858-1.452 2.78-1.016 1.822-2.025 3.63-2.94 5.5a32.171 32.171 0 00-3.63 11.615 18.2 18.2 0 002.933 11.528 26.708 26.708 0 003.891 4.762c.726.762 1.5 1.452 2.272 2.134.378.356.8.661 1.205.987l1.22.995a36.491 36.491 0 01-5.183-3.63 29.77 29.77 0 01-2.323-2.178 14.888 14.888 0 01-1.045-1.212 12 12 0 01-.973-1.27 19.238 19.238 0 01-2.846-5.808 18.621 18.621 0 01-.624-6.454 29.6 29.6 0 014.073-12.051c1.024-1.851 2.178-3.63 3.339-5.35a50.271 50.271 0 003.332-5.248zM102.358 284.828a29.24 29.24 0 01-.225 4.719 147.785 147.785 0 00-.443 4.661 33.212 33.212 0 00.443 9.154 19.768 19.768 0 003.753 8.182 28.45 28.45 0 006.94 6.091 21.22 21.22 0 01-7.811-5.365 18.709 18.709 0 01-2.722-4.015 19.884 19.884 0 01-1.575-4.6 28.072 28.072 0 01-.145-9.568c.211-1.575.53-3.122.857-4.653s.717-3.045.928-4.606z"/><path class="g" d="M72.616 223.013s-25.692-28.312-28.073-13.487 28.073 13.487 28.073 13.487zM95.992 232.059s-29.183-4.784-23.5 5.343 23.5-5.343 23.5-5.343zM115.839 238.897s-28.015-4.6-22.555 5.118 22.555-5.118 22.555-5.118zM139.767 252.668s-26.86-9.989-23.753.414 23.753-.414 23.753-.414zM155.68 270.636s-26.86-17.111-23.957-3.5 23.957 3.5 23.957 3.5z"/><path class="g" d="M163.868 285.032s-21.416-15.775-18.809-3.7 18.809 3.7 18.809 3.7zM89.843 228.429s-26.86-14.519-15.8-19.216 15.8 19.216 15.8 19.216zM109.661 235.427s-23.3-17.423-12.247-20.327 12.247 20.327 12.247 20.327zM131.491 245.01s-23.354-17.459-12.276-20.327 12.276 20.327 12.276 20.327zM146.235 258.099s-12.915-25.6-3.252-24.748 3.252 24.748 3.252 24.748zM163.382 281.765s-13.249-27.427-2.178-25.474 2.178 25.474 2.178 25.474zM168.319 295.521s-.472-25.88 7.688-18.962-7.688 18.962-7.688 18.962z"/><path class="g" d="M175.556 314.164a142.476 142.476 0 00-13.3-31.84c-8.711-15.4-24.211-35.506-48.407-43.782L66.576 222.36l.472-1.372 47.274 16.182c24.639 8.428 40.363 28.842 49.212 44.472a144.784 144.784 0 0113.437 32.2z"/><rect class="h" width="421.816" height="258.592" rx="20" transform="translate(126.286 150.672)"/><rect class="h" width="546.281" height="16.334" rx="8.167" transform="translate(64.957 406.28)"/><path class="d" d="M139.767 163.369h394.854v237.627H139.767z"/><path class="a" d="M139.767 163.369h394.854v50.439H139.767z"/><path class="i" d="M222.504 220.298h312.117v36.951H222.504zM222.504 263.747h312.117v18.439H222.504zM222.504 290.491h312.117v18.439H222.504zM222.504 317.235h312.117v18.439H222.504zM222.504 343.979h312.117v18.439H222.504zM222.504 370.723h312.117v18.439H222.504z"/><path class="a" d="M139.767 220.298h76.748v180.697h-76.748z"/><path class="d" d="M153.233 192.835h46.447v49.438h-46.447z"/><path class="j" d="M143.469 248.037h67.419v34.149h-67.419zM143.469 367.122h67.419v32.116h-67.419zM143.469 290.491h67.419v18.439h-67.419zM143.469 317.235h67.419v18.439h-67.419zM143.469 343.979h67.419v18.439h-67.419z"/><circle class="k" cx="8.109" cy="8.109" r="8.109" transform="translate(226.504 264.473)"/><circle class="k" cx="8.109" cy="8.109" r="8.109" transform="translate(226.504 291.601)"/><circle class="k" cx="8.109" cy="8.109" r="8.109" transform="translate(226.504 318.346)"/><circle class="k" cx="8.109" cy="8.109" r="8.109" transform="translate(226.504 345.09)"/><circle class="k" cx="8.109" cy="8.109" r="8.109" transform="translate(226.504 370.723)"/><path class="k" d="M320.878 272.582h-67.41a2.178 2.178 0 110-4.356h67.41a2.178 2.178 0 110 4.356zM277.113 279.239h-22.972a2.178 2.178 0 010-4.356h22.972a2.178 2.178 0 010 4.356zM320.878 298.556h-67.41a2.178 2.178 0 010-4.356h67.41a2.178 2.178 0 110 4.356zM277.113 305.213h-22.972a2.178 2.178 0 010-4.356h22.972a2.178 2.178 0 010 4.356zM320.878 325.3h-67.41a2.178 2.178 0 010-4.356h67.41a2.178 2.178 0 110 4.356zM277.113 331.958h-22.972a2.178 2.178 0 010-4.356h22.972a2.178 2.178 0 010 4.356zM318.381 352.016h-67.412a2.178 2.178 0 010-4.356h67.412a2.178 2.178 0 110 4.356zM274.62 358.702h-22.976a2.178 2.178 0 010-4.356h22.976a2.178 2.178 0 010 4.356zM320.878 377.678h-67.41a2.178 2.178 0 010-4.356h67.41a2.178 2.178 0 110 4.356zM277.113 384.335h-22.972a2.178 2.178 0 010-4.356h22.972a2.178 2.178 0 010 4.356zM196.304 301.925h-35.572c-1.858 0-3.368-.9-3.368-2s1.51-2 3.368-2h35.572c1.858 0 3.368.893 3.368 2s-1.509 2-3.368 2zM194.221 268.378h-35.536c-1.858 0-3.368-.893-3.368-2s1.51-2 3.368-2h35.535c1.858 0 3.368.893 3.368 2s-1.509 2-3.367 2zM196.304 327.42h-35.572c-1.858 0-3.368-.893-3.368-2s1.51-2 3.368-2h35.572c1.858 0 3.368.893 3.368 2s-1.509 2-3.368 2zM195.905 353.794h-35.536c-1.858 0-3.368-.893-3.368-2s1.51-2 3.368-2h35.535c1.858 0 3.368.893 3.368 2s-1.511 2-3.367 2z"/><path class="l" d="M360.966 151.064l-1.22-.791s.871-1.35 2.454-3.63l1.2.828c-1.592 2.265-2.434 3.579-2.434 3.593zM368.436 140.451l-1.162-.864a330.617 330.617 0 015.3-6.933l1.14.9a324.236 324.236 0 00-5.278 6.897zm105.263-4.465l-.065-1.452a42.43 42.43 0 002.5-.189 46.654 46.654 0 005.96-.973l.334 1.416a48.116 48.116 0 01-6.149 1q-1.329.131-2.592.2zm-8.828-.61a19.68 19.68 0 01-8.138-3.681l.9-1.14a18.149 18.149 0 007.543 3.4zm25.859-3.63l-.682-1.285a24.32 24.32 0 006.65-5.118l1.074.98a25.923 25.923 0 01-7.056 5.423zm-111.536-4.936l-1.118-.929a325.546 325.546 0 015.677-6.621l1.089.958c-1.9 2.142-3.8 4.363-5.662 6.592zm72.211-2.309a28.086 28.086 0 01-1.924-8.711l1.452-.109a26.784 26.784 0 001.822 8.225zm51.085-5.713l-1.336-.559a32.345 32.345 0 002.113-8.2l1.452.189a33.659 33.659 0 01-2.243 8.574zm-111.8-4.987l-1.06-.995a209.227 209.227 0 016.076-6.258l1.024 1.031c-2.025 1.967-4.058 4.087-6.062 6.221zm60.443-6.628l-1.452-.16a76.33 76.33 0 011.452-8.653l1.416.327a76.365 76.365 0 00-1.437 8.486zm-48.167-5.612l-.987-1.067c2.178-2 4.356-3.949 6.534-5.808l.936 1.1a378.607 378.607 0 00-6.48 5.775zm100.566-.094a66.2 66.2 0 00-1.009-8.515l1.452-.269a66.725 66.725 0 011.06 8.711zM416.2 90.389l-.878-1.169a130.231 130.231 0 017.085-5.082l.813 1.205a149.332 149.332 0 00-7.02 5.06zm38.657-.044l-1.379-.443a39.142 39.142 0 012.091-5.677h-.044c0-.036.341-.944 1.016-2.541l1.336.566c-.653 1.554-.98 2.461-.98 2.468s-.922 2.2-2.04 5.641zm45.583-5.771c-.421-1.365-.726-2.309-.893-2.679a63.01 63.01 0 00-4.3-3.223l.813-1.205c1.532 1.053 3.064 2.178 4.552 3.427l.152.123.065.181c0 .044.428 1.111.995 2.947zm-69.9-3.848l-.726-1.256c2.592-1.5 5.2-2.9 7.739-4.087l.624 1.314a112.392 112.392 0 00-7.637 4.044zm31.035-6.33l-1.285-.668c.806-1.554 1.648-3.1 2.526-4.624l-.065-.813.559-.036q.632-1.089 1.285-2.178l1.241.762c-.269.436-.53.871-.791 1.307a52.307 52.307 0 016.534.2l-.138 1.452a51.1 51.1 0 00-7.26-.16c-.907 1.6-1.779 3.18-2.606 4.77zm26.258 0a49.778 49.778 0 00-7.985-3.013l.392-1.394a50.993 50.993 0 018.24 3.093zm-41.706-.987l-.486-1.372a72.057 72.057 0 018.428-2.417l.312 1.416a70.95 70.95 0 00-8.254 2.373zm24.457-13.742l-1.176-.842c1.72-2.4 3.535-4.726 5.387-6.911l1.1.944a130.285 130.285 0 00-5.311 6.809zm11.18-13.147l-1.016-1.031a81.773 81.773 0 016.534-5.808l.907 1.132a84.044 84.044 0 00-6.4 5.706zm13.42-10.766l-.784-1.227a71.757 71.757 0 017.673-4.247l.624 1.307a70.127 70.127 0 00-7.484 4.167zm92.458-4.2c-.364-.1-.735-.19-1.413-.359a131.678 131.678 0 00-7.023-1.521l.276-1.452c3.078.581 5.946 1.22 8.523 1.895zm-76.958-3.147l-.45-1.379a65.936 65.936 0 018.5-2.178l.261 1.452a65.391 65.391 0 00-8.3 2.105zm60-.131c-2.722-.392-5.612-.726-8.6-1.074l.152-1.452c3.005.319 5.909.682 8.646 1.074zm-17.227-1.88c-2.788-.225-5.7-.428-8.653-.6l.087-1.452c2.969.174 5.887.377 8.711.6zm-17.314-1.06l-2.4-.073c-.864 0-1.728-.044-2.584-.044-1.2 0-2.4 0-3.586.094l-.08-1.452c1.22-.065 2.446-.123 3.681-.094q1.307 0 2.635.044l2.439.094z"/><path d="M557.855 13.391l54.86-21.975-50.221 41.95z" fill="#d5e2f7"/><path d="M578.53 38.995L611.569-10l-51.594 40.254z" fill="#466eb6"/><circle class="a" cx="13.597" cy="13.597" r="13.597" transform="translate(70.489 163.369)"/><circle class="a" cx="13.96" cy="13.96" r="13.96" transform="translate(554.998 178.875)"/><circle class="a" cx="6.976" cy="6.976" r="6.976" transform="translate(553.677 35.035)"/><circle class="a" cx="6.976" cy="6.976" r="6.976" transform="translate(417.343 105.452)"/><circle class="g" cx="8.791" cy="8.791" r="8.791" transform="translate(652.668 225.155)"/><circle class="g" cx="5.851" cy="5.851" r="5.851" transform="translate(449.423 46.076)"/><circle class="g" cx="5.851" cy="5.851" r="5.851" transform="translate(480.145 106.577)"/><circle class="g" cx="8.791" cy="8.791" r="8.791" transform="translate(19.237 229.024)"/></g></svg>