<svg version="1.1" id="Layer_1" xmlns="http://www.w3.org/2000/svg" x="0" y="0" viewBox="0 0 1000 952.7" style="enable-background:new 0 0 1000 952.7" xml:space="preserve"><style>.st0{opacity:.12;fill:#191919}.st4{fill:#231f20}.st6{fill:#fff}.st7{fill:#ff4d53}.st8{fill:#6389b7}.st9{fill:#fcccb6}.st10{fill:#4570ad}.st13{fill:#feac02}.st16{opacity:.22}.st17{fill:#6d6e71}.st18{fill:#fcc2a4}</style><path class="st0" d="M218.5 784.3s-163.7-83.9-117.4-4.4 103.5 142 250 115.7c146.5-26.3 102.7-115.7 102.7-115.7l-235.3 4.4z"/><path class="st0" d="M298 803.6s-163.7-83.9-117.4-4.4 103.5 142 250 115.7 102.7-115.7 102.7-115.7L298 803.6z"/><path class="st0" d="M621.7 845s-182.4-31.3-111.2 33.8S657.2 988.4 784.7 914s55.1-150.2 55.1-150.2L621.7 845z"/><path class="st0" d="M702.7 838.5s-182.4-31.3-111.2 33.8 146.6 109.6 274.1 35.3 55.1-150.2 55.1-150.2l-218 81.1z"/><circle cx="505.6" cy="437.6" r="427.1" style="fill:#e3d4f9"/><circle cx="498" cy="468.4" r="427.1" style="fill:#cfb5f6"/><path style="fill:#e6e7e8" d="M445.7 842.9h492.7v17.5H445.7z"/><path class="st4" d="m445.7 842.9 48.2-22.4h402.8l38.9 22.4z"/><path style="fill:#7fa3c6" d="m918.1 361.8-.2 6.5-.9 32.9-2.8 105.2-7.3 269.7H610.1l6.5-407.8.1-6.5z"/><path class="st6" d="M730 401.2h63v105.2h-63zM802.7 401.2h63v105.2h-63zM917 401.2l-2.8 105.2h-38.8V401.2zM657.3 401.2h63v105.2h-63z"/><path class="st7" d="M928 368.3H614.5v-30.7h297.9c8.6 0 15.6 7 15.6 15.6v15.1z"/><g><path class="st8" d="m710.2 194.1-.4 11.9-1.2 36.3-2.7 82.8-14.5 442.3c-.5 10.8-16.8 15.4-27.6 15.3l-18.5-.1v10c-2.8 6-20.2 4.4-26.8 4.4h-444c-3.4 0-6.4-1.4-8.6-3.6-2.2-2.2-3.6-5.2-3.6-8.6H140c-9 0-11.6-7-12-16l-21.2-443.7-4-82.8-1.7-36.2-.6-12h609.7z"/><path class="st6" d="M182 242.3h82.8v82.8H182zM175.4 361.2h142.3v59.7H175.4zM331.7 361.2H474v59.7H331.7zM488.2 361.2h142.3v59.7H488.2zM276.3 242.3h82.8v82.8h-82.8zM166.3 495.5h48.2v48.2h-48.2zM252.2 495.5h48.2v48.2h-48.2zM341.9 495.5h48.2v48.2h-48.2zM429.7 495.5h48.2v48.2h-48.2zM370.7 242.3h82.8v82.8h-82.8zM466.2 242.3H549v82.8h-82.8zM562.5 242.3h82.8v82.8h-82.8zM708.6 242.3l-2.7 82.8h-47.3v-82.8zM168.3 242.3v82.8h-61.6l-3.9-82.8z"/><path class="st7" d="M710.1 206.1H99.3c-6.6 0-11.9-5.3-11.9-11.9v-18.8H722v18.8c0 6.6-5.3 11.9-11.9 11.9z"/><path class="st6" d="M214.5 596.5h238v202.2h-238z"/><path class="st8" d="M247.4 624.4h174.3v174.3H247.4z"/></g><g><circle class="st7" cx="819.7" cy="256.9" r="63.8"/><path class="st6" d="M865.9 270.9h-92.5c-5.2 0-9.4-4.2-9.4-9.4v-14.1c0-5.2 4.2-9.4 9.4-9.4h92.5c5.2 0 9.4 4.2 9.4 9.4v14.1c0 5.2-4.2 9.4-9.4 9.4z"/><path class="st6" d="M803.2 300.7v-92.5c0-5.2 4.2-9.4 9.4-9.4h14.1c5.2 0 9.4 4.2 9.4 9.4v92.5c0 5.2-4.2 9.4-9.4 9.4h-14.1c-5.1 0-9.4-4.2-9.4-9.4z"/></g><path class="st4" d="m493.8 823.6-3.6-189.7c-.1-6.4 1-12.8 3.4-18.7 3.8-9.1 11.6-20.3 27.1-23.5 1.2-.3 2.5-.4 3.7-.4h328.9c6.8 0 13.6.8 19.4 4.8 5.3 3.6 11 10.1 14.4 17.5 1.8 3.9 2.6 8.2 2.7 12.5l3.9 200.5h-8.4L882 631.8c-.1-4.8-.2-9.4-2.4-13.5-2.1-3.8-5.3-8.4-10-12.5-3.6-3.2-9.1-4.8-13.6-4.7l-326.8 1.6c-9.2 0-18.1 4.4-24 12.4-.1.1-.2.2-.2.3-3.2 4.4-4.8 9.9-4.7 15.6l3.2 189.7-9.7 2.9z"/><g><path class="st9" d="M601.3 590h-10.7s-6.6-5.8-15.3 0c0 0-10.1 6.3-6.9 8.5h34.3l-1.4-8.5z"/><path class="st10" d="M711.2 802.3s2.4 11 0 17.2-9.1 12.8-4.5 16.1c4.6 3.3 11.7 1.5 14.4-2.2 2.6-3.7 3-11.7 6.3-19 0 0 6.3-8 0-13.9s-9.7-6.9-9.7-6.9l-7.1 6.6.6 2.1zM692 808.6 679.2 821s-9.9 3.7-9.5 10.2c.4 6.6 7.3 8.4 15.3 3.3 0 0 4.2-5.9 15.7-14.2 0 0 8.8-5.1 3.3-10.6l-2.9-1.1H692z"/><path class="st4" d="m676.4 602.4-28.2 84.3s-12.9 32.3 8.2 56.4C677.5 767.3 709 804 709 804l12.1-9.3-48.2-70.7s-4.7-10.8 1.6-23.2c6.2-12.4 34.6-99.3 34.6-99.3l-32.7.9z"/><path d="M720.4 593s13.2 21.6 9.2 34c-4 12.4-33.2 84-33.2 84s-3 6.9-1.9 19 9.5 79.6 9.5 79.6l-13.9 1.5-24.5-85.5s-5.1-13.9 2.6-29.2c0 0 17.1-66.7 16.1-78.9-1-12.2-2.8-19-1.6-19s37.7-5.5 37.7-5.5z" style="fill:#414042"/><path d="M645.5 506.4s-12.2 49-22.2 60-25.5 24.1-25.5 24.1l6 9.6s24.4-12.1 35.5-22.2c11.1-10.1 17.7-19.2 20.1-38.6l-13.9-32.9z" style="fill:#e89605"/><ellipse transform="rotate(-69.151 647.566 431.61)" class="st9" cx="647.6" cy="431.6" rx="23.2" ry="16.1"/><path class="st9" d="m644 451.4 13.3 26s18.3 1.7 23.7-11.2l-20.8-29.3-16.2 14.5z"/><path class="st4" d="M637.8 415.5s-8.4-3-8.4-10.1 5-12.1 5-12.1 2.9-2.5 8.4 3.3 13.2 4.7 13.2 4.7 15.9-.3 18.4 15.6c0 0 .8 2.2 4.9 1.6 4.1-.5 4.7 11.7 0 13.1-4.7 1.4-4.1 5.2-4.1 5.2s-3.8 10.4-8.6 8.6c-4.8-1.8-6.2-3.1-6.2-3.1s9.2-3.9.6-8.8l-1.4-5.5s1-6-2.1-6.9c-3.3-.7-15.5-1.8-19.7-5.6z"/><ellipse transform="rotate(-69.151 664.868 435.104)" class="st9" cx="664.9" cy="435.1" rx="6" ry="4.3"/><path class="st13" d="M655.6 470.5 644 481.8s-7.6 7.4-3.5 20 34.8 103.9 34.8 103.9 38.6-.5 48.8-11.5c0 0-17.5-57.8-17-70.1 0 0 17 10.7 19.5 27l-7.9 41.2 4.9 9s18.9-27.1 23.6-50.3c0 0 7.7-19.9-3.8-32.2l-39.2-45.5s-10.6-10.3-24.6-9.4c-.1 0-11.4 15.7-24 6.6z"/><path class="st9" d="m718.6 592.2-2.2 4.7s-17.3-6.9-22 3.3c0 0-7 7.4-3.2 10.4s11 .8 14-4.9c0 0 5.4-2.2 10.9 0s7.1-3.2 7.1-3.2v-3.9l-4.6-6.4z"/></g><path class="st4" d="m476.7 831.7-4-184.7c-.1-6.3 1.1-12.5 3.8-18.2 4.2-8.9 12.8-19.8 29.9-22.9 1.4-.2 2.7-.4 4.1-.4h363c7.5 0 15 .8 21.4 4.7 5.8 3.5 12.2 9.8 15.9 17 1.9 3.8 2.9 8 3 12.2l4.3 195.2h-9.3L905.1 645c-.1-4.6-.2-9.2-2.6-13.1-2.3-3.7-5.8-8.1-11-12.2-3.9-3.1-10.1-4.6-15.1-4.6l-360.7 1.6c-10.1 0-19.9 4.3-26.5 12l-.3.3c-3.5 4.3-5.3 9.7-5.1 15.2l3.6 184.7-10.7 2.8z"/><g><path class="st9" d="m789.1 731.1 8.8 95.5-10.6 23.9s13.1-5.1 24.6-17.9c0 0 .2-3.3-3.8-6l3.8-42.9s5-31.4 1.7-39.5l-3.3-13.2h-21.2zM832.2 731.1l43.5 86.2s6.2 12.8 6.2 23 14.6 7.7 14.6 7.7 4.7-4 0-10.6l-9.5-17.9-5.5-23s-8.1-48.5-16.1-55.3l-14.7-15.5-18.5 5.4z"/><path class="st7" d="M790.4 843.7s-12.9 6.2-10.4 10.2c2.6 4 13.2 2.9 18.6-3.3 0 0 8.4-8.7 10.2-6.9s1.5 12.5 1.5 12.5h4.4v-11.1s2.5-11-2.8-12.4L794.4 847s-6.4 2-4-3.3zM883 844.5s-3.3 8.7 7 11.8c10.2 3.1 13.2-2.7 11.7-10l-3-5.8c0-.1 1.1 12.8-15.7 4z"/><ellipse transform="rotate(-76.532 783.346 486.888)" class="st9" cx="783.4" cy="486.9" rx="23.1" ry="16"/><path class="st9" d="m782.2 506.4-2.9 25.9s14.2 11.3 25.9 2.4l-7.7-39.7-15.3 11.4z"/><path class="st7" d="M781.5 525.5s-8.8.6-19.9 12.7-8.6 30.7 2.6 54l8.9 30.1s33.6 2.9 41.7-4.7l-9.5-43.4s-5.8-19.2 2.2-23.2 16.4-3.2 16.4-3.2l-19.3-16.6s-8.5 9.3-15.4 3.6c-.1-.1-7.5.7-7.7-9.3z"/><path d="M773 618.8s-6.2 16.7 6.7 59.5l9.4 55.9s48.4 1.1 63.2-4.9c0 0-12.6-26.9-14.2-43.6-1.6-16.7-.3-67.7-24.3-72.2-1.8-.4-40.8 5.3-40.8 5.3z" style="fill:#7742cc"/><path class="st4" d="M846.1 528.4c-1.5-7.7.4-26.1-7.3-33.3-7.7-7.2-13.2-6.5-19.4-16-5.6-8.6-8.7-18.6-16.9-23.7-1.3-.8-2.3-1.8-3.4-2.9-1.2-1.2-4.8-2.5-15.9-1.2 0 0-7.3 3.4-9.9 5.9l-.7.7-.2.2c-3.5 3.8-13.7 16.8-3.7 19.2 5.1 1.2 11.3-5.5 15.9-7.8 2-1 4.4 0 5.3 2 1.7 4 3 12.7 5.8 11.9l2.6 6.7-.5 6.5 6.7 34.5 19.3 16.6v21.2s8.8 19.4 24.1-1.8c15.4-21.2-.3-31.1-1.8-38.7z"/><ellipse transform="rotate(-76.532 799.7 484.442)" class="st9" cx="799.7" cy="484.4" rx="5.9" ry="4.1"/><path class="st9" d="M824 550.4c.3 10.6.6 49.7-13.8 64.9 0 0-8.4 8.1-21 5.4s-57.3-19-57.3-19-8.9-4.7-9.7-14.2c-.8-9.5 3.4-11.7 3.4-11.7s10.4-2.5 13.4 11.7l2.7 6.9 3.8 2.2 50.7 6.6s11.5-25.8 7-41.6c0 0-.9-13.6 17.9-13.9 1.5-.1 2.8 1.2 2.9 2.7z"/></g><g><path d="M276.3 765.1s-79.6-7.3-93.1-90.5c-4.9-30.3 1.8-61.2 17.6-87.5 15.7-26.1 35-72.2 13.7-119.2 0 0-72.8-91.9-24.1-99.5 0 0 63.5-20.3 93.9 54.3 0 0 10.1 19.7 7.4 79.5 0 0 7.5 71.3 48.5 114.2 9.8 10.3 17.1 22.7 20.8 36.5 5.6 21.1 9 51.7-5.8 79.5.1-.2-17.5 36-78.9 32.7z" style="fill:#86cc7a"/><g class="st16"><path class="st17" d="M268.7 824.8c-.2 0-.3 0-.5-.1-1-.3-1.5-1.2-1.3-2.2 16-60.2 20.3-185 9.8-284.2-10.8-101.7-77.6-154.9-78.2-155.5-.8-.6-.9-1.7-.3-2.5.6-.8 1.7-.9 2.5-.3.7.5 17.4 13.7 35.7 39.9 16.9 24.1 38.2 64.1 43.9 118 10.5 99.6 6.2 225-9.9 285.5-.2.9-.9 1.4-1.7 1.4z"/></g></g><g><path class="st18" d="M315.6 730.4s-11.7 23-16.4 48.6c-4.7 25.6-14.6 51.5-14.6 51.5s-10.6 15.3-7.7 20.8c2.9 5.5 13.9 3.3 15 0s6.6-15.3 6.6-15.3l.4-9.5 20.5-47.5 23.6-45-27.4-3.6zM377.7 720.2s-6.2 12.4-6.6 31.1c-.4 18.6 6.6 88.1 6.6 88.1s13.2 13.9 23.4 17.2c0 0 8 1.8 0-5.8-8-7.7-13.2-10.2-11.3-30l7.3-100.5h-19.4z"/><path class="st4" d="M278.7 840.9s-11.3 9.5-7.8 18.3c3.5 8.8 19.4 3.7 19.4 3.7s4.6-2.3 5.8-13.3l2-12.6s-3.4 10.8-8.4 13.7c-4.9 2.9-10.6 2.7-11.7-1.1-1.1-3.9.7-8.7.7-8.7zM376.7 828.8s-6.8 3.9-7.4 15l1.8 5.1v13.2h3.7l1.9-14.4s.8-2 4.3.2c2.4 1.5 7.4 7.5 10.2 10.9 1.5 1.8 3.4 3.1 5.7 3.7 3.2.9 8 1.5 12.5-.4 0 0 7.2-2.2-3.9-7.4 0 0-11.9-.8-23.3-12.8 0-.1-6.5-3.2-5.5-13.1z"/><path class="st13" d="m382.1 499.9 26.7-5.1s13.2 70.5-7.3 146.1l-12.6 84.8-37.5-1.5 32.3-121.7s18.8-63.9 14.4-71.9c-4.3-8.1-16-30.7-16-30.7z"/><ellipse transform="rotate(-9.479 406.221 449.588)" class="st18" cx="406.3" cy="449.7" rx="17.9" ry="24.4"/><path class="st18" d="m389.4 455.8-7.3 44s14.4 14.8 24.2-3.3l-2.2-28.7-14.7-12z"/><path class="st6" d="M384.9 492.7 366.5 508s-9.3 8.2-8.6 20.8c.7 12.6 0 40 0 40s-1.1 8.8 6.9 16.4c0 0-51.2 94.8-56.1 144.7 0 0 8.8 6 26.9 7.1s19.7-4.9 19.7-4.9l42.2-163.3s8.8-29 4.1-40.6l-16.7-35.5z"/><path class="st6" d="M404.1 487.2s10.5 38.9 2.2 92.1l-22.6 158s2.8 8.9 17.8 0l1.4-2.3 31.8-189.6s25.2 10.6 46.6 5.6l21.4-5-3.9-12.6-31.2 2.2s-14.2-.5-24.4-15.9c-10.1-15.3-14.8-21.4-14.8-21.4s-13.8-13.8-24.3-11.1z"/><path d="M421.6 438.8s8-9.9-.3-18.9c-6.7-7.2-15-9.6-30-4.4-18.5 6.4-19 25.2-19 25.2s-43.6-3.8-41.8 33.4-25 37.3-25 37.3 5.5 27.9 38.4 16.4c0 0 5.1-1 18-13.7 12.8-12.7 12.7-36.8 12.7-36.8l2.2-23.5s.5 12.2 10.8 14l2-12 5.6-10.7c-.2 0 6.6-23 26.4-6.3z" style="fill:#191919"/><path class="st18" d="m496.8 535.3 4.9-2s3.8-4.7 8.8-5.1c4.9-.4 7.7-2.4 7.7-2.4s3.8-1.5 3.1 1.6-7.5 4.2-7.5 4.2l13.9 9.9s7.9 9-.7 9.4c-8.6.4-20.5-6.7-21.4-8.7l-5.5.5-3.3-7.4z"/><path d="M432.3 544.2c.8 0 73.3-2 73.3-2l-41 77.1H413l19.3-75.1z" style="fill:#2b3990"/><path class="st13" d="M377.2 458.9c-.6 0-1.1-.3-1.5-.7-8.6-11.8-5.9-19.1-5.8-19.4.4-.9 1.4-1.4 2.3-1 .9.4 1.4 1.4 1 2.3 0 .1-1.9 6 5.4 16 .6.8.4 1.9-.4 2.5-.3.2-.7.3-1 .3z"/><ellipse transform="rotate(-9.479 391.193 449.33)" class="st18" cx="391.3" cy="449.4" rx="5" ry="7.4"/><path class="st4" d="M452.6 550.5v-10.1h9l1.1-5.9 15 .3v5.3l7.2.6v9.4z"/><path class="st18" d="M413 582.2h3.1s6-5.9 13.2-4.6c7.2 1.3 10.9-2 11.8 2.2s-2 11.5-7.1 12.1c-5.1.5-12.2 0-12.2 0l-11-.8 2.2-8.9z"/><path class="st6" d="M414.6 591.9s-35.1.2-41.7-.9c-6.6-1.1-12.2-10.7-12.2-10.7s-4.3-4.7-2.7-21.8l-.2-32.2 2.2-9.1s14.3-16.8 22.1.8l-6.1 50.6s6.6 8.6 38.5 13v10.3z"/></g><g><path d="M162.4 779.6s-67.4 9.5-69-94.3c0 0 18.9-67.4 0-116.4 0 0-6.6-74.4 47.7-34.2 0 0 43.6 34.9 60.8 139.1-.1 0 36.1 100.1-39.5 105.8z" style="fill:#35bc75"/><g class="st16"><path class="st17" d="M175.4 825.4c-1.3 0-2.4-1.1-2.4-2.4 0-2.1-1.4-213.9-39.5-274.1-.7-1.1-.4-2.6.7-3.3 1.1-.7 2.6-.4 3.3.7 38.8 61.4 40.2 267.9 40.2 276.6.1 1.4-1 2.5-2.3 2.5z"/></g></g></svg>