<svg version="1.1" id="Layer_1" xmlns="http://www.w3.org/2000/svg" x="0" y="0" viewBox="0 0 1000 631.5" style="enable-background:new 0 0 1000 631.5" xml:space="preserve"><style>.st2{fill:#355d84}.st3{fill:#f4ccab}.st4{fill:#231f20}.st5{fill:#4570ad}.st6{fill:#feac02}.st7{fill:#d88c05}.st8{fill:#0e244b}.st10{fill:#ff4d53}.st12{fill:#7139c9}.st13{fill:#d1d3d4}.st14{fill:#58595b}.st16{fill:#f2af81}</style><path d="M857.7 333.5C829.5 268 768 220.3 694.5 211.7v-1.4C694.5 97.9 603.4 6.8 491 6.8S287.6 97.9 287.6 210.3c0 5.6.2 11.2.7 16.7-65.8 13.5-120 58.7-145.9 119C70.4 377.3 20 449.1 20 532.6c0 25.4 4.7 49.8 13.2 72.2.7 1.8 1.4 3.5 2.1 5.3h206.6c.3.1.5.3.8.4h168.9c-.3.8-.7 1.7-1 2.5 1.8-.8 3.7-1.6 5.5-2.5.3-.1.5-.2.8-.4 3.5-1.6 6.9-3.4 10.3-5.3 31.8-17.4 58.5-43.1 77-74.2 21.4 30.5 50.9 54.8 85.4 69.8.6 1.5 1.3 3 2 4.4.8 1.8 1.6 3.5 2.5 5.3h23c.5.1.9.3 1.4.4H723c.5-.1.9-.2 1.4-.4H959c.9-1.7 1.7-3.5 2.5-5.3 11.8-25.8 18.4-54.5 18.4-84.7.1-83.5-50.3-155.3-122.2-186.6z" style="opacity:.68;fill:#e3d4f9"/><path d="M843.7 345c-27.1-62.9-86.2-108.8-156.8-117v-1.3c0-108-87.5-195.5-195.5-195.5s-195.5 87.5-195.5 195.5c0 5.4.2 10.7.7 16-63.2 13-115.3 56.4-140.2 114.3-69.2 30.2-117.6 99.1-117.6 179.4 0 24.4 4.5 47.8 12.7 69.4.6 1.7 1.3 3.4 2 5H252c.2.1.5.2.7.4H415c-.3.8-.7 1.6-1 2.4 1.8-.8 3.5-1.6 5.3-2.4.3-.1.5-.2.7-.4 3.3-1.6 6.6-3.3 9.9-5 30.6-16.8 56.2-41.5 74-71.3 20.6 29.3 48.9 52.6 82.1 67.1.6 1.4 1.2 2.8 1.9 4.2.8 1.7 1.6 3.4 2.4 5h22.1c.4.1.9.2 1.3.4h100.6c.4-.1.9-.2 1.3-.4h225.5c.8-1.7 1.6-3.4 2.4-5 11.4-24.8 17.7-52.4 17.7-81.4 0-80.3-48.4-149.3-117.5-179.4z" style="opacity:.68;fill:#cfb5f6"/><path class="st2" d="m376.9 163 2.4 62.7-18.2 4.4-2.8-71.1z"/><ellipse class="st3" cx="382.9" cy="79" rx="9.3" ry="13.5"/><path class="st4" d="M370.2 79h32.1s1.8-3.1-2.8-3.4l-4.6-.3s.3-13.5-12.1-14.1c-12.2-.6-14.1 11.6-12.6 17.8z"/><path class="st3" d="m373.9 82.4-6.7 14.9s0 10.7 11.6 9.5l2.8-7.3v-9.8l-7.7-7.3zM403.9 160.9l7.8 8.4 5.2-5-10-10.3z"/><path class="st5" d="m335.2 155.2-3.5 103.7 25.9-27.4 4.2-70.9z"/><path class="st6" d="M370.6 92.4h-13.5s-8.3-1.2-10.4 8.1l-1.2 18.6s-.8 11.8-5.2 19.1c-4.4 7.3-7.2 14.5-6.6 18.3 0 0 33.5 6.3 44.3 7.6 0 0 .3-15 3.5-20.6 3.2-5.7 6.1-11.2 6.1-11.2s2.1 16.4 9.6 23.5l5.4 5.8 7.6-5.5s-5.5-7.3-6.1-18c-.6-10.7-1.2-22.8-5.8-29.5 0 0-9.3-10.1-16.8-11.5 0 0-2.6 4.2-7.2 2.9s-3.7-7.6-3.7-7.6z"/><path class="st7" d="m360.3 98.8 4.7 34.4s-11.6 1.1-12.1 9.3c0 0-7-10.4-6.7-19s.7-24.1.7-24.1 5.8-9.6 13.4-.6z"/><path class="st8" d="M382 169.3s-2 5.5 2.9 4l25.5-20.5s2.3.3 2.8 2.9c0 0 3.7 3.4 4.9-1.7 0 0 .5-2.9-3.4-3.2 0 0 .3-3.2-2.1-3.4 0 0 .4-4.3-3.2-2.4s-.9 4.6-.9 4.6L382 169.3z"/><path class="st3" d="m364 134.3 23.8 21.9s9.8-3.2 11.8.6 1.1 8.1-3.2 8.1c-4.3 0-11.2-3.8-11.2-3.8l-31.9-17.4c0-.1.3-9.6 10.7-9.4z"/><g><ellipse class="st3" cx="821.4" cy="210.9" rx="18.2" ry="24.4"/><ellipse transform="rotate(-63.327 839.642 212.526)" class="st3" cx="839.6" cy="212.5" rx="5.2" ry="3.8"/><path class="st3" d="M816.2 229.9v26.8s25.5 15.8 29.6-8.9L831 224.4l-14.8 5.5zM695.9 277.5l-8.7-6.6s-4.6-15.4-18.1-13.1c-13.5 2.3-1.8 9.7-1.8 9.7s3.4 2 4.1 6.5c.7 4.6 2.6 7.1 7.9 6.9l8.4 8 8.2-11.4z"/><path class="st4" d="m785.7 199.1 57.9 13.4s11.8-23.5-4-35.4c0 0-14.4-11.7-31.6 2.3 0 0-7.1 6.4-9.6 14.9l-12.6.7c-.1 0-4.8 3-.1 4.1z"/><path class="st2" d="m795.2 385.4-15 216.8h36l42.5-216.8z"/><path class="st4" d="M785.5 601.3s-2.5 2.5-5.3 3.9-12.2 2.3-9.4 8h39.7l3.4-13.5-28.4 1.6zM857.1 602.2s-6 5-9.9 5.7c-3.9.7-3.2 5.3-3.2 5.3h38l2.5-11h-27.4z"/><path class="st5" d="m816.2 383 40.1 221.2H887s8.8-198.6-6.9-219.5l-63.9-1.7z"/><path class="st6" d="M816.2 243s-31 2.7-45.4 15c-14.4 12.4-43.3 35.8-43.3 35.8l-32.3-19.9-10.3 17.2 30.3 27.5s9.6 10.3 30.3 0c20.6-10.3 32.3-17.9 32.3-17.9s15.1 57.8 17.9 88.7H881s-8.3-57.8-7.6-81.2l17.2 17.2-11 26.8 8.3 12.7s23.6-14.2 30.6-37.7c0 0 2.4-10.9-1.5-20.7L888.8 258s-3.8-7.4-15.1-10.7c-1.9-.6-3.8-.9-5.7-1.1l-24.6-2.3s-3.8 6.5-13.9 7.4c-10.1.9-13.3-8.3-13.3-8.3z"/><path class="st3" d="m880 353.8-3.2 2.5s-9.6-2.9-15.5-1.1c-6 1.8-8.5 5-8.5 5s-5 5.7 3.4 8.5c8.5 2.8 19.3 5 24.5.9 5.3-4.1 5.9-5.8 5.9-5.8l-6.6-10z"/></g><g><path class="st4" d="M551.4 146.3h22.2v72.8h-22.2z"/><path style="fill:#f1f2f2" d="M177.9 408.4h589.5v205H177.9z"/><path class="st10" d="M170.3 408.4H788l-80.5-72.9h-463l-74.2 72.9z"/><path style="fill:#fff" d="M639.5 281.8v331.6H310.6l-1.7-205-.6-72.9-.1-15.8-.3-32.3v-4.2l171.9-168.5z"/><path class="st10" d="M290 286.6h19.3l169.9-164.4 160.2 164.4h17.9L479.9 105z"/><path class="st12" d="M424.8 246.7h103.9v141.7H424.8z"/><path class="st13" d="M420.7 443.5h113.5v169.9H420.7z"/><path class="st4" d="M424.4 452.4h106.2v155.5H424.4z"/><path class="st12" d="M237 443.5h70.9v103.9H237zM639.2 443.5h75.9v103.9h-75.9z"/><path class="st14" d="M161.7 615.4s19.9-28.9 48.2 0c0 0 24.1-23.4 46.1-26.8 22-3.4 53.7 8.9 65.4 26.8-.1 0-158.3-4.8-159.7 0zM578.2 613.4s16.5-26.1 49.5-19.3c0 0 16.5 6.2 29.6 19.3h19.8s20.1-28.2 44.1 0h-143z"/><path d="M639.5 286.7v37.8L473.7 159.4 308.2 319.7l-.3-32.3.8-.8c46.7-46 155.3-149.9 169.1-163l.6-.6c.6-.5.8-.8.8-.8l160.3 164.5z" style="fill:#e6e7e8"/><path transform="rotate(-66.316 147.81 503.644)" class="st4" d="M28 502.2h239.6v3H28z"/><path transform="rotate(-66.072 216.946 500.317)" class="st4" d="M94.5 498.8h244.8v3H94.5z"/><path class="st4" d="M185.1 417.1h68.1v3h-68.1zM171.5 448.3h67.9v3h-67.9zM156.9 481.6h67.8v3h-67.8zM143.2 512.8h67.6v3h-67.6z"/><path transform="matrix(.00434 -1 1 .00434 -385.868 707.434)" class="st4" d="M160.8 513.8h3v67.3h-3z"/><path class="st4" d="M115 577.1h67.3v3H115z"/></g><g><path class="st16" d="M302.8 238.4s10.7-2.9 14.8 1.2l1.7 2.7-14.8.9-1.7-4.8z"/><ellipse transform="rotate(-19.451 247.84 196.186)" class="st16" cx="247.8" cy="196.2" rx="9.8" ry="13.3"/><ellipse transform="rotate(-19.451 239.019 200.623)" class="st16" cx="239" cy="200.6" rx="2.5" ry="3.4"/><path class="st4" d="m234.1 200.6 30.3-10.7s.7-3.5-3.7-2.3l-4.4 1.2s-4.2-12.8-16.1-9.2c-11.9 3.6-9.6 15.8-6.1 21z"/><path class="st16" d="m239.9 200.6-2.3 19.9h14.2l-.9-14.4z"/><path class="st8" d="m282.2 397.1.8 5.8h20.2s.9-3.8-2.4-4.3c-3.4-.5-8-1.5-8-1.5h-10.6zM237 397.1v6.6h18.6s.5-2.3-1.7-3.7-2.1-1.4-2.1-1.4l-1.1-1.5H237z"/><path class="st2" d="M233.6 286.9s16.8 60.3 31 86.3l15.6 25.4H296s-17.4-75.2-26.8-111.7h-35.6z"/><path class="st5" d="m232.1 286.9 3 111.7h18.1l8.4-110.5z"/><path class="st6" d="M237.6 212.9s-6.9 1.8-7.8 11.6c-.9 9.8 2.4 63.6 2.4 63.6h38.5s.5-3.7-2.6-7.8c0 0-3.8-25.1-1.8-33.9l18.8 1.5s4 .9 9.8-.5c5.8-1.4 10.5-3.7 10.5-3.7l-1.7-6-22.9-.2-23.8-18.1s-2.2-3.1-5.5-3.8-13.9-2.7-13.9-2.7z"/><path class="st7" d="M235.6 228.4c.9-2.6 2.8-5.8 6.9-6.5 2.7-.4 5.5.6 7.4 2.6l22.2 22.4s3.1 2.7 7 3.7 21.9-.8 21.9-.8v6.6l-15.9 5.2s-8.4 3.2-14.4 0c-5-2.7-26.6-21.5-33.7-27.7-1.5-1.5-2.1-3.6-1.4-5.5z"/><path class="st13" d="M337.8 244.6h-6.1c-.3 0-.5-.2-.5-.5s.2-.5.5-.5h6.1c.3 0 .5.2.5.5s-.2.5-.5.5z"/><path style="fill:#414042" d="m301 239.6.8 19.3h12.3l-1.5-9.6h2.3l1.1-1.6 11.3-.3v-1.8h4.4v-3.3h-4.9l-.3-1.1h-10.8l-.5-1.6z"/><path class="st16" d="M301 250.5s6.7-4.7 9.9-3.7c3.2 1.1 6.8 3.7 4.7 6.3-2 2.6-14.7 3.2-14.7 3.2h-1.4l1.5-5.8z"/></g><path style="fill:#212121" d="M32.7 613h928.7v5.2H32.7z"/></svg>