<svg version="1.1" id="Layer_1" xmlns="http://www.w3.org/2000/svg" x="0" y="0" viewBox="0 0 1000 1000" style="enable-background:new 0 0 1000 1000" xml:space="preserve"><style>.st3{fill:#231f20}.st5{fill:#414042}.st7{fill:#fff}.st8{opacity:.65;fill:#feac02}.st9{opacity:.67}.st10{fill:#568ccc}.st12{fill:#8a22e1}.st16{fill:none;stroke:#242424;stroke-width:3;stroke-linecap:round;stroke-miterlimit:10}.st17{opacity:.49;fill:#8a22e1}.st18{fill:#ffbf9c}.st21{fill:#090909}.st22{fill:#606060}.st25{fill:#4570ad}</style><ellipse cx="491.5" cy="936.5" rx="454.5" ry="29.5" style="opacity:.29;fill:#231f20"/><path d="M930 513c106 257-145 432-414 432S25 778 25 509 243 22 512 22s315.4 242.4 418 491z" style="fill:#cfb5f6"/><path d="M313.5 822.4s-57.7-50.6-88.1-138.5S219 592 139 604c0 0-45-19-9.5-70.5 0 0 28.2-16.5-13.6-20.5S13 437 57.5 372s105.9-6 114.2 50c0 0-3.7 22.4 45.8 21.7s30.2 32.4 40.4 75.9c0 0 17.5 29.6 68.3 36.5S394 617 389 670s-75.5 152.4-75.5 152.4z" style="fill:#88ad55"/><path class="st3" d="M96.8 414.1c26 24 50.1 50 73 77 11.5 13.5 22.4 27.4 33 41.6l4 5.3 3.9 5.4c2.6 3.6 5.2 7.2 7.7 10.8l7.5 10.9 7.3 11.1 1.8 2.8 1.8 2.8 3.5 5.6 3.5 5.6c1.2 1.9 2.2 3.8 3.4 5.7 2.2 3.8 4.5 7.6 6.7 11.5l6.4 11.6c1.1 1.9 2.1 3.9 3.1 5.9l3 5.9 3 5.9 2.8 6 2.8 6c.9 2 1.9 4 2.8 6l5.2 12.2c.9 2 1.7 4.1 2.5 6.2l2.4 6.2 2.4 6.2 2.1 6.3 2.1 6.3c.7 2.1 1.4 4.2 2 6.3l3.7 12.8c4.4 17.1 7.8 34.6 9.5 52.2-2.2-17.6-5.7-34.9-10.4-51.9l-3.8-12.7c-.6-2.1-1.3-4.2-2.1-6.3l-2.2-6.3-2.2-6.3-2.4-6.2-2.4-6.2c-.8-2-1.6-4.1-2.5-6.1-6.9-16.3-14.7-32.1-23-47.7l-6.4-11.6c-2.2-3.8-4.5-7.6-6.7-11.4-1.1-1.9-2.2-3.8-3.4-5.7l-3.5-5.6-3.5-5.6-1.8-2.8-1.8-2.8c-19.1-29.7-40.3-58.1-62.8-85.3-11.3-13.6-22.9-26.9-34.8-40-12.2-12.6-24.4-25.4-37.2-37.6z"/><path d="M418.5 600.2s25.5-60-49-77.1-133-15.7-111.8-79.4c0 0 26.9-30.7-15.9-40.7s-60.1-48-60.9-64c-.6-10.8-34-22-55.7-28.2-17.1-4.9-28.9-21-27.5-38.8 1.4-17.8 14.9-37 63.4-43 97-12 146.7 77 146.7 77s39.9-17.7 56.6 50.6 10.4 55.4 10.4 55.4 37.4-63 52.8 13c15.4 76 15.3 158.5-9.1 175.2z" style="fill:#64aa55"/><path class="st3" d="M168.9 253.5c26.8 14.9 52.2 32.3 76.7 50.9 24.4 18.7 47.6 38.9 69.3 60.6 2.7 2.7 5.4 5.4 8.1 8.2l7.9 8.4c2.6 2.8 5.1 5.7 7.7 8.6l3.8 4.3 3.7 4.4c10 11.7 19.4 23.8 28.2 36.4 2.2 3.2 4.4 6.3 6.5 9.5l6.2 9.7c2.1 3.2 4 6.5 6 9.9l2.9 5 1.5 2.5 1.4 2.5 5.4 10.2c.9 1.7 1.7 3.4 2.6 5.2l2.5 5.2 2.5 5.2c.8 1.7 1.5 3.5 2.3 5.3l4.5 10.6-4.8-10.5c-.8-1.7-1.5-3.5-2.4-5.2l-2.6-5.1-2.6-5.1c-.9-1.7-1.7-3.4-2.7-5.1l-5.6-10-1.4-2.5-1.5-2.5-3-4.9c-2-3.3-3.9-6.6-6.1-9.8l-6.3-9.6c-2.2-3.2-4.4-6.3-6.6-9.4-1.1-1.6-2.2-3.1-3.3-4.7l-3.5-4.6c-2.3-3-4.6-6.2-7-9.1l-7.2-9c-1.2-1.5-2.4-3-3.7-4.4l-3.7-4.4-3.7-4.4-3.8-4.3c-2.6-2.8-5.1-5.7-7.7-8.5l-7.9-8.3c-2.6-2.8-5.4-5.5-8.1-8.2-10.8-10.9-21.9-21.4-33.4-31.5-11.5-10.1-23.4-19.8-35.4-29.3-12.1-9.4-24.4-18.5-37-27.2-12.6-8.9-25.5-17.2-38.7-25z"/><path class="st3" d="M328 40h606.6S950 41 948 63.2 903 839 903 839s-4 16.1-18 18.1-601.1 0-601.1 0S266 844 262 829.9s52-770.8 52-770.8 0-10 14-19.1z"/><path class="st5" d="M316.7 40h597.9S930 41 928 63c-1.9 21-41.1 702.8-44.7 765.4-.3 5.5-2.2 10.9-5.8 15.2-2.8 3.4-6.8 6.5-12.5 7.4-12.6 1.8-488.6.4-584.4.1-14.6 0-28.3-7.6-35.6-20.2-1.3-2.2-2.3-4.5-3-6.9-4-14 52-765 52-765s0-2.8 2.1-6.8c4-7.6 12-12.2 20.6-12.2z"/><path d="M329.2 59h570s14.7 1 12.8 21.9-42.9 734-42.9 734-3.8 15.3-17.2 17.2c-12 1.7-465.7.3-557.1.1-13.9 0-26.9-7.2-33.9-19.2-1.2-2.1-2.2-4.3-2.9-6.5-3.8-13.3 49.6-729.2 49.6-729.2s0-2.7 2-6.5c3.8-7.4 11.5-11.8 19.6-11.8z" style="fill:#f1f2f2"/><path class="st7" d="M346.8 231h510.8s13 .7 11.3 15.4c-1.7 14.7-37.9 514-37.9 514s-3.4 10.7-15.2 12c-11.8 1.3-506.2 0-506.2 0s-15-8.7-18.4-18S335 243.7 335 243.7s0-6.7 11.8-12.7z"/><path class="st8" d="M380.1 290h41.5s1.1.1.9 1.2c-.1 1.2-3.1 41.7-3.1 41.7s-.3.9-1.2 1c-1 .1-41.1 0-41.1 0s-1.2-.7-1.5-1.5c-.3-.8 3.6-41.5 3.6-41.5s-.1-.4.9-.9zM376.1 381h41.5s1.1.1.9 1.2c-.1 1.2-3.1 41.7-3.1 41.7s-.3.9-1.2 1c-1 .1-41.1 0-41.1 0s-1.2-.7-1.5-1.5c-.3-.8 3.6-41.5 3.6-41.5s-.1-.4.9-.9zM370.1 472h41.5s1.1.1.9 1.2c-.1 1.2-3.1 41.7-3.1 41.7s-.3.9-1.2 1c-1 .1-41.1 0-41.1 0s-1.2-.7-1.5-1.5c-.3-.8 3.6-41.5 3.6-41.5s-.1-.4.9-.9zM365.1 563h41.5s1.1.1.9 1.2c-.1 1.2-3.1 41.7-3.1 41.7s-.3.9-1.2 1c-1 .1-41.1 0-41.1 0s-1.2-.7-1.5-1.5c-.3-.8 3.6-41.5 3.6-41.5s-.1-.4.9-.9zM357.1 654h41.5s1.1.1.9 1.2c-.1 1.2-3.1 41.7-3.1 41.7s-.3.9-1.2 1c-1 .1-41.1 0-41.1 0s-1.2-.7-1.5-1.5c-.3-.8 3.6-41.5 3.6-41.5s-.1-.4.9-.9z"/><g class="st9"><path class="st10" d="M739 306H454c-3.3 0-6-2.7-6-6s2.7-6 6-6h285c3.3 0 6 2.7 6 6s-2.7 6-6 6zM650 331H451c-3.3 0-6-2.7-6-6s2.7-6 6-6h199c3.3 0 6 2.7 6 6s-2.7 6-6 6z"/></g><g class="st9"><path class="st10" d="M739 397H454c-3.3 0-6-2.7-6-6s2.7-6 6-6h285c3.3 0 6 2.7 6 6s-2.7 6-6 6zM650 422H451c-3.3 0-6-2.7-6-6s2.7-6 6-6h199c3.3 0 6 2.7 6 6s-2.7 6-6 6z"/></g><g class="st9"><path class="st10" d="M731 488H446c-3.3 0-6-2.7-6-6s2.7-6 6-6h285c3.3 0 6 2.7 6 6s-2.7 6-6 6zM642 513H443c-3.3 0-6-2.7-6-6s2.7-6 6-6h199c3.3 0 6 2.7 6 6s-2.7 6-6 6z"/></g><g class="st9"><path class="st10" d="M729 579H444c-3.3 0-6-2.7-6-6s2.7-6 6-6h285c3.3 0 6 2.7 6 6s-2.7 6-6 6zM640 604H441c-3.3 0-6-2.7-6-6s2.7-6 6-6h199c3.3 0 6 2.7 6 6s-2.7 6-6 6z"/></g><g class="st9"><path class="st10" d="M724 670H439c-3.3 0-6-2.7-6-6s2.7-6 6-6h285c3.3 0 6 2.7 6 6s-2.7 6-6 6zM635 695H436c-3.3 0-6-2.7-6-6s2.7-6 6-6h199c3.3 0 6 2.7 6 6s-2.7 6-6 6z"/></g><g><circle cx="882" cy="281" r="103" style="fill:#252525"/><circle class="st12" cx="882" cy="281" r="100"/><circle cx="882" cy="281" r="91" style="fill:#242424"/><circle class="st7" cx="882" cy="281" r="88"/><path d="M882 193v71.4c0 9.2 7.4 16.6 16.6 16.6H970s-2.4-44-30.1-66.2C911.8 192.1 882 193 882 193z" style="fill:#fce57f"/><circle cx="882" cy="281" r="9" style="fill:none;stroke:#231f20;stroke-width:3;stroke-miterlimit:10"/><path class="st16" d="M882 272v-37M882 206.1v-9.5M882 366.1v-9.5M891 281h37.2M956 281h12.2M796 281h12.2M818 220.6l8.7 8.4M939 330.6l8.7 8.4M818 339l7-7"/><path d="m912.2 255.3 1.8-2.7c2 1.7 4.4 3.1 7.3 3.1 3.5 0 5.3-1.9 5.3-4.8 0-7.6-13.2-6-13.2-15.1 0-4.7 3.5-8 8.4-8 3.7 0 6 1.6 7.9 3.6l-2.1 2.3c-1.8-1.7-3.2-2.7-5.7-2.7-2.9 0-4.7 1.8-4.7 4.5 0 6.9 13.2 5 13.2 15.1 0 5-3.6 8.3-9.1 8.3-3.4.1-6.9-1.5-9.1-3.6zm8-32.1h2.8v6.1h-2.8v-6.1zm0 34.4h2.8v6h-2.8v-6z"/></g><path class="st5" d="M652.5 80.5h-89c-11.6 0-21-9.4-21-21v-1h131v1c0 11.6-9.4 21-21 21z"/><path class="st7" d="M755.5 193.5h-524c-14.9 0-27-12.1-27-27v-12c0-14.9 12.1-27 27-27h524c14.9 0 27 12.1 27 27v12c0 14.9-12.1 27-27 27z"/><path class="st17" d="M612 173.5H340c-6.9 0-12.5-5.6-12.5-12.5s5.6-12.5 12.5-12.5h272c6.9 0 12.5 5.6 12.5 12.5s-5.6 12.5-12.5 12.5zM746.5 173.5h-78c-7.2 0-13-5.8-13-13s5.8-13 13-13h78c7.2 0 13 5.8 13 13s-5.8 13-13 13z"/><g><path class="st3" d="M266.5 176c-10.2 0-18.5-8.3-18.5-18.5s8.3-18.5 18.5-18.5 18.5 8.3 18.5 18.5-8.3 18.5-18.5 18.5zm0-34c-8.5 0-15.5 7-15.5 15.5s7 15.5 15.5 15.5 15.5-7 15.5-15.5-7-15.5-15.5-15.5z"/><path class="st3" d="M241.8 182.8c-.4 0-.8-.2-1.1-.5-.6-.6-.5-1.6.1-2.1l12.7-11.8c.6-.6 1.6-.5 2.1.1.6.6.5 1.6-.1 2.1l-12.7 11.8c-.3.3-.6.4-1 .4z"/></g><g><path class="st3" d="M244.9 207.9c-28 0-34.5-16.6-34.7-17.3-.3-.8.1-1.6.9-1.9.8-.3 1.6.1 1.9.9.3.7 7.1 17.6 37.9 15.1 32.2-2.6 418.7.2 422.6.2.8 0 1.5.7 1.5 1.5s-.7 1.5-1.5 1.5c-3.9 0-390.3-2.8-422.4-.3-2.2.2-4.2.3-6.2.3z"/></g><g><path class="st3" d="M695.9 207.6c-.8 0-1.5-.7-1.5-1.5s.7-1.5 1.5-1.5h71.5c.8 0 20.7-1.2 22.1-21.9 1.5-21.9 0-33.9 0-34-.1-.8.5-1.6 1.3-1.7.8-.1 1.6.5 1.7 1.3.1.5 1.5 12.4 0 34.6-1.6 23.4-24.8 24.7-25 24.7h-71.6z"/></g><g><path class="st18" d="m214.6 849-11.1 14.5 17 16 11-19s-5.8-16.9-16.9-11.5z"/><path d="M203.5 859.6s-17 10.9-19 16.9-5 44 17 62c0 0 17 10 22-6s-1.4-55.8-1.4-55.8-10.6-22.1-18.6-17.1z"/><path class="st7" d="M183 900s-6.7-31.1 11.1-29.1c6.9.8 12.3 6.2 13.6 13.1.7 3.8 1.3 9 1.8 16.3 0 0 4.5 6.5 14 23.2 9.5 16.6-9.5 20.3-18.7 16.7C192 935 183 900 183 900z"/><path d="M182.9 903.6s-6.1-28.4 10.1-26.6c6.3.7 11.2 5.7 12.3 11.9.6 3.4 1.2 8.2 1.6 14.8 0 0 4.1 6 12.7 21.1 8.6 15.2-8.7 18.5-17 15.2-11.5-4.4-19.7-36.4-19.7-36.4z" style="fill:#e6e7e8"/><path class="st7" d="M224.4 896.1c-.1 0-.3 0-.4-.1l-9.8-4.6c-.5-.2-.7-.8-.5-1.3s.8-.7 1.3-.5l9.8 4.6c.5.2.7.8.5 1.3-.2.4-.6.6-.9.6zM225.1 903.3l-11.3-.1c-.6 0-1-.5-1-1 0-.6.5-1 1-1l11.3.1c.6 0 1 .5 1 1 0 .6-.4 1-1 1z"/><path class="st18" d="M328.5 890.5v20.4s18 8.6 20-2.4v-18h-20z"/><path d="M389.5 941.6s-36 1.9-49 2.9-21.5-7.4-21.5-7.4.6-4.4 1.5-10 1.9-12.3 2.8-17c1.8-9.5 5.2-7.7 5.2-7.7 7 12.8 20 6.2 20 6.2s37 13 44 20c1.2 1.2 1.9 2.4 2.3 3.6 1.5 5.3-5.3 9.4-5.3 9.4z"/><path class="st7" d="M389.5 941.6s-36 1.9-49 2.9-21.5-7.4-21.5-7.4.6-4.4 1.5-10c8.3 3.1 23.1 6.3 51 7.4 0 0 14.1 2 23.3-2.4 1.5 5.4-5.3 9.5-5.3 9.5zM349.5 920.1c-.3 0-.6-.2-.8-.4-.3-.5-.2-1.1.3-1.4l9-6c.5-.3 1.1-.2 1.4.3.3.5.2 1.1-.3 1.4l-9 6c-.2.1-.4.1-.6.1zM358.5 923.4c-.3 0-.7-.2-.8-.5-.3-.5-.2-1.1.3-1.4l10-6.3c.5-.3 1.1-.2 1.4.3.3.5.2 1.1-.3 1.4l-10 6.3c-.2.1-.4.2-.6.2z"/><path class="st18" d="M197.5 629.5s-3 14-15 19c0 0-9 21.4 15 26.7 0 0 4 .3 4-10.7s8-11 13-9c0 0 1-7-3-15l.5-11h-14.5zM317.5 415.5c0 1-4 40-4 40l32-2v-30.1l-28-7.9z"/><path d="M280.5 451.5s59.8-20 93.4 4l20.6 31s15.4 3 15.2-4.5c0 0 9.3 3.3 10.5 13.4l3.7 47.1s.6 28.1-28.4 15.1c0 0 1 39-10 43l1.7 26.7s-6.7 7.6-36.7 10c-30 2.3-92-6.7-92-6.7l8.5-37.9s-7.5-4-8.5-10.1 2-36.1 2-36.1-41 61-44 85l-25 2s3-70 26-112c0 0 26.2-39.3 37.1-50.7 10.9-11.3 25.9-19.3 25.9-19.3z" style="fill:#ff4d53"/><circle class="st21" cx="76.5" cy="934.5" r="10.5"/><circle class="st21" cx="129.5" cy="934.5" r="10.5"/><ellipse transform="rotate(-19.87 348.447 407.452)" class="st18" cx="348.5" cy="407.5" rx="18.5" ry="26.5"/><path d="M329.9 394s11.6-7.5 22.6-6.5 15-6 9-11-17-13-24-6-14.7 9.8-26.9 10.4c-12.1.6-13.1 10.6-6.1 18.6s15 27 15 27 8.8-7.7 14.9-5.9c6.1 1.9-2.2-13.1-2.2-13.1l-2.3-13.5zM371.5 450.5s-21-15.5-23 25.2l-19-3.2s2-24 16-31 22 4 26 9z"/><path class="st10" d="M307.5 482s28.4-23.5 46.7 0 26.3 112.5 26.3 112.5-7 21-23 20c0 0 4 9.3-9 11.6s-49.9 0-49.9 0-28.1-3.6-31.1-28.6 0-35.1 0-35.1l14-10.9s2.2-48 7.6-51.5c5.4-3.5 18.4-18 18.4-18z"/><path class="st3" d="M294.5 506.5c4.5-3.8 9.6-6.9 15-9.2 2.8-1.1 5.6-1.9 8.6-2.3 3-.4 6-.4 9 .3s5.8 2 8.2 3.9c2.4 1.8 4.5 4.1 6.2 6.6 3.3 5 6.1 10.2 8.5 15.6 4.8 10.8 8.6 22 11.6 33.4 1.5 5.7 2.8 11.4 3.9 17.2.5 2.9 1 5.8 1.4 8.7.4 2.9.7 5.9.6 8.8-.5-5.9-1.7-11.6-3-17.3-.3-1.4-.7-2.9-1-4.3-.3-1.4-.7-2.8-1.1-4.3l-1.1-4.2-1.2-4.2c-.4-1.4-.8-2.8-1.3-4.2-.4-1.4-.8-2.8-1.3-4.2-.9-2.8-1.8-5.6-2.8-8.3-1.9-5.5-4.1-10.9-6.5-16.3-2.4-5.3-5.2-10.5-8.3-15.3-1.6-2.4-3.5-4.5-5.7-6.3-2.2-1.7-4.8-3-7.5-3.8-2.7-.7-5.6-.8-8.5-.5-2.9.3-5.7 1-8.4 2-5.4 1.8-10.6 4.7-15.3 8.2z"/><path class="st3" d="m283.5 552.5 28.5 1.2 14.2.5c4.7.1 9.5.3 14.2.3h.1c.6.1.9.2 1.3.4s.7.4 1.1.6c.3.2.7.5 1 .7.3.3.6.5.9.8 1.1 1.1 2 2.4 2.7 3.7 1.4 2.7 2.2 5.5 2.8 8.4.1.7.3 1.4.4 2.2l.3 2.2c.2 1.4.2 2.9.3 4.3l.4 8.6c.3 5.7.7 11.4 1.2 17.1.4 5.7 1 11.4 1.6 17.1-.5-2.8-1-5.6-1.4-8.5-.4-2.8-.8-5.7-1.2-8.5-.7-5.7-1.3-11.4-1.8-17.1-.2-2.9-.4-5.7-.6-8.6-.1-1.4-.2-2.8-.4-4.2l-.3-2.1c-.1-.7-.3-1.4-.4-2.1-.6-2.7-1.4-5.4-2.7-7.8-.6-1.2-1.4-2.3-2.3-3.2l-.7-.7c-.3-.2-.5-.4-.8-.5-.3-.2-.5-.3-.8-.4-.3-.1-.6-.2-.7-.2h.1c-4.8 0-9.5-.2-14.3-.4-4.8-.2-9.5-.5-14.3-.9-4.7-.3-9.5-.7-14.2-1.2-4.7-.7-9.5-1.1-14.2-1.7z"/><path class="st3" d="M274.5 568.5c2.3 1.5 4.8 2.6 7.4 3.5 2.6.9 5.2 1.7 7.8 2.3 5.3 1.3 10.7 2.1 16.1 2.6 2.7.3 5.4.4 8.1.6 2.7.1 5.5.1 8.2.2l8.2-.1c2.7-.1 5.5-.2 8.2-.2-2.7.5-5.4.8-8.2 1.2-2.7.3-5.5.5-8.2.6-1.4 0-2.8.1-4.1.1-1.4 0-2.8.1-4.1 0-2.8-.1-5.5-.2-8.3-.5-1.4-.2-2.8-.2-4.1-.5l-4.1-.6c-2.7-.6-5.4-1.1-8.1-2-.7-.2-1.3-.4-2-.6l-2-.7c-1.3-.5-2.6-1-3.8-1.6l-1.9-.9-1.8-1c-1.1-.7-2.3-1.4-3.3-2.4z"/><path class="st18" d="M376.5 451.5s23-4 29 11L413 486l-14.3.8c-2.5.1-5-.6-7-2-6-4.4-17.8-14.3-13.2-22.4 0 0 7.4-.1 9.2 8.5 0 0 9.2 3.1 4.5-6.1 0 0-8.7-10.3-15.7-7.2 0-.1-4-1.1 0-6.1z"/><path class="st3" d="M394.1 495.4c1.3 2.8 2.2 5.7 2.9 8.7.8 3 1.3 6 1.7 9 .2 1.5.3 3.1.4 4.6 0 1.5.2 3.1.1 4.6 0 3.1-.3 6.1-.8 9.2-.3-3.1-.5-6.1-.8-9.1-.3-3-.6-6-1-9l-1.2-9-1.3-9z"/><path d="m266.2 627.2-56.7 225.3s13-4 21 13c0 0 34-20 57-77s28-72 28-72 14.7 136.3 7.8 175.6c0 0 18.2 6.6 32.7 0 0 0 26.5-131.6 27.5-169.6s-3-98.2-3-98.2-25.7 19.6-114.3 2.9z"/><path class="st22" d="M312.4 715.5c-.8-5.5-1.5-10.8-2.5-16.2-.2-1.3-.4-2.7-.7-4l-.5-2c-.2-.6-.4-1.3-.6-1.9-.2-.6-.5-1.3-.8-1.9l-.4-.9c-.2-.3-.4-.6-.5-.9-.7-1.2-1.6-2.1-2.5-3.2-2-2.1-3.2-4.8-4-7.5-.8-2.7-1.2-5.5-1.3-8.3-.2-5.6.4-11.1 1.9-16.5h.2c-.2 5.5-.3 10.9 0 16.3.2 2.7.4 5.4 1 7.9.6 2.6 1.5 5.1 3 7.2 1.7 2.2 2.9 4.8 4 7.3s2.1 5.1 2.8 7.8c.7 2.7 1 5.5 1.2 8.2.2 2.8.2 5.5-.2 8.3h-.1zM266 666.8l-8.3-8.2 1.4-1.4 7.2 7.1 16.3-9 3.3-21.4 2 .3-3.5 22.4zM332.6 670.5c-9.3 0-20.4-13.4-20.9-14l-.2-.3v-18.8h2v18c1.7 2 12.2 13.8 19.9 12.9 7.8-.9 20.7-9.8 23.1-11.5v-19.4h2V658l-.4.3c-.6.5-15.3 11.2-24.5 12.2h-1z"/><path d="m122.5 752 38-91.3s10.7-11.6 20.3-8.3c0 0-1.1 9.6 2.3 13.6 0 0-12.6-3.2-16.6 13.2L137.7 752h-15.2zM201.5 664.5s22-2 6 33-24.4 54.3-24.4 54.3h14.6l27.7-67.9s6.1-21.4-10.9-28.4-13 9-13 9z"/><path d="m143.3 751.5 71.2-.3s13.2 1.5 7.6 23.2c-5.6 21.8-58.6 141.8-58.6 141.8s-1 14-13 13-71 .1-71 .1-12-4.1-11-18.1l63.8-151.8s3.7-7.6 11-7.9z" style="fill:#d14d0b"/><path d="m104.3 751.8 71.2-.3s13.2 1.5 7.6 23.2c-5.6 21.8-58.6 141.8-58.6 141.8s-1 14-13 13-71 .1-71 .1-12-4.1-11-18.1l63.8-151.8s3.7-7.6 11-7.9z" style="fill:#f4591c"/><path d="M56.8 907.3c-.6 0-1.3-.1-1.9-.4-2.5-1-3.7-3.8-2.6-6.2l54.3-123.8c1.1-2.4 4-3.6 6.5-2.5 2.5 1 3.7 3.8 2.6 6.2L61.3 904.4c-.8 1.8-2.6 2.9-4.5 2.9zM79.8 906.3c-.6 0-1.3-.1-1.9-.4-2.5-1-3.7-3.9-2.6-6.4L129.5 773c1.1-2.5 4-3.6 6.5-2.6s3.7 3.9 2.6 6.4L84.3 903.3c-.8 1.9-2.6 3-4.5 3zM101.8 906.3c-.6 0-1.3-.1-1.9-.4-2.5-1-3.7-3.9-2.6-6.4L151.5 773c1.1-2.5 4-3.6 6.5-2.6s3.7 3.9 2.6 6.4l-54.3 126.6c-.8 1.8-2.6 2.9-4.5 2.9z"/><ellipse transform="rotate(-36.965 328.497 407.516)" class="st18" cx="328.5" cy="407.5" rx="6.1" ry="8.8"/><path class="st25" d="m342.5 441.5-62 4s-42 10-19 34 27.6 20.5 27.6 20.5l24.4-23.8 29-34.7z"/><path class="st3" d="M266.2 460.8c.7 1.4 1.7 2.6 3 3.4 1.3.8 2.7 1.3 4.2 1.4 1.5.2 3 0 4.4-.3 1.5-.3 2.9-.7 4.3-1.3 2.8-1.1 5.6-2.5 8.2-4.1 2.7-1.6 5.3-3.3 7.8-5l.1-.1c1.6-.7 3.1-1.3 4.7-2 1.6-.6 3.2-1.3 4.8-1.9-1.4.9-2.9 1.8-4.4 2.6-1.5.9-3 1.7-4.4 2.5l.1-.1c-2.4 2-5 3.9-7.7 5.5-2.7 1.7-5.5 3.1-8.6 4.2-3 1.1-6.3 1.7-9.6 1.1-1.6-.3-3.2-1-4.4-2.1-1.3-.8-2.2-2.3-2.5-3.8z"/></g><g><path class="st18" d="m578.5 552.5 22.3 15s17.8 5.4 19-10.6c1.2-16-4-64.8-4-64.8s11.3-13.1 1.2-20.6l6.7-12.5s2.2-10.1-3.8-6.1-16.4 20.5-16.4 20.5-7.4 5.9 0 18.7l-2.2 36.1s-1.7.8-6.3-3c-4.5-3.7-16.5 27.3-16.5 27.3zM415.5 872.5l-3 16.3s12.7 13.7 18.4 1.7l2.6-14-18-4zM503.5 893.5l-5 17s19 10 24-4l1.3-11.4-20.3-1.6z"/><path d="M461.5 931.5c-1 16-23 10-23 10l-35-22.8c-12-6.8-9-14.2-9-14.2l3-3.8 15-18.7c6 13.5 22 8.5 22 8.5s8 18 17.1 25.6c5.7 4.7 8.1 9.5 9.1 12.4.7 1.9.8 3 .8 3zM573.7 933.5c.2 7.2-7.3 9.2-7.3 9.2l-59.6-.1s-15.2 1.9-18.2-10.1c-.2-.6-.3-1.3-.3-1.9-1.3-11.5 10.3-24.4 10.3-24.4 14 13.7 25.3 0 25.3 0 21.5 5.1 38.1 14.5 44.8 18.7 2.4 1.5 4.1 3.8 4.8 6.5 0 .7.1 1.4.2 2.1z"/><path class="st7" d="M573.7 933.5c.2 7.2-7.3 9.2-7.3 9.2l-59.6-.1s-15.2 1.9-18.2-10.1c-.2-.6-.3-1.3-.3-1.9l85.2.8c0 .7.1 1.4.2 2.1zM461.5 931.5c-1 16-23 10-23 10l-35-22.8c-12-6.8-9-14.2-9-14.2l3-3.8c9.5 9 36.5 33.8 45.2 35.1 10.7 1.7 17.2-1.2 18-7.3.7 1.9.8 3 .8 3z"/><path class="st18" d="M505.1 451.7v22.5s-12.9 17.5 7.3 20.8c0 0 16.5-5.8 18.1-16.2v-22.2l-7.5-12.9-17.9 8z"/><ellipse class="st18" cx="537.5" cy="437.5" rx="15.5" ry="25.5"/><path d="M528.8 431.6s18.9-3.2 19.3-12.7-5.6-16.4-13.6-18.4c0 0-20-8-30 5s-8.1 32-8.1 32 4.4 23 14.2 18 11.8-11.8 11.8-11.8l6.4-12.1z"/><path d="M480.7 629.3s-9.2 13.2-4.2 46.2c0 0 5 23-10 44s-42 71-47 108-7 48-7 48l24 3 79-140 11.7-104.6-46.5-4.6z" style="fill:#e59405"/><path d="M559.9 622s15.6 19.7 14.6 72.7-22 122.3-22 122.3l-27 80.5-26.8-2.5 12.8-128s2-63.2-5-72.4c-7-9.2-16.7-63.9-7.8-65.9 1.8-.3 61.2-6.7 61.2-6.7z" style="fill:#feac02"/><path class="st12" d="M501.8 476.9s-4.3 13.6 10.7 13.6c0 0 16.9-5.5 17-14.8 0 0 18-2.2 31 14.8l35 27s-1.3 54.7-19 37c-1-1-12-5.1-12-5.1s-6 40.1-4 54.1 5.2 25.7 5.2 25.7-66.4 18.2-86.3 2.8v-4.2l-16.9-116.9s.4-24.4 23.7-28.9l15.6-5.1z"/><path class="st18" d="M455.1 519.5s-21.6 25-31.6 79c0 0-4 31.8-11 35.4s-11.4 11.7-12.2 23.1c-.8 11.5 0 13.5 0 13.5s4.8 6 8.5 0c0 0-2.3-13 3.7-16.5s16.5-7.8 16.2-20.2l9.8-19.4 12-36.4 4.6-58.5z"/><path d="M507.5 409.5s-3-10-25-9-23.2 32.5-23.2 32.5 1.2 10.6-8.8 19.1-26.2 18.4-25.6 34.4l2.6-1.6s1 38.4 23 38.5c22 .1 56.6-17 51.3-51.5 0 0-10.7-31.6-10-42.5.7-10.9 6 3.6 6 3.6l9.7-23.5z"/><path class="st25" d="M548.3 479c-4.8-4-11.3-5.3-17.2-3.5-6.7 2.1-14.8 6.4-18.5 15-7 16-8 18-8 18l11.1 2.4s2.3-19.4 18.6-24.4 22.1 2 21.7 0c-.3-1-4.1-4.4-7.7-7.5zM505.6 471.6l-7.1 16.9h-11.1s-1.9-8.5 4.6-12.8c6.5-4.2 13.6-4.1 13.6-4.1z"/><path class="st25" d="M494 488.5c-16.5-2-14.5 18.5-14.5 18.5l25 1.5s6-18-10.5-20zm2.3 17.5h-9.1s.3-12.5 5.3-9.5 3.8 9.5 3.8 9.5z"/><path d="M473.1 506s33.9-2.6 49.2 7.5c15.3 10.1 17.3 26.1 17.3 33.1s-2 57-2 57-8 12-18 14c0 0-9.4 6-17.7 5 0 0-4 8.8-14.6 6.4 0 0-43.7-5.4-48.7-14.4V574l12-9.5.9-33c-.1 0-.9-17 21.6-25.5z" style="fill:#f9808f"/><path class="st25" d="M462.5 515.5c4.1-.5 8.3-.7 12.5-.8 4.2-.1 8.4-.1 12.5.2 2.1.1 4.2.3 6.3.6 2.1.3 4.2.6 6.2 1 4.1.9 8.2 2.1 12 4.2l-.3-.1c2.6.7 4.1 2.3 5.5 4l.9 1.4c.3.5.5 1 .8 1.4l.4.7.3.7.6 1.5c1.5 4 2.2 8.2 2.6 12.4l.3 3.1.1 3.1c.1 2.1 0 4.2 0 6.3-.1 4.2-.4 8.3-.5 12.5-.4 8.3-.8 16.6-1.3 24.9-.2 4.1-.5 8.3-.8 12.4-.3 4.1-.5 8.3-.9 12.4 0-4.2.1-8.3.2-12.5.1-4.2.1-8.3.3-12.5.2-8.3.4-16.6.7-24.9.2-8.3.9-16.6 0-24.7-.4-4.1-1-8.1-2.4-11.9-.7-1.9-1.6-3.7-2.7-5.3-.3-.4-.6-.7-.9-1.1-.3-.4-.7-.7-1-1-.4-.3-.7-.6-1.1-.8l-.6-.3c-.2-.1-.4-.2-.5-.2l-.3-.1h-.1c-3.5-2.1-7.4-3.3-11.4-4.3s-8.1-1.5-12.2-1.9c-4.1-.4-8.3-.6-12.4-.7-4.5.1-8.6.1-12.8.3z"/><path class="st25" d="M450.5 564.5c4.1.5 8.2 1.2 12.3 1.8l12.3 2.1c8.2 1.4 16.3 3 24.5 4.6h-.1c1.1.1 2 .3 3 .5 1 .3 1.9.6 2.9 1.1 1.8.9 3.5 2.3 4.6 4.1.3.5.5.9.7 1.4l.5 1.5.3 1.5c.1.5.1 1 .1 1.5.1 1.9.2 3.9.2 5.8.1 7.7-.3 15.3-.8 22.9v.1c-.3 1.2-.8 2.2-1.3 3.2-.6 1-1.3 1.9-2.1 2.7-.8.8-1.7 1.5-2.7 2-1 .6-2 .9-3.1 1.2 1-.4 2.1-.8 3-1.4.9-.6 1.7-1.3 2.4-2.1s1.3-1.7 1.8-2.7c.5-1 .8-2 1-3v.1c.1-3.8.1-7.6.1-11.4 0-3.8 0-7.6-.1-11.4l-.3-5.7c-.1-.5-.1-.9-.1-1.4l-.2-1.3-.4-1.2-.6-1.1c-1.8-2.9-5.5-4.4-8.9-4.8h-.1c-8.1-1.6-16.3-3.3-24.4-5-4.1-.9-8.1-1.8-12.2-2.7l-12.3-2.9z"/><path class="st25" d="M441.9 571.3c7.7 1.2 15.5 2.5 23.2 4 7.7 1.4 15.4 2.9 23.1 4.4l2.9.6 1.4.3c.5.1 1.1.2 1.6.4 2 .7 3.9 2.1 5.1 4 .6 1 .9 2 1.1 3.1.1.5.1 1.1.1 1.6v1.5l-.1 5.9c-.1 7.8-.2 15.7-.4 23.5v-.2c.3 1.1.2 2.2-.1 3.3-.4 1-1 1.9-1.8 2.6-.7.7-1.6 1.3-2.5 1.8-.5.2-.9.4-1.4.6l-1.4.5 1.4-.6c.5-.2.9-.5 1.3-.7.8-.6 1.7-1.1 2.3-1.9.7-.7 1.2-1.6 1.5-2.5.3-.9.2-1.9-.1-2.7v-.2c-.2-7.8-.4-15.7-.4-23.5l-.1-5.9v-1.5c0-.5-.1-.9-.1-1.3-.2-.9-.4-1.7-.9-2.4-.9-1.5-2.3-2.5-4-3.1-.4-.2-.8-.3-1.3-.3l-1.4-.3-2.9-.6c-7.7-1.6-15.3-3.2-23-4.9-7.8-1.8-15.5-3.6-23.1-5.5z"/><ellipse transform="rotate(-19.87 524.923 432.951)" class="st18" cx="525" cy="433" rx="4.1" ry="6.7"/></g><circle cx="106.5" cy="675.5" r="12.5" style="fill:none;stroke:#231f20;stroke-width:2;stroke-miterlimit:10"/></svg>