<svg version="1.1" id="Layer_1" xmlns="http://www.w3.org/2000/svg" x="0" y="0" viewBox="0 0 1000 794.4" style="enable-background:new 0 0 1000 794.4" xml:space="preserve"><style>.st1{fill:#fff}.st2{fill:#98d9e2}.st3{fill:#d4844f}.st5{fill:#070707}.st9{fill:#db7254}.st11{opacity:.52;fill:none;stroke:#b2523b;stroke-width:2;stroke-miterlimit:10}.st12{fill:#3470b9}.st15{fill:#fca819}.st18{fill:#dd4f65}.st21{opacity:.48;fill:#8a22e1}</style><path d="M809.2 348.7c0 80.3-28.9 153.6-76.7 209.8-57.5 67.6-142.3 110.3-236.9 110.3-173.2 0-313.6-143.3-313.6-320.1 0-87.8 34.6-167.3 90.7-225.1 56.8-58.6 135.7-95 222.9-95 173.2.1 313.6 143.4 313.6 320.1z" style="opacity:.29;fill:#8a22e1"/><path class="st1" d="M802.3 347.3c0 78.2-28.2 149.7-74.8 204.4L279.5 128c55.4-57.1 132.2-92.6 217.2-92.6 168.8 0 305.6 139.7 305.6 311.9z"/><path class="st2" d="M373.8 636.9s-286.7-40.4-271.4 43.9c0 0 43.8 41.2 232.9 47.5 0 0-9.3 70.3 364.1 66 0 0 339.4-23.8 136.1-96.5 0 0 41.7-42.9-182.7-76.9 0 0-136.2 80.6-233.7 34.9l-45.3-18.9z"/><ellipse class="st3" cx="663.8" cy="117" rx="53.7" ry="71.1"/><path class="st3" d="M643.6 173.9s4.4 11.9 1.5 22.9h-17.5l-3.7 32.9 67.9 5.1 13.1-30.4-16.1-9.7s-3-5.3-4.4-20.9-40.8.1-40.8.1zM564.7 286.6s-6.1 60.6-11.8 100.1c-5.7 39.4-4.2 72.3-4.2 72.3l24.8 4.4 16.1-170.9-24.9-5.9z"/><path d="M645.9 192.5s-19.8-11.9-58.5 18.8C548.7 242 553 301.9 553 301.9h35.8l-.7 127.8h141l7.3-146.8 9.5 21.9 40.9-2.9s1.5-50.4-22.6-78.2C740 196 705 192.5 705 192.5l-16.1 2s-31.4 32.2-47.5 27 4.5-29 4.5-29z" style="fill:#fcffff"/><path class="st5" d="M613.2 748.8s-19.7 15.3-29.2 15.3-14.8 2.2-11.8 11.7 66.6 5.1 66.6 5.1l-3.7-32.1h-21.9zM682.1 747.5s-18.9 33.5-6.6 35.7c12.4 2.3 42 0 42 0s1.6-7.6-5.8-17.4-9.1-18.4-9.1-18.4h-20.5z"/><path d="M613.2 133.9s-9.8-48.2 20.9-53.3c0 0 15.9-16.1 35.7 2.9s43.2 4.7 43.2 4.7 10.4 45.3 2.6 48.1c-7.8 2.8 16.3-34.5 12.3-48.4 0 0 34.7-29.9 25.9-52.6 0 0-37.3-23.4-55.5-13.1C680.1 32.4 691.1 9 691.1 9s-48.9-5.1-58.4 19.7-18.9 20.5-22.6 10.3-24.3 49.2 3.1 94.9z" style="fill:#1b0601"/><path d="m318 515.7 3.6 123h-53.9l2-108.5V529s-1-16.2-5.3-20.5c-4.2-4.2-4.9-19.6-2.9-27.6 2.3-9.2 17.1-19.5 17.1-19.5l35.8.5 5.3 12.5 2.1 4.9c.6 1.3 1.2 2.5 1.6 3.8 5.9 17.1-5.4 32.6-5.4 32.6z" style="fill:#fffefc"/><path style="opacity:.52;fill:#fffefc" d="M318.2 637.7H270v-85.5h47z"/><path class="st9" d="M317.4 636.5h-45.5v-80.9h44.5z"/><path d="M296.7 607.9h-.9c-4.2 0-7.7-3.4-7.7-7.7v-24.5c0-4.2 3.4-7.7 7.7-7.7h.9c4.2 0 7.7 3.4 7.7 7.7v24.5c-.1 4.3-3.5 7.7-7.7 7.7z" style="fill:#b2523b"/><path class="st9" d="M323.4 483.1c-22.9 2.3-50.8 12.3-53.7 47v-1.2s-1-16.2-5.3-20.5c0 0 22.7-40.3 51.9-34.7l3.3.6 2.1 4.9c.7 1.4 1.2 2.7 1.7 3.9z"/><path class="st11" d="M279.7 616.5h28.2M279.7 623.5h28.2M279.7 630.3h28.2"/><path class="st12" d="M274.8 451.1h41.6v13.7h-41.6zM289.1 427.4h14.3v10h-14.3zM279.9 443.3h30.2v7.8h-30.2z"/><path class="st12" d="M285.3 436.3h20.5v7.8h-20.5z"/><ellipse class="st2" cx="193.1" cy="765.1" rx="67.4" ry="12.6"/><ellipse class="st2" cx="832.1" cy="624.9" rx="41.6" ry="5.4"/><path class="st12" d="m719.6 643-11.7 112.5-27.8-2.9s-12.4-66.5-10.3-98.6c2.1-32.1 3.7-62.1 3.7-62.1l-16.1-73s-.6 3.9-1.6 10.6c-1.7 10.3-4.6 27.3-8.6 46.4-6.6 31.4 0 70.1 0 70.1l-9.5 106.6h-32.9L599 632.8l-7.3-70.1s-11-289.2-2.9-321.4c8-32.1 35.1-50 35.1-50l14.9-.3c-26.6 5-36.8 67.2-36.8 67.2l62.4.7c-5.5-53.3 33.7-66.5 33.7-66.5l19.3 1.8c-40.1 24.7-35.1 67.7-35.1 67.7l13.9 2.9s-13.9 55.5-12.4 79.6c1.5 24.1 43.1 67.2 43.1 67.2s-.5 143.9.9 162.2c1.5 18.1-8.2 69.2-8.2 69.2z"/><path d="M647.3 575.8c-6.6 31.4 0 70.1 0 70.1l-9.5 106.6h-8.4c.9-15.7 2.8-43.9 5.8-56.2 4.1-17.5 0-102 2.9-130.5s17.8-74.5 17.8-74.5 0 15.7.1 38.1c-1.8 10.4-4.7 27.3-8.7 46.4z" style="opacity:.15"/><path d="m471.1 686.4-.6-.3c-2.6-1.3-3.6-4.4-2.3-6.9l197-398.4c1.3-2.6 4.4-3.6 6.9-2.3l.6.3c2.6 1.3 3.6 4.4 2.3 6.9L478 684c-1.3 2.6-4.3 3.6-6.9 2.4z" style="fill:#f0f7ff"/><path class="st15" d="m408.7 680.4-31 32.3 130.2 64.2 6.5-44.8z"/><path d="m406.2 682 108.6 53.6s6.8-6.6-5.8-17c-12.7-10.5-24.8-10.4-28-23.4v-10.7l-13.7-5.7s-6.9 10.2-13.5 9.2c-6.7-1-28.6-11.4-28.6-11.4s-16.3-6.1-19 5.4z" style="fill:#ca4759"/><path class="st3" d="m750.6 304.5 1.9 64.6-61.4-31.4-10.2 24.1 71.6 43.1s35.1 30.7 30.7-16.8l-3.5-85.7-29.1 2.1z"/><path class="st15" d="M702.7 327.7 682.2 368l-34.7-25.3s-23.7 7.1-29.5-13c-4.4-15.3 10.9-29.2 18.6-35.1 2.8-2.1 6.4-2.9 9.9-2.2 5.9 1.3 14.4 4.8 15.7 14.2 1.4 10.8 4 2.9 5.2-1.9.3-1.2 1.8-1.4 2.4-.4 2.1 3.4 5 9.4 2.1 13l30.8 10.4zM542.1 448l39.4 3.8-9.3 27.2s.3 10.7 5.5 12.7 1.3 16.6-5.2 12c-6.5-4.5-6.3 5.2-3.5 12s.6 10.7-11.4 14.9c-12 4.2-29.4-1.9-28.1-14.6s11.8-19.4 8.4-33.1c-.7-2.6-2.3-28.6 4.2-34.9z"/><path class="st12" d="M325.1 585.3h91.2v79.2h-91.2z"/><path style="fill:#0a0a0a" d="M389 585.3h27.3v79.2H389z"/><g><path class="st18" d="m155.4 553.9 18 102.5a10 10 0 0 0 4.7 6.8c11.1 6.5 44.8 21.8 90.6 2 2.5-1.1 4.3-3.4 4.7-6.1l15.7-105.4-133.7.2z"/><path d="M155.4 557.1s-14.1 51.4 65.5 62.4c0 0 74 .1 70.1-66" style="fill:none;stroke:#fff;stroke-width:4;stroke-linecap:round;stroke-miterlimit:10"/><ellipse class="st18" cx="222.6" cy="553.2" rx="71.3" ry="19.5"/><ellipse class="st2" cx="220.9" cy="553.9" rx="57.7" ry="14.1"/></g><ellipse transform="rotate(-60 722.629 124.22)" class="st3" cx="722.6" cy="124.2" rx="13.9" ry="10.2"/><ellipse transform="rotate(-30 610.048 124.235)" class="st3" cx="610.1" cy="124.2" rx="10.2" ry="13.9"/><path style="opacity:.5;fill:#8a22e1" d="m414.7 124.2 33.6-7.2 7.8-34.2 7.3 34.2 36.5 5.7-39.4 10.3-3.2 29.2-7.5-30.2z"/><path class="st21" d="m503.7 117.9 16.6-3.6 3.9-16.9 3.6 16.9 18 2.8-19.4 5.1-1.6 14.4-3.7-14.9z"/><path class="st1" d="m474.8 159.8 11.9-2.6 2.8-12.1 2.6 12.1 12.9 2-14 3.7-1.1 10.3-2.7-10.7z"/><path class="st21" d="m480.5 70.7 11.9-2.6 2.8-12.1 2.5 12.1 12.9 2-13.9 3.7-1.1 10.3-2.7-10.7zM524.8 82.4l30.6-6.6 7.1-31.2 6.7 31.2 33.3 5.2-36 9.4-2.9 26.6-6.8-27.5z"/></svg>