<svg version="1.1" id="Layer_1" xmlns="http://www.w3.org/2000/svg" x="0" y="0" viewBox="0 0 1000 678.7" style="enable-background:new 0 0 1000 678.7" xml:space="preserve"><style>.st1{fill:#fa0}.st2{fill:#fff}.st3{fill:#8a22e1}.st7{fill:#808285}.st9{fill:#e6e7e8}.st10{fill:#ffa47b}.st11{fill:#3f4857}.st12{fill:#3e4f63}.st13{fill:#561693}.st14{fill:#fed231}.st15{fill:#464f5e}.st16{fill:#3a4a57}.st18{fill:#456eb6}.st19{fill:#ff4e55}.st20{fill:#d14946}.st21{fill:#ff9c80}.st23{fill:#ffa283}.st25{fill:#374351}</style><path d="M152.8 590.3c-51.6-19.9-100.6-62.1-63.1-152 0 0 47.1-39.1 24.1-91.7-13.7-31.4-5-68.1 21.4-89.9 7.8-6.5 17.2-13.3 28.4-20.5 20.1-12.9 32.5-34.9 33-58.8.4-20.8 28.2-62 61.7-75.3 65.3-25.9 97.5-29.3 171.3 2.1s143.4-8.4 186.7-8.4 106.3 46.1 141.3 75.4c35 29.3 123-40.1 169.1 1s88.8 83.7 26.2 158.6-64.9 104.7-30.4 156.3c32.2 48.2 53.6 106.4-25.3 137.3-10.2 4-21.3 5.2-32.1 3.7-23.2-3.3-71.6-5.3-107.4 27-48.8 44-81.1 18.9-131-17.3-49.8-36.1-194.1-65.7-251.7-57.1-32 4.8-70.3 12.6-98.1 18.5-41.5 9.1-84.7 6.3-124.1-8.9z" style="fill:#e5d1f7"/><path class="st1" d="M594.2 338.4S482.1 99.3 787 0c0 0 65.3 287-192.8 338.4z"/><path class="st2" d="M597.8 323.1c14.1-26.7 28.5-53.3 43.1-79.8 7.3-13.2 14.7-26.4 22-39.6l22.2-39.5 22.5-39.4c7.6-13.1 15.1-26.2 22.7-39.2 15.2-26.1 30.6-52.1 46.3-77.9-14.1 26.7-28.5 53.3-43.1 79.8-7.3 13.3-14.7 26.4-22 39.6l-22.3 39.5-22.5 39.4c-7.6 13.1-15.1 26.2-22.7 39.2-15.1 26-30.5 52-46.2 77.9z"/><path class="st2" d="M702.1 257.7c-7.9 1.2-15.8 2.5-23.5 4.1-7.7 1.6-15.4 3.3-22.9 5.6-7.5 2.3-14.8 5-21.7 8.7-6.8 3.7-13.1 8.4-18 14.8 3.2-7.4 9.2-13.6 16.1-18 3.4-2.3 7.1-4.2 10.8-5.9 3.7-1.6 7.6-3 11.4-4.2 3.9-1.1 7.8-2.1 11.8-2.9 4-.8 7.9-1.4 12-1.8 7.9-.9 15.9-1.2 24-.4zM607.8 158.5c3.1 1.9 5.8 4.4 8.4 7 1.3 1.3 2.5 2.7 3.7 4 1.2 1.4 2.3 2.8 3.5 4.3 1.1 1.5 2.2 2.9 3.2 4.4 1 1.5 2 3.1 3 4.6 1 1.5 1.8 3.2 2.8 4.7.9 1.6 1.8 3.2 2.6 4.8l2.4 4.9 2.1 5c.7 1.7 1.4 3.4 2 5.1.6 1.7 1.2 3.4 1.8 5.2 1.1 3.5 2 7 3 10.5.8 3.6 1.5 7.1 2.1 10.7-1.6-3.3-2.9-6.6-4.3-10l-2.2-4.9c-.7-1.6-1.3-3.3-2.1-4.9-1.6-3.2-2.8-6.6-4.4-9.8l-2.3-4.8-2.4-4.8c-.7-1.6-1.6-3.2-2.4-4.7-.8-1.6-1.7-3.2-2.6-4.7-.9-1.5-1.7-3.1-2.6-4.6-.9-1.5-1.8-3-2.8-4.6-1.9-3-3.8-6-6-8.9-1.9-3-4.1-5.8-6.5-8.5zM757.7 147c-7.5 1.5-15 3.1-22.3 5-7.3 1.9-14.6 4-21.6 6.7-3.5 1.3-7 2.7-10.3 4.4-3.4 1.6-6.6 3.4-9.8 5.3-6.3 4-12 8.9-16.7 15 3-7.1 8.3-13.3 14.6-18 6.2-4.8 13.3-8.3 20.6-11.1 3.7-1.3 7.4-2.5 11.1-3.5 3.8-.9 7.5-1.8 11.4-2.3 7.6-1.3 15.3-2 23-1.5zM672.9 77.4c4.9 4.3 9.2 9.2 13.1 14.3 3.9 5.2 7.4 10.7 10.2 16.6 2.9 5.9 5.1 12.2 5.9 18.8.4 3.3.4 6.7-.2 10-.6 3.3-1.9 6.5-3.9 9 2.3-6.1 1.8-12.4.5-18.4-.7-3-1.7-6-2.8-8.8-1.1-2.9-2.4-5.8-3.8-8.6-1.3-2.8-2.8-5.6-4.3-8.4-1.5-2.8-3.1-5.5-4.7-8.3-3.3-5.3-6.6-10.7-10-16.2zM777.2 66c-3.8-1.4-7.4-2.4-11.1-2.9-3.6-.5-7.2-.4-10.6.5-1.7.4-3.3 1.1-4.9 1.9-1.6.8-3.1 1.8-4.5 2.9-2.9 2.2-5.6 5-8.4 7.9 1.1-3.9 3.1-7.5 5.9-10.6 2.8-3.1 6.5-5.6 10.8-6.7 4.2-1.1 8.7-.8 12.6.5 3.9 1.3 7.5 3.4 10.2 6.5zM743.2 16.3c3.4.4 6.5 1.8 9.3 3.9 2.7 2.1 5 5.1 6.2 8.6.1.4.3.9.4 1.3l.2 1.3c.1.9.3 1.8.2 2.7 0 .9-.1 1.8-.1 2.7-.2.9-.4 1.7-.6 2.6-.1.4-.2.8-.4 1.3l-.5 1.2c-.4.8-.7 1.5-1.1 2.3-.9 1.4-2 2.8-3.1 4 .2-1.7.6-3.3.9-4.8.1-.8.2-1.6.3-2.3l.2-1.1v-1.1c0-.7.1-1.5.1-2.2l-.2-2.1c0-.7-.2-1.4-.3-2.1l-.2-1c-.1-.3-.2-.7-.3-1-.9-2.6-2.3-5.1-4.2-7.4-2-2.4-4.2-4.6-6.8-6.8z"/><g><path class="st3" d="M246.2 231.2s-27.9-116.6-99.1-125.7c-6.3-.8-11.4 4.9-9.9 11.1 3.6 14.6 6.7 37.1-11.4 29.4l-30.5-33.5s-56.4-35.3-39.7 12.9l2.1 7.8s53.5 47.7 30.9 50.3-14.2 13.1-14.2 13.1 37.7 51.5 112.1 52.2c74.5.8 59.7-17.6 59.7-17.6z"/><path class="st2" d="M235.6 236.5c-7.8-4.3-15.5-8.7-23.2-13.2-7.8-4.1-15.6-8.4-23.3-12.8-15.4-8.7-30.7-17.8-45.5-27.4-14.9-9.6-29.4-19.8-43.1-31-6.8-5.6-13.5-11.4-19.8-17.6-6.5-6-12.6-12.4-17.9-19.6 4.5 7.7 10.2 14.6 16.3 21.2 6.3 6.3 13 12.2 19.9 17.8 13.8 11.2 28.4 21.4 43.3 31.1 14.9 9.7 30.2 18.8 45.7 27.5 7.7 4.4 15.5 8.6 23.4 12.8 4 1.9 8 3.8 12.1 5.7 4 1.9 8 3.8 12.1 5.5z"/><path class="st2" d="M193.4 163.4c3.5 4.6 6.7 9.4 9.4 14.5 3 4.9 5.4 10.1 6.9 15.5s1.7 11.2-.1 16.4c-.9 2.6-2.3 5-4.1 7.1-.4.6-.9 1-1.4 1.5l-.7.8-.8.7-1.6 1.4c-.5.5-1.1.9-1.7 1.3-4.5 3.4-9.7 5.8-15.2 7.3-2.7.7-5.5 1.2-8.4 1.4-2.8.2-5.7.3-8.5.1-5.7-.3-11.3-1.3-16.8-2.9-5.6-1.2-11.1-2.9-16.5-5.1 2.5 1.5 5.1 2.8 7.7 4 2.7 1.2 5.4 2.3 8.1 3.3 5.6 1.6 11.4 2.6 17.3 3 2.9.2 5.9.1 8.8-.1 2.9-.3 5.9-.8 8.7-1.5 5.7-1.5 11.2-4 16-7.6.6-.5 1.2-.9 1.8-1.4l1.7-1.5.8-.7.8-.8c.5-.6 1.1-1.1 1.5-1.7 2-2.3 3.5-5 4.5-7.9 2-5.8 1.7-12.1.2-17.8-1.5-5.7-4.1-11.1-7.1-16.1-3.3-4.7-7.1-9.2-11.3-13.2z"/><path class="st2" d="M155.6 145.9c2.6 4.4 5 8.9 7 13.6 2.3 4.5 4.2 9.2 5.5 14 1.2 4.8 1.6 9.9.3 14.6-.7 2.3-1.8 4.4-3.4 6.3-1.6 1.8-3.6 3.2-5.7 4.5-2.1 1.2-4.4 2.2-6.8 2.9-2.4.7-4.8 1.2-7.3 1.5-2.5.3-5 .5-7.5.5s-5-.1-7.6-.3c-5-.4-10-1.2-15-2.3-5-.7-10-1.8-15-3 4.7 2.1 9.6 3.8 14.5 5.3 5 1.1 10.1 1.9 15.3 2.4 2.6.2 5.2.3 7.8.3 2.6 0 5.2-.2 7.8-.5 2.6-.3 5.2-.8 7.7-1.6s5-1.7 7.3-3.1c2.3-1.3 4.5-2.9 6.3-5 1.8-2.1 3.1-4.5 3.9-7.1 1.5-5.2 1-10.7-.2-15.8-1.3-5.1-3.3-9.9-5.6-14.5-2.9-4.6-5.9-8.8-9.3-12.7zM82.9 152.2c.2 2 1.2 4 2.5 5.6 1.3 1.6 3 3 4.8 4.1 3.8 1.9 7.9 2.7 12 3.1l3.1.2c1 .1 2 0 3.1 0 1 0 2 0 3-.1l3-.2c2-.2 4.1-.2 6.2-1.2 1-.5 2.1-1.3 2.7-2.5.6-1.2.6-2.6.3-3.7-.5-2.3-1.7-4.1-2.8-5.8-1.2-1.7-2.5-3.3-3.9-4.8-2.7-3-5.7-5.8-8.7-8.5-3-2.7-6.1-5.2-9.3-7.7-3.4-2.2-6.8-4.4-10.3-6.3 3 2.7 6 5.4 8.9 8.1 3.1 2.5 6.2 5 9.2 7.6 3 2.6 5.9 5.4 8.5 8.3 1.3 1.5 2.6 3 3.7 4.5 1.1 1.6 2.1 3.3 2.5 4.9.2.8.1 1.6-.1 2.2-.3.6-.9 1.1-1.6 1.4-1.6.7-3.5.9-5.5 1l-3 .2c-1 .1-2 0-3 .1-1 0-2 .1-2.9 0l-2.9-.2c-3.9-.4-7.7-1.2-11.2-2.9-1.8-.7-3.5-1.6-4.9-2.9-.4-.3-.7-.6-1-1-.3-.4-.7-.7-.9-1.1-.7-.6-1.2-1.5-1.5-2.4z"/></g><g><path d="M182.2 301.4S56.9 359.8 5.3 200.1c0 0 150.3-33.9 176.9 101.3z" style="fill:#96dac8"/><path class="st2" d="M176.8 298.8c-14-7.4-27.9-15-41.7-22.7-6.9-3.8-13.8-7.7-20.7-11.6l-20.6-11.7L73.2 241c-6.8-4-13.7-7.9-20.5-11.9-13.7-8-27.2-16.1-40.7-24.3 14 7.4 27.9 15 41.7 22.7 6.9 3.8 13.8 7.7 20.7 11.6L95 250.7l20.6 11.8c6.8 4 13.7 7.9 20.5 11.9 13.6 8 27.2 16.2 40.7 24.4z"/><path class="st2" d="M142.7 244.1c.6 4.2 1.3 8.2 2.1 12.3.8 4.1 1.7 8.1 2.9 12 1.2 3.9 2.6 7.8 4.5 11.3 1.9 3.6 4.4 6.9 7.7 9.4-3.9-1.7-7.1-4.8-9.4-8.4-1.2-1.8-2.2-3.7-3.1-5.6-.8-2-1.6-4-2.2-6-.6-2-1.1-4.1-1.5-6.2-.4-2.1-.7-4.2-.9-6.3-.3-4-.5-8.3-.1-12.5zM90.7 293.4c1-1.6 2.3-3.1 3.7-4.4.7-.7 1.4-1.3 2.1-2 .7-.6 1.5-1.2 2.2-1.8.8-.6 1.5-1.1 2.3-1.7.8-.5 1.6-1 2.4-1.6.8-.5 1.7-1 2.5-1.4.8-.5 1.7-.9 2.5-1.4l2.6-1.3 2.6-1.1c.9-.4 1.8-.7 2.7-1l2.7-.9c1.8-.6 3.7-1.1 5.5-1.6 1.9-.4 3.7-.8 5.6-1.1-1.7.8-3.5 1.5-5.2 2.2l-2.6 1.1c-.9.4-1.7.7-2.6 1.1-1.7.8-3.4 1.5-5.1 2.3l-2.5 1.2-2.5 1.2c-.8.4-1.7.8-2.5 1.3-.8.4-1.7.9-2.5 1.3-.8.5-1.6.9-2.4 1.4-.8.5-1.6 1-2.4 1.4-1.6 1-3.1 2-4.7 3.1-1.5 1.3-3 2.4-4.4 3.7zM84.8 214.9c.8 4 1.6 7.8 2.6 11.7 1 3.8 2.1 7.6 3.5 11.3.7 1.8 1.4 3.7 2.3 5.4.8 1.8 1.8 3.5 2.8 5.1 2.1 3.3 4.6 6.3 7.8 8.8-3.7-1.6-7-4.4-9.4-7.6-2.5-3.3-4.3-7-5.8-10.8-.7-1.9-1.3-3.9-1.8-5.8-.5-2-.9-4-1.2-6-.7-4-1-8.1-.8-12.1zM48.3 259.2c2.2-2.6 4.8-4.8 7.5-6.8s5.6-3.8 8.7-5.3c3.1-1.5 6.4-2.6 9.9-3.1 1.7-.2 3.5-.2 5.2.1 1.7.3 3.4 1 4.7 2.1-3.2-1.2-6.5-1-9.6-.3-1.6.4-3.1.9-4.6 1.5-1.5.6-3 1.2-4.5 2-1.5.7-2.9 1.5-4.4 2.3-1.5.8-2.9 1.6-4.3 2.5-2.8 1.5-5.7 3.2-8.6 5zM42.5 204.6c-.7 2-1.3 3.9-1.5 5.8-.3 1.9-.2 3.8.2 5.5.2.9.6 1.7 1 2.6.4.8.9 1.6 1.5 2.4 1.2 1.5 2.6 2.9 4.1 4.4-2-.6-3.9-1.6-5.6-3.1-1.6-1.5-2.9-3.4-3.5-5.6-.6-2.2-.4-4.6.3-6.6.7-2.1 1.9-4 3.5-5.4zM16.4 222.3c.2-1.8 1-3.4 2.1-4.9 1.1-1.4 2.7-2.6 4.5-3.2.2-.1.4-.2.7-.2l.7-.1c.5-.1.9-.2 1.4-.1.5 0 .9 0 1.4.1.5.1.9.2 1.3.3.2.1.4.1.7.2l.6.3 1.2.6c.7.5 1.4 1 2.1 1.6-.9-.1-1.7-.3-2.5-.5-.4 0-.8-.1-1.2-.2l-.6-.1h-.6c-.4 0-.8 0-1.2-.1l-1.1.1c-.4 0-.7.1-1.1.2l-.5.1c-.2 0-.3.1-.5.2-1.4.4-2.7 1.2-3.9 2.2-1.2 1-2.3 2.2-3.5 3.5z"/></g><g><path d="M683.6 272.7s27.8-115.8 98.4-125.6c6.6-.9 12 5.1 10.4 11.5-3.6 14.6-6.3 36.4 11.5 28.8l30.5-33.5s56.4-35.3 39.7 12.9l-2.1 7.8s-53.5 47.7-30.9 50.3 14.2 13.1 14.2 13.1-37.7 51.5-112.1 52.2c-74.4.9-59.6-17.5-59.6-17.5z" style="fill:#51998a"/><path class="st2" d="M694.2 278c7.8-4.3 15.5-8.7 23.2-13.2 7.8-4.1 15.6-8.4 23.3-12.8 15.4-8.7 30.7-17.8 45.5-27.4 14.9-9.6 29.4-19.8 43.1-31 6.8-5.6 13.5-11.4 19.8-17.6 6.5-6 12.6-12.4 17.9-19.6-4.5 7.7-10.2 14.6-16.3 21.2-6.3 6.3-13 12.2-19.9 17.8-13.8 11.2-28.4 21.4-43.3 31.1-14.9 9.7-30.2 18.8-45.7 27.5-7.7 4.4-15.5 8.6-23.4 12.8-4 1.9-8 3.8-12.1 5.7-3.9 1.9-8 3.7-12.1 5.5z"/><path class="st2" d="M736.5 204.9c-3.5 4.6-6.7 9.4-9.4 14.5-3 4.9-5.4 10.1-6.9 15.5s-1.7 11.2.1 16.4c.9 2.6 2.3 5 4.1 7.1.4.6.9 1 1.4 1.5l.7.8.8.7 1.6 1.4c.5.5 1.1.9 1.7 1.3 4.5 3.4 9.7 5.8 15.2 7.3 2.7.7 5.5 1.2 8.4 1.4 2.8.2 5.7.3 8.5.1 5.7-.3 11.3-1.3 16.8-2.9 5.6-1.2 11.1-2.9 16.5-5.1-2.5 1.5-5.1 2.8-7.7 4-2.7 1.2-5.4 2.3-8.1 3.3-5.6 1.6-11.4 2.6-17.3 3-2.9.2-5.9.1-8.8-.1-2.9-.3-5.9-.8-8.7-1.5-5.7-1.5-11.2-4-16-7.6-.6-.5-1.2-.9-1.8-1.4l-1.7-1.5-.8-.7-.8-.8c-.5-.6-1.1-1.1-1.5-1.7-2-2.3-3.5-5-4.5-7.9-2-5.8-1.7-12.1-.2-17.8 1.5-5.7 4.1-11.1 7.1-16.1 3.3-4.7 7-9.2 11.3-13.2z"/><path class="st2" d="M774.2 187.4c-2.6 4.4-5 8.9-7 13.6-2.3 4.5-4.2 9.2-5.5 14-1.2 4.8-1.6 9.9-.3 14.6.7 2.3 1.8 4.4 3.4 6.3 1.6 1.8 3.6 3.2 5.7 4.5 2.1 1.2 4.4 2.2 6.8 2.9 2.4.7 4.8 1.2 7.3 1.5 2.5.3 5 .5 7.5.5s5-.1 7.6-.3c5-.4 10-1.2 15-2.3 5-.7 10-1.8 15-3-4.7 2.1-9.6 3.8-14.5 5.3-5 1.1-10.1 1.9-15.3 2.4-2.6.2-5.2.3-7.8.3-2.6 0-5.2-.2-7.8-.5-2.6-.3-5.2-.8-7.7-1.6s-5-1.7-7.3-3.1c-2.3-1.3-4.5-2.9-6.3-5-1.8-2.1-3.1-4.5-3.9-7.1-1.5-5.2-1-10.7.2-15.8 1.3-5.1 3.3-9.9 5.6-14.5 3-4.6 5.9-8.8 9.3-12.7zM846.9 193.6c-.2 2-1.2 4-2.5 5.6-1.3 1.6-3 3-4.8 4.1-3.8 1.9-7.9 2.7-12 3.1l-3.1.2c-1 .1-2 0-3.1 0-1 0-2 0-3-.1l-3-.2c-2-.2-4.1-.2-6.2-1.2-1-.5-2.1-1.3-2.7-2.5-.6-1.2-.6-2.6-.3-3.7.5-2.3 1.7-4.1 2.8-5.8 1.2-1.7 2.5-3.3 3.9-4.8 2.7-3 5.7-5.8 8.7-8.5 3-2.7 6.1-5.2 9.3-7.7 3.4-2.2 6.8-4.4 10.3-6.3-3 2.7-6 5.4-8.9 8.1-3.1 2.5-6.2 5-9.2 7.6-3 2.6-5.9 5.4-8.5 8.3-1.3 1.5-2.6 3-3.7 4.5-1.1 1.6-2.1 3.3-2.5 4.9-.2.8-.1 1.6.1 2.2.3.6.9 1.1 1.6 1.4 1.6.7 3.5.9 5.5 1l3 .2c1 .1 2 0 3 .1 1 0 2 .1 2.9 0l2.9-.2c3.9-.4 7.7-1.2 11.2-2.9 1.8-.7 3.5-1.6 4.9-2.9.4-.3.7-.6 1-1 .3-.4.7-.7.9-1.1.7-.5 1.2-1.4 1.5-2.4z"/></g><g><path d="M705 646.6H435.1c-10 0-18.1-8.1-18.1-18.1V136.8c0-10 8.1-18.1 18.1-18.1H705c10 0 18.1 8.1 18.1 18.1v491.8c0 9.9-8.1 18-18.1 18z" style="fill:#414a59"/><path class="st2" d="M697.9 612.5H442.3c-4.9 0-8.9-4-8.9-8.9V158.9c0-4.9 4-8.9 8.9-8.9h255.6c4.9 0 8.9 4 8.9 8.9v444.7c-.1 4.9-4 8.9-8.9 8.9z"/><path class="st7" d="M591.9 138.2h-59.7c-1.9 0-3.4-1.5-3.4-3.4s1.5-3.4 3.4-3.4h59.7c1.9 0 3.4 1.5 3.4 3.4s-1.5 3.4-3.4 3.4zM593.6 635.3h-53.7c-1.7 0-3.1-2.4-3.1-5.4 0-3 1.4-5.4 3.1-5.4h53.7c1.7 0 3.1 2.4 3.1 5.4-.1 3-1.4 5.4-3.1 5.4z"/><circle cx="607.5" cy="135.3" r="4.5" style="fill:#58595b"/><path class="st9" d="M584.1 187H692v36.7H584.1zM584.1 246.7H692v99.5H584.1zM456.3 381.3h45v33h-45zM456.3 432.1h45v78.6h-45zM456.3 535.9h49.2v54.2h-49.2zM525.1 540.6h159.5v49.5H525.1z"/></g><g><path class="st10" d="M786.6 609.2v5.6l-9.1 15.1s6.3 2.8 9.1-5.4l6.3-4.7v-12l-6.3 1.4zM826.6 610.6v5.6s-7.9 9.6-7.5 12.6 2.3 3.5 7.5-3.1 8.6-6.5 8.6-6.5v-9l-8.6.4z"/><path class="st11" d="M780.1 627.9s-6.5 1.8-6.3 2.5c.2.7-1.6 4.2 4.9 3.8 6.5-.3 8.7-2.1 8.7-2.1l1.4-7 1.9 7 3 .2v-6.5s5.8-2.6 0-9.3c0 0-5.2 2.1-7.5 5.9s-1.7 5.3-6.1 5.5zM820.5 627.5s-3.8.7-5.8 3.3c-1.9 2.6 1.7 3.3 1.7 3.3l10.6-.7s2.3-9.1 2.8-8.1c.5.9 2.8 8.8 2.8 8.8s2.6 1.1 2.4 0c-.2-1.1 0-8.8 0-8.8s4.7-3.1 1.6-8c0 0-5.6.9-10.7 6.5.1.1-1.4 3.5-5.4 3.7z"/><path class="st12" d="m780 511.8 5 100.7h10.6l5.3-91.3zM814.1 523.3l12.5 87.3 8.5-.5v-76z"/><path class="st3" d="M890.2 378.8H523.3v139h250.9l77.5 40.9v-40.9h38.5z"/><g><path class="st13" d="M697.1 449.3H556c-1.8 0-3.3-1.2-3.3-2.7 0-1.5 1.5-2.7 3.3-2.7h141.1c1.8 0 3.3 1.2 3.3 2.7 0 1.5-1.5 2.7-3.3 2.7zM695.7 482.2H554.6c-1.8 0-3.3-1.2-3.3-2.7 0-1.5 1.5-2.7 3.3-2.7h141.1c1.8 0 3.3 1.2 3.3 2.7 0 1.5-1.5 2.7-3.3 2.7zM670.7 465.7H555.4c-1.5 0-2.7-1.2-2.7-2.7 0-1.5 1.2-2.7 2.7-2.7h115.3c1.5 0 2.7 1.2 2.7 2.7 0 1.5-1.2 2.7-2.7 2.7zM670.7 500.5H555.4c-1.5 0-2.7-1.2-2.7-2.7s1.2-2.7 2.7-2.7h115.3c1.5 0 2.7 1.2 2.7 2.7s-1.2 2.7-2.7 2.7z"/><path class="st14" d="m564.8 397.3 4.1 8.4 9.4 1.4-6.8 6.6 1.6 9.2-8.3-4.3-8.4 4.3 1.6-9.2-6.7-6.6 9.3-1.4zM597.8 397.3l4.1 8.4 9.4 1.4-6.8 6.6 1.6 9.2-8.3-4.3-8.4 4.3 1.6-9.2-6.7-6.6 9.3-1.4zM629.7 397.3l4.2 8.4 9.3 1.4-6.7 6.6 1.6 9.2-8.4-4.3-8.3 4.3 1.6-9.2-6.8-6.6 9.4-1.4zM660 397.3l4.1 8.4 9.4 1.4-6.8 6.6 1.6 9.2-8.3-4.3-8.4 4.3 1.6-9.2-6.7-6.6 9.3-1.4z"/><path class="st14" d="m686.9 397.3 4.1 8.4 9.4 1.4-6.8 6.6 1.6 9.2-8.3-4.3-8.4 4.3 1.6-9.2-6.7-6.6 9.3-1.4z"/></g><path class="st2" d="M864.3 446.3c0 20.6-11.7 38.5-28.8 47.4-7.2 3.7-15.3 5.9-23.9 6h-.7c-2.4 0-4.7-.2-7-.5-8.4-1.1-16.3-4.2-23-8.7-14.1-9.6-23.4-25.8-23.4-44.1 0-15.8 6.9-30 17.8-39.7l2.1-1.8c1.6-1.3 3.2-2.4 4.9-3.5 5.8-3.7 12.4-6.3 19.4-7.5 2.9-.5 5.8-.8 8.9-.8h.4c4.7 0 9.3.6 13.7 1.8 9.7 2.6 18.3 7.8 25 14.9 9 9.4 14.6 22.3 14.6 36.5z"/><g><ellipse class="st10" cx="797.4" cy="338" rx="13.1" ry="18.4"/><path class="st10" d="M795.7 354.3s3.5 9.4-2.8 18.2c-6.3 8.7 0 13.6 0 13.6h13.3l7.1-13.3-7.8-24.4-9.8 5.9z"/><path class="st12" d="M835.5 493.7c-7.2 3.7-15.3 5.9-23.9 6-.8-3.2-1.7-7.4-2.6-12-2.1-10.5-3.8-5.5-3.8-5.5l-1.2 17c-8.4-1.1-16.3-4.2-23-8.7l-1.8-40.9-.1-3.5-.2-4.4v-.4l22.9 3.5 13 2 16.6 2.5 1 10.7 3.1 33.7z"/><path class="st2" d="M793.6 367.2s-5.9 14 3.8 11.6 10.9-15.4 10.9-15.4l6.6 86s-36.3 2.5-37.4-5.4c-1-7.9-1.4-20.5 0-24s-.9-22.7-.9-22.7-1.8-21.6 3.7-26.4c5.5-4.7 13.3-3.7 13.3-3.7z"/><path class="st10" d="M839.5 463.9v4.8s-4.4 4.1-2.4 7.2c1.9 3.1 10.5 1.9 10.5 1.9V472l-1.7-3.2.5-4.8h-6.9zM735.1 384.7 732 380s1.7-3.5 0-6.8 0-7.9 0-7.9-3.3.9-3.3 4.4c0 3.5-2.6 5.4-4.7 3.1-2.1-2.3-6.3 5.9-3.3 9.9 3 3.9 6.7 1.3 6.7 1.3l1.8 5.4 5.9-4.7z"/><path class="st1" d="M794.3 363.4s-15.4 3.1-18.2 11.5c-2.8 8.4-4.9 11.2-4.9 11.2l-15.4 14-21.3-17.4-7.3 6.7 21.3 24.3s5.2 4.5 10.5 0c5.2-4.5 16.4-14.3 16.4-14.3s0 25.8-2.8 36c-2.8 10.1-1.7 23 5.9 27.7l.7-16.7s-2.4-13.5 2.8-26.7c5.2-13.3-3.5-26.6-3.5-26.6s-1-13.7 5.7-21.2l11.4-4.5-1.3-4zM801.7 374.9v74.4s-5.1 15.1 11.6 16.4l23.3-7.1s2.1-13.6-3.5-24.4-16.3-15.7-14.1-26.2c2.2-10.5 5.6-13.3 5.6-13.3l16.5 25.6-2.9 45.4h8.9l5.9-39.9s.7-8.1-3.3-16.3c-4-8.2-16.9-28.3-16.9-28.3l-13.6-9.9c-.1.1-17.5-2.4-17.5 3.6z"/><path class="st15" d="M790.4 313.4s-5.9 5.6 2.4 14c0 0-3.8 12.8 4.5 18.9 8.2 6.1 9.5 8.7 9.5 20.6s-.7 25.1 14.7 22c15.4-3.1 22-12.9 11.5-22s-3.1-15.5-3.1-15.5 2.1-5.5-7-10.7c0 0 3.8-11.5-1.7-16.4-5.6-4.9-15.8-16.1-30.8-10.9z"/><path class="st15" d="m790.4 324.5-5.6 7.8s-5.5-10 4.2-16.9c9.8-6.9 1.4 9.1 1.4 9.1z"/></g></g><g><path class="st16" d="M274.3 351.8s2 26.6-6.2 33.9l-8.4-15.4-1.4-13.8 16.3-6.4-.3 1.7z"/><path d="m230.9 359 19.3 69.6s5.7 9.5 2.5 27.5l-4.9 62h15l11.9-62s4.9-18 0-29.2l-10.8-68.3-33 .4z" style="fill:#3c64a0"/><path class="st18" d="m203.1 360.2 36-1.6-10.5 107.7-3.5 53.5-14.3-1.4-2.1-77.2z"/><path class="st16" d="M247.8 518v14.1h33.3s2.9-7.4-5-8.9c-7.9-1.6-12.8-1.6-12.8-1.6l-2.9-3.7h-12.6zM211.5 518v14.1h33.3s2.9-7.4-5-8.9c-7.9-1.6-12.8-1.6-12.8-1.6l-3-3.6h-12.5z"/><path class="st19" d="M562.1 187H149.3v163.1h47.1l-2 47.7 85.5-47.7h282.2z"/><path class="st2" d="M309.6 266.6c0 15.3-5.3 29.3-14.2 40.4-3.3 4.1-7.2 7.8-11.4 11-1.7 1.3-3.6 2.6-5.4 3.7-2.2 1.3-4.5 2.6-6.9 3.6-1.4.6-2.8 1.2-4.3 1.7-6.9 2.5-14.3 3.9-22 3.9-3 0-6-.2-9-.6-5-.7-9.8-2-14.4-3.7-5.6-2.2-10.9-5.2-15.6-8.8-2.8-2.1-5.4-4.5-7.8-7-3.8-4-7-8.4-9.7-13.2-5.1-9.2-8-19.8-8-31 0-35.5 28.8-64.4 64.4-64.4s64.3 28.9 64.3 64.4z"/><g><path class="st20" d="M525.2 269.5H373.6c-1.9 0-3.5-1.3-3.5-2.9 0-1.6 1.6-2.9 3.5-2.9h151.6c1.9 0 3.5 1.3 3.5 2.9 0 1.6-1.5 2.9-3.5 2.9zM523.7 304.8H372.1c-1.9 0-3.5-1.3-3.5-2.9 0-1.6 1.6-2.9 3.5-2.9h151.6c1.9 0 3.5 1.3 3.5 2.9 0 1.6-1.6 2.9-3.5 2.9zM496.9 287.1H373c-1.6 0-2.9-1.3-2.9-2.9 0-1.6 1.3-2.9 2.9-2.9h123.9c1.6 0 2.9 1.3 2.9 2.9-.1 1.6-1.4 2.9-2.9 2.9zM496.9 324.5H373c-1.6 0-2.9-1.3-2.9-2.9s1.3-2.9 2.9-2.9h123.9c1.6 0 2.9 1.3 2.9 2.9s-1.4 2.9-2.9 2.9z"/><path class="st14" d="m383 213.6 4.5 9 10 1.5-7.2 7.1 1.7 10-9-4.8-8.9 4.8 1.7-10-7.3-7.1 10-1.5zM418.5 213.6l4.4 9 10.1 1.5-7.3 7.1 1.7 10-8.9-4.8-9 4.8 1.7-10-7.2-7.1 10-1.5zM452.8 213.6l4.5 9 10 1.5-7.2 7.1 1.7 10-9-4.8-8.9 4.8 1.7-10-7.3-7.1 10.1-1.5zM485.3 213.6l4.5 9 10 1.5-7.3 7.1 1.8 10-9-4.8-9 4.8 1.7-10-7.2-7.1 10-1.5z"/><path class="st14" d="m514.2 213.6 4.5 9 10 1.5-7.2 7.1 1.7 10-9-4.8-9 4.8 1.8-10-7.3-7.1 10-1.5z"/></g><g><ellipse class="st21" cx="246.4" cy="243.5" rx="13.3" ry="16.1"/><path class="st16" d="M240.1 233.1s18.9 1.4 21.3 0c2.4-1.4 4.9-8-8.7-11.9-13.6-3.8-22.7 2.4-22.7 2.4s-11.2 5.2-7.3 14.3c0 0 8.4 20.3 10.5 19.6s3.3-2 1.9-5.7-1.9-8.8.9-8.4c-.1.1-.4-10.6 4.1-10.3z"/><path class="st21" d="m237.3 252.7-4.2 16.8s-6.3 12.1 2.1 14.7c8.4 2.7 23.7 6.8 24.4 0 .7-6.8-7-14.7-7-14.7h-2.4l-.3-15.4-12.6-1.4z"/><path class="st2" d="M271.6 325.4c-1.4.6-2.8 1.2-4.3 1.7-6.9 2.5-14.3 3.9-22 3.9-3 0-6-.2-9-.6-5-.7-9.8-2-14.4-3.7l4.6-51.3s4.3 3 9.2 4.9c3.3 1.3 6.9 2.1 9.6 1.1 6.7-2.5 9.3-11 9.3-11s8.5-1.3 14.1 11.5c2.7 5.9 3.1 24.9 2.9 43.5z"/><path class="st21" d="M328.7 294.5s-2-5.2 2.7-10.2v-10.5s5.5-1.5 5 7.6c0 0 5-3.8 6.8 2.9s1.4 10.2 1.4 10.2l-6.1 3.1s-4.1-.5-5.3 1.4c-1.2 2-4.9-1.2-4.9-1.2l-1.9-1.8 2.3-1.5zM189.7 358.6v8.2s-1.3 6.9 4.2 10.6c5.5 3.7 10.5 1.4 10.5 1.4l-1.3-7.9s3.6-3.5-2.4-7.1l-3.7-7.3-7.3 2.1z"/><path class="st16" d="m237 287.1-.7 43.2c-5-.7-9.8-2-14.4-3.7-5.6-2.2-10.9-5.2-15.6-8.8l-.4-14.6-7.4 7.5-7.6 7.8 9.1 39.9-12.6 3.7s-5.2-24.1-10.8-37.8c-5.6-13.7 2.8-17.3 2.8-17.3l9.5-9.5 23.7-23.7c8.7-9.4 20.6-7.4 20.6-7.4l2.5 13.7 1.3 7z"/><path d="m334.6 300.5-35.1 32.1L284 318l-2.3-2.2s-3.5-5.6-3.1 2.8v3.1c-2.2 1.3-4.5 2.6-6.9 3.6-1.4.6-2.8 1.2-4.3 1.7 0-21.4-.1-40.9-.3-42.9-.2-3.1-7.5-9.8-12.4-13.9-2.5-2.2-4.4-3.7-4.4-3.7s10.2 1.1 22.1 11.2l23.1 29.2 4.8 6.1 26.2-20.9 8.1 8.4z" style="fill:#364653"/></g></g><g><ellipse transform="rotate(-76.114 376.702 358.583)" class="st23" cx="376.7" cy="358.6" rx="16.6" ry="12.3"/><path d="M390.8 352.8s5-13.1-6.8-16c0 0-12-7.3-22.5 2.9 0 0-7.6 5-3.7 18.9 0 0-6.8 0-6.5 6.2 0 0-7.6 4-1.6 10.4s14.7 2.2 14.7 2.2v-8.6s1.8-3.4 5.2-3.4 4.4-6.8 4.4-6.8 3.1-3.9 9.7-2.1c0 0 4.7.7 7.1-3.7z" style="fill:#513935"/><path class="st23" d="M375.3 373.2s-5 4.5 0 10.7c5 6.3 6.5 10.5 6.5 11.3s-4.4 9.4-4.4 9.4l-11.9-2.4-5.2-9.7 1.3-10s2.8-5 4.3-15.8l9.4 6.5z"/><path class="st19" d="m391.1 456.1-1.2 59.3v106.9h-13.6l-5.1-56.9-8.2-81.9v-25z"/><path class="st19" d="M373 459.7s-9.1 38.1-13.3 48.5-10 31.8-10 31.8.9 11.3-13.3 21.6-39.5 43-39.5 43l-10.7-8.4 14.8-20.8 24.1-32.5 3.5-30.2 8.7-46.3 35.7-6.7z"/><path class="st2" d="M359.7 388.7s2.8 8 13.8 8.3c0 0 8.4-.2 5.1-10l6.1-1.3s10.1 5.9 9.6 16.4c-.5 10.5-3.7 30-3.7 30s5.8 17.1 5.8 23.6-3.8 6.5-3.8 6.5l-32.1 3 1.6-42.9-2.4-33.6z"/><path class="st23" d="M378.9 620.5s-.4 9.2 2.7 10.4c3.1 1.2 9.7 3.4 11.3 7.1h4.5s-3.7-7.7-9.4-11v-7.5l-9.1 1z"/><path class="st25" d="M378.5 628s-2.1 5.1 1.3 7.2c0 0 2.4.9 2.8 5.2l.3 4.4h2.8v-7.5s1.7-1.2 3 .7c1.2 1.9 1.4 5.2 1.4 5.2l10.5.3s2.4-3.9-3.1-5.6c-5.6-1.7-6.9-3.2-6.9-3.2s-6.5-7.5-12.1-6.7z"/><path class="st23" d="m290 597.3-4.7 8.6 2.4 14.7s3.1.5 5.5-5.2c2.4-5.8 3-14.5 3-14.5l-6.2-3.6z"/><path class="st25" d="m288.3 604.6-.1-4s-6.6 2.1-6.7 4.9c-.2 2.8-5.4 10-5.4 10l2.1 1.9 5.4-5.6s2.4 3.8 0 5.6c0 0 .2 7 7.2 11.3 0 0 5.2-3.1 1.3-11.2 0 0-.6 1.4-4.1-1.2l.3-11.7z"/><path class="st23" d="M325.7 476.8v7.5s.2 4.5-2.1 5.2-3.8 3.1-1 5.1c2.8 1.9 8.7 5.4 11.2 1s-.9-8.4-.9-8.4l-.3-10.5h-6.9zM429.7 414.3l5.6-4s6-7.8 9.8-5.7c3.8 2.1 3.1 1.7 1.3 5.8-1.7 4.2-13.1 9.1-13.1 9.1l-3.6-5.2z"/><path d="M431.3 412.6c-.6 0-1.2-.3-1.5-.8-.5-.8-.2-1.9.6-2.3l19.2-11.3c.8-.5 1.9-.2 2.3.6.5.8.2 1.9-.6 2.3l-19.2 11.3c-.2.1-.5.2-.8.2z"/><path class="st18" d="M362.2 378.8s5.4 8.8 5.9 18.3v45.6s4.7 23.6 0 30.2-6.8 8.6-12.4 6.6-20.8-6.8-20.8-6.8-1.6-13.3 3.1-20.3 11.9-18 11.9-18 6-11.2 2.5-15c0 0-.9-7.5-5.1-5.1-4.2 2.4-7 10.5-7 10.5l-8.2 10.5 1.2 43.6-9.3.3-4.5-37.9s-3.3-7.3 3.7-17.3 15.2-23.7 15.2-23.7 4.6-13.3 14.8-17.7c10.3-4.4 9-3.8 9-3.8zM374.9 381.3s9.9-.7 16.9 9l16.8 29.7s.9 5.8 7.5 3.3l13.6-11.5 5.6 7.5-19.6 17.5s-3.8 7.3-10.7 0-10-12.7-10-12.7l1.6 16s9.2 34.8-4.9 35.8c0 0-5.9-13.6.7-18.2 0 0-.9-11.9-2.6-15.4-1.7-3.5-4.6-16.2-.9-22.5 3.7-6.3 2.8-18.7 2.8-18.7s-1.2-11.7-11.3-13.6c.1 0-2.9 1-5.5-6.2z"/></g></svg>