<svg version="1.1" id="Layer_1" xmlns="http://www.w3.org/2000/svg" x="0" y="0" viewBox="0 0 817.2 852.5" style="enable-background:new 0 0 817.2 852.5" xml:space="preserve"><style>.st1{opacity:.78;fill:#8922e1}.st3{fill:none;stroke:#d1d3d4;stroke-width:3;stroke-linecap:round;stroke-miterlimit:10}.st5{fill:#db424d}.st6{fill:#ff4d53}.st7{fill:#333}.st8{fill:#1b233a}.st9{fill:#fff}.st10{opacity:.35}.st11,.st12{fill:#cfb5f6}.st12{opacity:.43}.st13{fill:#fda57d}.st14{fill:#4570ad}.st15{fill:#6e3b2a}.st16{fill:#fdb696}.st18{fill:#8922e1}.st19{fill:#bd7c5e}.st21{fill:#fbd739}.st22{fill:#f9bca5}.st24{opacity:.22;fill:#8922e1}.st26{fill:#bcbec0}.st27{fill:#f6b688}.st28{fill:#ed1721}.st32{fill:#231f20;stroke:#161616;stroke-miterlimit:10}.st33{fill:#feac02}.st35{fill:#e5bbaa}.st36{fill:#0d1226}</style><path d="M677 836H148.7c-68.8 0-124.5-55.7-124.5-124.5V128.2C24.2 59.4 79.9 3.7 148.7 3.7H677c68.8 0 124.5 55.7 124.5 124.5v583.3c0 68.8-55.7 124.5-124.5 124.5z" style="opacity:.79;fill:#cfb5f6"/><path class="st1" d="M664.1 822.3H161.5C92.8 822.3 37 766.5 37 697.7V141.9C37 73.2 92.8 17.4 161.5 17.4h502.6c68.8 0 124.5 55.7 124.5 124.5v555.8c0 68.8-55.7 124.6-124.5 124.6z"/><path d="M650 807.1H175.7c-68.8 0-124.5-55.7-124.5-124.5V157.1c0-68.8 55.7-124.5 124.5-124.5H650c68.8 0 124.5 55.7 124.5 124.5v525.6c0 68.7-55.7 124.4-124.5 124.4z" style="fill:#f8f3ff"/><path class="st3" d="M236.4 403.3s-.7.6-1.8 1.7"/><path d="M231.3 408.6c-11.5 13.3-34 49.9 25.7 84.8" style="fill:none;stroke:#d1d3d4;stroke-width:3;stroke-linecap:round;stroke-miterlimit:10;stroke-dasharray:4.8752,4.8752"/><path class="st3" d="M259.1 494.6c.7.4 1.4.8 2.2 1.2M250.4 517.5s-2 36.9 102.9 27.7 79.5 25.2 0 55.5 203.2 19.8 203.2 19.8"/><path class="st5" d="m754.4 482.8-17 79c18.8 64.2 0 58.8 0 58.8 15.1 24.9-7.8 22.8-7.8 22.8h-79v-22.8l5.6-52.4s-2.8-42.2 0-71.4c2.8-29.2 11.9-45.1 56-43.7 44 1.3 42.2 29.7 42.2 29.7z"/><path class="st6" d="m747.4 490.3-15 69.9c16.6 56.8 0 52 0 52 13.4 22-6.9 20.2-6.9 20.2h-69.9v-20.2l4.9-46.3s-2.4-37.3 0-63.2c2.4-25.8 10.6-39.9 49.5-38.7 39 1.2 37.4 26.3 37.4 26.3z"/><path class="st5" d="M728.7 573.7s-40.4-12.5-38.1 19.9l-.1 27h-12.9v-36.8s-2.2-21.1 24.9-22c27.1-.9 34.9 0 34.9 0v11.9h-8.7zM729.6 643.4h-79v-22.8h86.8c15.1 24.8-7.8 22.8-7.8 22.8z"/><path class="st7" d="M687.2 643.4h10.2v110.3h-10.2z"/><path class="st7" d="M647.1 771.8s7-22.9 50.2-28.4c0 0 32.3 4.6 33.2 14.2.9 9.6-8.3 14.2-8.3 14.2h-75.1z"/><path class="st8" d="M691.5 385.7H139.4c-7.3 0-13.3-6-13.3-13.3V115.6c0-7.3 6-13.3 13.3-13.3h552.2c7.3 0 13.3 6 13.3 13.3v256.8c-.1 7.3-6 13.3-13.4 13.3z"/><path class="st9" d="M684.1 380H146.9c-7.3 0-13.3-6-13.3-13.3V121.8c0-7.3 6-13.3 13.3-13.3h537.2c7.3 0 13.3 6 13.3 13.3v244.9c0 7.3-6 13.3-13.3 13.3z"/><g class="st10"><path class="st11" d="M238.4 289.4h-76.6c-4.7 0-8.5-3.8-8.5-8.5V152c0-4.7 3.8-8.5 8.5-8.5h76.6c4.7 0 8.5 3.8 8.5 8.5v128.9c0 4.7-3.8 8.5-8.5 8.5z"/><path class="st12" d="M239.8 332h-79.3c-3.9 0-7.1-3.2-7.1-7.1v-16.1c0-3.9 3.2-7.1 7.1-7.1h79.3c3.9 0 7.1 3.2 7.1 7.1v16.1c0 3.9-3.2 7.1-7.1 7.1z"/></g><g class="st10"><path class="st11" d="M344.8 289.4h-76.6c-4.7 0-8.5-3.8-8.5-8.5V152c0-4.7 3.8-8.5 8.5-8.5h76.6c4.7 0 8.5 3.8 8.5 8.5v128.9c0 4.7-3.8 8.5-8.5 8.5z"/><path class="st12" d="M346.2 332h-79.3c-3.9 0-7.1-3.2-7.1-7.1v-16.1c0-3.9 3.2-7.1 7.1-7.1h79.3c3.9 0 7.1 3.2 7.1 7.1v16.1c0 3.9-3.2 7.1-7.1 7.1z"/></g><g class="st10"><path class="st11" d="M451.1 287.3h-76.6c-4.7 0-8.5-3.8-8.5-8.5V150c0-4.7 3.8-8.5 8.5-8.5h76.6c4.7 0 8.5 3.8 8.5 8.5v128.9c0 4.6-3.8 8.4-8.5 8.4z"/><path class="st12" d="M452.5 330h-79.3c-3.9 0-7.1-3.2-7.1-7.1v-16.1c0-3.9 3.2-7.1 7.1-7.1h79.3c3.9 0 7.1 3.2 7.1 7.1v16.1c0 3.9-3.2 7.1-7.1 7.1z"/></g><g class="st10"><path class="st11" d="M557.5 285.3h-76.6c-4.7 0-8.5-3.8-8.5-8.5V147.9c0-4.7 3.8-8.5 8.5-8.5h76.6c4.7 0 8.5 3.8 8.5 8.5v128.9c-.1 4.7-3.8 8.5-8.5 8.5z"/><path class="st12" d="M558.8 327.9h-79.3c-3.9 0-7.1-3.2-7.1-7.1v-16.1c0-3.9 3.2-7.1 7.1-7.1h79.3c3.9 0 7.1 3.2 7.1 7.1v16.1c0 3.9-3.1 7.1-7.1 7.1z"/></g><g class="st10"><path class="st11" d="M663.8 283.2h-76.6c-4.7 0-8.5-3.8-8.5-8.5V145.8c0-4.7 3.8-8.5 8.5-8.5h76.6c4.7 0 8.5 3.8 8.5 8.5v128.9c0 4.7-3.8 8.5-8.5 8.5z"/><path class="st12" d="M665.2 325.9h-79.3c-3.9 0-7.1-3.2-7.1-7.1v-16.1c0-3.9 3.2-7.1 7.1-7.1h79.3c3.9 0 7.1 3.2 7.1 7.1v16.1c0 3.9-3.2 7.1-7.1 7.1z"/></g><ellipse class="st9" cx="412.2" cy="196.9" rx="38.5" ry="38.2"/><path class="st13" d="M411.6 228.4c-3.4 0-6.2-2.8-6.2-6.2v-4.9c0-3.4 2.8-6.2 6.2-6.2 3.4 0 6.2 2.8 6.2 6.2v4.9c0 3.4-2.7 6.2-6.2 6.2z"/><path class="st14" d="M389.4 227.9s1.2-10.4 15.7-6.9c0 0 5.2 10.4 12.8 0 0 0 14-3.1 15.5 6.9 0 0-17.7 17.7-44 0z"/><ellipse class="st13" cx="411.4" cy="198" rx="16.9" ry="16.8"/><path class="st15" d="m394.4 198.8 3.2-9.9s1.7-3.7 6.3 0 13.3 3.4 13.3 3.4 8.8-4.7 10 0c1.1 4.7 2.6 7.1 2.6 7.1s1.4-11-5-16.5c0 0 .3-5.8-5.2-5.9 0 0 1.4-4.4.3-5.6 0 0-1.4 2.6-6.6 2.6l.3-3.7-3.5 4s-7.1 1.7-11.4 6.7c-4.8 5.3-7.7 15.7-4.3 17.8zM395.5 199.6s6 5.8 8.7 8c1 .8 1.9 1.8 3.2 2.1 2.9.7 7.6 1.4 10.2-.7 3.9-3.1 9-8.3 9-8.3l1.3 1.7s-2.2 8.3-7.9 11.1c0 0-7.8 5.6-18.3.2l-.9-.6c-1.7-1.6-8.3-8-5.3-13.5z"/><path class="st15" d="M403.4 208.4s8.6-4.7 15.1 0"/><ellipse transform="rotate(-73.878 428.093 199.386)" class="st13" cx="428.1" cy="199.4" rx="3.2" ry="2.3"/><ellipse transform="rotate(-16.122 395.272 199.387)" class="st13" cx="395.3" cy="199.4" rx="2.3" ry="3.2"/><ellipse class="st9" cx="624.9" cy="197.1" rx="38.5" ry="38.4"/><ellipse class="st16" cx="625" cy="198.5" rx="17.6" ry="17.5"/><path class="st7" d="M607.5 199.4s2.4-16 8.6-12 11.6 5.2 18.2 3.5c6.6-1.7 6.1-1.7 7 .8.8 2.5 1.4 9.1 1.4 9.1s2.5-3 0-12.5c0 0-2-5.4-5.1-7.3 0 0-.1-3.4-4.9-5.2 0 0 2.7-2.3 1-5 0 0-3.4 4-7.2 2.2l.9-3.1s-4.8 4.1-8.7 5.9-6.8 5.9-6.8 5.9-8 8-4.4 17.7z"/><ellipse transform="rotate(-8.801 608.347 199.36)" class="st16" cx="608.3" cy="199.4" rx="2.5" ry="3.3"/><ellipse transform="rotate(-76.662 641.67 198.484)" class="st16" cx="641.7" cy="198.5" rx="3.3" ry="2.5"/><path class="st16" d="M625.7 228.4h-1.1c-3.1 0-5.7-2.5-5.7-5.7v-6.1c0-3.1 2.5-5.7 5.7-5.7h1.1c3.1 0 5.7 2.5 5.7 5.7v6.1c0 3.1-2.5 5.7-5.7 5.7z"/><path d="M602.9 227.8s1.2-10.4 15.7-7c0 0 5.2 10.4 12.8 0 0 0 14-3.1 15.5 7 0 0-17.6 17.8-44 0z" style="fill:#fda819"/><ellipse class="st9" cx="518.4" cy="197" rx="38.5" ry="38.3"/><ellipse class="st16" cx="518.4" cy="198.6" rx="17.6" ry="17.5"/><path class="st16" d="M518.5 228.4h-.4c-3 0-5.5-2.4-5.5-5.5v-6.4c0-3 2.4-5.5 5.5-5.5h.4c3 0 5.5 2.4 5.5 5.5v6.4c0 3-2.4 5.5-5.5 5.5z"/><path class="st18" d="M496.3 227.8s1.2-10.4 15.7-6.9c0 0 5.2 10.4 12.8 0 0 0 14-3.1 15.5 6.9 0 0-17.6 17.8-44 0z"/><path class="st15" d="M500.8 198.6s3.5-16.1 8.8-11.3c5.3 4.8 12.9 5.5 19.8 3.9 6.8-1.7 5.6.4 6.6 4.9.9 4.5-.5 6.8-.5 6.8s4.9-5.5.8-14c0 0-1.7-7.8-11-11.1-11.8-4.1-20.3 4.9-20.3 4.9s-6.5 7.1-4.2 15.9z"/><path class="st15" d="M513.4 179.9s-3.6-5.1 1.3-8.4c0 0-1.3-6.6 5.9-6.3 0 0 5.1.1 3.4 5.9 0 0 4.5 2.6 1.2 8.1l-11.8.7z"/><ellipse transform="rotate(-76.538 535.064 199.476)" class="st16" cx="535" cy="199.5" rx="3.3" ry="2.5"/><ellipse transform="rotate(-8.885 501.735 199.488)" class="st16" cx="501.7" cy="199.4" rx="2.5" ry="3.3"/><circle class="st9" cx="199.9" cy="197.2" r="38.5"/><path class="st19" d="M199.2 227.8c-3.5 0-6.4-2.9-6.4-6.4v-4.6c0-3.5 2.9-6.4 6.4-6.4 3.5 0 6.4 2.9 6.4 6.4v4.6c0 3.5-2.9 6.4-6.4 6.4z"/><path d="M177.1 227.8s1.2-10.5 15.7-7c0 0 5.2 10.5 12.8 0 0 0 14-3.1 15.5 7 0 0-17.7 17.8-44 0z" style="fill:#6d63fa"/><ellipse class="st19" cx="199.1" cy="197.2" rx="17.6" ry="19"/><ellipse transform="rotate(-25.133 187.611 198.048)" class="st19" cx="187.6" cy="198.1" rx="3.4" ry="4.5"/><path class="st7" d="M183.1 206.3s3.1 5 6.6-17.1c0 0 17.6.8 21.9-3.7 4.3-4.5 3.9-8.9-2.3-12.4 0 0-2.5 1.9-7.2-1.4s-14.5 1.6-14.5 1.6-12.1-1.2-9.8 3.1c0 0-.4 4.3-3.9 5.8-3.5 1.6 0 6.5 0 6.5s-1.5 8.9 9.2 17.6z"/><path class="st7" d="M208.7 184.6s7.8 6.4 7.4 14.3c0 0 3.1-6.8-3.7-17.4l-3.7 3.1z"/><g><circle class="st8" cx="177.7" cy="251.6" r="3.5"/><circle class="st8" cx="188.8" cy="251.6" r="3.5"/><circle class="st8" cx="199.9" cy="251.6" r="3.5"/><circle class="st8" cx="211" cy="251.6" r="3.5"/><circle class="st8" cx="222.1" cy="251.6" r="3.5"/></g><g><circle class="st8" cx="285" cy="251.6" r="3.5"/><circle class="st8" cx="296.1" cy="251.6" r="3.5"/><circle class="st8" cx="307.1" cy="251.6" r="3.5"/><circle class="st8" cx="318.2" cy="251.6" r="3.5"/><circle class="st8" cx="329.3" cy="251.6" r="3.5"/></g><g><circle class="st8" cx="390" cy="251.6" r="3.5"/><circle class="st8" cx="401.1" cy="251.6" r="3.5"/><circle class="st8" cx="412.2" cy="251.6" r="3.5"/><circle class="st8" cx="423.3" cy="251.6" r="3.5"/><circle class="st8" cx="434.4" cy="251.6" r="3.5"/></g><g><circle class="st8" cx="496.2" cy="251.6" r="3.5"/><circle class="st8" cx="507.3" cy="251.6" r="3.5"/><circle class="st8" cx="518.4" cy="251.6" r="3.5"/><circle class="st8" cx="529.5" cy="251.6" r="3.5"/><circle class="st8" cx="540.6" cy="251.6" r="3.5"/></g><g><circle class="st8" cx="602.7" cy="251.6" r="3.5"/><circle class="st8" cx="613.8" cy="251.6" r="3.5"/><circle class="st8" cx="624.9" cy="251.6" r="3.5"/><circle class="st8" cx="636" cy="251.6" r="3.5"/><circle class="st8" cx="647.1" cy="251.6" r="3.5"/></g><g><ellipse class="st9" cx="307.1" cy="197.1" rx="38.5" ry="38.4"/><path class="st21" d="M289.9 214.3s2.8 14.3 10.7 15.5c7.9 1.2 8.9 4.2 15.9-1.8 1.2-1.1 2.4-2.2 3.5-3.4 6-6.8 9.1-15.6 8.6-24.6-.1-2.1-.4-4-1-5.4-2.1-5-4.6-11.3-16.2-11.6-11.5-.2-19.2 3.1-20.7 7.9-1.5 4.8-5.4-2.2-2.1 18.7l1.3 4.7z"/><ellipse class="st22" cx="307.5" cy="198.5" rx="17.6" ry="17.5"/><path class="st22" d="M307.4 228.4c-3.1 0-5.7-2.5-5.7-5.7v-6c0-3.1 2.5-5.7 5.7-5.7 3.1 0 5.7 2.5 5.7 5.7v6c0 3.1-2.6 5.7-5.7 5.7z"/><path d="M285.4 227.8s1.2-10.4 15.7-7c0 0 5.2 10.4 12.8 0 0 0 14-3.1 15.5 7 0 0-17.7 17.8-44 0z" style="fill:#ee505d"/><path class="st21" d="M289.9 195s.5-6.6 7 0 21.2 5.3 24.7 4.4c3.5-.9 2.5 5.4 2.5 5.4s2-2.1 3.3-5.8c1.1-3.1.9-6.5-.7-9.4-2.3-4.1-7.2-9.6-17.5-11 0 0-16.7-2-21.4 15.4-.5 1.9-.2 3.8.7 5.5.6 1.1 1.2 2.1 1.4 2.1.2 0 0-6.6 0-6.6z"/><ellipse transform="rotate(-76.65 324.101 199.377)" class="st22" cx="324.1" cy="199.4" rx="3.3" ry="2.5"/><ellipse transform="rotate(-8.811 290.782 199.405)" class="st22" cx="290.8" cy="199.4" rx="2.5" ry="3.3"/></g><circle class="st1" cx="490.4" cy="120.9" r="8.3"/><circle class="st24" cx="513.3" cy="120.9" r="8.3"/><circle cx="539.5" cy="120.9" r="8.3" style="opacity:.4;fill:#8922e1"/><circle class="st1" cx="608" cy="120.9" r="8.3"/><circle class="st1" cx="163.3" cy="360" r="8.3"/><circle class="st1" cx="186.2" cy="360" r="8.3"/><circle class="st24" cx="212.4" cy="360" r="8.3"/><circle class="st1" cx="237.9" cy="360" r="8.3"/><g><path class="st26" d="M161.8 266.7h76.1v4h-76.1z"/></g><g><path class="st26" d="M161.8 274h76.1v4h-76.1z"/></g><g><path class="st26" d="M268 265h76.1v4H268z"/></g><g><path class="st26" d="M268 274h76.1v4H268z"/></g><g><path class="st26" d="M374.1 264.2h76.1v4h-76.1z"/></g><g><path class="st26" d="M374.1 273.2h76.1v4h-76.1z"/></g><g><path class="st26" d="M480.4 264.2h76.1v4h-76.1z"/></g><g><path class="st26" d="M480.4 273.2h76.1v4h-76.1z"/></g><g><path class="st26" d="M586.9 264.2H663v4h-76.1z"/></g><g><path class="st26" d="M586.9 273.2H663v4h-76.1z"/></g><path class="st8" d="M143.9 227.8v4l-3.5-2-3.5-2 3.5-2 3.5-2zM687.2 227.8v4l3.4-2 3.5-2-3.5-2-3.4-2z"/><g><ellipse transform="rotate(-16.122 136.52 379.99)" class="st27" cx="136.5" cy="380" rx="16.9" ry="26.1"/><path d="M128 380.9s-4.5-33.5 12.4-17.2c0 0 16.9 14 8.6-4.5-5.9-13.2-25.9-11.3-36.8-9.2-5.7 1.1-10.3 5.1-12.2 10.6-2.4 6.8-4.3 18.4-2.4 37.1l-7.3 55.5s1.8-29.8 18.3-29.8c0 0 10.3-5.9 17.4-22.5.1-.1-3.2-23.3 2-20z"/><path class="st27" d="M143.8 405.1s-19.5 1.7-17.7 23.7v8.8s-2.8 14.3-10.1 0l-7.3-14.3s16.5-19.9 16.8-27.5c.4-7.7 18.3 9.3 18.3 9.3z"/><path class="st9" d="M106 423.6s26.1 52.8 14.8 78.8S99 536.8 99 536.8h41.4s-13-13.8 0-39.2c13-25.5 3.5-38.5 3.5-38.5l-17.8-30.3s-1.7 13.2-5.3 4.1c-3.6-9.1-14.8-9.3-14.8-9.3z"/><path class="st27" d="m188.8 479 22.2-11s4.8-6.2 9.7-10.3v-9.9s3.5 3 3.5 5.3v2.3s12.8-13.5 16.5-9.2c3.7 4.3 2.8 12.5-5.2 18s-14.8 9.2-14.8 9.2h-4.9l-24.9 18.9-2.1-13.3zM163.3 514.1l23.4-1.5s17.7-5.5 25 0c0 0 15.5 3.4 10.9-3.4-4.5-6.8-13.6-13.7-21.4-12.2-7.8 1.5-15.2 4.4-19.5 5.5-4.2 1.1-16.9.7-16.9.7l-1.5 10.9zM153.3 694.5l-10.4 15.3s.6 18.3 5.2 25.7c4.6 7.3 13.5 7.9 13.5 7.9s-6.4-15.3-9.3-22.3c-2.9-7 .2-1.2 0-2.1-.2-.9 9.3-12.8 9.3-12.8l-8.3-11.7zM186.6 708.2l-5.2 10.7s2.8 21.4 14.7 28.7l5.8 2.4s-4.1-14.2-7.6-22.9c-.6-1.5 2.5-13.8 2.5-13.8l-10.2-5.1z"/><path class="st28" d="M142.9 705.5s-8.6 3.1-9.2 9.5c-.6 6.4-2.7 22.3-2.7 22.3l2.7 1.8 4.9-9.9s5.2-2 5.8 3.5.6 13.1 5.5 15.6c3.1 1.6 8.4 2.9 11.8 2.9 1.7 0 3-2.6 2.6-4.2-.6-2.7-1.6-6.3-2.7-7-1.9-1.1-10.7-4.6-18.7-34.5zM183.6 712.8s-8.3 4.9-10.1 10.1-3.4 20.5-3.4 20.5l2.8 1.2s5.5-9.8 6.4-9.8 4 1.8 4.3 7c.3 5.2 1.2 10.4 8.1 13.5 6.9 3.1 10.7 1.8 11.3.6s1.4-4.7-2-8.8c0 0-18-6.5-17.4-34.3z"/><path class="st7" d="M195.1 632.7h-94.4v-12.1h94.4z"/><path class="st7" d="M77.7 753.7c-.2 0-.4 0-.6-.1-1.3-.3-2.2-1.7-1.8-3l31-124.5c.3-1.3 1.7-2.2 3-1.8 1.3.3 2.2 1.7 1.8 3l-31 124.5c-.2 1.1-1.3 1.9-2.4 1.9zM223.5 763.5c-1.1 0-2.1-.7-2.4-1.9l-34.7-134.4c-.3-1.3.5-2.7 1.8-3 1.3-.3 2.7.5 3 1.8l34.7 134.4c.3 1.3-.5 2.7-1.8 3-.2.1-.4.1-.6.1z"/><path class="st7" d="M92.1 697c-.8 0-1.6-.4-2.1-1.2-.7-1.2-.4-2.7.7-3.5l96.8-63.6c1.1-.7 2.6-.4 3.4.8.7 1.2.4 2.7-.7 3.5l-96.8 63.6c-.4.2-.9.4-1.3.4z"/><path class="st7" d="M203.5 691.4c-.4 0-.9-.1-1.2-.3l-97.6-56.2c-1.2-.7-1.6-2.2-.9-3.4.7-1.2 2.2-1.6 3.4-.9l97.6 56.2c1.2.7 1.6 2.2.9 3.4-.5.8-1.3 1.2-2.2 1.2z"/><path d="m126.1 428.8 14.3 17.9 31.2 32.3s11.4 6.9 17.3 0l3.5 12.4-10.8 6.9s-12 9.6-19.8-3.4c0 0-14.5-17.2-18-2.1s-6 26.1-3.4 44c0 0-5.3-2.1-6.8-23.4-1.5-21.3 6.8-30.6 6.8-30.6s10.4-6.5 0-23.7-14.3-30.3-14.3-30.3z" style="fill:#ffac01"/><path d="M101.8 507.2s-42-18.6-42.6 29.5c-.7 48.2 25.5 86 67.1 92.9s68.9 0 68.9 0V603c-.1 0-100.8-18.9-93.4-95.8z" style="fill:#4152a4"/><path style="fill:#272728" d="m233.7 597.2-33 117.7-17.1-6.7 15.6-59.3 13.1-55.3z"/><path class="st32" d="M99 533.3S86.6 540 90.3 559c3.7 19 29 32.7 53.5 36.1 24.5 3.4 51.3 7.9 51.3 7.9s-42.1 67.6-44.9 92.6l11.3 12.5 37.3-50.4 31.2-48.3s14.4-15.9 0-27.5-76.2-41.9-76.2-41.9-11.6-5.8-18.6-6.7-36.2 0-36.2 0z"/><ellipse transform="rotate(-16.122 124.088 381.99)" class="st27" cx="124.1" cy="382" rx="4.1" ry="6.4"/><path class="st33" d="M110.2 418.8s20 15.7 21.4 45.7c1.4 30-9 61.9-36.5 72.2 0 0-.8-50.1-3.5-68.8-2.8-18.6-3.4-34.1 18.6-49.1z"/><path class="st33" d="M94.3 433.2s17.1-20.5 26.1-1.6 6.3 67.5 6.3 67.5l41.2-.9-1.5 19.4h-45.9s-16.4 8.9-21.8-7.6c-5.5-16.4-4.4-76.8-4.4-76.8z"/></g><g><path class="st32" d="M191.7 511.4h407.6v12.3H191.7zM237.9 523.7h12.5v233.5h-12.5zM559.7 523.7h12.5v233.5h-12.5z"/></g><g><path style="fill:#58595b" d="M271 437.6h99.1l-12.4 73.8H225.6l.4-6h33.7z"/><circle class="st26" cx="314.2" cy="472" r="8.2"/></g><g><path class="st6" d="M311.1 403.3h-66.7c-5.9 0-10.7-4.8-10.7-10.7 0-5.9 4.8-10.7 10.7-10.7h66.7c5.9 0 10.7 4.8 10.7 10.7 0 6-4.8 10.7-10.7 10.7z"/><circle class="st9" cx="246.9" cy="392.7" r="8.2"/></g><g><path class="st33" d="M513.3 482.4h-66.7c-5.9 0-10.7-4.8-10.7-10.7 0-5.9 4.8-10.7 10.7-10.7h66.7c5.9 0 10.7 4.8 10.7 10.7 0 5.9-4.8 10.7-10.7 10.7z"/><circle class="st9" cx="449.1" cy="471.8" r="8.2"/></g><g><path class="st18" d="M403.5 465.8s-28-32.6-14-49.8c7.4-9.1 21.5-9.1 28.3.5 5.5 7.8 6.2 22.4-14.3 49.3z"/><circle class="st9" cx="403.4" cy="427.8" r="11.9"/></g><g><path class="st35" d="m673.7 783.3-3.3 9.6 21.1 3.2v-12.8z"/><path class="st36" d="M670.4 791.7s-5.5 8.3-17.4 8.3-15.6 8.7-7.8 10.5c7.8 1.8 50.9 0 50.9-2.3s-4.6-16.5-4.6-16.5h-21.1z"/><path class="st35" d="M591.1 781.4v14.7l17.9 3.4v-16.2z"/><path class="st36" d="M589.4 793s-6.4 7.6-18.3 6.2c-11.8-1.4-16.5 6.9-8.9 9.6 7.5 2.7 50.6 5.8 50.8 3.5.3-2.3-2.7-16.9-2.7-16.9l-20.9-2.4z"/><path d="M665.4 514.5s12.8 80.3 12.8 125.9c0 0 .5 26.3 6.9 39.6s6.4 107.8 6.4 107.8h-19.7s-4.6-63.7-18.3-99.5c-13.8-35.8-22-68.3-22-68.3s-7.8 39-4.6 56.9-7.5 66.5-7.5 66.5l-9 47.1-20.9-2.6-9.3-280.7 85.2 7.3z" style="fill:#31537c"/><ellipse transform="rotate(-73.878 605.692 316.742)" class="st35" cx="605.7" cy="316.8" rx="28.6" ry="18.4"/><ellipse transform="rotate(-73.878 618.977 320.583)" class="st35" cx="619" cy="320.6" rx="8.7" ry="5.6"/><path class="st35" d="m602.9 338.3-.2 30 36.8-16.6-20.5-31.1z"/><path d="M606.3 343.7s10.4 11.3 25.1-4.3l10.9.4-9.8 179.8-48.1 1.7S570 439.8 575 400.8c5.1-39 31.3-57.1 31.3-57.1z" style="fill:#f1f2f2"/><path class="st14" d="M597.8 344.2s-14.5 3.4-35.6 15.8-38.2 24.5-38.2 24.5l-25.3-48.8-16.6 6.9 28.8 77.5s2.6 15.1 22.2 4.1c19.5-11 32.9-14.9 32.9-14.9s19.7 119.5 10 136l10.5-2.3s-12.5-116.7 0-150.3c12.5-33.6 19.3-45.5 19.3-45.5s.9-2.7-8-3zM631.4 339.4s11.4 2.9 0 40.6c-11.4 37.8-5.9 166.6-5.9 166.6s44 5.5 53.2 15.1c0 0-2.5-31.6-15.7-66.5s15.7-79.4 15.7-79.4H725s22-3.6 7.3-22.4-57.8-57.8-57.8-57.8l-14.2 11.9c.1.1-14.3-10.4-28.9-8.1z"/><path class="st14" d="M613.8 353.1s-3.1 4.1-3.5 9.6c-.4 5.5-12.8 16.5-16 61.9s0 49.8 0 49.8l13.1 19.4 2.9-22.1s-6.5-71.9 0-88.8l7-17c.1 0 6.4-10.2-3.5-12.8z"/><path class="st32" d="M595.1 297.6s-3.2-18.8 15.2-17.9c0 0 11.3-.5 22.2 11.5 0 0 11.5 3.2 7 17-4.4 13.8-.4 32.1-8.1 31.2l-7.6-11.5s2-14.7-13.5-13.1c0 0 11.8-17.5 3.5-21.3s-18.7 4.1-18.7 4.1z"/><path class="st35" d="m486.5 340.8-9.1-8.7s-12.3-16.5 2.6-22.5c0 0 3.4-3.6 2.2-14 0 0 3.5-7.1 6.3 0s4.3 14 4.3 14 7.4 12.1 3.6 20.4l2.4 5.7-12.3 5.1zM663.4 346.2l-12.8-6.9s-4-7.4 2.4-7.4l-16.1-6.2s-.1-14.5 13.2-11c13.4 3.4 16.6 13.1 16.6 13.1l7.8 7.8-11.1 10.6z"/></g></svg>