<svg version="1.1" id="Layer_1" xmlns="http://www.w3.org/2000/svg" x="0" y="0" viewBox="0 0 1000 881.6" style="enable-background:new 0 0 1000 881.6" xml:space="preserve"><style>.st4{fill:#feb07f}.st6{fill:#fcb07e}.st7{fill:#2a2a2b}.st8{fill:#f4ad60}.st9{fill:#365c89}.st11{fill:#5e5e5e}.st14{fill:#feb684}.st15{fill:#fff}.st21{fill:#7441c4}</style><ellipse cx="526.8" cy="826.7" rx="465.7" ry="29.4" style="opacity:.43;fill:#cfb5f6"/><path d="M124.7 814.5s-216.4-306.2-.4-447.9c11.1-7.3 23.7-11.6 36.8-12.9 36.8-3.4 127.2-19.3 202.7-92.2 97.5-94.1 294.5-180.9 448-67.5s112 331.9 112 331.9-11.3 117.1 41.5 148.3c66.4 39.2 8.3 141.6 8.3 141.6l-848.9-1.3z" style="opacity:.23;fill:#e6d7ff"/><path d="M114.3 814.5s-216.4-290.4-.4-424.8c11.1-6.9 23.7-11 36.8-12.2 36.8-3.3 127.2-18.3 202.7-87.5C451 200.9 648 118.5 801.5 226s112 314.8 112 314.8-11.3 111 41.5 140.6c66.4 37.2 8.3 134.3 8.3 134.3l-849-1.2z" style="fill:#e2d5f9"/><path d="M103.5 814.6s-216.4-269.1-.4-393.6c11.1-6.4 23.7-10.2 36.8-11.3 36.8-3 127.2-17 202.7-81 97.5-82.7 294.5-159 448-59.4s112 291.7 112 291.7-11.3 102.9 41.5 130.3c66.4 34.5 8.3 124.4 8.3 124.4l-848.9-1.1z" style="fill:#cfb5f6"/><path class="st4" d="m574.2 524.8-30.4 2.8s-19.8 3.3-23 13h53.5v-15.8z"/><path d="M661.3 485s-11.5 22.4-27.7 24.2c-16.1 1.8-64.1 13.8-64.1 13.8l-1.8 17.6h100l-6.4-55.6z" style="fill:#f3f3f3"/><path class="st4" d="M532.7 444.6s-6.5-9.2-13.4-11.5c-6.9-2.3-9.7-5.5-9.7-5.5s-1.8 2.3 1.8 8.5-7.4 2.1-7.4 2.1-12.9-8.8-16.6-2.1c-3.7 6.7 18.9 21 35 21.9 16.1.9 7.8 0 7.8 0l2.5-13.4z"/><path class="st6" d="M402.1 774.2V794s24.2 17.1 45.9 11.1c0 0-18.4-11.1-26.3-30.9h-19.6z"/><path class="st7" d="M402.1 790.8s27.4 17.5 45.9 14.3l-7.1-5.3s21.4 6.2 20.5 15.9c0 0-18 5.5-36.9-2.8 0 0-21.2-6.9-25.8-11.7-4.7-4.9 3.4-10.4 3.4-10.4z"/><path class="st6" d="M369.1 771v25.8s26.7 13.2 48.4 9.6c0 0-24.4-14.2-32.7-35.4h-15.7z"/><path class="st7" d="M366.3 793.1s-6 12.1 0 13.9c6 1.8 39.4 10.6 58.6 10.6 0 0 19.7 0-.6-12.2s-22.4-11.3-22.4-11.3 16 15.5 0 12.3c-15.9-3.2-35.6-13.3-35.6-13.3z"/><path class="st8" d="M114 456.6s-21.9 8.3-2.5 63.1C113 524 133.6 652 133.6 652h181.6L305 624.4 170.5 447.9l-56.5 8.7z"/><ellipse transform="rotate(-9.823 226.664 350.657)" class="st4" cx="226.7" cy="350.7" rx="25.7" ry="39.4"/><path class="st4" d="m208.7 371.4-7.4 44.7s30 12.4 42.9 0l-7.4-14.3.5-24-28.6-6.4z"/><path class="st9" d="M269.6 547c11.5 4.1 57.1 18 80.2 21.7 23 3.7 28.1 16.1 34.1 30 6 13.8 32.3 126.3 32.3 126.3l8.3 49.3-25.3 1.8L325 594.5s-66.4-23.5-84.3-27.2 28.9-20.3 28.9-20.3z"/><path d="M236.4 331.7s-18.1 29-34.9 28.5l6.5 15.1-3.9 23.4s-30-7.6-51.7 22.8l-15.7 52.3s-18.8-6.2-22.5-28.3c-3.7-22.1 34.7-56.2 34.7-56.2s16-12 21.1-33.6c5.1-21.7 13.4-42.4 34.6-47.5s36.4-3.7 50.7 18.4c14.3 22.1 10.5 86.9 10.5 86.9s-9.6-12.2-28.9-11.7l.3-13.7s17.7-9.3 14.8-29.6c-.1-.1-7.2-27.7-15.6-26.8z" style="fill:#1d1e1e"/><path class="st11" d="M137.7 652.1 123 812.9h7.4l23.5-160.8zM257.1 652.1l22.6 160.8h7.8l-17.9-160.8z"/><path style="fill:#7d858e" d="M293.5 470.9h101.4L373 540.6H229v-6.1l42.4-2.1z"/><circle cx="336.5" cy="503.8" r="6.1" style="opacity:.58;fill:#eaf3fa"/><ellipse transform="rotate(-74.669 693.294 327.373)" class="st14" cx="693.3" cy="327.4" rx="37.3" ry="27.5"/><path class="st14" d="m690.4 361.3 2.9 32.6 45.9-16.3s-13.4-17.3-13.4-22.4-26.2-14-35.4 6.1z"/><path class="st15" d="m732.8 363.5 6.5 14.1s22.6 18.6 29.5 33.4c6.7 14.3 15.6 47-1.5 142.5-1.1 6-2.8 11.9-5.1 17.6l-14.5 35.4s-59.2-12.9-84.5-37.3l-4.5-84.1-35.5 13.1s-7.4 6.9-23.5 1.4-77-41.5-77-41.5l8.8-16.1 64.1 14.7s16.6 2.8 27.7-6.9c11.1-9.7 55.8-53.5 55.8-53.5l11.5-17.1c-.2 0 29.3-14.7 42.2-15.7z"/><path class="st9" d="m595.9 786.2-3.7 31.3h-69.6s-12.4-7.1 2.8-11.1c15.2-3.9 33.7-14.3 39.2-20.3h31.3z"/><path d="M614.8 643.3c0 3.7-14.3 147.5-14.3 147.5l-41-3.7 16.6-143.8h38.7z" style="fill:#202021"/><path class="st9" d="M528.6 782s-11.5 22.1-24.4 23.5c-12.9 1.4-30.9 5.5-24.9 11.5s76.5 1.8 76.5 1.8l3.7-34.1-30.9-2.7z"/><path d="M171.8 538.7s-28.1 42.9-22.1 71.9c0 0 .1 13.8 10.6 14.3 10.6.5 130.9 0 130.9 0s51.2 125.8 75.1 149.3h24l-30-146.6s-14.3-64.1-45.2-60.4-2.3.5-2.3.5-32.3-4.1-49.3-11.5-28.1-19.8-28.1-19.8l-63.6 2.3z" style="fill:#4570ad"/><path d="m665.5 567.7-115.4 33.6s-28.1 4.6-25.3 40.1l-4.1 142.4s12 6.9 42.9 6.9c0 0 23.5-112 17.1-138.3l127.2-1.8s56.7 9.4 41-47.6l-83.4-35.3z" style="fill:#353535"/><path class="st8" d="M733.9 652.5H610.4c-3 0-5.4-2.4-5.4-5.4v-16c0-3 2.4-5.4 5.4-5.4h123.4c3 0 5.4 2.4 5.4 5.4v16c0 3-2.4 5.4-5.3 5.4z"/><path class="st11" d="m614.8 649.3-16.2 166.4h6.5l24-166.4zM734.1 649.3l22.2 166.4h8.7l-17.5-169.6zM816.6 649.3l23.1 166.4h7.8l-18.4-166.4z"/><path class="st8" d="m756.7 449.7 72.4 2.8s24.9 3.2 23.5 32.5c-1.4 29.3-14.7 167.5-14.7 167.5h-141L725.4 485s7.4-26.1 31.3-35.3z"/><path class="st11" d="m229 550-38.9 262.9h11.2L244.2 550zM315.2 554.9l-35.5 258h7.8l42.9-258zM609.1 554.9l44.6 258h9.3L621.6 550z"/><path style="fill:#e6e7e8" d="M207.1 540.6h442.7V555H207.1z"/><path d="M667.3 287s-7.8 10.6 10.1 20.7c18 10.1 13.8 19.6 13.8 19.6l6.1.8s7.3-10.7 10.5-.8c3.2 9.9-5.5 13.9 3 24.8s15 9 15 9 23-20.7 19.4-49.3c-3.7-28.6-39.6-31.3-39.6-31.3l-38.3 6.5z" style="fill:#242526"/><ellipse transform="rotate(-78.849 703.578 329.424)" class="st14" cx="703.6" cy="329.4" rx="8.7" ry="6.4"/><g><path class="st21" d="M551.7 305.8h-85.3c-2.8 0-5.1-2.3-5.1-5.1v-79.1c0-2.8 2.3-5.1 5.1-5.1h85.3c2.8 0 5.1 2.3 5.1 5.1v79.1c0 2.8-2.3 5.1-5.1 5.1z"/><path class="st15" d="M548.4 302.6h-78.6c-2.8 0-5.1-2.3-5.1-5.1v-72.8c0-2.8 2.3-5.1 5.1-5.1h78.6c2.8 0 5.1 2.3 5.1 5.1v72.8c0 2.9-2.3 5.1-5.1 5.1z"/><path class="st21" d="M509.1 261.9c-.4 0-.8-.3-.8-.6v-24.9c0-.3.3-.6.8-.6.4 0 .8.3.8.6v24.9c-.1.3-.4.6-.8.6z"/><circle class="st21" cx="509.1" cy="261.1" r="4.7"/><circle class="st15" cx="509.1" cy="261.1" r="2.6"/><path class="st21" d="M528.5 262.7h-14.7c-.8 0-1.5-.7-1.5-1.5s.7-1.5 1.5-1.5h14.7c.8 0 1.5.7 1.5 1.5s-.7 1.5-1.5 1.5z"/><circle class="st21" cx="509.2" cy="226" r="1.7"/><circle class="st21" cx="527.5" cy="231.1" r="1.7"/><circle class="st21" cx="540.8" cy="243.3" r="1.7"/><circle class="st21" cx="545.7" cy="259.6" r="1.7"/><circle cx="509.2" cy="261.9" r="39.9" style="fill:none;stroke:#7441c4;stroke-miterlimit:10"/><ellipse class="st21" cx="489.9" cy="231.1" rx="1.6" ry="1.7"/><ellipse class="st21" cx="477.2" cy="243.3" rx="1.6" ry="1.7"/><ellipse class="st21" cx="472.5" cy="261.1" rx="1.6" ry="1.7"/><circle class="st21" cx="509.2" cy="297.7" r="1.7"/><circle class="st21" cx="527.5" cy="292.5" r="1.7"/><circle class="st21" cx="540.8" cy="279.8" r="1.7"/><ellipse class="st21" cx="489.9" cy="292.5" rx="1.6" ry="1.7"/><ellipse class="st21" cx="477.2" cy="278.3" rx="1.6" ry="1.7"/></g><path d="M201.3 396.5s18.9 17.7 35.5 5.3c0 0 31.8 1.8 39.6 28.6 7.8 26.7 11.1 55.3 11.1 55.3s-8.3 32.3-9.2 30.9c-.9-1.4-9.7-10.6-10.1-15.7-.5-5.1-.5 36.9-.5 36.9l-101.4 7.4s-40.1 3.7-39.6-22.1 24.9-96.3 24.9-96.3 7.4-26.8 49.7-30.3z" style="fill:#ff4d53"/><path d="M180.1 473.2c16.5 5.2 28.7 14.1 31.3 33 1.1 7.6-5 9.7-7.6 10.4l-17.3-1.5c-4.5 1.2-8.9-.1-9.6-2.7l-9-33.4c-1.2-3.9 6.6-7.5 12.2-5.8z" style="opacity:.13;fill:#2a2a2b"/><path class="st8" d="m176.4 513.2-3.8-21c-.1-.9-1.2-1.4-1.9-.7-3.1 2.8-11.3 11.5-11.7 20.7l17.4 1z"/><path class="st4" d="M225.7 526.1s24.4-5.5 36 1.8c11.5 7.4 8.7 11.1 8.7 11.1l-31.7 2.3-12.9-2.8v-12.4z"/><ellipse transform="rotate(-9.823 203.264 361.253)" class="st4" cx="203.3" cy="361.3" rx="5.9" ry="9"/></svg>