<svg version="1.1" id="Layer_1" xmlns="http://www.w3.org/2000/svg" x="0" y="0" viewBox="0 0 1000 650.06" style="enable-background:new 0 0 1000 650.06" xml:space="preserve"><style>.st4{fill:#feb07f}.st6{fill:#fcb07e}.st7{fill:#2a2a2b}.st8{fill:#f4ad60}.st9{fill:#365c89}.st12{fill:#5e5e5e}.st14{fill:#feb684}.st15{fill:#fff}.st21{fill:#7441c4}</style><ellipse cx="516.84" cy="614.16" rx="416.54" ry="26.27" style="opacity:.43;fill:#cfb5f6"/><path d="M168.84 603.22s-193.57-273.92-.35-400.69a72.095 72.095 0 0 1 32.9-11.5c32.95-3.08 113.78-17.26 181.36-82.49 87.2-84.16 263.45-161.82 400.74-60.42s100.18 296.92 100.18 296.92-10.1 104.74 37.11 132.63c59.37 35.08 7.42 126.64 7.42 126.64l-759.36-1.09z" style="opacity:.23;fill:#e6d7ff"/><path d="M147.93 603.28s-193.57-259.76-.35-379.98c9.92-6.17 21.21-9.87 32.9-10.91 32.95-2.92 113.78-16.37 181.36-78.23 87.2-79.81 263.45-153.45 400.74-57.3s100.18 281.57 100.18 281.57-10.1 99.32 37.11 125.77c59.37 33.27 7.42 120.09 7.42 120.09l-759.36-1.01z" style="fill:#e2d5f9"/><path d="M138.2 603.35s-193.57-240.71-.35-352.11c9.92-5.72 21.21-9.15 32.9-10.11 32.95-2.71 113.78-15.17 181.36-72.49 87.2-73.96 263.45-142.2 400.74-53.09s100.18 260.92 100.18 260.92-10.1 92.04 37.11 116.55c59.37 30.83 7.42 111.29 7.42 111.29l-759.36-.96z" style="fill:#cfb5f6"/><path class="st4" d="m559.28 344.15-27.21 2.47s-17.73 2.98-20.61 11.59h47.82v-14.06z"/><path d="M637.2 308.49s-10.31 20-24.74 21.64c-14.43 1.65-57.31 12.37-57.31 12.37l-1.65 15.71h89.47l-5.77-49.72z" style="fill:#f3f3f3"/><path class="st4" d="M522.18 272.42s-5.77-8.25-11.96-10.31c-6.18-2.06-8.66-4.95-8.66-4.95s-1.65 2.06 1.65 7.63-6.6 1.86-6.6 1.86-11.54-7.83-14.84-1.86c-3.3 5.98 16.9 18.76 31.33 19.58 14.43.82 7.01 0 7.01 0l2.07-11.95z"/><path class="st6" d="M405.29 567.2v17.73s21.64 15.25 41.02 9.89c0 0-16.49-9.89-23.5-27.62h-17.52z"/><path class="st7" d="M405.29 582.04s24.53 15.67 41.02 12.78l-6.37-4.72s19.15 5.54 18.33 14.2c0 0-16.08 4.95-32.98-2.47 0 0-18.92-6.17-23.07-10.51-4.14-4.33 3.07-9.28 3.07-9.28z"/><path class="st6" d="M375.82 564.31v23.09s23.91 11.77 43.29 8.56c0 0-21.85-12.69-29.27-31.65h-14.02z"/><path class="st7" d="M373.34 584.1s-5.36 10.81 0 12.41 35.25 9.44 52.46 9.44c0 0 17.63 0-.52-10.93-18.14-10.93-20-10.1-20-10.1s14.33 13.89 0 11.04-31.94-11.86-31.94-11.86z"/><path class="st8" d="M147.6 283.14s-19.57 7.42-2.25 56.48c1.37 3.89 19.79 118.33 19.79 118.33h162.44l-9.07-24.74L198.12 275.3l-50.52 7.84z"/><ellipse transform="rotate(-9.823 247.492 188.375)" class="st4" cx="247.56" cy="188.42" rx="22.99" ry="35.25"/><path class="st4" d="m232.34 206.86-6.6 39.99s26.8 11.13 38.34 0l-6.6-12.78.41-21.44-25.55-5.77z"/><path class="st9" d="M286.8 363.94c10.27 3.71 51.08 16.08 71.7 19.38 20.61 3.3 25.15 14.43 30.51 26.8s28.86 112.97 28.86 112.97l7.42 44.11-22.68 1.65-66.38-162.44s-59.37-21.03-75.45-24.32c-16.07-3.3 26.02-18.15 26.02-18.15z"/><path d="M257.13 171.41s-16.18 25.93-31.2 25.54l5.82 13.52-3.45 20.93s-26.87-6.81-46.25 20.4l-14.07 46.8s-16.86-5.57-20.15-25.36 31-50.3 31-50.3 14.35-10.72 18.89-30.1c4.54-19.38 11.96-37.93 30.92-42.47 18.97-4.54 32.57-3.3 45.35 16.49 12.78 19.79 9.4 77.7 9.4 77.7s-8.57-10.91-25.89-10.5l.24-12.29s15.82-8.32 13.24-26.49c-.01.02-6.38-24.7-13.85-23.87z" style="fill:#223762"/><path style="fill:#7d858e" d="M308.2 295.9h90.7l-19.62 62.32h-128.8v-5.41l37.93-1.9z"/><path class="st12" d="m168.85 457.94-13.19 143.89h6.59l21.03-143.89zM275.63 457.94l20.2 143.89h7.01L286.8 457.94z"/><circle cx="346.66" cy="325.32" r="5.45" style="opacity:.58;fill:#eaf3fa"/><ellipse transform="rotate(-74.669 665.803 167.508)" class="st14" cx="665.78" cy="167.51" rx="33.39" ry="24.58"/><path class="st14" d="m663.18 197.9 2.61 29.17 41.1-14.58s-11.96-15.51-11.96-20.05c-.01-4.54-23.51-12.58-31.75 5.46z"/><path class="st15" d="m701.11 199.86 5.77 12.63s20.2 16.64 26.39 29.84c6 12.79 13.93 42.06-1.38 127.46-.96 5.38-2.52 10.64-4.59 15.7l-12.99 31.65s-52.98-11.54-75.55-33.39l-4.02-75.24-31.75 11.75s-6.6 6.18-21.03 1.24c-14.43-4.95-68.85-37.11-68.85-37.11l7.83-14.43 57.31 13.19s14.84 2.47 24.74-6.18c9.89-8.66 49.89-47.82 49.89-47.82l10.31-15.25c-.01-.03 26.37-13.22 37.92-14.04z"/><path class="st9" d="m578.66 577.92-3.3 28.04h-62.25s-11.13-6.38 2.47-9.89 30.14-12.78 35.07-18.14h28.01z"/><path d="M595.56 450.11c0 3.3-12.78 131.93-12.78 131.93l-36.69-3.3 14.84-128.63h34.63z" style="fill:#202021"/><path class="st9" d="M518.47 574.21s-10.31 19.79-21.85 21.03c-11.54 1.24-27.62 4.95-22.26 10.31s68.44 1.65 68.44 1.65l3.3-30.51-27.63-2.48z"/><path d="M199.36 356.52s-25.15 38.34-19.79 64.32c0 0 .08 12.37 9.52 12.78 9.44.41 117.05 0 117.05 0s45.76 112.55 67.2 133.58h21.44l-26.8-131.11s-12.78-57.31-40.4-54.01c-27.62 3.3-2.06.41-2.06.41s-28.86-3.71-44.11-10.31c-15.25-6.6-25.15-17.73-25.15-17.73l-56.9 2.07z" style="fill:#4570ad"/><path d="m640.95 382.5-103.2 30.1s-25.15 4.12-22.68 35.87l-3.71 127.4s10.72 6.18 38.34 6.18c0 0 21.03-100.18 15.25-123.68l113.79-1.65s50.71 8.4 36.69-42.59l-74.48-31.63z" style="fill:#353535"/><path class="st8" d="M701.53 458.36H592.25c-2.95 0-5.35-2.4-5.35-5.35V439.8c0-2.95 2.4-5.35 5.35-5.35h109.27c2.95 0 5.35 2.4 5.35 5.35v13.21c.01 2.95-2.39 5.35-5.34 5.35z"/><path class="st12" d="M595.56 455.47 581.13 604.3h5.77l21.44-148.83zM702.34 455.47l19.79 148.83h7.84L714.3 452.58zM776.14 455.47l20.62 148.83h7.01l-16.5-148.83z"/><path class="st8" d="m722.55 276.95 64.73 2.47s22.26 2.89 21.03 29.07c-1.24 26.18-13.19 149.86-13.19 149.86H668.95l25.56-149.86s6.6-23.29 28.04-31.54z"/><path class="st12" d="m250.48 366.62-34.79 235.21h10.05l38.35-235.21zM327.58 371.06l-31.75 230.77h7.01l38.37-230.77zM590.51 371.06l39.89 230.77h8.35l-37.11-235.21z"/><path style="fill:#e6e7e8" d="M230.9 358.22h396.03v12.84H230.9z"/><path d="M642.56 131.42s-7.01 9.48 9.07 18.55S664 167.51 664 167.51l5.42.72s6.54-9.56 9.43-.72-4.95 12.47 2.68 22.2c7.63 9.73 13.4 8.08 13.4 8.08s20.61-18.55 17.32-44.11-35.42-28.04-35.42-28.04l-34.27 5.78z" style="fill:#2a458a"/><ellipse transform="rotate(-78.849 675.005 169.35)" class="st14" cx="675.02" cy="169.33" rx="7.76" ry="5.71"/><g><path class="st21" d="M538.63 148.2h-75.22c-2.82 0-5.11-2.29-5.11-5.11V73.45c0-2.82 2.29-5.11 5.11-5.11h75.22c2.82 0 5.11 2.29 5.11 5.11v69.64c0 2.82-2.29 5.11-5.11 5.11z"/><path class="st15" d="M535.62 145.39h-69.2c-2.82 0-5.11-2.29-5.11-5.11V76.26c0-2.82 2.29-5.11 5.11-5.11h69.2c2.82 0 5.11 2.29 5.11 5.11v64.02c0 2.82-2.29 5.11-5.11 5.11z"/><path class="st21" d="M501.02 108.94c-.37 0-.67-.23-.67-.51V86.16c0-.28.3-.51.67-.51s.67.23.67.51v22.28c0 .28-.3.5-.67.5z"/><circle class="st21" cx="501.02" cy="108.27" r="4.23"/><circle class="st15" cx="501.02" cy="108.27" r="2.34"/><path class="st21" d="M518.38 109.62h-13.13a1.35 1.35 0 0 1 0-2.7h13.13a1.35 1.35 0 0 1 0 2.7z"/><circle class="st21" cx="501.14" cy="76.8" r="1.52"/><circle class="st21" cx="517.49" cy="81.36" r="1.52"/><circle class="st21" cx="529.37" cy="92.34" r="1.52"/><circle class="st21" cx="533.76" cy="106.92" r="1.52"/><circle cx="501.14" cy="108.94" r="35.67" style="fill:none;stroke:#7441c4;stroke-miterlimit:10"/><ellipse class="st21" cx="483.86" cy="81.36" rx="1.46" ry="1.52"/><ellipse class="st21" cx="472.48" cy="92.34" rx="1.46" ry="1.52"/><ellipse class="st21" cx="468.28" cy="108.27" rx="1.46" ry="1.52"/><ellipse class="st21" cx="501.14" cy="140.98" rx="1.52" ry="1.56"/><ellipse class="st21" cx="517.49" cy="136.3" rx="1.52" ry="1.56"/><ellipse class="st21" cx="529.37" cy="125" rx="1.52" ry="1.56"/><ellipse class="st21" cx="483.86" cy="136.3" rx="1.46" ry="1.56"/><ellipse class="st21" cx="472.48" cy="123.65" rx="1.46" ry="1.56"/></g><path d="M225.74 229.33s16.9 15.87 31.75 4.74c0 0 28.45 1.65 35.46 25.56 7.01 23.91 9.89 49.47 9.89 49.47s-7.42 28.86-8.25 27.62c-.82-1.24-8.66-9.48-9.07-14.02s-.41 32.98-.41 32.98l-90.7 6.6s-35.87 3.3-35.46-19.79c.41-23.09 22.26-86.17 22.26-86.17s6.65-23.81 44.53-26.99z" style="fill:#ff4d53"/><path d="M206.75 298c14.75 4.67 25.65 12.63 27.98 29.55.94 6.83-4.46 8.66-6.8 9.28l-15.48-1.34c-3.99 1.06-7.99-.06-8.62-2.4l-8.07-29.85c-.98-3.55 5.95-6.84 10.99-5.24z" style="opacity:.13;fill:#2a2a2b"/><path class="st8" d="m203.43 333.78-3.4-18.8c-.07-.82-1.05-1.22-1.67-.66-2.74 2.49-10.09 10.32-10.5 18.52l15.57.94z"/><path class="st4" d="M247.56 345.25s21.85-4.95 32.16 1.65c10.31 6.6 7.78 9.94 7.78 9.94l-28.39 2.06-11.55-2.52v-11.13z"/></svg>