<svg version="1.1" id="Layer_1" xmlns="http://www.w3.org/2000/svg" x="0" y="0" viewBox="0 0 1000 724" style="enable-background:new 0 0 1000 724" xml:space="preserve"><style>.st3{fill:#d1d3d4}.st4{fill:#f1f2f2}.st5{fill:#a7a9ac}.st6{fill:#414042}.st8{fill:#fff}.st12{fill:#6d6e71}.st14{fill:#456fac}.st17{fill:#fcfbf7}.st18{fill:#ff4d53}.st19{opacity:.53;fill:#d1d3d4}.st20{fill:#141414}.st21{fill:#f9cbb2}.st26{fill:#ffdbc5}.st28{fill:#222223}</style><path d="M138.6 624S-32.1 488.1 99 286.2 362-25.6 533.5 25.4s404.9 201.6 406 360.9-38.3 240.5-38.3 240.5L138.6 624z" style="fill:#e6d6fd"/><path d="M159 625.8S-1.9 497.7 121.7 307.3 369.6 13.4 531.2 61.5s381.7 190 382.8 340.2-36.2 226.7-36.2 226.7L159 625.8z" style="fill:#cfb5f6"/><g style="opacity:.53"><path class="st3" d="M195.4 622V270.5l57.8-61.6V622z"/><path class="st4" d="M544.8 414.9h217.9v208.8H544.8z"/><path class="st3" d="M568.5 414.9h181.7v208.8H568.5z"/><path class="st3" d="M812.7 545.2s10.7 5.2 23.1-13.8c0 0-.6-6 19.7-3.5 0 0 10.9-.3 13.7-21.8 0 0 .8-10.9 17-13.8 16.2-2.9 29.8-29.5 14-54.2 0 0-13.4-14.2-27.9-13.3-14.6.9-9.3-2.4-10-9.3-.7-6.9 13.2-40.3-20.7-51.6-34.3-11.4-46.6 26-46.6 26s-2.8 10.8-14.3 0c-11.4-10.8-49 8.3-29.2 34.9 0 0 6.4 10.6-6 11-12.4.4-42.8 19.4-16.2 46.1 0 0 6.9 6.4 18.2 5.1 11.3-1.3 12.2 1.9 12.2 13.2 0 11.2 5.4 40.9 35 43.7l18 1.3z"/><path class="st5" d="M808.5 624.7s20.1-134.6-27.9-190.8c0 0 19 51.9 16.1 91.3-2.8 36.7-16.1 100.4-16.1 100.4l27.9-.9z"/><path class="st5" d="M794.9 474.3s-30.4 0-35.2-23.8c0 0 19.6 18.8 33.6 16.5l1.6 7.3zM803.4 489.6s36-12.4 51.8-39c0 0 6.6 26-47.3 49.7l-4.5-10.7z"/><path class="st3" d="M268.8 258.7V622h43.6l-2.5-347.5zM319.6 243.8h55.3V622h-55.3zM397.5 321.7H533v302.5H397.5z"/><path class="st4" d="M229.3 397.9H533v226.9H229.3z"/><path class="st3" d="M242.2 407.3h51.9v11.8h-51.9zM242.2 436.6h51.9v11.8h-51.9zM297.6 436.6h51.9v11.8h-51.9zM352.9 436.6h51.9v11.8h-51.9zM408.2 436.6h51.9v11.8h-51.9zM463.5 436.6h51.9v11.8h-51.9zM299.8 406.1h51.9v11.8h-51.9zM357.4 405h51.9v11.8h-51.9zM415 403.9h51.9v11.8H415zM472.5 402.8h51.9v11.8h-51.9zM229.3 421.9h35.6v11.8h-35.6zM268.2 421.9h51.9v11.8h-51.9zM323.5 421.9h51.9v11.8h-51.9zM378.8 421.9h51.9v11.8h-51.9zM434.1 421.9H486v11.8h-51.9zM489.5 421.9H533v11.8h-43.5zM234.3 454.7h51.9v11.8h-51.9zM234.3 484h51.9v11.8h-51.9zM289.7 484h51.9v11.8h-51.9zM345 484h51.9v11.8H345zM400.3 484h51.9v11.8h-51.9zM455.6 484h51.9v11.8h-51.9zM291.9 453.5h51.9v11.8h-51.9zM349.5 452.4h51.9v11.8h-51.9zM407.1 451.3H459v11.8h-51.9zM464.6 450.2h51.9V462h-51.9zM229.3 469.3H257v11.8h-27.7zM260.3 469.4h51.9v11.8h-51.9zM315.6 469.4h51.9v11.8h-51.9zM370.9 469.4h51.9v11.8h-51.9zM426.2 469.4h51.9v11.8h-51.9zM481.6 469.4h51.9v11.8h-51.9zM264.8 502.1h51.9v11.8h-51.9zM264.8 531.4h51.9v11.8h-51.9zM320.1 531.4H372v11.8h-51.9zM375.4 531.4h51.9v11.8h-51.9zM430.8 531.4h51.9v11.8h-51.9zM486.1 531.4h46.8v11.8h-46.8zM322.4 501h51.9v11.8h-51.9zM380 499.8h51.9v11.8H380zM437.5 498.7h51.9v11.8h-51.9zM495.1 497.6h37.8v11.8h-37.8zM235.5 516.8h51.9v11.8h-51.9zM290.8 516.8h51.9v11.8h-51.9zM346.1 516.8H398v11.8h-51.9zM401.4 516.8h51.9v11.8h-51.9zM456.7 516.8h51.9v11.8h-51.9zM512 516.8h20.9v11.8H512zM229.3 550.6h29.9v11.8h-29.9zM229.3 580h29.9v11.8h-29.9zM262.6 580h51.9v11.8h-51.9zM317.9 580h51.9v11.8h-51.9zM373.2 580h51.9v11.8h-51.9zM428.5 580h51.9v11.8h-51.9zM264.8 549.5h51.9v11.8h-51.9zM322.4 548.4h51.9v11.8h-51.9zM380 547.2h51.9V559H380zM437.5 546.1h51.9v11.8h-51.9zM229.3 565.3h.6v11.8h-.6zM233.2 565.3h51.9v11.8h-51.9zM288.5 565.3h51.9v11.8h-51.9zM343.8 565.3h51.9v11.8h-51.9zM399.2 565.3h51.9v11.8h-51.9zM454.5 565.3h51.9v11.8h-51.9zM280.6 598h51.9v11.8h-51.9zM229.3 598h48v11.8h-48zM486.1 578.8h46.8v11.8h-46.8zM495.1 547.2h37.8V559h-37.8zM229.3 533.7h29.9v11.8h-29.9zM510.9 482.9h22v11.8h-22zM338.2 596.9h51.9v11.8h-51.9zM395.8 595.8h51.9v11.8h-51.9zM453.3 594.7h51.9v11.8h-51.9zM510.9 593.5h22v11.8h-22zM251.3 612.7h51.9v11.8h-51.9zM306.6 612.7h51.9v11.8h-51.9zM361.9 612.7h51.9v11.8h-51.9zM417.2 612.7h51.9v11.8h-51.9zM472.5 612.7h51.9v11.8h-51.9zM229.3 498.7h29.9v11.8h-29.9z"/><path class="st6" d="M902.1 636.1h-23.9c-2.8 0-5-2.2-5-5v-1.3c0-2.8 2.2-5 5-5h23.9c2.8 0 5 2.2 5 5v1.3c0 2.8-2.2 5-5 5zM934.9 636.1h-18.2c-2.8 0-5-2.2-5-5v-1.3c0-2.8 2.2-5 5-5h18.2c2.8 0 5 2.2 5 5v1.3c0 2.8-2.3 5-5 5zM851.3 636.1H117.4c-2.8 0-5-2.2-5-5v-1.3c0-2.8 2.2-5 5-5h733.9c2.8 0 5 2.2 5 5v1.3c0 2.8-2.2 5-5 5z"/><g><path class="st3" d="M151.7 530s-12.7 6.2-27.4-16.4c0 0 .7-7.1-23.4-4.1 0 0-13-.4-16.3-25.8 0 0-1-13-20.2-16.4-19.2-3.4-35.4-35-16.6-64.3 0 0 15.9-16.9 33.1-15.8s11-2.8 11.9-11c.9-8.2-15.7-47.8 24.6-61.3 40.6-13.5 55.3 30.9 55.3 30.9s3.4 12.8 16.9 0c13.5-12.8 58.1 9.8 34.7 41.4 0 0-7.6 12.6 7.1 13.1 14.7.4 50.8 23 19.2 54.6 0 0-8.2 7.6-21.6 6.1-13.4-1.5-14.5 2.3-14.5 15.6s-6.4 48.5-41.6 51.8l-21.2 1.6z"/><path class="st5" d="M156.6 624.3S132.7 464.6 189.7 398c0 0-22.6 61.5-19 108.4 3.3 43.6 19 119.1 19 119.1l-33.1-1.2z"/><path class="st5" d="M172.8 445.9s36.1 0 41.8-28.2c0 0-23.3 22.3-39.9 19.6l-1.9 8.6zM162.7 464s-42.7-14.7-61.4-46.3c0 0-7.8 30.9 56.2 58.9l5.2-12.6z"/></g></g><path d="m710.7 622.1-263.8-107c-20.9-8.5-31-32.3-22.5-53.3l143.7-354.4c8.5-20.9 32.3-31 53.3-22.5l263.8 107c20.9 8.5 31 32.3 22.5 53.3L763.9 599.6c-8.4 20.9-32.3 31-53.2 22.5z" style="fill:#4570ad"/><path class="st8" d="M868.8 274.4 747 574.5c-8.3 20.5-31.6 30.3-52.1 22L476 507.7c-15.3-6.2-24.6-20.7-24.9-36.2-.1-5.3.8-10.6 2.9-15.8l121.7-300.1c8.3-20.5 31.6-30.3 52.1-22l218.9 88.8c12.9 5.2 21.6 16.5 24.2 29.2 1.5 7.4.9 15.3-2.1 22.8z"/><path d="M777.6 242.5 660 194.8c-8.4-3.4-12.5-13-9.1-21.5l13.1-32.2c3.4-8.4 13-12.5 21.5-9.1l117.6 47.7c8.4 3.4 12.5 13 9.1 21.5l-13.1 32.2c-3.4 8.4-13 12.5-21.5 9.1z" style="opacity:.47;fill:#acb7e2"/><path d="m779.9 236.8-117.6-47.7c-8.4-3.4-12.5-13-9.1-21.5l13.1-32.2c3.4-8.4 13-12.5 21.5-9.1L805.4 174c8.4 3.4 12.5 13 9.1 21.5l-13.1 32.2c-3.5 8.5-13.1 12.6-21.5 9.1z" style="fill:#4f83c1"/><path d="M629.3 289.6 573.5 267c-5.7-2.3-8.4-8.8-6.1-14.5l27-66.6c2.3-5.7 8.8-8.4 14.5-6.1l55.8 22.6c5.7 2.3 8.4 8.8 6.1 14.5l-27 66.6c-2.3 5.7-8.8 8.4-14.5 6.1z" style="fill:#5465e9"/><path class="st8" d="M628.5 287.6 575.4 266c-5.7-2.3-8.4-8.8-6.1-14.5L595 188c2.3-5.7 8.8-8.4 14.5-6.1l53.1 21.6c5.7 2.3 8.4 8.8 6.1 14.5L643 281.5c-2.3 5.7-8.8 8.4-14.5 6.1z"/><path class="st12" d="m566 275.9 27.3 11.3 27.3 11.4 54.4 23.1 54.4 23.3 27.1 11.7 27.1 11.9-27.3-11.4-27.3-11.4-54.4-23.1-54.3-23.3-27.2-11.7zM553.6 298.4l27.3 11.4 27.3 11.4 54.4 23.1 54.4 23.3 27.1 11.7 27.1 11.9-27.3-11.4-27.3-11.4-54.4-23.1-54.4-23.3-27.1-11.7zM545.7 322.1l27.3 11.4 27.3 11.4 54.4 23.1 54.4 23.3 27.1 11.7 27.1 11.9-27.3-11.4-27.3-11.4-54.4-23.1-54.4-23.3-27.1-11.7zM533.3 345.8l27.3 11.4 27.3 11.4 54.4 23.1 54.3 23.3 27.2 11.7 27.1 11.9-27.3-11.4-27.3-11.4-54.4-23.1-54.4-23.3-27.1-11.7zM522 367.3l27.3 11.3 27.3 11.5 54.4 23 54.4 23.3 27.1 11.8 27.1 11.8-27.3-11.3-27.3-11.5-54.4-23-54.4-23.3-27.1-11.8zM511.9 391l27.3 11.3 27.2 11.5 54.5 23 54.3 23.3 27.1 11.8 27.1 11.8-27.3-11.3-27.2-11.5-54.5-23-54.3-23.3-27.2-11.8zM501.7 413.6l27.3 11.3 27.3 11.5 54.4 23 54.3 23.3 27.2 11.8 27.1 11.8L692 495l-27.3-11.5-54.4-23-54.4-23.3-27.1-11.8zM492.7 437.3l27.3 11.3 27.2 11.5 54.5 23 54.3 23.3 27.1 11.8 27.1 11.8-27.3-11.3-27.2-11.5-54.5-23-54.3-23.3-27.1-11.8zM480.2 461l27.4 11.3 27.2 11.5 54.4 23 54.4 23.3 27.1 11.8 27.1 11.8-27.3-11.3-27.3-11.5-54.4-23-54.3-23.3-27.2-11.8z"/><g><path class="st6" d="M573 265.3c7.5-18.4 26.7-28 42.9-21.4 16.2 6.6 23.3 26.8 15.8 45.2L573 265.3z"/><circle class="st6" cx="623.6" cy="224.8" r="17.1"/></g><path d="M868.8 274.4 747 574.5c-8.3 20.5-31.6 30.3-52.1 22L476 507.7c-15.3-6.2-24.6-20.7-24.9-36.2 46.4 17.2 129.8 19 129.8 19 137.4 17.9 254.8-174.5 290-238.9 1.5 7.4.9 15.3-2.1 22.8z" style="opacity:.47;fill:#ebeefd"/><g><path class="st14" d="m684.6 216.6 3.3 1.3-10.5 25.9-3.3-1.3 10.5-25.9zM691.9 227.4l2.7 1.1-.8 2.9h.1c2.6-1.1 5.1-1.7 7.8-.6 4 1.6 4.8 5 2.8 9.9l-4.9 12.2-3.2-1.3 4.8-11.7c1.4-3.6 1-5.5-1.5-6.6-2-.8-3.7-.3-6.4.8l-5.6 13.9-3.2-1.3 7.4-19.3zM704.5 252.3l2.5-1.5c1.1 2 2.4 3.6 4.7 4.6 2.5 1 4.3.2 5-1.5.8-2-1.1-3.8-2.9-5.4-2.3-2.1-4.8-4.6-3.5-7.9 1.2-3.1 4.7-4.5 8.8-2.8 2.4 1 4.1 2.8 5.1 4.6l-2.4 1.5c-.9-1.5-2-2.8-3.7-3.5-2.4-1-4.1-.1-4.7 1.3-.7 1.8 1.1 3.4 2.9 5.1 2.3 2.2 5 4.5 3.5 8.2-1.3 3.1-4.8 4.7-9.3 2.9-2.6-1.1-4.8-3.3-6-5.6zM724.9 254.9l4.9-12.2 3.2 1.3-4.8 11.7c-1.5 3.6-1 5.5 1.5 6.6 2 .8 3.7.4 6.5-1.2l5.5-13.6 3.2 1.3-7.8 19.2-2.7-1.1.9-3.1h-.1c-2.6 1.4-5.1 2-7.7.9-3.8-1.5-4.6-4.9-2.6-9.8zM751.6 251.6l2.7 1.1-1.1 3.6h.1c2.3-1.9 4.9-2.6 7.1-1.8.8.3 1.4.7 1.9 1.2l-1.8 2.6c-.6-.5-1-.8-1.7-1.1-1.6-.7-4-.3-6.6 2.4l-5 12.3-3.2-1.3 7.6-19zM757.4 270.5c1.7-4.2 6.2-4.8 14.7-2.4 1-2.5 1.1-5.2-2-6.5-2.2-.9-4.6-.7-6.6-.3l-.4-2.7c2.2-.4 5.5-.7 8.6.6 4.7 1.9 5.4 5.8 3.5 10.6l-4.8 11.8-2.7-1.1.7-2.4h-.1c-2.4.8-5.1 1.2-7.5.2-3.2-1.4-4.8-4.3-3.4-7.8zm11.6 5.1 2.2-5.3c-6.7-1.8-9.6-1.1-10.6 1.3-.9 2.2.2 3.7 2.1 4.4 1.9.8 3.8.5 6.3-.4zM784.2 264.9l2.7 1.1-.8 2.9h.1c2.6-1.1 5.1-1.7 7.8-.6 4 1.6 4.8 5 2.8 9.9l-4.9 12.2-3.2-1.3 4.8-11.7c1.4-3.6 1-5.5-1.5-6.6-2-.8-3.7-.3-6.4.8l-5.6 13.9-3.2-1.3 7.4-19.3zM800.5 282.7c2.6-6.4 8.4-8.3 13.3-6.4 2.5 1 3.8 2.8 4.7 4.5l-2.5 1.5c-.7-1.5-1.6-2.6-3.1-3.2-3.5-1.4-7.2.6-9 4.9-1.8 4.4-.6 8.3 3 9.8 1.8.7 3.7.5 5.3-.1l.5 2.7c-2.3.8-4.9.9-7.2-.1-5.2-2-7.6-7.3-5-13.6zM817.7 289.6c2.5-6.2 8.3-8.4 12.7-6.6 4.9 2 6.2 6.6 4 12.1-.3.7-.6 1.3-.9 1.8l-12.9-5.2c-1.4 4.2 0 7.8 3.7 9.3 1.8.7 3.6.8 5.4.4l.3 2.6c-2.1.4-4.5.5-7.1-.6-5.2-2.1-7.8-7.5-5.2-13.8zm14 3.9c1.6-3.8.7-6.6-2.3-7.9-2.7-1.1-6 .1-7.9 3.7l10.2 4.2zM696.9 276.8l7.4 3c5.8 2.4 8.9 5.9 6.6 11.6-2.2 5.5-7.1 6.4-12.8 4.1l-4.3-1.7-4.2 10.3-3.3-1.3 10.6-26zm1.9 15.9c4.5 1.8 7.4 1.1 8.9-2.6s-.3-5.9-4.8-7.7l-3.7-1.5-4.2 10.3 3.8 1.5zM710 301.1c2.6-6.4 8.3-8.4 13-6.5 4.7 1.9 7.4 7.3 4.8 13.7-2.6 6.4-8.3 8.3-13 6.4-4.7-1.8-7.4-7.2-4.8-13.6zm14.4 5.9c1.8-4.4.8-8.3-2.5-9.6-3.3-1.3-6.8.7-8.5 5.1-1.8 4.4-.7 8.2 2.6 9.6 3.2 1.3 6.6-.7 8.4-5.1zM730.3 316.1l9.8-24.3 3.2 1.3-9.9 24.5c-.4 1-.1 1.6.3 1.8.2.1.3.1.7.2l-.6 2.7c-.5 0-1.1-.1-2-.5-2.2-1-2.6-3-1.5-5.7zM746.6 304.8l3.2 1.3-7.8 19.2-3.2-1.3 7.8-19.2zm1.9-6.3c.5-1.3 1.8-1.7 3.1-1.2s1.9 1.7 1.4 3c-.5 1.2-1.8 1.7-3.1 1.2s-1.9-1.8-1.4-3zM751 317.8c2.6-6.4 8.4-8.3 13.3-6.4 2.5 1 3.8 2.8 4.7 4.5l-2.5 1.5c-.7-1.5-1.6-2.6-3.1-3.2-3.5-1.4-7.2.6-9 4.9-1.8 4.4-.6 8.3 3 9.8 1.8.7 3.7.5 5.3-.1l.5 2.7c-2.3.8-4.9.9-7.2-.1-5.2-2-7.5-7.3-5-13.6zM761.7 342.4l1.7-2.3c.3.3.9.7 1.3.9 2.2.9 4.2-.3 6-2.4l1-1.2.1-22.4 3.3 1.4-.4 12.2c-.1 1.9-.2 4.1-.3 6.2l.2.1c1.3-1.5 2.6-3.3 3.8-4.8l7.7-9.2 3.2 1.3-15.6 17.8c-2.9 3.3-6.1 5.3-9.9 3.8-.9-.4-1.6-.9-2.1-1.4z"/></g><path d="M855.7 182.9c10.1 1.6 28.8 3.2 45.1-2.1 4.5-1.5 9.4.2 11.9 4.2 6.6 10.5 19.1 29.6 28.7 37.6 3.5 2.9 4.5 7.8 2.6 11.9l-25.6 55.2c-1.4 3-4.1 5.1-7.4 5.7l-53 9.7c-4.2.8-8.5-1.2-10.6-4.9l-27.2-47c-1.6-2.8-1.8-6.3-.5-9.3l25.2-55.4c1.9-3.9 6.3-6.3 10.8-5.6z" style="fill:#a0c0e0"/><path d="M862.2 180.7c10.3 1.6 29.4 3.2 46.2-2.1 4.6-1.5 9.6.2 12.1 4.2 6.7 10.5 19.6 29.6 29.3 37.6 3.5 2.9 4.6 7.8 2.6 11.9l-26.1 55.2c-1.4 3-4.2 5.1-7.5 5.7l-54.2 9.7c-4.3.8-8.7-1.2-10.8-4.9L826 251a9.89 9.89 0 0 1-.5-9.3l25.8-55.4c1.8-3.9 6.3-6.3 10.9-5.6z" style="fill:#e6e7e8"/><path class="st17" d="M867.4 192.3c8.3 1.3 23.7 2.6 37.2-1.7 3.7-1.2 7.7.2 9.8 3.4 5.4 8.5 15.8 23.8 23.6 30.3 2.8 2.4 3.7 6.3 2.1 9.6L919 278.5c-1.1 2.4-3.4 4.1-6.1 4.6l-43.7 7.8c-3.5.6-7-1-8.7-3.9l-22.4-37.9c-1.4-2.3-1.5-5.1-.4-7.5l20.8-44.6c1.5-3.3 5.2-5.2 8.9-4.7z"/><path class="st18" d="m864.8 223.5 6.3 39c.6 3.6 4.8 5.3 7.7 3l87.6-68h-25.5l-55.8 43.8c-1 .8-2.5.4-2.9-.8l-.5-9.5-16.9-7.5z"/><g><ellipse class="st19" cx="637.3" cy="698.2" rx="92.6" ry="15.8"/><path class="st20" d="M623.2 657.8s3.4 26.3-2.3 27.4c-5.6 1.1-51.5 2.6-51.5 2.6H564c-3.1 0-5.7-2.5-5.8-5.6-.2-3.4 1-7.5 6.7-9.7 10.9-4.3 17.4-4.3 23.2-7.7 5.8-3.4 7.3-8.6 7.3-8.6l27.8 1.6zM719.3 652.6s8.2 27.4 2.9 29.6-50 12.5-50 12.5l-9.7 1.9s-7.6-9.7 2.3-16c9.9-6.3 16.2-7.6 21.3-12 5-4.4 5.8-12.1 5.8-12.1l27.4-3.9z"/><ellipse transform="rotate(-83.65 628.835 247.79)" class="st21" cx="628.9" cy="247.8" rx="27.7" ry="19.2"/><path class="st21" d="m649.2 248.7 1.1 39.3-24.8 4.4 2.2-24.9z"/><path class="st17" d="M623 282.9s22.8-9.7 29.5-6.3v7.9l6.8 1.1-11.5 122.3h-29.3l4.5-125z"/><path class="st18" d="m656.2 285.1 33.6 5s16.9 1.1 19.2 16.9l4.4 50.8s.2 20.3-3.8 37.3-10.8 49.7-10.8 49.7l-7.9 22.6s-50.1-7.5-53.1-11.3c-4.5-5.6 7.9-73.4 7.9-73.4l10.5-97.6z"/><path d="M614.1 233.1s-6.7-.5-6.7-5 2.3-10.2 4.5-10.2c2.3 0 3.1-6.2 6.6-4.8 3.5 1.4 8.1-4.9 11.5-3.5s5.6-1.9 7.9-.2c2.3 1.7 7.9-3.4 12.4 3.7 0 0 6.8 3.7 5.6 9.3 0 0 4.5 2.3 2.3 5.6-2.3 3.4-2.3 7.9-2.3 9 0 1.1-1 8.5-1 8.5l-9.1 1s-3.5-8.1 1-12.8c0 0-3.1-2.6-4.4-5.3-1.3-2.7-5.1-7.7-7.1-5.2s-6.5 2.1-9.9 1.2c0 0-1.1 5.8-4.5 4.7.1.1-2.4 5.6-6.8 4z" style="fill:#282625"/><path d="M599.5 403 586 655.9s37.3 6.8 44 0l7.9-199.8 44 202.8s33.4 1.5 42.7-7c0 0-49.4-224.1-49.4-248.9h-75.7z" style="fill:#231f20"/><path class="st12" d="M723.5 408.7 709 465.4c-.6 2.3-2.9 3.7-5.3 3.1l-78.2-19.3c-2.3-.6-3.7-2.9-3.2-5.2l13.5-56.5c.4-1.7 1.8-3 3.5-3.3.6-.1 1.2-.1 1.8.1l79.3 19.2c1.1.3 1.9.9 2.5 1.7.6.9.9 2.2.6 3.5z"/><path d="m722.8 405.1-53.2 35.1-30.4-56.1c.6-.1 1.2-.1 1.8.1l79.3 19.2c1.1.3 1.9.9 2.5 1.7z" style="fill:#808285"/><ellipse transform="rotate(-75.209 650.285 247.788)" class="st21" cx="650.3" cy="247.8" rx="6.6" ry="4.6"/><path class="st21" d="M677 440.3s-7 15.6-13.5 17.4c-6.4 1.8 9.3 8.7 17.2 8.1 0 0 6.8-.6 10.2-10.8s0-11.3 0-11.3l-13.9-3.4z"/><path class="st17" d="m678.5 434.6-3.3 6.1 16.9 5.2v-5.6z"/><path d="M689.8 291.3s-9 2.3-9 19.2 9.5 58.2 7.6 65.8c-1.9 7.6-13.2 59.8-13.2 59.8l19.2 7.6 15.3-48.5s4.8-29.3 3.8-37.3c-1.1-7.9-4.2-47.9-4.2-47.9s-1.4-19.9-19.5-18.7z" style="fill:#ed4857"/><path class="st21" d="M503.6 362.4s-10.2-4.5-18.7-2.3c-8.4 2.3-25.4 5.6-23.1 16.9s21.4 10.2 24.8 10.2 13-5.8 13-5.8l7.9-1.8-3.9-17.2z"/><path class="st17" d="m510.3 360.1-9 1.1 4.5 24.9 7.9-3.4z"/><path class="st18" d="m621 289-21.7 5.9s-8.7 4.2-13.2 11-20.1 35-26.4 38.4-51.8 13.5-51.8 13.5-.8 21.4 4.8 29.3l56.4-13.5s11.3 0 16.9-10.2 9-15.8 9-15.8 3.4 44-1.1 56.4l-9 46.3s31.6 10.4 36.1 6.3l3.4-89.8v-79.6L621 289z"/></g><g><ellipse class="st19" cx="345.5" cy="699.3" rx="46.8" ry="10.2"/><ellipse transform="rotate(-8.911 389.044 255.162)" class="st26" cx="389" cy="255.1" rx="17.5" ry="23.7"/><path d="M368.7 251.7s18.2-4.2 18.4-20.2l13.3 7.1s5.7 6.5 5.9 13.8c.2 7.2-1.5 15.1-1.5 15.1s-4 13.1-15.8 11.1v8.6l28.2 6.1s4.7-8.4-2.4-18.8c0 0-7.1-11.5-6-28.4 1.1-16.9-6.8-31.6-22.6-31.6s-27.1 12.4-27.1 12.4-6 11-4.1 27-8.3 27.2-17.3 31.7c0 0-23.9 3.8-15.9 20 0 0 4.5 5.6-1.6 10.9s-18.6 24.5-1.6 31.3c16.9 6.8 20.3 1.9 20.3 1.9s-8.6-32.2-7.7-39.1 4.2-15.2 14.4-18.4c10.2-3.1 23.2-7.7 23.2-7.7l1-25.5-1.1-7.3z" style="fill:#442f27"/><path class="st26" d="M397.5 554.3 358 630.5l-24.9 34.4-14.7-11.3s.3-.6.9-1.7c3-5.7 12.9-25 19-40.6 7.2-18.6 19.6-52.5 19.6-52.5l39.6-4.5z"/><ellipse transform="rotate(-8.911 368.722 252.904)" class="st26" cx="368.7" cy="252.9" rx="4.5" ry="6.1"/><path class="st26" d="M368.7 251.7V290s7.3 9.1 15.2 6.9 9-9 9-9l-4-.7v-15.8l-20.2-19.7zM434.7 344.3s2.3 42.9 5.6 57.6 6.8 30.5 6.8 30.5l12.4 12.4s5.6 9 4.5 14.7c-1.1 5.6-7.9 14.7-12.4 11.3s-1.1-6.8-4.5-11.3c-3.4-4.5-4.5-10.2-6.8-7.9-2.3 2.3 0 6.8 0 6.8s3.4 5.6 0 6.8-3.4.1-5.6-4.5c-2.3-4.5-3.4-10.2-3.4-15.8v-10l-15.8-44.1-9-38.4 28.2-8.1zM319 651.9s14.1 27.6 28.2 29.9-2.2-17.5-2.2-17.5l-7.1-10.4-18.9-2z"/><path class="st28" d="M319 651.9s-9.6 13.1-5.6 16c4.1 3 21.9 19.7 30.5 23.4 8.5 3.7 16.5 2.4 13.5-6.6-2.9-8.8-12.4-20.6-12.4-20.6s5.6 15.3-3.8 13.2c-2.2-.5-4.2-1.8-5.7-3.4l-16.5-22z"/><path class="st28" d="M332 671.1s-5.6 12.4-1.1 14.7c4.5 2.3 24.8 15.8 33.9 18.1 9 2.3 16.7-.3 12.2-8.8-4.3-8.2-15.6-18.3-15.6-18.3s8 14.2-1.6 13.6c-2.3-.1-4.4-1.1-6.2-2.4L332 671.1z"/><path class="st26" d="m343.3 559.4-10.2 114s18.1 18.1 27.1 18.1 6.8-9 2.3-13.5-12.7-11.4-12.7-11.4l28.3-107.1h-34.8z"/><path d="m368.7 283.9-27.7 9.6s-13.5 5.6-9 26c0 0 15.8 66.6 3.4 80.1s-15.8 61-12.4 86.9 3.4 74.5 3.4 74.5 25.7 4.5 47.3 0c21.6-4.5 29.5-6.8 29.5-6.8s12.6-80.4 14.4-99.4c.2-1.9.2-3.8.1-5.6-.6-8.4-2.8-36.8-6.6-47.3-4.5-12.4 5.6-38.4 5.6-38.4l3.4-12.4s13.5-1.1 18.1-6.8c0 0-3.4-29.3-7.9-39.5 0 0-3.4-11.3-18.1-12.4l-23.1-6.2c-.1 0-4.6 22.6-20.4-2.3z" style="fill:#feac02"/><path class="st26" d="m351.2 356.7 19.2 28.2s2.3 6.8 15.8 6.8 78-3.1 78-3.1 8.9-2.6 14.5.8l4.5 5.6s12.4 0 13.5-6.8c0 0-5.6-15.8-11.3-19.2-5.6-3.4-16.9 1.1-16.9 1.1l-10.2 3.4s-67.7-4.6-69.4-6.2-15.2-25.4-15.2-25.4l-22.5 14.8z"/><path d="m346.7 357.9 28.2-16.9-18.1-41.8s-11.6-10.7-22.7 2c0 0-4.7 12.9 0 24.1 4.7 11.1 12.6 32.6 12.6 32.6z" style="fill:#e59303"/></g></svg>