<svg version="1.1" id="Layer_1" xmlns="http://www.w3.org/2000/svg" x="0" y="0" viewBox="0 0 1000 715.4" style="enable-background:new 0 0 1000 715.4" xml:space="preserve"><style>.st1{fill:#fff;stroke:#e6e7e8;stroke-miterlimit:10}.st2{fill:#a871e2}.st3{fill:#111d2d}.st4{fill:#faba97}.st6{fill:#fff}.st8{fill:#142132}.st9{fill:#3eb080}.st10{opacity:.19}.st11{fill:#30845e}.st12{fill:#3e9ed0}.st13{fill:#3d3d3d}.st17{fill:#414042}.st21{fill:none;stroke:#414042;stroke-width:3;stroke-linecap:round;stroke-miterlimit:10}</style><path d="M206.2 573.5s-194.6-49-135.7-192.8 135.7-141.4 135.7-141.4S318.9 157 337.6 103 460.2 21.1 544 42.3s137.6 23.5 200.1 9 127.1-5 161.6 58.7c0 0 33.4 111.3 61.2 139.7 27.8 28.4 43 114.1-35.2 194.2 0 0-55.4-15.3-215.3 225.3 0 0-78.7 76.8-252.2 11.9l-258-107.6z" style="fill:#e5d1f7"/><path class="st1" d="M337.6 14.5h290.3v382.6H337.6z"/><circle class="st2" cx="412.4" cy="77.1" r="44.6"/><path class="st2" d="M482.7 53.7h122.6v23.4H482.7zM482.7 94.6h113v16.9h-113zM367.8 142.9h227.9v15.8H367.8zM367.8 233.8h227.9v15.8H367.8zM367.8 193.9h220.1v2.5H367.8zM367.8 176.5h220.1v2.5H367.8zM367.8 213.4h220.1v2.5H367.8zM595.7 308H367.8c-.7 0-1.2-.5-1.2-1.2s.5-1.2 1.2-1.2h227.9c.7 0 1.2.5 1.2 1.2s-.5 1.2-1.2 1.2zM595.7 288.2H367.8c-.7 0-1.2-.5-1.2-1.2s.5-1.2 1.2-1.2h227.9c.7 0 1.2.5 1.2 1.2 0 .6-.5 1.2-1.2 1.2zM595.7 269.8H367.8c-.7 0-1.2-.5-1.2-1.2s.5-1.2 1.2-1.2h227.9c.7 0 1.2.5 1.2 1.2s-.5 1.2-1.2 1.2z"/><path class="st3" d="M392.9 66.6V54.7c0-4.3 1.5-8.4 4.2-11.7 3.3-4 8.6-8.1 15.5-6.9 12.6 2.2 19 7.2 19.8 9.6.7 2.4 3 15.1 0 19.6-2 3.1-.6 5.2.6 6.2.6.6 1.1 1.3 1.2 2.2.6 3.4 4.7 13.2 1.1 17.2-14.7 16.6-39.1 2.8-39.1 2.8s-9.8-5.1-7-18c.3-1.6 1.5-2.8 2.9-3.6 1.1-.5 2.1-1.9.8-5.5z"/><path class="st4" d="M401.9 56s-1.7-6.9 4.3-4.1c5.9 2.8 14.5 9.3 19.9 8.5s1.4 10.2 1.4 10.2-1.5 9.1-5 11.1c-6.7 3.9-3.5 9.6-3.5 9.6l5.9 2-.6 11.7-6.9 11-13.4-2-3.5-6.5-1.9-7.9s1.1-6.9 5.2-6.7l.2-9.2s-4.8-3-5.4-8.2c-.3-2.5-.2-5.3-.1-7.4.1-2 .9-3.8 2.2-5.2 1.3-1.4 2.4-3.6 1.2-6.9z"/><path d="M403.8 92.9s-12.8 2-18.2 5.9c-5.4 3.9-7.2 7.2-7.2 7.2s31.5 37.8 66.6 1.5c0 0-2.7-9.4-26.1-16.1.1 0-5.1 10.9-15.1 1.5z" style="fill:#3470ba"/><path class="st1" d="M426.1 77.3h290.3v382.6H426.1z"/><circle class="st2" cx="500.9" cy="140" r="44.6"/><path class="st2" d="M571.3 116.5h122.6v23.4H571.3zM571.3 157.4h113v16.9h-113zM456.3 205.8h227.9v15.8H456.3zM456.3 296.6h227.9v15.8H456.3zM456.3 256.8h220.1v2.5H456.3zM456.3 239.3h220.1v2.5H456.3zM456.3 276.2h220.1v2.5H456.3zM684.2 370.8H456.3c-.7 0-1.2-.5-1.2-1.2s.5-1.2 1.2-1.2h227.9c.7 0 1.2.5 1.2 1.2s-.5 1.2-1.2 1.2zM684.2 351H456.3c-.7 0-1.2-.5-1.2-1.2s.5-1.2 1.2-1.2h227.9c.7 0 1.2.5 1.2 1.2s-.5 1.2-1.2 1.2zM684.2 332.7H456.3c-.7 0-1.2-.5-1.2-1.2s.5-1.2 1.2-1.2h227.9c.7 0 1.2.5 1.2 1.2 0 .6-.5 1.2-1.2 1.2z"/><circle class="st2" cx="709.6" cy="137.5" r="44.6"/><path class="st6" d="m709.7 156.5-27.5-24.7 6.5-7.2 20.7 18.7 31.4-30.3 6.8 7z"/><ellipse class="st4" cx="499.8" cy="129.7" rx="17" ry="20.9"/><path class="st4" d="M490.3 145.8s1.1 9.5-4.8 12.8c-5.9 3.3 11.7 20.4 11.7 20.4l18.4-10.9-4.2-8.1s-6.1-6-5.4-14.2h-15.7z"/><path d="m488.1 154.3 7.6 13.5s4.8.7 5.2 0 6.9-15.8 6.9-15.8 7 4.9 11.7 6.5c4.6 1.7 10.2 7 10.4 12.2s.9 4.6.9 4.6-39.6 23.3-62.1-5c0 0-1.1-9.5 9.9-13.2s9.5-2.8 9.5-2.8z" style="fill:#fca819"/><path class="st3" d="M482.9 104.2s-1.9 9.4 12.7 13.5c14.6 4.2 22.2 10.6 21.1 16 0 0 9.2-16.9-2.2-25.8-11.2-8.8-25.4-8.6-31.6-3.7z"/><path class="st3" d="M488.1 115.2s.7 14.5-5.1 19.2c-4.4 3.5-4.6-11.6-4.5-19.4 0-2.7 1.5-5.2 3.8-6.6l3.5-2.1s5.2 5.5 3.3 5.9c-1.8.5-1 3-1 3z"/><path class="st8" d="m495.3 168.3-2.4 15.3 9.2 1-1.3-16.3z"/><g><path class="st9" d="M175.1 427.6s-53.4 3.7-67.6 70.6c0 0-8.3 35.4-44.2 33.7 0 0-32.5 11.2-40 31 0 0-.8-38-10-60s13.3-41.2 13.3-41.2 20.9-20.7 25-34.1c4.2-13.4 31.7-24.8 45-19.9 13.3 4.8 31.7 9.8 48.4 10.7 16.7.8 30.1 9.2 30.1 9.2z"/><path d="M108.3 418c-6 10.6-12.3 20.9-18.7 31.2-3.2 5.2-6.5 10.2-9.7 15.4L70 479.9 59.9 495c-3.4 5-6.8 10-10.3 15-6.9 10-14 19.9-21.3 29.5 6-10.6 12.3-20.9 18.7-31.2 3.2-5.2 6.5-10.2 9.7-15.4l9.9-15.2 10.1-15.1c3.4-5 6.8-10 10.3-15 6.9-10 14-19.9 21.3-29.6z" class="st10"/><path class="st9" d="M202.1 389.9s1.3-67.1 24-88.8c0 0 9.2-56.4 21-68.4 11.8-12 3.8-21.5 3.8-21.5s30.2-5.6 48.6 24.3c18.3 29.9-2 56.7-2 56.7s-4.1 23.3-6.1 40.2c-2 16.9-27.8 61.4-27.8 61.4l-53.9 11.5-7.6-15.4z"/><path d="M250.7 377.6c2.2-13.1 4.7-26 7.4-39 1.3-6.5 2.8-12.9 4.1-19.4l4.4-19.3 4.6-19.3c1.6-6.4 3.1-12.8 4.8-19.2 3.3-12.8 6.7-25.6 10.4-38.3-2.2 13.1-4.7 26-7.4 39-1.3 6.5-2.8 12.9-4.1 19.4l-4.4 19.3-4.6 19.3c-1.6 6.4-3.1 12.8-4.8 19.2-3.3 12.8-6.7 25.6-10.4 38.3z" class="st10"/><g><path class="st11" d="M181.7 419.4s-32.6-58.7-23.8-88.8c0 0-20.4-53.4-16.2-69.7 4.2-16.3-7.5-20.5-7.5-20.5s23.4-20 54.2-3.3 26.7 50 26.7 50 8.2 22.2 14.9 37.8 6.7 67.1 6.7 67.1l-40.9 37-14.1-9.6z"/><path d="M217.5 384.5c-4.7-12.4-9-24.9-13.2-37.4-2.1-6.3-4.1-12.6-6.2-18.8l-5.9-18.9-5.7-19c-1.8-6.3-3.8-12.7-5.5-19-3.6-12.7-7.1-25.5-10.2-38.3 4.7 12.4 9 24.9 13.2 37.4 2.1 6.3 4.1 12.6 6.2 18.8l5.9 18.9 5.7 19c1.8 6.3 3.7 12.7 5.5 19 3.7 12.6 7.1 25.4 10.2 38.3z" class="st10"/></g><g><path class="st11" d="M93.1 367.4S50 404 50.8 415.8c.8 11.8-12.5-26.4-10-56.2 2.5-29.7 31.7-11.2 31.7-11.2l20.6 19z"/><path class="st9" d="M135.9 434.2 115 406.5s-27.5-24-35.9-35.7-24.2-35.1-38.4-15c0 0 13.3-31.7 47.5-25.9s50.9 1.9 56.7 12.6c0 0 36.7 45.8 36.7 81.6s-30.5 34.2-30.5 34.2l-15.2-24.1z"/><path d="M155.9 413.3c-4.7-6-9-12.1-13.2-18.4-2.1-3.1-4.2-6.3-6.2-9.4l-6-9.5-5.9-9.6c-1.9-3.3-3.8-6.5-5.7-9.8-3.7-6.5-7.3-13.2-10.6-20 4.7 6 9 12.1 13.2 18.4 2.1 3.1 4.2 6.3 6.2 9.4l6 9.5 5.8 9.7c1.9 3.3 3.8 6.5 5.7 9.8 3.8 6.5 7.4 13.1 10.7 19.9z" class="st10"/></g></g><path class="st12" d="m303.5 537.2-138.1 24c-16.8 2.9-32.8-8.3-35.7-25.1l-12.2-70.3c-2.9-16.8 8.3-32.8 25.1-35.7l138.1-24c16.8-2.9 32.8 8.3 35.7 25.1l12.2 70.3c3 16.8-8.3 32.8-25.1 35.7z"/><ellipse class="st4" cx="350.2" cy="277.5" rx="53.4" ry="70.1"/><ellipse class="st4" cx="797.6" cy="275.8" rx="53.4" ry="70.1"/><path class="st3" d="M285.2 331.4s-6.1-35.4-18.4-49.1c-12.2-13.7-10.6-49.3 9.2-56.5s23.4-20 23.4-20 30.3-28.4 53.6-19.5c23.4 8.9 27.2 20.6 46.7 19.5 19.5-1.1 30.6 30.6 13.3 39.5-17.2 8.9-51.2-10-51.2-10s-18.9-23.9-25.6.6c-6.7 24.5-15.6 30.6-20.6 28.9-4.9-1.8-13.8 50-30.4 66.6z"/><path class="st4" d="m300.9 302.5-28.5 92.3 73.9 49 25.1-59.5-29-11.1 7.8-41.8z"/><path class="st8" d="M277.4 361.5c-1.7-1.4-32.3 0-32.3 0s-29.2 3.6-47.5 33.9-42.8 92.9-42.8 92.9-17 66.7 23.6 66.5c40.6-.3 25.6 0 25.6 0l2.2 18.8s96.8 21.9 137.9 48.2S464.2 681 464.2 681l61.2 17.4 3.7-77.9s1.1-20-26-28.9c-27.1-8.9-60.1-33-60.1-33l-43.7-139s-6.3-41.2-45.2-49.9l-13.9 142.9-62.8-151.1z"/><g><path class="st13" d="M246 560.3h445.4v20.8H246z"/><path class="st13" d="M647.2 574.5H658v124h-10.8z"/><path transform="rotate(-180 499.122 632.597)" class="st13" d="M494.5 574.5h9.2v116.3h-9.2z"/></g><path class="st4" d="m787.1 338.6 5.9 37.3s74.9 2.6 73.8 1.5c-1.1-1.1-13.3-25.2-13.3-25.2l-4.4-16.3-62 2.7z"/><path style="fill:#3d4b60" d="M520.9 459.9h179.7l-9.2 100.4H477.3z"/><path class="st4" d="m652.6 470.7-5.4-16.4s2.8-17.2 0-32.8c0 0-7.6-11.9-5-19.6 0 0-10.8-5.9-11.1 9.3s0 18.5 0 18.5 1.1 8.2-6.5 1.1c-7.6-7-26.9-49.7-26.9-49.7s-9.3-3.3-9.3 8.9v24.1s-5.9 24.5 0 38.2c5.9 13.7 12.6 24.5 18.2 25.2s16.3 6.2 22.6 15.5l23.4-22.3z"/><path d="M797.6 349.8s-14.7 8.9-17.8 15.1l-35.6 12.8s-30.1 5.3-38.3 40.1-16.3 67.8-16.3 67.8L655.9 460s-25 10.5-31.3 37.2l51.7 57.7s19.6 22.6 48.6 2.2l5.6-5.9 3.3 33.4 190.6-152.7s-2.6-51.5-49.3-62.3c0 0-6.2-15-17.4-19.8h-60.1z" style="fill:#f22949"/><path d="M742.6 589.5c-1.1 0-65.2-2.2-65.2-2.2s-58.2-13.7-59.3 58.6 1.9 58.9 1.9 58.9 57.5-2.2 73-18.9 49.6-96.4 49.6-96.4z" style="fill:#132031"/><path class="st1" d="m420.2 420 111.3-2.3-49 141.3H363.2z"/><g><path class="st17" d="M223.4 369.7c1.9 5.4 3.6 10.8 5.2 16.2 1.6 5.4 3.2 10.9 4.6 16.4 2.9 11 5.3 22.2 7.1 33.5.9 5.6 1.5 11.3 1.9 17.1.3 5.7.3 11.5-.6 17.3l-.2 1.1-.2 1.1-.5 2.2c-.5 1.4-.8 2.9-1.5 4.2-.6 1.4-1.3 2.6-2 3.9-.7 1.2-1.4 2.5-2.1 3.7-1.5 2.5-3 4.9-4.7 7.3-.9 1.2-1.7 2.4-2.8 3.5-.6.6-1.1 1.1-2.1 1.6-.2.1-.5.2-.9.3-.4.1-.9 0-1.4-.3-.5-.3-.8-.7-.9-1-.2-.4-.2-.6-.3-1l-.3-2.1 2.1.6 22.1 5.9 22 6c7.3 2.1 14.7 4.1 22 6.2 7.3 2.1 14.7 4.2 22 6.4-7.4-1.7-14.8-3.5-22.3-5.2-7.4-1.7-14.8-3.6-22.2-5.4l-22.2-5.5L223 498l1.8-1.5c0-.1 0 0 0 0l-.2-.2c-.2-.1-.4-.1-.4-.1h.1c.3-.1.8-.6 1.2-1 .9-.9 1.7-2 2.5-3.1 1.6-2.3 3.1-4.7 4.5-7.1.7-1.2 1.4-2.4 2.1-3.7.7-1.2 1.4-2.5 1.9-3.7.6-1.2.9-2.5 1.4-3.8l.5-2 .2-1 .2-1c.9-5.5.9-11.1.6-16.7-.3-5.6-.8-11.2-1.6-16.8-1.5-11.2-3.7-22.4-6.2-33.4-1.3-5.5-2.5-11.1-3.9-16.6-1.4-5.6-2.8-11.1-4.3-16.6z"/></g><ellipse transform="rotate(-22.657 299.448 282.335)" class="st4" cx="299.4" cy="282.3" rx="11.2" ry="14.7"/><path class="st6" d="M283.3 352.2s-9.1.4 14.8 20.9 31.7 26.7 31.7 26.7l15.8-37 9.8 7 6.7 59.5-12.7-10.1-7.9 86.8v3.9l-37-83.6-10.2 4.8c-.1.2-42.2-68.9-11-78.9z"/><path d="M321.9 402.6s-10.8-6.3-10 2.2 10 9.6 10 9.6l.9 56.3 14.3 51.3 8.2-7.4-9.3-102.7s10.4-4.8.7-13.7c0 0-8.2-2.2-8.5 4.1s-6.3.3-6.3.3z" style="fill:#e82545"/><path class="st4" d="m311.8 519.8-4.8 39.3h28.2s36 6.3 46.7-9.6c10.8-15.9 12.6-15.2 21.7-15.6s16.1-2.6 16.1-2.6 18.6-22.1 5.4-29.6c-11.2-6.3-27-3-31.6-1.8-.9.2-1.7-.2-2.1-1-.7-1.7-.9-4.5 3.8-6.5 7-3 24.1 0 24.1 0s7.8-9.6-3-9.6-31.9 2.2-31.9 2.2l-16.1 6.3-23.2 23.4-11.9 6.9-21.4-1.8zM503.7 494.9s-25-17.1-23.5-10c1.5 7 11.7 14.1 14.4 14.8 2.6.8 11.1 9 9.1-4.8zM500.9 506.1h-23s-2.4 14.8 2.2 20.4 12 8.2 12 8.2l8.8-28.6z"/><path class="st12" d="M931.7 443.8s-12.6-36.7-100.5-23c0 0-56.7 5.6-79.3 93.4-22.6 87.9-30.8 106.4-30.8 106.4s3.7 23-61.2 40.4c0 0-31.7 7.8-22.2 18.5 9.5 10.8 51.5 8.5 51.5 8.5s48.9-27.4 82.3-79c33.4-51.5 72.7-102.7 72.7-102.7s57.5-63.6 87.5-62.5z"/><path d="M758.1 192.5c-5.7.1-10.9 3.1-13.9 7.9-6.8 11.1-15.4 31.5 0 47.1 22.3 22.5 17.1 39.2 19.6 38.4 2.5-.8 19.4 30.9 19.4 30.9s3.3 32.8 51.7 33.1c0 0 16.1.4 36.7-35.6 23.7-41.4 16.7-47.5 5.8-70.9s11.7-28.4-35-54.2c0 0-22.8-4.2-44.8 0-14.2 2.6-30.1 3.2-39.5 3.3z" style="fill:#0b1320"/><ellipse class="st4" cx="769.4" cy="280.1" rx="10.4" ry="16.9"/><circle cx="602.5" cy="519.5" r="16.7" style="opacity:.43;fill:#94cad6"/><g><path class="st17" d="M260.7 360.9c.1 7 .1 14 .2 21s0 14 0 21l-.1 21-.2 21-1.7-1.4 18.9-3.7 18.9-3.6 1.6-.3.1 1.6 1.4 16.3L301 470l1.2 16.4 1.2 16.4-.4-.6 12.8 8.8c4.3 2.9 8.5 5.9 12.7 8.8l-13.2-8.1-13.2-8.2-.3-.2v-.4l-1.7-16.3-1.6-16.3-1.6-16.3-1.5-16.3 1.7 1.3c-6.3 1.2-12.6 2.5-18.9 3.6l-18.9 3.6-1.7.3v-1.8l.6-20.9.7-20.9c.3-7 .5-14 .8-20.9.3-7.1.6-14.1 1-21.1z"/></g><g><path class="st17" d="M358.7 371c2.2 5.8 4.3 11.6 6.4 17.5 2.1 5.9 4.1 11.7 6.1 17.6 2 5.9 4 11.8 5.9 17.6l5.8 17.7.5 1.7-1.7.3-13.9 2.2-13.9 2.1 1.1-1.6 2.2 10.5 2.1 10.6c.7 3.5 1.4 7 2 10.6.7 3.5 1.3 7.1 1.9 10.6-1-3.5-1.9-6.9-2.8-10.4-.9-3.5-1.8-6.9-2.7-10.4l-2.6-10.4-2.6-10.5-.3-1.3 1.4-.2 13.9-2.4 13.9-2.3-1.2 1.9-5.7-17.7c-1.8-5.9-3.7-11.8-5.5-17.8-1.8-5.9-3.6-11.9-5.3-17.9-1.7-6-3.4-12-5-18z"/></g><path class="st21" d="M332.7 591.3s107.6-20.6 121.8 21.3c14.2 41.9 17.2 70.6 17.2 70.6M480.1 586.2s-24.5 12.6-16.4 54.8"/><g class="st10"><path class="st17" d="M779.8 369.7c7.9-.6 15.9-1 23.8-1.2l11.9-.3 11.9-.1 11.9.1c4 .1 7.9.1 11.9.2 7.9.2 15.9.5 23.8 1.2-7.9.6-15.9 1-23.8 1.2l-11.9.3-11.9.1-11.9-.1c-4-.1-7.9-.1-11.9-.2-7.9-.3-15.9-.6-23.8-1.2z"/></g><g><path d="M410.6 98.1h3.6v23.7h-3.6z"/></g></svg>