<svg version="1.1" id="Layer_1" xmlns="http://www.w3.org/2000/svg" x="0" y="0" viewBox="0 0 1000 870.9" style="enable-background:new 0 0 1000 870.9" xml:space="preserve"><style>.st1{fill:#cfb5f6}.st3{fill:#83af1c}.st4{fill:#231f20}.st5{fill:#784534}.st6{fill:#4570ad}.st7{opacity:.57;fill:#231f20}.st8{fill:#feac02}.st9{fill:#f0aa76}.st11{opacity:.75;fill:#231f20}.st12{opacity:.35}.st13{fill:#68696e}.st14{fill:#d5541a}.st17{fill:#fff}.st20{fill:#d1d3d4}.st21{fill:#606060}</style><path d="M480.7 620.9s-369.1-48.7-367.3-253.7S267.9 6.6 480.7 5c0 0 164.5-24.6 271.9 112.6 73.1 93.4 111.3 122 128.2 130.7 13.7 7.1 25.7 16.9 35.5 28.8 35.4 43.1 84.1 135.9-42.2 230.9-172.8 130.2-393.4 112.9-393.4 112.9z" style="fill:#e3d4f9"/><path class="st1" d="M834.2 517.7c-20.2 15.2-41 28.4-62.1 39.8-159.3 86.4-331.4 73-331.4 73S71.5 581.8 73.4 376.7c.2-25.4 2.8-50 7.5-73.7C114 135.6 254.3 16 440.7 14.6c0 0 164.5-24.6 271.9 112.6 73.1 93.4 111.3 122 128.2 130.7 13.7 7.1 25.7 16.9 35.5 28.8 35.4 43.2 84.2 136-42.1 231z"/><path d="M772.1 557.5c-159.3 86.4-331.4 73-331.4 73S71.5 581.8 73.4 376.7c.2-25.4 2.8-50 7.5-73.7 33.6 82.9 191.4 380.4 691.2 254.5z" style="opacity:.21;fill:#fff"/><path class="st3" d="M269.1 816.9c.9-1.5 2-2.8 3.2-4l.9-.9 1-.9c.6-.6 1.4-1.1 2-1.6 2.8-2.1 6-3.8 9.3-5.2l2.6-1 2.7-.9c1.7-.7 3.7-1.1 5.5-1.6.9-.3 1.9-.4 2.9-.7 1-.2 1.9-.5 2.9-.7 2-.4 4-.8 5.9-1.3-2.3-.2-4.5-.3-6.7-.4-1.1 0-2.2.1-3.3.2l-1.6.1-.8.1-.8.1c-1 .2-2.1.3-3.1.5-1.1.1-2 .4-3 .7-1 .3-2 .5-2.9.8l-2.8 1.1c-3.6 1.6-6.8 3.6-9.3 6.2-.6.7-1.2 1.3-1.7 2.1l-.8 1.1-.6 1.2c-.7 1.4-1.4 3.1-1.5 5zM88.6 842.9s-11.8-110 35-141.9c0 0 35.7-73.8 42.3-65.5 3.7 4.7-5.1 24.8-13.6 41.5-6.6 13-12.9 23.9-12.9 23.9s4.8-9.3 12.2-21.5c13.6-22.3 36.1-54.6 54.7-58.6l-53.4 73.3 33.8-37.2-26.4 44 46-39.3-19.6 28 25.6-21.7s3.8 9.7-6 11.5c0 0 5.7 0 0 10.5l32-33-17.8 25.7 10.4-1-16.7 14.7 11.8-2.1-23.3 28.7L226 701l-19.7 26.7 19.7-14.1-31.9 35.8s-28.4 60.1-31.4 80-18.5 3.1-18.5 3.1-12.5 6.3-12.7-11.3l-18.2 6s11.2 19.9 0 19.9c0 0-18.5-14.7-12.3-27.3 6.3-12.5 2.1-18.9 2.1-18.9l-14.5 42zM880.9 763.9c0 .3-7.6.4-7.6.7 0 .3 9.4.9 9.4 1.3 0 .3 7.1 1.3 7.1 1.6 0 .3 1.3 1 1.3 1.3 0 .3-17.2-1.6-17.2-1.3 0 .3 8.9 2 8.8 2.3-.1.3-.6.5-.7.9-.1.3 4.3 1.7 4.2 2-.1.3-4.9-.5-5-.2-.1.3-3.2-.3-3.3 0-.1.3 10.2 3.9 10.1 4.2-.1.3-.7.6-.8.9-.1.3-7.1-1.8-7.2-1.5-.1.3 4.9 2.7 4.8 3-.1.3-6-1.8-6.1-1.5-.1.3 6.1 3.5 5.9 3.8-.1.3 2.5 2.1 2.3 2.4-.1.3-3.5-.8-3.6-.6-.1.3 2.9 2.5 2.7 2.7-.2.3-7-3.1-7.2-2.8-.2.3 1.4 1.6 1.2 1.9-.2.3-.1.8-.3 1.1-.2.3-1.4 0-1.5.2-.2.3-1 .2-1.2.4-.2.3-4.8-2.6-5-2.3-.2.3-3.3-1.7-3.5-1.4-.2.3-3.6-2.1-3.8-1.8-.2.3 1.1 1.5.9 1.7-.2.3 6.3 5.8 6.1 6.1-.2.2 3.9 4.1 3.6 4.3-.2.2-1.8-.6-2-.4-.2.2-2.2-1-2.4-.8-.2.2 4.1 4.6 3.9 4.9-.2.2-12.3-10.6-12.5-10.3-.2.2 1.2 1.9 1 2.1-.2.2-2.4-1.6-2.6-1.4-.2.2 13.5 14.5 13.3 14.7-.2.2-7-6.2-7.2-6-.2.2-2.1-1.3-2.4-1.1-.2.2-3.3-2.7-3.5-2.5-.2.2-2-1.4-2.3-1.2-.2.2 10.9 13.3 10.7 13.6-.2.2-4.1-3.6-4.3-3.4-.2.2-2.1-1.5-2.4-1.2-.2.2 1 2.2.7 2.4-.2.2-5.1-5.3-5.4-5.1-.2.2-3.9-4-4.2-3.8-.3.2 9 12.5 8.7 12.7-.3.2 0 1.1-.3 1.3-.3.2-6.9-8-7.1-7.8-.3.2 1.2 2.7 1 2.9-.3.2 1.3 2.9 1 3.1-.3.2.9 2.3.6 2.5-.3.2-7.4-9.4-7.7-9.2-.3.2 2.3 4.4 2 4.6-.3.2 4.7 8 4.4 8.2-.3.2-9.1-12.4-9.3-12.2-.3.2 8.6 14.1 8.3 14.3-.3.2-1-.3-1.3-.1-.3.2-9.5-13.6-9.8-13.5-.3.2 2.2 4.6 1.9 4.7-.3.2 1.1 2.9.8 3.1-.3.2 5 9.4 4.7 9.6-.3.2-10.6-16.2-10.9-16.1-.3.2 1.1 2.9.8 3.1-.3.2-1.9-2.1-2.2-1.9-.3.2 10 18.5 9.7 18.7-.3.2-5.3-7.9-5.6-7.7-.3.2 3.8 8 3.5 8.2-.3.2-7.5-12.2-7.8-12-.3.2 3.4 7.4 3.1 7.6-.3.2-.9-.3-1.2-.2-.3.2-4.2-6.5-4.5-6.3-.3.2.4 2.1.1 2.2-.3.1 4.4 9.8 4.1 10-.3.1-5.9-9.9-6.2-9.8-.3.1-1.1-.9-1.4-.7-.3.1 2.7 6.7 2.4 6.8-.3.1.1 1.6-.2 1.8-.3.1.6 2.8.3 2.9-.3.1-6-10.8-6.3-10.7-.3.1 5.4 12.6 5.1 12.8-.3.1-7.5-14.1-7.7-14-.3.1 4.5 10.9 4.2 11.1-.3.1-1.5-1.6-1.8-1.4-.3.1-1.9-2.6-2.2-2.4-.3.1 2 5.9 1.7 6.1-.3.1-2.8-4.5-3.1-4.4-.3.1 3.8 10 3.5 10.1-.3.1-1.2-1-1.5-.9-.3.1-7.5-15.6-7.8-15.4-.3.1 6.4 16.4 6.1 16.5-.3.1-2.3-3.8-2.6-3.6-.3.1-4.6-9.2-4.9-9.1-.3.1-2-3.2-2.3-3.1-.3.1 1.3 4.7 1 4.8-.3.1 4.7 13.1 4.4 13.2-.3.1-5.1-10.7-5.4-10.6-.3.1-3.1-5.9-3.4-5.8-.3.1-1.1-1.1-1.4-1-.3.1 7.3 20.1 7 20.2-.3.1-1.5-2.1-1.8-1.9-.3.1-1.1-.9-1.4-.8-.3.1-3.6-7.4-3.9-7.3-.3.1-2.4-4.5-2.7-4.4-.3.1 4.2 13.1 3.9 13.2-.3.1-3.7-8.1-4-8-.3.1-2.6-5.1-2.9-5-.3.1.9 4.3.6 4.4-.3.1 1.5 6 1.2 6.1-.3.1-1.9-3.5-2.3-3.4-.3.1 2 7.6 1.7 7.7-.3.1-5-12.2-5.3-12.1-.3.1 1.5 6.1 1.2 6.2-.3.1-2.4-4.9-2.7-4.8l-.9.3c-.3.1 1.8 7.4 1.5 7.5-.3.1 1.3 6 1 6.1-.3.1-1.5-2.4-1.8-2.3-.3.1-4.4-11.3-4.7-11.2-.3.1 3.5 12.6 3.2 12.7-.3.1.5 3.8.2 3.9-.3.1-1.8-3.5-2.1-3.4-.3.1-.7.1-1 .2-.3.1-1.9-4-2.3-3.9-.3.1-3.7-9.8-4-9.7-.3.1 1.9 8.3 1.6 8.4-.3.1 1 5.3.6 5.4-.3.1-4.5-12.5-4.8-12.4-.3.1 1 5.6.7 5.7-.3.1-2.4-5.9-2.7-5.8-.3.1 3 12.3 2.7 12.4-.3.1-.4 1-.7 1.1-.3.1.5 3.9.2 4-.3.1-3.1-8.4-3.4-8.4-.3.1-2.6-6.6-2.9-6.5-.3.1 1.3 6.9 1 7-.3.1-1-1.2-1.3-1.1-.3.1 2.7 12 2.4 12.1-.3.1-3.6-10.6-3.9-10.5-.3.1.6 4.7.3 4.8-.3.1-3.4-10-3.7-10-.3.1 2.8 12.8 2.5 12.9-.3.1-1.1-1.6-1.4-1.5-.3.1-4.5-14.3-4.8-14.2-.3.1 3.2 14.6 2.9 14.6-.3.1-.7-.2-1-.1-.3.1-2.7-7.8-3-7.7-.3.1 2.7 12.9 2.3 13-.3.1-2.6-7.6-2.9-7.5-.3.1.3 4 0 4-.3.1-1.7-4.3-2.1-4.2-.3.1 1.5 8.8 1.2 8.8-.3.1-.8-.3-1.1-.2-.3.1-4.5-15.6-4.8-15.5-.3.1.5 4.9.2 5-.3.1.8 6.2.5 6.3-.3.1-.4 1.1-.7 1.2-.3.1-1.6-3.9-1.9-3.8-.3.1.5 5.2.2 5.2-.3.1-2.4-7.6-2.7-7.5-.3.1.6 5.3.2 5.3-.3.1-2.6-8.4-2.9-8.4-.3.1-.9-1-1.2-.9-.3.1 2.2 12.9 1.9 13-.3.1-.1 2.6-.4 2.7-.3.1-2.3-7.4-2.6-7.4-.3.1-1.4-3.2-1.7-3.2-.3.1-2.1-6.7-2.4-6.6-.3.1 2.2 13.3 1.9 13.4-.3.1-.6.3-.9.4-.3.1-3.1-11.4-3.4-11.3-.3.1 2.8 16.4 2.5 16.4-.3.1-.8-.4-1.1-.4-.3.1-4.1-16.8-4.4-16.8-.3.1.7 6.8.4 6.9-.3.1-.6.3-.9.3-.3.1-1.9-6.2-2.2-6.1-.3.1 2.9 18 2.6 18.1-.3.1-3.4-13.8-3.7-13.7-.3.1.4 5.3.1 5.4-.3.1-1.3-3.4-1.6-3.4-.3.1-2.1-7.4-2.4-7.4-.3.1-.9-1.3-1.2-1.2-.3.1-.4 1.2-.7 1.2-.3.1 2.8 18.5 2.5 18.6-.3.1-2.5-10-2.8-10-.3.1-2.3-9-2.6-8.9-.3.1 1.9 14.2 1.6 14.3-.3.1-1.2-3.1-1.5-3-.3.1.4 6.1.1 6.1-.3.1-.3 1.9-.6 1.9-.3.1-1.5-4.7-1.8-4.7-.3.1.7 7.6.3 7.7-.3.1-2.9-13.1-3.2-13-.3.1 1.2 10.9.9 11-.3.1-1.3-3.7-1.6-3.6-.3.1-2.6-11.5-2.9-11.4-.3.1 2.3 18.1 2 18.2-.3.1-1.6-6-2-5.9-.3.1-1.6-5.6-1.9-5.5-.3.1-.8-.8-1.1-.8-.3.1-.2 3.1-.5 3.2-.3.1.3 6.1 0 6.1s-1.1-2.8-1.4-2.7c-.3 0-2.9-14.9-3.3-14.8-.3 0-.3 2.3-.6 2.4-.3 0 2.1 18.4 1.8 18.4-.3 0-2.1-9.5-2.4-9.5-.3 0 .4 7 .1 7.1-.3 0-2.5-12.7-2.8-12.6-.3 0-.6.5-.9.5-.3 0 .2 5.6-.2 5.7-.3 0-2.1-10-2.4-9.9-.3 0 .1 5.3-.2 5.3-.3 0-.9-1.5-1.2-1.5-.3 0-.5 1.2-.8 1.2-.3 0-.6.6-.9.6-.3 0-.9-1.8-1.2-1.8-.3 0-.2 3.5-.5 3.6-.3 0-1.6-7.1-1.9-7.1-.3 0 1.3 15 1 15.1-.3 0 0 4.7-.4 4.7-.3 0-1.9-9.9-2.2-9.9-.3 0-1.6-7.5-1.9-7.4-.3 0 .4 8 0 8-.3 0-2-10.8-2.3-10.8-.3 0 .5 9.3.2 9.3s.6 10 .2 10c-.3 0-.8-1.5-1.2-1.4-.3 0-.3 2.7-.7 2.7-.3 0-1.2-4.2-1.5-4.2-.3 0-1.5-7.5-1.8-7.5-.3 0 .1 6.5-.2 6.5-.3 0-2.1-13.1-2.4-13-.3 0 .2 7.5-.1 7.5-.3 0-.3 2.8-.7 2.8-.3 0-.1 5.1-.4 5.2-.3 0-1.1-3.8-1.4-3.8-.3 0-1.4-7.5-1.8-7.5-.3 0 .7 13 .4 13-.3 0-.3 3.7-.6 3.7s-1.9-12.1-2.2-12.1c-.3 0-.1 5.8-.4 5.9-.3 0-.8-1-1.1-1-.3 0-2-14.2-2.4-14.2-.3 0-.3 3.4-.6 3.4s.9 15.7.5 15.8c-.3 0-2.2-16.5-2.5-16.4-.3 0 1 17.3.6 17.3-.3 0-.5 1.8-.8 1.8-.3 0-1.1-4.4-1.4-4.4-.3 0-1.5-9.1-1.8-9.1-.3 0-.6.4-.9.4-.3 0 .3 11 0 11s-2-15.8-2.3-15.8c-.3 0 .3 11.7 0 11.7s-.8-1.4-1.1-1.3c-.3 0-1.2-6.6-1.5-6.5-.3 0-.9-3.4-1.2-3.4-.3 0 .1 9.6-.2 9.6-.3 0-.7-.4-1-.3-.3 0-.6 1-.9 1-.3 0-1.6-12.3-1.9-12.3-.3 0-.6.1-.9.2-.3 0 .5 16.1.2 16.1s-1.1-6.2-1.4-6.2c-.3 0-.6.3-.9.3-.3 0-.1 7.7-.4 7.7-.3 0-.4 3.2-.8 3.3-.3 0-1.5-12.1-1.8-12.1-.3 0-.8-1.6-1.1-1.6-.3 0-.8-1.8-1.1-1.8-.3 0-.8-2.9-1.1-2.9-.3 0-.8-3.3-1.2-3.3-.3 0 .3 14.8-.1 14.8-.3 0-.6 1.4-.9 1.4-.3 0-1-5.6-1.3-5.6-.3 0-.6.9-.9.9-.3 0-.6.6-.9.6-.3 0-.7-.8-1-.7-.3 0-.5 2.7-.8 2.7-.3 0-.5 2.1-.9 2.1-.3 0-1.4-15.3-1.8-15.3-.3 0 .4 20.9.1 21-.3 0-1.4-15-1.7-15-.3 0-.3 7.6-.6 7.6s-.8-4.1-1.2-4c-.3 0-.7-1.6-1-1.6-.3 0-1-8.2-1.3-8.2-.3 0-.5 3.1-.8 3.1-.3 0 .1 18.2-.2 18.3-.3 0-1.4-18.8-1.7-18.8-.3 0-.6.7-.9.7-.3 0-.3 9.2-.6 9.2s-.7-2.4-1.1-2.4c-.3 0-.9-6.5-1.2-6.5-.3 0-.5 5.3-.8 5.3-.3 0-.4 6.8-.7 6.8-.3 0-1-10.6-1.3-10.6-.3 0-.1 17.2-.4 17.2-.3 0-1-12.5-1.4-12.5-.3 0-.4 9.8-.7 9.8-.3 0-.9-10.1-1.3-10.1-.3 0-.7-2.4-1-2.4-.3 0-.7-1.9-1-1.9-.3 0-.7-1.3-1-1.2-.3 0-.3 14.4-.6 14.4s-.8-8.1-1.2-8.1c-.3 0-.6.8-1 .8-.3 0-.7-1.8-1-1.8-.3 0-.4 13.5-.7 13.6-.3 0-.8-5.4-1.1-5.4-.3 0-.6.7-1 .7-.3 0-.9-14-1.2-14-.3 0-.5 8.4-.8 8.4-.3 0-.8-9.3-1.1-9.3-.3 0-.7-1.4-1-1.4-.3 0-.6 8.2-.9 8.2-.3 0-.5 11.6-.9 11.6-.3 0-.7-2.8-1-2.8-.3 0-.7-3.1-1-3.1s-.6 7.3-.9 7.3c-.3 0-.8-19.4-1.1-19.4-.3 0-.6 10.3-.9 10.3s-.6 8-1 8c-.3 0-.7-13.6-1-13.6-.3 0-.6 5.3-1 5.3-.3 0-.7 2.3-1 2.3-.3 0-.6-5.9-1-5.9-.3 0-.6-5.3-.9-5.3-.3 0-.6-.3-1-.3-.3 0-.6-.1-1-.1-.3 0-.7 8.8-1 8.8-.3 0-.6-11.1-.9-11.1-.3 0-.7 8.5-1 8.5-.3 0-.7 3.5-1 3.5-.3 0-.6-8.1-.9-8.1-.3 0-.8 10.3-1.1 10.3-.3 0-.5-10.9-.8-10.9-.3 0-.7 3.7-1 3.7-.3 0-.8 9.7-1.1 9.7-.3 0-.7 4-1 4-.3 0-.6-1.1-1-1.1-.3 0-.5-7.6-.8-7.6-.3 0-.8 7.3-1.1 7.3-.3 0-.5-5.3-.9-5.3-.3 0-.4-12-.7-12-.3 0-.6-2.4-.9-2.4-.3 0-.6-.1-1-.2-.3 0-1 12.3-1.3 12.3-.3 0-.4-8.3-.7-8.3-.3 0-1.1 16.1-1.4 16.1-.3 0-.6-2.3-.9-2.3-.3 0-.1-18.8-.4-18.8-.3 0-1.1 14.2-1.4 14.2-.3 0-.2-13.2-.5-13.2s-.7 2-1 2c-.3 0-1.1 13.8-1.4 13.7-.3 0-.2-12.3-.5-12.3s-.5-3.2-.8-3.2c-.3 0-.6-.3-.9-.3-.3 0-.7 2.6-1.1 2.6-.3 0-1 7.7-1.3 7.7-.3 0-.7.9-1 .9-.3 0-.7 1.7-1 1.7-.3 0-.5-2.7-.9-2.7-.3 0-.7 1.9-1.1 1.9-.3 0-.4-6-.7-6-.3 0-1 6.4-1.3 6.3-.3 0 0-12.1-.4-12.2-.3 0-1.2 11.3-1.5 11.3-.3 0 0-12.5-.3-12.5s-.7.4-1 .4c-.3 0-1.3 12.9-1.7 12.9-.3 0 0-11-.4-11-.3 0-.7 1.1-1 1.1-.3 0-1.5 15.5-1.9 15.5-.3 0 .1-13-.2-13-.3 0-.7.7-1 .7-.3 0-1.4 11.7-1.7 11.7-.3 0 0-10-.4-10-.3 0-1 5.3-1.3 5.2-.3 0-1.1 7.5-1.5 7.4-.3 0 .6-19.4.3-19.4s-.5-1.9-.8-2c-.3 0-.6-.9-.9-.9-.3 0-2 19.7-2.3 19.6-.3 0 0-9.5-.3-9.6-.3 0-1.1 6.1-1.4 6-.3 0-.6-.7-.9-.8-.3 0 .3-12.9 0-12.9s-.7 1.3-1.1 1.3c-.3 0-1.7 13.7-2 13.7-.3 0-.2-6.4-.5-6.4s-1.4 9.7-1.8 9.7c-.3 0 .7-17 .4-17-.3 0-1.6 11.3-1.9 11.3-.3 0-.8 1.7-1.1 1.7-.3 0 .8-16.6.4-16.6-.3 0-.7 1.2-1.1 1.1-.3 0-.5-1.6-.8-1.6-.3 0-1.5 10.1-1.9 10.1-.3 0 .1-8.4-.2-8.4-.3 0-2.1 16.1-2.4 16-.3 0-.2-5.4-.5-5.5-.3 0-1.1 5.2-1.5 5.2-.3 0 .3-9.6-.1-9.6-.3 0 .1-7.4-.2-7.5-.3 0-2.2 15.6-2.5 15.5-.3 0-.5-2-.8-2-.3 0 .9-15 .5-15.1-.3 0-1.8 11.3-2.1 11.3-.3 0 .4-9.9.1-9.9-.3 0-1 3.7-1.3 3.6-.3 0-2.1 13.8-2.4 13.8-.3 0 1.1-16.2.8-16.2-.3 0-.5-1.3-.8-1.3-.3 0-1.5 7.8-1.8 7.7-.3 0-1.6 8.3-1.9 8.3-.3 0-.2-3.8-.6-3.8-.3 0-.1-4.9-.4-4.9-.3 0-.2-4.3-.5-4.3s-.3-2.7-.6-2.8c-.3 0-1 3-1.3 3-.3 0-.9 2.4-1.2 2.3-.3 0-1.5 7.3-1.9 7.3-.3 0-.6-.4-.9-.4-.3 0 1.1-14.3.8-14.3-.3 0-2.1 12-2.5 11.9-.3 0-.7.3-1 .3-.3 0 1.1-14.1.8-14.1-.3 0-3.2 19.9-3.5 19.8-.3 0 .6-9.8.3-9.9-.3 0-1.3 5.3-1.7 5.2-.3 0-.2-3.5-.5-3.5s.8-10.7.5-10.8c-.3 0-2.2 11.1-2.5 11.1-.3 0 .3-7.3 0-7.3s-1.6 7.1-1.9 7c-.3 0 .4-7.8.1-7.8-.3 0 .1-5-.3-5-.3 0-1.2 3.7-1.5 3.7-.3 0-2.4 12-2.7 12-.3 0 1.7-16.3 1.4-16.3-.3 0-3.3 18.1-3.6 18.1-.3 0 1.2-12.7.9-12.8-.3 0-1.9 8.4-2.2 8.3-.3 0 .7-9.1.4-9.1-.3 0-.3-2.3-.6-2.4-.3 0-1.8 7.7-2.2 7.6-.3 0 1.1-11.1.8-11.2-.3-.1-2.2 10-2.5 9.9-.3-.1-2.1 9.2-2.4 9.2-.3-.1-.1-3.8-.4-3.9-.3-.1 1.5-13.1 1.2-13.2-.3-.1-.3-2.2-.6-2.2-.3-.1-3.9 19.4-4.2 19.4-.3-.1-.9 1.1-1.2 1-.3-.1.9-9.3.6-9.3-.3-.1 1.3-11.2.9-11.3-.3-.1-4.2 20.3-4.5 20.3-.3-.1-.6-.2-1-.3-.3-.1.4-6 .1-6.1-.3-.1 1.8-13.7 1.5-13.8-.3-.1-.8.8-1.1.7-.3-.1-.8 1-1.1.9-.3-.1-.5-.8-.8-.9-.3-.1-4.1 18.9-4.4 18.9-.3-.1-.4-1.6-.7-1.7-.3-.1.2-4.7-.1-4.7-.3-.1.3-5.1 0-5.2-.3-.1 1.4-11 1.1-11.1-.3-.1-1.8 6.1-2.1 6-.3-.1-2.8 10.8-3.1 10.8-.3-.1.8-7.6.5-7.6-.3-.1.9-8.1.6-8.1-.3-.1-.5-.6-.8-.7-.3-.1-3 11.8-3.3 11.7-.3-.1-2.4 8.4-2.7 8.3-.3-.1-.3-1.7-.7-1.7-.3-.1 1.3-9.6 1-9.7-.3-.1-2.3 8-2.6 7.9-.3-.1 1.6-10.6 1.2-10.6-.3-.1-.9 1.4-1.3 1.3-.3-.1.3-4.5 0-4.6-.3-.1-1.1 2.3-1.5 2.2-.3-.1-3.2 11.6-3.5 11.5-.3-.1 1.5-9.9 1.2-9.9-.3-.1-1.4 3.2-1.7 3.1-.3-.1-2.6 8.6-2.9 8.5-.3-.1.8-6.4.5-6.5-.3-.1-1.4 3-1.7 2.9-.3-.1 3.1-16.6 2.8-16.7-.3-.1-4.1 14.8-4.4 14.8-.3-.1 1.7-10.2 1.4-10.3-.3-.1-1.2 2.2-1.5 2.1-.3-.1-1 1.5-1.3 1.5-.3-.1-3.1 10.2-3.4 10.1-.3-.1 1.1-7.4.8-7.4-.3-.1-.7.2-1 .1-.3-.1 1.3-7.8.9-7.9-.3-.1.3-3.7-.1-3.8-.3-.1.1-3-.2-3-.3-.1-1.2 2.2-1.5 2.2-.3-.1-2.7 8.1-3 8-.3-.1 1.8-9.7 1.5-9.7-.3-.1-4.2 13.6-4.5 13.5-.3-.1.7-5.2.4-5.3-.3-.1 1.6-8.5 1.3-8.6-.3-.1-2.4 6.7-2.7 6.6-.3-.1-2.2 5.7-2.5 5.6-.3-.1 2.3-11 2-11.1-.3-.1-4.3 13.5-4.6 13.4-.3-.1-1.7 3.7-2 3.7-.3-.1 2-9.8 1.7-9.9-.3-.1 1.2-6.6.9-6.7-.3-.1-3.5 10.1-3.8 10-.3-.1-1.1 1.6-1.5 1.5-.3-.1 2.1-9.7 1.8-9.8-.3-.1 1.5-7.5 1.2-7.6-.3-.1-1.1 1.5-1.4 1.5-.3-.1-2 4.6-2.3 4.5-.3-.1 1.3-6.6 1-6.7-.3-.1-1.5 3-1.9 2.9-.3-.1-1 1-1.3.9-.3-.1-1.3 2.1-1.6 2-.3-.1.1-2.6-.2-2.7-.3-.1-.2-1.5-.5-1.6-.3-.1-2.5 5.8-2.8 5.7-.3-.1-3.8 9.9-4.1 9.8-.3-.1 2.6-10.5 2.3-10.6-.3-.1 1.3-6 1-6.1-.3-.1-1.4 2.3-1.7 2.2-.3-.1-3.8 9.5-4.1 9.4-.3-.1 3.6-13 3.3-13.1-.3-.1-5.6 15-6 14.9-.3-.1-1.6 2.8-1.9 2.7-.3-.1 3.3-11.9 3-12-.3-.1-2.1 4-2.4 3.9-.3-.1-2.2 4.4-2.5 4.2-.3-.1-1.9 3.3-2.2 3.2-.3-.1-.6-.4-.9-.5-.3-.1 2.8-9.9 2.5-10-.3-.1 0-2-.3-2.1-.3-.1 2.6-9 2.3-9.1-.3-.1-7.9 19.8-8.2 19.7-.3-.1 2.6-8.9 2.3-9-.3-.1 1.3-5.3 1-5.4-.3-.1.9-4.1.6-4.3-.3-.1-5.2 12.1-5.5 12-.3-.1 1.3-5.3 1-5.4-.3-.1-1.9 3.1-2.2 3-.3-.1 2.2-7.3 1.9-7.5-.3-.1 1.3-4.9 1-5.1-.3-.1-7.1 16.1-7.4 16-.3-.1 1.5-5.4 1.2-5.5-.3-.1 2.2-7.2 1.9-7.3-.3-.1-6.6 14.3-6.8 14.2-.3-.1 1.9-6.4 1.6-6.5-.3-.1-2.1 3.4-2.4 3.2-.3-.1-1.6 2.1-1.9 2-.3-.1 5-13.4 4.7-13.5-.3-.1-.2-1-.5-1.2-.3-.1-1.2 1.2-1.5 1.1-.3-.1 2.5-7.3 2.2-7.4-.3-.1-6.4 12.9-6.7 12.7-.3-.1-1 .6-1.3.5-.3-.1.1-1.8-.2-2-.3-.1 4-10.3 3.7-10.4-.3-.1-6.2 11.8-6.5 11.7-.3-.1-1 .5-1.3.3-.3-.1.4-2.5.2-2.6-.3-.1.2-2 0-2.2-.3-.1-2.4 3.5-2.7 3.4-.3-.1 3.2-8.1 2.9-8.2-.3-.1-2 2.6-2.3 2.4-.3-.1.6-2.6.3-2.7-.3-.1-2.3 3.2-2.6 3.1-.3-.1 4.5-10.2 4.2-10.3-.3-.1-.6-.2-.8-.4-.3-.1-1.7 2-2 1.8-.3-.2 1.7-4.4 1.4-4.5-.3-.2-3 4.3-3.3 4.1-.3-.2-4.4 6.8-4.7 6.7-.3-.2 1.8-4.5 1.5-4.7-.3-.2 3-6.6 2.7-6.7-.3-.2-.7 0-1-.1-.3-.2-7.1 11.1-7.4 10.9-.3-.2 6.9-13.1 6.6-13.2-.3-.2-3.2 4.3-3.5 4.1-.3-.2 1.4-3.4 1.1-3.6-.3-.2-6.1 8.8-6.3 8.6-.3-.2.2-1.5-.1-1.7-.3-.2.6-2.2.3-2.3-.3-.2-4.1 5.3-4.4 5.1-.3-.2 5.7-10 5.4-10.2-.3-.2-6.7 9.1-7 8.9-.3-.2 2.3-4.6 2-4.8-.3-.2-4.8 6-5.1 5.8-.3-.2 2.4-4.6 2.1-4.8-.3-.2-4.8 5.7-5 5.5-.3-.2 2.5-4.7 2.2-4.9-.3-.2 3.8-6.4 3.5-6.6-.3-.2-2 1.6-2.2 1.4-.3-.2-1.2.5-1.5.4-.3-.2 1.3-2.7 1-2.9-.3-.2 3.2-5.1 2.9-5.3-.3-.2-7.8 8.9-8 8.7-.3-.2 2.3-3.9 2.1-4.1-.3-.2 2.7-4.2 2.5-4.5-.2-.2-1.3.6-1.5.4-.2-.2-8.9 9.4-9.1 9.2-.2-.2 6.9-8.9 6.6-9.1-.2-.2-5.1 4.8-5.4 4.6-.2-.2.3-1.3.1-1.5-.2-.2.3-1.3 0-1.5-.2-.2-3.8 2.9-4 2.7-.2-.2.5-1.5.3-1.7-.2-.2 9.2-10.1 9-10.3-.2-.2-10.3 9.2-10.5 9-.2-.2-3.9 2.7-4.1 2.5-.2-.2 1.2-2.1.9-2.3-.2-.2-.2-.8-.4-1.1-.2-.2 1.9-2.6 1.7-2.9-.2-.2-.1-.8-.3-1-.2-.2-3.2 1.7-3.4 1.4-.2-.2 4.7-4.7 4.5-4.9-.2-.3 2.6-2.8 2.4-3-.2-.3 5-4.4 4.9-4.7-.2-.3-12.2 8.1-12.4 7.8-.2-.3 5.2-4.4 5-4.7-.2-.3 6.7-5.1 6.6-5.4-.2-.3-5.3 2.8-5.4 2.5-.2-.3-3.9 1.7-4.1 1.4-.2-.3-10.5 5.3-10.6 5-.2-.3 8.8-5.8 8.6-6-.2-.3 7.2-4.5 7.1-4.7-.1-.3-8.4 3.6-8.5 3.3-.1-.3-1.3-.1-1.4-.4-.1-.3 4.4-2.7 4.3-2.9-.1-.3-10.7 3.7-10.8 3.4-.1-.3-1.1-.5-1.2-.8-.1-.3 2.8-1.9 2.7-2.2-.1-.3.1-.9 0-1.2-.1-.3-.7-.6-.8-.9-.1-.3-1.6-.4-1.7-.7-.1-.3 4.6-1.9 4.6-2.2-.1-.3-.3-.7-.3-1-.1-.3 9.8-2.4 9.8-2.8-.1-.3 2-.7 2-1 0-.3-17.4 1.7-17.4 1.3 0-.3 18-2.4 17.9-2.7 0-.3-5.3 0-5.3-.3s-5.2-.3-5.2-.7c0-.3 6.5-.6 6.5-1 0-.3-17.2-1-17.2-1.3 0-.3 15-.1 15-.4 0-.3-13.2-1.7-13.2-2s16.6 1 16.6.7c0-.3-6.6-1.4-6.6-1.7 0-.3-5.5-1.6-5.5-1.9.1-.3 14.2 2.1 14.3 1.8.1-.3-9.6-2.6-9.5-2.9.1-.3-5.2-2-5.1-2.4.1-.3 2.5-.1 2.6-.4.1-.3 13.3 3.5 13.4 3.2.1-.3-17.9-6.7-17.8-7 .1-.3 16.6 5.4 16.7 5.1.1-.3-11.8-5.3-11.7-5.6.1-.3 10.6 3.8 10.7 3.5.1-.3-11.4-5.8-11.3-6.1.1-.3.2-.8.3-1.1.1-.3.2-.8.3-1.1.1-.3 8.4 3.7 8.5 3.4.2-.3-7.7-5.1-7.6-5.4.2-.3-2.3-2.3-2.1-2.6.2-.3 9 4.7 9.2 4.4.2-.3-7-5.3-6.8-5.6.2-.3 10.6 6.3 10.7 6 .2-.3 1 0 1.2-.2.2-.3-5.8-5-5.6-5.2.2-.3-5.7-5.2-5.5-5.4.2-.3 3.4 1.7 3.6 1.4.2-.3-1.3-2-1.1-2.3.2-.2 12.7 9.7 12.9 9.5.2-.2-2-2.4-1.8-2.7.2-.2-7.8-7.8-7.6-8 .2-.2 1.5.4 1.7.1.2-.2.7-.4.9-.6.2-.2 0-1 .2-1.3.2-.2 2 1 2.2.7.2-.2 9.1 8.3 9.3 8 .2-.2.9.2 1.2 0 .2-.2-6.8-8-6.5-8.2.2-.2 4.9 4.4 5.2 4.2.2-.2 4.3 3.9 4.5 3.7.2-.2-9.6-11.8-9.4-12 .2-.2 10.5 11.2 10.7 11 .2-.2-11.3-14.3-11.1-14.5.2-.2 6.1 6.3 6.4 6.1.2-.2 5 5.2 5.2 5 .2-.2-3.7-5.5-3.4-5.7.3-.2-1.9-3.5-1.6-3.7.3-.2 4.9 5.3 5.1 5.1.3-.2-3-5-2.7-5.2.3-.2 7.4 9 7.7 8.8.3-.2-.7-1.9-.4-2.1.3-.2-3.5-5.9-3.2-6.1.3-.2 2.1 1.9 2.3 1.7.3-.2.9.2 1.1 0 .3-.2-7.1-11.5-6.8-11.7.3-.2 5.2 6.5 5.4 6.3.3-.2 1.4 1 1.7.8.3-.2-3.8-7-3.5-7.1.3-.2-1.9-4.2-1.6-4.4.3-.2 7.7 10.9 8 10.7.3-.2-1.1-2.9-.8-3.1.3-.2 1.5 1.3 1.8 1.1.3-.2 5 7 5.2 6.9.3-.2-6.2-11.5-5.9-11.7.3-.2 3.1 4 3.4 3.8.3-.2 3.8 5.3 4.1 5.2.3-.2-4.4-9-4.1-9.1.3-.2-2.6-5.9-2.3-6.1.3-.2 5.4 8.4 5.7 8.2.3-.2 2.6 3.5 2.9 3.4.3-.2-5.6-11.7-5.4-11.8.3-.2 4.5 7 4.8 6.8.3-.2 1.6 1.7 1.9 1.5.3-.1-2.5-6.1-2.2-6.3.3-.1 6.5 11.2 6.8 11 .3-.1-4.4-10-4.1-10.1.3-.1 4.1 6.8 4.4 6.6.3-.1-1.8-5.1-1.6-5.2.3-.1 4.2 7.1 4.5 6.9.3-.1-6-13.7-5.7-13.8.3-.1.4-.7.7-.9.3-.1-.4-2.5-.1-2.6.3-.1-.8-3.2-.5-3.3.3-.1 9.1 17.9 9.4 17.8.3-.1-5.5-13.5-5.2-13.6.3-.1 1.6 1.9 1.9 1.8.3-.1 3.7 6.7 4 6.6.3-.1-1.4-4.7-1.1-4.9.3-.1 4.3 8.1 4.5 7.9.3-.1-3.4-9.3-3.1-9.4.3-.1-2.4-7.1-2.1-7.2.3-.1 3.9 7.5 4.2 7.4.3-.1-2.6-7.9-2.3-8 .3-.1 7.3 15.7 7.6 15.6.3-.1-2.3-7.2-2-7.3.3-.1-1.1-4.2-.8-4.4.3-.1 5.4 11.6 5.7 11.5.3-.1-1.2-4.7-.9-4.8.3-.1-4-11.8-3.7-11.9.3-.1-.2-2.2.1-2.4.3-.1 3.8 7.8 4.1 7.7.3-.1 3.3 6.8 3.6 6.7.3-.1 1.1 1.1 1.4 1 .3-.1-5.9-17.2-5.6-17.3.3-.1 2.3 4.3 2.6 4.1.3-.1.9.5 1.2.4.3-.1 3.4 7.5 3.8 7.4.3-.1.5-.4.8-.5.3-.1.4-.7.7-.8.3-.1-.9-4.3-.6-4.5.3-.1 3.6 8.2 3.9 8.1.3-.1-.5-3.3-.2-3.4.3-.1.8.4 1.1.3.3-.1-1.1-5.1-.8-5.3.3-.1 2.8 6.3 3.2 6.2.3-.1-3.8-13.1-3.5-13.2.3-.1 5.2 13.5 5.5 13.4.3-.1-3.7-13.2-3.4-13.3.3-.1.4-.8.7-.9.3-.1 5.8 15.6 6.1 15.5.3-.1-2.7-10.4-2.4-10.5.3-.1-2.6-10.3-2.3-10.4.3-.1 3.7 9.4 4 9.3.3-.1 3.3 8.3 3.6 8.2.3-.1-2.7-10.6-2.4-10.7.3-.1-.3-3.2 0-3.3.3-.1 2.7 6.6 3 6.5.3-.1 2.6 6.4 2.9 6.3.3-.1-3.1-12.4-2.8-12.5.3-.1 3.9 10.7 4.2 10.6.3-.1 1.9 4.2 2.2 4.1.3-.1-3.3-13.3-3-13.4.3-.1 3.1 8.4 3.5 8.4.3-.1-3.7-15-3.4-15.1.3-.1 3.1 8.4 3.4 8.3.3-.1-2.4-10.6-2-10.7.3-.1 4.3 12.9 4.7 12.9.3-.1-1.9-9.3-1.6-9.4.3-.1-.6-4.5-.3-4.6.3-.1 2.1 5.3 2.5 5.2.3-.1-.7-5.1-.4-5.2.3-.1 4.2 13.1 4.5 13 .3-.1-2.8-13.1-2.5-13.2.3-.1 2.1 5.5 2.5 5.4.3-.1 2.7 7.7 3 7.6.3-.1.5-.4.9-.5.3-.1 2 5.4 2.4 5.3.3-.1-.2-3.5.1-3.5.3-.1-1.9-9.9-1.6-10 .3-.1 1.1 1.6 1.4 1.5.3-.1 1.1 1.6 1.4 1.5.3-.1 2.1 5.7 2.4 5.6.3-.1-2.4-12.5-2.1-12.5.3-.1 2.3 6.6 2.6 6.6.3-.1 0-2.6.3-2.7.3-.1 2.8 8.8 3.1 8.8.3-.1 1.4 3.3 1.7 3.2.3-.1.4-1 .7-1.1.3-.1-2.7-14.3-2.4-14.4.3-.1 3.8 13.6 4.1 13.5.3-.1-2.6-14.1-2.3-14.2.3-.1 1.1 1.9 1.4 1.8.3-.1 2.5 8.2 2.8 8.1.3-.1 1.2 2.4 1.5 2.3.3-.1 1.4 3.2 1.7 3.2.3-.1-3.6-19.1-3.2-19.2.3-.1 4.3 16.4 4.6 16.4.3-.1-.9-7-.6-7.1.3-.1 2.2 7 2.5 6.9.3-.1.3-1.7.6-1.8.3-.1-3-17.2-2.7-17.3.3-.1 2.4 8.1 2.7 8 .3-.1 2.6 9.6 3 9.5.3-.1-1.4-10-1.1-10 .3-.1.8.5 1.1.4.3-.1-1.3-9.6-1-9.6.3-.1 3.1 12.2 3.4 12.1.3-.1.7.4 1 .3.3-.1-.1-4 .2-4.1.3-.1 2.7 10.3 3 10.3.3-.1 0-3.6.3-3.6.3-.1.4-1.1.7-1.2.3-.1-1.3-10.2-1-10.3.3-.1.9 1.4 1.2 1.4.3-.1 1.7 5.8 2.1 5.7.3-.1 1.7 5.9 2.1 5.9.3-.1.3-1.9.6-2 .3-.1-.1-4.4.2-4.4.3-.1 1.8 6.5 2.1 6.5.3-.1-2.3-16.5-2-16.5.3-.1.6-.6.9-.6.3-.1 1 2.2 1.4 2.1.3-.1.7 0 1-.1.3-.1 0-3.6.4-3.7.3-.1 3.2 14.7 3.5 14.7.3-.1-.9-9.1-.6-9.2.3-.1 2.3 9.7 2.6 9.7.3-.1-1.5-13-1.2-13 .3-.1 2.8 13 3.1 12.9.3-.1-.4-6.6-.1-6.7.3-.1-1-10.1-.6-10.1.3-.1 1.6 5.8 1.9 5.7.3-.1 1.1 2.6 1.4 2.5.3 0 .8 1.1 1.2 1.1.3 0-.1-5 .2-5 .3 0 3 15.2 3.3 15.2.3 0 .5-.7.9-.7.3 0-1.2-12.1-.9-12.2.3 0 1.7 7.2 2 7.2.3 0 .5-.7.9-.8.3 0 1.5 6.1 1.9 6.1.3 0-2.3-20.1-1.9-20.2.3 0 1.8 8 2.1 7.9.3 0 2.1 10 2.4 10 .3 0-1.3-13.7-.9-13.7.3 0 2.1 10.2 2.4 10.1.3 0 1.4 5.2 1.7 5.2.3 0-1.1-13-.8-13 .3 0 2.3 12.7 2.7 12.6.3 0-.5-8.9-.2-8.9s.1-3.9.5-3.9c.3 0-.5-8.6-.1-8.7.3 0 2 10.5 2.3 10.5.3 0-.2-6.5.2-6.5.3 0 1 2.7 1.3 2.6.3 0 2.5 15 2.8 15 .3 0 .3-2.9.6-2.9s.7.3 1 .3c.3 0-1.6-18.8-1.3-18.9.3 0 1.7 8.9 2 8.9.3 0 1.9 10.7 2.2 10.7.3 0-1.5-18.2-1.1-18.3.3 0 2.2 13.7 2.5 13.6.3 0-.9-13.6-.6-13.7.3 0 .8 1.4 1.1 1.3.3 0 2.2 14.1 2.5 14.1.3 0 0-5.5.4-5.5.3 0-.3-8.5.1-8.6.3 0 .9 2.5 1.2 2.5.3 0 1.1 4.5 1.4 4.5.3 0-.5-11.1-.2-11.1s1.9 12.6 2.3 12.5c.3 0 .6-.4.9-.5.3 0 1.2 5.7 1.5 5.7.3 0 .8 1.5 1.1 1.5.3 0-.2-8.8.1-8.8.3 0 .1-5.4.5-5.4.3 0 1.4 8 1.7 8 .3 0 .1-6.2.4-6.3.3 0 1.5 9.2 1.8 9.1.3 0 .6-.3.9-.4.3 0-.5-12.6-.2-12.7.3 0 2.2 17.3 2.5 17.3.3 0-.4-12-.1-12 .3 0 1.1 5.7 1.5 5.7.3 0 .7 1.1 1.1 1.1.3 0-.1-8.7.2-8.7.3 0 .8 2.3 1.2 2.3.3 0 .6-1.2.9-1.2.3 0 .9 3.8 1.3 3.8.3 0 1.3 8.7 1.6 8.7.3 0 .5-1.7.8-1.7.3 0-.8-19.6-.5-19.6.3 0 1.3 9 1.7 9 .3 0 .5-2.1.8-2.1.3 0 .3-4.9.6-4.9s1.9 17.7 2.2 17.7c.3 0 .7.9 1 .9.3 0-.2-12.7.1-12.8.3 0 .1-7.8.5-7.8.3 0 1.3 9.8 1.6 9.8.3 0 .2-7.1.5-7.1s.8 1.7 1.1 1.6c.3 0 .8 3 1.2 2.9.3 0 1.3 10 1.6 10 .3 0 .7.3 1 .3.3 0 .7 1.8 1.1 1.8.3 0-.5-19.8-.2-19.8s1.8 20.8 2.1 20.8c.3 0-.2-15.2.1-15.2.3 0 .9 5.2 1.3 5.2.3 0 0-12.2.3-12.2s1.2 10.5 1.5 10.5c.3 0 .2-9.6.5-9.6s.9 5.4 1.2 5.4c.3 0 .6-2.1.9-2.1.3 0 .5-2.7.9-2.7.3 0 1 7.4 1.3 7.3.3 0 1.2 11.8 1.5 11.8.3 0 0-15.6.3-15.7.3 0 .6-1.1.9-1.1.3 0 1.1 10.6 1.4 10.6.3 0 .9 5.7 1.2 5.7.3 0 .2-11.4.5-11.4s1 8.8 1.3 8.8c.3 0 0-18.3.3-18.3s.7.4 1 .3c.3 0 1 11 1.3 11 .3 0 .7 2.7 1.1 2.7.3 0 .6-3 .9-3 .3 0 .7.4 1 .4.3 0 .4-7.4.8-7.4.3 0 .7.9 1 .9.3 0 .9 10.4 1.3 10.4.3 0 .7 2.3 1 2.3.3 0 .5-7.6.8-7.6.3 0 .8 6.5 1.1 6.5.3 0 .7 2.6 1 2.6.3 0 .5-8.5.8-8.5.3 0 .8 6.6 1.1 6.6.3 0 .3-16.9.7-16.9.3 0 .9 12.9 1.2 12.9.3 0 .8 8.2 1.1 8.2.3 0 .5-11.8.8-11.8.3 0 .8 9.2 1.1 9.2.3 0 .6-2.3.9-2.3.3 0 .5-11.2.8-11.2.3 0 .8 14.4 1.1 14.4.3 0 .6.6 1 .6.3 0 .5-14.2.9-14.2.3 0 .7-.6 1-.6.3 0 .7 1.7 1 1.7.3 0 .7 1.6 1 1.6.3 0 .6-.9 1-.9.3 0 .7 1.4 1 1.4s.7 5.3 1 5.3c.3 0 .6 4.2 1 4.2.3 0 .6 1.7 1 1.7.3 0 .7-8.9 1-8.9.3 0 .6 4.4 1 4.4.3 0 .6 1.1 1 1.1.3 0 .7-15.7 1.1-15.7.3 0 .5 18.6.9 18.6.3 0 .8-18.3 1.1-18.3.3 0 .6 3.8.9 3.8.3 0 .5 15 .8 15 .3 0 .7-4.5 1-4.5.3 0 .7-5.4 1-5.4.3 0 .6 5.9.9 5.9.3 0 .7-1.9 1-1.9.3 0 .6 1.2.9 1.2.3 0 .6.7 1 .7.3 0 .9-16.2 1.3-16.2.3 0 .3 19.9.6 19.9s.7-3.1 1-3.1c.3 0 .7-.9 1-.9.3 0 1-14.9 1.3-14.9.3 0 .7-1.9 1-1.9.3 0 .1 21.6.4 21.6.3 0 .6-.3 1-.3.3 0 1-11.7 1.3-11.7.3 0 .9-7.4 1.2-7.4.3 0 .5 5.9.8 5.9.3 0 .8-4.4 1.1-4.4.3 0 .2 14.1.5 14.1s1.2-15.5 1.5-15.5c.3 0 .5 5.1.8 5.1.3 0 .8-3 1.1-3 .3 0 .1 13.9.5 13.9.3 0 .5 3.8.8 3.8.3 0 1.1-11.5 1.4-11.5.3 0 .4 5.2.8 5.2.3 0 1-7.8 1.3-7.8.3 0 .5 4.4.8 4.4.3 0 .4 6.4.7 6.4.3 0 1.3-14.3 1.6-14.3.3 0 .5 4.2.8 4.2.3 0 .6 1.7.9 1.7.3 0 .1 11.8.4 11.8.3 0 1-8.2 1.4-8.1.3 0 .4 5.6.7 5.6.3 0 1.3-13.6 1.7-13.6.3 0 .8-3.7 1.2-3.6.3 0-.5 20.5-.1 20.5.3 0 1.1-7.8 1.4-7.8.3 0 1-7.1 1.4-7.1.3 0-.2 13.9.2 13.9.3 0 .6.8.9.8.3 0 .7-1.5 1.1-1.5.3 0 1-5.1 1.3-5.1.3 0 .5 1.8.9 1.8.3 0 .8-1.7 1.1-1.7.3 0 .4 4 .7 4 .3 0 1.7-15.7 2-15.7.3 0-.5 17.4-.2 17.5.3 0 1.3-10.3 1.7-10.3.3 0 .6.9.9.9.3 0 .9-3.9 1.2-3.9.3 0 .2 6.5.5 6.5s1-5.3 1.4-5.3c.3 0 .9-3.1 1.2-3 .3 0 .3 4.8.6 4.8s1.4-9.1 1.7-9.1c.3 0-.3 12 0 12s.3 3.9.7 3.9c.3 0 .7-.8 1-.8.3 0 .7-.3 1-.3.3 0 .7-.8 1-.8.3 0 1.5-9.8 1.8-9.8.3 0 .5 2.3.8 2.4.3 0-.7 16-.4 16 .3 0 2.3-19.2 2.7-19.2.3 0 .2 5.4.5 5.4s.3 3.9.6 3.9 1.5-9.3 1.8-9.3c.3 0 .5 1.7.8 1.8.3 0 .4 2.9.7 2.9.3 0 .5 1.3.8 1.4.3 0-.7 13.4-.3 13.4.3 0 1.9-12.3 2.2-12.3.3 0 .7-1 1.1-.9.3 0 .1 5.2.4 5.2.3 0 1.7-10.6 2.1-10.6.3 0 .6.6.9.6.3 0 .3 3.5.6 3.5s.7-.3 1-.2c.3 0 .6.7.9.8.3 0 .8-1.2 1.1-1.2.3 0 .9-2.5 1.3-2.5.3 0-.4 9.4-.1 9.4.3 0 .9-2.1 1.2-2.1.3 0 .9-1.8 1.2-1.8.3 0-.1 6.3.2 6.3.3 0 1.8-9.4 2.1-9.3.3 0 .7-.4 1-.4.3 0-1.1 15-.8 15 .3 0 .8-1.5 1.1-1.4.3 0 1.5-6.7 1.8-6.7.3 0 1.7-8.5 2-8.5.3 0-.4 8.4-.1 8.5.3 0 .8-1.6 1.2-1.5.3 0 1.3-5.1 1.6-5 .3 0 .8-1 1.1-.9.3 0-1.6 17.3-1.3 17.3.3 0 2.5-14.3 2.9-14.3.3 0-.7 10.4-.4 10.4.3 0 .6.6.9.7.3 0 2.6-14.5 3-14.4.3 0-1.2 13.4-.9 13.5.3 0 1.7-7.2 2-7.1.3 0 .9-1.7 1.2-1.7.3 0-1.3 13.6-1 13.6.3 0 2.8-15.2 3.2-15.2.3 0-1.6 15.1-1.2 15.2.3 0 .4 1.3.8 1.3.3 0 2.3-11.2 2.6-11.2.3 0 2.1-9.3 2.4-9.2.3 0 .5 1.4.8 1.5.3 0-1.7 15.7-1.4 15.7.3 0 3.1-15.7 3.4-15.7.3 0-2.4 19.2-2 19.3.3.1 2-8.5 2.3-8.4.3.1 1.1-2.8 1.4-2.7.3.1.9-1.4 1.2-1.4.3.1-.5 6.9-.1 6.9.3.1-.4 6.3-.1 6.4.3.1 1.3-3.9 1.6-3.9.3.1 1.3-3.9 1.6-3.8.3.1-.9 9.3-.6 9.4.3.1 4.1-20.1 4.4-20 .3.1.6.3.9.4.3.1-1.8 13.9-1.4 14l.9.3c.3.1 1.7-5.7 2-5.7.3.1.7-.5 1.1-.4.3.1-1.7 13.1-1.4 13.1.3.1 1.1-2.7 1.5-2.7.3.1.1 2.8.4 2.9l.9.3c.3.1 4.1-18.5 4.4-18.4.3.1.3 1.7.7 1.8.3.1 1.3-3.1 1.6-3 .3.1-3 19-2.7 19.1.3.1 2.9-11.5 3.2-11.4.3.1.4 1.5.7 1.5.3.1.2 2.6.5 2.6.3.1 2.7-10 3-10 .3.1-.1 4.1.2 4.1.3.1 1.7-5 2-4.9.3.1-1.6 11.1-1.3 11.1.3.1 2.8-10.3 3.1-10.2.3.1-1.7 11.5-1.4 11.5.3.1 1.8-5.4 2.1-5.3.3.1-2.2 13.7-1.9 13.7.3.1 4.9-19.7 5.2-19.6.3.1.4 1.4.7 1.4.3.1-1.9 11.7-1.6 11.7.3.1 1-1.6 1.3-1.5.3.1-1.5 9.5-1.1 9.6.3.1 1.5-3.7 1.8-3.6.3.1 4.6-17.6 4.9-17.5.3.1-1.8 11-1.5 11 .3.1.1 2.4.4 2.5.3.1-1.2 7.8-.8 7.9.3.1 2.4-7.4 2.7-7.4.3.1-.8 6.4-.5 6.5.3.1 2.7-8.6 3-8.5.3.1-1.1 7.3-.8 7.4.3.1-.2 3.4.1 3.5.3.1 2.5-7.8 2.9-7.7.3.1 3.3-10.8 3.6-10.7.3.1-2.5 12.6-2.1 12.7.3.1 2.2-6.3 2.6-6.3.3.1-2.3 11.7-2 11.8.3.1 2.1-5.7 2.4-5.6.3.1 2.2-6 2.5-5.9.3.1-1.3 7.5-1 7.6.3.1-.5 4.3-.1 4.4.3.1.6.3.9.4.3.1 3.4-10.3 3.7-10.2.3.1-.2 3.1.1 3.2.3.1 1.4-2.7 1.7-2.6.3.1-2 9.9-1.7 10 .3.1-.1 2.9.2 2.9.3.1 3.5-10.2 3.8-10.1.3.1-.5 4.2-.2 4.3.3.1 2.8-7.5 3.1-7.4.3.1-.3 3.4 0 3.5.3.1 2.9-7.8 3.2-7.7.3.1-4.2 16.7-3.8 16.8.3.1 5.6-16.8 5.9-16.7.3.1-.1 2.8.2 2.9.3.1.5.7.8.8.3.1 1.8-3.7 2.1-3.6.3.1.9-.5 1.2-.4.3.1-4.9 18.2-4.5 18.3.3.1 1.5-2.6 1.8-2.5.3.1 5.3-14.9 5.6-14.8.3.1-4.9 17.7-4.5 17.8.3.1 5.1-14 5.4-13.9.3.1-4.1 15-3.8 15.1.3.1 6.7-18.8 7-18.7.3.1-3.8 13.8-3.5 13.9.3.1-1 5.1-.7 5.2.3.1 2.3-5 2.6-4.9.3.1-1.2 5.5-.9 5.6.3.1 0 2 .3 2.1.3.1 3.7-8.9 4-8.8.3.1-2.5 9.2-2.2 9.3.3.1 6.8-17.7 7.1-17.6.3.1-3.7 12.5-3.4 12.6.3.1 3.5-8 3.8-7.9.3.1-1.1 5-.8 5.1.3.1-2.6 9.1-2.3 9.2.3.1 4.8-11.4 5.1-11.2.3.1-1.7 6.5-1.4 6.6.3.1-1.2 5.2-.9 5.3.3.1 2.5-4.9 2.8-4.8.3.1 3.3-7 3.6-6.9.3.1 3-6.1 3.3-6 .3.1-3.2 10.3-2.9 10.4.3.1 3.4-7 3.7-6.8.3.1-5.8 16.6-5.5 16.7.3.1 2.5-4.8 2.8-4.6.3.1 2.9-5.6 3.2-5.4.3.1 3.4-6.8 3.7-6.7.3.1-6.2 17.1-5.9 17.2.3.1.9-.6 1.2-.5.3.1 2.7-4.9 3-4.8.3.1-2.3 7.2-2 7.3.3.1 3.5-6.7 3.8-6.5.3.1 4-7.7 4.3-7.6.3.1-.4 2.5-.1 2.7.3.1-2.1 6.5-1.8 6.7.3.1 4.2-8 4.5-7.9.3.1-3.6 9.6-3.3 9.8.3.1 4.1-7.6 4.4-7.4.3.1-1.3 4.5-1 4.7.3.1 5.3-10 5.6-9.8.3.1-8.3 19.5-8.1 19.7.3.1 3.2-5.4 3.5-5.2.3.1 1.2-1.1 1.5-1 .3.1 5.5-9.9 5.7-9.7.3.1-1 3.6-.7 3.8.3.1 3.5-5.6 3.8-5.4.3.1-9.1 19.9-8.9 20 .3.1 3.4-5.4 3.7-5.2.3.1 2.5-3.5 2.8-3.3.3.1-.1 1.6.2 1.8.3.1-3.4 7.9-3.1 8.1.3.1 6.5-11.1 6.8-11 .3.2 2.4-3.1 2.7-3 .3.2.7.2 1 .3.3.2-.8 2.8-.5 3 .3.2 3.3-4.6 3.6-4.5.3.2-4.5 9.4-4.2 9.5.3.2-2.5 5.7-2.2 5.9.3.2 9.3-14.9 9.6-14.7.3.2-10 18.5-9.8 18.6.3.2 9.1-14.2 9.4-14 .3.2-5.8 10.9-5.5 11.1.3.2 6.2-9 6.5-8.9.3.2-4.2 8.1-4 8.3.3.2 3.7-4.7 4-4.5.3.2-1.6 3.7-1.3 3.9.3.2 6.3-8.6 6.6-8.4.3.2-9.1 15.1-8.9 15.3.3.2 11-15.4 11.3-15.2.3.2-9.8 15.7-9.6 15.9.3.2 10.7-14.5 11-14.3.3.2-9.1 14.2-8.9 14.4.3.2 9.8-12.7 10.1-12.6.3.2-9.9 14.9-9.7 15.1.3.2.5.3.8.5.3.2 11.6-14.5 11.9-14.3.3.2-6.4 9.5-6.1 9.7.3.2 8.9-10.5 9.2-10.3.3.2-13.3 17.9-13.1 18.1.3.2 7.5-8.4 7.7-8.2.3.2-.8 2-.6 2.2.2.2-4.4 6.2-4.2 6.4.2.2 4.7-4.6 4.9-4.4.2.2 9.7-10.1 10-9.9.2.2-3.5 5.1-3.3 5.3.2.2-3.7 5-3.4 5.2.2.2-3.9 5-3.6 5.2.2.2.9-.1 1.1.1.2.2 8.2-7.5 8.4-7.3.2.2 4.3-3.3 4.6-3.1.2.2-4.9 5.8-4.7 6 .2.2 4-2.8 4.2-2.6.2.2 2.6-1.4 2.8-1.2.2.2-9.7 9.7-9.5 9.9.2.2 6.5-4.9 6.7-4.6.2.2-5.5 5.5-5.3 5.8.2.2 1.6-.6 1.8-.3.2.2 4.7-2.9 4.9-2.7.2.3 4.2-2.3 4.4-2 .2.3-11.1 9.1-10.9 9.4.2.3 1.7-.6 1.9-.3.2.3.7.2.9.5.2.3 6.1-3.3 6.3-3.1.2.3 6.7-3.4 6.9-3.1.2.3-14.8 9.9-14.6 10.1.2.3 14.9-7.9 15-7.7.2.3-9.6 6.2-9.4 6.5.2.3-2.1 1.8-2 2.1.1.3 8.7-3.7 8.9-3.4.1.3-3.7 2.6-3.6 2.8.1.3 9.3-3.3 9.5-3 .1.3-4.2 2.7-4.1 2.9.1.3-3.1 2-3 2.3.1.3-10 4.2-9.9 4.5.1.3-1 .8-.9 1.1.1.3 20.9-5.7 21-5.4.1.3-8.3 3.1-8.2 3.5.1.3-11.1 3.3-11.1 3.6.1.3 3.2-.3 3.3.1.1.3 14.6-2.1 14.7-1.8.1.3-19.5 3.7-19.5 4 0 .3 13.3-1.2 13.4-.9 0 .3-9.6 1.5-9.6 1.9s1.1.4 1.1.7c0 .3 9.7.2 9.7.5-1.8-.2-6.7.2-6.7.6z"/><path class="st4" d="M604.8 119.8s14.3-33.2 7.5-45.2l-5.5 5-9.1-15.7h-31.9l18.4 36.2 12.6 5.2 8 14.5z"/><path class="st5" d="M692.7 780.8s-29.1 28.7-6.3 40.4h39.3s24.4-4.1 16.5-35v-5.4h-49.5z"/><path class="st4" d="M685.6 805.2c4.7 2.1 9.5 3.7 14.5 4.7 4.9 1 10 1.4 14.9.6 4.9-.7 9.6-2.5 13.8-5.3 4.1-2.8 7.7-6.5 10.8-10.5-2.3 4.6-5.6 8.7-9.8 12-2.1 1.6-4.4 2.9-6.8 4-2.4 1-5 1.7-7.6 2.1-5.2.8-10.6.2-15.6-1.1-5.2-1.4-10-3.5-14.2-6.5z"/><path class="st5" d="M589.8 758.6s9.4 5.5 8.6 29.1c0 0-3.9 9.5-25.9 6.7s-53.4 14.5-53.4 14.5-35.7 8.7-38.3-14.5c-2.6-23.2 34.3-24.8 34.3-24.8l12.8-11 7.6-3.9 54.3 3.9z"/><path class="st4" d="M481.9 797.2c3.8.9 7.6 1.6 11.5 2.1 3.8.5 7.7.8 11.5.8 3.8.1 7.7-.2 11.5-.7 3.8-.4 7.6-1.4 11.4-2.3-3.5 1.8-7.2 3.3-11.1 4l-1.5.3-1.5.2c-1 .1-2 .3-2.9.4-2 .1-4 .3-5.9.2-4-.1-7.9-.5-11.8-1.4-3.9-.6-7.7-1.8-11.2-3.6zM518 770.1c1.1.3 2.1.9 3 1.4.9.6 1.8 1.2 2.6 1.9s1.6 1.5 2.3 2.3c.7.8 1.3 1.7 1.8 2.8-1.1-.3-2.1-.9-3-1.4-.9-.6-1.8-1.2-2.6-1.9s-1.6-1.5-2.3-2.3c-.6-.9-1.3-1.7-1.8-2.8zM558.3 786.6c3.2-.5 6.3-.9 9.5-1.2 3.1-.4 6.3-.8 9.4-1.3 1.6-.2 3.1-.5 4.6-.8 1.5-.3 3.1-.7 4.6-1 3-.8 6-1.8 8.6-3.7-.9 1.3-2.2 2.4-3.6 3.3-1.4.9-2.9 1.6-4.4 2.1-3 1.2-6.2 1.9-9.4 2.4s-6.4.8-9.6.8c-3.2 0-6.5-.1-9.7-.6z"/><path class="st6" d="M579.6 424.2s-36.1 118.9-40.1 198.3c-3.9 79.3-3.1 98.2-3.1 98.2s8.5 18.9-.1 22-8.6 17.3-8.6 17.3 33.5 23.6 63.5 13.4c0 0 15.1-95.8 6.4-127.3-8.6-31.4 0-42.4 0-42.4l-3.1-11 50.3-113.1L651 600s17.3 141.1 33.8 156.8l4.7 4.7s-5.5.8-3.9 9.4c0 0-10.2 7.1.8 11.8 11 4.7 36.9 19.6 60.5 0 0 0-13.4-95.1-32.2-134.3 0 0 3.1-14.1-5.5-18.1 0 0 13.4-6.3-.8-18.1l3.9-14.1s17.3-15.7 12.6-47.1c0 0 7.9-8.6 0-23.6 0 0 8.6-105.3-3.1-126.5-.1 0-57.4 41-142.2 23.3z"/><path class="st7" d="M670.7 531.3c4.3 1.5 8.7 2.8 13.1 3.8 2.2.5 4.4.9 6.7 1.3 2.2.4 4.5.7 6.7.9 4.5.4 9 .3 13.4-.5 4.3-.9 8.4-2.8 11.2-6.1l.5-.6.7.4c1.5.8 2.8 1.7 3.9 2.9 1.2 1.1 2.2 2.5 2.9 4 .3.8.6 1.6.7 2.4 0 .4.2.8.2 1.3v1.3c0 .4-.1.8-.2 1.2l-.3 1.2c-.3.8-.6 1.5-1 2.3l-1.3 2.1c-.4.7-1 1.2-1.5 1.9-1 1.3-2.3 2.3-3.6 3.2-2.7 1.8-5.8 2.8-8.8 3.4-6.1 1.3-12.4 1.1-18.4.5-6.1-.6-12.1-1.7-18-3.3h.1c-1.3-.2-2.4-.6-3.4-1.3-.5-.3-1-.7-1.4-1.1-.4-.4-.8-.9-1.2-1.3-1.4-1.9-2.2-4.2-2.4-6.5-.1-.6-.1-1.1-.1-1.7 0-.6-.1-1.1 0-1.7.1-1.1.1-2.3.3-3.4.2-1.1.3-2.2.6-3.3l.6-3.3zm0 0-.6 3.3c-.2 1.1-.2 2.2-.4 3.3-.1 1.1-.1 2.2-.1 3.3 0 .6.1 1.1.1 1.7.1.5.1 1.1.2 1.6.3 2.2 1.2 4.2 2.5 5.9 1.3 1.6 3.3 2.7 5.3 2.9h.2c5.9 1.3 11.9 2.3 17.8 2.7 6 .5 12 .5 17.8-.7 2.9-.6 5.7-1.6 8-3.2 1.2-.8 2.2-1.7 3.1-2.8.4-.6 1-1.1 1.4-1.7l1.1-1.8c1.4-2.5 1.7-5.3.6-7.8-1.1-2.4-3.3-4.5-5.7-5.9l1.3-.3c-3.2 3.7-7.9 5.7-12.4 6.5-4.6.8-9.3.7-13.9.1-4.6-.5-9.1-1.5-13.4-2.8-4.4-1-8.7-2.4-12.9-4.3zM673 557.5c-1.2 3.1-2.2 6.2-3 9.4-.8 3.2-1.4 6.4-1.7 9.6-.3 3.2-.2 6.4.7 9.4.4 1.5 1.1 2.9 1.9 4.1.8 1.3 2 2.3 3.2 3.1.7.4 1.3.8 2 1.1.4.1.7.3 1.1.5l1.1.3c1.5.4 3 .7 4.7.9 3.2.5 6.5.9 9.7 1.4 3.3.4 6.5.7 9.8.9 3.3.2 6.6.4 9.8-.2-1.6.6-3.2.8-4.9 1-1.6.2-3.3.3-5 .3-3.3.1-6.6-.1-9.9-.3-3.3-.2-6.6-.6-9.9-1-1.6-.2-3.3-.4-5-.9l-1.3-.4c-.4-.1-.8-.3-1.2-.5-.8-.3-1.6-.8-2.3-1.2-1.5-1-2.8-2.3-3.8-3.8s-1.7-3.1-2.1-4.8c-.8-3.4-.8-6.9-.4-10.2 1-6.6 3.4-12.9 6.5-18.7zM707.4 563.3c.2 2.1.2 4.3.2 6.4-.1 2.1-.2 4.2-.5 6.3-.2 2.1-.6 4.2-1 6.3-.4 2.1-.9 4.1-1.6 6.2-.2-2.1-.2-4.3-.2-6.4.1-2.1.2-4.2.5-6.3.2-2.1.6-4.2 1-6.3.4-2.1.9-4.2 1.6-6.2z"/><path class="st7" d="M685.6 592.1c1.9.1 3.7.3 5.5.5l5.4.6 5.4.6 5.5.4c-1.7.8-3.6 1.2-5.5 1.4-1.9.2-3.8.1-5.6-.1-1.9-.2-3.7-.6-5.5-1.2-1.8-.5-3.6-1.2-5.2-2.2zM685.6 610.9c1.9-.1 3.8.1 5.6.3 1.8.2 3.7.5 5.5.9 1.8.4 3.6.9 5.4 1.4 1.8.6 3.5 1.2 5.3 2-1.9.1-3.8-.1-5.6-.3-1.8-.2-3.7-.5-5.5-.9-1.8-.4-3.6-.9-5.4-1.4-1.8-.5-3.6-1.1-5.3-2zM696.5 620.9c1.1.3 2 .8 2.9 1.3.9.5 1.7 1.1 2.5 1.8s1.5 1.4 2.2 2.2c.7.8 1.3 1.6 1.8 2.7-1.1-.3-2-.8-2.9-1.3-.9-.5-1.7-1.1-2.5-1.8s-1.5-1.4-2.2-2.2c-.7-.9-1.3-1.7-1.8-2.7zM571.4 594.7c3.7 4.8 7.2 9.6 10.7 14.6 3.5 4.9 6.8 9.9 10.2 14.9l-2 1.1c-1.6-4-3.3-7.9-4.9-12-1.6-4-3.1-8-4.6-12.1l-.7-1.8 1.6 1c3.2 2.1 6.5 4.1 9.6 6.3-3.5-1.7-6.9-3.4-10.3-5.2l.9-.8c1.8 3.9 3.6 7.8 5.3 11.8 1.7 3.9 3.4 7.9 5.1 11.9l-2 1.1c-3.3-5-6.6-10.1-9.7-15.2-3.1-5.2-6.2-10.3-9.2-15.6zM696.5 424.2c1.3 2 2.5 4 3.9 5.8 1.4 1.8 2.9 3.5 4.6 4.9 1.7 1.4 3.6 2.5 5.7 3.1 2.1.6 4.4.6 6.8.4-2.1 1.1-4.7 1.7-7.2 1.3-2.5-.3-4.9-1.5-6.8-3.1-1.9-1.6-3.4-3.6-4.6-5.7-1.2-2.1-2-4.3-2.4-6.7zM712.3 443.4c.3 3.6.4 7.3.4 10.9 0 3.6-.1 7.2-.3 10.9-.2 3.6-.4 7.2-.8 10.8-.3 3.6-.8 7.2-1.4 10.8-.3-3.6-.4-7.3-.4-10.9 0-3.6.1-7.2.3-10.9.2-3.6.4-7.2.8-10.8.3-3.6.8-7.3 1.4-10.8zM609.7 477.4c-.3 3.3-.8 6.5-1.4 9.8-.6 3.2-1.3 6.4-2 9.6-.8 3.2-1.6 6.4-2.5 9.5-.9 3.1-1.9 6.3-3.1 9.4.3-3.3.8-6.5 1.4-9.8.6-3.2 1.3-6.4 2-9.6.8-3.2 1.6-6.4 2.5-9.5.9-3.2 1.9-6.3 3.1-9.4zM547.9 635.6c2.2 8.9 4.2 17.9 6.1 26.9 1.9 9 3.7 18 5.5 27.1 1.7 9 3.4 18.1 5 27.1 1.6 9.1 3.1 18.2 4.4 27.3-2.2-8.9-4.2-17.9-6.1-26.9-1.9-9-3.7-18-5.5-27.1-1.7-9-3.4-18.1-5-27.1-1.7-9.1-3.1-18.2-4.4-27.3zM693.5 774.3c2.1-.6 4.2-1.1 6.3-1.6 2.1-.5 4.2-1.1 6.4-1.6 4.2-1 8.5-2 12.8-3l.1 1.9c-5.4-.3-10.6-1.4-15.7-3.1-5.1-1.7-10-4.1-14.3-7.3-2.2-1.6-4.2-3.4-5.9-5.5-1.8-2-3.4-4.2-4.6-6.6l-.5-.9-.4-.9c-.3-.6-.6-1.2-.8-1.8-.4-1.3-.9-2.5-1.2-3.8-.7-2.6-1-5.2-1.2-7.8 1 5.2 2.6 10.2 5.4 14.6 1.3 2.2 2.9 4.2 4.7 6.1 1.8 1.9 3.7 3.6 5.8 5 2.1 1.5 4.3 2.8 6.6 3.9s4.7 2.1 7.2 2.9c2.4.8 4.9 1.5 7.5 2.1 2.5.6 5.1 1 7.6 1.2l7.4.6-7.3 1.3c-4.3.8-8.6 1.6-12.9 2.3-2.2.4-4.3.7-6.5 1-2.2.4-4.4.7-6.5 1zM595 553.9c0 2.5-.1 5-.4 7.5-.2 2.5-.6 4.9-1 7.4-.4 2.4-.9 4.9-1.5 7.3-.6 2.4-1.3 4.8-2.1 7.2 0-2.5.1-5 .4-7.5.2-2.5.6-4.9 1-7.4.4-2.4.9-4.9 1.5-7.3.6-2.5 1.2-4.9 2.1-7.2zM707.4 668c2.3 5.1 4.1 10.5 5.7 15.9 1.6 5.4 2.9 10.9 3.8 16.5.9 5.6 1.5 11.2 1.5 16.9 0 5.7-.5 11.4-2.1 16.8.6-5.6.6-11.2.3-16.7l-.3-4.2c-.1-1.4-.3-2.8-.5-4.1-.1-1.4-.3-2.8-.5-4.1-.2-1.4-.4-2.8-.6-4.1l-.7-4.1-.8-4.1c-.5-2.7-1.1-5.5-1.8-8.2-1.3-5.6-2.6-11-4-16.5zM717.6 749.4c.5.9.7 1.8.9 2.7.2.9.2 1.8.2 2.7 0 .9-.1 1.8-.3 2.7-.2.9-.4 1.8-.9 2.7-.5-.9-.7-1.8-.9-2.7-.2-.9-.2-1.8-.2-2.7 0-.9.1-1.8.3-2.7.2-.9.4-1.8.9-2.7z"/><ellipse transform="rotate(-34.588 528.09 114.074)" class="st6" cx="528.1" cy="114.1" rx="17.9" ry="25"/><ellipse transform="rotate(-26.955 531.244 111.908)" class="st8" cx="531.3" cy="111.9" rx="11.1" ry="20.9"/><ellipse class="st9" cx="557.5" cy="100.1" rx="33.7" ry="53.4"/><path class="st9" d="m551.9 153.6 39.3 38.4 36.3-48.7s-15-8-37.8-50.3l-37.8 60.6zM540.3 375l-14.9 33.3c3.7 5.8 2.4 10.5 2.4 10.5-.3 7.8-7.6 10.5-7.6 10.5-1.1 6.3-10.5 9.3-10.5 9.3L497.4 449c-7.6 3.4-10.7 12.3-10.7 12.3-17.4 6.3-9.6-7.3-5.8-11.5s7.9-17.8-10.8-9.1c-18.7 8.7-6.7 30.1-6.7 30.1-12.4-6.3-13.8-16.8-13.8-16.8-7.3-26.7 27.7-38.2 27.7-38.2-1.6-13.6 12-11 12-11-.5-5.2 8.1-11.5 8.1-11.5l15.3-36.1c34.9 1.8 27.6 17.8 27.6 17.8z"/><path d="M605.7 117.6s10 4.5-1 24.9-13.5 29.9-13.5 29.9l-14.2 5.7-7.7-16.7-9.4-7.8h-8l4.1 13.3s-41.6 17.3-36.1 72.3l-7.2 101.3s-18.7 7.9-14.8 18.9c3.9 11 6.3 15.7 6.3 15.7l8.5-18.1s32.3 2.4 27.6 18.1c0 0 11.5-2.4 11.7-19.6l13.5-60.5s14.9 73.1 11 93.5c-3.9 20.4-1.6 42.4-1.6 42.4s106 20.4 154.8-25.1l-6.3-35.3-.8-28.3s18.9-11.8 19.6-38.5c.8-26.7-44.8-143-44.8-143s-5.7-23.3-42.4-24.4l-36.8-1s18.2-12.2-12.5-17.7z" style="fill:#ff4d53"/><path class="st4" d="M666.1 231.8c2.2 4.9 4.4 9.9 6.5 14.8 2.1 5 4.2 9.9 6.2 14.9 4.1 10 8.1 20 12 30.1l-.2-.3c1.3 1.6 2.2 3.3 2.9 5.2.7 1.8 1.2 3.8 1.4 5.8.1 2-.1 4-.7 5.9-.7 1.9-1.6 3.7-2.8 5.2-1.2 1.6-2.5 2.8-3.6 4.4-1.1 1.5-2.1 3-2.9 4.7-.8 1.7-1.3 3.5-1.2 5.3.1 1.8.8 3.6 1.9 5.1-.6-.7-1.2-1.5-1.6-2.3-.4-.9-.7-1.8-.8-2.8-.2-1.9.2-3.9.9-5.7 1.3-3.7 3.9-6.7 6-9.6 1.1-1.4 1.8-3.1 2.4-4.8.4-1.7.6-3.5.5-5.2-.3-3.5-1.9-7-4-9.7l-.1-.2-.1-.1c-4-10-7.9-20.1-11.7-30.2-1.9-5.1-3.8-10.1-5.6-15.2-1.9-5.1-3.7-10.2-5.4-15.3zM705.9 314.1c2.5.1 5 .5 7.5 1s4.9 1.1 7.3 1.9c2.4.8 4.8 1.7 7 2.8 1.1.6 2.2 1.2 3.3 2 .5.4 1 .8 1.4 1.3.4.5.8 1.1.8 1.8-.2-.6-.7-1-1.2-1.3-.5-.3-1-.6-1.6-.9-1.1-.5-2.3-.9-3.4-1.3-2.3-.8-4.7-1.6-7-2.3-2.4-.8-4.7-1.5-7.1-2.3-2.3-.8-4.7-1.6-7-2.7zM699.4 306.7c3.6-.2 7.3.1 10.9.5 3.6.4 7.2 1 10.8 1.9 3.5.9 7.1 2 10.4 3.7 1.7.8 3.3 1.8 4.7 3.1 1.4 1.3 2.6 2.9 2.7 4.8-.7-1.7-2-2.9-3.4-3.9-1.5-1-3.1-1.7-4.7-2.3-1.6-.6-3.3-1.2-5-1.7-1.7-.5-3.4-1-5.2-1.4-3.5-.9-7-1.6-10.5-2.3-3.6-.9-7.1-1.6-10.7-2.4zM696.5 298.8c0-1.6 1.2-3.2 2.8-3.9 1.6-.8 3.3-.8 4.9-.6 1.6.3 3.1.9 4.4 1.6 1.4.7 2.6 1.7 3.7 2.8-1.6-.3-3-.8-4.4-1.2-1.4-.4-2.8-.7-4.1-1-1.4-.2-2.7-.3-3.9 0-1.3.4-2.4 1.1-3.4 2.3z"/><path class="st4" d="M680 269.2c0 3.8-.2 7.5-.5 11.2-.3 3.7-.7 7.4-1.1 11.1-.5 3.7-1 7.4-1.6 11.1-.6 3.7-1.3 7.3-2.2 11 0-3.8.2-7.5.5-11.2.3-3.7.7-7.4 1.1-11.1.5-3.7 1-7.4 1.6-11.1.6-3.7 1.3-7.3 2.2-11zM540.9 216.1c2.5 5.9 4.8 11.8 7 17.8s4.3 12 6.4 18c2 6 4.1 12.1 6 18.1 1.9 6.1 3.7 12.2 5.3 18.4-2.5-5.9-4.8-11.8-7-17.8s-4.3-12-6.4-18c-2-6-4.1-12.1-6-18.1-1.8-6.1-3.6-12.3-5.3-18.4zM581.4 343.9c1.6 5 3 10.1 4.3 15.1 1.3 5.1 2.5 10.2 3.7 15.3 1.1 5.1 2.2 10.2 3.2 15.4 1 5.1 1.9 10.3 2.5 15.5-1.6-5-3-10.1-4.3-15.1-1.3-5.1-2.5-10.2-3.6-15.3-1.1-5.1-2.2-10.2-3.2-15.4-1-5.2-1.9-10.3-2.6-15.5zM512.7 340.5c3.5 0 7 .4 10.4 1 3.4.6 6.8 1.6 10.1 2.8 1.6.6 3.3 1.3 4.8 2.1 1.6.8 3.1 1.7 4.5 2.7 2.9 2 5.5 4.6 6.9 7.9-2.2-2.7-5-4.7-7.9-6.4-2.9-1.6-6-3-9.2-4.2-3.2-1.2-6.4-2.2-9.7-3.2l-9.9-2.7zM639.5 162.8c-1 3.3-2 6.6-2.9 9.8-.9 3.3-1.7 6.6-2.3 9.9-.6 3.3-1 6.6-1.2 10-.1 3.4 0 6.7.5 10.1-1.4-3.2-2.1-6.6-2.3-10.1-.1-3.5.2-7 .8-10.4.7-3.4 1.6-6.8 2.9-10 1.2-3.2 2.6-6.4 4.5-9.3zM653.1 155.5l-3.6 8.4c-1.2 2.8-2.3 5.6-3.4 8.4-.5 1.4-1.1 2.8-1.5 4.2-.5 1.4-.9 2.9-1.3 4.3-.7 2.9-1.3 5.8-1.7 8.9-.6-3-.5-6.2 0-9.3.5-3.1 1.3-6.1 2.4-9 1.1-2.9 2.4-5.7 3.9-8.4 1.5-2.6 3.2-5.2 5.2-7.5z"/><path class="st11" d="M621.6 138.6s-2.3 34.7-8.6 36.5c-6.3 1.7 1.2-14.6-6.3-18.2l-7.5-3.7s8.6-16.5 10.5-25.9c1.1-5.4-3.9-9.7-3.9-9.7s28.6 2.2 12.5 17.5l3.3 3.5zM556 166.8c-.3 2.6 6.4 15.2 2.9 21.1 0 0 8.4-7.7 6.8-21l.2-8.5-6-4.9h-8l4.1 13.3zM577 178.1l12.7 41.3 1.5-47.1z"/><g><path class="st8" d="M527.7 418.7c-.3 7.8-7.6 10.5-7.6 10.5-1.1 6.3-10.5 9.3-10.5 9.3l-12.3 10.4c-7.6 3.4-10.7 12.3-10.7 12.3-17.4 6.3-9.6-7.3-5.8-11.5s7.9-17.8-10.8-9.1c-18.7 8.7-6.7 30.1-6.7 30.1-12.4-6.3-13.8-16.8-13.8-16.8-7.3-26.7 27.7-38.2 27.7-38.2-1.6-13.6 12-11 12-11-.5-5.2 8.1-11.5 8.1-11.5.3-.3 7.6-5.8 28 15.2 3.7 5.6 2.4 10.3 2.4 10.3z"/><g class="st12"><path class="st4" d="M508.1 418.7c1.4 1.2 2.5 2.8 3.4 4.4.9 1.6 1.6 3.4 2 5.3.4 1.9.4 3.9-.2 5.8-.3.9-.8 1.8-1.4 2.6-.6.7-1.4 1.3-2.2 1.7 1.1-1.5 1.7-3.1 1.9-4.7.2-1.6 0-3.3-.3-4.9-.7-3.4-2-6.7-3.2-10.2z"/></g><g class="st12"><path class="st4" d="M489.2 404.6c3.5-.9 7.2-1.1 10.8-1 3.6.1 7.3.7 10.8 1.8 3.5 1.1 6.9 2.7 9.8 5 3 2.2 5.4 5.1 7 8.4-2.4-2.7-5-5.1-8-6.9-3-1.8-6.2-3.2-9.5-4.3-3.3-1-6.8-1.7-10.3-2.2-3.4-.5-7-.7-10.6-.8z"/></g><g class="st12"><path class="st4" d="M497.7 393.7c2.6 0 5.1.4 7.6 1s4.9 1.4 7.3 2.5c1.2.6 2.3 1.2 3.4 1.9s2.2 1.5 3.1 2.4c1.9 1.8 3.5 4.1 4 6.7-1.4-2.2-3.1-3.9-5.1-5.3-2-1.4-4.1-2.6-6.4-3.6-2.2-1.1-4.5-2-6.9-2.9l-7-2.7z"/></g></g><g><path class="st13" d="m839.6 295.7-4.7 3.1V331l-29.1 26.7h-51.1l-22 9.4-3.2-3.9-1.9 1.5-503.9 393.7-3.1-5.5 2.4-15.7L720.5 358l2.4-1.8-7-3.3 6.6-10.9s8.3-7.7 16.4-21.5c8.1-13.8.4-36.1.4-36.1l18.6-22.5c29.1-12.6 68.3 8.6 68.3 8.6 8.7 3.2 13.4 25.2 13.4 25.2z"/><path class="st14" d="m839.6 295.7-4.7 3.1V331l-29.1 26.7h-51.1l-22 9.4s-2.4-12-7.9-12.3l-8.9-2 6.6-10.9s8.3-7.7 16.4-21.5c8.1-13.8.4-36.1.4-36.1l18.6-22.5c29.1-12.6 68.3 8.6 68.3 8.6 8.7 3.3 13.4 25.3 13.4 25.3z"/><path class="st13" d="M531 518.3s6 23-19.1 14.9c0 0-59.7-56.1-51.8-83.6 0 0 10.7-17.2 20.6-12.5 0 0 8.1 6.2 0 12.5s-8.4 18.1 0 28.3 18.5 28.7 29.6 30.2c0 0 10.2-20-1.6-42 0 0-3.4-14.1-11.5-17.3l10-10.3s21.2 38 17.3 63c.1 0-3.5 32.1 6.5 16.8z"/><path style="fill:#858689" d="m805.8 357.7-5-28.5 34.1-30.4V331z"/><path class="st13" d="M786.7 356.9c0-2.6-2.1-52.4 16.2-67 18.3-14.7 23.3-19.4 23.3-19.4l8.6 9.5 4.7 15.6-4.7 3.1-34 30.4 5 28.5-19.1-.7z"/><path d="M754.2 269.4s36.3-6.1 60.8 9.5l11.2-9.5s-42.3-19.1-66.4-9.4l-5.6 9.4z" style="fill:#959596"/><path class="st13" d="m763.5 352.1-30.7 15.1s-2.4-12-7.9-12.3l-8.9-2 22.9-30.5s19.7-3.1 22.1 10.5c2.5 13.6 2.5 19.2 2.5 19.2z"/><path class="st4" d="m817.8 332.9.4-3.2.4-3.3c.3-2.3.6-4.6 1-6.9l.2-1 .7.7c2 2.2 4 4.4 6 6.7l.3.4-.4.3c-1.5 1.1-3 2.2-4.4 3.3l-4.2 3zm0 0c1.5-1.2 2.8-2.5 4.2-3.6 1.3-1.2 2.6-2.3 3.9-3.4l-.1.6c-2.1-2.2-4.1-4.4-6-6.6l.8-.2c-.4 2.1-.8 4.3-1.4 6.4l-.7 3.3-.7 3.5zM727.9 353.8c1.7-2.7 3.6-5.3 5.5-7.9 2-2.5 4-5 6.2-7.4 2.2-2.4 4.4-4.7 6.8-6.8 2.4-2.1 4.9-4.2 7.9-5.6-2.5 2-4.6 4.4-6.8 6.7l-6.4 7c-2.1 2.3-4.3 4.7-6.5 7-2.2 2.5-4.4 4.8-6.7 7zM759.6 320.5c2.3-4.1 4.9-8.1 7.7-12 2.7-3.9 5.7-7.6 8.7-11.3 3.1-3.6 6.4-7.1 10-10.2 1.8-1.6 3.7-3 5.7-4.3 2-1.2 4.3-2.4 6.7-2.6-2.3.7-4.3 2-6.1 3.4-1.8 1.4-3.6 3-5.2 4.7-3.3 3.3-6.5 6.8-9.5 10.4-3.1 3.6-6 7.2-9 10.9l-9 11zM805.7 288.3c1.8 2 3.2 4.5 4.3 7 1.1 2.5 1.8 5.2 2.3 7.9.4 2.7.7 5.5.5 8.2 0 1.4-.2 2.7-.4 4.1-.2 1.3-.5 2.7-.8 4-.1-1.4-.1-2.7-.1-4.1l-.1-2c0-.7-.1-1.3-.1-2-.1-.7-.1-1.3-.1-2l-.2-2c-.1-1.3-.4-2.6-.6-3.9-.4-2.6-1.1-5.2-1.8-7.7-.9-2.5-1.7-5-2.9-7.5zM759.6 308.4c-1.1 1.5-2.4 2.8-3.8 4-1.4 1.2-2.9 2.3-4.5 3.2-1.6.9-3.3 1.7-5.3 2-1 .2-2 .2-2.9-.1-1-.3-1.8-1-2.1-1.9 1.4 1.3 3.2 1 4.7.5 1.6-.5 3.1-1.4 4.6-2.2 3.1-1.8 6.1-3.7 9.3-5.5zM756.8 303.9c-.8 1.2-1.8 2.2-2.8 3.1-1.1.9-2.2 1.7-3.5 2.4-1.2.7-2.6 1.2-4 1.5-1.4.3-3 .3-4.3-.6 1.4 0 2.6-.5 3.9-.9 1.2-.5 2.4-1.1 3.5-1.7l3.5-1.9c1.2-.7 2.4-1.3 3.7-1.9zM752.6 300.3c-.4 1-1 1.9-1.8 2.7-.7.8-1.6 1.5-2.6 2s-2.2.8-3.4.6c-1.2-.2-2.3-1-2.7-2 1 .5 1.9.6 2.7.5.8-.1 1.6-.4 2.5-.9.8-.4 1.7-.9 2.5-1.4 1-.5 1.8-1.1 2.8-1.5z"/><path class="st13" d="M808.9 364.8s25.1-31 57.2-38.6c0 0-57.8 35.3-57.2 38.6z"/><g><path class="st14" d="m248.8 710.4 27.5-20.4s17.3 11.8 16.5 20.4c0 0 52.6 0 58.9 38.5 6.3 38.5-12.6 59.7-12.6 59.7s-5.5.7-5.5-11.8-5.5-24.4-14.1-29.1c-8.6-4.7-48.7-18.2-56-40.6l-14.7-16.7z"/><path class="st4" d="M269.8 732.3c1.6-1.9 3.3-3.7 5.1-5.4 1.8-1.7 3.6-3.3 5.5-4.9 1.9-1.5 3.8-3.1 5.8-4.5s4-2.8 6.2-4c-1.6 1.9-3.3 3.7-5.1 5.4-1.8 1.7-3.6 3.3-5.5 4.9-1.9 1.5-3.8 3.1-5.8 4.5s-4 2.8-6.2 4zM345.7 749.4c.1 2.9-.4 5.8-1.2 8.6-.8 2.8-2 5.5-3.4 8-1.5 2.5-3.1 4.9-5.1 7-.9 1.1-2 2-3.1 3-1.1.9-2.3 1.8-3.5 2.6.8-1.2 1.8-2.2 2.6-3.4.8-1.1 1.7-2.2 2.5-3.4.4-.6.8-1.1 1.2-1.7l1.1-1.8c.8-1.1 1.5-2.4 2.2-3.6l1-1.8.9-1.9c.6-1.2 1.2-2.5 1.8-3.8 1.3-2.5 2.2-5.1 3-7.8z"/></g><path class="st13" d="M746.9 254.3s-6.9-36.2-17.3-58.4"/><g><path class="st17" d="M194.7 757s-89.3 12-55.3 42.4c0 0 95.3 25.2 141.7-14.6"/><path class="st4" d="M192.3 744c-5.1 1.4-10 2.7-14.8 4.1-4.8 1.5-9.5 3.1-14 5-4.5 2-8.8 4.2-12.9 7-2 1.4-3.9 2.9-5.8 4.6-1.9 1.7-3.6 3.5-5.4 5.4.7-2.5 1.9-5 3.3-7.2 1.5-2.2 3.2-4.3 5.1-6.2 3.9-3.7 8.5-6.6 13.5-8.8 4.9-2.1 10.1-3.5 15.3-4.2 5.2-.6 10.5-.8 15.7.3zM160.3 778.5c0 2-.3 3.7-.6 5.2s-.7 2.9-1 4.2c-.3 1.3-.4 2.2-.4 3.1 0 .5.2 1 .5 1.7s.9 1.3 1.5 2.1c-.5.2-1 .3-1.5.4h-.8c-.3 0-.5-.1-.8-.1-1-.2-2.1-.8-2.9-1.8-.8-1-1.2-2.2-1.4-3.3-.2-1.2 0-2.2.2-3.2.5-2 1.4-3.6 2.6-5 1.3-1.5 2.7-2.7 4.6-3.3zM180.8 803.4c5.9-.7 11.6-1.1 17.3-1.5 5.7-.4 11.4-.8 17.1-1.4 5.6-.6 11.3-1.2 16.9-2.1 5.6-.9 11.1-2.1 16.8-3.7-4.6 3.7-10.1 6.2-15.8 8-5.7 1.8-11.5 2.8-17.4 3.4-5.9.6-11.8.6-17.6.2-5.8-.4-11.7-1.2-17.3-2.9z"/><path class="st4" d="M276.1 790c-8.9 4-18 7.5-27.2 10.8-4.6 1.7-9.2 3.3-13.8 4.8-1.2.4-2.3.8-3.5 1.1l-3.6 1c-2.4.6-4.8 1.3-7.2 1.9l-7.3 1.5-1.8.3-1.8.2-3.7.5c-2.4.4-5 .4-7.4.6-2.5.2-5 0-7.5-.1-1.2 0-2.5-.2-3.8-.4-1.2-.2-2.5-.3-3.7-.6l-3.7-.9c-1.2-.4-2.4-.9-3.6-1.3-1.2-.5-2.3-1.2-3.4-1.7-.5-.3-1.1-.7-1.6-1.1-.5-.4-1-.7-1.5-1.2-1.9-1.6-3.6-3.7-4.2-6.1 1.3 2.1 3.1 3.7 5.2 4.8.5.3 1 .6 1.6.8.5.2 1 .5 1.6.7 1.1.3 2.2.8 3.3 1.1 4.5 1.3 9.3 1.4 13.9 1.4 9.4-.3 18.8-2 28.2-4.1 2.3-.5 4.6-1.2 7-1.8l3.5-.9 3.5-1c4.7-1.3 9.3-2.7 14.1-3.9 9.3-2.3 18.7-4.6 28.4-6.4zM231 817.8c3.4 0 6.6-.3 9.8-.8l2.4-.4 2.4-.5c1.6-.3 3.1-.8 4.7-1.2 6.2-1.7 12.1-4.2 17.9-7l4.3-2.2 4.2-2.4c2.9-1.5 5.4-3.5 8.2-5.2 1.4-.8 2.7-1.9 4-2.8 1.3-.9 2.7-1.9 4.1-2.8 2.6-2 5.2-4 8.1-5.9-1.9 2.7-4 5.4-6.2 8-1.2 1.2-2.3 2.4-3.5 3.6l-1.8 1.8-.9.9-1 .8c-1.3 1.1-2.6 2.2-3.9 3.2-1.3 1.1-2.7 2-4.1 3-1.4.9-2.8 1.9-4.3 2.8l-4.5 2.4c-6.1 3-12.7 5.2-19.5 6.2-1.7.2-3.4.5-5.1.5l-2.6.1-2.6-.1c-3.5-.3-7-.7-10.1-2z"/><path class="st17" d="M142.3 764.3c-3.6 3.1-7.1 6.3-10.4 9.6-1.7 1.7-3.3 3.4-4.9 5.1-1.6 1.7-3.1 3.5-4.5 5.4-1.4 1.9-2.7 3.8-3.9 5.8-1.1 2-2.1 4.1-2.6 6.2-.5 2.1-.6 4.4.3 6.2.9 1.9 2.5 3.4 4.5 4.4.4.3 1 .5 1.5.7.5.2 1 .5 1.6.7l3.3 1.2c2.2.8 4.5 1.5 6.7 2.2 4.5 1.4 9 2.6 13.6 3.8 4.6 1.1 9.2 2.1 13.8 3 4.6.9 9.3 1.6 14 2.2-9.5-.2-18.9-1.5-28.2-3.4-4.7-1-9.3-2.1-13.8-3.5-2.3-.7-4.6-1.4-6.8-2.2l-3.4-1.2c-.6-.2-1.1-.5-1.7-.7-.6-.3-1.2-.5-1.7-.8-2.2-1.2-4.3-3-5.4-5.5-1.1-2.5-1-5.3-.4-7.7.6-2.4 1.8-4.6 3-6.7 1.2-2.1 2.7-4 4.2-5.9 6.1-7.2 13.4-13.4 21.2-18.9z"/><path class="st17" d="M150.1 759.5c-3.4 3.3-6.7 6.7-9.7 10.3-1.6 1.8-3.1 3.6-4.5 5.4-1.4 1.8-2.9 3.7-4.1 5.7-1.3 1.9-2.5 3.9-3.5 6s-1.9 4.2-2.2 6.4c-.4 2.2-.3 4.4.7 6.2 1 1.8 2.7 3.2 4.7 4.1.5.3 1 .4 1.5.6.5.2 1 .4 1.6.6l3.4 1c2.3.7 4.5 1.2 6.8 1.8 4.6 1.1 9.2 2 13.8 2.9 4.6.8 9.3 1.5 14 2 4.7.6 9.4 1 14.1 1.2-9.5.4-19-.2-28.4-1.5-4.7-.7-9.4-1.5-14-2.5-2.3-.5-4.6-1.1-6.9-1.7l-3.4-1c-.6-.1-1.2-.4-1.7-.6-.6-.2-1.2-.4-1.7-.7-2.3-1-4.5-2.7-5.7-5.1-1.3-2.4-1.4-5.2-.9-7.6.5-2.5 1.5-4.8 2.6-6.9 1.1-2.2 2.4-4.2 3.8-6.1 5.4-7.8 12.3-14.5 19.7-20.5z"/><path class="st13" d="m171.9 797.2 22 3.8 21.2-13.6 17.3-3.1 9.4-3.5 40.8-11.4-5.5-11-32.2 6.3-13.4-1.6-7.9-4.7-2-18.4s-11.3-7.5-19.1 1.1l-.1 17.3h-18.1l-14.9 7.1 9.4 7.9s-3.1 10.2 3.1 12.6l-10 11.2z"/><path class="st4" d="M205.4 758.4c-1.7 1.6-3.3 3.3-4.7 5.1-.7.9-1.3 1.8-1.7 2.8-.2.5-.3.9-.3 1.3s.2.6.5.8c.6.4 1.8.6 2.8.7 1.1.1 2.2 0 3.3-.1 2.2-.2 4.5-.6 6.8-.9h.1c2.2-.2 4.4-.4 6.5-.7 2.2-.3 4.3-.6 6.5-1.1 1.1-.2 2.1-.5 3.1-.9.9-.4 2-.9 2.1-1.5.1-.3-.1-.7-.4-1.1-.3-.4-.7-.7-1.2-1.1-.9-.7-1.8-1.2-2.8-1.8 1.1.3 2.1.7 3.1 1.2.5.3 1 .6 1.5 1 .4.4.9 1 .9 1.8-.1.8-.6 1.4-1.1 1.8-.5.4-1 .7-1.5 1-1 .5-2.1.9-3.2 1.3-2.2.7-4.4 1.1-6.6 1.5-2.2.4-4.4.6-6.7.9h.1c-2.3.4-4.6.7-7 .9-1.2 0-2.4.1-3.6-.1-1.2-.2-2.5-.3-3.8-1.3-.3-.2-.6-.6-.8-.9-.2-.4-.3-.8-.3-1.2 0-.8.2-1.5.5-2 .6-1.1 1.4-2.1 2.2-2.9 1.8-1.9 3.7-3.3 5.7-4.5z"/><path class="st4" d="M197.9 764.2c-.8.8-1.5 1.6-2 2.6-.5.9-.8 2-.5 2.9.2.9.8 1.7 1.7 2.3.4.3.9.5 1.3.8.5.2 1 .4 1.4.6 1.9.7 4 1.1 6.2 1.2 2.1.1 4.3.1 6.5-.1 2.2-.1 4.3-.4 6.4-.9 2.1-.4 4.2-1 6.2-1.7 1-.4 2-.8 2.9-1.3.9-.5 1.8-1.1 2.5-1.8s1.3-1.6 1.5-2.6c.2-1 0-2.1-.4-3.1.6.9 1.1 2 1 3.2 0 1.2-.6 2.3-1.3 3.3-1.5 1.9-3.6 3.1-5.6 4-4.2 1.9-8.7 2.8-13.2 3.2-2.3.1-4.5.2-6.8-.1-2.3-.3-4.6-.7-6.7-1.7-.5-.3-1-.5-1.5-.8-.5-.4-1-.6-1.4-1.1-.9-.8-1.7-1.9-1.8-3.2-.1-1.3.4-2.5 1.1-3.4.6-1 1.5-1.7 2.5-2.3z"/><ellipse cx="212.3" cy="740.6" rx="9.6" ry="3.4" style="fill:#474849"/></g><path class="st13" d="M750.3 216.1s6.5 14.7 3.9 25.7"/><path d="M627.5 445.5s7.9-15.3-2.6-21.3l5.4-8.6-2.7-1.8 11.9-10.2 59.9-38.8s9.7 18.3 7.7 20.4c-2.1 2.1-75.7 59.6-79.6 60.3z" style="fill:#3d3d3d"/></g><g><path class="st20" d="M597.6 63.9s-3.1-44.8-49.5-38.5C501.8 31.7 494.7 67 504.9 93c0 0-22 22-10.2 31.4 0 0 13.1-3.9 17.9-13.4 0 0 29.7-6.5 50.4-24.4l10.2-12.1c.1.1 8.7-17.6 24.4-10.6z"/><circle class="st20" cx="543.5" cy="27.5" r="4.6"/><path class="st6" d="M502.6 85.9s7.8-50.3 65.9-16.5l4.7 5.2 8.3-9.5s-16.9-23.9-57-14.5c.1 0-24.9 13.3-21.9 35.3z"/><path class="st21" d="M509.1 89.9c0-.7.3-1.3.6-1.9.3-.6.8-1.1 1.2-1.7.5-.5 1-1 1.5-1.4l1.6-1.3c1.1-.7 2.3-1.5 3.5-2.1 1.2-.7 2.4-1.2 3.7-1.8 5-2.2 10.2-3.8 15.4-5.1 2.6-.6 5.3-1.2 7.9-1.7 2.7-.4 5.3-.9 8-1.3 5.3-.8 10.6-1.6 16-2.1-5.2 1.5-10.4 2.7-15.7 3.9-2.6.6-5.2 1.1-7.9 1.7l-7.8 1.8c-2.6.6-5.2 1.3-7.7 2.1l-1.9.5-1.9.6c-1.3.4-2.5.8-3.8 1.3l-1.9.7c-.6.2-1.2.5-1.8.8-1.2.5-2.4 1.1-3.6 1.7l-1.7 1c-.5.4-1.1.8-1.6 1.2-.5.4-1 .9-1.4 1.4-.2.4-.6 1-.7 1.7zM492.5 121.8c1.2-3.3 3.5-6 6.2-8.3 2.7-2.3 5.8-3.9 9.1-5.2 3.3-1.3 6.7-1.9 10.1-2.3 1.7-.2 3.4-.2 5.2-.2 1.7.1 3.4.2 5.1.4-1.7.3-3.4.5-5.1.7l-5 .8c-.8.2-1.6.4-2.4.5l-1.2.3-1.2.4-2.4.7-2.3.8c-3.1 1.1-6.1 2.6-8.8 4.4-2.8 2.1-5.4 4.2-7.3 7zM548.1 25.5c1.7 1.5 3.2 3.2 4.6 5 1.4 1.8 2.7 3.6 3.9 5.5 1.2 1.9 2.3 3.9 3.2 6 .9 2.1 1.7 4.2 2 6.5l-3.6-5.7-3.5-5.6c-1.2-1.9-2.3-3.8-3.4-5.7-1.2-2-2.2-4-3.2-6z"/><ellipse transform="rotate(-34.588 591.182 82.363)" class="st6" cx="591.2" cy="82.4" rx="17.9" ry="25"/><ellipse transform="rotate(-34.588 594.327 80.195)" class="st8" cx="594.4" cy="80.2" rx="11.1" ry="20.9"/></g><path class="st9" d="M691.4 326.1s23-6.9 33.5 13.6l-33.5 49.8-3.7 14.1s-1.5 14-6.3 20.6c-4.8 6.6-11.8 16.7-15.8 8.6 0 0-7.9-.5-7.2-4.1 0 0-5.1 15.3-10.5 7.1 0 0-11.6 6.7-10.5-.6 0 0 10.5-12.3 9.4-28 0 0 6.3-14.7-7.3-3.7 0 0-2.6-4.7 7.3-10l17.3-11.8s10.5-9.1 11.5-16.4l15.8-39.2z"/><path class="st3" d="M238.4 696.3s18.9-27.2 16.8-17.8-16.8 17.8-16.8 17.8zM337.6 594.7l-2.3.8c-.7.3-1.5.5-2.2.9-1.4.7-2.9 1.3-4.3 2.1l-4.2 2.3-4.1 2.4c-5.4 3.3-10.8 6.8-16 10.4-5.3 3.6-10.5 7.2-15.8 10.9-5.2 3.7-10.5 7.3-15.8 11 4.7-4.3 9.6-8.5 14.7-12.4 5.1-4 10.3-7.7 15.6-11.4 5.3-3.6 10.8-7 16.4-10.1l4.3-2.2c1.5-.7 2.9-1.3 4.4-2 1.5-.6 3-1.1 4.5-1.7 1.6-.4 3.2-.6 4.8-1zM333.7 690c3.3-1.6 6.6-2.9 9.9-4.2 3.3-1.3 6.7-2.5 10.1-3.6 3.4-1.1 6.8-2.2 10.3-3.1 3.5-1 6.9-1.9 10.5-2.5-3.3 1.6-6.6 2.9-9.9 4.2-3.3 1.3-6.7 2.5-10.1 3.6-3.4 1.1-6.8 2.2-10.3 3.1-3.5.9-7 1.8-10.5 2.5z"/><g><path class="st3" d="M113.4 705.7c4.2-10.6 9.3-20.9 14.8-30.9 5.6-10 11.7-19.7 18.3-29 6.6-9.4 14-18.2 21.8-26.5 7.9-8.3 16.6-15.8 25.8-22.5-2.2 1.9-4.3 3.7-6.5 5.6-1.1.9-2.2 1.8-3.2 2.8l-3.1 3-3.1 3c-1 1-2.1 1.9-3 3l-5.8 6.2c-.5.5-1 1-1.4 1.6l-1.4 1.6-2.8 3.2-2.8 3.2-2.7 3.3-5.3 6.7-5 6.9c-6.6 9.3-12.8 18.8-18.6 28.6-2.9 4.9-5.7 9.9-8.4 14.9-2.6 5.1-5.1 10.2-7.6 15.3z"/></g><path class="st3" d="M255.3 668s11.4-22 17.6-16.8-17.6 16.8-17.6 16.8z"/><g><path class="st3" d="m302.3 657 9.4-6.6M302.3 657c.2-1.3.7-2.3 1.3-3.1.6-.8 1.3-1.5 2.1-2.1.8-.6 1.7-1 2.6-1.3 1-.3 2.1-.4 3.4-.2-.2 1.3-.7 2.3-1.3 3.1-.6.8-1.3 1.5-2.1 2s-1.7 1-2.6 1.2c-1 .5-2.1.7-3.4.4z"/></g><g><path class="st3" d="M329.4 631s11.6-11.9 19.3-8.7"/><path class="st3" d="M329.4 631c2.3-2.9 5.2-5.4 8.5-7.3 1.6-.9 3.4-1.7 5.3-2.1 1.9-.4 3.9-.3 5.6.6-1.8-.5-3.6-.2-5.3.2-1.7.5-3.3 1.3-4.9 2.2-1.6.9-3.1 1.9-4.6 3-1.6 1.2-3.1 2.3-4.6 3.4z"/></g><g><path class="st3" d="M269.8 648.5s4.4-8.4 12.8-3.8"/><path class="st3" d="M269.8 648.5c.4-1.2 1.2-2.3 2.1-3.2.9-.9 2.1-1.7 3.3-2.1 1.3-.4 2.7-.5 4-.2.7.1 1.2.4 1.8.6.6.3 1.1.7 1.6 1-.6-.1-1.2-.4-1.8-.5-.6-.1-1.2-.3-1.8-.3-1.2-.1-2.4 0-3.5.4-2.2.7-4.1 2.4-5.7 4.3z"/></g><g><path class="st3" d="m246.8 648.5 7.3-5.2M246.8 648.5c.1-1.2.4-2 .8-2.8.4-.7.9-1.3 1.5-1.7.6-.4 1.3-.7 2.1-.9.8-.1 1.7-.2 2.9.2-.1 1.2-.4 2-.8 2.8-.4.7-.9 1.3-1.5 1.7-.6.4-1.3.7-2.1.9-.8.1-1.7.1-2.9-.2z"/></g><g><path class="st3" d="m264.6 601 1.4-1.8M264.6 601c-.6-.7-.9-1.2-1.1-1.5-.2-.3-.2-.6-.1-.7.1-.1.3-.2.7-.1.4.1.9.2 1.8.6.6.7.9 1.2 1.1 1.5.2.3.2.6.1.7-.1.1-.3.2-.7.1-.4 0-.9-.2-1.8-.6z"/></g><g><path class="st3" d="m286.6 590.2 4.1-7M286.6 590.2c-.5-1.1-.5-1.9-.5-2.7.1-.8.3-1.4.6-2 .3-.6.8-1.1 1.5-1.5.7-.4 1.4-.7 2.6-.8.5 1.1.5 1.9.5 2.7-.1.8-.3 1.4-.6 2-.4.6-.8 1.1-1.5 1.5-.7.3-1.5.7-2.6.8z"/></g><path class="st3" d="M214.8 717.6c.8-1.7 1.8-3.3 2.9-4.8 1.1-1.5 2.3-3 3.6-4.3 1.3-1.3 2.7-2.6 4.3-3.7.8-.5 1.6-1 2.5-1.4.4-.2.9-.4 1.4-.5.5-.1 1-.1 1.5.1-.9.2-1.6.8-2.3 1.3-.7.6-1.3 1.2-2 1.9l-3.8 3.9-3.9 3.9c-1.3 1.2-2.7 2.5-4.2 3.6zM171.3 686.4c1.5-3.6 3.4-7 5.4-10.4 2-3.3 4.3-6.5 6.8-9.6 2.5-3 5.2-5.9 8.4-8.3 1.6-1.2 3.2-2.3 5.1-3.1 1.8-.8 3.8-1.4 5.8-1.3-1.9.4-3.6 1.3-5.2 2.3-1.6 1-3.1 2.2-4.5 3.5-2.8 2.6-5.3 5.4-7.8 8.4-2.5 2.9-4.8 6-7.1 9.1l-6.9 9.4z"/><ellipse class="st3" cx="345" cy="698" rx="3.7" ry="1.7"/><ellipse transform="rotate(-45.001 858.776 162.844)" class="st1" cx="858.8" cy="162.8" rx="42.7" ry="92.5"/><ellipse transform="rotate(-23.748 302.272 85.922)" cx="302.3" cy="85.9" rx="92.5" ry="33.2" style="opacity:.4;fill:#fff"/></svg>