<svg version="1.1" id="Layer_1" xmlns="http://www.w3.org/2000/svg" x="0" y="0" viewBox="0 0 1000 1000" style="enable-background:new 0 0 1000 1000" xml:space="preserve"><style>.st3{fill:#4570ad}.st4{fill:#030200}.st5{fill:#fd7062}.st6{fill:#1c2b4c}.st8{fill:#fffeff}.st10{fill:#e04336}.st15{fill:#fdb2b0}.st19{fill:#3a3a3a}.st21{fill:#fff}.st22{fill:#ff8883}.st27,.st28{fill:none;stroke:#fff;stroke-width:2;stroke-miterlimit:10}.st28{stroke-dasharray:10.1116,10.1116}.st29{fill:#808285}</style><path d="M56.7 775.8C9.8 695.1 20.9 594 82 523.5c33.3-38.4 60.5-98 14.5-172.2-82.8-133.5 7.6-244.7 139.1-286.7s428.3-133.5 646.9 147c177.9 228.2 45.9 410.8-9.5 471-12.6 13.7-19.7 31.7-19.5 50.4.6 47.1-8.8 139.9-84.8 195.3-104.5 76.2-489.1 108.4-702.3-138.3-2.5-2.9-4.8-6-6.8-9.3-.8-1.3-1.8-3-2.9-4.9z" style="fill:#cfb5f6"/><path d="M916.3 568.4c-19.6 44.3-46.2 77.7-64 97.1-11.4 12.4-17.8 28.6-17.5 45.4.5 42.4-8 126.1-76.5 176.1-94.2 68.7-440.8 97.7-633-124.6-2.3-2.6-4.3-5.4-6.1-8.4-.8-1.3-1.7-2.8-2.7-4.5-32.8-56.4-34.2-123.9-7.4-181 7.7-16.5 17.8-32.2 30.2-46.4 30-34.6 54.5-88.4 13.1-155.2-74.6-120.3 6.8-220.5 125.4-258.4 118.5-37.9 386-120.3 583 132.5 103.1 132.3 90.7 247.6 55.5 327.4z" style="fill:#c9def7"/><path d="M860.4 661.4c-11.5 12.6-17.9 29-17.7 46.1.5 43.1-8 128-77.3 178.7-95.2 69.7-445.5 99.2-639.7-126.5-2.3-2.7-4.3-5.5-6.2-8.5-.8-1.3-1.7-2.8-2.7-4.6-33.1-57.3-34.5-125.8-7.5-183.8H925c-19.7 45-46.6 78.9-64.6 98.6z" style="fill:#75d18d"/><path class="st3" d="M535.5 341.5v221.4h405.4V337.3z"/><path class="st4" d="M910.9 814.3c-2.3 8.5-7.8 11.8-12.7 13-.2 0-.3.1-.5.1-4.3 1-8 .4-8 .4l-305.2-1s-13.4 2.2-25.6 0c-12.3-2.2-14.5-12.5-14.5-12.5V698.7l-151.5-49c.6-16.6 4.8-29.2 10.5-38.6 5.5-9 12.3-15.1 18.8-19.4 11.5-7.4 21.9-8.9 21.9-8.9l221.6 66.8 15.6-5.6c124.7-4.5 125.8 33.4 125.8 33.4s36.8 8.9 64.6 20c27.8 11.1 39 49 39 49s4.6 51.4.2 67.9z"/><path class="st5" d="m897.5 766.7.2 60.8c-4.3 1-8 .4-8 .4l-305.2-1s-13.4 2.2-25.6 0c-12.3-2.2-14.5-12.5-14.5-12.5V698.7l-151.5-49c.6-16.6 4.8-29.2 10.5-38.6l193.3 68.7s30.1 8.9 33.4 47.9l258.4 8.9c.1 0 11.2-2.2 9 30.1z"/><circle class="st6" cx="631.1" cy="824.9" r="47.2"/><circle cx="631.1" cy="824.9" r="37" style="fill:#fe8b82"/><circle class="st6" cx="631.1" cy="824.9" r="17.3"/><circle class="st8" cx="631.1" cy="824.9" r="14.7"/><circle class="st6" cx="823.8" cy="824.9" r="47.2"/><circle cx="823.8" cy="824.9" r="37" style="fill:#ff8881"/><circle class="st6" cx="823.8" cy="824.9" r="17.3"/><circle class="st8" cx="823.8" cy="824.9" r="14.7"/><path class="st10" d="M910.9 814.3c-2.3 8.5-7.8 11.8-12.7 13 .8-19.8 2-74.6-10.7-96.3-15.6-26.7-78.4-36.8-78.4-36.8-58.3-61.2-144.4-28.9-144.4-28.9l-242.4-73.6c11.5-7.4 21.9-8.9 21.9-8.9l221.6 66.8 15.6-5.6c124.7-4.5 125.8 33.4 125.8 33.4s36.8 8.9 64.6 20c27.8 11.1 39 49 39 49s4.5 51.4.1 67.9z"/><path class="st4" d="M544.4 684.5 429.7 425s-11.7-42.6 34.5-42.6c0 0 13.4 0 27.8 42.6l87.4 200.3-11.1-1.1-98.4-214s-19-27.8-14.4 14.6L566.7 692s-13.7 11.9-22.3-7.5z"/><path d="M668.7 665.8V711h132.5s-1.1-30.8-54.6-39.4c-53.4-8.7-77.9-5.8-77.9-5.8z" style="fill:#fefff3"/><path class="st10" d="M516.7 345.2h441l-34.4-100.4-373.3-2.4z"/><path d="M347.4 905.6s-7.7-24.8 19.7-68.8c0 0-17.2 49.6-5.7 61.9 0 0-6.8-22.8 18.2-51.4 0 0-9.6 38.3 5 54.9 0 0 2.5-42.7 24.7-57.6 0 0-18 35.7-2.2 61.1 0 0-4.9-24.2 21.4-51.2 0 0-16.4 37.3 4.9 53.2 0 0-7.2-45.2 14-55 0 0-16 23.8-1.4 49.3 0 0-1-31.2 14.8-62.3 0 0-14.3 55.5 1.7 65.3 0 0-6.2-61.9 19.1-78.8 0 0-17.3 42.9 5.8 63.1 0 0-6.4-20.7 13.1-40.3 0 0-12.5 22.4 3.5 38.8 0 0 .6-42.5 31.9-54.9 0 0-32.3 25.9-17.4 54.7 0 0-7.7-35.1 18-47.5 0 0-21.7 19.9-9.3 45.6 0 0-7.4-19.5 23.1-41.3 0 0-29.2 36.2-5.8 40.8 0 0 .6-35.8 29.3-53.2 0 0-20.8 28.9-15.4 51.9 0 0-2.4-26.6 25.1-43.7 0 0-26.9 23.7-11.9 41.3 0 0 19.7-40.9 21.9-54 2.2-13.1-14.8 57.8-14.8 57.8s19.6-13.4 17.2-35.6c0 0 13.9 13.7 3 32.6 0 0 17.8-9.5 10.9-48 0 0 15.1 22.1 4.8 47.7 0 0 16.4-22.7 8.5-42.2 0 0 16.8 5.2 5.4 45.4 0 0-4.3-18.3 18.1-40.1 0 0-12.5 20.6-9.4 37.1 0 0 7.4-3.7 19.6-31.3l-5 26.6s7.9-13.2 13.5-23.9c5.5-10.7-5.8 26.6-5.8 26.6s11.2-4.2 17.7-31.2l-2.9 32s10-65.7 10.5-42.3c.2 11.1 2.9 15.4-2.1 33.7 0 0 13.8-7.7 10.5-31.6-.3-2.2-.7-4.5-1.3-7-7.2-29.4 11.1 14.4 4.4 39.6 0 0 4.7 3.9 11.4-33.9 0 0 11.4 1.7 3.3 36 0 0 6.6-12.9 16.4-51.8 0 0 2.4 21-6.5 48.7 0 0 4.4-23.1 31.5-56.7 0 0-14.6 36.2-17.3 55.4 0 0 11.1-37.9 34.1-49 0 0-15.7 18.2-15.3 47.2 0 0 19.3-9.4 29.1-36.7 0 0 10.8 15.1-4.1 37.8-.2.3-164.9 117.1-431.5 35.2z" style="fill:#086347"/><path d="M191.5 839.5s-1.3-26 36.2-61.7c0 0-29 43.7-21 58.6 0 0-.9-23.8 30.5-45.3 0 0-18.9 34.7-8.8 54.4 0 0 13.1-40.7 38.2-49.6 0 0-26.3 30.1-17.4 58.7 0 0 1.3-24.6 33.5-44.2 0 0-25.2 32-8.6 52.8 0 0 4.3-45.6 27.2-49.7 0 0-21.5 19.1-13.7 47.4 0 0 6.9-30.5 29.9-56.6 0 0-27.7 50.2-14.7 63.6 0 0 9.4-61.5 38.1-71.6 0 0-27.5 37.2-10.1 62.6 0 0-1-21.6 22.7-35.8 0 0-17.7 18.6-6.2 38.5 0 0 11.2-41 44.6-45.2 0 0-37.7 17-30.5 48.6 0 0 1.3-35.9 29.3-41.5 0 0-25.9 13.8-20.3 41.8 0 0-2.3-20.7 32.6-34.2 0 0-37.3 27.8-15.8 38.1 0 0 9.5-34.6 41.6-44.2 0 0-27.4 22.8-27.8 46.4 0 0 4.3-26.4 35.2-36 0 0-32 16.3-21.8 37.1 0 0 29.3-34.7 34.7-46.8S420.3 878 420.3 878s22.3-8.1 25.5-30.2c0 0 10 16.8-5.2 32.3 0 0 19.6-4.7 22.6-43.7 0 0 9.1 25.2-7.3 47.3 0 0 21.5-17.9 18.8-38.7 0 0 15 9.2-6.1 45.3 0 0 .4-18.8 27.5-34.4 0 0-17.3 16.9-18.4 33.6 0 0 8.1-1.7 26.8-25.5L493 888.6s11-10.8 19-19.8-12.2 24.3-12.2 24.3 11.9-1.3 24.9-25.8l-10.8 30.3s26.1-61.2 20.7-38.4c-2.6 10.8-1 15.6-10.4 32.1 0 0 15.3-4.1 18.1-28 .3-2.2.4-4.6.4-7.1.4-30.3 7.1 16.7-5.6 39.5 0 0 3.6 4.9 19.5-30 0 0 10.6 4.5-5.8 35.6 0 0 9.6-10.9 28.8-46.1 0 0-2.9 21-18.4 45.5 0 0 10-21.3 44.6-47.1 0 0-23.1 31.4-30.6 49.4 0 0 20.2-34 45.2-38.9 0 0-19.7 13.7-26.5 42 0 0 21-4.3 37.3-28.3 0 0 6.7 17.4-13.4 35.5.1-.2-188.5 71.9-426.3-73.8z" style="fill:#098c67"/><path style="fill:#040404" d="M281 153v45.3h28l-2.7-34.7z"/><path class="st4" d="m168 445.9-22.4 307.4h43.5l9-99.1s17.8-47.9 30.1-89.1 20.9-54.6 20.9-54.6l4.7 242.8H295l14-83.5s12.4-164.9 8.3-203.2L168 445.9z"/><path class="st3" d="M249.1 746.6v94.7s-5.3 12.3 45.9 23.4 49-3.3 50.6-15.6-59.2-54.6-59.2-54.6l8.5-41.2-45.8-6.7zM145.6 753.3h43.5l-5.5 47.9s17.5 55.7 5.5 67.5c-12.1 11.9-24.8 12.5-34.8 9.8-11.9-3.2-19.3-14.9-17.7-27.1.7-5 1.8-11 3.5-17.9 5.6-22.3 11.1-25.9 11.1-25.9s5.7-7.6 0-30.9-5.6-23.4-5.6-23.4z"/><ellipse class="st15" cx="329.4" cy="185.4" rx="27.6" ry="45.5"/><path class="st3" d="M278.3 157.5s27.8 17.3 59.6 5.6c0 0 13.4 12.8 30.1 9.5 16.7-3.3 25.1-13.4 18.9-22.8 0 0-21.9-9.5-31.2-5.6 0 0 4.7-35.4-38.4-35.6-46.8-.4-39 48.9-39 48.9z"/><path class="st15" d="m388.9 317.3 8.6 42.3s23.4 7.2 45.7 25.1c22.3 17.8 30.1 26.7 25.6 34.5-4.5 7.8-23.4 5.6-23.4 5.6l-20-25.2-51.4-12.7s-24.5-10-25.6-20c-1.1-10-2.8-26.2-2.8-26.2l43.3-23.4zM280.7 185.7s-.3 31.1-17.7 46.7-17.4 24.6 5.3 31.5c22.8 7 54.4 5 57.1-6.3S313 239.4 313 239.4l-.2-30.7-8.7-17.9-23.4-5.1z"/><ellipse transform="rotate(-12.569 305.187 178.158)" class="st15" cx="305.1" cy="178.1" rx="7.2" ry="11.9"/><path d="M269.3 224.5s-45.1 5.9-67.9 25.4-37.3 35.6-39 72.4 7 68.8 7 68.8l11.9-1.5-34.5 61.8s-5.8 23.4 18.1 30.6l3.6-25.1s57.3 39.5 134.4 25.1c0 0 27.5-3.3 30.3-12.8v-95.8l8.4-18.6 3.9-14.2 47.3-21.2s.6-14.5-14.5-39-49.1-49.6-66-53.4l.5 12.2s12.5 9.4 2 15c-10.6 5.6-50.7-1.7-50.7-1.7s-10.6-5.8-1.7-15.4c3.9-4.2 4.1-4.1 4.1-4.1l2.8-8.5z" style="fill:#ff4d53"/><path class="st15" d="m189.2 384.7 49.6-17.8s2.2 18.4 15.6 24.5 103.9 3.9 103.9 3.9 11.4 2.8 15.9-8.4 8.4-15.6 11.1-9.5c2.8 6.1 0 18.2 0 18.2s17.8 19.7 32.9 17.4c0 0-4.5 17.8-41.2 8.4l-14.5-6.7s-59 23.2-108.6 16.1c-3.9-.6-36.8-8.9-54.6-25.1-.1.1-11.2-9.9-10.1-21z"/><path style="fill:none;stroke:#3a3a3a;stroke-width:2;stroke-linecap:round;stroke-miterlimit:10" d="M305.1 810.3 295 826.5"/><path d="m308.8 863.1-.2-.1-59.9-20.6.8-2.3 59.6 20.5c8.2-.4 29.7-3.1 33.8-10.5 1-1.8.9-3.8-.3-6.1l2.1-1.1c1.6 3 1.7 5.9.2 8.4-5.7 10.1-34.8 11.7-36.1 11.7v.1z" style="fill:#4c4c4c"/><path class="st19" d="M168.2 870.6c-13.4 0-23.2-15-23.6-15.6-.4-.6-.2-1.3.4-1.7.6-.4 1.3-.2 1.7.4.1.1 9.5 14.5 21.5 14.5 7 0 13.7-4.9 19.9-14.5.4-.6 1.1-.7 1.7-.4.6.4.7 1.1.4 1.7-6.7 10.4-14.1 15.6-22 15.6zM178 829.2h-21.2c-.7 0-1.2-.5-1.2-1.2s.5-1.2 1.2-1.2H178c.7 0 1.2.5 1.2 1.2s-.5 1.2-1.2 1.2z"/><path d="M309.3 895.3s-5.4-26.7 25.9-68c0 0-21.6 47.8-11.3 61.2 0 0-4.7-23.4 22.8-49.6 0 0-13.1 37.3 0 55.1 0 0 6.4-42.3 29.8-55.1 0 0-21.2 34-7.8 60.7 0 0-2.7-24.5 26-49 0 0-19.7 35.6 0 53.5 0 0-3-45.7 18.9-53.5 0 0-18.1 22.3-5.9 49 0 0 1.9-31.2 20.4-60.7 0 0-19.3 54-4.3 65.1 0 0-.6-62.2 26.2-76.8 0 0-21.2 41.1 0 63.4 0 0-4.5-21.2 16.7-39 0 0-14.5 21.2 0 39 0 0 4.5-42.3 36.8-51.8 0 0-34.5 22.8-22.3 52.9 0 0-4.5-35.6 22.3-45.7 0 0-23.4 17.8-13.4 44.5 0 0-5.6-20 26.7-39 0 0-32.4 33.4-9.5 40.1 0 0 3.8-35.6 34-50.3 0 0-23.4 26.9-20 50.3 0 0 0-26.7 29-41.2 0 0-29 21.2-15.6 40.1 0 0 23.4-39 26.7-51.8 3.3-12.8-20 56.2-20 56.2s20.7-11.5 20.4-33.9c0 0 12.6 14.9 0 32.8 0 0 18.6-7.8 15.3-46.8 0 0 13.1 23.4.4 47.9 0 0 18.4-21.2 12.3-41.2 0 0 16.3 6.7 1.2 45.7 0 0-2.6-18.6 21.7-38.3 0 0-14.3 19.4-12.7 36.1 0 0 7.7-3 22.4-29.4l-7.4 26.1s9.1-12.4 15.6-22.6c6.5-10.2-8.2 25.9-8.2 25.9s11.5-3.2 20.4-29.4l-5.8 31.7s16-64.5 14.3-41.2c-.8 11.1 1.5 15.6-5.2 33.4 0 0 14.4-6.5 13.4-30.5-.1-2.2-.3-4.6-.7-7.1-4.5-29.9 9.7 15.4.7 39.9 0 0 4.3 4.3 14.5-32.8 0 0 11.2 2.7 0 36.1 0 0 7.7-12.3 21.1-50.1 0 0 .4 21.2-10.9 47.9 0 0 6.5-22.6 36.5-53.6 0 0-17.8 34.7-22.3 53.6 0 0 14.5-36.8 38.4-45.7 0 0-17.3 16.7-19.5 45.7 0 0 20-7.6 32.3-33.9 0 0 9.4 16.1-7.6 37.2 0 .1-174.6 102.7-432.7-3.1z" style="fill:#06b780"/><path class="st21" d="M548.9 425h54.6v96.4h-54.6zM870.5 426.3h54.6v96.4h-54.6z"/><path class="st22" d="M548.9 470.7h54.6v2.5h-54.6z"/><path transform="rotate(90 576.185 473.044)" class="st22" d="M527.7 471.8h96.9v2.5h-96.9z"/><path class="st21" d="M870.5 426.5h54.6v96.4h-54.6z"/><path class="st22" d="M870.5 472.2h54.6v2.5h-54.6z"/><path transform="rotate(90 897.794 474.484)" class="st22" d="M849.3 473.2h96.9v2.5h-96.9z"/><path class="st5" d="m590.6 341 148.5-171.4 148.4 182.2H585.1z"/><path style="fill:#f1f2f2" d="m601.2 340.9 138.1-165.2 138.1 175.5H596z"/><path class="st21" d="m613.8 343.4 123.3-145.1L860.8 349v213.9h-247z"/><path d="M664.7 371.2h144.4s7.1-87.9-78.1-92.3c0 0-79.6 10.8-66.3 92.3z" style="fill:#e6e7e8"/><path class="st22" d="M613.8 393.6h247v14.5h-247z"/><path class="st4" d="M705.9 432.2H766v120.6h-60.1z"/><path style="fill:#385e8c" d="M702.3 433.4h60.1V554h-60.1z"/><path style="fill:#a7a9ac" d="M691.5 552.8h85.1v15.6h-85.1z"/><path class="st21" d="M691.5 557.8h85.1v10.6h-85.1z"/><g><path class="st27" d="M548.9 824.9s-2.1.6-5.9 1.5"/><path class="st28" d="M531 829c-38.3 7.1-130.9 16.1-203.7-43.3"/><path class="st27" d="M322.6 781.8c-1.5-1.3-3-2.7-4.5-4"/></g><g><path class="st27" d="M541.4 778.7s-2.1.6-5.9 1.5"/><path class="st28" d="M523.5 782.7c-38.3 7.1-130.9 16.1-203.7-43.3"/><path class="st27" d="M315.1 735.5c-1.5-1.3-3-2.7-4.5-4"/></g><g><path class="st29" d="M734 372.4c-.2 0-.5-.1-.7-.2L667.6 326l1.4-2 63.7 44.8-2.9-89.9 2.4-.1 3 92.3c0 .5-.2.9-.6 1.1-.2.1-.4.2-.6.2z"/></g><g><path transform="rotate(-40.425 765.587 344.196)" class="st29" d="M724.1 343h83.1v2.4h-83.1z"/></g><g><path class="st21" d="M662.9 120.8c-64.4-31-136.9-35.9-186.4-34.6-53.6 1.4-92.5 10.3-92.9 10.4l-.5-2.4c.4-.1 39.5-9 93.3-10.5 49.7-1.3 122.7 3.6 187.5 34.9l-1 2.2z"/></g><g><path class="st21" d="M713.7 164.1c-61-37.3-132.6-49.5-181.9-53.2-53.5-4-93.1 1-93.5 1l-.3-2.4c.4-.1 40.2-5 93.9-1 49.6 3.7 121.7 16 183.1 53.6l-1.3 2z"/></g></svg>