<svg version="1.1" id="Layer_1" xmlns="http://www.w3.org/2000/svg" x="0" y="0" viewBox="0 0 941 814.5" style="enable-background:new 0 0 941 814.5" xml:space="preserve"><style>.st1{fill:#3470b9}.st3{fill:#6b82c0}.st5{fill:#fff}.st6{fill:none;stroke:#d1d3d4;stroke-width:4;stroke-miterlimit:10}.st8{fill:#ff4d53}.st10{fill:#933d2c}.st11{fill:#9e4a30}.st12{opacity:.63;fill:#8c361d}.st13{fill:#fca819}.st14{fill:#4d6188}.st15{fill:none;stroke:#231f20;stroke-miterlimit:10}.st19{fill:#b54422}</style><path d="M51.6 616.1c98.7 213.7 291.9 195.7 522 177.5 454.1-35.9 368.2-266.3 273.9-451.9C740.8 132 711.7-21.9 484 15.9S-100.1 287.8 51.6 616.1z" style="fill:#cfb5f6"/><path class="st1" d="M802.7 689H465.1L463 306.8h339.7z"/><path style="fill:none;stroke:#fff;stroke-miterlimit:10" d="M517.1 306.8h285.7V689H517.1z"/><path class="st3" d="M517.1 306.8h285.7V689H517.1z"/><path class="st1" d="M543.1 385s31.8-6.8 37.6-32.8H741s9.7 32.8 32.8 32.8l4.8 228.7s-34.7-1.9-40.5 33.8h-166s-2.9-31.8-29-29.9V385z"/><path class="st3" d="M463 338.2h54v34.3h-54z"/><g style="opacity:.41"><path class="st5" d="M609.9 478v15.9h-45.5v-64.8h19.9V478h25.6zM656.8 493.9l-3.7-12.8h-17.4l-3.9 12.8h-16.2l20-64.8h21l20.3 64.8h-20.1zM639.2 467h10.5l-5.2-18.8-5.3 18.8zM756.7 429.1l-17.2 64.8h-16.7l-9.1-35.8-8.6 35.8h-17.4l-17.2-64.8h18.7l9.1 37.3 8.8-37.3h15.6l9.6 37.4 9.1-37.4h15.3z"/></g><g><path class="st5" d="M407.1 607.8h231.6v91.9H407.1z"/><path class="st6" d="M415.6 635.3h219.3M415.6 658h219.3M415.6 680.7h219.3"/><path d="M431.2 709.1H145c-17.7-33.9-17.7-74.2 0-108.1h286.2l-7 17.1c-9.7 23.7-9.7 50.2 0 73.9l7 17.1z" style="fill:#f5534e"/><path class="st8" d="M414.8 601h228.9v13.7H414.8zM414.8 695.1h233.5v13.4H414.8z"/><path d="M402.9 700.3H162.8c-14.8-28.4-14.8-62.3 0-90.7h240L397 624c-8.2 19.9-8.2 42.2 0 62l5.9 14.3z" style="fill:#f37c78"/></g><g><ellipse transform="rotate(-64.591 586.841 641.362)" class="st10" cx="586.8" cy="641.4" rx="19.8" ry="43.9"/><ellipse transform="rotate(-64.591 593.331 621.101)" class="st11" cx="593.3" cy="621.1" rx="19.8" ry="45.1"/><ellipse transform="rotate(-64.591 595.917 615.657)" class="st12" cx="595.9" cy="615.7" rx="12.8" ry="37.6"/><path class="st10" d="m638.7 594.7 170.5 72.4 31.8 13.2s14.8 16.4-8 25.1l-200.1-94.9 5.8-15.8z"/><path class="st13" d="m595.9 546.5-34 53.1s10.4 35.2 64.2 35.2l28-53.8-58.2-34.5z"/><g><ellipse transform="rotate(-64.591 626.13 557.914)" class="st10" cx="626.1" cy="557.9" rx="19.8" ry="45.1"/><ellipse transform="rotate(-64.591 634.982 539.277)" class="st11" cx="635" cy="539.3" rx="19.8" ry="45.1"/><ellipse transform="rotate(-64.591 639.314 533.43)" class="st12" cx="639.3" cy="533.4" rx="12.8" ry="37.6"/></g></g><g><path class="st10" d="M653.1 708.5H489.6v-21.3c0-13.3 10.8-24.1 24.1-24.1h115.4c13.3 0 24.1 10.8 24.1 24.1v21.3z"/><path class="st11" d="M489.6 685.8h163.6v22.7H489.6z"/></g><g><path class="st14" d="M439.6 601H281.5v-3.4c0-5.7 4.6-10.4 10.4-10.4h142c3.2 0 5.8 2.6 5.8 5.8v8zM422.3 587.2H299.4v-6.6c0-4 3.2-7.2 7.2-7.2H415c4 0 7.2 3.2 7.2 7.2v6.6z"/><path class="st14" d="M360.8 144.7 353 580.2h27L372.3 136z"/><path class="st14" d="M365.2 156.6s-33.8.7-2.8-50.4c1.3-2.2 4.4-2.3 5.9-.2 7.9 11.7 26.3 43.5-3.1 50.6z"/><circle class="st14" cx="203.7" cy="210.5" r="8.4"/><circle class="st14" cx="526.6" cy="209.2" r="8.4"/><path class="st14" d="M208.3 217.6s32.3-4.4 66.6-24.2 82-21.2 82-21.2 37.2-4.3 74.3 9.7c37.2 14 39.1 18.9 39.1 18.9s45.3 18.9 53.6 16.9c0 0-9.2 8.3-56.5-8.4 0 0-37.1-22.6-94.3-26.9-57.1-4.3-112.3 26.9-112.3 26.9s-36.6 15.2-52.5 8.3z"/><path class="st15" d="m159 398 69-182.4M297 398l-69-182.4M228 223.3v172.8"/><g><path d="M300.4 392.9c0 39.9-32.4 72.3-72.3 72.3s-72.3-32.4-72.3-72.3" style="fill:#ffa80a"/></g><g><path class="st15" d="m433.5 402.1 69-182.4M571.5 402.1l-69-182.4M502.5 227.4v172.7"/><g><path d="M574.9 392.9c0 39.9-32.4 72.3-72.3 72.3s-72.3-32.4-72.3-72.3" style="fill:#feac02"/></g></g></g><g><path d="M213.1 505.9s-.9 18.1 15 31.1c17.6 14.5 0 30.4 0 30.4s-15 12.8-10.6 23.2h57.4s2.4-12.1-15.9-25.2c-16.2-11.5 3.6-29.9 3.6-29.9s21-23.6 14.7-29.7h-64.2z" style="fill:#d9e4f8"/><path class="st19" d="M276 511.9h-64.6c-3 0-5.5-2.5-5.5-5.5v-1.1c0-3 2.5-5.5 5.5-5.5H276c3 0 5.5 2.5 5.5 5.5v1.1c0 3-2.5 5.5-5.5 5.5zM274 600.1h-64.6c-3 0-5.5-2.5-5.5-5.5v-1.1c0-3 2.5-5.5 5.5-5.5H274c3 0 5.5 2.5 5.5 5.5v1.1c0 3-2.4 5.5-5.5 5.5z"/><path class="st13" d="M219.8 589.1s-1.4-11.5 10.1-11.5c11.6 0 10.3-10.1 15.8-10.1 5.4 0 22.5 7.8 25.2 20.7l-51.1.9zM228 531.2s15.4-14.5 34.5-3.9l-13.3 19.1s-4 9-7.5 0-13.7-15.2-13.7-15.2z"/></g></svg>