<svg version="1.1" id="Layer_1" xmlns="http://www.w3.org/2000/svg" x="0" y="0" viewBox="0 0 851.62 569.58" style="enable-background:new 0 0 851.62 569.58" xml:space="preserve"><style>.st0{fill:#e5d1f7}.st1{fill:#4d6188}.st2{fill:#fff}.st3{fill:#456ba7}.st4{fill:#a73c3e}.st5{fill:#f79f54}.st6{fill:#345689}.st7{opacity:.54}.st8{opacity:.6;fill:#ebf2fb}.st11{fill:#fab175}.st13{fill:#862ee1}.st14{fill:#6a2cbd}.st15{fill:#3b4a8b}.st16{fill:#eba252}.st20{fill:#6d6e71}.st21{fill:#a6d0a0}.st22{fill:#92b391}</style><ellipse transform="rotate(-45.001 698.72 207.823)" class="st0" cx="698.72" cy="207.81" rx="30.97" ry="57.46"/><path class="st0" d="M82.13 554.29c0-4.89-143.2-197.77-56.14-311.63 68.02-88.96 140.46-51.6 207.27-43.18 14.4 1.81 41.96-6.15 54.63-13.97 20.76-12.81 32.95-35.6 83.06-75.79 84.84-68.05 161.87-56.09 214.82-1.03 69.39 72.14 60.81 138.31 112.55 150.97 51.73 12.66 168.97 66.33 149.45 161.44-19.53 95.12-47.37 131.76-47.37 131.76l-718.27 1.43z"/><path class="st1" d="M22.88 226.94H205.4V555.3H22.88z"/><path class="st2" d="M22.88 231.75h178.85v319.18H22.88z"/><path class="st1" d="M22.88 226.94h26.6V555.3h-26.6z"/><path class="st3" d="M43.97 305.45H205.4v7.7H43.97z"/><path class="st1" d="M43.97 387.26H205.4v7.7H43.97zM42.6 469.08h161.43v7.7H42.6z"/><path class="st4" d="M49.48 248.49h12.38v56.96H49.48z"/><path class="st5" d="M61.86 243.45h12.38v62H61.86z"/><path class="st4" d="M74.24 239.09h9.63v66.36h-9.63z"/><path class="st5" d="M83.87 243.45h10.09v62H83.87z"/><path class="st3" d="M93.96 253.76h10.09v51.69H93.96z"/><path class="st4" d="M104.05 253.76h12.11v51.69h-12.11z"/><path class="st5" d="M116.16 243.45h12.11v62h-12.11z"/><path class="st4" d="M128.27 239.09h11.61v66.36h-11.61z"/><path class="st3" d="M139.89 246.66h9.8v58.98h-9.8z"/><path class="st6" d="M149.68 253.76h9.8v51.87h-9.8z"/><path class="st4" d="M159.48 253.76h12.45v51.78h-12.45z"/><path transform="rotate(-16.552 184.894 273.44)" class="st5" d="M179.75 243.66h10.32v59.61h-10.32z"/><path class="st4" d="M63.46 263.62h7.94v17.66h-7.94zM118.25 253.88h7.94v17.66h-7.94z"/><path class="st7" d="M161.52 283.49h7.94v17.66h-7.94z"/><path class="st8" d="M86.39 280.36h4.59v10.76h-4.59zM141.84 256.52h5.88v14.78h-5.88zM104.05 255.76h12.11v4.82h-12.11zM149.62 288.1h9.85v2.41h-9.85zM149.65 291.12h9.85v2.41h-9.85zM116.16 296.07h11.61v4.82h-11.61z"/><path class="st7" d="M104.05 262.71h12.11v2.41h-12.11zM93.96 300.89h10.09v2.41H93.96zM93.96 297.79h10.09v2.41H93.96z"/><path class="st8" d="M83.87 245.45h9.85v2.41h-9.85z"/><path class="st7" d="M49.48 253.76h12.5v3.32h-12.5zM128.28 244.99h11.77v2.87h-11.77zM128.28 298.76h11.43v2.87h-11.43zM159.48 259.15h12.45v2.87h-12.45z"/><g><path transform="rotate(-180 194.932 525.63)" class="st4" d="M188.74 497.15h12.38v56.96h-12.38z"/><path transform="rotate(-180 182.55 523.108)" class="st5" d="M176.36 492.11h12.38v62h-12.38z"/><path transform="rotate(-180 171.543 520.93)" class="st4" d="M166.73 487.75h9.63v66.36h-9.63z"/><path transform="rotate(-180 161.683 523.108)" class="st5" d="M156.64 492.11h10.09v62h-10.09z"/><path transform="rotate(-180 151.594 528.267)" class="st3" d="M146.55 502.42h10.09v51.69h-10.09z"/><path transform="rotate(-180 140.494 528.267)" class="st4" d="M134.44 502.42h12.11v51.69h-12.11z"/><path transform="rotate(-180 128.382 523.108)" class="st5" d="M122.33 492.11h12.11v62h-12.11z"/><path transform="rotate(-180 116.52 520.93)" class="st4" d="M110.72 487.75h11.61v66.36h-11.61z"/><path transform="rotate(-180 105.817 524.805)" class="st3" d="M100.92 495.32h9.8v58.98h-9.8z"/><path transform="rotate(-180 96.02 528.359)" class="st6" d="M91.12 502.42h9.8v51.87h-9.8z"/><path transform="rotate(-180 84.9 528.313)" class="st4" d="M78.68 502.42h12.45v51.78H78.68z"/><path transform="scale(-1) rotate(16.552 3589.362 -451.61)" class="st5" d="M60.53 492.32h10.32v59.61H60.53z"/><path transform="rotate(-180 183.164 521.113)" class="st4" d="M179.19 512.28h7.94v17.66h-7.94z"/><path transform="rotate(-180 128.382 511.367)" class="st4" d="M124.41 502.54h7.94v17.66h-7.94z"/><path transform="rotate(-180 85.11 540.983)" class="st7" d="M81.14 532.15h7.94v17.66h-7.94z"/><path transform="rotate(-180 161.913 534.401)" class="st8" d="M159.62 529.02h4.59v10.76h-4.59z"/><path transform="rotate(-180 105.817 512.571)" class="st8" d="M102.88 505.18h5.88v14.78h-5.88z"/><path transform="rotate(-180 140.494 506.832)" class="st8" d="M134.44 504.42h12.11v4.82h-12.11z"/><path transform="rotate(-180 96.05 537.96)" class="st8" d="M91.12 536.76h9.85v2.41h-9.85z"/><path transform="rotate(-180 96.02 540.983)" class="st8" d="M91.09 539.78h9.85v2.41h-9.85z"/><path transform="rotate(-180 128.632 547.138)" class="st8" d="M122.83 544.73h11.61v4.82h-11.61z"/><path transform="rotate(-180 140.494 512.571)" class="st7" d="M134.44 511.37h12.11v2.41h-12.11z"/><path transform="rotate(-180 151.594 550.75)" class="st7" d="M146.55 549.55h10.09v2.41h-10.09z"/><path transform="rotate(-180 151.594 547.653)" class="st7" d="M146.55 546.45h10.09v2.41h-10.09z"/><path transform="rotate(-180 161.803 495.316)" class="st8" d="M156.88 494.11h9.85v2.41h-9.85z"/><path transform="rotate(-180 194.874 504.087)" class="st7" d="M188.63 502.42h12.5v3.32h-12.5z"/><path transform="rotate(-180 116.435 495.087)" class="st7" d="M110.55 493.65h11.77v2.87h-11.77z"/><path transform="rotate(-180 116.603 548.857)" class="st7" d="M110.89 547.42h11.43v2.87h-11.43z"/><path transform="rotate(-180 84.9 509.24)" class="st7" d="M78.68 507.81h12.45v2.87H78.68z"/></g><g><path class="st4" d="M70.8 343.46h12.38v43.64H70.8zM92.82 339.33h10.32v47.76H92.82z"/><path class="st5" d="M49.62 331.1h11.09v56H49.62zM103.13 336.15h11.09v50.95h-11.09zM179.37 339.33h10.44v47.76h-10.44z"/><path class="st3" d="M60.71 322.85H70.8v64.25H60.71zM82.87 322.85h10.09v64.25H82.87zM114.14 322.85h10.09v64.25h-10.09zM146.31 336.15h10.09v50.95h-10.09z"/><path class="st5" d="M124.69 322.85h10.09v64.25h-10.09zM156.39 328.06h12.32v59.04h-12.32z"/><path class="st3" d="M168.71 322.85h10.32v64.62h-10.32zM189.81 331.1h11.92v56.36h-11.92z"/><path class="st4" d="M134.69 343.46h11.61v44h-11.61z"/><path class="st7" d="M136.53 371.2h7.94v11.48h-7.94zM115.21 328.06h7.94v2.57h-7.94zM115.21 332.14h7.94v4.47h-7.94zM124.73 328.06h10.01v2.57h-10.01zM124.46 383.1h10.01v2.57h-10.01z"/><path class="st4" d="M158.51 336.15h7.94v17.66h-7.94zM104.71 375.09h7.94v3.69h-7.94zM49.62 334.37h11.09v3.44H49.62zM49.62 381.38h11.09v3.44H49.62zM104.71 379.94h7.94v3.69h-7.94z"/><path class="st8" d="M189.81 336.61h11.6v2.41h-11.6zM168.71 381.79h10.32v2.6h-10.32zM60.71 325.2H70.8v5.5H60.71zM60.71 332.62H70.8v1.86H60.71zM95.22 357.4h5.5v13.88h-5.5zM189.84 339.63h11.6v2.41h-11.6z"/><path class="st7" d="M179.03 360.19h10.78v2.26h-10.78zM179.03 363.22h10.78v2.26h-10.78z"/></g><g><path transform="rotate(-180 174.217 446.89)" class="st4" d="M168.03 425.07h12.38v43.64h-12.38z"/><path transform="scale(-1) rotate(16.552 3020.702 -977.581)" class="st5" d="M136.66 410.31h11.09v58.19h-11.09z"/><path transform="rotate(-180 66.623 444.827)" class="st5" d="M61.4 420.95h10.44v47.76H61.4z"/><path transform="rotate(-180 185.452 436.584)" class="st3" d="M180.41 404.46h10.09v64.25h-10.09z"/><path transform="rotate(-180 162.366 436.584)" class="st3" d="M156.39 404.46h11.94v64.25h-11.94z"/><path transform="rotate(-180 99.86 443.234)" class="st3" d="M94.82 417.76h10.09v50.95H94.82z"/><path transform="rotate(-180 121.478 436.584)" class="st5" d="M116.43 404.46h10.09v64.25h-10.09z"/><path transform="rotate(-180 88.656 439.19)" class="st5" d="M82.5 409.67h12.32v59.04H82.5z"/><path transform="rotate(-180 77.338 436.768)" class="st3" d="M72.18 404.46H82.5v64.62H72.18z"/><path transform="rotate(-180 55.44 440.895)" class="st3" d="M49.48 412.71H61.4v56.36H49.48z"/><path transform="rotate(-180 110.71 447.074)" class="st4" d="M104.9 425.07h11.61v44H104.9z"/><path transform="rotate(-180 110.71 458.551)" class="st7" d="M106.74 452.81h7.94v11.48h-7.94z"/><path transform="rotate(-180 173.873 446.825)" class="st7" d="M169.9 427.65h7.94V466h-7.94z"/><path transform="rotate(-180 121.478 410.954)" class="st7" d="M116.47 409.67h10.01v2.57h-10.01z"/><path transform="rotate(-180 121.748 466)" class="st7" d="M116.75 464.72h10.01v2.57h-10.01z"/><path transform="rotate(-180 88.732 426.586)" class="st4" d="M84.76 417.76h7.94v17.66h-7.94z"/><path transform="rotate(-180 55.604 419.425)" class="st8" d="M49.81 418.22h11.6v2.41h-11.6z"/><path transform="rotate(-180 77.338 464.7)" class="st8" d="M72.18 463.4H82.5v2.6H72.18z"/><path transform="rotate(-180 185.452 409.559)" class="st8" d="M180.41 406.81h10.09v5.5h-10.09z"/><path transform="rotate(-180 162.554 451.292)" class="st8" d="M157.51 436.58h10.09V466h-10.09z"/><path transform="rotate(-180 162.366 412.677)" class="st8" d="M157.32 409.56h10.09v6.24h-10.09z"/><path transform="rotate(-180 185.452 415.165)" class="st8" d="M180.41 414.23h10.09v1.86h-10.09z"/><path transform="rotate(-180 55.57 422.448)" class="st8" d="M49.77 421.24h11.6v2.41h-11.6z"/><path transform="rotate(-180 66.79 442.932)" class="st7" d="M61.4 441.8h10.78v2.26H61.4z"/><path transform="rotate(-180 66.79 445.959)" class="st7" d="M61.4 444.83h10.78v2.26H61.4z"/></g><g><path transform="rotate(-180 747.65 402.253)" class="st1" d="M662.73 249.49h169.83v305.53H662.73z"/><path transform="rotate(-180 749.356 402.466)" class="st2" d="M666.15 253.97h166.42v296.99H666.15z"/><path transform="rotate(-180 820.19 402.253)" class="st1" d="M807.82 249.49h24.75v305.53h-24.75z"/><path transform="rotate(-180 737.835 326.128)" class="st1" d="M662.73 322.54h150.2v7.17h-150.2z"/><path transform="rotate(-180 737.835 402.253)" class="st1" d="M662.73 398.67h150.2v7.17h-150.2z"/><path transform="rotate(-180 739.115 478.378)" class="st1" d="M664.01 474.79h150.2v7.17h-150.2z"/><path transform="rotate(-180 802.055 296.045)" class="st4" d="M796.29 269.55h11.52v53h-11.52z"/><path transform="rotate(-180 790.534 293.698)" class="st5" d="M784.77 264.85h11.52v57.69h-11.52z"/><path transform="rotate(-180 780.293 291.671)" class="st4" d="M775.81 260.8h8.96v61.75h-8.96z"/><path transform="rotate(-180 771.118 293.698)" class="st5" d="M766.42 264.85h9.39v57.69h-9.39z"/><path transform="rotate(-180 761.73 298.499)" class="st3" d="M757.04 274.45h9.39v48.09h-9.39z"/><path transform="rotate(-180 751.402 298.499)" class="st4" d="M745.77 274.45h11.27v48.09h-11.27z"/><path transform="rotate(-180 740.133 293.698)" class="st5" d="M734.5 264.85h11.27v57.69H734.5z"/><path transform="rotate(-180 729.096 291.671)" class="st4" d="M723.69 260.8h10.8v61.75h-10.8z"/><path transform="rotate(-180 719.137 295.277)" class="st3" d="M714.58 267.84h9.12v54.88h-9.12z"/><path transform="rotate(-180 710.022 298.584)" class="st6" d="M705.46 274.45h9.12v48.26h-9.12z"/><path transform="rotate(-180 699.674 298.541)" class="st4" d="M693.88 274.45h11.58v48.18h-11.58z"/><path transform="scale(-1) rotate(16.552 2012.715 -4687.085)" class="st5" d="M677 265.05h9.6v55.47H677z"/><path transform="rotate(-180 791.106 291.841)" class="st4" d="M787.41 283.63h7.39v16.43h-7.39z"/><path transform="rotate(-180 740.133 282.774)" class="st4" d="M736.44 274.56h7.39v16.43h-7.39z"/><path transform="rotate(-180 699.87 310.33)" class="st7" d="M696.17 302.12h7.39v16.43h-7.39z"/><path transform="rotate(-180 771.332 304.206)" class="st8" d="M769.2 299.2h4.27v10.01h-4.27z"/><path transform="rotate(-180 719.137 283.894)" class="st8" d="M716.4 277.02h5.47v13.75h-5.47z"/><path transform="rotate(-180 751.402 278.554)" class="st8" d="M745.77 276.31h11.27v4.48h-11.27z"/><path transform="rotate(-180 710.048 307.517)" class="st8" d="M705.46 306.4h9.17v2.24h-9.17z"/><path transform="rotate(-180 710.022 310.33)" class="st8" d="M705.44 309.21h9.17v2.24h-9.17z"/><path transform="rotate(-180 740.366 316.057)" class="st8" d="M734.96 313.82h10.8v4.48h-10.8z"/><path transform="rotate(-180 751.402 283.894)" class="st7" d="M745.77 282.77h11.27v2.24h-11.27z"/><path transform="rotate(-180 761.73 319.418)" class="st7" d="M757.04 318.3h9.39v2.24h-9.39z"/><path transform="rotate(-180 761.73 316.536)" class="st7" d="M757.04 315.42h9.39v2.24h-9.39z"/><path transform="rotate(-180 771.23 267.839)" class="st8" d="M766.65 266.72h9.17v2.24h-9.17z"/><path transform="rotate(-180 802.002 276)" class="st7" d="M796.19 274.45h11.63v3.09h-11.63z"/><path transform="rotate(-180 729.016 267.626)" class="st7" d="M723.54 266.29h10.95v2.67h-10.95z"/><path transform="rotate(-180 729.173 317.656)" class="st7" d="M723.85 316.32h10.64v2.67h-10.64z"/><path transform="rotate(-180 699.674 280.794)" class="st7" d="M693.88 279.46h11.58v2.67h-11.58z"/><g><path class="st4" d="M666.71 500.92h11.52v53h-11.52z"/><path class="st5" d="M678.24 496.22h11.52v57.69h-11.52z"/><path class="st4" d="M689.76 492.17h8.96v61.75h-8.96z"/><path class="st5" d="M698.72 496.22h9.39v57.69h-9.39z"/><path class="st3" d="M708.11 505.82h9.39v48.09h-9.39z"/><path class="st4" d="M717.49 505.82h11.27v48.09h-11.27z"/><path class="st5" d="M728.76 496.22h11.27v57.69h-11.27z"/><path class="st4" d="M740.03 492.17h10.8v61.75h-10.8z"/><path class="st3" d="M750.84 499.21h9.12v54.88h-9.12z"/><path class="st6" d="M759.95 505.82h9.12v48.26h-9.12z"/><path class="st4" d="M769.07 505.82h11.58V554h-11.58z"/><path transform="rotate(-16.552 792.662 524.113)" class="st5" d="M787.93 496.42h9.6v55.47h-9.6z"/><path class="st4" d="M679.73 515h7.39v16.43h-7.39zM730.7 505.93h7.39v16.43h-7.39z"/><path class="st7" d="M770.97 533.49h7.39v16.43h-7.39z"/><path class="st8" d="M701.07 530.57h4.27v10.01h-4.27zM752.66 508.39h5.47v13.75h-5.47zM717.49 507.68h11.27v4.48h-11.27zM759.9 537.77h9.17v2.24h-9.17zM759.92 540.58h9.17v2.24h-9.17zM728.76 545.19h10.8v4.48h-10.8z"/><path class="st7" d="M717.49 514.14h11.27v2.24h-11.27zM708.11 549.67h9.39v2.24h-9.39zM708.11 546.79h9.39v2.24h-9.39z"/><path class="st8" d="M698.72 498.09h9.17v2.24h-9.17z"/><path class="st7" d="M666.71 505.82h11.63v3.09h-11.63zM740.04 497.66h10.95v2.67h-10.95zM740.04 547.69h10.64v2.67h-10.64zM769.07 510.83h11.58v2.67h-11.58z"/></g><g><path transform="rotate(-180 782.213 378.214)" class="st4" d="M776.45 357.91h11.52v40.6h-11.52z"/><path transform="rotate(-180 762.69 376.294)" class="st4" d="M757.89 354.07h9.6v44.44h-9.6z"/><path transform="rotate(-180 802.52 372.464)" class="st5" d="M797.36 346.41h10.32v52.1h-10.32z"/><path transform="rotate(-180 752.731 374.811)" class="st5" d="M747.57 351.11h10.32v47.41h-10.32z"/><path transform="rotate(-180 682.1 376.294)" class="st5" d="M677.24 354.07h9.72v44.44h-9.72z"/><path transform="rotate(-180 792.667 368.624)" class="st3" d="M787.97 338.73h9.39v59.78h-9.39z"/><path transform="rotate(-180 772.049 368.624)" class="st3" d="M767.36 338.73h9.39v59.78h-9.39z"/><path transform="rotate(-180 742.955 368.624)" class="st3" d="M738.26 338.73h9.39v59.78h-9.39z"/><path transform="rotate(-180 713.026 374.811)" class="st3" d="M708.33 351.11h9.39v47.41h-9.39z"/><path transform="rotate(-180 733.141 368.624)" class="st5" d="M728.45 338.73h9.39v59.78h-9.39z"/><path transform="rotate(-180 702.602 371.048)" class="st5" d="M696.87 343.58h11.46v54.93h-11.46z"/><path transform="rotate(-180 692.07 368.795)" class="st3" d="M687.27 338.73h9.6v60.12h-9.6z"/><path transform="rotate(-180 671.695 372.635)" class="st3" d="M666.15 346.41h11.09v52.44h-11.09z"/><path transform="rotate(-180 723.122 378.385)" class="st4" d="M717.72 357.91h10.8v40.94h-10.8z"/><path transform="rotate(-180 723.122 389.063)" class="st7" d="M719.43 383.72h7.39v10.68h-7.39z"/><path transform="rotate(-180 742.955 344.776)" class="st7" d="M739.26 343.58h7.39v2.39h-7.39z"/><path transform="rotate(-180 742.955 349.457)" class="st7" d="M739.26 347.38h7.39v4.16h-7.39z"/><path transform="rotate(-180 733.141 344.776)" class="st7" d="M728.49 343.58h9.31v2.39h-9.31z"/><path transform="rotate(-180 733.393 395.995)" class="st7" d="M728.74 394.8h9.31v2.39h-9.31z"/><path transform="rotate(-180 702.673 359.321)" class="st4" d="M698.98 351.11h7.39v16.43h-7.39z"/><path transform="rotate(-180 752.731 389.063)" class="st4" d="M749.04 387.35h7.39v3.44h-7.39z"/><path transform="rotate(-180 802.52 351.058)" class="st4" d="M797.36 349.46h10.32v3.2h-10.32z"/><path transform="rotate(-180 802.52 394.8)" class="st4" d="M797.36 393.2h10.32v3.2h-10.32z"/><path transform="rotate(-180 752.731 393.577)" class="st4" d="M749.04 391.86h7.39v3.44h-7.39z"/><path transform="rotate(-180 671.847 352.658)" class="st8" d="M666.45 351.54h10.79v2.24h-10.79z"/><path transform="rotate(-180 692.07 394.786)" class="st8" d="M687.27 393.58h9.6V396h-9.6z"/><path transform="rotate(-180 792.667 343.478)" class="st8" d="M787.97 340.92h9.39v5.12h-9.39z"/><path transform="rotate(-180 792.667 348.694)" class="st8" d="M787.97 347.83h9.39v1.73h-9.39z"/><path transform="rotate(-180 762.69 377.347)" class="st8" d="M760.13 370.89h5.12v12.92h-5.12z"/><path transform="rotate(-180 671.816 355.47)" class="st8" d="M666.42 354.35h10.79v2.24h-10.79z"/><path transform="rotate(-180 682.256 374.53)" class="st7" d="M677.24 373.48h10.03v2.11h-10.03z"/><path transform="rotate(-180 682.256 377.347)" class="st7" d="M677.24 376.29h10.03v2.11h-10.03z"/></g><g><path class="st4" d="M685.99 433.85h11.52v40.6h-11.52z"/><path transform="rotate(-16.552 721.478 447.152)" class="st5" d="M716.38 420.11h10.32v54.14h-10.32z"/><path class="st5" d="M787 430.01h9.72v44.44H787z"/><path class="st3" d="M676.6 414.67h9.39v59.78h-9.39zM697.22 414.67h11.11v59.78h-11.11zM756.24 427.04h9.39v47.41h-9.39z"/><path class="st5" d="M736.13 414.67h9.39v59.78h-9.39zM765.63 419.52h11.46v54.93h-11.46z"/><path class="st3" d="M777.09 414.67h9.6v60.12h-9.6zM796.72 422.35h11.09v52.44h-11.09z"/><path class="st4" d="M745.44 433.85h10.8v40.94h-10.8z"/><path class="st7" d="M747.15 459.66h7.39v10.68h-7.39zM688.38 436.25h7.39v35.68h-7.39zM736.17 419.52h9.31v2.39h-9.31zM735.91 470.74h9.31v2.39h-9.31z"/><path class="st4" d="M767.6 427.04h7.39v16.43h-7.39z"/><path class="st8" d="M796.72 427.47h10.79v2.24h-10.79zM777.09 469.51h9.6v2.42h-9.6zM676.6 416.85h9.39v5.12h-9.39zM697.91 444.56h9.39v27.37h-9.39zM698.08 419.41h9.39v5.8h-9.39zM676.6 423.76h9.39v1.73h-9.39zM796.75 430.29h10.79v2.24h-10.79z"/><path class="st7" d="M786.69 449.41h10.03v2.11h-10.03zM786.69 452.23h10.03v2.11h-10.03z"/></g></g><g><path transform="rotate(-180 626.232 391.115)" class="st1" d="M534.97 226.94h182.52V555.3H534.97z"/><path transform="rotate(-180 628.067 391.344)" class="st2" d="M538.64 231.75h178.85v319.18H538.64z"/><path transform="rotate(-180 704.194 391.115)" class="st1" d="M690.89 226.94h26.6V555.3h-26.6z"/><path transform="rotate(-180 615.685 309.301)" class="st1" d="M534.97 305.45H696.4v7.7H534.97z"/><path transform="rotate(-180 615.685 391.115)" class="st1" d="M534.97 387.26H696.4v7.7H534.97z"/><path transform="rotate(-180 617.06 472.928)" class="st1" d="M536.35 469.08h161.43v7.7H536.35z"/><path transform="rotate(-180 684.704 276.97)" class="st4" d="M678.51 248.49h12.38v56.96h-12.38z"/><path transform="rotate(-180 672.321 274.448)" class="st5" d="M666.13 243.45h12.38v62h-12.38z"/><path transform="rotate(-180 661.315 272.27)" class="st4" d="M656.5 239.09h9.63v66.36h-9.63z"/><path transform="rotate(-180 651.455 274.448)" class="st5" d="M646.41 243.45h10.09v62h-10.09z"/><path transform="rotate(-180 641.366 279.607)" class="st3" d="M636.32 253.76h10.09v51.69h-10.09z"/><path transform="rotate(-180 630.266 279.607)" class="st4" d="M624.21 253.76h12.11v51.69h-12.11z"/><path transform="rotate(-180 618.154 274.448)" class="st5" d="M612.1 243.45h12.11v62H612.1z"/><path transform="rotate(-180 606.293 272.27)" class="st4" d="M600.49 239.09h11.61v66.36h-11.61z"/><path transform="rotate(-180 595.589 276.144)" class="st3" d="M590.69 246.66h9.8v58.98h-9.8z"/><path transform="rotate(-180 585.793 279.698)" class="st6" d="M580.89 253.76h9.8v51.87h-9.8z"/><path transform="rotate(-180 574.672 279.653)" class="st4" d="M568.45 253.76h12.45v51.78h-12.45z"/><path transform="scale(-1) rotate(16.552 1879.91 -3818.567)" class="st5" d="M550.3 243.66h10.32v59.61H550.3z"/><path transform="rotate(-180 672.936 272.452)" class="st4" d="M668.96 263.62h7.94v17.66h-7.94z"/><path transform="rotate(-180 618.154 262.707)" class="st4" d="M614.18 253.88h7.94v17.66h-7.94z"/><path transform="rotate(-180 574.882 292.322)" class="st7" d="M570.91 283.49h7.94v17.66h-7.94z"/><path transform="rotate(-180 651.685 285.74)" class="st8" d="M649.39 280.36h4.59v10.76h-4.59z"/><path transform="rotate(-180 595.589 263.91)" class="st8" d="M592.65 256.52h5.88v14.78h-5.88z"/><path transform="rotate(-180 630.266 258.172)" class="st8" d="M624.21 255.76h12.11v4.82h-12.11z"/><path transform="rotate(-180 585.822 289.3)" class="st8" d="M580.89 288.1h9.85v2.41h-9.85z"/><path transform="rotate(-180 585.793 292.322)" class="st8" d="M580.87 291.12h9.85v2.41h-9.85z"/><path transform="rotate(-180 618.404 298.478)" class="st8" d="M612.6 296.07h11.61v4.82H612.6z"/><path transform="rotate(-180 630.266 263.91)" class="st7" d="M624.21 262.71h12.11v2.41h-12.11z"/><path transform="rotate(-180 641.366 302.09)" class="st7" d="M636.32 300.89h10.09v2.41h-10.09z"/><path transform="rotate(-180 641.366 298.992)" class="st7" d="M636.32 297.79h10.09v2.41h-10.09z"/><path transform="rotate(-180 651.575 246.656)" class="st8" d="M646.65 245.45h9.85v2.41h-9.85z"/><path transform="rotate(-180 684.646 255.427)" class="st7" d="M678.4 253.76h12.5v3.32h-12.5z"/><path transform="rotate(-180 606.207 246.427)" class="st7" d="M600.32 244.99h11.77v2.87h-11.77z"/><path transform="rotate(-180 606.375 300.196)" class="st7" d="M600.66 298.76h11.43v2.87h-11.43z"/><path transform="rotate(-180 574.672 260.58)" class="st7" d="M568.45 259.15h12.45v2.87h-12.45z"/><g><path class="st4" d="M539.25 497.15h12.38v56.96h-12.38z"/><path class="st5" d="M551.63 492.11h12.38v62h-12.38z"/><path class="st4" d="M564.01 487.75h9.63v66.36h-9.63z"/><path class="st5" d="M573.64 492.11h10.09v62h-10.09z"/><path class="st3" d="M583.73 502.42h10.09v51.69h-10.09z"/><path class="st4" d="M593.82 502.42h12.11v51.69h-12.11z"/><path class="st5" d="M605.93 492.11h12.11v62h-12.11z"/><path class="st4" d="M618.05 487.75h11.61v66.36h-11.61z"/><path class="st3" d="M629.66 495.32h9.8v58.98h-9.8z"/><path class="st6" d="M639.45 502.42h9.8v51.87h-9.8z"/><path class="st4" d="M649.25 502.42h12.45v51.78h-12.45z"/><path transform="rotate(-16.552 674.624 522.084)" class="st5" d="M669.52 492.32h10.32v59.61h-10.32z"/><path class="st4" d="M553.24 512.28h7.94v17.66h-7.94zM608.02 502.54h7.94v17.66h-7.94z"/><path class="st7" d="M651.29 532.15h7.94v17.66h-7.94z"/><path class="st8" d="M576.17 529.02h4.59v10.76h-4.59zM631.62 505.18h5.88v14.78h-5.88zM593.82 504.42h12.11v4.82h-12.11zM639.4 536.76h9.85v2.41h-9.85zM639.42 539.78h9.85v2.41h-9.85zM605.93 544.73h11.61v4.82h-11.61z"/><path class="st7" d="M593.82 511.37h12.11v2.41h-12.11zM583.73 549.55h10.09v2.41h-10.09zM583.73 546.45h10.09v2.41h-10.09z"/><path class="st8" d="M573.64 494.11h9.85v2.41h-9.85z"/><path class="st7" d="M539.25 502.42h12.5v3.32h-12.5zM618.05 493.65h11.77v2.87h-11.77zM618.05 547.42h11.43v2.87h-11.43zM649.25 507.81h12.45v2.87h-12.45z"/></g><g><path transform="rotate(-180 663.379 365.28)" class="st4" d="M657.19 343.46h12.38v43.64h-12.38z"/><path transform="rotate(-180 642.398 363.215)" class="st4" d="M637.24 339.33h10.32v47.76h-10.32z"/><path transform="rotate(-180 685.204 359.1)" class="st5" d="M679.66 331.1h11.09v56h-11.09z"/><path transform="rotate(-180 631.694 361.622)" class="st5" d="M626.15 336.15h11.09v50.95h-11.09z"/><path transform="rotate(-180 555.785 363.215)" class="st5" d="M550.56 339.33H561v47.76h-10.44z"/><path transform="rotate(-180 674.614 354.972)" class="st3" d="M669.57 322.85h10.09v64.25h-10.09z"/><path transform="rotate(-180 652.455 354.972)" class="st3" d="M647.41 322.85h10.09v64.25h-10.09z"/><path transform="rotate(-180 621.188 354.972)" class="st3" d="M616.14 322.85h10.09v64.25h-10.09z"/><path transform="rotate(-180 589.022 361.622)" class="st3" d="M583.98 336.15h10.09v50.95h-10.09z"/><path transform="rotate(-180 610.64 354.972)" class="st5" d="M605.6 322.85h10.09v64.25H605.6z"/><path transform="rotate(-180 577.818 357.577)" class="st5" d="M571.66 328.06h12.32v59.04h-12.32z"/><path transform="rotate(-180 566.5 355.156)" class="st3" d="M561.34 322.85h10.32v64.62h-10.32z"/><path transform="rotate(-180 544.602 359.283)" class="st3" d="M538.64 331.1h11.92v56.36h-11.92z"/><path transform="rotate(-180 599.872 365.463)" class="st4" d="M594.07 343.46h11.61v44h-11.61z"/><path transform="rotate(-180 599.872 376.94)" class="st7" d="M595.9 371.2h7.94v11.48h-7.94z"/><path transform="rotate(-180 621.188 329.342)" class="st7" d="M617.22 328.06h7.94v2.57h-7.94z"/><path transform="rotate(-180 621.188 334.374)" class="st7" d="M617.22 332.14h7.94v4.47h-7.94z"/><path transform="rotate(-180 610.64 329.342)" class="st7" d="M605.64 328.06h10.01v2.57h-10.01z"/><path transform="rotate(-180 610.91 384.389)" class="st7" d="M605.91 383.1h10.01v2.57h-10.01z"/><path transform="rotate(-180 577.895 344.974)" class="st4" d="M573.92 336.15h7.94v17.66h-7.94z"/><path transform="rotate(-180 631.694 376.94)" class="st4" d="M627.72 375.09h7.94v3.69h-7.94z"/><path transform="rotate(-180 685.204 336.093)" class="st4" d="M679.66 334.37h11.09v3.44h-11.09z"/><path transform="rotate(-180 685.204 383.104)" class="st4" d="M679.66 381.38h11.09v3.44h-11.09z"/><path transform="rotate(-180 631.694 381.79)" class="st4" d="M627.72 379.94h7.94v3.69h-7.94z"/><path transform="rotate(-180 544.766 337.813)" class="st8" d="M538.97 336.61h11.6v2.41h-11.6z"/><path transform="rotate(-180 566.5 383.09)" class="st8" d="M561.34 381.79h10.32v2.6h-10.32z"/><path transform="rotate(-180 674.614 327.947)" class="st8" d="M669.57 325.2h10.09v5.5h-10.09z"/><path transform="rotate(-180 674.614 333.553)" class="st8" d="M669.57 332.62h10.09v1.86h-10.09z"/><path transform="rotate(-180 642.398 364.347)" class="st8" d="M639.65 357.4h5.5v13.88h-5.5z"/><path transform="rotate(-180 544.732 340.836)" class="st8" d="M538.93 339.63h11.6v2.41h-11.6z"/><path transform="rotate(-180 555.952 361.32)" class="st7" d="M550.56 360.19h10.78v2.26h-10.78z"/><path transform="rotate(-180 555.952 364.347)" class="st7" d="M550.56 363.22h10.78v2.26h-10.78z"/></g><g><path class="st4" d="M559.96 425.07h12.38v43.64h-12.38z"/><path transform="rotate(-16.552 598.12 439.371)" class="st5" d="M592.63 410.31h11.09v58.19h-11.09z"/><path class="st5" d="M668.53 420.95h10.44v47.76h-10.44z"/><path class="st3" d="M549.88 404.46h10.09v64.25h-10.09zM572.03 404.46h11.94v64.25h-11.94zM635.47 417.76h10.09v50.95h-10.09z"/><path class="st5" d="M613.85 404.46h10.09v64.25h-10.09zM645.56 409.67h12.32v59.04h-12.32z"/><path class="st3" d="M657.88 404.46h10.32v64.62h-10.32zM678.97 412.71h11.92v56.36h-11.92z"/><path class="st4" d="M623.86 425.07h11.61v44h-11.61z"/><path class="st7" d="M625.69 452.81h7.94v11.48h-7.94zM562.53 427.65h7.94V466h-7.94zM613.89 409.67h10.01v2.57h-10.01zM613.62 464.72h10.01v2.57h-10.01z"/><path class="st4" d="M647.67 417.76h7.94v17.66h-7.94z"/><path class="st8" d="M678.97 418.22h11.6v2.41h-11.6zM657.88 463.4h10.32v2.6h-10.32zM549.88 406.81h10.09v5.5h-10.09zM572.77 436.58h10.09V466h-10.09zM572.96 409.56h10.09v6.24h-10.09zM549.88 414.23h10.09v1.86h-10.09zM679.01 421.24h11.6v2.41h-11.6z"/><path class="st7" d="M668.19 441.8h10.78v2.26h-10.78zM668.19 444.83h10.78v2.26h-10.78z"/></g></g><path class="st5" d="M188.89 362.22h310.24v193.07H188.89z"/><path style="opacity:.6;fill:#fffffd" d="M188.89 414.02h310.24v59.77H188.89z"/><path d="M500.39 375.29h-314.7c-6.53 0-11.82-5.29-11.82-11.82s5.29-11.82 11.82-11.82h314.7c6.53 0 11.82 5.29 11.82 11.82-.01 6.53-5.3 11.82-11.82 11.82z" style="fill:#c4682a"/><g><ellipse transform="rotate(-18.977 334.071 252.58)" class="st11" cx="334.11" cy="252.61" rx="15.9" ry="20.86"/><path d="M343.04 239.32s-9.46 18.34-18.86 15.13v22.93s-23.16-1.15-29.35 22.24l-3.67 7.57s-7.34-12.15 0-23.62 11.92-8.03 15.59-21.78c0 0-2.29-19.72 3.9-27.52 6.19-7.8 10.78-8.25 16.97-9.4 6.19-1.15 13.99.46 17.66 5.73 3.67 5.27 8.52 8.43 6.88 15.82-1.64 7.39-1.55 9.1-1.55 9.1l-2.58 26.44-7.8-1.38.67-8.26s8.88-2.3 8.77-12.76c-.02-1.79-.02-3.57.18-5.35.38-3.38.02-9.88-6.81-14.89z" style="fill:#3a3a3a"/><ellipse transform="rotate(-18.977 325.576 255.501)" class="st11" cx="325.62" cy="255.53" rx="3.37" ry="4.42"/><path class="st11" d="m324.18 264.31-.92 16.51s9.63 14.45 17.2 7.8c7.57-6.65-.23-8.03-.23-8.03l.69-12.84-16.74-3.44zM409.78 320.32s2.45.09 5.5-4.91c3.06-5.01 5.5-6.69 8.56-6.69 3.06 0-2.45 5.8-2.45 5.8s6.11-4.73 12.08-4.73c5.96 0 6.73 7.45 0 10.53-6.73 3.08-7.8 3.54-7.8 3.54s-6.88 3.97-12.08 3.36c-5.18-.61-3.81-6.9-3.81-6.9z"/><path class="st13" d="M415.74 327.98s-23.39 14.37-32.41 19.1c-9.02 4.74-14.67-.15-14.67-.15s-5.96-5.2-10.4-12.99c-4.43-7.8-4.89-3.37-4.89-3.37l-1.68 21.08H330.9l-36.84 1.4c-13.15 2.59-11.92-6.58-11.92-6.58s3.97-37.3 15.45-54.02c11.49-16.72 25.86-15.11 25.86-15.11s4.7 11.81 12.34 10.43c7.65-1.37 4.44-7.18 4.44-7.18l10.85.76c10.7 2.6 13.91 19.26 13.91 19.26l9.63 23.09c5.2 6.87 7.03 5.35 7.03 5.35l28.74-11.47 4.04 7.86 1.31 2.54z"/><path class="st14" d="M415.74 327.98s-23.39 14.37-32.41 19.1c-9.02 4.74-14.67-.15-14.67-.15s-5.96-5.2-10.4-12.99c-4.43-7.8-4.89-3.37-4.89-3.37l-1.68 21.08h-3.23c.36-7.06.82-16.89.88-22.23.09-8.95 4.49-6.03 4.49-6.03s5.66 4.74 12.23 15.42 15.13 5.52 15.13 5.52l33.24-18.89 1.31 2.54zM303.69 286.86s24.46 4.43 11.62 27.36l-12.84 21.25 29.04 6.88v8.56l-38.52 2.6s-13.68 2.95-10.36-10.99c0 0 2.33-19.95 5.77-28.35.01.01 7.04-25.32 15.29-27.31z"/><path class="st11" d="m331.52 342.35 6.88.76s9.6-.76 10.53 4.59c.93 5.35 0 3.96 0 3.96h-16.49l-.92-.75v-8.56z"/></g><path class="st15" d="M435.68 318.96h59.55v11.85h-59.55z"/><path class="st16" d="M435.68 318.96h25.85v11.85h-25.85z"/><path style="fill:#a63c37" d="M446.62 330.81h60.31v11.54h-60.31z"/><path style="fill:#f0a24f" d="M443.18 342.35h63.75v9.94h-63.75z"/><path class="st16" d="M494.35 332.55h7.8v7.8h-7.8z"/><path class="st8" d="M500.05 342.35h6.88v9.94h-6.88z"/><path class="st15" d="M444.18 342.55h5.42v9.94h-5.42z"/><g><path class="st7" d="M204.03 307.19h37.45l9.78 44.47h-38.52z"/><path style="fill:#ebf2fb" d="M205.86 308.92h34.54l9.03 41.01H213.9z"/><path d="M237.5 315.65h-26.83a2.5 2.5 0 0 1 0-5h26.83a2.5 2.5 0 0 1 0 5zM237.73 321.32h-23.39c-.55 0-1-.45-1-1s.45-1 1-1h23.39c.55 0 1 .45 1 1s-.45 1-1 1zM239.11 330.42h-24.76c-.55 0-1-.45-1-1s.45-1 1-1h24.76c.55 0 1 .45 1 1s-.45 1-1 1zM241.4 334.56h-27.06c-.55 0-1-.45-1-1s.45-1 1-1h27.06c.55 0 1 .45 1 1s-.45 1-1 1zM242.78 338.81h-27.29c-.55 0-1-.45-1-1s.45-1 1-1h27.29c.55 0 1 .45 1 1s-.45 1-1 1z" class="st7"/></g><g><path class="st20" d="m256.74 328.31 5.61 20.32M262.19 351.13a2.504 2.504 0 0 1-2.25-1.83l-5.61-20.32c-.37-1.33.41-2.71 1.74-3.07 1.33-.36 2.71.41 3.08 1.75l5.61 20.32c.37 1.33-.41 2.71-1.74 3.07-.28.07-.56.09-.83.08z"/><g><path class="st20" d="m255.43 349 11.49.09M255.27 351.49a2.495 2.495 0 0 1-2.34-2.52 2.501 2.501 0 0 1 2.52-2.48l11.48.1c1.36 0 2.49 1.14 2.48 2.52a2.501 2.501 0 0 1-2.52 2.48l-11.48-.1a.33.33 0 0 1-.14 0z"/></g></g><g><path class="st21" d="M588.16 172.64s-13.41-3.26-7.77-14.04c0 0 4.38-6.42 7.77-7.34 0 0-1.78 11.01 0 12.38 1.78 1.38 2.47-2.52 2.47-5.5v-8.25s11.39-6.19 15.67-5.73c4.28.46-3.52 8.71-3.52 8.71s-.02 4.82 3.43 2.52c3.45-2.29 6.43-11.26 6.43-11.26s9.99-2.73 13.6 1.4c3.6 4.13 0 13.99 0 13.99l-12.22.69s-4.82 2.29 0 3.67 12.22 0 12.22 0-6.72 11.69-11.99 11.24c-5.27-.46-13.3-3.44-13.3-3.44s-7.34-1.61-4.13 1.15c3.21 2.75 14.68 2.75 14.45 7.34 0 0-13.56 3.58-18.8 0-5.25-3.6-4.31-7.53-4.31-7.53z"/><path class="st22" d="M580.99 199.65a36.64 36.64 0 0 1-1.06-7.55c-.05-1.28 0-2.57.19-3.87.17-1.3.52-2.61 1.26-3.83.18-.31.36-.61.64-.87.24-.26.54-.57.72-.74.42-.37.79-.82 1.15-1.27.69-.94 1.23-2.01 1.68-3.13.88-2.23 1.49-4.67 1.77-7.05l.05-.39.28-.25c2.1-1.87 4.27-3.62 6.45-5.38 2.2-1.72 4.44-3.41 6.74-5.01 2.31-1.59 4.67-3.11 7.12-4.48 1.25-.65 2.5-1.3 3.8-1.83.63-.3 1.33-.47 1.99-.71.33-.12.68-.19 1.03-.24l1.03-.18c-1.35.4-2.6.96-3.8 1.64-1.21.66-2.37 1.42-3.52 2.18-2.29 1.56-4.5 3.22-6.7 4.91-4.36 3.41-8.65 6.96-12.83 10.58l.33-.64c-.37 2.62-.96 5.14-2.04 7.56-.54 1.2-1.18 2.38-2.03 3.45-.44.53-.91 1.03-1.46 1.46-.3.24-.43.39-.63.58-.21.16-.36.39-.51.62-.63.91-1.03 2.06-1.29 3.24-.28 1.18-.41 2.42-.49 3.66-.15 2.5-.07 5.02.13 7.54z"/></g><g><path class="st21" d="M559.18 185.89s9.84-5.63 2.93-12.84c0 0-4.92-4.07-7.8-4.02 0 0 3.91 8.28 2.82 9.77-1.09 1.49-2.52-1.43-3.2-3.78-.68-2.35-1.88-6.51-1.88-6.51s-10.4-2.29-13.67-.95c-3.27 1.34 4.76 6.07 4.76 6.07s1.11 3.79-2.13 2.77-7.64-7.42-7.64-7.42-8.51.13-10.41 4.2c-1.9 4.08 3.19 11.04 3.19 11.04l9.8-2.24s4.32.71.84 2.89-9.64 2.79-9.64 2.79 7.97 7.69 12.02 6.13c4.06-1.56 9.71-5.75 9.71-5.75s5.42-2.94 3.52-.04c-1.91 2.9-10.95 5.52-9.72 9.08 0 0 11.52-.26 14.83-4.29s1.67-6.9 1.67-6.9z"/><path class="st22" d="M570.99 205.57c-.45-2.03-.98-4.03-1.7-5.94-.36-.95-.75-1.89-1.24-2.75-.48-.86-1.06-1.66-1.74-2.21-.17-.14-.34-.28-.53-.35-.2-.09-.31-.17-.62-.3-.55-.22-1.04-.51-1.51-.83-.93-.66-1.71-1.45-2.42-2.28-1.43-1.68-2.47-3.53-3.37-5.54l.49.52c-2.06-.94-4.13-1.9-6.22-2.79-2.08-.92-4.18-1.79-6.29-2.66-2.11-.84-4.23-1.66-6.38-2.39-2.16-.69-4.33-1.38-6.63-1.43 2.29-.42 4.64.02 6.9.45 2.26.5 4.48 1.15 6.67 1.87 2.19.73 4.34 1.55 6.48 2.4 2.13.88 4.24 1.77 6.33 2.77l.34.16.15.36a23.81 23.81 0 0 0 2.97 5.12c.6.77 1.26 1.49 2 2.06.38.27.76.54 1.16.74.17.09.5.28.75.43.29.15.5.35.72.56.87.82 1.46 1.79 1.88 2.79.44.99.77 2.01 1.01 3.04.49 2.03.76 4.11.8 6.2z"/></g><g><path d="M565.6 164.07s17.67-4.29 10.23-18.49c0 0-5.77-8.46-10.23-9.67 0 0 2.34 14.5 0 16.31-2.34 1.81-3.25-3.32-3.25-7.25V134.1s-15-8.16-20.64-7.55c-5.64.6 4.63 11.48 4.63 11.48s.03 6.34-4.52 3.32c-4.54-3.02-8.47-14.83-8.47-14.83s-13.16-3.59-17.91 1.84c-4.75 5.44 0 18.43 0 18.43l16.1.91s6.34 3.02 0 4.83-16.1 0-16.1 0 8.85 15.41 15.8 14.8c6.95-.6 17.52-4.53 17.52-4.53s9.67-2.11 5.44 1.51-19.33 3.62-19.03 9.67c0 0 17.87 4.72 24.77 0 6.89-4.73 5.66-9.91 5.66-9.91z" style="fill:#94ba8e"/><path class="st22" d="M575.04 199.65c.33-3.31.52-6.63.32-9.92-.1-1.64-.25-3.28-.6-4.86-.35-1.57-.85-3.11-1.68-4.38-.22-.3-.44-.6-.7-.86-.26-.27-.5-.44-.86-.76-.71-.56-1.3-1.22-1.87-1.9-1.09-1.39-1.92-2.92-2.62-4.49-1.39-3.16-2.17-6.46-2.65-9.88l.33.64c-2.76-2.38-5.54-4.77-8.38-7.07-2.82-2.33-5.68-4.61-8.58-6.84-2.9-2.22-5.85-4.39-8.89-6.4-3.05-1.98-6.17-3.97-9.74-4.9 1.84.19 3.61.83 5.3 1.56 1.7.73 3.35 1.57 4.97 2.47 3.21 1.83 6.3 3.85 9.32 5.98 3.01 2.12 5.95 4.36 8.84 6.64 2.87 2.31 5.72 4.63 8.49 7.08l.28.25.05.39c.39 3.17 1.19 6.4 2.38 9.37.61 1.48 1.34 2.92 2.27 4.17.49.61.98 1.21 1.56 1.71.24.25.67.59.96.93.32.35.58.73.83 1.11.93 1.57 1.39 3.28 1.64 4.96.25 1.69.33 3.39.29 5.07-.13 3.35-.51 6.68-1.26 9.93z"/></g><path d="M599.87 195.29c0 16.07-11.99 29.35-27.51 31.38-1.35.17-2.73.26-4.13.26-17.48 0-31.65-14.17-31.65-31.64h63.29z" style="fill:#f9aa18"/><path d="M599.87 195.29c0 16.07-11.99 29.35-27.51 31.38 13.25-10.19 16.45-23.11 16.98-31.38h10.53z" style="opacity:.21;fill:#fff"/><path class="st13" d="M7.88 555.29h836.48v5.5H7.88z"/><ellipse transform="rotate(-16.552 249.405 167.127)" class="st0" cx="249.43" cy="167.14" rx="45.86" ry="24.72"/><ellipse transform="rotate(-26.208 320.164 132.103)" class="st0" cx="320.19" cy="132.1" rx="18.31" ry="9.87"/></svg>