<svg version="1.1" id="Layer_1" xmlns="http://www.w3.org/2000/svg" x="0" y="0" viewBox="0 0 1000 589" style="enable-background:new 0 0 1000 589" xml:space="preserve"><style>.st2{fill:#70a067}.st3,.st5{fill:#fff}.st5{opacity:.44}.st7{fill:#f4a2a2}.st8{fill:#98e283}.st9{fill:#bad9f4}.st10{fill:#fafafa}.st11{fill:#2565a5}.st12{fill:#fda581}.st14{fill:#231f20}</style><path d="M514.9 476.6s-46.5 129.8-192.2 0c0 0-53.6-58.8-135.2-55.4C106 424.6-29.4 405.6 27 280.7c0 0 32.7-51.5 92.5-83.1s75.6-105.5 98.2-124.5 98-104.1 251.1 0S744.4 127 744.4 127s160.8-97.6 228.1 39.6-138.8 289-138.8 289-21.8 22.8-97 37.1-190-68.1-221.8-16.1z" style="fill:#cfb5f6"/><path d="M514.2 467.9s-44.5 124.2-183.8 0c0 0-51.3-56.2-129.3-52.9-78 3.3-207.5-14.9-153.5-134.4 0 0 31.2-49.2 88.5-79.5s72.4-100.9 94-119 93.7-99.6 240.2 0 263.6 51.5 263.6 51.5S887.7 40.3 952 171.5 819.2 448 819.2 448s-20.9 21.8-92.8 35.5-181.7-65.2-212.2-15.6z" style="fill:#e3d4f9"/><path class="st2" d="M764.5 327.7s-15.6-84 3.6-78.8c19.2 5.2 23 16.2 23 16.2s19.3-89.9 43.7-57.4c0 0 33.1-57.4 47.7-46.2s-13 69.4-13 69.4 32.9 11.2-39.8 64.1c.1 0 26 23.9-65.2 32.7z"/><path class="st3" d="M862.2 200.3c-5.3 10.6-11.1 20.9-17.1 31.1-3 5.1-6.1 10.1-9.2 15.2-3.1 5-6.4 10-9.6 14.9-3.3 4.9-6.7 9.8-10.1 14.6-3.5 4.8-7 9.6-10.8 14.2-3.7 4.6-7.6 9.1-11.7 13.4-4.1 4.3-8.5 8.4-13.4 11.7 4.5-3.8 8.5-8.2 12.2-12.7 3.8-4.5 7.4-9.2 10.9-13.9 7-9.5 13.7-19.2 20.2-29 6.6-9.8 13-19.7 19.4-29.6l19.2-29.9z"/><path d="M301.1 378.6s-23.6-86.8-39.9-72.7c-16.3 14.1-14.9 26.3-14.9 26.3s-60.3-75.8-69-33.4c0 0-58.7-38.4-67.6-20.9s44.7 59.4 44.7 59.4-26.8 26.4 68.3 41.6c-.2.1-14.3 35.1 78.4-.3z" style="fill:#a7c67f"/><path class="st3" d="M147.2 304.9c10.1 7.5 20.5 14.5 31 21.3 5.3 3.4 10.6 6.7 16 10 5.4 3.2 10.8 6.4 16.3 9.5 5.5 3.1 11 6.1 16.6 9 5.6 2.9 11.3 5.7 17 8.3 5.7 2.6 11.6 5 17.6 7.1 6 2 12.1 3.9 18.4 4.6-6.2-1.5-12-3.7-17.8-6.2-5.8-2.5-11.4-5.2-17-8-11.2-5.6-22.2-11.6-33.1-17.8-10.9-6.1-21.7-12.4-32.6-18.7l-32.4-19.1z"/><path class="st2" d="M264.1 282.4s16.1-88.6-4.7-82.8c-20.8 5.7-24.8 17.3-24.8 17.3s-21.7-94.4-47.9-59.9c0 0-36.4-60-52-48s14.7 72.9 14.7 72.9-35.6 12.2 43.7 66.9c0 .1-27.9 25.6 71 33.6z"/><path class="st3" d="M157 149.6c5.9 11.1 12.2 21.9 18.8 32.5 3.3 5.3 6.7 10.6 10.1 15.9 3.5 5.2 7 10.4 10.6 15.6 3.6 5.1 7.3 10.2 11.1 15.2s7.7 10 11.8 14.8c4.1 4.8 8.3 9.5 12.8 14 4.5 4.4 9.2 8.7 14.7 12.1-4.9-4-9.2-8.5-13.4-13.2-4.1-4.7-8.1-9.6-11.9-14.5-7.6-9.9-15-20-22.2-30.3-7.2-10.2-14.3-20.6-21.3-30.9L157 149.6z"/><path class="st5" d="M735.1 485.2h-495c-13.3 0-24.1-10.8-24.1-24.1V135.7c0-13.3 10.8-24.1 24.1-24.1h495c13.3 0 24.1 10.8 24.1 24.1v325.4c0 13.3-10.8 24.1-24.1 24.1z"/><path class="st5" d="M749.1 467.9h-495c-13.3 0-24.1-10.8-24.1-24.1V118.4c0-13.3 10.8-24.1 24.1-24.1h495c13.3 0 24.1 10.8 24.1 24.1v325.4c0 13.3-10.8 24.1-24.1 24.1z"/><path d="M773.2 144.5H230v-26.1c0-13.3 10.8-24.1 24.1-24.1h495c13.3 0 24.1 10.8 24.1 24.1v26.1z" style="fill:#ff4d53"/><path class="st7" d="M260.8 193.1h62.6v58.3h-62.6zM330.5 193.1h62.6v58.3h-62.6zM400.1 193.1h62.6v58.3h-62.6z"/><path class="st8" d="M469.8 193.1h62.6v58.3h-62.6zM539.4 193.1H602v58.3h-62.6zM609.1 193.1h62.6v58.3h-62.6zM678.7 193.1h62.6v58.3h-62.6z"/><path class="st7" d="M260.8 259h62.6v58.3h-62.6zM330.5 259h62.6v58.3h-62.6zM400.1 259h62.6v58.3h-62.6zM469.8 259h62.6v58.3h-62.6z"/><path class="st8" d="M539.4 259H602v58.3h-62.6zM609.1 259h62.6v58.3h-62.6zM678.7 259h62.6v58.3h-62.6z"/><path class="st9" d="M260.8 323.8h62.6v58.3h-62.6zM330.5 323.8h62.6v58.3h-62.6zM400.1 323.8h62.6v58.3h-62.6zM469.8 323.8h62.6v58.3h-62.6zM539.4 323.8H602v58.3h-62.6zM609.1 323.8h62.6v58.3h-62.6zM678.7 323.8h62.6v58.3h-62.6z"/><path class="st3" d="M260.8 388.6h62.6v58.3h-62.6zM330.5 388.6h62.6v58.3h-62.6zM400.1 388.6h62.6v58.3h-62.6zM469.8 388.6h62.6v58.3h-62.6zM539.4 388.6H602v58.3h-62.6zM609.1 388.6h62.6v58.3h-62.6zM678.7 388.6h62.6v58.3h-62.6z"/><circle class="st10" cx="659.8" cy="121.3" r="7"/><circle class="st10" cx="693.3" cy="121.3" r="7"/><circle class="st10" cx="726.8" cy="121.3" r="7"/><path class="st11" d="m423.1 179.2-10.5-11 10.6-9.4 1.4 1.6-8.9 7.9 9 9.4zM579.8 179.2l-1.5-1.5 8.8-8.7-8.8-8.6 1.5-1.6 10.4 10.2zM435.7 175.8v-14.2h4.1c2.3 3.2 6.8 9.4 7.6 11-.2-1.6-.2-4-.2-6.3v-4.7h3v14.2h-3.9c-2-2.9-6.9-9.8-7.8-11.5.1 1.4.2 4.1.2 6.7v4.8h-3zM470.2 168.6c0 3.9-2.8 7.4-8.4 7.4-5.3 0-8.2-3.2-8.2-7.3s3.1-7.3 8.4-7.3c5 0 8.2 2.9 8.2 7.2zm-13.2 0c0 2.9 1.6 5.2 4.9 5.2 3.6 0 4.9-2.4 4.9-5.1 0-2.8-1.5-5.1-4.9-5.1-3.4 0-4.9 2.1-4.9 5zM477.5 175.8l-6.2-14.2h3.5l2.7 6.7c.8 2 1.5 3.8 1.9 5.2h.1c.4-1.3 1.1-3.2 2-5.2l2.9-6.8h3.3l-6.4 14.2h-3.8zM501.6 169.5h-8.4v4.1h9.3l-.4 2.2h-12v-14.2h12v2.2h-8.8v3.5h8.4v2.2zM520 170.2c0-2.5 0-5.2.1-6.8h-.1c-.8 2.7-2.9 7.9-4.7 12.3h-2.8c-1.3-3.8-3.5-9.7-4.3-12.4h-.1c.1 1.7.2 4.7.2 7.1v5.3h-3v-14.2h4.8c1.6 3.9 3.4 9 3.9 11 .4-1.7 2.6-7.1 4.3-11h4.7v14.2h-3v-5.5zM527.5 161.6h7.3c4 0 5.6 1.7 5.6 3.6 0 1.6-1.1 2.7-2.3 3.1 1.2.3 2.8 1.4 2.8 3.3 0 2.5-2.4 4.2-5.9 4.2h-7.5v-14.2zm6.9 5.7c2 0 2.9-.7 2.9-1.8s-1-1.8-2.7-1.8h-3.8v3.6h3.6zm-3.7 6.4h3.7c2.1 0 3.2-.7 3.2-2.2 0-1.3-1-2.1-3.4-2.1h-3.5v4.3zM555.7 169.5h-8.4v4.1h9.3l-.4 2.2h-12v-14.2h12v2.2h-8.8v3.5h8.4v2.2zM562.6 169.9v5.9h-3.2v-14.2h7.3c3.7 0 5.7 1.7 5.7 3.9 0 1.9-1.3 2.9-2.7 3.4 1.1.3 2.3 1.1 2.3 3.6v.7c0 1 0 2.1.2 2.7h-3.1c-.3-.6-.3-1.7-.3-3.1v-.2c0-1.7-.6-2.5-3.5-2.5h-2.7zm0-2.2h3.4c2.3 0 3.2-.7 3.2-2s-1-2-3-2h-3.5v4z"/><g><ellipse transform="rotate(-13.303 701.528 364.833)" class="st12" cx="701.4" cy="364.8" rx="34.8" ry="45.8"/><path class="st12" d="m701.4 402.6 5.4 45.4h44.6l-17.9-66z"/><path d="m715.1 437.3-28.8 2.4s-21.5 7.2-37.7 16.9c-16.2 9.7-32.4 14-36.7-6.5s-3.2-48.6-3.2-48.6-4.6-34.6-26.1-36.7c-21.5-2.2-33.3 13-37.7 29.2s1.1 77.8 18.4 99.4 30.2 34.6 61.6 40V557h202.9v-58.4s-8.5-41-31.2-48.5c-22.8-7.5-81.5-12.8-81.5-12.8z" style="fill:#feac02"/><path class="st12" d="M558.9 375.6s-16.2-5.4-6.5-28.1c0 0 2.2-10.8 8.6-8.6 0 0 2.9-6.5 9.6-2.7 0 0 5.6-8.1 9.9-3.8v-17.5s6.3-8.8 7.5 0c1.2 8.8 0 34.7 0 34.7s4.4 4.4 10.9-1 11.3-9.7 14.9-5.4-5.1 9.7-5.1 9.7l-8.6 7.6-5.2 10.1-36 5z"/><path class="st14" d="M677.4 349.6v-15.4s-29.9 4.6-24.5-28.8c0 0 14-33.3 48.6-17.7 0 0 42.1-22.2 64.8 12.3 0 0 10.8 14 11.9 25.9 0 0 102.6 18.4 89.6 94 0 0-21.6 76.7-102.6 61.6 0 0-60.5-19.4-58.3-85.3L689 372.5l-2.7-17.9-8.9-5z"/><ellipse class="st12" cx="686.2" cy="357.8" rx="8.9" ry="14.6"/></g><g><path class="st3" d="M108.5 382.1c-5.4 0-9.7-4.4-9.7-9.7 0-5.4 4.4-9.7 9.7-9.7 5.4 0 9.7 4.4 9.7 9.7 0 5.3-4.3 9.7-9.7 9.7zm0-16.2c-3.6 0-6.5 2.9-6.5 6.5s2.9 6.5 6.5 6.5 6.5-2.9 6.5-6.5-2.9-6.5-6.5-6.5z"/></g><g><path class="st3" d="M860.2 320.5c-5.4 0-9.7-4.4-9.7-9.7 0-5.4 4.4-9.7 9.7-9.7s9.7 4.4 9.7 9.7c0 5.4-4.4 9.7-9.7 9.7zm0-16.2c-3.6 0-6.5 2.9-6.5 6.5s2.9 6.5 6.5 6.5 6.5-2.9 6.5-6.5-2.9-6.5-6.5-6.5z"/></g><circle class="st3" cx="152.3" cy="250.9" r="4.3"/><circle class="st3" cx="849.9" cy="145" r="4.3"/><circle cx="490.8" cy="58.1" r="11.3" style="fill:#cdb7f9"/><path class="st14" d="M865.9 564.1H538.1c-1.9 0-3.5-1.6-3.5-3.5v-.6c0-1.9 1.6-3.5 3.5-3.5h327.8c1.9 0 3.5 1.6 3.5 3.5v.6c0 1.9-1.6 3.5-3.5 3.5z"/></svg>