<svg version="1.1" id="Layer_1" xmlns="http://www.w3.org/2000/svg" x="0" y="0" viewBox="0 0 1000 1000" style="enable-background:new 0 0 1000 1000" xml:space="preserve"><style>.st2{fill:#f2af8c}.st3{fill:#212121}.st4{fill:#2b2b2b}.st5{fill:#4570ad}.st6{fill:#58595b}.st8{fill:#ff4d53}.st9{fill:#f1f2f2}.st10{fill:#fff}</style><ellipse cx="521.8" cy="928.4" rx="366.3" ry="25.9" style="opacity:.19;fill:#606060"/><path d="M170.5 740c-14.9-17-31.1-33-48.5-47.4C76.4 654.8-14.8 547.2 90.9 347 226.7 89.8 492.4 4.2 665.9 32s311 108.8 290.1 401.6c-20.8 292.8-17.5 484.1-408 500.9 0 0-187.5 22.7-377.5-194.5z" style="fill:#cfb5f6"/><ellipse class="st2" cx="308.6" cy="350.6" rx="28.1" ry="41.7"/><path d="M318.7 340.2s17.6 19.7 29.6-4.4c0 0 16.5-15.5-14.8-26.9 0 0-3.2.6-22.7-4.9s-28.1 14.3-28.1 14.3-24.4 4.2-16.7 29.5c0 0 1.6 15.4 16.7 16.5l11.8-30.7 24.2 6.6z"/><path class="st2" d="M282.7 364.4s-9 28.4-27.7 27.9c0 0 6.6 34.6 40.6 20.4l12.9-27.4c.1-.1 6.2-20.9-25.8-20.9zM327.8 562.9s21.9-5.1 35.8 4.4c13.9 9.5 27.1 23.4 11.7 28.5-15.4 5.1-61.4-17.1-61.4-17.1l13.9-15.8z"/><path d="m275.2 617.1 50.5-43.9 101.7 43.9s59.2 11.7 51.2 41-101.3 191.6-101.3 191.6l-29.1-16.1 48.5-157.2-121.5-59.3z"/><path class="st2" d="m459.5 863.5 13.7 31.4s41.9 11 31-12.4l-24.8-32.9-19.9 13.9z"/><path class="st3" d="M561.9 924.3s-67.3-.8-82.6 0c-15.3.7-19.8-11.7-19.8-11.7v-30.7c9.5-1.5 10.3 5.4 29.2 2.2 19-3.2 12.7-5 17.2-5.9 4.5-.9 59.6 24.9 59.6 24.9 2.7 3.3 4 6.2 4.5 8.6 1.8 9-8.1 12.6-8.1 12.6z"/><path class="st2" d="m352.6 828.4-13.7 32.9s18.2 19 27.7 16.8c9.5-2.2 3.7-14.6 3.7-14.6l7-23.4-24.7-11.7z"/><path class="st3" d="M422.2 919.8c-4.4 13.9-39.9 4.4-39.9 4.4s-33.2-23.4-50-33.7c-13.3-8.1-9.7-14-7.6-16.1.5-.6 1-.9 1-.9l2.9-6.1 10.4-22.2c24.2 31.5 31.4 18.3 31.4 18.3s24.1 25.6 32.9 30.7c13 7.6 19.7 10.4 20.3 17.5 0 2.2-.4 4.8-1.4 8.1z"/><path class="st2" d="m444.6 361 6.8-24.1 16.1-19.7s5.1-11 8.8 0c0 0-2.2 12.4 2.9 12.4s15.3-13.2 15.3-13.2 11.8-8.8 9.6 4.4c-2.2 13.2-14.4 30.2-31 29.7l-7.8 13.8-20.7-3.3z"/><path class="st4" d="m373 400.6-6.5 146.3H605s7.3-2.9 8.8-20.5c1.5-17.6 7.3-134.1 7.3-134.1H377.2l-4.2 8.3z"/><path class="st5" d="M264.5 708.5v206.3h-14.2v9.5l97.8 3.2s-1.3-8.3-4.9-9.8c-3.7-1.5-61.1-5.1-61.1-5.1V708.5h-17.6z"/><path class="st5" d="M236.4 338.3h-92.2s-40.2 8.1-41 63 3.7 186.5 3.7 186.5 14.6 95.8 76.8 117c62.2 21.2 138.8 8.7 138.8 8.7L300 660.9l-75.3-195.3 35.8-106.8c0 .1-10.2-20.5-24.1-20.5z"/><path class="st6" d="m803.9 303.1-5.1 635h16.9v-635z"/><path d="M669 68.8s161.3-3 214.1-15.7c0 0 10.4-8.2 11.2 15.7 0 0 25.6 156.6 19.7 215 0 0 3.7 23.5-10.2 14-13.9-9.5-198.9 17.5-198.9 17.5s-20.5 11.2-20.5-7.5S666.1 115.5 669 94.3c.8-5.3-7.3-25.3 0-25.5z" style="fill:#808285"/><path class="st8" d="M444.6 62.8h135.1v53.6H444.6z"/><path class="st5" d="m378.1 152.4 20.8-4.6-5.6-25.5-18.5 4.1c-2.1-7.3-5.1-14.3-8.9-20.7l17.7-13.9-16.2-20.5-18.1 14.2c-4.7-4.3-9.9-8-15.5-11.2l8.8-21-24.1-10.1-9.1 21.7c-6.2-1.4-12.6-2.1-19.2-2.1h-1.9l-2-22-26 2.4 2.2 24.1c-5.2 1.7-10.3 3.9-15 6.6l-14.8-18.7-20.5 16.2 14.6 18.5c-4.8 5-9 10.6-12.6 16.6l-19.3-9.2-11.2 23.6 20.8 9.9c-1.4 5.9-2.2 12-2.3 18.2l-24.9 5.3 5.6 24.4 22.4-4.7c1.8 6.6 4.3 12.9 7.5 18.8l-20 15.1 16.2 19.6 19.1-14.4c4.4 4.4 9.2 8.2 14.4 11.6l-8.8 20 24.1 9.7 8.3-18.9c7 2 14.5 3.2 22.1 3.3l1.7 17.9 26-2.2-1.8-18.9c6.1-1.7 11.9-4.1 17.4-7l12 14.5 20.5-15.5-11.8-14.3c5.2-5.2 9.8-11.1 13.6-17.5l15.4 7 11.2-22.6-17-7.8c1.7-6.4 2.6-13.1 2.7-20zm-89.9 52.3c-31.3 0-56.6-25.4-56.6-56.6 0-31.3 25.4-56.6 56.6-56.6 31.3 0 56.6 25.4 56.6 56.6 0 31.2-25.3 56.6-56.6 56.6z"/><path class="st9" d="m461.1 197.3 12.3-2.7-3.3-15.1-11 2.4c-1.2-4.3-3-8.5-5.3-12.3l10.5-8.3-9.6-12.2-10.7 8.4c-2.8-2.5-5.9-4.8-9.2-6.6l5.2-12.5-14.3-6-5.4 12.9c-3.7-.8-7.5-1.3-11.4-1.3h-1.1l-1.2-13-15.4 1.4 1.3 14.3c-3.1 1-6.1 2.3-8.9 3.9l-8.8-11.1-12.2 9.6 8.6 11c-2.9 3-5.4 6.3-7.5 9.9l-11.4-5.4-6.7 14 12.3 5.9c-.8 3.5-1.3 7.1-1.4 10.8l-14.8 3.1 3.3 14.5 13.3-2.8c1.1 3.9 2.6 7.7 4.5 11.1l-11.9 9 9.6 11.6 11.3-8.5c2.6 2.6 5.5 4.9 8.5 6.9l-5.2 11.9 14.3 5.7 4.9-11.2c4.2 1.2 8.6 1.9 13.1 2l1 10.6 15.4-1.3-1.1-11.2c3.6-1 7.1-2.4 10.3-4.1l7.1 8.6 12.2-9.2-7-8.5c3.1-3.1 5.8-6.6 8.1-10.4l9.1 4.2 6.7-13.4-10.1-4.6c1.4-4 1.9-7.9 2-12zm-53.4 31c-18.6 0-33.6-15-33.6-33.6s15-33.6 33.6-33.6 33.6 15 33.6 33.6c0 18.5-15 33.6-33.6 33.6z"/><path class="st10" d="M422.2 919.8c-4.4 13.9-39.9 4.4-39.9 4.4s-33.2-23.4-50-33.7c-13.3-8.1-9.7-14-7.6-16.1l63.2 45.4s28.9 7.1 35.7-8.1c0 2.2-.4 4.8-1.4 8.1z"/><path d="M162.5 662.4s10.2 32.2 73.1 35.8c0 0 70.2-16.1 94.3 24.9 0 0 116.3 136.8 125.8 146.3l32.9-13.9L425 712.1s-14.7-53.4-42.8-60.7l-107.1-43.2-112.6 54.2z"/><path class="st10" d="M561.9 924.3s-67.3-.5-82.6 0c-15.3.5-19.8-8.1-19.8-8.1v-2.9l110.5 2.3c1.8 6.2-8.1 8.7-8.1 8.7z"/><path class="st8" d="M259.8 392.3s11.7 22.9 33.6 14.9c0 0 24.9 17.6 35.8 19s66.6 18.1 106.1-35.9l10.2-32.1H469s0 95.1-44.1 109c-61.8 19.5-142.1 13.2-142.1 13.2s-18.5 99.5 12.9 125.1c0 0-54.9 80.5-134.6 65.1 0 0-40.2-101.7-19-163.1s46.1-86.3 46.1-86.3-46.1-25.6-18.3-49c0 0 55.6-11.5 68.8-21.5 13.2-10 37.5 27.6 37.5 27.6l-16.4 14z"/><path d="M216.6 455.4s8-26.3 38.4-21.2c0 0 22.3 17.6 14.3 40.2 0 0-2.8 36.6 35.2 61.4l34.4 25.6-19.9 26.4s-47.5-7.3-87-43.2c0 0-19.7-23.4-20.5-47.5-.7-24.1 5.1-41.7 5.1-41.7z" style="fill:#d84550"/><ellipse class="st2" cx="286.3" cy="347" rx="5.8" ry="8.7"/><path class="st10" d="M653.3 79.5s161.3-2.9 214.1-15.4c0 0 10.4-8 11.2 15.4 0 0 25.6 152.9 19.7 209.9 0 0 3.7 22.9-10.2 13.7-13.9-9.3-198.9 17.1-198.9 17.1s-20.5 11-20.5-7.3-18.3-187.7-15.4-208.4c.7-5.3-7.3-24.8 0-25z"/><path style="fill:#231f20" d="m473.1 573.2 6.1-84.9h35.6v84.9z"/><path style="fill:#414042" d="M438.3 567.3h99.5v20.5h-99.5z"/><path d="M218.8 927.4 175 608.3s-7.3-27.7 21.9-29.2c29.3-1.5 650.9 0 650.9 0s23.4-4.4 19 29.2c-4.4 33.6-45.3 326.2-45.3 326.2h-38L823 660.9s16.1-52.7-14.6-52.7H229.1s-22-10.3-11.7 27.8l29.3 288.2-27.9 3.2z" style="fill:#f1f2f2;stroke:#231f20;stroke-miterlimit:10"/><path d="M791 878.1s-9.5-70.2-32.2-92.1-27.8-24.9-27.8-24.9 3.7 32.2 17.6 62.9c13.9 30.7 29.3 54.1 29.3 54.1H791z" style="fill:#c2d39b"/><path d="M786.6 886.3s-21.2-94.5-21.2-147.5 6.6-66.4 6.6-66.4 44.1 51.4 45.8 101.9c1.7 50.5-6.3 116.3-6.3 116.3l-24.9-4.3z" style="fill:#679e63"/><path d="M812.9 873.6s-23.4-46.6-2.9-97.1c20.5-50.5 19.7-46.1 19.7-46.1s20.5 49 11.7 84.1c-8.7 35.1-13.9 67.7-28.5 59.1z" style="fill:#feac02"/><path transform="rotate(-6.435 784.071 779.372)" class="st10" d="M783.2 671.7h1.6V887h-1.6z"/><path class="st10" d="m818.3 875.2-.4-1.5.2.8-.8-.2c.5-2.3 6.7-93.1 9.9-140.7l1.6.1-4.8 70.4c-5 70.9-5 70.9-5.7 71.1z"/><path transform="rotate(-25.697 757.873 820.057)" class="st10" d="M757 759.6h1.6v120.9H757z"/><path class="st4" d="M737.4 859.9v57s3.7 15.4 24.1 21.2H831s16.8-2.9 18.3-18.3v-60H737.4z"/><path class="st6" d="M635.7 573.2v35.1h20.5v-38h-5.1V426.9H665v9.5h11.7v-32.9h-11l-.7 12.6h-14.6l-55.6-41.8v-35.9h32.9l.7-51.1H586v-24.1s16.8-19-5.9-30.7l-72.4 15.4s-10.6 21.9 7.1 23.4l62.4-5.9v21.2l-24.9.7-2.2 8.8s-22.7-2.9-19.7 19.7c0 0-2.9 21.3 19.7 18l1.5 7.6 31.4.7 2.2 36.6 57.8 41.7-.7 147-6.6 5.8z"/><path style="fill:#97bbf7" d="M569.2 299.6h41v26.3h-41z"/><path class="st9" d="M325.6 285.1c-.6 0-1.1-.3-1.4-.9-.4-.8-.1-1.7.7-2.1l119-60c.8-.4 1.7-.1 2.1.7.4.8.1 1.7-.7 2.1l-119 60c-.2.2-.4.2-.7.2z"/><g><path class="st9" d="M469 212.5c-.6 0-1.1-.3-1.4-.9-.4-.8-.1-1.7.7-2.1l79-40c.8-.4 1.7-.1 2.1.7.4.8.1 1.7-.7 2.1l-79 40c-.2.1-.5.2-.7.2z"/></g><g><path class="st9" d="M579.8 159.3c-.6 0-1.2-.4-1.5-1-.3-.8 0-1.7.8-2.1l50.1-21.2c.8-.3 1.7 0 2.1.8.3.8 0 1.7-.8 2.1l-50.1 21.2c-.2.2-.4.2-.6.2z"/></g><g><path class="st9" d="M366.6 325c-.8 0-1.5-.6-1.6-1.4-.1-.8.5-1.6 1.3-1.8 3.3-.9 48.1-24.2 77.6-39.7.8-.4 1.7-.1 2.2.7.4.8.1 1.7-.7 2.2-17.7 9.3-75.6 39.7-78.6 40h-.2z"/></g><g><path class="st9" d="M604.8 219.3c-.6 0-1.1-.3-1.4-.9-.4-.8-.1-1.7.7-2.2l25.1-13c.8-.4 1.7-.1 2.2.7.4.8.1 1.7-.7 2.2l-25 13c-.4.2-.6.2-.9.2z"/></g><g><path class="st9" d="M691.3 393.9c-.5 0-1-.3-1.3-.7-.5-.7-.3-1.7.5-2.2l89.2-58.6c.7-.5 1.7-.3 2.2.5.5.7.3 1.7-.5 2.2l-89.2 58.6c-.3.1-.6.2-.9.2z"/></g><g><path class="st10" d="M465.1 70.6h4.9v34.2h16.4v4.1h-21.3V70.6zM496.9 70.6V109H492V70.6h4.9zM513.9 109l-12.5-38.3h5.3l6 18.9c1.6 5.2 3.1 9.8 4.1 14.3h.1c1.1-4.4 2.7-9.3 4.4-14.3l6.5-18.9h5.3L519.4 109h-5.5zM557.1 91h-14.9v13.8h16.6v4.1h-21.5V70.6H558v4.1h-15.7v12.1h14.9V91z"/></g></svg>