<svg version="1.1" id="Layer_1" xmlns="http://www.w3.org/2000/svg" x="0" y="0" viewBox="0 0 727.9 970.6" style="enable-background:new 0 0 727.9 970.6" xml:space="preserve"><style>.st1{fill:#feac02}.st2{fill:#cfb5f6}.st3{fill:#fff}.st5{fill:#343434}.st6{fill:#ff4d53}.st7{fill:#2c61b5}.st9{fill:#f7bd9c}.st10{fill:#212121}.st11{fill:#e6e7e8}.st12{fill:#f1f2f2}</style><path style="fill:#d1d3d4" d="M6.6 850h721.3v87.1H6.6z"/><path class="st1" d="M453.5 119.1s16.1-27.5 46.1-28.3c0 0-29.8 13.8-46.1 28.3z"/><ellipse class="st2" cx="367" cy="451.3" rx="294.3" ry="301.9"/><circle class="st3" cx="349.8" cy="414.7" r="294.3"/><circle class="st2" cx="324.5" cy="414.7" r="283.1"/><path d="m162.3 696.1 10 193.1s-36.1-53.8-60.7-42.3-40.7 46.9-40.7 76.8h18.4s43-70.7 83-13.8c0 0 1.5 10 10 0s47.6-50.7 80.7 13.8h18.4s-7.7-64.5-40-78.4-58.4 41.5-58.4 41.5l4-177.5-24.7-13.2z" style="fill:#6f3f2f"/><path class="st1" d="M288.5 761.1c-.4 4.8-6.1 7.1-9.6 3.8-15.5-14.2-51-44.7-55.8-30.9-6.1 17.7-10 37.6-10 37.6s-2.3 13.1-8.5 0c-4.5-9.6-16.1-29.9-21.9-40.1-1.7-2.9-5.7-3.2-7.8-.6l-27.1 33.8s-12.3 15.4-16.9-.8c-4.6-16.1-2.3-36.1-15.4-31.5 0 0-19.2 26.4-39.1 28.5-5.7.6-10.3-4.5-9.2-10.1l1.1-5.8 33.3-169.3s1.5-13.1 18.4-12.3c16.9.8 135.2 0 135.2 0s13.8 3.8 15.4 26.9c1 15.6 12.6 85.5 16.7 134.2 1.3 14.9 1.8 27.8 1.2 36.6z"/><path class="st5" d="M6.6 926.8h721.3V937H6.6z"/><path class="st1" d="m372.5 63.4 10.6 5.3-10.2 6.1-5.3 10.6-6.1-10.2-10.6-5.3 10.2-6.1 5.3-10.6zM605.8 159.6l10.5 5.3-10.1 6.1-5.4 10.6-6-10.2-10.6-5.4 10.2-6 5.3-10.6zM437.4 50.5l4.9 2.5-4.8 2.8-2.4 4.9-2.8-4.8-4.9-2.4 4.7-2.8 2.5-4.9zM320.4 114l4.9 2.5-4.7 2.8-2.5 4.9-2.8-4.7-4.9-2.5 4.8-2.8 2.4-4.9zM189.6 116.3l4.9 2.5-4.7 2.8-2.5 4.9-2.8-4.7-4.9-2.5 4.7-2.8 2.5-4.9zM137.2 234.1l5 2.4-4.8 2.9-2.4 4.9-2.8-4.8-5-2.4 4.8-2.8 2.4-5zM417 108l4.2 2.1-4.1 2.4-2.1 4.2-2.4-4-4.2-2.1 4-2.5 2.2-4.2zM453.5 131.5s19.2 9.2 49.2-34.1c0 .1-37.6 61.8-49.2 34.1z"/><path class="st6" d="M415.8 0s-33.3 55.5 5.5 104.4 66.5 67 45.3 132.6-49 81.4-21.2 133.4c27.7 52 30.5 64.2 30.5 64.2s-71.1-42.5-29.6-120.3 44.3-98.1 35.5-131.6c-11.7-44.6-51.9-26.5-79.3-85.5C375.1 38.3 415.8 0 415.8 0zM109.4 279.3s-20.4 34.1 3.4 64.1 40.8 41.2 27.8 81.4-30.1 50-13 82 18.7 39.4 18.7 39.4-43.7-26.1-18.2-73.9 27.2-60.3 21.8-80.8c-7.2-27.4-31.9-16.3-48.7-52.5s8.2-59.7 8.2-59.7zM269.4 905.7s-30.4-25.6-63.8-6.9c-33.4 18.7-47.2 33.7-84.8 14.4-37.6-19.3-44.6-37.7-78.8-26S0 899.3 0 899.3s32.7-38.9 75.8-6.1c43.1 32.9 55.1 36.5 76.3 34.5 28.2-2.7 21.2-28.8 59.6-39.6s57.7 17.6 57.7 17.6z"/><path class="st3" d="M237 45.8s-28.6 47.7 4.8 89.7 57.1 57.6 38.9 113.9c-18.3 56.3-42.1 70-18.3 114.6 23.8 44.7 26.2 55.2 26.2 55.2s-61.1-36.5-25.4-103.4 38.1-84.3 30.5-113.1c-10.1-38.3-44.6-22.8-68.1-73.4S237 45.8 237 45.8z"/><path class="st1" d="M152.1 81.8s-25.4 42.4 4.2 79.7 50.8 51.2 34.6 101.3-37.4 62.2-16.2 101.9 23.3 49 23.3 49-54.3-32.4-22.6-91.9 33.9-75 27.1-100.5c-9-34-39.6-20.3-60.5-65.3s10.1-74.2 10.1-74.2zM622.6 882.1s-31.6-14.8-55.7 8.7-32.3 39.4-68.6 31.6c-36.3-7.8-46.4-21.8-72.8-4.1-26.4 17.7-32.8 19.9-32.8 19.9s18.9-40.5 62.9-22.5c44.1 18 55.1 18.4 72.6 11.8 23.3-8.7 11.4-29.3 41.5-47.2s52.9 1.8 52.9 1.8z"/><path class="st7" d="M571.9 78.8s-25.4 42.4 4.2 79.7 50.8 51.2 34.6 101.3c-16.2 50.1-37.4 62.2-16.2 101.9s23.3 49 23.3 49-54.3-32.4-22.6-91.9 33.9-75 27.1-100.5c-9-34-39.6-20.3-60.5-65.3s10.1-74.2 10.1-74.2z"/><path class="st1" d="M639.5 541.5s-24.2 24.5-10.3 54.7c13.9 30.2 25.9 43 6.7 74.3-19.3 31.2-35.6 35.9-27.8 66.3s7.7 37.1 7.7 37.1-31.4-30.9-.1-65.9c31.3-35 35.3-45.2 35-63.6-.5-24.5-23.5-20.3-30.2-54.2-6.8-34 19-48.7 19-48.7z"/><path class="st7" d="M493.7 670.4s-13.6 13.8-5.8 30.8 14.6 24.2 3.8 41.8c-10.8 17.6-20 20.2-15.7 37.3 4.4 17.1 4.3 20.9 4.3 20.9s-17.7-17.4-.1-37.1c17.6-19.7 19.9-25.4 19.7-35.8-.3-13.8-13.2-11.4-17-30.5-3.7-19.2 10.8-27.4 10.8-27.4zM323.4 20.3s-18.1 30.2 3 56.8 36.2 36.5 24.6 72.2-26.7 44.3-11.6 72.7 16.6 35 16.6 35-38.7-23.1-16.1-65.5 24.1-53.4 19.3-71.7c-6.4-24.3-28.3-14.5-43.2-46.5-14.7-32.1 7.4-53 7.4-53zM288.4 777.4s-12.4 20.7 2.1 38.9 24.8 25 16.9 49.4-18.3 30.4-7.9 49.8c10.3 19.4 11.4 23.9 11.4 23.9s-26.5-15.8-11-44.9 16.5-36.6 13.2-49.1c-4.4-16.6-19.3-9.9-29.6-31.9-10.3-21.8 4.9-36.1 4.9-36.1z"/><path d="M565 208.7c-.8 0-1.6-.3-2.3-.9L448.1 103.3c-1.4-1.2-1.5-3.4-.2-4.7 1.2-1.4 3.4-1.5 4.7-.2l114.6 104.5c1.4 1.2 1.5 3.4.2 4.7-.6.7-1.5 1.1-2.4 1.1z" style="fill:#232323"/><path class="st9" d="m375.2 860.7 8.4 39.2 43.7-6.9-12.2-43z"/><path class="st5" d="m427.3 881.5-45.6 9.7-58.1 20.2s-13.1 12.3 0 15.4h103.7s16.9-5.4 0-45.3z"/><path class="st9" d="M611.1 874.9s6.9 26.5 9.2 29.2c2.3 2.7 43-10.4 43-10.4l-13.8-32.3-38.4 13.5z"/><path class="st5" d="m611.1 892.2-54.6 20s-6.1 12.3 3.1 14.6c9.2 2.3 103.7 0 103.7 0s6.1-4.8 6.1-22.7c0-4.2-6.1-21.1-6.1-21.1s-22.3 10-52.2 9.2zM404.4 556.5l-54.6 121.4L367 866.1s40.5 13.1 67-10.8l-15-164.4 41.5-86.8 18.4-10.8L598 881.5s57.6-3.8 65.3-29.2L515 510.7s-115.2 7.3-110.6 45.8z"/><path class="st9" d="m399 281.4 8.4 29.7 43-13.3-4.8-9.2c-2.2-4.3-3.7-21.7-3.4-26.6l2.9-25.1-46.1 44.5z"/><ellipse transform="rotate(-7.904 407.415 241.572)" class="st9" cx="407.4" cy="241.5" rx="32.3" ry="48.4"/><path class="st3" d="M448.3 281.9 430.5 296l-3.3 9h-11.3v-11.6l-14.5-3.5V305l-17.8 14.8 9.2 39.9L434 392l31.1-51.5v-43.8l-14.7 1.1z"/><path class="st6" d="m394 339.9 38.8 38.4 31.1-52.3s11.5 181.3 22.3 196.7l-32 38.4-40.2-18.3s7.7-33.8-1.5-75.3S394 339.9 394 339.9z"/><circle class="st3" cx="439.4" cy="408" r="6.6"/><circle class="st3" cx="446.1" cy="450.3" r="6.6"/><circle class="st3" cx="452.7" cy="501.9" r="6.6"/><path class="st9" d="M541.9 236.8s3.1-6.9-11.5-21.5-13.1-22.3-5.4-38.4 12.8-21.5 12.8-21.5l27.1 32.3s-1.5 15.4-8.5 15.4l8.5 20.7-23 13z"/><path class="st10" d="M179.2 348.2s.1 46.6 23.8 61.9c23.7 15.3 51.5-6.6 51.5-6.6l12.3-55.3h-87.6z"/><path class="st5" d="M439.9 260s11.7-31.6 6.8-33.2c0 0-7.2-6.9-11.1 0 0 0-1-17.5-8.1-10.3-7.2 7.2-10.2-5.1-10.2-5.1s-49.8 18.4-44.4 5.1l-13.5 4.9s-4.5-9.5 5.4-14.9c0 0-9.5-.3 0-9.2s18.2-14.6 32-14.6c0 0-2-10.8 11.3-7.2 13.3 3.6 36.5 9.7 43.6 24.1 0 0-1.7 8.2 5.5 10.2-.1-.1 1.9 40.9-17.3 50.2zM460.5 297.1l93.7 31.2-23.1-95.8 35.3-17.2 48.4 159.8s6.1 19.2-6.9 16.9c-13.1-2.3-95.3-13.1-95.3-13.1L561 556.4l-79.9-33c.1 0-27.6-199.9-20.6-226.3z"/><path class="st6" d="m394 300.3 6.1 24.8 17.3-8.4h15.4l17.5 6.1v-25.1l-19.6 6.7-14.9.5c.1.1-14.5-7.6-21.8-4.6z"/><path class="st9" d="M281.4 410.2 259.1 392s-13.8 21.7-39.2 18.1l-12.3-14.3s-3.1 3.2 0 14.3L196.1 392s-8.5 1.5 0 11.5l-8.5-10s-3.8 14.2 7.7 23.2 44.6 11.8 59.2 5.2l18.4 11.5 8.5-23.2z"/><path class="st5" d="M389.8 314.6C383.6 319.8 359 337 359 337l-25.4 99.6-55.3-33-19.2 24.6 73.8 69.3s10.2 12.6 16.1 0c1.5-3.2 22.3-30.1 22.3-30.1l6.9 108.3s52.5-10 48.9-49.2c-3.5-39.2-37.3-211.9-37.3-211.9z"/><ellipse class="st5" cx="224.2" cy="330.9" rx="100.3" ry="24.2"/><path class="st3" d="M184.8 291.9s-37.9-47.1-22.5-76.6c0 0 21.5-9.1 33.8 26.2l12.3 35.3s16.9-10 36.1-.8c0 0 6.1-46.1 33.8-60.7 0 0 16.9-2.9 10 26.2-6.9 29.1-16.9 48.3-29.2 53.7 0 0 .3 15-2 19.4 0 0 11.9 4.5 2 14.1l-.5 10.4s-56.4 6.6-67.1-2.1l2.3-8.7s-8.5-1.9-.8-13.6l-.8-19.4-7.4-3.4zM221.8 371.9c-12.4 0-26.4-1-41.2-3.8l.3-1.6v-1.7h.3c35.1 6.8 65.9 3 81.2.1l.6 3.3c-9 1.7-23.6 3.7-41.2 3.7z"/><path class="st10" d="M212.6 300.8h-.5c-3.1-.2-5.1-2.6-5.2-2.7-.2-.2-.2-.6.1-.8.2-.2.6-.2.8.1 0 0 1.8 2.1 4.4 2.3 1.8.1 3.7-.7 5.5-2.3.2-.2.6-.2.8 0 .2.2.2.6 0 .8-1.9 1.7-3.9 2.6-5.9 2.6zM236.2 301.5c-3.7 0-6.5-3.2-6.6-3.4-.2-.2-.2-.6.1-.8.2-.2.6-.2.8.1 0 0 2.7 3 5.9 3 1.8 0 3.5-1 5-3 .2-.2.5-.3.8-.1.2.2.3.5.1.8-1.7 2.2-3.7 3.4-5.9 3.4h-.2z"/><ellipse class="st10" cx="226.5" cy="313" rx="3.5" ry="1.6"/><path class="st10" d="M194.1 326.7c-.1 0-.2 0-.3-.1-1.5-.8-2.4-1.9-2.6-3.3-.6-3.1 2.3-6.6 2.4-6.7.2-.2.6-.3.8-.1.2.2.3.6.1.8 0 0-2.7 3.2-2.2 5.8.2 1.1.9 1.9 2 2.5.3.1.4.5.2.8 0 .2-.2.3-.4.3zM259.1 326.7c-.1 0-.2 0-.3-.1-.3-.2-.3-.5-.2-.8 1.4-2.3 1.9-4.2 1.4-5.8-.6-1.8-2.3-2.5-2.4-2.5-.3-.1-.4-.4-.3-.7.1-.3.4-.4.7-.3.1 0 2.2.9 3 3.2.6 1.9.1 4.2-1.5 6.8 0 .1-.2.2-.4.2zM226.4 325.9c-3.5 0-6-2.4-6.1-2.4-.2-.2-.2-.6 0-.8.2-.2.6-.2.8 0 .2.2 5 4.7 10.4 0 .2-.2.6-.2.8.1.2.2.2.6-.1.8-2 1.7-4 2.3-5.8 2.3z"/><path class="st11" d="M202.8 278.8c-1.3 0-2.4-.9-2.7-2.2-8.4-39.7-19.6-50.8-25.5-53.9-4.4-2.3-7.4-1.1-7.5-1-1.4.6-3 0-3.7-1.4-.6-1.4 0-3 1.3-3.7.5-.2 5.4-2.3 12 1 12.2 6.1 21.9 25.5 28.8 57.8.3 1.5-.6 3-2.2 3.3-.1.1-.3.1-.5.1z"/><g><path class="st11" d="M248.4 279.3c-.2 0-.4 0-.6-.1-1.5-.3-2.5-1.8-2.2-3.3 6.9-32.3 16.5-51.8 28.8-57.8 6.7-3.3 11.5-1.2 12-1 1.4.7 2 2.3 1.3 3.7-.6 1.4-2.3 2-3.7 1.4-.2-.1-3.2-1.2-7.5 1-5.9 3.1-17.1 14.2-25.5 53.9-.2 1.3-1.3 2.2-2.6 2.2z"/></g><ellipse class="st9" cx="442.2" cy="232.5" rx="8.2" ry="12.3"/><g><path class="st12" d="M189.6 551.1c0 7.4-6 13.4-13.4 13.4-1 0-2-.1-3-.3-6-1.4-10.4-6.7-10.4-13.1 0-6.4 4.5-11.8 10.4-13.1 1-.2 2-.3 3-.3 7.4-.1 13.4 6 13.4 13.4z"/><path class="st3" d="M183.6 551.1c0 6.4-4.5 11.7-10.4 13.1-6-1.4-10.4-6.7-10.4-13.1 0-6.4 4.5-11.8 10.4-13.1 5.9 1.3 10.4 6.7 10.4 13.1z"/><ellipse class="st12" cx="166.6" cy="551.1" rx="2.5" ry="4.9"/></g><g><path class="st12" d="M204.9 564.1c7.2 1.8 14.5-2.7 16.2-9.9.2-1 .4-2 .4-3 .1-6.1-4-11.7-10.2-13.2-6.2-1.5-12.5 1.6-15.2 7-.4.9-.8 1.8-1 2.8-1.8 7.3 2.6 14.6 9.8 16.3z"/><path class="st3" d="M206.3 558.3c6.2 1.5 12.5-1.6 15.2-7 .1-6.1-4-11.7-10.2-13.2-6.2-1.5-12.5 1.6-15.2 7-.1 6.1 4 11.7 10.2 13.2z"/><ellipse transform="rotate(-76.29 210.36 541.824)" class="st12" cx="210.3" cy="541.8" rx="2.5" ry="4.9"/></g><path d="M288.5 761.1c-.4 4.8-6.1 7.1-9.6 3.8-15.5-14.2-51-44.7-55.8-30.9-6.1 17.7-10 37.6-10 37.6s-2.3 13.1-8.5 0c-4.5-9.6-16.1-29.9-21.9-40.1-1.7-2.9-5.7-3.2-7.8-.6l-27.1 33.8s-12.3 15.4-16.9-.8c-4.6-16.1-2.3-36.1-15.4-31.5 0 0-19.2 26.4-39.1 28.5-5.7.6-10.3-4.5-9.2-10.1l1.1-5.8c4.8 3.8 13.1 3 27.1-9.2 38.2-33.3 46.8 11.2 46.8 11.2s26.6-42.5 44.9-19.9c18.3 22.5 25.7 8.7 25.7 8.7s6.5-26.5 32.8-9.4c26.4 17.1 27.7 30.3 34.3 9.4 2.2-7 4.9-10.2 7.5-11.3 1.2 14.9 1.7 27.8 1.1 36.6z" style="fill:#ea9706"/></svg>