<svg version="1.1" id="Layer_1" xmlns="http://www.w3.org/2000/svg" x="0" y="0" viewBox="0 0 1000 738.8" style="enable-background:new 0 0 1000 738.8" xml:space="preserve"><style>.st2{fill:#e6e7e8}.st3{fill:#fff}.st5{fill:#897dd3}.st6{opacity:.54;fill:#d5e4fe}.st7{fill:#f8ac0e}.st12,.st13{fill:#fcfdff}.st13{opacity:.54}.st14{fill:#cae5fc}.st18{fill:#d1d3d4}.st19{fill:#ffd2c3}.st20{fill:#272728}.st22{fill:#4570ad}.st23{fill:#f9fcff}.st24{fill:#ff4d53}.st25{fill:#ffd1c1}.st30{fill:#ed4a56}</style><path d="M129.6 101.8C157.2 50.3 212-5.5 317.7 9.6c38.6 5.5 75.2 20.5 107.3 42.5 42.8 29.4 154 85.2 398.2 105.5 0 0 249-10.1 132.2 322.3 0 0 124.6 203.6-63.9 232.2-188.6 28.6-630.9 25.8-823.9-88.8 0 0-167.8-74.3 22.3-310.5 0 0 30.1-36.9 20.9-101.1-5.4-37.8.7-76.3 18.8-109.9z" style="opacity:.42;fill:#cfb5f6"/><path d="M119.7 149.4c21.7-51.9 69-110.6 171.7-106.1 37.5 1.7 74 12.6 106.9 30.7 43.8 24.1 155.6 67.2 391.7 63.7 0 0 237.8-33 157 296.6 0 0 138.6 183.5-39.5 228.6-178.2 45.1-602.5 83.9-798.3-7.8 0 0-167.9-55.5-7.8-299.7 0 0 25.4-38.2 10.6-98.9-8.7-35.7-6.5-73.2 7.7-107.1z" style="fill:#cfb5f6"/><path class="st2" d="M175.8 639.5h-63.4c-11.9 0-21.6-9.7-21.6-21.6V418.3h85v221.2z"/><path class="st3" d="m133.3 273.5 35-38.8h182.4v401.8l-232.9 2.6s15.5-4.4 17.9-25.7l-2.4-339.9z"/><path style="opacity:.54;fill:#d4e4fe" d="M133.3 273.5h34.4l.6-38.8z"/><path class="st5" d="M163.6 323.1h101.5v12.6H163.6zM163.6 353.8H240v72.9h-76.4z"/><path class="st6" d="M163.6 439.1h121v6.2h-121zM163.6 454.9h121v6.2h-121zM163.6 470.6h121v6.2h-121zM163.6 486.4h121v6.2h-121zM162.4 503h121v6.2h-121zM204.6 535.6h121V547h-121zM163.6 564.6h121V576h-121z"/><path class="st7" d="M546.8 443h373.4c11.9 0 17-15.2 7.5-22.4l-165.1-125c-8.2-6.2-19.6-6.1-27.7.2l-159.7 125c-9.3 7.3-4.2 22.3 7.7 22.3h374.3"/><path class="st3" d="M891.8 576.1H607.3c-8.6 0-15.6-7-15.6-15.6V325.6c0-8.6 7-15.6 15.6-15.6h284.5c8.6 0 15.6 7 15.6 15.6v234.9c0 8.6-7 15.6-15.6 15.6z"/><path d="M720.8 383.8h-89.2c-3.2 0-5.8-2.9-5.8-6.4 0-3.5 2.6-6.4 5.8-6.4h89.2c3.2 0 5.8 2.9 5.8 6.4 0 3.5-2.6 6.4-5.8 6.4z" style="fill:#466eb6"/><path class="st2" d="M870.3 414.8H630.9c-3.8 0-7-3.1-7-7 0-3.8 3.1-7 7-7h239.4c3.8 0 7 3.1 7 7-.1 3.9-3.2 7-7 7zM871.7 441.3H632.3c-3.8 0-7-3.1-7-7 0-3.8 3.1-7 7-7h239.4c3.8 0 7 3.1 7 7s-3.2 7-7 7zM871.7 471.9H632.3c-3.8 0-7-3.1-7-7 0-3.8 3.1-7 7-7h239.4c3.8 0 7 3.1 7 7s-3.2 7-7 7zM871.7 502.5H632.3c-3.8 0-7-3.1-7-7s3.1-7 7-7h239.4c3.8 0 7 3.1 7 7s-3.2 7-7 7z"/><path d="M782.3 381.4c-4.9 2.6-9.9 3.6-15.8 3.6-14.6 0-26.9-10.7-26.9-27.7 0-18.3 12.7-34.1 32.4-34.1 15.5 0 25.9 10.8 25.9 25.7 0 13.3-7.5 21.2-15.8 21.2-3.6 0-6.8-2.4-6.6-7.8h-.4c-3.1 5.2-7.2 7.8-12.5 7.8-5.2 0-9.6-4.2-9.6-11.2 0-11 8.7-21.1 21.1-21.1 3.8 0 7.2.8 9.5 1.9l-3 16.1c-1.3 6.8-.3 9.9 2.7 10 4.5.1 9.6-6 9.6-16.3 0-12.9-7.7-22.1-21.5-22.1-14.5 0-26.7 11.5-26.7 29.5 0 14.8 9.7 24 22.8 24 5.1 0 9.8-1.1 13.4-3.1l1.4 3.6zm-4.8-38.4c-.9-.3-2.4-.6-4.4-.6-7.8 0-14.1 7.4-14.1 16 0 3.9 2 6.8 5.9 6.8 5.2 0 9.9-6.6 10.8-12.1l1.8-10.1z" style="fill:#bcbec0"/><path class="st7" d="M934.2 436.1v183.4c0 8.3-6.7 15-15 15H584.8c-8.3 0-15-6.7-15-15V436.1c0-8.3 6.7-15 15-15h9.4l143.6 89.4.7-.4c8.3-5.3 18.9-5.3 27.2-.1l.7.4 143-89.4h9.9c8.2.1 14.9 6.8 14.9 15.1z"/><path d="M934.2 616.9v2.6c0 8.3-6.7 15-15 15H584.8c-8.3 0-15-6.7-15-15v-1.2l168-107.8.7-.4c8.3-5.3 18.9-5.3 27.2-.1l.7.4 167.8 106.5z" style="opacity:.27;fill:#fff"/><g><path d="M663 636.5H351.2c-8.6 0-15.6-7-15.6-15.6V104c0-8.6 7-15.6 15.6-15.6H663c8.6 0 15.6 7 15.6 15.6v516.9c-.1 8.6-7 15.6-15.6 15.6z" style="fill:#3d3d3d"/><path class="st12" d="M342.8 120.5h331.1v510.3H342.8z"/><circle class="st13" cx="625.7" cy="108" r="2.9"/><circle class="st13" cx="638.7" cy="108" r="2.9"/><circle class="st13" cx="651.6" cy="108" r="2.9"/><path class="st2" d="M342.8 534.7h331.1v96.1H342.8z"/><path class="st3" d="M361.5 556.4h151.2v10.1H361.5zM361.5 577.3h252v10.1h-252zM361.5 598.1h252v10.1h-252z"/></g><g><path class="st14" d="M593.9 218.4s-12.4 1.9-9.6 14c2.8 12.1 20 6.6 20 6.6l21.4-3.5s25.9-.3 37 .3l-8.1-54.8s-26.8 20.2-32.2 24.4c-5.4 4.1-17.2 9.6-28.5 13z"/><ellipse transform="rotate(-6.298 663.944 206.943)" cx="663.7" cy="206.9" rx="16.6" ry="29.3" style="fill:#3c83ff"/><path class="st3" d="m600.1 216.7 12.2-4.8 3.8 24.9-11.8 2.1z"/><path class="st14" d="m617.8 232.7 1.7 20.8h6.2V231z"/><ellipse transform="rotate(-6.298 663.944 206.943)" cx="663.7" cy="206.9" rx="15.4" ry="27.3" style="fill:#525354"/><path d="M648.2 199.6H665l1.9 16.8-14.3 6.9s-6-15.5-4.4-23.7z" style="fill:#98cefe"/><ellipse transform="rotate(-6.298 666.205 208.073)" class="st3" cx="665.9" cy="208" rx="4.8" ry="8.4"/><path class="st18" d="m350.7 293.5 3.4.3-1.7-.2 1.7.2c.1-.7 1.8-16.3 18.3-21.8l-1.1-3.2c-18.6 6.3-20.6 24-20.6 24.7z"/><ellipse transform="rotate(-19.444 518.259 216.844)" class="st19" cx="518.2" cy="216.8" rx="19.4" ry="25.6"/><path class="st19" d="m499.9 223.3-3.8 35.7 22.1 18.3 11.1-19-6.2-2.8 1.1-18.3zM588.4 318.4l5.9 7.6s3.8-46.3 9.7-55.6c5.9-9.3 7.9-21.4 13.5-23.5s10.4 0 10.4 0 3.5 3.7-7.3 3.4 10.7.3 10.7.3 5.2 8.7 0 12.9c-5.2 4.1-13.8 6.2-13.8 6.2l-3.1 11.4-3.3 69.4s-2.2 17.6-17 8.3L582 344.3l6.4-25.9zM439.9 331.5l-3.5 4.8s-15.5-34.5-25.2-47.3c0 0-11.1-19.3-19.7-20-8.6-.7-16.6-1.4-16.6-1.4v-4.5s-7.3-.3-7.3 5.5 1.4 15.5 12.4 17.6c11.1 2.1 15.9 2.4 15.9 2.4l23.8 56s5.2 23.8 16.6 24.2 15.5-12.7 15.5-12.7l-11.9-24.6z"/><path class="st20" d="m468.2 389.9-3.1 144.8s34.2 1.5 35.9 0 13.5-89.5 13.5-89.5l24.5 87.7s32.5 4.7 32.1 1.8c-.3-2.8-17.6-144.8-17.6-144.8h-85.3z"/><path d="M538.7 213.8s13.2-5.9 11.5-17.3c-1.7-11.4-6.4-6.9-11.5-8.3-5.1-1.4-10.2-16.9-33.9-7.3 0 0-9.7 4.8-12.9 14.8 0 0-14.6-1-12.9 14.2 0 0-1.7 7.2 7.6 11.7 0 0 2.7 20.6 10.7 24.3l2.5-19.4s-3.7-14.1-.4-11.5 3.3 2.7 3.3 2.7l2.3 1.9s2.8-3.8 4.7-12.8c2-9 7.8 0 14.6 2.8 6.5 2.8 14.4 4.2 14.4 4.2z" style="fill:#2f2f30"/><ellipse transform="rotate(-19.444 496.155 219.616)" class="st19" cx="496.1" cy="219.6" rx="5.6" ry="7.4"/><path class="st22" d="M496.1 253.5s-14.5 5.9-28.3 9c-13.8 3.1-19.3 22.8-19.3 22.8l-12.1 46.3 14.2 28.3 13.5-35.9 2.2 71.1h88.6v-83.9l31.1 38 6.6-32.1-20-39.7s-14.9-15.9-28.3-19-21-4.8-21-4.8l-6.7 12.8-20.5-12.9z"/><path class="st23" d="m497.1 252.3-7.5 2.1 17.7 19.7 8.1-9zM524.4 250.3l-9 15.9 6.6 7.3 6.2-18.6z"/><g><path class="st18" d="m393.3 303.3 3.4.2c0-.3 1.3-27.1-20.9-34.7l-1.1 3.2c19.7 6.7 18.6 31 18.6 31.3z"/></g><path class="st24" d="m348.4 291.4 53.4 10.8v73.4s-7.1 10.5-17.8 8l-38.3-17.3s-10-3.1-10-16.6 12.7-58.3 12.7-58.3z"/></g><path class="st24" d="M302.3 131.1c-3.1-1-16.7-5-13.9 8l15 15v.6l.3-.3.5.5c1.2 0 2.2-.6 2.9-1.6l10.3-16c1.6-14.3-13.9-6.8-15.1-6.2zM258.5 160.3c-2.2-.7-11.8-3.5-9.8 5.6l10.5 10.5v.5l.2-.2.4.4c.8 0 1.6-.4 2-1.1l7.3-11.3c1.2-10-9.7-4.8-10.6-4.4zM305.2 199.8c-1.8-.6-10-3-8.3 4.7l9 8.9v.4l.2-.2.3.3c.7 0 1.3-.4 1.7-.9l6.2-9.6c.9-8.4-8.3-4-9.1-3.6z"/><g><path class="st25" d="M269.3 608.8v21.6s8.6 5.5 12.8 1.7c4.1-3.8 0-8.3 0-8.3l1.8-15h-14.6zM308.5 605.7l-3 21.9s12.1 10.7 17.6 0l-1.7-21.9h-12.9z"/><path class="st20" d="M261.5 624s8.9-3 9.6.8c.7 3.9 5.7.5 5.7.5s9.1-3.6 9.6-.9 10.4 8.7 11.9 10.7c1.6 1.9 5.6 7.8-.8 8.6-6.3.8-37.6-2.2-37.6-2.2s-3-11.6 1.6-17.5zM303.6 619.5s6.1-1.6 8 2.5c1.9 4.1 5.2 3.1 7.3-.1 0 0 5.7-.8 8.4 2.3 2.7 3.1 8.6 8.4 8.6 8.4s7.7 5.3 4.9 9.8l-38.7-5.2c.2-.1-4.6-11.4 1.5-17.7z"/><ellipse transform="rotate(-9.177 304.291 317.302)" class="st25" cx="304.3" cy="317.3" rx="14.8" ry="19.6"/><path class="st25" d="m292.1 321.6-2.1 27.3s-1.4 16.9 12.8 14.9c14.2-2.1 12.8-17.6 12.8-17.6l-5.5-2.8-.7-10.4-17.3-11.4zM389.8 363.9l6.9-7.1s3.5-3.5 7.6-5.2c4.1-1.7 5.5-4.8 5.5-4.8s2.4 2.4 0 5.9c-2.4 3.5 6.8-.1 7.6-3.1.8-3 5.9 1.6 2.1 5.8-3.8 4.2-10.9 8.7-17.7 6l-6.6 9-5.4-6.5z"/><path d="M267.8 434.2v179.7h18.7l17.7-135.4s17.8 54.1 16.1 61.9c-1.7 7.9-12.4 68.5-12.4 68.5h16.6l20.7-58.2s5.5-15.5 0-30.7-16-85.7-16-85.7h-61.4z" style="fill:#6c33bc"/><path d="M318.6 313.4s12.4-3.7 11.4-13.3c-.8-8-9.3-8.9-14.4-7.4-5.1 1.6-13.7-7.6-23-.8-9.3 6.7-8.2 6.7-8.3 8.6-.4 4.5-2.8 9.2-.3 11.7 3.7 3.7 2.3 8.3 2.3 8.3s-4.8 11.3 5.2 9.2c0 0-1.4-10.7 1.9-12.6 3.4-1.9 1.8-9.1 7.1-8.2s7.3-.2 7.3-.2 6.2-5.7 10.8 4.7z" style="fill:#613622"/><ellipse transform="rotate(-30 291.163 319.474)" class="st25" cx="291.2" cy="319.5" rx="3.4" ry="4.5"/><path class="st25" d="m263.1 434.2 8.3 8.6s10.7 3.5 9 7.9-3.3 11.1-8.5 9c-5.3-2.1-4.6-5.5-6-6.6-1.4-1-7.7-9.7-7.7-9.7l-3-2.4 7.9-6.8z"/><path class="st7" d="m290 341.3 12.8 9.7 9.3-9.7 10.7 2.1s5.5 2.4 12.8 10.7c7.3 8.3 28.3 33.8 28.3 33.8l25.9-26.2 6.9 6.4-24.3 37.1s-8.1 12.1-19.9 0-24.5-25.6-24.5-25.6l1.4 57.3h-61.8v-49.7l-16.9 20 15.5 27.3-10 11.1-2.1-2.5-22.4-26.9s-9.3-9 0-19.3c9.3-10.4 26.2-35.2 26.2-35.2s4.1-10.7 16.9-14.9c12.8-4.1 15.2-5.5 15.2-5.5z"/><path style="fill:#fbfdff" d="m283.4 342.8 20.9 17.5 13.3-17.9-5.5-1.1-9.3 9.7-12.8-9.7z"/></g><circle class="st24" cx="258.9" cy="234.7" r="31.4"/><path class="st3" d="M257 222.1c-3.7-1.2-19.9-5.9-16.5 9.5l17.8 17.8v.8l.3-.4.6.6c1.4 0 2.7-.7 3.4-1.9l12.3-19.1c1.9-16.9-16.4-8.1-17.9-7.3z"/><path class="st7" d="M743.4 223.3c-15.5 0-28.1 12.6-28.1 28.1 0 6.1 1.9 11.7 5.2 16.2l-4.2 12.3 13.5-3.9c4 2.3 8.7 3.5 13.7 3.5 15.5 0 28.1-12.6 28.1-28.1-.1-15.5-12.6-28.1-28.2-28.1z"/><circle class="st3" cx="730.4" cy="249.7" r="3.7"/><circle class="st3" cx="743.4" cy="249.7" r="3.7"/><circle class="st3" cx="755.7" cy="249.7" r="3.7"/><g><path class="st22" d="M707.2 131.5h18s4.2-4.4 5.2-8.1c.3-1 1.5-1.1 2.1-.3 1.3 2 2.5 5 1.6 8.5h7.7c1.9 0 3.5 1.5 3.5 3.5v10c0 2.4-1.1 4.6-3 6.1l-.4.3c-1.3 1-3 1.6-4.7 1.6h-29.9v-21.6z"/><path class="st12" d="M714.1 131.5h3.5v21.4h-3.5z"/></g><g><path class="st22" d="M744.7 178.1h11.8s3.5-3.9 3.6-6.6c0-.3.4-.4.5-.2 1 1.2 2.5 3.8 1.7 6.8h5c1.3 0 2.3 1.1 2.3 2.4v6.9c0 1.6-.7 3.2-2 4.2l-.3.2c-.9.7-2 1.1-3.1 1.1h-19.7v-14.8z"/><path class="st12" d="M749.2 178.1h2.3v14.7h-2.3z"/></g><g><path class="st22" d="M701.9 201.6h9.2s2.4-2.5 2.7-4.5c.1-.4.6-.5.8-.2.7 1 1.5 2.7 1 4.6h3.9c1 0 1.8.8 1.8 1.8v5.1c0 1.2-.6 2.4-1.6 3.1l-.2.2c-.7.5-1.5.8-2.4.8h-15.3v-10.9z"/><path class="st12" d="M705.4 201.6h1.8v11h-1.8z"/></g><path d="M353.2 636.5 290 701.2s271.5 27.2 455.2-8.9l-85.3-58.1-306.7 2.3z" style="opacity:.38;fill:#fff"/><g><path class="st19" d="m683.2 344.6-2.6 21.6s15.7 6.4 21.6 4.8c5.9-1.6 8.4-8 8.4-8l-4.6-6-3.8-30.8-19 18.4zM666.1 619s0 11.6-6.2 15.2c-6.2 3.6-14.6 9.1-14.6 9.1s-.4 5.8 11 3.3c11.4-2.6 22.3-4.1 22.3-11.9S677 619 677 619h-10.9zM710.6 619s4.1 9.9 0 14.4c-4.1 4.4-19.1 10.1-19.1 10.1s1.3 6.9 10.5 4.2 21.6-5.8 23.7-11c.3-.9.6-1.9.7-3.1.7-5.9-.7-14.6-.7-14.6h-15.1z"/><path class="st20" d="M691.5 643.5s-7.3.3-8.3 4.8 3.5 6 13.5 5.8c7-.2 19.7-2.7 26.8-4.2 3.3-.7 5.7-3.5 5.9-6.9.1-3.2-.3-6.8-2.8-8.4 0 .1-18.8 16.4-35.1 8.9zM647 642.2s-16.1 7.9-4.4 12c9 3.1 27.9-4.3 36.3-7.9 2.6-1.1 4.2-3.8 3.9-6.7-.4-3.7-1.5-8.1-4.3-6.5 0 0-9.8 15.8-31.5 9.1zM665.9 442.5 663.7 624h14.9s4.4-75.9 7.7-94.5c3.2-18.7 8.1-37.3 8.1-37.3L710.6 624s14.5.7 15.1 0c.5-.7 2.6-115.8 2.6-115.8s5.1-51.8-3.7-65.8h-58.7z"/><ellipse transform="rotate(-75.273 686.217 330.651)" class="st19" cx="686.2" cy="330.6" rx="19.4" ry="15"/><path class="st24" d="m680.6 353.9 10.4 7.3 9.3-7.3 17.8 5.5c3.8 1.2 6.9 4.1 8.3 7.8 1.2 3.1 2.2 7 2 10.1-.5 6.6-4.6 54.8 0 68.3h-64.6s11.6-44.6 6-51.8l-21.7 17.1-11.3-11.1 20.8-28.5s4.3-11.1 16.5-14.2c12.1-3.2 6.5-3.2 6.5-3.2z"/><path class="st19" d="m686.2 405.7-57.9 5.2-12.2 3.1s-.4 2.6 5.7 2.1c6-.5-4.3 6.2-8.2 5.7-3.9-.5-8 2.6-5.4 4.7 2.6 2.1 17.1 1 19.7-3.6 2.6-4.7 50.8-3.1 50.8-3.1s19.7-1 17.1-8.8c-2.8-7.9-9.6-5.3-9.6-5.3z"/><path class="st19" d="M640.2 399.7h-6.7l-20-26.7s-7.8-11.2-17.4-11.2c-9.6 0-16.7-4.9-16.7-4.9s2.4 10.8 8.4 14.2c6 3.4 18.1 4.7 18.1 4.7l19.7 31.8s6.7 14.5 14.5 14.5 7.7-16.6 7.7-16.6l-7.6-5.8z"/><path class="st30" d="M714 362.1c4.9-.8 13.5-.4 14.3 11.3.1 2.3-.7 4.6-2.2 6.3L694.3 416l-11.9-10.4 26.6-40.3c1.2-1.7 3-2.8 5-3.2z"/><path class="st20" d="M670.7 322.8s-6.1-14 12-24.4c0 0 21.8-4.1 28.5 8.8 6.7 13 7.8 46.1 7.8 46.1s-8.9 18.7-26.9 10.9c0 0 7.5-6.7 10.2-14.5l1.3-28.3-11 .4-21.9 1z"/><ellipse transform="rotate(-75.273 702.238 326.242)" class="st19" cx="702.2" cy="326.2" rx="5" ry="3.9"/><path class="st30" d="m666.9 360.1 2.8 33.7-21.7 17.1-11.3-11.1 20.8-28.5c-.1-.1 4.2-8.7 9.4-11.2z"/></g></svg>