<svg version="1.1" id="Layer_1" xmlns="http://www.w3.org/2000/svg" x="0" y="0" viewBox="0 0 1000 849" style="enable-background:new 0 0 1000 849" xml:space="preserve"><style>.st0{fill:#e3d4f9}.st1{fill:#cfb5f6}.st2{fill:#fff}.st3{fill:#f9af8a}.st5{fill:#4570ad}.st7{fill:#fc9e75}.st10{fill:#212121}.st12{fill:#629988}.st13{fill:#7bc6b1}.st14{fill:#6d6e71}</style><path class="st0" d="M344.6 763.5c172.3 0 270.3-129.4 270.3-280.2 0-64.4-23.5-119.4-64.5-161.9-26.1-27-59.2-49-97.9-65-1.7-.7-3.4-1.4-5.2-2.1-29.9-11.8-62.9-20.2-98.4-24.7-1.7-.2-3.4-.4-5.2-.6-12.5-1.5-25.3-2.4-38.3-2.9-20.9-.8-40.8-1.8-59.3 1.4C112.3 251 21.8 332.2 2.6 465.7c-26.9 187.9 169.6 297.8 342 297.8z"/><path class="st1" d="M620 502c0 66.2-19.7 128-57 175.5-3.7 4.7-7.5 9.2-11.5 13.5-43.6 47.8-107.2 77.8-187.9 77.8-163.5 0-366.3-101.9-325.9-283.6C59.8 386 103.4 319 173.1 284.4c28-13.9 60.3-22.6 97-26.1 9.1-.9 18.4-1.4 28.1-1.6 2.2 0 4.4-.1 6.6-.1 7-.1 14.2.1 21.6.3 12.4.5 24.5 1.4 36.3 2.8 1.6.2 3.3.4 4.9.6 22.2 2.8 43.3 7.2 63.3 13.1 2.2.7 4.4 1.3 6.6 2 8 2.5 15.9 5.3 23.5 8.4 1.7.6 3.3 1.3 4.9 2 36.7 15.2 68.2 36.2 92.9 61.9l4.2 4.5c36.3 39.9 57 90.7 57 149.8z"/><path class="st2" d="M563 349.2V596H173.1V283.5c28-13.5 60.3-21.9 97-25.2 9.1-.8 18.4-1.3 28.1-1.6 2.2 0 4.4-.1 6.6-.1 7-.1 14.2.1 21.6.3 12.4.5 24.5 1.4 36.3 2.7 1.6.2 3.3.4 4.9.6 22.2 2.7 43.3 7 63.3 12.7 2.2.6 4.4 1.3 6.6 2 8 2.5 15.9 5.2 23.5 8.1 1.7.6 3.3 1.3 4.9 1.9 36.7 14.8 68.2 35 92.9 59.9 1.4 1.5 2.9 2.9 4.2 4.4z"/><path class="st1" d="M173.1 441.8h388.8v6.6H173.1z"/><path class="st1" d="M437.6 274.9V596H431V273c2.2.6 4.4 1.3 6.6 1.9zM304.8 256.6V596h-6.6V256.7c2.2 0 4.4-.1 6.6-.1z"/><g><path class="st0" d="M630.5 767.4c-183.9 0-288.4-138.1-288.4-299 0-68.7 25.1-127.4 68.8-172.7 27.8-28.8 63.2-52.3 104.5-69.4 1.8-.8 3.7-1.5 5.5-2.2 31.9-12.6 67.1-21.5 105-26.4 1.8-.2 3.7-.5 5.5-.7 13.3-1.6 27-2.6 40.9-3.1 22.3-.9 43.6-1.9 63.3 1.5 142.7 25.2 239.3 111.8 259.7 254.3 28.8 200.5-180.9 317.7-364.8 317.7z"/><path class="st1" d="M610.2 773.1c-174.5 0-273.6-131.5-273.6-284.7 0-65.4 23.8-121.3 65.3-164.5 26.4-27.5 60-49.8 99.1-66 1.7-.7 3.5-1.4 5.2-2.1 30.2-12 63.7-20.5 99.7-25.1 1.7-.2 3.5-.4 5.2-.6 12.6-1.5 25.6-2.5 38.8-3 21.2-.8 41.2-.3 60 1.5 136.8 12.9 215 93.6 248 242.1 43.1 193.7-173.2 302.4-347.7 302.4z"/><path class="st2" d="M710 228.4v392.8H402V323.9c26.4-27.5 60-49.8 99.1-66 1.7-.7 3.5-1.4 5.2-2.1 30.2-12 63.7-20.5 99.7-25.1 1.7-.2 3.5-.4 5.2-.6 12.6-1.5 25.6-2.5 38.8-3 21.1-.9 41.1-.4 60 1.3z"/><path class="st1" d="M402.8 421.6H710v5.6H402.8z"/><path class="st1" d="M506.2 255.7v365.1H501v-363c1.8-.7 3.5-1.4 5.2-2.1zM611.1 230v390.9h-5.2V230.6c1.7-.2 3.5-.4 5.2-.6z"/></g><ellipse class="st1" cx="477" cy="754" rx="467" ry="18"/><g><ellipse class="st1" cx="428" cy="816.5" rx="174" ry="23.5"/><path class="st3" d="M406 532s10 24-14 31c0 0 6 34.9 29.5 33.9s33.6-32.5 33.6-32.5-23.7-.5-17.4-32.5H406z"/><path d="M392 564s-34 7-42 22-18 38-18 38 13 14.2 30 21.6l6-12.6s11 43 5 76c0 0-11 23-24 21 0 0 79 56 134 9 0 0-31-57-10-107l5 10 35-17-11.1-27.1S494 576 469 569l-20-6s-25 52-57 1z" style="fill:#ff4d53"/><path class="st5" d="M355 729.3s-30.5-12.8-43-13.3-13.7 48.7-13.7 48.7 29.2 27.8 41.2 35.8 120.9 39 174.9 0l42.8-38.3L541 716s-26 7-56.3 20.5c-33.2 14.9-83.1 12.6-129.7-7.2z"/><path class="st3" d="m332 624-21.5 45.5s-10 23.6 0 28.3 24 2.3 24 2.3 40-.6 61-6.6 27-10.8 27-10.8v-63.3s-8-2.9-7 6.1-3 27-3 27l-5 19s-25.4 8.9-43.2 2.9l-20.8-2.9 18.5-25.9-30-21.6z"/><path class="st3" d="M510.8 626.1S526 650 531 668s6 28.4 0 31.2-62.5-1.9-62.5-1.9-44.5-6.9-46-14.6c-1.5-7.7 0-63.3 0-63.3s6 1.1 5 9.1 5 23 5 23 5 14 4 19c0 0 20 10.6 42 5.3s24-2.3 24-2.3-19.2-19.4-21.1-33.2l29.4-14.2zM559.3 760.4c6-5.4 10.6-12.2 12.8-20 1.7-6.1 2.1-13.2-2.6-17.9-3.1-3.1-7-4.9-10.9-5.9-8.1-2.1-16.7-.7-23.9 3.6C514 732.4 452.9 769 427 790c0 0-32.5 18.5-48.5 14.5s-28-7-39-4-16.4 4.6-16.4 4.6-5.4 5.1 0 8.8c0 0-1.6 4.7.4 9.7s5 9 5 9l3.5 2.4s17.5-.4 28.5-3.4 31.5-.7 31.5-.7 19.6 3.1 31.6-10.1l56.9-18.2c0-.1 52.1-18.3 78.8-42.2z"/><path class="st3" d="M312 716s-26.5-7.5-32.5 13.5 26.6 40.8 26.6 40.8 47.2 26.2 68.3 33.2c21.1 7 59.1 20 59.1 20s10 11 34 6c0 0 25-2.8 38.5 3.6 0 0 8 3.3 14.2 1.8s12.3-10.4 10.3-19.4c0 0 4-6-4-10s-23-10-30-6-20.8 4.5-20.8 4.5-20.2 2.5-48.7-14-93.5-68.5-115-74z"/><ellipse class="st3" cx="421.5" cy="508" rx="29.5" ry="39"/><path d="M415.7 470.8c1.8 5.6 8.9 23.2 31.6 35.4 2.2 1.2 3.5 3.6 3 6.1-1.4 8.1-5.3 25.4-13.7 29.2 0 0 .1 21 18.5 23 0 0 27.5 7.4 35.4 16.2 0 0 20.9-23.2-9.1-62.2 0 0-10-14-17-43 0 0-10.9-33-40.9-23.5 0 0-24.1-7.5-37.1 20.5s-15.8 55-8.4 74.5l7.4 19.5s23.1-4.6 22.6-23.8c0 0-17.3-23.4-15.1-39.3 2-14.4 13-26.4 20.6-33.4.8-.6 1.9-.1 2.2.8z" style="fill:#1e1739"/><ellipse class="st7" cx="682.8" cy="493" rx="23.8" ry="30"/><path d="M669.5 471.6c2.7.3 6.9.5 11.6-.2 1.1-.2 2.2.1 3.2.6 2.7 1.5 8.5 4.5 13.5 4.1 2.4-.2 4.6 1.3 5.2 3.7l1.4 5.4c1.4 5.2 1.5 10.6.4 15.8-1 4.6-3 9-6 12.7l-2.2 2.8c-1.2 1.5-1.4 3.6-.5 5.4.9 1.6 2.6 2.7 4.4 2.7h7.9c7.4 0 13.8-5.1 15.4-12.2.3-1.3.6-2.7.9-4.3 2.7-14.5 3.3-25.2-1-36.9-4.3-11.6-8.3-15.6-17.3-20.6s-20-14.6-41-3-25.6 28-25 36c1.3 16.3.4 28.3 0 35-.2 3 9 6 12 6h12c2.3 0 4.2-1.5 4.8-3.7v-.2c.4-1.5.1-3-.8-4.2l-6-7.9c-.3-.3-.5-.7-.6-1.1-1.3-3.2-6.4-17.8 2.7-33.3 1.1-1.9 3-2.8 5-2.6z" style="fill:#49230e"/><path class="st7" d="M670 513s2 17-10.5 21.5 10.5 24.4 10.5 24.4l30 5.6 11.1-28.9-8.3-3.6s-12.8-13-7.8-27l-25 8z"/><path d="M674 552.1c25.8 12.7 28.8-20.1 28.8-20.1s18.7 8.5 29.7 11.5 20 29 20 29l6 13-25 15-6-11s-5 17-8 28 12 64 12 64-11 8-43 9-55-11-55-11-1-6 6.2-19.8 5.8-37.2 5.8-37.2l-5.8-33.4-7.2 12.4-24-17 7.1-20c6.1-19 25.9-26 43.9-30l7.6 11.5c1.8 2.6 4.1 4.7 6.9 6.1z" style="fill:#feac02"/><path class="st7" d="m632.5 601.5-14 24s16 6 32 4 19-3 21-8 4-17 4-17 1-17 3-21 5 0 5 0v48.7s-3 13.3-22 12.3l-29 5h-32.9s-16.1 5-14.1-9 10-38 23-56l24 17zM758.5 585.5l15.8 33.5s8.2 15.5 3.2 25.5c0 0-3.1 7.7-21.1 5.9s-49.9-4.4-49.9-4.4-20-3-23-13.8v-48.7s3-6 5 4 6 34 6 34 3 8 12 8 27-1 27-1l14-3-14-25 25-15z"/><path class="st10" d="M590.8 664s30 9 49.6 18.5 69.6 12.5 91.1-1c0 0 33.8-14.5 50.1-17.5l20.9 34.5-44 36.3S740 751 716 750s-102.5-14.5-102.5-14.5-42.4-31.2-45.4-43.8 22.7-27.7 22.7-27.7z"/><path class="st7" d="M599.5 667.5c-4.1-2.5-8.8-3.9-13.6-4.1-9.4-.4-23 1.7-22.3 18.2 1 25 90 58 90 58l49.7 18.3s13.3 4.7 18.3 2.7 32.6.5 32.6.5 18.4 8.5 22.4-13.5c0 0 0-12-7-12s-23-2-23-2l-19 5s-10 1-29-7-64.1-43.3-64.1-43.3l-35-20.8z"/><path class="st7" d="m675.5 755.5 65-24s46-21.9 59-30.8c15-10.2 15-24.2 8-31.2s-19-13-42 3-103 66-103 66l-15.6-1.6s-7.4 2.6-14.4-1.4-19 0-19 0-12.2-2.8-14 6c-2 10 2.5 16.3 2.5 16.3s-2.5 4.9 6.5 4.8c9-.1 32-3.1 32-3.1s9-.6 18.5.7c9.5 1.3 16.5-4.7 16.5-4.7z"/><g><path class="st7" d="M187.5 490.2c0 18.1-11.1 32.8-24.8 32.8-10.6 0-19.7-8.9-23.2-21.3-1-3.6-1.6-7.4-1.6-11.4 0-18.1 11.1-32.8 24.8-32.8s24.8 14.7 24.8 32.7z"/><path class="st7" d="M151 513s2 17-10.5 21.5 10.5 24.4 10.5 24.4l30 5.6 11.1-28.9-8.3-3.6s-12.8-13-7.8-27l-25 8z"/><path class="st2" d="M155 552.1c25.8 12.7 28.7-20.1 28.7-20.1s19.8 5.9 29.7 11.5c11.5 6.5 20 29 20 29l6 13-25 15-6-11s-5 17-8 28 12 64 12 64-11 8-43 9-55-11-55-11-1-6 6.2-19.8 5.8-37.2 5.8-37.2l-5.8-33.4-7.2 12.4-24-17 7.1-20c6.1-19 25.9-26 43.9-30L148 546c1.9 2.6 4.2 4.7 7 6.1z"/><path class="st7" d="m113.5 601.5-14 24s16 6 32 4 19-3 21-8 4-17 4-17 1-17 3-21 5 0 5 0v48.7s-3 13.3-22 12.3l-29 5H80.6s-16.1 5-14.1-9 10-38 23-56l24 17zM239.5 585.5l15.8 33.5s8.2 15.5 3.2 25.5c0 0-3.1 7.7-21.1 5.9s-49.9-4.4-49.9-4.4-20-3-23-13.8v-48.7s3-6 5 4 6 34 6 34 3 8 12 8 27-1 27-1l14-3-14-25 25-15z"/><path class="st5" d="M71.8 664s30 9 49.6 18.5 69.6 12.5 91.1-1c0 0 33.8-14.5 50.1-17.5l20.9 34.5-44 36.3S221 751 197 750 94.5 735.5 94.5 735.5s-42.4-31.2-45.4-43.8C46 679 71.8 664 71.8 664z"/><path class="st7" d="M80.5 667.5c-4.1-2.5-8.8-3.9-13.6-4.1-9.4-.4-23 1.7-22.3 18.2 1 25 90 58 90 58l49.7 18.3s13.3 4.7 18.3 2.7 32.6.5 32.6.5 18.4 8.5 22.4-13.5c0 0 0-12-7-12s-23-2-23-2l-19 5s-10 1-29-7-64.1-43.3-64.1-43.3l-35-20.8z"/><path class="st7" d="m156.5 755.5 65-24s46-21.9 59-30.8c15-10.2 15-24.2 8-31.2s-19-13-42 3-103 66-103 66l-15.6-1.6s-7.4 2.6-14.4-1.4-19 0-19 0-12.2-2.8-14 6c-2 10 2.5 16.3 2.5 16.3s-2.5 4.9 6.5 4.8c9-.1 32-3.1 32-3.1s9-.6 18.5.7c9.5 1.3 16.5-4.7 16.5-4.7z"/><path class="st10" d="M156.5 460.5s9 18 20 22 10.3 15.8 10.3 15.8 9.7-11.8 8.7-23.8-7-25-13-28-10-3-10-3 12-13-5-22c0 0-20-5-20 13 0 0-1 4 3 9 0 0-12.1 1.1-17.5 16.1 0 0-6 11.4-2.5 26.9 3.2 14 8.7 13.9 8.7 13.9s-3.2-18.8 2-26.4c5.3-7.5 15.3-13.5 15.3-13.5z"/></g></g><g><path d="M839.3 392s-9.4 117.7 16 164.6l19.6 38.9c9.2-19.8 41.5-87.6 12.4-133.4-28.5-44.9-48-70.1-48-70.1z" style="fill:#9eddc8"/><path class="st12" d="M881.7 695.7s7.1-44.7 14.3-47.3c0 0 50.5-44.9 106-61.8l-51.7 4.7-8.5 12.6v-8.7s-42.3 3.7-48 27.2l-4.8 26.1-7.3 47.2z"/><path class="st13" d="M855.3 633.6s-8.4 14.4-30-16.3c0 0-33.9-16.6-45.2-36.4 0 0 42.6.7 59.8 22.9 0 .1 15.4 13.9 15.4 29.8zM848.6 593.5s-15.6 10.3-24.1-28.4c0 0-.9-8.9-16-16.3-15.1-7.3-32-33.1-28.3-39 0 0 24.4 9.1 46 6.8 0 0 32.3 9.7 33.6 49.3 1.2 39.5-11.2 27.6-11.2 27.6z"/><path class="st13" d="M874.7 565.1s19.2 4.6 18.7-43.4-23.9-100.8-23.9-100.8-9.5-13.9-17.9 5.8-4.8 83-4.8 83-.7 73.4 27.9 55.4zM905.2 603.9s-11.9 4.3-8.3-22.9c3.6-27.3 43.1-64.4 43.1-64.4s18.8-22.1 30.1-19.3c11.2 2.8-44.3 131.4-64.9 106.6z"/><path class="st12" d="M859.7 565.8s17.2-56.5-15.4-98.5-56-55.6-56-55.6-9.9-3-4.5 5.8 30.8 35.2 38.5 74.4 37.4 73.9 37.4 73.9z"/><path class="st13" d="M1002 479.4s-87 33.1-95.2 77.2c0 0 0 12.4-8.8 4.7 0 0-18.5-23.2 12.2-55.4-.1.1 49.5-40.6 91.8-26.5z"/><path class="st14" d="M987 479.4c-5.3 1.4-10.5 3.3-15.5 5.4-5.1 2.1-10 4.4-14.9 7-9.7 5.2-18.9 11.3-27.1 18.6-4.1 3.6-8 7.6-11.6 11.8-3.6 4.2-6.8 8.7-9.7 13.4-2.9 4.7-5.3 9.7-7.3 14.8l-1.5 3.9-1.3 3.9c-.8 2.6-1.7 5.2-2.5 7.9-6 21.1-10.4 42.6-13.7 64.3-3.3 21.7-5.7 43.5-7.1 65.3 1.1-10.9 2.3-21.8 3.7-32.6 1.4-10.9 3-21.7 4.8-32.5.9-5.4 1.9-10.8 2.9-16.2.5-2.7 1.1-5.4 1.6-8 .6-2.7 1-5.4 1.7-8l1.8-8c.6-2.7 1.3-5.3 1.9-8 1.3-5.3 2.8-10.6 4.3-15.8.7-2.6 1.6-5.2 2.4-7.8l1.2-3.9c.4-1.3.9-2.5 1.4-3.8 2-5 4.3-10 7.1-14.6s5.9-9.1 9.5-13.2c3.5-4.1 7.3-8.1 11.3-11.7 8.1-7.3 17.1-13.6 26.6-18.9 9.5-5.5 19.5-10 30-13.3z"/><path class="st12" d="M965.3 458.9s-14.5 12.6-39.9 12.6c-7.7 0-15.1 2.6-21 7.5-13.5 11.3-33 34.1-22.8 66.1l5 20s75-69.3 78.7-106.2z"/><path class="st14" d="M896.9 641.2c3.3-2.5 6.6-4.9 10.1-7.2 3.4-2.4 6.8-4.7 10.2-6.9 6.9-4.5 13.9-8.8 21-12.9l5.4-3 5.5-2.9c1.8-1 3.7-1.9 5.5-2.8l2.8-1.4c.9-.5 1.8-.9 2.8-1.3l5.6-2.5c1.9-.9 3.8-1.6 5.7-2.4 3.8-1.7 7.7-2.8 11.6-4.3-8 2-15.9 4.6-23.5 7.9-7.6 3.3-15.1 6.9-22.2 11.1-7.2 4.1-14.2 8.6-20.9 13.3-6.9 4.7-13.5 9.8-19.6 15.3zM874.7 695.7c-2-8.6-4-17.1-6.1-25.7l-6.3-25.6-6.4-25.6c-2.2-8.5-4.3-17.1-6.5-25.6v.1c-.6-4-1.6-7.7-2.8-11.4-1.2-3.7-2.7-7.3-4.4-10.9-3.4-7-7.6-13.7-12.4-19.8-4.9-6.1-10.4-11.7-16.4-16.6-6-4.9-12.4-9.3-19.2-13.1 6.6 4.1 12.9 8.6 18.7 13.7 5.8 5 11.2 10.7 15.9 16.8 2.4 3 4.5 6.2 6.5 9.5s3.9 6.6 5.5 10.1 3 7 4.2 10.7c1.2 3.6 2.2 7.4 2.6 11.1v.2c2.1 8.5 4.4 17 6.6 25.5l6.6 25.5 6.8 25.5c2.4 8.6 4.7 17.1 7.1 25.6z"/><path class="st14" d="M874.7 699.5c1.2-5.5 1.5-11.1 1.8-16.6.3-5.6.4-11.2.5-16.8.1-11.2-.1-22.3-.4-33.5-.6-22.3-1.9-44.6-3.2-66.9-.7-11.1-1.5-22.3-2.3-33.4-.8-11.1-1.6-22.3-2.6-33.4l-2.9-33.4c-1.1-11.1-2.1-22.2-3.3-33.3l4.8 66.8c1.5 22.3 3.1 44.5 4.5 66.8 1.5 22.3 2.7 44.6 3.6 66.9.5 11.1.8 22.3.9 33.5.1 5.6.1 11.2-.1 16.7 0 1.4-.1 2.8-.2 4.2-.1 1.4-.1 2.8-.2 4.2l-.3 4.2-.6 4zM788.2 417.5c4.4 4.4 8.5 9.1 12.4 13.9 4 4.8 7.7 9.7 11.4 14.7 7.3 10.1 13.9 20.6 19.8 31.5 1.5 2.7 2.9 5.5 4.3 8.3 1.3 2.8 2.7 5.6 3.9 8.4 2.5 5.7 4.8 11.4 6.7 17.3 1 2.9 1.9 5.9 2.8 8.9.8 3 1.6 6 2.3 9 .7 3 1.3 6.1 1.9 9.1l1.8 9.1c4.7 24.4 8.7 48.9 11.6 73.6 1.5 12.3 2.6 24.7 3.2 37.1.3 6.2.4 12.4.3 18.6-.1 6.2-.4 12.4-1.3 18.5l1.6.1c-.4-12.3-1.7-24.6-4.5-36.6-1.4-6-3.1-11.9-5.7-17.6-1.3-2.8-2.8-5.5-4.8-8-1-1.2-2-2.3-3.1-3.5l-3.4-3.2c-4.7-4-9.8-7.4-15.1-10.6-5.3-3.2-10.6-6.1-16-9.1-5.3-3-10.7-6-15.8-9.4-5.1-3.3-10.1-7-14.5-11.2 4.4 4.3 9.3 8 14.4 11.4 5.1 3.4 10.3 6.6 15.6 9.6 5.3 3.1 10.6 6.1 15.8 9.3 5.2 3.2 10.3 6.6 14.8 10.7l3.3 3.2c1 1.1 2 2.3 2.9 3.4 1.8 2.4 3.3 5.1 4.5 7.8 2.5 5.5 4.2 11.4 5.5 17.3 1.3 5.9 2.2 12 2.9 18 .7 6.1 1.1 12.2 1.3 18.2l1.6.1c.9-6.2 1.3-12.5 1.4-18.7.1-6.2 0-12.5-.3-18.7-.6-12.4-1.7-24.9-3.1-37.2-3-24.7-7-49.3-11.8-73.7l-1.9-9.1c-.6-3.1-1.2-6.1-1.9-9.2-.7-3.1-1.6-6-2.4-9.1-.9-3-1.8-6-2.9-8.9-2-5.9-4.4-11.7-6.9-17.4-1.3-2.9-2.6-5.6-4-8.5-1.4-2.8-2.8-5.5-4.4-8.3-3-5.5-6.2-10.8-9.6-16-3.4-5.2-7-10.3-10.7-15.3-3.7-5-7.6-9.9-11.6-14.6-3.7-4.2-7.9-8.8-12.3-13.2z"/><path class="st14" d="M965.3 503.9c-5.6 7.1-10.9 14.3-16.1 21.6-5.2 7.3-10.3 14.8-15.2 22.3-9.8 15.1-18.8 30.8-26.1 47.3-3.5 8.3-6.5 16.8-9.2 25.4a588.688 588.688 0 0 0-18 78.9l1.8-.2c-1.7-5-2.8-10.2-3.7-15.5l-.5-4c-.2-1.3-.3-2.7-.4-4-.3-2.7-.4-5.3-.5-8-.5-10.7-.1-21.5.6-32.2.7-10.7 1.9-21.4 3.3-32.1 1.4-10.7 3.1-21.3 5-31.9 1.8-10.6 3.9-21.2 6.2-31.7l.9-3.9.2-1 .3-.9.6-1.9c.4-1.3.9-2.5 1.4-3.7.6-1.2 1.1-2.4 1.7-3.6 2.4-4.8 5.4-9.2 8.7-13.5 6.6-8.4 14.5-15.8 22.9-22.5 8.4-6.7 17.4-12.7 26.8-17.9-9.5 5.1-18.6 11-27.1 17.5-8.5 6.6-16.6 13.9-23.4 22.3-3.4 4.2-6.4 8.7-8.9 13.6-.6 1.2-1.2 2.4-1.7 3.7-.5 1.3-1 2.5-1.5 3.8l-.6 1.9-.3 1-.2 1-.9 3.9c-2.4 10.5-4.5 21.1-6.5 31.7-2 10.6-3.6 21.2-5.1 31.9-1.4 10.7-2.6 21.4-3.4 32.2-.7 10.8-1.1 21.6-.7 32.4.2 2.7.2 5.4.5 8.1.2 2.7.6 5.4.9 8.1.8 5.4 2 10.7 3.8 15.9l1.2 3.4.5-3.6c1.3-8.9 3-17.7 4.7-26.5 1.8-8.8 3.7-17.6 5.9-26.3 4.4-17.4 9.3-34.7 16.1-51.3 1.9-4.1 3.6-8.2 5.6-12.2 1-2 1.9-4 3-6l3.2-5.9c4.3-7.9 8.9-15.6 13.7-23.2 4.8-7.6 9.7-15.1 14.8-22.5 5.1-7.5 10.3-14.8 15.7-21.9z"/><g><path d="M905.2 691h-60.9s-.7 53.6 10.3 63.9h40.6s9-14.1 10-63.9z" style="fill:#e9a288"/><path style="opacity:.63;fill:#1c1c1a" d="M845 715.7h20.5l27.9-8h-48.8z"/></g></g></svg>