<?xml version="1.0" encoding="utf-8"?>
<!-- Generator: Adobe Illustrator 24.3.0, SVG Export Plug-In . SVG Version: 6.00 Build 0)  -->
<svg version="1.1" id="Layer_1" xmlns="http://www.w3.org/2000/svg" xmlns:xlink="http://www.w3.org/1999/xlink" x="0px" y="0px"
	 viewBox="0 0 917.04 808.72" style="enable-background:new 0 0 917.04 808.72;" xml:space="preserve">
<style type="text/css">
	.st0{fill:#EAD9FA;}
	.st1{fill:#CAA6EE;}
	.st2{fill:#FF4F5B;}
	.st3{fill:#96D9C9;}
	.st4{fill:#FFFFFF;}
	.st5{fill:#3C8F7C;}
	.st6{fill:#252527;}
	.st7{fill:#262626;}
	.st8{fill:#E6E7E8;}
	.st9{fill:#D1D3D4;}
	.st10{opacity:0.76;fill:#FFFFFF;}
	.st11{fill:#FDA819;}
	.st12{fill:#FDAD84;}
	.st13{fill:#182044;}
	.st14{fill:#3270B8;}
	.st15{fill:#141935;}
	.st16{fill:#FFAA00;}
</style>
<g>
	<path class="st0" d="M581.34,706.07c0,0-382.47,264.15-565.45-55.03c0,0-63.45-169.91,120.3-245.58c0,0,115.76-135.52,36.25-119.69
		c0,0-151.58,61.03-137.01-59.1c3.87-31.92,21.93-60.65,49.73-76.82c24.46-14.22,57.44-20.74,91.53,10.04
		c0,0,26.96-104.87,142.78-139.36c0,0,289.52-74.4,365.18,46.67s54.89,172.48,54.89,172.48S925.29,472.19,581.34,706.07z"/>
	<ellipse class="st1" cx="448.45" cy="698.5" rx="338.83" ry="52.26"/>
	<g>
		<g>
			<path class="st2" d="M701.17,561.02l-2.56-1.56c72.96-119.84,98.5-227.16,75.89-318.97c-12.64-51.31-38.45-87.5-57.87-108.82
				c-21.03-23.08-39.25-34.15-39.43-34.26l1.54-2.57c0.19,0.11,18.78,11.4,40.1,34.81c19.66,21.58,45.78,58.2,58.57,110.13
				c10.28,41.75,10.61,87.43,0.98,135.77C766.86,433.39,740.88,495.8,701.17,561.02z"/>
		</g>
		<path class="st2" d="M710.95,542.64c0,0,25.4-33.08,61.75-33.23c8.4-0.03,12.28,10.49,5.83,15.86
			C767.14,534.77,746.23,545.38,710.95,542.64z"/>
		<path class="st2" d="M710.68,543.22c0,0,6.03-41.27-19.21-67.44c-5.83-6.04-16.08-1.49-15.44,6.88
			C677.16,497.44,684.13,519.83,710.68,543.22z"/>
		<path class="st2" d="M735.61,492.58c0,0,25.4-33.08,61.75-33.23c8.4-0.03,12.28,10.49,5.83,15.86
			C791.8,484.7,770.89,495.31,735.61,492.58z"/>
		<path class="st2" d="M735.34,493.16c0,0,6.03-41.27-19.21-67.44c-5.83-6.04-16.08-1.49-15.44,6.88
			C701.82,447.37,708.79,469.76,735.34,493.16z"/>
		<path class="st2" d="M760.27,442.51c0,0,25.4-33.08,61.75-33.23c8.4-0.03,12.28,10.49,5.83,15.86
			C816.46,434.64,795.55,445.24,760.27,442.51z"/>
		<path class="st2" d="M759.99,443.09c0,0,6.03-41.27-19.21-67.44c-5.83-6.04-16.08-1.49-15.44,6.88
			C726.48,397.31,733.44,419.69,759.99,443.09z"/>
		<path class="st2" d="M771.01,383.68c0,0,25.4-33.08,61.75-33.23c8.4-0.03,12.28,10.49,5.83,15.86
			C827.2,375.8,806.29,386.41,771.01,383.68z"/>
		<path class="st2" d="M770.64,388.44c0,0,6.03-41.27-19.21-67.44c-5.83-6.04-16.08-1.49-15.44,6.88
			C737.13,342.66,744.1,365.04,770.64,388.44z"/>
		<path class="st2" d="M782.76,319.23c0,0,9.72-40.56,42.87-55.49c7.66-3.45,15.49,4.58,11.78,12.12
			C830.88,289.15,816.1,307.36,782.76,319.23z"/>
		<path class="st2" d="M781.03,326.17c0,0,6.03-41.27-19.21-67.44c-5.83-6.04-16.08-1.49-15.44,6.88
			C747.52,280.39,754.48,302.78,781.03,326.17z"/>
		<path class="st2" d="M784.07,255.05c0,0-3.56-41.56,23.19-66.18c6.18-5.69,16.14-0.54,15,7.78
			C820.25,211.34,811.96,233.28,784.07,255.05z"/>
		<path class="st2" d="M779.28,259.26c0,0-7.29-41.07-39.49-57.95c-7.44-3.9-15.73,3.65-12.48,11.39
			C733.04,226.38,746.7,245.43,779.28,259.26z"/>
		<path class="st2" d="M764.89,192.66c0,0-16.31-35.78-0.34-66.12c3.69-7,14.17-5.58,15.79,2.17
			C783.2,142.39,782.78,164.49,764.89,192.66z"/>
		<path class="st2" d="M758.93,189.38c0,0-19.47-34.17-53.41-38.97c-7.84-1.11-12.82,8.22-7.48,14.07
			C707.46,174.8,725.62,187.4,758.93,189.38z"/>
		<path class="st2" d="M740.88,152.49c0,0-14.07-30.87-0.29-57.04c3.18-6.04,12.22-4.82,13.62,1.87
			C756.67,109.12,756.31,128.19,740.88,152.49z"/>
		<path class="st2" d="M735.73,149.66c0,0-16.8-29.48-46.08-33.63c-6.76-0.96-11.06,7.09-6.46,12.14
			C691.32,137.08,707,147.95,735.73,149.66z"/>
		<path class="st2" d="M714.17,122.77c0,0-18.22-20.59-13.74-44.14c1.03-5.44,8.33-6.63,11-1.78
			C716.14,85.42,720.38,100.28,714.17,122.77z"/>
		<path class="st2" d="M702.4,111.94c0,0-13.61-23.89-37.34-27.25c-5.48-0.78-8.96,5.75-5.23,9.84
			C666.41,101.75,679.11,110.56,702.4,111.94z"/>
	</g>
	<g>
		<g>
			<path class="st3" d="M733.71,637.3c0,0-76.36-73.26-25.47-106.07c3.49-2.25,14.33-6.14,14.33-6.14s27.32,0.7,24.44,28.85
				c0,0,15.27,36.01,15.14-8.88c0,0-56.52-65.33-11.35-89.72s50.49-14.52,55.25-45.56s19-92.81,40.98-60.52s-6.57,64.05-6.57,64.05
				s-0.88,23.98,20.27,18.1c21.15-5.88,43.03,27.37,10.59,66.23c-32.43,38.86-41.46,18.97-32.43,38.86
				c9.02,19.89,11.94-22.48,43.63-23.98s46.53,7.93,14.8,55.26c-31.72,47.32-103.87,68.54-103.87,68.54l-44.08,33.25L733.71,637.3z"
				/>
			<g>
				<g>
					<line class="st4" x1="750.27" y1="645.41" x2="838.31" y2="357.15"/>
					<path class="st4" d="M750.09,647.12c-0.11-0.01-0.22-0.03-0.33-0.07c-0.91-0.28-1.42-1.23-1.14-2.14l88.04-288.26
						c0.28-0.91,1.24-1.42,2.14-1.14c0.91,0.28,1.42,1.23,1.14,2.14l-88.04,288.26C751.66,646.71,750.89,647.2,750.09,647.12z"/>
				</g>
				<g>
					<line class="st4" x1="765.61" y1="595.19" x2="867.78" y2="547.59"/>
					<path class="st4" d="M765.43,596.9c-0.58-0.06-1.12-0.41-1.38-0.98c-0.4-0.86-0.03-1.88,0.83-2.28l102.17-47.6
						c0.85-0.4,1.88-0.03,2.28,0.83c0.4,0.86,0.03,1.88-0.83,2.28l-102.17,47.6C766.04,596.88,765.73,596.93,765.43,596.9z"/>
				</g>
				<g>
					<line class="st4" x1="767.06" y1="481.72" x2="782.81" y2="538.88"/>
					<path class="st4" d="M782.63,540.58c-0.68-0.07-1.28-0.55-1.48-1.25l-15.75-57.16c-0.25-0.91,0.28-1.86,1.2-2.11
						c0.91-0.25,1.86,0.28,2.11,1.2l15.75,57.16c0.25,0.91-0.28,1.86-1.2,2.11C783.05,540.59,782.84,540.6,782.63,540.58z"/>
				</g>
				<g>
					<line class="st4" x1="803.16" y1="472.22" x2="864.05" y2="445.26"/>
					<path class="st4" d="M802.99,473.93c-0.59-0.06-1.14-0.43-1.39-1.01c-0.38-0.87,0.01-1.88,0.87-2.26l60.88-26.96
						c0.86-0.38,1.88,0.01,2.26,0.87c0.38,0.87-0.01,1.88-0.87,2.26l-60.88,26.96C803.58,473.92,803.28,473.96,802.99,473.93z"/>
				</g>
			</g>
		</g>
		<g>
			<path class="st5" d="M658.98,677.33c0,0-20.52-103.81,39.98-101.49c4.15,0.16,15.26,3.19,15.26,3.19s21.98,16.24,3.47,37.65
				c0,0-8.15,38.26,17.49,1.41c0,0-8.82-85.93,42.18-80c51,5.94,49.68,17.07,71.39-5.63c21.71-22.7,68.8-65.12,68.29-26.07
				c-0.52,39.05-42.13,48.7-42.13,48.7s-14.48,19.14,6.22,26.46s19.54,47.1-29.32,60.32c-48.86,13.22-44.84-8.25-48.86,13.22
				c-4.02,21.47,22.68-11.57,49.49,5.39s33.56,33.19-19.57,53.75c-53.13,20.56-124.39-3.44-124.39-3.44l-55.18,1.94L658.98,677.33z"
				/>
			<g>
				<g>
					<line class="st4" x1="667.88" y1="693.47" x2="905.37" y2="507.87"/>
					<path class="st4" d="M666.76,694.77c-0.08-0.07-0.16-0.15-0.23-0.24c-0.58-0.75-0.45-1.82,0.29-2.41l237.48-185.6
						c0.75-0.58,1.83-0.45,2.41,0.29c0.58,0.75,0.45,1.82-0.29,2.41l-237.48,185.6C668.28,695.33,667.37,695.29,666.76,694.77z"/>
				</g>
				<g>
					<line class="st4" x1="709.26" y1="661.13" x2="820.25" y2="680.76"/>
					<path class="st4" d="M708.14,662.43c-0.44-0.38-0.68-0.98-0.57-1.6c0.16-0.93,1.05-1.55,1.99-1.39l110.99,19.62
						c0.93,0.16,1.55,1.05,1.39,1.99c-0.16,0.93-1.05,1.55-1.99,1.39l-110.99-19.62C708.65,662.77,708.36,662.63,708.14,662.43z"/>
				</g>
				<g>
					<line class="st4" x1="775.54" y1="569.02" x2="755.65" y2="624.88"/>
					<path class="st4" d="M754.53,626.17c-0.52-0.45-0.74-1.19-0.49-1.87l19.89-55.85c0.32-0.89,1.3-1.36,2.19-1.04
						c0.89,0.31,1.36,1.3,1.04,2.19l-19.89,55.85c-0.32,0.89-1.3,1.36-2.19,1.04C754.87,626.42,754.69,626.31,754.53,626.17z"/>
				</g>
				<g>
					<line class="st4" x1="810.57" y1="581.96" x2="875.9" y2="594.8"/>
					<path class="st4" d="M809.44,583.26c-0.45-0.39-0.68-1-0.56-1.63c0.18-0.93,1.08-1.53,2.01-1.35l65.33,12.84
						c0.93,0.18,1.53,1.08,1.35,2.01c-0.18,0.93-1.08,1.53-2.01,1.35l-65.33-12.84C809.93,583.58,809.66,583.44,809.44,583.26z"/>
				</g>
			</g>
		</g>
		<g>
			<path class="st3" d="M664.38,688.67c0,0-76.36-73.26-25.47-106.07c3.49-2.25,14.33-6.14,14.33-6.14s27.32,0.69,24.44,28.85
				c0,0,15.27,36.01,15.14-8.88c0,0-56.52-65.33-11.35-89.72c45.18-24.39,50.49-14.52,55.25-45.56c4.76-31.05,19-92.81,40.98-60.52
				s-6.57,64.05-6.57,64.05s-0.88,23.98,20.27,18.1s43.03,27.37,10.59,66.23c-32.44,38.86-41.46,18.97-32.44,38.86
				c9.02,19.89,11.94-22.48,43.63-23.98c31.69-1.49,46.53,7.93,14.8,55.26s-103.87,68.54-103.87,68.54l-44.08,33.25L664.38,688.67z"
				/>
			<g>
				<g>
					<line class="st4" x1="680.93" y1="696.79" x2="768.98" y2="408.52"/>
					<path class="st4" d="M680.76,698.49c-0.11-0.01-0.22-0.03-0.33-0.07c-0.91-0.28-1.42-1.23-1.14-2.14l88.04-288.26
						c0.28-0.91,1.24-1.42,2.14-1.14c0.91,0.28,1.42,1.23,1.14,2.14l-88.04,288.26C682.33,698.08,681.56,698.57,680.76,698.49z"/>
				</g>
				<g>
					<line class="st4" x1="696.27" y1="646.57" x2="798.44" y2="598.97"/>
					<path class="st4" d="M696.1,648.27c-0.58-0.06-1.12-0.41-1.38-0.98c-0.4-0.86-0.03-1.88,0.83-2.28l102.17-47.6
						c0.85-0.4,1.88-0.03,2.28,0.83c0.4,0.86,0.03,1.88-0.83,2.28L697,648.12C696.71,648.25,696.4,648.3,696.1,648.27z"/>
				</g>
				<g>
					<line class="st4" x1="697.72" y1="533.09" x2="713.47" y2="590.25"/>
					<path class="st4" d="M713.3,591.96c-0.68-0.07-1.28-0.55-1.48-1.25l-15.75-57.16c-0.25-0.91,0.28-1.86,1.2-2.11
						c0.91-0.25,1.86,0.28,2.11,1.2l15.75,57.16c0.25,0.91-0.28,1.86-1.2,2.11C713.72,591.96,713.5,591.98,713.3,591.96z"/>
				</g>
				<g>
					<line class="st4" x1="733.83" y1="523.6" x2="794.71" y2="496.64"/>
					<path class="st4" d="M733.66,525.3c-0.59-0.06-1.14-0.43-1.39-1.01c-0.38-0.87,0.01-1.88,0.87-2.26l60.88-26.96
						c0.86-0.38,1.88,0.01,2.26,0.87c0.38,0.87-0.01,1.88-0.87,2.26l-60.88,26.96C734.24,525.29,733.94,525.33,733.66,525.3z"/>
				</g>
			</g>
		</g>
	</g>
	<g>
		<path class="st6" d="M731.06,589.47H95.44c-13.11,0-23.73-10.63-23.73-23.73V232.11c0-13.11,10.63-23.73,23.73-23.73h635.62
			c13.11,0,23.73,10.63,23.73,23.73v333.63C754.79,578.85,744.17,589.47,731.06,589.47z"/>
		<rect x="93.9" y="220.76" class="st4" width="640.25" height="361.03"/>
		<polygon class="st7" points="361.32,581.79 346.87,677.53 522.28,677.53 505.09,585.35 		"/>
		<path class="st6" d="M567,689.22H296.65v-8.94c0-10.26,8.32-18.57,18.57-18.57h233.2c10.26,0,18.57,8.32,18.57,18.57V689.22z"/>
		<g>
			<path class="st8" d="M302.12,683.53c-0.04-0.12-1.02-2.99,1.15-6.28c3.51-5.32,12.82-8.5,27.68-9.47
				c31.34-2.04,197.25-0.02,198.92,0l-0.04,3c-1.67-0.02-167.46-2.04-198.69,0c-18.19,1.19-23.71,5.6-25.37,8.13
				c-1.31,1.99-0.83,3.61-0.83,3.63L302.12,683.53z"/>
		</g>
		<rect x="93.9" y="220.76" class="st9" width="640.25" height="52.28"/>
		<rect x="234.05" y="279.92" class="st8" width="495.97" height="44.03"/>
		<rect x="234.05" y="331.51" class="st8" width="495.97" height="32.33"/>
		<rect x="97.18" y="284.05" class="st9" width="120.36" height="294.42"/>
		<rect x="234.05" y="374.85" class="st8" width="495.97" height="32.33"/>
		<rect x="234.05" y="418.19" class="st8" width="495.97" height="32.33"/>
		<rect x="234.05" y="461.53" class="st8" width="495.97" height="32.33"/>
		<rect x="234.05" y="504.86" class="st8" width="495.97" height="32.33"/>
		<rect x="234.05" y="548.2" class="st8" width="495.97" height="32.33"/>
		<rect x="130.83" y="258.6" class="st4" width="53.06" height="57.78"/>
		<rect x="104.05" y="328.76" class="st10" width="106.62" height="30.27"/>
		<rect x="104.05" y="371.01" class="st10" width="106.62" height="30.27"/>
		<rect x="104.05" y="417.18" class="st10" width="106.62" height="30.27"/>
		<rect x="104.05" y="462.56" class="st10" width="106.62" height="30.27"/>
		<rect x="104.05" y="507.93" class="st10" width="106.62" height="30.27"/>
		<rect x="104.05" y="550.31" class="st10" width="106.62" height="30.27"/>
	</g>
	<g>
		<path class="st11" d="M103.3,349.91l40.51-11h16.81c0,0,1.63,5.14,5.54,7.09c3.91,1.95,12.37-1.59,12.37-1.59l1.63,29.6
			c0,0-22.8,3.26-23.12,25.4s6.51,39.73,6.51,39.73l10.42,33.22c0,0-67.49,38.24-93.14,10.84c-1.3-1.39,18.24-44.38,9.77-56.1
			c-8.47-11.72-7.49-8.47-7.49-8.47l-0.33,4.88l-31.59-0.33l4.56-52.11c0,0,3.4-10.07,12.45-7.96L103.3,349.91z"/>
		<path class="st12" d="M174.62,348.61c0,0,10.42-4.23,15.96-18.24c5.54-14,3.26-20.19,3.26-20.19s-7.82-13.03-2.61-18.89
			c5.21-5.86,11.07-17.26,11.07-17.26s0,5.21,0,6.19s-2.61,10.42-2.61,10.42s7.16-1.63,8.79,4.56c1.63,6.19-3.26,11.07-4.23,14.33
			s3.26,27.36-1.3,39.08c-4.56,11.72-26.38,22.8-26.38,22.8L174.62,348.61z"/>
		<path class="st12" d="M63.57,418.3v48.52l-2.28,59.6c0,0-10.75,20.19,11.72,29.31c0,0,6.51-3.91,0-7.82
			c-6.51-3.91-7.16-9.12-3.91-11.07c3.26-1.95,4.23,9.12,4.23,9.12s3.26,4.56,4.23-2.93c0.98-7.49-4.56-20.52-4.56-20.52l1.3-29.42
			c0,0,11.72-21.05,9.12-30.5c-2.61-9.44-3.91-46.59-3.91-46.59L63.57,418.3z"/>
		<path class="st12" d="M91.9,575.92c0,0,6.19,14.65,6.19,28.98s1.63,63.83,6.84,76.86c5.21,13.03,10.1,39.08,10.1,39.08h10.42
			c0,0-0.65-47.87,0-56.99c0.65-9.12,0-56.01,0-56.01l1.63-31.91H91.9z"/>
		<path class="st12" d="M133.58,575.92l-2.61,61.87l1.3,79.13l13.35,3.91v-30.61c0,0,18.56-41.03,15.96-55.69l4.23-64.81
			L133.58,575.92z"/>
		<path class="st13" d="M130.98,714.65h14.65c0,0,5.86,5.21,2.77,17.91c0,0,8.96,13.03,7.65,25.73c0,0-8.14,10.42-23.77,7.16
			c0,0-8.47-17.26-5.21-26.7L130.98,714.65z"/>
		<path class="st13" d="M111.44,720.84c0,0,18.56-9.12,20.84-3.91c2.28,5.21-1.3,21.82-1.3,21.82l-19.54,1.62
			c0,0-4.23-13.34,0-14.64S111.44,720.84,111.44,720.84z"/>
		<path class="st14" d="M83.81,479.52c0,0-13.73-1.63-7.87,42.01c0,0,4.23,46.89,10.75,58.29c0,0,61.87,6.19,84.02-5.21
			c0,0,9.77-63.87,6.51-83.07c-3.26-19.19-6.84-23.75-6.84-23.75S134.66,486.36,83.81,479.52z"/>
		<path class="st15" d="M110.79,279.9c0,0-22.8-3.58-25.4,26.38c-2.61,29.96-2.61,30.94-13.35,48.2s-0.33,30.61,3.58,36.15
			l1.63-20.84c0,0,2.28,39.08,6.84,43.96v-23.77c0,0,4.4,4.56,4.97,19.21c0.57,14.65,17.83,28.33,17.83,28.33s-7.49-21.49,1.3-26.38
			s15.63-22.14,15.31-30.61c-0.33-8.47,7.82-1.63,5.21,10.1s-17.26,21.82-13.35,38.43c0,0,5.54-12.7,15.63-22.8
			s12.05-23.45,12.37-32.24c0.33-8.79,0-13.03,0-13.03s4.56,3.58,3.91,14.33c-0.65,10.75-8.79,31.91-8.79,31.91
			s16.28-11.72,13.03-36.8c-3.26-25.08-12.37-42.66-12.37-42.66s-0.98-10.75,0.98-18.89C142.05,300.74,135.86,268.5,110.79,279.9z"
			/>
	</g>
	<path class="st16" d="M768.46,727.43h-135.6c-9.19,0-16.63-7.45-16.63-16.63l0,0c0-9.19,7.45-16.63,16.63-16.63h135.6
		c9.19,0,16.63,7.45,16.63,16.63l0,0C785.09,719.98,777.64,727.43,768.46,727.43z"/>
	<circle class="st0" cx="84.22" cy="124.9" r="12.96"/>
	<circle class="st0" cx="121.3" cy="37.77" r="17.25"/>
	<circle class="st0" cx="186.42" cy="55.01" r="17.25"/>
	<circle class="st0" cx="221.16" cy="15.47" r="12.2"/>
	<circle class="st0" cx="133.04" cy="98.29" r="23.18"/>
</g>
</svg>
