<?xml version="1.0" encoding="utf-8"?>
<!-- Generator: Adobe Illustrator 24.3.0, SVG Export Plug-In . SVG Version: 6.00 Build 0)  -->
<svg version="1.1" id="Layer_1" xmlns="http://www.w3.org/2000/svg" xmlns:xlink="http://www.w3.org/1999/xlink" x="0px" y="0px"
	 viewBox="0 0 956.18 681.74" style="enable-background:new 0 0 956.18 681.74;" xml:space="preserve">
<style type="text/css">
	.st0{opacity:0.22;fill:#8B22E2;}
	.st1{fill:#FFAA00;}
	.st2{fill:none;stroke:#FFFFFF;stroke-miterlimit:10;}
	.st3{fill:#96D9C9;}
	.st4{fill:#3C8F7C;}
	.st5{opacity:0.54;}
	.st6{opacity:0.57;fill:#466EB6;}
	.st7{fill:#343438;}
	.st8{fill:#DFDFF7;}
	.st9{fill:#8B22E2;}
	.st10{fill:#5A1FA0;}
	.st11{fill:#FF4F5B;}
	.st12{fill:#466EB6;}
	.st13{fill:#020202;}
	.st14{fill:#FFFFFF;}
	.st15{fill:#7D7D82;}
	.st16{fill:#F4C362;}
	.st17{opacity:0.27;}
	.st18{fill:#F4BE40;}
	.st19{opacity:0.59;}
	.st20{opacity:0.8;}
	.st21{opacity:0.57;fill:#8B22E2;}
	.st22{fill:#58595B;}
	.st23{fill:#78369A;}
	.st24{opacity:0.56;}
	.st25{fill:#F1F2F2;}
	.st26{opacity:0.6;fill:#FFFFFF;}
	.st27{fill:#F7BEAA;}
	.st28{fill:#373738;}
	.st29{fill:#EA9807;}
	.st30{fill:#355389;}
	.st31{fill:#0F0F0F;}
	.st32{fill:none;stroke:#FFFFFF;stroke-width:8;stroke-miterlimit:10;}
</style>
<g>
	<path class="st0" d="M150.67,333.21c0,0-91.69,29.52-127.05-61.43c0,0-31.01-54.8,50.62-112.24c0,0-20.28-83.81,41.56-113.29
		c0,0,59.02-42.85,107.49,6.38c0,0,88.07-58.7,127.07,1.11c0,0,71.25,40.35,14.78,111.55S150.67,333.21,150.67,333.21z"/>
	<g>
		<g>
			<path class="st1" d="M807.9,464.03c0,0-72.27-93.55,66.01-194.97C873.9,269.06,935.34,407.66,807.9,464.03z"/>
			<line class="st2" x1="814.01" y1="446.26" x2="873.9" y2="269.06"/>
		</g>
		<g>
			<path class="st3" d="M769.36,506.51c0,0-21.92-116.16,147.33-143.75C916.68,362.76,908.51,514.14,769.36,506.51z"/>
			<line class="st2" x1="782.87" y1="493.45" x2="916.68" y2="362.76"/>
		</g>
		<g>
			<path class="st4" d="M771.23,510.79c0,0-91.25-75.16,21.05-204.76C792.27,306.03,882.97,427.51,771.23,510.79z"/>
			<line class="st2" x1="773.24" y1="492.1" x2="792.27" y2="306.03"/>
		</g>
	</g>
	<g>
		<g>
			<path class="st1" d="M122.24,456.92c0,0,64.52-99.05-81.45-189.04C40.79,267.88-9.32,410.96,122.24,456.92z"/>
			<line class="st2" x1="114.72" y1="439.69" x2="40.79" y2="267.88"/>
		</g>
		<g>
			<path class="st3" d="M164.07,496.17c0,0,12.52-117.55-158.39-131.46C5.68,364.71,25.98,514.95,164.07,496.17z"/>
			<line class="st2" x1="149.55" y1="484.23" x2="5.68" y2="364.71"/>
		</g>
		<g>
			<path class="st4" d="M162.55,500.58c0,0,84.92-82.24-37.42-202.41C125.13,298.17,44.48,426.55,162.55,500.58z"/>
			<line class="st2" x1="159.04" y1="482.12" x2="125.13" y2="298.17"/>
		</g>
	</g>
	<g class="st5">
		<path class="st6" d="M844.74,89.89l-1.83-9.29c-0.49-2.47-2.5-4.34-4.99-4.64l-23.33-2.9c-4.36-9.3-10.14-17.46-16.99-24.36
			l2.54-26.21c0.33-3.34-1.36-6.55-4.28-8.18l-8.27-4.61c-2.2-1.22-4.93-0.91-6.77,0.79l-18.21,16.74
			c-8.74-2.83-17.94-4.28-27.25-4.24L721.88,3.62c-1.91-2.75-5.27-4.11-8.55-3.45L704.04,2c-2.47,0.49-4.35,2.5-4.65,4.99
			l-3.17,25.55c-8.26,4.21-15.57,9.57-21.84,15.8l-26.58-5.18c-2.46-0.49-4.96,0.67-6.2,2.87l-4.63,8.26
			c-1.63,2.92-1.39,6.54,0.63,9.21l15.27,20.19c-2.32,7.31-3.67,14.93-4,22.66l-25.19,16.14c-2.11,1.36-3.11,3.92-2.49,6.35
			l2.36,9.17c0.83,3.24,3.5,5.69,6.81,6.22l27.54,4.47c3.6,7.26,8.06,13.82,13.25,19.58l-4.03,25.91c-0.51,3.31,0.99,6.6,3.81,8.4
			l8,5.09c2.12,1.35,4.86,1.18,6.81-0.41l19.38-15.86c8.99,3.4,18.53,5.29,28.24,5.57l14.19,20.43c1.91,2.75,5.28,4.11,8.56,3.45
			l9.29-1.83c2.47-0.49,4.34-2.5,4.64-4.99l3.17-25.48c8.69-4.13,16.39-9.52,22.97-15.86l26.43,1.54c3.34,0.2,6.48-1.61,8-4.59
			l4.29-8.44c1.14-2.24,0.71-4.96-1.05-6.75l-15.82-15.95c3.02-8.73,4.69-17.94,4.84-27.28l18.44-12.81
			C844.04,96.53,845.4,93.17,844.74,89.89z M750.19,141.32c-17.28,7.94-37.74,0.36-45.68-16.92c-7.94-17.28-0.36-37.73,16.92-45.68
			c17.28-7.94,37.73-0.36,45.68,16.92C775.05,112.92,767.47,133.38,750.19,141.32z"/>
	</g>
	<g>
		<path class="st7" d="M733.02,480.36H176.49c-8.1,0-14.68-6.57-14.68-14.68V108.6c0-8.1,6.57-14.68,14.68-14.68h556.53
			c8.1,0,14.68,6.57,14.68,14.68v357.08C747.7,473.79,741.13,480.36,733.02,480.36z"/>
		<rect x="177.4" y="111.38" class="st8" width="556.8" height="331.59"/>
	</g>
	<path class="st9" d="M267.77,43.03c0,0-48.82-0.42-40.51,68.35l-0.95,185.12c0,0-4.24,43.63,49.78,44.67h113.23
		c0,0,45.71,3.12,47.78-46.75V99.12c0,0-6.23-47.78,38.44-56.1L267.77,43.03z"/>
	<path class="st10" d="M516.04,93.93c0,0,5.19-39.47-40.51-50.9c0,0-39.91,5.19-39.17,50.9H516.04z"/>
	<path class="st11" d="M647.19,412.84h-90.9c-11.9,0-21.55-9.65-21.55-21.55V373.1c0-11.9,9.65-21.55,21.55-21.55h90.9
		c11.9,0,21.55,9.65,21.55,21.55v18.18C668.75,403.19,659.1,412.84,647.19,412.84z"/>
	<g>
		<rect x="494.23" y="208.2" class="st12" width="210.88" height="127.07"/>
		<rect x="494.23" y="231.05" class="st13" width="210.88" height="20.78"/>
		<g>
			<path class="st14" d="M585.12,299.84h-73.09c-1.56,0-2.83-1.27-2.83-2.83s1.27-2.83,2.83-2.83h73.09c1.56,0,2.83,1.27,2.83,2.83
				S586.69,299.84,585.12,299.84z"/>
		</g>
		<g>
			<path class="st14" d="M684.33,299.84h-71.68c-1.56,0-2.83-1.27-2.83-2.83s1.27-2.83,2.83-2.83h71.68c1.56,0,2.83,1.27,2.83,2.83
				S685.89,299.84,684.33,299.84z"/>
		</g>
		<g>
			<path class="st14" d="M586.61,315.43h-73.09c-1.56,0-2.83-1.27-2.83-2.83s1.27-2.83,2.83-2.83h73.09c1.56,0,2.83,1.27,2.83,2.83
				S588.17,315.43,586.61,315.43z"/>
		</g>
		<g>
			<path class="st14" d="M685.81,315.43h-71.68c-1.56,0-2.83-1.27-2.83-2.83s1.27-2.83,2.83-2.83h71.68c1.56,0,2.83,1.27,2.83,2.83
				S687.38,315.43,685.81,315.43z"/>
		</g>
	</g>
	<g>
		<path class="st7" d="M836.47,528.15H74.08c-10.64,0-19.26-8.62-19.26-19.26v-11.9h800.91v11.9
			C855.73,519.52,847.11,528.15,836.47,528.15z"/>
		<polygon class="st15" points="173.24,473.09 54.82,496.98 855.73,496.98 721.73,473.09 		"/>
	</g>
	<g>
		<g>
			<path class="st16" d="M139.03,470.25v14.77c0,0,20.57,9.83,50.82,7.5c1.61-0.12,3.23-0.22,4.84-0.23
				c8.58-0.09,32.47,3.13,52.21-7.26l-1.13-14.77H139.03z"/>
			<g class="st17">
				
					<rect x="211.27" y="480.19" transform="matrix(0.9883 -0.1525 0.1525 0.9883 -71.0045 40.5276)" class="st14" width="34.7" height="5.66"/>
			</g>
			<ellipse class="st18" cx="192.4" cy="470.25" rx="53.37" ry="6.62"/>
		</g>
		<g>
			<path class="st16" d="M138.46,452.23V467c0,0,20.57,9.83,50.82,7.5c1.61-0.12,3.23-0.22,4.84-0.23
				c8.58-0.09,32.47,3.13,52.21-7.26l-1.13-14.77H138.46z"/>
			<g class="st17">
				
					<rect x="210.71" y="462.17" transform="matrix(0.9883 -0.1525 0.1525 0.9883 -68.2624 40.2303)" class="st14" width="34.7" height="5.66"/>
			</g>
			<ellipse class="st18" cx="191.83" cy="452.23" rx="53.37" ry="6.62"/>
		</g>
		<g>
			<path class="st16" d="M137.33,432.7v14.77c0,0,20.57,9.83,50.82,7.5c1.61-0.12,3.23-0.22,4.84-0.23
				c8.58-0.09,32.47,3.13,52.21-7.26l-1.13-14.77H137.33z"/>
			<g class="st17">
				
					<rect x="209.58" y="442.64" transform="matrix(0.9883 -0.1525 0.1525 0.9883 -65.2965 39.829)" class="st14" width="34.7" height="5.66"/>
			</g>
			<ellipse class="st18" cx="190.7" cy="432.7" rx="53.37" ry="6.62"/>
		</g>
		<g>
			<path class="st16" d="M130.36,414.17v14.77c0,0,20.57,9.83,50.82,7.5c1.61-0.12,3.23-0.22,4.84-0.23
				c8.58-0.09,32.47,3.13,52.21-7.26l-1.13-14.77H130.36z"/>
			<g class="st17">
				
					<rect x="202.6" y="424.1" transform="matrix(0.9883 -0.1525 0.1525 0.9883 -62.5509 38.5485)" class="st14" width="34.7" height="5.66"/>
			</g>
			<ellipse class="st18" cx="183.73" cy="414.17" rx="53.37" ry="6.62"/>
		</g>
		<g>
			<path class="st16" d="M116.59,395.15v14.77c0,0,20.57,9.83,50.82,7.5c1.61-0.12,3.23-0.22,4.84-0.23
				c8.58-0.09,32.47,3.13,52.21-7.26l-1.13-14.77H116.59z"/>
			<g class="st17">
				
					<rect x="188.84" y="405.09" transform="matrix(0.9883 -0.1525 0.1525 0.9883 -59.8112 36.2264)" class="st14" width="34.7" height="5.66"/>
			</g>
			<ellipse class="st18" cx="169.97" cy="395.15" rx="53.37" ry="6.62"/>
		</g>
		<g>
			<g>
				<circle class="st18" cx="267.57" cy="440.7" r="47.56"/>
				<circle class="st16" cx="267.57" cy="440.7" r="43.77"/>
			</g>
			<g class="st19">
				<path class="st14" d="M266.75,407.54h6.61V413c5.34,0.5,9.95,2.54,13.86,6.09l-7.29,9.08c-2.65-2.23-4.88-3.62-6.69-4.18v11.51
					c10.11,3.08,15.17,8.79,15.17,17.12c0,4.19-1.29,7.72-3.86,10.59c-2.57,2.87-6.37,4.75-11.39,5.65v6.93h-6.49v-6.85h-1.08
					c-2.44,0-5.3-0.69-8.56-2.07c-3.27-1.38-5.8-3.15-7.61-5.3l6.97-8.72c2.95,3.05,6.37,4.96,10.27,5.73v-13.38
					c-4.83-1.22-8.51-3.34-11.05-6.37c-2.54-3.03-3.8-6.53-3.8-10.51c0-4.22,1.23-7.78,3.68-10.69c2.45-2.91,6.2-4.48,11.25-4.72
					V407.54z M266.67,433.46v-9.8c-2.47,0.85-3.7,2.43-3.7,4.74C262.96,430.9,264.2,432.59,266.67,433.46z M273.24,447.56v10.35
					c2.73-0.69,4.1-2.4,4.1-5.14C277.34,450.28,275.97,448.54,273.24,447.56z"/>
			</g>
		</g>
	</g>
	<g class="st20">
		<path class="st21" d="M948.84,214.72l-11.17-6.91c-0.05-5.73-1.07-11.23-2.94-16.34l7.4-12.71c0.94-1.62,0.84-3.64-0.27-5.16
			l-3.12-4.27c-0.83-1.14-2.29-1.61-3.63-1.17l-13.14,4.25c-3.78-3.48-8.11-6.36-12.85-8.5l-2.32-12.99
			c-0.33-1.84-1.72-3.31-3.54-3.75l-5.14-1.24c-1.36-0.33-2.79,0.25-3.53,1.46l-7.57,12.23c-5.18,0.21-10.14,1.23-14.77,2.93
			l-12.29-8.83c-1.15-0.82-2.68-0.82-3.82,0.01l-4.28,3.11c-1.51,1.1-2.23,2.99-1.83,4.82l3.04,13.82
			c-2.88,3.17-5.34,6.73-7.31,10.58l-16.55,2.32c-1.39,0.19-2.5,1.26-2.75,2.64l-0.95,5.21c-0.34,1.84,0.45,3.7,2,4.75l12.94,8.7
			c0.14,4.53,0.87,8.9,2.16,13.03l-8.1,12.22c-1.03,1.56-1.05,3.58-0.03,5.16l2.87,4.44c0.76,1.18,2.19,1.74,3.55,1.38l13.54-3.52
			c3.77,3.81,8.17,7,13.03,9.41l2.44,13.68c0.33,1.85,1.72,3.32,3.54,3.76l5.15,1.23c1.36,0.33,2.78-0.25,3.53-1.45l7.55-12.2
			c5.38-0.07,10.54-1.02,15.36-2.7l13.05,6.96c1.66,0.87,3.67,0.69,5.14-0.46l4.15-3.28c1.1-0.87,1.52-2.36,1.04-3.67l-4.31-11.79
			c3.57-3.73,6.57-8.01,8.81-12.73l12.36-2.21c1.84-0.33,3.31-1.71,3.75-3.53l1.24-5.15C950.62,216.88,950.04,215.46,948.84,214.72z
			 M889.05,227.44c-10.62,0-19.25-8.61-19.25-19.25c0-10.62,8.62-19.24,19.25-19.24c10.63,0,19.25,8.61,19.25,19.24
			C908.3,218.83,899.68,227.44,889.05,227.44z"/>
	</g>
	<g>
		<circle class="st11" cx="521.98" cy="158.37" r="37.7"/>
		<g>
			<circle class="st22" cx="521.98" cy="136.36" r="7.67"/>
			<path class="st22" d="M506.69,160.25c0-8.44,6.84-15.28,15.28-15.28s15.28,6.84,15.28,15.28"/>
		</g>
		<g>
			<line class="st23" x1="500.98" y1="168.2" x2="545.13" y2="168.2"/>
			<path class="st14" d="M545.13,170.47h-44.15c-1.25,0-2.27-1.01-2.27-2.27c0-1.25,1.01-2.27,2.27-2.27h44.15
				c1.25,0,2.27,1.01,2.27,2.27C547.4,169.45,546.38,170.47,545.13,170.47z"/>
		</g>
		<g>
			<line class="st23" x1="506.69" y1="178.59" x2="537.26" y2="178.59"/>
			<path class="st14" d="M537.26,180.86h-30.57c-1.25,0-2.27-1.01-2.27-2.27c0-1.25,1.01-2.27,2.27-2.27h30.57
				c1.25,0,2.27,1.01,2.27,2.27C539.53,179.84,538.51,180.86,537.26,180.86z"/>
		</g>
		<g>
			<line class="st23" x1="514.3" y1="187.42" x2="529.65" y2="187.42"/>
			<path class="st14" d="M529.65,189.69H514.3c-1.25,0-2.27-1.01-2.27-2.27s1.01-2.27,2.27-2.27h15.35c1.25,0,2.27,1.01,2.27,2.27
				S530.9,189.69,529.65,189.69z"/>
		</g>
	</g>
	<g>
		<path class="st14" d="M688.65,171.03H571.1c-1.56,0-2.83-1.27-2.83-2.83s1.27-2.83,2.83-2.83h117.54c1.56,0,2.83,1.27,2.83,2.83
			S690.21,171.03,688.65,171.03z"/>
	</g>
	<g>
		<path class="st14" d="M606.42,187.99H571.1c-1.56,0-2.83-1.27-2.83-2.83s1.27-2.83,2.83-2.83h35.32c1.56,0,2.83,1.27,2.83,2.83
			S607.98,187.99,606.42,187.99z"/>
	</g>
	<g>
		<path class="st14" d="M681.21,187.99h-51.34c-1.56,0-2.83-1.27-2.83-2.83s1.27-2.83,2.83-2.83h51.34c1.56,0,2.83,1.27,2.83,2.83
			S682.78,187.99,681.21,187.99z"/>
	</g>
	<g class="st24">
		<path class="st14" d="M709.26,462.38h-53.72c-1.56,0-2.83-1.27-2.83-2.83s1.27-2.83,2.83-2.83h53.72c1.56,0,2.83,1.27,2.83,2.83
			S710.83,462.38,709.26,462.38z"/>
	</g>
	<polygon class="st25" points="557.08,382.19 531.63,528.15 497.34,483.02 444.37,538.54 420.21,518.02 399.7,500.62 453.16,441.67 
		403.85,413.36 555.77,382.45 	"/>
	<polygon class="st26" points="555.77,382.45 420.21,518.02 399.7,500.62 453.16,441.67 403.85,413.36 	"/>
	<ellipse class="st27" cx="382.81" cy="375.96" rx="15.76" ry="21.99"/>
	<path class="st28" d="M396.93,363.32c0,0,6.75-6.06,0-10.04h-4.85c0,0-7.96-3.81-13.33-3.46c-5.37,0.35-14.02,3.61-16.1,6.74
		s-4.33,8.67-1.9,15.77l6.31,20.43c0,0,3.04-9.52,7.71-10.56c0,0-0.69-12.64,6.23-14.72S396.93,363.32,396.93,363.32z"/>
	<path class="st27" d="M384.02,394.83l-2.34,21.12l-23.12-12.81c0,0,10.75-14.37,11.61-15.93S384.02,394.83,384.02,394.83z"/>
	<path class="st1" d="M365.07,393.97c0,0,15.41,5.54,20.08,10.21l1.21,35.32l4.85,64.92l-48.48,1.73c0,0-1.04-21.12,0-35.15
		c0,0-1.62-22.68-0.46-34.63c0,0,3.18-22.29,14.14-33.41C367.38,391.85,365.07,393.97,365.07,393.97z"/>
	<path class="st29" d="M359.69,442.96l-9.86-19.3c0,0,4.16-20.18,18.87-8.93l11.43,21.64L359.69,442.96z"/>
	<path class="st27" d="M359.69,440.7l17.15,29.45c0,0,4.33,11.25,14.37,12.81c10.04,1.56,42.24,6.93,42.24,6.93
		s7.96,6.58,14.02,2.08c0,0,4.16-6.06-11.08-7.79c0,0-27.18-11.95-38.44-12.81c0,0-14.2-33.54-22.51-37.89L359.69,440.7z"/>
	<path class="st30" d="M389.14,501.83l16.45,64.92c0,0,5.54,16.97,2.94,28.05l-10.04,64.23l-13.85,5.19l-2.25-69.25
		c0,0,0.35-14.02-4.16-18.18C373.73,572.64,389.14,501.83,389.14,501.83z"/>
	<path class="st31" d="M303.61,636.7c0,0-10.04,7.27-5.71,10.56c4.33,3.29,29.78,11.25,29.78,11.25s3.81-3.46,0-6.41
		s-14.58-14.2-14.58-14.2L303.61,636.7z"/>
	<path class="st31" d="M387.06,660.77c0,0-3.98,13.5,0.69,13.33s27.53,0,27.53,0s3.64-3.64-5.19-6.67
		c-8.83-3.03-13.99-7.5-13.99-7.5l-1.42-1.42L387.06,660.77z"/>
	<g>
		<line class="st32" x1="252.88" y1="154.52" x2="407.32" y2="154.52"/>
		<line class="st32" x1="252.88" y1="178.59" x2="314.17" y2="178.59"/>
		<line class="st32" x1="330.1" y1="178.59" x2="407.32" y2="178.59"/>
		<line class="st32" x1="252.88" y1="203" x2="407.32" y2="203"/>
		<line class="st32" x1="252.88" y1="226.89" x2="355.38" y2="226.89"/>
		<line class="st32" x1="370.61" y1="226.89" x2="408.7" y2="226.89"/>
		<line class="st32" x1="252.88" y1="250.09" x2="407.32" y2="250.09"/>
		<line class="st32" x1="252.88" y1="274.33" x2="294.43" y2="274.33"/>
		<line class="st32" x1="314.17" y1="274.33" x2="407.32" y2="274.33"/>
		<g>
			<path class="st14" d="M276.15,80.1c2.58-0.54,6.66-0.95,10.8-0.95c5.91,0,9.72,1.02,12.57,3.33c2.38,1.77,3.81,4.48,3.81,8.09
				c0,4.42-2.92,8.29-7.75,10.06v0.14c4.35,1.09,9.44,4.69,9.44,11.48c0,3.94-1.56,6.93-3.87,9.17c-3.19,2.92-8.36,4.28-15.83,4.28
				c-4.08,0-7.2-0.27-9.17-0.54V80.1z M282.06,98.86h5.37c6.25,0,9.92-3.26,9.92-7.68c0-5.37-4.08-7.47-10.06-7.47
				c-2.72,0-4.28,0.2-5.23,0.41V98.86z M282.06,120.81c1.15,0.2,2.85,0.27,4.96,0.27c6.12,0,11.76-2.24,11.76-8.9
				c0-6.25-5.37-8.83-11.82-8.83h-4.89V120.81z"/>
			<path class="st14" d="M318.89,79.49v45.8h-5.91v-45.8H318.89z"/>
			<path class="st14" d="M329.22,79.49h5.91v40.84h19.57v4.96h-25.48V79.49z"/>
			<path class="st14" d="M361.29,79.49h5.91v40.84h19.57v4.96h-25.48V79.49z"/>
		</g>
		<g>
			<path class="st14" d="M302.68,302.49h-0.06l-3.43,1.85l-0.52-2.03l4.31-2.31h2.28v19.73h-2.58V302.49z"/>
			<path class="st14" d="M325.57,309.65c0,6.71-2.49,10.41-6.86,10.41c-3.85,0-6.46-3.61-6.53-10.14c0-6.62,2.85-10.26,6.86-10.26
				C323.2,299.66,325.57,303.37,325.57,309.65z M314.86,309.95c0,5.13,1.58,8.04,4.01,8.04c2.73,0,4.04-3.19,4.04-8.22
				c0-4.86-1.24-8.04-4.01-8.04C316.55,301.73,314.86,304.58,314.86,309.95z"/>
			<path class="st14" d="M341.14,309.65c0,6.71-2.49,10.41-6.86,10.41c-3.85,0-6.46-3.61-6.52-10.14c0-6.62,2.85-10.26,6.86-10.26
				C338.77,299.66,341.14,303.37,341.14,309.65z M330.43,309.95c0,5.13,1.58,8.04,4.01,8.04c2.73,0,4.04-3.19,4.04-8.22
				c0-4.86-1.24-8.04-4.01-8.04C332.13,301.73,330.43,304.58,330.43,309.95z"/>
			<path class="st14" d="M348.85,322.33v-3.07c-1.76-0.03-3.58-0.58-4.64-1.34l0.73-2.03c1.09,0.73,2.67,1.3,4.37,1.3
				c2.15,0,3.61-1.24,3.61-2.97c0-1.67-1.18-2.7-3.43-3.61c-3.1-1.21-5.01-2.61-5.01-5.25c0-2.52,1.79-4.43,4.58-4.89v-3.06h1.88
				v2.94c1.82,0.06,3.06,0.55,3.95,1.06l-0.76,2c-0.64-0.36-1.88-1.03-3.82-1.03c-2.34,0-3.22,1.4-3.22,2.61
				c0,1.58,1.12,2.37,3.76,3.46c3.13,1.27,4.7,2.85,4.7,5.55c0,2.4-1.67,4.64-4.79,5.16v3.16H348.85z"/>
		</g>
	</g>
	
		<ellipse transform="matrix(0.9601 -0.2795 0.2795 0.9601 -92.1073 119.0343)" class="st27" cx="371.29" cy="382.45" rx="3.41" ry="4.76"/>
	<path class="st12" d="M343.95,500.79c0,0-2.6,12.81,1.21,30.3l7.96,30.47c0,0,7.97,21.81-5.02,25.28
		c-12.99,3.46-46.92,51.42-46.92,51.42l15.06,3.29l27.87-22.51l29.78-22.68c0,0,12.81-13.33,11.43-29.95l5.62-65.62H343.95z"/>
	<g>
		<path class="st14" d="M564.27,361.49c2.54-0.42,5.87-0.79,10.1-0.79c5.2,0,9.01,1.21,11.43,3.39c2.24,1.94,3.57,4.9,3.57,8.53
			c0,3.69-1.09,6.59-3.15,8.71c-2.78,2.96-7.32,4.48-12.46,4.48c-1.57,0-3.02-0.06-4.23-0.36v16.33h-5.26V361.49z M569.53,381.15
			c1.15,0.3,2.6,0.42,4.36,0.42c6.35,0,10.22-3.08,10.22-8.71c0-5.38-3.81-7.98-9.62-7.98c-2.3,0-4.05,0.18-4.96,0.42V381.15z"/>
		<path class="st14" d="M597.97,388.95l-4.23,12.82h-5.44L602.14,361h6.35l13.91,40.77h-5.63l-4.35-12.82H597.97z M611.33,384.84
			l-3.99-11.74c-0.91-2.66-1.51-5.08-2.12-7.44h-0.12c-0.61,2.42-1.27,4.9-2.06,7.38l-3.99,11.8H611.33z"/>
		<path class="st14" d="M632.69,401.77v-17.3L619.81,361h5.99l5.75,11.25c1.57,3.09,2.78,5.57,4.05,8.41h0.12
			c1.15-2.66,2.54-5.32,4.11-8.41l5.87-11.25h5.99l-13.67,23.41v17.36H632.69z"/>
	</g>
</g>
</svg>
