<?xml version="1.0" encoding="utf-8"?>
<!-- Generator: Adobe Illustrator 24.3.0, SVG Export Plug-In . SVG Version: 6.00 Build 0)  -->
<svg version="1.1" id="Layer_1" xmlns="http://www.w3.org/2000/svg" xmlns:xlink="http://www.w3.org/1999/xlink" x="0px" y="0px"
	 viewBox="0 0 1000 671" style="enable-background:new 0 0 1000 671;" xml:space="preserve">
<style type="text/css">
	.st0{opacity:0.58;fill:#CFB5F6;}
	.st1{opacity:0.41;fill:#CFB5F6;}
	.st2{fill:#CFB5F6;}
	.st3{fill:#FFFFFF;}
	.st4{opacity:0.5;}
	.st5{fill:#B3B3B3;}
	.st6{fill:#CCCCCC;}
	.st7{fill:#FCC09E;}
	.st8{opacity:0.18;fill:#1A2D37;}
	.st9{fill:#1A2D37;}
	.st10{fill:#FFAC02;}
	.st11{fill:#FFFFFF;stroke:#CCCCCC;stroke-miterlimit:10;}
	.st12{fill:#1A2E33;}
	.st13{fill:#FF4D54;}
	.st14{opacity:0.19;}
	.st15{fill:#0A0A0A;}
	.st16{fill:#FFBF9C;}
	.st17{fill:#EFB395;}
	.st18{fill:#4570AD;}
	.st19{opacity:0.13;}
	.st20{fill:#111111;}
	.st21{fill:#FFBE9E;}
	.st22{fill:#F4B295;}
	.st23{fill:#C88977;}
	.st24{fill:#E6E6E6;}
	.st25{fill:#BA7B6C;}
	.st26{fill:#999999;}
	.st27{fill:#FA5964;}
</style>
<g>
	<path class="st0" d="M105,656c0,0-120.03-147.41-88.26-266.46c18.66-69.94,70.02-115.87,109.22-141.87
		c23.35-15.49,49.85-32.55,77.51-37.05C252.91,202.58,332.88,151.25,412,97C517,25,818,0,820.2,210.5c0,0,7.25,122.72,46.78,195.36
		C906.5,478.5,970.5,582.5,905,656H105z"/>
	<path class="st1" d="M157,629c0,0-124.56-147.29-93.26-266.46C82,293,112,257,177.95,217.68c24.07-14.35,46.05-16.68,77.51-27.05
		C303.04,174.93,387.74,143.99,450,71C537-31,849-45,872.2,183.5c0,0,7.25,122.72,46.78,195.36C958.5,451.5,1022.5,555.5,957,629
		H157z"/>
	<path class="st2" d="M143,649c0,0-120.03-147.41-88.26-266.46c18.66-69.94,70.02-115.87,109.22-141.87
		c23.35-15.49,49.85-25.55,77.51-30.05C290.91,202.58,377.59,167.1,436,91C502,5,835-25,858.2,203.5c0,0,7.25,122.72,46.78,195.36
		C944.5,471.5,1008.5,575.5,943,649H143z"/>
	<g>
		<path class="st3" d="M174.3,543.15c-0.54,0-0.98-0.43-1-0.97c-0.02-0.55,0.41-1.01,0.97-1.03c1.2-0.04,2.42-0.1,3.66-0.18
			c1.38-0.09,2.8-0.24,4.2-0.44c0.54-0.08,1.05,0.3,1.13,0.84c0.08,0.55-0.3,1.05-0.84,1.13c-1.45,0.21-2.92,0.37-4.36,0.46
			c-1.26,0.08-2.5,0.14-3.72,0.18C174.33,543.15,174.31,543.15,174.3,543.15z M166.31,543.13c-0.01,0-0.03,0-0.04,0
			c-2.73-0.11-5.44-0.33-8.04-0.66c-0.55-0.07-0.94-0.57-0.87-1.12c0.07-0.55,0.57-0.93,1.12-0.87c2.55,0.32,5.19,0.54,7.87,0.65
			c0.55,0.02,0.98,0.49,0.96,1.04C167.29,542.71,166.85,543.13,166.31,543.13z M150.5,541.09c-0.07,0-0.15-0.01-0.22-0.02
			c-2.66-0.6-5.28-1.35-7.78-2.21c-0.52-0.18-0.8-0.75-0.62-1.27c0.18-0.52,0.75-0.8,1.27-0.62c2.43,0.84,4.98,1.56,7.57,2.15
			c0.54,0.12,0.88,0.66,0.75,1.2C151.37,540.78,150.96,541.09,150.5,541.09z M190.06,540.82c-0.43,0-0.83-0.29-0.96-0.72
			c-0.15-0.53,0.15-1.08,0.68-1.24c2.43-0.7,4.92-1.57,7.41-2.6c0.51-0.21,1.1,0.03,1.31,0.54c0.21,0.51-0.03,1.1-0.54,1.31
			c-2.56,1.05-5.12,1.95-7.62,2.67C190.24,540.8,190.15,540.82,190.06,540.82z M135.45,535.87c-0.15,0-0.3-0.03-0.44-0.1
			c-2.44-1.18-4.81-2.52-7.05-3.99c-0.46-0.3-0.59-0.92-0.29-1.38s0.92-0.59,1.38-0.29c2.17,1.42,4.47,2.72,6.83,3.87
			c0.5,0.24,0.7,0.84,0.46,1.34C136.18,535.67,135.82,535.87,135.45,535.87z M204.79,534.79c-0.36,0-0.71-0.19-0.89-0.54
			c-0.26-0.49-0.07-1.09,0.42-1.35c2.25-1.18,4.56-2.51,6.86-3.95c0.47-0.29,1.08-0.15,1.38,0.32c0.29,0.47,0.15,1.09-0.32,1.38
			c-2.34,1.46-4.69,2.82-6.99,4.02C205.1,534.76,204.94,534.79,204.79,534.79z M122.12,527.17c-0.23,0-0.46-0.08-0.65-0.24
			c-2.03-1.74-4-3.63-5.83-5.64c-0.37-0.41-0.34-1.04,0.06-1.41c0.41-0.37,1.04-0.34,1.41,0.06c1.78,1.94,3.68,3.78,5.65,5.46
			c0.42,0.36,0.47,0.99,0.11,1.41C122.68,527.05,122.4,527.17,122.12,527.17z M218.35,526.36c-0.31,0-0.62-0.15-0.81-0.42
			c-0.32-0.45-0.22-1.07,0.23-1.4c2.08-1.49,4.21-3.1,6.34-4.8c0.43-0.34,1.06-0.27,1.41,0.16s0.27,1.06-0.16,1.41
			c-2.15,1.72-4.31,3.35-6.42,4.86C218.75,526.3,218.55,526.36,218.35,526.36z M230.87,516.4c-0.28,0-0.56-0.12-0.75-0.34
			c-0.36-0.42-0.32-1.05,0.1-1.41c1.94-1.7,3.93-3.5,5.9-5.36c0.4-0.38,1.03-0.36,1.41,0.04c0.38,0.4,0.36,1.03-0.04,1.41
			c-1.99,1.88-3.99,3.69-5.95,5.41C231.33,516.32,231.1,516.4,230.87,516.4z M111.34,515.41c-0.31,0-0.62-0.14-0.81-0.42
			c-1.55-2.15-3.02-4.44-4.38-6.81c-0.27-0.48-0.11-1.09,0.37-1.37c0.48-0.27,1.09-0.11,1.36,0.37c1.32,2.31,2.76,4.55,4.27,6.64
			c0.32,0.45,0.22,1.07-0.23,1.4C111.75,515.35,111.54,515.41,111.34,515.41z M242.53,505.42c-0.25,0-0.51-0.1-0.7-0.29
			c-0.39-0.39-0.39-1.02,0-1.42c1.83-1.84,3.69-3.77,5.54-5.74c0.38-0.4,1.01-0.42,1.41-0.05c0.4,0.38,0.42,1.01,0.05,1.41
			c-1.86,1.99-3.74,3.93-5.58,5.79C243.04,505.33,242.78,505.42,242.53,505.42z M103.37,501.57c-0.38,0-0.74-0.22-0.91-0.59
			c-1.09-2.39-2.11-4.91-3.03-7.49c-0.19-0.52,0.08-1.09,0.6-1.28c0.52-0.19,1.09,0.08,1.28,0.6c0.91,2.53,1.91,5,2.97,7.34
			c0.23,0.5,0.01,1.1-0.5,1.32C103.65,501.54,103.51,501.57,103.37,501.57z M253.48,493.75c-0.24,0-0.47-0.08-0.66-0.25
			c-0.41-0.37-0.45-1-0.08-1.41c1.73-1.95,3.5-3.97,5.24-6.03c0.36-0.42,0.99-0.47,1.41-0.11c0.42,0.36,0.47,0.99,0.11,1.41
			c-1.75,2.06-3.53,4.1-5.27,6.06C254.03,493.63,253.76,493.75,253.48,493.75z M97.95,486.52c-0.44,0-0.84-0.29-0.96-0.73
			c-0.7-2.53-1.35-5.17-1.91-7.84c-0.11-0.54,0.23-1.07,0.77-1.18c0.54-0.11,1.07,0.23,1.18,0.77c0.55,2.63,1.18,5.23,1.88,7.72
			c0.15,0.53-0.16,1.08-0.7,1.23C98.13,486.51,98.04,486.52,97.95,486.52z M263.86,481.55c-0.22,0-0.45-0.07-0.63-0.22
			c-0.43-0.35-0.49-0.98-0.14-1.41c1.66-2.04,3.34-4.14,4.99-6.24c0.34-0.44,0.97-0.51,1.4-0.17c0.43,0.34,0.51,0.97,0.17,1.4
			c-1.66,2.11-3.35,4.22-5.01,6.27C264.44,481.42,264.15,481.55,263.86,481.55z M94.65,470.85c-0.49,0-0.91-0.36-0.99-0.85
			c-0.39-2.62-0.72-5.32-0.97-8.01c-0.05-0.55,0.35-1.04,0.9-1.09c0.55-0.07,1.04,0.35,1.09,0.9c0.25,2.65,0.57,5.31,0.96,7.9
			c0.08,0.55-0.3,1.05-0.84,1.14C94.75,470.85,94.7,470.85,94.65,470.85z M273.75,468.95c-0.21,0-0.42-0.07-0.6-0.2
			c-0.44-0.33-0.53-0.96-0.19-1.4c1.6-2.11,3.19-4.25,4.78-6.41c0.33-0.44,0.95-0.54,1.4-0.21c0.45,0.33,0.54,0.95,0.21,1.4
			c-1.59,2.17-3.19,4.31-4.8,6.43C274.35,468.81,274.06,468.95,273.75,468.95z M283.23,456.04c-0.2,0-0.4-0.06-0.58-0.19
			c-0.45-0.32-0.55-0.95-0.23-1.39c1.54-2.16,3.07-4.34,4.6-6.54c0.32-0.45,0.94-0.57,1.39-0.25c0.45,0.31,0.57,0.94,0.25,1.39
			c-1.53,2.21-3.07,4.4-4.61,6.57C283.85,455.89,283.55,456.04,283.23,456.04z M93.14,454.9c-0.53,0-0.98-0.42-1-0.96
			c-0.09-2.11-0.13-4.22-0.13-6.28c0-0.63,0-1.22,0.01-1.78c0.01-0.55,0.5-0.98,1.01-0.99c0.55,0.01,0.99,0.46,0.99,1.01
			c-0.01,0.55-0.01,1.14-0.01,1.76c0,2.03,0.04,4.12,0.13,6.2c0.02,0.55-0.41,1.02-0.96,1.04C93.17,454.9,93.16,454.9,93.14,454.9z
			 M292.36,442.87c-0.19,0-0.39-0.06-0.56-0.17c-0.46-0.31-0.58-0.93-0.27-1.39c1.49-2.21,2.97-4.42,4.44-6.66
			c0.3-0.46,0.92-0.59,1.39-0.29c0.46,0.3,0.59,0.92,0.29,1.38c-1.47,2.24-2.96,4.46-4.45,6.67
			C293,442.71,292.68,442.87,292.36,442.87z M301.17,429.49c-0.19,0-0.37-0.05-0.54-0.16c-0.46-0.3-0.6-0.92-0.3-1.38
			c1.44-2.24,2.87-4.49,4.3-6.75c0.29-0.47,0.91-0.61,1.38-0.31c0.47,0.29,0.61,0.91,0.31,1.38c-1.42,2.26-2.86,4.52-4.31,6.77
			C301.82,429.33,301.5,429.49,301.17,429.49z M309.71,415.92c-0.18,0-0.36-0.05-0.52-0.15c-0.47-0.29-0.62-0.91-0.33-1.38
			c1.4-2.27,2.79-4.55,4.17-6.82c0.29-0.47,0.9-0.63,1.37-0.34c0.47,0.29,0.62,0.9,0.34,1.37c-1.38,2.28-2.77,4.56-4.17,6.84
			C310.38,415.75,310.05,415.92,309.71,415.92z M317.98,402.24c-0.17,0-0.35-0.04-0.51-0.14c-0.48-0.28-0.63-0.9-0.35-1.37
			c1.37-2.3,2.72-4.6,4.05-6.9c0.28-0.48,0.89-0.64,1.37-0.36c0.48,0.28,0.64,0.89,0.36,1.37c-1.34,2.3-2.69,4.61-4.06,6.91
			C318.66,402.06,318.33,402.24,317.98,402.24z M326.04,388.39c-0.17,0-0.34-0.04-0.5-0.13c-0.48-0.27-0.65-0.89-0.37-1.36
			c1.33-2.33,2.65-4.65,3.95-6.96c0.27-0.48,0.88-0.65,1.36-0.38c0.48,0.27,0.65,0.88,0.38,1.36c-1.3,2.32-2.62,4.64-3.96,6.98
			C326.73,388.21,326.39,388.39,326.04,388.39z M333.9,374.42c-0.16,0-0.33-0.04-0.48-0.12c-0.48-0.27-0.66-0.88-0.39-1.36
			c1.3-2.35,2.58-4.69,3.85-7.02c0.26-0.49,0.87-0.66,1.36-0.4c0.49,0.26,0.66,0.87,0.4,1.36c-1.27,2.33-2.55,4.67-3.86,7.03
			C334.59,374.24,334.25,374.42,333.9,374.42z M341.56,360.35c-0.16,0-0.32-0.04-0.47-0.12c-0.49-0.26-0.67-0.87-0.41-1.35
			c1.27-2.38,2.53-4.74,3.76-7.07c0.26-0.49,0.86-0.68,1.35-0.42c0.49,0.26,0.68,0.86,0.42,1.35c-1.23,2.34-2.49,4.7-3.77,7.08
			C342.26,360.16,341.92,360.35,341.56,360.35z M349.04,346.17c-0.16,0-0.31-0.04-0.46-0.11c-0.49-0.25-0.68-0.86-0.43-1.35
			c1.25-2.4,2.47-4.78,3.67-7.12c0.25-0.49,0.86-0.69,1.35-0.43c0.49,0.25,0.69,0.85,0.43,1.35c-1.2,2.34-2.43,4.72-3.68,7.13
			C349.75,345.98,349.4,346.17,349.04,346.17z M356.35,331.91c-0.15,0-0.31-0.03-0.45-0.11c-0.49-0.25-0.69-0.85-0.44-1.34
			c1.23-2.43,2.42-4.82,3.59-7.16c0.25-0.49,0.84-0.7,1.34-0.45c0.49,0.25,0.7,0.85,0.45,1.34c-1.17,2.35-2.37,4.74-3.6,7.17
			C357.07,331.71,356.71,331.91,356.35,331.91z M363.49,317.55c-0.15,0-0.3-0.03-0.44-0.1c-0.5-0.24-0.7-0.84-0.46-1.34
			c1.21-2.47,2.38-4.87,3.51-7.2c0.24-0.5,0.84-0.7,1.34-0.46c0.5,0.24,0.71,0.84,0.46,1.34c-1.13,2.34-2.3,4.75-3.51,7.21
			C364.22,317.35,363.86,317.55,363.49,317.55z M370.48,303.11c-0.14,0-0.29-0.03-0.43-0.1c-0.5-0.24-0.71-0.83-0.47-1.33
			c1.2-2.52,2.35-4.94,3.43-7.25c0.23-0.5,0.83-0.72,1.33-0.48c0.5,0.23,0.71,0.83,0.48,1.33c-1.09,2.31-2.23,4.74-3.43,7.26
			C371.21,302.9,370.85,303.11,370.48,303.11z M377.3,288.58c-0.14,0-0.28-0.03-0.42-0.09c-0.5-0.23-0.72-0.83-0.49-1.33
			c1.22-2.64,2.34-5.08,3.34-7.3c0.23-0.5,0.82-0.73,1.32-0.5c0.5,0.23,0.73,0.82,0.5,1.32c-1.01,2.22-2.13,4.67-3.35,7.31
			C378.04,288.36,377.68,288.58,377.3,288.58z M383.95,273.93c-0.14,0-0.27-0.03-0.41-0.09c-0.5-0.22-0.73-0.81-0.51-1.32
			c2.12-4.77,3.24-7.41,3.25-7.41c0.22-0.51,0.8-0.75,1.31-0.53c0.51,0.22,0.74,0.8,0.53,1.31c0,0-1.13,2.65-3.26,7.44
			C384.69,273.71,384.33,273.93,383.95,273.93z"/>
	</g>
	<g class="st4">
		<rect x="84" y="320" transform="matrix(0.883 -0.4694 0.4694 0.883 -170.5563 115.8047)" class="st5" width="126" height="160"/>
		
			<rect x="86.36" y="323" transform="matrix(0.883 -0.4694 0.4694 0.883 -170.5563 115.8047)" class="st3" width="121.28" height="154"/>
		<path class="st6" d="M133.25,320.1l-1.33-2.68l-2.64-5.3l-17.3,9.72c0.01-0.12,0.02-0.23,0.02-0.34c0-5.25-4.25-9.5-9.5-9.5
			s-9.5,4.25-9.5,9.5c0,3.56,1.96,6.65,4.85,8.28L85,337l2.13,4.22l1.35,2.68l2.28,4.52l44.71-23.86L133.25,320.1z M97,321
			c0-2.76,2.24-5,5-5s5,2.24,5,5s-2.24,5-5,5S97,323.76,97,321z"/>
		<g>
			<g>
				
					<rect x="69.11" y="350.71" transform="matrix(0.8791 -0.4767 0.4767 0.8791 -152.6572 100.616)" class="st6" width="105.78" height="1"/>
			</g>
			<g>
				
					<rect x="72.11" y="357.71" transform="matrix(0.8791 -0.4767 0.4767 0.8791 -155.6311 102.8924)" class="st6" width="105.78" height="1"/>
			</g>
			<g>
				
					<rect x="75.11" y="364.71" transform="matrix(0.8791 -0.4767 0.4767 0.8791 -158.605 105.1687)" class="st6" width="105.78" height="1"/>
			</g>
			<g>
				
					<rect x="79.11" y="371.71" transform="matrix(0.8791 -0.4767 0.4767 0.8791 -161.458 107.9218)" class="st6" width="105.78" height="1"/>
			</g>
			<g>
				
					<rect x="82.11" y="378.71" transform="matrix(0.8791 -0.4767 0.4767 0.8791 -164.4319 110.1981)" class="st6" width="105.78" height="1"/>
			</g>
			<g>
				
					<rect x="86.11" y="385.71" transform="matrix(0.8791 -0.4767 0.4767 0.8791 -167.2848 112.9512)" class="st6" width="105.78" height="1"/>
			</g>
			<g>
				
					<rect x="89.11" y="392.71" transform="matrix(0.8791 -0.4767 0.4767 0.8791 -170.2587 115.2275)" class="st6" width="105.78" height="1"/>
			</g>
			<g>
				
					<rect x="92.11" y="399.71" transform="matrix(0.8791 -0.4767 0.4767 0.8791 -173.2326 117.5039)" class="st6" width="105.78" height="1"/>
			</g>
			<g>
				
					<rect x="96.11" y="406.71" transform="matrix(0.8791 -0.4767 0.4767 0.8791 -176.0856 120.257)" class="st6" width="105.78" height="1"/>
			</g>
			<g>
				
					<rect x="99.11" y="413.71" transform="matrix(0.8791 -0.4767 0.4767 0.8791 -179.0595 122.5333)" class="st6" width="105.78" height="1"/>
			</g>
			<g>
				
					<rect x="104.11" y="419.71" transform="matrix(0.8791 -0.4767 0.4767 0.8791 -181.3149 125.6421)" class="st6" width="105.78" height="1"/>
			</g>
			<g>
				
					<rect x="107.11" y="426.71" transform="matrix(0.8791 -0.4767 0.4767 0.8791 -184.2888 127.9185)" class="st6" width="105.78" height="1"/>
			</g>
			<g>
				
					<rect x="110.11" y="433.71" transform="matrix(0.8791 -0.4767 0.4767 0.8791 -187.2626 130.1948)" class="st6" width="105.78" height="1"/>
			</g>
			<g>
				
					<rect x="114.11" y="440.71" transform="matrix(0.8791 -0.4767 0.4767 0.8791 -190.1156 132.9479)" class="st6" width="105.78" height="1"/>
			</g>
			<g>
				
					<rect x="117.11" y="447.71" transform="matrix(0.8791 -0.4767 0.4767 0.8791 -193.0895 135.2242)" class="st6" width="105.78" height="1"/>
			</g>
		</g>
	</g>
	<g>
		<path class="st3" d="M734.66,577.93c-0.37,0-0.72-0.2-0.9-0.56c-0.24-0.5-0.04-1.09,0.45-1.34c0.01,0,0.19-0.09,0.53-0.27
			c0.49-0.26,1.09-0.07,1.35,0.42c0.26,0.49,0.07,1.09-0.42,1.35c-0.38,0.2-0.57,0.29-0.57,0.29
			C734.96,577.9,734.81,577.93,734.66,577.93z M742.17,573.61c-0.33,0-0.66-0.17-0.85-0.47c-0.29-0.47-0.15-1.09,0.32-1.38
			c2.17-1.35,4.41-2.82,6.66-4.38c0.45-0.31,1.08-0.2,1.39,0.26c0.31,0.45,0.2,1.08-0.26,1.39c-2.28,1.57-4.55,3.06-6.74,4.43
			C742.53,573.57,742.35,573.61,742.17,573.61z M755.37,564.53c-0.3,0-0.6-0.14-0.8-0.4c-0.33-0.44-0.24-1.07,0.2-1.4
			c2.1-1.58,4.22-3.23,6.29-4.91c0.43-0.35,1.06-0.28,1.41,0.15c0.35,0.43,0.28,1.06-0.15,1.41c-2.09,1.69-4.23,3.36-6.34,4.95
			C755.79,564.46,755.58,564.53,755.37,564.53z M767.82,554.45c-0.28,0-0.56-0.12-0.75-0.34c-0.36-0.42-0.32-1.05,0.1-1.41
			c2-1.74,4-3.54,5.93-5.33c0.41-0.38,1.04-0.35,1.41,0.05c0.38,0.4,0.35,1.04-0.05,1.41c-1.95,1.81-3.96,3.62-5.98,5.38
			C768.29,554.37,768.05,554.45,767.82,554.45z M779.55,543.55c-0.26,0-0.51-0.1-0.71-0.29c-0.39-0.39-0.39-1.03,0-1.41
			c1.88-1.86,3.75-3.79,5.56-5.71c0.38-0.4,1.01-0.42,1.41-0.04c0.4,0.38,0.42,1.01,0.04,1.41c-1.83,1.94-3.72,3.88-5.61,5.76
			C780.06,543.45,779.8,543.55,779.55,543.55z M790.53,531.9c-0.24,0-0.47-0.08-0.66-0.25c-0.41-0.37-0.45-1-0.09-1.41
			c1.74-1.96,3.48-4,5.19-6.05c0.35-0.42,0.98-0.48,1.41-0.13c0.42,0.35,0.48,0.98,0.13,1.41c-1.72,2.07-3.48,4.12-5.23,6.1
			C791.08,531.79,790.8,531.9,790.53,531.9z M800.75,519.59c-0.21,0-0.43-0.07-0.61-0.21c-0.44-0.34-0.51-0.97-0.17-1.4
			c1.61-2.07,3.23-4.21,4.8-6.36c0.33-0.44,0.95-0.54,1.4-0.22s0.54,0.95,0.22,1.4c-1.58,2.17-3.21,4.33-4.84,6.41
			C801.34,519.46,801.05,519.59,800.75,519.59z M810.19,506.67c-0.19,0-0.39-0.06-0.56-0.17c-0.46-0.31-0.57-0.93-0.26-1.39
			c1.49-2.18,2.97-4.42,4.4-6.65c0.3-0.47,0.92-0.6,1.38-0.3c0.46,0.3,0.6,0.92,0.3,1.38c-1.44,2.24-2.93,4.5-4.43,6.69
			C810.82,506.52,810.51,506.67,810.19,506.67z M818.82,493.2c-0.17,0-0.35-0.05-0.51-0.14c-0.47-0.28-0.63-0.9-0.34-1.37
			c1.36-2.26,2.7-4.58,3.99-6.9c0.27-0.48,0.88-0.65,1.36-0.38c0.48,0.27,0.65,0.88,0.38,1.36c-1.3,2.33-2.66,4.67-4.02,6.95
			C819.49,493.03,819.16,493.2,818.82,493.2z M826.63,479.25c-0.16,0-0.31-0.04-0.46-0.11c-0.49-0.25-0.68-0.86-0.42-1.35
			c1.22-2.35,2.43-4.74,3.58-7.12c0.24-0.5,0.84-0.71,1.34-0.46c0.5,0.24,0.7,0.84,0.46,1.34c-1.16,2.4-2.38,4.81-3.61,7.17
			C827.34,479.05,827,479.25,826.63,479.25z M833.61,464.86c-0.14,0-0.28-0.03-0.41-0.09c-0.5-0.23-0.73-0.82-0.5-1.32
			c1.08-2.4,2.15-4.86,3.17-7.31c0.21-0.51,0.8-0.75,1.31-0.54c0.51,0.21,0.75,0.8,0.54,1.31c-1.03,2.47-2.1,4.95-3.19,7.37
			C834.36,464.64,834,464.86,833.61,464.86z M839.77,450.09c-0.12,0-0.24-0.02-0.36-0.07c-0.52-0.2-0.77-0.78-0.58-1.29
			c0.94-2.45,1.87-4.96,2.75-7.48c0.18-0.52,0.75-0.79,1.28-0.61c0.52,0.18,0.79,0.75,0.61,1.28c-0.89,2.53-1.83,5.06-2.77,7.53
			C840.55,449.85,840.17,450.09,839.77,450.09z M845.09,435.01c-0.1,0-0.21-0.02-0.31-0.05c-0.53-0.17-0.81-0.73-0.65-1.26
			c0.82-2.53,1.61-5.09,2.35-7.62c0.16-0.53,0.7-0.84,1.24-0.68c0.53,0.16,0.83,0.71,0.68,1.24c-0.75,2.54-1.54,5.12-2.36,7.67
			C845.91,434.74,845.51,435.01,845.09,435.01z M849.6,419.67c-0.09,0-0.17-0.01-0.26-0.03c-0.53-0.14-0.85-0.69-0.71-1.22
			c0.67-2.52,1.33-5.12,1.95-7.73c0.13-0.54,0.67-0.86,1.21-0.74c0.54,0.13,0.87,0.67,0.74,1.21c-0.63,2.62-1.29,5.24-1.96,7.78
			C850.45,419.38,850.04,419.67,849.6,419.67z M853.32,404.12c-0.07,0-0.14-0.01-0.21-0.02c-0.54-0.11-0.88-0.65-0.77-1.19
			c0.55-2.58,1.07-5.21,1.56-7.82c0.1-0.54,0.62-0.9,1.17-0.8c0.54,0.1,0.9,0.62,0.8,1.17c-0.49,2.63-1.02,5.27-1.57,7.86
			C854.2,403.79,853.78,404.12,853.32,404.12z M856.27,388.4c-0.05,0-0.11,0-0.16-0.01c-0.54-0.09-0.92-0.6-0.83-1.15
			c0.42-2.58,0.82-5.24,1.19-7.88c0.08-0.55,0.58-0.93,1.13-0.85c0.55,0.08,0.93,0.58,0.85,1.13c-0.37,2.66-0.77,5.33-1.2,7.93
			C857.17,388.05,856.75,388.4,856.27,388.4z M858.48,372.56c-0.04,0-0.08,0-0.12-0.01c-0.55-0.06-0.94-0.56-0.88-1.11
			c0.3-2.61,0.59-5.28,0.83-7.93c0.05-0.55,0.53-0.95,1.09-0.9c0.55,0.05,0.95,0.54,0.9,1.09c-0.25,2.66-0.53,5.34-0.84,7.97
			C859.41,372.19,858.98,372.56,858.48,372.56z M859.98,356.64c-0.02,0-0.05,0-0.07,0c-0.55-0.04-0.96-0.52-0.92-1.07
			c0.19-2.61,0.36-5.29,0.49-7.96c0.03-0.55,0.51-0.98,1.05-0.95c0.55,0.03,0.98,0.5,0.95,1.05c-0.14,2.68-0.31,5.37-0.5,8
			C860.94,356.24,860.5,356.64,859.98,356.64z M860.8,340.67c-0.01,0-0.02,0-0.03,0c-0.55-0.02-0.99-0.48-0.97-1.03
			c0.06-2.02,0.11-4.05,0.15-6.1c0.01-0.63,0.02-1.25,0.02-1.88c0-0.55,0.45-0.99,1-0.99c0,0,0.01,0,0.01,0
			c0.55,0.01,1,0.46,0.99,1.01c-0.01,0.63-0.01,1.26-0.02,1.89c-0.03,2.06-0.08,4.1-0.15,6.12
			C861.79,340.24,861.34,340.67,860.8,340.67z M860.94,324.68c-0.54,0-0.99-0.44-1-0.98c-0.05-2.67-0.14-5.35-0.26-7.96
			c-0.03-0.55,0.4-1.02,0.95-1.05c0.53-0.01,1.02,0.4,1.05,0.95c0.13,2.64,0.22,5.34,0.27,8.02c0.01,0.55-0.43,1.01-0.98,1.02
			C860.95,324.68,860.95,324.68,860.94,324.68z M860.17,308.7c-0.52,0-0.95-0.4-1-0.92c-0.21-2.67-0.47-5.33-0.76-7.92
			c-0.06-0.55,0.33-1.04,0.88-1.1c0.56-0.06,1.04,0.33,1.11,0.88c0.29,2.61,0.55,5.3,0.76,7.99c0.04,0.55-0.37,1.03-0.92,1.08
			C860.22,308.7,860.2,308.7,860.17,308.7z M858.39,292.82c-0.49,0-0.92-0.36-0.99-0.86c-0.38-2.62-0.82-5.26-1.29-7.85
			c-0.1-0.54,0.26-1.06,0.8-1.16c0.54-0.1,1.06,0.26,1.16,0.8c0.48,2.61,0.92,5.28,1.3,7.92c0.08,0.55-0.3,1.05-0.84,1.13
			C858.48,292.82,858.43,292.82,858.39,292.82z M855.51,277.11c-0.46,0-0.87-0.32-0.98-0.78c-0.57-2.59-1.2-5.19-1.86-7.73
			c-0.14-0.53,0.18-1.08,0.71-1.22c0.53-0.14,1.08,0.18,1.22,0.71c0.67,2.56,1.3,5.19,1.88,7.8c0.12,0.54-0.22,1.07-0.76,1.19
			C855.66,277.1,855.58,277.11,855.51,277.11z M851.47,261.65c-0.43,0-0.83-0.28-0.96-0.71c-0.77-2.54-1.61-5.09-2.47-7.55
			c-0.18-0.52,0.09-1.09,0.61-1.27c0.52-0.18,1.09,0.09,1.27,0.61c0.87,2.49,1.71,5.06,2.5,7.63c0.16,0.53-0.14,1.09-0.67,1.25
			C851.66,261.64,851.56,261.65,851.47,261.65z M846.19,246.57c-0.4,0-0.77-0.24-0.93-0.63c-0.98-2.46-2.02-4.92-3.1-7.32
			c-0.23-0.5,0-1.1,0.5-1.32c0.5-0.23,1.1,0,1.32,0.5c1.09,2.43,2.14,4.91,3.13,7.4c0.21,0.51-0.05,1.09-0.56,1.3
			C846.43,246.55,846.31,246.57,846.19,246.57z M839.64,232c-0.37,0-0.72-0.2-0.89-0.55c-1.19-2.37-2.45-4.73-3.73-7.02
			c-0.27-0.48-0.1-1.09,0.38-1.36c0.49-0.27,1.09-0.1,1.36,0.38c1.3,2.31,2.57,4.7,3.77,7.09c0.25,0.49,0.05,1.09-0.44,1.34
			C839.94,231.97,839.79,232,839.64,232z M831.82,218.06c-0.33,0-0.66-0.17-0.85-0.47c-1.39-2.24-2.86-4.48-4.35-6.65
			c-0.31-0.46-0.2-1.08,0.26-1.39c0.46-0.31,1.08-0.2,1.39,0.26c1.51,2.2,2.99,4.46,4.4,6.73c0.29,0.47,0.15,1.09-0.32,1.38
			C832.19,218.02,832,218.06,831.82,218.06z M822.78,204.89c-0.3,0-0.6-0.14-0.8-0.4c-1.59-2.1-3.25-4.2-4.94-6.23
			c-0.35-0.43-0.29-1.06,0.13-1.41c0.43-0.35,1.06-0.29,1.41,0.13c1.71,2.06,3.38,4.17,4.99,6.3c0.33,0.44,0.25,1.07-0.19,1.4
			C823.2,204.83,822.99,204.89,822.78,204.89z M812.57,192.59c-0.27,0-0.54-0.11-0.74-0.33c-1.77-1.94-3.61-3.88-5.48-5.76
			c-0.39-0.39-0.39-1.02,0-1.41c0.39-0.39,1.02-0.39,1.41,0c1.89,1.9,3.75,3.86,5.54,5.83c0.37,0.41,0.34,1.04-0.07,1.41
			C813.05,192.51,812.81,192.59,812.57,192.59z M801.3,181.25c-0.24,0-0.49-0.09-0.68-0.27c-1.93-1.78-3.93-3.55-5.96-5.27
			c-0.42-0.36-0.47-0.99-0.12-1.41c0.36-0.42,0.99-0.47,1.41-0.12c2.05,1.73,4.08,3.53,6.03,5.32c0.41,0.37,0.43,1.01,0.06,1.41
			C801.84,181.14,801.57,181.25,801.3,181.25z M789.09,170.91c-0.21,0-0.43-0.07-0.61-0.21c-2.08-1.62-4.23-3.22-6.38-4.76
			c-0.45-0.32-0.55-0.95-0.23-1.4c0.32-0.45,0.95-0.55,1.39-0.23c2.18,1.56,4.35,3.17,6.45,4.81c0.44,0.34,0.52,0.97,0.18,1.4
			C789.69,170.78,789.39,170.91,789.09,170.91z M776.07,161.61c-0.19,0-0.38-0.05-0.55-0.16c-2.2-1.44-4.47-2.87-6.74-4.24
			c-0.47-0.29-0.63-0.9-0.34-1.37c0.28-0.47,0.9-0.63,1.37-0.34c2.3,1.39,4.59,2.83,6.81,4.28c0.46,0.3,0.59,0.92,0.29,1.38
			C776.72,161.45,776.4,161.61,776.07,161.61z M762.36,153.35c-0.16,0-0.33-0.04-0.48-0.12c-2.3-1.27-4.67-2.52-7.05-3.72
			c-0.49-0.25-0.69-0.85-0.44-1.34c0.25-0.49,0.85-0.69,1.34-0.44c2.4,1.21,4.79,2.47,7.11,3.76c0.48,0.27,0.66,0.88,0.39,1.36
			C763.05,153.16,762.71,153.35,762.36,153.35z M748.06,146.13c-0.14,0-0.28-0.03-0.42-0.09c-2.39-1.1-4.85-2.18-7.3-3.21
			c-0.51-0.21-0.75-0.8-0.54-1.31c0.21-0.51,0.8-0.75,1.31-0.54c2.47,1.04,4.95,2.13,7.37,3.24c0.5,0.23,0.72,0.83,0.49,1.33
			C748.8,145.91,748.44,146.13,748.06,146.13z M733.29,139.93c-0.12,0-0.24-0.02-0.35-0.07c-2.49-0.94-5.02-1.85-7.51-2.7
			c-0.52-0.18-0.8-0.75-0.63-1.27c0.18-0.52,0.75-0.8,1.27-0.62c2.52,0.86,5.07,1.77,7.58,2.72c0.52,0.2,0.78,0.77,0.58,1.29
			C734.07,139.69,733.69,139.93,733.29,139.93z M718.1,134.78c-0.09,0-0.19-0.01-0.29-0.04c-2.57-0.77-5.16-1.5-7.69-2.16
			c-0.54-0.14-0.86-0.69-0.72-1.22c0.14-0.54,0.69-0.85,1.22-0.72c2.56,0.67,5.17,1.4,7.76,2.18c0.53,0.16,0.83,0.72,0.67,1.25
			C718.93,134.5,718.53,134.78,718.1,134.78z M702.57,130.74c-0.07,0-0.14-0.01-0.21-0.02c-4.93-1.07-7.83-1.46-7.86-1.47
			c-0.55-0.07-0.93-0.58-0.86-1.12c0.07-0.55,0.57-0.93,1.12-0.86c0.12,0.02,3,0.41,8.01,1.5c0.54,0.12,0.88,0.65,0.77,1.19
			C703.44,130.42,703.03,130.74,702.57,130.74z"/>
	</g>
	<g>
		<polygon class="st7" points="326,380 265.32,394 261.81,375.31 258,355 314.49,306 317.87,327.71 323.81,365.92 		"/>
		
			<ellipse transform="matrix(0.0493 -0.9988 0.9988 0.0493 -44.7033 565.2719)" class="st8" cx="274.58" cy="306.12" rx="63.85" ry="46"/>
		
			<ellipse transform="matrix(0.102 -0.9948 0.9948 0.102 -53.8618 542.5722)" class="st7" cx="273.58" cy="301.12" rx="63.85" ry="46"/>
		<path class="st9" d="M258,246.6c0,0-27.83,4.64-24.41,54.52C237,351,245,355,255.65,361.37C275.03,372.96,278,377,278,377
			s-29,0-40-13c-6.82-8.06-12.7-28.43-16.18-42.74c-2.14-8.78-1.92-17.94,0.53-26.63c2.01-7.12,4.15-17.12,4.65-28.62
			c0,0-0.45-11.8,12.78-19.4c0,0,6.22-34.6,30.22-32.6s27,16,31,17s30,6,36,22s2.18,14.97,10.09,23.48s3.34,17.75,4.13,24.63
			C352,308,361,305,355,324s-9.97,26-9.97,26l3.97,10c0,0,10.33,1.68,22.17,22.84c0,0,28.83-8.84,29.83,21.16l-8.5,11.5
			c0,0,0.5-14.4-69.5-40.95l0.5-14.05l-0.5-1.77c0,0-9,4.27-13.27-21.37c0,0-6.96-12.83-2.38-24.34c2.7-6.78,1.24-14.5-3.32-20.2
			c-2.2-2.76-4.89-5.6-8.09-8.14c-3.01-2.39-4.72-6.05-4.75-9.9c-0.04-5.95-2.09-14.54-12.69-18.28C261.5,250.5,258,246.6,258,246.6
			z"/>
		<polygon class="st10" points="258,371.17 323,367.04 323,383.5 325.76,653 221.2,653 237.03,397.5 254.22,386.5 		"/>
		<path class="st3" d="M249.41,382.84L238.4,649.5h-39.9l-8.25-131.12l6.25-78.88c0,0-2.1-34,21.95-45.5
			S249.41,382.84,249.41,382.84z"/>
		<path class="st3" d="M395.93,431.64V649.5h-80.48l-13.95-155L323,370.42c0,0,0.95,0.51,2.63,1.4
			c9.89,5.26,44.88,24.01,56.73,31.89C396.22,412.91,395.93,431.64,395.93,431.64z"/>
		<path class="st11" d="M331.98,407.47l4.99,22.37l-34.7,64.94l19.96-124.34c0,0,0.96,0.5,2.65,1.37l21.04,21.92L331.98,407.47z"/>
		<path class="st11" d="M233.96,416.29l-10.06,20.59l18.61,71.23l9.56-125.57c0,0-1.05,0.26-2.89,0.71l-25.57,16.41L233.96,416.29z"
			/>
		<g>
			<path class="st12" d="M221.2,560.19c-0.38,0-0.77-0.15-1.06-0.44c-0.58-0.59-0.58-1.54,0-2.12l48.84-48.73
				c0.59-0.59,1.54-0.59,2.12,0c0.58,0.59,0.58,1.54,0,2.12l-48.84,48.73C221.97,560.05,221.59,560.19,221.2,560.19z"/>
		</g>
		<path class="st7" d="M283.11,558.9l-15.61-4.4c0,0-7.57-15-29.79-14s-25.57,4.36-28.89,9.18s-7.57,9.01-7.57,9.01l72.32,35.29
			h19.85L283.11,558.9z"/>
		<polygon class="st13" points="83.5,547.5 183.37,547.5 301.5,606.37 205.5,593.5 		"/>
		<polygon class="st3" points="283.11,558.9 293.43,593.99 395.93,599.49 392.49,547.5 		"/>
		<path class="st7" d="M201.25,591.24c0,0,1.25,24.26-24.75,22.26l-20-5l-14,1l-8.66-6.73c0,0-6.42,0.73-6.88-3.77
			s2.75-13.05,2.75-13.05l-8.21-15.45c0,0,2-11,7-7s8,12,8,12s6.08-12.75,14.54-12.88c8.46-0.12,7.46,9.88,1.46,15.88
			c0,0,16.6-21.56,17.8-11.28c1.2,10.28-3.8,10.28-3.8,10.28L201.25,591.24z"/>
		<g class="st14">
			<path class="st15" d="M254.22,383c2.73,0.98,5.61,1.44,8.46,1.84c2.87,0.34,5.75,0.6,8.64,0.66c5.77,0.16,11.56,0.05,17.32-0.51
				l2.16-0.15l2.16-0.22l4.31-0.46l8.6-1.18l8.57-1.42c2.85-0.52,5.69-1.07,8.56-1.56c-2.81,0.71-5.64,1.36-8.46,2.04
				c-2.84,0.6-5.69,1.13-8.54,1.7c-2.86,0.5-5.74,0.91-8.61,1.32l-4.33,0.5l-2.17,0.25l-2.17,0.17c-5.79,0.47-11.62,0.61-17.43,0.27
				C265.51,385.87,259.62,385.22,254.22,383z"/>
		</g>
		<g>
			<path class="st3" d="M377.57,405.97c0,0-31.38,9.69-24.97,39.36"/>
			<path class="st6" d="M377.57,405.97c-3.92,1.78-7.59,3.96-10.96,6.48c-3.35,2.55-6.42,5.46-8.77,8.89
				c-2.42,3.38-4.06,7.26-4.92,11.34c-0.82,4.1-0.8,8.37-0.33,12.65c-1.29-4.1-1.78-8.53-1.21-12.91c0.27-2.19,0.89-4.33,1.66-6.4
				c0.81-2.07,1.91-4,3.16-5.83c2.54-3.63,5.86-6.64,9.51-9.01C369.37,408.81,373.37,406.96,377.57,405.97z"/>
		</g>
		<g>
			<path class="st3" d="M351.73,481.17c2.27,1.83,12.92,63.28,12.92,63.28l-81.53,14.45l10.32,35.08l88.93,8.78"/>
			<path class="st6" d="M351.73,481.17c0.43,0.52,0.6,1.21,0.83,1.83c0.21,0.64,0.41,1.29,0.59,1.94c0.37,1.3,0.7,2.6,1.03,3.91
				c0.65,2.62,1.24,5.25,1.82,7.88c1.16,5.27,2.26,10.54,3.33,15.83c1.07,5.28,2.07,10.58,3.08,15.87l2.96,15.9l0.13,0.72
				l-0.73,0.13l-20.36,3.74l-20.37,3.67l-20.37,3.67c-6.79,1.23-13.58,2.44-20.38,3.61l0.76-1.23l10.22,35.11l-0.75-0.62
				c7.41,0.74,14.82,1.51,22.22,2.31l22.21,2.37c7.41,0.78,14.81,1.6,22.21,2.44l22.2,2.53l-22.26-1.86
				c-7.42-0.63-14.84-1.27-22.26-1.95l-22.25-2.02c-7.42-0.66-14.83-1.36-22.24-2.08l-0.59-0.06l-0.17-0.57l-10.41-35.06l-0.31-1.04
				l1.07-0.19c6.79-1.23,13.58-2.44,20.38-3.61l20.39-3.56l20.39-3.56l20.41-3.49l-0.6,0.85l-2.7-15.93l-2.8-15.92
				c-0.93-5.31-1.89-10.61-2.91-15.9c-0.51-2.64-1.04-5.28-1.61-7.92c-0.28-1.32-0.57-2.63-0.89-3.94c-0.16-0.65-0.33-1.3-0.52-1.95
				C352.28,482.39,352.14,481.71,351.73,481.17z"/>
		</g>
		<g>
			<path class="st3" d="M217.08,445.33c0,0-18.92,60.61,0,96.64"/>
			<path class="st6" d="M217.08,445.33c-0.97,4-1.87,8.01-2.63,12.05c-0.8,4.03-1.5,8.07-2.12,12.12c-0.6,4.05-1.16,8.11-1.57,12.19
				c-0.43,4.07-0.77,8.15-0.92,12.23c-0.2,4.08-0.26,8.17-0.11,12.25c0.12,4.08,0.4,8.16,0.93,12.2c1.04,8.09,2.99,16.1,6.42,23.6
				c-2.08-3.56-3.69-7.39-5.04-11.3c-1.33-3.93-2.22-7.99-2.92-12.07c-1.36-8.18-1.63-16.51-1.27-24.77
				c0.37-8.27,1.42-16.49,2.95-24.6C212.34,461.13,214.37,453.11,217.08,445.33z"/>
		</g>
		<g>
			<line class="st3" x1="325.76" y1="489.43" x2="345.92" y2="489.43"/>
			<path class="st6" d="M325.76,489.43c1.68-0.41,3.36-0.63,5.04-0.78c1.68-0.15,3.36-0.22,5.04-0.22c1.68-0.01,3.36,0.07,5.04,0.22
				c1.68,0.15,3.36,0.36,5.04,0.78c-1.68,0.42-3.36,0.63-5.04,0.78c-1.68,0.15-3.36,0.22-5.04,0.22c-1.68,0-3.36-0.08-5.04-0.22
				C329.12,490.06,327.44,489.84,325.76,489.43z"/>
		</g>
		<path class="st6" d="M221.2,613.62c-0.72,1.55-1.6,2.97-2.53,4.35c-0.93,1.38-1.92,2.72-2.96,4c-1.04,1.29-2.15,2.53-3.3,3.72
			c-1.16,1.2-2.37,2.35-3.74,3.37c0.72-1.55,1.6-2.97,2.53-4.35c0.93-1.38,1.92-2.72,2.96-4c1.04-1.29,2.15-2.53,3.31-3.72
			C218.62,615.8,219.84,614.64,221.2,613.62z"/>
		<path class="st6" d="M348.67,611.62c0.72,1.55,1.6,2.97,2.53,4.35c0.93,1.38,1.92,2.72,2.96,4c1.04,1.29,2.15,2.53,3.3,3.72
			c1.16,1.2,2.37,2.35,3.74,3.37c-0.72-1.55-1.6-2.97-2.53-4.35c-0.93-1.38-1.92-2.72-2.96-4c-1.04-1.29-2.15-2.53-3.31-3.72
			C351.25,613.8,350.03,612.64,348.67,611.62z"/>
		<path class="st10" d="M323.5,360.5l21.53-10.5l3.97,10l-24.12,11.8C324.88,371.8,321,372,323.5,360.5z"/>
	</g>
	<polygon class="st16" points="718.5,293.5 720.62,370.44 720.62,386.02 788.72,420.04 792.16,370.44 783.22,370.42 780.46,335.66 	
		"/>
	
		<ellipse transform="matrix(0.966 -0.2585 0.2585 0.966 -48.7913 207.4497)" class="st17" cx="764.33" cy="289.23" rx="42.96" ry="61.44"/>
	
		<ellipse transform="matrix(0.966 -0.2585 0.2585 0.966 -47.4306 207.7968)" class="st16" cx="766.33" cy="284.23" rx="42.96" ry="61.44"/>
	
		<ellipse transform="matrix(0.966 -0.2585 0.2585 0.966 -52.7843 195.0869)" class="st16" cx="715.33" cy="298.23" rx="9.37" ry="13.4"/>
	<path class="st18" d="M718.5,366.98c0,0-71.73,14.61-78.37,53.06c-6.63,38.46-6.63,70.46-6.63,70.46l52.04,8.34L670.72,649.5
		h165.47V501.81l46.78-7.04c0,0-31.95-84.34-33.71-88.81c-1.75-4.47-22.32-38.63-66.04-35.55l-0.69,28.9L718.5,366.98z"/>
	<g class="st19">
		<path class="st20" d="M830.62,432.61c0.38,5.74,0.63,11.48,0.75,17.23c0.15,5.74,0.18,11.48,0.19,17.22
			c-0.03,5.74-0.08,11.48-0.25,17.22c-0.14,5.74-0.41,11.48-0.81,17.22c-0.38-5.74-0.63-11.48-0.75-17.23
			c-0.15-5.74-0.18-11.48-0.19-17.22c0.03-5.74,0.08-11.48,0.25-17.22C829.95,444.09,830.22,438.35,830.62,432.61z"/>
	</g>
	<polygon class="st13" points="726.5,477.5 842.94,472.23 829.31,602.77 704.8,608.72 	"/>
	<g class="st19">
		<path class="st20" d="M818.24,383.01c1.63,1.38,2.99,3.02,4.21,4.76c1.22,1.74,2.26,3.61,3.09,5.59c0.79,1.99,1.43,4.07,1.66,6.23
			c0.21,2.15,0.06,4.37-0.7,6.37c-0.07-2.14-0.36-4.13-0.83-6.1c-0.15-0.49-0.29-0.97-0.41-1.46c-0.13-0.49-0.32-0.96-0.48-1.44
			c-0.15-0.48-0.31-0.96-0.51-1.43c-0.19-0.47-0.35-0.95-0.57-1.41l-0.59-1.41c-0.21-0.46-0.45-0.92-0.65-1.39
			c-0.42-0.93-0.89-1.84-1.34-2.77L818.24,383.01z"/>
	</g>
	<g class="st19">
		<path class="st20" d="M693.04,445.33c0.48,4.49,0.24,9.02-0.01,13.5c-0.25,4.49-0.71,8.96-1.19,13.42
			c-0.52,4.46-1.11,8.91-1.82,13.34c-0.7,4.43-1.49,8.86-2.49,13.25c0.18-4.5,0.53-8.98,0.94-13.44c0.39-4.47,0.89-8.92,1.38-13.38
			c0.52-4.45,1.06-8.9,1.63-13.34C692.02,454.23,692.69,449.81,693.04,445.33z"/>
	</g>
	<g class="st19">
		<path class="st20" d="M672.72,394.49c3.34,1.57,6.5,3.48,9.55,5.55c3.05,2.07,5.96,4.36,8.71,6.84c2.71,2.52,5.3,5.22,7.4,8.33
			c1.05,1.55,1.98,3.19,2.67,4.94c0.66,1.75,1.09,3.64,0.95,5.49c-0.61-3.66-2.66-6.7-4.87-9.5c-1.13-1.39-2.31-2.75-3.59-4.02
			c-1.25-1.29-2.55-2.56-3.9-3.76c-2.66-2.46-5.46-4.77-8.29-7.07C678.49,399.01,675.61,396.76,672.72,394.49z"/>
	</g>
	<path class="st21" d="M633,491l-6.62,94.95c0,0,11.16,24.99,37.14,22.77s122.45-41.5,122.45-41.5h32.33c0,0,20.58-2.22,23.39-15.47
		c2.81-13.25,0-30.25,0-30.25h-11.01l-1.38-4.33h-20.64c0,0-25.24,13.33-28.2,13.33s-99.68,16.68-99.68,16.68l4.75-48.34L633,491z"
		/>
	<path class="st22" d="M873,495c0,0,2.41,31.65-1.04,56.57c-3.46,24.93-14.46,37.93-14.46,37.93s1,12-15,17s-21.45,0-21.45,0
		s-7.58-3-7.57-7.5s-11.69-5.01-11.69-5.01v-8.03c0,0-13.71-4.58,0-9.02c0,0-2.32-8.44,11.69-3.44l20.66-13.3l2.04-38.69L839,504
		l1-9H873z"/>
	<path class="st9" d="M724.38,295.81L721.9,272c0,0,10.94-11.92,7.02-28.96c0,0,3.84-12.96,16.46,0c0,0,4.28,6.4,20.95-1.82
		c0,0,12.67-4.22,25.67,9.78c0,0,23.47,8.56,24.24-13.72s-20.54-17.51-20.54-17.51s-3.04-30.54-40.37-13.66c0,0-36.67-8.31-40,28.79
		c0,0-7.73,6.93-5.03,13.51S713.75,286.62,724.38,295.81z"/>
	<rect x="62" y="649" class="st12" width="881" height="8"/>
	<g>
		<g>
			<path class="st3" d="M406.5,265.5c-17.09,0-31-13.91-31-31s13.91-31,31-31s31,13.91,31,31S423.59,265.5,406.5,265.5z
				 M406.5,205.5c-15.99,0-29,13.01-29,29s13.01,29,29,29s29-13.01,29-29S422.49,205.5,406.5,205.5z"/>
		</g>
		<g>
			<rect x="401" y="214" class="st3" width="9" height="39"/>
			<rect x="401" y="214" transform="matrix(6.123234e-17 -1 1 6.123234e-17 172 639)" class="st3" width="9" height="39"/>
		</g>
	</g>
	<g>
		<polygon class="st23" points="491.5,272 491.5,399.32 581.14,399.32 561.5,355.12 560.5,318.68 		"/>
		<path class="st13" d="M488.5,355.29c0,0,23,23.21,40,22.21c0,0,29.68,7.57,37.34-22.21l19.66,35.21l-27,128h-39.44
			c0,0-41.56-111-41.56-113s-5-41-5-41L488.5,355.29z"/>
		<path class="st3" d="M487.5,348.18c0,0,13,88.32,53,150.32c0,0,21-99,21-138v-12.32l69,42.32c0,0,41,27,32,89c0,0,22,83-6,104
			c0,0-18,22-34,17l5,49H416.36l0.14-39c0,0-46-7-38-58l14-137l90.01-63.78L487.5,348.18z"/>
		<path class="st23" d="M578.22,518.5l15.13-19.66l34.14-13.34c0,0,7,0,6,5c0,0,13-6,11,4c0,0,11.9,1,5.95,7.5
			c-5.95,6.5-29.95,21.5-29.95,21.5L578.22,518.5z"/>
		<path class="st23" d="M496.36,523.5l-4.86,35.4l-50.86-17.7c0,0,0.92-24.7,23.39-22.7C486.5,520.5,496.36,523.5,496.36,523.5z"/>
		<g>
			<g>
				<path class="st24" d="M619,599l-31.87-9.86c-10.63-3.28-21.22-6.67-31.83-10l-31.81-10.07l-31.77-10.18l-0.79-0.25l0.16-0.82
					c2.66-13.21,5.23-26.43,7.95-39.62l0.17-0.82l0.83,0.04l61.12,2.7c20.37,1.01,40.74,1.93,61.1,3.02l-0.07,0
					c2.62-0.3,5.22-0.23,7.79,0.17c2.57,0.4,5.09,1.2,7.34,2.52c2.26,1.29,4.16,3.21,5.43,5.47c1.27,2.26,1.93,4.81,2.19,7.37
					c-0.34-2.54-1.07-5.06-2.39-7.25c-1.33-2.18-3.21-4-5.44-5.22c-2.22-1.24-4.7-1.96-7.22-2.3c-2.51-0.33-5.1-0.35-7.59,0
					l-0.04,0.01l-0.04,0c-20.38-0.62-40.76-1.4-61.14-2.1l-61.13-2.42l1-0.78c-2.61,13.22-5.37,26.4-8.04,39.61l-0.63-1.07
					l31.73,10.32l31.69,10.43c10.56,3.5,21.13,6.94,31.67,10.5L619,599z"/>
			</g>
			<g>
				<path class="st24" d="M405.5,417.5c3.79-0.76,7.74-0.71,11.59-0.13c0.96,0.17,1.93,0.33,2.88,0.54l2.84,0.76
					c1.85,0.63,3.7,1.3,5.46,2.19l1.32,0.64l1.26,0.76c0.83,0.53,1.71,0.97,2.49,1.57l2.33,1.79c0.8,0.56,1.45,1.32,2.16,1.98
					c0.68,0.7,1.45,1.31,2.03,2.11l1.83,2.27c0.63,0.74,1.09,1.6,1.61,2.42c0.51,0.83,0.99,1.66,1.47,2.49
					c-0.65-0.72-1.29-1.44-1.91-2.16c-0.64-0.71-1.19-1.49-1.92-2.12c-1.36-1.33-2.65-2.71-4.15-3.86c-2.85-2.46-6.04-4.47-9.4-6.11
					c-3.34-1.68-6.91-2.91-10.59-3.75C413.13,418.06,409.35,417.57,405.5,417.5z"/>
			</g>
			<g>
				<path class="st24" d="M444.77,459.16c0.63,6.77,0.65,13.58,0.65,20.36c-0.01,6.79-0.17,13.57-0.38,20.35
					c-0.24,6.78-0.53,13.56-0.95,20.33c-0.39,6.77-0.92,13.54-1.59,20.3c-0.23-13.58,0.11-27.14,0.54-40.7
					c0.25-6.78,0.5-13.55,0.83-20.32l0.49-10.16C444.54,465.94,444.72,462.55,444.77,459.16z"/>
			</g>
			<g>
				<path class="st24" d="M440.64,541.2c-1.75-1.97-3.83-3.43-6.05-4.6c-2.23-1.16-4.59-2.07-7.02-2.81
					c-2.42-0.77-4.91-1.34-7.42-1.88c-2.52-0.52-5.06-0.97-7.65-1.41c2.61-0.39,5.26-0.37,7.88-0.13c2.63,0.23,5.23,0.74,7.78,1.51
					c2.53,0.81,5.02,1.86,7.24,3.39C437.61,536.77,439.59,538.77,440.64,541.2z"/>
			</g>
			<g>
				<path class="st24" d="M417.94,558.69c-0.25-2.15,0.13-4.37,0.95-6.43c0.82-2.07,2.2-3.96,3.99-5.37
					c1.81-1.35,3.92-2.37,6.13-2.65c0.54-0.13,1.09-0.18,1.64-0.18l1.64-0.04c1.09,0.09,2.16,0.26,3.21,0.47
					c-1.07,0.23-2.11,0.33-3.14,0.51l-1.51,0.35l-0.75,0.16c-0.25,0.06-0.48,0.16-0.72,0.24c-0.48,0.17-0.95,0.34-1.43,0.48
					c-0.46,0.19-0.9,0.43-1.34,0.64c-0.22,0.12-0.46,0.19-0.66,0.32l-0.62,0.4c-0.41,0.27-0.85,0.5-1.19,0.85
					c-1.56,1.18-2.82,2.74-3.84,4.48C419.3,554.7,418.52,556.62,417.94,558.69z"/>
			</g>
			<g>
				<path class="st24" d="M631.88,558.69c-0.1-3.36-0.21-6.69-0.41-9.99c-0.22-3.31-0.52-6.59-1.08-9.82
					c-0.56-3.21-1.35-6.41-2.8-9.26c-0.73-1.41-1.63-2.75-2.82-3.82c-1.17-1.09-2.64-1.86-4.26-2.31c1.69,0.01,3.4,0.56,4.87,1.53
					c1.46,0.98,2.65,2.34,3.57,3.81c1.88,2.97,2.79,6.35,3.42,9.69c0.55,3.36,0.77,6.76,0.67,10.13
					C632.94,552.04,632.61,555.4,631.88,558.69z"/>
			</g>
			<g>
				<path class="st24" d="M592.66,593.99c-3.47,3.18-7.46,5.73-11.54,8.05l-3.09,1.71l-3.18,1.54c-1.07,0.49-2.1,1.06-3.2,1.49
					l-3.26,1.36c-1.09,0.44-2.17,0.93-3.28,1.3l-3.34,1.15l-3.34,1.15c-1.12,0.36-2.26,0.65-3.39,0.98l-3.4,0.97
					c-1.13,0.31-2.26,0.67-3.42,0.9l-6.89,1.55l-1.72,0.39l-1.74,0.3l-3.48,0.59l-3.49,0.57c-1.16,0.18-2.32,0.41-3.5,0.51
					l-7.02,0.76l-3.51,0.38c-1.17,0.12-2.35,0.14-3.52,0.22c-9.4,0.65-18.82,0.76-28.23,0.5l-7.05-0.35
					c-2.35-0.15-4.7-0.18-7.04-0.42l-14.05-1.31l-13.99-1.91l-6.95-1.28c-2.31-0.46-4.64-0.83-6.91-1.44l-6.86-1.69
					c-1.15-0.25-2.27-0.64-3.39-0.98l-3.38-1.05c-1.12-0.36-2.26-0.68-3.37-1.07l-3.3-1.28l-3.3-1.28c-1.09-0.45-2.14-1-3.21-1.5
					l-3.18-1.55l-3.04-1.82l-1.52-0.91c-0.51-0.29-0.96-0.68-1.45-1.02c-0.95-0.71-1.91-1.39-2.84-2.12l-2.61-2.39
					c-0.8-0.87-1.57-1.77-2.32-2.67c-1.35-1.92-2.61-4-2.99-6.33c0.48,2.31,1.82,4.31,3.23,6.15c0.78,0.87,1.56,1.73,2.38,2.56
					l2.65,2.28c0.93,0.7,1.91,1.33,2.87,2c0.49,0.32,0.94,0.69,1.46,0.96l1.53,0.85l3.06,1.7l3.2,1.43c1.07,0.46,2.11,1,3.2,1.42
					l3.29,1.2l3.29,1.2c1.11,0.37,2.24,0.66,3.36,1l3.36,0.98c1.12,0.32,2.23,0.68,3.38,0.91l6.84,1.55
					c18.29,3.86,37.04,5.62,55.72,6.23c18.68,0.64,37.48-0.23,55.86-3.71l6.87-1.41c1.15-0.21,2.27-0.54,3.4-0.83l3.39-0.89
					c1.13-0.31,2.27-0.58,3.39-0.91l3.33-1.08l3.34-1.08c1.12-0.35,2.18-0.83,3.28-1.22l3.28-1.24c1.1-0.39,2.15-0.93,3.22-1.38
					l3.21-1.43l3.12-1.6C584.99,599.38,589.05,597,592.66,593.99z"/>
			</g>
		</g>
		<polygon class="st11" points="484.83,352 464,365.52 464,390.14 476.18,390.14 472.5,411.48 536.32,501.81 		"/>
		<polygon class="st11" points="564,355 586,371 593,390 581,391 584,412 536.65,502.27 		"/>
		<g>
			<path class="st6" d="M536.32,617c0.23,2.7,0.36,5.41,0.46,8.11c0.12,2.71,0.16,5.42,0.2,8.13c0.02,2.71,0.03,5.42-0.03,8.13
				l-0.1,4.07c-0.07,1.36-0.1,2.71-0.2,4.06c-0.13-1.35-0.19-2.71-0.29-4.06l-0.18-4.06c-0.12-2.71-0.16-5.41-0.2-8.12
				c-0.01-2.71-0.03-5.41,0.03-8.12C536.07,622.43,536.14,619.72,536.32,617z"/>
		</g>
		<path class="st25" d="M594.7,270.32c3.99,38.76-9.1,73.51-36.57,76.34c-27.47,2.83-52.97-26.29-56.97-65.05
			c-3.99-38.76,15.04-72.47,42.5-75.3C571.13,203.48,590.71,231.56,594.7,270.32z"/>
		<path class="st23" d="M594.25,263.62c6.23,38.46-4.82,73.92-32.08,78.34s-54.41-23.18-60.64-61.64s10.81-73.22,38.07-77.64
			S588.01,225.16,594.25,263.62z"/>
		<path class="st9" d="M491.5,285.12c0,0,16.5-15.12,15.5-33.12s13.64-48.46,29.32-37.73c13.06,8.94,20.97,14.17,30.11,6.31
			c3.21-2.76,8.13-1.91,10.16,1.81l14.28,26.2c0,0,9.08-34.16-22.4-46.37c0,0-39.47-13.21-58.47,3.79
			C510,206,473,222.24,491.5,285.12z"/>
		
			<ellipse transform="matrix(0.966 -0.2585 0.2585 0.966 -55.9061 136.8889)" class="st23" cx="492.5" cy="281" rx="12.35" ry="16.43"/>
		<g>
			<g>
				<path class="st26" d="M567.22,517.17c-0.09,0-0.18-0.01-0.26-0.04c-6.88-1.87-11.75-5.46-14.48-10.67
					c-4.85-9.24-1.27-20.25-0.93-21.24c0.32-1.43,6.51-28.21,21.04-62.12c3.73-8.7,8.32-14.15,13.64-16.2
					c3.81-1.47,7.96-1.21,12.32,0.79c8.48,3.88,13.96,12.66,13.96,22.38v60.43c0,0.55-0.45,1-1,1s-1-0.45-1-1v-60.43
					c0-8.93-5.02-17-12.79-20.56c-3.85-1.76-7.48-2.01-10.77-0.74c-4.8,1.85-9.01,6.94-12.52,15.12
					c-14.79,34.5-20.88,61.55-20.94,61.82l-0.03,0.11c-0.04,0.11-3.77,11.02,0.8,19.72c2.47,4.69,6.92,7.94,13.23,9.65
					c0.53,0.14,0.85,0.69,0.7,1.23C568.06,516.88,567.66,517.17,567.22,517.17z"/>
			</g>
			<circle class="st26" cx="570.5" cy="515.5" r="6"/>
		</g>
		<path class="st24" d="M392.04,420.04c-0.42,11.71-0.97,23.4-1.64,35.09c-0.65,11.69-1.41,23.37-2.2,35.05
			c-0.82,11.68-1.67,23.35-2.64,35.02c-0.94,11.67-2,23.33-3.2,34.98c0.42-11.71,0.96-23.4,1.64-35.09
			c0.65-11.69,1.41-23.37,2.2-35.05c0.83-11.68,1.67-23.35,2.64-35.02C389.78,443.36,390.84,431.7,392.04,420.04z"/>
	</g>
	<g>
		<g>
			<path class="st3" d="M426.72,206.5c-0.21,0-0.42-0.07-0.6-0.2c-0.44-0.33-0.53-0.96-0.2-1.4c0.03-0.05,0.88-1.16,2.5-3.17
				c0.35-0.43,0.98-0.49,1.41-0.15c0.43,0.35,0.5,0.98,0.15,1.41c-1.6,1.97-2.45,3.1-2.45,3.11
				C427.32,206.36,427.02,206.5,426.72,206.5z"/>
		</g>
		<g>
			<path class="st3" d="M434.17,197.43c-0.23,0-0.46-0.08-0.65-0.24c-0.42-0.36-0.46-0.99-0.1-1.41c1.66-1.93,3.4-3.89,5.16-5.82
				c0.37-0.41,1-0.44,1.41-0.07c0.41,0.37,0.44,1,0.07,1.41c-1.75,1.92-3.47,3.87-5.13,5.78
				C434.73,197.31,434.45,197.43,434.17,197.43z M444.59,185.95c-0.25,0-0.5-0.09-0.69-0.28c-0.4-0.38-0.42-1.01-0.03-1.41
				c1.78-1.87,3.61-3.74,5.43-5.57c0.39-0.39,1.02-0.39,1.41,0c0.39,0.39,0.39,1.02,0,1.41c-1.81,1.82-3.63,3.68-5.4,5.53
				C445.12,185.85,444.86,185.95,444.59,185.95z M455.55,174.98c-0.26,0-0.53-0.1-0.72-0.31c-0.38-0.4-0.37-1.03,0.03-1.41
				c1.87-1.79,3.78-3.58,5.68-5.31c0.41-0.37,1.04-0.34,1.41,0.06c0.37,0.41,0.34,1.04-0.06,1.41c-1.89,1.72-3.79,3.5-5.65,5.28
				C456.04,174.89,455.8,174.98,455.55,174.98z M467,164.53c-0.28,0-0.56-0.12-0.76-0.34c-0.36-0.42-0.32-1.05,0.1-1.41
				c1.95-1.7,3.95-3.39,5.93-5.03c0.43-0.35,1.06-0.29,1.41,0.13c0.35,0.43,0.29,1.06-0.13,1.41c-1.97,1.63-3.95,3.31-5.89,5
				C467.46,164.45,467.23,164.53,467,164.53z M478.94,154.66c-0.3,0-0.59-0.13-0.79-0.38c-0.34-0.43-0.26-1.06,0.17-1.4
				c2.05-1.6,4.13-3.19,6.18-4.72c0.44-0.33,1.07-0.24,1.4,0.21c0.33,0.44,0.24,1.07-0.21,1.4c-2.04,1.51-4.11,3.09-6.14,4.68
				C479.38,154.59,479.16,154.66,478.94,154.66z M491.39,145.43c-0.32,0-0.63-0.15-0.82-0.43c-0.32-0.45-0.21-1.08,0.25-1.39
				c2.14-1.49,4.3-2.96,6.44-4.36c0.46-0.3,1.08-0.17,1.38,0.29c0.3,0.46,0.17,1.08-0.29,1.38c-2.12,1.39-4.27,2.84-6.39,4.33
				C491.79,145.37,491.59,145.43,491.39,145.43z M504.35,136.94c-0.34,0-0.67-0.17-0.85-0.48c-0.29-0.47-0.14-1.09,0.33-1.37
				c2.22-1.36,4.48-2.69,6.7-3.95c0.48-0.27,1.09-0.1,1.36,0.38c0.27,0.48,0.1,1.09-0.38,1.36c-2.21,1.25-4.44,2.57-6.65,3.91
				C504.71,136.9,504.53,136.94,504.35,136.94z M517.83,129.32c-0.36,0-0.71-0.2-0.89-0.54c-0.25-0.49-0.06-1.09,0.42-1.35
				c2.32-1.21,4.66-2.37,6.97-3.47c0.5-0.24,1.1-0.02,1.33,0.48c0.24,0.5,0.02,1.1-0.47,1.33c-2.28,1.08-4.6,2.24-6.9,3.43
				C518.15,129.28,517.99,129.32,517.83,129.32z M531.83,122.69c-0.39,0-0.76-0.23-0.92-0.61c-0.22-0.51,0.02-1.1,0.53-1.31
				c2.4-1.02,4.83-2,7.21-2.9c0.52-0.2,1.09,0.07,1.29,0.58s-0.07,1.09-0.58,1.29c-2.36,0.89-4.76,1.85-7.13,2.87
				C532.09,122.66,531.96,122.69,531.83,122.69z M546.29,117.24c-0.42,0-0.81-0.27-0.95-0.69c-0.17-0.52,0.11-1.09,0.64-1.26
				c2.47-0.81,4.97-1.56,7.44-2.24c0.53-0.15,1.08,0.17,1.23,0.7c0.15,0.53-0.17,1.08-0.7,1.23c-2.44,0.67-4.91,1.42-7.35,2.22
				C546.5,117.22,546.39,117.24,546.29,117.24z M630,115.57c-0.1,0-0.2-0.01-0.3-0.05c-2.44-0.76-4.93-1.45-7.4-2.06
				c-0.54-0.13-0.86-0.67-0.73-1.21c0.13-0.54,0.67-0.86,1.21-0.73c2.5,0.62,5.03,1.32,7.51,2.1c0.53,0.16,0.82,0.72,0.66,1.25
				C630.82,115.3,630.43,115.57,630,115.57z M561.18,113.14c-0.46,0-0.87-0.32-0.97-0.78c-0.12-0.54,0.22-1.07,0.76-1.19
				c2.55-0.57,5.12-1.07,7.65-1.5c0.55-0.09,1.06,0.28,1.15,0.82c0.09,0.54-0.28,1.06-0.82,1.15c-2.49,0.42-5.03,0.92-7.54,1.48
				C561.33,113.13,561.25,113.14,561.18,113.14z M614.99,111.86c-0.06,0-0.12-0.01-0.18-0.02c-2.5-0.46-5.06-0.86-7.59-1.17
				c-0.55-0.07-0.94-0.57-0.87-1.11c0.07-0.55,0.56-0.94,1.11-0.87c2.57,0.32,5.17,0.72,7.71,1.19c0.54,0.1,0.9,0.62,0.8,1.17
				C615.88,111.52,615.46,111.86,614.99,111.86z M576.44,110.57c-0.5,0-0.94-0.38-0.99-0.89c-0.06-0.55,0.33-1.04,0.88-1.11
				c2.58-0.29,5.2-0.51,7.77-0.66c0.55-0.03,1.02,0.39,1.05,0.94c0.03,0.55-0.39,1.02-0.94,1.05c-2.53,0.14-5.11,0.36-7.65,0.65
				C576.52,110.57,576.48,110.57,576.44,110.57z M599.63,109.97c-0.02,0-0.04,0-0.06,0c-2.54-0.16-5.12-0.24-7.68-0.25
				c-0.55,0-1-0.45-1-1c0-0.55,0.45-1,1-1c0,0,0,0,0,0c2.6,0.01,5.22,0.09,7.8,0.25c0.55,0.03,0.97,0.51,0.94,1.06
				C600.59,109.56,600.15,109.97,599.63,109.97z"/>
		</g>
		<g>
			<path class="st3" d="M641.05,119.54c-0.13,0-0.25-0.02-0.38-0.07c-1.24-0.5-2.47-0.99-3.7-1.45c-0.52-0.19-0.78-0.77-0.59-1.29
				c0.19-0.52,0.77-0.78,1.29-0.59c1.25,0.47,2.5,0.96,3.75,1.47c0.51,0.21,0.76,0.79,0.55,1.3
				C641.82,119.3,641.45,119.54,641.05,119.54z"/>
		</g>
	</g>
	<g>
		<path class="st27" d="M694.63,109.76c-2.82-4.73-7.44-8.17-12.84-9.23c-14.78-2.88-24.68,8.14-28.23,12.97
			c-1.79-3.31-5.85-9.59-12.5-13.46c-10.53-6.13-23.98-2.4-30.45,7.92c-6.73,10.74-11.55,29.73,13.89,52.12
			c0.01,0.01,0.01,0.01,0.02,0.02c0.23,0.27,9.89,11.62,24.34,17.86l-0.02,0.37c15.71-4.19,27.22-14.66,27.22-14.66
			C707.94,142.41,700.91,120.3,694.63,109.76z"/>
		<g>
			<path class="st3" d="M666,161c-0.01,0-0.02,0-0.03,0c-0.66-0.01-1.24-0.46-1.42-1.1l-9.18-33.06L645.2,140.4
				c-0.32,0.43-0.84,0.65-1.38,0.59l-34-4c-0.82-0.1-1.41-0.84-1.31-1.67c0.1-0.82,0.84-1.41,1.66-1.31l33.14,3.9l11.48-15.31
				c0.34-0.46,0.92-0.68,1.48-0.57c0.56,0.11,1.01,0.52,1.17,1.07l8.65,31.14l4.18-13.19c0.22-0.7,0.92-1.13,1.64-1.03l21.3,3
				c0.82,0.12,1.39,0.87,1.28,1.69c-0.12,0.82-0.87,1.39-1.69,1.28l-20.04-2.82l-5.32,16.79C667.23,160.58,666.65,161,666,161z"/>
		</g>
	</g>
</g>
</svg>
