<svg version="1.1" id="Layer_1" xmlns="http://www.w3.org/2000/svg" x="0" y="0" viewBox="0 0 981.02 556.79" style="enable-background:new 0 0 981.02 556.79" xml:space="preserve"><style>.st1{fill:#fda819}.st2{fill:#fbb78a}.st4{fill:#20324a}.st5{fill:#3270b8}.st6{fill:#b5774d}.st8{fill:#246091}.st9{fill:#373737}.st10{fill:#8922e1}.st12{fill:#d05641}.st13{fill:#4b5e88}.st15{fill:#add49d}.st16{fill:#707272}</style><path d="M128.93 545.81s-82.7-194.76-89.43-218.6C28.49 288.2 45 55 227.98 127.13S526.07 30.85 585.69 9.4c57.22-20.58 205.06 2.36 236.01 105.95s73.63 243.36 61.89 310.16-34.82 120.3-34.82 120.3H128.93z" style="fill:#e9daf8"/><path class="st1" d="M325.31 210.17s-47.86-6.5-35.94 38.44c11.92 44.94 52.45 8.34 52.45 8.34l13.16 41.67c1.87 5.92-1.3 12.25-7.15 14.3l-129.15 45.4c-6.39 2.25-13.37-1.25-15.39-7.72l-40.98-130.99c-1.71-5.48 1-11.37 6.28-13.63l43.89-18.74s-35.77-42.19 12.84-57.78c0 0 45.86 1.83 33.48 41.27l39.98-14.15c6.36-2.25 13.27 1.45 14.93 7.98l11.6 45.61z"/><ellipse transform="rotate(-24.495 147.238 222.904)" class="st2" cx="147.24" cy="222.9" rx="17.54" ry="24.42"/><path d="m137.42 239.25-.45-10.88s-3.62-20.07 11.83-21.82c16.96-1.92 8.38-13.66 8.38-13.66s-18.33-8.14-31.63-.98-8.5 27.41-3.86 32.93c4.64 5.52 15.73 14.41 15.73 14.41z" style="fill:#2c4072"/><path class="st2" d="m140.72 236.99-4.2 26.14 28.96 4.64-10.31-33.53zM237.71 349.12s5.5 12.38 17.43 6.88c11.92-5.5 3.52-14.22 3.52-14.22s-3.31-.46-9.03 0-11.91-.2-11.91-.2l-.01 7.54zM188.03 527.82l-3.97 9.79h16.81v-9.79zM274.25 527.82l7.64 9.78 6.73-11.62s-7.95-1.07-11.62-4.82l-2.75 6.66z"/><path class="st4" d="M183.14 534.17s-5.5 9.4 0 11.24c5.5 1.83 41.73 0 41.73 0s-2.75-8.71-8.71-8.71-12.55-2.52-12.55-2.52l-20.47-.01zM278.07 536.23l8.71 9.99 28.89-19.62s-4.59-9.17-15.59-3.67l-16.28 1.83-5.73 11.47z"/><path class="st5" d="M140.67 251.01h21.86c1.91 0 3.72.84 4.94 2.31 5.71 6.83 21.54 27.3 18.06 40.53l58.37 48.4-2.75 12.38-47.46-22.01 15.82 38.52 74.29 148.58-7.57 14.45-55.72-62.6-13.07 59.85h-25.45l9.63-90.11s-26.83-23.58-44.37-61.32c0 0-36.42-56.73-19.23-119.34 1.56-5.7 6.75-9.64 12.65-9.64z"/><ellipse transform="rotate(-24.495 135.287 222.9)" class="st2" cx="135.29" cy="222.9" rx="3.79" ry="5.28"/><g><ellipse class="st6" cx="829.31" cy="174.74" rx="15.13" ry="21.67"/><path class="st6" d="m839.62 181.96 15.14 32.15-30.96 5.23v-30.38z"/><path d="M812.03 143.82S805 160.94 818.14 164c0 0 12.94-5.18 19.57 1.53 6.62 6.71 6.73 16.43 6.73 16.43l8.87-17.2s8.87-7.49-2.14-16.97-27.52-1.83-34.55-6.73c-7.03-4.88-4.59 2.76-4.59 2.76z" style="fill:#21346c"/><path class="st8" d="M904.36 513.45s8.56 5.5 8.25 10.7-13.45 6.42-9.78 20.18h-20.18s.31-6.42 4.89-6.42c4.59 0 5.81-6.73 7.34-9.02 1.53-2.29.26-10.74.26-10.74l9.22-4.7z"/><path class="st8" d="M812.34 337.23s19.57 75.63 30.57 92.14c11.01 16.51 45.25 81.02 47.39 89.89l18.65-4.28s-14.06-79.49-19.26-92.94-19.94-38.22-23.88-55.03-.22-34.54-.22-34.54l-53.25 4.76z"/><path class="st9" d="M832.21 533.33s1.83 9.78-1.22 11.01c-3.06 1.22-36.99 2.14-36.99 2.14s1.22-7.03 6.42-8.25 10.02.61 12.96-2.75 3.55-5.2 3.55-5.2l15.28 3.05z"/><path class="st5" d="m802.25 337.23 6.72 122.11 1.84 73.99h24.15l11.31-98.05 15.9-100.99z"/><path class="st1" d="M821.82 203.75s20.48.61 30.57-1.53c0 0 12.54 5.5 13.15 43.41s0 91.6 0 91.6-55.34 12.65-65.12 7.76l-2.75-104.56s-36.48 3.56-44.99-8.92l-10.65-4.02 3.06-13.35s30.27 7.64 51.06 3.06c20.77-4.59 25.67-13.45 25.67-13.45z"/><path class="st10" d="M594.19 219.98s40.08 26.95 49.21-18.64-43.39-30.62-43.39-30.62l6.58-43.2c.93-6.13 6.57-10.42 12.72-9.68l135.93 16.25c6.72.8 11.44 7.02 10.4 13.71l-21.02 135.62c-.88 5.68-5.92 9.76-11.65 9.46l-47.66-2.55s13.48 53.65-37.02 46.19c0 0-40.34-21.88-11.83-51.81l-42.12-4.94c-6.7-.79-11.27-7.15-9.88-13.75l9.73-46.04z"/><path class="st6" d="M737.74 256.03s-6.42-3.97-14.98-2.45c-8.56 1.53-11.31-5.29-13.45-.35s-3.67 10.13 2.45 11.36c6.11 1.22 13.15 8.21 19.26 3.19s11.01-2.27 11.01-2.27l-4.29-9.48z"/><path d="M742.02 267.77s43.13 2.39 56.39 1.12c11.74-1.12 29.82-7.06 39.61-16.84s16.05-15.9 16.74-21.71 5.66-17.5-8.18-20.18c-9.48-1.83-17.27 17.33-17.27 17.33l-28.59 24.25-53.81 1.53H735.9v11.92l6.12 2.58z" style="fill:#d88d41"/></g><g><path class="st12" d="M458.14 9.81c1.91 5.67 6.9 23.15 1.99 39.39l-.29 7.34h-12.55v-6.48l1.96-47.52 4.61 2.33c1.2.27 3.89 3.78 4.28 4.94z"/><ellipse class="st2" cx="441.64" cy="29.71" rx="15.82" ry="21.78"/><path class="st12" d="M454.63 10.22s-9.4 14-18.8 13.76-7.34 17.85-7.34 17.85l-.19 9.66s-16.32-.92-26.41 16.51l-4.59 5.96s-4.13-13.76 11.01-24.76c15.13-11.01 10.55-6.42 10.55-14.68 0-8.25-4.13-15.13 2.29-24.31 6.42-9.17 14.83-11.46 20.49-9.63 5.65 1.84 12.24.93 12.99 9.64z"/><path class="st2" d="M428.49 41.83v12.41s5.66 8.25 13.15 8.25 9.32-5.96 9.32-5.96l-3.67-8.71-18.8-5.99z"/><path class="st10" d="M425.71 51.49s-15.21 1.19-26.39 19.86-23.57 31.05-23.57 31.05-6.42 2.74 0 15.36 12.79 33 12.79 33l12.6-2.63-10.25-33.8s6.42-13.55 13.76-13.2c7.34.35 9.17 18.7 5.96 28.33 0 0-6.67 7.4-5.86 17.91.82 10.52 5.86 13.73 5.86 13.73l49.53-14.68v-10.64s-3.21-28.34 0-29.49 2.7 2.06 10.52 9.4c7.82 7.34 30.01 7.8 30.01 7.8l9.91-5.74s-12.84-10.77-22.47-11.46-13.76-8.03-14.68-22.7c-.92-14.68 0-20.18-5.5-23.39S450 54.26 450 54.26s-8.27 10.53-24.29-2.77z"/><path class="st9" d="m457.46 139.54 16.89 183.44-16.89 2.75-28.97-140.33-33.94 137.58-15.59-.92 6.42-102.72s12.84-78.88 23.39-79.8c10.55-.92 48.69 0 48.69 0z"/><path class="st2" d="M500 119.82s7.24 6.22 13.73 15.04c6.48 8.81 5.11-7.81 5.11-7.81s.1-6.27-13.45-13.17l-5.39 5.94zM382.17 319.31s-3.21 13.76 2.29 15.13 18.34 2.79 18.34 2.79.71-3.4-6.02-8.96c-6.73-5.56-4.76-8.96-4.76-8.96h-9.85zM462.23 322.98s-3.47 13.37 2.49 14.25 24.76-1.87 24.76-1.87 1.83-3-6.42-5.17-12.41-9.05-12.41-9.05l-8.42 1.84z"/><path class="st13" d="M462.06 328.54s-3.01 8.79 2.47 9.9 31.77-.91 31.77-.91.16-7.38-12.54-7.96c-.01 0-15.52 3.73-21.7-1.03zM381.12 330.62s-3.03 8.7 2.11 9.97c5.14 1.27 29.95.02 29.95.02s.31-7.37-11.64-8.32c0 0-14.69 3.27-20.42-1.67z"/><path d="M494.38 290.42s11.11-47.01-34.78-39.49-13.38 51.39-13.38 51.39l-42.75 9.06c-6.07 1.29-12.06-2.48-13.54-8.5l-32.68-132.94c-1.62-6.58 2.54-13.18 9.17-14.57l134.34-28.1c5.62-1.18 11.22 2.1 12.95 7.57l14.41 45.5s45.46-31.52 56.27 18.38c0 0-6.27 45.47-44.32 29.32l10.21 41.17c1.62 6.54-2.73 13.07-9.39 14.09l-46.51 7.12z" style="fill:#ee505d"/></g><g><path class="st15" d="M712.73 517.05s54.02-130.7 58.37-88.05c4.35 42.64-58.37 88.05-58.37 88.05z"/><path class="st15" d="M724.72 531.29s27.54-80.1 57.81-59.31c0 0 32.97 40.05-57.81 59.31z"/><path class="st15" d="M224.87 545.4s37.7-60.38 120.2-17.58c0 0 75.97-75.82 144.58 0 0 0 140.16-45.1 283.24 10.55l9.63 9.94-557.65-2.91z"/><path class="st15" d="M413.18 521.21s-84.21-66.76-97.51-95.35c-13.3-28.59 23.01-57.41 50.94-12.05 27.94 45.37 46.57 107.4 46.57 107.4zM426.66 513.45s-30.11-104.4 14.98-87.59c0 0 7.49 34.55-14.98 87.59z"/><path class="st15" d="M441.64 504.59s-5.28-49.67 20.59-35.84-20.59 35.84-20.59 35.84zM532.3 521.21s-75.64-63.32-42.64-65.53 29.9 29.64 45.82 48.9c15.91 19.27-3.18 16.63-3.18 16.63zM171.66 545.01s-72.46-37.15-40.82-31.64c.01 0 11.47-16.51 40.82 31.64zM527.57 534.29s-72.46-37.15-40.82-31.64c.01-.01 11.47-16.52 40.82 31.64z"/><path class="st15" d="M169.35 537.89s-61.44-63.98-39.43-74.99c22.02-11 39.43 74.99 39.43 74.99z"/></g><g><path class="st16" d="m377.28 357.41-36.08 190.9h6.73l44.11-192zM478.76 357.41l62.39 190.9h7.65l-59.14-194.14z"/><path class="st16" d="M491.96 358.99H372.99a8.71 8.71 0 0 1 0-17.42h118.97a8.71 8.71 0 0 1 0 17.42z"/></g><path class="st5" d="M630.02 382.88s-20.79 43.6 25.65 45.95c46.44 2.35 23.94-47.4 23.94-47.4l43.7.18c6.2.03 11.27 4.97 11.44 11.17l3.84 136.84c.19 6.77-5.27 12.35-12.04 12.3l-137.24-.93a11.19 11.19 0 0 1-11.06-10.14l-4.46-47.52s-51.09 21.2-51.11-29.85c0 0 15.73-43.12 49.52-19.29l-1.28-42.39c-.2-6.74 5.43-12.2 12.16-11.78l46.94 2.86z"/><path style="fill:#1a2656" d="M21.71 541.92h950.68v6.39H21.71z"/></svg>