<svg version="1.1" id="Layer_1" xmlns="http://www.w3.org/2000/svg" xmlns:xlink="http://www.w3.org/1999/xlink" x="0" y="0" viewBox="0 0 740.18 750.69" style="enable-background:new 0 0 740.18 750.69" xml:space="preserve"><style>.st5{fill:#fff}.st6{fill:#696a6c}.st7{fill:#8922e1}.st8{fill:#ee505d}.st9{fill:#fca918}.st10{fill:#bdbdbf}.st11{fill:#d54858}.st12{opacity:.52}.st13{fill:#a7a9ac}.st14{fill:#f7c4c9}.st15{fill:#ff8b2c}.st18{fill:#1b1b1b}.st19{fill:#3270b8}.st20{fill:#1a5375}.st21{fill:#333}.st22{fill:#7c351f}.st23{fill:#303030}.st24{fill:#5b8a39}.st25{fill:#5b2b14}.st26{fill:#3f3f3d}.st28{fill:#282828}.st29{fill:#2e3547}.st30{fill:#fad5bb}.st31{fill:#f7bb97}.st32{fill:#282727}</style><circle cx="370.09" cy="375" r="370.09" style="opacity:.42;fill:#8922e1;enable-background:new"/><defs><circle id="SVGID_1_" cx="369.51" cy="375" r="351.38"/></defs><clipPath id="SVGID_2_"><use xlink:href="#SVGID_1_" style="overflow:visible"/></clipPath><g style="clip-path:url(#SVGID_2_)"><path style="fill:#e9e8f9" d="M-36.32 519.87H794.6v311.04H-36.32z"/><path style="fill:#c6bdf9" d="M-36.32 0H794.6v519.87H-36.32z"/><ellipse cx="379.13" cy="572.75" rx="319.38" ry="46.42" style="opacity:.13;fill:#303030;enable-background:new"/><path class="st5" d="M596.4 397.55H159.52c-6.6 0-12-5.4-12-12V141.37c0-6.6 5.4-12 12-12h436.87c6.6 0 12 5.4 12 12v244.18c.01 6.6-5.39 12-11.99 12z"/><path class="st6" d="M586.46 388.89H169.45c-6.6 0-12-5.4-12-12V150.03c0-6.6 5.4-12 12-12h417.01c6.6 0 12 5.4 12 12v226.86c0 6.6-5.4 12-12 12z"/><path class="st5" d="M412.53 177.4H554.9v171.83H412.53z"/><path class="st7" d="M449.66 190.31c-14.26 0-25.82 11.57-25.82 25.82 0 5.63 1.8 10.84 4.87 15.08 4.69 6.5 12.33 10.74 20.96 10.74 1.48 0 2.92-.12 4.33-.37.07-.01.12-.01.19-.03 12.11-2.14 21.3-12.71 21.3-25.43-.01-14.24-11.57-25.81-25.83-25.81zm10.42 26.36c-.02.48-.08.96-.17 1.42-.04.17-.07.33-.11.5a9.475 9.475 0 0 1-.61 1.78c-.07.14-.13.28-.2.43-.14.27-.29.55-.45.82-.14.24-.3.47-.47.7-.11.14-.22.29-.34.43-.1.12-.2.24-.3.35-.1.12-.21.23-.32.34a9.811 9.811 0 0 1-.68.63c-.1.09-.2.17-.3.25-.14.11-.28.22-.43.32-.25.18-.51.35-.78.51-.13.08-.26.15-.39.22-.14.08-.3.15-.45.22-.14.07-.28.13-.43.19s-.3.12-.44.17l-.45.15c-.15.04-.3.09-.46.13-.15.04-.31.08-.46.11-.15.04-.3.07-.45.09-.01.01-.03.01-.04.01l-.43.06h-.03c-.07.01-.12.01-.19.02-.34.04-.68.05-1.03.05-3.96 0-7.4-2.2-9.18-5.45-.8-1.48-1.26-3.18-1.26-4.98 0-5.75 4.67-10.43 10.43-10.43s10.43 4.67 10.43 10.43c0 .18-.01.35-.01.53z"/><path class="st8" d="M475.48 216.14c0 12.72-9.19 23.29-21.3 25.43l-1.76-7.58-.01-.04-1.73-7.43c.06-.01.12-.01.19-.02h.03l.43-.06c.01 0 .03 0 .04-.01.15-.02.3-.05.45-.09.16-.03.31-.06.46-.11.15-.04.31-.08.46-.13.15-.04.3-.09.45-.15.15-.05.3-.11.44-.17.14-.06.29-.12.43-.19.15-.07.3-.14.45-.22.13-.07.26-.14.39-.22.27-.15.53-.32.78-.51.15-.1.3-.21.43-.32.1-.08.2-.17.3-.25.12-.09.23-.19.35-.31.12-.1.22-.21.33-.32.11-.11.22-.22.32-.34.11-.12.21-.23.3-.35.12-.14.23-.29.34-.43.17-.22.32-.46.47-.7.17-.27.32-.54.45-.82.07-.14.14-.28.2-.43a9.475 9.475 0 0 0 .61-1.78c.04-.17.07-.33.11-.5.09-.46.14-.94.17-1.42.01-.18.01-.35.01-.53 0-5.75-4.67-10.43-10.43-10.43v-15.4c14.28 0 25.84 11.57 25.84 25.83z"/><path class="st9" d="M453.99 241.6c-1.41.25-2.85.37-4.33.37-8.63 0-16.27-4.24-20.96-10.74l11.78-10.1c1.78 3.25 5.22 5.45 9.18 5.45.35 0 .69-.01 1.03-.05.06-.01.12-.01.19-.02l1.54 7.45.01.04 1.56 7.6z"/><path class="st8" d="M484.54 199.98H491v6.46h-6.46z"/><path class="st10" d="M493.97 213.6h42.71v3.23h-42.71zM493.97 203.12h34.27v3.23h-34.27zM493.97 224.81h54.13v3.23h-54.13z"/><path class="st7" d="M484.54 211.99H491v6.46h-6.46z"/><path class="st9" d="M484.54 223.54H491V230h-6.46zM443.65 311.33h10.26v19.54h-10.26z"/><path class="st7" d="M444.89 305.76h7.78v2.98h-7.78zM489.53 287.99h7.78v2.98h-7.78zM504.76 276.56h7.78v2.98h-7.78zM520.65 283.52h7.78v2.98h-7.78zM460.07 292.13h7.78v2.98h-7.78zM474.79 295.11h7.78v2.98h-7.78z"/><path class="st9" d="M458.83 297.59h10.26v33.28h-10.26zM473.55 299.74h10.26v31.13h-10.26zM488.28 293.62h10.26v37.26h-10.26zM519.41 287.99h10.26v41.97h-10.26zM503.51 281.37h10.26v49.51h-10.26z"/><path class="st8" d="m449.72 297.69-1.88-2.19 15.68-13.51 16.22 2.34 29.82-19.16 17.75 7.41-1.12 2.67-16.35-6.83-29.45 18.92-15.98-2.3z"/><g><path transform="rotate(-88.602 449.206 156.404)" class="st11" d="M431.19 154.96h36.04v2.89h-36.04z"/><path class="st11" d="M444.89 174.64h7.78v2.89h-7.78z"/></g><g><path transform="rotate(-88.602 523.534 156.403)" class="st11" d="M505.51 154.96h36.04v2.89h-36.04z"/><path class="st11" d="M519.22 174.64H527v2.89h-7.78z"/></g><g><path class="st5" d="M237.91 162.15h57.61v77.47h-57.61z"/><g class="st12"><path class="st13" d="M241.39 167.35h48.34v2.17h-48.34z"/></g><g class="st12"><path class="st13" d="M241.39 173.15h48.34v2.17h-48.34z"/></g><g class="st12"><path class="st13" d="M241.39 178.94h48.34v2.17h-48.34z"/></g><g class="st12"><path class="st13" d="M241.39 183.91h48.34v2.17h-48.34z"/></g><g class="st12"><path class="st13" d="M241.39 188.88h48.34v2.17h-48.34z"/></g><g class="st12"><path class="st13" d="M241.39 193.84h48.34v2.17h-48.34z"/></g><g class="st12"><path class="st13" d="M241.39 198.81h48.34v2.17h-48.34z"/></g><g class="st12"><path class="st13" d="M241.39 203.77h48.34v2.17h-48.34z"/></g><g class="st12"><path class="st13" d="M241.39 208.74h48.34v2.17h-48.34z"/></g><g class="st12"><path class="st13" d="M241.39 213.71h48.34v2.17h-48.34z"/></g><g class="st12"><path class="st13" d="M241.39 218.67h48.34v2.17h-48.34z"/></g><g class="st12"><path class="st13" d="M241.39 223.64h48.34v2.17h-48.34z"/></g><g class="st12"><path class="st13" d="M241.39 228.61h48.34v2.17h-48.34z"/></g><g class="st12"><path class="st13" d="M241.39 233.57h48.34v2.17h-48.34z"/></g></g><g><path class="st5" d="M176.06 165.13h48.25v57.28h-48.25z"/><g class="st12"><path class="st14" d="M178.97 168.98h40.49v1.6h-40.49z"/></g><g class="st12"><path class="st14" d="M178.97 173.27h40.49v1.6h-40.49z"/></g><g class="st12"><path class="st14" d="M178.97 177.55h40.49v1.6h-40.49z"/></g><g class="st12"><path class="st14" d="M178.97 181.22h40.49v1.6h-40.49z"/></g><g class="st12"><path class="st14" d="M178.97 184.89h40.49v1.6h-40.49z"/></g><g class="st12"><path class="st14" d="M178.97 188.57h40.49v1.6h-40.49z"/></g><g class="st12"><path class="st14" d="M178.97 192.24h40.49v1.6h-40.49z"/></g><g class="st12"><path class="st14" d="M178.97 195.91h40.49v1.6h-40.49z"/></g><g class="st12"><path class="st14" d="M178.97 199.58h40.49v1.6h-40.49z"/></g><g class="st12"><path class="st14" d="M178.97 203.25h40.49v1.6h-40.49z"/></g><g class="st12"><path class="st14" d="M178.97 206.92h40.49v1.6h-40.49z"/></g><g class="st12"><path class="st14" d="M178.97 210.6h40.49v1.6h-40.49z"/></g><g class="st12"><path class="st14" d="M178.97 214.27h40.49v1.6h-40.49z"/></g><g class="st12"><path class="st14" d="M178.97 217.94h40.49v1.6h-40.49z"/></g></g><g><path class="st5" d="M175.09 229.78h48.25v57.28h-48.25z"/><g class="st12"><path class="st14" d="M178 233.63h40.49v1.6H178z"/></g><g class="st12"><path class="st14" d="M178 237.91h40.49v1.6H178z"/></g><g class="st12"><path class="st14" d="M178 242.2h40.49v1.6H178z"/></g><g class="st12"><path class="st14" d="M178 245.87h40.49v1.6H178z"/></g><g class="st12"><path class="st14" d="M178 249.54h40.49v1.6H178z"/></g><g class="st12"><path class="st14" d="M178 253.21h40.49v1.6H178z"/></g><g class="st12"><path class="st14" d="M178 256.88h40.49v1.6H178z"/></g><g class="st12"><path class="st14" d="M178 260.55h40.49v1.6H178z"/></g><g class="st12"><path class="st14" d="M178 264.23h40.49v1.6H178z"/></g><g class="st12"><path class="st14" d="M178 267.9h40.49v1.6H178z"/></g><g class="st12"><path class="st14" d="M178 271.57h40.49v1.6H178z"/></g><g class="st12"><path class="st14" d="M178 275.24h40.49v1.6H178z"/></g><g class="st12"><path class="st14" d="M178 278.91h40.49v1.6H178z"/></g><g class="st12"><path class="st14" d="M178 282.58h40.49v1.6H178z"/></g></g><g><path class="st5" d="M175.09 298.49h48.25v57.28h-48.25z"/><g class="st12"><path class="st14" d="M178 302.34h40.49v1.6H178z"/></g><g class="st12"><path class="st14" d="M178 306.63h40.49v1.6H178z"/></g><g class="st12"><path class="st14" d="M178 310.91h40.49v1.6H178z"/></g><g class="st12"><path class="st14" d="M178 314.58h40.49v1.6H178z"/></g><g class="st12"><path class="st14" d="M178 318.25h40.49v1.6H178z"/></g><g class="st12"><path class="st14" d="M178 321.93h40.49v1.6H178z"/></g><g class="st12"><path class="st14" d="M178 325.6h40.49v1.6H178z"/></g><g class="st12"><path class="st14" d="M178 329.27h40.49v1.6H178z"/></g><g class="st12"><path class="st14" d="M178 332.94h40.49v1.6H178z"/></g><g class="st12"><path class="st14" d="M178 336.61h40.49v1.6H178z"/></g><g class="st12"><path class="st14" d="M178 340.28h40.49v1.6H178z"/></g><g class="st12"><path class="st14" d="M178 343.96h40.49v1.6H178z"/></g><g class="st12"><path class="st14" d="M178 347.63h40.49v1.6H178z"/></g><g class="st12"><path class="st14" d="M178 351.3h40.49v1.6H178z"/></g></g><g><path class="st5" d="M306.44 162.24h57.61v77.47h-57.61z"/><g class="st12"><path class="st13" d="M309.92 167.44h48.34v2.17h-48.34z"/></g><g class="st12"><path class="st13" d="M309.92 173.24h48.34v2.17h-48.34z"/></g><g class="st12"><path class="st13" d="M309.92 179.03h48.34v2.17h-48.34z"/></g><g class="st12"><path class="st13" d="M309.92 184h48.34v2.17h-48.34z"/></g><g class="st12"><path class="st13" d="M309.92 188.96h48.34v2.17h-48.34z"/></g><g class="st12"><path class="st13" d="M309.92 193.93h48.34v2.17h-48.34z"/></g><g class="st12"><path class="st13" d="M309.92 198.9h48.34v2.17h-48.34z"/></g><g class="st12"><path class="st13" d="M309.92 203.86h48.34v2.17h-48.34z"/></g><g class="st12"><path class="st13" d="M309.92 208.83h48.34V211h-48.34z"/></g><g class="st12"><path class="st13" d="M309.92 213.8h48.34v2.17h-48.34z"/></g><g class="st12"><path class="st13" d="M309.92 218.76h48.34v2.17h-48.34z"/></g><g class="st12"><path class="st13" d="M309.92 223.73h48.34v2.17h-48.34z"/></g><g class="st12"><path class="st13" d="M309.92 228.7h48.34v2.17h-48.34z"/></g><g class="st12"><path class="st13" d="M309.92 233.66h48.34v2.17h-48.34z"/></g></g><circle class="st11" cx="200.19" cy="165.13" r="2.45"/><circle class="st15" cx="200.19" cy="229.69" r="2.45"/><circle cx="197.74" cy="296.87" r="2.45" style="fill:#2c8b2c"/><circle cx="266.71" cy="162.15" r="2.45" style="fill:#3d53f4"/><circle class="st15" cx="335.25" cy="162.15" r="2.45"/><g><circle transform="rotate(-80.781 371.732 94.864)" class="st6" cx="371.73" cy="94.87" r="34.04"/><circle class="st5" cx="371.73" cy="94.87" r="30.06"/><path class="st6" d="M360.3 118.83a.61.61 0 0 1-.32-.08.718.718 0 0 1-.32-.97l11.04-21.93c.18-.36.61-.5.97-.32s.5.61.32.97l-11.04 21.93c-.13.26-.39.4-.65.4z"/><path class="st6" d="M371.73 95.69c-.6 0-1.08-.48-1.08-1.08V75.96c0-.6.48-1.08 1.08-1.08s1.08.48 1.08 1.08v18.65c.01.59-.48 1.08-1.08 1.08z"/><circle class="st6" cx="371.34" cy="94.6" r="3.31"/><circle class="st5" cx="371.34" cy="94.6" r="1.57"/></g><g><path class="st18" d="M299.67 491.66h14.9v7.45h-14.9zM303.17 499.11h6.46v44.86h-6.46z"/><circle class="st18" cx="274.84" cy="563.26" r="4.39"/><circle class="st18" cx="291.48" cy="563.26" r="4.39"/><circle class="st18" cx="319.95" cy="563.26" r="4.39"/><circle class="st18" cx="336.67" cy="562.43" r="4.39"/><path class="st18" d="M336.67 561.34c-.49 0-.97-.19-1.32-.58-.16-.17-15.88-16.94-33.61-16.14-17.48.77-24.99 14.51-25.3 15.1-.47.88-1.56 1.21-2.44.75a1.801 1.801 0 0 1-.75-2.44c.35-.66 8.74-16.16 28.34-17.02 19.4-.86 35.73 16.56 36.42 17.3.68.73.63 1.87-.1 2.55-.36.32-.8.48-1.24.48z"/><path class="st18" d="M292.8 562.66c-.34 0-.68-.1-.99-.3a1.817 1.817 0 0 1-.52-2.5l11.09-16.88c.55-.83 1.67-1.06 2.5-.52.83.55 1.06 1.67.52 2.5l-11.09 16.88c-.35.54-.92.82-1.51.82z"/><path class="st18" d="M319.95 562.17c-.65 0-1.29-.36-1.61-.98-.06-.11-5.75-11.03-13.52-15.67a1.788 1.788 0 0 1-.62-2.47c.51-.86 1.62-1.14 2.48-.62 8.66 5.17 14.63 16.63 14.87 17.11.46.89.11 1.97-.78 2.43-.26.13-.54.2-.82.2z"/><g><path class="st18" d="M257.05 487.63c-2 0-2.28-2.28-2.39-3.15l.43-.05c.07-1.26.12-5.46-.38-19.5-.48-13.46 1.6-22.28 6.16-26.21 2.89-2.49 5.69-2.05 6-1.99l-.8 4.26.07.01c-.05 0-1.23-.12-2.6 1.14-1.92 1.77-5.06 7.07-4.51 22.63.27 7.74.42 13.41.43 16.85.01 4 .01 5.83-2.19 6-.07.01-.15.01-.22.01zm.06-4.33H257c-.88.04-1.49.59-1.77 1.11l3.45-.43c-.35-.37-.89-.68-1.57-.68z"/></g><g><path class="st18" d="M346.28 487.62c-2.21-.17-2.2-2-2.19-6 .01-3.45.15-9.12.43-16.85.55-15.56-2.59-20.86-4.51-22.63-1.37-1.27-2.55-1.15-2.6-1.14l.07-.01-.8-4.26c.31-.06 3.11-.5 6 1.99 4.57 3.93 6.64 12.75 6.16 26.21-.5 14.04-.45 18.25-.38 19.5l.43.05c-.11.88-.39 3.15-2.39 3.15-.07 0-.15 0-.22-.01zm-1.4-3.64 3.45.43c-.28-.52-.89-1.07-1.77-1.11h-.11c-.69 0-1.23.31-1.57.68z"/></g><path class="st19" d="M340.15 478.58h-76.98v-82.04c0-20.42 16.56-36.98 36.98-36.98h3.01c20.42 0 36.98 16.56 36.98 36.98l.01 82.04z"/><path class="st20" d="M341.43 491.66h-79.55a7.16 7.16 0 0 1-7.16-7.16v-.58c0-3.95 3.2-7.16 7.16-7.16h79.55c3.95 0 7.16 3.2 7.16 7.16v.58a7.16 7.16 0 0 1-7.16 7.16z"/></g><g><path class="st21" d="M459.42 491.66h14.9v7.45h-14.9zM462.91 499.11h6.46v44.86h-6.46z"/><circle class="st21" cx="434.58" cy="563.26" r="4.39"/><circle class="st21" cx="451.22" cy="563.26" r="4.39"/><circle class="st21" cx="479.69" cy="563.26" r="4.39"/><circle class="st21" cx="496.41" cy="562.43" r="4.39"/><path class="st21" d="M496.41 561.34c-.49 0-.97-.19-1.32-.58-.16-.17-15.88-16.94-33.61-16.14-17.48.77-24.99 14.51-25.3 15.1-.47.88-1.56 1.21-2.44.75a1.801 1.801 0 0 1-.75-2.44c.35-.66 8.74-16.16 28.34-17.02 19.4-.86 35.73 16.56 36.42 17.3.68.73.63 1.87-.1 2.55-.36.32-.8.48-1.24.48z"/><path class="st21" d="M452.54 562.66c-.34 0-.68-.1-.99-.3a1.817 1.817 0 0 1-.52-2.5l11.09-16.88c.55-.83 1.67-1.06 2.5-.52.83.55 1.06 1.67.52 2.5l-11.09 16.88c-.34.54-.92.82-1.51.82z"/><path class="st21" d="M479.7 562.17c-.65 0-1.29-.36-1.61-.98-.06-.11-5.75-11.03-13.52-15.67a1.788 1.788 0 0 1-.62-2.47c.51-.86 1.62-1.14 2.48-.62 8.66 5.17 14.63 16.63 14.87 17.11.46.89.11 1.97-.78 2.43-.26.13-.55.2-.82.2z"/><g><path class="st21" d="M416.8 487.63c-2 0-2.28-2.28-2.39-3.15l.43-.05c.07-1.26.12-5.46-.38-19.5-.48-13.46 1.6-22.28 6.16-26.21 2.89-2.49 5.69-2.05 6-1.99l-.8 4.26.07.01c-.05 0-1.23-.12-2.6 1.14-1.92 1.77-5.06 7.07-4.51 22.63.27 7.74.42 13.41.43 16.85.01 4 .01 5.83-2.19 6-.08.01-.15.01-.22.01zm.05-4.33h-.11c-.88.04-1.49.59-1.77 1.11l3.45-.43c-.35-.37-.89-.68-1.57-.68z"/></g><g><path class="st21" d="M506.02 487.62c-2.21-.17-2.2-2-2.19-6 .01-3.45.15-9.12.43-16.85.55-15.56-2.59-20.86-4.51-22.63-1.37-1.27-2.55-1.15-2.6-1.14l.07-.01-.8-4.26c.31-.06 3.11-.5 6 1.99 4.57 3.93 6.64 12.75 6.16 26.21-.5 14.04-.45 18.25-.38 19.5l.43.05c-.11.88-.39 3.15-2.39 3.15-.07 0-.14 0-.22-.01zm-1.4-3.64 3.45.43c-.28-.52-.89-1.07-1.77-1.11h-.11c-.68 0-1.22.31-1.57.68z"/></g><path class="st19" d="M499.89 478.58h-76.98v-82.04c0-20.42 16.56-36.98 36.98-36.98h3.01c20.42 0 36.98 16.56 36.98 36.98v82.04h.01z"/><path class="st20" d="M501.18 491.66h-79.55a7.16 7.16 0 0 1-7.16-7.16v-.58c0-3.95 3.2-7.16 7.16-7.16h79.55c3.95 0 7.16 3.2 7.16 7.16v.58c-.01 3.96-3.21 7.16-7.16 7.16z"/></g><g><path class="st21" d="M583.51 495.45h-.11a2.527 2.527 0 0 1-2.42-2.63c.04-1.03 1.25-25.4 19.32-39.86 18.1-14.48 54.67-7.24 56.22-6.93a2.527 2.527 0 0 1-1.01 4.95c-.36-.07-35.8-7.08-52.05 5.92-16.24 12.99-17.42 35.9-17.43 36.13a2.536 2.536 0 0 1-2.52 2.42z"/><path class="st20" d="M660.53 498.98h-81.54a7.16 7.16 0 0 1-7.16-7.16v-.58c0-3.95 3.2-7.16 7.16-7.16h81.53c3.95 0 7.16 3.2 7.16 7.16v.58c.01 3.95-3.2 7.16-7.15 7.16z"/><path class="st19" d="M673.15 398.41c-10.92 27.31-4.97 63.07-5.96 74.19-.51 5.66-4.49 8.53-8.27 9.98-3.65 1.4-7.13 1.49-7.13 1.49s0-64.31 6.95-88.15c4.49-15.39 13.12-20.11 18.67-21.52 3.05-.78 5.17-.56 5.17-.56l-9.43 24.57z"/><path class="st20" d="M673.15 398.41c-10.92 27.31-4.97 63.07-5.96 74.19-.51 5.66-4.49 8.53-8.27 9.98-.06-13.72.24-30.86 1.32-50.9 1.52-28.06 9.6-46.22 17.18-57.28 3.05-.78 5.17-.56 5.17-.56l-9.44 24.57z"/><g><path class="st21" d="M615.4 499.39h14.9v7.45h-14.9zM618.9 506.84h6.46v44.86h-6.46z"/><circle class="st21" cx="590.57" cy="570.99" r="4.39"/><circle class="st21" cx="607.2" cy="570.99" r="4.39"/><circle class="st21" cx="635.68" cy="570.99" r="4.39"/><circle class="st21" cx="652.4" cy="570.16" r="4.39"/><path class="st21" d="M652.4 569.07c-.49 0-.97-.19-1.32-.58-.16-.17-15.88-16.94-33.61-16.14-17.48.77-24.99 14.51-25.3 15.1-.47.88-1.56 1.21-2.44.75a1.801 1.801 0 0 1-.75-2.44c.35-.66 8.74-16.16 28.34-17.02 19.4-.86 35.73 16.56 36.42 17.3.68.73.63 1.87-.1 2.55-.37.32-.8.48-1.24.48z"/><path class="st21" d="M608.53 570.39c-.34 0-.68-.1-.99-.3a1.817 1.817 0 0 1-.52-2.5l11.09-16.88c.55-.83 1.67-1.06 2.5-.52.83.55 1.06 1.67.52 2.5l-11.09 16.88c-.35.54-.93.82-1.51.82z"/><path class="st21" d="M635.68 569.9c-.65 0-1.29-.36-1.61-.98-.06-.11-5.75-11.03-13.52-15.67a1.788 1.788 0 0 1-.62-2.47c.51-.86 1.62-1.14 2.48-.62 8.66 5.17 14.63 16.63 14.87 17.11.46.89.11 1.97-.78 2.43-.26.13-.54.2-.82.2z"/></g></g><g><path class="st21" d="M618.08 510.48h-.11a2.527 2.527 0 0 1-2.42-2.63c.04-1.03 1.25-25.4 19.32-39.86 18.1-14.48 54.67-7.24 56.22-6.93a2.527 2.527 0 0 1-1.01 4.95c-.36-.07-35.8-7.08-52.05 5.92-16.24 12.99-17.42 35.9-17.43 36.13a2.515 2.515 0 0 1-2.52 2.42z"/><path class="st20" d="M695.1 514.01h-81.53a7.16 7.16 0 0 1-7.16-7.16v-.58c0-3.95 3.2-7.16 7.16-7.16h81.53c3.95 0 7.16 3.2 7.16 7.16v.58a7.16 7.16 0 0 1-7.16 7.16z"/><path class="st19" d="M707.72 413.44c-10.92 27.31-4.97 63.07-5.96 74.19-.51 5.66-4.49 8.53-8.27 9.98-3.65 1.4-7.13 1.49-7.13 1.49s0-64.31 6.95-88.15c4.49-15.39 13.12-20.11 18.67-21.52 3.05-.78 5.17-.56 5.17-.56l-9.43 24.57z"/><path class="st20" d="M707.72 413.44c-10.92 27.31-4.97 63.07-5.96 74.19-.51 5.66-4.49 8.53-8.27 9.98-.06-13.72.24-30.86 1.32-50.9 1.52-28.06 9.6-46.22 17.18-57.28 3.05-.78 5.17-.56 5.17-.56l-9.44 24.57z"/><g><path class="st21" d="M649.97 514.42h14.9v7.45h-14.9zM653.47 521.87h6.46v44.86h-6.46z"/><circle class="st21" cx="625.14" cy="586.02" r="4.39"/><circle class="st21" cx="641.78" cy="586.02" r="4.39"/><circle class="st21" cx="670.25" cy="586.02" r="4.39"/><circle class="st21" cx="686.97" cy="585.19" r="4.39"/><path class="st21" d="M686.97 584.1c-.49 0-.97-.19-1.32-.58-.16-.17-15.88-16.94-33.61-16.14-17.48.77-24.99 14.51-25.3 15.1-.47.88-1.56 1.21-2.44.75a1.801 1.801 0 0 1-.75-2.44c.35-.66 8.74-16.16 28.34-17.02 19.4-.86 35.73 16.56 36.42 17.3.68.73.63 1.87-.1 2.55-.36.32-.8.48-1.24.48z"/><path class="st21" d="M643.1 585.43c-.34 0-.68-.1-.99-.3a1.817 1.817 0 0 1-.52-2.5l11.09-16.88c.55-.83 1.67-1.06 2.5-.52.83.55 1.06 1.67.52 2.5l-11.09 16.88c-.35.53-.92.82-1.51.82z"/><path class="st21" d="M670.25 584.93c-.65 0-1.29-.36-1.61-.98-.06-.11-5.75-11.03-13.52-15.67a1.788 1.788 0 0 1-.62-2.47c.51-.86 1.62-1.14 2.48-.62 8.66 5.17 14.63 16.63 14.87 17.11.46.89.11 1.97-.78 2.43-.26.14-.54.2-.82.2z"/></g></g><g><path class="st21" d="M181.75 496.63h.11a2.527 2.527 0 0 0 2.42-2.63c-.04-1.03-1.25-25.4-19.32-39.86-18.1-14.48-54.67-7.24-56.22-6.93a2.527 2.527 0 0 0 1.01 4.95c.36-.07 35.8-7.08 52.05 5.92 16.24 12.99 17.42 35.9 17.43 36.13a2.529 2.529 0 0 0 2.52 2.42z"/><path class="st20" d="M104.73 500.16h81.53c3.95 0 7.16-3.2 7.16-7.16v-.58c0-3.95-3.2-7.16-7.16-7.16h-81.53a7.16 7.16 0 0 0-7.16 7.16v.58c.01 3.95 3.21 7.16 7.16 7.16z"/><path class="st19" d="M92.11 399.59c10.92 27.31 4.97 63.07 5.96 74.19.51 5.66 4.49 8.53 8.27 9.98 3.65 1.4 7.13 1.49 7.13 1.49s0-64.31-6.95-88.15c-4.49-15.39-13.12-20.11-18.67-21.52-3.05-.78-5.17-.56-5.17-.56l9.43 24.57z"/><path class="st20" d="M92.11 399.59c10.92 27.31 4.97 63.07 5.96 74.19.51 5.66 4.49 8.53 8.27 9.98.06-13.72-.24-30.86-1.32-50.9-1.52-28.06-9.6-46.22-17.18-57.28-3.05-.78-5.17-.56-5.17-.56l9.44 24.57z"/><g><path class="st21" d="M134.96 500.57h14.9v7.45h-14.9zM139.9 508.03h6.46v44.86h-6.46z"/><circle class="st21" cx="174.7" cy="572.17" r="4.39"/><circle class="st21" cx="158.06" cy="572.17" r="4.39"/><circle class="st21" cx="129.59" cy="572.17" r="4.39"/><circle class="st21" cx="112.87" cy="571.34" r="4.39"/><path class="st21" d="M112.87 570.25c.49 0 .97-.19 1.32-.58.16-.17 15.88-16.94 33.61-16.14 17.48.77 24.99 14.51 25.3 15.1.47.88 1.56 1.21 2.44.75.88-.47 1.22-1.55.75-2.44-.35-.66-8.74-16.16-28.34-17.02-19.4-.86-35.73 16.56-36.42 17.3-.68.73-.63 1.87.1 2.55.36.32.8.48 1.24.48z"/><path class="st21" d="M156.74 571.57c.34 0 .68-.1.99-.3.83-.55 1.06-1.67.52-2.5l-11.09-16.88a1.817 1.817 0 0 0-2.5-.52c-.83.55-1.06 1.67-.52 2.5l11.09 16.88c.34.54.92.82 1.51.82z"/><path class="st21" d="M129.58 571.08c.65 0 1.29-.36 1.61-.98.06-.11 5.75-11.03 13.52-15.67.86-.51 1.14-1.62.62-2.47a1.797 1.797 0 0 0-2.48-.62c-8.66 5.17-14.63 16.63-14.87 17.11-.46.89-.11 1.97.78 2.43.26.13.55.2.82.2z"/></g></g><g><path class="st21" d="M147.18 511.66h.11a2.527 2.527 0 0 0 2.42-2.63c-.04-1.03-1.25-25.4-19.32-39.86-18.1-14.48-54.67-7.24-56.22-6.93a2.527 2.527 0 0 0 1.01 4.95c.36-.07 35.8-7.08 52.05 5.92 16.24 12.99 17.42 35.9 17.43 36.13a2.522 2.522 0 0 0 2.52 2.42z"/><path class="st20" d="M70.16 515.19h81.53c3.95 0 7.16-3.2 7.16-7.16v-.58c0-3.95-3.2-7.16-7.16-7.16H70.16a7.16 7.16 0 0 0-7.16 7.16v.58a7.16 7.16 0 0 0 7.16 7.16z"/><path class="st19" d="M57.54 414.63c10.92 27.31 4.97 63.07 5.96 74.19.51 5.66 4.49 8.53 8.27 9.98 3.65 1.4 7.13 1.49 7.13 1.49s0-64.31-6.95-88.15c-4.49-15.39-13.12-20.11-18.67-21.52-3.05-.78-5.17-.56-5.17-.56l9.43 24.57z"/><path class="st20" d="M57.54 414.63c10.92 27.31 4.97 63.07 5.96 74.19.51 5.66 4.49 8.53 8.27 9.98.06-13.72-.24-30.86-1.32-50.9-1.52-28.06-9.6-46.22-17.18-57.28-3.05-.78-5.17-.56-5.17-.56l9.44 24.57z"/><g><path class="st21" d="M100.39 515.6h14.9v7.45h-14.9z"/><path class="st21" d="M105.33 523.05h6.46v44.86h-6.46z"/><circle class="st21" cx="140.12" cy="587.2" r="4.39"/><circle class="st21" cx="123.49" cy="587.2" r="4.39"/><circle class="st21" cx="95.01" cy="587.2" r="4.39"/><circle class="st21" cx="78.29" cy="586.38" r="4.39"/><path class="st21" d="M78.29 585.28c.49 0 .97-.19 1.32-.58.16-.17 15.88-16.94 33.61-16.14 17.48.77 24.99 14.51 25.3 15.1.47.88 1.56 1.21 2.44.75.88-.47 1.22-1.55.75-2.44-.35-.66-8.74-16.16-28.34-17.02-19.4-.86-35.73 16.56-36.42 17.3a1.803 1.803 0 0 0 1.34 3.03z"/><path class="st21" d="M122.16 586.61c.34 0 .68-.1.99-.3.83-.55 1.06-1.67.52-2.5l-11.09-16.88a1.817 1.817 0 0 0-2.5-.52c-.83.55-1.06 1.67-.52 2.5l11.09 16.88c.35.53.93.82 1.51.82z"/><path class="st21" d="M95.01 586.11c.65 0 1.29-.36 1.61-.98.06-.11 5.75-11.03 13.52-15.67.86-.51 1.14-1.62.62-2.47a1.797 1.797 0 0 0-2.48-.62c-8.66 5.17-14.63 16.63-14.87 17.11-.46.89-.11 1.97.78 2.43.26.14.54.2.82.2z"/></g></g><g><path class="st22" d="M137.09 446.72h493.16v16.89H137.09z"/><path class="st22" d="M167.39 463.6h16.89v127.63h-16.89zM584.06 463.6h16.89v127.63h-16.89zM200.19 463.6h14.88v98.83h-14.88zM551.31 463.6h14.88v98.83h-14.88z"/></g><g><path transform="rotate(-72.38 238.25 422.025)" class="st23" d="M216.36 420.22h43.77v3.61h-43.77z"/><path class="st23" d="M170.31 441.59h62.63v5.13h-62.63z"/></g><g><path transform="rotate(-17.617 528.243 421.864)" class="st23" d="M526.42 400h3.61v43.77h-3.61z"/><path class="st23" d="M533.52 441.4h62.63v5.13h-62.63z"/></g><g><path class="st24" d="M757.53 497.25c.14.89.99 1.49 1.87 1.35 2.05-.33 7.07-.55 9.72 1.47-1.85 4.68-5.1 8.08-7.16 9.89-.05-.07-.12-.13-.18-.19-4.18-3.71-4.71-5.79-4.74-6.52-.03-.38.08-.58.13-.67-.03.03-.05.03-.05.03l-1.32-1.95c-.22.16 0 .42-.07 2.3-.09 2.47 1.66 5.38 5.22 8.67-1.4.18-6.05.44-9.3.23l-.76-1.68c-1.1-2.43-1.47-4.81-1.47-6.88 0-4.1 1.43-7.06 1.45-7.11.32-.65.06-1.43-.59-1.75-.64-.32-.12-.06-.44.58-.16.32-3.82 7.84-.02 16.23l-1.17.29c-2.28-.33-6.01-.91-8.38-1.87.22-8.07 5.17-15.74 5.23-15.84.39-.81.05-.48-.76-.87-.82-.39.17-.7-.22.1-.2.4-5.56 6.88-6.14 15.03-1.57-.92-5.02-4.66-6.39-6.05-.29-9.74 6.72-12.74 7.07-12.89 1.5-.59 4.2.32 3.61-1.18-.59-1.51-2.29-.31-3.8.28-.36.14-7.18 2.89-9.79 10.98-7.11-15.85.57-28.04 12.73-23.69 0 0 8.83-17.2 23.47 2.31-6.41.4-11.2 3.25-11.46 3.46-1.22 1.06-3.31.28-2.27 1.51a2.94 2.94 0 0 0 4.13.34c.22-.18 4.79-3.92 11.47-2.34.97 1.69 1.7 5.28 2.24 6.85-5.31-1.45-11.43-.74-12.43-.61-1.07.14-1.83-.83-1.68.24a1.949 1.949 0 0 0 2.19 1.68c2.52-.33 9.06-.59 12.97 1.26.28 2.34.13 5.82-.3 7.82-4.42-2.51-10.88-1.5-11.24-1.45-.92.22-1.52-.25-1.37.64z"/><path class="st24" d="M741.78 475.59c-.78 6.68-1.75 13.31-2.77 19.93-.48 3.32-1.06 6.62-1.56 9.93l-1.62 9.91-3.31 19.8c-.3 1.65-.51 3.3-.79 4.95l-.4 2.48-.35 2.48-.37 2.48-.29 2.49c-.25 1.66-.29 3.32-.42 5.01-.15-1.66-.33-3.36-.28-5.04l.01-2.53.11-2.52.14-2.52.2-2.51c.14-1.68.29-3.35.48-5.02.33-3.35.8-6.67 1.24-10 .47-3.32 1-6.64 1.53-9.95.58-3.31 1.14-6.61 1.77-9.91.64-3.29 1.26-6.59 1.98-9.87 1.38-6.58 2.89-13.12 4.7-19.59zM759.9 452.13c.15.93 1.04 1.56 1.96 1.42 2.15-.35 7.44-.58 10.23 1.55-1.95 4.92-5.37 8.5-7.54 10.4a1.19 1.19 0 0 0-.19-.2c-4.4-3.9-4.95-6.09-4.99-6.86-.03-.4.08-.61.14-.7-.03.03-.05.03-.05.03l-1.39-2.05c-.23.17 0 .45-.08 2.42-.1 2.59 1.74 5.66 5.49 9.12-1.48.19-6.36.46-9.79.25l-.8-1.76c-1.16-2.56-1.54-5.06-1.54-7.24 0-4.32 1.5-7.43 1.52-7.47.34-.68.06-1.5-.62-1.84-.67-.34-.13-.06-.47.61-.16.34-4.02 8.24-.02 17.07l-1.24.31c-2.4-.34-6.32-.95-8.82-1.96.23-8.49 5.44-16.55 5.5-16.66.41-.85.05-.51-.8-.92-.86-.41.18-.74-.23.11-.21.42-5.85 7.24-6.46 15.8-1.65-.97-5.28-4.9-6.73-6.36-.3-10.24 7.07-13.4 7.43-13.55 1.58-.62 4.41.34 3.8-1.24-.62-1.59-2.41-.32-4 .3-.38.15-7.55 3.04-10.3 11.55-7.47-16.67.6-29.49 13.39-24.92 0 0 9.29-18.09 24.68 2.43-6.74.43-11.78 3.42-12.05 3.64-1.28 1.11-3.49.3-2.39 1.59a3.099 3.099 0 0 0 4.34.36c.23-.19 5.04-4.12 12.06-2.46 1.02 1.78 1.79 5.55 2.36 7.21-5.59-1.52-12.02-.78-13.07-.64-1.13.15-1.92-.87-1.77.25a2.053 2.053 0 0 0 2.31 1.77c2.65-.35 9.53-.62 13.64 1.32.3 2.46.14 6.12-.32 8.23-4.65-2.64-11.45-1.58-11.82-1.52-.89.17-1.53-.33-1.37.61z"/><path class="st24" d="M743.68 430.1c-.78 10.94-1.75 21.81-2.77 32.66-.48 5.43-1.06 10.84-1.56 16.26l-1.62 16.24-3.31 32.43c-.3 2.7-.51 5.41-.79 8.11l-.4 4.06-.35 4.06-.37 4.07-.29 4.08c-.25 2.72-.29 5.44-.42 8.2-.15-2.73-.33-5.51-.28-8.26l.01-4.15.11-4.13.14-4.13.2-4.12c.14-2.74.29-5.49.48-8.23.33-5.48.8-10.93 1.24-16.38.47-5.45 1-10.88 1.53-16.3.58-5.42 1.14-10.83 1.77-16.23.64-5.39 1.26-10.79 1.98-16.16 1.38-10.76 2.9-21.47 4.7-32.08z"/><path class="st24" d="M702.68 512c-.14.89-.99 1.49-1.87 1.35-2.05-.33-7.07-.55-9.72 1.47 1.85 4.68 5.1 8.08 7.16 9.89.05-.07.12-.13.18-.19 4.18-3.71 4.71-5.79 4.74-6.52.03-.38-.08-.58-.13-.67.03.03.05.03.05.03l1.32-1.95c.22.16 0 .42.07 2.3.09 2.47-1.66 5.38-5.22 8.67 1.4.18 6.05.44 9.3.23l.76-1.68c1.1-2.43 1.47-4.81 1.47-6.88 0-4.1-1.43-7.06-1.45-7.11-.32-.65-.06-1.43.59-1.75.64-.32.12-.06.44.58.16.32 3.82 7.84.02 16.23l1.17.29c2.28-.33 6.01-.91 8.38-1.87-.22-8.07-5.17-15.74-5.23-15.84-.39-.81-.05-.48.76-.87.82-.39-.17-.7.22.1.2.4 5.56 6.88 6.14 15.03 1.57-.92 5.02-4.66 6.39-6.05.29-9.74-6.72-12.74-7.07-12.89-1.5-.59-4.2.32-3.61-1.18.59-1.51 2.29-.31 3.8.28.36.14 7.18 2.89 9.79 10.98 7.11-15.85-.57-28.04-12.73-23.69 0 0-8.83-17.2-23.47 2.31 6.41.4 11.2 3.25 11.46 3.46 1.22 1.06 3.31.28 2.27 1.51a2.94 2.94 0 0 1-4.13.34c-.22-.18-4.79-3.92-11.47-2.34-.97 1.69-1.7 5.28-2.24 6.85 5.31-1.45 11.43-.74 12.43-.61 1.07.14 1.83-.83 1.68.24a1.949 1.949 0 0 1-2.19 1.68c-2.52-.33-9.06-.59-12.97 1.26-.28 2.34-.13 5.82.3 7.82 4.42-2.51 10.88-1.5 11.24-1.45.91.22 1.52-.24 1.37.64z"/><path class="st24" d="M718.43 490.34c.63 5.28 1.41 10.53 2.23 15.77.39 2.62.85 5.23 1.26 7.85l1.31 7.84 2.66 15.66c.24 1.3.41 2.61.63 3.92l.32 1.96.28 1.96.3 1.96.23 1.97c.2 1.32.23 2.63.34 3.96.12-1.32.26-2.66.23-3.99l-.01-2-.09-2-.11-2-.16-1.99c-.11-1.33-.23-2.65-.39-3.97-.27-2.65-.64-5.28-1-7.91-.38-2.63-.81-5.25-1.23-7.87-.46-2.62-.92-5.23-1.42-7.84-.52-2.6-1.02-5.21-1.59-7.81-1.12-5.18-2.34-10.35-3.79-15.47z"/><g><path class="st24" d="M698.5 462.68a1.64 1.64 0 0 1-2.03 1.09c-1.99-.6-6.94-1.48-9.83.18 1.22 4.88 3.99 8.68 5.8 10.75.06-.06.13-.11.21-.16 4.64-3.12 5.44-5.12 5.56-5.83.08-.37 0-.59-.04-.68.02.03.04.04.04.04l1.56-1.76c.19.19-.06.42-.23 2.29-.24 2.46-2.35 5.12-6.32 7.91 1.37.37 5.94 1.23 9.19 1.46l.97-1.56c1.41-2.27 2.09-4.57 2.36-6.63.54-4.07-.48-7.19-.5-7.23-.23-.68.13-1.42.81-1.66.68-.23.13-.04.36.63.11.34 2.76 8.27-2.13 16.09l1.13.45c2.3-.02 6.08-.11 8.56-.74.85-8.03-3.05-16.28-3.09-16.39-.28-.85.01-.49.87-.77s-.08-.72.21.13c.14.42 4.6 7.56 4.1 15.71 1.67-.71 5.6-3.95 7.14-5.15 1.57-9.61-4.98-13.52-5.3-13.71-1.41-.79-4.2-.24-3.43-1.65.78-1.42 2.31 0 3.73.78.34.19 6.73 3.81 8.26 12.18 9.14-14.77 3.14-27.87-9.49-25.17 0 0-6.48-18.22-23.57-.81 6.3 1.25 10.68 4.7 10.9 4.95 1.07 1.21 3.25.72 2.05 1.79-.67.6-1.53.84-2.35.73-.67-.09-1.3-.4-1.79-.93-.2-.21-4.23-4.51-11.06-3.83-1.18 1.55-2.39 5.01-3.13 6.49 5.46-.73 11.43.78 12.4 1.04 1.04.28 1.92-.58 1.64.46a1.963 1.963 0 0 1-2.4 1.38c-2.45-.66-8.9-1.78-13.02-.46-.59 2.28-.9 5.75-.74 7.79 4.71-1.91 10.99-.05 11.33.05.87.27 1.54-.11 1.27.75z"/><path class="st24" d="M712.54 451.04c1.94 9.55 4.07 19.01 6.24 28.46 1.06 4.73 2.21 9.43 3.29 14.15l3.36 14.12 6.77 28.2c.58 2.34 1.09 4.71 1.65 7.06l.83 3.53.78 3.54.8 3.54.72 3.56c.54 2.37.86 4.76 1.28 7.18-.13-2.42-.23-4.9-.57-7.32l-.44-3.65-.55-3.63-.57-3.63-.63-3.61c-.43-2.4-.87-4.81-1.35-7.19-.91-4.79-1.95-9.54-2.98-14.29-1.05-4.74-2.16-9.47-3.27-14.19-1.15-4.7-2.3-9.41-3.5-14.1-1.22-4.68-2.42-9.36-3.71-14.01-2.52-9.33-5.19-18.59-8.15-27.72z"/></g><path class="st25" d="m702.53 537.68 5.69 35.91s26.63 5.98 35.61 0l7.18-34.71-48.48-1.2z"/><path class="st25" d="M751.11 540.37h-49.59a2.59 2.59 0 0 1-2.59-2.59v-.21a2.59 2.59 0 0 1 2.59-2.59h49.59a2.59 2.59 0 0 1 2.59 2.59v.21c0 1.44-1.16 2.59-2.59 2.59z"/></g><g><path class="st24" d="M42.87 491.71c.14.89.99 1.49 1.87 1.35 2.05-.33 7.07-.55 9.72 1.47-1.85 4.68-5.1 8.08-7.16 9.89-.05-.07-.12-.13-.18-.19-4.18-3.71-4.71-5.79-4.74-6.52-.03-.38.08-.58.13-.67-.03.03-.05.03-.05.03l-1.32-1.95c-.22.16 0 .42-.07 2.3-.09 2.47 1.66 5.38 5.22 8.67-1.4.18-6.05.44-9.3.23l-.76-1.68c-1.1-2.43-1.47-4.81-1.47-6.88 0-4.1 1.43-7.06 1.45-7.11.32-.65.06-1.43-.59-1.75-.64-.32-.12-.06-.44.58-.16.32-3.82 7.84-.02 16.23l-1.17.29c-2.28-.33-6.01-.91-8.38-1.87.22-8.07 5.17-15.74 5.23-15.84.39-.81.05-.48-.76-.87-.82-.39.17-.7-.22.1-.2.4-5.56 6.88-6.14 15.03-1.57-.92-5.02-4.66-6.39-6.05-.29-9.74 6.72-12.74 7.07-12.89 1.5-.59 4.2.32 3.61-1.18-.59-1.51-2.29-.31-3.8.28-.36.14-7.18 2.89-9.79 10.98-7.11-15.85.57-28.04 12.73-23.69 0 0 8.83-17.2 23.47 2.31-6.41.4-11.2 3.25-11.46 3.46-1.22 1.06-3.31.28-2.27 1.51a2.94 2.94 0 0 0 4.13.34c.22-.18 4.79-3.92 11.47-2.34.97 1.69 1.7 5.28 2.24 6.85-5.31-1.45-11.43-.74-12.43-.61-1.07.14-1.83-.83-1.68.24a1.949 1.949 0 0 0 2.19 1.68c2.52-.33 9.06-.59 12.97 1.26.28 2.34.13 5.82-.3 7.82-4.42-2.51-10.88-1.5-11.24-1.45-.92.22-1.52-.25-1.37.64z"/><path class="st24" d="M27.12 470.04c-.78 6.68-1.75 13.31-2.77 19.93-.48 3.32-1.06 6.62-1.56 9.93l-1.62 9.91-3.31 19.8c-.3 1.65-.51 3.3-.79 4.95l-.4 2.48-.35 2.48-.37 2.48-.29 2.49c-.25 1.66-.29 3.32-.42 5.01-.15-1.66-.33-3.36-.28-5.04l.01-2.53.11-2.52.14-2.52.2-2.51c.14-1.68.29-3.35.48-5.02.33-3.35.8-6.67 1.24-10 .47-3.32 1-6.64 1.53-9.95.58-3.31 1.14-6.61 1.77-9.91.64-3.29 1.26-6.59 1.98-9.87 1.38-6.57 2.89-13.11 4.7-19.59zM45.24 446.58c.15.93 1.04 1.56 1.96 1.42 2.15-.35 7.44-.58 10.23 1.55-1.95 4.92-5.37 8.5-7.54 10.4a1.19 1.19 0 0 0-.19-.2c-4.4-3.9-4.95-6.09-4.99-6.86-.03-.4.08-.61.14-.7-.03.03-.05.03-.05.03l-1.39-2.05c-.23.17 0 .45-.08 2.42-.1 2.59 1.74 5.66 5.49 9.12-1.48.19-6.36.46-9.79.25l-.8-1.76c-1.16-2.56-1.54-5.06-1.54-7.24 0-4.32 1.5-7.43 1.52-7.47.34-.68.06-1.5-.62-1.84-.67-.34-.13-.06-.47.61-.16.34-4.02 8.24-.02 17.07l-1.24.31c-2.4-.34-6.32-.95-8.82-1.96.23-8.49 5.44-16.55 5.5-16.66.41-.85.05-.51-.8-.92-.86-.41.18-.74-.23.11-.21.42-5.85 7.24-6.46 15.8-1.65-.97-5.28-4.9-6.73-6.36-.3-10.24 7.07-13.4 7.43-13.55 1.58-.62 4.41.34 3.8-1.24-.62-1.59-2.41-.32-4 .3-.38.15-7.55 3.04-10.3 11.55-7.47-16.67.6-29.49 13.39-24.92 0 0 9.29-18.09 24.68 2.43-6.74.43-11.78 3.42-12.05 3.64-1.28 1.11-3.49.3-2.39 1.59a3.099 3.099 0 0 0 4.34.36c.23-.19 5.04-4.12 12.06-2.46 1.02 1.78 1.79 5.55 2.36 7.21-5.59-1.52-12.02-.78-13.07-.64-1.13.15-1.92-.87-1.77.25a2.053 2.053 0 0 0 2.31 1.77c2.65-.35 9.53-.62 13.64 1.32.3 2.46.14 6.12-.32 8.23-4.65-2.64-11.45-1.58-11.82-1.52-.89.17-1.53-.32-1.37.61z"/><path class="st24" d="M29.02 424.56c-.78 10.94-1.75 21.81-2.77 32.66-.48 5.43-1.06 10.84-1.56 16.26l-1.62 16.24-3.31 32.44c-.3 2.7-.51 5.41-.79 8.11l-.4 4.06-.35 4.06-.37 4.07-.29 4.08c-.25 2.72-.29 5.44-.42 8.2-.15-2.73-.33-5.51-.28-8.26l.01-4.15.11-4.13.14-4.13.2-4.12c.14-2.74.29-5.49.48-8.23.33-5.48.8-10.93 1.24-16.38.47-5.45 1-10.88 1.53-16.3.58-5.42 1.14-10.83 1.77-16.23.64-5.39 1.26-10.79 1.98-16.16 1.38-10.77 2.9-21.48 4.7-32.09z"/><path class="st24" d="M-11.98 506.46c-.14.89-.99 1.49-1.87 1.35-2.05-.33-7.07-.55-9.72 1.47 1.85 4.68 5.1 8.08 7.16 9.89.05-.07.12-.13.18-.19 4.18-3.71 4.71-5.79 4.74-6.52.03-.38-.08-.58-.13-.67.03.03.05.03.05.03l1.32-1.95c.22.16 0 .42.07 2.3.09 2.47-1.66 5.38-5.22 8.67 1.4.18 6.05.44 9.3.23l.76-1.68c1.1-2.43 1.47-4.81 1.47-6.88 0-4.1-1.43-7.06-1.45-7.11-.32-.65-.06-1.43.59-1.75.64-.32.12-.06.44.58.16.32 3.82 7.84.02 16.23l1.17.29c2.28-.33 6.01-.91 8.38-1.87-.22-8.07-5.17-15.74-5.23-15.84-.39-.81-.05-.48.76-.87.82-.39-.17-.7.22.1.2.4 5.56 6.88 6.14 15.03 1.57-.92 5.02-4.66 6.39-6.05.29-9.74-6.72-12.74-7.07-12.89-1.5-.59-4.2.32-3.61-1.18.59-1.51 2.29-.31 3.8.28.36.14 7.18 2.89 9.79 10.98 7.11-15.85-.57-28.04-12.73-23.69 0 0-8.83-17.21-23.47 2.31 6.41.4 11.2 3.25 11.46 3.46 1.22 1.06 3.31.28 2.27 1.51a2.94 2.94 0 0 1-4.13.34c-.22-.18-4.79-3.92-11.47-2.34-.97 1.69-1.7 5.28-2.24 6.85 5.31-1.45 11.43-.74 12.43-.61 1.07.14 1.83-.83 1.68.24a1.949 1.949 0 0 1-2.19 1.68c-2.52-.33-9.06-.59-12.97 1.26-.28 2.34-.13 5.82.3 7.82 4.42-2.51 10.88-1.5 11.24-1.45.91.22 1.52-.25 1.37.64z"/><path class="st24" d="M3.77 484.8c.63 5.28 1.41 10.53 2.23 15.77.39 2.62.85 5.23 1.26 7.85l1.31 7.84 2.66 15.66c.24 1.3.41 2.61.63 3.92l.32 1.96.28 1.96.3 1.96.23 1.97c.2 1.32.23 2.63.34 3.96.12-1.32.26-2.66.23-3.99l-.01-2-.09-2-.11-2-.16-1.99c-.11-1.33-.23-2.65-.39-3.97-.27-2.65-.64-5.28-1-7.91-.38-2.63-.81-5.25-1.23-7.87-.46-2.62-.92-5.23-1.42-7.84-.52-2.6-1.02-5.21-1.59-7.81-1.12-5.18-2.34-10.35-3.79-15.47z"/><g><path class="st24" d="M-16.16 457.13a1.64 1.64 0 0 1-2.03 1.09c-1.99-.6-6.94-1.48-9.83.18 1.22 4.88 3.99 8.68 5.8 10.75.06-.06.13-.11.21-.16 4.64-3.12 5.44-5.12 5.56-5.83.08-.37 0-.59-.04-.68.02.03.04.04.04.04l1.56-1.76c.19.19-.06.42-.23 2.29-.24 2.46-2.35 5.12-6.32 7.91 1.37.37 5.94 1.23 9.19 1.46l.97-1.56c1.41-2.27 2.09-4.57 2.36-6.63.54-4.07-.48-7.19-.5-7.23-.23-.68.13-1.42.81-1.66.68-.23.13-.04.36.63.11.34 2.76 8.27-2.13 16.09l1.13.45c2.3-.02 6.08-.11 8.56-.74.85-8.03-3.05-16.28-3.09-16.39-.28-.85.01-.49.87-.77s-.08-.72.21.13c.14.42 4.6 7.56 4.1 15.71 1.67-.71 5.6-3.95 7.14-5.15 1.57-9.61-4.98-13.52-5.3-13.71-1.41-.79-4.2-.24-3.43-1.65.78-1.42 2.31 0 3.73.78.34.19 6.73 3.81 8.26 12.18 9.14-14.77 3.14-27.87-9.49-25.17 0 0-6.48-18.22-23.57-.81 6.3 1.25 10.68 4.7 10.9 4.95 1.07 1.21 3.25.72 2.05 1.79-.67.6-1.53.84-2.35.73-.67-.09-1.3-.4-1.79-.93-.2-.21-4.23-4.51-11.06-3.83-1.18 1.55-2.39 5.01-3.13 6.49 5.46-.73 11.43.78 12.4 1.04 1.04.28 1.92-.58 1.64.46A1.963 1.963 0 0 1-15 449c-2.45-.66-8.9-1.78-13.02-.46-.59 2.28-.9 5.75-.74 7.79 4.71-1.91 10.99-.05 11.33.05.87.28 1.54-.11 1.27.75z"/><path class="st24" d="M-2.12 445.5c1.94 9.55 4.07 19.01 6.24 28.46 1.06 4.73 2.21 9.43 3.29 14.15l3.36 14.12 6.77 28.2c.58 2.34 1.09 4.71 1.65 7.06l.83 3.53.78 3.54.8 3.54.72 3.56c.54 2.37.86 4.76 1.28 7.18-.13-2.42-.23-4.9-.57-7.32l-.44-3.66-.55-3.63-.57-3.63-.63-3.61c-.43-2.4-.87-4.81-1.35-7.19-.91-4.79-1.95-9.54-2.98-14.29-1.05-4.74-2.16-9.47-3.27-14.19-1.15-4.7-2.3-9.41-3.5-14.1-1.22-4.68-2.42-9.36-3.71-14.01-2.52-9.32-5.19-18.58-8.15-27.71z"/></g><path class="st25" d="m-12.13 532.14 5.69 35.91s26.63 5.98 35.61 0l7.18-34.71-48.48-1.2z"/><path class="st25" d="M36.45 534.83h-49.59a2.59 2.59 0 0 1-2.59-2.59v-.21a2.59 2.59 0 0 1 2.59-2.59h49.59a2.59 2.59 0 0 1 2.59 2.59v.21a2.59 2.59 0 0 1-2.59 2.59z"/></g><g><path class="st26" d="M343.1 641.81H225.03c-12.92 0-23.39-10.47-23.39-23.39V376.28c0-12.92 10.47-23.39 23.39-23.39H343.1c12.92 0 23.39 10.47 23.39 23.39v242.13c0 12.93-10.47 23.4-23.39 23.4z"/><path d="M343.94 623.98H224.97c-6.08 0-11.01-4.93-11.01-11.01V379.04c0-6.08 4.93-11.01 11.01-11.01h118.97c6.08 0 11.01 4.93 11.01 11.01v233.93c0 6.08-4.93 11.01-11.01 11.01z" style="fill:#eaf4fe"/><path class="st26" d="M306.16 379.31h-49.04c-8.74 0-15.82-7.08-15.82-15.82v-10.6h80.69v10.6c-.01 8.74-7.09 15.82-15.83 15.82z"/><path class="st7" d="M330.45 418.36h-93.29c-3.23 0-5.85-2.62-5.85-5.85v-3.92c0-3.23 2.62-5.85 5.85-5.85h93.29c3.23 0 5.85 2.62 5.85 5.85v3.92c0 3.23-2.62 5.85-5.85 5.85zM316.21 582.77h-61.58c-7.37 0-13.34-5.97-13.34-13.34v-1.09c0-7.37 5.97-13.34 13.34-13.34h61.58c7.37 0 13.34 5.97 13.34 13.34v1.09c0 7.36-5.97 13.34-13.34 13.34z"/><path class="st28" d="M244.33 447.34h62.47v1.89h-62.47zM250.84 453.65h12.15v1.89h-12.15zM278.6 453.65h28.2v1.89h-28.2z"/><circle class="st8" cx="329.55" cy="452.19" r="6.94"/><path class="st28" d="M244.33 484.21h62.47v1.89h-62.47zM260.82 491.18h12.15v1.68h-12.15zM278.6 491.16h28.2v1.89h-28.2z"/><circle class="st8" cx="329.55" cy="489.06" r="6.94"/><path class="st28" d="M244.33 524.12h62.47v1.89h-62.47zM278.6 530.43h28.2v1.89h-28.2zM231.32 530.12h39.69v1.46h-39.69z"/><circle class="st8" cx="329.55" cy="528.97" r="6.94"/><circle class="st29" cx="271.01" cy="595.73" r="2.87"/><circle class="st29" cx="283.45" cy="595.73" r="2.87"/><circle class="st29" cx="293.86" cy="595.73" r="2.87"/><circle class="st29" cx="297.97" cy="367.25" r="3.29"/><circle class="st29" cx="283.45" cy="367.25" r="4.21"/><g><path d="M323.67 603.56h16.97v1.89h-16.97z"/></g><g><path d="M323.67 608.01h16.97v1.89h-16.97z"/></g><g><path d="M323.67 612.46h16.97v1.89h-16.97z"/></g><g><path class="st5" d="M256.71 565.26h1.17v8.4h-1.17v-8.4zm.7 7.3h2.28c.6 0 1.03-.11 1.3-.34.27-.23.41-.55.41-.96v-.02c0-.29-.05-.53-.15-.73-.1-.2-.25-.36-.46-.47s-.48-.16-.81-.16h-2.56v-1.06h2.56c.43 0 .76-.1.98-.31.22-.2.33-.51.33-.91 0-.42-.12-.73-.37-.94s-.62-.31-1.11-.31h-2.4v-1.09h2.62c.54 0 1 .09 1.36.28.37.18.64.45.82.79.18.34.27.74.27 1.21 0 .29-.06.56-.17.81-.11.25-.28.47-.51.65-.23.18-.51.3-.85.36.34.05.63.17.88.36s.44.43.57.71c.13.29.2.59.2.92v.02c0 .45-.1.85-.3 1.2-.2.35-.49.61-.86.8s-.81.28-1.31.28h-2.71v-1.09h-.01zM265.4 573.35c-.45-.26-.79-.62-1.04-1.09-.24-.47-.37-1.01-.37-1.63v-2.38c0-.62.12-1.16.37-1.63.24-.47.59-.83 1.04-1.09s.96-.38 1.55-.38 1.1.13 1.55.38c.45.26.79.62 1.04 1.09.24.47.37 1.01.37 1.63v2.38c0 .62-.12 1.16-.37 1.63-.24.47-.59.83-1.04 1.09s-.96.38-1.55.38c-.58.01-1.1-.12-1.55-.38zm2.47-1.01c.26-.16.47-.38.61-.66.14-.29.22-.62.22-1v-2.46c0-.38-.07-.71-.22-1-.14-.29-.35-.51-.61-.66-.26-.16-.57-.23-.92-.23s-.65.08-.92.23c-.26.16-.47.38-.61.66-.14.29-.22.62-.22 1v2.46c0 .38.07.71.22 1 .14.29.35.51.61.66.26.16.57.23.92.23s.65-.07.92-.23zM272.81 573.35c-.45-.26-.79-.62-1.04-1.09-.24-.47-.37-1.01-.37-1.63v-2.38c0-.62.12-1.16.37-1.63.24-.47.59-.83 1.04-1.09s.96-.38 1.55-.38 1.1.13 1.55.38c.45.26.79.62 1.04 1.09.24.47.37 1.01.37 1.63v2.38c0 .62-.12 1.16-.37 1.63-.24.47-.59.83-1.04 1.09s-.96.38-1.55.38c-.59.01-1.11-.12-1.55-.38zm2.46-1.01c.26-.16.47-.38.61-.66.14-.29.22-.62.22-1v-2.46c0-.38-.07-.71-.22-1-.14-.29-.35-.51-.61-.66-.26-.16-.57-.23-.92-.23s-.65.08-.92.23c-.26.16-.47.38-.61.66-.14.29-.22.62-.22 1v2.46c0 .38.07.71.22 1 .14.29.35.51.61.66.26.16.57.23.92.23s.66-.07.92-.23zM279.1 565.26h1.18v8.4h-1.18v-8.4zm.92 4.71 3.71-4.71h1.45l-5.33 6.48.17-1.77zm1.4-.8.93-.86 3.18 5.34h-1.44l-2.67-4.48zM289.86 565.26h1.07l4.11 6.49-.14.15v-6.64h1.17v8.39h-1.08l-4.09-6.39.14-.15v6.54h-1.17v-8.39h-.01zM299.37 573.35c-.45-.26-.79-.62-1.04-1.09-.24-.47-.37-1.01-.37-1.63v-2.38c0-.62.12-1.16.37-1.63.24-.47.59-.83 1.04-1.09s.96-.38 1.55-.38 1.1.13 1.55.38c.45.26.79.62 1.04 1.09.24.47.37 1.01.37 1.63v2.38c0 .62-.12 1.16-.37 1.63-.24.47-.59.83-1.04 1.09s-.96.38-1.55.38c-.58.01-1.1-.12-1.55-.38zm2.47-1.01c.26-.16.47-.38.61-.66.14-.29.22-.62.22-1v-2.46c0-.38-.07-.71-.22-1-.14-.29-.35-.51-.61-.66-.26-.16-.57-.23-.92-.23s-.65.08-.92.23c-.26.16-.47.38-.61.66-.14.29-.22.62-.22 1v2.46c0 .38.07.71.22 1 .14.29.35.51.61.66.26.16.57.23.92.23.35.01.65-.07.92-.23zM309.34 565.26h.81l1.72 6.58 1.48-6.58h1.22l-2.05 8.4h-1.2l-1.55-5.87-1.62 5.87h-1.2l-2.05-8.4h1.22l1.48 6.58 1.74-6.58z"/></g><g><path class="st30" d="m375.43 508.81-15.63 3.5c-8.44 1.89-16.81-3.42-18.7-11.86l-.28-1.25c-1.89-8.44 3.42-16.81 11.86-18.7l15.63-3.5c8.44-1.89 16.81 3.42 18.7 11.86l.28 1.25c1.89 8.44-3.42 16.81-11.86 18.7z"/><path class="st31" d="M364.06 487.44s8.57 6.07 4.23 14.17-13.3 9.25-13.3 9.25-.58-16.48-7.52-23.43c0 .01 12.92-3.93 16.59.01z"/></g><g><path class="st30" d="m375.43 550.37-15.63 3.5c-8.44 1.89-16.81-3.42-18.7-11.86l-.28-1.25c-1.89-8.44 3.42-16.81 11.86-18.7l15.63-3.5c8.44-1.89 16.81 3.42 18.7 11.86l.28 1.25c1.89 8.44-3.42 16.81-11.86 18.7z"/><path class="st31" d="M364.06 529.13s8.57 6.07 4.23 14.17-13.3 9.25-13.3 9.25-.58-16.48-7.52-23.43c0 .01 12.92-3.94 16.59.01z"/></g><g><path class="st30" d="m373.58 460.93-15.63 3.5c-8.44 1.89-16.81-3.42-18.7-11.86l-.28-1.25c-1.89-8.44 3.42-16.81 11.86-18.7l15.63-3.5c8.44-1.89 16.81 3.42 18.7 11.86l.28 1.25c1.89 8.44-3.42 16.81-11.86 18.7z"/><path class="st31" d="M362.21 439.56s8.57 6.07 4.23 14.17-13.3 9.25-13.3 9.25-.58-16.48-7.52-23.43c-.01.01 12.92-3.93 16.59.01z"/></g><g><path class="st30" d="m372.93 593.03-4 .9c-8.44 1.89-16.81-3.42-18.7-11.86l-.28-1.25c-1.89-8.44 3.42-16.81 11.86-18.7l4-.9c8.44-1.89 16.81 3.42 18.7 11.86l.28 1.25c1.89 8.44-3.42 16.82-11.86 18.7z"/><path class="st31" d="M373.19 568.8s8.57 5.16 4.23 12.04-13.3 7.86-13.3 7.86-.58-14-7.52-19.9c0 0 12.92-3.35 16.59 0z"/></g><g><path class="st30" d="M-34.55 765.68 88.6 667.35s29.5-24.87 38.75-98.91c0 0-4.05-28.92 24.29-50.9 28.34-21.98 32.97-28.92 41.64-57.84 8.68-28.92 15.04-30.08 15.04-30.08s27.18-7.52 26.03 23.14c-1.16 30.66-13.88 64.2-28.34 79.82 0 0 12.72 67.09-4.05 87.34l16.77 20.97 82.42 1.3s-16.05 29.06-44.25 42.51-61.17 30.8-79.39 54.23c-18.22 23.43-83.29 88.99-83.29 88.99H-34.55v-62.24z"/><path class="st31" d="m196.47 459.71 19.38 5.49 6.07-24s-6.07-13.59-16.2-6.07l-9.25 24.58zM201.96 619.93s-16.2 37.02-31.23 40.49c0 0 12.72 5.78 43.38-4.63l76.19 1.79 10.86-15.39-82.42-1.3-16.78-20.96z"/></g><g><path class="st32" d="M327.59 420.25c-5.57 0-10.1-4.53-10.1-10.1s4.53-10.1 10.1-10.1 10.1 4.53 10.1 10.1c0 5.57-4.53 10.1-10.1 10.1zm0-18.31c-4.53 0-8.21 3.68-8.21 8.21s3.68 8.21 8.21 8.21 8.21-3.68 8.21-8.21-3.68-8.21-8.21-8.21z"/><path class="st32" d="M342.51 424.08c-.22 0-.44-.08-.62-.23l-8.01-6.98c-.39-.34-.43-.94-.09-1.33s.94-.44 1.33-.09l8.01 6.98c.39.34.43.94.09 1.33-.18.21-.44.32-.71.32z"/></g></g></g></svg>