<svg version="1.1" id="Layer_1" xmlns="http://www.w3.org/2000/svg" x="0" y="0" viewBox="0 0 898.86 765" style="enable-background:new 0 0 898.86 765" xml:space="preserve"><style>.st1{fill:#ffaa01}.st3{fill:#52998b}.st4{fill:none;stroke:#fff;stroke-miterlimit:10}.st6{fill:#9e66f0}.st7{fill:none;stroke:#9e66f0;stroke-width:2;stroke-miterlimit:10}.st11{fill:#fff}.st13{fill:#f5c098}.st18{fill:#030000}.st19{fill:#ecdefc}.st20{fill:#8c1ef0}.st21{fill:#edcba8}.st22{fill:#0a0b0d}.st23{fill:#050a04}.st24{fill:#1c618c}.st25{fill:#216a9f}.st27{fill:#d5d4d6}.st28{fill:#ef9e89}.st29{fill:#08090b}.st32{fill:#f9cf9d}.st35{fill:#ee9984}.st40{fill:#03010f}.st43{fill:#030015}.st44{fill:#1b1f1e}.st46{fill:#ff8932}.st50{fill:#fdc66b}</style><ellipse cx="449.43" cy="673.81" rx="449.43" ry="83.66" style="opacity:.67;fill:#e0cef4;enable-background:new"/><path class="st1" d="M679.46 299.71c2.3-1.99 22.27-18.39 51.66-14.62 7.61.98 12.82 6.53 10.79 12.35-3.5 10.02-25 13.28-62.36 2.56-.15-.05-.2-.2-.09-.29zM676.13 296.28c2.21-2.07 20.59-20.21 19.97-49.83-.16-7.67-5.11-13.44-11.09-12.03-10.31 2.43-15.81 23.46-9.15 61.74.02.15.16.22.27.12zM635.56 343.7c2.73-2.51 26.52-23.28 61.69-18.3 9.1 1.29 15.37 8.39 12.98 15.79-4.12 12.74-29.81 16.76-74.55 2.88-.19-.06-.25-.24-.12-.37zM630.96 338.56c2.72-2.46 25.36-24.02 24.34-59.48-.26-9.18-6.45-16.12-13.85-14.49-12.76 2.82-19.41 27.95-10.83 73.82.04.19.21.27.34.15zM716.81 265.66c2.02-1.72 19.6-15.91 45.44-12.69 6.69.83 11.26 5.62 9.47 10.65-3.09 8.66-21.99 11.5-54.82 2.29-.14-.05-.19-.17-.09-.25zM713.75 262.8c1.97-1.82 18.3-17.73 17.68-43.79-.16-6.74-4.58-11.83-9.91-10.6-9.18 2.11-14.03 20.6-8.02 54.29.03.13.15.19.25.1zM750.5 235.31c1.66-1.51 16.13-13.96 37.5-11 5.53.77 9.34 5.02 7.88 9.45-2.52 7.64-18.13 10.06-45.3 1.78-.12-.05-.16-.16-.08-.23zM747.09 232.2c1.75-1.48 16.28-14.43 15.35-36.04-.24-5.59-4.31-9.87-9.1-8.93-8.26 1.62-12.39 16.87-6.46 44.88.01.11.12.17.21.09zM780.01 211.32c1.26-1.42 12.23-13.14 28.75-9.99 4.28.82 7.27 4.94 6.21 9.17-1.83 7.28-13.83 9.37-34.91 1.04-.08-.04-.11-.15-.05-.22zM775.93 206.95c1.55-1.1 14.36-10.77 12.98-27.54-.36-4.34-4.15-7.75-8.46-7.15-7.43 1.05-10.78 12.76-4.73 34.6.03.1.13.15.21.09zM803.36 190.27c1.26-1.42 12.23-13.14 28.75-9.99 4.28.82 7.27 4.94 6.21 9.17-1.83 7.28-13.83 9.37-34.91 1.04-.08-.04-.12-.15-.05-.22zM799.27 185.9c1.55-1.1 14.36-10.77 12.98-27.54-.36-4.34-4.15-7.75-8.46-7.15-7.43 1.05-10.78 12.76-4.73 34.6.03.1.14.15.21.09zM825.01 169.26c.4-1.69 4.22-15.95 19.14-23.71 3.86-2.01 8.14-1.07 9.13 2.34 1.71 5.89-7.19 14.41-28.14 21.47a.088.088 0 0 1-.13-.1z"/><path style="fill:none" d="M825.01 169.26 596.92 373.6"/><path class="st3" d="M732.1 226.42 596.89 367.81l.97-34.61s76.74-202.32 113.52-222.99a53.33 53.33 0 0 0 8.81-6.22l23.83 6.27-13.52-17.64c16.93-22.86 21.9-49.87 69.68-28.53 61.67 27.53-68.08 162.33-68.08 162.33z"/><path class="st4" d="M791.35 76.3 602.43 355.8M705.26 129.33l-5.68 82.74M647.33 237.94l-8.51 61.33M738.94 152.1l63.04-40.41M667.06 262l63.04-40.41"/><path d="m143.65 288.16 124.4 130.09-.89-31.85s-70.6-186.14-104.45-205.17a48.82 48.82 0 0 1-8.1-5.72l-21.93 5.77 12.44-16.23c-15.58-21.03-20.15-45.88-64.11-26.25-56.74 25.33 62.64 149.36 62.64 149.36z" style="fill:#95d7c4"/><path class="st4" d="M89.13 150.04 262.96 407.2M168.35 198.83l5.22 76.12M221.65 298.76l7.83 56.43M137.36 219.78l-58-37.18M203.5 320.89l-58.01-37.18"/><path class="st6" d="M201.25 292.25c-.78-3.54-6.61-33.84 14.1-62.53 5.36-7.42 14.16-9.73 19.1-4.29 8.52 9.38-.31 33.79-32.85 66.88-.13.14-.31.11-.35-.06zM195.75 293.79c-.91-3.5-9.47-33.12-40.9-49.34-8.14-4.2-17.01-2.29-18.94 4.78-3.33 12.2 15.6 29.96 59.56 44.77.18.07.33-.03.28-.21zM222.4 363.38c-1.08-4.3-9.32-41.09 15.95-75.15 6.54-8.82 17.57-11.34 23.96-4.62 11.02 11.59.6 40.82-39.46 79.86-.17.15-.4.12-.45-.09zM214.38 365.27c-1.03-4.26-10.75-40.29-48.53-59.43-9.78-4.95-20.59-2.42-23.09 6.27-4.31 14.99 18.26 36.28 71.27 53.42.22.08.41-.05.35-.26zM186.81 233.67c-.65-3.1-5.52-29.63 12.58-54.9 4.69-6.54 12.32-8.61 16.57-3.87 7.33 8.18-.47 29.62-28.84 58.82-.12.12-.28.1-.31-.05zM182.07 235.25c-.79-3.1-8.18-29.3-35.87-43.5-7.17-3.68-15.02-1.93-16.77 4.35-3.01 10.83 13.62 26.46 52.39 39.34.16.06.29-.04.25-.19zM174.17 181.03c-.64-2.6-5.46-24.88 9.82-45.61 3.96-5.37 10.58-6.93 14.4-2.88 6.58 6.99.22 24.75-23.95 48.54-.1.09-.24.07-.27-.05zM168.96 182.84c-.55-2.68-5.87-25.3-29.07-36.64-6.01-2.93-12.81-1.1-14.56 4.46-3.01 9.59 10.64 22.61 43.4 32.35.14.04.26-.04.23-.17zM165.81 136.4c-.77-2.13-6.82-20.32 5.9-35.86 3.29-4.02 9.33-4.81 13.16-1.29 6.6 6.07 1.95 19.85-18.8 37.22-.09.06-.22.03-.26-.07zM158.9 138.2c-.28-2.25-3.12-21.21-21.49-29.31-4.76-2.1-10.5-.07-12.32 4.8-3.14 8.39 7.24 18.58 33.61 24.67.11.03.22-.05.2-.16zM157.03 99.91c-.77-2.13-6.82-20.32 5.9-35.86 3.29-4.02 9.33-4.81 13.16-1.29 6.6 6.07 1.95 19.85-18.8 37.22-.09.06-.22.04-.26-.07zM150.12 101.71c-.28-2.25-3.12-21.21-21.49-29.31-4.76-2.1-10.5-.07-12.32 4.8-3.14 8.39 7.24 18.58 33.61 24.67.11.03.21-.05.2-.16zM147.33 65.22c-1.54-1.39-14.33-13.51-13.97-33.59.09-5.2 3.51-9.15 7.66-8.25 7.15 1.55 11.02 15.76 6.5 41.75-.02.11-.12.16-.19.09z"/><path class="st7" d="m147.33 65.22 84.42 355.73"/><path style="fill:#e0cef4" d="M186.54 0h527.71v596.35H186.54z"/><path style="opacity:.89;fill:#fff;enable-background:new" d="M254 90.2h392.79v238.7H254z"/><path style="opacity:.42;fill:#090b08;enable-background:new" d="M254 79.2h392.79v238.7H254z"/><path class="st11" d="M263.63 96.4h373.53v205.68H263.63z"/><g><path d="M507.92 276.63H391.2c-3.29 0-5.96-2.67-5.96-5.96V147.99c0-3.29 2.67-5.96 5.96-5.96h116.71c3.29 0 5.96 2.67 5.96 5.96v122.68a5.947 5.947 0 0 1-5.95 5.96z" style="opacity:.79;fill:#f7d2aa;enable-background:new"/><ellipse class="st13" cx="448.39" cy="145.52" rx="20.29" ry="27.17"/><ellipse transform="rotate(-72.284 468.685 146.861)" class="st13" cx="468.69" cy="146.87" rx="5.75" ry="4.29"/><ellipse transform="rotate(-12.298 427.24 146.815)" class="st13" cx="427.26" cy="146.82" rx="4.29" ry="5.75"/><path class="st13" d="M439.04 164.5s2.06 18.34-4.36 26.83-6.59 12.15-6.59 12.15l45.57-3.44s-11.69-9.4-13.07-14.9-2.52-20.64-2.52-20.64h-19.03zM530.08 219.54s.69-8.25 7.11-10.2 5.5 0 5.5 0 0-12.5 3.44-10.2c3.44 2.29 1.38 10.06 1.38 10.06s1.83 2.73 7.57 0 10.32-5.71 10.32-5.71 4.13-5.5 2.98 3.9-13.3 9.4-13.3 9.4-14.45 2.19-13.76 5.96c.68 3.77-11.24-3.21-11.24-3.21z"/><path class="st11" d="m436.75 183.99 12.81 7.34 13.8-7.34s11.68 6.42 10.3 25.45-9.63 38.06-9.63 38.06l-41.73-8.03v-30.5c.01.02 6.88-20.85 14.45-24.98z"/><path d="M436.75 183.99s-18.11 13.76-24.76 15.36-9.63 10.78-9.63 10.78l-23.85 58.24s-4.36 15.82 21.32 13.07 97.22-1.83 97.22-1.83v-15.59l8.71 12.15s9.17 10.78 16.74-.69 21.1-53.89 21.1-53.89-8.03-2.06-13.99-8.03l-16.28 34.39-16.05-35.08s-2.29-11.92-9.63-14.22-23.74-14.88-23.74-14.88 6.54 26.35.12 42.63-13.15 33.25-13.15 33.25l-18.72-31.87c.01.01-2.98-39.2 4.59-43.79z" style="fill:#536069"/><path style="fill:#fcbc62" d="M446.15 197.77v-7.13h8.49l1.27 4.68-4.41 6.4 3.6 33.64h-12.16l4.11-33.31z"/><path d="M427.23 139.74s-5.84-13.07 2.42-22.7c8.25-9.63 18.4-9.63 18.4-9.63l12.87 1.83s8.17 8.48 10 12.61c1.83 4.13-2.23 23.67-2.23 23.67s-5.96-8.86-4.5-17.07c0 0-3.28-4.08-4.92 2.57 0 0-10.72 2.33-16.32-2.98s-10.87 1.34-10.87 1.34l-4.85 10.36z"/><path d="M496.77 289.7h-97.45v-59.5c0-2.47 2-4.47 4.47-4.47h88.51c2.47 0 4.47 2 4.47 4.47v59.5z" style="fill:#515859"/><path class="st11" d="m437.13 183.35 11.43 7.98-16.71 20.87s-.91-26.74 5.28-28.85zM463.91 183.78l-12.25 6.65 14.27 22.61c-.01 0 3.9-26.47-2.02-29.26z"/><circle cx="448.04" cy="257.71" r="6.19" style="fill:#a7bdc6"/></g><g><path class="st18" d="m109.77 583.2 53.5-4.28s-2.75 16.12-22.93 19.18v78.04s8.44 9.78-5.1 11.62c0 0-10.49-3.06-1.62-11.01l-.31-79.18s-18.95 0-23.54-14.37z"/><path class="st18" d="M77.04 669.11s37.62-14.98 63.3-13.15c0 0 43.72 3.06 53.5 11.92 0 0-5.81 13.15 9.78 7.95 0 0 6.73-6.73-3.36-11.62 0 0-35.77-15.59-59.92-14.68 0 0-37.3.57-66.96 13.73 0 0-12.84 6.43-5.5 13.77 0 .03 12.51 4.62 9.16-7.92z"/><path class="st19" d="m28.77 382.37 24.57 2.19c5.11.46 8.91 4.92 8.53 10.04-1.23 16.55-2.67 50.78 5.09 63.56 10.39 17.12 36.69 56.25 31.8 73.99l119.92 11.16-17.2 35.62-129.32-2.45L33.95 455.1l-5.18-72.73z"/><path class="st20" d="M23.55 382.95s12.54-3.67 11.01 7.03-3.06 47.39 6.11 66.34c0 0 24.76 66.96 25.99 81.02 0 0 9.26 29.66 4.93 33.63 0 0 18.23-1.83 42.76-5.29 0 0 44.01-4.21 66.64-.29 0 0 30.12 6.81 26.23 17.51-3.9 10.7-14.6 4.89-14.6 4.89s-9.17-8.87-31.49-6.42-59.31 4.28-59.31 4.28l-28.43 3.71s-13.76 7.6-16.2-7.08c-2.45-14.68 1.83-32.1-5.5-48.92-7.34-16.82-20.79-65.43-25.07-69.1-4.29-3.65-17.13-71.22-3.07-81.31z"/></g><g><path class="st18" d="m193.07 532.6 53.5-4.28s-2.75 16.12-22.93 19.18v78.04s8.44 9.78-5.1 11.62c0 0-10.49-3.06-1.62-11.01l-.31-79.18s-18.95 0-23.54-14.37z"/><path class="st18" d="M160.34 618.52s37.62-14.98 63.3-13.15c0 0 43.72 3.06 53.5 11.92 0 0-5.81 13.15 9.78 7.95 0 0 6.73-6.73-3.36-11.62 0 0-35.77-15.59-59.92-14.68 0 0-37.3.57-66.96 13.73 0 0-12.84 6.43-5.5 13.77.01.02 12.51 4.61 9.16-7.92z"/><path class="st19" d="m112.07 331.77 24.57 2.19c5.11.46 8.91 4.92 8.53 10.04-1.23 16.55-2.67 50.78 5.09 63.56 10.39 17.12 36.69 56.25 31.8 73.99l119.92 11.16-17.2 35.62-129.32-2.45-38.21-121.38-5.18-72.73z"/><path class="st20" d="M106.85 332.35s12.54-3.67 11.01 7.03-3.06 47.39 6.11 66.34c0 0 24.76 66.96 25.99 81.02 0 0 9.26 29.66 4.93 33.63 0 0 18.23-1.83 42.76-5.29 0 0 44.01-4.21 66.64-.29 0 0 30.12 6.81 26.23 17.51-3.9 10.7-14.6 4.89-14.6 4.89s-9.17-8.87-31.49-6.42c-22.32 2.45-59.31 4.28-59.31 4.28l-28.43 3.71s-13.76 7.6-16.2-7.08 1.83-32.1-5.5-48.92c-7.34-16.82-20.79-65.43-25.07-69.1-4.29-3.65-17.13-71.22-3.07-81.31z"/></g><g><path class="st18" d="m760.41 588.69-53.5-4.28s2.75 16.12 22.93 19.18v78.04s-8.44 9.78 5.1 11.62c0 0 10.49-3.06 1.62-11.01l.31-79.18s18.96 0 23.54-14.37z"/><path class="st18" d="M793.14 674.6s-37.62-14.98-63.3-13.15c0 0-43.72 3.06-53.5 11.92 0 0 5.81 13.15-9.78 7.95 0 0-6.73-6.73 3.36-11.62 0 0 35.77-15.59 59.92-14.68 0 0 37.3.57 66.96 13.74 0 0 12.84 6.43 5.5 13.77 0 .01-12.5 4.61-9.16-7.93z"/><path class="st19" d="m841.41 387.86-24.57 2.19c-5.11.46-8.91 4.92-8.53 10.04 1.23 16.55 2.67 50.78-5.09 63.56-10.39 17.12-36.69 56.25-31.8 73.99L651.5 548.8l17.2 35.62 129.32-2.45 38.22-121.38 5.17-72.73z"/><path class="st20" d="M846.63 388.44s-12.54-3.67-11.01 7.03c1.53 10.7 3.06 47.39-6.11 66.34 0 0-24.76 66.96-25.99 81.02 0 0-9.26 29.66-4.93 33.63 0 0-18.23-1.83-42.76-5.29 0 0-44.01-4.21-66.64-.29 0 0-30.12 6.81-26.23 17.51s14.6 4.89 14.6 4.89 9.17-8.87 31.49-6.42 59.31 4.28 59.31 4.28l28.43 3.71s13.76 7.6 16.2-7.08-1.83-32.1 5.5-48.92c7.34-16.82 20.79-65.43 25.07-69.1s17.13-71.23 3.07-81.31z"/></g><g><path class="st18" d="m729.09 532.91-53.5-4.28s2.75 16.12 22.93 19.18v78.04s-8.44 9.78 5.1 11.62c0 0 10.49-3.06 1.62-11.01l.31-79.18s18.96 0 23.54-14.37z"/><path class="st18" d="M761.82 618.82s-37.62-14.98-63.3-13.15c0 0-43.72 3.06-53.5 11.92 0 0 5.81 13.15-9.78 7.95 0 0-6.73-6.73 3.36-11.62 0 0 35.77-15.59 59.92-14.68 0 0 37.3.57 66.96 13.74 0 0 12.84 6.43 5.5 13.77 0 .02-12.5 4.61-9.16-7.93z"/><path class="st19" d="m810.1 332.08-24.57 2.19c-5.11.46-8.91 4.92-8.53 10.04 1.23 16.55 2.67 50.78-5.09 63.56-10.39 17.12-36.69 56.25-31.8 73.99l-119.92 11.16 17.2 35.62 129.32-2.45 38.22-121.38 5.17-72.73z"/><path class="st20" d="M815.31 332.66s-12.54-3.67-11.01 7.03c1.53 10.7 3.06 47.39-6.11 66.34 0 0-24.76 66.96-25.99 81.02 0 0-9.26 29.66-4.93 33.63 0 0-18.23-1.83-42.76-5.29 0 0-44.01-4.21-66.64-.29 0 0-30.12 6.81-26.23 17.51s14.6 4.89 14.6 4.89 9.17-8.87 31.49-6.42 59.31 4.28 59.31 4.28l28.43 3.71s13.76 7.6 16.2-7.08c2.45-14.68-1.83-32.1 5.5-48.92 7.34-16.82 20.79-65.43 25.07-69.1 4.29-3.66 17.13-71.22 3.07-81.31z"/></g><path class="st21" d="M202.71 354.82s-.31 13.45-5.5 16.82c-5.2 3.36 23.26 19.87 23.26 19.87s1.06-21.31 1.5-32.1l-19.26-4.59z"/><ellipse transform="rotate(-20.723 219.44 342.508)" class="st21" cx="219.46" cy="342.49" rx="17.73" ry="23.39"/><path class="st22" d="m201.49 358-14.98-23.66s-6.11-17.12 7.49-22.93c0 0 10.85 1.22 20.94-3.97 10.09-5.2 15.59-6.42 19.57-2.45 3.97 3.97 3.36 6.42 0 11.01-2.3 3.13-3.45 9.25-3.95 12.82-.2 1.42-.78 2.77-1.77 3.8-1.14 1.17-2.47 3.56-1.92 8.14 0 0-13.76 17.97-25.38 17.24z"/><ellipse transform="rotate(-20.723 220.44 343.508)" class="st21" cx="220.46" cy="343.49" rx="4.16" ry="5.48"/><g><path class="st21" d="m318.59 601.24 7.33 16.51 18.04-5.5-12.69-15.9z"/><path class="st23" d="M318.59 606.75v18.04h44.03s1.22-10.09-5.2-10.39-14.98-6.42-14.98-6.42-15.83 6.63-23.85-1.23z"/></g><g><path class="st21" d="m264.29 605.87-4.13 17.59 17.69 6.51-.5-20.33z"/><path class="st23" d="m260.96 610.25-10.9 14.37 35.08 26.61s7.07-7.3 2.14-11.42-8.06-14.17-8.06-14.17-16.62-4.27-18.26-15.39z"/></g><path class="st24" d="m277.01 534.29-17.74 77.35 17.74 9.17 18.85-67.26z"/><path class="st25" d="M173.67 485.68s-4.59 13.76 5.5 23.24 21.1 24.46 68.48 26.6c0 0 21.4 2.75 31.8 14.37 10.39 11.62 37.3 59.92 37.3 59.92l20.79-4.89-25.68-57.17s-8.25-28.43-18.65-33.63-63.9-37.3-63.9-37.3l-55.64 8.86z"/><path d="m199.96 361.24-8.87 11.92s-13.76 35.77-16.82 56.56c-3.06 20.79-2.45 60.23-2.45 60.23s28.32 6.42 47.64-3.36 28.18-15.9 28.18-15.9l-18.04-53.5-3.36-41.58-4.28 4.59c.01 0-21.24-12.1-22-18.96z" style="fill:#fefefe"/><path class="st27" d="m191.1 374.17 30.88 23.24v-16.2s-20.92-11.57-22.01-18.96l-8.87 11.92z"/><path class="st11" d="m191.1 373.17 30.88 23.24v-16.2s-20.92-11.57-22.01-18.96l-8.87 11.92z"/><g><path class="st28" d="m126.91 471.82 24.15-24.17s1.53-6.73 10.39-8.87l3.67-5.7s4.28-.42 2.14 3.56c-2.14 3.97-1.53 6.11 2.45 6.11 3.97 0 13.13-2.75 11.91 1.83-1.21 4.59-14.67 7.86-14.67 7.86l-10.09 2.85-24.15 36.99-10.09 12.69-12.99-21.86 17.28-11.29z"/><path class="st29" d="M235.14 665.94v20.18h36.99s0-7.95-10.09-12.54-17.73-10.39-17.73-10.39l-9.17 2.75zM269.08 617.33s3.36 26.29 8.56 22.62 33.32-20.18 33.32-20.18-4.59-4.89-10.7-4.59-14.68 2.45-14.68 2.45l-7.95-7.34-8.55 7.04z"/><ellipse class="st28" cx="90.45" cy="396.97" rx="17.66" ry="26.37"/><path class="st22" d="M90.45 408.21s-2.52-13.3 5.73-11.24 15.13-3.44 16.97-17.2c0 0-.59-10.55-11.53-14.22s-2.23 0-2.23 0-9.63-8.31-30.27-1.63c0 0-25.22-19.92-35.77 10.8s22.93 22.24 22.93 22.24l11.46 18.11c.01.02 13.31 16.07 22.71-6.86z"/><ellipse class="st28" cx="93.48" cy="402.13" rx="5.03" ry="7.51"/><path class="st28" d="M72.23 413.25s2.4 21.55.57 31.64 25.71 7.8 25.71 7.8l5.93-5.5s-12.39-8.86-13.99-28.43l-18.22-5.51z"/><path d="M114.99 560.46s18.96 7.76 44.64 4.03l41.58 5.44s11.62 3.06 14.37 17.43 17.73 82.85 17.73 82.85h22.93l-13.76-81.02-6.73-36.69s-5.81-19.87-23.24-15.9-71.54 16.2-71.54 16.2l-25.98 7.66z" style="fill:#d88a19"/><path d="M77.99 533.56s-3.17 20.79 10.34 25.99c0 0 12.9 11.92 42.86 5.2s72.15-20.33 72.15-20.33 20.79-6.96 25.99 5.77c5.2 12.73 39.75 75.1 39.75 75.1l16.51-13.57-32.41-67.3-11.01-19.03s-12.99-28.2-34.32-20.25l-98.37 11.62-31.49 16.8z" style="fill:#f8ae03"/><path class="st11" d="M72.27 432.06s-16.22 12.38-14.38 31.87l-1.38 47.01s7.11 15.36 20.41 6.19c0 0-16.81 27.29-2.75 27.29 2.29 0 26.14-4.59 41.27-26.25 0 0 21.1-1.03 20.41-1.95s-15.13-19.49-15.13-19.49l-4.13-23.39 3.44 5.04 9.63-9.17-14.45-35.08s-15.12-11.01-19.02-6.19l-2.71 1.83s5.35 7.8-5.03 10.09-16.18-7.8-16.18-7.8z"/><path class="st28" d="m74.94 494.73 46.47 6.42s23.24-5.5 26.9 5.5l1.22 3.89-26.6-1.75-45.27 6.42-7.93-2.14 5.21-18.34z"/></g><g><path class="st32" d="M656.08 402.97v-14.41c0-1.98-.53-3.91-1.53-5.62l-3.86-6.57s-6.88-6.88-9.86-1.83l5.96 3.44-5.96 1.38s-6.65 5.04-3.67 10.32c2.98 5.27 5.73 4.82 5.73 4.82l3.34 9.86 9.85-1.39z"/><ellipse class="st32" cx="688.98" cy="344.85" rx="16.97" ry="22.36"/><path class="st22" d="M673.45 338s1.11-8.53 5.94-11.25c1.38-.78 3.13-.55 4.32.49 1.38 1.21 3.55 2.82 5.27 2.82 2.75 0 4.36-3.21 8.71.23 4.36 3.44 1.61 14.56 1.61 14.56s.69 14.45 3.21 14.71c2.52.26 8.02-12.53 10.77-15.97 2.49-3.11 2.54-17.68.66-22.46-.2-.5-.42-.9-.66-1.16-2.52-2.75-3.3-9.86-17.93-12.38-14.63-2.52-9.2.31-13.48-.61-1.99-.43-3.47-.89-4.5-1.27a3.91 3.91 0 0 0-4.68 1.58c-1.29 2.06-2.23 5.76-.68 12.23 0 0 2.29 5.94 0 10.65s.03 16 .03 16l1.41-8.17z"/><ellipse transform="rotate(-67.202 701.563 347.698)" class="st32" cx="701.58" cy="347.71" rx="4.92" ry="3.67"/><path class="st32" d="M685.73 363.54s4.82 16.51 3.9 27.97 21.32-15.13 21.32-15.13l2.75-6.88s-11.69-9.63-15.36-14.45c-3.67-4.81-12.61 8.49-12.61 8.49z"/><path class="st11" d="m686.51 370.85 5 9.65s17.46-14.71 18.59-16.99c1.13-2.27 5.17 7.13 5.17 7.13l-23.3 23.85-.92 10.55 2.09 30.5-8.97-14.22 2.34-50.47z"/><path d="M591.76 607.28s-1.15 3.35-6.19 6.72-16.28 4.52-16.28 4.52-6.65 6.19-1.15 7.11 37.38 0 37.38 0 3.21-6.01 1.83-8.97c-1.38-2.96-.69-9.38-.69-9.38h-14.9z" style="fill:#101012"/><path d="M589.01 604.53s-1.61 3.21-7.57 5.73c-5.96 2.52-16.97 3.74-16.97 3.74s-6.04 3.6-4.05 8.19 36.38 0 36.38 0l1.83-17.66h-9.62z" style="fill:#080903"/><path class="st25" d="m585.57 608.2 21.1 2.06 46.09-97.68h-43.83c-2.51 0-4.67 1.77-5.16 4.24l-18.2 91.38z"/><path class="st25" d="m608.3 511.28 90.96-31.95 36.5 9.86-83.01 23.39-45.06 6.42-1.39-2.89a3.5 3.5 0 0 1 2-4.83z"/><path class="st24" d="M735.76 487.36s29.81 24.54 1.61 36.92-83.24 9.4-83.24 9.4-18.57 9.4-22.47 21.55c-3.9 12.15-22.01 56.41-22.01 56.41l-20.64-1.83 17.43-57.78 5.96-21.1s8.48-19.03 19.03-18.57l41.5-11.01 62.83-13.99z"/><path class="st25" d="M715.26 370.64s12.01 8.03 15.45 31.64c3.44 23.62 12.38 88.28 12.38 88.28l-56.64 2.06 4.59-41.96-8.35 5.82s-14.12 9.31-20.08-.09-19.72-54.57-19.72-54.57l13.07-2.48 17.66 30.57 16.28-21.67s-1.38-13.42 2.06-16.34c3.44-2.91 23.3-21.26 23.3-21.26z"/></g><g><ellipse class="st35" cx="772.05" cy="390.02" rx="21.55" ry="28.09"/><path class="st35" d="M768.32 406.49s-1.22 26.6-3.06 34.24c-1.83 7.64 20.79 5.9 20.79 5.9l2.14-17.46-7.95-22.69h-11.92v.01zM686.99 561.42s-10.39 36-12.84 45.86-9.13 52.36-9.13 52.36l-16.55-1.83 4.28-57.17 5.81-54.74s8.71-28.53 25.61-18.24l2.82 33.76z"/><path d="m791.55 509.83 6.73 34.24s2.14 27.52-19.26 33.63c0 0-46.78 7.64-87.44-11.01l-10.39-2.45v-47.2h61.91l11.46-7.22h36.99v.01z" style="fill:#ef505d"/><path d="m758.11 444.44-23.73 26.36s7.72 17.54 7.34 19.81 19.26-7.39 19.26-7.39l9.17-15.53-12.04-23.25z" style="fill:#e3e4e5"/><path d="M763.43 429.18s-3.67 17.06-9.48 20.12-6.3 10.39-3.45 19.57c2.84 9.17 1.95 43.72 1.95 43.72h42.78s-3.54-13.91-1.62-19.95 7.71-38.64 7.71-38.64.82-14.15-9.36-19.55l-10.18-5.4-18.35.13z" style="fill:#f3f3f5"/><path style="fill:#fa9988" d="m660.09 547.43-37.84 104.26 15.52 1.53 22.32-52.9z"/><path class="st40" d="M619.16 653.22s-25.11 2.45-17.77 8.56 23.54 1.53 23.54 1.53l5.5 3.06 6.42-1.53.92-11.62h-18.61z"/><path class="st40" d="M646.41 658.27s-25.11 2.45-17.77 8.56 23.54 1.53 23.54 1.53l5.5 3.06 6.42-1.53.92-11.62h-18.61z"/><path class="st22" d="M759.15 361.94s-17.12 24.53 3.36 47.69 25.68 23.46 25.68 23.46 15.59 3.36 13.45 18.65c-2.14 15.29-8.04 44.64-8.04 44.64s27.3 2.02 38-22.84c0 0 8.87-9.57-3.67-21.49s.92-26.29.92-26.29 6.11-6.73-11.31-21.4c-17.43-14.68-8.56-24.76-8.56-24.76s1.19-17.87-16.51-17.65-33.32-.01-33.32-.01z"/><path class="st11" d="m748.81 490.57 27.87-48.31s10.98-16.91 18.03-5.95c7.05 10.96 8.96 18.98 0 34.17s-29.55 38.12-29.55 38.12-14.88 7.64-18.54 5.81c-3.68-1.83 6.22-4.28 2.19-23.84z"/></g><g><path style="fill:#535454" d="M207.22 509.83h517.99v14.45H207.22z"/><path style="fill:#f1f2f2" d="m721.81 510.44-514.59-.05 68.1-79.11 388.61-.67z"/><path class="st43" d="M263.63 524.27h407.24v4.13H263.63z"/><path class="st43" d="M263.63 524.27h4.82v172.66h-4.82zM662.61 527.67h4.82v172.66h-4.82z"/></g><g><path class="st44" d="m337.67 434.22-41.68-1.5-18.86 36.04s-1.22 3.06 3.97 3.06h37.61l18.96-37.6z"/><path class="st44" d="m316.88 427.46 23.89-37.26v44.02l-20.53 34.55z"/></g><g><path class="st44" d="m563.52 435.93 41.68-1.5 18.86 36.04s1.22 3.06-3.97 3.06h-37.61l-18.96-37.6z"/><path class="st44" d="m584.31 429.17-23.89-37.26v44.02l20.53 34.55z"/></g><g><path class="st32" d="M622.25 432.32h-12.61s-11.92-3.9-13.76 7.8 8.71 0 8.71 0 7.11-2.29 5.73.46-5.73 3.21-5.73 3.21-.21 3.44 4.36 2.75c4.58-.69 6.41-2.75 6.41-2.75l8.94-2.06-2.05-9.41z"/><path class="st25" d="m686.46 375.46-4.82 20.18-21.78 31.18-37.61 3.86v13.11l37.61-1.15s16.51 1.01 20.41-8.21l9.63-19.08-.92-28.43-2.52-11.46z"/></g><path class="st21" d="m283.12 433.39 22.01 1.53s11.92 7.54 9.17 12.33-15.39 4.79-15.39 4.79l2.55-4.79s-6.11-6.83-10.7-3.46L277 440.12l6.12-6.73z"/><path class="st27" d="m226.25 375.61 14.37 38.83s3.52 9.48 13.38 11.01c9.86 1.53 32.18 6.73 32.18 6.73s-1.53 13.76-2.45 14.68-39.13 0-39.13 0-23.85-3.97-20.48-16.51l2.13-54.74z"/><path d="m220.47 385.39 6.12-3.61 1.63 8.2 12.09 78.88-8.56 7.95-9.78-12.84s4.28-12.33 5.5-16.71-3.36-55.75-3.36-55.75l-3.64-6.12z" style="fill:#030502"/><path class="st11" d="M221.97 372.1v8.1l7.18 11.31-.62-9.72c.01 0-4.87-13.67-6.56-9.69z"/><g><path class="st21" d="M287.4 445.62s12.23-6.73 20.48-2.9c8.25 3.82 8.87 12.08 8.87 12.08l-29.35 1.83v-11.01z"/><path class="st27" d="M187.43 419.5s6.11-32.41 28.43-14.37l18.45 27.99s1.11 6.87 13.34 6.87l43.11 5.81 2.45 13.76-50.45 3.67s-11.31 4.89-24.76-7.95c-13.45-12.85-30.57-35.78-30.57-35.78z"/><path class="st11" d="M187.43 417.5s6.11-32.41 28.43-14.37l18.45 27.99s1.11 6.87 13.34 6.87l43.11 5.81 2.45 13.76-50.45 3.67s-11.31 4.89-24.76-7.95c-13.45-12.85-30.57-35.78-30.57-35.78z"/></g><g><path class="st46" d="M407.06 500.68h-69.1l7.54-29.84h64.31z"/><path class="st11" d="M412.06 496.68h-69.1l7.54-29.84h64.31z"/></g><g><path class="st46" d="M627.89 502.68h69.09l-7.53-29.84h-64.31z"/><path class="st11" d="M622.89 498.68h69.09l-7.53-29.84h-64.31z"/></g><path class="st35" d="M750.49 490.96h-61.51s-2.44-2.14-12.57-3.61c-10.13-1.46-13.8 5.27-13.8 5.27s6.45 9.57 15.03 7.66c8.58-1.91 58.12 5.25 58.12 5.25l18.8 4.28-4.07-18.85z"/><path style="fill:none;stroke:#8e9381;stroke-width:3;stroke-linecap:round;stroke-miterlimit:10" d="m630.74 492.63 25.32-13.48"/><path d="M715.26 370.64s12.01 8.03 15.45 31.64c3.44 23.62 12.38 88.28 12.38 88.28l-56.64 2.06 4.59-41.96-8.35 5.82s-14.12 9.31-20.08-.09-19.72-54.57-19.72-54.57l13.07-2.48 17.66 30.57 16.28-21.67s-1.38-13.42 2.06-16.34c3.44-2.91 23.3-21.26 23.3-21.26z" style="fill:#488bc0"/><path class="st35" d="m738.66 470.81-56.87 5.39s-6.73-2.02-14.37-2.69-8.87 10.34-8.87 10.34 6.25 3.06 12.29 1.83c6.05-1.22 9.52.29 9.52.29s2.03-2.16 11.2 0 54.2 1.39 54.2 1.39l-7.1-16.55z"/><ellipse cx="455.91" cy="485.89" rx="31.59" ry="7.46" style="opacity:.2;enable-background:new"/><g><path class="st50" d="M447.9 407.19c-.49-.62-4.51-6.03-3.15-13.64.35-1.97 1.86-3.26 3.35-2.65 2.57 1.04 3.14 6.68-.13 16.27-.01.04-.05.05-.07.02zM446.96 408.01c-.51-.6-5-5.62-12.72-5.83-2-.06-3.56 1.16-3.27 2.74.5 2.71 5.91 4.41 15.96 3.17.04-.01.06-.05.03-.08zM458.79 419.18c-.62-.74-5.73-7.2-3.98-16.29.45-2.35 2.38-3.9 4.27-3.18 3.27 1.24 3.98 7.97-.2 19.45-.01.04-.06.05-.09.02zM457.4 420.31c-.61-.74-5.93-6.91-15.18-7.09-2.39-.05-4.28 1.47-3.95 3.42.57 3.36 7.03 5.41 19.08 3.76.05-.01.08-.05.05-.09zM439.51 397.03c-.42-.55-3.89-5.3-2.73-11.99.3-1.73 1.61-2.86 2.89-2.33 2.22.91 2.71 5.87-.1 14.3-.01.04-.04.05-.06.02zM438.72 397.79c-.45-.53-4.38-4.99-11.18-5.16-1.76-.04-3.14 1.04-2.89 2.44.43 2.42 5.19 3.92 14.03 2.78.05 0 .07-.03.04-.06zM432.03 387.88c-.37-.45-3.43-4.38-2.39-9.9.27-1.43 1.42-2.37 2.56-1.93 1.96.75 2.39 4.85-.11 11.82-.01.02-.04.03-.06.01zM431.18 388.73c-.36-.47-3.55-4.42-9.19-4.45-1.46-.01-2.62 1-2.44 2.26.32 2.17 4.24 3.44 11.6 2.25.03-.01.05-.04.03-.06zM426.16 379.89c-.35-.35-3.27-3.35-2.24-7.61.27-1.1 1.38-1.83 2.47-1.5 1.87.57 2.26 3.72-.17 9.1-.01.02-.04.03-.06.01zM424.97 380.9c-.27-.42-2.62-3.88-7-3.73-1.13.04-2.07.98-1.97 2.11.18 1.95 3.19 2.97 8.95 1.67.02-.01.03-.03.02-.05zM420.98 373.54c-.35-.35-3.27-3.35-2.24-7.61.27-1.1 1.38-1.83 2.47-1.5 1.87.57 2.26 3.72-.17 9.1-.02.02-.05.03-.06.01zM419.79 374.55c-.27-.42-2.62-3.88-7-3.73-1.13.04-2.07.98-1.97 2.11.18 1.95 3.19 2.97 8.95 1.67.02 0 .03-.03.02-.05zM415.78 367.64c-.43-.13-4.1-1.3-5.93-5.28-.47-1.03-.18-2.13.73-2.35 1.55-.37 3.66 2.06 5.23 7.6.01.02-.01.04-.03.03z"/><path style="fill:none;stroke:#fdc66b;stroke-miterlimit:10" d="m415.78 367.64 50.31 61.98"/><g><path class="st6" d="M445.88 406.61c-.18-1.02-1.54-9.76 4.7-17.76 1.61-2.07 4.16-2.64 5.52-1.03 2.34 2.78-.44 9.67-10.11 18.81-.05.04-.1.03-.11-.02zM444.29 406.99c-.23-1.01-2.36-9.58-11.2-14.56-2.29-1.29-4.85-.83-5.48 1.17-1.08 3.46 4.15 8.74 16.59 13.45.05.02.1-.01.09-.06zM451.19 427.2c-.26-1.24-2.24-11.87 5.36-21.36 1.97-2.46 5.15-3.06 6.91-1.07 3.03 3.43-.26 11.7-12.14 22.46-.05.05-.12.03-.13-.03zM448.87 427.66c-.25-1.23-2.66-11.65-13.28-17.53-2.75-1.52-5.87-.91-6.68 1.55-1.39 4.25 4.85 10.58 19.85 16.05.07.03.12-.01.11-.07zM442.36 389.68c-.15-.89-1.27-8.54 4.18-15.59 1.41-1.82 3.62-2.34 4.79-.93 2.01 2.42-.45 8.48-8.88 16.54-.04.03-.09.02-.09-.02zM440.98 390.08c-.19-.9-2.03-8.48-9.82-12.84-2.01-1.13-4.28-.71-4.85 1.07-.98 3.07 3.62 7.72 14.59 11.82.05.02.09-.01.08-.05zM439.29 374.47c-.15-.75-1.3-7.18 3.29-12.96 1.19-1.5 3.1-1.87 4.15-.67 1.81 2.07-.2 7.09-7.37 13.65-.02.02-.06.01-.07-.02zM437.78 374.93c-.13-.77-1.41-7.31-7.94-10.8-1.69-.9-3.66-.45-4.22 1.12-.96 2.71 2.81 6.59 12.09 9.72.04.02.08 0 .07-.04zM437.37 361.6c-.2-.62-1.74-5.89 2.07-10.21.99-1.12 2.72-1.28 3.78-.23 1.83 1.81.35 5.71-5.78 10.46-.03.01-.06.01-.07-.02zM435.37 362.04c-.06-.65-.67-6.11-5.85-8.62-1.34-.65-3.01-.13-3.58 1.25-.99 2.37 1.88 5.4 9.37 7.42.03 0 .06-.02.06-.05zM435.24 351.05c-.2-.62-1.74-5.89 2.07-10.21.99-1.12 2.72-1.28 3.78-.23 1.83 1.81.35 5.71-5.78 10.46-.03.02-.07.01-.07-.02zM433.24 351.5c-.06-.65-.67-6.11-5.85-8.62-1.34-.65-3.01-.13-3.58 1.25-.99 2.37 1.88 5.4 9.37 7.42.03 0 .06-.02.06-.05zM432.82 341.01c-.43-.41-3.96-4.02-3.65-9.77.08-1.49 1.1-2.58 2.28-2.28 2.03.52 2.99 4.63 1.42 12.03 0 .03-.03.04-.05.02z"/><path class="st7" d="m432.82 341.01 20.44 102.78"/></g><path class="st3" d="M451.66 434.44s-8.09-57.6-2.1-67.23-3.14-20.87 14.96-22.36c18.09-1.49 4.96 47.06 4.96 47.06l-13.57 50.81-4.25-8.28z"/><path d="M455.91 439.17s.1-52.27 19.82-51.34-6.68 35.52-6.68 35.52l-13.14 15.82z" style="fill:#93dbc6"/><path class="st11" d="M469.05 485.56a34.871 34.871 0 0 1-31.64 0v-62.22h31.64v62.22z"/></g></svg>