<svg version="1.1" id="Layer_1" xmlns="http://www.w3.org/2000/svg" x="0" y="0" viewBox="0 0 1000 831" style="enable-background:new 0 0 1000 831" xml:space="preserve"><style>.st3{fill:#feac02}.st4{fill:#fff}.st5{fill:#84b25b}.st8{fill:#f7f9fc}.st9{fill:#f9c393}.st11{fill:#1e1e1e}.st12{fill:#ff4d53}.st13{fill:#f2b283}.st14{fill:#231f20}.st16{fill:#202335}.st17{fill:#4aacfb}</style><ellipse cx="530.5" cy="775.1" rx="331.9" ry="41.9" style="fill:#d1d3d4"/><path d="M865.6 400.2c0 220.8-157.8 385-378.6 385S96.7 634.8 96.7 414s164.2-397.7 385-397.7 383.9 163.1 383.9 383.9z" style="fill:#cfb5f6"/><path d="M838.9 400.3c0 205.5-146.8 358.2-352.3 358.2S123.4 618.6 123.4 413.1 276.2 43 481.7 43s357.2 151.8 357.2 357.3z" style="fill:#e3d4f9"/><path class="st3" d="M498 592.5S217.8 556.4 186.8 16.3c0 0 390.1 161.2 311.2 576.2z"/><path class="st4" d="M486.6 575.8c-9.6-22.6-19-45.2-28.4-67.8L430 440c-9.4-22.6-18.6-45.4-27.9-68-2.3-5.7-4.7-11.3-6.9-17-2.3-5.7-4.7-11.3-7.2-16.8-5.1-11.1-10.6-22-16.6-32.7-3-5.3-6.1-10.6-9.3-15.8-3.2-5.2-6.5-10.3-9.9-15.4l-19.9-30.9c-13.3-20.6-26.6-41.2-39.8-61.9l-39.6-62c-13.1-20.7-26.3-41.4-39.3-62.2 13.6 20.4 27.1 40.9 40.6 61.3l40.3 61.5c13.5 20.5 26.8 41.1 40.1 61.6l20 30.8c3.4 5.1 6.8 10.2 10 15.5 3.2 5.2 6.4 10.5 9.4 15.9 6 10.7 11.5 21.7 16.6 33 2.5 5.6 4.9 11.3 7.2 17 2.2 5.7 4.5 11.4 6.8 17.1 9.2 22.7 18.4 45.4 27.5 68.2l27.3 68.3c9.2 22.7 18.3 45.4 27.2 68.3z"/><path class="st3" d="M554.1 597.6S832.9 551.8 845.3 11c0 0-384.3 174.5-291.2 586.6z"/><path class="st4" d="M565 580.4c8.8-22.9 17.4-45.8 26.1-68.8l25.8-68.9c8.6-22.9 17.1-46 25.6-69 2.1-5.8 4.3-11.5 6.3-17.3 2.1-5.7 4.3-11.4 6.6-17.1 4.7-11.3 9.8-22.4 15.5-33.2 2.8-5.4 5.7-10.8 8.7-16.1 3-5.3 6.2-10.5 9.4-15.7l18.8-31.6c12.5-21.1 25.2-42.1 37.6-63.2l37.4-63.3C795.2 95.1 807.7 74 820 52.8c-12.9 20.8-25.6 41.8-38.5 62.7l-38.2 62.9c-12.8 20.9-25.3 42-38 63l-19 31.5c-3.2 5.2-6.5 10.5-9.5 15.8-3.1 5.3-6 10.7-8.8 16.2-5.6 10.9-10.8 22.1-15.4 33.5-2.3 5.7-4.5 11.4-6.6 17.2-2 5.8-4.1 11.5-6.2 17.3-8.4 23-16.9 46-25.1 69.1l-24.9 69.2c-8.4 23-16.7 46.1-24.8 69.2z"/><path class="st5" d="M429.2 750.2s-280.9-29.8-324.2-569c0 0 393.7 152.3 324.2 569z"/><path class="st4" d="M417.4 733.7c-10.1-22.3-20-44.8-30-67.2l-29.7-67.3c-9.9-22.4-19.6-44.9-29.5-67.4-2.4-5.6-4.9-11.2-7.3-16.9-2.4-5.6-5-11.2-7.6-16.7-5.3-11-11.1-21.8-17.3-32.3-3.1-5.3-6.3-10.4-9.6-15.6-3.3-5.1-6.8-10.2-10.3-15.2l-20.6-30.5c-13.7-20.3-27.5-40.6-41.2-61l-41-61.1c-13.6-20.4-27.2-40.8-40.7-61.3 14.1 20.1 28 40.3 42 60.4l41.7 60.6c13.9 20.2 27.7 40.5 41.5 60.7l20.7 30.4c3.5 5 7 10.1 10.4 15.2 3.4 5.2 6.6 10.4 9.8 15.7 6.2 10.6 12 21.5 17.3 32.6 2.6 5.6 5.2 11.2 7.6 16.8 2.3 5.7 4.8 11.3 7.2 16.9 9.7 22.5 19.5 45 29 67.6l28.8 67.6c9.8 22.9 19.4 45.4 28.8 68z"/><path class="st5" d="M583.9 723.4s278.9-45 292.9-585.8c-.1 0-384.9 173.4-292.9 585.8z"/><path class="st4" d="M594.8 706.3c8.9-22.9 17.5-45.8 26.3-68.7l26-68.8c8.7-22.9 17.2-45.9 25.8-68.9 2.1-5.7 4.3-11.5 6.4-17.2 2.1-5.7 4.4-11.4 6.7-17.1 4.7-11.3 9.9-22.3 15.6-33.2 2.8-5.4 5.7-10.8 8.8-16.1 3-5.3 6.2-10.5 9.4-15.7l18.9-31.5c12.6-21 25.3-42 37.8-63.1l37.6-63.2c12.4-21.1 25-42.2 37.3-63.4-13 20.8-25.8 41.7-38.6 62.6l-38.3 62.8c-12.8 20.9-25.4 41.9-38.2 62.9L717 399c-3.2 5.2-6.5 10.4-9.6 15.8-3.1 5.3-6 10.7-8.9 16.2-5.7 10.9-10.8 22.1-15.5 33.5-2.3 5.7-4.6 11.4-6.7 17.2-2 5.8-4.2 11.5-6.3 17.3-8.5 23-17 46-25.3 69l-25.1 69c-8.3 23.1-16.6 46.2-24.8 69.3z"/><g><path d="M772.5 743.8H387.1c-17.5 0-31.6-14.1-31.6-31.6V87.7c0-17.5 14.1-31.6 31.6-31.6h385.4c17.5 0 31.6 14.1 31.6 31.6v624.5c0 17.5-14.1 31.6-31.6 31.6z" style="fill:#414042"/><path d="M760.7 725.8H398.9c-17.5 0-31.6-14.1-31.6-31.6V105.7c0-17.5 14.1-31.6 31.6-31.6h361.9c17.5 0 31.6 14.1 31.6 31.6v588.5c0 17.4-14.2 31.6-31.7 31.6z" style="fill:#e6e7e8"/><circle class="st8" cx="584.6" cy="243.3" r="127.8"/><path class="st8" d="M429.2 432.6h310.7v28.6H429.2zM429.2 502.2h310.7v28.6H429.2zM429.2 571.8h310.7v28.6H429.2zM429.2 641.5h310.7v28.6H429.2z"/><ellipse class="st9" cx="579.3" cy="215.7" rx="24.4" ry="35"/><path class="st9" d="M566 239.5s9.5 30.6-9.5 39.7c0 0-12.2-.7 11.9 6.3s37.9-5.7 37.9-5.7l-4.2-1.6s-12.4-1.6-7.8-38.7H566z"/><path d="m551.7 278.3 49.8 1.1 22.7 5.1c3.3.7 5.4 3.9 4.9 7.3l-6.9 40.2h-82.9l-8.3-38c-.9-4.1 1.3-8.2 5.2-9.7l15.5-6z" style="fill:#723acc"/><path class="st11" d="M532.5 287.7s-13.4-4.2-5.3-24.1c8.1-19.8 22.4-25.1 19-42.1s-9.3-36 .5-43.4c9.8-7.5 24.7-12.8 40.6-4.3 0 0 6.4 2.5 16.4 2.8 10.1.3 17.5 12 13.3 26.9-4.2 14.8-5.3 30.8-1.1 39.2 4.2 8.5 15.9 22.3 10.6 33.9-5.3 11.7-4.2 7.4-4.2 7.4s-19.3-1.6-25.6-10.9c-6.2-9.3-2.8-29.4-2.8-29.4s12.4-17.1 14-22.8c0 0 1.1-5.2-3.9-7.7l-7.2-17.2s-1.1-5.3-9.5 1.1-30.8 9.7-30.8 9.7-4.2 1.1-.5 12.2 4.7 23.7 11.6 27.4c0 0 4.8 28-11.1 32.9-15.9 4.8-24 8.4-24 8.4z"/><ellipse transform="rotate(-12.78 556.505 221.525)" class="st9" cx="556.5" cy="221.5" rx="5.9" ry="8.5"/><ellipse transform="rotate(-77.22 602.098 221.523)" class="st9" cx="602.1" cy="221.5" rx="8.5" ry="5.9"/></g><g><path class="st9" d="M333.6 485.7s20.3 54 20.3 59.3 1.1 93.3 12.7 123c11.7 29.7 14.8 36.1 18 54.1 3.2 18 5.3 40.3 5.3 40.3s17 19.1 20.1-2.1l-5.3-49.8s-17-128.3-15.9-138.9c1.1-10.6-2.1-93.3-2.1-93.3l-53.1 7.4z"/><path class="st9" d="M392.3 478.2 390 511l-28.6 136.1v42.1c0 6.4-2.1 29.7-2.1 29.7s-6.4 15.9-5.3 20.1c1.1 4.2 7.4 21.2 14.8 8.5 0 0 5.1 2 3.1-21.8 0 0-.3-12.7 6.2-28.3 0 0 22.5-67.6 26.7-85.6 4.2-18 12.7-56.2 13.8-74.2 1.1-18 20.5-49.8 20.5-49.8l-46.8-9.6z"/><path class="st12" d="M389.4 757.1s-7.5 18.9 2.9 27.4c10.4 8.6 19.9 14.9 23.1 7.5s3.2-26.4-5.3-34.9c0 0-3.2 27.7-20.7 0zM354.4 733.7s-3.1 5.5-3.6 15.9c-.5 10.1 6.4 15.9 11.7 17s18.8-9.6 9.9-29.7c-.1 0-9.1 29.7-18-3.2z"/><ellipse class="st9" cx="396.3" cy="114.4" rx="30.8" ry="44.5"/><ellipse transform="rotate(-19.276 367.83 123.953)" class="st9" cx="367.8" cy="123.9" rx="6.6" ry="9.6"/><ellipse transform="rotate(-70.724 424.889 123.953)" class="st9" cx="424.9" cy="123.9" rx="9.6" ry="6.6"/><path class="st9" d="M380.4 147.3v30.3s-1.1 1.5-7.4 2.6c-6.4 1.1-22.3 4.2-22.3 5.3 0 1.1 7.4 21.2 55.1 17s52-23.3 52-23.3-22.5-4.7-42.5-3.9l-.5-27.9h-34.4z"/><path class="st12" d="M356 181.2s3.2 4.2 17 6.4 62 4.7 80.3-9.3l10.9 2.3-4.2 68.6s-27.6 45.6-19.1 68.9 20.1 74.7 17 98.9c-3.2 24.2-18 74-18 74s-73.7-12.7-105.2 0c0 0-10.9-57.1-13.9-91.1-1.1-12.5.7-25 5.2-36.6 4-10.2 10.6-22.8 21.6-35.6 0 0 17-13.8 10.6-36.1s-10.6-36.1-15.9-42.4l2.1-61.5 11.6-6.5z"/><path class="st9" d="M346.5 188.6s-15.9 2.1-22.3 14.4c-3.3 6.3-14.8 105.5-14.8 117.1v103.5s2.1 13.1-2.1 24.8 4.2 33.9 7.4 37.1c3.2 3.2 5.1 3.6 5.7-4 .6-7.6-6.8-17.2-3.6-21.4 3.2-4.2 3.6 10.3 3.6 10.3s4.8 7 5.9-5.3-5.9-26.3-5.9-26.3l8.1-88.9 13.9-103.8 4.1-57.5zM462.1 181.2s11.7-1.1 14.8 10.6c3.2 11.7 19.1 81.7 15.9 115.6-3.2 33.9-15.2 87.9-15.2 87.9s-2.4 10.3 0 20.6-2.9 24.1-10.3 29.4-8.5 8.5-9.5 0c-1.1-8.5 2.1-14.8 6.4-20.1s4.2-14.3 0-8.8c-4.2 5.6-6.6 8.3-6.6 8.3s-1.9-7 3.4-14.4 3.2-19.2 3.2-19.2 8.5-86.9 3.2-110.2c-5.3-23.3-7.4-31.8-7.4-31.8l2.1-67.9z"/><path class="st11" d="M368.9 125s6.4 3.1 14.4-5.1c2.3-2.4 3.6-5.5 4.2-8.8.5-3.1 3-7.7 12-11.6 14.8-6.4 14.8-8.5 17-8.5 2.1 0 2.1 4.2 3.2 10.6s.9 14 4.1 17.1c3.3 3.1 7.1 2 8.9-4.3 1.8-6.4-.3-7.4-.3-11.7s11.1-9.6 1.8-23.4c0 0-4 .1-7.1-9.5-3.2-9.5-3.2-13.8-11.7-15.9 0 0 4.2-17-7.4-21.2 0 0 5.7-19.1-15.7-18.6s-20.4 32.3-20.4 32.3-12.7 7.4-10.6 20.1c0 0 4.2 7.4-4.2 12.7s-8.5 20.9 0 30.6c0 .2 5.5 15.2 11.8 15.2z"/></g><g><path class="st13" d="m744.3 450.5 18.1 44.9 20-25.7-5.5-8.5-18.6-35.5zM760.1 761.3l-2.1 13.4s7.4 6.8 11.5 2.9c1.8-1.7 3.3-17.3 3.3-17.3l-12.7 1zM814.2 765.6l-2.1 14.8h12.4l1.3-14.8z"/><path class="st14" d="m758 771.1-22.6 12.3s-10.2 5.5-4.9 8.7h42.4s2.1-13.6 0-17.4c-2.1-3.8-3.2 1.3-7.4.3-4.3-1-7.5-3.9-7.5-3.9zM813.1 774.4l-12.7 11.4s-5.3 9.2 3.7 9.4c5.7.1 13.4.1 18.3 0 2.6 0 4.7-2.1 4.7-4.7V779s-2.3-3.8-6.5-.6c0-.1-7.5 2.6-7.5-4z"/><ellipse transform="rotate(-81.825 744.333 436.38)" class="st13" cx="744.3" cy="436.4" rx="21" ry="15.4"/><path class="st14" d="M734.8 419.9s-11.9-4.3-8.7-17c3.2-12.7 11.9-3.8 17.1-1.4 5.2 2.4 16.8-1.8 23.2 7.7 0 0 2.1 3.2 5.3 8.5 0 0 4.9 0 6.5 3.9 1.2 2.8-.1 6-2.6 7.6-.9.6-1.9 1.6-2.8 3.3-2.2 4.2 4.2 5.3-1.1 8.5-5.3 3.2-6.1 3.9-10.5 3.6s-4.4-.4-4.4-.4l1.6-5.7s3.3 3.3 5.6.2c2.4-3-4.4-8.3-4.4-8.3s-1.7-8-7.6-8.3-16-1.8-16-1.8l-1.2-.4z"/><path d="M785.6 590.6s-9.5 28.6-14.8 63.6c-5.3 35-12.7 110.3-12.7 110.3h15.3s34.4-124.1 35-123c.6 1.1 2.7-15.9 3.8-4.2v132.6h14.7L842.8 633s9.5-44.5-3.2-53l-54 10.6z" style="fill:#4570ad"/><path class="st3" d="M716.1 499.9c4.7.9-19.9 5.4-35-11.7-8-9.1-15.1-27-15.1-27l-11.9 8.5s6.4 20.1 12.7 30.8c6.4 10.6 17.2 22 33.4 23.9 16.2 1.9 35-7.4 35-7.4l-19.1-17.1z"/><path class="st16" d="m622.8 410.3 38.7 5.3v4.8l18.1-1.7 1.6 1.7h4.2l-1.3-5.1h-8.4l-.4-34.8 21.2-4.2 14.7 4.7v25s1.2 11.7 6.5 11.7 7.9 2.7 7.9 2.7V454l-9.1 5.7s-16.9 3.6-30.7-2.7v-8.5l-23.3.4-4.4 7.3s-28.5 13.4-35.4 12.4v-58.3z"/><path class="st17" d="m677.4 382.7 14.3-2.6.5 33.4h-14.8z"/><ellipse class="st16" cx="622.8" cy="439.5" rx="11.1" ry="29.2"/><ellipse class="st17" cx="621.7" cy="440.5" rx="5.8" ry="21.7"/><path class="st13" d="M664.7 465.4s3.2-4.2 4.2-10.6c1.1-6.4-3-11.7-5.2-8s-3.9 8.7-3.9 8.7-15.3 6.7-24.3 9.9-9 5.3-1.6 7.4c7.4 2.1 17 0 22.3-2.1 5.3-2.1 8.5-5.3 8.5-5.3zM718.8 444.7l3.2-19s3.2-11.5-3.2-14.5-9.6-4.1-9.6-4.1-10.6 1.1-9.5 8.5c0 0 0 3.2 2.1 3.2s6.3 1.7 6.3 1.7l.5 20.8 10.2 3.4z"/><path class="st3" d="M782.4 465.4s-18-3.1-33.9 10.7c-15.9 13.8-19.1 17-26.5 15.9-7.4-1.1-5.4-13.4-5.4-13.4l4.3-35.4-13.8-2.1s-11.9 35.6-8.1 54.4c3.8 18.8 7 26.2 12.3 28.3 5.3 2.1 24.1 2.5 37-7.2 0 0 20.3 30.6 24.5 39.1 4.2 8.5 11.7 38.2 11.7 38.2s38.2 3.2 56.2-11.7c0 0 1.1-28.6-5.8-51.4 0-.1-12.2-48.6-52.5-65.4z"/><ellipse transform="rotate(-81.825 762.363 436.38)" class="st13" cx="762.4" cy="436.4" rx="6.5" ry="4.7"/></g></svg>