<svg version="1.1" id="Layer_1" xmlns="http://www.w3.org/2000/svg" x="0" y="0" viewBox="0 0 1000 792.5" style="enable-background:new 0 0 1000 792.5" xml:space="preserve"><style>.st5{fill:#6d6964}.st6{fill:#564f45}.st8{fill:#feac02}.st9{fill:#d69a38}.st10{fill:#351a11}.st11{fill:#ff4d53}.st13{fill:#fff}.st18{fill:#58534d}.st19{fill:#c7a48e}.st20{fill:#edd7c2}.st21,.st22{fill:#689d73}.st22{opacity:.64}.st25{opacity:.23;fill:#fff}</style><path d="M989 497.7v2c-.6 84.7-39.8 160.2-100.9 209.8-46.9 38-106.6 60.8-171.7 60.8-47.1 0-91.4-11.9-130-32.9-50.1 24.2-106.2 37.8-165.6 37.8-79.3 0-152.9-24.2-213.9-65.7C134.3 660 79.6 586.2 54.8 499.6c-9.6-33.4-14.7-68.6-14.7-105.1 0-210.2 170.4-380.6 380.6-380.6 80.6 0 155.4 25.1 216.9 67.8 21.3-6.9 44.1-10.6 67.7-10.6 77.2 0 145 39.8 184.2 100 5.1 7.9 9.8 16.1 13.9 24.6 1 2.1 2 4.2 2.9 6.3 4 9.1 7.5 18.5 10.2 28.1.5 1.6.9 3.3 1.4 5 2.4 9.2 4.2 18.6 5.4 28.2 1.1 9.1 1.7 18.3 1.7 27.7 0 9.9-.7 19.7-1.9 29.2 41.1 47.6 65.9 109.6 65.9 177.5z" style="fill:#cfb5f6"/><path d="M989 499.6c-.6 84.7-39.8 160.2-100.9 209.8H206.9C134.3 660 79.6 586.2 54.8 499.6H989z" style="opacity:.3;fill:#fff"/><path style="opacity:.28;fill:#231f20" d="M107.9 553.2H708v18.5H107.9z"/><path d="M809.5 594.8H703.1c-5.6 0-10.1-4.5-10.1-10.1V295.8c0-5.6 4.5-10.1 10.1-10.1h106.4c5.6 0 10.1 4.5 10.1 10.1v288.9c0 5.6-4.5 10.1-10.1 10.1z" style="fill:#d3cdb7"/><path d="M795.8 594.8h-92.6c-5.6 0-10.1-4.5-10.1-10.1V295.8c0-5.6 4.5-10.1 10.1-10.1h92.6c5.6 0 10.1 4.5 10.1 10.1v288.9c0 5.6-4.6 10.1-10.1 10.1z" style="fill:#efe7dc"/><path class="st5" d="M749.5 434.7h-47.9c-1.4 0-2.5-1.1-2.5-2.5s1.1-2.5 2.5-2.5h47.9c1.4 0 2.5 1.1 2.5 2.5s-1.2 2.5-2.5 2.5zM782 442.7h-80.5c-1.4 0-2.5-1.1-2.5-2.5s1.1-2.5 2.5-2.5H782c1.4 0 2.5 1.1 2.5 2.5s-1.1 2.5-2.5 2.5zM762.8 451.9h-57.4c-1.4 0-2.5-1.1-2.5-2.5s1.1-2.5 2.5-2.5h57.4c1.4 0 2.5 1.1 2.5 2.5s-1.2 2.5-2.5 2.5z"/><path class="st6" d="M595.2 592.4h347.9v3.7H595.2zM804.4 394.5h1v57.4h-1zM802.5 451.9h5.8v8h-5.8z"/><path style="fill:#67a16f" d="m705 531-30.8-60.9 26.2 39.3-12-63.8 16.6 49.2v-49.2l4.6 59.1 6.7-42.9v47.6l12.5-30.3-7.3 51.9z"/><path class="st8" d="m733.4 515.8-2 47.7-7.5.2-32.7.8-5.5-48.2 38.2-.4z"/><path class="st9" d="m733.4 515.8-2 47.7-7.5.2v-47.8z"/><circle class="st10" cx="260.7" cy="504.7" r="47.2"/><circle class="st10" cx="490.3" cy="504.7" r="47.2"/><path class="st10" d="M630.4 529.1H108.8c-8.5 0-15.3-6.9-15.3-15.3 0-8.5 6.9-15.3 15.3-15.3h521.6c8.5 0 15.3 6.9 15.3 15.3.1 8.4-6.8 15.3-15.3 15.3z"/><path class="st11" d="M285.5 263.2h351.1v235.2H285.5z"/><path class="st8" d="M285.5 310.9v187.5l-181.5.8v-68.1c0-4.3 1.1-8.6 3.2-12.3l51.8-94.5c4.5-8.2 13.1-13.3 22.5-13.3h104z"/><path d="M250.3 333.6v77.3H142.4c-3.2 0-5.3-3.3-4-6.2l6.5-14.2 8.3-18.1 16.4-36c.7-1.6 2.3-2.6 4-2.6h76.7z" style="fill:#4570ad"/><circle class="st10" cx="192.1" cy="517.3" r="47.2"/><circle class="st10" cx="419.3" cy="517.3" r="47.2"/><circle class="st13" cx="192.1" cy="517.3" r="28.8"/><circle class="st13" cx="419.3" cy="515.8" r="28.8"/><path class="st11" d="M121.9 468.3c0 3-1.2 5.7-3.2 7.6-2 1.9-4.7 3.2-7.6 3.2H104v-21.6h7.1c6 0 10.8 4.8 10.8 10.8z"/><path class="st13" d="M353.9 321.5h-12.6v-4.6H372v4.6h-12.7v36.9h-5.4v-36.9zM376.6 317.5c2.7-.6 6.6-.9 10.3-.9 5.7 0 9.4 1 12 3.4 2.1 1.8 3.3 4.7 3.3 7.9 0 5.5-3.4 9.1-7.8 10.6v.2c3.2 1.1 5.1 4.1 6.1 8.4 1.4 5.8 2.3 9.8 3.2 11.4H398c-.7-1.2-1.6-4.7-2.8-9.9-1.2-5.7-3.4-7.9-8.3-8.1h-5v18h-5.4v-41zm5.3 18.9h5.5c5.7 0 9.3-3.1 9.3-7.9 0-5.3-3.9-7.7-9.5-7.7-2.6 0-4.4.2-5.3.5v15.1zM415 316.9v24.5c0 9.3 4.1 13.2 9.7 13.2 6.1 0 10.1-4.1 10.1-13.2v-24.5h5.4v24.2c0 12.7-6.7 18-15.7 18-8.5 0-14.9-4.9-14.9-17.7V317h5.4zM478.4 357c-2 1-5.9 2-10.9 2-11.7 0-20.5-7.4-20.5-21 0-13 8.8-21.8 21.6-21.8 5.2 0 8.4 1.1 9.8 1.8l-1.3 4.4c-2-1-4.9-1.7-8.4-1.7-9.7 0-16.2 6.2-16.2 17.1 0 10.1 5.8 16.7 15.9 16.7 3.3 0 6.6-.7 8.7-1.7l1.3 4.2zM485.1 316.9h5.3v20h.2c1.1-1.6 2.2-3.1 3.3-4.4l12.7-15.6h6.6l-15 17.6 16.2 23.9H508L494.4 338l-3.9 4.6v15.8h-5.3v-41.5zM346 391.3c2.7-.6 6.6-.9 10.3-.9 5.7 0 9.4 1 12 3.4 2.1 1.8 3.3 4.7 3.3 7.9 0 5.5-3.4 9.1-7.8 10.6v.2c3.2 1.1 5.1 4.1 6.1 8.4 1.4 5.8 2.3 9.8 3.2 11.4h-5.5c-.7-1.2-1.6-4.7-2.8-9.9-1.2-5.7-3.4-7.9-8.3-8.1h-5v18H346v-41zm5.4 18.9h5.5c5.7 0 9.3-3.1 9.3-7.9 0-5.3-3.9-7.7-9.5-7.7-2.6 0-4.4.2-5.3.5v15.1zM400.5 412.7h-16.1v14.9h18v4.5h-23.3v-41.4h22.4v4.5h-17v13.1h16.1v4.4zM409.3 432.2v-41.4h5.8l13.3 21c3.1 4.9 5.5 9.2 7.4 13.5l.1-.1c-.5-5.5-.6-10.6-.6-17v-17.3h5v41.4H435l-13.2-21c-2.9-4.6-5.7-9.3-7.7-13.8l-.2.1c.3 5.2.4 10.2.4 17.1v17.7h-5zM457.7 395.3h-12.6v-4.6h30.7v4.6h-12.7v36.9h-5.4v-36.9zM482.5 419.1l-4.3 13h-5.5l14.1-41.4h6.5l14.1 41.4h-5.7l-4.4-13h-14.8zM496 415l-4-12c-.9-2.7-1.5-5.2-2.2-7.6h-.1c-.6 2.5-1.3 5-2.1 7.5l-4.1 12H496zM513.4 390.7h5.3v37h17.7v4.5h-23.1v-41.5z"/><path d="m213.6 380.8-55.2 30.1h-15.9c-3.2 0-5.3-3.3-4-6.2l6.5-14.2 8.3-18.1s60.2-41.6 52-26c-8.1 15.4-58.6 43.3-60.2 44.1l47.1-18.1-40.2 30.1 61.6-21.7z" style="opacity:.29;fill:#fff"/><path style="opacity:.5;fill:#38808e" d="M275.4 310.9h10.1v187.5h-10.1z"/><path style="fill:#d64556" d="M570.1 263.2h66.5v235.2h-66.5z"/><g><path style="fill:#efd5be" d="M543.4 540.7h190v84.4h-190z"/><path class="st18" d="M725 612.3h-17.2v-18H725v18zm-17-1.3h16.6v-15.6H708V611zM705.3 612.3h-17.2v-18h17.2v18zm-16.9-1.3H705v-15.6h-16.6V611zM638.4 610h-58.3v-14.8h58.3V610zm-57.3-1h56.3v-12.8h-56.3V609z"/><path class="st19" d="M543.4 540.7h23.1v84.4h-23.1zM647.6 540.7h1.9v84.4h-1.9z"/></g><g><path class="st20" d="M605 564.5h80.7v60.6H605z"/><path class="st19" d="M605 564.5h24.8v60.6H605z"/><path class="st18" d="M675.2 616.4h-58.3v-14.8h58.3v14.8zm-57.3-1h56.3v-12.8h-56.3v12.8z"/></g><g><path class="st20" d="M605 479.1h80.7v60.6H605z"/><path class="st19" d="M605 479.1h24.8v60.6H605z"/><path class="st18" d="M675.2 531h-58.3v-14.8h58.3V531zm-57.3-1h56.3v-12.8h-56.3V530z"/></g><path class="st9" d="m723.9 563.7 7.5-.2 2-47.7-9.5.1z"/><path class="st6" d="M790.2 395.5h6.1v229.6h-6.1z"/><path class="st6" d="M827 625.1h-69.1c0-5.3 4.3-9.7 9.7-9.7h49.8c5.2 0 9.6 4.3 9.6 9.7z"/><path class="st11" d="m741.8 401.4 7.7-65h85.7l5.5 65.9z"/><path class="st6" d="M513.6 625.1h347.9v3.7H513.6z"/><g><path class="st21" d="M867.7 487h2v70.8h-2z"/><path transform="rotate(-43.498 877.82 507.11)" class="st21" d="M865.2 506.1h25.2v2h-25.2z"/><path transform="rotate(-35.659 861.397 525.423)" class="st21" d="M860.5 513.5h2v23.9h-2z"/><path class="st22" d="M885.2 501.6s0-.1-.1-.4c-.8-3.2-5.9-26.3 24.8-28.8h.4s4.1 29.5-25.1 29.2z"/><path class="st21" d="m909.9 472.4-24.8 28.8c-.9-3.2-6-26.3 24.8-28.8z"/><path class="st22" d="M858 521.1s0 .1-.1.3c-.6 2.2-5.6 17.8-24.8 8.7-.1 0-.2-.1-.3-.1 0-.1 7.8-19.2 25.2-8.9z"/><path class="st21" d="m833.1 530 24.8-8.7c-.6 2.3-5.5 17.9-24.8 8.7z"/><path class="st22" d="M857.6 520.1s-.1 0-.4.1c-3.1.8-25.9 5.9-28.4-24.4v-.4s29.1-4.1 28.8 24.7z"/><path class="st21" d="m828.8 495.8 28.4 24.4c-3.1.8-25.9 5.9-28.4-24.4z"/><g><path class="st22" d="M868.9 495.1s-.1 0-.4.1c-3.6 1-30.1 6.8-33-28.4v-.5c-.1 0 33.7-4.7 33.4 28.8z"/><path class="st21" d="m835.5 466.8 33 28.4c-3.7 1-30.2 6.8-33-28.4z"/></g><g><path class="st22" d="M869.5 489.2s-.2-.1-.5-.4c-4-3.6-31.3-29.9 13.1-45.6.2-.1.4-.1.6-.2.1 0 31.4 34.5-13.2 46.2z"/><path class="st21" d="m882.2 443.2-13.1 45.6c-4-3.5-31.3-29.9 13.1-45.6z"/></g><g><path class="st22" d="M878.9 505.5s.1-.1.3-.2c2.5-2.1 21.5-16.3 36.5 10.7.1.1.1.3.2.4 0-.1-25.2 15.9-37-10.9z"/><path class="st21" d="m915.7 515.9-36.5-10.7c2.5-2.1 21.5-16.2 36.5 10.7z"/></g><g><path style="fill:#ae5e3b" d="M883 594.3h-28.6l-4.5-37.1H887z"/><path style="fill:#9e5339" d="M845.3 551.8h46.8v11.8h-46.8z"/></g></g><path class="st25" d="M129.5 196.4s-19.6-13 0-23.1c0 0 3.8 3.6 8.8-5.1 5-8.7 18.1-13.7 25.3-4.3 7.2 9.4 3.8 15.2 9.5 13.7s15.7-2.2 14.3 7.9c-1.4 10.1 3.2 9.4-9.2 10.8-12.4 1.5-48.7.1-48.7.1zM354.1 89.5s-38.9-14.4 0-37.5c0 0 23-2.9 31.7-8.6s40.8-47.5 73.7 0c0 0 42.6-5.8 42.1 23 0 0 5.7 30.3-42.1 17.3l-105.4 5.8zM679.9 154.6s-17.7-6.6 0-17.1c0 0 10.5-1.3 14.4-3.9 3.9-2.6 18.6-21.7 33.6 0 0 0 19.4-2.6 19.2 10.5 0 0 2.6 13.8-19.2 7.9l-48 2.6zM486.6 173.1s-21-7.8 0-20.2c0 0 12.5-1.6 17.1-4.7 4.7-3.1 22-25.7 39.8 0 0 0 23-3.1 22.7 12.5 0 0 3.1 16.3-22.7 9.3l-56.9 3.1z"/><circle class="st25" cx="609.2" cy="103.2" r="25"/><path class="st25" d="M903.5 195.6c-2.5 2.2-5.8 3.6-9.3 3.6H797c-7.8 0-14.1-6.3-14.1-14.1 0-3.9 1.6-7.4 4.1-9.9s6.1-4.1 10-4.1h92.7l13.8 24.5zM916.6 230.1H853c-7.8 0-14.1-6.3-14.1-14.1 0-3.9 1.6-7.4 4.1-10s6.1-4.1 10-4.1h53.4c4 9.1 7.4 18.5 10.2 28.2zM923.4 263.2h-79.9c-7.8 0-14.1-6.3-14.1-14.1 0-3.9 1.6-7.4 4.1-10 2.5-2.5 6.1-4.1 10-4.1H918c2.3 9.2 4.2 18.6 5.4 28.2zM175.8 103.2h109.7l-140.6 29zM819.4 103.2l-67.2 8.7 88.4 6.6zM337.8 143.2c.2-10.9-16-8.7-16-8.7-12.5-18-24.7-2.2-27.9 0-3.3 2.2-12 3.3-12 3.3-.4.2-.8.5-1.2.7l-47.6 6.2 43.1 3.2c1.8 2.6 5.7 4.1 5.7 4.1l40-2.2c18.1 4.9 15.9-6.6 15.9-6.6z"/></svg>