<svg version="1.1" id="Layer_1" xmlns="http://www.w3.org/2000/svg" x="0" y="0" viewBox="0 0 950 658" style="enable-background:new 0 0 950 658" xml:space="preserve"><style>.st3{fill:#263238}.st5{fill:#6d6e71}.st7{fill:#ffbe9d}.st9{fill:#ff4d53}.st10{fill:#808285}.st11{fill:#d1d3d4}.st12{fill:#fff}.st13{fill:#52627f}.st18{opacity:.51}.st20{opacity:.68;fill:#f1f2f2}.st21{fill:#455a64}.st22{display:none}.st23{display:inline;fill:#455a64}.st25{fill:#4570ad}.st29{opacity:.46}.st30{fill:#f1f2f2}.st32{fill:#c0c3c5}</style><path d="M679.8 638.9H275.2C130.9 638.9 14 521.9 14 377.7V272.2C14 127.9 130.9 11 275.2 11h404.7C824.1 11 941 127.9 941 272.2v105.6c0 144.1-116.9 261.1-261.2 261.1z" style="fill:#cfb5f6"/><path d="M662 636.9H287c-137.5 0-249-111.5-249-249v-96c0-137.5 111.5-249 249-249h375c137.5 0 249 111.5 249 249v96c0 137.5-111.5 249-249 249z" style="opacity:.68;fill:#fff"/><path d="M621.5 640h-322C155.1 640 38 522.9 38 378.5v-59C38 175.1 155.1 58 299.5 58h322C765.9 58 883 175.1 883 319.5v59C883 522.9 765.9 640 621.5 640z" style="fill:#c0a3ef"/><path class="st3" d="M67 608h856v9H67z"/><g style="opacity:.57"><path class="st5" d="M180.4 498.6H56.1c-3 0-5.4-2.4-5.4-5.4v-13c0-3 2.4-5.4 5.4-5.4h124.4c3 0 5.4 2.4 5.4 5.4v13c0 3-2.5 5.4-5.5 5.4z"/><path transform="rotate(-35.505 114.026 549.918)" class="st5" d="M111.9 480.8h4.3v138.4h-4.3z"/><path transform="rotate(-49.238 121.478 551.198)" class="st5" d="M48.5 549h145.9v4.3H48.5z"/></g><g style="opacity:.5"><path transform="rotate(-37.058 380.53 563.936)" class="st5" d="M377.8 512.9h5.4V615h-5.4z"/><path class="st5" d="m333.9 606.4-6.9-.1 97-112.7 4.1 3.6z"/><path class="st5" d="M395.6 475.1H429c4.3 0 8.2 2.8 9.4 6.9.7 2.4 1.2 5.2.9 8-.5 4.9-4.8 8.6-9.8 8.6h-30.6l-3.3-23.5z"/></g><path class="st7" d="M292.9 573.3v22.8h20.9v-25.5zM395.6 570.6l1.3 25.5 21.5 1v-26.5z"/><path class="st3" d="M395.6 590.4s-7.6 7.1 0 13.4c7.6 6.3 24.9 26.8 24.9 26.8s9.7 3.2 7.6-4.3-7.6-31.4-7.6-31.4l-2.2-2.8s-4.3 4.9-13 2.8-9.7-4.5-9.7-4.5zM313.8 592.1s5.1 10.3 1.9 15.8h-46.5s1.1-5.6 5.4-6.6c4.3-1 17.3-9.6 17.3-9.6s13.5 4.2 21.9.4z"/><ellipse transform="rotate(-83.431 372.47 305.58)" class="st7" cx="372.4" cy="305.6" rx="27" ry="19.5"/><path class="st7" d="M367.6 328.8v29s21.6 4.9 25.4-4V342s-2.7-9.7 0-21.2l-2.6-6.3-22.8 14.3z"/><path class="st3" d="M356.6 291.4s-3.1-8.9 11-16.5h6.6s-7.6-3.4-6.6-6.6c1.1-3.2 5.4-5.4 7.6-4.3 0 0-5.4-5.4-2.7-10.3l5.9 7s3.2-7.6 8.7-8.7c0 0 4.3 1.5 0 5.6 0 0 8.7-5.6 11.9-1.3 0 0 4.3 3.2 4.3 5.4 0 0 6.5-2.2 9.7 0l-5.4 4.3s9.7 1.1 9.7 7.6-1.1 0-1.1 0l-6.7-2 3.5 10.6-1.1 2.2-.4 6.9h-2.6l-.2-4.7-3.2 1.1-.5 3.7h-6l-2.2 15.8-5.9-1.6s-.9-16-2.9-18-4.2-4.2-9.6-3.1c-5.4 1.1-6.5 3.2-9.7 3.2s-5.8-4.6-12.1 3.7z"/><path d="m367.6 338.6-23.2 1.1-61.2 15.1s-8.7 1.1-8.7 11.9v8s13-3.7 19.5 7.1l2.2-8.7 44.3-3.2 5.4 67.1 70.3-1.1s10.8-1.1 4.3-9.7c-6.5-8.7-11.9-20.9-3.2-28.3l8.4 8.6c2.1 2.1 4.8 3.4 7.7 3.8 3.8.4 8.8-.3 11.4-5.6 1.8-3.7 1.5-8.1-.6-11.7l-24.8-43.6s-9.7-11.6-26.5-7.4c0 0-1.6 10.7-14.6 9.6-13.2-1.2-10.7-13-10.7-13z" style="fill:#6f41c9"/><path class="st9" d="m286.4 498.6 2.2 76.8h31.6l1.9-57.3z"/><path class="st10" d="M382.7 371s13 2.2 18.4 11.9c5.4 9.7 12.1 30.5-2.7 42.8-13.5 11.3-20 15.6-18.9 22.1s9.7 34.6 4.3 48.7c-5.4 14.1-17.3 33.5-48.7 31.4-31.4-2.2-43.3-10.8-48.7-23.8-1.8-4.3-2.8-9.3-3.3-13.9-1.1-10.1 2.5-20.1 9.6-27.4l90-91.8z"/><path class="st11" d="M345.9 372.1s17-5.2 36.5-.8c8.8 2 15.5 9.4 15.9 18.4.2 5.9-2.1 13.2-10.2 21.4 0 0-21.6 16.7-18.9 27.8 2.7 11.1 5.9 11.1 8.1 26.3 2.5 17.3-5.4 44.3-45.4 45.4S283.2 490 283.2 490s-8.7-16.2 13-35.7 29.2-23.8 28.1-38.9c-1.1-15.2-1.1-34.7 21.6-43.3z"/><path class="st12" d="M345.9 372.1c7-1.9 14.3-2.7 21.6-2.6 3.6.1 7.3.3 10.9.9.9.1 1.8.3 2.7.5l1.3.3 1.3.4c1.8.5 3.4 1.3 5 2.2 3.1 1.9 5.8 4.6 7.5 7.9 1.7 3.2 2.5 7 2.2 10.7-.3 3.7-1.6 7.2-3.4 10.4-1.8 3.2-4.2 6.1-6.7 8.7-3.1 2.5-6 5.2-8.8 8.1-2.7 2.9-5.3 5.9-7.3 9.3-1.9 3.3-3.5 7.2-2.2 10.9.5 1.9 1.1 3.8 1.9 5.6.7 1.8 1.6 3.6 2.4 5.5 1.6 3.7 2.6 7.7 3.3 11.7.3 2 .7 4 .8 6 .1 2 .1 4.1-.1 6.1-.6 8.1-3.7 16.2-9.2 22.4-5.4 6.2-13 10.3-20.9 12.3-7.9 2.2-16.1 2.4-24.1 2.1-8.1-.4-16.2-1.9-23.7-5.2l-1.4-.6c-.5-.2-.9-.4-1.4-.7l-2.7-1.5c-.9-.5-1.7-1.1-2.6-1.7-.9-.5-1.6-1.3-2.4-1.9-3.1-2.7-5.9-5.7-7.7-9.6v.1c-1.3-3-1.8-6-1.7-9.1 0-3.1.7-6.1 1.7-9 2-5.8 5.8-10.8 9.9-15.1l3.3-3.1 3.4-3 6.8-5.9c4.5-3.9 9.1-7.8 12.9-12.4 1.9-2.3 3.5-4.8 4.4-7.6.9-2.8 1.2-5.8 1-8.8-.3-6-.7-12 .2-17.9.1-.7.2-1.5.4-2.2.2-.7.3-1.5.5-2.2.4-1.4.8-2.9 1.4-4.3.5-1.4 1.3-2.7 2-4 .4-.6.8-1.2 1.2-1.9l.6-.9c.2-.3.5-.6.7-.9 4.2-4.6 9.4-7.9 15-10zm0 0c-5.6 2.1-10.8 5.4-14.6 10.1-.2.3-.5.6-.7.9l-.6.9c-.4.6-.9 1.2-1.2 1.9-.7 1.3-1.4 2.6-1.9 4-.6 1.4-1 2.8-1.4 4.2-.2.7-.3 1.5-.5 2.2-.2.7-.3 1.5-.4 2.2-.9 5.9-.5 11.9-.1 17.9.2 3 0 6-.9 8.9-.9 2.9-2.5 5.5-4.4 7.9-3.8 4.7-8.4 8.6-12.8 12.6l-6.7 6-3.3 3-3.2 3.1c-4 4.3-7.6 9.2-9.4 14.8-1 2.7-1.5 5.7-1.5 8.6 0 1.4.1 2.9.4 4.3.3 1.4.7 2.8 1.3 4v.1c.8 1.6 1.9 3.3 3.2 4.8 1.3 1.5 2.7 2.8 4.2 4.1.8.6 1.5 1.3 2.3 1.8.8.5 1.6 1.1 2.4 1.6l2.6 1.4c.4.2.9.5 1.3.6l1.3.6c7.2 3.1 15.1 4.6 23 4.9 4 .1 7.9.2 11.9-.2 3.9-.3 7.8-.9 11.6-1.9 7.6-2 14.8-5.8 19.9-11.6 5.2-5.8 8.2-13.4 8.9-21.2.2-1.9.2-3.9.1-5.9-.1-2-.4-3.9-.7-5.9-.6-3.9-1.5-7.8-3.1-11.4-.7-1.8-1.6-3.6-2.3-5.5-.7-1.9-1.3-3.8-1.8-5.8-.3-.9-.5-2-.5-3.1s.2-2.1.4-3.1c.5-2 1.5-3.9 2.5-5.6 2.1-3.5 4.8-6.5 7.6-9.4 2.8-2.9 5.8-5.5 9-8 2.6-2.5 4.9-5.3 6.8-8.4 1.8-3.1 3.1-6.5 3.5-10.1.4-3.6-.3-7.3-2-10.5s-4.3-5.9-7.3-7.8c-1.5-.9-3.2-1.7-4.9-2.2l-1.3-.4-1.3-.3c-.9-.2-1.8-.4-2.7-.5-3.6-.6-7.2-.9-10.9-1-7.4-.3-14.7.5-21.8 2.4z"/><path class="st13" d="M320.4 448.1c1.7.6 3.6.3 4.9-.8 1.4-1.2 3.6-4.2 1.4-11.4-1.4-4.7-1.2-8 .6-9.9 2.4-2.6 7.2-1.7 7.2-1.7l.2-1.1c-.2 0-5.4-1.1-8.2 2-2 2.2-2.3 5.9-.8 11 1.4 4.8 1 8.6-1.1 10.3a4.1 4.1 0 0 1-4.5.3c-1.3-.7-2-2.1-1.8-3.6l-1.1-.1c-.3 2 .6 3.7 2.3 4.7.3 0 .6.2.9.3z"/><path class="st9" d="M417.5 440s-7.5-14.7-31.4-4-1.8 59-1.8 59l4.9 79.3s30.7 1.1 30.5 0 0-94.1 0-94.1 10.9-19.8-2.2-40.2z"/><path class="st3" d="M321.1 456.2h12.5l-16.9 50.1z"/><ellipse transform="rotate(-60 392.994 312.073)" class="st7" cx="393" cy="312.1" rx="8.4" ry="6.1"/><path class="st3" d="M406.1 320.1s-.1 6.1-5.8 10.7l-.7 1.1-60.2 99.8-13-2.2 65.1-102.9 1.4-2.3s3.4-6 4.7-8.3c0 0-1.3-7.7 2.7-8.8 0 0 11.6-4.3 11.6 6.5 0 0 .3 4.1-5.8 6.4z"/><path class="st11" d="M341.9 428.1h-.1l-12.2-2.4c-.3-.1-.5-.3-.4-.6.1-.3.3-.5.6-.4L342 427c.3.1.5.3.4.6 0 .3-.2.5-.5.5zM344.1 424.8h-.1l-12.2-2.4c-.3-.1-.5-.3-.4-.6.1-.3.3-.5.6-.4l12.2 2.4c.3.1.5.3.4.6-.1.2-.3.4-.5.4zM346.2 421.6h-.1l-12.2-2.4c-.3-.1-.5-.3-.4-.6.1-.3.3-.5.6-.4l12.2 2.4c.3.1.5.3.4.6 0 .2-.2.4-.5.4zM348.4 418.3h-.1l-12.2-2.4c-.3-.1-.5-.3-.4-.6.1-.3.3-.5.6-.4l12.2 2.4c.3.1.5.3.4.6 0 .3-.3.4-.5.4zM350.6 412.9s-.1 0 0 0l-11.3-2.3c-.3-.1-.4-.3-.4-.6.1-.3.3-.5.6-.4l11.2 2.3c.3.1.4.3.4.6-.1.3-.3.4-.5.4zM354.6 407.1h-.1l-11.9-2.1c-.3-.1-.5-.3-.4-.6.1-.3.3-.4.6-.4l11.9 2.1c.3.1.5.3.4.6 0 .2-.2.4-.5.4zM356.8 403.8h-.1l-11.9-2.1c-.3-.1-.5-.3-.4-.6.1-.3.3-.4.6-.4l11.9 2.1c.3.1.5.3.4.6-.1.3-.3.4-.5.4zM358.2 401c-.1 0-.1 0 0 0l-11.3-2.3c-.3-.1-.4-.3-.4-.6.1-.3.3-.5.6-.4l11.2 2.3c.3.1.4.3.4.6-.1.3-.3.4-.5.4zM360.3 397.8l-11.3-2.3c-.3-.1-.4-.3-.4-.6.1-.3.3-.5.6-.4l11.2 2.3c.3.1.4.3.4.6 0 .2-.2.4-.5.4zM362.5 394.5h-.1l-12.2-2.4c-.3-.1-.5-.3-.4-.6.1-.3.3-.5.6-.4l12.2 2.4c.3.1.5.3.4.6-.1.3-.3.4-.5.4zM364.6 391.3h-.1l-12.2-2.4c-.3-.1-.5-.3-.4-.6.1-.3.3-.5.6-.4l12.2 2.4c.3.1.5.3.4.6 0 .2-.2.4-.5.4zM366.8 388h-.1l-12.2-2.4c-.3-.1-.5-.3-.4-.6.1-.3.3-.5.6-.4l12.2 2.4c.3.1.5.3.4.6 0 .3-.3.4-.5.4zM368.7 384.4h-.1l-11.9-2.1c-.3-.1-.5-.3-.4-.6.1-.3.3-.4.6-.4l11.9 2.1c.3.1.5.3.4.6-.1.2-.3.4-.5.4zM370.8 380h-.1l-11.9-2.1c-.3-.1-.5-.3-.4-.6.1-.3.3-.4.6-.4l11.9 2.1c.3.1.5.3.4.6 0 .3-.2.4-.5.4zM373 376.8h-.1l-11.9-2.1c-.3-.1-.5-.3-.4-.6.1-.3.3-.4.6-.4l11.9 2.1c.3.1.5.3.4.6 0 .2-.3.4-.5.4zM374.2 373.7l-9-2.3c-.2-.1-.4-.3-.3-.6 0-.3.3-.4.5-.4l8.9 2.2c.2.1.4.3.3.6 0 .4-.2.5-.4.5zM376.6 370.7s-.1 0 0 0l-10.3-2.3c-.2-.1-.4-.3-.4-.6s.3-.5.5-.4l10.2 2.3c.2.1.4.3.4.6s-.2.4-.4.4zM377.7 367.5s-.1 0 0 0l-10.3-2.3c-.2-.1-.4-.3-.4-.6s.3-.5.5-.4l10.2 2.3c.2.1.4.3.4.6 0 .2-.2.4-.4.4zM379.8 364.2l-10.3-2.3c-.2-.1-.4-.3-.4-.6s.3-.5.5-.4l10.2 2.3c.2.1.4.3.4.6s-.1.4-.4.4zM382 361s-.1 0 0 0l-10.3-2.3c-.2-.1-.4-.3-.4-.6s.3-.5.5-.4L382 360c.2.1.4.3.4.6 0 .2-.2.4-.4.4zM384.2 357.8c-.1 0-.1 0 0 0l-10.3-2.3c-.2-.1-.4-.3-.4-.6s.3-.5.5-.4l10.2 2.3c.2.1.4.3.4.6 0 .2-.2.4-.4.4zM385.3 354.5c-.1 0-.1 0 0 0l-10.3-2.3c-.2-.1-.4-.3-.4-.6s.3-.5.5-.4l10.2 2.3c.2.1.4.3.4.6 0 .2-.2.4-.4.4zM386.3 351.3 376 349c-.2-.1-.4-.3-.4-.6s.3-.5.5-.4l10.2 2.3c.2.1.4.3.4.6 0 .2-.2.4-.4.4zM388.5 348s-.1 0 0 0l-10.3-2.3c-.2-.1-.4-.3-.4-.6s.3-.5.5-.4l10.2 2.3c.2.1.4.3.4.6s-.2.4-.4.4zM390.7 345.9c-.1 0-.1 0 0 0l-10.3-2.3c-.2-.1-.4-.3-.4-.6s.3-.5.5-.4l10.2 2.3c.2.1.4.3.4.6 0 .2-.2.4-.4.4zM392.8 343.7l-10.3-2.3c-.2-.1-.4-.3-.4-.6s.3-.5.5-.4l10.2 2.3c.2.1.4.3.4.6 0 .2-.2.4-.4.4zM395 340.5s-.1-.1 0 0l-10.3-2.3c-.2-.1-.4-.3-.4-.6s.3-.5.5-.4l10.2 2.3c.2.1.4.3.4.6 0 .2-.2.4-.4.4zM397.2 337.2c-.1 0-.1 0 0 0l-10.3-2.3c-.2-.1-.4-.3-.4-.6s.3-.5.5-.4l10.2 2.3c.2.1.4.3.4.6 0 .2-.2.4-.4.4zM399.3 334l-10.3-2.3c-.2-.1-.4-.3-.4-.6s.3-.5.5-.4l10.2 2.3c.2.1.4.3.4.6 0 .2-.2.4-.4.4z"/><path class="st13" d="M359.3 453.3c-1.8 0-3.5-.9-4.4-2.4-1-1.6-2-5.1 2.5-11.2 2.9-3.9 3.8-7.2 2.8-9.5-1.4-3.3-6.2-4-6.2-4l.1-1.1c.2 0 5.4.8 7.1 4.6 1.2 2.8.2 6.3-2.9 10.6-3 4.1-3.9 7.7-2.4 10 .9 1.4 2.5 2.1 4.2 1.8 1.5-.3 2.6-1.3 2.9-2.8l1.1.2c-.4 1.9-1.8 3.3-3.8 3.6-.4.2-.7.2-1 .2z"/><path class="st12" d="m319 498.8-1.1-.2 9.1-67.2.1-.1L393.6 324l.9.6-66.4 107.2-7 51.6 11.1-53.3v-.1l64-103.5 1 .5-64 103.5z"/><path class="st12" d="m319 498.8-1.1-.3 16.3-66.6 64.8-103 .9.6-64.7 102.9z"/><path class="st7" d="M398.9 364.5s-.1 10.5-3.3 10.1c-3.2-.4-19.3-5.1-19.3-5.1s-.2-5.1 1.5-5.1l-10.2 1s-4.3-1-1.1-3.2c3.2-2.2 7.1-2.1 7.1-2.1s5.9 1 4.8-2.2c-1.1-3.2-6.1-2.2-6.8 0 0 0-4-2.2-.8-5.4s9.5 0 9.5 0 1.9-1 0-3.2-4.1-1.1-4.1-1.1-5.4-4.3 0-4.3 8.7 2.2 8.7 2.2 2.8 1.1 1.9 6.5c0 0 8.9 11.9 12.1 11.9z"/><path class="st11" d="M406.1 320.1s-.1 6.1-5.8 10.7l-.7 1.1-8.1-5.3 1.4-2.3s3.4-6 4.7-8.3c0 0-1.3-7.7 2.7-8.8 0 0 11.6-4.3 11.6 6.5 0 0 .3 4.1-5.8 6.4z"/><path class="st3" d="M408.1 432.9h-.9c-11.6-1.2-116.3-34-122.1-35.9-.7-.1-3.5-.5-4.7-2.8-1-1.8-.8-4.1.7-6.9l.4-.8 128.5 39 .2.3c.4.6 2.2 3.7 1 5.7-.6.9-1.6 1.4-3.1 1.4zm-125.5-43.8c-.6 1.3-.9 2.9-.3 4 .8 1.5 3.1 1.7 3.1 1.7h.2c1.1.3 110.4 34.6 121.8 35.8 1 .1 1.6 0 1.8-.3.3-.5-.2-2.1-.8-3.1l-125.8-38.1z"/><path class="st7" d="M294 380.7s-2.2 16.2-8.7 16.2c0 0-4.3-2.2-1.1-4.3 3.2-2.2 2.7-5.9 2.7-5.9s-2.9-1.6-5 2.2c-2.1 3.8-1.5 8.1-1.5 8.1s-1.7 3.2-3.8 2.2c-2.2-1.1 0-3.3 0-3.3s-4.3 4.4-5.4 0c-1.1-4.3 3.2-13.4 3.2-13.4s-1.1-3.9-4.3.4c-3.2 4.3-1.8 3.8-1.8 3.8s.7 5.9-2.5 2.7 0-11 8.7-15.8c8.7-4.8 19.5 7.1 19.5 7.1z"/><g><g style="opacity:.28"><path class="st5" d="M872.2 433.2H463.3v-64.1c0-2.8 2.3-5.1 5.1-5.1h403.8v69.2z"/><path class="st5" d="M455.6 432.1h419.8c4.2 0 7.6 3.4 7.6 7.6v32.5c0 4.2-3.4 7.6-7.6 7.6H455.6c-2.3 0-4.2-1.9-4.2-4.2v-39.2c0-2.4 1.9-4.3 4.2-4.3z"/><path d="m473 369.9 323.9-215.8s4 13.5-9 20.3c-13 6.9-91.7 61.4-93.1 90.4L537.6 381.3 473 369.9z" style="opacity:.18;fill:#c0c3c5"/><path class="st5" d="M487.2 370.5 796.9 165s3.9 12.8-8.6 19.3c-12.4 6.5-87.7 58.4-89 86L549 381.3l-61.8-10.8z"/><path transform="rotate(-33.829 795.824 309.833)" class="st5" d="M793.2 200h5.4v219.6h-5.4z"/><path style="opacity:.67;fill:#fff" d="M488.2 444h371v8.7h-371z"/><path class="st5" d="M824 499.7h14.1v108.2H824zM488.2 475.4h17.3v130.9h-17.3z"/></g><path d="M732.1 474.9h104.7c3.1 0 5.7 2.5 5.7 5.7v13.5c0 3.1-2.5 5.7-5.7 5.7H732.1v-24.9z" style="opacity:.51;fill:#6d6e71"/><g class="st18"><path transform="rotate(-53.72 776.089 551.134)" class="st5" d="M706.3 548.4h139.5v5.4H706.3z"/></g><g style="opacity:.23"><path class="st20" d="M602.1 389.8h75.7l21.5 54.2-75.6-.5z"/><path class="st21" d="M648.3 444h2.2v130.9h-2.2z"/><path class="st21" d="M623.7 444.6h-5.3l-16.8-45.8h71.1l17.5 45-1 .4-17.2-44.3h-68.8l16 43.6h4.5z"/><path class="st21" d="m650.4 445.9-43.9-44.5.8-.8 41 41.6-14.2-52.5 1.1-.3z"/><path class="st21" d="m687.4 440.5-49.5-38.6-16.9 34-1-.4 17.6-35.3 50.5 39.4z"/><path transform="rotate(-62.187 660.298 423.146)" class="st21" d="M636.8 422.6H684v1.1h-47.2z"/><path transform="rotate(-22.542 654.177 452.911)" class="st21" d="M653.7 444.5h1.1v17h-1.1z"/><path class="st21" d="m606 608.8-1.3-1.8 44.7-33.5 39 33.6-1.4 1.6-37.7-32.5z"/></g><g class="st18"><path transform="rotate(-34.822 828.016 551.132)" class="st5" d="M825.3 482.6h5.4v137h-5.4z"/></g></g><g style="opacity:.25"><path class="st20" d="M183.5 389.8h75.7l21.5 54.2-75.6-.5z"/><path class="st21" d="M229.7 444h2.2v130.9h-2.2z"/><path class="st21" d="M205.1 444.6h-5.3L183 398.8h71.1l17.5 45-1 .4-17.2-44.3h-68.8l16 43.6h4.5z"/><path class="st21" d="m231.8 445.9-43.9-44.5.8-.8 41 41.6-14.2-52.5 1.1-.3z"/><path class="st21" d="m268.8 440.5-49.5-38.6-16.9 34-1-.4 17.6-35.3 50.5 39.4z"/><path transform="rotate(-62.187 241.727 423.136)" class="st21" d="M218.2 422.6h47.2v1.1h-47.2z"/><path transform="rotate(-22.542 235.603 452.924)" class="st21" d="M235.1 444.5h1.1v17h-1.1z"/><path class="st21" d="m187.4 608.8-1.3-1.8 44.7-33.5 39 33.6-1.4 1.6-37.7-32.5z"/></g><g><path class="st7" d="m94.5 561.6-5.1 22.3s11 14 20.2 6.6l6.3-19.8-21.4-9.1zM151.9 577.1l1.3 20 22.9-3.3v-16.7z"/><path class="st25" d="M150.3 592.6v15.3l51.2-1.5s.4-6.1-12.5-9.3c-12.8-3.2-13.1-5.4-13.1-5.4l-25.6.9zM87.4 580.9l-5.6 15.3 45.6 17.2s5.4-2.1 0-7l-17.9-15.9c.1-.1-17.8-4.2-22.1-9.6z"/><ellipse class="st7" cx="117.7" cy="297.5" rx="19.5" ry="27"/><path d="M103.6 287.7s16.7-7.9 19.2-16.4c0 0 11.6 8.2 12.5 14.4.8 6.3 5.5 17.1-1.2 26.3l-6.6 9.2-1.7 21.3 13.6 1.7s6.3-26.5 1.6-48c-.9-4.3-1.4-8.6-1.8-12.9-.5-6.6-2-12.9-8.5-16.1 0 0-18.9-10.8-34.3 0 0 0-13.3 11.9-17.6 42.2 0 0-.3 19.5-11.5 14.6 0 0-4 5.3 0 11.6 0 0 2.3 5.7-1.8 8.1s-1.5 7.2 2.1 9.2c3.6 1.9 5.5 17.5 25.1 13 0 0 7.7 4.6 5.5-8.1l5.4-70.1z" style="fill:#1c1c1c"/><path class="st7" d="m103.1 312.1-4.9 25.1 30.6 4.8-.3-26.2z"/><path d="M92.4 340.5s-18.3.7-29 15.7-22 31.7-22 31.7-9.9 13 4 21.9l33.4-5.9s2.9 16.4-5.6 24.2c0 0-2 6.9 4 11.1l65.5-2.2s4.9-11.6-1.4-20.4l-1-5.3s6.1-2.4 13.9-10.5c7.8-8.1 17.2-19.5 17.2-19.5l-10.9-10.8-12.6 9.6.7-15.8s-3.8-15.4-11.4-16.2c-7.6-.9-44.8-7.6-44.8-7.6z" style="fill:#feac02"/><path class="st7" d="M162.5 372.5s4-5.4 5.6-8.3c1.5-2.9 2.8-11 5.9-12.9 3.1-1.9 12.8-.4 15.6 3.2 2.7 3.6 1.8 7.4-4.2 13-6 5.7-15.3 11-15.3 11l-7.6-6z"/><path class="st25" d="M78.2 437s-12.4 6.5-11.3 29.2c1.1 22.7 37.8 30.5 37.8 30.5l-15.1 65.7 31.4 15.1 25-78.8v80.6l32.3 1.4 4.8-97.7s3.1-12.5-6.2-20.2-32.5-17.9-32.5-17.9 5-4.9-1.6-8.1c-6.7-3.1-64.6.2-64.6.2z"/><path class="st10" d="M166.8 356.1s-6.7 18.2-24.1 14.4c0 0-7.5.7-16.3-11.3 0 0-4.8-6.1-20.8-1.5-16 4.7-27.1-9.9-20.5-23.7s12.1-17 24-18.1c11.9-1.1 18.8 13.4 24 14.8s21.2-2.5 29.4 6.5 6.3 12.5 6.3 12.5l25.8 8.1s6.6-4.5 11.9 3.3c0 0 12.3-1.4 9.9 4.8-2.4 6.3-4.6 9.4-4.6 9.4s-4.5 4.4-10.4-4.2c0 0-6.3 2.6-11.5-6.8l-23.1-8.2z"/><path class="st11" d="m109.6 331.8-2.3 5 64.1 19.8 1.5-3.7z"/><path class="st21" d="M91.4 415.5c-.3 0-.6-.1-.9-.3-.7-.5-1-1.5-.5-2.2l83.6-126.1c.5-.7 1.5-1 2.2-.5.7.5 1 1.5.5 2.2L92.7 414.8c-.3.4-.8.7-1.3.7z"/><path class="st7" d="m79.5 382.8 1.7 13.3s8-5.2 12.6 1.6 5.5 9.9 9.4 7.8 6.5-7.8 6.5-7.8V393c0-3.3-1.5-6.4-4-8.5l-3.2-2.6c-2.6-2.1-6.1-3-9.4-2.2l-13.6 3.1z"/></g><g style="opacity:.69"><g class="st29"><path class="st30" d="M227 204.4c-.2 0-.3 0-.5-.1-.5-.3-.7-.9-.4-1.5l13.7-25.5 1 1.2c.1.1 8 9 18.9 11.9.6.2.9.7.8 1.3-.2.6-.8.9-1.3.8-9.3-2.5-16.4-8.9-18.9-11.5L228 203.9c-.3.3-.7.5-1 .5z"/><path class="st30" d="M256.2 199h-.3c-11.5-3.1-19.7-12.2-20-12.6-.4-.4-.4-1.1.1-1.5.4-.4 1.1-.4 1.5.1.1.1 8 9 18.9 11.9.6.2.9.7.8 1.3-.1.5-.6.8-1 .8z"/><path class="st30" d="M245.3 218.7c-.2 0-.3 0-.5-.1-.5-.3-.7-.9-.5-1.5l13.6-26c.3-.5.9-.7 1.5-.5.5.3.7.9.5 1.5l-13.6 26c-.2.4-.6.6-1 .6z"/><ellipse class="st30" cx="222.1" cy="200.9" rx="7" ry="6.2"/><ellipse class="st30" cx="240.5" cy="215" rx="7" ry="6.2"/></g><g class="st29"><path class="st30" d="M438.1 273.2c-.1.1-.3.2-.4.2-.5.1-1.1-.2-1.2-.7l-6.4-25.6 1.4.2c.1 0 10.9 1.1 20.1-3.5.5-.2 1.1-.1 1.3.4.2.5.1 1.1-.4 1.3-7.8 4-16.4 4-19.8 3.8l5.7 22.9c.1.4-.1.7-.3 1z"/><path class="st30" d="M454.5 251.7c-.1.1-.1.1-.2.1-9.7 4.9-20.7 3.8-21.2 3.7-.5-.1-.9-.5-.9-1.1.1-.5.5-.9 1.1-.9.1 0 10.9 1.1 20.1-3.5.5-.2 1.1-.1 1.3.4.2.5.1 1-.2 1.3z"/><path class="st30" d="M459.2 271.5c-.1.1-.3.2-.4.2-.5.1-1.1-.2-1.2-.7l-6.7-25.8c-.1-.5.2-1.1.7-1.2.5-.1 1.1.2 1.2.7l6.7 25.8c.1.4 0 .8-.3 1z"/><ellipse transform="rotate(-42.228 432.63 273.767)" class="st30" cx="432.7" cy="273.8" rx="6.4" ry="5.7"/><ellipse transform="rotate(-42.228 453.603 271.998)" class="st30" cx="453.6" cy="272" rx="6.4" ry="5.7"/></g><g class="st29"><path class="st30" d="M224.6 328.8c-.1.1-.2.2-.4.2-.4.1-.9-.2-1-.6l-5.3-21.4 1.2.1c.1 0 9.1 1 16.7-3 .4-.2.9 0 1.1.4.2.4 0 .9-.4 1.1-6.5 3.3-13.7 3.3-16.5 3.2l4.8 19.1c.1.4 0 .7-.2.9z"/><path class="st30" d="M238.3 310.9c-.1 0-.1.1-.2.1-8.1 4.1-17.3 3.2-17.7 3.1-.5-.1-.8-.5-.7-.9 0-.5.5-.8.9-.7.1 0 9.1 1 16.7-3 .4-.2.9 0 1.1.4.2.3.1.7-.1 1z"/><path class="st30" d="M242.2 327.5c-.1.1-.2.2-.3.2-.4.1-.9-.1-1-.6l-5.6-21.6c-.1-.4.1-.9.6-1 .4-.1.9.1 1 .6l5.6 21.6c0 .3-.1.6-.3.8z"/><ellipse transform="rotate(-42.228 220.05 329.32)" class="st30" cx="220.1" cy="329.3" rx="5.3" ry="4.7"/><ellipse transform="rotate(-42.228 237.563 327.843)" class="st30" cx="237.6" cy="327.9" rx="5.3" ry="4.7"/></g><g class="st29"><path class="st30" d="M273.9 278.6c-.1 0-.1 0-.2-.1-.2-.2-.2-.4-.1-.7l7.5-10 .4.6s2.9 4.4 7.3 6.3c.2.1.3.4.2.6-.1.2-.4.3-.6.2-3.8-1.7-6.4-4.9-7.3-6.1l-6.7 9c-.1.2-.3.3-.5.2z"/><path class="st30" d="M286.7 278.2h-.1c-4.7-2.1-7.6-6.5-7.7-6.7-.1-.2-.1-.5.1-.6.2-.1.5-.1.6.1 0 0 2.9 4.4 7.3 6.3.2.1.3.4.2.6.1.3-.2.4-.4.3z"/><path class="st30" d="M280.8 285.9c-.1 0-.1 0-.2-.1-.2-.2-.3-.4-.1-.7L288 275c.2-.2.4-.3.7-.1.2.2.3.4.1.7l-7.5 10.2c-.1.1-.3.2-.5.1z"/><ellipse transform="rotate(-81.338 272.07 276.822)" class="st30" cx="272.1" cy="276.8" rx="2.7" ry="3"/><ellipse transform="rotate(-81.338 279.005 284.021)" class="st30" cx="279" cy="284" rx="2.7" ry="3"/></g><g class="st29"><path class="st30" d="M37.6 246.4H37c-.6-.2-1-.8-.8-1.5l8.8-31.8c.2-.6.8-1 1.5-.8.6.2 1 .8.8 1.5l-8.8 31.8c-.1.4-.5.7-.9.8z"/><ellipse transform="rotate(-12.177 31.351 243.384)" class="st30" cx="31.3" cy="243.4" rx="7.9" ry="7"/><path class="st30" d="M50.7 223.7c-2.3 0-4.7-.3-6.5-1.1-.5-.2-.8-.9-.5-1.4.2-.5.9-.8 1.4-.5 4.5 2 13.9 0 14-.1.6-.1 1.2.2 1.3.8.1.6-.2 1.2-.8 1.3-.3.1-4.5 1-8.9 1zM54 216.3c-2.4 0-5-.3-7.1-1.2-.6-.2-.8-.9-.6-1.4.2-.6.9-.8 1.4-.6 5.4 2.2 14 .1 14.1.1.6-.1 1.2.2 1.3.8.1.6-.2 1.2-.8 1.3-.3.1-4 1-8.3 1z"/></g><g class="st29"><path class="st30" d="M597 246.6h-.3c-.4-.1-.6-.5-.5-.9l5.1-18.6c.1-.4.5-.6.9-.5.4.1.6.5.5.9l-5.1 18.6c-.1.2-.3.4-.6.5z"/><ellipse transform="rotate(-12.177 593.276 244.798)" class="st30" cx="593.4" cy="244.9" rx="4.6" ry="4.1"/><path class="st30" d="M604.7 233.4c-1.4 0-2.7-.2-3.8-.6-.3-.1-.5-.5-.3-.8.1-.3.5-.5.8-.3 2.6 1.2 8.1 0 8.2 0 .3-.1.7.1.8.5.1.3-.1.7-.5.8-.2-.2-2.7.4-5.2.4zM606.6 229c-1.4 0-2.9-.2-4.2-.7-.3-.1-.5-.5-.4-.8.1-.3.5-.5.8-.4 3.1 1.3 8.2.1 8.2.1.3-.1.7.1.8.5.1.3-.1.7-.5.8 0 0-2.2.5-4.7.5z"/></g><g class="st29"><path class="st30" d="M192.8 278.3c0 .1-.1.2-.1.2-.2.2-.5.2-.7.1l-10.8-9.1c-.2-.2-.2-.5-.1-.7.2-.2.5-.2.7-.1l10.8 9.1c.2.1.2.3.2.5z"/><ellipse transform="rotate(-77.502 190.53 280.168)" class="st30" cx="190.5" cy="280.2" rx="3.4" ry="3"/><path class="st30" d="M186.3 269.1c-.4.9-.9 1.8-1.6 2.3-.2.2-.5.1-.7 0-.2-.2-.1-.5 0-.7 1.6-1.4 2.5-5.4 2.5-5.4.1-.2.3-.4.5-.4.2.1.4.3.4.5.1.2-.3 2-1.1 3.7zM184.1 266.5c-.4.9-1 1.9-1.7 2.6-.2.2-.5.2-.7 0-.2-.2-.2-.5 0-.7 1.8-1.7 2.5-5.4 2.6-5.4 0-.3.3-.4.5-.4.3 0 .4.3.4.5-.1.2-.4 1.8-1.1 3.4z"/></g></g><g style="opacity:.33"><path class="st5" d="M173.9 85.8H735v12.1H173.9z"/><path class="st32" d="m277.2 116-17.7-14.8 19.3-25.4 17.7 14.8z"/><ellipse transform="rotate(-49.156 267.057 110.092)" class="st12" cx="267" cy="110.1" rx="5.6" ry="11.8"/><path class="st32" d="m403.5 104.3-22.1 5-6.5-31.7 22.1-5z"/><ellipse transform="rotate(-13.17 392.731 108.85)" class="st12" cx="392.7" cy="108.9" rx="11.6" ry="5.7"/><path class="st32" d="m521.1 111.6-21.9-5.5 7.2-31.6 21.9 5.5z"/><ellipse transform="rotate(-75.369 509.544 110.82)" class="st12" cx="509.6" cy="110.8" rx="5.7" ry="11.6"/><path class="st32" d="m647.5 102.4-21.3 8-10.3-30.7 21.2-7.9z"/><ellipse transform="rotate(-21.109 637.426 108.392)" class="st12" cx="637.4" cy="108.4" rx="11.6" ry="5.7"/><path class="st5" d="M238 57.1h9.6v31.3H238zM416.6 58.1h8.6v31.3h-8.6zM592.8 56.5h8.6v31.3h-8.6z"/></g><g><path class="st3" d="m723.4 577.6 3.1 16-16 7.8s-6.5 3.2-4.3 6.5l42.2-1.1-2.6-29.2h-22.4z"/><ellipse transform="rotate(-84.807 819.255 291.601)" class="st7" cx="819.3" cy="291.6" rx="27" ry="20.1"/><path class="st3" d="M799.2 300.3s-4.3-3.9-3.2-10.4c0 0-5.4-6.5-1.1-11.9 4.3-5.4 4.3-9.1 4.3-9.1s1.1-7.1 7.6-8.2c0 0 2.2-6.5 9.7-4.3l12.3-.4s4-1.3 9.9 7.7l5.9 5.7s7.5 3.4 2.7 8.7c0 0 4.8 3.8 1.6 10 0 0-2.1 5.1 3.3 7.2 0 0 3.2 8.7-7.6 11.9l-8.1 1.4 2.6-13.2s-6.9 4.3-7.7-3.3c-.9-7.6 1.2-19.1 1.2-19.1s-3.3-6.3-9.7-4.4c-6.4 1.9-7.5 6.8-14.5 1.1 0-.1-12.5 11.8-9.2 30.6z"/><path class="st7" d="M812.1 314.8V332l26.9-8.6-1.3-31.3z"/><path class="st3" d="m792.5 433.6-69 29.4s-17.3 0-16.2 27c1.1 27 9.7 89.8 9.7 89.8h34.7l-3.4-44s-16.2-53.3-1.1-62c15.1-8.7 67.1-35.7 67.1-35.7l-21.8-4.5zM779.4 579.8l5.6 10.8s-11.9 9.7-13 14.1a6.03 6.03 0 0 0 2.2 6.5l35.7-18.4-11.9-21.6-18.6 8.6z"/><path class="st7" d="m750.5 364.5-8.7-13.6-4.4-7.1-7.5 2.3-6.5 3.2-5.5 4.8s5.5 8.2 10.9 10.4c5.4 2.2 13 9.7 13 9.7l10.7-8.1-2-1.6z"/><path class="st21" d="M700.7 369.4c-1 0-2-.6-2.4-1.5-.7-1.3-.1-3 1.2-3.6l122.2-59.8c1.3-.7 3-.1 3.6 1.2.7 1.3.1 3-1.2 3.6l-122.2 59.8c-.4.2-.8.3-1.2.3z"/><path class="st7" d="m754.1 357.7-2.5-15.9-5.4-1.1s.3-5 4-3.1c0 0-1.1-4 4-2.6 0 0 2.8-5.2 5.6-3 0 0 1.4-4.3 5.8-.5 0 0 2.9 8.2 1.5 15.7l-13 10.5z"/><path class="st3" d="M854.3 435.9s5.7 6.6 3.7 24.7c-.8 6.5-4.4 12.3-10 15.7-4.8 2.9-12 6.3-22.4 9.2-24.2 6.7-52.4 16.4-52.4 16.4l32.4 68.1-30.3 14.1-45.4-81.1s-11.9-22.7 8.7-33.5 58.7-33.5 58.7-33.5h57z"/><ellipse transform="rotate(-70.781 841.266 297.322)" class="st7" cx="841.3" cy="297.3" rx="6.5" ry="4.1"/><path class="st9" d="m839.7 318.6-20.8 8.2-6.8-2-4.3 5.1s-14.1 1.1-16.2 16.2c-2.2 15.1-2.2 18.4-2.2 18.4l-22.7-18.4-15.1 15.1 3.1 3.2-12.8 9.7 37.9 34.6s8.9 4.3 12 0c0 0-4.4 22.7-1.2 27 3.2 4.3 29.2 6.5 66 3.2v-24.4l7.6-57.8s3.2-22.7-14.1-29.2l-7.6-1.1-2.8-7.8z"/><path d="M842.3 332s27 2.2 10.3 31.4l-33.7 32.7s-13.3 15.9-28.4 7.3c-15.1-8.7-38.9-42.2-38.9-42.2l15.1-15.1 34.6 29.2s17.1-37.9 41-43.3z" style="fill:#e54551"/></g></svg>