<svg version="1.1" id="Layer_1" xmlns="http://www.w3.org/2000/svg" x="0" y="0" viewBox="0 0 1000 564.1" style="enable-background:new 0 0 1000 564.1" xml:space="preserve"><style>.st2{fill:#8ab77c}.st3{fill:#feac02}.st4{fill:#58595b}.st5{fill:#333}.st6{fill:#c96a23}.st7{fill:#3a3a3a}.st8{fill:#eaa271}.st9{fill:#3b6393}.st12{fill:#e29205}.st13{fill:#ff4d53}.st14{fill:#f9c7a5}.st15{fill:#8157d3}.st19{fill:#f9bf98}.st21{fill:#eaf3fa}.st22{fill:#fdb07c}.st23{fill:#4570ad}.st27{opacity:.49;fill:#333}.st28{opacity:.58;fill:#fff}</style><path d="M77.4 540.6S-49.1 343.5 88.8 247.1c88.3-61.8 169.7-46.2 204.8-34.5 26.6 8.8 54.8 11.3 82.3 6.2 36.3-6.7 81.2-25.5 115.4-74.3C559.8 46.9 675.9-36.1 806 42.6c125.2 75.7 141.1 125.5 117 311.8 0 0-10.1 45.6 32.6 81.9 38.3 32.5 25.5 94.7-5.7 110.5l-872.5-6.2z" style="fill:#cfb5f6"/><path d="M91.9 541s-122.6-186.2 11-277.3c85.7-58.4 164.6-43.6 198.6-32.6 25.8 8.3 53.2 10.6 79.8 5.9 35.2-6.3 78.7-24.1 111.9-70.2 66.4-92.2 179-170.6 305.2-96.3C919.9 142 935.2 189 911.9 365c0 0-9.8 43.1 31.6 77.4 37.1 30.7 24.8 89.5-5.5 104.4L91.9 541z" style="fill:#e2d5f8"/><path class="st2" d="M124.6 543.4s40.9-.6 31.2-6.4c-9.8-5.7-31.2 6.4-31.2 6.4z"/><path class="st2" d="M145.5 539.1s5.2-37.1-7.9-31.9c-13.1 5.2-.7 4 3.3 19.8s4.6 12.1 4.6 12.1zM141 539.5s-4.4-19.5-12.3-19.1c-7.9.4-6.4 6.9 12.3 19.1zM915.1 546.6s-53.7-.8-40.8-8.3c12.8-7.7 40.8 8.3 40.8 8.3z"/><path class="st2" d="M887.8 541s-6.9-48.6 10.3-41.9c17.2 6.8.9 5.2-4.4 26-5.2 20.7-5.9 15.9-5.9 15.9zM893.7 541.5s5.8-25.6 16.1-25.1 8.4 9-16.1 25.1z"/><path class="st3" d="M531.7 203s16.2-3.7 21.4-11.9c0 0 3.2 0 4.7 6 0 0-2 10.5-19 11.9h-3.5l-3.6-6z"/><path class="st3" d="m553.7 200 2.8 4.6c2.1 3.5 4.3 6.9 6.9 10.1 1.1 1.4 1.8 3.4-1.8 4.8-6 2.3-3.8 7.8 0 8.7 6.4 1.5 11.4-1.8 8.2-11.9l-12-19.3-4.1 3zM534.6 207.8l2.4 4.9c1.8 3.7 3.7 7.3 6 10.6 1 1.5 1.5 3.5-2.2 4.6-6.2 1.8-4.5 7.4-.7 8.7 6.3 2.1 11.5-.9 9.2-11.2L539 205.2l-4.4 2.6zM626.8 123.3h.2l-.4-7.1c4 4.2 13 4.8 13 4.8l-3-1c-9.1-3.8-13.5-11.9-13.5-11.9l-.7.7v.1l-.2.2 1.4 14.4h.1l.8 9.2c.3 4.4.8 8.9 1.7 13.3.4 1.9-1.9 4.2-6.1 3.8-7-.7-7.6 5.7-4.3 8.5 5.5 4.7 15.1.7 15.1-7.4l-3.4-25-.7-2.6z"/><path class="st4" d="m685.1 205.9.2.1 1.8-6.8c2.5 5.3 10.9 8.6 10.9 8.6l-2.6-1.9c-7.5-6.4-9.2-15.5-9.2-15.5l-.8.5v.1l-.3.2-3 14.1h.1l-2 9c-1 4.3-1.9 8.7-2.4 13.2-.2 2-3.1 3.4-7 1.7-6.5-2.8-9 3.2-6.7 6.8 3.8 6.1 14.1 5.2 16.6-2.4l4.4-24.8v-2.9zM861.7 208.9h.2l-1-7c4.4 3.9 13.4 3.6 13.4 3.6l-3.1-.8c-9.4-3-14.5-10.7-14.5-10.7l-.6.8v.1l-.2.3 2.7 14.2h.1l1.6 9c.7 4.4 1.6 8.8 2.9 13 .6 1.9-1.5 4.4-5.7 4.3-7.1-.1-7 6.4-3.5 8.9 5.9 4.2 15.1-.7 14.3-8.7l-5.7-24.6-.9-2.4z"/><path class="st3" d="m784.2 165.4.3.1 2.3-10.7c4.3 8 17.5 12.6 17.5 12.6l-4.1-2.8c-12-9.4-15.3-23.4-15.3-23.4l-1.3.8v-.1.1l-.4.3-3.8 22.1h.1l-2.6 14c-1.3 6.8-2.4 13.6-2.8 20.5-.2 3.1-4.6 5.5-10.7 3.1-10.2-4-13.7 5.5-9.9 11 6.3 9.2 22.3 7.1 25.6-4.9l5.1-38.8v-3.9z"/><path class="st5" d="M951.7 548.7H79c-2 0-3.6-1.6-3.6-3.6s1.6-3.6 3.6-3.6h872.7c2 0 3.6 1.6 3.6 3.6s-1.6 3.6-3.6 3.6z"/><g><path class="st6" d="M713.7 484s0 24.8 5.2 38 8.3 21.3 8.3 21.3h3.7s-10.7-45.3-7.9-59.2l-9.3-.1zM696.7 484s0 24.8 5.2 38 8.3 21.3 8.3 21.3h3.7s-10.7-45.3-7.9-59.2l-9.3-.1zM649.3 484s0 24.8-5.2 38-8.3 21.3-8.3 21.3h-3.7s10.7-45.3 7.9-59.2l9.3-.1zM666.4 484s0 24.8-5.2 38-8.3 21.3-8.3 21.3h-3.7s10.7-45.3 7.9-59.2l9.3-.1z"/><path class="st6" d="m722.9 485.8-83.5-1.1s.3-5 7-5.3c6.7-.3 66 0 66 0s15.7.6 10.5 6.4z"/><path class="st7" d="M655.7 516.5s11.8 6.2 10.6 12.4l-18 15.1s-11 3.4-11-1.5 8.3-13.6 8.3-13.6l1.2-5.4 8.9-7zM672.3 520.2s2.8 5.2 0 8.7c-2.8 3.5-10.7 8.7-7.3 13.9 3.4 5.2 10.7 0 10.7 0l19.6-15.6s-5-12.5-14.1-10.7l-8.9 3.7z"/><path class="st8" d="M657.8 377.1s-24 29.4-30.1 31.8c-6.1 2.4-18 4-18 4s-20.5-1.6-13.5 6.1c7 7.7 16.2 2.5 16.2 2.5s22.9-.9 29.7-7c6.7-6.2 13.8-11.6 13.8-11.6l1.9-25.8z"/><ellipse transform="rotate(-73.123 683.001 331.046)" class="st8" cx="682.9" cy="331" rx="24.6" ry="18.1"/><path class="st8" d="M674.3 351.9s.9 4.4 0 10.7c-.9 6.3 2.3 11.4 18.8 5.9l5.5-5.9s-1.6-4.9-3.8-15.8l-20.5 5.1z"/><path class="st9" d="M625.3 468.8s-1.3 17.1 7.6 31.8 15 24.5 15 24.5l10.8-6.1s-9-33.1-9-36.6l-24.4-13.6zM655.8 486.9s10.4 26.9 18.4 36.7l10.9-5.8-5.1-26.3-24.2-4.6z"/><path d="M667.8 320.4s13.2-13 17.3-9.3c4.1 3.7-5.6 15.3 11.6 22.9l-1.9 12.9s7-1.6 9.5-11c2.5-9.5.9-14.1.9-14.1s1.6-2.2-.9 14.1c-2.5 15.9 8.2 20.3 16.6 24.5 0 0-5.2-14.7 1.4-23.2 6.6-8.6 3.8-16.2-1.7-20.2s-15.4-6.5-15.4-6.5-11.1-10-20.2-7.6-16.3 5.8-17.2 17.5z" style="fill:#3a3b3f"/><path d="M705.3 310.4s3.6 4.9 0 11.3" style="fill:none;stroke:#ffbb42;stroke-width:3;stroke-linecap:round;stroke-miterlimit:10"/><ellipse transform="rotate(-73.123 696.76 336.498)" class="st8" cx="696.7" cy="336.5" rx="5.2" ry="3.9"/><path class="st3" d="M676 358.9s-14.4 1.7-18.3 10.6c-4 8.9-3.5 17.4-3.5 17.4l-7.8 55.5s-31.8 9-24.2 26.4c7.6 17.4 47.7 26 47.7 26s47.1 2.7 52.3-15.6c5.2-18.3-4.9-108.3-4.9-108.3s-4.9-10.9-21.4-9.7c0 0-.8 4.3-10.7 5.8-9.9 1.5-9.2-8.1-9.2-8.1z"/><path class="st8" d="M693.4 389.6s-3.4 22.1-8.3 29.8c-4.9 7.8-15.3 28-15.3 28s-15.3.6-10.1 8.6c5.2 7.9 16.5 2 19-1.3 2.4-3.3 4.2-7.9 4.2-7.9s19-22.9 23-35.5c4-12.5 5.5-17.5 5.5-17.5l-18-4.2z"/><path class="st12" d="m691 391.1 21.4 5.9 5.3-22.3s-2.2-15.8-19.1-7.9l-7.6 24.3z"/></g><g><path class="st6" d="M830.5 483.3s0 24.8 5.2 38 8.3 21.3 8.3 21.3h3.7s-10.7-45.3-7.9-59.2l-9.3-.1zM813.4 483.3s0 24.8 5.2 38 8.3 21.3 8.3 21.3h3.7s-10.7-45.3-7.9-59.2l-9.3-.1zM766.1 483.3s0 24.8-5.2 38-8.3 21.3-8.3 21.3h-3.7s10.7-45.3 7.9-59.2l9.3-.1zM783.1 483.3s0 24.8-5.2 38-8.3 21.3-8.3 21.3H766s10.7-45.3 7.9-59.2l9.2-.1z"/><path class="st6" d="m839.6 485.2-83.5-1.1s.3-5 7-5.3c6.7-.3 66 0 66 0s15.7.6 10.5 6.4z"/><path class="st13" d="M775.4 518.3s5.5 5.6 7.6 12.2l-18 13.1s-11 2.9-11-1.3 8.3-11.7 8.3-11.7l2.3-6 10.8-6.3zM790.9 522.9s.9 4.1-1.8 7.2c-2.8 3.1-10.7 7.7-7.3 12.3 3.4 4.6 10.7 0 10.7 0l19-15.2s-3.9-7.5-9.6-10.1l-11 5.8z"/><ellipse transform="rotate(-73.123 796.652 331.043)" class="st14" cx="796.6" cy="331" rx="24.6" ry="18.1"/><path class="st14" d="M791 349.6s.8 4.8 0 11.7c-.8 6.9 2.1 12.4 17 6.4l5-6.4s-1.5-5.4-3.4-17.2l-18.6 5.5z"/><path class="st15" d="M742 468.2s-1.3 17.1 7.6 31.8 15 24.5 15 24.5l10.8-6.1s-9-33.1-9-36.6L742 468.2zM772.5 486.2s10.4 26.9 18.4 36.7l10.9-5.8-5.1-26.3-24.2-4.6z"/><path class="st13" d="M790.9 358.2s-9.6 3.8-16.5 10.6c-14 13.8-5.1 20.8-5.1 20.8l-6.2 52.1s-29.3 8.1-24.2 26.4c5 18 44.2 23.6 44.2 23.6s50.6 5.1 55.8-13.2c5.2-18.3-4.9-108.3-4.9-108.3s-4.9-10.9-21.4-9.7c0 0-.8 4.3-10.7 5.8-9.9 1.5-11-8.1-11-8.1z"/><path d="m805.9 392.7 24.5 4.3 3.9-23s-4.1-14.5-21-6.7l-7.4 25.4z" style="fill:#e04b5d"/><path class="st14" d="M766 383.2s-7.5 25.1-7.3 31.2c.2 6.1 9.9 30 9.9 30l3.9 5.5s-.7 7.6 2.9 9.4c3.6 1.9 11.3 7.8 11.7-3.3 0 0-1.4-7.6-9.1-10.4l-5.6-22.7-5.4-15.2 2.1-18-3.1-6.5z"/><path d="M778.1 331s10.7-16.6 16.2-18.1 6.4-1.5 7 5.2c.6 6.7 1.2 13.9 10.1 18.4l-1.3 10.4 2.5 13.7s17.3-2.8 21.8 13.4l4.6 44.1s2-12.3 2.9-19.5c.9-7-2.8-73.6-2.8-73.6s-1.8-28.2-23.2-29.2c-24.1-1.1-31.8 14.6-31.8 14.6s-8.1 9.3-8.8 26.1c-.7 16.8-1.1 32.3-1.1 32.3s7.2-5.9 16.5-10.6v-3.3c.2 0-16.7-6-12.6-23.9z" style="fill:#1e1e1e"/><ellipse transform="rotate(-65.878 813.02 341.192)" class="st14" cx="813.1" cy="341.2" rx="6.2" ry="4.6"/><path class="st14" d="M808.2 393.1s-1.4 17.9-6.3 25.7-15.3 28-15.3 28-15.3.6-10.1 8.6 16.5 2 19-1.3c2.4-3.3 4.2-7.9 4.2-7.9s16.5-24 23-35.5c6.1-10.8 6.1-14 6.1-14l-20.6-3.6z"/><path d="M818.3 323.3c0-.1-.1-.2-.2-.3 2.2-.8 6-2.7 3.7-5.1-2.2-2.4-4 2.2-4.8 4.4h-.6c.4-2.2 1-7-2.4-6.2-3.3.8.2 5 1.6 6.6l-.1.1c-1.8-1.5-5.8-4.4-6.4-1.2-.6 3.3 3.7 2.7 6 2.2v.1c-2.2.7-6.2 2.4-4 5 2 2.3 3.8-1.4 4.8-3.7.1 0 .1.1.2.1-.5 2.4-.9 6.8 2.1 5.9 3-.9 1-4.1-.5-6 .2-.1.4-.3.6-.5 1.9 1.6 5.2 3.9 5.9 1 .6-3-3.5-2.8-5.9-2.4z" style="fill:#ffbb42"/></g><g><path class="st6" d="M574.8 481.6s0 24.8 5.2 38 8.3 21.3 8.3 21.3h3.7s-10.7-45.3-7.9-59.2l-9.3-.1zM557.7 481.6s0 24.8 5.2 38 8.3 21.3 8.3 21.3h3.7s-10.7-45.3-7.9-59.2l-9.3-.1zM510.4 481.6s0 24.8-5.2 38-8.3 21.3-8.3 21.3h-3.7s10.7-45.3 7.9-59.2l9.3-.1zM527.4 481.6s0 24.8-5.2 38S514 541 514 541h-3.7s10.7-45.3 7.9-59.2l9.2-.2z"/><path class="st6" d="m584 483.5-83.5-1.1s.3-5 7-5.3c6.7-.3 66 0 66 0s15.7.6 10.5 6.4z"/><g><path class="st7" d="M488.1 516.7s-.3 10.1-8.6 17.4.9 13.3 4.3 12.4c3.4-.9 28.6-22.2 28.6-22.2s-6-10.4-9.6-13.1l-14.7 5.5z"/><ellipse transform="rotate(-73.123 522.924 325.792)" class="st19" cx="522.9" cy="325.8" rx="24.6" ry="18.1"/><path d="M507.9 314.7s-13.9-2.6-3.8-16.4 35.3-9.2 35.3-9.2 23 4.7 17.5 25.5-17.5 27.6-17.5 27.6l.8-11.3s.4-6.2-.8-8.4l-1.2-2.1s-5.8 1-7-8.6c0 0-4.1-5.3-10.5 0-6.5 5.4-12.8 2.9-12.8 2.9z" style="fill:#442e24"/><path class="st19" d="M519.8 345.1v13.8s12.3 10.5 19.7-3.7l.8-24.2-20.5 14.1z"/><path class="st12" d="M500.5 438.1c-3.4 2.5-18.5 7.5-25.8 9.9-4.7 1.5-8.9 4.6-11.4 8.9-2.9 5-4.3 12.5 1.9 22.2l22.9 40.4s9.6 3.7 18.3-4.6l-11-49.5 30.3-14.2-25.2-13.1z"/><path class="st7" d="m515.2 517.6-15.2 22s-.4 11.7 10.1 5.1c10.5-6.5 29.3-18.4 29.3-18.4s-7-14.2-11.3-15.1l-12.9 6.4z"/><path class="st19" d="m490.4 362.7-20.6 7.2s-19.3-26.8-22.9-33.1c0 0 3.7-15.9-6-15-9.6.9-7.6 13-3.1 17.5l14.1 34.3s2.3 11.9 21.1 11.2 27-3.4 27-3.4l-9.6-18.7z"/><path class="st3" d="M448.5 320.1s9.7-3.1 13.2-11.6c1.8-4.3.9-9.4-2.7-12.4-1.9-1.6-4.6-2.7-8.3-1.7-3.9 1.1-7 4.1-8.4 7.9-1.5 4.1-2.8 10.2-.3 14.9l6.5 2.9z"/><path class="st21" d="m441.8 303.3.5-1.1 19 8.6-.5 1.1zM442.5 301l.5-1 18.6 8.4-.5 1z"/><path class="st7" d="M431.7 351.9c-.2 0-.4 0-.6-.1-.8-.3-1.1-1.2-.8-2l13.3-32c.3-.8 1.2-1.1 2-.8.8.3 1.1 1.2.8 2l-13.3 32c-.3.6-.8.9-1.4.9z"/><path class="st3" d="M566.1 442.4s6.4 32.1-11 36.7c-17.4 4.6-29.4 3.7-29.4 3.7l4.4 33.5s-8.3 10.6-16.4 4.1c-2.3-1.8-31.6-47.2-31.6-47.2s-13.5-17.4 20.2-28l5-2.8c.1 0 32.2 15.6 58.8 0z"/><ellipse transform="rotate(-73.123 539.458 325.792)" class="st19" cx="539.4" cy="325.8" rx="5.9" ry="4.4"/><path class="st15" d="M522.9 355.2s5.9 12.4 16.5-3.2c0 0 18.4-.8 27.6 7.9 9.2 8.6 17 19.6 17 19.6l-14.2 18.3V445s-26.6 21.6-67.4 0l-6.4-3.7 2.3-56.6s-8.7-10.6-10.1-22.1c-.1.1 19.4-9.5 34.7-7.4z"/><path class="st7" d="M536 436.1c-.8 0-1.4-.6-1.5-1.3l-3.4-31.2c-.1-.8.5-1.6 1.3-1.7.8-.1 1.6.5 1.7 1.3l3.4 31.2c.1.8-.5 1.6-1.3 1.7h-.2z"/><path class="st3" d="M536 404.4s6.1-8.2 4.1-17.1c-1-4.6-4.7-8.2-9.4-8.6-2.5-.2-5.4.5-7.8 3.4-2.6 3.1-3.3 7.4-2.2 11.3 1.2 4.2 3.6 9.9 8.4 12.4l6.9-1.4z"/><path class="st19" d="m581.7 382.4 10.5 20.9s8.3 15.2-3.7 15.2h-43.1s-12 3.7-16.3-3.7c-4.3-7.3 6.9-8.7 6.9-8.7l10.3 3.7 27.1-1.8-5.5-15.6 13.8-10z"/><g><path transform="rotate(-9.224 530.548 391.643)" class="st21" d="M520.6 391.2h20v1h-20z"/></g><g><path transform="rotate(-9.224 530.012 388.938)" class="st21" d="M520.1 388.5h20v1h-20z"/></g></g></g><g><path class="st22" d="M397.6 478.7s5.2 9 5.2 15.9c0 0 21.1 8.3 31.6-3.2 0 0-20.6-10.1-27.1-18.3l-9.7 5.6z"/><path class="st23" d="M402.8 494.6s-6.4 10.5 4.6 9.2c11-1.4 35.8-4.5 35.8-4.5s13.1-5.6 0-7.9l-13.1-2.3s.3 7-14 7.4c-14.4.5-13.3-1.9-13.3-1.9z"/><path d="M176.7 263.7h33.9l16.1 115.1 88.1 5.4-1.4 25.6H184.1s-4.1-79.2-9.2-107.5c-3.9-21.6-6-21.6-6.9-28.8-.6-5.2 3.5-9.8 8.7-9.8z" style="fill:#e0a57e"/><path class="st6" d="M201.9 263.7h-24.3s-16.5-2.1-11 16.7 17.2 103.2 14.4 134.4h132.4s6.8-11.4-3-11.9-123.1 3.6-123.1 3.6-6.7-101.8-14.2-117.9c0 0-9.6-22 3.7-22.5s23.6.9 23.6.9l1.5-3.3zM184.1 414.9s0 55.2-2.3 70.5c-2.3 15.3-10.1 57.5-10.1 57.5h4.1s17.8-50.9 19-83.5 1.7-44.5 1.7-44.5h-12.4zM211.6 414.9s1 60.7-3.6 81.7-9.7 46.2-9.7 46.2h4.1s19.3-60.1 20.2-93.1c.9-33 0-34.9 0-34.9h-11z"/><path class="st6" d="M283 414.9s1.1 59.2 5.4 76.6 15.9 50.4 15.9 50.4l6.3.9s-21.8-67.4-19.4-101.8c2.4-34.4 0-26.1 0-26.1H283zM304.3 414.9s14.1 115.1 24.2 127.9h3.7s-20.6-110.1-18.8-127.9h-9.1z"/><path class="st22" d="M299.6 482.7s-4.5 20.2-11.2 21.1-5.3 5-5.3 5 8.3 23.8 25.2 25.2c0 0-6.4-14.7-1.8-25.7 4.6-11 6.9-20.6 6.9-20.6l-13.8-5z"/><path class="st23" d="M283 503.8s-8.1 6.4-4 13.3 9.4 6 9.4 6l15.9 18.8s6.3 6.4 9.1 0l-6.2-10.8s-2.1 2-11.6-6.8l-10.7-20.5H283z"/><path class="st9" d="M314.8 384.8s-18.6 72.9-18.6 98.4c0 0 4.1 7.6 18.6 8.3l27.5-74.3c0-.1-11-29.6-27.5-32.4z"/><path class="st22" d="m342.3 308.8 30.7-19.3s27.6-1.8 24.6-17l-57.9 27.8 2.6 8.5z"/><ellipse transform="rotate(-11.94 267.199 185.826)" class="st22" cx="267.2" cy="185.8" rx="19.7" ry="28.5"/><path class="st22" d="M246.4 193v40.5s23.1 12.5 24.9-4.1 0-23.4 0-23.4l-24.9-13z"/><path class="st5" d="M247.9 188.9s19.5-2.9 24.3-18.7c0 0 16.6 8.7 15.2 18.7-1.4 10 7.4-24.2-9.8-33.2-17.2-8.9-39.2-11-45.4 4.1-6.2 15.1-.7 50.2-16.5 58.5s-26.1 29.6-13.8 45.4c0 0 47-3.3 47-39.2.1-3.4-1-35.6-1-35.6z"/><path d="M284.6 200.1c.3-1.8 6.5 22.3-3.9 25.8l-10.3 3.4 1.7-16.6s10.7-1.3 12.5-12.6z" style="fill:#222223"/><path class="st23" d="M246 221.8s-37.1 2.1-46.1 47.5-3.4 51.6-3.4 51.6 2.7 8.3 12.4 5.5l-8.3 39.2s-5.5 8.9 4.1 14.4c0 0 3.4 33 30.3 33s77-17.2 77-17.2 10.3-7.6 16.5 6.2c6.2 13.8 13.1 33 67.4 77l17.9-3.4S362.2 373.8 354.6 369c-7.6-4.8-12.4-34.4-46.1-18.6l.7-86.7s-5.5-41.3-37.8-34.4c0 .1-12.4 6.2-25.4-7.5z"/><path d="M208 330.3s-3.3 50.7 44.8 51.1c0 0 34.4-.5 43.3-22.9 0 0 11.7-14.7 33.2-18.8 21.6-4.1 25.2-28.3 25.7-44.8 0 0 9.7-7.8 20.7-11.5s16.9-8.4 21.8-9.8l18.4-9.9 3.3 4.4 25.7-15.6v-10.1l-31.2 2.3v6.9l-67.9 27.5s-20.8-24.8-54.7-3.2c0 0-12.3 12.8-38 11-25.5-1.8-46.5 27.9-45.1 43.4z" style="fill:#914714"/><circle class="st27" cx="301.1" cy="311.9" r="17"/><path transform="rotate(-24.871 248.934 337.66)" class="st27" d="M246.4 325h5v25.5h-5z"/><path class="st27" d="m284.5 308.2 129.3-56.7s10.5-7.8 23.8-3.2c0 0 2.6 4.1-21.6 15.4-24.2 11.2-124.8 62-124.8 62l-6.7-17.5z"/><path class="st22" d="m195.5 318.1 18.9-11.5 46.2 11.5s12.7-4.6 19-2.8c0 0 14.1 3.7 11.4 8.3-2.8 4.6-18.6 8.3-23.7 6-5.2-2.3-13.9-2.3-13.9-2.3l-44.5-.9c-.1-.1-9.8 3.6-13.4-8.3z"/><ellipse transform="rotate(-11.94 247.886 189.91)" class="st22" cx="247.9" cy="189.9" rx="4.5" ry="6.5"/></g><circle class="st28" cx="487.5" cy="193.5" r="3.6"/><circle class="st28" cx="704.3" cy="51.2" r="3.6"/><circle class="st28" cx="804.3" cy="208.9" r="3.6"/><circle class="st28" cx="621" cy="185.8" r="7.9"/><circle class="st28" cx="734.1" cy="116" r="5.6"/></svg>