<svg xmlns="http://www.w3.org/2000/svg" xmlns:xlink="http://www.w3.org/1999/xlink" width="578" height="480.539" xmlns:v="https://vecta.io/nano"><path d="M53.411 472.533s-92.47-94.78-34.07-197.494S82.464 136.262 73.57 91.221c-8.792-44.47 82.033-119.476 194.692-80.215C368.923 46.1 504.045 8.5 552.498 117.231a94.43 94.43 0 0 1 5.281 62.511c-4.927 19.139-8.246 53.034 7 101.232 25.026 79.159 6.836 196.51 6.836 196.51z" fill="#f0e2fa"/><path d="M285.132 258.847l-9.362 15.418-22.841 3.6s-17.615-12.963-17.615-17.638c.105-2.152.74-4.244 1.848-6.091a4 4 0 0 1 .156-.288c.617-1.089 1.328-2.121 2.125-3.085l-1.926-15.6 27.797-18.992 1.47 4.867 2.13 7.034 6.854 22.673 6.055 1.482z" fill="#f4b6a7"/><path d="M266.783 221.056c-13.287 24.378-23.075 31.765-29.623 33.08a4 4 0 0 1 .156-.288 21.37 21.37 0 0 1 2.125-3.085l-1.926-15.6 27.8-18.988z" opacity=".15"/><ellipse cx="234.906" cy="210.578" rx="25.896" ry="32.096" fill="#f1b6b0"/><path d="M198.448 183.163s13.761 10.731 23.946 8.8 14.583-7.724 14.583-7.724 8.534-4.129 10.46 11.013l2.479 17.347h5.5v-16.8s2.755 20.093 6.6 25.6 9.08 4.405 9.08 4.405 3.853-22.3-3-38.259c0 0-3.853-16.51-16.516-14.859 0 0-9.632-14.313-31.375-1.926z" fill="#1e3664"/><ellipse cx="10.046" cy="7.706" rx="10.046" ry="7.706" transform="matrix(.374 -.927 .927 .374 249.319 210.307)" fill="#f1b6b0"/><path d="M225.682 374.452v97.457h130.8c-.87 0-22.619-109.568-22.619-109.568z" fill="#132651"/><path d="M239.995 252.791l-43.432 12.111 14.259 94.954 11.829 30.267 118.894-17.338-9.6-80.365-11.835-31.1-44.31-10.557s4.309 19.367-17.524 18.82c-.025 0-18.965 2.983-18.281-16.792z" fill="#ff4f5a"/><path d="M366.313 225.833s-15.73 9.788-7.43 26.772 23.651 4.328 23.651 4.328l5.275-23.117z" fill="#21386c"/><path d="M432.1 305.124s8.438 33.3 6.56 49.386 14.631 35.63 14.631 35.63a87.45 87.45 0 0 0 9.086-34.676c0 0 4.951-37.377-2.479-50.34z" fill="#df9065"/><path d="M410.358 282.521c-5.4 12.1-16.174 8.264-28.663 2.209s-6.4-25.32-6.4-25.32l4.693-6.6v-18.443l10.8-20.369 12.267-6.307h.048l-.384 2.208-.12.714v.108l-3 17.338c-3.295 8.1 3.955 17.29 7.4 21 1 1.092 1.68 1.716 1.68 1.716s5.4 3.133 6.241 6.157.827 13.489-4.562 25.589z" fill="#de9165"/><path d="M403.041 207.691l-.336 2.185-.12.714v.108c-5.533 31.807-16.348 38.817-22.577 40.1v-16.431l10.8-20.369z" opacity=".15"/><ellipse cx="374.973" cy="210.59" rx="22.703" ry="28.141" fill="#df9065"/><g fill="#21386c"><path d="M358.091 191.775s-12.6-11.739 2.821-20.273a35.63 35.63 0 0 0 7.982-5.761c6.079-5.521 12.387 2.737 12.387 2.737s11.091-11.835 24.126 3.853c0 0 20.459-1.38 19.361 20.915 0 0 11.835 13.485 2.749 25.872 0 0 8.534 11.835-.822 22.289 0 0 2.749 12.333-6.331 12.5s-24.318-9.416-21.563-25.854-1.122-26.16-1.122-26.16-11.721 1.83-11.721-10.28c-.002-.018-25.015 3.775-27.867.162z"/><path d="M362.82 187.544a47.03 47.03 0 0 0-8.06 11.193c-3.061 6.247-9.38-16.078.384-22.667s7.676 11.474 7.676 11.474z"/></g><path d="M358.163 188.81s25.026-3.925 36.873 8.768 6.2 13.011 6.2 13.011l5.641-4.7s-6.193-13.845-20.459-20.771c0 .001-22.698-10.207-28.255 3.692z" fill="#fbc956"/><ellipse cx="8.486" cy="6.175" rx="8.486" ry="6.175" transform="matrix(.308353 -.951272 .951272 .308353 393.716 211.396)" fill="#df9065"/><path d="M425.45 366.254s26.742 78.45 26.19 106.543l-126.462-.888 24.733-107.623z" fill="#61b776"/><path d="M407.314 249.059s4.693 4.849 9.65 4.849 17.152 1.284 17.152 1.284 15.412.546 21.1 17.23l7.16 36.254-29.725 3.3s4.555 9.158 1.236 21.923l2.617 43.306-94.954-4.417 14.037-115.4 24.222-4.585s-6.6 26.238 10.088 24.606c.001-.017 18.888-3.882 17.417-28.35z" fill="#7921cd"/><path d="M431.272 412.987l11.026 18.347-20.4 41.463h29.725l18.166-24.312s12.123-11.583 3.871-27.516l-14.313-30.829zm-143.938-1.104l-38.805 41.56-21.473-36.333 31.2-26.97z" fill="#b55a45"/><path d="M305.224 341.978s-13.761-2.2-22.3 7.43-29.725 43.762-29.725 43.762l39.063 31.651 15.13-25.872z" fill="#4170b6"/><path d="M374.577 343.077c-.276 5.233-7.982 14.037-23.406 15.142s-26.01-15.142-26.01-15.142l1.038-5.4 1.026-5.329v-19.542l18.718-28.075 10.454 1.926 4.525 8.15 2.359 4.237 3 30.547s6.89 1.65 8.264 3 .306 5.288.032 10.486z" fill="#b35b45"/><path d="M360.936 294.807c-8.54 26.556-24.312 38.025-34.724 42.868l1.026-5.329v-19.54l18.714-28.075 10.454 1.926z" opacity=".15"/><ellipse cx="325.18" cy="282.523" rx="27.691" ry="34.316" fill="#b35b47"/><path d="M301.372 259.411l36.879-2.479s3.223 14.4 7.8 16.7 7.61 9.446 10.088 21 8.8 10.454 8.8 10.454 3.853-24.216-1.374-40.179c0 0-3.3-22.841-24.222-24.222.006.008-24.21-7.422-37.971 18.726z" fill="#183362"/><path d="M327.238 330.828l-25.869 10.875-2.2 84.86v45.347h117.243l1.374-61.953 7.982 14.343 40.461-26.448-25.32-39.567s-6.055-14.085-24.5-17.116c0 0-40.209-12.657-50.1-11.559 0 0 3.037 17.89-18.154 18.442.003-.017-25.046.666-20.917-17.224z" fill="#4170b6"/><ellipse cx="9.356" cy="7.55" rx="9.356" ry="7.55" transform="matrix(.374 -.927 .927 .374 341.765 283.794)" fill="#b35b47"/><path d="M123.436 426.562l-12.663 45.347 30.457.888 2.389-42.748z" fill="#f5b6a5"/><path d="M149.446 333.997l-3.715 22.7 26.418-6.193-1.648-14.037z" fill="#21386c"/><path d="M213.847 360.415v18.995l-22.3 30.547-29.173-11.145-3.439-33.44 8.672-3.715v-20.645l21.737-31.141 6.307.8.906.114.216.942 1.986 8.684 3.109 13.587 2.983 22.7z" fill="#f5b6a5"/><path d="M200.068 314.822l-1.3 5.587c-7.688 29.683-21.965 34.016-31.153 33.344v-12.741l21.737-31.141 6.3.8 1.122 1.056z" opacity=".15"/><ellipse cx="162.379" cy="305.094" rx="30.823" ry="40.185" fill="#f5b6a5"/><path d="M133.621 290.607h-10.869s10.454-37.809 34.124-36.7c0 0 20.915-11.013 43.486 8.252s25.32 83.12 25.32 83.12l-41.284 9.356 8.814-42.393s9.1-13.293-1.506-19.577c0 0-11.157 12.981-17.488-12.339l-1.65 13.623-29.735-1.233-.822-10.322-3.715 8.216z" fill="#21386c"/><path d="M160.312 369.789a13.12 13.12 0 0 0-10.46-1.08c-6.055 1.836-18.964 5.323-21.407 22.205l-6.3 41.1 11.007 3.121z" opacity=".15"/><path d="M160.912 365.991a13.12 13.12 0 0 0-10.46-1.1c-6.055 1.836-18.964 5.323-21.407 22.205l-6.3 41.1 11.007 3.121z" fill="#ea990a"/><g fill="#f5b6a5"><path d="M238.345 439.405l6.6 32.5h33.212l-2.383-33.422z"/><ellipse cx="10.815" cy="8.3" rx="10.815" ry="8.3" transform="matrix(.164875 -.986314 .986314 .164875 186.594 310.126)"/></g><path d="M168.8 360.685s-18 .552-26.238 24.954c0 0-18.346 24.774-12.291 51.744s10.64 34.52 10.64 34.52h95.963l3.3-19.661-1.83-12.843 37.431-.918s-4.591-46.811-7.16-49.722-6.788-18-20.915-21.287-42.838-10.8-42.838-10.8-3.6 39.405-26.886 35.732c0 .028-15.597.947-9.176-31.719z" fill="#ffaa01"/><path d="M428.463 56.57H181.007c-21.421.02-38.775 17.39-38.775 38.811h0c0 10.292 4.088 20.162 11.366 27.439s17.148 11.366 27.439 11.366h108.458l14.737 21.467 17.692-21.467h106.539c10.294.001 20.166-4.087 27.445-11.366s11.367-17.151 11.366-27.445v.006c0-21.435-17.376-38.811-38.811-38.811z" fill="#fff"/><g fill="#fbc956"><use xlink:href="#B"/><path d="M252.994 79.963l5.1 10.328 11.4 1.656-8.252 8.042 1.944 11.355-10.2-5.359-10.2 5.359 1.944-11.355-8.246-8.042 11.4-1.656z"/><use xlink:href="#B" x="103.489"/><path d="M356.479 79.963l5.1 10.328 11.4 1.656-8.252 8.042 1.951 11.355-10.199-5.359-10.2 5.359 1.95-11.355-8.252-8.042 11.4-1.656zm51.742 0l5.1 10.328 11.4 1.656-8.252 8.042 1.944 11.355-10.2-5.359-10.2 5.359 1.945-11.355-8.246-8.042 11.4-1.656z"/></g><rect width="547.695" height="9.542" rx="4.771" fill="#252626" x="25.871" y="470.997"/><defs ><path id="B" d="M201.25 79.963l5.1 10.328 11.4 1.656-8.252 8.042 1.95 11.355-10.2-5.359-10.2 5.359 1.95-11.355-8.252-8.042 11.4-1.656z"/></defs></svg>