<svg xmlns="http://www.w3.org/2000/svg" width="498.047" height="533.488" xmlns:v="https://vecta.io/nano"><path d="M0 0h498.047v533.488H0z" fill="#e9daf8" opacity=".52"/><path d="M83.939 91.084h281.977v204.152H83.939z" fill="#caa6ee"/><path d="M104.981 106.323h239.892v173.68H104.981z" fill="#fff"/><path d="M253.667 91.091l-15.578 15.23-133.114 130.236-21.029 20.581v-48.4l21.029-19.971 86.874-82.446 16.06-15.233zm79.132 0l-12.812 15.23-145.921 173.69-12.794 15.226h-16.62l12.88-15.226 146.93-173.69 12.887-15.233z" opacity=".56" fill="#e9daf8"/><g fill="#352c20"><rect width="302.687" height="10.257" rx="5.128" x="73.587" y="84.806"/><rect width="302.687" height="10.257" rx="5.128" x="74.916" y="292.145"/></g><path d="M160.129 195.021h6.528v45.284h-6.528zm31.713 0h6.528v45.284h-6.528zm-14.921 17.199h5.288v28.086h-5.288zm32.485 0h5.288v28.086h-5.288z" fill="#fda819"/><g fill="#352c20"><path d="M232.232 247.39l-87.783-1.478v-56.28h3.39v52.945l84.447 1.424z"/><path d="M145.832 191.067h-5.288l2.644-4.576 2.644-4.576 2.644 4.576 2.637 4.576zm82.034 53.469v-5.288l4.576 2.644 4.576 2.644-4.576 2.637-4.576 2.644zm-83.417-84.285h64.964v1.356h-64.964zm0 5.803h66.361v2.712h-66.361zm87.993 11.857h62.619v2.712h-62.619z"/></g><path d="M233.594 195.699h26.642v1.356h-26.642zm-.285 5.274h26.642v1.356h-26.642zm0 5.274h26.642v1.356h-26.642zm0 5.274h26.642v1.356h-26.642z" fill="#ee505d"/><path d="M307.649 170.868l-25.794-17.009-13.728 14.927-23.835-18.609-11.355 6.352-.99-1.776 12.528-7.01 23.422 18.284 13.632-14.823 25.808 17.02 16.826-17.965 1.485 1.39z" fill="#352c20"/><g fill="#ee505d"><circle cx="243.397" cy="149.717" r="3.234"/><circle cx="268.012" cy="167.41" r="3.234"/><circle cx="281.909" cy="150.957" r="3.234"/></g><ellipse cx="83.938" cy="498.148" rx="76.895" ry="13.165" fill="#e6e7e8"/><path d="M90.162 463.121s-2.068 13.267 0 16.785 9.538 14.914 13.057 16.792 9.742 2.712 10.779 2.712-6.006-4.976-10.358-12.846a41.85 41.85 0 0 1-1.966-12.88v-11.606z" fill="#f1b4aa"/><path d="M91.193 473.066s-8.908-1.451-7.667 7.674 2.074 22.588 2.074 22.588h3.634v-13.47s.922-1.661 4.861 3.525 3.315 10.358 6.013 9.945c0 0 11.4 4.359 20.724 1.661 0 0 4.745-1.247-6.738-7.877 0 0-5.044 3.315-11.484-5.389a145.21 145.21 0 0 1-11.416-18.656zm-7.668-73.574l3.315 66.32h17.829l12.019-81.661z" fill="#2b2b2b"/><path d="M60.337 458.355s-4.745 10.779-3.315 15.544 5.179 20.337 8.291 21.964 9.938 2.285 9.938 2.285-7.457-5.186-7.043-13.89 3.1-23.415 3.1-23.415z" fill="#f0b4aa"/><path d="M59.9 467.263s-7.877-2.9-10.575 6.637c0 0-1.654 17.626-3.729 20.337l3.525 1.451 3.627-13.47a6 6 0 0 1 4.25 5.179c.617 4.352 1.037 10.779 1.037 10.779s2.481 7.044 23 6.84a15.93 15.93 0 0 0-8-8.813c-6.1-2.813-8.135-3.85-9.721-10.277S59.9 467.263 59.9 467.263z" fill="#2b2b2b"/><path d="M124.254 345.958l-1.769 15.368a86.22 86.22 0 0 1-1.159 16.27q-.38 2.2-.847 4.108c-2.522 10.535-6.488 14.873-6.488 14.873l-41.407 69.235-15.592-5.179s0-1.037 2.488-14.3 11.606-37.1 21.347-53.677 4.149-42.078-5.62-62.6-4.949-63.832-4.949-63.832l55.751-3 5.179 22.486z" fill="#414142"/><path d="M122.485 361.326c.129 5.448-.259 10.895-1.159 16.27q-.38 2.2-.847 4.108l-1.1-1.742-8.29-84.739 13.057 50.362.108.359z" fill="#362d21" opacity=".58"/><path d="M94.094 130.884s2.488-8.914 8.291-7.457 11.192 5.389 16.372 16.168 9.952 8.759 9.952 15.47-3.112 11.057-4.562 18.3-1.241 7.043 3.525 12.433c0 0-18.446 4.644-26.737 2.034 0 0-8.291-1.8-4.142-11.748z" fill="#471512"/><g fill="#f1b5ab"><ellipse cx="98.236" cy="155.058" rx="18.575" ry="26.174"/><path d="M79.661 168.481v28.723l13.741 9.952 12.921-11.4-8.25-4.766-.549-16.582z"/></g><path d="M75.858 193.034s17.219 2.115 22.174-3.084c0 0 15.375 25.117 18.48 43.2s7.633 36.044 7.633 36.044l-37.287 2.417 1.078-39.909c0-2.285-10.067-32.4-10.067-32.4z" fill="#ee505d"/><path d="M98.033 189.95s15.544 35.028 17.822 50.986 14.514 54.914 14.514 54.914l-4.352 36.478h11.6L136.58 302.5a70.24 70.24 0 0 0-5.389-30.886s-8.291-17.822-9.538-32.743-3.83-18.656-3.83-18.656 1.356-10.779-3-18.446-16.79-11.819-16.79-11.819z" fill="#2d69a5"/><path d="M78.095 193.062s12.88 9.328 16.27 30.879 1.552 26.737 1.552 26.737l-3.735 82.7s-32.743-4.142-39.38-9.531l15.755-53.675s4.352-5.179 7.254-39.17l-6.42-32.37z" fill="#235384"/><path d="M76.062 193.062s12.88 9.328 16.27 30.879 1.552 26.737 1.552 26.737l-3.735 82.7s-32.743-4.142-39.38-9.531l15.755-53.675s4.355-5.184 7.255-39.174l-6.42-32.37z" fill="#3270b8"/><path d="M127.447 257.314l8.365-3.39 5.64-3.39s3.247-3.6.854-3.39-7.687 2.2-7.687 2.2-7.254 2.717-7.172 7.97z" fill="#e5a9a1"/><path d="M102.364 252.548s8.087-4.976 12.643-4.976 10.406-5.6 10.406-5.6 4.1-.814 1.037 3.112a21.85 21.85 0 0 1-7.05 5.8c0 0-1.654 3.24 1.864 3.315 1.735.029 3.466-.148 5.159-.529 2.82-.644 5.749-1.966 7.457-4.447 2.9-4.142 6.013-5.8 6.637-6.006s.23 1.417-1.037 4.833c-1.546 4.156-9.423 11.463-9.952 10.711 0 0-12.413 4.644-18.134 2.379h-9.03z" fill="#f1b5ab"/><path d="M68.469 198.397s-6.1 1.091-9 8.759-13.477 46.22-13.477 46.22-6.216 15.958 3.735 16.785 56.578-6.942 56.578-6.942l-2.074-13.992-41.427 4.989 10.494-29.428z" fill="#2d69a5"/><path d="M98.236 130.674a20.6 20.6 0 0 0-1.952 1.356 27.92 27.92 0 0 0-11.1 25.828c2.068 18.649-1.132-.047-1.132-.047l-1.759 29.057s-20.737 2.712-26.54-10.569 7.877-17.266 7.877-17.266-9.742-21.313 7.254-29.191 22.783-4.137 27.352.832z" fill="#471512"/><ellipse cx="4.569" cy="6.433" rx="4.569" ry="6.433" transform="matrix(.962 -.274 .274 .962 73.504 154.105)" fill="#f1b4aa"/><path d="M92.338 132.335s16.27-1.695 19.063 11.192c5.423 24.954 12.745 17.409 12.745 17.409s-3.39-17.748-7.335-24.249-12.352-15.287-15.666-13.423-4.638-.068-8.807 9.071z" fill="#471512"/><ellipse cx="415.66" cy="496.487" rx="76.895" ry="13.165" fill="#e6e7e8"/><path d="M401.356 467.882l2 9.782 12.3.678v-12.32z" fill="#f1b5ab"/><path d="M421.063 490.888a46.16 46.16 0 0 1-1.057 5.6l-55.338-1.863.441-3.735.183-1.552c.624-5.288 8.7-4.067 15.544-4.352s20.52-13.368 20.52-13.368l15.558 1.566s.305 9.016 3.1 10.847c1.381.946 1.388 4.003 1.049 6.857z" fill="#000026"/><path d="M421.063 490.888a46.16 46.16 0 0 1-1.057 5.6l-55.338-1.864v-3.736zm-30.743-3.053a.68.68 0 0 1-.4-.129l-4.2-3.112c-.3-.223-.362-.646-.139-.946s.646-.362.946-.139l4.2 3.1a.68.68 0 0 1-.407 1.22zm3.722-2.595a.68.68 0 0 1-.407-.136l-4.2-3.112a.68.68 0 0 1 .12-1.187.68.68 0 0 1 .687.096l4.2 3.1a.68.68 0 0 1-.4 1.227zm3.023-3.11a.68.68 0 0 1-.4-.129l-4.2-3.112a.68.68 0 0 1 .12-1.187.68.68 0 0 1 .687.096l4.2 3.112a.68.68 0 0 1-.407 1.22zm3.199-1.553a.68.68 0 0 1-.4-.136l-4.2-3.1a.68.68 0 0 1-.122-.934.68.68 0 0 1 .929-.157l4.2 3.112a.68.68 0 0 1-.407 1.22z" fill="#fff"/><path d="M445.502 468.822v7.287l13.558 2.59s-.21-11.124 0-11.436-13.558 1.559-13.558 1.559z" fill="#f1b5ab"/><path d="M464.05 490.888c-.17 2.591-.58 5.16-1.227 7.674l-55.338-1.864.617-5.288c.021-.176.052-.35.095-.522 1.085-4.678 8.847-3.532 15.45-3.83 6.827-.319 20.52-13.368 20.52-13.368l15.544 1.525s.312 9.016 3.112 10.887c1.051.725 1.308 2.67 1.227 4.786z" fill="#020228"/><path d="M464.05 492.759a24.72 24.72 0 0 1-1.227 5.8l-55.338-1.41.617-4a2.57 2.57 0 0 1 .095-.393zm-28.432-3.891a.68.68 0 0 1-.4-.095l-4.2-3.112a.68.68 0 0 1 .11-1.202.68.68 0 0 1 .697.117l4.2 3.1a.65.65 0 0 1-.407 1.186zm3.722-2.596a.68.68 0 0 1-.4-.136l-4.2-3.112a.68.68 0 0 1 .11-1.202.68.68 0 0 1 .697.117l4.2 3.1a.68.68 0 0 1-.4 1.227zm3.023-3.111a.68.68 0 0 1-.4-.136l-4.2-3.1a.68.68 0 0 1 .12-1.187.68.68 0 0 1 .687.096l4.2 3.112c.237.173.335.48.242.759s-.355.465-.649.461zm3.206-1.553a.68.68 0 0 1-.407-.136l-4.2-3.1a.68.68 0 0 1-.122-.934.68.68 0 0 1 .929-.157l4.2 3.112a.68.68 0 0 1-.4 1.22z" fill="#fff"/><ellipse cx="26.174" cy="20.29" rx="26.174" ry="20.29" transform="matrix(.308 -.952 .952 .308 391.424 175.127)" fill="#f1b5ab"/><g fill="#574048"><path d="M446.281 131.039s.346 8.745-11.836 10.962a35.63 35.63 0 0 1-6.82.508c-19.117-.278-28.14 7.721-28.14 7.721s-7.3-19.863 12.284-27.225 31.712.11 34.512 8.034z"/><path d="M435.414 140.768s-3.078 24.934 4.359 35.658c0 0 11.965 4.949 12.433-16.053 0 0 11.952-19.388-6.237-27.164 0 0-7.755-.834-10.555 7.559z"/></g><g fill="#f1b5ab"><ellipse cx="8.06" cy="5.322" rx="8.06" ry="5.322" transform="matrix(.308 -.952 .952 .308 431.339 167.746)"/><path d="M422.507 177.131l-.976 26.249 26.967-2.366-6.162-10.006-4.339-24.52z"/></g><path d="M418.792 193.062s11.633 11.036 26.086-3.112l12.27 3.112-3.39 95.131h-64.835l15.856-89.8z" fill="#ffa619"/><path d="M376.484 313.689s-4.352 23.2 3.39 24.5c4.42.802 8.948.802 13.368 0v-13.308s-7.152-3.112-10.264-7.776-6.494-3.416-6.494-3.416z" fill="#f1b5ab"/><path d="M396.068 282.905l-2.793 77.417s-1.247 44.742 1.4 65.283l5.755 44.145h18.981s-2.488-14.914 0-20.514 4.068-63.113 2.176-70.577 5.288-50.362 5.288-50.362 3.1-2.8 3.39 12.128 7.457 67.147 7.152 70.57 5.261 60.619 5.261 60.619h18.032s-.536-13.985 2.034-21.449 2.291-51.921 1.356-64.354 4.352-54.4 4.352-54.4l-2.179-46.326z" fill="#2563a0"/><path d="M441.686 187.334v7.9l9.416 1.864-11.328 94.519-4.359 45.983s38.376 3.1 52.369-5.288l-6.84-52.877s14.914-10.257 6.84-27.977l-21.137-48.132s-7.641-17.985-24.961-15.992zm-20.155 2.616l-23.374 9.952-24.778 111.611s0 5.593 7.145 5.281l-.895 10.569 20.8 2.779a240.59 240.59 0 0 1 3.1-68.706c7.172-37.617 6.84-62.808 6.84-62.808l12.643-2.908z" fill="#3270b8"/><path d="M452.03 285.088s-7.41 6.216-12.257 6.528-12.3-.312-11.057 4.657 1.58 12.751 6.7 13.992 9.545-8.081 13.084-9.328 12.2-7.145 12.2-7.145z" fill="#f1b5ab"/><path d="M459.026 230.781l12.9 29.279-19.659 19.944zm-58.076-23.174l-20.419 109.187 2.481.312 20.378-110.859zm79.186 71.434l-33.9 25.259 36-14.7z" opacity=".13" fill="#362d21"/></svg>