<svg xmlns="http://www.w3.org/2000/svg" width="578" height="511.376" xmlns:v="https://vecta.io/nano"><circle cx="230.704" cy="240.815" r="230.704" fill="#ead9fb"/><path d="M257.875 428.438l-8.892-.374.227-3.518 8.739.368zm8.9 0l-.074-3.53 8.745-.368.227 3.518-8.893.38zm-26.663-1.121l-8.831-1.128.521-3.487 8.677 1.1zm44.429 0l-.374-3.511 8.683-1.109.521 3.487-8.831 1.121zm-62.034-2.653l-8.7-1.881.821-3.432 8.579 1.838zm79.665 0l-.674-3.468 8.579-1.838.821 3.432-8.751 1.875zm-96.958-4.118l-8.53-2.635 1.115-3.346 8.383 2.586zm114.27 0l-.968-3.395 8.359-2.58 1.115 3.346-8.53 2.6zm-131.23-5.626l-8.267-3.358 1.4-3.236 8.126 3.3zm148.1 0l-1.226-3.3 8.089-3.285 1.4 3.242-8.261 3.315zm16.313-7.029l-1.526-3.2 7.783-3.965 1.667 3.113-7.924 4.032zm-180.778 0l-7.967-4.044 1.667-3.113 7.807 3.977zm196.448-8.4l-1.8-3.064 7.427-4.614 1.924 2.96-7.562 4.688zm-212.154 0l-7.568-4.706 1.924-2.954 7.439 4.627zm227.064-9.67l-2.077-2.935 7.017-5.227 2.163 2.782-7.109 5.319zm-242-.092l-7.139-5.319 2.169-2.782 7.023 5.233zm256.031-10.871l-2.28-2.69 6.557-5.8 2.4 2.6-6.673 5.871zm-270.076-.061l-6.667-5.9 2.4-2.592 6.551 5.8zm283.166-12l-2.494-2.494 6.055-6.324 2.6 2.341-6.159 6.453zm-296.243-.061l-6.128-6.434 2.6-2.384 6.048 6.324zm308.285-13.083l-2.7-2.274 5.515-6.814 2.788 2.163-5.605 6.923zm-320.31-.073l-5.595-6.919 2.788-2.157 5.515 6.8zm331.23-14.036l-2.874-2.041 4.933-7.25 2.954 1.924-5.013 7.391zm-342.124 0l-5-7.354 2.96-1.9 4.9 7.225zm-9.7-14.891l-4.369-7.734 3.1-1.673 4.29 7.6zm361.556 0l-3.064-1.8 4.29-7.636 3.107 1.673-4.333 7.746zM73.11 309.033l-3.72-8.065 3.236-1.409 3.677 7.93zm378.4-.086l-3.174-1.538 3.677-7.967 3.236 1.409-3.75 8.077zM65.993 292.72l-3.064-8.365 3.34-1.14 2.99 8.23zm392.626-.147l-3.3-1.275 3-8.248 3.34 1.134-3.04 8.389zm-398.368-16.7l-2.347-8.579 3.426-.858 2.3 8.444zm404.1-.178l-3.383-.993 2.3-8.451 3.419.858-2.332 8.587zm-408.436-17.1l-1.624-8.751 3.481-.57 1.6 8.579zm412.75-.178l-3.456-.717 1.593-8.61 3.481.57-1.618 8.775zM53.03 241.054l-.9-8.855 3.511-.288.895 8.708zm418.547-.184l-3.505-.429.883-8.708 3.517.282-.919 8.855zM51.58 223.319l-.19-8.9h3.53l.184 8.757zm421.4-.184l-3.53-.147.178-8.751v-.38h3.53v.362l-.175 8.916zM55.091 205.664l-3.53-.141.533-8.88 3.518.276-.521 8.745zm414.35-.539l-.545-8.739 3.518-.294.552 8.886zM56.489 188.211l-3.505-.423 1.226-8.812 3.481.564-1.202 8.671zm411.512-.533l-1.226-8.665 3.481-.576 1.268 8.806zm-408.7-16.717l-3.456-.711 1.973-8.677 3.426.809-1.943 8.579zm405.819-.552l-1.961-8.536 3.426-.858 1.992 8.671zM63.53 153.943l-3.383-.993 2.678-8.487 3.346 1.134-2.641 8.346zm397.338-.515l-2.66-8.34 3.34-1.14 2.7 8.481zM69.161 137.342l-3.3-1.269 3.389-8.261 3.236 1.409-3.328 8.12zm386.069-.478l-3.34-8.1 3.236-1.409 3.395 8.23zm-379.077-15.62l-3.18-1.538 4.057-7.967 3.113 1.673-3.989 7.832zm372.054-.4l-3.989-7.77 3.131-1.679 4.051 7.905zM84.451 105.795l-3.064-1.8 4.7-7.574 2.96 1.918-4.596 7.456zm355.459-.325l-4.621-7.421 2.96-1.924 4.694 7.544zM93.992 91.094l-2.874-2.047 5.307-7.158 2.788 2.163-5.221 7.042zm336.376-.27l-5.221-7.017 2.788-2.163 5.308 7.136zM104.723 77.238l-2.7-2.274 5.877-6.692 2.6 2.384-5.785 6.582zm314.922-.227l-5.785-6.563 2.6-2.384 5.883 6.673zM116.556 64.332l-2.5-2.494 6.416-6.177 2.39 2.592-6.306 6.079zm291.249-.2l-6.312-6.061 2.39-2.592 6.422 6.165zM129.419 52.444l-2.286-2.69 6.906-5.613 2.169 2.782-6.789 5.521zm265.517-.172l-6.8-5.515 2.169-2.782 6.912 5.607zM143.219 41.689l-2.047-2.874 7.354-5.013 1.918 2.954-7.225 4.933zm237.892-.159l-7.243-4.9 1.924-2.96 7.354 5.013zm-223.246-9.394l-1.8-3.064 7.74-4.375 1.648 3.144-7.588 4.295zm208.594-.147l-7.636-4.29 1.667-3.113 7.764 4.375zm-193.2-8.1l-1.529-3.176 8.077-3.677 1.4 3.174-7.948 3.677zm177.714-.147l-7.966-3.634 1.391-3.266 8.114 3.677zm-161.683-6.8l-1.26-3.295 8.383-3 1.117 3.343-8.24 2.948zm145.579-.147l-8.261-2.935 1.109-3.352 8.408 2.99zm-128.966-5.397l-.973-3.389 8.61-2.267.827 3.432-8.464 2.224zm112.327-.118l-8.469-2.212.815-3.432 8.616 2.249zm-95.327-3.939l-.673-3.461 8.769-1.52.527 3.487-8.623 1.494zm78.292-.123l-8.622-1.471.515-3.487 8.775 1.5zM240.22 4.694l-.39-3.481 8.867-.791.227 3.524-8.704.748zm43.687-.049l-8.72-.729.215-3.518 8.873.741zm-26.24-1.079l-.08-3.524 8.9-.012-.067 3.53a209.35 209.35 0 0 0-8.753.006z" fill="#a7a9ac" opacity=".45"/><path d="M379.744 475.784v-4.412l8.769-.2.2 4.406-8.969.206zm-8.965-.2l-8.947-.613.4-4.394 8.751.613zm26.884-.613l-.4-4.388 8.708-1 .613 4.369-8.922 1.011zm-44.735-1l-8.855-1.422.8-4.339 8.659 1.391zm62.506-1.446l-.8-4.339 8.579-1.8 1 4.29-8.788 1.838zm-80.149-1.8l-8.69-2.237 1.195-4.241 8.493 2.175zm97.62-2.274l-1.226-4.241 8.383-2.58 1.391 4.186-8.555 2.629zm-114.914-2.6l-8.469-3.027 1.587-4.118 8.273 2.96zm131.923-3.073l-1.581-4.118 8.089-3.328 1.771 4.038-8.279 3.408zm-148.7-3.38l-8.144-3.793 1.955-3.953 7.967 3.707zm165.133-3.806l-1.986-3.965 7.758-4.057 2.133 3.861-7.906 4.161zm-181.207-4.149l-7.758-4.516 2.3-3.763 7.587 4.418zm196.889-4.51l-2.315-3.755 7.354-4.749 2.451 3.677-7.525 4.829zm-212.191-4.9l-7.317-5.2 2.635-3.542 7.151 5.086zm227-5.111l-2.635-3.542 6.912-5.393 2.794 3.413-7.076 5.52zm-241.424-5.579l-6.814-5.834 2.941-3.285 6.667 5.7zm255.3-5.8l-2.941-3.285 6.4-6 3.064 3.156-6.526 6.128zm-268.655-6.165l-6.263-6.416 3.2-3.009 6.128 6.275zm281.481-6.361l-3.223-3.064 5.846-6.545 3.351 2.87-5.975 6.742zm-293.737-6.739l-5.668-6.943 3.481-2.715 5.515 6.79zm305.368-6.937l-3.481-2.715 5.246-7.041 3.6 2.555-5.338 7.207zm-316.362-7.158l-5.025-7.415 3.677-2.39 4.9 7.25zm326.786-7.446l-3.677-2.39 4.6-7.482 3.806 2.225-4.731 7.623zm-336.5-7.617l-4.351-7.826 3.9-2.059 4.253 7.654zm345.574-7.911l-3.9-2.053 3.922-7.868 3.989 1.881-4.016 8.042zm-353.921-7.924l-3.64-8.169 4.069-1.7 3.56 7.967zm361.556-8.328l-4.032-1.7 3.211-8.187 4.143 1.52-3.3 8.377zm-368.475-8.187l-2.9-8.487 4.2-1.336 2.843 8.3zm374.677-8.671l-4.21-1.336 2.451-8.414 4.259 1.14-2.505 8.612zm-380.111-8.421l-2.145-8.7 4.29-.962 2.1 8.518zm384.757-8.9l-4.29-.956 1.71-8.579 4.345.766-1.765 8.769zm-388.661-8.579l-1.367-8.861 4.369-.613 1.342 8.671zm391.768-9.057l-4.375-.576.95-8.72 4.394.38-.968 8.9zm-394.115-8.734l-.613-8.947 4.406-.19.576 8.751zm395.67-9.144l-4.406-.159.19-8.769v-.423h4.406v.386l-.19 8.965zm-392.044-8.739h-4.416v-.19l.19-8.769 4.406.184-.184 8.579zm387.619-9.376l-.582-8.751 4.394-.392.613 8.947zm-386.878-8.181l-4.394-.38.962-8.91 4.369.564-.94 8.727zm385.327-9.29l-1.342-8.671 4.339-.772 1.379 8.861zm-383.09-8.083l-4.29-.784 1.74-8.794 4.29.95-1.744 8.629zm380-9.192l-2.108-8.512 4.259-1.152 2.151 8.7zm-376.19-7.966l-4.259-1.14 2.513-8.579 4.2 1.33-2.462 8.389zm371.631-8.965l-2.856-8.3 4.143-1.526 2.911 8.481zm-366.348-7.752l-4.143-1.514 3.272-8.377 4.075 1.7-3.213 8.191zm360.282-8.7l-3.567-7.967 3.983-1.881 3.677 8.169zm-353.516-7.531l-4-1.875 4-8.046 3.9 2.053-3.909 7.866zm346.034-8.285l-4.29-7.648 3.806-2.231 4.357 7.819zm-337.865-7.268l-3.8-2.224 4.694-7.654 3.707 2.39-4.611 7.485zm329-7.838l-4.9-7.243 3.6-2.562 5.031 7.409zm-319.487-6.925l-3.6-2.555 5.356-7.2 3.481 2.709-5.24 7.047zm309.321-7.354l-5.552-6.784 3.352-2.874 5.675 6.937zm-298.535-6.5l-3.352-2.862 5.969-6.7 3.229 3.009-5.852 6.549zm287.143-6.8l-6.128-6.269 3.064-3.15 6.269 6.4zm-275.151-6.03l-3.064-3.15 6.539-6.128 2.948 3.285-6.441 5.993zm262.625-6.226l-6.667-5.693 2.788-3.419 6.821 5.828zm-249.566-5.515l-2.794-3.413 7.06-5.515 2.641 3.536-6.925 5.423zm235.961-5.546l-7.158-5.08 2.451-3.677 7.317 5.19zm-221.934-4.9l-2.451-3.677 7.525-4.86 2.31 3.757-7.389 4.771zm207.392-4.945l-7.587-4.406 2.126-3.861 7.764 4.5zm-192.464-4.247l-2.139-3.861 7.936-4.155 1.955 3.953-7.757 4.054zm177.1-4.247l-7.966-3.677 1.765-4.045 8.15 3.787zm-161.413-3.524l-1.771-4.038 8.273-3.413L310.857 90l-8.1 3.358zm145.315-3.505l-8.273-2.954 1.385-4.185 8.469 3.021zm-128.978-2.8l-1.4-4.185 8.579-2.641 1.226 4.241-8.414 2.6zm112.309-2.711l-8.494-2.175.993-4.29 8.69 2.224zm-95.426-2.059l-1.003-4.286 8.775-1.838.809 4.333-8.6 1.8zm78.347-1.894l-8.659-1.379.613-4.369 8.855 1.409zm-61.14-1.33l-.613-4.369 8.91-1.03.4 4.394-8.695 1.005zm43.742-1.054l-8.745-.613.19-4.406 8.947.613zm-26.283-.558l-.208-4.406 8.972-.214v4.412l-8.763.227z" fill="#bcbec0"/><path d="M177.671 334.654c0-11.02-8.933-19.953-19.953-19.953-.558 0-1.115.031-1.661.074a68.57 68.57 0 0 0-5.84-10.418c5.784-5.288 7.936-13.473 5.502-20.923s-9.004-12.784-16.794-13.637-15.359 2.934-19.348 9.68a68.02 68.02 0 0 0-19.365-4.786c0-.435.049-.864.049-1.305-.011-8.185-5.02-15.532-12.635-18.535s-16.29-1.05-21.884 4.925-6.972 14.76-3.476 22.16a68.4 68.4 0 0 0-14.805 10.3 19.95 19.95 0 0 0-34.275 15.091 19.95 19.95 0 0 0 14.224 17.866 68.29 68.29 0 0 0-2.231 14.707c-7.786.808-14.38 6.094-16.863 13.518s-.396 15.613 5.337 20.942 14.053 6.815 21.275 3.798c1.414 2.338 2.967 4.589 4.651 6.741-6.009 5.49-8.081 14.079-5.236 21.705s10.036 12.759 18.172 12.972 15.586-4.537 18.826-12.003a68.14 68.14 0 0 0 16.037 3.413c1.415 7.014 6.476 12.733 13.266 14.99s14.268.705 19.6-4.067 7.7-12.033 6.207-19.031a68.53 68.53 0 0 0 10.675-7.237c5.921 4.414 13.796 5.197 20.47 2.034s11.055-9.753 11.389-17.131-3.436-14.336-9.797-18.088a68.1 68.1 0 0 0 1.906-8.163c9.567-1.643 16.564-9.933 16.576-19.64zm-84.089 41.408c-18.354 0-33.233-14.879-33.233-33.232s14.878-33.233 33.232-33.234 33.233 14.877 33.234 33.231c.001 8.814-3.501 17.268-9.733 23.501s-14.686 9.734-23.5 9.734z" fill="#8bbfea"/><rect width="351.733" height="304.835" rx="24.68" fill="#c594f7" x="103.552" y="143.054"/><rect width="351.733" height="304.835" rx="24.68" fill="#fff" stroke="#c89af7" stroke-miterlimit="10" stroke-width="3" x="104.435" y="121.888"/><path d="M118.505 121.888h323.562c7.783.003 14.092 6.312 14.095 14.095v42.9H104.41v-42.9c.003-7.783 6.312-14.092 14.095-14.095z" fill="#8922e1"/><rect width="48.013" height="48.013" rx="12.03" fill="#e8545a" x="143.93" y="235.079"/><rect width="48.013" height="48.013" rx="12.03" fill="#f1f2f2" x="217.626" y="235.962"/><g fill="#8922e1"><rect width="48.013" height="48.013" rx="12.03" x="293.112" y="235.962"/><rect width="48.013" height="48.013" rx="12.03" x="371.269" y="235.962"/></g><rect width="48.013" height="48.013" rx="12.03" fill="#e8545a" x="143.93" y="317.293"/><rect width="48.013" height="48.013" rx="12.03" fill="#f1f2f2" x="217.626" y="317.293"/><rect width="48.013" height="48.013" rx="12.03" fill="#8922e1" x="293.994" y="318.176"/><circle cx="448.679" cy="332.135" r="98.821" fill="#ee505d"/><g fill="#fff"><circle cx="154.574" cy="143.053" r="14.615"/><circle cx="238.768" cy="143.053" r="14.615"/><circle cx="324.726" cy="143.053" r="14.615"/><circle cx="409.073" cy="143.053" r="14.615"/><path d="M512.546 332.338c9.13-31.084-7.712-63.868-38.298-74.547s-64.174 4.495-76.377 34.506l10.258 4.21c9.914-24.291 36.997-36.698 61.867-28.341s38.966 34.601 32.199 59.95l-11.729-4.78 2.531 18.439 2.531 18.439 14.707-11.41 14.707-11.41zm-127.739-.404c-9.135 31.088 7.711 63.878 38.303 74.556s64.184-4.508 76.378-34.528l-10.271-4.191c-9.896 24.316-36.994 36.746-61.879 28.383s-38.978-34.634-32.181-59.992l11.747 4.774-2.531-18.445-2.531-18.439-14.707 11.41-14.707 11.416z"/></g><g fill="#6b1ebc"><rect width="15.222" height="50.808" rx="7.611" x="146.964" y="99.551"/><rect width="15.222" height="50.808" rx="7.611" x="230.704" y="99.551"/><rect width="15.222" height="50.808" rx="7.611" x="317.116" y="99.551"/><rect width="15.222" height="50.808" rx="7.611" x="401.462" y="99.551"/></g><ellipse cx="265.008" cy="493.17" rx="197.82" ry="18.207" fill="#acaeaf" opacity=".2"/><path d="M147.81 427.323c0-3.436-1.365-6.731-3.794-9.161s-5.725-3.794-9.161-3.794c-.36-.008-.721.008-1.079.049a44.64 44.64 0 0 0-3.793-6.778c3.753-3.435 5.148-8.749 3.566-13.585s-5.849-8.298-10.907-8.85-9.971 1.908-12.559 6.288c-4.016-1.65-8.253-2.699-12.575-3.113q0-.423 0-.846c.009-5.323-3.24-10.11-8.19-12.068s-10.594-.688-14.229 3.201-4.521 9.606-2.233 14.413a44.56 44.56 0 0 0-9.615 6.692 12.95 12.95 0 0 0-22.254 9.814 12.95 12.95 0 0 0 9.269 11.586 44.51 44.51 0 0 0-1.452 9.542c-5.036.552-9.288 3.989-10.884 8.798s-.242 10.106 3.465 13.559 9.087 4.429 13.77 2.497c.918 1.52 1.927 2.983 3.021 4.381-3.91 3.563-5.261 9.145-3.413 14.102s6.524 8.292 11.813 8.425 10.126-2.962 12.222-7.82a44.16 44.16 0 0 0 10.418 2.218 12.96 12.96 0 0 0 15.317 10.053 12.96 12.96 0 0 0 10.053-15.317c2.442-1.334 4.752-2.896 6.9-4.664 3.844 2.883 8.968 3.401 13.311 1.347s7.193-6.344 7.404-11.144-2.253-9.322-6.4-11.749c.519-1.739.929-3.509 1.226-5.3a12.95 12.95 0 0 0 10.784-12.776zm-54.6 26.884c-11.917 0-21.577-9.66-21.577-21.577s9.66-21.577 21.577-21.577 21.577 9.66 21.577 21.577c0 5.723-2.274 11.211-6.32 15.258s-9.536 6.32-15.259 6.319z" fill="#e6e7e8"/></svg>