<svg xmlns="http://www.w3.org/2000/svg" width="560" height="560" xmlns:v="https://vecta.io/nano"><style><![CDATA[.Ai{opacity:.67}.Aj{opacity:.1}.Ak{fill:#fff}.Al{fill:#0c0c0c}.Am{fill:#412921}.An{fill:#3d9ddf}.Ao{opacity:.07}.Ap{opacity:.05}.Aq{fill:#fde9e1}.Ar{opacity:.24}.As{fill:#c5c7cd}.At{opacity:.04}.Au{fill:#c17474}.Av{fill:#d05974}.Aw{fill:#febf9c}.Ax{fill:#4b9ddf}]]></style><defs><clipPath id="A"><circle cx="234.223" cy="234.223" r="234.223" fill="none"/></clipPath></defs><g fill="#8922e1"><circle cx="271.026" cy="272.657" r="261.121" class="Ai"/><circle cx="280" cy="280" r="280" opacity=".41"/></g><circle cx="271.026" cy="267.272" r="234.223" fill="#f7f0e7"/><g transform="translate(36.803 33.049)" clip-path="url(#A)"><path d="M330.379 194.991a1.41 1.41 0 0 1-.795-.249l-23.8-16.044a1.43 1.43 0 1 1 1.6-2.373l23.79 16.056a1.43 1.43 0 0 1-.8 2.616z" fill="#69635f"/><path d="M295.433 176.958l12.7 3.867 2.924-2.788-7.645-6.8s-6.882-.252-7.979 5.721z" class="Au"/><path d="M331.31 183.108l29.573 18.553-5.931 11.139s-29.875-10.38-32.325-15.961c0 0 .4-11.026 8.683-13.731z" class="Am"/><ellipse cx="5.789" cy="2.9" rx="5.789" ry="2.9" transform="matrix(.347 -.938 .938 .347 352.832 211.211)" class="Ak"/><path d="M207.461 214.43a1.37 1.37 0 0 1 .03.819l-7.811 27.212c-.247.771-1.059 1.208-1.839.991a1.4 1.4 0 0 1-1.056-1.72l7.811-27.218a1.5 1.5 0 0 1 1.833-.985 1.47 1.47 0 0 1 1.032.901z" fill="#69635f"/><path d="M200.949 251.133l-.469-11.044-3.144-1.578-3.416 7.841s1.779 5.509 7.029 4.781z" class="Av"/><path d="M195.362 217.337l8.3-33.387 13.049 1.951s-.077 31.1-4.786 35.142c.021.001-11.041 3.126-16.563-3.706z" class="Am"/><ellipse cx="2.847" cy="6.074" rx="2.847" ry="6.074" transform="matrix(.023385 -.999727 .999727 .023385 203.784 188.13)" class="Ak"/><g opacity=".11" class="Al"><ellipse cx="185.949" cy="383.215" rx="46.673" ry="27.948"/><ellipse cx="183.973" cy="381.898" rx="31.803" ry="19.045"/><ellipse cx="183.973" cy="381.24" rx="18.173" ry="10.884"/><rect width="13.274" height="23.743" rx="6.637" transform="matrix(.763345 -.645991 .645991 .763345 143.319 347.69)"/><rect width="11.756" height="22.189" rx="5.878" transform="matrix(.974449 -.224611 .224611 .974449 165.017 338.2)"/><rect width="11.756" height="22.189" rx="5.878" transform="matrix(.891323 .453368 -.453368 .891323 194.02 335.358)"/><rect width="11.756" height="22.189" rx="5.878" transform="matrix(.803961 .594682 -.594682 .803961 215.134 340.08)"/><rect width="11.756" height="22.189" rx="5.878" transform="matrix(.587644 .80912 -.80912 .587644 236.235 348.856)"/><rect width="13.274" height="23.743" rx="6.637" transform="matrix(.558 -.83 .83 .558 125.728 359.006)"/><path d="M165.516 403.315l-2.129-1.951c-1.036-.967-2.434-1.446-3.845-1.318s-2.7.851-3.545 1.988l-8.565 10.943a6.01 6.01 0 0 0 .593 8l2.129 1.951c1.034.968 2.432 1.449 3.842 1.321s2.699-.852 3.542-1.991l8.571-10.955a6.01 6.01 0 0 0-.593-7.988zm11.601 2.503l-1.24-.308c-1.401-.308-2.868-.027-4.056.777a5.24 5.24 0 0 0-2.231 3.476l-2.627 12.349a5.7 5.7 0 0 0 3.926 6.8l1.246.314c1.401.306 2.865.024 4.052-.78s1.993-2.059 2.229-3.473l2.628-12.349a5.7 5.7 0 0 0-3.927-6.806zm13.44.279l-1.139.623a5.93 5.93 0 0 0-2.3 7.627l5.308 11.269a5.05 5.05 0 0 0 2.974 2.799c1.341.473 2.819.359 4.072-.314l1.133-.593a5.93 5.93 0 0 0 2.3-7.628l-5.3-11.269c-.545-1.317-1.623-2.343-2.966-2.822s-2.826-.367-4.082.308zm17.361-4.009l-1.02.807a5.99 5.99 0 0 0-1.115 7.948l6.963 10.184c.763 1.194 1.999 2.005 3.397 2.232s2.827-.154 3.928-1.046l1.026-.818c2.341-1.973 2.815-5.394 1.1-7.93l-6.922-10.19a4.98 4.98 0 0 0-7.355-1.186zm21.5-14.431l-.042 1.311a5.98 5.98 0 0 0 5.338 5.984l12.266 1.329a4.98 4.98 0 0 0 5.664-4.8l.042-1.311a5.98 5.98 0 0 0-5.338-5.985l-12.272-1.328a4.98 4.98 0 0 0-5.658 4.8zm-1.477-12.811l.474 1.222c1.178 2.828 4.301 4.31 7.236 3.434l11.809-3.559a4.99 4.99 0 0 0 3.339-6.631l-.474-1.222a5.98 5.98 0 0 0-7.236-3.434l-11.809 3.559a4.99 4.99 0 0 0-3.339 6.631zm-86.281 12.206l.042 1.311a5.98 5.98 0 0 1-5.338 5.991l-12.266 1.332a4.99 4.99 0 0 1-5.664-4.8l-.042-1.311a5.98 5.98 0 0 1 5.34-5.989l12.266-1.328a4.99 4.99 0 0 1 5.664 4.8zm1.477-12.806l-.474 1.222c-1.178 2.828-4.301 4.31-7.236 3.434l-11.809-3.559a4.99 4.99 0 0 1-3.345-6.631l.475-1.228a5.99 5.99 0 0 1 7.236-3.434l11.809 3.559a4.98 4.98 0 0 1 3.339 6.637zm79.698 22.029l-.747 1.115c-1.692 2.555-1.18 5.976 1.186 7.924l9.49 7.444a4.98 4.98 0 0 0 7.319-1.251l.747-1.115c1.698-2.548 1.199-5.968-1.157-7.924l-9.49-7.444a4.99 4.99 0 0 0-7.349 1.251zm-72.183 1.696l-1.554-2.5a5 5 0 0 0-7.278-1.542l-11 8.013a5.97 5.97 0 0 0-1.418 7.871l1.554 2.5c.708 1.229 1.905 2.099 3.292 2.393s2.834-.015 3.98-.851l11-8a5.93 5.93 0 0 0 1.424-7.888zm39.786-43.451a.69.69 0 0 1-.3-.071.65.65 0 0 1-.279-.89l6.85-13.084c.105-.213.317-.353.554-.368a.66.66 0 0 1 .594.297c.13.198.145.452.038.664l-6.85 13.084a.66.66 0 0 1-.6.368zm17.533 4.857a.68.68 0 0 1-.386-.125.66.66 0 0 1-.148-.919l9.875-13.707a.66.66 0 0 1 .919-.149.66.66 0 0 1 .149.919l-9.875 13.707c-.122.173-.322.275-.534.273z"/><path d="M224.497 365.053c-.284.001-.536-.181-.625-.451a.66.66 0 0 1 .234-.735l12.291-9.128a.66.66 0 0 1 .923.134.66.66 0 0 1-.134.923l-12.3 9.14a.63.63 0 0 1-.391.119zm8.118 10.647a.66.66 0 0 1-.657-.557.66.66 0 0 1 .457-.73l14.656-4.686a.66.66 0 0 1 .828.429.66.66 0 0 1-.429.828l-14.654 4.684c-.066.02-.134.031-.202.032zm16.269 16.121h-.1l-14.709-2.195a.66.66 0 0 1-.505-.738.66.66 0 0 1 .695-.562l14.715 2.195a.66.66 0 0 1 .577.701.66.66 0 0 1-.672.61zm-10.881 17.936a.68.68 0 0 1-.415-.142l-12.633-10.083a.66.66 0 0 1-.092-.914.66.66 0 0 1 .911-.118l12.639 10.083a.65.65 0 0 1 .1.925.63.63 0 0 1-.51.249zm-20.153 10.278a.67.67 0 0 1-.593-.338l-7.841-13.9a.66.66 0 0 1 1.151-.646l7.859 13.9c.115.208.11.46-.012.664a.66.66 0 0 1-.581.321zm-19.15 6.045a.66.66 0 0 1-.593-.4l-7.064-16.323c-.141-.334.012-.72.344-.866a.65.65 0 0 1 .866.344l7.052 16.323a.65.65 0 0 1-.344.866.67.67 0 0 1-.261.056zm-26.601.004h-.136a.66.66 0 0 1-.5-.783l3.422-16.323a.66.66 0 0 1 .779-.493.66.66 0 0 1 .514.766l-3.428 16.323a.66.66 0 0 1-.651.51zm-20.551-6.049a.65.65 0 0 1-.415-.148.66.66 0 0 1-.1-.925l11.269-14.01a.66.66 0 0 1 1.132.17.66.66 0 0 1-.106.654l-11.269 14.01c-.123.158-.311.249-.511.249zm-19.841-10.278a.66.66 0 0 1-.386-1.192l15.807-11.492a.66.66 0 1 1 .777 1.068l-15.812 11.492a.65.65 0 0 1-.386.124zm-10.391-17.937a.66.66 0 0 1-.678-.608.66.66 0 0 1 .578-.703l18.707-2.966c.36-.053.696.193.753.552a.65.65 0 0 1-.546.753l-18.707 2.966zm18.708-17.129a.83.83 0 0 1-.2-.03l-16.892-5.445a.66.66 0 0 1-.266-1.13.66.66 0 0 1 .666-.122l16.892 5.439a.66.66 0 0 1 .457.73.66.66 0 0 1-.657.557zm6.167-7.858a.65.65 0 0 1-.391-.13l-14.615-10.908a.66.66 0 0 1-.134-.923.66.66 0 0 1 .923-.134l14.614 10.908a.65.65 0 0 1 .131.919.64.64 0 0 1-.528.267zm15.232-7.053a.67.67 0 0 1-.51-.237l-11.69-14.11a.661.661 0 1 1 1.02-.842l11.684 14.11a.66.66 0 0 1-.083.925.67.67 0 0 1-.421.154zm13.302-3.855a.66.66 0 0 1-.641-.5l-3.63-15.291c-.052-.341.166-.665.502-.746s.677.11.785.438l3.624 15.291c.082.353-.134.707-.486.795z"/></g><ellipse cx="187.041" cy="383.185" rx="40.451" ry="24.223" fill="#cdada3"/><ellipse cx="185.326" cy="382.041" rx="27.562" ry="16.507" class="Ak"/><ellipse cx="185.326" cy="381.471" rx="15.747" ry="9.431" fill="#fdaa61"/><rect width="11.501" height="20.575" rx="5.75" transform="matrix(.763345 -.645991 .645991 .763345 150.085 352.39)" fill="#e25177"/><rect width="10.19" height="19.229" rx="5.095" transform="matrix(.974449 -.224611 .224611 .974449 168.896 344.175)" fill="#95d7e8"/><rect width="10.19" height="19.229" rx="5.095" transform="matrix(.891323 .453368 -.453368 .891323 194.032 341.703)" fill="#136166"/><rect width="10.19" height="19.229" rx="5.095" transform="matrix(.803961 .594682 -.594682 .803961 212.33 345.793)" fill="#f6666e"/><rect width="10.19" height="19.229" rx="5.095" transform="matrix(.587644 .80912 -.80912 .587644 230.626 353.399)" fill="#e9cbb8"/><rect width="11.501" height="20.575" rx="5.75" transform="matrix(.558 -.83 .83 .558 134.839 362.2)" fill="#fda233"/><path d="M169.324 400.605l-1.845-1.69c-.898-.837-2.111-1.251-3.333-1.137s-2.338.743-3.067 1.73l-7.426 9.49a5.2 5.2 0 0 0 .528 6.945l1.845 1.69a4.31 4.31 0 0 0 6.406-.593l7.42-9.49a5.21 5.21 0 0 0-.528-6.945z" fill="#e25177"/><path d="M179.384 402.775l-1.074-.267c-1.214-.262-2.482-.016-3.511.679s-1.73 1.78-1.94 3.004l-2.278 10.706c-.617 2.556.878 5.146 3.4 5.89l1.073.273c1.215.259 2.483.013 3.511-.684s1.729-1.781 1.94-3.005l2.278-10.676a4.96 4.96 0 0 0-3.399-5.92z" fill="#95d7e8"/><path d="M191.032 403.012l-.985.546a5.12 5.12 0 0 0-1.992 6.611l4.6 9.792c.481 1.133 1.415 2.011 2.576 2.42s2.439.312 3.524-.267l.985-.54c2.273-1.358 3.137-4.225 1.993-6.613l-4.6-9.786c-.478-1.135-1.412-2.016-2.573-2.427s-2.441-.314-3.527.268z" fill="#136166"/><path d="M206.08 399.543l-.89.706a5.2 5.2 0 0 0-.955 6.88l6.044 8.814c.663 1.033 1.734 1.736 2.946 1.933s2.45-.131 3.406-.901l.884-.712a5.19 5.19 0 0 0 .955-6.845l-6.038-8.832a4.32 4.32 0 0 0-6.352-1.044z" fill="#f6666e"/><path d="M224.72 387.034l-.036 1.133c-.019 2.655 1.97 4.896 4.609 5.19l10.635 1.151c1.215.167 2.444-.19 3.381-.982s1.493-1.944 1.53-3.17l.036-1.133a5.19 5.19 0 0 0-4.609-5.2l-10.635-1.151c-1.216-.167-2.446.19-3.383.984s-1.492 1.947-1.528 3.174z" fill="#9e5458"/><path d="M223.434 375.931l.409 1.062a5.19 5.19 0 0 0 6.275 2.966l10.237-3.1a4.31 4.31 0 0 0 2.888-5.747l-.409-1.056c-1.023-2.447-3.728-3.726-6.269-2.966l-10.237 3.1c-1.183.322-2.174 1.131-2.726 2.226s-.613 2.373-.168 3.515z" fill="#4d6b91"/><path d="M148.648 386.512l.036 1.133a5.18 5.18 0 0 1-4.585 5.166l-10.676 1.186c-1.215.167-2.444-.19-3.381-.982s-1.493-1.944-1.53-3.17l-.036-1.133a5.19 5.19 0 0 1 4.609-5.2l10.631-1.146a4.32 4.32 0 0 1 4.929 4.146z" fill="#9e5458"/><path d="M149.929 375.409l-.409 1.062c-1.023 2.447-3.728 3.726-6.269 2.966l-10.237-3.1a4.32 4.32 0 0 1-2.894-5.747l.409-1.056c1.023-2.447 3.728-3.726 6.269-2.966l10.267 3.108a4.32 4.32 0 0 1 2.865 5.73z" fill="#4d6b91"/><path d="M219.009 394.507l-.646.961a5.18 5.18 0 0 0 1.008 6.868l8.209 6.453a4.32 4.32 0 0 0 6.34-1.086l.652-.967a5.19 5.19 0 0 0-1.008-6.868l-8.209-6.465c-.965-.762-2.208-1.077-3.419-.867s-2.275.925-2.927 1.967z" fill="#e9cbb8"/><path d="M156.447 395.973l-1.352-2.171a4.33 4.33 0 0 0-6.3-1.335l-9.537 6.945c-2.102 1.619-2.635 4.568-1.234 6.821l1.352 2.171a4.33 4.33 0 0 0 6.3 1.335l9.537-6.939a5.18 5.18 0 0 0 1.234-6.827z" fill="#fda233"/><g fill="#e6e7e8"><path d="M190.955 358.315c-.2 0-.386-.104-.49-.275s-.112-.384-.02-.561l5.931-11.34c.049-.248.251-.437.501-.472a.59.59 0 0 1 .609.319c.114.225.073.499-.102.68l-5.931 11.34c-.1.183-.289.3-.498.308zm15.172 4.206c-.208-.014-.394-.136-.489-.322s-.085-.408.026-.585l8.559-11.862a.571.571 0 1 1 .925.67l-8.559 11.862c-.109.146-.28.233-.462.237zm14.324 4.922a.59.59 0 0 1-.51-.403c-.074-.224-.009-.471.166-.629l10.676-7.912a.57.57 0 0 1 .777.136.57.57 0 0 1-.101.783l-10.67 7.888a.55.55 0 0 1-.338.137zm7.034 9.224a.59.59 0 0 1-.491-.495c-.039-.254.09-.504.319-.62l12.7-4.057a.57.57 0 1 1 .35 1.085l-12.7 4.063a.6.6 0 0 1-.178.024zm14.098 13.974h-.083l-12.752-1.9c-.246-.107-.39-.365-.351-.63s.251-.471.517-.503l12.752 1.9a.59.59 0 0 1 .38.597c-.019.261-.207.479-.463.536zm-9.43 15.545c-.129-.002-.254-.046-.356-.125l-10.955-8.731c-.163-.215-.159-.513.008-.725a.59.59 0 0 1 .704-.175l10.955 8.737a.57.57 0 0 1-.356 1.014zm-17.473 8.909c-.206-.004-.395-.114-.5-.291l-6.815-12.04c-.155-.276-.058-.626.218-.782s.626-.058.782.218l6.815 12.04a.57.57 0 0 1-.5.854zm-16.607 5.243c-.225-.006-.427-.139-.522-.344l-6.1-14.134c-.036-.264.109-.519.354-.625a.59.59 0 0 1 .696.174l6.116 14.146c.088.178.072.39-.042.553s-.307.251-.504.23zm-23.037-.001h-.119c-.301-.076-.492-.371-.439-.676l2.966-14.152c.122-.239.389-.367.651-.312s.455.281.47.549l-2.966 14.146c-.066.258-.297.44-.563.445zm-17.818-5.242a.59.59 0 0 1-.489-.334c-.092-.191-.075-.416.044-.591l9.781-12.147a.57.57 0 0 1 .991.145.57.57 0 0 1-.101.573l-9.781 12.141c-.11.132-.273.21-.445.213zm-17.195-8.909a.57.57 0 0 1-.332-1.032l13.7-9.97c.256-.178.606-.119.79.132s.133.603-.114.793l-13.7 9.958a.59.59 0 0 1-.338.119zm-8.973-15.546c-.256-.055-.446-.272-.467-.533s.133-.505.378-.6l16.216-2.55c.268.027.484.232.526.498a.59.59 0 0 1-.348.635l-16.216 2.544zm16.186-14.846a.59.59 0 0 1-.178 0l-14.644-4.745c-.22-.147-.315-.423-.234-.674s.319-.419.584-.411l14.644 4.715a.59.59 0 0 1 .319.62c-.04.254-.238.454-.491.495zm5.344-6.809c-.123-.003-.243-.042-.344-.113l-12.663-9.454c-.165-.21-.17-.505-.01-.72s.443-.296.692-.199l12.669 9.454a.59.59 0 0 1 .166.629c-.075.224-.275.382-.51.403zm13.197-6.114a.59.59 0 0 1-.439-.208l-10.13-12.224a.57.57 0 1 1 .878-.73l10.13 12.224c.125.174.146.403.055.597s-.28.324-.494.34zm11.536-3.339c-.263-.007-.49-.185-.558-.439l-3.144-13.256a.59.59 0 0 1 .072-.683c.167-.189.435-.252.668-.157s.382.327.369.579l3.144 13.25c.061.304-.122.604-.421.688z"/></g><g opacity=".08" class="Al"><path d="M266.127 98.221c-4.947-8.5-17.2-3.559-17.2-3.559 1.121-15.018-12.568-11.862-12.568-11.862s-12.355.4-18.713 8.95 5.214 13.582 5.214 13.582l-11.026 7.61-18.387 9.769-17.439 15.824 23.944-8.476 18.98-11.145s10.125-9.407 18.565-5.065c5.06 2.577 10.943 3.015 16.329 1.216l12.307-7.467s4.94-.878-.006-9.377zm-39.5 3.161s-10.083-2.568-4.466-7.906a24.55 24.55 0 0 1 12.906-6.121c0 0 9.567-1.483 10.125 3.31zm24.383 9.152s-8.446 2.829-11.068-4.543l9.8-6.862s10.824-4.282 14.389 3.428c0 0-5.059 8.624-13.126 7.977z" class="Ai"/><path d="M182.224 135.402c5.3-3.772 10.676-7.378 16.127-10.925l8.167-5.279 8.221-5.184 8.274-5.095 8.3-5c5.569-3.31 11.168-6.554 16.856-9.632-5.3 3.778-10.676 7.384-16.127 10.931l-8.167 5.279-8.221 5.184-8.274 5.095-8.3 5-16.856 9.626z"/></g><path d="M260.729 95.753c-4.6-7.509-16.014-3.138-16.014-3.138 1.05-13.28-11.7-10.486-11.7-10.486s-11.524.35-17.467 7.906 4.858 12.011 4.858 12.011l-10.273 6.726-17.117 8.63-16.24 13.986 22.313-7.509 17.693-9.834s9.431-8.3 17.3-4.472a20.72 20.72 0 0 0 15.2 1.091l11.459-6.6s4.597-.796-.012-8.311zm-36.773 2.8s-9.377-2.272-4.152-6.993c3.397-2.912 7.56-4.783 11.993-5.391 0 0 8.9-1.3 9.437 2.93zm22.7 8.084s-7.859 2.5-10.308-4.015l9.134-6.062s10.083-3.784 13.4 3.031c-.012 0-4.721 7.622-12.236 7.046z" fill="#d1d3d4" class="Ai"/><g fill="#bcbec0"><path d="M182.592 128.594c4.935-3.333 9.964-6.524 15.018-9.662l7.61-4.662 7.651-4.585 7.711-4.5 7.752-4.419c5.184-2.924 10.4-5.789 15.7-8.511-4.935 3.333-9.964 6.524-15.018 9.662l-7.61 4.662-7.657 4.585-7.711 4.5-7.758 4.419c-5.178 2.918-10.388 5.789-15.688 8.511zm-29.739-14.549l16.246-9.982 39.472-22.96 11.862-6.637s5.623.172 3.879 3.144-13.974 8.363-13.974 8.363l-38.606 22.817-15.368 8.63z"/></g><g fill="#939598"><path d="M164.727 108.156l4.543-3.144s3.671.789 1.483 2.711a9.64 9.64 0 0 1-4.454 2.266zm15.552-9.17s.267 2.883 2.319 1.922 16.014-9.781 16.014-9.781l-1.661-2.052zm28.292-17.1s-.35 3.126 1.572 2.776 4.193-2.776 4.193-2.776-.261-2.461-2.011-1.412a12.78 12.78 0 0 1-3.754 1.412z" class="Ai"/></g><path d="M316.88 206.975c-.878-2.23-2.284-.178-2.284-.178-3.143 9.911-33.363 17.337-33.363 17.337l-12.456.783.249-.89 1.358-4.953c9.958-19.573 19.911-20.789 22.355-23.369 1.578-1.661.255-3.3-.884-4.259a8.62 8.62 0 0 0-1.186-.848c-14.324-.35-23.725 24.976-24.81 31.163s-2.616 5.338-8.9 6.726a8.36 8.36 0 0 0-6.839 6.9c-11.34-.279-10.575 6.673-10.575 6.673l-.291 1.6a2.6 2.6 0 0 0 2.372 3.072c2.218.148 5.261.036 7.384-1.287a5.21 5.21 0 0 0 1.1-.878c3.333-3.511 13.642-9.176 13.642-9.176 4.745-5 19.917-3.915 19.917-3.915 24.1-2.444 33.879-16.24 33.879-16.24.138-4.643-.188-7.069-.668-8.261zm-74.247 35.587s-1.922-3.559 6.809-5.67c-.323 3.441-3.367 5.973-6.809 5.664zm12.515-9.383s-.385-3.393 5.783-3.559c.012-.024-1.767 4.917-5.783 3.553z" fill="#d1d3d4"/><g fill="#bcbec0"><path d="M317.562 215.231s-9.763 13.8-33.879 16.251c0 0-15.2-1.085-19.917 3.915 0 0-10.285 5.664-13.642 9.176a5.21 5.21 0 0 1-1.1.878l.391-.878c-.872-1.038 2.444-11.269 20.267-14.964s42.177-9.8 44.715-16.121c.973-2.444 1.779-4.68 2.456-6.524.507 1.203.834 3.629.709 8.267zm-24.804-19.525c-2.444 2.58-12.4 3.8-22.355 23.369l-1.358 4.953-2.657.89s7.159-18.072 19.543-28.837a57.67 57.67 0 0 1 5.931-4.632c1.151.953 2.474 2.598.896 4.257z"/></g><path d="M406.666-8.304L204.875 209.418s36.412 22.663 57.171 3.144 63.665-79.386 63.665-79.386l74.614-92.752z" class="Aj Al"/><path d="M404.246 20.297l-93.054 114.187-5.593 6.845-15.718 17.687c.391 16.507-15.332 27.123-15.332 28.3s-16.5 16.886-23.577 20.445-11.791.789-11.791.789l-13.363-1.578-4.614 9.437c-10.913 3.559-11.1-5.9-11.1-5.9-5.113.789-11-5.5-11-5.5l3.144-35.759 16.109-24.757s9.828-12.972 26.726-11.4 30.658-27.877 30.658-27.877l1.685-2.568 54.1-82.349z" class="Aw"/><path d="M311.192 134.482l-5.593 6.845-13.446 15.13-2.272 2.556c.391 16.507-15.332 27.123-15.332 28.3s-16.5 16.886-23.577 20.445-11.791.789-11.791.789l-13.363-1.578-4.614 9.437c-10.913 3.559-11.1-5.9-11.1-5.9-5.113.789-11-5.5-11-5.5l3.144-35.759 16.109-24.757s9.828-12.972 26.726-11.4c5.712.534 11.074-2.485 15.652-6.72 8.98-8.268 15.006-21.18 15.006-21.18l1.685-2.568c10.082 3.606 24.163 12.06 33.766 31.86z" fill="#9bcefd"/><g class="Ai An"><path d="M211.281 207.366l.3-4.152.362-4.152.409-4.152.445-4.152v-.077l1.216-3.713 1.453-3.606a59.01 59.01 0 0 1 3.63-6.88l1.05-1.643 1.139-1.584 1.186-1.536 1.257-1.483 1.335-1.412c.445-.469.955-.878 1.429-1.323a30.28 30.28 0 0 1 3.037-2.372c-1.913 1.705-3.675 3.573-5.267 5.581-1.558 2.016-2.977 4.137-4.247 6.346s-2.423 4.484-3.452 6.815a65.71 65.71 0 0 0-2.7 7.117v-.077l-.593 4.116-.623 4.11-.67 4.11-.696 4.119z"/></g><g class="Ai An"><path d="M225.818 206.975a60.08 60.08 0 0 1 1.963-10.368c.934-3.41 2.162-6.732 3.671-9.929 1.503-3.22 3.419-6.231 5.7-8.956 1.145-1.359 2.42-2.603 3.808-3.713 1.39-1.091 2.903-2.017 4.508-2.758a29.3 29.3 0 0 0-7.6 7.052 41.03 41.03 0 0 0-2.9 4.3c-.896 1.484-1.712 3.014-2.444 4.585-.765 1.56-1.447 3.161-2.082 4.781s-1.222 3.256-1.779 4.911-1.062 3.321-1.53 5.006-.912 3.374-1.315 5.089z"/></g><g class="Ai An"><path d="M239.591 206.975l4.917-7.639 5.184-7.444 5.391-7.3 5.664-7.117-4.911 7.633-5.184 7.444-5.4 7.3-5.661 7.123z"/></g><path d="M311.192 134.484l-5.593 6.845-13.446 15.13-31.435-30.1c8.98-8.268 15.006-21.18 15.006-21.18l1.684-2.568c10.101 3.617 24.182 12.069 33.784 31.873z" class="Ai Ax"/><g class="Al"><ellipse cx="114.698" cy="193.807" rx="21.329" ry="5.658" class="Aj"/><ellipse cx="158.161" cy="202.574" rx="28.778" ry="7.633" opacity=".06"/></g><path d="M136.637 123.659l-.03 54.626s1.572 14.543-19.65 16.115c-2.011.161-4.032.135-6.038-.077-15.48-1.7-16.69-15.255-16.69-15.255l.326-48.731c-1.969-15.718 5.5-16.109 5.5-16.109V97.722h29.875l.391 14.146c6.66 2.774 6.316 11.791 6.316 11.791z" fill="#d35a7a"/><path d="M128.304 97.722c-.676 24.265-3.725 77.894-17.384 96.6-15.48-1.7-16.69-15.255-16.69-15.255l.326-48.731c-1.969-15.718 5.5-16.109 5.5-16.109V97.722z" fill="#dd6b8e"/><path d="M130.32 111.868c-11 16.4-30.249 2.372-30.249 2.372V97.722h29.875z" opacity=".13" class="Am"/><path d="M124.816 143.701v35.765a52.36 52.36 0 0 1-7.07 1.471c-7.509 1.074-18.915 1.145-23.517-6.975l.273-35.765s12.3 7.58 23.244 7.177c2.45-.041 4.862-.611 7.07-1.673z" class="Ak"/><path d="M124.816 143.701v35.765a52.35 52.35 0 0 1-7.07 1.471V145.35c2.448-.033 4.86-.596 7.07-1.649z" class="Am"/><ellipse cx="114.905" cy="96.56" rx="14.626" ry="7.485" fill="#ebe6e5"/><ellipse cx="114.905" cy="93.706" rx="7.165" ry="3.665" fill="#3a291e"/><g class="Al"><ellipse cx="378.375" cy="405.136" rx="21.222" ry="4.715" class="Aj"/><ellipse cx="344.537" cy="181.192" rx="16.803" ry="6.483" class="Aj"/><ellipse cx="371.186" cy="194.591" rx="16.803" ry="6.483" class="Aj"/><ellipse cx="16.803" cy="6.483" rx="16.803" ry="6.483" transform="matrix(.913474 -.406896 .406896 .913474 385.607 217.644)" class="Aj"/></g><path d="M386.851 403.861c-2.966 1.275-8.3 1.9-13.357 1.085a23.26 23.26 0 0 1-2.728-.593 16.06 16.06 0 0 1-5.931-2.93c-5.931-4.887-7.711-15.89-7.224-26.2s7.224-9.964 7.224-9.964 14.235.486 22.509.243c1.673-.047 3.09-.125 4.116-.243.617-.079 1.245-.025 1.839.16 4.419 1.4 4.982 9.976 4.982 9.976.717 19.907-6.561 26.366-11.43 28.466z" fill="#fdaa61"/><path d="M393.322 365.409c-9.786 18.98-16.7 31.435-22.539 38.932a16.06 16.06 0 0 1-5.931-2.93c-5.931-4.887-7.711-15.89-7.224-26.2s7.224-9.964 7.224-9.964 14.235.486 22.509.243c1.673-.047 3.09-.125 4.116-.243.619-.08 1.249-.024 1.845.162z" class="Aq Ar"/><path d="M367.639 335.593s-1.394 22.9-.848 29.715 20.166 9.259 23.576 2.8c0 0 1.613-27.693-2-32.515z" fill="#e6e7e8"/><path d="M389.608 337.503c0 3.12-5.676 5.646-11.981 5.646s-10.836-2.527-10.836-5.646 4.54-5.071 10.84-5.071 11.977 1.957 11.977 5.071z" class="Ak"/><path d="M353.066 181.169c-2.479 1.441-7.159 2.052-11.269.718-1.937-.587-3.682-1.678-5.059-3.161-4.407-4.893-5.712-15.9-5.338-26.2s5.338-9.964 5.338-9.964 15.249.712 19.792 0h.083c4.466-.558 4.976 10.154 4.976 10.154.516 19.894-4.899 26.353-8.523 28.453z" fill="#3e579b"/><path d="M356.601 142.544a82.71 82.71 0 0 1-14.828 39.342c-1.937-.587-3.682-1.678-5.059-3.161-4.407-4.893-5.712-15.9-5.338-26.2s5.338-9.964 5.338-9.964 15.249.712 19.792 0z" class="Aq Ar"/><path d="M339.863 114.045s-3.612 23.826-3.084 30.635 15.546 8.737 18.861 2.272c0 0 0-28.09-3.494-32.906z" class="Am"/><ellipse cx="346.464" cy="114.027" rx="6.601" ry="3.381" class="Ak"/><path d="M381.058 194.62a14.98 14.98 0 0 1-9.923 1.085 11.86 11.86 0 0 1-6.394-3.529c-4.419-4.893-5.718-15.9-5.368-26.2s5.368-9.964 5.368-9.964 10.569.486 16.726.243a30.1 30.1 0 0 0 3.06-.243c4.537-.712 5.065 10.13 5.065 10.13.497 19.919-4.913 26.384-8.534 28.478z" fill="#a5222c"/><path d="M381.441 156.255c-.28 13.778-3.812 27.295-10.308 39.448a11.86 11.86 0 0 1-6.394-3.529c-4.419-4.893-5.718-15.9-5.368-26.2s5.368-9.964 5.368-9.964 10.545.49 16.702.245z" class="Aq Ar"/><path d="M368.126 128.28s-3.606 23.826-3.084 30.635 15.546 8.737 18.861 2.272c0 0 0-28.084-3.488-32.906z" class="Am"/><ellipse cx="374.448" cy="128.268" rx="6.601" ry="3.381" class="Ak"/><ellipse cx="3.885" cy="7.752" rx="3.885" ry="7.752" transform="matrix(.941647 -.336602 .336602 .941647 368.243 205.761)" class="Au"/><path d="M419.306 203.076c-.281.668-.623 1.31-1.02 1.916-3.559 5.593-12.284 10.676-21.038 14.264-9.751 3.968-11.625-1.056-11.625-1.056s-6-15.107-8.636-19.229c-1.014-1.584-.184-3.3 1.228-4.816 1.779-1.732 3.8-3.197 6-4.348 18.321-8.838 26.69-6.275 30.249-3.63s7.47 10.567 4.842 16.899z" fill="#fda8a6"/><path d="M418.286 204.994c-3.559 5.593-12.284 10.676-21.038 14.264-9.751 3.968-11.625-1.056-11.625-1.056s-6-15.107-8.636-19.229c-1.014-1.584-.184-3.3 1.228-4.816 6.969-.385 19.596 1.145 40.071 10.837z" class="Aq Ar"/><path d="M371.014 204.199l6.56-4.211s10.558-.119 9.336 15.285l-9.087 3.808s4.021-11.086-6.809-14.882z" fill="#f59495"/><path d="M374.502 217.2c1.165 1.694 1.721 3.732 1.578 5.783-.208 3.559 1.56 6.762 5.125 6.916s7.533-.308 4.656-3.072-3.831-1.382-6.293-4c-1.475-1.566-2.476-3.518-2.888-5.629z" class="Au"/><path d="M319.952 191.317s-1.916 16.079 12.236 20.795c8.259 2.799 16.817 4.622 25.5 5.433l-.836-7.663-27.2-16.24z" class="Aj Al"/><path d="M142.728 181.447v18.849s37.034 14.97 39.864-5.077c.391-2.788 0-13.772 0-13.772z" fill="#e7e3e4"/><ellipse cx="162.551" cy="183.232" rx="20.042" ry="11.987" fill="#edefec"/><ellipse cx="19.46" cy="13.559" rx="19.46" ry="13.559" transform="matrix(.558 -.83 .83 .558 121.916 194.018)" fill="#f0f0f0"/><path d="M271.281 294.051l69.1 40.866 34.585-49.781-44.5-29.229-26.765-13.736-26.542 13.968z" class="Aj Al"/><path d="M356.993 339.43l-11.347-2.408-8.9-1.892s6.174-16.673-16.121-49.229a37.24 37.24 0 0 0-16.014-13.256c-11.8-5.065-29.567-7.088-35.172 22.438 0 0-8.63-56.269 37.147-44.875.027-.007 45.596 13.754 50.407 89.222z" class="Ai As"/><path d="M337.871 335.119s5.03-16.673-17.266-49.229a37.24 37.24 0 0 0-16.014-13.256c-11.8-5.065-27.734-8.114-33.339 21.412 3.41-53.493 44.371-20.546 44.371-20.546 21.584 15.356 28.06 45.741 30 63.505z" class="Ax"/><path d="M404.247 306.406l-47.254 33.025a144.31 144.31 0 0 0-6.281-32.509c-3.2-10.237-8.031-21.471-15.279-31.435-10.261-14.134-25.391-25.694-47.651-28.191 0 0 36.679-25.421 53.974-22.064 13.784 2.687 35.587 4.081 50.415 17.835 4.024 3.737 7.324 8.185 9.733 13.12 2.316 4.678 4.032 9.631 5.107 14.739a63.25 63.25 0 0 1-2.764 35.48z" fill="#b6b5b4" class="Ai"/><path d="M406.993 270.919c-16.8 19.021-42.017 30.581-56.281 35.991-7.764-24.775-24.988-55.362-62.93-59.62 0 0 36.679-25.421 53.974-22.064s47.159 4.709 60.13 30.955c2.316 4.678 4.032 9.631 5.107 14.739z" fill="#e6e6e6" class="Ai"/><path d="M392.153 243.065c-16.1 10.842-43.891 25.7-56.72 32.42-10.261-14.134-27.248-22.782-49.5-25.279 0 0 38.553-28.333 55.824-24.976 13.782 2.694 35.562 4.076 50.396 17.835z" fill="#f7f7f7"/><path d="M327.028 257.675l-16.079-10.32 6.833-4 17.426 10.142z" class="Ai Am"/><path d="M340.807 249.591l-17.693-10.558c-1.874-1.121-1.951-3.476-.13-4.081l4.537-1.506c.799-.235 1.66-.123 2.372.308l17.361 10.024c1.779 1.032 2.028 3.232.439 4l-4.211 2.034c-.874.373-1.876.289-2.675-.225z" fill="#e6e6e6" class="Ai"/><path d="M323.221 235.385v2.912s4.395 2.853 7.165-.67l-.5-2.242z" class="As"/><ellipse cx="326.548" cy="235.386" rx="3.333" ry="1.507" class="Ak"/><path d="M331.833 240.557v2.912s4.395 2.847 7.165-.67l-.5-2.242z" class="As"/><ellipse cx="335.166" cy="240.558" rx="3.333" ry="1.507" class="Ak"/><path d="M339.294 244.858v2.912s4.4 2.853 7.171-.67l-.5-2.242z" class="As"/><ellipse cx="342.627" cy="244.858" rx="3.333" ry="1.507" class="Ak"/><path d="M259.756 307.467l44.757 104.65-17.3 19.247-14.129-50.546s-25.913-18-25.125-32.663-4.715-39.33-4.715-39.33l.113-3.992c.107-3.956 5.694-5.931 9.081-3.209z" class="Aj Al"/><path d="M286.726 432.313s3.932-34.585-14.146-53.838-18.244-13.76-17.574-42.835a52.33 52.33 0 0 0-2.266-13.41 40.66 40.66 0 0 0-1.779-4.692c-3.926-8.642-3.559-11.4-3.559-11.4l4.745-2.746 2.865 8.268s11.269-1.963 12.242 14.152c0 0 1.779 3.926 4.152-6.684s8.256-32.224 8.256-32.224 2.681-9.039 7.432-9.828l2.129-6.939s3.654-.682 5.522 1.032c.137.125.262.262.374.409 1.7 2.224 3.4-1.578 3.4-1.578l.273.172 7 4.336.979.593c.56.233 1.109.495 1.643.783 2.684 1.396 5.088 3.276 7.088 5.546a15.9 15.9 0 0 1 2.284 3.511s-.919 21.945 3.013 32.966c0 0-.658-27.467 1.3-27.467s10.225 14.543 10.225 22.4 1.56 16.115 2.746 26.726-3.932 22.794-3.932 22.794-1.572 14.929 2.372 22.794 14.543 50.3 14.543 50.3z" class="Aw"/><g class="Av"><path d="M252.738 322.23a40.66 40.66 0 0 0-1.779-4.692c-3.926-8.642-3.559-11.4-3.559-11.4l4.745-2.746 2.865 8.268c6.328 6.234-2.272 10.57-2.272 10.57zm42.012-51.062l-1.186 8.345c-.522 3.221-3.013 2.408-3.013 2.408-4.454.4-3.44-4.846-3.44-4.846l2.129-6.939s3.63-.693 5.51 1.032zm20.76 10.261c-.362 1.269-1.37 2.681-4.152 2.07-4.745-1.05-2.966-7.6-2.966-7.6a24.53 24.53 0 0 1 7.117 5.534zm-9.715-6.921c-3.037 3.944-6.619.735-6.619.735l-.386-5.071z"/></g><g class="Ao"><path d="M292.883 282.58l-1.186 8.416-.267 4.217v2.1l.095 2.106.042 8.565-.664 8.529-.261-8.535-.3-8.494c-.168-2.875-.016-5.759.451-8.6a43.2 43.2 0 0 1 2.09-8.304z"/><path d="M305.795 279.175l.463 8.025.13 8.019-.13 8.025-.463 8.025-.463-8.025-.131-8.025.136-8.019.458-8.025z"/></g><path d="M282.011 319.608c0 2.023-.729 3.665-1.637 3.665s-1.637-1.636-1.637-3.665.735-1.957 1.637-1.957 1.637-.071 1.637 1.957zm19.044 2.331c0 2.076-1.186 3.084-2.058 3.084s-2.052-1.008-2.052-3.084 1.186-2.414 2.052-2.414 2.058.332 2.058 2.414zm12.081.997c1.418.249 1.851 1.827 1.655 2.924s-1.139 2.438-2.55 2.195-1.394-1.779-1.186-2.853.689-2.516 2.081-2.266zm12.825 7.135c1.186-.036 1.779 1.424 1.839 2.544s-.492 2.616-1.679 2.651-1.424-1.435-1.453-2.55.106-2.603 1.293-2.645z" class="Ap"/><g class="At"><path d="M260.641 328.66a5.62 5.62 0 0 1-1.352.765 8.95 8.95 0 0 1-1.423.439 8.82 8.82 0 0 1-1.483.184 5.58 5.58 0 0 1-1.548-.142c.413-.316.868-.574 1.352-.765a8.83 8.83 0 0 1 1.429-.439c.486-.104.98-.165 1.477-.184.52-.025 1.041.023 1.548.142z"/><path d="M261.109 333.013a5.26 5.26 0 0 1-1.311.759 8.21 8.21 0 0 1-2.817.593c-.507.023-1.015-.028-1.507-.154a5.33 5.33 0 0 1 1.311-.759c.896-.366 1.85-.567 2.817-.593a5.3 5.3 0 0 1 1.507.154z"/></g><path d="M38.606 227.598l199.556 57.058s-12.052 22.011-20.961 19.389-89.081-15.2-106.9-36.18-77.236-10.753-77.236-10.753z" class="Aj Al"/><path d="M236.029 273.304c-7.467 7.07-18.078 6.685-18.078 6.685s15.724 1.186 14.935 8.642-16.9 5.9-16.9 5.9-38.167 2.3-43.837-3.766c-4.858-5.184-34.9-11.394-49.383-22.924a24.35 24.35 0 0 1-5.813-6.323l-3.013-1.091c-6.2-2.224-20.818-7.3-32.3-10.083-2.995-.774-6.034-1.368-9.1-1.779-13.76-1.59-36.945-3.161-36.945-3.161l18.078-43.227 47.086 12.914 20.077 5.5 1.613.445c6.273-1.353 12.759-1.383 19.045-.089a51.42 51.42 0 0 1 16.69 6.388c18.47 11 56.2 20.433 63.274 20.433s3.559 7.865 3.559 7.865 16.121-2.764 12.189 9.033c-.023-.01 6.264 1.562-1.177 8.638z" fill="#febe95"/><path d="M141.465 220.943l-18.719 46.892a24.35 24.35 0 0 1-5.813-6.323l-3.013-1.091c-6.2-2.224-20.818-7.3-32.3-10.083-4.259-22.877 10.818-32 19.116-35.231l20.077 5.5 1.613.445a45.85 45.85 0 0 1 19.039-.109z" class="Ax"/><path d="M236.032 273.303c-7.467 7.07-18.078 6.685-18.078 6.685s15.724 1.186 14.935 8.642-16.9 5.9-16.9 5.9-38.167 2.3-43.837-3.766c-4.858-5.184-34.9-11.394-49.383-22.924-2.297-1.747-4.265-3.888-5.813-6.323a34.28 34.28 0 0 0-2.269-3.567 13.42 13.42 0 0 1-2.681-9.864c1.032-7.319 5.706-9.763 5.706-9.763-1.957-3.915-1.287-7.592.884-12.639a8.66 8.66 0 0 1 1.922-2.782l1-.991c.616-.608 1.398-1.021 2.248-1.186a48.54 48.54 0 0 1 17.7.2c5.905 1.139 11.564 3.305 16.72 6.4 18.47 11 56.2 20.433 63.274 20.433s3.559 7.865 3.559 7.865 16.121-2.764 12.189 9.033c-.021-.001 6.262 1.571-1.176 8.647z" fill="#9bcefd"/><g class="Ai An"><path d="M226.542 255.439a86.54 86.54 0 0 1-9.917.836c-3.321.1-6.643.059-9.964-.172-3.326-.214-6.633-.652-9.9-1.311a40.88 40.88 0 0 1-9.49-3.1c3.144.974 6.358 1.706 9.614 2.189l2.444.35 2.45.273 2.456.231 2.461.19 2.467.16 2.467.113 4.947.154 2.479.042 2.479.03 5.007.015z"/></g><g class="Ai An"><path d="M237.182 264.656a52.6 52.6 0 0 0-6.489.255l-6.406.866-6.311 1.394-1.554.421-1.554.469c-.527.18-1.064.33-1.607.451l-1.637.285c-4.377.636-8.838.38-13.114-.753-4.256-1.147-8.133-3.397-11.24-6.524l1.3.973a12.62 12.62 0 0 0 1.317.937 23.35 23.35 0 0 0 2.841 1.566 27.23 27.23 0 0 0 6.026 2.147c2.082.477 4.205.751 6.34.819 2.131.086 4.266-.027 6.376-.338a19.51 19.51 0 0 0 1.572-.261c.516-.107 1.008-.273 1.524-.415 1.038-.32 2.094-.593 3.155-.86a61.17 61.17 0 0 1 6.441-1.222 50.03 50.03 0 0 1 13.02-.21z"/></g><g class="Ai An"><path d="M217.924 279.988a79.6 79.6 0 0 1-9.953.2 84.6 84.6 0 0 1-9.9-.955l-4.905-.979a46.99 46.99 0 0 1-4.8-1.429 22.38 22.38 0 0 1-8.535-5.095 19.85 19.85 0 0 0 4.235 2.5 38.17 38.17 0 0 0 4.6 1.714c3.15.917 6.357 1.625 9.6 2.118l9.8 1.186 9.858.74z"/></g><path d="M-67.23 393.404l252.6-92.74s49.786-2.206 37.9 18.387c-1.892 3.286-45.842 28.369-89.342 26.335-31.845-1.489-51.981 25.5-85.409 37.728-50.913 18.665-94.371 39.739-94.371 39.739s-19.836 11.761-21.378-29.449z" class="Aj Al"/><path d="M220.973 316.015l-12.93 2.094c-3.636 2.082-7.588 3.557-11.7 4.365-7.331 1.572-20.089 14.146-38.956 14.324s-25.848-2.444-36.851.872-41.05 19.389-41.05 19.389L10.316 387.8s-65.836 28.82-68.992 28.642 1.3-82.094 38.731-96.329l92.39-18.333s25.386-5.647 53.606-23.28l25.919-15.421 19.217-9.786 7.159-5.415 4.193 4.015-3.493 3.149s1.4 4.893-4.015 7.337l16.512-9.6 10.368-.7s6.287-3.843 7.337-5.931l4.887 4.537-.878 1.507-.866 1.465c.633.632 1.006 1.478 1.044 2.372a1.57 1.57 0 0 1-.166.593c-.706 1.394 2.266-1.572 2.266-1.572l2.444 3.321-1.4 2.444c.062.019.118.051.166.095.362.3 1.014 1.542-1.186 6.524-2.793 6.297-13.969 16.777-13.969 16.777l-15.718 15.2s-12.58 12.58-1.222 9.609 21.311-5.071 21.311-5.071 7.853-1.394 12.046 3.671c-.006.008 4.188.88 2.966 8.395z" class="Aw"/><g class="Av"><path d="M205.427 308.447a15.72 15.72 0 0 0 0 9.306l15.546-1.744a7.21 7.21 0 0 0-2.966-8.387zm-22.882-56.544l-3.493 3.149c-8.559 3.321-7.859-1.75-7.859-1.75l7.159-5.415zm31.612-1.221l-.878 1.507-5.931 5.48c-4.039.718-5.338-3.013-5.735-5.457l.89-.13s6.293-3.843 7.337-5.931zm2.444 10.137a.43.43 0 0 1 .166.095l-3.737 3.221c-6.014 1.922-4.988-3.837-4.988-3.837l4.027-2.533 1.388-1.779a1.57 1.57 0 0 1-.166.593c-.706 1.394 2.266-1.572 2.266-1.572l3.149 4.27z"/><path d="M191.548 252.035s1.287 4.229 3.731 4.152 8.132-4.905 8.132-4.905l-5.463-3.987z"/></g><g class="Ao"><path d="M195.961 259.466l-6.222 4.3-6.394 4.021-6.524 3.8-6.7 3.511 6.222-4.3 6.394-4.021 6.524-3.8 6.7-3.511z"/><path d="M207.177 261.916c-2.132 2.499-4.517 4.771-7.117 6.779-1.305 1.012-2.661 1.956-4.063 2.829a39.2 39.2 0 0 1-4.4 2.3c-1.481.626-2.917 1.351-4.3 2.171a41.94 41.94 0 0 0-4.021 2.681 60.43 60.43 0 0 0-7.319 6.424 38.93 38.93 0 0 1 6.75-7.153 33.64 33.64 0 0 1 8.422-5.208 49.16 49.16 0 0 0 8.381-4.781 84.65 84.65 0 0 0 7.667-6.042z"/></g><ellipse cx="2.088" cy="1.05" rx="2.088" ry="1.05" transform="matrix(.763345 -.645991 .645991 .763345 135.839 274.399)" class="Ap"/><ellipse cx="2.544" cy="1.251" rx="2.544" ry="1.251" transform="matrix(.763345 -.645991 .645991 .763345 147.632 275.986)" class="Ap"/><ellipse cx="3.007" cy="1.773" rx="3.007" ry="1.773" transform="matrix(.763345 -.645991 .645991 .763345 160.206 280.705)" class="Ap"/><ellipse cx="2.574" cy="1.507" rx="2.574" ry="1.507" transform="matrix(.763345 -.645991 .645991 .763345 172.109 291.619)" class="Ap"/><g class="Ao"><path d="M175.035 262.39l-4.508 2.028-2.165 1.109a21.12 21.12 0 0 0-2.058 1.251l-2 1.418-2.046 1.394-4.253 2.58c1.186-1.186 2.426-2.272 3.7-3.321l3.932-3.055c1.412-.929 2.934-1.678 4.531-2.23a22.54 22.54 0 0 1 4.867-1.174z"/></g><g class="At"><path d="M194.246 311.821a5.5 5.5 0 0 1 .469 1.483c.083.49.124.986.125 1.483s-.039.997-.125 1.489a5.5 5.5 0 0 1-.469 1.483c-.224-.47-.38-.969-.463-1.483-.173-.981-.173-1.985 0-2.966a5.7 5.7 0 0 1 .463-1.489z"/><path d="M198.962 310.599c.225.455.383.94.469 1.441.083.476.125.958.125 1.441a7.4 7.4 0 0 1-.125 1.441c-.086.501-.244.986-.469 1.441-.221-.456-.377-.941-.463-1.441-.087-.475-.131-.958-.13-1.441s.046-.965.131-1.441a5.43 5.43 0 0 1 .462-1.441z"/></g></g></svg>