<svg version="1.1" id="Layer_1" xmlns="http://www.w3.org/2000/svg" x="0" y="0" viewBox="0 0 1000 901" style="enable-background:new 0 0 1000 901" xml:space="preserve"><style>.st2{fill:#939598}.st3{fill:#fff}.st4{opacity:.13;fill:#231f20}.st5{fill:#f9bf98}.st6{fill:#f1f2f2}.st8{fill:#ff4d53}.st9{fill:#ea9807}.st10{fill:#d1d3d4}.st16{opacity:.42;fill:#ff4d53}</style><path d="M119.2 373.5c-18.2-1-34.9-10.6-44.7-26-36.3-56.6-87-192 169.2-284.1C575-55.8 875.5 82 908.5 281.2s16.2 422.2-238 529.1c0 0-426 138.3-585.5 3.6-9.8-8.3-16.4-19.8-18.6-32.4-5.6-32.4-4.7-100.2 72.4-172.7 34.2-32.1 56.1-75.3 60.4-121.9 4.9-52.5-7.1-109.2-80-113.4z" style="fill:#e4d4fc"/><path d="M132 376.1c-17.6-1-33.6-10.5-43.1-25.3C54.1 296 5.8 165.8 252.3 77.2c319.4-114.9 609.1 18 640.9 210 31.8 192 15.7 407-229.4 510.1 0 0-413.6 134.3-566.1 2-8.2-7.1-13.8-16.8-15.9-27.5-5.8-30.2-6.9-97.1 69.4-168.8 32.9-30.9 54-72.5 58.2-117.5 4.7-50.8-6.9-105.5-77.4-109.4z" style="fill:#cfb5f6"/><path class="st2" d="M645.3 689.2c-57.7 58.7-115.6 97.7-115.6 97.7l-3 2.8-57.6 52.3s-24.9 17.1-47 0c-16-12.3-162.3-150.7-242.3-226.6-49.3-46.7-72.7-115-61-181.9 12.6-71.8 64.9-139 229.4-102.2l96.7 38s149.6-172.8 283.7 10.1c78.2 106.8-2.5 227.6-83.3 309.8z"/><path class="st3" d="M643.6 688.2C586.4 746.5 529 785.1 529 785.1l-3 2.7-57.2 51.9s-24.6 16.9-46.6 0c-15.9-12.2-161-149.5-240.3-224.7-48.9-46.3-72.1-114-60.5-180.3C134 363.4 185.8 296.8 349 333.3l95.9 37.7s148.4-171.4 281.3 10c77.6 105.9-2.4 225.7-82.6 307.2z"/><ellipse class="st4" cx="188.3" cy="850" rx="120" ry="15.5"/><path class="st5" d="M108.4 797.2v22.2h18.2c.2 0 0-25.3 0-25.3l-18.2 3.1zM213.9 802.1l3.9 26.1 24.2-2.1s-4.8-28.9-6.8-28.9-21.3 4.9-21.3 4.9z"/><path class="st6" d="M103.6 810.8s12.7-8.7 25.2 0l1.9 37.8s-6.8 14.5-32.9 4.8c0 0-4.8-2.9-3.9-10.6s9.7-32 9.7-32zM208.1 824.3s3.2-9.7 16.1-4.9c0 0 9 6.9 17.8-1.4l31.9 18.8s16.9 11.1 4.8 17.4c-1.7.9-64.9 0-64.9 0l-5.8-4.7v-25.2z"/><path d="M270 846.1h-52.2c-.8 0-1.5-.7-1.5-1.5s.6-1.5 1.5-1.5H270c.8 0 1.5.7 1.5 1.5s-.7 1.5-1.5 1.5zM123 846.1H99.9c-.8 0-1.5-.7-1.5-1.5s.6-1.5 1.5-1.5H123c.8 0 1.5.7 1.5 1.5s-.7 1.5-1.5 1.5zM119 837.7h-14.2c-.8 0-1.5-.7-1.5-1.5s.6-1.5 1.5-1.5H119c.8 0 1.5.7 1.5 1.5s-.7 1.5-1.5 1.5zM259.7 837.7c-.2 0-.5-.1-.7-.2l-14.9-8c-.7-.4-1-1.3-.6-2s1.3-1 2-.6l14.9 8c.7.4 1 1.3.6 2-.2.5-.7.8-1.3.8zM117.2 541.1s-16.5 63.5-15.6 108c1 44.5 1.9 153 1.9 153h27.9l32.1-194.6 3.4-13.6 43.1 214 31.9-1.9-19.4-297.2-105.3 32.3z"/><path class="st5" d="m288.5 404.2 1.5-26.9s-11.2-11.8-4.4-19.6c4.5-5.1 11.3-7.6 18.1-6.5 5.2.9 10.6 2.3 12.9 4.6 4.8 4.8 4.9 11.8.5 15.6-4.4 3.8-6.8 5.7-6.8 5.7v32.2l-21.8-5.1zM146.2 345.1s-3.9 39 0 40.8c3.9 1.8 27.7 20.2 31.3 6.7s0-18.6 0-18.6l-2.9-28.8h-28.4z"/><ellipse transform="rotate(-19.456 173.932 334.531)" class="st5" cx="173.9" cy="334.6" rx="21.1" ry="29.8"/><path d="M153 324.5c-.1.3 11.1-11.9 24.4-10.2s15.2-14.7 5.5-18.6c-9.7-3.9-26-9.7-20.7 0 5.2 9.7-22.9-7.5-25.3 11.7 0 0-17.4.3-9.9 17 7.5 16.8 18.7 29.8 18.7 29.8l16.4-6.1-9.1-23.6z" style="fill:#010101"/><path class="st8" d="M148.1 376.1s-30-4.8-44.5 13.6-34.9 46.5-36.8 71.6c-1.9 25.2 0 29.9 0 29.9l36.8-4.7v58.1s23.8 9.9 53.5-8.1 62.7-13.2 70.4-7.4c7.7 5.8-6.8 9.7-6.8 9.7s16.5 5.8 13.6-18.4c-2.9-24.2-14.5-68.7-14.5-68.7s4.6-9.1 14.9 2.2 46.1 31.6 58.7 19.1c12.6-12.6 21.1-51.5 14.9-78h-22l-5.8 21.9s1.3 23.2-12.3 9.7c-13.6-13.6-34.9-37.8-34.9-37.8s-21.4-20.2-38.8-17.4l-17.4 2.8s-10.6 24.2-29 1.9z"/><path class="st5" d="M78.9 471.3c-9 6.6-13.4 17.9-10.8 28.7 1.5 6 4.9 11.4 12.2 13.6 0 0 14.5 4.8 28.1-22.3l27.1-46.5s18.4 1.9 16.5-14.5h11.9s7.1-4.1 0-6.4h-25.3s-7.5 2.6-11.1 8.8c-2.6 4.6-32.5 26.8-48.6 38.6z"/><path class="st9" d="M408.5 379c-22.2-4.9-67.3-26-80.3-32.2-2.3-1.1-3.6-1.7-3.6-1.7-17.5 3.6-33.9 5-48 5.1-5.3.1-10.3-.1-14.9-.3-19.4-.9-32.6-3.9-35.8-4.7-.5-.1-.7-.2-.7-.2-28.5-15.5-10.2-39.7-10.2-39.7 1.6-1.8 3.6-3.7 5.9-5.5 5.6-4.4 13.1-8.7 21.4-12.8 5.4-2.7 11.2-5.2 16.9-7.6 19-7.9 38.2-14.1 46.1-16.6 2.4-.7 3.7-1.1 3.7-1.1l68.7-69.7 30.8 187z"/><path class="st10" d="M261.6 350c-7.6-12.5-19.1-35.8-19.5-62.8-8.3 4.1-15.8 8.4-21.4 12.8-.6 11.3-.2 28 5.1 45.4l35.8 4.6z"/><ellipse transform="rotate(-11.146 394.9 285.478)" class="st10" cx="394.9" cy="285.5" rx="41.9" ry="94.9"/><path d="M409.4 359.2c-13.9 2.7-29.7-14.7-39.8-41.7-2.9-7.8-5.4-16.4-7.2-25.6-1.5-7.8-2.5-15.4-2.9-22.7-1.7-30.6 6.4-54.6 20.9-57.4 17.9-3.5 39 26.6 47 67.3 8 40.7 0 76.5-18 80.1z" style="fill:#231f20"/><path class="st2" d="m388.4 311.4-18.8 6c-2.9-7.8-5.4-16.4-7.2-25.6-1.5-7.8-2.5-15.4-2.9-22.7h20.6l8.3 42.3z"/><ellipse transform="rotate(-11.146 384.252 290.318)" class="st9" cx="384.3" cy="290.3" rx="9.5" ry="21.5"/><path class="st10" d="M328.2 346.9c-2.3-1.1-3.6-1.7-3.6-1.7-17.5 3.6-33.9 5-48 5.1l-17.5-70.7c19-7.9 38.2-14.1 46.1-16.6l23 83.9z"/><path class="st9" d="m290 349.8 11.5 53.9s13.2 16.5 17.7 0l-10.4-55.8-18.8 1.9z"/><ellipse transform="rotate(-30 156.088 333.333)" class="st5" cx="156.1" cy="333.3" rx="6.4" ry="9.4"/><path class="st5" d="M310.2 354.3s-14.9-7.1-8.4 11 11.9 8.9 11.9 8.9 16.9-15-3.5-19.9z"/><g><path class="st5" d="M655.4 408.1s-6.3-28.4-13.9-36.2-9.4-11.8-15.4-12.4c-6-.6-9.8-7.8-9.8-7.8s-7.3-3.5-3.3 4.1 9.7 11.4 6.1 13.1c-3.6 1.7-17.8-10.8-17.8-10.8s-14.8-5.5-10.5 2.1c4.4 7.5 16.7 21.4 31.7 21.7 0 0 9.4-3.3 11.7 1 2.3 4.3 7.7 36.8 7.7 36.8l13.5-11.6zM775.4 824.3v24H797l2.6-24zM882.9 809.8l5.8 30 14.8-9.6v-22.7z"/><path d="M770.3 839.8s13.7-10.6 24.4 0l4.9 3.2v32.4c0 5.2-3.5 9.8-8.5 11.1-7.7 2-19.2 3.3-28.8-3.1 0 0-1.4-5.8-2.4-11.6-.9-5.8 10.4-32 10.4-32zM882.9 833.3v17.9c0 3.7.9 7.3 2.7 10.5l9.5 17.5c1.5 2.8 4.3 4.7 7.5 5.2 8.6 1.3 24.6 2 21-11.6-3.7-13.9-11-33.4-14.3-42.1-1.1-2.7-3.6-4.6-6.5-4.8l-10.9-.8c-4.9-.5-9 3.3-9 8.2z"/><path class="st3" d="M791.2 881.5h-20.1c-.8 0-1.5-.7-1.5-1.5s.7-1.5 1.5-1.5h20.1c.8 0 1.5.7 1.5 1.5-.1.8-.7 1.5-1.5 1.5zM791.2 864.9h-15.8c-.8 0-1.5-.7-1.5-1.5s.7-1.5 1.5-1.5h15.8c.8 0 1.5.7 1.5 1.5-.1.8-.7 1.5-1.5 1.5zM919.9 875.7h-19.1c-.8 0-1.5-.7-1.5-1.5s.7-1.5 1.5-1.5h19.1c.8 0 1.5.7 1.5 1.5s-.7 1.5-1.5 1.5zM912.4 865l-9-.1c-.8 0-1.4-.7-1.4-1.5s.7-1.4 1.5-1.4l8.9.1c.8 0 1.4.7 1.4 1.5s-.6 1.4-1.4 1.4z"/><path d="m751.2 507.8 5.8 160.8 13.6 158.7 34.9 2.9s8.7-106.1 3.9-125.7 4.8-99.9 4.8-99.9 19.4 54.2 28.1 82.3 16.5 48.4 23.2 70.7c6.8 22.3 14.5 59.1 14.5 59.1l27.1-2.9s2.7-77.3-5.9-97.2c-8.6-19.9-14.4-45.1-14.4-45.1l-3.9-40.7-10.6-78.4S860.7 505 852.9 503l-101.7 4.8z"/><ellipse class="st5" cx="759.9" cy="347.1" rx="17.9" ry="24.7"/><path d="M744.5 334.6s-20.3-11.1 0-22.5c11-6.2 23.9-4.1 33.5-.8 11.2 3.8 20 12.9 22.9 24.4 1.2 4.8 1.3 9.9-1 14.5-7 13.5 19.1 34.8 46.2 33.9 27.1-1 43.6-10.6 50.3 3.9 6.8 14.5 5.8 31 0 45s-21.3 25.7-43.6 19.8c-22.3-5.8-35.7-5.1-48.4-28.7-12.6-23.6-16.5-28.4-18.4-34.2-1.9-5.8-8.2-17.9-8.2-17.9l-2.4-12.3 2.4-15.2s-7.3-1.1-10.2-7.8c-2.8-7.1-23.1-2.1-23.1-2.1z"/><path class="st5" d="M757 367.4s7.7 11.3 2.9 27.9c0 0 23.2 12.7 33.9-6.6 0 0-14.9-10-18.1-32.1L757 367.4z"/><path class="st3" d="m759.9 385-12.5 2.4-2 .4-1 125.9s33.9-1.9 63.9 2.9 50.3-9.7 50.3-9.7L815.9 385h-26.4s-12.1 25.3-29.6 0z"/><path d="M809.3 384.8s28.1-8.7 38.7 7.7 41.9 105.1 43.6 119.1c2.4 20.8-50.8 19.8-50.8 19.8s-8.7-50.3-14.5-71.6-17-75-17-75z" style="fill:#feac02"/><path d="M748.8 387.1s-15.8 4.7-23.2 12.4c-7.3 7.7-37.3 43.5-37.3 43.5l-29-39.7-24.3 14.4s28.1 53.2 35.8 58.1 20.3 5.8 27.1 2.9c6.8-2.9 7.7-1 13.6-4.8l2.9 71.6s42.6-1.6 42.6-3.7-8.2-154.7-8.2-154.7z" style="fill:#feac01"/><path class="st6" d="m777.8 530.9-68.5 9.3h-.2c-4.3-.5-65.3-8.2-65.3-7.2-.1-1.2-2.9-98.7-2.9-98.7l68.3-1.4 66.3-1.4 2.3 99.4z"/><path class="st10" d="m775.4 431.4 2.4 99.5-68.5 9.3h-.2v-96.7l66.3-12.1z"/><ellipse transform="rotate(-71.071 777.833 350.471)" class="st5" cx="777.8" cy="350.5" rx="6.5" ry="4.7"/><path style="fill:#bcbec0" d="m640.9 434.2 65.8 9.7 71.1-12.9-68.2-7.5z"/><g><ellipse class="st3" cx="745.9" cy="486" rx="23.2" ry="25.2"/><path class="st8" d="m754.5 506.6-13.3 1.1-3-42.4 13.3-1.1z"/><path class="st8" d="m726.2 480.3 1 14.5 39.2-3.2-1-14.5z"/></g><path class="st5" d="M789.5 484.1s1.4-12.3-5.1-13.9c-4-1-5-4.1-5.2-6.4-.2-2.1-2-3.8-4.1-3.6-1.3.1-2.2.8-1.6 3.1 1.5 5.3 3.9 9.5-5.5 8.9-9.5-.6-17-5.7-17-5.7s-10.8.3-5 11.9c5.8 11.6 30 11.5 30 11.5l9.7 3.1 3.8-8.9z"/><path class="st9" d="m789.9 475.8-8.7 17.4s30.4 18.3 48.1 16.9c17.7-1.4 45-8.9 40.5-56.4-4.4-47.6-31.6-68.7-31.6-68.7s-25.8-11.5-16.2 17.4c9.6 28.9 26.2 57.4 17.9 69.3-8.3 11.9-50 4.1-50 4.1z"/><ellipse class="st4" cx="838.8" cy="866" rx="116.2" ry="25.7"/></g><path d="M643.6 688.2C586.4 746.5 529 785.1 529 785.1l-3 2.7c-19.2 2.3-42.5.3-65.1-13.4-52.9-31.9-132.7-107.9-132.7-107.9s-49.8-18.9-26.4-37.5 72.2 21.3 72.2 21.3 50 23 34.5-2.7C393 622 365 508.7 365 508.7s-13.9-24.9 9-32.3c22.9-7.4 34.5 26.5 34.5 26.5l22 69.6s15.2 32.5 19.7 0l-40.5-135c-.9-2.8-1-5.9-.4-8.8 1.7-8.8 7.3-25.8 23.4-17.8 21.4 10.6 30.9 65.4 30.9 65.4l26.3 84.6s10.6 20.7 19.8-1.3l-30.3-108.9c-1-3.4-1.1-7.1-.4-10.6 1.8-8.8 7.3-23 23.5-13.6 4.1 2.4 7.1 6.2 8.5 10.7l33.7 108.1s5.1 35 24.9 20.9l-22.3-80.6s-6.3-33.7 22.3-25.7c0 0 5.6-.8 13.7 25.9s39.3 112.8 39.3 112.8 17.6 44.7 21 89.6z" style="fill:#466fb2"/><g><path class="st6" d="M130.7 215.9c-7.2 0-13.1-5.9-13.1-13.1s5.9-13.1 13.1-13.1 13.1 5.9 13.1 13.1-5.9 13.1-13.1 13.1zm0-22.3c-5.1 0-9.2 4.1-9.2 9.2s4.1 9.2 9.2 9.2 9.2-4.1 9.2-9.2-4.2-9.2-9.2-9.2z"/></g><g><path class="st6" d="M775.4 159.7c-7.2 0-13.1-5.9-13.1-13.1s5.9-13.1 13.1-13.1c7.2 0 13.1 5.9 13.1 13.1s-5.9 13.1-13.1 13.1zm0-22.2c-5.1 0-9.2 4.1-9.2 9.2s4.1 9.2 9.2 9.2 9.2-4.1 9.2-9.2-4.1-9.2-9.2-9.2z"/></g><g><path class="st6" d="m259.9 106.4-1.7-3.5c.5-.2 47-22.6 88.4-31.3l.8 3.8c-40.9 8.6-87 30.8-87.5 31z"/></g><g><path class="st6" d="m374.4 62.2-.8-3.8c1-.2 104.9-20.5 166.5-6.1l-.9 3.8c-60.8-14.3-163.8 5.9-164.8 6.1z"/></g><g><path class="st6" d="M743.1 123.8c-44-44.1-156.6-61.4-157.7-61.6l.6-3.8c4.7.7 114.9 17.7 159.9 62.7l-2.8 2.7z"/></g><g><path class="st6" d="M642.8 97.5C589.9 71.2 510 71.4 452.3 76.3c-62.7 5.2-113.4 16.9-114 17l-.9-3.8c.5-.1 51.5-11.8 114.5-17.1 58.2-4.9 138.9-5.1 192.6 21.7l-1.7 3.4z"/></g><g><path class="st6" d="M83 234.3h8v3.9h-8z"/></g><g><path class="st6" d="M94.4 219.8h3.9v14.7h-3.9z"/></g><g><path class="st6" d="M94.4 242.3h3.9v9.8h-3.9z"/></g><g><path class="st6" d="M101.6 234.3h9v3.9h-9z"/></g><g><path transform="rotate(-79.729 825.77 256.74)" class="st6" d="M823.9 252.7h3.9v8h-3.9z"/></g><g><path transform="rotate(-79.735 836.502 249.459)" class="st6" d="M829.2 247.5h14.7v3.9h-14.7z"/></g><g><path transform="rotate(-79.735 832.925 269.197)" class="st6" d="M828.1 267.3h9.8v3.9h-9.8z"/></g><g><path transform="rotate(-79.729 844.513 260.125)" class="st6" d="M842.6 255.6h3.9v9h-3.9z"/></g><g><path class="st16" d="M557.4 227.2 458 246.8c-5.1 1-10-2.3-11-7.4l-.1-.6c-1-5.1 2.3-10 7.4-11l99.4-19.6c5.1-1 10 2.3 11 7.4l.1.6c1 5.1-2.3 10-7.4 11zM673.2 203.3l-93.3 18.4c-5.1 1-10-2.3-11-7.4l-.1-.6c-1-5.1 2.3-10 7.4-11l93.3-18.4c5.1-1 10 2.3 11 7.4l.1.6c1 5-2.3 10-7.4 11zM637.9 250.2l-169.3 33.3c-5.1 1-10-2.3-11-7.4l-.1-.6c-1-5.1 2.3-10 7.4-11l169.3-33.3c5.1-1 10 2.3 11 7.4l.1.6c.9 5.1-2.4 10-7.4 11z"/></g></svg>