<svg version="1.1" id="Layer_1" xmlns="http://www.w3.org/2000/svg" x="0" y="0" viewBox="0 0 901.6 734.7" style="enable-background:new 0 0 901.6 734.7" xml:space="preserve"><style>.st0{fill:#e1d5f9}.st2{fill:#fcad02}.st3{fill:#00a79d}.st4{fill:#2bb673}.st5{fill:#231f20}.st10{fill:#f8cdcc}.st12{fill:#fdfcff}.st13{fill:#dcecfb}.st14{fill:#fff}.st15,.st20,.st24{opacity:.48;fill:#e5f0f9;enable-background:new}.st20,.st24{opacity:.42;fill:#dcecfb}.st24{opacity:.21;fill:#fff}</style><path class="st0" d="M846.8 409.1c0 91.8-31.4 176.4-83.9 243.4-2.6 3.3-5.2 6.6-7.9 9.8H149.1c-2.7-3.2-5.3-6.5-7.9-9.8-52.6-67.1-84-151.6-84-243.4C57.2 191 233.9 14.3 452 14.3S846.8 191 846.8 409.1z"/><path d="M812.6 435.8c0 83.8-28.6 160.8-76.6 222-2.4 3-4.8 6-7.2 8.9H176.3c-2.5-2.9-4.9-5.9-7.2-8.9-48-61.2-76.6-138.2-76.6-222 0-198.8 161.2-360 360-360s360.1 161.2 360.1 360z" style="fill:#d1b5f3"/><path class="st2" d="M730.5 665.7c6.2-3.6 16.3-11.9 22.2-16 5.9-4 11.6-8.3 17.2-12.7 5.6-4.4 11-9 16.3-13.8s10.4-9.7 15.3-14.9c4.9-5.2 9.6-10.5 14-16 4.5-5.5 8.7-11.3 12.6-17.2 2-2.9 3.8-6 5.7-9l2.7-4.6 1.3-2.3 1.2-2.4c3.5-6.2 6.3-12.8 9.2-19.4-2.1 6.8-4.5 13.7-7.6 20.2l-1.1 2.5-1.2 2.4-2.4 4.8-2.6 4.7c-.9 1.6-1.8 3.1-2.8 4.7-3.7 6.2-7.9 12.1-12.3 17.8-4.4 5.7-9.2 11.1-14.1 16.4-10 10.5-20.9 20-32.5 28.5-5.8 4.3-11.8 8.2-18 11.9-6.2 3.6-16.6 11.5-23.1 14.4z"/><path class="st2" d="M773.5 632s-30.3-32-9-37.1c20.9-4.9 9 37.1 9 37.1zM804.8 602s-30.3-32-9-37.1c20.8-5 9 37.1 9 37.1zM832.2 566.6s-29.6-22-12.9-29.2c16.5-7.3 12.9 29.2 12.9 29.2zM762.2 642.2s39.1 30.8 42.7 6.4c3.4-24.1-42.7-6.4-42.7-6.4zM802.7 611.7s33.3 20.9 34 1.5c.8-19.2-34-1.5-34-1.5zM823.2 586.1s33.1 10.4 29.4-6.4c-3.7-16.5-29.4 6.4-29.4 6.4zM843.8 544.4s29.1-18.9 13.8-26.7c-15.1-7.7-13.8 26.7-13.8 26.7z"/><path class="st3" d="M568.3 662.3s-38.5-77 40.2-99.1c0 0 29.6 7.3 48.5-48.4s82.7-46.2 82.7-46.2-36.2 50.5-12.5 89-70.2 82.2-70.2 82.2l-36.5 22.6-52.2-.1z"/><path class="st4" d="M608.5 662.3s11.6-37.7 80.5-76.4c0 0 22.7-3.5 41.9-55.1 0 0 19-32.4 75.4-41.1 0 0-14.5 31.5-5.2 58.5S769.4 601 769.4 601s-14 11.4-11.8 31.7c2.2 20.2-39.7 29.7-39.7 29.7l-109.4-.1z"/><path class="st3" d="M278.8 661.7s38.5-77-40.2-99.1c0 0-29.6 7.3-48.5-48.4S107.4 468 107.4 468s36.2 50.5 12.5 89 70.2 82.2 70.2 82.2l36.5 22.6 52.2-.1z"/><path class="st4" d="M238.6 661.7S227 624 158.1 585.3c0 0-22.7-3.5-41.9-55.1 0 0-19-32.4-75.4-41.1 0 0 14.5 31.5 5.2 58.5s31.7 52.8 31.7 52.8 14 11.4 11.8 31.7c-2.2 20.2 39.7 29.7 39.7 29.7l109.4-.1z"/><path class="st0" d="M0 666.7h901.6v57.6H0z"/><path class="st5" d="M0 657.8h901.6v8.9H0z"/><path style="fill:#939598" d="m285 704 99.7-17-119.1-33.2z"/><path style="fill:#a7a9ac" d="M286 707.4h-.4L140.2 683l.6-3.8 145.1 24.4 98.5-17.4.6 3.7z"/><path style="fill:#414042" d="M140.5 681.1 93.4 532.4l138.5 6.7 54 166.4z"/><ellipse transform="rotate(-34.014 183.087 612.88)" cx="183.1" cy="612.9" rx="13.5" ry="17.5" style="fill:#808285"/><g><ellipse class="st10" cx="456" cy="289.2" rx="52.4" ry="74.4"/><path d="M403.7 302s-22.7-27.9-14.8-70.7c0 0 14.8-46.2 75-27.9s71.5 63.7 71.5 63.7 12.9 30.3-18.3 56.7c0 0-4.4 3.5 3.5 10.5s-6.1 29.7-17.5 25.3l-3.3-29.9 6.4-17.1 11.7-17.1s-10.9-15.5-13.1 0c0 0-6.1-18.8-25.3-23.1-19.2-4.4-43.6-34-43.6-34s-32.3 24.2-32.3 37.5c.1 13.3.1 26.1.1 26.1z" style="fill:#1c1c1c"/><path class="st10" d="m442.1 351.8-3.5 30.5-6.1 14 17.5 28.8 67.2-41.9s-8.7-12.2-14-23.6l-5.2-39.3-55.9 31.5z"/><path class="st12" d="M407.8 391.4s-45.8 8.5-58.9 40.7 4.7 154.7 4.7 154.7l-6.6 69.4 215.6 1.6-9.7-69 29.1.4s22.9-74.1 23.3-93.5c0 0 6.6-54.8-24.8-67.2l-48.1-34.4L452 417l-19.3-38-24.9 12.4z"/><ellipse class="st13" cx="421.5" cy="456.3" rx="7.9" ry="10"/><ellipse class="st14" cx="419.6" cy="456.3" rx="7.9" ry="10"/><path class="st15" d="m414.5 564.4 18-133.3-5 148.8z"/><ellipse class="st13" cx="414.5" cy="510.5" rx="7.9" ry="10"/><ellipse class="st14" cx="412.6" cy="510.5" rx="7.9" ry="10"/><path class="st10" d="M360.1 582.2s-20.2 52.7-39.2 30.6c-19-22.1-25.2-67.5-25.2-67.5L278.2 476s-15.5-30.6 0-37.6 33.3 7.9 33.3 7.9 5 6.4-3.9 6.4l-7-1.6s9.7 11.6 5.4 19c-4.3 7.4-2.3 13.6-2.3 13.6l30.6 82.6 17.1-17.1 8.7 33z"/><path class="st5" d="M302.3 472.9c-1.2 0-2.4-.7-2.9-1.9l-30.9-71.7c-.7-1.6 0-3.5 1.7-4.2 1.6-.7 3.5 0 4.2 1.7l30.9 71.7c.7 1.6 0 3.5-1.7 4.2-.5.1-.9.2-1.3.2z"/><path d="m344 586.5 137.1 6.9-110.6-125.2-104.3 1.6s51 85.3 59.8 97.3c8.9 12 18 19.4 18 19.4z" style="fill:#ba8c2e"/><path d="M370.5 468.2s-8.1-26.4-20.9-14.7l-1.6 15.1 22.5-.4z" style="fill:#e5f0f9"/><path style="fill:none;stroke:#c18f36;stroke-width:4;stroke-miterlimit:10" d="M370.5 468.2 481 591.1"/><path class="st15" d="M503.9 615.6s-11.4-103.2 31.5-134.8c0 0-20.8 135.1-16.4 149.5 4.3 14.3-15.1-14.7-15.1-14.7z"/><path class="st10" d="M568.3 585.3s-8.9 48.2-26 72.4-45.8 10.2-45.8 10.2-147.7-97.3-154.3-110.5c0 0-33.3-36.8-4.3-33l34.9 16.3s-7-17.8-5-22.3c1.9-4.5 4.7-5.2 7.4 0s5.8 18.4 5.8 18.4 16.7 12.4 21.7 21.3 7 15.5 7 15.5 82.6 34.9 94.2 41.9l15.9-35.3 48.5 5.1z"/><path d="M220.8 453.5s-20.2 34.5-5.4 59.7c14.7 25.2 26 38.8 26 38.8l150.8 7s-45.5-65.1-44.2-84.2c0 0-5.4-21.8 7.4-24.3l-134.6 3z" style="fill:#f9f9fb"/><path class="st14" d="M340.7 507.9H235.6c-1.8 0-3.2-1.4-3.2-3.2 0-1.8 1.4-3.2 3.2-3.2h105.1c1.8 0 3.2 1.4 3.2 3.2-.1 1.8-1.5 3.2-3.2 3.2zM336.8 479.9H231.3c-1.8 0-3.2-1.4-3.2-3.2s1.4-3.2 3.2-3.2h105.5c1.8 0 3.2 1.4 3.2 3.2s-1.5 3.2-3.2 3.2zM356.6 533.9H246.8c-1.8 0-3.2-1.4-3.2-3.2s1.4-3.2 3.2-3.2h109.7c1.8 0 3.2 1.4 3.2 3.2s-1.4 3.2-3.1 3.2z"/><path class="st12" d="m509 585.3 72.9 3.9s25.2-81.8 23.3-93.5c0 0 4.7-56.8-24.8-67.2 0 0-55.1 50.5-61.7 89.9l-9.7 66.9z"/><path class="st20" d="M438.6 378.4 396.3 394l10.1 23.3s13.6 22.3 30.6 10.4l12.4-8s-14.1-28.1-13.2-36.3l2.4-5zM510.3 372.7l1.7 10.4-60.6 35.3s7.8 27.9 26.8 29.1 63.2-41.5 63.2-41.5L517 379.7l-6.7-7z"/><path class="st14" d="m441.1 375.9-42.3 15.5 10.1 23.3s13.6 22.3 30.6 10.4l12.4-8s-14.1-28.1-13.2-36.3l2.4-4.9zM403.7 210.6s17.3-36.4 46-39.9 49.2 7.4 49.2 7.4 35.3 19 47.7 41.1c0 0 10.9 32.2-22.1 57.8 0 0-7.4-44.6-43.4-64s-77.4-2.4-77.4-2.4zM510.3 372.7l4.2 6.6-60.6 35.3s7.8 27.9 26.8 29.1 63.2-41.5 63.2-41.5l-24.4-26.3-9.2-3.2z"/><ellipse transform="rotate(-78.825 509.652 295.487)" class="st10" cx="509.6" cy="295.5" rx="17.5" ry="12.3"/></g><g><circle cx="119.4" cy="295.5" r="78.5" style="fill:#fa504c"/><path class="st14" d="M97.8 331.1c-8.9 0-16.1-7.2-16.1-16.2s7.2-16.2 16.1-16.2c.9 0 1.7.1 2.6.2l41.2-36 .5-.1c.2 0 4.9-.7 8.2 2.2 2 1.8 2.9 4.5 2.8 8v.8L113.5 311c.3 1.3.5 2.6.5 4 0 8.8-7.3 16.1-16.2 16.1zm0-28.5c-6.8 0-12.3 5.5-12.3 12.4s5.5 12.4 12.3 12.4 12.4-5.5 12.4-12.4c0-1.3-.2-2.7-.6-4l-.4-1.2 40.2-37.7c0-1.9-.5-3.3-1.5-4.2-1.4-1.3-3.6-1.3-4.5-1.3l-41.8 36.5-.9-.2c-1.1-.2-2-.3-2.9-.3z"/><path class="st14" d="M109.6 305.1c-.5 0-.9-.2-1.3-.5l-5.3-5.1c-.8-.7-.8-1.9-.1-2.7.7-.8 1.9-.8 2.7-.1l5.3 5.1c.8.7.8 1.9.1 2.7-.3.4-.9.6-1.4.6zM116.3 299.5c-.5 0-1-.2-1.3-.5l-4.3-4.2c-.8-.7-.8-1.9 0-2.7.7-.8 1.9-.8 2.7 0l4.3 4.2c.8.7.8 1.9 0 2.7-.4.3-.9.5-1.4.5zM121.6 293.6c-.5 0-1-.2-1.3-.5L116 289c-.8-.7-.8-1.9 0-2.7.7-.8 1.9-.8 2.7 0l4.3 4.2c.8.7.8 1.9 0 2.7-.5.3-.9.4-1.4.4zM128.5 287.7c-.5 0-1-.2-1.3-.5l-4.3-4.2c-.8-.7-.8-1.9 0-2.7.7-.8 1.9-.8 2.7 0l4.3 4.2c.8.7.8 1.9 0 2.7-.4.3-.9.5-1.4.5zM135.8 283.5c-.5 0-.9-.2-1.3-.5l-5.9-5.5c-.8-.7-.8-1.9-.1-2.7.7-.8 1.9-.8 2.7-.1l5.9 5.5c.8.7.8 1.9.1 2.7-.4.4-.9.6-1.4.6z"/></g><g><circle class="st2" cx="306.2" cy="157.4" r="63"/><circle class="st14" cx="278.3" cy="125.5" r="3.8"/><circle class="st14" cx="310" cy="125.5" r="3.8"/><path class="st14" d="M295 164.4h-1.3c-5.7-.3-10.1-2.5-13.2-6.5-7.8-10.1-4.1-28.2-3.9-28.9.2-1 1.2-1.7 2.3-1.5 1 .2 1.7 1.2 1.5 2.3 0 .2-3.5 17.1 3.2 25.8 2.4 3.1 5.8 4.8 10.4 5 6 .3 10.5-1.9 13.4-6.4 5.4-8.5 3.7-22.8 1-27.7-.5-.9-.2-2.1.8-2.6.9-.5 2.1-.2 2.6.8 3.5 6.5 4.9 22-1.1 31.5-3.6 5.3-9 8.2-15.7 8.2z"/><path class="st14" d="M310.6 191.4c-4.9 0-8.9-1.6-12-4.8-7.7-7.8-7-22.2-7-22.9.1-1 1-1.9 2-1.8 1 .1 1.9 1 1.8 2 0 .1-.6 13.4 5.9 20 2.6 2.6 5.9 3.8 10.2 3.6.1 0 9-.5 14.3-7.6 4.4-5.8 5.3-14.4 2.8-25.6a2 2 0 0 1 1.4-2.3c1-.2 2 .4 2.3 1.4 2.8 12.3 1.6 22-3.5 28.8-6.5 8.5-16.7 9-17.2 9-.4.2-.7.2-1 .2z"/><path class="st14" d="M330.1 154.7c-4.3 0-7.7-3.5-7.7-7.7s3.5-7.7 7.7-7.7 7.7 3.5 7.7 7.7-3.4 7.7-7.7 7.7zm0-11.6c-2.2 0-3.9 1.8-3.9 3.9s1.8 3.9 3.9 3.9 3.9-1.8 3.9-3.9-1.7-3.9-3.9-3.9z"/></g><g><circle cx="763" cy="338.3" r="84.3" style="fill:#4570ad"/><path class="st14" d="M741.6 374.6h-4.4c-5.5 0-10-4.5-10-10v-60.2c0-5.5 4.5-10 10-10H782c5.5 0 10 4.5 10 10v1.3h-3.8v-1.3c0-3.4-2.8-6.2-6.2-6.2h-44.8c-3.4 0-6.2 2.8-6.2 6.2v60.2c0 3.4 2.8 6.2 6.2 6.2h4.4v3.8z"/><path class="st14" d="M788.8 379.8h-39c-5.5 0-10-4.5-10-10v-56.1c0-5.5 4.5-10 10-10h39c5.5 0 10 4.5 10 10v56.1c0 5.5-4.5 10-10 10zm-39-72.4c-3.4 0-6.2 2.8-6.2 6.2v56.1c0 3.4 2.8 6.2 6.2 6.2h39c3.4 0 6.2-2.8 6.2-6.2v-56.1c0-3.4-2.8-6.2-6.2-6.2h-39z"/><path class="st14" d="M787.9 331.9h-18.6c-1.1 0-1.9-.9-1.9-1.9 0-1.1.9-1.9 1.9-1.9h18.6c1.1 0 1.9.9 1.9 1.9 0 1-.9 1.9-1.9 1.9zM787.9 345.8h-37.2c-1.1 0-1.9-.9-1.9-1.9 0-1.1.9-1.9 1.9-1.9h37.2c1.1 0 1.9.9 1.9 1.9 0 1.1-.9 1.9-1.9 1.9zM787.9 360.7h-37.2c-1.1 0-1.9-.9-1.9-1.9s.9-1.9 1.9-1.9h37.2c1.1 0 1.9.9 1.9 1.9s-.9 1.9-1.9 1.9zM757.5 338.3c-1.1 0-1.9-.8-1.9-1.7v-11.8c0-1 .9-1.7 1.9-1.7 1.1 0 1.9.8 1.9 1.7v11.8c0 .9-.9 1.7-1.9 1.7z"/><path class="st14" d="M763.5 331.9h-12.8c-1.1 0-1.9-.9-1.9-1.9 0-1.1.9-1.9 1.9-1.9h12.8c1.1 0 1.9.9 1.9 1.9s-.9 1.9-1.9 1.9z"/></g><g><circle cx="642.8" cy="149.2" r="63" style="fill:#8c5bd8"/><path class="st14" d="M620.5 177.3c-8.7 0-15.8-7.1-15.8-15.8v-30.7c0-8.7 7.1-15.8 15.8-15.8s15.8 7.1 15.8 15.8v30.7c0 8.7-7.1 15.8-15.8 15.8zm0-58.5c-6.6 0-12 5.4-12 12v30.7c0 6.6 5.4 12 12 12s12-5.4 12-12v-30.7c0-6.6-5.4-12-12-12z"/><path class="st14" d="M608.5 144.2h24.3v3.8h-24.3zM658.9 167.2c-9.9 0-18-8.1-18-18s8.1-18 18-18 18 8.1 18 18-8.1 18-18 18zm0-32.2c-7.8 0-14.2 6.4-14.2 14.2s6.4 14.2 14.2 14.2 14.2-6.4 14.2-14.2c0-7.8-6.4-14.2-14.2-14.2z"/><path class="st14" d="M657 134.7h3.8v30.6H657z"/></g><circle class="st24" cx="226.8" cy="337.2" r="16.8"/><circle class="st24" cx="605.7" cy="253.9" r="11.9"/><circle class="st24" cx="462.6" cy="106.3" r="8.4"/><circle class="st24" cx="766.9" cy="450.5" r="8.4"/></svg>