<svg version="1.1" id="Layer_1" xmlns="http://www.w3.org/2000/svg" x="0" y="0" viewBox="0 0 1000 657.5" style="enable-background:new 0 0 1000 657.5" xml:space="preserve"><style>.st0{fill:#e2d5f8}.st1{opacity:.13;fill:#1c1b1b}.st5{fill:#fff}.st6{fill:#e6e7e8}.st7{fill:#b4834b}.st8{fill:#feac02}.st9{fill:#f7afa4}.st10{fill:#ff4d53}.st15{fill:#79969a}.st16{fill:#e89285}.st18{fill:#161616}.st23{fill:#f8aa68}.st24{fill:#6eb978}.st28{fill:#345832}.st30{fill:#4f7647}.st31{fill:#2e4e25}.st32{fill:#457342}.st34{fill:#45743d}.st35{fill:#7fae78}</style><path class="st0" d="M77.9 575.6s-47 81 389.9 40.1c0 0 166.2 44.5 354.8 28.3 77-6.6 104-25.1 123.7-36.4 7.3-4.1 11.1-12.5 9.3-20.7-2-9.5-8.2-21.4-25.4-28.2C898 546 77.9 575.6 77.9 575.6z"/><ellipse class="st1" cx="701.6" cy="609.1" rx="224.7" ry="22.3"/><ellipse class="st1" cx="402.3" cy="580.4" rx="174.2" ry="17.3"/><path d="M54.7 554.9s-79.4-237.4 39.1-344c0 0 82.2-65.9 110.4-117.1s88.2-120 286.8-44.3c0 0 75.7 27.1 205.3-33.6s201.2 68 206.8 129.4c5.6 61.4-15.6 175.5 30.2 213.9s82.7 165.4-24.6 195.6-854 .1-854 .1z" style="fill:#cfb5f6"/><path class="st0" d="M76.1 546S.5 319.9 113.4 218.4c0 0 78.2-62.7 105.1-111.5s84-114.2 273.1-42.1c0 0 72.1 25.8 195.6-32s191.6 64.8 196.9 123.3-14.9 166.9 28.7 203.5c43.6 36.6 78.8 157.5-23.4 186.3-102.2 28.9-813.3.1-813.3.1z"/><path d="M937 578.6H62.5c-10.4 0-18.8-8.4-18.8-18.8v-6.1c0-10.4 8.4-18.8 18.8-18.8H937c10.4 0 18.8 8.4 18.8 18.8v6.1c.1 10.4-8.4 18.8-18.8 18.8z" style="fill:#58595b"/><path style="fill:#f1f2f2" d="M285.5 62.8h131.6v180.8H285.5z"/><path class="st5" d="M292.5 72.4h117.6V234H292.5z"/><path class="st6" d="M354.2 86.9H400v31.2h-45.8zM313.7 86.9h10.6v31.2h-10.6z"/><path transform="rotate(-90 319.046 102.52)" class="st6" d="M313.7 86.9h10.6v31.2h-10.6z"/><path class="st6" d="M301.5 130.2h101.6v2.9H301.5zM300.5 146.5h101.6v2.9H300.5zM301.5 160.9h101.6v2.9H301.5zM301.5 175.3h101.6v2.9H301.5zM300.5 192.5h101.6v2.9H300.5zM301.5 208.3h101.6v2.9H301.5zM301.5 222h101.6v2.9H301.5z"/><path class="st5" d="M639 86.9c-38.2 0-69.8 27.9-75.5 64.5-1.9 1.8-6.4 5.3-13.1 4.7-9-.8-23.2-7.6-31 8.8-7.8 16.4-8.9 23.2-18.5 21.9 0 0 5.9 3.1 12.8-2.8 0 0 13.8-19 39-3 5.5 3.5 10.2 6 14.3 8 10.5 29.6 38.8 50.9 72.1 50.9 42.2 0 76.5-34.2 76.5-76.5-.1-42.3-34.4-76.5-76.6-76.5z"/><path class="st7" d="M352.3 440.7h129.6v8H352.3zM352.3 448.7l-21.5 128.5h7.4l24-128.5z"/><path class="st7" d="m365.8 448.7-21.7 128.5h8.2L376 448.7zM477.7 448.7l21.5 128.5h-7.4l-24-128.5zM464.1 448.7l21.8 128.5h-8.2L454 448.7z"/><path class="st8" d="M481.9 440.7H352.3V434c0-7.8 6.3-14.1 14.1-14.1h101.4c7.8 0 14.1 6.3 14.1 14.1v6.7z"/><g><path class="st9" d="m458.5 467.3-26.6 39.4s-18.9 28.2-13.7 51.1c0 0 4.2 13.3 9.2 18.1 0 0-12.5 6.4-22.1-9-9.6-15.4-8.5-20.8-8.5-20.8l21.4-84.1s32.3-4 40.3 5.3z"/><path class="st9" d="M481.9 474.8c-1.6 0-85.2 63.9-85.2 63.9l-5.3 14.4s-13.8 5.9-11.7-9.6c2.1-15.4 17-38.3 17-38.3s11.7 4.8 41-27.1c29.3-31.9 27.1-26.1 27.1-26.1l17.1 22.8z"/><path class="st10" d="m396.7 554.1-7.9 12.7s-7.4 9-9.3 0c-1.9-9 0-47.7 0-47.7l-8.3 3v-6.9l12.8-12.4s10.1-3.5 12.8 2.3c0 0-14.9 22.4-12.8 38.3 0 0 3.9 13.3 8.9 5.7l3.8-10.4v15.4z"/><path class="st10" d="M427.4 575.9s3.8 5.3 3.3 9.6c0 0-10.6 5.3-20.9-4.8s-18.3-38.9-18.3-38.9l9.2-11.1s-1.3 14.9-.7 21.2 9 20.8 18.2 22.4l9.2 1.6z"/><ellipse transform="rotate(-8.773 435.143 173.913)" class="st9" cx="435.2" cy="174" rx="25.4" ry="38.9"/><path class="st9" d="m414.3 184-4.5 58.1s9.9 22.9 37.5 0l-7.5-19.7-.5-16.5-25-21.9z"/><path d="M442.3 234.6c1.8-2.2 3.5-4.8 5-8.1l29.3 8.8s8.5.5 13.3 22.3c4.8 21.8 5.3 41.5 5.3 41.5s-11.7 24-5.9 35.7c0 0 .5 14.9 11.2 14.9l16.5 37.8s14.4 5.9 8 31.9l-10.1 62.3s-48.4-1.1-55.9-8.5c0 0-11.2-10.1-37.8-5.3h-11.5l5.6-38.9s-39.9 3.2-55.4-10.6c0 0-5.9-24 0-45.8l-5.9-23.4s-27.1 2.7-26.1-14.9c1.1-17.6 33.5-87.8 33.5-87.8s9-13.3 38.3-19.2l13.3-5.9s-1.5 1.7-.6 6.2c3.2 13.7 20.9 17.8 29.9 7z" style="fill:#4570ad"/><path class="st9" d="M377.6 325.7s-33.5-13.3-23.4 23.4H484s-7-16-19.2-14.9c-12.2 1.1-12.7 5.3-12.7 5.3l-24.7-.5-49.8-13.3zM512.9 336s-14.1 27.7-25.2.9c0 0-6.6-18.6 7-38.8l12.6-46.3s.4-9.6 13.6-20.3c0 0 4.9-1.4 1.4 3.8s-4.7 9.4-4.7 9.4 6.1-5.1 17.2-2.5L538 232s2.7-.7 2 4l-.7 4.7 3.7-11s4.4-2.5 2.5 3.8c-1.9 6.3.2 2.7.2 2.7s4.3-10.5 6.4-9.3c2.1 1.2-2 9.5-2 9.5s3.9 8.7-4.8 13.1-29.2 10.5-29.2 10.5 4.5 57.6-3.2 76z"/><path d="M365.9 241.8s-1.6-14.6 13.3-23.6c0 0 1.1-11.2 3.2-18.1 2.1-6.9-.5 2.1 2.1-6.9 2.7-9-4.3-12.8 9-30.3 0 0-4.2-37.8 33.8-38.9 0 0 24.7-2.1 32.2 19.7 0 0-1.1 8.5 5.3 16 0 0 1.1 2.7 2.7 19.2s10.1 9.6 4.3 26.1 4.8 30.4 4.8 30.4l-29.3-8.8-4.8-5.1-1.4-9s15.6-4 19.7-28.4c0 0 2.5-25.1-8.7-35.7 0 0-9-8.9-16.9-1.5 0 0-17-6.4-23.9 7.9 0 0-4.4 9.1-.7 19.2l3.7 19.1-3.7 28.3s-3.7-2.1-10.6 5.9c0-.1-20.8 6-34.1 14.5z" style="fill:#1c1b1b"/><ellipse transform="rotate(-26.543 409.774 184.029)" class="st9" cx="409.8" cy="184" rx="7" ry="10.1"/><path class="st5" d="M369.1 272h37.3v21.3h-37.3zM413.8 218.2s-11.2 3.7-13.8 10.5l6.9 28.9 14.4-19.7-7.5-19.7zM442.5 221.4l-14 13.9 10.8 22.3 12.8-26.1z"/></g><g><path class="st7" d="M96.6 352h446.6v34.3H96.6z"/><path style="fill:#7c5532" d="M77.9 349.1h485.4v5.8H77.9z"/><path transform="rotate(3.237 96.559 485.856)" class="st7" d="M93.1 385.6h6.9v200.5h-6.9z"/><path transform="scale(-1) rotate(-3.237 -17192.459 19219.131)" class="st7" d="M539.7 385.6h6.9v200.5h-6.9z"/></g><path d="M299.1 327.3H157c-3.7 0-6.6-3-6.6-6.6v-90c0-3.7 3-6.6 6.6-6.6h142.1c3.7 0 6.6 3 6.6 6.6v90c0 3.6-2.9 6.6-6.6 6.6z" style="fill:#91a0a7"/><path class="st15" d="M245.6 348.6h-35.7v-66c0-3.8 3.1-6.9 6.9-6.9h21.9c3.8 0 6.9 3.1 6.9 6.9v66z"/><path class="st15" d="M228 343.3h50v5.3h-50z"/><path class="st15" d="M263.2 339h91v10.1h-91z"/><g><path class="st8" d="M865.2 252.3s-27.7-6.7-30.9 17.1S803 462.8 803 462.8h26.8l35.4-210.5z"/><path class="st7" d="M696.5 462.8h138.2v8.5H696.5zM696.5 471.3l-23 144.4h8L707 471.3zM710.9 471.3l-23.2 144.4h8.8l25.3-144.4z"/><path class="st7" d="m832.5 471.3 22.9 142.5h-7.9l-25.6-142.5zM816.9 471.3l23.2 142.5h-8.8L806 471.3z"/><path class="st8" d="M834.7 462.8H696.5v-8c0-7.8 6.3-14.1 14.1-14.1h110c7.8 0 14.1 6.3 14.1 14.1v8z"/><path class="st7" d="m865.2 252.3-30.5 219H822l33.5-209.5c-.1 0-.5-11.5 9.7-9.5zM717.7 492.9h92.7v3.5h-92.7zM701.6 500h125.8v3.5H701.6z"/></g><g><path class="st16" d="m784.7 246.4-5.4 46.8s-68.1-13.3-79.8-11.2l-8.5-9.6s0-8.5-15.4-12.2l-6.9-5.3s-3.2.5 0 6.4 4.6 8.5-1.4 8.5h-27.9s-6.4 4.8 6.9 4.3 5.3 4.3 5.3 4.3l-13.8 3.2S642 297.9 651 298s30.3-3.1 30.3-3.1 15.3 2.6 20.8 9 67.1 34.1 67.1 34.1 27.3 12.5 38.1-7.1 24.7-66.8 20.4-81.5l-43-3z"/><path d="M626.7 414.1s-13.3-2.1-18.1 30.6c-4.8 32.7-21.8 134.9-21.8 134.9l32.9 9.6L657 465.7l-30.3-51.6z" style="fill:#333"/><path class="st18" d="m592.6 573.2-5.9 10.6S567 595 556.9 598.2c-10.1 3.2-21.8 2.1-17.6 10.1 4.3 8 30.3 4.8 30.3 4.8l44.7.6v-26.9l-21.7-13.6z"/><path class="st16" d="m770.4 199.6 2.8 38.3 41.4-19.7-6.4-10.6-2.7-33.6z"/><ellipse class="st16" cx="773.2" cy="165.7" rx="29.8" ry="41.8"/><path d="M748.1 143.1s-17.1-9.1-8-19.2c9-10.1 16.2-15.9 33.1-15.4s35 5.7 38.8 15.4c3.7 9.6 16 10.7 10.6 26.7-5.3 16-16 29.3-16 29.3s-7.4 4.5-12.7-4.5c-5.3-9.1-5.9-28.4-5.9-30.6 0-2.1-5.3-7.5-12.2-4.3-6.9 3.2-6.4-6.4-6.4-6.4l-7.5 6.9-5.3-3.7s-3.3 9.5-8.5 5.8z" style="fill:#2b2a2a"/><path class="st18" d="M660.2 583.3v10.2l-21.2 6.9s-28.8 4.5-12.8 13.4c0 0 21.3 4.4 30.9 0h40s1.6-27.8-7.5-34.2l-29.4 3.7z"/><ellipse transform="rotate(-60 796.539 165.757)" class="st16" cx="796.5" cy="165.7" rx="10.3" ry="7.3"/><path d="m726.2 375.8-81.4 20.8s-29.8 6.4-24.5 33.8c5.3 27.4 37.3 156.6 37.3 156.6l34.6-4.1s-8-116.1-12.8-121.7c-4.8-5.6 9-12.5 9-12.5l114.5-4s28.1-12.5 20.9-43.9l-7.2-3.2c.1 0-67-1.1-90.4-21.8z" style="fill:#282727"/><path class="st10" d="m806.6 211.8 3.2-1.5 20.2 23.3s6.9 10.6 6.9 24c0 13.3-13.1 143.2-13.1 143.2s-77.4 9-103-23.4c-25.5-32.5-4.8-74.5-4.8-74.5s27.7-62.3 54.3-81.4c0 0 2.7 6.9 13.3 2.7 10.8-4.4 23-12.4 23-12.4z"/><path class="st16" d="m785.8 284.7-5.4 46.8s-68.1-13.3-79.8-11.2l-8.5-9.6s0-8.5-15.4-12.2l-6.9-5.3s-3.2.5 0 6.4 4.6 8.5-1.4 8.5h-27.9s-6.4 4.8 6.9 4.3 5.3 4.3 5.3 4.3l-13.8 3.2s4.2 16.3 13.2 16.4c9 .1 30.3-3.1 30.3-3.1s15.3 2.6 20.8 9 67.1 34.1 67.1 34.1 27.3 12.5 38.1-7.1 24.7-66.8 20.4-81.5l-43-3z"/><path d="M780.7 257.6c-1 1.5 3.1 30.2 3.1 30.2l47.4 5.5 5.5-40.9c-.1-.1-27.7-37.4-56 5.2z" style="fill:#e24954"/></g><g><path d="M668.6 174.3s-5.9 4.3-12.3 0-17-1.5-17-1.5-25.3 8-29.8 1l-21.8 2.9v-11.9l39.9-2.5 37.8 2.5 3.2 9.5z" style="fill:#e53526"/><path class="st23" d="M587.3 190.6s-6.6 9 43.9 12.2c0 0 33-.5 36.7-10.1v-4.8s-18.6 7.5-37.2 7.5-43.4-7.5-43.4-7.5v2.7z"/><path class="st24" d="M587.3 183.1s-6.6 9 43.9 12.2c0 0 33-.5 36.7-10.1v-4.8s-18.6 7.5-37.2 7.5-43.4-7.5-43.4-7.5v2.7z"/><path d="M587 171.9s5.9-4.3 12.3 0 17 1.5 17 1.5 25.3-8 29.8-1l21.8-2.9v11.9l-39.9 2.5-37.8-2.5-3.2-9.5z" style="fill:#ff913a"/><path d="M587.3 182.1s14.6 6.3 40.2 5.8S668 184 668 184s2.6-10 0-8.9c-2.6 1.1-2.1 6.3-10.1 6.4-8 .1-12.8-7.5-18.6-6.4-5.9 1.1-13.3 5.2-18.1 6.4s-13.3 1.5-17 0c-3.7-1.5-17.1-6.5-17.1-6.5l.2 7.1z" style="fill:#7e4a3c"/><path class="st24" d="M587.7 154.3v12.6h21.2v8.1l22.4-4.6s11.7 0 14.9 2.1-4.3 6.1 18.1-7.8l3.7-5.5-4.8-2.1c0-.1-54.7 7.7-75.5-2.8z"/><path class="st23" d="M587.6 159.2c.6 2 41.5 14.4 80.4 0 0 0-2.1-26.6-37.8-26.1-35.7.5-44.7 19.1-42.6 26.1z"/><circle class="st5" cx="595.4" cy="155.1" r=".8"/><circle class="st5" cx="598.3" cy="148" r=".8"/><circle class="st5" cx="602.5" cy="152.2" r=".8"/><circle class="st5" cx="607" cy="145" r=".8"/><circle class="st5" cx="607" cy="158.9" r=".8"/><circle class="st5" cx="608.7" cy="151.4" r=".8"/><circle class="st5" cx="609.5" cy="138.7" r=".8"/><circle class="st5" cx="614.8" cy="143.4" r=".8"/><circle class="st5" cx="620.1" cy="137" r=".8"/><circle class="st5" cx="631.3" cy="137" r=".8"/><circle class="st5" cx="624.1" cy="142.6" r=".8"/><circle class="st5" cx="634.8" cy="143.4" r=".8"/><circle class="st5" cx="630.4" cy="150.4" r=".8"/><circle class="st5" cx="619.3" cy="158.1" r=".8"/><circle class="st5" cx="629.6" cy="158.1" r=".8"/><circle class="st5" cx="638.4" cy="154.3" r=".8"/><circle class="st5" cx="650.1" cy="158.1" r=".8"/><circle class="st5" cx="650.1" cy="152.2" r=".8"/><circle class="st5" cx="660.5" cy="152.2" r=".8"/><circle class="st5" cx="643.3" cy="147.2" r=".8"/><circle class="st5" cx="618.4" cy="149.5" r=".8"/><circle class="st5" cx="641.6" cy="137.8" r=".8"/><circle class="st5" cx="651.8" cy="142.6" r=".8"/></g><g><path transform="rotate(-47.833 665.295 130.223)" class="st10" d="M643.4 126.9h43.8v6.7h-43.8z"/><path transform="rotate(-42.166 665.383 130.204)" class="st10" d="M662 108.3h6.7v43.8H662z"/></g><g><path style="fill:#ba8340" d="M96.6 519.2H194l-21.3 89.9h-56.4z"/><path class="st28" d="M129.9 494.6s-49.8-27-56.7 3.7c0 0 8-29.2 50-17l15.2 13-8.5.3z"/><path d="M152.4 493.6s10.7-26.9 41.5-5.3l10.1 2.8s-20.1-17.4-27.9-17.4-32.8 1.5-30.9 12.2c1.9 10.7 7.2 7.7 7.2 7.7z" style="fill:#395930"/><path class="st30" d="M127.2 504.5s-50.6-34.1-76.1 14.1c-25.5 48.2-20.8 39.6-20.8 39.6s2.1-42.9 25-57.1c22.9-14.2 27.4-18.5 41.6-13.4s33.4 8.3 33.4 8.3l-3.1 8.5z"/><path class="st30" d="M109.7 505.5S59.5 517.8 46.8 548L34 578.3s3.2-40.5 21.3-56.7c18.1-16.2 40.9-25.2 40.9-25.2l19.9-2.2 5.8 5.8-12.2 5.5z"/><path class="st31" d="M133.8 491.1s-15.4-58.9-25-63.7l3.3-2.7s24.9 43.6 26.3 63.6l-4.6 2.8zM147.7 498.3s3.1-74.6 18-94.9c0 0-17.6 72.2-15.4 92.8l-2.6 2.1z"/><path class="st31" d="m145.3 485.9 27.3-48.5 2-3.6h4.5l-31.4 55.5z"/><path class="st5" d="M112.1 426.6S86.8 444.9 77 385.9c.1 0 53.5 18.2 35.1 40.7z"/><ellipse transform="rotate(-38.875 102.27 417.016)" class="st10" cx="102.3" cy="417" rx="4.5" ry="11.5"/><path class="st5" d="M174.1 435.6s23.1 16.8 32.1-37.2c0 0-48.9 16.6-32.1 37.2z"/><ellipse transform="rotate(-51.125 183.15 426.85)" class="st10" cx="183.1" cy="426.8" rx="10.5" ry="4.1"/><path class="st5" d="M161.4 408.8s31.1 15.4 30.9-51.2c0 .1-55.3 30-30.9 51.2z"/><ellipse transform="rotate(-60.705 170.411 396.48)" class="st10" cx="170.4" cy="396.5" rx="12.8" ry="5"/><path class="st32" d="M122.3 512.9s8.1 25.8 8.1 35.4v-35.4h-8.1zM143.1 516.8s8.1 25.8 8.1 35.4v-35.4h-8.1zM133.3 516.8s8.1 25.8 8.1 35.4v-35.4h-8.1zM158.1 516.8s8.1 25.8 8.1 35.4v-35.4h-8.1z"/><path class="st32" d="M164.7 515.4s12.3 24.1 13.8 33.6l-5.9-34.9-7.9 1.3zM174.5 525.1s18 20.2 21.8 29l-14.5-32.3-7.3 3.3z"/><path d="M152.4 493.6s38.3 61 38.3 79.7c0 0-15.4-74.2-25.5-79.7s-12.8 0-12.8 0z" style="fill:#7faf73"/><path class="st32" d="M131.6 512.5s-22.9 31.8-17.6 59.7c0 0-3.6-45.1 3.3-59.7 6.8-14.6 10-8.4 10-8.4l4.3 8.4zM89.4 512.5s-22.9 31.8-17.6 59.7c0 0-3.6-45.1 3.3-59.7 6.8-14.6 10-8.4 10-8.4l4.3 8.4z"/><path class="st34" d="M173.8 505.1s60.7 38.8 67.1 74.5c0 0-25-74.5-51.6-79.8s-15.5 5.3-15.5 5.3z"/><path class="st34" d="M105.7 504.6s-.4 4.7 16.1 5.1c16.5.3 23.2 4.5 31.7 0s13-3.8 18.1-1.5 9.3 1 7.5-3.6c-1.9-4.5 2.9-2-5.5-6.5s-7.9-8.2-12.7-9.3c-4.8-1.1-2.2.3-13.2.5s-9.2-3.6-17.3-1-10.5 3.9-11.1 6.2c-.6 2.3-4-.2-5.5 0s-8 6.9-8 8.5l-.1 1.6z"/><path class="st32" d="M176.9 492s33-15.2 49 2.2c16 17.5 44.7 63.9 45.8 78.9 0 0-44.1-72.6-60.1-74.4s-20.2-7.3-26.3-1.1l-8.4-5.6z"/><path class="st32" d="M168.4 498.7s33-15.2 49 2.2 44.7 63.9 45.8 78.9c0 0-44.1-72.6-60.1-74.4s-20.2-7.3-26.3-1.1l-8.4-5.6z"/><path class="st28" d="M156.7 494s16.2-13.3 34-10.1c17.8 3.2 41.5 24 45.2 48.3 0 0-6.9-25-31.9-30.6-25-5.6-41.9-.2-41.9-.2l-5.4-7.4z"/><g><path class="st35" d="M215.4 575.6c.2 1 .4 1.6.4 1.6-.1-.5-.2-1.1-.4-1.6zM215.4 575.6c-2.2-9.4-14.4-56.9-39.7-72.3-.7-1.4-1.4-2.4-2.2-2.9-4.2-3.1-7.1-3.7-9.1-3.5-1.1-1.2-2.2-2-4.2-2.5-4.8-1.1-2.2.3-13.4.5-.5-.8-1.1-1.6-1.7-2.2h-7.7c-.6 0-1.1.2-1.4.6-1.6-.4-3.3-.4-6.7.7-8.2 2.7-10.6 3.9-11.3 6.2-.6 2.3-4.1-.2-5.6 0-.9.1-3.4 2.4-5.4 4.6l-19.8 11.5c-28.6 24.3-29 59-29 59 7.7-38.4 43.5-57.4 45.8-58.6-7.3 20.2.4 53.1.4 53.1-1.1-22.4 8.2-43.6 14.1-54.5h1l1.4 44.4 6-38.6 6.8 36.2s3.2-19.8 3.9-34.2l11.4 22.4s-1.9-14.9-4.6-28c.7 0 1.3 0 1.9-.1 5.5 12.4 11.3 27.5 13.5 40.8-.5-6.4-1.3-14.6-2.4-23l11.4 36.9-5.6-40.9c5.5 14.1 11.2 30.2 13.5 41.9-1.2-13.9-3.6-37.2-7.1-53.3 6.4 15.7 14.5 37 17.4 51.6-1-11.1-2.7-28.4-5.2-43.1 14.5 16 30.6 36.2 33.6 47.3z"/><path class="st35" d="M176.9 572.8c.6 7.1 1 11.7 1 11.7.4-2.9 0-6.9-1-11.7zM188.2 582.7c.4-2.9 0-6.9-1-11.7.6 7.1 1 11.7 1 11.7zM160 558c.6 7.8.8 13 .8 13 .3-4 0-8.4-.8-13z"/></g></g></svg>