<?xml version="1.0" encoding="utf-8"?>
<!-- Generator: Adobe Illustrator 24.3.0, SVG Export Plug-In . SVG Version: 6.00 Build 0)  -->
<svg version="1.1" id="Layer_1" xmlns="http://www.w3.org/2000/svg" xmlns:xlink="http://www.w3.org/1999/xlink" x="0px" y="0px"
	 viewBox="0 0 1000 794.29" style="enable-background:new 0 0 1000 794.29;" xml:space="preserve">
<style type="text/css">
	.st0{fill:#E5D1F7;}
	.st1{fill:#F68357;}
	.st2{fill:#153547;}
	.st3{fill:#F8FBFF;}
	.st4{fill:#8A22E1;}
	.st5{fill:#514B57;}
	.st6{fill:#FFFFFF;stroke:#000000;stroke-miterlimit:10;}
	.st7{fill:#B9B9BA;}
	.st8{fill:#EF505D;}
	.st9{fill:#6B82C0;}
	.st10{fill:#F58356;}
	.st11{fill:#3470B9;}
	.st12{fill:#FCA819;}
	.st13{fill:#4CC0A7;}
	.st14{fill:#FFFFFF;}
	.st15{fill:#555556;}
</style>
<g>
	<path class="st0" d="M191.34,771.34c0,0-191.87-135.46-128.46-282.69s124.53-115.58,201.43-231.94S339.61-9.46,462.19,14.72
		s198.99,185.38,275.4,233.74S942,350.96,949.23,542.18S908.9,769.6,908.9,769.6L191.34,771.34z"/>
	<g>
		<path class="st1" d="M393.95,425.74c0,0,10.25-16.84,0-38.07c0,0-4.39-13.91-13.91-17.57s0,26.36,0,26.36
			s-16.84-21.85-36.61-26.67c-19.77-4.82-37.34-3.35-27.09,12.02c10.25,15.38,23.75,25.12,39.7,35.26
			C371.99,427.21,393.95,425.74,393.95,425.74z"/>
		
			<ellipse transform="matrix(0.2939 -0.9558 0.9558 0.2939 75.9657 761.4736)" class="st1" cx="553.39" cy="329.32" rx="51.37" ry="35.14"/>
		<path class="st2" d="M549.17,288.4c0,0,15.76,41.54,38.26,38.92c22.51-2.62-2.8,2-2.8,2s-7.77,28.09-15.45,39.8l3.78,33.19
			l39.17,10.98c0,0,16.11-11.96,6.59-34.9c-9.52-22.94-0.73-67.6-0.73-67.6s-6.52-42.47-28.89-46.86c0,0-38.47-24.89-69.96,16.84
			l-30.96,100.31c0,0,0.94,25.63,22.91,27.82l20.5-6.59l0.38-26.87c0,0-17.11-14.75-14.23-48.12
			C517.75,327.32,527.21,306.27,549.17,288.4z"/>
		<path class="st3" d="M535.26,396.45l-43.24,16.84c0,0-17.14,10.98-33.08,41.73s-33.08,67.36-33.08,67.36l-28.25-105.32
			l-17.57,12.33l12.45,138.38c0,0,23.43,53.45,69.56-13.18l26.15-46.13l16.32,119.34l101.04-3.66l16.19-95.18l37.99,93.72
			l28.55-38.07l-47.59-149.36c0,0-6.62-22.51-37.35-24.43l-30.37-8.52c0,0-1.45,14.64-19.58,19.04
			C553.39,421.35,526.47,419.15,535.26,396.45z"/>
		<path class="st4" d="M510.37,402.31l-29.29,93.72l21.14,115.06h105.55l17.55-122.39l-30.02-80.54l-22.33-5.86
			c0,0-7.69,20-28.19,14.76c0,0-13.18,1.35-9.52-20.62L510.37,402.31z"/>
		
			<ellipse transform="matrix(0.2939 -0.9558 0.9558 0.2939 90.9547 801.6037)" class="st1" cx="588.05" cy="339.24" rx="14.31" ry="9.79"/>
		<path class="st1" d="M531.6,364.37v56.25c0,0,21.97,30.85,38.8,17.99c16.84-12.86,9.52-25.31,9.52-25.31l-6.96-10.98l-2.56-44.42
			L531.6,364.37z"/>
	</g>
	<rect x="393.95" y="594.14" class="st5" width="289.21" height="89.32"/>
	<g>
		<g>
			<polygon class="st6" points="360.27,463.81 481.08,508.48 412.99,713.48 291.01,657.84 			"/>
			<g>
				<line class="st7" x1="366.13" y1="486.32" x2="458.94" y2="523.45"/>
				<path class="st7" d="M458.94,526.64c-0.39,0-0.8-0.07-1.18-0.23l-92.81-37.13c-1.64-0.65-2.43-2.51-1.78-4.15
					c0.65-1.64,2.51-2.43,4.15-1.78l92.81,37.13c1.64,0.65,2.43,2.51,1.78,4.15C461.41,525.88,460.21,526.64,458.94,526.64z"/>
			</g>
			<g>
				<line class="st7" x1="347.55" y1="534.63" x2="440.36" y2="571.76"/>
				<path class="st7" d="M440.36,574.95c-0.39,0-0.8-0.07-1.18-0.23l-92.81-37.13c-1.64-0.65-2.43-2.51-1.78-4.15
					c0.65-1.64,2.51-2.43,4.15-1.78l92.81,37.13c1.64,0.65,2.43,2.51,1.78,4.15C442.82,574.19,441.62,574.95,440.36,574.95z"/>
			</g>
			<g>
				<line class="st7" x1="339.64" y1="553.2" x2="432.45" y2="590.32"/>
				<path class="st7" d="M432.45,593.51c-0.39,0-0.8-0.07-1.18-0.23l-92.81-37.13c-1.64-0.65-2.43-2.51-1.78-4.15
					c0.65-1.64,2.51-2.43,4.15-1.78l92.81,37.13c1.64,0.65,2.43,2.51,1.78,4.15C434.92,592.76,433.72,593.51,432.45,593.51z"/>
			</g>
			<g>
				<line class="st7" x1="333.63" y1="570.09" x2="426.45" y2="607.21"/>
				<path class="st7" d="M426.45,610.41c-0.39,0-0.8-0.07-1.18-0.23l-92.81-37.13c-1.64-0.65-2.43-2.51-1.78-4.15
					c0.65-1.64,2.51-2.43,4.15-1.78l92.81,37.13c1.64,0.65,2.43,2.51,1.78,4.15C428.91,609.65,427.71,610.41,426.45,610.41z"/>
			</g>
			<g>
				<line class="st7" x1="361.28" y1="496.56" x2="454.1" y2="533.68"/>
				<path class="st7" d="M454.1,536.88c-0.39,0-0.8-0.07-1.18-0.23l-92.81-37.13c-1.64-0.65-2.43-2.51-1.78-4.15
					c0.65-1.64,2.51-2.43,4.15-1.78l92.81,37.13c1.64,0.65,2.43,2.51,1.78,4.15C456.56,536.12,455.36,536.88,454.1,536.88z"/>
			</g>
			<g>
				<line class="st7" x1="356.04" y1="512.14" x2="405.67" y2="532.48"/>
				<path class="st7" d="M405.67,535.68c-0.4,0-0.81-0.08-1.21-0.24l-49.63-20.35c-1.63-0.67-2.41-2.53-1.74-4.16
					c0.67-1.63,2.53-2.41,4.17-1.74l49.63,20.35c1.63,0.67,2.41,2.53,1.74,4.16C408.11,534.93,406.92,535.68,405.67,535.68z"/>
			</g>
			<g>
				<line class="st7" x1="312.22" y1="646.5" x2="405.67" y2="689.32"/>
				<path class="st7" d="M405.66,692.52c-0.44,0-0.9-0.09-1.33-0.29l-93.44-42.82c-1.6-0.73-2.31-2.63-1.57-4.23
					c0.73-1.6,2.63-2.31,4.23-1.57L407,686.42c1.6,0.73,2.31,2.63,1.57,4.23C408.03,691.83,406.87,692.52,405.66,692.52z"/>
			</g>
			<g>
				<line class="st7" x1="385.57" y1="652.21" x2="413.01" y2="664.59"/>
				<path class="st7" d="M413.24,667.77c-0.51,0.04-1.04-0.05-1.54-0.28l-27.44-12.38c-1.61-0.72-2.32-2.62-1.6-4.22
					c0.72-1.61,2.62-2.33,4.22-1.6l27.44,12.38c1.61,0.72,2.32,2.62,1.6,4.22C415.42,667.01,414.37,667.69,413.24,667.77z"/>
			</g>
		</g>
		<polygon class="st1" points="166.98,351.54 162.1,432.08 234.34,446.73 241.68,358.47 		"/>
		
			<ellipse transform="matrix(0.95 -0.3122 0.3122 0.95 -83.0301 84.2061)" class="st1" cx="221.5" cy="301.44" rx="60.04" ry="93.23"/>
		<path d="M196.27,274.91c0,0,54.67-37.1,67.36-54.67c12.69-17.57,7.81-26.36-5.86-19.52c-13.67,6.83-41-7.81-68.34,4.88
			c-27.33,12.69-58.57,20.5-64.43,43.93c-5.86,23.43,39.05,128.86,39.05,128.86S208.22,333.24,196.27,274.91z"/>
		<path d="M284.82,331.54l-91.55-4.21c0,0-6.4,50.1,14.65,63.76c21.05,13.67,78.72,11.71,76.89,5.86
			C282.99,391.09,284.82,331.54,284.82,331.54z"/>
		<path class="st8" d="M148.43,418.42c0,0,74.23-5.86,93.25,6.83c19.02,12.69,9.25,13.67,9.25,13.67s56.62,9.76,64.43,41.98
			c7.81,32.22,51.74,197.2,51.74,197.2l102.5-28.31l18.55,6.83c0,0,6.83,9.76-11.71,45.88c0,0-73.22,70.29-110.31,65.41
			c0,0-34.17,20.5-107.39,15.62c0,0-130.81,3.9-144.48-48.81c-13.67-52.72-6.83-181.58-6.83-181.58s2.93-102.5,40.03-114.22
			L148.43,418.42z"/>
		<path class="st1" d="M453.66,661.5c0,0-13.02-34.49-8.14-44.26L426,582.1c0,0-1.95-15.62,8.79-10.74l14.97,18.22
			c0,0,3.9,12.04,8.14-1.95c4.23-13.99,3.9-22.78,3.9-22.78s11.06,26.09,14.97,35.82c3.9,9.74,17.36,39.97,14.97,52.04
			c-2.39,12.07-14.32,16.27-14.32,16.27L453.66,661.5z"/>
		<path class="st9" d="M228.48,483.85c0,0,26.69-66.11,82.17-10.36l56.46,203.54l84.22-23.26c0,0,40.26-15.01,38.96,6.04
			c-1.3,21.05-7.74,41.16-22.45,53.77s-76.08,59.47-106.1,55.08c0,0-22.2,13.91-64.18-33.68c0,0-59.55-83.47-69.07-177.92
			C228.48,557.06,218.14,500.62,228.48,483.85z"/>
		
			<ellipse transform="matrix(0.95 -0.3122 0.3122 0.95 -90.6589 72.6065)" class="st1" cx="181.45" cy="319.47" rx="15.68" ry="24.35"/>
	</g>
	<g>
		<polygon class="st10" points="763.95,447.94 758.57,535.57 866.93,532.48 812.75,420.62 		"/>
		
			<ellipse transform="matrix(0.0524 -0.9986 0.9986 0.0524 332.2928 1134.4816)" class="st10" cx="763.95" cy="392.14" rx="67.97" ry="54.31"/>
		<path class="st11" d="M904.28,751.56c0,0-49.11,16.6-62.69,4.62c-0.1-0.06-0.18-0.15-0.28-0.23c0,0-61.13,40.28-144.24-4.39
			c0,0-18.14,44.66-75.32-8.79c0,0-17.21-32.32,29.06-142.09l33.09-65.84c0,0,26.24-25.54,80.06-40.43c1.6-0.45,3.23-0.87,4.87-1.3
			h103.23l8.03,9.06l26.89,30.32l0,0c7.11,8.02,11.96,17.78,14.06,28.28l14.73,73.64C935.76,634.41,962.11,731.06,904.28,751.56z"/>
		<path class="st12" d="M688.28,531.05c0,0,34.41-29.89,47.59,21.36c0,0,19.77,49.06-18.3,166.2c0,0-18.3,65.67-62.87,46.98
			c-42.11-17.66-39.27-25.74-31.4-82.12S688.28,531.05,688.28,531.05z"/>
		<path d="M732.95,301.44c0,0-49.79,63.78,0,62.92l31,7.19c0,0,13.06,16.55,18.96,64.84c1.36,11.16,0.41,22.48-2.73,33.27l0,0
			l-16.23,65.16c0,0,27.57,86.4,85.41,59.31c39.77-18.62,36.97-63.1,31.33-89.09c-4.06-18.72-6.89-37.69-8.16-56.81l-3.23-94.49
			c-0.91-26.65-14.62-51.46-37.2-65.65c-10.06-6.32-22-10.71-35.53-10.26C751.98,279.31,732.95,301.44,732.95,301.44z"/>
		<path class="st12" d="M904.28,751.56c0,0-49.11,16.6-62.69,4.62c19.53-20.37,42.26-53.55,55.37-104.92
			c12.99-50.87,13.18-91.07,10.02-118.77l0,0c7.11,8.02,11.96,17.78,14.06,28.28l14.73,73.64
			C935.76,634.41,962.11,731.06,904.28,751.56z"/>
		
			<ellipse transform="matrix(0.2939 -0.9558 0.9558 0.2939 171.4433 1024.993)" class="st10" cx="779.49" cy="396.45" rx="20.41" ry="13.26"/>
	</g>
	<g>
		<path class="st13" d="M481.08,293.95l-15.44-31.12c5.41-2.76,9.12-8.38,9.12-14.87v-64.7c0-9.22-7.48-16.7-16.7-16.7H328.93
			c-9.22,0-16.7,7.48-16.7,16.7v64.7c0,9.22,7.48,16.7,16.7,16.7h108.9L481.08,293.95z"/>
		<g>
			<path class="st14" d="M458.94,201.06H329.52c-1.47,0-2.66-1.19-2.66-2.66c0-1.47,1.19-2.66,2.66-2.66h129.42
				c1.47,0,2.66,1.19,2.66,2.66C461.6,199.87,460.41,201.06,458.94,201.06z"/>
		</g>
		<g>
			<path class="st14" d="M458.94,220.47H329.52c-1.47,0-2.66-1.19-2.66-2.66c0-1.47,1.19-2.66,2.66-2.66h129.42
				c1.47,0,2.66,1.19,2.66,2.66C461.6,219.27,460.41,220.47,458.94,220.47z"/>
		</g>
		<g>
			<path class="st14" d="M417.38,239.85h-87.86c-1.47,0-2.66-1.19-2.66-2.66s1.19-2.66,2.66-2.66h87.86c1.47,0,2.66,1.19,2.66,2.66
				S418.85,239.85,417.38,239.85z"/>
		</g>
	</g>
	<path class="st15" d="M926.6,784.28H112.57c-8.37,0-15.15-6.78-15.15-15.15v-1.95c0-8.37,6.78-15.15,15.15-15.15H926.6
		c8.37,0,15.15,6.78,15.15,15.15v1.95C941.75,777.5,934.97,784.28,926.6,784.28z"/>
</g>
</svg>
