<svg version="1.1" id="Layer_1" xmlns="http://www.w3.org/2000/svg" x="0" y="0" viewBox="0 0 1000 736.1" style="enable-background:new 0 0 1000 736.1" xml:space="preserve"><style>.st0{fill:#e6d6fb}.st2{fill:#fff}.st5{fill:#d1d3d4}.st7{fill:#f1f2f2}.st8{fill:#429e93}.st10{fill:#333}.st11{fill:#ff4d53}.st12{fill:#dd4551}.st13{fill:#bcbec0}.st14{fill:#eab39d}.st15{fill:#212020}.st19{fill:#f7bb92}.st22{fill:#f9b191}.st23{fill:#362315}.st25{fill:#3e5f93}.st27{fill:#fffef8}.st31{fill:#7240c1}.st32{fill:#111}</style><ellipse class="st0" cx="154.8" cy="250.1" rx="72.2" ry="73.7"/><ellipse class="st0" cx="901.4" cy="419" rx="72.2" ry="73.7"/><path d="M926.2 717.5 179 714.4s-.4-.4-1-1.2c-9.9-12-85.9-110.7-53.5-266.6 1.6-7.6 3.4-15.3 5.5-23.2 30.6-113.9 42-161.3 21-227.1-21-65.8-25.6-135.5 62.4-167.3C301.4-2.7 339 4.9 530 40.1c191 35.2 268-70.2 361.4 88.4 0 0 52.8 90 3.8 246.9 0 0-14.8 118.2 31.1 226 45.7 107.8-.1 116.1-.1 116.1z" style="fill:#cfb5f6"/><path class="st0" d="M930.1 681.9c-.6 19.2-8.3 27.7-13.8 31.3-3.2 2.1-5.7 2.6-5.7 2.6l-622.7-2.6h-1l-93.9-.4s-.1-.1-.2-.3c-5-5.9-83-100.4-52.9-253 .8-4.3 1.8-8.6 2.8-12.9 1-4.4 2.1-8.8 3.3-13.3 29.4-109.4 40.3-154.9 20.2-218.1C145.9 152 141.5 85.1 226 54.6s120.6-23.2 304 10.7 257.3-67.5 347 84.9c0 0 50.7 86.5 3.7 237.1 0 0-1.7 13.7-2.1 36-.2 14.3.1 32.2 1.7 52.2 3.2 38.3 11.3 84.5 30.2 128.9 4.4 10.3 7.9 19.7 10.7 28.2 7 21.4 9.3 37.4 8.9 49.3z"/><path class="st2" d="M287.8 446.6v266.6h-1l-93.9-.4s-88.8-100.9-50.4-266.2h145.3z"/><path d="M280.2 459.5v253.3h-1l-86.5-.3c-5-5.9-83-100.4-52.9-253h140.4z" style="opacity:.82;fill:#f1f2f2"/><path style="fill:#e6e7e8" d="M154.8 399.9h22.4v46.7h-22.4z"/><path class="st5" d="M177.2 374.6H192v72h-14.8z"/><path d="M922.1 713.2H726.3V475.4h154.1c3.2 38.3 11.3 84.5 30.2 128.9 4.4 10.3 7.9 19.7 10.7 28.2 6 21.6 8.5 37.6 8.8 49.5.6 19.7-4.5 27.9-8 31.2z" style="opacity:.47;fill:#808285"/><path class="st7" d="M725.6 446.3h154.1v26.5H725.6z"/><path class="st8" d="M872 656.1s-70-30.9-67.1-107.3c.6-16.2 19.3-25 32.2-15.2 22.8 17.5 49.4 53.4 34.9 122.5z"/><path d="M872.6 669.7s-72.3-157.7 0-173.4 0 173.4 0 173.4z" style="fill:#488981"/><path class="st8" d="M876.5 657.9s-17.7-51.2 23.3-86.5c8.7-7.5 22.3-2.1 23.4 9.4 2 20.2-3.9 51.3-46.7 77.1z"/><path transform="rotate(-180 649.277 560.55)" class="st10" d="M519.2 550h260.1v21.1H519.2z"/><path class="st10" d="M695.4 564.8 713.1 710s-6.3 9.9-14.4 0L679 564.8h16.4zM663 564.8l-22.6 144.5s-10.6 12.1-11.3-5.6l20.5-138.9H663zM767.4 564.8 788.5 710s9.9 10.6 14.1-2.8l-23.3-146.6-11.9 4.2z"/><path class="st11" d="m850.5 342-49.3 186.8s-6.3 16.9-21.9 21.1c-15.5 4.2-150.2 4.2-150.2 4.2l84-212.1h137.4z"/><path class="st12" d="m835.7 342-46.5 138.2s-18.3 39.9-76.1 45.8l-74.9 5.6L713.1 342h122.6z"/><path class="st2" d="M610.4 85.8h137.1v186.6H610.4z"/><path class="st7" d="M624.4 104.8h109.1v148.5H624.4z"/><path class="st13" d="m650.6 179.4-1.4-.6c7.6-19.2 30.8-34 34.1-36v-32h1.5v32.9l-.4.2c-.3.1-25.8 15.4-33.8 35.5zM712.3 179.3c-.1-.3-6.7-29-28.4-32.1l.2-1.5c22.8 3.2 29.6 33 29.7 33.3l-1.5.3z"/><path class="st13" d="M703.6 162.7h1.5v20h-1.5z"/><path transform="rotate(-74.425 708.842 158.009)" class="st13" d="M708.1 150.1h1.5v15.8h-1.5z"/><path transform="rotate(-82.82 659.413 170.908)" class="st13" d="M651.2 170.1h16.5v1.5h-16.5z"/><path class="st13" d="M650.2 205c-4.8 0-8.2-.7-8.3-.7l-.4-.1-.2-.4c-.1-.2-8-20.8 4.1-49.6 4.3-10.1 9.1-15.4 14.3-15.8 6.7-.5 11.4 7.2 11.6 7.6l.1.3 4.6 44.3-.1.2c-4.4 12-17.1 14.2-25.7 14.2zm-7.6-2.1c3.4.6 25.8 3.6 31.8-12.5l-4.5-43.7c-.6-1-4.7-7.1-10.1-6.7-4.6.3-9 5.3-13 14.9-10.9 26-5.2 45-4.2 48zM713.1 201.5c-1.2 0-2.6-.1-3.9-.2C698.8 200 691 191 691 180.2v-34l.1-.2c.2-.3 5.5-7.4 12.7-6.9 4.9.3 9.3 4 13.3 10.9 12 21.1 10.7 47.4 10.7 47.7v.4l-.4.2c-.3 0-6 3.2-14.3 3.2zm-20.6-54.8v33.5c0 10 7.3 18.4 16.9 19.5 8.5 1 15.2-1.9 16.8-2.7.1-3.5.4-27.2-10.5-46.4-3.7-6.5-7.7-9.9-12-10.1-5.7-.3-10.3 5.1-11.2 6.2z"/><path class="st13" d="M653 157.3h14v1.5h-14z"/><g><path class="st2" d="M435.1 85.8h137.1v186.6H435.1z"/><path class="st7" d="M449 104.8h109.1v148.5H449z"/><path class="st13" d="M501.9 215.9h-17.2l-6.4-12.8.2-.3 41.2-82.5 22.6 12-40.4 83.6zm-16.2-1.5H501l39.3-81.4-19.9-10.6-40.3 80.7 5.6 11.3z"/><path transform="rotate(-62.684 479.938 225.35)" class="st13" d="M468.4 224.6h23v1.5h-23z"/><path transform="rotate(-64.068 521.743 146.408)" class="st13" d="M521 126.3h1.5v40.3H521z"/><path transform="rotate(-61.426 512.684 160.145)" class="st13" d="M511.9 149.8h1.5v20.6h-1.5z"/><path transform="rotate(-64.004 492.655 203.559)" class="st13" d="M491.9 191.3h1.5v24.4h-1.5z"/><path transform="rotate(-61.674 490.314 209.132)" class="st13" d="M489.6 196.5h1.5v25.3h-1.5z"/><path transform="rotate(-65.021 500.55 172.835)" class="st13" d="M499.8 169.5h1.5v6.7h-1.5z"/><path transform="rotate(-67.833 493.933 192.672)" class="st13" d="M493.2 188.8h1.5v7.8h-1.5z"/><path transform="rotate(-60.045 531.047 127.018)" class="st13" d="M530.3 105.8h1.5v42.4h-1.5z"/></g><g><path class="st10" d="M248.4 550h260.1v21.1H248.4z"/><path class="st10" d="M332.3 564.8 314.6 710s6.3 9.9 14.4 0l19.6-145.2h-16.3zM364.7 564.8l22.6 144.5s10.6 12.1 11.3-5.6L378 564.8h-13.3zM260.4 564.8 239.2 710s-9.9 10.6-14.1-2.8l23.3-146.6 12 4.2z"/><g><path class="st11" d="m177.2 342 49.3 186.8s6.3 16.9 21.9 21.1c15.5 4.2 150.2 4.2 150.2 4.2l-84-212.1H177.2z"/><path class="st12" d="m192 342 46.5 138.2s18.3 39.9 76.1 45.8l74.9 5.6L314.6 342H192z"/></g></g><g><path class="st14" d="M555.7 669.8v14.4l-14.5 13.4s.4 6.4 14.5 2 24-16 24-16l-2.7-15.2-21.3 1.4z"/><path class="st15" d="M545.3 693.9s-19.5 6.9-17.4 14.5c2.1 7.6 8.6 6.1 8.6 6.1l40.9-1.4c2.8-.1 5.1-2.4 5.1-5.3v-27.1h-4.9s-12.9 14.7-22.5 16.3-12.9 2.7-9.8-3.1z"/><path class="st14" d="M589.2 669.8v16.9s-13.7 7.5-12.3 12.8c2.6 10.4 22.6-4.4 22.6-4.4l12.3-9.5V667l-22.6 2.8z"/><path class="st15" d="M613.5 679.6s5.6 5.7 2.5 29.6c0 0-.4 4.9-6 5.1-5.6.2-37 0-37 0h-12.5s-6.6-11.9 14.2-17.3c0 0 6.7 4.1 21.9-3.6s16.9-13.8 16.9-13.8z"/><ellipse class="st14" cx="630.1" cy="245.1" rx="28.3" ry="36.2"/><path class="st14" d="M625.2 276.1v26.4s-9.5 26.9 6.7 25.9c16.2-.9 43.4-34 43.4-34l-15.5-8.4-6-25.4-28.6 15.5z"/><path class="st15" d="M656.5 272.3s17 2 23.3-16.7c6.3-18.7 2.8-30.7 2.8-30.7s24.7-3.5 15.9-30c0 0-7.3-18.7-20-17.6-12.7 1.1-17.4 7-20 17.6 0 0-25.8-7.8-36 0-10.3 7.8-26.5 21.5-22.3 38.1l2.2 5.1s14.3-22 30.9-23.1h4.9s-1.8 22.1 11.8 31 6.6 12.1 6.6 12.1l-1.8 6.7 1.7 7.5z"/><path d="m575.8 469.3-49.3 31s-14.1 9.5-4.9 44.4 25.6 127.2 25.6 127.2h32.6l-6.7-142s3.2-23.3 33.8-34.2l19.1-7.6-50.2-18.8z" style="fill:#2d2d2d"/><path d="M703.8 482s8.1 39.1-31 51.8c-39.1 12.7-52.9 22.6-52.9 22.6v111.7l-42.6 3.9-7-122s-11-34.9 27.4-54.3l22.9-7.2 83.2-6.5z" style="fill:#141414"/><path d="M672.7 289.9s32.1 10.2 31.7 37c-.4 26.8-7 53.9-7 53.9s-9.2 22.2 4.6 63.1c13.7 40.9 7.8 40.1 7.8 40.1s-102.6 23.7-136.8-3.8l7.3-161.7c.3-6.1 3.9-11.5 9.5-14 11.5-5.2 30.3-13.5 34.7-12.9l2.8 3s-5.3 26 .4 28.4c0 0 5.7 6.6 26.1-10.3-.1 0 18.2-16.1 18.9-22.8z" style="fill:#feac02"/><ellipse transform="rotate(-77.814 658.39 249.49)" class="st14" cx="658.4" cy="249.5" rx="9" ry="7"/></g><g><ellipse transform="rotate(-12.298 565.86 292.569)" class="st19" cx="565.9" cy="292.6" rx="6.5" ry="9.5"/><ellipse class="st19" cx="590.1" cy="282.9" rx="28.1" ry="29.7"/><ellipse transform="rotate(-75.066 618.186 289.87)" class="st19" cx="618.2" cy="289.9" rx="9.5" ry="6.5"/><path class="st15" d="M561.8 283.3s4.9-17.1 14-18.1c9.2-1.1 2.8 3.9 2.8 3.9s14.1-2.4 14.8-4c.7-1.6-3.3 5.4-3.3 5.4s11.1-1.8 11.1-3.9v5.3l5.3-1.4s2 9.1 8.2 12.5c6.2 3.4 3.5 3 3.5 3s1.7-17.2-12.1-27.5c-13.7-10.2-29.2-1.8-29.2-1.8s-14 2.8-15.1 26.6z"/><path class="st19" d="M572.6 302.5v8.1s-12-3.7-22.2 2-28.2 33.6-48.6 40.3c-20.4 6.7-33.8 8.5-29.3 23.5 0 0-.7 8.3 13.4 6.9 14.1-1.4 7.8-8.5 7.8-8.5s28.2-6.7 36.3-14.1c0 0-3.2 7.4-11.3 12.3-8.1 4.9-18 8.1-19.4 16.6 0 0-15.9 1.8-19 2.5-3.2.7-4.9 6.7 1.1 8.5s12 9.5 16.9 11.6c4.9 2.1 10.2.7 9.9-8.1 0 0 4.9-12.7 9.5-13.4 4.6-.7 9.9 10.2 15.2 12.3 5.3 2.1 10.9-.4 10.9-.4l3.2-2.1-8.1 26.4s-19 7.4-19 12.7c0 5.3-.4 7.8 5.3 6.7 5.6-1.1 22.2.2 22.2.2s6.7-.3 5.3-9.8c-1.4-9.5 9.5-24.6 9.5-24.6s13-4.6 22.9-1.8c9.9 2.8 22.1-21.5 23.8-32.1s1.5-12 1.5-12 12 9.9 13 17.3c0 0-7.5 11.3-4.6 15.2 2.8 3.9 13.4 12.3 17.6.7 4.2-11.6 0-17.6 0-17.6s-9-40.5-18.3-49.3-21.9-16.2-21.9-16.2l-2.8-7.4-20.8-6.4z"/><path d="M555 345.5s45.9 20.4 56.8 18c0 0-4.8 42.3-23.5 46.9 0 0-19.9-34.9-33.3-32.4l-6.7-1.6-8.5-18.9 15.2-12z" style="fill:#fffaf7"/></g><path d="m648.8 396.3 21.8 17.6s23.5-16.9 26.8-33.1c3.3-16.1 6.8-47.2 6.8-47.2s1.5-20.3-8.2-28.6c0 0-31.1-3.6-31.1 26 .1 0-5 58.3-16.1 65.3z" style="fill:#e89707"/><path class="st14" d="M670.6 413.9s-7.2 28.1-28.6 16.9-61.6-39.2-61.6-39.2-8.4-5-14.8-5c-3.2 0-6.2-1.8-7.8-4.6-2.8-4.6-4.8-11.1 2.6-14.3 12.3-5.4 29.2 5.2 29.2 5.2l23.4 11.3 29.1 15.6 6.8-3.6 21.7 17.7z"/><g><path class="st22" d="M414.8 664.9v24s15.6 23.3 40.5 8.5l-13.8-13.7V665h-26.7zM470.4 669.8v22.6s28.2 16.2 38.1 9.9l-12-15.5v-16.9h-26.1z"/><path class="st23" d="M416.2 680.4s-4.3-5.6-5 14.1c-.7 19.7 5 21.1 5 21.1h62s-1.6-9-19.5-18c-16.7-8.4-4.5-5-6.8-3.7 0 0-21.5 16.8-35.7-13.5z"/><path class="st23" d="M465.5 683.6v32.1l64.1-3.5s-3.3-13.6-26.7-17c0 0-8.6 11.4-32.5-11.5h-4.9z"/><ellipse transform="rotate(-12.298 394.966 239.792)" class="st22" cx="395" cy="239.8" rx="23.3" ry="38.1"/><path d="M417.7 234.9s18.2-20.4 3.4-32.4c-14.8-12-38.4-12.7-50.2-9.9-11.8 2.8-25.2 25.4-18.2 47.2 0 0-29.6-2.1-22.6 36l6.3 14.1 30.3-13.4 4.6-36.7s20-11.8 19.3-24.7c-.6-12.8 23.4-5.1 27.1 19.8z" style="fill:#523227"/><path class="st22" d="m396.4 267.7 6.3 39.5s-23.3 21.5-38.1-3.2l.4-53.9 31.4 17.6z"/><path class="st25" d="M450 518.3s21.1 25.4 17.6 59.2c-3.5 33.8-4.2 98.7-4.2 98.7H505s2.1-100.8 12-131.8c0 0 8.9-26.7-8.5-42.3-17.3-15.6-23.9-13.4-23.9-13.4l-47.3-.1 12.7 29.7z"/><path class="st25" d="m370.9 545 35.4 14.8v110h44.4L457 550s11.3-61.2-24-57.1c-4 .5-22.5-1.7-22.5-1.7s-34.9-6.8-39.6 53.8z"/><path d="M398.5 283.1h13.4s18.3 38.5 9.2 73l-11.8 84.6s-5.2 24 47.7 49.3l-47.9 5.6s-32.4-6.3-55.7-38.8c0 0-10.6-9.2 0-74 0 0 14.3-44.5-1.7-99.8l13.1-3.8s3.6 27.1 16.7 29.6c.1.1 22.7.7 17-25.7z" style="fill:#4570ad"/><path class="st22" d="M470.4 383.4s.7 12.2 21.9 4.1c21.1-8.1 62.7-39.1 62.7-39.1s9.2-7 9.2-16.2l5.6-2.8s2.8-12-5.6-9.2-25.4 6.3-26.1 19.7l-46.5 16.9s-26.1 1.1-21.2 26.6z"/><ellipse transform="rotate(-12.298 370.829 245.054)" class="st22" cx="370.9" cy="245.1" rx="7.1" ry="11.6"/><path class="st27" d="M411.9 283.1s11.3 51.9 2.8 80.1c-8.5 28.2-21.1 83.2-4.2 101.5 16.9 18.3 40.7 26.1 40.7 26.1s46.7 2.1 57.3 11.3c0 0-25.9-28.8-65.6-41.6 0 0-14.1-27.5-5.6-64.5l4.2-36.3 33.8 27.8s-11.3-20.8 16.2-30.7L457 316.1s-22.5-34.6-45.1-33z"/><path d="M437.3 342c1.3 2.8 2.1 5.7 2.9 8.6.7 2.9 1.3 5.9 1.4 9-1.3-2.8-2.1-5.7-2.9-8.6-.7-2.9-1.3-5.9-1.4-9z" style="opacity:.29;fill:#232222"/><path class="st27" d="M355.5 283.1s-33.1.4-47.2 26.5c-14.1 26.1-13.4 89.5-13.4 89.5s6.3 19.7 3.5 38.8c-2.8 19-8.5 54.3 0 71.2 8.5 16.9 83.2 45.1 83.2 45.1s-5.5-42.6 34.6-59.3l-34.6-22.4s-31.9-25.8-26.5-53.8c5.4-28 9.6-74.5 9.6-74.5s0-46.7-9.2-61.1z"/><path class="st22" d="M313.5 415.5c-6.7 3.9-14.4 10.7-8.8 20.3l57.6 32s-.2 13.6 11.5 15.9c8.1 1.6 13.1-4.1 15.4-7.8 1-1.6 1-3.6 0-5.2-2.4-3.7-7.2-10.6-11.2-13.1l-50.2-40.9c-4.1-3.2-9.8-3.8-14.3-1.2z"/><g style="opacity:.29"><path d="M337.2 342c-.1 5.8-.5 11.6-.8 17.3-.3 5.8-.8 11.5-1.2 17.3-.5 5.8-1 11.5-1.6 17.3l-.9 8.6c-.4 2.9-.7 5.7-1.1 8.6l.3-8.7.5-8.7c.3-5.8.8-11.5 1.2-17.3.5-5.8 1-11.5 1.6-17.3.6-5.6 1.2-11.3 2-17.1z" style="fill:#232222"/></g><circle class="st5" cx="366.8" cy="249.5" r="3.3"/><path class="st15" d="m398.9 359.1-14.5-51.6c-.2-.8.2-1.7 1.1-1.9.8-.2 1.7.2 1.9 1.1l10.9 38.6 8.2-46.2c.1-.8.9-1.4 1.8-1.2.8.1 1.4.9 1.2 1.8l-10.6 59.4z"/><path class="st15" d="M451.4 391.6c-16.3 0-30.7-3.3-40.2-8.4-18.4-9.9-14.2-31.1-14.2-31.3.2-.8 1-1.4 1.8-1.2.8.2 1.4 1 1.2 1.8-.2.8-3.8 19.1 12.6 27.9 17.2 9.3 50.9 12.2 82.2-.1 30.8-12.1 64.2-35.9 64.5-36.1.7-.5 1.7-.3 2.1.4.5.7.3 1.7-.4 2.1-.3.2-34 24.2-65.2 36.5-14.7 6-30.3 8.4-44.4 8.4z"/><ellipse class="st15" cx="565.9" cy="342.4" rx="5.6" ry="8.8"/><path class="st5" d="M385.8 308.7c-.5 0-1-.3-1.3-.7-.1-.2-11.4-18.1-23.9-33.7-4.5-5.6-6.1-10.7-4.9-15.2 1.7-6.3 8.4-8.9 8.7-9 .8-.3 1.7.1 2 .9.3.8-.1 1.7-.9 2-.1 0-5.5 2.2-6.8 7-1 3.5.5 7.7 4.3 12.5 12.6 15.7 24 33.8 24.1 34 .5.7.2 1.7-.5 2.1-.2 0-.5.1-.8.1z"/><path transform="rotate(-1.738 407.718 288.24) scale(.99996)" class="st5" d="M406.2 275.6h3.1v25.2h-3.1z"/></g><path class="st15" d="M116.5 714.1h799.4v5.6H116.5z"/><g><circle class="st31" cx="270" cy="158.3" r="43.4"/><circle class="st27" cx="269.4" cy="158.8" r="34.4"/><path class="st31" d="M235.8 158h4.5v4.5h-4.5zM266.5 126h4.5v4.5h-4.5zM266.5 187.1h4.5v4.5h-4.5zM298.4 158h4.5v4.5h-4.5zM267.5 137.9h3.7v26.8h-3.7z"/><path class="st31" d="M267 158.8h26.4v3H267z"/></g><path class="st32" d="M899.2 715.2h-53.1c-9.3 0-16.8-7.5-16.8-16.8v-69.9h86.6v69.9c0 9.3-7.5 16.8-16.7 16.8z"/><path class="st32" d="M829.3 639.1h86.6v3.3h-86.6zM829.3 683.5h86.6v3.3h-86.6z"/><path class="st13" d="M829.3 644.7h86.6v3.3h-86.6zM829.3 671.9h86.6v9.3h-86.6z"/><path class="st0" d="M177.9 711.6S11.8 728 44.2 656.3s133.7 55.3 133.7 55.3z"/><path class="st0" d="M134.9 646.6S41.2 634 40.1 549.4s20.4-108.3 1.1-158.8l33.7 43.8c12.4 16.1 20.4 35 23.4 55.1 7.3 48.8 22.5 141 36.6 157.1zM94.7 439.9s-55.7-64.7-9.8-94.7 9.8 94.7 9.8 94.7z"/></svg>