<svg version="1.1" id="Layer_1" xmlns="http://www.w3.org/2000/svg" x="0" y="0" viewBox="0 0 1000 751.9" style="enable-background:new 0 0 1000 751.9" xml:space="preserve"><style>.st0{opacity:.11;fill:#8b22e2}.st2{opacity:.15}.st3{opacity:.5;fill:#464353}.st4{fill:#fbbebe}.st5{fill:#464353}.st7{fill:#fa0}.st9{fill:#965a63}.st10{fill:#466eb6}.st11{fill:#e4eaf4}.st13{fill:#a1616a}.st17{fill:none;stroke:#e4eaf4;stroke-width:4;stroke-linecap:round;stroke-miterlimit:10}</style><path class="st0" d="M166.8 670.8s-210.6-68.1-159.2-274 188.2-272.6 188.2-272.6 126-46 209.9 84.9 139.1 12.2 139.1 12.2S546.6-89 757.4 26.9 1036.2 326.2 960 465.6s-133.6 189.7-311.8 198-481.4 7.2-481.4 7.2z"/><path class="st0" d="M171.8 700.8s-210.6-68.1-159.2-274 188.2-272.6 188.2-272.6 126-46 209.9 84.9 139.1 12.2 139.1 12.2S551.6-59 762.4 56.9 1041.2 356.2 965 495.6s-133.6 189.7-311.8 198-481.4 7.2-481.4 7.2z"/><path style="opacity:.82;fill:#6788ba" d="m90.5 553.5-20.6 186 892.9-13.4V554.7z"/><path class="st2" d="m180.3 662.2-1.2 3.9c-5.1 16.2 7.1 32.8 24.1 32.7l683.1-3.6c13.8-.1 25-11.3 25-25.1 0-13.9-11.2-25.1-25.1-25.1l-681.8-.3c-11.1-.1-20.8 7-24.1 17.5z"/><path class="st3" d="M435.8 456.1h-25.5c-3.4 0-6.2-2.8-6.2-6.2V430c0-3.4 2.8-6.2 6.2-6.2h25.5c3.4 0 6.2 2.8 6.2 6.2v19.9c0 3.4-2.8 6.2-6.2 6.2zM479.5 456.1H454c-3.4 0-6.2-2.8-6.2-6.2V430c0-3.4 2.8-6.2 6.2-6.2h25.5c3.4 0 6.2 2.8 6.2 6.2v19.9c0 3.4-2.8 6.2-6.2 6.2zM539.8 468.8h-19.1c-3.4 0-6.2-2.8-6.2-6.2v-14.5c0-3.4 2.8-6.2 6.2-6.2h19.1c3.4 0 6.2 2.8 6.2 6.2v14.5c0 3.4-2.8 6.2-6.2 6.2zM539.8 522.9h-19.1c-3.4 0-6.2-2.8-6.2-6.2v-14.5c0-3.4 2.8-6.2 6.2-6.2h19.1c3.4 0 6.2 2.8 6.2 6.2v14.5c0 3.5-2.8 6.2-6.2 6.2zM578.4 523.7h-19.1c-3.4 0-6.2-2.8-6.2-6.2V503c0-3.4 2.8-6.2 6.2-6.2h19.1c3.4 0 6.2 2.8 6.2 6.2v14.5c0 3.4-2.8 6.2-6.2 6.2zM578.4 468.8h-19.1c-3.4 0-6.2-2.8-6.2-6.2v-14.5c0-3.4 2.8-6.2 6.2-6.2h19.1c3.4 0 6.2 2.8 6.2 6.2v14.5c0 3.4-2.8 6.2-6.2 6.2zM417.7 456.1h8.9v49.5h-8.9z"/><path class="st3" d="M462.3 455.8h8.9v49.5h-8.9zM525.8 468.8h8.9v27.3h-8.9zM564.4 468.8h8.9v28h-8.9z"/><ellipse transform="rotate(-20.331 144.786 335.806)" class="st4" cx="144.8" cy="335.8" rx="50.6" ry="59.8"/><path class="st5" d="M172.4 281.4c-26.8-14.4-57.8 0-57.8 0-8.7 4.5-15.1 9.3-19.8 14.1-15.8-.7-34.5 17-29.1 57.2 6.2 46.1-2.1 61.2-2.1 61.2s-15.8 28.9-4.1 39.2 4.8 35.1 4.8 35.1c39.2-8.9 31-59.2 31-59.2s19.3-19.9-5.5-63.3c-13-22.7-10.8-31-5.8-33.8.6 2 1.1 3.2 1.1 3.2-10.3 23.4 29.6 43.3 29.6 43.3s1.4-44.7 19.3-34.4c17.9 10.3 23.4-13.5 23.4-13.5s0-18.1 24.8-19.5c24.6-1.4-9.8-29.6-9.8-29.6z"/><path class="st4" d="m570.7 608.8 37.6 21.6 33.4-35.8-47.7-18.3z"/><path d="M615.1 582.7 582.9 617l-3.1 3.3-45.8-12.8c-23.4 1.4-58.7-18.3-70.6-44.5-11.9-26.1-14.2-14.2-14.2-14.2l-17 16.1c-22.5 46.3-71.1 70.6-71.1 70.6S337.7 679 285 686.8c-52.7 7.8-64.7-29.3-65.6-41.3-.2-2.6-1-5-2-7.4-.2-.3-.3-.6-.3-.6-4-8.2-11.6-14.3-11.6-14.3 10.1-22.9 69.4-84.6 69.4-84.6l16.5 22s-2.3 18.3 10.5-1.4 60.5-40.3 60.5-40.3l78-45c35.8-11.9 49.1 22.8 49.1 22.8l20.2 17.6c1.6.6 4.3 1.9 8.7 4.1 22.9 11.5 36.7 29.8 36.7 29.8l60 34.5z" style="fill:#8b22e2"/><path class="st4" d="M123.5 372.2v53.7l81.2 43.3 23.4 6.2v-17.9l-39.2-26.8-22.7-6.9-4.8-45.4zM164.7 566.9l44.5 61.7 75.7-77.1-37-42z"/><path class="st7" d="m261.6 511.6-85.1 53-8.5 5.3-29.1-25.7s3.1-1.3 7.8-4.1c12.4-7.3 35.7-24.8 39-54.2 4.5-40.1-68.2-57.8-68.2-57.8l6-6.9c12.4-2.8 40.4 14.7 40.4 14.7l40.8 25.7c25.3 5.9 4.1-7.3 4.1-7.3l-42.7-30.5h9.6l17.2 14s18.1 11.5 36.9 21.6c18.9 10 31.8 52.2 31.8 52.2z"/><path d="m176.5 564.6-8.5 5.3-29.1-25.7s11.1-4.3 15.8-7.1l21.8 27.5z" style="opacity:.14"/><path class="st4" d="m320.3 448.3-41.7 98.1-29.8 8.3-8.3-24.8 33.9-63.3 6-22.9s-1.8-48.7 22-37.9c23.8 10.9 17.9 42.5 17.9 42.5z"/><path class="st9" d="m732.5 581 2.8 58.4 33.9-23.5 39.1-27.5 36.4-.3 27.8 1.2s5.5-45.7-9.8-48c-15.3-2.3-30.6 6.7-30.6 6.7l-99.6 33z"/><path class="st10" d="M907.7 579.7v49s-4 13.8-13.1 22.1c-5.4 4.8-13.5 5-19.4 4.4-4.2-.5-7.2-1.4-7.2-1.4s-9.5-8.9-.9-20.5-9.2-26.6-9.2-26.6-10.7-2.8-14.1-13.5c-3.4-10.7 20.2-10.7 20.2-10.7s4.9-11.6-2.5-26.6c-7.3-15 7-22.6 7-22.6h37.4c10.8 12.2 1.8 46.4 1.8 46.4z"/><path class="st11" d="M907.7 579.7v49s-4 13.8-13.1 22.1c-5.4 4.8-13.5 5-19.4 4.4 18.9-12.8 24.8-34.4 24.8-34.4 3.1-17.9 0-65-1.7-87.5h7.8c10.6 12.2 1.6 46.4 1.6 46.4z"/><circle class="st5" cx="295.3" cy="419.2" r="54.8"/><path class="st4" d="M302.4 465.8 267.1 552s-12.4 63.8-44.9 42.7c-32.6-21.1-67.9-39.7-67.4-58.4l-15.8 7.9s-11.7-2.8-19.5-20.2c0 0-20.6-30.7-14.2-61 0 0 .2-1.8.6-4.5 1.6-10.7 7.3-36.2 23.9-29.3 20.9 8.6 40.2 9.5 51.2 31.6 11 22 4.1 29.3 4.1 29.3s25.2 17 32.1 38.5c0 0 2.8 13.2 11 3.9 8.3-9.4 29.3-30 39-57.1s0-2.3 0-2.3l.5-10.5s-9.2-76.6 28.4-67c5.7 1.5 9.8 4.1 12.7 7.5 16 19.1-6.4 62.7-6.4 62.7z"/><path d="M302.4 465.8 267.1 552s-12.4 63.8-44.9 42.7c-32.6-21.1-67.9-39.7-67.4-58.4l-15.8 7.9s-11.7-2.8-19.5-20.2c0 0-20.6-30.7-14.2-61 0 0 .2-1.8.6-4.5 5.5 21.7 17.8 60.8 37 69.7 0 0 11.5-2.8 29.8 17.9 18.3 20.6 52.2 41.7 52.2 41.7s17 11.5 26.2-11.5c9.2-22.9 46.3-109.6 46.3-109.6s12.6-39.8 11.3-63.6c16.1 19.1-6.3 62.7-6.3 62.7z" style="opacity:8.000000e-02"/><path class="st5" d="M586.7 618.1s-15.2 6.4-7.4 35.7c0 0-3.2 15.6 26.8 5.5l74.1-8.3s31.6-11 22.9-29.8-61.5-26.6-61.5-26.6-14.9 34.5-54.9 23.5z"/><circle class="st13" cx="616.1" cy="252.5" r="53.7"/><path class="st5" d="M556 205.7s-18.8 38.1 17.9 25.2c36.7-12.8 37.6 15.6 37.6 15.6s9.6 18.3 20.6 4.1c11-14.2 22.5-3.2 22.5-3.2s6.4 15.4 22 8.6c0 0 11.9-23.7 2.8-46.2-9.2-22.5-22-19.3-22-19.3s-11.5 0-25.7-16.1-35.3-3.2-35.3-3.2-17.4 19.7-22.9 21.6-16.1 1.9-17.5 12.9z"/><path class="st13" d="M623.4 297s25.7 4.1 30.3 35.8v31.6s5.5 28.9 10.1 0 2.8-50.4 2.8-50.4 3.7-46.3 16.3-51.8H656L623.4 297z"/><path class="st9" d="M656.1 390.2v47.4s6.7 9.2 0 30.9-1.2 77.4-1.2 77.4-7.9 13.8-7.9 26.9c0 13.1-23.5 21.6-23.5 21.6l21.4 34.3 36.1-58.9 6.7-104.9 9.8-70.9-41.4-3.8z"/><path class="st7" d="M646.9 313.5s-14.8 11.9-13.9 22.9c.9 11 15.6 19.3 15.6 34.9 0 15.6-.5 27 18.8 38l7.8 2.8s55.5-19.3 84.8-12.8c29.4 6.4 84.1 19.7 120.2 46.8 18.2 13.7 22.9 23.8 22.9 23.8s17.4-18.3 10.1-29.3-14.6-10.6-14.6-10.6-10.5 3.6-15.6-25.7c0 0-14.7-37.1-40.4-53.6s-57.8-48.2-57.8-48.2-24.7-23.9-45.8-27.5l-32.1-12.8s-21.6-13.8-31.6 2.3-10.5 41.7-10.5 41.7l-1.2 53.1s1.6 10.8-4.5 8.8c-3.3-1.1-5.2-4.5-4.6-7.9 1.8-10.3 1.3-36.5-7.6-46.7z"/><path d="M902.2 496.8c-10.3 36.6-44 32.2-44 32.2-20 20.6-42 30.3-42 30.3s-2.1 21.3-48.8 35.3c-44.1 13.2-78.4-13.3-70.7-14.9.5-.1 1.1-.1 1.9 0 13.8 1.8 53-94.7 53-94.7 20.3 18.6 46.1 28.2 46.1 28.2 39.9-31.6 12.4-101.8 12.4-101.8s48.8 6.3 74.2 26.5c1.2 1 2.4 2 3.5 3.1 24 22.7 14.4 55.8 14.4 55.8z" style="fill:#355389"/><path class="st2" d="M902.2 496.8c-10.3 36.6-44 32.2-44 32.2-20 20.6-42 30.3-42 30.3s-2.1 21.3-48.8 35.3c-44.1 13.2-78.4-13.3-70.7-14.9 10.3 6.7 33.5 7.3 55.1 8.7 24.8 1.5 57.2-31.8 57.2-31.8l30-30.9s28.7 0 47.1-25.1c11.9-16.2 4.7-44.7-1.8-62.7 1.2 1 2.4 2 3.5 3.1 24 22.7 14.4 55.8 14.4 55.8z"/><path d="M799.9 514c3.4.6 6.7 1.4 10 2.3 3.3.9 6.6 1.8 9.8 2.8 3.2 1 6.5 2.1 9.7 3.3 3.2 1.2 6.4 2.4 9.5 3.8-3.4-.6-6.7-1.4-10-2.3-3.3-.9-6.6-1.8-9.8-2.8-3.2-1-6.5-2.1-9.7-3.3-3.2-1.2-6.4-2.4-9.5-3.8z" class="st2"/><path class="st13" d="M812.5 508c-3.3 8.2-5.9 13.1-5.9 13.1s-5.3-2.8-15.9-8.8c-9-5.1-35.2-21.3-35.2-21.3 1.2 20.4-14.3 124.7-14.3 124.7l4.8 14.7-2.1 11.5-11.4 1.2-14 1.5-22.9-16s6.4-129.8 9.1-188.2c2.7-58.5 60.6-39.9 60.6-39.9l54.4 13.8c13.8 32.4 1.1 73.2-7.2 93.7z"/><path class="st2" d="M812.5 508c-3.3 8.2-5.9 13.1-5.9 13.1s-5.3-2.8-15.9-8.8c-9-5.1-35.2-21.3-35.2-21.3 1.2 20.4-14.3 124.7-14.3 124.7l4.8 14.7-2.1 11.5-11.4 1.2 16.9-163.6 63.1 28.5z"/><path class="st10" d="M754.2 662.7s0 17.4-11.6 21.1c-11.6 3.7-47-1.2-47-1.2 0 .1-.2 5.2-31.9 5.3-32.1.2-52.9-16-52.9-16-5.2-9.1-3.6-14.7-.2-18 1.2-1.2 2.6-2.1 4.1-2.9 2.8-1.4 6-1.5 8.9-.7 2.2.6 6.9.5 17.3-2.7 19.4-5.9 22.2-12.5 22.2-12.5s10-27 23.8-31.8c13.8-4.8 13 13.2 16.3 17.9 3.2 4.7 20.7 22.8 27.1 12.4 6.3-10.4 17.9-15.8 17.9-15.8l6.1 44.8-.1.1z"/><path class="st11" d="M754.2 662.7s0 17.4-11.6 21.1c-11.6 3.7-47-1.2-47-1.2 0 .1-.2 5.2-31.9 5.3-32.1.2-52.9-16-52.9-16-5.2-9.1-3.6-14.7-.2-18l4.5 4.5c37.9 22.8 77.1 12.5 77.1 12.5 32.6 2.4 51.7-3.1 62-8.2z"/><path class="st13" d="M747.8 359.2c-6.2 2.2-11.2 2.9-11.2 2.9 8.7 29.8-22.5 128.4-22.5 128.4l-24.3 98.6s-6.8 14-17.9 29.8c-4.2 5.9-9 12.1-14.2 17.9-19.3 21.1-42.6 7.8-42.6 7.8-13.3-28.9 30.3-53.2 30.3-53.2s22.5-21.1 24.3-43.1c1.8-22 8.3-126.1 8.3-126.1s.5-39.4-6.4-57.8c-6.9-18.3-2.7-49-2.7-49s.3-14.2 16.5-32.2c16.2-18 33-5 54.1 0s30.7 36.5 30.7 36.5c7.2 24.3-10 35.1-22.4 39.5z"/><path class="st2" d="M736.7 362.1c8.7 29.8-22.5 128.4-22.5 128.4l-24.3 98.6s-6.8 14-17.9 29.8c3.6-11.4 9.2-27.9 15.1-39.2 9.8-18.8 42.4-215.3 42.4-215.3 2.5-14.8 11.8-10.3 18.3-5.2-6.2 2.3-11.1 2.9-11.1 2.9z"/><g style="opacity:.29"><path d="M224.8 631.8c5.1-5.5 10.3-10.9 15.5-16.2 5.2-5.3 10.6-10.6 15.9-15.8 5.4-5.2 10.8-10.4 16.2-15.5 5.4-5.1 11-10.2 16.6-15.1-5.1 5.5-10.3 10.9-15.5 16.2-5.2 5.3-10.6 10.6-15.9 15.8-5.4 5.2-10.8 10.4-16.2 15.5-5.4 5.1-11 10.1-16.6 15.1z" style="fill:#231f20"/></g><path class="st2" d="m582.9 617-3.1 3.3-45.8-12.8c-23.4 1.4-58.7-18.3-70.6-44.5-11.9-26.1-14.2-14.2-14.2-14.2l-17 16.1c-22.5 46.3-71.1 70.6-71.1 70.6S337.7 679 285 686.8c-52.7 7.8-64.7-29.3-65.6-41.3-.2-2.6-1-5-2-7.4 2.4 4.9 18.8 36.5 52.9 39.5 37.1 3.3 86.2-45.9 86.2-45.9l88-87.6s11.9-11.9 22 10.8c10.1 22.7 56.9 45.4 56.9 45.4l59.5 16.7z"/><path class="st17" d="m664.8 634.1 16.8 12.1M660.8 638.6l14.9 12.4M655.6 643.1l13.8 12.3M669.4 628.6l18.2 10.9M857.9 606.7l9.6-8.4M862.7 611.6l7.9-7.2M866.6 615.4l6.9-6.1M868.4 621.1l6.8-4.6M861.7 603.4s-17.1-11.4-2.5-18.9c14.5-7.5 5.4 16.4 5.4 16.4M862.7 602.5h21.5M858.4 604.4s-23.8-10.4-22.9.8c.9 11.2 21.1 2.9 21.1 2.9M860.5 604.4l-1.2 23.1M676.7 630.4s-13.6-20.9-21.1-6.6c-7.6 14.4 21.1 9.2 21.1 9.2l-16.3 18M678.5 631.8s-3.1-27.3 12.5-23.7-10.1 25.9-10.1 25.9M680.9 635.5l3.3 24.7"/><ellipse cx="136.5" cy="726.1" rx="28.1" ry="10.7" style="opacity:.13"/><path d="M154.4 630.7V615c0-4.1-3.3-7.4-7.4-7.4h-3.8v-11h-13.8v11h-3.3c-4.1 0-7.4 3.3-7.4 7.4v15.7c0 2.5 1.2 4.6 3 6-1.7.4-3 2-3 3.9v1.9c0 2.2 1.8 4 4 4h-3c-.5 0-.9.4-.9.9v73.9c0 4.2 3.4 7.5 7.5 7.5h20.8c4.2 0 7.5-3.4 7.5-7.5v-73.9c0-.5-.4-.9-.9-.9h-3c2.2 0 4-1.8 4-4v-1.9c0-1.9-1.3-3.4-3-3.9 1.5-1.3 2.7-3.5 2.7-6z" style="fill:#d1d3d4"/></svg>