<svg version="1.1" id="Layer_1" xmlns="http://www.w3.org/2000/svg" x="0" y="0" viewBox="0 0 797.96 800.71" style="enable-background:new 0 0 797.96 800.71" xml:space="preserve"><style>.st1{opacity:.65;fill:#c5bcf7}.st3{fill:#b6a5f9}.st4{fill:#886be4}.st5{opacity:.42}.st5,.st6{fill:#fff}.st7{fill:#fefffa}.st10{fill:#000100}.st11{opacity:.42}.st12{fill:#fcc1b1}.st13{fill:none;stroke:#e6e7e8;stroke-width:2;stroke-miterlimit:10}.st14{fill:#ffc446}.st17{opacity:.49;fill:#fff}</style><path d="M777.49 464.49c-5.06 22.77-11.57 43.87-19.29 63.43a376.38 376.38 0 0 1-12.04 27.32 409.85 409.85 0 0 1-5.44 10.68c-83.34 157.12-252.51 196.8-345.23 213.51-.86.16-1.72.31-2.55.46-17.4 3.1-31.97 5.41-42.58 7.56-26.73 5.43-62.12 4.47-100.13-2.38-24.51-4.41-50.12-11.27-75.17-20.45-29.96-10.95-59.14-25.22-84.77-42.57-8.31-5.6-16.23-11.55-23.69-17.8-6.7-5.61-13.01-11.48-18.89-17.58C-.5 636.5 8.24 585.87 20.96 555.69c7.25-17.22 15.81-27.78 15.81-27.78s60.05-84.47 42.42-201.36c-.44-2.88-.92-5.78-1.44-8.71-12.92-71.1-3.13-122.7 7.2-153.25 6.4-18.92 17.43-35.94 31.95-49.67 241.31-228.23 535.4-17.7 535.4-17.7 188.39 116.64 125.19 367.27 125.19 367.27z" style="opacity:.51;fill:#c5bcf7"/><path class="st1" d="M752.71 460.25c-4.73 21.28-10.81 41-18.03 59.27-3.49 8.84-7.25 17.35-11.25 25.53-1.66 3.38-3.35 6.71-5.08 9.98-77.87 146.82-235.96 183.9-322.6 199.52-.8.15-1.61.29-2.39.43-16.26 2.9-29.88 5.05-39.79 7.06-24.97 5.07-58.05 4.17-93.57-2.23-22.91-4.12-46.83-10.53-70.24-19.11-27.99-10.23-55.27-23.57-79.21-39.78-7.76-5.23-15.17-10.79-22.14-16.63-6.26-5.25-12.16-10.73-17.65-16.43-45.05-46.87-36.89-94.19-25.01-122.38 6.78-16.09 14.77-25.96 14.77-25.96s56.11-78.93 39.64-188.16c-.41-2.69-.86-5.41-1.35-8.14-12.08-66.44-2.93-114.66 6.72-143.21 5.98-17.68 16.29-33.59 29.85-46.41 225.49-213.27 500.3-16.54 500.3-16.54 176.08 108.99 117.03 343.19 117.03 343.19z"/><path d="M395.75 754.54c86.64-15.62 244.72-52.7 322.6-199.52v-65.15H393.36v265.08l2.39-.41z" style="fill:#c5bcf7"/><path class="st1" d="M395.75 754.54V506.57H70.76v161.28c5.49 5.71 11.39 11.19 17.65 16.43.05 2.3.09 3.55.09 3.55s8.44 5.3 22.05 13.08c23.95 16.21 51.22 29.54 79.21 39.78 24.19 10.24 49.1 18.64 70.25 21.33 0 0-.01-.77-.01-2.23 35.52 6.4 68.59 7.3 93.57 2.23 9.91-2.01 23.53-4.16 39.79-7.06l2.39-.42z"/><path class="st3" d="M752.71 460.25H130.6V519.52H735.03z"/><path class="st4" d="M735.03 519.52H240.95c-3.51 0-6.7 1.43-9.01 3.75-2.31 2.32-3.75 5.51-3.75 9.02 0 7.01 5.74 12.76 12.76 12.76H723.43l11.6-25.53zM409 640.28h209.17v2.14H409z"/><path class="st5" d="M365.84 392.96s-15.73 13.93-12.27 37.4c3.46 23.47 1.51 33.29-5.86 36.23-7.37 2.95-19.15 17.67-12.28 27.49s37.05 6.62 37.05 6.62l-6.64-107.74z"/><path d="m368.85 493.98-1.08-.27.33 5.35c.34-.06.7-.14 1.05-.21l-.3-4.87zm-3.71-60-1.67-9.92 2.23 36.19 1.03 16.6c.34-.88.63-1.76.9-2.63l-.86-13.97-1.63-26.27zm5.23 66.9-.14-2.26-.28-4.38-.15-2.52v-.05l-1.11-18.06v-.02l-.17-2.71-.65-10.64-1-16.06v-.01l-.51-8.35v-.02l-2.52-40.77-.27-4.34-1.65 1.46c-.04.03-1.03.92-2.43 2.59-.26.3-.51.62-.79.96-4.52 5.66-11.9 17.87-9.4 34.8 2.18 14.81 2.24 24.28-.05 29.74-1.13 2.71-2.84 4.43-5.14 5.35-5.07 2.02-12.02 9.26-14.27 16.81-.19.65-.35 1.3-.47 1.93-.73 3.9-.06 7.45 1.98 10.36 4.42 6.3 17.39 7.58 26.98 7.59h.15c5.87 0 10.44-.47 10.92-.52l1.02-.11-.05-.77zm-29.11-2.6c-3.59-1.02-6.57-2.55-8.16-4.82-1.7-2.43-2.26-5.32-1.64-8.62.1-.6.25-1.21.43-1.83 2.08-6.95 8.4-13.58 13.01-15.43 3.16-1.26 5.36-3.6 6.69-7.34 2.11-5.97 1.97-15.52-.17-30.05-2.18-14.75 3.51-25.73 7.76-31.6.27-.37.52-.72.78-1.05.64-.83 1.24-1.54 1.74-2.11l.13 2.08 1.1 17.86v.01l.54 8.65v.02l2.23 36.19 1.03 16.6.12 1.89.8 13.05.01.05.11 1.86.33 5.35.04.66c-1.06.09-2.9.22-5.2.31h-.01c-5.9.22-14.85.15-21.63-1.74-.02.02-.03.01-.04.01zm25.51-38.03-1.63-26.27-1.67-9.92 2.23 36.19 1.03 16.6c.34-.88.63-1.76.9-2.63l-.86-13.97zm2.08 33.73-1.08-.27.33 5.35c.34-.06.7-.14 1.05-.21l-.3-4.87z"/><path class="st6" d="M362.66 393.66s-15.73 13.93-12.27 37.4c3.46 23.47 1.51 33.29-5.86 36.23-7.37 2.95-19.15 17.67-12.28 27.49 6.87 9.82 37.05 6.62 37.05 6.62l-6.64-107.74z"/><path d="M460.83 258.23c-1.53 0-3.1-.16-4.7-.49-14.43-2.97-26.24-18.29-26.74-18.94l-.16-.21-.08-.25-15.96-46.87.4-.65c.17-.26 4.14-6.5 11.66-7.58 5.79-.83 11.93 1.6 18.26 7.23 2.55 2.26 5.04 4.22 7.6 5.99 3.35 2.3 6.24 3.83 8.78 5.19 6.66 3.54 11.47 6.1 16.43 17.87 5.12 12.17 5.68 22.77 1.55 29.85-2.85 4.9-7.91 7.91-14.62 8.7-.78.11-1.59.16-2.42.16zm-28.72-21.17c1.42 1.78 12.27 14.99 24.67 17.54 2.16.44 4.16.53 6.11.3 5.75-.68 9.86-3.08 12.22-7.13 3.55-6.1 2.92-15.93-1.74-26.98-4.51-10.72-8.45-12.81-14.98-16.28-2.62-1.4-5.59-2.98-9.09-5.38-2.68-1.84-5.27-3.88-7.92-6.24-5.59-4.97-10.87-7.14-15.67-6.45-4.83.69-7.9 4.12-8.97 5.51l15.37 45.11z"/><path class="st7" d="M463.08 256.49c-2.24.27-4.45.12-6.63-.32-14-2.88-25.78-18.34-25.78-18.34l-15.71-46.15s9.82-15.7 27.49 0c2.86 2.54 5.43 4.51 7.76 6.11 12.16 8.34 18.05 6.71 24.64 22.36 7.86 18.67 4.92 34.37-11.77 36.34z"/><path d="M463.08 256.49c-2.24.27-4.45.12-6.63-.32-.16-1.15.05-2.25.73-3.28 6.87-10.47-9.32-33.72-11.65-40.67-1.12-3.37 1.58-9.26 4.68-14.43 12.16 8.34 18.05 6.71 24.64 22.36 7.86 18.67 4.92 34.37-11.77 36.34z"/><path d="M351.36 281.03c-1.07 0-2.19-.15-3.36-.45-11.18-2.87-25.79-19.5-30.05-34.22-2.73-9.46-.61-16.48 5.97-19.78 20.5-10.25 23.3-21.71 23.32-21.83l.15-.65.57-.37c10.49-6.53 17.68-8.44 21.98-5.82 3.42 2.08 3.47 6.2 3.44 7.13l5.31 45.83-.21.42c-.04.08-1 2.02-2.97 5.2-3.28 5.29-8.95 13.36-17.34 21.76-1.83 1.85-4.15 2.78-6.81 2.78zm-1.18-74.9c-.9 2.85-5.48 13.64-24.83 23.32-6.46 3.24-5.92 10.5-4.33 16.02 3.93 13.56 17.68 29.41 27.76 32 2.98.76 5.37.27 7.11-1.48 8.17-8.18 13.69-16.04 16.88-21.18a71.15 71.15 0 0 0 2.6-4.52l-5.23-45.17.01-.16c0-.02.19-3.05-1.91-4.32-1.72-1.03-6.36-1.68-18.06 5.49z" style="fill:#231f20"/><path class="st7" d="M377.04 250.59s-.94 1.92-2.89 5.06c-3.08 4.98-8.68 13.04-17.11 21.47-9.63 9.64-32.3-13.06-37.55-31.21-2.24-7.75-1.31-14.67 5.15-17.9 21.6-10.8 24.17-22.92 24.17-22.92 24.18-15.06 22.96 0 22.96 0l5.27 45.5z"/><path d="M374.15 255.65c-3.08 4.98-8.68 13.04-17.11 21.47-9.63 9.64-32.3-13.06-37.55-31.21 5.89-4.83 16.76-12.17 24.3-8.07 10.79 5.88 11.89 11.53 16.5 9.93 3.46-1.19 10.97.72 13.86 7.88z"/><path class="st7" d="M374.04 192.69c11.19-4.51 31.7-10.71 47.88-3.95 0 0 15.63 19.64 10.72 43.2 0 0 4.64 24.68.95 36.33-4.2 13.29-8.13 22.58-32.03 21.6-23.9-.98-30.77-26.51-30.77-26.51s5.83-26.51-4.94-36.33v-22.15c-.01-5.35 3.22-10.19 8.19-12.19z"/><path d="M369.8 289.92s-19.64 36.27-15.71 78.49l15.71 93.18s-.38 16.79-9.52 25.62 6.2 2.67 57.98 2.67c44.23 0 43.82 2.24 43.82 2.24s-8.61-8.84-15.11-21.6c-6.49-12.76 7.77-65.32 7.77-65.32l-7.77-45.18-2.08-44.4-13.25-35-61.84 9.3z" style="fill:none;stroke:#000;stroke-width:2;stroke-miterlimit:10"/><path class="st6" d="M370.65 289.92s-19.45 36.27-15.56 78.49l15.56 93.18s-.38 16.79-9.43 25.62c-9.05 8.84 6.15 2.67 57.45 2.67 43.83 0 43.42 2.24 43.42 2.24s-8.53-8.84-14.97-21.6c-6.43-12.76 7.7-65.32 7.7-65.32l-7.7-45.18-2.06-44.4-13.13-35-61.28 9.3z"/><path d="M436.94 296.55s-28.87-1.73-31.67 31.55c-2.8 33.29-13.72 35.73-13.72 35.73s-22.88 16.7 4.25 32.63 54.71-16.57 54.71-16.57l-5.19-62.99-8.38-20.35z"/><path class="st10" d="M393.36 212.76c1.14 3.07-3.65 5.92-8.16 5.92s-8.16-2.65-8.16-5.92 3.65-6.99 8.16-6.99 6.86 3.47 8.16 6.99zM413.84 210.06c-1.14 3.07 3.65 5.92 8.16 5.92s8.16-2.65 8.16-5.92-3.65-6.99-8.16-6.99-6.86 3.47-8.16 6.99z"/><circle class="st6" cx="386.2" cy="211.94" r="2.41"/><circle class="st6" cx="420.68" cy="209.53" r="2.41"/><path class="st10" d="M401.56 237.84s-9.42-14.49 8.74-13.02 4.53 15.95 4.53 15.95-7.53 5.43-13.27-2.93z"/><path class="st6" d="M404.62 232.31c-.24 0-.48-.05-.71-.17a1.59 1.59 0 0 1-.73-2.13c.06-.12 1.47-2.96 4.81-3.88 2.75-.76 5.89 0 9.33 2.26.74.49.95 1.48.46 2.22a1.6 1.6 0 0 1-2.22.46c-2.61-1.71-4.85-2.34-6.67-1.86-1.93.51-2.79 2.15-2.82 2.21-.3.57-.86.89-1.45.89z"/><g><path class="st10" d="M391.33 263.37c-.16 0-.33-.01-.5-.02-3.77-.34-6.36-4.59-6.46-4.77a1.074 1.074 0 0 1 1.84-1.11c.02.04 2.14 3.5 4.83 3.74 1.25.12 2.51-.54 3.74-1.93 4.92-5.58 7.71-7.49 15.62-8.52 5.92-.77 9.97 2.94 12.65 5.4.8.74 1.8 1.65 2.19 1.73 4.13.79 5.14-1.56 5.18-1.66.22-.54.84-.81 1.39-.6.54.21.82.82.61 1.37-.54 1.43-2.82 3.9-7.58 3-.98-.19-1.93-1.05-3.23-2.25-2.53-2.32-6-5.5-10.93-4.85-7.33.96-9.64 2.53-14.29 7.81-1.57 1.76-3.27 2.66-5.06 2.66z"/><path class="st10" d="M410.53 252.89c-.59 0-1.07-.48-1.07-1.07v-8.1a1.071 1.071 0 0 1 2.14 0v8.1c0 .59-.48 1.07-1.07 1.07z"/></g><g><path class="st10" d="M396.34 490.64c-.35-.84-8.48-20.8-6.48-32.41 1.89-11.04-3.24-25.89-3.3-26.04l-.05-.24-2.62-23.74 2.16 2.16c.16.16 16.19 16.09 25.18 12.73 9.31-3.49 13.19-8.02 13.23-8.07l2.5-2.99-7.84 48.29.22 29.55-2.14.02-.23-29.73.01-.09 6.73-41.44c-2.19 1.77-5.97 4.3-11.74 6.46-8.22 3.08-20.4-6.78-25.31-11.2l1.95 17.7c.53 1.55 5.26 15.81 3.35 26.99-1.89 11.01 6.27 31.04 6.35 31.24l-1.97.81z"/></g><g><path class="st10" d="M436.48 247.17c-.43-.62-.86-2.17-1.23-4.19-.76-3.99-1.38-9.79-1.69-13.81.59-2.42 6.19-27.86-10.98-41.28-.64-.5-1.3-.95-1.98-1.37-18.37-11.26-50.12 7.36-51.51 8.19l-.18.11-.13.17c-.73.96-1.34 2.16-1.83 3.53-2.43 6.59-2.37 17.22-1.1 25.46.2 1.32.44 2.57.7 3.74v.01c.61 2.74 1.36 5 2.17 6.42 1.96 3.4 2.27 10.76 2.14 16.7v.01c-.11 4.87-.49 8.8-.5 8.88l-.02.14.02.13c0 .02.06.44.17 1.11.09.54.19 1.24.31 2.06v.01c.02.19.05.4.09.61.41 2.8.92 6.5 1.12 8.63 0 .02.01.05.01.07.21 1.51 2.57 3.24 6.05 4.93h.01c2.31 1.12 5.14 2.23 8.17 3.23h.01c2.58.86 5.3 1.64 8.01 2.29 2.49.61 4.96 1.11 7.27 1.46.87.15 1.71.26 2.53.34h.01c.1.02.19.03.28.04h.02c1.48.16 2.85.25 4.08.25.35 0 .7-.01 1.03-.02 2.45-.11 4.78-.86 6.94-1.99.05-.03.11-.05.16-.09 0 0 .01 0 .01-.01.05-.02.1-.05.15-.09a24.62 24.62 0 0 0 3.34-2.19h.01a38 38 0 0 0 3.99-3.66c4.2-4.43 6.81-9.11 7.03-9.52.12-.26.25-.56.4-.89.9-2.04 2.3-5.36 3.46-8.72v-.01c1.5-4.49 2.59-9.05 1.46-10.68zm-7.25 19.36c-.02.02-.24.42-.64 1.07-1.21 1.95-4.07 6.23-7.93 9.76-1.3 1.2-2.72 2.3-4.22 3.21-.2.12-.4.24-.6.34-2.01 1.12-4.17 1.87-6.43 1.97-2.32.11-5.01-.13-7.85-.58-.26-.04-.52-.09-.79-.13-2.99-.52-6.11-1.27-9.13-2.14-7.16-2.07-13.7-4.78-16.29-6.59-.7-.49-1.11-.91-1.18-1.23v-.05c-.03-.3-.07-.62-.11-.97-.44-3.85-1.41-10.31-1.57-11.36.03-.29.1-.93.17-1.84v-.01c.09-1.17.19-2.79.27-4.65.26-6.45.14-15.91-2.37-20.25-3.35-5.82-4.86-24.86-1.57-33.86.39-1.08.85-2.02 1.38-2.77 1.49-.86 11.73-6.6 23.35-9.57.02 0 .03-.01.05-.01 7.94-2.02 16.51-2.74 23.38.27l.01.01c.49.2.96.45 1.43.71.93.49 1.82 1.07 2.67 1.73 1.23.95 2.33 1.99 3.33 3.07l.02.02c.01.01.02.02.02.04 5.43 5.93 7.44 13.47 7.97 20.09v.03c.7 8.67-1.12 15.82-1.16 15.96l-.04.17.01.18c.06.94.47 6.16 1.19 10.98.52 3.59 1.23 6.97 2.11 8.23.2.29.22.92.12 1.82-.44 3.36-2.91 10.35-5.6 16.35z"/></g><g><path class="st4" d="M416.43 273.18s33.75-19.33 37.8 0-16.96 14.88-16.96 14.88h-20.84v-14.88zM401.56 273.18s-47.47-8.01-40.59 12.68c6.87 20.7 40.59 2.19 40.59 2.19v-14.87z"/><g class="st11"><path class="st10" d="M416.43 281.03c-.81 0-1.51-.61-1.6-1.44-.09-.88.55-1.67 1.43-1.76l27.49-2.88c.87-.09 1.67.55 1.76 1.43.09.88-.55 1.67-1.43 1.76l-27.49 2.88c-.04.01-.1.01-.16.01z"/></g><g class="st11"><path class="st10" d="M374.71 285.26c-.8 0-1.5-.6-1.59-1.42-.1-.88.53-1.68 1.41-1.78l25.72-3.04c.89-.1 1.68.53 1.78 1.41.1.88-.53 1.68-1.41 1.78l-25.72 3.04c-.07.01-.13.01-.19.01z"/></g><path class="st3" d="M401.56 273.18h14.88v14.88h-14.88z"/></g><path d="M364.98 304.53s18.81 4.88-4.69 34.58l-5.71 1.69 10.4-36.27z"/><path class="st12" d="M233.25 487.13a111 111 0 0 1-18.61 7.98c-20.54 6.65-39.14 5.96-51.71 4-10.25-1.6-16.49-4.05-16.49-4.05 5.31-18.57 12.77-57.63 16.46-77.58 1.38-7.49 2.23-12.29 2.23-12.29l17.03-45.17 15.62 17.18 13.08 14.39 7.79 8.57 9.92 59.11 4.68 27.86z"/><ellipse transform="rotate(-17.215 207.467 363.255)" class="st12" cx="207.5" cy="363.25" rx="49.83" ry="67.01"/><path d="M239.86 315.79s-7.46 35.96-29.82 32.4-14.91 24.9-14.91 24.9-17.04 33.21-31.96 39.14c-14.91 5.93-59.75-67.87-9.08-111.05 34.11-29.07 87.87 7.26 85.77 14.61z"/><g><path d="M646.33 179.67c-.79-.22-1.58-.44-2.39-.64-2.71-.67-5.48-1.2-8.3-1.56-.98-.13-1.98-.24-2.98-.32-2.1-.18-4.23-.28-6.37-.28-3.32 0-6.58.22-9.77.66-1 .13-1.99.28-2.97.45-2.79.5-5.53 1.16-8.21 1.97-.79.22-1.57.48-2.34.75-28.72 9.73-49.45 36.95-49.45 68.91 0 14.45 4.23 27.91 11.52 39.23v.01a73.87 73.87 0 0 0 13.51 15.62 72.853 72.853 0 0 0 22.74 13.46c7.56 2.77 15.7 4.32 24.19 4.41.27.01.52.01.79.01 10.16 0 19.85-2.1 28.63-5.88a73.026 73.026 0 0 0 22.39-15.07c13.39-13.2 21.71-31.54 21.71-51.79 0-33.15-22.3-61.21-52.7-69.94zm30.47 119.22a70.574 70.574 0 0 1-21.87 15.24c-8.76 3.91-18.44 6.08-28.63 6.08-.24 0-.46 0-.7-.01a69.862 69.862 0 0 1-24.06-4.47c-8.37-3.14-15.99-7.84-22.51-13.72a70.762 70.762 0 0 1-12.81-15.35c-6.67-10.77-10.52-23.46-10.52-37.04 0-30.66 19.64-56.82 47.01-66.55a70.069 70.069 0 0 1 9.73-2.69c.82-.17 1.66-.32 2.5-.45 3.69-.61 7.49-.92 11.36-.92 2.73 0 5.42.15 8.06.46.85.1 1.69.2 2.53.33 2.58.39 5.11.92 7.59 1.58.76.19 1.51.42 2.26.64 29 8.78 50.16 35.76 50.16 67.59-.01 19.16-7.67 36.55-20.1 49.28z"/><path d="M646.02 190.89c-.67-.24-1.36-.45-2.04-.64-2.19-.66-4.45-1.2-6.74-1.61-.71-.14-1.42-.25-2.14-.34-2.87-.42-5.8-.63-8.79-.63-3.98 0-7.89.37-11.67 1.11-.72.13-1.42.28-2.13.44-2.27.51-4.5 1.16-6.66 1.93-.67.22-1.34.47-2 .74-23.09 9-39.49 31.49-39.49 57.73 0 10.62 2.69 20.64 7.43 29.38 6.71 12.4 17.53 22.27 30.64 27.76 7.26 3.05 15.22 4.75 23.57 4.8h.31c10.33 0 20.07-2.54 28.63-7.01v-.01a62.28 62.28 0 0 0 19.57-16.07c8.6-10.63 13.74-24.15 13.74-38.85-.01-27.27-17.71-50.47-42.23-58.73zm27.81 94.97c-10.94 14.31-28.17 23.55-47.53 23.55h-.21a59.48 59.48 0 0 1-23.45-4.88 60.264 60.264 0 0 1-29.19-26.96 59.434 59.434 0 0 1-6.95-27.95c0-25.34 15.83-47.05 38.13-55.74.66-.27 1.34-.51 2.02-.75 2.21-.77 4.47-1.41 6.8-1.93.74-.16 1.48-.31 2.23-.45 3.45-.62 7-.94 10.63-.94a59.679 59.679 0 0 1 10.1.85c2.34.4 4.63.93 6.88 1.61.69.19 1.37.42 2.04.64 23.68 7.96 40.78 30.37 40.78 56.7-.01 13.62-4.59 26.19-12.28 36.25z"/><path d="M646.73 182.03c-.09-.8-.22-1.58-.41-2.35-2.29-9.79-11.09-17.11-21.56-17.11-10.83 0-19.88 7.84-21.76 18.13-.15.77-.26 1.56-.3 2.37-.05.54-.07 1.08-.07 1.64 0 2.52.42 4.93 1.21 7.18.22.69.48 1.35.78 1.99 3.5 7.64 11.22 12.96 20.15 12.96 9.3 0 17.29-5.77 20.55-13.93.27-.65.5-1.33.7-2.02.58-1.96.89-4.04.89-6.19-.01-.9-.06-1.79-.18-2.67zm-3.45 10.24c-2.99 7.29-10.16 12.43-18.51 12.43-8.02 0-14.94-4.74-18.12-11.57-.31-.64-.58-1.31-.8-1.98a19.641 19.641 0 0 1-.92-8.83c.09-.8.24-1.59.43-2.37 2.13-8.75 10.03-15.24 19.42-15.24 9.06 0 16.72 6.05 19.17 14.32.24.76.42 1.55.54 2.35.19 1.08.29 2.18.29 3.32 0 1.93-.28 3.79-.79 5.54-.21.71-.45 1.38-.71 2.03z"/><path d="M636.88 179.8c-.33-.82-.75-1.61-1.24-2.33a13.074 13.074 0 0 0-10.88-5.83c-4.75 0-8.92 2.55-11.21 6.35-.45.75-.82 1.55-1.12 2.4-.48 1.35-.74 2.82-.74 4.32 0 1.58.29 3.1.8 4.52.26.7.57 1.35.94 1.98 2.25 3.93 6.49 6.57 11.33 6.57 5.05 0 9.45-2.89 11.63-7.11.33-.64.61-1.32.83-2.02.4-1.24.61-2.57.61-3.94.01-1.74-.34-3.39-.95-4.91zm-2.75 10.53a10.93 10.93 0 0 1-9.37 5.31c-3.79 0-7.14-1.94-9.1-4.88-.41-.61-.76-1.27-1.04-1.97-.51-1.25-.79-2.63-.79-4.08 0-1.71.4-3.33 1.1-4.77a10.911 10.911 0 0 1 9.82-6.16c3.1 0 5.9 1.3 7.9 3.37.65.7 1.23 1.48 1.69 2.32a10.76 10.76 0 0 1 1.34 5.23c0 1.26-.21 2.47-.61 3.6-.23.72-.55 1.39-.94 2.03z"/><path class="st6" d="M573.44 277.56c5.37-4.05 14.56 10.49 14.56 10.49s19.64-6.91 31.42 1.87c11.78 8.78 5.34 0 5.34 0h10.93l17.11-1.87s19.91-4.26 21.02-2.19 35.12 163.06 25.21 184.66h-161.1s6.22-170.9 35.51-192.96z"/><path class="st13" d="m580.15 295.66-9.82 55.12M602.63 304.53l-6.77 69.16M626.3 304.53l-1.53 34.58M654.93 304.53v69.16"/></g><path class="st12" d="M358.54 500.7s68.41 18.82 76.63-43.98c5.05-38.54 15.81-83.45 15.81-83.45s-12.16-36.98-6.08-57.66-10.95-36.41 1.22-29.76 9.73 42.06 19.46 39.56 4.87-26.27-7.3-32.91-4.87-17.72 6.08-14.94 41.36 33.19 26.76 63.6c-12.56 26.16-11.61 125.4-11.1 152.6.1 5.5-.75 10.97-2.6 16.15-5.35 14.96-19.46 43.32-50.65 47.77-42.69 6.08-77.97 13.38-77.97 13.38l9.74-70.36z"/><path class="st14" d="M376.67 545.05c-.6 7.85-1.86 14.99-3.47 21.34l-5.43 21.42-74.92 3.93C261.96 665.67 260.09 745.6 260 759.81c0 1.46.01 2.23.01 2.23-21.15-2.7-46.06-11.09-70.25-21.33-30.6-12.94-60.04-28.83-79.21-39.78-13.62-7.78-22.05-13.08-22.05-13.08s-.03-1.25-.09-3.55c-.43-17.31-2.54-94.04-6.96-146.3-.46-5.5-.95-10.73-1.47-15.59-.62-5.81-.77-11.07-.55-15.83 1.98-42.05 33.39-44.99 33.39-44.99l17.77-1.34 6.05-.46 18.3-1.38c0 .01-.01.03-.01.04-.21.61-.41 1.21-.59 1.8-1.12 3.64-1.73 6.83-1.83 9.62-.59 15.05 13.48 18.48 39.98 18.48 32.23 0 36.61-25.89 36.61-25.89l36.98 6.43 63.27 15.45 1.21.3.89.21 2.04.49 24.74 6.05 2.09.5 7.43 1.82 1.08.27 1.1.27.76.18c.4 1.28.77 2.56 1.11 3.83.24.81.46 1.63.66 2.44.52 1.98 1 3.94 1.41 5.88.96 4.44 1.68 8.76 2.17 12.94 1.15 9.15 1.23 17.69.63 25.53z"/><g><path class="st6" d="M146.44 623.68s-18.16-30.93 23.07-43.44c0 0 42.18-8.51 35.82 29.99 0 0-11.68 9.04-31.11 3.15 0-.01-11.09 16.93-27.78 10.3z"/><ellipse transform="rotate(-45.001 130.592 583.465)" class="st6" cx="130.6" cy="583.46" rx="7.75" ry="11.78"/><ellipse transform="rotate(-87.352 198.19 563.659)" class="st6" cx="198.19" cy="563.64" rx="11.78" ry="7.75"/><ellipse transform="rotate(-22.482 146.757 561.468)" class="st6" cx="146.77" cy="561.5" rx="9.4" ry="14.27"/><ellipse transform="rotate(-84.808 172.001 555.618)" class="st6" cx="172.01" cy="555.63" rx="14.27" ry="9.4"/></g><path d="M618.16 426.99h10.18v12.76h-10.18z"/><path style="fill:#19124c" d="M677.76 371.36h15.57v24.09h-15.57z"/><path class="st4" d="M680.92 393.79c-1.81-.11-3.47-1.06-5.27-.82-6.13.81-15.57 5-14.9 23.22.79 21.68 1.37 48.05 1.57 57.39a3.552 3.552 0 0 0 3.56 3.48h41.39c1.97 0 3.56-1.59 3.56-3.56v-65.3s-3.24-17.22-17.48-15.41c-6.46.82-10.1 1.15-12.43 1z"/><path d="M618.16 438.61h10.18s8.02 1.72 9.25 8.1c1.02 5.29.35 23.58.09 29.67a2.08 2.08 0 0 1-2.08 1.99h-24.4a2.09 2.09 0 0 1-2.09-2.09v-30.31c.01 0 3.62-7.36 9.05-7.36z" style="fill:#f55aac"/><path class="st17" d="M661.19 408.2h39.66v15.89h-39.66zM609.48 456.27h19.83v7.95h-19.83zM661.19 446.49h39.66v18.14h-39.66z"/><circle class="st5" cx="189.85" cy="143.61" r="5.99"/><circle class="st5" cx="257.39" cy="103.5" r="5.82"/><circle class="st5" cx="251.57" cy="232.31" r="11.65"/><path class="st5" d="M454.75 127.87s-8.01 18.92-13.1 21.73c0 0 13.62 3.84 13.1 15.11 0 0 7.34-17.67 12.24-18.42.01 0-11.72-8.6-12.24-18.42zM415.2 74.85s-4.45 10.5-7.27 12.06c0 0 7.56 2.13 7.27 8.38 0 0 4.07-9.81 6.8-10.22-.01.01-6.51-4.77-6.8-10.22z"/><path d="M155.77 320.21s-53.85-19.18-76.43 44.27.83 123.2-28.63 136.21c-29.45 13.02-31.42 23.82-31.42 23.82s18.65 43.02 71.67 7.77c53.02-35.26 46.15-97.18 54.98-127.09 8.84-29.91 14.73-61.33 14.73-61.33l-4.9-23.65z"/><g><path class="st14" d="M160.13 369.45c-.23 0-.46-.01-.69-.04-2.93-.38-5-3.06-4.62-5.99 3.9-30.25-16.05-41.08-16.26-41.18a5.35 5.35 0 0 1 4.96-9.48c1.09.57 26.75 14.47 21.91 52.04-.35 2.68-2.65 4.65-5.3 4.65z"/></g><ellipse transform="rotate(-17.215 195.811 360.022)" class="st12" cx="195.84" cy="360.02" rx="12.38" ry="16.77"/></svg>