<svg version="1.1" id="Layer_1" xmlns="http://www.w3.org/2000/svg" x="0" y="0" viewBox="0 0 1000 800.7" style="enable-background:new 0 0 1000 800.7" xml:space="preserve"><style>.st6{fill:#f1f2f2}.st7{opacity:.42}.st7,.st8{fill:#fff}.st9{fill:#fefffa}.st12{fill:#000100}.st13{fill:#ff4d53}.st14{opacity:.42}.st16{fill:#fcc1b1}.st17{fill:none;stroke:#e6e7e8;stroke-width:2;stroke-miterlimit:10}.st18{fill:#feac02}.st20{opacity:.49;fill:#fff}</style><path d="M860.4 468.6c-5.1 22.8-11.6 43.9-19.3 63.4-3.7 9.5-7.8 18.6-12 27.3-1.8 3.6-3.6 7.2-5.4 10.7-83.3 157.1-252.5 196.8-345.2 213.5-.9.2-1.7.3-2.6.5-17.4 3.1-32 5.4-42.6 7.6-26.7 5.4-62.1 4.5-100.1-2.4-24.5-4.4-50.1-11.3-75.2-20.4-30-11-59.1-25.2-84.8-42.6-8.3-5.6-16.2-11.5-23.7-17.8-6.7-5.6-13-11.5-18.9-17.6-48.2-50.2-39.5-100.8-26.8-131 7.3-17.2 15.8-27.8 15.8-27.8s60-84.5 42.4-201.4c-.4-2.9-.9-5.8-1.4-8.7-12.9-71.1-3.1-122.7 7.2-153.3 6.4-18.9 17.4-35.9 31.9-49.7 241.3-228.2 535.4-17.7 535.4-17.7C923.6 218 860.4 468.6 860.4 468.6z" style="fill:#e2d5f9"/><path d="M835.6 464.4c-4.7 21.3-10.8 41-18 59.3-3.5 8.8-7.2 17.4-11.3 25.5-1.7 3.4-3.4 6.7-5.1 10-77.9 146.8-236 183.9-322.6 199.5-.8.1-1.6.3-2.4.4-16.3 2.9-29.9 5.1-39.8 7.1-25 5.1-58 4.2-93.6-2.2-22.9-4.1-46.8-10.5-70.2-19.1-28-10.2-55.3-23.6-79.2-39.8-7.8-5.2-15.2-10.8-22.1-16.6-6.3-5.2-12.2-10.7-17.7-16.4-45.1-46.9-36.9-94.2-25-122.4 6.8-16.1 14.8-26 14.8-26s56.1-78.9 39.6-188.2c-.4-2.7-.9-5.4-1.3-8.1-12.1-66.4-2.9-114.7 6.7-143.2 6-17.7 16.3-33.6 29.9-46.4 225.5-213.3 500.3-16.5 500.3-16.5 176.1 108.9 117 343.1 117 343.1z" style="fill:#cfb5f6"/><path d="M478.6 758.7c86.6-15.6 244.7-52.7 322.6-199.5V494H476.3v265.1l2.3-.4z" style="fill:#ae90dd"/><path d="M478.6 758.7V510.8H153.6V672c5.5 5.7 11.4 11.2 17.7 16.4.1 2.3.1 3.6.1 3.6s8.4 5.3 22.1 13.1c23.9 16.2 51.2 29.5 79.2 39.8 24.2 10.2 49.1 18.6 70.3 21.3V764c35.5 6.4 68.6 7.3 93.6 2.2 9.9-2 23.5-4.2 39.8-7.1l2.2-.4z" style="opacity:.35;fill:#cfb5f6"/><path style="fill:#8f7ae5" d="M835.6 464.4H213.5V523.6h604.4z"/><path d="M817.9 523.6h-494c-3.5 0-6.7 1.4-9 3.7-2.3 2.3-3.7 5.5-3.7 9 0 7 5.7 12.8 12.8 12.8h482.6l11.3-25.5z" style="fill:#886be4"/><path class="st6" d="M491.9 625.4h209.2v2.1H491.9zM491.9 605.5h209.2v2.1H491.9zM491.9 585.5h209.2v2.1H491.9zM491.9 565.6h209.2v2.1H491.9zM655.1 702.1H491.9v-2.2H659zM688.7 682.1H491.9V680h200zM491.9 660h209.2v2.1H491.9zM491.9 640.1h209.2v2.1H491.9z"/><path class="st7" d="M448.7 397.1S433 411 436.4 434.5c3.5 23.5 1.5 33.3-5.9 36.2-7.4 2.9-19.1 17.7-12.3 27.5 6.9 9.8 37 6.6 37 6.6l-6.5-107.7z"/><path d="m451.7 498.1-1.1-.3.3 5.4c.3-.1.7-.1 1-.2l-.2-4.9zm-3.7-60-1.7-9.9 2.2 36.2 1 16.6c.3-.9.6-1.8.9-2.6l-.9-14-1.5-26.3zm5.3 66.9-.1-2.3-.3-4.4-.1-2.5v-.1l-1.1-18.1-.2-2.7-.7-10.6-1-16.1-.5-8.3-2.5-40.8-.3-4.3-1.6 1.5s-1 .9-2.4 2.6c-.3.3-.5.6-.8 1-4.5 5.7-11.9 17.9-9.4 34.8 2.2 14.8 2.2 24.3-.1 29.7-1.1 2.7-2.8 4.4-5.1 5.4-5.1 2-12 9.3-14.3 16.8-.2.7-.4 1.3-.5 1.9-.7 3.9-.1 7.5 2 10.4 4.4 6.3 17.4 7.6 27 7.6h.1c5.9 0 10.4-.5 10.9-.5l1-.1v-.9zm-29.1-2.6c-3.6-1-6.6-2.5-8.2-4.8-1.7-2.4-2.3-5.3-1.6-8.6.1-.6.2-1.2.4-1.8 2.1-6.9 8.4-13.6 13-15.4 3.2-1.3 5.4-3.6 6.7-7.3 2.1-6 2-15.5-.2-30-2.2-14.8 3.5-25.7 7.8-31.6.3-.4.5-.7.8-1 .6-.8 1.2-1.5 1.7-2.1l.1 2.1 1.1 17.9.5 8.6 2.2 36.2 1 16.6.1 1.9.8 13v.1l.1 1.9.3 5.4v.7c-1.1.1-2.9.2-5.2.3-5.7-.1-14.6-.2-21.4-2.1zm25.5-38-1.6-26.3-1.7-9.9 2.2 36.2 1 16.6c.3-.9.6-1.8.9-2.6l-.8-14zm2 33.7-1.1-.3.3 5.4c.3-.1.7-.1 1-.2l-.2-4.9z"/><path class="st8" d="M445.6 397.8s-15.7 13.9-12.3 37.4c3.5 23.5 1.5 33.3-5.9 36.2-7.4 2.9-19.1 17.7-12.3 27.5 6.9 9.8 37 6.6 37 6.6l-6.5-107.7z"/><path d="M543.7 262.4c-1.5 0-3.1-.2-4.7-.5-14.4-3-26.2-18.3-26.7-18.9l-.2-.2-.1-.2-16-46.9.4-.6c.2-.3 4.1-6.5 11.7-7.6 5.8-.8 11.9 1.6 18.3 7.2 2.6 2.3 5 4.2 7.6 6 3.3 2.3 6.2 3.8 8.8 5.2 6.7 3.5 11.5 6.1 16.4 17.9 5.1 12.2 5.7 22.8 1.6 29.8-2.9 4.9-7.9 7.9-14.6 8.7-.8 0-1.6.1-2.5.1zM515 241.2c1.4 1.8 12.3 15 24.7 17.5 2.2.4 4.2.5 6.1.3 5.7-.7 9.9-3.1 12.2-7.1 3.5-6.1 2.9-15.9-1.7-27-4.5-10.7-8.5-12.8-15-16.3-2.6-1.4-5.6-3-9.1-5.4-2.7-1.8-5.3-3.9-7.9-6.2-5.6-5-10.9-7.1-15.7-6.4-4.8.7-7.9 4.1-9 5.5l15.4 45.1z"/><path class="st9" d="M546 260.6c-2.2.3-4.5.1-6.6-.3-14-2.9-25.8-18.3-25.8-18.3l-15.7-46.1s9.8-15.7 27.5 0c2.9 2.5 5.4 4.5 7.8 6.1 12.2 8.3 18 6.7 24.6 22.4 7.8 18.5 4.9 34.2-11.8 36.2z"/><path d="M546 260.6c-2.2.3-4.5.1-6.6-.3-.2-1.1.1-2.2.7-3.3 6.9-10.5-9.3-33.7-11.6-40.7-1.1-3.4 1.6-9.3 4.7-14.4 12.2 8.3 18 6.7 24.6 22.4 7.8 18.6 4.9 34.3-11.8 36.3z"/><path d="M434.3 285.2c-1.1 0-2.2-.1-3.4-.5-11.2-2.9-25.8-19.5-30-34.2-2.7-9.5-.6-16.5 6-19.8 20.5-10.2 23.3-21.7 23.3-21.8l.1-.7.6-.4c10.5-6.5 17.7-8.4 22-5.8 3.4 2.1 3.5 6.2 3.4 7.1l5.3 45.8-.2.4c0 .1-1 2-3 5.2-3.3 5.3-8.9 13.4-17.3 21.8-1.9 1.9-4.2 2.9-6.8 2.9zm-1.2-74.9c-.9 2.8-5.5 13.6-24.8 23.3-6.5 3.2-5.9 10.5-4.3 16 3.9 13.6 17.7 29.4 27.8 32 3 .8 5.4.3 7.1-1.5 8.2-8.2 13.7-16 16.9-21.2 1.4-2.2 2.2-3.8 2.6-4.5l-5.2-45.2v-.2s.2-3.1-1.9-4.3c-1.9-1-6.5-1.6-18.2 5.6z" style="fill:#231f20"/><path class="st9" d="M459.9 254.7s-.9 1.9-2.9 5.1c-3.1 5-8.7 13-17.1 21.5-9.6 9.6-32.3-13.1-37.6-31.2-2.2-7.8-1.3-14.7 5.1-17.9 21.6-10.8 24.2-22.9 24.2-22.9 24.2-15.1 23 0 23 0l5.3 45.4z"/><path d="M457 259.8c-3.1 5-8.7 13-17.1 21.5-9.6 9.6-32.3-13.1-37.6-31.2 5.9-4.8 16.8-12.2 24.3-8.1 10.8 5.9 11.9 11.5 16.5 9.9 3.5-1.2 11.1.7 13.9 7.9z"/><path class="st9" d="M456.9 196.8c11.2-4.5 31.7-10.7 47.9-3.9 0 0 15.6 19.6 10.7 43.2 0 0 4.6 24.7 1 36.3-4.2 13.3-8.1 22.6-32 21.6s-30.8-26.5-30.8-26.5 5.8-26.5-4.9-36.3V209c-.1-5.3 3.2-10.2 8.1-12.2z"/><path d="M452.7 294.1s-19.6 36.3-15.7 78.5l15.7 93.2s-.4 16.8-9.5 25.6 6.2 2.7 58 2.7c44.2 0 43.8 2.2 43.8 2.2s-8.6-8.8-15.1-21.6 7.8-65.3 7.8-65.3l-7.8-45.2-2.1-44.4-13.3-35-61.8 9.3z" style="fill:none;stroke:#000;stroke-width:2;stroke-miterlimit:10"/><path class="st8" d="M453.6 294.1s-19.5 36.3-15.6 78.5l15.6 93.2s-.4 16.8-9.4 25.6 6.1 2.7 57.4 2.7c43.8 0 43.4 2.2 43.4 2.2s-8.5-8.8-15-21.6c-6.4-12.8 7.7-65.3 7.7-65.3l-7.7-45.2-2.1-44.4-13.1-35-61.2 9.3z"/><path d="M519.8 300.7s-28.9-1.7-31.7 31.6-13.6 35.7-13.6 35.7-22.9 16.7 4.2 32.6c27.1 15.9 54.7-16.6 54.7-16.6l-5.2-63-8.4-20.3z"/><path class="st12" d="M476.3 216.9c1.1 3.1-3.7 5.9-8.2 5.9s-8.2-2.7-8.2-5.9 3.7-7 8.2-7 6.9 3.5 8.2 7zM496.7 214.2c-1.1 3.1 3.7 5.9 8.2 5.9s8.2-2.7 8.2-5.9-3.7-7-8.2-7-6.9 3.5-8.2 7z"/><circle class="st8" cx="469.1" cy="216.1" r="2.4"/><circle class="st8" cx="503.6" cy="213.7" r="2.4"/><path class="st12" d="M484.5 242s-9.4-14.5 8.7-13c18.2 1.5 4.5 16 4.5 16s-7.5 5.3-13.2-3z"/><path class="st8" d="M487.5 236.4c-.2 0-.5-.1-.7-.2-.8-.4-1.1-1.3-.7-2.1.1-.1 1.5-3 4.8-3.9 2.8-.8 5.9 0 9.3 2.3.7.5.9 1.5.5 2.2-.5.7-1.5.9-2.2.5-2.6-1.7-4.9-2.3-6.7-1.9-1.9.5-2.8 2.1-2.8 2.2-.3.6-.9.9-1.5.9z"/><g><path class="st12" d="M474.2 267.5h-.5c-3.8-.3-6.4-4.6-6.5-4.8-.3-.5-.1-1.2.4-1.5.5-.3 1.2-.1 1.5.4 0 0 2.1 3.5 4.8 3.7 1.3.1 2.5-.5 3.7-1.9 4.9-5.6 7.7-7.5 15.6-8.5 5.9-.8 10 2.9 12.7 5.4.8.7 1.8 1.7 2.2 1.7 4.1.8 5.1-1.6 5.2-1.7.2-.5.8-.8 1.4-.6.5.2.8.8.6 1.4-.5 1.4-2.8 3.9-7.6 3-1-.2-1.9-1.1-3.2-2.3-2.5-2.3-6-5.5-10.9-4.9-7.3 1-9.6 2.5-14.3 7.8-1.6 1.9-3.3 2.8-5.1 2.8z"/><path class="st12" d="M493.4 257c-.6 0-1.1-.5-1.1-1.1v-8.1c0-.6.5-1.1 1.1-1.1s1.1.5 1.1 1.1v8.1c0 .6-.5 1.1-1.1 1.1z"/></g><g><path class="st12" d="M479.2 494.8c-.3-.8-8.5-20.8-6.5-32.4 1.9-11-3.2-25.9-3.3-26l-.1-.2-2.6-23.7 2.2 2.2c.2.2 16.2 16.1 25.2 12.7 9.3-3.5 13.2-8 13.2-8.1l2.5-3-7.8 48.3.2 29.5h-2.1l-.2-29.7v-.1l6.7-41.4c-2.2 1.8-6 4.3-11.7 6.5-8.2 3.1-20.4-6.8-25.3-11.2l2 17.7c.5 1.5 5.3 15.8 3.3 27-1.9 11 6.3 31 6.4 31.2l-2.1.7z"/></g><g><path class="st12" d="M519.4 251.3c-.4-.6-.9-2.2-1.2-4.2-.8-4-1.4-9.8-1.7-13.8.6-2.4 6.2-27.9-11-41.3-.6-.5-1.3-1-2-1.4-18.4-11.3-50.1 7.4-51.5 8.2l-.2.1-.1.2c-.7 1-1.3 2.2-1.8 3.5-2.4 6.6-2.4 17.2-1.1 25.5.2 1.3.4 2.6.7 3.7.6 2.7 1.4 5 2.2 6.4 2 3.4 2.3 10.8 2.1 16.7-.1 4.9-.5 8.8-.5 8.9v.2s.1.4.2 1.1c.1.5.2 1.2.3 2.1 0 .2.1.4.1.6.4 2.8.9 6.5 1.1 8.6v.1c.2 1.5 2.6 3.2 6 4.9 2.3 1.1 5.1 2.2 8.2 3.2 2.6.9 5.3 1.6 8 2.3 2.5.6 5 1.1 7.3 1.5.9.1 1.7.3 2.5.3h.3c1.5.2 2.8.2 4.1.2h1c2.5-.1 4.8-.9 6.9-2 .1 0 .1-.1.2-.1s.1-.1.1-.1c1.2-.6 2.3-1.4 3.3-2.2 1.5-1.1 2.8-2.4 4-3.7 4.2-4.4 6.8-9.1 7-9.5.1-.3.2-.6.4-.9.9-2 2.3-5.4 3.5-8.7 1.6-4.2 2.7-8.8 1.6-10.4zm-7.3 19.4s-.2.4-.6 1.1c-1.2 1.9-4.1 6.2-7.9 9.8-1.3 1.2-2.7 2.3-4.2 3.2l-.6.3c-2 1.1-4.2 1.9-6.4 2-2.3.1-5-.1-7.8-.6-.3 0-.5-.1-.8-.1-3-.5-6.1-1.3-9.1-2.1-7.2-2.1-13.7-4.8-16.3-6.6-.7-.5-1.1-.9-1.2-1.2v-.1c0-.3-.1-.6-.1-1-.4-3.9-1.4-10.3-1.6-11.4 0-.3.1-.9.2-1.8.1-1.2.2-2.8.3-4.6.3-6.5.1-15.9-2.4-20.3-3.4-5.8-4.9-24.9-1.6-33.9.4-1.1.8-2 1.4-2.8 1.5-.9 11.7-6.6 23.3-9.6h.1c7.9-2 16.5-2.7 23.4.3.5.2 1 .4 1.4.7.9.5 1.8 1.1 2.7 1.7 1.2 1 2.3 2 3.3 3.1 5.4 5.9 7.4 13.5 8 20.1.7 8.7-1.1 15.8-1.2 16v.4c.1.9.5 6.2 1.2 11 .5 3.6 1.2 7 2.1 8.2.2.3.2.9.1 1.8-.5 3.4-3 10.4-5.7 16.4z"/></g><g><path class="st13" d="M499.3 277.3s33.7-19.3 37.8 0c4.1 19.3-17 14.9-17 14.9h-20.8v-14.9zM484.5 277.3s-47.5-8-40.6 12.7c6.9 20.7 40.6 2.2 40.6 2.2v-14.9z"/><g class="st14"><path class="st12" d="M499.3 285.2c-.8 0-1.5-.6-1.6-1.4-.1-.9.5-1.7 1.4-1.8l27.5-2.9c.9-.1 1.7.5 1.8 1.4.1.9-.5 1.7-1.4 1.8l-27.5 2.9h-.2z"/></g><g class="st14"><path class="st12" d="M457.6 289.4c-.8 0-1.5-.6-1.6-1.4-.1-.9.5-1.7 1.4-1.8l25.7-3c.9-.1 1.7.5 1.8 1.4.1.9-.5 1.7-1.4 1.8l-25.7 3h-.2z"/></g><path style="fill:#c62e40" d="M484.5 277.3h14.9v14.9h-14.9z"/></g><path d="M447.9 308.7s18.8 4.9-4.7 34.6l-5.7 1.7 10.4-36.3z"/><path class="st16" d="M316.2 491.3c-6.3 3.4-12.5 6-18.6 8-20.5 6.7-39.1 6-51.7 4-10.2-1.6-16.5-4-16.5-4 5.3-18.6 12.8-57.6 16.5-77.6 1.4-7.5 2.2-12.3 2.2-12.3l17-45.2 15.6 17.2 13.1 14.4 7.8 8.6 9.9 59.1 4.7 27.8z"/><ellipse transform="rotate(-17.215 290.362 367.388)" class="st16" cx="290.4" cy="367.4" rx="49.8" ry="67"/><path d="M322.8 319.9s-7.5 36-29.8 32.4c-22.4-3.6-14.9 24.9-14.9 24.9s-17 33.2-32 39.1c-14.9 5.9-59.7-67.9-9.1-111 34.1-29.1 87.9 7.3 85.8 14.6z"/><g><path d="m729.2 183.8-2.4-.6c-2.7-.7-5.5-1.2-8.3-1.6l-3-.3c-2.1-.2-4.2-.3-6.4-.3-3.3 0-6.6.2-9.8.7-1 .1-2 .3-3 .4-2.8.5-5.5 1.2-8.2 2-.8.2-1.6.5-2.3.7-28.7 9.7-49.5 37-49.5 68.9 0 14.5 4.2 27.9 11.5 39.2 3.7 5.8 8.3 11.1 13.5 15.6 6.6 5.8 14.3 10.4 22.7 13.5 7.6 2.8 15.7 4.3 24.2 4.4h.8c10.2 0 19.8-2.1 28.6-5.9 8.4-3.6 16-8.7 22.4-15.1 13.4-13.2 21.7-31.5 21.7-51.8.2-33-22.1-61.1-52.5-69.8zM759.7 303c-6.2 6.4-13.6 11.6-21.9 15.2-8.8 3.9-18.4 6.1-28.6 6.1h-.7c-8.5-.1-16.6-1.6-24.1-4.5-8.4-3.1-16-7.8-22.5-13.7-5-4.5-9.3-9.6-12.8-15.4-6.7-10.8-10.5-23.5-10.5-37 0-30.7 19.6-56.8 47-66.5.7-.3 1.5-.5 2.2-.7 2.5-.8 5-1.4 7.5-1.9.8-.2 1.7-.3 2.5-.4 3.7-.6 7.5-.9 11.4-.9 2.7 0 5.4.1 8.1.5.8.1 1.7.2 2.5.3 2.6.4 5.1.9 7.6 1.6.8.2 1.5.4 2.3.6 29 8.8 50.2 35.8 50.2 67.6-.1 19-7.8 36.4-20.2 49.1z"/><path d="M728.9 195c-.7-.2-1.4-.4-2-.6-2.2-.7-4.5-1.2-6.7-1.6l-2.1-.3c-2.9-.4-5.8-.6-8.8-.6-4 0-7.9.4-11.7 1.1-.7.1-1.4.3-2.1.4-2.3.5-4.5 1.2-6.7 1.9-.7.2-1.3.5-2 .7-23.1 9-39.5 31.5-39.5 57.7 0 10.6 2.7 20.6 7.4 29.4 6.7 12.4 17.5 22.3 30.6 27.8 7.3 3.1 15.2 4.8 23.6 4.8h.3c10.3 0 20.1-2.5 28.6-7 7.6-4 14.2-9.5 19.6-16.1 8.6-10.6 13.7-24.1 13.7-38.8 0-27.3-17.7-50.5-42.2-58.8zm27.8 95c-10.9 14.3-28.2 23.5-47.5 23.5h-.2c-8.3 0-16.3-1.8-23.5-4.9-12.5-5.4-22.8-15-29.2-27-4.4-8.3-6.9-17.9-6.9-27.9 0-25.3 15.8-47 38.1-55.7.7-.3 1.3-.5 2-.7 2.2-.8 4.5-1.4 6.8-1.9.7-.2 1.5-.3 2.2-.4 3.4-.6 7-.9 10.6-.9 2.7 0 5.3.2 7.8.5.8.1 1.5.2 2.3.3 2.3.4 4.6.9 6.9 1.6.7.2 1.4.4 2 .6 23.7 8 40.8 30.4 40.8 56.7.1 13.6-4.5 26.1-12.2 36.2z"/><path d="M729.6 186.2c-.1-.8-.2-1.6-.4-2.4-2.3-9.8-11.1-17.1-21.6-17.1-10.8 0-19.9 7.8-21.8 18.1-.1.8-.3 1.6-.3 2.4-.1.5-.1 1.1-.1 1.6 0 2.5.4 4.9 1.2 7.2.2.7.5 1.3.8 2 3.5 7.6 11.2 13 20.1 13 9.3 0 17.3-5.8 20.6-13.9.3-.7.5-1.3.7-2 .6-2 .9-4 .9-6.2.1-1 0-1.9-.1-2.7zm-3.4 10.2c-3 7.3-10.2 12.4-18.5 12.4-8 0-14.9-4.7-18.1-11.6-.3-.6-.6-1.3-.8-2-.7-2-1.1-4.2-1.1-6.4 0-.8.1-1.6.1-2.4.1-.8.2-1.6.4-2.4 2.1-8.7 10-15.2 19.4-15.2 9.1 0 16.7 6 19.2 14.3.2.8.4 1.6.5 2.4.2 1.1.3 2.2.3 3.3 0 1.9-.3 3.8-.8 5.5-.1.8-.4 1.4-.6 2.1z"/><path d="M719.8 183.9c-.3-.8-.7-1.6-1.2-2.3-2.3-3.5-6.3-5.8-10.9-5.8-4.8 0-8.9 2.5-11.2 6.3-.4.7-.8 1.6-1.1 2.4-.5 1.3-.7 2.8-.7 4.3 0 1.6.3 3.1.8 4.5.3.7.6 1.3.9 2 2.2 3.9 6.5 6.6 11.3 6.6 5.1 0 9.5-2.9 11.6-7.1.3-.6.6-1.3.8-2 .4-1.2.6-2.6.6-3.9 0-1.8-.3-3.4-.9-5zm-2.8 10.6c-1.9 3.2-5.4 5.3-9.4 5.3-3.8 0-7.1-1.9-9.1-4.9-.4-.6-.8-1.3-1-2-.5-1.3-.8-2.6-.8-4.1 0-1.7.4-3.3 1.1-4.8.4-.9 1-1.7 1.6-2.4 2-2.3 5-3.8 8.2-3.8 3.1 0 5.9 1.3 7.9 3.4.7.7 1.2 1.5 1.7 2.3.9 1.6 1.3 3.3 1.3 5.2 0 1.3-.2 2.5-.6 3.6-.2.8-.5 1.5-.9 2.2z"/><path class="st8" d="M656.3 281.7c5.4-4 14.6 10.5 14.6 10.5s19.6-6.9 31.4 1.9c11.8 8.8 5.3 0 5.3 0h10.9l17.1-1.9s19.9-4.3 21-2.2c1.1 2.1 35.1 163.1 25.2 184.7h-161c0-.1 6.2-171 35.5-193z"/><path class="st17" d="m663.1 299.8-9.9 55.1M685.5 308.7l-6.7 69.1M709.2 308.7l-1.5 34.5M737.8 308.7v69.1"/></g><path class="st16" d="M441.4 504.8s68.4 18.8 76.6-44c5-38.5 15.8-83.4 15.8-83.4s-12.2-37-6.1-57.7c6.1-20.7-10.9-36.4 1.2-29.8 12.2 6.6 9.7 42.1 19.5 39.6 9.7-2.5 4.9-26.3-7.3-32.9-12.2-6.6-4.9-17.7 6.1-14.9s41.4 33.2 26.8 63.6c-12.6 26.2-11.6 125.4-11.1 152.6.1 5.5-.7 11-2.6 16.2-5.3 15-19.5 43.3-50.7 47.8-42.7 6.1-78 13.4-78 13.4l9.8-70.5z"/><path class="st18" d="M459.6 549.2c-.6 7.8-1.9 15-3.5 21.3l-5.4 21.4-74.9 3.9c-30.9 73.9-32.8 153.9-32.9 168.1v2.2c-21.2-2.7-46.1-11.1-70.3-21.3-30.6-12.9-60-28.8-79.2-39.8-13.6-7.8-22.1-13.1-22.1-13.1s0-1.3-.1-3.6c-.4-17.3-2.5-94-7-146.3-.5-5.5-1-10.7-1.5-15.6-.6-5.8-.8-11.1-.5-15.8 2-42 33.4-45 33.4-45l17.8-1.3 6-.5 18.3-1.4-.6 1.8c-1.1 3.6-1.7 6.8-1.8 9.6-.6 15.1 13.5 18.5 40 18.5 32.2 0 36.6-25.9 36.6-25.9l37 6.4 63.3 15.4 1.2.3.9.2 2 .5 24.7 6 2.1.5 7.4 1.8 1.1.3 1.1.3.8.2c.4 1.3.8 2.6 1.1 3.8.2.8.5 1.6.7 2.4.5 2 1 3.9 1.4 5.9 1 4.4 1.7 8.8 2.2 12.9 1.2 9.5 1.3 18 .7 25.9z"/><g><path class="st8" d="M229.3 627.8s-18.2-30.9 23.1-43.4c0 0 42.2-8.5 35.8 30 0 0-11.7 9-31.1 3.1 0 0-11.1 16.9-27.8 10.3z"/><ellipse transform="rotate(-45.001 213.49 587.593)" class="st8" cx="213.5" cy="587.6" rx="7.8" ry="11.8"/><ellipse transform="rotate(-87.351 281.087 567.771) scale(.99997)" class="st8" cx="281.1" cy="567.8" rx="11.8" ry="7.8"/><ellipse transform="rotate(-22.482 229.65 565.596)" class="st8" cx="229.7" cy="565.6" rx="9.4" ry="14.3"/><ellipse transform="rotate(-84.806 254.909 559.75)" class="st8" cx="254.9" cy="559.8" rx="14.3" ry="9.4"/></g><path d="M701.1 431.1h10.2v12.8h-10.2z"/><path style="fill:#19124c" d="M760.7 375.5h15.6v24.1h-15.6z"/><path class="st13" d="M763.8 397.9c-1.8-.1-3.5-1.1-5.3-.8-6.1.8-15.6 5-14.9 23.2.8 21.7 1.4 48.1 1.6 57.4 0 1.9 1.6 3.5 3.6 3.5h41.4c2 0 3.6-1.6 3.6-3.6v-65.3s-3.2-17.2-17.5-15.4c-6.5.8-10.1 1.2-12.5 1z"/><path class="st18" d="M701.1 442.7h10.2s8 1.7 9.2 8.1c1 5.3.3 23.6.1 29.7 0 1.1-1 2-2.1 2h-24.4c-1.2 0-2.1-.9-2.1-2.1v-30.3s3.6-7.4 9.1-7.4z"/><path class="st20" d="M744.1 412.3h39.7v15.9h-39.7zM692.4 460.4h19.8v7.9h-19.8zM744.1 450.6h39.7v18.1h-39.7z"/><circle class="st7" cx="272.7" cy="147.7" r="6"/><circle class="st7" cx="340.3" cy="107.6" r="5.8"/><circle class="st7" cx="334.5" cy="236.4" r="11.6"/><path class="st7" d="M537.7 132s-8 18.9-13.1 21.7c0 0 13.6 3.8 13.1 15.1 0 0 7.3-17.7 12.2-18.4 0 0-11.7-8.6-12.2-18.4zM498.1 79s-4.4 10.5-7.3 12.1c0 0 7.6 2.1 7.3 8.4 0 0 4.1-9.8 6.8-10.2 0-.1-6.5-4.9-6.8-10.3z"/><path d="M238.7 324.3s-53.8-19.2-76.4 44.3.8 123.2-28.6 136.2c-29.5 13-31.4 23.8-31.4 23.8s18.7 43 71.7 7.8 46.1-97.2 55-127.1 14.7-61.3 14.7-61.3l-5-23.7z"/><g><path class="st18" d="M243 373.6h-.7c-2.9-.4-5-3.1-4.6-6 3.9-30.3-16.1-41.1-16.3-41.2-2.6-1.4-3.6-4.6-2.3-7.2 1.4-2.6 4.6-3.6 7.2-2.3 1.1.6 26.8 14.5 21.9 52-.2 2.7-2.5 4.7-5.2 4.7z"/></g><ellipse transform="rotate(-17.215 278.707 364.155)" class="st16" cx="278.7" cy="364.1" rx="12.4" ry="16.8"/></svg>