<svg version="1.1" id="Layer_1" xmlns="http://www.w3.org/2000/svg" x="0" y="0" viewBox="0 0 870.9 894.3" style="enable-background:new 0 0 870.9 894.3" xml:space="preserve"><style>.st2{opacity:.15;fill:#231f20}.st3{fill:#4570ad}.st5{fill:#f1f2f2}.st7{fill:#ff4d53}.st8{fill:#fdfeff}.st9{fill:#323233}.st10{fill:#fff}.st12{fill:#d1d3d4}.st13{fill:#222223}.st14{fill:#fdbf9e}.st15{fill:#c1444d}.st16{fill:#bcbec0}.st18{fill:#6d6e71}.st19{fill:#a7a9ac}.st22{fill:#414042}.st25{fill:#7fc5f4}.st26{fill:#ffbf9c}.st28{fill:#feac02}.st29{opacity:.42}.st32{fill:#261b18}.st33{fill:#21b06e}.st34{fill:#261b18}.st34,.st35{opacity:.84}</style><path d="M74.3 763.1c-.8-1.2-1.5-2.5-2.3-3.7C59.3 740.8-55.7 564 63 410.5 188.5 248.4 300 189.1 372.4 92 448.1-9.4 710-35.7 795.9 92s49.5 330.3 49.5 330.3S831 528.7 852 608.2c1 3.6 1.7 7.3 2.2 11 6.7 48.7 28.9 324.2-344.7 255-5.3-1-10.7-1.5-16.1-1.6-53.7-.9-358.3-10.3-419.1-109.5z" style="fill:#cfb5f6"/><path d="M77.6 751.6s-129.5-180.5-9.6-336 237.4-205 295.5-305.5 322.3-122.4 404.3 0S815 426.8 815 426.8s-14.2 105.2 7.3 181.8c0 0 62.7 322.7-325.5 251.9-6.7-1.2-13.4-1.9-20.2-2.1-57.5-1-344.6-11.2-399-106.8z" style="fill:#e1d4f9"/><ellipse class="st2" cx="603.9" cy="821.5" rx="49.2" ry="22.5"/><path class="st3" d="M666.6 522.3v286.8s-464.8-72.2-466.5-75.7c-1.7-3.4 18.3-263 18.3-263l448.2 51.9z"/><path style="fill:#3d6799" d="M666.6 512.6v296.5l75-62-2.2-263.9z"/><path class="st5" d="m674.8 502.9 72.2-42.6-509.8-65.6-22.4 51.7z"/><path style="opacity:.32;fill:#111" d="M214.8 502.9 668 563.5l71.7-41.2-2.9-29.5-70.2 35.3-448.2-57.7z"/><path class="st3" d="m217.8 481.2 457 58.9 72.2-42.7v-37.1l-72.2 42.6-456.4-57.4z"/><path class="st7" d="M443.8 592.3c14.3 23.3 9.6 52.2-11.5 65.1-21.1 13-49.8 4.6-64.1-18.7-14.3-23.3-8.8-52.7 12.3-65.6 21.1-13 49-4.1 63.3 19.2z"/><path class="st8" d="M433.3 626.9c-.2 0-.5 0-.7-.1l-56.5-8.3c-2.7-.4-4.6-2.9-4.2-5.7s2.9-4.6 5.7-4.2L434 617c2.7.4 4.6 2.9 4.2 5.7-.3 2.5-2.5 4.2-4.9 4.2z"/><path class="st8" d="M403.2 651.1c-2.8 0-5-2.2-5-5v-59.3c0-2.8 2.2-5 5-5s5 2.2 5 5v59.3c0 2.8-2.2 5-5 5z"/><ellipse class="st2" cx="188.9" cy="756.9" rx="61.9" ry="20.7"/><path class="st9" d="m561.7 119 199 19.8c4 .4 7 3.7 7 7.7v280.1c0 4.6-3.9 8.1-8.4 7.8l-190.1-16.5c-4-.3-7.1-3.6-7.2-7.6l-7.4-281.9c-.1-5.5 1.6-10 7.1-9.4z"/><path class="st10" d="m563.1 121.2 196.2 19.5c3.9.4 6.9 3.7 6.9 7.6v276.1c0 4.5-3.8 8-8.3 7.6l-187.4-16.3c-3.9-.3-7-3.5-7.1-7.5l-7.3-277.9c-.1-5.3 1.6-9.6 7-9.1z"/><path style="fill:#808285" d="m574.7 139 172 17.5v276.8l-172-16.1z"/><path class="st9" d="M601.8 398.8c-.8 0-1.5-.7-1.5-1.5l.4-254c0-.8.7-1.5 1.5-1.5s1.5.7 1.5 1.5l-.4 254c0 .9-.7 1.5-1.5 1.5z"/><path class="st12" d="m574.9 200.9 31.5-17.4 140.6 22-.3 24.2zM574.9 278.8l31.5-17.5 140.6 22-.3 24.2zM574.1 360.7l31.5-17.4 140.6 21.9-.3 24.2z"/><path class="st10" d="m574.9 200.9 172.5 22.8v9l-172.5-21.2zM574.4 279.8 747 302.5v9.1l-172.6-21.2zM574.4 360.7 747 383.4v9l-172.6-21.2zM387.9 261.3H339c-12.4 0-22.5-10.1-22.5-22.5v-2.3c0-12.4 10.1-22.5 22.5-22.5h48.9c12.4 0 22.5 10.1 22.5 22.5v2.3c0 12.5-10.1 22.5-22.5 22.5z"/><path class="st13" d="M384.9 297.2c-.6 0-1.1-.1-1.7-.4l-17.1-8.3h-72.5c-11.1 0-20.1-9-20.1-20.1v-18.6c0-11.1 9-20.1 20.1-20.1h72.8c11.1 0 20.1 9 20.1 20.1v18.6c0 2-.3 4-.9 6l3 18.4c.2 1.4-.3 2.8-1.5 3.7-.7.4-1.4.7-2.2.7zm-91.3-64.5c-9.4 0-17.1 7.7-17.1 17.1v18.6c0 9.4 7.7 17.1 17.1 17.1h73.2l17.7 8.7c.4.2.7 0 .8-.1.1-.1.4-.3.3-.8l-3.1-19.2.1-.3c.6-1.7.9-3.5.9-5.4v-18.6c0-9.4-7.7-17.1-17.1-17.1h-72.8z"/><path class="st13" d="M373.8 255.1h-85.5c-1.6 0-3-1.3-3-3 0-1.6 1.3-3 3-3h85.5c1.6 0 3 1.3 3 3 0 1.6-1.3 3-3 3zM348.7 267.6h-61.4c-1.6 0-3-1.3-3-3 0-1.6 1.3-3 3-3h61.4c1.6 0 3 1.3 3 3s-1.4 3-3 3z"/><g><circle class="st7" cx="295.9" cy="205.5" r="18.2"/><path class="st8" d="M294.9 215.9c-.8 0-1.6-.3-2.1-.9l-8.6-8.6c-1.2-1.2-1.2-3.1 0-4.2s3.1-1.2 4.2 0l5.9 5.9 8.1-13.2c.9-1.4 2.7-1.9 4.1-1 1.4.9 1.9 2.7 1 4.1l-10.1 16.5c-.5.8-1.3 1.3-2.2 1.4h-.3z"/></g><g><path class="st14" d="M394 344.9s-8.7-7-12.1-7.3c-3.4-.3-4.9-4-11-6.1-6.1-2.1-12.2-6.4-12.2-6.4s-3.7 2.4 0 6.4 8.3 7.1 3.4 8c-4.9.9-20.8 3.4-20.8 3.4s-6.1 2.7-1.2 4.3h8.6l-10.5 3.1s-3.6 5.2 3.4 3.7l4 .3s-5.2 4.9.9 4.6l5.8-1.7s-5.5 2-3.4 3.9c2.1 1.8 22.6-2.8 24.5-6.4 0 0 .9-.1 5.2 2.6 4.3 2.6 10.4 6.9 10.4 6.9s5.8-17.1 5-19.3z"/><path class="st15" d="m403 347.1-9.8-4.3s-1.5 15.9-8.3 21.1c0 0 10.7 6.9 11.2 7.2s6.9-24 6.9-24z"/><path class="st14" d="M501.2 431.8s-2.8 3.1-5.5 5.4c-2.8 2.3-16.2 1.4-16.2 1.4s-7.3-.3-16.2 4.9-12.5 6.4-12.5 6.4 3.1 4 8.6 1.5c5.5-2.4 9.8-5.8 9.8-5.8s2.4.6.6 2.4c-1.8 1.8-4.6 4.3-4.9 10.1-.3 5.8.9 6.7.9 6.7s.6 1.8 3.4-2.1l3.1-9.2 1.8-3-1.2 14.8s1.6 2.6 5.1-2c0 0 1.3 6.1 3.5-.6 2.1-6.7.9-7.7 4.9-9.1 4-1.3 14.5 1 20.2-3.2 5.6-4.1 7.3-4.9 7.3-4.9s-4.8-10.4-12.7-13.7z"/><path class="st15" d="m503.7 426.3-5.9 6.1s13.8 8.9 14.7 15.6l10.1-5.8s-9.9-15-18.9-15.9z"/><ellipse class="st14" cx="503.7" cy="232.9" rx="21" ry="31.3"/><path class="st13" d="M485.7 214.8s-11.5-2.3-8.3-16.6c3.2-14.2 49.5-13.8 59.2-3.2 9.6 10.5 8.9 40.9-7.5 51.4 0 0 4.3-12.9-4.9-18.9 0 0-4.1-15.1-10.5-14.7-6.5.5-28 2-28 2z"/><path class="st14" d="m503.7 259.3 2.5 29.7s26.8-2.4 29.9-18.7l-7.2-39.1-25.2 28.1z"/><path class="st7" d="M533.9 264.2s-8.3 16.8-21.1 17.7c0 0-8-.3-9.1-17.7 0 0-7.1-.3-11.1 5.5s-13.1 35.5-12.8 51.1l-1.9 106.7 38 2.4V370s3.7-48 10.1-63c6.4-15 21.1-26.3 17.9-33.9-3.3-7.6-10-8.9-10-8.9z"/><path class="st8" d="M497.8 264.2s-35.2 2.8-46.8 29c-11.6 26.3-21.7 64.5-21.7 64.5l-29.7-15.3s-3.1 26.3-8.6 25.4l39.7 25.7s18 9.5 24.5-9.8l2.4-6.4-1.5 48.3 26.5 2.2V318c.2 0 2.7-36.9 15.2-53.8zM538.9 266.7l18.5 7s27.2 7.6 28.1 28.7c.9 21.1-7.9 88.7-7.9 88.7s-5.2 28.1-30.6 40.7c-25.4 12.5-26.4 13.8-26.4 13.8s-11.5-20.5-21.3-16.7l14.4-15.4 1.2-65.1s3.7-36.7 11.3-48.6c7.6-11.9 16.3-20.5 16.2-22.3.1-2-3.5-10.8-3.5-10.8z"/><path class="st16" d="M489.6 268.5c-1.9 2.6-3.8 5.2-5.7 7.9-1.9 2.6-3.8 5.2-5.8 7.8-3.9 5.2-7.8 10.3-11.7 15.5l.1-.8 4.4 13c1.5 4.3 2.8 8.7 4.3 13l.1.3-.1.3-3.6 9.7-3.7 9.7v-.6c1.7 3.7 3.3 7.5 4.9 11.2 1.6 3.8 3.2 7.5 4.8 11.3-1.9-3.6-3.7-7.3-5.6-10.9-1.8-3.6-3.7-7.3-5.5-11l-.1-.3.1-.3 3.4-9.8 3.4-9.7v.6c-1.4-4.3-2.9-8.6-4.3-13l-4.2-13-.2-.5.3-.4c4-5.1 8.1-10.1 12.2-15.1 2-2.5 4.1-5 6.2-7.5 2.1-2.4 4.2-4.9 6.3-7.4zM456.5 315c1.1 2.4 1.7 5 2.1 7.6.4 2.6.7 5.2.8 7.8.2 5.3 0 10.5 0 15.7-.1 5.2-.3 10.4-.6 15.6-.3 5.2-.6 10.4-1.1 15.6-.3-5.2-.4-10.4-.4-15.7 0-5.2 0-10.4.1-15.6l.2-7.8c.1-2.6.2-5.2.2-7.8 0-2.6 0-5.2-.2-7.8-.1-2.5-.4-5.1-1.1-7.6zM550.9 271.2c0 3.5-.1 7-.2 10.4-.1 3.5-.2 7-.3 10.4-.2 6.9-.5 13.9-.8 20.8v.4l-.3.3-10.7 9.7-10.7 9.6.3-.9 2 10.6 2 10.6.1.4-.2.2c-2.7 2.7-5.3 5.5-8 8.2-2.7 2.7-5.4 5.5-8.1 8.1l7.5-8.7c2.5-2.9 5.1-5.7 7.6-8.6l-.2.6-2.3-10.5-2.2-10.5-.1-.5.4-.4 10.7-9.7 10.7-9.6-.3.6c.4-6.9.9-13.9 1.4-20.8.3-3.5.5-6.9.8-10.4.2-3.4.5-6.8.9-10.3zM554.7 337.6c-.5 3.7-1.1 7.4-1.7 11-.6 3.7-1.3 7.3-1.9 11-1.4 7.3-2.8 14.6-4.3 21.9l-.1.3-.2.2c-1.8 1.9-3.6 3.8-5.3 5.7l-5.4 5.7c-1.8 1.9-3.6 3.8-5.5 5.6-1.9 1.8-3.7 3.7-5.6 5.5 1.6-2.1 3.3-4.1 5-6.1l5.1-6c1.7-2 3.4-4 5.1-5.9 1.7-2 3.4-3.9 5.2-5.9l-.2.5c1.4-7.3 2.9-14.6 4.5-21.8.8-3.6 1.6-7.3 2.5-10.9.9-3.6 1.8-7.2 2.8-10.8z"/><path d="m489.6 281.6 4.3 14.7 17.2-11.6 8.2 15 11.9-7.1 11.3-15.2-3.5-10.7-5-2.5s-9.5 18.3-21.1 17.7c0 0-6.8 0-9.1-17.7l-7.6 2.5-6.6 14.9z" style="fill:#ad3d4b"/><ellipse transform="rotate(-79.415 530.065 231.19)" class="st14" cx="530.1" cy="231.2" rx="8.6" ry="5.8"/><path transform="rotate(-10.765 491.957 286.484)" class="st10" d="M490.5 276.5h3v20h-3z"/><path transform="rotate(-32.232 527.726 294.38)" class="st10" d="M517.7 292.9h20.1v3h-20.1z"/></g><g><path class="st10" d="m594.8 176.2.7 19.6s11.5 8.1 20.5 0v-19.6h-21.2z"/><ellipse class="st18" cx="605.6" cy="175.3" rx="11.2" ry="4.5"/><path class="st5" d="M597 180.2s11.3 3.6 17.6 0v14.9s-9.1 6.9-17.6 0v-14.9z"/><path class="st18" d="M596.8 186.6s6.7 1.5 8.3 0v5.8s-4.4 1.8-8.3-.4v-5.4z"/><ellipse class="st19" cx="605.6" cy="173.9" rx="11.2" ry="3.8"/></g><g><path class="st10" d="m709.5 271.3.7 19.6s11.5 8.1 20.5 0v-19.6h-21.2z"/><ellipse class="st18" cx="720.3" cy="270.4" rx="11.2" ry="4.5"/><path class="st5" d="M711.7 275.3s11.3 3.6 17.6 0v14.9s-9.1 6.9-17.6 0v-14.9z"/><path class="st18" d="M711.5 281.6s6.7 1.5 8.3 0v5.8s-4.4 1.8-8.3-.4v-5.4z"/><ellipse class="st19" cx="720.3" cy="268.9" rx="11.2" ry="3.8"/></g><g><path class="st10" d="m620.4 180.7.7 19.6s11.5 8.1 20.5 0v-19.6h-21.2z"/><ellipse class="st18" cx="631.2" cy="179.8" rx="11.2" ry="4.5"/><path class="st5" d="M622.6 184.7s11.3 3.6 17.6 0v14.9s-9.1 6.9-17.6 0v-14.9z"/><path class="st18" d="M622.4 191s6.7 1.5 8.3 0v5.8s-4.4 1.8-8.3-.4V191z"/><ellipse class="st19" cx="631.2" cy="178.3" rx="11.2" ry="3.8"/></g><g><path class="st10" d="m648 183.4.7 19.6s11.5 8.1 20.5 0v-19.6H648z"/><ellipse class="st18" cx="658.8" cy="182.5" rx="11.2" ry="4.5"/><path class="st5" d="M650.2 187.4s11.3 3.6 17.6 0v14.9s-9.1 6.9-17.6 0v-14.9z"/><path class="st18" d="M650 193.7s6.7 1.5 8.3 0v5.8s-4.4 1.8-8.3-.4v-5.4z"/><ellipse class="st19" cx="658.8" cy="181" rx="11.2" ry="3.8"/></g><g><path class="st10" d="M686.7 186.4s-5.1.1-5.8 3.4c-.5 2.5-.9 10.6-1.1 14.5-.1 1.5.7 2.9 2 3.6 2.4 1.3 6.7 2.6 11.7-.1 1.2-.6 2-1.9 2.1-3.3l.8-13.6s.7-2.5-4.8-4.6h-4.9z"/><ellipse class="st19" cx="688.7" cy="185.6" rx="4" ry="2.1"/><ellipse class="st19" cx="688.7" cy="184.3" rx="4" ry="2.1"/></g><g><path class="st10" d="M707.1 188.1s-5.1.1-5.8 3.4c-.5 2.5-.9 10.6-1.1 14.5-.1 1.5.7 2.9 2 3.6 2.4 1.3 6.7 2.6 11.7-.1 1.2-.6 2-1.9 2.1-3.3l.8-13.6s.7-2.5-4.8-4.6h-4.9z"/><ellipse class="st19" cx="709.1" cy="187.3" rx="4" ry="2.1"/><ellipse class="st19" cx="709.1" cy="186" rx="4" ry="2.1"/></g><g><path class="st10" d="M724.8 190s-5.1.1-5.8 3.4c-.5 2.5-.9 10.6-1.1 14.5-.1 1.5.7 2.9 2 3.6 2.4 1.3 6.7 2.6 11.7-.1 1.2-.6 2-1.9 2.1-3.3l.8-13.6s.7-2.5-4.8-4.6h-4.9z"/><ellipse class="st19" cx="726.8" cy="189.2" rx="4" ry="2.1"/><ellipse class="st19" cx="726.8" cy="187.9" rx="4" ry="2.1"/></g><g><path class="st5" d="m595.8 264.2 16.3-8.4 41 4.2-16 7.6z"/><path class="st10" d="m637.1 283-40.1-3.2-1.2-15.6 41.3 3.4z"/><path class="st12" d="m653.1 260-16 7.6V283l16-9.4z"/><path class="st18" d="m628.8 273.5-31.9-2.9c-.6-.1-1-.5-.9-1.1.1-.5.5-1 1.1-.9l31.8 2.9c.6.1 1 .5.9 1.1 0 .5-.5.9-1 .9z"/><path class="st5" d="m653.1 261.3-15.1 7.2V283l15.1-8.8z"/></g><g><path class="st5" d="m618.8 346.1 16.2-8.5 41.1 4.3-16.1 7.6z"/><path class="st10" d="m660 364.9-40.1-3.2-1.1-15.6 41.2 3.4z"/><path class="st12" d="m676.1 341.9-16.1 7.6v15.4l16.1-9.4z"/><path class="st5" d="m676.1 343.2-15.2 7.1v14.6l15.2-8.9z"/><path transform="rotate(-82.75 625.85 350.184)" class="st18" d="M624.8 344.4h2V356h-2z"/><path transform="rotate(-82.779 625.848 354.755)" class="st18" d="M624.8 349h2v11.6h-2z"/><path class="st18" d="m633.3 347.3 10.4 16.3 16.3 1.3v-15.4z"/><path transform="rotate(-86.593 649.352 353.711) scale(.99997)" class="st10" d="M648.4 348.1h2v11.3h-2z"/><path class="st10" d="M645.7 356.8h6v2h-6z"/></g><g><path class="st5" d="m687 354.6 16.3-8.5 41 4.2-16 7.6z"/><path class="st10" d="m728.3 373.4-40.1-3.2-1.2-15.6 41.3 3.3z"/><path class="st12" d="m744.3 350.3-16 7.6v15.5l16-9.4z"/><path class="st5" d="m744.3 351.7-15.1 7.1v14.6l15.1-8.9z"/><path transform="rotate(-82.75 694.108 358.668)" class="st18" d="M693.1 352.9h2v11.6h-2z"/><path transform="rotate(-82.779 694.107 363.238)" class="st18" d="M693.1 357.5h2v11.6h-2z"/><path class="st18" d="m701.6 355.8 10.4 16.3 16.3 1.3v-15.5z"/><path transform="rotate(-86.593 717.61 362.195) scale(.99997)" class="st10" d="M716.6 356.6h2v11.3h-2z"/><path class="st10" d="M714 365.3h6v2h-6z"/></g><g><path class="st5" d="m686.3 339.9 16.2-8.5 41.1 4.2-16.1 7.6z"/><path class="st10" d="m727.5 358.7-40.1-3.2-1.1-15.6 41.2 3.3z"/><path class="st12" d="m743.6 335.6-16.1 7.6v15.5l16.1-9.4z"/><path class="st5" d="m743.6 337-15.2 7.1v14.6l15.2-8.9z"/><path transform="rotate(-82.75 693.358 343.951)" class="st18" d="M692.4 338.2h2v11.6h-2z"/><path transform="rotate(-82.779 693.356 348.521)" class="st18" d="M692.4 342.8h2v11.6h-2z"/><path class="st18" d="m700.8 341 10.4 16.4 16.3 1.3v-15.5z"/><path transform="rotate(-86.593 716.86 347.478) scale(.99997)" class="st10" d="M715.9 341.8h2v11.3h-2z"/><path class="st10" d="M713.2 350.6h6v2h-6z"/></g><g><path class="st5" d="m645.6 270.6 16.5-8.6 41.9 4.3-16.3 7.7z"/><path class="st10" d="m687.7 289.7-41-3.3-1.1-15.8 42.1 3.4z"/><path class="st12" d="m704 266.3-16.3 7.7v15.7l16.3-9.5z"/><path class="st18" d="m679.2 280-32.6-3c-.6-.1-1-.5-.9-1.1.1-.6.6-1 1.1-.9l32.5 3c.6.1 1 .5.9 1.1 0 .5-.4.9-1 .9z"/><path class="st5" d="m704 267.7-15.4 7.2v14.8l15.4-9z"/></g><g><path class="st19" d="m544.2 468.1 7.1-73.6 135-34.9 9.7 1.3-146.1 109.5z"/><path style="fill:#231f20" d="m549.9 470.4 7.4-73.9L696 360.9l-5.7 73.5z"/><path style="opacity:.32;fill:#484949" d="m620 470.4-16.3 4.1 13.4 8.7 5.9-1.2z"/><path class="st22" d="m617.1 483.2-2.3-61.4 31.9-6.2 2 61z"/></g><g><path d="m386.7 420.8 1 29.7s17.4 12.2 31 0v-29.7h-32z" style="fill:#545456"/><ellipse cx="402.9" cy="419.4" rx="16.9" ry="6.9" style="fill:#6aaace"/><path class="st8" d="M389.9 426.8s17.1 5.5 26.6 0v22.6s-13.8 10.4-26.6 0v-22.6z"/><path class="st25" d="M389.9 435.1s18 3.4 22.3 0v12.8s-11.9 4-22.3-.9v-11.9z"/><ellipse class="st25" cx="402.9" cy="417.2" rx="16.9" ry="5.7"/></g><g><path class="st10" d="m356.8 354.1 42.3 20.2-68 49.6-36.4-21.3z"/><path transform="rotate(-63.327 372.052 367.87)" class="st12" d="M370.5 351.5h3v32.7h-3z"/><path transform="rotate(-63.773 365.183 372.943)" class="st12" d="M363.7 352.5h3v40.8h-3z"/><path transform="rotate(-61.894 345.66 377.417)" class="st12" d="M344.2 367.9h3V387h-3z"/><path transform="rotate(-62.366 338.387 383.329)" class="st12" d="M336.9 375.1h3v16.5h-3z"/><path transform="rotate(-61.21 329.168 391.567)" class="st12" d="M327.7 382.4h3v18.4h-3z"/><path transform="rotate(-61.659 322.722 402.824)" class="st12" d="M321.2 388.5h3v28.7h-3z"/><path class="st26" d="m160.1 608.6-6.4 18.8s-6.4 14.2 0 44.9l10.1 74.8s11.9 10.1 15.6 0v-8.3l8.7-125.2-28-5z"/><path class="st13" d="M159.7 736s-7.6 16.2-4.6 22.5c3.1 6.3 14.4 4.1 14.4 4.1l15-11 10.4-8.9-6.7-4-8.7 1.5s-2 6.1-6.6 4.6c-4.7-1.5-5.3-10.3-13.2-8.8z"/><path class="st26" d="m185.3 308.6-7.3 32.3s25.9 4.1 25.9 0 4.8-32.3 4.8-32.3l-15.3-4.8-8.1 4.8z"/><ellipse class="st26" cx="214.1" cy="287" rx="22.7" ry="35.1"/><path d="M195.9 620.6s-10.5 13.3-12.4 27.5c-1.8 14.2 6.2 101.8 6.2 101.8s8 12.4 16.3 7.3l18.8-143.5-28.9 6.9z" style="fill:#febf9e"/><path class="st13" d="M204 747.3s2.3 8.3-2.8 5.5c-5.1-2.8-4.4-11.1-12.1-9.8-7.7 1.3-7.1 13.5-7.1 13.5s-2.5 15 11.3 14.4l35.8-10c3.3-.9 5.4-4.4 4.3-7.6-.6-1.7-2-3.2-4.9-3.8-8.3-1.9-24.5-2.2-24.5-2.2z"/><path class="st26" d="m237.9 413.8 13.5 20.5s4.9 8.9 19.6 6.1l71.5-19.6s15-.3 21.1-11c0 0 4-7.6 1.8-10.1 0 0-14.4 7-18.3 5.8l7-6.8s2.3-6-.2-5c-2.5.9-12.6 7.3-12.6 7.3s-9.6 5.3-8 9.6l-51.6 3.9-13.3.2-10.5-14.4-20 13.5zM145.9 404.3s3.4 26.1 15.4 32.3l6-11.7-7.3-24.3-14.1 3.7z"/><path class="st28" d="M189.5 334s24.3 0 36.2 14.4c11.9 14.4 31.6 47 31.6 47l3.7 5.5s-12.4 17.4-22.9 14.7c0 0-7.3 3.2-6.9 16.1s2.2 183.4 2.2 183.4-38.9 24.3-78.4-5c0 0-3.7-78.4-10.5-92.6 0 0-4.6-32.1 7.8-55s6.9-57.8 6.9-57.8-10.1 6-17.9-1.4v-46.8s4.7-27.4 28.9-24.8 19.3 2.3 19.3 2.3z"/><path class="st10" d="M218.4 342.4s-13.8-12.8-36.7-16.8l-3.4 15 40.1 1.8z"/><path class="st13" d="M231.6 269.3s6.6-3.7-7.8-16c-14.4-12.4-39.2-4.1-39.2-4.1s-26.1-8.5-35.8 20.2c0 0 6.9 14.9-13.1 30.7s-12.4 24.8-6.2 33c6.2 8.3 30.1 25.5 48.4 7.6 0 0 10.7-9.6-5.1-39.9 0 0 15.8 30.3 28.9 0 0 0-4.5-7.9 1.9-17.4l2.2-.5c2.7 7.8 6.9-3.5 6.9.7l1 11.2s11-36.9 14.4-31.2l3.5 5.7z"/><g><path class="st28" d="M180.8 280.4c-.2 0-.4-.1-.6-.2-.4-.3-.5-1-.2-1.4.1-.2 14.5-19.6 4.3-28.9-.4-.4-.4-1-.1-1.4.4-.4 1-.4 1.4-.1 11.5 10.6-3.4 30.8-4 31.6-.2.2-.5.4-.8.4z"/></g><ellipse transform="rotate(-10.486 203.422 291.644)" class="st26" cx="203.4" cy="291.6" rx="6.3" ry="9.7"/><g class="st29"><path class="st13" d="M208.7 379.5c2.6 2.5 5.1 5.1 7.5 7.7 2.4 2.6 4.8 5.4 7.1 8.1 2.3 2.8 4.6 5.5 6.8 8.4 2.2 2.8 4.4 5.7 6.3 8.8-2.6-2.5-5.1-5.1-7.5-7.7-2.4-2.6-4.8-5.4-7.1-8.1-2.3-2.8-4.6-5.5-6.8-8.4-2.2-2.9-4.3-5.8-6.3-8.8z"/></g><g><path class="st13" d="M187.8 456.4c-6.6 0-13-.9-18.1-3.4-5.2-2.5-8.7-6.5-10.4-11.8-.2-.5.1-1.1.6-1.3.5-.2 1.1.1 1.3.6 1.5 4.7 4.7 8.3 9.4 10.6 19.5 9.5 59.5-5.2 59.9-5.3.5-.2 1.1.1 1.3.6s-.1 1.1-.6 1.3c-1.3.5-23.7 8.7-43.4 8.7z"/></g><g class="st29"><path class="st13" d="M167.4 543.4c-1.3-.1-2.6-.5-3.8-1-1.2-.5-2.4-1.1-3.5-1.7-2.3-1.3-4.3-3-6.1-4.9-1.8-1.9-3.4-4-4.7-6.3-1.3-2.2-2.3-4.7-2.9-7.2 1.4 2.2 2.7 4.3 4.2 6.3s3.1 4 4.8 5.7c1.7 1.8 3.6 3.5 5.6 5 1 .7 2 1.5 3.1 2.1 1 .8 2.1 1.4 3.3 2z"/></g><path d="M153.3 359.3c.9 3.7 1.6 7.5 2.3 11.2.7 3.7 1.2 7.5 1.7 11.3.5 3.8.9 7.5 1.3 11.3.4 3.8.6 7.6.7 11.4-.9-3.7-1.6-7.5-2.3-11.2-.7-3.7-1.2-7.5-1.7-11.3-.5-3.8-.9-7.5-1.3-11.3-.4-3.8-.7-7.6-.7-11.4z" style="opacity:.49;fill:#222223"/></g><g><path class="st22" d="M626.5 737.6v66.3c0 3.6-.8 7.2-2.4 10.4-7.8 15.7-18.5 27.2-50.9 29.7-11.8.9-21.6-2.5-29.4-7.6-9.6-6.2-16.2-14.7-20-20.5-2.5-3.9-3.8-8.4-3.8-13v-65.2h106.5z"/><ellipse class="st19" cx="573.3" cy="737.6" rx="53.3" ry="19.3"/><path d="M626.5 741.2v67.9c-8.2 18.3-17.4 32.1-53.3 34.8-11.8.9-21.6-2.5-29.4-7.6 11.9-4.5 26.6-11.3 41.8-21.8 24.4-16.7 36-52 40.9-73.3z" style="opacity:.18;fill:#f7f7f7"/><path class="st8" d="M580.3 779.1c-51.1 0-60.9-24-61.3-25-.3-.9 0-1.9.7-2.3.7-.4 1.5 0 1.9.8.1.3 10.5 24.7 64.2 23 .3 0 30.1-1.3 38.3-13.6 1.7-2.5 2.3-5.2 1.8-8.3-.1-.9.4-1.8 1.2-2 .8-.2 1.5.5 1.6 1.4.6 4.1-.3 7.8-2.4 11.1-9 13.6-39.1 14.8-40.4 14.9h-5.6z"/><path class="st32" d="m568.8 737.6-7.3-97.8s2.4-41.1-5.2-57.9c-7.6-16.8-13.4-41.8-13.4-41.8l-6.6-28.8 20 47.3 12.6 50 10.7-57 5.7-4-10.3 61v63.7s9.2-41.3 30.9-38.5l10.7 5.8-12.8 6.4s-12.1 2.1-18.5 17.4c-6.4 15.3-8.9 72.3-8.9 72.3l-7.6 1.9z"/><path class="st33" d="M605.8 633.9s-20.5 17.4 20.8 33.9 43.4 50.4 43.4 50.4-1.2-61.5-16.8-84.4c-15.7-22.9-49.8-15.5-47.4.1zM565 676.1s-15.1-6.4-25.3 22c-10.2 28.4-12.4 49.2-12.4 49.2s40.2-5.2 45.6-23.6-7.9-47.6-7.9-47.6z"/><path class="st34" d="M616.5 543.1s-36.4 10-37.9 15.6l2.5-19.7c0-.1 19.5-7.4 35.4 4.1z"/><path class="st33" d="M578.7 555.7s-.5-45.7 34.2-36.5c34.7 9.2 38.6 30.3 41.3 62.4 0 0-17.8-36.1-48.4-38.2s-27.1 12.3-27.1 12.3z"/><path class="st34" d="M536.2 623.7s-27 9.7-41.2 31.2c0 0-5-19.7 0-24.8 5-4.9 32-16.1 41.2-6.4z"/><path class="st33" d="M561.4 639.7s15.2-33.4-17.1-39.8c-32.4-6.4-55 15.6-54.7 36.7 0 0 45.2-32.3 71.8 3.1z"/><path class="st34" d="M497.8 484.8s-10.7 7.6-11.2 26.5c0 0 15.9-10.9 23.5-9.1l-12.3-17.4z"/><path class="st33" d="M549.9 549.8s-94-73.2-36.2-73 46 23.5 36.2 73z"/><g class="st35"><path class="st32" d="M515.9 478c3.4 4.6 6.6 9.3 9.6 14.1 3 4.8 5.9 9.7 8.6 14.8 2.6 5 5.2 10.1 7.4 15.4 2.2 5.3 4.1 10.7 5.4 16.2-2-5.3-4.4-10.5-6.8-15.6l-1.9-3.8-1.9-3.8-3.9-7.5c-2.6-5-5.4-10-8.1-14.9l-8.4-14.9z"/></g><g class="st35"><path class="st32" d="M608.2 636.2c1.6-.1 3.3-.1 4.9.1 1.6.2 3.2.4 4.8.8 3.2.7 6.3 1.8 9.3 3.2 3 1.4 5.8 3.1 8.5 5s5.1 4.2 7.4 6.5c4.6 4.7 8.3 10.2 11.3 16 3 5.8 5.3 11.9 6.9 18.2-2.4-6-5.1-11.9-8.3-17.5-3.2-5.5-6.9-10.8-11.4-15.4-4.4-4.6-9.5-8.6-15.1-11.5-2.8-1.5-5.8-2.7-8.8-3.7-3.1-.9-6.3-1.5-9.5-1.7z"/></g><g class="st35"><path class="st32" d="M562.8 686.1c-.6 4.4-1.6 8.7-2.7 12.9-1.1 4.3-2.5 8.5-4.1 12.6-1.6 4.1-3.4 8.2-5.6 12-2.2 3.8-4.7 7.6-7.9 10.7 2.5-3.6 4.6-7.5 6.5-11.4 1.9-3.9 3.5-8 5.1-12 1.6-4.1 3-8.2 4.5-12.3l4.2-12.5z"/></g></g></svg>