<svg version="1.1" id="Layer_1" xmlns="http://www.w3.org/2000/svg" x="0" y="0" viewBox="0 0 943.8 561.32" style="enable-background:new 0 0 943.8 561.32" xml:space="preserve"><style>.st0{opacity:.63;fill:#e5d1f7}.st2{fill:#fa0}.st3{fill:#51998a}.st4{fill:#ff534f}.st5{fill:#8b22e2}.st6{fill:#fff}.st9{fill:#ffc40a}.st10{opacity:.54;fill:none;stroke:#bc9426;stroke-miterlimit:10}.st12{opacity:.33;fill:#fff}.st13{fill:#fff;stroke:#456eb6;stroke-width:3;stroke-miterlimit:10}.st15{fill:#ff505b}.st16{fill:#456eb6}.st18{fill:#2b378b}</style><switch><g><path class="st0" d="M777.45 189.75H151.92c-45.59 0-82.55-36.96-82.55-82.55 0-45.59 36.96-82.55 82.55-82.55h625.53c45.59 0 82.55 36.96 82.55 82.55-.01 45.59-36.96 82.55-82.55 82.55zM851.79 355.76H226.26c-45.59 0-82.55-36.96-82.55-82.55 0-45.59 36.96-82.55 82.55-82.55h625.53c45.59 0 82.55 36.96 82.55 82.55-.01 45.59-36.96 82.55-82.55 82.55z"/><path class="st0" d="M714.13 510.21H88.6c-45.59 0-82.55-36.96-82.55-82.55 0-45.59 36.96-82.55 82.55-82.55h625.53c45.59 0 82.55 36.96 82.55 82.55 0 45.6-36.96 82.55-82.55 82.55z"/><ellipse cx="494.37" cy="489.67" rx="404.15" ry="63.28" style="opacity:.77;fill:#e5d1f7"/><path class="st2" d="M80.94 284.61s-36.38-63.31-46.88-36.63 46.88 36.63 46.88 36.63zM120.79 311.04s-52.5-20.86-46.03.36c6.47 21.21 46.03-.36 46.03-.36zM155.08 331.91s-50.38-20.02-44.17.34c6.21 20.36 44.17-.34 44.17-.34zM194.11 367.39s-45.97-29.61-44.49-8.94 44.49 8.94 44.49 8.94zM216.45 407.41s-43.14-42.9-43.26-16.32c-.11 26.58 43.26 16.32 43.26 16.32z"/><path class="st2" d="M225.84 437.62s-33.54-38.25-33.58-14.6c-.04 23.65 33.58 14.6 33.58 14.6zM110.86 301.76s-44.14-38.12-21.63-42.32c22.51-4.19 21.63 42.32 21.63 42.32zM144.98 322.91s-36.36-42.03-14.55-42.88 14.55 42.88 14.55 42.88zM181.79 349.72s-36.43-42.12-14.58-42.97 14.58 42.97 14.58 42.97zM203.95 380.17s-13.64-53.06 4.05-47.51-4.05 47.51-4.05 47.51zM226.28 431.32s-13.51-56.58 6.41-48.4c19.91 8.19-6.41 48.4-6.41 48.4zM229.86 459.01s9.7-48.49 22.09-32.24c12.4 16.25-22.09 32.24-22.09 32.24z"/><path class="st2" d="M238.53 496.67c-.01-.3-.95-30.1-11.91-65.56-10.13-32.79-31.12-77.3-73.65-103.1l-81.6-49.51-1.44 2.37 81.6 49.51c80.03 48.56 84.19 165.19 84.22 166.36l2.78-.07z"/><path class="st3" d="M57.59 356.2s-38.23-38.23-40.58-17.13c-2.35 21.1 40.58 17.13 40.58 17.13zM91.18 367.4s-41.55-4.77-32.83 9.14 32.83-9.14 32.83-9.14zM119.72 375.69s-39.88-4.58-31.51 8.78 31.51-8.78 31.51-8.78zM154.47 393.52s-38.58-12.28-33.53 2.2c5.05 14.49 33.53-2.2 33.53-2.2zM178.17 417.81s-39.12-22.33-34.07-3.31c5.05 19.02 34.07 3.31 34.07 3.31z"/><path class="st3" d="M190.71 437.59s-31.36-20.86-26.82-3.95c4.54 16.9 26.82 3.95 26.82 3.95zM82.29 362.69s-38.91-18.72-23.63-26.07 23.63 26.07 23.63 26.07zM110.76 371.21s-34.1-23.02-18.68-27.84c15.42-4.81 18.68 27.84 18.68 27.84zM142.25 383.27s-34.17-23.07-18.72-27.9c15.45-4.83 18.72 27.9 18.72 27.9zM163.97 400.75s-19.99-35.29-6.28-34.74c13.71.55 6.28 34.74 6.28 34.74zM189.81 433s-20.58-37.83-4.77-35.83 4.77 35.83 4.77 35.83zM197.72 452.1s-2.43-36.53 9.57-27.31c11.99 9.22-9.57 27.31-9.57 27.31z"/><path class="st3" d="M211.19 477.34c-.06-.21-6.49-21.33-21.17-44.56-13.57-21.48-37.17-49.24-72.55-59.47l-67.88-19.63-.57 1.97 67.88 19.63c66.58 19.25 92.07 101.81 92.32 102.64l1.97-.58z"/><path class="st4" d="M212.86 294.95s-35.8-40.5-14.6-41.56c21.2-1.05 14.6 41.56 14.6 41.56zM221.97 329.16s-2.21-41.77 11.15-32.21c13.35 9.56-11.15 32.21-11.15 32.21zM228.49 358.16s-2.12-40.08 10.7-30.91c12.81 9.18-10.7 30.91-10.7 30.91zM244.14 393.93s-9.89-39.26 4.26-33.33c14.15 5.94-4.26 33.33-4.26 33.33zM266.93 419.08s-19.88-40.42-1.21-34.21c18.68 6.21 1.21 34.21 1.21 34.21z"/><path class="st4" d="M285.9 432.82s-18.89-32.58-2.3-27.01c16.61 5.57 2.3 27.01 2.3 27.01zM217.81 320s-16.29-39.99-24.57-25.19c-8.27 14.8 24.57 25.19 24.57 25.19zM224.57 348.94s-20.88-35.46-26.64-20.36c-5.75 15.1 26.64 20.36 26.64 20.36zM234.66 381.11s-20.92-35.53-26.69-20.4c-5.76 15.12 26.69 20.4 26.69 20.4zM250.78 403.86s-33.99-22.12-34.29-8.41 34.29 8.41 34.29 8.41zM281.38 431.64s-36.49-22.87-35.47-6.96c1.03 15.9 35.47 6.96 35.47 6.96zM299.96 440.7s-36.31-4.67-27.85 7.87 27.85-7.87 27.85-7.87z"/><path class="st4" d="M324.32 455.7c-.21-.08-20.89-7.79-43.17-23.87-20.61-14.87-46.86-40.13-54.89-76.07l-15.42-68.96 2-.45 15.42 68.96c15.12 67.63 95.96 98.16 96.77 98.46l-.71 1.93z"/><path class="st5" d="M124.72 497.76s-44.88-57.4 35.88-64.59c80.77-7.19 32.56-55.13 99.96-63.57 67.4-8.44 80.24 46.42 95.14 67.15s24.61 61.01 24.61 61.01H124.72z"/><path class="st2" d="M626.21 444.48s-42.25-227.32 237.98-244.24c0 0-7.97 257.59-237.98 244.24z"/><path class="st6" d="M632.59 432.24c17.85-19.54 35.89-38.9 54.12-58.08 9.08-9.63 18.26-19.15 27.39-28.72l27.56-28.56 27.72-28.4c9.3-9.41 18.54-18.88 27.89-28.24 18.62-18.79 37.44-37.4 56.44-55.82a3910.973 3910.973 0 0 1-54.11 58.08c-9.07 9.63-18.26 19.14-27.39 28.72l-27.56 28.55-27.72 28.4c-9.29 9.41-18.54 18.88-27.89 28.23a3859.715 3859.715 0 0 1-56.45 55.84z"/><path class="st6" d="M735.38 399.83c-6.99-.71-13.91-1.32-20.82-1.73-6.91-.39-13.8-.59-20.66-.3-6.85.26-13.66.99-20.27 2.6-6.6 1.61-12.95 4.27-18.5 8.62 4.31-5.61 10.82-9.47 17.58-11.73 3.39-1.19 6.89-1.97 10.4-2.59 3.53-.55 7.07-.87 10.62-1.06 3.55-.09 7.09-.06 10.62.14 3.53.24 7.04.56 10.53 1.1 6.97 1.04 13.87 2.57 20.5 4.95zM677.39 294.99c2.22 2.31 3.99 5.01 5.62 7.76.84 1.37 1.53 2.81 2.29 4.23.73 1.43 1.33 2.91 2.01 4.37.62 1.48 1.2 2.97 1.76 4.47.54 1.51 1.02 3.04 1.53 4.55.54 1.51.86 3.08 1.29 4.62.42 1.55.82 3.09 1.14 4.66l.96 4.7.7 4.74c.23 1.58.43 3.16.55 4.75.16 1.59.28 3.18.39 4.76.21 3.18.19 6.37.24 9.54-.13 3.18-.28 6.36-.6 9.53-.6-3.14-1-6.27-1.43-9.4l-.73-4.67c-.26-1.55-.39-3.11-.69-4.66-.61-3.08-.92-6.2-1.6-9.25l-.85-4.6-.98-4.57c-.28-1.54-.64-3.05-1.02-4.56-.37-1.51-.71-3.03-1.13-4.53-.41-1.5-.77-3.02-1.21-4.51-.47-1.48-.89-2.98-1.33-4.48-.98-2.95-1.93-5.93-3.09-8.84-1.12-2.91-2.36-5.79-3.82-8.61zM806.94 318.34c-6.73-.4-13.38-.65-20.01-.7-6.62 0-13.23.16-19.75.89-3.27.29-6.51.78-9.71 1.41-3.22.57-6.38 1.4-9.48 2.37-6.22 1.96-12.12 4.87-17.45 9.02 4.09-5.39 9.99-9.44 16.32-12.06 6.33-2.72 13.13-4.13 19.89-4.88 3.4-.31 6.8-.52 10.19-.5 3.4.05 6.78.16 10.15.52 6.74.66 13.42 1.84 19.85 3.93zM750.42 240.65c3.21 4.7 5.75 9.79 7.91 15.04 2.16 5.26 3.86 10.72 5.01 16.34 1.13 5.61 1.62 11.46.88 17.27-.38 2.9-1.13 5.77-2.36 8.44-1.26 2.64-3.02 5.08-5.31 6.78 3.29-4.68 4.29-10.11 4.44-15.48.04-2.7-.09-5.41-.43-8.11-.31-2.7-.74-5.41-1.29-8.09-.5-2.7-1.13-5.38-1.82-8.06-.64-2.69-1.44-5.34-2.16-8.03-1.56-5.33-3.22-10.67-4.87-16.1zM841.34 254c-2.89-2-5.77-3.7-8.76-4.92-2.97-1.24-6.03-1.93-9.08-1.92-1.52-.01-3.05.17-4.56.53-1.51.34-3.01.83-4.49 1.47-2.98 1.24-5.85 3-8.86 4.85 1.76-3.07 4.26-5.7 7.3-7.72 3.03-2.02 6.77-3.3 10.59-3.28 3.82-.02 7.55 1.21 10.61 3.2 3.06 1.99 5.64 4.62 7.25 7.79zM823.47 204.43c2.77 1.06 5.14 3 7.02 5.4 1.86 2.4 3.14 5.45 3.33 8.66.02.4.08.8.06 1.2l-.1 1.2c-.1.79-.13 1.6-.4 2.34-.23.75-.44 1.52-.72 2.24-.35.69-.72 1.37-1.09 2.04-.19.33-.36.67-.59.98l-.72.88c-.48.58-.97 1.14-1.47 1.69-1.12.99-2.29 1.9-3.52 2.67.55-1.41 1.26-2.61 1.86-3.86.25-.65.51-1.28.78-1.89l.41-.91c.12-.31.18-.64.29-.94.19-.63.38-1.24.59-1.84l.32-1.85c.17-.61.14-1.22.17-1.83l.06-.91c.01-.3-.06-.61-.07-.91-.14-2.43-.84-4.85-1.95-7.22-1.13-2.4-2.57-4.74-4.26-7.14z"/><g><path class="st3" d="M657.56 474.81s52.21-175.52 255.9-86.38c0 0-98.53 178.75-255.9 86.38z"/><path class="st6" d="M664.81 471.73c19.64-7.34 39.34-14.49 59.11-21.43 9.87-3.51 19.78-6.91 29.67-10.37l29.73-10.2 29.79-10.03c9.95-3.28 19.88-6.62 29.85-9.85 19.91-6.54 39.89-12.87 59.93-19-19.63 7.35-39.34 14.49-59.11 21.43-9.87 3.51-19.78 6.91-29.67 10.37l-29.73 10.19-29.79 10.02c-9.95 3.29-19.88 6.62-29.85 9.85a3021.38 3021.38 0 0 1-59.93 19.02z"/><path class="st6" d="M748.98 485.95c-4.67-3.02-9.33-5.94-14.05-8.73-4.73-2.76-9.52-5.39-14.46-7.66-4.92-2.29-9.99-4.23-15.23-5.47-5.24-1.24-10.67-1.66-16.15-.6 5.07-2.4 11.04-2.77 16.62-1.93 2.82.39 5.57 1.1 8.27 1.93 2.68.88 5.3 1.94 7.87 3.09 2.53 1.22 5.02 2.51 7.44 3.93 2.4 1.44 4.76 2.94 7.02 4.58 4.54 3.23 8.86 6.79 12.67 10.86zM745.91 391.11c.73 2.43 1 4.97 1.16 7.5.09 1.27.06 2.53.09 3.81 0 1.27-.11 2.53-.16 3.8-.1 1.26-.23 2.53-.37 3.79-.16 1.26-.38 2.51-.57 3.76-.17 1.26-.5 2.48-.76 3.73-.26 1.24-.54 2.48-.88 3.7l-1.02 3.66-1.21 3.59c-.41 1.2-.84 2.38-1.33 3.55-.46 1.18-.95 2.34-1.44 3.5-1 2.32-2.16 4.56-3.28 6.81-1.24 2.2-2.49 4.38-3.86 6.5.71-2.43 1.56-4.78 2.38-7.14l1.17-3.55c.37-1.19.85-2.34 1.19-3.53.68-2.39 1.59-4.7 2.2-7.1l1.06-3.55.96-3.58c.36-1.18.65-2.38.93-3.58.28-1.2.6-2.4.84-3.6.26-1.2.54-2.41.77-3.62.2-1.21.45-2.42.67-3.64.38-2.44.78-4.88 1.01-7.34.29-2.47.46-4.95.45-7.47zM828.83 454.3c-4.6-2.71-9.2-5.29-13.85-7.71-4.67-2.39-9.39-4.66-14.25-6.5-2.41-.97-4.87-1.8-7.36-2.51-2.47-.76-5-1.31-7.54-1.75-5.09-.87-10.3-.94-15.56.07 4.83-2.33 10.45-3.05 15.86-2.62 5.45.37 10.74 1.82 15.79 3.74 2.5 1.01 4.98 2.09 7.37 3.32 2.38 1.26 4.73 2.56 6.97 4.03 4.5 2.9 8.8 6.14 12.57 9.93zM817 379.14c.57 4.47.52 8.98.16 13.46a71.51 71.51 0 0 1-2.36 13.33c-1.23 4.37-2.99 8.67-5.61 12.5-1.31 1.91-2.88 3.66-4.71 5.1-1.84 1.41-3.96 2.49-6.19 2.87 4.01-2.12 6.67-5.59 8.72-9.31 1-1.89 1.89-3.85 2.62-5.88.76-2.02 1.43-4.08 2.01-6.17.62-2.08 1.14-4.2 1.62-6.34.52-2.13.92-4.29 1.37-6.44.82-4.34 1.58-8.7 2.37-13.12zM876.3 421.35c-1.31-2.45-2.74-4.69-4.4-6.63-1.65-1.94-3.56-3.54-5.71-4.63-1.07-.56-2.21-.98-3.4-1.27-1.19-.31-2.42-.5-3.7-.58-2.55-.2-5.21 0-7.99.22 2.35-1.53 5.06-2.48 7.94-2.81 2.86-.33 5.97.12 8.65 1.51 2.7 1.36 4.89 3.58 6.33 6.08 1.42 2.51 2.29 5.29 2.28 8.11zM881.57 379.95c1.57 1.74 2.54 3.97 3 6.34.44 2.37.25 4.98-.78 7.31-.13.29-.23.59-.39.87l-.5.81c-.35.52-.66 1.08-1.13 1.51-.44.45-.86.91-1.32 1.32-.5.36-1 .71-1.51 1.04-.25.17-.5.34-.77.48l-.82.36c-.55.24-1.1.45-1.65.66-1.14.29-2.3.51-3.44.62.9-.79 1.83-1.39 2.7-2.05.41-.37.82-.72 1.23-1.05l.62-.5c.2-.17.36-.38.54-.56.36-.37.71-.74 1.08-1.09l.9-1.19c.34-.37.54-.81.78-1.23l.37-.62c.12-.21.18-.45.28-.67.78-1.76 1.16-3.72 1.23-5.8.08-2.09-.09-4.26-.42-6.56z"/></g><g><path d="M715.99 432.8H249.14c-7.09 0-12.84-5.75-12.84-12.84v-293.5c0-7.09 5.75-12.84 12.84-12.84h466.85c7.09 0 12.84 5.75 12.84 12.84v293.5c0 7.09-5.74 12.84-12.84 12.84z"/><path class="st6" d="M254.64 128.29h455.85v274.24H254.64z"/></g><path style="fill:#333" d="M394.4 432.8h162v41.27h-162z"/><g><path style="fill:#7821cc" d="m470.18 240.19-110.58 29.2h-.01l-21.68 5.73-22.53 5.95-43.22 11.41-13.85 3.66-3.33-13.9-2.96-12.35-23.89-99.66 126.22-32.53 21.56-5.56 25.28-6.51h.01l36.88-9.51 1.25 4.83 4.49 17.35 4.32 16.71z"/><path transform="rotate(-15.116 266.561 202.5)" class="st9" d="M248.68 191.48h35.67v22.01h-35.67z"/><path class="st10" d="M269.06 212.74a5.08 5.08 0 0 1-6.23-3.58L260 198.7a5.08 5.08 0 1 1 9.81-2.65l2.83 10.46a5.08 5.08 0 0 1-3.58 6.23zM270.53 197.7l12.46-3.59M272.64 205.51l11.71-3.91M262.83 208.16l-10.94 1.78M260.49 200.49l-12.42 2.11"/><g><path class="st6" d="m269.08 239.83-2.16-7.99c-1.18 1.54-2.03 2.39-2.54 2.52-.25.07-.49.03-.73-.12s-.4-.35-.47-.6c-.08-.3-.05-.54.1-.73.15-.19.43-.46.85-.81.62-.53 1.09-1.03 1.42-1.51.32-.48.59-1 .79-1.54.2-.55.34-.88.41-1.02.07-.13.25-.24.52-.31.31-.08.59-.03.84.16s.44.49.55.92l2.72 10.06c.32 1.18.08 1.87-.73 2.09-.36.1-.68.05-.96-.13-.28-.2-.49-.52-.61-.99zM278.47 236.36l4.58-1.24c.46-.12.83-.12 1.12 0 .29.12.48.35.57.67.08.29.05.55-.09.81-.14.25-.4.43-.79.53l-6.46 1.75c-.44.12-.81.09-1.13-.09-.31-.18-.51-.43-.6-.76-.06-.21-.05-.51.01-.9.06-.39.16-.71.3-.96.56-1.02 1.08-1.9 1.55-2.65s.82-1.25 1.04-1.5c.39-.47.7-.92.92-1.35.23-.43.37-.85.44-1.25.07-.41.06-.78-.04-1.12-.1-.38-.28-.69-.54-.93s-.56-.41-.92-.49a2.16 2.16 0 0 0-1.07.03c-.77.21-1.28.71-1.54 1.5-.03.1-.07.37-.1.8-.03.43-.11.77-.22 1.03-.12.26-.34.43-.67.52-.29.08-.56.05-.81-.09s-.41-.38-.5-.71c-.11-.4-.13-.85-.07-1.34.06-.49.23-.96.49-1.41.26-.45.64-.87 1.14-1.24.49-.37 1.11-.65 1.86-.85.9-.24 1.7-.31 2.41-.2.46.08.89.24 1.29.48s.74.56 1.03.94c.29.38.5.81.62 1.27.2.73.19 1.43-.01 2.13-.2.69-.44 1.26-.73 1.69-.28.44-.77 1.14-1.46 2.09-.69.96-1.14 1.68-1.36 2.17-.08.18-.18.41-.26.67zM288.53 227.53c.54-.15.96-.43 1.26-.85.3-.42.38-.93.22-1.52-.12-.45-.38-.8-.78-1.04s-.86-.29-1.39-.15c-.36.1-.64.23-.84.39-.2.16-.35.34-.44.54-.09.2-.16.45-.21.74-.05.29-.09.56-.13.82-.02.14-.1.26-.24.38-.13.11-.3.19-.5.25-.23.06-.47.03-.72-.11s-.41-.36-.5-.68c-.08-.3-.08-.65.02-1.04.09-.39.28-.78.55-1.18s.65-.76 1.12-1.09c.48-.33 1.04-.58 1.69-.75.57-.15 1.11-.22 1.62-.19s.98.14 1.4.34c.42.2.78.47 1.06.81.28.34.48.73.6 1.18.16.58.17 1.12.02 1.61s-.4.99-.76 1.52c.52.12.98.3 1.38.53.4.23.73.52.99.86.26.34.45.73.57 1.18a4.067 4.067 0 0 1-.48 3.22c-.31.5-.72.94-1.23 1.31-.51.37-1.11.65-1.8.84-.7.19-1.37.23-1.99.13s-1.17-.29-1.63-.57c-.46-.28-.84-.6-1.13-.95-.29-.35-.48-.66-.55-.93-.09-.34-.06-.64.11-.91.16-.27.41-.45.74-.53.16-.04.33-.04.51.02.18.05.31.14.39.27.52.73 1.01 1.25 1.47 1.55.45.3 1 .37 1.63.2.36-.1.69-.28.98-.55.29-.27.5-.61.62-1.02.12-.41.12-.85 0-1.31-.19-.68-.52-1.17-1-1.46-.48-.29-1.05-.34-1.72-.16-.12.03-.3.09-.54.18-.24.09-.39.14-.46.16-.32.09-.59.07-.81-.04-.22-.11-.37-.31-.45-.6a.876.876 0 0 1 .13-.77c.16-.23.45-.4.87-.51l.35-.12zM302.39 230.93l-.44-1.63-4.41 1.19c-.56.15-1.01.14-1.35-.04-.35-.18-.58-.48-.7-.91-.03-.11-.04-.23-.03-.35.01-.13.04-.26.09-.41.05-.15.1-.29.16-.43s.13-.31.21-.52l2.97-7.49c.19-.49.36-.86.51-1.09.15-.24.36-.39.63-.47.89-.24 1.47.15 1.75 1.17l1.84 6.8.38-.1c.45-.12.83-.16 1.13-.11.31.05.51.28.63.7.09.34.05.62-.13.83-.18.22-.49.38-.94.5l-.54.14.44 1.63c.12.45.11.81-.03 1.09-.14.27-.38.46-.71.55-.33.09-.62.05-.89-.12-.26-.19-.45-.49-.57-.93zm-4.75-2.59 3.78-1.02-1.38-5.1-2.4 6.12zM312.51 217.9l-4.17 1.13.27 2.98c.71-.67 1.42-1.1 2.12-1.29.56-.15 1.12-.19 1.66-.11.55.08 1.05.25 1.52.53.47.27.88.63 1.23 1.09.35.45.6.97.76 1.56.23.85.25 1.67.06 2.47-.19.8-.59 1.5-1.2 2.1-.61.6-1.38 1.03-2.31 1.28-1.05.28-1.95.32-2.71.11-.76-.21-1.34-.53-1.75-.96-.41-.43-.66-.83-.76-1.2-.06-.23-.03-.47.11-.73.13-.26.35-.42.63-.5.49-.13.94.05 1.33.56.38.46.8.78 1.28.96.48.18.96.21 1.45.07.45-.12.81-.35 1.09-.67.28-.33.45-.72.53-1.18s.04-.95-.1-1.47c-.15-.56-.38-1.02-.69-1.36-.31-.34-.65-.57-1.04-.68s-.78-.1-1.19.01c-.5.14-.85.29-1.03.48-.18.18-.44.48-.76.9-.32.42-.62.66-.88.73-.29.08-.57.04-.85-.1s-.45-.35-.52-.62c-.01-.03-.03-.24-.06-.62l-.4-4.41c-.05-.53 0-.93.16-1.22.16-.29.49-.5 1-.64l4.64-1.25c.91-.25 1.46-.02 1.65.68.08.3.04.58-.13.83s-.5.42-.94.54zM319.15 220.12c.27-.58.61-1.05 1.02-1.4.41-.36.9-.61 1.48-.77.56-.15 1.1-.19 1.63-.1.53.08 1.02.26 1.48.55s.85.67 1.19 1.13c.33.47.58.99.73 1.56.22.83.24 1.63.04 2.4-.2.77-.58 1.44-1.15 2s-1.29.96-2.14 1.19c-.98.27-1.9.25-2.74-.03-.84-.29-1.58-.85-2.21-1.69-.63-.84-1.13-1.94-1.5-3.3-.3-1.11-.45-2.13-.46-3.06-.01-.93.12-1.75.4-2.44.27-.69.67-1.26 1.2-1.72.53-.46 1.18-.79 1.96-1 .75-.2 1.45-.24 2.1-.1.65.14 1.18.39 1.59.74.41.35.66.73.77 1.13.06.24.03.48-.1.73s-.33.41-.61.48c-.25.07-.5.05-.75-.05s-.47-.27-.64-.52c-.23-.32-.52-.54-.87-.67s-.72-.15-1.1-.04c-.31.08-.6.26-.85.52-.26.26-.45.57-.58.94-.3.73-.25 1.91.11 3.52zm3.84 4.82c.59-.16 1.02-.54 1.27-1.12.26-.59.28-1.27.07-2.06-.14-.53-.36-.97-.64-1.3-.29-.33-.61-.56-.98-.68s-.75-.12-1.13-.02c-.36.1-.68.29-.96.57-.28.28-.47.64-.57 1.05-.1.42-.09.88.04 1.37.21.79.6 1.39 1.15 1.81.54.42 1.13.54 1.75.38zM327.81 211.57l5.85-1.58c.56-.15.99-.17 1.29-.07.3.11.5.36.61.77.07.25.01.61-.18 1.09-.19.48-.4 1.02-.65 1.61-.25.59-.47 1.3-.68 2.14s-.33 1.82-.38 2.96c-.01.5-.01.91.01 1.23.02.32.07.73.13 1.24s.1.89.12 1.17c.04.63-.02 1.09-.19 1.38-.16.29-.43.49-.81.59-.36.1-.68.05-.96-.14-.28-.19-.49-.53-.62-1.01-.1-.38-.16-.91-.18-1.59-.02-.69.03-1.53.15-2.52.12-1 .31-2.04.59-3.13.28-1.09.66-2.2 1.15-3.34l-4.7 1.27c-.49.13-.88.14-1.17.03-.29-.11-.49-.36-.59-.74-.11-.4-.05-.7.18-.89.23-.19.57-.35 1.03-.47zM337.75 212.26c-.16-.59-.15-1.18.03-1.78.18-.6.54-1.15 1.07-1.62.53-.48 1.21-.83 2.04-1.05.7-.19 1.33-.26 1.91-.22.58.04 1.08.17 1.52.4.44.22.8.51 1.07.87.28.36.48.76.6 1.21.15.57.15 1.13-.03 1.66-.17.53-.51 1.02-1.02 1.46.55.06 1.03.2 1.44.43.41.22.76.52 1.04.89s.49.8.62 1.31c.2.74.2 1.45.01 2.15-.2.7-.59 1.31-1.19 1.83-.6.53-1.37.92-2.3 1.17-.97.26-1.85.32-2.63.16-.78-.15-1.43-.48-1.94-.98s-.87-1.12-1.07-1.86c-.43-1.58.03-2.86 1.35-3.84-1.35-.26-2.19-.98-2.52-2.19zm3.65-2.8c-.55.15-.95.44-1.19.87s-.29.92-.15 1.46c.13.5.42.87.85 1.1.43.24.92.28 1.47.14.27-.07.51-.19.72-.34.2-.15.36-.32.48-.52s.19-.42.22-.65c.03-.24.01-.48-.06-.74-.09-.35-.25-.64-.48-.87-.23-.23-.51-.39-.83-.47-.32-.08-.67-.08-1.03.02zm4.22 6.91c-.12-.46-.32-.83-.6-1.12-.28-.29-.61-.48-1-.57-.39-.09-.79-.08-1.21.04-.6.16-1.04.5-1.34 1s-.35 1.12-.15 1.83c.12.46.33.83.61 1.13.28.3.62.5 1 .6.38.1.77.1 1.18-.01.41-.11.75-.31 1.03-.59.28-.28.46-.62.55-1.02.07-.4.06-.83-.07-1.29zM355.6 211.55c-.26.56-.6 1.02-1.02 1.38-.41.36-.91.62-1.49.77-.55.15-1.09.18-1.63.1a3.7 3.7 0 0 1-1.48-.56c-.45-.29-.84-.66-1.17-1.13a4.89 4.89 0 0 1-.72-1.53c-.16-.6-.21-1.2-.15-1.8.06-.6.24-1.15.52-1.65.29-.5.67-.94 1.15-1.31.48-.37 1.05-.64 1.71-.82.75-.2 1.47-.25 2.13-.13.67.12 1.27.38 1.82.8.55.41 1.03.99 1.47 1.73.43.74.78 1.61 1.06 2.62.3 1.12.46 2.15.46 3.06 0 .92-.13 1.73-.41 2.43-.28.7-.68 1.27-1.22 1.72-.53.45-1.18.78-1.96.99-.76.21-1.46.24-2.1.1s-1.17-.38-1.57-.73c-.41-.35-.67-.73-.77-1.12-.07-.25-.03-.49.09-.73.13-.24.33-.4.62-.48.26-.07.51-.06.75.03s.46.26.64.52c.22.32.51.54.87.67s.72.15 1.1.05c.33-.09.63-.26.88-.51s.44-.56.57-.93c.25-.75.2-1.93-.15-3.54zm-.93-2.63c-.11-.4-.26-.75-.46-1.06-.2-.31-.43-.56-.69-.75s-.55-.32-.86-.39c-.31-.07-.63-.06-.95.03-.56.15-.96.52-1.22 1.1-.26.58-.28 1.26-.07 2.05.21.78.57 1.35 1.08 1.71.51.36 1.06.46 1.65.3.36-.1.68-.29.96-.57.28-.28.47-.63.58-1.05.13-.42.12-.88-.02-1.37zM368.66 207.44c.26.96.42 1.8.49 2.52s.02 1.41-.14 2.05c-.21.8-.58 1.47-1.11 2.02-.53.55-1.18.92-1.96 1.13-.89.24-1.76.2-2.6-.11-.84-.31-1.56-.86-2.16-1.66-.31-.44-.59-.94-.84-1.5-.24-.56-.46-1.19-.64-1.87-.24-.88-.41-1.69-.51-2.43-.1-.73-.12-1.38-.05-1.95.12-.94.45-1.71.99-2.33.54-.62 1.27-1.05 2.18-1.3.6-.16 1.18-.21 1.72-.15s1.05.23 1.53.51c.47.28.92.66 1.32 1.15.71.85 1.3 2.15 1.78 3.92zm-2.46.48c-.29-1.07-.59-1.93-.9-2.58-.31-.65-.67-1.1-1.07-1.37s-.87-.33-1.41-.18c-.77.21-1.2.74-1.3 1.6-.09.86.08 2.1.52 3.72.3 1.1.61 1.98.92 2.65.32.67.68 1.14 1.08 1.42s.86.35 1.38.21c.54-.15.91-.45 1.11-.9.2-.46.27-1.05.21-1.78-.05-.73-.23-1.66-.54-2.79zM375.97 210.95l-2.16-7.99c-1.18 1.54-2.03 2.39-2.54 2.52-.25.07-.49.03-.73-.12s-.4-.35-.47-.6c-.08-.3-.05-.54.1-.73.15-.19.43-.46.85-.81.62-.53 1.09-1.03 1.42-1.51.32-.48.59-1 .79-1.54.2-.55.34-.88.41-1.02.07-.13.24-.23.52-.31.31-.08.59-.03.84.16s.44.49.55.92l2.72 10.06c.32 1.18.08 1.87-.73 2.09-.36.1-.68.05-.96-.13-.28-.19-.49-.52-.61-.99zM385.36 207.48l4.58-1.24c.46-.12.83-.12 1.12 0 .29.12.48.35.57.67.08.29.05.56-.09.81s-.4.43-.78.53L384.3 210c-.44.12-.81.09-1.13-.09-.31-.18-.51-.43-.6-.76-.06-.21-.05-.51.01-.9.06-.39.16-.71.3-.96.56-1.02 1.08-1.9 1.55-2.65s.82-1.25 1.04-1.5c.39-.47.7-.92.92-1.35.23-.43.37-.85.44-1.25.07-.41.06-.78-.04-1.12-.1-.38-.28-.69-.54-.93-.26-.25-.56-.41-.92-.49a2.16 2.16 0 0 0-1.07.03c-.77.21-1.28.71-1.54 1.5-.04.1-.07.37-.1.8-.03.43-.11.77-.22 1.03-.12.26-.34.43-.67.52-.29.08-.56.05-.81-.09s-.41-.38-.5-.71c-.11-.4-.13-.85-.07-1.34.06-.49.23-.96.49-1.41.26-.45.64-.87 1.14-1.24.49-.37 1.11-.65 1.86-.85.9-.24 1.7-.31 2.41-.2.46.08.89.24 1.29.48s.74.56 1.03.94c.29.38.5.81.62 1.27.2.73.19 1.43 0 2.13-.2.69-.44 1.26-.73 1.69-.28.44-.77 1.14-1.46 2.09-.69.96-1.14 1.68-1.36 2.17-.1.18-.2.41-.28.67zM395.42 198.65c.54-.15.96-.43 1.26-.85.3-.42.38-.93.22-1.52-.12-.45-.38-.8-.78-1.04s-.86-.29-1.39-.15c-.36.1-.64.23-.84.39-.2.16-.35.34-.44.54-.09.2-.16.45-.21.74-.05.29-.09.56-.13.82-.02.14-.1.26-.24.38-.13.11-.3.19-.5.25-.23.06-.48.03-.72-.11-.25-.14-.41-.36-.5-.68-.08-.3-.08-.65.02-1.04.09-.39.28-.78.55-1.18s.65-.76 1.12-1.09c.48-.33 1.04-.58 1.69-.75.57-.15 1.11-.22 1.62-.19s.98.14 1.4.34c.42.2.78.47 1.06.81.28.34.48.73.6 1.18.16.58.17 1.12.02 1.61s-.4.99-.76 1.52c.52.12.98.3 1.38.53.4.23.73.52.99.86.26.34.45.73.57 1.18a4.067 4.067 0 0 1-.48 3.22c-.31.5-.72.94-1.23 1.31-.51.37-1.11.65-1.8.84-.7.19-1.37.23-1.99.13s-1.17-.29-1.63-.57c-.46-.28-.84-.6-1.13-.95s-.48-.66-.55-.93c-.09-.34-.06-.64.11-.91.16-.27.41-.45.74-.53.16-.04.33-.04.51.02.18.05.31.14.39.27.52.73 1.01 1.25 1.47 1.55.46.3 1 .37 1.63.2.36-.1.69-.28.98-.55.29-.27.5-.61.62-1.02.12-.41.12-.85 0-1.31-.18-.68-.52-1.17-1-1.46-.48-.29-1.05-.34-1.72-.16-.12.03-.3.09-.54.18-.24.09-.4.14-.47.16-.32.09-.59.07-.81-.04-.22-.11-.37-.31-.45-.6a.876.876 0 0 1 .13-.77c.16-.23.45-.4.87-.51l.36-.12zM409.28 202.05l-.44-1.63-4.41 1.19c-.56.15-1.01.14-1.35-.04-.35-.18-.58-.48-.7-.91-.03-.11-.04-.23-.03-.35.01-.13.04-.26.09-.41.05-.15.1-.29.16-.43s.13-.31.21-.52l2.97-7.48c.19-.49.36-.86.51-1.09.15-.24.36-.39.63-.47.89-.24 1.47.15 1.75 1.17l1.84 6.8.38-.1c.45-.12.83-.16 1.13-.11.31.05.51.28.63.7.09.34.05.62-.13.83-.18.22-.49.38-.94.5l-.54.14.44 1.63c.12.45.11.81-.03 1.09-.14.27-.38.46-.71.54-.33.09-.62.05-.89-.12-.26-.19-.46-.49-.57-.93zm-4.75-2.59 3.78-1.02-1.38-5.1-2.4 6.12zM419.4 189.02l-4.17 1.13.27 2.98c.71-.67 1.42-1.1 2.12-1.29.56-.15 1.12-.19 1.66-.11.55.08 1.05.25 1.52.53.47.27.88.63 1.23 1.09.35.45.6.97.76 1.56.23.85.25 1.67.06 2.47-.19.8-.59 1.5-1.2 2.11-.61.6-1.38 1.03-2.32 1.28-1.05.28-1.95.32-2.71.11-.76-.21-1.34-.53-1.75-.96-.41-.43-.66-.83-.76-1.2-.06-.23-.03-.47.11-.73.13-.26.35-.42.63-.5.49-.13.93.05 1.33.56.38.46.8.78 1.28.96.48.18.96.21 1.45.07.45-.12.81-.35 1.09-.67.28-.33.45-.72.53-1.18.07-.46.04-.95-.1-1.47-.15-.56-.38-1.02-.69-1.36-.31-.34-.65-.57-1.04-.68s-.79-.1-1.19.01c-.5.14-.85.29-1.03.48-.18.18-.44.48-.76.9-.32.42-.62.66-.88.73-.29.08-.57.04-.85-.11s-.45-.35-.52-.62c-.01-.03-.03-.24-.06-.62l-.4-4.41c-.05-.52 0-.93.16-1.22.16-.29.49-.5 1-.64l4.64-1.25c.91-.25 1.46-.02 1.65.68.08.3.04.58-.13.83-.19.24-.49.42-.93.54zM426.03 191.24c.27-.58.61-1.05 1.01-1.4.41-.36.9-.61 1.48-.77.56-.15 1.1-.19 1.63-.1.53.08 1.02.26 1.48.55.46.29.85.67 1.19 1.13.33.47.58.99.73 1.56.22.83.24 1.63.04 2.4-.2.77-.58 1.44-1.15 2s-1.29.96-2.14 1.19c-.98.27-1.9.25-2.74-.03-.84-.29-1.58-.85-2.21-1.69-.63-.84-1.13-1.94-1.5-3.3-.3-1.11-.45-2.13-.46-3.06-.01-.93.12-1.74.4-2.43.27-.69.67-1.26 1.2-1.72s1.18-.79 1.96-1c.75-.2 1.45-.24 2.1-.1.65.14 1.18.39 1.59.74.41.35.66.73.77 1.13.06.24.03.48-.1.73s-.33.41-.61.48c-.25.07-.5.05-.75-.05s-.47-.27-.64-.52c-.23-.32-.52-.54-.87-.67s-.72-.15-1.11-.04c-.31.08-.6.26-.85.52-.26.26-.45.57-.58.94-.27.72-.22 1.9.13 3.51zm3.85 4.82c.59-.16 1.02-.53 1.27-1.12.26-.59.28-1.27.07-2.06-.14-.53-.36-.97-.64-1.3-.29-.33-.61-.56-.98-.68s-.75-.12-1.13-.02c-.36.1-.68.29-.96.57-.28.28-.47.63-.57 1.05-.1.42-.09.88.04 1.37.21.79.6 1.39 1.15 1.81.54.42 1.13.54 1.75.38z"/></g><g><path class="st6" d="M267.91 258.38c.17-.45.4-.82.68-1.11.29-.29.64-.51 1.07-.66.41-.14.81-.2 1.21-.17.4.03.78.14 1.14.33s.68.45.95.78.49.71.63 1.12c.21.61.27 1.21.17 1.8s-.36 1.11-.75 1.57c-.4.45-.91.79-1.54 1.01-.72.25-1.41.3-2.06.13-.65-.17-1.23-.55-1.75-1.14-.52-.59-.96-1.39-1.31-2.39a9.07 9.07 0 0 1-.52-2.27c-.06-.7 0-1.32.16-1.85.17-.53.43-.98.81-1.36.37-.37.84-.66 1.42-.86.55-.19 1.07-.26 1.57-.19s.9.22 1.23.47c.32.24.54.51.64.8.06.18.05.36-.03.55-.08.19-.23.32-.43.4-.18.06-.37.07-.56.01s-.36-.18-.51-.35c-.19-.22-.42-.38-.69-.46-.27-.08-.55-.07-.83.03-.23.08-.43.22-.61.44s-.31.46-.38.73c-.16.57-.06 1.45.29 2.64zm3.15 3.39c.43-.15.73-.46.89-.91s.14-.97-.06-1.55c-.14-.39-.32-.7-.55-.94-.23-.24-.49-.39-.78-.45-.28-.07-.57-.05-.85.05-.27.09-.5.25-.69.48-.19.23-.32.5-.37.82s-.02.66.11 1.02c.2.58.52 1.01.96 1.29.44.29.89.35 1.34.19zM275.65 252.07l.81 8.07c.03.27.04.48.05.64 0 .16-.03.29-.09.41-.06.11-.19.2-.36.26-.44.15-.72.04-.86-.34-.04-.1-.08-.36-.13-.79l-.81-8.07c-.04-.43-.05-.73-.01-.91.04-.18.18-.31.43-.4.21-.08.4-.08.55-.02.15.06.26.19.32.37.03.14.07.4.1.78zM281.29 257.71l3.37-1.18c.34-.12.62-.14.84-.06.22.08.38.23.46.47.07.21.07.41-.02.61-.09.2-.28.34-.56.44l-4.75 1.67c-.32.11-.61.11-.85 0-.24-.12-.41-.29-.49-.53-.05-.15-.07-.38-.04-.68.03-.3.08-.54.17-.74.36-.79.7-1.48 1.01-2.07.31-.58.54-.98.69-1.18.26-.37.47-.73.62-1.06.15-.33.23-.65.26-.96.03-.31 0-.59-.09-.84a1.48 1.48 0 0 0-1.17-.99c-.27-.04-.54-.01-.8.08-.56.2-.92.6-1.07 1.21-.02.08-.03.28-.03.61 0 .32-.04.58-.11.78-.07.2-.23.34-.48.43-.22.08-.42.07-.61-.02s-.33-.26-.42-.51c-.1-.3-.15-.63-.13-1s.12-.73.29-1.09c.17-.36.43-.69.78-.99s.8-.55 1.34-.74c.66-.23 1.25-.33 1.79-.28.35.03.68.13.99.29.31.16.59.38.83.65s.42.58.54.92c.19.53.23 1.06.12 1.59-.11.53-.26.97-.45 1.31-.19.34-.51.89-.97 1.65-.46.76-.76 1.32-.9 1.7-.06.13-.11.31-.16.51zM291.06 255.06l-.42-1.2-3.24 1.14c-.41.14-.75.16-1.02.05s-.46-.33-.57-.65c-.03-.08-.04-.17-.04-.26s.01-.2.04-.31c.03-.11.06-.23.09-.33.04-.11.08-.24.13-.4l1.81-5.77c.12-.38.22-.66.32-.85s.25-.31.45-.39c.65-.23 1.11.03 1.37.78l1.75 4.99.28-.1c.33-.12.61-.16.84-.14.23.02.4.18.51.49.09.25.07.46-.05.63-.12.17-.35.31-.67.43l-.39.14.42 1.2c.12.33.13.6.04.82-.09.21-.26.36-.5.45a.82.82 0 0 1-.67-.04c-.21-.14-.37-.35-.48-.68zm-3.7-1.66 2.77-.97-1.32-3.75-1.45 4.72z"/></g><g><path class="st6" d="m273.97 268.24 5.64 4.28-1.98-5.62c-.13-.37-.15-.67-.05-.9.09-.24.27-.4.54-.5.28-.1.53-.08.75.04.22.13.4.37.53.74l2.61 7.44c.29.83.09 1.37-.59 1.61-.17.06-.33.09-.49.09-.15 0-.31-.03-.47-.1-.16-.06-.31-.15-.47-.26-.15-.11-.31-.22-.46-.33l-5.53-4.25 1.95 5.54c.13.36.14.66.04.91-.1.24-.29.41-.55.5-.27.1-.52.08-.75-.05-.23-.13-.41-.37-.53-.73l-2.56-7.29c-.11-.31-.16-.56-.15-.77.01-.22.09-.43.24-.62a1.209 1.209 0 0 1 1.02-.47c.14.01.28.05.4.11s.26.15.41.27c.14.12.29.24.45.36zM284.21 273.03l-2.62-7.45c-.14-.39-.15-.71-.04-.96.11-.26.3-.43.58-.53.29-.1.55-.09.8.04s.44.39.57.78l2.62 7.45c.14.39.15.71.04.97-.11.26-.31.43-.6.54a.92.92 0 0 1-.78-.05c-.24-.15-.43-.4-.57-.79zM295.63 266.79c.11.3.15.65.12 1.05s-.14.83-.34 1.28c-.2.45-.51.87-.93 1.25-.42.38-.96.69-1.62.92-.5.18-.97.29-1.41.34-.44.05-.86.03-1.27-.05-.4-.08-.8-.24-1.2-.47-.35-.21-.68-.47-.99-.77s-.58-.65-.81-1.04c-.23-.39-.43-.81-.6-1.28-.27-.76-.4-1.48-.39-2.16.01-.68.15-1.31.41-1.88.26-.57.63-1.07 1.11-1.49.48-.42 1.03-.74 1.66-.96.77-.27 1.5-.36 2.21-.26s1.3.31 1.77.65c.48.34.79.71.92 1.11.08.22.07.44-.03.66-.1.22-.25.37-.47.45-.25.09-.45.09-.61.02-.16-.07-.37-.23-.62-.46-.41-.38-.83-.63-1.25-.74-.42-.11-.88-.08-1.37.09-.79.28-1.31.8-1.56 1.56s-.19 1.69.2 2.79c.26.74.58 1.31.95 1.73.38.42.8.68 1.26.78.46.11.95.07 1.46-.11.55-.19.97-.49 1.25-.9s.43-.91.44-1.51c-.01-.28.02-.52.09-.72.06-.2.23-.35.5-.44.23-.08.45-.07.67.03.21.12.37.29.45.53zM297.36 260.04l1.17 3.31 2.38-5.24c.11-.25.22-.45.31-.58s.25-.24.46-.31c.27-.1.53-.09.75.01.23.1.38.27.46.5.1.28.05.61-.14.98l-1.55 3.02 4.03 2.9c.28.2.51.38.67.55.17.17.28.34.35.53.07.21.06.42-.05.64-.11.21-.31.37-.59.47-.27.09-.5.11-.71.06-.21-.05-.4-.16-.58-.31-.18-.15-.35-.28-.49-.41l-3.49-2.69-1.04 2.05.69 1.95c.14.4.15.72.04.98s-.31.43-.6.53c-.16.06-.34.07-.52.04s-.34-.11-.47-.23c-.1-.1-.19-.23-.26-.38s-.16-.38-.26-.68l-2.47-7.03c-.14-.39-.15-.71-.05-.96.1-.25.3-.43.59-.53.29-.1.56-.09.8.04.24.14.43.4.57.79z"/></g><g style="opacity:.81"><path class="st12" d="M439.33 120.95 315.38 281.07l-43.22 11.41-.08-.06 129.11-166.79h.01l36.88-9.51zM448.14 155.01 359.6 269.39h-.01l-21.68 5.73L443.82 138.3zM254.98 282.24l2.96 2.29 117.97-152.39-21.56 5.56-102.33 132.19z"/></g></g><path class="st13" d="M482.57 80.6s-21.55 0-19.72 53.2c1.83 53.2-.11 283.41-.11 283.41h-76.02s6.88 29.02 47.92 30.85l160.28-.59s25.68-1.83 32.1-44.94c6.42-43.11 0-288.92 0-288.92s.92-29.35 15.59-33.02H482.57z"/><path class="st13" d="M462.85 418.13h103.67s1.9 32.84 33.89 27.88"/><circle cx="790.29" cy="75.3" r="26.96" style="fill:none;stroke:#fff;stroke-miterlimit:10"/><path class="st15" d="M410.68 350.94h-86.45c-15.13 0-27.4-12.27-27.4-27.4 0-15.13 12.27-27.4 27.4-27.4h86.45c15.13 0 27.4 12.27 27.4 27.4 0 15.13-12.27 27.4-27.4 27.4z"/><path d="M560.53 497.76H392.68c-5.32 0-9.63-4.31-9.63-9.63v-4.42c0-5.32 4.31-9.63 9.63-9.63h167.85c5.32 0 9.63 4.31 9.63 9.63v4.42c0 5.32-4.31 9.63-9.63 9.63z"/><g><path class="st16" d="M777.9 506.18H655c-6.84 0-12.38-5.54-12.38-12.38V308.52c0-6.84 5.54-12.38 12.38-12.38h122.9c6.84 0 12.38 5.54 12.38 12.38V493.8c.01 6.83-5.54 12.38-12.38 12.38z"/><path class="st6" d="M655.23 313.99h122.45v36.95H655.23z"/><circle class="st4" cx="663.25" cy="366.44" r="4.68"/><circle class="st4" cx="683.87" cy="366.44" r="4.68"/><circle class="st9" cx="703.5" cy="366.44" r="4.68"/><circle cx="724.15" cy="366.44" r="4.68" style="fill:#ffc507"/><circle class="st4" cx="744.07" cy="366.44" r="4.68"/><circle class="st9" cx="764.59" cy="366.44" r="4.68"/><g><path class="st15" d="M675.01 400.43h-9.19c-3.79 0-6.86-3.07-6.86-6.86v-9.19c0-3.79 3.07-6.86 6.86-6.86h9.19c3.79 0 6.86 3.07 6.86 6.86v9.19c0 3.79-3.07 6.86-6.86 6.86zM706.1 400.43h-9.19c-3.79 0-6.86-3.07-6.86-6.86v-9.19c0-3.79 3.07-6.86 6.86-6.86h9.19c3.79 0 6.86 3.07 6.86 6.86v9.19c-.01 3.79-3.08 6.86-6.86 6.86zM735.43 400.84h-9.19c-3.79 0-6.86-3.07-6.86-6.86v-9.19c0-3.79 3.07-6.86 6.86-6.86h9.19c3.79 0 6.86 3.07 6.86 6.86v9.19c0 3.79-3.07 6.86-6.86 6.86z"/><path class="st2" d="M765.51 400.03h-9.19c-3.79 0-6.86-3.07-6.86-6.86v-9.19c0-3.79 3.07-6.86 6.86-6.86h9.19c3.79 0 6.86 3.07 6.86 6.86v9.19c-.01 3.79-3.08 6.86-6.86 6.86z"/><path class="st15" d="M675.01 430.43h-9.19c-3.79 0-6.86-3.07-6.86-6.86v-9.19c0-3.79 3.07-6.86 6.86-6.86h9.19c3.79 0 6.86 3.07 6.86 6.86v9.19c0 3.79-3.07 6.86-6.86 6.86zM706.1 430.43h-9.19c-3.79 0-6.86-3.07-6.86-6.86v-9.19c0-3.79 3.07-6.86 6.86-6.86h9.19c3.79 0 6.86 3.07 6.86 6.86v9.19c-.01 3.79-3.08 6.86-6.86 6.86zM735.43 430.84h-9.19c-3.79 0-6.86-3.07-6.86-6.86v-9.19c0-3.79 3.07-6.86 6.86-6.86h9.19c3.79 0 6.86 3.07 6.86 6.86v9.19c0 3.79-3.07 6.86-6.86 6.86zM674.8 459.25h-9.19c-3.79 0-6.86-3.07-6.86-6.86v-9.19c0-3.79 3.07-6.86 6.86-6.86h9.19c3.79 0 6.86 3.07 6.86 6.86v9.19c0 3.79-3.07 6.86-6.86 6.86zM705.89 459.25h-9.19c-3.79 0-6.86-3.07-6.86-6.86v-9.19c0-3.79 3.07-6.86 6.86-6.86h9.19c3.79 0 6.86 3.07 6.86 6.86v9.19c-.01 3.79-3.08 6.86-6.86 6.86zM735.22 459.66h-9.19c-3.79 0-6.86-3.07-6.86-6.86v-9.19c0-3.79 3.07-6.86 6.86-6.86h9.19c3.79 0 6.86 3.07 6.86 6.86v9.19c0 3.79-3.07 6.86-6.86 6.86z"/><path class="st2" d="M765.3 458.84h-9.19c-3.79 0-6.86-3.07-6.86-6.86v-9.19c0-3.79 3.07-6.86 6.86-6.86h9.19c3.79 0 6.86 3.07 6.86 6.86v9.19c-.01 3.79-3.08 6.86-6.86 6.86zM674.8 489.96h-9.19c-3.79 0-6.86-3.07-6.86-6.86v-9.19c0-3.79 3.07-6.86 6.86-6.86h9.19c3.79 0 6.86 3.07 6.86 6.86v9.19c0 3.79-3.07 6.86-6.86 6.86z"/><path class="st15" d="M705.89 489.96h-9.19c-3.79 0-6.86-3.07-6.86-6.86v-9.19c0-3.79 3.07-6.86 6.86-6.86h9.19c3.79 0 6.86 3.07 6.86 6.86v9.19c-.01 3.79-3.08 6.86-6.86 6.86z"/><path class="st2" d="M735.22 490.37h-9.19c-3.79 0-6.86-3.07-6.86-6.86v-9.19c0-3.79 3.07-6.86 6.86-6.86h9.19c3.79 0 6.86 3.07 6.86 6.86v9.19c0 3.79-3.07 6.86-6.86 6.86zM765.3 489.56h-9.19c-3.79 0-6.86-3.07-6.86-6.86v-9.19c0-3.79 3.07-6.86 6.86-6.86h9.19c3.79 0 6.86 3.07 6.86 6.86v9.19c-.01 3.79-3.08 6.86-6.86 6.86zM765.51 430.03h-9.19c-3.79 0-6.86-3.07-6.86-6.86v-9.19c0-3.79 3.07-6.86 6.86-6.86h9.19c3.79 0 6.86 3.07 6.86 6.86v9.19c-.01 3.79-3.08 6.86-6.86 6.86z"/></g></g><path class="st13" d="M642.62 80.6s25.68-3.67 25.68 30.73"/><g><circle class="st5" cx="208.93" cy="80.79" r="73.83"/><circle class="st6" cx="208.93" cy="80.79" r="63.4"/><path class="st5" d="M206.43 22.95h5v77.6h-5z"/><path transform="rotate(-24.259 214.093 84.897)" class="st5" d="M191.44 82.4h45.27v5h-45.27z"/></g><g><circle class="st18" cx="781.11" cy="154.48" r="31.18"/><circle class="st6" cx="781.11" cy="154.48" r="26.18"/><path class="st18" d="M781.62 135.57v1.99c1.32.14 2.44.41 3.38.81.94.41 1.76 1.02 2.46 1.84.55.63.98 1.27 1.28 1.94.3.66.45 1.27.45 1.83 0 .61-.22 1.15-.67 1.59-.45.45-.99.67-1.63.67-1.21 0-1.99-.65-2.34-1.95-.41-1.54-1.38-2.56-2.93-3.06v7.67c1.52.42 2.74.8 3.64 1.14s1.71.84 2.42 1.49c.76.68 1.35 1.48 1.76 2.42s.62 1.97.62 3.09a8.2 8.2 0 0 1-.99 3.94c-.66 1.22-1.63 2.22-2.9 3-1.28.77-2.8 1.24-4.55 1.38v4.59c0 .73-.07 1.25-.21 1.59-.14.33-.45.5-.93.5-.44 0-.75-.14-.93-.41-.18-.27-.27-.69-.27-1.25v-4.98c-1.44-.16-2.7-.5-3.77-1.01-1.08-.52-1.97-1.16-2.69-1.93s-1.25-1.57-1.6-2.4c-.34-.83-.52-1.64-.52-2.44 0-.59.23-1.12.69-1.6.46-.47 1.04-.71 1.72-.71.55 0 1.02.13 1.4.39.38.26.65.62.79 1.09.33 1.01.62 1.78.87 2.31s.62 1.02 1.12 1.47 1.16.78 1.98 1.01v-8.57c-1.65-.45-3.02-.96-4.13-1.52-1.11-.56-2-1.35-2.69-2.39-.69-1.03-1.03-2.36-1.03-3.98 0-2.11.67-3.85 2.02-5.2s3.29-2.14 5.84-2.36v-1.95c0-1.03.39-1.55 1.16-1.55.79 0 1.18.5 1.18 1.51zm-2.34 12.65v-7.06c-1.03.31-1.84.71-2.42 1.22-.58.5-.87 1.27-.87 2.29 0 .97.27 1.71.81 2.2.55.49 1.38.94 2.48 1.35zm2.34 5.47v8.08c1.24-.25 2.2-.74 2.88-1.49.68-.75 1.01-1.62 1.01-2.62 0-1.07-.33-1.9-.99-2.48-.65-.59-1.62-1.08-2.9-1.49z"/><g><circle class="st18" cx="722.21" cy="78.74" r="19.62"/><circle class="st6" cx="722.21" cy="78.74" r="16.48"/><path class="st18" d="M722.53 66.84v1.25c.83.09 1.54.26 2.13.51.59.26 1.11.64 1.55 1.16.35.39.62.8.81 1.22.19.42.28.8.28 1.15 0 .39-.14.72-.42 1-.28.28-.62.42-1.03.42-.76 0-1.25-.41-1.47-1.23-.26-.97-.87-1.61-1.84-1.93v4.83c.96.26 1.72.5 2.29.72.57.22 1.08.53 1.53.94.48.43.85.93 1.11 1.53.26.59.39 1.24.39 1.94 0 .88-.21 1.71-.62 2.48-.41.77-1.02 1.4-1.83 1.89s-1.76.78-2.87.87v2.89c0 .46-.04.79-.13 1-.09.21-.28.31-.59.31-.28 0-.47-.09-.59-.26-.11-.17-.17-.43-.17-.79v-3.13c-.91-.1-1.7-.31-2.37-.64-.68-.32-1.24-.73-1.69-1.21-.45-.48-.79-.99-1-1.51-.22-.52-.32-1.03-.32-1.54 0-.37.15-.71.44-1 .29-.3.65-.45 1.08-.45.35 0 .64.08.88.24.24.16.41.39.5.68.21.63.39 1.12.55 1.46.15.34.39.64.7.92.31.28.73.49 1.25.64v-5.4c-1.04-.29-1.9-.61-2.6-.96-.7-.35-1.26-.85-1.69-1.5-.43-.65-.65-1.49-.65-2.51 0-1.33.42-2.42 1.27-3.27.85-.85 2.07-1.35 3.67-1.49v-1.23c0-.65.24-.97.73-.97.47.02.72.34.72.97zm-1.47 7.96v-4.44c-.65.19-1.16.45-1.52.77-.36.32-.55.8-.55 1.44 0 .61.17 1.07.51 1.39.34.3.86.58 1.56.84zm1.47 3.45v5.08c.78-.15 1.38-.47 1.81-.94.43-.47.64-1.02.64-1.65 0-.67-.21-1.19-.62-1.56-.42-.37-1.02-.68-1.83-.93z"/></g><g><circle cx="790.29" cy="73.46" r="26.18" style="fill:#e0a020"/><circle cx="790.29" cy="73.46" r="21.99" style="opacity:.63;fill:#ffc40a"/><path class="st6" d="M790.71 57.58v1.67c1.1.11 2.05.34 2.84.68s1.48.86 2.07 1.55c.46.53.82 1.07 1.08 1.63.25.56.38 1.07.38 1.53 0 .52-.19.96-.56 1.34-.38.38-.83.57-1.37.57-1.01 0-1.67-.55-1.97-1.64-.34-1.29-1.16-2.15-2.46-2.57v6.44c1.28.35 2.3.67 3.06.96s1.44.71 2.04 1.25c.64.57 1.13 1.25 1.48 2.04.35.79.52 1.65.52 2.59 0 1.18-.28 2.28-.83 3.31-.55 1.03-1.37 1.87-2.44 2.52-1.07.65-2.35 1.04-3.82 1.16v3.86c0 .61-.06 1.05-.18 1.33s-.38.42-.78.42c-.37 0-.63-.11-.78-.34-.15-.23-.22-.58-.22-1.05v-4.18c-1.21-.13-2.26-.42-3.17-.85-.9-.43-1.66-.97-2.26-1.62-.6-.64-1.05-1.32-1.34-2.01-.29-.7-.43-1.38-.43-2.05 0-.5.19-.94.58-1.34.39-.4.87-.6 1.45-.6.46 0 .86.11 1.18.33.32.22.54.52.67.91.28.85.52 1.49.73 1.94.21.45.52.86.94 1.23.42.37.97.66 1.66.85v-7.2c-1.38-.38-2.54-.81-3.47-1.28a5.892 5.892 0 0 1-2.26-2c-.58-.87-.87-1.98-.87-3.34 0-1.78.56-3.23 1.7-4.37 1.13-1.14 2.76-1.8 4.9-1.98v-1.64c0-.87.32-1.3.97-1.3.63-.02.96.4.96 1.25zm-1.96 10.62v-5.93c-.87.26-1.54.6-2.03 1.02-.49.42-.73 1.06-.73 1.92 0 .82.23 1.43.68 1.85.46.42 1.15.8 2.08 1.14zm1.96 4.6v6.78c1.04-.21 1.85-.62 2.41-1.25.57-.63.85-1.36.85-2.2 0-.9-.28-1.59-.83-2.08-.54-.49-1.35-.91-2.43-1.25z"/></g></g><g><path class="st6" d="M341.41 327.77v8.71h-7.46v-23.96h10.23c2.55 0 4.49.29 5.82.88 1.33.59 2.38 1.48 3.16 2.69.78 1.21 1.17 2.56 1.17 4.06 0 2.28-.8 4.12-2.39 5.53-1.59 1.4-3.72 2.11-6.37 2.11h-4.16zm-.11-5.14h2.46c2.17 0 3.25-.8 3.25-2.39 0-1.5-1-2.25-3-2.25h-2.7v4.64zM368.73 336.48l-1.35-4.72h-6.42l-1.44 4.72h-5.97l7.4-23.96h7.78l7.51 23.96h-7.51zm-6.52-9.95h3.88l-1.94-6.95-1.94 6.95zM396.32 312.52l-7.5 13.81v10.15h-7.14v-10.15l-8.06-13.81h8.05l4.2 7.9 4.03-7.9h6.42z"/></g><path style="fill:#fffdff" d="m319.97 31.76.57 53.14h55.3l2.56-53.14z"/><path class="st16" d="M316.49 62.27v37.37h63.82V62.26L348.4 77.84z"/><g><path class="st16" d="M519.54 103.45h3.42v24.49h-3.42v-24.49zm2.02 21.31h6.64c1.74 0 3.01-.33 3.81-.99.8-.66 1.2-1.59 1.2-2.8v-.05c0-.83-.14-1.54-.43-2.14s-.74-1.05-1.36-1.37c-.62-.32-1.41-.48-2.38-.48h-7.48v-3.1h7.48c1.27 0 2.23-.3 2.87-.89s.97-1.48.97-2.64c0-1.22-.36-2.14-1.08-2.75-.72-.61-1.8-.91-3.23-.91h-7.01v-3.18h7.63c1.58 0 2.91.27 3.97.81s1.86 1.3 2.39 2.29.79 2.17.79 3.54c0 .84-.16 1.63-.49 2.37-.33.74-.82 1.36-1.49 1.89s-1.5.87-2.48 1.05c.99.15 1.84.5 2.56 1.05.72.56 1.27 1.25 1.65 2.08.38.83.57 1.73.57 2.69v.05c0 1.33-.29 2.49-.88 3.5-.58 1.01-1.42 1.79-2.51 2.34-1.09.55-2.36.83-3.81.83h-7.92v-3.19zM545.24 127.94h-3.44v-24.49h3.44v24.49zM551.3 103.45h3.44v24.49h-3.44v-24.49zm1.72 21.22h14.01v3.27h-14.01v-3.27zM571.07 103.45h3.44v24.49h-3.44v-24.49zm1.72 21.22h14.01v3.27h-14.01v-3.27z"/></g><g><path class="st16" d="M613.86 140.08H473.92c-1.53 0-2.77-.62-2.77-1.38s1.24-1.38 2.77-1.38h139.95c1.53 0 2.77.62 2.77 1.38s-1.25 1.38-2.78 1.38z"/></g><g><path class="st16" d="M613.86 155.86H473.92c-1.53 0-2.77-.62-2.77-1.38s1.24-1.38 2.77-1.38h139.95c1.53 0 2.77.62 2.77 1.38s-1.25 1.38-2.78 1.38z"/></g><g><path class="st16" d="M613.86 171.64H473.92c-1.53 0-2.77-.62-2.77-1.38s1.24-1.38 2.77-1.38h139.95c1.53 0 2.77.62 2.77 1.38s-1.25 1.38-2.78 1.38z"/></g><g><path class="st16" d="M613.86 187.42H473.92c-1.53 0-2.77-.62-2.77-1.38s1.24-1.38 2.77-1.38h139.95c1.53 0 2.77.62 2.77 1.38s-1.25 1.38-2.78 1.38z"/></g><g><path class="st16" d="M613.86 203.2H473.92c-1.53 0-2.77-.62-2.77-1.38s1.24-1.38 2.77-1.38h139.95c1.53 0 2.77.62 2.77 1.38s-1.25 1.38-2.78 1.38z"/></g><g><path class="st16" d="M613.86 218.98H473.92c-1.53 0-2.77-.62-2.77-1.38s1.24-1.38 2.77-1.38h139.95c1.53 0 2.77.62 2.77 1.38s-1.25 1.38-2.78 1.38z"/></g><g><path class="st16" d="M613.86 234.76H473.92c-1.53 0-2.77-.62-2.77-1.38s1.24-1.38 2.77-1.38h139.95c1.53 0 2.77.62 2.77 1.38s-1.25 1.38-2.78 1.38z"/></g><g><path class="st16" d="M613.86 250.54H473.92c-1.53 0-2.77-.62-2.77-1.38s1.24-1.38 2.77-1.38h139.95c1.53 0 2.77.62 2.77 1.38s-1.25 1.38-2.78 1.38z"/></g><g><path class="st16" d="M613.86 266.32H473.92c-1.53 0-2.77-.62-2.77-1.38 0-.76 1.24-1.38 2.77-1.38h139.95c1.53 0 2.77.62 2.77 1.38-.01.76-1.25 1.38-2.78 1.38z"/></g><g><path class="st16" d="M613.86 282.1H473.92c-1.53 0-2.77-.62-2.77-1.38 0-.76 1.24-1.38 2.77-1.38h139.95c1.53 0 2.77.62 2.77 1.38-.01.76-1.25 1.38-2.78 1.38z"/></g><g><path class="st16" d="M613.86 297.88H473.92c-1.53 0-2.77-.62-2.77-1.38 0-.76 1.24-1.38 2.77-1.38h139.95c1.53 0 2.77.62 2.77 1.38-.01.76-1.25 1.38-2.78 1.38z"/></g><g><path class="st16" d="M613.86 313.66H473.92c-1.53 0-2.77-.62-2.77-1.38 0-.76 1.24-1.38 2.77-1.38h139.95c1.53 0 2.77.62 2.77 1.38-.01.76-1.25 1.38-2.78 1.38z"/></g><g><path class="st16" d="M614.93 330.28h-85.95c-.94 0-1.7-.67-1.7-1.5s.76-1.5 1.7-1.5h85.95c.94 0 1.7.67 1.7 1.5s-.76 1.5-1.7 1.5z"/></g><g><path class="st16" d="M615.15 343.34H540.5c-.82 0-1.48-.6-1.48-1.34s.66-1.34 1.48-1.34h74.66c.82 0 1.48.6 1.48 1.34s-.67 1.34-1.49 1.34z"/></g><g><path class="st16" d="M620.02 414.78h-74.66c-.82 0-1.48-.6-1.48-1.34s.66-1.34 1.48-1.34h74.66c.82 0 1.48.6 1.48 1.34s-.66 1.34-1.48 1.34z"/></g><g><path class="st16" d="M613.99 369.07H474.05c-1.53 0-2.77-.62-2.77-1.38 0-.76 1.24-1.38 2.77-1.38H614c1.53 0 2.77.62 2.77 1.38-.01.76-1.25 1.38-2.78 1.38z"/></g><g><path class="st16" d="M613.99 385.07H474.05c-1.53 0-2.77-.62-2.77-1.38 0-.76 1.24-1.38 2.77-1.38H614c1.53 0 2.77.62 2.77 1.38-.01.76-1.25 1.38-2.78 1.38z"/></g><g><path class="st16" d="M613.99 402.07H474.05c-1.53 0-2.77-.62-2.77-1.38 0-.76 1.24-1.38 2.77-1.38H614c1.53 0 2.77.62 2.77 1.38-.01.76-1.25 1.38-2.78 1.38z"/></g><path class="st16" d="M324.47 38.87h49.14M324.47 48.04h49.14M324.47 56.04h49.14M323.16 63.26h49.14"/></g></switch></svg>