<svg version="1.1" id="Layer_1" xmlns="http://www.w3.org/2000/svg" x="0" y="0" viewBox="0 0 946.06 805.76" style="enable-background:new 0 0 946.06 805.76" xml:space="preserve"><style>.st0{fill:#6cd4a7}.st1{fill:none;stroke:#fff;stroke-miterlimit:10}.st2{fill:#2f937b}.st3{fill:#fff}.st6{fill:#fbc690}.st9{fill:#4d6188}</style><switch><g><path class="st0" d="M687.76 553.41s-247.12-88.26 16.3-545.58c0 .01 206.4 433.76-16.3 545.58z"/><path class="st1" d="m688.01 542.03 14.92-519.77"/><path transform="rotate(-88.355 695.47 282.135)" class="st1" d="M435.48 280.54h519.99v3.2H435.48z"/><path class="st1" d="M610.6 403.42s37.55 70.48 78.92 85.94"/><path class="st1" d="M688.96 490.86c-41.47-15.49-78.23-83.79-79.78-86.69l2.82-1.5c.37.7 37.74 70.12 78.07 85.19l-1.11 3zM758.34 334.01s-18.68 56.46-61.71 78.35"/><path class="st1" d="m697.35 413.78-1.45-2.85c41.96-21.34 60.73-76.86 60.92-77.42l3.04 1.01c-.19.56-19.39 57.33-62.51 79.26zM625.68 272.52s22.4 84.8 67.84 77.59"/><path class="st1" d="M678.13 350.75c-35.75-10.38-53.17-74.72-53.99-77.82l3.09-.82c.22.83 22.55 83.32 66.04 76.42l.5 3.16c-5.55.88-10.77.47-15.64-.94z"/><g><path class="st1" d="M738.91 213s.84 56-43.69 77.84"/><path class="st1" d="m695.93 292.28-1.41-2.87c43.12-21.15 42.8-75.83 42.79-76.38l3.2-.05c0 .57.33 57.28-44.58 79.3z"/></g><g><path class="st1" d="M664.81 121.97s-3.44 57.94 32.67 90.1"/><path class="st1" d="M696.42 213.26c-36.27-32.3-33.24-90.8-33.2-91.39l3.19.19c-.03.57-2.96 57.55 32.14 88.81l-2.13 2.39z"/></g><g><path class="st1" d="M726.05 82.45s-2.8 33.37-26.52 58.29"/><path class="st1" d="m700.69 141.84-2.32-2.21c23.03-24.2 26.06-56.99 26.09-57.32l3.19.27c-.12 1.39-3.13 34.22-26.96 59.26z"/></g><g><path class="st0" d="M784.3 650.24s.67-81.53 161.76-50.91c0 0-106.22 104.85-161.76 50.91z"/><path class="st1" d="m787.66 649.15 154.05-48.68"/><path transform="rotate(-17.536 864.792 624.868)" class="st1" d="M783.91 624.31h161.56v.99H783.91z"/><path class="st1" d="M820.43 612.28s-16.85 18.21-17.16 31.93"/><path class="st1" d="M802.77 644.21c.31-13.75 16.6-31.51 17.29-32.26l.73.67c-.17.18-16.72 18.23-17.03 31.61l-.99-.02zM855.88 648.55s-18.48.28-29.29-10.11"/><path class="st1" d="m826.25 638.8.69-.72c10.55 10.13 28.76 9.98 28.94 9.97l.02.99c-.19.01-18.81.17-29.65-10.24zM860.39 603.35s-22.6 15.23-15.84 27.83"/><path class="st1" d="M842.78 626.72c-.6-11.55 16.5-23.23 17.32-23.79l.56.82c-.22.15-22.15 15.12-15.68 27.18l-.88.47c-.82-1.53-1.23-3.1-1.32-4.68z"/><g><path class="st1" d="M889.41 630.5s-16.35 5.96-27.3-4.87"/><path class="st1" d="m861.76 625.98.7-.71c10.61 10.49 26.62 4.82 26.78 4.76l.34.93c-.17.06-16.77 5.95-27.82-4.98z"/></g><g><path class="st1" d="M908.56 599.46s-17.35 4.9-23.1 18.79"/><path class="st1" d="M885 618.06c5.78-13.94 23.25-19.02 23.43-19.07l.27.96c-.17.05-17.19 5.01-22.78 18.5l-.92-.39z"/></g><g><path class="st1" d="M926.41 613.4s-10.08 2.58-19.81-1.83"/><path class="st1" d="m906.39 612.02.41-.91c9.45 4.29 19.38 1.83 19.48 1.8l.25.96c-.42.12-10.36 2.58-20.14-1.85z"/></g></g><g><path class="st0" d="M571.64 223.15s-69.49-42.64 39.85-164.84c0 .01 35.02 145.09-39.85 164.84z"/><path class="st1" d="m572.45 219.71 37.77-157.08"/><path transform="rotate(-76.479 591.318 141.168)" class="st1" d="M510.56 140.67h161.56v.99H510.56z"/><path class="st1" d="M557.77 172.62s6.91 23.83 18.5 31.18"/><path class="st1" d="M576.01 204.21c-11.62-7.36-18.43-30.48-18.71-31.46l.95-.28c.07.24 6.99 23.73 18.29 30.9l-.53.84zM607.13 160.96s-9.29 15.97-23.77 19.87"/><path class="st1" d="m583.49 181.31-.26-.96c14.12-3.81 23.38-19.49 23.47-19.64l.86.5c-.09.16-9.56 16.19-24.07 20.1zM570.73 133.78s1.39 27.22 15.66 27.93"/><path class="st1" d="M581.68 160.92c-10.2-5.44-11.39-26.12-11.44-27.11l.99-.05c.01.27 1.53 26.77 15.19 27.46l-.05.99c-1.74-.09-3.3-.55-4.69-1.29z"/><g><path class="st1" d="M608.96 122.92s-3.33 17.08-18.26 20.87"/><path class="st1" d="m590.83 144.28-.24-.96c14.46-3.67 17.86-20.32 17.9-20.49l.98.19c-.05.17-3.58 17.44-18.64 21.26z"/></g><g><path class="st1" d="M592.26 90.51s-4.75 17.4 4.17 29.48"/><path class="st1" d="M596.03 120.29c-8.96-12.14-4.3-29.73-4.25-29.91l.96.26c-.05.17-4.58 17.31 4.09 29.06l-.8.59z"/></g><g><path class="st1" d="M613.4 82.41s-2.99 9.97-11.79 16.03"/><path class="st1" d="m601.9 98.84-.56-.82c8.55-5.89 11.57-15.66 11.6-15.76l.95.29c-.13.41-3.15 10.2-11.99 16.29z"/></g></g><g><path class="st2" d="M273.51 769.01S149.17 866.96 0 585.72c0 0 287.8 33.65 273.51 183.29z"/><path class="st1" d="M267.77 765.23 7 590.92"/><path transform="rotate(-56.241 137.377 678.047)" class="st1" d="M136.42 521.25h1.93v313.66h-1.93z"/><path class="st1" d="M172.13 760.33s48.05 3.42 69.22-12.76"/><path class="st1" d="M241.94 748.34c-21.22 16.22-67.89 13.1-69.87 12.96l.14-1.92c.48.03 47.93 3.21 68.56-12.57l1.17 1.53zM184.05 662.59s22.85 27.65 20.24 56.65"/><path class="st1" d="m205.25 719.33-1.92-.17c2.55-28.28-19.79-55.68-20.02-55.95l1.49-1.23c.22.28 23.07 28.29 20.45 57.35zM110.09 710.65s50.51 15.75 61.4-9.77"/><path class="st1" d="M166.88 708.94c-16.77 14.93-55.23 3.2-57.07 2.63l.58-1.84c.5.15 49.8 15.2 60.22-9.23l1.77.76c-1.34 3.11-3.22 5.64-5.5 7.68z"/><g><path class="st1" d="M115.99 633.71s28.88 17.53 25.76 47.28"/><path class="st1" d="m142.72 681.1-1.92-.2c3.02-28.81-25.02-46.18-25.3-46.36l1-1.65c.29.18 29.37 18.19 26.22 48.21z"/></g><g><path class="st1" d="M45.72 642.37s28.5 20.34 56.51 12.2"/><path class="st1" d="M102.5 655.5c-28.14 8.17-57.05-12.14-57.34-12.34l1.12-1.57c.28.2 28.45 19.97 55.68 12.06l.54 1.85z"/></g><g><path class="st1" d="M45.17 598.41s16.15 12.13 21.27 32.24"/><path class="st1" d="m67.38 630.42-1.87.48c-4.98-19.53-20.76-31.59-20.92-31.71l1.16-1.54c.67.49 16.48 12.56 21.63 32.77z"/></g></g><g><path class="st0" d="M324.04 768.26S73.69 846.9 8.02 323.23c0 0 426.23 221.52 316.02 445.03z"/><path class="st1" d="M317.37 759.02 15.81 335.42"/><path transform="rotate(-35.442 166.633 547.263)" class="st1" d="M164.99 287.23h3.2v519.99h-3.2z"/><path class="st1" d="M172.03 695.15s72.45 33.58 114.78 20.95"/><path class="st1" d="M287.27 717.63c-42.42 12.65-112.93-19.65-115.91-21.03l1.35-2.9c.72.33 72.39 33.17 113.65 20.87l.91 3.06zM248.02 550.68s19.15 56.3-1.98 99.71"/><path class="st1" d="m247.48 651.09-2.88-1.4c20.6-42.33 2.09-97.94 1.9-98.5l3.03-1.03c.2.57 19.12 57.44-2.05 100.93zM105.12 581.63s69.01 54.13 100.9 20.98"/><path class="st1" d="M194.13 612.4c-34.77 13.28-87.48-27.53-90-29.51l1.98-2.52c.68.53 68.24 52.86 98.76 21.13l2.31 2.22c-3.9 4.06-8.31 6.87-13.05 8.68z"/><g><path class="st1" d="M159.54 465.88s34.45 44.17 12.1 88.44"/><path class="st1" d="m173.07 555.04-2.86-1.44c21.64-42.87-11.6-86.3-11.93-86.74l2.52-1.97c.36.45 34.82 45.48 12.27 90.15z"/></g><g><path class="st1" d="M45.54 437.94s32.2 48.29 80.4 52.17"/><path class="st1" d="M125.81 491.71c-48.41-3.89-81.27-52.39-81.6-52.87l2.66-1.78c.32.48 32.34 47.69 79.2 51.46l-.26 3.19z"/></g><g><path class="st1" d="M70.55 369.49s17.89 28.31 14 62.49"/><path class="st1" d="m86.14 432.16-3.18-.36c3.78-33.2-13.58-61.17-13.76-61.45l2.71-1.71c.74 1.17 18.14 29.17 14.23 63.52z"/></g></g><g><path class="st2" d="M645.99 746.92s-122.75-162.46-20.62-168.91c102.13-6.45 42.43-75.68 42.43-75.68s16.54-88.43 96.19-79.79c54.17 5.88 61.57-38.1 60.76-66.84-.51-17.94 5.87-35.42 17.91-48.74 25.88-28.63 68.53-64.67 80.76-8.11 17.92 82.92-84.64 135.15-48.48 174.72 36.16 39.57 37.41 101.1-16.96 107.34-54.37 6.24-95.92 75.91-61.87 92.7 34.06 16.8 4.78 86.5-70.69 91.81s-78.44 25.71-78.44 25.71l-.99-44.21z"/><path class="st3" d="M650.74 779.63a2.5 2.5 0 0 1-2.21-3.67l260.96-494a2.499 2.499 0 0 1 3.38-1.04c1.22.65 1.69 2.16 1.04 3.38l-260.96 494a2.52 2.52 0 0 1-2.21 1.33z"/><path class="st3" d="M671.6 734.77c-.61 0-1.21-.22-1.7-.66-32.98-30.47-20.3-126.91-19.74-131a2.506 2.506 0 0 1 2.81-2.14c1.37.19 2.33 1.45 2.14 2.81-.13.98-12.89 97.94 18.18 126.66 1.01.94 1.08 2.52.14 3.53-.48.53-1.15.8-1.83.8zM722.51 649.12c-.93 0-1.82-.52-2.25-1.41-.6-1.24-.08-2.74 1.16-3.34.79-.38 78.99-38.57 95.85-78.49a2.502 2.502 0 1 1 4.61 1.95c-17.59 41.66-95 79.46-98.28 81.05-.35.16-.72.24-1.09.24zM747.11 584.48c-.59 0-1.18-.21-1.66-.63-33.55-29.78-17.1-117.72-16.39-121.45a2.488 2.488 0 0 1 2.93-1.98c1.36.26 2.24 1.57 1.98 2.93-.17.89-16.63 88.87 14.8 116.77a2.5 2.5 0 0 1 .21 3.53c-.49.55-1.17.83-1.87.83zM803.72 514.03c-6.95 0-11.46-1.75-11.74-1.87a2.508 2.508 0 0 1-1.4-3.25c.51-1.28 1.96-1.9 3.24-1.4.14.05 9.26 3.5 21.28-.26 16.11-5.04 30.18-20.73 40.69-45.37a2.501 2.501 0 0 1 4.6 1.96c-14.12 33.1-31.8 44.53-44.14 48.28a42.327 42.327 0 0 1-12.53 1.91zM854.82 387.95c-.97 0-1.88-.56-2.29-1.5-17.29-39.81 2.46-82.99 3.3-84.81a2.501 2.501 0 0 1 3.32-1.21c1.25.58 1.79 2.07 1.21 3.32-.2.43-19.62 43-3.25 80.7.55 1.27-.03 2.74-1.3 3.29-.32.15-.66.21-.99.21zM890.17 331.73c-1.08 0-2.08-.71-2.4-1.8a2.51 2.51 0 0 1 1.7-3.1c.3-.09 29.58-8.78 28.49-23.95-.1-1.38.94-2.57 2.31-2.67 1.38-.1 2.58.94 2.67 2.31 1.38 19.2-30.72 28.72-32.09 29.12-.21.06-.45.09-.68.09z"/></g><g><path class="st2" d="M236.68 611.25s-145.45-22.6-95.67-77.32c49.78-54.72-16.04-60.64-16.04-60.64s-35.89-54.23 9.8-89.81c31.08-24.2 12.8-50.75-2.08-65.26-9.29-9.06-14.77-21.34-15.22-34.31-.96-27.88 3.05-68.05 37.85-44.83 51.02 34.04 24.04 112.74 62.72 115.1s70.28 33.67 45.19 64.26c-25.09 30.59-11.62 87.66 14.51 79.25 26.13-8.41 46 42.5 9.48 83.23-36.52 40.72-27.79 52.81-27.79 52.81l-22.75-22.48z"/><path class="st3" d="M255.59 625.85a1.804 1.804 0 0 1-2.99-.79L139.59 237.31c-.28-.96.27-1.96 1.23-2.24.96-.28 1.96.27 2.24 1.23l113.01 387.74c.2.67-.01 1.36-.48 1.81z"/><path class="st3" d="M243.86 592.06c-.31.31-.74.5-1.21.51-32.45.77-74.38-55.68-76.15-58.08-.59-.8-.42-1.93.38-2.53.8-.59 1.94-.42 2.53.38.42.57 42.57 57.33 73.15 56.61 1-.02 1.83.77 1.85 1.76.02.54-.2 1.01-.55 1.35zM227.21 521.99c-.48.47-1.21.65-1.88.4a1.81 1.81 0 0 1-1.08-2.32c.22-.59 21.61-59.76 10.28-88.97-.36-.93.1-1.98 1.03-2.34.93-.36 1.98.1 2.34 1.03 11.83 30.48-9.35 89.04-10.25 91.52-.1.27-.25.5-.44.68zM207.47 476.05c-.31.3-.72.49-1.18.51-32.4 1.42-68.1-52.51-69.6-54.81a1.806 1.806 0 0 1 3.02-1.98c.36.55 36.07 54.51 66.42 53.18 1-.04 1.84.73 1.88 1.73.03.53-.18 1.03-.54 1.37zM201.42 411c-3.61 3.5-6.83 4.86-7.04 4.94a1.81 1.81 0 0 1-2.36-.98c-.38-.92.06-1.97.98-2.36.1-.04 6.57-2.84 10.92-10.84 5.83-10.72 5.24-25.94-1.7-44.02a1.8 1.8 0 0 1 1.04-2.33c.93-.36 1.98.11 2.34 1.04 9.32 24.29 5.89 39.11 1.37 47.27-1.71 3.08-3.68 5.47-5.55 7.28zM164.52 319.84c-.5.49-1.26.66-1.95.37-29-11.97-40.47-44.32-40.95-45.69-.33-.94.17-1.97 1.12-2.3.94-.33 1.97.17 2.3 1.12.11.32 11.44 32.19 38.91 43.53.92.38 1.36 1.44.98 2.36-.09.24-.23.44-.41.61zM154.6 272.87c-.56.55-1.44.68-2.15.27-.87-.49-1.17-1.6-.67-2.47.11-.19 10.95-19.44 2.74-26.77-.74-.66-.81-1.81-.14-2.55.66-.75 1.81-.81 2.55-.14 10.37 9.27-1.5 30.36-2.01 31.26-.1.15-.2.28-.32.4z"/></g><path d="M264.66 780.54S56.63 659.7 199.13 424.09c0 0 76.55-122.07 17.94-193.83s-2.5-219.61 166.69-130.74 344.16-24.4 379.62 275.99-22.82 398.88-197.61 415.04c-174.78 16.16-301.11-10.01-301.11-10.01z" style="fill:#ba74f7"/><path d="M341.55 800.76s-202.85-99.81-84.52-329.93c0 0 63.86-119.4 4.27-182.87S244.73 82.23 409.1 154.59s321.07-45.16 373.76 234.16 4.44 375.43-158.38 401.9c-162.81 26.46-282.93 10.11-282.93 10.11z" style="fill:#e5d1f7"/><g><path class="st6" d="M449.2 384.58s9.63 32.1 0 55.49 58.74 18.34 58.74 18.34l8.95-16.51s-8.53-6.42-17.7-14.68c-9.17-8.25-22.66-39.9-16.61-45.86s-33.38 3.22-33.38 3.22z"/><ellipse class="st6" cx="468.04" cy="337.17" rx="39.9" ry="61.91"/><path d="M489.06 296.07s-20.61 50.45-44.45 52.28v22.93s26.6 18.34 0 49.53l33.02 83.46s-14.68 51.3-67.87 44.45-71.54-52.71-71.54-52.71-11.92-42.05 22.01-73.31 33.94-29.42 23.85-52.35c-10.09-22.93-22.93-57.78 5.5-88.97 0 0 32.1-14.68 55.95-17.43 0 0 42.27-28.43 62.41 5.5 20.14 33.94 0 44.03 0 44.03l-18.88-17.41z"/><path d="M451.95 419.11s-8.2 21.87 26.6 20.96c0 0 39.38 5.04 10.52-33.94 0 0 31.22-4.13 54.15 31.18l22.93 35.31-28.43 18.34-.92 107.31s-77.28 19.55-122.9 0c-3.21-1.38 22.09-73.55 12.65-91.81l-12.94 17.51-40.53-28.89 9.63-36.23s5.62-28.05 34.85-34.39 34.39-5.35 34.39-5.35z" style="fill:#3470b9"/><path d="m416.02 585.18-51.2 217.05 94.93 2.18 10.55-97.57s3.21-45.28 20.64-15.14l15.13 108.53 57.78-2-2.29-101.39s-15.13-92.3-28.89-105.49l-116.65-6.17z" style="fill:#ef505d"/><path d="m411.13 426.33 12.31-3.11s19.33 19.59 18.87 35.64c-.46 16.05-14.18 139.87-14.18 139.87l-9.67 98.14s10.09 7.8 11.01 23.85c.92 16.05 5.07 77.99 5.07 77.99l-102.75 4.1-37.61-37.15 18.12-59.62s11.01-43.93 27.17-37.1l30.84 3.62 22.03 11.93 34.19-147.67 1.61-88.97c0 .01-3.71-16.91-17.01-21.52zM442.33 419.84s-.47 39.03 12.83 61.5l12.88 57.32s-17.93-2.29-17.01 15.13c.92 17.43 1.38 36.23 1.38 36.23s7.34 8.25 17.2 10.09c9.86 1.83 60.31-5.5 60.31-5.5s21.55-.46 21.55-14.68-3.21-43.57-3.21-43.57-7.34-10.55-21.1-5.5c0 0 7.8-35.77 2.29-59.16-5.5-23.39-6.8-35.31-15.55-44.94s-31.32-25.68-31.32-25.68l14.32 23.72s20.73 26.73 19.99 45.08c-.74 18.34 7.62 53.2 0 62.83-7.62 9.63-8.95-4.13-8.95-4.13v-5.91h-25.36v9.12l-4.03-2.29s-8.25-46.32-14.22-67.41-12.38-42.97-12.38-42.97l-9.62.72z"/><path class="st9" d="M336.19 668.24s-38.78 48.36-2.56 55.7 60.99-37.15 60.99-37.15l-24.31-14.22-34.12-4.33zM399.21 737.7s-14.22-.92-13.3 16.05c.92 16.97 31.64 10.55 31.64 10.55s17.8-.91 13.72-15.13c-4.09-14.22-10.96-11.48-10.96-11.48l-21.1.01z"/><path style="fill:#d1d1d1" d="M489.06 531.79h18.88v10.55h-18.88z"/><path class="st6" d="M378.8 499.18s-25.9 68.38-30.49 103.69-14.68 109.15-14.68 109.15-23.85 26.14-21.1 57.32 17.03 14.22 23.65-10.09c6.62-24.31 10.06-13.76 11.55-3.67 1.49 10.09 9.28 14.68 9.28-.92s-9.28-35.31-9.28-35.31l19.37-63.75 20.18-72.36 18.34-64.95-26.82-19.11z"/><ellipse transform="rotate(-26.581 438.744 357.5)" class="st6" cx="438.74" cy="357.52" rx="10.6" ry="16.45"/><circle class="st9" cx="513.68" cy="563.79" r="20.46"/><circle cx="513.68" cy="563.79" r="15.07"/><circle cx="513.68" cy="563.79" r="8.16" style="opacity:.48;fill:#fff"/><path class="st6" d="m537.71 490.97 28.43 40.82-28.43 32.01s-61.91 1.39-44.48 25.51 51.42 1.53 51.42 1.53l45.81-35.2s32.1-14.68 5.5-38.52l-29.81-44.48-28.44 18.33z"/></g></g></switch></svg>