<svg version="1.1" id="Layer_1" xmlns="http://www.w3.org/2000/svg" x="0" y="0" viewBox="0 0 1000 1000" style="enable-background:new 0 0 1000 1000" xml:space="preserve"><style>.st2{fill:#d6b7f7}.st4{fill:#8922e1}.st5{fill:#fff}.st6{fill:#ee505d}.st8{fill:#6b1ebc}</style><switch><g><circle cx="819.66" cy="717.04" r="52.11" style="opacity:.74;fill:#ee505d"/><circle cx="125.61" cy="520.86" r="71.39" style="opacity:.51;fill:#fda819;enable-background:new"/><path id="Path_4110_1_" class="st2" d="M276.99 707.68c0-14.48-11.74-26.22-26.22-26.22-.73-.02-1.46.02-2.18.1a89.952 89.952 0 0 0-7.68-13.72c10.68-9.78 11.42-26.36 1.64-37.04s-26.36-11.42-37.04-1.64a26.314 26.314 0 0 0-4.87 6 89.44 89.44 0 0 0-25.45-6.3v-1.71c.02-14.48-11.7-26.24-26.18-26.26-14.48-.02-26.24 11.7-26.26 26.18-.01 3.91.86 7.78 2.54 11.31a90.315 90.315 0 0 0-19.46 13.54c-10.03-10.43-26.62-10.75-37.06-.72-10.43 10.03-10.75 26.62-.72 37.06a26.1 26.1 0 0 0 11.49 6.97 90.099 90.099 0 0 0-2.94 19.31c-14.39 1.58-24.78 14.53-23.21 28.92 1.58 14.39 14.53 24.78 28.92 23.21 2.45-.27 4.86-.88 7.14-1.82 1.86 3.08 3.9 6.04 6.11 8.87-10.7 9.75-11.47 26.34-1.72 37.04s26.34 11.47 37.04 1.72c2.75-2.51 4.94-5.58 6.42-9 6.82 2.34 13.9 3.85 21.08 4.49 2.94 14.18 16.82 23.29 31 20.35 14.18-2.94 23.29-16.82 20.35-31a89.08 89.08 0 0 0 13.96-9.44c11.59 8.69 28.02 6.34 36.71-5.25 8.69-11.59 6.34-28.02-5.25-36.71-.8-.6-1.63-1.15-2.49-1.65 1.05-3.52 1.88-7.1 2.48-10.73 12.63-2.15 21.85-13.07 21.85-25.86zm-110.51 54.4c-24.12 0-43.67-19.55-43.67-43.67s19.55-43.67 43.67-43.67 43.67 19.55 43.67 43.67-19.55 43.67-43.67 43.67z"/><circle cx="793.69" cy="501.73" r="143.37" style="fill:#fda819;enable-background:new"/><circle class="st2" cx="402.85" cy="373.66" r="281.8"/><path class="st4" d="M412.43 728.11h-.13c-2.68 0-5.42-.04-8.13-.11a2.57 2.57 0 0 1-2.5-2.64c.04-1.42 1.25-2.59 2.64-2.5 2.67.07 5.35.11 7.99.11h.13a2.57 2.57 0 1 1 0 5.14zm8.19-.12c-1.39 0-2.53-1.1-2.57-2.5a2.579 2.579 0 0 1 2.5-2.65c2.69-.08 5.42-.2 8.11-.35 1.4-.09 2.64 1 2.72 2.42.08 1.42-1 2.63-2.42 2.72-2.74.16-5.52.28-8.26.36h-.08zm-24.57-.34h-.15c-2.71-.15-5.49-.35-8.25-.59a2.575 2.575 0 0 1-2.35-2.78 2.575 2.575 0 0 1 2.78-2.35c2.71.23 5.44.43 8.1.58 1.42.08 2.5 1.3 2.42 2.72a2.556 2.556 0 0 1-2.55 2.42zm40.93-.61a2.575 2.575 0 0 1-.22-5.14c2.7-.24 5.42-.51 8.08-.82 1.41-.17 2.69.85 2.85 2.26.16 1.41-.85 2.69-2.26 2.85-2.71.31-5.47.6-8.23.83-.07.02-.14.02-.22.02zm-57.26-.8c-.1 0-.2-.01-.3-.02-2.73-.31-5.49-.67-8.2-1.06a2.571 2.571 0 0 1 .73-5.09c2.66.39 5.37.74 8.05 1.05 1.41.16 2.42 1.44 2.26 2.85a2.546 2.546 0 0 1-2.54 2.27zm73.54-1.09c-1.26 0-2.36-.92-2.54-2.2a2.58 2.58 0 0 1 2.18-2.92c2.66-.39 5.36-.82 8.02-1.29 1.4-.25 2.73.69 2.98 2.09s-.69 2.73-2.09 2.98c-2.71.48-5.45.92-8.17 1.31-.13.02-.26.03-.38.03zm-89.76-1.25c-.15 0-.3-.01-.45-.04-2.68-.47-5.41-.99-8.12-1.54a2.579 2.579 0 0 1-2.01-3.04 2.579 2.579 0 0 1 3.04-2.01c2.67.54 5.35 1.05 7.98 1.51 1.4.24 2.34 1.58 2.09 2.98a2.57 2.57 0 0 1-2.53 2.14zm105.9-1.58c-1.2 0-2.27-.84-2.52-2.05-.29-1.39.61-2.75 2-3.04 2.64-.54 5.3-1.13 7.93-1.75 1.38-.33 2.77.53 3.1 1.91.33 1.38-.53 2.77-1.91 3.1-2.67.63-5.39 1.23-8.08 1.79-.17.02-.35.04-.52.04zm-121.96-1.71c-.2 0-.39-.02-.59-.07-2.67-.63-5.36-1.3-8.02-2.01a2.575 2.575 0 0 1-1.82-3.15 2.578 2.578 0 0 1 3.15-1.82c2.61.7 5.26 1.36 7.88 1.98 1.38.33 2.24 1.71 1.92 3.09a2.602 2.602 0 0 1-2.52 1.98zm137.91-2.06c-1.14 0-2.18-.76-2.48-1.91-.37-1.37.45-2.78 1.82-3.15 2.61-.7 5.24-1.44 7.81-2.21 1.36-.41 2.8.36 3.2 1.73.41 1.36-.37 2.8-1.73 3.2-2.62.79-5.3 1.54-7.96 2.26-.22.05-.44.08-.66.08zm-153.74-2.16c-.24 0-.49-.04-.74-.11-2.64-.79-5.29-1.62-7.89-2.48a2.58 2.58 0 0 1-1.64-3.25 2.58 2.58 0 0 1 3.25-1.64c2.55.84 5.16 1.66 7.75 2.44a2.572 2.572 0 0 1-.73 5.04zm169.44-2.54c-1.08 0-2.08-.68-2.44-1.76-.45-1.35.28-2.81 1.63-3.25 2.56-.85 5.14-1.75 7.67-2.67 1.34-.49 2.81.2 3.3 1.54.49 1.33-.2 2.81-1.54 3.3-2.57.94-5.2 1.85-7.81 2.72-.27.07-.54.12-.81.12zm-185.03-2.62c-.29 0-.59-.05-.88-.16-2.58-.94-5.19-1.93-7.75-2.95a2.566 2.566 0 0 1-1.44-3.34 2.574 2.574 0 0 1 3.34-1.44c2.52 1 5.08 1.97 7.61 2.89 1.34.49 2.02 1.96 1.54 3.3a2.562 2.562 0 0 1-2.42 1.7zm200.43-3c-1.02 0-1.99-.62-2.39-1.62-.53-1.32.12-2.82 1.44-3.34 2.47-.98 4.98-2.02 7.48-3.1 1.3-.56 2.82.04 3.38 1.34s-.04 2.82-1.34 3.38c-2.54 1.1-5.1 2.16-7.61 3.16-.32.12-.64.18-.96.18zm-215.71-3.06c-.34 0-.69-.07-1.02-.21-2.52-1.09-5.06-2.23-7.56-3.39a2.57 2.57 0 0 1-1.24-3.42 2.57 2.57 0 0 1 3.42-1.24c2.45 1.14 4.95 2.27 7.43 3.33 1.3.56 1.91 2.08 1.34 3.38-.42.97-1.37 1.55-2.37 1.55zm230.71-3.42c-.97 0-1.9-.55-2.33-1.48a2.57 2.57 0 0 1 1.24-3.42c2.44-1.14 4.89-2.33 7.29-3.54a2.577 2.577 0 0 1 2.32 4.6c-2.44 1.23-4.94 2.44-7.42 3.6-.36.16-.73.24-1.1.24zm-245.59-3.53c-.39 0-.78-.09-1.15-.28a270 270 0 0 1-7.35-3.83 2.574 2.574 0 0 1-1.04-3.49 2.569 2.569 0 0 1 3.49-1.04c2.38 1.28 4.81 2.55 7.22 3.76 1.27.64 1.78 2.19 1.14 3.45a2.6 2.6 0 0 1-2.31 1.43zm260.2-3.82a2.574 2.574 0 0 1-1.23-4.84c2.36-1.28 4.74-2.61 7.07-3.96a2.58 2.58 0 0 1 3.52.94c.71 1.23.29 2.8-.94 3.52-2.37 1.37-4.8 2.73-7.2 4.03-.39.21-.81.31-1.22.31zm-274.65-3.98c-.44 0-.88-.11-1.29-.35a317.57 317.57 0 0 1-7.11-4.25 2.578 2.578 0 0 1-.84-3.54 2.578 2.578 0 0 1 3.54-.84c2.3 1.42 4.65 2.82 6.98 4.17a2.58 2.58 0 0 1 .94 3.52 2.54 2.54 0 0 1-2.22 1.29zm288.8-4.21a2.57 2.57 0 0 1-1.35-4.76c2.28-1.41 4.58-2.88 6.83-4.36 1.19-.78 2.78-.45 3.56.73.78 1.19.45 2.78-.73 3.56-2.29 1.51-4.63 3-6.96 4.44-.42.27-.89.39-1.35.39zm-302.76-4.42c-.49 0-.98-.14-1.41-.42-2.3-1.51-4.6-3.08-6.85-4.66a2.578 2.578 0 0 1-.63-3.58 2.578 2.578 0 0 1 3.58-.63c2.21 1.55 4.47 3.09 6.72 4.57 1.19.78 1.51 2.38.73 3.57-.49.74-1.31 1.15-2.14 1.15zm316.43-4.58c-.81 0-1.61-.38-2.11-1.1-.82-1.16-.53-2.77.63-3.58 2.19-1.53 4.4-3.13 6.57-4.75 1.14-.85 2.75-.62 3.6.53.85 1.14.61 2.75-.53 3.6-2.21 1.65-4.46 3.28-6.69 4.84-.45.31-.96.46-1.47.46zm-329.86-4.84c-.53 0-1.07-.17-1.54-.51-2.21-1.65-4.42-3.34-6.56-5.04-1.11-.88-1.3-2.5-.42-3.61.88-1.11 2.5-1.3 3.62-.42 2.11 1.67 4.28 3.34 6.44 4.95a2.58 2.58 0 0 1 .53 3.6c-.51.67-1.29 1.03-2.07 1.03zm342.99-4.94c-.76 0-1.51-.33-2.02-.98-.88-1.11-.69-2.73.42-3.61 2.1-1.66 4.22-3.39 6.29-5.13 1.09-.91 2.71-.77 3.63.32.91 1.09.77 2.71-.32 3.63-2.11 1.77-4.26 3.53-6.41 5.22-.47.37-1.03.55-1.59.55zm-355.85-5.24c-.58 0-1.17-.2-1.65-.6-2.09-1.76-4.2-3.58-6.26-5.41a2.566 2.566 0 0 1-.21-3.63 2.566 2.566 0 0 1 3.63-.21c2.02 1.8 4.09 3.59 6.15 5.31a2.57 2.57 0 0 1-1.66 4.54zm368.39-5.29c-.71 0-1.41-.29-1.92-.86-.94-1.06-.85-2.69.21-3.63 2.03-1.81 4.04-3.65 5.98-5.48a2.576 2.576 0 0 1 3.53 3.75c-1.98 1.87-4.03 3.75-6.1 5.58-.48.42-1.09.64-1.7.64zm-380.63-5.61c-.63 0-1.27-.23-1.77-.7a292.54 292.54 0 0 1-5.93-5.76 2.565 2.565 0 0 1 0-3.64c1-1 2.63-1 3.64 0 1.91 1.91 3.87 3.81 5.83 5.66 1.03.97 1.08 2.6.1 3.64-.51.53-1.19.8-1.87.8zm392.55-5.63c-.66 0-1.32-.25-1.82-.75-1-1.01-1-2.63 0-3.64 1.91-1.91 3.82-3.87 5.66-5.82a2.575 2.575 0 1 1 3.74 3.54c-1.88 1.99-3.82 3.98-5.76 5.93-.5.49-1.16.74-1.82.74zm-404.14-5.96c-.68 0-1.37-.27-1.87-.81-1.88-1.99-3.76-4.04-5.59-6.09-.95-1.06-.85-2.69.21-3.63 1.06-.95 2.69-.85 3.63.21 1.8 2.02 3.64 4.03 5.49 5.98.98 1.03.93 2.66-.11 3.64-.49.47-1.13.7-1.76.7zm415.39-5.96c-.61 0-1.22-.22-1.71-.65a2.575 2.575 0 0 1-.21-3.63c1.8-2.02 3.59-4.09 5.32-6.14a2.572 2.572 0 0 1 3.63-.31 2.57 2.57 0 0 1 .31 3.63c-1.76 2.09-3.58 4.2-5.41 6.26-.51.55-1.22.84-1.93.84zm-426.29-6.27c-.73 0-1.46-.31-1.97-.92-1.76-2.09-3.52-4.25-5.22-6.4-.88-1.11-.7-2.73.42-3.62 1.11-.88 2.73-.7 3.61.42 1.68 2.12 3.4 4.23 5.13 6.29.91 1.09.77 2.71-.32 3.63-.47.4-1.06.6-1.65.6zm436.85-6.28a2.573 2.573 0 0 1-2.02-4.17c1.67-2.11 3.34-4.28 4.95-6.44a2.561 2.561 0 0 1 3.6-.52 2.57 2.57 0 0 1 .52 3.6c-1.64 2.2-3.34 4.41-5.05 6.56-.49.64-1.25.97-2 .97zm-447.01-6.56c-.78 0-1.56-.36-2.06-1.03-1.64-2.2-3.27-4.45-4.84-6.69-.82-1.16-.54-2.77.63-3.58 1.16-.82 2.77-.54 3.58.63 1.55 2.2 3.15 4.41 4.76 6.57a2.57 2.57 0 0 1-.52 3.6c-.48.33-1.02.5-1.55.5zm456.81-6.58a2.578 2.578 0 0 1-2.11-4.05c1.55-2.21 3.09-4.47 4.57-6.72a2.567 2.567 0 0 1 3.56-.73c1.19.78 1.51 2.38.73 3.56-1.51 2.29-3.08 4.59-4.66 6.85-.48.71-1.28 1.09-2.09 1.09zm-466.21-6.82c-.84 0-1.66-.41-2.15-1.16-1.51-2.29-3-4.63-4.45-6.96-.75-1.21-.37-2.8.84-3.54 1.21-.75 2.79-.37 3.54.83 1.41 2.29 2.88 4.59 4.36 6.83.78 1.19.45 2.78-.73 3.56-.44.31-.93.44-1.41.44zm475.25-6.88c-.46 0-.93-.12-1.35-.38a2.566 2.566 0 0 1-.83-3.54 279.8 279.8 0 0 0 4.18-6.98 2.58 2.58 0 0 1 3.52-.94 2.58 2.58 0 0 1 .94 3.52c-1.38 2.39-2.82 4.78-4.25 7.11-.51.78-1.35 1.21-2.21 1.21zm-483.86-7.03c-.89 0-1.75-.46-2.23-1.28a295.59 295.59 0 0 1-4.03-7.2 2.574 2.574 0 0 1 1.04-3.49c1.25-.68 2.81-.21 3.49 1.04 1.28 2.37 2.62 4.75 3.96 7.07.71 1.23.29 2.8-.94 3.52-.41.23-.85.34-1.29.34zm492.09-7.18a2.574 2.574 0 0 1-2.26-3.8c1.29-2.38 2.55-4.81 3.76-7.21a2.577 2.577 0 0 1 4.6 2.32c-1.23 2.45-2.52 4.92-3.83 7.35-.47.85-1.36 1.34-2.27 1.34zm-499.87-7.2c-.94 0-1.85-.52-2.3-1.42-1.23-2.45-2.45-4.94-3.6-7.42a2.57 2.57 0 0 1 1.24-3.42 2.57 2.57 0 0 1 3.42 1.24c1.14 2.43 2.33 4.88 3.54 7.28.64 1.27.13 2.82-1.14 3.46-.38.19-.77.28-1.16.28zm507.25-7.47c-.36 0-.73-.08-1.09-.24a2.57 2.57 0 0 1-1.24-3.42c1.14-2.44 2.26-4.94 3.34-7.42a2.56 2.56 0 0 1 3.38-1.34c1.3.56 1.91 2.08 1.34 3.38a271.56 271.56 0 0 1-3.4 7.56c-.43.93-1.36 1.48-2.33 1.48zm-514.18-7.34c-1 0-1.94-.58-2.36-1.55-1.08-2.5-2.15-5.06-3.16-7.61-.53-1.32.12-2.82 1.44-3.34 1.32-.52 2.82.12 3.34 1.44 1 2.51 2.04 5.02 3.11 7.47.56 1.3-.04 2.82-1.34 3.38-.34.14-.68.21-1.03.21zm520.7-7.74a2.566 2.566 0 0 1-2.39-3.52c1-2.51 1.97-5.07 2.9-7.61.49-1.33 1.97-2.03 3.3-1.54 1.33.49 2.02 1.96 1.54 3.3-.94 2.59-1.93 5.2-2.95 7.75a2.592 2.592 0 0 1-2.4 1.62zm-526.75-7.46a2.58 2.58 0 0 1-2.42-1.69c-.94-2.57-1.85-5.2-2.72-7.81-.45-1.35.28-2.81 1.63-3.25 1.35-.44 2.8.28 3.25 1.63.85 2.56 1.75 5.14 2.67 7.67.49 1.33-.2 2.81-1.53 3.3-.29.1-.59.15-.88.15zm532.37-7.99a2.567 2.567 0 0 1-2.44-3.38c.85-2.57 1.67-5.18 2.44-7.75a2.572 2.572 0 0 1 4.93 1.47c-.78 2.62-1.62 5.27-2.48 7.89a2.577 2.577 0 0 1-2.45 1.77zm-537.54-7.56c-1.11 0-2.13-.72-2.46-1.83-.79-2.62-1.55-5.3-2.26-7.96-.37-1.37.45-2.78 1.82-3.15a2.57 2.57 0 0 1 3.15 1.82c.7 2.61 1.45 5.23 2.22 7.81a2.56 2.56 0 0 1-1.73 3.2c-.25.07-.5.11-.74.11zm542.24-8.14a2.575 2.575 0 0 1-2.49-3.24c.69-2.6 1.36-5.25 1.98-7.88.33-1.38 1.72-2.24 3.09-1.91 1.38.33 2.24 1.71 1.91 3.1-.63 2.68-1.31 5.38-2.02 8.02a2.558 2.558 0 0 1-2.47 1.91zm-546.49-7.69c-1.17 0-2.22-.8-2.5-1.98-.63-2.66-1.23-5.38-1.79-8.07-.29-1.39.61-2.75 2-3.04 1.4-.29 2.75.61 3.04 2 .55 2.65 1.14 5.31 1.76 7.93.33 1.38-.53 2.77-1.91 3.1-.2.04-.4.06-.6.06zm550.25-8.26c-.17 0-.34-.02-.52-.05a2.565 2.565 0 0 1-2-3.04c.54-2.66 1.05-5.34 1.52-7.98.25-1.4 1.58-2.34 2.98-2.09s2.34 1.58 2.09 2.98c-.47 2.69-.99 5.42-1.54 8.12a2.593 2.593 0 0 1-2.53 2.06zm-553.56-7.79a2.57 2.57 0 0 1-2.53-2.13c-.48-2.71-.92-5.46-1.31-8.16a2.574 2.574 0 0 1 5.09-.75c.39 2.66.82 5.35 1.29 8.02a2.573 2.573 0 0 1-2.54 3.02zm556.39-8.35c-.12 0-.25-.01-.37-.03a2.575 2.575 0 0 1-2.18-2.92c.38-2.65.74-5.36 1.05-8.05a2.574 2.574 0 0 1 2.85-2.26c1.41.16 2.42 1.44 2.26 2.85-.32 2.74-.68 5.5-1.07 8.2a2.57 2.57 0 0 1-2.54 2.21zm-558.76-7.87c-1.29 0-2.4-.96-2.55-2.28-.32-2.72-.6-5.49-.84-8.23-.12-1.42.92-2.66 2.34-2.79 1.42-.12 2.66.92 2.79 2.34.23 2.69.51 5.41.82 8.08.16 1.41-.85 2.69-2.26 2.85-.1.03-.2.03-.3.03zm560.64-8.41c-.07 0-.15 0-.22-.01a2.56 2.56 0 0 1-2.34-2.78c.23-2.7.43-5.43.58-8.1.08-1.42 1.29-2.49 2.72-2.42 1.42.08 2.5 1.3 2.42 2.72-.16 2.72-.35 5.5-.59 8.25a2.592 2.592 0 0 1-2.57 2.34zm-562.06-7.92c-1.35 0-2.49-1.06-2.57-2.42-.16-2.73-.28-5.5-.36-8.26a2.579 2.579 0 0 1 2.5-2.65c1.41-.01 2.61 1.08 2.65 2.5.08 2.71.2 5.44.36 8.12.08 1.42-1 2.64-2.42 2.72-.06-.01-.11-.01-.16-.01zm563-8.45h-.07a2.573 2.573 0 0 1-2.5-2.65c.08-2.7.12-5.43.12-8.12v-.52a2.57 2.57 0 1 1 5.14 0v.51c0 2.76-.04 5.54-.12 8.28-.04 1.4-1.19 2.5-2.57 2.5zm-563.49-7.93a2.57 2.57 0 0 1-2.57-2.57v-.26c0-2.66.04-5.35.11-8a2.589 2.589 0 0 1 2.64-2.5 2.57 2.57 0 0 1 2.5 2.64c-.07 2.61-.11 5.25-.11 7.86v.26a2.557 2.557 0 0 1-2.57 2.57zm563.47-8.98c-1.39 0-2.53-1.1-2.57-2.5-.08-2.68-.2-5.41-.36-8.11-.08-1.42 1-2.64 2.42-2.72 1.44-.09 2.64 1 2.72 2.42.16 2.75.29 5.53.37 8.26a2.57 2.57 0 0 1-2.49 2.65h-.09zm-563.01-7.4h-.15a2.57 2.57 0 0 1-2.42-2.71c.15-2.74.35-5.51.58-8.25.12-1.42 1.37-2.48 2.78-2.35 1.42.12 2.47 1.37 2.35 2.78-.23 2.69-.42 5.41-.57 8.1a2.576 2.576 0 0 1-2.57 2.43zm562.04-8.96c-1.32 0-2.44-1.01-2.56-2.35-.24-2.69-.52-5.41-.83-8.08-.16-1.41.84-2.69 2.26-2.86 1.41-.17 2.69.84 2.86 2.26.32 2.72.6 5.48.85 8.23a2.57 2.57 0 0 1-2.34 2.79c-.09.01-.16.01-.24.01zm-560.64-7.37c-.1 0-.2-.01-.3-.02a2.567 2.567 0 0 1-2.26-2.85c.31-2.72.67-5.48 1.06-8.2a2.571 2.571 0 0 1 5.09.73c-.38 2.67-.74 5.38-1.04 8.05a2.572 2.572 0 0 1-2.55 2.29zm558.73-8.91c-1.26 0-2.36-.92-2.54-2.2-.39-2.66-.83-5.36-1.3-8.01a2.568 2.568 0 1 1 5.06-.89c.48 2.71.92 5.45 1.32 8.16.21 1.41-.77 2.71-2.17 2.92-.12.02-.25.02-.37.02zm-556.39-7.31c-.15 0-.3-.01-.44-.04a2.568 2.568 0 0 1-2.09-2.98c.47-2.7.99-5.43 1.54-8.13a2.579 2.579 0 0 1 3.04-2.01c1.39.28 2.29 1.64 2.01 3.04-.54 2.64-1.05 5.33-1.51 7.98-.24 1.26-1.33 2.14-2.55 2.14zm553.53-8.82c-1.19 0-2.27-.84-2.52-2.05-.54-2.62-1.14-5.29-1.76-7.93a2.57 2.57 0 0 1 1.91-3.1c1.38-.33 2.77.53 3.1 1.91.64 2.68 1.24 5.4 1.8 8.07.29 1.39-.61 2.75-2 3.04-.18.04-.36.06-.53.06zm-550.25-7.24a2.582 2.582 0 0 1-2.51-3.16c.63-2.68 1.31-5.38 2.01-8.02a2.575 2.575 0 0 1 3.15-1.82c1.37.37 2.19 1.78 1.82 3.15-.69 2.59-1.35 5.24-1.97 7.88a2.582 2.582 0 0 1-2.5 1.97zm546.46-8.71c-1.13 0-2.17-.76-2.48-1.91-.7-2.6-1.45-5.23-2.22-7.81-.41-1.36.36-2.8 1.72-3.21 1.36-.41 2.8.36 3.21 1.72.79 2.63 1.55 5.31 2.27 7.95.37 1.37-.44 2.78-1.82 3.15-.24.09-.46.11-.68.11zm-542.25-7.12c-.24 0-.49-.03-.74-.11a2.572 2.572 0 0 1-1.73-3.2c.79-2.64 1.62-5.29 2.48-7.89a2.58 2.58 0 0 1 3.25-1.64 2.58 2.58 0 0 1 1.64 3.25c-.84 2.55-1.66 5.16-2.43 7.75a2.595 2.595 0 0 1-2.47 1.84zm537.53-8.57c-1.08 0-2.08-.68-2.44-1.76-.85-2.55-1.75-5.13-2.68-7.67-.49-1.33.2-2.81 1.53-3.3 1.33-.49 2.81.2 3.3 1.53.94 2.58 1.86 5.21 2.73 7.81.45 1.35-.28 2.81-1.63 3.25-.27.1-.54.14-.81.14zm-532.38-7.02c-.29 0-.59-.05-.88-.15a2.565 2.565 0 0 1-1.54-3.3c.94-2.58 1.93-5.19 2.94-7.75a2.566 2.566 0 0 1 3.34-1.44c1.32.52 1.97 2.02 1.44 3.34-1 2.52-1.97 5.08-2.89 7.61a2.568 2.568 0 0 1-2.41 1.69zm526.74-8.37c-1.02 0-1.99-.61-2.39-1.62-.99-2.49-2.04-5-3.11-7.47a2.56 2.56 0 0 1 1.34-3.38c1.3-.57 2.82.03 3.38 1.34 1.09 2.52 2.16 5.08 3.17 7.61a2.566 2.566 0 0 1-2.39 3.52zm-520.69-6.91c-.34 0-.69-.07-1.02-.21a2.56 2.56 0 0 1-1.34-3.38c1.09-2.52 2.23-5.07 3.39-7.57.6-1.29 2.13-1.84 3.42-1.25 1.29.6 1.85 2.13 1.25 3.42-1.14 2.45-2.26 4.95-3.33 7.43-.42.98-1.37 1.56-2.37 1.56zm514.19-8.08c-.97 0-1.89-.55-2.33-1.48-1.14-2.42-2.33-4.87-3.54-7.28a2.577 2.577 0 0 1 4.6-2.32c1.24 2.45 2.45 4.95 3.61 7.42.6 1.29.05 2.82-1.24 3.42-.36.16-.73.24-1.1.24zm-507.25-6.81c-.39 0-.78-.09-1.15-.27a2.565 2.565 0 0 1-1.14-3.45c1.24-2.46 2.52-4.93 3.83-7.35a2.569 2.569 0 0 1 3.49-1.04c1.25.67 1.72 2.24 1.04 3.49-1.28 2.37-2.55 4.8-3.76 7.22-.46.88-1.36 1.4-2.31 1.4zm499.88-7.78c-.91 0-1.8-.49-2.26-1.35-1.28-2.37-2.62-4.75-3.97-7.07-.71-1.23-.3-2.8.93-3.52 1.23-.71 2.8-.3 3.52.93 1.37 2.36 2.73 4.79 4.04 7.2.68 1.25.21 2.81-1.04 3.49-.38.22-.8.32-1.22.32zm-492.08-6.67c-.44 0-.88-.11-1.28-.35a2.577 2.577 0 0 1-.94-3.52c1.37-2.38 2.8-4.77 4.25-7.11a2.578 2.578 0 0 1 3.54-.84c1.21.75 1.58 2.33.84 3.54-1.42 2.3-2.82 4.65-4.17 6.98-.49.84-1.35 1.3-2.24 1.3zm483.87-7.48c-.86 0-1.7-.43-2.19-1.22-1.41-2.28-2.88-4.58-4.37-6.83-.78-1.19-.46-2.78.73-3.57a2.58 2.58 0 0 1 3.57.73c1.51 2.29 3.01 4.63 4.45 6.96.75 1.21.38 2.79-.83 3.54-.42.27-.89.39-1.36.39zm-475.25-6.49c-.49 0-.98-.14-1.41-.42a2.558 2.558 0 0 1-.73-3.56c1.51-2.3 3.08-4.6 4.65-6.85.82-1.16 2.42-1.45 3.58-.63 1.16.82 1.45 2.42.63 3.58-1.55 2.21-3.08 4.47-4.57 6.73-.49.75-1.32 1.15-2.15 1.15zm466.23-7.16c-.81 0-1.61-.38-2.11-1.09-1.54-2.19-3.14-4.4-4.76-6.57a2.57 2.57 0 0 1 .52-3.6 2.57 2.57 0 0 1 3.6.52c1.65 2.21 3.28 4.46 4.85 6.69.82 1.16.54 2.77-.63 3.58-.44.31-.96.47-1.47.47zm-456.82-6.27c-.53 0-1.07-.17-1.54-.51a2.572 2.572 0 0 1-.53-3.6c1.64-2.2 3.33-4.41 5.04-6.56.88-1.11 2.5-1.3 3.61-.42 1.11.88 1.3 2.5.42 3.61a275.85 275.85 0 0 0-4.95 6.45 2.53 2.53 0 0 1-2.05 1.03zm447.02-6.85c-.76 0-1.51-.33-2.02-.97-1.66-2.1-3.39-4.21-5.13-6.28a2.59 2.59 0 0 1 .31-3.63 2.59 2.59 0 0 1 3.63.31c1.77 2.11 3.53 4.26 5.23 6.4.88 1.11.7 2.73-.42 3.62-.48.37-1.04.55-1.6.55zm-436.84-6.02c-.58 0-1.17-.2-1.65-.6a2.58 2.58 0 0 1-.32-3.63c1.76-2.1 3.58-4.21 5.41-6.26a2.566 2.566 0 0 1 3.63-.21c1.06.94 1.16 2.57.21 3.63-1.8 2.02-3.58 4.09-5.31 6.15-.51.61-1.24.92-1.97.92zm426.29-6.51c-.71 0-1.41-.29-1.92-.86-1.8-2.01-3.64-4.02-5.49-5.98a2.575 2.575 0 0 1 3.74-3.54c1.88 1.99 3.76 4.04 5.59 6.09.95 1.06.85 2.69-.21 3.63-.48.45-1.1.66-1.71.66zm-415.39-5.73c-.63 0-1.27-.23-1.76-.7a2.584 2.584 0 0 1-.11-3.64c1.89-2 3.82-4 5.76-5.93a2.565 2.565 0 0 1 3.64 0c1.01 1 1.01 2.63 0 3.64-1.9 1.9-3.81 3.86-5.66 5.83-.51.53-1.19.8-1.87.8zm404.14-6.17c-.66 0-1.32-.25-1.82-.75-1.91-1.9-3.87-3.81-5.83-5.65-1.04-.97-1.08-2.6-.11-3.64.97-1.03 2.6-1.08 3.64-.11 2 1.88 3.99 3.82 5.94 5.76 1.01 1 1.01 2.63 0 3.64-.51.49-1.17.75-1.82.75zm-392.56-5.43c-.68 0-1.37-.27-1.87-.81-.98-1.03-.93-2.66.1-3.64 1.98-1.87 4.03-3.76 6.09-5.59 1.06-.95 2.69-.85 3.63.21.95 1.06.85 2.69-.21 3.63-2.02 1.8-4.03 3.65-5.98 5.49-.49.48-1.13.71-1.76.71zm380.62-5.81c-.61 0-1.22-.21-1.71-.65-2.02-1.8-4.09-3.58-6.15-5.31a2.58 2.58 0 0 1-.32-3.63 2.58 2.58 0 0 1 3.63-.32c2.1 1.76 4.2 3.58 6.26 5.41 1.06.94 1.16 2.57.21 3.63-.5.58-1.21.87-1.92.87zm-368.39-5.09c-.73 0-1.46-.31-1.97-.92a2.59 2.59 0 0 1 .31-3.63c2.1-1.77 4.25-3.52 6.4-5.23 1.11-.88 2.73-.7 3.61.42.88 1.11.7 2.73-.42 3.62-2.11 1.67-4.22 3.4-6.29 5.13-.47.41-1.06.61-1.64.61zm355.83-5.45c-.56 0-1.12-.18-1.59-.55a275.85 275.85 0 0 0-6.45-4.95 2.572 2.572 0 1 1 3.07-4.13c2.2 1.63 4.41 3.33 6.57 5.04 1.11.88 1.3 2.5.42 3.61-.51.65-1.26.98-2.02.98zm-343-4.72a2.57 2.57 0 0 1-1.54-4.63c2.19-1.63 4.44-3.26 6.69-4.85 1.16-.82 2.77-.54 3.58.63.82 1.16.54 2.77-.63 3.58-2.21 1.55-4.42 3.16-6.57 4.76-.45.34-.99.51-1.53.51zm329.84-5.07c-.51 0-1.02-.15-1.47-.47-2.2-1.54-4.46-3.08-6.73-4.56a2.57 2.57 0 0 1-.74-3.56 2.57 2.57 0 0 1 3.56-.74c2.3 1.52 4.61 3.08 6.85 4.65 1.16.82 1.45 2.42.63 3.58a2.53 2.53 0 0 1-2.1 1.1zm-316.44-4.34c-.84 0-1.66-.41-2.15-1.16-.78-1.19-.46-2.78.73-3.56 2.29-1.51 4.63-3.01 6.96-4.45 1.21-.75 2.79-.37 3.54.83.75 1.21.37 2.79-.83 3.54-2.29 1.42-4.58 2.88-6.83 4.37-.45.29-.94.43-1.42.43zM560 206.28c-.46 0-.93-.12-1.35-.38-2.29-1.41-4.64-2.81-6.98-4.17a2.568 2.568 0 0 1-.94-3.51 2.58 2.58 0 0 1 3.52-.94c2.39 1.38 4.78 2.81 7.11 4.24a2.57 2.57 0 0 1 .84 3.54c-.5.78-1.34 1.22-2.2 1.22zm-288.83-3.94c-.89 0-1.75-.46-2.23-1.28-.71-1.23-.29-2.8.94-3.52 2.36-1.37 4.79-2.73 7.2-4.03 1.25-.68 2.81-.21 3.49 1.04.68 1.25.21 2.81-1.04 3.49-2.37 1.28-4.75 2.62-7.07 3.96-.4.23-.85.34-1.29.34zm274.61-4.27c-.41 0-.83-.1-1.22-.31a260.13 260.13 0 0 0-7.22-3.75 2.578 2.578 0 0 1-1.15-3.45 2.578 2.578 0 0 1 3.45-1.15c2.46 1.23 4.93 2.52 7.35 3.82a2.58 2.58 0 0 1 1.05 3.49c-.46.86-1.34 1.35-2.26 1.35zm-260.23-3.52c-.94 0-1.85-.52-2.3-1.41a2.577 2.577 0 0 1 1.14-3.46c2.44-1.23 4.94-2.45 7.42-3.61a2.57 2.57 0 0 1 3.42 1.24c.6 1.29.05 2.82-1.24 3.42a257.55 257.55 0 0 0-7.28 3.54c-.37.19-.77.28-1.16.28zm245.55-3.84c-.36 0-.73-.08-1.08-.24-2.45-1.14-4.94-2.26-7.43-3.33a2.573 2.573 0 0 1-1.35-3.38 2.57 2.57 0 0 1 3.38-1.35c2.53 1.09 5.08 2.23 7.57 3.39a2.574 2.574 0 0 1-1.09 4.91zm-230.75-3.09c-1 0-1.94-.58-2.36-1.55-.56-1.3.03-2.82 1.34-3.38 2.52-1.09 5.08-2.16 7.61-3.17 1.32-.53 2.82.12 3.34 1.44.53 1.32-.12 2.82-1.44 3.34-2.49.99-5 2.04-7.47 3.11-.33.14-.67.21-1.02.21zm215.66-3.41c-.32 0-.64-.06-.95-.18-2.51-.99-5.07-1.97-7.62-2.89a2.565 2.565 0 0 1-1.54-3.3c.48-1.34 1.96-2.02 3.3-1.54 2.59.94 5.2 1.93 7.76 2.94 1.32.52 1.97 2.02 1.44 3.34a2.578 2.578 0 0 1-2.39 1.63zm-200.46-2.65a2.58 2.58 0 0 1-2.42-1.69c-.49-1.33.2-2.81 1.53-3.3 2.57-.94 5.2-1.86 7.81-2.72 1.35-.45 2.81.28 3.25 1.63.45 1.35-.28 2.81-1.63 3.25-2.56.85-5.14 1.75-7.67 2.68-.28.1-.58.15-.87.15zm185-2.95c-.27 0-.54-.04-.81-.13-2.56-.84-5.17-1.66-7.75-2.43a2.572 2.572 0 0 1 1.47-4.93c2.63.78 5.28 1.61 7.89 2.47 1.35.44 2.08 1.9 1.64 3.25a2.56 2.56 0 0 1-2.44 1.77zm-169.45-2.23c-1.11 0-2.13-.72-2.46-1.83-.41-1.36.36-2.8 1.72-3.2 2.63-.79 5.31-1.55 7.95-2.26 1.37-.37 2.78.44 3.15 1.82.37 1.37-.44 2.78-1.82 3.15-2.6.7-5.23 1.45-7.81 2.22-.24.07-.48.1-.73.1zm153.75-2.44c-.22 0-.44-.03-.66-.09-2.6-.69-5.25-1.35-7.88-1.97a2.578 2.578 0 0 1-1.92-3.09 2.582 2.582 0 0 1 3.09-1.92c2.67.63 5.37 1.3 8.02 2.01a2.58 2.58 0 0 1 1.83 3.15 2.578 2.578 0 0 1-2.48 1.91zm-137.92-1.81c-1.16 0-2.22-.8-2.5-1.98-.33-1.38.53-2.77 1.91-3.1 2.67-.63 5.38-1.24 8.07-1.79 1.39-.29 2.75.61 3.04 2 .29 1.39-.61 2.75-2 3.04-2.64.55-5.31 1.14-7.93 1.76-.2.05-.4.07-.59.07zm121.96-1.93c-.17 0-.34-.02-.52-.05-2.63-.54-5.31-1.04-7.98-1.51a2.568 2.568 0 0 1-2.09-2.98c.24-1.4 1.57-2.33 2.98-2.1 2.71.47 5.45.99 8.13 1.53 1.39.28 2.29 1.64 2.01 3.04a2.602 2.602 0 0 1-2.53 2.07zm-105.92-1.39c-1.22 0-2.31-.88-2.53-2.13-.25-1.4.69-2.73 2.09-2.98 2.7-.48 5.45-.92 8.16-1.32 1.4-.21 2.71.77 2.92 2.17.21 1.41-.77 2.71-2.17 2.92-2.67.39-5.36.83-8.02 1.29-.15.04-.3.05-.45.05zm89.77-1.42c-.12 0-.25-.01-.37-.03-2.66-.38-5.37-.73-8.05-1.04a2.567 2.567 0 0 1-2.26-2.85 2.568 2.568 0 0 1 2.85-2.26c2.73.31 5.49.67 8.2 1.06 1.41.2 2.38 1.51 2.18 2.91a2.58 2.58 0 0 1-2.55 2.21zm-73.55-.96c-1.29 0-2.4-.96-2.55-2.27a2.56 2.56 0 0 1 2.26-2.85c2.73-.32 5.5-.6 8.23-.84 1.42-.12 2.66.92 2.79 2.34.12 1.42-.92 2.66-2.34 2.79-2.68.24-5.4.51-8.08.83h-.31zm57.27-.9c-.07 0-.15 0-.22-.01-2.68-.23-5.41-.42-8.1-.57a2.574 2.574 0 1 1 .28-5.14c2.74.15 5.52.35 8.25.58a2.575 2.575 0 0 1-.21 5.14zm-40.94-.53c-1.35 0-2.49-1.05-2.57-2.42-.08-1.42 1-2.64 2.42-2.72 2.74-.16 5.52-.28 8.26-.37 1.42-.02 2.61 1.07 2.65 2.5a2.579 2.579 0 0 1-2.5 2.65c-2.7.08-5.43.2-8.11.36h-.15zm24.58-.38h-.07c-2.57-.07-5.17-.11-7.73-.11h-.39a2.57 2.57 0 1 1 0-5.14h.37c2.63 0 5.28.04 7.89.11a2.57 2.57 0 0 1-.07 5.14z"/><path class="st5" d="M817.01 606.89c-1.39 0-2.53-1.1-2.57-2.5a2.579 2.579 0 0 1 2.5-2.65c2.66-.08 5.34-.27 7.97-.55 1.42-.15 2.68.86 2.84 2.28a2.58 2.58 0 0 1-2.28 2.84c-2.77.3-5.58.5-8.38.58h-.08zm-8.19-.08h-.13c-2.79-.14-5.61-.4-8.36-.76a2.585 2.585 0 0 1-2.22-2.89c.19-1.41 1.48-2.4 2.89-2.22 2.62.34 5.3.59 7.95.72 1.42.07 2.51 1.28 2.44 2.7a2.579 2.579 0 0 1-2.57 2.45zm24.46-1.72c-1.21 0-2.29-.85-2.52-2.08-.27-1.4.64-2.75 2.04-3.01 2.6-.5 5.22-1.12 7.77-1.83 1.37-.39 2.79.42 3.17 1.79.38 1.37-.42 2.79-1.78 3.17-2.69.75-5.44 1.4-8.18 1.93-.18.02-.34.03-.5.03zm-40.69-.42c-.18 0-.36-.02-.54-.06-2.73-.59-5.46-1.3-8.13-2.1a2.577 2.577 0 0 1-1.72-3.21 2.577 2.577 0 0 1 3.21-1.72c2.54.77 5.14 1.44 7.73 2 1.39.3 2.27 1.67 1.97 3.06a2.592 2.592 0 0 1-2.52 2.03zm56.46-3.98c-1.05 0-2.03-.64-2.41-1.68-.49-1.33.19-2.81 1.52-3.31 2.48-.92 4.96-1.95 7.36-3.07a2.574 2.574 0 1 1 2.17 4.67c-2.53 1.18-5.14 2.27-7.75 3.23-.29.1-.6.16-.89.16zm-72.14-.77c-.31 0-.63-.06-.94-.18-2.6-1.03-5.18-2.17-7.69-3.4a2.562 2.562 0 0 1-1.17-3.44c.63-1.27 2.17-1.8 3.44-1.17 2.38 1.17 4.84 2.26 7.31 3.23 1.32.52 1.97 2.02 1.45 3.34-.4 1-1.37 1.62-2.4 1.62zm86.97-6.14c-.89 0-1.76-.47-2.24-1.3-.7-1.24-.27-2.81.96-3.51a96.85 96.85 0 0 0 6.77-4.23 2.577 2.577 0 0 1 2.9 4.26c-2.31 1.57-4.71 3.07-7.13 4.45-.39.22-.83.33-1.26.33zm-101.67-1.1c-.45 0-.9-.12-1.32-.36a104.75 104.75 0 0 1-7.03-4.6 2.567 2.567 0 0 1-.6-3.59 2.578 2.578 0 0 1 3.59-.6 96.93 96.93 0 0 0 6.68 4.37c1.22.73 1.62 2.31.89 3.53-.48.81-1.33 1.25-2.21 1.25zm115.2-8.12c-.75 0-1.5-.33-2-.96-.89-1.1-.72-2.72.39-3.62 2.06-1.67 4.08-3.44 6.01-5.26a2.575 2.575 0 0 1 3.55 3.73c-2.02 1.92-4.15 3.78-6.32 5.54-.49.38-1.07.57-1.63.57zm-128.53-1.39c-.59 0-1.18-.2-1.66-.61-2.13-1.8-4.22-3.7-6.2-5.67a2.574 2.574 0 0 1 3.62-3.66c1.89 1.87 3.87 3.68 5.89 5.39 1.09.92 1.23 2.54.31 3.63-.5.61-1.23.92-1.96.92zm140.39-9.89c-.61 0-1.22-.22-1.72-.66a2.566 2.566 0 0 1-.2-3.63c1.77-1.98 3.48-4.05 5.09-6.16a2.578 2.578 0 0 1 3.61-.49c1.13.86 1.35 2.47.49 3.61-1.69 2.22-3.49 4.4-5.35 6.48-.51.56-1.21.85-1.92.85zm-152.01-1.64c-.72 0-1.45-.3-1.95-.9-1.82-2.12-3.57-4.34-5.21-6.59-.83-1.15-.58-2.76.57-3.59 1.15-.83 2.76-.58 3.59.57 1.56 2.14 3.22 4.25 4.95 6.27.93 1.08.8 2.7-.28 3.63-.48.4-1.08.61-1.67.61zm161.92-11.4c-.48 0-.95-.13-1.38-.41a2.564 2.564 0 0 1-.78-3.55c1.43-2.23 2.78-4.55 4.02-6.9a2.565 2.565 0 0 1 3.48-1.07c1.26.67 1.73 2.22 1.07 3.48a101.07 101.07 0 0 1-4.24 7.26c-.49.77-1.32 1.19-2.17 1.19zm-171.54-1.85c-.87 0-1.71-.44-2.2-1.23a99.517 99.517 0 0 1-4.07-7.34 2.562 2.562 0 0 1 1.14-3.45c1.27-.64 2.82-.13 3.45 1.14 1.19 2.36 2.49 4.71 3.87 6.98.74 1.21.35 2.8-.86 3.54-.41.24-.88.36-1.33.36zm179.21-12.63c-.34 0-.68-.07-1.02-.21a2.57 2.57 0 0 1-1.35-3.38c1.05-2.44 2.01-4.95 2.85-7.46a2.572 2.572 0 0 1 3.26-1.62c1.35.45 2.07 1.91 1.62 3.26-.89 2.65-1.9 5.29-3 7.86-.41.97-1.36 1.55-2.36 1.55zm-186.57-1.98c-1.02 0-1.98-.61-2.39-1.61-1.05-2.59-2-5.25-2.83-7.91-.42-1.36.33-2.8 1.69-3.22 1.36-.43 2.8.33 3.22 1.69.79 2.53 1.7 5.06 2.69 7.52a2.57 2.57 0 0 1-1.42 3.35c-.31.11-.63.18-.96.18zm191.8-13.54c-.2 0-.41-.03-.62-.08a2.572 2.572 0 0 1-1.88-3.11c.64-2.58 1.17-5.21 1.6-7.82a2.57 2.57 0 0 1 2.95-2.13c1.4.23 2.36 1.55 2.13 2.95-.45 2.75-1.01 5.52-1.68 8.23a2.598 2.598 0 0 1-2.5 1.96zm-196.68-2.09c-1.18 0-2.24-.81-2.51-2.01-.61-2.72-1.12-5.5-1.51-8.26-.2-1.41.78-2.71 2.19-2.91 1.4-.19 2.71.78 2.91 2.19.37 2.63.85 5.27 1.43 7.85.31 1.39-.56 2.76-1.95 3.07-.18.05-.37.07-.56.07zm199.3-14.07c-.07 0-.14 0-.21-.01a2.57 2.57 0 0 1-2.36-2.77c.21-2.64.32-5.32.32-7.98 0-.76.33-1.45.86-1.92-.55-.45-.9-1.12-.93-1.89-.1-2.66-.31-5.34-.62-7.96a2.574 2.574 0 0 1 5.11-.61c.33 2.76.55 5.58.66 8.37.03.8-.31 1.52-.86 2.02.57.47.93 1.19.93 1.98 0 2.79-.11 5.61-.33 8.39a2.581 2.581 0 0 1-2.57 2.38zm-201.58-2.14c-1.35 0-2.49-1.05-2.57-2.42-.12-2.06-.18-4.14-.18-6.19 0-.74.01-1.47.02-2.2a2.578 2.578 0 0 1 2.63-2.52c1.42.03 2.55 1.21 2.52 2.63-.01.7-.02 1.39-.02 2.09 0 1.95.06 3.94.17 5.89.08 1.42-1 2.64-2.42 2.72h-.15zm.35-16.37c-.09 0-.17 0-.26-.01a2.579 2.579 0 0 1-2.3-2.82c.28-2.78.68-5.58 1.19-8.32a2.57 2.57 0 0 1 3-2.06c1.4.26 2.32 1.6 2.06 3-.48 2.6-.86 5.26-1.13 7.9a2.585 2.585 0 0 1-2.56 2.31zm199.54-9.84c-1.2 0-2.27-.84-2.52-2.06-.52-2.59-1.16-5.2-1.9-7.75-.4-1.36.39-2.79 1.76-3.19 1.36-.4 2.79.39 3.19 1.76.78 2.68 1.45 5.43 2 8.16a2.574 2.574 0 0 1-2.53 3.08zm-196.57-6.26a2.574 2.574 0 0 1-2.48-3.25c.73-2.69 1.58-5.39 2.52-8.02a2.572 2.572 0 1 1 4.84 1.74c-.9 2.49-1.7 5.06-2.4 7.61a2.576 2.576 0 0 1-2.48 1.92zm192.03-9.46c-1.04 0-2.02-.63-2.41-1.66-.94-2.47-2-4.94-3.14-7.34a2.57 2.57 0 0 1 1.22-3.43c1.29-.61 2.82-.07 3.43 1.22 1.2 2.52 2.31 5.12 3.3 7.72a2.577 2.577 0 0 1-2.4 3.49zm-186.49-5.95c-.36 0-.72-.07-1.06-.23a2.586 2.586 0 0 1-1.28-3.41c1.16-2.54 2.43-5.07 3.79-7.5a2.574 2.574 0 0 1 3.5-.99c1.24.69 1.69 2.26.99 3.5-1.29 2.32-2.5 4.71-3.6 7.13a2.57 2.57 0 0 1-2.34 1.5zm179.45-8.82c-.89 0-1.75-.46-2.23-1.28-1.33-2.29-2.77-4.55-4.28-6.74a2.57 2.57 0 0 1 .65-3.58 2.57 2.57 0 0 1 3.58.65c1.59 2.29 3.11 4.68 4.51 7.09.71 1.23.3 2.8-.93 3.52-.42.22-.86.34-1.3.34zm-171.47-5.49c-.49 0-.99-.14-1.43-.44a2.576 2.576 0 0 1-.71-3.57c1.55-2.31 3.21-4.6 4.95-6.79.88-1.11 2.5-1.3 3.61-.42 1.11.88 1.3 2.5.42 3.62a98.415 98.415 0 0 0-4.71 6.45 2.53 2.53 0 0 1-2.13 1.15zm162.13-7.96c-.74 0-1.48-.32-1.99-.94a96.721 96.721 0 0 0-5.32-5.96 2.575 2.575 0 0 1 3.7-3.58c1.94 2.01 3.82 4.12 5.59 6.27.9 1.1.74 2.72-.35 3.62-.48.4-1.05.59-1.63.59zm-151.95-4.86c-.63 0-1.26-.23-1.76-.69a2.575 2.575 0 0 1-.12-3.64c1.91-2.04 3.92-4.03 5.98-5.9 1.05-.96 2.68-.88 3.64.17s.88 2.68-.17 3.63a96.942 96.942 0 0 0-5.68 5.61c-.52.54-1.2.82-1.89.82zm140.57-6.91c-.6 0-1.21-.21-1.7-.64-1.99-1.75-4.07-3.44-6.2-5.03a2.57 2.57 0 0 1-.52-3.6 2.57 2.57 0 0 1 3.6-.52c2.24 1.67 4.43 3.45 6.53 5.29 1.07.94 1.17 2.57.23 3.63-.52.57-1.23.87-1.94.87zm-128.46-4.12c-.77 0-1.53-.34-2.04-1-.87-1.12-.66-2.74.46-3.61 2.21-1.71 4.52-3.35 6.85-4.86 1.19-.77 2.79-.44 3.56.75s.44 2.79-.75 3.56c-2.22 1.44-4.41 3-6.51 4.62-.47.37-1.02.54-1.57.54zm115.33-5.67c-.47 0-.94-.13-1.36-.39a101.48 101.48 0 0 0-6.93-3.97 2.579 2.579 0 0 1-1.1-3.47 2.582 2.582 0 0 1 3.47-1.1c2.47 1.28 4.93 2.69 7.3 4.17 1.2.75 1.57 2.34.81 3.55-.5.78-1.33 1.21-2.19 1.21zm-101.61-3.26c-.91 0-1.8-.49-2.26-1.35a2.574 2.574 0 0 1 1.04-3.49c2.46-1.33 5-2.57 7.54-3.69 1.3-.57 2.82.02 3.39 1.32.57 1.3-.02 2.82-1.32 3.39a94.967 94.967 0 0 0-7.17 3.51c-.39.21-.81.31-1.22.31zm87.07-4.29c-.33 0-.67-.06-.99-.2-2.45-1.03-4.97-1.96-7.49-2.79a2.571 2.571 0 0 1 1.59-4.89c2.66.87 5.31 1.85 7.88 2.93 1.31.55 1.93 2.06 1.38 3.37-.41.99-1.36 1.58-2.37 1.58zm-72.1-2.3c-1.07 0-2.06-.67-2.43-1.73-.47-1.34.25-2.81 1.59-3.27 2.64-.91 5.34-1.73 8.05-2.42 1.38-.35 2.78.48 3.13 1.85.35 1.38-.48 2.78-1.85 3.13-2.57.66-5.14 1.43-7.64 2.3-.29.09-.57.14-.85.14zm56.53-2.78c-.2 0-.4-.02-.6-.07-2.58-.61-5.21-1.13-7.83-1.53a2.565 2.565 0 0 1-2.15-2.93c.22-1.4 1.53-2.37 2.93-2.15 2.76.42 5.53.96 8.25 1.61 1.38.33 2.24 1.72 1.91 3.1a2.593 2.593 0 0 1-2.51 1.97zm-40.68-1.29c-1.23 0-2.32-.89-2.53-2.14-.24-1.4.7-2.73 2.1-2.97 2.75-.47 5.55-.84 8.33-1.08 1.41-.13 2.66.92 2.79 2.34.13 1.42-.92 2.67-2.34 2.79-2.64.23-5.3.58-7.92 1.03-.14.02-.28.03-.43.03zm24.5-1.2c-.06 0-.12 0-.19-.01-2.36-.17-4.76-.25-7.12-.25h-.88c-1.41 0-2.56-1.14-2.57-2.55a2.584 2.584 0 0 1 2.55-2.6h.9c2.5 0 5.02.09 7.49.27 1.42.1 2.48 1.33 2.38 2.75a2.56 2.56 0 0 1-2.56 2.39z"/><path class="st6" d="M378.54 753.7h-.13c-2.68 0-5.42-.04-8.13-.11a2.57 2.57 0 0 1-2.5-2.64c.04-1.42 1.24-2.55 2.64-2.5 2.67.07 5.35.11 7.99.11h.13a2.57 2.57 0 1 1 0 5.14zm8.19-.12c-1.39 0-2.53-1.1-2.57-2.5a2.579 2.579 0 0 1 2.5-2.65c2.69-.08 5.42-.2 8.11-.35a2.574 2.574 0 1 1 .3 5.14c-2.74.16-5.52.28-8.26.36h-.08zm-24.57-.34h-.15c-2.71-.15-5.49-.35-8.25-.59a2.575 2.575 0 0 1-2.35-2.78 2.57 2.57 0 0 1 2.78-2.35c2.71.23 5.44.43 8.1.58 1.42.08 2.5 1.3 2.42 2.72a2.556 2.556 0 0 1-2.55 2.42zm40.93-.61c-1.32 0-2.44-1.01-2.56-2.35-.12-1.42.93-2.66 2.34-2.79 2.7-.24 5.42-.51 8.08-.82 1.41-.17 2.69.85 2.85 2.26.16 1.41-.85 2.69-2.26 2.85-2.71.31-5.47.6-8.23.83-.07.02-.15.02-.22.02zm-57.26-.79c-.1 0-.2-.01-.3-.02-2.73-.31-5.49-.67-8.2-1.06a2.571 2.571 0 0 1-2.18-2.91c.2-1.41 1.51-2.39 2.91-2.18 2.66.39 5.37.74 8.05 1.05 1.41.16 2.42 1.44 2.26 2.85a2.554 2.554 0 0 1-2.54 2.27zm73.54-1.1c-1.26 0-2.36-.92-2.54-2.2a2.58 2.58 0 0 1 2.18-2.92c2.66-.39 5.36-.82 8.02-1.29 1.4-.25 2.73.69 2.98 2.09s-.69 2.73-2.09 2.98c-2.71.48-5.45.92-8.17 1.31-.13.03-.26.03-.38.03zm-89.76-1.25c-.15 0-.3-.01-.45-.04-2.68-.47-5.41-.99-8.12-1.54a2.579 2.579 0 0 1-2.01-3.04 2.579 2.579 0 0 1 3.04-2.01c2.67.54 5.35 1.05 7.98 1.51 1.4.24 2.34 1.58 2.09 2.98a2.57 2.57 0 0 1-2.53 2.14zm105.9-1.58c-1.2 0-2.27-.84-2.52-2.05-.29-1.39.61-2.75 2-3.04 2.64-.54 5.3-1.13 7.93-1.75 1.38-.33 2.77.53 3.1 1.91.33 1.38-.53 2.77-1.91 3.1-2.67.63-5.39 1.23-8.08 1.79-.17.02-.35.04-.52.04zm-121.96-1.71c-.2 0-.39-.02-.59-.07-2.67-.63-5.36-1.3-8.02-2.01a2.575 2.575 0 0 1-1.82-3.15 2.575 2.575 0 0 1 3.15-1.82c2.61.7 5.26 1.36 7.88 1.98 1.38.33 2.24 1.71 1.92 3.09a2.602 2.602 0 0 1-2.52 1.98zm137.91-2.06c-1.14 0-2.18-.76-2.48-1.91-.37-1.37.45-2.78 1.82-3.15 2.61-.7 5.24-1.44 7.81-2.21 1.36-.41 2.8.36 3.2 1.73.41 1.36-.37 2.8-1.73 3.2-2.62.79-5.3 1.54-7.96 2.26-.22.05-.44.08-.66.08zm-153.74-2.16c-.24 0-.49-.04-.74-.11-2.64-.79-5.29-1.62-7.89-2.48a2.567 2.567 0 0 1-1.63-3.25 2.58 2.58 0 0 1 3.25-1.64c2.55.84 5.16 1.66 7.75 2.44 1.36.41 2.14 1.84 1.73 3.2a2.592 2.592 0 0 1-2.47 1.84zm169.44-2.54c-1.08 0-2.08-.68-2.44-1.76-.45-1.35.28-2.81 1.63-3.25 2.56-.85 5.14-1.75 7.67-2.67 1.34-.49 2.81.2 3.3 1.54.49 1.33-.2 2.81-1.54 3.3-2.57.94-5.2 1.85-7.81 2.72-.27.08-.54.12-.81.12zm-185.03-2.61c-.29 0-.59-.05-.88-.16-2.58-.94-5.19-1.93-7.75-2.95a2.566 2.566 0 0 1-1.44-3.34 2.574 2.574 0 0 1 3.34-1.44c2.52 1 5.08 1.97 7.61 2.89a2.577 2.577 0 0 1-.88 5zm200.43-3.01c-1.02 0-1.99-.62-2.39-1.62-.52-1.32.12-2.82 1.44-3.34 2.47-.98 4.98-2.03 7.47-3.1 1.31-.56 2.82.04 3.38 1.34s-.04 2.82-1.34 3.38c-2.54 1.1-5.1 2.16-7.62 3.16-.3.13-.62.18-.94.18zm-215.71-3.06c-.34 0-.69-.07-1.02-.21-2.52-1.09-5.06-2.23-7.56-3.39a2.57 2.57 0 0 1-1.24-3.42 2.57 2.57 0 0 1 3.42-1.24c2.45 1.14 4.95 2.27 7.43 3.33 1.3.56 1.91 2.08 1.34 3.38-.42.97-1.37 1.55-2.37 1.55zm230.71-3.42c-.97 0-1.9-.55-2.33-1.48a2.57 2.57 0 0 1 1.24-3.42c2.44-1.14 4.89-2.33 7.29-3.54a2.577 2.577 0 0 1 2.32 4.6c-2.44 1.23-4.93 2.44-7.42 3.6-.36.17-.73.24-1.1.24zm-245.6-3.53c-.39 0-.78-.09-1.15-.28a270 270 0 0 1-7.35-3.83 2.574 2.574 0 0 1-1.04-3.49 2.574 2.574 0 0 1 3.49-1.04c2.38 1.28 4.81 2.55 7.22 3.76 1.27.64 1.78 2.19 1.14 3.46-.46.9-1.36 1.42-2.31 1.42zm260.2-3.81a2.574 2.574 0 0 1-1.23-4.84c2.36-1.28 4.74-2.61 7.07-3.96a2.58 2.58 0 0 1 3.52.94c.71 1.23.29 2.8-.94 3.52-2.37 1.37-4.8 2.73-7.2 4.03-.38.21-.8.31-1.22.31zm-274.64-3.99c-.44 0-.88-.11-1.29-.35a317.57 317.57 0 0 1-7.11-4.25 2.578 2.578 0 0 1-.84-3.54 2.578 2.578 0 0 1 3.54-.84c2.3 1.42 4.65 2.82 6.98 4.17a2.58 2.58 0 0 1 .94 3.52 2.54 2.54 0 0 1-2.22 1.29zm288.8-4.21a2.57 2.57 0 0 1-1.35-4.76c2.28-1.41 4.58-2.88 6.83-4.36 1.19-.78 2.78-.45 3.56.73.78 1.19.45 2.78-.73 3.56-2.29 1.51-4.63 3-6.96 4.44-.42.27-.89.39-1.35.39zm-302.76-4.42c-.49 0-.98-.14-1.41-.42-2.3-1.51-4.6-3.08-6.85-4.66a2.578 2.578 0 0 1-.63-3.58c.82-1.16 2.42-1.45 3.58-.63 2.21 1.55 4.47 3.09 6.72 4.57 1.19.78 1.51 2.38.73 3.56-.49.76-1.31 1.16-2.14 1.16zm316.43-4.58c-.81 0-1.61-.38-2.11-1.1-.82-1.16-.53-2.77.63-3.58 2.19-1.53 4.4-3.13 6.57-4.75a2.572 2.572 0 1 1 3.07 4.13c-2.21 1.65-4.46 3.28-6.69 4.84-.45.31-.96.46-1.47.46zm-329.86-4.84c-.53 0-1.07-.17-1.54-.51-2.21-1.65-4.42-3.34-6.56-5.04-1.11-.88-1.3-2.5-.42-3.61.88-1.11 2.5-1.3 3.62-.42 2.11 1.67 4.28 3.34 6.44 4.95a2.58 2.58 0 0 1 .53 3.6 2.58 2.58 0 0 1-2.07 1.03zm342.99-4.94c-.76 0-1.51-.33-2.02-.98-.88-1.11-.69-2.73.42-3.61 2.1-1.66 4.22-3.39 6.29-5.13 1.09-.91 2.71-.77 3.63.32.91 1.09.77 2.71-.32 3.63-2.11 1.77-4.26 3.53-6.41 5.22-.47.37-1.03.55-1.59.55zm-355.85-5.24c-.58 0-1.17-.2-1.65-.6-2.09-1.76-4.2-3.58-6.26-5.41a2.566 2.566 0 0 1-.21-3.63 2.575 2.575 0 0 1 3.63-.21c2.02 1.8 4.09 3.59 6.15 5.31a2.57 2.57 0 0 1-1.66 4.54zm368.39-5.29c-.71 0-1.41-.29-1.92-.86-.94-1.06-.85-2.69.21-3.63 2.03-1.81 4.04-3.65 5.98-5.48 1.03-.98 2.66-.93 3.64.11s.93 2.66-.11 3.64c-1.98 1.87-4.03 3.75-6.1 5.58-.48.42-1.09.64-1.7.64zm-380.63-5.61c-.63 0-1.27-.23-1.77-.7a292.54 292.54 0 0 1-5.93-5.76 2.565 2.565 0 0 1 0-3.64c1-1.01 2.63-1 3.64 0 1.91 1.91 3.87 3.81 5.83 5.66 1.03.98 1.08 2.6.11 3.64-.52.53-1.2.8-1.88.8zm392.55-5.63c-.66 0-1.32-.25-1.82-.75-1-1.01-1-2.63 0-3.64 1.91-1.91 3.82-3.87 5.66-5.82a2.575 2.575 0 0 1 3.74 3.54c-1.88 1.99-3.82 3.98-5.76 5.93-.5.49-1.16.74-1.82.74zm-404.14-5.96c-.68 0-1.37-.27-1.87-.81-1.88-1.99-3.76-4.04-5.59-6.09-.95-1.06-.85-2.69.21-3.63 1.06-.95 2.69-.85 3.63.21 1.8 2.02 3.64 4.03 5.49 5.98.98 1.03.93 2.66-.11 3.64-.49.47-1.13.7-1.76.7zm415.39-5.96c-.61 0-1.22-.22-1.71-.65a2.575 2.575 0 0 1-.21-3.63c1.8-2.02 3.59-4.09 5.32-6.14a2.572 2.572 0 0 1 3.63-.31 2.57 2.57 0 0 1 .31 3.63c-1.76 2.09-3.58 4.2-5.41 6.26-.51.55-1.22.84-1.93.84zm-426.29-6.27c-.73 0-1.46-.31-1.97-.92-1.76-2.09-3.52-4.25-5.22-6.4-.88-1.11-.7-2.73.42-3.62 1.11-.88 2.73-.7 3.61.42 1.68 2.12 3.4 4.23 5.13 6.29.91 1.09.77 2.71-.32 3.63-.47.4-1.06.6-1.65.6zm436.84-6.28a2.573 2.573 0 0 1-2.02-4.17c1.67-2.11 3.34-4.28 4.95-6.44a2.561 2.561 0 0 1 3.6-.52 2.57 2.57 0 0 1 .52 3.6c-1.64 2.2-3.34 4.41-5.05 6.56-.48.64-1.24.97-2 .97zm-447-6.56c-.78 0-1.56-.36-2.06-1.03-1.64-2.2-3.27-4.45-4.84-6.69-.82-1.16-.54-2.77.63-3.58 1.16-.82 2.77-.54 3.58.63 1.55 2.2 3.15 4.41 4.76 6.57a2.57 2.57 0 0 1-.52 3.6c-.48.34-1.02.5-1.55.5zm456.81-6.58a2.578 2.578 0 0 1-2.11-4.05c1.55-2.21 3.09-4.47 4.57-6.72a2.567 2.567 0 0 1 3.56-.73c1.19.78 1.51 2.38.73 3.56-1.51 2.29-3.08 4.59-4.66 6.85-.48.71-1.28 1.09-2.09 1.09zm-466.21-6.81c-.84 0-1.66-.41-2.15-1.16-1.51-2.29-3-4.63-4.45-6.96-.75-1.21-.37-2.8.84-3.54 1.21-.75 2.79-.37 3.54.83 1.41 2.29 2.88 4.59 4.36 6.83.78 1.19.45 2.78-.73 3.56-.44.3-.93.44-1.41.44zm475.25-6.89c-.46 0-.93-.12-1.35-.39a2.566 2.566 0 0 1-.83-3.54 279.8 279.8 0 0 0 4.18-6.98 2.58 2.58 0 0 1 3.52-.94 2.58 2.58 0 0 1 .94 3.52c-1.38 2.39-2.82 4.78-4.25 7.11-.51.79-1.35 1.22-2.21 1.22zm-483.86-7.03c-.89 0-1.75-.46-2.23-1.28a295.59 295.59 0 0 1-4.03-7.2 2.574 2.574 0 0 1 1.04-3.49c1.25-.68 2.81-.21 3.49 1.04 1.28 2.37 2.62 4.75 3.96 7.07.71 1.23.29 2.8-.94 3.52-.41.23-.85.34-1.29.34zm492.09-7.18a2.574 2.574 0 0 1-2.26-3.8c1.29-2.38 2.55-4.81 3.76-7.21a2.577 2.577 0 0 1 4.6 2.32c-1.23 2.45-2.52 4.92-3.83 7.35-.47.86-1.36 1.34-2.27 1.34zm-499.87-7.2c-.94 0-1.85-.52-2.3-1.42-1.23-2.45-2.45-4.94-3.6-7.42a2.57 2.57 0 0 1 1.24-3.42 2.57 2.57 0 0 1 3.42 1.24c1.14 2.43 2.33 4.88 3.54 7.28.64 1.27.13 2.82-1.14 3.46-.38.19-.77.28-1.16.28zm507.25-7.46c-.36 0-.73-.08-1.09-.24a2.57 2.57 0 0 1-1.24-3.42c1.14-2.44 2.26-4.94 3.34-7.42.56-1.3 2.08-1.91 3.38-1.34 1.3.56 1.91 2.08 1.34 3.38a271.56 271.56 0 0 1-3.4 7.56c-.43.93-1.36 1.48-2.33 1.48zm-514.18-7.34c-1 0-1.94-.58-2.36-1.55-1.08-2.49-2.14-5.05-3.16-7.61-.53-1.32.12-2.82 1.44-3.34 1.32-.53 2.82.12 3.34 1.44 1 2.51 2.05 5.03 3.11 7.47.56 1.3-.04 2.82-1.34 3.38-.34.14-.69.21-1.03.21zm520.7-7.75a2.566 2.566 0 0 1-2.39-3.52c1-2.51 1.97-5.07 2.9-7.61a2.59 2.59 0 0 1 3.3-1.54c1.33.49 2.02 1.96 1.54 3.3-.94 2.59-1.93 5.2-2.95 7.75a2.592 2.592 0 0 1-2.4 1.62zm-526.76-7.45a2.58 2.58 0 0 1-2.42-1.69c-.94-2.57-1.85-5.2-2.72-7.81-.45-1.35.28-2.81 1.63-3.25 1.35-.45 2.8.28 3.25 1.63.85 2.56 1.75 5.14 2.67 7.67.49 1.33-.2 2.81-1.53 3.3-.28.1-.58.15-.88.15zm532.38-7.99a2.567 2.567 0 0 1-2.44-3.38c.85-2.57 1.67-5.17 2.44-7.75a2.572 2.572 0 0 1 4.93 1.47c-.78 2.62-1.62 5.27-2.48 7.89a2.59 2.59 0 0 1-2.45 1.77zm-537.54-7.57c-1.11 0-2.13-.72-2.46-1.84-.79-2.62-1.55-5.3-2.26-7.96-.37-1.37.45-2.78 1.82-3.15 1.37-.36 2.78.45 3.15 1.82.7 2.61 1.45 5.24 2.22 7.81a2.56 2.56 0 0 1-1.73 3.2c-.25.09-.5.12-.74.12zm542.24-8.14a2.575 2.575 0 0 1-2.49-3.24c.69-2.59 1.36-5.24 1.98-7.87a2.574 2.574 0 1 1 5.01 1.19c-.63 2.68-1.31 5.38-2.02 8.02a2.58 2.58 0 0 1-2.48 1.9zm-546.49-7.69c-1.17 0-2.22-.8-2.5-1.98-.63-2.66-1.23-5.38-1.79-8.07-.29-1.39.61-2.75 2-3.04 1.4-.29 2.75.61 3.04 2 .55 2.65 1.14 5.31 1.76 7.93.33 1.38-.53 2.77-1.91 3.1-.2.04-.4.06-.6.06zm550.25-8.26c-.17 0-.34-.02-.52-.05a2.565 2.565 0 0 1-2-3.04c.54-2.66 1.05-5.34 1.52-7.98.25-1.4 1.58-2.34 2.98-2.09s2.34 1.58 2.09 2.98c-.47 2.69-.99 5.42-1.54 8.12a2.593 2.593 0 0 1-2.53 2.06zm-553.56-7.79a2.57 2.57 0 0 1-2.53-2.13c-.48-2.71-.92-5.46-1.31-8.16a2.574 2.574 0 0 1 5.09-.75c.39 2.66.82 5.35 1.29 8.02a2.573 2.573 0 0 1-2.54 3.02zm556.39-8.35c-.12 0-.25-.01-.37-.03a2.575 2.575 0 0 1-2.18-2.92c.38-2.65.74-5.36 1.05-8.05a2.574 2.574 0 0 1 2.85-2.26c1.41.16 2.42 1.44 2.26 2.85-.32 2.74-.68 5.5-1.07 8.2a2.57 2.57 0 0 1-2.54 2.21zm-558.76-7.87c-1.29 0-2.4-.96-2.55-2.28-.32-2.72-.6-5.48-.84-8.23-.12-1.42.92-2.66 2.34-2.79 1.41-.12 2.66.92 2.79 2.34.23 2.69.51 5.41.82 8.08.16 1.41-.85 2.69-2.26 2.85-.1.03-.2.03-.3.03zm560.64-8.41c-.07 0-.15 0-.22-.01a2.56 2.56 0 0 1-2.34-2.78c.23-2.7.43-5.43.58-8.1.08-1.42 1.29-2.5 2.72-2.42 1.42.08 2.5 1.3 2.42 2.72-.16 2.72-.35 5.5-.59 8.25a2.592 2.592 0 0 1-2.57 2.34zm-562.07-7.91c-1.35 0-2.49-1.06-2.57-2.42-.16-2.73-.28-5.5-.36-8.26a2.579 2.579 0 0 1 2.5-2.65c1.42-.01 2.61 1.08 2.65 2.5.08 2.71.2 5.44.36 8.12.08 1.42-1 2.64-2.42 2.72-.05-.01-.11-.01-.16-.01zm563.01-8.45h-.07a2.573 2.573 0 0 1-2.5-2.65c.08-2.7.12-5.43.12-8.12v-.53a2.57 2.57 0 1 1 5.14 0v.53c0 2.74-.04 5.52-.12 8.27a2.581 2.581 0 0 1-2.57 2.5zM96.6 472.16a2.57 2.57 0 0 1-2.57-2.57v-.26c0-2.66.04-5.35.11-8a2.57 2.57 0 1 1 5.14.14c-.07 2.6-.11 5.25-.11 7.86v.26c.01 1.42-1.15 2.57-2.57 2.57zm563.47-8.98c-1.39 0-2.53-1.1-2.57-2.5-.08-2.68-.2-5.41-.36-8.11-.08-1.42 1-2.64 2.42-2.72 1.44-.08 2.64 1 2.72 2.42.16 2.75.29 5.53.37 8.26a2.57 2.57 0 0 1-2.49 2.65h-.09zm-563.01-7.4h-.15a2.57 2.57 0 0 1-2.42-2.71c.15-2.74.35-5.51.59-8.25a2.564 2.564 0 0 1 2.78-2.35 2.56 2.56 0 0 1 2.34 2.78c-.23 2.69-.42 5.41-.57 8.1a2.583 2.583 0 0 1-2.57 2.43zm562.04-8.96c-1.32 0-2.44-1.01-2.56-2.35-.24-2.69-.52-5.41-.83-8.08-.16-1.41.84-2.69 2.26-2.86a2.57 2.57 0 0 1 2.86 2.26c.32 2.72.6 5.48.85 8.23a2.57 2.57 0 0 1-2.34 2.79c-.09.01-.17.01-.24.01zm-560.64-7.37c-.1 0-.2-.01-.3-.02a2.567 2.567 0 0 1-2.26-2.85c.31-2.72.67-5.48 1.06-8.2a2.571 2.571 0 0 1 5.09.73c-.38 2.67-.74 5.38-1.04 8.05a2.571 2.571 0 0 1-2.55 2.29zm558.73-8.91c-1.26 0-2.36-.92-2.54-2.2-.39-2.66-.83-5.36-1.3-8.01a2.568 2.568 0 1 1 5.06-.89c.48 2.71.92 5.45 1.32 8.16.21 1.41-.77 2.71-2.17 2.92-.12.01-.25.02-.37.02zm-556.4-7.31c-.15 0-.3-.01-.44-.04a2.568 2.568 0 0 1-2.09-2.98c.47-2.7.99-5.43 1.54-8.13a2.584 2.584 0 0 1 3.04-2.01c1.39.28 2.29 1.64 2.01 3.04-.54 2.64-1.05 5.33-1.51 7.98a2.599 2.599 0 0 1-2.55 2.14zm553.54-8.82c-1.19 0-2.27-.84-2.52-2.05-.54-2.62-1.14-5.29-1.76-7.93a2.57 2.57 0 0 1 1.91-3.1c1.38-.33 2.77.53 3.1 1.91.64 2.68 1.24 5.4 1.8 8.07.29 1.39-.61 2.75-2 3.04-.18.04-.36.06-.53.06zm-550.26-7.23a2.582 2.582 0 0 1-2.51-3.16c.63-2.68 1.31-5.38 2.01-8.02a2.575 2.575 0 0 1 3.15-1.82c1.37.37 2.19 1.78 1.82 3.15-.69 2.6-1.36 5.25-1.97 7.88-.27 1.17-1.33 1.97-2.5 1.97zm546.47-8.72c-1.13 0-2.17-.76-2.48-1.91-.7-2.6-1.45-5.23-2.22-7.81-.41-1.36.36-2.8 1.72-3.21 1.36-.41 2.8.36 3.21 1.72.79 2.63 1.55 5.31 2.27 7.95.37 1.37-.44 2.78-1.82 3.15-.24.08-.46.11-.68.11zm-542.25-7.12c-.24 0-.49-.03-.74-.11a2.572 2.572 0 0 1-1.73-3.2c.78-2.63 1.62-5.29 2.48-7.89a2.58 2.58 0 0 1 3.25-1.64 2.58 2.58 0 0 1 1.64 3.25c-.84 2.56-1.66 5.16-2.43 7.75a2.583 2.583 0 0 1-2.47 1.84zm537.52-8.57c-1.08 0-2.08-.68-2.44-1.76-.85-2.55-1.75-5.13-2.68-7.67-.49-1.33.2-2.81 1.53-3.3 1.33-.49 2.81.2 3.3 1.53.94 2.58 1.86 5.21 2.73 7.81.45 1.35-.28 2.81-1.63 3.25-.26.1-.54.14-.81.14zm-532.38-7.02c-.29 0-.59-.05-.88-.15a2.565 2.565 0 0 1-1.54-3.3c.94-2.58 1.93-5.19 2.94-7.75a2.566 2.566 0 0 1 3.34-1.44c1.32.52 1.97 2.02 1.44 3.34-1 2.52-1.97 5.08-2.89 7.61a2.558 2.558 0 0 1-2.41 1.69zm526.75-8.37c-1.02 0-1.99-.61-2.39-1.62-.99-2.49-2.04-5-3.11-7.47a2.56 2.56 0 0 1 1.34-3.38c1.3-.57 2.82.03 3.38 1.34 1.09 2.52 2.16 5.08 3.17 7.61a2.566 2.566 0 0 1-2.39 3.52zm-520.69-6.91c-.34 0-.69-.07-1.02-.21a2.56 2.56 0 0 1-1.34-3.38c1.09-2.52 2.23-5.07 3.39-7.57.6-1.29 2.13-1.84 3.42-1.25 1.29.6 1.85 2.13 1.25 3.42-1.14 2.45-2.26 4.95-3.33 7.43-.42.98-1.37 1.56-2.37 1.56zm514.19-8.08c-.97 0-1.89-.55-2.33-1.48-1.14-2.42-2.33-4.87-3.54-7.28a2.577 2.577 0 0 1 4.6-2.32c1.24 2.45 2.45 4.95 3.61 7.42.6 1.29.05 2.82-1.24 3.42-.36.16-.73.24-1.1.24zm-507.25-6.81c-.39 0-.78-.09-1.15-.27a2.565 2.565 0 0 1-1.14-3.45c1.24-2.46 2.52-4.93 3.83-7.35a2.571 2.571 0 0 1 3.49-1.04c1.25.67 1.72 2.24 1.04 3.49-1.28 2.37-2.55 4.8-3.76 7.22-.46.88-1.37 1.4-2.31 1.4zm499.88-7.78c-.91 0-1.8-.49-2.26-1.35-1.28-2.37-2.62-4.75-3.97-7.07-.71-1.23-.3-2.8.93-3.52 1.23-.71 2.8-.3 3.52.93 1.37 2.36 2.73 4.79 4.04 7.2.68 1.25.21 2.81-1.04 3.49-.38.22-.81.32-1.22.32zm-492.08-6.67c-.44 0-.88-.11-1.28-.35a2.577 2.577 0 0 1-.94-3.52c1.37-2.38 2.8-4.77 4.25-7.11a2.578 2.578 0 0 1 3.54-.84c1.21.75 1.58 2.33.84 3.54-1.42 2.3-2.82 4.65-4.17 6.98-.49.84-1.36 1.3-2.24 1.3zm483.87-7.48c-.86 0-1.7-.43-2.19-1.22-1.41-2.28-2.88-4.58-4.37-6.83-.78-1.19-.46-2.78.73-3.57a2.58 2.58 0 0 1 3.57.73c1.51 2.29 3.01 4.63 4.45 6.96.75 1.21.38 2.79-.83 3.54-.43.27-.9.39-1.36.39zm-475.25-6.48c-.49 0-.98-.14-1.41-.42a2.558 2.558 0 0 1-.73-3.56c1.51-2.29 3.08-4.6 4.65-6.85.82-1.16 2.42-1.45 3.58-.63 1.16.82 1.45 2.42.63 3.58-1.55 2.21-3.08 4.47-4.57 6.73-.5.74-1.32 1.15-2.15 1.15zM609.08 310c-.81 0-1.61-.38-2.11-1.09-1.54-2.19-3.14-4.4-4.76-6.57a2.57 2.57 0 0 1 .52-3.6 2.57 2.57 0 0 1 3.6.52c1.65 2.21 3.28 4.46 4.85 6.69.82 1.16.54 2.77-.63 3.59-.44.3-.96.46-1.47.46zm-456.82-6.27c-.53 0-1.07-.17-1.54-.51a2.572 2.572 0 0 1-.53-3.6c1.64-2.2 3.33-4.41 5.04-6.56.88-1.11 2.5-1.3 3.61-.42 1.11.88 1.3 2.5.42 3.61a275.85 275.85 0 0 0-4.95 6.45 2.53 2.53 0 0 1-2.05 1.03zm447.02-6.85c-.76 0-1.51-.33-2.02-.97-1.66-2.1-3.39-4.21-5.13-6.28a2.59 2.59 0 0 1 .31-3.63 2.58 2.58 0 0 1 3.63.31c1.77 2.11 3.53 4.26 5.23 6.4.88 1.11.7 2.73-.42 3.62-.48.37-1.04.55-1.6.55zm-436.85-6.01c-.58 0-1.17-.2-1.65-.6a2.58 2.58 0 0 1-.32-3.63c1.76-2.1 3.58-4.21 5.41-6.26a2.566 2.566 0 0 1 3.63-.21c1.06.94 1.16 2.57.21 3.63-1.8 2.02-3.58 4.09-5.31 6.15-.5.61-1.23.92-1.97.92zm426.3-6.52c-.71 0-1.41-.29-1.92-.86-1.8-2.01-3.64-4.02-5.49-5.98a2.575 2.575 0 0 1 3.74-3.54c1.88 1.99 3.76 4.04 5.59 6.09.95 1.06.85 2.69-.21 3.63-.49.45-1.1.66-1.71.66zm-415.4-5.73c-.63 0-1.27-.23-1.76-.7a2.584 2.584 0 0 1-.11-3.64c1.89-2 3.82-4 5.76-5.93a2.565 2.565 0 0 1 3.64 0c1.01 1 1.01 2.63 0 3.64-1.9 1.9-3.81 3.86-5.66 5.83-.5.53-1.18.8-1.87.8zm404.14-6.17c-.66 0-1.32-.25-1.82-.75-1.91-1.9-3.87-3.81-5.83-5.65-1.04-.97-1.08-2.6-.11-3.64.97-1.03 2.6-1.08 3.64-.11 2 1.88 3.99 3.82 5.94 5.76 1.01 1 1.01 2.63 0 3.64-.5.49-1.16.75-1.82.75zm-392.55-5.42c-.68 0-1.37-.27-1.87-.81-.98-1.03-.93-2.66.1-3.64 1.99-1.88 4.04-3.76 6.09-5.59 1.06-.95 2.69-.85 3.63.21.95 1.06.85 2.69-.21 3.63-2.01 1.79-4.02 3.64-5.98 5.49-.5.47-1.13.71-1.76.71zm380.62-5.82c-.61 0-1.22-.21-1.71-.65-2.02-1.8-4.09-3.58-6.15-5.31a2.58 2.58 0 0 1-.32-3.63 2.58 2.58 0 0 1 3.63-.32c2.1 1.76 4.2 3.58 6.26 5.41 1.06.94 1.16 2.57.21 3.63-.5.57-1.21.87-1.92.87zm-368.4-5.09c-.73 0-1.46-.31-1.97-.92a2.59 2.59 0 0 1 .31-3.63c2.1-1.77 4.25-3.52 6.4-5.23 1.11-.88 2.73-.7 3.61.42.88 1.11.7 2.73-.42 3.61-2.11 1.67-4.22 3.4-6.29 5.13-.46.43-1.05.62-1.64.62zm355.83-5.45c-.56 0-1.12-.18-1.59-.55a275.85 275.85 0 0 0-6.45-4.95 2.572 2.572 0 1 1 3.07-4.13c2.2 1.63 4.41 3.33 6.57 5.04 1.11.88 1.3 2.5.42 3.61-.5.65-1.25.98-2.02.98zm-342.99-4.72a2.57 2.57 0 0 1-1.54-4.63c2.2-1.64 4.45-3.27 6.69-4.85 1.16-.82 2.77-.54 3.58.63.82 1.16.54 2.77-.63 3.58-2.2 1.55-4.41 3.15-6.57 4.76-.46.35-1 .51-1.53.51zm329.84-5.07c-.51 0-1.02-.15-1.47-.47a283.46 283.46 0 0 0-6.73-4.56 2.57 2.57 0 0 1-.74-3.56 2.57 2.57 0 0 1 3.56-.74c2.3 1.51 4.61 3.08 6.85 4.65 1.16.82 1.45 2.42.63 3.58a2.53 2.53 0 0 1-2.1 1.1zm-316.45-4.34c-.84 0-1.66-.41-2.15-1.16-.78-1.19-.46-2.78.73-3.56 2.29-1.51 4.63-3.01 6.96-4.45 1.21-.75 2.79-.37 3.54.83.75 1.21.37 2.79-.83 3.54-2.29 1.42-4.58 2.88-6.83 4.37-.44.3-.93.43-1.42.43zm302.73-4.67c-.46 0-.93-.12-1.35-.38-2.29-1.41-4.64-2.81-6.98-4.17a2.577 2.577 0 0 1 2.58-4.46c2.39 1.38 4.78 2.81 7.11 4.25a2.57 2.57 0 0 1 .84 3.54c-.49.78-1.33 1.22-2.2 1.22zm-288.82-3.94c-.89 0-1.75-.46-2.23-1.28-.71-1.23-.29-2.8.94-3.52 2.36-1.37 4.79-2.73 7.2-4.03 1.25-.68 2.81-.21 3.49 1.04.68 1.25.21 2.81-1.04 3.49-2.37 1.28-4.75 2.62-7.07 3.96-.41.23-.85.34-1.29.34zm274.61-4.27c-.41 0-.83-.1-1.22-.31a260.13 260.13 0 0 0-7.22-3.75 2.578 2.578 0 0 1-1.15-3.45 2.578 2.578 0 0 1 3.45-1.15c2.45 1.23 4.93 2.52 7.35 3.82 1.25.67 1.72 2.23 1.04 3.49-.45.86-1.34 1.35-2.25 1.35zm-260.23-3.52c-.94 0-1.85-.52-2.3-1.41a2.577 2.577 0 0 1 1.14-3.46c2.44-1.23 4.93-2.44 7.42-3.61a2.57 2.57 0 0 1 3.42 1.24c.6 1.29.05 2.82-1.24 3.42-2.44 1.14-4.89 2.34-7.28 3.54-.37.2-.77.28-1.16.28zm245.55-3.84c-.36 0-.73-.08-1.08-.24-2.46-1.14-4.95-2.26-7.43-3.33a2.573 2.573 0 1 1 2.03-4.73c2.52 1.09 5.07 2.22 7.57 3.39a2.574 2.574 0 0 1-1.09 4.91zm-230.75-3.09c-.99 0-1.94-.58-2.36-1.55-.56-1.3.03-2.82 1.34-3.38 2.51-1.09 5.07-2.15 7.61-3.17 1.32-.53 2.82.12 3.34 1.44.53 1.32-.12 2.82-1.44 3.34-2.49 1-5.01 2.04-7.47 3.11-.33.14-.68.21-1.02.21zm215.66-3.41c-.32 0-.64-.06-.95-.18-2.51-1-5.07-1.97-7.61-2.89a2.565 2.565 0 0 1-1.54-3.3 2.565 2.565 0 0 1 3.3-1.54c2.59.94 5.2 1.93 7.76 2.94 1.32.52 1.97 2.02 1.44 3.34a2.602 2.602 0 0 1-2.4 1.63zm-200.46-2.65a2.58 2.58 0 0 1-2.42-1.69c-.49-1.33.2-2.81 1.53-3.3 2.59-.94 5.21-1.86 7.81-2.72 1.35-.45 2.81.28 3.25 1.63.45 1.35-.28 2.81-1.63 3.25-2.55.85-5.13 1.75-7.67 2.68-.28.1-.58.15-.87.15zm185-2.95c-.27 0-.54-.04-.81-.13-2.56-.84-5.17-1.66-7.75-2.43a2.572 2.572 0 0 1 1.47-4.93c2.63.78 5.28 1.61 7.89 2.47 1.35.44 2.08 1.9 1.64 3.25a2.569 2.569 0 0 1-2.44 1.77zm-169.45-2.22c-1.11 0-2.13-.72-2.46-1.83-.41-1.36.36-2.8 1.72-3.2 2.63-.79 5.31-1.55 7.95-2.26 1.37-.36 2.78.44 3.15 1.82.37 1.37-.44 2.78-1.82 3.15-2.6.7-5.23 1.45-7.81 2.22-.24.06-.49.1-.73.1zm153.74-2.45c-.22 0-.44-.03-.66-.09-2.6-.69-5.25-1.35-7.88-1.97a2.578 2.578 0 0 1-1.92-3.09 2.582 2.582 0 0 1 3.09-1.92c2.67.63 5.37 1.3 8.02 2.01a2.58 2.58 0 0 1 1.83 3.15 2.561 2.561 0 0 1-2.48 1.91zm-137.92-1.81c-1.16 0-2.22-.8-2.5-1.98-.33-1.38.53-2.77 1.91-3.1 2.67-.63 5.38-1.24 8.07-1.79 1.4-.29 2.75.61 3.04 2 .29 1.39-.61 2.75-2 3.04-2.64.55-5.31 1.14-7.93 1.76-.19.05-.39.07-.59.07zM435 195.79c-.17 0-.34-.02-.52-.05-2.63-.54-5.31-1.04-7.98-1.51a2.577 2.577 0 1 1 .88-5.08c2.71.47 5.45.99 8.13 1.53 1.39.28 2.29 1.64 2.01 3.04a2.581 2.581 0 0 1-2.52 2.07zm-105.92-1.39a2.57 2.57 0 0 1-2.53-2.13c-.25-1.4.69-2.73 2.09-2.98 2.7-.48 5.45-.92 8.16-1.32a2.574 2.574 0 0 1 .75 5.09c-2.67.39-5.36.83-8.02 1.29-.15.04-.3.05-.45.05zm89.77-1.42c-.12 0-.25-.01-.37-.03-2.66-.38-5.37-.73-8.05-1.04a2.567 2.567 0 0 1-2.26-2.85 2.561 2.561 0 0 1 2.85-2.26c2.73.31 5.49.67 8.2 1.06 1.41.2 2.38 1.51 2.18 2.91a2.58 2.58 0 0 1-2.55 2.21zm-73.55-.95c-1.29 0-2.4-.96-2.55-2.27a2.56 2.56 0 0 1 2.26-2.85c2.73-.32 5.5-.6 8.23-.84a2.57 2.57 0 0 1 2.79 2.34c.12 1.42-.92 2.66-2.34 2.79-2.68.23-5.4.51-8.08.83-.11-.01-.21 0-.31 0zm57.27-.91c-.07 0-.15 0-.22-.01-2.68-.23-5.41-.42-8.1-.57a2.573 2.573 0 1 1 .28-5.14c2.74.15 5.52.35 8.25.58a2.575 2.575 0 0 1-.21 5.14zm-40.95-.53c-1.35 0-2.49-1.05-2.57-2.42-.08-1.42 1-2.64 2.42-2.72 2.74-.16 5.52-.28 8.26-.37 1.43-.02 2.61 1.08 2.65 2.5a2.579 2.579 0 0 1-2.5 2.65c-2.7.08-5.43.2-8.11.36h-.15zm24.58-.38h-.07c-2.56-.07-5.16-.1-7.73-.1h-.4a2.57 2.57 0 1 1 0-5.14h.39c2.63 0 5.28.04 7.88.11a2.57 2.57 0 0 1 2.5 2.64c-.03 1.38-1.18 2.49-2.57 2.49z"/><path d="M754.14 798.1H246.98c-37.49 0-67.87-30.39-67.87-67.87V276.41c0-37.49 30.39-67.87 67.87-67.87h507.15c37.48 0 67.87 30.39 67.87 67.87v453.82c.01 37.48-30.38 67.87-67.86 67.87z" style="fill:#bb93f9"/><path class="st5" d="M746.11 789.05h-491.1c-37.49 0-67.87-30.39-67.87-67.87v-445.8c0-37.49 30.39-67.87 67.87-67.87h491.11c37.48 0 67.87 30.39 67.87 67.87v445.79c-.01 37.49-30.39 67.88-67.88 67.88z"/><path class="st4" d="M813.98 388.77H187.13V277.22c0-38.5 31.21-69.71 69.71-69.71h487.44c38.5 0 69.71 31.21 69.71 69.71v111.55z"/><path class="st5" d="M658.89 322.69h-311c-12.66 0-22.93-10.27-22.93-22.93v-1.34c0-12.66 10.27-22.93 22.93-22.93h310.99c12.66 0 22.93 10.27 22.93 22.93v1.34c.01 12.66-10.26 22.93-22.92 22.93z"/><path class="st8" d="M302.84 238.06h-1.24c-11.65 0-21.1-9.44-21.1-21.1v-40.41c0-11.65 9.44-21.1 21.1-21.1h1.24c11.65 0 21.1 9.44 21.1 21.1v40.41c0 11.66-9.45 21.1-21.1 21.1zM435.23 238.06H434c-11.65 0-21.1-9.44-21.1-21.1v-40.41c0-11.65 9.44-21.1 21.1-21.1h1.24c11.65 0 21.1 9.44 21.1 21.1v40.41c-.01 11.66-9.46 21.1-21.11 21.1zM568.66 238.06h-1.24c-11.65 0-21.1-9.44-21.1-21.1v-40.41c0-11.65 9.44-21.1 21.1-21.1h1.24c11.65 0 21.1 9.44 21.1 21.1v40.41c-.01 11.66-9.45 21.1-21.1 21.1zM705.17 238.06h-1.24c-11.65 0-21.1-9.44-21.1-21.1v-40.41c0-11.65 9.44-21.1 21.1-21.1h1.24c11.65 0 21.1 9.44 21.1 21.1v40.41c-.01 11.66-9.45 21.1-21.1 21.1z"/><g><path style="fill:#e3d2f9" d="M257.26 416.71h489.7v326.45h-489.7z"/><path class="st5" d="M329.66 416.71h8.23v326.45h-8.23zM412.29 416.71h8.23v326.45h-8.23zM494.93 416.71h8.23v326.45h-8.23zM577.57 416.71h8.23v326.45h-8.23zM660.2 416.71h8.23v326.45h-8.23z"/><path class="st5" d="M259.33 692.12h482.45v8.23H259.33zM256.83 617.86h490.13v8.23H256.83zM256.83 543.59h490.13v8.23H256.83zM256.83 469.33h490.13v8.23H256.83z"/></g><path class="st6" d="M507.96 427.68c-84.08 0-152.25 68.17-152.25 152.25 0 84.09 68.17 152.25 152.25 152.25 84.09 0 152.25-68.16 152.25-152.25-.01-84.08-68.16-152.25-152.25-152.25zM400.61 579.93c0-19.28 5.08-37.36 13.98-53L560.96 673.3c-15.64 8.89-33.72 13.98-53 13.98-59.3 0-107.35-48.06-107.35-107.35zm200.1 54.06L453.9 487.17c15.88-9.27 34.34-14.59 54.06-14.59 59.29 0 107.35 48.06 107.35 107.35-.01 19.71-5.32 38.18-14.6 54.06z"/><ellipse cx="507.96" cy="846.63" rx="382.35" ry="38.23" style="opacity:.74;fill:#d8d8d8"/><path id="Path_4110_2_" d="M264.89 773.74c0-8.53-6.91-15.44-15.44-15.44-.43-.01-.86.01-1.29.06a53.296 53.296 0 0 0-4.52-8.08c6.29-5.76 6.72-15.52.97-21.81s-15.52-6.72-21.81-.97a15.317 15.317 0 0 0-2.87 3.54 52.472 52.472 0 0 0-14.99-3.71v-1.01c.01-8.53-6.89-15.45-15.41-15.46-8.53-.01-15.45 6.89-15.46 15.41 0 2.3.51 4.58 1.5 6.66a52.779 52.779 0 0 0-11.46 7.98c-5.91-6.14-15.68-6.33-21.82-.42-6.14 5.91-6.33 15.68-.42 21.82 1.86 1.93 4.19 3.35 6.77 4.11-.99 3.72-1.57 7.53-1.73 11.37-8.48.93-14.59 8.55-13.66 17.03.93 8.48 8.55 14.59 17.03 13.66 1.45-.16 2.86-.52 4.2-1.07 1.09 1.81 2.3 3.55 3.6 5.22-6.3 5.74-6.76 15.51-1.01 21.81 5.74 6.3 15.51 6.76 21.81 1.01 1.62-1.48 2.91-3.28 3.78-5.3a52.29 52.29 0 0 0 12.42 2.64c1.73 8.35 9.91 13.71 18.25 11.98 8.35-1.73 13.71-9.91 11.98-18.25a52.49 52.49 0 0 0 8.22-5.56c6.82 5.12 16.5 3.73 21.62-3.09 5.12-6.82 3.73-16.5-3.09-21.62-.47-.35-.96-.68-1.46-.97.62-2.07 1.11-4.18 1.46-6.32 7.4-1.25 12.83-7.69 12.83-15.22zm-65.08 32.04c-14.2 0-25.72-11.51-25.72-25.72 0-14.2 11.51-25.72 25.72-25.72 14.2 0 25.72 11.51 25.72 25.72 0 14.21-11.51 25.72-25.72 25.72z" style="fill:#ededed"/></g></switch></svg>