<svg version="1.1" id="Layer_1" xmlns="http://www.w3.org/2000/svg" x="0" y="0" viewBox="0 0 1000 840.2" style="enable-background:new 0 0 1000 840.2" xml:space="preserve"><style>.st0{fill:#e2d1fa}.st3{fill:#996bc1}.st4,.st5{opacity:.46;fill:#c8ddf2}.st5{fill:#fff}.st6{fill:#c8ddf2}.st8{fill:#939393}.st9{fill:#fdfeff}.st10{fill:#f3f8f4}.st13{fill:#f9d3ca}.st21{fill:#fdd0cb}.st23{fill:#1e1e1e}.st28{opacity:.19;fill:#fff}.st30{fill:#2788b5}.st31{fill:#4c5da5}</style><path class="st0" d="m126.4 631-48.3-69.3S-30.4 408.9 41.9 261 389.8 20.1 579 134s142.7 236.8 238.8 270.5 114 111.9 103.1 176.8-75.3 173.4-130.1 203.8c-46.8 26-287.6 84-480.3-10.3-78.8-38.4-134.4-84.4-184.1-143.8z"/><path d="m161.3 571.2-29.4-42.8c-3-4.3-6-8.6-9.1-12.8-17-23.4-104.7-154.5-39.2-288.4 72.3-147.8 347.9-241 537.1-127S763.4 337 859.5 370.7s114 111.9 103.1 176.8c-10.9 65-75.3 173.4-130.1 203.8-40.1 22.2-212.4 56-386.2 15.5-116.1-27-217.4-97.4-285-195.6z" style="fill:#d2b3fb"/><g style="opacity:.67"><path class="st3" d="m638.6 55.6-2.7-.9 1-3.3c1.8.6 2.8.9 2.8.9l-1.1 3.3zM567.2 673.2v-3.5h5.7v3.5h-5.7zm-5.8 0c-1.9 0-3.9 0-5.8-.1l.1-3.5c1.9 0 3.8 0 5.7.1v3.5zm17.4-.1-.1-3.5c1.9 0 3.8-.1 5.7-.1l.1 3.5c-1.9 0-3.8 0-5.7.1zm-28.9-.1c-1.9 0-3.9-.1-5.8-.2l.1-3.5c1.9.1 3.8.1 5.7.2v3.5zm40.4-.3-.1-3.5c1.9-.1 3.8-.2 5.7-.2l.2 3.5c-1.9.1-3.9.2-5.8.2zm-51.9-.1c-1.9-.1-3.9-.2-5.8-.3l.2-3.5 5.7.3-.1 3.5zm63.4-.4-.2-3.5 5.7-.3.2 3.5c-1.8.1-3.7.2-5.7.3zm-75-.2c-1.9-.1-3.9-.3-5.8-.4l.3-3.4c1.9.1 3.8.3 5.7.4l-.2 3.4zm86.6-.6-.2-3.4c1.9-.1 3.8-.3 5.7-.4l.3 3.4c-2 .2-3.9.3-5.8.4zm-98.1-.3c-1.9-.2-3.8-.3-5.8-.5l.3-3.4c1.9.2 3.8.4 5.7.5l-.2 3.4zm109.6-.6-.3-3.4c1.9-.2 3.8-.3 5.7-.5l.3 3.4c-1.9.2-3.8.4-5.7.5zm-121.1-.5c-1.9-.2-3.8-.4-5.7-.7l.4-3.4 5.7.6-.4 3.5zm132.6-.6-.4-3.4 5.7-.6.4 3.4-5.7.6zm-144.1-.7c-1.9-.2-3.8-.5-5.7-.8l.5-3.4c1.9.3 3.8.5 5.7.8l-.5 3.4zm155.5-.6-.4-3.4c1.9-.2 3.8-.5 5.7-.7l.4 3.4c-1.8.3-3.8.5-5.7.7zM480.9 667l-5.7-.9.6-3.4 5.7.9-.6 3.4zm178.4-.3-.5-3.4c1.9-.3 3.8-.5 5.7-.8l.5 3.4c-1.9.3-3.8.5-5.7.8zm-189.8-1.6c-1.9-.3-3.8-.7-5.7-1l.6-3.4c1.9.4 3.7.7 5.6 1l-.5 3.4zm201.2 0-.5-3.4 5.7-.9.5 3.4-5.7.9zm11.4-1.8-.6-3.4 5.7-.9.6 3.4-5.7.9zm-223.9-.3-5.7-1.2.7-3.4c1.9.4 3.7.8 5.6 1.2l-.6 3.4zm235.3-1.6-.6-3.4c1.9-.3 3.8-.7 5.7-1l.6 3.4c-1.9.3-3.8.7-5.7 1zm-246.6-.9c-1.9-.4-3.8-.9-5.6-1.3l.8-3.4c1.8.4 3.7.9 5.6 1.3l-.8 3.4zm258-1.1-.6-3.4c1.9-.4 3.8-.7 5.6-1.1l.7 3.4c-2 .3-3.9.7-5.7 1.1zm-269.3-1.6c-1.9-.5-3.7-1-5.6-1.5l.9-3.3c1.8.5 3.7 1 5.5 1.5l-.8 3.3zm280.6-.6-.7-3.4c1.9-.4 3.7-.8 5.6-1.1l.7 3.4c-1.9.3-3.7.7-5.6 1.1zm11.3-2.4-.7-3.4c1.9-.4 3.7-.8 5.6-1.2l.7 3.4c-1.9.4-3.7.8-5.6 1.2zm-303 0c-1.9-.5-3.7-1.1-5.5-1.6l1-3.3c1.8.5 3.7 1.1 5.5 1.6l-1 3.3zm314.3-2.4-.8-3.4c1.9-.4 3.7-.8 5.6-1.3l.8 3.4c-1.9.4-3.8.8-5.6 1.3zm-325.4-.9c-1.8-.6-3.7-1.2-5.5-1.8l1.1-3.3c1.8.6 3.6 1.2 5.5 1.8l-1.1 3.3zm336.6-1.7-.8-3.4c1.9-.4 3.7-.9 5.6-1.3l.8 3.4c-1.9.4-3.7.8-5.6 1.3zm-347.6-1.9c-1.8-.6-3.6-1.3-5.5-1.9l1.2-3.3c1.8.6 3.6 1.3 5.4 1.9l-1.1 3.3zm358.8-.9-.8-3.4c1.9-.5 3.7-.9 5.6-1.4l.9 3.4c-2 .5-3.8 1-5.7 1.4zm11.2-2.8-.9-3.3c1.8-.5 3.7-1 5.6-1.5l.9 3.3c-1.9.5-3.8 1-5.6 1.5zm-380.9-.2-5.4-2.1 1.3-3.2 5.4 2.1-1.3 3.2zm392-2.8-.9-3.3c1.8-.5 3.7-1 5.5-1.5l.9 3.3c-1.8.5-3.6 1-5.5 1.5zm-402.7-1.5c-1.8-.7-3.6-1.5-5.3-2.2l1.4-3.2c1.8.7 3.5 1.5 5.3 2.2l-1.4 3.2zm413.9-1.5-.9-3.3c1.8-.5 3.7-1 5.5-1.6l1 3.3c-2 .5-3.8 1.1-5.6 1.6zm-424.6-3c-1.8-.8-3.5-1.6-5.3-2.4l1.4-3.1c1.7.8 3.5 1.6 5.2 2.4l-1.3 3.1zm435.6-.2-1-3.3c1.8-.5 3.7-1.1 5.5-1.6l1 3.3c-1.8.5-3.6 1.1-5.5 1.6zm11.1-3.3-1-3.3c1.8-.6 3.7-1.1 5.5-1.7l1 3.3c-1.8.6-3.7 1.2-5.5 1.7zm-457.2-1.3c-1.7-.8-3.5-1.7-5.2-2.5l1.5-3.1c1.7.8 3.4 1.7 5.2 2.5l-1.5 3.1zm468.2-2.1-1-3.3c1.8-.6 3.7-1.1 5.5-1.7l1 3.3c-1.8.6-3.6 1.2-5.5 1.7zm-478.5-3.1-5.1-2.7 1.6-3 5.1 2.7-1.6 3zm489.5-.3-1.1-3.3c1.8-.6 3.6-1.2 5.5-1.8l1.1 3.3c-1.8.6-3.7 1.2-5.5 1.8zm11-3.6-1.1-3.3c1.8-.6 3.6-1.2 5.5-1.8l1.1 3.3c-1.9.6-3.7 1.2-5.5 1.8zm-510.7-1.5c-1.7-.9-3.4-1.9-5-2.8l1.7-3c1.6.9 3.3 1.9 5 2.8l-1.7 3zm521.6-2.2-1.1-3.3c1.8-.6 3.6-1.2 5.4-1.9l1.1 3.3c-1.8.7-3.6 1.3-5.4 1.9zM329.1 614c-1.7-1-3.3-2-4.9-3l1.8-2.9c1.6 1 3.3 2 4.9 3l-1.8 2.9zm-9.9-6.1c-1.6-1-3.2-2.1-4.9-3.1l1.9-2.9c1.6 1 3.2 2.1 4.8 3.1l-1.8 2.9zm-9.6-6.3-4.8-3.3 2-2.8c1.6 1.1 3.1 2.2 4.7 3.3l-1.9 2.8zm-9.5-6.7c-1.6-1.1-3.1-2.3-4.7-3.4l2.1-2.8c1.5 1.1 3.1 2.3 4.6 3.4l-2 2.8zm-9.2-7-4.5-3.6 2.2-2.7c1.5 1.2 3 2.4 4.5 3.5l-2.2 2.8zm-9.1-7.2c-1.5-1.2-3-2.5-4.4-3.7l2.2-2.6c1.4 1.2 2.9 2.5 4.4 3.7l-2.2 2.6zm-8.8-7.5c-1.5-1.3-2.9-2.6-4.3-3.9l2.3-2.6c1.4 1.3 2.8 2.5 4.3 3.8l-2.3 2.7zm-8.6-7.7c-1.4-1.3-2.8-2.6-4.2-4l2.4-2.5 4.2 3.9-2.4 2.6zm-8.3-8.1-4.1-4.1 2.5-2.4c1.3 1.4 2.7 2.7 4 4.1l-2.4 2.4zm-8.1-8.2c-1.3-1.4-2.7-2.8-4-4.2l2.5-2.3 3.9 4.2-2.4 2.3zm-7.8-8.5c-1.3-1.4-2.6-2.9-3.8-4.3l2.6-2.3c1.2 1.4 2.5 2.9 3.8 4.3l-2.6 2.3zm-7.6-8.8c-1.2-1.5-2.5-3-3.7-4.4l2.7-2.2c1.2 1.5 2.4 2.9 3.7 4.4l-2.7 2.2zm-7.4-8.9-3.6-4.5 2.7-2.1c1.2 1.5 2.3 3 3.5 4.5l-2.6 2.1zm-7-9.1c-1.2-1.5-2.3-3.1-3.4-4.6l2.8-2c1.1 1.5 2.3 3.1 3.4 4.6l-2.8 2zm-6.9-9.4c-1.1-1.6-2.2-3.2-3.3-4.7l2.8-2c1.1 1.6 2.2 3.1 3.3 4.7l-2.8 2zm-6.5-9.5c-1.1-1.6-2.1-3.2-3.2-4.8l2.9-1.9c1 1.6 2.1 3.2 3.2 4.8l-2.9 1.9zm-6.3-9.7c-1-1.6-2.1-3.3-3.1-4.9l2.9-1.8c1 1.6 2 3.2 3 4.9l-2.8 1.8zm-6.1-9.9c-1-1.7-2-3.3-2.9-5l3-1.7c1 1.6 1.9 3.3 2.9 4.9l-3 1.8zm-5.8-10c-.9-1.7-1.9-3.4-2.8-5.1l3-1.7c.9 1.7 1.8 3.3 2.8 5l-3 1.8zm-5.5-10.1-2.7-5.1 3.1-1.6c.9 1.7 1.7 3.4 2.6 5.1l-3 1.6zm-5.3-10.3c-.9-1.7-1.7-3.5-2.5-5.2l3.1-1.5c.8 1.7 1.7 3.4 2.5 5.2l-3.1 1.5zm-5-10.5c-.8-1.8-1.6-3.5-2.4-5.3l3.2-1.4c.8 1.7 1.6 3.5 2.4 5.2l-3.2 1.5zm-4.7-10.5c-.8-1.8-1.5-3.6-2.3-5.3l3.2-1.3c.7 1.7 1.5 3.5 2.3 5.3l-3.2 1.3zm-4.5-10.7c-.7-1.8-1.5-3.6-2.2-5.4l3.2-1.3c.7 1.8 1.4 3.5 2.1 5.3l-3.1 1.4zm-4.3-10.7c-.7-1.8-1.4-3.6-2-5.4l3.2-1.2c.6 1.8 1.3 3.6 2 5.4l-3.2 1.2zm-3.9-10.9c-.7-1.9-1.3-3.7-1.9-5.5l3.3-1.1c.6 1.8 1.2 3.6 1.9 5.4l-3.3 1.2zm-3.8-11c-.6-1.9-1.2-3.7-1.7-5.5l3.3-1c.6 1.8 1.1 3.6 1.7 5.5l-3.3 1zm-3.4-11c-.6-1.9-1.1-3.8-1.6-5.6l3.3-.9c.5 1.8 1 3.6 1.6 5.5l-3.3 1zm-3.1-11.2c-.5-1.9-1-3.8-1.5-5.6l3.4-.8c.4 1.8.9 3.6 1.4 5.6l-3.3.8zm-2.9-11.2c-.5-2-.9-3.9-1.3-5.7l3.4-.7c.4 1.7.8 3.6 1.3 5.6l-3.4.8zm-2.4-11.4c-.5-2.4-.8-4.3-1.1-5.8l3.4-.6c.2 1.4.6 3.3 1.1 5.7l-3.4.7zm-2.2-11.4c-.4-1.9-.8-3.8-1.2-5.6l3.4-.7c.4 1.9.8 3.7 1.2 5.6l-3.4.7zm-2.4-11.3c-.4-1.9-.7-3.8-1.1-5.7l3.4-.6c.4 1.9.7 3.7 1.1 5.6l-3.4.7zm-2.1-11.3c-.3-1.9-.7-3.8-1-5.7l3.4-.6c.3 1.9.6 3.8 1 5.7l-3.4.6zm-1.9-11.4-.9-5.7 3.4-.5.9 5.7-3.4.5zm-1.7-11.5c-.3-1.9-.5-3.8-.7-5.7l3.4-.4c.2 1.9.5 3.8.7 5.7l-3.4.4zm-1.4-11.5c-.2-1.9-.4-3.8-.6-5.8l3.4-.3.6 5.7-3.4.4zm-1-11.5c-.2-1.9-.3-3.9-.4-5.8l3.5-.2c.1 1.9.3 3.8.4 5.7l-3.5.3zm-.8-11.5c-.1-1.9-.2-3.9-.2-5.8l3.5-.1c.1 1.9.1 3.8.2 5.7l-3.5.2zm-.4-11.6c0-1.9-.1-3.9-.1-5.8h3.5c0 1.9 0 3.8.1 5.7l-3.5.1zm3.5-11.5-3.5-.1c0-1.9.1-3.9.1-5.8l3.5.1c0 2-.1 3.9-.1 5.8zm.4-11.4-3.5-.2c.1-1.9.2-3.9.4-5.8l3.4.3c-.1 1.8-.2 3.7-.3 5.7zm.8-11.5-3.4-.3c.2-1.9.4-3.9.6-5.8l3.4.4-.6 5.7zm1.3-11.3-3.4-.5.9-5.7 3.4.5-.9 5.7zm1.8-11.3-3.4-.6c.4-1.9.7-3.8 1.1-5.7l3.4.7c-.3 1.8-.7 3.7-1.1 5.6zm2.4-11.2-3.4-.8c.4-1.9.9-3.8 1.4-5.6l3.3.9c-.4 1.8-.9 3.7-1.3 5.5zm2.9-11-3.3-1c.5-1.8 1.1-3.7 1.7-5.5l3.3 1.1c-.6 1.7-1.1 3.6-1.7 5.4zm3.6-10.8-3.3-1.2c.7-1.8 1.3-3.6 2-5.4l3.2 1.3c-.6 1.7-1.3 3.5-1.9 5.3zm4.2-10.6-3.2-1.4c.8-1.8 1.6-3.6 2.4-5.3l3.1 1.5c-.8 1.7-1.6 3.4-2.3 5.2zm4.8-10.4-3.1-1.6c.9-1.7 1.8-3.5 2.7-5.1l3 1.7c-.8 1.7-1.7 3.4-2.6 5zm5.5-9.9-3-1.8c1-1.7 2-3.3 3.1-4.9l2.9 1.9c-1 1.5-2 3.2-3 4.8zm6.2-9.6-2.8-2c1.1-1.6 2.2-3.2 3.4-4.7l2.8 2.1c-1.2 1.5-2.3 3.1-3.4 4.6zm6.8-9.1-2.7-2.2c1.2-1.5 2.5-3 3.7-4.5l2.6 2.3c-1.2 1.4-2.4 2.9-3.6 4.4zm7.5-8.6-2.5-2.3c1.3-1.4 2.7-2.8 4-4.2l2.5 2.4c-1.4 1.3-2.8 2.7-4 4.1zm8-8.1-2.4-2.5c1.4-1.3 2.8-2.6 4.3-3.9l2.3 2.6c-1.4 1.2-2.9 2.5-4.2 3.8zm8.5-7.5-2.2-2.7 4.5-3.6 2.1 2.7c-1.5 1.2-3 2.4-4.4 3.6zm9-7-2-2.8c1.5-1.1 3.2-2.2 4.8-3.3l1.9 2.9c-1.6 1-3.2 2.1-4.7 3.2zm9.5-6.4-1.8-2.9c1.6-1 3.3-2.1 5-3l1.8 3c-1.8.9-3.4 1.9-5 2.9zm419.8-2.6c-1.6-.5-3.5-1-5.5-1.6l1-3.3c2.1.6 3.9 1.1 5.6 1.6l-1.1 3.3zm-11-3.2c-1.7-.5-3.6-1-5.5-1.5l.9-3.3c2 .5 3.8 1 5.6 1.5l-1 3.3zm-399 0-1.7-3 5.1-2.7 1.6 3.1c-1.7.8-3.3 1.7-5 2.6zm387.9-3c-1.8-.5-3.6-1-5.6-1.5l.9-3.3c1.9.5 3.8 1 5.6 1.5l-.9 3.3zm-377.8-2.3-1.5-3.1c1.7-.8 3.5-1.7 5.2-2.5l1.4 3.1c-1.6.9-3.3 1.7-5.1 2.5zm366.6-.6c-1.8-.5-3.7-.9-5.6-1.4l.8-3.4c1.9.5 3.8.9 5.6 1.4l-.8 3.4zM586 41.2c-1.8-.4-3.7-.9-5.6-1.3l.8-3.4c1.9.5 3.8.9 5.6 1.3l-.8 3.4zm-345.1-1.3-1.4-3.2c1.8-.8 3.6-1.5 5.4-2.2l1.3 3.2c-1.7.7-3.5 1.4-5.3 2.2zm333.9-1.3c-1.8-.4-3.7-.8-5.6-1.3l.8-3.4c1.9.4 3.8.9 5.6 1.3l-.8 3.4zm-11.3-2.5c-1.9-.4-3.7-.8-5.6-1.2l.7-3.4c1.9.4 3.8.8 5.6 1.2l-.7 3.4zm-311.9-.5-1.2-3.2c1.8-.7 3.6-1.3 5.5-2l1.1 3.3c-1.9.6-3.6 1.3-5.4 1.9zm300.7-1.9c-1.9-.4-3.7-.8-5.6-1.2l.7-3.4 5.7 1.2-.8 3.4zm-289.9-1.8-1.1-3.3c1.8-.6 3.7-1.2 5.5-1.7l1 3.3c-1.8.5-3.6 1.1-5.4 1.7zm278.6-.5c-1.9-.4-3.7-.7-5.6-1.1l.6-3.4c1.9.4 3.8.7 5.7 1.1l-.7 3.4zm-11.3-2.2c-1.9-.3-3.8-.7-5.7-1l.6-3.4c1.9.3 3.8.7 5.7 1l-.6 3.4zm-256.4-.6-.9-3.3c1.9-.5 3.7-1 5.6-1.5l.9 3.3c-1.9.5-3.7 1-5.6 1.5zm245.1-1.4c-1.9-.3-3.8-.6-5.7-1l.6-3.4c1.9.3 3.8.6 5.7 1l-.6 3.4zm-234-1.5-.8-3.4c1.9-.4 3.8-.9 5.6-1.3l.7 3.4c-1.8.4-3.6.9-5.5 1.3zm222.6-.4-5.7-.9.5-3.4 5.7.9-.5 3.4zm-11.3-1.7c-1.9-.3-3.8-.6-5.7-.8l.5-3.4c1.9.3 3.8.5 5.7.8l-.5 3.4zm-200.1-.4-.7-3.4c1.9-.4 3.8-.8 5.7-1.1l.6 3.4c-1.8.4-3.7.8-5.6 1.1zM484.3 22c-1.9-.3-3.8-.5-5.7-.8l.4-3.4c1.9.2 3.8.5 5.7.8l-.4 3.4zm-177.4-.9-.6-3.4 5.7-.9.5 3.4c-1.9.3-3.7.6-5.6.9zm166-.6c-1.9-.2-3.8-.5-5.7-.7l.4-3.4c1.9.2 3.8.4 5.7.7l-.4 3.4zm-154.7-1.1-.5-3.4c1.9-.3 3.8-.5 5.7-.8l.4 3.4c-1.8.3-3.7.5-5.6.8zm143.3-.2-5.7-.6.3-3.4 5.7.6-.3 3.4zM450 18.1c-1.9-.2-3.8-.3-5.7-.5l.3-3.4c1.9.2 3.8.3 5.8.5l-.4 3.4zm-120.4-.2-.4-3.4c1.9-.2 3.8-.4 5.8-.6l.3 3.4-5.7.6zm109-.8c-1.9-.1-3.8-.3-5.7-.4l.2-3.4c1.9.1 3.8.3 5.8.4l-.3 3.4zm-97.6-.3-.3-3.4c1.9-.2 3.8-.3 5.8-.5l.3 3.4c-2 .2-3.9.3-5.8.5zm86.1-.5-5.7-.3.2-3.5 5.7.3-.2 3.5zm-74.6-.3-.2-3.5c1.9-.1 3.9-.2 5.8-.3l.2 3.5c-2 0-3.9.1-5.8.3zm63.2-.4c-1.9-.1-3.8-.2-5.7-.2l.1-3.5c1.9.1 3.8.2 5.8.2l-.2 3.5zm-51.7-.2-.1-3.5c1.9-.1 3.9-.1 5.8-.2l.1 3.5c-2 0-3.9.1-5.8.2zm40.2-.2c-1.9-.1-3.8-.1-5.7-.1l.1-3.5c1.9 0 3.8.1 5.8.1l-.2 3.5zm-28.7-.2-.1-3.5c1.9 0 3.9-.1 5.8-.1v3.5c-1.9.1-3.8.1-5.7.1zm17.2 0H387v-3.5h5.8l-.1 3.5z"/><path transform="rotate(-19.274 872.226 611.699)" class="st3" d="M870.9 610h2.9v3.5h-2.9z"/></g><path class="st4" d="M215.9 100.3h377v329.8h-377z"/><path class="st5" d="M224.7 110.2h354.6v311.9H224.7z"/><path class="st4" d="M224.7 202.1h354.6v9.9H224.7zM224.7 312.2h354.6v9.9H224.7z"/><path class="st6" d="M330.1 110.2h8.7v311.9h-8.7zM459.7 110.2h8.7v311.9h-8.7z"/><path class="st5" d="m290.5 110.2-65.8 311.9h32.9l65.3-311.9zM374.4 110.2 310 422.1h60.4l60.2-311.9zM488.7 114.2 426 422.1l78.1-.3 51.7-311.6z"/><ellipse cx="575.1" cy="743.1" rx="257.4" ry="22.2" style="opacity:.56;fill:#939598"/><path class="st8" d="M189 486.6h443v15H189z"/><path class="st8" d="M220.7 501.5h9.2v156h-9.2zM274.9 501.5h9.2v156h-9.2z"/><path class="st9" d="M321.5 486.6H139.8c-7.8 0-14.2-6.4-14.2-14.2v-12.5c0-7.8 6.4-14.2 14.2-14.2h181.7c7.8 0 14.2 6.4 14.2 14.2v12.5c0 7.8-6.4 14.2-14.2 14.2z"/><path class="st9" d="M525.2 486.6H343.6c-7.8 0-14.2-6.4-14.2-14.2v-12.5c0-7.8 6.4-14.2 14.2-14.2h181.7c7.8 0 14.2 6.4 14.2 14.2v12.5c-.1 7.8-6.4 14.2-14.3 14.2zM210 445.7h-69.4c-3 0-5.4-2.4-5.4-5.4v-4.8c0-3 2.4-5.4 5.4-5.4H210c3 0 5.4 2.4 5.4 5.4v4.8c0 2.9-2.4 5.4-5.4 5.4z"/><path class="st10" d="m710.9 707.2 13.2 17.2s9.2 17.2-13.2 11.9c0 0-30.7-13.2-34.8-23.8 0 0 21.1-10.6 34.8-5.3zM582.2 707.5l-8.7 19.8s-4.9 18.9 15.7 8.4c0 0 26.6-20.2 28.1-31.4-.1.1-23.1-5.1-35.1 3.2z"/><path d="M696.4 474.2s12.8 62.1 5.3 97.8l9.7 79.7s7 22.5 3.5 37c0 0 5.9 13.7 1 24.2 0 0-14.6-8.8-37.1 5.3l-5.3 2.6-2.6-34.4-7.5-26.4L640 520.5l-5.3 22.5-16.3 170.4-36.6-5.3s2.5-234.8 16.9-254.8l97.7 20.9z" style="fill:#375e8c"/><path d="M772.5 163.3s3.5-17.2-8.8-24.2-31.7-9.1-45.8 13.3c-14.1 22.4-20.3 68.6-36.1 77h7.5l-3.1 5.3 14.1 3.5 11.2-17.6 61-57.3z" style="fill:#9e521e"/><path class="st13" d="m605.2 297.6-7.5 27.3-39.6 20.7 18.1 17.2 29.1-17.2s22-7.9 26.9-34.4l-27-13.6z"/><path d="m754.5 227.1-15 11v36.1l15-2.6v-29.5l4 5.7c0 .1 3.5-16.3-4-20.7z" style="fill:#a35320"/><path class="st13" d="m714.6 217.8-16.5 23.5s11.5 41.4 21.1 50.6c0 0 26.4-22.5 26-33.5l-5.7-3.6v-16.7l-24.9-20.3z"/><ellipse transform="rotate(-68.075 715.409 192.507)" class="st13" cx="715.4" cy="192.5" rx="10.3" ry="7.6"/><ellipse transform="rotate(-68.075 741.9 203.171)" class="st13" cx="741.9" cy="203.2" rx="40.3" ry="29.7"/><path d="M716.2 188s22.6-3.8 33-12.3c0 0 5.3 14.1 18.1 22.5s-5.1 29-5.1 29 18.8-18.9 21.4-29.9c2.6-11 4.4-28.6-10.6-38.3-8.3-5.4-19.7-6.5-28.2-6.5-10.9 0-21.3 5.7-26.5 15.3-2.9 5.3-4.5 12.1-2.1 20.2z" style="fill:#aa6325"/><path d="M703 238.2s-22.9-5.7-33-5.3c-10.1.4-21.6 0-37.4 17.8-15.9 17.9-34.8 49.1-34.8 49.1l27.7 18.5s4-.4.4 11c-3.5 11.5-28.2 128.8-28.2 128.8l100.4 23.2s11.9-108.8 25.5-124.2l37.9 2.7 7.9-57.3s3.5-26-15-34.8c0 0-2.6-6.8-15-12.9 0 0-11.2 24.2-17.8 27.8.1.1-22.6-28.6-18.6-44.4z" style="fill:#4570ad"/><path d="M664.6 664.6s-5.3 37.8-47.2 62.5c-15 8.8-34.7 16-60.5 19.1-97.8 11.9-130.8-43.4-130.8-43.4-30.2-46.6-11.4-94 5.8-121.9 11.6-18.7 30.1-32.1 51.6-36.9 15.1-3.4 32.8-4.6 55.9-2.9 16 1.2 34.7 3.9 56.8 8.3 79.6 15.8 68.4 115.2 68.4 115.2z" style="fill:#feab07"/><path d="M664.6 664.6s-5.3 37.8-47.2 62.5c5.3-26.1 9.3-57.7 8.5-92-1.1-43.7-43.1-74.2-86.5-94 16 1.2 34.7 3.9 56.8 8.3 79.6 15.8 68.4 115.2 68.4 115.2z" style="opacity:.62;fill:#cc7323"/><ellipse cx="453.3" cy="651.5" rx="29.1" ry="51.3" style="opacity:9.000000e-02;fill:#fdfdfd"/><path d="M541.6 307.4s-9.1 33.9-11.7 36.5 44.5 33.5 44.5 33.5 15.6-34.4 11.5-39.2c-4.1-4.8-7.9-3.5-11.9-14.5l-32.4-16.3z" style="opacity:.46;fill:#fdd0cb"/><path class="st21" d="m772.1 661.8 11.9 11s27.3-29.5 21.6-30.8c-2.1-.5-5.6-1.6-9.2-2.8-6.6-2.2-13.7-4.7-13.7-4.7l-10.6 27.3z"/><ellipse class="st21" cx="564.8" cy="293.8" rx="24.8" ry="37.9"/><path d="M578.8 267.7s-21.1 4.4-27.3 15.9c-6.2 11.5-8.8 43.2-8.8 43.2l-22.9-4.4s-12.3-6.6-6.2-24.7 14.1-34.4 14.1-34.4 16.7-26 39.2-17.2c22.5 8.8 26.4 28.2 26.4 28.2s8.6 28.6-3.6 49.3l-7.8-2.3s18.5-40-3.1-53.6z" style="fill:#505150"/><path class="st23" d="m604.8 507.3 81.5 54.6s34.8 30.4 54.2 37c19.4 6.6 34.4 24.2 34.4 24.2l21.6 13.2-17.6 33s-3.5-2.2-11.9-6.6c-8.4-4.4-18.9-4.4-25.5-11.9-6.6-7.5-88.4-53-88.4-53l-102.3-60.6s-24.5-35.2 7.5-35.7c31.8-.5 46.5 5.8 46.5 5.8z"/><path class="st21" d="M628.1 705.7v20.4s43.9-1.5 40.9-10.2-13.6-20.2-13.6-20.2l-27.3 10z"/><path class="st23" d="M625.9 721.5s27.3-2 31.3-5c0 0 .5-11.3 6.2-10.7 5.7.6 14.5 13.7 30.2 21.8l14.1 7.3s13.8 6.7-3.4 8.1c-17.2 1.3-45.5-2.8-54.5-5.6s-21.7-3.2-21.7-3.2-2.2-5.4-2.2-12.7z"/><path d="M491.2 505.3s-3.6 39.4 13.6 51.3c17.2 11.9 48 23.3 74.4 26 26.4 2.6 30.4 13.2 27.3 30.4-3.1 17.2 12.1 98.1 12.1 98.1s30 .5 41.2-10.9l-3.1-99.1s8.8-37.9-4.8-46.7c-13.7-8.8-62.2-32.1-62.2-32.1s-63.3-31.3-98.5-17z" style="fill:#323233"/><path d="M529.8 334.2s-29 5.3-39.5 16.3c-10.6 11-23.8 29.1-23.8 29.1s11.5 13.7 27.7 19.4c0 0 5.3 31.3 10.1 39.6s-2.2 16.7-2.2 16.7-2.2 7.5-.9 18.1-9.2 25.1-9.2 25.1l-1.3 10.6s24.1 9.2 49.3 4.8c25.1-4.4 46.6 9.2 46.6 9.2s16.9 9.2 20-5.7c3.1-15 2.2-27.3 2.2-27.3s8.4-23.9 1.8-32c0 0 4.2-25.1 2.5-28-1.7-3 16-20.6 12-36.9l5.3 1.3s6.6-35.2 17.2-34.8c0 0-12.9-11.4-42.3-17.4l-27.7-6.8-6.2 33s-39.5-27.8-37.5-34.4h-4.1z" style="fill:#ff4a55"/><path class="st23" d="M778.7 669.3s8.8-.4 17.6-15.6c0 0-5.2-12.1 3.1-13.4 8.3-1.3 40.5-5.7 40.5-5.7s27.7-6.2 7 10.6c-20.7 16.7-44 27.7-44 27.7l-13.7 8.8s-11.4-3.6-10.5-12.4z"/><g><path d="M816.7 668.4c-.7 0-1.4-.3-2-.8l-253-234.2c-1.9-1.8-2.6-4.9-1.8-7.8.8-2.7 2.7-4.6 5.2-5l54.8-8.5c2.7-.5 4.6 1.8 5.7 3.2.1.2.3.3.4.4l186 219.7c1 1.2.9 3-.3 4.1-1.2 1-3 .9-4.1-.3l-186-219.6c-.1-.1-.3-.3-.4-.5-.2-.3-.7-.8-1-1.1l-54.2 8.4s-.4.3-.6 1c-.3.9-.1 1.8.2 2l253 234.2c1.2 1.1 1.2 2.9.2 4.1-.6.4-1.4.7-2.1.7zM620.8 417.9z" style="fill:#a7a8a8"/></g><path class="st21" d="m470 377.3-21.1 26.9s-15.4 15.9 6.2 21.1c21.6 5.3 41.4 9.2 70 0l33 .9s6.2 7.5 16.3-.9c0 0 8.8-4 2.6-13.2 0 0-6.2-6.6-29.1-3.1l-23.3-1.8s-16.7-7.9-28.2-5.9-7.9 2.8-7.9 2.8l9.2-8.3-27.7-18.5zM643.9 357.1l26.5 17.2s21.3 11.8 11.5 20.3c-9.8 8.4-11.5 14.1-34.4 16.7-22.9 2.6-30.8 4.8-30.8 4.8s-6.2 9.7-18.9 4.4l-2.6-11.9s-1.8-7.5 11.5-9.2c13.2-1.8 33.2-9.8 33.2-9.8H627c-.2 0 5-40.2 16.9-32.5z"/><path class="st13" d="M752.7 369.9s-13.2 31.5-49.8 45.4c-35 13.3-42.7 17.2-42.7 17.2s-10.1 16.3-22.5 12.8L623 432.4s-5.5-4 6.9-11c0 0 .9-9.7 11-9.2s13.2 3.1 13.2 3.1 33-24.2 48.4-28.2c0 0 12.8-10.6 21.1-30h8.4l24.6 2.3-3.9 10.5z"/><path d="M360.5 700.3c0 23.6-19.2 42.8-42.8 42.8-15.1 0-28.4-7.8-36-19.6-4.3-6.7-6.8-14.6-6.8-23.2 0-23.6 19.2-42.8 42.8-42.8 8.1 0 15.6 2.2 22.1 6.1 12.4 7.6 20.7 21.2 20.7 36.7z" style="opacity:.46;fill:#139fae"/><path class="st28" d="M346.6 686.8c0 23.6-19.2 42.8-42.8 42.8-8.1 0-15.6-2.2-22.1-6.1-4.3-6.7-6.8-14.6-6.8-23.2 0-23.6 19.2-42.8 42.8-42.8 8.1 0 15.6 2.2 22.1 6.1 4.3 6.7 6.8 14.7 6.8 23.2z"/><path d="M196.8 650c-28.3 0-51.3-23-51.3-51.3 0-18.1 9.4-34 23.5-43.1 8-5.2 17.5-8.2 27.8-8.2 28.3 0 51.3 23 51.3 51.3 0 9.7-2.7 18.7-7.3 26.4-9 15-25.3 24.9-44 24.9z" style="fill:#f16b62"/><path class="st28" d="M213 633.4c-28.3 0-51.3-23-51.3-51.3 0-9.7 2.7-18.7 7.3-26.4 8-5.2 17.5-8.2 27.8-8.2 28.3 0 51.3 23 51.3 51.3 0 9.7-2.7 18.7-7.3 26.4-8 5.2-17.5 8.2-27.8 8.2z"/><g><ellipse class="st30" cx="379.6" cy="737.6" rx="11.6" ry="13.7"/><ellipse class="st31" cx="379.6" cy="737.6" rx="9.6" ry="11.3"/><path class="st30" d="m377.7 741.9-33 3.2c-1.2.1-2.3-.8-2.4-2l-.2-1.9c-.1-1.2.8-2.3 2-2.4l33-3.2c1.2-.1 2.3.8 2.4 2l.2 1.9c.1 1.2-.8 2.3-2 2.4z"/><ellipse class="st30" cx="336.8" cy="741.9" rx="11.6" ry="13.7"/><ellipse class="st31" cx="336.8" cy="741.9" rx="9.6" ry="11.3"/></g><g><ellipse class="st30" cx="364" cy="758.3" rx="12.9" ry="15.2"/><ellipse class="st31" cx="364" cy="758.3" rx="10.6" ry="12.5"/><path class="st30" d="m362 763.1-36.6 3.6c-1.3.1-2.5-.8-2.7-2.2l-.2-2.1c-.1-1.3.8-2.5 2.2-2.7l36.6-3.6c1.3-.1 2.5.8 2.7 2.2l.2 2.1c.1 1.4-.9 2.6-2.2 2.7z"/><ellipse class="st30" cx="316.5" cy="763.1" rx="12.9" ry="15.2"/><ellipse class="st31" cx="316.5" cy="763.1" rx="10.6" ry="12.5"/></g><ellipse transform="rotate(-45.001 866.897 297.647)" class="st0" cx="866.9" cy="297.6" rx="47.7" ry="87.6"/><ellipse transform="rotate(-45.001 819.54 164.24)" class="st0" cx="819.5" cy="164.2" rx="20.2" ry="37.2"/><ellipse transform="rotate(-45.001 721.688 100.305)" class="st0" cx="721.7" cy="100.3" rx="13.8" ry="25.4"/><ellipse transform="rotate(-45.001 659.81 62.035)" class="st0" cx="659.8" cy="62" rx="10" ry="18.4"/></svg>