<?xml version="1.0" encoding="utf-8"?>
<!-- Generator: Adobe Illustrator 24.3.0, SVG Export Plug-In . SVG Version: 6.00 Build 0)  -->
<svg version="1.1" id="Layer_1" xmlns="http://www.w3.org/2000/svg" xmlns:xlink="http://www.w3.org/1999/xlink" x="0px" y="0px"
	 viewBox="0 0 845.7 722.8" style="enable-background:new 0 0 845.7 722.8;" xml:space="preserve">
<style type="text/css">
	.st0{fill:#E2D1FA;}
	.st1{fill:#D2B3FB;}
	.st2{opacity:0.67;}
	.st3{fill:#996BC1;}
	.st4{opacity:0.46;fill:#C8DDF2;}
	.st5{opacity:0.46;fill:#FFFFFF;}
	.st6{fill:#C8DDF2;}
	.st7{opacity:0.56;fill:#939598;}
	.st8{fill:#939393;}
	.st9{fill:#FDFEFF;}
	.st10{fill:#F3F8F4;}
	.st11{fill:#375E8C;}
	.st12{fill:#9E521E;}
	.st13{fill:#F9D3CA;}
	.st14{fill:#A35320;}
	.st15{fill:#AA6325;}
	.st16{fill:#4570AD;}
	.st17{fill:#FEAB07;}
	.st18{opacity:0.62;fill:#CC7323;}
	.st19{opacity:9.000000e-02;fill:#FDFDFD;}
	.st20{fill:#FDD0CB;}
	.st21{fill:#505150;}
	.st22{fill:#1E1E1E;}
	.st23{fill:#323233;}
	.st24{fill:#FF4A55;}
	.st25{fill:#A7A8A8;}
	.st26{opacity:0.46;fill:#139FAE;}
	.st27{opacity:0.19;fill:#FFFFFF;}
	.st28{fill:#F16B62;}
	.st29{fill:#2788B5;}
	.st30{fill:#4C5DA5;}
	.st31{fill:#FFFFFF;}
</style>
<g>
	<path class="st0" d="M108,544.6L66,484.5c0,0-94.2-132.6-31.4-260.9S336.5,14.4,500.7,113.3s123.8,205.5,207.2,234.7
		s98.9,97.1,89.4,153.4C787.9,557.9,732,652,684.4,678.4c-40.6,22.6-249.5,72.9-416.8-8.9C199.3,636,151.1,596.2,108,544.6z"/>
	<path class="st1" d="M138.3,492.7l-25.5-37.1c-2.6-3.7-5.2-7.5-7.9-11.2c-14.8-20.3-90.9-134-34-250.3
		C133.7,65.9,372.8-15,537,83.9s123.8,205.5,207.2,234.7s98.9,97.1,89.4,153.4c-9.5,56.4-65.4,150.5-112.9,176.9
		c-34.8,19.3-184.3,48.6-335.1,13.5C284.9,639,196.9,577.9,138.3,492.7z"/>
	<g class="st2">
		<g>
			<path class="st3" d="M552.5,45.3c0,0-0.8-0.3-2.4-0.7l0.9-2.9c1.6,0.5,2.4,0.8,2.4,0.8L552.5,45.3z"/>
		</g>
		<g>
			<path class="st3" d="M490.5,581.2l0-3c1.7,0,3.3,0,5,0l0,3C493.9,581.2,492.2,581.2,490.5,581.2z M485.5,581.2
				c-1.7,0-3.3,0-5-0.1l0-3c1.7,0,3.3,0,5,0.1L485.5,581.2z M500.5,581.1l-0.1-3c1.7,0,3.3-0.1,5-0.1l0.1,3
				C503.9,581,502.2,581.1,500.5,581.1z M475.5,581.1c-1.7,0-3.3-0.1-5-0.2l0.1-3c1.7,0.1,3.3,0.1,5,0.1L475.5,581.1z M510.6,580.8
				l-0.1-3c1.7-0.1,3.3-0.1,5-0.2l0.1,3C513.9,580.7,512.2,580.8,510.6,580.8z M465.5,580.7c-1.7-0.1-3.3-0.2-5-0.2l0.2-3
				c1.7,0.1,3.3,0.2,5,0.2L465.5,580.7z M520.6,580.3l-0.2-3c1.7-0.1,3.3-0.2,5-0.3l0.2,3C523.9,580.1,522.2,580.2,520.6,580.3z
				 M455.5,580.2c-1.7-0.1-3.3-0.2-5-0.4l0.2-3c1.6,0.1,3.3,0.2,5,0.3L455.5,580.2z M530.6,579.7l-0.2-3c1.7-0.1,3.3-0.2,5-0.4
				l0.2,3C533.9,579.5,532.2,579.6,530.6,579.7z M445.5,579.4c-1.7-0.1-3.3-0.3-5-0.5l0.3-3c1.6,0.2,3.3,0.3,5,0.5L445.5,579.4z
				 M540.6,578.9l-0.3-3c1.6-0.1,3.3-0.3,5-0.5l0.3,3C543.9,578.6,542.2,578.8,540.6,578.9z M435.5,578.5c-1.7-0.2-3.3-0.4-5-0.6
				l0.4-3c1.6,0.2,3.3,0.4,4.9,0.6L435.5,578.5z M550.5,577.9l-0.3-3c1.6-0.2,3.3-0.3,5-0.5l0.3,3
				C553.8,577.6,552.2,577.8,550.5,577.9z M425.5,577.3c-1.7-0.2-3.3-0.4-5-0.7l0.4-3c1.6,0.2,3.3,0.5,4.9,0.7L425.5,577.3z
				 M560.5,576.8l-0.4-3c1.6-0.2,3.3-0.4,4.9-0.6l0.4,3C563.8,576.4,562.1,576.6,560.5,576.8z M415.6,575.9c-1.7-0.3-3.3-0.5-5-0.8
				l0.5-3c1.6,0.3,3.3,0.5,4.9,0.8L415.6,575.9z M570.4,575.6l-0.4-3c1.6-0.2,3.3-0.4,4.9-0.7l0.4,3
				C573.7,575.1,572.1,575.4,570.4,575.6z M405.7,574.2c-1.7-0.3-3.3-0.6-4.9-0.9l0.6-2.9c1.6,0.3,3.3,0.6,4.9,0.9L405.7,574.2z
				 M580.3,574.2l-0.4-3c1.6-0.2,3.3-0.5,4.9-0.7l0.5,3C583.6,573.7,582,573.9,580.3,574.2z M590.2,572.7l-0.5-3
				c1.6-0.3,3.3-0.5,4.9-0.8l0.5,3C593.5,572.1,591.9,572.4,590.2,572.7z M395.9,572.4c-1.6-0.3-3.3-0.7-4.9-1l0.6-2.9
				c1.6,0.3,3.2,0.7,4.9,1L395.9,572.4z M600.1,571l-0.5-3c1.6-0.3,3.3-0.6,4.9-0.9l0.5,3C603.4,570.4,601.7,570.7,600.1,571z
				 M386.1,570.2c-1.6-0.4-3.3-0.8-4.9-1.2l0.7-2.9c1.6,0.4,3.2,0.8,4.8,1.1L386.1,570.2z M610,569.2l-0.6-2.9
				c1.6-0.3,3.3-0.6,4.9-0.9l0.6,2.9C613.2,568.6,611.6,568.9,610,569.2z M376.3,567.9c-1.6-0.4-3.2-0.8-4.8-1.3l0.8-2.9
				c1.6,0.4,3.2,0.9,4.8,1.3L376.3,567.9z M619.8,567.3l-0.6-2.9c1.6-0.3,3.3-0.7,4.9-1l0.6,2.9C623,566.6,621.4,567,619.8,567.3z
				 M629.6,565.3l-0.6-2.9c1.6-0.3,3.2-0.7,4.9-1.1l0.6,2.9C632.8,564.6,631.2,564.9,629.6,565.3z M366.6,565.2
				c-1.6-0.5-3.2-0.9-4.8-1.4l0.9-2.9c1.6,0.5,3.2,0.9,4.8,1.4L366.6,565.2z M639.4,563.1l-0.7-2.9c1.6-0.4,3.2-0.7,4.9-1.1l0.7,2.9
				C642.6,562.4,641,562.8,639.4,563.1z M357,562.4c-1.6-0.5-3.2-1-4.8-1.5l0.9-2.8c1.6,0.5,3.1,1,4.7,1.5L357,562.4z M649.1,560.9
				l-0.7-2.9c1.6-0.4,3.2-0.8,4.9-1.2l0.7,2.9C652.4,560.1,650.7,560.5,649.1,560.9z M347.5,559.2c-1.6-0.5-3.2-1.1-4.7-1.7l1-2.8
				c1.6,0.6,3.1,1.1,4.7,1.7L347.5,559.2z M658.9,558.5l-0.7-2.9c1.6-0.4,3.2-0.8,4.8-1.2l0.7,2.9
				C662.1,557.7,660.5,558.1,658.9,558.5z M668.6,556l-0.8-2.9c1.6-0.4,3.2-0.8,4.8-1.3l0.8,2.9C671.8,555.2,670.2,555.6,668.6,556z
				 M338.1,555.8c-1.6-0.6-3.1-1.2-4.7-1.8l1.1-2.8c1.5,0.6,3.1,1.2,4.6,1.8L338.1,555.8z M678.2,553.5l-0.8-2.9
				c1.6-0.4,3.2-0.9,4.8-1.3l0.8,2.9C681.4,552.6,679.8,553,678.2,553.5z M328.7,552.2c-1.6-0.6-3.1-1.3-4.6-1.9l1.2-2.8
				c1.5,0.6,3,1.3,4.6,1.9L328.7,552.2z M687.9,550.8l-0.8-2.9c1.6-0.4,3.2-0.9,4.8-1.4l0.8,2.9
				C691.1,549.9,689.5,550.4,687.9,550.8z M319.5,548.2c-1.5-0.7-3.1-1.4-4.6-2.1l1.3-2.7c1.5,0.7,3,1.4,4.5,2L319.5,548.2z
				 M697.5,548.1l-0.8-2.9c1.6-0.5,3.2-0.9,4.8-1.4l0.9,2.9C700.7,547.1,699.1,547.6,697.5,548.1z M707.1,545.2l-0.9-2.9
				c1.6-0.5,3.2-1,4.8-1.5l0.9,2.9C710.3,544.3,708.7,544.7,707.1,545.2z M310.4,544c-1.5-0.7-3-1.5-4.5-2.2l1.3-2.7
				c1.5,0.7,3,1.5,4.5,2.2L310.4,544z M716.7,542.3l-0.9-2.9c1.6-0.5,3.2-1,4.8-1.5l0.9,2.9C719.8,541.3,718.3,541.8,716.7,542.3z
				 M301.4,539.6c-1.5-0.8-3-1.5-4.4-2.3l1.4-2.6c1.5,0.8,2.9,1.6,4.4,2.3L301.4,539.6z M726.2,539.3l-0.9-2.9
				c1.6-0.5,3.2-1,4.7-1.5l0.9,2.9C729.4,538.2,727.8,538.8,726.2,539.3z M735.7,536.2l-0.9-2.8c1.6-0.5,3.2-1,4.7-1.6l1,2.8
				C738.9,535.1,737.3,535.6,735.7,536.2z M292.5,534.8c-1.5-0.8-2.9-1.6-4.4-2.5l1.5-2.6c1.4,0.8,2.9,1.6,4.3,2.4L292.5,534.8z
				 M745.2,533l-1-2.8c1.6-0.5,3.1-1.1,4.7-1.6l1,2.8C748.4,531.9,746.8,532.4,745.2,533z M283.8,529.8c-1.4-0.9-2.9-1.7-4.3-2.6
				l1.6-2.6c1.4,0.9,2.8,1.7,4.3,2.6L283.8,529.8z M275.3,524.6c-1.4-0.9-2.8-1.8-4.2-2.7l1.7-2.5c1.4,0.9,2.8,1.8,4.2,2.7
				L275.3,524.6z M266.9,519c-1.4-0.9-2.8-1.9-4.1-2.9l1.7-2.5c1.4,1,2.7,1.9,4.1,2.8L266.9,519z M258.7,513.3c-1.4-1-2.7-2-4-3
				l1.8-2.4c1.3,1,2.7,2,4,3L258.7,513.3z M250.7,507.2c-1.3-1-2.6-2.1-3.9-3.1l1.9-2.3c1.3,1,2.6,2.1,3.9,3.1L250.7,507.2z
				 M242.9,501c-1.3-1.1-2.6-2.1-3.8-3.2l1.9-2.3c1.3,1.1,2.5,2.1,3.8,3.2L242.9,501z M235.2,494.5c-1.3-1.1-2.5-2.2-3.7-3.3l2-2.2
				c1.2,1.1,2.5,2.2,3.7,3.3L235.2,494.5z M227.8,487.7c-1.2-1.1-2.4-2.3-3.6-3.5l2.1-2.2c1.2,1.1,2.4,2.3,3.6,3.4L227.8,487.7z
				 M220.5,480.8c-1.2-1.2-2.4-2.4-3.5-3.6l2.1-2.1c1.2,1.2,2.3,2.4,3.5,3.5L220.5,480.8z M213.5,473.6c-1.2-1.2-2.3-2.4-3.4-3.7
				l2.2-2c1.1,1.2,2.3,2.4,3.4,3.6L213.5,473.6z M206.7,466.2c-1.1-1.3-2.2-2.5-3.3-3.8l2.3-2c1.1,1.2,2.2,2.5,3.3,3.7L206.7,466.2z
				 M200.1,458.6c-1.1-1.3-2.2-2.6-3.2-3.9l2.3-1.9c1,1.3,2.1,2.6,3.2,3.8L200.1,458.6z M193.8,450.9c-1-1.3-2.1-2.6-3.1-3.9
				l2.4-1.8c1,1.3,2,2.6,3.1,3.9L193.8,450.9z M187.6,442.9c-1-1.3-2-2.7-3-4l2.4-1.8c1,1.3,2,2.7,3,4L187.6,442.9z M181.7,434.8
				c-1-1.4-1.9-2.7-2.9-4.1l2.5-1.7c0.9,1.4,1.9,2.7,2.9,4.1L181.7,434.8z M176,426.6c-0.9-1.4-1.9-2.8-2.8-4.2l2.5-1.6
				c0.9,1.4,1.8,2.8,2.7,4.2L176,426.6z M170.5,418.2c-0.9-1.4-1.8-2.8-2.7-4.3l2.6-1.6c0.9,1.4,1.7,2.8,2.6,4.2L170.5,418.2z
				 M165.3,409.6c-0.9-1.4-1.7-2.9-2.5-4.3l2.6-1.5c0.8,1.4,1.7,2.9,2.5,4.3L165.3,409.6z M160.2,400.9c-0.8-1.5-1.6-2.9-2.4-4.4
				l2.6-1.4c0.8,1.4,1.6,2.9,2.4,4.4L160.2,400.9z M155.4,392.1c-0.8-1.5-1.6-3-2.3-4.5l2.7-1.4c0.8,1.5,1.5,2.9,2.3,4.4
				L155.4,392.1z M150.9,383.2c-0.7-1.5-1.5-3-2.2-4.5l2.7-1.3c0.7,1.5,1.4,3,2.2,4.5L150.9,383.2z M146.5,374.1
				c-0.7-1.5-1.4-3.1-2.1-4.6l2.7-1.2c0.7,1.5,1.4,3,2.1,4.5L146.5,374.1z M142.4,365c-0.7-1.5-1.3-3.1-2-4.6l2.8-1.2
				c0.6,1.5,1.3,3,2,4.6L142.4,365z M138.5,355.7c-0.6-1.6-1.3-3.1-1.9-4.7l2.8-1.1c0.6,1.5,1.2,3.1,1.9,4.6L138.5,355.7z
				 M134.8,346.4c-0.6-1.6-1.2-3.2-1.8-4.7l2.8-1c0.6,1.5,1.1,3.1,1.7,4.7L134.8,346.4z M131.4,336.9c-0.6-1.6-1.1-3.2-1.6-4.7
				l2.8-1c0.5,1.5,1.1,3.1,1.6,4.7L131.4,336.9z M128.2,327.4c-0.5-1.6-1-3.2-1.5-4.8l2.9-0.9c0.5,1.6,1,3.1,1.5,4.8L128.2,327.4z
				 M125.2,317.8c-0.5-1.7-1-3.3-1.4-4.8l2.9-0.8c0.4,1.6,0.9,3.1,1.4,4.8L125.2,317.8z M122.5,308.2c-0.5-1.7-0.9-3.3-1.3-4.9
				l2.9-0.7c0.4,1.5,0.8,3.2,1.3,4.8L122.5,308.2z M120,298.4c-0.4-1.8-0.8-3.4-1.1-4.9l2.9-0.6c0.3,1.5,0.7,3.1,1.1,4.9L120,298.4z
				 M117.8,288.5c-0.4-2.1-0.7-3.8-0.9-5l3-0.5c0.2,1.2,0.5,2.9,0.9,4.9L117.8,288.5z M116,278.6c-0.4-1.6-0.7-3.3-1.1-4.9l2.9-0.6
				c0.3,1.6,0.7,3.2,1,4.9L116,278.6z M113.9,268.8c-0.3-1.6-0.6-3.3-1-4.9l2.9-0.6c0.3,1.6,0.6,3.3,1,4.9L113.9,268.8z M112,259
				c-0.3-1.7-0.6-3.3-0.9-4.9l3-0.5c0.3,1.6,0.6,3.3,0.8,4.9L112,259z M110.4,249.1c-0.3-1.7-0.5-3.3-0.7-5l3-0.4
				c0.2,1.6,0.5,3.3,0.7,4.9L110.4,249.1z M108.9,239.2c-0.2-1.7-0.4-3.3-0.6-5l3-0.4c0.2,1.6,0.4,3.3,0.6,4.9L108.9,239.2z
				 M107.8,229.2c-0.2-1.7-0.3-3.3-0.5-5l3-0.3c0.2,1.6,0.3,3.3,0.5,5L107.8,229.2z M106.8,219.2c-0.1-1.7-0.3-3.4-0.4-5l3-0.2
				c0.1,1.6,0.2,3.3,0.4,5L106.8,219.2z M106.2,209.2c-0.1-1.7-0.2-3.4-0.2-5l3-0.1c0.1,1.6,0.1,3.3,0.2,5L106.2,209.2z
				 M105.8,199.1c0-1.7,0-3.4,0-5l3,0c0,1.6,0,3.3,0,5L105.8,199.1z M108.8,189.2l-3,0c0-1.7,0.1-3.4,0.1-5l3,0.1
				C108.9,185.8,108.9,187.5,108.8,189.2z M109.2,179.2l-3-0.2c0.1-1.7,0.2-3.4,0.3-5l3,0.2C109.4,175.9,109.3,177.6,109.2,179.2z
				 M109.9,169.3l-3-0.3c0.2-1.7,0.3-3.3,0.5-5l3,0.3C110.2,166,110.1,167.7,109.9,169.3z M111,159.5l-3-0.4c0.2-1.7,0.5-3.3,0.7-5
				l3,0.5C111.5,156.2,111.3,157.8,111,159.5z M112.6,149.7l-2.9-0.5c0.3-1.7,0.6-3.3,1-4.9l2.9,0.6
				C113.2,146.4,112.9,148,112.6,149.7z M114.7,140l-2.9-0.7c0.4-1.6,0.8-3.3,1.2-4.9l2.9,0.8C115.5,136.8,115,138.4,114.7,140z
				 M117.2,130.4l-2.9-0.9c0.5-1.6,1-3.2,1.5-4.8l2.9,0.9C118.2,127.2,117.7,128.8,117.2,130.4z M120.3,121l-2.8-1
				c0.6-1.6,1.2-3.2,1.8-4.7l2.8,1.1C121.4,117.9,120.9,119.5,120.3,121z M123.9,111.8l-2.8-1.2c0.7-1.5,1.4-3.1,2.1-4.6l2.7,1.3
				C125.3,108.8,124.6,110.3,123.9,111.8z M128.1,102.9l-2.7-1.4c0.8-1.5,1.6-3,2.4-4.5l2.6,1.5C129.7,99.9,128.9,101.4,128.1,102.9
				z M132.9,94.2l-2.6-1.5c0.9-1.4,1.8-2.9,2.7-4.3l2.5,1.6C134.6,91.4,133.8,92.8,132.9,94.2z M138.3,85.9l-2.5-1.7
				c1-1.4,1.9-2.8,2.9-4.1l2.4,1.8C140.2,83.2,139.2,84.5,138.3,85.9z M144.2,78l-2.3-1.9c1-1.3,2.1-2.6,3.2-3.9l2.3,2
				C146.3,75.4,145.2,76.7,144.2,78z M150.6,70.5l-2.2-2c1.1-1.2,2.3-2.5,3.5-3.6l2.1,2.1C152.9,68.1,151.7,69.3,150.6,70.5z
				 M157.6,63.5l-2.1-2.2c1.2-1.1,2.5-2.3,3.7-3.4l2,2.3C160,61.2,158.8,62.4,157.6,63.5z M165,57l-1.9-2.3c1.3-1.1,2.6-2.1,3.9-3.1
				l1.8,2.4C167.5,54.9,166.3,55.9,165,57z M172.8,50.9l-1.8-2.4c1.3-1,2.7-1.9,4.1-2.9l1.7,2.5C175.5,49,174.1,50,172.8,50.9z
				 M181,45.4l-1.6-2.5c1.4-0.9,2.9-1.8,4.3-2.6l1.5,2.6C183.8,43.6,182.4,44.5,181,45.4z M545.4,43.1c-1.4-0.4-3-0.9-4.8-1.4
				l0.8-2.9c1.8,0.5,3.4,1,4.8,1.4L545.4,43.1z M535.8,40.4c-1.5-0.4-3.1-0.9-4.8-1.3l0.8-2.9c1.7,0.5,3.3,0.9,4.8,1.3L535.8,40.4z
				 M189.6,40.3l-1.5-2.6c1.4-0.8,2.9-1.6,4.4-2.4l1.4,2.7C192.5,38.7,191,39.5,189.6,40.3z M526.1,37.7c-1.6-0.4-3.2-0.8-4.8-1.3
				l0.8-2.9c1.7,0.4,3.3,0.9,4.8,1.3L526.1,37.7z M198.4,35.7L197,33c1.5-0.7,3-1.4,4.6-2.1l1.2,2.7C201.3,34.3,199.8,35,198.4,35.7
				z M516.5,35.2c-1.6-0.4-3.2-0.8-4.8-1.2l0.7-2.9c1.7,0.4,3.3,0.8,4.9,1.2L516.5,35.2z M506.8,32.8c-1.6-0.4-3.2-0.8-4.9-1.2
				l0.7-2.9c1.7,0.4,3.3,0.8,4.9,1.2L506.8,32.8z M207.4,31.6l-1.2-2.8c1.5-0.7,3.1-1.3,4.7-1.9l1.1,2.8
				C210.4,30.4,208.9,31,207.4,31.6z M497.1,30.5c-1.6-0.4-3.2-0.7-4.9-1.1l0.7-2.9c1.7,0.4,3.3,0.7,4.9,1.1L497.1,30.5z
				 M487.3,28.3c-1.6-0.4-3.2-0.7-4.9-1.1l0.6-2.9c1.7,0.4,3.3,0.7,4.9,1.1L487.3,28.3z M216.6,28l-1-2.8c1.6-0.6,3.1-1.1,4.7-1.7
				l1,2.8C219.7,26.8,218.1,27.4,216.6,28z M477.6,26.2c-1.6-0.3-3.2-0.7-4.9-1l0.6-2.9c1.7,0.3,3.3,0.7,4.9,1L477.6,26.2z
				 M226,24.7l-0.9-2.9c1.6-0.5,3.2-1,4.8-1.5l0.9,2.9C229.1,23.7,227.6,24.2,226,24.7z M467.8,24.3c-1.6-0.3-3.3-0.6-4.9-0.9
				l0.6-2.9c1.7,0.3,3.3,0.6,4.9,0.9L467.8,24.3z M458,22.4c-1.6-0.3-3.3-0.6-4.9-0.9l0.5-3c1.7,0.3,3.3,0.6,4.9,0.9L458,22.4z
				 M235.5,21.8l-0.8-2.9c1.6-0.4,3.2-0.9,4.9-1.3l0.8,2.9C238.7,21,237.1,21.4,235.5,21.8z M448.1,20.7c-1.6-0.3-3.3-0.6-4.9-0.8
				l0.5-3c1.7,0.3,3.3,0.6,4.9,0.8L448.1,20.7z M245.1,19.3l-0.7-2.9c1.6-0.4,3.3-0.8,4.9-1.1l0.6,2.9
				C248.3,18.6,246.7,19,245.1,19.3z M438.3,19c-1.6-0.3-3.3-0.5-4.9-0.8l0.5-3c1.7,0.3,3.3,0.5,4.9,0.8L438.3,19z M428.4,17.5
				c-1.6-0.2-3.3-0.5-4.9-0.7l0.4-3c1.7,0.2,3.3,0.5,5,0.7L428.4,17.5z M254.8,17.2l-0.6-2.9c1.6-0.3,3.3-0.7,4.9-1l0.6,2.9
				C258.1,16.5,256.4,16.9,254.8,17.2z M418.5,16.1c-1.6-0.2-3.3-0.4-4.9-0.7l0.4-3c1.7,0.2,3.3,0.4,5,0.7L418.5,16.1z M264.6,15.4
				l-0.5-3c1.6-0.3,3.3-0.6,5-0.8l0.5,3C267.9,14.8,266.2,15.1,264.6,15.4z M408.6,14.8c-1.6-0.2-3.3-0.4-5-0.6l0.3-3
				c1.7,0.2,3.3,0.4,5,0.6L408.6,14.8z M274.4,13.8l-0.4-3c1.7-0.2,3.3-0.5,5-0.7l0.4,3C277.7,13.4,276.1,13.6,274.4,13.8z
				 M398.7,13.7c-1.6-0.2-3.3-0.3-5-0.5l0.3-3c1.7,0.2,3.3,0.3,5,0.5L398.7,13.7z M388.8,12.7c-1.7-0.2-3.3-0.3-5-0.4l0.3-3
				c1.7,0.1,3.3,0.3,5,0.4L388.8,12.7z M284.3,12.6l-0.3-3c1.7-0.2,3.3-0.4,5-0.5l0.3,3C287.6,12.2,286,12.4,284.3,12.6z
				 M378.9,11.8c-1.7-0.1-3.3-0.3-5-0.4l0.2-3c1.7,0.1,3.3,0.2,5,0.4L378.9,11.8z M294.2,11.6l-0.3-3c1.7-0.1,3.3-0.3,5-0.4l0.2,3
				C297.5,11.3,295.9,11.5,294.2,11.6z M368.9,11.1c-1.7-0.1-3.3-0.2-5-0.3l0.2-3c1.7,0.1,3.3,0.2,5,0.3L368.9,11.1z M304.2,10.9
				l-0.2-3c1.7-0.1,3.3-0.2,5-0.3l0.2,3C307.5,10.7,305.8,10.8,304.2,10.9z M359,10.6c-1.7-0.1-3.3-0.1-5-0.2l0.1-3
				c1.7,0.1,3.3,0.1,5,0.2L359,10.6z M314.2,10.4l-0.1-3c1.7-0.1,3.3-0.1,5-0.2l0.1,3C317.5,10.2,315.8,10.3,314.2,10.4z
				 M349.1,10.2c-1.7,0-3.3-0.1-5-0.1l0.1-3c1.7,0,3.3,0.1,5,0.1L349.1,10.2z M324.1,10.1l-0.1-3c1.7,0,3.3-0.1,5-0.1l0,3
				C327.5,10,325.8,10,324.1,10.1z M339.1,10c-1.7,0-3.3,0-5,0l0-3c1.7,0,3.3,0,5,0L339.1,10z"/>
		</g>
		<g>
			<rect x="754" y="526.4" transform="matrix(0.944 -0.3301 0.3301 0.944 -131.9142 278.876)" class="st3" width="2.5" height="3"/>
		</g>
	</g>
	<g>
		<rect x="185.6" y="84.1" class="st4" width="327.2" height="286.2"/>
		<rect x="193.3" y="92.7" class="st5" width="307.7" height="270.7"/>
		<rect x="193.3" y="172.4" class="st4" width="307.7" height="8.6"/>
		<rect x="193.3" y="268" class="st4" width="307.7" height="8.6"/>
		<rect x="284.7" y="92.7" class="st6" width="7.6" height="270.7"/>
		<rect x="397.2" y="92.7" class="st6" width="7.6" height="270.7"/>
		<polygon class="st5" points="250.4,92.7 193.3,363.4 221.8,363.4 278.5,92.7 		"/>
		<polygon class="st5" points="323.2,92.7 267.3,363.4 319.7,363.4 372,92.7 		"/>
		<polygon class="st5" points="422.4,96.1 367.9,363.4 435.8,363 480.6,92.7 		"/>
	</g>
	<ellipse class="st7" cx="497.3" cy="641.9" rx="223.3" ry="19.3"/>
	<g>
		<rect x="162.3" y="419.3" class="st8" width="384.5" height="13"/>
		<rect x="189.8" y="432.3" class="st8" width="8" height="135.4"/>
		<rect x="236.8" y="432.2" class="st8" width="8" height="135.4"/>
		<path class="st9" d="M275.4,419.3H121.5c-7.8,0-14.2-6.4-14.2-14.2V398c0-7.8,6.4-14.2,14.2-14.2h153.9c7.8,0,14.2,6.4,14.2,14.2
			v7.1C289.6,412.9,283.2,419.3,275.4,419.3z"/>
		<path class="st9" d="M452.2,419.3H298.3c-7.8,0-14.2-6.4-14.2-14.2V398c0-7.8,6.4-14.2,14.2-14.2h153.9c7.8,0,14.2,6.4,14.2,14.2
			v7.1C466.4,412.9,460,419.3,452.2,419.3z"/>
		<path class="st9" d="M179.8,383.8H121c-3,0-5.4-2.4-5.4-5.4v-2.7c0-3,2.4-5.4,5.4-5.4h58.8c3,0,5.4,2.4,5.4,5.4v2.7
			C185.3,381.3,182.8,383.8,179.8,383.8z"/>
	</g>
	<g>
		<path class="st10" d="M615.2,610.7l11.5,14.9c0,0,8,14.9-11.5,10.3c0,0-26.6-11.5-30.2-20.6C585,615.3,603.3,606.1,615.2,610.7z"
			/>
		<path class="st10" d="M503.5,611l-7.6,17.2c0,0-4.2,16.4,13.6,7.3c0,0,23.1-17.5,24.4-27.3C533.9,608.3,513.9,603.7,503.5,611z"/>
		<path class="st11" d="M602.6,408.6c0,0,11.1,53.9,4.6,84.8l8.4,69.2c0,0,6.1,19.5,3.1,32.1c0,0,5.2,11.8,0.9,21
			c0,0-12.7-7.6-32.2,4.6l-4.6,2.3l-2.3-29.8l-6.5-22.9l-20.3-121.1l-4.6,19.5l-14.1,147.9l-31.7-4.6c0,0,2.1-203.7,14.6-221.1
			L602.6,408.6z"/>
		<path class="st12" d="M668.7,138.8c0,0,3.1-14.9-7.6-21c-10.7-6.1-27.5-7.9-39.7,11.5s-17.6,59.6-31.3,66.8h6.5l-2.7,4.6l12.2,3.1
			l9.7-15.2L668.7,138.8z"/>
		<path class="st13" d="M523.5,255.3L517,279l-34.4,18l15.7,14.9l25.2-14.9c0,0,19.1-6.9,23.3-29.8L523.5,255.3z"/>
		<path class="st14" d="M653,194.1l-13,9.6v31.3l13-2.3v-25.6l3.4,5C656.5,212.1,659.5,197.9,653,194.1z"/>
		<path class="st13" d="M618.4,186l-14.3,20.4c0,0,9.9,35.9,18.3,43.9c0,0,22.9-19.5,22.5-29l-5-3.1v-14.4L618.4,186z"/>
		
			<ellipse transform="matrix(0.3734 -0.9277 0.9277 0.3734 235.7312 677.1693)" class="st13" cx="619.1" cy="164.1" rx="9" ry="6.6"/>
		
			<ellipse transform="matrix(0.3734 -0.9277 0.9277 0.3734 241.5515 704.2952)" class="st13" cx="642.1" cy="173.3" rx="35" ry="25.8"/>
		<path class="st15" d="M619.8,160.2c0,0,19.6-3.3,28.6-10.7c0,0,4.6,12.2,15.7,19.5c11.1,7.3-4.5,25.2-4.5,25.2s16.3-16.4,18.6-26
			c2.3-9.6,3.8-24.8-9.2-33.2c-7.2-4.7-17.1-5.7-24.5-5.7c-9.5,0-18.5,5-23,13.3C619.1,147.2,617.7,153.1,619.8,160.2z"/>
		<path class="st16" d="M608.3,203.7c0,0-19.9-5-28.7-4.6c-8.8,0.4-18.7,0-32.5,15.5c-13.8,15.5-30.2,42.6-30.2,42.6l24.1,16.1
			c0,0,3.4-0.4,0.4,9.6c-3.1,9.9-24.5,111.7-24.5,111.7l87.1,20.1c0,0,10.3-94.4,22.2-107.8l32.9,2.3l6.9-49.7c0,0,3.1-22.5-13-30.2
			c0,0-2.3-5.9-13-11.2c0,0-9.8,21-15.5,24.2C624.6,242.3,604.9,217.5,608.3,203.7z"/>
	</g>
	<path class="st17" d="M575,573.7c0,0-4.6,32.8-40.9,54.2c-13,7.7-30.1,13.9-52.5,16.6c-84.8,10.3-113.5-37.7-113.5-37.7
		c-26.2-40.5-9.9-81.6,5-105.8c10-16.2,26.2-27.9,44.8-32.1c13.1-3,28.5-4,48.5-2.5c13.9,1,30.1,3.4,49.3,7.2
		C584.7,487.5,575,573.7,575,573.7z"/>
	<path class="st18" d="M575,573.7c0,0-4.6,32.8-40.9,54.2c4.6-22.6,8.1-50.1,7.4-79.8c-0.9-37.9-37.4-64.4-75-81.6
		c13.9,1,30.1,3.4,49.3,7.2C584.7,487.5,575,573.7,575,573.7z"/>
	<ellipse class="st19" cx="391.6" cy="562.4" rx="25.2" ry="44.5"/>
	<path class="st20" d="M668.3,571.4l10.3,9.6c0,0,23.7-25.6,18.7-26.8c-1.8-0.4-4.8-1.4-8-2.4c-5.7-1.9-11.8-4.1-11.8-4.1
		L668.3,571.4z"/>
	<path class="st20" d="M473,266.1c0,0-12.7,24.5-15,26.7c-2.3,2.3,38.7,31.7,38.7,31.7s10.5-27.8,6.5-31.7c-7.7-7.5-5.5-10.2-6.9-15
		L473,266.1z"/>
	<ellipse class="st20" cx="488.4" cy="251.9" rx="21.6" ry="32.9"/>
	<path class="st21" d="M500.5,229.3c0,0-18.3,3.8-23.7,13.8c-5.4,9.9-7.6,37.5-7.6,37.5l-19.9-3.8c0,0-10.7-5.7-5.4-21.4
		s12.2-29.8,12.2-29.8s14.5-22.5,34-14.9c19.5,7.6,22.9,24.5,22.9,24.5s7.4,24.8-3.2,42.8l-6.8-2
		C503.2,275.9,519.3,241.2,500.5,229.3z"/>
	<path class="st22" d="M523.1,437.2l70.7,47.4c0,0,30.2,26.4,47,32.1c16.8,5.7,29.8,21,29.8,21l18.7,11.5L674,577.9
		c0,0-3.1-1.9-10.3-5.7c-7.3-3.8-16.4-3.8-22.2-10.3s-76.7-46-76.7-46l-88.8-52.6c0,0-21.3-30.5,6.5-31
		C510.3,431.8,523.1,437.2,523.1,437.2z"/>
	<path class="st20" d="M543.3,609.4v17.7c0,0,38.1-1.3,35.5-8.9c-2.6-7.6-11.8-17.5-11.8-17.5L543.3,609.4z"/>
	<path class="st22" d="M541.4,623.1c0,0,23.7-1.7,27.1-4.4c0,0,0.5-9.8,5.4-9.3c4.9,0.5,12.6,11.9,26.2,18.9l12.2,6.4
		c0,0,11.9,5.8-3,7s-39.5-2.5-47.3-4.9c-7.8-2.4-18.9-2.8-18.9-2.8S541.4,629.4,541.4,623.1z"/>
	<path class="st23" d="M424.5,435.5c0,0-3.1,34.2,11.8,44.5c14.9,10.3,41.6,20.3,64.6,22.5c22.9,2.3,26.4,11.5,23.7,26.4
		s10.5,85.2,10.5,85.2s26,0.4,35.7-9.5l-2.7-86c0,0,7.6-32.9-4.2-40.5c-11.8-7.6-54-27.9-54-27.9S455.1,423.1,424.5,435.5z"/>
	<path class="st24" d="M458,287c0,0-25.1,4.6-34.3,14.1s-20.6,25.2-20.6,25.2s9.9,11.8,24.1,16.8c0,0,4.6,27.1,8.8,34.4
		c4.2,7.3-1.9,14.5-1.9,14.5s-1.9,6.5-0.8,15.7s-8,21.8-8,21.8l-1.1,9.2c0,0,20.9,8,42.8,4.2c21.8-3.8,40.4,8,40.4,8s14.7,8,17.4-5
		s1.9-23.7,1.9-23.7s7.3-20.7,1.5-27.7c0,0,3.6-21.8,2.2-24.3c-1.4-2.6,13.8-17.8,10.4-32l4.6,1.1c0,0,5.7-30.6,14.9-30.2
		c0,0-11.2-9.9-36.7-15.1l-24.1-5.9l-5.4,28.7c0,0-34.3-24.1-32.5-29.8H458z"/>
	<path class="st22" d="M674,577.9c0,0,7.6-0.4,15.3-13.6c0,0-4.5-10.5,2.7-11.7c7.2-1.1,35.1-5,35.1-5s24.1-5.4,6.1,9.2
		c-18,14.5-38.2,24.1-38.2,24.1l-11.9,7.6C683.2,588.6,673.3,585.5,674,577.9z"/>
	<g>
		<path class="st25" d="M707,577.1c-0.6,0-1.2-0.2-1.7-0.7L485.7,373.2c-1.7-1.6-2.3-4.2-1.5-6.8c0.7-2.4,2.4-4,4.5-4.4l47.5-7.4
			c2.3-0.4,4,1.6,5,2.8c0.1,0.1,0.2,0.3,0.3,0.4L703,548.4c0.9,1.1,0.8,2.6-0.3,3.5s-2.6,0.8-3.5-0.3L537.7,361.1
			c-0.1-0.1-0.2-0.3-0.4-0.5c-0.2-0.3-0.6-0.7-0.8-0.9l-47,7.3c0,0-0.3,0.3-0.5,0.9c-0.2,0.8-0.1,1.5,0.1,1.7l219.5,203.2
			c1,0.9,1.1,2.5,0.1,3.5C708.3,576.8,707.6,577.1,707,577.1z M537,359.6L537,359.6C537,359.6,537,359.6,537,359.6z"/>
	</g>
	<path class="st20" d="M403.1,326.4l-15.3,21.4c0,0-13.4,13.8,5.4,18.3c18.7,4.6,35.9,8,60.8,0l28.7,0.8c0,0,5.4,6.5,14.1-0.8
		c0,0,7.6-3.4,2.3-11.5c0,0-5.4-5.7-25.2-2.7l-20.3-1.5c0,0-14.5-6.8-24.5-5.1s-6.9,2.4-6.9,2.4l5-4.5L403.1,326.4z"/>
	<path class="st20" d="M557,306.9l23,14.9c0,0,18.4,10.3,9.9,17.6c-8.5,7.3-9.9,12.2-29.8,14.5c-19.9,2.3-26.8,4.2-26.8,4.2
		s-5.4,8.4-16.4,3.8l-2.3-10.3c0,0-1.5-6.5,9.9-8s28.8-8.5,28.8-8.5h-11.2C542.2,335.1,546.7,300.2,557,306.9z"/>
	<path class="st13" d="M651.5,318c0,0-11.5,27.3-43.2,39.4c-30.4,11.5-37.1,14.9-37.1,14.9s-8.8,14.1-19.5,11.1l-12.8-11.1
		c0,0-4.7-3.4,6-9.6c0,0,0.8-8.4,9.6-8c8.8,0.4,11.5,2.7,11.5,2.7s28.7-21,42-24.5c0,0,11.1-9.2,18.3-26h7.3l21.4,2L651.5,318z"/>
	<path class="st26" d="M311.1,604.8c0,20.5-16.6,37.1-37.1,37.1c-13.1,0-24.6-6.8-31.2-17c-3.8-5.8-5.9-12.7-5.9-20.1
		c0-20.5,16.6-37.1,37.1-37.1c7,0,13.6,1.9,19.1,5.3C303.9,579.5,311.1,591.3,311.1,604.8z"/>
	<path class="st27" d="M299,593.1c0,20.5-16.6,37.1-37.1,37.1c-7,0-13.6-1.9-19.1-5.3c-3.8-5.8-5.9-12.7-5.9-20.1
		c0-20.5,16.6-37.1,37.1-37.1c7,0,13.6,1.9,19.1,5.3C296.9,578.7,299,585.6,299,593.1z"/>
	<path class="st28" d="M169.1,561.1c-24.6,0-44.5-19.9-44.5-44.5c0-15.7,8.1-29.5,20.4-37.4c6.9-4.5,15.2-7.1,24.1-7.1
		c24.6,0,44.5,19.9,44.5,44.5c0,8.4-2.3,16.2-6.4,22.9C199.5,552.5,185.3,561.1,169.1,561.1z"/>
	<path class="st27" d="M183.2,546.7c-24.6,0-44.5-19.9-44.5-44.5c0-8.4,2.3-16.2,6.4-22.9c6.9-4.5,15.2-7.1,24.1-7.1
		c24.6,0,44.5,19.9,44.5,44.5c0,8.4-2.3,16.2-6.4,22.9C200.3,544.1,192.1,546.7,183.2,546.7z"/>
	<g>
		<ellipse class="st29" cx="327.7" cy="637.1" rx="10.1" ry="11.9"/>
		<ellipse class="st30" cx="327.7" cy="637.1" rx="8.3" ry="9.8"/>
		<path class="st29" d="M325.8,640.9l-28,2.7c-1.2,0.1-2.3-0.8-2.4-2l-0.1-1.1c-0.1-1.2,0.8-2.3,2-2.4l28-2.7c1.2-0.1,2.3,0.8,2.4,2
			l0.1,1.1C327.8,639.7,327,640.8,325.8,640.9z"/>
		<ellipse class="st29" cx="290.5" cy="640.8" rx="10.1" ry="11.9"/>
		<ellipse class="st30" cx="290.5" cy="640.8" rx="8.3" ry="9.8"/>
	</g>
	<g>
		<ellipse class="st29" cx="314.2" cy="655.1" rx="11.2" ry="13.2"/>
		<ellipse class="st30" cx="314.2" cy="655.1" rx="9.2" ry="10.9"/>
		<path class="st29" d="M312.1,659.3l-31.1,3c-1.3,0.1-2.5-0.8-2.7-2.2l-0.1-1.2c-0.1-1.3,0.8-2.5,2.2-2.7l31.1-3
			c1.3-0.1,2.5,0.8,2.7,2.2l0.1,1.2C314.4,657.9,313.4,659.1,312.1,659.3z"/>
		<ellipse class="st29" cx="272.9" cy="659.2" rx="11.2" ry="13.2"/>
		<ellipse class="st30" cx="272.9" cy="659.2" rx="9.2" ry="10.9"/>
	</g>
	<path class="st31" d="M189.8,567.6"/>
	
		<ellipse transform="matrix(0.7071 -0.7071 0.7071 0.7071 39.3031 605.5114)" class="st0" cx="750.6" cy="255.3" rx="41.4" ry="76.1"/>
	
		<ellipse transform="matrix(0.7071 -0.7071 0.7071 0.7071 109.126 542.5442)" class="st0" cx="709.5" cy="139.5" rx="17.6" ry="32.3"/>
	<ellipse transform="matrix(0.7071 -0.7071 0.7071 0.7071 123.4855 466.2515)" class="st0" cx="624.6" cy="84.1" rx="12" ry="22"/>
	<ellipse transform="matrix(0.7071 -0.7071 0.7071 0.7071 131.2402 418.5552)" class="st0" cx="570.9" cy="50.9" rx="8.7" ry="16"/>
</g>
</svg>
