<svg version="1.1" id="Layer_1" xmlns="http://www.w3.org/2000/svg" xmlns:xlink="http://www.w3.org/1999/xlink" x="0" y="0" viewBox="0 0 1000 805" style="enable-background:new 0 0 1000 805" xml:space="preserve"><style>.st0{fill:#cfb5f6}.st1{fill:#e3d4f9}.st3{fill:#fff}.st4{opacity:.46;fill:#e4d4fa;enable-background:new}.st6{fill:#3d3d3d}.st8{fill:#6b6b6b}.st9{fill:#e8ab69}.st11{fill:#7e3f12}.st12{fill:#f9c984}.st13{fill:#141414}.st17{fill:#616161}.st22{fill:#232121}.st23{fill:#fdbf9e}.st24{fill:#e89207}.st25{fill:#3b2828}.st28{fill:#54af86}.st29{fill:#46916b}.st30{fill:#8ab79d}.st31{fill:#414042}.st32{fill:#e6e7e8}.st35{fill:#191919}.st38{fill:#d1d3d4}</style><path class="st0" d="M220.2 790c-14.6-.4-28.6-6.1-39.4-16C134.8 731.3 14 604.7 14 453.3c0-187 63.2-242.1 150.6-292.8s229.1-7.4 260.2-70.3 262-143.9 387.5-41.7S951.2 251.3 956.4 304c5.2 52.8-45.3 220 0 293.5 45.3 73.4 1.9 175.5-65.5 191.9-59.8 14.6-559.5 3.3-670.7.6z"/><path class="st0" d="M213.2 769.8S38.1 628.1 38.1 450.4s60.1-230 143-278.2 217.7-7 247.2-66.7S677.1-31.1 796.4 66.1s132 192.6 136.9 242.7-43.1 209 0 278.8c43.1 69.7 1.8 166.7-62.2 182.3s-657.9-.1-657.9-.1z"/><path class="st1" d="M233.3 743.3S70.7 611.7 70.7 446.7s55.8-213.6 132.8-258.3 202.1-6.5 229.5-62S664.1-.5 774.9 89.8 897.4 268.6 902 315.2s-40 194.1 0 258.9 1.6 154.8-57.8 169.3c-59.4 14.4-610.9-.1-610.9-.1z"/><defs><path id="SVGID_1_" d="M213.2 769.8S38.1 628.1 38.1 450.4s60.1-230 143-278.2 217.7-7 247.2-66.7S677.1-31.1 796.4 66.1s132 192.6 136.9 242.7-43.1 209 0 278.8c43.1 69.7 1.8 166.7-62.2 182.3s-657.9-.1-657.9-.1z"/></defs><clipPath id="SVGID_2_"><use xlink:href="#SVGID_1_" style="overflow:visible"/></clipPath><g style="clip-path:url(#SVGID_2_)"><path class="st0" d="M26.4 656.7h977.3v113.1H26.4z"/><path class="st1" d="M26.4 124.6h977.3v532.1H26.4z"/><path class="st0" d="M313.7 124.6h398.1v359.1H313.7z"/><path class="st3" d="M322.9 133h379.6v342.4H322.9z"/><path class="st0" d="M506.6 133h12v342.4h-12z"/><path class="st0" d="M322.9 299.6h379.6v9.1H322.9z"/><path class="st4" d="M322.9 406.9 594.5 133h73.9L322.9 475.3zM381.8 475.3c6.8 0 320.7-305.6 320.7-305.6v91.6l-221.3 214h-99.4z"/><ellipse cx="506.4" cy="710.9" rx="468.3" ry="22.2" style="opacity:.13;fill:#231f20;enable-background:new"/><path class="st6" d="M39.9 374.4s5.3-5.4 9.7-2 19.5 28.9 23.3 52.6c0 0 6 20.2 4.9 32.3-1.1 12.1 2.7 29.7-13.2 30.3L39.9 374.4z"/><path style="fill:none;stroke:#e8ab69;stroke-width:5;stroke-linecap:round;stroke-linejoin:round;stroke-miterlimit:10" d="m80.6 553.4-39-179"/><path class="st6" d="M82.1 556.7s-10.8-25 25.8-29.6c26.6-3.3 51.6-2.6 63-2.1 6 .3 11.7 2 16.9 4.8 8.5 4.6 18.7 13.2 15.1 27l-120.8-.1z"/><path class="st8" d="M88.1 553.8v59.1s1.3 36.2-11.3 78.4c0 0-9.6 25.1-12.2 28.8l3 2.3s18.5-35 21.7-60.8l6.1-79.2 1.5-29.1-8.8.5zM194.1 553.8v59.1s-1.3 36.2 11.3 78.4c0 0 9.6 25.1 12.2 28.8l-3 2.3s-18.5-35-21.7-60.8l-6.1-79.2-1.5-29.1 8.8.5zM138 553.8h7.8l-3.7 168.6h-1.6z"/><path class="st9" d="M78.5 549.7h125v8.2h-125z"/><path class="st8" d="M88 619.7h102.3v4.1H88z"/><g><path d="m145.5 386.8 30.8 56s10.2 11.6 23 6.3l59.2-9.3s14.7-.6 19.2-6.8 5.4-15.3-4.8-12.5c-6.8 1.8-10.1.5-11.5-.7-1-.7-2.3-.9-3.4-.4-2.1.8-5.1 2.7-6.8 7l-44.4 5.7s-13.9-1.5-17.8-10.2c-3.9-8.7-26.6-45.2-26.6-45.2l-16.9 10.1z" style="fill:#e2af6d"/><path class="st11" d="m142.2 253.4 13.4 18.3s3.3 18.2 2.7 28.4c-.6 10.2-14 20.9-10.3 34.1s12.1 39.2-16 50.3c-14.2 5.6-28.4 5.6-39 4.1-11.3-1.5-21.7-7.4-28.8-16.5-4.9-6.3-9.5-14-9.7-20.4-.3-13.5-6.3-17.6 17.6-40.1 16.7-15.7 18.9-30.3 18.6-37.8-.1-4 1.1-8 3.2-11.4 3.4-5.3 8.6-12.7 13.8-16.9 8.7-7.1 30.2-2.4 30.2-2.4l4.3 10.3z"/><ellipse class="st12" cx="133.5" cy="280.5" rx="22.9" ry="33.4"/><path class="st12" d="M116.1 302.1v36.6l-1.4 9.6 17.3 28.4 23-9-14.1-38.3-7.4-.3s-2.1-15 0-21.8-17.4-5.2-17.4-5.2zM222.8 688.4s-2.3 7.8 1.6 13.9 12.3 17 16.3 15.1c4-2.1 0-11.9 0-11.9l-5.4-19.3-12.5 2.2z"/><path class="st13" d="M240.6 704.6s5.8 13.5-5.5 6.3l-12.5-17s-4.2 3.2-3.3 8.1l1.1 19.5h1.6v-8.6s.4-2.6 1.5-3.7c5.5 6.7 14.7 15.3 14.7 15.3s11.4 8 13.9 3.3c2.3-4.8-11.5-23.2-11.5-23.2z"/><path class="st12" d="M320.7 650.1s1.1 8.1 6.9 12.1c5.9 4 18.1 10.8 21 7.3 2.9-3.4-4.7-11-4.7-11L331.3 643l-10.6 7.1z"/><path class="st13" d="M343.4 657.8s10.7 10.1-2.5 7.9L322.7 655s-2.5 4.7.1 8.8l8.7 17.5 1.5-.6-3.4-7.9s-.7-2.5-.2-4c7.6 4 19.6 8.2 19.6 8.2s13.7 2.8 14.1-2.4c.3-5.4-19.7-16.8-19.7-16.8z"/><path d="M188.3 525.6s34.1 6.8 33.2 23.3c-.9 16.6-4.5 56.1-4.5 56.1l1.4 88.3h24.9l17.3-105s19.4-40.8 0-49.8c-19.4-8.9-35.6-21.9-35.6-21.9l-36.7 9z" style="fill:#355b87"/><path d="M88.3 476.1s-11.7 21.7 3.5 40.5c15.3 18.9 74.4 20.6 74.4 20.6s42.8.2 69.1-2.9c26.2-3.1 35.7 11.6 33 21.5s16.3 39.7 16.3 39.7l30.9 64.6 21.1-13-32.6-91-10.9-31.4s.5-24.8-17.9-27.7-85.2-13-85.2-13l-34.4-17.3-67.3 9.4z" style="fill:#4570ad"/><path d="M121.2 330.6 100.9 341s-16.6 2.2-15.9 18 8.1 43.3 9.4 43.6c1.2.3 14.1-6.6 21.7-10.2l-16.9 51.8-12.2 36s56 13 80.1-9.7c0 0-9.6-34.7-5.1-50.3s8.4-20.1 8.4-20.1 7.1-9 0-19.5-16.7-33.2-16.7-33.2-1.8-19.8-10.2-19.8-9.9 1.2-9.9 1.2 15.8 17.9 9.9 26c-6 8.3-25.2 3-22.3-24.2z" style="fill:#ff4d53"/><path class="st11" d="M142.2 261.2s-4.8 9.6-14.1 17.6-8.1 28.6-8.1 28.6 5.3 40.7-6.2 48.1c-1.2.8-2.4 1.6-3.5 2.4-3.3 2.6-11.3 7.5-22.5 4.4-15-4.2 20.9-113.4 20.9-113.4l23.3-6s14.1.1 18.6 8.7 5 20.1 5 20.1l-13.4-10.5z"/><path class="st17" d="m296.9 408.9 15.8 15c1.6 1.6 1.3 4.2-.8 5.2l-73.1 37.3c-1.7.9-3.7.1-4.4-1.7l-9.2-22.1c-.7-1.6.1-3.4 1.7-4.1l66.5-30.1c1.1-.6 2.6-.4 3.5.5z"/><path class="st3" d="m295.7 408.8 14 13.8c1.5 1.4 1.1 3.8-.7 4.8l-64.8 34.3c-1.5.8-3.2.1-3.9-1.5l-8.2-20.3c-.6-1.5.1-3.1 1.5-3.8l58.9-27.8c1.2-.5 2.4-.3 3.2.5z"/><path class="st17" d="m298.6 414.7 5-2.2c.6-.4 1.5-.3 2.1.2l3.4 3.1c.8.7.7 2.1-.2 2.6l-4.2 2.8-6.1-6.5z"/><path d="M306.7 413.5s2-4.6 5.2-1.7c3 2.7-3.8 3.9-3.8 3.9" style="fill:none;stroke:#616161;stroke-width:2;stroke-linecap:round;stroke-miterlimit:10"/><path style="fill:none;stroke:#616161;stroke-width:2;stroke-linecap:round;stroke-linejoin:round;stroke-miterlimit:10" d="m212 386.1 39.5 34.8"/><path class="st12" d="m94.4 402.7 27.2 56s7.7 14.1 25.4 3.6c17.6-10.5 74.7-38.5 74.7-38.5s13.5 3.1 21.5-12.7c0 0-2.7-11.8-12-8.6-9.3 3.3-14.6 6.1-16.3 10-1.8 3.9-7.7 4.5-7.7 4.5l-58 19.4s-12.5 5.1-15.6 2.3c-3-2.7-17.4-46.1-17.4-46.1l-21.8 10.1z"/></g><g><path class="st9" d="M426.5 645.4s-6.8 53.4-22.4 65.9c0 0 1.4 9 22.4-15.8 0 0 18.4-32.8 26-57.9l-26 7.8zM460.5 632.8s-7.1 39.2-19.3 48.5c0 0-6.3 6.8 3.6 3.6 0 0 34.5-35.2 36.3-52.1h-20.6zM789 637.7l23.3 5.3s6.3 38.7 19.3 44.5l-6.3 2.3s-26-20.2-36.3-52.1zM836.1 646.7h26s3.6 52 20.6 66.2l-4.9 2s-39.4-31.4-41.7-68.2z"/><path class="st9" d="M363 619.7s6.1 20 32.5 21.2c0 0 69-8.7 92.3-15.6 4-1.2 8.3-1.4 12.3-2.4 24.9-6.7 100.7-11.7 114.7-11.1 17.9.9 95.6-2.7 142.2 10.7 0 0 78.9 11.8 94.7 15.8l26 2v11s-54.7 3.7-87.9-8.2c0 0-79.8-18.3-92.8-15.6 0 0-130.6-5.9-160.6.9l-83 14.7s-56.9 16-72.7 8.8c0-.2-23.8-.4-17.7-32.2z"/><path d="M404.1 565.9 363 619.7s-14.9 37.3 94.4 12.2c96.5-22.1 172.3-20.3 172.3-20.3l81.7 2.8 83.1 14.9 50.6 8.2 32.8 2.4s4-78.3 32.3-113.7l77-110.7s19.6-48 0-52c0 0-11.4-11.6-24.9 8.5 0 0-85.7 93.7-86.6 111.7l-31.4 78.1s-3.6 26.5-20.2 13c0 0-84.8-22-160.1-21.5 0 0-102.7.9-134.6 14.8-.2.1-121.3 32.4-125.3-2.2z" style="fill:#8299cc"/><path d="M453.4 526.5s-49.3 21.9-49.3 39.5c0 23.3 51.1 15.4 51.1 15.4s44.3-3.6 82-15c8.3-2.5 16.9-4.2 25.5-5 25.4-2.2 78.8-6.7 114.5-7.4 10.1-.2 20.2.4 30.2 1.9 24.8 3.5 75.7 10.4 101.3 16.5 5.2 1.3 10.3 3.1 15.1 5.5 5.6 2.7 17.6 5.1 22.8-21.8 0 0 38.8-99.5 68.2-129.3l60-66.4-97.3-3.8-88.8 144.2s-240.1 3.3-241.3 3.3c-1.5-.1-94 22.4-94 22.4z" style="fill:#213a78"/></g><g><path class="st22" d="M872.6 331.7s4.8-8.4 17-8.4 30.2 11.1 32 28.4-5.7 40.1-5.7 40.1-3.3 13.8 7.4 32.9c0 0 4.9 26.6-17.9 36.2-22.9 9.6-35.9-2.3-35.9-2.3s-17.7-14.1-15-41.9.6-27.4-5.7-35.2 2.7-33.6 13.2-38.6 6.8-2.7 8.7-6.8l1.9-4.4z"/><ellipse transform="rotate(-60 878.73 364.317)" class="st23" cx="878.7" cy="364.3" rx="31.2" ry="20.7"/><path class="st22" d="M872.6 337.8s7.5 9.3 6.2 17c-1.4 7.7 7.9 9.5 7.9 9.5s7.4 4.9 2.8 11.9c0 0 2.2-.3-5 12.1-7.1 12.5-13.2 21.6.4 38.5 13.5 16.9 27.2-2.1 27.2-2.1l3.9-74.2-23-21.5-20.4 8.8z"/><ellipse transform="rotate(-30 890.068 377.63)" class="st23" cx="890.1" cy="377.6" rx="6.8" ry="4.6"/><path class="st23" d="M866.6 385.8v20.7l-19.8 6 9.9 15.5 22-6.8s-6.1-16.4 2.8-34.3l-14.9-1.1zM641.4 429.6s9.3-2.4 27.2 4.3 59.5 24.4 59.5 24.4l7.1 3-4.5 19-55.6-19.3-24.3-14.7-9.4-16.7z"/><path class="st24" d="m802.6 435.5-37.7 17s-20.1 10.5-36.8 5.7l-6.6 19.2s-.3 12.2 14.1 15.6c14.4 3.3 43.2-13.4 43.2-13.4l34.2-28.2-10.4-15.9z"/><path class="st23" d="M522.9 546.7s-4.5 6.8-11.5 7.8-20.9 1.8-22.1-2.6c-1.1-4.4 9-7.7 9-7.7l18.2-8.5 6.4 11z"/><path class="st25" d="M499 543.6s-14 4.4-1.3 8.2l21.1-1.7s.3 5.3-4 7.8l-15.6 11.8-1-1.2 6.6-5.6s1.8-2 2-3.5c-8.6.2-21.1-1.2-21.1-1.2S472.1 555 474 550c2-4.9 25-6.4 25-6.4z"/><path class="st22" d="M758.3 484s-27.5.4-42.8-15l-76.3-49.2s-19.2-11.3-31.1 0-39.9 42.4-39.9 42.4l-66.4 67 18.7 23.7 74.7-72.6 18.4-11.2s8.7-8.1 14.1-1.5 30.2 27.8 30.2 27.8l42.8 32s37.1 6 47.3-3.9 10.3-39.5 10.3-39.5z"/><path class="st23" d="M433 555.6s-9 .7-14.5-5.1c-5.5-5.9-15.2-18.3-11.9-22.4 3.2-4.2 12.7 2.8 12.7 2.8l19.4 10.8-5.7 13.9z"/><path class="st25" d="M422.2 533.4s-14.4-9.8-8.7 4.3l16.9 18s-4.8 3.7-10.3 1.6l-22.5-6.3.4-1.7 10.1 2.2s3.1.3 4.7-.6c-6.5-7.6-14.3-20-14.3-20s-6.7-14.6-.6-16c6.2-1.4 24.3 18.5 24.3 18.5z"/><path d="M782.3 542.9s-19.2 12.5-38 9.9l-128.9-23.7-36.7-8.1s-14.8-3.6-32.4 4.5c-17.6 8.1-67.6 20.3-67.6 20.3l-47 9.9-7.1-24 67.3-19.5 54.7-21.8s22.7-10.8 39.5-8.7l115.1 6s44.9.1 55.4-4l25.7 59.2z" style="fill:#262626"/><path d="m868.4 406.4-57.7 12.7s-18.9-1.2-16.7 18.9l-14.7 32.6-31.4 16.1s26.3 44.2 25.1 66.1l55.1-35.6s50.5-38.1 54.6-53c0 0 16.6-20 9.4-28.7-7.2-8.7-13.3-18.4-13.3-18.4s-5.9 9.7-14.6 3.7c0 .2-4.8-7 4.2-14.4z" style="fill:#feac02"/><path class="st24" d="M864.2 431.7s18.4-11.9 21.1 9.6c0 0 6.4 5.5-14.3 23.3-20.6 17.7-51.8 34.1-51.8 34.1s-7.1 1.9-19.5-1.7c-1.5-.4-22.6-16.5-22.6-16.5s10-7.7 11.8-11.4c1.8-3.7.4 1.9.4 1.9s11.8 7.2 27.4.7c0 0 33.5-25.7 33.8-26.6.6-1.2 13.7-13.4 13.7-13.4z"/><path class="st23" d="m796.4 473.4-42-28.5s-6.3-3.9-7.7-9.3c-1.5-5.4-8.4-18.2-8.4-18.2s-2.7-1.5-1.8 1.8 5.4 6.6-1.8 6.8c-7.1.3-20.3-13.8-20.3-13.8s-5.1 5.7-1.2 13.8c3.9 8.1 19.5 16.8 19.5 16.8s10.5 5 13.2 9.5l36.2 31.6 14.3-10.5z"/></g><g><path class="st28" d="M158 637.7s15.8-15.7-4.1-17.2c-19.9-1.6-21.8 17.2-27.6 20.6-5.8 3.4-11.1 13.5-10.8 25.2 0 0 21.4-6.8 29.8-3.4 8.4 3.4 21.8 1.6 25.2-5.4 3.4-6.8 1.5-16-5.7-18-7-1.9-6.8-1.8-6.8-1.8zM84.2 536.9s-.3-14.7-10.1-5.9c-9.9 8.8-1.8 18.3-2.7 22.6-1 4.3 1.4 11.4 7.1 16.6 0 0 6.6-13.4 12-15.8 5.5-2.4 10.8-9.7 9-14.5-1.7-4.8-7-8-11.2-5.6l-4.1 2.6zM125.4 525.9s-14.2-3.9-8.5 8c5.6 11.9 17 6.9 20.8 9.1 3.8 2.2 11.3 2 18-2.1 0 0-11-10.1-11.7-16-.8-6-6.3-13-11.3-12.7-5.1.3-9.7 4.4-8.5 9.1 1.1 4.7 1.2 4.6 1.2 4.6zM112.2 498.1s-1.1 6.9 4.3 3.6 2.3-8.5 3.1-10.5c.8-2 .3-5.5-2.1-8.4 0 0-4.1 5.8-6.9 6.5s-5.9 3.7-5.4 6.2c.5 2.4 2.6 4.3 4.8 3.5l2.2-.9zM102.8 505.3s3.4 4.1-1.4 4-4.9-4.6-6.2-5.5c-1.3-1-2.3-3.4-2.1-6.3 0 0 5 2.1 7 1.5 2.1-.7 5.3.1 6 1.9s0 3.9-1.8 4.2c-1.6.3-1.5.2-1.5.2zM92.7 597.4s-1.3-24.8-17.4-9.4c-16.1 15.4-2.1 31-3.4 38.3-1.5 7.3 2.9 19.3 12.9 27.8 0 0 10.3-22.9 19.5-27.4 9.2-4.4 17.6-16.9 14.5-24.9s-12.2-13.2-19.2-8.8l-6.9 4.4zM165.5 566.7s.3-24.8 17-10.1 3.2 30.9 4.9 38.2-2.2 19.4-11.8 28.3c0 0-11.2-22.5-20.5-26.6-9.4-4.1-18.2-16.2-15.4-24.4 2.8-8.1 11.7-13.7 18.8-9.5l7 4.1zM220.6 620.3s2.6-19.5 14.4-6.8c11.7 12.7-.5 24.5.1 30.3s-3.6 15.1-12.1 21.3c0 0-6.6-18.5-13.6-22.3-6.9-3.8-12.8-14-9.8-20.3s10.6-9.9 15.8-6.2l5.2 4zM224.3 568s-7.9-3.1-1.4-6.8 10.2 2.6 12.7 3 6 3 7.7 7.2c0 0-8.4.9-10.7 3.4s-7.1 3.9-9.5 2.1c-2.3-1.9-3.1-5.5-1-7.2l2.2-1.7zM206.2 568.5s1.1 5.2-3 2.9c-4.1-2.2-2.1-6.3-2.7-7.6-.7-1.4-.4-4.1 1.2-6.5 0 0 3.3 4.1 5.4 4.4 2.1.3 4.5 2.4 4.2 4.2-.2 1.9-1.8 3.4-3.4 2.9l-1.7-.3z"/><path class="st29" d="M104.3 500.1c2.7 5.4 4.9 11.1 6.8 16.7 1 2.8 1.9 5.8 2.6 8.7l1.1 4.4c.4 1.5.7 2.9 1 4.4l.5 2.3.4 2.2c.3 1.5.5 2.9.8 4.5.4 3 .9 6 1.1 9 .6 6.1.6 12.1.5 18.2v-.3c.9 4.4 1.9 8.7 2.9 13.1 1.1 4.3 2.2 8.7 3.4 12.9 1.3 4.3 2.6 8.5 4.3 12.6.9 2.1 1.8 4 2.8 5.9 1.1 1.9 2.3 3.6 3.8 4.8l.3.2.1.3c1.6 3.2 2.8 6.5 4.1 9.7s2.3 6.6 3.3 9.9c2 6.7 3.5 13.5 4.3 20.4.2 1.8.4 3.5.4 5.2.1 1.8.2 3.5 0 5.3l-.1 2.6c0 .9-.2 1.8-.3 2.6l-.3 2.6-.5 2.5-1.9 10.3c-.3 1.7-.6 3.4-1 5.1l-.5 2.5-.3 1.3-.2.6-.1.3c0 .1 0 .1-.1.2s-.1-.1-.1-.1v.1s0-.1.1-.2l.1-.3.1-.7.2-1.3.4-2.5.7-5.2 1.3-10.3.3-2.5.2-2.5c0-.9.2-1.7.2-2.5v-2.5c0-1.7-.1-3.4-.2-5.1s-.4-3.4-.6-5.1c-1-6.8-2.6-13.5-4.7-20-2.2-6.6-4.6-13-7.5-19.1l.5.5c-2.2-1.7-3.4-3.6-4.6-5.7-1.2-2.1-2.2-4.1-3-6.3-1.8-4.2-3.2-8.5-4.4-12.8-1.3-4.3-2.3-8.7-3.4-13.1s-2-8.8-2.7-13.2v-.4c.2-6 .3-11.9-.1-17.9-.1-2.9-.5-6-.8-8.9-.2-1.5-.4-2.9-.6-4.4l-.3-2.3-.4-2.2c-1-5.9-2.3-11.7-3.9-17.5-1.8-5.8-3.7-11.4-6-17z"/><path class="st30" d="M82.2 641.6c-.9-2.6-1.6-5.4-2.1-8.2-.6-2.7-1-5.6-1.2-8.4-.2-2.8-.3-5.7-.1-8.5.1-2.8.6-5.7 1.2-8.4.7-2.7 1.6-5.5 2.8-8.1 1.3-2.5 2.9-5 4.9-7.1 3.9-4.3 9.2-7.1 14.7-8.8h.2c3 0 5.8.7 8.4 1.8s5.2 2.5 7.2 4.5c.6.5 1 1 1.5 1.5l.8.8.7.9c.4.6.9 1.2 1.3 1.8l1.1 1.9c.2.3.4.6.5.9l.4 1 .9 2c.5 1.3.9 2.6 1.3 4-.6-1.3-1.1-2.5-1.7-3.8l-1-1.9-.5-.9-.6-.9-1.2-1.7c-.4-.6-.9-1.1-1.4-1.6l-.7-.8-.8-.7c-.5-.5-1-1-1.5-1.4-2.1-1.8-4.5-3-7-4-2.5-.9-5.3-1.5-7.8-1.4h.2c-5.2 1.7-10.1 4.4-13.8 8.4-1.9 2-3.4 4.2-4.7 6.7-1.2 2.4-2.2 5-2.8 7.6-1.4 5.3-1.8 11-1.7 16.4.7 5.3 1.3 10.9 2.5 16.4zM119.3 665.2c2.2-4.2 4.8-8.1 7.9-11.7 3-3.6 6.6-6.9 10.6-9.7 2-1.4 4.1-2.5 6.3-3.5 2.3-1 4.5-1.8 6.9-2.2 2.3-.4 4.8-.5 7.2-.3 2.3.3 4.7.9 6.8 1.8-2.3-.5-4.6-.8-6.9-.8s-4.6.3-6.8.8c-4.4 1.2-8.6 3.1-12.4 5.8-3.8 2.5-7.2 5.7-10.5 9.1-3.2 3.4-6.2 6.9-9.1 10.7zM112.6 523c.2-1.1.5-2.3.9-3.3s1-2.2 1.8-3c.4-.5.9-.9 1.5-1.2s1.3-.4 2-.3c1.4.2 2.3 1 3.2 1.9 3.2 3.4 5.8 7 8.6 10.5 1.4 1.8 2.8 3.4 4.3 5.1s3 3.2 4.7 4.7c1.7 1.4 3.5 2.7 5.5 3.5 1 .4 2.1.8 3.1.9 1.1.1 2.3.1 3.3-.1-1.1.4-2.2.6-3.3.7-1.2 0-2.3-.2-3.4-.5-2.3-.7-4.3-1.9-6.1-3.2-3.7-2.7-6.8-6.3-9.6-9.8-1.4-1.8-2.7-3.6-4.1-5.4-1.4-1.8-2.6-3.6-4-5.3-.7-.8-1.6-1.5-2.4-1.7-.9-.3-1.9.1-2.5.9-.8.7-1.4 1.7-2 2.6-.6.8-1.1 1.9-1.5 3zM79.5 568.3c-.4 0-.6-.4-.8-.7-.2-.3-.3-.7-.5-1-.3-.7-.4-1.4-.6-2.1-.3-1.4-.4-2.8-.6-4.2-.2-2.8-.2-5.7.1-8.5.3-2.8.7-5.7 1.6-8.4.4-1.4 1-2.7 1.7-4.1.8-1.3 1.8-2.6 3.4-3.3l-.6.6c.6-1.9 1.3-3.6 2.3-5.4 1-1.7 2.1-3.3 3.5-4.7 1.5-1.4 3.4-2.4 5.6-2.5 1.1-.1 2.2.1 3.1.5 1 .3 1.9.8 2.7 1.3 3.2 2.1 6.2 4.4 8.9 7.1 1.4 1.3 2.6 2.7 3.8 4.2 1.2 1.5 2.3 2.9 3.3 4.6-2.3-2.9-5-5.6-7.8-8s-5.9-4.6-9-6.5c-.8-.5-1.6-.9-2.3-1.1-.8-.3-1.7-.4-2.4-.3-1.7.1-3.1 1-4.4 2.2s-2.3 2.6-3.1 4.3c-.9 1.6-1.6 3.3-2.2 5l-.1.5-.4.2c-1 .4-1.9 1.4-2.5 2.5-.7 1.1-1.2 2.3-1.7 3.6-.9 2.6-1.4 5.3-1.8 8.1-.4 2.7-.6 5.6-.6 8.3 0 1.4 0 2.8.2 4.2l.3 2.1c.1.3.2.7.3 1 0 .1.2.4.6.5z"/><path class="st29" d="M219.5 570.2c-3.8 2.8-6.6 6.8-9.1 10.9-2.4 4-4.6 8.3-6.4 12.6-.5 1.1-.9 2.2-1.4 3.3l-1.3 3.3c-.8 2.3-1.6 4.5-2.3 6.8-.7 2.2-1.4 4.5-2 6.8l-1.8 6.8v.2l-.1.2c-1.4 2.6-2.7 5.4-4 8.1-1.4 2.7-2.6 5.5-3.8 8.2-2.4 5.6-4.9 11.2-6.9 16.8-2.2 5.7-4 11.4-5.6 17.2-.8 2.9-1.4 5.9-1.9 8.9s-.8 6-.8 9.1c-.8-6.1 0-12.2 1.1-18.3.6-3 1.3-6 2.1-9 .8-2.9 1.8-5.9 2.7-8.8 2-5.8 4.2-11.5 6.7-17.1 2.4-5.6 5.1-11.2 8-16.5l-.1.3 1.9-6.9c.7-2.3 1.5-4.6 2.2-6.8.8-2.2 1.7-4.5 2.4-6.8l1.5-3.3c.5-1.1 1-2.3 1.5-3.3l1.6-3.2 1.8-3.1c.6-1.1 1.3-2.1 1.9-3.1.6-1.1 1.3-2.1 2.1-3 1.4-2 2.9-3.8 4.6-5.6 1.5-1.8 3.3-3.5 5.4-4.7z"/><path class="st30" d="M225.1 658.8c.6-1.8 1.1-3.5 1.5-5.4.3-1.9.4-3.6.5-5.5.1-3.6-.3-7.3-1.1-10.9-.7-3.6-1.8-7.1-2.9-10.6-1.3-3.4-2.6-6.8-4.3-10.1v-.1c-1.5-3-3.6-6.2-6.5-7.9-1.5-.9-3-1.4-4.7-1.3s-3.2.8-4.7 1.8c-2.9 2-5.3 4.8-7.3 7.7-2.1 2.9-3.9 6.2-5.6 9.3 1.4-3.3 3-6.7 5-9.8s4.2-6.2 7.2-8.4c1.6-1.1 3.3-2 5.4-2.2 2-.2 4 .3 5.7 1.4 1.7 1 3.1 2.3 4.3 3.8s2.2 3 3 4.8v-.1c1.8 3.3 3.2 6.8 4.4 10.4 1.3 3.5 2.2 7.2 2.7 11 .6 3.7.8 7.5.5 11.3-.5 3.8-1.5 7.5-3.1 10.8zM124.7 598.7c0-4.4.4-8.8.9-13.1.3-2.2.6-4.4 1.1-6.6.5-2.2 1-4.3 1.6-6.5 1.3-4.2 3-8.4 6-12 1.5-1.8 3.3-3.3 5.6-4.1 2.3-.9 4.7-1 7-.4l-.6.1c1-.4 1.9-.5 2.7-.5.9 0 1.8.2 2.5.4 1.7.5 3.1 1.3 4.6 2.2 2.7 1.9 4.9 4.4 6.8 6.9 3.9 5.2 6.4 11.2 8.8 17 2.3 6 4.4 11.9 6.3 18 1.9 6.1 3.5 12.2 5 18.4l-2.9-9c-1-3-2.1-6-3.1-9-2.2-6-4.3-11.9-6.8-17.7-1.2-2.9-2.5-5.8-3.9-8.6-1.5-2.7-2.9-5.5-4.9-7.9-1.9-2.4-4-4.8-6.5-6.5-1.3-.9-2.5-1.6-3.9-2-.7-.2-1.4-.3-2.1-.3-.4 0-.7 0-1.1.1-.3 0-.7.1-.9.2l-.3.1-.3-.1c-2-.4-4.1-.4-6 .3s-3.5 2-4.9 3.5c-2.7 3.2-4.6 7.2-6 11.3s-2.3 8.4-3.1 12.6c-.6 4.5-1.2 8.8-1.6 13.2zM205.6 564.7c1.8 2.7 2.9 5.7 3.7 8.8.4 1.6.6 3.2.5 4.8-.1 1.7-.4 3.3-1.4 4.6.6-1.5.7-3 .6-4.6-.1-1.6-.3-3.1-.7-4.6-.3-1.6-.8-3-1.3-4.5-.3-1.5-.8-3-1.4-4.5zM117.1 492c-1 1.3-2 2.5-2.9 3.7-1 1.3-1.9 2.5-2.6 3.9-.9 1.3-1.6 2.6-2.2 4.1s-1.1 2.9-1 4.5c-.4-1.6-.2-3.2.3-4.8.5-1.6 1.3-3 2.1-4.4 1.6-2.6 3.7-5.1 6.3-7z"/><g><path class="st31" d="M194.1 678.2s-1.6 10.2-4.3 22.7c-1.6 7.4-3.5 15.7-5.7 23-3.3 11.3-7.2 20.5-11.3 22l-39.3-.5s-5.8-7.4-12-21.4c-2.8-6.4-5.8-14-8.2-23-2-6.8-3.6-14.4-4.9-22.7l85.7-.1z"/></g><path class="st31" d="M114.5 741.1h78.4v4.3h-78.4z"/></g><g><path class="st0" d="M789 163.1h127v145.7H789z"/><path class="st3" d="M801.9 177.9h101.2v116H801.9z"/><path class="st32" d="M827.7 215.4H843v58h-15.3zM846.1 244.5h15.3v29.1h-15.3zM863.4 244.5h15.3v29.1h-15.3z"/></g><g><path class="st0" d="M168.2 157.5h127v145.7h-127z"/><path class="st3" d="M181.2 172.3h101.2v116H181.2z"/><path class="st32" d="M190.3 204.9h80.9v42.4h-80.9z"/></g></g><g><path class="st28" d="M700.2 281.9c4.9-22 39.4-32.9 77.1-24.5 37.7 8.4 64.2 33.1 59.3 55-1 4.3-3.1 8.1-6.1 11.5l6.5 27.4-20.7-17.4c-14.5 6.4-35.1 7.9-56.8 3.1-37.6-8.5-64.2-33.1-59.3-55.1z"/><path d="M692.2 287.5c4.9-22 39.4-32.9 77.1-24.5 37.7 8.4 64.2 33.1 59.3 55-1 4.3-3.1 8.1-6.1 11.5l6.5 27.4-20.7-17.5c-14.5 6.4-35.1 7.9-56.8 3.1-37.6-8.4-64.2-33-59.3-55z" style="opacity:.28;fill:#fff"/><g style="opacity:.28"><path class="st35" d="M814.5 297c1.1-.2 2-1.1 2.2-2.3.3-1.6-.8-3.1-2.3-3.4l-90.9-16.7c-1.6-.3-3.1.8-3.4 2.3-.3 1.6.8 3.1 2.3 3.4l90.9 16.7c.4.1.8.1 1.2 0zM810.7 310.4c1.1-.2 2-1.1 2.2-2.3.3-1.6-.8-3.1-2.3-3.4l-77.3-14.2c-1.6-.3-3.1.8-3.4 2.3-.3 1.6.8 3.1 2.3 3.4l77.3 14.2c.5.1.9.1 1.2 0zM806.1 324.1c1.1-.2 2-1.1 2.2-2.3.3-1.6-.8-3.1-2.3-3.4l-65.7-12c-1.6-.3-3.1.8-3.4 2.3-.3 1.6.8 3.1 2.3 3.4l65.7 11.9c.4.2.8.2 1.2.1z"/></g></g><g><path d="M324.3 234.1c-4.9-22-39.4-32.9-77.1-24.5-37.7 8.4-64.2 33.1-59.3 55 1 4.3 3.1 8.1 6.1 11.5l-6.5 27.4 20.8-17.6c14.5 6.4 35.1 7.9 56.8 3.1 37.5-8.3 64.1-32.9 59.2-54.9z" style="fill:#fe4f48"/><path d="M328.9 244.1c-4.9-22-39.4-32.9-77.1-24.5-37.7 8.4-64.2 33.1-59.3 55 1 4.3 3.1 8.1 6.1 11.5l-6.5 27.4 20.8-17.6c14.5 6.4 35.1 7.9 56.8 3.1 37.6-8.3 64.2-32.9 59.2-54.9z" style="opacity:.2;fill:#fff;enable-background:new"/><path class="st38" d="M204.2 258.1c-1.1 0-2.2-.7-2.7-1.8-.6-1.5.1-3.2 1.6-3.8l85.3-35.4c1.5-.6 3.2.1 3.8 1.6.6 1.5-.1 3.2-1.6 3.8L205.3 258c-.4.1-.8.1-1.1.1zM210.6 270.4c-1.1 0-2.2-.7-2.7-1.8-.6-1.5.1-3.2 1.6-3.8l72.5-30.2c1.5-.6 3.2.1 3.8 1.6.6 1.5-.1 3.2-1.6 3.8l-72.5 30.2c-.3.2-.7.2-1.1.2zM218.1 282.8c-1.1 0-2.2-.7-2.7-1.8-.6-1.5.1-3.2 1.6-3.8l61.7-25.5c1.5-.6 3.2.1 3.8 1.6s-.1 3.2-1.6 3.8l-61.7 25.5c-.4.2-.8.2-1.1.2z"/></g></svg>