<svg version="1.1" id="Layer_1" xmlns="http://www.w3.org/2000/svg" x="0" y="0" viewBox="0 0 1000 492.5" style="enable-background:new 0 0 1000 492.5" xml:space="preserve"><style>.st0{fill:#cfb5f6}.st2{fill:#4570ad}.st3{fill:#5286c6}.st4{fill:#82aad1}.st5{fill:#feb07b}.st6{fill:#191919}.st8{fill:#feac02}.st11{fill:#2d2d2d}.st12{fill:#f8a979}.st13{fill:#ffb27f}.st19{fill:#436faf}.st21{fill:#f64e50}.st22{opacity:.996;enable-background:new}.st23{opacity:.52}.st24,.st26{fill:#7a8479}.st26{opacity:.52}.st27{fill:#a7d19f}.st28{fill:#888889}.st35{fill:#d1d3d4}</style><ellipse transform="rotate(-36.293 828.05 182.294)" class="st0" cx="828.1" cy="182.3" rx="46.9" ry="87.9"/><ellipse transform="rotate(-53.544 152.678 116.82)" class="st0" cx="152.7" cy="116.8" rx="69.9" ry="37.3"/><ellipse transform="rotate(-36.293 746.612 71.372)" class="st0" cx="746.7" cy="71.3" rx="17.9" ry="33.6"/><ellipse transform="rotate(-49.611 226.127 27.911)" class="st0" cx="226.1" cy="27.9" rx="27.2" ry="14.5"/><path d="M116.1 479s-157.5-58.6-90.5-197.6c18.1-37.5 49.8-66.5 88.1-82.7 36.7-15.5 88.6-45.8 114.5-99.6 42.5-88.3 181.5-75.5 255.6-61.7S691-11.3 729 137.4c26 102.2 90.4 122.6 128 125.3 28.8 2.1 56.4 12.3 79 30.1 47.7 37.5 96.7 105.6-15.7 186.8l-804.2-.6z" style="fill:#e3d4f9"/><path class="st0" d="M143.7 475S-2 419.9 59.9 289.3c16.7-35.2 46-62.5 81.5-77.7 33.9-14.5 82-43 106-93.6 39.4-83 167.9-71 236.4-58s191.8-45.8 226.9 93.9c24.1 96.1 83.6 115.2 118.5 117.8 26.6 2 52.2 11.5 73.1 28.3 44.1 35.2 89.5 99.2-14.5 175.6l-744.1-.6z"/><path class="st2" d="M746.7 162.8c.9-.4 107.7 2.8 107.7 2.8s17.5 3.3 9.6 46.8c0 0-18.1 67.5-13.8 106.3l-.5 29.2h-118s-6.9-19.8-7.4-34.4c-.5-14.5 3.2-93.7 3.2-93.7s7-51.8 19.2-57z"/><path class="st3" d="M835.8 169.6s15.9 5.2 2.1 60.4-6.9 108.4-6.9 108.4h-91.4s-5.3-104.1 0-125.9c5.3-21.9 15.6-45.3 15.6-45.3l80.6 2.4zM190.2 204.4l173-2.1 41.1 103.1 91.1 8.1s49.8 79.9 37 118.7-48.7 47.5-48.7 47.5l-134.5.6-140.2-.5-18.8-275.4z"/><path class="st4" d="M359.8 212.9s-1.6-14 10.8-9.9c6 2 10.7 7 12.6 13l16.8 52.1 18 38.6 60.1-1.4s16.3-6.9 32.1 23.9 39.7 80.8 39.7 80.8 16.8 45.3-39.7 64.9c0 0-23.7 7.4-44.1 4.7 0 0 58.3-26.6 49.3-64.9s1.3-99.5-37.2-101.4c-3.7-.2-87-1.9-87-1.9l-31.4-98.5z"/><path class="st5" d="m299.4 212.9 3 32.4s24.6-.5 27.8-9l-5.9-4.3-3.6-10.2-21.3-8.9zM495.4 432.3v20.6s24.5 5.3 29.4 3.2c0 0-5.7-2-14.7-11.6l-3.5-12.1h-11.2z"/><path class="st6" d="M492.6 449s-3.2 7.5 2.8 8.5 29.4 4.6 29.4 4.6 13.8.6 4.3-5.5l-4.3-.5s-22.7-2.8-29.4-8.9l-2.8 1.8z"/><ellipse transform="rotate(-25.038 309.494 204.446)" class="st5" cx="309.5" cy="204.4" rx="16.8" ry="23.9"/><path class="st6" d="M309.5 187.9s.1 16.9-15.2 23.6l5.3 8.1s4.7 8.6 2.3 16c0 0-23.4 1.8-25.5 16.7s-2.5 24.1-2.5 24.1-11.7-7.1-6.4-21.6c5.3-14.5 11.3-17.7 11.3-17.7s4.6-12.8-.7-19.8c-5.3-7.1-7.4-25.5.7-35.4 8.2-9.9 24.1-8.5 24.1-8.5s20.4 2.1 21.7 24.1c0-.2-5.1-1.2-15.1-9.6z"/><path d="m301.2 218.6 1.4 15.4.3 3.8s14.2 13.1 24.5 5V232h-5.3l-1.4-10.2-19.5-3.2z" style="fill:none"/><path class="st8" d="M301.9 235.6s20.4 7.6 22.4-3.6c.3-1.7 18-4.5 26.8 3.6C360 243.7 377 260 377 260s1.8 3.5 6.4-2.1c4.6-5.7 20.2-26 20.2-26l12.1 4.7-18.8 37.6s-4.6 13.1-18.1 8.2l-4.6-2.1s10.3 25.2 18.1 26.6c0 0-1.6 7.2-15.7 8.3 0 0-26 5.8-35.6 7.2-9.6 1.4-6.8-16.6-6.8-16.6s-51.4 4.3-58.5 13.5c0 0-4.3-.7-4.3-9.2s5-57.8 5-57.8.4-13.6 25.5-16.7z"/><path class="st6" d="m392.3 306.8 67.4 1.7c2.1.1 4.2.7 5.9 2 4.1 3.1 11.4 10.3 15.3 25 5.7 21.3 26.4 99.2 26.4 99.2h-16.1l-44.7-82.9s-12.1-19.5-22-22.3c-9.9-2.8-41.1-6.4-41.1-6.4l-8.5-3.9 17.4-12.4z"/><path class="st5" d="M466 447.9v17s20.2 5 26.6 4.3c0 0-3.1-2.5-10.6-10.6-7.6-8.1-8.9-12.8-8.9-12.8l-7.1 2.1z"/><path class="st6" d="M463.9 460.3s-5 9.2 2.1 11.3 29.4 3.2 29.4 3.2 17.4 1.9 6-5.6l-8.9-4s-11.3 2.8-26.6-5h-2z"/><path class="st5" d="M404.3 235.9s-.7-10.7 7.8-11.2 14.9-2.3 15.9-4.4c1.1-2.1 6 2.5 1.4 7.8s-13.8 5.3-13.8 5.3l-4.3 6.7-7-4.2zM338.7 300.5s15.4-7.6 21 4.6l-16.2.3h-4.8v-4.9z"/><path style="opacity:.52;fill:#ce7534" d="m309.5 298.1-14.1-12.4v12.4z"/><path d="M349.3 295.8s-28.4-26.2-46.8-19.8l-2.3 4.7c-1.4 2.9-.9 6.4 1.3 8.8l8 8.7 39.8-2.4z" style="opacity:.19;fill:#2d2d2d"/><path class="st11" d="M384.1 313.6c1.1 0 45.7 8.5 45.7 8.5s11.7-1.4 19.8 14.5c8.2 15.9 28.4 113.1 28.4 113.1l-14.9 3.2-25.9-46.8s-10.6-19.1-10.3-34.7c0 0 1.4-10.3-11.3-9.2-12.8 1.1-41.8-.4-41.8-.4s-45-7.4-35.1-39l45.4-9.2z"/><path class="st4" d="M166.2 219.5c.3-4.4 3.2-8.2 7.6-10.3 9.2-4.2 25-9.7 32.4-1.7 13.1 14.2 34.3 115.4 34.3 115.4s3.8 15.2 37.3-5.5c0 0 27.1-15.7 79.7-13 12.2.6 24.6 9.7 30.7 19.1 14.2 21.7 29.8 70.6 29.8 92.5 0 28.4 3.3 38.6-54.6 63.8H199.6s-55-5.3-47.2-73.9l13.8-186.4z"/><path class="st2" d="M154.9 219.5c.3-4.4 2.8-8.2 6.7-10.3 8.2-4.2 22.2-9.7 28.8-1.7 11.6 14.2 35.1 117 35.1 117s3.8 21.3 38.3 3.7c0 0 25.8-14.8 61.8-18.4 10.8-1.1 21.2 4.3 26.7 13.6 12.6 21.7 34.1 62.4 31.1 84-4.3 30.3 1.6 53.7-53.2 72.3H184.6s-48.9-5.3-42-73.9l12.3-186.3zM725.3 317.2s-70.2-7.3-72.3 17.5c-1.8 20.9 0 56.9 0 56.9l97.8 3.2-1.5-36.9.7-24 74.7-13-57.4.5s-37.5-8.5-28.6 26.6v12.8l-17.7-.5-55.8-1c0-.1-8.4-42.3 60.1-42.1z"/><g><path class="st6" d="M762.2 312.5c-1.3 2.1-83.6 9.9-83.6 9.9s-13.1-.5-13.1 18.9l-16.7 83.5-6 32.6 18.8 2.8L691 338l75-2.9-3.8-22.6z"/><path class="st12" d="M643.8 456.8s-3 4.2-7.6 8.5-11.7 6.4-11.7 6.4 13.1 2.5 18.8 0c5.7-2.5 12.4-4.7 12.4-4.7v-10.2h-11.9z"/><path class="st6" d="M625.9 469.9s-19.8 4.6-13.8 7.4c6 2.8 28 1.6 28 1.6s4.4-3.4 7.3-2.8c2.8.5 4.4 3.6 4.4 3.6h4.8l-.9-2.5s7.3-5.3.9-11.2c-.1 0-16.9 7.8-30.7 3.9z"/><path class="st12" d="M659.9 458.6s-3 4.2-7.6 8.5-11.7 6.4-11.7 6.4 13.1 2.5 18.8 0c5.7-2.5 12.4-4.7 12.4-4.7v-10.2h-11.9z"/><path class="st6" d="M642 471.6s-19.8 4.6-13.8 7.4c6 2.8 28 1.6 28 1.6s4.4-3.4 7.3-2.8c2.8.5 4.4 3.6 4.4 3.6h4.8l-.9-2.5s7.3-5.3.9-11.2c-.1 0-16.9 7.8-30.7 3.9z"/><path class="st11" d="m764.4 316-65.2 6h-8.5s-8.5 1.8-9.9 17c-1.4 15.2-21.6 121.2-21.6 121.2s12.8 1.4 13.8 0c1.1-1.4 27.3-46.4 27.3-46.4s13.8-22.7 14.2-43.1c0 0-3.9-15.1 22.3-11.2 26.2 3.9 31.5 1.1 31.5 1.1l-3.9-44.6z"/></g><g><ellipse transform="rotate(-68.345 778.2 162.792)" class="st13" cx="778.1" cy="162.8" rx="25.9" ry="18.3"/><path class="st13" d="m768.6 186.9-2.7 11.1-3.7 14.9s18.3 8.5 32.7-3.5l-4.8-12.8 5.1-27.1-26.6 17.4z"/><path d="M808.5 293.2s7.6 52.3.5 59.4l-25.4-1.8-31.3-2.3-10.2-62.9c-1.1-5.1-1.3-11.2-2.2-16.9-1.1-7.3 1.3-18.3 1.1-23.2-.3-7.8 6.4-18.1 6.4-18.1l3-17.8c.8-5 4.2-9.3 8.9-11 2.6-1 5.6-1.2 8.6.5 0 0 2.1 9.2 21.6 1.4 0 0 5.2-4.7 20.7 2.5 4.9 2.3 8.1 7.1 8.4 12.4v63c0 .1 5.2 12.3-10.1 14.8z" style="fill:#f04e4c"/><path d="M808.5 293.2s7.6 52.3.5 59.4l-25.4-1.8c-1.9-37.4-4-114.9 11.4-126 7.7-5.5 12-3.8 19.5-4.9 0 .3 4.1 4.1 4.1 4.4v54.3c0-.1 5.2 12.1-10.1 14.6z" style="opacity:.24;fill:#2d2d2d"/><path d="M758.8 164.8s8.1-10.4 10.5-16.7c2.5-6.4 5.5-1.8 7.7 3.9s5.4 15.7 14.6 17.6l3.5 8.3s16.4-6.7 16-23-2.8-21.3-12.1-22c-4.4-.3-9.7-.4-14-.3-5.6.1-11.1 2.1-15.3 5.8-2.8 2.4-5.7 5.3-7.6 8.3-4.4 7-3.3 18.1-3.3 18.1z" style="fill:#353535"/><path d="m795.6 245.8 2.6 27.5-34.6 10.5 1.4 13.6 43.4-4.3s12.2.4 10.4-13.9l-.2-55c0-6.9-6-12.6-12.9-11.7-3.6.5-7.1 2.6-9.3 8.3l-1 15.8c-.1 3.1-.1 6.2.2 9.2z" style="fill:#d34040"/><path class="st13" d="M766.9 286.1s-15.9-2.5-21.6 3.5c-5.7 6-1.9 12.1-1.9 12.1s10.7 1.7 13.2-5.4l11.8-.7-1.5-9.5z"/><path style="fill:#f1f2f2" d="m706.6 312.5-16.8-50.9 43.1 2.5 13.8 49.3z"/><path class="st13" d="M698.3 287.4s11-2.2 10.6 5.1c-.4 7.3-5.3 8.2-5.3 8.2H701l-4.6-11.7 1.9-1.6z"/></g><path class="st2" d="m748.9 393.4-2.1-53.4s-2.7-18.9 21.8-20c24.5-1.1 70.7 0 70.7 0s11.2-4.7 11.2 20v46.5s2.8 7.4-8.7 6.9c-11.6-.5-92.9 0-92.9 0zM766.1 393.6h8.6v63.8h-8.6z"/><path class="st19" d="M739.6 479.2s3.1-24.8 28.7-25.7c25.5-.9 36.7 25 36.7 25l-65.4.7zM881.4 365h6.2v93.6h-6.2z"/><path class="st19" d="M855 480.4s3.1-24.8 28.7-25.7c25.5-.9 36.7 25 36.7 25l-65.4.7z"/><path d="M946.2 367.1H829.7c-2.8 0-5-2.2-5-5v-1.6c0-2.8 2.2-5 5-5h116.5c2.8 0 5 2.2 5 5v1.6c0 2.7-2.3 5-5 5z" style="fill:#86b9f7"/><g><path class="st21" d="M860.8 338.4s-2.4 17.1 9.6 17.1c11.1 0 8.5-17.1 8.5-17.1h-18.1z"/><path class="st21" d="m878.2 351.4-.8-2.2 6-2.1v-4.6h-4.3v-2.3h6.6v8.6z"/></g><g><path class="st21" d="M902.8 339.4s-2.4 17.1 9.6 17.1c11.1 0 8.5-17.1 8.5-17.1h-18.1z"/><path class="st21" d="m920.2 352.4-.8-2.2 6-2.1v-4.6h-4.3v-2.3h6.6v8.6z"/></g><g><g id="leaf3" class="st22"><g class="st23"><path class="st24" d="M167.5 417.8s-9.5 8.3-10.2 21.5l1.8.2s3.4-13.2 9.2-18.5c1-.9 1.7-1.8 2.2-2.2.5-.4 11.7-9.2 7.3-5.9-.1.1-.2-7.2-.6-6.9-.7.3-9.7 11.8-9.7 11.8z"/></g><g id="leaf3_2_"><path d="M177.1 405.9s-11.7-13.7-.7-22.4c0 0 8-4.9 14.6-4.5 0 0-9.3 15.6-6.3 17.1 3 1.6 9.1-18.1 9.1-18.1s18.3-1.8 24.2 1.1c0 0-15.6 12.8-12.4 13.6 3.3.8 20.2-11.8 20.2-11.8s17 2.9 16.1 13.3c-.9 10.4-6.8 13.6-9.4 13.3-2.6-.3-17.7-6-18-3.9-.3 2.1 8.8 9 15.1 9.3 0 0-12 13.2-20 9.4-8-3.8-8.7-9.9-13.6-12.2-5-2.3-9.2-2.3-7.2.1 2.1 2.3 11.1 4.6 13.9 9.6 2.8 5 5.4 8.4-2.9 7.2-8.3-1.2-21.7-7.3-22.3-14.2l-.4-6.9z" style="fill:#82b478"/><path class="st26" d="M233.6 394.4s-46.3-1.8-56.5 11.4c0 0-2.4 6.6-9.3 12.7l.5.9s7.2-4.5 9.4-6.6c0 0-4.5-16.4 55.9-18.4z"/></g></g><g id="leaf2_2_" class="st22"><g id="leaf2_1_"><path class="st27" d="M136.1 388.6s18.7-10.5 10-24.6c0 0-7-8.7-14.4-11 0 0 4 21.2 0 21.7s-2.7-23.9-2.7-23.9-19.7-9.5-27.4-8.7c0 0 12.2 20.7 8.2 20.2s-17.7-21.4-17.7-21.4-20.2-3.7-23.4 8.2c-3.2 11.9 2 17.9 5 18.7 3 .7 22.2.5 21.7 3S82 377.3 74.7 375c0 0 8 19.7 18.4 18.7 10.5-1 13.7-7.5 20.2-8s11.2 1.2 8 3c-3.2 1.7-14.2.6-19.4 5-5.2 4.4-9.5 7.2.2 9.2 9.7 2 27.1.7 30.6-6.7l3.4-7.6z"/><path class="st26" d="M77.8 352.8s52.3 16.9 58.2 35.8c0 0-.2 8.5 5 18.2v3.7s-5.5-12.7-8.5-14.4c.1 0 11.8-16.4-54.7-43.3z"/></g><g class="st23"><path class="st24" d="M141 406.8s8.1 12.2 3.5 27.1l-2.1-.6s2-16.4-2.2-24.7c-4.2-8.1.8-1.8.8-1.8z"/></g></g><g id="leaf1" class="st22"><path class="st26" d="M158.5 397.9s-9.9 16.4-3.8 36.1l2.7-.7s-2.7-21.6 2.9-32.5c.8-1.6 9.5-15.3 9.9-16.3.5-1.3-4.6-11-4.4-10.2.2.9-7.3 23.6-7.3 23.6z"/><g id="leaf1_2_"><path class="st27" d="M165.8 374.2s-24.6-13.8-13.1-32.5c0 0 9.2-11.5 19-14.4 0 0-5.2 27.9 0 28.5 5.2.7 3.6-31.5 3.6-31.5s25.9-12.5 36.1-11.5c0 0-16.1 27.2-10.8 26.6 5.2-.7 23.3-28.2 23.3-28.2s26.6-4.9 30.8 10.8c4.3 15.7-2.6 23.6-6.6 24.6-3.9 1-29.2.7-28.5 3.9.7 3.3 17.7 8.5 27.2 5.6 0 0-10.5 25.9-24.3 24.6-13.8-1.3-18-9.8-26.6-10.5-8.5-.7-14.8 1.6-10.5 3.9 4.3 2.3 18.7.8 25.6 6.6 6.9 5.9 12.5 9.5-.3 12.1-12.8 2.6-35.8 1-40.4-8.9l-4.5-9.7z"/><path class="st26" d="M242.5 327s-68.9 22.3-76.8 47.2c0 0-.4 10.8-7.3 23.6l.8 3.6s8.2-11.5 11.1-17.4c.1.1-15.4-21.6 72.2-57z"/></g></g><path class="st28" d="M213.8 479h-97.7c0-3.3 2.7-5.9 5.9-5.9h85.8c3.3-.1 6 2.6 6 5.9z"/><path d="M213.1 428.3c0 26.6-21.6 48.2-48.2 48.2h-.7c-26.3-.4-47.5-21.8-47.5-48.2h96.4z" style="fill:#434444"/><path d="M164.2 476.5c-26.3-.4-47.5-21.8-47.5-48.2h14c4.2 13 14.1 36.4 33.5 48.2z" style="opacity:.16;fill:#9b9b9b"/><path class="st28" d="M115.2 428.3h99.1v2.9h-99.1z"/></g><path style="fill:#1c2b3b" d="M19.8 479.6h949.5v4.1H19.8z"/><path d="M475.9 85.7c-4.9-22-39.4-32.9-77.1-24.5-37.7 8.4-64.2 33.1-59.3 55 1 4.3 3.1 8.1 6.1 11.5l-6.5 27.4 20.8-17.6c14.5 6.4 35.1 7.9 56.8 3.1 37.5-8.3 64.1-32.9 59.2-54.9z" style="fill:#fff"/><path d="M480.5 95.7c-4.9-22-39.4-32.9-77.1-24.5-37.7 8.4-64.2 33.1-59.3 55 1 4.3 3.1 8.1 6.1 11.5l-6.5 27.4 20.8-17.6c14.5 6.4 35.1 7.9 56.8 3.1 37.6-8.3 64.2-32.9 59.2-54.9z" style="opacity:.2;fill:#fff"/><path class="st8" d="M590.9 85.7c4.9-22 39.4-32.9 77.1-24.5 37.7 8.4 64.2 33.1 59.3 55-1 4.3-3.1 8.1-6.1 11.5l6.5 27.4-20.7-17.4c-14.5 6.4-35.1 7.9-56.8 3.1-37.6-8.5-64.2-33.1-59.3-55.1z"/><path d="M582.9 91.3c4.9-22 39.4-32.9 77.1-24.5 37.7 8.4 64.2 33.1 59.3 55-1 4.3-3.1 8.1-6.1 11.5l6.5 27.4-20.7-17.5c-14.5 6.4-35.1 7.9-56.8 3.1-37.6-8.4-64.2-33-59.3-55z" style="opacity:.24;fill:#feac02"/><g><path class="st35" d="M355.8 109.7c-1.1 0-2.2-.7-2.7-1.8-.6-1.5.1-3.2 1.6-3.8L440 68.7c1.5-.6 3.2.1 3.8 1.6.6 1.5-.1 3.2-1.6 3.8l-85.3 35.5c-.4.1-.8.1-1.1.1zM362.2 122c-1.1 0-2.2-.7-2.7-1.8-.6-1.5.1-3.2 1.6-3.8l72.5-30.2c1.5-.6 3.2.1 3.8 1.6.6 1.5-.1 3.2-1.6 3.8l-72.5 30.2c-.3.2-.7.2-1.1.2zM369.7 134.4c-1.1 0-2.2-.7-2.7-1.8-.6-1.5.1-3.2 1.6-3.8l61.7-25.5c1.5-.6 3.2.1 3.8 1.6s-.1 3.2-1.6 3.8l-61.7 25.5c-.4.2-.8.2-1.1.2z"/></g><g style="opacity:.28"><path class="st6" d="M705.2 100.8c1.1-.2 2-1.1 2.2-2.3.3-1.6-.8-3.1-2.3-3.4l-90.9-16.7c-1.6-.3-3.1.8-3.4 2.3-.3 1.6.8 3.1 2.3 3.4l90.9 16.7c.4.1.8.1 1.2 0zM701.4 114.2c1.1-.2 2-1.1 2.2-2.3.3-1.6-.8-3.1-2.3-3.4L624 94.3c-1.6-.3-3.1.8-3.4 2.3-.3 1.6.8 3.1 2.3 3.4l77.3 14.2c.5.1.9.1 1.2 0zM696.8 127.9c1.1-.2 2-1.1 2.2-2.3.3-1.6-.8-3.1-2.3-3.4l-65.7-12c-1.6-.3-3.1.8-3.4 2.3-.3 1.6.8 3.1 2.3 3.4l65.7 11.9c.4.2.8.2 1.2.1z"/></g></svg>