<svg version="1.1" id="Layer_1" xmlns="http://www.w3.org/2000/svg" x="0" y="0" viewBox="0 0 1000 616.4" style="enable-background:new 0 0 1000 616.4" xml:space="preserve"><style>.st2{opacity:.68}.st3{fill:#00a79d}.st4{fill:#fff}.st5{fill:#2bb673}.st6{fill:#f1f2f2}.st9{fill:#566b9d}.st10{fill:#4570ad}.st11{fill:#808285}.st13{fill:#58595b;stroke:#2a709b;stroke-miterlimit:10}.st15{fill:#fbb4b0}.st16{fill:#8151ce}.st17{fill:#323233}.st18{fill:#ff9827}.st21{fill:#58595b}.st22{fill:#414042}</style><path d="M104.9 591.2S-37 535.3 37.5 421.5c12-18.3 28.6-33.1 47.6-43.9 21.3-12 48.3-36.9 9.6-75-57.1-56.1-103-137-37.7-185.2s89 16.5 133.2-8.2 43-94.5 111.9-96.8S404.6 27.6 474 63.2s161.6 45.4 237.3 9.9c74.3-34.8 164.4-77.3 224 30.7 1.6 2.9 1.7 6.3 2.9 9.4 5 13.5 15 59.6-54.8 111.4 0 0-22.6 39.8 45 60 62.5 18.6 78.7 114.9 33.9 165.2-7.7 8.6-13.3 18.8-17 29.7-12.5 37.2-53.9 118-179.4 122.3-163.6 5.6-661-10.6-661-10.6z" style="fill:#cfb5f6"/><path d="M129.9 573.3S-3 520.9 66.7 414.3c11.2-17.2 26.8-31 44.6-41.1 20-11.3 45.3-34.5 9-70.2C66.8 250.4 23.9 174.5 85 129.4s83.4 15.5 124.8-7.7S250 33.1 314.6 31s96.1 14.2 161 47.6 151.5 42.5 222.3 9.3c69.6-32.7 154-72.4 209.8 28.8 1.5 2.7 1.6 5.9 2.7 8.8 4.7 12.7 14.1 55.8-51.3 104.3 0 0-21.2 37.3 42.1 56.2 58.6 17.4 73.7 107.6 31.8 154.8-7.2 8.1-12.5 17.6-15.9 27.9-11.7 34.9-50.5 110.6-168.1 114.6-153.1 5.2-619.1-10-619.1-10z" style="fill:#e3d4f9"/><g class="st2"><path class="st3" d="M765.8 574.5s60 38.2 87.9 21.9 24.6-17.2 21.8-20.8c-2.7-3.6-24.6.6-24.6.6s-47.8 8.9-47.7-5.5c0 0 72.7-7.5 86.7-19.1 14-11.6 8.2-23.5 8.2-23.5s-6.7-6.3-30.2 5.7-48.6 9.9-48.6 9.9-9.5-3.2 12.4-11.4c21.8-8.2 44.8-10.2 50.9-11.5s25.9-7.1 29-21.9 3.9-46.9 3.9-46.9-40.7-15.4-54.6-2.3c-13.9 13.1-33.4 48-33.4 48s-19.9 33.3-20.6 18.1c-.7-15.1 19.7-48.5 21.6-50.3s-.2-25.1-12.3-14-28.9 34-31.3 49.7c-1.6 10.3-1 21.7-.4 28.2.4 4.6-.6 9.2-3.2 13.1-2.6 3.9-5.5 5.5-5.3-7.8.4-23.6 8.1-47.6 8.1-47.6s-6.6-20.7-18.7.5-13 66.2.4 86.9z"/><path class="st4" d="M765.1 575.1c-.3-.4-.3-.9.1-1.3l124.6-103.4c.4-.3.9-.3 1.2.1.3.4.2.9-.1 1.2L766.3 575.2c-.4.3-.9.2-1.2-.1z"/><g><path class="st5" d="M748.3 596.6s82.3-23.4 89.7-60.6 4-35-1.5-35.4c-5.4-.4-19 22.2-19 22.2s-30 49.1-42.8 37.9c0 0 51-70 51.6-91.4.6-21.4-14.8-25.5-14.8-25.5s-11 1.1-18.9 31.1c-7.8 30.1-29.7 50.6-29.7 50.6s-10.4 5.9-.5-19.8c9.9-25.7 26.4-47.5 30-53.8 3.6-6.3 14.2-28.3 3.2-42.6s-39.3-39.8-39.3-39.8-46.3 24-45.5 46.5c.8 22.5 16.9 66.7 16.9 66.7s14.3 43.4 0 32.3c-14.3-11.1-28.3-55-28.4-58.1-.1-3.1-22.8-19.3-22.4 0s7.8 51.8 20.1 66.1c8.1 9.4 18.8 17.7 25.2 22.3 4.5 3.2 7.8 7.7 9.3 13 1.5 5.3.6 9.1-11.2-1.3-21.1-18.6-36.7-44.1-36.7-44.1s-24-10.2-14.5 16.9c9.7 27.2 49.9 62.5 79.2 66.8z"/><path class="st6" d="M748.3 597.7c-.6 0-1.1-.5-1-1.1l5.5-190.2c0-.6.5-1 1-1 .6 0 1 .5 1 1.1l-5.5 190.2c0 .5-.4 1-1 1z"/></g></g><g style="opacity:.35"><path class="st4" d="M109.6 147.1h294.6v122.5H109.6z"/><path style="opacity:.43;fill:none;stroke:#2e3192;stroke-miterlimit:10" d="M117.6 155.2h278.5v108.7H117.6z"/><path class="st9" d="M126.8 203.1h11.4V257h-11.4zM368.4 203.1h11.4V257h-11.4zM150.7 226.5h11.4V257h-11.4zM346.3 226.5h11.4V257h-11.4zM192.1 244.6h12.4V257h-12.4zM171.1 184.2h11.4V257h-11.4zM282.9 171.2h11.4V257h-11.4zM305 171.2h11.4V257H305zM214.9 189.2h11.7V257h-11.7zM325 189.2h11.7V257H325zM238.4 199.7h11.7V257h-11.7zM259.9 212.3H272v44.8h-12.1z"/></g><g class="st2"><path class="st5" d="M212.6 551.9s-53.7 46.7-83.7 34.8c-30-11.9-26.8-13.3-24.7-17.3 2.1-4 24.4-3.1 24.4-3.1s48.6 1.6 46.3-12.5c0 0-73 3.4-88.6-6s-11.6-22.1-11.6-22.1 5.7-7.2 30.7 1.2 49.6 2.6 49.6 2.6 8.9-4.5-13.9-9.4-45.8-3.4-52-3.8c-6.2-.4-26.6-3.1-31.9-17.3s-10.8-45.8-10.8-45.8 37.9-21.3 53.7-10.4c15.7 10.9 40.2 42.5 40.2 42.5s24.7 29.9 23.1 14.8c-1.6-15.1-26.7-45-28.8-46.5-2.2-1.5-3.6-24.8 10.1-15.7 13.6 9.2 33.6 29.3 38.3 44.4 3.1 10 4.2 21.3 4.6 27.9.3 4.6 2 9 5.1 12.5 3.1 3.5 6.3 4.6 4.1-8.5-3.9-23.3-15.1-45.9-15.1-45.9s3.5-21.5 18.6-2.3c15.1 19.1 22.4 63.4 12.3 85.9z"/><path class="st4" d="M213.4 552.4c.3-.4.1-1-.3-1.2L74.4 467.5c-.4-.2-.9-.1-1.2.3-.2.4-.1.9.3 1.2l138.6 83.7c.5.2 1 .1 1.3-.3z"/><g><path class="st3" d="M220.4 593.5s-84.9-11-97.7-46.7c-12.8-35.7-9.1-34-3.8-35.2 5.3-1.2 22.1 19.1 22.1 19.1s36.9 44.2 47.9 31.1c0 0-60.7-61.7-64.5-82.8s10.9-27.4 10.9-27.4 11.1-.6 23.2 28c12.2 28.6 36.8 45.7 36.8 45.7s11.1 4.3-2.4-19.6c-13.6-23.9-33.1-43.1-37.7-48.8-4.5-5.7-18.2-25.9-9.5-41.6s33-45.1 33-45.1 49.3 16.9 51.9 39.2-6.9 68.5-6.9 68.5-7.7 45 4.8 31.9c12.5-13.1 19.8-58.5 19.5-61.6-.3-3.1 19.7-22.5 22.2-3.3s-.1 52.4-10.1 68.4c-6.6 10.5-16 20.3-21.7 25.7-3.9 3.8-6.6 8.8-7.3 14.2-.7 5.5.7 9.1 10.9-3 18.1-21.5 29.8-49 29.8-49s22.2-13.7 16.8 14.6c-5.3 28.2-39.8 69.1-68.2 77.7z"/><path class="st6" d="M220.5 594.5s.1 0 0 0c.6-.1 1-.6.9-1.2L187.9 406c-.1-.6-.6-.9-1.2-.8-.6.1-.9.6-.8 1.2l33.5 187.3c.1.6.6.9 1.1.8z"/></g></g><path class="st10" d="M689.8 217.4s-2.6-2.9-6.8-3.1c-4.2-.2-8.1-2.5-8.1-2.5l-5.8-7c-1.5-1.8-1.8-4.2-.8-6.3 1-2.1 1.8-4.7.8-6-1.9-2.4-10.9-7.3-10.9-7.3s-3.8-2.7-8.6 2.5c-4.7 5.2-9.3 4.1-9.3 4.1l-5.6.2c-2.5.1-4.8-1.1-6.2-3.1l-3.1-4.3s.3-2.6-5-1.4c-5.3 1.2-12.4 2.6-12.4 2.6s-2.7 1-1.7 6.1c1 5.1-1.3 8.1-2.5 9.2-1.2 1.1-8.3 6.2-8.3 6.2s-.7 2.6-5.3 2c-4.6-.7-7.5-2.1-10 1.7s-4.4 8.4-4.4 8.4-2.6 4 1.8 6.6c4.4 2.6 5.7 5.3 5.4 7.6s-.8 11.7-.8 11.7-.1 2.7-3 4.5c-2.9 1.9-7.5 5.4-5.8 8.3 1.6 2.8 3.4 9.3 3.4 9.3s.6 2.9 4.5 2.4c3.9-.4 7.9.4 7.9.4l10.5 11.8s2.7 2.2 0 10.8c0 0 6.3 7.7 14.4 6.3 0 0 4.7-7.4 11.4-5.8 6.7 1.5 12.8.8 12.8.8l6.3 7.1s10.8 1.5 15.9-4.6c0 0-.1-9.9 3.6-13.1 3.7-3.2 7.8-7.4 7.8-7.4s1.6-1.4 7.8 0c6.2 1.4 7.7-.9 8.9-4.1 1.2-3.3 4.7-8.5 1.7-12.6-1.7-2.3-4-4-5.9-5.2-1.6-1-2.5-2.9-2.3-4.8l1.2-9.2c.2-1.3.9-2.4 2-3.2 2.7-1.8 7.8-5.2 8.2-6.6.4-2.1-3.7-13-3.7-13z"/><path class="st4" d="M633.2 255.8c-8.5 0-15.4-6.9-15.4-15.4s6.9-15.4 15.4-15.4 15.4 6.9 15.4 15.4-6.9 15.4-15.4 15.4zm0-29.5c-7.8 0-14.1 6.3-14.1 14.1s6.3 14.1 14.1 14.1 14.1-6.3 14.1-14.1-6.3-14.1-14.1-14.1z"/><path class="st4" d="M633.2 273.7c-18.4 0-33.3-15-33.3-33.3 0-18.4 15-33.3 33.3-33.3s33.3 15 33.3 33.3c0 18.4-14.9 33.3-33.3 33.3zm0-65.4c-17.7 0-32.1 14.4-32.1 32.1s14.4 32.1 32.1 32.1 32.1-14.4 32.1-32.1-14.4-32.1-32.1-32.1z"/><path class="st6" d="M882.1 257.8s-4.3-4.7-11.2-5.1c-7-.3-13.5-4.1-13.5-4.1l-9.7-11.6c-2.5-2.9-2.9-7-1.3-10.5 1.6-3.5 3-7.9 1.3-10-3.2-4-18.1-12.1-18.1-12.1s-6.4-4.5-14.2 4.1c-7.8 8.6-15.4 6.8-15.4 6.8l-9.3.2c-4.1.1-7.9-1.8-10.3-5.1l-5.2-7.2s.5-4.3-8.3-2.3-20.5 4.4-20.5 4.4-4.4 1.7-2.8 10.1c1.7 8.4-2.2 13.4-4.2 15.3-2 1.9-13.7 10.3-13.7 10.3s-1.2 4.4-8.8 3.3c-7.6-1.1-12.4-3.4-16.6 2.9-4.2 6.3-7.3 13.9-7.3 13.9s-4.3 6.7 3 10.9c7.2 4.3 9.5 8.8 8.9 12.6-.5 3.8-1.4 19.4-1.4 19.4s-.2 4.4-5 7.5c-4.8 3.1-12.4 9-9.7 13.7 2.7 4.7 5.7 15.4 5.7 15.4s1 4.7 7.5 4c6.5-.7 13 .6 13 .6l17.4 19.6s4.4 3.7.1 17.8c0 0 10.4 12.7 23.9 10.5 0 0 7.8-12.2 19-9.7 11.2 2.6 21.2 1.4 21.2 1.4l10.5 11.8s17.9 2.4 26.4-7.6c0 0-.2-16.4 5.9-21.7 6.1-5.2 13-12.3 13-12.3s2.6-2.2 12.9.1c10.3 2.3 12.8-1.5 14.8-6.9s7.9-14 2.8-20.9c-2.7-3.7-6.7-6.7-9.7-8.6-2.7-1.7-4.2-4.8-3.8-8l1.9-15.3c.3-2.1 1.5-4.1 3.3-5.2 4.5-2.9 12.9-8.7 13.5-11 .9-3.2-6-21.4-6-21.4z"/><path class="st11" d="M788.3 321.5c-14.1 0-25.5-11.5-25.5-25.5 0-14.1 11.5-25.5 25.5-25.5 14.1 0 25.5 11.5 25.5 25.5 0 14.1-11.4 25.5-25.5 25.5zm0-48.9c-12.9 0-23.4 10.5-23.4 23.4s10.5 23.4 23.4 23.4c12.9 0 23.4-10.5 23.4-23.4s-10.5-23.4-23.4-23.4z"/><path class="st11" d="M788.3 351.3c-30.5 0-55.3-24.8-55.3-55.3 0-30.5 24.8-55.3 55.3-55.3 30.5 0 55.3 24.8 55.3 55.3 0 30.5-24.8 55.3-55.3 55.3zm0-108.5c-29.3 0-53.2 23.9-53.2 53.2s23.9 53.2 53.2 53.2c29.3 0 53.2-23.9 53.2-53.2s-23.9-53.2-53.2-53.2z"/><path d="m301.8 593.6-61-144.6-16.1-17.9s-15-80.1 0-105.9c0 0 21-15.4 44.3-15.8 23.2-.4 58.6-5.5 58.6-5.5l301.2-106.1 4.4 317.4-319-84.8 58.1 135.7s4.4 30.3-25.9 37c-30.3 6.7-44.6-9.5-44.6-9.5z" style="fill:#ff4d53"/><ellipse class="st13" cx="628.8" cy="358.3" rx="34" ry="160.5"/><ellipse class="st6" cx="629.6" cy="358.3" rx="22.7" ry="160.5"/><path class="st13" d="M608.3 306.7s56.3-17.2 62.1 44.4c0 0 2.6 61.6-63.6 50.2-.1 0 1.5-75.3 1.5-94.6z"/><path class="st4" d="M598.8 222.7c-9.4 3.3-18.8 6.4-28.2 9.6l-28.2 9.4c-18.8 6.3-37.7 12.4-56.6 18.6-18.9 6-37.8 12.2-56.7 18.1l-28.4 8.9-28.5 8.7c9.4-3.3 18.8-6.4 28.2-9.7l28.2-9.4c18.8-6.3 37.7-12.4 56.6-18.6 18.9-6 37.8-12.2 56.7-18.1l28.4-8.9c9.5-2.8 19-5.8 28.5-8.6zM254 451.3c.9.8 1.5 1.7 2.2 2.7.6.9 1.2 1.9 1.6 2.9.5 1 .9 2 1.2 3.1.3 1.1.6 2.2.7 3.4-.9-.8-1.5-1.7-2.2-2.7-.6-.9-1.2-1.9-1.6-2.9-.5-1-.9-2-1.2-3.1-.3-1.1-.6-2.2-.7-3.4zM264.5 477.7l8.4 18 8.2 18.1c5.4 12.1 10.7 24.3 16 36.4l3.9 9.1 1.9 4.6c.3.7.6 1.6 1 2.2.4.7.7 1.4 1.2 2.1 3.3 5.5 7.9 10.4 13.5 13.7 5.6 3.3 12.2 4.6 18.7 3.9 6.5-.6 12.8-3 18.7-6-5.7 3.4-11.9 6-18.6 7-6.6.9-13.7-.2-19.6-3.6-3-1.6-5.7-3.7-8.1-6.1-2.4-2.4-4.5-5.1-6.2-8-.4-.7-.9-1.5-1.3-2.2-.4-.8-.7-1.5-1-2.3l-2-4.6-4-9.1c-5.2-12.2-10.5-24.3-15.6-36.6l-7.6-18.4c-2.5-5.9-5-12-7.5-18.2zM675.6 516.3c-3.2-5.2-8.1-9.5-11.9-12.4-3.4-2.5-5-6.8-4.1-10.9l4.2-19.9c.6-2.8 2.4-5.2 4.9-6.6 6.3-3.4 17.9-10 19-13.1 1.5-4.1-5.6-28.9-5.6-28.9s-6.2-6.2-15.3-4.7c-9.6 1.5-16.3-9.9-16.3-9.9L639 393.6c-2.9-4.1-3.1-9.6-.6-14 2.5-4.5 4.8-10 2.8-13.1-3.8-5.6-22.5-17.9-22.5-17.9s-7.9-6.6-19.1 3.9c-11.2 10.5-19.9 8.4-19.9 8.4l-13.4-1.7c-5.4-.3-12.3-3.2-15.1-7.8l-6.1-10s-4.1-5.6-15.9-3.9c-11.8 1.8-20.2 5.6-20.2 5.6s-6 1.8-4.7 13c1.3 11.2-4.3 15.4-7.1 17.6-2.9 2.4-19.2 13.3-19.2 13.3s-2 4.6-12 2.3c-9.9-2.2-16-5.8-22.2 2-6.2 7.8-11 17.5-11 17.5s-6.4 8.3 2.7 14.7c9.1 6.4 11.5 12.6 10.4 17.6-1.1 5-3.9 25.4-3.9 25.4s-.7 5.8-7.4 9.4c-6.7 3.6-17.2 10.5-14.2 17s5.9 19.9 5.9 19.9.8 7.4 9.4 7.1c8.6-.2 17.1 2.2 17.1 2.2l20.8 27.7s4.4 4.3 0 18.3c-1.1 3.6-.1 7.6 2.6 10.3 3.8 3.8 9.8 8.7 17.4 10.5 4.3 1.1 8.8-.2 12.1-3.2 4.5-4.2 12.8-9.8 22.4-6.8 14.4 4.6 27.8 4 27.8 4l12 15.9c2.6 3.5 6.6 5.6 10.9 5.9 3.9.3 9 .1 14-1.5 6.3-1.9 10.9-7.5 11.6-14.1.8-6.8 2.8-16.4 8.1-20.2 8.6-6.3 16.2-15.2 16.2-15.2s7.4-6.8 20.7-2.6c13.3 4.1 17-.6 20.1-7.5 3.4-6.9 12.1-17.6 6.1-27.3zm-153.4 41.2c-48.8-17.7-74.1-71.6-56.4-120.5s71.6-74.1 120.5-56.4c48.8 17.7 74.1 71.6 56.4 120.5s-71.7 74.1-120.5 56.4z"/><path d="M410.7 384.6c-3.6-2.9-8.2-4.7-11.7-5.7-3.1-.9-5.3-3.5-5.8-6.7l-2.2-15.3c-.3-2.1.3-4.3 1.8-5.9 3.6-4 10.2-11.8 10.2-14.2 0-3.3-11.5-19.1-11.5-19.1s-5.4-3.4-12.2-1.9c-6.8 1.5-14.1-.4-14.1-.4l-12.4-8.6c-3.1-2.2-4.7-6-4.1-9.8.6-3.8.8-8.4-1.4-10-4.1-3-20.6-6.9-20.6-6.9s-7.4-2.7-12.6 7.7c-5.3 10.4-13 10.6-13 10.6l-8.9 2.7c-3.9 1.2-8.1.4-11.3-2.2l-6.9-5.5s-.6-4.3-8.6 0-18.6 9.6-18.6 9.6-3.8 2.8 0 10.4c3.8 7.6 1.4 13.5 0 15.8-1.4 2.3-10.5 13.5-10.5 13.5s0 4.5-7.6 5.5-12.9 0-15.3 7.2c-2.4 7.2-3.3 15.3-3.3 15.3s-2.4 7.6 5.7 9.7c8.1 2.2 11.5 6 11.9 9.8.5 3.8 3.8 19.1 3.8 19.1s1 4.3-2.9 8.6c-3.8 4.3-9.5 11.9-5.7 15.8 3.8 3.8 9.6 13.4 9.6 13.4s2.2 4.3 8.3 1.9c6-2.4 12.7-2.9 12.7-2.9l22 14.3s5.3 2.4 4.8 17.2c0 0 13.4 9.5 25.8 3.8 0 0 4.3-13.8 15.8-14.3s20.8-4.3 20.8-4.3l13.3 8.6s17.9-2.4 23.4-14.3c0 0-4.6-15.8 0-22.5 4.5-6.7 9.3-15.3 9.3-15.3s2-2.9 12.5-3.3c10.5-.5 11.9-4.8 12.4-10.5.4-5.6 3.8-15.5-2.9-20.9zm-98.6 68.9c-39.3 0-71.2-31.9-71.2-71.2s31.9-71.2 71.2-71.2c39.3 0 71.2 31.9 71.2 71.2s-31.9 71.2-71.2 71.2z" style="fill:#231f20"/><ellipse class="st15" cx="363.4" cy="296" rx="16" ry="26"/><path class="st15" d="m343.9 289.9-17.3 35.9h-17.2s-4.3 26.7 14.8 37.7c19.1 11 31.5-6.2 31.5-6.2s6.2-20.5 2.9-22.9c-3.3-2.4-9.1-3.4-9.1-3.4l8.5-19.7-14.1-21.4z"/><path class="st16" d="m284.6 333 27.7-7.2s0 29.1 15.3 34.8c15.2 5.7 27.7-2.4 29.6-17.4 1.9-15 1.4-8.8 1.4-8.8l4.8 1.4-20.7 110.8s-34.2 11.9-62.4-2.4c0 0 10-70 5.7-77 0 0 17.7-17.5-1.4-34.2z"/><path class="st17" d="M379.1 291.3s13.9-6 8.2-16.5c0 0-7.2-22.9-35.1-14.3l-2.1 1.9s-13.8-17.2-35.8-12.4c-22 4.8-44.4 33.9-63.5 32.5 0 0-10-.6 2.4 13.1 0 0 28.7 16.9 53 0l31-23.1s-10.9 17.7-2.8 26.3l3.8 2.1 4.6-6.7 6.3-9.3 3.1 10.8s6.9-16.8 13.6-15.4c6.7 1.1 13.3 11 13.3 11z"/><path class="st15" d="m359.6 336.8 29 26.7s28.2-1.4 50.7-15.8c0 0 .5-5.7 12.9-11s12.9-7.6 12.9-7.6.5 6.3-5.6 10.3c-1 .6-.9 2.1.1 2.6 3.6 1.9 10.6 5.4 16 7 2.8.8 5.2 2.7 6.5 5.3 1.6 3.1 2 5.5-7.9 5 0 0-24.4-2.1-27.2-3.6 0 0-24.4 25.3-38.7 29.6-14.3 4.3-22 2.9-32.5-4.3-10.5-7.2-23.6-17.2-23.6-17.2l7.4-27z"/><path class="st4" d="m334.3 354 74-3.8-41.6 80.2h-52.5z"/><path class="st17" d="M355.9 350.2v9.3l30.9-.9 1.9-11h-6.9l-.3-4.8-16 1.4-.4 4.3z"/><path class="st15" d="M286.3 332.6s-39.4 28.1-44.2 49.7c0 0-9.6 36.9 10.5 44.5 20.1 7.6 66.6-15.6 66.6-15.6s9.1-1.6 11.7-6.6c0 0 22.8-4.7 10-16.1 0 0-17.4-4-21.3 1.7-3.8 5.7-3.3 10.7-3.3 10.7l-50.1 5S260 385 286 367.1c0 .1 22.5-11.6.3-34.5z"/><ellipse class="st15" cx="346.4" cy="288.8" rx="4.7" ry="7.7"/><ellipse transform="rotate(-57.276 537.437 396.883)" class="st15" cx="537.5" cy="396.9" rx="26.2" ry="18.4"/><path class="st15" d="m531 417.5 4.3 31.5s28.7 12.4 32-7.6l-13.9-39.7-22.4 15.8z"/><path class="st18" d="m534.3 441.6-29.5 4.1s-6.2.3-9.6 5.6-28.2 48.8-28.7 64.6 3.6 29.1 3.6 29.1 17.8-21.5 29.8-15.8l-5.2 31.5h80.2l5.3-75.4 29.1-26.3s-14.8-21-42-17.7c0 .1-12.5 13.9-33 .3z"/><path class="st9" d="m578.5 459.8 119.5-6c3-.1 5.2 2.6 4.6 5.4l-16 73.1c-.8 3.8-4.1 6.6-8 6.7l-110.3 4.3c-2.8.1-5-2.3-4.7-5.1l9.2-73.3c.4-2.8 2.8-5 5.7-5.1z"/><path style="fill:#41547a" d="m609.3 539.8-2.4 21h36.8v-20.4z"/><path class="st9" d="M537.9 566h114.4v-5.3h-45.4l.9-8.2-17.6-2.3c0 .1-59.2 10.6-52.3 15.8z"/><path class="st4" d="M571.6 512.6c-.3 0-.5-.3-.5-.6 0-.2 1.9-24.1 4.3-37.8.9-5 2.8-8.4 5.7-10.2 3.3-2.1 6.7-1.3 7.3-1.2l99.4-5.2c.3 0 .5.2.5.5s-.2.5-.5.5l-99.6 5.3h-.1s-3.4-.9-6.6 1.1c-2.6 1.7-4.4 4.9-5.2 9.5-2.4 13.7-4.3 37.4-4.3 37.7.1.2-.1.4-.4.4zM569.2 537.4c-.3 0-.5-.2-.5-.5v-10c0-.3.2-.5.5-.5s.5.2.5.5v10c0 .3-.2.5-.5.5z"/><path class="st17" d="M531 377.3s-12.9-2.1-14.3-10.1c-1.4-8 1.9-15.1 7.2-17h5.3s7.6 7.2 20.1 9.3c12.4 2.1 21.6 11 20.6 17.8 0 0 14.5 1.9 1.3 19.6 0 0 6.5 6.9-3.8 11.1s-10.2 4.2-10.2 4.2l-4.1-5.3 2.6-4.8s1.7-16.8-6.4-19.8c-8.3-3-18.3-5-18.3-5zM516.3 488.2c.1.4 0 .9-.1 1.3s-.3.8-.4 1.3c-.3.8-.7 1.6-1 2.4-.8 1.6-1.5 3.2-2.4 4.7-1.6 3.1-3.3 6.2-5 9.2-.8 1.5-1.6 3.1-2.4 4.6-.8 1.5-1.6 3.1-2.3 4.7-.7 1.6-1.4 3.2-1.9 4.8-.5 1.6-.9 3.3-.9 5.1-.5-1.7-.4-3.6-.1-5.3.3-1.8.8-3.5 1.4-5.2 1.2-3.4 2.8-6.5 4.4-9.6 1.7-3.1 3.5-6.1 5.4-9.1l2.8-4.4c.5-.7.9-1.5 1.4-2.2.2-.4.4-.7.7-1.1.2-.4.5-.8.4-1.2z"/><path class="st15" d="M468.9 539.8s4.6 20.4 36.8 23.3 29.6 2.9 29.6 2.9 22.4-9.2 34.4-11.7c0 0-5.8-11.2-20.6-6.4l-5.3 5s-25.9-1.2-44-23.6l-3.3-2.9c.1 0-26.3-3.3-27.6 13.4z"/><ellipse transform="rotate(-57.276 556.404 396.883)" class="st15" cx="556.4" cy="396.9" rx="5.6" ry="4"/><path class="st6" d="M625.3 311.1c4.6 1 9 2.7 13.3 4.7 2.1 1 4.2 2.2 6.2 3.4 2 1.3 4 2.6 5.8 4.1 3.8 3 7 6.6 9.7 10.6 2.7 4.1 4.4 8.7 5.3 13.5.8 4.8.7 9.7-.2 14.5l-.3 1.8-.5 1.8-.5 1.8-.1.4c-.1.2-.1.4-.2.5-.1.3-.2.6-.4.9-1 2.2-2.1 4.3-3.4 6.4-2.6 4-5.7 7.7-9.3 10.8-3.6 3.1-7.6 5.7-12 7.5 4-2.4 7.7-5.3 10.9-8.6s6-7 8.2-11c1.1-2 2.1-4 3-6.1.1-.3.2-.5.3-.8l.1-.3.1-.4.4-1.7.4-1.7.3-1.7c.7-4.5.8-9 .1-13.4-1.4-8.9-6.6-16.8-13.5-22.9-3.4-3-7.2-5.7-11.2-8-3.9-2.4-8.1-4.5-12.5-6.1z"/><path class="st18" d="M758.8 242.4h-42.4c-7.5 0-13.7-6.1-13.7-13.7v-45.5c0-7.6 6.2-13.8 13.8-13.8h59.2v56.1c0 9.3-7.6 16.9-16.9 16.9z"/><path class="st4" d="M723 231.8c-2.7 0-4.8-.8-6.3-2.4-2.5-2.7-2.3-6.6-2.3-6.8v-31.5c0-.6.5-1 1-1s1 .5 1 1v31.5c0 .1-.1 3.3 1.8 5.3 1.1 1.2 2.7 1.8 4.8 1.8 7.4 0 34.2-2.9 38.1-3.3.7-1.1 2.8-4.3 2.4-7.5-.5-4.2 0-25.6 0-27.7-.2-.6-1.3-4.3-6.6-4.3-6.3 0-30.3 2.6-32.7 2.8-.3.2-1.4.8-1.6 2.1-.2 1.3.3 3.7 4.4 7.6l.1.1 11 13.9c.3.3.6.5 1 .5s.8-.2 1-.5l14.9-19.1c.4-.5 1-.5 1.5-.2.5.4.5 1 .2 1.5l-14.9 19.1c-.6.8-1.6 1.3-2.7 1.3-1 0-2-.5-2.7-1.3l-11-13.8c-3.8-3.6-5.4-6.7-5-9.4.5-2.6 2.8-3.7 2.9-3.7l.3-.1c1.1-.1 26.4-2.9 33.1-2.9 6 0 8.3 4 8.7 6.1v.2c0 .2-.5 23.4-.1 27.6.5 4.7-2.9 9.2-3.1 9.3l-.3.3h-.4c-1 .3-30.4 3.5-38.5 3.5z"/><g><path d="M729.3 328.6h-44.1c-4.2 0-7.6-3.4-7.6-7.6v-26.8c0-4.2 3.4-7.6 7.6-7.6h44.1c4.2 0 7.6 3.4 7.6 7.6V321c-.1 4.2-3.5 7.6-7.6 7.6z" style="fill:#ea3434"/><path class="st4" d="M702.6 318.3c-.5 0-1.1-.1-1.6-.4-1-.6-1.6-1.6-1.6-2.8v-13.2c0-1.1.6-2.2 1.6-2.7 1-.6 2.2-.6 3.2 0l11.4 6.7c1 .6 1.6 1.6 1.6 2.8 0 1.1-.6 2.2-1.6 2.7l-11.5 6.6c-.4.1-.9.3-1.5.3zm.1-17.5c-.3 0-.4.1-.5.1-.2.1-.5.4-.5.9V315c0 .6.4.9.5.9.2.1.6.3 1.1 0l11.5-6.6c.5-.3.5-.8.5-.9 0-.2-.1-.7-.5-.9l-11.4-6.7h-.7z"/></g><g><path class="st10" d="M857.8 293.4h-52.2c-4.5 0-8.1-3.6-8.1-8.1v-44.6c0-4.5 3.6-8.1 8.1-8.1h52.2c4.5 0 8.1 3.6 8.1 8.1v44.6c0 4.4-3.6 8.1-8.1 8.1z"/><path class="st4" d="M818.1 283.7c-1.4 0-2.8 0-4.1-.1-.5 0-.9-.4-1-.9-.1-.5.2-1 .7-1.1l13.3-5c-6.1-.7-16.1-2.7-19.7-8.7-1.9-3.2-1.7-6.9.5-11.3 5.8-11.4 16.7-15 22.6-16 8.2-1.5 16.2-.2 20.1 3.3 4.3 3.9 8.4 11.1 8.1 18.4-.2 4.8-2.4 8.9-6.3 11.8-9.4 7.1-23.2 9.6-34.2 9.6zm18.8-41.7c-2 0-4.1.2-6.2.6-5.6 1-15.7 4.3-21.1 14.9-1.9 3.6-2 6.8-.5 9.2 4.5 7.6 22.5 8 22.7 8 .5 0 .9.4 1 .9.1.5-.2 1-.7 1.2l-12.6 4.8c10.2-.2 23-2.7 31.5-9.1 3.4-2.6 5.3-6.1 5.5-10.3.3-6.6-3.6-13.3-7.4-16.8-2.5-2.2-7.1-3.4-12.2-3.4z"/></g><g><path class="st16" d="M860.4 395.6h-52.2c-4.5 0-8.1-3.6-8.1-8.1v-43.3c0-4.5 3.6-8.1 8.1-8.1h52.2c4.5 0 8.1 3.6 8.1 8.1v43.3c0 4.4-3.7 8.1-8.1 8.1z"/><path class="st4" d="M836.3 387.1c-4.6 0-8.5-3-17-11.4-4.8-4.7-7-9.4-6.7-13.7.3-3.8 2.6-6.3 3.7-7.3 0-.2.2-.3.3-.4 0 0 .7-.7 1.5 0 .1.1.2.3.3.4.9 1.1 4.5 5 6.7 7.4.3.3.4.8.2 1.2l-1.4 2.9c-.6 1.3 3.4 5.7 7.4 8.9 2.7 1.8 4.2.6 4.3.5.4-.3 1-.3 1.4 0l8 7.6c.3.2.4.6.3 1-.1.4-.3.6-.7.8-3.4 1.3-6 2.1-8.3 2.1zm-18.9-30.5c-.9.9-2.4 2.9-2.7 5.6-.3 3.7 1.8 7.7 6.1 12 12 11.9 14.1 12.1 21.5 9.5l-6.2-5.9c-1.1.5-3.2 1-6.1-.9-2.4-1.9-9.7-8.1-8-11.5l1.1-2.3c-3-3.4-4.7-5.3-5.7-6.5zM841.4 371.6h-.1c-.6-.1-1-.6-.9-1.2.3-2.4-.2-4.3-1.5-5.7-2.5-2.9-7.2-3-7.2-3-.6 0-1-.5-1-1.1 0-.6.5-1 1.1-1 .2 0 5.7.2 8.8 3.7 1.7 1.9 2.3 4.4 2 7.4-.2.5-.7.9-1.2.9z"/><path class="st4" d="M847.4 371.6c-.1 0-.1 0 0 0-.6 0-1.1-.5-1-1.1.9-13.8-14.9-15.8-15.6-15.8-.6-.1-1-.6-.9-1.2.1-.6.6-1 1.2-.9.2 0 18.4 2.3 17.4 18-.1.6-.6 1-1.1 1z"/><path class="st4" d="M852.6 371.6c-.7 0-1.1-.5-1-1.1.4-5.7-.9-10.3-4.1-13.6-6-6.4-16.5-6.3-16.6-6.3-.5 0-1-.5-1.1-1 0-.6.5-1 1-1.1.5 0 11.5-.1 18.1 7 3.6 3.8 5.1 8.9 4.6 15.2.1.5-.3.9-.9.9z"/></g><path class="st4" d="M417.5 304.5s36.1-26.4 12.2-50.3c0 0-68.1-27.7-57.5-64.9s58.3-62.1 96.6-52.5c38.3 9.6 88.9 36.8 58.3 82.9s-109.6 84.8-109.6 84.8z"/><g><path class="st21" d="M417.5 187H402c-1.2 0-2.1-.9-2.1-2.1s.9-2.1 2.1-2.1h15.5c1.2 0 2.1.9 2.1 2.1s-.9 2.1-2.1 2.1zM511.9 187h-72.6c-1.2 0-2.1-.9-2.1-2.1s.9-2.1 2.1-2.1h72.6c1.2 0 2.1.9 2.1 2.1s-.9 2.1-2.1 2.1zM447 199.9h-44.9c-1.2 0-2.1-.9-2.1-2.1s.9-2.1 2.1-2.1H447c1.2 0 2.1.9 2.1 2.1s-1 2.1-2.1 2.1zM511.9 199.9h-21c-1.2 0-2.1-.9-2.1-2.1s.9-2.1 2.1-2.1h21c1.2 0 2.1.9 2.1 2.1s-.9 2.1-2.1 2.1zM425.6 214.3h-17.3c-1.2 0-2.1-.9-2.1-2.1s.9-2.1 2.1-2.1h17.3c1.2 0 2.1.9 2.1 2.1s-.9 2.1-2.1 2.1zM516.3 214.3h-62.5c-1.2 0-2.1-.9-2.1-2.1s.9-2.1 2.1-2.1h62.5c1.2 0 2.1.9 2.1 2.1s-.9 2.1-2.1 2.1z"/></g><g><path class="st4" d="M660.2 293.1c-.1-2-.1-3.1-.1-3.2h2.1s0 1.1.1 3.1l-2.1.1zM800.6 432v-2.1c2.1 0 4.1 0 6.2-.1l.1 2.1c-2.1 0-4.2.1-6.3.1zm-6.3-.2c-2-.1-4.1-.2-6.1-.4h-.2l.2-2.1h.2c2 .2 4 .3 6 .4l-.1 2.1zm18.8-.4-.2-2.1c2.1-.2 4.1-.4 6.1-.7l.3 2.1c-2 .3-4.1.5-6.2.7zm-31.3-.6c-2.1-.2-4.2-.5-6.2-.8l.3-2.1c2 .3 4.1.6 6.1.8l-.2 2.1zm43.8-1.2-.4-2c2-.4 4.1-.9 6-1.3l.5 2c-2 .4-4.1.9-6.1 1.3zm-56.2-.7c-2.1-.4-4.1-.8-6.1-1.3l.5-2c2 .5 4 .9 6.1 1.3l-.5 2zm68.4-2.4-.6-2c2-.6 3.9-1.3 5.8-2l.7 1.9c-1.9.8-3.9 1.5-5.9 2.1zm-80.6-.5-6-1.8.7-2c1.9.6 3.9 1.3 5.9 1.8l-.6 2zm92.3-3.9-.8-1.9c1.9-.8 3.7-1.7 5.6-2.7l1 1.8c-2 1-3.9 1.9-5.8 2.8zm-104.2-.1c-2-.7-3.9-1.6-5.8-2.4l.8-1.9 5.7 2.4-.7 1.9zm-11.5-5c-1.9-.9-3.7-1.9-5.5-3l1-1.8c1.8 1 3.6 2 5.4 2.9l-.9 1.9zm126.9-.7-1.1-1.8c1.8-1 3.5-2.2 5.2-3.3l1.2 1.7c-1.7 1.2-3.5 2.3-5.3 3.4zm-137.8-5.5c-1.8-1.1-3.5-2.3-5.2-3.5l1.2-1.7c1.7 1.2 3.4 2.4 5.1 3.5l-1.1 1.7zm148.2-1.6-1.3-1.6 4.8-3.9 1.4 1.6c-1.6 1.3-3.3 2.6-4.9 3.9zm-158.5-5.7c-1.6-1.3-3.2-2.7-4.8-4l1.4-1.6c1.5 1.4 3.1 2.7 4.7 4l-1.3 1.6zm168-2.6-1.5-1.5c1.5-1.4 2.9-2.9 4.3-4.4l1.5 1.4c-1.3 1.6-2.8 3.1-4.3 4.5zm-177.4-5.8c-1.5-1.5-3-3-4.4-4.5l1.5-1.4c1.4 1.5 2.8 3 4.3 4.5l-1.4 1.4zm185.9-3.4-1.6-1.3c1.3-1.6 2.6-3.2 3.8-4.9l1.7 1.2c-1.2 1.7-2.6 3.4-3.9 5zm-194.3-5.9c-1.3-1.6-2.6-3.3-3.9-4.9l1.7-1.2c1.2 1.7 2.5 3.3 3.8 4.9l-1.6 1.2zm201.8-4.2-1.7-1.2c1.1-1.7 2.3-3.5 3.3-5.2l1.8 1.1c-1.1 1.8-2.2 3.6-3.4 5.3zm-209.4-5.8c-1.2-1.7-2.3-3.5-3.4-5.3l1.8-1.1c1.1 1.8 2.2 3.5 3.3 5.2l-1.7 1.2zm215.9-5-1.8-1c1-1.8 1.9-3.7 2.8-5.5l1.9.9c-.9 1.9-1.9 3.8-2.9 5.6zM680.7 365c-1-1.8-2-3.7-2.9-5.6l1.9-.9c.9 1.9 1.9 3.7 2.9 5.5l-1.9 1zm227.9-5.5-1.9-.8c.8-1.9 1.6-3.8 2.3-5.7l1.9.7c-.7 1.9-1.5 3.9-2.3 5.8zm-233.5-5.7c-.8-1.9-1.7-3.8-2.5-5.8l1.9-.8c.8 1.9 1.6 3.9 2.4 5.7l-1.8.9zm238-6.1-2-.7c.7-1.9 1.3-3.9 1.9-5.9l2 .6c-.6 2.1-1.2 4.1-1.9 6zm-242.7-5.6c-.7-2-1.4-4-2-5.9l2-.6c.6 2 1.3 3.9 2 5.9l-2 .6zm246.2-6.4-2-.5c.5-2 1-4 1.4-6l2 .4c-.4 2-.8 4-1.4 6.1zm-250-5.5c-.6-2-1.1-4-1.6-6.1l2-.5c.5 2 1 4 1.6 6l-2 .6zm252.7-6.8-2.1-.4c.4-2 .7-4.1.9-6.1l2.1.3c-.3 2-.6 4.1-.9 6.2zM663.6 318c-.4-2.1-.8-4.1-1.2-6.2l2.1-.4c.4 2 .7 4.1 1.2 6.1l-2.1.5zm257.3-7.1-2.1-.2c.2-2.1.4-4.1.5-6.2l2.1.1c-.1 2.2-.3 4.3-.5 6.3zm-259.5-5.3c-.3-2.1-.5-4.2-.8-6.2l2.1-.2c.2 2 .5 4.1.7 6.2l-2 .2zm260.3-7.2h-2.1V292.2h2.1V298.4zm-2.4-12.4c-.1-2.1-.3-4.2-.5-6.2l2.1-.2c.2 2 .4 4.2.5 6.3l-2.1.1zm-1.3-12.3c-.3-2.1-.7-4.1-1.1-6.1l2-.4c.4 2 .8 4.1 1.1 6.2l-2 .3zm-2.6-12.1c-.6-2-1.2-4-1.8-5.9l2-.7c.7 1.9 1.3 4 1.9 6l-2.1.6zm-4-11.6c-.8-1.9-1.7-3.8-2.7-5.5l1.8-1c1 1.8 1.9 3.7 2.7 5.7l-1.8.8zm-5.9-10.9c-1.1-1.8-2.3-3.5-3.4-5.2l1.7-1.2c1.2 1.7 2.3 3.4 3.5 5.2l-1.8 1.2zm-7-10.2c-1.2-1.7-2.5-3.4-3.7-5l1.7-1.3c1.3 1.6 2.5 3.3 3.7 5l-1.7 1.3zM891 219c-1.3-1.6-2.7-3.2-4-4.7l1.6-1.4c1.4 1.5 2.7 3.2 4.1 4.8L891 219zm-8.2-9.3c-1.4-1.5-2.9-3-4.3-4.4l1.5-1.5c1.5 1.4 2.9 3 4.4 4.5l-1.6 1.4zM874 201c-1.5-1.4-3.1-2.8-4.7-4.1l1.3-1.6c1.6 1.3 3.2 2.7 4.7 4.1L874 201zm-9.5-7.9c-1.7-1.2-3.3-2.5-5-3.6l1.2-1.7c1.7 1.2 3.4 2.4 5.1 3.7l-1.3 1.6zm-10.3-6.9c-1.8-1.1-3.6-2.1-5.4-3.1l1-1.8c1.8 1 3.7 2 5.5 3.1l-1.1 1.8zm-10.8-5.9c-1.9-.9-3.8-1.7-5.7-2.5l.8-1.9c1.9.8 3.9 1.6 5.8 2.5l-.9 1.9zm-11.5-4.7c-1.9-.7-3.9-1.3-5.9-1.8l.6-2c2 .6 4 1.2 6 1.9l-.7 1.9zm-11.9-3.3c-2-.4-4-.8-6.1-1.2l.3-2.1c2.1.3 4.1.7 6.2 1.2l-.4 2.1zm-12.1-2c-2-.2-4.1-.4-6.2-.5l.1-2.1c2.1.1 4.2.3 6.3.5l-.2 2.1zm-18.6-.6-.1-2.1c1.8-.1 3.6-.1 5.3-.1h1v2.1h-.9c-1.8 0-3.5.1-5.3.1zM779.9 170.4l-.2-2.1c1-.1 2.1-.2 3.1-.3l.2 2.1c-1 .1-2.1.2-3.1.3z"/></g><g><path class="st22" d="m688.6 508.3-.5-2s1.1-.2 3-.7l.5 2c-1.9.4-3 .7-3 .7zM697.6 505.9l-.6-2c1.9-.6 3.9-1.2 5.8-1.8l.6 2c-1.9.6-3.9 1.2-5.8 1.8zm11.7-3.8-.7-2c1.8-.6 3.8-1.3 5.8-2.1l.7 2c-2 .8-4 1.5-5.8 2.1zm11.5-4.3-.8-1.9c1.8-.7 3.7-1.5 5.7-2.3l.8 1.9c-1.9.8-3.8 1.6-5.7 2.3zm11.4-4.8-.9-1.9c1.8-.8 3.7-1.7 5.5-2.6l.9 1.9c-1.8.9-3.7 1.8-5.5 2.6zm11.1-5.3-.9-1.9c1.8-.9 3.6-1.9 5.4-2.8l1 1.8c-1.8 1-3.7 2-5.5 2.9zm10.8-5.9-1-1.8c1.8-1 3.5-2.1 5.2-3.1l1.1 1.8c-1.7 1-3.5 2.1-5.3 3.1zm10.5-6.4-1.1-1.7c1.7-1.1 3.4-2.3 5-3.4l1.2 1.7c-1.7 1.1-3.4 2.2-5.1 3.4zm10.1-7.1-1.3-1.7c1.6-1.2 3.3-2.5 4.8-3.8l1.3 1.6c-1.5 1.3-3.1 2.6-4.8 3.9zm9.6-7.8-1.4-1.6c1.5-1.3 3-2.7 4.5-4.1l1.4 1.5c-1.4 1.4-3 2.8-4.5 4.2zm8.9-8.5-1.5-1.5c1.4-1.5 2.8-3 4.1-4.4l1.6 1.4-4.2 4.5zm8.2-9.2-1.6-1.3c1.3-1.6 2.5-3.2 3.7-4.8l1.7 1.2c-1.3 1.6-2.5 3.3-3.8 4.9zm7.2-10-1.7-1.1c1.1-1.7 2.2-3.4 3.2-5.2l1.8 1c-1.1 1.8-2.2 3.6-3.3 5.3zm6.2-10.7-1.9-.9c.9-1.8 1.8-3.7 2.6-5.5l1.9.8c-.9 1.9-1.7 3.7-2.6 5.6zm4.8-11.4-2-.7c.7-1.9 1.3-3.8 1.9-5.8l2 .6c-.5 2-1.2 4-1.9 5.9zM823.1 398.8l-2-.5.6-3 2 .4c-.1 1.1-.4 2.1-.6 3.1z"/></g><g><path class="st22" d="m858.1 233.4-1.3-1.7s.9-.7 2.3-2l1.4 1.5c-1.4 1.4-2.4 2.2-2.4 2.2zM865.1 226.9l-1.5-1.4c1.4-1.5 2.8-3 4.1-4.6l1.6 1.3c-1.4 1.6-2.8 3.2-4.2 4.7zm7.9-9.8-1.7-1.2c1.2-1.7 2.3-3.5 3.3-5.2l1.8 1c-1.1 1.8-2.2 3.6-3.4 5.4zm6.2-11-1.9-.9c.9-1.9 1.6-3.8 2.3-5.7l2 .7c-.7 2-1.5 4-2.4 5.9zm4.1-12-2-.4c.4-2 .8-4 1-6l2.1.2c-.3 2-.7 4.1-1.1 6.2zm-.9-12.6c0-2-.2-4.1-.5-6.1l2.1-.3c.3 2.1.5 4.2.5 6.3l-2.1.1zm-1.7-12c-.5-1.9-1.1-3.9-1.9-5.8l1.9-.7c.8 2 1.4 4 1.9 6l-1.9.5zm-4.4-11.5c-.9-1.8-1.9-3.6-3-5.4l1.8-1.1c1.1 1.8 2.1 3.7 3.1 5.5l-1.9 1zm-6.3-10.5c-1.2-1.6-2.4-3.3-3.8-4.9l1.6-1.3c1.4 1.6 2.7 3.3 3.8 5l-1.6 1.2zm-7.9-9.5c-1.4-1.5-2.8-3-4.3-4.4l1.5-1.5c1.5 1.5 3 3 4.4 4.5l-1.6 1.4zm-8.8-8.6-.2-.2c-1.4-1.3-2.9-2.5-4.5-3.8l1.3-1.6c1.6 1.3 3.1 2.5 4.6 3.8l.3.2-1.5 1.6zm-9.7-7.7c-1.6-1.2-3.4-2.3-5.1-3.5l1.1-1.7c1.8 1.2 3.5 2.3 5.2 3.5l-1.2 1.7zm-10.3-6.7c-1.7-1-3.6-2.1-5.4-3l1-1.8c1.9 1 3.7 2 5.5 3.1l-1.1 1.7zm-10.9-6c-1.8-.9-3.7-1.8-5.6-2.7l.9-1.9c1.9.9 3.8 1.8 5.6 2.7l-.9 1.9zm-11.3-5.2-5.7-2.4.8-1.9c2 .8 3.9 1.6 5.8 2.4l-.9 1.9zm-11.5-4.6c-1.9-.7-3.9-1.4-5.8-2.1l.7-2c2 .7 3.9 1.4 5.9 2.1l-.8 2zm-11.8-4.1c-2-.6-3.9-1.3-5.9-1.9l.6-2c2 .6 4 1.2 6 1.9l-.7 2zM776 91.5c-2-.6-4-1.1-6-1.7l.5-2c2 .5 4 1.1 6 1.7l-.5 2zm-12.1-3.2c-2-.5-4-1-6.1-1.5l.5-2c2 .5 4.1 1 6.1 1.5l-.5 2zm-12.1-2.9c-2-.5-4.1-.9-6.1-1.3l.4-2c2 .4 4.1.9 6.1 1.3l-.4 2zm-12.2-2.6c-2-.4-4.1-.8-6.1-1.2l.4-2c2 .4 4.1.8 6.1 1.2l-.4 2zm-12.2-2.2c-2.1-.4-4.1-.7-6.1-1l.3-2.1c2 .3 4.1.7 6.2 1l-.4 2.1zm-12.3-2.1c-2.1-.3-4.1-.6-6.2-.9l.3-2.1c2 .3 4.1.6 6.2.9l-.3 2.1zm-12.3-1.7c-2.1-.3-4.1-.5-6.2-.8l.3-2.1c2 .3 4.1.5 6.2.8l-.3 2.1zm-12.4-1.6c-2.1-.2-4.2-.5-6.2-.7l.2-2.1c2 .2 4.1.4 6.2.7l-.2 2.1zM678 73.9c-2.1-.2-4.2-.4-6.2-.6l.2-2.1c2 .2 4.1.4 6.2.6l-.2 2.1zm-12.4-1.1c-2.1-.2-4.2-.3-6.2-.5l.2-2.1c2 .1 4.1.3 6.2.5l-.2 2.1zm-12.4-.9c-2.2-.1-4.3-.3-6.2-.4l.1-2.1c2 .1 4.1.2 6.2.4l-.1 2.1zm-12.5-.7c-2.3-.1-4.4-.2-6.2-.3l.1-2.1c1.8.1 3.9.2 6.3.3l-.2 2.1zM628.4 70.7c-2 0-3.1-.1-3.1-.1v-2.1s1.1 0 3.1.1v2.1z"/></g><g><path class="st4" d="m580.8 201.1-1.6-1.3s.7-.9 2-2.4l1.6 1.4c-1.3 1.4-2 2.3-2 2.3zM656.7 302.5l-.7-2c2-.7 3.9-1.5 5.8-2.3l.8 1.9c-1.9.9-3.9 1.7-5.9 2.4zm11.7-4.9-.9-1.9c1.9-.9 3.8-1.9 5.5-2.9l1 1.8c-1.8 1.1-3.7 2.1-5.6 3zm11.1-6.3-1.1-1.7c1.8-1.2 3.5-2.4 5-3.6l1.3 1.6c-1.7 1.3-3.4 2.5-5.2 3.7zm10-7.8-1.4-1.5c1.5-1.4 3-2.9 4.3-4.4l1.6 1.4c-1.4 1.5-2.9 3-4.5 4.5zm8.5-9.6-1.7-1.2c1.2-1.7 2.3-3.4 3.3-5.2l1.8 1c-1 1.9-2.2 3.7-3.4 5.4zm6.3-11.1-1.9-.8c.8-1.9 1.5-3.8 2.1-5.8l2 .6c-.6 2-1.4 4-2.2 6zm3.7-12.3-2-.4c.4-2 .7-4.1.9-6.1l2.1.2c-.3 2.1-.6 4.3-1 6.3zm1.2-12.7h-2.1v-.2c0-2-.1-4-.3-6.1l2.1-.2c.2 2.1.3 4.2.3 6.2v.3zm-3-12.4c-.3-2-.7-4.1-1.2-6.1l2-.5c.5 2.1.9 4.2 1.2 6.3l-2 .3zm-2.9-12.1c-.6-2-1.3-4-2-5.9l1.9-.7 2.1 6-2 .6zm-4.4-11.6c-.2-.3-.3-.5-.3-.6-1.2-1.4-2.3-2.7-3.5-4l1.5-1.4c1.2 1.3 2.4 2.7 3.6 4.1l.1.2s.1.3.4.8l-1.8.9zM587 194.2l-1.5-1.5c1.5-1.5 3-3 4.6-4.4l1.4 1.6c-1.5 1.4-3 2.8-4.5 4.3zm103.8-1.7c-1.5-1.5-3-2.9-4.5-4.3l1.4-1.5c1.5 1.4 3.1 2.8 4.6 4.4l-1.5 1.4zm-94.5-6.6-1.3-1.6c1.7-1.3 3.4-2.6 5.1-3.8l1.2 1.7c-1.7 1.1-3.3 2.4-5 3.7zm85.2-1.7c-1.7-1.3-3.3-2.6-5-3.7l1.2-1.7c1.7 1.2 3.4 2.4 5.1 3.8l-1.3 1.6zm-74.9-5.4-1.1-1.8c1.8-1.1 3.7-2.1 5.6-3.1l.9 1.9c-1.8.9-3.6 1.9-5.4 3zm64.6-1.6c-1.8-1-3.7-2-5.5-2.9l.9-1.9c1.9.9 3.8 1.9 5.7 3l-1.1 1.8zm-53.5-4-.8-1.9c2-.8 4-1.5 6-2.1l.6 2c-1.9.6-3.9 1.3-5.8 2zM660 172c-2-.7-4-1.3-5.9-1.8l.5-2c2 .5 4.1 1.1 6.1 1.8l-.7 2zm-30.5-2.3-.4-2c2.1-.4 4.2-.7 6.3-.9l.2 2.1c-2 .1-4 .4-6.1.8zm18.5-.7c-2-.3-4.1-.4-6.2-.5v-2.1c2.1 0 4.3.2 6.4.5l-.2 2.1zM647.6 305.5l-.6-2 3-.9.6 2-3 .9z"/></g><g><path class="st18" d="m662.8 57.6 4.9 20.3-8.2-6.7-19.2 28.3-62.6-39.7 98.4-26.5z"/><path style="opacity:.46;fill:#323233" d="m667.7 77.9-8.2-6.7-1.1-3.1-75.7-6.9 80.1-3.6z"/></g><circle cx="634.3" cy="501.8" r="10.8" style="opacity:.28;fill:#fff"/></svg>