<svg version="1.1" id="Layer_1" xmlns="http://www.w3.org/2000/svg" x="0" y="0" viewBox="0 0 929.05 838.16" style="enable-background:new 0 0 929.05 838.16" xml:space="preserve"><style>.st3{fill:#fff}.st5{fill:#1a2c36}.st7{fill:#cfb5f6}.st8{fill:#ff4d53}.st10{fill:#7a45ce}.st11{fill:none;stroke:#fff;stroke-width:2;stroke-miterlimit:10}.st12{opacity:.66}.st13{fill:#fefefe}.st14{fill:#fda7a0}.st15{fill:#222223}.st16{fill:#ffb1ae}.st18{fill:#252526}.st19{fill:#feac02}</style><ellipse cx="421.59" cy="784.84" rx="393.98" ry="43.8" style="fill:#e3e3f0"/><ellipse cx="490.93" cy="394.16" rx="403.63" ry="382.84" style="opacity:.26;fill:#8152cc"/><ellipse cx="411.94" cy="414.44" rx="403.63" ry="382.84" style="opacity:.13;fill:#8152cc"/><path class="st3" d="M759.07 760.92H275.68V103.37l.55-.02L744 87.84c.11-.02 4.18-.6 8.1 3.02 3.82 3.52 8.08 11.79 6.7 31.19-2.55 35.75.24 632.27.27 638.29v.58zm-482.26-1.14h481.11c-.1-21.59-2.79-602.51-.27-637.81 1.35-18.91-2.68-26.89-6.31-30.25-3.51-3.26-7.22-2.76-7.26-2.75L276.8 104.46v655.32z"/><path d="M759.07 760.92H275.68V103.37l.55-.02L744 87.84c.11-.02 4.18-.6 8.1 3.02 3.82 3.52 8.08 11.79 6.7 31.19-2.55 35.75.24 632.27.27 638.29v.58zM744.1 88.98" style="fill:#4269a9"/><path class="st3" d="M729.24 741.38h-424.1c-6.9 0-12.52-5.61-12.52-12.51V140.23c0-6.8 5.32-12.29 12.11-12.51l419.11-13.52a12.44 12.44 0 0 1 9.07 3.48c2.45 2.36 3.82 5.52 3.85 8.92l4.99 602.15c.03 3.36-1.26 6.53-3.63 8.92a12.42 12.42 0 0 1-8.88 3.71zM304.8 129.43l.05 1.7a9.068 9.068 0 0 0-8.81 9.1v588.63c0 5.02 4.08 9.1 9.1 9.1h424.09c2.45 0 4.74-.96 6.46-2.69a9.06 9.06 0 0 0 2.64-6.49l-4.99-602.15a9.007 9.007 0 0 0-2.8-6.49c-1.78-1.71-4.11-2.6-6.6-2.53l-419.1 13.52-.04-1.7z"/><path class="st3" d="M551.48 152.46h156.35v1.14H551.48zM551.48 162.79h156.35v1.14H551.48zM551.48 177.01h156.35v1.14H551.48zM551.48 187.35h156.35v1.14H551.48zM662.48 725.95l-320.13-6.37V461.29h37.46l-3.35-118.69h-34.11v-41.67H668l-3.17 258.67-5.69-.07 3.1-252.91H348.03v30.3h33.95l3.68 130.05h-37.63V714l308.77 6.15V658.9h5.68z"/><path class="st3" d="M520.03 716.79h-5.68V487.1h148.49v5.69H520.03zM662.84 441.16H555.11V303.78h5.69v131.7h102.04zM367.77 188.7l-6.18-7.84 63.78-48.33 63.9 50.8-7.2 5.3-.34-.26-55.75-43.44-58.21 43.77zm58.22-45.21 56.1 43.71 5.31-3.9-62.04-49.32-62.15 47.1 4.77 6.06 58.01-43.65z"/><path class="st3" d="M518.01 198.74h-34.37v-1.13h32.73l-12.79-33.68-41.29-.74.02-1.14 42.06.76zM366.31 198.74h-34.52l17.33-38.73 39.27.71-.02 1.13-38.52-.69-16.3 36.45h32.76z"/><path class="st3" d="M483.43 275.4H367.3v-87.49h1.14v86.36h113.85v-83.13h1.14z"/><path class="st3" d="M470.22 220.47h-27.56V180.4h27.56v40.07zm-26.42-1.13h25.28v-37.8H443.8v37.8zM470.22 259.06h-27.56v-31.04h27.56v31.04zm-26.42-1.13h25.28v-28.76H443.8v28.76zM501.85 251.07h-19.56v-37.64h19.56v37.64zm-18.42-1.14h17.29v-35.37h-17.29v35.37zM368.44 249.33h-18.95v-35.9h18.95v35.9zm-17.82-1.14h16.68v-33.63h-16.68v33.63zM404.51 220.47h-25.86v-41.66h25.86v41.66zm-24.72-1.13h23.59v-39.39h-23.59v39.39zM404.51 259.06h-25.86v-29.64h25.86v29.64zm-24.72-1.13h23.59v-27.37h-23.59v27.37zM434.92 264.97h-24.25v-45.64h24.25v45.64zm-23.11-1.13h21.97v-43.36h-21.97v43.36zM434.92 216.3h-24.25v-8.09h24.25v8.09zm-23.11-1.14h21.97v-5.82h-21.97v5.82z"/><path class="st3" d="M440.67 269.84h-35.21v-6h35.21v6zm-34.07-1.14h32.93v-3.73H406.6v3.73z"/><path class="st3" d="M440.4 274.01h-35.2v-6h35.21v6zm-34.07-1.14h32.93v-3.73h-32.93v3.73zM455.87 228.6h1.14v29.9h-1.14zM391.01 229.99h1.14v28.51h-1.14zM391.01 179.38h1.14v40.52h-1.14z"/><path class="st3" d="M379.22 195.7h24.72v1.14h-24.72zM455.87 180.97h1.14v38.94h-1.14z"/><path class="st3" d="M443.23 195.7h26.42v1.14h-26.42zM489.24 213.99h1.14v36.5h-1.14zM361.83 213.99h1.14v34.77h-1.14zM449.61 147.25h1.14v5.73h-1.14zM459.35 147.25h1.14v13.34h-1.14z"/><path class="st3" d="M463.35 147.81h-16.78v-4.7h16.78v4.7zm-15.64-1.13h14.51v-2.43h-14.51v2.43z"/><path class="st3" d="M460.48 144.25h-10.87v-3.22h10.87v3.22zm-9.73-1.14h8.6v-.95h-8.6v.95z"/><g><path class="st3" d="M377.76 437.59c-40.49-10.52-42.55-41.92-42.57-42.24l-.06-1.19h42.92v2.27h-40.46c.74 5.74 5.91 29.91 40.75 38.96l-.58 2.2z"/></g><g><path class="st3" d="M518.33 438.32h-2.28l.18-96.64h-83.01v-33.47h2.27v31.19h83.02z"/></g><g><path class="st3" d="M596.97 308.21h2.27v124.63h-2.27z"/></g><g><path class="st3" d="M629.49 711.41h-79.97v-96.66h79.97v96.66zm-77.7-2.28h75.43v-92.11h-75.43v92.11z"/></g><g><path class="st3" d="M587.77 707.23h-34.08v-22.09h34.08v22.09zm-31.81-2.27h29.54v-17.54h-29.54v17.54z"/></g><g><path class="st3" d="M623.75 707.23h-34.08v-22.09h34.08v22.09zm-31.81-2.27h29.54v-17.54h-29.54v17.54z"/></g><g><path class="st3" d="M655.56 711.41h-25.67v-22.09h25.67v22.09zm-23.39-2.28h21.12v-17.54h-21.12v17.54z"/></g><g><path class="st3" d="M549.18 710.27h-25.67v-22.09h25.67v22.09zm-23.4-2.27h21.12v-17.54h-21.12V708z"/></g><g><path class="st3" d="M517.37 525.05h140.18v2.27H517.37z"/></g><g><path class="st3" d="M521.45 573.21h-1.02l-4.33-39.3h47.76l-.09 1.22c-.02.38-3.13 38.08-42.32 38.08zm-2.81-37.02 3.83 34.74c32.69-.57 38.11-28.42 38.92-34.74h-42.75z"/></g><g><path class="st3" d="m606.52 439.52.4-1.49c.1-.36 9.9-35.53 46.19-35.53.27 0 .54 0 .81.01l1.12.02v35.07l-48.52 1.92zm46.25-34.75c-30.08.2-40.91 25.82-43.18 32.35l43.18-1.72v-30.63z"/></g><g><path class="st3" d="M635.95 343.78c-.29 0-.58-.01-.88-.02-12.26-.56-14.09-11.8-14.11-11.92l-.01-.17V308.2h2.27v23.37c.17.96 1.96 9.45 11.95 9.91 9.85.45 13.41-7.65 13.94-8.98v-24.3h2.27v24.7l-.06.18c-.03.12-3.87 10.7-15.37 10.7z"/></g><g><path class="st3" d="M493.21 334.2h-27.13v-27.13h27.13v27.13zm-24.86-2.27h22.58v-22.58h-22.58v22.58z"/></g><g><path class="st3" d="M548.66 391.74h-28.35V358.7h28.35v33.04zm-26.07-2.27h23.8v-28.49h-23.8v28.49z"/></g><g><path class="st3" d="M580.12 402.17c-8.25 0-14.96-6.71-14.96-14.96v-62.06c0-8.25 6.71-14.96 14.96-14.96s14.96 6.71 14.96 14.96v62.06c-.01 8.25-6.72 14.96-14.96 14.96zm0-89.7c-6.99 0-12.68 5.69-12.68 12.68v62.06c0 6.99 5.69 12.68 12.68 12.68 6.99 0 12.68-5.69 12.68-12.68v-62.06c0-6.99-5.69-12.68-12.68-12.68z"/></g><g><path class="st3" d="M427.12 730.7h-28.31v-81.54h28.31v81.54zm-26.04-2.27h23.76v-76.99h-23.76v76.99z"/></g><g><path class="st3" d="M493.21 711.41h-22.96v-49.47h22.96v49.47zm-20.69-2.28h18.41v-44.92h-18.41v44.92z"/></g><g><path class="st5" d="M192.63 588.9h-58.09l2.49-475.14 24.95-94.23 30.65 94.4V588.9zm-54.66-3.41h51.25V114.47l-26.9-82.87-21.93 82.82-2.42 471.07zM134.34 135.11H73.4v-22.05h60.94v22.05zm-58.66-2.28h56.39v-17.5H75.68v17.5zM414.09 145.39H194.81v-38.66h219.27v38.66zm-214.73-4.55h210.17v-29.56H199.36v29.56z"/><path class="st5" d="M209.7 366.95h-91.81v-36.16h91.81v36.16zm-89.54-2.27h87.26v-31.61h-87.26v31.61z"/><path class="st5" d="M203.44 386.51h-78.93v-21.83h78.93v21.83zm-76.66-2.27h74.38v-17.28h-74.38v17.28zM190.31 110.14h-53.16l22.62-20.85-13.42-10.43 13.14-13.06-7.25-3.77 1.05-2.02 7.89 4.11 8.76-8.71-15.28-9.4 11.27-7.74 1.29 1.87-8.39 5.76 14.76 9.08-10.3 10.23 16.57 8.62-16.59 15.29 27.04 21.02zm-47.34-2.27h40.71L161.59 90.7l-18.62 17.17zm6.81-29.22 11.68 9.07 14.49-13.36-14.34-7.46-11.83 11.75z"/><path class="st5" d="m137.28 588.56-2.04-2.73 50.75-38.04-52.2-34.18 50.47-42.62-46.86-35.21 49.84-46.28-52.33-45.72 49.3-42.69-46.94-32.23 47.09-40.81-46.91-39.3L188 143.44l-50.14-27.75 1.65-2.98 54.34 30.07-51.19 45.88 46.96 39.35-46.78 40.54 46.94 32.23-49.67 43.01 52.23 45.64-49.63 46.07 47.02 35.33-50.24 42.44 52.44 34.34zM380.62 143.85l-.83-.94c-10.31-11.71-27.21-30.41-30.33-32.65-3.24 2.12-21.49 20.22-32.67 31.56l-.8.81-32.67-32.1-37.54 31.36-1.46-1.75 39.12-32.68 32.52 31.95c20.64-20.94 31.92-31.55 33.51-31.55.61 0 2.44 0 31.19 32.61l30.31-32.25 1.66 1.56-32.01 34.07zm-31.44-33.77z"/><path class="st5" d="m75.38 114.97-1.68-1.54 88.2-95.53 173.75 90.09-1.05 2.02-172.2-89.29zM140.06 148.98h50.87v2.27h-50.87zM140.06 187.35h50.87v2.27h-50.87zM140.06 225.72h50.87v2.27h-50.87zM136.72 263.84h50.87v2.27h-50.87zM140.6 297.31h50.87v2.27H140.6zM136.72 432.23h50.87v2.27h-50.87zM136.72 469.75h50.87v2.27h-50.87zM136.72 510.53h50.87v2.27h-50.87z"/><path class="st5" d="m162.15 160.62 1.64-51.61s8.26-18.77 38.51-15.64 59.45 7.43 59.97 39.17 2.35 27.47 2.35 27.47l-102.47.61z"/><path class="st3" d="m162.15 160.01 1.5-48.47s7.54-17.63 35.15-14.69 54.26 6.97 54.74 36.78 2.14 25.8 2.14 25.8l-93.53.58z" style="opacity:.53"/><path class="st5" d="M321.29 227.99H306.2V131.4h15.09v96.59zm-12.81-2.27h10.54v-92.05h-10.54v92.05z"/><path class="st5" d="M304.7 226.85s7.52 15.9-2.27 23.08c-9.8 7.17-3.13 32.21 17.73 31.16 20.86-1.04 22.19-13.08 22.19-13.08s-4.77-9.96-7.22-4.17c-1.84 4.34-10.19 14.56-19.02 7.61-6.68-5.25-7.47-15.11-2.11-21.71l6.17-7.59v-15.3H304.7z"/><circle class="st5" cx="315.05" cy="139.36" r="8.45"/><circle class="st5" cx="313.75" cy="219.34" r="8.45"/></g><g><path class="st7" d="M54.2 604.15h423.96v176H54.2z"/><path class="st8" d="m69.33 529.45 393.2 8.21 25.81 74.81s3.13 2.84-10.95 4.25c-14.08 1.42-433.35 0-433.35 0s-10.17.71-5.48-10.64 30.77-76.63 30.77-76.63z"/><path class="st3" d="M457.19 540.43H72.05c-2.94 0-5.33-2.39-5.33-5.33v-1.46c0-2.94 2.39-5.33 5.33-5.33h385.14c2.94 0 5.33 2.39 5.33 5.33v1.46c0 2.95-2.39 5.33-5.33 5.33z"/><path style="fill:#e3d5f5" d="M263.8 475.86 133.21 582.25v203.37h258.13V580.68z"/><path class="st10" d="M230.2 659.69h53.19v106.38H230.2zM217.43 735.82h-55.28V628.45c0-13.42 10.88-24.31 24.31-24.31h6.67c13.42 0 24.31 10.88 24.31 24.31v107.37zM357.7 735.82h-55.28V628.45c0-13.42 10.88-24.31 24.31-24.31h6.67c13.42 0 24.31 10.88 24.31 24.31v107.37z"/><path class="st11" d="M225.77 743.38h-73.01V620.89c0-13.42 10.88-24.31 24.31-24.31h24.4c13.42 0 24.31 10.88 24.31 24.31v122.49zM366.57 743.38h-73.01V620.89c0-13.42 10.88-24.31 24.31-24.31h24.4c13.42 0 24.31 10.88 24.31 24.31v122.49z"/><path class="st3" d="M230.2 638.83h53.19v14.08H230.2zM162.15 652.91h55.28v3.39h-55.28z"/><path class="st3" d="M186.99 604.15h3.93v131.67h-3.93zM302.43 652.91h55.28v3.39h-55.28z"/><path class="st3" d="M327.27 604.15h3.93v131.67h-3.93zM74.54 648.74h53.71v81.35H74.54z"/><path class="st10" d="M77.15 652.68h48.5v73.45h-48.5z"/><path class="st3" d="M99.43 648.74h3.93v79.53h-3.93zM399.13 647.82h53.71v81.35h-53.71z"/><path class="st10" d="M401.73 651.77h48.5v73.45h-48.5z"/><path class="st3" d="M424.02 647.82h3.93v79.53h-3.93z"/><path class="st10" d="M217.43 775.98h79.79v14.08h-79.79z"/><path class="st7" d="M217.43 766.07h79.79v14.08h-79.79z"/><path class="st10" d="m128.51 593.2 135.32-104.82L395.25 593.2s17.21-2.35 12.52-14.86L262.27 465.7 120.69 573.64s-7.04 11.74 7.82 19.56z"/><g class="st12"><path class="st13" d="M245.06 736.91c-4.77 0-8.65-3.88-8.65-8.65v-52.15c0-4.77 3.88-8.65 8.65-8.65s8.65 3.88 8.65 8.65v52.15c.01 4.77-3.88 8.65-8.65 8.65zm0-68.31c-4.14 0-7.51 3.37-7.51 7.51v52.15c0 4.14 3.37 7.51 7.51 7.51s7.51-3.37 7.51-7.51v-52.15c.01-4.14-3.36-7.51-7.51-7.51z"/></g><g class="st12"><path class="st13" d="M267.82 736.91c-4.77 0-8.65-3.88-8.65-8.65v-52.15c0-4.77 3.88-8.65 8.65-8.65s8.65 3.88 8.65 8.65v52.15c0 4.77-3.88 8.65-8.65 8.65zm0-68.31c-4.14 0-7.51 3.37-7.51 7.51v52.15c0 4.14 3.37 7.51 7.51 7.51s7.51-3.37 7.51-7.51v-52.15c.01-4.14-3.37-7.51-7.51-7.51z"/></g><g><path class="st13" d="M250.37 758.29h-10.6a3.35 3.35 0 0 1-3.35-3.35v-10.6c0-1.85 1.5-3.35 3.35-3.35h10.6c1.85 0 3.35 1.5 3.35 3.35v10.6c0 1.85-1.51 3.35-3.35 3.35zm-10.61-16.16c-1.22 0-2.21.99-2.21 2.21v10.6c0 1.22.99 2.21 2.21 2.21h10.6c1.22 0 2.21-.99 2.21-2.21v-10.6c0-1.22-.99-2.21-2.21-2.21h-10.6z"/></g><g><path class="st13" d="M273.83 758.29h-10.6a3.35 3.35 0 0 1-3.35-3.35v-10.6c0-1.85 1.5-3.35 3.35-3.35h10.6c1.85 0 3.35 1.5 3.35 3.35v10.6c0 1.85-1.5 3.35-3.35 3.35zm-10.6-16.16c-1.22 0-2.21.99-2.21 2.21v10.6c0 1.22.99 2.21 2.21 2.21h10.6c1.22 0 2.21-.99 2.21-2.21v-10.6c0-1.22-.99-2.21-2.21-2.21h-10.6z"/></g></g><g><path class="st14" d="M526.32 439.97c2.43-.35 37.89-15.3 52.84-32.33 14.95-17.04 13.21-16.76 13.21-16.76s-6.95-15.92 4.52-23.57l13.21-13.51s8-7.35 5.21 1.69l-8.34 8s10.78 4.52 3.82 14.6c-6.95 10.08-10.43 12.79-10.43 12.79s-9.39 35.53-26.42 53.26c-17.03 17.73-37.2 20.16-37.2 20.16l-10.42-24.33zM425.98 775.45l4.38 15.3h11.82l-2.78-17.73z"/><path class="st15" d="M425.98 784.49s11.46 2.78 15.22 0c0 0 10.02 15.3 2.72 19.82h-15.3s-5.56-3.48-4.17-9.91c1.39-6.43 1.53-9.91 1.53-9.91z"/><path class="st14" d="m474.17 773.02 4.52 16.34 15.99-4.17-8.34-14.6z"/><path class="st15" d="M474.17 784.49s-3.82 17.04 3.82 18.43 49.71 0 49.71 0 1.74-3.82-5.91-6.95-29-14.08-29-14.08-8.54 3.65-18.62 2.6z"/><ellipse transform="rotate(-23.03 476.217 399.22)" class="st16" cx="476.21" cy="399.21" rx="18.38" ry="27.38"/><ellipse transform="rotate(-37.824 460.961 405.725)" cx="460.95" cy="405.7" rx="5" ry="7.45" style="opacity:.66;fill:#ffb1ae"/><path class="st18" d="M465.04 415.94c.84.03.41-17.11-4.1-22.56-4.51-5.45 20.85 1.25 26.77-10.5S479.73 368 479.73 368s-12.86-6.61-27.12 3.13-16.34 28.07-16.34 28.07-.35 6.29 9.04 6.49c0 .01 7.48 9.86 19.73 10.25z"/><path class="st19" d="M495.37 374.61s-37.89 18.6-59.1 24.6c0 0-10.08-29.46 8.69-37.46 0 0 19.38-13.21 31.25-5.56s19.16 18.42 19.16 18.42z"/><path class="st16" d="m458.87 413.58-13.91 37.17s32.68 11.47 35.46-8.69l-2.43-1.04 2.43-19.68-21.55-7.76z"/><path class="st19" d="M444.96 443.79s16.69 9.39 33.03-2.78c0 0 43.46.35 52.84-4.87l11.82 28.16-47.28 25.03-13.56 91.09s-50.76 11.12-64.66 4.87l-2.43-83.09s-3.48.35-4.87 7.65c0 0-25.38-10.08-29.2-8 0 0 15.64-40.33 36.5-50.06 20.86-9.73 27.81-8 27.81-8z"/><path class="st18" d="M418.89 583.55s-11.12 107.08 1.74 157.49l3.48 36.5h17.38l3.13-122.37s.35-16.34 3.13-4.17c0 0 14.6 115.07 24.34 126.55l17.73-2.43-10.08-198.86-60.85 7.29z"/><path d="M501.63 446.92s18.52 25.61 61.28 6.55c0 0 5.62-4.27-3.4-6.55 0 0 29.72-5.34-3.65 50.78l-27.12 60.81s-67.79 26.6-73.01-7.3l45.9-104.29z" style="fill:#f4faff"/><path class="st14" d="M382.39 501.12c1.37 3.96-1.74 23.32 8.34 35.85 6.84 8.5 15.64 11.82 29.9 10.43 14.25-1.39 43.84-17.73 43.84-17.73s10.04-5.25 15.95-9.39c0 0 3.82.17 4.17-8.61 0 0 8.69-6.69 0-6.69h-8.69s-9.39-8-13.21 3.82c-3.82 11.82-1.04 8.34-1.04 8.34s-23.64 8-42.41 8.69c0 0-9.73 3.66-11.82-17.19l-25.03-7.52z"/></g><g><path class="st16" d="M687.97 653.43s-5.91 9.04 0 14.25 58.41 95.95 58.41 95.95l2.78 29.08s2.78 7.08 8-3.35l1.39-30.94-22.6-45.19s-3.82-23.29-12.17-34.42c-8.34-11.12-12.86-18.77-12.86-18.77l-22.95-6.61z"/><path class="st16" d="M727.95 662.12v102.56l-14.6 30.38s2.24 5 8.59 0l18.87-27.25s1.04-5.56-2.09-6.26l9.04-54.58s10.08-26.07 3.82-38.24-3.48-9.04-3.48-9.04l-20.15 2.43z"/><path class="st15" d="M713.35 792.71s-1.58 3.53 8.59 2.35l19.03-29.65s5.4 2.4 2.62 10.74c-2.78 8.34-6.26 21.4-4.52 27.39h-4.17l3.48-21.65-9.55 17.56s-4.7 8.69-19.3 4.87c0-.01-3.83-7.91 3.82-11.61zM758.55 758.42s5.91-.35 7.3 9.73c0 0 1.74 7.3 3.48 9.39 1.74 2.09 4.52 4.35 4.52 4.35l-4.17 2.61-5.56-9.04s-1.74-3.82-2.78-.7c-1.04 3.13-.35 22.52-.35 22.52s.7 3.9-9.73 4.25l-10.43.35s1.39-8.25 5.91-9.16c0 0 9.39-1.27 10.43-3.35s1.38-30.95 1.38-30.95z"/><path class="st18" d="M713.99 547.7 683.8 655.86s46.93 14.25 71.96 7.3l13.82-71.15c2.08-10.71 1.6-21.79-1.66-32.2-2.28-7.28-5.56-14.17-10.02-15.55-10.13-3.12-43.91 3.44-43.91 3.44z"/><path class="st16" d="M701.19 468.58 670.6 479.6s-5.91 1.49-9.04-5.51c-3.13-7-9.73-36.71-9.73-36.71s5.56-4.36 2.78-10.28c-2.78-5.91-4.87-9.73-4.87-9.73s-1.74-.07-1.39 3.96c.35 4.03-1.39 7.86-3.82 5.77-2.43-2.09-6.61-10.02-5.91-13.53 0 0-4.17-2.55-4.87 2.36-.7 4.91.7 7.34 3.48 12.56 2.78 5.21 7.65 10.43 7.65 10.43l4.17 46.24s4.34 13.77 18.34 12.8c13.99-.97 31.03-3.06 31.03-3.06l2.77-26.32z"/><ellipse transform="rotate(-53.843 726.18 400.348)" class="st16" cx="726.13" cy="400.34" rx="27.38" ry="18.38"/><path class="st16" d="M718.57 422.93s2.09 22.25 0 27.81c-2.09 5.56 19.47 10.67 23.99 3.25l-7.65-40.42-16.34 9.36z"/><path class="st18" d="M718.43 371.83s-10.98 13.21 3.62 16.69 17.35 9.37 17.03 14.95l8.65 8.21-11.99 6.28 8.07 32.44s14.98 29.2 28.99 29.2c2.78 0 32.33-12.62 13.21-25.61 0 0 20.16-2.97 14.25-32.66 0 0-8.23-34.73-42.36-22.13 0 0 6.2-13.12-7.7-27.38 0 .01-23.57-7.64-31.77.01zM710.22 424.02s-13.56 21.4 0 26.73l13.56-3.96v-22.68l-13.56-.09z"/><path class="st8" d="M710.22 450.75s13.62-6.77 13.56-3.96c-.13 5.7 9.76 9.92 20.03 3.61l11.96 9.39s-13.21 10.08-5.21 25.73l2.09 59.45-41.02 4.17s-7.3-28.68-10.78-37.46c0 0-14.47-10.95-7.3-28.25 10.65-25.73 16.67-32.68 16.67-32.68z"/><path class="st16" d="m755.77 459.79 17.38 21.55s12.86 19.29 15.3 30.33c2.43 11.04-15.88 31.9-30.54 39.2 0 0-4.23.96-11.53-3.17 0 0-5.91-1-11.12 1.43 0 0-6.61-9.39 2.43-13.91 9.04-4.52 14.67 1.76 14.67 1.76l5.55 2.06 16.98-23.29-22.6-27.46-3.01-5.79a16.39 16.39 0 0 1 2.85-19.02l3.64-3.69z"/><ellipse transform="rotate(-35.659 743.767 409.51)" class="st16" cx="743.81" cy="409.55" rx="6.29" ry="4.22"/></g></svg>