<svg version="1.1" id="Layer_1" xmlns="http://www.w3.org/2000/svg" x="0" y="0" viewBox="0 0 1000 835.1" style="enable-background:new 0 0 1000 835.1" xml:space="preserve"><style>.st3{fill:#fff}.st5{fill:#1a2c36}.st7{fill:#cfb5f6}.st8{fill:#ff4d53}.st10{fill:#7a45ce}.st11{fill:none;stroke:#fff;stroke-width:2;stroke-miterlimit:10}.st12{opacity:.66}.st13{fill:#fefefe}.st14{fill:#fda7a0}.st15{fill:#222223}.st16{fill:#ffb1ae}.st18{fill:#252526}.st19{fill:#feac02}</style><ellipse cx="492.5" cy="784.2" rx="394" ry="43.8" style="fill:#e3e3f0"/><ellipse cx="561.9" cy="393.5" rx="403.6" ry="382.8" style="opacity:.26;fill:#8152cc"/><ellipse cx="482.9" cy="413.8" rx="403.6" ry="382.8" style="opacity:.13;fill:#8152cc"/><path class="st3" d="M830 760.3H346.6V102.7h.5l467.8-15.5c.1 0 4.2-.6 8.1 3 3.8 3.5 8.1 11.8 6.7 31.2-2.6 35.7.2 632.3.3 638.3v.6zm-482.2-1.2h481.1c-.1-21.6-2.8-602.5-.3-637.8 1.4-18.9-2.7-26.9-6.3-30.2-3.5-3.3-7.2-2.8-7.3-2.7l-467.3 15.5v655.2z"/><path d="M830 760.3H346.6V102.7h.5l467.8-15.5c.1 0 4.2-.6 8.1 3 3.8 3.5 8.1 11.8 6.7 31.2-2.6 35.7.2 632.3.3 638.3v.6zm-15-672" style="fill:#4269a9"/><path class="st3" d="M800.2 740.7H376.1c-6.9 0-12.5-5.6-12.5-12.5V139.6c0-6.8 5.3-12.3 12.1-12.5l419.1-13.5c3.4-.1 6.6 1.1 9.1 3.5s3.8 5.5 3.8 8.9l5 602.1c0 3.4-1.3 6.5-3.6 8.9-2.4 2.4-5.6 3.7-8.9 3.7zM375.7 128.8l.1 1.7c-4.9.2-8.8 4.2-8.8 9.1v588.6c0 5 4.1 9.1 9.1 9.1h424.1c2.4 0 4.7-1 6.5-2.7 1.7-1.7 2.7-4 2.6-6.5l-5-602.2c0-2.5-1-4.8-2.8-6.5-1.8-1.7-4.1-2.6-6.6-2.5l-419.1 13.5-.1-1.6z"/><path class="st3" d="M622.4 151.8h156.4v1.1H622.4zM622.4 162.1h156.4v1.1H622.4zM622.4 176.3h156.4v1.1H622.4zM622.4 186.7h156.4v1.1H622.4zM733.4 725.3l-320.1-6.4V460.6h37.5l-3.4-118.7h-34.1v-41.6h325.6l-3.1 258.6h-5.7l3.1-252.9H419v30.2h33.9l3.7 130.1H419v247l308.7 6.2v-61.3h5.7z"/><path class="st3" d="M591 716.1h-5.7V486.4h148.5v5.7H591zM733.8 440.5H626.1V303.1h5.6v131.7h102.1zM438.7 188l-6.2-7.8 63.8-48.3 63.9 50.8-7.2 5.3-.3-.3-55.8-43.4-58.2 43.7zm58.2-45.2 56.1 43.7 5.3-3.9-62-49.3-62.2 47.1 4.8 6.1 58-43.7z"/><path class="st3" d="M589 198.1h-34.4v-1.2h32.7l-12.8-33.6-41.3-.8.1-1.1 42 .7zM437.3 198.1h-34.6l17.4-38.8 39.2.8v1.1l-38.5-.7-16.3 36.4h32.8z"/><path class="st3" d="M554.4 274.7H438.3v-87.5h1.1v86.4h113.8v-83.1h1.2z"/><path class="st3" d="M541.2 219.8h-27.6v-40.1h27.6v40.1zm-26.5-1.1H540v-37.8h-25.3v37.8zM541.2 258.4h-27.6v-31h27.6v31zm-26.5-1.1H540v-28.8h-25.3v28.8zM572.8 250.4h-19.6v-37.6h19.6v37.6zm-18.4-1.1h17.3v-35.4h-17.3v35.4zM439.4 248.7h-19v-35.9h19v35.9zm-17.8-1.2h16.7v-33.6h-16.7v33.6zM475.5 219.8h-25.9v-41.7h25.9v41.7zm-24.8-1.1h23.6v-39.4h-23.6v39.4zM475.5 258.4h-25.9v-29.6h25.9v29.6zm-24.8-1.1h23.6v-27.4h-23.6v27.4zM505.9 264.3h-24.2v-45.6h24.2v45.6zm-23.1-1.1h22v-43.4h-22v43.4zM505.9 215.6h-24.2v-8.1h24.2v8.1zm-23.1-1.1h22v-5.8h-22v5.8z"/><path class="st3" d="M511.6 269.2h-35.2v-6h35.2v6zm-34.1-1.2h32.9v-3.7h-32.9v3.7z"/><path class="st3" d="M511.4 273.3h-35.2v-6h35.2v6zm-34.1-1.1h32.9v-3.7h-32.9v3.7zM526.8 227.9h1.1v29.9h-1.1zM462 229.3h1.1v28.5H462zM462 178.7h1.1v40.5H462z"/><path class="st3" d="M450.2 195h24.7v1.1h-24.7zM526.8 180.3h1.1v38.9h-1.1z"/><path class="st3" d="M514.2 195h26.4v1.1h-26.4zM560.2 213.3h1.1v36.5h-1.1zM432.8 213.3h1.1v34.8h-1.1zM520.6 146.6h1.1v5.7h-1.1zM530.3 146.6h1.1v13.3h-1.1z"/><path class="st3" d="M534.3 147.1h-16.8v-4.7h16.8v4.7zm-15.6-1.1h14.5v-2.4h-14.5v2.4z"/><path class="st3" d="M531.4 143.6h-10.9v-3.2h10.9v3.2zm-9.7-1.2h8.6v-.9h-8.6v.9z"/><g><path class="st3" d="M448.7 436.9c-40.5-10.5-42.6-41.9-42.6-42.2l-.1-1.2h43v2.3h-40.5c.7 5.7 5.9 29.9 40.8 39l-.6 2.1z"/></g><g><path class="st3" d="m589.3 437.7-2.3-.1.2-96.6h-83v-33.5h2.2v31.2h83.1z"/></g><g><path class="st3" d="M667.9 307.5h2.3v124.6h-2.3z"/></g><g><path class="st3" d="M700.4 710.7h-80V614h80v96.7zm-77.7-2.2h75.4v-92.1h-75.4v92.1z"/></g><g><path class="st3" d="M658.7 706.6h-34.1v-22.1h34.1v22.1zm-31.8-2.3h29.5v-17.5h-29.5v17.5z"/></g><g><path class="st3" d="M694.7 706.6h-34.1v-22.1h34.1v22.1zm-31.8-2.3h29.5v-17.5h-29.5v17.5z"/></g><g><path class="st3" d="M726.5 710.7h-25.7v-22.1h25.7v22.1zm-23.4-2.2h21.1V691h-21.1v17.5z"/></g><g><path class="st3" d="M620.1 709.6h-25.7v-22.1h25.7v22.1zm-23.4-2.3h21.1v-17.5h-21.1v17.5z"/></g><g><path class="st3" d="M588.3 524.4h140.2v2.3H588.3z"/></g><g><path class="st3" d="M592.4 572.5h-1l-4.3-39.3h47.8l-.1 1.2c-.1.4-3.2 38.1-42.4 38.1zm-2.8-37 3.8 34.7c32.7-.6 38.1-28.4 38.9-34.7h-42.7z"/></g><g><path class="st3" d="m677.5 438.8.4-1.5c.1-.4 9.9-35.5 46.2-35.5H726v35.1l-48.5 1.9zm46.2-34.7c-30.1.2-40.9 25.8-43.2 32.3l43.2-1.7v-30.6z"/></g><g><path class="st3" d="M706.9 343.1h-.9c-12.3-.6-14.1-11.8-14.1-11.9v-23.7h2.3v23.4c.2 1 2 9.5 12 9.9 9.9.4 13.4-7.6 13.9-9v-24.3h2.3v24.7l-.1.2c-.1.1-3.9 10.7-15.4 10.7z"/></g><g><path class="st3" d="M564.2 333.5H537v-27.1h27.1v27.1zm-24.9-2.2h22.6v-22.6h-22.6v22.6z"/></g><g><path class="st3" d="M619.6 391.1h-28.3v-33h28.3v33zm-26.1-2.3h23.8v-28.5h-23.8v28.5z"/></g><g><path class="st3" d="M651.1 401.5c-8.2 0-15-6.7-15-15v-62.1c0-8.2 6.7-15 15-15 8.2 0 15 6.7 15 15v62.1c-.1 8.3-6.8 15-15 15zm0-89.7c-7 0-12.7 5.7-12.7 12.7v62.1c0 7 5.7 12.7 12.7 12.7 7 0 12.7-5.7 12.7-12.7v-62.1c-.1-7-5.7-12.7-12.7-12.7z"/></g><g><path class="st3" d="M498.1 730h-28.3v-81.5h28.3V730zm-26.1-2.2h23.8v-77H472v77z"/></g><g><path class="st3" d="M564.2 710.7h-23v-49.5h23v49.5zm-20.7-2.2h18.4v-44.9h-18.4v44.9z"/></g><g><path class="st5" d="M263.6 588.2h-58.1l2.5-475.1 24.9-94.2 30.6 94.4v474.9zm-54.7-3.4h51.2v-471l-26.9-82.9-21.9 82.8-2.4 471.1zM205.3 134.4h-60.9v-22h60.9v22zm-58.7-2.2H203v-17.5h-56.4v17.5zM485 144.7H265.8V106H485v38.7zm-214.7-4.5h210.2v-29.6H270.3v29.6z"/><path class="st5" d="M280.6 366.3h-91.8v-36.2h91.8v36.2zm-89.5-2.3h87.3v-31.6h-87.3V364z"/><path class="st5" d="M274.4 385.8h-78.9V364h78.9v21.8zm-76.7-2.2h74.4v-17.3h-74.4v17.3zM261.3 109.5h-53.2l22.6-20.9-13.4-10.4 13.1-13.1-7.3-3.8 1.1-2 7.9 4.1 8.8-8.7-15.3-9.4 11.3-7.7 1.3 1.9-8.4 5.8 14.8 9.1-10.3 10.2 16.6 8.6-16.6 15.3 27 21zm-47.4-2.3h40.7L232.5 90l-18.6 17.2zm6.8-29.2 11.7 9.1 14.5-13.4-14.3-7.5L220.7 78z"/><path class="st5" d="m208.2 587.9-2-2.7 50.7-38.1-52.2-34.2 50.5-42.6-46.8-35.2 49.8-46.3-52.3-45.7 49.3-42.7-47-32.2 47.1-40.8-46.9-39.3 50.5-45.3-50.1-27.8 1.7-3 54.3 30.1-51.2 45.9 47 39.3-46.8 40.6 46.9 32.2-49.6 43 52.2 45.7-49.6 46 47 35.4-50.3 42.4 52.5 34.3zM451.6 143.2l-.8-.9c-10.3-11.7-27.2-30.4-30.3-32.7-3.2 2.1-21.5 20.2-32.7 31.6l-.8.8-32.7-32.1-37.5 31.4-1.5-1.7 39.1-32.7 32.5 32c20.6-20.9 31.9-31.6 33.5-31.6.6 0 2.4 0 31.2 32.6l30.3-32.3 1.7 1.6-32 34zm-31.5-33.8z"/><path class="st5" d="m146.3 114.3-1.6-1.5 88.2-95.6 173.7 90.1-1 2-172.3-89.2zM211 148.3h50.9v2.3H211zM211 186.7h50.9v2.3H211zM211 225h50.9v2.3H211zM207.7 263.2h50.9v2.3h-50.9zM211.6 296.6h50.9v2.3h-50.9zM207.7 431.6h50.9v2.3h-50.9zM207.7 469.1h50.9v2.3h-50.9zM207.7 509.9h50.9v2.3h-50.9z"/><path class="st5" d="m233.1 160 1.6-51.6s8.3-18.8 38.5-15.6c30.2 3.1 59.4 7.4 60 39.2s2.3 27.5 2.3 27.5l-102.4.5z"/><path class="st3" d="m233.1 159.3 1.5-48.5s7.5-17.6 35.1-14.7 54.3 7 54.7 36.8 2.1 25.8 2.1 25.8l-93.4.6z" style="opacity:.53"/><path class="st5" d="M392.2 227.3h-15.1v-96.6h15.1v96.6zm-12.8-2.3H390v-92h-10.5v92z"/><path class="st5" d="M375.7 226.2s7.5 15.9-2.3 23.1c-9.8 7.2-3.1 32.2 17.7 31.2 20.9-1 22.2-13.1 22.2-13.1s-4.8-10-7.2-4.2c-1.8 4.3-10.2 14.6-19 7.6-6.7-5.3-7.5-15.1-2.1-21.7l6.2-7.6v-15.3h-15.5z"/><circle class="st5" cx="386" cy="138.7" r="8.5"/><circle class="st5" cx="384.7" cy="218.7" r="8.5"/></g><g><path class="st7" d="M125.2 603.5h424v176h-424z"/><path class="st8" d="m140.3 528.8 393.2 8.2 25.8 74.8s3.1 2.8-11 4.3-433.3 0-433.3 0-10.2.7-5.5-10.6 30.8-76.7 30.8-76.7z"/><path class="st3" d="M528.1 539.8H143c-2.9 0-5.3-2.4-5.3-5.3V533c0-2.9 2.4-5.3 5.3-5.3h385.1c2.9 0 5.3 2.4 5.3 5.3v1.5c.1 2.9-2.3 5.3-5.3 5.3z"/><path style="fill:#e3d5f5" d="M334.8 475.2 204.2 581.6V785h258.1V580z"/><path class="st10" d="M301.2 659h53.2v106.4h-53.2zM288.4 735.2h-55.3V627.8c0-13.4 10.9-24.3 24.3-24.3h6.7c13.4 0 24.3 10.9 24.3 24.3v107.4zM428.7 735.2h-55.3V627.8c0-13.4 10.9-24.3 24.3-24.3h6.7c13.4 0 24.3 10.9 24.3 24.3v107.4z"/><path class="st11" d="M296.7 742.7h-73V620.2c0-13.4 10.9-24.3 24.3-24.3h24.4c13.4 0 24.3 10.9 24.3 24.3v122.5zM437.5 742.7h-73V620.2c0-13.4 10.9-24.3 24.3-24.3h24.4c13.4 0 24.3 10.9 24.3 24.3v122.5z"/><path class="st3" d="M301.2 638.2h53.2v14.1h-53.2zM233.1 652.2h55.3v3.4h-55.3z"/><path class="st3" d="M257.9 603.5h3.9v131.7h-3.9zM373.4 652.2h55.3v3.4h-55.3z"/><path class="st3" d="M398.2 603.5h3.9v131.7h-3.9zM145.5 648.1h53.7v81.4h-53.7z"/><path class="st10" d="M148.1 652h48.5v73.5h-48.5z"/><path class="st3" d="M170.4 648.1h3.9v79.5h-3.9zM470.1 647.2h53.7v81.4h-53.7z"/><path class="st10" d="M472.7 651.1h48.5v73.5h-48.5z"/><path class="st3" d="M495 647.2h3.9v79.5H495z"/><path class="st10" d="M288.4 775.3h79.8v14.1h-79.8z"/><path class="st7" d="M288.4 765.4h79.8v14.1h-79.8z"/><path class="st10" d="m199.5 592.5 135.3-104.8 131.4 104.8s17.2-2.3 12.5-14.9L333.2 465 191.6 573s-7 11.7 7.9 19.5z"/><g class="st12"><path class="st13" d="M316 736.2c-4.8 0-8.7-3.9-8.7-8.7v-52.1c0-4.8 3.9-8.7 8.7-8.7 4.8 0 8.7 3.9 8.7 8.7v52.1c0 4.9-3.9 8.7-8.7 8.7zm0-68.3c-4.1 0-7.5 3.4-7.5 7.5v52.1c0 4.1 3.4 7.5 7.5 7.5s7.5-3.4 7.5-7.5v-52.1c0-4.1-3.3-7.5-7.5-7.5z"/></g><g class="st12"><path class="st13" d="M338.8 736.2c-4.8 0-8.7-3.9-8.7-8.7v-52.1c0-4.8 3.9-8.7 8.7-8.7 4.8 0 8.7 3.9 8.7 8.7v52.1c-.1 4.9-4 8.7-8.7 8.7zm0-68.3c-4.1 0-7.5 3.4-7.5 7.5v52.1c0 4.1 3.4 7.5 7.5 7.5s7.5-3.4 7.5-7.5v-52.1c0-4.1-3.4-7.5-7.5-7.5z"/></g><g><path class="st13" d="M321.3 757.6h-10.6c-1.8 0-3.3-1.5-3.3-3.3v-10.6c0-1.8 1.5-3.3 3.3-3.3h10.6c1.8 0 3.3 1.5 3.3 3.3v10.6c.1 1.8-1.4 3.3-3.3 3.3zm-10.6-16.1c-1.2 0-2.2 1-2.2 2.2v10.6c0 1.2 1 2.2 2.2 2.2h10.6c1.2 0 2.2-1 2.2-2.2v-10.6c0-1.2-1-2.2-2.2-2.2h-10.6z"/></g><g><path class="st13" d="M344.8 757.6h-10.6c-1.8 0-3.3-1.5-3.3-3.3v-10.6c0-1.8 1.5-3.3 3.3-3.3h10.6c1.8 0 3.3 1.5 3.3 3.3v10.6c0 1.8-1.5 3.3-3.3 3.3zm-10.6-16.1c-1.2 0-2.2 1-2.2 2.2v10.6c0 1.2 1 2.2 2.2 2.2h10.6c1.2 0 2.2-1 2.2-2.2v-10.6c0-1.2-1-2.2-2.2-2.2h-10.6z"/></g></g><g><path class="st14" d="M597.3 439.3c2.4-.3 37.9-15.3 52.8-32.3 14.9-17 13.2-16.8 13.2-16.8s-7-15.9 4.5-23.6l13.2-13.5s8-7.4 5.2 1.7l-8.3 8s10.8 4.5 3.8 14.6c-7 10.1-10.4 12.8-10.4 12.8s-9.4 35.5-26.4 53.3c-17 17.7-37.2 20.2-37.2 20.2l-10.4-24.4zM496.9 774.8l4.4 15.3h11.8l-2.7-17.7z"/><path class="st15" d="M496.9 783.8s11.5 2.8 15.2 0c0 0 10 15.3 2.7 19.8h-15.3s-5.6-3.5-4.2-9.9c1.5-6.4 1.6-9.9 1.6-9.9z"/><path class="st14" d="m545.1 772.4 4.5 16.3 16-4.2-8.3-14.6z"/><path class="st15" d="M545.1 783.8s-3.8 17 3.8 18.4 49.7 0 49.7 0 1.7-3.8-5.9-7c-7.6-3.1-29-14.1-29-14.1s-8.5 3.8-18.6 2.7z"/><ellipse transform="rotate(-23.03 547.167 398.553)" class="st16" cx="547.2" cy="398.5" rx="18.4" ry="27.4"/><ellipse transform="rotate(-37.824 531.914 405.059)" cx="531.9" cy="405" rx="5" ry="7.5" style="opacity:.66;fill:#ffb1ae"/><path class="st18" d="M536 415.3c.8 0 .4-17.1-4.1-22.6-4.5-5.4 20.8 1.3 26.8-10.5 5.9-11.8-8-14.9-8-14.9s-12.9-6.6-27.1 3.1c-14.3 9.7-16.3 28.1-16.3 28.1s-.3 6.3 9 6.5c0 0 7.4 9.9 19.7 10.3z"/><path class="st19" d="M566.3 373.9s-37.9 18.6-59.1 24.6c0 0-10.1-29.5 8.7-37.5 0 0 19.4-13.2 31.2-5.6 11.9 7.8 19.2 18.5 19.2 18.5z"/><path class="st16" d="m529.8 412.9-13.9 37.2s32.7 11.5 35.5-8.7l-2.4-1 2.4-19.7-21.6-7.8z"/><path class="st19" d="M515.9 443.1s16.7 9.4 33-2.8c0 0 43.5.3 52.8-4.9l11.8 28.2-47.3 25-13.6 91.1s-50.8 11.1-64.7 4.9l-2.4-83.1s-3.5.3-4.9 7.6c0 0-25.4-10.1-29.2-8 0 0 15.6-40.3 36.5-50.1 21.1-9.6 28-7.9 28-7.9z"/><path class="st18" d="M489.8 582.9s-11.1 107.1 1.7 157.5l3.5 36.5h17.4l3.1-122.4s.3-16.3 3.1-4.2c0 0 14.6 115.1 24.3 126.5l17.7-2.4-10.1-198.9-60.7 7.4z"/><path d="M572.6 446.3s18.5 25.6 61.3 6.5c0 0 5.6-4.3-3.4-6.5 0 0 29.7-5.3-3.7 50.8l-27.1 60.8s-67.8 26.6-73-7.3l45.9-104.3z" style="fill:#f4faff"/><path class="st14" d="M453.3 500.5c1.4 4-1.7 23.3 8.3 35.8 6.8 8.5 15.6 11.8 29.9 10.4s43.8-17.7 43.8-17.7 10-5.3 16-9.4c0 0 3.8.2 4.2-8.6 0 0 8.7-6.7 0-6.7h-8.7s-9.4-8-13.2 3.8c-3.8 11.8-1 8.3-1 8.3s-23.6 8-42.4 8.7c0 0-9.7 3.7-11.8-17.2l-25.1-7.4z"/></g><g><path class="st16" d="M758.9 652.8s-5.9 9 0 14.3c5.9 5.2 58.4 96 58.4 96l2.8 29.1s2.8 7.1 8-3.4l1.4-30.9-22.6-45.2s-3.8-23.3-12.2-34.4c-8.3-11.1-12.9-18.8-12.9-18.8l-22.9-6.7z"/><path class="st16" d="M798.9 661.5V764l-14.6 30.4s2.2 5 8.6 0l18.9-27.3s1-5.6-2.1-6.3l9-54.6s10.1-26.1 3.8-38.2-3.5-9-3.5-9l-20.1 2.5z"/><path class="st15" d="M784.3 792s-1.6 3.5 8.6 2.3l19-29.6s5.4 2.4 2.6 10.7-6.3 21.4-4.5 27.4h-4.2l3.5-21.7-9.6 17.6s-4.7 8.7-19.3 4.9c.1 0-3.7-7.9 3.9-11.6zM829.5 757.8s5.9-.3 7.3 9.7c0 0 1.7 7.3 3.5 9.4 1.7 2.1 4.5 4.3 4.5 4.3l-4.2 2.6-5.6-9s-1.7-3.8-2.8-.7c-1 3.1-.3 22.5-.3 22.5s.7 3.9-9.7 4.2l-10.4.3s1.4-8.2 5.9-9.2c0 0 9.4-1.3 10.4-3.4s1.4-30.7 1.4-30.7z"/><path class="st18" d="m784.9 547-30.2 108.2s46.9 14.3 72 7.3l13.8-71.2c2.1-10.7 1.6-21.8-1.7-32.2-2.3-7.3-5.6-14.2-10-15.5-10.1-3.1-43.9 3.4-43.9 3.4z"/><path class="st16" d="m772.1 467.9-30.6 11s-5.9 1.5-9-5.5c-3.1-7-9.7-36.7-9.7-36.7s5.6-4.4 2.8-10.3-4.9-9.7-4.9-9.7-1.7-.1-1.4 4c.3 4-1.4 7.9-3.8 5.8-2.4-2.1-6.6-10-5.9-13.5 0 0-4.2-2.5-4.9 2.4-.7 4.9.7 7.3 3.5 12.6s7.6 10.4 7.6 10.4l4.2 46.2s4.3 13.8 18.3 12.8 31-3.1 31-3.1l2.8-26.4z"/><ellipse transform="rotate(-53.843 797.132 399.679)" class="st16" cx="797.1" cy="399.7" rx="27.4" ry="18.4"/><path class="st16" d="M789.5 422.3s2.1 22.2 0 27.8c-2.1 5.6 19.5 10.7 24 3.3l-7.6-40.4-16.4 9.3z"/><path class="st18" d="M789.4 371.2s-11 13.2 3.6 16.7 17.4 9.4 17 14.9l-.4 9.7-2.9 3.8 6 32.7s16.2 25.6 31.1 29.9c2.7.8 32.3-12.6 13.2-25.6 0 0 20.2-3 14.3-32.7 0 0-8.2-34.7-42.4-22.1 0 0 6.2-13.1-7.7-27.4 0 .1-23.6-7.6-31.8.1zM781.2 423.3s-13.6 21.4 0 26.7l13.6-4v-22.7h-13.6z"/><path class="st8" d="M781.2 450.1s13.6-6.8 13.6-4c-.1 5.7 9.8 9.9 20 3.6l12 9.4s-13.2 10.1-5.2 25.7l2.1 59.4-41 4.2s-7.3-28.7-10.8-37.5c0 0-14.5-11-7.3-28.2 10.5-25.7 16.6-32.6 16.6-32.6z"/><path class="st16" d="m826.7 459.1 17.4 21.6S857 500 859.4 511c2.4 11-15.9 31.9-30.5 39.2 0 0-4.2 1-11.5-3.2 0 0-5.9-1-11.1 1.4 0 0-6.6-9.4 2.4-13.9s14.7 1.8 14.7 1.8l5.5 2.1 17-23.3-22.6-27.5-3-5.8c-3.3-6.3-2.1-14 2.9-19l3.5-3.7z"/><ellipse transform="rotate(-35.659 810.711 408.84)" class="st16" cx="810.8" cy="408.9" rx="6.3" ry="4.2"/></g></svg>