<svg version="1.1" id="Layer_1" xmlns="http://www.w3.org/2000/svg" x="0" y="0" viewBox="0 0 1000 747.47" style="enable-background:new 0 0 1000 747.47" xml:space="preserve"><style>.st0{opacity:.21;fill:#8b22e2}.st1{fill:#262626}.st3{fill:#8b22e2}.st4{fill:#e6e7e8}.st7{fill:#fff}.st8{fill:#bc8d7e}.st9{fill:#2c2d2d}.st16{opacity:.18}.st19{fill:#345689}.st20{opacity:.17}.st21{fill:#96d9c9}.st22{fill:#72b29e}.st24{fill:#182f35}.st25{fill:#385a66}</style><path class="st0" d="M109.14 725.7s-55.1-246.69 22.51-355.17 39.03-255.94 110.29-299.87S514-36.01 656.76 53.41s212.75 98.84 245.22 197.67 35.6 265.04 23.05 335.68-30.85 140.2-30.85 140.2l-785.04-1.26z"/><path class="st0" d="M50.54 735.12s-55.1-246.69 22.51-355.17 39.03-255.94 110.29-299.87S455.4-26.6 598.16 62.82s212.75 98.84 245.22 197.67 35.6 265.04 23.05 335.68-30.85 140.2-30.85 140.2l-785.04-1.25z"/><path class="st1" d="M856.75 612.69H168.11c-9.12 0-16.51-7.39-16.51-16.51v-469c0-9.12 7.39-16.51 16.51-16.51h688.64c9.12 0 16.51 7.39 16.51 16.51v469c0 9.12-7.4 16.51-16.51 16.51z"/><path style="fill:#f1f2f2" d="M209.25 126.36H815.6v470.65H209.25z"/><path class="st3" d="M208.86 125.74H815.6v36.53H208.86z"/><path class="st4" d="M473.54 236.96H261.08a5.16 5.16 0 0 1-5.16-5.16v-20.27a5.16 5.16 0 0 1 5.16-5.16h212.45a5.16 5.16 0 0 1 5.16 5.16v20.27c.01 2.85-2.3 5.16-5.15 5.16zM469.62 478.56H257.16a5.16 5.16 0 0 1-5.16-5.16v-20.27a5.16 5.16 0 0 1 5.16-5.16h212.45a5.16 5.16 0 0 1 5.16 5.16v20.27c.01 2.85-2.3 5.16-5.15 5.16zM724.16 478.56H511.7a5.16 5.16 0 0 1-5.16-5.16v-20.27a5.16 5.16 0 0 1 5.16-5.16h212.45a5.16 5.16 0 0 1 5.16 5.16v20.27c.01 2.85-2.3 5.16-5.15 5.16zM473.54 560.14H253.63a5.16 5.16 0 0 1-5.16-5.16v-20.27a5.16 5.16 0 0 1 5.16-5.16h219.91a5.16 5.16 0 0 1 5.16 5.16v20.27a5.16 5.16 0 0 1-5.16 5.16z"/><path class="st3" d="M605.73 564.12H536c-4.35 0-7.89-3.53-7.89-7.89v-22.67c0-4.35 3.53-7.89 7.89-7.89h69.73c4.35 0 7.89 3.53 7.89 7.89v22.67c0 4.36-3.53 7.89-7.89 7.89z"/><path d="M703.71 565.2h-69.73c-4.35 0-7.89-3.53-7.89-7.89v-22.67c0-4.35 3.53-7.89 7.89-7.89h69.73c4.35 0 7.89 3.53 7.89 7.89v22.67c0 4.36-3.54 7.89-7.89 7.89z" style="fill:none;stroke:#8b22e2;stroke-width:2;stroke-miterlimit:10"/><path class="st4" d="M740.24 315.4H257.16a5.16 5.16 0 0 1-5.16-5.16v-23.41a5.16 5.16 0 0 1 5.16-5.16h483.08a5.16 5.16 0 0 1 5.16 5.16v23.41a5.16 5.16 0 0 1-5.16 5.16zM740.24 404.27H257.16a5.16 5.16 0 0 1-5.16-5.16V375.7a5.16 5.16 0 0 1 5.16-5.16h483.08a5.16 5.16 0 0 1 5.16 5.16v23.41a5.16 5.16 0 0 1-5.16 5.16zM730.04 236.96H517.59a5.16 5.16 0 0 1-5.16-5.16v-20.27a5.16 5.16 0 0 1 5.16-5.16h212.45a5.16 5.16 0 0 1 5.16 5.16v20.27a5.16 5.16 0 0 1-5.16 5.16z"/><path style="fill:#939598" d="M174.77 281.67h5.49v157.67h-5.49z"/><path d="M256.97 186.66h4.97v1h-3.78v3.07h3.49v.99h-3.49v4.17h-1.19v-9.23zM264.57 187.4c.01.41-.29.74-.77.74-.42 0-.73-.33-.73-.74 0-.42.31-.75.75-.75.47 0 .75.33.75.75zm-1.34 8.49v-6.62h1.2v6.62h-1.2zM266.43 191.33c0-.78-.01-1.45-.05-2.07h1.05l.04 1.3h.05c.3-.89 1.03-1.45 1.83-1.45.14 0 .23.01.34.04v1.14c-.12-.03-.25-.04-.41-.04-.85 0-1.45.64-1.62 1.55-.03.16-.05.36-.05.56v3.53h-1.19v-4.56zM270.75 194.65c.36.23.99.48 1.59.48.88 0 1.29-.44 1.29-.99 0-.57-.34-.89-1.23-1.22-1.19-.42-1.75-1.08-1.75-1.88 0-1.07.86-1.94 2.29-1.94.67 0 1.26.19 1.63.41l-.3.88c-.26-.16-.74-.38-1.35-.38-.71 0-1.11.41-1.11.9 0 .55.4.79 1.26 1.12 1.15.44 1.74 1.01 1.74 2 0 1.16-.9 1.98-2.48 1.98-.73 0-1.4-.18-1.86-.45l.28-.91zM277.78 187.36v1.9h1.72v.92h-1.72v3.57c0 .82.23 1.29.9 1.29.31 0 .55-.04.7-.08l.05.9c-.23.1-.6.16-1.07.16-.56 0-1.01-.18-1.3-.51-.34-.36-.47-.94-.47-1.72v-3.61h-1.03v-.92h1.03v-1.59l1.19-.31zM283.8 195.89v-9.23h1.3l2.96 4.67c.68 1.08 1.22 2.05 1.66 3l.03-.01c-.11-1.23-.14-2.35-.14-3.79v-3.86h1.12v9.23h-1.2l-2.93-4.68c-.64-1.03-1.26-2.08-1.72-3.08l-.04.01c.07 1.16.1 2.27.1 3.81v3.94h-1.14zM296.43 195.89l-.1-.83h-.04c-.37.52-1.08.99-2.03.99-1.34 0-2.03-.94-2.03-1.9 0-1.6 1.42-2.48 3.98-2.46v-.14c0-.55-.15-1.53-1.51-1.53-.62 0-1.26.19-1.72.49l-.27-.79c.55-.36 1.34-.59 2.18-.59 2.03 0 2.52 1.38 2.52 2.71v2.48c0 .58.03 1.14.11 1.59h-1.09zm-.18-3.39c-1.31-.03-2.81.21-2.81 1.49 0 .78.52 1.15 1.14 1.15.86 0 1.41-.55 1.6-1.11.04-.12.07-.26.07-.38v-1.15zM299.36 191.05c0-.68-.01-1.25-.05-1.79h1.05l.05 1.07h.04c.37-.63.99-1.22 2.08-1.22.9 0 1.59.55 1.88 1.33h.03c.21-.37.47-.66.74-.86.4-.3.83-.47 1.46-.47.88 0 2.18.57 2.18 2.87v3.9h-1.18v-3.75c0-1.27-.47-2.04-1.44-2.04-.68 0-1.22.51-1.42 1.09-.05.16-.1.38-.1.6v4.09h-1.18v-3.97c0-1.05-.47-1.82-1.38-1.82-.75 0-1.3.6-1.49 1.2-.07.18-.1.38-.1.59v4h-1.18v-4.82zM311.44 192.79c.03 1.63 1.07 2.3 2.27 2.3.86 0 1.38-.15 1.83-.34l.21.86c-.42.19-1.15.41-2.2.41-2.04 0-3.26-1.34-3.26-3.34 0-2 1.18-3.57 3.11-3.57 2.16 0 2.74 1.9 2.74 3.12 0 .25-.03.44-.04.56h-4.66zm3.53-.86c.01-.77-.31-1.96-1.67-1.96-1.22 0-1.75 1.12-1.85 1.96h3.52zM321.13 186.98l-1.3 1.71v.03l2.07-.27v.93l-2.07-.25v.03l1.31 1.64-.86.49-.82-1.92h-.03l-.89 1.93-.78-.49 1.3-1.67v-.03l-2.03.26v-.93l2.01.26v-.03l-1.29-1.67.83-.48.85 1.9h.03l.83-1.92.84.48z"/><g><path class="st7" d="M237.29 139.36h4.97v1h-3.78v3.07h3.49v.99h-3.49v4.17h-1.19v-9.23zM251.84 143.88c0 3.18-1.93 4.86-4.28 4.86-2.44 0-4.15-1.89-4.15-4.68 0-2.93 1.82-4.85 4.28-4.85 2.52 0 4.15 1.93 4.15 4.67zm-7.16.15c0 1.97 1.07 3.74 2.94 3.74 1.89 0 2.96-1.74 2.96-3.83 0-1.83-.96-3.75-2.94-3.75-1.97-.01-2.96 1.81-2.96 3.84zM253.38 139.48c.6-.12 1.46-.19 2.29-.19 1.27 0 2.09.23 2.67.75.47.41.73 1.04.73 1.75 0 1.22-.77 2.03-1.74 2.35v.04c.71.25 1.14.9 1.35 1.86.3 1.29.52 2.18.71 2.53h-1.23c-.15-.26-.36-1.05-.62-2.2-.27-1.27-.77-1.75-1.85-1.79h-1.12v4h-1.19v-9.1zm1.19 4.21h1.22c1.27 0 2.08-.7 2.08-1.75 0-1.19-.86-1.71-2.12-1.72-.58 0-.99.05-1.18.11v3.36zM268.52 144.53c-.07-1.29-.15-2.83-.14-3.98h-.04c-.31 1.08-.7 2.23-1.16 3.5l-1.63 4.48h-.9l-1.49-4.39c-.44-1.3-.81-2.49-1.07-3.59h-.03c-.03 1.15-.1 2.7-.18 4.08l-.25 3.96h-1.14l.64-9.23h1.52l1.57 4.46c.38 1.14.7 2.15.93 3.11h.04c.23-.93.56-1.94.97-3.11l1.64-4.46h1.52l.57 9.23h-1.16l-.21-4.06z"/></g><g><path d="M513.27 182.86h1.19v8.23h3.94v1h-5.13v-9.23zM523.36 192.08l-.1-.83h-.04c-.37.52-1.08.99-2.03.99-1.34 0-2.03-.94-2.03-1.9 0-1.6 1.42-2.48 3.98-2.46v-.14c0-.55-.15-1.53-1.51-1.53-.62 0-1.26.19-1.72.49l-.27-.79c.55-.36 1.34-.59 2.18-.59 2.03 0 2.52 1.38 2.52 2.71v2.48c0 .58.03 1.14.11 1.59h-1.09zm-.18-3.38c-1.31-.03-2.81.21-2.81 1.49 0 .78.52 1.15 1.14 1.15.86 0 1.41-.55 1.6-1.11.04-.12.07-.26.07-.38v-1.15zM526.12 190.85c.36.23.99.48 1.59.48.88 0 1.29-.44 1.29-.99 0-.57-.34-.89-1.23-1.22-1.19-.42-1.75-1.08-1.75-1.88 0-1.07.86-1.94 2.29-1.94.67 0 1.26.19 1.63.41l-.3.88c-.26-.16-.74-.38-1.36-.38-.71 0-1.11.41-1.11.9 0 .55.4.79 1.26 1.12 1.15.44 1.74 1.01 1.74 2 0 1.16-.9 1.98-2.48 1.98-.73 0-1.4-.18-1.86-.45l.29-.91zM533.16 183.56v1.9h1.72v.92h-1.72v3.57c0 .82.23 1.29.9 1.29.31 0 .55-.04.7-.08l.05.9c-.23.1-.6.16-1.07.16-.56 0-1.01-.18-1.3-.51-.34-.36-.47-.94-.47-1.72v-3.61h-1.03v-.92h1.03v-1.59l1.19-.31zM539.17 192.08v-9.23h1.3l2.96 4.67c.68 1.08 1.22 2.05 1.66 3l.03-.01c-.11-1.23-.14-2.35-.14-3.79v-3.86h1.12v9.23h-1.2l-2.93-4.68c-.64-1.03-1.26-2.08-1.72-3.08l-.04.01c.07 1.16.1 2.27.1 3.81v3.94h-1.14zM551.81 192.08l-.1-.83h-.04c-.37.52-1.08.99-2.03.99-1.34 0-2.03-.94-2.03-1.9 0-1.6 1.42-2.48 3.98-2.46v-.14c0-.55-.15-1.53-1.51-1.53-.62 0-1.26.19-1.72.49l-.27-.79c.55-.36 1.34-.59 2.18-.59 2.03 0 2.52 1.38 2.52 2.71v2.48c0 .58.03 1.14.11 1.59h-1.09zm-.18-3.38c-1.31-.03-2.81.21-2.81 1.49 0 .78.52 1.15 1.14 1.15.86 0 1.41-.55 1.6-1.11.04-.12.07-.26.07-.38v-1.15zM554.73 187.25c0-.68-.01-1.25-.05-1.79h1.05l.05 1.07h.04c.37-.63.99-1.22 2.08-1.22.9 0 1.59.55 1.88 1.33h.03c.21-.37.46-.66.74-.86.4-.3.83-.47 1.46-.47.88 0 2.18.57 2.18 2.87v3.9h-1.18v-3.75c0-1.27-.47-2.04-1.44-2.04-.68 0-1.22.51-1.42 1.09-.05.16-.1.38-.1.6v4.09h-1.18v-3.97c0-1.05-.47-1.82-1.38-1.82-.75 0-1.3.6-1.49 1.2-.07.18-.1.38-.1.59v4h-1.18v-4.82zM566.82 188.99c.03 1.63 1.07 2.3 2.27 2.3.86 0 1.38-.15 1.83-.34l.21.86c-.42.19-1.15.41-2.2.41-2.04 0-3.26-1.34-3.26-3.34 0-2 1.18-3.57 3.11-3.57 2.16 0 2.74 1.9 2.74 3.12 0 .25-.03.44-.04.56h-4.66zm3.53-.86c.01-.77-.31-1.96-1.67-1.96-1.22 0-1.75 1.12-1.85 1.96h3.52zM576.5 183.17l-1.3 1.71v.03l2.07-.27v.93l-2.07-.25v.03l1.31 1.64-.86.49-.82-1.92h-.03l-.89 1.93-.78-.49 1.3-1.67v-.03l-2.03.26v-.93l2.01.26v-.03l-1.29-1.67.83-.48.85 1.9h.03l.83-1.92.84.48z"/></g><g><path d="M264.96 267.91h-3.59v3.33h4v1h-5.19v-9.23h4.98v1h-3.79v2.92h3.59v.98zM266.88 267.4c0-.68-.01-1.25-.05-1.79h1.05l.05 1.07h.04c.37-.63.99-1.22 2.08-1.22.9 0 1.59.55 1.88 1.33h.03c.21-.37.47-.66.74-.86.4-.3.83-.47 1.46-.47.88 0 2.18.57 2.18 2.87v3.9h-1.18v-3.75c0-1.27-.47-2.04-1.44-2.04-.68 0-1.22.51-1.42 1.09-.05.16-.1.38-.1.6v4.09h-1.18v-3.97c0-1.05-.47-1.82-1.38-1.82-.75 0-1.3.6-1.49 1.2-.07.18-.1.38-.1.59v4h-1.18v-4.82zM281.96 272.24l-.1-.83h-.04c-.37.52-1.08.99-2.03.99-1.34 0-2.03-.94-2.03-1.9 0-1.6 1.42-2.48 3.98-2.46v-.14c0-.55-.15-1.53-1.51-1.53-.62 0-1.26.19-1.72.49l-.27-.79c.55-.36 1.34-.59 2.18-.59 2.03 0 2.52 1.38 2.52 2.71v2.48c0 .58.03 1.14.11 1.59h-1.09zm-.18-3.39c-1.31-.03-2.81.21-2.81 1.49 0 .78.52 1.15 1.14 1.15.86 0 1.41-.55 1.6-1.11.04-.12.07-.26.07-.38v-1.15zM286.23 263.75c.01.41-.29.74-.77.74-.42 0-.73-.33-.73-.74 0-.42.31-.75.75-.75.46 0 .75.33.75.75zm-1.35 8.49v-6.62h1.2v6.62h-1.2zM288.09 262.52h1.2v9.72h-1.2v-9.72zM294.82 263.33l-1.3 1.71v.03l2.07-.27v.93l-2.07-.25v.03l1.31 1.64-.86.49-.82-1.92h-.03l-.89 1.93-.78-.49 1.3-1.67v-.03l-2.03.26v-.93l2.01.26v-.03l-1.29-1.67.83-.48.85 1.9h.03l.83-1.92.84.48z"/></g><g><path d="M263.41 351.7c-.44.22-1.31.44-2.44.44-2.6 0-4.56-1.64-4.56-4.67 0-2.89 1.96-4.85 4.82-4.85 1.15 0 1.88.25 2.19.41l-.29.97c-.45-.22-1.09-.38-1.86-.38-2.16 0-3.6 1.38-3.6 3.81 0 2.26 1.3 3.71 3.54 3.71.73 0 1.46-.15 1.94-.38l.26.94zM270.71 348.63c0 2.45-1.7 3.52-3.3 3.52-1.79 0-3.18-1.31-3.18-3.41 0-2.22 1.45-3.52 3.29-3.52 1.9.01 3.19 1.39 3.19 3.41zm-5.26.07c0 1.45.83 2.55 2.01 2.55 1.15 0 2.01-1.08 2.01-2.57 0-1.12-.56-2.55-1.98-2.55s-2.04 1.31-2.04 2.57zM272.22 347.17c0-.68-.01-1.25-.05-1.79h1.07l.07 1.09h.03c.33-.63 1.09-1.25 2.19-1.25.92 0 2.34.55 2.34 2.82V352h-1.2v-3.82c0-1.07-.4-1.96-1.53-1.96-.79 0-1.41.56-1.62 1.23-.05.15-.08.36-.08.56V352h-1.2v-4.83zM281.21 343.47v1.9h1.72v.92h-1.72v3.57c0 .82.23 1.29.9 1.29.31 0 .55-.04.7-.08l.05.9c-.23.1-.6.16-1.07.16-.56 0-1.01-.18-1.3-.51-.34-.36-.47-.94-.47-1.72v-3.61h-1.03v-.92h1.03v-1.59l1.19-.31zM287.96 352l-.1-.83h-.04c-.37.52-1.08.99-2.03.99-1.34 0-2.03-.94-2.03-1.9 0-1.6 1.42-2.48 3.98-2.46v-.14c0-.55-.15-1.53-1.51-1.53-.62 0-1.26.19-1.72.49l-.27-.79c.55-.36 1.34-.59 2.18-.59 2.03 0 2.52 1.38 2.52 2.71v2.48c0 .58.03 1.14.11 1.59h-1.09zm-.18-3.38c-1.31-.03-2.81.21-2.81 1.49 0 .78.52 1.15 1.14 1.15.86 0 1.41-.55 1.6-1.11.04-.12.07-.26.07-.38v-1.15zM295.61 351.75c-.31.16-1.01.38-1.9.38-2 0-3.3-1.35-3.3-3.38 0-2.04 1.4-3.52 3.56-3.52.71 0 1.34.18 1.67.34l-.27.93c-.29-.16-.74-.31-1.4-.31-1.52 0-2.34 1.12-2.34 2.5 0 1.53.99 2.48 2.3 2.48.68 0 1.14-.18 1.48-.33l.2.91zM298.65 343.47v1.9h1.72v.92h-1.72v3.57c0 .82.23 1.29.9 1.29.31 0 .55-.04.7-.08l.05.9c-.23.1-.6.16-1.07.16-.56 0-1.01-.18-1.3-.51-.34-.36-.47-.94-.47-1.72v-3.61h-1.03v-.92h1.03v-1.59l1.19-.31zM304.67 352v-9.23h1.3l2.96 4.67c.68 1.08 1.22 2.05 1.66 3l.03-.01c-.11-1.23-.14-2.35-.14-3.79v-3.86h1.12V352h-1.2l-2.93-4.68c-.64-1.03-1.26-2.08-1.72-3.08l-.04.01c.07 1.16.1 2.27.1 3.81V352h-1.14zM319.17 350.19c0 .68.01 1.29.05 1.81h-1.07l-.07-1.08h-.03c-.31.53-1.01 1.23-2.19 1.23-1.04 0-2.29-.57-2.29-2.9v-3.87h1.2v3.67c0 1.26.38 2.11 1.48 2.11.81 0 1.37-.56 1.59-1.09.07-.18.11-.4.11-.62v-4.06h1.2v4.8zM321.17 347.17c0-.68-.01-1.25-.05-1.79h1.05l.05 1.07h.04c.37-.63.99-1.22 2.08-1.22.9 0 1.59.55 1.88 1.33h.03c.21-.37.47-.66.74-.86.4-.3.83-.47 1.46-.47.88 0 2.18.57 2.18 2.87v3.9h-1.18v-3.75c0-1.27-.47-2.04-1.44-2.04-.68 0-1.22.51-1.42 1.09-.05.16-.1.38-.1.6v4.1h-1.18v-3.97c0-1.05-.47-1.82-1.38-1.82-.75 0-1.3.6-1.49 1.2-.07.18-.1.38-.1.59v4h-1.18v-4.83zM332.53 352c.03-.45.05-1.12.05-1.71v-8.01h1.19v4.16h.03c.42-.74 1.19-1.22 2.26-1.22 1.64 0 2.81 1.37 2.79 3.38 0 2.37-1.49 3.54-2.97 3.54-.96 0-1.72-.37-2.22-1.25h-.04l-.05 1.09h-1.04zm1.24-2.65c0 .15.03.3.05.44.23.83.93 1.41 1.81 1.41 1.26 0 2.01-1.03 2.01-2.55 0-1.33-.68-2.46-1.97-2.46-.82 0-1.59.56-1.83 1.48-.03.14-.07.3-.07.49v1.19zM341.04 348.91c.03 1.63 1.07 2.3 2.27 2.3.86 0 1.38-.15 1.83-.34l.21.86c-.42.19-1.15.41-2.2.41-2.04 0-3.26-1.34-3.26-3.34 0-2 1.18-3.57 3.11-3.57 2.16 0 2.74 1.9 2.74 3.12 0 .25-.03.44-.04.56h-4.66zm3.53-.86c.01-.77-.31-1.96-1.67-1.96-1.22 0-1.75 1.12-1.85 1.96h3.52zM347.22 347.44c0-.78-.01-1.45-.05-2.07h1.05l.04 1.3h.05c.3-.89 1.03-1.45 1.83-1.45.14 0 .23.01.34.04v1.14c-.12-.03-.25-.04-.41-.04-.85 0-1.45.64-1.62 1.55-.03.16-.05.36-.05.56V352h-1.19v-4.56zM355.2 343.09l-1.3 1.71v.03l2.07-.27v.93l-2.07-.25v.03l1.31 1.64-.86.49-.82-1.92h-.03l-.89 1.93-.78-.49 1.3-1.67v-.03l-2.03.26v-.93l2.01.26v-.03l-1.29-1.67.83-.48.85 1.9h.03l.83-1.92.84.48z"/></g><g><path d="m258.46 429.59-.96 2.9h-1.23l3.13-9.23h1.44l3.15 9.23h-1.27l-.99-2.9h-3.27zm3.02-.93-.9-2.66c-.21-.6-.34-1.15-.48-1.68h-.03c-.14.55-.29 1.11-.47 1.67l-.9 2.67h2.78zM270.86 422.78v8.01c0 .59.01 1.26.05 1.71h-1.08l-.05-1.15h-.03c-.37.74-1.18 1.3-2.26 1.3-1.6 0-2.83-1.35-2.83-3.37-.01-2.2 1.35-3.56 2.97-3.56 1.01 0 1.7.48 2 1.01h.03v-3.96h1.2zm-1.21 5.79c0-.15-.01-.36-.06-.51-.18-.77-.83-1.4-1.74-1.4-1.25 0-1.98 1.1-1.98 2.56 0 1.34.66 2.45 1.96 2.45.81 0 1.55-.53 1.77-1.44.04-.16.06-.33.06-.52v-1.14zM278.57 422.78v8.01c0 .59.01 1.26.05 1.71h-1.08l-.05-1.15h-.03c-.37.74-1.18 1.3-2.26 1.3-1.6 0-2.83-1.35-2.83-3.37-.01-2.2 1.35-3.56 2.97-3.56 1.01 0 1.7.48 2 1.01h.03v-3.96h1.2zm-1.2 5.79c0-.15-.01-.36-.06-.51-.18-.77-.83-1.4-1.74-1.4-1.25 0-1.98 1.1-1.98 2.56 0 1.34.66 2.45 1.96 2.45.81 0 1.55-.53 1.77-1.44.04-.16.06-.33.06-.52v-1.14zM280.57 427.94c0-.78-.01-1.45-.05-2.07h1.05l.04 1.3h.05c.3-.89 1.03-1.45 1.83-1.45.14 0 .23.01.34.04v1.14c-.12-.03-.25-.04-.41-.04-.85 0-1.45.64-1.62 1.55-.03.17-.05.36-.05.56v3.53h-1.19v-4.56zM285.58 429.4c.03 1.63 1.07 2.3 2.27 2.3.86 0 1.38-.15 1.83-.34l.21.86c-.42.19-1.15.41-2.2.41-2.04 0-3.26-1.34-3.26-3.34 0-2 1.18-3.57 3.11-3.57 2.16 0 2.74 1.9 2.74 3.12 0 .25-.03.44-.04.56h-4.66zm3.53-.86c.01-.77-.31-1.96-1.67-1.96-1.22 0-1.75 1.12-1.85 1.96h3.52zM291.6 431.26c.36.23.99.48 1.59.48.88 0 1.29-.44 1.29-.99 0-.58-.34-.89-1.23-1.22-1.19-.42-1.75-1.08-1.75-1.88 0-1.07.86-1.94 2.29-1.94.67 0 1.26.19 1.63.41l-.3.88c-.26-.16-.74-.38-1.35-.38-.71 0-1.11.41-1.11.9 0 .55.4.79 1.26 1.12 1.15.44 1.74 1.01 1.74 2 0 1.16-.9 1.98-2.48 1.98-.73 0-1.4-.18-1.86-.45l.28-.91zM297.02 431.26c.36.23.99.48 1.59.48.88 0 1.29-.44 1.29-.99 0-.58-.34-.89-1.23-1.22-1.19-.42-1.75-1.08-1.75-1.88 0-1.07.86-1.94 2.29-1.94.67 0 1.26.19 1.63.41l-.3.88c-.26-.16-.74-.38-1.35-.38-.71 0-1.11.41-1.11.9 0 .55.4.79 1.26 1.12 1.15.44 1.74 1.01 1.74 2 0 1.16-.9 1.98-2.48 1.98-.73 0-1.4-.18-1.86-.45l.28-.91zM306.1 423.58l-1.3 1.71v.03l2.07-.27v.93l-2.07-.25v.03l1.31 1.64-.86.49-.82-1.92h-.03l-.89 1.93-.78-.49 1.3-1.67v-.03l-2.03.26v-.93l2.01.26v-.03l-1.29-1.67.83-.48.85 1.9h.03l.83-1.92.84.48z"/></g><g><path d="M507.42 434.46c.53.33 1.31.6 2.13.6 1.22 0 1.93-.64 1.93-1.57 0-.86-.49-1.35-1.74-1.83-1.51-.53-2.44-1.31-2.44-2.61 0-1.44 1.19-2.5 2.98-2.5.94 0 1.63.22 2.04.45l-.33.97c-.3-.16-.92-.44-1.75-.44-1.26 0-1.74.75-1.74 1.38 0 .86.56 1.29 1.83 1.78 1.56.6 2.35 1.36 2.35 2.71 0 1.42-1.05 2.66-3.23 2.66-.89 0-1.86-.26-2.35-.59l.32-1.01zM515.7 427.38v1.9h1.72v.92h-1.72v3.57c0 .82.23 1.29.9 1.29.31 0 .55-.04.7-.08l.05.9c-.23.1-.6.16-1.07.16-.56 0-1.01-.18-1.3-.51-.34-.36-.47-.94-.47-1.72v-3.61h-1.03v-.92h1.03v-1.59l1.19-.31zM522.45 435.91l-.1-.83h-.04c-.37.52-1.08.99-2.03.99-1.34 0-2.03-.94-2.03-1.9 0-1.6 1.42-2.48 3.98-2.46v-.14c0-.55-.15-1.53-1.51-1.53-.62 0-1.26.19-1.72.49l-.27-.79c.55-.36 1.34-.59 2.18-.59 2.03 0 2.52 1.38 2.52 2.71v2.48c0 .58.03 1.14.11 1.59h-1.09zm-.18-3.38c-1.31-.03-2.81.21-2.81 1.49 0 .78.52 1.15 1.14 1.15.86 0 1.41-.55 1.6-1.11.04-.12.07-.26.07-.38v-1.15zM526.77 427.38v1.9h1.72v.92h-1.72v3.57c0 .82.23 1.29.9 1.29.31 0 .55-.04.7-.08l.05.9c-.23.1-.6.16-1.07.16-.56 0-1.01-.18-1.3-.51-.34-.36-.47-.94-.47-1.72v-3.61h-1.03v-.92h1.03v-1.59l1.19-.31zM530.44 432.81c.03 1.63 1.07 2.3 2.27 2.3.86 0 1.38-.15 1.83-.34l.21.86c-.42.19-1.15.41-2.2.41-2.04 0-3.26-1.34-3.26-3.34 0-2 1.18-3.57 3.11-3.57 2.16 0 2.74 1.9 2.74 3.12 0 .25-.03.44-.04.56h-4.66zm3.53-.86c.01-.77-.31-1.96-1.67-1.96-1.22 0-1.75 1.12-1.85 1.96h3.52zM540.13 427l-1.3 1.71v.03l2.07-.27v.93l-2.07-.25v.03l1.31 1.64-.86.49-.82-1.92h-.03l-.89 1.93-.78-.49 1.3-1.67v-.03l-2.03.26v-.93l2.01.26v-.03l-1.29-1.67.83-.48.85 1.9h.03l.83-1.92.84.48z"/></g><g><path class="st7" d="M555.94 549.58c.53.33 1.31.6 2.13.6 1.22 0 1.93-.64 1.93-1.57 0-.86-.49-1.35-1.74-1.83-1.51-.53-2.44-1.31-2.44-2.61 0-1.44 1.19-2.5 2.98-2.5.94 0 1.63.22 2.04.45l-.33.97c-.3-.16-.92-.44-1.75-.44-1.26 0-1.74.75-1.74 1.38 0 .86.56 1.29 1.83 1.78 1.56.6 2.35 1.36 2.35 2.71 0 1.42-1.05 2.66-3.23 2.66-.89 0-1.86-.26-2.35-.59l.32-1.01zM566.52 551.03l-.1-.83h-.04c-.37.52-1.08.99-2.03.99-1.34 0-2.03-.94-2.03-1.9 0-1.6 1.42-2.48 3.98-2.46v-.14c0-.55-.15-1.53-1.51-1.53-.62 0-1.26.19-1.72.49l-.27-.79c.55-.36 1.34-.59 2.18-.59 2.03 0 2.52 1.38 2.52 2.71v2.48c0 .58.03 1.14.11 1.59h-1.09zm-.18-3.38c-1.31-.03-2.81.21-2.81 1.49 0 .78.52 1.15 1.14 1.15.86 0 1.41-.55 1.6-1.11.04-.12.07-.26.07-.38v-1.15zM569.8 544.41l1.3 3.72c.22.6.4 1.15.53 1.7h.04c.15-.55.34-1.1.56-1.7l1.29-3.72h1.26l-2.6 6.62h-1.15l-2.52-6.62h1.29zM576.45 547.94c.03 1.63 1.07 2.3 2.27 2.3.86 0 1.38-.15 1.83-.34l.21.86c-.42.19-1.15.41-2.2.41-2.04 0-3.26-1.34-3.26-3.34 0-2 1.18-3.57 3.11-3.57 2.16 0 2.74 1.9 2.74 3.12 0 .25-.03.44-.04.56h-4.66zm3.53-.86c.01-.77-.31-1.96-1.67-1.96-1.22 0-1.75 1.12-1.85 1.96h3.52z"/></g><g><path d="M650.74 550.73c-.44.22-1.31.44-2.44.44-2.6 0-4.56-1.64-4.56-4.67 0-2.89 1.96-4.85 4.82-4.85 1.15 0 1.88.25 2.19.41l-.29.97c-.45-.22-1.09-.38-1.86-.38-2.16 0-3.6 1.38-3.6 3.81 0 2.26 1.3 3.71 3.54 3.71.73 0 1.46-.15 1.94-.38l.26.94zM658.03 547.66c0 2.45-1.7 3.52-3.3 3.52-1.79 0-3.17-1.31-3.17-3.41 0-2.22 1.45-3.52 3.28-3.52 1.9.01 3.19 1.39 3.19 3.41zm-5.26.07c0 1.45.83 2.55 2.01 2.55 1.15 0 2.01-1.08 2.01-2.57 0-1.12-.56-2.55-1.99-2.55-1.41 0-2.03 1.31-2.03 2.57zM659.55 546.2c0-.68-.01-1.25-.05-1.79h1.07l.07 1.1h.03c.33-.63 1.1-1.25 2.19-1.25.92 0 2.34.55 2.34 2.82v3.96h-1.21v-3.82c0-1.07-.4-1.96-1.53-1.96-.79 0-1.41.56-1.61 1.23-.05.15-.08.36-.08.56v3.98h-1.21v-4.83zM668.54 542.5v1.9h1.72v.92h-1.72v3.57c0 .82.23 1.29.9 1.29.31 0 .55-.04.7-.08l.05.9c-.23.1-.6.16-1.07.16-.56 0-1.01-.18-1.3-.51-.34-.36-.47-.94-.47-1.72v-3.61h-1.03v-.92h1.03v-1.59l1.19-.31zM672.96 542.54c.01.41-.29.74-.77.74-.42 0-.73-.33-.73-.74 0-.42.31-.75.75-.75.46 0 .75.33.75.75zm-1.34 8.49v-6.62h1.21v6.62h-1.21zM674.82 546.2c0-.68-.01-1.25-.05-1.79h1.07l.07 1.1h.03c.33-.63 1.1-1.25 2.19-1.25.92 0 2.34.55 2.34 2.82v3.96h-1.21v-3.82c0-1.07-.4-1.96-1.53-1.96-.79 0-1.41.56-1.61 1.23-.05.15-.08.36-.08.56v3.98h-1.21v-4.83zM687.96 549.22c0 .68.01 1.29.06 1.81h-1.07l-.07-1.08h-.03c-.31.53-1.01 1.23-2.19 1.23-1.04 0-2.29-.57-2.29-2.9v-3.87h1.2v3.67c0 1.26.38 2.11 1.48 2.11.81 0 1.37-.56 1.59-1.09.07-.18.11-.4.11-.62v-4.07h1.2v4.81zM690.62 547.94c.03 1.63 1.07 2.3 2.27 2.3.86 0 1.38-.15 1.83-.34l.21.86c-.42.19-1.15.41-2.2.41-2.04 0-3.26-1.34-3.26-3.34 0-2 1.18-3.57 3.11-3.57 2.16 0 2.74 1.9 2.74 3.12 0 .25-.03.44-.04.56h-4.66zm3.54-.86c.01-.77-.31-1.96-1.67-1.96-1.22 0-1.75 1.12-1.85 1.96h3.52z"/></g><g><path d="M257.87 511.69c0-.85-.03-1.53-.05-2.16h1.08l.05 1.14h.03c.49-.81 1.27-1.29 2.35-1.29 1.6 0 2.81 1.36 2.81 3.37 0 2.38-1.45 3.56-3.01 3.56-.88 0-1.64-.38-2.04-1.04h-.03v3.6h-1.19v-7.18zm1.19 1.76c0 .18.03.34.05.49.22.83.94 1.41 1.81 1.41 1.27 0 2.01-1.04 2.01-2.56 0-1.33-.7-2.46-1.97-2.46-.82 0-1.59.59-1.82 1.49-.04.15-.08.33-.08.49v1.14zM269.32 516.15l-.1-.83h-.04c-.37.52-1.08.99-2.03.99-1.34 0-2.03-.94-2.03-1.9 0-1.6 1.42-2.48 3.98-2.46v-.14c0-.55-.15-1.53-1.51-1.53-.62 0-1.26.19-1.72.49l-.27-.79c.55-.36 1.34-.59 2.18-.59 2.03 0 2.52 1.38 2.52 2.71v2.48c0 .58.03 1.14.11 1.59h-1.09zm-.18-3.38c-1.31-.03-2.81.21-2.81 1.49 0 .78.52 1.15 1.14 1.15.86 0 1.41-.55 1.6-1.11.04-.12.07-.26.07-.38v-1.15zM272.08 514.92c.36.23.99.48 1.59.48.88 0 1.29-.44 1.29-.99 0-.58-.34-.89-1.23-1.22-1.19-.42-1.75-1.08-1.75-1.88 0-1.07.86-1.94 2.29-1.94.67 0 1.26.19 1.63.41l-.3.88c-.26-.16-.74-.38-1.35-.38-.71 0-1.11.41-1.11.9 0 .55.4.79 1.26 1.12 1.15.44 1.74 1.01 1.74 2 0 1.16-.9 1.98-2.48 1.98-.73 0-1.4-.18-1.86-.45l.28-.91zM277.5 514.92c.36.23.99.48 1.59.48.88 0 1.29-.44 1.29-.99 0-.58-.34-.89-1.23-1.22-1.19-.42-1.75-1.08-1.75-1.88 0-1.07.86-1.94 2.29-1.94.67 0 1.26.19 1.63.41l-.3.88c-.26-.16-.74-.38-1.35-.38-.71 0-1.11.41-1.11.9 0 .55.4.79 1.26 1.12 1.15.44 1.74 1.01 1.74 2 0 1.16-.9 1.98-2.48 1.98-.73 0-1.4-.18-1.86-.45l.28-.91zM283.56 509.52l.88 3.37c.19.74.37 1.42.49 2.11h.04c.15-.67.37-1.38.59-2.09l1.08-3.38h1.01l1.03 3.31c.25.79.44 1.49.59 2.16h.04c.11-.67.29-1.37.51-2.15l.94-3.33h1.19l-2.14 6.62h-1.1l-1.01-3.16c-.23-.74-.42-1.4-.59-2.18h-.03c-.16.79-.37 1.48-.6 2.19l-1.07 3.15h-1.1l-2-6.62h1.25zM299.01 512.78c0 2.45-1.7 3.52-3.3 3.52-1.79 0-3.18-1.31-3.18-3.41 0-2.22 1.45-3.52 3.29-3.52 1.91 0 3.19 1.38 3.19 3.41zm-5.25.07c0 1.45.83 2.55 2.01 2.55 1.15 0 2.01-1.08 2.01-2.57 0-1.12-.56-2.55-1.98-2.55-1.43 0-2.04 1.31-2.04 2.57zM300.53 511.59c0-.78-.01-1.45-.05-2.07h1.05l.04 1.3h.05c.3-.89 1.03-1.45 1.83-1.45.14 0 .23.01.34.04v1.14c-.12-.03-.25-.04-.41-.04-.85 0-1.45.64-1.62 1.55-.03.17-.05.36-.05.56v3.53h-1.19v-4.56zM310.59 506.43v8.01c0 .59.01 1.26.05 1.71h-1.08l-.05-1.15h-.03c-.37.74-1.18 1.3-2.26 1.3-1.6 0-2.83-1.35-2.83-3.37-.01-2.2 1.35-3.56 2.97-3.56 1.01 0 1.7.48 2 1.01h.03v-3.96h1.2zm-1.2 5.79c0-.15-.01-.36-.06-.51-.18-.77-.83-1.4-1.74-1.4-1.25 0-1.98 1.1-1.98 2.56 0 1.34.66 2.45 1.96 2.45.81 0 1.55-.53 1.77-1.44.04-.16.06-.33.06-.52v-1.14zM316.09 507.24l-1.3 1.71v.03l2.07-.27v.93l-2.07-.25v.03l1.31 1.64-.86.49-.82-1.92h-.03l-.89 1.93-.78-.49 1.3-1.67v-.03l-2.03.26v-.93l2.01.26v-.03l-1.29-1.67.83-.48.85 1.9h.03l.83-1.92.84.48z"/></g><g><path class="st8" d="M817.99 685.04v25.68h22.47v-28.89z"/><path class="st9" d="M842.58 725.57H786.1c-.7-10.81 29.5-16.04 29.5-16.04v-2.05h25.74l1.24 18.09z"/><path class="st8" d="M885.92 279.45c-3.37 7.45-2.2 3.01-6.39 13.47-4.18 10.46-14.99 5.23-25.45 1.74-8.9-2.96-14.26-12.74-12.87-16.88.24-.73.69-1.29 1.37-1.6 4.53-2.09 5.58-16.38 5.58-16.38l33.75-25.74-.2 24.62-.09 10.88s7.67 2.44 4.3 9.89z"/><path d="m881.91 234.06-.2 24.62-40.5 19.1c.24-.73.69-1.29 1.37-1.6 4.53-2.09 5.58-16.38 5.58-16.38l33.75-25.74z" style="opacity:.17;fill:#282828"/><ellipse transform="rotate(-79.653 857.638 229.627)" class="st8" cx="857.6" cy="229.62" rx="33.73" ry="24.71"/><path class="st8" d="M871.32 684.75v25.68h22.47v-28.89z"/><path class="st9" d="M895.91 725.27h-56.48c-.7-10.81 29.5-16.04 29.5-16.04v-2.05h25.74l1.24 18.09z"/><path d="M797.26 367.17s-25.8 82.62-13.6 149.91c12.2 67.29 26.84 179.19 26.84 179.19h31.38v-102.5l-8.37-96.22 1.74-13.95 10.11 81.59 18.48 129.33h31.73l2.79-81.84s-1.05-52.38 0-64.58c1.05-12.2-5.72-135.22-20.49-170.01-3.22-7.55-80.61-10.92-80.61-10.92z" style="fill:#355389"/><path d="M837 251.6s-16.04 1.23-15.69-23.88c0 0-20.57-16.39-2.79-33.47l4.18 2.44s-6.69-28.94 27.86-16.39c0 0 10.49-15.34 25.48 4.88 0 0 6.28-7.32 13.95 11.16 0 0 20.92 6.28 7.32 27.54 0 0 11.16 8.37-1.05 16.04 0 0 1.24 9.38-8.02 6.62l-7.53 11.49s1.72-27.18 1.81-28.72c.09-1.55-7.08.64-5.78-10.66 0 0-7.87-9.28-5.68-19.11 0 0-17.39-6.69-20.5 3.07 0 0 2.47 4.53-6.94 6.28-9.41 1.74-10.33 16.28-10.33 16.28S830.52 244 837 251.6z" style="fill:#05090a"/><path d="M847.55 264.68s-3.48 22.22 15.69 20.96c.21-.01.43-.03.65-.05 0 0 11.46 3.83 17.74-16.04l20.57 9.76s23.01 10.81 12.55 39.74c0 0-15.69 44.97-25.1 54.39-9.41 9.41-20.22 21.96-33.47 5.23l-58.92-8.14-13.6-30.21 24.4-43.23c0 .01 1.54-38.79 39.49-32.41z" style="fill:#fa0"/><path class="st8" d="M840.1 335.8s-13.21-11.85-11.81-20.39c.76-4.64 1.31-7.58 1.66-9.3.27-1.32-.02-2.69-.78-3.8l-3.02-5.89s-1.88-6.17 2.83-2.79c3.58 2.56 5.19 6.02 5.84 8.18.3.99 1.44 1.47 2.32.93 2.51-1.52 6.34-4.64 3.85-8.5-3.55-5.49-6.86-15.43-.89-12.55 5.97 2.88 14.71 16.47 10.47 24.32-4.24 7.84-6.33 11.77-6.33 11.77l6.33 8.63-10.47 9.39z"/><path d="M756.9 297.1h50.39c.41 0 .82-.04 1.21-.15 1.39-.39 5.68-.9 7.1 6.95 1.7 9.41 6.67 31.9 6.67 31.9s1.05 4.97-4.97 4.18c-5.26-.69-41.1.83-50.02 1.22-1.73.08-3.38-.79-4.25-2.29-.33-.56-.64-1.25-.89-2.07-.97-3.17-6.49-30.41-7.24-34.1-.05-.25-.12-.48-.21-.72-.43-1.12-1.58-4.92 2.21-4.92z" style="fill:#4d5051"/><circle cx="787.25" cy="316.92" r="3.25" style="fill:#888989"/><path class="st8" d="M748.8 305.99s3.43 19.14 7.06 19.09c3.63-.05 11.24-1.05 11.24-1.05s2.35-1.22 0-3.49c-2.35-2.27 2.61-3.38-.78-6.88s.78-5.59-2.09-7.68c-2.88-2.08-16.5-5.16-15.43.01z"/><ellipse transform="rotate(-66.165 885.888 234.812)" class="st8" cx="885.92" cy="234.79" rx="8.12" ry="5.95"/><g class="st16"><path class="st1" d="M840.1 335.8c1.97 3.41 3.85 6.86 5.71 10.32 1.86 3.46 3.64 6.97 5.47 10.45 1.75 3.52 3.55 7.02 5.26 10.55l2.56 5.31c.82 1.79 1.67 3.56 2.46 5.36-1-1.7-1.93-3.43-2.9-5.14l-2.81-5.19c-1.86-3.46-3.64-6.96-5.47-10.45-1.75-3.52-3.55-7.01-5.26-10.55-1.72-3.53-3.42-7.07-5.02-10.66z"/></g><g class="st16"><path class="st1" d="M882.67 308.48c-1.34 7.3-2.82 14.58-4.3 21.85-1.55 7.26-3.02 14.53-4.65 21.77l-.21.92-.62-.7c-3.76-4.29-7.55-8.55-11.25-12.89a928.93 928.93 0 0 1-11.09-13.04c3.91 4.15 7.77 8.35 11.61 12.58 3.86 4.2 7.63 8.48 11.44 12.72l-.82.22c1.51-7.27 3.18-14.5 4.76-21.75 1.68-7.24 3.33-14.48 5.13-21.68z"/></g><path d="M797.26 367.17s-19.87 28.24-20.92 97.96c-1.05 69.73-2.79 47.41-2.79 47.41l15.34 3.4 8.37-60.92s13.25 29.11 8.37 60.92l9.98 2.53s28.02-15.69 11.98-56.83-10.46-57.39-10.46-57.39-.35-15.48 6.62 7.18 10.11 41.84 22.31 53.34 1.74 2.44 1.74 2.44 9.06 5.58 15.34 19.87c6.28 14.29 38.35 31.38 38.35 31.38s35.21-10.46 43.23-32.42l-51.95-81.61-8.02-10.43-9.06-20.92-48.11 13.78s-8.37-7.84-18.83 0l-11.49-19.69z" style="fill:#466eb6"/><g class="st16"><path class="st1" d="M802.66 341.29c1.87 1.66 3.69 3.37 5.48 5.11 1.81 1.72 3.58 3.48 5.33 5.26l-.78.1c1.5-2.71 3.06-5.4 4.64-8.06 1.61-2.65 3.21-5.31 4.94-7.9-1.33 2.81-2.77 5.56-4.21 8.31-1.47 2.73-2.96 5.45-4.51 8.14l-.33.57-.45-.47c-1.74-1.79-3.45-3.6-5.13-5.45-1.7-1.84-3.37-3.7-4.98-5.61z"/></g><path class="st1" d="M904.89 512.81c1.64-.77 3.27-1.53 4.89-2.33 1.63-.77 3.25-1.56 4.86-2.38 3.21-1.63 6.41-3.29 9.52-5.09 1.56-.89 3.1-1.82 4.6-2.8 1.51-.96 2.97-2 4.39-3.1 1.41-1.1 2.76-2.28 3.91-3.64 1.16-1.34 2.13-2.9 2.35-4.72.02 1.84-.9 3.56-1.97 5.02-1.11 1.46-2.43 2.74-3.8 3.93-2.77 2.38-5.85 4.34-8.98 6.17-3.15 1.8-6.38 3.44-9.69 4.92-3.3 1.49-6.65 2.87-10.08 4.02z" style="opacity:.42"/><path class="st19" d="M811.28 391.75c.79-1.46 1.82-2.82 3.13-3.91.65-.55 1.39-1.02 2.23-1.34.83-.31 1.78-.43 2.7-.24.91.2 1.72.7 2.36 1.3.65.61 1.13 1.33 1.56 2.07.82 1.49 1.31 3.11 1.63 4.74-.69-1.51-1.41-2.99-2.3-4.33-.89-1.3-2.03-2.51-3.46-2.8-1.42-.33-2.95.33-4.24 1.23-1.31.91-2.51 2.04-3.61 3.28zM812.46 399.6c.11 5.06.5 10.1 1.08 15.12.56 5.02 1.3 10.02 2.24 14.98.99 4.95 2.07 9.88 3.41 14.74.32 1.22.71 2.42 1.06 3.63.36 1.21.71 2.42 1.13 3.61l2.43 7.19a91.09 91.09 0 0 1 3.34 14.87c.68 5.04.96 10.14.64 15.22-.3 5.07-1.13 10.13-2.74 14.96-.82 2.41-1.87 4.74-3.22 6.9-1.35 2.14-3.08 4.13-5.32 5.34 2.18-1.31 3.81-3.33 5.09-5.48 1.27-2.17 2.24-4.51 2.98-6.91 1.5-4.8 2.24-9.83 2.44-14.85.42-10.06-1.09-20.17-4.16-29.74l-2.39-7.2c-.42-1.2-.76-2.42-1.12-3.64-.35-1.22-.73-2.43-1.05-3.66-1.31-4.9-2.42-9.85-3.29-14.85-1.67-9.99-2.7-20.11-2.55-30.23zM794.03 383.38c-.47.48-.9 1-1.27 1.55l-.58.82-.51.87c-.72 1.13-1.28 2.35-1.88 3.54-1.11 2.43-2.1 4.93-2.9 7.48l-.65 1.9c-.19.64-.36 1.29-.54 1.93l-1.07 3.87c-.62 2.6-1.16 5.23-1.75 7.84-2.04 10.52-3.14 21.2-3.96 31.88l-.48 8.03-.24 4.01c-.06 1.34-.08 2.68-.12 4.02l-.22 8.04-.1 4.02-.01 4.02-.02 8.05c-.01 2.68-.03 5.37.06 8.05l.29 16.1-.78-16.09c-.15-2.68-.17-5.37-.21-8.05l-.12-8.06c-.09-10.74.28-21.49.94-32.22.91-10.71 2-21.42 4.21-31.97.63-2.62 1.22-5.24 1.89-7.85l1.14-3.87c.19-.64.37-1.29.58-1.93l.69-1.9a65.42 65.42 0 0 1 3.13-7.44c.63-1.19 1.23-2.4 1.99-3.51l.54-.85.61-.8c.4-.51.85-1.02 1.34-1.48zM796.91 451.89c-.62 4.92-1.36 9.81-2.11 14.71-.75 4.89-1.58 9.77-2.37 14.66-.87 4.87-1.69 9.76-2.6 14.62l-1.38 7.3c-.5 2.43-.96 4.86-1.48 7.28.3-2.46.67-4.91 1-7.36l1.1-7.34c.75-4.89 1.58-9.77 2.37-14.66.87-4.87 1.69-9.76 2.6-14.62.91-4.88 1.84-9.74 2.87-14.59zM799.26 455.03c2.14 4.3 3.98 8.74 5.66 13.24 1.67 4.51 3.12 9.1 4.34 13.76.59 2.34 1.1 4.69 1.51 7.06.41 2.37.78 4.76.91 7.18.15 2.41.16 4.83-.08 7.24-.28 2.39-.81 4.79-1.88 6.95.86-2.25 1.28-4.62 1.39-6.99.14-2.38.04-4.76-.19-7.13-.47-4.74-1.41-9.44-2.62-14.06-1.13-4.64-2.58-9.21-4.09-13.75-.76-2.27-1.56-4.53-2.39-6.78-.81-2.26-1.68-4.49-2.56-6.72zM824.89 405.09c1.03 8.11 2.51 16.16 4.48 24.08.98 3.96 2.15 7.87 3.54 11.7 1.43 3.8 3.01 7.58 5.22 10.96 1.1 1.68 2.33 3.3 3.8 4.63.76.63 1.54 1.24 2.37 1.88.82.63 1.64 1.25 2.4 1.96 3.11 2.71 5.94 5.71 8.53 8.9 5.18 6.38 9.72 13.23 13.7 20.41l-.1-.12 15.59 13.29 15.51 13.38-15.86-12.96-15.79-13.05-.06-.05-.04-.08c-3.98-7.1-8.55-13.9-13.71-20.19-2.6-3.13-5.36-6.13-8.41-8.8-.74-.7-1.54-1.31-2.34-1.93-.79-.61-1.61-1.26-2.42-1.94-1.55-1.42-2.81-3.1-3.93-4.83-1.13-1.74-2.07-3.58-2.93-5.45-.88-1.87-1.6-3.79-2.29-5.72-1.34-3.88-2.45-7.83-3.38-11.82-.94-3.99-1.71-8.01-2.35-12.05-.63-4.07-1.18-8.13-1.53-12.2zM879.27 460.62c2.81 2.86 5.54 5.8 8.26 8.74 2.72 2.94 5.37 5.95 8.06 8.92 2.63 3.02 5.29 6.02 7.89 9.07l3.88 4.59c1.27 1.55 2.56 3.09 3.8 4.66-1.41-1.42-2.78-2.89-4.17-4.34l-4.09-4.41c-2.72-2.95-5.37-5.95-8.06-8.92-2.63-3.03-5.29-6.02-7.89-9.07-2.59-3.04-5.18-6.11-7.68-9.24zM879.27 395.93c5.09 7.12 10.1 14.3 15.09 21.49l14.87 21.64 14.68 21.77 7.27 10.93 7.18 10.99-7.59-10.71-7.5-10.77-14.87-21.64-14.68-21.77c-4.85-7.29-9.7-14.57-14.45-21.93zM812.46 395.93c1.68-.22 3.3-.25 4.94-.27.82 0 1.63.01 2.45.05.82.04 1.64.08 2.48.22-1.61.54-3.28.71-4.94.73-.83-.01-1.66-.05-2.49-.16-.81-.11-1.64-.27-2.44-.57zM843.19 394.37c2.72-1.11 5.48-2.12 8.25-3.11 2.76-1 5.55-1.93 8.33-2.86 2.79-.9 5.59-1.81 8.4-2.64l4.23-1.24c1.42-.38 2.83-.79 4.26-1.14-1.36.57-2.74 1.07-4.11 1.61l-4.14 1.51c-2.76 1-5.55 1.93-8.33 2.85-2.79.9-5.59 1.81-8.4 2.63-2.82.84-5.64 1.67-8.49 2.39zM794.03 376.88c1.4 1.48 2.54 3.15 3.71 4.8 1.16 1.65 2.26 3.35 3.35 5.04 2.15 3.42 4.21 6.88 6.01 10.51-2.47-3.21-4.69-6.58-6.86-9.98-1.07-1.71-2.13-3.42-3.16-5.16l-1.53-2.61c-.48-.87-.96-1.76-1.52-2.6z"/><g class="st20"><path d="M840.1 284.65c.89.58 1.67 1.28 2.37 2.07.7.77 1.31 1.68 1.77 2.62.98 1.83 1.87 3.71 2.64 5.65l-3.2-5.33c-.52-.88-1.13-1.67-1.75-2.49-.63-.82-1.25-1.64-1.83-2.52z"/></g><g class="st20"><path d="M838.29 284.65c.88.66 1.59 1.5 2.22 2.38.63.89 1.16 1.84 1.6 2.83a90.97 90.97 0 0 1 2.48 5.95c-1.11-1.85-2.12-3.74-3.1-5.64-1.02-1.87-2.04-3.7-3.2-5.52z"/></g><g class="st20"><path d="M886.78 230.84c.67.72 1.19 1.58 1.52 2.52.33.94.45 2.02.15 3.04-.31 1-1.02 1.9-1.91 2.38-.42.3-.91.42-1.36.63-.49.11-.96.22-1.44.3.43-.24.88-.42 1.3-.64.39-.27.83-.46 1.17-.77.75-.53 1.27-1.29 1.53-2.12.26-.83.21-1.76.01-2.66-.23-.9-.55-1.8-.97-2.68z"/></g><g class="st20"><path d="M752.95 307.35c1.74.06 3.44.33 5.12.66 1.68.35 3.35.76 4.97 1.4-1.74-.05-3.44-.33-5.12-.66-1.68-.36-3.35-.77-4.97-1.4z"/></g><g class="st20"><path d="M752.95 313.67c1.92 0 3.8.22 5.68.5 1.87.3 3.73.66 5.56 1.24-1.92 0-3.8-.22-5.68-.5-1.87-.31-3.73-.66-5.56-1.24z"/></g><g class="st20"><path d="M755.24 320.17c1.49-.29 2.98-.36 4.47-.37 1.49.01 2.98.08 4.47.37-1.49.3-2.98.36-4.47.37-1.49-.01-2.98-.08-4.47-.37z"/></g></g><g><path class="st21" d="M168.12 547.68s-15.1 56.82 66.89 60.95c0 0-3.6-81.09-66.89-60.95z"/><path class="st7" d="M168.85 548.91c5.59 4.74 11.1 9.57 16.59 14.42 5.5 4.84 10.93 9.77 16.39 14.65l16.21 14.84 8.04 7.49c2.65 2.53 5.33 5.03 7.96 7.58-2.8-2.36-5.56-4.78-8.34-7.16l-8.26-7.25-16.39-14.65c-5.4-4.95-10.84-9.86-16.21-14.84-5.36-5-10.72-9.99-15.99-15.08z"/><path class="st7" d="M178.31 581.63c-1.82-4.2-3.09-8.62-3.92-13.13-.38-2.26-.65-4.56-.61-6.87.02-1.16.13-2.32.39-3.46.28-1.12.69-2.27 1.47-3.12-.57 1-.83 2.1-.92 3.21-.12 1.11-.1 2.23-.05 3.35.14 2.24.45 4.47.85 6.69.38 2.23.85 4.44 1.32 6.66l1.47 6.67zM211.4 561.88c-1.26-.32-2.51-.66-3.77-.94-1.25-.32-2.51-.61-3.77-.88-2.52-.52-5.04-1.03-7.58-1.35-2.54-.35-5.09-.52-7.63-.43-1.27.05-2.54.2-3.77.5-1.25.26-2.45.72-3.57 1.38.97-.87 2.18-1.47 3.41-1.92 1.25-.42 2.55-.68 3.86-.84 2.62-.3 5.26-.15 7.85.18 2.59.35 5.15.9 7.65 1.63 2.49.74 4.96 1.58 7.32 2.67zM199.8 595.15c-1.94-1.78-3.66-3.8-5.25-5.91-1.6-2.11-2.98-4.38-4.16-6.76-1.14-2.4-2.08-4.93-2.45-7.6-.41-2.64-.19-5.44.94-7.84-.33 1.28-.52 2.57-.49 3.86-.02 1.29.13 2.57.42 3.82.55 2.51 1.48 4.93 2.61 7.26 1.12 2.33 2.45 4.57 3.86 6.76.7 1.1 1.44 2.18 2.2 3.24.73 1.08 1.53 2.12 2.32 3.17zM201.02 578.01c2.12-.69 4.37-1.01 6.61-1.03 2.25-.03 4.51.28 6.69.86 1.1.27 2.15.71 3.21 1.1 1 .52 2.06.95 2.98 1.61 1.95 1.15 3.56 2.77 5.01 4.44-1.77-1.36-3.51-2.68-5.46-3.67-.94-.55-1.96-.94-2.94-1.39-1.03-.35-2.03-.76-3.09-1-2.09-.58-4.24-.92-6.42-1.07-2.18-.12-4.38-.11-6.59.15zM214.44 590.14c.19 1.29.4 2.55.65 3.79.26 1.24.54 2.46.94 3.64.39 1.18.89 2.31 1.49 3.4.64 1.07 1.41 2.04 2.33 2.98-1.19-.54-2.24-1.42-3.07-2.48-.8-1.07-1.39-2.29-1.83-3.54-.4-1.27-.65-2.57-.74-3.88-.09-1.31-.05-2.63.23-3.91z"/><path class="st22" d="M170.95 520.57c-2.48 10.99-4.67 22.03-6.65 33.09-1.94 11.07-3.65 22.17-4.71 33.33-.33 2.79-.48 5.58-.68 8.37-.25 2.79-.24 5.59-.34 8.38l-.07 2.1.04 2.09.09 4.19c-.02 1.4.19 2.78.3 4.17l.37 4.16c.71 5.6 1.31 11.22 1.55 16.87.06 2.83.13 5.66-.13 8.49-.12 1.41-.32 2.82-.67 4.21l-.36 1.01c-.11.34-.32.64-.48.96-.23.28-.43.59-.75.76-.3.19-.7.28-1.02.11.34.13.71.01.98-.19.29-.19.46-.5.65-.78.13-.32.3-.62.39-.96l.26-1.01c.25-1.37.37-2.76.4-4.16.09-2.79-.15-5.6-.38-8.39-.5-5.58-1.34-11.14-2.19-16.69-1.71-11.28-1.24-22.69-.22-33.94 1.11-11.25 2.93-22.41 5.24-33.45 2.27-11.02 5.05-21.96 8.38-32.72z"/><path class="st22" d="m168.85 563.97-1.28 21.02c-.41 7-.82 13.99-1.07 20.98-.28 6.99-.42 13.98-.28 20.97.09 3.49.25 6.98.61 10.44.32 3.47.89 6.92 2.02 10.26-1.61-3.14-2.42-6.64-3.12-10.1-.63-3.48-1.04-7-1.28-10.52-.26-3.52-.34-7.05-.4-10.57-.01-3.52.06-7.05.18-10.56.3-7.03.81-14.05 1.58-21.04.73-7 1.73-13.97 3.04-20.88zM149.51 481.35c.46 13.68.77 27.37.94 41.05.2 13.68.27 27.37.31 41.05 0 13.68-.03 27.37-.2 41.05-.13 13.68-.41 27.37-.84 41.05-.46-13.68-.78-27.37-.94-41.05-.2-13.68-.26-27.37-.3-41.05.01-13.68.04-27.37.2-41.05.13-13.69.4-27.37.83-41.05zM140.47 567.04c.79 5.91 1.35 11.83 1.84 17.75.5 5.92.87 11.85 1.21 17.78.3 5.93.57 11.87.7 17.81.15 5.94.22 11.89.07 17.85-.79-5.91-1.36-11.83-1.84-17.75-.5-5.92-.87-11.85-1.2-17.78-.3-5.93-.56-11.87-.7-17.81-.17-5.95-.24-11.9-.08-17.85zM120.43 490.46c3.72 12.54 6.82 25.27 9.53 38.07 2.7 12.81 5.03 25.7 6.77 38.69.49 3.24.82 6.5 1.2 9.75.36 3.26.8 6.5 1.02 9.77l.79 9.8.43 9.82c.36 13.09-.03 26.27-2.2 39.18.21-3.27.45-6.53.71-9.78.17-1.62.13-3.26.16-4.89l.06-4.89c0-1.63.11-3.26.04-4.89l-.16-4.89c-.13-3.26-.11-6.52-.4-9.77l-.64-9.76-.94-9.74c-.27-3.25-.7-6.48-1.08-9.72-.39-3.24-.75-6.48-1.25-9.7l-1.36-9.69-1.54-9.67c-1.05-6.44-2.17-12.87-3.36-19.29-.57-3.22-1.2-6.42-1.82-9.62-.6-3.21-1.25-6.41-1.91-9.61-1.24-6.4-2.64-12.78-4.05-19.17z"/><g><path class="st21" d="M149.71 498.11s-4.88-13.6-19.17-4.53c-14.29 9.06-24.06 57.87 3.83 82.97 0 0 24.75-10.11 27.89-38.7 3.14-28.59 5.23-38.35-12.55-39.74z"/><path class="st7" d="M135.77 572.71c-.27-6.41.09-12.83.45-19.23.4-6.4 1.04-12.79 1.84-19.16.43-3.18.93-6.36 1.51-9.52.58-3.16 1.2-6.32 2.03-9.43.82-3.11 1.74-6.2 2.95-9.19 1.26-2.94 2.74-5.93 5.16-8.08-2.23 2.33-3.56 5.3-4.64 8.28-1.09 2.99-1.91 6.08-2.62 9.2-1.42 6.22-2.46 12.54-3.26 18.89-.89 6.33-1.51 12.71-2.1 19.08-.3 3.19-.55 6.38-.78 9.57-.23 3.19-.49 6.39-.54 9.59z"/><path class="st7" d="M120.43 522.16c3.74-2.79 7.66-5.29 11.63-7.72 3.98-2.4 8.01-4.72 12.22-6.74-3.74 2.8-7.66 5.29-11.63 7.72-3.98 2.39-8.01 4.72-12.22 6.74zM163.93 522.16c-3.39-2.58-6.54-5.42-9.63-8.32-3.07-2.92-6.08-5.91-8.85-9.15 3.39 2.58 6.54 5.42 9.63 8.32 3.07 2.93 6.08 5.92 8.85 9.15zM122.17 551.8c2.36-2.37 4.93-4.47 7.55-6.51 2.64-2.01 5.34-3.94 8.24-5.6-2.36 2.38-4.93 4.48-7.55 6.51-2.64 2-5.33 3.93-8.24 5.6zM140.47 529.13c2.74 3.11 5.19 6.42 7.58 9.78 2.36 3.38 4.65 6.81 6.65 10.44-2.74-3.11-5.2-6.42-7.58-9.78-2.36-3.38-4.65-6.81-6.65-10.44z"/></g><g><path class="st21" d="M119.93 483.31s-25.1-18.83-62.75 23.53c0 0-9.94 24.06 0 31.38 0 0 35.56-6.28 52.29-22.49 0 0 23.53-23.53 10.46-32.42z"/><path class="st7" d="M57.18 538.22c2.93-6.52 6.78-12.62 11.03-18.38 4.29-5.75 9.14-11.07 14.43-15.93 5.35-4.78 11.15-9.09 17.42-12.58a83.461 83.461 0 0 1 19.87-8.03c-3.37 1.18-6.75 2.35-9.96 3.88-1.64.69-3.21 1.53-4.81 2.3-1.56.86-3.14 1.66-4.65 2.6-6.12 3.62-11.85 7.87-17.1 12.66-5.3 4.74-10.1 10.02-14.5 15.61-2.2 2.79-4.28 5.69-6.24 8.67a101.93 101.93 0 0 0-5.49 9.2z"/><path class="st7" d="M103.4 517.3c-.13-2.28-.19-4.55-.29-6.83l-.16-6.83c-.06-2.28-.05-4.55-.08-6.83l-.04-6.83.53.56c-4.24-.33-8.49-.6-12.73-.98-4.24-.37-8.48-.76-12.71-1.27 4.26.06 8.51.23 12.76.42 4.25.18 8.5.48 12.75.71l.53.03v.53l-.04 6.83c-.03 2.28-.01 4.55-.08 6.83l-.16 6.83c-.09 2.28-.15 4.55-.28 6.83zM57.67 512.36c3.49-1.16 7-2.23 10.52-3.26 3.51-1.06 7.04-2.05 10.58-3.02l.76-.21-.06.79c-.31 4.48-.69 8.96-1.1 13.44-.45 4.47-.88 8.95-1.48 13.41.08-4.5.31-8.99.54-13.48.26-4.49.56-8.97.92-13.45l.7.58c-3.54.94-7.09 1.87-10.66 2.72-3.56.87-7.13 1.72-10.72 2.48z"/></g><g><path class="st22" d="m116.56 459.82-9.41 16-17.93-28.59z"/><path class="st21" d="m149.51 485.24-61.18-35.56s4.71-23.01 47.06-12.55c0 0 35.03 20.39 14.12 48.11z"/><path class="st7" d="M148.98 480.53c.18-2.97-.16-5.95-.88-8.81-.67-2.88-1.76-5.64-3.16-8.23-2.79-5.18-6.83-9.63-11.56-13.13-4.69-3.56-10.02-6.25-15.52-8.41-1.39-.5-2.77-1.04-4.18-1.51-1.42-.43-2.82-.91-4.25-1.31-1.43-.39-2.86-.82-4.3-1.18l-4.34-1.04 4.41.74c1.46.28 2.92.62 4.38.93 1.45.34 2.88.78 4.33 1.16 1.43.42 2.85.92 4.27 1.37 5.63 2.02 11.05 4.75 15.9 8.32 4.78 3.64 8.95 8.22 11.65 13.63 2.67 5.4 4.03 11.54 3.25 17.47z"/><path class="st7" d="M122.25 465.89c3.23-1.16 6.53-1.99 9.85-2.74 3.33-.71 6.67-1.34 10.09-1.62-3.23 1.17-6.53 1.99-9.85 2.74-3.33.7-6.68 1.33-10.09 1.62zM132.22 436.92c.45 1.72.55 3.44.57 5.16-.02 1.72-.12 3.44-.57 5.16-.45-1.72-.55-3.44-.57-5.16.02-1.72.12-3.44.57-5.16zM95.12 447.23c3.96-1.3 7.98-2.26 12.03-3.14 4.05-.84 8.12-1.6 12.26-2.02-3.95 1.3-7.98 2.26-12.03 3.14-4.05.84-8.12 1.6-12.26 2.02z"/></g><path d="M165.2 525.94s4.18-55.43 53.34-32.42l26.15 13.42s-21.96 15.35-45.5 12.73c0 0-8.89-1.57-18.83 6.28-9.94 7.84-15.16-.01-15.16-.01z" style="fill:#82c4b2"/><g><path class="st7" d="M167.95 523.76c1.84-7.4 5.44-14.49 10.8-20.07 1.33-1.4 2.83-2.65 4.4-3.79 1.6-1.09 3.28-2.09 5.06-2.87 3.54-1.62 7.44-2.38 11.31-2.53 3.88-.12 7.76.5 11.47 1.41 3.72.88 7.45 1.78 11.1 2.92 3.67 1.08 7.3 2.35 10.82 3.86 1.77.75 3.47 1.66 5.11 2.64l1.19.81c.39.28.75.6 1.13.9.34.35.7.67.98 1.06.29.38.56.81.61 1.28-.08-.47-.37-.88-.67-1.23-.3-.37-.67-.67-1.02-.99-.38-.28-.76-.57-1.15-.84l-1.21-.75c-1.67-.9-3.39-1.72-5.17-2.38-3.54-1.39-7.17-2.56-10.85-3.54-3.67-1-7.37-1.92-11.09-2.75-3.7-.87-7.44-1.43-11.21-1.28-3.74.11-7.5.81-10.93 2.34-1.73.73-3.35 1.68-4.92 2.72-1.52 1.1-3 2.27-4.34 3.6-2.7 2.63-4.97 5.72-6.86 9.01a50.175 50.175 0 0 0-4.56 10.47z"/><path class="st7" d="M178.93 509.4c3.53 1.48 6.9 3.26 10.22 5.12 3.3 1.88 6.57 3.84 9.66 6.11-3.53-1.48-6.9-3.26-10.22-5.12-3.31-1.89-6.57-3.85-9.66-6.11zM192.96 489.1c-1.09 2.05-2.45 3.88-3.87 5.66-1.45 1.75-2.96 3.46-4.75 4.94 1.09-2.05 2.44-3.88 3.87-5.66 1.45-1.76 2.97-3.46 4.75-4.94zM201.96 495.07c2.32 1.48 4.56 3.05 6.8 4.64 2.24 1.58 4.43 3.23 6.61 4.88 2.17 1.67 4.34 3.35 6.45 5.09l3.17 2.62c1.03.91 2.09 1.78 3.1 2.72-1.17-.73-2.29-1.52-3.44-2.27l-3.36-2.37c-2.24-1.58-4.43-3.23-6.61-4.88-2.17-1.67-4.34-3.35-6.45-5.09-2.13-1.74-4.24-3.49-6.27-5.34zM208.18 494.4c1.86-.34 3.69-.33 5.52-.23 1.83.13 3.65.34 5.45.9-1.86.34-3.69.33-5.52.23-1.83-.13-3.65-.34-5.45-.9z"/></g><g><path class="st24" d="M186.1 725.27h-60.15l-16.68-103.54h92.03z"/><path class="st25" d="M94.81 620.35h118.13v16.82H94.81z"/><path class="st24" d="M94.81 618.07h118.13v16.82H94.81z"/><path class="st25" d="M191.43 725.7h-70.66l-11.63-19.59h92.16z"/></g></g><path class="st24" d="M52.76 725.27h915.67v11.1H52.76z"/></svg>