<?xml version="1.0" encoding="utf-8"?>
<!-- Generator: Adobe Illustrator 24.3.0, SVG Export Plug-In . SVG Version: 6.00 Build 0)  -->
<svg version="1.1" id="Layer_1" xmlns="http://www.w3.org/2000/svg" xmlns:xlink="http://www.w3.org/1999/xlink" x="0px" y="0px"
	 viewBox="0 0 1000 734" style="enable-background:new 0 0 1000 734;" xml:space="preserve">
<style type="text/css">
	.st0{fill:#E1D5F9;}
	.st1{fill:#CFB4F9;}
	.st2{fill:#E6E7E8;}
	.st3{fill:#BCBEC0;}
	.st4{opacity:0.17;}
	.st5{fill:#634A57;}
	.st6{fill:#231F20;}
	.st7{fill:#1C1B1A;}
	.st8{fill:#16120D;}
	.st9{fill:#24201B;}
	.st10{fill:#E5DDD4;}
	.st11{fill:#050505;}
	.st12{fill:#4570AD;}
	.st13{fill:#110D17;}
	.st14{fill:#192730;}
	.st15{fill:#E8A103;}
	.st16{fill:#1E2C35;}
	.st17{fill:#1B2C32;}
	.st18{opacity:0.61;}
	.st19{fill:#F1F2F2;}
	.st20{fill:#494138;}
	.st21{fill:#E4E0DD;}
	.st22{fill:#31537C;}
	.st23{fill:#FF4D53;}
	.st24{fill:#D63641;}
	.st25{fill:#FBB700;}
</style>
<g>
	<path class="st0" d="M0.9,462.1c0,0-15.9-341.3,338.6-353S595-21,777,16.2s223,232.2,223,232.2v222.1L0.9,462.1z"/>
	<path class="st1" d="M0.9,463.1c0,0-15.9-302.4,338.6-312.7C694,140,595,35,777,68s223,205.7,223,205.7v196.8L0.9,463.1z"/>
	<path class="st2" d="M257.7,734h566.2c97.3,0,176.1-84.8,176.1-189.4v-72.9L1,457l0,0C0.5,609.8,115.6,734,257.7,734z"/>
	<path class="st3" d="M257.7,714.4h566.2c97.3,0,176.1-78.8,176.1-176.1v-67.8L1,457l0,0C0.5,599,115.6,714.4,257.7,714.4z"/>
	<g class="st4">
		<g>
			<rect x="587" y="159" class="st5" width="6" height="160"/>
			<rect x="590" y="165" class="st5" width="21" height="4"/>
			<rect x="572" y="165" class="st5" width="15" height="4"/>
			<path class="st5" d="M611,165h16.5l0.5,10c0,0-1,5.3-8.5,5.6S607,176,607,176v-5L611,165z"/>
			<path class="st5" d="M577.5,165v-6h-9.3v-4.1c0,0-13.6-3.1-16.4,0C549,158,550,165,550,165s-3.3,4.7-0.2,7.8
				c3.2,3.2,9.3,6.1,16.2,4.1c6.9-2,5.9-8,5.9-8h5.5V165z"/>
		</g>
		<path class="st6" d="M119.2,268c0,0-15.9-40,17-36c0,0,8.4-19.7,22.6-12.8s21.1,12.8,21.1,12.8h16.1l15.3,16.9
			c0,0-11.8-16.9,1-22.9c12.8-6,18.4,6.8,27.1-15.1s17-29.9,22.9-14.9c5.9,15,13.1,18.3,10.5,32.2c0,0,29.4,7.6,28.4,21.2
			c-1,13.6-17,27.8-17,27.8l-88,12.1l-75.5,3.8L119.2,268z"/>
		<polygon class="st6" points="501.6,290 484,277.4 500.4,274.7 493.5,250.8 512.9,266.8 505.3,217.9 525.3,263.1 525.3,188.3 
			536,252.9 547.8,224.7 556.4,263.1 561.1,242.2 574.8,257.6 568.2,277.4 586.5,270.3 586.5,290 583.7,317.5 536,318.7 492.4,322 
					"/>
		<path class="st6" d="M642.2,264.8c0,0-4.2-16.9,18.3-20.3s1-18.1,16.7-25.3s1.5-21.2,18.6-23.2s5.1-25,14.6-27s10.5,3.6,16,19.3
			s14.5,7.2,16.5,18.5c2,11.2,10,5.8,12.5,16.5s20,13.6,18.8,21.2c-1.3,7.6,25.9,12.1,23.8,20.3c-2.1,8.2,35.3,33.3,0.1,34.3
			c-35.2,1-31.2-4.5-67.7,0.2s-52.3,5.4-59.4,5.1s-30.5-14.2-30.5-14.2L642.2,264.8z"/>
		<path class="st6" d="M345.3,290c0,0-4.4-17.6,19.1-21.2c23.5-3.6,1-18.9,17.5-26.4s1.5-22.1,19.4-24.2s5.4-26.1,15.3-28.2
			c9.9-2.1,11,3.8,16.7,20.2s15.1,7.5,17.2,19.3c2.1,11.7,10.4,6,13.1,17.2c2.6,11.2,20.9,14.2,19.6,22.1
			c-1.3,7.9,27.1,12.6,24.9,21.2s36.9,34.8,0.1,35.8s-32.6-4.7-70.7,0.2s-54.6,5.6-62,5.3c-7.4-0.3-31.8-14.8-31.8-14.8L345.3,290z"
			/>
		<g>
			<rect x="102.3" y="244.4" class="st5" width="4.5" height="119.8"/>
			<rect x="104.6" y="248.9" class="st5" width="15.7" height="3"/>
			<rect x="91.1" y="248.9" class="st5" width="11.2" height="3"/>
			<path class="st5" d="M120.3,248.9h12.4l0.4,7.5c0,0-0.7,3.9-6.4,4.2c-5.6,0.3-9.4-3.5-9.4-3.5v-3.7L120.3,248.9z"/>
			<path class="st5" d="M95.2,248.9v-4.5h-7v-3c0,0-10.1-2.3-12.3,0c-2.1,2.3-1.4,7.5-1.4,7.5s-2.5,3.5-0.1,5.9
				c2.4,2.4,7,4.6,12.2,3.1c5.2-1.5,4.4-6,4.4-6h4.1V248.9z"/>
		</g>
		<rect x="835" y="196" class="st5" width="4" height="72"/>
	</g>
	<g>
		<path class="st7" d="M11.4,479.5c19.4,4,44.6,7.6,77.5,3.6c0,0,36.3,18.5,61,11.5c0,0,19-4.6,25.1-20.8l120.2-10.6l61.4,8.1
			c0,0,22.8,4,28.1-2.4s7.5-16,7.5-16H405l2.1-13.8l15.3-1.7v-6.1l-6.2-44.4L9.8,402.8l-8.9,54.1C-2,465.8,2.2,477.6,11.4,479.5z"/>
		<g>
			<path class="st8" d="M172.1,464.9c0,15.8-14.7,25.4-28.3,25.4s-24.6-12.8-24.6-28.7c0-15.8,11-28.7,24.6-28.7
				S172.1,439.1,172.1,464.9z"/>
			<ellipse class="st9" cx="147.9" cy="464.8" rx="21.4" ry="25.5"/>
			<ellipse class="st10" cx="149.9" cy="464.9" rx="13.7" ry="18.2"/>
		</g>
		<path class="st11" d="M8.5,446.8v14.9c0,0,39.3,11.7,88.7,3.2l21.9-3.2l7.5-29L8.5,431.3V446.8z"/>
		<g>
			<path class="st8" d="M390.1,448.9c0,12.4-9.3,20-17.9,20s-15.6-10.1-15.6-22.5s7-22.5,15.6-22.5S390.1,428.6,390.1,448.9z"/>
			<ellipse class="st9" cx="374.8" cy="448.8" rx="13.6" ry="20.1"/>
			<ellipse class="st10" cx="376.1" cy="448.9" rx="8.7" ry="14.3"/>
		</g>
		<path class="st12" d="M9.8,402.8h102.1v30h14.8c0,0,31.2-24.5,43,0l4.9,23.3l58.5-4.4v-5.5l8.9,0.7l120.3-9.7l4-21.8l25.8-1.6
			l4.2,16.3h57.8V275l-191.9-14.8c0,0-13.4-5.7-22.9,0l-108.8,6.5c0,0-10.5,9.7-10.5,25.8l0.8,35.5H95l-43.2,49.1l-42,14.1
			C9.8,391.3,6.9,395.9,9.8,402.8z"/>
		<path class="st11" d="M8.5,431.3l1.3-28.5h102.1v30C111.9,432.8,34.3,440,8.5,431.3z"/>
		<path class="st7" d="M126.7,432.8l-5.1,14.8l-32.3,4c0,0-53.4,4.9-80.8-4.8v-15.6C8.5,431.3,89,439.7,126.7,432.8z"/>
		<polygon class="st13" points="158.8,379.7 183.8,335.3 212.6,335.3 220,379.7 		"/>
		<polygon class="st13" points="95.6,335.3 177.8,335.3 152.6,379.7 60.2,376.5 		"/>
		<path class="st3" d="M120.4,287.2l115.9-6l3-21l-108.8,6.5C130.5,266.7,120.8,277.9,120.4,287.2z"/>
		<path class="st3" d="M241.9,446.8l-5.7-165.5l3-21c0,0,16.4-5.7,22.9,0v184.9L241.9,446.8z"/>
		<polygon class="st14" points="447.1,362 262.1,365.3 262.1,373.5 447.1,370.5 		"/>
		<polygon class="st14" points="328,414.9 262.5,417.9 262.5,425.4 328,422.6 		"/>
		<polygon class="st14" points="449.9,403.6 395,407.1 395,415.7 449.9,412.5 		"/>
		<polygon class="st14" points="362.2,411.5 341,413.7 340.4,422.3 361.6,420.4 		"/>
		<polygon class="st14" points="278.3,305.5 272.6,316.8 447.1,321.6 447.1,310.5 		"/>
		<polygon class="st15" points="272.6,321.6 278.9,335.3 447.1,335.3 447.1,325.2 		"/>
		<path class="st16" d="M72.7,362h83.5c0,0-3,17.1-12.3,17.5c-9.3,0.3-83.6-3-83.6-3L72.7,362z"/>
		<polygon class="st17" points="166.1,373.5 197.8,370.7 205,335.3 212.6,335.3 220,379.7 158.8,379.7 163.6,371.2 		"/>
		<polygon class="st3" points="259.3,266.3 447.1,281.3 447.1,274.4 259.3,260.2 		"/>
		<g class="st18">
			<path class="st19" d="M249.2,442.3c-1.8,0-3.2-1.4-3.2-3.2V260.2c0-1.8,1.4-3.2,3.2-3.2s3.2,1.4,3.2,3.2v178.9
				C252.4,440.9,251,442.3,249.2,442.3z"/>
		</g>
		<polygon class="st20" points="384.1,302.2 384.1,340.9 435,341 435,302.2 		"/>
		<polygon class="st21" points="388.8,305.9 388.8,337.3 430.5,337.4 430.5,305.9 		"/>
		<g>
			<path class="st20" d="M224.5,401.5c-1.3,0-2.4-1.1-2.4-2.4v-12.2c0-1.3,1.1-2.4,2.4-2.4s2.4,1.1,2.4,2.4v12.2
				C226.9,400.4,225.8,401.5,224.5,401.5z"/>
		</g>
		<path class="st13" d="M177.4,380l9,10c0.3,0.4,0.8,0.6,1.3,0.6h6.4c1,0,1.8-0.8,1.8-1.8v-7c0-1-0.8-1.8-1.8-1.8H177.4z"/>
		<path class="st22" d="M120.8,327.6l95.9,0.4c0,0,17.6,78.2,16.4,118.2l8.9,0.7l-5.7-159.5l-115.9,5.8L120.8,327.6z"/>
	</g>
	<g>
		<path class="st7" d="M238,505.5c18.2,3.8,42,7.1,73,3.4c0,0,34.2,17.4,57.4,10.8c0,0,17.9-4.3,23.7-19.6l113.2-10l57.8,7.6
			c0,0,21.4,3.8,26.5-2.2c5.1-6,7-15.1,7-15.1h12l2-13l14.4-1.6v-5.8l-5.9-41.8l-382.6,15l-8.4,50.9
			C225.4,492.5,229.4,503.7,238,505.5z"/>
		<g>
			<path class="st8" d="M389.3,491.8c0,14.9-13.8,23.9-26.6,23.9c-12.8,0-23.2-12.1-23.2-27c0-14.9,10.4-27,23.2-27
				C375.5,461.7,389.3,467.4,389.3,491.8z"/>
			<ellipse class="st9" cx="366.5" cy="491.7" rx="20.1" ry="24"/>
			<ellipse class="st10" cx="368.4" cy="491.8" rx="12.9" ry="17.1"/>
		</g>
		<path class="st11" d="M235.3,474.7v14c0,0,37,11,83.5,3l20.7-3l7.1-27.3l-111.3-1.4V474.7z"/>
		<g>
			<path class="st8" d="M594.6,476.7c0,11.7-8.7,18.8-16.9,18.8S563,486,563,474.3c0-11.7,6.6-21.2,14.7-21.2
				S594.6,457.6,594.6,476.7z"/>
			<ellipse class="st9" cx="580.1" cy="476.6" rx="12.8" ry="18.9"/>
			<ellipse class="st10" cx="581.3" cy="476.7" rx="8.2" ry="13.5"/>
		</g>
		<path class="st23" d="M236.5,433.2h96.1v28.2h13.9c0,0,29.4-23.1,40.4,0l4.6,21.9l55.1-4.2V474l8.4,0.7l113.3-9.1l3.8-20.5
			l24.3-1.5l3.9,15.4h54.4V312.9L474.1,299c0,0-12.6-5.3-21.5,0l-102.4,6.1c0,0-9.9,9.1-9.9,24.3l0.8,33.5h-24.3L276,409.2
			l-39.5,13.2C236.5,422.4,233.8,426.8,236.5,433.2z"/>
		<path class="st11" d="M235.3,460.1l1.2-26.8h96.1v28.2C332.6,461.5,259.6,468.3,235.3,460.1z"/>
		<path class="st7" d="M346.6,461.5l-4.8,14l-30.4,3.8c0,0-50.3,4.7-76.1-4.5v-14.6C235.3,460.1,311,468,346.6,461.5z"/>
		<polygon class="st13" points="376.8,411.6 400.3,369.7 427.5,369.7 434.4,411.6 		"/>
		<polygon class="st13" points="317.3,369.7 394.7,369.7 371,411.6 284,408.5 		"/>
		<path class="st3" d="M340.6,324.4l109.1-5.6l2.8-19.8l-102.4,6.1C350.2,305.1,341,315.6,340.6,324.4z"/>
		<path class="st3" d="M455.1,474.7l-5.3-155.9l2.8-19.8c0,0,15.4-5.3,21.5,0v174.1L455.1,474.7z"/>
		<polygon class="st14" points="648.2,394.8 474.1,398 474.1,405.7 648.2,402.8 		"/>
		<polygon class="st14" points="536,444.6 474.5,447.5 474.5,454.5 536,451.9 		"/>
		<polygon class="st14" points="650.8,434 599.1,437.3 599.1,445.4 650.8,442.4 		"/>
		<polygon class="st14" points="568.2,441.5 548.3,443.5 547.8,451.6 567.7,449.8 		"/>
		<polygon class="st14" points="489.3,341.6 484,352.3 648.2,356.9 648.2,346.4 		"/>
		<polygon class="st12" points="484,356.8 489.9,369.7 648.2,369.7 648.2,360.2 		"/>
		<path class="st16" d="M295.7,394.8h78.6c0,0-2.8,16.1-11.6,16.4c-8.7,0.3-78.7-2.8-78.7-2.8L295.7,394.8z"/>
		<polygon class="st17" points="383.7,405.7 413.5,403.1 420.3,369.7 427.5,369.7 434.4,411.6 376.8,411.6 381.3,403.5 		"/>
		<polygon class="st3" points="471.4,304.7 648.2,318.9 648.2,312.4 471.4,299 		"/>
		<g class="st18">
			<path class="st19" d="M461.9,470.5c-1.7,0-3-1.4-3-3V299c0-1.7,1.4-3,3-3s3,1.4,3,3v168.4C465,469.1,463.6,470.5,461.9,470.5z"/>
		</g>
		<polygon class="st20" points="588.9,338.6 588.9,375 636.8,375.1 636.8,338.6 		"/>
		<polygon class="st21" points="593.4,342 593.4,371.6 632.6,371.6 632.6,342 		"/>
		<g>
			<path class="st20" d="M438.6,432c-1.3,0-2.3-1-2.3-2.3v-11.5c0-1.3,1-2.3,2.3-2.3c1.3,0,2.3,1,2.3,2.3v11.5
				C440.9,431,439.9,432,438.6,432z"/>
		</g>
		<path class="st13" d="M394.3,411.8l8.5,9.4c0.3,0.3,0.8,0.5,1.2,0.5h6c0.9,0,1.7-0.7,1.7-1.7v-6.6c0-0.9-0.7-1.7-1.7-1.7H394.3z"
			/>
		<path class="st24" d="M341,362.4l90.3,0.4c0,0,16.6,73.6,15.4,111.2l8.4,0.6l-5.3-150.2l-109.1,5.4L341,362.4z"/>
	</g>
	<g>
		<path class="st7" d="M432,532c24,5,55.2,9.4,96,4.5c0,0,45,22.9,75.5,14.2c0,0,23.5-5.7,31.1-25.7l148.9-13.2l76,10
			c0,0,28.2,5,34.8-2.9c6.7-7.9,9.3-19.9,9.3-19.9h15.8L922,482l19-2.1v-7.6l-7.7-55L430,437l-11,67C415.4,515,420.7,529.6,432,532z
			"/>
		<g>
			<path class="st8" d="M631,514c0,19.6-18.2,31.5-35,31.5s-30.5-15.9-30.5-35.5c0-19.6,13.7-35.5,30.5-35.5S631,482,631,514z"/>
			<ellipse class="st9" cx="601" cy="513.9" rx="26.5" ry="31.6"/>
			<ellipse class="st10" cx="603.5" cy="514" rx="17" ry="22.5"/>
		</g>
		<path class="st11" d="M428.4,491.6V510c0,0,48.7,14.5,109.9,4l27.2-4l9.3-35.9l-146.3-1.8V491.6z"/>
		<g>
			<path class="st8" d="M901,494.1c0,15.4-11.5,24.8-22.2,24.8c-10.7,0-19.3-12.5-19.3-27.9s8.7-27.9,19.3-27.9
				C889.5,463.1,901,469,901,494.1z"/>
			<ellipse class="st9" cx="882" cy="494" rx="16.8" ry="24.9"/>
			<ellipse class="st10" cx="883.6" cy="494.1" rx="10.8" ry="17.7"/>
		</g>
		<path class="st25" d="M430,437h126.4v37.1h18.3c0,0,38.7-30.4,53.2,0l6,28.9l72.5-5.5v-6.9l11,0.9l149-12l5-27l32-2l5.1,20.2h71.5
			V278.8l-237.7-18.3c0,0-16.6-7-28.3,0l-134.7,8c0,0-13,12-13,32l1,44h-32L482,405.3l-52,17.4C430,422.8,426.5,428.5,430,437z"/>
		<path class="st11" d="M428.4,472.3L430,437h126.4v37.1C556.4,474.1,460.4,483.1,428.4,472.3z"/>
		<path class="st7" d="M574.8,474.1l-6.3,18.4l-40,5c0,0-66.1,6.1-100.1-5.9v-19.3C428.4,472.3,528.1,482.8,574.8,474.1z"/>
		<polygon class="st13" points="614.5,408.5 645.5,353.5 681.2,353.5 690.4,408.5 		"/>
		<polygon class="st13" points="536.3,353.5 638.1,353.5 606.9,408.5 492.4,404.4 		"/>
		<path class="st3" d="M567,293.9l143.5-7.4l3.7-26l-134.7,8C579.5,268.5,567.5,282.3,567,293.9z"/>
		<path class="st3" d="M717.5,491.5l-7-205l3.7-26c0,0,20.3-7,28.3,0v229L717.5,491.5z"/>
		<polygon class="st14" points="971.5,386.5 742.5,390.7 742.5,400.8 971.5,397 		"/>
		<polygon class="st14" points="824,452 743,455.8 743,465 824,461.6 		"/>
		<polygon class="st14" points="975,438 907,442.4 907,453 975,449 		"/>
		<polygon class="st14" points="866.4,447.8 840.1,450.6 839.5,461.1 865.7,458.8 		"/>
		<polygon class="st14" points="762.5,316.5 755.5,330.5 971.5,336.6 971.5,322.8 		"/>
		<polygon class="st24" points="755.5,336.5 763.3,353.5 971.5,353.5 971.5,340.9 		"/>
		<path class="st16" d="M507.9,386.5h103.4c0,0-3.7,21.2-15.2,21.6c-11.5,0.4-103.6-3.7-103.6-3.7L507.9,386.5z"/>
		<polygon class="st17" points="623.6,400.8 662.8,397.3 671.8,353.5 681.2,353.5 690.4,408.5 614.5,408.5 620.5,397.9 		"/>
		<polygon class="st3" points="739,268 971.5,286.6 971.5,278.1 739,260.5 		"/>
		<g class="st18">
			<path class="st19" d="M726.5,486c-2.2,0-4-1.8-4-4V260.5c0-2.2,1.8-4,4-4s4,1.8,4,4V482C730.5,484.2,728.7,486,726.5,486z"/>
		</g>
		<polygon class="st20" points="893.5,312.5 893.5,360.4 956.5,360.5 956.5,312.5 		"/>
		<polygon class="st21" points="899.4,317 899.4,355.9 951,356 951,317 		"/>
		<g>
			<path class="st20" d="M695.9,435.4c-1.7,0-3-1.3-3-3v-15.1c0-1.7,1.3-3,3-3s3,1.3,3,3v15.1C698.9,434.1,697.5,435.4,695.9,435.4z
				"/>
		</g>
		<path class="st13" d="M637.6,408.8l11.2,12.3c0.4,0.5,1,0.7,1.6,0.7h7.9c1.2,0,2.2-1,2.2-2.2V411c0-1.2-1-2.2-2.2-2.2H637.6z"/>
		<path class="st15" d="M567.5,343.9l118.7,0.5c0,0,21.8,96.8,20.3,146.3l11,0.8l-7-197.5L567,301.1L567.5,343.9z"/>
	</g>
	<g>
		<g>
			<path class="st2" d="M755.5,630.1c-0.5,0-0.9-0.3-1-0.8c-0.1-0.5,0.2-1.1,0.7-1.2L991.8,573c0.5-0.1,1.1,0.2,1.2,0.7
				c0.1,0.5-0.2,1.1-0.7,1.2l-236.5,55.1C755.7,630.1,755.6,630.1,755.5,630.1z"/>
		</g>
		<g>
			<path class="st2" d="M494.5,579.3c-0.5,0-0.9-0.4-1-0.8c-0.1-0.5,0.3-1.1,0.8-1.1L859.8,521c0.6-0.1,1.1,0.3,1.1,0.8
				c0.1,0.5-0.3,1.1-0.8,1.1l-365.5,56.3C494.6,579.3,494.5,579.3,494.5,579.3z"/>
		</g>
		<g>
			<path class="st2" d="M430.5,574.3c-0.5,0-0.9-0.4-1-0.9c-0.1-0.5,0.3-1,0.9-1.1L807.9,529c0.6-0.1,1,0.3,1.1,0.9
				c0.1,0.5-0.3,1-0.9,1.1l-377.5,43.3C430.6,574.3,430.5,574.3,430.5,574.3z"/>
		</g>
		<g>
			<path class="st2" d="M740.4,612.6c-0.5,0-0.9-0.3-1-0.8c-0.1-0.5,0.2-1.1,0.8-1.2L991.8,562c0.5-0.1,1.1,0.2,1.2,0.8
				c0.1,0.5-0.2,1.1-0.8,1.2l-251.6,48.6C740.5,612.6,740.4,612.6,740.4,612.6z"/>
		</g>
		<g>
			<path class="st2" d="M272.6,537.5c-0.5,0-1-0.4-1-0.9c0-0.6,0.4-1,0.9-1.1l122-7.5c0.6,0,1,0.4,1.1,0.9c0,0.6-0.4,1-0.9,1.1
				L272.6,537.5C272.7,537.5,272.7,537.5,272.6,537.5z"/>
		</g>
		<g>
			<path class="st2" d="M136.2,522.2c-0.5,0-1-0.4-1-0.9c0-0.6,0.4-1,0.9-1.1l99.1-5.5c0.6-0.1,1,0.4,1.1,0.9c0,0.6-0.4,1-0.9,1.1
				L136.2,522.2C136.2,522.2,136.2,522.2,136.2,522.2z"/>
		</g>
		<g>
			<path class="st2" d="M44.4,504.2c-2,0-3.3-0.1-3.7-0.2c-0.5-0.2-0.8-0.7-0.6-1.3c0.2-0.5,0.7-0.8,1.3-0.6
				c4.4,1.4,104-6.1,169.8-11.5c0.5,0,1,0.4,1.1,0.9s-0.4,1-0.9,1.1C195.7,493.8,68.5,504.2,44.4,504.2z"/>
		</g>
		<g>
			<path class="st2" d="M0.8,489.7c-0.5,0-1-0.4-1-1c0-0.6,0.4-1,0.9-1l76-3.8c0.5,0,1,0.4,1,0.9c0,0.6-0.4,1-0.9,1L0.8,489.7
				C0.8,489.7,0.8,489.7,0.8,489.7z"/>
		</g>
	</g>
</g>
</svg>
