<svg version="1.1" id="Layer_1" xmlns="http://www.w3.org/2000/svg" x="0" y="0" viewBox="0 0 1000 1000" style="enable-background:new 0 0 1000 1000" xml:space="preserve"><style>.st2{fill:#fff}.st4{fill:#1e3441}.st5{fill:#4570ad}.st6{fill:#ff4a5c}.st8{fill:#414042}.st9{fill:#fc8606}.st10{fill:#231f20}.st11{fill:#4670ad}.st13{opacity:.32;fill:#231f20}.st17{fill:#d38905}.st19{fill:#feac02}.st20{fill:#033d6b}.st21{fill:#a39c4e}.st22{fill:#70aaef}</style><path d="M951 507C817 769 752.9 961 506 961S52 759.9 52 513 335.2 18.7 613 28c269 9 450.4 259.2 338 479z" style="fill:#cfb5f6"/><path d="M913 524C726.6 809 754 921.1 504 933.4 269 945 77.6 742.5 77.6 507S294.2 107.8 525 61c269-54.6 528 249 388 463z" style="fill:#e3d4f9"/><path class="st2" d="M333.4 418h15.3l20.6-237.6h356.3L747.3 418H762V159.2L547.7 98.3l-214.3 60.2z"/><path style="opacity:.76;fill:#fff" d="M398.8 378.2h10.4l14.2-162.9h244.3l14.9 162.9h10.1V200.8l-147-41.8-146.9 41.3z"/><path class="st4" d="M500 400.4h9.2v16H500zM583.2 400.4h9.2v16h-9.2zM411.7 412.9h8.4v5.3h-8.4zM452.6 412.9h8.4v5.3h-8.4z"/><path class="st5" d="M407.5 412.9h58.1v-59.7s.7-5.2-5.4-7.5h-43.6l-13.3-88s-4.9-7.1-8.8 0l12.6 89.2.4 66z"/><path transform="rotate(-180 676.53 415.565)" class="st4" d="M672.3 412.9h8.4v5.3h-8.4z"/><path transform="rotate(-180 635.66 415.565)" class="st4" d="M631.5 412.9h8.4v5.3h-8.4z"/><path class="st5" d="M684.9 412.9h-58.1v-59.7s-.7-5.2 5.4-7.5h43.6l13.3-88s4.9-7.1 8.8 0l-12.6 89.2-.4 66z"/><path class="st6" d="m476.3 404.5 3.8-104.7h130.6l5.3 104.7s-11 22.2-28.4 0c0 0-11.2 23.7-28 0 0 0-10.7 22.9-28.3 0 0 0-12.2 23.7-28.3-.8 0 0-12.2 23.7-26.7.8z"/><g><path d="M546.2 296.4s-18-1.1-23.3-11.1c-5.3-9.9 4.6-38.4 23.3-38.7s25.6 22.6 24.8 31c-.7 8.5-7.6 19.2-24.8 18.8z" style="fill:#499b5b"/><circle class="st2" cx="538.6" cy="274.2" r="3.4"/><circle class="st2" cx="537" cy="259.7" r="3.4"/><circle class="st2" cx="557.7" cy="259.7" r="2.7"/><circle class="st2" cx="547.7" cy="252.1" r="2.7"/><circle class="st2" cx="556.1" cy="269.7" r="2.7"/><circle class="st2" cx="550" cy="282.6" r="2.7"/><circle class="st2" cx="529.4" cy="266.6" r="1.9"/><circle class="st2" cx="535.5" cy="282.6" r="1.9"/><circle class="st2" cx="527.1" cy="277.3" r="1.9"/><circle class="st2" cx="565.3" cy="277.3" r="1.9"/><circle class="st2" cx="565.3" cy="266.6" r="1.9"/><circle class="st2" cx="544.7" cy="263.5" r="1.9"/><circle class="st2" cx="560.7" cy="286.5" r="1.9"/><circle class="st2" cx="542.4" cy="290.3" r="1.9"/></g><path class="st2" d="M529.6 289.4h33.1l.2 5.8h-6l-.6 4.6h-21.1l-1-5.2h-4.6z"/><path class="st8" d="M323 418h447v4H323z"/><g><path class="st9" d="M749 602.8c.6 1.2 1.9 2.4 5 2.6 0 0 3-.1 3.8-2.6.3-1.1.1-2.2-.6-3.1l-2.6-3.7h-2.3l-2.9 3.7c-.7.9-.9 2.1-.4 3.1z"/><path class="st9" d="M757 602.8c.6 1.2 1.9 2.4 5 2.6 0 0 3-.1 3.8-2.6.3-1.1.1-2.2-.6-3.1l-2.6-3.7h-2.3l-2.9 3.7c-.7.9-.9 2.1-.4 3.1z"/><path class="st9" d="M765 602.8c.6 1.2 1.9 2.4 5 2.6 0 0 3-.1 3.8-2.6.3-1.1.1-2.2-.6-3.1l-2.6-3.7h-2.3l-2.9 3.7c-.7.9-.9 2.1-.4 3.1z"/><path class="st9" d="M773 602.8c.6 1.2 1.9 2.4 5 2.6 0 0 3-.1 3.8-2.6.3-1.1.1-2.2-.6-3.1l-2.6-3.7h-2.3l-2.9 3.7c-.7.9-.9 2.1-.4 3.1z"/><path class="st9" d="M780.4 602.8c.6 1.2 1.9 2.4 5 2.6 0 0 3-.1 3.8-2.6.3-1.1.1-2.2-.6-3.1L786 596h-2.3l-2.9 3.7c-.7.9-.8 2.1-.4 3.1z"/><path class="st10" d="M705.9 590.8h16.6v33.1h-16.6zM816.6 590.8h16.6v33.1h-16.6z"/><path class="st10" d="M719.6 611.4h101.1v6.3H719.6zM786.9 611.4h-35.4c0-3.5 2.8-6.3 6.3-6.3h22.8c3.5 0 6.3 2.8 6.3 6.3z"/><path class="st11" d="M875.2 520.7v19.9c0 31.4-25.2 56.9-56.3 56.9h-99.3c-31.1 0-56.3-25.5-56.3-56.9v-19.9c0-31.4 25.2-56.9 56.3-56.9h99.3c31.1 0 56.3 25.5 56.3 56.9z"/><path class="st2" d="M789.5 512.6h-40c-3 0-5.4-2.4-5.4-5.4 0-3 2.4-5.4 5.4-5.4h40c3 0 5.4 2.4 5.4 5.4 0 3-2.4 5.4-5.4 5.4z"/><path d="M875.2 520.1v19.7c0 31.1-25.2 56.3-56.3 56.3h-29.6c16.4-13 32.4-31.9 37.7-58.2 8.2-40.7-23.4-63.5-44.5-73.9h36.4c31.1-.2 56.3 25 56.3 56.1z" style="opacity:.15;fill:#231f20"/><path class="st10" d="M886.9 542.9H652.2c-2.8 0-5.1-2.3-5.1-5.1s2.3-5.1 5.1-5.1h234.7c2.8 0 5.1 2.3 5.1 5.1s-2.3 5.1-5.1 5.1z"/><path class="st13" d="M663.3 523.8h211.8v8.6H663.3zM874.1 551.7H664.4l-1-8.5H875.1z"/></g><g><ellipse class="st11" cx="231.1" cy="450.8" rx="8.5" ry="12.1"/><ellipse cx="228.4" cy="450.8" rx="6" ry="8.5" style="opacity:.3;fill:#1a2c36"/><path class="st11" d="M128.3 560.7h207.4c0-49.1-34.1-90.2-80-101-7.6-1.8-15.6-2.7-23.8-2.7-57.2 0-103.6 46.4-103.6 103.7z"/><path d="M128.3 560.7h60.4c0-.7 0-1.5.1-2.2.6-72 67-98.7 67-98.7-7.6-1.8-15.6-2.7-23.8-2.7-57.3-.1-103.7 46.3-103.7 103.6z" style="opacity:.13;fill:#1a2c36"/><ellipse transform="rotate(-32.317 289.21 508.406)" cx="289.2" cy="508.4" rx="10.3" ry="33.1" style="opacity:.39;fill:#fff"/><g><path class="st17" d="m313.4 563-13.9 10.8c-2.9 2.3-6.5 3.5-10.2 3.5H171.6L142.1 563h171.3z"/><path class="st17" d="M117.1 567.4h224.4c2.5 0 4.5-2 4.5-4.5s-2-4.5-4.5-4.5H117.1c-2.5 0-4.5 2-4.5 4.5.1 2.5 2.1 4.5 4.5 4.5z"/></g><g><path d="M192 670.9s30.8-20.6 44-40.9c3.4-5.2 7.4-9.8 12.1-13.9l35.3-30.8s6.7-12.5-6.5-8-57 34.9-57 34.9-17 5.4-21.5-12.5-13.8-22.3-13.8-22.3-15-4.5-13.1 0c1.9 4.5 13.9 11.2 8.6 35.3 0 0-8 8-3.6 22.3l-9.8 10.7 17 29.5 8.3-4.3z" style="fill:#efba78"/><path class="st2" d="m166.8 637.1-16.1 11.2 24.1 40.3 18-13.4z"/></g></g><g><path class="st6" d="M323.5 716.5h337v95.8h-337z"/><path class="st8" d="M323.5 690.3h337.4v28.9H323.5zM323.5 812.4h24.4l-5 87.1h-13.8zM636.9 812.4h23.7l-5.1 87.1h-13.8z"/><circle class="st19" cx="375.4" cy="773.9" r="14.5"/><circle class="st19" cx="454.5" cy="773.9" r="14.5"/><circle class="st19" cx="533.6" cy="773.9" r="14.5"/><circle class="st19" cx="612" cy="773.9" r="14.5"/><path class="st2" d="M323.5 734.8h337v6.1h-337z"/><path class="st20" d="M373.9 759.1h3v19h-3zM453 759.1h3v19h-3zM532.1 759.1h3v19h-3zM610.4 759.1h3v19h-3z"/></g><g><path class="st8" d="m412.3 568.1 129.1-.2 8.4 71.7H403.2z"/><path class="st21" d="M419.4 568.1h47v71.5h-47z"/><path class="st22" d="m475.9 473-2.4 23.5-7.2 71.4H420l-7.2-66.1-3.1-28.8z"/><path class="st6" d="M475.9 473.2h-66c0-5.2 4.2-9.5 9.5-9.5h47c5.3 0 9.5 4.3 9.5 9.5z"/><path class="st8" d="M433.6 544.7h18.9l-4.6 15.5-.4 21.7h-9.7l.3-21.7z"/><path class="st22" d="m455.7 592.2-1.3 15.4-1.9 22.1h-18.9l-2.5-22.1-1.8-15.4z"/><path class="st19" d="M419.4 629.7h47v9.9h-47zM475.9 473l-2.4 23.5c-3.8-3-8.8 1.9-8.8 1.9s-10.3 8.6-17.9 2c-7.6-6.6-11-7.6-20.8-1.7-5.8 3.5-10.4 3.6-13.1 3.1l-3.1-28.8h66.1zM455.7 592.2l-1.3 15.4h-23.3l-1.8-15.4z"/><g><path class="st21" d="M487.4 568.1h47v71.5h-47z"/><path class="st22" d="m543.8 473-2.3 23.5-7.2 71.4H488l-7.2-66.1-3.1-28.8z"/><path class="st6" d="M543.9 473.2h-66c0-5.2 4.2-9.5 9.5-9.5h47c5.2 0 9.5 4.3 9.5 9.5z"/><path class="st8" d="M501.6 544.7h18.9l-4.7 15.5-.4 21.7h-9.6l.2-21.7z"/><path class="st22" d="m523.7 592.2-1.3 15.4-1.9 22.1h-18.9l-2.6-22.1-1.7-15.4z"/><path class="st19" d="M487.4 629.7h47v9.9h-47zM543.8 473l-2.4 23.5c-3.8-3-8.8 1.9-8.8 1.9s-10.3 8.6-17.9 2c-7.6-6.6-11-7.6-20.8-1.7-5.8 3.5-10.4 3.6-13.1 3.1l-3.1-28.8h66.1zM523.7 592.2l-1.3 15.4H499l-1.7-15.4z"/></g></g></svg>