<svg version="1.1" id="Layer_1" xmlns="http://www.w3.org/2000/svg" x="0" y="0" viewBox="0 0 1000 1000" style="enable-background:new 0 0 1000 1000" xml:space="preserve"><style>.st2{fill:#fff}.st3{fill:#4570ad}.st4{fill:#ff4a55}.st5{fill:#1a2c36}.st6{fill:#feac02}.st7{fill:#fcb34d}.st10{fill:#f7ddc6}.st12{fill:#ff4d53}</style><path d="M914.5 685.8c-220.6 152.6-464.7 407-605.9 244.9C97.2 687.8-33.2 539.3 45.3 406.1c88.4-150.2 430.3-413.2 670.4-336s326 527.7 198.8 615.7z" style="fill:#cfb5f6"/><path d="M816.9 794.1c-245 69.8-542.2 224.1-619.6 35.2-116.1-282.9-188-456.2-76.7-552.1C246 169.1 633.8 37 826.1 179.8s132.1 574.1-9.2 614.3z" style="fill:#eae0fc"/><path class="st2" d="M792 771.8c-225.8 64.3-499.6 206.5-571 32.5-107-260.8-173.2-420.6-70.7-508.9 115.5-99.6 472.9-221.3 650.1-89.8s121.7 529.1-8.4 566.2z"/><path class="st3" d="m192.7 580.2 19.5 166.5c.7 5.7 5.3 9.9 10.9 9.9h123.3c5.6 0 10.3-4.3 10.9-10l18.2-166.4H192.7z"/><circle class="st2" cx="284.5" cy="659.8" r="62.6"/><path class="st4" d="m276.5 689.7-18.4-13.8v5.4c-2.2-.2-4.1-.7-4.8-1.2 0-.3 0-.9.3-1.9 3.5-13.2 10.4-20.4 10.5-20.5l-6-5.9-6-6c-.4.4-10.1 10.2-14.8 28-2.3 8.5.4 14 3.1 17.1 4.8 5.7 12.5 7 17.7 7.3v5.3l18.4-13.8zM314.5 653.4l-6.3 23.8 5.4-2.2c.7 2.2 1 4.3.7 5.2-.3.1-.9.4-2 .5-14.5 1.8-24.5-2.1-24.6-2.2l-3.5 8.4-3.5 8.3c.6.2 14.2 5.9 33.8 3.5 9.3-1.2 13.7-6.1 15.8-10 3.7-7.1 2-15.3.1-20.5l5.2-2.1-21.1-12.7zM266.8 650.6l21.7-11.6-5.2-2.5c1.2-2 2.5-3.7 3.3-4.1.3.1.9.4 1.7 1.1 11.2 9.4 15.1 19.4 15.1 19.5l8.5-3.1 8.5-3.1c-.2-.6-5.3-14.5-20.5-27.2-7.2-6.1-13.8-5.9-18-4.8-7.7 2.1-12.5 8.9-15.1 13.9l-5.1-2.4 5.1 24.3z"/><path class="st5" d="M260.1 529.6s-9.1-13.9 1.7-15c11.2-1.2 23.2-5.8 29.3-4.2 6.1 1.6 3.9 11.9 3.9 11.9l13-.5s8.6-17.1-7.2-26.8-53.5 7.3-53.5 7.3-4.9 4.8-4.9 13.4c0 4.9-.2 19.1-.2 19.1l17.9-5.2zM186.6 568h195.8v12.2H186.6z"/><path class="st3" d="m186.6 564.4 188.8-30.1v-12.6s-61.1-6-103.7 3.7-85.1 29.8-85.1 29.8v9.2z"/><g><path class="st3" d="M450.8 213.2 442 265l-30 20c-3.8 2.5-6 6.7-6 11.2v81.4s-2 6.4 26 6.4h335.8v-45l-231.3-2.5.2-121.7c0-5.2-4.2-9.4-9.4-9.4H460c-4.6 0-8.5 3.3-9.2 7.8z"/><path class="st2" d="M460.5 214.5h67.9v68.6H450z"/><path class="st6" d="M542.9 205.4v131.1l224.9 2.5V237.2l-55.3-51.7H564.9s-21.6 2.9-22 19.9z"/><path class="st2" d="M557.5 205.5h164v12h-164zM557.5 308.5h195v12h-195zM557.5 282.5h195v12h-195zM557.5 256.5h195v12h-195zM557.5 230.5h181v12h-181z"/><circle class="st2" cx="465" cy="381" r="33"/><circle class="st3" cx="465" cy="381" r="31.5"/><circle class="st2" cx="722" cy="381" r="33"/><circle class="st3" cx="722" cy="381" r="31.5"/><circle class="st2" cx="465" cy="382" r="16.5"/><circle class="st2" cx="722" cy="381" r="16.5"/><path class="st3" d="M786.1 334.5h-15.6v-95h15.6c5.2 0 9.4 4.2 9.4 9.4v76.2c0 5.2-4.2 9.4-9.4 9.4z"/><circle class="st7" cx="465" cy="382" r="15"/><circle cx="722" cy="381" r="16" style="fill:#faab4c"/></g><g><path d="M310.1 455.4s-21.8-93.2-25.3-116.6-2.7-41.3-2.7-41.3-3.6-8.2-13.8-2.4c-2.2 1.3-3.6 3.7-3.6 6.2V341l-11.4-60s-11.7-10.9-19.5 3.1l11.7 58.4-19.5-59.9s-13.2-11.7-18.3 5.5l17.5 56.8-24.1-48.2s-16.3-4.7-12.5 12.5 25.7 65.4 25.7 65.4 4.7 17-6.6 9.3L188 365.2c-2.2-2.1-5.3-2.7-8.2-1.7-4.7 1.6-10.1 5.3-3.6 13.3 10.1 12.5 44.4 48.2 55.3 56l5.4 38.1 73.2-15.5z" style="fill:#414042"/><path class="st4" d="M238.2 459.2S260 366 263.5 342.6s2.7-41.3 2.7-41.3 3.4-7.8 13.1-2.8c2.7 1.4 4.3 4.2 4.3 7.1v39.2L295 285s11.7-10.9 19.5 3.1l-11.7 58.4 19.5-59.9s13.2-11.7 18.3 5.5l-17.5 56.8 24.1-48.2s16.3-4.7 12.5 12.5c-3.9 17.1-25.7 65.4-25.7 65.4s-4.7 17 6.6 9.3l18.4-17.3c3.7-3.5 9.5-4 13.5-.9 2.8 2.1 4.1 5.6-.4 11.2-10.1 12.5-44.4 48.2-55.3 56l-5.4 38.1-73.2-15.8z"/></g><g><path class="st5" d="M581 740h33v19h-33z"/><path class="st5" d="M554 749h86v10h-86z"/><path class="st5" d="M632 749h9v34h-9zM612 749h9v34h-9zM592 749h9v34h-9zM572 749h9v34h-9zM552 749h9v34h-9zM592 486h9v260h-9z"/></g><g><path class="st5" d="M461 483h10v188h-10z"/><path class="st6" d="M455 666h25v17h-25z"/><path class="st6" d="M461 676.8s-19 3.2-27 31.2-18 66-18 66 7.4 9 12.2 0c0 0 5.2 8 16.5 6 0 0 17.3 8.6 21.3.3 0 0 10.8 9.7 17.9-.3 0 0 15.1 5 19.1-5 0 0 11 4 15-4l-16-63s-5.7-25.4-26.3-31.2H461z"/><path class="st10" d="M472.8 722.6c-14.9 0-29.2-4.9-40.6-10.4l1.5-3.1v-3.5h.8l.7.3c17.9 8.6 43.7 15.8 65.5 1.6l3.8 5.9c-10.2 6.7-21.1 9.2-31.7 9.2z"/><path class="st10" d="M473.8 710.6c-13.9 0-27.3-4.3-37.7-9l2.9-6.4c15.8 7.1 38.8 13.3 59 2.5l3.3 6.2c-9 4.8-18.4 6.7-27.5 6.7zM440.2 737.1c-.4 3.3-1 6.5-1.6 9.7l-.9 4.8-1 4.8c-.3 1.6-.6 3.2-.8 4.8-.3 1.6-.7 3.2-1.4 4.6-.7 1.5-1.5 2.9-2.4 4.3-1 1.4-2 2.7-3.5 4l-.7-.2c-.5-1.8-.6-3.6-.6-5.3 0-1.7.2-3.3.5-4.9.3-1.6.8-3.1 1.5-4.6.7-1.5 1.5-2.9 2.1-4.4l1.9-4.5 2-4.5c1.4-3 2.8-5.9 4.3-8.8l.6.2zM451.9 743.1c0 3.2-.2 6.3-.3 9.5l-.3 4.7-.4 4.7c-.1 1.6-.2 3.2-.2 4.7-.1 1.6-.3 3.1-.8 4.6-.5 1.5-1.1 3-1.9 4.4-.8 1.4-1.7 2.9-2.9 4.2l-.7-.1c-.7-1.7-1-3.4-1.2-5-.2-1.6-.2-3.2-.1-4.8.1-1.6.4-3.1.9-4.6.5-1.5 1.1-3 1.5-4.5l1.3-4.5 1.4-4.5c1-3 2-6 3.1-9l.6.2zM467.3 746c.5 2.9.8 5.7 1.1 8.6l.5 4.3.3 4.3c.1 1.4.3 2.9.5 4.3s.2 2.9-.1 4.3c-.2 1.4-.6 2.8-1.2 4.3-.5 1.4-1.2 2.8-2.2 4.2h-.7c-1-1.5-1.5-2.9-2-4.4-.4-1.4-.7-2.9-.9-4.3-.2-1.4-.1-2.9.2-4.3.3-1.4.6-2.8.8-4.3l.6-4.3.7-4.3c.5-2.8 1-5.7 1.6-8.5l.8.1zM480.3 746c.9 2.8 1.6 5.6 2.4 8.3l1.1 4.2 1 4.2c.3 1.4.8 2.8 1.1 4.2.4 1.4.6 2.8.5 4.2 0 1.4-.2 2.9-.5 4.4-.3 1.5-.8 3-1.6 4.5l-.7.1c-1.2-1.3-1.9-2.6-2.6-4-.6-1.4-1.1-2.7-1.5-4.1-.4-1.4-.5-2.8-.5-4.3.1-1.4.2-2.9.2-4.3v-4.3l.1-4.3c.1-2.9.2-5.8.4-8.7l.6-.1zM495.9 742.9c1.2 2.5 2.2 5.1 3.2 7.7l1.5 3.9 1.4 3.9c.5 1.3 1 2.6 1.6 3.9.5 1.3.9 2.6 1 4 .1 1.4.1 2.8-.1 4.2-.2 1.4-.5 2.9-1.1 4.5l-.7.2c-1.3-1.1-2.2-2.3-3-3.5-.8-1.2-1.4-2.5-1.9-3.8-.5-1.3-.8-2.6-.9-4-.1-1.4-.1-2.8-.3-4.1l-.5-4.1-.4-4.1c-.2-2.8-.4-5.5-.5-8.3l.7-.4z"/></g><g><path class="st7" d="m770 461-20 31-38.7 3-22.3-30.3z"/><path class="st2" d="M721.5 472.5s16 6 28.5 0 20-11.5 20-11.5 2.5-3.7-6-4.1c-8.5-.4-15.8 6.4-23.6 0-7.9-6.4-23.7-2.4-27.3 4.1 0 0-22.7-9.1-24.1 3.7 0 0 7.3 6.7 13.9 8.3 6.6 1.5 12.6-2.5 18.6-.5z"/><path class="st3" d="M745.5 504.5h-33c-3.3 0-6-2.7-6-6s2.7-6 6-6h33c3.3 0 6 2.7 6 6s-2.7 6-6 6z"/><path class="st3" d="M749.5 495s5-14.5 14-10.5-10 14-10 14l-4-3.5zM707.7 494.5s-3.7-14.6-9.1-10.6c-5.4 4.1-4.2 6 1.1 10.6l5.3 4.6 2.7-4.6z"/><path d="M708.5 504s-11.2 6.2-31.6 43.2c-20.4 36.9-30.4 66.4-30.4 66.4s-11 33.5 28 54.8c39 21.3 95 17.2 123-12.2 21-22.1 11.9-46.6 6-57.5-2.8-5.2-5.3-10.5-7.4-15.9-9.1-23.3-32.3-78.7-46.1-78.7-.5-.1-41.5-.1-41.5-.1z" style="fill:#ffaa08"/><path class="st12" d="m719.9 633.5-19-14.2v5.6c-2.3-.2-4.2-.7-4.9-1.2 0-.3 0-.9.3-2 3.6-13.6 10.8-21.1 10.9-21.2l-6.2-6.1-6.2-6.2c-.4.4-10.4 10.6-15.3 29-2.3 8.8.4 14.5 3.2 17.7 5 5.9 12.9 7.3 18.3 7.5v5.4l18.9-14.3zM759.2 596l-6.5 24.6 5.5-2.2c.7 2.3 1 4.5.7 5.4-.3.1-.9.4-2.1.5-15 1.9-25.3-2.2-25.4-2.3l-3.6 8.6-3.6 8.6c.6.3 14.7 6.1 35 3.6 9.7-1.2 14.2-6.3 16.3-10.3 3.8-7.3 2-15.8.1-21.2l5.4-2.2-21.8-13.1zM709.9 593l22.5-12-5.4-2.5c1.2-2.1 2.6-3.8 3.5-4.2.3.1.9.4 1.8 1.2 11.6 9.7 15.6 20.1 15.6 20.2l8.8-3.2 8.8-3.2c-.2-.6-5.5-14.9-21.2-28.1-7.5-6.3-14.2-6.1-18.6-5-8 2.2-13 9.2-15.6 14.4l-5.3-2.5 5.1 24.9z"/><path class="st3" d="M721.5 469.7s16 5.1 28.5 0 20-9.8 20-9.8 2.5-3.2-6-3.5c-8.5-.3-15.8 5.5-23.6 0-7.9-5.5-23.7-2-27.3 3.5 0 0-22.7-7.8-24.1 3.2 0 0 7.3 5.7 13.9 7 6.6 1.3 12.6-2.1 18.6-.4z"/></g></svg>