<svg version="1.1" id="Layer_1" xmlns="http://www.w3.org/2000/svg" x="0" y="0" viewBox="0 0 1000 839" style="enable-background:new 0 0 1000 839" xml:space="preserve"><style>.st2{fill:#414042}.st4{fill:#231f20}.st5{fill:#f8fffa}.st6{opacity:.48;fill:#231f20}.st7{fill:#0e6761}.st8{fill:#feac02}.st9{fill:#4570ad}.st10{fill:#ff4d53}.st12{fill:#fff}.st13{fill:#204b7f}.st18{fill:#ff3930}.st19{fill:#3f3a39}.st22{fill:#cc2323}.st23{fill:none}.st25{fill:#edae0b}</style><path d="M182.4 713.7c-11.7-16.6-35.3-43.5-49.8-57.8C75.5 600-51.4 440.7 44 255.7 163.6 23.5 331.2 134.2 422.4 97.3S607.6-25.5 795.7 32.7 1071.6 392.1 930.4 560c-91.8 109.2-161 41.8-228 156.3-64.1 109.7-399.9 167.7-520-2.6z" style="fill:#e4d4fb"/><path d="M199.6 697.8c-11.1-15.7-33.4-41.2-47.1-54.7-54-53-174.1-203.7-83.9-378.9C181.9 44.5 340.5 149.4 426.8 114.4S602.1-1.8 780.2 53.2s261.1 340.2 127.5 499.2c-86.9 103.3-152.4 39.6-215.8 148-60.8 103.7-378.6 158.6-492.3-2.6z" style="fill:#cfb5f6"/><path class="st2" d="M118.2 360.4H71.9s-6.9-2.4-4.4 7.2 19 26.6 5.5 31.4c0 0-9.9-1.6-6.1 8l18.3 110.3s9.4 20.9 27.7.4l-3.9-19.9 9.2-137.4z"/><path style="fill:#075c57" d="M547.6 444.1v-33H542l.5-15.7h-12.2l2.5 48.7z"/><circle class="st2" cx="179.4" cy="536.7" r="33"/><circle class="st2" cx="249" cy="537.1" r="33"/><circle class="st2" cx="338.8" cy="538.3" r="33"/><circle class="st4" cx="327.5" cy="538.3" r="33"/><circle class="st5" cx="327.5" cy="538.3" r="20.1"/><circle class="st6" cx="327.5" cy="538.3" r="5.6"/><circle class="st7" cx="312.4" cy="537.9" r="1.4"/><circle class="st7" cx="325" cy="553.3" r="1.4"/><circle class="st7" cx="327.8" cy="522.4" r="1.4"/><circle class="st7" cx="315.9" cy="527.4" r="1.4"/><circle class="st7" cx="338.4" cy="526.7" r="1.4"/><circle class="st7" cx="338.4" cy="549.8" r="1.4"/><circle class="st7" cx="314.5" cy="547" r="1.4"/><circle class="st7" cx="342.6" cy="537.9" r="1.4"/><circle class="st2" cx="511" cy="535.9" r="33"/><circle class="st4" cx="499.7" cy="535.9" r="33"/><circle class="st5" cx="499.7" cy="535.9" r="20.1"/><circle class="st8" cx="499.7" cy="535.9" r="5.6"/><circle class="st7" cx="484.6" cy="535.5" r="1.4"/><circle class="st7" cx="497.3" cy="550.9" r="1.4"/><circle class="st7" cx="500.1" cy="520" r="1.4"/><circle class="st7" cx="488.2" cy="524.9" r="1.4"/><circle class="st7" cx="510.6" cy="524.2" r="1.4"/><circle class="st7" cx="510.6" cy="547.4" r="1.4"/><circle class="st7" cx="486.8" cy="544.6" r="1.4"/><circle class="st7" cx="514.8" cy="535.5" r="1.4"/><path class="st9" d="M441.8 393s-5.6-10.9-13.7-10.9h-86.6v36l102.7-3-2.4-22.1z"/><path class="st2" d="m510.8 523.5-9.1 21.1-21.2-1.5s-27.8 11.8-43.5 2.9-155.4-1.2-155.4-1.2l-135.2-1.6 1.6-36.3s5.2-8 20.1-9.1c14.9-1 99.1 2.6 99.1 2.6l243.6 4v19.1z"/><path class="st10" d="M353.2 511.3H133.9v-13.5H109L83 402s14.6-45.7 36.2-47.3l50.6 61.2 192.9 2.2c-.1 0-1.6 72.7-9.5 93.2z"/><path d="M525.9 393H358.7l-3.4 96.6h-6.9v13l3.3 34.9s-1.6-29.8 17.7-34.6h40.2s11.3-.8 13.7 14.5 13.9 24.4 13.9 24.4l-.2-6.7h21.7l2.4 4 89.4-.8.2-77.8-9.9-53.5c0 .1-8.9-10.4-14.9-14z" style="fill:#e23b48"/><path class="st12" d="M523.9 399h-59.3c-2.2 0-4 2-3.7 4.2l7.1 53.3c.2 1.7 1.6 2.9 3.3 2.9h67.4c2.4 0 4.2-2.1 3.8-4.5l-7.7-46.3c-.7-5.4-5.4-9.6-10.9-9.6z"/><circle class="st13" cx="340" cy="400.2" r="18.1"/><circle class="st9" cx="340.8" cy="400.2" r="6.8"/><path class="st12" d="m453.1 453.8-13.7-51.5H388s-5-2.4-5 9.7v39.4h35l11 8.1h24v-5.7z"/><path transform="rotate(-180 433.336 428.014)" style="opacity:.46;fill:#231f20" d="M426.5 411.9h13.7v32.2h-13.7z"/><path d="M494.1 494.8h25.8c7.6 0 13.7-6.1 13.7-13.7s-6.1-13.7-13.7-13.7h-25.8c-7.6 0-13.7 6.1-13.7 13.7s6.2 13.7 13.7 13.7z" style="opacity:.35;fill:#231f20"/><path class="st8" d="M488.9 515.8h37c2.4 0 4.4-2 4.4-4.4 0-2.4-2-4.4-4.4-4.4h-37c-2.4 0-4.4 2-4.4 4.4 0 2.4 1.9 4.4 4.4 4.4zM488.9 529.4h37c2.4 0 4.4-2 4.4-4.4 0-2.4-2-4.4-4.4-4.4h-37c-2.4 0-4.4 2-4.4 4.4 0 2.5 1.9 4.4 4.4 4.4z"/><path class="st4" d="M538 529.4h8c2.4 0 4.4-2 4.4-4.4 0-2.4-2-4.4-4.4-4.4h-8c-2.4 0-4.4 2-4.4 4.4 0 2.5 1.9 4.4 4.4 4.4zM467.1 529.4h12.1c2.4 0 4.4-2 4.4-4.4 0-2.4-2-4.4-4.4-4.4h-12.1c-2.4 0-4.4 2-4.4 4.4 0 2.5 2 4.4 4.4 4.4zM467.1 515.8h12.1c2.4 0 4.4-2 4.4-4.4 0-2.4-2-4.4-4.4-4.4h-12.1c-2.4 0-4.4 2-4.4 4.4 0 2.4 2 4.4 4.4 4.4zM538 515.8h8c2.4 0 4.4-2 4.4-4.4 0-2.4-2-4.4-4.4-4.4h-8c-2.4 0-4.4 2-4.4 4.4 0 2.4 1.9 4.4 4.4 4.4z"/><path transform="rotate(-180 449.033 511.732)" style="opacity:.39;fill:#231f20" d="M437 489.2h24.1v45.1H437z"/><g><path class="st12" d="M437.4 498.9h24.1v3.2h-24.1z"/></g><g><path class="st12" d="M437 516.2h23.7v3.2H437z"/></g><g><circle class="st2" cx="399.9" cy="537.5" r="33"/><circle class="st4" cx="388.7" cy="537.5" r="33"/><circle class="st5" cx="388.7" cy="537.5" r="20.1"/><circle class="st8" cx="388.7" cy="537.5" r="5.6"/><circle class="st7" cx="373.6" cy="537.1" r="1.4"/><circle class="st7" cx="386.2" cy="552.5" r="1.4"/><circle class="st7" cx="389" cy="521.6" r="1.4"/><circle class="st7" cx="377.1" cy="526.6" r="1.4"/><circle class="st7" cx="399.5" cy="525.9" r="1.4"/><circle class="st7" cx="399.5" cy="549" r="1.4"/><circle class="st7" cx="375.7" cy="546.2" r="1.4"/><circle class="st7" cx="403.8" cy="537.1" r="1.4"/></g><g><path class="st12" d="M99.2 396.5c.1 4 1.8 7.8 4.8 10.6l56.5 52.3c34.3 37.4 113.3 39.3 136.3 38.2 4.3-.2 8.5-1.8 11.2-5.1 1.7-2.1 3.2-4.1 4.7-6.1 3.4-4.7 6.3-9.1 8.8-13.3 7.7-13.2 11-24.1 11.9-33 2-19.1-7.1-28.2-7.1-28.2s-42.1-33.8-55.8-43.5c-11.2-7.9-35.8-14.7-44.3-17-1.9-.5-3.9-.7-5.9-.7H128c-7.8 2.5-13.5 6.8-17.8 11.9-3.7 4.4-6.2 9.4-7.9 14.4-2 5.9-2.8 11.7-3 16.4-.1 1.1-.1 2.1-.1 3.1z"/><path class="st8" d="M110.1 362.6s79.4-2.6 121.6 5c36.1 6.5 87.4 57.8 101.5 72.5 2-19.1-7.1-28.2-7.1-28.2s-42.1-33.8-55.8-43.5c-11.2-7.9-35.8-14.7-44.3-17-1.9-.5-3.9-.7-5.9-.7h-92.3c-7.7 2.6-13.5 6.8-17.7 11.9zM99.2 393.4s112 63.2 154.6 74.1c22.9 5.8 44.1 13.3 58.8 19 3.4-4.7 6.3-9.1 8.8-13.3-20.1-17.7-69.7-59.6-100.5-71.1-39.2-14.6-117.7-24.9-118.6-25.1-2.1 5.9-2.9 11.7-3.1 16.4z"/><path class="st6" d="M262.3 367.6c-8.7 6.6-15.9 15-22.2 23.9-3.2 4.5-6 9.1-8.6 14-2.6 4.8-5 9.7-7.1 14.8-.5 1.3-1 2.6-1.5 3.8-.5 1.3-1 2.6-1.4 3.9l-1.3 3.9-1.2 3.9-.6 2-.5 2-1 4c-.6 2.7-1.2 5.3-1.7 8l-.7 4c-.2 1.3-.4 2.7-.6 4.1-.4 2.7-.6 5.4-.9 8.1-.1 1.4-.2 2.7-.3 4.1l-.2 4.1c-.1 2.7-.1 5.5-.1 8.2l.3-4.1c.1-1.4.1-2.7.3-4.1l.4-4.1c.1-1.4.3-2.7.5-4.1.4-2.7.7-5.4 1.1-8.1.2-1.3.4-2.7.7-4l.8-4c2.2-10.6 5.3-21.1 9.4-31.1 4-10.1 9.2-19.7 15.2-28.7 3-4.5 6.3-8.8 9.8-13 3.5-4 7.2-7.9 11.4-11.5zM225.2 354.8c-2.3 1.3-4.5 2.8-6.7 4.4-2.1 1.6-4.1 3.4-6.1 5.2-3.9 3.7-7.4 7.7-10.6 12-6.4 8.6-11.5 18.1-15.3 28.1-3.8 10-6.4 20.5-7.9 31-.4 2.6-.6 5.3-.9 8-.2 1.3-.2 2.7-.3 4l-.3 4c-.1 2.7-.1 5.3-.2 8 0 2.7.1 5.3.1 8 .1-2.7.2-5.3.3-8 .2-2.7.3-5.3.6-8 .3-2.6.5-5.3.8-7.9.4-2.6.7-5.3 1.2-7.9l.7-3.9c.2-1.3.5-2.6.8-3.9.5-2.6 1.2-5.2 1.8-7.7 1.4-5.1 2.9-10.2 4.9-15.1 1.9-4.9 4-9.8 6.5-14.5 2.5-4.7 5.3-9.2 8.3-13.5 3.1-4.3 6.4-8.4 10.2-12.2 1.8-1.9 3.8-3.7 5.8-5.4 2-1.7 4.1-3.3 6.3-4.7z"/></g><g><path class="st12" d="M519.1 469.6h1.6v22.9h-1.6z"/></g><g><path class="st12" d="M506.2 469.6h1.6v22.9h-1.6z"/></g><g><path class="st12" d="M493.3 469.6h1.6v22.9h-1.6z"/></g><g style="opacity:.43"><path class="st4" d="M437 534.3c-.1-5-.2-10-.6-15-.2-2.5-.4-5-.8-7.5-.3-2.5-.8-4.9-1.6-7.3l-.3-.9-.4-.8c-.2-.6-.6-1.1-.9-1.6-.7-1-1.4-2.1-2.2-3-1.6-1.9-3.4-3.6-5.4-5-4.1-2.8-9.1-3.9-14-3.5-5 .4-10.1.5-15.1.6-5 .1-10 .1-15.1 0l-15.1-.2c-5-.1-10-.2-15.1-.4l30.1-.1c10-.1 20.1 0 30.1-.8 2.5-.2 5.1 0 7.6.6s4.9 1.7 7 3.1c2.1 1.4 4 3.3 5.6 5.2.8 1 1.5 2 2.2 3.1.3.6.7 1.1.9 1.7l.4.9.3.9c.8 2.4 1.2 4.9 1.5 7.4.3 2.5.5 5 .6 7.5.3 5 .4 10 .3 15.1z"/></g><g><path class="st9" d="M290 545.1h49.3c6.6 0 12-5.4 12-12v-9.8c0-6.6-5.4-12-12-12H290c-6.6 0-12 5.4-12 12v9.8c0 6.6 5.4 12 12 12z"/><path class="st4" d="M281.6 533.6v-10.8c0-5.5 4.5-10.1 10.1-10.1h45.9c5.5 0 10.1 4.5 10.1 10.1v10.8c0 5.5-4.5 10.1-10.1 10.1h-45.9c-5.6 0-10.1-4.5-10.1-10.1zm10.1-20c-5.1 0-9.3 4.2-9.3 9.3v10.8c0 5.1 4.2 9.3 9.3 9.3h45.9c5.1 0 9.3-4.2 9.3-9.3v-10.8c0-5.1-4.2-9.3-9.3-9.3h-45.9z"/><path class="st4" d="M331.5 514.1h.8v27.6h-.8zM313.8 514.1h.8v27.6h-.8zM295.7 514.1h.8v27.6h-.8z"/></g><path class="st2" d="m144.8 512.5-4.7-2.8s8.9-14.5 17.9-14.9c9-.4 104.4 3 104.4 3s16.5 7.2 19.3 17.2l-6.8 4.4-130.1-6.9z"/><g><circle class="st4" cx="167.3" cy="537.5" r="33"/><circle class="st5" cx="167.3" cy="537.5" r="20.1"/><circle class="st8" cx="167.3" cy="537.5" r="5.6"/><circle class="st7" cx="152.2" cy="537.1" r="1.4"/><circle class="st7" cx="164.8" cy="552.5" r="1.4"/><circle class="st7" cx="167.6" cy="521.6" r="1.4"/><circle class="st7" cx="155.7" cy="526.6" r="1.4"/><circle class="st7" cx="178.2" cy="525.9" r="1.4"/><circle class="st7" cx="178.2" cy="549" r="1.4"/><circle class="st7" cx="154.3" cy="546.2" r="1.4"/><circle class="st7" cx="182.4" cy="537.1" r="1.4"/></g><g><circle class="st4" cx="237.3" cy="536.7" r="33"/><circle class="st5" cx="237.3" cy="536.7" r="20.1"/><circle class="st8" cx="237.3" cy="536.7" r="5.6"/><circle class="st7" cx="222.2" cy="536.3" r="1.4"/><circle class="st7" cx="234.9" cy="551.7" r="1.4"/><circle class="st7" cx="237.7" cy="520.8" r="1.4"/><circle class="st7" cx="225.7" cy="525.8" r="1.4"/><circle class="st7" cx="248.2" cy="525" r="1.4"/><circle class="st7" cx="248.2" cy="548.2" r="1.4"/><circle class="st7" cx="224.3" cy="545.4" r="1.4"/><circle class="st7" cx="252.4" cy="536.3" r="1.4"/></g><g><path transform="rotate(-180 314.977 205.138)" class="st13" d="M310.7 181.9h8.6v46.5h-8.6z"/><path class="st10" d="M310.7 180.1h-41s-11.6 30.7-.9 35.1h-33v13.3h75v-48.4z"/><circle class="st4" cx="261.7" cy="278.1" r="31.8"/><circle class="st2" cx="272.6" cy="278.1" r="31.8"/><circle class="st5" cx="272.6" cy="278.1" r="19.4"/><circle class="st18" cx="272.6" cy="278.1" r="5.4"/><circle class="st7" cx="287.2" cy="277.7" r="1.4"/><circle class="st7" cx="275" cy="292.6" r="1.4"/><circle class="st7" cx="272.3" cy="262.8" r="1.4"/><circle class="st7" cx="283.8" cy="267.6" r="1.4"/><circle class="st7" cx="262.1" cy="266.9" r="1.4"/><circle class="st7" cx="262.1" cy="289.2" r="1.4"/><circle class="st7" cx="285.1" cy="286.5" r="1.4"/><circle class="st7" cx="258.1" cy="277.7" r="1.4"/><circle class="st4" cx="422.1" cy="276.3" r="31.8"/><circle class="st2" cx="432.9" cy="276.3" r="31.8"/><circle class="st5" cx="432.9" cy="276.3" r="19.4"/><circle class="st18" cx="432.9" cy="276.3" r="5.4"/><circle class="st7" cx="447.5" cy="275.9" r="1.4"/><circle class="st7" cx="435.3" cy="290.8" r="1.4"/><circle class="st7" cx="432.6" cy="261" r="1.4"/><circle class="st7" cx="444.1" cy="265.7" r="1.4"/><circle class="st7" cx="422.4" cy="265.1" r="1.4"/><circle class="st7" cx="422.4" cy="287.4" r="1.4"/><circle class="st7" cx="445.4" cy="284.7" r="1.4"/><circle class="st7" cx="418.4" cy="275.9" r="1.4"/><path class="st19" d="M517.2 280.3 272.8 284l-37-40.7 262.1-.8c-.1 0 26-.2 19.3 37.8z"/><path transform="rotate(-180 400.946 258.984)" class="st13" d="M360.3 240h81.4v37.9h-81.4z"/><path style="fill:none;stroke:#231f20;stroke-miterlimit:10" d="M365.8 242.6h70.4v32.8h-70.4z"/><path transform="rotate(-180 432.764 228.084)" class="st10" d="M332.1 221.7h201.3v12.8H332.1z"/><g><ellipse class="st2" cx="301.5" cy="278.2" rx="31.8" ry="31.7"/><ellipse class="st4" cx="312.4" cy="278.2" rx="31.8" ry="31.7"/><ellipse class="st5" cx="312.4" cy="278.2" rx="19.4" ry="19.3"/><circle class="st18" cx="312.4" cy="278.2" r="5.4"/><circle class="st7" cx="326.9" cy="277.8" r="1.4"/><circle class="st7" cx="314.7" cy="292.7" r="1.4"/><circle class="st7" cx="312" cy="263" r="1.4"/><circle class="st7" cx="323.5" cy="267.7" r="1.4"/><circle class="st7" cx="301.9" cy="267" r="1.4"/><circle class="st7" cx="301.9" cy="289.3" r="1.4"/><circle class="st7" cx="324.9" cy="286.6" r="1.4"/><circle class="st7" cx="297.8" cy="277.8" r="1.4"/></g><path class="st9" d="M276.4 244.3h257v-19H287.3c-6 0-10.9 4.9-10.9 10.9v8.1z"/><path class="st9" d="M155.8 260v30.3h104.4l25.1-50 4.9-15h-48.3l3.6-12.2 2.2-7-19.8-8.8-1.8-.8h-47.3z"/><path style="fill:#265a8e" d="M208 251v31.1h45.4l27.8-56.8h-39.3l3.6-12.2-.4-.1-21.7-3.6z"/><path class="st13" d="M208 251v31.1h21.3l-1.1-24.4 16.9-44.7 2.6-6.9-19.8-8.8-4.5 12.1z"/><g><circle class="st2" cx="481.3" cy="278.1" r="31.8"/><circle class="st4" cx="470.4" cy="278.1" r="31.8"/><circle class="st5" cx="470.4" cy="278.1" r="19.4"/><circle class="st18" cx="470.4" cy="278.1" r="5.4"/><circle class="st7" cx="455.8" cy="277.7" r="1.4"/><circle class="st7" cx="468" cy="292.6" r="1.4"/><circle class="st7" cx="470.7" cy="262.8" r="1.4"/><circle class="st7" cx="459.2" cy="267.6" r="1.4"/><circle class="st7" cx="480.9" cy="266.9" r="1.4"/><circle class="st7" cx="480.9" cy="289.2" r="1.4"/><circle class="st7" cx="457.9" cy="286.5" r="1.4"/><circle class="st7" cx="484.9" cy="277.7" r="1.4"/></g><g><path class="st22" d="M213.4 192.3c1.5 0 2.7-1 3-2.5l3.4-19.1c.3-1.7-.8-3.3-2.5-3.5-1.7-.3-3.3.8-3.5 2.5l-3.4 19.1c-.3 1.7.8 3.3 2.5 3.5h.5z"/><path class="st22" d="M225.9 179.7c-3-.4-6.8-1.5-10.6-3-3.9-1.5-7.4-3.2-9.9-4.9-1.8-1.2-3.9-3-3.4-4.3.5-1.3 3.2-1.2 5.4-.9 3 .4 6.8 1.5 10.6 3 3.9 1.5 7.4 3.2 9.9 4.9 1.8 1.2 3.9 3 3.4 4.3-.3.8-1.5 1.1-3 1.1-.8 0-1.6-.1-2.4-.2zm-23.4-12c-.2.5.5 1.8 3.2 3.6 2.5 1.7 5.9 3.4 9.7 4.9 3.8 1.5 7.5 2.5 10.5 2.9 3.2.5 4.6 0 4.8-.5.2-.5-.5-1.8-3.2-3.6-2.5-1.7-5.9-3.4-9.7-4.9-3.8-1.5-7.5-2.5-10.5-2.9-1-.1-1.8-.2-2.4-.2-1.5 0-2.2.3-2.4.7z"/><path class="st22" d="M227.1 176.6c-3-.4-6.8-1.5-10.6-3-3.9-1.5-7.4-3.2-9.9-4.9-1.8-1.2-3.9-3-3.4-4.3.5-1.3 3.2-1.2 5.4-.9 3 .4 6.8 1.5 10.6 3 3.9 1.5 7.4 3.2 9.9 4.9 1.8 1.2 3.9 3 3.4 4.3-.3.8-1.5 1.1-3 1.1-.7 0-1.6-.1-2.4-.2zm-23.4-12c-.2.5.5 1.8 3.2 3.6 2.5 1.7 5.9 3.4 9.7 4.9 3.8 1.5 7.5 2.5 10.5 2.9 3.2.5 4.6 0 4.8-.5.2-.5-.5-1.8-3.2-3.6-2.5-1.7-5.9-3.4-9.7-4.9-3.8-1.5-7.5-2.5-10.5-2.9-1-.1-1.8-.2-2.4-.2-1.5 0-2.2.3-2.4.7zM213.5 187h.4l10.6-3c.7-.2 1.1-.9.9-1.6-.2-.7-.9-1.1-1.6-.9l-10.6 3c-.7.2-1.1.9-.9 1.6.1.5.6.9 1.2.9z"/></g><g><circle class="st19" cx="303.7" cy="218.9" r="6.4"/><circle class="st9" cx="303.7" cy="218.9" r="5.9"/></g><g><path class="st4" d="M309.5 225.3c.3 0 .6-.3.6-.6v-36.1c0-.3-.3-.6-.6-.6s-.6.3-.6.6v36.1c0 .4.3.6.6.6z"/><path class="st4" d="M280.6 219.3c.3 0 .6-.3.6-.6v-18.8h28.4c.3 0 .6-.3.6-.6s-.3-.6-.6-.6H280v20c-.1.3.2.6.6.6z"/><path class="st4" d="M304.4 223.8c.3 0 .6-.3.6-.6v-21.9c0-.3-.3-.6-.6-.6s-.6.3-.6.6v21.9c0 .3.3.6.6.6zM290.2 222.6c.3 0 .6-.3.6-.6v-17.5c0-.3-.3-.6-.6-.6s-.6.3-.6.6V222c0 .4.3.6.6.6z"/></g><path class="st10" d="M226.1 196.5v-5.3l-12.7-2h-15.6v7.3z"/></g><g><circle class="st2" cx="409.9" cy="724.6" r="29.7"/><circle class="st4" cx="398.4" cy="724.6" r="29.7"/><circle class="st8" cx="398.4" cy="724.6" r="17.6"/><circle class="st2" cx="371.8" cy="724.6" r="29.7"/><path class="st8" d="M460.5 663.2s-9.1-52.1-15.7-60.6l-5.4-5.4h-71.1s-13.1 60.1-11.3 91.2l-.2 8 34 20.8h29.5l5.8-50.3 34.4-3.7z"/><path class="st4" d="M455.4 657.1s-5.2-41.8-14.9-53.9H413l15.3 53.9h27.1z"/><path class="st12" d="M453.4 653.2s-4.6-36.7-13.1-47.3h-24.2l13.4 47.3h23.9z"/><path class="st4" d="M372.7 602h26.9s7.6 2.4 11.8 24.2c0 0 7.4 12.2 4 86.9h-19.2s-2-26.1-32.5-29.6c.1.1-1.3-72.4 9-81.5z"/><ellipse class="st2" cx="450.5" cy="732.2" rx="23" ry="22.1"/><ellipse class="st4" cx="446.3" cy="732.8" rx="16.9" ry="16.3"/><ellipse class="st8" cx="446.3" cy="732.8" rx="12.9" ry="12.4"/><path class="st8" d="M473.1 666.1c.5 0 .9-.3 1.1-.7l12-26.9c.3-.6 0-1.3-.6-1.6-.6-.3-1.3 0-1.6.6l-12 26.9c-.3.6 0 1.3.6 1.6.1.1.3.1.5.1z"/><circle class="st4" cx="360.3" cy="724.6" r="29.7"/><circle class="st8" cx="360.3" cy="724.6" r="17.6"/><circle class="st23" cx="445.7" cy="734.3" r="18.8"/><ellipse class="st2" cx="487.5" cy="733.1" rx="23" ry="21.2"/><ellipse class="st4" cx="483.2" cy="733.7" rx="16.9" ry="15.6"/><ellipse class="st8" cx="483.2" cy="733.7" rx="12.9" ry="11.8"/><circle class="st23" cx="445.7" cy="734.3" r="10.9"/><path class="st8" d="m428.3 652.2 24-14.3s7.6 5.7 8.2-5.4c0 0 13.3-8.1 17-7.4 3.6.6-20.2 21.4-20.2 21.4l3.2 14.8 3 1.5-3-12.1 21.2-12.8s1.2-.8 1.5 1.1c.3 1.9 9.4.7 7.6-6 0 0 9.1-10.3 32.7-10.9 0 0-8.5-10.3 10.3-12.7 0 0 .6-7.9 10.3-3.6l3.8-1.3-8.7-10.3s-7.9-1.2-6.7 4.2l-12.1 3.6.6-4.8-45 6.1s-7 2.4-3.4 6.7c0 0-10.3-3.6-20 10.3L426.9 644l1.4 8.2zM572.1 603.3l-2.6-3.5-3.5 4.9-3.9-.4 6.1-10.3 10 9.3z"/><path class="st8" d="M551.2 600.1h.2l14.8-1.5c.8-.1 1.4-.8 1.4-1.7-.1-.8-.8-1.4-1.7-1.4l-14.8 1.5c-.8.1-1.4.8-1.4 1.7.1.8.8 1.4 1.5 1.4z"/><path class="st8" d="M547.9 602h4.5v-6.2l-10.6 1.4 3.1 5.7z"/><path class="st12" d="M505.2 603.2v6.8h-24.8v-2.2zM529.5 605v3.6h-13.8l1.7-1.8z"/><g><path class="st8" d="M345.8 698.7c-.5.8.3.4 1.9-.5 4.1-2.3 8.8-3.3 13.5-3l9.8.7c5.1 2 7.4 3.1 10 6.3 2.9 3.5 6.8 5.5 8.1 10.7l3.6 9.4 35.6 1.1s1.3-11.1 20.7-11.1 22.4 10.9 22.4 10.9l12.6-.2 31.7-.6s.1-9.8-4.2-21.5c-5.5-14.9-18.4-32.9-48-38.2l-5.7-2.8h-26.5l-1.4-12.1s-3.6-6.7-6.7-2.4c0 0-3 9.1-6.1 67.9l-23.6.6s-5.4-17.2-17-22.5c-8.8-4.1-20.2-3-25.3-2.2-2.8.4-5.6 1.6-7.7 3.6-1 .9-2 2.1-2.8 3.6.2-.1-.4 2.3 5.1 2.3z"/><path d="M484.1 723.1s-4.4-55-53.7-60.5l.8-2.8h26.5l5.7 2.8s46.9 2.4 52.2 59.6l-31.5.9z" style="fill:#e29307"/><path class="st4" d="m479.3 700.8 4.7 22.1 31.7-.6s.1-9.7-4.2-21.4c-9.6-.2-32.2-.1-32.2-.1z"/><path class="st12" d="M480.9 705.2h30.3c.8 0 1.5-.7 1.5-1.5s-.7-1.5-1.5-1.5h-30.3c-.8 0-1.5.7-1.5 1.5s.7 1.5 1.5 1.5zM482.2 710.1h30.3c.8 0 1.5-.7 1.5-1.5s-.7-1.5-1.5-1.5h-30.3c-.8 0-1.5.7-1.5 1.5-.1.8.6 1.5 1.5 1.5zM483.4 715.5h30.3c.8 0 1.5-.7 1.5-1.5s-.7-1.5-1.5-1.5h-30.3c-.8 0-1.5.7-1.5 1.5 0 .9.6 1.5 1.5 1.5zM484.6 721h30.3c.8 0 1.5-.7 1.5-1.5s-.7-1.5-1.5-1.5h-30.3c-.8 0-1.5.7-1.5 1.5s.6 1.5 1.5 1.5z"/></g><path class="st2" d="m562.8 620.8 24.2-7.3-2.2-10.3s-28.8-1.3-36.9 1.2c-8.1 2.5-25.2 9.3-25.2 9.3s-4.7 3.5.7 8.3l28.5 1.8-.6 21.2h3.8l.4 9.7s-12.7-2.4-13.3 11.5c0 0 1.2 4.2 3.6 3.6 0 0-6.7 7.3-1.2 12.7 0 0-6.9 7.9.2 12.4 0 0-5.7 7-.8 12.1 0 0-6.7 5.8-.3 12.1 0 0-5.1 7 .9 10 0 0-3.6 3-.6 8.5 0 0-3.9 9.1.8 11.8s31.9 3.6 31.9 3.6l-15.6-3.6-.6-7.3h15.8l-16.1-3.3-.3-5.1h15l-14.7-3.9v-7H576l-15.3-3.6.3-7.4h14.4l-14.4-2.6v-10.3h14.5L561 695l.1-8.8 14.5.6-14.6-3.2.1-9.5 14.5-.6-14.5-3 .6-9.1s17-9.7.6-13.3l-1.8-.6s-.6-1.2 1.8-1.8l.5-24.9z"/><path class="st12" d="M374.4 607.5h24.3s6.8 2.2 10.7 21.8c0 0 6.7 11 3.6 78.3h-17.3s-1.8-23.5-29.3-26.7c0 .1-1.3-65.2 8-73.4z"/></g><g><path class="st4" d="M871.5 312.7v86.8M870.6 312.7h1.7v86.8h-1.7zM894.1 314.4v85.1M893.3 314.4h1.7v85.2h-1.7zM871.5 340.6h22.6"/><path class="st4" d="M871.5 339.7h22.7v1.7h-22.7zM871.5 370H894M871.5 369.2H894v1.7h-22.5zM886.3 314.4l-63.9 103.1"/><path class="st4" d="m823.1 418-1.4-.9 63.9-103.2 1.4.9zM870.5 309.5l-70.9 103.3M800.3 413.3l-1.5-1 71-103.3 1.4 1zM876.3 329.2h-19.2"/><path class="st4" d="M857.1 328.3h19.3v1.7h-19.3zM856.3 362.8l-23.5-.3"/><path transform="matrix(.01061 -.9999 .9999 .01061 472.993 1203.299)" class="st4" d="M843.7 350.9h1.7v23.5h-1.7z"/><path class="st4" d="m832.8 399.1-23.5-.2"/><path transform="scale(.99996) rotate(-89.39 821.124 399.016)" class="st4" d="M820.2 387.3h1.7v23.5h-1.7z"/><path class="st4" d="M870.2 303.3 612.6 65.6M869.6 304 612 66.3l1.2-1.3 257.6 237.7zM616.9 60.7l270.5 240.9"/><path transform="rotate(-48.308 752.122 181.17)" class="st4" d="M751.3 0h1.7v362.3h-1.7z"/><path class="st4" d="m635.7 159.8 22.2-11.1 43.6 82.1-20.5 12.3zM617.7 61.9l198.5 355.3"/><path transform="rotate(-29.198 716.993 239.518)" class="st4" d="M716.1 36h1.7v407h-1.7z"/><path class="st4" d="m793.5 410.5-92.8-179.3-43.6-82.1-46.6-76.6 1.4-.9 46.7 76.7 43.6 82.1L795 409.7zM738.4 364.1C707.1 323.8 589.1 84.8 587.9 82.4l1.5-.8C590.6 84 708.5 322.8 739.7 363l-1.3 1.1zM745.7 363.8C721.5 335 596.8 81.6 595.6 79l1.5-.8C598.4 80.8 723 334 747 362.7l-1.3 1.1z"/><path class="st4" d="M731.4 354.1 721.2 324c-3.7-4.1-20.6-23-20.6-26.8 0-2.8-5.6-19.6-7.8-26.1l-20.2-22v-.2l-4.8-23.1-23.2-30.8-7.5-30.7-23.6-30.5-3.1-24.8-20.2-22.1 1.3-1.2 20.6 22.5 3.1 24.8 23.6 30.5v.2l7.4 30.5 23.2 30.9 4.9 23.2 20.1 21.9.1.2c.8 2.4 8 23.2 8 26.8 0 2.1 10.3 14.7 20.3 25.7l.1.1 10.3 30.4-1.8.7z"/><g><path class="st4" d="m760.9 364-22.8-13.4 6.1-33.9-37.6-19 9.4-36.5-35.4-17.3.7-1.6 36.7 18-9.4 36.5 37.5 19-6.1 33.9 21.7 12.8z"/></g><g><path class="st4" d="M657.5 149.4 622.6 129V92.8l-24.9-10 .6-1.6 26 10.4V128l34 20z"/></g><g><path transform="rotate(-30.526 703.448 264.88)" class="st4" d="M692 264h23.1v1.7H692z"/></g><g><path transform="rotate(-30.197 720.948 291.825)" class="st4" d="M710.3 291h21.5v1.7h-21.5z"/></g><g><path transform="rotate(-26.143 735.726 320.822)" class="st4" d="M725.4 320h20.9v1.7h-20.9z"/></g><g><path transform="rotate(-22.508 749.036 346.019)" class="st4" d="M738.3 345.2h21.5v1.7h-21.5z"/></g><g><path transform="rotate(-34.373 615.86 97.367)" class="st4" d="M606.7 96.5h18.4v1.7h-18.4z"/></g><g><path transform="rotate(-22.986 632.236 124.744)" class="st4" d="M622.7 123.9h19.1v1.7h-19.1z"/></g><g><circle class="st4" cx="827.1" cy="253.7" r="6"/></g><g><circle class="st4" cx="816" cy="243.4" r="6"/></g><g><path transform="rotate(-26.411 589.044 60.318)" class="st4" d="M578.3 59.5h21.5v1.7h-21.5z"/></g><g><path class="st4" d="M574.6 78h1.7v200.7h-1.7z"/></g><g><path class="st4" d="M574 336.4c-3.2 0-4.7-2.1-5.4-3.4-1.4-2.9-1.2-7.1.6-9.2 2.4-2.9 5.4-9.7 5.5-9.8l1.5.8c-.1.3-3.1 7.2-5.7 10.3-1.1 1.3-1.5 4.6-.3 7 .7 1.4 2.1 2.9 5.2 2.3 1.6-.3 2.8-1.1 3.5-2.3 1.7-2.9.5-7.3.5-7.4l1.6-.5c.1.2 1.4 5.3-.7 8.9-1 1.7-2.6 2.8-4.7 3.2-.6.1-1.1.1-1.6.1z"/></g><g><path class="st4" d="m589.5 68.2-1.5-1.8 8.5-4.4 1.5 1.8z"/></g><g><path class="st4" d="m587.4 82.8-.9-2L609.2 70l.8 2z"/></g><g><path transform="rotate(-4.843 778.843 395.28) scale(.99997)" class="st4" d="M778 377.4h1.7v35.7H778z"/></g><g><path class="st8" d="M894.7 316.2h-19.8c-4.2 0-7.6-3.4-7.6-7.6v-.1c0-4.2 3.4-7.6 7.6-7.6h19.8c4.2 0 7.6 3.4 7.6 7.6v.1c0 4.2-3.4 7.6-7.6 7.6z"/></g><g><circle class="st4" cx="605.7" cy="61.5" r="12"/></g><g><circle class="st4" cx="580.1" cy="73.5" r="10.3"/></g><g><path class="st8" d="M565.6 286.3s10.4-17.1 19.7 0L581 312s-5.6 8.5-10.9 0l-4.5-25.7z"/></g><g><path class="st2" d="M799.7 522.2H640c-12.3 0-22.3-10-22.3-22.3v-.3c0-12.3 10-22.3 22.3-22.3h159.8c12.3 0 22.3 10 22.3 22.3v.3c-.1 12.4-10.1 22.3-22.4 22.3z"/><path class="st4" d="M826.2 522.2H666.5c-12.3 0-22.3-10-22.3-22.3v-.3c0-12.3 10-22.3 22.3-22.3h159.8c12.3 0 22.3 10 22.3 22.3v.3c-.1 12.4-10.1 22.3-22.4 22.3z"/><path class="st8" d="M661.7 494.4h141v15.4h-141z"/><path class="st4" d="M681 434.1s2.6-64 14.5-70.9h78.6v70.9H681z"/><path class="st2" d="M874.1 522.2H714.3c-12.3 0-22.3-10-22.3-22.3v-.3c0-12.3 10-22.3 22.3-22.3h159.8c12.3 0 22.3 10 22.3 22.3v.3c0 12.4-10 22.3-22.3 22.3z"/><path class="st4" d="M895.5 522.2H735.7c-12.3 0-22.3-10-22.3-22.3v-.3c0-12.3 10-22.3 22.3-22.3h159.8c12.3 0 22.3 10 22.3 22.3v.3c-.1 12.4-10 22.3-22.3 22.3z"/><path class="st8" d="M736.1 494.4h141v15.4h-141z"/><circle class="st8" cx="892.5" cy="502.1" r="12"/><path class="st2" d="M722 469.2h154.7v8.5H722z"/><path class="st4" d="M683.5 457.3h56.4v11.1h-56.4z"/><path class="st4" d="M739.1 468.2h22.2V446h-11.7c-5.8 0-10.6 4.7-10.6 10.6v11.6zM832.3 425.6v-11.4l24.8.3v-15h39.3s8-2.1 5.3 26.1h-69.4zM810.5 417.2H822v8.5h-11.5z"/><path class="st12" d="M719.9 429.5s9-61.8 12.4-62.3 38.3 0 38.3 0v60.5l-24.2 8.8-14.1 5.9-12.4-12.9z"/><path class="st8" d="M681 457.3v-29.6l51.2 2.4v27.2z"/><path class="st8" d="M728.8 438.5h7.3l3.8-10.7H757s-.8-11.5 18-11.5c0 0 25.6-18.8 31.6 9.4v32.5l-74.4-.9-3.4-18.8z"/><g><path class="st25" d="M907.5 466.6c-1.6.3-3.5.5-5.8.4H761.3v-35c0-3.5 2.9-6.3 6.5-6.3H904v8.9c3.5 4.8 8 11.3 8.6 14.3.3 1.9 1.4 5 1.7 8.2.4 4-.7 8.2-6.8 9.5z"/></g><g><path class="st4" d="M680.4 428.6c-2 0-3.5-.6-4.6-1.8-1.9-2.2-1.4-5.4-1.4-5.6 0-.2 3.1-30.1 5.7-41.3 1-4.6 2.9-7.7 5.4-9.2 2.6-1.5 4.9-.9 5-.9l-.5 1.6c-.1 0-1.8-.5-3.7.7-2.1 1.3-3.7 4-4.6 8.1-2.5 11.2-5.6 40.9-5.7 41.2 0 .1-.4 2.7 1 4.2.8.9 2.1 1.3 3.8 1.2l.1 1.7c-.1.1-.3.1-.5.1z"/></g><path class="st12" d="M685.2 427.3s4.2-53.3 12.8-60.4h26.1s-13.3 46.6-10.7 60.8l-28.2-.4z"/><path class="st4" d="M907.5 468H761v-10h153.3c.4 4.3-.7 8.7-6.8 10z"/></g></g></svg>