<?xml version="1.0" encoding="utf-8"?>
<!-- Generator: Adobe Illustrator 24.3.0, SVG Export Plug-In . SVG Version: 6.00 Build 0)  -->
<svg version="1.1" id="Layer_1" xmlns="http://www.w3.org/2000/svg" xmlns:xlink="http://www.w3.org/1999/xlink" x="0px" y="0px"
	 viewBox="0 0 1000 1000" style="enable-background:new 0 0 1000 1000;" xml:space="preserve">
<style type="text/css">
	.st0{fill:#CFB5F6;}
	.st1{fill:#E3D4F9;}
	.st2{fill:#231F20;}
	.st3{fill:#FB4F4F;}
	.st4{fill:#4570AD;}
	.st5{fill:#FDFFF4;}
	.st6{fill:#FEAC02;}
	.st7{fill:#401600;}
	.st8{fill:#635646;}
	.st9{fill:#FFFFFF;}
	.st10{fill:#64564B;}
</style>
<g>
	<path class="st0" d="M208,782c-14,0-68-17-78.2-26.4C54.2,686.5-17.1,542.7,23.4,443.8C71.3,327,100.8,332,101,232.8
		S223.8-37.5,468.1,79.4s248.7,16.1,375.8,79.8s171.4,208.5,140.7,377.5c-30.7,169,58.6,310-236,317.4
		c-294.5,7.4-330.7-134.5-461.3-87.2C241.8,783.3,224,782,208,782z"/>
	<path class="st0" d="M223,761c-13.1,1.1-62.2-22.1-72-31C79.8,665.1,12.8,536.8,51,443.8c45-109.8,72.8-105.1,72.9-198.5
		C124,152,239.4-8.8,469.2,101.1s233.9,15.2,353.4,75s161.2,196.1,132.3,355s57.1,283-219.9,289.9s-313.1-126-435.9-81.5
		C256.3,755,240.1,759.6,223,761z"/>
	<path class="st1" d="M224,757c-18,0-68-15-78-24C74.4,668.6,12.8,536.8,51,443.8c45-109.8,72.8-105.1,72.9-198.5
		C124,152,239.4-8.8,469.2,101.1s233.9,15.2,353.4,75s161.2,196.1,132.3,355s57.1,283-219.9,289.9s-313.1-126-435.9-81.5
		C256.3,755,241.1,757,224,757z"/>
	<g>
		<g>
			<path class="st2" d="M809.9,210H783c0,0,0,0,0,0c-0.5,0-4.4,0.1-7.9,3.7c-3.7,3.8-5.3,9.8-5,18c0.8,17.1,0,190,0,194.4v0.1
				c0,2.2,1.8,4,4,4c0,0,0,0,0,0c2.2,0,4-1.8,4.1-4v-0.1c0-8.6,0.8-177.4,0-194.8c-0.5-9.9,2.7-13,4.8-13.3c0,0,0.1,0,0.1,0
				c0,0,0,0,0,0h26.8c2.2,0,4.1-1.8,4.1-4S812.2,210,809.9,210z"/>
		</g>
		<g>
			<g>
				<path class="st3" d="M814,444.9v21c0,2.2-1.8,4.1-4.1,4.1c-2.2,0-4.1-1.8-4.1-4.1v-21c0-5.9-4.4-10.7-9.9-10.7h-42
					c-5.5,0-9.9,4.8-9.9,10.7v21c0,2.2-1.8,4.1-4.1,4.1c-2.2,0-4.1-1.8-4.1-4.1v-21c0-10.4,8.1-18.8,18-18.8h42
					C805.9,426.1,814,434.6,814,444.9z"/>
			</g>
		</g>
		<path class="st2" d="M736,459h8.1v6.9c0,2.2-1.8,4.1-4.1,4.1c-2.2,0-4.1-1.8-4.1-4.1V459z"/>
		<path class="st2" d="M814,459v6.9c0,2.2-1.8,4.1-4.1,4.1c-2.2,0-4.1-1.8-4.1-4.1V459H814z"/>
		<path class="st3" d="M814,214c0,2.2-1.8,4-4.1,4h-26.8c0,0,0,0,0,0c0,0-0.1,0-0.1,0v-8c0,0,0,0,0,0h26.9
			C812.2,210,814,211.8,814,214z"/>
	</g>
	<g>
		<g>
			<g>
				<path class="st4" d="M822.2,553.7c-0.2,0-0.4,0-0.6-0.1c-1.2-0.3-1.9-1.5-1.6-2.7c0.3-1.2,7.5-28.3,10.4-35.7
					c2.8-7.2,11.1-7.3,15.1-6.4c1.2,0.3,1.9,1.5,1.6,2.6c-0.3,1.2-1.5,1.9-2.6,1.6c-0.3-0.1-7.9-1.7-10,3.7
					c-2.8,7.1-10.2,34.9-10.2,35.2C824.1,553,823.2,553.7,822.2,553.7z"/>
			</g>
		</g>
		<g>
			<g>
				<circle class="st2" cx="824.4" cy="678.1" r="79.6"/>
			</g>
			<g>
				<circle class="st5" cx="824.4" cy="678.1" r="68.6"/>
			</g>
			<g>
				<circle class="st2" cx="824.4" cy="678.1" r="11"/>
			</g>
			<g>
				<rect x="755.9" y="675.9" class="st2" width="58.9" height="2.6"/>
			</g>
			<g>
				<rect x="834.5" y="675.9" class="st2" width="58.9" height="2.6"/>
			</g>
			<g>
				<rect x="823.1" y="688.2" class="st2" width="2.6" height="58.9"/>
			</g>
			<g>
				<rect x="822.2" y="609.1" class="st2" width="2.6" height="58.9"/>
			</g>
			<g>
				
					<rect x="814.2" y="641.9" transform="matrix(0.4958 -0.8685 0.8685 0.4958 -133.4443 1056.653)" class="st2" width="58" height="2.6"/>
			</g>
			<g>
				<polygon class="st2" points="834,674 832.6,671.6 883.2,641.6 884.7,644 				"/>
			</g>
			<g>
				
					<rect x="803.5" y="614.7" transform="matrix(0.8516 -0.5242 0.5242 0.8516 -217.9962 517.434)" class="st2" width="2.6" height="58"/>
			</g>
			<g>
				
					<rect x="788.8" y="629" transform="matrix(0.5027 -0.8644 0.8644 0.5027 -175.5802 1009.9845)" class="st2" width="2.6" height="57.1"/>
			</g>
			<g>
				
					<rect x="857.5" y="667.2" transform="matrix(0.4822 -0.876 0.876 0.4822 -165.651 1113.1199)" class="st2" width="2.6" height="58.9"/>
			</g>
			<g>
				<polygon class="st2" points="858.6,738.3 828.8,686.7 831.2,685.3 860.9,737 				"/>
			</g>
			<g>
				
					<rect x="775" y="710.4" transform="matrix(0.4887 -0.8725 0.8725 0.4887 -209.5964 1065.8282)" class="st2" width="59" height="2.6"/>
			</g>
			<g>
				<polygon class="st2" points="763.8,714.6 762.5,712.2 815.1,681.3 816.5,683.8 				"/>
			</g>
			<g>
				<circle class="st5" cx="824.4" cy="678.1" r="4.4"/>
			</g>
		</g>
		<path class="st3" d="M813.4,551.5h-87.9l0,0c0-3.2,2.6-5.7,5.7-5.7h76.5C810.9,545.8,813.4,548.3,813.4,551.5L813.4,551.5z"/>
		<path class="st6" d="M725.5,552.6h98.9l0.4,43.5c0,0-42.6-1.6-66.4,32.7H705l6.1-45.7v-17.6C711,565.6,713.7,552.9,725.5,552.6z"
			/>
		<path class="st5" d="M819.2,584H714.5v-14.3c0-7.2,5.8-13,13-13h91.6V584z"/>
		<g>
			<g>
				<polygon class="st6" points="700.2,700.7 695.8,700.7 695.8,677.9 704.8,628.5 709.2,629.3 700.2,678.3 				"/>
			</g>
		</g>
		<g>
			<g>
				<rect x="698" y="675" class="st6" width="46.9" height="6.2"/>
			</g>
		</g>
		<g>
			<g>
				<path class="st6" d="M633.9,743.2l-4-1.8l42.2-92.2c5.4-15.3,15.2-14.8,16.9-14.6h16v4.4l-16.5,0c-0.3,0-7.7-1-12.3,11.8
					l-0.1,0.2L633.9,743.2z"/>
			</g>
		</g>
		<polygon class="st4" points="602,722.1 631.9,735.4 628.4,744 598.5,730 		"/>
		<g>
			
				<rect x="628.8" y="742.3" transform="matrix(0.4682 -0.8836 0.8836 0.4682 -322.6166 952.8994)" class="st6" width="3" height="4.4"/>
		</g>
		<circle class="st2" cx="697.4" cy="728.6" r="28.6"/>
		<g>
			<path class="st5" d="M697.4,749.3c-11.4,0-20.7-9.3-20.7-20.7S686,708,697.4,708s20.7,9.3,20.7,20.7S708.8,749.3,697.4,749.3z
				 M697.4,709.7c-10.4,0-18.9,8.5-18.9,18.9c0,10.4,8.5,18.9,18.9,18.9c10.4,0,18.9-8.5,18.9-18.9
				C716.3,718.2,707.8,709.7,697.4,709.7z"/>
		</g>
		<path class="st2" d="M863.6,518.5h-14.1c-2.4,0-4.4-2-4.4-4.4v-4.5c0-2.4,2-4.4,4.4-4.4h14.1c2.4,0,4.4,2,4.4,4.4v4.5
			C868,516.6,866,518.5,863.6,518.5z"/>
		<path class="st5" d="M699.6,726.4c0,0,6-12.2,10.7-8.8C716.3,722.1,699.6,728.2,699.6,726.4z"/>
		<path class="st5" d="M696.8,725c0,0-6.1-12.2-0.5-13.8C703.4,709.1,698.2,726.1,696.8,725z"/>
		<path class="st5" d="M700.9,729.7c0,0,13.3-2.9,13.5,2.9C714.8,740.1,699.6,730.8,700.9,729.7z"/>
		<path class="st5" d="M698.7,731.5c0,0,9.8,9.5,5.1,12.9C697.8,748.8,697,731,698.7,731.5z"/>
		<path class="st5" d="M695.2,725.6c0,0-6-12.2-10.7-8.8C678.5,721.2,695.2,727.3,695.2,725.6z"/>
		<path class="st5" d="M693.9,728.8c0,0-13.3-2.9-13.5,2.9C680.1,739.2,695.3,729.9,693.9,728.8z"/>
		<path class="st5" d="M695.7,731.2c0,0-11.4,7.4-7.5,11.6C693.3,748.3,697.4,731,695.7,731.2z"/>
	</g>
	<g>
		<rect x="484.3" y="615" class="st4" width="63" height="6.4"/>
		<polygon class="st4" points="556.4,693.6 545.5,693.6 539.1,536.5 550,536.5 		"/>
		<polygon class="st4" points="473.3,693.6 484.3,693.6 490.6,536.5 479.7,536.5 		"/>
		<polygon class="st3" points="541.8,705.4 545.5,693.6 556.4,693.6 559,705.4 		"/>
		<polygon class="st3" points="473.3,693.6 470.2,705.4 487,705.4 484.3,693.6 		"/>
		<path class="st4" d="M479.7,536.5c0,0,0.9-18.3,19.2-21.9c12.7-2.5,22.8-2,27.7-1.4c2.5,0.3,5,1,7.3,2.1c5.5,2.7,14.9,9,16.1,21.2
			h-11c0,0-5.5-13.7-23.4-13c-1.3,0.1-2.6,0.1-3.9,0c-4.9-0.4-19.2,1.1-21,13H479.7z"/>
		<polygon class="st4" points="506.4,587 540.3,567.8 540.7,577.4 506.4,597.9 		"/>
		<polygon class="st4" points="540.7,593.3 541.8,603.8 507.9,624.7 507.5,615 		"/>
		<g>
			<rect x="439.5" y="634.2" class="st4" width="63" height="6.4"/>
			<polygon class="st4" points="428.5,716.4 439.5,716.4 445.9,559.3 434.9,559.3 			"/>
			<polygon class="st3" points="497,728.3 500.7,716.4 511.7,716.4 514.2,728.3 			"/>
			<polygon class="st3" points="428.5,716.4 425.4,728.3 442.2,728.3 439.5,716.4 			"/>
			<path class="st4" d="M434.9,559.3c0,0,0.9-18.3,19.2-21.9c12.7-2.5,22.8-2,27.7-1.4c2.5,0.3,5,1,7.3,2.1
				c5.5,2.7,14.9,9,16.1,21.2h-11c0,0-5.5-13.7-23.4-13c-1.3,0.1-2.6,0.1-3.9,0c-4.9-0.4-19.2,1.1-21,13H434.9z"/>
			<polygon class="st4" points="511.7,716.4 500.7,716.4 494.3,559.3 505.3,559.3 			"/>
		</g>
	</g>
	<g>
		<g>
			<g>
				<path class="st3" d="M202.1,619.1c0,0,7.2-30.6,89.5-30.6c0,0,27.4,5.4,27.4,18.9c0,0-37.3-15-73.9,6.7c-5.3,3.1-11,4.9-17,4.9
					L202.1,619.1z"/>
			</g>
		</g>
		<g>
			<path class="st2" d="M266.9,722.6c-0.1,0-0.2,0-0.3,0c-35.4-3.3-51.5-40-52.2-41.6l-0.1-0.3l-0.1-0.3c-5.1-33.2,7-49.6,18-57.4
				c17.8-12.7,42.7-9.4,56.8,7.5c16.7,20.1,2.3,42.4,2.1,42.6l-0.2,0.2l-0.2,0.2c-10.7,10.4-20.7,14.6-29.8,12.6
				c-13.4-3-19.3-18.5-19.6-19.1c-0.5-1.4,0.2-3,1.6-3.5c1.4-0.5,2.9,0.2,3.5,1.6c0.1,0.2,5.2,13.4,15.7,15.8
				c7.2,1.6,15.5-2.1,24.6-11c1.4-2.3,11.5-19.8-1.9-36c-12.3-14.8-34-17.7-49.5-6.6c-14.1,10.1-19.5,27.6-15.8,51.9
				c1.6,3.4,17,35.2,47.6,38c1.5,0.1,2.6,1.5,2.4,2.9C269.5,721.5,268.3,722.6,266.9,722.6z"/>
		</g>
		<g>
			<path class="st2" d="M242.2,729.3c-44,0-82.9-17.4-85-18.4c-2.7-1.2-3.9-4.4-2.7-7.2c1.2-2.7,4.4-3.9,7.2-2.7l0,0
				c0.7,0.3,65.9,29.5,120.1,11.5c42.1-14,61-39.5,51.9-70.1c-4.3-14.4-16.1-25.3-30.9-28.3c-20.8-4.3-42.6-1-64.9,9.9
				c-18.9,9.3-40.5,6.4-64.1-8.4c-13-8.2-23.2-20.9-28.5-35.8L107.4,474c-1-2.8,0.5-5.9,3.3-6.9c2.8-1,5.9,0.5,6.9,3.3l37.8,105.8
				c4.5,12.6,13,23.4,24.1,30.3c20.5,12.9,38,15.4,53.6,7.8c24.4-11.9,48.6-15.5,71.8-10.7c18.7,3.9,33.6,17.6,39.1,35.8
				c10.8,36.4-11.2,67.6-58.8,83.4C270.9,727.5,256.3,729.3,242.2,729.3z"/>
		</g>
		<g>
			<path class="st2" d="M198.9,716.5c-6.2,0-11.2-1.1-11.7-1.2c-1.5-0.3-2.4-1.8-2.1-3.2c0.3-1.5,1.8-2.4,3.2-2.1
				c0.4,0.1,26,5.5,29.9-9.2c1.6-6.1-1.1-12.8-6.7-16.5c-5.1-3.4-9.4-3.8-13.1-1.1c-2.2,1.6-3.8,4-4.2,6.8c-0.4,2.7,0.2,5.4,1.9,7.5
				c1.1,1.4,3.8,2.6,6.3,2.2c2-0.3,3.4-1.7,4.2-4c0.5-1.4,2-2.2,3.4-1.7c1.4,0.5,2.2,2,1.7,3.4c-1.5,4.2-4.5,6.9-8.5,7.6
				c-4.2,0.7-9-1.1-11.4-4.2c-2.5-3.3-3.6-7.4-2.9-11.6c0.7-4.2,3-8,6.4-10.4c5.6-3.9,12.3-3.5,19.2,1.1c7.5,5,11.1,14,8.9,22.4
				C220.3,714.1,208.2,716.5,198.9,716.5z"/>
		</g>
		<g>
			<g>
				<path class="st3" d="M114.4,466.6c0,0,31-4.9,61,93.1c0,0,6,34.2-2.7,45.5c0,0-21.9-26.5-31.6-69.3L114.4,466.6z"/>
			</g>
		</g>
		<g>
			<path class="st2" d="M336.7,624.3c-2.3,0-3.9-0.3-4.1-0.3c-1.5-0.2-2.5-1.6-2.2-3.1c0.2-1.5,1.6-2.5,3.1-2.2
				c2,0.3,8,0.6,11.4-1.9c1.5-1.1,2.4-2.7,2.6-4.8c0.4-3.5-1.1-7-4-9.2c-1.6-1.2-5.1-1.7-7.6-0.5c-2,1-3,2.8-3,5.5
				c0,0.7,0.3,2.9,1.5,3.9c0.2,0.2,0.9,0.8,2.7,0.6c1.5-0.2,2.8,0.9,3,2.3c0.2,1.5-0.9,2.8-2.3,3c-3.5,0.4-5.7-0.8-6.9-1.9
				c-3.2-2.8-3.3-7.5-3.3-8c0-4.8,2.1-8.5,6-10.4c4.1-2,9.8-1.6,13.2,1c4.4,3.3,6.7,8.8,6,14.1c-0.4,3.6-2,6.5-4.8,8.5
				C344.6,623.8,340,624.3,336.7,624.3z"/>
		</g>
		<g>
			<path class="st2" d="M323.1,614.2c-1.2,0-2.3-0.8-2.6-2c0-0.2-4.6-15.8-11.7-31.3c-1.3-2.7-2.2-5.3-3.1-7.8
				c-4.3-11.8-7.5-20.3-38.7-25.9c-38-6.8-110.9,22.4-111.6,22.7c-1.4,0.6-3-0.1-3.5-1.5c-0.6-1.4,0.1-3,1.5-3.5
				c3-1.2,75-30.1,114.6-23c34.2,6.1,38.2,16.9,42.8,29.3c0.9,2.4,1.8,4.9,3,7.4c7.3,15.8,12,31.9,12,32.1c0.4,1.4-0.4,2.9-1.8,3.3
				C323.6,614.1,323.4,614.2,323.1,614.2z"/>
		</g>
	</g>
	<g>
		
			<rect x="177.8" y="321.8" transform="matrix(0.5451 0.8384 -0.8384 0.5451 388.7994 -62.8917)" class="st7" width="149.1" height="10.2"/>
		<g>
			<g>
				<g>
					<path class="st4" d="M208.3,394.2c-1.6,0-2.9-1.3-2.9-2.9v-174l0.1-0.4l34.3-120.4h52.3c1.6,0,2.9,1.3,2.9,2.9
						s-1.3,2.9-2.9,2.9h-47.9l-32.9,115.8v173.1C211.2,392.9,209.9,394.2,208.3,394.2z"/>
				</g>
			</g>
		</g>
		<g>
			<g>
				<path class="st4" d="M280,149c-1.6,0-2.9-1.3-2.9-2.9v-42c0-1.6,1.3-2.9,2.9-2.9c1.6,0,2.9,1.3,2.9,2.9v42
					C282.9,147.7,281.6,149,280,149z"/>
			</g>
		</g>
		<path class="st6" d="M675.2,391.7H292.5v-58.4h364.1c10.3,0,18.6,8.3,18.6,18.6V391.7z"/>
		<path class="st6" d="M284.3,370.2l-67.9-104.4c-3.1-4.8-1.7-11.1,3-14.2l7.4-4.8c4.8-3.1,11.1-1.7,14.2,3L309,354.2
			c3.1,4.8,1.7,11.1-3,14.2l-7.4,4.8C293.8,376.3,287.4,374.9,284.3,370.2z"/>
		<rect x="202" y="283.7" class="st4" width="472" height="18.3"/>
		<rect x="202" y="352.1" class="st4" width="479.5" height="17.5"/>
		<rect x="202" y="375.4" class="st3" width="479.5" height="13.3"/>
		<rect x="202" y="325.6" class="st4" width="472" height="17.5"/>
		<rect x="202" y="392.3" class="st2" width="472" height="26.7"/>
		<g>
			<g>
				<path class="st6" d="M350.5,445.2c-2,0-4-0.7-5.8-2.1c-14.4-11.2-17.1-65.3-17.2-67.6l2.5-0.1c0,0.6,2.7,55.3,16.2,65.8
					c1.8,1.4,3.6,1.9,5.6,1.4l0.2,0l0.2,0c0.1,0,2.9,0.1,5.9-2.7c2.9-2.7,6.3-8.7,6.5-21.9l2.5,0c-0.2,11.4-2.7,19.4-7.4,23.8
					c-3.3,3.1-6.6,3.3-7.5,3.3c0,0,0,0,0,0C351.6,445.2,351.1,445.2,350.5,445.2z"/>
			</g>
		</g>
		<g>
			<rect x="325.3" y="350" class="st8" width="13.3" height="37.3"/>
			<rect x="325.3" y="353.3" class="st9" width="13.3" height="30.7"/>
			<rect x="327.8" y="355.8" class="st8" width="2.5" height="2.5"/>
			<rect x="333.6" y="355.8" class="st8" width="2.5" height="2.5"/>
			<rect x="327.8" y="361.6" class="st8" width="2.5" height="2.5"/>
			<rect x="333.6" y="361.6" class="st8" width="2.5" height="2.5"/>
			<rect x="327.8" y="367.4" class="st8" width="2.5" height="2.5"/>
			<rect x="333.6" y="367.4" class="st8" width="2.5" height="2.5"/>
			<rect x="327.8" y="373.2" class="st8" width="2.5" height="2.5"/>
			<rect x="333.6" y="373.2" class="st8" width="2.5" height="2.5"/>
			<rect x="327.8" y="379" class="st8" width="2.5" height="2.5"/>
			<rect x="333.6" y="379" class="st8" width="2.5" height="2.5"/>
		</g>
		<g>
			<path class="st2" d="M347.5,353.2c0-0.2-0.9-4.1,1.4-7c1.5-1.9,3.9-2.8,7-2.8h25c2,0,3.9,0.5,5.5,1.5c1.8,1.2,4.1,3.5,4.3,7.9
				l-2.5,0.1c-0.1-2.7-1.2-4.7-3.2-6c-1.2-0.8-2.6-1.1-4.1-1.1h-25c-2.4,0-4.1,0.6-5.1,1.8c-1.6,1.9-0.9,4.9-0.9,4.9L347.5,353.2z"
				/>
		</g>
		<g>
			<path class="st2" d="M558,352.4c0-0.2-0.9-4.1,1.4-7c1.5-1.9,3.9-2.8,7-2.8h25c2,0,3.9,0.5,5.5,1.5c1.8,1.2,4.1,3.5,4.3,7.9
				l-2.5,0.1c-0.1-2.7-1.2-4.7-3.2-6c-1.2-0.8-2.6-1.1-4.1-1.1h-25c-2.4,0-4.1,0.6-5.1,1.8c-1.6,1.9-0.9,4.9-0.9,4.9L558,352.4z"/>
		</g>
		<g>
			
				<rect x="674" y="238.7" transform="matrix(-1 -4.497437e-11 4.497437e-11 -1 1362.1519 684.1552)" class="st3" width="14.2" height="206.8"/>
			
				<rect x="670.7" y="227" transform="matrix(-1 -4.484869e-11 4.484869e-11 -1 1362.1519 465.6787)" class="st2" width="20.8" height="11.7"/>
			
				<rect x="678.2" y="445.5" transform="matrix(-1 -4.449964e-11 4.449964e-11 -1 1364.6536 902.6317)" class="st10" width="8.3" height="11.7"/>
			<g>
				<circle class="st10" cx="686.5" cy="467.2" r="10.8"/>
				<circle class="st3" cx="686.5" cy="467.2" r="4.9"/>
			</g>
			<path class="st6" d="M700.7,465.5H674c0,0,0.8-10,13.3-9.2C699.8,457.2,700.7,465.5,700.7,465.5z"/>
		</g>
		<g>
			<rect x="187.8" y="237" class="st3" width="14.2" height="206.8"/>
			<rect x="184.5" y="225.3" class="st2" width="20.8" height="11.7"/>
			<rect x="189.5" y="443.8" class="st10" width="8.3" height="11.7"/>
			<g>
				<circle class="st2" cx="189.5" cy="465.5" r="10.8"/>
				<circle class="st3" cx="189.5" cy="465.5" r="4.9"/>
			</g>
			<path class="st6" d="M175.3,463.8H202c0,0-0.8-10-13.3-9.2C176.2,455.5,175.3,463.8,175.3,463.8z"/>
		</g>
		<g>
			<g>
				<path class="st6" d="M298.6,176.1h-35.3c-1,0-1.9-0.5-2.4-1.3s-0.7-1.8-0.3-2.7l13.1-32.9c0.6-1.5,2.3-2.2,3.8-1.6
					c1.5,0.6,2.2,2.3,1.6,3.8l-11.5,28.9h26.5l-12.7-28.8c-0.7-1.5,0-3.2,1.5-3.8c1.5-0.7,3.2,0,3.8,1.5l14.5,32.9
					c0.4,0.9,0.3,1.9-0.2,2.8C300.5,175.6,299.6,176.1,298.6,176.1z"/>
			</g>
		</g>
	</g>
</g>
</svg>
