<svg version="1.1" id="Layer_1" xmlns="http://www.w3.org/2000/svg" x="0" y="0" viewBox="0 0 928.66 586.09" style="enable-background:new 0 0 928.66 586.09" xml:space="preserve"><style>.st3{fill:#3d3d3d}.st4{fill:#fff}.st5{fill:#ff4d53}.st6{fill:#cbd7cd}.st7{fill:#e6e7e8}.st8{fill:#f1f2f2}.st9{fill:#00ba8e}.st10{fill:#da7e71}.st11{fill:#633c3d}.st12{fill:#e19f89}.st13{fill:#eabaad}.st15{fill:#7242ce}.st16{fill:#808285}.st17{opacity:.57;fill:#fff}.st19{opacity:.33;fill:#606060}</style><path d="M753.83 118.53H538.92c-1.47 0-2.94.02-4.4.06C481.12 46.64 395.54 0 299.05 0 137.21 0 6.01 131.2 6.01 293.04c0 51.46 13.26 99.83 36.57 141.86 25.27 45.61 62.35 83.76 107.12 110.33 43.74 25.96 94.8 40.86 149.35 40.86 101.09 0 190.23-51.19 242.9-129.07h211.87c93.47 0 169.24-75.77 169.24-169.24.01-93.47-75.76-169.25-169.23-169.25z" style="fill:#e8def9"/><path d="M748.34 129.59H543.35c-1.4 0-2.8.02-4.2.05-50.93-67.4-132.56-111.08-224.59-111.08-154.37 0-279.51 122.89-279.51 274.48 0 48.2 12.65 93.51 34.88 132.88 24.1 42.72 59.47 78.46 102.17 103.34 41.72 24.32 90.42 38.27 142.45 38.27 96.43 0 181.45-47.95 231.69-120.9h202.09c89.15 0 161.43-70.97 161.43-158.52.01-87.55-72.26-158.52-161.42-158.52z" style="fill:#cfb5f6"/><path d="M862.19 384.31H79.39c-9.17 0-16.6-7.43-16.6-16.6 0-9.17 7.43-16.6 16.6-16.6h782.8c9.17 0 16.6 7.43 16.6 16.6 0 9.17-7.43 16.6-16.6 16.6z" style="opacity:.16;fill:#231f20"/><path class="st3" d="M322.36 263.39h8.83v107.26h-8.83zM471.49 263.39h8.83v107.26h-8.83z"/><path class="st4" d="M316.28 229.32h174.14l7.57 54.55H308.71z"/><path class="st3" d="m287.25 298.09-8.2 72.56h4.1l14.2-77.61zM349.72 298.09c-.63 0 6.31 72.56 6.31 72.56h5.68l-3.15-77.61-8.84 5.05z"/><path class="st5" d="M274 183.89s10.1-8.2 11.99 0c1.89 8.2 13.25 82.02 11.36 94.64h64.36s7.57 12.62 0 19.56h-80.13L274 183.89z"/><path class="st3" d="m521.54 298.09 8.21 72.56h-4.1l-14.2-77.61zM459.08 298.09c.63 0-6.31 72.56-6.31 72.56h-5.68l3.15-77.61 8.84 5.05z"/><path class="st5" d="M534.79 183.89s-10.1-8.2-11.99 0c-1.89 8.2-13.25 82.02-11.36 94.64h-64.36s-7.57 12.62 0 19.56h80.13l7.58-114.2z"/><path class="st3" d="M646.36 267.42h8.83v107.26h-8.83zM795.49 267.42h8.83v107.26h-8.83z"/><path class="st4" d="M640.28 233.35h174.14l7.57 54.55H632.71z"/><g><path class="st3" d="m611.25 302.12-8.2 72.56h4.1l14.2-77.61zM673.72 302.12c-.63 0 6.31 72.56 6.31 72.56h5.68l-3.15-77.61-8.84 5.05z"/><path class="st5" d="M598 187.92s10.1-8.2 11.99 0c1.89 8.2 13.25 82.02 11.36 94.64h64.36s7.57 12.62 0 19.56h-80.13L598 187.92z"/></g><g><path class="st3" d="m845.54 302.12 8.21 72.56h-4.1l-14.2-77.61zM783.08 302.12c.63 0-6.31 72.56-6.31 72.56h-5.68l3.15-77.61 8.84 5.05z"/><path class="st5" d="M858.79 187.92s-10.1-8.2-11.99 0c-1.89 8.2-13.25 82.02-11.36 94.64h-64.36s-7.57 12.62 0 19.56h80.13l7.58-114.2z"/></g><g><path class="st6" d="M380.53 207.44h12.61l-1.37 21.88h-9.39z"/><path class="st4" d="M392.62 229.82h-11.4l-2.15-22.88h15.15l-1.6 22.88zm-10.49-1h9.56l1.46-20.88h-12.98l1.96 20.88z"/></g><g><path class="st6" d="M418.43 207.44h12.61l-1.37 21.88h-9.39z"/><path class="st4" d="M430.7 229.82h-11.4l-2.15-22.88h15.15l-1.6 22.88zm-10.49-1h9.56l1.46-20.88h-12.98l1.96 20.88z"/></g><g><path class="st7" d="M326.78 219.94h48.56v3.13h-48.56z"/><path class="st8" d="M361.44 229.32h-21.31c-3.45 0-6.25-2.8-6.25-6.25h33.82c-.01 3.45-2.81 6.25-6.26 6.25z"/></g><g><path class="st7" d="M431.76 219.94h48.56v3.13h-48.56z"/><path class="st8" d="M466.43 229.32h-21.31c-3.45 0-6.25-2.8-6.25-6.25h33.82c-.01 3.45-2.81 6.25-6.26 6.25z"/></g><path class="st4" d="M350.78 215.7s5.34-8.25-1.11-15.29c-6.44-7.03-5.79-12.4 0-16.14 0 0-4.44 3.91-.7 9.41 3.74 5.51 13.65 17.77 1.81 22.02zM457.64 215.7s5.34-8.25-1.11-15.29c-6.44-7.03-5.79-12.4 0-16.14 0 0-4.44 3.91-.7 9.41 3.73 5.51 13.64 17.77 1.81 22.02z"/><g><path class="st9" d="M405.66 178.17h1v34.4h-1z"/><path class="st9" d="M405.76 206.94s-3.36-9.51 5.96-19.14c0 0 3.51 13.98-5.96 19.14z"/><path class="st9" d="M405.65 206.41s-6.57-4.74-6.21-14.9c0 0 8.87 7.56 6.21 14.9z"/><path class="st10" d="M405.66 178.17s-3.43 2.98-8.01-1.15c0 0 2.96-3.44 8.01 1.15zM406.16 178.17s3.43 2.98 8.01-1.15c.01 0-2.95-3.44-8.01 1.15z"/><path class="st10" d="M405.19 177.77s4.23 1.64 7.15-3.79c-.01 0-3.95-2.24-7.15 3.79z"/><path class="st10" d="M406.36 177.77s-4.23 1.64-7.15-3.79c0 0 3.95-2.24 7.15 3.79z"/><path class="st10" d="M406.74 178.32s-4.34-1.34-3.25-7.41c0 0 4.48.7 3.25 7.41z"/><path class="st10" d="M405.31 178.4s-2.25-3.94 2.7-7.63c0 0 2.79 3.58-2.7 7.63z"/></g><path class="st11" d="M399.79 205.3h11.93l-1.53 24.02h-8.87z"/><g><path class="st9" d="M722.06 181.48h1v34.4h-1z"/><path class="st9" d="M722.15 210.26s-3.36-9.51 5.96-19.14c0-.01 3.52 13.98-5.96 19.14z"/><path class="st9" d="M722.05 209.72s-6.57-4.74-6.21-14.9c0 0 8.87 7.57 6.21 14.9z"/><path class="st10" d="M722.06 181.48s-3.42 2.98-8.01-1.15c0 .01 2.95-3.43 8.01 1.15zM722.56 181.48s3.43 2.98 8.01-1.15c0 .01-2.95-3.43-8.01 1.15z"/><path class="st10" d="M721.58 181.09s4.23 1.64 7.15-3.79c0 0-3.94-2.24-7.15 3.79z"/><path class="st10" d="M722.76 181.09s-4.23 1.64-7.15-3.79c0 0 3.94-2.24 7.15 3.79z"/><path class="st10" d="M723.14 181.64s-4.34-1.34-3.25-7.41c0 0 4.47.69 3.25 7.41z"/><path class="st10" d="M721.71 181.72s-2.25-3.94 2.7-7.63c0 0 2.79 3.57-2.7 7.63z"/></g><path class="st11" d="M716.19 208.62h11.92l-1.52 24.01h-8.87z"/><g><path class="st12" d="M216.55 475.2s-16.06 47.2-65.51 64.39l-1.34 5.64c-44.77-26.57-81.85-64.72-107.12-110.33-3.05-33.54-4.52-77.13 5.36-96.63 0 0 3.44-27.48 11-37.93 1.08-1.49 2.16-3.48 3.2-5.81h.01c6.24-13.78 11.73-39.23 11.92-40.15l.01-.03s0-.01.01 0c.45-.24 11.42-5.68 21.08 8.25 0 0 3.17 30.5 0 48.63-1.09 6.28-2.95 11.07-5.96 12.6 0 0 5.96 39.89 5.96 75.89 0 4.84 2.2 9.75 6 14.62 12.42 15.88 41.97 31.33 68.05 42.68 25.3 11.01 47.33 18.18 47.33 18.18z"/><path class="st13" d="M74.08 254.34s8.84 9.04 0 27.75c0 0-2.09 6.44-10.27 6.82l10.27-34.57z"/><path d="M249.13 475.2H105.4c-5.65 0-10.23-4.58-10.23-10.23V135.71c0-5.65 4.58-10.23 10.23-10.23h143.72c5.65 0 10.23 4.58 10.23 10.23v329.27c0 5.64-4.57 10.22-10.22 10.22z" style="fill:#231f20"/><path class="st4" d="M241.77 457.02H111.4c-5.65 0-10.23-4.58-10.23-10.23V151.34c0-5.65 4.58-10.23 10.23-10.23h130.37c5.65 0 10.23 4.58 10.23 10.23v295.45c0 5.65-4.58 10.23-10.23 10.23z"/><path class="st15" d="M252 168.82H101.18v-18.57c0-5.04 4.09-9.13 9.13-9.13h132.31c5.18 0 9.37 4.2 9.37 9.37v18.33z"/><path class="st16" d="M145.62 202.98h63.29l2.75 12.38h-68.79zM147.83 215.36h3.21v38.98h-3.21zM202.03 215.36h3.21v38.98h-3.21zM135.07 227.98l-2.98 26.37h1.49l5.16-28.21zM157.77 227.98c-.23 0 2.29 26.37 2.29 26.37h2.06l-1.15-28.2-3.2 1.83z"/><path class="st16" d="M130.26 186.47s3.67-2.98 4.36 0 4.82 29.81 4.13 34.39h23.39s2.75 4.59 0 7.11h-29.12l-2.76-41.5zM220.22 227.98l2.98 26.37h-1.49l-5.16-28.21zM197.52 227.98c.23 0-2.29 26.37-2.29 26.37h-2.06l1.15-28.2 3.2 1.83z"/><path class="st16" d="M225.04 186.47s-3.67-2.98-4.36 0-4.82 29.81-4.13 34.39h-23.39s-2.75 4.59 0 7.11h29.12l2.76-41.5z"/><path class="st17" d="M116.27 151.39h45.86v6.65h-45.86zM171.07 151.39h67.18v6.65h-67.18z"/><path class="st15" d="M122.69 272h111.44v2.75H122.69zM122.69 280.72h88.97v2.75h-88.97z"/><path style="opacity:.35;fill:#8868bc" d="M101.18 302.5H252v97.22H101.18z"/><path class="st15" d="M156.32 320.54h24.46v17.73h-24.46z"/><path class="st19" d="M177.88 373.73h-18.65c-1.6 0-2.9-1.3-2.9-2.9v-3.06c0-1.6 1.3-2.9 2.9-2.9h18.65c1.6 0 2.9 1.3 2.9 2.9v3.06c0 1.6-1.3 2.9-2.9 2.9z"/><path class="st5" d="M214.01 441.91h-72.73c-3.24 0-5.87-2.63-5.87-5.87v-14.56c0-3.24 2.63-5.87 5.87-5.87h72.73c3.24 0 5.87 2.63 5.87 5.87v14.56c0 3.25-2.63 5.87-5.87 5.87z"/><path class="st19" d="M206.86 373.73h-18.65c-1.6 0-2.9-1.3-2.9-2.9v-3.06c0-1.6 1.3-2.9 2.9-2.9h18.65c1.6 0 2.9 1.3 2.9 2.9v3.06c0 1.6-1.3 2.9-2.9 2.9z"/><path class="st15" d="M234.36 373.73h-18.65c-1.6 0-2.9-1.3-2.9-2.9v-3.06c0-1.6 1.3-2.9 2.9-2.9h18.65c1.6 0 2.9 1.3 2.9 2.9v3.06c0 1.6-1.3 2.9-2.9 2.9z"/><path class="st19" d="M185.3 320.54h24.46v17.73H185.3zM212.81 320.54h24.46v17.73h-24.46z"/><g><path class="st15" d="M116.69 318.51v24.23h26.68v-24.23h-26.68zm25.68 23.23h-24.68v-22.23h24.68v22.23z"/><path class="st15" d="M117.19 319.01h25.68v4.59h-25.68zM126.25 326.23h3.17v3.17h-3.17zM121.11 330.63h3.17v3.17h-3.17zM126.25 330.66h3.17v3.17h-3.17zM131.39 330.63h3.17v3.17h-3.17zM131.29 335.1h3.17v3.17h-3.17zM136.53 330.63h3.17v3.17h-3.17zM121.11 335.1h3.17v3.17h-3.17zM126.25 335.1h3.17v3.17h-3.17zM131.29 326.23h3.17v3.17h-3.17zM136.33 326.23h3.17v3.17h-3.17z"/><g><path class="st15" d="M121.5 316.94h1V319h-1z"/></g><g><path class="st15" d="M125.75 316.94h1V319h-1z"/></g><g><path class="st15" d="M133.96 316.49h1v2.06h-1z"/></g><g><path class="st15" d="M137.61 316.49h1v2.06h-1z"/></g></g><path style="fill:none;stroke:#fff;stroke-width:3;stroke-linecap:round;stroke-miterlimit:10" d="m168.55 426.24 8.04 7.95 11.53-11.62"/><g><path class="st15" d="M130.68 355.9c-7.72 0-13.99 6.28-13.99 14 0 7.71 6.27 13.99 13.99 13.99 7.72 0 13.99-6.28 13.99-13.99 0-7.72-6.27-14-13.99-14zm0 25.99c-6.61 0-11.99-5.38-11.99-11.99 0-6.62 5.38-12 11.99-12s11.99 5.38 11.99 12c0 6.61-5.38 11.99-11.99 11.99z"/><path class="st15" d="M130.68 372.29c-.14 0-.28-.03-.41-.09a.998.998 0 0 1-.59-.91v-8.56c0-.55.45-1 1-1s1 .45 1 1v6.31l3.07-2.77a.997.997 0 1 1 1.34 1.48l-4.74 4.28a.99.99 0 0 1-.67.26z"/></g><g><path class="st12" d="m285.95 383.88-2.75 3.13-.01.01h-.01l-.01.02c-.01 0-.01.01-.01.01l-4.09 4.64s7.57 12.77.69 23.92c0 0-2.25 3.38-7.77 5.52-1.84.71-4.04 1.29-6.65 1.55-4.8.49-9.42-2.13-11.39-6.54-2.64-5.92-5.26-15.27-1.96-25.14 0 0-7.32-14.99 3.68-29.28 0 0-14.68-14.69-3.69-26.62l.01-.01 8.63-8.86-1.28-2.64s23.85-3.06 27.98 11.06c0 0 5.5 10.9-4.13 21.25.01 0 13.08 14.67 2.76 27.98z"/><path d="M283.18 387.02h.01c-.01 0-.02.01-.02.02-.01 0-.01.01-.01.01-.82.62-13.66 10.33-25.64 9 0 0-8.26 16.52 0 21.55 4.97 3.04 10.7 3.58 14.47 3.53-3.46 1.34-8.2 2.19-14.47 1.43 0 0-11.05-15.05-5.52-31.56 0 0-7.32-14.99 3.68-29.28 0 0-14.24-14.25-4.17-26.08-.34 7.69.09 20.02 6.01 22.26 8.71 3.29 25.68-2 25.68-2s-8.71 10.03-25.68 11.1c0 0-10.55 15.75 0 22.17 10.31 6.27 24.99-1.78 25.66-2.15z" style="opacity:.13;fill:#736250"/><path class="st13" d="M257.52 335.64s10.57 11.16 8.04 22.26c0 0 15.85-5.35 10.56-16.16-5.3-10.81-15.39-8.72-18.6-6.1zM265.56 367.01s5.58 9.95 3.36 17.25c0 0 13.73 1.62 7.2-11.97-.01 0-2.53-10.94-10.56-5.28zM267.36 395.06s4.8 9.19 4.36 16.1c-.44 6.91 11.83-9.89-4.36-16.1z"/></g><path class="st12" d="M260.21 230.93s38.55-23.56 33.52 7.4c0 0-3.56 14.46-33.52 34.4v-41.8z"/></g></svg>