<svg version="1.1" id="Layer_1" xmlns="http://www.w3.org/2000/svg" x="0" y="0" viewBox="0 0 1000 727.11" style="enable-background:new 0 0 1000 727.11" xml:space="preserve"><style>.st0{opacity:.4;fill:#cfb5f6}.st3{fill:#87bb4c}.st4{fill:#cb8604}.st5{fill:#ffb343}.st6{fill:#7daa44}.st7{fill:#e6f9fc}.st9{fill:#ab7350}.st10{fill:#cdf5fd}.st11,.st12{fill:#4570ad}.st12{opacity:.29}.st13{fill:#f9828b}.st14{opacity:.32;fill:#fff}.st16{fill:#0c1d23}.st17{fill:#fafafa}.st18{fill:#f1f2f2}.st19{fill:#874d28}.st21{fill:#3f2316}.st22{fill:#63371f}.st23{opacity:.13;fill:#fff}</style><ellipse class="st0" cx="189.56" cy="184.8" rx="104.79" ry="114.5"/><ellipse class="st0" cx="840.07" cy="413.01" rx="141.06" ry="154.13"/><path d="M88.67 646.97s-73.5-122.41-11.99-213.4c13.8-20.42 21.98-44.14 23.97-68.71 7.48-92.34 20.85-277.89 289.02-234.38 0 0 116.13 49.53 158.88-34.85 42.74-84.38 270.91-104.49 332.01 72.49 51.56 149.34 7.46 250.37-7.57 278.28-4.66 8.65-7.69 18.1-8.62 27.88-2.13 22.29 16.34 51.1 35.11 99.52 42.19 108.84-71.86 114.79-71.86 114.79s-595.87 89.65-738.95-41.62z" style="fill:#cfb5f6"/><path class="st0" d="M74.07 614.12S.57 491.71 62.08 400.72c13.8-20.42 21.98-44.14 23.97-68.71 7.48-92.34 20.85-277.89 289.02-234.38 0 0 116.13 49.53 158.88-34.85s270.91-104.49 332.01 72.49c51.56 149.34 7.46 250.37-7.57 278.28-4.66 8.65-7.69 18.1-8.62 27.88-2.13 22.29 16.34 51.1 35.11 99.52 42.19 108.84-71.86 114.79-71.86 114.79s-595.87 89.65-738.95-41.62z"/><path class="st0" d="M125.36 644.14s-73.5-122.41-11.99-213.4c13.8-20.42 21.98-44.14 23.97-68.71 7.48-92.34 20.85-277.89 289.02-234.38 0 0 116.13 49.53 158.88-34.85s270.91-104.5 332.01 72.48c51.56 149.34 7.46 250.37-7.57 278.28-4.66 8.65-7.69 18.1-8.62 27.88-2.13 22.29 16.34 51.1 35.11 99.52 42.19 108.84-71.86 114.79-71.86 114.79s-595.87 89.66-738.95-41.61z"/><ellipse cx="494.07" cy="644.97" rx="405.4" ry="73.18" style="opacity:.19;fill:#333"/><path class="st3" d="M518.25 280.67a3 3 0 0 1-2.99-2.78c-1.8-25.05-22.08-44.33-22.29-44.52-1.21-1.13-1.27-3.03-.14-4.24s3.03-1.27 4.24-.14c.91.85 22.2 21.03 24.17 48.47a3.001 3.001 0 0 1-2.78 3.21c-.07-.01-.14 0-.21 0zM526.74 284.32c-1.66 0-3-1.34-3-3v-78.23c0-1.66 1.34-3 3-3s3 1.34 3 3v78.23c0 1.66-1.34 3-3 3z"/><path class="st3" d="M518.03 255.73H518a2.99 2.99 0 0 1-2.97-3.03c.19-22.2 17.07-39.73 17.79-40.46 1.16-1.18 3.06-1.21 4.24-.05 1.18 1.16 1.21 3.06.05 4.24-.25.26-15.91 16.63-16.08 36.32a3.005 3.005 0 0 1-3 2.98z"/><path class="st3" d="M513.69 261.89c-.28 0-.57-.04-.85-.12a3.003 3.003 0 0 1-2.03-3.73c6.98-23.7 1.32-53.39 1.26-53.69a3 3 0 0 1 5.89-1.15c.25 1.27 6.01 31.4-1.39 56.54a3 3 0 0 1-2.88 2.15z"/><path class="st4" d="M510.55 238.68c-.8-8.7-1.06-26.13 8.04-34.89.96-.93 2.57-.57 3 .69 1.73 5.06 4.09 17.9-7.35 35.14-1.05 1.59-3.51.95-3.69-.94z"/><path class="st5" d="M510.99 238.35c1.89-8.53 6.95-25.21 18.28-30.78 1.2-.59 2.62.24 2.65 1.58.11 5.35-1.56 18.29-17.7 31.23-1.49 1.19-3.64-.17-3.23-2.03z"/><path class="st5" d="M514.84 239.1c1.44-8.62 2.99-25.98-5.43-35.39-.89-1-2.52-.76-3.05.47-2.1 4.92-5.4 17.54 4.73 35.59.93 1.65 3.44 1.2 3.75-.67z"/><path class="st4" d="M535.13 210.87c4.57-7.45 14.79-21.57 27.32-23.14 1.33-.17 2.4 1.08 1.99 2.35-1.64 5.09-7.43 16.79-26.92 23.76-1.79.64-3.39-1.34-2.39-2.97z"/><path class="st5" d="M535.67 210.88c6.62-5.7 20.66-16.04 33.07-13.72 1.31.25 1.96 1.76 1.18 2.85-3.12 4.35-12.19 13.72-32.87 14.43-1.91.06-2.83-2.32-1.38-3.56z"/><path class="st5" d="M538.31 213.78c6.31-6.05 17.95-19.02 16.83-31.6-.12-1.33-1.57-2.12-2.72-1.45-4.63 2.68-14.83 10.82-17.51 31.34-.26 1.88 2.02 3.02 3.4 1.71z"/><path class="st4" d="M498.63 228.83c-3.3-8.09-11.08-23.69-23.19-27.28-1.28-.38-2.54.68-2.35 2 .79 5.29 4.6 17.77 22.69 27.82 1.67.92 3.57-.78 2.85-2.54z"/><path class="st5" d="M498.1 228.74c-5.61-6.7-17.77-19.19-30.4-18.92-1.34.03-2.22 1.42-1.63 2.62 2.37 4.8 9.8 15.52 30.09 19.58 1.87.38 3.16-1.82 1.94-3.28z"/><path class="st5" d="M495.02 231.17c-5.24-6.99-14.61-21.69-11.46-33.92.33-1.29 1.89-1.83 2.92-.98 4.13 3.4 12.87 13.09 12.18 33.77-.06 1.9-2.5 2.66-3.64 1.13z"/><path class="st4" d="M516.98 202.27c-4.12-10.11-13.84-29.58-28.96-34.06-1.6-.47-3.18.85-2.93 2.5.99 6.61 5.75 22.19 28.33 34.73 2.09 1.15 4.46-.97 3.56-3.17z"/><path class="st5" d="M516.32 202.16c-7-8.37-22.19-23.96-37.96-23.62-1.67.04-2.77 1.77-2.03 3.27 2.96 5.99 12.23 19.38 37.57 24.45 2.33.47 3.94-2.28 2.42-4.1z"/><path class="st5" d="M512.47 205.2c-6.55-8.73-18.25-27.08-14.31-42.35.42-1.62 2.36-2.29 3.65-1.23 5.15 4.25 16.07 16.34 15.21 42.17-.08 2.37-3.12 3.31-4.55 1.41z"/><path class="st4" d="M523.79 203.7c-1.57-10.8-3.06-32.51 7.7-44.04 1.14-1.22 3.17-.88 3.79.67 2.49 6.2 6.29 22.04-6.82 44.3-1.21 2.05-4.33 1.42-4.67-.93z"/><path class="st5" d="M524.31 203.27c1.79-10.76 6.99-31.9 20.75-39.6 1.46-.81 3.28.13 3.41 1.79.49 6.66-.72 22.91-19.99 40.12-1.78 1.58-4.56.03-4.17-2.31z"/><path class="st5" d="M529.17 203.94c1.22-10.84 2-32.59-9.13-43.76-1.18-1.18-3.19-.78-3.77.79-2.29 6.27-5.57 22.23 8.26 44.06 1.27 2 4.37 1.27 4.64-1.09z"/><path class="st6" d="M518.03 252.73c1.38-.61 5.09-19.57 14.54-23.24 0 0 6.19 15.59-7.62 23.24h-6.92zM506.76 262.58c.13-1.5-14.66-13.93-13.29-23.98 0 0 16.64 2.13 16.64 17.92l-3.35 6.06z"/><path class="st7" d="M537.14 303.48c-.31 22.02-5.81 44.69-5.81 44.69l-32.42-.94-4.27-.12s-6.06-34.45-5.5-51.27c0 0 1.53-28.43 5.5-45.86h35.16v5.2s7.64 26.29 7.34 48.3z"/><path d="M537.14 303.48c-.31 22.02-5.81 44.69-5.81 44.69l-32.42-.94c5.52-7.36 13.16-18.8 16.83-29.99 4.6-14.03 2.28-50.2.85-67.26h13.21v5.2s7.64 26.29 7.34 48.3z" style="opacity:.38;fill:#4570ad"/><path class="st9" d="M486.73 546.88v62.37s-9.17 8.25-12.84 8.25-30.27 11.92-32.1 35.77c0 0 1.83 8.25 9.17 7.34 0 0 19.26-37.61 41.27-21.1 0 0 3.67 25.68 13.76 11.01 0 0 .92-14.68 11.92-14.68 11.01 0 22.01 4.73 33.02 24.84 0 0 11.92-2.82 6.42-15.66s-22.93-29.35-40.36-30.27c0 0-4.59-2.68-4.59-10.97v-56.9h-25.67z"/><path class="st10" d="M699.97 494.7c-1.94 1.05-3.97 1.73-5.95 1.73l9.17 29.35s-4.09 1.58-10.73 3.75c-19.64 6.42-61.58 18-85.57 9.09 0 0-.35.21-1.02.59-1.28.73-3.76 2.1-7.28 3.85-25.73 12.79-107.46 46.13-190.42 2.97-4.71-2.45-9.42-5.14-14.12-8.1-.6-.38-1.19-.76-1.79-1.14 0 0-39.37 16.07-85.78-8.96h-.01c-3.17-1.71-6.37-3.61-9.6-5.72l6.88-20.64 2.29-6.87s-.11.07-.32.19c-1.85 1.04-11.24 5.38-16.18-10.28l2.59-8.27c0-.02 0-.03.01-.03l37.33-119.33c1.34-4.28 5.31-7.2 9.81-7.2h325.03c4.56 0 8.58 3.01 9.86 7.39l35.71 122.06v.01l1.57 5.37s-5.31 6.89-11.48 10.19z"/><g><circle class="st11" cx="230.43" cy="454.21" r="2.21"/></g><path class="st12" d="M598.59 543.06c-25.73 12.79-107.46 46.13-190.42 2.97.68-2.54 1.52-3.97 1.52-3.97s117.63 34.14 163.03-14.23c0 0 14.45-160.73 14.45-152.7 0 7.3 9.66 143.27 11.42 167.93zM402.12 417.26l-8.07 120.67c-.6-.38-1.19-.76-1.79-1.14 0 0-39.37 16.07-85.78-8.96.95.06 64.75 3.79 72.94-12.6 8.26-16.51 22.7-97.97 22.7-97.97zM329.2 415.13l-23.48 79.66c-1.85 1.04-11.24 5.38-16.18-10.28-.08-1.65.9-4.55 2.59-8.27 0-.02 0-.03.01-.03 8.82-19.47 37.06-61.08 37.06-61.08zM692.46 525.55v3.98c-19.64 6.42-61.58 18-85.57 9.09 0 0-.35.21-1.02.59l-7.28-113.73 20.91 89.06c21.32 21.33 72.96 11.01 72.96 11.01zM711.45 484.51s-5.31 6.89-11.48 10.19c-1.24-.63-2.6-1.51-4.12-2.68l-22.01-74.76 36.04 61.87v.01l1.57 5.37z"/><path class="st7" d="M312.69 508.35s27.52-133.31 57.1-139.23c29.58-5.92 26.83 9.43 26.83 9.43L375.98 474c0 .01-4.13 57.74-63.29 34.35zM413.82 527.83l11.69-115.81s29.58-58.38 81.86-47.4c0 0 24.08 47.47 0 97.67-24.08 50.19-68.1 87.08-93.55 65.54zM603.68 385.89l18.57 100.82s20.64 35.3 54.34 21.55l-19.26-85.08s-14.44-62.07-53.65-37.29z"/><g><path class="st9" d="m152.87 521.83-12.84 137.65h6.42l17.43-137.65zM221.38 521.83l-12.84 137.65h6.42l17.42-137.65zM296.76 521.83l12.85 137.65h-6.42l-17.43-137.65z"/><path class="st9" d="m227.54 521.83 12.84 137.65h-6.42l-17.42-137.65z"/><path class="st11" d="M146.45 508.35h160.02v19.48H146.45z"/><path class="st11" d="M145.35 498.63C133.11 458.58 92 306.12 158.32 256.24c3.75-2.82 8.75-3.47 13.1-1.72 20.21 8.1 73.74 47.75 68.96 240.08 0 7.6-6.16 13.76-13.76 13.76H158.5a13.772 13.772 0 0 1-13.15-9.73z"/><path class="st10" d="M159.29 501.47s-26.18-97.52-13.7-165.71c3.11-16.97 8.61-32.12 17.5-43.51 4.17-5.33 11.55-6.96 17.49-3.71 15.99 8.77 45.1 36.09 45.88 118.92 0 0 9.16 61.24 0 90.8l-67.17 3.21z"/><path transform="rotate(-44.445 166.427 311.849)" class="st11" d="M138.44 311.33h55.95v1h-55.95z"/><path transform="rotate(-44.96 170.833 332.381)" class="st11" d="M131.09 331.87h79.47v1h-79.47z"/><path transform="rotate(-44.863 176.534 356.216)" class="st11" d="M128.81 355.72h95.46v1h-95.46z"/><path transform="rotate(-44.25 184.9 404.372)" class="st11" d="M131.22 403.89h107.39v1H131.22z"/><path transform="rotate(-42.03 188.398 428.094)" class="st11" d="M137.72 427.59H239.1v1H137.72z"/><path transform="rotate(-40.835 191.797 452.023)" class="st11" d="M143.28 451.51h96.98v1h-96.98z"/><path class="st11" d="m144.67 417.26-.71-.71 73.7-72.44-60.32-43.26.59-.81 61.28 43.95z"/><path transform="rotate(-51.304 187.002 353.27)" class="st11" d="M186.51 304.11h1v98.35h-1z"/><path transform="rotate(-50.238 186.019 383.618)" class="st11" d="M185.52 328.41h1v110.42h-1z"/><path class="st11" d="m168.81 501.43-.6-.79 61.43-46.43-87.25-74.8.65-.76 88.19 75.61-.5.38z"/><path transform="rotate(-48.247 187.002 447.58)" class="st11" d="M186.51 389.36h1v116.42h-1z"/><path transform="rotate(-49.128 176.666 474)" class="st11" d="M176.16 436.94h1v74.14h-1z"/><circle class="st11" cx="169.84" cy="308.71" r="2.21"/><circle class="st11" cx="151.96" cy="324.75" r="2.21"/><circle class="st11" cx="183.58" cy="318.95" r="2.21"/><circle class="st11" cx="166.41" cy="336.15" r="2.21"/><circle class="st11" cx="183.3" cy="349.68" r="2.21"/><circle class="st11" cx="149.75" cy="352.99" r="2.21"/><circle class="st11" cx="148.45" cy="383.68" r="2.21"/><circle class="st11" cx="148.45" cy="413.01" r="2.21"/><circle class="st11" cx="164.21" cy="397" r="2.21"/><circle class="st11" cx="165.43" cy="366.92" r="2.21"/><circle class="st11" cx="178.75" cy="409.81" r="2.21"/><circle class="st11" cx="193.53" cy="423.27" r="2.21"/><circle class="st11" cx="162.22" cy="425.48" r="2.21"/><circle class="st11" cx="176.66" cy="437.82" r="2.21"/><circle class="st11" cx="156.37" cy="456.35" r="2.21"/><circle class="st11" cx="170.83" cy="469.42" r="2.21"/><circle class="st11" cx="189.22" cy="484.13" r="2.21"/><circle class="st11" cx="191.77" cy="452.01" r="2.21"/><circle class="st11" cx="209.54" cy="435.8" r="2.21"/><circle class="st11" cx="210.37" cy="468.23" r="2.21"/><circle class="st11" cx="201.15" cy="331.43" r="2.21"/><circle class="st11" cx="198.94" cy="362.66" r="2.21"/><circle class="st11" cx="213.87" cy="375.13" r="2.21"/><circle class="st11" cx="181.37" cy="380.11" r="2.21"/><circle class="st11" cx="196.74" cy="392.59" r="2.21"/><circle class="st11" cx="212.87" cy="405.39" r="2.21"/><path class="st10" d="M308.47 508.35H148.45c0-7.6 6.16-13.76 13.76-13.76h132.5c7.6.01 13.76 6.17 13.76 13.76z"/></g><g><path class="st9" d="m849.2 521.74 12.84 137.65h-6.42l-17.43-137.65zM780.69 521.74l12.84 137.65h-6.42l-17.42-137.65zM705.31 521.74l-12.85 137.65h6.43l17.42-137.65z"/><path class="st9" d="m774.53 521.74-12.84 137.65h6.42l17.42-137.65z"/><path transform="rotate(-180 775.61 517.999)" class="st11" d="M695.6 508.26h160.02v19.48H695.6z"/><path class="st11" d="M856.72 498.54c12.24-40.05 53.35-192.51-12.97-242.39a13.489 13.489 0 0 0-13.1-1.72c-20.21 8.1-73.74 47.75-68.96 240.08 0 7.6 6.16 13.76 13.76 13.76h68.12c6.04-.01 11.38-3.95 13.15-9.73z"/><path class="st10" d="M842.78 501.38s26.18-97.52 13.7-165.71c-3.11-16.97-8.61-32.12-17.5-43.51-4.17-5.33-11.55-6.96-17.48-3.71-15.99 8.77-45.1 36.09-45.88 118.92 0 0-9.16 61.24 0 90.8l67.16 3.21z"/><path transform="rotate(-45.555 835.662 311.751)" class="st11" d="M835.16 283.77h1v55.95h-1z"/><path transform="rotate(-45.041 831.221 332.29)" class="st11" d="M830.74 292.54h1v79.47h-1z"/><path transform="rotate(-45.138 825.543 356.133)" class="st11" d="M825.03 308.39h1v95.46h-1z"/><path transform="rotate(-45.749 817.194 404.29)" class="st11" d="M816.66 350.6h1v107.39h-1z"/><path transform="rotate(-47.972 813.669 428.008)" class="st11" d="M813.17 377.31h1v101.38h-1z"/><path transform="rotate(-49.164 810.253 451.894)" class="st11" d="M809.8 403.42h1v96.98h-1z"/><path class="st11" d="m857.41 417.17.7-.72-73.7-72.43 60.32-43.26-.58-.81-61.29 43.95z"/><path transform="rotate(-38.696 815.057 353.184)" class="st11" d="M765.88 352.69h98.35v1h-98.35z"/><path transform="rotate(-39.763 816.049 383.53)" class="st11" d="M760.84 383.02h110.42v1H760.84z"/><path class="st11" d="m833.26 501.34.6-.8-61.43-46.42 87.25-74.8-.65-.76-88.19 75.61.5.37z"/><path transform="rotate(-41.753 815.121 447.501)" class="st11" d="M756.85 446.98h116.42v1H756.85z"/><path transform="rotate(-40.872 825.345 473.892)" class="st11" d="M788.34 473.42h74.14v1h-74.14z"/><circle class="st11" cx="832.23" cy="308.62" r="2.21"/><circle class="st11" cx="850.12" cy="324.65" r="2.21"/><circle class="st11" cx="818.49" cy="318.86" r="2.21"/><circle class="st11" cx="835.66" cy="336.06" r="2.21"/><circle class="st11" cx="818.77" cy="349.59" r="2.21"/><circle class="st11" cx="852.32" cy="352.9" r="2.21"/><circle class="st11" cx="853.62" cy="383.59" r="2.21"/><circle class="st11" cx="853.62" cy="412.92" r="2.21"/><circle class="st11" cx="837.86" cy="396.91" r="2.21"/><circle class="st11" cx="836.65" cy="366.82" r="2.21"/><circle class="st11" cx="823.32" cy="409.72" r="2.21"/><circle class="st11" cx="808.54" cy="423.18" r="2.21"/><circle class="st11" cx="839.85" cy="425.39" r="2.21"/><circle class="st11" cx="825.41" cy="437.73" r="2.21"/><circle class="st11" cx="845.7" cy="456.26" r="2.21"/><circle class="st11" cx="831.24" cy="469.33" r="2.21"/><circle class="st11" cx="812.85" cy="484.04" r="2.21"/><circle class="st11" cx="810.3" cy="451.91" r="2.21"/><circle class="st11" cx="792.53" cy="435.71" r="2.21"/><circle class="st11" cx="791.7" cy="468.13" r="2.21"/><circle class="st11" cx="800.92" cy="331.34" r="2.21"/><circle class="st11" cx="803.13" cy="362.57" r="2.21"/><circle class="st11" cx="788.2" cy="375.04" r="2.21"/><circle class="st11" cx="820.7" cy="380.02" r="2.21"/><circle class="st11" cx="805.33" cy="392.49" r="2.21"/><circle class="st11" cx="789.2" cy="405.29" r="2.21"/><path class="st10" d="M693.6 508.26h160.02c0-7.6-6.16-13.76-13.76-13.76h-132.5c-7.6 0-13.76 6.16-13.76 13.76z"/></g><g><path class="st7" d="M405.2 339.94c1.01 0 1.83-.82 1.83-1.83l-.08-25.71c0-1.01-.82-1.82-1.83-1.82h-.01c-1.01 0-1.83.82-1.82 1.83l.08 25.71c0 1.01.82 1.82 1.83 1.82z"/><path class="st7" d="M420.41 277.21v21.74c0 3.79-1.02 7.57-3.19 10.69-1.91 2.75-4.83 5.31-9.11 5.57-7.52.44-12.59.32-16.04-5.49-1.66-2.81-2.4-6.07-2.4-9.34v-23.17h30.74z"/><path class="st13" d="M420.41 277.21v21.74c0 3.79-1.02 7.57-3.19 10.69-1.91 2.75-4.83 5.31-9.11 5.57-7.52.44-12.59.32-16.04-5.49-1.66-2.81-2.4-6.07-2.4-9.34v-.68c11.44-6.3 20.44-15.43 26.29-22.49h4.45z"/><path class="st7" d="M608.78 344.9c1.01 0 1.83-.82 1.83-1.83l-.08-25.71c0-1.01-.82-1.82-1.83-1.82h-.01c-1.01 0-1.83.82-1.82 1.83l.08 25.71c0 1.01.82 1.82 1.83 1.82z"/><path class="st7" d="M623.99 282.17v21.74c0 3.79-1.02 7.57-3.19 10.69-1.91 2.75-4.83 5.31-9.11 5.57-7.52.44-12.59.32-16.04-5.49-1.66-2.81-2.4-6.07-2.4-9.34v-23.17h30.74z"/><path class="st13" d="M623.99 282.17v21.74c0 3.79-1.02 7.57-3.19 10.69-1.91 2.75-4.83 5.31-9.11 5.57-7.52.44-12.59.32-16.04-5.49-1.66-2.81-2.4-6.07-2.4-9.34v-.68c11.44-6.3 20.44-15.43 26.29-22.49h4.45z"/><path class="st7" d="m596.4 348.62 12.22-5.81 13.39 5.81z"/><path class="st14" d="M618.09 314.6a3.92 3.92 0 0 1-3.92-3.92v-28.51h7.84v28.51c0 2.16-1.76 3.92-3.92 3.92z"/><g><path d="M451.05 271.22v67.9h33.71v-67.9c-.91-10.48-10.94-14.84-10.94-14.84v-41.65h-10.69v41.65c-8.39.64-12.08 14.84-12.08 14.84z" style="fill:#ff545c"/><path class="st16" d="M463.14 214.72h10.69v12.07h-10.69z"/><path class="st17" d="M451.05 281.25h22.77v46.11h-22.77z"/></g><path class="st18" d="M357.26 338.12h156.47v5.99h-7.82v5.94H363.97v-5.94h-6.71z"/><path class="st14" d="M412.86 309.64a3.92 3.92 0 0 1-3.92-3.92v-28.51h7.84v28.51c0 2.16-1.76 3.92-3.92 3.92z"/><path class="st16" d="M459.23 293.42h8.68v29.03h-8.68z"/></g><g><path class="st19" d="M500 348.84H392.57c0-.86 8.59-25.11 9.48-27.61.04-.14.07-.21.07-.21h94.4l3.48 27.82z"/><path style="opacity:.49;fill:#fffbf2" d="m408.17 325 2.13 20.18h84.38L491.93 325z"/><path class="st21" d="M416.54 329.23c.75-.15 1.83-.24 2.85-.24 1.59 0 2.61.29 3.33.94.58.51.91 1.3.91 2.19 0 1.52-.96 2.53-2.17 2.94v.05c.89.31 1.42 1.13 1.69 2.32.38 1.61.65 2.72.89 3.16h-1.54c-.19-.32-.44-1.32-.77-2.75-.34-1.59-.96-2.19-2.31-2.24h-1.4v4.99h-1.49v-11.36zm1.49 5.25h1.52c1.59 0 2.6-.87 2.6-2.19 0-1.49-1.08-2.14-2.65-2.15-.72 0-1.23.07-1.47.14v4.2zM431.7 335.2h-4.48v4.15h4.99v1.25h-6.48v-11.52h6.22v1.25h-4.73v3.64h4.48v1.23zM433.94 338.79c.67.41 1.64.75 2.67.75 1.52 0 2.41-.8 2.41-1.97 0-1.08-.62-1.69-2.17-2.29-1.88-.67-3.04-1.64-3.04-3.26 0-1.79 1.49-3.13 3.73-3.13 1.18 0 2.03.27 2.55.56l-.41 1.21c-.38-.21-1.15-.55-2.19-.55-1.57 0-2.17.94-2.17 1.73 0 1.08.7 1.61 2.29 2.22 1.95.75 2.94 1.69 2.94 3.38 0 1.78-1.32 3.32-4.03 3.32-1.11 0-2.32-.32-2.94-.73l.36-1.24zM448.54 335.2h-4.48v4.15h4.99v1.25h-6.48v-11.52h6.22v1.25h-4.73v3.64h4.48v1.23zM450.99 329.23c.75-.15 1.83-.24 2.85-.24 1.59 0 2.61.29 3.33.94.58.51.91 1.3.91 2.19 0 1.52-.96 2.53-2.17 2.94v.05c.89.31 1.42 1.13 1.69 2.32.38 1.61.65 2.72.89 3.16h-1.54c-.19-.32-.44-1.32-.77-2.75-.34-1.59-.96-2.19-2.31-2.24h-1.4v4.99h-1.49v-11.36zm1.48 5.25h1.52c1.59 0 2.6-.87 2.6-2.19 0-1.49-1.08-2.14-2.65-2.15-.72 0-1.23.07-1.47.14v4.2zM462.98 340.6l-3.76-11.52h1.61l1.79 5.67c.5 1.56.92 2.96 1.23 4.31h.03c.32-1.33.8-2.79 1.32-4.29l1.95-5.69h1.59l-4.12 11.52h-1.64zM475.96 335.2h-4.48v4.15h4.99v1.25h-6.48v-11.52h6.22v1.25h-4.73v3.64h4.48v1.23zM478.4 329.23c.91-.14 1.98-.24 3.16-.24 2.14 0 3.66.5 4.67 1.44 1.03.94 1.62 2.27 1.62 4.14 0 1.88-.58 3.42-1.66 4.48-1.08 1.08-2.85 1.66-5.09 1.66-1.06 0-1.95-.05-2.7-.14v-11.34zm1.49 10.19c.38.07.92.09 1.5.09 3.18 0 4.9-1.78 4.9-4.89.02-2.72-1.52-4.44-4.67-4.44-.77 0-1.35.07-1.74.15v9.09z"/><path class="st22" d="M406.05 348.84h-13.48c0-.86 8.59-25.11 9.48-27.61l4 27.61z"/></g><g><path class="st17" d="m527.78 343.34-6.72-1.16 5.19-12.87 7.36 4.74-5.83-7.97 8.26-6.61 4.14 9.84-2.92-11.99 12.54-2.13v12.03l2.75-12.03 12.23 3.04-6.73 8.99 8.87-6.83 11 6.83-10.7 6.83 14.37-2.57 4.59 11.86-10.59-1.44z"/><path class="st18" d="m530.7 343.2-5.7-.98 4.41-10.92 6.24 4.02-4.95-6.76 7.01-5.61 3.51 8.35-2.48-10.16 10.64-1.82v10.21l2.33-10.21 10.37 2.58-5.7 7.63 7.52-5.8 9.34 5.8-9.08 5.79 12.19-2.18 3.89 10.06-8.99-1.21z"/></g><g><path class="st22" d="M580.59 348.84h-53.81v-2.5c0-11.64 9.44-21.07 21.07-21.07h11.66c11.64 0 21.07 9.44 21.07 21.07v2.5z"/><path class="st19" d="M574.76 347.59h-42.15c0-11.64 9.44-21.07 21.07-21.07 11.65-.01 21.08 9.43 21.08 21.07z"/></g><ellipse transform="rotate(-14.828 459.291 79.954)" class="st0" cx="459.23" cy="79.99" rx="47.55" ry="25.98"/><ellipse class="st23" cx="751.21" cy="116.95" rx="12.51" ry="13.67"/><ellipse class="st23" cx="692.46" cy="93.67" rx="10.39" ry="11.35"/><ellipse class="st23" cx="853.62" cy="163.37" rx="10.39" ry="11.35"/><ellipse class="st0" cx="74.69" cy="364.62" rx="46.82" ry="51.16"/></svg>