<?xml version="1.0" encoding="utf-8"?>
<!-- Generator: Adobe Illustrator 24.3.0, SVG Export Plug-In . SVG Version: 6.00 Build 0)  -->
<svg version="1.1" id="Layer_1" xmlns="http://www.w3.org/2000/svg" xmlns:xlink="http://www.w3.org/1999/xlink" x="0px" y="0px"
	 viewBox="0 0 1000 660" style="enable-background:new 0 0 1000 660;" xml:space="preserve">
<style type="text/css">
	.st0{fill:#E3D4F9;}
	.st1{fill:#CFB5F6;}
	.st2{fill:#FBBF9B;}
	.st3{fill:#56594E;}
	.st4{fill:#7E4C4B;}
	.st5{fill:#FEAC02;}
	.st6{fill:#753ECC;}
	.st7{fill:#28262B;}
	.st8{fill:#4570AD;}
	.st9{fill:#FFFFFF;}
	.st10{fill:#6538BA;}
	.st11{fill:#6A9A24;}
	.st12{fill:#141613;}
	.st13{fill:#16133E;}
	.st14{fill:#5C7F1D;}
	.st15{fill:#FFFEFF;}
	.st16{fill:#FF4D53;}
	.st17{fill:#6195C9;}
	.st18{fill:#252527;}
	.st19{fill:#FF4F5B;}
	.st20{opacity:0.63;}
	.st21{fill:#3270B8;}
	.st22{opacity:0.62;fill:#3270B8;}
	.st23{opacity:0.45;}
	.st24{fill:#3E3F3F;}
	.st25{opacity:0.61;}
	.st26{opacity:0.71;}
	.st27{fill:#F8AC0E;}
</style>
<g>
	<path class="st0" d="M920.3,210c-74.7-24-136.8-77-136.8-77C694.1,36,610,20,497.5,63.7S341,102,341,102
		c-184,23-158.9,99.8-158.9,99.8L199.4,326H116C56.4,326,8,374.4,8,434v0c0,59.6,48.4,108,108,108h730c59.6,0,108-48.4,108-108v0
		c0-11.7-1.9-23-5.3-33.6l5.8,0.1C994,321,995,234,920.3,210z"/>
	<path class="st1" d="M930.3,225c-74.7-24-136.8-77-136.8-77C704.1,51,620,35,507.5,78.7S351,117,351,117
		c-184,23-158.9,99.8-158.9,99.8L209.4,341H126c-59.6,0-108,48.4-108,108v0c0,59.6,48.4,108,108,108h730c59.6,0,108-48.4,108-108v0
		c0-11.7-1.9-23-5.3-33.6l5.8,0.1C1004,336,1005,249,930.3,225z"/>
	<g>
		<path class="st2" d="M123.5,275.5l7.7,20.4l23.9-4.3v12.7l-19.3,7c0,0-11.9,5-14.9-1.2c-3-6.2-6.7-29.7-6.7-29.7L123.5,275.5z"/>
		<path class="st3" d="M174,252.4c0,0,15.3-12.6,28.4-5.8s15.1,10,15.1,10s9.1-13.8,21.6-12s24.4,19.6,21.4,25.7s-3.5,21.2-3.5,21.2
			L174,252.4z"/>
		<ellipse class="st2" cx="110" cy="240" rx="11" ry="15"/>
		<polygon class="st2" points="96.2,240.4 96.2,264.4 112.5,264.4 112.5,252.4 		"/>
		<path class="st4" d="M102.8,238.6c0,0-1.3-7.1,4.7-5.1s18.1,5.3,21.5-0.4c3.5-5.6,3.5-13.6-4.5-13.6s-25,0-25,0s-8.8-1.9-9.9,9.5
			c-1.1,11.5,0,15.7,0,15.7s4.5,4.8,11.2-0.7L102.8,238.6z"/>
		<path class="st5" d="M138.5,445.5v34.9l-17.5,1.8c0,0-0.4-7.1-1.2-16.3c-0.2-3.2-0.5-6.5-0.8-10c-0.1-0.7-0.1-1.3-0.2-2
			c-0.3-3.4-0.7-6.8-1-10c-0.7-6.3-1.5-11.9-2.3-15.5c-3-13-11.2-40.2-11.2-40.2s-3.5-4.9-8.2,9.2c-4.7,14.1-4.7,22.1-13.7,36.1
			c-2.6,4.1-6.2,9.8-10,15.9c-1.9,3-3.8,6.1-5.6,9.1c-0.6,1-1.2,1.9-1.7,2.8c-2,3.3-4,6.5-5.6,9.2c-3.6,5.9-6.1,10-6.1,10l-18.5-5
			c0,0,3.1-6.8,7.2-15.4c1.4-3,3-6.3,4.5-9.6c0.5-1.1,1-2.1,1.5-3.2c1.6-3.4,3.1-6.6,4.6-9.5c2-4,3.6-7.4,4.7-9.3c5-9,14-38,15-65
			s6-82,6-82s3.4-22.7,17.7-24.9h16.3c0,0,9,11.9,11,18.9s5,27,4,48c0,0-4.3,23-2.1,28.5l0.5,2.3l7.7,38.4l2,9.7l2.9,41.5
			L138.5,445.5z"/>
		<path class="st6" d="M94.2,264.4c0,0-12.7,7.1-13.7,25.1s-5,32,11,37s21-12.1,21-12.1s4-27.1,0-38.5
			C108.5,264.5,102.8,264.4,94.2,264.4z"/>
		<path class="st7" d="M35,475.5c0,0-5.5,6-3.5,12l31,10c0,0,9.4-2.6,3.7-7.3l-12.7-9.7L35,475.5z"/>
		<path class="st7" d="M124.4,482.3c0,0-0.9,16.2,4.6,15.2c5.5-1,33.5-11,33.5-11s3-7-5-7s-19,0.9-19,0.9L124.4,482.3z"/>
		<path class="st8" d="M164.8,246.7l-1.7,15.5l-45,111.4c0,0-4.6,5.8,2.9,12.8l63.5,32.1c0,0,10.2,6,15.6-5l17.4-32l43-93l-91-46
			C169.5,242.5,163.1,241.9,164.8,246.7z"/>
		<g>
			<g>
				<g>
					<path class="st9" d="M203.4,316.5c-1-0.1-1.9-0.9-2-1.9l-1.1-11.6c-0.4-1.6-0.9-2.7-1.5-2.9c-0.7-0.2-1.8,0.4-2.2,0.7
						L182,311.7c-0.9,0.7-2.3,0.5-3-0.4c-0.7-0.9-0.5-2.3,0.4-3l14.5-10.7c0.5-0.4,3.2-2.4,6.2-1.3c2.1,0.8,3.6,2.8,4.3,6.1l0,0.2
						l1.1,11.7c0.1,1.2-0.7,2.2-1.9,2.3C203.6,316.6,203.5,316.6,203.4,316.5z"/>
				</g>
				<g>
					<path class="st9" d="M205.6,323.3l-9.5-7.6c-0.9-0.7-1.1-2.1-0.3-3c0.7-0.9,2.1-1.1,3-0.3l5.4,4.3l2.8-5.4
						c0.5-1,1.8-1.5,2.9-0.9c1,0.5,1.4,1.8,0.9,2.9L205.6,323.3z"/>
				</g>
			</g>
			<g>
				<g>
					<path class="st9" d="M188.9,341c0.6-0.8,1.7-1.2,2.7-0.7l10.4,5.1c1.5,0.5,2.7,0.6,3.2,0.2c0.6-0.4,0.6-1.7,0.6-2.2l-1.5-18.1
						c-0.1-1.2,0.8-2.2,1.9-2.3c1.2-0.1,2.2,0.8,2.3,1.9l1.5,18c0.1,0.6,0.3,4-2.1,6c-1.8,1.4-4.3,1.6-7.4,0.4l-0.2-0.1l-10.5-5.2
						c-1-0.5-1.5-1.8-1-2.8C188.8,341.2,188.9,341.1,188.9,341z"/>
				</g>
				<g>
					<path class="st9" d="M182,339.4l11.4-4.1c1.1-0.4,2.3,0.2,2.7,1.3c0.4,1.1-0.2,2.3-1.3,2.7l-6.5,2.3l3.2,5.2
						c0.6,1,0.3,2.3-0.7,2.9c-1,0.6-2.3,0.3-2.9-0.7L182,339.4z"/>
				</g>
			</g>
			<g>
				<g>
					<path class="st9" d="M174.1,316.7c0.5,0.9,0.2,2.1-0.7,2.7l-9.4,6.8c-1.2,1.1-1.8,2.1-1.7,2.8c0.1,0.7,1.2,1.3,1.7,1.5
						l16.7,7.2c1.1,0.5,1.6,1.7,1.1,2.8c-0.5,1.1-1.7,1.6-2.8,1.1l-16.6-7.1c-0.6-0.2-3.7-1.6-4.3-4.7c-0.4-2.2,0.6-4.5,3.1-6.8
						l0.2-0.2l9.5-6.9c0.9-0.7,2.3-0.5,3,0.5C174,316.5,174,316.6,174.1,316.7z"/>
				</g>
				<g>
					<path class="st9" d="M178.8,311.3l-1.8,12c-0.2,1.2-1.2,2-2.4,1.8c-1.2-0.2-2-1.2-1.8-2.4l1-6.9l-6.1,0.3
						c-1.2,0.1-2.2-0.8-2.2-2c-0.1-1.2,0.8-2.2,2-2.2L178.8,311.3z"/>
				</g>
			</g>
		</g>
		<ellipse transform="matrix(0.9623 -0.272 0.272 0.9623 -61.3847 36.0875)" class="st2" cx="99.5" cy="239.5" rx="3.5" ry="4.7"/>
		<path class="st2" d="M86.5,293.5c0,0-5.8,19.4,2.6,29.2c8.4,9.8,42.1,18.3,42.1,18.3s14.3,7.5,20.3,0c0,0,1.4-4-9-7.5
			c-3-1,6-3,0-4s-15.9-0.6-15.9-0.6s-25.1-10.4-25.1-18.4l6.8-18.9H86.8L86.5,293.5z"/>
		<path class="st10" d="M86.5,293.5h21.4c0,0,2.6-12.9,2.1-19s-14.9-12.3-22.5,0L86.5,293.5z"/>
		<path class="st9" d="M72.5,449.4c-1.9,3-3.8,6.1-5.6,9.1l-18.7-11.2c1.6-3.4,3.1-6.6,4.6-9.5L72.5,449.4z"/>
		<path class="st9" d="M65.2,461.3c-2,3.3-4,6.5-5.6,9.2l-17.4-10.4c1.4-3,3-6.3,4.5-9.6L65.2,461.3z"/>
		<path class="st9" d="M138.5,445.5v8.5h-19.7c-0.3-3.4-0.7-6.8-1-10h20.6L138.5,445.5z"/>
		<path class="st9" d="M138.5,456v10h-18.7c-0.2-3.2-0.5-6.5-0.8-10H138.5z"/>
	</g>
	<g>
		<rect x="821.5" y="148" class="st9" width="57" height="34.5"/>
		<path class="st11" d="M922,182H783c0,0-11,2-11,15s5.5,245.1,5.5,245.1h169.7V312.1L922,182z"/>
		<rect x="904.5" y="398.5" class="st12" width="60" height="50"/>
		<rect x="919.5" y="415.5" class="st5" width="45" height="22"/>
		<polygon class="st11" points="763.5,125.3 763.5,369.3 374.6,369.1 359.9,439.1 353.4,457 276.7,457 212,381 261.7,103.5 
			354.3,103.5 413.9,140.2 743.3,142.1 742.3,124.3 		"/>
		<polygon class="st13" points="775.8,369 777.5,442.1 358.3,442.1 369.3,369 		"/>
		<rect x="415.5" y="125.5" class="st14" width="21" height="240.5"/>
		<rect x="298.5" y="95.5" class="st14" width="22" height="361"/>
		<rect x="481.5" y="125.5" class="st14" width="21" height="240.5"/>
		<rect x="545.5" y="125.5" class="st14" width="21" height="240.5"/>
		<rect x="613.5" y="125.5" class="st14" width="21" height="240.5"/>
		<rect x="678.5" y="125.5" class="st14" width="21" height="240.5"/>
		<rect x="742.5" y="125.5" class="st14" width="21" height="240.5"/>
		<polygon class="st15" points="875.5,198.5 801.3,198.5 801.3,281.9 852.7,280.6 893.1,309.5 		"/>
		<polygon class="st15" points="925.2,198.5 889.4,198.5 907.3,314.5 947.2,312.1 		"/>
		<polygon class="st14" points="414.4,182.5 255.4,159.3 258.9,135.1 414.1,157.2 		"/>
		<polygon class="st14" points="415.7,240.5 244.6,217.3 248.1,193.1 415.4,215.2 		"/>
		<polygon class="st14" points="415.7,291.5 236.6,268.3 240.1,244.1 415.5,266.2 		"/>
		<polygon class="st14" points="413.7,349.1 225.9,324.6 229.4,300.4 413.3,323.7 		"/>
		<path class="st16" d="M878.5,168.5h-57v-12.1c0-4.9,4-8.9,8.9-8.9h39.1c4.9,0,8.9,4,8.9,8.9V168.5z"/>
		<g>
			<g>
				<g>
					<path class="st9" d="M832.5,328.6c1.1,0.4,2.5-0.1,3.1-1.2l6.6-12.1c1.1-1.6,2.2-2.5,3-2.4c0.8,0,1.8,1.2,2,1.8l10.9,18.6
						c0.7,1.2,2.2,1.6,3.4,0.9c1.2-0.7,1.6-2.2,0.9-3.4l-10.9-18.5c-0.3-0.6-2.4-4.1-6.1-4.3c-2.7-0.2-5.2,1.4-7.5,4.7l-0.2,0.2
						l-6.7,12.3c-0.7,1.2-0.2,2.7,1,3.4C832.3,328.5,832.4,328.6,832.5,328.6z"/>
				</g>
				<g>
					<path class="st9" d="M826.9,335l13.9-3.8c1.3-0.4,2.1-1.8,1.8-3.1c-0.4-1.3-1.8-2.1-3.1-1.8l-7.9,2.2l-0.5-7.2
						c-0.1-1.4-1.3-2.4-2.7-2.3c-1.4,0.1-2.4,1.3-2.3,2.7L826.9,335z"/>
				</g>
			</g>
			<g>
				<g>
					<path class="st9" d="M836.9,362.1c-0.3-1.2-1.3-2.1-2.6-2l-13.8,0.8c-1.9-0.1-3.3-0.6-3.6-1.3c-0.4-0.7,0.1-2.1,0.4-2.7
						l10.1-19.1c0.7-1.2,0.2-2.8-1-3.4c-1.2-0.7-2.8-0.2-3.4,1l-10,19c-0.3,0.6-2.2,4.2-0.5,7.5c1.3,2.4,3.9,3.7,7.9,3.9l0.3,0
						l14-0.8c1.4-0.1,2.4-1.3,2.4-2.7C836.9,362.4,836.9,362.3,836.9,362.1z"/>
				</g>
				<g>
					<path class="st9" d="M845.2,363.6l-10.6-9.8c-1-0.9-2.6-0.9-3.6,0.1c-0.9,1-0.9,2.6,0.1,3.6l6,5.6l-5.9,4.3
						c-1.1,0.8-1.4,2.4-0.6,3.5c0.8,1.1,2.4,1.4,3.5,0.6L845.2,363.6z"/>
				</g>
			</g>
			<g>
				<g>
					<path class="st9" d="M864.5,342.4c-0.9,0.8-1.2,2.2-0.5,3.2l7.2,11.8c0.8,1.8,1,3.2,0.6,3.8c-0.5,0.7-1.9,0.9-2.6,0.9l-21.6,0
						c-1.4,0-2.5,1.1-2.5,2.5c0,1.4,1.1,2.5,2.5,2.5l21.5,0c0.7,0,4.8,0,6.8-3.1c1.5-2.2,1.4-5.2-0.3-8.8l-0.1-0.3l-7.2-12
						c-0.7-1.2-2.3-1.6-3.5-0.8C864.7,342.3,864.6,342.3,864.5,342.4z"/>
				</g>
				<g>
					<path class="st9" d="M861.9,334.4l-3.7,13.9c-0.4,1.3,0.4,2.7,1.8,3.1c1.3,0.4,2.7-0.4,3.1-1.8l2.1-8l6.5,3.2
						c1.2,0.6,2.8,0.1,3.4-1.1c0.6-1.2,0.1-2.8-1.1-3.4L861.9,334.4z"/>
				</g>
			</g>
		</g>
		<g>
			<circle class="st13" cx="802" cy="443" r="53"/>
			<circle class="st9" cx="802" cy="443" r="32.5"/>
		</g>
		<g>
			<circle class="st13" cx="433" cy="442" r="53"/>
			<circle class="st9" cx="433" cy="442" r="32.5"/>
		</g>
		<path class="st9" d="M296,103.2h-28.7V74.1c0-3,2.4-5.4,5.4-5.4h17.9c3,0,5.4,2.4,5.4,5.4V103.2z"/>
		<path class="st16" d="M296,89.2h-28.7v-6.6c0-7.9,6.4-14.4,14.4-14.4h0c7.9,0,14.4,6.4,14.4,14.4V89.2z"/>
		<rect x="919.5" y="415" class="st16" width="27.5" height="22.5"/>
	</g>
	<g>
		<polygon class="st2" points="700.5,618.5 709.2,627.5 720.2,618.5 710.3,611.1 		"/>
		<path class="st2" d="M537.8,414.1c0,0-4.3-0.6-8.3-1.6s-15.2-3.8-11.1,1.6c4.1,5.4,9.3,2.1,9.3,2.1s-22.3,3.3-15.2,10.3
			c7.1,7,18.6,1,18.3,0c-0.3-1,8.3-3.3,8.3-3.3l5-2.8l-2.6-6.9L537.8,414.1z"/>
		<polygon class="st2" points="628.8,320.1 631,336.9 611.5,341.5 611.5,325.9 		"/>
		<polygon class="st6" points="597.5,383.5 537.5,411.5 539.5,426.5 597.5,413 		"/>
		<ellipse class="st2" cx="615.5" cy="309.5" rx="15.5" ry="20.5"/>
		<path class="st12" d="M600,303.5c0,0-0.2-29.3,24.2-21.6c0,0,12.3-5.4,20.3,14.6c0,0,2.4,9.7-1,18c-5,12-16.9,7.3-16.4,8.7
			c0.4,1.3-2.9-3.7-2.9-3.7l-4.1,1.8v-6.8l-3.6-8.2l-4.9,2.7v-4.7L600,303.5z"/>
		<path class="st6" d="M622.7,330l8.3,0.8l7.5,4.7c0,0-19,7.4-18.5,20.2h-20l6.5-24.2L622.7,330z"/>
		<path class="st5" d="M716.5,611.5l-19.7,13c0,0-7-9.3-16-21.6c-2.3-3.1-4.7-6.4-7.2-9.8c-1-1.4-2-2.7-3-4.1
			c-2.4-3.2-4.8-6.5-7.2-9.8c-12-16.2-23-31.2-24.8-33.8c-4-5.9-9-56.1-14.3-50.5c-5.3,5.6-12.7,40.8-12.7,40.8l1.7,35.1l0.6,12
			l0.2,5l0.6,12l1.2,24.5h-25.3c0,0-0.9-10.5-2.1-24.5c-0.3-3.8-0.7-7.8-1.1-12c-0.1-1.7-0.3-3.3-0.4-5c-0.4-4-0.7-8-1.1-12
			c-1.7-18.8-3.5-36.3-4.3-40.5c-2-10,7-49,7-49s5-96,6-116s11-30.2,11-30.2l-2.7,16.7l13.7,1.9l3.5-9.2c0,0,2.5-11.2,18.5-11.9
			c7.6-0.3,13.2,6.6,16.9,13.9c4.1,8,6.1,16.9,6.1,25.9v79.9c0,0,9,80,12,84c1.2,1.6,8.5,14.2,16.7,28.6c2,3.4,4,6.9,6,10.4
			c0.8,1.5,1.6,2.9,2.5,4.4c2,3.6,4,7.1,5.9,10.4C711.3,602.3,716.5,611.5,716.5,611.5z"/>
		<rect x="595" y="624.5" class="st2" width="15.1" height="5.9"/>
		<path class="st12" d="M581.2,627.5c0,0-21.7,1.3-13.7,11.7l37.3,2.4c2.8,0.2,5.3-2.1,5.3-4.9v-6.2H595L581.2,627.5z"/>
		<g>
			<path class="st8" d="M447.5,413.5l-20,81l-24,100c0,0-4.4,11.3,16.3,16.6l-5.5,16.3l12.8,7.2l10.1-18.9l27.1,8.8
				c0,0,19.2,6,29.2-9s31-72,31-72s16.1-11.7,19.6-26.8c3.4-15.2,12.3-30.7,12.3-30.7l13.1-35.4L447.5,413.5z"/>
			<path class="st17" d="M574.5,453l-129.7-40.8c-2.9-0.9-4.5-4-3.6-6.9l1-3.2c0.9-2.9,4-4.5,6.9-3.6l129.7,40.8
				c2.9,0.9,4.5,4,3.6,6.9l-1,3.2C580.4,452.3,577.3,453.9,574.5,453z"/>
		</g>
		<g>
			<g>
				<g>
					<path class="st9" d="M511,471c-1.5,0-2.7-1.1-3-2.5l-2.5-16.3c-0.6-2.2-1.5-3.7-2.4-3.9c-0.9-0.3-2.5,0.7-3,1.1l-19.8,16.5
						c-1.3,1.1-3.2,0.9-4.2-0.4c-1.1-1.3-0.9-3.2,0.4-4.2l19.7-16.4c0.6-0.6,4.4-3.6,8.6-2.4c3.1,0.9,5.3,3.7,6.5,8.3l0.1,0.3
						l2.5,16.5c0.3,1.6-0.9,3.2-2.5,3.4C511.3,471,511.2,471,511,471z"/>
				</g>
				<g>
					<path class="st9" d="M514.8,480.3l-14-9.9c-1.4-1-1.7-2.8-0.7-4.2c1-1.4,2.8-1.7,4.2-0.7l8,5.7l3.5-7.9c0.7-1.5,2.4-2.2,4-1.5
						c1.5,0.7,2.2,2.4,1.5,4L514.8,480.3z"/>
				</g>
			</g>
			<g>
				<g>
					<path class="st9" d="M492.6,506.8c0.8-1.2,2.3-1.8,3.7-1.2l15.2,6.4c2.2,0.6,3.9,0.7,4.6,0.1c0.7-0.7,0.7-2.4,0.6-3.2
						l-3.6-25.5c-0.2-1.6,0.9-3.2,2.5-3.4c1.6-0.2,3.2,0.9,3.4,2.5l3.6,25.3c0.1,0.8,0.8,5.6-2.5,8.6c-2.4,2.1-5.9,2.5-10.5,1.2
						l-0.3-0.1l-15.3-6.5c-1.5-0.6-2.2-2.4-1.6-3.9C492.5,507.1,492.6,506.9,492.6,506.8z"/>
				</g>
				<g>
					<path class="st9" d="M482.7,505.1l15.8-6.7c1.5-0.6,3.3,0.1,3.9,1.6c0.6,1.5-0.1,3.3-1.6,3.9l-9,3.8l4.9,7.2
						c0.9,1.4,0.6,3.2-0.8,4.2c-1.4,0.9-3.2,0.6-4.2-0.8L482.7,505.1z"/>
				</g>
			</g>
			<g>
				<g>
					<path class="st9" d="M469.6,473.5c0.7,1.3,0.5,2.9-0.7,3.8l-12.8,10.4c-1.6,1.7-2.4,3.2-2.2,4c0.2,1,1.8,1.8,2.5,2l24.2,8.8
						c1.6,0.6,2.4,2.3,1.8,3.8c-0.6,1.6-2.3,2.4-3.8,1.8l-24.1-8.7c-0.8-0.3-5.4-2-6.4-6.3c-0.8-3.1,0.5-6.4,3.9-9.8l0.3-0.2
						l13-10.5c1.3-1,3.2-0.8,4.2,0.4C469.4,473.3,469.5,473.4,469.6,473.5z"/>
				</g>
				<g>
					<path class="st9" d="M475.8,465.6l-1.5,17.1c-0.1,1.7-1.6,2.9-3.3,2.7c-1.6-0.1-2.9-1.6-2.7-3.3l0.9-9.8l-8.6,1
						c-1.6,0.2-3.1-1-3.3-2.6c-0.2-1.6,1-3.1,2.6-3.3L475.8,465.6z"/>
				</g>
			</g>
		</g>
		<g>
			<circle class="st12" cx="488" cy="625" r="25.5"/>
			<circle class="st9" cx="488" cy="625" r="14.5"/>
		</g>
		<ellipse class="st2" cx="620" cy="309" rx="4.2" ry="5.5"/>
		<path class="st2" d="M585.3,445.5c0,0,1.2-2-5.8,6s-14,10-19,8s-6-10,0-11s11.8,0.5,10.4-3.2s-6.4-2.8-6.4-2.8s-1-3.7,3-3.3
			c4,0.3,7,0.6,10,0c3-0.6,3.7-3.2,3.7-3.2l6.3,7.5L585.3,445.5z"/>
		<path class="st6" d="M641.5,339.5c0,0,14-1,14,28s0,38.3-14,44.1l-54,36.9l-10-14l38-27.9c0,0,7.3-3.1,7.2-12.6
			c-0.1-7.5-0.1-29.5,0-38.3c0-3.2,1-6.4,2.9-9C628.3,342.7,633.4,338.3,641.5,339.5z"/>
		<path class="st12" d="M688.5,638.5c0,0-2,10,6,7s2.3,0.6,2.3,0.6l26.7-19c1.9-1.4,2.3-4.1,0.9-6l-4.2-5.3c0,0-10.1,3.8-13.9,8.8
			C702.5,629.5,688.5,638.5,688.5,638.5z"/>
		<path class="st9" d="M613.8,583h-26.9c-0.4-4-0.7-8-1.1-12h27.4L613.8,583z"/>
		<path class="st9" d="M614.6,600h-26.2c-0.3-3.8-0.7-7.8-1.1-12H614L614.6,600z"/>
		<path class="st9" d="M696.1,575.5l-25.7,13.5c-2.4-3.2-4.8-6.5-7.2-9.8l26.9-14.2C692.2,568.5,694.2,572,696.1,575.5z"/>
		<path class="st9" d="M704.5,590.3l-23.8,12.6c-2.3-3.1-4.7-6.4-7.2-9.8l25.1-13.3C700.7,583.5,702.7,587,704.5,590.3z"/>
	</g>
	<g>
		<path class="st18" d="M494.1,347.9l-127.6-14.9c-17.3-2-29.7-17.7-27.7-35.1L366,66c2-17.3,17.7-29.7,35.1-27.7l127.6,14.9
			c17.3,2,29.7,17.7,27.7,35.1l-27.1,231.9C527.2,337.5,511.5,349.9,494.1,347.9z"/>
		<path class="st9" d="M482.5,328.8l-100.3-11.7c-17.3-2-29.7-17.7-27.7-35.1l23.1-197.6c2-17.3,17.7-29.7,35.1-27.7L513,68.4
			c17.3,2,29.7,17.7,27.7,35.1l-23.1,197.6C515.5,318.4,499.8,330.8,482.5,328.8z"/>
		<g>
			<circle class="st19" cx="417.4" cy="130.4" r="23.1"/>
			<g>
				<polygon class="st9" points="413.4,141.6 404.1,129.1 407.8,126.3 414.2,134.9 428.9,123 431.8,126.6 				"/>
			</g>
		</g>
		<g class="st20">
			<circle class="st21" cx="410.6" cy="188.4" r="23.1"/>
			<g>
				<polygon class="st9" points="406.6,199.6 397.3,187.1 401,184.3 407.4,192.9 422.1,181 425,184.6 				"/>
			</g>
		</g>
		<g>
			<circle class="st22" cx="404.4" cy="246.6" r="23.1"/>
			<g>
				<polygon class="st9" points="400.4,257.9 391.1,245.3 394.8,242.5 401.2,251.2 415.9,239.3 418.8,242.9 				"/>
			</g>
		</g>
		<g>
			<g class="st23">
				
					<rect x="467" y="106.6" transform="matrix(0.1013 -0.9949 0.9949 0.1013 294.2071 582.1276)" class="st24" width="4.6" height="43.3"/>
			</g>
			<g class="st23">
				
					<rect x="503.8" y="125.7" transform="matrix(0.12 -0.9928 0.9928 0.12 313.5825 619.2697)" class="st24" width="4.6" height="14.2"/>
			</g>
			<g class="st23">
				
					<rect x="487.1" y="124.2" transform="matrix(0.1108 -0.9938 0.9938 0.1108 290.251 616.1458)" class="st24" width="4.6" height="43.3"/>
			</g>
			<g class="st23">
				
					<rect x="450.2" y="135.4" transform="matrix(9.213714e-02 -0.9957 0.9957 9.213714e-02 268.9304 580.0173)" class="st24" width="4.6" height="14.2"/>
			</g>
		</g>
		<g class="st25">
			<g>
				<g>
					
						<rect x="461.3" y="165" transform="matrix(0.1013 -0.9949 0.9949 0.1013 230.9644 629.0018)" class="st21" width="4.6" height="43.3"/>
				</g>
				<g>
					
						<rect x="498.1" y="184.1" transform="matrix(0.12 -0.9928 0.9928 0.12 250.5676 665.0633)" class="st21" width="4.6" height="14.2"/>
				</g>
				<g>
					
						<rect x="481.5" y="182.7" transform="matrix(0.1108 -0.9938 0.9938 0.1108 227.1219 662.4686)" class="st21" width="4.6" height="43.3"/>
				</g>
				<g>
					
						<rect x="444.5" y="193.9" transform="matrix(9.213714e-02 -0.9957 0.9957 9.213714e-02 205.5835 627.4228)" class="st21" width="4.6" height="14.2"/>
				</g>
			</g>
		</g>
		<g class="st26">
			<g>
				
					<rect x="454.7" y="223.1" transform="matrix(0.1013 -0.9949 0.9949 0.1013 167.2496 674.6365)" class="st21" width="4.6" height="43.3"/>
			</g>
			<g>
				
					<rect x="491.5" y="242.2" transform="matrix(0.12 -0.9928 0.9928 0.12 187.097 709.6259)" class="st21" width="4.6" height="14.2"/>
			</g>
			<g>
				
					<rect x="474.9" y="240.8" transform="matrix(0.1108 -0.9938 0.9938 0.1108 163.5291 707.5561)" class="st21" width="4.6" height="43.3"/>
			</g>
			<g>
				
					<rect x="437.9" y="252" transform="matrix(9.213714e-02 -0.9957 0.9957 9.213714e-02 141.7563 673.5845)" class="st21" width="4.6" height="14.2"/>
			</g>
		</g>
		<g>
			<path class="st27" d="M505.4,74.4l3.1-26.3c0.5-4.2-2.5-8-6.7-8.4L488.4,38c0-0.9,0-1.8-0.1-2.7c-1-12.8-12.3-22.4-25.1-21.4
				c-3.2,0.3-6.2,1.1-8.9,2.5c-6.2,3.2-10.7,9.2-12.1,16.1l-12.8-1.5c-4.2-0.5-8,2.5-8.4,6.7l-3.1,26.3c-0.5,4.2,2.5,8,6.7,8.4
				l72.4,8.5C501.1,81.5,504.9,78.5,505.4,74.4z"/>
			<circle class="st9" cx="466.5" cy="31.6" r="8.1"/>
			<path class="st9" d="M494.6,75.1l-65.6-7.7c-4.2-0.5-7.2-4.3-6.7-8.4v0c0.5-4.2,4.3-7.2,8.4-6.7l65.6,7.7
				c4.2,0.5,7.2,4.3,6.7,8.4v0C502.6,72.6,498.8,75.6,494.6,75.1z"/>
		</g>
	</g>
</g>
</svg>
