<svg version="1.1" id="Layer_1" xmlns="http://www.w3.org/2000/svg" x="0" y="0" viewBox="0 0 873.41 878.83" style="enable-background:new 0 0 873.41 878.83" xml:space="preserve"><style>.st0{fill:#51998a}.st1{fill:#fff}.st3{fill:#fa0}.st11{fill:#d1d3d4}.st13{fill:#f7f7f7}.st15{fill:#ffaa01}.st20{fill:#f9aa38}</style><path class="st0" d="M320.87 396.11S37.98 331.16 158.52 0c0 0 292.66 137.9 162.35 396.11z"/><path class="st1" d="M309.96 382.65a4924.964 4924.964 0 0 1-39.84-91.35c-6.55-15.26-12.93-30.59-19.38-45.89l-19.11-46.01-18.85-46.11c-6.19-15.41-12.48-30.78-18.58-46.23a4926.28 4926.28 0 0 1-36.08-92.9c13.59 30.32 26.88 60.77 39.84 91.34 6.55 15.26 12.92 30.6 19.38 45.89l19.11 46.01 18.85 46.12c6.2 15.41 12.47 30.78 18.58 46.23 12.33 30.84 24.36 61.81 36.08 92.9z"/><path class="st1" d="M324 248.09c-4.31 7.69-8.47 15.36-12.4 23.11-3.9 7.76-7.57 15.6-10.67 23.64-3.12 8.01-5.68 16.23-7.13 24.64-1.44 8.41-1.56 17.05.68 25.61-4.31-7.77-5.5-17.19-4.72-26.1.33-4.49 1.17-8.92 2.22-13.28 1.13-4.34 2.54-8.58 4.09-12.76 1.68-4.13 3.47-8.2 5.46-12.17 2.04-3.94 4.16-7.83 6.53-11.57 4.68-7.51 9.88-14.69 15.94-21.12zM174.28 262.46c3.77-1.4 7.76-2.08 11.75-2.59 2-.28 4-.35 6.01-.52 2.01-.13 4.02-.08 6.03-.13 2.01.03 4.02.1 6.03.21 2.01.13 4 .35 6.01.52 2.01.14 3.98.55 5.97.82 1.99.29 3.97.6 5.94 1.02l5.89 1.25 5.81 1.56c1.93.53 3.86 1.09 5.75 1.74 1.91.61 3.8 1.26 5.68 1.93 3.77 1.34 7.43 2.96 11.11 4.5 3.6 1.74 7.19 3.5 10.67 5.46-3.92-.88-7.72-1.99-11.54-3.04l-5.74-1.49c-1.92-.47-3.78-1.11-5.71-1.53-3.85-.83-7.59-2.04-11.45-2.77l-5.73-1.32-5.75-1.16c-1.91-.45-3.83-.78-5.76-1.11-1.93-.32-3.85-.7-5.78-.96-1.93-.28-3.86-.62-5.8-.86-1.94-.19-3.88-.46-5.82-.7-3.89-.35-7.79-.74-11.72-.86-3.93-.22-7.87-.23-11.85.03zM265.91 124.95c-3.82 7.55-7.44 15.08-10.8 22.69-3.31 7.63-6.42 15.31-8.84 23.19-1.3 3.91-2.35 7.89-3.22 11.89-.96 3.99-1.58 8.04-2.01 12.11-.86 8.15-.45 16.39 1.67 24.6-4.16-7.41-5.88-16.22-5.73-24.82.03-8.66 1.8-17.18 4.33-25.35 1.35-4.06 2.8-8.09 4.51-11.99 1.76-3.88 3.57-7.74 5.67-11.43 4.11-7.42 8.8-14.54 14.42-20.89zM148.2 151.22c7.01-1.35 14.15-1.73 21.28-1.6 7.13.14 14.27.91 21.33 2.39 7.03 1.51 14.01 3.86 20.33 7.61 3.15 1.89 6.08 4.19 8.54 6.94 2.41 2.77 4.34 6.02 5.16 9.51-3.75-6.13-9.51-9.99-15.61-12.85-3.08-1.4-6.28-2.6-9.56-3.55-3.27-1-6.59-1.85-9.97-2.56-3.36-.78-6.76-1.39-10.19-1.93-3.42-.61-6.87-1.02-10.33-1.52-6.93-.88-13.9-1.63-20.98-2.44zM209.01 53.18c-3.75 2.32-7.14 4.8-10.05 7.63-2.91 2.81-5.24 5.98-6.75 9.5-.77 1.75-1.33 3.59-1.67 5.51-.37 1.91-.55 3.89-.55 5.91-.06 4.05.53 8.24 1.16 12.62-2.65-3.56-4.43-7.75-5.24-12.27-.81-4.5-.41-9.45 1.52-13.83 1.89-4.4 5.17-8.09 8.98-10.62 3.83-2.53 8.15-4.19 12.6-4.45zM143 48.99c2.6-2.66 6.03-4.42 9.72-5.39 3.7-.94 7.85-.89 11.64.49.47.17.96.3 1.41.53l1.33.71c.87.51 1.78.94 2.5 1.63.75.65 1.52 1.27 2.23 1.95.62.75 1.22 1.51 1.8 2.28.29.38.59.76.84 1.16l.66 1.27c.43.84.83 1.69 1.21 2.54.58 1.78 1.04 3.58 1.32 5.39-1.34-1.34-2.38-2.76-3.52-4.07a76.09 76.09 0 0 1-1.79-1.84l-.85-.93c-.29-.29-.64-.53-.94-.8a47.6 47.6 0 0 1-1.83-1.6l-1.97-1.3c-.61-.5-1.34-.77-2.03-1.11l-1.02-.53c-.34-.17-.73-.24-1.09-.37-2.87-1.05-6-1.46-9.3-1.36-3.31.11-6.72.6-10.32 1.35z"/><path d="M197.51 333.79S45.62 330.81 71.92 148.24c-.01 0 164.7 39.31 125.59 185.55z" style="fill:#96dac8"/><path class="st1" d="M193.45 328.67a2617.256 2617.256 0 0 1-30.19-42.53c-4.99-7.12-9.9-14.29-14.85-21.44l-14.72-21.52-14.6-21.61c-4.82-7.23-9.69-14.43-14.47-21.69-9.62-14.48-19.1-29.05-28.43-43.73 10.21 14.08 20.28 28.25 30.19 42.53 4.99 7.12 9.9 14.29 14.84 21.44l14.72 21.52 14.59 21.61c4.82 7.23 9.69 14.43 14.47 21.69 9.63 14.49 19.11 29.06 28.45 43.73z"/><path class="st1" d="M186.23 258.23c-1.38 4.4-2.69 8.77-3.88 13.17-1.17 4.39-2.21 8.81-2.94 13.25-.74 4.44-1.17 8.92-1.01 13.39.16 4.46 1.03 8.9 3.09 13.05-3.04-3.52-4.66-8.22-5.21-12.87-.31-2.34-.35-4.7-.29-7.04.11-2.34.38-4.67.73-6.97.42-2.3.9-4.57 1.5-6.82.62-2.24 1.29-4.46 2.11-6.63 1.59-4.34 3.48-8.58 5.9-12.53zM111.06 281.63c1.78-1.12 3.75-1.9 5.74-2.59.99-.36 2.01-.61 3.03-.91 1.02-.28 2.05-.47 3.08-.71 1.03-.2 2.07-.38 3.11-.54 1.04-.15 2.09-.25 3.13-.38 1.05-.14 2.1-.15 3.15-.22 1.05-.06 2.1-.12 3.15-.12l3.15.01 3.14.18c1.05.06 2.09.15 3.13.28 1.04.11 2.08.24 3.12.38 2.07.28 4.12.72 6.17 1.12 2.03.51 4.06 1.02 6.05 1.65-2.1-.03-4.17-.19-6.24-.32l-3.1-.15c-1.03-.04-2.06-.16-3.09-.17-2.06-.01-4.11-.23-6.16-.19l-3.08-.06-3.07.02c-1.02-.02-2.05.01-3.07.05s-2.05.05-3.07.13c-1.02.06-2.04.1-3.06.18-1.02.11-2.04.18-3.06.26-2.03.24-4.07.45-6.1.81-2.01.31-4.03.73-6.05 1.29zM143.28 201.37c-1.15 4.28-2.2 8.52-3.11 12.78-.88 4.26-1.65 8.53-2.05 12.83a60.31 60.31 0 0 0-.38 6.44c-.06 2.15.05 4.29.27 6.42.43 4.26 1.53 8.45 3.49 12.43-2.93-3.35-4.75-7.68-5.6-12.1-.91-4.44-.92-8.99-.5-13.45.25-2.23.57-4.44 1.03-6.63.48-2.18 1-4.35 1.68-6.46 1.33-4.26 2.98-8.41 5.17-12.26zM85.79 227.43c3.45-1.44 7.07-2.4 10.73-3.1a60.5 60.5 0 0 1 11.18-1.06c3.76.02 7.59.48 11.23 1.72 1.81.63 3.57 1.5 5.12 2.64 1.53 1.16 2.87 2.62 3.66 4.32-2.58-2.74-5.94-4.1-9.37-4.91-1.73-.39-3.49-.66-5.28-.8-1.78-.16-3.58-.24-5.38-.24-1.8-.04-3.61.01-5.43.1-1.82.06-3.63.21-5.45.33-3.64.3-7.3.66-11.01 1zM106.45 170.69c-1.67 1.59-3.14 3.22-4.33 4.98-1.19 1.75-2.04 3.63-2.44 5.59-.21.98-.3 1.98-.27 3 .02 1.02.13 2.05.35 3.09.4 2.08 1.15 4.16 1.94 6.34-1.74-1.54-3.1-3.5-4-5.73-.9-2.22-1.22-4.8-.7-7.25.5-2.46 1.78-4.7 3.46-6.4 1.7-1.69 3.73-3.01 5.99-3.62zM72.18 175.61c1.05-1.64 2.62-2.91 4.4-3.8 1.79-.88 3.93-1.3 6.01-.99.26.04.52.05.78.12l.76.22c.5.17 1.01.29 1.45.57.45.25.92.49 1.35.76.4.32.79.65 1.17.98.19.17.38.32.55.51l.47.58c.31.39.61.78.89 1.17.49.85.92 1.72 1.25 2.62-.83-.54-1.51-1.16-2.24-1.71-.38-.25-.76-.5-1.11-.75l-.53-.38c-.18-.12-.39-.2-.57-.31-.38-.2-.75-.41-1.11-.62l-1.15-.46c-.37-.19-.77-.25-1.16-.35l-.58-.16c-.19-.05-.4-.04-.6-.07-1.58-.23-3.23-.1-4.91.3-1.66.39-3.35 1.01-5.12 1.77z"/><g><path class="st3" d="M463.64 649.15s228.84 178.54 409.77-123.9c0 0-291.62-140.1-409.77 123.9z"/><path class="st1" d="M480.97 649.12c32.1-8.59 64.1-17.49 96.01-26.71 15.97-4.55 31.89-9.27 47.84-13.91l47.75-14.19 47.67-14.46c15.86-4.92 31.75-9.74 47.59-14.74a4959.99 4959.99 0 0 0 94.84-30.6c-32.1 8.58-64.11 17.48-96.01 26.7-15.97 4.54-31.89 9.27-47.84 13.91l-47.75 14.2-47.67 14.47c-15.86 4.91-31.75 9.74-47.59 14.74-31.71 9.87-63.32 20.07-94.84 30.59z"/><path class="st1" d="M576.52 553.34c-3.25 8.2-6.58 16.26-10.11 24.2-3.56 7.92-7.33 15.72-11.61 23.19-4.25 7.48-9.01 14.65-14.62 21.08-5.62 6.42-12.25 11.96-20.3 15.63 8.75-1.56 16.8-6.58 23.23-12.8 3.28-3.09 6.18-6.54 8.9-10.1 2.65-3.61 5.06-7.38 7.32-11.22 2.15-3.9 4.17-7.87 5.99-11.91 1.77-4.07 3.45-8.17 4.86-12.37 2.88-8.37 5.17-16.94 6.34-25.7zM659.81 678.58c-1.29-3.81-3.28-7.34-5.4-10.75-1.05-1.73-2.25-3.33-3.39-4.99-1.17-1.64-2.47-3.17-3.71-4.76-1.29-1.54-2.62-3.05-3.97-4.54-1.37-1.48-2.79-2.89-4.19-4.34-1.38-1.47-2.93-2.74-4.4-4.12-1.48-1.36-2.97-2.71-4.53-3.97l-4.68-3.78-4.87-3.52c-1.63-1.17-3.28-2.3-4.98-3.36-1.67-1.1-3.37-2.15-5.08-3.19-3.42-2.08-6.99-3.9-10.5-5.78-3.62-1.69-7.25-3.37-10.96-4.84 3.15 2.49 6.41 4.74 9.64 7.03l4.78 3.51c1.58 1.19 3.25 2.23 4.79 3.46 3.08 2.46 6.37 4.6 9.38 7.14l4.64 3.61 4.53 3.74c1.55 1.2 3.02 2.48 4.49 3.77 1.47 1.29 2.97 2.54 4.39 3.88 1.44 1.32 2.91 2.61 4.33 3.96 1.37 1.38 2.81 2.72 4.22 4.08 2.72 2.8 5.49 5.58 8.06 8.55 2.61 2.91 5.11 5.95 7.41 9.21zM708.71 520.74c-3.45 7.72-7.01 15.28-10.79 22.69-3.83 7.38-7.83 14.64-12.41 21.49-2.22 3.47-4.63 6.8-7.19 10-2.49 3.26-5.25 6.29-8.13 9.2-5.78 5.8-12.44 10.69-20.14 14.23 8.38-1.44 16.3-5.67 22.88-11.21 6.7-5.48 12.19-12.24 16.94-19.34 2.3-3.61 4.51-7.27 6.46-11.07 1.9-3.81 3.75-7.65 5.3-11.61 3.14-7.89 5.7-16.02 7.08-24.38zM762.58 628.64c-3.38-6.29-7.59-12.07-12.18-17.52-4.61-5.45-9.71-10.5-15.31-15.04-5.6-4.5-11.83-8.43-18.73-10.97-3.45-1.25-7.09-2.07-10.77-2.25-3.67-.12-7.4.43-10.63 2 7.12-.96 13.75 1.07 19.82 4 3.03 1.51 5.97 3.23 8.79 5.18 2.83 1.9 5.59 3.95 8.27 6.12 2.72 2.11 5.34 4.37 7.92 6.69 2.63 2.27 5.13 4.69 7.7 7.06 5.05 4.82 10.03 9.75 15.12 14.73zM800.3 519.61c.56 4.37.78 8.57.42 12.61-.34 4.03-1.34 7.84-3.11 11.22-.87 1.7-1.95 3.3-3.22 4.77a30.86 30.86 0 0 1-4.24 4.15c-3.11 2.61-6.72 4.79-10.52 7.06 4.43-.19 8.81-1.45 12.83-3.67 4-2.21 7.59-5.64 9.77-9.91 2.23-4.24 3.01-9.11 2.58-13.67-.48-4.54-1.91-8.93-4.51-12.56zM845.19 568.19c.42-3.7-.38-7.46-1.95-10.94-1.6-3.46-4.26-6.65-7.72-8.72-.43-.25-.84-.55-1.3-.76l-1.39-.58c-.94-.35-1.85-.78-2.84-.91-.98-.18-1.95-.38-2.92-.5-.97-.01-1.95.01-2.91.04-.48.02-.96.02-1.43.09l-1.4.29c-.92.2-1.84.42-2.73.66-1.75.67-3.43 1.45-5.01 2.37 1.89.19 3.64.11 5.37.16.87.09 1.72.17 2.56.23l1.25.07c.41.04.81.17 1.22.23.81.16 1.6.3 2.39.41l2.25.71c.77.16 1.45.55 2.14.87l1.05.46c.35.16.64.41.97.61 2.62 1.56 4.92 3.74 6.92 6.35 2.01 2.64 3.78 5.59 5.48 8.86z"/><g><path class="st0" d="M523.69 648.05s108.93-72.65 173.21-27.71c5.96 4.17 5.83 13.06-.24 17.07-13.8 9.12-32.33 24.63-12.24 31.85l49.62-4.16s71.84 13.71 22.33 40.03l-7.55 4.76s-78.77-1.46-62.53 17.46c16.24 18.93 1.66 21.11 1.66 21.11s-68.84 13.3-129.39-41.64-34.87-58.77-34.87-58.77z"/><path class="st1" d="M528.29 660.26c9.49 2.3 18.97 4.6 28.49 6.7 9.41 2.52 18.86 4.89 28.34 7.16 18.95 4.53 38.03 8.56 57.22 11.9 19.19 3.33 38.5 5.98 57.91 7.27 9.7.6 19.42.88 29.12.54 9.71.08 19.43-.58 29.03-2.39-9.37 2.81-19.17 4.13-28.94 4.9-9.81.34-19.61.07-29.37-.54-19.53-1.3-38.93-3.96-58.18-7.3-19.25-3.36-38.37-7.39-57.37-11.93-9.5-2.26-18.97-4.67-28.41-7.15-4.67-1.43-9.32-2.92-13.97-4.43-4.64-1.51-9.27-3.07-13.87-4.73z"/><path class="st1" d="M616.93 632.94c-6.29 1.06-12.45 2.61-18.4 4.66-6.03 1.71-11.9 4.05-17.15 7.34-5.23 3.27-9.76 7.77-12.18 13.33-1.2 2.77-1.95 5.75-2.06 8.8-.09.76 0 1.52-.01 2.29l.02 1.14.11 1.16.24 2.31c.09.77.26 1.53.39 2.29 1.06 6.12 3.51 11.93 6.81 17.18 1.71 2.59 3.6 5.07 5.69 7.38 2.12 2.29 4.37 4.46 6.78 6.45 4.82 3.98 10.14 7.39 15.72 10.26 5.4 3.24 11.14 5.98 17.1 8.23-3.13-.62-6.22-1.5-9.25-2.52-3.04-1.02-6.05-2.17-9-3.47-5.73-2.94-11.19-6.44-16.18-10.56-2.49-2.06-4.83-4.32-7.03-6.7-2.18-2.41-4.15-5-5.95-7.72-3.47-5.51-6.04-11.64-7.16-18.08-.13-.8-.32-1.6-.41-2.41l-.25-2.43-.12-1.22-.02-1.24c.01-.83-.08-1.65.02-2.48.12-3.32.94-6.62 2.26-9.67 2.68-6.16 7.63-11 13.14-14.45 5.53-3.48 11.62-5.86 17.8-7.66 6.3-1.37 12.7-2.19 19.09-2.21z"/><path class="st1" d="M660.45 647.05c-5.41 1.59-10.69 3.49-15.78 5.73-5.22 1.88-10.27 4.23-14.87 7.22-4.58 2.97-8.71 6.78-11.07 11.54a18.614 18.614 0 0 0-1.93 7.59c-.11 2.64.46 5.28 1.25 7.87.78 2.59 1.97 5.06 3.35 7.41 1.37 2.36 2.98 4.59 4.76 6.69 1.75 2.12 3.67 4.11 5.69 6.01 2 1.91 4.13 3.69 6.32 5.41 4.37 3.43 9.02 6.51 13.82 9.34 4.6 3.18 9.41 6.07 14.36 8.77-5.36-1.78-10.53-4.12-15.63-6.61-4.88-2.87-9.62-6.01-14.1-9.52-2.24-1.75-4.42-3.59-6.49-5.55-2.08-1.95-4.07-4.01-5.9-6.23-1.85-2.19-3.55-4.53-4.99-7.03-1.46-2.49-2.73-5.13-3.58-7.92-.84-2.77-1.48-5.7-1.37-8.7.1-2.99.87-5.96 2.19-8.62 2.67-5.36 7.16-9.42 11.95-12.53 4.82-3.15 10.05-5.53 15.38-7.5 5.46-1.61 11.02-2.8 16.64-3.37zM714.4 706.36c-1.66 1.49-3.9 2.31-6.16 2.66-2.28.34-4.65.22-6.9-.3-4.45-1.35-8.36-3.76-11.94-6.47l-2.61-2.14c-.89-.69-1.64-1.52-2.47-2.27-.8-.78-1.64-1.52-2.4-2.34l-2.26-2.46c-1.48-1.61-3.14-3.28-4.14-5.64-.49-1.16-.76-2.62-.34-4.06.43-1.43 1.46-2.49 2.48-3.21 2.11-1.43 4.37-2.02 6.59-2.53 2.23-.48 4.46-.76 6.69-.95 4.46-.38 8.9-.41 13.33-.32 4.43.1 8.84.35 13.25.7 4.37.73 8.73 1.53 13.03 2.58-4.43-.05-8.83-.11-13.23-.08-4.37-.34-8.74-.59-13.11-.69-4.37-.09-8.74-.06-13.05.31-2.16.18-4.3.46-6.37.9-2.05.46-4.13 1.06-5.67 2.13-.76.54-1.31 1.18-1.52 1.88-.2.7-.1 1.53.26 2.39.72 1.74 2.18 3.3 3.68 4.9l2.2 2.4c.74.79 1.56 1.5 2.33 2.26.8.73 1.53 1.54 2.38 2.2l2.5 2.05c3.42 2.58 7.11 4.86 11.12 6.03 1.94.81 4 1.26 6.11 1.35.53.02 1.06.05 1.59-.02.53-.04 1.07-.08 1.59-.21 1.03-.17 2.08-.5 3.04-1.05z"/></g></g><path d="M256.84 272.41S71.92 230.63 17.31 366.79C-32.86 491.88 38.95 571.8 69.14 598.32c4.03 3.55 66.94 42.15 72.21 43.2 19.09 3.8 50.12 8.83 79.15 133.2 20.77 89.01 303.1 182.96 345.03-46.09 47.36-258.74 61.28-234.71 110.18-288.51 45.09-49.62 154.22-141.52 39.23-307.77-32.56-47.08-85.68-76.27-142.92-77.01-61.87-.81-138.6 30.13-198.01 157.14 0-.01-42.78 104.82-117.17 59.93z" style="fill:#ead9f9"/><path d="M484.72 775.62H253.75c-19.33 0-35-15.67-35-35V176.04c0-19.33 15.67-35 35-35h230.98c19.33 0 35 15.67 35 35v564.58c-.01 19.33-15.68 35-35.01 35z" style="fill:#2d2d2d"/><path d="M519.72 209.25H218.75v-30.08c0-21.06 17.07-38.12 38.12-38.12H481.6c21.06 0 38.12 17.07 38.12 38.12v30.08z" style="fill:#212021"/><path class="st1" d="M229.12 209.25h281.7v499.66h-281.7z"/><g><path d="M420.39 179.89h-91.92c-1.97 0-3.56-1.59-3.56-3.56s1.59-3.56 3.56-3.56h91.92c1.97 0 3.56 1.59 3.56 3.56s-1.6 3.56-3.56 3.56z" style="fill:#6d6e71"/></g><circle cx="309.78" cy="176.48" r="6.8" style="fill:#808285"/><path d="M582.58 427.52v168.62c0 12.62-10.22 22.86-22.84 22.86H309.51c-12.61 0-22.84-10.24-22.84-22.86V427.52h295.91z" style="fill:#395f96"/><g><path style="fill:#f1f2f2" d="M542.32 336.75v261.57H324.9V289.36h182z"/><path class="st1" d="m506.9 289.36-3.62 34.41c-.47 4.45 2.71 8.45 7.15 9.01l31.89 3.98-35.42-47.4z"/><path class="st11" d="M344.87 308.66h39.98v39.98h-39.98zM492.55 322.68h-65.28c-.98 0-1.78-.8-1.78-1.78s.8-1.78 1.78-1.78h65.28c.98 0 1.78.8 1.78 1.78s-.79 1.78-1.78 1.78zM492.55 338.53h-65.28c-.98 0-1.78-.8-1.78-1.78s.8-1.78 1.78-1.78h65.28c.98 0 1.78.8 1.78 1.78s-.79 1.78-1.78 1.78zM514.39 502.44h-65.28c-.98 0-1.78-.8-1.78-1.78s.8-1.78 1.78-1.78h65.28c.98 0 1.78.8 1.78 1.78s-.8 1.78-1.78 1.78zM514.39 518.29h-65.28c-.98 0-1.78-.8-1.78-1.78s.8-1.78 1.78-1.78h65.28c.98 0 1.78.8 1.78 1.78 0 .99-.8 1.78-1.78 1.78zM515.4 380.61h-164c-.98 0-1.78-.8-1.78-1.78s.8-1.78 1.78-1.78h164c.98 0 1.78.8 1.78 1.78s-.8 1.78-1.78 1.78zM515.4 397.89h-164c-.98 0-1.78-.8-1.78-1.78s.8-1.78 1.78-1.78h164c.98 0 1.78.8 1.78 1.78 0 .99-.8 1.78-1.78 1.78zM515.4 415.17h-164c-.98 0-1.78-.8-1.78-1.78s.8-1.78 1.78-1.78h164c.98 0 1.78.8 1.78 1.78 0 .99-.8 1.78-1.78 1.78zM515.4 432.46h-164c-.98 0-1.78-.8-1.78-1.78s.8-1.78 1.78-1.78h164c.98 0 1.78.8 1.78 1.78s-.8 1.78-1.78 1.78zM515.4 449.74h-164c-.98 0-1.78-.8-1.78-1.78s.8-1.78 1.78-1.78h164c.98 0 1.78.8 1.78 1.78s-.8 1.78-1.78 1.78z"/><g><path class="st11" d="M515.4 467.02h-164c-.98 0-1.78-.8-1.78-1.78s.8-1.78 1.78-1.78h164c.98 0 1.78.8 1.78 1.78s-.8 1.78-1.78 1.78z"/></g><g><path class="st11" d="M515.4 484.3h-164c-.98 0-1.78-.8-1.78-1.78s.8-1.78 1.78-1.78h164c.98 0 1.78.8 1.78 1.78s-.8 1.78-1.78 1.78z"/></g></g><path d="M582.58 430.1v166.03c0 12.62-10.22 22.86-22.84 22.86H309.51c-12.61 0-22.84-10.24-22.84-22.86V427.52h9.43l146.14 90.3 140.34-87.72z" style="fill:#456eb7"/><g><path class="st3" d="M204.42 509.16c0 19.82-7.5 37.85-19.84 51.47a76.03 76.03 0 0 1-2.91 3.05c-13.86 13.72-32.92 22.19-53.96 22.19-16.52 0-31.83-5.23-44.36-14.12a75.364 75.364 0 0 1-4.17-3.19C61.99 554.5 51 533.11 51 509.16c0-42.36 34.35-76.7 76.7-76.7 42.38 0 76.72 34.34 76.72 76.7z"/><circle class="st13" cx="131.19" cy="486.64" r="22.52"/><path class="st13" d="M184.58 560.63a76.03 76.03 0 0 1-2.91 3.05c-13.86 13.72-32.92 22.19-53.96 22.19-16.52 0-31.83-5.23-44.36-14.12a75.364 75.364 0 0 1-4.17-3.19c.59-28.8 24.12-51.96 53.08-51.96 26.23.01 48.03 19.02 52.32 44.03z"/></g><g><circle cx="608.18" cy="131.32" r="85.4" style="fill:#8d20e5"/><path class="st15" d="M608.18 103.57a5.93 5.93 0 0 1-5.93-5.93V78.06c0-3.28 2.65-5.93 5.93-5.93s5.93 2.66 5.93 5.93v19.58c0 3.27-2.66 5.93-5.93 5.93z"/><circle cx="608.18" cy="167.42" r="14.4" style="fill:#d68a05"/><path class="st15" d="M572.65 167.42h72.15s-6.13-7.62-7.22-15.77c-.84-6.32-2.54-26-2.73-34.57-.08-3.46-.89-6.88-2.47-9.96-3.32-6.44-10.51-15.65-24.19-14.21-.58.06-1.14.13-1.69.21-14.11 2.02-24.46 14.35-24.65 28.6l-1.57 29.4c-.01-.02-2.19 13.03-7.63 16.3z"/></g><g><circle cx="658.6" cy="381.79" r="85.23" style="fill:#ff515b"/><path d="M658.6 328.65c-29.35 0-53.14 23.79-53.14 53.14 0 7.44 1.53 14.51 4.29 20.94l-15.7 24.86 30.34-5.15c9.25 7.79 21.18 12.49 34.21 12.49 29.35 0 53.14-23.79 53.14-53.14.01-29.35-23.79-53.14-53.14-53.14z" style="fill:#f6fcfc"/><path d="M657.18 405.9v-37.96c-7.06 5.42-11.82 8.13-14.27 8.13-1.17 0-2.2-.47-3.11-1.4-.9-.93-1.36-2.01-1.36-3.23 0-1.42.44-2.46 1.34-3.13.89-.67 2.46-1.53 4.71-2.59 3.36-1.59 6.06-3.25 8.07-5.01 2.02-1.75 3.8-3.71 5.36-5.88 1.56-2.17 2.57-3.5 3.05-4 .47-.5 1.36-.75 2.67-.75 1.47 0 2.66.57 3.55 1.71.89 1.14 1.33 2.71 1.33 4.71v47.77c0 5.59-1.91 8.39-5.72 8.39-1.7 0-3.06-.57-4.09-1.71-1.02-1.14-1.53-2.82-1.53-5.05z" style="fill:#2d2c2c"/><path class="st20" d="M635.94 289.36c-3.28 0-5.93-2.2-5.93-4.91v-27.6c0-2.71 2.65-4.91 5.93-4.91s5.93 2.2 5.93 4.91v27.6c0 2.71-2.66 4.91-5.93 4.91z"/><g><path class="st20" d="M688.65 296.9c-.84 0-1.7-.18-2.51-.56-2.97-1.39-4.24-4.92-2.86-7.89l11.97-25.55a5.932 5.932 0 0 1 7.89-2.86c2.97 1.39 4.24 4.92 2.86 7.89l-11.97 25.55a5.942 5.942 0 0 1-5.38 3.42z"/></g><g><path class="st20" d="M726.73 321.93c-1.53 0-3.06-.59-4.22-1.77-2.3-2.33-2.27-6.09.06-8.39l17.1-16.86c2.33-2.3 6.09-2.27 8.39.06 2.3 2.33 2.27 6.09-.06 8.39l-17.1 16.86a5.897 5.897 0 0 1-4.17 1.71z"/></g></g><g><path d="M224.04 317.65H92.18c-13.46 0-24.37 10.91-24.37 24.37v39.04c0 13.46 10.91 24.37 24.37 24.37h100.14l40.52 31.02-2.46-31.88c10.38-2.8 18.03-12.25 18.03-23.51v-39.04c0-13.46-10.91-24.37-24.37-24.37z" style="fill:#7921cd"/><path class="st1" d="M223.32 350.36H93.86c-1.97 0-3.56-1.59-3.56-3.56s1.59-3.56 3.56-3.56h129.46c1.97 0 3.56 1.59 3.56 3.56s-1.59 3.56-3.56 3.56zM223.61 370.8H94.15c-1.97 0-3.56-1.59-3.56-3.56s1.59-3.56 3.56-3.56h129.46c1.97 0 3.56 1.59 3.56 3.56s-1.6 3.56-3.56 3.56z"/></g></svg>