<svg version="1.1" id="Layer_1" xmlns="http://www.w3.org/2000/svg" x="0" y="0" viewBox="0 0 1000 1000" style="enable-background:new 0 0 1000 1000" xml:space="preserve"><style>.st1{opacity:.08;fill:#231f20}.st2{fill:#cde3de}.st3{fill:#a7a9ac}.st4{fill:#a0dbcd}.st5{opacity:.82}.st7{fill:#fefefe}.st10{fill:#8922e1}.st11{fill:#caa6ee}.st13{fill:#e9daf8}.st15,.st17{fill:#f8bb81}.st17{opacity:.82}.st18{fill:#302721}</style><switch><g><path style="opacity:.14;fill:#caa6ee" d="M0 571.52h1000v271.55H0z"/><ellipse class="st1" cx="217.09" cy="685.66" rx="191.05" ry="12.14"/><path class="st2" d="M291.44 658.39s-174.8-3.36-63.5-145.81c0 0-33.69-60.31 14.03-109.43 0 0 19.15-98.74 19.51-128.5.35-29.76 37.81 29.55 34.93 53.15-2.88 23.6 46.27 49.19 26.49 76.15 0 0 41.61 49.15 12.03 109.29 0 0 130.07-3.85 35.98 107.99a64.707 64.707 0 0 1-28.39 19.52l-51.08 17.64z"/><path class="st3" d="m300.1 675.52-2.03-.09 1.3-30.18-30.86-362.73 2.02-.17 30.87 362.86z"/><path class="st3" d="M297.63 615.83c-30.36-5.23-51.82-18.04-64.49-27.87-13.75-10.67-20.21-19.96-20.48-20.35l1.67-1.15c.26.37 26.41 37.5 83.64 47.37l-.34 2zM301.64 627.16l-.86-1.84c44.73-20.9 68.52-72.63 68.75-73.15l1.85.83c-.24.54-24.34 52.95-69.74 74.16zM289.62 523.4c-41.14-13.88-56.24-46.08-56.38-46.4l1.84-.84c.14.32 14.91 31.73 55.19 45.32l-.65 1.92zM289.44 511.26l-1.04-1.74c22.11-13.27 35.15-29.71 37.72-47.53 1.94-13.45-2.76-23.11-2.81-23.21l1.81-.91c.21.41 5.01 10.23 3.02 24.28-1.83 12.91-10.03 31.9-38.7 49.11zM282.1 437.4c-24.4-15.1-28.72-57.2-28.89-58.99l2.02-.19c.04.43 4.4 42.89 27.94 57.46l-1.07 1.72zM280.71 405.43l-1.56-1.3c24.72-29.74 16.1-60.41 16.01-60.71l1.94-.57c.1.32 9.05 31.98-16.39 62.58z"/><g><path class="st4" d="M159.86 653.71s-240.39 5.75-95.9-196.6c0 0-49.87-80.88 12.79-151.2 0 0 20.46-136.82 19.18-177.74-1.28-40.92 53.7 38.36 51.15 70.97-2.56 32.61 66.49 64.85 40.92 103.07 0 0 60.1 65.07 23.02 149.47 0 0 178.5-13 55.85 146.26a89.002 89.002 0 0 1-37.85 28.5l-69.16 27.27z"/><g class="st5"><path class="st3" d="M172.76 676.73h-2.79v-41.54l-63.92-496.6 2.77-.36 63.94 496.78z"/><path class="st3" d="M165.83 594.87c-42.02-5.39-72.28-21.72-90.27-34.47-19.52-13.84-28.95-26.23-29.35-26.75l2.23-1.68c.38.5 38.51 49.97 117.74 60.13l-.35 2.77zM172.01 610.2l-1.29-2.47c60.22-31.37 89.84-103.86 90.14-104.59l2.59 1.04c-.3.73-30.31 74.18-91.44 106.02zM149.34 468.33c-57.36-16.64-80.01-59.98-80.23-60.42l2.48-1.27c.22.43 22.37 42.72 78.52 59.01l-.77 2.68zM148.37 451.66l-1.54-2.33c29.59-19.54 46.54-42.9 49.01-67.55 1.87-18.6-5.17-31.59-5.24-31.72l2.44-1.35c.31.55 7.49 13.76 5.59 33.18-1.74 17.84-11.87 44.42-50.26 69.77zM133.91 350.61c-34.43-19.3-42.86-76.9-43.2-79.34l2.76-.39c.08.58 8.59 58.68 41.8 77.3l-1.36 2.43zM130.11 306.76l-2.22-1.69c32.2-42.34 18.54-83.96 18.4-84.38l2.64-.9c.14.43 14.31 43.41-18.82 86.97z"/></g></g><g><ellipse class="st1" cx="819.42" cy="647.1" rx="191.05" ry="35.32"/><g style="opacity:.53"><path class="st2" d="m908.01 572.74-54.92 39.81 52.5-21.07c-7.45 31.63-33.56 60.04-105.43 55.04 0 0-58.66 1.92-82.7-38.43l40.62 16.3-48.2-34.92c-3.43-13.71-3.63-30.72 1.05-51.8l35.9 46.29-27.74-63.09h-3.66c.79-2.53 1.64-5.1 2.56-7.74 0 0 4.14-9.98 11.33-23.47l31.54 40.66-23.88-54.28c6.41-10.7 14.18-22.14 22.91-32l32.98 42.54-23.1-52.53c12.81-11.42 27.18-18.32 42.12-14.83 8.95 2.09 17.45 6.5 25.4 12.33l-18.99 43.16 27.85-35.91c9.8 8.87 18.54 19.61 25.92 30.19l-21.75 49.49 29.41-37.92a310.694 310.694 0 0 1 15.72 28.47h-3.37l-27.74 63.08 37-47.69c3.11 10.55 7.39 28.95 6.67 48.32z"/><g class="st5"><g class="st5"><path class="st7" d="M807.72 643.22c-.85 0-1.54-.68-1.55-1.53l-3.05-223.35c-.01-.86.67-1.56 1.53-1.57h.02c.85 0 1.54.68 1.55 1.53l3.05 223.35c.01.86-.67 1.56-1.53 1.57h-.02z"/></g><path class="st7" d="M807.4 619.98h-.02c-31.96-.48-48.51-30.87-48.67-31.18a1.553 1.553 0 0 1 2.74-1.46c.16.29 15.88 29.08 45.98 29.54.86.01 1.54.72 1.53 1.57-.02.85-.71 1.53-1.56 1.53zM806.89 582.51c-.75 0-1.41-.54-1.53-1.31a1.55 1.55 0 0 1 1.29-1.78c34.14-5.48 46.25-37.11 46.36-37.43.3-.8 1.19-1.22 1.99-.92.8.3 1.21 1.19.92 1.99-.12.34-12.87 33.65-48.78 39.41-.09.04-.17.04-.25.04zM806.59 534.26c-31.11 0-40.34-33.67-40.43-34.02-.22-.83.28-1.68 1.1-1.9.82-.22 1.68.28 1.9 1.1.35 1.31 8.73 31.7 37.41 31.7.26 0 .53 0 .79-.01h.03c.84 0 1.53.67 1.55 1.52.02.86-.67 1.57-1.52 1.58-.27.03-.55.03-.83.03zM806.19 501.4c-.84 0-1.53-.67-1.55-1.51-.02-.86.65-1.57 1.51-1.59 16.39-.44 24.95-23.41 25.03-23.64.29-.8 1.19-1.22 1.99-.93.8.29 1.22 1.18.93 1.99-.37 1.03-9.36 25.19-27.87 25.68h-.04zM804.67 466.78c-.22 0-.45-.05-.66-.15-9.57-4.54-12.59-17.12-12.72-17.65-.19-.83.32-1.67 1.16-1.86.83-.19 1.67.32 1.86 1.16.03.12 2.82 11.66 11.02 15.55.77.37 1.1 1.29.74 2.07-.26.55-.82.88-1.4.88z"/></g></g><path class="st4" d="m859.72 603.27-54.92 39.81 52.5-21.07c-7.45 31.63-33.56 60.04-105.43 55.04 0 0-58.66 1.92-82.7-38.43l40.62 16.3-48.2-34.92c-3.43-13.71-3.63-30.72 1.05-51.8l35.9 46.29-27.74-63.09h-3.66c.79-2.53 1.64-5.1 2.56-7.74 0 0 4.14-9.98 11.33-23.47l31.54 40.66-23.88-54.28c6.41-10.7 14.18-22.14 22.91-32l32.98 42.54-23.1-52.53c12.81-11.42 27.18-18.32 42.12-14.83 8.95 2.09 17.45 6.5 25.4 12.33l-19 43.16 27.85-35.91c9.8 8.87 18.54 19.61 25.92 30.19l-21.75 49.49 29.41-37.92a310.694 310.694 0 0 1 15.72 28.47h-3.37l-27.74 63.08 37-47.69c3.11 10.55 7.39 28.95 6.68 48.32z"/><g class="st5"><g class="st5"><path class="st7" d="M759.42 673.75c-.85 0-1.54-.68-1.55-1.53l-3.05-223.35c-.01-.86.67-1.56 1.53-1.57h.02c.85 0 1.54.68 1.55 1.53l3.05 223.35c.01.86-.67 1.56-1.53 1.57h-.02z"/></g><path class="st7" d="M759.11 650.51h-.02c-31.96-.48-48.51-30.87-48.67-31.18a1.553 1.553 0 0 1 2.74-1.46c.16.29 15.88 29.08 45.98 29.54.86.01 1.54.72 1.53 1.57-.02.85-.72 1.53-1.56 1.53zM758.59 613.04c-.75 0-1.41-.54-1.53-1.31a1.55 1.55 0 0 1 1.29-1.78c34.14-5.48 46.25-37.11 46.36-37.43.3-.8 1.19-1.22 1.99-.92.8.3 1.21 1.19.92 1.99-.12.34-12.87 33.65-48.78 39.41-.08.04-.16.04-.25.04zM758.3 564.79c-31.11 0-40.34-33.67-40.43-34.02-.22-.83.28-1.68 1.1-1.9.82-.22 1.68.28 1.9 1.1.35 1.31 8.73 31.7 37.41 31.7.26 0 .53 0 .79-.01h.03c.84 0 1.53.67 1.55 1.52.02.86-.67 1.57-1.52 1.58-.27.03-.56.03-.83.03zM757.9 531.93c-.84 0-1.53-.67-1.55-1.51-.02-.86.65-1.57 1.51-1.59 16.39-.44 24.95-23.41 25.03-23.64.29-.8 1.19-1.22 1.99-.93.8.29 1.22 1.18.93 1.99-.37 1.03-9.36 25.19-27.87 25.68h-.04zM756.38 497.31c-.22 0-.45-.05-.66-.15-9.57-4.54-12.59-17.12-12.72-17.65-.19-.83.32-1.67 1.16-1.86.83-.19 1.67.32 1.86 1.16.03.12 2.82 11.66 11.02 15.55.77.37 1.1 1.29.74 2.07-.27.55-.82.88-1.4.88z"/></g><g><path class="st2" d="M979.18 622.15 946.28 646l31.45-12.62c-4.46 18.95-20.1 35.97-63.16 32.98 0 0-35.14 1.15-49.55-23.02l24.33 9.77-28.88-20.92c-2.05-8.22-2.17-18.4.63-31.03l21.51 27.73L866 591.08h-2.19c.47-1.51.99-3.06 1.53-4.64 0 0 2.48-5.98 6.78-14.06l18.89 24.36-14.3-32.52c3.84-6.41 8.49-13.26 13.73-19.17l19.76 25.48-13.84-31.47c7.68-6.84 16.28-10.98 25.23-8.89 5.36 1.25 10.46 3.89 15.21 7.39l-11.38 25.86 16.68-21.52c5.87 5.32 11.11 11.75 15.53 18.09l-13.03 29.65 17.62-22.71c4.36 6.99 7.58 13.27 9.41 17.05h-2.02l-16.62 37.79 22.17-28.57c1.88 6.32 4.45 17.34 4.02 28.95z"/><g class="st5"><g class="st5"><path class="st7" d="M919.1 664.37c-.51 0-.92-.41-.93-.92l-1.83-133.81c-.01-.51.4-.93.92-.94h.01c.51 0 .92.41.93.92l1.83 133.81c.01.51-.4.93-.92.94h-.01z"/></g><path class="st7" d="M918.91 650.45h-.01c-19.14-.29-29.06-18.5-29.16-18.68a.938.938 0 0 1 .38-1.26.936.936 0 0 1 1.26.38c.09.17 9.52 17.42 27.55 17.7.51.01.92.43.92.94-.02.52-.44.92-.94.92zM918.6 628.01c-.45 0-.84-.32-.92-.78a.92.92 0 0 1 .77-1.06c20.46-3.28 27.71-22.23 27.78-22.42a.926.926 0 1 1 1.74.64c-.07.2-7.71 20.16-29.22 23.61-.05 0-.1.01-.15.01zM918.42 599.1c-18.64 0-24.16-20.17-24.22-20.38-.13-.5.17-1 .66-1.14.49-.13 1 .17 1.14.66.21.78 5.23 18.99 22.41 18.99h.5c.51 0 .92.4.93.91.01.51-.4.94-.91.95-.18.01-.34.01-.51.01zM918.18 579.41c-.5 0-.91-.4-.93-.9-.01-.51.39-.94.9-.95 9.82-.26 14.95-14.02 15-14.16a.94.94 0 0 1 1.19-.56c.48.18.73.71.56 1.19-.22.62-5.61 15.09-16.69 15.39-.01-.01-.02-.01-.03-.01zM917.27 558.67c-.13 0-.27-.03-.4-.09-5.73-2.72-7.54-10.25-7.62-10.57a.93.93 0 1 1 1.81-.43c.02.07 1.69 6.99 6.6 9.32.46.22.66.77.44 1.24a.91.91 0 0 1-.83.53z"/></g></g></g><path d="M533.87 564.21v39s147.69 4.48 151.52-10.87v-28.13H533.87z" style="fill:#6f7070"/><g><path style="fill:#fff;stroke:#caa6ee;stroke-width:3;stroke-miterlimit:10" d="M271.1 90.67h505.5v542.16H271.1z"/><path class="st10" d="M590 189.56H446.79c-5.83 0-10.55-4.72-10.55-10.55 0-5.83 4.72-10.55 10.55-10.55H590c5.83 0 10.55 4.72 10.55 10.55 0 5.82-4.73 10.55-10.55 10.55z"/><path class="st11" d="M407.79 279.06h-40.92c-4.41 0-7.99-3.58-7.99-7.99s3.58-7.99 7.99-7.99h40.92c4.41 0 7.99 3.58 7.99 7.99s-3.58 7.99-7.99 7.99zM488.98 279.06h-56.26c-4.41 0-7.99-3.58-7.99-7.99s3.58-7.99 7.99-7.99h56.26c4.41 0 7.99 3.58 7.99 7.99s-3.57 7.99-7.99 7.99zM450.62 482.97h-80.24c-4.41 0-7.99-3.58-7.99-7.99s3.58-7.99 7.99-7.99h80.24c4.41 0 7.99 3.58 7.99 7.99a7.98 7.98 0 0 1-7.99 7.99zM566.34 482.97H486.1c-4.41 0-7.99-3.58-7.99-7.99s3.58-7.99 7.99-7.99h80.24c4.41 0 7.99 3.58 7.99 7.99a7.98 7.98 0 0 1-7.99 7.99zM491.54 378.92h-56.26c-4.41 0-7.99-3.58-7.99-7.99s3.58-7.99 7.99-7.99h56.26c4.41 0 7.99 3.58 7.99 7.99s-3.58 7.99-7.99 7.99z"/><path d="M572.09 407.28H403.95c-4.41 0-7.99-3.58-7.99-7.99s3.58-7.99 7.99-7.99h168.14c4.41 0 7.99 3.58 7.99 7.99s-3.58 7.99-7.99 7.99z" style="fill:none;stroke:#fff;stroke-miterlimit:10"/><path class="st13" d="M574.65 439.12H406.51c-4.41 0-7.99-3.58-7.99-7.99s3.58-7.99 7.99-7.99h168.14c4.41 0 7.99 3.58 7.99 7.99 0 4.42-3.58 7.99-7.99 7.99zM574.65 407.28H406.51c-4.41 0-7.99-3.58-7.99-7.99s3.58-7.99 7.99-7.99h168.14c4.41 0 7.99 3.58 7.99 7.99s-3.58 7.99-7.99 7.99z"/><path class="st11" d="M413.43 377.81h-44.47a6.88 6.88 0 1 1 0-13.76h44.47a6.88 6.88 0 1 1 0 13.76z"/><path class="st10" d="M608.54 220.24H435.28c-5.83 0-10.55-4.72-10.55-10.55 0-5.83 4.72-10.55 10.55-10.55h173.26c5.83 0 10.55 4.72 10.55 10.55 0 5.83-4.73 10.55-10.55 10.55z"/><path class="st11" d="M513.82 331.07H357.38v-38.8h156.44v38.8zm-153.44-3h150.44v-32.8H360.38v32.8zM685.16 534.31H358.02v-38.8h327.14v38.8zm-324.14-3h321.14v-32.8H361.02v32.8zM683.67 331.07H527.23v-38.8h156.44v38.8zm-153.44-3h150.44v-32.8H530.23v32.8zM375.4 409.22c-6.38 0-11.57-5.19-11.57-11.57s5.19-11.57 11.57-11.57 11.57 5.19 11.57 11.57-5.19 11.57-11.57 11.57zm0-20.14c-4.73 0-8.57 3.84-8.57 8.57s3.84 8.57 8.57 8.57 8.57-3.84 8.57-8.57-3.85-8.57-8.57-8.57z"/><circle class="st11" cx="375.4" cy="429.59" r="10.07"/></g><g><ellipse class="st1" cx="621.89" cy="805.09" rx="154.72" ry="23.43"/><ellipse cx="594.61" cy="333.41" rx="21.74" ry="27.49" style="fill:#fbcb8e"/><path class="st15" d="m643.2 436.34 13.43 42.2-19.18 65.85 8.74 19.82 31.11-74.16s5.97-10.23 0-26.85-15.56-47.31-15.56-47.31l-18.54 20.45zM541.54 415.88l-5.9 37.93s-23.87-26.71-51.15-41.2l-8.52-23.02-15.34-12.79s-4.55 2.27 0 6.25l4.55 3.98s3.98 5.11-1.14 9.95c0 0-15.06 3.69-3.41 15.63 0 0 5.11 5.68 14.49 9.38l16.76 19.89 42.05 41.09s15.63 7.5 21.03-3.59c5.4-11.08 11.37-50.58 11.37-50.58l-24.79-12.92z"/><path d="M591.63 383.63s20.74 21.88 38.08 0c0 0 20.17-3.41 30.12 17.33s12.22 27.28 12.22 27.28-25.01 6.54-28.13 15.06c-3.13 8.52-13.64 27.28-6.25 51.43 7.39 24.15 15.06 24.72 10.8 36.37 0 0-30.26-3.13-41.27 0 0 0-39.14-14.49-56.76 1.7 0 0 11.37-42.62 11.51-52.57s2.7-49.16 2.7-49.16-14.49-7.39-25.57-8.52c0 0-3.13-34.38 22.87-37.51-.02.01 11.21-7.09 29.68-1.41z" style="fill:#ffb800"/><path class="st17" d="m575.86 730.01 4.69 43.05s-.43 10.66-8.1 13.64c-7.67 2.98-15.77 8.95-15.77 8.95s2.56 7.25 19.18 2.98c16.62-4.26 24.29-10.23 24.29-10.23s-3.41-7.25-3.41-11.93 5.11-49.87 5.11-49.87l-25.99 3.41z"/><path class="st18" d="M568.04 786.55s-12.5 8.81-4.55 9.95c7.96 1.14 34.92-12.41 34.92-12.41s6.36 6.74 4.15 15.4a4.273 4.273 0 0 1-2.55 2.92c-5.4 2.14-20.74 4.15-40.77 1.19-.01 0-24.44-6.82 8.8-17.05z"/><path class="st17" d="m646.18 725.75 17.05 66.91 14.07-1.7-3.41-72.03z"/><path class="st18" d="M658.97 795.93s-3.41-21.03 11.93-16.2c0 0 9.95 2.69 19.61 20.24 0 0 3.69 13.29-5.4 12.72l-18.47.02s-4.97-1.3-4.9-7.62c.07-6.32-2.77-9.16-2.77-9.16z"/><path d="M647.04 527.13s27.28 57.97 17.05 80.98c-10.23 23.02-.43 53.7 5.11 67.34s8.1 48.59 8.1 48.59l-32.39 5.97s-4.69-30.26-14.07-52.85-23.66-84.39-23.66-84.39 5.33 55.84-4.05 80.56c0 0-1.7 13.21 0 36.66 1.7 23.44-.76 22.16-.76 22.16s-21.41 6.42-29.08.01c0 0-6.39-44.77-2.13-56.7 0 0-3.13-21.74-9.24-28.13s-15.49-58.39-15.49-58.39-4.26-47.32 6.39-65.43c.02-.01 86.97-2.78 94.22 3.62z" style="fill:#355389"/><path d="M586.94 305.92s-5.75 5.75-2.56 27.49c3.2 21.74-6.68 36.58-6.68 36.58s-23.58 13.07-13.07 18.47c0 0 12.79 1.42 13.92 6.54 1.14 5.11 4.55 12.22 16.05 15.06 0 0 4.4 19.89 25.43 15.06s18.19-19.04 18.19-19.04-.57-10.51 9.66-11.37c10.23-.85 0-6.54 0-6.54s-8.24-4.83-7.39-11.93c.85-7.1-5.4-38.64-5.4-38.64s-.28-17.62-12.79-25.01c.01 0-17.6-17.9-35.36-6.67z" style="fill:#323234"/></g></g></switch></svg>