<svg version="1.1" id="Layer_1" xmlns="http://www.w3.org/2000/svg" x="0" y="0" viewBox="0 0 1000 1000" style="enable-background:new 0 0 1000 1000" xml:space="preserve"><style>.st1{fill:#ef505d}.st3,.st5{fill:#862ee1}.st5{opacity:.22}.st10{fill:#e8e8e8}.st12{fill:#666}.st13{fill:#fbaa11}.st15{fill:#504a57}.st16{fill:#f9f3d9}</style><switch><g><path d="M487.82 21.54s43.36 27.77 80.88 24.85c37.52-2.92 90.14-14.62 106.22 16.08 0 0-30.7-17.54-76.01 20.46s-90.63 58.47-108.17 40.93c-17.53-17.54-2.92-102.32-2.92-102.32z" style="opacity:.83;fill:#862ee1"/><path class="st1" d="M916.83 415.85H56.64c-12.75 0-20.85-14.09-14.74-25.65l57.3-108.48c2.93-5.55 8.56-9.01 14.68-9.04l753.41-2.96c6.59-.03 12.59 3.93 15.33 10.12l49.47 111.44c5.11 11.49-3.02 24.57-15.26 24.57z"/><path d="M471.84 190.5 196.21 415.85h584.26L501.69 190.42c-8.72-7.05-21.17-7.01-29.85.08z" style="fill:#cc324c"/><path class="st3" d="m480.37 224.33-210.83 174.4c-6.99 5.78-2.9 17.13 6.17 17.13h424c9.09 0 13.16-11.4 6.13-17.16L492.67 224.3a9.666 9.666 0 0 0-12.3.03z"/><path style="fill:#e5d1f7" d="M99.01 415.85h783.47v444.36H99.01z"/><path class="st5" d="M684.67 415.85h197.82v444.36H684.67z"/><path style="fill:none;stroke:#fff;stroke-miterlimit:10" d="M99.01 415.85h190.02v444.36H99.01z"/><path class="st5" d="M99.01 415.85h190.02v444.36H99.01z"/><path d="M500.33 189.32h-27.12V31.03c0-7.05 5.72-12.76 12.76-12.76h1.59c7.05 0 12.76 5.72 12.76 12.76v158.29z" style="fill:#4f4f4f"/><path style="fill:#3470b9" d="M378.19 675.64h220.72v184.57H378.19z"/><path class="st3" d="M918.97 918.68H54.5c-8.1 0-14.68-6.57-14.68-14.68v-29.12c0-8.1 6.57-14.68 14.68-14.68h864.47c8.1 0 14.68 6.57 14.68 14.68V904c-.01 8.11-6.58 14.68-14.68 14.68z"/><path style="fill:#d0d0d0" d="M348.47 860.21h278.7v29.23h-278.7z"/><path class="st10" d="M319.73 889.45h336.68v29.23H319.73z"/><path style="fill:#8398cc" d="M404.51 693.09h164.2v167.12h-164.2z"/><path class="st10" d="M480.43 693.09h14.13v167.12h-14.13z"/><path class="st12" d="M445.92 772.02h19.98v7.8h-19.98zM509.26 772.02h18.03v7.8h-18.03z"/><circle class="st13" cx="486.73" cy="385.45" r="96.07"/><circle cx="486.73" cy="385.45" r="70.45" style="fill:#eee"/><path class="st15" d="M487.85 408.54h-1.52c-6.71 0-12.15-5.44-12.15-12.15v-49.75c0-6.71 5.44-12.15 12.15-12.15h1.52c6.71 0 12.15 5.44 12.15 12.15v49.75c0 6.71-5.44 12.15-12.15 12.15z"/><path class="st1" d="M486.59 412.93h-28.23c-6.33 0-11.46-5.13-11.46-11.46v-1.43c0-6.33 5.13-11.46 11.46-11.46h28.23c6.33 0 11.46 5.13 11.46 11.46v1.43c0 6.33-5.13 11.46-11.46 11.46z"/><path class="st13" d="M837.7 678.96H729.45c-6.84 0-12.38-5.54-12.38-12.38V597.8c0-6.84 5.54-12.38 12.38-12.38H837.7c6.84 0 12.38 5.54 12.38 12.38v68.78c0 6.84-5.54 12.38-12.38 12.38z"/><path class="st16" d="M828.69 672.63h-90.24c-6.84 0-12.38-5.54-12.38-12.38v-56.12c0-6.84 5.54-12.38 12.38-12.38h90.24c6.84 0 12.38 5.54 12.38 12.38v56.12c.01 6.83-5.54 12.38-12.38 12.38z"/><path class="st13" d="M778.95 591.74h12.67v80.88h-12.67z"/><g><path class="st13" d="M837.7 818.8H729.45c-6.84 0-12.38-5.54-12.38-12.38v-68.78c0-6.84 5.54-12.38 12.38-12.38H837.7c6.84 0 12.38 5.54 12.38 12.38v68.78c0 6.83-5.54 12.38-12.38 12.38z"/><path class="st16" d="M828.69 812.46h-90.24c-6.84 0-12.38-5.54-12.38-12.38v-56.12c0-6.84 5.54-12.38 12.38-12.38h90.24c6.84 0 12.38 5.54 12.38 12.38v56.12c.01 6.84-5.54 12.38-12.38 12.38z"/><path class="st13" d="M778.95 731.58h12.67v80.88h-12.67z"/></g><g><path class="st13" d="M837.7 528.29H729.45c-6.84 0-12.38-5.54-12.38-12.38v-68.78c0-6.84 5.54-12.38 12.38-12.38H837.7c6.84 0 12.38 5.54 12.38 12.38v68.78c0 6.84-5.54 12.38-12.38 12.38z"/><path class="st16" d="M828.69 521.96h-90.24c-6.84 0-12.38-5.54-12.38-12.38v-56.12c0-6.84 5.54-12.38 12.38-12.38h90.24c6.84 0 12.38 5.54 12.38 12.38v56.12c.01 6.83-5.54 12.38-12.38 12.38z"/><path class="st13" d="M778.95 441.08h12.67v80.88h-12.67z"/></g><g><path class="st13" d="M250.34 676.73H142.09c-6.84 0-12.38-5.54-12.38-12.38v-68.78c0-6.84 5.54-12.38 12.38-12.38h108.25c6.84 0 12.38 5.54 12.38 12.38v68.78c0 6.83-5.54 12.38-12.38 12.38z"/><path class="st16" d="M241.33 670.39h-90.24c-6.84 0-12.38-5.54-12.38-12.38v-56.12c0-6.84 5.54-12.38 12.38-12.38h90.24c6.84 0 12.38 5.54 12.38 12.38v56.12c0 6.84-5.54 12.38-12.38 12.38z"/><path class="st13" d="M191.58 589.51h12.67v80.88h-12.67z"/><g><path class="st13" d="M250.34 816.56H142.09c-6.84 0-12.38-5.54-12.38-12.38V735.4c0-6.84 5.54-12.38 12.38-12.38h108.25c6.84 0 12.38 5.54 12.38 12.38v68.78c0 6.84-5.54 12.38-12.38 12.38z"/><path class="st16" d="M241.33 810.23h-90.24c-6.84 0-12.38-5.54-12.38-12.38v-56.12c0-6.84 5.54-12.38 12.38-12.38h90.24c6.84 0 12.38 5.54 12.38 12.38v56.12c0 6.84-5.54 12.38-12.38 12.38z"/><path class="st13" d="M191.58 729.35h12.67v80.88h-12.67z"/></g><g><path class="st13" d="M250.34 526.06H142.09c-6.84 0-12.38-5.54-12.38-12.38V444.9c0-6.84 5.54-12.38 12.38-12.38h108.25c6.84 0 12.38 5.54 12.38 12.38v68.78c0 6.83-5.54 12.38-12.38 12.38z"/><path class="st16" d="M241.33 519.72h-90.24c-6.84 0-12.38-5.54-12.38-12.38v-56.12c0-6.84 5.54-12.38 12.38-12.38h90.24c6.84 0 12.38 5.54 12.38 12.38v56.12c0 6.84-5.54 12.38-12.38 12.38z"/><path class="st13" d="M191.58 438.84h12.67v80.88h-12.67z"/></g></g><g><path class="st1" d="M479.54 557.34 350.38 661.63c-7.1 5.73-3.05 17.2 6.08 17.2h259.75c9.15 0 13.19-11.52 6.04-17.23l-130.6-104.29a9.671 9.671 0 0 0-12.11.03z"/><path class="st1" d="M347.41 664.83h278.7v28.26h-278.7z"/></g><g><path class="st15" d="M397.36 525.71c0 2.76-.71 5.24-2.13 7.44s-3.5 3.92-6.24 5.17-5.99 1.87-9.74 1.87c-4.5 0-8.22-.85-11.14-2.55-2.08-1.22-3.76-2.86-5.06-4.9-1.3-2.04-1.95-4.03-1.95-5.96 0-1.12.39-2.08 1.17-2.88.78-.8 1.77-1.2 2.97-1.2.98 0 1.8.31 2.47.93.67.62 1.25 1.55 1.73 2.77.58 1.45 1.21 2.67 1.88 3.64.67.98 1.62 1.78 2.85 2.41 1.22.63 2.83.95 4.82.95 2.74 0 4.96-.64 6.68-1.91 1.71-1.28 2.57-2.87 2.57-4.78 0-1.51-.46-2.74-1.39-3.69-.92-.94-2.12-1.67-3.58-2.16-1.46-.5-3.42-1.03-5.87-1.59-3.28-.77-6.02-1.67-8.23-2.69-2.21-1.03-3.96-2.43-5.26-4.2-1.3-1.77-1.95-3.98-1.95-6.61 0-2.51.68-4.74 2.05-6.69 1.37-1.95 3.35-3.45 5.95-4.5 2.59-1.05 5.64-1.57 9.15-1.57 2.8 0 5.22.35 7.27 1.04 2.04.7 3.74 1.62 5.09 2.77 1.35 1.15 2.33 2.36 2.96 3.63s.93 2.5.93 3.7c0 1.1-.39 2.09-1.17 2.97-.78.88-1.75 1.32-2.91 1.32-1.06 0-1.86-.26-2.41-.79s-1.15-1.4-1.79-2.6c-.83-1.72-1.83-3.07-2.99-4.03-1.16-.96-3.03-1.45-5.6-1.45-2.39 0-4.31.52-5.77 1.57s-2.19 2.31-2.19 3.78c0 .91.25 1.7.75 2.37s1.18 1.23 2.05 1.71c.87.48 1.75.85 2.65 1.12.89.27 2.37.66 4.42 1.18 2.57.6 4.9 1.27 6.99 1.99 2.09.73 3.86 1.61 5.32 2.65a10.91 10.91 0 0 1 3.42 3.94c.82 1.58 1.23 3.52 1.23 5.83zM444.08 524.99c0 1.45-.36 3.02-1.07 4.72-.72 1.69-1.84 3.35-3.38 4.98-1.54 1.63-3.5 2.95-5.88 3.97-2.39 1.02-5.17 1.53-8.34 1.53-2.41 0-4.6-.23-6.57-.68-1.97-.46-3.76-1.17-5.37-2.13-1.61-.96-3.09-2.24-4.44-3.81-1.2-1.43-2.23-3.03-3.08-4.81-.85-1.77-1.49-3.67-1.91-5.68-.43-2.01-.64-4.15-.64-6.41 0-3.67.53-6.96 1.6-9.87 1.07-2.91 2.6-5.39 4.59-7.45 1.99-2.06 4.33-3.64 7-4.72 2.68-1.08 5.53-1.62 8.56-1.62 3.69 0 6.98.74 9.87 2.21 2.88 1.47 5.09 3.29 6.63 5.46s2.3 4.22 2.3 6.15c0 1.06-.37 1.99-1.12 2.8-.75.81-1.65 1.21-2.71 1.21-1.18 0-2.07-.28-2.66-.84s-1.25-1.53-1.98-2.89c-1.2-2.26-2.62-3.95-4.25-5.07s-3.64-1.68-6.02-1.68c-3.8 0-6.82 1.44-9.07 4.33-2.25 2.88-3.38 6.98-3.38 12.29 0 3.55.5 6.5 1.49 8.86s2.41 4.11 4.23 5.28c1.83 1.16 3.96 1.74 6.41 1.74 2.66 0 4.9-.66 6.74-1.98s3.22-3.25 4.16-5.81c.39-1.2.88-2.18 1.46-2.94.58-.76 1.51-1.14 2.8-1.14 1.1 0 2.04.38 2.83 1.15.81.75 1.2 1.71 1.2 2.85zM461.7 498.59v13.07h19.95v-13.07c0-1.87.42-3.27 1.26-4.2.84-.93 1.95-1.4 3.31-1.4 1.39 0 2.52.46 3.38 1.39.86.92 1.29 2.33 1.29 4.22v35.95c0 1.89-.44 3.3-1.31 4.23-.87.93-1.99 1.4-3.36 1.4-1.39 0-2.5-.47-3.33-1.42-.83-.94-1.25-2.35-1.25-4.22V519.2H461.7v15.35c0 1.89-.44 3.3-1.31 4.23-.87.93-1.99 1.4-3.36 1.4-1.39 0-2.5-.47-3.33-1.42-.83-.94-1.25-2.35-1.25-4.22v-35.95c0-1.87.41-3.27 1.23-4.2.82-.93 1.93-1.4 3.35-1.4 1.39 0 2.52.46 3.38 1.39.86.92 1.29 2.33 1.29 4.21zM520.9 492.99c4.73 0 8.79.96 12.19 2.88 3.39 1.92 5.96 4.65 7.7 8.19 1.74 3.54 2.61 7.69 2.61 12.47 0 3.53-.48 6.73-1.43 9.62-.95 2.88-2.39 5.38-4.3 7.5-1.91 2.12-4.25 3.74-7.03 4.86-2.78 1.12-5.97 1.68-9.56 1.68-3.57 0-6.77-.58-9.59-1.73-2.82-1.15-5.18-2.78-7.07-4.87-1.89-2.1-3.31-4.62-4.28-7.56-.96-2.95-1.45-6.13-1.45-9.56 0-3.51.5-6.72 1.51-9.65 1.01-2.93 2.46-5.42 4.37-7.47 1.91-2.05 4.23-3.63 6.97-4.72 2.76-1.09 5.88-1.64 9.36-1.64zm13.14 23.47c0-3.34-.54-6.24-1.62-8.68-1.08-2.45-2.62-4.3-4.62-5.56-2-1.26-4.3-1.88-6.89-1.88-1.85 0-3.55.35-5.12 1.04-1.57.7-2.92 1.71-4.05 3.03-1.13 1.33-2.02 3.02-2.68 5.09s-.98 4.38-.98 6.96c0 2.59.33 4.94.98 7.03.65 2.1 1.58 3.83 2.77 5.21s2.56 2.41 4.11 3.1c1.54.68 3.24 1.03 5.09 1.03 2.37 0 4.54-.59 6.52-1.77 1.98-1.18 3.56-3.01 4.73-5.48 1.17-2.47 1.76-5.51 1.76-9.12zM571.39 492.99c4.73 0 8.79.96 12.19 2.88 3.39 1.92 5.96 4.65 7.7 8.19 1.74 3.54 2.61 7.69 2.61 12.47 0 3.53-.48 6.73-1.43 9.62-.95 2.88-2.39 5.38-4.3 7.5-1.91 2.12-4.25 3.74-7.03 4.86-2.78 1.12-5.97 1.68-9.56 1.68-3.57 0-6.76-.58-9.59-1.73-2.82-1.15-5.18-2.78-7.07-4.87-1.89-2.1-3.31-4.62-4.28-7.56-.96-2.95-1.45-6.13-1.45-9.56 0-3.51.5-6.72 1.51-9.65s2.46-5.42 4.37-7.47c1.91-2.05 4.23-3.63 6.97-4.72 2.76-1.09 5.87-1.64 9.36-1.64zm13.13 23.47c0-3.34-.54-6.24-1.62-8.68s-2.62-4.3-4.62-5.56c-2-1.26-4.3-1.88-6.89-1.88-1.85 0-3.55.35-5.12 1.04-1.57.7-2.92 1.71-4.05 3.03s-2.02 3.02-2.68 5.09c-.65 2.06-.98 4.38-.98 6.96 0 2.59.33 4.94.98 7.03.65 2.1 1.58 3.83 2.77 5.21s2.56 2.41 4.11 3.1c1.55.68 3.24 1.03 5.09 1.03 2.37 0 4.54-.59 6.52-1.77 1.98-1.18 3.56-3.01 4.73-5.48 1.18-2.47 1.76-5.51 1.76-9.12zM610.86 498.59v33.21h18.74c1.49 0 2.64.36 3.44 1.09.8.73 1.2 1.64 1.2 2.74 0 1.12-.39 2.03-1.18 2.72-.79.7-1.94 1.04-3.46 1.04h-22.32c-2.01 0-3.46-.45-4.34-1.34s-1.32-2.33-1.32-4.33v-35.14c0-1.87.42-3.27 1.26-4.2.84-.93 1.95-1.4 3.31-1.4 1.39 0 2.52.46 3.38 1.39.85.93 1.29 2.34 1.29 4.22z"/></g></g></switch></svg>