<svg version="1.1" id="Layer_1" xmlns="http://www.w3.org/2000/svg" x="0" y="0" viewBox="0 0 1000 798" style="enable-background:new 0 0 1000 798" xml:space="preserve"><style>.st0{fill:#e2d4fd}.st1{fill:#cfb5f6}.st4{fill:#ffd6c4}.st5{fill:#241f26}.st7{fill:#ff4d53}.st8{fill:#fff}.st9{fill:#2e2a1e}.st12{fill:#f8f8f6}.st13{fill:#f8f8f8}</style><path class="st0" d="M821 732.2c-104.7 62.1-277.6 57.4-429.1 20-69.2-17.1-128.4-61.6-164.1-123.3-53.4-92.1-119.4-244-77.2-381.4 5.8-19 13.7-37.7 24-55.9 9.8-17.4 20.6-33.1 32.2-47.4C346.6-26.9 609.7 14.9 679 48.6c71.3 34.7 157.5 85.6 151.5 232.5-6 147 47.8 172.1 62.2 198.4 17.9 32.4 55.2 177.5-71.7 252.7z"/><path class="st0" d="M734.2 737.4c-104.7 62.1-277.6 57.4-429.1 20-69.1-17-128.3-61.6-164.1-123.2-53.4-92.1-119.4-244-77.2-381.4 5.8-19 13.7-37.7 24-55.9 9.8-17.4 20.6-33.1 32.2-47.4C259.9-21.7 522.9 20.1 592.3 53.9c71.3 34.7 157.5 85.6 151.5 232.5-6 147 47.8 172.1 62.2 198.4 17.8 32.4 55.1 177.5-71.8 252.6z"/><path class="st1" d="M773.6 737.5c-104.7 62.1-277.6 57.4-429.1 20-69.2-17.1-128.4-61.6-164.1-123.3-11.4-19.7-23.4-42.1-34.8-66.6-41.9-89.8-75.5-206.8-42.4-314.8 5.8-19 13.7-37.7 24-55.9 9.8-17.4 20.6-33.1 32.2-47.4C299.2-21.7 562.3 20.1 631.6 53.9c71.3 34.7 157.5 85.6 151.5 232.5-6 147 47.8 172.1 62.2 198.4 7.2 13.1 17.6 44.8 19 82.8 2.1 55.7-15.3 125.1-90.7 169.9z"/><path d="M773.6 737.5c-104.7 62.1-277.6 57.4-429.1 20-69.2-17.1-128.4-61.6-164.1-123.3-11.4-19.7-23.4-42.1-34.8-66.6h718.9c1.9 55.7-15.5 125.1-90.9 169.9z" style="fill:#e6e7e8"/><ellipse cx="548.3" cy="703.5" rx="241.8" ry="20.8" style="opacity:.13;fill:#2e2a1e"/><path class="st4" d="m527.7 250.4-26.9 30.8-40.4-17.1c-7.2-9.9-29.6-21.5-29.6-21.5l-38.3-25.3-6.5-4.3c-23.4-23.3-2.7-26.9 8.1-26 10.8.9 7.2 15.6 7.2 15.6l3.5 1.6 66.5 29.6 56.4 16.6zM557.6 229.4l-19.2 16.8 43.1 25.1v-33.5zM552.8 449.7s16.2 24.2-3 54.3c-19.2 30.1-46.1 70.2-46.1 70.2l-31.7-21 35.4-72.1 45.4-31.4z"/><circle class="st5" cx="436.2" cy="645.5" r="11.5"/><circle class="st5" cx="458.2" cy="662.9" r="11.5"/><circle class="st5" cx="501.5" cy="691.5" r="10.5"/><ellipse transform="rotate(-68.155 483.104 676.943)" class="st5" cx="483.1" cy="677" rx="11.5" ry="10.5"/><ellipse class="st4" cx="599.4" cy="208.5" rx="33.4" ry="48.9"/><path d="m532 460.5 28-5.4s-22.1-51.8-36.5-62.7l8.5 68.1z" style="fill:#366296"/><path class="st4" d="m496.7 484.4 41.7 128.1 34.8-12.6-31.5-129.3z"/><path class="st7" d="m511.3 672.4 4.3 6-4.3 6.6s-97.4-66.5-101-72.4c-3.6-6 3.6-4.2 3.6-4.2h18.6l41.9-66.8 2.1 1.1 39 20.1.2.1s-15.5 28.7-20.9 43.1c-5.4 14.4 9 25.1 16.6 40.1 7.5 14.9-.1 26.3-.1 26.3zM646.2 655.6l-118.5 25.7v-6l10.8-10.8c6.6-9-15-84.4-15-84.4l1.7-.5 40.9-12.1.5 1.5 15 44.2s4.8 10 28.7 11.2c24 1.2 22.6 15 22.6 15s8.6 5.4 13.4 6c4.7.6-.1 10.2-.1 10.2z"/><path class="st8" d="M544.5 660.4s2.3 4.8 23.9 0c21.5-4.8 64.5-12.6 64.5-12.6v4.8l-73.6 16.2-20.8 3.6c-.1 0 7.8-4.2 6-12z"/><path class="st8" d="M537.3 637.7s19.9-8.9 28.8 0c8.9 8.9 20.5 12.9 38.2 12.5 0 0-45.5 10.2-62.6 6l-4.4-18.5z"/><path class="st9" d="M610.3 624.5s2.1 9.7-6 18.6h-11.4l8.8-18.6h8.6zM592.9 621.3 581.5 643l-8.3-4.2 15.4-19.4zM541.7 616.7v7.8l39.8-11.2v-11zM541.7 596.3l2.8 6 31.1-6.7-2.4-13.6zM472 567.6l6.6-5.4 29 16-5.5 11zM458.2 582l4.3-4.2 36.4 18.3-4.2 9.8zM468.4 616.1l3.6 8.4s14.3.6 22.7-4.2l-.8-4.2h-25.5zM481.6 633.8l5.4 9.2 18.3-6.8-6.4-5z"/><path class="st8" d="M445.2 589.2s20.9 8.9 20.3 20.9c-.6 12 9.2 36.5 24.4 43.7 0 0-54-40.1-53.5-51.5l8.8-13.1z"/><path class="st8" d="M424.1 613.3s64.1 53.1 77.8 59.1l3.3-3.6s-59.9-37.7-69-56.3l-12.1.8z"/><circle class="st5" cx="412.8" cy="627.6" r="11.5"/><circle class="st5" cx="541.7" cy="689.4" r="11.5"/><circle class="st5" cx="568" cy="683.9" r="10.9"/><circle class="st5" cx="596.8" cy="679" r="10.9"/><ellipse class="st5" cx="623.4" cy="671" rx="9.4" ry="10.9"/><ellipse class="st5" cx="645.4" cy="666" rx="9.4" ry="10.9"/><circle class="st8" cx="413.4" cy="626.3" r="2.6"/><circle class="st8" cx="541.2" cy="687.5" r="2.6"/><circle class="st8" cx="568" cy="683.9" r="2.6"/><circle class="st8" cx="596.8" cy="677.8" r="2"/><circle class="st8" cx="623.4" cy="671" r="1.4"/><circle class="st8" cx="645.4" cy="664.6" r="1"/><circle class="st8" cx="436.2" cy="645" r="1.6"/><circle class="st8" cx="459.5" cy="661.7" r="1.6"/><circle class="st8" cx="483.1" cy="677.4" r="1.6"/><circle class="st8" cx="503.1" cy="690.5" r="1.1"/><path d="M451.4 358.4s-17.1 18.9 5.3 64.6c22.4 45.8 26 66.4 26 66.4s31.4 1.8 65.5-15.3c0 0-10.8-62-25.1-87.1l-71.7-28.6z" style="fill:#4570ad"/><path class="st9" d="M550 179.9s-7.2 44.3 6 53.7 20.7 4.1 23.9 23.9l9.4 19h7l-12.4-26.1s-8.4-8.2-12.8-15.8c-4.4-7.6 1-38.3 1-38.3L550 179.9z"/><path class="st8" d="M515.4 562.7c-5 .8-16.1 1.8-25.6-3.3-7.1-3.8-11.2-11.1-13.3-16.8l38.9 20.1zM566.6 569.1c-3.5 4.5-9 10.2-16.5 13-9.3 3.6-19.5.1-25-2.4l40.9-12.1.6 1.5z"/><path class="st7" d="M640.2 181.5v10.1c-82.6 29.3-101.8-10.1-101.8-10.1 0-1.8.1-3.6.3-5.2 3.2-32.6 35.7-39.1 35.7-39.1 51.4-7.3 63.3 32.1 65.4 42.1.3 1.4.4 2.2.4 2.2z"/><path d="M542 233.6s-26 4.5-66.4 67.3-36.8 53-36.8 53 17.1 26 33.2 29.6c16.2 3.6 47.6 4.5 54.8 20.7 0 0 14.4-37.7 26-47.6 0 0 43.7-54.5 31.1-86.8 0 0-.4-14.7-17.8-23.6-17.5-8.9-24.1-12.6-24.1-12.6z" style="fill:#feac02"/><path class="st4" d="M702.7 296.5c-1.1 2.8-4.4 8-9 14.5-19.1 26.8-60.9 76.1-60.9 76.1s-17.2 15.3-37.8-6.3c-17.2-18-34.5-45.9-44.4-57.3-3.5-4-5.6-9-5.9-14.3-.8-13.9-2.9-37.9 15.3-37.9 21.5 0 18 23.8 18 23.8l35.9 59.7 66.5-50.3s.8-1.1 1.6-2.8c1.8-3.6 4-9.7-1.6-11.6-8.1-2.7 10.8-13.5 10.8-13.5s16.9 5.5 11.5 19.9z"/><ellipse transform="rotate(-74.616 615.576 369.689)" class="st9" cx="615.6" cy="369.7" rx="22.8" ry="29.1"/><ellipse transform="rotate(-72.145 469.994 248.63)" class="st9" cx="470" cy="248.6" rx="19.7" ry="26.8"/><path class="st12" d="M573.2 159.6S578 172 593 182.8c0 0 8.1 1.2 0-9.6s-16-19.4-19.8-13.6zM589.3 152.8s-4.7 2.7 3.3 7.8 11.9 13.5 11.9 13.5 3 9 7.8 7.2c4.8-1.8.3-17.6-5.7-21.7s-13.4-10.4-17.3-6.8zM610.6 151.7s10.8 17.8 10.2 22.3 5.7 8.1 6 0c.2-8-6.3-25.9-16.2-22.3z"/><path class="st9" d="M640.2 181.5v10.1c-82.6 29.3-101.8-10.1-101.8-10.1 0-1.8.1-3.6.3-5.2 3.7 6.6 14.9 19.1 45.2 18.7 31.4-.4 49.2-10.8 55.9-15.7.3 1.4.4 2.2.4 2.2z"/><path class="st12" d="M557.3 155.4c-3.6 1.6-9.5 4.9-10.9 8.8-.3 1 .8 1.8 1.6 1.2 2.8-1.8 8.1-5.3 10.5-8.3.9-.9-.1-2.2-1.2-1.7z"/><circle class="st13" cx="459" cy="250.4" r="1.8"/><circle class="st13" cx="462.8" cy="244.5" r="1.8"/><circle class="st13" cx="459" cy="240.4" r="1.8"/><circle class="st13" cx="470" cy="244.5" r="1.8"/><circle class="st13" cx="473.6" cy="240.4" r="1.8"/><circle class="st13" cx="466.4" cy="250.4" r="1.8"/><circle class="st13" cx="471.8" cy="250.4" r="1.8"/><circle class="st13" cx="479" cy="252.2" r="1.8"/><circle class="st13" cx="475.4" cy="246.3" r="1.8"/><circle class="st13" cx="480.8" cy="242.2" r="1.8"/><circle class="st13" cx="468.2" cy="256.2" r="1.8"/><circle class="st13" cx="466.4" cy="238.6" r="1.8"/><g><circle class="st13" cx="603.9" cy="375.6" r="1.8"/><circle class="st13" cx="607.7" cy="369.7" r="1.8"/><circle class="st13" cx="603.9" cy="365.6" r="1.8"/><circle class="st13" cx="614.9" cy="369.7" r="1.8"/><circle class="st13" cx="618.5" cy="365.6" r="1.8"/><circle class="st13" cx="611.3" cy="375.6" r="1.8"/><circle class="st13" cx="616.7" cy="375.6" r="1.8"/><circle class="st13" cx="623.9" cy="377.4" r="1.8"/><circle class="st13" cx="620.3" cy="371.5" r="1.8"/><circle class="st13" cx="625.7" cy="367.4" r="1.8"/><circle class="st13" cx="613.1" cy="381.5" r="1.8"/><circle class="st13" cx="611.3" cy="363.8" r="1.8"/></g><path class="st9" d="m404.6 204-12.2 13.2-6.5-4.3c-23.4-23.3-2.7-26.9 8.1-26 10.8.9 7.2 15.6 7.2 15.6l3.4 1.5zM702.7 296.5c-1.1 2.8-4.4 8-9 14.5l-11.8-9.2c1.8-3.6.8-6.2-1.6-11.6-6-13.5 10.8-13.5 10.8-13.5s17 5.4 11.6 19.8z"/><ellipse transform="rotate(-17.591 898.408 362.066)" class="st1" cx="898.3" cy="362" rx="46.4" ry="96.6"/><ellipse transform="rotate(-17.591 942.294 500.477)" cx="942.2" cy="500.4" rx="16.4" ry="28.1" style="fill:#e1d5f7"/></svg>