<svg version="1.1" id="Layer_1" xmlns="http://www.w3.org/2000/svg" x="0" y="0" viewBox="0 0 1000 705" style="enable-background:new 0 0 1000 705" xml:space="preserve"><style>.st2{fill:#f1f2f2}.st3{fill:#fff}.st4{fill:#4570ad}.st5{fill:#feb58a}.st8{fill:#232323}.st9{fill:#feac02}.st10{fill:#ff4d53}.st11{fill:#ea2b00}.st13{fill:#202021}.st14{fill:#446eab}.st15{fill:#a9bdde}.st16{fill:#a6bddd}.st23{fill:#abbad9}.st26{opacity:.38;fill:#fff}</style><path d="M353.2 638.3S82.3 644.4 29.7 387 134.3-43.3 350.8 26.3s184.4 110.9 387 70.1 344.8 227.2 176.7 382.9-285.3 185.3-414 175.9-147.3-16.9-147.3-16.9z" style="fill:#eae0fb"/><path d="M361.5 621.5s-255.9 5.7-305.6-237.4S154.8-22.4 359.3 43.3s174.2 104.8 365.6 66.2 325.7 214.7 166.9 361.7-269.5 175-391 166.1-139.3-15.8-139.3-15.8z" style="fill:#cfb5f6"/><ellipse class="st2" cx="493.8" cy="629.6" rx="448" ry="62.4"/><path class="st3" d="M250.4 634.3c36.7-7 73.8-12.1 110.9-16.4 18.6-2.2 37.2-3.9 55.8-5.6 18.6-1.6 37.3-2.8 56-3.8 18.7-.9 37.4-1.5 56.1-1.7 9.4 0 18.7 0 28.1.2 9.4.1 18.7.5 28.1 1.1 18.7 1 37.5 2.8 56 6 9.3 1.7 18.5 3.6 27.5 6.3 4.5 1.3 9 2.9 13.3 4.7 4.3 1.8 8.6 3.9 12.5 6.4-8.5-4-17.4-6.5-26.5-8.3-9.1-1.8-18.3-3.2-27.5-4.1-9.2-1-18.5-1.6-27.8-2.1-9.3-.4-18.6-.8-27.8-.9-18.6-.2-37.2-.1-55.8.4-18.6.5-37.2 1.2-55.8 2.2-18.6.8-37.2 2-55.8 3.2-18.6 1.1-37.2 2.6-55.8 3.9l-111.5 8.5zM102.7 619.5c29.8-7.7 59.9-14 90.2-19.7 30.2-5.7 60.6-10.7 91.1-14.9 7.6-1 15.3-2 22.9-3 7.6-.9 15.3-1.8 23-2.6 15.3-1.6 30.7-3 46.1-3.8 3.8-.2 7.7-.4 11.6-.6 3.9-.2 7.7-.4 11.6-.4 7.7-.2 15.4-.2 23.2-.1 7.7.2 15.5.5 23.2 1.3 7.7.7 15.4 1.9 22.8 4.1l-5.7-.6c-1.9-.3-3.8-.2-5.7-.4-1.9-.1-3.8-.3-5.7-.2h-5.7c-1.9 0-3.8 0-5.7.1l-5.7.2c-3.8.1-7.6.4-11.5.6-7.6.5-15.3 1.1-22.9 1.8l-11.4 1.1c-3.8.4-7.6.7-11.4 1.2-30.4 3.4-60.8 7.3-91.2 11.5l-91.2 12.6c-30.9 4.1-61.3 8.3-91.9 11.8z"/><path class="st3" d="M204.5 656.7c73.8 1.5 147.6 2.7 221.4 3.2 36.9.1 73.8.3 110.6-.1 36.9-.3 73.7-1 110.5-2.5 36.8-1.4 73.6-3.4 110.1-7.4 9.1-1 18.2-2.1 27.3-3.5 9-1.4 18-3 26.9-5.1 2.2-.5 4.4-1.1 6.6-1.7 2.2-.5 4.3-1.3 6.5-1.9 2.2-.6 4.2-1.5 6.3-2.2 1.1-.4 2-.9 3-1.3 1-.5 2-.8 3-1.4l2.8-1.5c.5-.2.9-.5 1.3-.8l1.3-.9c.4-.3.9-.6 1.3-.9l1.3-1 2.4-2.1c1.5-1.5 2.9-3 3.9-4.6.5-.8.9-1.6 1.1-2.3.2-.8.3-1.5.3-2.1-.1-1.3-.8-2.6-2-3.9-1.3-1.3-3-2.4-4.8-3.4-3.7-1.9-8-3.4-12.3-4.5-8.7-2.3-17.7-3.8-26.8-4.9-18.2-2.3-36.6-3.3-54.9-4-18.4-.7-36.8-.8-55.3-.7-9.2 0-18.4.2-27.7.3-9.2.2-18.4.4-27.7.7 9.2-.8 18.4-1.4 27.6-2.1a1279.867 1279.867 0 0 1 83.1-2.7c18.5.1 37 .7 55.5 2.5 9.3 1 18.5 2.2 27.7 4.5 4.6 1.2 9.2 2.6 13.7 4.8 2.2 1.1 4.5 2.5 6.5 4.4 1 1 2 2.1 2.7 3.5.8 1.4 1.3 3 1.4 4.6.2 1.6-.1 3.3-.5 4.7-.4 1.5-1.1 2.7-1.8 3.9-1.4 2.4-3.1 4.3-4.9 6.1-.9.9-1.8 1.7-2.7 2.5l-1.4 1.2c-.5.4-1 .8-1.5 1.1l-1.6 1.1c-.5.4-1 .7-1.6 1l-3.2 1.8c-1.1.6-2.2 1-3.3 1.6-1.1.5-2.2 1.1-3.3 1.4-2.2.8-4.5 1.8-6.7 2.5-2.3.7-4.5 1.5-6.8 2.1-2.3.6-4.5 1.3-6.8 1.8-9.1 2.3-18.3 4.1-27.4 5.6-9.2 1.5-18.4 2.8-27.6 3.9-18.4 2.2-36.9 3.8-55.3 5-18.5 1.2-36.9 2.2-55.4 2.9-36.9 1.3-73.9 1.9-110.8 2-36.9-.1-73.9-.4-110.8-1.3-36.9-.8-73.8-2.2-110.7-3.8-36.8-1.5-73.7-3.4-110.5-6.1z"/><path class="st4" d="m606.4 372.4-21.9 25.9s9.6 29.6 14.8 29.3c5.2-.3 24.9-22.6 24.9-22.6l-17.8-32.6z"/><path class="st5" d="M233.5 296.9s8.4 6.4 19.5 0 22.3 3.9 19.8 14c-2.4 10.1-8.8 19-24 13.9l-20.3-14.2 5-13.7z"/><ellipse transform="rotate(-77.708 152.656 103.964)" class="st5" cx="152.7" cy="104" rx="38.2" ry="25.1"/><path d="M132 84.9s12.5-17.1 26.4 0 19.7 5.8 19.7 5.8 3.6 18.9 6.6 13.2c3-5.7 8.5-24 0-29.5s1-28.8-24.1-28.6S133 60 121.5 60s-10.2 12.7-6.4 19.1 1.5 16.5 7.1 24.8l-.7 13.4 6.1-12.1 4.4-20.3z" style="fill:#212223"/><path d="m80.7 384.6 75.1 75.1 67.5 142.6h49.5s-42.6-42.8-79.1-153.8l-16.9-30.8-96.1-33.1z" style="fill:#2f5584"/><path class="st8" d="M267.5 596.2s24.6 11.2 28.4 18.8c3.8 7.6-6.4 16.5-19.1 15.3-9.9-1-38-5.8-50.2-7.9-3.2-.6-5.4-3.6-5-6.8l1.8-13.3c-.1 0 41.2 1.8 44.1-6.1zM143.1 580.6s-23.6 8.9-16.2 21.6C134.2 614.9 180 634 180 634s21.6 3.8 14-12.7-33.5-32.1-33.5-32.1l-17.4-8.6z"/><path class="st5" d="m127.5 105.2-12.3 28.9 21.5 25.2 12.4-25.2z"/><ellipse transform="rotate(-77.708 129.746 95.055)" class="st5" cx="129.7" cy="95.1" rx="10.4" ry="6.8"/><path class="st4" d="M45.7 353.4s-1.9 32.5 18.5 41.4c20.4 8.9 122.2 50.9 122.2 50.9s17.8 2.5 7.6 16.5-50.9 118.4-50.9 118.4l17.8 11.5 90.4-134.9s17.8-16.1 0-28.4c-17.8-12.3-108.2-82.3-108.2-82.3l-18.6-12.2-78.8 19.1z"/><path class="st9" d="M55.3 163.2s31.8-45.8 53.7-22.4c17 18.2 32.9 58 32.9 58s11.5 49.6 40.7 58.5c0 0 43.3 14 38.2 33.1l12.7 2.5V316l-20.4-.2s-14.4 10.6-38.4.2-50.2-29.2-50.2-29.2l26.2 55.5-7.7 4-104.3 12.9s-12.7-98-7.6-132.4 24.2-63.6 24.2-63.6z"/><path class="st10" d="M97.3 133.9s6.5-22.9 30-16.5l23.5 51.1s6.3 30.3-12.8 21.4c0 0-21.6-53.5-40.7-56z"/><g><path class="st11" d="M291.7 191.5s-12.3-32.2 20.8-43.6l12.7-3.8s33.8-14.2 51.9 19l-4.8 10.3c0-.1-62-7-80.6 18.1z"/><path style="fill:#3d3d3d" d="m362 498.8 33.4 71.2 21.6 4.4-17.3-58.4z"/><ellipse transform="rotate(-41.282 329.649 215.327)" class="st5" cx="329.7" cy="215.3" rx="24.2" ry="31.2"/><path class="st2" d="M302.2 207.9s-26.3-5-10.6-21 84.5-17.3 84.5-17.3l10.2 11.5-34.2 24.3s-9.6-13.4-26.5-13.7c-16.9-.5-23.4 16.2-23.4 16.2z"/><path class="st13" d="M337.7 238.4s-13.8 1.1-6.8-20.5-4.1-23.8-4.1-23.8 4.4-13.7 16.6-12.8c12.3 1 13.7-13 21.9-9.2 8.2 3.8 14.6-15.2 22.2-6.3 7.6 8.9 0 17.8 0 17.8s-47.4 21.9-49.8 54.8z"/><path class="st2" d="M329.7 117.3s-28 27.2 14.3 36.5c0 0 23.2 4.4 13.7-9.7 0 0 18.3 4 8.2-8.3 0 0 6.4-11-3.7-11l-8.9 1.3.2-5.3c.1-1.6-1.6-2.8-3.1-2.2l-5.6 2.4v-6.7c0-2.3-2.8-3.3-4.3-1.6l-4 4.5h-6.8z"/><path class="st14" d="M264.1 291.7s27.6-32.4 72.4-48v47.5s-47.7 11.5-63.9 25.1c0 0 7.9-12.4-8.5-24.6z"/><path class="st13" d="M266.1 293.2s-12.4-5.8-15.8-2.1-1.5 11.9 3.9 14.2 15.6-1.5 15.6 3.6 1.1 13.3-3.9 11.8c-5-1.6-8.8-9.7-13.9-4.4-5.1 5.3-3.4 12.7-3.4 12.7s5.3 5.1 5.6 5.3c.4.1 13.5-2.9 18.4-17.9s-6.5-23.2-6.5-23.2z"/><path class="st15" d="M336.5 245s1-32.7 35-52.2l14.9-10.5s18.8-9.5 19 10.5c0 0 18.3-1.6 10.5 23.8 0 0 4.9 29.3-21.8 15.3-.2 0-20.9-27.3-57.6 13.1z"/><path class="st16" d="M371.6 616.5c-2.7 0-6.6-.5-7.8-3.6-1.4-3.5 1.9-6.8 2.9-7.8l4.2 4.8-2.1-2.4 2.1 2.4-.2.2h2.4c11.6-.6 56.4-4.5 56.8-4.5l.5 6.3c-1.8.2-45.4 3.9-57 4.6h-1.8z"/><path class="st16" d="M415.3 599.9h6.4v10.5h-6.4z"/><path d="M393.3 565.9s5.3 27.2-18 29.8c0 0-15.1 3.6-10.3 12.2l58.6-5.3-5.9-29.3-24.4-7.4z" style="fill:#ce2306"/><path class="st8" d="m368.9 419.7 68.3 8.2-39.5 54.7s35.6 41.3 39.5 72.8c3.8 31.6 0 25.2 0 25.2l-19.5.5s-34.4-66.4-48.8-70.4-18.3-15.2-11.3-42c7.1-26.8 11.3-49 11.3-49z"/><path class="st14" d="M340 238.3c-.8-4 1.3-7.9 5-9.6 15.6-6.9 56.1-18.5 72.7 36.9 20.8 69.4 53.9 171.2 53.9 171.2s-5.8 23.4-60.2 26.3-72.7-11-72.7-11 34.4-80.2 30.2-93c-4.2-12.7-11.3-29.6-11.3-29.6L340 238.3z"/><path class="st15" d="M333.3 253.4s8.1-32.6 35.6-17.5c27.6 15.1 8.2 80.5 8.2 80.5s-9 24.6-56.5 32.4-66.4-14.6-66.4-14.6 7.4-15.8 25.2-19.6c17.8-3.8 42-3.3 50.3-27.1l3.6-34.1z"/><g><path class="st16" d="M384.3 622.9c-2.7 0-6.6-.5-7.8-3.6-1.4-3.5 1.9-6.8 2.9-7.8l4.2 4.8-2.1-2.4 2.1 2.4-.2.2h2.4c11.6-.6 56.4-4.5 56.8-4.5l.5 6.3c-1.8.2-45.4 3.9-57 4.6h-1.8z"/><path class="st16" d="M428.1 606.3h6.4v10.5h-6.4z"/><path class="st11" d="M441.7 576.5v30l-57.5 9.2s-23-6.5-2.6-13.9 25.8-12.6 25.8-12.6l8.2-8.9 26.1-3.8z"/></g></g><g><path class="st16" d="M596.2 638.8v8.2s4.3 6 9.8-4.1c5.5-10.1 7.3-23.9 7.3-23.9l-17.1 19.8z"/><path class="st13" d="m590.3 602.3 2.9 32.2s2.1 9.5 12.7 3.3l7.3-18.7-13.6-22.9-9.3 6.1z"/><path d="m538.2 610.9-9.4 10.5s26.2 8.6 55.7-5.2l-2.3-8.6-7.6 1.3s1.1 10.9-36.4 9.2l3.9-4.8-3.9-2.4z" style="opacity:.5;fill:#a6bddd"/><path class="st13" d="m439.7 294.9-3.4 28.6s11.1 3.8 18.1 0v-7.2l-14.7-21.4z"/><ellipse class="st5" cx="460.7" cy="294.9" rx="21" ry="24.8"/><path class="st13" d="M454.3 280s9.1 1.7 9.9 11.2c.9 9.4 18.7 9.8 18.7 9.8s21.6-18.1 21.6-34.7-6.5-19.6-6.5-19.6h-18.7s6 18.9-2.9 21.8c-8.7 2.8-22.1 11.5-22.1 11.5z"/><path style="fill:#024174" d="m466.4 319.7-22.5 39.5 12.8 27 19.9-38.6z"/><path d="M582.2 607.5s-34.3 6.2-44 5.7c-9.7-.4-4.3-5.7-4.3-5.7l16.5-7c4.7-4.8 6.2-9.5 6.2-13.6 0-8.2-6.2-14-6.2-14l-38.2-43.3 15.1-66.6 30.8-11.1s-15.3 53.5-15 67.5c.3 14.1 16.9 41 16.9 41l12.4 26.4 9.8 20.7z" style="fill:#cc333e"/><path class="st13" d="M582.2 607.5s-34.3 6.2-44 5.7c-9.7-.4-4.3-5.7-4.3-5.7l16.5-7c4.7-4.8 6.2-9.5 6.2-13.6h15.8l9.8 20.6z"/><path class="st10" d="M439.7 298.6s-23.4-20.7-11.1-37.4c12.4-16.6 35.3-23 35.3-23s25.5 7.6 29.3 17.8c3.8 10.2-16.5 18-16.5 18s-42.1 12.4-37 24.6z"/><path d="M399.4 339.8s-3-1.6-12.9-4.9c-10-3.3-36.2-.9-27.4 14.2s38.4 11.4 38.4 11.4l1.9-20.7z" style="fill:#bcbec0"/><path class="st10" d="M597.5 431.7s19.1 5.9 0 37.3-22.9 55.6-22.9 55.6l31.4 75.9-18 7-35-58.7s-16.8-20.6-14.8-38.3c2-17.7-4.3-50.8-4.3-50.8l63.6-28z"/><path d="M497.7 298.6s32.7-.1 53.5 51.9c0 0 21.6 40.7 54.3 69.3 0 0 20 15.8-4.2 24.7-24.2 8.9-66.2 21.6-85.3 26.7 0 0-18.9 9.4-27.3-8l-19.8-78.5-5.8-58.3 34.6-27.8z" style="fill:#7242bc"/><path class="st2" d="M493.1 316.3s22.8-2.1 26.5 19.2c1 5.6-.5 11.3-3.9 15.8-9.4 12.3-33 39.1-59 34.9-33.5-5.4-62-22.2-62-22.2s4.4-29.3 9.4-29.8 44.7 19.2 44.7 19.2 7.3 8.6 17.5-8.1 16.6-29.9 26.8-29z"/><path class="st2" d="M463.3 326.7s-2-19.7 13.8-33.7c15.8-14 16.8-31 15-46.4 0 0 29.1-6.1 27.8 17.8s-35 45.1-35 45.1l-21.6 17.2z"/></g><g><path class="st13" d="M716 562.2s23.3 8 19.8 18.9l-8.5 10.9s-3.8 10.2 3.8 10.2l34.3-33.9-31.8-19.5-17.6 13.4z"/><path class="st23" d="M731.1 618.3c-.3 0-.6-.1-.9-.2-1-.4-1.6-1.3-1.6-2.4v-13.5h5.1v7.2c8-8.4 24.5-25.8 27.8-29.9 4.8-5.9 7.6-7.4 7.9-7.6l2.3 4.6s-2.3 1.3-6.3 6.2c-4.6 5.6-31.4 33.6-32.5 34.8-.4.6-1.1.8-1.8.8zM736 619.5c-1 0-2-.3-2.9-.8l3-3.9c.4 0 1.6-.7 2.5-1.7l33.9-35.6 3.9 3.2-33.9 35.5c-1.7 1.8-4.2 3.3-6.5 3.3z"/><path transform="rotate(-52.476 762.475 576.572)" class="st23" d="M759.9 572.8h5.1v7.6h-5.1z"/><path class="st4" d="m640.8 543.7 43.7 52.5h22.6l-25.3-55.7z"/><path class="st4" d="m673.9 544.2 45.2 21.7 14.6-17.1-38.2-10.2z"/><path class="st23" d="M669.4 642.4h-2.1c-1.7-.1-6.1-.3-6.7-4.1-.3-1.6-1-5.7 14.2-13.7l2.1 5.3c-4.1 2.2-8.2 4.9-10.2 6.7.3 0 .5 0 .9.1 13.1.7 50.3-6.6 50.7-6.6l.8 5.7c-1.5.1-34.8 6.6-49.7 6.6z"/><path class="st23" d="M708.8 628.8h6.8v5.7h-6.8z"/><path class="st13" d="M684.5 596.2s-4.3 1 3.4 9.9-4.6 13-4.6 13-20.9-.2-14.5 9.9H716s-1.2-27.4-9-32.8h-22.5z"/><ellipse transform="rotate(-19.3 593.078 321.003)" class="st5" cx="593" cy="321" rx="19.1" ry="24.8"/><path class="st13" d="M574.2 310.1s-19.1-17.6-4.2-23.7c0 0 3.3 9.9 12.2 0s15.1-21.6 31.1-12.5c16 9 19.4 36.3 19.4 36.3s.2 27.5-19.4 16.7c0 0-9.4-13.8-20.2-16.1s-18.9-.7-18.9-.7z"/><path class="st13" d="M604.7 280s17.4-17.8 30.5-6.2c13.1 11.6 19.2 25 28.9 6.2v-9.4s24.7 17.3 7 24.3h-7.9s8.4 14.5 18.4 3.7c0 0 2.6 22.3-20.6 22.4-6.1 0-11.6-3.7-13.9-9.4-3.9-9.4-12.2-19.3-22.3-25.3-13.7-8.2-20.1-6.3-20.1-6.3z"/><path class="st9" d="M590.3 368.1s-3.1-31 52.9-51.8c0 0 9 5.1 5.2 31 0 0 58.5 11.9 72.5 136.6l5.1 57.3-93.4 5.5V428.5s-2.1-12-11-14.6l-.6-.6-16.5-34.4.2-.3 1.2-11.4-15.6.9z"/><path d="M544.4 396.1h-10.5s-21.6-6.4-17.8 7.6c3.8 14 17.8 10.3 17.8 10.3l16.5-2.6-6-15.3z" style="opacity:.5;fill:#fe3a00"/><path class="st4" d="M635.5 347.3s20.5-2.8 18.6 22.3c0 0-4.4 22.6-29.9 35.4-25.5 12.7-31.8 16.5-73.8 7.6 0 0-8.9-6.4-5.1-19.1h44.5s17.5-12 23.4-25.1c5.9-13.1 22.3-21.1 22.3-21.1z"/><g><path d="M623.6 313.3c0 1.4-2.7 2.5-3 3.8-.4 1.4 1.4 3.6.7 4.8-.7 1.2-3.6.8-4.5 1.8-1 1-.5 3.8-1.8 4.5-1.2.7-3.4-1.1-4.8-.7-1.3.4-2.4 3-3.8 3s-2.5-2.7-3.8-3c-1.4-.4-3.6 1.4-4.8.7-1.2-.7-.8-3.6-1.8-4.5-1-1-3.8-.5-4.5-1.8-.7-1.2 1.1-3.4.7-4.8-.4-1.3-3-2.4-3-3.8s2.7-2.5 3-3.8c.4-1.4-1.4-3.6-.7-4.8.7-1.2 3.6-.8 4.5-1.8 1-1 .5-3.8 1.8-4.5 1.2-.7 3.4 1.1 4.8.7 1.3-.4 2.4-3 3.8-3s2.5 2.7 3.8 3c1.4.4 3.6-1.4 4.8-.7 1.2.7.8 3.6 1.8 4.5 1 1 3.8.5 4.5 1.8.7 1.2-1.1 3.4-.7 4.8.3 1.4 3 2.4 3 3.8z" style="fill:#e5f3fc"/></g></g><g><circle class="st26" cx="847" cy="179" r="8"/><circle class="st26" cx="320" cy="68" r="8"/><circle class="st26" cx="839" cy="400" r="8"/><circle class="st26" cx="311.5" cy="435.5" r="8"/><circle class="st26" cx="498.5" cy="231.5" r="6"/><circle class="st26" cx="254" cy="226" r="6"/><circle class="st26" cx="649.5" cy="164.5" r="18"/><circle class="st26" cx="948" cy="351" r="11"/><circle class="st26" cx="813" cy="459" r="2.8"/><circle class="st26" cx="761" cy="511" r="2.8"/><circle class="st26" cx="758" cy="385" r="2.8"/><circle class="st26" cx="183.5" cy="219.5" r="2.8"/><circle class="st26" cx="887" cy="263" r="2.8"/><circle class="st26" cx="895" cy="371" r="2.8"/><circle class="st26" cx="311.5" cy="552.5" r="2.8"/><circle class="st26" cx="466.5" cy="530.5" r="2.8"/><circle class="st26" cx="195.5" cy="373.5" r="2.8"/><circle class="st26" cx="764.5" cy="181.5" r="2.8"/><circle class="st26" cx="620" cy="256" r="2.8"/><circle class="st26" cx="395" cy="109" r="2.8"/><circle class="st26" cx="797.5" cy="273.5" r="2.8"/><circle class="st26" cx="695.5" cy="331.5" r="2.8"/><circle class="st26" cx="261" cy="155" r="1.4"/><circle class="st26" cx="504" cy="150" r="2.8"/></g><g><circle class="st26" cx="544.1" cy="126.9" r="6.2"/><circle class="st26" cx="206.4" cy="49.2" r="6.2"/><circle class="st26" cx="667.5" cy="335.3" r="6.2"/><circle class="st26" cx="256.1" cy="334.8" r="6.2"/><circle class="st26" cx="401.3" cy="176.5" r="4.7"/><circle class="st26" cx="215.8" cy="129.9" r="4.7"/><circle class="st26" cx="754.4" cy="284.5" r="6.5"/><circle class="st26" cx="645.3" cy="353.1" r="2.2"/><circle class="st26" cx="612.7" cy="406.6" r="2.2"/><circle class="st26" cx="602.7" cy="295.6" r="2.2"/><circle class="st26" cx="156.8" cy="167.2" r="2.2"/><circle class="st26" cx="702.8" cy="200.9" r="2.2"/><circle class="st26" cx="709" cy="284.8" r="2.2"/><circle class="st26" cx="256.1" cy="425.6" r="2.2"/><circle class="st26" cx="376.4" cy="408.6" r="2.2"/><circle class="st26" cx="166.1" cy="286.7" r="2.2"/><circle class="st26" cx="572.8" cy="174.9" r="2.2"/><circle class="st26" cx="495.6" cy="195.5" r="2.2"/><circle class="st26" cx="320.9" cy="81.4" r="2.2"/><circle class="st26" cx="633.3" cy="209.1" r="2.2"/><circle class="st26" cx="554.2" cy="254.1" r="2.2"/><circle class="st26" cx="206.1" cy="92.3" r="2.2"/><circle class="st26" cx="405.5" cy="113.2" r="2.2"/></g></svg>