<svg version="1.1" id="Layer_1" xmlns="http://www.w3.org/2000/svg" xmlns:xlink="http://www.w3.org/1999/xlink" x="0" y="0" viewBox="0 0 1000 927" style="enable-background:new 0 0 1000 927" xml:space="preserve"><style>.st3{clip-path:url(#SVGID_2_)}.st4{fill:#434444}.st5{fill:#f1f2f2}.st6{opacity:.15;fill:#231f20}.st8{fill:#fff}.st9{fill:#4570ad}.st10{fill:#f8fdfe}.st11{fill:#414042}.st12{fill:#e6e7e8}.st13{fill:#a7a9ac}.st14{fill:#f7b68b}.st17{fill:#6064ff}</style><path d="M135 880.8S-26.3 709.2 12 556.2s85.7-170.9 71.8-272 60-308 268.6-281.1S574.9 88.3 678 82.3c103.2-5.9 237 10.2 258 141.2s-37.5 123.2 0 186 77.4 141.3 47.6 241.1c-29.7 99.8-95.5 254.9-147.9 263.2-45.9 7.2-524.8 7-643.6 6.8-16.7 0-32.5-7.8-42.7-21.1L135 880.8z" style="fill:#eae1fa"/><defs><path id="SVGID_1_" d="M147 872S-9 706 28 558s82.9-165.3 69.4-263.1S155.5-3 357.2 23s215.2 82.5 315 76.8 229.2 9.8 249.5 136.5-36.3 119.1 0 179.9 74.8 136.7 46.1 233.2C939 746 875.4 896 824.7 904c-44.8 7.1-516.2 6.7-625.6 6.5-14.2 0-27.7-6.7-36.3-18L147 872z"/></defs><clipPath id="SVGID_2_"><use xlink:href="#SVGID_1_" style="overflow:visible"/></clipPath><path style="clip-path:url(#SVGID_2_);fill:#eae1fa" d="M5 23h1000v881H5z"/><path style="clip-path:url(#SVGID_2_);fill:#cfb5f6" d="M5 42h1000v862H5z"/><g class="st3"><path class="st4" d="M192 64h618v527H192z"/><path class="st5" d="M205 75.1h592v504.8H205z"/><path class="st6" d="M205 464.7h64.7V327.5H317V253l83.9-.5-3.5 323.5-192.4 3.9z"/><path class="st6" d="M398 360h50v216h-50zM463 284h107v292H463zM570 473h48v103h-48zM618 370h35v206h-35z"/><path class="st6" d="M797 575.9V338.6h-56.2v-165l-64.8-.9v154.8h-24.2L653 370v206z"/><path class="st4" d="M373 75h14v505h-14zM593 75h14v505h-14z"/></g><g class="st3"><path class="st5" d="M5 723h1000v181H5z"/><path style="fill:#cfb5f6" d="M5 871.5h1000V904H5z"/><path class="st8" d="m269.7 837.9 13.9.9c4.6.3 9.3.6 13.9.9l27.8 1.7c18.5 1.1 37.1 2.1 55.6 3.1 18.6 1 37.1 1.8 55.7 2.7l13.9.6c4.6.2 9.3.4 13.9.5l7 .3 7 .2c4.6.2 9.3.3 13.9.5l13.9.4 14 .4 14 .3 14 .3c18.6.4 37.3.6 55.9.7 18.7.1 37.3-.1 56-.3 9.3-.2 18.7-.3 28-.6 4.7-.1 9.4-.2 14-.4 4.7-.2 9.4-.3 14.1-.5-4.6.5-9.2.9-13.7 1.3-4.6.4-9.2.8-13.9 1.1-9.2.8-18.6 1.3-27.9 1.9-18.7 1-37.5 1.7-56.4 2-4.7.1-9.4.1-14.1.2l-7.1.1h-21.2l-14.1-.1h-3.5l-3.5-.1-7.1-.1c-4.7-.1-9.4-.1-14.1-.2l-14.1-.3-14.1-.4c-4.7-.1-9.4-.3-14.1-.5l-7-.3-7-.3c-9.4-.4-18.7-.9-28.1-1.4-18.7-1-37.3-2.2-55.8-3.6s-36.9-3-55.3-4.8c-9.1-.9-18.3-1.8-27.3-2.9-4.5-.5-9.1-1-13.6-1.6-4.6-.6-9.1-1.1-13.5-1.7zM906 759c-5.1 1-10.4 1.9-15.6 2.8-5.2.9-10.5 1.6-15.8 2.4-10.6 1.5-21.3 2.7-32.1 3.9-10.8 1.1-21.6 2.1-32.5 2.8-5.5.4-10.9.7-16.4 1-2.7.2-5.5.3-8.2.4-2.7.1-5.5.3-8.2.4-22 .9-44.1 1.1-66.1.4-11-.4-22-1-32.9-1.9-10.9-.9-21.7-2.2-32.2-3.8 11 .1 21.9.3 32.8.3 10.9 0 21.7-.1 32.5-.2 21.6-.3 43.2-1 64.8-1.9l8.1-.3c2.7-.1 5.4-.2 8.1-.4 5.4-.2 10.8-.5 16.2-.7 10.8-.5 21.6-1.1 32.4-1.7 21.6-1.2 43.2-2.4 65.1-3.5zM637 793c-5.1.9-10.4 1.7-15.6 2.4-5.2.7-10.5 1.4-15.8 2-10.6 1.3-21.3 2.4-32.1 3.3-10.8 1-21.6 1.8-32.5 2.4-5.5.3-10.9.6-16.4.9-2.7.1-5.5.3-8.2.4-2.7.1-5.5.2-8.2.3-22 .8-44.1.9-66.1.3-11-.3-22-.9-32.9-1.6-10.9-.8-21.7-1.8-32.2-3.3 11 .1 21.9.3 32.8.3 10.9 0 21.7-.1 32.5-.2 21.6-.3 43.2-.9 64.8-1.6l8.1-.3 8.1-.3 16.2-.6c10.8-.4 21.6-.9 32.4-1.4 21.6-1 43.2-2.1 65.1-3zM99.8 757c4.7-.7 9.5-1.4 14.3-2.1 4.8-.7 9.6-1.3 14.4-1.9 9.6-1.2 19.3-2.4 28.9-3.5 19.4-2.2 38.9-4.1 58.4-5.8 19.6-1.7 39.3-3.1 59-4.4 9.9-.6 19.8-1.2 29.7-1.7l7.4-.4 7.4-.3c5-.2 9.9-.4 14.9-.6l14.9-.5 14.9-.4c5-.1 10-.2 14.9-.3l7.5-.1 3.7-.1h3.7l14.9-.1h22.5l7.5.1c5 .1 10 .1 14.9.2 19.9.4 39.8 1.2 59.6 2.4 19.8 1.3 39.4 2.9 58.7 5.2-19.8-.8-39.5-1.5-59.3-1.9-19.8-.3-39.5-.5-59.2-.4-19.7.1-39.4.3-59.1.8-4.9.1-9.8.2-14.8.4-4.9.1-9.8.2-14.8.4l-14.8.5-14.8.5c-4.9.2-9.8.4-14.8.6l-7.4.3-7.4.3c-4.9.2-9.8.4-14.7.7l-14.7.7c-19.6 1-39.3 2.1-58.9 3.3-38.9 2.4-78.1 5.1-117.4 8.1z"/></g><g class="st3"><path class="st4" d="M4 385h1000v33.2H4zM155.4 418.2h20.1V723h-20.1zM548.6 418.2h20.1V723h-20.1zM910.7 418.2h20.1V723h-20.1z"/><g><path class="st9" d="M5 397h1000v32H5zM137 429h20v294h-20zM529 429h20v294h-20zM890 429h20v294h-20z"/></g></g><g class="st3"><path class="st10" d="M443.5 788.5s-78 12-81 10.4c-.1-.1-.2-.1-.3-.2-1.5-1.2-1-3.7-.4-5.5.3-1 .7-1.7.7-1.7 11-25 41-29 41-29l2-33h36.1l1.6 51 .3 8z"/><path class="st11" d="M443.5 788.5s-78 12-81 10.4c-.1-.1-.2-.1-.3-.2l81.1-18.2.2 8z"/><path class="st12" d="M410 767c-5.2 9.7-35.3 16.3-48.2 26.2.3-1 .7-1.7.7-1.7 11-25 41-29 41-29l2-33h10.4s-4.2 34.3-5.9 37.5z"/><path transform="rotate(-7.886 407.975 805.68)" class="st13" d="M359 803.8h98v4h-98z"/><path class="st13" d="M373.6 798.1h4v12.2h-4zM403.7 794.1h4v12h-4zM378.5 783.5c-.2 0-.4-.1-.5-.2l-5.3-3.4c-.5-.4-.7-1.1-.4-1.8.3-.6 1-.9 1.5-.5l5.3 3.4c.5.4.7 1.1.4 1.8-.2.5-.6.7-1 .7zM388.1 780.8c-.2 0-.5-.1-.7-.2l-7.8-5.6c-.6-.5-.8-1.4-.4-2.2.4-.7 1.3-1 1.9-.5l7.8 5.6c.6.5.8 1.4.4 2.2-.3.4-.7.7-1.2.7zM396 776.8c-.3 0-.6-.1-.8-.2l-8.5-5.9c-.6-.4-.8-1.3-.4-2s1.3-.8 2-.4l8.5 5.9c.6.4.8 1.3.4 2-.3.3-.8.6-1.2.6zM402 772c-.3 0-.5-.1-.8-.2l-7.5-4.5c-.7-.4-.9-1.3-.5-2.1.4-.7 1.3-.9 2-.5l7.5 4.5c.7.4.9 1.3.5 2.1-.2.4-.7.7-1.2.7zM408.7 767.6c-.2 0-.5-.1-.7-.2l-6.5-3.7c-.6-.3-.8-1.1-.4-1.7.4-.6 1.2-.8 1.8-.4l6.5 3.7c.6.3.8 1.1.4 1.7-.2.4-.6.6-1.1.6zM410.9 760c-.2 0-.4-.1-.6-.2l-5.8-3.9c-.5-.4-.7-1.2-.4-1.8.3-.6 1-.8 1.6-.5l5.8 3.9c.5.4.7 1.2.4 1.8-.3.5-.7.7-1 .7zM412.7 750.6c-.2 0-.5-.1-.7-.2l-6.5-3.7c-.6-.3-.8-1.1-.4-1.7.4-.6 1.2-.8 1.8-.4l6.5 3.7c.6.3.8 1.1.4 1.7-.2.4-.6.6-1.1.6zM412.7 740.6c-.2 0-.5-.1-.7-.2l-6.5-3.7c-.6-.3-.8-1.1-.4-1.7.4-.6 1.2-.8 1.8-.4l6.5 3.7c.6.3.8 1.1.4 1.7-.2.4-.6.6-1.1.6z"/><path class="st10" d="M684.5 653.5s-15 60-34 78c0 0-1.1.5-2.7.7-1.5.2-3.4 0-5-1.3-1-.8-2-2-2.7-3.9-1.1-2.9-1.7-7.4-1-14.2.1-1 .2-2.2.4-3.3 0-.3.1-.7.1-1 3.8-28.2 2.9-34 2.9-34l-35-27 4.5-6.4 14.5-20.2 50.7 28.5 7.3 4.1z"/><path transform="rotate(-62.405 678.52 693.53)" class="st13" d="M628.9 691h99.3v5h-99.3z"/><path transform="rotate(-54.105 662.17 719.818)" class="st13" d="M659.6 717.5h5v4.7h-5z"/><path transform="rotate(-59.828 675.963 690.451)" class="st13" d="M673.5 687.5h5v5.8h-5z"/><path class="st12" d="M642.8 730.9c-1-.8-2-2-2.7-3.9-2.5-5.6-1.7-9.2-1-14.2.2-1.3.4-2.7.5-4.3 3.8-28.2 2.9-34 2.9-34l-35-27 4.5-6.4s29 10.9 36.5 26.4c9.8 20.2-.5 50.3-5.7 63.4z"/><path class="st11" d="M684.5 653.5s-15 60-34 78c0 0-1.1.5-2.7.7 10-27.8 23.8-66.1 29.4-82.8l7.3 4.1z"/><ellipse transform="rotate(-66.821 376.015 148.49)" class="st14" cx="376" cy="148.5" rx="36.5" ry="25"/><path d="M360 124s-11.5-20.5 12.5-23.5 26 4 26 4 7.1 7.6 17.6 5.8 9.4 19.2 5.4 27.2-22.5 20.8-22.5 20.8-.1-17.5-2.5-21.8c-2.5-4.5-2.5-4.5-5.8-7.8-1-1-7.2-2.3-7.7-3.7-.8-2.5-6.3.4-10 1-10.6 1.8-13-2-13-2z" style="fill:#1d1d1e"/><path class="st14" d="m378.5 175.5 6 30s24 4 35-15l-20.5-42-20.5 27z"/><path class="st8" d="M383 195s-21.5-1.5-39.5 29.5-15 26-15 26l37 31s54.7 64.4 60.8 76.7l6.2 12.3s60.3-2.5 74.6-32.3l-18.6-94.7-14-13s19.2-12.9 26.1-36l-30.1-14s-33.3-14.8-57.5-3.5c0 0 4.2 31-30 18z"/><path d="m510.5 429.5 22 103s39 28 65 58 29 34 29 34l-16 27s-61-33-95-73-47-67-47-67 16-60 42-82z" style="fill:#c6464f"/><path class="st14" d="M498.5 196.5s36 14 51 27 33 27 41 54 21 64 21 64 27 26 18 42c0 0-13 8-16-13 0 0-5-11-7-4s-2.6 11-5.3 6c-2.7-5-.7-24-.7-24s-38-31-47-55-8-23-14-28-9-3-18-5-35-15-35-15l-14-13s22-16 26-36zM330.5 252.5s-20 22-23 42c0 0 5 5-7 3s-53-6-81-2c0 0-4.9-3.5-8.4-4.8-3.6-1.2-10.6-8.2-10.6-8.2s-6 0-3 4 8 7 4 8-13-3-18-2-21 7-4 18c0 0 22 6 32 2 0 0 57 22 78 24s33 .3 41-9.3c8-9.7 30-37.7 32-48.7l-32-26z"/><circle class="st17" cx="407.5" cy="220.5" r="4"/><circle class="st17" cx="418" cy="257" r="4"/><circle class="st17" cx="444" cy="319" r="4"/><circle class="st17" cx="427" cy="288" r="4"/><ellipse transform="rotate(-66.821 399.016 147.49)" class="st14" cx="399" cy="147.5" rx="8.5" ry="5.8"/><path d="M640.1 737.4c0-.1.1-.2.2-.3-.1.1-.2.2-.2.3z" style="fill:#bcbec0"/><g><path d="M429.5 299c-.8 0-1.5-.4-2-1l-69.7-91.2 4-3 65.9 86.3 12.5-116.4 5 .5L432 296.8c-.1 1-.8 1.9-1.8 2.1-.2.1-.5.1-.7.1z" style="fill:#f5af07"/><path style="fill:#58595b" d="m417.5 304.5 25.2-15.6 7.5 15.6-25.9 15.9z"/><path class="st5" d="m419.6 304.5 21.9-13.5 6.5 13.5-22.4 13.9z"/></g><path d="M431.5 369.5V401c0 3.6.2 7.2.8 10.8.6 3.5.7 9.6-3.8 16.7-7 11-47 100-47 100s-11 21-3 59 25.6 145.7 25.6 145.7h39.3v-88.4s1.1-51.3-11.9-70.3c0 0 1-10 19-26s54.6-104.2 54.6-104.2 29.4-18.8 23.4-56.8-23.7-48.9-23.7-48.9l-73.3 30.9z" style="fill:#ff4d53"/><g><path class="st13" d="M646.8 715c-.1.2-.2.3-.4.4l-5.4 3.4c-.6.3-1.4.2-1.8-.4-.4-.5-.4-1.3.2-1.6l5.4-3.4c.6-.3 1.4-.2 1.8.4.3.4.3.8.2 1.2zM650.4 705.1c-.1.2-.3.4-.5.6l-8.4 4.6c-.7.4-1.7.1-2.2-.5-.5-.7-.3-1.5.4-1.9l8.4-4.6c.7-.4 1.7-.1 2.2.5.2.3.3.9.1 1.3zM652.3 696c-.1.2-.4.4-.6.5l-9.5 4.2c-.7.3-1.6 0-1.9-.7-.3-.7 0-1.6.7-1.9l9.5-4.2c.7-.3 1.6 0 1.9.7.2.5.1 1-.1 1.4zM651.6 687.7c-.1.2-.4.4-.6.5l-8 3.5c-.8.3-1.6 0-2-.8-.3-.8 0-1.6.8-2l8-3.5c.8-.3 1.6 0 2 .8.1.5.1 1.1-.2 1.5zM650.2 677.9c-.1.2-.2.4-.4.5l-6.1 4.3c-.6.4-1.3.3-1.7-.3-.4-.6-.2-1.4.4-1.8l6.1-4.3c.6-.4 1.3-.3 1.7.3.2.4.2.9 0 1.3zM648.2 668.7c-.1.2-.2.3-.4.5l-6 3.6c-.6.3-1.4.2-1.8-.4-.4-.6-.3-1.3.3-1.6l6-3.6c.6-.3 1.4-.2 1.8.4.2.3.3.7.1 1.1zM640.2 660.4l-.3.6-5.3 5.3c-.5.5-1.3.5-1.7 0-.5-.5-.4-1.3.1-1.8l5.3-5.3c.5-.5 1.3-.5 1.7 0 .2.3.3.7.2 1.2zM634.3 654.5c-.1.2-.2.4-.4.6l-5.7 4.8c-.5.4-1.3.4-1.7-.2-.4-.5-.3-1.4.2-1.8l5.7-4.8c.5-.4 1.3-.4 1.7.2.3.3.4.8.2 1.2zM625.9 649.2c0 .2-.2.4-.3.6l-5.6 5.4c-.5.5-1.4.5-2 0-.6-.5-.6-1.3-.1-1.8l5.6-5.4c.5-.5 1.4-.5 2 0 .4.3.5.8.4 1.2z"/></g></g></svg>