<svg version="1.1" id="Layer_1" xmlns="http://www.w3.org/2000/svg" x="0" y="0" viewBox="0 0 1000 695" style="enable-background:new 0 0 1000 695" xml:space="preserve"><style>.st1{fill:#fff}.st3{opacity:.58;fill:#bcbec0}.st4{fill:#f0f1f6}.st5{fill:#c5ccd2}.st7{fill:#a7a9ac}.st8{fill:#5323af}.st9{fill:#feac02}.st10{fill:#2b2928}.st11{fill:#784e1c}.st12{fill:#bcbec0}.st13{fill:#ff4d53}.st14{fill:#f2b78f}.st15{fill:#8d8d8d}.st17{fill:#e2b78c}.st18{fill:#4570ad}.st19{opacity:.49;fill:#fff}.st20{fill:#0f5088}.st22{fill:#305a96}.st23{fill:#231f20}</style><path style="fill:#e3d4f9" d="M0 18h1003v666H0z"/><path class="st1" d="M327 172h404v170H327z"/><path style="fill:#f1f2f2" d="M334 178.7h390v154.6H334z"/><path class="st3" d="M414 178.7h7v154.6h-7zM515 178.7h7v154.6h-7zM616 178.7h7v154.6h-7z"/><path class="st4" d="M37 120h25v277H37z"/><path class="st5" d="m21 132 16-12v277l-16 6.4z"/><path class="st4" d="M156.9 148H177v222.3h-20.1z"/><path class="st5" d="m144.1 157.6 12.8-9.6v222.3l-12.8 5.1z"/><path class="st4" d="M244.5 171h16.9v187.1h-16.9z"/><path class="st5" d="m233.7 179.1 10.8-8.1v187.1l-10.8 4.3z"/><path transform="rotate(-180 959.844 263.5)" class="st4" d="M947.3 125h25v277h-25z"/><path class="st5" d="m988.3 137-16-12v277l16 6.4z"/><path transform="rotate(-180 842.425 264.128)" class="st4" d="M832.4 153h20.1v222.3h-20.1z"/><path class="st5" d="m865.3 162.6-12.8-9.6v222.3l12.8 5.1z"/><path transform="rotate(-180 756.442 269.532)" class="st4" d="M748 176h16.9v187.1H748z"/><path class="st5" d="m775.7 184.1-10.8-8.1v187.1l10.8 4.3z"/><path d="M0 553.5s84.2-102.5 288.6-116 422.3-1.5 422.3-1.5S871 452 1000 550l3 138H-2l2-134.5z" style="fill:#e3e9f7"/><g><path class="st7" d="m196.8 612.1-1.6-3.2 2.2-.9 1.6 3.2z"/></g><g><path class="st8" d="M0 550s144.9-100.1 272.5-110.6 271.5-8.3 271.5-8.3S706 425 800 453s200 97 200 97v-47l-153-58s-96-25-144-27-219.5-5.4-219.5-5.4L292 418s-118 13-206 47-88 38-88 38l2 47z"/><path class="st8" d="M0 420.9s154.2-46.4 267.6-53.7C381 360 598 359 598 359s225 10 273 25 129 36.9 129 36.9v-12.4S870 369 814 365s-180.7-12-180.7-12H365.7L236 360.4S36.1 386.1.1 408.6v12.3z"/><path class="st8" d="M52 398h5v87h-5zM182 369h5v87h-5zM289 360h5v72h-5zM398 356h5v72h-5zM498 356h5v72h-5zM599 356h5v72h-5zM815 369h5v72h-5zM941 402h5v83h-5z"/></g><g><path class="st9" d="M710.9 356.2s11.6-5.7 15.6-1.7 25 31 25 31l-6 6-14.3-16.5s-1.7 5.5 1.3 11.5 9 12 6 24l-2 5-28.5-2.1s.5-9.9 4.5-15.9c0 0 1-17-7-20 0 0-5 5-10 14s-10 11-10 11l-6-9s8-8 10-11 8-12 9-16 3.8-7.5 12.4-10.3z"/><path class="st10" d="M712.5 412.5s-6.2 14.1-1.6 23.5 3.6 26.5 3.6 26.5h12.2s-.5-3.5-2.4-14.2c-1.9-10.8-5.9-11.8-3.9-18.8s3.9-9.7 3.9-9.7-1.4 10.1 2.4 15.9c3.8 5.8 5.8 14.8 5.8 14.8s5-9 8-7c0 0-3-9-6-13s-2-7-1-10 3-5 3-5l-.6-3h-23.4z"/><path class="st11" d="M740.5 442.6s4-.1 4 3.9-7 15-9 17-5 2-4-3 1-10 1-10 2-4.8 8-7.9zM726.5 463.5s3 1.5 0 5.2-14 6.8-14 6.8-8 1-5-5l7-6 1.7-2h9.8l.5 1z"/><path class="st12" d="M710.6 480c-1.3 0-2.2-.3-2.9-1-1.1-1.1-1-2.8-.8-3.7l1.9.6s-.3 1.2.3 1.7c.6.6 2.1.6 4.1 0 6.7-1.9 16.2-9.2 16.3-9.3l1.2 1.6c-.4.3-9.8 7.6-16.9 9.6-1.2.3-2.3.5-3.2.5z"/><path transform="rotate(-32.87 714.754 476.718)" class="st12" d="M713.8 475.3h2v2.7h-2z"/><path transform="rotate(-34.147 725.439 471.11)" class="st12" d="M724.4 470.1h2v2.1h-2z"/><path class="st12" d="M736.8 469.8c-.8 0-1.5-.4-2-1.1-1.2-1.8-.2-4.1-.1-4.3l1.8.8-.9-.4.9.4c-.2.4-.6 1.7-.1 2.4.2.2.3.2.3.2.5 0 1.6-.8 2.8-3.5.3-.7.7-1.4 1.1-2.2 2-4.1 4.8-9.8 4.8-14.7h2c0 5.3-2.9 11.2-5.1 15.5-.4.8-.7 1.5-1 2.1-1.4 2.9-2.9 4.5-4.5 4.6.1.2 0 .2 0 .2z"/><path transform="rotate(-47.063 739.86 461.794)" class="st12" d="M738.9 459.9h2v3.8h-2z"/><path transform="rotate(-43.553 744.257 452.473)" class="st12" d="M743.2 450.8h2v3.4h-2z"/><path class="st13" d="m680.9 395.6-1.4 2.5s-6 .4-4 5.4 6 4 7 1 2.2-3.2 2.2-3.2l-3.8-5.7zM746.5 390.5l1 3c1 3 4.5 5.3 6.7 2.1s0-6.8 0-6.8l-3.4-2.7-4.3 4.4z"/><path class="st10" d="M697.5 338.8s-1 11.7 6 19.7 8 10 13 9 11-4 6-9-4-13.6-4-13.6V336l-21 2.8z"/><ellipse class="st13" cx="708" cy="336" rx="10.5" ry="11.5"/></g><g><ellipse class="st14" cx="360" cy="347" rx="7" ry="11"/><path class="st10" d="M362.9 340.8s3.4 7.7 0 14.2c-3.4 6.5-11.9 3-11.9 3l-3.5-6.5 15.4-10.7z"/><path class="st11" d="M356 402.3v14s7.5 14 4 21.1-1.6 3.9-1.6 3.9-4 8.4-2.5 13.3l-11.6 6.7v-13.1s2.2-7.3 3.2-11.5-3-15.2-5-17.2 1.8 9.6-1.6 12.3c-3.4 2.7-14.4 7.7-16.4 11.7l-2 4s-9-6-9-9 7-7 11-9 9.1-3 9.1-7c-.1-4-2.9-13.5 0-22.2l22.4.9v1.1z"/><path class="st10" d="M312.5 437.5s-6 2-3 6 6 4 6 4 1 5 4 8 5.2 4 5.1 0-.9-7.7-.9-7.7-9.2-5.3-11.2-10.3zM344.3 461.3s-2.8 4.9 3.2 4.6c6-.3 5.5-2.3 5.5-2.3s10.4 2.7 11.9-1.2c1.6-3.9 1.7-4.7-1.4-5.3s-7.6-2.5-7.6-2.5l-11.6 6.7z"/><path class="st15" d="M366 405.1s-.5 3.7 3.5 4.1 7-3.7 5-5.7-5-6-5-6l-4.6 7.6h1.1z"/><path class="st12" d="M342.5 470.5v-2c8.6 0 21.4-.4 23-1.4 1.3-.8.3-4-.4-5.4l1.8-.9c.3.6 2.9 6.1-.4 8-2.6 1.6-20.4 1.7-24 1.7z"/><path class="st12" d="M357.1 465.4h2v3.7h-2zM346.5 467.2h2v2.3h-2zM321 461.5c-1.8 0-4-1-4.8-1.4l-.2-.1-11.3-15.9 1.6-1.2 11 15.5c1.8.9 3.8 1.4 4.3 1 .1-.1.2-.4 0-1l2-.4c.4 1.7-.2 2.6-.7 3.1-.6.3-1.2.4-1.9.4z"/><path transform="rotate(-20.223 317.287 456.25)" class="st12" d="M315 455.3h4.6v2H315z"/><path transform="rotate(-32.435 309.33 445.948)" class="st12" d="M307.6 444.9h3.5v2h-3.5z"/><path class="st15" d="M349.2 353s15.2-2.1 15.8-13.8c.6-11.7-11.4-11.7-14.4-10.7s-7 3-7 3-7.9-7-9.9 4.5c0 0 1.7 7.6 5.8 4.5-.1 0-.7 16 9.7 12.5z"/><path class="st1" d="M344.9 353.5s5.6-3 11.1 0 10.5 4.4 11 12.2-5.5 16.8-5.5 16.8-2.1 2.3 2.9 6.1c5.1 3.9 5.1 8.9 5.1 8.9l-4.6 7.6-6.4-5.6-2.5 1.7-22.4-.9s2.5-11.3 5.9-16.8v-22s-.4-2.1 6.3-2.6l-.9-5.4z"/></g><g style="opacity:.81"><path class="st1" d="M8 612.1c5.3-1.5 10.8-2.3 16.2-3.1 5.5-.8 11-1.2 16.5-1.7 11-.7 22.1-.9 33.2-.3 22.1 1 44.2 4.5 65.5 10.7 21.3 6.2 41.9 15.1 60.7 27l3.5 2.2 3.4 2.4c2.3 1.6 4.6 3.1 6.8 4.8l6.6 5.1c1.1.9 2.2 1.7 3.2 2.6l3.1 2.7c2.1 1.8 4.2 3.6 6.2 5.5l5.9 5.8c1 1 2 1.9 2.9 2.9l2.8 3.1 5.5 6.2-6.1-5.6-3-2.8c-1-.9-2.1-1.8-3.1-2.7l-6.3-5.3c-2.1-1.7-4.3-3.3-6.5-5l-3.2-2.5-3.3-2.4-6.7-4.6-6.9-4.3-3.5-2.2-3.6-2c-9.4-5.5-19.2-10.2-29.2-14.4-10-4.3-20.3-7.8-30.7-10.8l-3.9-1.1-2-.6-2-.5-7.9-2-8-1.7c-2.7-.6-5.4-1-8-1.5-10.7-2-21.5-3.3-32.4-4.3-10.9-.9-21.8-1.4-32.7-1.4-5.5 0-11 .1-16.4.4-2.7.1-5.5.3-8.2.5-3 .3-5.7.4-8.4.9zM17 595.8c17.8-4.3 36-7.3 54.2-9.6 4.6-.6 9.1-1.1 13.7-1.6l13.7-1.3c9.2-.7 18.3-1.3 27.5-1.8s18.4-.6 27.5-.7l13.8.2c2.3 0 4.6 0 6.9.1l6.9.3c4.6.2 9.2.4 13.7.7l13.7 1.1c2.3.2 4.6.4 6.8.7l6.8.9c4.6.6 9.1 1.2 13.6 1.9-4.6 0-9.2-.1-13.7-.2l-6.9-.2h-6.9l-13.7-.2-13.7.1h-6.8l-6.8.1-13.7.3-13.7.5c-4.6.1-9.1.3-13.7.6-9.1.3-18.2.9-27.3 1.4l-13.7.9c-4.5.3-9.1.7-13.7 1-18.1 1.2-36.3 2.9-54.5 4.8zM132.5 529.5c-9.8 1.1-19.5 2.1-29.2 3.4-4.9.6-9.7 1.2-14.5 1.9-4.8.7-9.6 1.4-14.4 2.3-4.8.9-9.5 1.9-14.1 3.1-2.3.6-4.5 1.3-6.6 2.2-1 .4-2 1-2.7 1.5-.2.1-.4.3-.5.4l-.4.4c-.1.2-.2.4-.2.3v-.1.1c.1.1.1.2.2.3.1.1.2.3.4.4.6.6 1.5 1.2 2.4 1.7 1.9 1.1 4.1 2 6.3 2.8 2.2.8 4.5 1.6 6.8 2.3 2.3.7 4.7 1.3 7 1.9l3.5 1c1.2.3 2.3.7 3.5.9l7 1.7 3.5.8 3.6.7 7.1 1.3c9.6 1.5 19.2 2.8 28.9 3.4l3.6.3 3.6.1c2.4.1 4.9.2 7.3.2l7.3.1 7.3-.1c9.7-.2 19.5-1 29.2-2.4-9.4 2.7-19.2 4.2-29 5.3-9.8 1-19.7 1.4-29.6 1.1-9.9-.1-19.7-1.2-29.6-2.4l-7.3-1.2-3.7-.6-3.6-.8-7.3-1.6c-1.2-.2-2.4-.6-3.6-.9l-3.6-1c-2.4-.7-4.8-1.3-7.1-2.1-2.4-.8-4.8-1.6-7.1-2.5-2.4-.9-4.7-1.9-7.1-3.3-1.2-.7-2.4-1.5-3.5-2.6-.3-.3-.6-.6-.9-1-.3-.4-.5-.8-.8-1.3-.2-.5-.4-1.1-.5-1.7-.1-.6-.1-1.3 0-1.9.2-1.3.9-2.2 1.5-2.9.3-.4.6-.6 1-.9.3-.3.6-.5 1-.7 1.3-.8 2.5-1.4 3.8-1.9 2.5-1 4.9-1.7 7.4-2.3 4.9-1.2 9.8-2 14.7-2.6 9.8-1.3 19.6-2 29.4-2.5 9.9-.6 19.8-.8 29.6-.6zM201 484.9c6.9-.1 13.8-.1 20.6.1l10.3.3 10.3.5c13.7.7 27.5 1.8 41.2 3.5 6.9.8 13.7 1.8 20.5 2.9 6.8 1.2 13.6 2.5 20.4 4.3 3.4.9 6.7 1.9 10.1 3.1 3.3 1.3 6.7 2.6 9.9 4.7 1.6 1.1 3.2 2.3 4.5 4.2.7.9 1.2 2 1.5 3.3.3 1.3.2 2.7-.1 3.9-.7 2.4-2.1 4.1-3.5 5.4-1.4 1.4-2.9 2.5-4.5 3.5l-.1.1h-.1c-1 .5-1.6.7-2.4 1-.7.2-1.5.5-2.2.6-1.5.4-2.9.7-4.4.9-1.5.2-2.9.5-4.4.6l-2.2.2-2.2.1-2.2.1-2.2.1c-1.4 0-2.9.1-4.3 0l-4.3-.1-4.2-.2c-2.9-.1-5.7-.5-8.6-.8-2.8-.4-5.7-.8-8.5-1.2l-8.4-1.5-8.4-1.8c2.8.2 5.7.5 8.5.8 2.8.3 5.7.4 8.5.7 2.8.2 5.7.3 8.5.4l4.2.1c1.4 0 2.8.1 4.2.1 5.6.1 11.3-.3 16.8-.9l2.1-.2 2.1-.3c1.4-.2 2.7-.5 4.1-.8 1.3-.3 2.7-.6 3.9-1 .7-.2 1.3-.4 1.9-.6.6-.2 1.3-.5 1.6-.7l-.2.1c1.3-.9 2.6-1.9 3.6-2.9s1.8-2.2 2-3.1c.2-.9 0-1.6-.7-2.5-.7-.9-1.8-1.8-3.1-2.6-2.6-1.6-5.6-2.9-8.7-4-3.1-1.1-6.3-2-9.6-2.9-6.5-1.7-13.2-3.1-19.9-4.3-6.7-1.2-13.5-2.2-20.2-3.2-13.5-2-27.1-3.6-40.7-5.2l-41-4.8zM448.9 469c-3.5 1.2-7 2.4-10.5 3.7-3.5 1.3-6.9 2.6-10.3 4.1-3.4 1.5-6.8 3-10 4.7-3.2 1.7-6.5 3.6-8.9 6-.6.6-1.1 1.2-1.4 1.8-.3.6-.3 1.1-.2 1.5.1.4.6.9 1.2 1.3s1.3.8 2.1 1.2c1.6.7 3.3 1.2 5 1.6 1.7.4 3.5.7 5.3 1 3.6.5 7.2 1 10.9 1.3 3.7.3 7.4.5 11.1.7 3.7.2 7.4.5 11.1.6l11.1.6 22.2.9 22.2.9 22.3.8 89 3.2c29.7 1.1 59.4 2.4 89.1 4.1-29.7.8-59.4.8-89.2.6-14.9-.1-29.7-.4-44.6-.7-14.9-.3-29.7-.8-44.6-1.3-29.7-1.2-59.4-2.4-89.1-5.1-7.4-.7-14.9-1.3-22.3-2.8-1.9-.4-3.7-.8-5.6-1.3-1.8-.5-3.7-1.1-5.5-2-.9-.5-1.8-.9-2.7-1.7-.9-.7-1.8-1.6-2.2-2.9-.2-.7-.3-1.4-.2-2.1l.1-.5.2-.5c.1-.3.2-.6.4-.8.6-1.1 1.3-1.8 2-2.5 3.1-2.7 6.5-4.3 9.9-5.9 3.4-1.6 6.9-2.9 10.4-4.1 7.3-2.6 14.5-4.6 21.7-6.4zM679.9 452.2c-11.8 1.5-23.7 3.1-35.4 5.1-5.9 1-11.7 2.1-17.4 3.5-2.9.7-5.7 1.5-8.4 2.4-1.4.5-2.7 1-4 1.5-1.2.6-2.5 1.2-3.3 1.9l-.5.5c-.1.1-.1.1-.1.2l-.1.1v.1c0 .2 0-.1.1.2v.1l.1.1.2.2.5.5.7.5c.3.2.5.3.8.5 2.3 1.3 5 2.3 7.7 3.2 5.5 1.8 11.3 3.2 17 4.4 5.8 1.3 11.6 2.3 17.5 3.5 2.9.5 5.8 1.2 8.8 1.6l8.8 1.5c5.8 1.1 11.7 1.9 17.6 2.8 5.9.9 11.8 1.6 17.7 2.4 2.9.4 5.9.7 8.8 1.1l8.9 1 8.9.9c3 .3 5.9.6 8.9.8l8.9.7 8.9.6 4.5.3 4.5.2c3 .2 5.9.4 8.9.5 11.9.6 23.8.9 35.8.8-11.9 1.4-23.8 1.9-35.8 2.1-12 .1-23.9 0-35.9-.7-6-.3-12-.7-17.9-1.1l-8.9-.8c-3-.3-6-.5-8.9-.9-5.9-.7-11.9-1.3-17.8-2.2-5.9-.8-11.9-1.6-17.8-2.7l-8.9-1.5c-3-.5-5.9-1.1-8.8-1.7-5.9-1.2-11.8-2.2-17.6-3.7-5.9-1.4-11.7-2.9-17.5-5-1.4-.5-2.9-1.1-4.3-1.7-1.4-.6-2.9-1.3-4.3-2.2-.4-.2-.7-.4-1.1-.7l-1.1-.8c-.4-.4-.7-.7-1-1.1l-.5-.7c-.1-.1-.2-.2-.2-.4l-.2-.4c-.1-.3-.3-.6-.3-.9-.1-.4-.1-.7-.2-1.1 0-.7.2-1.5.5-2.1l.2-.5.3-.4c.2-.2.3-.5.5-.7.4-.4.7-.8 1.1-1 1.5-1.2 3-1.8 4.5-2.4 1.5-.6 3-1.1 4.4-1.5 3-.9 5.9-1.5 8.9-2.1 5.9-1.1 11.9-1.9 17.8-2.6 11.6-1.2 23.6-2 35.5-2.2zM714.8 670.8c2.7-5.7 6.3-10.9 10.2-15.9 3.9-4.9 8.3-9.5 13-13.9 9.4-8.5 19.8-15.9 31.1-21.9 2.8-1.4 5.6-2.9 8.5-4.3 2.9-1.3 5.8-2.6 8.7-3.8l8.9-3.4 9.1-3c12.2-3.6 24.6-6.1 37.2-8 6.3-.7 12.6-1.5 18.9-1.8l4.7-.3c1.6-.1 3.2-.2 4.7-.2l9.5-.2c1.6 0 3.2-.1 4.7 0l4.7.1 9.5.3c6.3.4 12.6.8 18.9 1.4 25.1 2.5 49.9 7.4 74.1 14.1-24.7-4.3-49.6-7.8-74.5-9.4-3.1-.2-6.2-.3-9.3-.4-3.1-.1-6.2-.3-9.3-.4l-9.3-.1h-4.7c-1.6 0-3.1.1-4.7.1l-9.3.3c-1.6 0-3.1.2-4.7.3l-4.6.3c-6.2.3-12.4 1.2-18.5 1.9-12.3 1.7-24.5 4.1-36.4 7.5-11.9 3.3-23.5 7.8-34.7 13.2-2.8 1.4-5.5 2.9-8.2 4.3l-4 2.4c-1.3.8-2.7 1.5-4 2.4l-3.9 2.5c-1.3.8-2.5 1.8-3.8 2.7-2.6 1.8-4.9 3.7-7.4 5.6-4.8 3.9-9.4 8.2-13.6 12.7-1.1 1.1-2.1 2.3-3.1 3.5l-1.5 1.8-1.5 1.8c-2 2.6-3.8 5.1-5.4 7.8z"/><path class="st1" d="M638.1 670.8c32.4-4 64.8-8 97.1-12.4 16.2-2.2 32.3-4.4 48.4-6.9 16.1-2.4 32.2-4.9 48.2-7.8 16-2.8 32-5.8 47.9-9.4 15.8-3.5 31.6-7.6 46.8-13 3.8-1.4 7.5-2.9 11.1-4.6 3.6-1.7 7-3.6 10.4-5.9 3.4-2.2 6.8-4.4 10.1-6.7l5-3.5 4.8-3.7c6.4-5 12.5-10.3 17.8-16.4 2.5-3.1 5.1-6.3 7-9.9 1-1.8 1.8-3.6 2.4-5.5.6-1.9 1-4 .7-6 .5 2 .1 4.1-.3 6.1-.5 2-1.2 4-2 5.8-1.7 3.8-4.1 7.2-6.5 10.5-5 6.6-11 12.3-17.2 17.7l-4.7 4-4.9 3.8c-3.2 2.6-6.6 4.9-10 7.2-1.7 1.2-3.3 2.4-5.2 3.5-.9.6-1.8 1.1-2.7 1.6-.9.5-1.8 1-2.8 1.5-3.7 1.9-7.5 3.6-11.3 5.1-7.7 3.1-15.5 5.6-23.4 7.9-7.9 2.3-15.8 4.4-23.8 6.3-16 3.8-32 6.9-48.1 9.8-16.1 2.8-32.3 5.3-48.5 7.5-16.2 2.2-32.4 4.2-48.7 5.9-32.4 3.2-65 6-97.6 7.5zM792.5 524.5c12.8 2.1 25.4 4.8 38 7.9 12.6 3.1 25.1 6.6 37.3 11.4 3 1.2 6.1 2.6 9 4.2 1.5.8 3 1.7 4.4 2.8 1.4 1.1 2.9 2.3 4.1 4.3.6 1 1.1 2.4.9 4-.1 1.6-1 2.8-1.7 3.7-1.6 1.8-3.3 2.6-5 3.4-3.3 1.4-6.6 2.3-9.8 3-13 2.7-26 3.5-38.9 4.2h-.4c-4.8-.5-9.6-.9-14.4-1.3l-14.4-1.2c-9.6-.7-19.3-1.5-28.9-2.1l-14.5-.9c-2.4-.2-4.8-.3-7.2-.4l-7.2-.4c-9.7-.5-19.3-.8-29-1.1 9.7-.8 19.3-1.3 29-1.5 4.8-.1 9.7-.2 14.5-.1 4.8 0 9.7 0 14.5.1 9.7.2 19.4.5 29.1 1.1 9.7.5 19.3 1.1 29 2h-.4c6.4-.4 12.8-.8 19.2-1.5 6.4-.6 12.7-1.3 18.8-2.6 3-.6 6.1-1.4 8.7-2.5 1.3-.6 2.5-1.3 3.1-1.9.3-.3.4-.5.4-.5 0-.1 0-.3-.2-.7-.4-.8-1.4-1.8-2.5-2.7-1.1-.9-2.4-1.7-3.7-2.5-2.7-1.5-5.5-2.9-8.4-4.2-5.8-2.6-11.8-4.8-17.9-6.9-6.1-2.1-12.2-4.1-18.3-6-12.4-4-24.8-7.5-37.2-11.1z"/><path class="st1" d="M413.2 570.7c-5.5 1-10.9 2-16.3 3.1s-10.9 2.2-16.3 3.4c-10.8 2.4-21.6 4.9-32.3 7.8-10.7 2.9-21.3 6-31.5 9.9-5.1 2-10.2 4.1-14.9 6.7-2.4 1.3-4.7 2.7-6.8 4.2-2.1 1.6-4 3.3-5.2 5.3-.6 1-1 2-1.1 2.9-.1 1 0 1.9.4 2.9.7 1.9 2.5 3.8 4.4 5.4 4 3.2 8.9 5.6 13.8 7.7 5 2.1 10.2 3.9 15.4 5.5 5.2 1.6 10.5 3.1 15.9 4.5 10.7 2.7 21.4 5.1 32.2 7.3l32.6 6.1c5.4 1.1 10.9 2 16.3 2.9l16.4 2.8 8.2 1.4 8.2 1.2 16.4 2.4 8.2 1.2 8.2 1 16.5 2 4.1.5 4.1.4 8.2.8c5.5.5 11 1.2 16.5 1.7 11 .8 22 1.8 33.1 2.3 5.5.3 11 .7 16.6.7l8.3.2c2.8.1 5.5.2 8.3.1h8.3c2.8 0 5.5 0 8.3-.1 5.5-.2 11.1-.2 16.6-.6 2.8-.2 5.5-.2 8.3-.5l8.3-.7c5.5-.6 11-1.2 16.4-2.3-10.8 2.7-21.8 4.1-32.9 5.1-11.1 1.1-22.2 1.6-33.3 1.9-22.2.5-44.4-.2-66.6-1.6-5.5-.4-11.1-.9-16.6-1.3l-8.3-.7-4.1-.4-4.1-.5-16.6-1.8-8.3-.9-8.3-1.1c-22-2.9-43.9-6.5-65.8-10.4l-32.7-6.3c-10.9-2.2-21.8-4.7-32.5-7.6-5.4-1.5-10.8-3-16.1-4.8-5.3-1.7-10.6-3.7-15.8-5.9-5.2-2.3-10.3-4.9-15-8.7-2.3-2-4.5-4.3-5.7-7.6-.6-1.6-.8-3.5-.5-5.3.3-1.8 1-3.4 1.9-4.7 1.8-2.7 4.1-4.7 6.5-6.4 2.4-1.7 4.9-3.1 7.4-4.4 5.1-2.6 10.3-4.7 15.6-6.5 10.6-3.7 21.3-6.5 32.2-9.1 10.8-2.5 21.7-4.7 32.6-6.5 10.9-1.6 21.9-3.3 32.9-4.6z"/><path class="st1" d="M144.4 676.7c25.5-6.7 51.2-12.4 77-17.7 6.4-1.4 12.9-2.6 19.4-3.8 6.5-1.3 12.9-2.5 19.4-3.7 13-2.4 25.9-4.5 38.9-6.7 13-2 26-4.1 39.1-5.8 6.5-.9 13.1-1.8 19.6-2.6 6.5-.8 13.1-1.6 19.6-2.4 26.2-2.9 52.5-5 78.8-5.9-26.1 3.3-52.2 6.8-78.2 10.5-13 2.1-26 3.8-39 5.9-6.5 1-13 1.9-19.5 3l-19.5 3.1c-13 2.1-26 4.2-38.9 6.4-13 2.1-25.9 4.4-38.9 6.5-25.8 4.5-51.8 8.9-77.8 13.2zM417 447.8c11.6-2.5 23.3-4.1 35-5.3 11.8-1.2 23.6-1.9 35.4-1.9 11.8 0 23.8.5 35.6 2.7 3 .6 5.9 1.2 8.8 2.1 2.9.9 5.8 2 8.5 3.6.7.4 1.3.9 2 1.3.6.5 1.3 1 1.8 1.6 1.1 1.2 2.1 2.6 2.5 4.2.4 1.6.2 3.3-.3 4.7-.5 1.5-1.4 2.7-2.3 3.9.6-1.4 1.2-2.7 1.4-4.1.2-1.4.1-2.8-.4-4-.5-1.2-1.4-2.2-2.5-3-.5-.4-1.1-.8-1.7-1.1-.6-.3-1.2-.6-1.9-.9-2.5-1.1-5.3-1.8-8.1-2.4-2.8-.6-5.7-1-8.5-1.3-11.5-1.2-23.2-1.3-34.9-1.4-11.7 0-23.4.3-35.1.6-11.7.4-23.4.7-35.3.7zM566.5 550c10.3 1.8 20.5 4.3 30.5 7.3 10 3.2 19.9 6.7 29.2 12.1 4.6 2.7 9.2 5.8 12.7 10.7 1.7 2.4 3 5.5 2.9 8.9-.2 3.4-1.6 6.4-3.5 8.7-1.8 2.4-4 4.2-6.3 5.9-2.3 1.6-4.6 3.1-7 4.3-4.8 2.6-9.7 4.6-14.6 6.5L581 625.1l-14.7 5.4-7.3 2.7-7.3 2.7-14.6 5.5c-4.9 1.8-9.7 3.7-14.6 5.6-9.7 3.8-19.4 7.6-28.9 11.9 4.4-2.8 9-5.2 13.7-7.6 2.3-1.2 4.7-2.4 7-3.5 2.3-1.2 4.7-2.3 7-3.4 9.5-4.5 19-8.7 28.6-12.8 9.6-4.1 19.3-7.9 29-11.8 9.7-3.8 19.5-7.4 29.3-11.1 4.8-1.8 9.5-3.7 14-6.1 2.2-1.2 4.4-2.4 6.3-3.8 2-1.4 3.8-3 5.2-4.7 1.5-1.7 2.3-3.6 2.4-5.5.1-1.9-.5-3.9-1.8-5.7-1.2-1.9-2.9-3.6-4.8-5.2s-3.9-3.1-6-4.4c-4.3-2.7-8.8-5.1-13.5-7.3-4.7-2.2-9.4-4.2-14.3-6-9.3-3.6-19.2-6.9-29.2-10z"/></g><g><path class="st17" d="m475.5 501.5 3.4 9.5 17.6-7.1s-4.2 2.9-4.1-12.8c0 0-18.9-1.5-16.9 10.4z"/><ellipse class="st17" cx="471.5" cy="485.5" rx="9.5" ry="17.5"/><path class="st10" d="M463.1 477.4s-1.6-10.9 11.4-14.9h10.7c1.4 0 2.7.6 3.8 1.5.8.8 2.1 1.5 3.6 1.5 3 0 10.6-11 19.3 2.5 0 0 3.7 5.5-2.3 14.5s4.7 13.4 4.7 13.4-11.7 8.3-14.2-6c0 0-4.5 7.7-24.5 4.7 0 0 2.8-3.7-5.6-7.4-8.5-3.7-6.9-9.8-6.9-9.8z"/><path class="st18" d="m477.5 573.5 4.7 18.8s3.3 9.7 14.3 15 15 8.3 22 19.3c0 0 6 3 15-12 0 0-7-3-16-12s-19-11-19-11l1.5-19.7-22.5 1.6z"/><path class="st18" d="m475.3 574.2-6.3 25c-.4 1.7-.6 3.5-.4 5.2.2 2.4.7 6.1 1.8 10.1 2 7 4.7 8.4 4.8 22.7s0 12.8 0 12.8h17.2l-3.9-23.3s-6.2-12.3-2.7-18.3l3.6-6 7-28.3c.1.1-22.2 1.8-21.1.1z"/><path class="st12" d="M497 658.9c-.3.3-.7.6-1.1.9-1.8 1.4-4.9 3.8-9.1 6.9-9 6.6-14.8 7.8-17.9 7.8-1.7 0-2.7-.4-2.9-.5l-.9-.4v-8.2h3v5.9c2 .2 7.4-.2 17-7.2 8.6-6.3 10.2-7.7 10.5-8-.3.3-.5 1.1 0 1.8.3.5.9.7 1.3.7l.1.3z"/><path transform="matrix(.9994 -.03493 .03493 .9994 -23 17.08)" class="st12" d="M475.9 663h3v7.7h-3z"/><path class="st19" d="M494.5 656.5c0 1-.3 1.9-.7 2.6-.8 1.6-2.8 2.3-4.4 1.6l-3.5-1.5s-3.9 3.6-9.1 5.5c-2.1.8-4.5 1.3-6.9 1.2-1.5-.1-2.7-.3-3.6-.6-4.3-1.5-3-5.2.2-7.3 4-2.5 8.8-7.9 8.8-7.9h17.2l.1.1c.3.6 1.9 3.6 1.9 6.3z"/><path class="st20" d="M494.5 656.5c0 1-.3 1.8-.6 2.6-.8 1.6-2.8 2.3-4.5 1.6l-3.4-1.5s-3.9 3.6-9.1 5.5c-2.1.8-4.5 1.3-6.9 1.2-1.5-.1-2.7-.3-3.6-.6 3.9-.4 11.3-1.9 17.2-7.4 3.5-3.3 7.1-6 9.5-7.9.2.6 1.4 3.8 1.4 6.5z"/><path class="st19" d="M538.5 619.5v4l-2.5 3.2v10.8s-3.5 8.7-7.5 8.9c-.8 0-1.5-.3-2.1-1-2.4-2.7-3.4-10.4-4.5-18.6l11.6-12.2v2.7h.1c.7-.4 4.9-1.5 4.9 2.2z"/><path class="st12" d="M533.5 651c-2.1 0-4.2-1.2-6.1-3.7l2.4-1.9c1.5 1.9 2.9 2.7 4.2 2.5 2.4-.4 4.5-4.2 5.2-5.8l2-24.8 3 .2-2 25.2-.1.2c-.3.7-3 7.2-7.6 7.9-.5.2-.8.2-1 .2z"/><path class="st12" d="M535.5 638.1h5.2v3h-5.2zM538.5 620.1h3.7v3h-3.7z"/><path class="st20" d="M538.5 619.5v4l-2.5 3.2v10.8s-3.5 8.7-7.5 8.9c-.8 0-1.5-.3-2.1-1 0 0 6.6-3.2 7.1-10.8.4-5.4.2-13.4.1-17.5.7-.2 4.9-1.3 4.9 2.4z"/><ellipse class="st17" cx="482.2" cy="491.5" rx="3.3" ry="4.4"/><path class="st18" d="M440.5 550s-8.5 1-9.5 10 7.5 6.7 7.5 6.7 3.5-2.7 3.5-6.7 3.4-3.9 3.4-3.9l-4.9-6.1zM524.5 550.5s2.5.5 4 5 6.9 7.5 8.7 0c1.8-7.5-4.7-10.1-4.7-10.1l-5.1-2.5-2.9 7.6z"/><path class="st13" d="M475.3 507.9h3.5s-2.4-9.3 6.6-6.8l9 2.5-1.3-2.9s3.7-5.1 12.5 2.4 2.8 20.5 2.8 20.5-3 3 0 4 20 15 20 15l-4 8s-14-4.1-28-16c0 0-9 4 0 19s4 21.9 4 21.9l-31 2.1s-7-23-2-36c0 0-13 15-21 16l-8-10s12-10 16-12 12-15 12-15 2.8-8.4 8.9-12.7z"/></g><g><path d="M235.3 578.5v16l-28.3 7 10.1 17 29.3-12.3s6.1-1.7 5.1-9.7l-16.2-18z" style="fill:#e59507"/><path class="st22" d="M272.4 651.8c-.1 1.6-.8 2.7-.8 2.7s-4.2 1-9.2 0-15-7.1-15-7.1v3.1l-6-2.1-1-5.9.5-1.4 1.5-4.6 19 1v3l8 6c2.7 1.5 3.2 3.6 3 5.3z"/><path class="st7" d="M264.3 660.3c-2 0-3.7-.3-4-.3l-.3-.1-24-10 1.2-2.8L261 657c2.3.4 6.4.5 7.8-.7.2-.2.5-.6.5-1.3l3-.1c.1 1.5-.5 2.8-1.5 3.7-1.7 1.4-4.3 1.7-6.5 1.7z"/><path transform="rotate(-73.859 259.889 655.954)" class="st7" d="M257.8 654.5h4.2v3h-4.2z"/><path transform="rotate(-72.295 243.82 650.382)" class="st7" d="M242.7 648.8h2.2v3h-2.2z"/><path class="st7" d="M209.3 637.5c-2.3 0-5.7-1.2-7.8-4.6-2.8-4.4-7.9-24.8-8.4-27.1l2.9-.7c1.5 6.1 5.9 22.8 8 26.2 1.5 2.4 3.8 3.2 5.3 3.2.7 0 1.4-.2 1.6-.6l2.6 1.5c-.8 1.3-2.2 2-4.1 2 0 .1-.1.1-.1.1z"/><path transform="rotate(-17.215 202.59 626.868)" class="st7" d="M200.6 625.3h4v3h-4z"/><path class="st22" d="M216.5 617.9v10.6c0 2.6-.5 4.2-1.3 5.1-1.5 1.8-3.7.9-3.7.9s-5-2-7-8.3-1.8-13.7-1.8-13.7h-4.2l-1-6 4-3s.7-.1 1.6-.3c1.5-.3 3.8-.7 4.4-.6l9 15.3z"/><path class="st9" d="M231.5 566.5s-3 9 5 16 13 14 14 16-1 14-1 14l-7 24 19 1 5-27s5-9 1-17-9.5-20.8-8.2-25.9l-27.8-1.1z"/><path class="st23" d="M215.2 633.6c-1.5 1.8-3.7.9-3.7.9s-5-2-7-8.3-1.8-13.7-1.8-13.7h-4.2l-1-6 4-3s.7-.1 1.6-.3c.7 6.3 2.5 20.3 4.4 23.6 2.5 4.2 3.9 5.4 7.7 6.8zM272.4 651.8c-.1 1.6-.8 2.7-.8 2.7s-4.2 1-9.2 0-15-7.1-15-7.1v3.1l-6-2.1-1-5.9.5-1.4c4.7 2.7 16.4 9.3 18.9 10 3.1.9 8.6 2.6 12.4.8.1-.1.2-.1.2-.1z"/><ellipse transform="rotate(-13.59 257.4 480.235)" class="st14" cx="257.3" cy="480.2" rx="11.7" ry="16"/><path d="M248.9 485.3s-1.4-5.8 4.6-8.8 14.9 0 14.9 0 4.1-8-2.9-14-14-7-24-3-9 15-9 15-2 11 8 16c0 0 6.6 1.8 8.3-2.1l.1-3.1z" style="fill:#608c37"/><path class="st22" d="M239.5 497.5s-15 13-21 23-14 32-14 32l16 2s3-14 5-17 6.8-9.4 6.8-9.4 1.2-1.6 2.2 2.4-6 23-5 31v7l33-1 2-18s11 11 16 11l8-10s-7-5-13-8-5.9-16.3-5.9-16.3l-4.1-18.2-26-10.5z"/><path class="st14" d="M207.5 553.5s0 4.6-3 4.8-2 5.3 1.5 6.7c3.5 1.5 8.5 2.5 10.5-3.5s2-7.3 2-7.3l-11-.7zM282 558.6s3.5 1.9 3.5 4.9 11.8 4.1 9.4-2.5-7.6-9-7.6-9l-5.3 6.6z"/><path class="st9" d="m237.5 498.5-43 29s-7-2-9 3 2 11 9 7c0 0 3-1 3-5 0-1 17.2-4.8 17.2-4.8l22.8-29.2z"/><path class="st9" d="M265.4 493.5s-7.3 6.8-16.6-5.1c0 0-2.3 5.1-8.3 2.1 0 0-5 3-3 8s11 14 20 14 10-10 10-10 .8-8-2.1-9z"/><ellipse transform="rotate(-13.59 246.063 486.076)" class="st14" cx="246" cy="486" rx="3" ry="4.3"/></g><path d="M1003 18c-64 149-272 146-272 146H327C115.9 154.6 32.7 92.6 0 47.9V18h1003z" style="opacity:.68;fill:#5323af"/><path class="st1" d="M1003 29c-64 121.4-272 119-272 119H327C115.9 140.3 32.7 89.8 0 53.4V29h1003z"/></svg>