<svg version="1.1" id="Layer_1" xmlns="http://www.w3.org/2000/svg" xmlns:xlink="http://www.w3.org/1999/xlink" x="0" y="0" viewBox="0 0 1000 1000" style="enable-background:new 0 0 1000 1000" xml:space="preserve"><style>.st6{fill:#bcbec0}.st7{fill:#4e9a95}.st11{fill:#5b3d50}.st12{fill:#ffa89f}.st15{fill:#fcfffe}.st17{fill:#4d247c}.st20{fill:#6996cc}.st24{fill:#fff}</style><path d="M543.3 65.9C749.7 77.4 968.9 356.7 955 603.5S686.2 890 479.9 878.4 216.4 649.1 130.6 417.3C31 148.4 337 54.3 543.3 65.9z" style="opacity:.49;fill:#cfb5f9"/><path d="M900.8 598.6c-76.5 192-410.9 311.1-640.6 219.6S74 472.4 150.5 280.4s301.1-177 548.2-184.8c286.6-9 278.6 311.1 202.1 503z" style="fill:#baa2ea"/><defs><path id="SVGID_1_" d="M475.9 96.2c-122.8-8.8-238.5 64.2-285.1 187.5-13.4 35.5-14.7 75.4-27.5 109.8-50.6 135.6 45.6 299.8 151.6 360.8s395 59.7 520.5-27.5S964 532.6 950.2 438.2c-5.8-39.7-13.1-96.7-18.3-151.9-9.2-97.1-87.2-173.3-184.4-180.3l-271.6-9.8z"/></defs><clipPath id="SVGID_2_"><use xlink:href="#SVGID_1_" style="overflow:visible"/></clipPath><g style="clip-path:url(#SVGID_2_)"><path style="fill:#cfb5f9" d="M129.2 72.3h848.4v770.4H129.2z"/><path d="M931.6 520.9C930.1 797 574.8 811.1 366.9 744.1S140.1 447.9 180.4 327.2c29.9-89.6 26.8-171.6 23.2-208h714.8l-7.5 34.3c-14.1 219.2 22.2 91.3 20.7 367.4z" style="fill:#e2d5f7"/><path class="st6" d="M129.2 585.2c35.3-2.1 70.7-3.6 106-5 17.7-.7 35.3-1.2 53-1.8 17.7-.5 35.4-1 53-1.3l53.1-.7 26.5-.2 26.5-.3 53-.9 13.3-.2 13.3-.3 26.5-.5c35.4-.7 70.7-1.2 106.1-1.3 17.7-.1 35.4 0 53.1 0 17.7.1 35.4.3 53.1.6 35.4.6 70.7 1.7 106.1 3.5 35.3 1.8 70.7 4.2 105.8 8.4v.4c-35.2-2.9-70.6-4.5-105.9-5.7l-26.5-.8-26.5-.6-26.5-.5-13.3-.2-13.3-.2c-70.7-1.1-141.4-1.3-212.2-1.4-35.4 0-70.7.3-106.1 1-17.7.4-35.4.9-53 1.5l-53 1.8c-17.7.6-35.3 1.1-53 1.5l-53 1.3-53 1.2-26.5.6-26.5.5-.1-.4zM129.2 705.6c35.3-2.1 70.7-3.6 106-5 17.7-.7 35.3-1.2 53-1.8 17.7-.5 35.4-1 53-1.3l53.1-.7 26.5-.2 26.5-.3 53-.9 13.3-.2 13.3-.3 26.5-.5c35.4-.7 70.7-1.2 106.1-1.3 17.7-.1 35.4 0 53.1 0 17.7.1 35.4.3 53.1.6 35.4.6 70.7 1.7 106.1 3.5 35.3 1.8 70.7 4.2 105.8 8.4v.4c-35.2-2.9-70.6-4.5-105.9-5.7l-26.5-.8-26.5-.6-26.5-.5-13.3-.2-13.3-.2c-70.7-1.1-141.4-1.3-212.2-1.4-35.4 0-70.7.3-106.1 1-17.7.4-35.4.9-53 1.5l-53 1.8c-17.7.6-35.3 1.1-53 1.5l-53 1.3-53 1.2-26.5.6-26.5.5-.1-.4zM129.2 208.1c35.3-2.1 70.7-3.6 106-5 17.7-.7 35.3-1.2 53-1.8 17.7-.5 35.4-1 53-1.3l53.1-.7 26.5-.2 26.5-.3 53-.9 13.3-.2 13.3-.3 26.5-.5c35.4-.7 70.7-1.2 106.1-1.3 17.7-.1 35.4 0 53.1 0 17.7.1 35.4.3 53.1.6 35.4.6 70.7 1.7 106.1 3.5 35.3 1.8 70.7 4.2 105.8 8.4v.4c-35.2-2.9-70.6-4.5-105.9-5.7l-26.5-.8-26.5-.6-26.5-.5-13.3-.2-13.3-.2c-70.7-1.1-141.4-1.3-212.2-1.4-35.4 0-70.7.3-106.1 1-17.7.4-35.4.9-53 1.5l-53 1.8c-17.7.6-35.3 1.1-53 1.5l-53 1.3-53 1.2-26.5.6-26.5.5-.1-.4zM129.2 323.2c35.4.2 70.7.7 106.1 1.2l53 .9c17.7.3 35.3.7 53 1.1 35.3.9 70.7 2 106 2.6 8.8.1 17.7.3 26.5.4l26.5.2c17.7.2 35.4.1 53 .1l106.1-.4c17.7 0 35.4-.2 53-.4l26.5-.2c8.8 0 17.7-.2 26.5-.3 70.7-.6 141.4-1.5 212-5v.4l-26.5 2-13.2 1c-4.4.3-8.8.7-13.2.8l-26.5 1.3c-8.8.4-17.7.9-26.5 1.2l-53 1.6c-8.8.3-17.7.4-26.5.5l-26.5.4c-17.7.3-35.4.4-53 .4-17.7 0-35.4.1-53 0l-53-.3c-17.7-.2-35.4-.5-53-.8l-26.5-.4-13.3-.2-13.3-.2-53-.6-106.1-.6c-35.4-.4-70.7-1.2-106.1-2.2-35.3-1.1-70.7-2.2-106-3.9v-.6zM129.2 457.2c35.4.2 70.7.7 106.1 1.2l53 .9c17.7.3 35.3.7 53 1.1 35.3.9 70.7 2 106 2.6 8.8.1 17.7.3 26.5.4l26.5.2c17.7.2 35.4.1 53 .1l106.1-.4c17.7 0 35.4-.2 53-.4l26.5-.2c8.8 0 17.7-.2 26.5-.3 70.7-.6 141.4-1.5 212-5v.4l-26.5 2-13.2 1c-4.4.3-8.8.7-13.2.8l-26.5 1.3c-8.8.4-17.7.9-26.5 1.2l-53 1.6c-8.8.3-17.7.4-26.5.5l-26.5.4c-17.7.3-35.4.4-53 .4-17.7 0-35.4.1-53 0l-53-.3c-17.7-.2-35.4-.5-53-.8l-26.5-.4-13.3-.2-13.3-.2-53-.6-106.1-.6c-35.4-.4-70.7-1.2-106.1-2.2-35.3-1.1-70.7-2.2-106-3.9v-.6z"/><path class="st7" d="M364.2 716.4C286.4 614 170 525.8 168.8 524.9l1.2-1.6c1.2.9 117.8 89.2 195.7 191.8l-1.5 1.3z"/><path class="st7" d="M180.4 548.5h20.7v2h-20.7z"/><path transform="rotate(-28.848 220.243 560.186)" class="st7" d="M219.2 548h2v24.4h-2z"/><path transform="rotate(-77.619 228.991 583.254)" class="st7" d="M228 568.3h2v29.9h-2z"/><path transform="rotate(-9.701 253.378 584.285)" class="st7" d="M252.3 570.7h2v26.9h-2z"/><path class="st7" d="M293.2 615h2v19.9h-2zM245.1 613.2s-39.4-10.6-90.8 21.7c0 0 70.7 8.7 90.8-21.7zM287.5 648.4s.5-21.2-87.8-11.1c0 0 54.7 36.8 87.8 11.1zM220.7 580s-33.7-25.7-80.6-14.7c0 0 31.1 31.2 80.6 14.7zM294.2 614.1s-31-32.7-18.3-86.4c.1 0 30.3 47.7 18.3 86.4zM251 571.5s-27.5-54.7 0-87.8c0 0 15.6 59.1 0 87.8zM216.4 549.9s-26.6-.3-33.9-80.6c-.1 0 38.4 42.4 33.9 80.6zM129.2 549.2c30 7.4 50.2 1.8 54.6.3l.9-.3c-6.6-11.6-38-11.2-38-11.2l-17.5-.5v11.7zM176.5 530s-21.9-2.4-47.3-24.2v-14l18.9 10.6s27.3 13.9 28.4 27.1v.5zM309.7 678.6s-34.8 17.5-89.8-4.3l50.9-3.3c.1 0 31.2-3.3 38.9 7.6z"/><path class="st7" d="M243.6 612.2h28.6v2h-28.6zM285 647.1h22v2h-22z"/><g><path class="st7" d="M304.2 462.6 273 443.9l1-1.7 25.4 15.2c-4.1-8.6-16.3-34.8-27.7-64.6-16.8-43.9-25-76.6-24.2-97.3l2 .1c-.7 20.1 7.6 53.5 24.1 96.5 13.9 36.3 28.9 67.2 29 67.5l1.6 3z"/><path transform="rotate(-72.734 295.332 432.095)" class="st7" d="M286.6 431.1H304v2h-17.4z"/><path transform="rotate(-83.864 276.612 385.939)" class="st7" d="M263.7 385h26v2h-26z"/><path class="st7" d="M272.8 392.4s-37.9 8.8-86.2-25.5l50.3 8.9c-.1 0 31 4.2 35.9 16.6zM263 365.3l-14.1-9.7 1.1-1.7 11.9 8.3 5.2-15.5 1.9.6zM255 339.1l-12-15.4 1.6-1.2 9.5 12.2 6-21.7 1.9.5zM273.4 449.6s-60.6-18.4-78.1-53.5c0 0 87.8 26.5 78.1 53.5z"/><path class="st7" d="M249.8 356.1s-47.8-7.9-67-46.9c0 0 59.4 14.6 67 46.9zM274 379.6s43.6-28 49.7-54.3c0 0-25.3 4.7-35.9 20.5-10.5 15.9-13.8 33.8-13.8 33.8zM186.8 250.5s23.3 69.9 51.6 76.3-33.3-67.5-51.6-76.3zM297.3 424.8s-9-43.8 35.7-79.2c0-.1-1.5 63.9-35.7 79.2zM290.7 478.6l-68.9-34.8s40.2 52.2 57.4 54l11.5-19.2zM260.5 255.5c3.9-35.1 12.3-118.1.6-99.2-.8 1.3-1.5 2.7-2.3 4.2-12.7 26.5-14.3 85.5-14.3 85.5-9.9 10 3.3 49.2 3.3 49.2 15.1-14.5 13.1-39.3 13.1-39.3l-.4-.4zM268.1 348.1s26.5-49.4 55.9-48c0-.1-28.4 40-55.9 48zM258.1 309.3s9-70.8 40.8-73.8c0 0-18.4 84.2-40.8 77.8v-4z"/></g><g><path d="M670.4 520.9H283.1c-10.1 0-18.3-8.2-18.3-18.3v-98.9c0-10.1 8.2-18.3 18.3-18.3h387.2c10.1 0 18.3 8.2 18.3 18.3v98.9c.1 10.1-8.1 18.3-18.2 18.3z" style="opacity:.75;fill:#cab0a7"/><path d="M662 513.1H287.7c-10.1 0-18.3-8.2-18.3-18.3V390.2c0-10.1 8.2-18.3 18.3-18.3H662c10.1 0 18.3 8.2 18.3 18.3v104.6c0 10.1-8.2 18.3-18.3 18.3z" style="fill:#feac02"/><path d="M649.1 505.7H296.8c-10.1 0-18.3-8.2-18.3-18.3v-92.7c0-10.1 8.2-18.3 18.3-18.3h352.3c10.1 0 18.3 8.2 18.3 18.3v92.7c.1 10.1-8.2 18.3-18.3 18.3z" style="fill:#ffbf60"/><path class="st11" d="M426.4 405.8s-23.5 17.4-58.2 26.6c-34.7 9.2-13.6 42.4-13.6 42.4s-32.5 22.9-12.1 49.4c0 0 78.7-17.2 102.9-59.2l7.3-31.7-26.3-27.5z"/><path class="st11" d="M426.4 405.8c-8.8 4.9-17.9 9.2-27.1 13.2-9.2 4-18.6 7.6-28.1 10.8-1.2.4-2.4.8-3.6 1.1-1.2.4-2.5.8-3.5 1.1-2.1.7-4.2 1.7-6.1 2.9-3.8 2.4-7 5.8-9.2 9.8-2.2 4-3.3 8.7-3.1 13.4.1 2.3.7 4.6 1.7 6.8.5 1.1 1.2 2.1 2 3 .7 1 1.7 1.8 2.6 2.7-2.3-1.1-4.4-2.7-6-4.8-.8-1-1.5-2.2-2-3.4-.5-1.2-1-2.5-1.2-3.8-1.1-5.3-.4-10.8 1.8-15.8 2.1-5 5.8-9.4 10.3-12.5 2.3-1.6 4.7-2.8 7.3-3.8 1.4-.5 2.5-.8 3.7-1.2 1.2-.4 2.4-.7 3.5-1.1l28.3-9.5c9.5-3.2 19-6.3 28.7-8.9zM518.9 398.4l38.5 57.8s27.5 26.8 14.7 68l-46.2-36.3-27.2-31.9 4.6-50.2 15.6-7.4z"/><path class="st11" d="m522.5 398.3 22.5 28.5 22.4 28.6-.1-.1c3.8 4.2 6.9 8.8 9.4 13.8s4.5 10.2 5.6 15.7c1.1 5.4 1.8 11 1.5 16.6 0 2.8-.5 5.5-.8 8.2-.1 1.4-.5 2.7-.8 4-.3 1.3-.6 2.7-1 4l-.3-.1c.1-1.4.3-2.7.4-4.1.1-1.4.4-2.7.4-4.1.1-2.7.3-5.4.1-8.1-.1-5.4-1-10.7-2.3-15.9-1.3-5.2-3.2-10.2-5.5-15-.5-1.2-1.2-2.4-1.8-3.6-.6-1.2-1.3-2.3-2-3.5-1.4-2.2-3-4.5-4.7-6.4l-.1-.1-21.6-29.2-21.5-29.3.2.1z"/><path class="st11" d="m519.4 398.3 22.5 28.5 22.4 28.6-.1-.1c3.8 4.2 6.9 8.8 9.4 13.8s4.5 10.2 5.6 15.7c1.1 5.4 1.8 11 1.5 16.6 0 2.8-.5 5.5-.8 8.2-.1 1.4-.5 2.7-.8 4-.3 1.3-.6 2.7-1 4l-.3-.1c.1-1.4.3-2.7.4-4.1.1-1.4.4-2.7.4-4.1.1-2.7.3-5.4.1-8.1-.1-5.4-1-10.7-2.3-15.9-1.3-5.2-3.2-10.2-5.5-15-.5-1.2-1.2-2.4-1.8-3.6-.6-1.2-1.3-2.3-2-3.5-1.4-2.2-3-4.5-4.7-6.4l-.1-.1-21.6-29.2-21.5-29.3.2.1z"/><path class="st11" d="m517.4 401.6 22.5 28.5 22.4 28.6-.1-.1c3.8 4.2 6.9 8.8 9.4 13.8s4.5 10.2 5.6 15.7c1.1 5.4 1.8 11 1.5 16.6 0 2.8-.5 5.5-.8 8.2-.1 1.4-.5 2.7-.8 4-.3 1.3-.6 2.7-1 4l-.3-.1c.1-1.4.3-2.7.4-4.1.1-1.4.4-2.7.4-4.1.1-2.7.3-5.4.1-8.1-.1-5.4-1-10.7-2.3-15.9-1.3-5.2-3.2-10.2-5.5-15-.5-1.2-1.2-2.4-1.8-3.6-.6-1.2-1.3-2.3-2-3.5-1.4-2.2-3-4.5-4.7-6.4l-.1-.1-21.6-29-21.5-29.3.2-.1z"/><path class="st12" d="M662.6 792.8h-58l-20.5-102.3c-13.6 42 0 102.3 0 102.3H361.6c18.3-39.8-4.7-110.2-4.7-110.2-6.8 13.6-15.9 110.2-15.9 110.2h-62.5s18.2-133 31.8-210.2c13.6-77.3 97.7-89.8 97.7-89.8 23-10.5 31.7-29.6 34.9-44.7 2.7-12.5 1.5-22.4 1.5-22.4l62.5-6.8c.5 11.1 2 20.7 4.4 29.1 9.6 32.8 33.9 47.1 68.3 60.7 43.2 17 53.4 80.7 53.4 80.7 18.2 50 29.6 203.4 29.6 203.4z"/><path d="M511.3 448c-5.7 6.4-12.7 11.5-20.9 14.8-22.1 8.9-37.4-1.2-47.6-14.7 2.7-12.5 1.5-22.4 1.5-22.4l62.5-6.8c.6 11.1 2.1 20.7 4.5 29.1z" style="opacity:.16;fill:#141313"/><ellipse class="st12" cx="475.6" cy="334.2" rx="75.9" ry="110.8"/><path d="M427.2 479.2s2.4 57.9 43.4 64.7 59.2-18 54.6-69.2l36.8 26.4s-2.8 75.8 18.8 98.5c21.6 22.7 17 35.2 3.4 90.9 0 0-14.8 70.5 0 102.3H361.6s14.6-46.6-4.7-110.2c-5-16.4-8.1-30-9.9-41.1-3.6-21.6 1.7-43.7 14.4-61.5 14.4-20.1 33.6-53.4 28.5-82.6l37.3-18.2z" style="fill:#ff4d53"/><path class="st11" d="M421.7 256.3s19.2-33 69.7-25c12.8 2 24.5 8.7 32.7 18.8 14.1 17.2 25.5 47.4 27.5 84.1 0 0 18.6-39.2 1.2-86.9s-69.7-68.2-131-34.1-21.9 129.5-21.9 129.5-.1-60.2 21.8-86.4z"/><path class="st12" d="M560.1 119.2s9.8 152.2-.1 175.9l-2.6 20.3 42.7 18.8s45.5-164.7 25-215h-65z"/><path class="st15" d="M611.5 316.8s-20.9-22-58.1-20.2c0 0 11.3 22.6-10.2 46.2-21.5 23.5-23.4 19.9-28.9 28.1-5.5 8.3-21.1 15.6-4.6 18.3 16.5 2.8 27.5-7.3 27.5-7.3s-13.8 34.9-34.9 45.9c-21.1 11-22 20.2-15.6 21.1 6.4.9 13.8 0 13.8 0s-3.7 8.7 8.3 7.1c11.9-1.6 48.6-26.4 48.6-26.4s22-15.6 28.4-46.8l25.7-66z"/><path class="st12" d="m370.3 119.2 5.5 94.9 50.6-3.4v-91.5z"/><path class="st15" d="M370.3 204.9s26.6-21.1 60.5 0c0 0-11.9 18.3 4.6 44.9s25.7 46.7 25.7 46.7 2 27-14.7 10.2c-20-20.2-28.9-25.9-30.5-10.2-1.6 15.7-4.8 38.6 0 59.7s4.3 44.5-6.9 31c0 0-5.7 12.1-15.8-1.6-10.1-13.8-11-18.3-11-18.3s3.7 24.8-7.3 13.8c0 0-11-28.4-4.6-65.1V204.9z"/></g><g><path d="m708.5 559.9 29.8-72.3c1.2-2.9 4.6-4.3 7.6-3.2l118.6 45.3c3 1.1 4.5 4.4 3.3 7.3l-28.5 74.3c-1 2.6-3.7 4.1-6.5 3.6-11.2-2-44-10.5-121.4-47.8-2.8-1.3-4.1-4.5-2.9-7.2z" style="opacity:.53;fill:#5d3c50"/><path class="st17" d="m707 552.2 29-72.3c1.2-2.9 4.5-4.3 7.4-3.2L858.6 522c2.9 1.1 4.3 4.4 3.2 7.3l-27.7 74.3c-1 2.6-3.6 4.1-6.4 3.6-10.9-2-42.8-10.5-118-47.8-2.6-1.3-3.8-4.4-2.7-7.2z"/><path d="m798.7 584.1-58.8-24.5c-9.7-4-14.3-15.3-10.3-25l12.3-29.6c4-9.7 15.3-14.3 25-10.3l58.8 24.5c9.7 4 14.3 15.3 10.3 25l-12.3 29.6c-4.1 9.7-15.4 14.3-25 10.3z" style="fill:#f0bd71"/></g><g><path d="M977.6 292.3c-29.1-20.5-80.5-55.8-127.5-84.8l-6-3.6c-10.2-6.2-20.1-12-29.5-17.3-1.5-.8-3-1.7-4.5-2.5-21.1-11.6-39.2-20.1-50.9-22.6l-35.3 56.3-21.6 34.5-33.3 53.1-6.9 11.1S825.4 444.7 897.8 465l79.9-120.1V292.3z" style="opacity:.17;fill:#231f20"/><path class="st17" d="M977.6 292.3v-16.7c-49.3-34.7-179.4-124.4-223-134l-97.2 154.9s4.2 3.3 11.5 8.9c38.4 29.4 163.4 122.6 224.2 139.7l84.5-127v-25.8z"/><circle class="st20" cx="754" cy="260.8" r="52.5"/><circle class="st15" cx="754" cy="260.8" r="43"/><circle cx="906.2" cy="295.1" r="30.9" style="fill:#fcbe6c"/><circle cx="906.2" cy="295.1" r="20.5" style="fill:#e8d8c0"/><circle cx="827" cy="356.9" r="30.9" style="fill:#c29f99"/><circle class="st15" cx="827" cy="356.9" r="25.4"/><path class="st24" d="M894.2 387h5.8v5.8h-5.8zM897.1 392.9h5.8v5.8h-5.8zM883.8 401.3h5.8v5.8h-5.8zM882.8 384.9h5.8v5.8h-5.8z"/><path class="st24" d="M878 379.3h5.8v5.8H878z"/><path class="st24" d="M872.4 379.3h5.8v5.8h-5.8zM894.2 381.2h5.8v5.8h-5.8z"/><path class="st24" d="M888.6 379.3h5.8v5.8h-5.8z"/><path class="st24" d="M883.8 379.3h5.8v5.8h-5.8zM879.9 373.5h5.8v5.8h-5.8zM885.7 373.5h5.8v5.8h-5.8zM879.9 367.7h5.8v5.8h-5.8zM885.7 367.7h5.8v5.8h-5.8zM894.2 375.4h5.8v5.8h-5.8z"/><path transform="rotate(-86.788 894.204 376.411) scale(.99997)" class="st24" d="M891.3 373.5h5.8v5.8h-5.8z"/><path transform="rotate(-86.788 894.204 370.597) scale(.99997)" class="st24" d="M891.3 367.7h5.8v5.8h-5.8z"/><path transform="rotate(-86.788 889.784 364.624) scale(.99997)" class="st24" d="M886.9 361.7h5.8v5.8h-5.8z"/><path transform="rotate(-86.788 894.799 365.808) scale(.99997)" class="st24" d="M891.9 362.9h5.8v5.8h-5.8z"/><path transform="rotate(-86.788 900.018 368.529) scale(.99997)" class="st24" d="M897.1 365.6h5.8v5.8h-5.8z"/><path transform="rotate(-86.788 899.74 373.504) scale(.99997)" class="st24" d="M896.8 370.6h5.8v5.8h-5.8z"/><path transform="rotate(-86.788 904.675 373.78) scale(.99997)" class="st24" d="M901.8 370.9h5.8v5.8h-5.8z"/><path transform="rotate(-86.788 904.675 368.79) scale(.99997)" class="st24" d="M901.8 365.9h5.8v5.8h-5.8z"/><path transform="rotate(-86.788 902.926 361.558) scale(.99997)" class="st24" d="M900 358.7h5.8v5.8H900z"/><path transform="rotate(-86.788 910.971 373.504) scale(.99997)" class="st24" d="M908.1 370.6h5.8v5.8h-5.8z"/><path transform="rotate(-86.788 914.037 370.597) scale(.99997)" class="st24" d="M911.1 367.7h5.8v5.8h-5.8z"/><path transform="rotate(-86.788 900.018 350.693) scale(.99997)" class="st24" d="M897.1 347.8h5.8v5.8h-5.8z"/><path class="st24" d="M900 375.4h5.8v5.8H900zM900 381.9h5.8v5.8H900z"/><circle cx="754" cy="260.8" r="32.9" style="fill:#fff6f5"/><ellipse transform="rotate(-9.718 813.699 235.346)" cx="813.9" cy="235.4" rx="44.3" ry="51.5" style="fill:#4570ad"/><ellipse transform="rotate(-9.718 817.434 233.438)" class="st20" cx="817.6" cy="233.5" rx="36.4" ry="47.1"/></g><g><path class="st7" d="M822.4 796.1v-36.3h2v29.6c5.3-7.9 21.5-31.8 41.2-57 29-37 52.9-60.8 71-70.8l1 1.8c-17.6 9.7-42 34-70.4 70.3-24 30.6-42.8 59.3-42.9 59.6l-1.9 2.8z"/><path transform="rotate(-13.663 844.144 772.861)" class="st7" d="M835.3 771.8h17.4v2h-17.4z"/><path transform="rotate(-24.766 873.85 733.074)" class="st7" d="M860.9 732.1h26v2h-26z"/><path class="st7" d="M866.4 733.1s-27-28-22.4-87l18.2 47.7c-.1 0 12.3 28.7 4.2 39.3zM884.6 710.8l1.1-17.1 2 .1-.9 14.5 15.9-3.6.4 2z"/><path transform="rotate(-68.821 907.796 680.759)" class="st7" d="M899.1 679.8h17.4v2h-17.4z"/><path class="st7" d="M817.6 763s-15.4-61.5 5.7-94.5c.1 0 22.5 89-5.7 94.5zM885.7 694.8s-17.8-45.1 5.8-81.6c0 0 18 58.4-5.8 81.6zM901.3 708.2s47.2 9.7 63.9-.3l7.7-11.4s-64.1-12.7-71.6 11.7zM878 727.6s46.4 23 72.1 14.8c0 0-17.1-19.3-36-20.2-19.1-.9-36.1 5.4-36.1 5.4zM944 586.4s-48 55.9-39 83.5 40.8-63.3 39-83.5zM937.1 661.7s26.8-31.5 40.5-28.2v19.2c0 .1-20.3 14.5-40.5 9zM851.3 770.8s33-30.3 86.3-10.1c0 0-55.6 31.6-86.3 10.1zM801.7 792.8l-5.5-77s-24.1 61.4-16.8 77h22.3z"/></g></g></svg>