<svg version="1.1" id="Layer_1" xmlns="http://www.w3.org/2000/svg" xmlns:xlink="http://www.w3.org/1999/xlink" x="0" y="0" viewBox="0 0 1000 1000" style="enable-background:new 0 0 1000 1000" xml:space="preserve"><style>.st2{fill:#f1f2f2}.st5{clip-path:url(#SVGID_2_)}.st6{fill:#79b266}.st7{fill:#231f20}.st8{fill:#010000}.st9{fill:#171a19}.st10{fill:#fffeff}.st11{fill:#fff}.st13{fill:#4570ad}.st14{fill:#e2af8d}.st16{fill:#ff4d53}.st18{fill:#f9bfa0}.st19{fill:#8357c9}.st20{fill:#feac02}</style><path d="M918.2 713c-53.8 83.8-136.8 158.5-245.5 211.3 0 0-301.3 139.9-538.2-39C-22.3 766.9 3.9 661.2 46 590.9c21.4-35.8 46.9-62.4 54.4-76.8 18.9-36.6 53.1-199.1 63.2-272.3 3.1-22.3 12.5-43.3 27.2-60.3 59.2-68.3 228.6-209.9 535.3-69.2 279.5 128 325.8 392.6 192.1 600.7z" style="fill:#e3d4f9"/><path d="M927.2 623.4c-40.9 87-110.8 168.9-208.1 233.1 0 0-270.6 171.9-519.8 30.7-165-93.5-153.3-198-122-270.5 16-37 37-65.6 42.3-80.4 13.5-37.4 25.7-197.2 26.1-268.5.1-21.7 6.4-43 18.4-61.1 48-72.8 192.1-229.6 503.3-133.9 283.7 87.4 361.4 334.7 259.8 550.6z" style="fill:#a781e2"/><path class="st2" d="M898.3 614.3c-38 80.9-103.1 157-193.6 216.8 0 0-251.6 159.9-483.4 28.6-153.5-87-142.6-184.1-113.4-251.6 14.8-34.4 34.4-61 39.4-74.7 12.6-34.8 23.9-183.4 24.3-249.7.1-20.2 6-40 17.1-56.9 44.6-67.7 178.7-213.6 468.1-124.5 263.7 81.2 335.9 311.2 241.5 512z"/><defs><path id="SVGID_1_" d="M898.3 614.3c-38 80.9-103.1 157-193.6 216.8 0 0-251.6 159.9-483.4 28.6-153.5-87-142.6-184.1-113.4-251.6 14.8-34.4 23.8-71 28.7-84.7 12.6-34.8 34.5-173.4 34.9-239.7.1-20.2 6-40 17.1-56.9 44.6-67.7 178.7-213.6 468.1-124.5 263.8 81.2 336 311.2 241.6 512z"/></defs><clipPath id="SVGID_2_"><use xlink:href="#SVGID_1_" style="overflow:visible"/></clipPath><path d="M898.3 614.3c-38 80.9-103.1 157-193.6 216.8 0 0-251.6 159.9-483.4 28.6-153.5-87-142.6-184.1-113.4-251.6l790.4 6.2z" style="opacity:.68;clip-path:url(#SVGID_2_);fill:#4570ad"/><path style="clip-path:url(#SVGID_2_);fill:#cfb5f6" d="M58.4 52.2h900.3v553.4H58.4z"/><g class="st5"><path class="st6" d="M97.2 494.9s-73-50.7-47.4-125 38.8-91.3 51.2-147.1c10.9-48.9 50.5-38.4 78.1-1.1 6.8 9.2 10.4 20.5 10.5 32 .2 22.4 3.3 64.3 22.9 83.1 27.4 26.3 50.6 76.6-14.7 154.7l-56 64.4-44.6-61z"/><path class="st7" d="M138.4 605c-1 0-1.7-.8-1.7-1.7V239c0-1 .8-1.7 1.7-1.7 1 0 1.7.8 1.7 1.7v364.2c0 1-.8 1.8-1.7 1.8zM163.8 440.7c-.3 0-.6-.1-.9-.2-.8-.5-1.1-1.5-.6-2.4l26.2-45.3c.5-.8 1.5-1.1 2.4-.6.8.5 1.1 1.5.6 2.4l-26.2 45.3c-.4.5-1 .8-1.5.8zM130.1 383c-.5 0-.9-.2-1.3-.5l-42-44.4c-.7-.7-.6-1.8.1-2.4.7-.7 1.8-.6 2.4.1l42 44.4c.7.7.6 1.8-.1 2.4-.2.2-.7.4-1.1.4zM147.3 329.5c-.2 0-.5 0-.7-.1-.9-.4-1.3-1.4-.9-2.3l24.3-55.3c.4-.9 1.4-1.3 2.3-.9.9.4 1.3 1.4.9 2.3l-24.3 55.3c-.3.6-.9 1-1.6 1zM130.1 261.7c-.5 0-1-.2-1.3-.6l-23.1-28.5c-.6-.7-.5-1.8.3-2.4.7-.6 1.8-.5 2.4.3l23.1 28.5c.6.7.5 1.8-.3 2.4-.3.2-.7.3-1.1.3z"/></g><g class="st5"><path class="st6" d="M849.5 512.7s124-44 81.8-163.2c-33.4-94.4-74.8-104.9-109.4-96.2-15 3.8-26.6 15.7-30.2 30.7-9.1 38.4-33.1 98.4-53.3 111.5-25.9 17 6.1 133.9 111.1 117.2z"/><path class="st8" d="M840.7 615.9c-1 0-1.7-.5-1.7-1.2V395.1c0-.6.8-1.2 1.7-1.2 1 0 1.7.5 1.7 1.2v219.6c0 .7-.8 1.2-1.7 1.2zM866.3 381.9c-.3 0-.7-.1-1-.3-.8-.6-1-1.6-.4-2.4l27.1-38c.6-.8 1.6-1 2.4-.4.8.6 1 1.6.4 2.4l-27.1 38c-.3.5-.9.7-1.4.7zM825.1 377.6c.3 0 .7-.1 1-.3.8-.6 1-1.6.4-2.4l-27.1-38c-.6-.8-1.6-1-2.4-.4-.8.6-1 1.6-.4 2.4l27.1 38c.3.5.8.7 1.4.7zM866.3 456.4c-.5 0-.9-.2-1.3-.6-.6-.7-.6-1.8.1-2.4l39.7-36.3c.7-.6 1.8-.6 2.4.1.6.7.6 1.8-.1 2.4L867.5 456c-.4.3-.8.4-1.2.4zM832.7 456.4c-.6 0-1.2-.3-1.5-.9L810 416c-.5-.8-.1-1.9.7-2.3.8-.4 1.9-.1 2.3.7l21.2 39.5c.5.8.1 1.9-.7 2.3-.2.2-.5.2-.8.2z"/></g><g class="st5"><path class="st6" d="M589.4 547.4s-36.6-25.4-23.7-62.6 19.4-45.7 25.6-73.7c5.4-24.5 25.3-19.2 39.1-.5 3.4 4.6 5.2 10.3 5.3 16 .1 11.2 1.7 32.2 11.5 41.6 13.7 13.2 25.4 38.4-7.4 77.5l-28 32.3-22.4-30.6z"/><path class="st7" d="M610.1 602.5c-.5 0-.9-.4-.9-.9V419.2c0-.5.4-.9.9-.9s.9.4.9.9v182.5c-.1.4-.5.8-.9.8zM622.8 520.2c-.1 0-.3 0-.4-.1-.4-.2-.6-.8-.3-1.2l13.1-22.7c.2-.4.8-.6 1.2-.3.4.2.6.8.3 1.2l-13.1 22.7c-.2.3-.5.4-.8.4zM605.9 491.3c-.2 0-.5-.1-.6-.3l-21-22.2c-.3-.3-.3-.9 0-1.2.3-.3.9-.3 1.2 0l21 22.2c.3.3.3.9 0 1.2-.1.2-.4.3-.6.3zM614.5 464.5c-.1 0-.2 0-.3-.1-.4-.2-.6-.7-.4-1.1l12.1-27.7c.2-.4.7-.6 1.1-.4.4.2.6.7.4 1.1L615.3 464c-.1.4-.4.5-.8.5zM605.9 430.6c-.3 0-.5-.1-.7-.3L593.7 416c-.3-.4-.2-.9.1-1.2.4-.3.9-.2 1.2.1l11.6 14.3c.3.4.2.9-.1 1.2-.2.1-.4.2-.6.2z"/></g><g class="st5"><path class="st2" d="M659.3 729.8v1.8c0 .7-.1 1.4-.1 2.1-.7 7.7-3.5 14.8-7.8 20.8-.8 1.1-1.7 2.2-2.6 3.2-4.5 5.1-10.2 9.1-16.6 11.5-.5.2-1 .4-1.5.5-4.3 1.4-8.8 2.2-13.5 2.2s-9.3-.8-13.5-2.2c-1.1-.4-2.1-.8-3.2-1.2-4.6-2-8.7-4.7-12.2-8.1-1.1-1-2.2-2.1-3.1-3.3-5.6-6.6-9.3-15-9.9-24.2-.1-1-.1-2.1-.1-3.2v-1.9c.3-7.5 2.6-14.6 6.4-20.6.5-.8 1-1.6 1.6-2.3 4.8-6.6 11.5-11.8 19.3-14.7 1.5-.6 3-1 4.5-1.4 3.3-.8 6.8-1.3 10.4-1.3 4.1 0 8 .6 11.8 1.7 1.1.3 2.2.7 3.3 1.1 7.9 3 14.6 8.3 19.4 15.1 1 1.5 2 3 2.8 4.6 2.8 6 4.6 12.7 4.6 19.8z"/><path class="st9" d="m616.7 713.7-16.2 11.7 6.2 19.1h20l6.2-19.1z"/><path class="st10" d="M659.1 734.8c-.7 7.9-3.5 15.2-7.7 21.3l-12.8 2.8-11.1-12.8-.8-.9 5.5-17.6 1.2-.3 16.3-3.6 9.4 11.1zM635.1 762l-4.4 7.7c-4.3 1.4-8.8 2.2-13.5 2.2s-9.3-.8-13.5-2.2l-4.4-7.7 9-15.6h18l8.8 15.6zM651.4 705.9l-1.2 11.1-16.9 7.5-14.9-10.9 1.9-18.4 11.1-4.9c8.2 3.2 15.1 8.6 20 15.6z"/><path class="st9" d="m628.9 689.2-13.4 6-8.7-6.3c3.3-.8 6.8-1.3 10.4-1.3 4 0 7.9.6 11.7 1.6zM583.5 721.1l-8.5 6.8c.3-7.5 2.6-14.6 6.4-20.6l2.1 13.8zM648.7 757.7c-4.5 5.1-10.2 9.1-16.6 11.5l5-10.6 11.6-.9zM659.3 729.8v1.8l-8.9-11.6 4.1-9.9c3 5.9 4.8 12.6 4.8 19.7zM600.4 768.5c-4.6-2-8.7-4.7-12.2-8.1h7.6l4.6 8.1z"/><path class="st10" d="m605.6 745.6-12 13.4-8.6-1.8c-5.6-6.6-9.3-15-9.9-24.2l7.4-8.2 17.6 3.7 5.5 17.1zM615.1 713.1l-14.6 10.6-16.4-7.3L583 705c4.8-6.6 11.5-11.8 19.3-14.7l11 4.9 1.8 17.9z"/></g><g class="st5"><path class="st11" d="m313.3 898.2-4.5-3.4 213.6-288.9 4.5 3.4z"/><path class="st11" d="M401.9 787.9c-28.1 0-49.6-10.1-51.9-26-1.4-9.6 4.4-19.4 16.4-27.8 11.4-8 27.1-13.8 44.4-16.4 36.9-5.5 68 5.3 70.8 24.6 1.4 9.6-4.4 19.4-16.4 27.8-11.4 8-27.1 13.8-44.4 16.4-6.6.9-12.9 1.4-18.9 1.4zM429 722c-5.6 0-11.5.4-17.5 1.3-16.4 2.5-31.3 7.9-42 15.4-10.1 7.1-15.1 15-14 22.3 2.3 15.6 31.8 24.6 64.4 19.8 16.4-2.5 31.3-7.9 42-15.4 10.1-7.1 15.1-15 14-22.3C474 730.3 454.1 722 429 722z"/></g><g class="st5"><path class="st11" d="M728.3 817.5 692 816c-1.1 0-2-.7-2.5-1.6-.5-1-.4-2.1.3-3l87.5-118.3c.5-.7 1.4-1.2 2.3-1.2h70.5v5.7h-69l-83.4 112.8 30.9 1.2-.3 5.9z"/><path class="st11" d="M762.6 790.7h-27.4c-1.1 0-2.1-.6-2.6-1.6s-.4-2.1.2-3l50.8-69.8c.5-.7 1.4-1.2 2.3-1.2l46.8-1.1.1 5.7-45.4 1-46.7 64h21.8v6z"/></g><g class="st5"><path class="st11" d="m172.8 826.9 43.6 7.6c1 .2 2.1-.1 2.8-1 .7-.8.9-1.9.5-2.9l-55.3-136.3c-.3-.8-1.1-1.5-1.9-1.7L94.2 675l-1.4 5.6 66.9 17.2 52.7 130-38.3-6.5-1.3 5.6z"/><path class="st11" d="m134.2 791.7 34.6 6.8c1 .3 2.2-.1 2.9-.9.7-.8.9-2 .5-3l-31.9-80.2c-.3-.8-1-1.5-1.9-1.7L93.3 700l-1.6 5.5 43.7 12.3 29.3 73.6-29.2-5.4-1.3 5.7z"/></g><path style="clip-path:url(#SVGID_2_);fill:none;stroke:#fcfcfc;stroke-width:5;stroke-miterlimit:10" d="m106.8 612.7 790.3 6.2"/><g class="st5"><path class="st13" d="M303.3 568.5c-2.2 0-4-1.7-4.2-3.9-.3-4.2-7.6-103.2-7.2-115.7.1-1.9-3.9-7-18.9-14.3-10.4-5-21.1-8.6-21.2-8.7-2.2-.7-3.4-3.1-2.6-5.3s3.1-3.4 5.3-2.6c10.8 3.6 46.2 16.6 45.7 31.1-.4 12.1 7.1 113.8 7.2 114.9.2 2.3-1.6 4.3-3.9 4.5h-.2zM467.5 568.5h-.4c-2.3-.2-4-2.2-3.8-4.5.1-.9 7.8-89.7 7.9-110.6.1-24.2 40.6-35.7 42.3-36.2 2.2-.6 4.5.7 5.2 2.9.6 2.2-.7 4.5-2.9 5.2-10 2.8-36.1 13.4-36.2 28.2-.1 21.2-7.6 107.6-7.9 111.2-.3 2.2-2.1 3.8-4.2 3.8z"/><path class="st11" d="M266.3 431.8h1.2v154.1h-1.2zM280.2 443h1.2v135.6h-1.2z"/><path transform="rotate(-67.338 271.477 440.375)" class="st11" d="M270.9 418.2h1.2v44.3h-1.2z"/><path transform="rotate(-72.243 270.66 455.817)" class="st11" d="M270.1 433.1h1.2v45.5h-1.2z"/><path transform="rotate(-78.715 271.058 472.083)" class="st11" d="M270.5 449.6h1.2v45h-1.2z"/><path transform="rotate(-83.067 271.45 486.89)" class="st11" d="M270.9 464.3h1.2v45.2h-1.2z"/><path class="st11" d="M250.8 501h42.3v1.2h-42.3z"/><path transform="rotate(-6.735 272.317 518.175)" class="st11" d="M248.8 517.6h46.9v1.2h-46.9z"/><path transform="rotate(-11.046 272.813 534.425)" class="st11" d="M248.6 533.8h48.5v1.2h-48.5z"/><path transform="rotate(-19.1 272.814 550.134)" class="st11" d="M247.6 549.5H298v1.2h-50.4z"/><path transform="rotate(-23.961 273.683 564.396)" class="st11" d="M246.7 563.7h53.9v1.2h-53.9z"/><path transform="rotate(-30.818 274.088 579.625)" class="st11" d="M244.9 579h58.3v1.2h-58.3z"/><path class="st11" d="M307.5 563.4h155.8v1.2H307.5zM306.4 548.5l-.1-1.2c1.1-.1 107.1-11.1 158.5 0l-.3 1.2c-51.2-11.1-157.1-.1-158.1 0zM465.9 530.3c-43.8-20.6-159.8-2.9-161-2.7l-.2-1.2c1.2-.2 117.6-18 161.7 2.8l-.5 1.1zM465.9 511.3c-30-14.3-71.8-13.8-101.6-10.9-32.8 3.2-59.1 10.1-60.3 10.8l-.3-.5-.7.2.2-.6c.9-.8 26.9-7.6 60.2-11 30.1-3 72.4-3.6 102.9 10.9l-.4 1.1zM468.7 493.7c-77.6-36.6-165.1-.7-166-.4l-.5-1.1c.9-.4 88.9-36.5 166.9.4l-.4 1.1z"/><path class="st11" d="M468.7 477c-44.8-22.2-87.8-21-116-16.1-30.5 5.3-50.7 16-50.9 16.1l-.6-1.1c.2-.1 20.5-10.9 51.2-16.2 28.4-4.9 71.6-6.1 116.8 16.2l-.5 1.1z"/><path class="st11" d="M470.9 457.9c-44.4-21-88-19.8-116.8-15.2-31.2 5-52.1 15.1-52.3 15.2l-.5-1.1c.2-.1 21.3-10.3 52.7-15.3 28.9-4.7 72.8-5.8 117.5 15.3l-.6 1.1z"/><path class="st11" d="M475.1 441.1c-50.8-22.2-96.6-21-126-16.1-31.9 5.3-52 16-52.2 16.1l-.6-1.1c.2-.1 20.5-10.9 52.6-16.2 29.6-4.9 75.6-6.1 126.7 16.2l-.5 1.1z"/><path class="st11" d="M280.9 429.7h-.2l.2-1.2-.1.6.1-.6c.5 0 3.3-.9 6.8-2 13.2-4.2 44-14 81-17.6 46.1-4.5 86.2 2.2 119 19.6l-.6 1.1c-51-27.1-117.9-27.8-199.1-2-4.7 1.6-6.4 2.1-7.1 2.1z"/><path class="st11" d="m267.2 423.2-.6-1.1c.3-.2 30.2-16 73.9-24 40.4-7.4 101.2-9.4 161.6 22.8l-.6 1.1c-60-32.1-120.5-30-160.7-22.7-43.6 7.9-73.3 23.7-73.6 23.9z"/><path class="st11" d="M320.1 564c0-1-1.7-100.9-4.6-124.7-2.8-23.3-34.5-28.4-34.8-28.5l.2-1.2c.3 0 32.9 5.3 35.9 29.5 2.9 23.8 4.6 123.8 4.6 124.8l-1.3.1z"/><path class="st11" d="M341.6 564.4c0-1-1.6-101.3-3.3-125.1-1.7-23.5-30.8-38.1-31.1-38.2l.5-1.1c.3.1 30 15.1 31.7 39.2 1.7 23.8 3.3 124.1 3.3 125.1l-1.1.1zM365.7 564.7c0-.9-3-87.3-4.9-121.7-1.9-34.1-16.8-51-16.9-51.1l.9-.8c.2.2 15.3 17.3 17.3 51.9 1.9 34.3 4.9 120.8 4.9 121.7h-1.3zM384.9 387.2h1.2v176.7h-1.2zM407.5 564.7h-1.2l3.1-119.3c-2.4-32.2 21-54.1 21.3-54.3l.8.9c-.2.2-23.2 21.8-20.9 53.4l-3.1 119.3zM431.7 564.7h-1.2c0-1.1 2.9-107.6 3.3-130 .4-22.9 33.6-35.2 35-35.7l.4 1.1c-.3.1-33.8 12.5-34.2 34.6-.4 22.4-3.3 128.9-3.3 130z"/><path class="st11" d="M450.6 564.7h-1.2l3-121.7c4.7-33.7 41.9-33.3 42.3-33.3v1.2c-.4 0-36.4-.4-41 32.2l-3.1 121.6z"/><path transform="rotate(-23.466 502.682 438.656)" class="st11" d="M478.7 438.1h48.2v1.2h-48.2z"/><path transform="rotate(-17.617 502.126 455.54)" class="st11" d="M478.2 454.9H526v1.2h-47.8z"/><path class="st11" d="m478.7 476.2-.2-1.2c14.8-2.6 43.1-7.6 44.2-7.9l.3 1.1c-1.5.5-42.6 7.7-44.3 8z"/><path transform="matrix(.995 -.0997 .0997 .995 -46.08 52.4)" class="st11" d="M477.5 486.6H525v1.2h-47.5z"/><path class="st11" d="M476.8 501h48.1v1.2h-48.1z"/><path transform="rotate(-83.339 499.23 518.178)" class="st11" d="M498.6 494.5h1.2v47.4h-1.2z"/><path transform="rotate(-79.082 498.681 534.42)" class="st11" d="M498.1 509.9h1.2V559h-1.2z"/><path transform="rotate(-69.604 496.923 548.678)" class="st11" d="M496.4 521.1h1.2v55.1h-1.2z"/><path transform="rotate(-63.32 497.717 566.01)" class="st11" d="M497.1 537.9h1.2v56.2h-1.2z"/><path transform="rotate(-57.078 497.2 581.258)" class="st11" d="M496.6 550.8h1.2v60.9h-1.2z"/><path transform="matrix(.00781 -1 1 .00781 -22.643 990.818)" class="st11" d="M419.8 506.2h136.3v1.2H419.8z"/><path transform="rotate(-.888 506.41 508.492) scale(1.00002)" class="st11" d="M505.7 429.1h1.2V588h-1.2z"/><path class="st13" d="M532.1 612c-4.6 0-8.4-3.8-8.4-8.4V429.1c-58.2-36.2-122.5-47.1-191-32.3-42.8 9.2-74.3 26.2-84.8 32.4v174.5c0 4.6-3.8 8.4-8.4 8.4s-8.4-3.8-8.4-8.4V424.5c0-2.8 1.4-5.4 3.8-7 1.5-1 38.1-24.8 93.6-37 32.7-7.1 65.1-8.7 96.5-4.6 39.2 5.1 76.8 19.1 111.6 41.5 2.4 1.5 3.8 4.2 3.8 7v179.2c.1 4.7-3.7 8.4-8.3 8.4z"/></g><g class="st5"><path class="st14" d="m203.5 731.5-37.9 103.1-6.3 20.9 11.5 11.8 10.6-24.9 54.6-94.1zM251.8 749.7l6.5 134.5h15.9l20.7-134.5z"/><path class="st8" d="M177.5 851.6s3-13.1-18.2-10.5-14.6 11.8-13.3 26.1 14.8 35.3 14.8 35.3 29.5 14.3 23.1-18.3l-6.4-32.6zM275.9 873.2h-24.1s-14.4 20.2 0 26.7 54.7 0 54.7 0 6.7-9.1-6.4-15.7c-13.1-6.5-24.2-11-24.2-11z"/><ellipse transform="rotate(-10.468 282.26 454.734)" cx="282.2" cy="454.7" rx="16.7" ry="24.8" style="fill:none;stroke:#e6e7e8;stroke-miterlimit:10"/><ellipse transform="rotate(-10.468 282.26 454.734)" class="st14" cx="282.2" cy="454.7" rx="16.7" ry="24.8"/><path class="st14" d="M322.3 545.4s29.6-9.7 45.4.6c15.8 10.3 35.4 10.9 35.4 10.9s23 20.9 24.4 6.9c1.4-14-2-24.1-14-23.2-11.8.9-18.2-1-18.2-1s-26.9-22.7-50.9-26.1c-24-3.5-27.9 6-27.9 6l5.8 25.9z"/><path class="st8" d="M210 630.9s-13.1 83.6-14.4 108.4l35.3 19.6 20.9-43.1v43.1h48.3v-128H210z"/><path class="st16" d="m144 637.4 46.4 27.5-40.5 66.6-45.7-28.9z"/><path class="st8" d="M267.4 439.7h26.8s19 .6 9.9-12.5-30-7.8-30-7.8-17 21.1-27.4 20.3c-10.4-.7 0 24.1 0 24.1l5.2 8.5 25.6 4.7c-.2 0-19.4-10.4-10.1-37.3z"/><ellipse transform="rotate(-10.468 265.871 457.55)" class="st14" cx="265.8" cy="457.5" rx="5.2" ry="7.8"/><path class="st14" d="m173.4 556.4-2.6 96.7s-15.7 13.1-10.4 19.6c5.2 6.5 18.3 0 20.9-7.8 2.6-7.8 0-27.4 0-27.4l14.4-66.6-22.3-14.5z"/><path class="st16" d="m277.3 477 4.9 21.6 50.5 10v37.6s-29.3-.2-27.7 24.6c1.6 24.8 0 66.6 0 66.6h-95v-16c0-10.6 2-21.1 5.5-31.1 2.3-6.8 2.9-15.3-5.5-20.8l-14.4 14.4-24.8-18.3s9.1-43.1 39.2-58.8 41.8-13.1 41.8-13.1v-21.5l25.5 4.8"/><path class="st14" d="m251.8 472.3-3.9 27.5s18.7 29.9 34.4-1.2l-8-35.6-22.5 9.3z"/><path class="st10" d="M265 570c-.5 0-1-.4-1.1-.9l-19.7-74.9c-.2-.6.2-1.2.8-1.4.6-.2 1.2.2 1.4.8l18.5 70.5 16.1-65.9c.2-.6.8-1 1.4-.8.6.2 1 .8.8 1.4L266 569.1c0 .5-.4.9-1 .9z"/><path style="fill:#6d6e71" d="M254.3 565.2h21.5v14.9h-21.5z"/><path class="st11" d="M256.8 566.9h16.5v11.4h-16.5z"/></g><g class="st5"><path class="st18" d="M414.4 768.9s-1.1 19-7.4 28.5-23.2 40-23.2 40l5.8 12.6s33.1-40.3 37.3-46.5 8.6-27.3 8.6-27.3l-21.1-7.3zM454.6 778.4s-9.3 36-9.9 42.8c-.7 6.7 0 39.4 0 39.4h16.7l7.2-51.1s14.4-21.6 6.5-31.1c-8-9.5-20.5 0-20.5 0z"/><path class="st8" d="M388.3 827.4s-21.2-.1-14.9 17.6c6.3 17.7 16.1 32.4 16.1 32.4s25.8 10.7 16.5-12.6-15.9-32.7-15.9-32.7l-1.8-4.7zM444.3 853.7s-7.4 9.7.3 17.8c5.8 6.1 30.7 6.4 42.6 6.2 5.4-.1 9.7-5 8.7-10.3-.6-2.9-2.6-5.5-7.7-6.7-13.7-3.2-25.7-10.5-25.7-10.5s-5.2 7-18.2 3.5z"/><path class="st14" d="m439.9 654 49.4-68.8s11.3-16.2 15.8-28.6c4.4-12 20.3-15.2 17.4.2s-3.8 12.7-15.1 23.3l-14.7 17-28.1 51.4-24.7 5.5z"/><ellipse class="st18" cx="471.4" cy="584" rx="16.8" ry="25"/><path class="st18" d="M481.8 603.6v16.5h-24.9l4-16.5z"/><path class="st19" d="m419.9 707.3-12.5 66.4 28.6 11 9.3-30.7 7.1 30.7h29.4v-65.8z"/><path class="st20" d="M479.3 611.9s25.3 8.3 25.3 35.3c0 7.9-22.7 4.8-22.7 4.8s-6.9 23.7 6.4 56.9c0 0 0 17.4-31.3 12.6 0 0-54.8 4.2-49.4-22.4 5.4-26.6 28.2-90.1 28.2-90.1l43.5 2.9z"/><path class="st18" d="m496.1 652.3-3.2 27.2 9.3 24.6s17 10 10.5 26.8c-6.5 16.9-16.1-6.8-16.5-8.7-.3-1.3-8.9-18.9-14.3-30-2.8-5.8-3.8-12.3-2.8-18.6l4.5-28.1 12.5 6.8z"/><path class="st8" d="M481.8 564.5s.3-22.1-27.3-18.2C427 550.3 427 596 427 596s-32.9-13.1-37.3 31.3c-2.9 29.1 21.9 34.1 39.3 34.1 11 0 21-6.8 25-17.1 3.6-9.2 6.9-22.5 6.9-40.6 0-.1-13.1-44.6 20.9-39.2z"/></g><g class="st5"><path class="st14" d="m695.1 525.6-35.4 27.8s-15.9-6.1-24.3 8.8c-8.3 14.9 8.9 12.5 17.1 10.4s9.9-8.3 9.9-8.3l44.6-27-11.9-11.7z"/><path class="st20" d="m687 532.8 15.5 12.2 18-23.3s2-25.7-24.3-10.7l-9.2 21.8z"/><ellipse class="st14" cx="717.4" cy="473.6" rx="14.8" ry="22.7"/><path class="st8" d="M703.9 464.4s-25.1-21.7 0-26.2 37.7-1.4 46.2 10.7c8.4 12.2-8.4 35.4-8.4 35.4l-5.9 5.7s-.7-23.2-13.1-29.8c-12.6-6.4-18.8 4.2-18.8 4.2z"/><path class="st14" d="M717.4 491.8v21h23.2l-8.5-39.2z"/><path class="st20" d="m758.5 519.1-6.1 66.4h-64.5l11.8-55.6-2-1 10.4-20.4 14.5-3.1c0 .1 29.6-10.5 35.9 13.7z"/><path class="st14" d="M679.4 646.7s-6.3 31.2-3.2 47.2c3.2 16 7.4 45.6 7.4 45.6h12.6s-2.1-85.4 6.3-92.8h-23.1zM752.4 646.7s-5.5 15.8 16.6 23.2c22.1 7.4 50.6 24 50.6 24l9.5-8.3-31.6-22.1s-31.6-21.4-33.7-29.1l-11.4 12.3z"/><path class="st8" d="M692.7 735.1s-38.6-1.5-34.4 18.2l12.6 3.9h31.6c.1 0 9.5-23.9-9.8-22.1zM819.6 693.9s-10.5 21.3-7.4 29.7c3.2 8.4 13.7 10.5 16.9 0 2.2-7.4 10.2-19.5 14.7-26 2.1-3 1.9-7.1-.6-9.8-3.3-3.6-8.6-7-14.1-2.2l-9.5 8.3z"/><path class="st19" d="M689.3 577.7 671 650.9l31.6 3.2 16.3-28.5 27.9 28.5 28.5-19.6s-19.5-24.6-22.9-48.9l-63.1-7.9z"/><path class="st14" d="M728.9 524.1s6-29.7 28.3-10.2l3.8 37.4s.2 10.5-15.5 21.3S699 594 699 594s-24.3 15.8-28.5 5.9c-4.2-9.9 1.3-21 10.1-19.3 8.8 1.8 21.5-.4 21.5-.4l36.2-31-9.4-25.1z"/><path d="m738.3 549.2 22.2-2.1-3.3-33.2s-18.4-22.7-28.3 10.2l9.4 25.1z" style="fill:#e89c15"/><ellipse transform="rotate(-69.824 732.183 474.017)" class="st14" cx="732.1" cy="474" rx="7.6" ry="4.9"/></g></svg>