<svg version="1.1" id="Layer_1" xmlns="http://www.w3.org/2000/svg" x="0" y="0" viewBox="0 0 1000 889" style="enable-background:new 0 0 1000 889" xml:space="preserve"><style>.st1{fill:#cfb5f6}.st4{fill:#88b777}.st5{fill:#231f20}.st6{fill:#79b266}.st7{fill:#4570ad}.st8{fill:#fff}.st10{fill:#171a19}.st11{fill:#fffeff}.st12{fill:#fc9b00}.st13{fill:#fdbf9e}.st14{fill:#2f2f30}.st16{fill:#ff4d53}.st17{fill:#ffb0ae}.st18{fill:#212121}.st21{fill:#21293f}.st22{opacity:.11;fill:#fff}</style><ellipse cx="525.4" cy="762.7" rx="441.6" ry="86" style="fill:#e3d4f9"/><ellipse transform="rotate(-85.21 505.553 712.62) scale(.99999)" class="st1" cx="505.6" cy="712.6" rx="86" ry="441.6"/><ellipse transform="rotate(-85.21 231.814 849.23) scale(.99999)" cx="231.8" cy="849.2" rx="20.3" ry="101.2" style="opacity:.17;fill:#171a19"/><path d="M914.9 427.4c0 229.2-181.6 400.7-404.6 415-275.3 17.7-404.6-185.8-404.6-415s181.2-415 404.6-415 404.6 185.8 404.6 415z" style="fill:#ebd6ff"/><path class="st1" d="M893.5 427.4c0 217.1-172 379.6-383.3 393.2C249.4 837.4 127 644.6 127 427.4S298.6 34.3 510.2 34.3s383.3 176 383.3 393.1z"/><path class="st4" d="M678.2 587.4s-74-51.4-48-126.7 39.3-92.5 51.9-149c11-49.6 51.1-38.9 79.2-1.1 6.9 9.4 10.5 20.8 10.6 32.4.2 22.7 3.3 65.2 23.2 84.2 27.8 26.7 51.3 77.6-14.9 156.8l-56.8 65.3-45.2-61.9z"/><path class="st5" d="M719.9 699c-1 0-1.7-.8-1.7-1.7V328c0-1 .8-1.7 1.7-1.7s1.7.8 1.7 1.7v369.2c0 1-.7 1.8-1.7 1.8zM745.6 532.5c-.3 0-.6-.1-.9-.2-.8-.5-1.1-1.6-.6-2.4l26.6-45.9c.5-.8 1.6-1.1 2.4-.6.8.5 1.1 1.6.6 2.4l-26.6 45.9c-.3.5-.9.8-1.5.8zM711.5 474c-.5 0-.9-.2-1.3-.5l-42.5-45c-.7-.7-.6-1.8.1-2.5s1.8-.6 2.5.1l42.5 45c.7.7.6 1.8-.1 2.5-.3.2-.8.4-1.2.4zM728.9 419.8c-.2 0-.5 0-.7-.1-.9-.4-1.3-1.4-.9-2.3l24.6-56c.4-.9 1.4-1.3 2.3-.9.9.4 1.3 1.4.9 2.3l-24.6 56c-.3.6-.9 1-1.6 1zM711.5 351.1c-.5 0-1-.2-1.4-.6l-23.5-28.9c-.6-.7-.5-1.8.3-2.5.8-.6 1.8-.5 2.5.3l23.5 28.9c.6.7.5 1.8-.3 2.5-.3.1-.7.3-1.1.3z"/><path class="st4" d="M215.1 522.3s-48.7-33.8-31.6-83.3 25.9-60.9 34.1-98.1c7.2-32.6 33.6-25.6 52.1-.7 4.6 6.2 6.9 13.7 7 21.3.1 14.9 2.2 42.9 15.3 55.4 18.3 17.5 33.8 51.1-9.8 103.2l-37.4 43-29.7-40.8z"/><path class="st5" d="M242.6 595.7c-.6 0-1.1-.5-1.1-1.1V351.7c0-.6.5-1.1 1.1-1.1.6 0 1.1.5 1.1 1.1v242.9c0 .6-.5 1.1-1.1 1.1zM259.5 486.2c-.2 0-.4-.1-.6-.2-.5-.3-.7-1-.4-1.6l17.5-30.2c.3-.5 1-.7 1.6-.4.5.3.7 1 .4 1.6l-17.5 30.2c-.2.4-.6.6-1 .6zM237.1 447.7c-.3 0-.6-.1-.8-.4l-28-29.6c-.4-.5-.4-1.2 0-1.6.5-.4 1.2-.4 1.6 0l28 29.6c.4.5.4 1.2 0 1.6-.3.3-.6.4-.8.4zM248.5 412c-.2 0-.3 0-.5-.1-.6-.3-.8-.9-.6-1.5l16.2-36.9c.3-.6.9-.8 1.5-.6.6.3.8.9.6 1.5l-16.2 36.9c-.1.5-.5.7-1 .7zM237.1 366.8c-.3 0-.7-.1-.9-.4l-15.4-19c-.4-.5-.3-1.2.2-1.6.5-.4 1.2-.3 1.6.2l15.4 19c.4.5.3 1.2-.2 1.6-.2.2-.5.2-.7.2z"/><path class="st6" d="M849.9 618.9s-116.2-85-71.2-206c1.7-4.7 4.4-8.9 7.6-12.7 7-8.4 20.1-31.9 11.5-84.9-11.4-70.7 14.5-115.4 46.7-111.8 32.2 3.6 54.5 24.1 67.9 61.6 13.4 37.5-2.4 108.8 29.6 146s-12.6 192.6-33.6 207.8c-20.9 15.2-28.1 35.7-58.5 0z"/><path class="st5" d="M882.3 705.1c-1.2 0-2.1-.9-2.2-2.1l-33.2-468.2c-.1-1.2.8-2.3 2.1-2.4 1.2-.1 2.3.8 2.4 2.1l33.2 468.2c.1 1.2-.8 2.3-2.1 2.4h-.2zM865.7 601.1c-.6 0-1.1-.2-1.5-.6l-43.9-42.1c-.9-.9-.9-2.3-.1-3.2.9-.9 2.3-.9 3.2-.1l43.9 42.1c.9.9.9 2.3.1 3.2-.6.5-1.1.7-1.7.7zM887.2 554.5c-.4 0-.8-.1-1.1-.3-1.1-.6-1.5-2-.8-3l32.9-58.1c.6-1.1 2-1.5 3-.8 1.1.6 1.5 2 .8 3l-32.9 58.1c-.4.7-1.1 1.1-1.9 1.1zM849.1 518.9c-.7 0-1.3-.3-1.8-.9l-38.9-51.5c-.7-1-.5-2.4.4-3.1 1-.7 2.4-.5 3.1.4l38.9 51.5c.7 1 .5 2.4-.4 3.1-.4.4-.9.5-1.3.5zM878.4 467.4c-.3 0-.6-.1-1-.2-1.1-.5-1.6-1.9-1.1-3l25.2-52.9c.5-1.1 1.9-1.6 3-1.1s1.6 1.9 1.1 3l-25.2 52.9c-.3.9-1.1 1.3-2 1.3zM849 441c-.6 0-1.1-.2-1.6-.7l-34.8-34.6c-.9-.9-.9-2.3 0-3.2.9-.9 2.3-.9 3.2 0l34.8 34.6c.9.9.9 2.3 0 3.2-.4.5-1 .7-1.6.7zM870 390.7c-.2 0-.4 0-.7-.1-1.2-.4-1.8-1.6-1.5-2.8l21.1-67.3c.4-1.2 1.6-1.8 2.8-1.5 1.2.4 1.8 1.6 1.5 2.8l-21.1 67.3c-.3 1-1.2 1.6-2.1 1.6zM839.7 355.8c-.9 0-1.7-.5-2.1-1.4L816.3 305c-.5-1.1 0-2.4 1.2-2.9 1.1-.5 2.4 0 2.9 1.2l21.3 49.5c.5 1.1 0 2.4-1.2 2.9-.2.1-.5.1-.8.1z"/><g><path class="st6" d="M123.1 624.1s-116.2-85-71.2-206c1.7-4.7 4.4-8.9 7.6-12.7 7-8.4 20.1-31.9 11.5-84.9-11.3-70.8 14.6-115.5 46.7-111.9s54.5 24.1 67.9 61.6-2.4 108.8 29.6 146-12.6 192.6-33.6 207.8-28.1 35.8-58.5.1z"/><path class="st5" d="M155.4 710.3c-1.2 0-2.1-.9-2.2-2.1L120 240c-.1-1.2.8-2.3 2.1-2.4 1.2-.1 2.3.8 2.4 2.1l33.2 468.2c.1 1.2-.8 2.3-2.1 2.4h-.2zM138.8 606.3c-.6 0-1.1-.2-1.5-.6l-43.9-42.1c-.9-.9-.9-2.3-.1-3.2.9-.9 2.3-.9 3.2-.1l43.9 42.1c.9.9.9 2.3.1 3.2-.5.5-1.1.7-1.7.7zM160.3 559.8c-.4 0-.8-.1-1.1-.3-1.1-.6-1.5-2-.8-3l32.9-58.1c.6-1.1 2-1.5 3-.8 1.1.6 1.5 2 .8 3l-32.9 58.1c-.3.6-1.1 1.1-1.9 1.1zM122.2 524.1c-.7 0-1.3-.3-1.8-.9l-38.9-51.5c-.7-1-.5-2.4.4-3.1 1-.7 2.4-.5 3.1.4l38.9 51.5c.7 1 .5 2.4-.4 3.1-.4.4-.8.5-1.3.5zM151.6 472.6c-.3 0-.6-.1-1-.2-1.1-.5-1.6-1.9-1.1-3l25.2-52.9c.5-1.1 1.9-1.6 3-1.1s1.6 1.9 1.1 3l-25.2 52.9c-.4.9-1.2 1.3-2 1.3zM122.2 446.2c-.6 0-1.1-.2-1.6-.7l-34.8-34.6c-.9-.9-.9-2.3 0-3.2.9-.9 2.3-.9 3.2 0l34.8 34.6c.9.9.9 2.3 0 3.2-.4.5-1 .7-1.6.7zM143.1 395.9c-.2 0-.4 0-.7-.1-1.2-.4-1.8-1.6-1.5-2.8l21.1-67.3c.4-1.2 1.6-1.8 2.8-1.5 1.2.4 1.8 1.6 1.5 2.8l-21.1 67.3c-.2 1-1.1 1.6-2.1 1.6zM112.8 361c-.9 0-1.7-.5-2.1-1.4l-21.3-49.5c-.5-1.1 0-2.4 1.2-2.9 1.1-.5 2.4 0 2.9 1.2l21.3 49.5c.5 1.1 0 2.4-1.2 2.9-.2.2-.5.2-.8.2z"/></g><g><path class="st7" d="m808.1 609.6 129.1 103.1s57.4 62.6-299.3 74.6c-15.1.5-201.1-10.1-324.3-40.1 0 0-87.1-14.1-134.5 13.6s-109.5-7-81.1-50.3 167.4-130 167.4-130 403.4 40.9 542.7 29.1z"/><path class="st8" d="M879.6 711.6h-739c-.4 0-.8-.3-1-.7-.1-.4 0-.9.3-1.2l113.7-88.6c.2-.1.4-.2.6-.2 83.5-3.1 518.5-6.6 522.9-6.6.3 0 .5.1.7.3l102.5 95.3c.3.3.4.7.3 1.1-.2.3-.6.6-1 .6zm-736-2.1h733.3l-100.2-93.2c-15.7.1-438.9 3.6-522.1 6.6l-111 86.6z"/><path class="st8" d="M846.6 682.5H730.8c-.3 0-.7-.2-.9-.4L696.8 635c-.2-.3-.3-.7-.1-1.1.2-.3.5-.6.9-.6h97.7c.6 0 1 .5 1 1s-.5 1-1 1h-95.7l31.7 45h115.2c.6 0 1 .5 1 1s-.4 1.2-.9 1.2z"/><path class="st8" d="M722.5 670.1h-.4c-10.9-.5-45.2-3-55.3-15.2-2.2-2.7-2.7-5-1.5-6.9 4.6-7.6 36-4.5 39.6-4.2.6.1 1.1.6 1 1.2-.1.6-.6 1-1.2.9-9.3-1-34.1-2.3-37.4 3.1-.7 1.1-.2 2.7 1.3 4.6 7.6 9.2 32.9 13.5 53.9 14.4h.3c.5.1 1.2.3 1.2 1.1s-.7 1-1.2 1h-.3zM176.5 684.1c-.6 0-1-.5-1-1 0-.6.4-1 1-1 30-.2 107.7-.8 113.8-1.5 1.2-2.1 6.6-10.4 30.6-45.2l-79.1-.9c-.6 0-1-.5-1-1.1 0-.6.5-1 1-1l81.1 1c.4 0 .7.2.9.6.2.3.1.8-.1 1.1-12.2 17.8-30.5 44.7-31.7 46.8-.2 1-1 1-18.9 1.4-9.5.2-22.7.3-39.3.5-28.4.2-57 .3-57.3.3zm113.6-3.3c-.1.1-.2.3-.2.5 0-.1 0-.2.2-.5z"/><path class="st8" d="M298.3 670.1c-.6 0-1-.4-1-1s.4-1.1 1-1.1c11.9-.4 43.8-3.2 47.9-12 .6-1.3.6-2.4 0-3.4-3.3-5-21.1-5.7-27.6-5.5-.6 0-1.1-.4-1.1-1s.4-1.1 1-1.1c2.5-.1 24.9-.4 29.4 6.5.7 1.1 1.3 2.9.2 5.4-5.5 11.8-48 13.1-49.8 13.2zM508.3 711.6c-.6 0-1-.5-1-1v-93.4c0-.6.5-1 1-1 .6 0 1 .5 1 1v93.4c0 .5-.5 1-1 1z"/><path class="st8" d="M508.2 674c-33.6 0-69.3-5.8-69.3-16.7s35.7-16.7 69.3-16.7c33.6 0 69.3 5.8 69.3 16.7S541.8 674 508.2 674zm0-31.2c-40.2 0-67.3 7.5-67.3 14.6s27 14.6 67.3 14.6c40.2 0 67.3-7.5 67.3-14.6s-27.1-14.6-67.3-14.6z"/></g><g><path d="M746.7 733.4v1.9c0 .8-.1 1.5-.1 2.3-.8 8.3-3.8 16-8.4 22.4-.9 1.2-1.8 2.3-2.8 3.4-4.8 5.5-11 9.8-17.9 12.4-.5.2-1 .4-1.6.6-4.6 1.5-9.5 2.4-14.6 2.4s-10-.8-14.6-2.4c-1.2-.4-2.3-.8-3.4-1.3-4.9-2.1-9.4-5.1-13.2-8.7-1.2-1.1-2.3-2.3-3.4-3.6-6.1-7.1-10-16.1-10.7-26.1-.1-1.1-.1-2.3-.1-3.4v-2c.3-8.1 2.8-15.7 6.9-22.2.5-.9 1.1-1.7 1.7-2.5 5.2-7.1 12.4-12.7 20.8-15.9 1.6-.6 3.2-1.1 4.8-1.5 3.6-.9 7.3-1.4 11.2-1.4 4.4 0 8.6.6 12.7 1.8 1.2.3 2.4.8 3.6 1.2 8.5 3.3 15.8 9 20.9 16.3 1.1 1.6 2.1 3.2 3 4.9 3.3 6.5 5.2 13.7 5.2 21.4z" style="fill:#f1f2f2"/><path class="st10" d="m700.8 716-17.5 12.7 6.7 20.5h21.6l6.6-20.5z"/><path class="st11" d="M746.5 738.8c-.8 8.5-3.7 16.4-8.3 23l-13.8 3-12-13.8-.9-1 5.9-18.9 1.3-.3 17.5-3.9 10.3 11.9zM720.7 768.1l-4.8 8.3c-4.6 1.5-9.5 2.4-14.6 2.4s-10-.8-14.6-2.4l-4.8-8.3 9.7-16.8H711l9.7 16.8zM738.3 707.7l-1.3 12-18.2 8.1-16.1-11.8 2.1-19.8 12-5.3c8.7 3.3 16.2 9.2 21.5 16.8z"/><path class="st10" d="m713.9 689.7-14.4 6.4-9.4-6.8c3.6-.9 7.3-1.4 11.2-1.4 4.4 0 8.6.6 12.6 1.8zM665 724.1l-9.2 7.3c.3-8.1 2.8-15.7 6.9-22.2l2.3 14.9zM735.4 763.4c-4.8 5.5-11 9.8-17.9 12.4l5.4-11.4 12.5-1zM746.7 733.4v1.9l-9.6-12.5 4.4-10.7c3.3 6.4 5.2 13.6 5.2 21.3zM683.2 775.1c-4.9-2.1-9.4-5.1-13.2-8.7h8.2l5 8.7z"/><path class="st11" d="m688.9 750.4-13 14.4-9.2-2c-6.1-7.1-10-16.1-10.7-26.1l8-8.9 19 4 5.9 18.6zM699.2 715.4l-15.7 11.4-17.7-7.9-1.3-12.2c5.2-7.1 12.4-12.7 20.8-15.9l11.9 5.3 2 19.3z"/></g><g><circle class="st12" cx="530.6" cy="99.9" r="33"/><path class="st12" d="M587 111.6h-16.1c-1.1 0-2.1-.9-2.1-2.1 0-1.1.9-2.1 2.1-2.1H587c1.1 0 2.1.9 2.1 2.1-.1 1.1-1 2.1-2.1 2.1zM586.1 91.6h-14.6c-1.1 0-2.1-.9-2.1-2.1 0-1.1.9-2.1 2.1-2.1h14.6c1.1 0 2.1.9 2.1 2.1 0 1.2-.9 2.1-2.1 2.1zM563.6 74.3c-.4 0-.8-.1-1.1-.3-1-.6-1.2-1.9-.6-2.9l7.2-11.1c.6-1 1.9-1.2 2.9-.6s1.2 1.9.6 2.9l-7.2 11.1c-.4.6-1.1.9-1.8.9zM543.6 63.2c-.2 0-.4 0-.6-.1-1.1-.3-1.7-1.5-1.4-2.6l4.8-15.4c.3-1.1 1.5-1.7 2.6-1.4 1.1.3 1.7 1.5 1.4 2.6l-4.8 15.4c-.3 1-1.1 1.5-2 1.5zM521.7 63.2c-1.1 0-2.1-.9-2.1-2.1V45.7c0-1.1.9-2.1 2.1-2.1 1.1 0 2.1.9 2.1 2.1v15.4c0 1.2-.9 2.1-2.1 2.1zM505.9 68.9c-.6 0-1.2-.2-1.6-.7l-11.5-13.4c-.7-.9-.6-2.2.2-2.9.9-.7 2.2-.6 2.9.2l11.5 13.4c.7.9.6 2.2-.2 2.9-.3.3-.8.5-1.3.5zM578.8 135c-.4 0-.8-.1-1.1-.3l-15.2-9.9c-1-.6-1.2-1.9-.6-2.9s1.9-1.2 2.9-.6l15.2 9.9c1 .6 1.2 1.9.6 2.9-.4.5-1.1.9-1.8.9zM507.4 155.1c-.4 0-.7-.1-1.1-.3-1-.6-1.3-1.8-.7-2.8l8.2-13.9c.6-1 1.8-1.3 2.8-.7 1 .6 1.3 1.8.7 2.8l-8.2 13.9c-.3.7-1 1-1.7 1zM490.7 144.2c-.4 0-.7-.1-1.1-.3-1-.6-1.3-1.8-.7-2.8l7.4-12.5c.6-1 1.8-1.3 2.8-.7 1 .6 1.3 1.8.7 2.8l-7.4 12.5c-.3.6-1 1-1.7 1zM474.1 116.6c-1.1 0-2-.9-2.1-2 0-1.1.8-2.1 2-2.2l13.2-.6c1.1-.1 2.1.8 2.2 2 0 1.1-.8 2.1-2 2.2l-13.3.6zM488 93.2c-.2 0-.3 0-.5-.1l-15.7-3.7c-1.1-.3-1.8-1.4-1.5-2.5.3-1.1 1.4-1.8 2.5-1.5l15.7 3.7c1.1.3 1.8 1.4 1.5 2.5-.2.9-1.1 1.6-2 1.6zM494.3 78.5c-.4 0-.7-.1-1.1-.3L480 70.3c-1-.6-1.3-1.8-.7-2.8.6-1 1.8-1.3 2.8-.7l13.3 7.9c1 .6 1.3 1.8.7 2.8-.4.6-1.1 1-1.8 1zM531.9 159.7c-1.1 0-2-.9-2.1-2l-1-17.8c-.1-1.1.8-2.1 2-2.2 1.1-.1 2.1.8 2.2 2l1 17.8c.1 1.1-.8 2.1-2 2.2h-.1zM556.8 150.1c-.7 0-1.4-.4-1.8-1l-9.5-16.2c-.6-1-.3-2.2.7-2.8 1-.6 2.2-.3 2.8.7l9.5 16.2c.6 1 .3 2.2-.7 2.8-.3.2-.7.3-1 .3z"/></g><g><path class="st7" d="M343.8 566.4c-2 0-3.6-1.5-3.8-3.5-.3-3.8-6.9-93.6-6.5-105 .1-1.7-3.5-6.4-17.1-12.9-9.4-4.6-19.1-7.8-19.2-7.9-2-.7-3.1-2.8-2.4-4.8s2.8-3.1 4.8-2.4c9.8 3.3 41.9 15.1 41.5 28.2-.3 11 6.5 103.3 6.5 104.2.2 2.1-1.4 3.9-3.5 4.1-.2-.1-.3 0-.3 0zM492.7 566.4h-.3c-2.1-.2-3.6-2-3.5-4.1.1-.8 7.1-81.4 7.2-100.3.1-21.9 36.8-32.4 38.4-32.9 2-.6 4.1.6 4.7 2.6.6 2-.6 4.1-2.6 4.7-9.1 2.6-32.8 12.1-32.8 25.6-.1 19.2-6.9 97.6-7.2 101-.2 1.9-1.9 3.4-3.9 3.4z"/><path class="st8" d="M310.2 442.3h1.1v139.9h-1.1zM322.8 452.4h1.1v123.1h-1.1z"/><path transform="rotate(-67.338 314.89 450.058)" class="st8" d="M314.3 430h1.1v40.2h-1.1z"/><path transform="rotate(-72.243 314.141 464.071)" class="st8" d="M313.6 443.4h1.1v41.3h-1.1z"/><path transform="rotate(-78.715 314.507 478.833)" class="st8" d="M314 458.4h1.1v40.8H314z"/><path transform="rotate(-83.067 314.861 492.272)" class="st8" d="M314.3 471.8h1.1v41h-1.1z"/><path class="st8" d="M296.1 505.1h38.4v1.1h-38.4z"/><path transform="rotate(-6.735 315.646 520.659)" class="st8" d="M294.4 520.1H337v1.1h-42.6z"/><path transform="rotate(-11.046 316.099 535.412)" class="st8" d="M294.1 534.9h44v1.1h-44z"/><path transform="rotate(-19.1 316.106 549.678)" class="st8" d="M293.2 549.1h45.7v1.1h-45.7z"/><path transform="rotate(-23.961 316.895 562.616)" class="st8" d="M292.4 562h49v1.1h-49z"/><path transform="rotate(-30.818 317.262 576.437)" class="st8" d="M290.8 575.8h52.9v1.1h-52.9z"/><path class="st8" d="M347.5 561.7h141.4v1.1H347.5zM346.5 548.2l-.1-1.1c1-.1 97.2-10.1 143.9 0l-.2 1.1c-46.5-10.1-142.6-.1-143.6 0zM491.3 531.7c-39.7-18.7-145-2.6-146.1-2.5l-.2-1.1c1.1-.2 106.7-16.3 146.7 2.6l-.4 1zM491.3 514.4c-27.3-13-65.2-12.5-92.2-9.9-29.8 2.9-53.6 9.2-54.7 9.8l-.2-.4-.6.2.2-.6c.8-.7 24.4-6.9 54.6-10 27.3-2.7 65.7-3.2 93.4 9.9l-.5 1zM493.9 498.5c-70.4-33.3-149.8-.7-150.6-.3l-.4-1c.8-.3 80.7-33.1 151.5.4l-.5.9z"/><path class="st8" d="M493.9 483.3c-40.7-20.1-79.7-19.1-105.3-14.6-27.7 4.8-46 14.5-46.2 14.6l-.5-1c.2-.1 18.6-9.9 46.5-14.7 25.7-4.5 65-5.6 106 14.7l-.5 1z"/><path class="st8" d="M495.8 465.9c-40.3-19-79.9-18-106-13.8-28.3 4.6-47.3 13.7-47.5 13.8l-.5-1c.2-.1 19.3-9.3 47.8-13.9 26.3-4.2 66.1-5.2 106.6 13.9l-.4 1z"/><path class="st8" d="M499.7 450.7c-46.1-20.1-87.6-19.1-114.3-14.6-28.9 4.8-47.2 14.5-47.4 14.6l-.5-1c.2-.1 18.6-9.9 47.7-14.7 26.9-4.5 68.6-5.6 115 14.7l-.5 1z"/><path class="st8" d="M323.4 440.4h-.2l.2-1.1-.1.5.1-.5c.5 0 3-.8 6.2-1.8 12-3.8 40-12.7 73.5-16 41.9-4 78.2 2 108 17.8l-.5 1c-46.2-24.6-107-25.2-180.7-1.8-4.3 1.4-5.8 1.9-6.5 1.9z"/><path class="st8" d="m311 434.4-.5-1c.3-.1 27.4-14.5 67.1-21.8 36.7-6.7 91.8-8.6 146.6 20.7l-.5 1c-54.5-29.1-109.4-27.3-145.9-20.6-39.6 7.3-66.6 21.6-66.8 21.7z"/><path class="st8" d="M359.1 562.2c0-.9-1.6-91.6-4.2-113.1-2.5-21.2-31.3-25.8-31.6-25.8l.2-1.1c.3 0 29.9 4.8 32.5 26.8 2.6 21.6 4.2 112.3 4.2 113.2h-1.1z"/><path class="st8" d="M378.5 562.6c0-.9-1.4-91.9-3-113.5-1.5-21.3-27.9-34.6-28.2-34.7l.5-1c.3.1 27.2 13.7 28.8 35.6 1.6 21.6 3 112.6 3 113.6h-1.1zM400.4 562.8c0-.8-2.7-79.3-4.5-110.4-1.8-30.9-15.2-46.3-15.4-46.4l.8-.7c.1.2 13.9 15.7 15.7 47.1 1.8 31.2 4.5 109.6 4.5 110.4h-1.1zM417.8 401.8h1.1v160.4h-1.1zM438.4 562.8h-1.1l2.8-108.2c-2.2-29.2 19.1-49.1 19.3-49.3l.7.8c-.2.2-21.1 19.7-18.9 48.5l-2.8 108.2zM460.3 562.8h-1.1c0-1 2.6-97.6 3-118 .4-20.8 30.5-31.9 31.7-32.4l.4 1c-.3.1-30.7 11.4-31 31.4-.4 20.4-3 117.1-3 118z"/><path class="st8" d="M477.5 562.8h-1.1l2.7-110.4c4.3-30.6 38-30.2 38.3-30.2v1.1c-.3 0-33.1-.4-37.2 29.2l-2.7 110.3z"/><path transform="rotate(-23.466 524.705 448.494)" class="st8" d="M502.9 448h43.7v1.1h-43.7z"/><path transform="rotate(-17.617 524.216 463.82)" class="st8" d="M502.5 463.3h43.4v1.1h-43.4z"/><path class="st8" d="m502.9 482.6-.2-1.1c13.4-2.3 39.1-6.9 40.1-7.1l.3 1c-1.3.4-38.6 6.9-40.2 7.2z"/><path transform="rotate(-5.721 523.403 492.572) scale(.99998)" class="st8" d="M501.9 492H545v1.1h-43.1z"/><path class="st8" d="M501.2 505.1h43.6v1.1h-43.6z"/><path transform="rotate(-83.339 521.579 520.666)" class="st8" d="M521.1 499.2h1.1v43h-1.1z"/><path transform="rotate(-79.082 521.084 535.409)" class="st8" d="M520.5 513.1h1.1v44.6h-1.1z"/><path transform="rotate(-69.604 519.484 548.348)" class="st8" d="M519 523.3h1.1v50H519z"/><path transform="rotate(-63.32 520.21 564.08)" class="st8" d="M519.6 538.6h1.1v51h-1.1z"/><path transform="rotate(-57.078 519.738 577.916)" class="st8" d="M519.2 550.3h1.1v55.3h-1.1z"/><path transform="matrix(.00781 -1 1 .00781 -2.974 1017.722)" class="st8" d="M449.5 509.8h123.7v1.1H449.5z"/><path transform="rotate(-.888 528.102 511.876) scale(1.00002)" class="st8" d="M527.5 439.8h1.1V584h-1.1z"/><g><path class="st7" d="M551.4 605.9c-4.2 0-7.6-3.4-7.6-7.6V439.9c-52.9-32.9-111.2-42.8-173.4-29.3-38.9 8.4-67.5 23.8-77 29.4v158.3c0 4.2-3.4 7.6-7.6 7.6-4.2 0-7.6-3.4-7.6-7.6V435.7c0-2.6 1.3-4.9 3.4-6.3 1.4-.9 34.6-22.5 85-33.5 29.7-6.5 59.1-7.9 87.6-4.2 35.6 4.6 69.7 17.3 101.3 37.7 2.2 1.4 3.5 3.8 3.5 6.4v162.6c0 4.1-3.4 7.5-7.6 7.5z"/></g></g><g><path class="st13" d="m872.6 544.7 33.5-2.1s12.4-3.1 15.5 9.4c3.1 12.5 7.3 22.9 7.3 22.9s12.5 10.4-2.1 15.6c0 0-12.5-1-9.4-12.5 0 0-2.3-15.6-8.4-18.2l-31.2 7.8-5.2-22.9zM763.7 582.4s-17.2 11.3-27.2 11.3l-9.9-25s9.4-7 0-13.9-12.5 1.4-13.6 6.6c-1 5.2 4.2 8.3 4.2 8.3l6.3 30.2s3.1 10.4 16.7 12.5 37.5-8.3 37.5-8.3l-14-21.7zM878.9 670.9s7.1 9.2 19.7 9.8c12.6.6 25.7-28.6 25.4-35.9 0 0 2.4-9.1 0-11.3-2.4-2.2-10.7-3.3-10.7-3.3l-14.7 22.4-19.7 18.3z"/><path class="st14" d="M911.9 630.2s-.1-6.4 13.2-2.1c13.3 4.2 21.5 9.4 14.2 16.7s-15.3 0-15.3 0 8.4-15.6-12.1-14.6z"/><path class="st13" d="M794.4 684.5S784 706.4 780.8 720c-3.1 13.6-3.1 23.6-3.1 23.6l8.3 7 32.3-59.9-23.9-6.2z"/><path class="st14" d="m787.4 748-12.8-10.3s-14.6-13.6-21.9-8.3c-7.3 5.2 2.1 14.6 13.6 22.9 11.5 8.3 21.5 8.2 21.2 1.5l-.3-6.7.2.9z"/><ellipse class="st13" cx="780.5" cy="526" rx="28.9" ry="33.9"/><path d="M820 529.6s-15.1-8.9-19.3-16.2c0 0-15.6-2.1-25-12.5 0 0-27.1 17.6-27.1-5.2 0-9.8 2-15.1 4.3-18 2.1-2.7 5.8-3.6 9-2.3 3.5 1.4 11 6.6 18.6 3.3 12.3-5.4 39.4 3.3 45.2 17.1 6.8 16.1-5.7 33.8-5.7 33.8z" style="fill:#232323"/><path class="st13" d="m792.3 551 9.4 25s28.4-2.1 25.2-18.8l-9.9-20.5v-12.8s-29.9 13.5-24.7 27.1z"/><path class="st14" d="m809.4 640.8-18.1 45.8 25.7 5.9 26.4-34s4.2-9.4 12.5 2.1 25 16.2 25 16.2l17.6-22.2-22.7-29.6-66.4 15.8z"/><ellipse transform="rotate(-70.907 816.974 523.919)" class="st13" cx="817" cy="523.9" rx="9.6" ry="7.7"/><path class="st16" d="m796 561.9-32.8 19.3 12.5 27.1 20.9-9.4 12.9 45.9 71.5-13.6-23-51 23-11.2-6.3-26.4s-37.6 4.2-50.1 9.9c0 .1-3.6 24-28.6 9.4z"/></g><g><path transform="rotate(39.933 172.914 577.519)" class="st16" d="M156.5 554.6h32.9v45.9h-32.9z"/><path class="st17" d="m410.7 398.7 18.8-19s11.5-5 23-4 32 4 32 4 4.5 3.3-4.9 4.4-17.7 0-17.7 0 7.3 19.8-19.8 18.8c0 0-8.3 1-13.6-3.1l-9.4 12.5-8.4-13.6zM158.3 549.9l9.4 7.3s16.7 1 17.7 12.5-13.6 12-13.6 12-9.4-2.3-13.6-13.4l-6.3-7.5 6.4-10.9zM199 707.4v14.5s-1 29.3-2.1 35.6c-1 6.3 1 74.4 1 74.4l13.6 3.8s4.2-37.5 5.2-48c1-10.4-1-39.1 0-47.2 1-8.1 10-33.1 10-33.1H199z"/><path class="st18" d="M196.6 827.1s-15.4 14.8-12.2 24.2c2 5.9 12.3 6.3 19.7 5.8 4.4-.3 8-3.6 8.8-8l2.8-16.6-4-5.4c-.1 0-2.9 11.2-15.1 0z"/><path class="st17" d="m252.1 705.3 11.8 29.5s-2.4 42.5 4.9 65.4c7.3 22.9 12.3 35.5 12.3 35.5l15.8-5.2s-10.4-89.7-11.5-97-1-32.3-1-32.3l-32.3 4.1z"/><path class="st18" d="M282.6 827.1s9.9 11.4 13.7-2.5c0 0 37.2 16.3 35.1 27.8 0 0 3.1 1-4.2 2.1-7.3 1-50.4 0-50.4 0s-1.3-23.5 5.8-27.4z"/><path class="st17" d="M263.6 327.3c0 19-9.2 34.4-20.6 34.4s-20.6-15.4-20.6-34.4 12.1-26.6 23.5-26.6c10.4 0 17.7 7.6 17.7 26.6z"/><path class="st18" d="M219 331.5s7 2.6 15.4-6.8c0 0-.5-14.4 8.6-15.5s22 10.5 28.1 0-7.5-24.4-7.5-24.4-16.8-3-17.8 9.1l-7.3.6s-15.6-11.5-21.9 4.2c0 0 3.1 6.3-2.1 12.5-5.1 6.2-1.5 14.5 4.5 20.3z"/><path class="st17" d="M212.5 333s2.3 24.6-.4 49.3c0 0 28.6 20.6 34.8-2.4l-3.1-28.2-31.3-18.7z"/><path class="st18" d="M199 564.5s-10.4 34.4-10.4 62.6 2.1 82.4 2.1 82.4h40.8s3-78.2 5.1-87.6c2.1-9.4 3.1 1 3.1 1l7.3 86.6 41.7-5.2-19.8-136.6-69.9-3.2z"/><ellipse transform="rotate(-16.645 219.077 331.475)" class="st17" cx="219" cy="331.5" rx="6.2" ry="10.4"/><path d="M212.4 379.8 175 382s-15.6 6.3-26.1 19.8-35.5 58.4-39.6 84.5c-2.5 15.4 4.2 41.7 46.9 78.2l6.3-12.5-20.9-50c-2.1-7 .8-16.1 8.3-25 11.5-13.6 25.7-29 27.1-35.5l19.8 126.2s49.4 12.5 75.8 2.6c0 0 20.1-110 24.3-130.9 0 0 34.4 19.8 68.8 12.5 34.4-7.3 53.2-39.6 53.2-39.6l-7.3-18.8s-21.9 17.9-38.6 24.2c-3.6 1.4-7.6 1.5-11.3.2-12.3-4.1-43.8-15.2-58.2-27.2 0 0-6.7-4.6-21.3-7.7-14.6-3.1-35.5-3.1-35.5-3.1s-9.5 10.1-34.3-.1z" style="fill:#feac02"/><path d="m206.3 378.1 17.9 56.6c1.5 4.7 8.1 4.7 9.7.1l18.8-56.7" style="fill:none;stroke:#2b3349;stroke-linecap:round;stroke-linejoin:round;stroke-miterlimit:10"/><circle class="st16" cx="230.1" cy="440.1" r="6.9"/><path class="st16" d="M226 436.1s-8.2 10.8 5 22.2v-15.8s-6.2-5.9-5-6.4z"/><circle class="st21" cx="230.1" cy="439.4" r="4.5"/><circle class="st21" cx="230.1" cy="439.4" r="4.5"/><circle class="st16" cx="230.1" cy="439.4" r="3.5"/></g><path class="st22" d="M764 204.8c-9.7 3.4-20.1.2-26.4-7.2-13.6 5.2-33.7 8.5-56.2 8.5-40.8 0-73.9-10.9-73.9-24.3 0-7.4 10-14 25.8-18.4.5-9.6 6.7-18.4 16.3-21.7 8.6-3 17.6-.9 24 4.7 2.8-5.3 7.5-9.7 13.6-11.8 12.4-4.3 25.8 2 30.6 14.1 1.9-1.4 4.1-2.6 6.5-3.4 11.8-4.1 24.5 1.4 29.8 12.4 10.8-1 21.4 5.5 25.1 16.2 4.2 12.7-2.5 26.5-15.2 30.9zM301.3 251.9c-8 2.8-16.6.2-21.8-5.9-11.2 4.3-27.9 7-46.5 7-33.7 0-61.1-9-61.1-20.1 0-6.1 8.3-11.5 21.3-15.2.4-7.9 5.5-15.2 13.5-17.9 7.1-2.5 14.6-.7 19.8 3.9 2.3-4.4 6.2-8 11.3-9.8 10.2-3.5 21.3 1.6 25.2 11.6 1.6-1.2 3.4-2.1 5.4-2.8 9.7-3.4 20.3 1.2 24.6 10.2 9-.8 17.6 4.5 20.7 13.4 3.6 10.5-1.9 21.9-12.4 25.6z"/><circle class="st22" cx="529.1" cy="99.3" r="82.5"/><circle class="st22" cx="438.4" cy="193.1" r="33.5"/><circle class="st22" cx="391.5" cy="245.3" r="18.3"/><circle class="st22" cx="356" cy="284.9" r="8.1"/><circle class="st22" cx="334.1" cy="315.1" r="5"/></svg>