<svg version="1.1" id="Layer_1" xmlns="http://www.w3.org/2000/svg" x="0" y="0" viewBox="0 0 1000 844" style="enable-background:new 0 0 1000 844" xml:space="preserve"><style>.st3{fill:#4570ad}.st4,.st5{fill:#1a2c36}.st5{opacity:.42}.st6{fill:#fff}.st7{fill:#e54551}.st8{fill:#feac02}.st12{fill:#365f87}.st13{fill:#f1f2f2}.st15{fill:#171a19}.st16{fill:#fffeff}.st17{fill:#9b1f19}.st18{fill:#fcbe00}.st19{fill:#ffbf01}.st21{fill:#414042}</style><path d="M370.7 821.9c-74-8.3-133.8-41.2-189.8-90.3C100.1 660.7.5 540.7 35.5 400.9 89.3 186.6 217.6 54.1 483 34.8c233.5-17 273.2 58.2 336.4 108.5 69.4 55.2 210.9 243.3 154.8 423-37 118.4-271.8 292.7-603.5 255.6z" style="opacity:.84;fill:#a773d8"/><path d="M242.8 727.2c-64-34.8-106.1-86.9-138.7-152.5C57 479.9 10.7 333.4 93.8 218.1 221.1 41.5 385.9-32.7 633.3 47.3c217.7 70.3 226 153.8 264.8 223.2 42.6 76.2 101.7 300.6-15 444.6-76.9 94.7-353.5 168.1-640.3 12.1z" style="opacity:.74;fill:#ecd9fc"/><path d="M298.9 748.5c-64.4-23.3-110.8-65.6-150.2-121.6-57-80.8-120.3-209.6-59-327.2 94-180.2 237.1-271.2 478.4-231.5 212.3 35 231.6 110.8 277.3 169.4 50.2 64.3 143.8 263.1 55.1 411.8-58.4 98-313.2 203.6-601.6 99.1z" style="fill:#d7b5f7"/><path class="st3" d="M344.4 308.2c-1.5 3.5-2.7 5.4-2.7 5.4s-5.8 7.7-19.3 5.3c-.3-.1-.7-.1-1-.2-2.1-.5-4.9-.6-8.1-.6-3.2.1-6.8.4-10.7.9-2.7.3-5.5.8-8.5 1.3-3.4.6-7 1.4-10.6 2.2-1.9.4-3.8.9-5.7 1.4 1.1-2.6 2.2-5.5 3.4-8.8 9.6-25.9 41.3-51.4 51.6-58.3 5-3.3 8.9-8 11.7-12 2.2 4.1 4.4 10.9 5.5 21.9 1.9 20-2.5 34.3-5.6 41.5z"/><path class="st3" d="M344.4 244.9c-2.7 3.9-6.7 8.6-11.7 12-10.3 6.9-42 32.5-51.6 58.3-.6 1.6-1.1 3.1-1.7 4.5-.6 1.5-1.1 2.9-1.7 4.3-1 .3-2.1.5-3.1.8-2.3.7-4.7 1.3-7 2.1-.6.2-1.1.4-1.7.5-.4.1-.9.3-1.4.4l-1.8.6c-.5.2-.9.3-1.4.5-.7.2-1.4.5-2.1.7-.2.1-.4.1-.5.2-.5.2-1.1.4-1.6.6-.6.2-1.1.4-1.7.6l-1.5.6c-.6.2-1.1.5-1.7.7-.2.1-.4.1-.5.2-.5.2-1.1.5-1.6.7-1.6.7-3.1 1.4-4.6 2.1-.6.3-1.2.6-1.7.9-.6.3-1.1.6-1.7.9-.5.3-1 .5-1.5.8-2 1-4.5 2-7.2 3-.4.1-.8.3-1.2.4-1 .4-2.1.7-3.1 1.1-1.3.4-2.7.9-4.1 1.3-.5.2-1 .3-1.6.5-.5.2-1 .3-1.6.5-.5.2-1.1.3-1.6.5-1.4.4-2.8.8-4.3 1.2-.2.1-.5.1-.7.2-.6.1-1.1.3-1.7.4-.6.1-1.2.3-1.7.4-.6.1-1.2.3-1.8.4-.6.1-1.2.3-1.8.4-1.2.3-2.4.5-3.6.8-.6.1-1.2.3-1.8.4h-.1c-1.2.2-2.3.5-3.5.7l-1.8.3c-1.4.3-2.7.5-4.1.8-3 .6-6.1 1.1-9.2 1.5-4.1.6-8.2 1.2-12.2 1.6-3.1.3-6.2.6-9.1.9-3.5.3-6.9.4-10.2.5-3.2.1-6.3 0-9.2-.1-.6 0-1.2-.1-1.8-.1-.5 0-1-.1-1.5-.1h-.4c-.4 0-.9-.1-1.3-.1-.5-.1-1-.1-1.4-.2-.9-.1-1.8-.3-2.7-.4-3.4-.6-6.2-1.6-8.1-2.8-.4-.2-.7-.5-1-.7-1.5-1.2-3-2.4-4.4-3.6-.5-.4-1-.8-1.5-1.3-11.6-9.7-17.1-17.3-2.2-28.7 11.3-8.6 31.3-11.6 50.3-21.5 3.4-1.8 6.9-3.8 10.2-6.1 1.8-1.3 3.6-2.6 5.4-4.1 1.6-1.3 3.1-2.6 4.6-4.1 1.5-1.5 3.1-3.1 4.5-4.8 1.1-1.3 2.2-2.7 3.3-4.1l.1-.1c1.4-1.8 2.7-3.6 4-5.3 1.5-2 3.1-3.8 4.5-5.5 1.4-1.7 2.8-3.2 4.1-4.7 1.9-2 3.7-3.9 5.4-5.6 1.7-1.7 3.4-3.3 5-4.7 11.2-9.9 18.4-12.8 18.4-12.8s11.2 7.1 5.1 14.2c0 0 1.3 1 3.8 2.4 3.2 1.8 8.4 4.2 15.3 5.8 3.9.9 8.4 1.6 13.5 1.8 7.3.3 15.6-.4 25-2.8 2.8-.7 5.6-1.6 8.6-2.7 8.8-3.2 18.3-7.9 28.5-14.7-.1.2 3.9-.2 7.7 6.7z"/><path class="st4" d="M279.3 334h-.2c-2.5 0-4.5-2-4.5-4.5v-5.2c0-2.5 2-4.5 4.5-4.5h.2c2.5 0 4.5 2 4.5 4.5v5.2c0 2.4-2 4.5-4.5 4.5zM298.6 330.9h-.2c-2.5 0-4.5-2-4.5-4.5v-5.2c0-2.5 2-4.5 4.5-4.5h.2c2.5 0 4.5 2 4.5 4.5v5.2c0 2.5-2 4.5-4.5 4.5zM317.9 327.9h-.2c-2.5 0-4.5-2-4.5-4.5v-5.2c0-2.5 2-4.5 4.5-4.5h.2c2.5 0 4.5 2 4.5 4.5v5.2c0 2.4-2 4.5-4.5 4.5z"/><path class="st5" d="M261.2 256.7c-13.1 15.7-42.6 46.7-83.6 63-27.5 10.9-46.3 20.1-58.3 26.7-11.6-9.7-17.1-17.3-2.2-28.7 11.3-8.6 31.3-11.6 50.3-21.5 3.4-1.8 6.9-3.8 10.2-6.1 1.8-1.3 3.6-2.6 5.4-4.1 1.6-1.3 3.1-2.6 4.6-4.1 1.5-1.5 3.1-3.1 4.5-4.8 1.1-1.3 2.2-2.7 3.3-4.1l.1-.1c1.4-1.8 2.7-3.6 4-5.3 1.5-2 3.1-3.8 4.5-5.5 1.4-1.7 2.8-3.2 4.1-4.7 1.9-2 3.7-3.9 5.4-5.6 1.7-1.7 3.4-3.3 5-4.7 11.2-9.9 18.4-12.8 18.4-12.8s11.2 7.1 5.1 14.2c0 0 1.3 1 3.8 2.4 3.2 1.8 8.4 4.2 15.4 5.8z"/><path class="st5" d="M241.6 249c-6.1 25.4-30.5 42.7-50.9 49.9-.5.2-1.1.3-1.6.4-7.1 1.4-14.5.7-21.7-3.1 3.4-1.8 6.9-3.8 10.2-6.1l5.4-4.1c1.6-1.3 3.1-2.6 4.6-4.1 1.5-1.5 3.1-3.1 4.5-4.8 1.1-1.3 2.2-2.7 3.3-4.1l.1-.1c1.4-1.8 2.7-3.6 4-5.3 1.5-2 3.1-3.8 4.5-5.5 1.4-1.7 2.8-3.2 4.1-4.7 1.9-2 3.7-3.9 5.4-5.6 1.7-1.7 3.4-3.3 5-4.7 11.2-9.9 18.4-12.8 18.4-12.8s11.2 7.1 5.1 14.2c.1 0-2.9-.8-.4.5z"/><path class="st6" d="m234.9 264.9-.7.9c-1 1.2-2.8 1.3-4 .3l-16.3-14-.3-.3c1.7-1.7 3.4-3.3 5-4.7l16 13.8c1.2 1 1.3 2.8.3 4zM213.4 283.4l-.6.7c-1 1.2-2.8 1.3-4 .3l-13.4-11.5c1.4-1.8 2.7-3.6 4-5.3l13.7 11.8c1.2 1 1.3 2.8.3 4zM208.1 257.4c.3.1.6.3.8.5l14.3 12.3c1.2 1 1.3 2.8.3 4l-.6.7c-1 1.2-2.8 1.3-4 .3l-14.3-12.3c-.3-.2-.5-.5-.7-.8l4.2-4.7zM203.2 290.5l-.6.7c-1 1.2-2.8 1.3-4 .3l-11.1-9.6c1.5-1.5 3.1-3.1 4.5-4.8l10.9 9.4c1.2 1 1.3 2.8.3 4zM192 297.6l-.6.7c-.2.3-.5.5-.8.6-.5.3-1.1.4-1.6.4-.6-.1-1.1-.3-1.6-.7l-9.9-8.5 5.4-4.1 8.8 7.6c1.2 1 1.3 2.8.3 4z"/><path class="st5" d="M344.4 244.9c-2.7 3.9-6.7 8.6-11.7 12-10.3 6.9-42 32.5-51.6 58.3-1.2 3.2-2.3 6.1-3.4 8.8-1 .3-2.1.5-3.1.8-5.4 1.5-10.8 3.2-15.9 5.1 9.4-15.6 24.2-39.5 32.2-48.8 12.2-14.2 17.3-28 17.3-28 8.8-3.2 18.3-7.9 28.5-14.7-.1 0 3.9-.4 7.7 6.5zM299.6 255.7c-.3.4-.7.8-1.1 1.2-5.6 5.3-35.1 39.4-48.3 47.1-13.2 7.6-42.4 36.7-42.4 36.7l-10.5 9.9c-1.4.3-2.7.5-4.1.8-3 .6-6.1 1.1-9.2 1.5-4.1.6-8.2 1.2-12.2 1.6-3.1.3-6.2.6-9.1.9-3.5.3-6.9.4-10.2.5-3.2.1-6.3 0-9.2-.1-1.2-.1-2.4-.1-3.6-.2l8.2-7.2s40.2-19.5 78.7-40.1c28-15 42.3-38.2 47.9-49.7 7.4.3 15.7-.4 25.1-2.9z"/><path class="st4" d="M344.4 308.2c-1.5 3.5-2.7 5.4-2.7 5.4s-5.8 7.7-19.3 5.3c-.3-.1-.7-.1-1-.2-2.1-.5-4.9-.6-8.1-.6-3.2.1-6.8.4-10.7.9-2.7.3-5.5.8-8.5 1.3-3.4.6-7 1.4-10.6 2.2-2.9.7-5.9 1.4-8.8 2.2-12 3.3-23.8 7.6-32.5 12.3-9.3 5-28.5 10.4-48.8 14.1-3 .6-6.1 1.1-9.2 1.5-4.1.6-8.2 1.2-12.2 1.6-3.1.3-6.2.6-9.1.9-3.5.3-6.9.4-10.2.5-3.2.1-6.3 0-9.2-.1-3.4-.2-6.5-.5-9.2-1-3.4-.6-6.2-1.6-8.1-2.8-.4-.2-.7-.5-1-.7-1.5-1.2-3-2.4-4.4-3.6 9.3 2 40.5 0 40.5 0 16.3-1 48.8-4.1 82.9-19.8 34.1-15.8 62.2-16.3 62.2-16.3 13.7 3.2 28.8-.2 38-3.1z"/><circle class="st6" cx="263.9" cy="291.8" r="19.8"/><path class="st4" d="M129.8 364.5h-.2c-2.5 0-4.5-2-4.5-4.5v-5.2c0-2.5 2-4.5 4.5-4.5h.2c2.5 0 4.5 2 4.5 4.5v5.2c0 2.5-2 4.5-4.5 4.5zM148.1 364.5h-.2c-2.5 0-4.5-2-4.5-4.5v-5.2c0-2.5 2-4.5 4.5-4.5h.2c2.5 0 4.5 2 4.5 4.5v5.2c0 2.5-2 4.5-4.5 4.5zM167.4 364.5h-.2c-2.5 0-4.5-2-4.5-4.5v-5.2c0-2.5 2-4.5 4.5-4.5h.2c2.5 0 4.5 2 4.5 4.5v5.2c0 2.5-2 4.5-4.5 4.5zM188.8 360.4h-.2c-2.5 0-4.5-2-4.5-4.5v-5.2c0-2.5 2-4.5 4.5-4.5h.2c2.5 0 4.5 2 4.5 4.5v5.2c0 2.5-2.1 4.5-4.5 4.5z"/><g><path class="st3" d="M359.4 446.9c-2.2 3.2-3.7 4.7-3.7 4.7s-7.2 6.4-20 1.3c-.3-.1-.6-.3-1-.4-2-.9-4.7-1.6-7.9-2.2-3.1-.6-6.8-1-10.7-1.3-2.7-.2-5.6-.3-8.6-.4-3.5-.1-7.1-.1-10.8.1-1.9.1-3.9.2-5.9.3 1.6-2.3 3.2-5 5.1-7.9 14.5-23.4 50.7-42.2 62.1-46.9 5.5-2.3 10.4-6.1 13.8-9.4 1.3 4.5 2.1 11.5 1 22.6-1.8 19.9-8.9 33-13.4 39.5z"/><path class="st3" d="M371.9 384.9c-3.5 3.3-8.3 7.1-13.8 9.4-11.5 4.7-47.6 23.5-62.1 46.9-.9 1.4-1.7 2.8-2.6 4.1-.9 1.4-1.7 2.6-2.5 3.8-1.1.1-2.1.1-3.2.2-2.4.2-4.9.4-7.3.6-.6.1-1.2.1-1.8.2-.5.1-.9.1-1.4.2-.6.1-1.3.1-1.9.2-.5.1-1 .1-1.5.2-.7.1-1.5.2-2.2.3-.2 0-.4 0-.6.1-.6.1-1.1.2-1.7.3-.6.1-1.2.2-1.7.3l-1.5.3-1.8.3c-.2 0-.4.1-.6.1-.6.1-1.2.2-1.7.4-1.7.4-3.4.8-5 1.2-.6.2-1.3.3-1.9.5-.6.2-1.2.3-1.8.5-.5.2-1.1.3-1.6.5-2.2.6-4.8 1.1-7.7 1.6-.4.1-.8.1-1.2.2-1.1.2-2.2.3-3.3.4-1.4.2-2.8.3-4.3.5-.5 0-1.1.1-1.6.1s-1.1.1-1.6.1-1.1.1-1.7.1c-1.5.1-2.9.2-4.4.3h-.7c-.6 0-1.2.1-1.8.1-.6 0-1.2 0-1.8.1-.6 0-1.2 0-1.8.1-.6 0-1.2 0-1.8.1-1.2 0-2.5.1-3.7.1H206.9c-1.4 0-2.8 0-4.2-.1l-9.3-.3c-4.2-.2-8.3-.5-12.3-.8-3.1-.3-6.2-.6-9.1-1-3.5-.4-6.9-.9-10.1-1.5-3.2-.6-6.2-1.2-9-1.9-.6-.2-1.2-.3-1.8-.5-.5-.1-1-.3-1.5-.4-.1 0-.1 0-.2-.1-.1 0-.1 0-.2-.1-.4-.1-.8-.3-1.2-.4-.5-.1-.9-.3-1.4-.5-.9-.3-1.7-.6-2.5-1-3.2-1.3-5.7-2.7-7.4-4.4-.3-.3-.6-.6-.8-.9-1.3-1.5-2.5-3-3.6-4.4l-1.2-1.5c-9.4-11.8-13.3-20.4 3.6-28.6 12.8-6.2 33-5.2 53.6-11.1 3.7-1.1 7.5-2.4 11.2-4 2-.9 4.1-1.8 6.1-2.9 1.8-.9 3.5-2 5.3-3.1 1.8-1.2 3.6-2.5 5.4-3.8 1.4-1.1 2.7-2.2 4.1-3.4l.1-.1c1.7-1.5 3.4-3 5-4.4 1.9-1.6 3.8-3.1 5.6-4.5 1.7-1.3 3.4-2.6 5-3.8 2.2-1.6 4.4-3.1 6.5-4.4 2.1-1.3 4-2.5 5.9-3.6 12.9-7.5 20.6-8.8 20.6-8.8s9.6 9.2 2.2 15c0 0 1.1 1.2 3.2 3.1 2.8 2.4 7.4 5.7 13.8 8.7 3.7 1.7 7.9 3.3 12.8 4.5 7.1 1.7 15.4 2.7 25 2.2 2.9-.2 5.8-.5 8.9-.9 9.2-1.4 19.5-4.1 30.9-8.7-.3 0 3.7.4 6 8z"/><path class="st4" d="M290.4 459.2h-.1c-2.4-.5-4-2.9-3.5-5.3l1-5.1c.5-2.4 2.9-4 5.3-3.5h.1c2.4.5 4 2.9 3.5 5.3l-1 5.1c-.5 2.4-2.9 4-5.3 3.5zM310 460.1h-.1c-2.4-.5-4-2.9-3.5-5.3l1-5.1c.5-2.4 2.9-4 5.3-3.5h.1c2.4.5 4 2.9 3.5 5.3l-1 5.1c-.5 2.4-2.9 3.9-5.3 3.5zM329.5 460.9h-.1c-2.4-.5-4-2.9-3.5-5.3l1-5.1c.5-2.4 2.9-4 5.3-3.5h.1c2.4.5 4 2.9 3.5 5.3l-1 5.1c-.5 2.4-2.9 4-5.3 3.5z"/><path class="st5" d="M288 379.9c-15.9 12.8-51 37.4-94.5 45.1-29.1 5.2-49.4 10.5-62.5 14.6-9.4-11.8-13.3-20.4 3.6-28.6 12.8-6.2 33-5.2 53.6-11.1 3.7-1.1 7.5-2.4 11.2-4 2-.9 4.1-1.8 6.1-2.9 1.8-.9 3.5-2 5.3-3.1 1.8-1.2 3.6-2.5 5.4-3.8 1.4-1.1 2.7-2.2 4.1-3.4l.1-.1c1.7-1.5 3.4-3 5-4.4 1.9-1.6 3.8-3.1 5.6-4.5 1.7-1.3 3.4-2.6 5-3.8 2.2-1.6 4.4-3.1 6.5-4.4 2.1-1.3 4-2.5 5.9-3.6 12.9-7.5 20.6-8.8 20.6-8.8s9.6 9.2 2.2 15c0 0 1.1 1.2 3.2 3.1 2.5 2.4 7.1 5.7 13.6 8.7z"/><path class="st5" d="M270.3 368.5c-11 23.7-38.4 35.8-59.8 38.8-.6.1-1.1 0-1.7 0-7.3-.1-14.3-2.2-20.6-7.3 3.7-1.1 7.5-2.4 11.2-4l6.1-2.9c1.8-.9 3.5-2 5.3-3.1 1.8-1.2 3.6-2.5 5.4-3.8 1.4-1.1 2.7-2.2 4.1-3.4l.1-.1c1.7-1.5 3.4-3 5-4.4 1.9-1.6 3.8-3.1 5.6-4.5 1.7-1.3 3.4-2.6 5-3.8 2.2-1.6 4.4-3.1 6.5-4.4 2.1-1.3 4-2.5 5.9-3.6 12.9-7.5 20.6-8.8 20.6-8.8s9.6 9.2 2.2 15c-.3-.1-3.1-1.5-.9.3z"/><path class="st6" d="m260.6 382.7-.9.7c-1.3 1-3.1.8-4-.5L242.5 366c-.1-.1-.2-.2-.2-.4 2.1-1.3 4-2.5 5.9-3.6l13 16.7c.9 1.2.7 3-.6 4zM235.9 396.6l-.7.5c-1.3 1-3.1.8-4-.5l-10.8-13.9c1.7-1.5 3.4-3 5-4.4l11.1 14.2c.8 1.3.6 3.1-.6 4.1zM235.8 370c.3.2.5.4.7.7l11.6 14.9c1 1.3.8 3.1-.5 4l-.7.5c-1.3 1-3.1.8-4-.5l-11.6-14.9c-.2-.3-.4-.6-.5-1l5-3.7zM224.5 401.5l-.7.5c-1.3 1-3.1.8-4-.5l-9-11.6c1.8-1.2 3.6-2.5 5.4-3.8l8.8 11.4c.9 1.3.7 3.1-.5 4zM212.1 406.3l-.7.5c-.3.2-.6.4-.9.5-.5.2-1.1.2-1.7 0-.6-.2-1.1-.5-1.4-1l-8-10.3 6.1-2.9 7.1 9.2c1 1.2.8 3-.5 4z"/><path class="st5" d="M371.9 384.9c-3.5 3.3-8.3 7.1-13.8 9.4-11.5 4.7-47.6 23.5-62.1 46.9-1.8 2.9-3.5 5.6-5.1 7.9-1.1.1-2.1.1-3.2.2-5.6.4-11.2 1-16.6 1.8 12.3-13.4 31.6-33.9 41.2-41.4 14.8-11.5 22.5-24.1 22.5-24.1 9.2-1.4 19.5-4.1 30.9-8.7-.1 0 3.9.4 6.2 8zM325.8 386.6c-.4.3-.8.7-1.3.9-6.5 4.1-42.2 31.7-56.7 36.5-14.5 4.8-48.8 27.5-48.8 27.5l-12.2 7.6c-1.4 0-2.8 0-4.2-.1l-9.3-.3c-4.2-.2-8.3-.5-12.3-.8-3.1-.3-6.2-.6-9.1-1-3.5-.4-6.9-.9-10.1-1.5-3.2-.6-6.2-1.2-9-1.9-1.2-.3-2.4-.6-3.5-.9l9.4-5.4s43.2-11.1 85.1-23.7c30.4-9.2 49-29 56.8-39.2 7.3 1.8 15.6 2.8 25.2 2.3z"/><path class="st4" d="M359.4 446.9c-2.2 3.2-3.7 4.7-3.7 4.7s-7.2 6.4-20 1.3c-.3-.1-.6-.3-1-.4-2-.9-4.7-1.6-7.9-2.2-3.1-.6-6.8-1-10.7-1.3-2.7-.2-5.6-.3-8.6-.4-3.5-.1-7.1-.1-10.8.1-3 .1-6 .3-9.1.5-12.4.9-24.9 2.7-34.3 5.6-10.1 3.1-30 4.6-50.6 4.2l-9.3-.3c-4.2-.2-8.3-.5-12.3-.8-3.1-.3-6.2-.6-9.1-1-3.5-.4-6.9-.9-10.1-1.5-3.2-.6-6.2-1.2-9-1.9-3.3-.8-6.2-1.8-8.8-2.8-3.2-1.3-5.7-2.7-7.4-4.4-.3-.3-.6-.6-.8-.9-1.3-1.5-2.5-3-3.6-4.4 8.7 3.8 39.7 8 39.7 8 16.1 2.2 48.6 5.7 85.2-3 36.5-8.7 64.2-3.6 64.2-3.6 12.9 5.8 28.3 5.5 38 4.5z"/><circle class="st6" cx="283.8" cy="414.8" r="19.8"/><path class="st4" d="M137.8 459.4h-.1c-2.4-.5-4-2.9-3.5-5.3l1-5.1c.5-2.4 2.9-4 5.3-3.5h.1c2.4.5 4 2.9 3.5 5.3l-1 5.1c-.5 2.5-2.8 4-5.3 3.5zM155.8 463.1h-.1c-2.4-.5-4-2.9-3.5-5.3l1-5.1c.5-2.4 2.9-4 5.3-3.5h.1c2.4.5 4 2.9 3.5 5.3l-1 5.1c-.5 2.4-2.9 4-5.3 3.5zM174.7 466.9h-.1c-2.4-.5-4-2.9-3.5-5.3l1-5.1c.5-2.4 2.9-4 5.3-3.5h.1c2.4.5 4 2.9 3.5 5.3l-1 5.1c-.5 2.4-2.8 4-5.3 3.5zM196.5 467.2h-.1c-2.4-.5-4-2.9-3.5-5.3l1-5.1c.5-2.4 2.9-4 5.3-3.5h.1c2.4.5 4 2.9 3.5 5.3l-1 5.1c-.5 2.4-2.9 4-5.3 3.5z"/></g><g><path class="st7" d="M594.2 94.9v96.6l4 4.8 25.4 20.1 8.8 7 45.6-48.5s-2.8-3.2-8.1-9.9c-4.1-5.2-9.6-12.5-16.5-22-15.9-21.7-59.2-48.1-59.2-48.1z"/><path class="st8" d="m623.5 216.5 8.8 7 45.6-48.5s-2.8-3.2-8.1-9.9l-46.3 51.4z"/><path d="M457.8 71.6s46.9-18.2 85.8 0c0 0 5.4 2.4 2.2 8.5l-88 1.6s-3.6-2.8 0-10.1z" style="fill:#f09700"/><path class="st7" d="M407.9 94.9v96.6l-4 4.8-25.4 20.1-8.8 7-45.5-48.4s2.8-3.2 8.1-9.9c4.1-5.2 9.6-12.5 16.5-22 15.8-21.8 59.1-48.2 59.1-48.2z"/><path class="st8" d="m378.6 216.5-8.8 7-45.6-48.5s2.8-3.2 8.1-9.9l46.3 51.4z"/><path d="M403.9 96.5s105-43.6 193.6 0v273.4H403.9V96.5z" style="fill:#ff4d53"/><path style="fill:#c23228" d="M403.9 363h193.9v7.3H403.9z"/><path class="st8" d="M457.8 71.6s20.4-3 20.8 5.5 11.1 46.6 22.1 52.4c0 0-24.2-7.5-39.3-39.7 0 0-10.2-16.3-3.6-18.2zM544.5 71.6s-20.4-3-20.8 5.5-11.1 46.6-22.1 52.4c0 0 24.2-7.5 39.3-39.7 0 0 10.3-16.3 3.6-18.2zM533.6 141.3h24.2s-1.2 10.9 14.5 13.3c0 0 5.8 33.8-25.5 54.5 0 0-31.4-20.5-27.8-54.5 0 0 14.6 2.5 14.6-13.3z"/><path class="st7" d="M536.2 148.6h19s-1 8.6 11.4 10.5c0 0 4.6 26.6-20.1 42.8 0 0-24.7-16.1-21.8-42.8.1-.1 11.5 1.8 11.5-10.5z"/></g><g><path class="st3" d="M728.7 335.5c-3.1 19.3-14.2 32.5-35.6 50.8l.1 28.5H627v-27.3s-8.1-7.3-9.2-14.4c-.6-3.8-.8-13.7-.9-25.9-.1-30 .9-73.8.9-73.8s9.2-13.3 16.3 0l1 36.7h4.1V263s9.2-11.5 17.3 0v47.5l3-.3V258s9.6-12.4 19.1 0v52.4l3.3-.3V263s7.6-12.6 17.5 0v79.5s5.4 3.9 16.5-15.4c1.5-2.6 4.1-4.3 7.1-4.5 3.6-.2 7.4 2 5.7 12.9z"/><circle class="st6" cx="659.5" cy="352.8" r="24.9"/><path class="st12" d="m684.4 394-38.7-.1c-7.5 0-14.6-3-19.8-8.4-2.9-3.1-5.9-7.2-8.1-12.4-.6-3.8-.8-13.7-.9-25.9 18.3 5.5 52.9 19.1 67.5 46.8z"/></g><g><path class="st3" d="M728.2 270.4c3.1 19.3 14.2 32.5 35.6 50.8l-.1 28.5h66.2v-27.3s8.1-7.3 9.2-14.4c.6-3.8.8-13.7.9-25.9.1-30-.9-73.8-.9-73.8s-9.2-13.3-16.3 0l-1 36.7h-4.1v-47.1s-9.2-11.5-17.3 0v47.5l-3-.3V193s-9.6-12.4-19.1 0v52.4l-3.3-.4v-47.1s-7.6-12.6-17.5 0v79.5s-5.4 3.9-16.5-15.4c-1.5-2.6-4.1-4.3-7.1-4.5-3.7-.2-7.4 2-5.7 12.9z"/><circle class="st6" cx="797.4" cy="287.7" r="24.9"/><path class="st12" d="m772.4 329 38.7-.1c7.5 0 14.6-3 19.8-8.4 2.9-3.1 5.9-7.2 8.1-12.4.6-3.8.8-13.7.9-25.9-18.2 5.4-52.8 19-67.5 46.8z"/></g><g><path class="st13" d="M392.1 597.3c0 1.5 0 3-.1 4.4-.1 1.8-.2 3.5-.3 5.2-1.8 19.2-8.7 36.8-19.4 51.6-2 2.8-4.1 5.4-6.4 7.9-11.1 12.6-25.3 22.5-41.3 28.6-1.2.5-2.4.9-3.6 1.3-10.6 3.6-21.9 5.5-33.6 5.5-11.8 0-23.1-1.9-33.6-5.5-2.7-.9-5.3-1.9-7.9-3.1-11.3-4.9-21.6-11.7-30.4-20-2.7-2.6-5.3-5.3-7.8-8.2-14-16.4-23-37.2-24.7-60-.2-2.6-.3-5.2-.3-7.9 0-1.5 0-3.1.1-4.6.8-18.7 6.5-36.2 16-51.1 1.2-2 2.5-3.9 3.9-5.8 11.9-16.4 28.6-29.3 47.9-36.5 3.6-1.4 7.3-2.5 11.2-3.5 8.2-2.1 16.8-3.2 25.7-3.2 10.1 0 19.9 1.4 29.2 4.1 2.8.8 5.6 1.7 8.3 2.8 19.6 7.5 36.4 20.7 48.2 37.6 2.6 3.6 4.9 7.4 7 11.4 7.5 14.8 11.9 31.4 11.9 49z"/><path d="M395.6 597.3c0 1.5 0 3.1-.1 4.6-.1 1.8-.2 3.6-.4 5.4-1.8 19.8-9 38.1-20 53.4-2.1 2.8-4.3 5.6-6.6 8.2-11.5 13.1-26.1 23.3-42.7 29.6-1.2.5-2.5.9-3.7 1.4-10.9 3.7-22.6 5.7-34.8 5.7-12.2 0-23.9-2-34.8-5.7-2.8-1-5.5-2-8.2-3.2-11.7-5-22.3-12.1-31.4-20.7-2.8-2.7-5.5-5.5-8.1-8.5-14.5-17-23.8-38.5-25.5-62-.2-2.7-.3-5.4-.3-8.1 0-1.6 0-3.2.1-4.8.8-19.4 6.8-37.4 16.5-52.8 1.3-2 2.6-4 4-5.9 12.3-17 29.5-30.3 49.5-37.8 3.8-1.4 7.6-2.6 11.5-3.6 8.5-2.1 17.4-3.3 26.6-3.3 10.5 0 20.6 1.5 30.2 4.3 2.9.8 5.7 1.8 8.5 2.9 20.3 7.8 37.6 21.4 49.9 38.9 2.6 3.8 5.1 7.7 7.2 11.8 8.1 14.8 12.6 32 12.6 50.2z" style="fill:#d1d3d4"/><path class="st13" d="M392.1 597.3c0 1.5 0 3-.1 4.4-.1 1.8-.2 3.5-.3 5.2-1.8 19.2-8.7 36.8-19.4 51.6-2 2.8-4.1 5.4-6.4 7.9-11.1 12.6-25.3 22.5-41.3 28.6-1.2.5-2.4.9-3.6 1.3-10.6 3.6-21.9 5.5-33.6 5.5-11.8 0-23.1-1.9-33.6-5.5-2.7-.9-5.3-1.9-7.9-3.1-11.3-4.9-21.6-11.7-30.4-20-2.7-2.6-5.3-5.3-7.8-8.2-14-16.4-23-37.2-24.7-60-.2-2.6-.3-5.2-.3-7.9 0-1.5 0-3.1.1-4.6.8-18.7 6.5-36.2 16-51.1 1.2-2 2.5-3.9 3.9-5.8 11.9-16.4 28.6-29.3 47.9-36.5 3.6-1.4 7.3-2.5 11.2-3.5 8.2-2.1 16.8-3.2 25.7-3.2 10.1 0 19.9 1.4 29.2 4.1 2.8.8 5.6 1.7 8.3 2.8 19.6 7.5 36.4 20.7 48.2 37.6 2.6 3.6 4.9 7.4 7 11.4 7.5 14.8 11.9 31.4 11.9 49z"/><path class="st15" d="m286.3 557.4-40.2 29.2 15.4 47.2h49.7l15.3-47.2z"/><path class="st16" d="M391.7 609.8c-1.7 19.7-8.6 37.8-19.2 53l-31.9 7L313 638l-2-2.3 13.7-43.6 3-.7 40.4-8.9 23.6 27.3zM332.1 677.4l-11 19.1c-10.6 3.6-21.9 5.5-33.6 5.5-11.8 0-23.1-1.9-33.6-5.5l-11-19.1 22.3-38.7h44.7l22.2 38.7zM372.6 538.1l-2.9 27.6-41.9 18.6-37.1-26.9 4.8-45.6 27.6-12.3c20.1 7.7 37.3 21.3 49.5 38.6z"/><path class="st15" d="m316.6 496.8-33.2 14.8-21.7-15.7c8.2-2.1 16.8-3.2 25.7-3.2 10.1-.1 19.9 1.4 29.2 4.1zM203.9 575.9l-21.1 16.8c.8-18.7 6.5-36.2 16-51.1l5.1 34.3zM365.9 666.6c-11.1 12.6-25.3 22.5-41.3 28.6L337 669l28.9-2.4zM392.1 597.3c0 1.5 0 3-.1 4.4L369.9 573l10.1-24.5c7.7 14.6 12.1 31.2 12.1 48.8zM245.9 693.5c-11.3-4.9-21.6-11.7-30.4-20h18.8l11.6 20z"/><path class="st16" d="M258.9 636.5 229 669.7l-21.3-4.5c-14-16.4-23-37.2-24.7-60l18.4-20.4 43.7 9.3 13.8 42.4zM282.5 555.9l-36.1 26.3-40.8-18.2-3-28.1c11.9-16.4 28.6-29.3 47.9-36.5l27.3 12.2 4.7 44.3z"/></g><g><path class="st17" d="M480.3 471.8c-15.4 0-28-12.6-28-28s12.6-28 28-28 28 12.6 28 28-12.6 28-28 28zm0-51.5c-13 0-23.5 10.6-23.5 23.5s10.6 23.5 23.5 23.5c13 0 23.5-10.6 23.5-23.5s-10.6-23.5-23.5-23.5z"/><path transform="rotate(-38.556 442.263 491.73)" class="st17" d="M436.4 485.9h11.8v11.8h-11.8z"/><path class="st18" d="m443.8 483.1-10.3 8.2c-2.1 1.7-5.2 1.3-6.8-.8l-.1-.1c-1.7-2.1-1.3-5.2.8-6.8l10.3-8.2c2.1-1.7 5.2-1.3 6.8.8l.1.1c1.6 2 1.3 5.1-.8 6.8z"/><circle class="st8" cx="479.9" cy="551" r="67.2"/><circle class="st17" cx="479.9" cy="551" r="59.4"/><circle class="st6" cx="479.9" cy="551" r="54.1"/><circle class="st19" cx="479.9" cy="551" r="13.8"/><circle cx="479.9" cy="551" r="7.1" style="fill:#c03025"/><path class="st17" d="M473.2 471.1h14.2v14.2h-14.2z"/><path class="st18" d="M488.2 471.1h-15.9c-3.2 0-5.9-2.6-5.9-5.9v-.2c0-3.2 2.6-5.9 5.9-5.9h15.9c3.2 0 5.9 2.6 5.9 5.9v.2c0 3.3-2.6 5.9-5.9 5.9z"/><path transform="rotate(-141.444 520.237 491.753)" class="st17" d="M515.5 487h9.5v9.5h-9.5z"/><path class="st18" d="m518.7 484.5 9 7.2c1.5 1.2 3.7 1 4.9-.6l.6-.8c1.2-1.5 1-3.7-.6-4.9l-9-7.2c-1.5-1.2-3.7-1-4.9.6l-.6.8c-1.2 1.4-.9 3.6.6 4.9z"/><path class="st19" d="m475.8 537.9 4.1-24.9 6.2 24.9zM479.5 564.3l1.2 21.7 2.8-21.2z"/></g><g><path class="st6" d="M598.9 505.4h1.2v151.8h-1.2zM612.6 516.4h1.2V650h-1.2z"/><path transform="rotate(-67.338 604.025 513.826)" class="st6" d="M603.4 492h1.2v43.6h-1.2z"/><path transform="rotate(-72.243 603.19 529.04)" class="st6" d="M602.6 506.7h1.2v44.8h-1.2z"/><path transform="rotate(-78.715 603.597 545.056)" class="st6" d="M603 522.9h1.2v44.3H603z"/><path transform="rotate(-83.067 603.979 559.647)" class="st6" d="M603.4 537.4h1.2v44.5h-1.2z"/><path class="st6" d="M583.7 573.6h41.7v1.2h-41.7z"/><path transform="rotate(-6.735 604.827 590.446)" class="st6" d="M581.7 589.9h46.2v1.2h-46.2z"/><path transform="rotate(-11.046 605.331 606.464)" class="st6" d="M581.4 605.9h47.8v1.2h-47.8z"/><path transform="rotate(-19.1 605.367 621.962)" class="st6" d="M580.5 621.3h49.6v1.2h-49.6z"/><path transform="rotate(-23.961 606.218 635.985)" class="st6" d="M579.6 635.3h53.1v1.2h-53.1z"/><path transform="rotate(-30.818 606.612 650.984)" class="st6" d="M577.8 650.3h57.5v1.2h-57.5z"/><path class="st6" d="m638.4 620.3-.1-1.2c1-.1 105.5-10.9 156.2 0l-.2 1.2c-50.6-10.9-154.9-.1-155.9 0zM795.5 602.4c-43.1-20.3-157.4-2.9-158.5-2.7l-.2-1.2c1.2-.2 115.8-17.7 159.2 2.8l-.5 1.1zM795.5 583.7c-29.6-14.1-70.7-13.6-100-10.7-32.3 3.2-58.2 10-59.4 10.6l-.3-.5-.6.2.2-.6c.9-.7 26.5-7.5 59.3-10.8 29.7-3 71.3-3.5 101.3 10.7l-.5 1.1zM798.3 566.4c-76.4-36.1-162.6-.7-163.5-.4l-.5-1.1c.9-.4 87.5-35.9 164.4.4l-.4 1.1z"/><path class="st6" d="M798.3 549.9c-44.2-21.8-86.5-20.7-114.2-15.9-30.1 5.2-50 15.8-50.2 15.9l-.6-1c.2-.1 20.2-10.7 50.5-16 27.9-4.9 70.5-6 115 16l-.5 1z"/><path class="st6" d="M800.4 531.1c-43.7-20.6-86.7-19.5-115-15-30.7 4.9-51.3 14.9-51.5 15l-.5-1.1c.2-.1 21-10.1 51.9-15.1 28.5-4.6 71.7-5.7 115.7 15.1l-.6 1.1z"/><path class="st6" d="M804.6 514.6c-50.1-21.9-95.1-20.7-124.1-15.9-31.4 5.2-51.3 15.8-51.4 15.9l-.6-1c.2-.1 20.2-10.7 51.8-16 29.2-4.9 74.5-6 124.8 16l-.5 1z"/><path class="st6" d="M613.3 503.3h-.2l.2-1.2-.1.6.1-.6c.5 0 3.2-.9 6.7-2 13-4.1 43.4-13.8 79.8-17.3 45.4-4.4 84.9 2.1 117.2 19.3l-.6 1c-50.2-26.7-116.2-27.4-196.1-1.9-4.6 1.6-6.3 2.1-7 2.1z"/><path class="st6" d="m599.8 496.9-.6-1c.3-.2 29.7-15.8 72.8-23.7 39.8-7.3 99.7-9.3 159.1 22.5l-.6 1c-59.1-31.6-118.7-29.6-158.3-22.3-42.8 7.8-72.1 23.3-72.4 23.5z"/><path class="st6" d="M651.9 635.6c0-1-1.7-99.4-4.5-122.8-2.8-23-34-28-34.3-28l.2-1.2c.3 0 32.4 5.2 35.3 29.1 2.8 23.5 4.5 121.9 4.5 122.9h-1.2z"/><path class="st6" d="M673 635.9c0-1-1.6-99.8-3.2-123.2-1.7-23.1-30.3-37.5-30.6-37.7l.5-1.1c.3.1 29.5 14.9 31.2 38.6 1.7 23.5 3.2 122.2 3.2 123.2l-1.1.2zM696.8 636.2c0-.9-2.9-86-4.9-119.8-1.9-33.6-16.5-50.2-16.7-50.4l.9-.8c.2.2 15.1 17.1 17 51.1 1.9 33.8 4.8 119 4.9 119.8l-1.2.1zM715.7 461.5h1.2v174.1h-1.2zM738 636.2h-1.2l3-117.5c-2.4-31.7 20.7-53.3 20.9-53.5l.8.9c-.2.2-22.9 21.4-20.6 52.6L738 636.2zM761.8 636.2h-1.2c0-1.1 2.8-105.9 3.2-128.1.4-22.5 33.1-34.6 34.4-35.1l.4 1.1c-.3.1-33.3 12.3-33.7 34.1-.2 22.1-3.1 127-3.1 128z"/><path class="st6" d="M780.5 636.2h-1.2l3-119.8c4.7-33.2 41.3-32.8 41.6-32.8v1.2c-.3 0-35.9-.4-40.4 31.7l-3 119.7z"/><path transform="rotate(-23.466 831.686 512.138)" class="st6" d="M808.1 511.6h47.4v1.2h-47.4z"/><path transform="rotate(-17.617 831.209 528.756)" class="st6" d="M807.6 528.2h47.1v1.2h-47.1z"/><path class="st6" d="m808.1 549.1-.2-1.2c14.6-2.5 42.4-7.4 43.5-7.8l.3 1.1c-1.4.5-41.9 7.6-43.6 7.9z"/><path transform="rotate(-5.721 830.3 559.964) scale(.99998)" class="st6" d="M806.9 559.4h46.7v1.2h-46.7z"/><path class="st6" d="M806.2 573.6h47.4v1.2h-47.4z"/><path transform="rotate(-83.339 828.314 590.456)" class="st6" d="M827.8 567.1h1.2v46.7h-1.2z"/><path transform="rotate(-79.082 827.79 606.458)" class="st6" d="M827.2 582.3h1.2v48.4h-1.2z"/><path transform="rotate(-69.604 826.043 620.509)" class="st6" d="M825.5 593.4h1.2v54.3h-1.2z"/><path transform="rotate(-63.32 826.85 637.573)" class="st6" d="M826.2 609.9h1.2v55.3h-1.2z"/><path transform="rotate(-57.078 826.325 652.593)" class="st6" d="M825.7 622.6h1.2v60h-1.2z"/><path transform="matrix(.00781 -1 1 .00781 231.598 1391.964)" class="st6" d="M750.1 578.7h134.2v1.2H750.1z"/><path transform="rotate(-.888 835.413 580.891) scale(1.00002)" class="st6" d="M834.7 502.7h1.2v156.5h-1.2z"/><path class="st21" d="M797 640h-.4c-2.3-.2-4-2.2-3.8-4.5.1-.9 7.7-88.3 7.8-108.9.1-23.8 40-35.2 41.7-35.7 2.2-.6 4.5.7 5.1 2.9.6 2.2-.7 4.5-2.9 5.1-9.9 2.8-35.6 13.1-35.6 27.7-.1 20.9-7.5 106-7.8 109.6-.1 2.2-1.9 3.8-4.1 3.8z"/><path class="st21" d="M860.7 682.9c-4.6 0-8.3-3.7-8.3-8.3V502.7C795 467 731.8 456.3 664.3 470.9c-42.2 9.1-73.2 25.8-83.5 31.9v171.8c0 4.6-3.7 8.3-8.3 8.3-4.6 0-8.3-3.7-8.3-8.3V498.2c0-2.8 1.4-5.4 3.7-6.9 1.5-1 37.5-24.5 92.2-36.4 32.2-7 64.2-8.5 95.1-4.5 38.7 5 75.6 18.8 109.9 40.9 2.4 1.5 3.8 4.1 3.8 6.9v176.5c.1 4.5-3.6 8.2-8.2 8.2z"/><path class="st21" d="M635.3 640c-2.1 0-4-1.7-4.1-3.8-.3-4.1-7.5-101.6-7.1-114 .1-1.9-3.8-6.9-18.6-14-10.3-4.9-20.7-8.5-20.8-8.5-2.2-.7-3.3-3.1-2.6-5.2.7-2.2 3.1-3.3 5.2-2.6 10.7 3.6 45.5 16.4 45 30.6-.4 12 7 112.1 7.1 113.1.2 2.3-1.5 4.3-3.8 4.4h-.3z"/><g><path class="st6" d="M639.5 635H793v1.2H639.5z"/></g></g></svg>