<svg xmlns="http://www.w3.org/2000/svg" width="553.462" height="488.381" viewBox="0 0 553.462 488.381"><defs><style>.a,.b{fill:#caa6ee;}.a,.l{opacity:0.41;}.c{fill:#2d2d2d;}.d{fill:#252526;}.e,.j,.k{fill:#fff;}.f{opacity:0.28;}.g,.h{fill:#3073b7;}.h{opacity:0.51;}.i,.l{fill:#ee505d;}.j{opacity:0.4;}.k{opacity:0.34;}.m{fill:#8922e1;}.n{fill:none;stroke:#fff;stroke-miterlimit:10;}.o{fill:#f69b62;}.p{fill:#202068;}.q{fill:#bf2b2b;}.r{fill:#3270b8;}.s{fill:#383738;}.t{fill:#f7b77a;}.u{fill:#fda819;}.v{fill:#323233;}</style></defs><g transform="translate(101 290)"><g transform="translate(-101 -290)"><path class="a" d="M208.755,477.4S-100.263,394.968,33.648,197.525,305.5-28.195,404,21.269,557.335,129.318,553.249,223.847C550.129,296.1,523.226,402.424,446.1,439.016S299.029,485.6,208.755,477.4Z" transform="translate(0 0)"/><path class="b" d="M238.647,486.452s-292.8-78.1-165.923-265.163S330.312,7.381,423.656,54.255,568.94,156.633,565.072,246.2c-2.957,68.462-28.45,169.174-101.523,203.882S324.2,494.226,238.647,486.452Z" transform="translate(-15.361 -12.828)"/><path class="c" d="M396.029,656.5l-7.019,63.951h116.2L492.736,660.4Z" transform="translate(-146.302 -246.901)"/><path class="d" d="M534.956,507.121,101.019,502.3a29.829,29.829,0,0,1-29.5-29.829V250.98a24.021,24.021,0,0,1,24.289-24.021l434.063,4.923a23.908,23.908,0,0,1,23.615,23.085l7.662,225.37a25.911,25.911,0,0,1-26.192,26.785Z" transform="translate(-26.898 -85.356)"/><path class="e" d="M529.7,488.511,108.9,482.079A18.412,18.412,0,0,1,90.81,463.517L87.178,259.691a17.719,17.719,0,0,1,17.8-18.031l425.44,2.021a21.07,21.07,0,0,1,20.97,21.419l-3.413,205.7A18.006,18.006,0,0,1,529.7,488.511Z" transform="translate(-32.786 -90.885)"/><g class="f" transform="translate(84.397 175.631)"><rect class="g" width="269.063" height="30.416" rx="15.208"/><rect class="g" width="122.056" height="30.416" rx="15.208" transform="translate(281.541)"/><rect class="h" width="404.764" height="174.696" rx="22.5" transform="translate(0 38.215)"/><rect class="g" width="239.427" height="142.271" rx="22.5" transform="translate(14.818 47.018)"/><rect class="g" width="115.424" height="67.071" rx="23.75" transform="translate(281.541 55.372)"/><rect class="g" width="115.424" height="67.071" rx="23.75" transform="translate(281.541 127.122)"/></g><rect class="d" width="177.815" height="23.397" rx="11.698" transform="translate(213.859 464.971)"/><path class="i" d="M676.141,219.668a15.6,15.6,0,0,1-15.136,15.885l-194.3,6.576a19.235,19.235,0,0,1-19.822-16.952l-13.608-119.5L431.848,93.1a14.974,14.974,0,0,1,14.225-16.565l209.5-10.02a16.552,16.552,0,0,1,17.407,16.072l.2,8.778Z" transform="translate(-162.38 -25.008)"/><path class="e" d="M538.316,230.25,494.2,233.082a9.652,9.652,0,0,1-10.27-9.359l-1.491-56.832a7.705,7.705,0,0,1,7.212-7.9l42.788-2.839a8.735,8.735,0,0,1,9.3,7.974l4.879,56.508a8.878,8.878,0,0,1-8.3,9.621Z" transform="translate(-181.438 -58.717)"/><rect class="e" width="147.555" height="8.672" transform="translate(296.806 83.202) rotate(-1.92)"/><rect class="e" width="128.133" height="8.398" transform="translate(369.172 98.575) rotate(-1.92)"/><rect class="e" width="128.133" height="8.398" transform="translate(369.519 116.053) rotate(-1.718)"/><rect class="e" width="128.133" height="8.398" transform="translate(369.993 131.054) rotate(-1.718)"/><rect class="e" width="128.133" height="8.398" transform="translate(370.443 146.675) rotate(-1.718)"/><rect class="e" width="128.133" height="8.398" transform="translate(370.936 162.293) rotate(-1.718)"/><rect class="e" width="128.133" height="8.398" transform="translate(371.38 177.914) rotate(-1.718)"/><path class="j" d="M672.76,218.789a14.506,14.506,0,0,1-14.082,14.781l-180.791,6.139a17.888,17.888,0,0,1-18.449-15.785L446.779,112.736l-1.329-11.68a13.907,13.907,0,0,1,13.239-15.411l194.935-9.359a15.4,15.4,0,0,1,16.222,14.974l.187,8.167Z" transform="translate(-167.497 -28.682)"/><circle class="k" cx="4.293" cy="4.293" r="4.293" transform="translate(285.446 63.52)"/><circle class="k" cx="4.293" cy="4.293" r="4.293" transform="translate(299.553 63.046)"/><circle class="k" cx="4.293" cy="4.293" r="4.293" transform="translate(313.66 62.572)"/><path class="l" d="M673.184,91.367,433.277,105.68,431.848,93.1a14.974,14.974,0,0,1,14.225-16.565l209.5-10.02a16.552,16.552,0,0,1,17.407,16.072Z" transform="translate(-162.38 -25.008)"/><rect class="m" width="179.962" height="100.157" rx="16.82" transform="translate(188.153 190.836)"/><rect class="n" width="165.612" height="86.78" rx="16.82" transform="translate(193.307 197.525)"/><rect class="e" width="68.861" height="53.756" rx="11.2" transform="translate(200.507 219.842)"/><rect class="e" width="147.069" height="11.099" transform="translate(203.034 205.423)"/><rect class="e" width="73.99" height="8.011" transform="translate(276.113 219.842)"/><rect class="e" width="73.99" height="8.011" transform="translate(276.662 232.907)"/><path class="o" d="M194.156,384.12l-9.3,22.817,18.742,6.277,3.993-18.15Z" transform="translate(-69.524 -144.463)"/><ellipse class="o" cx="12.017" cy="17.526" rx="12.017" ry="17.526" transform="translate(119.062 226.714) rotate(-25.44)"/><path class="o" d="M254.79,393.922s5.871-3.007,18.031-13.165l5.578-7.05a20.733,20.733,0,0,1,0-14.974c3.12-8.011,4.149-6.439,4.149-6.439l1.429,25.58s-4.149,4.006-5.434,6.863-4.991,15.735-17.17,20.315Z" transform="translate(-95.823 -132.447)"/><path class="p" d="M208.287,355.023s9.658-2.858,7.655-7.437a9.39,9.39,0,0,0-6.164-5.434s-6.283-.505-6.925,4.573c0,0-2.29,3.438-5.079,3.581s-7.587.143-6.582,6.938c0,0,2.5,1.142.93,4.149,0,0-3.506,3.219.356,6.077l6.239,4.5,3.432-1.067s-3.432-9.446-2.433-12.091a6.033,6.033,0,0,1,5.865-3.743A6.769,6.769,0,0,0,208.287,355.023Z" transform="translate(-71.706 -128.674)"/><path class="q" d="M215.378,419.8s8.516,1.435,25.181-2.427l7.8,11.854s-9.3,11.174-23.821,9.752C224.538,438.976,211.516,427.309,215.378,419.8Z" transform="translate(-80.732 -156.967)"/><path class="o" d="M278.18,472.485s15.6-.711,24.464-6.439c0,0,1.579-5.434,6.008-4.991s14.306,2.714,19.6,1,5.147-.144,5.147-.144-7.007,6.3-10.731,7.013-15.735.431-15.735.431l-6.582,5.241s-8.155,11.5-20.028,13.071Z" transform="translate(-104.62 -173.387)"/><path class="o" d="M111.71,751.513l1,10.014h9.44l-2.864-12.017Z" transform="translate(-42.013 -281.881)"/><path class="r" d="M109.591,761.831s4.717,2.714,11.443-.861c0,0,9.44,9.727,6.726,13.308H108.73Z" transform="translate(-40.892 -286.191)"/><path class="o" d="M173.39,749.421l2.433,12.16s10.731-2,10.444-2.433S179.835,747,179.835,747Z" transform="translate(-65.21 -280.937)"/><path class="r" d="M172.788,761.84s8.3-1.142,11.018-3.12l17.438,11.405s4.867,2.864,0,3.294-26.753,0-26.753,0S169.793,768.958,172.788,761.84Z" transform="translate(-64.608 -285.345)"/><path class="s" d="M111.127,533.28s-7.868,4.717-6.008,19.6l2.433,118.887h12.3l4.723-88.122s1.292-10.607,3.288-1.142,18.312,87.547,18.312,87.547l11.73-.287-6.289-77.484s-1.136-38.826-6.127-45.265Z" transform="translate(-39.427 -200.56)"/><ellipse class="o" cx="2.901" cy="4.236" rx="2.901" ry="4.236" transform="matrix(0.841, -0.542, 0.542, 0.841, 120.986, 239.257)"/><path class="i" d="M159.847,413.559a23.571,23.571,0,0,0,17.1,6.339s12.509,2.265,20.09,18.287c0,0,9.159,12.946,19.029,14.45L220,470.1s-13.165,5.291-24.464-1.791-16.166-12.878-16.166-12.878-1-2.284-2.72,1.148-21.962,38.127-21.962,38.127-2.858,4.991-3.363,8.579-3.288.624-3.288.624l-35.051-12.952s-2.72-1.784.356-5.434,26.111-63.882,26.111-63.882S141.747,405.835,159.847,413.559Z" transform="translate(-42.077 -154.735)"/><path class="t" d="M702.85,633.48l7.581,43.78,9.016,37.653L707.71,722.75s6.863,1.435,11.736,0a21.519,21.519,0,0,0,7.724-4.006s-3.744-4.292-3.151-8.579-2.577-76.685-2.577-76.685Z" transform="translate(-264.333 -238.244)"/><path class="d" d="M710.419,770.461a15.029,15.029,0,0,0,10.725,0c6.008-2.19,6.008-5.291,6.008-5.291s6.863,7.393,3.12,9.109-27.452,1.872-27.452,1.872S706.052,769.512,710.419,770.461Z" transform="translate(-264.321 -287.771)"/><path class="t" d="M741.83,624.145l35.981,72.879s5.366,20.521,0,20.171c0,0,12.085-1.778,8.941-16.945s.518-1.429.518-1.429-3.956-3.432-4.523-8.3-3.12-25.031-15.741-36.692L755.562,617.02Z" transform="translate(-278.993 -232.053)"/><path class="d" d="M797.6,760.4s-14.724,3.744-6.426,4.567a60.326,60.326,0,0,0,13.682,0l4.629-22.111a5.643,5.643,0,0,0-6.414-3.875C803.088,738.959,805.085,757.945,797.6,760.4Z" transform="translate(-296.596 -277.887)"/><path class="r" d="M694.933,518.256l23.752-1.716s11.524,11.443,13.633,19.167,6.7,47.1,6.7,47.1-25.181,18.168-41.49,9.084C697.51,591.89,684.632,550.013,694.933,518.256Z" transform="translate(-259.853 -194.264)"/><path class="t" d="M657.373,390.235s-23.172-15.33-28.613-36.686.936-23.085.936-23.085,3.12-2.939-1.791-4.3l-4.891-1.366s-4.268-14.974-11.418-14.656-3.743,17.388,6.576,23l1.984,20.389s2.6,26.423,14.9,40.729S650.51,410.4,650.51,410.4Z" transform="translate(-228.589 -116.637)"/><path class="t" d="M700.6,391.709S675.2,372.193,672.34,361.318s0-17.626,0-17.626l8.885-5.553-16.035.069v15.386s-1.872,21.581,10.607,34.047l18.025,19.46Z" transform="translate(-250.132 -127.17)"/><path class="u" d="M680.069,432.61,673,456.481s3.606.624,3.519,7.412,9.359,17.644,10.213,25.942l27.184-2V439.479S684.23,435.187,680.069,432.61Z" transform="translate(-253.107 -162.699)"/><ellipse class="t" cx="15.816" cy="12.235" rx="15.816" ry="12.235" transform="translate(432.412 257.353) rotate(-63.41)"/><path class="v" d="M721.152,363.76c2.9-1.66,8.86-4.555,14.275-3.949a8.7,8.7,0,0,1,7.362,6.283c.849,3.007,1.472,9.016,4.692,10.114,8.011,2.733,10.725,7.25,2.789,17.838,0,0,23.821,5.035,15.81,25.549,0,0,2.19.225,0,9.477-1.123,4.742-3.619,4.742-8.011,8.972-7.425,7.138-23.752,14.943-35.482,4.367s-3.213-25.437-3.213-25.437-9.8-11.486,0-22.074c0,0,1.248-8.335,7.8-10.887,0,0,6.863-3.213-6.408-17.675a1.666,1.666,0,0,1,.387-2.577Z" transform="translate(-268.909 -135.289)"/></g></g></svg>