<svg xmlns="http://www.w3.org/2000/svg" xmlns:xlink="http://www.w3.org/1999/xlink" width="690.732" height="608.521" viewBox="0 0 690.732 608.521"><defs><style>.a,.ap,.c{fill:none;}.b,.d{opacity:0.39;}.c{stroke:#8922e1;stroke-width:3px;stroke-dasharray:11.97 11.97;}.ap,.c{stroke-miterlimit:10;}.d{fill:#8922e1;}.e{clip-path:url(#a);}.f{opacity:0.63;}.g{fill:#8529e8;}.h,.m{fill:#373e47;}.h{opacity:0.41;}.ae,.af,.ag,.ah,.am,.aq,.i,.j,.o{fill:#fff;}.i{opacity:0.29;}.j{opacity:0.2;}.k{fill:#ffae92;}.aj,.ak,.l{fill:#313844;}.n{fill:#ff9578;}.p{fill:#dd8664;}.q{fill:#ffa478;}.r{opacity:0.33;}.s{fill:#3d3c3c;}.t{fill:#9b3e53;}.u{opacity:0.11;}.v{fill:#f6d063;}.w{fill:#d82f46;}.an,.x{fill:#ffed9f;}.al,.y{fill:#ff962e;}.ab,.ad,.z{fill:#f1f2f2;}.z{opacity:0.78;}.aa{fill:#e6e7e8;}.ac{fill:#7c7c7c;}.ad{opacity:0.88;}.ae{opacity:0.58;}.af,.ak{opacity:0.19;}.ag{opacity:0.15;}.ah{opacity:0.13;}.ai{fill:#bc4b64;}.aj{opacity:0.24;}.al{opacity:0.55;}.am,.ao{opacity:0.17;}.an{opacity:0.74;}.ap{stroke:#fff;stroke-linecap:round;stroke-width:6px;opacity:0.54;}.aq{opacity:0.3;}</style><clipPath id="a"><path class="a" d="M97.992,608.817c-13.947-.25-32.6-104.323-42.3-114.679-21.454-22.8-39.862-70.569,18.317-147.949,48.268-64.2,56.327-107.687,54.1-133.473a133.374,133.374,0,0,1,24.342-88.674c44.481-62.314,130.887-137.948,249.649-32.3a190.449,190.449,0,0,1,36.838,44.6c15.951,26.678,52.063,74.772,106.243,77.448,75.2,3.734,140.367,95.1,125.119,178.1-9.117,49.568-39.673,85.582-55.488,106.492-10.236,13.547-17.039,119.533-33.693,119.23Z" transform="translate(-34.992 -39.043)"/></clipPath></defs><g transform="translate(-20.469 0.075)"><g transform="translate(21.972 1.498)"><g class="b"><path class="c" d="M67,496.783a57.151,57.151,0,0,1-40.066-17.228C3.715,455.6-21.98,405.425,41.022,324.136c52.267-67.447,61-113.122,58.595-140.208a137.011,137.011,0,0,1,26.36-93.15C174.147,25.312,267.72-54.109,396.324,56.843a201.789,201.789,0,0,1,39.892,46.87C453.5,131.744,492.6,182.257,551.273,185.07c81.432,3.908,152.009,99.915,135.506,187.07a262.32,262.32,0,0,1-50.271,111.882,57.393,57.393,0,0,1-46.31,22.014Z" transform="translate(-1.502 -1.498)"/></g><path class="d" d="M94.856,500.411a52.774,52.774,0,0,1-37-15.875C36.421,462.379,12.7,416.046,70.87,340.979,119.138,278.7,127.2,236.535,124.981,211.505a126.51,126.51,0,0,1,24.342-86.013C193.8,65.015,280.211-8.313,398.972,94.157A186.3,186.3,0,0,1,435.8,137.444c15.958,25.884,52.071,72.527,106.243,75.127,75.2,3.606,140.375,92.227,125.119,172.737a242.173,242.173,0,0,1-46.446,103.3,52.993,52.993,0,0,1-42.757,20.32Z" transform="translate(-9.525 -11.635)"/><g class="e" transform="translate(25.318 28.382)"><g class="f" transform="translate(183.6 169.416)"><rect class="g" width="299.512" height="13.403" rx="6.702" transform="translate(38.727) rotate(90)"/><path class="g" d="M324.31,479.5s0-33.731,41.782-48.828C366.092,430.67,358.094,465.474,324.31,479.5Z" transform="translate(-289.197 -304.031)"/><path class="g" d="M324.31,321.158s0-33.723,41.782-48.828C366.092,272.33,358.094,307.134,324.31,321.158Z" transform="translate(-289.197 -265.39)"/><path class="g" d="M320.67,604.037s0-33.731,41.782-48.828C362.452,555.21,354.439,590.014,320.67,604.037Z" transform="translate(-288.309 -334.424)"/><path class="g" d="M305.831,536.5s-30.843-13.653-27.751-57.967C278.08,478.53,306.693,499.939,305.831,536.5Z" transform="translate(-277.862 -315.711)"/><path class="g" d="M306.841,415.777S276,402.132,279.09,357.81C279.09,357.81,307.7,379.226,306.841,415.777Z" transform="translate(-278.108 -286.251)"/><rect class="h" width="12.488" height="3.848" transform="translate(25.656 36.815)"/><rect class="h" width="12.488" height="3.848" transform="translate(25.641 75.347)"/><rect class="h" width="12.488" height="3.848" transform="translate(25.338 162.501)"/><rect class="h" width="12.488" height="3.848" transform="translate(25.338 204.752)"/><rect class="h" width="12.488" height="3.848" transform="translate(25.641 253.746)"/><rect class="h" width="12.488" height="3.848" transform="translate(25.338 121.483)"/></g><g class="f" transform="translate(99.799 46.504)"><rect class="g" width="354.758" height="15.875" rx="7.68" transform="translate(48.663 0) rotate(90)"/><path class="g" d="M222.09,205.491s0-39.945,49.493-57.831C271.583,147.66,262.088,188.883,222.09,205.491Z" transform="translate(-180.45 -112.054)"/><path class="g" d="M224.19,331.779s0-39.953,49.485-57.839C273.675,273.94,264.18,315.17,224.19,331.779Z" transform="translate(-180.963 -142.871)"/><path class="g" d="M224.19,472.761s0-39.945,49.485-57.831C273.675,414.93,264.18,456.153,224.19,472.761Z" transform="translate(-180.963 -177.278)"/><path class="g" d="M205.655,387.066S169.1,370.9,172.786,318.41C172.786,318.41,206.645,343.8,205.655,387.066Z" transform="translate(-168.354 -153.724)"/><path class="g" d="M205.655,507.436S169.1,491.274,172.786,438.78C172.786,438.78,206.645,464.135,205.655,507.436Z" transform="translate(-168.354 -183.099)"/><path class="g" d="M200.136,251.046S163.6,234.884,167.267,182.39C167.267,182.39,201.126,207.745,200.136,251.046Z" transform="translate(-167.008 -120.53)"/><rect class="h" width="14.794" height="4.558" transform="translate(33.324 28.507)"/><rect class="h" width="14.794" height="4.558" transform="translate(33.309 74.145)"/><rect class="h" width="14.794" height="4.558" transform="translate(32.954 177.379)"/><rect class="h" width="14.794" height="4.558" transform="translate(32.954 227.416)"/><rect class="h" width="14.794" height="4.558" transform="translate(33.309 285.451)"/><rect class="h" width="14.794" height="4.558" transform="translate(32.954 128.793)"/></g><path class="i" d="M179.44,163H494.615a7.424,7.424,0,0,1,7.424,7.424h0a7.424,7.424,0,0,1-7.424,7.424H179.44Z" transform="translate(-85.718 -69.293)"/><rect class="i" width="322.599" height="14.84" rx="7.42" transform="translate(139.806 124.202)"/><rect class="i" width="322.599" height="14.84" rx="7.42" transform="translate(94.274 146.42) rotate(90)"/><rect class="i" width="322.599" height="14.84" rx="7.42" transform="translate(63.763 282.221) rotate(90)"/><path class="j" d="M0,108.87H315.175a7.424,7.424,0,0,1,7.424,7.424h0a7.424,7.424,0,0,1-7.424,7.424H0Z" transform="translate(-41.928 -56.083)"/><rect class="j" width="322.599" height="14.84" rx="7.42" transform="translate(32.958 31.249)"/><ellipse class="k" cx="31.199" cy="40.565" rx="31.199" ry="40.565" transform="translate(273.135 175.215)"/><path class="l" d="M502.236,288.8c-6.237,16.828-24.947,19.912-40.905,19.217s-20.109-27.041-20.109-27.041-23.578-25.65-31.2,0-43.687,27.041-43.687,27.041a95.093,95.093,0,0,1,7.628-40.217c9.011-20.8,41.17-19.413,41.17-19.413v-.136c.249-1.459,3.024-14.3,23.291-12.345,21.492,2.086,35.364,33.671,35.364,33.671C484.9,293.532,502.236,288.8,502.236,288.8Z" transform="translate(-115.843 -87.035)"/><path class="m" d="M444.022,293.16S421.479,256.284,410,285.026c-10.228,25.657-43.687,27.041-43.687,27.041a95.092,95.092,0,0,1,7.628-40.217c9.011-20.8,41.17-19.413,41.17-19.413V252.3C427.149,257.274,448.558,276.075,444.022,293.16Z" transform="translate(-115.838 -91.086)"/><path class="k" d="M451.37,359.192l14.3,57.544,30.511-10.4L475.024,348.79Z" transform="translate(-152.079 -114.633)"/><ellipse class="k" cx="10.893" cy="8.384" rx="10.893" ry="8.384" transform="translate(325.4 212.619) rotate(-75.18)"/><path class="n" d="M408.47,450.98l-49.16,62.805,20.721,18.725L428.9,476.668Z" transform="translate(-129.613 -139.572)"/><path class="o" d="M431.013,395.943s-23.571,8.482-22.875,27.895l-6.244,11.793s-5.549,15.875,14.56,23.2l25.068,87.737,89.339-40.905L490.643,439.1l34.668-15.255s-22.21-36.755-32.589-38.138-22.187-3.47-33.973,0l-12.7,21.492Z" transform="translate(-124.359 -123.179)"/><path class="p" d="M278.78,529.7l54.119,4.165-20.282,26-33.837-8.142Z" transform="translate(-109.961 -158.782)"/><path class="q" d="M190.25,669.683l13,48.026-8.89,20.8s-4.112,10.742,2.389,7.8c10.047-4.536,7.015-7.8,9.072-6.244s.658,14.492,4.679,18.393c2.888,2.8,8.739,6.736,15.081,1.958a14.742,14.742,0,0,0,5.715-11.8V743.17a7.892,7.892,0,0,0,4.952,2.449,1.875,1.875,0,0,0,1.882-2.6L226.619,716.56l-10-47.21Z" transform="translate(-72.881 -192.862)"/><rect class="r" width="188.937" height="20.804" rx="10.402" transform="translate(486.346 291.829) rotate(90)"/><rect class="r" width="155.577" height="11.634" rx="5.817" transform="translate(503.537 308.521) rotate(90)"/><rect class="r" width="189.739" height="14.877" rx="7.439" transform="translate(445.577 327.39)"/><rect class="r" width="166.523" height="138.764" rx="16.79" transform="translate(468.793 342.01)"/><path class="o" d="M285.075,629.313s4.536-25.786-40.9-39.151c0,0-19.421-28.454-52.161-23.767s-22.921-24.554-42.644-14.046-60.1,13.69-31.622,52.849,41.858,11.483,41.858,11.483L217.477,633.1l56.7,7.114Z" transform="translate(-52.785 -163.749)"/><rect class="s" width="510.667" height="21.84" rx="10.92" transform="translate(73.168 457.997)"/><ellipse class="q" cx="9.465" cy="11.869" rx="9.465" ry="11.869" transform="translate(154.928 354.174) rotate(-75.18)"/><ellipse class="q" cx="32.695" cy="40.565" rx="32.695" ry="40.565" transform="translate(100.782 398.757) rotate(-75.18)"/><path class="t" d="M188.421,447.45a3.605,3.605,0,0,0-.839-.31c-46.484-10.583-65.6,29.263-64.045,43.233s-7.3,21.348-25.446,36.43c-16.4,13.607-5.783,37.722-3.515,42.334a2.873,2.873,0,0,1,.34,1.739c-5.141,26.451-12.02,38.7-16.261,40.981a3.583,3.583,0,0,0-1.965,3.273c.318,7.492,4.536,13.229,9.661,17.463a13.957,13.957,0,0,1-9.661,8.618s7.038,6.161,14.817-4.944a58.55,58.55,0,0,0,5.443,2.926,14.006,14.006,0,0,1-10.077,9.827s7.968,6.978,16.314-7.28l.915.3a3.365,3.365,0,0,1,1.3.756c25.5,23.646-2.933,41.064-2.933,41.064,17.947-8.845,26.27-16.631,20.547-40.565-5.443-22.762,23.011-43.173,25.786-45.093a3.7,3.7,0,0,0,.423-.348c2.442-2.381,8.111-12.625,3.954-15.4-18.529-12.352-36.861,1.6-39.635.212a3.486,3.486,0,0,1-.756-.476c-24.947-21.288.393-49.138,21.628-46.537s34.321-1.565,38.486-27.562c2.086-13.055,5.088-17.463,7.56-18.619a3.477,3.477,0,0,1,4.664,2.139c1.005,2.858,5.7,8.784,27.5-3.281C238.5,474.029,193.229,449.929,188.421,447.45Z" transform="translate(-45.168 -138.203)"/><path class="q" d="M314.428,516.065s-26.005-15.747-54.6,24.3l-73.941,52.411a23.571,23.571,0,0,0-9.7,14.953c-1.21,6.705.491,14.257,13.229,15.989a14.431,14.431,0,0,0,9.888-2.268l65.2-42.81s23.646,17.077,36.951,32.967c12.889,15.429,41.041-90.64,39.174-90.987C319.788,516.722,314.428,516.065,314.428,516.065Z" transform="translate(-69.37 -154.71)"/><path class="u" d="M328.729,603.944l14.514-30.594L312.65,593.58Z" transform="translate(-118.226 -169.434)"/><path class="v" d="M356.137,517.92s7.877,27.109-11.339,46.87c0,0-19.889,19.406-19.988,30.9-.121,14.87,16.518,17.637,16.518,17.637L458.585,616.1,675.878,613.9S651.09,576.333,615.2,571.57L571,548.809s-35.938-19.474-66.328-11.377-81.772,7.915-81.772,7.915S401.306,526.7,356.137,517.92Z" transform="translate(-105.719 -155.907)"/><path class="o" d="M571.389,620.069s-16.518-6.358,6.675-25.249C578.065,594.82,588.429,619.011,571.389,620.069Z" transform="translate(-164.503 -174.674)"/><path class="o" d="M570.3,631.254s-17.259-3.855-8.429,24.712C561.868,655.966,583.9,641.6,570.3,631.254Z" transform="translate(-162.957 -183.523)"/><path class="o" d="M560.961,626.42s3.47-17.387-24.9-7.87C536.015,618.551,550.922,640.247,560.961,626.42Z" transform="translate(-157.272 -179.77)"/><path class="o" d="M576.345,627.8s-2.268,17.553,25.393,6.116C601.776,633.918,585.364,613.311,576.345,627.8Z" transform="translate(-167.093 -181.463)"/><circle class="w" cx="4.112" cy="4.112" r="4.112" transform="translate(402.192 443.233)"/><path class="o" d="M219.676,489.638s-17.591-1.92,0-26.118C219.676,463.52,235.884,484.294,219.676,489.638Z" transform="translate(-78.154 -142.632)"/><path class="o" d="M220.849,500.91s-17.682.688-1.822,26.05C219.028,526.96,236.641,507.4,220.849,500.91Z" transform="translate(-78.292 -151.756)"/><path class="o" d="M210.081,498.112S209,480.446,184,496.873C184,496.873,203.942,514.041,210.081,498.112Z" transform="translate(-71.356 -149.065)"/><path class="o" d="M225.55,496.089s2.313,17.546,26.111-.582C251.661,495.506,230.562,479.767,225.55,496.089Z" transform="translate(-81.496 -148.772)"/><circle class="w" cx="4.112" cy="4.112" r="4.112" transform="translate(137.349 344.935)"/><path class="w" d="M707.54,615.63a21.483,21.483,0,1,1-42.965,0" transform="translate(-188.635 -179.752)"/><path class="x" d="M689.043,605.315s19.731-.756,4.747-27.789a3.311,3.311,0,0,0-5.571-.363C683.04,584.269,674.483,599.328,689.043,605.315Z" transform="translate(-192.635 -170.035)"/><path class="y" d="M690.83,609.794s10.349-.4,2.487-14.582a1.739,1.739,0,0,0-2.918-.189C687.655,598.764,683.195,606.649,690.83,609.794Z" transform="translate(-194.007 -174.551)"/><rect class="z" width="32.937" height="34.789" rx="6.27" transform="translate(361.665 423.215)"/><rect class="aa" width="21.031" height="3.893" transform="translate(367.108 419.322)"/><rect class="ab" width="24.614" height="4.43" transform="translate(365.596 414.892)"/><path class="ac" d="M524.1,583.692l-1.27-9.48s-1.391-2.767,3.7-3.462h10.977a3.432,3.432,0,0,1,2.54,4.536,58.215,58.215,0,0,0-1.512,8.437Z" transform="translate(-154.002 -168.8)"/><rect class="ad" width="9.941" height="25.998" rx="4.97" transform="translate(365.596 427.834)"/><rect class="ae" width="9.941" height="9.941" rx="4.97" transform="translate(365.596 427.834)"/><rect class="aa" width="12.307" height="4.43" transform="translate(365.596 414.892)"/><ellipse class="af" cx="16.442" cy="6.69" rx="16.442" ry="6.69" transform="translate(255.033 204.303) rotate(-66.13)"/><ellipse class="ag" cx="22.21" cy="8.27" rx="22.21" ry="8.27" transform="translate(86.166 353.178) rotate(-66.13)"/><ellipse class="af" cx="5.647" cy="4.74" rx="5.647" ry="4.74" transform="translate(275.24 179.222) rotate(-66.13)"/><ellipse class="ah" cx="5.647" cy="4.74" rx="5.647" ry="4.74" transform="translate(87.282 370.598) rotate(-66.13)"/><rect class="ai" width="39.522" height="89.052" transform="translate(524.371 369.013)"/><rect class="aj" width="12.012" height="89.052" transform="translate(552.636 369.013)"/><rect class="ak" width="9.827" height="89.052" transform="translate(524.371 369.013)"/><path class="al" d="M768.908,527.175v28.832l-.756.756-.575.575c-5.662,5.662-10.629-1.27-10.629-1.27V541.4a.311.311,0,0,0-.053-.083c-3.568-5.987-7.227.544-7.227.544v16.525c-3.583,5.662-6.705-.582-6.705-.582s.7-10.394,0-14.212c-.628-3.432-3.863-4.989-4.536-5.292l-.113-.045c-4.279.975-7.431-.983-9.714-3.931V527.16Z" transform="translate(-204.259 -158.162)"/><rect class="am" width="6.237" height="19.103" rx="3.118" transform="translate(526.17 390.165)"/><rect class="al" width="6.237" height="6.237" rx="3.118" transform="translate(539.989 410.213)"/><circle class="an" cx="34.653" cy="34.653" r="34.653" transform="translate(510.197 299.767)"/><path class="v" d="M748.744,505.1s35.53-1.376,5.02-51.678a1.724,1.724,0,0,0-2.8-.212c-3.606,4.392-12.436,16.019-15.036,27.57l-6.259-3.2a.711.711,0,0,0-1.043.627c0,3.954.491,16.85,7.424,19.443l1.845,1.852C740.02,502.459,743.664,504.009,748.744,505.1Z" transform="translate(-204.264 -139.963)"/><path class="y" d="M752.55,515.257s14.061-.544,3.379-19.821a2.359,2.359,0,0,0-3.969-.257C748.271,500.266,742.163,510.978,752.55,515.257Z" transform="translate(-208.698 -150.122)"/><path class="ag" d="M132.072,529.7s-37.458,21.129-31.894,50.347C100.178,580.047,100.745,552.817,132.072,529.7Z" transform="translate(-50.763 -158.782)"/><path class="ag" d="M123.933,634.69S95.886,650.512,100.044,672.4C100.044,672.4,100.468,652,123.933,634.69Z" transform="translate(-50.765 -184.404)"/><path class="ag" d="M153.463,636.05s-38.418,14.59-31.894,50.347C121.584,686.4,129.106,661.224,153.463,636.05Z" transform="translate(-55.939 -184.736)"/><g class="ao" transform="translate(415.724 195.973)"><rect width="188.937" height="20.804" rx="10.402" transform="translate(0 41.858)"/><rect width="162.244" height="20.804" rx="10.402" transform="translate(21.288 20.933)"/><rect width="153.679" height="20.804" rx="10.402" transform="translate(29.853)"/></g><rect class="g" width="120.644" height="20.925" rx="10.463" transform="translate(471.915 206.375)"/><rect class="g" width="120.644" height="20.925" rx="10.463" transform="translate(472.255 227.3)"/><line class="ap" x2="99.152" transform="translate(482.853 216.838)"/><line class="ap" x2="99.152" transform="translate(482.853 237.77)"/><path class="n" d="M493.041,454.828l28.333-12.458L541.6,480.924s19.413,23.828-8.316,34.918l-77.675,32.589s-28.47,20.109-41.276-2.774,15.626-22.187,15.626-22.187,5.753-3.462,13.97,3.47l71.06-35.772Z" transform="translate(-126.757 -137.47)"/><circle class="aq" cx="71.068" cy="71.068" r="71.068" transform="translate(234.565 -23.18)"/><circle class="aq" cx="17.682" cy="17.682" r="17.682" transform="translate(317.048 55.168)"/></g></g></g></svg>