<svg xmlns="http://www.w3.org/2000/svg" width="627.68" height="415.088" viewBox="0 0 627.68 415.088"><defs><style>.a{fill:#caa6ee;}.b{fill:#ee505d;opacity:0.63;}.c{fill:#fda819;opacity:0.66;}.d{fill:#fff;}.e{opacity:0.12;}.f{fill:#8922e1;}.g{fill:#020202;}.h{fill:#d1d3d4;}.i{fill:#f1f2f2;stroke:#caa6ee;stroke-miterlimit:10;}.j{opacity:0.74;}.k{fill:#a8e5c8;}.l{fill:#373737;}</style></defs><g transform="translate(-54.78)"><g transform="translate(0 0)"><circle class="a" cx="123.635" cy="123.635" r="123.635" transform="translate(435.19)"/><circle class="b" cx="57.916" cy="57.916" r="57.916" transform="translate(54.78 218.591)"/><circle class="a" cx="167.483" cy="167.483" r="167.483" transform="translate(94.008 80.122)"/><circle class="c" cx="48.781" cy="48.781" r="48.781" transform="translate(483.81 311.422)"/><rect class="d" width="332.451" height="305.444" transform="translate(187.668 54.759)"/><rect class="d" width="332.451" height="238.261" transform="translate(187.668 54.759)"/><g class="e" transform="translate(273.998 263.526)"><circle class="f" cx="6.494" cy="6.494" r="6.494" transform="translate(198.859 64.674)"/><circle class="f" cx="6.494" cy="6.494" r="6.494" transform="translate(198.294 32.337)"/><circle class="f" cx="6.494" cy="6.494" r="6.494" transform="translate(163.825 32.936)"/><circle class="f" cx="6.494" cy="6.494" r="6.494" transform="translate(129.356 33.536)"/><circle class="f" cx="6.494" cy="6.494" r="6.494" transform="translate(94.886 34.142)"/><circle class="f" cx="6.494" cy="6.494" r="6.494" transform="translate(65.371 34.657)"/><circle class="f" cx="6.494" cy="6.494" r="6.494" transform="translate(28.881 35.48)"/><circle class="f" cx="6.494" cy="6.494" r="6.494" transform="translate(0 35.8)"/><circle class="f" cx="6.494" cy="6.494" r="6.494" transform="translate(197.73)"/><circle class="f" cx="6.494" cy="6.494" r="6.494" transform="translate(164.682 0.571)"/><circle class="f" cx="6.494" cy="6.494" r="6.494" transform="translate(165.811 65.253)"/><circle class="f" cx="6.494" cy="6.494" r="6.494" transform="translate(132.763 65.824)"/><circle class="f" cx="6.494" cy="6.494" r="6.494" transform="translate(99.715 66.402)"/><circle class="f" cx="6.494" cy="6.494" r="6.494" transform="translate(66.66 66.981)"/><circle class="f" cx="6.494" cy="6.494" r="6.494" transform="translate(33.612 67.559)"/><circle class="f" cx="6.494" cy="6.494" r="6.494" transform="translate(0.564 68.137)"/></g><rect class="f" width="332.451" height="88.636" transform="translate(187.668 54.759)"/><path class="g" d="M388.969,96.468c-1.052,0-2.139,0-3.275-.111a3.875,3.875,0,1,1,.488-7.734c17.614,1.115,18.987-8.2,19.44-11.267a19.022,19.022,0,0,0-13.106-20.847C377.8,51.986,367.724,69.35,367.627,69.531a3.876,3.876,0,0,1-6.738-3.832c4.522-7.957,17.419-21.663,33.9-16.6a26.833,26.833,0,0,1,18.5,29.4C412.269,85.362,407.719,96.468,388.969,96.468Z" transform="translate(-109.278 -14.556)"/><path class="g" d="M486.069,92.282c-1.045,0-2.139,0-3.275-.111a3.875,3.875,0,0,1,.488-7.734c17.586,1.115,18.987-8.2,19.44-11.267A19.029,19.029,0,0,0,489.616,52.3c-14.632-4.494-24.478,12.312-24.889,13.03a3.876,3.876,0,1,1-6.738-3.832c4.522-7.957,17.419-21.663,33.9-16.6a26.826,26.826,0,0,1,18.5,29.4C509.4,81.175,504.819,92.282,486.069,92.282Z" transform="translate(-138.721 -13.282)"/><path class="g" d="M581.991,92.282c-1.045,0-2.139,0-3.275-.111a3.875,3.875,0,0,1,.488-7.734c17.593,1.115,18.98-8.2,19.44-11.267A19.036,19.036,0,0,0,585.537,52.3c-14.632-4.494-24.485,12.312-24.9,13.03a3.874,3.874,0,0,1-6.731-3.832c4.515-7.957,17.419-21.663,33.9-16.6a26.833,26.833,0,0,1,18.5,29.4C605.291,81.175,600.741,92.282,581.991,92.282Z" transform="translate(-167.823 -13.282)"/><path class="g" d="M670.47,92.282c-1.045,0-2.139,0-3.275-.111a3.875,3.875,0,0,1,.488-7.734c17.594,1.115,18.987-8.2,19.44-11.267A19.029,19.029,0,0,0,674.037,52.3c-14.632-4.494-24.478,12.312-24.9,13.03a3.874,3.874,0,0,1-6.731-3.832c4.522-7.957,17.419-21.663,33.9-16.6a26.826,26.826,0,0,1,18.5,29.4C693.77,81.175,689.22,92.282,670.47,92.282Z" transform="translate(-194.658 -13.282)"/><rect class="h" width="4.647" height="305.444" transform="translate(202.893 54.759)"/><rect class="h" width="4.647" height="305.444" transform="translate(219.957 54.759)"/><rect class="h" width="4.647" height="305.444" transform="translate(236.693 54.759)"/><path class="i" d="M404.44,395.385l238.9.453c49.756-8.528,38.385-57.957,38.385-57.957h-226.3c-10.208,60.752-50.983,57.5-50.983,57.5-49.108,4.975-61.4-40.064-61.4-40.064S355.122,397.287,404.44,395.385Z" transform="translate(-104.019 -102.455)"/><circle class="f" cx="6.494" cy="6.494" r="6.494" transform="translate(273.009 182.916)"/><circle class="f" cx="6.494" cy="6.494" r="6.494" transform="translate(273.009 215.261)"/><circle class="f" cx="6.494" cy="6.494" r="6.494" transform="translate(307.485 215.261)"/><circle class="f" cx="6.494" cy="6.494" r="6.494" transform="translate(341.962 215.261)"/><circle class="f" cx="6.494" cy="6.494" r="6.494" transform="translate(376.438 215.261)"/><circle class="f" cx="6.494" cy="6.494" r="6.494" transform="translate(405.953 215.261)"/><circle class="f" cx="6.494" cy="6.494" r="6.494" transform="translate(442.45 215.073)"/><circle class="f" cx="6.494" cy="6.494" r="6.494" transform="translate(471.331 215.261)"/><circle class="f" cx="6.494" cy="6.494" r="6.494" transform="translate(273.009 247.605)"/><circle class="f" cx="6.494" cy="6.494" r="6.494" transform="translate(306.064 247.605)"/><circle class="f" cx="6.494" cy="6.494" r="6.494" transform="translate(306.064 182.916)"/><circle class="f" cx="6.494" cy="6.494" r="6.494" transform="translate(339.119 182.916)"/><circle class="f" cx="6.494" cy="6.494" r="6.494" transform="translate(372.174 182.916)"/><circle class="f" cx="6.494" cy="6.494" r="6.494" transform="translate(405.221 182.916)"/><circle class="f" cx="6.494" cy="6.494" r="6.494" transform="translate(438.276 182.916)"/><circle class="f" cx="6.494" cy="6.494" r="6.494" transform="translate(471.331 182.916)"/><g class="j" transform="translate(70.52 228.416)"><path class="d" d="M143.386,412.171A42.176,42.176,0,1,1,185.561,370a42.176,42.176,0,0,1-42.176,42.176Zm0-80.47a38.322,38.322,0,1,0,38.322,38.322A38.322,38.322,0,0,0,143.386,331.7Z" transform="translate(-101.21 -327.82)"/></g><g class="j" transform="translate(98.942 259.011)"><path class="d" d="M156.911,399.009,142,384.711l2.683-2.794,12.187,11.678L178.9,371.73l2.731,2.752Z" transform="translate(-142 -371.73)"/></g><circle class="k" cx="28.15" cy="28.15" r="28.15" transform="translate(615.068 302.357)"/><path class="l" d="M909.621,482.049l-14.911-14.3,2.676-2.8,12.187,11.685,22.039-21.865,2.724,2.745Z" transform="translate(-271.301 -137.899)"/><path class="f" d="M216.464,84.968h-14.59a3.874,3.874,0,1,1,0-7.748h14.59a3.874,3.874,0,0,1,0,7.748Z" transform="translate(-60.039 -23.415)"/><path class="f" d="M231.469,60.424a3.867,3.867,0,0,1-2.327-.746L210.008,45.228a3.874,3.874,0,1,1,4.662-6.188L233.8,53.456a3.874,3.874,0,0,1-2.334,6.968Z" transform="translate(-63.212 -11.601)"/><path class="f" d="M258.159,49.385a3.874,3.874,0,0,1-3.881-3.874V29.039a3.881,3.881,0,1,1,7.755,0V45.511A3.874,3.874,0,0,1,258.159,49.385Z" transform="translate(-77.103 -7.579)"/><path class="f" d="M832.379,413.4l5.825,13.378a3.876,3.876,0,0,0,7.107-3.094l-5.825-13.378a3.876,3.876,0,0,0-7.107,3.094Z" transform="translate(-252.303 -123.71)"/><path class="f" d="M842.358,390.538A3.854,3.854,0,0,0,844,392.363l20.847,11.782a3.875,3.875,0,1,0,3.818-6.745l-20.854-11.789a3.874,3.874,0,0,0-5.456,4.926Z" transform="translate(-255.328 -116.776)"/><path class="f" d="M844.26,366.777a3.888,3.888,0,0,0,5.1,2.007l15.106-6.577a3.876,3.876,0,0,0-3.094-7.107l-15.106,6.578a3.881,3.881,0,0,0-2.007,5.1Z" transform="translate(-255.906 -107.578)"/><path class="d" d="M783.053,232.053A88.837,88.837,0,0,1,725.286,210.7a3.874,3.874,0,1,1,5.035-5.889,80.826,80.826,0,1,0-24.213-35.974,3.875,3.875,0,0,1-7.351,2.453,88.831,88.831,0,1,1,84.309,60.765Z" transform="translate(-210.501 -16.493)"/><path class="d" d="M669.314,266.553a3.874,3.874,0,0,1-3.386-5.755l24.387-43.966a3.877,3.877,0,1,1,6.78,3.763l-20.673,37.284,42.176-5.3a3.874,3.874,0,0,1,.969,7.664l-49.75,6.271A3.813,3.813,0,0,1,669.314,266.553Z" transform="translate(-201.78 -65.144)"/><path class="d" d="M804.487,239.989c-2.16,0-4.424-.1-6.8-.327-14.235-1.394-26.01-9.455-34.044-23.384a70.214,70.214,0,0,1-7.79-20.436,3.9,3.9,0,0,1,7.665-1.394,63.183,63.183,0,0,0,6.968,18.116c6.8,11.748,16.207,18.228,27.954,19.377,27.683,2.662,37.458-13.385,37.856-14.068a3.883,3.883,0,0,1,6.738,3.86C842.545,222.535,832.246,239.989,804.487,239.989Z" transform="translate(-229.177 -57.992)"/><path class="d" d="M878.021,230.9a3.488,3.488,0,0,1-.327-.314l-18.646-20.569a3.533,3.533,0,0,1,1.874-5.839l27.174-5.867a3.54,3.54,0,0,1,4.118,4.543l-8.487,26.436a3.547,3.547,0,0,1-5.672,1.61Zm-9.608-21.1,10.41,11.483,2.369-7.372h0l2.369-7.386Z" transform="translate(-260.207 -60.11)"/><path class="d" d="M817.469,112.876c2.167.042,4.431.181,6.8.453,14.207,1.617,25.836,9.9,33.626,23.969a70.121,70.121,0,0,1,7.435,20.569,3.882,3.882,0,1,1-7.665,1.24A63.218,63.218,0,0,0,851,140.865c-6.612-11.845-15.9-18.506-27.613-19.837-27.634-3.135-37.688,12.737-38.1,13.413a3.876,3.876,0,0,1-6.654-3.979C779.118,129.682,789.723,112.395,817.469,112.876Z" transform="translate(-235.936 -34.224)"/><path class="d" d="M766.894,127.518a2.734,2.734,0,0,1,.313.321l18.29,20.9a3.54,3.54,0,0,1-1.979,5.8l-27.237,5.393a3.54,3.54,0,0,1-4.034-4.613l8.947-26.282a3.54,3.54,0,0,1,5.7-1.512Zm9.239,21.259-10.18-11.664-2.495,7.337h0l-2.5,7.337Z" transform="translate(-228.046 -38.401)"/></g></g></svg>