<svg version="1.1" id="Layer_1" xmlns="http://www.w3.org/2000/svg" x="0" y="0" viewBox="0 0 1000 950.2" style="enable-background:new 0 0 1000 950.2" xml:space="preserve"><style>.st2{fill:#95d8b2}.st3{fill:#f7ffff}.st4{fill:#79b27e}.st5{fill:#fcfefd}.st8{fill:#fff}.st10{fill:#1a2c36}.st11,.st12,.st13{opacity:.47;fill:#fafeff}.st12,.st13{opacity:.75}.st13{opacity:.17}.st14{fill:#faad73}.st17{fill:#fafeff}</style><circle cx="499.9" cy="475.7" r="465.6" style="opacity:.46;fill:#cfb5f6"/><circle cx="499.9" cy="475.7" r="430.1" style="fill:#cfb5f6"/><path class="st2" d="M329.1 664.4S-35.3 518.7 107.9 465.9s262.4 199.3 262.4 199.3l-41.2-.8z"/><path class="st3" d="M118.1 489.8c-1.2 2.3-1.9 4.7-2.4 7.2s-.8 5-.8 7.5c0 5.1 1 10.1 2.8 14.8 1.8 4.7 4.3 9.1 7.2 13.2.4.5.7 1 1.1 1.5l1.2 1.5c.8 1 1.6 2 2.4 2.9l2.5 2.8 2.7 2.7c.9.9 1.8 1.7 2.8 2.6 1 .8 1.9 1.7 2.9 2.5l3 2.4 1.5 1.2 1.5 1.1c2 1.5 4.1 3 6.2 4.4l3.2 2.1c1.1.7 2.2 1.3 3.2 2 8.7 5.3 17.7 9.9 26.9 14.1l55.8 25.4 27.9 12.6c9.3 4.2 18.6 8.4 28.1 12.2-4.9-1.6-9.6-3.4-14.4-5.2-4.8-1.8-9.5-3.7-14.3-5.6-9.5-3.8-18.9-7.8-28.3-11.8-9.4-4-18.7-8.1-28.1-12.2l-28-12.5c-9.3-4.3-18.5-9-27.2-14.5-1.1-.7-2.2-1.3-3.3-2.1l-3.2-2.2c-2.2-1.4-4.2-3-6.3-4.5l-1.5-1.2-1.5-1.2-3-2.5c-1-.8-1.9-1.7-2.9-2.6-.9-.9-1.9-1.7-2.8-2.7l-2.7-2.8-2.5-2.9c-.9-1-1.6-2-2.4-3l-1.2-1.5c-.4-.5-.7-1.1-1.1-1.6-2.9-4.3-5.3-8.9-7-13.8-1.6-4.9-2.5-10.1-2.2-15.3.4-5.4 1.6-10.5 4.2-15z"/><path class="st4" d="M276 585S102.1 389.1 110.4 309.1c0 0-22.6-96.2 31.8-80s86.7 60 91.1 80c4.4 20 54.4 195 57.4 229.6 2.9 34.6-4.9 66.2-4.9 66.2L276 585z"/><path class="st5" d="M148.2 282.1c4.9 10 9.7 20.1 14.6 30.1l14.4 30.2c9.6 20.2 19 40.4 28.5 60.6 9.4 20.3 18.8 40.5 28.1 60.8l13.9 30.4c4.6 10.2 9.2 20.3 13.7 30.5-4.9-10-9.7-20.1-14.6-30.1l-14.4-30.2c-9.6-20.2-19-40.4-28.5-60.6-9.4-20.3-18.8-40.5-28.1-60.8l-13.9-30.4c-4.6-10.2-9.2-20.3-13.7-30.5z"/><path class="st2" d="M681.6 678.2s350.1-177.3 202.8-217.3-243.7 221.7-243.7 221.7l40.9-4.4z"/><path class="st3" d="M876.4 485.7c2.9 4.2 4.6 9.2 5.3 14.3.7 5.1.3 10.4-.9 15.4s-3.2 9.9-5.7 14.4c-.3.6-.6 1.1-.9 1.7l-1 1.6c-.7 1.1-1.4 2.2-2.1 3.2l-2.3 3.1-2.4 3c-.8 1-1.7 2-2.5 2.9-.9.9-1.7 1.9-2.6 2.9l-2.7 2.7-1.4 1.4-1.4 1.3c-1.9 1.7-3.8 3.5-5.8 5.1l-3 2.4c-1 .8-2 1.6-3.1 2.3-8.2 6.2-16.9 11.7-25.8 16.8l-26.7 15c-9 4.9-17.9 9.9-26.9 14.7-9 4.8-18 9.6-27.1 14.3-4.6 2.3-9.1 4.6-13.7 6.9-4.6 2.3-9.2 4.5-13.9 6.5 9.1-4.6 18-9.6 26.9-14.6l26.7-15 53.3-30.2c8.8-5 17.4-10.4 25.6-16.5 1-.8 2.1-1.5 3.1-2.3l3-2.4c2-1.5 3.9-3.2 5.8-4.9l1.4-1.2 1.4-1.3 2.7-2.6c.9-.9 1.7-1.8 2.6-2.7.9-.9 1.8-1.8 2.6-2.8l2.5-2.9 2.3-3c.8-1 1.5-2.1 2.2-3.1l1.1-1.6c.3-.5.6-1.1 1-1.6 2.6-4.3 4.7-8.9 6-13.8 1.4-4.8 2-9.9 1.5-15-.2-2.5-.7-5-1.4-7.4-1.4-2.4-2.3-4.8-3.7-7z"/><path class="st4" d="M711.9 604.9S885.8 409 877.5 329c0 0 22.6-96.2-31.8-80-54.4 16.2-86.7 60-91.1 80s-54.4 195-57.4 229.6 4.9 66.2 4.9 66.2l9.8-19.9z"/><path class="st5" d="M839.8 301.9c-4.5 10.2-9.1 20.4-13.7 30.5l-13.9 30.4c-9.3 20.3-18.7 40.5-28.1 60.8-9.5 20.2-18.9 40.4-28.5 60.6l-14.4 30.2c-4.9 10-9.7 20.1-14.6 30.1 4.5-10.2 9.1-20.4 13.7-30.5l13.9-30.4c9.3-20.3 18.7-40.5 28.1-60.8 9.5-20.2 18.9-40.4 28.5-60.6l14.4-30.2c4.8-10 9.6-20.1 14.6-30.1z"/><ellipse cx="499.9" cy="762.2" rx="316.1" ry="70.7" style="opacity:.22;fill:#1a2c36"/><circle cx="507.4" cy="425.8" r="311.4" style="fill:#feac02"/><path class="st8" d="M507.4 724.8c-2.4 0-4.6-1.2-5.8-3.3L232.2 254.8c-1.2-2.1-1.2-4.6 0-6.7 1.2-2.1 3.4-3.3 5.8-3.3h538.8c2.4 0 4.6 1.2 5.8 3.3 1.2 2.1 1.2 4.6 0 6.7L513.1 721.4c-1.2 2.1-3.3 3.4-5.7 3.4zM238 251.4l134.7 233.4 134.7 233.3 134.8-233.3 134.7-233.3-269.4-.1H238z"/><path class="st8" d="M776.8 600.9c-.1 0-.1 0 0 0l-538.9-5.6c-2.4 0-4.6-1.3-5.7-3.4-1.2-2.1-1.2-4.6.1-6.7l274.2-463.8c1.2-2.1 3.4-3.3 5.7-3.3h.1c2.4 0 4.6 1.3 5.7 3.4l264.5 469.4c1.2 2.1 1.2 4.6-.1 6.7-1.1 2.1-3.3 3.3-5.6 3.3zM512.2 124.8 375.1 356.7 237.9 588.6l269.4 2.9 269.4 2.8-132.2-234.8-132.3-234.7z"/><g style="opacity:.21"><path class="st10" d="M507.4 681c-2.1 0-3.9-1.1-4.9-2.9L271.9 278.9c-1-1.8-1-3.9 0-5.7 1-1.8 2.9-2.9 4.9-2.9h461.1c2.1 0 3.9 1.1 4.9 2.9 1 1.8 1 3.9 0 5.7L512.3 678.2c-1 1.8-2.9 2.8-4.9 2.8zM276.8 276 392 475.7l115.3 199.7 115.3-199.7L737.9 276H276.8z"/><path class="st10" d="m737.9 575-461.1-4.8c-2.1 0-3.9-1.1-4.9-2.9-1-1.8-1-3.9.1-5.7l234.7-396.9c1-1.8 2.9-2.8 4.9-2.8h.1c2.1 0 3.9 1.1 4.9 2.9L743 566.5c1 1.8 1 3.9-.1 5.7-1.1 1.7-3 2.8-5 2.8zM511.5 167.6 394.1 366 276.8 564.5l230.6 2.4 230.5 2.4-113.2-200.9-113.2-200.8z"/></g><circle class="st11" cx="505.5" cy="401.4" r="111.9"/><circle class="st11" cx="615.8" cy="208.9" r="9.5"/><circle class="st12" cx="421.1" cy="189.9" r="3.5"/><circle class="st12" cx="253" cy="158.4" r="3.5"/><circle class="st12" cx="352.6" cy="301.9" r="3.5"/><circle class="st12" cx="139.7" cy="425.8" r="3.5"/><circle class="st12" cx="105.7" cy="582.5" r="3.5"/><circle class="st12" cx="792.9" cy="222" r="3.5"/><circle class="st12" cx="890.3" cy="391" r="3.5"/><circle class="st12" cx="692.8" cy="377.6" r="3.5"/><circle class="st12" cx="530.7" cy="96.6" r="3.5"/><circle class="st11" cx="692.8" cy="138.5" r="41.9"/><circle class="st11" cx="761.7" cy="62.3" r="52.2"/><circle class="st11" cx="643.3" cy="180.4" r="19.6"/><circle class="st13" cx="222.4" cy="261.4" r="147"/><circle class="st13" cx="181.3" cy="232.1" r="93.5"/><ellipse class="st14" cx="500.3" cy="395" rx="30.4" ry="50.4"/><ellipse class="st14" cx="470.7" cy="395.1" rx="6.7" ry="11.2"/><ellipse class="st14" cx="530.1" cy="397.3" rx="6.7" ry="11.2"/><path class="st10" d="M475.7 385.7s-2.9-17.6 7.4-20.1 21.8 2.1 31.4 0c9.6-2.1 9.8 9.7 9.8 9.7l6.3 15.7s8.9-21 5.4-35.7c-3.4-14.7-13.2-14.2-15.7-24s-19.6-8.3-23.5-3.9-9.6 10.8-21.5 10.8-12.7 23.9-8.9 43.6l3.8 19.7 5.5-15.8z"/><path class="st14" d="M482.5 435.8v46.7s39.4 21.8 48.2 0c8.8-21.8-5.9-23.7-5.9-23.7l-4.9-37.3-37.4 14.3z"/><path d="M458.3 640.3 401 672.7l-61.5 43.4s-68 36.8-7.7 73.5c0 0 25 16.2 97.8-3.7s96.6-5.1 96.6-5.1 95.4 29.4 126.2 22.8 52.2-11.8 33.1-52.2-91.9-98.5-141.2-104.4l-86-6.7z" style="fill:#4570ad"/><path class="st14" d="m494.4 729.3 42.5-6.9s7.5-1.4 13.4-11.6 19.1 0 19.1 0 17.6 17 36.8 24.4c0 0 16.2 14.7 6.6 24.3s-25-8.8-25-8.8-16-4.5-25.3-4.8c-9.3-.3-31.7 4.1-31.7 4.1l-36.4-20.7z"/><path class="st10" d="M469.8 399.2s3 16.9 18 22.3c0 0 9.6-8.6 24.3 0 0 0 18.7-5.4 18.6-30.5l2.4 5.4s0 42.5-13.7 49c0 0-15.8 7.8-31.8 2.2-3.2-1.1-5.8-3.4-7.5-6.3-4.9-8.1-14.4-27-10.3-42.1z"/><path class="st14" d="M536.8 749.9s-17.7 14-10.6 30.9c0 0-37.2-27.2-83.4-27.2 0 0-35.9 11.8-40.3.7-4.4-11 2.9-12.5 23.5-16.9 20.6-4.4 47.1-25 47.1-25s19.8-8.8 26.8 15.4l36.9 22.1zM406.1 421.5l28.7-20s12.5-11.1 18.4-23.6 17.1-25.7 26.2-19.4c0 0-14.5 13-11.6 30.7s-25.1 24-25.1 24L418.6 436l-12.5-14.5zM582.6 435.9s-16.2-15.4-27.9-19.9-23.4-24.4-21.2-33.4c2.2-9-7-13.3-7-13.3s-1.9-8.5 4.2-6.7c6.1 1.8 15.1 7.1 18.1 21 0 0 8.1 12.7 16.9 17.7s33 22.8 33 22.8l-16.1 11.8z"/><path d="M479.7 456.8s-40.4 8.5-55.1 16.6c-14.7 8.1-33.8 2.9-33.8 2.9s41.2-44.9 35.3-44.1c-5.9.7-17.6-16.2-17.6-16.2l-55.1 35.3s-25 20.5-7.4 40.8c17.6 20.3 30.9 31.3 78.7 43.1 0 0 7.4-2.9 14 17.6 6.6 20.6 14.7 91.2 14.7 91.2s44.9 24.3 97.8 5.1L571.8 541s64-6.6 83.8-40.4c19.9-33.8-5.9-43.8-5.9-43.8l-55.1-35.3-16.2 13.7 37.5 47.3s-21.3-.5-31.6 0c0 0-40.7-31.1-59.3-23.7 0 0-4.8 14-23.5 14-.3-.1-17.4 2.7-21.8-16z" style="fill:#fa514b"/><path class="st17" d="m314.1 211.7 2.2 4.5 4.9.7-3.6 3.5.9 4.9-4.4-2.3-4.5 2.3.9-4.9-3.6-3.5 5-.7zM363.2 89.9l2.2 4.4 4.9.7-3.6 3.5.9 4.9-4.4-2.3-4.4 2.3.8-4.9L356 95l5-.7zM670.1 218.5l2.2 4.5 4.9.7-3.6 3.4.9 5-4.4-2.4-4.5 2.4.9-5-3.6-3.4 5-.7zM789.4 394.7l2.2 4.4 4.9.7-3.5 3.5.8 4.9-4.4-2.3-4.4 2.3.8-4.9-3.5-3.5 4.9-.7zM910.3 438.6l2.2 4.5 4.9.7-3.6 3.5.9 4.9-4.4-2.3-4.4 2.3.8-4.9-3.6-3.5 5-.7zM677.2 529.5l2.2 4.5 4.9.7-3.5 3.5.8 4.9-4.4-2.4-4.4 2.4.8-4.9-3.5-3.5 4.9-.7zM261.3 489.8l2.2 4.5 4.9.7-3.5 3.5.8 4.9-4.4-2.3-4.4 2.3.8-4.9-3.5-3.5 4.9-.7zM515.1 225.3l2.2 4.4 5 .8-3.6 3.4.9 4.9-4.5-2.3-4.4 2.3.9-4.9-3.6-3.4 4.9-.8zM91 368.4l2.2 4.5 4.9.7-3.6 3.5.9 4.9-4.4-2.3-4.4 2.3.8-4.9-3.6-3.5 5-.7zM650.9 83.1l2.2 4.4 5 .8-3.6 3.4.8 4.9-4.4-2.3-4.4 2.3.9-4.9-3.6-3.4 4.9-.8z"/></svg>