<svg version="1.1" id="Layer_1" xmlns="http://www.w3.org/2000/svg" x="0" y="0" viewBox="0 0 1000 1000" style="enable-background:new 0 0 1000 1000" xml:space="preserve"><style>.st0{fill:#cfb5f6}.st2{fill:#fff}.st5{fill:#4570ad}.st7{fill:#172433}.st8{fill:#0a0a0a}.st10{fill:none;stroke:#0a0a0a;stroke-miterlimit:10}.st12{fill:#393738}.st13{fill:#243873}.st14{fill:#ff4d53}.st15{fill:#e6e7e8}.st20{fill:#3c3c3e}.st21,.st22{stroke-miterlimit:10}.st21{fill:none;stroke:#fff;stroke-width:3;stroke-linecap:round}.st22{fill:#f88a11;stroke:#939598}.st23{fill:#1a2c36}.st24{fill:#5f31a8}.st27{fill:#23171b}.st32{fill:#a8291a}.st34{fill:#2f2c27}.st41{fill:#2f2f2f}.st42{fill:none;stroke:#d1d3d4;stroke-miterlimit:10}</style><path class="st0" d="M64.3 501.9c-119.9 295.7 98.1 385.9 378.5 385.9s502-46.7 525.4-404.6C986.5 203.4 740.9 53.6 460.4 53.6S169.6 242.1 64.3 501.9z"/><path d="M103.3 495.6c-112.4 277 91.9 361.5 354.6 361.5S928.2 813.4 950.2 478c17.2-262.2-213-402.5-475.7-402.5S202 252.1 103.3 495.6z" style="fill:#7a57bc"/><path class="st2" d="M920.4 477.3c-4.4 66.4-16.5 120.6-35.2 164.8C815.3 807.5 653 833 458.5 833c-201 0-365.6-52.7-362.3-213.1.7-36.3 10.1-78.2 29.5-126.2C218.4 265.3 227.5 99.6 474 99.6s462.5 131.7 446.4 377.7z"/><path d="M740.1 735.7c-3.4-2.7-4.2-7.5-2.1-11.3 4-6.9 13.6-17.5 35.9-20.4 34.1-4.5 46.8 13.4 46.8 13.4s14.1 17.1 0 21.5c-13 4.2-59.5 14-80.6-3.2z" style="fill:#414042"/><ellipse cx="781.9" cy="719.2" rx="34.2" ry="5.1" style="opacity:.51;fill:#0a0a0a"/><path class="st5" d="M761.7 717.4c-17.3-9.6-45.7-35.7-45.6-103.7 0-19.6 4.6-38.9 13.9-56.2 9.6-17.9 25.7-36.5 51.8-40.7 3.4-.6 6.9-.3 10.3.6C808 522 855 557 850.6 628.3c-4.3 69.1-37.2 89.8-63.1 92.5-9.1 1-18 1-25.8-3.4z"/><path d="M746.5 678.1c-2.3-6.3-4.1-12.7-5.7-19.3-1.5-6.5-2.6-13.2-3.3-19.8-.8-6.7-1-13.4-1-20.1.1-6.7.5-13.4 1.2-20.1.8-6.7 2-13.3 3.5-19.8s3.2-13 5.4-19.4c2.1-6.4 4.6-12.6 7.3-18.7 2.8-6.1 5.8-12.1 9.1-17.9-3 6-5.9 12-8.4 18.2-2.5 6.2-4.8 12.4-6.8 18.8-4 12.7-7 25.8-8.5 39-1.6 13.2-1.8 26.6-.6 39.9.6 6.6 1.6 13.2 2.8 19.8 1.3 6.5 3 13 5 19.4z" style="fill:#19303e"/><circle class="st7" cx="550.9" cy="621.5" r="68.3"/><circle class="st7" cx="550.9" cy="621.5" r="61.4"/><circle class="st7" cx="550.9" cy="619.1" r="52.5"/><circle class="st8" cx="550.9" cy="619.1" r="36.7"/><circle cx="550.1" cy="616.6" r="21.1" style="fill:#e0dcdd"/><circle class="st8" cx="550.1" cy="616.6" r="19.8"/><circle class="st10" cx="550.9" cy="619.1" r="47.1"/><circle class="st10" cx="550.9" cy="619.1" r="44.3"/><circle cx="550.1" cy="616.6" r="16.1" style="opacity:.56;fill:#e0dcdd"/><circle class="st10" cx="550.9" cy="619.1" r="41.3"/><path transform="rotate(-6.28 486.613 629.35)" class="st12" d="M483 626.8h7.2v4.8H483z"/><path transform="rotate(-14.557 488.585 637.877)" class="st12" d="M484.9 635.4h7.2v4.8h-7.2z"/><path transform="rotate(-22.347 490.842 645.872)" class="st12" d="M487.6 643.5h6.5v4.8h-6.5z"/><path class="st12" d="M482.6 619.1h7.2v4.8h-7.2z"/><path transform="matrix(.06072 -.9982 .9982 .06072 -155.272 1061.997)" class="st12" d="M484.3 609.9h4.8v7.2h-4.8z"/><path transform="rotate(-83.731 615.084 628.253)" class="st12" d="M612.7 624.6h4.8v7.2h-4.8z"/><path transform="rotate(-75.446 613.205 636.824)" class="st12" d="M610.9 633.2h4.8v7.2h-4.8z"/><path transform="rotate(-67.654 610.902 644.92)" class="st12" d="M608.5 641.6h4.8v6.5h-4.8z"/><path class="st12" d="M611.9 618.2h7.2v4.8h-7.2z"/><path transform="matrix(.9982 -.06072 .06072 .9982 -36.06 38.478)" class="st12" d="M611.5 610.2h7.2v4.8h-7.2z"/><path transform="rotate(-47.242 597.577 666.141)" class="st12" d="M595.2 662.5h4.8v7.2h-4.8z"/><path transform="rotate(-38.956 590.975 671.918)" class="st12" d="M588.6 668.3h4.8v7.2h-4.8z"/><path transform="rotate(-31.163 584.328 677.026)" class="st12" d="M581.9 673.8h4.8v6.5h-4.8z"/><path transform="rotate(-53.511 602.51 660.183)" class="st12" d="M600.1 656.6h4.8v7.2h-4.8z"/><path transform="rotate(-56.995 606.882 653.524)" class="st12" d="M604.5 649.9h4.8v7.2h-4.8z"/><path transform="rotate(-9.009 560.7 685.296)" class="st12" d="M558.5 681.8h4.8v7.2h-4.8z"/><path transform="rotate(-.725 552.01 685.948) scale(.99998)" class="st12" d="M549.7 682.3h4.8v7.2h-4.8z"/><path transform="rotate(-82.929 543.674 685.81)" class="st12" d="M540.4 683.4h6.5v4.8h-6.5z"/><path transform="rotate(-15.277 568.378 683.852)" class="st12" d="M566 680.2h4.8v7.2H566z"/><path transform="rotate(-18.755 575.982 681.257)" class="st12" d="M573.6 677.7h4.8v7.2h-4.8z"/><path transform="rotate(-62.987 519.643 677.856)" class="st12" d="M516.1 675.5h7.2v4.8h-7.2z"/><path transform="rotate(-54.697 512.309 673.1)" class="st12" d="M508.7 670.7h7.2v4.8h-7.2z"/><path transform="rotate(-46.906 505.593 668.096)" class="st12" d="M502.3 665.7h6.5v4.8h-6.5z"/><path transform="rotate(-37.203 499.532 661.08)" class="st12" d="M495.9 658.7h7.2v4.8h-7.2z"/><path transform="rotate(-28.919 494.81 653.631)" class="st12" d="M491.5 651.2h6.5v4.8h-6.5z"/><path transform="rotate(-69.256 526.722 681.651)" class="st12" d="M523.3 679.3h6.9v4.8h-6.9z"/><path transform="rotate(-72.734 534.368 684.26)" class="st12" d="M530.7 681.8h7.2v4.8h-7.2z"/><path class="st12" d="m603.6 589.8 6.1-3.3 2.2 3.9-6 3.3zm-4.8-7 5.5-4.1 2.8 3.6-5.5 4.1zm-5.6-5.8 5.1-5 3.8 3.8-5.1 5zm13.8 18.8 6.4-2.8 1.5 3.9-6.3 2.8zm1.9 6.7 7-2.4 1.6 4.5-7 2.4z"/><g><path class="st12" d="m573.4 564.1 3-6.1 4.3 2.1-3 6zm-7.9-2.5 2.1-6.4 4.5 1.4-2 6.4zm-7.6-1.5 1.2-6.6 4.8.8-1.3 6.6zm22.1 7.2 3.7-5.7 4 2.5-3.7 5.6zm6.4 4.2 4.1-5.4 3.9 2.6-4.1 5.5z"/></g><g><path class="st12" d="m543.3 560-.3-6.5 4.6-.3.3 6.5zm-8.1 1.7-1.4-6.6 4.7-1 1.4 6.6zm-7.4 2.5-2.1-6.4 4.5-1.7 2.1 6.4zm22.8-4.6.4-6.6 4.6.2-.4 6.5z"/></g><g><path class="st12" d="m509.8 576-4.8-4.9 3.5-3.1 4.9 4.9zm-5.3 5.6-5.6-4.1 3-3.5 5.6 4.1zm-4.7 6.1-5.9-3.2 2.5-3.9 6 3.3zm-3.5 6.3-6.6-2.3 1.7-4.2 6.7 2.3zm-3.5 6.7-6.1-1.9 1.5-4.2 6.2 1.9zm-2.6 7.6-6.3-1.1 1-4.4 6.4 1.1zm24.9-37.4-4.2-4.8 3.8-2.5 4.1 4.9zm6.2-3.3-3.9-5.5 4-2.4 3.9 5.4z"/></g><g><path class="st13" d="M419.1 687.5v22.8s-1.7 9.2-40 6.4c0 0-16.9-2.2-33.6.5-16.7 2.7-30 0-32.6-2.5v-23.3l106.2-3.9z"/><path class="st14" d="M419.1 669.7v22.8s-1.7 9.2-40 6.4c0 0-16.9-2.2-33.6.5-16.7 2.7-30 0-32.6-2.5v-23.3l106.2-3.9z"/><path class="st15" d="M334.1 666.1s-39.5 8.6-10.6 11.5c29 2.9 37.9.5 37.9.5s12.2-.7 39 .9c20 1.2 25.1-11.4 10-13.9-15-2.5-31.2-4.8-31.2-4.8s-36.6 3.7-45.1 5.8z"/><path transform="rotate(-59.681 434.46 572.287)" style="fill:#a7a9ac" d="M353.2 570.7h162.5v3.2H353.2z"/><path d="m380.5 653.6-19.1-9.7s-6.9-1.7-7.2 9.7c-.2 11.4 19.8 16.9 28 10.4 8.2-6.5 14.4-21.6 14.4-21.6l-4.5-3.1s-6.9 16.5-11.6 14.3z" style="fill:#bcbec0"/><path d="M373.8 662c-3.9 0-9.2-.7-13.8-3.7-2.4-1.6-3.7-3.1-4-4.8-.2-1 .1-2 .7-2.9 1.4-1.9 4.1-2.6 6.4-1.6l16.9 7.2c.6.3.9 1 .6 1.6-.3.6-1 .9-1.6.6l-16.9-7.2c-1.3-.5-2.7-.2-3.5.8-.3.5-.3.8-.3 1.1.1.5.6 1.6 3 3.2 7.4 4.9 17.5 2.9 17.6 2.9.7-.1 1.3.3 1.4.9.1.7-.3 1.3-.9 1.4-.2 0-2.5.5-5.6.5z" style="fill:#939598"/><path class="st13" d="m473.6 500.7 38.9-66.1c0-1.4 1.4-2.4 3-2.5 1.2-.1 2.5.2 3.6 1.7 1.3 1.8 1.2 4.2 0 6.9l-42.2 63.1-3.3-3.1z"/><circle class="st5" cx="364.1" cy="659.8" r="9.9"/><ellipse transform="rotate(-45.001 369.477 655.473)" cx="369.5" cy="655.5" rx="2.1" ry="3" style="opacity:.6;fill:#fff"/></g><g><path class="st20" d="m181.3 603.7-3.8 5.8 3.4 7.2s4.3-3.6 6.9 2.6c0 0 3.6 4.5 9.2 4.5 0 0 1.2-3.8 6 2.3l4.9 1.8s2.3-5.5 6.2-1.6l1.1 3.4 7.1.9s.4-3.9 4.3-2.3c0 0 3.6 5.7 7.6 2.2 0 0 1.3-4.9 5.5-2.6 0 0 1.4 4.7 4.5 2.7s.9-4.4 5.5-4 5.1 1.9 5.1 1.9 1.8 1.1 2.2-2.3c.4-3.5 7-6 7-6l4.8-5.9s5.5-.5 8.6-3.8l6.3 2.4 1-2.7s-13.9-2.4-14.7-2.5c-.8 0-20.4 17.7-40.7 15.5-20.4-2.4-48-19.5-48-19.5z"/><path class="st5" d="M310.1 599.9c-5.6 9.5-24.7 10.4-31.9 10.4h-.8c-6.4 0-13.5 8.4-13.5 8.4-26.9 19.5-85.1-.8-84.3-12.6.8-11.8 11-13.1 11-13.1.5.1 1.1.1 1.7 0 6.7-.6 20.7-6.9 20.7-6.9l19-20.4s9.3-6.5 13.8-15 9.3-6.4 9.3-6.4l2.8-3.9c5.8-16 24.3-1.3 24.3-1.3s4.2-.5 13.7 1.6 10.4 9.6 10.7 13c.1.6.1 1.4.2 2.1v.1c.4 3.2 1 7.1 1 7.1.1.6.2 1.2.4 1.8 1.3 6.6 2 12.7 2.3 17.7.6 10.8-.4 17.4-.4 17.4z"/><path class="st15" d="m279.5 608.1-1.8 2.2h-.3c-6.4 0-13.5 8.4-13.5 8.4-26.9 19.5-85.1-.8-84.3-12.6.8-11.8 11-13.1 11-13.1.5.1 1.1.1 1.7 0 11.3 8.9 7 9 16.9 10.9 9.9 1.9 17.2 6.1 20.2 10.3 2.9 4.2.8.8.8.8l9.1-1.8s.2 7.1 3.6 6.5c3.4-.6 4.7-1.9 3.7-6.4l-1-4.5 8.1-3.3 5.3 9.2 6.2-4-.8-10.4 5.1-3.8 4.4 7.4 6.1-6.4s-2.8-7.4 5-13.2c7.7-5.8 21.5-21.7 21.8-28.6v.2l1.4 8.8v.1c0 .1-28.4 36.9-28.7 43.3z"/><path class="st15" d="M310.1 599.9c-5.6 9.5-24.7 10.4-31.9 10.4l9.7-17.6s5.4-2.4 14-3.5c4.4-.6 7-3.8 8.5-6.8.7 10.9-.3 17.5-.3 17.5z"/><path class="st21" d="m243.2 616.8-3.8-23.7s.6-7.8 5.2-2c4.7 5.8 14.6 19.5 14.6 19.5s4.6 6.1 3.5-2.4-7-26.3-7-26.3-.3-5.7 3.4-1.4c1.9 2.2 5.2 5.8 8 8.9 2.5 2.7 4.5 5.9 6.1 9.2 1 2 2.5 3.2 4.3-1.2 0 0 3.9-12.5-3.8-22.8-7.8-10.3 5.4-2.5 5.4-2.5l24 14.9"/><path class="st2" d="m222.9 584.9 3.5 1.3s4.4-5.5 10.2-9.6 13.3-12.5 13.3-12.5 3.7-5.3 9.2-7.3l9.8-8.4-6.3-3.5-7.5 9.5s-6.8 4.3-9.5 8.1-10.9 7.4-12.1 12.5c.1-.1-10.2 4.7-10.6 9.9z"/><path class="st15" d="M224.3 584.4c-2.7-1-4.8-1.9-5.4-2.1-.4-.2-.6-.6-.4-1.1.2-.4.6-.6 1.1-.4 7.1 2.9 18.6 7 21.3 6.4.5-.1.7-.3.7-.3.2-.5-1.1-2.3-2.2-4-1.3-1.8-2.9-4.1-4.3-6.8-3.6-7.2-4.1-10.4.8-14.3 2.6-2.1 11.8-.2 24.5 2.7 4.8 1.1 10.1 2.3 11.8 2.3-.8-1.6-4.9-6-7.9-9.4-8.2-8.9-10.6-11.9-9.7-13.5.1-.2.4-.5.9-.6 3.3-.7 20.2 10.8 23.5 13.1.4.3.5.8.2 1.1-.3.4-.8.5-1.1.2-9-6.2-19.7-12.7-22-12.8.5 1.7 5.8 7.5 9.4 11.4 7.3 8 9.1 10.1 8.3 11.4-.7 1.2-3.2.8-13.8-1.7-8.3-1.9-20.9-4.8-23.1-3.1-3.6 2.9-4.1 4.9-.3 12.3 1.3 2.6 2.9 4.8 4.2 6.6 1.8 2.5 2.9 4.1 2.4 5.5-.3.7-.9 1.1-1.9 1.3-2.9.8-11.3-2.1-17-4.2z"/><path class="st15" d="M223.8 589.5c-.3-.1-.5-.3-.5-.6-.2-1.3-2.2-12.8 1.8-15.1 1.6-.9 5.4-.5 11.5.2s13.8 1.6 15.9-.1c.3-.2.4-.5.4-.8.3-4.3-5.6-11.3-8.1-14.1-1.9-2.1-1.9-5.2-.1-7.2 6.3-7.1 28.1-.6 29-.3.4.1.7.6.5 1-.1.4-.6.7-1 .5-.2-.1-21.7-6.5-27.4-.2-1.2 1.4-1.2 3.6.1 5.1 3.3 3.7 8.8 10.6 8.5 15.3-.1.8-.4 1.5-1 2-2.6 2.2-10 1.3-17.1.5-4.4-.5-9.3-1.1-10.5-.4-2.3 1.3-1.8 9-1 13.5.1.4-.2.9-.7.9 0-.1-.1-.1-.3-.2z"/><path class="st15" d="M221.6 589.9c-1.4-.5-2.7-1.3-3.4-2.5-1.1-1.8-.9-4.1.7-6.8.3-.6 1-.7 1.6-.4.6.3.7 1 .4 1.6-1.1 1.9-1.3 3.3-.7 4.4 1.5 2.4 7.5 2.6 9.8 2.4 2.7-1.6 28.2-16.7 38.2-28.8 4-4.9 8.1-7.3 12.1-7.3 5.7 0 9.8 5.2 11.8 7.7 1.2 1.5 1.7 1.5 1.7 1.5.1-.1.4-.8.4-1.4 0-14.5 6.9-14.9 7.2-14.9.6 0 1.2.5 1.2 1.1 0 .6-.5 1.2-1.1 1.2-.1 0-4.9.7-4.9 12.7v.1c0 .5-.3 3-2.1 3.5-1.9.6-3.6-1.6-4.2-2.3-1.9-2.4-5.4-6.8-10-6.8-3.2 0-6.7 2.2-10.2 6.5-10.8 13.1-37.9 28.8-39.1 29.5l-.2.1h-.3c-.8 0-5.4.3-8.9-1.1z"/></g><g><path class="st20" d="m220.6 666.8-1.5 6.8 5.7 5.6s2.7-4.9 7.4 0c0 0 4.9 2.9 10.1.9 0 0-.2-4 6.4 0h5.2s.2-5.9 5.2-3.7l2.2 2.8 6.9-1.7s-1-3.8 3.2-3.7c0 0 5.4 4 7.9-.7 0 0-.5-5 4.2-4.3 0 0 3 4 5.2 1s-.7-4.4 3.7-5.7c4.5-1.3 5.4 0 5.4 0s2.1.4 1.2-3 4.5-8 4.5-8l2.4-7.2s5-2.4 6.7-6.6h6.7v-2.9s-13.9 2.6-14.6 2.9c-.7.2-12.9 23.7-32.7 28.8-19.5 5.1-51.4-1.3-51.4-1.3z"/><path class="st5" d="M339.9 618c-1.9 10.9-19.5 18.4-26.2 21-.2.1-.3.1-.5.2-.1 0-.2.1-.3.1-6 2.2-9.6 12.6-9.6 12.6-18.3 27.7-79.9 29.2-83.4 17.8-3.5-11.4 5.7-16.1 5.7-16.1.5-.1 1-.3 1.6-.6 6.1-2.9 16.9-13.8 16.9-13.8l10.6-25.8s6.4-9.4 7.7-18.9c1.2-9.5 6.4-9.3 6.4-9.3l1.2-4.7c-.2-17 22.3-9.7 22.3-9.7s3.7-2 13.4-3.3c9.6-1.3 13.1 5.3 14.6 8.4.3.6.6 1.2 1 1.9v.1c1.5 2.9 3.4 6.2 3.4 6.2.3.5.7 1 1 1.5 3.6 5.8 6.3 11.2 8.4 15.8 4.4 10 5.8 16.6 5.8 16.6z"/><path class="st15" d="m314.1 636.4-.9 2.8c-.1 0-.2.1-.3.1-6 2.2-9.6 12.6-9.6 12.6-18.3 27.7-79.9 29.2-83.4 17.8-3.5-11.4 5.7-16.1 5.7-16.1.5-.1 1-.3 1.6-.6 13.7 4.3 9.8 6 19.7 4.3 9.9-1.7 18.3-.4 22.5 2.5 4.2 2.9 1 .5 1 .5l7.9-4.8s2.7 6.6 5.7 4.8c3-1.8 3.7-3.4 1.2-7.3l-2.5-3.9 6.4-5.9 8.2 6.7 4.4-5.9-4.4-9.5 3.5-5.4 6.7 5.4 3.5-8.1s-5.2-6 0-14.1c5.2-8.2 12.5-27.9 10.3-34.5v.2l4.4 7.8.1.1s-13.6 44.4-11.7 50.5z"/><path class="st15" d="M339.9 618c-1.9 10.9-19.5 18.4-26.2 21l2.9-19.9s4.2-4.1 11.9-8.2c3.9-2.1 5.2-6 5.6-9.4 4.4 9.9 5.8 16.5 5.8 16.5z"/><path class="st21" d="m283.2 657.3-11.9-20.9s-2.2-7.5 4.2-3.7 20.5 13.1 20.5 13.1 6.4 4.1 2.5-3.5c-4-7.6-15.8-22.1-15.8-22.1s-2.3-5.2 2.7-2.5c2.6 1.4 6.9 3.6 10.6 5.5 3.3 1.7 6.2 3.9 8.9 6.5 1.6 1.6 3.4 2.2 3.6-2.6 0 0-.7-13.1-11.6-20s4.2-4.3 4.2-4.3l27.7 5.5"/><path class="st2" d="M253 634.5h3.7s2.2-6.7 6.2-12.6c4-5.9 8-16.4 8-16.4s1.6-6.3 6.1-10l6.2-11.3-7.1-1.1-3.7 11.5s-4.8 6.4-6.1 10.9c-1.2 4.5-7.6 10.7-6.9 15.9.1.1-7.9 8.2-6.4 13.1z"/><path class="st15" d="M254.1 633.6c-2.9 0-5.2-.1-5.8-.1-.4 0-.8-.4-.8-.8s.4-.8.8-.8c7.7.2 19.9 0 22.2-1.5.4-.3.5-.5.5-.6 0-.6-1.9-1.8-3.5-2.9-1.9-1.2-4.2-2.8-6.4-4.9-5.9-5.4-7.5-8.3-4.3-13.7 1.7-2.9 11-4.3 23.9-6.1 4.9-.7 10.3-1.4 11.9-2-1.3-1.2-6.7-3.9-10.7-6-10.8-5.5-14.1-7.5-13.8-9.2 0-.2.2-.6.6-.9 2.9-1.9 22.7 3 26.6 3.9.4.1.7.5.6 1-.1.4-.5.7-1 .6-10.6-2.7-22.9-5-25.1-4.3 1.1 1.4 8.1 5 12.8 7.4 9.6 4.9 12 6.3 11.8 7.7-.2 1.4-2.7 1.9-13.5 3.3-8.5 1.1-21.3 2.9-22.7 5.3-2.4 4-2.1 6 4 11.6 2.2 2 4.4 3.5 6.2 4.7 2.5 1.7 4.2 2.8 4.2 4.3 0 .7-.4 1.3-1.3 1.9-2.2 1.8-11.1 2.1-17.2 2.1z"/><path class="st15" d="M255.5 638.6c-.3 0-.5-.1-.7-.4-.7-1.1-6.6-11.2-3.6-14.8 1.1-1.4 4.9-2.4 10.9-3.9s13.5-3.3 14.8-5.7c.2-.3.2-.6.1-1-1.3-4.2-9.2-8.7-12.5-10.4-2.5-1.3-3.6-4.2-2.6-6.7 3.4-8.9 26.1-10.4 27.1-10.5.5 0 .8.3.9.8 0 .4-.3.8-.8.9-.2 0-22.6 1.6-25.7 9.5-.7 1.7.1 3.8 1.9 4.7 4.4 2.3 11.9 6.8 13.3 11.4.2.8.1 1.5-.3 2.2-1.7 3-8.9 4.7-15.8 6.5-4.3 1.1-9.1 2.3-10 3.3-1.7 2 1.4 9 3.8 13 .2.4.1.9-.3 1.1-.2-.1-.4 0-.5 0z"/><path class="st15" d="M253.6 639.7c-1.5 0-3-.3-4.1-1.2-1.7-1.3-2.3-3.5-1.8-6.6.1-.6.7-1.1 1.3-1 .6.1 1.1.7 1 1.4-.4 2.1-.1 3.6.9 4.3 2.2 1.7 7.9-.2 10.1-1.2 2-2.5 20.5-25.6 25.6-40.4 2.1-6 5-9.7 8.7-11.1 5.3-2 11 1.4 13.7 3 1.6 1 2.2.8 2.2.8.1-.1.1-.9-.1-1.5-5.1-13.6 1.2-16.4 1.5-16.5.6-.2 1.3 0 1.5.6.2.6 0 1.3-.6 1.5-.1.1-4.4 2.4-.2 13.6v.1c.1.5.7 2.9-.7 4.1-1.6 1.2-4-.2-4.8-.7-2.6-1.5-7.4-4.4-11.7-2.8-3 1.1-5.5 4.4-7.3 9.7-5.5 16-25.4 40.4-26.2 41.4l-.2.2-.2.1c-.7.4-4.9 2.2-8.6 2.2z"/></g><g><path class="st22" d="M730.6 499.8c-.8 7.8-6.7 14.7-14.2 17.2-10.7 3.6-18.7-3.8-23.5-10.7-2.8-4-5-8.5-6.4-13.3l-42.4-136-33.2-106.8s-6.3-4.5 1.4-5.6c7.6-1.1 5.1 5.6 5.1 5.6s17.9 50.2 37.4 105c22 61.7 46.1 129.2 49 137.2 5.6 15 8.9 5 8.9 5-2.8-8.4 5.6-12.1 5.6-12.1 11.8-.2 13.1 7.3 12.3 14.5z"/><path class="st23" d="m654.7 355.1-10.6 1.8-33.2-106.8s-6.3-4.5 1.4-5.6c7.6-1.1 5.1 5.6 5.1 5.6s17.8 50.3 37.3 105z"/></g><g><path class="st22" d="M558 499.8c.8 7.8 6.7 14.7 14.2 17.2 10.7 3.6 18.7-3.8 23.5-10.7 2.8-4 5-8.5 6.4-13.3l42.4-136 33.2-106.8s6.3-4.5-1.4-5.6c-7.6-1.1-5.1 5.6-5.1 5.6s-17.9 50.2-37.4 105c-22 61.7-46.1 129.2-49 137.2-5.6 15-8.9 5-8.9 5 2.8-8.4-5.6-12.1-5.6-12.1-11.8-.2-13.1 7.3-12.3 14.5z"/><path class="st23" d="m633.9 355.1 10.6 1.8 33.2-106.8s6.3-4.5-1.4-5.6c-7.6-1.1-5.1 5.6-5.1 5.6s-17.8 50.3-37.3 105z"/></g><g><circle class="st24" cx="647.2" cy="503.8" r="13.5"/><circle cx="642.1" cy="505.3" r="2.1" style="opacity:.46;fill:#e2dcde"/><path d="M657.1 500.5c-.1 0-.3-.1-.3-.2-2.9-4.2-6-6.4-9.3-6.4h-.1c-5.5 0-9.7 5.9-9.7 5.9-.1.2-.4.2-.6.1-.2-.1-.2-.4-.1-.6.2-.3 4.5-6.3 10.4-6.3h.1c3.6 0 7 2.3 10 6.7.1.2.1.4-.1.6-.2.2-.3.2-.3.2z" style="fill:#242225"/></g><g><path class="st14" d="M857.1 319.2c0 44.5-36.1 80.6-80.5 80.6-10.5 0-20.5-2-29.6-5.6-1.7-.7-3.3-1.4-4.9-2.1-15.3-7.3-28-19.3-36.1-34.2-4.6-8.4-7.8-17.7-9.1-27.6-.5-3.6-.8-7.3-.8-11 0-10.1 1.9-19.7 5.2-28.5 9-23.8 29-42.2 53.8-49.1l3.6-.9c5.8-1.3 11.8-2 17.9-2 21.7 0 41.3 8.6 55.8 22.5 15.2 14.4 24.7 35 24.7 57.9z"/><path class="st27" d="M758.6 240.6c-1.8 1.3-3.5 2.6-5.2 4.1-8.5 7-15.6 15.5-21 25-2.6 4.8-4.8 9.8-6.6 14.9l-1.2 3.9-.3 1-.2 1-.5 2c-.7 2.6-1.1 5.3-1.6 8-.6 3.6-.9 7.3-1.1 10.9 0 .6 0 1.1-.1 1.7-.2 6.7.1 13.4.9 20 0 .4.1.7.1 1.1 0 .5.1 1 .2 1.4.3 1.9.6 3.7.9 5.6.2 1.4.5 2.7.8 4l.9 4c.7 2.6 1.4 5.3 2.3 7.9.2.6.4 1.1.6 1.7.7 2 1.4 4 2.2 6 4 10.2 9.6 19.7 16.3 28.3.3.3.5.7.8 1-1.7-.7-3.3-1.4-4.9-2.1-2.7-3.5-5.3-7.1-7.5-11-.8-1.2-1.4-2.4-2.1-3.7-.7-1.2-1.4-2.4-2-3.7-1.2-2.5-2.5-5-3.5-7.6-1.1-2.7-2.1-5.4-3-8.2-.2-.5-.3-1-.5-1.5l-1.8-6.3-.9-4.1c-.3-1.4-.6-2.7-.8-4.1-.4-2.2-.8-4.5-1.1-6.7-.1-.4-.1-.9-.1-1.3v-.3l-.4-4.2c-.2-1.4-.2-2.8-.3-4.2l-.2-4.2v-4.2c0-1.3 0-2.6.1-3.9 0-.5.1-1.1.1-1.6.1-1 .1-1.9.2-2.9 0-1.4.3-2.8.4-4.2.2-1.4.3-2.8.6-4.2.5-2.8 1-5.5 1.7-8.2l.5-2 .3-1 .3-1 1.3-4c1.9-5.3 4.2-10.4 7.1-15.3 5.7-9.7 13.3-18.1 22.2-25 .9-.7 1.7-1.3 2.6-1.9 1.1-.3 2.3-.6 3.5-.9z"/><path class="st27" d="M701.2 290.6c.1 1.6.4 3.2.8 4.8.4 1.6.9 3.1 1.6 4.6 1.3 3 3.2 5.6 5.6 7.6 2.5 2 5.5 3.2 8.6 3.6 3.1.4 6.3.1 9.4-.6 6.2-1.3 12.2-4 17.8-7.1 2.8-1.5 5.6-3.2 8.4-4.9l8.1-5.4c2.7-1.8 5.4-3.6 8.2-5.4 2.8-1.7 5.5-3.5 8.3-5.2l8.5-4.9c2.9-1.6 5.7-3.2 8.7-4.6 5.8-3 11.8-5.7 18-8l2.3-.8 1.2-.4 1.2-.4 2.4-.7 2.4-.6c.8-.2 1.6-.4 2.4-.5.8-.1 1.6-.3 2.4-.4l1.2-.1c.4 0 .8 0 1.2-.1.8 0 1.6 0 2.5.1-.8-.1-1.6 0-2.4.1-.4.1-.8.1-1.2.2l-1.2.2c-.8.1-1.6.4-2.4.5-.8.2-1.6.4-2.3.7-.8.2-1.6.5-2.3.7l-2.3.8-1.1.4-1.1.5-2.3.9c-1.5.6-3 1.3-4.5 2-.7.3-1.5.7-2.2 1l-2.2 1.1c-1.4.7-2.9 1.4-4.4 2.2l-4.3 2.3c-1.4.7-2.8 1.6-4.3 2.4l-4.2 2.4-8.4 5.1-8.2 5.2c-2.7 1.7-5.4 3.6-8.1 5.4l-8.2 5.4c-2.8 1.7-5.6 3.4-8.5 4.9-2.9 1.5-5.9 2.9-9 4.1-.8.3-1.6.6-2.3.8-.8.3-1.6.6-2.4.8-1.6.4-3.2.9-4.9 1.1-3.3.6-6.7.9-10 .3-3.3-.6-6.6-2-9.1-4.2-2.5-2.3-4.3-5.2-5.4-8.3-1.3-3.1-1.9-6.3-2-9.6zm-4.4 39.5c6.7 1.4 13.4 2.5 20.2 3.4 6.7.9 13.5 1.6 20.3 2.2 13.6 1.1 27.2 1.4 40.7.8 3.4-.1 6.8-.4 10.2-.6 3.4-.3 6.8-.6 10.1-1 1.7-.2 3.4-.4 5-.6l5-.8c1.7-.3 3.3-.6 5-.9l2.5-.4 2.5-.5c13.3-2.8 26.3-6.9 38.8-12.4-3.1 1.5-6.1 3.2-9.2 4.5-1.6.7-3.1 1.4-4.7 2l-4.8 1.9c-6.4 2.3-13 4.4-19.7 5.9-6.7 1.6-13.4 2.8-20.2 3.7-6.8.9-13.6 1.5-20.5 1.8-6.8.3-13.7.4-20.5.1-6.8-.3-13.7-.7-20.5-1.4-13.6-1.7-27.1-4-40.2-7.7zm9.1 27.7c.9-1 2.3-1.4 3.5-1.8 1.3-.3 2.7-.5 4-.5h2c.7 0 1.3.1 2 .1.7.1 1.3.1 2 .2l2 .3c.7.1 1.3.2 2 .3l2 .4c1.3.3 2.6.5 3.9.9l3.9 1.1 3.8 1.3c2.6.8 5.1 1.8 7.6 2.8 2.5.9 4.9 2 7.4 3.1 2.5 1 4.9 2.2 7.3 3.3 2.4 1.1 4.8 2.3 7.2 3.4l3.6 1.7c1.2.6 2.4 1.1 3.6 1.6 2.5 1 4.9 2 7.4 3l3.7 1.3c1.3.4 2.5.9 3.8 1.3l3.8 1.1c.6.2 1.3.4 1.9.5l1.9.4c1.3.3 2.6.6 3.9.8l3.9.6 1 .1 1 .1 2 .1c.7 0 1.3.1 2 .1h4l2-.2 1-.1 1-.2c.6-.1 1.3-.2 1.9-.4l1.9-.6c.6-.2 1.2-.5 1.8-.7 1.2-.5 2.4-1.1 3.4-2-1.9 1.9-4.4 3-7 3.9-.6.2-1.3.3-2 .5l-1 .3-1 .2-2 .3c-.7.1-1.3.1-2 .2l-2 .1c-.7.1-1.3 0-2 0h-3l-1-.1-4-.4c-1.3-.2-2.7-.5-4-.7l-2-.4c-.7-.1-1.3-.3-2-.5l-3.9-1c-1.3-.3-2.6-.8-3.9-1.2l-3.8-1.3c-.6-.2-1.3-.4-1.9-.7l-1.9-.8-3.7-1.5c-1.3-.5-2.5-1-3.7-1.6l-3.7-1.7c-2.4-1.1-4.8-2.3-7.2-3.4-2.4-1.2-4.8-2.3-7.2-3.4-2.4-1.1-4.8-2.2-7.3-3.2s-4.9-2.1-7.4-2.9l-3.7-1.4-3.8-1.2c-1.3-.4-2.5-.8-3.8-1.1l-1.9-.5c-.6-.2-1.3-.3-1.9-.4l-1.9-.4c-.6-.1-1.3-.2-2-.3-.7-.1-1.3-.2-2-.2l-2-.1c-1.3 0-2.6 0-3.9.2-1.3.1-2.6.4-3.6 1.3z"/></g><g><path class="st24" d="m546.3 383.8-46.7 6.2s-.5-4.2-3.6-5.5c-.6-.3-1.2-.4-2-.4l-9.9-31.5-.5-1.5s1.9-7.9-4.8-11.9c-2.3-1.4-6.9-5.3-12.1-10-1.7-1.6-3.6-3.2-5.4-4.9-8.7-8-17.1-16.2-17.1-16.2s-10-26.5 9.6-34.1c0 0-.3-3.3.7-7 1.2-4 4-8.5 10.8-9.4l46.4-6.3s12.1.5 16 12.9c.5 1.5.8 3.1 1 5l3.8 16.3v.1l7.1 51.7 5.2 37.4 1.5 9.1z"/><path class="st2" d="m532.8 285.5-3.8-16.4s-47.5-20.4-67.9 11.1c-14.1 21.8-6 36.8.4 44.1 2.8 3.1 5.2 4.8 5.4 4.9 5.2 4.7 9.8 8.6 12.1 10 6.7 4 4.8 11.9 4.8 11.9l.5 1.5 55.8-15.5-7.3-51.6z"/><path class="st24" d="M478.8 339.2s-3.3-38.7-16.3-48.5c0 0 18.1 6.4 21.5 33.7 3.5 27.3-.9 19.8-.9 19.8l-4.3-5z"/><path class="st15" d="M501.9 348c-.8-1.2-18.5-29.7-14.8-41.4.6-2.1 1.9-3.6 3.8-4.5.9-.6 6.6-4.4 12.7-2.3 4.8 1.7 8.4 6.6 10.6 14.5 6.3 22.5 7 27.9 7.1 28.1l-2.4.3c0-.1-.8-5.6-7-27.8-2-7.1-5-11.5-9.1-12.9-5.3-1.8-10.5 2-10.6 2l-.2.1c-1.3.6-2.1 1.5-2.5 3-3.3 10.7 14.4 39.2 14.6 39.4l-2.2 1.5z"/><path class="st15" d="m514.2 314.8-2.4-.2c.5-6.1 2.6-10.6 6-13.1 4.2-3.2 9-2.3 9.2-2.2l-.5 2.4s-4-.7-7.3 1.8c-2.9 2.1-4.5 5.9-5 11.3z"/><path class="st0" d="m527.9 264.1-4.9 6.8c-3.7 21.9-24.5 21.9-42.7 22.6-18.2.7-25.6-26.6-25.6-26.6 1.2-4 4-8.5 10.8-9.4l46.4-6.3s12 .6 16 12.9z"/><path class="st2" d="m546.3 383.8-46.7 6.2s-.5-4.2-3.6-5.5l49-10 1.3 9.3z"/><path class="st15" d="M509.2 345.6c0-.3-4.5-27.5-15.6-35l.9-1.3c11.7 7.9 16.1 34.9 16.3 36.1l-1.6.2zm5.3-1.3c-.4-1.1-10.2-26.6-11.4-34.3l1.6-.2c1.1 7.5 11.2 33.7 11.3 33.9l-1.5.6zm11.8-4.7c-.4-.6-8.9-14.4-3.6-26.8l1.5.6c-5 11.6 3.4 25.2 3.5 25.3l-1.4.9z"/><path transform="rotate(-12.849 530.49 322.056)" class="st15" d="M529.7 305h1.6v34.1h-1.6z"/></g><g><path style="fill:#cfc6b7" d="M345.1 261h73.3v8.1h-73.3z"/><path style="fill:#d6d1b3" d="M334.1 496.8h105.8v19.7H334.1z"/><path d="M439.8 496.8H334.1v-8c0-3.3 2.7-6 6-6H434c3.3 0 6 2.7 6 6v8z" style="fill:#d3cfbc"/><path d="M415.6 254.2 412 489.8s8.1 7.2 16.7.4v-236s-8.3-12.2-13.1 0zm-38.1 0-2.1 235.6s8.1 7.2 16.7.4l2.1-236.1c0 .1-9.4-13.5-16.7.1zm-39.7-.8-2.1 236.5s8.1 7.2 16.7.4l2.1-236.9s-9.4-13.6-16.7 0z" style="fill:#e2dec5"/><path class="st32" d="M340 272.4h10.8v28.3H340zm40.2 1.3H391V302h-10.8zm37.7 0h10.8V302h-10.8z"/><path d="m393.9 348.8 5.5 8.2-54.3 182.3c-28 5.2-34.4-16.3-34.4-16.3l51.6-177.4 7.4-2.6 1.1-.4 5.9-6.3 28.2-91.8c13-1.6 15.4 6.8 15.4 6.8s-24.7 79.4-26.2 85c-1.5 5.6-.8 11.8-.8 11.8l.6.7z" style="fill:#d7d2b4"/><path class="st34" d="m351.6 382.3 36.7 11.8 2.6-8.8s-21.3-10.6-36.5-10.7l-2.8 7.7zm5.9-20.4s33.7 7.6 36.7 12.5l3.3-10.9s-24.4-10.8-37.2-10.8l-2.8 9.2z"/><path d="M345.1 432.1s-7.7 46.5-21 75.4c0 0-5.2-11.6 0-19.8 5.2-8.2 10-19.8 10-19.8s-7.9 1.2-7.3 4.5c0 0 1-7.4 7.3-7.8l1.8-4.1-7.2 2.6s2.8-5 7.2-6.3l3.9-4.4-9.6 3s5.4-6.7 9.6-6c.1.1 2.5-16.9 5.3-17.3zm18.5 4.1s-19.4 43-24.3 74.4c0 0 10.8-6.8 11-16.5.2-9.7 2.6-22 2.6-22s5.9 5.4 3.5 7.8c0 0 3.3-6.7-1.7-10.5l.7-4.4 4.5 6.1s.4-5.7-2.5-9.2l-.8-5.9 6.3 7.8s-.7-8.6-4.6-10.3c-.1 0 7.3-15.5 5.3-17.3z" style="opacity:.32;fill:#2f2c27"/><path d="M315.9 517.9s8.3 13.9 24 9.8" style="opacity:.32;fill:none;stroke:#2d2c27;stroke-width:2;stroke-miterlimit:10"/><path class="st32" d="m375.4 342.9-24.6 75.4s5.9-3 8.2-2.6c2.2.4 4.1 6.8 4.1 6.8l26.3-74.4-3.8-9.2-10.2 4z"/><path class="st34" d="M394.2 336.2c-1.5 5.6-.8 11.8-.8 11.8l.5.8c-12.2 1.1-19.9-2.7-24.2-5.9l1.1-.4 5.9-6.3 28.2-91.8c13-1.6 15.4 6.8 15.4 6.8s-24.6 79.5-26.1 85z"/><path transform="rotate(-180 338.586 296.626)" class="st34" d="M337.9 294.6h1.3v4.1h-1.3z"/><path transform="rotate(-180 338.586 278.892)" class="st34" d="M337.9 276.9h1.3v4.1h-1.3z"/><path transform="rotate(-180 352.233 296.397)" class="st34" d="M351.6 294.4h1.3v4.1h-1.3z"/><path transform="rotate(-180 352.233 278.664)" class="st34" d="M351.6 276.6h1.3v4.1h-1.3z"/><path transform="rotate(-180 378.585 296.724)" class="st34" d="M377.9 294.7h1.3v4.1h-1.3z"/><path transform="rotate(-180 378.585 278.99)" class="st34" d="M377.9 276.9h1.3v4.1h-1.3z"/><path transform="rotate(-180 393.544 295.42)" class="st34" d="M392.9 293.4h1.3v4.1h-1.3z"/><path transform="rotate(-180 393.544 277.687)" class="st34" d="M392.9 275.6h1.3v4.1h-1.3z"/><path transform="rotate(-180 416.358 295.42)" class="st34" d="M415.7 293.4h1.3v4.1h-1.3z"/><path transform="rotate(-180 416.358 277.687)" class="st34" d="M415.7 275.6h1.3v4.1h-1.3z"/><circle cx="365.5" cy="245.3" r="14.9" style="fill:#58120a"/><path class="st2" d="M361.2 259.9v-.8c.1 0 1.4 0 2.1-1.2.8-1.3 1-4.1-2.4-10.4-4.5-8.4-2.8-13-1.4-14.9 1.4-2 3.8-3 6.2-2.6 2.9.5 8.4 3.5 11.5 8.8 2.6 4.6 2.9 10 .8 15.6l-.8-.3c2-5.5 1.8-10.5-.8-14.9-2.9-5-8.1-7.9-10.9-8.4-2-.3-4.1.5-5.4 2.3-2.2 3.1-1.7 8.2 1.5 14.1 2.9 5.3 3.7 9.1 2.4 11.2-1 1.5-2.6 1.5-2.8 1.5z"/></g><g><path class="st24" d="M503 404.5s-3 7.1 6.3 10.8c9.3 3.7 36.2 16.8 36.2 16.8s17.3 7.4 15.4-3l6.3-5.2s9.7-11.5 9.9-24.1c0 0 3.8-1.2 2.9-5.6 0 0-.6-8.5 3.9-10.3s28.2-39 31.6-50.9c0 0 12.6-21.3 1.9-32.2-9.6-9.7-47-23.2-54.9-25.9-1.5-.5-3-.8-4.6-.8-4.2 0-11.5 1.6-13.8 11.6 0 0-14.3-6.1-20.6 10.2-6.3 16.3 2.6 57.5.4 65.7 0 0-8.6-.7-6.3 6.7l-11.5 29.3c-.2-.1-3.5.9-3.1 6.9z"/><path d="M521.3 371.1s42.9 23 50.8 23l-12.7 30.5 7.8-.7-6.3 5.2s-10.7-.4-27.1-8.2c-16.4-7.8-30.9-16.3-30.9-16.3l.6-4.5h2.7l15.1-29z" style="fill:#f1f2f2"/><path class="st2" d="m523 374.8-13 26.7s43 22.6 45.6 20.8 13.2-26 13.2-26-41.4-17.7-45.8-21.5z"/><path class="st2" d="M559.3 425c-36.1-9.2-53.1-24.5-53.3-24.6l.5-.6c.2.2 17.1 15.3 52.9 24.4l-.1.8zM520 361.9s16.8 15.8 45.5 24.8c0 0 8.3 2.5 14.5 7.4 0 0 .3 4.9-2.9 5.6 0 0 1.4-4-5-5.6-6.4-1.7-48.7-23.8-48.7-23.8s-5.3-2-3.4-8.4z"/><ellipse transform="rotate(-69.071 542.052 290.682)" cx="542.1" cy="290.7" rx="3.6" ry="1.8" style="opacity:.46;fill:#fff"/></g><g><path d="M326 329.2c0 10.5-2.2 20.6-6.1 29.7-.2.6-.5 1.2-.8 1.7-.2.5-.5 1-.7 1.5-.3.6-.6 1.2-.9 1.7-.2.4-.5.9-.7 1.3-2.1 3.8-4.5 7.4-7.1 10.8-.2.3-.5.6-.7.9-.6.8-1.3 1.5-1.9 2.3-.4.4-.7.8-1.1 1.2-3 3.2-6.2 6.2-9.8 8.9-.3.2-.6.5-.9.7l-2.1 1.5c-.6.4-1.2.8-1.7 1.2-1.6 1.1-3.3 2.1-5 3-.4.2-.8.4-1.2.7-.4.2-.9.5-1.3.7-.4.2-.9.4-1.3.6-.4.2-.9.4-1.3.6h-.1c-9.5 4.3-20 6.6-31 6.6-5.7 0-11.2-.6-16.5-1.8l-1.5-.3c-.5-.1-.9-.2-1.4-.4-.2 0-.4-.1-.6-.2-.5-.1-1-.3-1.5-.4-.4-.1-.7-.2-1.1-.3-.1 0-.2-.1-.3-.1-.3-.1-.7-.2-1-.3-1.6-.5-3.2-1.1-4.8-1.8-.1-.1-.2-.1-.4-.2-.3-.1-.7-.3-1-.4-.1 0-.2-.1-.3-.1-.4-.1-.7-.3-1.1-.5-.2-.1-.5-.2-.8-.4-.7-.3-1.5-.7-2.2-1.1-.4-.2-.7-.4-1.1-.6-.4-.2-.7-.4-1.1-.6l-2.1-1.2-.9-.6c-.4-.2-.8-.5-1.1-.7-.7-.4-1.3-.9-2-1.3l-1.8-1.2c-.2-.1-.3-.2-.5-.4-.6-.5-1.2-.9-1.8-1.4-.4-.3-.9-.7-1.3-1-.5-.4-1-.9-1.5-1.3 0 0-.1 0-.1-.1-.5-.4-.9-.8-1.3-1.2-.1-.1-.2-.1-.2-.2-.5-.4-1-.9-1.4-1.3l-1.4-1.4c-.9-1-1.8-1.9-2.7-2.9-.4-.4-.7-.8-1-1.2-.3-.3-.5-.6-.8-1-.3-.4-.6-.8-1-1.2-.2-.3-.5-.6-.7-.9-.5-.6-.9-1.2-1.3-1.8-.4-.6-.9-1.2-1.3-1.8-1.4-2.1-2.8-4.3-4-6.6-5.7-10.6-8.9-22.7-8.9-35.6v-2.1c0-.5 0-1 .1-1.5 0-.9.1-1.8.2-2.6.3-4 1-7.9 1.9-11.7 2.9-11.8 8.5-22.4 16.1-31.3l1.8-2.1c.5-.5 1-1.1 1.5-1.6 1.1-1.1 2.2-2.2 3.4-3.2 1.1-1 2.2-1.9 3.3-2.8 1.8-1.4 3.6-2.8 5.5-4.1 0 0 .1-.1.2-.1.5-.3.9-.6 1.4-.9.7-.5 1.5-.9 2.2-1.3.4-.2.7-.4 1.1-.6.4-.2.8-.4 1.1-.6 1.1-.6 2.3-1.2 3.4-1.7.2-.1.5-.2.7-.3.6-.3 1.2-.5 1.8-.8.4-.2.8-.3 1.2-.5.4-.2.8-.3 1.2-.5.1 0 .3-.1.4-.2.4-.1.8-.3 1.1-.4.7-.3 1.5-.5 2.2-.8.8-.3 1.7-.5 2.5-.8.4-.1.8-.2 1.1-.3l1.2-.3c.5-.1 1-.2 1.4-.4.4-.1.9-.2 1.3-.3.3-.1.6-.1.9-.2.3-.1.6-.1.8-.2.3-.1.6-.1.9-.2.7-.1 1.4-.2 2.1-.4h.1c.6-.1 1.2-.2 1.8-.2.6-.1 1.2-.2 1.8-.2.3 0 .6-.1.9-.1.5 0 .9-.1 1.3-.1 1.8-.1 3.6-.2 5.5-.2 1.8 0 3.6.1 5.3.2.3 0 .6 0 .9.1 1.8.1 3.6.3 5.3.6.6.1 1.1.2 1.7.3.8.1 1.6.3 2.4.5.7.2 1.4.3 2.1.5h.2l2.4.6c.5.1 1 .3 1.5.4.6.2 1.3.4 1.9.6.6.2 1.1.4 1.7.6.1 0 .1 0 .2.1.4.1.8.3 1.2.5 2.3.9 4.6 1.9 6.8 3 .5.3 1.1.5 1.6.8.7.3 1.3.7 1.9 1 .6.3 1.1.6 1.6.9 1.1.6 2.1 1.3 3.2 2 .5.3 1 .7 1.5 1.1.5.3 1 .7 1.5 1 .5.3.9.7 1.4 1 .2.1.3.2.5.4.4.3.8.6 1.1.9.5.4 1 .8 1.4 1.2l3 2.7.9.9c.3.3.7.6 1 1 1.9 2 3.7 4 5.4 6.1.6.8 1.3 1.7 1.9 2.5 1.6 2.2 3.1 4.6 4.5 7l1.2 2.1c.4.7.7 1.5 1.1 2.2.2.5.5.9.7 1.4.2.3.3.6.4.9.9 2 1.7 4.1 2.4 6.2l.6 1.8.9 3c.1.4.2.9.3 1.3v.1c.2.9.4 1.7.6 2.6.1.3.1.6.2 1 .2.8.3 1.6.4 2.4.4 2.5.7 5.1.9 7.7.4 1.5.4 3 .4 4.6z" style="fill:#889ec7"/><ellipse transform="rotate(-9.53 211.846 339.65)" class="st2" cx="211.8" cy="339.6" rx="32.1" ry="40.1"/><ellipse transform="rotate(-9.53 211.363 339.302)" class="st41" cx="211.3" cy="339.2" rx="31" ry="38.8"/><ellipse transform="rotate(-9.53 211.363 339.302)" class="st2" cx="211.3" cy="339.2" rx="28.4" ry="35.6"/><path class="st2" d="M199.7 272.9c-.4 1.7-.5 3.5-.3 5.3.8 7.6 7.2 13.8 16.6 17.4.7.3 1.5.5 2.2.8 7 2.2 15.4 3.1 24.2 2.1 7.9-.9 15.2-3.1 21.2-6.2.4-.2.8-.4 1.1-.6 10.1-5.6 16.3-13.8 15.3-22.3-.5-5-3.4-9.3-8-12.7l-72.3 16.2z"/><path class="st41" d="M203.1 270.1c-.3.8-.6 1.5-.9 2.3-.5 1.8-.7 3.7-.5 5.5.7 6.8 6.5 12.4 15.1 15.7.7.3 1.4.5 2.2.8 6.8 2.2 15.1 3 23.9 2.1 7.3-.8 14-2.7 19.6-5.4.4-.2.8-.4 1.1-.6 10.1-5.2 16.4-13 15.5-21-.5-4.9-3.7-9.2-8.6-12.4-.7-.5-1.5-.9-2.3-1.4l-65.1 14.4z"/><path class="st2" d="M262.2 288.5c-.4.2-.8.4-1.1.6-5.2 2.6-11.5 4.5-18.4 5.2-8.5.9-16.5 0-22.9-2.2-.8-.3-1.5-.5-2.2-.8-7.1-3-11.9-7.9-12.5-13.8-.2-2 .1-4 .8-6 .3-.8.6-1.6 1.1-2.3.5-.9 1.2-1.9 1.9-2.8 0 0 .1-.1.1-.2.3-.4.7-.8 1.1-1.2.7-.5 1.5-.9 2.2-1.3.4-.2.7-.4 1.1-.6.4-.2.8-.4 1.1-.6 1.1-.6 2.3-1.2 3.4-1.7.2-.1.5-.2.7-.3.6-.3 1.2-.5 1.8-.8.4-.2.8-.3 1.2-.5.4-.2.8-.3 1.2-.5.1 0 .3-.1.4-.2.4-.1.8-.3 1.1-.4.7-.3 1.5-.5 2.2-.8.8-.3 1.7-.5 2.5-.8.4-.1.8-.2 1.1-.3l1.2-.3c.5-.1 1-.2 1.4-.4.4-.1.9-.2 1.3-.3.3-.1.6-.1.9-.2.3-.1.6-.1.8-.2.3-.1.6-.1.9-.2.7-.1 1.4-.2 2.1-.4h.1c.6-.1 1.2-.2 1.8-.2.6-.1 1.2-.2 1.8-.2.3 0 .6-.1.9-.1.5 0 .9-.1 1.3-.1 1.8-.1 3.6-.2 5.5-.2 1.8 0 3.6.1 5.3.2 2.1.4 4 1 5.8 1.7l1.5.6c.4.2.8.3 1.2.5.9.4 1.8.9 2.5 1.3 5.1 3 8.3 7.1 8.9 12 1.2 7.2-4.2 14.1-13.1 18.8zm62.4 26c-.8-.2-1.5-.6-2.3-1-2.6-1.3-5.5-3.3-8.6-5.9-1.1-1-2.3-2-3.4-3.2-1.8-1.8-3.7-3.8-5.5-5.9-.2-.3-.5-.6-.8-.9-1.3-1.5-2.5-3.1-3.8-4.8-1.1-1.4-2.1-2.9-3.2-4.5-6.6-9.7-11.2-19.4-13.1-27 .5.3 1.1.5 1.6.8.7.3 1.3.7 1.9 1 .6.3 1.1.6 1.6.9 1.1.6 2.1 1.3 3.2 2 .5.3 1 .7 1.5 1.1.5.3 1 .7 1.5 1 .5.3.9.7 1.4 1 .2.1.3.2.5.4.4.3.8.6 1.1.9.5.4 1 .8 1.4 1.2l3 2.7.9.9c.3.3.7.6 1 1 1.9 2 3.7 4 5.4 6.1.6.8 1.3 1.7 1.9 2.5 1.6 2.2 3.1 4.6 4.5 7l1.2 2.1c.4.7.7 1.5 1.1 2.2.2.5.5.9.7 1.4.2.3.3.6.4.9.9 2 1.7 4.1 2.4 6.2l.6 1.8.9 3c.1.4.2.9.3 1.3v.1c.2.9.4 1.7.6 2.6 0 .4 0 .8.1 1.1z"/><path class="st41" d="M324.4 313.5c-1.1-.4-2.3-1-3.5-1.7-2.7-1.6-5.7-4-8.7-6.9-2.5-2.4-5.1-5.3-7.7-8.4-.4-.5-.9-1.1-1.3-1.6-1.6-2.1-3.2-4.2-4.8-6.5-6.4-9.5-10.9-18.9-12.9-26.2.7.3 1.3.7 1.9 1 .6.3 1.1.6 1.6.9 1.1.6 2.1 1.3 3.2 2 .5.3 1 .7 1.5 1.1.5.3 1 .7 1.5 1 .5.3.9.7 1.4 1 .2.1.3.2.5.4.4.3.8.6 1.1.9.5.4 1 .8 1.4 1.2l3 2.7.9.9c.3.3.7.6 1 1 1.9 2 3.7 4 5.4 6.1.6.8 1.3 1.7 1.9 2.5 1.6 2.2 3.1 4.6 4.5 7l1.2 2.1c.4.7.7 1.5 1.1 2.2.2.5.5.9.7 1.4.2.3.3.6.4.9.9 2 1.7 4.1 2.4 6.2l.6 1.8.9 3c.1.4.2.9.3 1.3v.1c.1.9.3 1.7.5 2.6z"/><path class="st2" d="M323.8 310.9c-1.9-.6-4.1-1.8-6.5-3.5-3.9-2.8-8.2-7-12.4-12.2-1.9-2.3-3.8-4.9-5.6-7.6-6.1-8.9-10.2-17.8-11.9-24.5.6.3 1.1.6 1.6.9 1.1.6 2.1 1.3 3.2 2 .5.3 1 .7 1.5 1.1.5.3 1 .7 1.5 1 .5.3.9.7 1.4 1 .2.1.3.2.5.4.4.3.8.6 1.1.9.5.4 1 .8 1.4 1.2l3 2.7.9.9c.3.3.7.6 1 1 1.9 2 3.7 4 5.4 6.1.6.8 1.3 1.7 1.9 2.5 1.6 2.2 3.1 4.6 4.5 7l1.2 2.1c.4.7.7 1.5 1.1 2.2.2.5.5.9.7 1.4.2.3.3.6.4.9.9 2 1.7 4.1 2.4 6.2l.6 1.8.9 3c.1.4.2.9.3 1.3-.1.1-.1.2-.1.2zm-129-33.2-1.8 2.1c-7.7 8.9-13.3 19.6-16.1 31.3-.9 3.8-1.6 7.7-1.9 11.7-.1.9-.1 1.8-.2 2.6 0 .5 0 1-.1 1.5 0-.1.1-.1.1-.2 2.4-3.1 4.8-6.7 7.1-10.7.3-.5.5-.9.8-1.4 1.8-3.3 3.6-6.8 5.2-10.5 4.5-10.2 7.4-20.1 8.4-28.1-.5.7-1 1.2-1.5 1.7z"/><path class="st41" d="M194.8 277.7c-1 7.6-3.8 17-8.1 26.8-1.6 3.7-3.4 7.2-5.2 10.4-.3.5-.5.9-.8 1.4-1.5 2.6-3.1 5.1-4.7 7.3-.4.6-.9 1.2-1.3 1.8 0-.9.1-1.8.2-2.6.3-4 1-7.9 1.9-11.7 2.9-11.8 8.5-22.4 16.1-31.3.7-.7 1.3-1.4 1.9-2.1z"/><path class="st2" d="M193 279.8c-1 6.9-3.5 15.4-7.4 24.3-1.7 3.9-3.6 7.6-5.6 11-.3.5-.6 1.1-.9 1.6-.3.5-.6.9-.8 1.4-1.1 1.7-2.2 3.4-3.3 4.9.3-4 1-7.9 1.9-11.7 2.8-11.9 8.4-22.6 16.1-31.5zm103.3 109.5c-.3.2-.6.5-.9.7l-2.1 1.5c-.6.4-1.2.8-1.7 1.2-1.6 1.1-3.3 2.1-5 3-.4.2-.8.4-1.2.7-.4.2-.9.5-1.3.7-.4.2-.9.4-1.3.6-.4.2-.9.4-1.3.6h-.1c-9.5 4.3-20 6.6-31 6.6-5.7 0-11.2-.6-16.5-1.8l-1.5-.3c-.5-.1-.9-.2-1.4-.4-.2 0-.4-.1-.6-.2-.5-.1-1-.3-1.5-.4-.4-.1-.7-.2-1.1-.3-.1 0-.2-.1-.3-.1-.3-.1-.7-.2-1-.3-1.6-.5-3.2-1.1-4.8-1.8-.1-.1-.2-.1-.4-.2-.3-.1-.7-.3-1-.4-.1 0-.2-.1-.3-.1-.4-.1-.7-.3-1.1-.5-.2-.1-.5-.2-.8-.4-.7-.3-1.5-.7-2.2-1.1.9-6.2 6.1-12.4 13.9-17.1.6-.4 1.2-.7 1.9-1.1 5.8-3.1 12.7-5.6 20.4-6.9 7.8-1.3 15.2-1.3 21.7-.1 1 .1 1.9.3 2.8.5 10.6 2.5 18.1 8 19.3 15.4.3.7.4 1.3.4 2z"/><path class="st41" d="m295.4 390-2.1 1.5c-.6.4-1.2.8-1.7 1.2-1.6 1.1-3.3 2.1-5 3-.4.2-.8.4-1.2.7-.4.2-.9.5-1.3.7-.4.2-.9.4-1.3.6-.4.2-.9.4-1.3.6h-.1c-9.5 4.3-20 6.6-31 6.6-5.7 0-11.2-.6-16.5-1.8l-1.5-.3c-.5-.1-.9-.2-1.4-.4-.2 0-.4-.1-.6-.2-.5-.1-1-.3-1.5-.4-.4-.1-.7-.2-1.1-.3-.1 0-.2-.1-.3-.1-.3-.1-.7-.2-1-.3-1.6-.5-3.2-1.1-4.8-1.8-.1-.1-.2-.1-.4-.2-.3-.1-.7-.3-1-.4-.1 0-.2-.1-.3-.1-.4-.1-.7-.3-1.1-.5-.2-.1-.5-.2-.8-.4.4-6 5.2-12 13-16.7.6-.4 1.2-.7 1.9-1.1 5.6-3.1 12.6-5.5 20.2-6.8 7.2-1.2 14.1-1.3 20.2-.4.9.1 1.9.3 2.8.5 10.4 2.2 17.7 7.3 18.9 14.2.3.9.3 1.7.3 2.6z"/><path class="st2" d="M291.6 392.6c-1.6 1.1-3.3 2.1-5 3-.4.2-.8.4-1.2.7-.4.2-.9.5-1.3.7-.4.2-.9.4-1.3.6-.4.2-.9.4-1.3.6h-.1c-9.5 4.3-20 6.6-31 6.6-5.7 0-11.2-.6-16.5-1.8l-1.5-.3c-.5-.1-.9-.2-1.4-.4-.2 0-.4-.1-.6-.2-.5-.1-1-.3-1.5-.4-.4-.1-.7-.2-1.1-.3-.1 0-.2-.1-.3-.1-.3-.1-.7-.2-1-.3-1.6-.5-3.2-1.1-4.8-1.8-.7-5.9 3.5-11.9 10.8-16.6.6-.4 1.2-.8 1.9-1.1 5.3-3 11.9-5.4 19.2-6.6 6.9-1.2 13.4-1.2 19.1-.2 1 .2 1.9.3 2.8.5 8.9 2.1 15.2 6.6 16.2 12.7.3 1.7.3 3.2-.1 4.7z"/><ellipse class="st2" cx="283.4" cy="329.4" rx="35.7" ry="41.6"/><ellipse class="st41" cx="283.4" cy="329.4" rx="33.2" ry="38.7"/><ellipse class="st2" cx="283.4" cy="329.4" rx="29.8" ry="34.7"/><path class="st42" d="m253.2 279.4-30.3 4.8-11 28.6 19.3 23.8 30.3-4.8 11-28.6z"/><path class="st42" d="m261.3 330.4-30.3 4.8-10.9 28.7 19.3 23.8 30.3-4.9 10.9-28.6zm64.7-1.2c0 10.5-2.2 20.6-6.1 29.7l-4.9-6 10.8-28.2c.2 1.4.2 3 .2 4.5zm-44.6 69c-9.5 4.3-20 6.6-31.1 6.6-5.7 0-11.2-.6-16.5-1.8l5.5-14.5 30.3-4.8 1.8 2.2 10 12.3zm-19.5-143.9-.4 1-.7 1.9-.8 2.1-7.2 18.7-30.3 4.8-10.4-12.8-1.4-1.8-1.7-2.1-.3-.4c.5-.3.9-.6 1.4-.9.7-.5 1.5-.9 2.2-1.3.4-.2.7-.4 1.1-.6.4-.2.8-.4 1.1-.6 1.1-.6 2.3-1.2 3.4-1.7.2-.1.5-.2.7-.3.6-.3 1.2-.5 1.8-.8.4-.2.8-.3 1.2-.5.4-.2.8-.3 1.2-.5.1 0 .3-.1.4-.2.4-.1.8-.3 1.1-.4.7-.3 1.5-.5 2.2-.8.8-.3 1.7-.5 2.5-.8.4-.1.8-.2 1.1-.3l1.2-.3c.5-.1 1-.2 1.4-.4.4-.1.9-.2 1.3-.3.3-.1.6-.1.9-.2.3-.1.6-.1.8-.2.3-.1.6-.1.9-.2.7-.1 1.4-.2 2.1-.4h.1c.6-.1 1.2-.2 1.8-.2.6-.1 1.2-.2 1.8-.2.3 0 .6-.1.9-.1.5 0 .9-.1 1.3-.1 1.8-.1 3.6-.2 5.5-.2 1.8 0 3.6.1 5.3.2.3 0 .6 0 .9.1 2.1.4 3.9.6 5.6.8zm-40.6 27.4-3.6 9.5-.9 2.3-.8 2-1.7 4.5-.4 1-1.1 3-2.4 6.3-20.3 3.2-4 .6-.8.1-2.6.4-1.2.2-1.4.2-.1-.1-3.2-3.9c2.9-11.8 8.5-22.4 16.1-31.3l1.8-2.1c.5-.5 1-1.1 1.5-1.6 1.1-1.1 2.2-2.2 3.4-3.2 1.1-1 2.2-1.9 3.3-2.8 1.8-1.4 3.6-2.8 5.5-4.1l.3.4 12.6 15.4zm88.5.7-4.9 12.9-.3.8-.2.4-.4 1.1-.1.2-1.1.2-5.3.9-23.8 3.8-3.5-4.3-2.5-3-1.7-2.1-1.2-1.5-1-1.3-1.5-1.8-7.9-9.7 8.8-22.9.5-1.3c.8.1 1.6.3 2.4.5.7.2 1.4.3 2.1.5h.2l2.4.6c.5.1 1 .3 1.5.4.6.2 1.3.4 1.9.6.6.2 1.1.4 1.7.6.1 0 .1 0 .2.1.4.1.8.3 1.2.5 2.3.9 4.6 1.9 6.8 3 .5.3 1.1.5 1.6.8.7.3 1.3.7 1.9 1 .6.3 1.1.6 1.6.9 1.1.6 2.1 1.3 3.2 2 .5.3 1 .7 1.5 1.1.5.3 1 .7 1.5 1 .5.3.9.7 1.4 1 .2.1.3.2.5.4.4.3.8.6 1.1.9.5.4 1 .8 1.4 1.2l3 2.7.9.9c.3.3.7.6 1 1 1.6 1.7 3.4 3.7 5.1 5.9zm9.4 78.2c-.2.5-.5 1-.7 1.5-.3.6-.6 1.2-.9 1.7-.2.4-.5.9-.7 1.3-2.1 3.8-4.5 7.4-7.1 10.8-.2.3-.5.6-.7.9-.6.8-1.3 1.5-1.9 2.3-.4.4-.7.8-1.1 1.2-3 3.2-6.2 6.2-9.8 8.9-.3.2-.6.5-.9.7l-2.1 1.5c-.6.4-1.2.8-1.7 1.2-1.6 1.1-3.3 2.1-5 3-.4.2-.8.4-1.2.7-.4.2-.9.5-1.3.7-.4.2-.9.4-1.3.6-.4.2-.9.4-1.3.6h-.1l-9.9-12.2v-.1l4.1-10.6.8-2.1.5-1.3.6-1.5 1-2.7 1.5-3.8 2.5-6.5 22.2-3.5 5.2-.8 2.9-.5.2.2 6.2 7.8zm5.8-43.7-2.8-3.4-1.4-1.7-3.5-4.3-9.7-11.9 4.1-10.6c1.6 2.2 3.1 4.6 4.5 7l1.2 2.1c.4.7.7 1.5 1.1 2.2.2.5.5.9.7 1.4.2.3.3.6.4.9.9 2 1.7 4.1 2.4 6.2l.6 1.8.9 3c.1.4.2.9.3 1.3v.1c.2.9.4 1.7.6 2.6.1.3.1.6.2 1 .2.7.3 1.5.4 2.3zm-87.4 72-5.3 13.8c-.5-.1-.9-.2-1.4-.4-.2 0-.4-.1-.6-.2-.5-.1-1-.3-1.5-.4-.4-.1-.7-.2-1.1-.3-.1 0-.2-.1-.3-.1-.3-.1-.7-.2-1-.3-1.6-.5-3.2-1.1-4.8-1.8-.1-.1-.2-.1-.4-.2-.3-.1-.7-.3-1-.4-.1 0-.2-.1-.3-.1-.4-.1-.7-.3-1.1-.5-.2-.1-.5-.2-.8-.4-.7-.3-1.5-.7-2.2-1.1-.4-.2-.7-.4-1.1-.6-.4-.2-.7-.4-1.1-.6l-2.1-1.2-.9-.6c-.4-.2-.8-.5-1.1-.7-.7-.4-1.3-.9-2-1.3l-1.8-1.2c-.2-.1-.3-.2-.5-.4-.6-.5-1.2-.9-1.8-1.4-.4-.3-.9-.7-1.3-1-.5-.4-1-.9-1.5-1.3 0 0-.1 0-.1-.1-.5-.4-.9-.8-1.3-1.2-.1-.1-.2-.1-.2-.2-.5-.4-1-.9-1.4-1.3l-1.4-1.4c-.9-1-1.8-1.9-2.7-2.9-.4-.4-.7-.8-1-1.2-.3-.3-.5-.6-.8-1-.3-.4-.6-.8-1-1.2-.2-.3-.5-.6-.7-.9-.5-.6-.9-1.2-1.3-1.8-.4-.6-.9-1.2-1.3-1.8l.5-1.4 4.1-.6 1.3-.2 3.6-.6 21.3-3.4 5.6 7 2 2.5 1.2 1.5 2.8 3.5 1.2 1.5 1.4 1.7 5.2 6.2zm-9.3-53.2-11 28.6-30.3 4.8-3.6-4.4c-5.7-10.6-8.9-22.7-8.9-35.6v-1.9l4-10.6 30.3-4.8 19.5 23.9zm77.1-37.3-30.3 4.8-11 28.6 19.4 23.8 30.3-4.8 10.9-28.6z"/></g></svg>