<svg version="1.1" id="Layer_1" xmlns="http://www.w3.org/2000/svg" xmlns:xlink="http://www.w3.org/1999/xlink" x="0" y="0" viewBox="0 0 1000 845" style="enable-background:new 0 0 1000 845" xml:space="preserve"><style>.st0{fill:#cfb5f6}.st2{fill:#fff}.st5{fill:#4570ad}.st7{fill:#172433}.st8{fill:#0a0a0a}.st10{fill:none;stroke:#0a0a0a;stroke-miterlimit:10}.st12{fill:#393738}.st13{fill:#243873}.st14{fill:#ff4d53}.st15{fill:#e6e7e8}.st20{fill:#3c3c3e}.st21,.st22{stroke-miterlimit:10}.st21{fill:none;stroke:#fff;stroke-width:3;stroke-linecap:round}.st22{fill:#f88a11;stroke:#939598}.st23{fill:#1a2c36}.st24{fill:#5f31a8}.st27{fill:#23171b}.st31{fill:#e2dec5}.st32{fill:#a8291a}.st34,.st35{fill:#2f2c27}.st35{opacity:.32}.st41,.st42{clip-path:url(#SVGID_2_);fill:#fff}.st42{fill:#2f2f2f}.st44{fill:none;stroke:#d1d3d4;stroke-miterlimit:10}</style><path class="st0" d="M64.3 459.1C-55.7 754.8 162.4 845 442.8 845s502-46.7 525.4-404.6C986.5 160.6 740.9 10.8 460.4 10.8S169.6 199.3 64.3 459.1z"/><path d="M103.3 452.8c-112.4 277 91.9 361.5 354.6 361.5s470.3-43.7 492.3-379.1C967.4 173 737.2 32.7 474.5 32.7S202 209.3 103.3 452.8z" style="fill:#7a57bc"/><path class="st2" d="M920.4 434.5c-4.4 66.4-16.5 120.6-35.2 164.8C815.3 764.7 653 790.2 458.5 790.2c-201 0-365.6-52.7-362.3-213.1.7-36.3 10.1-78.2 29.5-126.2C218.4 222.5 227.5 56.8 474 56.8s462.5 131.7 446.4 377.7z"/><path d="M740.1 692.9c-3.4-2.7-4.2-7.5-2.1-11.3 4-6.9 13.6-17.5 35.9-20.4 34.1-4.5 46.8 13.4 46.8 13.4s14.1 17.1 0 21.5c-13 4.2-59.5 14-80.6-3.2z" style="fill:#414042"/><ellipse cx="781.9" cy="676.4" rx="34.2" ry="5.1" style="opacity:.51;fill:#0a0a0a"/><path class="st5" d="M761.7 674.6c-17.3-9.6-45.7-35.7-45.6-103.7 0-19.6 4.6-38.9 13.9-56.2 9.6-17.9 25.7-36.5 51.8-40.7 3.4-.6 6.9-.3 10.3.6 15.9 4.6 62.9 39.6 58.5 110.9-4.3 69.1-37.2 89.8-63.1 92.5-9.1 1-18 .9-25.8-3.4z"/><path d="M746.5 635.3c-2.3-6.3-4.1-12.7-5.7-19.3-1.5-6.5-2.6-13.2-3.3-19.8-.8-6.7-1-13.4-1-20.1.1-6.7.5-13.4 1.2-20.1.8-6.7 2-13.3 3.5-19.8s3.2-13 5.4-19.4c2.1-6.4 4.6-12.6 7.3-18.7 2.8-6.1 5.8-12.1 9.1-17.9-3 6-5.9 12-8.4 18.2-2.5 6.2-4.8 12.4-6.8 18.8-4 12.7-7 25.8-8.5 39-1.6 13.2-1.8 26.6-.6 39.9.6 6.6 1.6 13.2 2.8 19.8 1.3 6.5 3 13 5 19.4z" style="fill:#19303e"/><circle class="st7" cx="550.9" cy="578.7" r="68.3"/><circle class="st7" cx="550.9" cy="578.7" r="61.4"/><circle class="st7" cx="550.9" cy="576.2" r="52.5"/><circle class="st8" cx="550.9" cy="576.2" r="36.7"/><circle cx="550.1" cy="573.8" r="21.1" style="fill:#e0dcdd"/><circle class="st8" cx="550.1" cy="573.8" r="19.8"/><circle class="st10" cx="550.9" cy="576.2" r="47.1"/><circle class="st10" cx="550.9" cy="576.2" r="44.3"/><circle cx="550.1" cy="573.8" r="16.1" style="opacity:.56;fill:#e0dcdd"/><circle class="st10" cx="550.9" cy="576.2" r="41.3"/><path transform="rotate(-6.28 486.62 586.535)" class="st12" d="M483 584h7.2v4.8H483z"/><path transform="rotate(-14.557 488.586 595.06)" class="st12" d="M484.9 592.6h7.2v4.8h-7.2z"/><path transform="rotate(-22.347 490.842 603.061)" class="st12" d="M487.6 600.7h6.5v4.8h-6.5z"/><path class="st12" d="M482.6 576.3h7.2v4.8h-7.2z"/><path transform="matrix(.06072 -.9982 .9982 .06072 -112.542 1021.788)" class="st12" d="M484.3 567.1h4.8v7.2h-4.8z"/><path transform="rotate(-83.731 615.084 585.444)" class="st12" d="M612.7 581.8h4.8v7.2h-4.8z"/><path transform="rotate(-75.446 613.206 594.016)" class="st12" d="M610.9 590.4h4.8v7.2h-4.8z"/><path transform="rotate(-67.654 610.903 602.11)" class="st12" d="M608.5 598.8h4.8v6.5h-4.8z"/><path class="st12" d="M611.9 575.4h7.2v4.8h-7.2z"/><path transform="matrix(.9982 -.06072 .06072 .9982 -33.46 38.4)" class="st12" d="M611.5 567.4h7.2v4.8h-7.2z"/><g><path transform="rotate(-47.242 597.578 623.331)" class="st12" d="M595.2 619.7h4.8v7.2h-4.8z"/><path transform="rotate(-38.956 590.976 629.11)" class="st12" d="M588.6 625.5h4.8v7.2h-4.8z"/><path transform="rotate(-31.163 584.326 634.216)" class="st12" d="M581.9 631h4.8v6.5h-4.8z"/><path transform="rotate(-53.511 602.51 617.375)" class="st12" d="M600.1 613.8h4.8v7.2h-4.8z"/><path transform="rotate(-56.995 606.882 610.715)" class="st12" d="M604.5 607.1h4.8v7.2h-4.8z"/></g><g><path transform="rotate(-9.009 560.701 642.497)" class="st12" d="M558.5 639h4.8v7.2h-4.8z"/><path transform="rotate(-.725 552.012 643.137) scale(.99998)" class="st12" d="M549.7 639.5h4.8v7.2h-4.8z"/><path transform="rotate(-82.929 543.674 643)" class="st12" d="M540.4 640.6h6.5v4.8h-6.5z"/><path transform="rotate(-15.277 568.377 641.044)" class="st12" d="M566 637.4h4.8v7.2H566z"/><path transform="rotate(-18.755 575.98 638.45)" class="st12" d="M573.6 634.9h4.8v7.2h-4.8z"/></g><g><path transform="rotate(-62.987 519.644 635.049)" class="st12" d="M516.1 632.7h7.2v4.8h-7.2z"/><path transform="rotate(-54.697 512.309 630.29)" class="st12" d="M508.7 627.9h7.2v4.8h-7.2z"/><path transform="rotate(-46.906 505.594 625.285)" class="st12" d="M502.3 622.9h6.5v4.8h-6.5z"/><path transform="rotate(-37.203 499.534 618.271)" class="st12" d="M495.9 615.9h7.2v4.8h-7.2z"/><path transform="rotate(-28.919 494.808 610.82)" class="st12" d="M491.5 608.4h6.5v4.8h-6.5z"/><path transform="rotate(-69.256 526.723 638.844)" class="st12" d="M523.3 636.5h6.9v4.8h-6.9z"/><path transform="rotate(-72.734 534.367 641.449)" class="st12" d="M530.7 639h7.2v4.8h-7.2z"/></g><g><path class="st12" d="m603.6 546.9 6.1-3.2 2.2 3.9-6 3.3zM598.8 540l5.5-4.1 2.8 3.6-5.5 4zM593.2 534.2l5.1-5 3.8 3.8-5.1 5zM607 553l6.4-2.8 1.5 3.9-6.3 2.8zM608.9 559.7l7-2.4 1.6 4.5-7 2.3z"/></g><g><path class="st12" d="m573.4 521.2 3-6 4.3 2-3 6.1zM565.5 518.8l2.1-6.5 4.5 1.5-2 6.4zM557.9 517.3l1.2-6.6 4.8.7-1.3 6.7zM580 524.4l3.7-5.6 4 2.4-3.7 5.7zM586.4 528.7l4.1-5.4 3.9 2.6-4.1 5.5z"/></g><g><path class="st12" d="m543.3 517.2-.3-6.5 4.6-.3.3 6.5zM535.2 518.9l-1.4-6.6 4.7-1 1.4 6.6zM527.8 521.4l-2.1-6.4 4.5-1.7 2.1 6.4zM550.6 516.8l.4-6.6 4.6.2-.4 6.5z"/></g><g><path class="st12" d="m509.8 533.2-4.8-4.9 3.5-3.1 4.9 4.8zM504.5 538.8l-5.6-4.1 3-3.5 5.6 4.1zM499.8 544.9l-5.9-3.2 2.5-3.9 6 3.3zM496.3 551.2l-6.6-2.3 1.7-4.2 6.7 2.3zM492.8 557.9l-6.1-1.9 1.5-4.2 6.2 1.9zM490.2 565.5l-6.3-1.1 1-4.4 6.4 1.1zM515.1 528.1l-4.2-4.8 3.8-2.5 4.1 4.9zM521.3 524.8l-3.9-5.5 4-2.5 3.9 5.5z"/></g><g><path class="st13" d="M419.1 644.7v22.8s-1.7 9.2-40 6.4c0 0-16.9-2.2-33.6.5-16.7 2.7-30 0-32.6-2.5v-23.3l106.2-3.9z"/><path class="st14" d="M419.1 626.9v22.8s-1.7 9.2-40 6.4c0 0-16.9-2.2-33.6.5-16.7 2.7-30 0-32.6-2.5v-23.3l106.2-3.9z"/><path class="st15" d="M334.1 623.3s-39.5 8.6-10.6 11.5c29 2.9 37.9.5 37.9.5s12.2-.7 39 .9c20 1.2 25.1-11.4 10-13.9s-31.2-4.8-31.2-4.8-36.6 3.7-45.1 5.8z"/><path transform="rotate(-59.681 434.461 529.478)" style="fill:#a7a9ac" d="M353.2 527.9h162.5v3.2H353.2z"/><path d="m380.5 610.8-19.1-9.7s-6.9-1.7-7.2 9.7c-.2 11.4 19.8 16.9 28 10.4 8.2-6.5 14.4-21.6 14.4-21.6l-4.5-3.1c0-.1-6.9 16.5-11.6 14.3z" style="fill:#bcbec0"/><path d="M373.8 619.2c-3.9 0-9.2-.7-13.8-3.7-2.4-1.6-3.7-3.1-4-4.8-.2-1 .1-2 .7-2.9 1.4-1.9 4.1-2.6 6.4-1.6l16.9 7.2c.6.3.9 1 .6 1.6-.3.6-1 .9-1.6.6l-16.9-7.2c-1.3-.5-2.7-.2-3.5.8-.3.5-.3.8-.3 1.1.1.5.6 1.6 3 3.2 7.4 4.9 17.5 2.9 17.6 2.9.7-.1 1.3.3 1.4.9.1.7-.3 1.3-.9 1.4-.2 0-2.5.5-5.6.5z" style="fill:#939598"/><path class="st13" d="m473.6 457.9 38.9-66.1c0-1.4 1.4-2.4 3-2.5 1.2-.1 2.5.2 3.6 1.7 1.3 1.8 1.2 4.2 0 6.9L476.9 461l-3.3-3.1z"/><circle class="st5" cx="364.1" cy="617" r="9.9"/><ellipse transform="rotate(-45.001 369.477 612.664)" cx="369.5" cy="612.7" rx="2.1" ry="3" style="opacity:.6;fill:#fff"/></g><g><path class="st20" d="m181.3 560.8-3.8 5.8 3.4 7.2s4.3-3.6 6.9 2.6c0 0 3.6 4.5 9.2 4.5 0 0 1.2-3.8 6 2.3l4.9 1.8s2.3-5.5 6.2-1.6l1.1 3.4 7.1.9s.4-3.9 4.3-2.3c0 0 3.6 5.7 7.6 2.2 0 0 1.3-4.9 5.5-2.6 0 0 1.4 4.7 4.5 2.7s.9-4.4 5.5-4c4.6.4 5.1 1.9 5.1 1.9s1.8 1.1 2.2-2.3c.4-3.5 7-6 7-6l4.8-5.9s5.5-.5 8.6-3.8l6.3 2.4 1-2.7s-13.9-2.4-14.7-2.5c-.8 0-20.4 17.7-40.7 15.5s-48-19.5-48-19.5z"/><path class="st5" d="M310.1 557.1c-5.6 9.5-24.7 10.4-31.9 10.4h-.8c-6.4 0-13.5 8.4-13.5 8.4-26.9 19.5-85.1-.8-84.3-12.6.8-11.8 11-13.1 11-13.1.5.1 1.1.1 1.7 0 6.7-.6 20.7-6.9 20.7-6.9l19-20.4s9.3-6.5 13.8-15 9.3-6.4 9.3-6.4l2.8-3.9c5.8-16 24.3-1.3 24.3-1.3s4.2-.5 13.7 1.6 10.4 9.6 10.7 13c.1.6.1 1.4.2 2.1v.1c.4 3.2 1 7.1 1 7.1.1.6.2 1.2.4 1.8 1.3 6.6 2 12.7 2.3 17.7.6 10.8-.4 17.4-.4 17.4z"/><path class="st15" d="m279.5 565.3-1.8 2.2h-.3c-6.4 0-13.5 8.4-13.5 8.4-26.9 19.5-85.1-.8-84.3-12.6.8-11.8 11-13.1 11-13.1.5.1 1.1.1 1.7 0 11.3 8.9 7 9 16.9 10.9 9.9 1.9 17.2 6.1 20.2 10.3 2.9 4.2.8.8.8.8l9.1-1.8s.2 7.1 3.6 6.5c3.4-.6 4.7-1.9 3.7-6.4l-1-4.5 8.1-3.3 5.3 9.2 6.2-4-.8-10.4 5.1-3.8 4.4 7.4 6.1-6.4s-2.8-7.4 5-13.2c7.7-5.8 21.5-21.7 21.8-28.6v.2l1.4 8.8v.1c0 .1-28.4 36.9-28.7 43.3z"/><path class="st15" d="M310.1 557.1c-5.6 9.5-24.7 10.4-31.9 10.4l9.7-17.6s5.4-2.4 14-3.5c4.4-.6 7-3.8 8.5-6.8.7 10.9-.3 17.5-.3 17.5z"/><path class="st21" d="m243.2 574-3.8-23.7s.6-7.8 5.2-2c4.7 5.8 14.6 19.5 14.6 19.5s4.6 6.1 3.5-2.4-7-26.3-7-26.3-.3-5.7 3.4-1.4c1.9 2.2 5.2 5.8 8 8.9 2.5 2.7 4.5 5.9 6.1 9.2 1 2 2.5 3.2 4.3-1.2 0 0 3.9-12.5-3.8-22.8-7.8-10.3 5.4-2.5 5.4-2.5l24 14.9"/><path class="st2" d="m222.9 542.1 3.5 1.3s4.4-5.5 10.2-9.6 13.3-12.5 13.3-12.5 3.7-5.3 9.2-7.3l9.8-8.4-6.3-3.5-7.5 9.5s-6.8 4.3-9.5 8.1-10.9 7.4-12.1 12.5c.1-.1-10.2 4.7-10.6 9.9z"/><path class="st15" d="M224.3 541.6c-2.7-1-4.8-1.9-5.4-2.1-.4-.2-.6-.6-.4-1.1.2-.4.6-.6 1.1-.4 7.1 2.9 18.6 7 21.3 6.4.5-.1.7-.3.7-.3.2-.5-1.1-2.3-2.2-4-1.3-1.8-2.9-4.1-4.3-6.8-3.6-7.2-4.1-10.4.8-14.3 2.6-2.1 11.8-.2 24.5 2.7 4.8 1.1 10.1 2.3 11.8 2.3-.8-1.6-4.9-6-7.9-9.4-8.2-8.9-10.6-11.9-9.7-13.5.1-.2.4-.5.9-.6 3.3-.7 20.2 10.8 23.5 13.1.4.3.5.8.2 1.1-.3.4-.8.5-1.1.2-9-6.2-19.7-12.7-22-12.8.5 1.7 5.8 7.5 9.4 11.4 7.3 8 9.1 10.1 8.3 11.4-.7 1.2-3.2.8-13.8-1.7-8.3-1.9-20.9-4.8-23.1-3.1-3.6 2.9-4.1 4.9-.3 12.3 1.3 2.6 2.9 4.8 4.2 6.6 1.8 2.5 2.9 4.1 2.4 5.5-.3.7-.9 1.1-1.9 1.3-2.9.8-11.3-2.1-17-4.2z"/><path class="st15" d="M223.8 546.7c-.3-.1-.5-.3-.5-.6-.2-1.3-2.2-12.8 1.8-15.1 1.6-.9 5.4-.5 11.5.2s13.8 1.6 15.9-.1c.3-.2.4-.5.4-.8.3-4.3-5.6-11.3-8.1-14.1-1.9-2.1-1.9-5.2-.1-7.2 6.3-7.1 28.1-.6 29-.3.4.1.7.6.5 1-.1.4-.6.7-1 .5-.2-.1-21.7-6.5-27.4-.2-1.2 1.4-1.2 3.6.1 5.1 3.3 3.7 8.8 10.6 8.5 15.3-.1.8-.4 1.5-1 2-2.6 2.2-10 1.3-17.1.5-4.4-.5-9.3-1.1-10.5-.4-2.3 1.3-1.8 9-1 13.5.1.4-.2.9-.7.9 0-.1-.1-.1-.3-.2z"/><path class="st15" d="M221.6 547.1c-1.4-.5-2.7-1.3-3.4-2.5-1.1-1.8-.9-4.1.7-6.8.3-.6 1-.7 1.6-.4.6.3.7 1 .4 1.6-1.1 1.9-1.3 3.3-.7 4.4 1.5 2.4 7.5 2.6 9.8 2.4 2.7-1.6 28.2-16.7 38.2-28.8 4-4.9 8.1-7.3 12.1-7.3 5.7 0 9.8 5.2 11.8 7.7 1.2 1.5 1.7 1.5 1.7 1.5.1-.1.4-.8.4-1.4 0-14.5 6.9-14.9 7.2-14.9.6 0 1.2.5 1.2 1.1 0 .6-.5 1.2-1.1 1.2-.1 0-4.9.7-4.9 12.7v.1c0 .5-.3 3-2.1 3.5-1.9.6-3.6-1.6-4.2-2.3-1.9-2.4-5.4-6.8-10-6.8-3.2 0-6.7 2.2-10.2 6.5-10.8 13.1-37.9 28.8-39.1 29.5l-.2.1h-.3c-.8 0-5.4.2-8.9-1.1z"/></g><g><path class="st20" d="m220.6 624-1.5 6.8 5.7 5.6s2.7-4.9 7.4 0c0 0 4.9 2.9 10.1.9 0 0-.2-4 6.4 0h5.2s.2-5.9 5.2-3.7l2.2 2.8 6.9-1.7s-1-3.8 3.2-3.7c0 0 5.4 4 7.9-.7 0 0-.5-5 4.2-4.3 0 0 3 4 5.2 1s-.7-4.4 3.7-5.7c4.5-1.3 5.4 0 5.4 0s2.1.4 1.2-3 4.5-8 4.5-8l2.4-7.2s5-2.4 6.7-6.6h6.7v-2.9s-13.9 2.6-14.6 2.9c-.7.2-12.9 23.7-32.7 28.8-19.5 5-51.4-1.3-51.4-1.3z"/><path class="st5" d="M339.9 575.2c-1.9 10.9-19.5 18.4-26.2 21-.2.1-.3.1-.5.2-.1 0-.2.1-.3.1-6 2.2-9.6 12.6-9.6 12.6-18.3 27.7-79.9 29.2-83.4 17.8-3.5-11.4 5.7-16.1 5.7-16.1.5-.1 1-.3 1.6-.6 6.1-2.9 16.9-13.8 16.9-13.8l10.6-25.8s6.4-9.4 7.7-18.9c1.2-9.5 6.4-9.3 6.4-9.3l1.2-4.7c-.2-17 22.3-9.7 22.3-9.7s3.7-2 13.4-3.3c9.6-1.3 13.1 5.3 14.6 8.4.3.6.6 1.2 1 1.9v.1c1.5 2.9 3.4 6.2 3.4 6.2.3.5.7 1 1 1.5 3.6 5.8 6.3 11.2 8.4 15.8 4.4 10 5.8 16.6 5.8 16.6z"/><path class="st15" d="m314.1 593.6-.9 2.8c-.1 0-.2.1-.3.1-6 2.2-9.6 12.6-9.6 12.6-18.3 27.7-79.9 29.2-83.4 17.8-3.5-11.4 5.7-16.1 5.7-16.1.5-.1 1-.3 1.6-.6 13.7 4.3 9.8 6 19.7 4.3 9.9-1.7 18.3-.4 22.5 2.5 4.2 2.9 1 .5 1 .5l7.9-4.8s2.7 6.6 5.7 4.8c3-1.8 3.7-3.4 1.2-7.3l-2.5-3.9 6.4-5.9 8.2 6.7 4.4-5.9-4.4-9.5 3.5-5.4 6.7 5.4 3.5-8.1s-5.2-6 0-14.1c5.2-8.2 12.5-27.9 10.3-34.5v.2l4.4 7.8.1.1s-13.6 44.4-11.7 50.5z"/><path class="st15" d="M339.9 575.2c-1.9 10.9-19.5 18.4-26.2 21l2.9-19.9s4.2-4.1 11.9-8.2c3.9-2.1 5.2-6 5.6-9.4 4.4 9.9 5.8 16.5 5.8 16.5z"/><path class="st21" d="m283.2 614.5-11.9-20.9s-2.2-7.5 4.2-3.7S296 603 296 603s6.4 4.1 2.5-3.5c-4-7.6-15.8-22.1-15.8-22.1s-2.3-5.2 2.7-2.5c2.6 1.4 6.9 3.6 10.6 5.5 3.3 1.7 6.2 3.9 8.9 6.5 1.6 1.6 3.4 2.2 3.6-2.6 0 0-.7-13.1-11.6-20s4.2-4.3 4.2-4.3l27.7 5.5"/><path class="st2" d="M253 591.7h3.7s2.2-6.7 6.2-12.6c4-5.9 8-16.4 8-16.4s1.6-6.3 6.1-10l6.2-11.3-7.1-1.1-3.7 11.5s-4.8 6.4-6.1 10.9c-1.2 4.5-7.6 10.7-6.9 15.9.1.1-7.9 8.2-6.4 13.1z"/><path class="st15" d="M254.1 590.8c-2.9 0-5.2-.1-5.8-.1-.4 0-.8-.4-.8-.8s.4-.8.8-.8c7.7.2 19.9 0 22.2-1.5.4-.3.5-.5.5-.6 0-.6-1.9-1.8-3.5-2.9-1.9-1.2-4.2-2.8-6.4-4.9-5.9-5.4-7.5-8.3-4.3-13.7 1.7-2.9 11-4.3 23.9-6.1 4.9-.7 10.3-1.4 11.9-2-1.3-1.2-6.7-3.9-10.7-6-10.8-5.5-14.1-7.5-13.8-9.2 0-.2.2-.6.6-.9 2.9-1.9 22.7 3 26.6 3.9.4.1.7.5.6 1-.1.4-.5.7-1 .6-10.6-2.7-22.9-5-25.1-4.3 1.1 1.4 8.1 5 12.8 7.4 9.6 4.9 12 6.3 11.8 7.7-.2 1.4-2.7 1.9-13.5 3.3-8.5 1.1-21.3 2.9-22.7 5.3-2.4 4-2.1 6 4 11.6 2.2 2 4.4 3.5 6.2 4.7 2.5 1.7 4.2 2.8 4.2 4.3 0 .7-.4 1.3-1.3 1.9-2.2 1.8-11.1 2.1-17.2 2.1z"/><path class="st15" d="M255.5 595.8c-.3 0-.5-.1-.7-.4-.7-1.1-6.6-11.2-3.6-14.8 1.1-1.4 4.9-2.4 10.9-3.9s13.5-3.3 14.8-5.7c.2-.3.2-.6.1-1-1.3-4.2-9.2-8.7-12.5-10.4-2.5-1.3-3.6-4.2-2.6-6.7 3.4-8.9 26.1-10.4 27.1-10.5.5 0 .8.3.9.8 0 .4-.3.8-.8.9-.2 0-22.6 1.6-25.7 9.5-.7 1.7.1 3.8 1.9 4.7 4.4 2.3 11.9 6.8 13.3 11.4.2.8.1 1.5-.3 2.2-1.7 3-8.9 4.7-15.8 6.5-4.3 1.1-9.1 2.3-10 3.3-1.7 2 1.4 9 3.8 13 .2.4.1.9-.3 1.1-.2-.1-.4 0-.5 0z"/><path class="st15" d="M253.6 596.9c-1.5 0-3-.3-4.1-1.2-1.7-1.3-2.3-3.5-1.8-6.6.1-.6.7-1.1 1.3-1 .6.1 1.1.7 1 1.4-.4 2.1-.1 3.6.9 4.3 2.2 1.7 7.9-.2 10.1-1.2 2-2.5 20.5-25.6 25.6-40.4 2.1-6 5-9.7 8.7-11.1 5.3-2 11 1.4 13.7 3 1.6 1 2.2.8 2.2.8.1-.1.1-.9-.1-1.5-5.1-13.6 1.2-16.4 1.5-16.5.6-.2 1.3 0 1.5.6.2.6 0 1.3-.6 1.5-.1.1-4.4 2.4-.2 13.6v.1c.1.5.7 2.9-.7 4.1-1.6 1.2-4-.2-4.8-.7-2.6-1.5-7.4-4.4-11.7-2.8-3 1.1-5.5 4.4-7.3 9.7-5.5 16-25.4 40.4-26.2 41.4l-.2.2-.2.1c-.7.3-4.9 2.2-8.6 2.2z"/></g><g><path class="st22" d="M730.6 457c-.8 7.8-6.7 14.7-14.2 17.2-10.7 3.6-18.7-3.8-23.5-10.7-2.8-4-5-8.5-6.4-13.3l-42.3-136.1L611 207.3s-6.3-4.5 1.4-5.6c7.6-1.1 5.1 5.6 5.1 5.6s17.9 50.2 37.4 105c22 61.7 46.1 129.2 49 137.2 5.6 15 8.9 5 8.9 5-2.8-8.4 5.6-12.1 5.6-12.1 11.7-.1 13 7.4 12.2 14.6z"/><path class="st23" d="m654.7 312.3-10.6 1.8-33.2-106.8s-6.3-4.5 1.4-5.6c7.6-1.1 5.1 5.6 5.1 5.6s17.8 50.3 37.3 105z"/></g><g><path class="st22" d="M558 457c.8 7.8 6.7 14.7 14.2 17.2 10.7 3.6 18.7-3.8 23.5-10.7 2.8-4 5-8.5 6.4-13.3l42.3-136.1 33.2-106.8s6.3-4.5-1.4-5.6c-7.6-1.1-5.1 5.6-5.1 5.6s-17.9 50.2-37.4 105c-22 61.7-46.1 129.2-49 137.2-5.6 15-8.9 5-8.9 5 2.8-8.4-5.6-12.1-5.6-12.1-11.7-.1-13 7.4-12.2 14.6z"/><path class="st23" d="m633.9 312.3 10.6 1.8 33.2-106.8s6.3-4.5-1.4-5.6c-7.6-1.1-5.1 5.6-5.1 5.6s-17.8 50.3-37.3 105z"/></g><g><circle class="st24" cx="647.2" cy="461" r="13.5"/><circle cx="642.1" cy="462.5" r="2.1" style="opacity:.46;fill:#e2dcde"/><path d="M657.1 457.7c-.1 0-.3-.1-.3-.2-2.9-4.2-6-6.4-9.3-6.4h-.1c-5.5 0-9.7 5.9-9.7 5.9-.1.2-.4.2-.6.1-.2-.1-.2-.4-.1-.6.2-.3 4.5-6.3 10.4-6.3h.1c3.6 0 7 2.3 10 6.7.1.2.1.4-.1.6-.2.2-.3.2-.3.2z" style="fill:#242225"/></g><g><path class="st14" d="M866.6 335.2c0 44.5-36.1 80.6-80.5 80.6-10.5 0-20.5-2-29.6-5.6-1.7-.7-3.3-1.4-4.9-2.1-15.3-7.3-28-19.3-36.1-34.2-4.6-8.4-7.8-17.7-9.1-27.6-.5-3.6-.8-7.3-.8-11 0-10.1 1.9-19.7 5.2-28.5 9-23.8 29-42.2 53.8-49.1l3.6-.9c5.8-1.3 11.8-2 17.9-2 21.7 0 41.3 8.6 55.8 22.5 15.2 14.4 24.7 35 24.7 57.9z"/><path class="st27" d="M768.1 256.6c-1.8 1.3-3.5 2.6-5.2 4.1-8.5 7-15.6 15.5-21 25-2.6 4.8-4.8 9.8-6.6 14.9l-1.2 3.9-.3 1-.2 1-.5 2c-.7 2.6-1.1 5.3-1.6 8-.6 3.6-.9 7.3-1.1 10.9 0 .6 0 1.1-.1 1.7-.2 6.7.1 13.4.9 20 0 .4.1.7.1 1.1 0 .5.1 1 .2 1.4.3 1.9.6 3.7.9 5.6.2 1.4.5 2.7.8 4l.9 4c.7 2.6 1.4 5.3 2.3 7.9.2.6.4 1.1.6 1.7.7 2 1.4 4 2.2 6 4 10.2 9.6 19.7 16.3 28.3.3.3.5.7.8 1-1.7-.7-3.3-1.4-4.9-2.1-2.7-3.5-5.3-7.1-7.5-11-.8-1.2-1.4-2.4-2.1-3.7-.7-1.2-1.4-2.4-2-3.7-1.2-2.5-2.5-5-3.5-7.6-1.1-2.7-2.1-5.4-3-8.2-.2-.5-.3-1-.5-1.5L731 366l-.9-4.1c-.3-1.4-.6-2.7-.8-4.1-.4-2.2-.8-4.5-1.1-6.7-.1-.4-.1-.9-.1-1.3v-.3l-.4-4.2c-.2-1.4-.2-2.8-.3-4.2l-.2-4.2v-4.2c0-1.3 0-2.6.1-3.9 0-.5.1-1.1.1-1.6.1-1 .1-1.9.2-2.9 0-1.4.3-2.8.4-4.2.2-1.4.3-2.8.6-4.2.5-2.8 1-5.5 1.7-8.2l.5-2 .3-1 .3-1 1.3-4c1.9-5.3 4.2-10.4 7.1-15.3 5.7-9.7 13.3-18.1 22.2-25 .9-.7 1.7-1.3 2.6-1.9 1.1-.3 2.3-.6 3.5-.9z"/><path class="st27" d="M710.7 306.6c.1 1.6.4 3.2.8 4.8.4 1.6.9 3.1 1.6 4.6 1.3 3 3.2 5.6 5.6 7.6 2.5 2 5.5 3.2 8.6 3.6 3.1.4 6.3.1 9.4-.6 6.2-1.3 12.2-4 17.8-7.1 2.8-1.5 5.6-3.2 8.4-4.9l8.1-5.4c2.7-1.8 5.4-3.6 8.2-5.4 2.8-1.7 5.5-3.5 8.3-5.2l8.5-4.9c2.9-1.6 5.7-3.2 8.7-4.6 5.8-3 11.8-5.7 18-8l2.3-.8 1.2-.4 1.2-.4 2.4-.7 2.4-.6c.8-.2 1.6-.4 2.4-.5.8-.1 1.6-.3 2.4-.4l1.2-.1c.4 0 .8 0 1.2-.1.8 0 1.6 0 2.5.1-.8-.1-1.6 0-2.4.1-.4.1-.8.1-1.2.2l-1.2.2c-.8.1-1.6.4-2.4.5-.8.2-1.6.4-2.3.7-.8.2-1.6.5-2.3.7l-2.3.8-1.1.4-1.1.5-2.3.9c-1.5.6-3 1.3-4.5 2-.7.3-1.5.7-2.2 1l-2.2 1.1c-1.4.7-2.9 1.4-4.4 2.2l-4.3 2.3c-1.4.7-2.8 1.6-4.3 2.4l-4.2 2.4-8.4 5.1-8.2 5.2c-2.7 1.7-5.4 3.6-8.1 5.4l-8.2 5.4c-2.8 1.7-5.6 3.4-8.5 4.9-2.9 1.5-5.9 2.9-9 4.1-.8.3-1.6.6-2.3.8-.8.3-1.6.6-2.4.8-1.6.4-3.2.9-4.9 1.1-3.3.6-6.7.9-10 .3-3.3-.6-6.6-2-9.1-4.2-2.5-2.3-4.3-5.2-5.4-8.3-1.3-3-1.9-6.3-2-9.6zM706.2 346.2c6.7 1.4 13.4 2.5 20.2 3.4 6.7.9 13.5 1.6 20.3 2.2 13.6 1.1 27.2 1.4 40.7.8 3.4-.1 6.8-.4 10.2-.6 3.4-.3 6.8-.6 10.1-1 1.7-.2 3.4-.4 5-.6l5-.8c1.7-.3 3.3-.6 5-.9l2.5-.4 2.5-.5c13.3-2.8 26.3-6.9 38.8-12.4-3.1 1.5-6.1 3.2-9.2 4.5-1.6.7-3.1 1.4-4.7 2l-4.8 1.9c-6.4 2.3-13 4.4-19.7 5.9-6.7 1.6-13.4 2.8-20.2 3.7-6.8.9-13.6 1.5-20.5 1.8-6.8.3-13.7.4-20.5.1-6.8-.3-13.7-.7-20.5-1.4-13.5-1.8-27-4.1-40.2-7.7zM715.3 373.8c.9-1 2.3-1.4 3.5-1.8 1.3-.3 2.7-.5 4-.5h2c.7 0 1.3.1 2 .1.7.1 1.3.1 2 .2l2 .3c.7.1 1.3.2 2 .3l2 .4c1.3.3 2.6.5 3.9.9l3.9 1.1 3.8 1.3c2.6.8 5.1 1.8 7.6 2.8 2.5.9 4.9 2 7.4 3.1 2.5 1 4.9 2.2 7.3 3.3 2.4 1.1 4.8 2.3 7.2 3.4l3.6 1.7c1.2.6 2.4 1.1 3.6 1.6 2.5 1 4.9 2 7.4 3l3.7 1.3c1.3.4 2.5.9 3.8 1.3l3.8 1.1c.6.2 1.3.4 1.9.5l1.9.4c1.3.3 2.6.6 3.9.8l3.9.6 1 .1 1 .1 2 .1c.7 0 1.3.1 2 .1h4l2-.2 1-.1 1-.2c.6-.1 1.3-.2 1.9-.4l1.9-.6c.6-.2 1.2-.5 1.8-.7 1.2-.5 2.4-1.1 3.4-2-1.9 1.9-4.4 3-7 3.9-.6.2-1.3.3-2 .5l-1 .3-1 .2-2 .3c-.7.1-1.3.1-2 .2l-2 .1c-.7.1-1.3 0-2 0h-3l-1-.1-4-.4c-1.3-.2-2.7-.5-4-.7l-2-.4c-.7-.1-1.3-.3-2-.5l-3.9-1c-1.3-.3-2.6-.8-3.9-1.2l-3.8-1.3c-.6-.2-1.3-.4-1.9-.7l-1.9-.8-3.7-1.5c-1.3-.5-2.5-1-3.7-1.6l-3.7-1.7c-2.4-1.1-4.8-2.3-7.2-3.4-2.4-1.2-4.8-2.3-7.2-3.4-2.4-1.1-4.8-2.2-7.3-3.2s-4.9-2.1-7.4-2.9l-3.7-1.4-3.8-1.2c-1.3-.4-2.5-.8-3.8-1.1l-1.9-.5c-.6-.2-1.3-.3-1.9-.4l-1.9-.4c-.6-.1-1.3-.2-2-.3-.7-.1-1.3-.2-2-.2l-2-.1c-1.3 0-2.6 0-3.9.2-1.2.1-2.6.4-3.6 1.3z"/></g><g><path class="st24" d="m546.3 341-46.7 6.2s-.5-4.2-3.6-5.5c-.6-.3-1.2-.4-2-.4l-9.9-31.5-.5-1.5s1.9-7.9-4.8-11.9c-2.3-1.4-6.9-5.3-12.1-10-1.7-1.6-3.6-3.2-5.4-4.9-8.7-8-17.1-16.2-17.1-16.2s-10-26.5 9.6-34.1c0 0-.3-3.3.7-7 1.2-4 4-8.5 10.8-9.4l46.4-6.3s12.1.5 16 12.9c.5 1.5.8 3.1 1 5l3.8 16.3v.1l7.1 51.7 5.2 37.4 1.5 9.1z"/><path class="st2" d="m532.8 242.6-3.8-16.4s-47.5-20.4-67.9 11.1c-14.1 21.8-6 36.8.4 44.1 2.8 3.1 5.2 4.8 5.4 4.9 5.2 4.7 9.8 8.6 12.1 10 6.7 4 4.8 11.9 4.8 11.9l.5 1.5 55.8-15.5-7.3-51.6z"/><path class="st24" d="M478.8 296.3s-3.3-38.7-16.3-48.5c0 0 18.1 6.4 21.5 33.7s-.9 19.8-.9 19.8l-4.3-5z"/><path class="st15" d="M501.9 305.2c-.8-1.2-18.5-29.7-14.8-41.4.6-2.1 1.9-3.6 3.8-4.5.9-.6 6.6-4.4 12.7-2.3 4.8 1.7 8.4 6.6 10.6 14.5 6.3 22.5 7 27.9 7.1 28.1l-2.4.3c0-.1-.8-5.6-7-27.8-2-7.1-5-11.5-9.1-12.9-5.3-1.8-10.5 2-10.6 2l-.2.1c-1.3.6-2.1 1.5-2.5 3-3.3 10.7 14.4 39.2 14.6 39.4l-2.2 1.5z"/><path class="st15" d="m514.2 272-2.4-.2c.5-6.1 2.6-10.6 6-13.1 4.2-3.2 9-2.3 9.2-2.2l-.5 2.4s-4-.7-7.3 1.8c-2.9 2.1-4.5 5.9-5 11.3z"/><path class="st0" d="m527.9 221.3-4.9 6.8c-3.7 21.9-24.5 21.9-42.7 22.6-18.2.7-25.6-26.6-25.6-26.6 1.2-4 4-8.5 10.8-9.4l46.4-6.3s12 .5 16 12.9z"/><path class="st2" d="m546.3 341-46.7 6.2s-.5-4.2-3.6-5.5l49-10 1.3 9.3z"/><path class="st15" d="M509.2 302.8c0-.3-4.5-27.5-15.6-35l.9-1.3c11.7 7.9 16.1 34.9 16.3 36.1l-1.6.2zM514.5 301.5c-.4-1.1-10.2-26.6-11.4-34.3l1.6-.2c1.1 7.5 11.2 33.7 11.3 33.9l-1.5.6zM526.3 296.8c-.4-.6-8.9-14.4-3.6-26.8l1.5.6c-5 11.6 3.4 25.2 3.5 25.3l-1.4.9z"/><path transform="rotate(-12.849 530.49 279.248)" class="st15" d="M529.7 262.2h1.6v34.1h-1.6z"/></g><g><path style="fill:#cfc6b7" d="M345.1 218.2h73.3v8.1h-73.3z"/><path style="fill:#d6d1b3" d="M334.1 454h105.8v19.7H334.1z"/><path d="M439.8 454H334.1v-8c0-3.3 2.7-6 6-6H434c3.3 0 6 2.7 6 6v8z" style="fill:#d3cfbc"/><path class="st31" d="M415.6 211.4 412 447s8.1 7.2 16.7.4v-236s-8.3-12.3-13.1 0zM377.5 211.4 375.4 447s8.1 7.2 16.7.4l2.1-236.1c0 .1-9.4-13.5-16.7.1zM337.8 210.6 335.6 447s8.1 7.2 16.7.4l2.1-236.9c.1.1-9.3-13.5-16.6.1z"/><path class="st32" d="M340 229.6h10.8v28.3H340zM380.2 230.9H391v28.3h-10.8zM417.9 230.9h10.8v28.3h-10.8z"/><path d="m393.9 306 5.5 8.2-54.3 182.3c-28 5.2-34.4-16.3-34.4-16.3l51.6-177.4 7.4-2.6 1.1-.4 5.9-6.3 28.2-91.8c13-1.6 15.4 6.8 15.4 6.8s-24.7 79.4-26.2 85c-1.5 5.6-.8 11.8-.8 11.8l.6.7z" style="fill:#d7d2b4"/><path class="st34" d="m351.6 339.5 36.7 11.8 2.6-8.8s-21.3-10.6-36.5-10.7l-2.8 7.7zM357.5 319.1s33.7 7.6 36.7 12.5l3.3-10.9s-24.4-10.8-37.2-10.8l-2.8 9.2z"/><path class="st35" d="M345.1 389.3s-7.7 46.5-21 75.4c0 0-5.2-11.6 0-19.8 5.2-8.2 10-19.8 10-19.8s-7.9 1.2-7.3 4.5c0 0 1-7.4 7.3-7.8l1.8-4.1-7.2 2.6s2.8-5 7.2-6.3l3.9-4.4-9.6 3s5.4-6.7 9.6-6c.1 0 2.5-16.9 5.3-17.3zM363.6 393.4s-19.4 43-24.3 74.4c0 0 10.8-6.8 11-16.5.2-9.7 2.6-22 2.6-22s5.9 5.4 3.5 7.8c0 0 3.3-6.7-1.7-10.5l.7-4.4 4.5 6.1s.4-5.7-2.5-9.2l-.8-5.9 6.3 7.8s-.7-8.6-4.6-10.3c-.1 0 7.3-15.5 5.3-17.3z"/><path d="M315.9 475.1s8.3 13.9 24 9.8" style="opacity:.32;fill:none;stroke:#2d2c27;stroke-width:2;stroke-miterlimit:10"/><path class="st32" d="m375.4 300.1-24.6 75.4s5.9-3 8.2-2.6c2.2.4 4.1 6.8 4.1 6.8l26.3-74.4-3.8-9.2-10.2 4z"/><path class="st34" d="M394.2 293.4c-1.5 5.6-.8 11.8-.8 11.8l.5.8c-12.2 1.1-19.9-2.7-24.2-5.9l1.1-.4 5.9-6.3 28.2-91.8c13-1.6 15.4 6.8 15.4 6.8s-24.6 79.5-26.1 85z"/><path transform="rotate(-180 338.586 253.817)" class="st34" d="M337.9 251.8h1.3v4.1h-1.3z"/><path transform="rotate(-180 338.586 236.083)" class="st34" d="M337.9 234h1.3v4.1h-1.3z"/><path transform="rotate(-180 352.233 253.588)" class="st34" d="M351.6 251.5h1.3v4.1h-1.3z"/><path transform="rotate(-180 352.233 235.855)" class="st34" d="M351.6 233.8h1.3v4.1h-1.3z"/><path transform="rotate(-180 378.585 253.915)" class="st34" d="M377.9 251.9h1.3v4.1h-1.3z"/><path transform="rotate(-180 378.585 236.181)" class="st34" d="M377.9 234.1h1.3v4.1h-1.3z"/><path transform="rotate(-180 393.544 252.612)" class="st34" d="M392.9 250.6h1.3v4.1h-1.3z"/><path transform="rotate(-180 393.544 234.878)" class="st34" d="M392.9 232.8h1.3v4.1h-1.3z"/><path transform="rotate(-180 416.358 252.612)" class="st34" d="M415.7 250.6h1.3v4.1h-1.3z"/><path transform="rotate(-180 416.358 234.878)" class="st34" d="M415.7 232.8h1.3v4.1h-1.3z"/><g><circle cx="365.5" cy="202.5" r="14.9" style="fill:#58120a"/><path class="st2" d="M361.2 217.1v-.8c.1 0 1.4 0 2.1-1.2.8-1.3 1-4.1-2.4-10.4-4.5-8.4-2.8-13-1.4-14.9 1.4-2 3.8-3 6.2-2.6 2.9.5 8.4 3.5 11.5 8.8 2.6 4.6 2.9 10 .8 15.6l-.8-.3c2-5.5 1.8-10.5-.8-14.9-2.9-5-8.1-7.9-10.9-8.4-2-.3-4.1.5-5.4 2.3-2.2 3.1-1.7 8.2 1.5 14.1 2.9 5.3 3.7 9.1 2.4 11.2-1 1.5-2.6 1.5-2.8 1.5z"/></g></g><g><path class="st24" d="M503 361.7s-3 7.1 6.3 10.8c9.3 3.7 36.2 16.8 36.2 16.8s17.3 7.4 15.4-3l6.3-5.2s9.7-11.5 9.9-24.1c0 0 3.8-1.2 2.9-5.6 0 0-.6-8.5 3.9-10.3 4.5-1.9 28.2-39 31.6-50.9 0 0 12.6-21.3 1.9-32.2-9.6-9.7-47-23.2-54.9-25.9-1.5-.5-3-.8-4.6-.8-4.2 0-11.5 1.6-13.8 11.6 0 0-14.3-6.1-20.6 10.2s2.6 57.5.4 65.7c0 0-8.6-.7-6.3 6.7l-11.5 29.3c-.2-.1-3.5.9-3.1 6.9z"/><path d="M521.3 328.3s42.9 23 50.8 23l-12.7 30.5 7.8-.7-6.3 5.2s-10.7-.4-27.1-8.2c-16.4-7.8-30.9-16.3-30.9-16.3l.6-4.5h2.7l15.1-29z" style="fill:#f1f2f2"/><path class="st2" d="m523 332-13 26.7s43 22.6 45.6 20.8c2.6-1.9 13.2-26 13.2-26S527.4 335.7 523 332z"/><path class="st2" d="M559.3 382.2c-36.1-9.2-53.1-24.5-53.3-24.6l.5-.6c.2.2 17.1 15.3 52.9 24.4l-.1.8zM520 319.1s16.8 15.8 45.5 24.8c0 0 8.3 2.5 14.5 7.4 0 0 .3 4.9-2.9 5.6 0 0 1.4-4-5-5.6-6.4-1.7-48.7-23.8-48.7-23.8s-5.3-2-3.4-8.4z"/><ellipse transform="rotate(-69.071 542.053 247.873)" cx="542.1" cy="247.9" rx="3.6" ry="1.8" style="opacity:.46;fill:#fff"/></g><g><defs><path id="SVGID_1_" d="M315.1 369.6c0 10.5-2.2 20.6-6.1 29.7-.2.6-.5 1.2-.8 1.7-7.6 16.6-21.1 30.1-37.8 37.6h-.1c-9.5 4.3-20 6.6-31 6.6-5.7 0-11.2-.6-16.5-1.8l-1.5-.3c-18.6-4.5-34.5-15.9-44.9-31.3-1.4-2.1-2.8-4.3-4-6.6-5.7-10.6-8.9-22.7-8.9-35.6v-1.9c.1-5.5.9-10.9 2.1-16.1 4.6-18.8 16.1-34.8 31.8-45.1 0 0 .1-.1.2-.1 11.9-7.9 26.2-12.4 41.6-12.4 3.9 0 7.8.3 11.6.9.6.1 1.1.2 1.7.3 18.7 3.3 35 13.4 46.3 27.7.6.8 1.3 1.7 1.9 2.5 6.7 9.3 11.4 20.2 13.3 32 .4 2.5.7 5.1.9 7.7.2 1.4.2 2.9.2 4.5z"/></defs><clipPath id="SVGID_2_"><use xlink:href="#SVGID_1_" style="overflow:visible"/></clipPath><path d="M315.1 369.6c0 10.5-2.2 20.6-6.1 29.7-.2.6-.5 1.2-.8 1.7-7.6 16.6-21.1 30.1-37.8 37.6h-.1c-9.5 4.3-20 6.6-31 6.6-5.7 0-11.2-.6-16.5-1.8l-1.5-.3c-18.6-4.5-34.5-15.9-44.9-31.3-1.4-2.1-2.8-4.3-4-6.6-5.7-10.6-8.9-22.7-8.9-35.6v-1.9c.1-5.5.9-10.9 2.1-16.1 4.6-18.8 16.1-34.8 31.8-45.1 0 0 .1-.1.2-.1 11.9-7.9 26.2-12.4 41.6-12.4 3.9 0 7.8.3 11.6.9.6.1 1.1.2 1.7.3 18.7 3.3 35 13.4 46.3 27.7.6.8 1.3 1.7 1.9 2.5 6.7 9.3 11.4 20.2 13.3 32 .4 2.5.7 5.1.9 7.7.2 1.4.2 2.9.2 4.5z" style="clip-path:url(#SVGID_2_);fill:#889ec7"/><ellipse transform="rotate(-9.53 200.931 380.049)" class="st41" cx="200.9" cy="380" rx="32.1" ry="40.1"/><ellipse transform="rotate(-9.53 200.448 379.7)" class="st42" cx="200.4" cy="379.6" rx="31" ry="38.8"/><ellipse transform="rotate(-9.53 200.448 379.7)" class="st41" cx="200.4" cy="379.6" rx="28.4" ry="35.6"/><ellipse transform="rotate(-6.227 228.948 314.251)" class="st41" cx="228.8" cy="314.2" rx="40.6" ry="24.8"/><ellipse transform="rotate(-6.227 229.657 314.085)" class="st42" cx="229.5" cy="314" rx="39" ry="22.9"/><ellipse transform="rotate(-6.227 229.657 314.085)" class="st41" cx="229.5" cy="314" rx="35.5" ry="20.8"/><ellipse transform="rotate(-34.234 297.287 321.075)" class="st41" cx="297.3" cy="321.1" rx="13.5" ry="40.6"/><ellipse transform="rotate(-34.234 297.733 321.646)" class="st42" cx="297.8" cy="321.7" rx="12.5" ry="39"/><ellipse transform="rotate(-34.234 297.733 321.646)" class="st41" cx="297.8" cy="321.7" rx="11.4" ry="35.5"/><ellipse transform="rotate(-66.134 163.864 338.838)" class="st41" cx="163.9" cy="338.8" rx="43.4" ry="14.4"/><ellipse transform="rotate(-66.134 163.599 339.565)" class="st42" cx="163.6" cy="339.6" rx="41.6" ry="13.3"/><ellipse transform="rotate(-66.134 163.599 339.565)" class="st41" cx="163.6" cy="339.6" rx="37.9" ry="12.1"/><ellipse transform="rotate(-9.53 245.205 434.561)" class="st41" cx="245.2" cy="434.5" rx="40.6" ry="22.9"/><ellipse transform="rotate(-9.53 245.904 434.362)" class="st42" cx="245.9" cy="434.3" rx="39" ry="21.1"/><ellipse transform="rotate(-9.53 245.904 434.362)" class="st41" cx="245.9" cy="434.3" rx="35.5" ry="19.2"/><ellipse class="st41" cx="272.5" cy="369.8" rx="35.7" ry="41.6"/><ellipse class="st42" cx="272.5" cy="369.8" rx="33.2" ry="38.7"/><ellipse class="st41" cx="272.5" cy="369.8" rx="29.8" ry="34.7"/><g style="clip-path:url(#SVGID_2_)"><path class="st44" d="m242.2 319.8-30.2 4.8-11 28.6 19.3 23.8 30.3-4.8 11-28.6z"/><path class="st44" d="m250.4 370.8-30.3 4.8-10.9 28.6 19.3 23.9 30.3-4.9 10.9-28.6zM315.1 369.6c0 10.5-2.2 20.6-6.1 29.7l-4.9-6 10.8-28.2c.2 1.4.2 2.9.2 4.5zM270.5 438.6c-9.5 4.3-20 6.7-31.1 6.7-5.7 0-11.2-.6-16.5-1.8l5.5-14.5 30.3-4.8 1.8 2.2 10 12.2zM251 294.7l-9.1 23.7-30.3 4.8-13.8-17c11.9-7.9 26.2-12.4 41.6-12.4 4 .1 7.8.4 11.6.9zM210.4 322.1l-11 28.6-30.3 4.8-3.3-4c4.6-18.8 16.1-34.8 31.8-45.1l12.8 15.7zM298.9 322.8l-5.9 15.4-30.3 4.8-19.3-23.8 9.3-24.2c18.6 3.3 35 13.4 46.2 27.8z"/><path class="st44" d="M308.3 401c-7.6 16.6-21.1 30.1-37.8 37.6h-.1l-9.9-12.2v-.1l10.9-28.5 30.3-4.8 6.6 8zM314.1 357.3l-17.4-21.4 4.1-10.6c6.8 9.3 11.4 20.2 13.3 32zM226.7 429.3l-5.3 13.8c-18.6-4.5-34.5-15.9-44.9-31.3l.5-1.4 30.3-4.8 19.4 23.7zM217.4 376.1l-11 28.6-30.3 4.8-3.6-4.4c-5.7-10.6-8.9-22.7-8.9-35.6v-1.9l4-10.6 30.3-4.8 19.5 23.9zM294.5 338.8l-30.3 4.8-11 28.6 19.4 23.8 30.2-4.8 11-28.6z"/></g></g></svg>