<svg version="1.1" id="Layer_1" xmlns="http://www.w3.org/2000/svg" x="0" y="0" viewBox="0 0 1000 607" style="enable-background:new 0 0 1000 607" xml:space="preserve"><style>.st3{fill:#ffb890}.st4{fill:#fcc8ae}.st6{fill:#662f28}.st7{fill:#feac02}.st8{fill:#fe4d53}.st10{fill:#232223}.st11{fill:#7c4bc9}.st13{fill:#191919}.st15{fill:#2d2d2d}.st17{fill:#fff}.st18{fill:#808285}.st21{fill:#939598}.st22{fill:#f9b889}.st23{fill:#1e1e1e}</style><path d="M164.6 588C162 587 58 462.7 51 387c-6-65 1.7-142 124.9-150.5 0 0 83.9-26.5 106-128.5C304 6 620-43 719 95s140 131.4 180.5 178.5C942 323 964 436 921.5 593l-756.9-5z" style="fill:#cfb5f6"/><path d="M172.4 579.4c-2.5-.9-96.9-123.2-97.9-193.6-1-70.4-9.9-124.1 108.7-132 0 0 80.8-24.5 102.1-119s325.8-139.9 421.1-12S841 245.3 880.3 288.2C927 339 988 447 901.6 584.1l-729.2-4.7z" style="opacity:.5;fill:#e3d4f9"/><path d="M181.3 579.7c-2.5-.9-95.8-114.3-96.7-179.6-1-65.3-9.8-115.2 107.5-122.5 0 0 79.8-22.8 100.9-110.4C314 79.5 614.9 37.4 709.1 156S846 266.7 881 309c46 55.6 83 180 20.9 275.1l-720.6-4.4z" style="fill:#e3d4f9"/><path class="st3" d="M627.5 394.5s10 17-3 23l-7 6s4 21 25 15 23-19 23-19l-4-4s-6.8-2-6.9-9c-.1-7-.6-34.5-.6-34.5l-26.5 22.5z"/><path class="st4" d="m434.9 423.8 5.6 26.7s11 15 27 2c0 0 40.5-43.5 52.5-69.5l16.5-11.5s31.9-26 8.9-38c0 0-21.9 7-28.9 31l-49.7 55.3s-1.3 8.6-6.3 4.1l-4.5-17.4-21.1 17.3z"/><ellipse cx="377.5" cy="273.5" rx="32" ry="37" style="fill:#fcc8ae;stroke:#fff;stroke-miterlimit:10"/><path class="st6" d="M359.5 255.5s-5 18.7-12 29.4c0 0 5.9 14.9 16.9 21.8 0 0-3.5 28-21.2 32.4-17.7 4.4-29.7 8.4-34.7 21.4s-18-19-4-39 22-14 24-37-2.5-19.5 1-37c3.5-17.7 17-18 22-16s8 24 8 24z"/><path class="st6" d="M356.5 254.5s28.1 18 49.1 19h2.9s-1.9 23.3-16.9 33.1c0 0-1.1 25.9 10.9 28.9s20 3 34 15c0 0-19-18-15-38s-7-59.5-13-65.3c-6-5.7-11.8-16.2-25.4-18.5s-24.6-3.3-31.6 2.7 5 23.1 5 23.1z"/><path class="st4" d="M362.9 299.1s3.5 20.8-11.3 33.5c-2.1 1.8-4.6 3.5-7.5 4.8 0 0 41.2 22.9 68-.5 0 0-19.9 4.9-18.9-30.2l1.5-7.6h-31.8z"/><path class="st7" d="M352 333s-23.3 4-34 14-30.5 61.5-30.5 61.5 11 12 29 13c0 0 12-18 18-32 0 0 11 12 6 38s-27 67-23 98v36l115-2s-3.4-36.4-12.5-61c-1.9-5.1-3.2-10.3-3.9-15.7-3-20.7-9-68.6-3.5-83.3 7-19 5-11 5-11l17 38 26-16s-14-48-24-60S402 334 402 334s-14 18-50-1z"/><path class="st4" d="m290.5 410.5-8 31s-4.8 12.3 11.6 20.2c16.4 7.8 66 27.3 66 27.3s13.3 1.3 13.8 5.9-6.5 15.6 8.5 19.6 13.4-19 5.2-25.5-16.2-10.5-16.2-10.5l-63.2-31 7.2-25-24.9-12z"/><path class="st8" d="M226.5 548.5h158v13h-158z"/><path style="fill:#bcbec0" d="M204.5 560h613v23h-613z"/><ellipse transform="rotate(-83.69 632.034 367.014)" class="st3" cx="632" cy="367" rx="33.5" ry="22.5"/><path class="st10" d="M617.5 343.3s-17.2-3.5-15.1-17.7 21.1-9.2 21.1-9.2 49.7-15 50.3 30c0 0 1.2 33.3-19.6 40.1l.3-24.8s-6.1-16.3-9.1-17.3-17.9 3.8-27.9-1.1z"/><path class="st10" d="M655 323.2s-1.8-18.6 18.8-24.2 49.6.5 48.6 29.5c-1 28.9-19 36.9-7 51.9s11 25 7 41c0 0 7.4 9 2.7 26s7.3 24 7.3 24-21.8 19-28.4 0-36.4-51.4-36-82.4-2.5-55.8-2.5-55.8l-10.5-10z"/><path class="st11" d="M624.5 417.5s-27 4.5-37.5 18.2-12.7 28.4-12.7 28.4l-2.8 15.8 26.5 5.3v71.2h94.1v-63.9l4.6-3.6-6.3-36.5s-8.3-19.8-16.6-26.4c-8.4-6.6-12.4-10.6-12.4-10.6s-10.9 16.2-23.5 16.1c.1.1-13.4 4-13.4-14z"/><path class="st3" d="m693.7 489 3 55.1s3.1 9.3-7.8 12.9c-15 5-112.5 2-112.5 2l4.1-18.8 84.9-1.6s4-3.4 4-9.4-4-36.2-4-36.2l28.3-4z"/><ellipse transform="rotate(-60 658.01 368.016)" class="st3" cx="658" cy="368" rx="9.7" ry="6.5"/><path d="m665.5 499 26.7-6.4 4.6-3.6-5.3-31.1c-.9-5.4-3.1-10.6-6.6-14.8-4.7-5.8-12.1-10.8-21.6-3.5 0 0-10.3 4.1-4.8 35.9l7 23.5z" style="fill:#5932a5"/><path class="st8" d="M673.8 349c-1.2 0-2.2-.8-2.4-2-5.5-26.4-14.5-27.6-14.6-27.6l.1-2.5v-2.5c1.3 0 13 1 19.4 31.6.3 1.4-.6 2.7-1.9 3h-.6z"/><g><path class="st13" d="M531.5 548.5h111V559h-111z"/><path class="st13" d="M494.3 464.2h104.8s6.4.3 1.4 13.7l-25 81.1h-115l25-86.3s1.6-8.9 8.8-8.5z"/><circle cx="511.5" cy="491.5" r="6.5" style="fill:#e4f2f4"/></g><g><ellipse transform="rotate(-13.915 194.895 346.482)" class="st4" cx="194.9" cy="346.5" rx="27.1" ry="43.5"/><path class="st4" d="m152.5 346.5-2 61s35 24 48 14c0 0-14-25.5-14-36.3v-19.7l-32-19z"/><path class="st15" d="M150.5 366.5s23-15 26-24c0 0-7-12.5-2-17.7s24.2-1.7 34.6-9.5c10.4-7.8 14.4-27.8 14.4-27.8l-62.6 3.8s-27.4.2-23.4 32.2c0 0 1.6 36 5.3 43 3.7 7 7.7 0 7.7 0z"/><path class="st15" d="M222.3 366.1s8.2 26.4-5.8 25.4c-27.9-2-43.8-1.3-49-6s-1.8-44.2-1.8-44.2l9.9-2.2s-.3 16.8 18.3 19.6 26.2-.9 28.4 7.4z"/><path d="M148.5 394.5s17.8 23.1 46.4 20.1c0 0 53.6 124.9 57.6 168.9H99.2s3.3-99 17.3-134 32-55 32-55z" style="fill:#4570ad"/><ellipse transform="rotate(-13.915 160.899 346.482)" class="st4" cx="160.9" cy="346.5" rx="8.7" ry="14"/><path class="st4" d="M160.9 492.6c2.6 2.9 37.6 66.5 37.6 66.5s10 26.4 42 3.4 70-50 70-50 4-3 8 5 18 4 21-4c0 0 2-8 6-3 3.1 3.9 7.9 8.9 10 11 .9.9 2.1 1.6 3.4 1.7 2.1.2 4.5-.8 2.6-7.7l-14.2-16s-8-17-28.9-10.5-96.9 43.5-96.9 43.5l-23-56.9-37.6 17z"/><path class="st17" d="m156.5 499.5-12-30.6c-4-10.2-3.6-21.7 1.7-31.3 4.3-7.9 11.8-14.8 25-13.7 29.3 2.6 33.3 52.6 33.3 52.6l-48 23z"/></g><g><path class="st18" d="M577.9 111.9 601 127l-11.4-23.4z"/><path style="fill:#77aded" d="m511.9 103 58.4 36 14.7-26.5 3.2-5.8 16.1-29z"/><path class="st18" d="m519.9 103.1 65.1 9.4 3.2-5.8z"/></g><g><path d="M440.7 142.7h-92.9c-8 0-14.6-6.6-14.6-14.6V97.9c0-8 6.6-14.6 14.6-14.6h92.9c8 0 14.6 6.6 14.6 14.6v30.2c-.1 8-6.6 14.6-14.6 14.6z" style="fill:#488248"/><circle class="st17" cx="391" cy="110" r="21"/><path class="st8" d="M398.9 123.8h-.4c-.8-.1-1.5-.6-1.9-1.2l-10.9-16.4c-.9-1.3-.5-3 .8-3.9 1.3-.9 3-.5 3.9.8l9.2 13.8L429 92.6c1.2-1 2.9-.8 3.9.4 1 1.2.8 2.9-.4 3.9l-31.9 26.3c-.5.4-1.1.6-1.7.6z"/></g><g><path class="st21" d="M854.6 486.8c-.3 0-.5-.1-.8-.2-.7-.4-.9-1.4-.5-2.1 0 0 .7-1.2 2-3.4.4-.7 1.3-1 2.1-.5.7.4 1 1.3.5 2.1-1.3 2.3-2.1 3.5-2.1 3.5-.2.4-.7.6-1.2.6zM860.6 476.5c-.2 0-.5-.1-.7-.2-.7-.4-1-1.3-.6-2 1.1-2 2.4-4.4 3.8-6.9.4-.7 1.3-1 2-.6s1 1.3.6 2c-1.4 2.6-2.7 4.9-3.8 7-.3.5-.8.7-1.3.7zm7.5-13.9c-.2 0-.5-.1-.7-.2-.7-.4-1-1.3-.6-2 1.2-2.2 2.4-4.6 3.6-7.1.4-.7 1.3-1 2-.7.7.4 1 1.3.7 2-1.2 2.5-2.5 4.9-3.6 7.1-.3.6-.9.9-1.4.9zm7.1-14.2c-.2 0-.4 0-.7-.1-.7-.4-1.1-1.3-.7-2 1.1-2.3 2.2-4.7 3.4-7.2.3-.8 1.2-1.1 2-.7.8.3 1.1 1.2.7 2-1.2 2.5-2.3 4.9-3.4 7.2-.2.4-.7.8-1.3.8zm6.7-14.4c-.2 0-.4 0-.6-.1-.8-.3-1.1-1.2-.8-2 1.1-2.4 2.1-4.8 3.2-7.2.3-.8 1.2-1.1 2-.8.8.3 1.1 1.2.8 2-1.1 2.5-2.1 4.9-3.2 7.3-.3.4-.8.8-1.4.8zm6.3-14.6c-.2 0-.4 0-.6-.1-.8-.3-1.1-1.2-.8-2 1-2.4 2-4.9 3-7.3.3-.8 1.2-1.1 1.9-.8.8.3 1.2 1.2.8 1.9-1 2.5-2 5-3 7.4-.2.5-.8.9-1.3.9zm5.8-14.8c-.2 0-.4 0-.5-.1-.8-.3-1.2-1.2-.9-1.9.9-2.5 1.8-5 2.7-7.4.3-.8 1.1-1.2 1.9-.9.8.3 1.2 1.1.9 1.9l-2.7 7.5c-.3.5-.8.9-1.4.9zm5.2-15c-.2 0-.3 0-.5-.1-.8-.3-1.2-1.1-.9-1.9.8-2.5 1.7-5.1 2.4-7.5.2-.8 1.1-1.2 1.9-1 .8.2 1.2 1.1 1 1.9-.8 2.5-1.6 5-2.4 7.6-.2.6-.8 1-1.5 1zm4.7-15.1c-.1 0-.3 0-.4-.1-.8-.2-1.3-1.1-1-1.9.7-2.5 1.4-5.1 2.1-7.6.2-.8 1-1.3 1.8-1.1.8.2 1.3 1 1.1 1.8-.7 2.5-1.4 5.1-2.1 7.7-.2.8-.8 1.2-1.5 1.2zm4.1-15.3h-.3c-.8-.2-1.3-1-1.1-1.8.6-2.6 1.2-5.2 1.7-7.7.2-.8 1-1.3 1.8-1.2.8.2 1.3 1 1.2 1.8-.5 2.6-1.1 5.2-1.8 7.8-.2.6-.8 1.1-1.5 1.1zm3.3-15.6h-.3c-.8-.1-1.4-.9-1.2-1.7.5-2.6.9-5.2 1.3-7.8.1-.8.9-1.4 1.7-1.3.8.1 1.4.9 1.3 1.7-.4 2.6-.8 5.2-1.3 7.9-.2.7-.8 1.2-1.5 1.2zm2.4-15.7h-.2c-.8-.1-1.4-.8-1.3-1.7.3-2.6.6-5.3.8-7.8.1-.8.8-1.4 1.6-1.4.8.1 1.4.8 1.4 1.6-.2 2.6-.5 5.3-.8 7.9-.1.9-.8 1.4-1.5 1.4zm1.3-15.8c-.9 0-1.5-.7-1.5-1.6.1-2.7.2-5.3.2-7.9 0-.8.7-1.5 1.5-1.5s1.5.7 1.5 1.5c0 2.6-.1 5.3-.2 8 0 .9-.7 1.5-1.5 1.5zm.1-15.8c-.8 0-1.5-.6-1.5-1.4-.1-2.7-.3-5.3-.5-7.8-.1-.8.5-1.6 1.4-1.6.8-.1 1.6.5 1.6 1.4.2 2.6.4 5.3.5 8 0 .7-.6 1.4-1.5 1.4zm-1.5-15.8c-.7 0-1.4-.5-1.5-1.3-.4-2.6-.8-5.2-1.4-7.7-.2-.8.4-1.6 1.2-1.8.8-.2 1.6.4 1.8 1.2.5 2.6 1 5.2 1.4 7.9.1.8-.4 1.6-1.3 1.7h-.2zm-3.2-15.5c-.7 0-1.3-.4-1.4-1.1-.7-2.5-1.5-5-2.3-7.5-.3-.8.1-1.6.9-1.9.8-.3 1.6.1 1.9.9.9 2.5 1.7 5.1 2.4 7.7.2.8-.2 1.6-1 1.8-.2.1-.4.1-.5.1zm-5.2-15c-.6 0-1.1-.3-1.4-.9-1-2.4-2.2-4.8-3.4-7-.4-.7-.1-1.6.6-2 .7-.4 1.6-.1 2 .6 1.2 2.3 2.4 4.8 3.5 7.2.3.8 0 1.6-.8 2-.1.1-.3.1-.5.1zm-7.5-13.9c-.5 0-1-.2-1.3-.7-1.4-2.2-2.9-4.3-4.5-6.4-.5-.7-.4-1.6.3-2.1s1.6-.4 2.1.3c1.6 2.1 3.2 4.3 4.6 6.6.4.7.2 1.6-.5 2.1-.1.1-.4.2-.7.2zm-9.5-12.6c-.4 0-.8-.2-1.1-.5-1.7-1.9-3.6-3.8-5.4-5.6-.6-.6-.6-1.5-.1-2.1.6-.6 1.5-.6 2.1-.1 1.9 1.8 3.8 3.8 5.6 5.8.6.6.5 1.6-.1 2.1-.3.2-.7.4-1 .4zm-11.5-11c-.3 0-.7-.1-.9-.3-2-1.6-4.1-3.2-6.2-4.7-.7-.5-.8-1.4-.4-2.1.5-.7 1.4-.8 2.1-.4 2.2 1.5 4.4 3.2 6.4 4.8.6.5.7 1.5.2 2.1-.3.5-.8.6-1.2.6zm-13-9c-.3 0-.5-.1-.8-.2-2.2-1.3-4.5-2.6-6.8-3.8-.7-.4-1-1.3-.6-2s1.3-1 2-.6c2.4 1.2 4.7 2.6 7 3.9.7.4.9 1.3.5 2.1-.3.3-.8.6-1.3.6zm-14-7.3c-.2 0-.4 0-.6-.1-2.3-1-4.8-2.1-7.2-3-.8-.3-1.2-1.2-.9-1.9.3-.8 1.2-1.2 1.9-.9 2.5 1 5 2 7.4 3.1.8.3 1.1 1.2.8 2-.3.4-.8.8-1.4.8zm-14.8-5.8c-.2 0-.3 0-.5-.1-1-.3-1.9-.6-2.9-.9l-4.7-1.5c-.8-.2-1.2-1.1-1-1.9.2-.8 1.1-1.2 1.9-1l4.7 1.5c1 .3 2 .6 2.9.9.8.3 1.2 1.1 1 1.9-.2.7-.8 1.1-1.4 1.1zm-15.1-4.7c-.1 0-.3 0-.4-.1l-7.6-2.4c-.8-.2-1.2-1.1-1-1.9.2-.8 1.1-1.2 1.9-1l7.6 2.4c.8.2 1.2 1.1 1 1.9-.3.7-.9 1.1-1.5 1.1zm-15.2-4.7c-.1 0-.3 0-.4-.1l-7.6-2.4c-.8-.2-1.2-1.1-1-1.9.2-.8 1.1-1.2 1.9-1l7.6 2.4c.8.2 1.2 1.1 1 1.9-.2.7-.8 1.1-1.5 1.1zm-15.1-4.7c-.1 0-.3 0-.4-.1l-7.6-2.4c-.8-.2-1.2-1.1-1-1.9.2-.8 1.1-1.2 1.9-1l7.6 2.4c.8.2 1.2 1.1 1 1.9-.3.7-.9 1.1-1.5 1.1zm-15.1-4.7c-.1 0-.3 0-.4-.1l-7.6-2.3c-.8-.2-1.2-1.1-1-1.9.2-.8 1.1-1.2 1.9-1l7.6 2.3c.8.2 1.2 1.1 1 1.9-.3.7-.9 1.1-1.5 1.1zm-15.2-4.7c-.1 0-.3 0-.4-.1l-7.6-2.3c-.8-.2-1.2-1.1-1-1.9.2-.8 1.1-1.2 1.9-1l7.6 2.3c.8.2 1.2 1.1 1 1.9-.3.7-.9 1.1-1.5 1.1zm-15.1-4.7c-.1 0-.3 0-.4-.1l-7.6-2.3c-.8-.2-1.2-1.1-1-1.9.2-.8 1.1-1.2 1.9-1l7.6 2.3c.8.2 1.2 1.1 1 1.9-.3.7-.9 1.1-1.5 1.1zm-15.2-4.7c-.1 0-.3 0-.4-.1l-7.6-2.3c-.8-.2-1.2-1.1-1-1.9.2-.8 1.1-1.2 1.9-1l7.6 2.3c.8.2 1.2 1.1 1 1.9-.3.7-.9 1.1-1.5 1.1zm-15.2-4.6c-.1 0-.3 0-.4-.1l-7.5-2.3.4-1.5.4-1.4 7.6 2.3c.8.2 1.2 1.1 1 1.9-.2.6-.8 1.1-1.5 1.1zm-15.1-4.7c-.1 0-.3 0-.4-.1l-7.6-2.3c-.8-.2-1.2-1.1-1-1.9.2-.8 1.1-1.2 1.9-1l7.6 2.3c.8.2 1.2 1.1 1 1.9-.3.7-.9 1.1-1.5 1.1zm-15.2-4.6c-.1 0-.3 0-.4-.1l-7.6-2.3c-.8-.2-1.2-1.1-1-1.9.2-.8 1.1-1.2 1.9-1l7.6 2.3c.8.2 1.2 1.1 1 1.9-.2.7-.8 1.1-1.5 1.1zm-15.1-4.7c-.1 0-.3 0-.4-.1l-7.6-2.3c-.8-.2-1.2-1.1-1-1.9.2-.8 1.1-1.2 1.9-1l7.6 2.3c.8.2 1.2 1.1 1 1.9-.3.7-.9 1.1-1.5 1.1zm-15.2-4.6c-.1 0-.3 0-.4-.1l-7.6-2.3c-.8-.2-1.2-1.1-1-1.9.2-.8 1.1-1.2 1.9-1l7.6 2.3c.8.2 1.2 1.1 1 1.9-.3.7-.9 1.1-1.5 1.1zm-15.2-4.6c-.1 0-.3 0-.4-.1l-7.6-2.3c-.8-.2-1.2-1.1-1-1.9s1.1-1.2 1.9-1l7.6 2.3c.8.2 1.2 1.1 1 1.9-.2.7-.8 1.1-1.5 1.1zm-15.2-4.5c-.1 0-.3 0-.4-.1l-7.6-2.3c-.8-.2-1.2-1.1-1-1.9s1.1-1.2 1.9-1l7.6 2.3c.8.2 1.2 1.1 1 1.9-.2.7-.8 1.1-1.5 1.1zm-15.2-4.6c-.1 0-.3 0-.4-.1l-7.6-2.3c-.8-.2-1.2-1.1-1-1.9.2-.8 1.1-1.2 1.9-1l7.6 2.3c.8.2 1.2 1.1 1 1.9-.2.7-.8 1.1-1.5 1.1zM592.3 116.1c-.1 0-.3 0-.4-.1-2.6-.8-3.8-1.1-3.8-1.1-.8-.2-1.3-1.1-1-1.9.2-.8 1.1-1.3 1.9-1 0 0 1.3.4 3.8 1.1.8.2 1.2 1.1 1 1.9-.2.7-.8 1.1-1.5 1.1z"/></g><g><path class="st22" d="M775.5 317.5s12 6.9 0 21.9l-10.9 11s5.9 18.1 26.9 8.1 26-31 26-31l-7.4 1.8s-12.6-9.8-9.6-34.8c0 0-24 7-25 23zM784.8 447.5s-.1.7-.2 2c-.8 6.8-4.4 29.7-16.6 45.4-14.5 18.6-69.5 64.6-69.5 64.6h-21.7l55.7-56s7.8-5.1 12.4-23.6c4.6-18.4 8.3-35.5 8.3-35.5l22.8-12.9 8.8 16z"/><path class="st23" d="M809.1 542.6V593l112.4-7.5s-7.6-74-19.3-86.5l-93.1 43.6z"/><ellipse transform="rotate(-10.704 767.984 288.025)" class="st22" cx="768" cy="288" rx="26.5" ry="38.5"/><path d="M743 268.9s24.5-.4 29.5-9.4c0 0 11.5 2.5 8.5 14.5l3 8s9.4-2.4 10 5 0 12 0 12l6.5 6.4s4-26 6-35 8-34-2-37-20.8-17.9-39.4-6c0 0-2.6 4-11.6 2s-30.7.6-29 18c1 10 1.5 14.5 10.5 19.5 6.3 3.6 8 2 8 2z" style="fill:#492720"/><path class="st8" d="M772.5 343.5s-18 17-19 32 1.5 40 1.5 40l21.6 32 29.9 99 98-44-56.9-155.1s-15.9-28.2-37.5-18.1c0 0-13.6 23.2-26.6 26.2 0 0-11.5 3.7-11-12z"/><ellipse transform="rotate(-78.089 789.178 286.051)" class="st22" cx="789.2" cy="286" rx="9.6" ry="6.9"/><path class="st22" d="m797.5 428.5-110.4 65.3s-25.6 3.7-29.1 10.7c-3.5 7-21.7 7-29.1 0-7.4-7-26.5 10.4-26.5 10.4s-6.4 0-.2-7.2 19.4-21.2 35.8-21.7c0 0 10.5 4.5 20 0s95.3-66.3 95.3-66.3l21-13.9 23.2 22.7z"/><path d="M810.9 361.2c9.2-.4 32 1.5 25.6 31.3l-21 32s-13.5 12.8-26.3 3.9c-9.3-6.5-16.3-15.1-19.4-19.4-1.1-1.4-1-3.4.2-4.8l35.2-40.3c1.4-1.6 3.5-2.6 5.7-2.7z" style="fill:#d63e49"/></g><path class="st23" d="M91 583h836v10H91z"/><g><path class="st7" d="M706.5 264.5 684 225.3c0-.4.1-.9.1-1.3 0-22.1-29.1-40-65-40s-65 17.9-65 40 29.1 40 65 40c18 0 34.2-4.5 46-11.7 12.9 4.1 29.1 8.9 41.4 12.2z"/><path class="st17" d="M665.5 209.9h-89c-1.4 0-2.5-1.1-2.5-2.5s1.1-2.5 2.5-2.5h89c1.4 0 2.5 1.1 2.5 2.5s-1.1 2.5-2.5 2.5zM665.5 226h-89c-1.4 0-2.5-1.1-2.5-2.5s1.1-2.5 2.5-2.5h89c1.4 0 2.5 1.1 2.5 2.5s-1.1 2.5-2.5 2.5zM665.5 239H614c-1.4 0-2.5-1.1-2.5-2.5s1.1-2.5 2.5-2.5h51.5c1.4 0 2.5 1.1 2.5 2.5s-1.1 2.5-2.5 2.5z"/></g><g><path class="st11" d="m199.2 273.2-10.6-51.3c-.3-.4-.7-.8-1-1.2-16.1-21.3-6-56.1 22.6-77.7s64.9-22 81-.8c16.1 21.3 6 56.1-22.6 77.7-14.3 10.8-30.5 16.3-45.2 16.5-7.5 11.8-16.8 26.3-24.2 36.8z"/><path class="st17" d="M197.6 201.3c-.7 0-1.3-.3-1.8-.8-.9-1-.9-2.6.1-3.5l64.8-61c1-.9 2.6-.9 3.5.1.9 1 .9 2.6-.1 3.5l-64.8 61c-.5.5-1.1.7-1.7.7zM208.7 213.1c-.7 0-1.3-.3-1.8-.8-.9-1-.9-2.6.1-3.5l64.8-61c1-.9 2.6-.9 3.5.1.9 1 .9 2.6-.1 3.5l-64.8 61c-.5.4-1.1.7-1.7.7zM217.6 222.5c-.7 0-1.3-.3-1.8-.8-.9-1-.9-2.6.1-3.5l37.5-35.3c1-.9 2.6-.9 3.5.1.9 1 .9 2.6-.1 3.5l-37.5 35.3c-.5.5-1.1.7-1.7.7z"/></g><g><path class="st8" d="M810.7 191.7h-92.9c-8 0-14.6-6.6-14.6-14.6v-30.2c0-8 6.6-14.6 14.6-14.6h92.9c8 0 14.6 6.6 14.6 14.6v30.2c-.1 8-6.6 14.6-14.6 14.6z"/><circle class="st17" cx="742.9" cy="160" r="6.2"/><circle class="st17" cx="764.2" cy="160" r="6.2"/><circle class="st17" cx="785.6" cy="160" r="6.2"/></g></svg>