<svg version="1.1" id="Layer_1" xmlns="http://www.w3.org/2000/svg" x="0" y="0" viewBox="0 0 1000 768" style="enable-background:new 0 0 1000 768" xml:space="preserve"><style>.st0{fill:#e2d4fc}.st2{opacity:.57}.st3{fill:#231f20}.st5{fill:#fff}.st6{fill:#1a2c36}.st8{fill:#f4534f}.st9{fill:#feac02}.st12{fill:#fcc29d}.st20{fill:#fcdb64}.st21{fill:#21293f}</style><path class="st0" d="M119 736.6S-34.1 739.8 7.1 469c0 0 26.5-76 52.4-124.2 0 0 8.2-92.7 0-160.3S135.4-42.3 279.3 52.2 472.8 251.5 561.6 251s236.6-78.7 301.9 60.5c6 12.8 1.8 53.1 68.8 125s75.3 128.8 65.1 217-113 86.3-113 86.3L119 736.6z"/><path d="M134.1 707.7s-146.8 2.9-107.3-240.9c0 0 25.4-68.4 50.3-111.8 0 0 7.9-83.4 0-144.3s72.7-204.1 210.7-119 185.5 179.4 270.6 179c85.1-.4 226.8-70.8 289.4 54.5 5.8 11.6 1.8 47.8 65.9 112.5s72.2 115.9 62.4 195.4-108.3 77.7-108.3 77.7l-733.7-3.1z" style="fill:#cfb5f6"/><g class="st2"><path class="st3" d="M64 482c-6.1 0-11-4.9-11-11V353c0-6.1 4.9-11 11-11s11 4.9 11 11v118c0 6.1-4.9 11-11 11z"/><path class="st3" d="M127 468H75c-8.8 0-16-7.2-16-16s7.2-16 16-16h52c8.8 0 16 7.2 16 16s-7.2 16-16 16z"/></g><g class="st2"><path class="st3" d="M488 482c6.1 0 11-4.9 11-11V353c0-6.1-4.9-11-11-11s-11 4.9-11 11v118c0 6.1 4.9 11 11 11z"/><path class="st3" d="M425 468h52c8.8 0 16-7.2 16-16s-7.2-16-16-16h-52c-8.8 0-16 7.2-16 16s7.2 16 16 16z"/></g><path d="M901.4 709H137.7C67 709 9.5 652 8.9 581.3l-.4-50.8L8 470h987l2 93.1 1 47.3c1.1 54.1-42.5 98.6-96.6 98.6z" style="fill:#568ed1"/><path class="st5" d="M72.4 469h1v110h-1zM158.4 469h1v110h-1zM243.4 469h1v110h-1zM329.4 469h1v110h-1zM414.4 469h1v110h-1zM500.4 469h1v110h-1zM585.4 469h1v110h-1zM671.4 469h1v110h-1zM756.4 469h1v110h-1zM842.4 469h1v110h-1zM927.4 469h1v110h-1z"/><path class="st3" d="M767 226h6v243h-6zM860 226h6v243h-6zM773 427h87v5h-87z"/><path class="st3" d="M772 386h87v5h-87zM772 345h87v5h-87zM772 304h87v5h-87zM772 263h87v5h-87z"/><path class="st6" d="M865 427h123v43H865z"/><g><path d="M971.2 383.1c-3.7-5.1-8.3-9.5-13.5-13.1-8.9-6.1-19.6-9.6-31.2-9.6-12.6 0-24.2 4.2-33.5 11.3-5 3.8-9.4 8.4-12.8 13.7-5.8 8.8-9.2 19.3-9.2 30.6 0 12.2 3.9 23.5 10.6 32.6 3.7 5.1 8.3 9.6 13.5 13.1 8.9 6.1 19.7 9.7 31.4 9.7 12.1 0 23.4-3.9 32.5-10.5 5.1-3.7 9.6-8.3 13.2-13.5 6.2-8.9 9.8-19.8 9.8-31.4 0-12.4-4-23.7-10.8-32.9zm-27.3 59.1c-5 3.3-11 5.3-17.4 5.3-6.9 0-13.2-2.2-18.4-6-3-2.2-5.6-4.8-7.6-7.9-3.4-5-5.3-11-5.3-17.5 0-6.2 1.8-11.9 4.8-16.8 1.9-3.1 4.4-5.8 7.2-8 5.3-4.1 12-6.6 19.3-6.6 6.7 0 13 2.1 18.1 5.7 3 2.1 5.6 4.7 7.6 7.7 3.5 5.1 5.6 11.3 5.6 17.9 0 6.8-2.2 13.2-5.9 18.3-2.2 3.2-4.9 5.8-8 7.9z" style="fill:#fdac05"/><path class="st5" d="M907.2 391.4c-2.8 2.2-5.3 4.9-7.2 8l-19.8-14c3.5-5.3 7.8-9.9 12.8-13.7l14.2 19.7zM971.2 383.1l-19 15.1c-2.1-3-4.7-5.6-7.6-7.7l13.1-20.5c5.2 3.6 9.8 8 13.5 13.1zM908.1 441.5l-13 20.1c-5.2-3.6-9.8-8-13.5-13.1l18.9-14.9c2 3.1 4.6 5.8 7.6 7.9zM972.2 447.3c-3.6 5.2-8.1 9.8-13.2 13.5l-15.1-18.6c3.1-2.1 5.9-4.7 8.1-7.8l20.2 12.9z"/></g><g><path class="st8" d="M971.2 355.1c-3.7-5.1-8.3-9.5-13.5-13.1-8.9-6.1-19.6-9.6-31.2-9.6-12.6 0-24.2 4.2-33.5 11.3-5 3.8-9.4 8.4-12.8 13.7-5.8 8.8-9.2 19.3-9.2 30.6 0 12.2 3.9 23.5 10.6 32.6 3.7 5.1 8.3 9.6 13.5 13.1 8.9 6.1 19.7 9.7 31.4 9.7 12.1 0 23.4-3.9 32.5-10.5 5.1-3.7 9.6-8.3 13.2-13.5 6.2-8.9 9.8-19.8 9.8-31.4 0-12.4-4-23.7-10.8-32.9zm-27.3 59.1c-5 3.3-11 5.3-17.4 5.3-6.9 0-13.2-2.2-18.4-6-3-2.2-5.6-4.8-7.6-7.9-3.4-5-5.3-11-5.3-17.5 0-6.2 1.8-11.9 4.8-16.8 1.9-3.1 4.4-5.8 7.2-8 5.3-4.1 12-6.6 19.3-6.6 6.7 0 13 2.1 18.1 5.7 3 2.1 5.6 4.7 7.6 7.7 3.5 5.1 5.6 11.3 5.6 17.9 0 6.8-2.2 13.2-5.9 18.3-2.2 3.2-4.9 5.8-8 7.9z"/><path class="st5" d="M907.2 363.4c-2.8 2.2-5.3 4.9-7.2 8l-19.8-14c3.5-5.3 7.8-9.9 12.8-13.7l14.2 19.7zM971.2 355.1l-19 15.1c-2.1-3-4.7-5.6-7.6-7.7l13.1-20.5c5.2 3.6 9.8 8 13.5 13.1zM908.1 413.5l-13 20.1c-5.2-3.6-9.8-8-13.5-13.1l18.9-14.9c2 3.1 4.6 5.8 7.6 7.9zM972.2 419.3c-3.6 5.2-8.1 9.8-13.2 13.5l-15.1-18.6c3.1-2.1 5.9-4.7 8.1-7.8l20.2 12.9z"/></g><g><path class="st9" d="M749 470h-87c-9.9 0-18-8.1-18-18s8.1-18 18-18h87c9.9 0 18 8.1 18 18s-8.1 18-18 18z"/><path class="st9" d="M688 434h35v35h-35z"/></g><g><path d="M749 434h-87c-9.9 0-18-8.1-18-18s8.1-18 18-18h87c9.9 0 18 8.1 18 18s-8.1 18-18 18z" style="fill:#ff4d53"/><path class="st5" d="M688 398h35v35h-35z"/></g><g><path d="M749 398h-87c-9.9 0-18-8.1-18-18s8.1-18 18-18h87c9.9 0 18 8.1 18 18s-8.1 18-18 18z" style="fill:#4570ad"/><path class="st5" d="M688 362h35v35h-35z"/></g><g><path class="st12" d="M880.3 536.9c-2.9 16.3-17.8 25.6-17.8 25.6s-13.7 5.5-31.3 10.2c-6.1 1.6-12.8 3.2-19.4 4.3-14.9 2.7-30.2 3.5-41.2-.6-30-11-44.7 2.8-44.7 2.8s-7.7 25.9-40.2 43.3c-50 7.6-104.3 5.9-167.1-20.4 0 0-2.7-.7-7.5-1.8V547s6.8-2.9 17.7-6.7c20.9-7.2 56.7-17.3 88.3-15.3l-58-89s-7-21 22-32 103-8 103-8 34 0 54 14c0 0-27.5 7.5-35.5.5l12 13s-4 2-15-3-16-8-30-7-61 10-61 10-10 6 2 14 62 54 62 54 38 21 38 44c0 0 15 21 37-1 0 0 8.3-25 43.7-37.6 1.4-.5 2.8-1 4.3-1.4 2.2-.7 4.3-1.3 6.4-1.9 35.6-9.9 60.5-7.5 74.6 20.9 4.1 8.5 4.9 16 3.7 22.4z"/><path d="M862.5 562.5s-13.7 5.5-31.3 10.2c3.9-11.7 5.9-26.6 1.3-43.2-5.8-21.2-19.3-31.2-30.6-35.9 35.6-9.9 60.5-7.5 74.6 20.9 15 30-14 48-14 48z" style="fill:#f67d6d"/><path d="M791.2 496.9s-8.6 26.5 7.9 36.5c0 0 4.5 4 4.5 12s-6.5 25.2 8.2 31.6c0 0 14.2-6.9 0-32.7l-5.2-14.9c-.1.1 8.3-25-15.4-32.5z" style="fill:#292f44"/><ellipse transform="rotate(-7.476 798.114 517.462)" cx="798" cy="517.5" rx="8" ry="11.5" style="fill:#0ba9bf"/></g><path class="st5" d="M997.9 620.4c-6.6 4.1-14.6 5.3-22.1 3.3-36.3-9.7-148.7-37.1-209.4-19.9-26.2 7.4-52.9 14.5-80.9 18.8-50 7.6-104.3 5.9-167.1-20.4 0 0-2.7-.7-7.5-1.8-26.5-5.9-118.1-23-187.5 2.1-82 29.6-210.4-9-210.4-9S37.4 576.3 8.9 583l-.4-65.5c.5-.3 31.9-22.8 147 25.8 0 0 68 28.3 165-6.4 72.1-25.9 165.2-7.6 208.2 3.5 14.9 3.8 23.8 6.8 23.8 6.8s92 29.6 187-2.6c18.1-6.1 38.6-9.4 60-10.6 2.8-.2 5.6-.3 8.4-.4 8.5-.3 17-.3 25.6 0 15.8.4 31.6 1.7 46.9 3.4 63.4 7.2 116.6 22.7 116.6 22.7l.9 60.7z"/><path d="M997.9 610.4c-6.7 3.3-14.3 4.2-21.6 2.7-35.8-7.5-148.9-28.9-209.9-15.6-73 16-150 30.5-248-1.2 0 0-113-22.8-195 .2s-210.4-7-210.4-7-75.8-13.3-104.2-8.2l-.4-50.8c.5-.3 31.9-17.7 147 20 0 0 68 22 165-5s232 8 232 8 92 23 187-2S997 563.1 997 563.1l.9 47.3z" style="fill:#6cd5e0"/><g class="st2"><path class="st3" d="M347.3 447h-148c-8.6 0-15.5-6.9-15.5-15.5s6.9-15.5 15.5-15.5h148c8.6 0 15.5 6.9 15.5 15.5s-7 15.5-15.5 15.5z"/><path class="st3" d="M247.2 437h52v33h-52z"/></g><ellipse transform="rotate(-54.541 350.52 55.5)" class="st0" cx="350.5" cy="55.5" rx="22.9" ry="39.8"/><path class="st0" d="M416.2 108.6s46.3 108.3 132.1 118.8 124.7-36 124.7-36 10.6-28.9-64.2-37.1c-74.8-8.2-108.4-14-137.6-45.6-29.2-31.7-58.8-30.4-55-.1z"/><g><ellipse transform="rotate(-85.892 146.928 165.25) scale(.99997)" class="st12" cx="146.9" cy="165.2" rx="37.1" ry="24.8"/><path class="st12" d="M123.8 178.4s.4 41-5.9 50.8c0 0 30.8 6.3 41 0l-8.8-34.6-26.3-16.2zM183.4 284.9l9.8 24.6s9.2 15.2 28.2 0 54.8-47.5 54.8-47.5 14.4-26.5 8.6-34c-5.8-7.5-16.1 24.2-16.1 24.2s-6.3 10.9-13.2 11.5l-38.6 29.9-10.4-22.5-23.1 13.8zM80.4 184.3l4-84.1s-6.4-42.9 10.3-45c16.8-2.2 10.4 26 10.4 26s5.9-13.3 7.6-11c1.7 2.3-.6 20.8-5.2 27.1-4.6 6.3-4.6 53.6-4.6 53.6l1.3 33.4H80.4z"/><path d="M266.5 258.5c-.4 0-.8-.1-1.1-.2-1.5-.6-2.3-2.4-1.6-3.9l14-34.1c.6-1.5 2.4-2.3 3.9-1.6 1.5.6 2.3 2.4 1.6 3.9l-14 34.1c-.5 1.1-1.6 1.8-2.8 1.8z" style="fill:#2b3349"/><path d="M159 136.2s-16.8 2.9-33.4 29.4c-8.6 13.8-8.6 13.8 8.6 36.9 0 0-20.7-7.5-21.3-29.4-.5-17.6-2.6-27.8-4.2-33-1.4-4.7-.4-9.7 2.7-13.5 2.3-2.7 5.7-5 10.7-4.8 0 0 10.7-19.2 32.5-4.8 0 0 8.6 3.1 17 5.6 8.4 2.5 8.1 20.3 3 24.6-5 4.3-4 19.9 8.7 18.1 0 0-2.5 6-12.7 1.7 0-.1-12-16.2-11.6-30.8z" style="fill:#192c36"/><path class="st6" d="M85.3 363.8s-8.7 15 0 64.6S94 470 94 470l44.4.5v-53.3l8.6 53.3h41.9s13.2-87.5.2-107.5l-103.8.8z"/><path class="st8" d="M108.2 178.4s1 31.4 12.2 44c0 0 20.8 9.9 36.8 0 0 0 19.9-9.1 35.5 24.5l13.9 24.3-23.2 20.8 5.6 71-104 4s9.1-96.8 2.6-116.2-15.2-57.9-11.2-68.3c4-10.3 31.8-4.1 31.8-4.1z"/><path d="m120.4 223.4 14.2 44.9c1.2 3.7 6.4 3.8 7.7.1l14.9-44.9" style="fill:none;stroke:#2b3349;stroke-linecap:round;stroke-linejoin:round;stroke-miterlimit:10"/><circle class="st20" cx="139.2" cy="272.5" r="5.5"/><path class="st20" d="M136 269.4s-6.5 8.6 4 17.6v-12.5c0-.1-4.9-4.8-4-5.1z"/><circle class="st21" cx="139.2" cy="272" r="3.5"/><circle class="st21" cx="139.2" cy="272" r="3.5"/><circle class="st20" cx="139.2" cy="272" r="2.8"/></g></svg>