<svg version="1.1" id="Layer_1" xmlns="http://www.w3.org/2000/svg" xmlns:xlink="http://www.w3.org/1999/xlink" x="0" y="0" viewBox="0 0 1000 798" style="enable-background:new 0 0 1000 798" xml:space="preserve"><style>.st0{opacity:.18;fill:#fff}.st1{clip-path:url(#SVGID_2_)}.st3{fill:#93cf55}.st6{fill:#fff}.st7{fill:#d5b2f7}.st11{fill:#67913d}.st12{fill:#7fb249}.st13{opacity:.56}.st14{fill:#597936}.st15{opacity:.56;clip-path:url(#SVGID_2_)}.st19{fill:#191919}.st20{fill:#f9ac91}.st22{fill:#4c4c4c}.st23{opacity:.56;fill:#fff}.st24{fill:#ff4d53}.st25{opacity:.5}.st25,.st26{fill:#231f20}.st29{fill:#d5f7ad}.st31{fill:#a4bbdd}.st33{fill:#224a87}.st34{opacity:.56;fill:#4778c4}.st38{opacity:.75}.st41{fill:#c97d05}</style><ellipse transform="rotate(-51.932 875.093 372.825)" class="st0" cx="875.1" cy="372.8" rx="2.5" ry="7"/><defs><path id="SVGID_1_" d="M275.4 765.6c-39-3.8-292.8-38.5-251.3-294.7 8.8-54.1 35.3-103.7 75.6-140.9 24.4-22.5 57.1-47.4 98.8-68.7 78.7-40.1 162.4-116.3 202.4-155.1 21.9-21.2 47.2-38.5 74.9-51.1 88.9-40.3 278.3-94.5 436.3 73.3 12.3 13.1 22.5 28.1 30.2 44.4 34.2 71.8 109.9 281.7-69.4 453-203.9 194.9-539 149-586.8 141.2-3.6-.6-7.1-1-10.7-1.4z"/></defs><clipPath id="SVGID_2_"><use xlink:href="#SVGID_1_" style="overflow:visible"/></clipPath><g class="st1"><path d="M1001.5 367.5H2.5v-6c0-190.5 154.5-345 345-345h414.7c132.1 0 239.3 107.1 239.3 239.3v111.7z" style="fill:#e3d4fc"/><path class="st3" d="M19 368h983l-8.7 169H19z"/><path style="fill:#ebe0f9" d="M19 537h969l-8.6 77H19z"/><path style="fill:#5da8fb" d="M19 690h927.4l-8.2 87H19z"/><path class="st6" d="M594.5 1.5h407v366h-407z"/><path class="st7" d="M626.5 16.5h147v329h-147zM799.5 16.5h147v329h-147z"/><path class="st6" d="M439.9 212.5H268V16h221.5v146.9c0 27.4-22.2 49.6-49.6 49.6z"/><path class="st7" d="M292.1 56.5h169v124h-169z"/><g><path style="fill:#afd5fc" d="M26 613h927.4l-8.2 77H26z"/><path class="st6" d="M26 654.3h923.3v2.2H26z"/><path class="st6" d="M62.2 613h2v77h-2zM105.6 613h2v77h-2zM145.7 613h2v77h-2zM185.9 613h2v77h-2zM226 613h2v77h-2zM266.1 613h2v77h-2zM306.2 613h2v77h-2zM346.3 613h2v77h-2zM386.4 613h2v77h-2zM426.5 613h2v77h-2zM466.6 613h2v77h-2zM506.8 613h2v77h-2zM546.9 613h2v77h-2zM587 613h2v77h-2zM627.1 613h2v77h-2zM667.2 613h2v77h-2zM707.3 613h2v77h-2zM747.4 613h2v77h-2zM787.5 613h2v77h-2zM827.7 613h2v77h-2zM865.8 613h2v77h-2zM905.9 613h2v77h-2z"/></g><g style="opacity:.39"><path class="st6" d="m947.1 736.2-918.8 5.4 1.9-2.6 919.3-5.2z"/><path class="st6" d="M37.3 781h-2l66.7-91h2zM80.1 780.5h-2l67.7-90.5h2zM119.6 780.1h-1.9l68.5-90.1h2zM159.2 779.7h-2l69.4-89.7h2zM198.7 779.3h-2L267 690h2zM238.2 778.9h-1.9l71.1-88.9h2zM277.8 778.4l-2 .1 72-88.5h2zM317.3 778h-1.9l72.8-88h2zM356.9 777.6h-2l73.7-87.6h2zM396.4 777.2h-2L469 690h2zM435.9 776.8H434l75.4-86.8h2zM475.5 776.3l-2 .1 76.3-86.4h2zM515 775.9l-2 .1 77.2-86h2zM554.6 775.5h-2l78-85.5h2zM594.1 775.1h-2L671 690h2zM633.6 774.7h-1.9l79.7-84.7h2zM673.2 774.3h-2l80.6-84.3h2zM712.7 773.8l-2 .1 81.5-83.9h2zM752.3 773.4h-2l82.3-83.4h2zM791.8 773h-2l83.2-83h2zM829.4 772.6h-2l83.9-82.6h2.1zM868.9 772.2h-2l84.8-82.2h2.1z"/></g></g><g class="st1"><path class="st6" d="M81.9 704c-.3 0-.7 0-1-.1-4.4-.6-7.5-5-6.9-9.7 0-.4 4.9-43 5.4-86 1-78.6-12.7-84.6-14.3-85-1.8-.5-3-.2-4.4 1-9.8 8.4-13.7 46.9-13.5 71.5.1 4.8-3.5 8.8-7.9 8.8h-.1c-4.4 0-7.9-3.8-8-8.6 0-.7-.2-16.7 1.8-34.8 2.9-26.3 8.7-42.8 17.7-50.6 5.3-4.6 11.6-6 18.2-4.3 18.9 5.1 27.3 37.6 26.5 102.3-.6 43.9-5.5 87.3-5.6 87.7-.5 4.6-3.9 7.8-7.9 7.8zM168.4 700.7c-.6 0-1.3-.1-1.9-.2-4.3-1.1-6.9-5.4-5.8-9.7 4.1-16.4 6-52.5 4.8-92-1.2-41.7-5.2-66.5-7.8-72-.7-.3-1-.2-1.1-.2-.7.3-6.8 3.9-12.6 29.7-3.3 14.6-4.7 28.5-4.7 28.6-.4 4.4-4.4 7.6-8.8 7.2-4.4-.4-7.6-4.4-7.2-8.8.1-.6 1.5-14.9 5-30.4 5.3-23.3 12.1-36.3 21.4-40.7 5.6-2.7 11.8-2.1 17.6 1.7 4.2 2.8 7.4 8.7 10.3 29.8 1.8 13.3 3.1 31.1 3.8 50.3 1.2 33.9.4 78.1-5.2 100.6-.9 3.6-4.2 6.1-7.8 6.1zm-11-174.5z"/><path class="st6" d="M172.7 633.6H86.3c-1.9 0-3.5-1.7-3.5-3.9s1.6-3.9 3.5-3.9h86.4c1.9 0 3.5 1.7 3.5 3.9s-1.6 3.9-3.5 3.9z"/></g><g style="opacity:.35;clip-path:url(#SVGID_2_)"><path class="st6" d="M101 689c-.3 0-.5 0-.8.1-3.5.5-6 3.9-5.5 7.7 0 .3 3.9 34.1 4.3 68.3.8 62.4-10.1 67.2-11.3 67.5-1.4.4-2.4.2-3.5-.8-7.7-6.7-10.9-37.2-10.7-56.8 0-3.8-2.8-7-6.3-7h-.1c-3.5 0-6.3 3-6.3 6.8 0 .5-.1 13.2 1.5 27.6 2.3 20.9 6.9 34 14 40.2 4.2 3.6 9.2 4.8 14.4 3.4 15-4 21.7-29.8 21-81.2-.5-34.9-4.4-69.3-4.4-69.7-.4-3.5-3.2-6.1-6.3-6.1zM175.8 696.5c4.5 17.9 5 53 4.1 79.9-.5 15.2-1.6 29.4-3 39.9-2.2 16.8-4.8 21.5-8.1 23.7-4.6 3-9.5 3.5-14 1.3-7.4-3.5-12.8-13.8-17-32.3-2.8-12.3-3.9-23.7-4-24.2-.3-3.5 2.2-6.6 5.7-6.9 3.5-.3 6.6 2.2 7 5.7 0 .1 1.1 11.2 3.8 22.7 4.6 20.5 9.5 23.3 10 23.6.1 0 .3.1.9-.1 2.1-4.3 5.2-24.1 6.2-57.2.9-31.3-.6-60-3.8-73-.8-3.4 1.2-6.9 4.6-7.7.5-.1 1-.2 1.5-.2 2.8 0 5.4 1.9 6.1 4.8zm-14.9 133.7z"/><path class="st6" d="M173 717.9h-68.6c-1.5 0-2.8 1.4-2.8 3.1s1.2 3.1 2.8 3.1H173c1.5 0 2.8-1.4 2.8-3.1s-1.2-3.1-2.8-3.1z"/></g><g class="st1"><path class="st11" d="M985.1 403.4c-1.1 12.7-3.2 24-6.6 33.1 0 0-55.5-5.5-57.5-52.5 0 0-35-65-9-99 0 0 18.3-6 9.7-35.5C913 220 911 164.7 929 147.3c4.7-4.5 12.1 7.5 20.2 29.2 19.3 52 41.8 159.7 35.9 226.9z"/><path class="st12" d="M985.1 403.4c-2.8 5.9-4.8 9.1-4.8 9.1s-52.8-8.7-23.8-24.9c0 0-36-40.1-23-52.1h16.6s-23.4-15.9-11-34.9l7.4 11.3s-25.8-79.4-12.9-99.4l12.9 9.9-.1-51.3s1 2 2.8 5.5c19.3 51.9 41.8 159.6 35.9 226.8z"/><g class="st13"><path class="st14" d="M924.9 202h-1c0-3.7-.7-8.6-1.5-13.9-1.5-10.4-3.1-21.2.9-24.2 1.6-1.2 3.9-1.1 6.8.2 3.3 1.5 5.5 2.6 6.9 3.5l1.8-5 8 8.1-.7.7-6.8-7-1.3 3.7c1.5 1.1 1.7 1.8 1.6 2.3-.3 1.2-2.5 1.2-3.2 1.1h-.7l1.1-3c-1.3-.8-3.4-2-6.9-3.6-2.6-1.2-4.5-1.3-5.8-.3-3.6 2.7-2 13.6-.5 23.3.6 5.3 1.3 10.3 1.3 14.1zm12.6-32.9-.5 1.4c.8 0 1.4-.2 1.5-.4 0 .1 0-.2-1-1z"/></g><g class="st13"><path class="st14" d="M938.7 376.6c-1.1-1.3-26.9-32.7-22.6-41 .7-1.4 2.2-2.1 4.4-2.1-1.7-4.5-10-27.8-4.8-33 1.3-1.3 3.2-1.4 5.7-.4l-.4.9c-2.1-.8-3.7-.8-4.7.2-4.3 4.3 2.4 25 5.3 32.6l.3.7-.8-.1c-2.2-.2-3.6.3-4.2 1.5-4 7.7 22.2 39.6 22.4 39.9l-.6.8z"/></g></g><path d="M975.1 401c-.2 0-.5-.1-.6-.3-1-1.1-25.5-26.5-23.5-44.8.5-4.8 2.8-8.7 6.8-11.6-3.3-3.9-16.9-21.1-14.7-31.5.6-3 2.4-5.2 5.3-6.5.3-.2 6.1-3.1 11.6-2.5-5.1-5.5-11.7-16.2-5.8-31.6l8.6-22.6c.2-.5.7-.7 1.2-.5.5.2.7.7.5 1.2l-8.6 22.6c-6.7 17.6 3.5 28.4 8 32.1.7.4 1.4.9 2 1.5l5.9 5.9-7-4.5s-.7-.5-1.7-1.3c-5.4-3-13.7 1.3-13.8 1.4-2.4 1.1-3.9 2.8-4.4 5.2-2.2 10.7 14.8 30.5 15 30.7l.7.8-.9.6c-4.1 2.6-6.4 6.3-6.9 10.8-1.9 17.4 22.7 43 23 43.3.4.4.4.9 0 1.3-.2.2-.5.3-.7.3z" style="fill:#9bcf63" class="st15"/><g class="st1"><path class="st11" d="M36.1 388.5s-3.5-36.9 33.5-28.9c0 0-17.5-66.8 42.9-46.6 0 0 9.6 5.9 24.2-32s44.6-19.4 52.9-11.4c8.3 8.1 29.1-80.8 87.9-24.6 0 0 47.4-20 50.4 54 0 0 39.4 23.7 35.8 54.2-3.6 30.5-26.2 87.5-123.2 92.7S82 442.7 36.1 388.5z"/><path class="st12" d="M95.8 415s-5.3-27.8 23.4-24.4c0 0-18.2-49.5 29.3-38.6 0 0 7.7 3.8 16.1-26.1s32.5-18 39.4-12.5c6.9 5.5 16.3-63.6 65.1-25 0 0 34.6-18.6 42.2 37.5 0 0 31.7 15.2 31.1 38.6-.4 23.5-13.5 68.5-87 79.5s-120.7 9-159.6-29z"/><path class="st14" d="M143.4 314.9c-.4 0-.8-.2-.9-.6-.1-.3-3.2-8.2.7-14.7 2.5-4.2 7.2-6.9 14.1-8 0-3.6.3-16.9 7.9-21.7 4.4-2.8 10.4-2.2 17.8 1.8l26 14c.5.3.7.9.4 1.4s-.9.7-1.4.4l-26-14c-6.7-3.6-12-4.2-15.8-1.8-7.7 4.9-7 20.7-7 20.8 0 .5-.4 1-.9 1-6.7.9-11.2 3.3-13.5 7.1-3.4 5.7-.6 12.9-.6 13 .2.5 0 1.1-.6 1.3h-.2zM73 406.5c-.2 0-.4-.1-.6-.2-.6-.5-15.5-12.4-13.8-24.1.8-5.6 5.3-10.1 13.4-13.4-.3-5.9-1.8-43.3 11.3-49.1 5.4-2.4 12.4.8 20.7 9.5.4.4.4 1 0 1.4-.4.4-1 .4-1.4 0-7.7-8-13.9-11-18.5-9C71.4 327.2 74 369 74 369.4c0 .4-.2.8-.6 1-7.8 3-12.1 7.1-12.8 12.1-1.6 10.5 12.9 22.1 13.1 22.2.4.3.5 1 .2 1.4-.3.3-.6.4-.9.4zM262.9 261.3c-.3 0-.6-.1-.8-.4-14.6-18.6-20.7-20.1-23-19.3-2.7.9-2.7 5.8-2.7 5.8 0 .6-.4 1-1 1-.5 0-1-.4-1-1 0-.3 0-6.3 4.1-7.7 5.1-1.8 13.3 4.8 25.2 19.9.3.4.3 1.1-.2 1.4-.2.2-.4.3-.6.3zM310.6 277.7c-.4 0-.7-.2-.9-.6-8.4-18.3-15.1-22.2-19.2-22.2h-.1c-5.1 0-8.1 5.9-8.1 5.9-.2.5-.8.7-1.3.4-.5-.2-.7-.8-.4-1.3.1-.3 3.6-7 9.9-7h.1c6.8.1 13.8 8 21 23.4.2.5 0 1.1-.5 1.3-.3 0-.4.1-.5.1zM350.1 380c-.1 0-.3 0-.4-.1-.5-.2-.7-.8-.5-1.3 13.1-30.2-8.9-40.8-9.8-41.3-.5-.2-.7-.8-.5-1.3.2-.5.8-.7 1.3-.5.2.1 24.7 11.9 10.8 43.9-.1.4-.5.6-.9.6z"/><g><g class="st13"><path class="st3" d="M138.6 428.5c-.1 0-.2 0-.3-.1-.9-.3-21.5-7.7-22.7-17.7-.5-3.9 2-7.6 7.4-11.1.3-.1 4.8-2.4 13.1 3-2.8-6.5-7.7-20.5-2.3-28.2 2.9-4.1 8.3-5.8 16-5 1.4-5.6 9.8-35.6 26.3-39.5 7.8-1.8 16.1 2.4 24.7 12.7.4.4.3 1.1-.1 1.4-.4.4-1.1.3-1.4-.1-8.1-9.7-15.7-13.7-22.7-12.1-16.6 3.9-25 38.5-25 38.8-.1.5-.6.8-1.1.8-7.4-.9-12.4.5-15 4.1-6.4 9.1 3.9 29.4 4 29.6.2.4.1.9-.3 1.2-.4.3-.9.3-1.3 0-9.2-7.3-13.9-5.1-14-5-4.6 2.9-6.7 6-6.4 9.1 1 8.8 21.1 16 21.3 16.1.5.2.8.8.6 1.3 0 .4-.4.7-.8.7z"/></g><g class="st13"><path class="st3" d="M321.1 379.1h-.2c-.5-.1-.9-.7-.7-1.2 3.5-14.3 2.2-26.6-3.9-36.4-9.5-15.4-27.7-19.6-27.9-19.6-.4-.1-.7-.4-.8-.9-.9-8.1-3.6-13.4-8-15.8-7.1-3.7-16.5 1.2-16.6 1.3-.4.2-1 .1-1.3-.3-5-7-10.1-10.2-15.4-9.7-11.5 1.2-20.1 20.1-20.2 20.3-.2.5-.8.7-1.3.5-.5-.2-.7-.8-.5-1.3.4-.8 9.1-20.2 21.8-21.4 5.8-.6 11.4 2.7 16.7 9.8 2.6-1.2 10.8-4.5 17.6-.9 4.9 2.6 8 8.2 9 16.6 3.6.9 19.4 5.8 28.4 20.4 6.4 10.3 7.8 23.1 4.2 38-.1.3-.5.6-.9.6z"/></g><g class="st13"><path class="st3" d="M184 431.5c-.3 0-.6-.1-.8-.4-.8-1-18.4-25.4-12.5-34.6 2.1-3.3 6.6-4.2 13.5-2.9.2 0 .4.1.5.2l9.5 8.8c-1.3-6-3.4-18.6 1.5-23.4 2.1-2 5-2.4 8.9-1.2 4.1 1.3 7.2 3 9 5 1.9-7.7 5.4-16.7 11.2-17.9 4.9-1 10.2 3.3 16.1 13.4.3.5.1 1.1-.4 1.4-.5.3-1.1.1-1.4-.4-5.3-9-10.1-13.2-14-12.4-4.9 1.1-8.2 10.2-10.1 18.1.2.4.4.9.5 1.4 1.2 4.4-2.3 8.2-2.4 8.3-.3.3-.8.4-1.2.2-.4-.2-.6-.6-.6-1s.5-4 1.5-8.6c-1.4-2.2-4.5-4.1-9.1-5.6-3.1-1-5.3-.7-6.9.7-4.6 4.4-1.7 19.3-.1 24.7.1.4-.1.9-.4 1.1s-.9.2-1.2-.1l-11.7-10.9c-5.9-1.1-9.6-.4-11.2 2-4.2 6.7 7.6 25.6 12.5 32.3.3.4.2 1.1-.2 1.4-.1.3-.3.4-.5.4z"/></g><g class="st13"><path class="st3" d="M225.3 428.5c-.1 0-.1 0 0 0-.6-.1-1-.5-1-1.1.1-.8 1.8-19.6 10.1-22.5 3.5-1.2 7.4.5 11.8 5 .4.4.4 1 0 1.4-.4.4-1 .4-1.4 0-3.8-3.9-7-5.5-9.7-4.5-5.9 2.1-8.3 15.7-8.8 20.8-.1.5-.5.9-1 .9z"/></g><g class="st13"><path class="st3" d="M290.4 415.7c-.5 0-.9-.3-1-.8-.8-3.6-7.5-35.4 1.2-40.8 2.8-1.7 6.6-.7 11.4 3.2 23.4 18.7 17.6 33.1 17.4 33.7-.2.5-.8.7-1.3.5s-.7-.8-.5-1.3c.1-.1 5.4-13.7-16.8-31.4-4.1-3.2-7.1-4.3-9.1-3-6.4 4-2.4 29.3-.3 38.7.1.5-.2 1.1-.8 1.2h-.2z"/></g></g></g><path d="M410.8 412.5S371 398.7 370 373.3s-10-47.8 25-42.1c0 0 1.1-78 40.5-63.1l11 9.6s30.6-53 69.5-40.3c0 0 55.9-3.3 56.4 39.2 0 0 44.4-.6 34.4 42.5 0 0 56.1 13.2 42.6 57.6-13.5 44.4-109 51.9-109 51.9s-101.9-.6-129.6-16.1z" style="clip-path:url(#SVGID_2_);fill:#67913d"/><path d="M425.8 413.6s-33.8-10.6-34.6-30c-.8-19.4-8.5-36.6 21.2-32.2 0 0 .9-59.8 34.4-48.4l9.3 7.3s26-40.6 59-30.9c0 0 47.5-2.6 47.9 30 0 0 37.7-.4 29.2 32.5 0 0 47.6 10.1 36.1 44.1s-92.5 39.8-92.5 39.8-86.5-.3-110-12.2z" style="clip-path:url(#SVGID_2_);fill:#7fb249"/><g class="st1"><path class="st3" d="M429.5 405.5c-.2 0-.3 0-.5-.1-.6-.4-15.5-8.8-14.7-18.3.4-5 5-9.2 13.7-12.5-2-3.5-7.8-14.9-3.7-20.6 2.3-3.2 7.2-4 14.4-2.4.8-4.5 4.5-21.6 15-26.1 5.3-2.2 11.5-.8 18.3 4.2.4.3.5 1 .2 1.4-.3.4-1 .5-1.4.2-6.2-4.6-11.7-5.9-16.4-4-10.8 4.5-14 25.4-14 25.6 0 .3-.2.5-.4.7-.2.2-.5.2-.8.1-7-1.7-11.5-1.2-13.4 1.4-3.4 4.6 2 15.6 4.4 19.4.2.3.2.6.1.9-.1.3-.3.5-.6.6-8.6 3.1-13.2 6.9-13.6 11.2-.7 8.2 13.6 16.3 13.7 16.4.5.3.7.9.4 1.4-.1.3-.4.5-.7.5z"/></g><g class="st1"><path class="st3" d="M482.7 407.5h-.1c-.5-.1-.9-.6-.9-1.1.2-1.2-.4-4.2-.9-7.3-1.5-8.2-3.4-19.5 1.6-22.9 2.7-1.8 6.8-1.2 12.5 2-.4-5.5-.9-21 6.4-26.2 3.4-2.4 8-2.3 13.6.4.5.2.7.8.5 1.3-.2.5-.8.7-1.3.5-4.9-2.4-8.8-2.6-11.6-.6-7.8 5.6-5.4 26.1-5.4 26.3 0 .4-.1.8-.5 1-.3.2-.7.2-1.1 0-5.8-3.5-9.8-4.5-12-3-4 2.7-2.1 13.7-.8 20.9.6 3.6 1.1 6.4.9 7.9 0 .5-.4.8-.9.8z"/></g><g class="st1"><path class="st3" d="M523.5 405.5h-.2c-.5-.1-.9-.7-.7-1.2.3-1.3 3.3-12.8 9.4-13.8 3.1-.5 6.3 1.9 9.4 7.2.3.5.1 1.1-.3 1.4-.5.3-1.1.1-1.4-.3-1.9-3.1-4.6-6.6-7.4-6.2-4 .6-7 9.1-7.7 12.3-.2.3-.6.6-1.1.6z"/></g><g class="st1"><path class="st14" d="M389 367.6c-.5 0-.9-.4-1-.9-.1-.9-3.1-21.6 4.6-27 2.4-1.7 5.5-1.8 9.3-.2-.6-5.3-1.7-20.1 4.6-24.9 2.5-1.9 5.8-2.1 9.7-.5.8-5.9 4.6-28.9 18.1-34.5 7.1-3 15.7-.4 25.5 7.5.4.3.5 1 .1 1.4-.3.4-1 .5-1.4.1-9.2-7.5-17.1-9.9-23.5-7.2-14 5.8-17 33.9-17 34.2 0 .3-.2.6-.5.8-.3.2-.6.2-.9 0-3.8-1.8-6.8-1.8-8.9-.2-6.7 5.1-3.6 24.6-3.6 24.8.1.4-.1.8-.4 1-.3.2-.7.2-1 .1-3.8-2-6.8-2.3-8.9-.8-5.6 3.9-4.6 19.5-3.7 25.1.1.5-.3 1.1-.8 1.1-.2.1-.3.1-.3.1z"/></g><g class="st1"><path class="st14" d="M466.1 266.7c-.2 0-.4-.1-.6-.2-.4-.3-.5-.9-.2-1.4.3-.4 6.8-9.2 14.6-8.8 3.7.2 7.1 2.6 9.9 6.9 1.4-4.1 5-12.4 10.9-13.6 3.9-.8 7.9 1.6 12 7.1.3.4.2 1.1-.2 1.4-.4.3-1.1.2-1.4-.2-3.6-4.8-7-6.9-10-6.3-6.5 1.3-10 14.2-10.1 14.3-.1.4-.4.7-.8.7-.4.1-.8-.2-1-.5-2.7-5-5.9-7.6-9.5-7.8-6.7-.4-12.8 7.9-12.9 7.9-.1.3-.4.5-.7.5z"/></g><g class="st15"><path class="st3" d="M593.1 376.2h-.2c-.5-.1-.9-.7-.7-1.2 3.5-14.3 2.2-26.6-3.9-36.4-9.5-15.4-27.7-19.6-27.9-19.6-.4-.1-.7-.4-.8-.9-.9-8.1-3.6-13.4-8-15.8-7.1-3.7-16.5 1.2-16.6 1.3-.4.2-1 .1-1.3-.3-5-7-10.1-10.2-15.4-9.7-11.5 1.2-20.1 20.1-20.2 20.3-.2.5-.8.7-1.3.5-.5-.2-.7-.8-.5-1.3.4-.8 9.1-20.2 21.8-21.4 5.8-.6 11.4 2.7 16.7 9.8 2.6-1.2 10.8-4.5 17.6-.9 4.9 2.6 8 8.2 9 16.6 3.6.9 19.4 5.8 28.4 20.4 6.4 10.3 7.8 23.1 4.2 38-.1.3-.5.6-.9.6z"/></g><g class="st15"><path class="st3" d="M562.3 412.8c-.5 0-.9-.3-1-.8-.8-3.6-7.5-35.4 1.2-40.8 2.8-1.7 6.6-.7 11.4 3.2 23.4 18.7 17.6 33.1 17.4 33.7-.2.5-.8.7-1.3.5s-.7-.8-.5-1.3c.1-.1 5.4-13.7-16.8-31.4-4.1-3.2-7.1-4.3-9.1-3-6.4 4-2.4 29.3-.3 38.7.1.5-.2 1.1-.8 1.2h-.2z"/></g><g class="st1"><path class="st14" d="M556.1 263.8c-.3 0-.6-.1-.8-.4-14.6-18.6-20.7-20.1-23-19.3-2.7.9-2.7 5.8-2.7 5.8 0 .6-.4 1-1 1-.5 0-1-.4-1-1 0-.3 0-6.3 4.1-7.7 5.1-1.8 13.3 4.8 25.2 19.9.3.4.3 1.1-.2 1.4-.2.2-.4.3-.6.3z"/></g><g class="st1"><path class="st14" d="M603.8 310.8c-.4 0-.7-.2-.9-.6-8.4-18.3-15.1-22.2-19.2-22.2h-.1c-5.1 0-8.1 5.9-8.1 5.9-.2.5-.8.7-1.3.4-.5-.2-.7-.8-.4-1.3.1-.3 3.6-7 9.9-7h.1c6.8.1 13.8 8 21 23.4.2.5 0 1.1-.5 1.3-.2.1-.4.1-.5.1z"/></g><g class="st1"><path class="st14" d="M637.4 379.9c-.1 0-.3 0-.4-.1-.5-.2-.7-.8-.5-1.3 13.1-30.2-8.9-40.8-9.8-41.3-.5-.2-.7-.8-.5-1.3.2-.5.8-.7 1.3-.5.2.1 24.7 11.9 10.8 43.9-.2.3-.5.6-.9.6z"/></g><g class="st1"><path class="st19" d="M532.8 592.2s-6.2 11.3 15.7 7.8c22-3.5 39-13.5 47-12.5s20-9 14-20l-76.7 24.7zM660.6 610.1s2.9 10.4 17.9-2.6 21-54 21-54 .8-5.9-4.6-8.5l-34.3 65.1z"/><path class="st20" d="M571.5 465.5s9.4 71.7 8.2 75.4c-1.2 3.6-2.9 15.1-4.1 18.3-1.2 3.3-37.2 24.3-40.2 27.3s-6 12 6 11 24.4-12.2 38.2-12.6c13.8-.4 31.8-1.4 29.8-17.4s-6.7-28.3.2-48.6c0 0 11-49.4 7.9-58.9l-46 5.5z"/><path class="st19" d="M575.5 587.6s-4-17.1-17-20.1c0 0-19.7 6.2-15.9 14.1s11.2 16 11.2 16l21.7-10z"/><path class="st20" d="M625.5 456s18 37.6 22 49.5 13 39.9 14 50.9-3 51-3 51 7 10.9 22.5-12.1c15.5-22.9 14.7-45.9 14.7-45.9s-.1-6-5.6-16.5c-5.6-10.6-12.6-19.6-13.6-31.6s-6-56-6-56l-45 10.7z"/><path class="st19" d="M692 578.4s-15.3-14.9-34.4-2.9c0 0-5.3 13.2 0 18.1 0 0 13.8-1.2 24.9 1.8l9.5-17zM556.5 340.5l-2.6 52.1 1.3 70.7s-.7 6.1 14.3 4.1 48-4 48-4 8-5 8-10-17.4-127.9-17.4-127.9-47.6 8-51.6 15z"/><path d="m669.5 337.5 6 40s9 61 4 67-34 18-52 15c0 0-7 1-9-14s-13.4-120.2-13.4-120.2 59.4 4.2 64.4 12.2z" style="fill:#2d2d2d"/><path class="st22" d="M647.5 389.5s7-18 28-12c0 0 12 5 8 36 0 0 3.8 27.5-17.6 23.3 0 0-14.4 4.7-14.4-12.3l-4-35zM547.9 396.7s-.3-6.1 6.2-8.2 17.7 0 17.7 0 4.8-2.1 5.8 10.9 2.2 43.2 2.2 43.2-2.2 8.8-12.2 7.8-16.2-1.3-19.6-13.1-.1-40.6-.1-40.6z"/><g class="st13"><path class="st6" d="M548.5 406.8c1.9-.4 3.8-.6 5.7-.8 1.9-.1 3.8-.2 5.7-.2 1.9 0 3.8.1 5.7.2 1.9.1 3.8.4 5.7.8-1.9.4-3.8.6-5.7.8-1.9.1-3.8.2-5.7.2-1.9 0-3.8-.1-5.7-.2-1.9-.1-3.8-.4-5.7-.8z"/></g><path class="st23" d="M551.5 409.5s1 26 6 31M563.1 409.5s-2.6 22 2.4 34"/><g class="st13"><path class="st6" d="M654.1 398.7c2.1-.9 4.2-1.6 6.3-2.3 2.1-.7 4.3-1.2 6.4-1.7 2.2-.5 4.3-1 6.5-1.3 2.2-.4 4.4-.7 6.7-.8-2.1.9-4.2 1.6-6.3 2.3-2.1.7-4.3 1.2-6.4 1.7-2.2.5-4.3.9-6.5 1.3s-4.4.7-6.7.8z"/></g><path class="st23" d="M660.6 401s-.3 22.3 5.3 28.9M674.5 398.5s3 21 0 28"/><path class="st20" d="M588 129.6s10.5 15.5-4 27.2 12.5 20.7 12.5 20.7 50-7 46-17-8-7-8-7-15.8 1.4-3.4-36.3L588 129.6z"/><ellipse class="st20" cx="608.5" cy="106.5" rx="26" ry="37.5"/><ellipse transform="rotate(-12.525 584.103 109.05)" class="st20" cx="584" cy="109" rx="5.5" ry="8.4"/><ellipse transform="rotate(-76.914 633.044 108.991)" class="st20" cx="633" cy="109" rx="8.4" ry="5.5"/><path class="st24" d="M584 156.8s-25.5-1.3-46.5 32.7c-13.4 21.7-19.1 38.5-21.4 47.8-1.3 5.3-1.6 8.2-1.6 8.2s13.1-23.7 31.7-6.7c2.2 2 3.6 4.9 3.5 8 0 3.3-.7 8.1-3.3 13.8 0 0 5-1 9-10l-2 90s-1 5 3 5c0 0 18-21 81-13 0 0 20-1 32 9 0 0 7-.4 0-16.2 0 0-1-10.8-1-12.8s-5-9-5-16v-21l14-10s16-9 18-31c0 0 3-33-14-50s-27.1-24.1-44-31c0 0-18 11-29 9.5.1-.1-7.9 2-24.4-6.3z"/><path class="st25" d="M523.5 227.5c3.1-2.2 6.6-3.8 10.3-4.6 3.7-.8 7.8-.6 11.3 1 1.8.8 3.4 2 4.7 3.3.7.7 1.4 1.4 1.9 2.2l.9 1.2.8 1.2c2 3.3 3.2 6.9 4.1 10.6-.3-.9-.7-1.8-1-2.7-.3-.9-.7-1.7-1.1-2.6-.4-.8-.8-1.7-1.2-2.5-.5-.8-.9-1.6-1.4-2.4-1-1.6-2.2-3-3.5-4.3-1.3-1.3-2.9-2.3-4.5-3.1-3.3-1.6-7.1-1.8-10.8-1.2-1.8.3-3.6.8-5.4 1.5-1.8.7-3.5 1.5-5.1 2.4zM667.1 225.4c1.5-.5 3.1-.7 4.7-.8.8 0 1.6 0 2.4.2.4.1.8.1 1.2.2l1.2.3c3.1.9 5.9 2.8 8.1 5.2.5.6 1.1 1.2 1.5 1.9l1.3 2c.5.7.8 1.4 1.1 2.1.3.7.7 1.4 1 2.2.5 1.5 1.1 3 1.5 4.5.3 1.6.7 3.1 1 4.7l-1.5-4.5c-.5-1.5-1.2-2.9-1.7-4.4-1.4-2.8-2.9-5.6-5-7.8-2.1-2.3-4.6-4.1-7.6-5.1-2.9-1.1-6.1-1.4-9.2-.7zM654.1 202c.9.9 1.6 1.9 2.2 2.9.6 1.1 1.2 2.1 1.7 3.3 1 2.3 1.6 4.7 1.8 7.1.1.6.1 1.2.1 1.8 0 .6.1 1.2 0 1.8l-.1 1.8-.3 1.8-.1.9-.2.9-.4 1.8c-.4 1.2-.8 2.3-1.3 3.4.2-1.2.6-2.3.8-3.5l.3-1.8.1-.9.1-.9c0-.6.1-1.2.2-1.8v-2.7l-.1-.9c0-.6 0-1.2-.1-1.8-.2-2.4-.8-4.7-1.5-6.9-.8-2.2-1.8-4.3-3.2-6.3zM629.5 312.5c2.9-.4 5.8-.6 8.7-.6 2.9 0 5.8.2 8.7.6 2.9.4 5.8 1 8.5 2 2.8 1 5.4 2.2 7.8 4-1.3-.6-2.6-1.4-3.9-1.8-.7-.3-1.3-.6-2-.8-.7-.2-1.4-.5-2.1-.7-2.8-.8-5.6-1.3-8.4-1.7-2.9-.4-5.7-.6-8.6-.8-1.4-.1-2.9-.1-4.3-.1-1.5-.1-2.9-.1-4.4-.1zM639.5 297.5c1.6-.7 3.4-1.1 5.2-1.3 1.8-.2 3.6-.3 5.4-.1 1.8.2 3.6.6 5.2 1.3 1.7.7 3.1 1.9 4.3 3.2-1.4-1.1-2.9-1.9-4.6-2.5-1.6-.5-3.3-.9-5-1-1.7-.2-3.5-.2-5.2-.1-1.8.1-3.6.2-5.3.5z"/><path class="st26" d="M594.5 91.5s-7.6 10.3-6.3 13.1l-2.2 1.9-2-12.6 10.5-2.4zM626.5 90.5s2.2 7.9 3.1 12.9c.9 5.1 3.8 6.9 6.4 0s3.8-18.9 3.8-18.9-12.3-8-13.3 6z"/><path d="M634.5 85s-9 13.3-26 12.4-33-2.9-33-2.9-6-9.4 7-12.7c0 0 2-26.3 35-25.3 0 0 25 6 22 32l-5-3.5z" style="fill:#ff4b53"/><g style="opacity:.5"><path class="st26" d="M584 77c4.2-.2 8.4-.1 12.6.1 4.2.2 8.4.6 12.6 1.2 2.1.3 4.2.7 6.2 1.2 2.1.5 4.1 1 6.1 1.7s4 1.6 5.8 2.7c1.7 1.2 3.4 2.7 4.1 4.8-.9-1.9-2.5-3.3-4.3-4.3-1.8-1-3.8-1.8-5.7-2.4-4-1.2-8.1-2-12.2-2.6-4.1-.7-8.3-1.1-12.5-1.4-2.1-.2-4.2-.3-6.3-.5-2.2-.3-4.3-.4-6.4-.5z"/><path class="st26" d="M611.2 56.7c-1 .5-2.1 1.1-3 1.7-1 .6-2 1.2-2.9 1.9-1.9 1.4-3.6 2.9-5.2 4.6-1.6 1.7-2.8 3.6-3.8 5.7l-.7 1.6c-.2.5-.3 1.1-.5 1.7l-.2.8c-.1.3-.1.6-.1.9-.1.6-.2 1.2-.3 1.7-.1-2.3.2-4.8 1.1-7 .9-2.2 2.2-4.3 3.8-6 1.6-1.7 3.5-3.3 5.5-4.5 2-1.4 4.1-2.4 6.3-3.1zM618.1 60.5c1.7 1.2 3.2 2.7 4.4 4.4 1.3 1.7 2.3 3.6 3 5.6.7 2 1 4.2.8 6.3-.1 2.1-.8 4.2-1.7 6 .5-2 1-4 .9-6.1 0-2-.3-4-1-5.9-.6-1.9-1.6-3.7-2.7-5.5-1-1.7-2.2-3.3-3.7-4.8z"/><path class="st26" d="M621.9 59.3c0 .3-.3.4-.5.5-.2.1-.5.2-.7.2-.5.1-1 .2-1.5.2-1 .1-2 0-3 0-1-.1-2-.2-3-.5-.5-.2-1-.3-1.5-.6-.2-.1-.5-.3-.7-.5-.2-.2-.5-.5-.5-1.1.1-.6.5-.7.8-.9.3-.1.6-.2.8-.2.5-.1 1.1-.1 1.6-.1 1 0 2 .2 3 .4s1.9.5 2.9.9c.5.2.9.4 1.4.6.2.1.4.3.6.4.2.3.4.5.3.7zm0 0c0-.5-.6-.8-1-1-.4-.2-.9-.4-1.4-.5-1-.3-1.9-.4-2.9-.5-1-.1-2-.1-2.9 0-.5 0-1 .1-1.4.2-.2 0-.4.1-.6.2-.2.1-.2.2-.2.1s0 .1.2.2c.1.1.3.3.5.4.4.2.8.4 1.3.6.9.4 1.8.6 2.8.8 1 .2 1.9.4 2.9.4.5 0 1 0 1.5-.1.2 0 .5-.1.7-.2.2-.2.5-.3.5-.6z"/></g><path class="st25" d="M582.5 161.6c2.1 1.3 4.3 2.5 6.6 3.6 2.3 1 4.6 2 7 2.7 4.7 1.5 9.7 2.4 14.6 2.2 2.5-.1 4.9-.3 7.3-.9 2.4-.6 4.7-1.4 7-2.4 2.2-1.1 4.4-2.3 6.4-3.8 1-.7 2-1.5 2.9-2.3.9-.8 1.8-1.7 2.7-2.5-3.3 3.8-7.2 7.1-11.7 9.4-2.2 1.2-4.7 2-7.1 2.6-2.5.6-5 .9-7.5 1-5.1.1-10.1-.8-14.9-2.5-4.8-1.8-9.3-4.1-13.3-7.1z"/><path class="st6" d="M342.9 747.5c-27.9-8-43.4-61.5-43.5-62.1l-.2-.6H418v1H300.5c1.8 6.1 16.9 53.4 42.7 60.8l-.3.9zM306.3 672.9H418v1H306.3zM311.6 664.2l-.1-1c4.2-.5 101.9-13.2 111.4.2l-.8.6c-9.2-13-109.4 0-110.5.2zM343 648.9h50v1h-50z"/><path class="st6" d="M366.7 751.7c-6.9 0-11.8-.8-12.5-.9-26.6 2.5-43.5-10.3-53-21.5-10.2-12.1-14.2-25-14.3-25.1l1-.3c0 .1 4 12.8 14.1 24.8 9.3 11 25.9 23.6 52.2 21.1h.2c.3.1 31.3 5.3 50.9-10.5 10-8.1 15.5-20.2 16.2-36.2h1c-.7 16.2-6.3 28.7-16.6 36.9-12 9.7-28.2 11.6-39.2 11.7z"/><path class="st6" d="M347.1 747.5c-28.1-12.5-33.5-84.9-33.7-88l1-.1c.1.7 5.5 74.9 33.1 87.2l-.4.9z"/><path class="st6" d="M351.1 747.3c-12-12.5-17.8-90.9-18-94.2l1-.1c.1.8 5.9 81.4 17.7 93.6l-.7.7z"/><path transform="matrix(.9996 -.02704 .02704 .9996 -18.75 9.622)" class="st6" d="M345.9 649.4h1.2V747h-1.2z"/><path class="st6" d="M353.9 747.3c-9.3-11.5 3.1-97.3 3.6-101l1 .1c-.1.9-12.8 89-3.8 100.2l-.8.7z"/><path class="st6" d="M356.3 748.3c-.3 0-.6-.1-.9-.3-7.3-4.9 18.5-94.3 21.5-104.5l1 .3c-11.6 39.7-26.9 100-21.9 103.4.4.3 1.1-.1 1.6-.5 14.2-11.3 24.9-40.5 25-40.8l14.5-55.1 1 .3-14.5 55.1c-.1.3-10.9 29.8-25.3 41.3-.8.5-1.4.8-2 .8zM367.2 747.5l-.2-1c19.1-4.4 51.2-66 51.5-66.6l.9.5c-1.4 2.5-32.7 62.6-52.2 67.1zM376.2 747.5l-.2-1c30.9-7.3 38.2-40.3 38.3-40.6l1 .2c-.1.3-7.6 33.9-39.1 41.4z"/><path class="st6" d="M343.1 740.5c-12.4 0-24.6-1.1-34.8-4.1l.3-1c38 11.3 104.5-4.3 105.1-4.4l.3 1c-.5.1-36.6 8.5-70.9 8.5zM324.4 722c-13.4 0-24.7-.9-31.4-3.3l.4-.9c25.4 9.3 126.2-4.6 127.2-4.7l.2.9c-3.1.4-57.9 8-96.4 8z"/><path class="st26" d="m418.5 706-131.1-2c-1.2 0-2.4-.7-3-1.7-.6-1.1-.6-2.4 0-3.4l24-44c.4-.8 1.1-1.4 2-1.7l57.6-18.5c10.2-20.9 97.2-185.6 101-192.8 0-.1.1-.1.1-.1l176.6-298.1c1-1.7 3.1-2.2 4.8-1.2 1.7 1 2.2 3.1 1.2 4.8L475.1 445.2c-2.3 4.3-85.6 162.3-99.7 190.3l52.3 18.7c1.6.6 2.6 2.2 2.3 3.9l-8 45c-.4 1.7-1.8 2.9-3.5 2.9zm-125.2-8.9 122.2 1.9 7-39.2-50.2-18c-.5-.2-.9-.5-1.3-.8l-33.9 10.9-23.2 7.5-20.6 37.7z"/><ellipse class="st6" cx="359" cy="748" rx="22" ry="4"/><path class="st20" d="M666.7 233.4c5.4.7 11.6 4.1 14.3 14.4 0 0 5.5 10.7-3.5 17.7 0 0-22 21.8-44.5 20.4s-40.5 4.6-50.5 10.1c0 0-14.9 12.9-28.4 19.2 0 0-8.1 3.2.2-8.2 0 0-10 5.5-7.9-5.5 2.1-11 1.1-12 12.1-21 0 0 6-4 14-4 0 0 60.7-23.2 80.9-39.3 3.7-2.9 8.5-4.4 13.3-3.8zM515.5 247.5s5.6-19.8 25.8-14.9c0 0 13.2 1.9 6.2 25.9 0 0-10 22-11 34s3.2 30.8 3.2 30.8l-12.2 26.2s-2 23-9 20c0 0 0-6-1-13s-6-19.4-2-27.2c0 0-2-26.8-5-42.8 0 0-1-29 5-39z"/><path class="st20" d="M546.4 335.4s-.4 7.1-2.6 10.1-4.3 8-6.3 8-5 8.4-8.5 6.2-4.9-10.2.3-14.2l5.2-4s-1.7-5.2 1.6-6.1c3.4-.9 2.4-8.9 5.4-6.9s4.8 2.8 4.9 6.9z"/></g><g class="st1"><g class="st13"><path class="st29" d="M332.5 518.9c-.4 0-.8-.2-.9-.7l-8.4-22.7c-.2-.5.1-1.1.6-1.3.5-.2 1.1.1 1.3.6l8.4 22.7c.2.5-.1 1.1-.6 1.3-.2.1-.3.1-.4.1z"/></g><g class="st13"><path class="st29" d="M352.4 514.8c-.6 0-1-.5-1-1.1l1.4-18.6c0-.6.5-1 1.1-.9.6 0 1 .5.9 1.1l-1.4 18.6c0 .5-.5.9-1 .9z"/></g><g class="st13"><path class="st29" d="M368.9 514.8c-.1 0-.3 0-.4-.1-.5-.2-.7-.8-.5-1.3l9-18.6c.2-.5.8-.7 1.3-.5.5.2.7.8.5 1.3l-9 18.6c-.1.4-.5.6-.9.6z"/></g></g><g class="st1"><g class="st13"><path class="st29" d="M398.5 468.9c-.4 0-.8-.2-.9-.7l-8.4-22.7c-.2-.5.1-1.1.6-1.3.5-.2 1.1.1 1.3.6l8.4 22.7c.2.5-.1 1.1-.6 1.3-.2.1-.3.1-.4.1z"/></g><g class="st13"><path class="st29" d="M418.4 464.8c-.6 0-1-.5-1-1.1l1.4-18.6c0-.6.5-1 1.1-.9.6 0 1 .5.9 1.1l-1.4 18.6c0 .5-.5.9-1 .9z"/></g><g class="st13"><path class="st29" d="M434.9 464.8c-.1 0-.3 0-.4-.1-.5-.2-.7-.8-.5-1.3l9-18.6c.2-.5.8-.7 1.3-.5.5.2.7.8.5 1.3l-9 18.6c-.1.4-.5.6-.9.6z"/></g></g><g class="st1"><g class="st13"><path class="st29" d="M319.7 450.8c-.4-.1-.7-.4-.8-.7l-3.3-18.2c-.1-.4.3-.7.8-.7s1 .4 1.1.8l3.3 18.2c.1.4-.3.7-.8.7-.1-.1-.2-.1-.3-.1z"/></g><g class="st13"><path class="st29" d="M332.3 448c-.6 0-1.1-.3-1.1-.7l-.2-13.6c0-.4.4-.8 1-.8s1 .3 1 .7l.2 13.6c0 .4-.4.7-.9.8z"/></g><g class="st13"><path class="st29" d="M349 449.2c-.1.1-.3.1-.4.1-.5.1-.9-.2-.9-.6l1.6-16.2c0-.4.5-.8 1-.9.5-.1.9.2.9.6l-1.6 16.2c0 .3-.2.6-.6.8z"/></g></g><g class="st1"><g class="st13"><path class="st29" d="M508.7 516.8c-.4-.1-.7-.4-.8-.7l-3.3-18.2c-.1-.4.3-.7.8-.7s1 .4 1.1.8l3.3 18.2c.1.4-.3.7-.8.7-.1-.1-.2-.1-.3-.1z"/></g><g class="st13"><path class="st29" d="M521.3 514c-.6 0-1.1-.3-1.1-.7l-.2-13.6c0-.4.4-.8 1-.8s1 .3 1 .7l.2 13.6c0 .4-.4.7-.9.8z"/></g><g class="st13"><path class="st29" d="M538 515.2c-.1.1-.3.1-.4.1-.5.1-.9-.2-.9-.6l1.6-16.2c0-.4.5-.8 1-.9.5-.1.9.2.9.6l-1.6 16.2c0 .3-.2.6-.6.8z"/></g></g><g class="st1"><g class="st13"><path class="st29" d="M704.2 505.1c-.4 0-.8-.1-1-.4l-9.7-15.8c-.2-.4 0-.8.5-1 .5-.2 1.1 0 1.3.3L705 504c.2.4 0 .8-.5 1-.1.1-.2.1-.3.1z"/></g><g class="st13"><path class="st29" d="M714.9 497.9c-.6.3-1.1.2-1.2-.2l-5.1-12.5c-.2-.4.1-.9.6-1.1.5-.2 1-.1 1.2.2l5.1 12.5c.1.4-.1.8-.6 1.1z"/></g><g class="st13"><path class="st29" d="m730.9 492.9-.3.3c-.5.3-.9.1-1-.3l-4.4-15.6c-.1-.4.2-1 .6-1.2.5-.3.9-.1 1 .3l4.4 15.6c.1.3 0 .7-.3.9z"/></g></g><g class="st1"><g class="st13"><path class="st29" d="M721.2 415.8c-.4-.1-.7-.4-.7-.7l-2.8-18.3c-.1-.4.3-.7.9-.7.5 0 1 .4 1.1.8l2.8 18.3c.1.4-.3.7-.9.7-.2 0-.3-.1-.4-.1z"/></g><g class="st13"><path class="st29" d="M733.9 413.3s-.1 0 0 0c-.6 0-1.1-.3-1.1-.7l.1-13.6c0-.4.4-.7 1-.8.6 0 1 .3 1 .7l-.1 13.6c0 .4-.4.8-.9.8z"/></g><g class="st13"><path class="st29" d="M750.6 414.9c-.1.1-.3.1-.4.1-.5.1-.9-.2-.9-.7l2-16.1c.1-.4.5-.8 1-.9.5-.1.9.2.9.7l-2 16.1c-.1.4-.3.7-.6.8z"/></g></g><g class="st1"><g class="st13"><path class="st29" d="M893.2 510.8c-.4-.1-.7-.4-.7-.7l-2.8-18.3c-.1-.4.3-.7.9-.7.5 0 1 .4 1.1.8l2.8 18.3c.1.4-.3.7-.9.7-.2 0-.3-.1-.4-.1z"/></g><g class="st13"><path class="st29" d="M905.9 508.3s-.1 0 0 0c-.6 0-1.1-.3-1.1-.7l.1-13.6c0-.4.4-.7 1-.8.6 0 1 .3 1 .7l-.1 13.6c0 .4-.4.8-.9.8z"/></g><g class="st13"><path class="st29" d="M922.6 509.9c-.1.1-.3.1-.4.1-.5.1-.9-.2-.9-.7l2-16.1c.1-.4.5-.8 1-.9.5-.1.9.2.9.7l-2 16.1c-.1.4-.3.7-.6.8z"/></g></g><g class="st1"><g class="st13"><path class="st29" d="M900.2 456.8c-.4-.1-.7-.4-.7-.7l-2.8-18.3c-.1-.4.3-.7.9-.7.5 0 1 .4 1.1.8l2.8 18.3c.1.4-.3.7-.9.7-.2 0-.3-.1-.4-.1z"/></g><g class="st13"><path class="st29" d="M912.9 454.3s-.1 0 0 0c-.6 0-1.1-.3-1.1-.7l.1-13.6c0-.4.4-.7 1-.8.6 0 1 .3 1 .7l-.1 13.6c0 .4-.4.8-.9.8z"/></g><g class="st13"><path class="st29" d="M929.6 455.9c-.1.1-.3.1-.4.1-.5.1-.9-.2-.9-.7l2-16.1c.1-.4.5-.8 1-.9.5-.1.9.2.9.7l-2 16.1c-.1.4-.3.7-.6.8z"/></g></g><g class="st1"><g class="st13"><path class="st29" d="M235.7 520.8c-.4-.1-.7-.4-.8-.7l-3.3-18.2c-.1-.4.3-.7.8-.7s1 .4 1.1.8l3.3 18.2c.1.4-.3.7-.8.7-.1-.1-.2-.1-.3-.1z"/></g><g class="st13"><path class="st29" d="M248.3 518c-.6 0-1.1-.3-1.1-.7l-.2-13.6c0-.4.4-.8 1-.8s1 .3 1 .7l.2 13.6c0 .4-.4.7-.9.8z"/></g><g class="st13"><path class="st29" d="M265 519.2c-.1.1-.3.1-.4.1-.5.1-.9-.2-.9-.6l1.6-16.2c0-.4.5-.8 1-.9.5-.1.9.2.9.6l-1.6 16.2c0 .3-.2.6-.6.8z"/></g></g><g class="st1"><g class="st13"><path class="st29" d="M108.7 510.8c-.4-.1-.7-.4-.8-.7l-3.3-18.2c-.1-.4.3-.7.8-.7s1 .4 1.1.8l3.3 18.2c.1.4-.3.7-.8.7-.1-.1-.2-.1-.3-.1z"/></g><g class="st13"><path class="st29" d="M121.3 508c-.6 0-1.1-.3-1.1-.7l-.2-13.6c0-.4.4-.8 1-.8s1 .3 1 .7l.2 13.6c0 .4-.4.7-.9.8z"/></g><g class="st13"><path class="st29" d="M138 509.2c-.1.1-.3.1-.4.1-.5.1-.9-.2-.9-.6l1.6-16.2c0-.4.5-.8 1-.9.5-.1.9.2.9.6l-1.6 16.2c0 .3-.2.6-.6.8z"/></g></g><g class="st1"><g class="st13"><path class="st29" d="M67.7 454.8c-.4-.1-.7-.4-.8-.7l-3.3-18.2c-.1-.4.3-.7.8-.7s1 .4 1.1.8l3.3 18.2c.1.4-.3.7-.8.7-.1-.1-.2-.1-.3-.1z"/></g><g class="st13"><path class="st29" d="M80.3 452c-.6 0-1.1-.3-1.1-.7l-.2-13.5c0-.4.4-.8 1-.8s1 .3 1 .7l.2 13.6c0 .3-.4.6-.9.7z"/></g><g class="st13"><path class="st29" d="M97 453.2c-.1.1-.3.1-.4.1-.5.1-.9-.2-.9-.6l1.6-16.2c0-.4.5-.8 1-.9.5-.1.9.2.9.6l-1.6 16.2c0 .3-.2.6-.6.8z"/></g></g><g class="st1"><g class="st13"><path class="st29" d="M187.7 474.8c-.4-.1-.7-.4-.8-.7l-3.3-18.2c-.1-.4.3-.7.8-.7s1 .4 1.1.8l3.3 18.2c.1.4-.3.7-.8.7-.1-.1-.2-.1-.3-.1z"/></g><g class="st13"><path class="st29" d="M200.3 472c-.6 0-1.1-.3-1.1-.7l-.2-13.6c0-.4.4-.8 1-.8s1 .3 1 .7l.2 13.6c0 .4-.4.7-.9.8z"/></g><g class="st13"><path class="st29" d="M217 473.2c-.1.1-.3.1-.4.1-.5.1-.9-.2-.9-.6l1.6-16.2c0-.4.5-.8 1-.9.5-.1.9.2.9.6l-1.6 16.2c0 .3-.2.6-.6.8z"/></g></g><g class="st1"><path d="m766.6 440.5 6.9 120.8s3.2 11.8 15.8 14.2c12.7 2.5 69.5 0 69.5 0s13.2-3 14.2-14.2c1-11.3 7.8-120.8 7.8-120.8" style="fill:#7748c1"/><path transform="matrix(.998 -.063 .063 .998 -29.364 50.124)" class="st31" d="M779.6 452.4h1v76.4h-1z"/><path class="st31" d="m855.2 545.2-.9-.3c5.1-15.2 3.8-67.8 3.8-68.4h1c0 2.2 1.2 53.3-3.9 68.7zM863 557.6l-1-.2c3.9-17.7 6-101.1 6-101.9h1c0 .9-2 84.3-6 102.1z"/><path d="M775 395s-10 3-9 12c.7 6.7 2.8 20.2 3.9 26.7.4 2.4 2.1 4.4 4.4 5.1 6.7 2.2 20.9 5 30.2-5.2 1.8-2 2.4-4.7 1.7-7.3l-6.6-25.2c-.4-1.4-1.2-2.7-2.3-3.6-3-2.4-8.8-6.8-10.7-5.4C784 394 775 395 775 395z" style="fill:#feac02"/><g class="st13"><path class="st6" d="M800 424c-.5 0-1-.4-1-.9-1-16.3-10.4-22.1-10.5-22.2-.5-.3-.6-.9-.3-1.4.3-.5.9-.6 1.4-.3.4.3 10.5 6.5 11.5 23.8-.1.5-.5 1-1.1 1z"/></g><g class="st13"><path class="st6" d="M795 421.8c-.5 0-1-.4-1-.9-.6-10.2-6.5-13.8-6.5-13.8-.5-.3-.6-.9-.3-1.4.3-.5.9-.6 1.4-.3.3.2 6.8 4.2 7.5 15.4-.1.5-.5 1-1.1 1z"/></g><ellipse transform="rotate(-10.486 773.692 418.074)" class="st0" cx="773.5" cy="418" rx="2.5" ry="7"/><path class="st33" d="m784 396.3-6.9 1.3c-2.2.4-4.3-1-4.7-3.2l-.6-3.1c-.4-2.2 1-4.3 3.2-4.7l6.9-1.3c2.2-.4 4.3 1 4.7 3.2l.6 3.1c.4 2.2-1 4.3-3.2 4.7z"/><ellipse transform="rotate(-10.486 783.693 391.067)" class="st34" cx="783.5" cy="391" rx="1.5" ry="3"/><g><path d="M803.5 375.5h10.1l20.9 50.5c.7 1.6.2 3.4-1 4.5-3.2 2.8-9.8 7.3-18.4 5.9-2.1-.4-3.9-1.9-4.6-3.9l-10-28.3c-.3-.9-.4-1.9-.3-2.9l3.3-25.8z" style="fill:#4570ad"/><path class="st24" d="M788 367.5s2.5-4.7 7-6.9c4.5-2.1 20.5-1.1 20.5-1.1s6.5 4 2.2 8c0 0-5.1 2-4.2 8h-10.1s-2-6-3.5 0-6.6 15.9-6.6 15.9-1.9 1.4-1.9-3.2 3-13.9 3-15.3-5.5 0-5.5 0-3.4-2.4-.9-5.4z"/><g style="opacity:.74"><path class="st6" d="M825.2 417.4c-.4 0-.8-.2-.9-.6l-13.7-33.9c-.2-.5 0-1.1.6-1.3.5-.2 1.1 0 1.3.6l13.7 33.9c.2.5 0 1.1-.6 1.3-.2-.1-.3 0-.4 0zM815.5 402.5c-.4 0-.8-.2-.9-.6l-5-12c-.2-.5 0-1.1.5-1.3.5-.2 1.1 0 1.3.5l5 12c.2.5 0 1.1-.5 1.3-.1.1-.3.1-.4.1z"/></g><ellipse transform="matrix(.9977 -.06757 .06757 .9977 -22.779 55.444)" cx="808.2" cy="364.4" rx="7" ry="2.5" style="opacity:.61;fill:#fff"/></g><g><path class="st24" d="M886.9 388.5c-1.9-11.5-9.1-22.2-18-22.3-8.9-.2-18.4 2.3-18.4 2.3s-15.9 1.6-18.2 13.1c0 0-5.5 3.2-6.1 43.4-.1 3.7 2.1 7.1 5.4 8.6 4.7 2.1 13.1 4.5 26.8 4.5 25.5 0 23.5-9 23.5-9s7-29.1 5-40.6zm-13.6 20.9c-4.3 1.1-9.6-5-12-13.9-2.4-8.8-.8-16.9 3.4-18 4.3-1.2 9.6 5 12 13.8 2.4 8.9.8 17-3.4 18.1z"/><g class="st38"><path class="st6" d="M858.5 407.1c-.3 0-.6-.2-.8-.4-7.7-11.2-2.7-23.6-2.5-24.1.2-.5.8-.8 1.3-.5.5.2.8.8.5 1.3 0 .1-4.8 11.9 2.3 22.2.3.5.2 1.1-.3 1.4-.1.1-.3.1-.5.1z"/></g><g class="st38"><path class="st6" d="M863.8 406.6c-.3 0-.5-.1-.7-.3-8-8-5.8-18.8-5.7-19.3.1-.5.6-.9 1.2-.8.5.1.9.6.8 1.2 0 .1-2.1 10.3 5.2 17.5.4.4.4 1 0 1.4-.3.2-.5.3-.8.3z"/></g><path class="st33" d="M859.6 368.4h-7c-2.2 0-4-1.8-4-4v-3.2c0-2.2 1.8-4 4-4h7c2.2 0 4 1.8 4 4v3.2c0 2.2-1.8 4-4 4z"/><ellipse class="st34" cx="860" cy="363.2" rx="1.5" ry="3"/></g><path d="M883.5 443h-120c-3.6 0-6.5-2.9-6.5-6.5s2.9-6.5 6.5-6.5h120c3.6 0 6.5 2.9 6.5 6.5s-2.9 6.5-6.5 6.5z" style="fill:#b595e5"/></g><g class="st1"><path d="M809.5 436.7S806.1 417 849 424c0 0 13.2 2.9 1.1 44.8-.8 2.7-2.8 4.7-5 6.4-5.1 3.8-26.1 6.8-32.4-5.3-1-2-2.2-3.9-2.3-6.1l-.9-27.1z" style="fill:#ffaa02"/><ellipse class="st41" cx="817.8" cy="440.2" rx="2.2" ry="5.2"/><ellipse class="st41" cx="818.5" cy="458.5" rx="2.5" ry="7.5"/><ellipse class="st41" cx="827.5" cy="460" rx="2.5" ry="6"/><ellipse class="st41" cx="826.8" cy="440.2" rx="2.2" ry="5.2"/><ellipse class="st41" cx="835.8" cy="440.2" rx="2.2" ry="5.2"/><ellipse class="st41" cx="838.8" cy="462.2" rx="2.2" ry="5.2"/><ellipse class="st41" cx="846.8" cy="443.2" rx="2.2" ry="5.2"/></g></svg>