<svg version="1.1" id="Layer_1" xmlns="http://www.w3.org/2000/svg" x="0" y="0" viewBox="0 0 1000 1000" style="enable-background:new 0 0 1000 1000" xml:space="preserve"><style>.st0{opacity:.47;fill:#cfb5f6}.st2{fill:#feac02}.st3{opacity:.5}.st4{fill:#fff}.st5{fill:#91a82f}.st7{fill:#2266af}.st9{fill:none;stroke:#266ab1;stroke-miterlimit:10}.st10{fill:#bfe7ff}.st13{fill:#2f373f}.st14{fill:#f8a770}.st16{fill:#fdf242}.st17{fill:#e89069}.st18{fill:#f99f6d}.st20{fill:#ff4d53}.st21{fill:#f68f6c}.st22{fill:#e6e7e8}.st23{fill:#d1d3d4}.st24{fill:#4570ad}.st28{fill:#f7ac75}.st29{fill:#232323}.st31{opacity:.19;fill:#fff}</style><circle class="st0" cx="544" cy="436.2" r="383"/><circle cx="499.8" cy="437.4" r="383" style="fill:#cfb5f6"/><ellipse class="st0" cx="471.5" cy="774.5" rx="236.6" ry="137.2"/><path class="st2" d="M224.5 869.2S-20.4 493.6 247.7 57.9c.1-.1 252.3 440.2-23.2 811.3z"/><g class="st3"><path class="st4" d="m225.2 847.2 1.2-91.2 1.5-91.1 3.7-182.3 4.4-182.3 2.5-91.2 2.9-91.1-1.2 91.2-1.5 91.1-3.7 182.3-4.4 182.3-2.5 91.2z"/></g><path class="st5" d="M254.5 787.3S14.5 593.4 97.6 251.4c0-.1 258.4 234.6 156.9 535.9z"/><g class="st3"><path class="st4" d="m250.3 772.7-18.6-59.9-18.3-60-36.3-120.1-35.8-120.2-17.7-60.2-17.4-60.2 18.6 59.9 18.3 60 36.3 120.1 35.7 120.2 17.7 60.2z"/></g><path class="st2" d="M798.6 862.1s244.9-375.6-23.2-811.3c0-.1-252.2 440.2 23.2 811.3z"/><g class="st3"><path class="st4" d="m797.9 840.1-1.1-91.2-1.6-91.1-3.6-182.4-4.5-182.2-2.5-91.2-2.8-91.1L783 202l1.5 91.2 3.6 182.3 4.5 182.3 2.5 91.2z"/></g><path class="st5" d="M768.7 780.2s240-193.9 156.9-535.9c0-.1-258.5 234.5-156.9 535.9z"/><g class="st3"><path class="st4" d="m772.9 765.6 18.5-59.9 18.4-60 36.3-120.1 35.7-120.2 17.7-60.2 17.5-60.3-18.6 60-18.3 60-36.3 120L808 645.2l-17.7 60.2z"/></g><path d="M141 659.4h666c5.7 0 11.4.5 17.1 1.5 24.4 4.4 78.7 20.5 89 73.4l.9 60.6c.3 19.6-9.1 38.1-25.2 49.2-15 10.4-38.7 20.2-75.9 23.7-93.1 9-285.5-17.2-285.5-17.2s-174.6-4.2-242.2 17.2c-67 21.2-164.5 14.7-186.5-37.4 0 0-31.8-37.5-9-134.4 0 0 11.4-36.6 51.3-36.6z" style="fill:#4aa4fc"/><path class="st7" d="M142.4 616.2h666c5.7 0 11.4.5 17.1 1.5 23.5 4.2 74.8 19.3 87.7 67.8.9 3.2 1.3 6.6 1.3 9.9l1.1 73.9s14.3 56.2-101.4 55.4-285.5-19.5-285.5-19.5-176.3-6.5-242.2 19.6c-66 26.1-164.5 14.7-186.5-37.4 0 0-31.8-37.5-9-134.4.1-.2 11.5-36.8 51.4-36.8z"/><path class="st4" d="M887.4 794.1H122.9c-10.4 0-18.3-9.4-16.5-19.7l17.5-98.1c1.4-8 8.4-13.9 16.6-13.9l710.8 1.3c7 0 13.3 4.4 15.7 11l36 96.8c4.2 11-3.9 22.6-15.6 22.6z"/><path d="M876.2 787.3H134.1c-10.1 0-17.8-8.6-16-17.9l17-89.3c1.4-7.3 8.2-12.6 16.1-12.6l690 1.2c6.8 0 12.9 4 15.3 10l34.9 88.1c4 9.9-3.8 20.5-15.2 20.5z" style="opacity:.5;fill:#53d9ff"/><path class="st9" d="M131.4 699.4h733.4M122.2 748.2h759.6"/><path class="st10" d="M128.6 235.6h730.8v325.6H128.6z"/><path style="fill:#7fbafe" d="M128.2 561.2H859v58.9H128.2z"/><path style="fill:#81caff" d="M128.2 559.7H859v52.9H128.2z"/><path class="st13" d="M224.7 561.2h1v51.4h-1zM313.8 560.7h1v51.4h-1zM402.8 560.2h1v51.4h-1zM491.8 559.7h1v51.4h-1zM580.9 559.2h1v51.4h-1zM669.9 558.7h1v51.4h-1zM759 558.2h1v51.4h-1zM848 557.7h1v51.4h-1z"/><path transform="matrix(1 -.0039 .0039 1 -2.294 1.957)" class="st13" d="M131.4 587.8h737v1h-737z"/><ellipse transform="rotate(-23.242 476.367 702.02)" class="st14" cx="476.3" cy="702" rx="12.2" ry="16.8"/><path class="st14" d="m465.1 706.8-2.6 21.8s4.3 4.9 13.8 0l-1.6-17-9.6-4.8z"/><path class="st14" d="m488.7 751-.7 5.4-1.1 9.1s-13 5.8-24.4 2.2c-11.4-3.6-20.1-2.2-20.1-2.2s-.5-3.7-.7-9.1c-.2-4.6-.1-10.5.7-16.3 1.8-12.7 18.5-13.4 18.5-13.4 8 5.4 15.3 0 15.3 0l10.8 4c5.7 7.7 1.7 20.3 1.7 20.3z"/><path class="st14" d="m490 745.5 16.4 2.3H534s14.5 4.5 8.7-2.3-7.2-6.4-16.3-6.1c-9 .4-18.8-.2-18.8-.2s-7.8-.1-13.5-3.1c-5.7-2.9-12.2-5.4-12.2-5.4v14.8h8.1z"/><path d="m469.4 688.4 14.4 2.8s-.2-3.4-1.9-6.1c-1.1-1.6-2.7-2.9-5.2-2.9-6.7 0-11.4-1.6-15.4 4.5s-1.4 20.1 1.3 20.1c2.5 0 6.8-18.4 6.8-18.4z" style="fill:#333"/><path class="st16" d="M476.3 677.9c-6.8-2.9-23.4-3.3-25.2 9.8s2.7 21.8 8.1 22.8c5.4 1 5.5 1.2 5.9-3.7.4-4.9-4.7-15.9 1.9-18.4 6.5-2.6 18.5 3 18.5 3s-3.7-11.2-9.2-13.5z"/><path class="st4" d="M418.8 772.7c1.5-1.2 3.1-2.1 4.8-3 1.7-.9 3.5-1.5 5.2-2.2 3.6-1.2 7.3-2 11.1-2.4 3.8-.4 7.6-.4 11.4-.2 1.9.1 3.8.4 5.7.6 1.9.3 3.7.7 5.6 1h.1l.2.1c.3.2.9.4 1.4.5.5.1 1 .3 1.6.4 1.1.2 2.1.3 3.2.3 2.2.1 4.4-.1 6.6-.4 1.1-.2 2.2-.4 3.3-.7l1.6-.4 1.6-.5c2.2-.6 4.3-1.4 6.4-2.2l6.5-2.4c2.2-.8 4.4-1.5 6.7-2 2.3-.4 4.8-.4 7 .2 2.3.6 4.4 1.4 6.5 2.3-2.2-.6-4.4-1.3-6.7-1.6-2.2-.4-4.5-.2-6.6.3-2.2.5-4.3 1.4-6.4 2.3l-6.3 2.6c-4.2 1.8-8.7 3.4-13.3 4.2-2.3.4-4.7.6-7.1.5-1.2 0-2.4-.2-3.6-.4-.6-.1-1.2-.3-1.8-.4-.6-.2-1.1-.4-1.8-.7l.3.1-5.5-1c-1.8-.2-3.7-.5-5.5-.7-1.8-.1-3.7-.3-5.5-.3-.9 0-1.9-.1-2.8 0l-2.8.1c-3.7.3-7.4.8-11 1.7-3.3 1.1-6.8 2.4-10.1 4.3z"/><path class="st16" d="m488.7 751-.7 5.4h-46.4c-.2-4.6-.1-10.5.7-16.3 1.8-12.7 18.5-13.4 18.5-13.4 8 5.4 15.3 0 15.3 0l10.8 4c5.8 7.7 1.8 20.3 1.8 20.3z"/><path class="st14" d="M454 730.8s-9.4 6.2-2.9 12.3c0 0 13.2 4 25.2 1.8s23-8.3 23-8.3l30.6-17.8s3.3-3.2 6.3-4.3c2-.7 2.8-3.1 1.6-4.8-1.3-1.8-3.7-3-8.2-1-9.4 4.3-9.8 10.1-9.8 10.1L494 729l-7.2 1.8s-3.4 2.2-10.6 2.2-22.2-2.2-22.2-2.2z"/><path class="st17" d="m707 651.5 1.5-22.8s10.8 10.5 20.2 8.7 18.5-11.9 18.5-11.9-1.8-14.1 3.4-12.7 9.9 10.9 7.8 16c-2.2 5-9.8 11.5-9.8 11.5s-15.2 9.8-21.4 11.2c-6.1 1.4-20.2 0-20.2 0z"/><ellipse class="st18" cx="698.5" cy="599.2" rx="14.7" ry="19"/><path d="M685.7 595.3s-1-7.5 7.7-10.7c8.7-3.3 14.2-1.5 14.2-1.5s11.2-6.7 5.1-11c-4.8-3.3-14.7-4.1-29.3 3-16.2 7.9-8 24.3-8 24.3l7.4 8.3h2.9s-3.9-3.8 0-12.4z" style="fill:#1f2259"/><path class="st18" d="M693.9 613.5v9s15.3 3.6 17.1 9.4c1.8 5.8 0 28.6-19.2 50.1 0 0-9.8 6-23.9-1.6-14.1-7.6-19.5-4.8-19.5-4.8s8.7-22.3 6.2-45.9c0 0 2.2-14.1 22.4-11.6l6.3-15.2 10.6 10.6z"/><path class="st4" d="M632.4 682.1c1.3-1.7 3.1-3.1 5-4.1.5-.3 1-.5 1.5-.7l.7-.4.8-.3 1.5-.6 1.6-.4c4.3-1 8.8-.9 13.1-.1 4.4.7 8.5 2.3 12.5 3.9l2.9 1.4 1.5.7.7.4.3.1.3.1c1.8.7 3.9 1 5.9 1.1 4.1.1 8.2-.8 12.1-2.4.9-.4 1.9-.8 2.9-1.3.9-.5 1.8-1 2.8-1.5 2-1.1 4.1-1.9 6.2-2.4 4.3-1.1 8.9-1.1 13.1-.2 4.3.9 8.4 2.3 12.1 4.6-3.9-1.8-8.1-2.9-12.3-3.4-4.2-.5-8.5-.3-12.5.9-2 .6-3.9 1.4-5.7 2.4-.9.5-1.9 1.1-2.8 1.6-1 .6-2 1-3 1.5-2 .9-4.1 1.6-6.3 2.1s-4.4.8-6.7.7c-2.3-.1-4.5-.5-6.7-1.3l-.4-.2-.4-.2-.7-.4-1.4-.7-2.8-1.5c-3.9-1.7-7.8-3.3-12-4.2-4.1-.9-8.4-1.2-12.5-.5-4.1.6-8.2 2.2-11.3 5.3z"/><ellipse class="st18" cx="683.2" cy="599.2" rx="2.9" ry="3.8"/><path class="st17" d="M657.4 637.4s-10.1-10 4.7-17.3l39.4 2.8 34.4.4s13 .1 14.5 5.5c1.4 5.4-4.7 10.8-15.9 5.4s-5.1-5.4-5.1-5.4l-18.5 3.2s-3 4.7-17.1 3.6c-14-1.1-36.4 1.8-36.4 1.8z"/><path class="st20" d="M562.2 765H495c-3.3 0-5.9-2.7-5.9-5.9v-4.3c0-3.3 2.7-5.9 5.9-5.9h67.2c3.3 0 5.9 2.7 5.9 5.9v4.3c0 3.3-2.6 5.9-5.9 5.9z"/><path class="st4" d="M517.3 748.8h22.5v15.8h-22.5z"/><g><path class="st2" d="M306.8 497.4c-4-5.4-8.9-10.1-14.4-13.9-9.5-6.5-21-10.2-33.3-10.2-13.4 0-25.8 4.5-35.8 12-5.3 4.1-10 9-13.7 14.6-6.2 9.4-9.8 20.6-9.8 32.6 0 13 4.2 25.1 11.3 34.8 4 5.4 8.8 10.2 14.4 14 9.5 6.5 21.1 10.4 33.5 10.4 13 0 24.9-4.2 34.7-11.2 5.5-4 10.3-8.9 14.1-14.5 6.6-9.5 10.4-21.1 10.4-33.5.1-13.2-4.2-25.3-11.4-35.1zm-29.2 63.1c-5.3 3.5-11.7 5.6-18.5 5.6-7.3 0-14.1-2.4-19.6-6.4-3.2-2.3-6-5.2-8.2-8.4-3.6-5.3-5.7-11.8-5.7-18.7 0-6.6 1.9-12.7 5.2-17.9 2.1-3.3 4.7-6.1 7.7-8.5 5.7-4.4 12.8-7.1 20.6-7.1 7.2 0 13.9 2.3 19.3 6.1 3.2 2.2 5.9 5 8.1 8.2 3.8 5.4 6 12 6 19.1 0 7.3-2.3 14.1-6.3 19.6-2.3 3.4-5.2 6.2-8.6 8.4z"/><path class="st4" d="M238.5 506.2c-3 2.4-5.7 5.3-7.7 8.5l-21.1-15c3.7-5.6 8.3-10.5 13.7-14.6l15.1 21.1zM306.8 497.4l-20.3 16.2c-2.2-3.2-5-6-8.1-8.2l14-21.9c5.6 3.7 10.4 8.4 14.4 13.9zM239.5 559.8l-13.9 21.5c-5.6-3.8-10.4-8.6-14.4-14l20.1-15.9c2.2 3.2 5 6 8.2 8.4zM307.9 565.9c-3.8 5.6-8.6 10.5-14.1 14.5l-16.1-19.9c3.3-2.2 6.3-5 8.6-8.3l21.6 13.7z"/></g><g><path class="st20" d="M400.1 497.4c-4-5.4-8.9-10.1-14.4-13.9-9.5-6.5-21-10.2-33.3-10.2-13.4 0-25.8 4.5-35.8 12-5.3 4.1-10 9-13.7 14.6-6.2 9.4-9.8 20.6-9.8 32.6 0 13 4.2 25.1 11.3 34.8 4 5.4 8.8 10.2 14.4 14 9.5 6.5 21.1 10.4 33.5 10.4 13 0 24.9-4.2 34.7-11.2 5.5-4 10.3-8.9 14.1-14.5 6.6-9.5 10.4-21.1 10.4-33.5.1-13.2-4.2-25.3-11.4-35.1zm-29.2 63.1c-5.3 3.5-11.7 5.6-18.5 5.6-7.3 0-14.1-2.4-19.6-6.4-3.2-2.3-6-5.2-8.2-8.4-3.6-5.3-5.7-11.8-5.7-18.7 0-6.6 1.9-12.7 5.2-17.9 2.1-3.3 4.7-6.1 7.7-8.5 5.7-4.4 12.8-7.1 20.6-7.1 7.2 0 13.9 2.3 19.3 6.1 3.2 2.2 5.9 5 8.1 8.2 3.8 5.4 6 12 6 19.1 0 7.3-2.3 14.1-6.3 19.6-2.4 3.4-5.3 6.2-8.6 8.4z"/><path class="st4" d="M331.8 506.2c-3 2.4-5.7 5.3-7.7 8.5l-21.1-15c3.7-5.6 8.3-10.5 13.7-14.6l15.1 21.1zM400.1 497.4l-20.3 16.2c-2.2-3.2-5-6-8.1-8.2l14-21.9c5.5 3.7 10.4 8.4 14.4 13.9zM332.7 559.8l-13.9 21.5c-5.6-3.8-10.4-8.6-14.4-14l20.1-15.9c2.3 3.2 5 6 8.2 8.4zM401.1 565.9c-3.8 5.6-8.6 10.5-14.1 14.5l-16.1-19.9c3.3-2.2 6.3-5 8.6-8.3l21.6 13.7z"/></g><g><ellipse transform="rotate(-12.492 272.492 669.886)" class="st21" cx="272.4" cy="669.8" rx="13.9" ry="17.2"/><path class="st13" d="M267.2 660.5c9.4-1.1 1.7-5 7.6-4.3 0 0 8.7 6.9 11.9 2.9 3.3-4 0-15.9 0-15.9s-3.9-.6-8 1.8c-1.8 1.1-4.7-.1-10.5-1.9s-11.9 4.8-11.9 4.8-6.2 1.3-6.5 8.2 5.7 16.3 5.7 16.3 2.3-10.8 11.7-11.9z"/><path class="st21" d="m258.4 669.8-8.6 13.6s-3.6-5.8-21.3-5.1-26.1.4-26.1.4l-6.5 21.7s-5.1 4.4 0 10.7c0 0 6.5-.2 4.3-9.1l7.6-15.4s29.3 4.3 25.3 11.9c0 0-8.3 9.3-9 20.2 0 0 28.4-5 34.3 3.3 0 0 4.1-4.3 4.5-14.5 0 0-1.8-4 6.1 0 8 4 37.7 2.8 46 0 0 0 17-1.8 6.9-8.7 0 0-8.7-.8-11.2 3l-30-2-17.7-11.6 2.9-6.3-7.5-12.1z"/><path class="st4" d="M203.8 724.2c4.8-1.7 9.7-3.2 14.7-4.5 5-1.3 10-2.4 15.1-3.2 2.6-.3 5.2-.5 7.9-.3 2.6.2 5.1.5 7.7 1 2.6.5 5.2 1.3 7.5 2.8 2.4 1.5 4.2 3.6 5.6 5.8l-.3-.3c.7.4 1.6.9 2.5 1.2.9.3 1.8.5 2.7.6 1.9.3 3.8.1 5.6-.4 1.8-.5 3.5-1.4 5.2-2.4.8-.6 1.6-1.1 2.3-1.8l2.2-2c1.5-1.4 3.2-2.8 5.1-3.7 1.8-1 3.9-1.6 6-1.8 4.2-.4 8.4.9 11.6 3.4-3.4-2.1-7.6-3.1-11.5-2.4-3.9.6-7.3 2.9-10 5.7l-2.2 2.2c-.8.7-1.6 1.3-2.4 2-1.8 1.2-3.6 2.2-5.7 2.8-4.2 1.2-8.8.8-12.7-1.6l-.2-.1-.1-.2c-1.3-2-3-3.8-4.9-5.1-2-1.3-4.3-2.1-6.7-2.6-2.4-.5-4.9-.8-7.5-1.1-2.4-.3-4.9-.1-7.4.1-5 .5-10 1.4-15 2.4-5.1 1.2-10.1 2.4-15.1 3.5z"/><ellipse transform="rotate(-12.492 254.608 668.047)" class="st21" cx="254.5" cy="667.9" rx="3.9" ry="4.5"/></g><path class="st22" d="M227.9 603.7h-41.4c-8.3 0-15-6.7-15-15s6.7-15 15-15h41.4c8.3 0 15 6.7 15 15 0 8.2-6.7 15-15 15zM428.9 606.6h-41.4c-8.3 0-15-6.7-15-15s6.7-15 15-15h41.4c8.3 0 15 6.7 15 15 .1 8.3-6.7 15-15 15z"/><g><path class="st23" d="M505.2 589.7h6v107.9h-6zM597.2 589.7h6v107.9h-6z"/><path class="st23" d="M510.2 667.7h87v5h-87zM510.2 626.7h87v5h-87z"/></g><g><path class="st24" d="M238.1 333.8h165.7v3.9H238.1zM238.1 347.6h165.7v3.9H238.1zM238.1 361.4h165.7v3.9H238.1zM238.1 375.2h165.7v3.9H238.1zM238.1 389h165.7v3.9H238.1z"/></g><g><path class="st24" d="M549.6 333.8h165.7v3.9H549.6zM549.6 347.6h165.7v3.9H549.6zM549.6 361.4h165.7v3.9H549.6zM549.6 375.2h165.7v3.9H549.6zM549.6 389h165.7v3.9H549.6z"/></g><g><path class="st20" d="M300.4 345c-1.9-2.5-4.1-4.7-6.7-6.5-4.4-3-9.8-4.8-15.5-4.8-6.3 0-12 2.1-16.6 5.6-2.5 1.9-4.6 4.2-6.4 6.8-2.9 4.4-4.6 9.6-4.6 15.2 0 6.1 2 11.7 5.3 16.2 1.8 2.5 4.1 4.7 6.7 6.5 4.4 3 9.8 4.8 15.6 4.8 6 0 11.6-1.9 16.1-5.2 2.6-1.9 4.8-4.1 6.6-6.7 3.1-4.4 4.8-9.8 4.8-15.6 0-6.1-2-11.7-5.3-16.3zm-13.6 29.4c-2.5 1.6-5.4 2.6-8.6 2.6-3.4 0-6.6-1.1-9.1-3-1.5-1.1-2.8-2.4-3.8-3.9-1.7-2.5-2.6-5.5-2.6-8.7 0-3.1.9-5.9 2.4-8.3 1-1.5 2.2-2.9 3.6-4 2.6-2.1 6-3.3 9.6-3.3 3.3 0 6.4 1.1 9 2.9 1.5 1 2.8 2.3 3.8 3.8 1.8 2.5 2.8 5.6 2.8 8.9 0 3.4-1.1 6.5-2.9 9.1-1.3 1.6-2.7 2.9-4.2 3.9z"/><path class="st4" d="M268.6 349.2c-1.4 1.1-2.6 2.4-3.6 4l-9.8-7c1.7-2.6 3.9-4.9 6.4-6.8l7 9.8zM300.4 345l-9.4 7.5c-1-1.5-2.3-2.8-3.8-3.8l6.5-10.2c2.5 1.8 4.8 4 6.7 6.5zM269 374.1l-6.5 10c-2.6-1.8-4.9-4-6.7-6.5l9.4-7.4c1 1.5 2.3 2.8 3.8 3.9zM300.9 377c-1.8 2.6-4 4.9-6.6 6.7l-7.5-9.3c1.6-1 2.9-2.3 4-3.9l10.1 6.5z"/></g><g><path class="st20" d="M375.5 345c-1.9-2.5-4.1-4.7-6.7-6.5-4.4-3-9.8-4.8-15.5-4.8-6.3 0-12 2.1-16.6 5.6-2.5 1.9-4.6 4.2-6.4 6.8-2.9 4.4-4.6 9.6-4.6 15.2 0 6.1 2 11.7 5.3 16.2 1.8 2.5 4.1 4.7 6.7 6.5 4.4 3 9.8 4.8 15.6 4.8 6 0 11.6-1.9 16.1-5.2 2.6-1.9 4.8-4.1 6.6-6.7 3.1-4.4 4.8-9.8 4.8-15.6 0-6.1-1.9-11.7-5.3-16.3zm-13.6 29.4c-2.5 1.6-5.4 2.6-8.6 2.6-3.4 0-6.6-1.1-9.1-3-1.5-1.1-2.8-2.4-3.8-3.9-1.7-2.5-2.6-5.5-2.6-8.7 0-3.1.9-5.9 2.4-8.3 1-1.5 2.2-2.9 3.6-4 2.6-2.1 6-3.3 9.6-3.3 3.3 0 6.4 1.1 9 2.9 1.5 1 2.8 2.3 3.8 3.8 1.8 2.5 2.8 5.6 2.8 8.9 0 3.4-1.1 6.5-2.9 9.1-1.3 1.6-2.6 2.9-4.2 3.9z"/><path class="st4" d="M343.7 349.2c-1.4 1.1-2.6 2.4-3.6 4l-9.8-7c1.7-2.6 3.9-4.9 6.4-6.8l7 9.8zM375.5 345l-9.4 7.5c-1-1.5-2.3-2.8-3.8-3.8l6.5-10.2c2.6 1.8 4.8 4 6.7 6.5zM344.1 374.1l-6.5 10c-2.6-1.8-4.9-4-6.7-6.5l9.4-7.4c1.1 1.5 2.4 2.8 3.8 3.9zM376 377c-1.8 2.6-4 4.9-6.6 6.7l-7.5-9.3c1.6-1 2.9-2.3 4-3.9L376 377z"/></g><g><path class="st2" d="M620.6 344.2c-2-2.7-4.3-5-7.1-6.8-4.6-3.2-10.3-5-16.3-5-6.6 0-12.6 2.2-17.5 5.9-2.6 2-4.9 4.4-6.7 7.1-3 4.6-4.8 10.1-4.8 16 0 6.4 2.1 12.3 5.5 17 1.9 2.7 4.3 5 7 6.9 4.7 3.2 10.3 5.1 16.4 5.1 6.3 0 12.2-2 17-5.5 2.7-1.9 5-4.3 6.9-7.1 3.2-4.7 5.1-10.3 5.1-16.4.1-6.5-2-12.4-5.5-17.2zm-14.3 30.9c-2.6 1.7-5.7 2.7-9.1 2.7-3.6 0-6.9-1.2-9.6-3.1-1.6-1.1-2.9-2.5-4-4.1-1.8-2.6-2.8-5.8-2.8-9.1 0-3.2.9-6.2 2.5-8.8 1-1.6 2.3-3 3.8-4.2 2.8-2.2 6.3-3.5 10.1-3.5 3.5 0 6.8 1.1 9.5 3 1.5 1.1 2.9 2.5 4 4 1.9 2.7 2.9 5.9 2.9 9.4 0 3.6-1.1 6.9-3.1 9.6-1.2 1.6-2.6 3-4.2 4.1z"/><path class="st4" d="M587.1 348.5c-1.5 1.2-2.8 2.6-3.8 4.2l-10.3-7.3c1.8-2.7 4.1-5.2 6.7-7.1l7.4 10.2zM620.6 344.2l-9.9 7.9c-1.1-1.6-2.4-2.9-4-4l6.8-10.7c2.7 1.8 5.1 4.1 7.1 6.8zM587.6 374.7l-6.8 10.5c-2.7-1.9-5.1-4.2-7-6.9l9.8-7.8c1.1 1.7 2.4 3.1 4 4.2zM621.1 377.8c-1.9 2.7-4.2 5.1-6.9 7.1l-7.9-9.7c1.6-1.1 3.1-2.5 4.2-4.1l10.6 6.7z"/></g><g><path class="st2" d="M693.8 346.2c-2-2.7-4.3-5-7.1-6.8-4.6-3.2-10.3-5-16.3-5-6.6 0-12.6 2.2-17.5 5.9-2.6 2-4.9 4.4-6.7 7.1-3 4.6-4.8 10.1-4.8 16 0 6.4 2.1 12.3 5.5 17 1.9 2.7 4.3 5 7 6.9 4.7 3.2 10.3 5.1 16.4 5.1 6.3 0 12.2-2 17-5.5 2.7-1.9 5-4.3 6.9-7.1 3.2-4.7 5.1-10.3 5.1-16.4.1-6.5-2-12.4-5.5-17.2zm-14.3 30.9c-2.6 1.7-5.7 2.7-9.1 2.7-3.6 0-6.9-1.2-9.6-3.1-1.6-1.1-2.9-2.5-4-4.1-1.8-2.6-2.8-5.8-2.8-9.1 0-3.2.9-6.2 2.5-8.8 1-1.6 2.3-3 3.8-4.2 2.8-2.2 6.3-3.5 10.1-3.5 3.5 0 6.8 1.1 9.5 3 1.5 1.1 2.9 2.5 4 4 1.9 2.7 2.9 5.9 2.9 9.4 0 3.6-1.1 6.9-3.1 9.6-1.1 1.6-2.6 3-4.2 4.1z"/><path class="st4" d="M660.4 350.6c-1.5 1.2-2.8 2.6-3.8 4.2l-10.3-7.3c1.8-2.7 4.1-5.2 6.7-7.1l7.4 10.2zM693.8 346.2l-9.9 7.9c-1.1-1.6-2.4-2.9-4-4l6.8-10.7c2.7 1.8 5.1 4.2 7.1 6.8zM660.8 376.7l-6.8 10.5c-2.7-1.9-5.1-4.2-7-6.9l9.8-7.8c1.1 1.7 2.5 3.1 4 4.2zM694.3 379.8c-1.9 2.7-4.2 5.1-6.9 7.1l-7.9-9.7c1.6-1.1 3.1-2.5 4.2-4.1l10.6 6.7z"/></g><path d="M430.2 542.9s-19.3-17.1 0-23.6l14.3-4.1s1.6-17.1 17-15.2 26.5 15.2 26.5 15.2h13s-10.1-16 7.7-15.3 10.7 14.9 15.7 15.3c4.9.4 16.4 7.7 21 6.1 4.6-1.6 10.6-10.3 18.6-6.1 5.4 2.9 0 27.7 0 27.7H430.2z" style="fill:#747b1b"/><path d="M444.5 546.8s-15-13.3 0-18.3l11.1-3.2s1.3-13.3 13.3-11.8 20.6 11.8 20.6 11.8h10s-7.9-12.4 6-11.9 8.4 11.6 12.2 11.9 12.8 6 16.3 4.8c3.6-1.2 6.8-11 14.4-4.8 3.7 3 0 21.5 0 21.5H444.5z" style="fill:#979c28"/><path style="fill:#ffe2ac" d="M418.8 532.4h149.3v28.8H418.8z"/><g><circle class="st7" cx="202.3" cy="280" r="9.9"/><circle class="st10" cx="202.3" cy="280" r="4.9"/></g><g><circle class="st7" cx="331" cy="275.1" r="9.9"/><circle class="st10" cx="331" cy="275.1" r="4.9"/></g><g><circle class="st7" cx="459.7" cy="270.1" r="9.9"/><circle class="st10" cx="459.7" cy="270.1" r="4.9"/></g><g><circle class="st7" cx="588.4" cy="265.2" r="9.9"/><circle class="st10" cx="588.4" cy="265.2" r="4.9"/></g><g><circle class="st7" cx="717.1" cy="260.3" r="9.9"/><circle class="st10" cx="717.1" cy="260.3" r="4.9"/></g><g><path class="st28" d="m813.9 624.9-4.5 10.2s5.1 5.7 11.1 3.5l5.7-13.7h-12.3z"/><path class="st29" d="M811.5 634.1s1.2-2.9-7.4 0-25.8 13.4-25.8 13.4-4.5 3.2 3.8 3.8 38.8 0 38.8 0 2.2-.3 2.2-7.3v-11.5s-2.3 6.7-11.6 1.6z"/><path class="st28" d="M854 622.7h10.5v16.4H854z"/><path class="st29" d="M854 639.1s5.4-9 10.5 0c0 0 6 8.3 2.9 12.5-3.2 4.2-18.8 1.6-18.8 1.6s-3.2-8 0-11.2c3.1-3.1 5.4-2.9 5.4-2.9zM817.9 456.4l-6.4 170.7h16.4s17.6-94.9 19.6-111.6c0 0 2.9 6.7 3.8 26.2 1 19.6 0 85.4 0 85.4H868s15.3-152.6 4.3-170.7h-54.4z"/><path class="st28" d="m740.1 367.9-11.9-4s-3.3-9.4-10-10.2c-6.7-.8-9.1-5.1-9.1-5.1s-5.2 1.9 0 6.7c5.2 4.8-2.3 6.2-2.3 6.2s-17.2 3.3-10.5 8.6 21.2 0 21.2 0 4.1-2.5 8.4 2.3c4.3 4.8 15.7 13.5 15.7 13.5l-1.5-18z"/><ellipse transform="rotate(-52.987 822.657 302.088)" class="st28" cx="822.6" cy="302.1" rx="21.8" ry="15.5"/><path class="st28" d="m817.9 318.1 3.4 34.5s22.4 4.2 30-3l-5.7-7.2s-6.8-18.9-10.6-31l-17.1 6.7z"/><path class="st20" d="M817.9 339.5s-6.7-2.9-26.2 9.5c-19.6 12.4-23.4 20-33.4 18.6-10-1.4-18.1.2-18.1.2l-2.4 16.5s15.3 7.6 32.9 3.3c17.6-4.3 43.4-13.4 43.4-13.4s0 76.3 3.8 84.9c0 0 38.6 11.9 56.3 0V392l4.6 6.9 22.2-7.5s-4.4-33.7-26.8-43.7-28.6-5.2-28.6-5.2-7.7 9.4-27.7-3z"/><path class="st22" d="m758.3 361.6 61.7 3.9 18.7 65.4h-45.8z"/><path class="st29" d="M775.4 365.8v-7H781.6l1-4.1 11.6.9v5l7 1v6z"/><path class="st28" d="M878.8 398.9s-.3 13.1-9.9 14.1-32.6-6.7-32.6-6.7 4.9-15.7-13.7-15.3-8.3 11-8.3 11 1.1 2.8 8.3 6.2c7.2 3.3 12 7.2 12 7.2l31.5 13.8s15.1 5.1 24.8-3.8c12.7-11.6 10.1-34 10.1-34l-22.2 7.5z"/><path class="st29" d="m836.3 319.4-3.2-19.4s6.7-2.9-3.8-6.2c-10.5-3.3-16.7-1-20.5-8.6-3.8-7.6 1.4-13.4 7.6-11.9 6.2 1.4 7.2 7.6 10 3.8 2.9-3.8 10.5-5.2 13.8 3.3 0 0 14.3-1.2 14.3 15.2 0 0 4.8 8.4-2.9 11.9-7.5 3.4-15.3 11.9-15.3 11.9z"/><ellipse transform="rotate(-52.987 836.354 307.432)" class="st28" cx="836.3" cy="307.4" rx="6.2" ry="3.5"/></g><g><circle cx="611" cy="530.1" r="40.1" style="fill:#9b75d8"/><circle class="st31" cx="621" cy="530.1" r="30.2"/><circle class="st31" cx="631" cy="530.1" r="19.3"/></g><g><circle class="st2" cx="669.9" cy="546.8" r="21.5"/><circle class="st31" cx="675.3" cy="546.8" r="16.2"/><circle class="st31" cx="680.6" cy="546.8" r="10.4"/></g></svg>