<svg version="1.1" id="Layer_1" xmlns="http://www.w3.org/2000/svg" x="0" y="0" viewBox="0 0 1000 627.4" style="enable-background:new 0 0 1000 627.4" xml:space="preserve"><style>.st2{fill:#54af86}.st3{fill:#8ab9b9}.st5{fill:#d1d3d4}.st6{fill:#f1f2f2}.st8{fill:#ff4d53}.st9{fill:#f5a2a5}.st12{fill:#d9e2ed}.st14{fill:#e6e7e8}.st15{fill:#f4b5b0}.st16{fill:#f9bbb4}.st17{fill:#4570ad}.st21{fill:#44515a}</style><path d="M68.7 616.5S-14.4 513 17 406.1 109.8 280 146.7 151.8 324.6-6.6 381.5 12.1s147.8 66.4 288.9 37.5 244.7 104.7 236 166.1-23.8 154.4 10.4 211.3c34.2 56.9 118.9 127.5 17.5 189.6H68.7z" style="fill:#e3d2fc"/><path d="M83.2 616.5s-80.3-98.7-50-200.7 89.7-120.3 125.3-242.5S330.4 22.2 385.4 40.1s142.8 63.3 279.2 35.8 236.4 99.9 228 158.4-23 147.3 10.1 201.5 114.9 121.6 16.9 180.8H83.2z" style="fill:#cdb6f3"/><path class="st2" d="M245.2 508.9s69-28.6 41.3-59c0 0-34.9 4.3-19-23.3s3-64.3-24.1-67.2c-27.1-2.8-25-10.4-17.8-27.4s10.6-59.3-17.4-79.9-22.6-26.4-23-38.2c-.3-11.9-58.8-47.6-58.2-3.7.6 44 36.5 91.5 26.3 129.3s22.6 46.9 22.6 46.9 27.8 25.5 9.4 52.3-24.8 59.7 37.8 74.6l12.5 7.3 9.6-11.7z"/><path class="st3" d="m236.5 502-.7-1.1c.4-.3 45.1-29.7 47.5-40.3l1.2.3c-2.5 11.2-46.1 39.9-48 41.1zM216.3 495.3c-11.3 2.3-25.4 1.2-34.8-13.4l1.1-.7c16.9 26.6 50.5 6.5 50.8 6.3l.7 1.1c-.1.1-7.8 4.7-17.8 6.7zM241.3 470.7c-3.8.8-6.4.8-6.5.8v-1.3c.2 0 20-.2 29.4-16.2l1.1.6c-6.3 10.8-17.1 14.7-24 16.1zM220.8 461.5c-7.5 1.5-18.6 1.6-31.2-5.4l.6-1.1c22.2 12.4 39.7 2 39.9 1.8l.7 1.1c-.1.1-3.8 2.3-10 3.6zM231.5 437.3l-.8-1c.3-.2 26.6-20.3 31-41l1.2.3c-4.4 21.1-31.1 41.5-31.4 41.7zM216.6 428.2c-6.3 1.3-15.3 1.4-21.8-5.5l.9-.9c10.4 11 27.8 2.9 28 2.8l.5 1.1c-.1.1-3.2 1.6-7.6 2.5zM228.8 404.8l-.8-1c.2-.1 17.1-14.3 20.2-28.1l1.2.3c-3.2 14.2-19.9 28.2-20.6 28.8zM217.3 388.1c-1.6.2-39.5 5.3-54.7-8.3l.9-.9c14.8 13.2 53.3 8 53.7 8l.1 1.2zM206.1 358.7c-1.8.3-43.3 6.1-55.2-6.4l.9-.9c11.4 12 53.7 6 54.1 6l.2 1.3zM194.5 323.4l-.9-.9c.3-.3 28-26.1 24.4-44.9l1.2-.2c3.9 19.4-23.5 45-24.7 46zM176.4 316.8c-2.1.4-4.4.5-6.6-.1-5-1.3-8.7-5.5-11.2-12.7l1.2-.4c2.3 6.7 5.8 10.7 10.3 11.9 8.5 2.2 18-6.1 18.1-6.2l.8 1c-.3.2-6 5.1-12.6 6.5zM173.3 272.5l-1-.7c.1-.2 12.2-17.8 12.3-37.6h1.3c-.2 20.3-12.5 38.2-12.6 38.3zM155.1 240.8c-1-.6-24-14.3-23-31.7l1.3.1c-1 16.7 22.1 30.4 22.3 30.6l-.6 1z"/><path class="st3" d="M233 590.5c1.2-17.1 1.8-34.2 1.9-51.3.2-17.1-.1-34.2-1.1-51.2s-2.4-34.1-5-50.9c-2.6-16.8-6.1-33.6-11.6-49.7-11.6-32.1-25.3-63.5-38.2-95.2-6.4-15.9-12.8-31.7-18.5-47.9-2.8-8.1-5.4-16.3-7.5-24.6-1-4.2-1.9-8.4-2.3-12.6-.2-2.1-.3-4.3-.1-6.4.2-2.1.7-4.3 2-6-1.2 1.8-1.6 3.9-1.8 6.1-.1 2.1 0 4.3.3 6.4.5 4.2 1.5 8.4 2.6 12.5 2.2 8.2 5.1 16.3 8 24.3 5.9 16 12.5 31.8 19.1 47.6 6.7 15.7 13.3 31.5 19.9 47.3 3.3 7.9 6.5 15.8 9.7 23.8l4.7 11.9c1.5 4 3.1 8 4.5 12.1 5.6 16.3 9 33.2 11.5 50.2 2.4 17 3.9 34.1 4.6 51.2 1.4 34.1.5 68.4-2.7 102.4z"/><g><path class="st2" d="M175.7 518.1s-56.8 14.4-53.8-17.7c0 0 24-13.6 1-23.6-22.9-9.9-32.1-39.1-16.4-53.6 15.7-14.5 10.9-18.3-1.7-25.6-12.6-7.3-34.5-32.4-26.6-58.5s1.9-27.2-3.5-34.9 14.7-57.6 34.9-29.7 20 74.7 44.2 93.7c24.2 19 7.8 40.1 7.8 40.1s-5.5 29.1 18.6 37.3c24.2 8.2 43.7 25.9 11.3 64.7l-4.4 10.5-11.4-2.7z"/><path class="st3" d="m177.9 509.7-.1-1c-.4 0-42.3 2.5-48.8-3l-.6.8c6.8 5.8 47.8 3.3 49.5 3.2zM187.5 496c8.2-3.9 16.6-11.2 15.6-24.8l-1 .1c1.8 24.7-28.7 27.8-29 27.9l.1 1c.1-.1 7.1-.8 14.3-4.2zM160.2 492.2c2.8-1.3 4.4-2.5 4.5-2.6l-.6-.8c-.1.1-12.7 9.3-26.1 3.6l-.4.9c9 3.9 17.6 1.3 22.6-1.1zM168.8 476.8c5.4-2.6 12.5-7.7 17.1-18l-.9-.4c-8.2 18.2-24.1 19.9-24.2 19.9l.1 1s3.4-.4 7.9-2.5zM150.7 466.6v-1c-.3 0-26.3-.3-38.7-11.2l-.7.8c12.7 11.1 39.1 11.4 39.4 11.4zM155.8 453.9c4.6-2.2 10.3-6.3 11.2-13.7l-1-.1c-1.4 11.8-16.1 14.9-16.3 14.9l.2 1c0-.1 2.7-.6 5.9-2.1zM137.1 444.9l.1-1c-.2 0-17.5-1-25.9-8.2l-.6.8c8.6 7.4 25.7 8.4 26.4 8.4zM136.5 429c1.1-.6 27.4-15.2 30.5-30.9l-1-.2c-3.1 15.3-29.8 30.1-30 30.2l.5.9zM129.7 405.2c1.2-.7 30.1-16.5 31.8-29.9l-1-.1c-1.6 12.9-31 29-31.3 29.2l.5.8zM120.5 377.6l.1-1c-.3 0-29.9-3.3-36.5-16.8l-.9.4c6.8 14.1 36 17.3 37.3 17.4zM128.8 364.9c1.6-.7 3-1.7 4.1-3.1 2.5-3.1 2.9-7.6 1.1-13.2l-1 .3c1.7 5.3 1.4 9.5-.9 12.3-4.3 5.4-14.2 4.6-14.3 4.6l-.1 1c.4-.1 6.3.4 11.1-1.9zM109.9 335.6l.3-.9c-.2-.1-16-5.5-25.4-17.9l-.8.6c9.6 12.6 25.8 18.1 25.9 18.2zM106.5 307c.3-.8 8.4-20.3-.5-30.8l-.8.6c8.5 10 .4 29.5.3 29.7l1 .5z"/><path class="st3" d="M221.8 563.8c-8.7-10.2-17.2-20.7-25.3-31.4-8.1-10.7-16-21.6-23.4-32.7-7.4-11.2-14.5-22.6-20.8-34.4-6.3-11.8-12-24-16-36.7-7.8-25.6-13.9-51.9-20.7-77.8-3.4-13-6.9-26-10.9-38.8-2-6.4-4.2-12.8-6.8-19-1.3-3.1-2.7-6.2-4.5-9.1-.9-1.4-1.8-2.8-2.9-4.1-1.1-1.2-2.4-2.4-4.1-2.9 1.6.5 2.9 1.7 4 3s2 2.7 2.8 4.2c1.7 2.9 3 6 4.2 9.1 2.5 6.2 4.5 12.6 6.4 19.1 3.8 12.9 7.1 25.9 10.3 38.9 3.2 13 6.4 26.1 9.7 39.1 1.6 6.5 3.3 13 5.1 19.5l2.7 9.7c.9 3.2 1.8 6.5 2.8 9.7 4.2 12.9 9.9 25.1 16.3 37 6.4 11.8 13.5 23.3 21.1 34.4 15.2 22.1 31.9 43.3 50 63.2z"/></g><g><path class="st2" d="M757.6 511.3s-69-28.6-41.3-59c0 0 34.9 4.3 19-23.3-15.8-27.6-3-64.3 24.1-67.2 27.1-2.8 25-10.4 17.8-27.4-7.3-17-10.6-59.3 17.4-79.9 28-20.5 22.6-26.4 23-38.2.3-11.9 58.8-47.6 58.2-3.7s-36.5 91.5-26.3 129.3-22.6 46.9-22.6 46.9-27.8 25.5-9.4 52.3c18.4 26.8 24.8 59.7-37.8 74.6l-12.5 7.3-9.6-11.7z"/><path class="st3" d="m766.2 504.4.7-1.1c-.4-.3-45.1-29.7-47.5-40.3l-1.2.3c2.5 11.2 46.2 39.9 48 41.1zM786.4 497.7c11.3 2.3 25.4 1.2 34.8-13.4l-1.1-.7c-16.9 26.6-50.5 6.5-50.8 6.3l-.7 1.1c.2.1 7.9 4.7 17.8 6.7zM761.5 473.1c3.8.8 6.4.8 6.5.8v-1.3c-.2 0-20-.2-29.4-16.2l-1.1.6c6.3 10.8 17.1 14.7 24 16.1zM782 463.8c7.5 1.5 18.6 1.6 31.2-5.4l-.6-1.1c-22.2 12.4-39.7 2-39.9 1.8l-.7 1.1c0 .2 3.8 2.4 10 3.6zM771.3 439.7l.8-1c-.3-.2-26.6-20.3-31-41l-1.2.3c4.4 21.1 31.1 41.4 31.4 41.7zM786.1 430.5c6.3 1.3 15.3 1.4 21.8-5.5l-.9-.9c-10.4 11-27.8 2.9-28 2.8l-.5 1.1c.1.2 3.2 1.6 7.6 2.5zM774 407.2l.8-1c-.2-.1-17.1-14.3-20.2-28.1l-1.2.3c3.2 14.2 19.9 28.2 20.6 28.8zM785.5 390.4c1.6.2 39.5 5.3 54.7-8.3l-.9-.9c-14.8 13.2-53.3 8-53.7 8l-.1 1.2zM796.6 361.1c1.8.3 43.3 6.1 55.2-6.4l-.9-.9c-11.4 12-53.7 6-54.1 6l-.2 1.3zM808.2 325.8l.9-.9c-.3-.3-28-26.1-24.4-44.9l-1.2-.2c-3.8 19.4 23.6 44.9 24.7 46zM826.4 319.2c2.1.4 4.4.5 6.6-.1 5-1.3 8.7-5.5 11.2-12.7l-1.2-.4c-2.3 6.7-5.8 10.7-10.3 11.9-8.5 2.2-18-6.1-18.1-6.2l-.8 1c.3.2 5.9 5.1 12.6 6.5zM829.5 274.9l1-.7c-.1-.2-12.2-17.8-12.3-37.6h-1.3c.2 20.2 12.4 38.1 12.6 38.3zM847.7 243.2c1-.6 24-14.3 23-31.7l-1.3.1c1 16.7-22.1 30.4-22.3 30.6l.6 1z"/><path class="st3" d="M769.8 592.9c-1.2-17.1-1.8-34.2-1.9-51.3-.2-17.1.1-34.2 1.1-51.2s2.4-34.1 5-50.9c2.6-16.8 6.1-33.6 11.6-49.7 11.6-32.1 25.3-63.5 38.2-95.2 6.4-15.9 12.8-31.7 18.5-47.9 2.8-8.1 5.4-16.3 7.5-24.6 1-4.2 1.9-8.4 2.3-12.6.2-2.1.3-4.3.1-6.4-.2-2.1-.7-4.3-2-6 1.2 1.8 1.6 3.9 1.8 6.1.1 2.1 0 4.3-.3 6.4-.5 4.2-1.5 8.4-2.6 12.5-2.2 8.2-5.1 16.3-8 24.3-5.9 16-12.5 31.8-19.1 47.6-6.7 15.7-13.3 31.5-19.9 47.3-3.3 7.9-6.5 15.8-9.7 23.8l-4.7 11.9c-1.5 4-3.1 8-4.5 12.1-5.6 16.3-9 33.2-11.5 50.2-2.4 17-3.9 34.1-4.6 51.2-1.5 34.1-.6 68.4 2.7 102.4z"/><g><path class="st2" d="M827 520.5s56.8 14.4 53.8-17.7c0 0-24-13.6-1-23.6 22.9-9.9 32.1-39.1 16.4-53.6-15.7-14.5-10.9-18.3 1.7-25.6 12.6-7.3 34.5-32.4 26.6-58.5s-1.9-27.2 3.5-34.9c5.4-7.6-14.7-57.6-34.9-29.7-20.3 28-20 74.7-44.2 93.7-24.2 19-7.8 40.1-7.8 40.1s5.5 29.1-18.6 37.3c-24.2 8.2-43.7 25.9-11.3 64.7l4.4 10.5 11.4-2.7z"/><path class="st3" d="m824.8 512.1.1-1c.4 0 42.3 2.5 48.8-3l.6.8c-6.8 5.7-47.7 3.3-49.5 3.2zM815.3 498.4c-8.2-3.9-16.6-11.2-15.6-24.8l1 .1c-1.8 24.7 28.7 27.8 29 27.9l-.1 1c-.1-.1-7.1-.8-14.3-4.2zM842.5 494.6c-2.8-1.3-4.4-2.5-4.5-2.6l.6-.8c.1.1 12.7 9.3 26.1 3.6l.4.9c-8.9 3.9-17.5 1.3-22.6-1.1zM834 479.2c-5.4-2.6-12.5-7.7-17.1-18l.9-.4c8.2 18.2 24.1 19.9 24.2 19.9l-.1 1s-3.4-.4-7.9-2.5zM852.1 469v-1c.3 0 26.3-.3 38.7-11.2l.7.8c-12.8 11.1-39.1 11.4-39.4 11.4zM847 456.3c-4.6-2.2-10.3-6.3-11.2-13.7l1-.1c1.4 11.8 16.1 14.9 16.3 14.9l-.2 1c-.1-.1-2.7-.6-5.9-2.1zM865.6 447.3l-.1-1c.2 0 17.5-1 25.9-8.2l.6.8c-8.6 7.4-25.6 8.4-26.4 8.4zM866.3 431.3c-1.1-.6-27.4-15.2-30.5-30.9l1-.2c3.1 15.3 29.8 30.1 30 30.2l-.5.9zM873 407.6c-1.2-.7-30.1-16.5-31.8-29.9l1-.1c1.6 12.9 31 29 31.3 29.2l-.5.8zM882.3 380l-.1-1c.3 0 29.9-3.3 36.5-16.8l.9.4c-6.8 14-36.1 17.2-37.3 17.4zM874 367.3c-1.6-.7-3-1.7-4.1-3.1-2.5-3.1-2.9-7.6-1.1-13.2l1 .3c-1.7 5.3-1.4 9.5.9 12.3 4.3 5.4 14.2 4.6 14.3 4.6l.1 1c-.4-.1-6.3.3-11.1-1.9zM892.8 338l-.3-.9c.2-.1 16-5.5 25.4-17.9l.8.6c-9.6 12.6-25.7 18.1-25.9 18.2zM896.3 309.4c-.3-.8-8.4-20.3.5-30.8l.8.6c-8.5 10-.4 29.5-.3 29.7l-1 .5z"/><path class="st3" d="M781 566.1c8.7-10.2 17.2-20.7 25.3-31.4 8.1-10.7 16-21.6 23.4-32.7 7.4-11.2 14.5-22.6 20.8-34.4 6.3-11.8 12-24 16-36.7 7.8-25.6 13.9-51.9 20.7-77.8 3.4-13 6.9-26 10.9-38.8 2-6.4 4.2-12.8 6.8-19 1.3-3.1 2.7-6.2 4.5-9.1.9-1.4 1.8-2.8 2.9-4.1 1.1-1.2 2.4-2.4 4.1-2.9-1.6.5-2.9 1.7-4 3s-2 2.7-2.8 4.2c-1.7 2.9-3 6-4.2 9.1-2.5 6.2-4.5 12.6-6.4 19.1-3.8 12.9-7.1 25.9-10.3 38.9-3.2 13-6.4 26.1-9.7 39.1-1.6 6.5-3.3 13-5.1 19.5l-2.7 9.7c-.9 3.2-1.8 6.5-2.8 9.7-4.2 12.9-9.9 25.1-16.3 37-6.4 11.8-13.5 23.3-21.1 34.4-15.3 22.2-31.9 43.3-50 63.2z"/></g></g><path d="M904.2 611.8H118c-14.1 0-25.6-11.5-25.6-25.6v-34.9c0-14.1 11.5-25.6 25.6-25.6h786.2c14.1 0 25.6 11.5 25.6 25.6v34.9c0 14.2-11.5 25.6-25.6 25.6z" style="opacity:.12;fill:#231f20"/><g><path class="st5" d="M367.7 100.6h229.6v104.6H367.7z"/><path class="st6" d="M374.4 109.8H589v89.9H374.4z"/><circle cx="419.4" cy="157" r="33.9" style="fill:#feac02"/><circle class="st8" cx="419.4" cy="161.4" r="18.8"/><path class="st9" d="M573.9 128.9h-64.8c-.8 0-1.5-.7-1.5-1.5s.7-1.5 1.5-1.5h64.8c.8 0 1.5.7 1.5 1.5 0 .9-.7 1.5-1.5 1.5zM540.3 132.6h-64.8c-.8 0-1.5-.7-1.5-1.5s.7-1.5 1.5-1.5h64.8c.8 0 1.5.7 1.5 1.5s-.7 1.5-1.5 1.5zM567.3 153.7h-40.2c-.8 0-1.5-.7-1.5-1.5s.7-1.5 1.5-1.5h40.2c.8 0 1.5.7 1.5 1.5s-.7 1.5-1.5 1.5z"/><path style="fill:#8aa7c4" d="M400.6 191.6h37.6"/><g><path style="fill:#bcbec0" d="M374 161.4h215.5v35.8H374z"/><path class="st12" d="M381.3 172.3h128.9v2H381.3zM381.3 183.3h100.4v2H381.3zM516.1 165h37.6v2h-37.6zM544.6 172.3H574v2h-29.4zM553.7 190.6h24.8v2h-24.8zM527.1 178.3H550v2h-22.9zM499.5 183.3h20.3v2h-20.3z"/></g></g><g><path d="M172.2 318s100.4 69.5 19.2 135.5h630.8s-80.3-27.7-3-131.8l-647-3.7z" style="fill:#fff"/><path class="st14" d="M209.6 328.1h588.9v6.4H209.6zM208.9 345.2h588.9v6.4H208.9zM208.9 362.4h588.9v6.4H208.9zM232.5 379h531.3v6.4H232.5z"/><path class="st15" d="M240.8 368.8s.3-8.3 7.3-1.3c7 7 19.6 28.4 19.6 28.4l97.5-4.2 2.4 19.1-96.6 11.6-20.3-8-9.9-45.6z"/><path class="st16" d="M709.2 424.3c-5.3 4.4-45.9 4.4-45.9 4.4s-8.9 12.2-18.6 12.2c-9.6 0-185.7.5-185.7.5s-11.7-.2-12.4-5.7c0 0-58.5-9.1-66.7-13.1 0 0-8.7-1.3-28.4 6.3s-80.3 0-80.3 0-9.6 3.2-13.6 9c-2.2 3.1-6.4 4.2-9.6 2.2-1.2-.8-2.2-1.9-2.9-3.6-2.8-6.9-6.1-70.7-6.1-70.7s12.2 8.6 17.1 22.1c4.8 13.5 7.1 21.8 26.6 23.8l53.2-11 27.5-8.7s21.3-7.3 31.6-4.1 60.5 0 60.5 0l88.1 2.4s19.9-4.7 35.1-7.9c15.1-3.2 39.9-7.1 54.3 1.8s28.2 13.3 28.2 13.3h21.3l26.7 26.8z"/><path class="st17" d="m534 387.7-2.8 53.7H448s-6.2-44.9 7.6-53.7H534z"/><path class="st15" d="M663.3 428.7s6.2-17.5-8.9-22.9c-15.1-5.3-53 0-67.4 11.4 0 0-16.5 8-23.4 8s-69.5 3.4-69.5 3.4-44.7-8.3-47.5 6.9l5.5 5.7 192.6-.5c.1.2 17.4-3.7 18.6-12z"/><ellipse transform="rotate(-78.258 714.847 397.268)" class="st16" cx="714.8" cy="397.3" rx="27.6" ry="43.8"/><path d="M734.4 374.7s10.6-9.8 22.3 0c11.7 9.8 15.3 33.9 7 47.7 0 0-13.1 22.3-39.2 18.4-26.1-3.9-31.6-16.2-20-20.5l16.5-2.4-14.4-6.4 2.8-5.7h24.1s4.8-.1 4.8-8.6-3.9-22.5-3.9-22.5z" style="fill:#8c585a"/><ellipse transform="rotate(-63.211 711.661 417.729)" class="st16" cx="711.7" cy="417.7" rx="6.6" ry="10.5"/><g><path class="st5" d="M806.4 314.3s-82.5 75.2-34.9 115.6c0 0 30.3 19.3 47.7 24.8l31.6 6.4s-51.8-22.9-54.5-62.4 65.1-80.7 65.1-80.7l-55-3.7z"/><ellipse transform="rotate(-63.211 798.494 348.404)" cx="798.5" cy="348.4" rx="10.5" ry="5.4" style="opacity:.38;fill:#44515a"/><path d="M790.2 368.7h-12.7s-15.6 13.5-9.5 42.8h12.8s-11.5-20.8 9.4-42.8z" style="fill:#fcffff"/><path class="st17" d="M861.4 328.1s-91.7 66-42.2 103.6l17.4 14.7s-57.8-8.3-45.9-65.1c0 0 22.8-39.4 60-59.6l10.7 6.4z"/></g><g><path class="st5" d="M167.1 318s62.1 52.9 63.5 73.8c1.4 20.9-39.9 54.6-39.9 54.6s35.7-.3 55.3-32.1c6-9.7 6.2-21.9.8-32-10.5-19.7-31-54.2-50.4-64.3h-29.3z"/><path class="st17" d="M183.2 446.4s65.8-34.9 13.3-83-39.5-35.3-39.5-35.3l23.4-6.4s66.7 58.2 57.8 79.6-33 44.2-55 45.1z"/></g><g><path class="st6" d="M867.9 328.1H157v-2.3c0-44.3 35.9-80.3 80.3-80.3h550.3c44.3 0 80.3 35.9 80.3 80.3v2.3z"/><path class="st17" d="M671.6 302.4c0 2.3-.5 4.5-1.4 6.4-.8 1.7-1.9 3.3-3.2 4.6-2.8 2.8-6.7 4.6-11 4.6H367.1c-6.3 0-11.8-3.8-14.2-9.2-.9-2-1.4-4.1-1.4-6.4 0-4.3 1.8-8.2 4.6-11 2.8-2.8 6.7-4.6 11-4.6H656c8.6 0 15.6 7 15.6 15.6z"/><path class="st8" d="M671.6 302.4c0 2.3-.5 4.5-1.4 6.4H352.9c-.9-2-1.4-4.1-1.4-6.4 0-4.3 1.8-8.2 4.6-11 2.8-2.8 6.7-4.6 11-4.6H656c8.6 0 15.6 7 15.6 15.6z"/></g><g><path class="st21" d="M104.8 582.3h801.6v3.2H104.8z"/><path class="st6" d="M876.1 451.9v41.7c0 24.1-9.6 46-25.3 61.9-16.1 16.4-38.5 26.6-63.2 26.6H235.5c-24.8 0-47.2-10.2-63.2-26.6-15.6-16-25.3-37.8-25.3-61.9v-41.7c0-6.1 4.9-11 11-11h707.1c6.1 0 11 4.9 11 11z"/><path class="st17" d="M351.5 482.1h324.7l-100 46.8H444.1z"/><path class="st21" d="M467.1 511.5h88.1v9.2h-88.1z"/><path class="st8" d="m605.5 541.8 231.1-59.6s-16.5 48.6-44 59.6-187.1 0-187.1 0zM398.3 538.9l-231.1-59.6s16.5 48.6 44 59.6 187.1 0 187.1 0z"/><path class="st17" d="M850.8 555.5c-16.1 16.4-38.5 26.6-63.2 26.6H235.5c-24.8 0-47.2-10.2-63.2-26.6h678.5z"/><path class="st21" d="M196.5 582.1h622.8v12.8H196.5z"/></g></g></svg>