<svg version="1.1" id="Layer_1" xmlns="http://www.w3.org/2000/svg" x="0" y="0" viewBox="0 0 1000 734.7" style="enable-background:new 0 0 1000 734.7" xml:space="preserve"><style>.st0{fill:#cfb5f6}.st3{fill:#fff}.st6{fill:#3e3d42}.st7{fill:#414042}.st8{opacity:.44;fill:#6d6e71}.st14{fill:#eac096}.st15{fill:#6d6e71}.st17{fill:#f2b29c}.st20{fill:#ff4d53}.st21{opacity:.75}.st22{fill:#e83e4b}.st23{fill:#f9b495}.st26{fill:#301d17}.st27{fill:#ee4042}</style><ellipse class="st0" cx="621.9" cy="361.2" rx="348.1" ry="343.6"/><ellipse class="st0" cx="376.1" cy="358.5" rx="348.1" ry="343.6"/><circle cx="505.4" cy="369.3" r="348.6" style="fill:#e3d4f9"/><ellipse cx="486.4" cy="711.6" rx="427.4" ry="12.1" style="opacity:.31;fill:#6d6e71"/><path class="st3" d="M751.4 334h18.1v11h-18.1z"/><path d="M780.9 411.9h-39.7v-59.6c0-6.5 5.3-11.8 11.8-11.8h16.2c6.5 0 11.8 5.3 11.8 11.8v59.6z" style="fill:#7cbed8"/><circle class="st3" cx="760.2" cy="323.6" r="4.8"/><path class="st3" d="M732.3 329c-.1-.2-.8-2.1.2-4 .9-1.6 2.6-2.5 5.2-2.9 5.9-.9 21.8-.1 22.5 0l-.2 3.2c-.2 0-16.3-.9-21.9 0-1.5.2-2.5.7-2.9 1.3-.3.6-.1 1.3-.1 1.3l-2.8 1.1zM758.6 325.8h4.2v10.5h-4.2z"/><path d="M761.5 411.9h-20.4V353c0-5.3 4.3-9.6 9.6-9.6h1.1c5.3 0 9.6 4.3 9.6 9.6v58.9z" style="opacity:.23;fill:#fff"/><path class="st6" d="M685.9 577.3h171.6v105.6H685.9zM675.6 424.8l6.9-12.9h173.4l7.4 12.9zM685.9 424.8h6.8v152.5h-6.8zM732.5 424.8h6.8v152.5h-6.8zM800 424.8h6.8v152.5H800zM850.7 424.8h6.8v152.5h-6.8z"/><path class="st6" d="M694.7 681.7H705V692h-10.3zM735.1 681.7h10.3V692h-10.3zM784.3 683h10.3v10.3h-10.3zM838.2 683h10.3v10.3h-10.3z"/><circle class="st7" cx="699.9" cy="700.4" r="11.3"/><circle class="st8" cx="705.4" cy="704.4" r="3.8"/><circle class="st7" cx="739.3" cy="698.6" r="11.3"/><circle class="st8" cx="744.8" cy="702.6" r="3.8"/><circle class="st7" cx="789.4" cy="698.4" r="11.3"/><circle class="st8" cx="795" cy="702.4" r="3.8"/><circle class="st7" cx="843.4" cy="698.8" r="11.3"/><circle class="st8" cx="848.9" cy="702.8" r="3.8"/><path style="opacity:.28;fill:#6d6e71" d="M795 577.3h62.6v105.6H795z"/><path class="st6" d="m675.4 583.1 6.8-13h173.4l7.5 13z"/><g><path d="M779.6 391.6V412h-83.4v-15s2.9-2.9 17.1-5.5c14.3-2.5 66.3.1 66.3.1z" style="fill:#ec3b4b"/><path d="M779.6 391.6V412h-26.9l-.9-11s-2.9-5.2 5.5-6.8c8.4-1.7 22.3-2.6 22.3-2.6z" style="fill:#b61024"/><circle class="st3" cx="705.5" cy="403.3" r="3.4"/><circle class="st3" cx="722.4" cy="403.3" r="3.4"/><circle class="st3" cx="739.3" cy="403.3" r="3.4"/></g><path d="M800 381.2c-.5-2.3-2.5-4-4.2-5.1v-6.9h-10.3v6.9c-2.5 2.3-4.5 6.1-4.5 6.1v29.7h19.1c-.1 0 .9-26.5-.1-30.7z" style="fill:#30384b"/><path d="M841.1 411.7H814v-40.2c0-1.4.4-2.8 1.2-4 1.1-1.8 2.9-4.4 4.9-6.3l.4-.4V351h14.7v9.7c.2.1.4.3.6.4 2.3 1.7 4.7 4.9 5.4 7.9 1.3 6.1-.1 42.7-.1 42.7z" style="fill:#222f3f"/><path class="st14" d="M835.7 361.2H820l.4-.4V351h14.7v9.7c.2.2.4.3.6.5zM814 383.2h21.6v11.6H814z"/><path class="st3" d="M780.9 384.8h15.8v26.9h-15.8z"/><g><path class="st15" d="M636.8 388.8h38.8s13.2 2.1 16.5-13.7c3.2-15.8 0-46.7 0-46.7s-1.6-5.5-10.3-5.9c-8.7-.4-50 0-50 0l5 66.3z"/><path class="st7" d="m631.8 322.5 39.5 5.9s6.5 44.9-7.7 49.3c-14.2 4.4-28.1 0-28.1 0l-3.7-55.2z"/></g><g><path class="st7" d="M593.5 482.3v52.4h29.8v-54z"/><path class="st7" d="M656.2 430.6h1.6c5 .2 20.7 1.5 32 9 13.6 9 6.8 15.2 6.8 15.2s-13.2 17.8-40.4 22.6c-27.1 4.8-75.9 9.7-75.9 9.7l75.9-56.5z"/><path class="st15" d="M662.7 433.6s14.1-.6 19.8 2.3c0 0-14.1 20-30.2 16.8 0-.1 15.5-11.7 10.4-19.1z"/><path class="st7" d="M601.6 532.7v130.9s-7.8 9.4-33.9 8.7c0 0-14.2-4.2-22.3 2.9-8.1 7.1-8.7 12.9-8.7 12.9l10.7 3.9 3.6-7.4-3.6-2.3s5.2-6.5 13.9-3.6 23.6 3.9 32.3 0 10.7-6.5 10.7-6.5v6.5H600l.3 5.5 2.3.6.3 3.2h10.7v-3.9h1.9v-5.5h-3.2V671s2.3 0 6.8 3.9 16.3 7.4 33.2 4.8 19 2.9 19 2.9l-3.9 1.9s5.4 3.2 3.9 7.4l13.1-5.5-1.9-5.8-1.4-1.9h-1.9s-1.9-7.4-14.9-7.8c-12.9-.3-22 3.9-39.1-3.2l-10.3-8.7-.3-126.3h-13z"/><path class="st7" d="M561.3 623.9h94.3v12.6h-94.3z"/><circle class="st7" cx="537.7" cy="698.4" r="12.2"/><circle class="st7" cx="608.4" cy="697" r="12.2"/><circle class="st7" cx="682.5" cy="698.4" r="12.2"/><circle class="st8" cx="608.4" cy="702.7" r="4.1"/><circle class="st8" cx="688.5" cy="702.7" r="4.1"/></g><path class="st15" d="M98.1 229.7s-4.1 4.8 0 11.6c0 0-9-4.4 0-11.6zM91.7 234.2s-5.3-1 0 7.1v-7.1z"/><g><path class="st7" d="m352.7 536.9-4.1-61.1 25.7 7.2s10.3 24.8 29.2 3c0 0 38.5-93 24-132.3 0 0-30.6-34.7-79-12.1v-178c0-10.2-8.3-18.5-18.5-18.5H192.4c-10.2 0-18.5 8.3-18.5 18.5v179.2l-31.3-8.8s-41.4-18.2-50.9 29.8c0 0 2.2 86.5 26.2 115.2 0 0 8.6 34.7 36.3 0 0 0 20 19.7 13.3 59.5 0 0-15.6 83.3-39.2 124.1-23.5 40.7-17.7 48-17.7 48h299.5s-5.8-40-25.4-64.7l-32-109zM337.7 134.1H213.1c-6 0-10.9-4.9-10.9-10.9V96.5c0-6 4.9-10.9 10.9-10.9h124.5c6 0 10.9 4.9 10.9 10.9v26.7c.1 6-4.8 10.9-10.8 10.9z"/><path class="st15" d="M366.5 709.2H160v-44c0-4.7 3.8-8.4 8.4-8.4H358c4.7 0 8.4 3.8 8.4 8.4v44z"/><path class="st7" d="M255.3 128.3h41.4v41.4h-41.4z"/><path d="M384.6 329.5s-7.1.3-4.4 7.8c2.7 7.4 10.4 1.3 10.4 1.3s-.6-5.4-5.5-3.3c0-.1-6.8 2.6-.5-5.8z" style="fill:#545454"/><ellipse transform="rotate(-65.455 313.486 121.596)" class="st17" cx="313.5" cy="121.6" rx="60.6" ry="39.3"/><ellipse transform="rotate(-56.655 348.581 137.627)" class="st17" cx="348.6" cy="137.6" rx="13.6" ry="8.8"/><ellipse transform="rotate(-6.367 276.68 104.796)" class="st17" cx="276.7" cy="104.8" rx="8.8" ry="13.6"/><path class="st17" d="M277.5 624.8v13.1h18.1l8-10.9zM216.2 629.7l8.1 14 20.1-4.8-2.7-14.1z"/><path d="M281.1 93.8s10.5-50.5 52.7-44.7S384.7 69 384.7 69 369.4 84 365 96.3s-11.1 29.1-11.1 29.1-1.2-22.6-1.9-29.1-13.8-5.1-13.8-5.1-10.9-1.9-12.4-5.7c-1.5-3.8-12.3-15.4-12.3-15.4l-29.1 27.1-3.3-3.4z" style="fill:#392725"/><path d="M182.6 377.7s-66.2-.7-52.3 42.9S147 494 147 494s63.2 138.1 65.4 138.1 34.2-3.6 34.2-3.6-16-64-22.5-86.5c0 0 3.6-46.5-17.4-62.9l-27.6-38.9s53.3 15.1 82.9-1.5c0 0 52.4 14.2 75.4 7.3 1.4-.4 2.7-.9 3.8-1.5 20.4-10.2-34.2 29.1-38.5 46.5s-28 136.7-28 136.7l34.5 4.4 51.6-112.7s24-58.2 24-78.5c0 0 25.4-50.2-14.5-57.4-40-7.3-68.3-2.9-68.3-2.9l-119.4-2.9z" style="fill:#4570ad"/><path class="st17" d="M365 404.6c-32.7 2.9-88.3 22.5-88.3 22.5s-4.7 14.5-13.5 23.3c-6.4 6.4-3.4 12.7-1.4 15.7 1 1.5 1.4 3.4 1.1 5.2-.9 4.5-4.2 11-16.4 6-17.4-7.3-3.6-28.4-3.6-28.4l6.5-22.5 13.1-8s22.2-16.4 44.2-31.6c19.1-13.2 38-25.4 41.9-25.1 0 0-7.4-63.7-5.4-66.8l-2.1 2.1s-2.1.8-5.3 2.6c-7.7 4.5-21.5 15.3-26.7 37.4-7.3 31.3-7.3 43.6-7.3 43.6s-33.4 11.6-44.3 11.6c-10.9 0-38.5-17.4-74.9-14.5 0 0 16.7-82.9 13.8-101-.4-2.7-1.1-5.2-2-7.5-4.9-13.2-15.4-20.1-15.4-20.1s-29.8 20.4-52.3 16l16 69.1s26.2 37.8 24 47.2c-2.2 9.5-6.5 10.2-16.7 13.1-10.2 2.9-20.4 4.8-23.3-5.6-2.9-10.4 5.8-8.2 5.8-8.2s-2.9-21.1-2.9-26.9c0-5.8-10.9-27.7-10.9-27.7L75 264.3s-7.3-12.4 2.9-21.8c10.2-9.5 72-39.3 72-39.3s34.9-22.5 57.4-16c0 0 2.3-.7 5.9-1.9 4.8-1.5 12.1-3.7 19.9-5.9 13.2-3.6 27.9-7 35.2-6.6l8.4-11.8s15.2 17 43.1 11.8c0 0-3.4 6.4 3.8 18l16.4 13.3 26.5 21.6s30.5 17.4 28.4 55.2c-2.2 37.8.1 101 .1 101s2.7 19.7-30 22.7z"/><path class="st20" d="M218.2 636.5s8 14.5 5.8 24.7-16.7 30.5.4 42.2c17.1 11.6 31.6-6.5 30.9-20.4-.7-13.8-8-37.1-8-37.1l-2.9-13.8-26.2 4.4zM276.7 632.1l-9.1 40.7s-5.1 32 24 29.8 9.5-33 9.5-33-6.5-19.3-4.4-25.8 3.6-11.6 3.6-11.6h-23.6z"/><path class="st3" d="m366.5 225.7-7.6 10.9c-10.8 15.3-18 32.9-21.1 51.4l-2 11.6c-7.7 4.5-21.5 15.3-26.7 37.4-7.3 31.3-7.3 43.6-7.3 43.6s-33.4 11.6-44.3 11.6c-10.9 0-38.5-17.4-74.9-14.5 0 0 16.7-82.9 13.8-101-.4-2.7-1.1-5.2-2-7.5 18.7-20 13.2-67.6 12.9-81.9 4.8-1.5 18-5.6 25.9-7.7 13.4 21.4 40.4 35.6 49.7 38.3 27.3 7.8 46.7-4.1 57.1-13.6l26.5 21.4z"/><g class="st21"><path class="st3" d="M222.5 680.8c-.4 2.8-.5 5.6 0 8.2.5 2.6 1.7 5 3.7 6.5 1 .8 2.1 1.4 3.4 1.8 1.2.5 2.5.7 3.9 1 2.7.4 5.5.5 8.3.6-2.7.8-5.6 1.1-8.5 1-2.9-.2-5.9-.9-8.3-2.8-1.2-1-2.2-2.2-2.9-3.6-.7-1.4-1-2.9-1.1-4.3-.3-3 .3-5.9 1.5-8.4z"/></g><g class="st21"><path class="st3" d="M287.4 698.2c2.8-.3 5.5-.8 8-1.9 2.4-1.1 4.4-2.8 5.5-5.2.6-1.1.8-2.4 1-3.7.2-1.3.1-2.6.1-4-.2-2.7-.8-5.4-1.4-8.2 1.4 2.5 2.4 5.1 3 8 .5 2.8.5 5.9-.8 8.7-.7 1.4-1.6 2.6-2.8 3.6-1.2 1-2.5 1.7-3.9 2.1-3 1-5.9 1.2-8.7.6z"/></g><path class="st15" d="M394.6 286.1s-7.2-1.5-11.4-10.5c0 0 4.9 7.3 8.6 6.7.4-.1 2.8 1.2 2.8 1.6v2.2z"/><path class="st15" d="M395 287.5s-19.9-17.8-23.8-3.2c-3.9 14.5-1.6 17.4-1.6 17.4s1-16.6 4.5-15.9c3.6.7 16.2 3.3 17.1 6.5 1 3.2.3 15.5-6.5 21s-10.8 4.5-18.3 0c0 0 1.5 8.1 10.9 9 9.4 1 15.2-7.8 15.2-7.8l1.3-2.9 1.2-24.1z"/><path class="st22" d="M391.1 296.6c-.6-1.1-1.8-1.9-3.1-2-3.2-.4-9.6-.3-11.9 5.9 0 0 8.4-6.6 13.9-3 2.1 1.4 1.8.3 1.1-.9z"/><path class="st22" d="M389 299.6s4.3 7.4-8.8 11.5c0 0 5.6-2.5 7.7-8.1 0 0-2.3-6.5-7.7-1 0 .1 2.9-7.2 8.8-2.4z"/><path class="st15" d="M392.4 317.9s-2.8 10.7-14.7 9c0 0 4.9 1.3 14.7-9z"/><path class="st22" d="M169.6 196.1s-3.9 6.8 8.1 6.8c0 0-3.2 4.5-10.3 1.6 0 0-4.2-5.8 2.2-8.4z"/><path class="st22" d="M163.5 200.8s-3 7.9 2.5 8.9 11.7 0 11.7 0-5.2 7.4-15 3.6c0-.1-7.6-5.9.8-12.5z"/><path class="st15" d="M159.6 212.2s1.7 7.1 18.2 4.5l16.5-2.6s-10.7 7.1-22.3 7.1c-11.7.1-12.4-9-12.4-9z"/><path class="st22" d="M153.9 200.8s-1.6 11.4 2.8 13.6c0 0-6.1 5.7-20.7-2.1 0 0 8.4-2.1 14.5 0 .1-.1-1.4-8.9 3.4-11.5z"/><path class="st15" d="M126.1 215s12.9 6.6 23.8 6.3l9.6-1.3s-3.8 6.1-21.6 3.2l-14.9-3.7s6.8 1.8 10.3 6.6c0 0-14.2-6.8-17.4-3.6 0 0 5.2-.6 8.4 5.8 0 0-11-5.5-13.9-1.9 0 0 4.2 0 7.1 3.6 0 0-18.4-2.6-17.1 4.2l2.4-7.1 23.3-12.1z"/><path class="st15" d="M137.7 226.1s10.3 3.9 23.3-3.2c-.1 0-8.3 12.6-23.3 3.2z"/></g><circle class="st8" cx="534.1" cy="702.7" r="4.1"/><g><path class="st23" d="M492.1 286.1s8.4 27.8 16.6 36.4l-51.4-14.9-3.4 14.9s16.8 23.8 73.7 41.6c0 0 35 14 36.2 1l.6-5.2c.1 0-54.2-73-72.3-73.8z"/><ellipse transform="rotate(-16.817 484.355 158.87)" class="st23" cx="484.4" cy="158.9" rx="38" ry="55.9"/><ellipse class="st23" cx="518.2" cy="141.8" rx="9.4" ry="13.9"/><path d="M444.6 145s-20.9 2.9-13.8-13.6C438 115 461.2 100 461.2 100s23.3-15.5 34.9-3.9 17.4 22.4 17.4 22.4l-11.1 9.4s-10.4-14.3-18-15.3-17.8 15.3-17.8 15.3-8 16.2-22 17.1z" style="fill:#25130f"/><path class="st23" d="m508.7 200.8 9.4 16s-8 17 4.6 31c12.6 14.1 35.4 8.9 39.7-12.3s0-39.4 0-39.4l-9.2-3.6-32-31.5-12.5 39.8z"/><path class="st3" d="M457.4 335.2s-6-2.5-12.1-2.2c-6.1.3-18.7-13.8-30.4-13-11.6.7-26 3.6-26 3.6s-9.2 12.1 5.1 14.2c0 0 2.5.3 5.7 7.4 3.2 7.1 20.7 7.4 20.7 7.4s12.9-1.9 19.4 0c6.5 1.9 17.6 3.1 17.6 3.1v-20.5z"/><path d="m395 291.1 6.9-1.3v-3.7l7.1-.3v-3.5h15.8v-3.8h9.7l-1.3-3-2.5-1.9 3.7-3.2 3.9 3.2v1.9h-2.6l.6 3 27.6-4.6s3.4-.1 4.1 4.6 2.3 21.9 2.3 21.9 2.3 1.9-1.6 4.1-22.9 3.1-25.5-4.1l-3.9-6.1h-5.2l-1.2-2.8-5.6.3s-1-4.8-4.5-6c-3.6-1.1-6.1-.5-6.1 4.3v4.8l-5.5-.8-1.9-2.1-4.8.6-2.9 1.5-.3-2.8-6.3-.2z" style="fill:#46474c"/><path class="st3" d="M454 322.5s-8.4-4.9-18.4-4.6c-10 .3-13.9-13.3-13.9-13.3l-4.9-9.3s-1.9-12.6 6.1-9.2c0 0 4.5 2.4 4.5 6l5.6-.3 1.2 2.8h5.2s3.8 9 8.9 10.2c5.2 1.2 9 2.8 9 2.8l-3.3 14.9z"/><path class="st26" d="M572.5 388.8s-42.3 5.4-63.3 9.9-67.2 20.8-70.4 29.2-6.5 19 4.5 31.6c11 12.6 97.2 137 97.2 137l21.3-8.7-30.4-77.5S517.3 466 504 458.6l-9.4-7.4 22.9-.3s84.2-15.3 104.3-37.1l-49.3-25z"/><path class="st26" d="M671.1 414.2s4.8 33-35.9 54.6c-40.7 21.6-99.8 51.3-99.8 51.3s-6.8 49.9-13.9 68.3c-7.1 18.4-31.7 90.5-31.7 90.5l-25.7-6.1 10.2-151.5s-3.6-16.8 14.9-34.6c18.4-17.8 72.4-62.4 72.4-62.4l36.2-23.3c-.1-.1 60.7 18 73.3 13.2z"/><path class="st20" d="M487.9 678.8v28.3l-33.3 3.6s-30.7-.2-33-3.6c-1.4-2.1-2.1-4.2.5-6.9 1.5-1.6 4.3-3.4 8.7-5.5 11.8-5.6 28.6-14 28.6-14s0-10.8-1.9-13.3.3-1.5.3-1.5l10-.2.1 7.9 20 5.2zM574.8 610.3s-22.3 23.9-34.6 30.4-24.9 13.6-24.2 3.2c0-.3 0-.5.1-.8.2-1.6.7-3.4 1.5-5.2 1.6-4 4.4-8.1 7-11.6 3.5-4.6 6.7-7.9 6.7-7.9s5.9-5.9 5.9-13v-.3c0-1.3-.2-2.6-.7-3.9l-7.6-7.8 8.9-5.8 6.4 7.3 17.9-7.3 10.1 17.8 2.6 4.9z"/><path class="st3" d="M574.8 610.3s-22.3 23.9-34.6 30.4-24.9 13.6-24.2 3.2c0-.3 0-.5.1-.8 4.2-1.3 9.4-4.2 18-7.9 9.7-4.2 30.4-22.8 37.9-29.7l2.8 4.8zM487.9 700.3v6.7l-33.3 3.6s-30.7-.2-33-3.6c-1.4-2.1-2.1-4.2.5-6.9 16.8 5.6 53.1 1.8 65.8.2zM459.5 680.7l-28.6 14s13.2-7.2 14.3-1.4c1.1 5.8 0 2.9 0 2.9s1.1-8.1 4.9-5.2c3.9 2.9 4.1 4.5 4.1 4.5s-2.8-8 1.4-8.8c4.2-.8 6.8 4 6.8 4s2.6-5.8-2.9-10z"/><path class="st27" d="M517.6 637.9c.2-.3 1.5-2.8 3.4-5.6l-3.4 5.6zM533.8 626.7c.3.3.3.5.3.5s-.1-.1-.3-.5z"/><path class="st3" d="M541.5 621.5c-.5-.3-3.8-2.4-7.4-1.2-3.1 1-1.2 4.9-.4 6.4-.6-.7-2-1.9-4.9-1.9-2.4 0-5.5 3.9-7.9 7.5l3.6-5.9c3.5-4.6 6.7-7.9 6.7-7.9s5.9-5.9 5.9-13c0 0-2.2-.7 0-.3.4.1.9.2 1.5.3 4.5 1 8.7 7.1 8.7 7.1s-4.9-1.6-9.7 0c-4.6 1.5 3.1 8.3 3.9 8.9z"/><path class="st20" d="M654.1 418.4c-19.4.5-41.7-7.3-53.8-12.1-12.1-4.8-30.1-14.1-30.1-14.1s-1.9-16.5-7.7-30.5c-5.8-14.1-57.7-64.2-57.7-64.2l-20.5-11.4s-1.8-9.2 0-27.1c.9-8.6 3.9-16.4 6.9-22.3 3-6.1 7.5-11.3 12.9-15.3l11.2-9.2 2.8 4.7s14.8 37.8 28.8 28.1c14-9.7 6.3-52.3 6.3-52.3l33-.5s10.5-2.3 22.8.1c5.6 1.1 11.5 3.1 16.9 6.7 17.4 11.6 7.3 45.1 8.2 66.9 1 21.8 20.8 91.6 27.1 106.3 6.3 14.7 11.6 43.9 11.6 43.9s.7 1.8-18.7 2.3z"/><path class="st23" d="M613.4 258.4s-1.6 24.7-12.2 46.3-15.9 32.7-15.9 41c0 8.2-5 12-14.6 12.6s-65.4 0-65.4 0l-48-2.4v-20.6l51.4-8.1s29.1-10.8 48.5-9.2c0 0-.5-35.2 15.5-67.2h9.2l31.5 7.6z"/><path d="M654.1 418.4s.5-38.8-22.3-91.3c-16.2-37.4-21.2-101.3-22.7-135 5.6 1.1 11.5 3.1 16.9 6.7 17.4 11.6 7.3 45.1 8.2 66.9 1 21.8 20.8 91.6 27.1 106.3 6.3 14.7 11.6 43.9 11.6 43.9s.6 2-18.8 2.5z" style="opacity:.27;fill:#301d17"/><path d="M572.7 250.7s-9.7-55.7 13.6-58.6c23.3-2.9 41.2 3.1 43.1 13.4 1.9 10.3 7.8 37.2-11.1 50.2l-2.9 6.7s-1.3-.2-3.5-.5c-8.4-1.3-29.2-4.9-39.2-11.2z" style="fill:#e24752"/></g><g><path class="st3" d="M602.2 664.6c-12.2 0-22.5-3.5-31.1-10.6-15.9-13.2-25.9-39-30.6-79-3.9-34-4.2-79.9-.9-144.3 4.4-85.8-15.5-122.3-33-137.8-18.5-16.4-38.1-13.2-38.3-13.2l-.4-2.1c.8-.1 20.7-3.4 40 13.6 11.4 10.1 20.1 25.2 25.9 44.9 7.2 24.6 9.9 56.4 7.9 94.7-5 97.8-4.8 192.3 30.7 221.6 12.3 10.2 28.4 12.7 49 7.6 13-3.2 24.3-11.6 31-23.1 11.1-19.1 23.2-57.4 17.7-131.8-4.5-60.2 1-96.3 15.8-104.3 8.4-4.5 16.4 1.5 16.7 1.7l-1.3 1.7c-.3-.2-7.3-5.4-14.5-1.5-9.8 5.3-20.2 27.3-14.7 102.2 5.6 75-6.7 113.7-18 133-7 12-18.8 20.8-32.3 24.1-6.9 1.7-13.5 2.6-19.6 2.6z"/></g><g><path class="st3" d="M615.3 631.4c-10.8 0-20.2-2.8-28.2-8.4-38.8-27.3-37.1-117-35.8-189.2.2-10.7.4-20.9.4-30.6.2-36.6-9.1-64.3-27.7-82.5-23.4-22.8-53.6-22.2-53.8-22.2l-.1-2.1c.3 0 31.3-.7 55.4 22.8 19.1 18.6 28.6 46.9 28.4 84.1-.1 9.7-.2 19.9-.4 30.6-1.3 71.6-2.9 160.7 34.9 187.4 14.4 10.2 34.1 10.6 58.4 1.4 18.5-7 33.2-20.5 41.6-38.1 10.3-21.6 15.3-43.6 10.4-91.9-4.2-41.2 6.9-63.6 16.9-75.1 11-12.6 22.8-15.3 23.3-15.4l.5 2.1c-.1 0-11.7 2.7-22.2 14.8-9.7 11.2-20.4 33-16.3 73.4 5 48.8-.1 71.1-10.6 93-8.6 18.1-23.8 32-42.8 39.2-11.9 4.5-22.6 6.7-32.3 6.7z"/></g></svg>