<svg version="1.1" id="Layer_1" xmlns="http://www.w3.org/2000/svg" x="0" y="0" viewBox="0 0 851.62 703.54" style="enable-background:new 0 0 851.62 703.54" xml:space="preserve"><style>.st4{fill:#a660ea}.st6{opacity:.41;fill:#fff}.st7{fill:#676868}.st8{fill:#fff}.st9{fill:#808285}.st11{fill:#ff867d}.st12{fill:#d58061}.st13{fill:#273238}.st15{fill:#8a22e1}.st17{fill:#fca819}.st19{fill:#ff867d;stroke:#d58061;stroke-miterlimit:10}.st22{fill:#965038}.st23{fill:#c46f4d}.st25{fill:#4cc0a7}.st27{fill:#c13647}</style><path style="opacity:.19;fill:#8a22e1" d="M0 .96h851.62v702.57H0z"/><path style="fill:#5295d8" d="m745.83 202.25-10.09 41.77-29.04 7.94-.94-.17-31.16-5.63 11.92-45.13 31.19 9.35.29-.09z"/><path style="fill:#447ead" d="m745.83 202.25-10.09 41.77-29.04 7.94-.94-.17 12.24-41.5z"/><g style="opacity:.88"><path class="st4" d="M13.97 89.92h141.25v244.43H13.97z"/><path style="opacity:.36;fill:#fff" d="M21.31 102.61h126.57v219.04H21.31z"/><path class="st4" d="M21.31 253.19h126.57v11.92H21.31z"/><path class="st6" d="m21.31 222.73 89.74-120.12h36.83v36.3L21.31 253.19zM68.54 253.19l79.95-73.85v36.55l-45.1 37.3z"/></g><path class="st7" d="M220.13 51.41h441.63v357.71H220.13z"/><path class="st8" d="M234.85 63.33h412.19v333.86H234.85z"/><path class="st9" d="M310.24 237.13h115.68v1H310.24zM313.22 260.56h108.23v1H313.22zM313.22 287.54h108.23v1H313.22zM506.75 307.15c-21.92 0-39.76-17.84-39.76-39.76s17.83-39.76 39.76-39.76 39.76 17.84 39.76 39.76-17.84 39.76-39.76 39.76zm0-78.52c-21.37 0-38.76 17.39-38.76 38.76s17.39 38.76 38.76 38.76c21.37 0 38.76-17.39 38.76-38.76s-17.39-38.76-38.76-38.76z"/><path style="fill:#6d6e71" d="M546.01 267.89h-39.76v-39.76h1v38.76h38.76z"/><path class="st9" d="M427.58 187.04H281.31V89.92l146.27 97.12zm-145.27-1h141.95L282.31 91.78v94.26zM495.75 114.19h86.52v1h-86.52zM495.75 135.29h85.36v1h-85.36zM495.75 157.3h85.36v1h-85.36zM276.65 355.84h62.83v1h-62.83zM276.65 374.94h67.18v1h-67.18zM276.65 336.75h67.18v1h-67.18zM373.98 355.84h62.83v1h-62.83zM373.98 374.94h67.18v1h-67.18zM373.98 336.75h67.18v1h-67.18zM473.16 355.84h62.83v1h-62.83zM473.16 374.94h67.18v1h-67.18zM473.16 336.75h67.18v1h-67.18z"/><path class="st7" d="M290.98 401.55h19.26v225.17h-19.26z"/><path class="st7" d="M325.38 633.14H273.9c0-5.61 4.55-10.17 10.17-10.17h31.15c5.6 0 10.16 4.56 10.16 10.17zM571.47 398.34h19.26v225.17h-19.26z"/><path class="st7" d="M605.87 629.93h-51.48c0-5.61 4.55-10.17 10.17-10.17h31.15c5.6 0 10.16 4.56 10.16 10.17z"/><path class="st11" d="m151.49 306.69 1.45-26.29-.73-15.59s6.31-6.42 10.89-3.06c0 0 3.36-3.78 6.42-.97 0 0 2.75 12.9 0 17.79-2.75 4.89-6.11 9.48-6.11 9.48l2.6 16.82-14.52 1.82z"/><path class="st12" d="m552.61 557.39-24.76 97.22-21.1 31.49 13.15 2.45 18.34-19.87s2.14-5.5.92-10.39l13.45-23.24 17.73-41.58 9.78-27.82-27.51-8.26z"/><path class="st13" d="M506.75 680.61s2.75 4.59 11.01 4.28l14.37-15.59s3.67-7.66 6.73-2.61-3.06 27.37-3.06 27.37h-3.97l3.36-12.54s-3.36-2.75-4.59.61c-1.22 3.36-5.81 10.12-5.81 10.12s-12.84 3.33-19.57-1.86 1.53-9.78 1.53-9.78z"/><path class="st12" d="m621.4 565.04-5.81 93.86s-11.31 30.27-14.68 29.66c-3.36-.61 4.28 6.11 10.24 2.75s18.19-22.32 18.19-22.32v-11.01l10.7-43.41 8.56-44.64-27.2-4.89z"/><path class="st13" d="M600.09 685.8s-10.18 3.67-3.15 8.25 20.18 1.83 20.18 1.83l7.23-12.54s3.16-4.89 2.86 0-2.86 10.7-2.86 10.7h5V675.1s4.28-9.17-1.22-8.56c-5.5.61-15.43 17.73-15.43 17.73s-6.7 6.73-12.61 1.53z"/><ellipse transform="rotate(-73.584 628.015 168.01)" class="st12" cx="627.99" cy="168.01" rx="31.99" ry="24.76"/><ellipse transform="rotate(-62.484 649.255 174.857)" cx="649.27" cy="174.87" rx="9.64" ry="7.46" style="opacity:.69;fill:#cc7b5e"/><path class="st12" d="m618.96 195.41 1.22 17.12h-26.29l1.22 21.71 35.16 14.06 19-11.62 10.04-8.56v-9.48l-6.11-.3-14.68-5.51-.91-26.29z"/><path class="st15" d="m585.63 321.06-43.11 244.89s83.46 12.84 133.61 7.03v-128.1s-11.62-109.45-18.34-114.04-72.16-9.78-72.16-9.78z"/><path d="M602.6 212.53c-.4 4.88.86 9.77 3.68 13.77 3.01 4.27 7.85 8.81 15.12 9.66 19.52 2.28 26.95-14.2 27.87-19.09l11.27 3.15-2.75 110.83-75.52-5.5 7.64-112.82h12.69z" style="fill:#fffffa"/><path class="st12" d="m694.78 280.71 9.4-17.43v-20.64s.69-6.19 7.57-4.82c6.88 1.38 15.13-.2 15.13-.2s2.29 8.91-3.9 15.56c-6.19 6.65-6.42 9.63-6.42 9.63l-5.52 20.87-16.26-2.97z"/><g><path d="M456.31 222.73a2 2 0 0 1-1.44-.61l-38.22-39.39c-.77-.79-.75-2.06.04-2.83s2.06-.75 2.83.04l38.22 39.39a2.004 2.004 0 0 1-1.43 3.4z"/><path class="st12" d="m485.66 222.46-19.72-7.57-17.89-12.38s-7.11-1.15-4.59 1.38c2.52 2.52 7.11 7.24 7.11 7.24s.23 5.83-3.67 2.84c-3.9-2.98-7.8-9.4-7.8-9.4v19.03s1.61 2.98 5.96 2.29 17.31.1 17.31.1l19.83 13.2 3.46-16.73z"/></g><path class="st17" d="M593.89 212.31s7.64 38.75-3.97 61.37l-4.59 37.3h-7.03l-1.53-59.31s-4.89-3.36-9.78 2.45c-4.89 5.81-33.32 7.64-41.27 4.89-7.95-2.75-39.13-17.73-39.13-17.73l-3.97 4.59-6.73-6.42 4.89-23.54 9.48 1.53-.61 6.73 39.13 11.31s11.31 3.36 21.1-2.75c9.78-6.11 27.82-16.82 27.82-16.82s13.13-4.83 16.19-3.6z"/><path d="M643.41 146.18s-20.48-11.92-27.82 0-11.94 17.05-11.94 17.05-.52 13.98 3 22.09c4.91 11.31 6.8 9.94 12.3 13.37l1.23 13.84h-23.24s5.5-8.56 2.14-13.45c-3.36-4.89-10.39-18.65-5.2-26.6s7.95-7.03 5.81-22.93 7.95-18.96 7.95-18.96 20.79-8.56 33.94-3.97c13.15 4.59 13.76 7.95 13.76 7.95s.92 5.81 7.95 8.56c7.03 2.75 7.34 22.62 7.34 22.62l-6.73 17.43s-2.45 9.48 3.36 12.23c5.81 2.75 13.41 7.91 14.56 15.02 1.15 7.11-6.82 17.7-6.82 17.7s-3.15-12.16-22.41-12.24l-1.38 1.53-12.69-4.59-.62-17.84s6.65-4.88 9.93-10.91c3.04-5.6-2.12-20.32-2.12-20.32s-4.82-10.39-2.3-17.58z" style="fill:#2a3338"/><ellipse class="st11" cx="168.08" cy="334.35" rx="23.62" ry="33"/><path class="st11" d="M146.29 355.23v29.58h28.67l-6.88-7.8v-15.45z"/><g><path class="st19" d="M214.85 626.72v26.6h19.49l-2.06-23.16z"/><path class="st13" d="M211.64 644.61v20.64l41.73-1.15s8.71-5.5-3.21-7.8l-12.61-6.19-3.99-5.5h-21.92z"/></g><path d="M102.5 495.79s-19.95 29.81 5.04 50.45H210.5s15.13 5.04 11.01 22.01c-4.13 16.97-11.69 66.27-11.69 66.27l28.66 6.42 14.22-42.42 9.17-45.63s3.9-18.34-4.36-26.37c0 0-19.49-17.89-52.74-21.78l-50.22-4.36-52.05-4.59z" style="fill:#3670b7"/><g><path class="st19" d="m164.87 629.01-1.83 22.47 19.72 1.83s2.52-22.93 1.61-24.31c-.93-1.36-19.5.01-19.5.01z"/><path class="st13" d="M160.59 644.61v18.8l50.68 1.83s-.23-8.71-8.48-10.32c-8.25-1.61-16.85-5.27-16.85-5.27l-1.3-5.04h-24.05z"/></g><path style="fill:#275d93" d="m170.14 553.57-11.92 78.42 29.12 7.11 25.45-80.48z"/><g><path class="st22" d="M192.61 443.05v11.92l213.94-1.14-.91-12.74z"/><path class="st22" d="m265.99 450.85 1.14 244.2h13.3l1.38-244.2zM376.05 450.85l18.8 244.2h11.7l-14.94-244.2z"/><path class="st23" d="m196.26 432.94 220.84-.67v8.72l-220.84 2.06z"/></g><g><path class="st13" d="M268.28 431c-.38 0-.76-.11-1.1-.33a1.998 1.998 0 0 1-.56-2.77l26.6-40.06a1.998 1.998 0 1 1 3.33 2.21l-26.6 40.06c-.39.57-1.02.89-1.67.89z"/></g><path class="st19" d="m225.78 408.84 19.57 8.53h29.96s15.29-1.82 11.31 11.63l.66 3.67-52.44.29-14.72-8.56 5.66-15.56z"/><g><circle class="st15" cx="726.95" cy="51.79" r="50.83"/><circle class="st8" cx="726.95" cy="51.79" r="43.49"/><circle cx="726.95" cy="51.41" r="3.61" style="fill:#a7a9ac"/><circle class="st8" cx="726.95" cy="51.41" r="2.18"/><path class="st15" d="M756.56 52.94h-27.2v-2.7h27.2a1.35 1.35 0 0 1 0 2.7z"/><g><path class="st15" d="M724.78 50.23c-.34 0-.67-.17-.86-.48l-17.74-29.3a.995.995 0 0 1 .34-1.37.995.995 0 0 1 1.37.34l17.74 29.3a.995.995 0 0 1-.85 1.51z"/></g></g><path class="st23" d="M693.86 441.68H799.8v18.34H693.86z"/><path class="st23" d="M699.82 455.43h11.46v179.31h-11.46zM741.1 460.02h11.46v179.31H741.1zM779.62 455.43h11.46v179.31h-11.46z"/><path class="st25" d="M731.01 377.93c-9.4-7.46-16.66-19.26-16.66-19.26s-.76-9.32 6.11-4.89c6.88 4.43 12.38 13.57 12.38 13.57s5.66-11.01 0-19.69c-3.95-6.06-10.12-15.37-12.71-21.59-1.57-3.78-1.37-8.15.84-11.6 1.7-2.66 3.98-4.03 6.33 1.09 5.69 12.42 1.72 11.16 5.09 22.19 2.89 9.49 8.71 18.59 8.71 18.59s-1.07-8.83 0-11.98c3.22-9.46 7.8-23.3 5.73-29.26-2.06-5.96-6.44-20.64-1.27-17.89s13.88 16.05 11.13 28.89-9.86 30.74-9.86 30.74 6.32 10.54 10.38 2.74c4.06-7.8 6.81-17.89 10.48-15.59 3.67 2.29 3.21 15.59-7.34 26.6-10.55 11.01-15.59 17.89-13.53 30.27 2.06 12.38-5.73 8.25-5.73 8.25s5.51-18.8-10.08-31.18z"/><path class="st17" d="M652.59 215.89s-15.29 35.16-11.92 51.67c0 0 1.62 31.18 8.61 42.8 6.99 11.62 2.09 14.06 3.32 22.62 1.22 8.56 9.94 20.79 9.94 20.79l-.76-77.96 16.51 31.49s8.87 11.31 18.04 5.2 14.98-22.93 14.98-22.93l3.06-.31v-7.64l-23.54-3.97-6.11-23.24-8.87-23.54c-.03 0-2.17-14.98-23.26-14.98z"/><path class="st13" d="M184.36 296.53s18.11 9.63 7.34 29.81c0 0-1.61 8.48-7.34 7.11s-6.65 12.61-6.65 12.61-13.53 22.47-34.39 13.3c0 0-17.43-8.25-17.43-34.39s22.24-27.29 22.24-27.29 20.41-6.65 36.23-1.15z"/><ellipse transform="rotate(-7.82 180.305 336.452)" class="st19" cx="180.43" cy="336.53" rx="5.98" ry="8.35"/><path d="m147.44 370.02 20.64 4.01 12.35 8.94 28.46 11.01 23.39 11.69-7.34 27.29-28.2-7.11s-4.36 70.85-10.32 79.57c-5.96 8.71-.23 1.15-.23 1.15l-86.45-6.42s.34-1.76.92-4.78c3.48-18.23 15.63-82.51 14.45-86.25-1.38-4.36-1.61-35.77 5.04-44.94 6.65-9.17 11.88-15.8 11.88-15.8l15.41 21.64z" style="fill:#ef505d"/><path class="st27" d="m144.46 367.35-30.11 27.99s-2.01-19.57 4.48-28.87 13.2-18.09 13.2-18.09l12.43 18.97zM180.43 384.81s-19.81 23.97-1.79 33.17l18.1 7.87 28.2 7.11 7.34-27.29c0 .01-39.73-22.54-51.85-20.86z"/><g><path class="st25" d="M220.13 556.1H86.22v-11.46h125.66c4.56 0 8.25 3.7 8.25 8.25v3.21z"/><path class="st22" d="M75.9 554.95h146.09v11.58H75.9z"/><path class="st22" d="M88.97 563.66 81.4 693.9h13.33l11.66-130.24zM138.73 563.66l2.06 131.39h14.22l8.02-132.3zM189.86 562.75l11.24 132.3 12.61-1.15-8.03-131.15z"/><path class="st23" d="m51.59 407.51 7.11 57.1h88.51l-7.34-57.1z"/><path class="st23" d="m129.78 460.25 12.84 97.45h10.32l-13.3-97.45zM68.56 460.25l12.15 97.45h10.78L77.5 460.25z"/></g><path d="M731.46 400.86h24.76l5.96 25.68s5.96 15.13-3.21 15.13h-31.69s-2.79-5.5 0-12.38l4.18-28.43z" style="fill:#514a55"/></svg>