<svg version="1.1" id="Layer_1" xmlns="http://www.w3.org/2000/svg" xmlns:xlink="http://www.w3.org/1999/xlink" x="0" y="0" viewBox="0 0 1000 744.3" style="enable-background:new 0 0 1000 744.3" xml:space="preserve"><style>.st6{fill:#a660ea}.st8{opacity:.41;fill:#fff}.st9{fill:#676868}.st10{fill:#fff}.st11{fill:#808285}.st13{fill:#ff867d}.st14{fill:#d58061}.st15{fill:#273238}.st17{fill:#8a22e1}.st19{fill:#fca819}.st21{fill:#ff867d;stroke:#d58061;stroke-miterlimit:10}.st24{fill:#965038}.st25{fill:#c46f4d}.st27{fill:#4cc0a7}.st29{fill:#c13647}</style><path d="M603.4 6.4c-128.1 0-240.5 67-304.1 167.9-146.3 9.6-262 131.4-262 280.1 0 155.1 125.7 280.8 280.8 280.8 52.4 0 101.4-14.4 143.3-39.3 43.6 18.8 91.6 29.2 142.1 29.2 198.5 0 359.4-160.9 359.4-359.4S801.9 6.4 603.4 6.4z" style="fill:#cfb5f6"/><defs><path id="SVGID_1_" d="M601 30.1c-121.6 0-228.4 63.6-288.8 159.4-138.9 9.2-248.8 124.7-248.8 266 0 147.2 119.4 266.6 266.6 266.6 49.7 0 96.2-13.6 136.1-37.3 41.4 17.8 87 27.7 134.9 27.7 188.4 0 341.2-152.8 341.2-341.2S789.5 30.1 601 30.1z"/></defs><clipPath id="SVGID_2_"><use xlink:href="#SVGID_1_" style="overflow:visible"/></clipPath><g style="clip-path:url(#SVGID_2_)"><path style="fill:#e2d5fa" d="M69.1 21.5h877.2v702H69.1z"/><path style="fill:#5295d8" d="m805.4 224.3-9.4 38.8-27 7.4-.9-.2-29-5.2 11.1-42 29 8.7.3-.1z"/><path style="fill:#447ead" d="m805.4 224.3-9.4 38.8-27 7.4-.9-.2 11.4-38.6z"/><g style="opacity:.88"><path class="st6" d="M124.6 119.7H256v227.4H124.6z"/><path style="opacity:.36;fill:#fff" d="M131.4 131.6h117.8v203.8H131.4z"/><path class="st6" d="M131.4 271.6h117.8v11.1H131.4z"/><path class="st8" d="m131.4 243.3 83.5-111.7h34.2v33.7L131.4 271.6zM175.3 271.6l74.4-68.7v34l-42 34.7z"/></g><path class="st9" d="M316.3 83.9h410.9v332.8H316.3z"/><path class="st10" d="M330 95h383.5v310.6H330z"/><path class="st11" d="M400.2 256.7h107.6v.9H400.2zM403 278.5h100.7v.9H403zM403 303.6h100.7v.9H403zM583 321.8c-20.4 0-37-16.6-37-37s16.6-37 37-37 37 16.6 37 37-16.6 37-37 37zm0-73c-19.9 0-36.1 16.2-36.1 36.1S563.1 321 583 321c19.9 0 36.1-16.2 36.1-36.1s-16.2-36.1-36.1-36.1z"/><path style="fill:#6d6e71" d="M619.5 285.3h-37v-37h1v36.1h36z"/><path class="st11" d="M509.3 210.1h-136v-90.4l136 90.4zm-135.1-.9h132.1l-132.1-87.7v87.7zM572.8 142.3h80.5v.9h-80.5zM572.8 162h79.4v.9h-79.4zM572.8 182.4h79.4v.9h-79.4zM368.9 367.1h58.4v.9h-58.4zM368.9 384.9h62.5v.9h-62.5zM368.9 349.4h62.5v.9h-62.5zM459.5 367.1h58.4v.9h-58.4zM459.5 384.9H522v.9h-62.5zM459.5 349.4H522v.9h-62.5zM551.7 367.1h58.4v.9h-58.4zM551.7 384.9h62.5v.9h-62.5zM551.7 349.4h62.5v.9h-62.5z"/><path class="st9" d="M382.3 409.7h17.9v209.5h-17.9z"/><path class="st9" d="M414.3 625.1h-47.9V623c0-4.1 3.3-7.3 7.3-7.3h33.2c4.1 0 7.3 3.3 7.3 7.3v2.1zM643.2 406.7h17.9v209.5h-17.9z"/><path class="st9" d="M675.2 622.1h-47.9V620c0-4.1 3.3-7.3 7.3-7.3h33.2c4.1 0 7.3 3.3 7.3 7.3v2.1z"/><path class="st13" d="m252.5 321.4 1.4-24.5-.7-14.5s5.9-6 10.1-2.8c0 0 3.1-3.5 6-.9 0 0 2.6 12 0 16.5s-5.7 8.8-5.7 8.8l2.4 15.6-13.5 1.8z"/><path class="st14" d="m625.7 554.6-23 90.4-19.7 29.4 12.2 2.3 17.1-18.5s2-5.1.9-9.7l12.5-21.6 16.5-38.7 9.1-25.9-25.6-7.7z"/><path class="st15" d="M583 669.3s2.6 4.3 10.2 4l13.4-14.5s3.4-7.1 6.3-2.4c2.8 4.7-2.8 25.5-2.8 25.5h-3.7l3.1-11.7s-3.1-2.6-4.3.6-5.4 9.4-5.4 9.4-11.9 3.1-18.2-1.7 1.4-9.2 1.4-9.2z"/><path class="st14" d="m689.7 561.8-5.4 87.3s-10.5 28.2-13.7 27.6 4 5.7 9.5 2.6 16.9-20.8 16.9-20.8v-10.2l10-40.4 8-41.5-25.3-4.6z"/><path class="st15" d="M669.8 674.1s-9.5 3.4-2.9 7.7 18.8 1.7 18.8 1.7l6.7-11.7s2.9-4.6 2.7 0-2.7 10-2.7 10h4.6v-17.6s4-8.5-1.1-8-14.4 16.5-14.4 16.5-6.2 6.2-11.7 1.4z"/><ellipse transform="rotate(-73.584 695.808 192.398)" class="st14" cx="695.8" cy="192.4" rx="29.8" ry="23"/><ellipse transform="rotate(-62.484 715.56 198.765)" cx="715.6" cy="198.8" rx="9" ry="6.9" style="opacity:.69;fill:#cc7b5e"/><path class="st14" d="m687.4 217.9 1.1 15.9h-24.4l1.1 20.2 32.7 13.1 17.7-10.8 9.3-8v-8.8l-5.7-.3-13.6-5.1-.9-24.5z"/><path class="st17" d="m656.4 334.8-40.1 227.8s77.6 11.9 124.3 6.5V450s-10.8-101.8-17.1-106.1c-6.3-4.3-67.1-9.1-67.1-9.1z"/><path d="M672.2 233.8c-.4 4.5.8 9.1 3.4 12.8 2.8 4 7.3 8.2 14.1 9 18.2 2.1 25.1-13.2 25.9-17.8l10.5 2.9-2.6 103.1-70.3-5.1 7.1-105h11.9v.1z" style="fill:#fffffa"/><path class="st14" d="m757.9 297.2 8.7-16.2v-19.2s.6-5.8 7-4.5 14.1-.2 14.1-.2 2.1 8.3-3.6 14.5-6 9-6 9L773 300l-15.1-2.8z"/><g><path d="M536.1 243.3c-.5 0-1-.2-1.3-.6l-35.6-36.6c-.7-.7-.7-1.9 0-2.6.7-.7 1.9-.7 2.6 0l35.6 36.6c.7.7.7 1.9 0 2.6-.4.4-.9.6-1.3.6z"/><path class="st14" d="m563.4 243.1-18.3-7-16.6-11.5s-6.6-1.1-4.3 1.3 6.6 6.7 6.6 6.7.2 5.4-3.4 2.6-7.3-8.7-7.3-8.7v17.7s1.5 2.8 5.5 2.1 16.1.1 16.1.1l18.5 12.3 3.2-15.6z"/></g><path class="st19" d="M664.1 233.6s7.1 36-3.7 57.1l-4.3 34.7h-6.5l-1.4-55.2s-4.6-3.1-9.1 2.3-31 7.1-38.4 4.6-36.4-16.5-36.4-16.5l-3.7 4.3-6.3-6 4.6-21.9 8.8 1.4-.6 6.3 36.4 10.5s10.5 3.1 19.6-2.6c9.1-5.7 25.9-15.6 25.9-15.6s12.2-4.5 15.1-3.4z"/><path d="M710.1 172.1s-19.1-11.1-25.9 0-11.1 15.9-11.1 15.9-.5 13 2.8 20.5c4.6 10.5 6.3 9.2 11.4 12.4l1.1 12.9h-21.6s5.1-8 2-12.5-9.7-17.3-4.8-24.7c4.8-7.4 7.4-6.5 5.4-21.3s7.4-17.6 7.4-17.6 19.3-8 31.6-3.7 12.8 7.4 12.8 7.4.9 5.4 7.4 8 6.8 21 6.8 21l-6.3 16.2s-2.3 8.8 3.1 11.4 12.5 7.4 13.5 14-6.3 16.5-6.3 16.5-2.9-11.3-20.9-11.4l-1.3 1.4-11.8-4.3-.6-16.6s6.2-4.5 9.2-10.2c2.8-5.2-2-18.9-2-18.9s-4.2-9.7-1.9-16.4z" style="fill:#2a3338"/><ellipse class="st13" cx="267.9" cy="347.1" rx="22" ry="30.7"/><path class="st13" d="M247.7 366.6v27.5h26.6l-6.4-7.3v-14.3z"/><g><path class="st21" d="M311.4 619.1v24.8h18.2l-2-21.6z"/><path class="st15" d="M308.5 635.8V655l38.8-1.1s8.1-5.1-3-7.3l-11.7-5.8-3.7-5.1h-20.4z"/></g><path d="M206.9 497.3s-18.6 27.7 4.7 46.9h95.8s14.1 4.7 10.2 20.5-10.9 61.6-10.9 61.6l26.7 6 13.2-39.5 8.5-42.5s3.6-17.1-4.1-24.5c0 0-18.1-16.6-49.1-20.3l-46.7-4.1-48.3-4.1z" style="fill:#3670b7"/><g><path class="st21" d="m264.9 621.3-1.7 20.9 18.3 1.7s2.3-21.3 1.5-22.6-18.1 0-18.1 0z"/><path class="st15" d="M261 635.8v17.5l47.1 1.7s-.2-8.1-7.9-9.6-15.7-4.9-15.7-4.9l-1.2-4.7H261z"/></g><path style="fill:#275d93" d="M269.8 551.1 258.7 624l27.1 6.7 23.7-74.9z"/><g><path class="st24" d="M290.7 448.3v11.1l199.1-1.1-.9-11.9z"/><path class="st24" d="m359 455.5 1.1 227.2h12.3l1.3-227.2zM461.4 455.5l17.5 227.2h10.9l-13.9-227.2z"/><path class="st25" d="m294.1 438.9 205.5-.7v8.1l-205.5 2z"/></g><g><path class="st15" d="M361.1 437.1c-.4 0-.7-.1-1-.3-.9-.6-1.1-1.7-.5-2.6l24.7-37.3c.6-.9 1.7-1.1 2.6-.5.9.6 1.1 1.7.5 2.6l-24.7 37.3c-.4.5-1 .8-1.6.8z"/></g><path class="st21" d="m321.6 416.4 18.2 7.9h27.9s14.2-1.7 10.5 10.8l.6 3.4-48.8.3-13.7-8 5.3-14.4z"/><g><circle class="st17" cx="787.8" cy="84.3" r="47.3"/><circle class="st10" cx="787.8" cy="84.3" r="40.5"/><circle cx="787.8" cy="83.9" r="3.4" style="fill:#a7a9ac"/><circle class="st10" cx="787.8" cy="83.9" r="2"/><path class="st17" d="M815.7 85.3h-25.6v-2.5h25.6c.5 0 1 .4 1 1v.6c-.1.5-.5.9-1 .9z"/><g><path class="st17" d="M785.8 82.8c-.3 0-.6-.2-.8-.4l-16.5-27.3c-.3-.4-.1-1 .3-1.3.4-.3 1-.1 1.3.3l16.5 27.3c.3.4.1 1-.3 1.3-.1.1-.3.1-.5.1z"/></g></g><path class="st25" d="M757.1 447h98.6v17.1h-98.6z"/><path class="st25" d="M762.6 459.8h10.7v166.8h-10.7zM801 464.1h10.7v166.8H801zM836.8 459.8h10.7v166.8h-10.7z"/><path class="st27" d="M791.6 387.7c-8.7-6.9-15.5-17.9-15.5-17.9s-.7-8.7 5.7-4.6 11.5 12.6 11.5 12.6 5.3-10.2 0-18.3c-3.7-5.6-9.4-14.3-11.8-20.1-1.5-3.5-1.3-7.6.8-10.8 1.6-2.5 3.7-3.8 5.9 1 5.3 11.6 1.6 10.4 4.7 20.6 2.7 8.8 8.1 17.3 8.1 17.3s-1-8.2 0-11.1c3-8.8 7.3-21.7 5.3-27.2s-6-19.2-1.2-16.6c4.8 2.6 12.9 14.9 10.4 26.9-2.6 11.9-9.2 28.6-9.2 28.6s5.9 9.8 9.7 2.6c3.8-7.3 6.3-16.6 9.8-14.5s3 14.5-6.8 24.7-14.5 16.6-12.6 28.2-5.3 7.7-5.3 7.7 5-17.6-9.5-29.1z"/><path class="st19" d="M718.7 236.9s-14.2 32.7-11.1 48.1c0 0 1.5 29 8 39.8 6.5 10.8 1.9 13.1 3.1 21 1.1 8 9.2 19.3 9.2 19.3l-.7-72.5 15.4 29.3s8.2 10.5 16.8 4.8 13.9-21.3 13.9-21.3l2.8-.3V298l-21.9-3.7-5.7-21.6-8.2-21.9c0 .1-2-13.9-21.6-13.9z"/><path class="st15" d="M283.1 312s16.9 9 6.8 27.7c0 0-1.5 7.9-6.8 6.6s-6.2 11.7-6.2 11.7-12.6 20.9-32 12.4c0 0-16.2-7.7-16.2-32s20.7-25.4 20.7-25.4 18.9-6.2 33.7-1z"/><ellipse transform="rotate(-7.82 279.251 349.107)" class="st21" cx="279.4" cy="349.2" rx="5.6" ry="7.8"/><path d="m248.7 380.3 19.2 3.7 11.5 8.3 26.5 10.2 21.8 10.9-6.8 25.4-26.2-6.6s-4.1 65.9-9.6 74c-5.5 8.1-.2 1.1-.2 1.1l-80.4-6s.3-1.6.9-4.4c3.2-17 14.5-76.8 13.4-80.2-1.3-4.1-1.5-33.3 4.7-41.8s11.1-14.7 11.1-14.7l14.1 20.1z" style="fill:#ef505d"/><path class="st29" d="m245.9 377.8-28 26s-1.9-18.2 4.2-26.9c6-8.7 12.3-16.8 12.3-16.8l11.5 17.7zM279.4 394.1s-18.4 22.3-1.7 30.9l16.8 7.3 26.2 6.6 6.8-25.4c.1 0-36.8-21-48.1-19.4z"/><g><path class="st27" d="M316.3 553.4H191.8v-10.7h116.3c4.6 0 8.3 3.7 8.3 8.3v2.4z"/><path class="st24" d="M182.2 552.4h135.9v10.8H182.2z"/><path class="st24" d="m194.3 560.5-7 121.1h12.4l10.8-121.1zM240.6 560.5l1.9 122.2h13.3l7.4-123.1zM288.2 559.6l10.4 123.1 11.8-1.1-7.5-122z"/><path class="st25" d="m159.6 415.2 6.6 53.1h82.3l-6.8-53.1z"/><path class="st25" d="m232.3 464.3 11.9 90.6h9.6l-12.3-90.6zM175.3 464.3l11.3 90.6h10.1l-13-90.6z"/></g><path d="M792 409h23.1l5.5 23.9s5.5 14.1-3 14.1h-29.5s-2.6-5.1 0-11.5L792 409z" style="fill:#514a55"/></g></svg>