<svg version="1.1" id="Layer_1" xmlns="http://www.w3.org/2000/svg" x="0" y="0" viewBox="0 0 1000 837" style="enable-background:new 0 0 1000 837" xml:space="preserve"><style>.st5{opacity:.13;fill:#252531}.st6{fill:#f1f2f2}.st7{fill:#fff}.st8{fill:#ffc1a4}.st10{fill:#252531}.st11{fill:#414042}.st12{fill:#e6e7e8}.st13{fill:#212838}.st17,.st20{fill:#231f20}.st20{opacity:.54}</style><path d="M354.9 571.3c-58.5-11.9-113.4-37.7-159.5-75.7-71.2-58.7-151.3-158.5-98.7-286C167.2 39.4 265.6-29.6 370.1 20.3s167.1 76.1 255.1 57.5 264.3 34 205.6 171.9c0 0 201.9 58.3 101 177.6C838.2 538 654 631.9 354.9 571.3z" style="fill:#e4d4f6"/><path d="M359.5 602.5C301 590.6 246.1 564.8 200 526.8c-71.2-58.7-151.3-158.5-98.7-286C171.8 70.6 270.2 1.6 374.7 51.5s167.1 76.1 255.1 57.5 264.3 34 205.6 171.9c0 0 201.9 58.3 101 177.6-93.6 110.7-277.8 204.6-576.9 144z" style="fill:#cfb5f6"/><path d="M872.2 703.3c0 .4-9.5.5-9.5.9s11.8 1.2 11.8 1.6c0 .4 8.9 1.6 8.9 2 0 .4 1.7 1.3 1.6 1.7 0 .4-21.5-2-21.6-1.6-.1.4 11.1 2.5 11.1 2.9-.1.4-.8.7-.9 1.1-.1.4 5.4 2.1 5.3 2.5-.1.4-6.1-.6-6.2-.2-.1.4-4.1-.4-4.2 0-.1.4 12.8 4.8 12.7 5.2-.1.4-.9.8-1 1.2-.1.4-8.9-2.3-9-1.9-.1.4 6.1 3.4 6 3.7-.2.4-7.5-2.2-7.6-1.8-.2.4 7.6 4.4 7.4 4.8-.2.4 3.1 2.6 2.9 3-.2.4-4.3-1.1-4.5-.7-.2.4 3.6 3.1 3.4 3.4-.2.4-8.8-3.8-9-3.5-.2.3 1.7 2 1.5 2.4-.2.3-.1 1-.4 1.3-.2.3-1.7 0-1.9.3-.2.3-1.2.2-1.5.5-.2.3-6-3.2-6.2-2.9-.2.3-4.1-2.1-4.4-1.8-.2.3-4.5-2.6-4.8-2.3-.2.3 1.4 1.8 1.1 2.2-.2.3 7.9 7.3 7.7 7.6-.3.3 4.8 5.1 4.6 5.4-.3.3-2.3-.8-2.5-.5-.3.3-2.7-1.3-3-1-.3.3 5.1 5.8 4.8 6.1-.3.3-15.4-13.2-15.6-12.9-.3.3 1.5 2.4 1.2 2.6-.3.3-3-2-3.3-1.7-.3.3 16.9 18.2 16.6 18.5-.3.3-8.8-7.8-9-7.5-.3.3-2.7-1.7-3-1.4-.3.3-4.1-3.3-4.4-3.1-.3.3-2.5-1.8-2.8-1.5-.3.3 13.7 16.7 13.4 17-.3.3-5.1-4.5-5.4-4.3-.3.3-2.6-1.8-2.9-1.6-.3.3 1.2 2.8.9 3-.3.3-6.4-6.6-6.7-6.3-.3.3-4.9-5-5.2-4.7-.3.2 11.3 15.6 10.9 15.9-.3.2 0 1.4-.3 1.7-.3.2-8.6-10.1-9-9.8-.3.2 1.6 3.4 1.2 3.6-.3.2 1.6 3.6 1.3 3.9-.3.2 1.1 2.9.7 3.2-.3.2-9.3-11.8-9.6-11.6-.3.2 2.9 5.5 2.6 5.7-.3.2 5.9 10.1 5.5 10.3-.3.2-11.4-15.5-11.7-15.3-.3.2 10.7 17.7 10.4 17.9-.3.2-1.3-.4-1.6-.2-.3.2-11.9-17.1-12.3-16.9-.3.2 2.7 5.7 2.4 5.9-.3.2 1.3 3.6 1 3.8-.3.2 6.3 11.8 5.9 12-.3.2-13.3-20.3-13.6-20.1-.3.2 1.3 3.7 1 3.9-.3.2-2.4-2.6-2.7-2.4-.3.2 12.5 23.2 12.2 23.4-.3.2-6.7-9.9-7-9.7-.3.2 4.7 10.1 4.4 10.3-.3.2-9.5-15.2-9.8-15-.3.2 4.2 9.3 3.9 9.5-.4.2-1.2-.4-1.5-.2-.4.2-5.3-8.1-5.6-7.9-.4.2.5 2.6.1 2.8-.4.2 5.5 12.3 5.2 12.5-.4.2-7.4-12.5-7.7-12.3-.4.2-1.4-1.1-1.8-.9-.4.2 3.3 8.3 3 8.5-.4.2.1 2.1-.3 2.2-.4.2.8 3.5.4 3.6-.4.2-7.5-13.6-7.9-13.4-.4.2 6.7 15.8 6.4 16-.4.2-9.3-17.7-9.7-17.5-.4.2 5.6 13.7 5.2 13.9-.4.2-1.8-2-2.2-1.8-.4.2-2.4-3.2-2.7-3-.4.2 2.5 7.4 2.1 7.6-.4.2-3.5-5.7-3.8-5.5-.4.2 4.7 12.5 4.3 12.7-.4.2-1.5-1.3-1.9-1.1-.4.2-9.4-19.5-9.8-19.3-.4.2 8 20.5 7.6 20.6-.4.2-2.9-4.7-3.3-4.6-.4.2-5.8-11.6-6.2-11.4-.4.2-2.5-4.1-2.9-3.9-.4.2 1.6 5.9 1.2 6-.4.2 5.9 16.4 5.5 16.5-.4.2-6.4-13.4-6.7-13.3-.4.2-3.8-7.4-4.2-7.2-.4.1-1.4-1.4-1.8-1.3-.4.1 9.1 25.1 8.7 25.3-.4.1-1.9-2.6-2.3-2.4-.4.1-1.3-1.1-1.7-1-.4.1-4.5-9.3-4.8-9.1-.4.1-3-5.6-3.4-5.5-.4.1 5.3 16.4 4.9 16.5-.4.1-4.7-10.1-5-10-.4.1-3.2-6.4-3.6-6.3-.4.1 1.1 5.4.8 5.5-.4.1 1.9 7.5 1.5 7.6-.4.1-2.4-4.4-2.8-4.2-.4.1 2.5 9.5 2.1 9.6-.4.1-6.3-15.3-6.6-15.2-.4.1 1.8 7.7 1.5 7.8-.4.1-3-6.1-3.3-6-.4.1-.8.2-1.1.4-.4.1 2.3 9.2 1.9 9.3-.4.1 1.7 7.5 1.3 7.6-.4.1-1.9-3-2.3-2.8-.4.1-5.5-14.2-5.9-14-.4.1 4.3 15.8 3.9 15.9-.4.1.7 4.7.3 4.8-.4.1-2.3-4.4-2.7-4.3-.4.1-.8.1-1.2.2-.4.1-2.4-5-2.8-4.8-.4.1-4.7-12.2-5.1-12.1-.4.1 2.4 10.4 2 10.5-.4.1 1.2 6.6.8 6.7-.4.1-5.6-15.7-6-15.5-.4.1 1.3 7.1.9 7.2-.4.1-3.1-7.4-3.4-7.3-.4.1 3.8 15.4 3.4 15.6-.4.1-.5 1.2-.9 1.3-.4.1.6 4.9.2 5-.4.1-3.9-10.6-4.3-10.5-.4.1-3.2-8.3-3.6-8.2-.4.1 1.6 8.6 1.3 8.8-.4.1-1.3-1.5-1.7-1.4-.4.1 3.4 15 3 15.1-.4.1-4.6-13.3-4.9-13.2-.4.1.8 5.9.4 6-.4.1-4.3-12.6-4.7-12.5-.4.1 3.5 16.1 3.1 16.2-.4.1-1.4-2-1.8-1.9-.4.1-5.6-17.9-6-17.8-.4.1 4 18.2 3.6 18.3-.4.1-.9-.2-1.3-.1s-3.4-9.7-3.8-9.6c-.4.1 3.3 16.2 2.9 16.3-.4.1-3.3-9.5-3.7-9.4-.4.1.4 5 0 5.1-.4.1-2.2-5.3-2.6-5.2-.4.1 1.9 11 1.5 11.1-.4.1-.9-.4-1.3-.3-.4.1-5.6-19.6-6-19.5-.4.1.7 6.2.3 6.3-.4.1 1 7.8.7 7.9-.4.1-.5 1.4-.9 1.5-.4.1-2-4.9-2.4-4.8-.4.1.7 6.5.3 6.6-.4.1-3-9.5-3.4-9.4-.4.1.7 6.6.3 6.7-.4.1-3.2-10.6-3.6-10.5-.4.1-1.1-1.2-1.5-1.1-.4.1 2.8 16.2 2.4 16.3-.4.1-.1 3.3-.5 3.4-.4.1-2.9-9.3-3.3-9.2-.4.1-1.7-4-2.1-4-.4.1-2.6-8.4-3-8.3-.4.1 2.8 16.7 2.4 16.8-.4.1-.8.4-1.1.5-.4.1-3.8-14.3-4.2-14.2-.4.1 3.5 20.5 3.1 20.6-.4.1-1-.5-1.3-.4-.4.1-5.2-21.1-5.6-21-.4.1.9 8.5.5 8.6-.4.1-.8.3-1.1.4-.4.1-2.4-7.8-2.8-7.7-.4.1 3.7 22.6 3.3 22.7-.4.1-4.2-17.3-4.6-17.2-.4.1.5 6.6.1 6.7-.4.1-1.7-4.3-2.1-4.2-.4.1-2.6-9.3-3-9.3-.4.1-1.1-1.6-1.5-1.5-.4.1-.5 1.5-.9 1.5-.4.1 3.5 23.2 3.1 23.3-.4.1-3.2-12.6-3.6-12.5-.4.1-2.9-11.3-3.3-11.2-.4.1 2.4 17.8 2 17.9-.4.1-1.5-3.8-1.9-3.8-.4.1.5 7.6.1 7.7-.4.1-.4 2.4-.8 2.4-.4.1-1.9-5.9-2.3-5.8-.4.1.8 9.5.4 9.6-.4.1-3.6-16.4-4-16.3-.4.1 1.5 13.7 1.1 13.7-.4.1-1.6-4.6-2-4.6-.4.1-3.2-14.4-3.6-14.3-.4.1 2.9 22.7 2.5 22.8-.4.1-2.1-7.5-2.5-7.4-.4.1-2-7-2.4-6.9-.4.1-1-1.1-1.4-1-.4.1-.2 3.9-.6 4-.4.1.4 7.6 0 7.7-.4.1-1.4-3.5-1.8-3.4-.4.1-3.7-18.6-4.1-18.6-.4.1-.4 2.9-.8 3-.4.1 2.7 23 2.3 23.1-.4.1-2.6-11.9-3-11.9-.4.1.5 8.8.1 8.9-.4.1-3.2-15.9-3.6-15.8-.4.1-.7.6-1.1.7-.4.1.2 7.1-.2 7.1-.4.1-2.6-12.5-3-12.4-.4.1.1 6.6-.3 6.7-.4.1-1.1-1.9-1.5-1.8-.4.1-.6 1.4-1 1.5-.4.1-.7.7-1.1.8-.4.1-1.1-2.3-1.5-2.2-.4.1-.2 4.4-.6 4.5-.4.1-2-8.9-2.4-8.9-.4.1 1.7 18.8 1.3 18.9-.4.1-.1 5.9-.5 5.9-.4.1-2.4-12.4-2.8-12.4-.4.1-2-9.4-2.4-9.3-.4.1.4 10 0 10s-2.5-13.5-2.9-13.5c-.4 0 .6 11.6.2 11.7-.4 0 .7 12.5.3 12.5-.4 0-1-1.8-1.4-1.8-.4 0-.4 3.3-.8 3.4-.4 0-1.4-5.3-1.8-5.2-.4 0-1.9-9.4-2.3-9.4-.4 0 .1 8.2-.3 8.2s-2.7-16.4-3.1-16.3c-.4 0 .2 9.4-.2 9.4s-.4 3.5-.8 3.5-.1 6.4-.5 6.5c-.4 0-1.3-4.8-1.7-4.8-.4 0-1.8-9.4-2.2-9.4-.4 0 .9 16.3.5 16.3s-.3 4.6-.7 4.7c-.4 0-2.4-15.2-2.8-15.2-.4 0-.1 7.3-.5 7.4-.4 0-.9-1.2-1.3-1.2s-2.6-17.8-3-17.7c-.4 0-.4 4.2-.8 4.2s1.1 19.7.7 19.7c-.4 0-2.8-20.6-3.2-20.6-.4 0 1.2 21.7.8 21.7-.4 0-.6 2.3-1 2.3s-1.3-5.5-1.7-5.5c-.4 0-1.8-11.5-2.2-11.4-.4 0-.8.5-1.2.5-.4 0 .4 13.8 0 13.8s-2.5-19.8-2.9-19.8c-.4 0 .4 14.6 0 14.7-.4 0-1-1.7-1.4-1.7-.4 0-1.5-8.2-1.9-8.2-.4 0-1.1-4.3-1.5-4.2-.4 0 .1 12-.3 12s-.8-.4-1.3-.4c-.4 0-.7 1.2-1.1 1.2-.4 0-2-15.4-2.4-15.4-.4 0-.8.2-1.2.2-.4 0 .7 20.1.3 20.2-.4 0-1.4-7.8-1.8-7.7-.4 0-.8.4-1.2.4-.4 0-.1 9.6-.6 9.6-.4 0-.5 4.1-.9 4.1s-1.8-15.1-2.2-15.1c-.4 0-.9-2-1.3-2s-1-2.3-1.4-2.2c-.4 0-1-3.6-1.4-3.6-.4 0-1.1-4.2-1.5-4.2-.4 0 .3 18.5-.1 18.5s-.7 1.7-1.1 1.7c-.4 0-1.2-7-1.6-7-.4 0-.7 1.1-1.1 1.2-.4 0-.8.7-1.2.8-.4 0-.9-1-1.3-.9-.4 0-.6 3.4-1 3.4s-.7 2.6-1.1 2.6c-.4 0-1.8-19.2-2.2-19.2-.4 0 .5 26.2.1 26.3-.4 0-1.7-18.8-2.1-18.8-.4 0-.4 9.6-.8 9.6s-1-5.1-1.5-5.1c-.4 0-.9-2-1.3-2s-1.3-10.3-1.7-10.2c-.4 0-.6 3.8-1 3.8s.1 22.9-.3 22.9-1.8-23.6-2.2-23.6c-.4 0-.8.9-1.2.9-.4 0-.4 11.5-.8 11.5s-.9-3.1-1.3-3c-.4 0-1.1-8.2-1.5-8.2-.4 0-.6 6.6-1 6.6s-.5 8.6-.9 8.6-1.2-13.2-1.6-13.2c-.4 0-.1 21.6-.5 21.6s-1.3-15.7-1.7-15.7c-.4 0-.5 12.3-.9 12.3s-1.2-12.7-1.6-12.6c-.4 0-.9-3-1.3-3s-.9-2.4-1.3-2.4-.8-1.6-1.2-1.6c-.4 0-.4 18.1-.8 18.1s-1-10.1-1.4-10.1c-.4 0-.8 1-1.2 1-.4 0-.9-2.3-1.3-2.3s-.5 17-.9 17-.9-6.7-1.3-6.7-.8.9-1.2.9c-.4 0-1.1-17.5-1.5-17.5-.4 0-.7 10.5-1.1 10.5-.4 0-1-11.7-1.4-11.7-.4 0-.8-1.8-1.2-1.8-.4 0-.7 10.3-1.1 10.3-.4 0-.7 14.5-1.1 14.5-.4 0-.9-3.5-1.3-3.5s-.8-3.9-1.3-3.9c-.4 0-.8 9.2-1.2 9.2-.4 0-.9-24.3-1.3-24.3s-.8 12.9-1.2 12.9c-.4 0-.8 10-1.2 10-.4 0-.8-17.1-1.3-17.1-.4 0-.8 6.6-1.2 6.6-.4 0-.8 2.9-1.2 2.9-.4 0-.8-7.4-1.2-7.4-.4 0-.8-6.7-1.2-6.7-.4 0-.8-.4-1.2-.4-.4 0-.8-.1-1.2-.1-.4 0-.9 11-1.3 11s-.7-13.9-1.1-13.9c-.4 0-.9 10.6-1.3 10.6s-.9 4.4-1.3 4.4-.7-10.2-1.1-10.2c-.4 0-1 12.9-1.4 12.9-.4 0-.6-13.6-1-13.6s-.9 4.7-1.3 4.7-1 12.2-1.4 12.2c-.4 0-.9 5-1.3 5s-.8-1.4-1.2-1.4c-.4 0-.6-9.5-1-9.5s-1 9.2-1.4 9.2c-.4 0-.7-6.6-1.1-6.6-.4 0-.5-15.1-.9-15.1s-.7-3-1.1-3c-.4 0-.8-.2-1.2-.2-.4 0-1.2 15.4-1.6 15.4-.4 0-.5-10.4-.9-10.4s-1.4 20.2-1.8 20.2c-.4 0-.7-2.8-1.1-2.8-.4 0-.1-23.5-.5-23.6-.4 0-1.4 17.8-1.8 17.8-.4 0-.3-16.5-.7-16.6-.4 0-.9 2.5-1.3 2.5s-1.4 17.2-1.8 17.2c-.4 0-.3-15.4-.7-15.4-.4 0-.7-4-1.1-4-.4 0-.8-.4-1.2-.4-.4 0-.9 3.3-1.3 3.3s-1.2 9.6-1.6 9.6c-.4 0-.9 1.1-1.3 1.1s-.9 2.1-1.3 2.1-.7-3.4-1.1-3.4c-.4 0-.9 2.4-1.3 2.4s-.5-7.5-.9-7.5-1.2 8-1.6 7.9c-.4 0-.1-15.2-.5-15.2s-1.5 14.2-1.9 14.2c-.4 0 0-15.6-.4-15.6s-.8.5-1.2.5c-.4 0-1.7 16.2-2.1 16.1-.4 0 0-13.8-.5-13.8-.4 0-.9 1.4-1.3 1.4s-1.9 19.4-2.3 19.4c-.4 0 .1-16.3-.3-16.3s-.9.9-1.3.9-1.7 14.7-2.1 14.7c-.4 0 0-12.5-.4-12.6-.4 0-1.2 6.6-1.6 6.6-.4 0-1.4 9.3-1.8 9.3-.4 0 .8-24.3.4-24.3s-.6-2.4-1-2.5c-.4 0-.7-1.1-1.1-1.1-.4 0-2.5 24.6-2.9 24.6-.4 0 0-11.9-.4-12-.4 0-1.4 7.6-1.8 7.6-.4 0-.8-.9-1.2-.9-.4 0 .4-16.2 0-16.2s-.9 1.7-1.3 1.6c-.4 0-2.1 17.2-2.5 17.2-.4 0-.2-8-.6-8-.4 0-1.8 12.2-2.2 12.2-.4 0 .9-21.3.5-21.3s-2 14.2-2.4 14.1c-.4 0-1 2.1-1.4 2.1-.4 0 .9-20.8.5-20.8s-.9 1.5-1.3 1.4c-.4 0-.6-2-1-2.1-.4 0-1.9 12.6-2.3 12.6-.4 0 .1-10.5-.3-10.5s-2.6 20.1-3 20.1c-.4 0-.2-6.8-.6-6.8-.4 0-1.4 6.6-1.8 6.5-.4 0 .3-12-.1-12s.1-9.3-.3-9.4c-.4 0-2.7 19.5-3.1 19.5-.4 0-.6-2.4-1-2.5-.4 0 1.1-18.8.7-18.9-.4 0-2.2 14.2-2.6 14.2-.4 0 .5-12.4.1-12.4s-1.3 4.6-1.7 4.5c-.4 0-2.6 17.3-3 17.3-.4 0 1.3-20.3.9-20.3s-.6-1.6-1-1.7c-.4 0-1.9 9.7-2.3 9.7-.4 0-2 10.4-2.4 10.4-.4 0-.3-4.7-.7-4.8-.4 0-.1-6.1-.5-6.2-.4 0-.2-5.4-.6-5.4-.4 0-.4-3.4-.8-3.4s-1.2 3.8-1.6 3.7c-.4 0-1.2 3-1.6 2.9-.4 0-1.9 9.2-2.3 9.1-.4 0-.8-.5-1.2-.6-.4 0 1.4-17.9 1-18-.4 0-2.7 15-3.1 14.9-.4-.1-.9.4-1.3.4-.4-.1 1.4-17.7 1-17.7-.4-.1-4 24.9-4.4 24.8-.4-.1.8-12.3.4-12.4-.4-.1-1.7 6.6-2.1 6.5-.4-.1-.2-4.3-.6-4.4-.4-.1 1-13.4.6-13.5-.4-.1-2.7 13.9-3.1 13.9-.4-.1.4-9.1 0-9.2-.4-.1-2 8.9-2.4 8.8-.4-.1.5-9.7.1-9.8-.4-.1.1-6.3-.3-6.3-.4-.1-1.5 4.6-1.9 4.6-.4-.1-3 15.1-3.4 15-.4-.1 2.2-20.4 1.8-20.5-.4-.1-4.2 22.7-4.6 22.7-.4-.1 1.5-15.9 1.1-16-.4-.1-2.4 10.5-2.8 10.4-.4-.1.9-11.4.5-11.5-.4-.1-.4-2.9-.8-3-.4-.1-2.3 9.6-2.7 9.6-.4-.1 1.4-13.9 1-14-.4-.1-2.8 12.5-3.2 12.5-.4-.1-2.7 11.5-3.1 11.5-.4-.1-.1-4.8-.5-4.8-.4-.1 1.9-16.4 1.5-16.5-.4-.1-.4-2.7-.8-2.8-.4-.1-4.8 24.3-5.2 24.2-.4-.1-1.1 1.4-1.5 1.3-.4-.1 1.1-11.6.7-11.7-.4-.1 1.6-14.1 1.2-14.1-.4-.1-5.2 25.5-5.6 25.4-.4-.1-.8-.3-1.2-.3-.4-.1.5-7.5.1-7.6-.4-.1 2.2-17.2 1.8-17.3-.4-.1-1 1-1.4.9-.4-.1-1 1.2-1.4 1.1-.4-.1-.6-1-1-1.1-.4-.1-5.2 23.7-5.6 23.6-.4-.1-.5-2.1-.9-2.1-.4-.1.3-5.9-.1-5.9-.4-.1.4-6.4 0-6.5-.4-.1 1.8-13.8 1.4-13.9-.4-.1-2.3 7.6-2.7 7.5-.4-.1-3.5 13.6-3.9 13.5-.4-.1 1-9.5.6-9.6-.4-.1 1.2-10.1.8-10.2-.4-.1-.6-.8-1-.9-.4-.1-3.8 14.8-4.2 14.7-.4-.1-3 10.5-3.4 10.4-.4-.1-.4-2.1-.8-2.1-.4-.1 1.7-12.1 1.3-12.2-.4-.1-2.9 10-3.3 9.9-.4-.1 1.9-13.3 1.6-13.3-.4-.1-1.2 1.7-1.6 1.6-.4-.1.4-5.7 0-5.8-.4-.1-1.4 2.9-1.8 2.8-.4-.1-4 14.5-4.4 14.4-.4-.1 1.9-12.4 1.5-12.5-.4-.1-1.7 4-2.1 3.9-.4-.1-3.2 10.8-3.6 10.7-.4-.1 1-8 .6-8.1-.4-.1-1.7 3.7-2.1 3.7-.4-.1 3.9-20.8 3.5-20.9-.4-.1-5.1 18.6-5.5 18.5-.4-.1 2.1-12.8 1.7-12.8-.4-.1-1.5 2.7-1.9 2.6-.4-.1-1.3 1.9-1.7 1.8-.4-.1-3.9 12.8-4.3 12.7-.4-.1 1.4-9.2 1-9.3-.4-.1-.9.3-1.3.2-.4-.1 1.6-9.8 1.2-9.9-.4-.1.3-4.6-.1-4.7-.4-.1.1-3.7-.3-3.8-.4-.1-1.5 2.8-1.9 2.7-.4-.1-3.4 10.1-3.8 10-.4-.1 2.3-12.1 1.9-12.2-.4-.1-5.2 17-5.6 16.9-.4-.1.8-6.5.5-6.6-.4-.1 2-10.7 1.6-10.8-.4-.1-3 8.3-3.4 8.2-.4-.1-2.7 7.2-3.1 7.1-.4-.1 2.9-13.8 2.5-13.9-.4-.1-5.4 16.9-5.8 16.8-.4-.1-2.1 4.7-2.5 4.6-.4-.1 2.5-12.3 2.2-12.4-.4-.1 1.5-8.2 1.1-8.4-.4-.1-4.4 12.7-4.8 12.5-.4-.1-1.4 2-1.8 1.9-.4-.1 2.6-12.2 2.3-12.3-.4-.1 1.9-9.4 1.5-9.5-.4-.1-1.4 1.9-1.8 1.8-.4-.1-2.5 5.8-2.9 5.7-.4-.1 1.6-8.3 1.2-8.4-.4-.1-1.9 3.8-2.3 3.6-.4-.1-1.2 1.2-1.6 1.1-.4-.1-1.6 2.6-2 2.5-.4-.1.2-3.3-.2-3.4-.4-.1-.2-1.9-.6-2-.4-.1-3.1 7.2-3.5 7.1-.4-.1-4.7 12.3-5.1 12.2-.4-.1 3.3-13.1 2.9-13.2-.4-.1 1.6-7.6 1.2-7.7-.4-.1-1.8 2.9-2.1 2.8-.4-.1-4.7 11.9-5.1 11.8-.4-.1 4.5-16.3 4.1-16.5-.4-.1-7.1 18.8-7.5 18.6-.4-.1-2 3.4-2.4 3.3-.4-.1 4.2-14.9 3.8-15.1-.4-.1-2.6 5.1-3 4.9-.4-.1-2.8 5.5-3.1 5.3-.4-.1-2.3 4.1-2.7 4-.4-.1-.7-.5-1.1-.6-.4-.1 3.5-12.3 3.1-12.5-.4-.1 0-2.5-.4-2.6-.4-.1 3.2-11.3 2.8-11.4-.4-.1-9.9 24.8-10.3 24.7-.4-.1 3.2-11.1 2.8-11.3-.4-.1 1.6-6.6 1.2-6.8-.4-.1 1.1-5.2.7-5.3-.4-.1-6.6 15.1-6.9 15-.4-.1 1.7-6.7 1.3-6.8-.4-.1-2.4 3.9-2.8 3.8-.4-.1 2.7-9.2 2.3-9.3-.4-.1 1.6-6.2 1.2-6.3-.4-.1-8.9 20.2-9.2 20-.4-.1 1.8-6.8 1.5-6.9-.4-.2 2.8-9 2.4-9.1-.4-.2-8.2 17.9-8.6 17.8-.4-.2 2.4-8 2-8.1-.4-.2-2.7 4.2-3 4.1-.4-.2-2 2.6-2.4 2.5-.4-.2 6.3-16.8 5.9-17-.4-.2-.3-1.3-.7-1.4-.4-.2-1.5 1.5-1.9 1.4-.4-.2 3.2-9.1 2.8-9.3-.4-.2-8 16.1-8.4 16-.4-.2-1.3.8-1.6.6-.4-.2.1-2.3-.2-2.5-.4-.2 5-12.9 4.7-13-.4-.2-7.7 14.8-8.1 14.6-.4-.2-1.2.6-1.6.4-.4-.2.6-3.1.2-3.3-.4-.2.3-2.6-.1-2.7-.4-.2-3.1 4.4-3.4 4.2-.4-.2 4-10.1 3.7-10.3-.4-.2-2.5 3.2-2.8 3-.4-.2.7-3.3.4-3.4-.4-.2-2.9 4-3.3 3.8-.4-.2 5.7-12.8 5.3-12.9-.4-.2-.7-.3-1.1-.5-.4-.2-2.2 2.5-2.5 2.3-.4-.2 2.1-5.5 1.7-5.7-.4-.2-3.7 5.3-4.1 5.2-.4-.2-5.6 8.5-5.9 8.3-.4-.2 2.2-5.7 1.9-5.9-.4-.2 3.7-8.2 3.4-8.4-.4-.2-.9 0-1.2-.2-.4-.2-8.9 13.9-9.3 13.7-.4-.2 8.6-16.4 8.3-16.6-.3-.2-4 5.4-4.4 5.2-.3-.2 1.7-4.3 1.4-4.5-.3-.2-7.6 11-7.9 10.8-.3-.2.2-1.9-.1-2.1-.3-.2.8-2.7.4-2.9-.3-.2-5.2 6.7-5.5 6.4-.3-.2 7.1-12.5 6.8-12.7-.3-.2-8.4 11.4-8.7 11.2-.3-.2 2.8-5.7 2.5-6-.3-.2-6 7.5-6.4 7.2-.3-.2 3-5.8 2.6-6-.3-.2-6 7.1-6.3 6.9-.3-.2 3.1-5.9 2.8-6.1-.3-.2 4.8-8 4.4-8.2-.3-.2-2.5 2-2.8 1.8-.3-.2-1.5.7-1.8.4-.3-.2 1.6-3.4 1.3-3.7-.3-.2 4-6.4 3.7-6.6-.3-.2-9.7 11.1-10.1 10.9-.3-.3 2.9-4.9 2.6-5.2-.3-.3 3.4-5.3 3.1-5.6-.3-.3-1.6.7-1.9.5-.3-.3-11.2 11.8-11.5 11.6-.3-.3 8.6-11.1 8.3-11.4-.3-.3-6.4 6-6.7 5.8-.3-.3.4-1.7.1-1.9-.3-.3.3-1.6.1-1.9-.3-.3-4.7 3.7-5 3.4-.3-.3.6-1.9.3-2.2-.3-.3 11.5-12.6 11.2-12.9-.3-.3-12.9 11.5-13.2 11.3-.3-.3-4.9 3.4-5.2 3.1-.3-.3 1.5-2.6 1.2-2.9-.3-.3-.2-1-.5-1.3-.3-.3 2.4-3.3 2.1-3.6-.3-.3-.2-1-.4-1.3-.3-.3-4 2.1-4.2 1.8-.3-.3 5.9-5.8 5.7-6.1-.2-.3 3.2-3.5 3-3.8-.2-.3 6.3-5.5 6.1-5.8-.2-.3-15.3 10.1-15.5 9.8-.2-.3 6.5-5.5 6.3-5.9-.2-.3 8.4-6.4 8.2-6.7-.2-.3-6.6 3.5-6.8 3.2-.2-.3-4.9 2.1-5.1 1.8-.2-.3-13.1 6.6-13.3 6.2-.2-.3 11-7.2 10.8-7.6-.2-.4 9.1-5.6 8.9-5.9-.2-.4-10.5 4.5-10.7 4.1-.2-.4-1.6-.2-1.8-.5-.2-.4 5.5-3.3 5.4-3.7-.2-.4-13.4 4.6-13.5 4.3-.2-.4-1.4-.6-1.5-1-.1-.4 3.5-2.4 3.4-2.8-.1-.4.1-1.1 0-1.5-.1-.4-.9-.8-1-1.1-.1-.4-2-.5-2.1-.9-.1-.4 5.8-2.4 5.7-2.8-.1-.4-.3-.8-.4-1.2-.1-.4 12.3-3.1 12.3-3.4-.1-.4 2.5-.9 2.5-1.3-.1-.4-21.8 2.1-21.8 1.7 0-.4 22.5-3 22.5-3.4 0-.4-6.7 0-6.7-.4s-6.5-.4-6.5-.8 8.2-.8 8.2-1.2c0-.4-21.5-1.2-21.5-1.6 0-.4 18.8-.1 18.8-.5s-16.5-2.1-16.5-2.5c0-.4 20.8 1.3 20.8.9s-8.3-1.8-8.2-2.2c.1-.4-6.9-2-6.8-2.4.1-.4 17.8 2.7 17.9 2.3.1-.4-12-3.3-11.9-3.7.1-.4-6.5-2.6-6.4-3 .1-.4 3.1-.1 3.3-.5.1-.4 16.7 4.4 16.8 4 .1-.4-22.4-8.3-22.2-8.7.1-.4 20.8 6.7 20.9 6.3.1-.4-14.8-6.6-14.7-7 .2-.4 13.2 4.7 13.4 4.4.2-.4-14.3-7.3-14.1-7.7.2-.4.2-1 .4-1.3.2-.4.2-1 .4-1.4.2-.4 10.5 4.6 10.7 4.3.2-.4-9.7-6.4-9.5-6.8.2-.3-2.9-2.9-2.7-3.2.2-.3 11.2 5.9 11.5 5.5.2-.3-8.7-6.7-8.5-7 .2-.3 13.2 7.8 13.5 7.5.2-.3 1.3 0 1.5-.3.2-.3-7.3-6.2-7-6.5.2-.3-7.1-6.5-6.8-6.8.2-.3 4.3 2.1 4.5 1.8.2-.3-1.6-2.5-1.4-2.8.3-.3 16 12.2 16.2 11.9.3-.3-2.5-3.1-2.2-3.4.3-.3-9.8-9.7-9.5-10 .3-.3 1.8.4 2.1.1.3-.3.8-.4 1.1-.7.3-.3 0-1.3.2-1.6.3-.3 2.5 1.2 2.8.9.3-.3 11.4 10.4 11.7 10.1.3-.3 1.2.2 1.5-.1.3-.3-8.5-10-8.2-10.3.3-.3 6.2 5.5 6.5 5.3.3-.3 5.4 4.9 5.7 4.6.3-.3-12-14.7-11.7-15 .3-.3 13.1 14 13.5 13.8.3-.3-14.2-17.9-13.8-18.2.3-.3 7.7 7.9 8 7.7.3-.3 6.2 6.5 6.5 6.2.3-.3-4.6-6.9-4.3-7.2.3-.2-2.4-4.3-2.1-4.6.3-.2 6.1 6.6 6.4 6.4.3-.2-3.8-6.3-3.4-6.5.3-.2 9.3 11.3 9.6 11 .3-.2-.9-2.4-.6-2.6.3-.2-4.4-7.4-4.1-7.6.3-.2 2.6 2.4 2.9 2.1.3-.2 1.1.3 1.4 0 .3-.2-8.8-14.4-8.5-14.6.3-.2 6.5 8.1 6.8 7.9.3-.2 1.7 1.2 2.1 1 .3-.2-4.7-8.7-4.4-8.9.3-.2-2.4-5.3-2-5.5.3-.2 9.6 13.7 10 13.5.3-.2-1.4-3.7-1-3.9.3-.2 1.9 1.6 2.2 1.4.3-.2 6.2 8.8 6.6 8.6.3-.2-7.7-14.4-7.4-14.6.3-.2 3.9 5 4.2 4.8.3-.2 4.8 6.7 5.1 6.5.3-.2-5.5-11.2-5.2-11.4.3-.2-3.2-7.4-2.9-7.6.3-.2 6.8 10.5 7.2 10.3.3-.2 3.3 4.4 3.7 4.2.4-.2-7.1-14.6-6.7-14.8.4-.2 5.6 8.7 6 8.5.4-.2 2 2.1 2.4 1.9.4-.2-3.1-7.6-2.8-7.8.4-.2 8.1 14 8.5 13.8.4-.2-5.5-12.5-5.2-12.7.4-.2 5.2 8.5 5.5 8.3.4-.2-2.3-6.3-1.9-6.5.4-.2 5.2 8.8 5.6 8.7.4-.2-7.5-17.1-7.1-17.3.4-.2.5-.9.8-1.1.4-.2-.5-3.1-.2-3.2.4-.2-.9-4-.6-4.2.4-.2 11.4 22.5 11.8 22.3.4-.2-6.9-16.9-6.6-17.1.4-.2 2 2.4 2.4 2.3.4-.2 4.7 8.4 5.1 8.3.4-.2-1.8-5.9-1.4-6.1.4-.2 5.3 10.1 5.7 9.9.4-.2-4.2-11.6-3.9-11.8.4-.2-2.9-8.9-2.6-9 .4-.2 4.9 9.4 5.3 9.2.4-.2-3.3-9.9-2.9-10 .4-.2 9.1 19.7 9.5 19.5.4-.2-2.9-9-2.5-9.1.4-.2-1.3-5.3-.9-5.5.4-.2 6.8 14.5 7.2 14.4.4-.2-1.6-5.9-1.2-6.1.4-.1-5-14.8-4.7-14.9.4-.1-.2-2.8.2-2.9.4-.1 4.7 9.8 5.1 9.6.4-.1 4.1 8.5 4.5 8.4.4-.1 1.3 1.4 1.7 1.2.4-.1-7.3-21.5-7-21.6.4-.1 2.9 5.3 3.3 5.2.4-.1 1.1.6 1.5.5.4-.1 4.3 9.4 4.7 9.2.4-.1.6-.5 1-.7.4-.1.5-.8.9-1 .4-.1-1.1-5.4-.7-5.6.4-.1 4.5 10.3 4.9 10.1.4-.1-.6-4.1-.2-4.2.4-.1 1 .5 1.4.4.4-.1-1.4-6.4-1-6.6.4-.1 3.6 7.9 4 7.8.4-.1-4.8-16.4-4.4-16.6.4-.1 6.6 16.9 6.9 16.8.4-.1-4.7-16.5-4.3-16.6.4-.1.5-1 .9-1.1.4-.1 7.3 19.5 7.6 19.4.4-.1-3.4-13-3-13.2.4-.1-3.3-12.9-2.9-13 .4-.1 4.6 11.7 5 11.6.4-.1 4.1 10.3 4.5 10.2.4-.1-3.3-13.3-3-13.4.4-.1-.4-4.1 0-4.2.4-.1 3.4 8.3 3.8 8.2.4-.1 3.3 8 3.7 7.9.4-.1-3.9-15.6-3.5-15.7.4-.1 4.9 13.4 5.3 13.3.4-.1 2.4 5.3 2.8 5.2.4-.1-4.1-16.6-3.7-16.7.4-.1 3.9 10.6 4.3 10.5.4-.1-4.6-18.8-4.2-18.9.4-.1 3.9 10.5 4.3 10.4.4-.1-3-13.3-2.6-13.4.4-.1 5.4 16.2 5.8 16.1.4-.1-2.4-11.6-2-11.8.4-.1-.7-5.7-.3-5.8.4-.1 2.7 6.6 3.1 6.5.4-.1-.9-6.4-.5-6.5.4-.1 5.3 16.4 5.7 16.3.4-.1-3.6-16.4-3.2-16.5.4-.1 2.7 6.9 3.1 6.8.4-.1 3.4 9.6 3.8 9.5.4-.1.7-.5 1.1-.6.4-.1 2.6 6.7 3 6.6.4-.1-.3-4.3.1-4.4.4-.1-2.3-12.4-2-12.5.4-.1 1.3 2 1.7 1.9.4-.1 1.3 2 1.7 1.9.4-.1 2.6 7.1 3 7 .4-.1-3-15.6-2.6-15.7.4-.1 2.9 8.3 3.3 8.2.4-.1 0-3.3.4-3.4.4-.1 3.5 11.1 3.9 11 .4-.1 1.8 4.1 2.2 4 .4-.1.5-1.3.9-1.4.4-.1-3.4-17.9-3-18 .4-.1 4.8 17 5.2 16.9.4-.1-3.3-17.7-2.9-17.8.4-.1 1.4 2.3 1.8 2.3.4-.1 3.2 10.3 3.5 10.2.4-.1 1.5 3 1.9 2.9.4-.1 1.7 4 2.1 4 .4-.1-4.5-23.9-4.1-24 .4-.1 5.3 20.6 5.7 20.5.4-.1-1.1-8.8-.7-8.9.4-.1 2.7 8.8 3.1 8.7.4-.1.3-2.2.7-2.2.4-.1-3.7-21.6-3.3-21.7.4-.1 3 10.1 3.4 10.1.4-.1 3.3 12 3.7 12 .4-.1-1.8-12.5-1.4-12.6.4-.1.9.6 1.3.5.4-.1-1.6-12-1.2-12.1.4-.1 3.9 15.3 4.3 15.2.4-.1.9.5 1.3.4.4-.1-.2-5 .2-5.1.4-.1 3.3 12.9 3.7 12.8.4-.1-.1-4.5.3-4.5.4-.1.5-1.4.9-1.5.4-.1-1.6-12.8-1.2-12.9.4-.1 1.2 1.8 1.6 1.7.4-.1 2.2 7.3 2.6 7.2.4-.1 2.2 7.4 2.6 7.4.4-.1.4-2.4.8-2.5.4-.1-.2-5.5.2-5.6.4-.1 2.3 8.2 2.7 8.1.4-.1-2.9-20.6-2.5-20.7.4-.1.7-.7 1.1-.8.4-.1 1.3 2.7 1.7 2.7.4-.1.8 0 1.2-.1.4-.1.1-4.5.5-4.6.4-.1 4 18.5 4.4 18.4.4-.1-1.1-11.4-.7-11.5.4-.1 2.8 12.2 3.2 12.1.4-.1-1.9-16.3-1.5-16.3.4-.1 3.5 16.2 3.9 16.2.4-.1-.5-8.3-.1-8.4.4-.1-1.2-12.6-.8-12.7.4-.1 2 7.2 2.4 7.2.4-.1 1.3 3.2 1.7 3.2.4-.1 1 1.4 1.4 1.4.4-.1-.1-6.2.3-6.3.4-.1 3.7 19.1 4.1 19 .4-.1.7-.8 1.1-.9.4-.1-1.5-15.2-1.1-15.2.4-.1 2.2 9 2.6 9 .4-.1.7-.9 1.1-1 .4-.1 1.9 7.7 2.3 7.6.4-.1-2.8-25.2-2.4-25.2.4-.1 2.3 10 2.7 9.9.4-.1 2.6 12.6 3 12.5.4-.1-1.6-17.1-1.2-17.2.4-.1 2.6 12.7 3 12.7.4-.1 1.7 6.6 2.1 6.5.4-.1-1.4-16.3-1-16.3.4-.1 2.9 15.9 3.3 15.8.4-.1-.7-11.1-.3-11.2.4-.1.2-4.8.6-4.9.4-.1-.6-10.8-.2-10.9.4-.1 2.5 13.2 2.9 13.1.4-.1-.2-8.1.2-8.2.4-.1 1.2 3.3 1.6 3.3.4-.1 3.1 18.8 3.5 18.8.4 0 .4-3.6.8-3.7.4 0 .9.4 1.3.4s-2-23.6-1.6-23.6c.4 0 2.1 11.1 2.5 11.1.4 0 2.4 13.4 2.8 13.4.4 0-1.8-22.8-1.4-22.9.4 0 2.8 17.1 3.2 17.1.4 0-1.1-17.1-.7-17.1.4 0 1 1.7 1.4 1.7.4 0 2.8 17.7 3.2 17.7.4 0 .1-6.9.5-6.9s-.3-10.7.1-10.7 1.2 3.2 1.6 3.1c.4 0 1.4 5.6 1.8 5.6.4 0-.6-13.9-.2-13.9.4 0 2.4 15.7 2.8 15.7.4 0 .8-.6 1.2-.6.4 0 1.5 7.2 1.9 7.1.4 0 1 1.9 1.4 1.8.4 0-.3-11 .1-11s.2-6.8.6-6.8c.4 0 1.8 10 2.2 10 .4 0 .1-7.8.5-7.8s1.9 11.5 2.3 11.4c.4 0 .8-.4 1.2-.5.4 0-.6-15.8-.2-15.9.4 0 2.7 21.7 3.1 21.7.4 0-.5-15-.1-15.1.4 0 1.4 7.2 1.8 7.1.4 0 .9 1.4 1.3 1.4s-.1-10.9.3-10.9 1.1 2.9 1.5 2.9c.4 0 .7-1.5 1.1-1.5.4 0 1.2 4.7 1.6 4.7.4 0 1.7 10.9 2.1 10.9.4 0 .6-2.2 1-2.2s-1.1-24.6-.6-24.6c.4 0 1.7 11.3 2.1 11.3.4 0 .6-2.6 1-2.6s.4-6.2.8-6.2 2.4 22.2 2.8 22.1c.4 0 .9 1.2 1.3 1.1.4 0-.3-16 .1-16s.2-9.8.6-9.8c.4 0 1.6 12.2 2 12.2.4 0 .2-8.9.6-8.9.4 0 1 2.1 1.4 2.1.4 0 1 3.7 1.5 3.7.4 0 1.6 12.6 2 12.6.4 0 .8.4 1.2.4.4 0 .9 2.3 1.3 2.3s-.6-24.8-.2-24.8c.4 0 2.3 26.1 2.7 26.1.4 0-.2-19 .2-19s1.2 6.5 1.6 6.5c.4 0 0-15.2.4-15.2s1.5 13.2 1.9 13.1c.4 0 .2-12 .6-12 .4 0 1.2 6.8 1.6 6.8.4 0 .7-2.7 1.1-2.7.4 0 .7-3.3 1.1-3.4.4 0 1.2 9.2 1.6 9.2.4 0 1.5 14.7 1.9 14.7.4 0 0-19.6.4-19.6s.8-1.4 1.2-1.4c.4 0 1.4 13.3 1.8 13.3.4 0 1.1 7.2 1.5 7.2.4 0 .3-14.2.7-14.3.4 0 1.2 11 1.6 11 .4 0 0-22.9.4-22.9s.8.4 1.2.4c.4 0 1.3 13.8 1.7 13.8.4 0 .9 3.4 1.3 3.4s.7-3.7 1.1-3.7c.4 0 .8.5 1.2.5.4 0 .5-9.3.9-9.3s.9 1.1 1.3 1.1 1.2 13 1.6 13c.4 0 .9 2.9 1.3 2.9s.6-9.5 1-9.5 1 8.1 1.4 8.1c.4 0 .9 3.3 1.3 3.3s.6-10.7 1-10.7 1 8.3 1.4 8.3c.4 0 .4-21.2.8-21.2s1.1 16.2 1.5 16.2c.4 0 1 10.3 1.4 10.2.4 0 .6-14.7 1-14.8.4 0 1 11.5 1.4 11.5.4 0 .8-2.9 1.2-2.9.4 0 .6-14.1 1.1-14.1.4 0 1 18.1 1.4 18.1.4 0 .8.8 1.2.8.4 0 .7-17.7 1.1-17.7.4 0 .8-.7 1.2-.7.4 0 .8 2.1 1.2 2.1.4 0 .8 2.1 1.2 2.1.4 0 .8-1.1 1.2-1.1.4 0 .8 1.7 1.2 1.7.4 0 .8 6.7 1.2 6.7.4 0 .8 5.3 1.2 5.3.4 0 .8 2.2 1.2 2.2.4 0 .8-11.1 1.2-11.1.4 0 .8 5.5 1.2 5.5.4 0 .8 1.3 1.2 1.3.4 0 .9-19.6 1.3-19.6s.7 23.2 1.1 23.2c.4 0 1-22.9 1.4-22.9.4 0 .8 4.8 1.2 4.8.4 0 .6 18.8 1 18.8s.9-5.6 1.3-5.6.9-6.8 1.3-6.8.7 7.4 1.1 7.4c.4 0 .8-2.3 1.2-2.3.4 0 .8 1.5 1.2 1.5.4 0 .8.9 1.2.9.4 0 1.2-20.3 1.6-20.3.4 0 .3 24.9.7 24.9.4 0 .9-3.8 1.3-3.8s.8-1.1 1.2-1.1c.4 0 1.2-18.7 1.6-18.7.4 0 .9-2.3 1.3-2.3s.1 27 .6 27c.4 0 .8-.3 1.2-.3.4 0 1.2-14.7 1.6-14.7.4 0 1.1-9.3 1.5-9.3.4 0 .6 7.3 1 7.4.4 0 1-5.5 1.4-5.5.4 0 .3 17.7.7 17.7.4 0 1.4-19.4 1.8-19.4.4 0 .6 6.4 1 6.4s.9-3.7 1.4-3.7c.4 0 .2 17.4.6 17.4.4 0 .6 4.7 1 4.7s1.4-14.4 1.8-14.4c.4 0 .6 6.5 1 6.5s1.2-9.7 1.6-9.7c.4 0 .6 5.5 1 5.5s.5 8 .9 8 1.6-17.9 2-17.9c.4 0 .6 5.2 1 5.2s.7 2.1 1.1 2.1c.4 0 .1 14.7.5 14.7s1.3-10.2 1.7-10.2c.4 0 .5 7 .9 7s1.7-17 2.1-17c.4 0 1.1-4.6 1.5-4.6.4 0-.6 25.6-.2 25.7.4 0 1.3-9.8 1.7-9.8.4 0 1.3-8.9 1.7-8.9.4 0-.2 17.4.2 17.4s.7 1 1.1 1c.4 0 .9-1.9 1.3-1.9s1.2-6.4 1.6-6.4c.4 0 .7 2.2 1.1 2.3.4 0 .9-2.2 1.3-2.1.4 0 .5 5 .9 5.1.4 0 2.1-19.7 2.5-19.7.4 0-.7 21.8-.3 21.9.4 0 1.7-13 2.1-12.9.4 0 .7 1.1 1.1 1.1.4 0 1.2-4.9 1.6-4.8.4 0 .2 8.1.6 8.1.4 0 1.3-6.6 1.7-6.6.4 0 1.1-3.8 1.5-3.8.4 0 .4 6 .8 6s1.7-11.4 2.1-11.4c.4 0-.4 15 .1 15 .4 0 .4 4.9.8 4.9s.9-1 1.3-1 .8-.4 1.2-.4c.4 0 .9-1 1.3-1s1.9-12.3 2.3-12.2c.4 0 .6 2.9 1 3 .4 0-.9 20-.5 20.1.4 0 2.9-24.1 3.3-24 .4 0 .2 6.7.6 6.8.4 0 .4 4.9.8 4.9s1.9-11.7 2.3-11.6c.4 0 .6 2.2 1 2.2s.5 3.6.9 3.7c.4 0 .7 1.7 1.1 1.7.4 0-.8 16.8-.4 16.8s2.3-15.4 2.7-15.4c.4 0 .9-1.2 1.3-1.2s.2 6.5.6 6.5c.4 0 2.2-13.3 2.6-13.3.4 0 .8.7 1.2.8.4 0 .4 4.4.8 4.4s.9-.3 1.3-.3.7.9 1.1 1c.4 0 1-1.5 1.4-1.5.4 0 1.2-3.2 1.6-3.1.4 0-.5 11.7-.1 11.8.4 0 1.1-2.7 1.5-2.6.4 0 1.1-2.3 1.5-2.3.4 0-.1 7.9.3 7.9s2.2-11.7 2.6-11.7c.4 0 .9-.5 1.3-.4.4 0-1.4 18.8-1 18.8.4 0 1-1.8 1.4-1.8.4 0 1.8-8.4 2.2-8.4.4 0 2.1-10.7 2.5-10.6.4.1-.5 10.6-.1 10.6.4.1 1.1-1.9 1.5-1.9.4.1 1.6-6.3 2-6.3.4.1 1-1.2 1.4-1.2.4.1-2 21.6-1.6 21.7.4.1 3.2-17.9 3.6-17.9.4.1-.9 13-.5 13 .4.1.7.8 1.1.8.4.1 3.3-18.1 3.7-18.1.4.1-1.5 16.8-1.1 16.9.4.1 2.1-9 2.5-8.9.4.1 1.1-2.1 1.5-2.1.4.1-1.6 17-1.2 17.1.4.1 3.6-19 4-19 .4.1-1.9 18.9-1.5 19 .4.1.6 1.6 1 1.7.4.1 2.9-14.1 3.3-14 .4.1 2.6-11.6 3-11.5.4.1.6 1.8 1 1.9.4.1-2.2 19.6-1.8 19.7.4.1 3.9-19.7 4.3-19.7.4.1-2.9 24.1-2.5 24.2.4.1 2.5-10.6 2.9-10.6.4.1 1.4-3.5 1.8-3.4.4.1 1.1-1.8 1.5-1.7.4.1-.6 8.6-.2 8.7.4.1-.5 7.9-.1 8 .4.1 1.6-4.9 2-4.9.4.1 1.6-4.9 2-4.8.4.1-1.2 11.6-.8 11.7.4.1 5.1-25.2 5.5-25.1.4.1.8.4 1.2.5.4.1-2.2 17.5-1.8 17.5.4.1.8.3 1.2.3.4.1 2.1-7.2 2.5-7.1.4.1.9-.6 1.3-.5.4.1-2.1 16.4-1.7 16.5.4.1 1.4-3.4 1.8-3.4.4.1.2 3.5.6 3.6.4.1.8.3 1.1.3.4.1 5.1-23.2 5.5-23.1.4.1.4 2.2.8 2.2.4.1 1.6-3.9 2-3.8.4.1-3.7 23.8-3.3 23.9.4.1 3.6-14.4 4-14.3.4.1.5 1.9.9 1.9.4.1.2 3.2.6 3.3.4.1 3.3-12.6 3.7-12.5.4.1-.2 5.1.2 5.2.4.1 2.1-6.2 2.5-6.2.4.1-2 13.9-1.6 13.9.4.1 3.5-12.9 3.9-12.8.4.1-2.2 14.4-1.8 14.4.4.1 2.2-6.7 2.6-6.6.4.1-2.8 17.1-2.4 17.2.4.1 6.1-24.7 6.5-24.6.4.1.5 1.7.9 1.8.4.1-2.3 14.6-1.9 14.7.4.1 1.3-2 1.7-1.9.4.1-1.8 12-1.4 12 .4.1 1.8-4.7 2.2-4.6.4.1 5.8-22 6.2-21.9.4.1-2.3 13.7-1.9 13.8.4.1.1 3 .5 3.1.4.1-1.4 9.8-1.1 9.9.4.1 3-9.3 3.4-9.2.4.1-1.1 8-.7 8.1.4.1 3.4-10.7 3.8-10.6.4.1-1.4 9.2-1 9.3.4.1-.2 4.2.2 4.3.4.1 3.2-9.8 3.6-9.7.4.1 4.1-13.5 4.5-13.4.4.1-3.1 15.8-2.7 15.9.4.1 2.8-8 3.2-7.9.4.1-2.9 14.7-2.5 14.8.4.1 2.6-7.1 3-7 .4.1 2.8-7.5 3.1-7.4.4.1-1.6 9.4-1.2 9.5.4.1-.6 5.4-.2 5.5.4.1.7.4 1.1.5.4.1 4.2-12.9 4.6-12.8.4.1-.2 3.9.2 4 .4.1 1.7-3.3 2.1-3.2.4.1-2.6 12.4-2.2 12.6.4.1-.2 3.6.2 3.7.4.1 4.4-12.8 4.7-12.7.4.1-.6 5.3-.2 5.4.4.1 3.5-9.4 3.9-9.3.4.1-.4 4.3 0 4.4.4.1 3.7-9.8 4-9.7.4.1-5.2 21-4.8 21.1.4.1 7-21 7.3-20.9.4.1-.2 3.5.2 3.6.4.1.6.9 1 1 .4.1 2.3-4.7 2.6-4.6.4.1 1.1-.7 1.5-.6.4.1-6.1 22.8-5.7 22.9.4.1 1.8-3.3 2.2-3.2.4.1 6.6-18.7 7-18.6.4.1-6.1 22.2-5.7 22.3.4.1 6.3-17.5 6.7-17.4.4.1-5.1 18.8-4.7 18.9.4.1 8.4-23.5 8.8-23.4.4.1-4.7 17.2-4.3 17.4.4.1-1.3 6.4-.9 6.5.4.1 2.9-6.3 3.3-6.2.4.1-1.5 6.9-1.1 7.1.4.1 0 2.5.4 2.6.4.1 4.6-11.1 5-11 .4.1-3.1 11.5-2.7 11.7.4.1 8.5-22.2 8.9-22.1.4.1-4.6 15.7-4.2 15.8.4.1 4.4-10.1 4.8-9.9.4.1-1.4 6.3-1 6.4.4.1-3.2 11.4-2.8 11.5.4.1 6-14.2 6.3-14.1.4.1-2.1 8.2-1.7 8.3.4.1-1.6 6.5-1.2 6.6.4.1 3.1-6.2 3.5-6 .4.1 4.1-8.8 4.5-8.6.4.1 3.8-7.6 4.2-7.5.4.1-4 12.9-3.7 13 .4.1 4.2-8.7 4.6-8.6.4.1-7.2 20.8-6.8 20.9.4.1 3.2-6 3.6-5.8.4.1 3.6-7 4-6.8.4.1 4.3-8.5 4.7-8.3.4.2-7.8 21.4-7.4 21.6.4.2 1.1-.8 1.5-.6.4.2 3.4-6.2 3.8-6 .4.2-2.9 9-2.5 9.1.4.2 4.4-8.4 4.7-8.2.4.2 5-9.7 5.4-9.5.4.2-.5 3.2-.1 3.3.4.2-2.7 8.2-2.3 8.4.4.2 5.3-10.1 5.7-9.9.4.2-4.5 12.1-4.1 12.2.4.2 5.1-9.5 5.5-9.3.4.2-1.7 5.7-1.3 5.8.4.2 6.6-12.5 7-12.3.4.2-10.5 24.5-10.1 24.7.4.2 4-6.7 4.4-6.6.4.2 1.6-1.4 1.9-1.3.4.2 6.8-12.4 7.2-12.2.4.2-1.3 4.6-.9 4.7.4.2 4.4-7 4.7-6.8.4.2-11.5 24.9-11.1 25.1.4.2 4.2-6.7 4.6-6.6.4.2 3.1-4.3 3.5-4.2.4.2-.1 2 .2 2.2.4.2-4.3 9.9-3.9 10.1.4.2 8.2-13.9 8.6-13.7.4.2 3-3.9 3.4-3.7.4.2.8.2 1.2.4.4.2-1 3.6-.6 3.8.4.2 4.2-5.8 4.5-5.6.4.2-5.6 11.7-5.3 11.9.4.2-3.2 7.1-2.8 7.3.4.2 11.6-18.6 12-18.4.4.2-12.6 23.1-12.2 23.4.3.2 11.4-17.8 11.8-17.5.3.2-7.3 13.7-6.9 13.9.3.2 7.8-11.3 8.2-11.1.3.2-5.3 10.2-5 10.4.3.2 4.6-5.9 5-5.7.3.2-2 4.6-1.7 4.8.3.2 7.9-10.8 8.3-10.6.3.2-11.4 18.9-11.1 19.2.3.2 13.8-19.3 14.1-19.1.3.2-12.3 19.7-12 19.9.3.2 13.4-18.1 13.7-17.9.3.2-11.4 17.8-11.1 18.1.3.2 12.3-16 12.6-15.7.3.2-12.5 18.6-12.1 18.9.3.2.6.3.9.6.3.2 14.5-18.1 14.9-17.9.3.2-8 11.9-7.6 12.1.3.2 11.2-13.1 11.5-12.8.3.2-16.7 22.5-16.4 22.7.3.3 9.4-10.5 9.7-10.2.3.3-1 2.5-.7 2.7.3.3-5.5 7.8-5.2 8 .3.3 5.9-5.8 6.2-5.5.3.3 12.2-12.7 12.5-12.4.3.3-4.4 6.4-4.1 6.6.3.3-4.6 6.3-4.3 6.5.3.3-4.8 6.3-4.5 6.6.3.3 1.1-.2 1.4.1.3.3 10.3-9.4 10.5-9.1.3.3 5.4-4.2 5.7-3.9.3.3-6.2 7.3-5.9 7.6.3.3 5-3.6 5.3-3.3.3.3 3.3-1.8 3.6-1.5.3.3-12.2 12.1-11.9 12.4.3.3 8.2-6.1 8.4-5.8.3.3-6.9 6.9-6.6 7.2.3.3 2-.7 2.3-.4.3.3 5.9-3.7 6.2-3.4.2.3 5.2-2.9 5.5-2.6.2.3-13.9 11.4-13.7 11.7.2.3 2.1-.7 2.4-.4.2.3.9.3 1.1.6.2.3 7.7-4.2 7.9-3.8.2.3 8.5-4.3 8.7-3.9.2.3-18.6 12.3-18.3 12.7.2.3 18.6-9.9 18.8-9.6.2.3-12 7.7-11.8 8.1.2.4-2.7 2.2-2.5 2.6.2.4 10.9-4.6 11.1-4.2.2.4-4.7 3.2-4.5 3.6.2.4 11.7-4.2 11.9-3.8.2.4-5.3 3.3-5.1 3.7.2.4-3.9 2.5-3.8 2.9.1.4-12.6 5.3-12.4 5.6.1.4-1.3.9-1.2 1.3.1.4 26.2-7.1 26.3-6.7.1.4-10.4 3.9-10.3 4.3.1.4-14 4.2-13.9 4.5.1.4 4-.3 4.1.1.1.4 18.3-2.6 18.4-2.2.1.4-24.4 4.7-24.4 5.1.1.4 16.7-1.5 16.8-1.1 0 .4-12 1.9-12 2.3 0 .4 1.3.5 1.4.9 0 .4 12.2.2 12.2.6-2.6-.7-8.7-.2-8.7.2z" style="fill:#71aa17"/><path d="M838.6 681.8c0 .4-8.6.4-8.6.8s10.7 1.1 10.7 1.4c0 .4 8 1.5 8 1.8 0 .4 1.5 1.2 1.5 1.5 0 .4-19.5-1.8-19.5-1.5-.1.4 10.1 2.2 10 2.6-.1.4-.7.6-.8 1-.1.4 4.8 1.9 4.8 2.2-.1.4-5.6-.6-5.6-.2-.1.4-3.7-.3-3.8 0-.1.3 11.6 4.4 11.5 4.7-.1.3-.8.7-.9 1.1-.1.3-8-2-8.2-1.7-.1.3 5.6 3 5.4 3.4-.1.3-6.8-2-6.9-1.7-.1.3 6.9 4 6.7 4.3-.2.3 2.8 2.4 2.7 2.7-.2.3-3.9-1-4.1-.6-.2.3 3.3 2.8 3.1 3.1-.2.3-7.9-3.5-8.1-3.1-.2.3 1.6 1.8 1.4 2.2-.2.3-.1.9-.3 1.2-.2.3-1.5 0-1.7.3-.2.3-1.1.2-1.3.5-.2.3-5.4-2.9-5.6-2.6-.2.3-3.7-1.9-3.9-1.6-.2.3-4.1-2.4-4.3-2.1-.2.3 1.3 1.7 1 2-.2.3 7.2 6.6 7 6.9-.2.3 4.4 4.6 4.1 4.9-.2.3-2.1-.7-2.3-.4-.2.3-2.5-1.2-2.7-.9-.2.3 4.6 5.3 4.4 5.5-.2.3-13.9-12-14.2-11.7-.2.3 1.3 2.1 1.1 2.4-.3.3-2.7-1.8-3-1.6-.3.3 15.3 16.4 15 16.7-.3.3-7.9-7-8.2-6.8-.3.3-2.4-1.5-2.7-1.3-.3.2-3.7-3-4-2.8-.3.2-2.3-1.6-2.6-1.3-.3.2 12.4 15.1 12.1 15.4-.3.2-4.6-4.1-4.9-3.9-.3.2-2.4-1.7-2.7-1.4-.3.2 1.1 2.5.8 2.7-.3.2-5.8-6-6.1-5.7-.3.2-4.4-4.5-4.7-4.3-.3.2 10.2 14.2 9.9 14.4-.3.2 0 1.3-.3 1.5-.3.2-7.8-9.1-8.1-8.9-.3.2 1.4 3.1 1.1 3.3-.3.2 1.5 3.3 1.2 3.5-.3.2 1 2.6.7 2.9-.3.2-8.4-10.7-8.7-10.5-.3.2 2.6 5 2.3 5.2-.3.2 5.3 9.1 5 9.3-.3.2-10.3-14-10.6-13.8-.3.2 9.7 16 9.4 16.2-.3.2-1.2-.3-1.5-.1-.3.2-10.8-15.5-11.1-15.3-.3.2 2.5 5.2 2.2 5.4-.3.2 1.2 3.3.9 3.5-.3.2 5.7 10.7 5.4 10.8-.3.2-12-18.4-12.3-18.2-.3.2 1.2 3.3.9 3.5-.3.2-2.2-2.3-2.5-2.2-.3.2 11.4 21 11 21.2-.3.2-6-9-6.3-8.8-.3.2 4.3 9.1 4 9.3-.3.2-8.6-13.8-8.9-13.6-.3.2 3.8 8.4 3.5 8.6-.3.2-1.1-.4-1.4-.2-.3.2-4.8-7.3-5.1-7.2-.3.2.4 2.3.1 2.5-.3.2 5 11.2 4.7 11.3-.3.2-6.7-11.3-7-11.1-.3.2-1.3-1-1.6-.8-.3.2 3 7.6 2.7 7.7-.3.2.1 1.9-.2 2-.3.2.7 3.1.4 3.3-.3.2-6.8-12.3-7.1-12.1-.3.2 6.1 14.3 5.8 14.5-.3.2-8.4-16-8.8-15.8-.3.2 5.1 12.4 4.7 12.5-.3.2-1.7-1.8-2-1.6-.3.2-2.2-2.9-2.5-2.8-.3.2 2.3 6.7 1.9 6.9-.3.2-3.1-5.1-3.5-5-.3.1 4.3 11.4 3.9 11.5-.3.1-1.4-1.2-1.7-1-.3.1-8.5-17.6-8.9-17.5-.3.1 7.2 18.5 6.9 18.7-.3.1-2.7-4.3-3-4.1-.3.1-5.2-10.5-5.6-10.3-.3.1-2.3-3.7-2.6-3.5-.3.1 1.5 5.3 1.1 5.5-.3.1 5.3 14.8 5 14.9-.3.1-5.8-12.1-6.1-12-.3.1-3.5-6.7-3.8-6.6-.3.1-1.3-1.3-1.6-1.2-.3.1 8.2 22.7 7.9 22.9-.3.1-1.7-2.3-2.1-2.2-.3.1-1.2-1-1.6-.9-.3.1-4-8.4-4.4-8.3-.3.1-2.7-5.1-3-5-.3.1 4.8 14.8 4.5 14.9-.3.1-4.2-9.2-4.6-9-.3.1-2.9-5.8-3.3-5.7-.3.1 1 4.9.7 5-.3.1 1.7 6.8 1.3 6.9-.3.1-2.2-4-2.6-3.8-.3.1 2.3 8.6 1.9 8.7-.3.1-5.7-13.8-6-13.7-.3.1 1.7 6.9 1.3 7.1-.3.1-2.7-5.5-3-5.4-.3.1-.7.2-1 .3-.3.1 2.1 8.3 1.7 8.5-.3.1 1.5 6.8 1.2 6.9-.3.1-1.7-2.7-2-2.6-.3.1-5-12.8-5.4-12.7-.3.1 3.9 14.3 3.6 14.4-.3.1.6 4.3.2 4.4-.3.1-2.1-4-2.4-3.9-.3.1-.8.1-1.1.2-.3.1-2.2-4.5-2.6-4.4-.3.1-4.2-11.1-4.6-11-.3.1 2.2 9.4 1.8 9.5-.3.1 1.1 6 .7 6.1-.3.1-5.1-14.2-5.4-14.1-.3.1 1.2 6.4.8 6.5-.3.1-2.8-6.7-3.1-6.6-.3.1 3.4 14 3.1 14.1-.3.1-.4 1.1-.8 1.2-.3.1.5 4.5.2 4.6-.3.1-3.6-9.6-3.9-9.5-.3.1-2.9-7.5-3.3-7.4-.4.1 1.5 7.8 1.1 7.9-.4.1-1.1-1.4-1.5-1.3-.4.1 3 13.6 2.7 13.7-.4.1-4.1-12-4.5-11.9-.4.1.7 5.3.4 5.4-.4.1-3.9-11.4-4.2-11.3-.4.1 3.2 14.6 2.8 14.7-.4.1-1.3-1.8-1.6-1.8-.4.1-5.1-16.2-5.4-16.1-.4.1 3.6 16.5 3.3 16.6-.4.1-.8-.2-1.2-.1-.4.1-3-8.8-3.4-8.7-.4.1 3 14.6 2.7 14.7-.4.1-3-8.6-3.3-8.5-.4.1.4 4.5 0 4.6-.4.1-2-4.8-2.3-4.7-.4.1 1.7 9.9 1.4 10-.4.1-.9-.3-1.2-.3-.4.1-5.1-17.7-5.4-17.6-.4.1.6 5.6.3 5.7-.4.1.9 7.1.6 7.1-.4.1-.5 1.2-.8 1.3-.4.1-1.8-4.4-2.2-4.4-.4.1.6 5.9.3 5.9-.4.1-2.8-8.6-3.1-8.5-.4.1.6 6 .3 6.1-.4.1-2.9-9.6-3.3-9.5-.4.1-1-1.1-1.3-1-.4.1 2.5 14.7 2.2 14.8-.4.1-.1 3-.5 3-.4.1-2.6-8.4-3-8.4-.4.1-1.5-3.7-1.9-3.6-.4.1-2.4-7.6-2.7-7.5-.4.1 2.5 15.1 2.2 15.2-.4.1-.7.3-1 .4-.4.1-3.5-12.9-3.8-12.8-.4.1 3.1 18.6 2.8 18.6-.4.1-.9-.5-1.2-.4-.4.1-4.7-19.1-5-19-.4.1.8 7.7.5 7.8-.4.1-.7.3-1 .4-.4.1-2.1-7-2.5-7-.4.1 3.3 20.4 3 20.5-.4.1-3.8-15.7-4.2-15.6-.4.1.4 6 .1 6.1-.4.1-1.5-3.9-1.9-3.8-.4.1-2.4-8.4-2.7-8.4-.4.1-1-1.4-1.4-1.4-.4.1-.5 1.3-.8 1.4-.4.1 3.2 21 2.8 21.1-.4.1-2.9-11.4-3.2-11.3-.4.1-2.6-10.2-3-10.1-.4.1 2.2 16.2 1.8 16.2-.4.1-1.4-3.5-1.7-3.4-.4.1.5 6.9.1 7-.4.1-.4 2.1-.7 2.2-.4.1-1.7-5.3-2-5.3-.4.1.7 8.6.4 8.7-.4.1-3.3-14.8-3.7-14.8-.4.1 1.4 12.4 1 12.4-.4.1-1.5-4.2-1.8-4.1-.4.1-2.9-13-3.3-13-.4.1 2.7 20.5 2.3 20.6-.4.1-1.9-6.8-2.2-6.7-.4.1-1.8-6.3-2.1-6.2-.4.1-.9-1-1.3-.9-.4.1-.2 3.6-.5 3.6-.4.1.3 6.9 0 6.9-.4.1-1.2-3.1-1.6-3.1-.4.1-3.3-16.9-3.7-16.8-.4.1-.3 2.6-.7 2.7-.4.1 2.4 20.8 2.1 20.9-.4.1-2.4-10.8-2.7-10.7-.4.1.4 8 .1 8-.4.1-2.9-14.4-3.2-14.3-.4.1-.6.6-1 .6-.4.1.2 6.4-.2 6.4-.4.1-2.3-11.3-2.7-11.3-.4.1.1 6-.2 6.1-.4.1-1-1.7-1.3-1.7-.4.1-.5 1.3-.9 1.4-.4 0-.6.6-1 .7-.4 0-1-2.1-1.4-2-.4 0-.2 4-.6 4-.4 0-1.8-8.1-2.2-8-.4 0 1.5 17 1.1 17.1-.4 0-.1 5.3-.4 5.4-.4 0-2.2-11.2-2.5-11.2-.4 0-1.8-8.5-2.2-8.4-.4 0 .4 9 0 9.1-.4 0-2.3-12.3-2.6-12.2-.4 0 .6 10.5.2 10.6-.4 0 .6 11.3.3 11.4-.4 0-.9-1.7-1.3-1.6-.4 0-.4 3-.8 3.1-.4 0-1.3-4.8-1.7-4.7-.4 0-1.7-8.5-2.1-8.5-.4 0 .1 7.4-.3 7.4s-2.4-14.8-2.8-14.8c-.4 0 .2 8.5-.1 8.5-.4 0-.4 3.2-.7 3.2-.4 0-.1 5.8-.5 5.9-.4 0-1.2-4.3-1.6-4.3-.4 0-1.6-8.5-2-8.5-.4 0 .8 14.7.5 14.8-.4 0-.3 4.2-.7 4.2-.4 0-2.2-13.8-2.5-13.7-.4 0-.1 6.6-.4 6.7-.4 0-.9-1.1-1.2-1.1-.4 0-2.3-16.1-2.7-16.1-.4 0-.4 3.8-.7 3.8-.4 0 1 17.8.6 17.9-.4 0-2.5-18.7-2.9-18.6-.4 0 1.1 19.6.7 19.7-.4 0-.6 2-.9 2.1-.4 0-1.2-5-1.6-5-.4 0-1.7-10.4-2-10.3-.4 0-.7.4-1.1.4-.4 0 .4 12.5 0 12.5s-2.3-17.9-2.6-17.9c-.4 0 .4 13.2 0 13.3-.4 0-.9-1.5-1.2-1.5-.4 0-1.3-7.5-1.7-7.4-.4 0-1-3.8-1.4-3.8-.4 0 .1 10.9-.2 10.9-.4 0-.8-.4-1.1-.4-.4 0-.7 1.1-1 1.1-.4 0-1.8-14-2.2-14-.4 0-.7.1-1.1.2-.4 0 .6 18.2.2 18.3-.4 0-1.2-7-1.6-7-.4 0-.7.4-1.1.4-.4 0-.1 8.7-.5 8.7s-.5 3.7-.9 3.7-1.7-13.7-2-13.7c-.4 0-.9-1.8-1.2-1.8-.4 0-.9-2.1-1.2-2-.4 0-.9-3.3-1.3-3.3s-1-3.8-1.3-3.8c-.4 0 .3 16.7-.1 16.7s-.6 1.5-1 1.6c-.4 0-1.1-6.3-1.5-6.3-.4 0-.7 1-1 1-.4 0-.7.7-1.1.7-.4 0-.8-.9-1.1-.8-.4 0-.6 3.1-.9 3.1-.4 0-.6 2.3-1 2.3s-1.6-17.4-2-17.3c-.4 0 .5 23.7.1 23.8-.4 0-1.6-17-1.9-17-.4 0-.3 8.7-.7 8.7-.4 0-.9-4.6-1.3-4.6s-.8-1.8-1.2-1.8c-.4 0-1.1-9.3-1.5-9.3-.4 0-.6 3.5-.9 3.5-.4 0 .1 20.7-.2 20.7-.4 0-1.6-21.3-2-21.3-.4 0-.7.8-1.1.8-.4 0-.3 10.4-.7 10.4-.4 0-.8-2.8-1.2-2.8-.4 0-1-7.4-1.4-7.4-.4 0-.5 6-.9 6s-.5 7.8-.8 7.8c-.4 0-1.1-12-1.5-12-.4 0-.1 19.5-.5 19.5s-1.2-14.2-1.5-14.2c-.4 0-.4 11.1-.8 11.1s-1.1-11.5-1.4-11.4c-.4 0-.8-2.8-1.2-2.7-.4 0-.8-2.2-1.2-2.2-.4 0-.8-1.4-1.1-1.4-.4 0-.4 16.3-.7 16.3-.4 0-.9-9.2-1.3-9.2s-.7.9-1.1.9c-.4 0-.8-2-1.1-2-.4 0-.5 15.4-.8 15.4-.4 0-.9-6.1-1.2-6.1-.4 0-.7.8-1.1.8-.4 0-1-15.9-1.3-15.9-.4 0-.6 9.5-1 9.5s-.9-10.6-1.2-10.6c-.4 0-.7-1.6-1.1-1.6-.4 0-.6 9.3-1 9.3s-.6 13.2-1 13.2-.8-3.2-1.1-3.2c-.4 0-.8-3.5-1.1-3.5s-.7 8.3-1.1 8.3-.9-22-1.2-22c-.4 0-.7 11.7-1.1 11.7-.4 0-.7 9.1-1.1 9.1-.4 0-.8-15.4-1.1-15.4s-.7 6-1.1 6c-.4 0-.7 2.6-1.1 2.6-.4 0-.7-6.7-1.1-6.7-.4 0-.7-6-1.1-6-.4 0-.7-.3-1.1-.3-.4 0-.7-.1-1.1-.1-.4 0-.8 10-1.2 10-.4 0-.6-12.5-1-12.6-.4 0-.8 9.6-1.2 9.6-.4 0-.8 4-1.1 4-.4 0-.6-9.2-1-9.2s-.9 11.7-1.2 11.7c-.4 0-.6-12.3-.9-12.3-.4 0-.8 4.2-1.2 4.2-.4 0-.9 11.1-1.3 11-.4 0-.8 4.5-1.2 4.5-.4 0-.7-1.2-1.1-1.2-.4 0-.6-8.6-.9-8.6-.4 0-.9 8.3-1.3 8.3s-.6-6-1-6-.4-13.6-.8-13.6-.7-2.7-1-2.7c-.4 0-.7-.2-1.1-.2-.4 0-1.1 14-1.5 14-.4 0-.5-9.4-.8-9.5-.4 0-1.2 18.3-1.6 18.2-.4 0-.7-2.6-1-2.6-.4 0-.1-21.3-.5-21.3s-1.2 16.1-1.6 16.1c-.4 0-.2-15-.6-15-.4 0-.8 2.3-1.2 2.3-.4 0-1.3 15.6-1.6 15.6-.4 0-.2-13.9-.6-13.9-.4 0-.6-3.6-1-3.6s-.7-.3-1.1-.4c-.4 0-.8 3-1.2 3-.4 0-1.1 8.7-1.4 8.7-.4 0-.8 1-1.1 1-.4 0-.8 1.9-1.2 1.9-.4 0-.6-3.1-1-3.1s-.8 2.2-1.2 2.2c-.4 0-.4-6.8-.8-6.8s-1.1 7.2-1.4 7.2c-.4 0-.1-13.8-.4-13.8-.4 0-1.4 12.9-1.7 12.8-.4 0 0-14.1-.4-14.2-.4 0-.7.4-1.1.4-.4 0-1.5 14.6-1.9 14.6-.4 0 0-12.5-.4-12.5s-.8 1.3-1.2 1.3c-.4 0-1.7 17.6-2.1 17.6-.4 0 .1-14.8-.2-14.8-.4 0-.8.8-1.1.8-.4 0-1.5 13.3-1.9 13.3-.4 0 0-11.3-.4-11.4-.4 0-1.1 6-1.5 5.9-.4 0-1.3 8.5-1.7 8.4-.4 0 .7-22 .3-22-.4 0-.6-2.2-.9-2.2-.4 0-.7-1-1-1-.4 0-2.3 22.3-2.6 22.3-.4 0 0-10.8-.3-10.8-.4 0-1.2 6.9-1.6 6.8-.4 0-.7-.8-1-.9-.4 0 .4-14.6 0-14.7-.4 0-.8 1.5-1.2 1.5-.4 0-1.9 15.6-2.3 15.6-.4 0-.2-7.2-.5-7.2-.4 0-1.6 11-2 11-.4 0 .8-19.2.4-19.3-.4 0-1.8 12.8-2.1 12.8-.4 0-.9 1.9-1.3 1.9s.9-18.8.5-18.8-.8 1.3-1.2 1.3c-.4 0-.6-1.8-.9-1.9-.4 0-1.7 11.4-2.1 11.4-.4 0 .1-9.5-.2-9.5-.4 0-2.4 18.2-2.8 18.2-.4 0-.2-6.2-.5-6.2-.4 0-1.3 5.9-1.7 5.9-.4 0 .3-10.8-.1-10.9-.4 0 .1-8.4-.3-8.5-.4 0-2.5 17.6-2.8 17.6-.4 0-.5-2.2-.9-2.2s1-17 .6-17.1c-.4 0-2 12.9-2.4 12.8-.4 0 .4-11.2.1-11.3-.4 0-1.2 4.1-1.5 4.1-.4 0-2.4 15.7-2.8 15.7-.4 0 1.2-18.3.9-18.4-.4 0-.6-1.5-.9-1.5-.4 0-1.7 8.8-2.1 8.8-.4 0-1.8 9.4-2.1 9.4-.4 0-.3-4.3-.6-4.3-.4 0-.1-5.5-.5-5.6-.4 0-.2-4.9-.5-4.9-.4 0-.4-3.1-.7-3.1-.4 0-1.1 3.4-1.5 3.4-.4 0-1.1 2.7-1.4 2.7-.4 0-1.7 8.3-2.1 8.2-.4 0-.7-.5-1.1-.5-.4 0 1.3-16.2.9-16.2s-2.4 13.6-2.8 13.5c-.4 0-.8.4-1.2.3-.4 0 1.3-16 .9-16s-3.6 22.5-4 22.5c-.4 0 .7-11.1.3-11.2-.4 0-1.5 6-1.9 5.9-.4 0-.2-3.9-.6-4-.4 0 .9-12.2.5-12.2s-2.4 12.6-2.8 12.5c-.4 0 .4-8.2 0-8.3-.4 0-1.8 8-2.2 8-.4-.1.5-8.8.1-8.9-.4-.1.1-5.7-.3-5.7-.4-.1-1.3 4.2-1.7 4.1-.4-.1-2.7 13.6-3.1 13.6-.4-.1 2-18.5 1.6-18.5-.4-.1-3.8 20.6-4.1 20.5-.4-.1 1.4-14.4 1-14.5-.4-.1-2.2 9.5-2.5 9.5-.4-.1.8-10.3.5-10.4-.4-.1-.3-2.6-.7-2.7-.4-.1-2.1 8.7-2.4 8.7-.4-.1 1.2-12.6.9-12.7-.4-.1-2.5 11.3-2.9 11.3-.4-.1-2.4 10.5-2.8 10.4-.4-.1-.1-4.3-.4-4.4-.4-.1 1.7-14.9 1.3-14.9-.4-.1-.3-2.5-.7-2.5-.4-.1-4.4 22-4.7 21.9-.4-.1-1 1.2-1.3 1.2-.4-.1 1-10.5.7-10.6-.4-.1 1.4-12.7 1.1-12.8-.4-.1-4.7 23.1-5.1 23-.4-.1-.7-.2-1.1-.3-.4-.1.4-6.8.1-6.9-.4-.1 2-15.6 1.7-15.6-.4-.1-.9.9-1.2.8-.4-.1-.9 1.1-1.3 1-.4-.1-.6-.9-.9-1-.4-.1-4.7 21.4-5 21.4-.4-.1-.4-1.9-.8-1.9-.4-.1.2-5.3-.1-5.4-.4-.1.3-5.8 0-5.9-.4-.1 1.6-12.5 1.3-12.6-.4-.1-2.1 6.9-2.4 6.8-.4-.1-3.1 12.3-3.5 12.2-.4-.1.9-8.6.6-8.7-.4-.1 1.1-9.1.7-9.2-.4-.1-.6-.7-.9-.8-.4-.1-3.4 13.4-3.8 13.3-.4-.1-2.7 9.5-3 9.4-.4-.1-.4-1.9-.7-1.9-.4-.1 1.5-10.9 1.1-11-.4-.1-2.6 9.1-3 9-.4-.1 1.8-12 1.4-12.1-.4-.1-1.1 1.5-1.4 1.5-.4-.1.4-5.1 0-5.2-.4-.1-1.3 2.6-1.7 2.5-.4-.1-3.6 13.1-4 13-.4-.1 1.7-11.2 1.3-11.3-.4-.1-1.5 3.6-1.9 3.5-.4-.1-2.9 9.7-3.3 9.7-.4-.1.9-7.3.5-7.4-.4-.1-1.5 3.4-1.9 3.3-.4-.1 3.6-18.8 3.2-18.9-.4-.1-4.6 16.8-5 16.7-.4-.1 1.9-11.5 1.6-11.6-.4-.1-1.3 2.5-1.7 2.4-.4-.1-1.2 1.7-1.5 1.7-.4-.1-3.5 11.6-3.9 11.5-.4-.1 1.2-8.4.9-8.4-.4-.1-.8.2-1.2.2-.4-.1 1.4-8.9 1.1-9-.4-.1.3-4.2-.1-4.3-.4-.1.1-3.4-.2-3.5-.4-.1-1.4 2.5-1.7 2.5-.4-.1-3.1 9.1-3.4 9.1-.4-.1 2.1-11 1.7-11.1-.4-.1-4.7 15.4-5.1 15.3-.4-.1.8-5.9.4-6-.4-.1 1.8-9.7 1.4-9.8-.4-.1-2.7 7.5-3.1 7.5-.4-.1-2.5 6.5-2.8 6.4-.4-.1 2.6-12.5 2.3-12.6-.4-.1-4.9 15.3-5.3 15.2-.4-.1-1.9 4.2-2.3 4.1-.4-.1 2.3-11.2 2-11.2-.4-.1 1.3-7.5 1-7.6-.4-.1-4 11.5-4.3 11.4-.4-.1-1.3 1.8-1.6 1.7-.4-.1 2.4-11 2-11.1-.4-.1 1.7-8.5 1.4-8.6-.4-.1-1.2 1.8-1.6 1.6-.4-.1-2.3 5.2-2.6 5.1-.4-.1 1.5-7.5 1.1-7.6-.4-.1-1.8 3.4-2.1 3.3-.4-.1-1.1 1.1-1.4 1-.4-.1-1.5 2.3-1.8 2.2-.3-.1.2-3-.2-3.1-.3-.1-.2-1.7-.6-1.9-.3-.1-2.8 6.6-3.1 6.5-.3-.1-4.3 11.2-4.6 11.1-.3-.1 3-11.9 2.6-12-.3-.1 1.4-6.9 1.1-7-.3-.1-1.6 2.6-1.9 2.5-.3-.1-4.3 10.8-4.6 10.6-.3-.1 4.1-14.8 3.8-14.9-.3-.1-6.4 17-6.7 16.9-.3-.1-1.8 3.1-2.2 3-.3-.1 3.8-13.5 3.4-13.6-.3-.1-2.3 4.6-2.7 4.5-.3-.1-2.5 4.9-2.8 4.8-.3-.1-2.1 3.7-2.4 3.6-.3-.1-.7-.4-1-.6-.3-.1 3.2-11.2 2.8-11.3-.3-.1 0-2.2-.3-2.4-.3-.1 2.9-10.2 2.6-10.3-.3-.1-9 22.5-9.3 22.4-.3-.1 2.9-10.1 2.6-10.2-.3-.1 1.4-6 1.1-6.1-.3-.1 1-4.7.7-4.8-.3-.1-5.9 13.7-6.3 13.5-.3-.1 1.5-6 1.2-6.2-.3-.1-2.2 3.5-2.5 3.4-.3-.1 2.5-8.3 2.1-8.5-.3-.1 1.4-5.6 1.1-5.7-.3-.1-8 18.3-8.4 18.1-.3-.1 1.7-6.1 1.3-6.3-.3-.1 2.5-8.1 2.2-8.3-.3-.1-7.4 16.2-7.8 16.1-.3-.1 2.2-7.2 1.8-7.4-.3-.1-2.4 3.8-2.7 3.7-.3-.1-1.8 2.4-2.2 2.2-.3-.1 5.7-15.2 5.3-15.3-.3-.1-.3-1.2-.6-1.3-.3-.1-1.4 1.4-1.7 1.2-.3-.1 2.9-8.3 2.5-8.4-.3-.1-7.3 14.6-7.6 14.5-.3-.1-1.1.7-1.5.6-.3-.2.1-2.1-.2-2.2-.3-.2 4.5-11.7 4.2-11.8-.3-.2-7 13.4-7.3 13.3-.3-.2-1.1.5-1.4.4-.3-.2.5-2.8.2-3-.3-.2.3-2.3 0-2.5-.3-.2-2.8 4-3.1 3.8-.3-.2 3.7-9.1 3.3-9.3-.3-.2-2.2 2.9-2.6 2.7-.3-.2.7-2.9.3-3.1-.3-.2-2.7 3.6-3 3.5-.3-.2 5.1-11.6 4.8-11.7-.3-.2-.6-.3-1-.4-.3-.2-2 2.2-2.3 2.1-.3-.2 1.9-5 1.6-5.1-.3-.2-3.4 4.8-3.7 4.7-.3-.2-5 7.7-5.4 7.5-.3-.2 2-5.1 1.7-5.3-.3-.2 3.4-7.4 3.1-7.6-.3-.2-.8 0-1.1-.1-.3-.2-8.1 12.6-8.4 12.4-.3-.2 7.8-14.8 7.5-15-.3-.2-3.7 4.9-4 4.7-.3-.2 1.5-3.9 1.2-4.1-.3-.2-6.9 9.9-7.2 9.8-.3-.2.2-1.7-.1-1.9-.3-.2.7-2.5.4-2.6-.3-.2-4.7 6-5 5.8-.3-.2 6.4-11.3 6.1-11.5-.3-.2-7.6 10.3-7.9 10.1-.3-.2 2.6-5.2 2.3-5.4-.3-.2-5.5 6.7-5.8 6.5-.3-.2 2.7-5.3 2.4-5.5-.3-.2-5.4 6.4-5.7 6.2-.3-.2 2.8-5.3 2.5-5.5-.3-.2 4.3-7.2 4-7.5-.3-.2-2.2 1.9-2.5 1.6-.3-.2-1.4.6-1.7.4-.3-.2 1.4-3.1 1.2-3.3-.3-.2 3.6-5.7 3.3-6-.3-.2-8.8 10.1-9.1 9.8-.3-.2 2.6-4.5 2.4-4.7-.3-.2 3.1-4.8 2.8-5-.3-.2-1.4.7-1.7.4-.3-.2-10.1 10.7-10.4 10.5-.3-.2 7.8-10.1 7.5-10.3-.3-.2-5.8 5.4-6.1 5.2-.3-.2.3-1.5.1-1.7-.3-.2.3-1.4.1-1.7-.3-.3-4.3 3.3-4.5 3.1-.3-.3.6-1.7.3-2-.3-.3 10.4-11.4 10.2-11.7-.3-.3-11.7 10.4-11.9 10.2-.3-.3-4.4 3.1-4.7 2.8-.2-.3 1.3-2.4 1.1-2.6-.2-.3-.2-.9-.5-1.2-.2-.3 2.2-3 1.9-3.3-.2-.3-.2-.9-.4-1.2-.2-.3-3.6 1.9-3.8 1.6-.2-.3 5.3-5.3 5.1-5.6-.2-.3 2.9-3.1 2.7-3.4-.2-.3 5.7-5 5.5-5.3-.2-.3-13.9 9.1-14.1 8.8-.2-.3 5.9-5 5.7-5.3-.2-.3 7.6-5.8 7.4-6.1-.2-.3-6 3.2-6.2 2.9-.2-.3-4.4 1.9-4.6 1.6-.2-.3-11.9 6-12.1 5.7-.2-.3 9.9-6.5 9.8-6.8-.2-.3 8.2-5.1 8-5.4-.2-.3-9.5 4.1-9.7 3.7-.2-.3-1.4-.2-1.6-.5-.2-.3 5-3 4.9-3.3-.1-.3-12.1 4.2-12.2 3.9-.1-.3-1.3-.5-1.4-.9-.1-.3 3.2-2.2 3.1-2.5-.1-.3.1-1 0-1.3-.1-.3-.8-.7-.9-1-.1-.3-1.8-.5-1.9-.8-.1-.4 5.2-2.2 5.2-2.6-.1-.4-.3-.8-.4-1.1-.1-.4 11.2-2.8 11.1-3.1-.1-.4 2.3-.8 2.3-1.2-.1-.4-19.7 1.9-19.7 1.5 0-.4 20.4-2.8 20.3-3.1 0-.4-6 0-6.1-.4 0-.4-5.9-.4-5.9-.7 0-.4 7.4-.7 7.4-1.1 0-.4-19.5-1.1-19.5-1.5 0-.4 17-.1 17-.5s-15-1.9-14.9-2.3c0-.4 18.8 1.2 18.9.8 0-.4-7.5-1.6-7.4-2 .1-.4-6.3-1.8-6.2-2.2.1-.4 16.1 2.4 16.2 2 .1-.4-10.8-3-10.7-3.3.1-.4-5.9-2.3-5.8-2.7.1-.4 2.8-.1 2.9-.5.1-.3 15.1 4 15.2 3.6.1-.3-20.3-7.6-20.1-7.9.1-.3 18.8 6.1 19 5.7.1-.3-13.4-6-13.3-6.3.1-.3 12 4.3 12.1 4 .1-.3-12.9-6.6-12.8-6.9.2-.3.2-.9.4-1.2.2-.3.2-.9.3-1.2.2-.3 9.5 4.2 9.7 3.9.2-.3-8.8-5.8-8.6-6.1.2-.3-2.6-2.6-2.4-2.9.2-.3 10.2 5.3 10.4 5 .2-.3-7.9-6-7.7-6.3.2-.3 12 7.1 12.2 6.8.2-.3 1.2 0 1.4-.3.2-.3-6.6-5.6-6.4-5.9.2-.3-6.4-5.9-6.2-6.2.2-.3 3.9 1.9 4.1 1.6.2-.3-1.5-2.3-1.2-2.6.2-.3 14.4 11 14.7 10.7.2-.3-2.3-2.8-2-3 .2-.3-8.9-8.8-8.6-9.1.2-.3 1.7.4 1.9.1.2-.3.8-.4 1-.7.2-.3 0-1.2.2-1.4.3-.3 2.3 1.1 2.5.8.3-.3 10.3 9.4 10.6 9.1.3-.3 1.1.2 1.3 0 .3-.3-7.7-9.1-7.4-9.3.3-.2 5.6 5 5.9 4.8.3-.2 4.9 4.5 5.1 4.2.3-.2-10.9-13.3-10.6-13.6.3-.2 11.9 12.7 12.2 12.5.3-.2-12.8-16.2-12.5-16.4.3-.2 7 7.2 7.2 7 .3-.2 5.6 5.9 5.9 5.6.3-.2-4.2-6.3-3.9-6.5.3-.2-2.2-3.9-1.9-4.1.3-.2 5.5 6 5.8 5.8.3-.2-3.4-5.7-3.1-5.9.3-.2 8.4 10.2 8.7 10 .3-.2-.8-2.2-.5-2.4.3-.2-4-6.7-3.7-6.9.3-.2 2.4 2.1 2.7 1.9.3-.2 1 .2 1.3 0 .3-.2-8-13-7.7-13.2.3-.2 5.9 7.4 6.2 7.2.3-.2 1.6 1.1 1.9.9.3-.2-4.3-7.9-4-8.1.3-.2-2.1-4.8-1.8-5 .3-.2 8.7 12.4 9 12.2.3-.2-1.2-3.3-.9-3.5.3-.2 1.7 1.4 2 1.2.3-.2 5.6 8 5.9 7.8.3-.2-7-13.1-6.7-13.3.3-.2 3.5 4.5 3.8 4.3.3-.2 4.3 6.1 4.6 5.9.3-.2-5-10.1-4.7-10.3.3-.2-2.9-6.7-2.6-6.9.3-.2 6.2 9.5 6.5 9.3.3-.2 3 4 3.3 3.8.3-.2-6.4-13.3-6.1-13.4.3-.2 5.1 7.9 5.4 7.7.3-.2 1.8 1.9 2.1 1.7.3-.2-2.8-6.9-2.5-7.1.3-.2 7.3 12.6 7.7 12.5.3-.2-5-11.3-4.7-11.5.3-.2 4.7 7.7 5 7.5.3-.2-2.1-5.7-1.8-5.9.3-.2 4.7 8 5.1 7.8.3-.2-6.8-15.5-6.5-15.7.3-.2.4-.8.8-1 .3-.2-.5-2.8-.2-2.9.3-.2-.9-3.6-.5-3.8.3-.2 10.3 20.3 10.6 20.2.3-.2-6.3-15.3-6-15.4.3-.2 1.8 2.2 2.2 2 .3-.2 4.2 7.6 4.6 7.5.3-.1-1.6-5.4-1.3-5.5.3-.1 4.8 9.1 5.2 9 .3-.1-3.8-10.5-3.5-10.7.3-.1-2.7-8-2.3-8.2.3-.1 4.5 8.5 4.8 8.3.3-.1-3-9-2.7-9.1.3-.1 8.3 17.8 8.6 17.7.3-.1-2.6-8.1-2.3-8.3.3-.1-1.2-4.8-.9-4.9.3-.1 6.1 13.2 6.5 13 .3-.1-1.4-5.4-1.1-5.5.3-.1-4.6-13.4-4.2-13.5.3-.1-.2-2.5.2-2.7.3-.1 4.3 8.8 4.6 8.7.3-.1 3.8 7.7 4.1 7.6.3-.1 1.2 1.2 1.6 1.1.3-.1-6.6-19.5-6.3-19.6.3-.1 2.6 4.8 3 4.7.3-.1 1 .5 1.3.4.3-.1 3.9 8.5 4.3 8.3.3-.1.6-.5.9-.6.3-.1.5-.8.8-.9.3-.1-1-4.9-.7-5 .3-.1 4.1 9.3 4.4 9.2.3-.1-.6-3.7-.2-3.8.3-.1.9.5 1.3.3.3-.1-1.3-5.8-.9-6 .3-.1 3.2 7.2 3.6 7.1.3-.1-4.3-14.9-4-15 .3-.1 5.9 15.3 6.3 15.2.3-.1-4.2-14.9-3.9-15 .3-.1.5-.9.8-1 .3-.1 6.6 17.7 6.9 17.5.3-.1-3.1-11.8-2.7-11.9.3-.1-3-11.7-2.6-11.8.3-.1 4.2 10.6 4.5 10.5.3-.1 3.7 9.4 4.1 9.3.3-.1-3-12-2.7-12.1.3-.1-.4-3.7 0-3.8.3-.1 3.1 7.5 3.4 7.4.3-.1 3 7.3 3.3 7.1.3-.1-3.5-14.1-3.2-14.2.3-.1 4.4 12.1 4.8 12 .3-.1 2.2 4.8 2.5 4.7.3-.1-3.7-15.1-3.4-15.2.3-.1 3.6 9.6 3.9 9.5.3-.1-4.2-17-3.8-17.1.4-.1 3.5 9.5 3.9 9.4.4-.1-2.7-12.1-2.3-12.2.4-.1 4.9 14.7 5.3 14.6.4-.1-2.2-10.5-1.8-10.6.4-.1-.7-5.2-.3-5.3.4-.1 2.4 6 2.8 5.9.4-.1-.8-5.7-.4-5.8.4-.1 4.8 14.9 5.2 14.8.4-.1-3.2-14.8-2.9-14.9.4-.1 2.4 6.2 2.8 6.1.4-.1 3.1 8.7 3.4 8.6.4-.1.6-.5 1-.6.4-.1 2.3 6.1 2.7 6 .4-.1-.3-3.9.1-4 .4-.1-2.1-11.2-1.8-11.3.4-.1 1.2 1.8 1.6 1.7.4-.1 1.2 1.8 1.6 1.7.4-.1 2.3 6.4 2.7 6.3.4-.1-2.7-14.1-2.4-14.2.4-.1 2.6 7.5 3 7.4.4-.1 0-3 .4-3 .4-.1 3.2 10 3.5 9.9.4-.1 1.6 3.7 2 3.6.4-.1.4-1.2.8-1.3.4-.1-3.1-16.2-2.7-16.3.4-.1 4.3 15.4 4.7 15.3.4-.1-3-16-2.6-16.1.4-.1 1.2 2.1 1.6 2 .4-.1 2.9 9.3 3.2 9.2.4-.1 1.3 2.7 1.7 2.7.4-.1 1.5 3.7 1.9 3.6.4-.1-4-21.6-3.7-21.7.4-.1 4.8 18.6 5.2 18.6.4-.1-1-7.9-.6-8 .4-.1 2.4 7.9 2.8 7.9.4-.1.3-2 .7-2 .4-.1-3.4-19.6-3-19.6.4-.1 2.7 9.2 3 9.1.4-.1 3 10.9 3.4 10.8.4-.1-1.6-11.3-1.2-11.4.4-.1.9.5 1.2.5.4-.1-1.4-10.8-1.1-10.9.4-.1 3.5 13.8 3.9 13.7.4-.1.8.4 1.2.3.4-.1-.2-4.6.2-4.6.4-.1 3 11.7 3.4 11.6.4-.1-.1-4 .3-4.1.4-.1.5-1.3.9-1.3.4-.1-1.5-11.6-1.1-11.7.4-.1 1.1 1.6 1.4 1.5.4-.1 2 6.6 2.3 6.5.4-.1 2 6.7 2.3 6.7.4-.1.3-2.2.7-2.2.4-.1-.2-5 .2-5 .4-.1 2.1 7.4 2.4 7.3.4-.1-2.6-18.7-2.2-18.7.4-.1.6-.7 1-.7.4-.1 1.2 2.5 1.6 2.4.4-.1.8 0 1.1-.1.4-.1.1-4.1.4-4.2.4-.1 3.6 16.7 4 16.7.4-.1-1-10.3-.6-10.4.4-.1 2.6 11 2.9 10.9.4-.1-1.7-14.7-1.3-14.8.4-.1 3.2 14.7 3.5 14.6.4-.1-.5-7.5-.1-7.6.4-.1-1.1-11.4-.7-11.5.4-.1 1.8 6.5 2.2 6.5.4-.1 1.2 2.9 1.6 2.9.4-.1.9 1.3 1.3 1.2.4-.1-.1-5.6.2-5.7.4-.1 3.4 17.3 3.7 17.2.4-.1.6-.7 1-.8.4-.1-1.3-13.7-1-13.8.4-.1 2 8.2 2.3 8.1.4-.1.6-.8 1-.9.4-.1 1.7 7 2.1 6.9.4-.1-2.6-22.8-2.2-22.9.4-.1 2 9 2.4 9 .4-.1 2.3 11.4 2.7 11.3.4-.1-1.4-15.5-1.1-15.6.4-.1 2.3 11.5 2.7 11.5.4 0 1.5 5.9 1.9 5.9.4 0-1.3-14.7-.9-14.8.4 0 2.7 14.4 3 14.3.4 0-.6-10.1-.3-10.1.4 0 .2-4.4.5-4.4.4 0-.5-9.8-.2-9.9.4 0 2.3 11.9 2.6 11.9.4 0-.2-7.3.2-7.4.4 0 1.1 3 1.5 3 .4 0 2.8 17 3.2 17 .4 0 .3-3.3.7-3.3.4 0 .8.4 1.1.3.4 0-1.8-21.3-1.5-21.4.4 0 1.9 10.1 2.3 10 .4 0 2.2 12.1 2.5 12.1.4 0-1.7-20.7-1.3-20.7.4 0 2.5 15.5 2.9 15.4.4 0-1-15.5-.7-15.5.4 0 .9 1.6 1.3 1.5.4 0 2.5 16 2.9 16 .4 0 0-6.2.4-6.2s-.3-9.7.1-9.7 1 2.9 1.4 2.8c.4 0 1.3 5.1 1.6 5 .4 0-.6-12.6-.2-12.6.4 0 2.2 14.2 2.6 14.2.4 0 .7-.5 1-.5.4 0 1.4 6.5 1.7 6.5.4 0 .9 1.7 1.3 1.7s-.2-9.9.1-10c.4 0 .1-6.1.5-6.2.4 0 1.6 9.1 2 9 .4 0 .1-7.1.4-7.1.4 0 1.7 10.4 2.1 10.4.4 0 .7-.4 1.1-.4.4 0-.5-14.3-.2-14.4.4 0 2.5 19.7 2.8 19.6.4 0-.5-13.6-.1-13.6s1.3 6.5 1.7 6.5c.4 0 .8 1.3 1.2 1.2.4 0-.1-9.8.3-9.9.4 0 1 2.7 1.3 2.6.4 0 .6-1.3 1-1.4.4 0 1.1 4.3 1.4 4.3.4 0 1.5 9.9 1.9 9.8.4 0 .6-2 .9-2 .4 0-1-22.2-.6-22.3.4 0 1.5 10.2 1.9 10.2.4 0 .6-2.4.9-2.4.4 0 .3-5.6.7-5.6.4 0 2.2 20.1 2.5 20 .4 0 .8 1 1.2 1 .4 0-.3-14.4.1-14.5.4 0 .1-8.8.5-8.9.4 0 1.5 11.1 1.8 11.1.4 0 .2-8 .6-8 .4 0 .9 1.9 1.2 1.9.4 0 .9 3.4 1.3 3.3.4 0 1.4 11.4 1.8 11.4.4 0 .7.3 1.1.3.4 0 .8 2.1 1.2 2.1.4 0-.6-22.4-.2-22.5.4 0 2.1 23.6 2.4 23.6.4 0-.2-17.2.1-17.2.4 0 1.1 5.9 1.4 5.8.4 0 0-13.8.4-13.8s1.4 11.9 1.7 11.9c.4 0 .2-10.9.6-10.9.4 0 1 6.1 1.4 6.1.4 0 .6-2.4 1-2.4s.6-3 1-3 1.1 8.3 1.5 8.3c.4 0 1.3 13.3 1.7 13.3.4 0 0-17.7.3-17.8.4 0 .7-1.2 1.1-1.2.4 0 1.2 12 1.6 12 .4 0 1 6.5 1.4 6.5.4 0 .2-12.9.6-12.9.4 0 1.1 9.9 1.5 9.9.4 0 0-20.7.4-20.8.4 0 .8.4 1.1.4.4 0 1.2 12.5 1.5 12.5.4 0 .8 3.1 1.2 3.1.4 0 .6-3.4 1-3.4s.7.4 1.1.4c.4 0 .5-8.4.9-8.4s.8 1 1.1 1c.4 0 1.1 11.8 1.4 11.8.4 0 .8 2.6 1.2 2.6.4 0 .5-8.6.9-8.6s.9 7.4 1.3 7.4.8 3 1.2 3c.4 0 .5-9.6.9-9.7.4 0 .9 7.5 1.2 7.5.4 0 .4-19.2.7-19.2.4 0 1 14.6 1.4 14.6.4 0 .9 9.3 1.2 9.3.4 0 .5-13.4.9-13.4s.9 10.4 1.2 10.4c.4 0 .7-2.6 1.1-2.6.4 0 .6-12.7 1-12.8.4 0 .9 16.4 1.3 16.4s.7.7 1.1.7c.4 0 .6-16.1 1-16.1s.7-.7 1.1-.7.8 1.9 1.1 1.9c.4 0 .7 1.9 1.1 1.9.4 0 .7-1 1.1-1 .4 0 .7 1.6 1.1 1.6s.7 6 1.1 6c.4 0 .7 4.8 1.1 4.8.4 0 .7 1.9 1.1 1.9.4 0 .7-10.1 1.1-10.1.4 0 .7 5 1.1 5 .4 0 .7 1.2 1.1 1.2.4 0 .8-17.7 1.2-17.7.4 0 .6 21 1 21s.9-20.7 1.3-20.7.7 4.4 1.1 4.4c.4 0 .6 17 .9 17 .4 0 .8-5.1 1.1-5.1.4 0 .8-6.1 1.2-6.1.4 0 .6 6.7 1 6.7s.8-2.1 1.1-2.1c.4 0 .7 1.3 1.1 1.4.4 0 .7.8 1.1.8.4 0 1.1-18.4 1.4-18.4.4 0 .3 22.5.7 22.5.4 0 .8-3.5 1.2-3.5.4 0 .7-1 1.1-1 .4 0 1.1-16.9 1.5-16.9.4 0 .8-2.1 1.2-2.1.4 0 .1 24.4.5 24.4s.7-.3 1.1-.3c.4 0 1.1-13.3 1.4-13.3.4 0 1-8.4 1.3-8.4.4 0 .5 6.6.9 6.7.4 0 .9-5 1.3-4.9.4 0 .2 16 .6 16 .4 0 1.3-17.6 1.7-17.6.4 0 .5 5.8.9 5.8s.9-3.4 1.2-3.4c.4 0 .2 15.7.5 15.7.4 0 .6 4.3.9 4.3.4 0 1.2-13.1 1.6-13 .4 0 .5 5.9.9 5.9s1.1-8.8 1.5-8.8c.4 0 .5 5 .9 5s.4 7.3.8 7.3 1.5-16.2 1.8-16.2c.4 0 .5 4.7.9 4.7s.6 1.9 1 1.9.1 13.3.5 13.3 1.2-9.2 1.5-9.2c.4 0 .4 6.3.8 6.3s1.5-15.4 1.9-15.4c.4 0 1-4.1 1.3-4.1.4 0-.5 23.2-.1 23.2s1.2-8.9 1.6-8.8c.4 0 1.2-8.1 1.6-8.1.4 0-.2 15.7.2 15.7s.7.9 1 .9c.4 0 .8-1.8 1.2-1.7.4 0 1.1-5.8 1.4-5.8.4 0 .6 2 1 2s.9-2 1.2-1.9c.4 0 .4 4.6.8 4.6s1.9-17.8 2.3-17.8c.4 0-.6 19.8-.2 19.8.4 0 1.5-11.7 1.9-11.7.4 0 .7 1 1 1 .4 0 1-4.4 1.4-4.4.4 0 .2 7.3.6 7.4.4 0 1.2-6 1.5-6 .4 0 1-3.5 1.4-3.4.4 0 .3 5.4.7 5.5.4 0 1.5-10.3 1.9-10.3.4 0-.3 13.6 0 13.6.4 0 .4 4.4.7 4.5.4 0 .8-.9 1.2-.9.4 0 .8-.4 1.1-.4.4 0 .8-.9 1.2-.9.4 0 1.7-11.1 2-11.1.4 0 .5 2.6.9 2.7.4 0-.8 18.1-.5 18.2.4 0 2.7-21.8 3-21.8.4 0 .2 6.1.6 6.1.4 0 .3 4.4.7 4.4.4 0 1.7-10.6 2.1-10.5.4 0 .6 2 .9 2 .4 0 .4 3.3.8 3.3s.6 1.5 1 1.6c.4 0-.7 15.2-.4 15.2.4 0 2.1-14 2.5-13.9.4 0 .8-1.1 1.2-1.1.4 0 .1 5.9.5 5.9s2-12.1 2.3-12c.4 0 .7.7 1 .7.4 0 .3 3.9.7 4 .4 0 .8-.3 1.1-.2.4 0 .7.8 1 .9.4 0 .9-1.4 1.3-1.3.4 0 1.1-2.9 1.4-2.8.4 0-.4 10.6-.1 10.7.4 0 1-2.4 1.4-2.4.4 0 1-2.1 1.3-2.1.4 0-.1 7.1.3 7.2.4 0 2-10.6 2.3-10.6.4 0 .8-.4 1.2-.4.4 0-1.3 17-.9 17s.9-1.7 1.3-1.6c.4 0 1.7-7.6 2-7.6.4 0 1.9-9.7 2.3-9.6.4 0-.5 9.6-.1 9.6s1-1.8 1.3-1.7c.4 0 1.5-5.7 1.8-5.7.4 0 .9-1.1 1.3-1.1s-1.8 19.6-1.5 19.6c.4 0 2.9-16.2 3.3-16.2.4 0-.8 11.8-.5 11.8.4 0 .6.7 1 .7s3-16.4 3.3-16.3c.4 0-1.4 15.2-1 15.3.4.1 1.9-8.1 2.2-8.1.4.1 1-1.9 1.4-1.9.4.1-1.5 15.4-1.1 15.4.4.1 3.2-17.2 3.6-17.2.4.1-1.8 17.1-1.4 17.2.4.1.5 1.5.9 1.5.4.1 2.6-12.7 3-12.7.4.1 2.3-10.5 2.7-10.4.4.1.5 1.6.9 1.7.4.1-2 17.7-1.6 17.8.4.1 3.5-17.8 3.9-17.8.4.1-2.7 21.8-2.3 21.9.4.1 2.3-9.6 2.6-9.6.4.1 1.2-3.1 1.6-3.1.4.1 1-1.6 1.4-1.6.4.1-.5 7.8-.2 7.8.4.1-.4 7.2-.1 7.2.4.1 1.5-4.5 1.8-4.4.4.1 1.5-4.4 1.8-4.4.4.1-1 10.5-.7 10.6.4.1 4.6-22.8 5-22.7.4.1.7.4 1.1.4.4.1-2 15.8-1.6 15.9.4.1.7.2 1.1.3.4.1 1.9-6.5 2.2-6.4.4.1.8-.5 1.2-.5.4.1-1.9 14.8-1.6 14.9.4.1 1.3-3.1 1.6-3 .4.1.1 3.2.5 3.2.4.1.7.2 1 .3.4.1 4.7-21 5-20.9.4.1.4 2 .7 2 .4.1 1.4-3.5 1.8-3.5.4.1-3.4 21.5-3 21.6.4.1 3.3-13 3.6-13 .4.1.4 1.7.8 1.7.4.1.2 2.9.5 3 .4.1 3-11.4 3.4-11.3.4.1-.2 4.6.2 4.7.4.1 1.9-5.6 2.3-5.6.4.1-1.8 12.5-1.4 12.6.4.1 3.2-11.7 3.5-11.6.4.1-1.9 13-1.6 13.1.4.1 2-6.1 2.4-6 .4.1-2.5 15.5-2.2 15.6.4.1 5.5-22.3 5.9-22.3.4.1.4 1.5.8 1.6.4.1-2.1 13.2-1.8 13.3.4.1 1.1-1.8 1.5-1.8.4.1-1.7 10.8-1.3 10.9.4.1 1.7-4.2 2-4.1.4.1 5.2-19.9 5.6-19.8.4.1-2.1 12.4-1.7 12.5.4.1.1 2.7.5 2.8.4.1-1.3 8.9-1 8.9.4.1 2.7-8.4 3.1-8.4.4.1-1 7.2-.6 7.3.4.1 3-9.7 3.4-9.6.4.1-1.2 8.3-.9 8.4.4.1-.2 3.8.2 3.9.4.1 2.9-8.8 3.2-8.7.4.1 3.8-12.2 4.1-12.1.4.1-2.8 14.3-2.4 14.4.4.1 2.5-7.2 2.9-7.1.4.1-2.6 13.3-2.2 13.4.4.1 2.4-6.4 2.7-6.3.4.1 2.5-6.8 2.8-6.7.4.1-1.4 8.5-1.1 8.6.4.1-.5 4.8-.2 4.9.4.1.6.3 1 .4.4.1 3.8-11.7 4.2-11.6.4.1-.2 3.5.2 3.6.4.1 1.6-3 1.9-2.9.4.1-2.3 11.3-2 11.4.4.1-.2 3.2.2 3.3.4.1 3.9-11.6 4.3-11.5.4.1-.6 4.8-.2 4.9.4.1 3.1-8.5 3.5-8.4.4.1-.3 3.9 0 4 .4.1 3.3-8.9 3.7-8.8.4.1-4.7 19-4.4 19.1.4.1 6.3-19 6.6-18.9.4.1-.1 3.1.2 3.2.4.1.5.8.9.9.4.1 2-4.2 2.4-4.1.4.1 1-.6 1.3-.5.4.1-5.5 20.6-5.2 20.7.3.1 1.7-3 2-2.9.3.1 6-16.9 6.4-16.8.3.1-5.5 20.1-5.2 20.2.3.1 5.7-15.8 6.1-15.7.3.1-4.6 17-4.3 17.1.3.1 7.6-21.3 7.9-21.2.3.1-4.3 15.6-3.9 15.7.3.1-1.1 5.8-.8 5.9.3.1 2.6-5.7 3-5.6.3.1-1.3 6.3-1 6.4.3.1 0 2.2.3 2.4.3.1 4.1-10 4.5-9.9.3.1-2.8 10.4-2.5 10.6.3.1 7.7-20.1 8-20 .3.1-4.2 14.2-3.8 14.3.3.1 4-9.1 4.3-9 .3.1-1.2 5.7-.9 5.8.3.1-2.9 10.3-2.6 10.4.3.1 5.4-12.9 5.7-12.7.3.1-1.9 7.4-1.6 7.5.3.1-1.4 5.9-1.1 6 .3.1 2.8-5.6 3.2-5.5.3.1 3.7-7.9 4.1-7.8.3.1 3.4-6.9 3.8-6.8.3.1-3.7 11.7-3.3 11.8.3.1 3.8-7.9 4.2-7.8.3.1-6.5 18.8-6.2 18.9.3.1 2.9-5.4 3.2-5.3.3.1 3.3-6.3 3.6-6.2.3.1 3.9-7.7 4.2-7.6.3.1-7.1 19.4-6.7 19.5.3.1 1-.7 1.4-.6.3.1 3.1-5.6 3.4-5.4.3.1-2.6 8.1-2.3 8.3.3.1 3.9-7.6 4.3-7.4.3.1 4.5-8.8 4.9-8.6.3.1-.4 2.9-.1 3 .3.1-2.4 7.4-2.1 7.6.3.1 4.8-9.1 5.1-9 .3.1-4 10.9-3.7 11.1.3.1 4.6-8.6 5-8.4.3.2-1.5 5.1-1.2 5.3.3.2 6-11.3 6.3-11.1.3.2-9.5 22.2-9.1 22.3.3.2 3.6-6.1 3.9-5.9.3.2 1.4-1.3 1.7-1.1.3.2 6.2-11.2 6.5-11 .3.2-1.2 4.1-.8 4.3.3.2 4-6.3 4.3-6.2.3.2-10.4 22.6-10 22.7.3.2 3.8-6.1 4.2-5.9.3.2 2.8-3.9 3.1-3.8.3.2-.1 1.8.2 2 .3.2-3.9 9-3.6 9.1.3.2 7.4-12.6 7.7-12.4.3.2 2.7-3.5 3-3.3.3.2.8.2 1.1.4.3.2-.9 3.2-.6 3.4.3.2 3.8-5.2 4.1-5 .3.2-5.1 10.6-4.8 10.8.3.2-2.9 6.5-2.5 6.6.3.2 10.5-16.8 10.9-16.7.3.2-11.4 21-11.1 21.1.3.2 10.3-16.1 10.6-15.9.3.2-6.6 12.4-6.3 12.6.3.2 7.1-10.2 7.4-10.1.3.2-4.8 9.2-4.5 9.4.3.2 4.2-5.4 4.5-5.2.3.2-1.8 4.2-1.5 4.4.3.2 7.2-9.8 7.5-9.6.3.2-10.3 17.1-10 17.3.3.2 12.5-17.5 12.8-17.3.3.2-11.2 17.8-10.9 18 .3.2 12.1-16.4 12.4-16.2.3.2-10.4 16.1-10.1 16.3.3.2 11.1-14.4 11.4-14.2.3.2-11.3 16.9-11 17.1.3.2.6.3.9.5.3.2 13.2-16.4 13.4-16.2.3.2-7.2 10.7-6.9 11 .3.2 10.1-11.9 10.4-11.6.3.2-15.1 20.3-14.8 20.6.3.2 8.5-9.5 8.8-9.3.3.2-.9 2.3-.6 2.5.3.2-5 7-4.7 7.3.3.2 5.3-5.2 5.6-5 .3.2 11-11.5 11.3-11.3.3.2-4 5.8-3.7 6 .3.2-4.1 5.7-3.9 5.9.3.2-4.4 5.7-4.1 5.9.3.3 1-.2 1.3.1.3.3 9.3-8.5 9.5-8.3.3.3 4.9-3.8 5.2-3.5.3.3-5.6 6.6-5.3 6.8.3.3 4.5-3.2 4.8-3 .2.3 3-1.6 3.2-1.3.2.3-11 10.9-10.8 11.2.2.3 7.4-5.5 7.6-5.2.2.3-6.2 6.2-6 6.5.2.3 1.8-.6 2.1-.4.2.3 5.4-3.3 5.6-3.1.2.3 4.8-2.6 5-2.3.2.3-12.6 10.3-12.4 10.6.2.3 1.9-.6 2.2-.3.2.3.8.2 1 .5.2.3 7-3.8 7.2-3.5.2.3 7.6-3.8 7.8-3.5.2.3-16.8 11.2-16.6 11.5.2.3 16.9-9 17.1-8.7.2.3-10.9 7-10.7 7.3.2.3-2.4 2-2.2 2.3.2.3 9.9-4.1 10-3.8.2.3-4.2 2.9-4.1 3.2.2.3 10.6-3.8 10.7-3.4.1.3-4.8 3-4.6 3.3.1.3-3.5 2.3-3.4 2.6.1.3-11.4 4.8-11.2 5.1.1.3-1.2.9-1.1 1.2.1.3 23.7-6.4 23.8-6.1.1.3-9.4 3.6-9.3 3.9.1.4-12.6 3.8-12.6 4.1.1.4 3.6-.3 3.7.1.1.4 16.6-2.3 16.6-2 .1.4-22.1 4.2-22.1 4.6.1.4 15.1-1.4 15.2-1 0 .4-10.9 1.8-10.9 2.1 0 .4 1.2.4 1.2.8s11 .2 11 .6c-1.4 2.4-6.9 2.8-6.9 3.2z" style="fill:#7dc51b"/><ellipse transform="matrix(.02914 -.9996 .9996 .02914 -222.926 1174.858)" cx="493.3" cy="702.2" rx="32.3" ry="235.7" style="opacity:.14;fill:#262626"/><ellipse class="st5" cx="168.5" cy="631.1" rx="81.9" ry="9.9"/><ellipse class="st5" cx="884.6" cy="631.1" rx="81.9" ry="9.9"/><path class="st6" d="M891.7 628.7h-6.3c-6 0-10.9-4.9-10.9-10.9V289.5c0-6 4.9-10.9 10.9-10.9h6.3c6 0 10.9 4.9 10.9 10.9v328.3c0 6-4.9 10.9-10.9 10.9z"/><path class="st6" d="M819 616h139.1v15.1H819zM171.6 631.1h-6.3c-6 0-10.9-4.9-10.9-10.9V289.5c0-6 4.9-10.9 10.9-10.9h6.3c6 0 10.9 4.9 10.9 10.9v330.7c0 6-4.9 10.9-10.9 10.9z"/><path class="st6" d="M98.9 616H238v15.1H98.9zM154.4 322.2h748.2v30.2H154.4z"/><path class="st7" d="M182.5 386.3h702.1v2.1H182.5zM182.5 417.5h702.1v2.1H182.5zM182.5 449.6h702.1v2.1H182.5zM182.5 477.8h702.1v2.1H182.5z"/><path class="st7" d="M206.3 352.3h2.1v126.5h-2.1zM246.2 352.3h2.1v126.5h-2.1zM286.1 352.3h2.1v126.5h-2.1zM325.9 352.3h2.1v126.5h-2.1zM365.8 352.3h2.1v126.5h-2.1zM405.7 352.3h2.1v126.5h-2.1zM445.6 352.3h2.1v126.5h-2.1zM485.5 352.3h2.1v126.5h-2.1zM525.4 352.3h2.1v126.5h-2.1zM565.3 352.3h2.1v126.5h-2.1zM605.2 352.3h2.1v126.5h-2.1zM645.1 352.3h2.1v126.5h-2.1zM685 352.3h2.1v126.5H685zM724.9 352.3h2.1v126.5h-2.1zM764.8 352.3h2.1v126.5h-2.1z"/><g><path class="st7" d="M804.7 352.3h2.1v126.5h-2.1z"/></g><g><path class="st7" d="M844.6 352.3h2.1v126.5h-2.1z"/></g><g><path class="st8" d="m546 214.2-7.6 48.6s19.3 14.4 33.9-4.3 37-82.2 37-82.2 19-18.3 14.4-28.1-19.9-21.1-19.9-21.1-14.1 7.3-14.1 18.6v23.2l-28.4 60.5-15.3-15.2zM585.4 126.3c-11.1 5.6-19.1 17.7-23.3 25.5-.7 1.3-1.3 2.6-1.9 3.6-1.1 2.2-1.7 3.7-1.7 3.7l-7.8-4.5-38.2-22.1 21.4-27.2 3.5-4.5.3-.4 2.1-2.6 45.6 28.5z"/><path d="M585.4 126.3c-11.1 5.6-19.1 17.7-23.3 25.5-.7 1.3-1.3 2.6-1.9 3.6l-22.7-54.7.3-.4 2.1-2.6 45.5 28.6z" style="opacity:.13;fill:#111"/><path class="st8" d="M511.5 488.3s-7.3 61 0 70.2c7.3 9.2 11.9 37.1 11.9 37.1v57.8s28.9 18.7 28.9 0c0-6 2.3-70.6 2.3-70.6s3.2-71.1 0-89l-43.1-5.5z"/><path class="st10" d="M605.5 692.8c-25.7 7.8-34.9-5-49.5-13.7-10.7-6.3-31.1-12.7-41.5-15.6l3.4-24.8c.6-4.2 5.5-1.4 5.5-1.4l13.8 11.9c10.2-1.8 8.8-11.3 8.7-11.9 7.8 0 13.4-7.8 13.4-7.8s1.7 13.8 5.9 20.6c2.6 4.3 11.6 11.2 17.9 15.7 3.8 2.7 6.7 4.6 6.7 4.6s19.8 7.3 15.7 22.4z"/><path class="st7" d="M563.6 676.1s33.7 21.9 40.7 5.8l-14.5-11.4s-9.2 11.1-26.2 5.6zM583.1 665.9c-16.2 15-36.6-27.2-37.2-28.5 7.8 0 13.4-7.8 13.4-7.8s1.7 13.8 5.9 20.6c2.5 4.3 11.5 11.1 17.9 15.7z"/><path class="st11" d="M605.5 692.8c-4.1 15.1-32.1 7.3-32.1 7.3S556 686.4 532.1 686c-23.8-.4-19.3-10.1-19.3-10.1l1.7-12.4c10.3 3 30.8 9.3 41.5 15.6 14.7 8.7 23.8 21.5 49.5 13.7z"/><path class="st8" d="M369.3 504.4s-22.9 20.6-28.9 68.8c-6 48.2-9.6 78.9-9.6 78.9h28s-.5-33.9 6-48.2c6.4-14.2 13.3-9.6 25.7-60.1l17.4-27.5-38.6-11.9z"/><path class="st10" d="M382.2 711.4c-.1 4.1-.9 6.6-.9 6.6-8.7 9.6-25.7 6.4-37.6 0-11.9-6.4-17.4-17-21.6-23.4-4.1-6.4-4.6-12.8-4.6-12.8s.5-5.4 1.3-12.1c.7-6 1.5-12.9 2.4-17.7 1.8-10.1 9.6-12.4 9.6-12.4V652c3.7-1.4 6.4-8.3 6.4-8.3 10.1-6 21.7-1.4 21.7-1.4l2.2 9.6c-1.4 13.3 8.2 29.9 8.2 29.9 11.3 11.1 13.1 22.6 12.9 29.6z"/><path class="st7" d="M334.7 691.2s12.6 22.6 30 19.9c17.4-2.7 14.6-14.8 14.6-14.8s-4-14.8-22.3-1c.1.1-9.9 4.9-22.3-4.1z"/><path class="st7" d="m334.7 657.5 11.7 30.3s16.7 6.3 18.3-2.8l-3.7-27.5s3.6-12.5-8.3-16.6c-11.8-4-20.2 10.8-18 16.6z"/><path class="st11" d="M382.2 711.4c-.1 4.1-.9 6.6-.9 6.6-8.7 9.6-25.7 6.4-37.6 0-11.9-6.4-17.4-17-21.6-23.4-4.1-6.4-4.6-12.8-4.6-12.8s.5-5.4 1.3-12.1c2.9 9.7 10.8 31.9 25.6 41.7 18.7 12.4 37 .5 37.8 0z"/><path transform="rotate(-42.666 495.148 12.578)" class="st12" d="M469.6 12.1h51.1v1h-51.1z"/><path transform="rotate(-42.743 500.074 16.982)" class="st12" d="M468.9 16.5h62.3v1h-62.3z"/><path class="st12" d="m479.5 45.6-.7-.8 51.3-47.3.7.7-5.1 4.7zM482.2 52l-.7-.7 4.7-4.3L536.6.5l.6.7-4.6 4.3z"/><path transform="rotate(-42.666 513.773 31.163)" class="st12" d="M474.7 30.7h78v1h-78z"/><path transform="rotate(-42.743 518.12 36.107)" class="st12" d="M478.1 35.6h80.1v1h-80.1z"/><path transform="rotate(-42.743 522.414 41.083)" class="st12" d="M481.8 40.6H563v1h-81.2z"/><path transform="rotate(-42.666 526.648 46.108)" class="st12" d="M485.9 45.6h81.4v1h-81.4z"/><path class="st12" d="m501.5 78.9-.6-.7 4.3-4.1 55-50.7.6.8zM506.4 83.4l-.7-.7 4.4-4.1 53.6-49.5.7.8z"/><path transform="rotate(-42.701 539.197 61.34)" class="st12" d="M501.2 60.9h76v1h-76z"/><path transform="rotate(-42.701 543.362 66.445)" class="st12" d="M507.5 66h71.7v1h-71.7z"/><path transform="rotate(-42.819 547.577 71.539)" class="st12" d="M514.6 71.1h65.8v1h-65.8z"/><path transform="rotate(-41.314 551.101 76.296)" class="st12" d="M521.9 75.8h58.4v1h-58.4z"/><path transform="rotate(-42.666 554.798 80.824)" class="st12" d="M531.5 80.3h46.7v1h-46.7z"/><path transform="rotate(-42.787 558.905 84.104)" class="st12" d="M543.5 83.6h30.9v1h-30.9z"/><path class="st12" d="M484.6 7.5h1v50.1h-1zM490.1 2.8h1V66h-1zM494.6 0h1v71.9h-1zM499.5-2.1h1v79.4h-1zM504.4-3.6h1V82h-1zM509.2-4.5h1v90.4h-1zM514.1-4.8h1v94.1h-1zM518.9-4.6h1v96.7h-1zM523.8-3.9h1v98.1h-1zM528.7-2.6h1v98.2h-1zM533.5-.7h1v96.3h-1zM538.4 2.1h1v93.5h-1zM543.2 5.7h1v89.9h-1zM548.1 95.6V9.9h1v85.7zM553 14.9h1v80.7h-1zM557.8 23.8h1v69.8h-1zM562.7 30.2h1v61.7h-1z"/><path class="st13" d="m595.2 117.5-26.8-30.3c.5-2.1 1.5-6.3 2.8-12.6.3-1.6.7-3.3 1.1-5.2.1-.3.1-.7.2-1 .1-.8.3-1.5.4-2.4.3-2.5.3-5.3.1-8.3 0-.2 0-.4-.1-.6-.1-1.4-.3-2.8-.6-4.3-.2-1-.3-1.9-.6-2.9 0-.2-.1-.4-.1-.6-.4-1.9-1-3.9-1.7-6 0-.2-.1-.4-.2-.6 0-.2-.1-.3-.2-.5-.7-2-1.5-4-2.4-6.1-.1-.2-.1-.3-.2-.5-.8-1.9-1.8-3.7-2.8-5.6-.1-.2-.2-.3-.2-.5L563 28c-.8-1.3-1.5-2.5-2.4-3.8-.1-.1-.2-.3-.3-.4-.7-1-1.4-2-2.2-3-.5-.6-1-1.2-1.5-1.9-.1-.1-.2-.3-.3-.4-.8-1-1.7-2-2.6-3-.2-.2-.3-.4-.5-.6-.4-.4-.8-.9-1.2-1.3-.1-.1-.2-.2-.3-.4-.9-.9-1.8-1.9-2.8-2.8l-.5-.5c-.3-.3-.7-.7-1.1-1-.1-.1-.2-.2-.4-.3-.9-.8-1.9-1.7-2.9-2.5-.2-.1-.3-.3-.5-.4-.4-.3-.9-.7-1.3-1-.1-.1-.3-.2-.4-.3-.6-.5-1.2-.9-1.9-1.4-.3-.2-.5-.4-.8-.5-.2-.1-.3-.2-.5-.3-.7-.4-1.3-.8-2-1.2-.2-.1-.3-.2-.5-.3-.6-.4-1.3-.7-1.9-1-.2-.1-.3-.2-.5-.2-1.2-.6-2.3-1.1-3.6-1.5-.2-.1-.4-.1-.5-.2-.1 0-.2-.1-.3-.1-.2-.1-.3-.1-.5-.2-1.4-.5-2.9-.9-4.4-1.2-.2 0-.3-.1-.5-.1-.5-.1-.9-.2-1.4-.2-.2 0-.4-.1-.6-.1l-2.4-.3c-.2 0-.3 0-.5-.1-1.4-.1-2.9-.2-4.4-.2h-2c-1.1 0-2.3.1-3.4.3-.2 0-.3 0-.5.1-1.5.2-2.9.5-4.4.8-.2 0-.3.1-.5.1-1.5.3-2.9.8-4.4 1.3-.2.1-.3.1-.5.2-1.5.6-3 1.2-4.4 1.9-.2.1-.3.2-.5.3-1.4.8-2.8 1.6-4.1 2.5-.2.1-.3.2-.5.4-1.3.9-2.5 2-3.7 3.1l-1.3 1.3c-.2.2-.3.4-.5.6-3.6 4.1-8 11.1-8.2 21.1v.7c0 2.4.2 4.9.7 7.6 0 .2.1.4.1.6.4 2.1 1 4.3 1.8 6.6.1.2.1.3.2.5.7 1.9 1.5 3.9 2.5 6 .1.2.1.3.2.5.8 1.7 1.7 3.4 2.7 5.1.1.1.2.3.2.4.1.1.2.3.3.4.9 1.5 1.8 3 2.8 4.5.2.2.3.5.5.7.1.1.2.3.3.4.5.7.9 1.3 1.4 2 .2.2.3.5.5.7.6.8 1.1 1.5 1.7 2.3.1.1.2.3.3.4.7.9 1.4 1.8 2.1 2.6.2.2.3.4.5.6.4.5.8 1 1.3 1.5.1.1.2.2.3.4.9 1.1 1.9 2.1 2.8 3.1.2.2.3.4.5.5l1.2 1.2.4.4c.9.9 1.9 1.8 2.8 2.6l.5.5c.4.4.8.7 1.2 1l.4.3c.9.8 1.9 1.5 2.8 2.2.2.1.3.3.5.4.5.4 1 .8 1.6 1.2.1.1.3.2.4.3.8.6 1.6 1.1 2.4 1.6.2.1.3.2.5.3.8.5 1.6 1 2.4 1.4.1.1.3.2.5.3.5.3 1 .5 1.5.8.2.1.3.2.5.3 1.3.7 2.6 1.3 3.9 1.8l.5-.4.5-.5v1.2c2.1.8 4.2 1.5 6.2 2 2.9.8 5.7 1.2 8.2 1.4H538.6c2.6.2 5.1.2 7.4 0 5-.4 9.1-1.4 12-2.5 1.1-.4 2.1-.8 2.9-1.1L589 126l55.3 62.6 7.3-6.8-56.4-64.3zm-31.5-36.2c0 .1-.1.3-.1.4-.1.6-.3 1.2-.4 1.7-.2.8-.4 1.5-.5 2.1-.1.5-.2.9-.3 1.2l-1.9 1.1c-.2.1-.7.4-1.6.8-.2.1-.3.1-.5.2s-.3.1-.5.2c-.9.4-2.1.8-3.5 1.2-.1 0-.3.1-.4.1-.2 0-.3.1-.5.1s-.3.1-.5.1c-.1 0-.3.1-.4.1-.6.2-1.3.3-1.9.4l-1.5.3c-.2 0-.3.1-.5.1s-.3 0-.5.1c-1 .1-2.1.2-3.2.3h-2.9c-.8 0-1.6 0-2.4-.1h-.7c-.2 0-.3 0-.5-.1-.8-.1-1.7-.2-2.6-.3-.3 0-.6-.1-.9-.1-.1 0-.3-.1-.4-.1-.2 0-.3-.1-.5-.1-.1 0-.2-.1-.3-.1h-.2c-1.2-.3-2.5-.6-3.9-1-.2-.1-.3-.1-.5-.2-.1 0-.3-.1-.4-.1h-.1c-.1 0-.3-.1-.5-.2s-.3-.1-.5-.2c-.9-.3-1.9-.7-2.9-1.1-.2-.1-.3-.1-.5-.2s-.3-.1-.5-.2c-.6-.3-1.1-.5-1.7-.8-.2-.1-.3-.2-.5-.2-.2-.1-.3-.2-.5-.2-.4-.2-.8-.4-1.2-.7-.2-.1-.3-.2-.5-.3-.2-.1-.3-.2-.5-.3-.9-.5-1.8-1.1-2.8-1.8-.1-.1-.3-.2-.4-.3-.1-.1-.3-.2-.4-.3-.1 0-.2-.1-.2-.2-.2-.1-.3-.2-.5-.3-.2-.1-.3-.2-.5-.4-1.1-.8-2.2-1.6-3.2-2.5-.1-.1-.3-.2-.4-.3l-.2-.2c-.1 0-.1-.1-.2-.1l-.3-.3c-.2-.1-.3-.3-.5-.4-1.1-1-2.2-2-3.3-3.1l-.4-.4-.2-.2-.1-.1c-.1-.1-.2-.3-.4-.4l-.5-.5c-1-1-1.9-2.1-2.9-3.2-.1-.1-.2-.2-.3-.4-.1-.1-.2-.2-.3-.4l-.3-.3c-.2-.2-.3-.4-.5-.6-.2-.2-.3-.4-.5-.6-.7-.9-1.5-1.8-2.2-2.8-.1-.1-.2-.3-.3-.4-.1-.1-.2-.3-.3-.4-.3-.5-.7-.9-1-1.4-.2-.2-.3-.5-.5-.7-.2-.2-.3-.5-.5-.7l-1.2-1.8c-.1-.1-.2-.3-.3-.4-.1-.1-.2-.2-.2-.4v-.1c-.6-.9-1.2-1.9-1.8-2.8-.2-.3-.3-.5-.5-.8-.2-.3-.3-.6-.5-.9-.1-.1-.1-.2-.2-.4-.1-.1-.2-.3-.3-.4-.1-.1-.2-.3-.2-.4-1-1.7-1.8-3.5-2.6-5.2-.1-.2-.1-.3-.2-.5s-.1-.3-.2-.5c-.2-.6-.5-1.2-.7-1.8-.2-.4-.3-.9-.5-1.3-.2-.5-.3-1-.5-1.4-.1-.4-.2-.8-.4-1.1-.1-.2-.1-.3-.2-.5s-.1-.4-.2-.5c-.6-2.2-1-4.3-1.3-6.4 0-.2 0-.4-.1-.6v-.6c-.2-2.8-.1-5.4.4-7.9.1-.3.1-.5.2-.8.1-.3.1-.6.2-.9.3-1.3.8-2.6 1.3-3.8.2-.4.3-.7.5-1.1.2-.3.3-.7.5-1 1.2-2.1 2.7-4.1 4.5-5.9.1-.2.3-.3.4-.4l.1-.1.5-.5c1.1-1 2.3-2 3.6-2.8.2-.1.3-.2.5-.3.2-.1.3-.2.5-.3 1.2-.8 2.5-1.5 3.9-2 .2-.1.3-.2.5-.2.2-.1.3-.1.5-.2 1.2-.5 2.5-1 3.9-1.3.2-.1.3-.1.5-.2.1 0 .2-.1.4-.1h.1c.3-.1.6-.1.9-.2.3-.1.7-.2 1-.2.7-.1 1.3-.3 2-.4.2 0 .3 0 .5-.1.2 0 .3 0 .5-.1 1.3-.2 2.6-.3 3.9-.3h3.7c.4 0 .8 0 1.2.1h.5c.2 0 .3 0 .5.1 1.3.2 2.6.4 3.9.7.2 0 .3.1.5.1s.3.1.5.1.4.1.6.2l.6.1 2.7.9c.2.1.3.1.5.2s.3.1.5.2l2.1.9c.2.1.3.2.5.2.2.1.3.2.5.2.3.1.5.3.8.4.2.1.3.2.5.3.2.1.3.2.5.3.7.4 1.4.9 2.1 1.4.3.2.6.5.9.7.1.1.3.2.4.3.1.1.3.2.4.3.2.1.3.2.5.4.2.1.3.3.5.4 1.2.9 2.2 1.8 3.3 2.8.1.1.2.2.4.3.1 0 .1.1.2.1l.2.2.3.3.5.5c1.1 1 2.2 2.1 3.2 3.2l.4.4.3.3.5.5c.2.2.3.4.5.5.9 1 1.8 2.1 2.7 3.1.1.1.2.3.3.4.1.1.2.3.3.4.2.2.4.5.6.7.2.2.3.4.5.6.2.2.3.5.5.7.6.8 1.2 1.6 1.7 2.5.1.1.2.3.3.4.1.1.2.3.3.4.5.8 1.1 1.7 1.6 2.5.2.3.3.6.5.8.2.3.3.6.5.9.1.2.2.4.4.6.1.2.2.3.2.5s.2.3.2.5c.9 1.8 1.8 3.5 2.5 5.2.1.2.1.3.2.5s.1.3.2.5c0 .1 0 .1.1.2.2.4.3.8.5 1.2.2.4.3.9.5 1.3.3.9.7 1.9.9 2.8v.2c.1.2.1.3.2.5s.1.4.1.5c.6 2.1 1.1 4.2 1.5 6.2 0 .2.1.4.1.6v.1c0 .2.1.3.1.5.4 2.4.6 4.7.6 6.8v1.3c0 .8-.1 1.6-.2 2.3-.1.8-.2 1.5-.3 2.1-.2.8-.3 1.6-.5 2.4-.1.6-.2 1.1-.3 1.7l-.3 1.5c-.4 2.1-.8 4-1.2 5.6-.1.6-.3 1.2-.4 1.7-.8.7-.8 1.1-.9 1.4z"/><ellipse transform="rotate(-77.467 570.628 95.23)" class="st8" cx="570.6" cy="95.2" rx="43.2" ry="31.1"/><path d="M400.5 331s-23.4 3.7-16.5 60.1c0 0-5 80.3-19.3 115.1 0 0 21.1 30.3 77.5 13.8l22-60.5h5l14.2 39.4 77.5 1.8-19.3-86.2s-2.8-27.1-11.9-39.4c0 0-3.1-24.8-8.9-26.2 0 0-49.4 24.3-68.2 13.8-18.6-10.6-52.1-31.7-52.1-31.7z" style="fill:#3a6393"/><path class="st13" d="M545.8 79.3s-6.5-7.5 1.5-18.5 22.4-17.4 22.4-17.4 21-4 31.1 10.4c0 0 8.3 5.8 9.2 16.2.9 10.4-2.5 32.2-11.6 38.8 0 0 2.4-25.9 3.8-29.5 0 0 .4-6.6-7.8-1.7-8.3 4.9-28.4-13.5-28.4-13.5s-3.1-2.1-7 4c-4.1 6.1-13.2 11.2-13.2 11.2z"/><ellipse transform="rotate(-77.467 542.964 79.273)" class="st8" cx="543" cy="79.3" rx="9.4" ry="6.8"/><path d="M546.1 217.7c3.5 41.9-12.2 95.5-25.1 131.2-8.4 23.3-15.7 39-15.7 39-71.5-2.7-102.5-46.5-108.1-55.5-.7-1.1-1-1.6-1-1.6 1-.8 1.9-1.6 2.8-2.4 31.4-27.9 36.1-66.4 36.8-75.9.2-3 .4-6.1 1.2-9.1.5-1.7.9-3.3 1.3-5 6-23.6 7.5-42 30.7-74 31.4-43.4 48-40 48-40 .3.4.7.8 1 1.3 14.2 17.9 31.2 23.3 42.1 30.2h.1c10.4 6.6 29.6 35.5 29.6 35.5l-43.7 26.3z" style="fill:#ff4d53"/><g style="opacity:.32"><path class="st17" d="M538.3 236.9c-.5 11-1.8 21.9-3.5 32.8-1.8 10.9-4.1 21.6-6.8 32.3-.7 2.7-1.4 5.3-2.2 8l-2.4 7.9c-.8 2.6-1.8 5.2-2.6 7.8l-1.3 3.9c-.4 1.3-1 2.6-1.5 3.9l-3 7.7-3.3 7.6-1.7 3.8-1.9 3.7c-1.2 2.5-2.5 4.9-3.8 7.3 1.1-2.5 2.2-5.1 3.3-7.6l1.7-3.8 1.5-3.8 3-7.7 2.8-7.7c3.6-10.4 6.8-20.8 9.5-31.5 2.8-10.6 5.2-21.3 7.2-32.1l1.5-8.1 1.3-8.1c.9-5.4 1.6-10.8 2.2-16.3z"/></g><path d="M407.8 326.4c-3.1.7-6.1 1.4-8.8 1.9 31.4-27.9 36.1-66.4 36.8-75.9.2-3 .4-6.1 1.2-9.1.5-1.7.9-3.3 1.3-5 3.1 5.1 4.8 11 5 17 .5 19.8-2.3 63.4-35.5 71.1z" style="opacity:.19;fill:#231f20"/><g><path class="st8" d="m549 212.1 57.9 29s23.2 14.1 32.7-7.3c0 0 2.4-32.1 1.5-48.3 0 0 10.7-10.1 4.9-20.8-5.8-10.7-17.1-13.1-17.1-13.1s-8.8-1.1-10.7 7.9-6.3 14.1-6.3 14.1-.4 9.1 5.4 10.6c5.8 1.5 3.7 2.8 3.7 2.8l-2.1 20.5-33.5-18.6-36.4 23.2z"/><path d="m540.8 219.6-26.1-21.7c-10.5-8.7-15.1-22.8-11.1-35.8 2.9-9.4 10-17.6 26.2-17.1 0 0 15-1.8 37.3 16.9l22.6 29.4-44 31-4.9-2.7z" style="fill:#e84652"/></g><path class="st20" d="M481.2 391.4c-.8 5.5-1.8 11-2.9 16.4-1 5.5-2.2 10.9-3.4 16.3-1.2 5.4-2.5 10.8-3.8 16.2-1.3 5.4-2.8 10.8-4.4 16.1.8-5.5 1.8-11 2.9-16.4 1-5.5 2.2-10.9 3.4-16.3 1.2-5.4 2.5-10.8 3.8-16.2 1.4-5.4 2.9-10.7 4.4-16.1zM538.8 423.8c1.1 5.5 2 10.9 2.9 16.4.9 5.5 1.6 11 2.3 16.5.7 5.5 1.3 11 1.9 16.6.6 5.5 1 11.1 1.3 16.6-1.1-5.5-2-10.9-2.9-16.4-.9-5.5-1.6-11-2.3-16.5-.7-5.5-1.3-11-1.9-16.6-.6-5.5-1-11-1.3-16.6zM478.1 423.3c.3 2.8.5 5.6.5 8.4.1 2.8 0 5.6 0 8.4-.1 2.8-.2 5.6-.5 8.4-.2 2.8-.5 5.6-1 8.4-.3-2.8-.5-5.6-.5-8.4-.1-2.8 0-5.6 0-8.4.1-2.8.2-5.6.5-8.4.3-2.8.5-5.6 1-8.4zM382.2 444.4c.5 5.2.5 10.4.2 15.6-.3 5.2-.8 10.4-1.7 15.5-.9 5.1-2.1 10.2-3.9 15.1-1.8 4.9-4.1 9.7-7.5 13.7 2.6-4.5 4.5-9.3 6-14.2.7-2.5 1.4-4.9 1.9-7.4.6-2.5 1.1-5 1.5-7.6.9-5.1 1.5-10.2 2.1-15.3.6-5 1-10.2 1.4-15.4z"/><g style="opacity:.47"><path class="st17" d="M406.5 331c4.8 5.7 10.1 10.8 15.7 15.6 5.6 4.8 11.5 9.2 17.8 13.1 6.2 3.9 12.7 7.5 19.5 10.4 6.7 3.1 13.7 5.4 20.8 7.6l-5.4-1.2c-1.8-.4-3.6-.8-5.4-1.4l-5.3-1.7c-.4-.1-.9-.3-1.3-.4l-1.3-.5-2.6-1c-3.5-1.3-6.8-3-10.2-4.6-.9-.4-1.7-.9-2.5-1.3l-2.4-1.4-2.4-1.4-2.4-1.5c-1.6-1-3.2-2-4.7-3.1l-4.5-3.3c-1.5-1.2-2.9-2.4-4.3-3.5-1.5-1.2-2.8-2.5-4.2-3.7-5.8-5-10.8-10.5-14.9-16.7z"/></g><path class="st8" d="M603.8 127.1s-10.4 17.3 0 24.4 20.5-1 20.5-1-9.8-20.1-20.5-23.4z"/><g><path d="M681.6 351.6c0 1.6-.2 3.2-.5 4.7-.3 1.2-.6 2.3-1.1 3.3-3.1 7.4-10.5 12.6-19 12.6-11.4 0-20.6-9.2-20.6-20.6v-.2c0-1.7.2-3.2.6-4.8 2.2-9 10.4-15.6 20-15.6 11.3 0 20.6 9.2 20.6 20.6z" style="fill:#c8d657"/><path class="st7" d="M681 356.4c-.3 1.2-.6 2.3-1.1 3.3-2.3.8-4.3 1.2-6.1 1.2-1.3 0-2.5-.2-3.6-.7-3.6-1.7-4.9-5.6-6.3-9.8-1.2-3.7-2.5-7.6-5.5-10-1.2-1-2.5-1.3-3.9-1.1-3.6.5-8.2 4.6-13 11.5-.3.5-.8.7-1.3.6 0-1.7.2-3.2.6-4.8 4.8-6.3 9.2-9.7 13.2-10.3 2.3-.3 4.4.3 6.2 1.8 3.7 3 5.2 7.5 6.5 11.4 1.2 3.7 2.3 6.9 4.7 8 1.9.9 4.7.5 8.5-1.1.5-.1.8-.1 1.1 0z"/></g></g></svg>