<svg version="1.1" id="Layer_1" xmlns="http://www.w3.org/2000/svg" xmlns:xlink="http://www.w3.org/1999/xlink" x="0" y="0" viewBox="0 0 1000 696" style="enable-background:new 0 0 1000 696" xml:space="preserve"><style>.st2{clip-path:url(#SVGID_2_)}.st3{fill:none;stroke:#193438;stroke-miterlimit:10}.st4{fill:#193438}.st5{fill:#4570ad}.st6{fill:#d87666}.st11{fill:#383637}.st12{fill:#ccc}.st15{fill:#ececec}.st16{fill:#fcc0a0}.st17{fill:#0d1e24}.st19{fill:#1b1c1c}.st22{clip-path:url(#SVGID_2_);fill:#ececec}.st23{opacity:.47}.st29{fill:#ffccb2}.st33{fill:#1a2c36}</style><path d="M88.5 670S-2.2 535 53.2 301.6C102.5 94.1 187.1-31.5 470.4 23.2c256.4 49.6 352-63.8 430.8 129.6s18 198.7 44.3 279.6c26.2 80.9 40.1 201.1 2.3 232.4S88.5 670 88.5 670z" style="fill:#eae1fb"/><defs><path id="SVGID_1_" d="M114.1 657.9S28.9 529.4 81 307.4C127.2 110 206.7-9.5 472.8 42.6 713.7 89.8 803.4-18 877.4 165.9s17 189.1 41.6 266 37.7 191.3 2.2 221.1-807.1 4.9-807.1 4.9z"/></defs><clipPath id="SVGID_2_"><use xlink:href="#SVGID_1_" style="overflow:visible"/></clipPath><path style="clip-path:url(#SVGID_2_);fill:#cfb5f6" d="M0 30h1000v639H0z"/><g class="st2"><path class="st3" d="M288.8 168.1c4.9-7 7.7-15.4 7.7-24.6 0-23.8-19.2-43-43-43s-43 19.2-43 43 19.2 43 43 43c8.4 0 16.2-2.4 22.8-6.6l24.9 2.6-12.4-14.4z"/><circle class="st4" cx="242" cy="143" r="3.5"/><circle class="st4" cx="256" cy="143" r="3.5"/><circle class="st4" cx="270" cy="143" r="3.5"/></g><g class="st2"><path class="st3" d="M776.8 168.6c-4.1-5.8-6.5-12.9-6.5-20.6 0-19.9 16.1-36 36-36s36 16.1 36 36-16.1 36-36 36c-7 0-13.6-2-19.1-5.5l-20.9 2.2 10.5-12.1z"/><circle class="st4" cx="808.5" cy="160.6" r="2.5"/><path class="st4" d="M806.6 133.1c1 0 2 .1 3.1.4 3.9 1.1 6.6 4.8 6.2 8.8-.4 4.3-4.2 6.3-6.9 7v6.2c0 .8-.7 1.5-1.5 1.5s-1.5-.7-1.5-1.5v-8.7l1.3-.2c.2 0 5.2-.7 5.6-4.6.3-2.5-1.5-4.9-4-5.6-3.8-1-6.3.3-7.3 4.1-.2.8-1 1.3-1.8 1.1-.8-.2-1.3-1-1.1-1.8 1.1-4.4 4-6.7 7.9-6.7z"/></g><g class="st2"><path class="st5" d="M317.2 619.2v11.2s29.1 19.1 25.7 28.3l-48.3-2.1V616l22.6 3.2z"/><path class="st6" d="m335.5 179.9-5.5 62.2 39.5 22.4V232l-1.5-18z"/><ellipse transform="rotate(-10.877 361.007 177.628)" class="st6" cx="361" cy="177.6" rx="26" ry="37"/><ellipse transform="rotate(-10.877 333.02 183.01)" class="st6" cx="333" cy="183" rx="4.5" ry="6.9"/><path class="st5" d="M272.5 635v22.2L330 660s-4-10.5-28.8-25h-28.7z"/><path d="M267.3 381s-3.8 54.5 3.2 87.5c0 0 3.8 57.5-2.1 78.8-5.9 21.2.6 88.1.6 88.1h34.1L308 622l11 2 34.5-87.5s3.2-11.7 4.6-28.3l6.4-120.7-97.2-6.5z" style="fill:#1a2e35"/><path d="M345.5 156.5s7-10.3 15.5-6.1c8.5 4.1 23.9 20.1 26.7 6.1 0 0 1.8-11-7.2-16s-9-8.4-19.5-8.7c-10.5-.3-11.5.2-15.5 3.4s-9 4.1-11.5 11.7-4 13.8-4 15.2c0 7.9 5.4 20.4 5.4 20.4s7.1-6 7.1-10 9-13 3-16z" style="fill:#282828"/><path class="st6" d="M249.5 229.5h-27.6l-37.4-34s6-11-7-25c0 0-5-3-17 0l-15.7-13.4s-4.7-2.1 0 5.6c4.7 7.8 15 13.8 10.3 19.8 0 0-2.7 6 3.3 15s45 50 45 50 6 12 20 14 30.7 0 30.7 0l-4.6-32zM387.8 306.3v11.9l30.1-6s11.5-7.3 27.5 6 20 17.3 20 17.3-9.2 3-19.1 0l-8.9-6s2.3 12.8-5.8 3.4c0 0-4.2-11.4-16.2-6.4l-24.3 15.1c-5.7 3.6-13.1 3.5-18.5-.6-1.7-1.3-3-2.9-3-4.6-.2-5.9 0-30.2 0-30.2h18.2z"/><path d="m333 205-14.5 7.5-73 14 6 46 30.9-8s-25.9 106-17.9 122l105 4.6s-2-62.6 3-78.6l21-3v-56.6s-5-9.4-20-19.4L368 218l-3.5 22.5-10 8-14-17L333 205z" style="fill:#ff4d53"/><path style="fill:#dd3e4b" d="M318.5 212.5 326 237l27 30 21-20-.5-13.5L368 218l-3.5 22.5-10 8-14-17L333 205z"/><path class="st11" d="M332 325c-.5 0-.9-.4-1-.9l-13.5-111c-.1-.5.3-1 .9-1.1.5-.1 1 .3 1.1.9l13.5 111c.1.5-.3 1-.9 1.1h-.1zM359 328h-.2c-.5-.1-.9-.6-.8-1.2l18-90.6c.1-.5.6-.9 1.2-.8.5.1.9.6.8 1.2l-18 90.6c-.1.5-.5.8-1 .8z"/><path class="st12" d="M330 323.1h31v13.8h-31z"/><path style="fill:#fff" d="M331 324h29v12h-29z"/></g><path style="clip-path:url(#SVGID_2_);fill:#1a2e35" d="M81 657h840v12H81z"/><g class="st2"><path class="st12" d="M398 442h392v14H398zM402 470h392v14H402zM413 498h392v14H413zM433 533h392v14H433z"/><path transform="rotate(-10.877 447.562 496.406)" class="st12" d="M438.6 446.8h18v99.1h-18z"/><path class="st12" d="m448.1 546.8-21.4 106.8 14.7-1L460.5 547zM502.4 540.1l30.2 112-14.7.2L490 541.4zM730.1 546.7l-21.4 106.8 14.7-.9 19.1-105.7zM784.4 540l30.2 112-14.7.2L772 541.3z"/></g><g class="st2"><path class="st15" d="M403 446h392v14H403zM407 474h392v14H407zM418 502h392v14H418zM438 537h392v14H438z"/><path transform="rotate(-10.877 452.562 500.406)" class="st15" d="M443.6 450.8h18v99.1h-18z"/><path class="st15" d="m453.1 550.8-21.4 106.8 14.7-1L465.5 551zM507.4 544.1l30.2 112-14.7.2L495 545.4zM735.1 550.7l-21.4 106.8 14.7-.9 19.1-105.7zM789.4 544l30.2 112-14.7.2L777 545.3z"/></g><g class="st2"><path class="st16" d="m711.4 209.2 3.3 21.8 33-10.9-3.5-35.7zM684.5 492.5s-5 41.3 0 58.7l10 93.3h29.3l8.7-144-48-8zM736.5 500.5s-1.6 49 5.2 68l11.9 61.5s22.9 5.5 28.9-4.5l-8-128-38 3z"/><path class="st17" d="M724.1 639.8c-3.6-.3-31.9 0-31.9 0s-26 5.5-29.4 11.1c-3.3 5.6 0 6.7 0 6.7h61.3v-17.8zM753.6 630s-24.5 18.3-24.3 20.9c.2 2.6.3 4.3 9.2 3.5 8.9-.9 47.9-9.9 47.9-9.9l-4.1-21.3-28.7 6.8z"/><path d="m678 398-2 103 62.6 7.5 2.4-3.5 41.5-2.4-7.2-70.7s12.1-20.9 5.4-30.4L678 398z" style="fill:#632b18"/><path class="st16" d="m689.4 228.1-17-11.9 2-63.8s1.9-8.1-2-14.1v-21.6s-4.1-4.4-4.5 4.1 0 10.7 0 10.7-7.4-6.2-12.4 2.8-8 13-4 15 5 9 5 16-6.9 53.2-6.9 53.2-5.1 9.8 5.9 19.8 22 21 22 20 11.9-30.2 11.9-30.2z"/><ellipse transform="rotate(-80.776 720.817 177.453)" class="st16" cx="720.8" cy="177.5" rx="35.6" ry="24.3"/><path class="st17" d="M701.4 147.8s17.9 10.2 34 0c0 0 7.1 5.7 3.1 14.7-4 9-3.5 14 .5 18.5 0 0-1.4 18.7 6 13 2.2-1.6 4.7-18.1 4.7-18.1s5.5-13.4-3.8-28.1c0 0-6.3-12.4-22.3-11.3-16.1 1.1-22.2 11.3-22.2 11.3z"/><path class="st5" d="m749.5 205 6.4 11.2s30.6 23.2 30.6 40.2-14 97-3 145H675.7s-10.2-57-7.2-66c0 0-1-27 15-56l-15.6-15.9 20.6-39.1 17 10v-10l44-19.4z"/><path class="st19" d="M732.5 227.1s-1-4.6 8-2.6 46 31 46 31 23 8 29 18 0 59.8 0 59.8-5.4 29.9-32.7 21.6-23.4-29.3-23.4-29.3L737 310.2l-.7-13.1 25.2 21.4 21-56.4-31.2-26.1s-7.8-11.3-18.8-8.9z"/><path class="st19" d="M806.4 265.1s2.3-14.6-7.8-15.1-12.1 6.5-12.1 6.5l5.3 2.1s3.7-7.1 7.7-4.1 1.8 8.6 1.8 8.6l5.1 2z"/><ellipse transform="rotate(-71.161 741.866 177.462)" class="st16" cx="741.8" cy="177.5" rx="8.5" ry="5.8"/><path class="st16" d="m705.5 286.5-21.1 104.6-4.9 29.4s6 13 17 7 7-5 7-5 11-4 4-7-6.1-19.3-6.1-19.3l28.2-65.6s9.9-17.1 8.9-34.1l-33-10z"/><path d="M724.1 229.7c8.3-2.6 19.6-3.3 27.2 7.3 0 0 4.8 7.1 0 29.8l-5.4 31.2-44.5-7.8 10.2-46.7c1.3-6.5 6.1-11.8 12.5-13.8z" style="fill:#396191"/><g style="opacity:.59"><path class="st19" d="M775.3 431.9c-1.6 3.2-3.5 6.3-5.4 9.3-2 3-4.1 5.9-6.5 8.6-.6.7-1.2 1.4-1.8 2-.6.7-1.2 1.3-1.9 2l-2 1.9-2.1 1.8c-2.8 2.3-6 4.3-9.5 5.7l.6-.8c-.8 7.1-1.7 14.3-2.6 21.4-.5 3.6-1 7.1-1.5 10.7-.6 3.5-1.1 7.1-1.7 10.6.2-3.6.5-7.2.7-10.8.3-3.6.6-7.2.9-10.7.6-7.2 1.4-14.3 2.2-21.4l.1-.6.6-.2c3.2-1.2 6.2-3.1 9-5.3 2.8-2.1 5.3-4.7 7.7-7.2 2.4-2.6 4.7-5.3 6.9-8.2 2.3-2.9 4.3-5.8 6.3-8.8z"/></g></g><path class="st22" d="M861.2 648.4c-17.1-15.8-45.6-45-16.2-38.8 0 0 8.3 9.6 1.6-4.5C840 591 836 574 851 579l15 5s5 4.2 0-5.9c-5-10.1-24.7-47.1-5.4-40.1l7.6 7s3.1 2.3 3.4-7.9c.4-10.1-.6-63.1 12.9-55.1s0 63.1 0 63.1 19.8-12.1 20.2-.1c.3 12-12.8 24.5-12.8 24.5s-9.8 16.7 3.2 11.1 24.3 7.8 9.7 20.6L890.9 619s30.2-14.7 20.7 5.2c-5.3 11.1-17 20.3-26.3 26.3-7.6 4.9-17.5 4-24.1-2.1zM101 312h53v16h-53zM133 278h51v13h-51zM167 299h51v13h-51zM472 116h53v17h-53zM516 83h57v17h-57zM566 114h57v17h-57zM830 247h53v13h-53zM875 274h53v13h-53zM832 221h49v12h-49zM459 374h52v17h-52zM533 260h52v17h-52z"/><g class="st2"><path d="M147.4 655.2c-.7 0-1.2-.2-1.3-.2l-4.5-1.5v-.3c-.1-1.7-3-42.4 0-55.5 1.9-8.3 6.2-14.1 9-17.9 1.6-2.2 2.9-4 2.9-5.1 0-.8-.4-2.8-.9-5-1.2-6-2.9-14.3-.7-16.8.5-.6 1.2-.9 2.1-.8h.1c4 0 6.8-14.1 8.9-24.4.7-3.7 1.4-7.2 2.1-9.7 2.7-10 12.7-23.1 13.1-23.7l.6-.8 6.7 24.7-.1.2c-.1.2-9.1 16-8.2 29.4.6 9.7-3.1 15-6.7 20.2-1.5 2.2-3.1 4.5-4.4 7.2-4 8.5 0 21.9 0 22l.2.7-.8-.1c-.1 0-1.5-.2-3 1.2-1.9 1.7-4.1 5.9-3.8 16.2.3 10.2-1.1 12.8-2.4 15.3-1.1 2.1-2.2 4.1-2.2 11.3 0 6.5-1.3 10.7-3.9 12.6-.8.6-2 .8-2.8.8zm-1-1.1c.1 0 1.9.5 3.6-.8 1.6-1.2 3.5-4.2 3.5-11.8 0-7.4 1.2-9.6 2.3-11.7 1.2-2.3 2.5-4.8 2.2-14.8-.3-10.7 2.1-15.1 4.1-17 1.2-1.1 2.3-1.4 3-1.4-.8-2.8-3.5-14.2.2-22.1 1.3-2.7 2.9-5 4.5-7.3 3.7-5.2 7.1-10.2 6.5-19.5-.8-12.9 7.2-27.9 8.2-29.8l-6.1-22.3c-2.3 3.1-10.1 14.1-12.3 22.5-.7 2.5-1.4 5.9-2.1 9.6-2.4 11.8-5.1 25.2-9.9 25.2h-.2c-.6 0-1 .1-1.3.5-1.9 2.2-.1 10.8.9 16 .5 2.4.9 4.3.9 5.2 0 1.5-1.3 3.2-3.1 5.7-2.9 4-7 9.5-8.8 17.6-2.8 12.4-.3 50.9 0 54.9l3.9 1.3z" class="st23"/><path d="M143.7 659.6c0-.4-4.6-39.6 7.8-71.8 12.3-32.1 21.9-76.5 22-77l1 .2c-.1.4-9.6 45-22 77.1-12.3 32-7.8 70.9-7.7 71.3l-1.1.2z" style="fill:#606060" class="st23"/><path d="M142.8 659.6S113 638.4 123 606.2c0 0 6.9-7.4-2.1-21.8s0-31.7 0-31.7-7.9 2-8.9-17.9c-1-19.8-9.6-51.6-9.6-51.6s-5.6-16.2 0-28.2c0 0 18.3 11.4 18.9 28.2s0 30.8 5.8 34.8c5.8 4 15.8 19 10.3 28s5.3 24.5 5.3 24.5.8 18.2 0 24.9c-.8 6.6 7.3 24.6 7.3 24.6s15.6 22.1-7.2 39.6z" style="fill:#55aa83"/><path transform="rotate(-11.146 123.945 557.346)" d="M123.5 460.2h1v194.6h-1z" style="opacity:.44"/><path d="M131.8 659.6s-35.4-11.1-27.1-27.8-4.7-25.6-4.7-25.6 1.1-13.2-3.4-31.9c-4.3-17.8-7.8-28.3-7.8-28.3s13.7 11.7 16 27.4c2.3 15.6 15.2 5.9 14.2 28.8 0 0-2.4 16.3 12.8 20.1 15.2 3.7 0 37.3 0 37.3z" style="fill:#71af75"/></g><path d="M879.4 650.2c-8.2-14.1-21.3-39.5-2.9-29.3 0 0 3.6 8.1 2-2.7s-.8-23 8.3-16.6l9 6.4s2.5 3.8 1.2-3.9c-1.3-7.8-6.9-36.6 4.6-28l3.6 6.2s1.6 2.1 3.9-4.6c2.3-6.7 12.5-42.4 19.9-34.3s-13 42.3-13 42.3 15.8-4 13.5 4.1-13.6 13.8-13.6 13.8-10 9.2-.1 8.1c9.9-1.1 14.7 10.2 2.2 15.8l-12.9 9.1s23.3-3.6 12.8 7.7c-5.8 6.3-15.6 10.1-23 12.2-5.9 1.8-12.3-.8-15.5-6.3z" style="clip-path:url(#SVGID_2_);fill:#e6e6e6"/><g class="st2"><ellipse class="st29" cx="556.2" cy="216.2" rx="24" ry="33.8"/><path d="M533.7 228.2s3.2-13.7 0-23.2c0 0-.2-7.5 6.8-7.5s13-5 13-5 11.9-9 13.9 0 3.9 13.7 6.5 15.8c2.6 2.2 6.2 13.9 6.2 13.9v13.9l4.2 13.9s7.1-3.5 5.1-12.5c0 0 16.8-11 6.4-24 0 0 5-20-3.2-25 0 0-8.1-8.8-15.1-10.9 0 0-1.1-7-11.1-7.1 0 0-14-6-25 2s-14 13-14 19c0 0-5 3.4 0 17.7.1 0-1.5 8.7 6.3 19z" style="fill:#f2f2f2"/><path class="st29" d="m549.5 245.5 2 26 34.9-13-10.8-42.3z"/><path d="m549.5 260.4 34.9-10.4 17.1 28.5s10 14 6 30l13 108s-5.5 6.9-21.2 4c0 0-27.8 4.5-49.8.7 0 0-15.7.6-17.4 8.4 0 0-2.4-22.7 0-44.9s-4.6-48.2-4.6-48.2-4.7-24.9 4.6-38.4l17.4-37.7z" style="fill:#feac02"/><path d="m609 437-11 58s-9 24.3 0 39.7l20.5 72.5L585 618l-26-86v-91.8l50-3.2z" style="fill:#315d84"/><path class="st33" d="M545 625v17l-18.7 6.9s-14.5 3.4-8.4 7.8 52.2 2.3 52.2 2.3l-2.2-38.8L545 625zM592.1 615.7l4.9 9.3s-20 14-19 25c0 0 3 2 5.5 0s40.5-23 40.5-23l-9.9-18.4-22 7.1z"/><path class="st29" d="M552.5 275.5s4.3-21 23.7-11 24.9 19.2 23.1 27.1l-1.8 7.9 23 33.4s7 6.6 8 27.6 5 45 5 45l11.9 6.5s1.1 4.5-3.9 2.5l-5-2s7 8 4 14-13 9.4-16.5-3.3-5.5-23.2-5.5-23.2L601 359.9s-4.7-15.3-14.6-23.4c-9.9-8-33.9-43.6-33.9-43.6s-3-.4 0-17.4z"/><path class="st5" d="M615 412s13.8 2.1-13.1 40.6C575 491 559 501 565 536l6 89-35 5-12-103s-5-18.7 0-41.9l10-63.1 81-10z"/><ellipse class="st29" cx="580.2" cy="222.2" rx="6.2" ry="8.8"/></g></svg>