<svg version="1.1" id="Layer_1" xmlns="http://www.w3.org/2000/svg" x="0" y="0" viewBox="0 0 1000 547.6" style="enable-background:new 0 0 1000 547.6" xml:space="preserve"><style>.st5{fill:#232323}.st6{fill:#679ef0}.st7{fill:#4b73ca}.st9{fill:#252626}.st10{fill:#e59862}.st12{fill:#784dbc}.st15{fill:#1e3964}.st16{fill:#ff4953}.st19{fill:#fff}.st20{fill:#abd3a1}.st22{opacity:.18;fill:#1c2949}.st23{fill:#d88c05}.st24{fill:#ffad00}.st27{fill:#0f2b5b}.st28{fill:#99bcf4}.st30{fill:#252526}.st31{fill:#84b47a}.st32{fill:#7fb078}.st33{fill:#a3c699}.st35{fill:#fcb380}.st36{fill:#a7a9ac}.st40{fill:#4979c1}</style><path d="M917.5 178.2c-74.7-24-136.8-77-136.8-77-89.5-97-173.5-113-286-69.3S338.2 70.2 338.2 70.2c-184 23-158.9 99.8-158.9 99.8l5.8 41.6c6.1 43.7-27.8 82.6-71.9 82.6-59.6 0-108 48.4-108 108s48.4 108 108 108h730c59.6 0 108-48.4 108-108 0-11.7-1.9-23-5.3-33.6l5.8.1c39.5-79.5 40.5-166.5-34.2-190.5z" style="fill:#e3d4f9"/><path d="M927.5 193.2c-74.7-24-136.8-77-136.8-77-89.5-97-173.5-113-286-69.3S348.2 85.2 348.2 85.2c-184 23-158.9 99.8-158.9 99.8l5.8 41.6c6.1 43.7-27.8 82.6-71.9 82.6-59.6 0-108 48.4-108 108s48.4 108 108 108h730c59.6 0 108-48.4 108-108 0-11.7-1.9-23-5.3-33.6l5.8.1c39.5-79.5 40.5-166.5-34.2-190.5z" style="fill:#cfb5f6"/><path style="opacity:.36;fill:#a7a9ac" d="m132.2 457.3 6.3-127.2 43.8-2.8 45.5 13.2h7.4l1.3-111.7 39.7-2.8 3.9-33.2h10.3l-1.3-62.6h56.2v62.6h55.6l-3.1-78 51.6-23.7h14.7V71l55.8 15.4v138.4l179.1-1.3v-30.7h59.1V449z"/><path style="opacity:.6;fill:#fff" d="m177.6 455.9 6.4-127.2 43.7-2.8 45.5 13.2h7.4l1.3-111.7 39.7-2.8 3.9-33.2h10.4l-1.4-62.6h56.3v62.6h55.5l-3-78 51.5-23.7h14.7V69.6L565.3 85v138.4l179.1-1.3v-30.7h59.1v256.2z"/><path d="M973.1 540.8H35.4c-8.8 0-16-7.1-16-16 0-8.8 7.1-16 16-16h937.7c8.8 0 16 7.1 16 16-.1 8.8-7.2 16-16 16z" style="fill:#bcbec0"/><path class="st5" d="M985 526.1H23.5c-2.4 0-4.3-1.8-4-3.9.2-1.7 2-3 4-3H985c2.4 0 4.3 1.8 4 3.9-.3 1.7-2 3-4 3z"/><path class="st6" d="M298.9 429.1s7.1-1.2 13.4 2.8l6.3 3.9 7.5 31.9-1.6 32.7-12 21.5h-63.9l3.8-78.6 31.1-14.4h9.1s2.7-5.3 6.3.2z"/><path class="st7" d="m287.3 465 35.6 4-23.2 10.6zM296.1 513.8l28.4-15.7-12 21.5zM274.4 454l-6.8-17.8 12.4 8.9zM285.1 438.4l-2.4-5.7 9.9-2.7-5 4.2zM296.1 420.4l6.3 2.4-3.5 6.3zM294.5 429.1l-11.8-10.3h8.3zM296.1 430s13-2.2 16.6 4.2c3.5 6.4-2.4-5-16.6-4.2z"/><g><path d="M266.4 439.2s6.2-1 11.6 2.4 5.5 3.4 5.5 3.4l6.5 27.7-1.4 28.3-10.4 18.7h-55.5l3.3-68.3 27-12.5h7.9c.1.2 2.5-4.5 5.5.3z" style="fill:#619dd8"/><path class="st7" d="m256.4 470.4 30.9 3.4-20.2 9.3zM264 512.7l24.7-13.6-10.5 18.7zM245.2 460.8l-5.9-15.4 10.7 7.7zM254.5 447.3l-2.1-4.9 8.6-2.4-4.3 3.6zM264 431.7l5.5 2-3.1 5.5zM262.7 439.2l-10.3-8.9h7.2zM264 440s11.3-1.9 14.4 3.7c3.1 5.5-2-4.4-14.4-3.7z"/></g><g><path class="st6" d="M123.9 454.7s-5.2-.5-9.6 2.8l-4.4 3.2-3.7 23.7 3 23.8 10 15.1 46.7-3.6-7.2-57.2-23.5-8.7-6.6.5c-.1-.1-2.5-3.9-4.7.4z"/><path class="st7" d="m134.3 480.3-25.8 4.8 17.6 6.5zM130.6 516.3l-21.6-9.8 10 15zM143.1 471.5l4-13.4-8.5 7.2zM134.5 460.7l1.4-4.3-7.4-1.5 3.9 2.8zM125.4 448.2l-4.5 2.1 3 4.4zM127 454.4l8.1-8.1-6.1.4zM125.9 455.1s-9.6-.9-11.9 4c-2.2 4.9 1.5-3.7 11.9-4z"/></g><g><path class="st9" d="m34.5 494.6-4.7 4.9s-3.2 2.6 0 7.1c0 0 3.2 2.2 4.7 6.7 1.6 4.5 2.2 5.9 6.7 6.2s6.7-1.7 6.7-1.7.6-2.6-3.4-3.7c0 0-3.5-3.2-3.5-5.7s.2-8.7.2-8.7l-6.7-5.1z"/><path class="st10" d="M119.5 339.1s.6 8 6.5 11.2 21 13.9 21 13.9v7.1l-25.9-8.6s-11.4-4.7-11.1-9.2c.3-4.4 9.5-14.4 9.5-14.4z"/><path class="st9" d="M93 505.2s-4.3 12.3.2 14.3h23.4s3.9-4.5-1.3-5.1-12.8-4.4-14.3-9.2h-8z"/><path d="M67.1 373.3s-7.5 11.1-7.5 27.2-2 27.2-11.4 39-15.4 56-15.4 56l8.7 6.3 62-112.3-36.4-16.2z" style="fill:#6948aa"/><path class="st12" d="m80.9 414 10.3 28.4s2.5 6.7 1.8 14.2c-.7 7.5-1.8 52-1.8 52s13 2.4 13.4 0c.4-2.4 9.7-42.2 9.7-42.2s3.9-18.9 0-27.2l-10.9-49.7-20.6-3.9s-8.1 11.5-1.9 28.4z"/><ellipse class="st10" cx="122.2" cy="281" rx="11.1" ry="15.5"/><path class="st5" d="M132.3 274.6s6.5-1.2 3-9.2L119 263s-9.1-1-8.9 6.8.1 13.1.1 13.1 7.7-3.1 11-10c1.2-2.5 11.1 1.7 11.1 1.7z"/><path class="st10" d="m112.3 284.8-8.1 9.6s-3 8 3.3 10.6c6.2 2.7 9.2-3 9.2-3l4.6-7.7-9-9.5z"/><path d="M107.1 294.4s-5-1.8-11.2 4.1c-6.2 5.9-16.3 18-21.3 41.7l-10.9 33.4s7.1 17.4 32.8 19.5h8.6s13.9-38.7 16.1-55.6c2.2-16.9 1.9-26-4.6-35.5l-9.5-7.6z" style="fill:#feac02"/><path style="fill:#cb5a56" d="m74.5 340.3 39.8 24.8-2.6 8.2L72 347.9z"/><ellipse class="st15" cx="208.7" cy="506.4" rx="10.1" ry="13.7"/><path class="st16" d="m139.2 367.5 7.8 144.3h77.9l5.6-146.1z"/><ellipse class="st15" cx="148.1" cy="506.4" rx="10.1" ry="13.7"/><path d="M234.6 369.1H134.1v-6.2c0-2.1 1.7-3.8 3.8-3.8h92.9c2.1 0 3.8 1.7 3.8 3.8v6.2z" style="fill:#272828"/><ellipse cx="148.1" cy="506.4" rx="5.8" ry="7.9" style="fill:#112135"/><path class="st10" d="m96.1 340.3 5.3 18.3s1.8 9.2 14.5 11.2c12.7 2.1 31.6 5 31.6 5s4.7 5 13.9 1.8c0 0 9.5-.6 3.8-4.7-5.6-4.1-15.7-1.2-15.7-1.2l-33-13.5-1.6-21.7c.1 0-16.4-4.4-18.8 4.8z"/><path class="st12" d="M118.3 334.5s3-21.7-2.7-27c0 0-10.3-13.9-24.2 0-13.9 13.9-6.8 28.7-6.8 28.7s6.3 9.1 9.8 9.5l1.8-3.5 22.1-7.7z"/><path class="st19" d="m198.8 418.2-1-5v-.1c-.8-3-2.1-4.9-3.8-5.6-1.4-.5-2.7-.2-3.4.2l-11.7 9.8 2.5 3 11.1-9.4c.1 0 .8.5 1.5 2.9l.9 4.7-3.4.5 3.2 3.4 3.2 3.4 2.2-4.1 2.2-4.1-3.5.4zM190.5 443.9l4.9 1.4h.1c3 .6 5.3.3 6.7-.9 1.1-1 1.4-2.3 1.3-3.1l-3.6-14.8-3.8.9 3.4 14.2c-.1.1-.8.5-3.2 0l-4.7-1.3 1.1-3.2-4.4 1.3-4.4 1.3 2.7 3.8 2.7 3.8 1.2-3.4zM172.4 423.3l-4 3.2-.1.1c-2.3 2.1-3.3 4.1-3.2 6 .1 1.4 1 2.5 1.8 2.9l14.1 5.8 1.5-3.6-13.5-5.5c0-.1.1-1 1.9-2.6l3.8-3 2 2.8 1.5-4.4 1.5-4.4h-9.2l1.9 2.7z"/><ellipse class="st10" cx="112.3" cy="281" rx="2.7" ry="3.8"/></g><g><path class="st20" d="M490.6 232.7h-13.9v-13.9h9.9c2.2 0 4 1.8 4 4v9.9zM580.4 232.7h-13.9v-13.9h9.9c2.2 0 4 1.8 4 4v9.9zM665 232.7h-13.9v-13.9h9.9c2.2 0 4 1.8 4 4v9.9zM425.4 229h-22.7v-9.8c0-2.3 1.8-4.1 4.1-4.1h13.9c2.6 0 4.6 2.1 4.6 4.6v9.3zM346.8 503.2H233.6c-4.1 0-7.4-3.3-7.4-7.4v-23.5c0-4.1 3.3-7.4 7.4-7.4h113.2c4.1 0 7.4 3.3 7.4 7.4v23.5c.1 4-3.3 7.4-7.4 7.4z"/><path class="st5" d="M244.7 415H903v55.4H244.7z"/><path d="M871.7 215.1H848v-18.8c0-2.7 2.2-4.8 4.8-4.8h14c2.7 0 4.8 2.2 4.8 4.8v18.8z" style="fill:#fd4d53"/><path class="st22" d="M872.3 215.1h-16.6v-11.7c0-2.7 2.2-4.8 4.8-4.8h6.9c2.7 0 4.8 2.2 4.8 4.8v11.7z"/><path class="st23" d="M922.5 223.4H824c-1.8 0-3.2-1.4-3.2-3.2v-1.9c0-1.8 1.4-3.2 3.2-3.2h92.1c3.5 0 6.4 2.9 6.4 6.4v1.9z"/><path class="st24" d="m988.7 431.5.1 52s-.1.5-.3 1.2c-.7 1.7-2.6 4.7-8.1 4.7h-20.1l-.7-4.7-1.1-7.7-56.2-.6s3-28.4-21.9-46.7c0 0-31.3-22.5-63.9 3.5 0 0-23.1 24.3-16.6 60.9-.2 1.6-1 3-2.2 3.9-1.1 1-2.6 1.6-4.2 1.6h-16.1c-3.2 0-5.9-2.4-6.4-5.5 0-.2-.1-.5-.1-.7l-1.4-58s.4-23.2 26.2-26.4l8.3-170.3s-1.8-15.4 16.6-15.4h117.1s13.6.6 15.4 11.8l29.6 92.8v94.6c.1.1 7.2.1 6 9z"/><path class="st23" d="M889.6 424.8s19.3 11.8 22.1 47.3h41.8v-47.3h-63.9z"/><path style="fill:#2e3a6a" d="M855.7 387H877v8.7h-21.3z"/><path class="st23" d="M843.6 321.5h-31.4c-1 0-1.8-.8-1.8-1.8v-77.9c0-1 .8-1.8 1.8-1.8h31.4c1 0 1.8.8 1.8 1.8v77.9c.1 1-.8 1.8-1.8 1.8zM852.9 327.1h2.8v51.6h-2.8zM940.5 321.5h3.2v97.8h-3.2z"/><path style="fill:#ff4d53" d="M974.4 342.4h8.5v62.3h-8.5z"/><path class="st27" d="M856.4 236.3h52.1c2.4 0 4.5 1.5 5.3 3.8l26.4 76.2c1.3 3.6-1.4 7.4-5.3 7.4h-78.5c-3.1 0-5.6-2.5-5.6-5.6v-76.2c0-3.1 2.5-5.6 5.6-5.6zM924.4 234.8H957l28 93.9-26.6-4c-1.2-.2-5.6-3.7-6.1-4.8l-32.6-77.7c-1-2.4 2.3-7.4 4.7-7.4z"/><path class="st28" d="M859.7 239.9h47.7c2.2 0 4.1 1.4 4.8 3.4l24.1 69.8c1.2 3.3-1.3 6.8-4.8 6.8h-71.9c-2.8 0-5.1-2.3-5.1-5.1V245c.1-2.8 2.4-5.1 5.2-5.1zM981.1 323l-17.3-2.4-3.7-.5c-2.8 0-5-4.2-5.4-5.2l-8.2-19.2-3.3-7.7-5-11.8-12.1-28.5c-1.8-3.7-5.8-9.2 5.6-8.2l22.6-.1 1.6 5.1 4.5 14.1 2.7 8.6 11.1 34.6 6.9 21.2z"/><path class="st19" d="m900.6 239.9-46 74.9-.2-51.6.2-.2 14-23.1zM910.5 240.4l-44.2 79.7h8.3l40.8-67.7zM926.7 285.2l-20.1 34.9h12.9l13-18.1zM955.9 244.4l-17.7 31.7-12.1-28.5c-1.8-3.7-5.8-9.2 5.6-8.2l22.6-.1 1.6 5.1zM963.2 267.1l-16.7 28.5-3.3-7.7 17.2-29.4zM974.2 301.7l-10.4 18.9L981 323v-.1z"/><path class="st23" d="M988.6 484.7c-.7 1.7-2.6 4.7-8.1 4.7h-20.1l-.7-4.7h28.9zM800.1 494.2c-.2 1.6-1 3-2.2 3.9-1.1 1-2.6 1.6-4.2 1.6h-16.1c-3.2 0-5.9-2.4-6.4-5.5h28.9z"/><path class="st5" d="M946.4 501h-26.8c-2.5 0-4.5-2-4.5-4.5v-19.9h35.8v19.9c0 2.5-2 4.5-4.5 4.5z"/><path class="st19" d="M943.7 497h-22.3c-1.4 0-2.4-1.1-2.4-2.4v-17.9h27.2v17.9c0 1.3-1.1 2.4-2.5 2.4z"/><path class="st24" d="M753.8 484.7H644.7c-3.7 0-6.7-3-6.7-6.7v-34.5c0-3.7 3-6.7 6.7-6.7h109.1c3.7 0 6.7 3 6.7 6.7V478c0 3.7-3 6.7-6.7 6.7z"/><path class="st22" d="M750.6 484.7H646.4c-5.1 0-9.2-4.1-9.2-9.2v-5.2h122.5v5.2c.1 5.1-4 9.2-9.1 9.2z"/><path class="st22" d="M667.7 436.8h1.9v36.1h-1.9zM733.9 436.8h1.9v36.1h-1.9z"/><circle cx="650.7" cy="457.5" r="7.3" style="opacity:.2;fill:#1c2949"/><ellipse class="st23" cx="649.2" cy="457.5" rx="5.8" ry="7.3"/><path class="st23" d="M661.2 434.2h6.5v2.6h-6.5zM730.6 434.2h6.5v2.6h-6.5z"/><circle class="st5" cx="452" cy="473.7" r="47.2"/><circle class="st19" cx="452" cy="475" r="29"/><circle class="st30" cx="452" cy="475" r="26.4"/><path class="st19" d="m478.4 485.7-11.9-8.1c.1-.8.2-1.7.2-2.6 0-1.7-.3-3.3-.8-4.9l11.7-6.7-4.1-7.2-12.4 7.1c-1.4-1.1-3.1-2-4.8-2.5v-13.6H448v13.6c-1.7.5-3.3 1.3-4.7 2.4l-12.6-7.3-4.1 7.2 11.8 6.8c-.6 1.6-.9 3.3-.9 5 0 .8.1 1.6.2 2.4l-11.9 8.1 4.7 6.8 10.9-7.4c1.8 1.9 4 3.4 6.6 4.2v13.3h8.3V489c2.6-.7 4.9-2.2 6.7-4.1l11 7.5 4.4-6.7zm-26.3-3.8c-3.8 0-6.9-3.1-6.9-6.9 0-3.8 3.1-6.9 6.9-6.9 3.8 0 6.9 3.1 6.9 6.9-.1 3.8-3.1 6.9-6.9 6.9z"/><circle class="st5" cx="555.3" cy="473.7" r="47.2"/><circle class="st19" cx="555.3" cy="475" r="29"/><circle class="st30" cx="555.3" cy="475" r="26.4"/><path class="st19" d="m581.7 485.7-11.9-8.1c.1-.8.2-1.7.2-2.6 0-1.7-.3-3.3-.8-4.9l11.7-6.7-4.1-7.2-12.4 7.1c-1.4-1.1-3.1-2-4.8-2.5v-13.6h-8.3v13.6c-1.7.5-3.3 1.3-4.7 2.4l-12.6-7.3-4.1 7.2 11.8 6.8c-.6 1.6-.9 3.3-.9 5 0 .8.1 1.6.2 2.4l-11.9 8.1 4.7 6.8 10.9-7.4c1.8 1.9 4 3.4 6.6 4.2v13.3h8.3V489c2.6-.7 4.9-2.2 6.7-4.1l11 7.5 4.4-6.7zm-26.4-3.8c-3.8 0-6.9-3.1-6.9-6.9 0-3.8 3.1-6.9 6.9-6.9 3.8 0 6.9 3.1 6.9 6.9 0 3.8-3.1 6.9-6.9 6.9z"/><circle class="st5" cx="850.8" cy="473.7" r="47.2"/><circle class="st19" cx="850.8" cy="475" r="29"/><circle class="st30" cx="850.8" cy="475" r="26.4"/><path class="st19" d="m877.2 485.7-11.9-8.1c.1-.8.2-1.7.2-2.6 0-1.7-.3-3.3-.8-4.9l11.7-6.7-4.1-7.2-12.4 7.1c-1.4-1.1-3.1-2-4.8-2.5v-13.6h-8.3v13.6c-1.7.5-3.3 1.3-4.7 2.4l-12.6-7.3-4.1 7.2L837 470c-.6 1.6-.9 3.3-.9 5 0 .8.1 1.6.2 2.4l-11.9 8.1 4.7 6.8 10.9-7.4c1.8 1.9 4 3.4 6.6 4.2v13.3h8.3v-13.3c2.6-.7 4.9-2.2 6.7-4.1l11 7.5 4.6-6.8zm-26.4-3.8c-3.8 0-6.9-3.1-6.9-6.9 0-3.8 3.1-6.9 6.9-6.9 3.8 0 6.9 3.1 6.9 6.9 0 3.8-3.1 6.9-6.9 6.9z"/><path class="st20" d="M751 415V222.1l-405.1 2.6-59.4 57.1-65.9 175.7h139.6s6.5 3.1 9.5-13.5l5.3-27.4h15.4l-.6 70.2s1.2 9 10.6 12.9c0 0-3.5-42.9 9.5-59.4 0 0 35.7-39.2 75.9-8.1l10.4 11.7h13.3s21.4-30.1 55.3-23.1 42.9 39.9 42.9 39.9V498s12.1 5.3 12.7-21.5 0-65.2 0-65.2.6-7-12.4-9.7c0 0 15.8-9.2 21.2 13.3H751z"/><path class="st31" d="m371.4 404.7 49.1-179h-15.6l-146.8 179z"/><path class="st32" d="M476.6 244.1h-57.3c-1 0-1.9-.8-1.9-1.9v-1.1c0-1 .8-1.9 1.9-1.9h57.3c1 0 1.9.8 1.9 1.9v1.1c-.1 1-.9 1.9-1.9 1.9zM562.5 244.1h-71.7c-1 0-1.9-.8-1.9-1.9v-1.1c0-1 .8-1.9 1.9-1.9h71.7c1 0 1.9.8 1.9 1.9v1.1c0 1-.9 1.9-1.9 1.9zM653.1 244.1h-75.7c-1 0-1.9-.8-1.9-1.9v-1.1c0-1 .8-1.9 1.9-1.9h75.7c1 0 1.9.8 1.9 1.9v1.1c0 1-.9 1.9-1.9 1.9zM739 244.1h-75.7c-1 0-1.9-.8-1.9-1.9v-1.1c0-1 .8-1.9 1.9-1.9H739c1 0 1.9.8 1.9 1.9v1.1c-.1 1-.9 1.9-1.9 1.9zM741.7 287.6H666c-1 0-1.9-.8-1.9-1.9v-1.1c0-1 .8-1.9 1.9-1.9h75.7c1 0 1.9.8 1.9 1.9v1.1c0 1.1-.9 1.9-1.9 1.9zM741.7 330.7H666c-1 0-1.9-.8-1.9-1.9v-1.1c0-1 .8-1.9 1.9-1.9h75.7c1 0 1.9.8 1.9 1.9v1.1c0 1.1-.9 1.9-1.9 1.9zM741.7 373H666c-1 0-1.9-.8-1.9-1.9V370c0-1 .8-1.9 1.9-1.9h75.7c1 0 1.9.8 1.9 1.9v1.1c0 1.1-.9 1.9-1.9 1.9zM653.1 287.6h-75.7c-1 0-1.9-.8-1.9-1.9v-1.1c0-1 .8-1.9 1.9-1.9h75.7c1 0 1.9.8 1.9 1.9v1.1c0 1.1-.9 1.9-1.9 1.9zM653.1 329.5h-75.7c-1 0-1.9-.8-1.9-1.9v-1.1c0-1 .8-1.9 1.9-1.9h75.7c1 0 1.9.8 1.9 1.9v1.1c0 1.1-.9 1.9-1.9 1.9zM653.1 373h-75.7c-1 0-1.9-.8-1.9-1.9V370c0-1 .8-1.9 1.9-1.9h75.7c1 0 1.9.8 1.9 1.9v1.1c0 1.1-.9 1.9-1.9 1.9zM560.7 287.1H489c-1 0-1.9-.8-1.9-1.9v-1.1c0-1 .8-1.9 1.9-1.9h71.7c1 0 1.9.8 1.9 1.9v1.1c0 1.1-.9 1.9-1.9 1.9zM560.7 331.9H489c-1 0-1.9-.8-1.9-1.9v-1c0-1 .8-1.9 1.9-1.9h71.7c1 0 1.9.8 1.9 1.9v1.1c0 1-.9 1.8-1.9 1.8zM560.7 373H489c-1 0-1.9-.8-1.9-1.9V370c0-1 .8-1.9 1.9-1.9h71.7c1 0 1.9.8 1.9 1.9v1.1c0 1.1-.9 1.9-1.9 1.9zM476.6 287.6h-65c-1 0-1.9-.8-1.9-1.9v-1.1c0-1 .8-1.9 1.9-1.9h65c1 0 1.9.8 1.9 1.9v1.1c-.1 1.1-.9 1.9-1.9 1.9zM476.6 329.4h-76.2c-1 0-1.9-.8-1.9-1.9v-1.1c0-1 .8-1.9 1.9-1.9h76.2c1 0 1.9.8 1.9 1.9v1.1c-.1 1.1-.9 1.9-1.9 1.9zM476.6 373h-85.1c-1 0-1.9-.8-1.9-1.9V370c0-1 .8-1.9 1.9-1.9h85.1c1 0 1.9.8 1.9 1.9v1.1c-.1 1.1-.9 1.9-1.9 1.9z"/><path class="st32" d="M485.8 223.4h4.5v176.2h-4.5zM575.7 223.4h4.5v176.2h-4.5zM662.2 222.8h4.5V415h-4.5zM382.8 416.1l-4.9-1.1 43.9-190.2 4.9-1.5z"/><path class="st31" d="M620.4 415s1.6-11.9-12.4-13.3c0 0 16.6-8.8 21.2 13.3h-8.8z"/><circle class="st33" cx="322.7" cy="447.8" r="9"/><circle class="st31" cx="322.7" cy="447.8" r="3.9"/><path class="st33" d="m314.5 451.7-14.9 19.8 7.5 5.2 13.3-19.2z"/><circle class="st33" cx="299.6" cy="480.5" r="9"/><circle class="st31" cx="299.6" cy="480.5" r="3.9"/><path class="st20" d="M342.4 219.2h13.9v13.9h-13.9z"/><path style="fill:none;stroke:#abd3a1;stroke-miterlimit:10" d="M351.9 224.6h4.4v49.2h-4.4z"/></g><g><path class="st35" d="m579.8 296.1-.4 13.8 17-3.2-8.3-14.8z"/><path class="st36" d="m583 508.3.7 10.9H557s-.3-4.1 8.3-4.1c0 0 7.6.6 9.1-7.7s8.6.9 8.6.9zM625.1 501.2s1.2 11.5-1.5 13.3c-2.7 1.8-6.5.9-3.8 3.5 1.2 1.2 3.4 1.3 5.5 1.1 2.6-.3 4.7-2.1 5.7-4.5.6-1.6 1.7-3.5 3.6-4.9 0 0 4.3-6.4 0-8.5l-5-4.7-4.5 4.7z"/><ellipse class="st35" cx="582.6" cy="286.5" rx="9.3" ry="13"/><path d="M575.1 278.9s-6.9-.9-5-6.3c.3-.8.9-1.5 1.1-2.3.6-1.8 2.6-4.8 10.1-3.7l10.5-.2s9.6.5 7.5 12.6-7.8 10.7-7.8 10.7-1-12.5-7.1-11.7c-5.4.7-9.3.9-9.3.9z" style="fill:#20283a"/><path class="st16" d="M579.4 304s2.6 4.2 14-2.8c0 0 8.1 2.2 10.7 19.7 2.7 17.4 1.2 57.8 1 62.1 0 0-17.2 9.8-40.9 5 0 0 8.5-11.8 9.1-16.9.6-5 2.9-26.9 0-35.2-2.9-8.3-5.6-19.5-5.6-19.5l11.7-12.4z"/><path d="M564.2 388s9.7 122.1 9.1 118.3c0 0 4.5 6.2 11.9 2.1l11.2-68.4 3.2-56.4-35.4 4.4z" style="fill:#3c6596"/><path d="M569.2 386.8s23.9 67.1 45.8 95.8l10.1 18.6s5.3-.9 7.4-4.4c0 0-4.7-53.2-14.2-61.8 0 0-12.1-23.7-12.1-37.8s-.9-18.5-.9-18.5l-36.1 8.1z" style="fill:#4570ad"/><path class="st40" d="m546.7 307.9-8.6-6.7 7.4-1.7zM549.3 307.9v-5.3s4.4-.3 4.1 2.7c-.2 2.9-4.1 2.6-4.1 2.6z"/><path class="st6" d="M546.7 307.9s-14.5-.3-21 6.2-11.8 21.6-11.8 21.6l3.8 14.2-8.6 9.8v23.9s9.5 11.5 18.8 11.8c9.3.3 28.2 0 37.4-7.4l9.1-15.1 1.1-31.6-6.7-24.9s-4-8-10.3-8.6-11.8.1-11.8.1z"/><path class="st40" d="m572.7 370.3-23.4 10.1s2.1 4.1 16 7.7c0-.1 9.7-13.1 7.4-17.8zM517 347.5l7.5 10.9-15.4 1.2 8.6-9.7zM524.5 317.1l5.6 15.1s6.2-3.8 3-8.9c-3.3-5-3.8-6.2-3.8-6.2h-4.8zM545.5 310.6l-9.8 2.9 3.6 5.2zM549.3 310.6s12.2-.9 11.9 2.4c-.4 3.2-11.9-2.4-11.9-2.4zM556.4 354.6l-2.9-3 13-9.1 8.8 6-.9 7.6z"/><path class="st40" d="m545.5 310.6 5.9.9-.1-3.9-4.6.3z"/><ellipse transform="rotate(-79.485 590.011 284.364)" class="st35" cx="590" cy="284.4" rx="3.9" ry="2.8"/><path class="st35" d="m555.3 354.6-5-3s-.3-5.2-5.9-2.3-7.4 6.2-3.1 8.3 6.9 2.1 6.9 2.1l4.7 1.8 2.4-6.9z"/><path d="M588.1 330.1s0-11.5 8.3-13c7.1-1.3 8.9 5.3 8.7 21.6-.2 16.3-13.2 30.3-20.7 27.2l-31.5-4.4s-5.9-3.5 2.4-6.8 19.4-2.7 19.4-2.7 9.6 1.8 12.2-6.7c2.7-8.4 1.2-15.2 1.2-15.2z" style="fill:#d3424d"/></g></svg>