<svg version="1.1" id="Layer_1" xmlns="http://www.w3.org/2000/svg" x="0" y="0" viewBox="0 0 819.84 786.54" style="enable-background:new 0 0 819.84 786.54" xml:space="preserve"><style>.st2{fill:#fff}.st3{fill:#f4c495}.st5{fill:#e23434}.st7{fill:#bcbec0}.st8{fill:#fff;stroke:#000;stroke-linecap:round;stroke-linejoin:round;stroke-miterlimit:10}</style><ellipse cx="384.66" cy="736.33" rx="371.33" ry="42.63" style="opacity:.19"/><path d="M72.69 660.78S-89.39 336.3 123.28 146.83 648.07 31.22 648.07 31.22s260.52 91.82 139.89 411.55-563.4 301.81-563.4 301.81-98.8-27.12-151.87-83.8z" style="opacity:.81;fill:#b2ace2"/><path class="st2" d="M71.91 588.01c-42.28-46.62-43.73-164.73-43.74-165.92l1.06-.01c.01 1.18 1.46 118.9 43.46 165.22l-.78.71z"/><path class="st3" d="m301.08 589.51 26.87 14.1-18.85 28.83-30.19-21.81z"/><path class="st2" d="M703.72 717.29H485.46c-11.69 0-21.16-7.97-21.16-17.81v-13.89c0-9.96 9.6-18.04 21.43-18.04h217.99c.15 0 .27.1.27.23-9.75 15.28-9.75 34 0 49.28 0 .12-.12.23-.27.23zM707.21 594.57s-13.37 26.81 2.2 50.38H551.87v-48.77l155.34-1.61z"/><ellipse transform="rotate(-75.812 540.178 179.847)" class="st3" cx="540.18" cy="179.85" rx="66.82" ry="51.35"/><path d="M506.89 138.21s4.84 12.92 50.38 4.2c45.54-8.72 25.19 27.13 25.19 27.13s-17.59 22.7 9.62 23.95l-11.38 25.92s1.77 68.34 38.59 88.69c0 0 77.51 89.14 56.2 177.31 0 0 103.43 3.88 83.33-148.24-1.09-8.26-11.63-75.57-83.33-97.86 0 0-53.7 2.18-39.72-58.4 1.22-5.28 11.26-43.33-33.91-80.15-10.46-8.53-63.95-59.1-102.7-46.51s-48.45 43.6-22.28 73.64c26.16 30.04 21.87 23.5 21.87 23.5s.1-18.52 8.14-13.18z" style="fill:#2c2c2d"/><path class="st3" d="M534.1 231.55s10.66 29.07 0 29.07-29.07-7.75-29.07-7.75 7.83 47.48 38.31 57.17c30.48 9.69 69.24 21.32 68.27 0 0 0-36.64-51.38-26.45-98.41l-6.5-12.68-44.56 32.6z"/><path class="st5" d="M709.41 598.44s10.4-3.55 1.68-11.63H424.94s-26.16 3.88-28.74 32.62 27.45 35.04 27.45 35.04h285.76s10.59-5.01 0-11.79H578.35s-17.12-.81-16.47-22.04 16.79-22.2 16.79-22.2h130.74z"/><path d="M704.68 665.92c1.51-1.25 2.97-3.25 2.3-6.07-.75-3.2-3.76-5.37-7.05-5.37H418.29c-.59 0-1.17.07-1.74.21-4.74 1.16-25.5 7.86-27.78 36.46-2.28 28.53 20.87 37.39 26.32 39.07.7.22 1.41.32 2.14.32h282.33c1.95 0 3.85-.74 5.19-2.16 1.84-1.95 3.34-5.1-.23-8.91-1.34-1.43-3.26-2.19-5.22-2.19L513.26 717c-.34 0-.68-.02-1.02-.07-3.1-.45-16.4-3.61-15.83-24.71.56-20.74 12.82-24.28 16.03-24.85.41-.07.82-.11 1.24-.11l186.39.29c1.68 0 3.32-.56 4.61-1.63z" style="fill:#3573a5"/><path class="st7" d="M636.16 612.74h-12.27a1.06 1.06 0 0 1 0-2.12h12.27a1.06 1.06 0 0 1 0 2.12zM699.46 612.74h-56.52a1.06 1.06 0 0 1 0-2.12h56.52a1.06 1.06 0 0 1 0 2.12zM699.46 620.82h-68.82a1.06 1.06 0 0 1 0-2.12h68.82a1.06 1.06 0 0 1 0 2.12zM625.8 632.44h-13.21a1.06 1.06 0 0 1 0-2.12h13.21c.58 0 1.06.47 1.06 1.06-.01.59-.48 1.06-1.06 1.06zM701.08 632.44h-68.79a1.06 1.06 0 0 1 0-2.12h68.79c.58 0 1.06.47 1.06 1.06-.01.59-.48 1.06-1.06 1.06zM609.94 677.24h-16.2c-.77 0-1.39-.62-1.39-1.39 0-.77.62-1.39 1.39-1.39h16.2c.77 0 1.39.62 1.39 1.39 0 .76-.62 1.39-1.39 1.39zM693.48 677.24h-74.6c-.77 0-1.39-.62-1.39-1.39 0-.77.62-1.39 1.39-1.39h74.6c.77 0 1.39.62 1.39 1.39.01.76-.62 1.39-1.39 1.39zM693.48 687.89h-90.84c-.77 0-1.39-.62-1.39-1.39s.62-1.39 1.39-1.39h90.84c.77 0 1.39.62 1.39 1.39s-.62 1.39-1.39 1.39zM596.26 703.24h-17.44c-.77 0-1.39-.62-1.39-1.39s.62-1.39 1.39-1.39h17.44c.77 0 1.39.62 1.39 1.39s-.62 1.39-1.39 1.39zM695.61 703.24h-90.79c-.77 0-1.39-.62-1.39-1.39s.62-1.39 1.39-1.39h90.79c.77 0 1.39.62 1.39 1.39s-.61 1.39-1.39 1.39z"/><path class="st8" d="m84.59 268.83 394.47 1.92 39.3 282.39-394.04 4.45z"/><path class="st2" d="m124.32 557.59 394.04-4.45"/><path d="M124.32 559.17a1.585 1.585 0 0 1-.01-3.17l394.04-4.45c.9-.03 1.59.69 1.6 1.57.01.87-.69 1.59-1.57 1.6l-394.04 4.45h-.02z"/><path class="st8" d="m128.93 545.28 381.33-4.47M100.52 232.76l-6.54 32.71 30.34 292.12 8.17-21.8z"/><path class="st2" d="M464.3 264.01s18.53-5.22 18.85 25.73l35.21 263.4-16.71-28.98-37.35-260.15z"/><path d="M518.36 553.67c-.18 0-.36-.1-.46-.26l-16.71-28.98a.62.62 0 0 1-.07-.19l-37.35-260.15c-.04-.26.12-.51.38-.58.24-.07 6.01-1.63 11.28 2.33 5.34 4 8.12 12.05 8.24 23.91l35.2 263.33c.03.25-.12.49-.35.57-.05.01-.11.02-.16.02zm-16.21-29.68 15.33 26.58-34.85-260.75c-.13-11.57-2.75-19.33-7.81-23.13-4.04-3.04-8.52-2.53-9.93-2.26l37.26 259.56z"/><path class="st2" d="M93.98 265.47s-12.35-1.45-8.72 18.17l34.88 279.77 4.18-5.81-30.34-292.13z"/><path d="M120.14 564.99a1.58 1.58 0 0 1-1.57-1.39L83.69 283.83c-1.45-7.83-.59-13.56 2.57-16.94 3.27-3.5 7.72-3.02 7.91-3 .74.09 1.31.67 1.39 1.41l30.34 292.12c.04.39-.06.77-.29 1.09l-4.18 5.81c-.31.43-.79.67-1.29.67zM92.55 267.08c-1.09.14-2.71.59-4.02 2.01-2.38 2.57-2.97 7.5-1.72 14.26L121.2 559.2l1.47-2.04-30.12-290.08z"/><path class="st8" d="M100.52 232.76c0 5.09 31.97 306.66 31.97 306.66s135.89-47.96 186.76 3.63c0 0 22.53-35.61 182.4-18.89l-31.25-291.4H333.78s-41.42 7.99-44.33 23.25c0 0-29.79-21.07-48.69-18.89l-140.24-4.36z"/><path class="st2" d="m289.45 256.02 29.8 287.04"/><path d="M319.25 543.58c-.27 0-.5-.2-.53-.47l-29.79-287.04c-.03-.29.18-.55.47-.58.29-.02.55.18.58.47L319.77 543c.03.29-.18.55-.47.58h-.05z"/><path class="st7" d="M306.49 282.41a.527.527 0 0 1-.18-1.02c.88-.33 89.01-33.06 156.71-6.6.27.11.41.41.3.68-.11.27-.41.41-.68.3-67.33-26.32-155.08 6.27-155.96 6.6-.06.03-.13.04-.19.04zM309.63 304.84a.527.527 0 0 1-.18-1.02c.88-.33 89.02-33.06 156.71-6.59.27.11.41.41.3.68-.11.27-.41.4-.68.3-67.31-26.32-155.08 6.27-155.96 6.6-.06.02-.13.03-.19.03zM312.77 327.27a.527.527 0 0 1-.18-1.02c.88-.33 89.02-33.06 156.71-6.6.27.11.41.41.3.68-.11.27-.41.41-.68.3-67.31-26.32-155.08 6.27-155.96 6.6-.06.03-.12.04-.19.04zM315.91 349.71a.527.527 0 0 1-.18-1.02c.88-.33 89.02-33.06 156.71-6.6.27.11.41.41.3.68-.11.27-.41.4-.68.3-67.31-26.32-155.08 6.27-155.96 6.6-.06.02-.12.04-.19.04zM319.06 372.14a.527.527 0 0 1-.18-1.02c.88-.33 89.02-33.06 156.71-6.59.27.11.41.41.3.68-.11.27-.41.4-.68.3-67.31-26.32-155.08 6.27-155.96 6.6a.68.68 0 0 1-.19.03zM322.2 394.57a.527.527 0 0 1-.18-1.02c.88-.33 89.01-33.06 156.71-6.6.27.11.41.41.3.68-.11.27-.41.41-.68.3-67.33-26.32-155.08 6.27-155.96 6.6-.07.03-.13.04-.19.04zM325.34 417a.527.527 0 0 1-.18-1.02c.88-.33 89.02-33.06 156.71-6.6.27.11.41.41.3.68-.11.27-.41.41-.68.3-67.32-26.32-155.08 6.27-155.96 6.6-.06.03-.13.04-.19.04zM328.48 439.43a.527.527 0 0 1-.18-1.02c.88-.33 89.02-33.06 156.71-6.6.27.11.41.41.3.68-.11.27-.41.41-.68.3-67.31-26.32-155.08 6.27-155.96 6.6-.06.03-.13.04-.19.04zM331.62 461.87a.527.527 0 0 1-.18-1.02c.88-.33 89.02-33.06 156.71-6.59.27.11.41.41.3.68-.11.27-.41.41-.68.3-67.31-26.32-155.08 6.27-155.96 6.6-.06.01-.12.03-.19.03zM334.76 484.3a.527.527 0 0 1-.18-1.02c.88-.33 89.02-33.06 156.71-6.6.27.11.41.41.3.68-.11.27-.41.41-.68.3-67.33-26.32-155.08 6.27-155.96 6.6-.06.03-.12.04-.19.04z"/><g><path class="st7" d="M278.49 277.2c.21-.04.38-.21.42-.43a.531.531 0 0 0-.44-.61c-.93-.15-93.78-14.88-154.94 24.41-.25.16-.32.48-.16.73s.48.32.73.16c60.82-39.07 153.27-24.41 154.2-24.26.06.01.12.01.19 0zM279.83 299.81c.21-.04.38-.21.42-.43a.531.531 0 0 0-.44-.61c-.93-.15-93.79-14.87-154.94 24.41-.25.16-.32.48-.16.73.16.24.48.32.73.16 60.81-39.07 153.27-24.41 154.2-24.26.06.01.12.01.19 0zM281.17 322.42c.21-.04.38-.21.42-.43a.531.531 0 0 0-.44-.61c-.93-.15-93.79-14.87-154.94 24.41-.25.16-.32.48-.16.73s.49.32.73.16c60.81-39.07 153.27-24.41 154.2-24.26.06.01.12.01.19 0zM282.51 345.03c.21-.04.38-.21.42-.43a.531.531 0 0 0-.44-.61c-.93-.15-93.79-14.87-154.94 24.41-.25.16-.32.48-.16.73s.48.32.73.16c60.81-39.07 153.27-24.41 154.2-24.26.06.01.12.01.19 0zM283.85 367.64c.21-.04.38-.21.42-.43a.531.531 0 0 0-.44-.61c-.93-.15-93.79-14.87-154.94 24.41-.25.16-.32.48-.16.73.16.24.48.32.73.16 60.81-39.07 153.27-24.41 154.2-24.26.06.01.12.01.19 0zM285.19 390.25c.21-.04.38-.21.42-.43a.531.531 0 0 0-.44-.61c-.93-.15-93.78-14.88-154.94 24.41-.25.16-.32.48-.16.73s.48.32.73.16c60.82-39.07 153.27-24.41 154.2-24.26.06.02.12.01.19 0zM286.53 412.86c.21-.04.38-.21.42-.43a.531.531 0 0 0-.44-.61c-.93-.15-93.79-14.87-154.94 24.41-.25.16-.32.48-.16.73s.49.32.73.16c60.82-39.07 153.27-24.41 154.2-24.26.06.02.12.02.19 0zM287.87 435.48c.21-.04.38-.21.42-.43a.531.531 0 0 0-.44-.61c-.93-.15-93.79-14.87-154.94 24.41-.25.16-.32.48-.16.73s.48.32.73.16c60.81-39.07 153.27-24.41 154.2-24.26.06.01.12.01.19 0zM289.2 458.09c.21-.04.38-.21.42-.43a.531.531 0 0 0-.44-.61c-.93-.15-93.79-14.87-154.94 24.41-.25.16-.32.48-.16.73s.48.32.73.16c60.81-39.07 153.27-24.41 154.2-24.26.07.01.13.01.19 0zM290.55 480.7c.21-.04.38-.21.42-.43a.531.531 0 0 0-.44-.61c-.93-.15-93.79-14.88-154.94 24.41-.25.16-.32.48-.16.73s.49.32.73.16c60.82-39.07 153.27-24.41 154.2-24.26.06.01.12.01.19 0z"/></g><ellipse transform="rotate(-30 589.04 198.969)" class="st3" cx="589.06" cy="198.94" rx="15.24" ry="11.72"/><ellipse transform="rotate(-16.637 183.23 388.961)" class="st3" cx="183.26" cy="389" rx="35.24" ry="44.33"/><path d="M208.09 361.36s23.23-14.51 14.51-27.59-16.92-28.34-39.34-21.8c-22.43 6.54-52.58 6.54-58.94 28.34-6.36 21.8 10.36 74.85 19.08 77.75s10.17 9.8 10.17 9.8l-2.13-23.33s-2.23-31.52 5.76-31.52 20.87-3.63 26.06-12.35c5.19-8.72 18.34-10.23 24.83.7z"/><ellipse transform="rotate(-34.435 150.752 395.144)" class="st3" cx="150.77" cy="395.18" rx="7.78" ry="11.92"/><path class="st3" d="M151.44 404.54s11.09 35.33-18.95 47.93c0 0 15.02 19.38 46.51 15.5s34.4-22.28 34.4-22.28h-8.72s-14.05-3.15-16.23-20.71l-37.01-20.44z"/><path class="st5" d="M136.13 448.1s28.62 14.53 47.13 7.27 22.39-12.6 22.39-12.6 30.52 10.66 37.79 21.07c7.27 10.42 30.52 65.09 36.82 79.66 6.3 14.57 14.53 37.17 26.16 43.31l-15.8 21.07a29.395 29.395 0 0 1-14.24 10.26l-17.92-21.32 6.3 49.41-118.69 14.53-45.54-6.3-21.33-53.75-6.3-43.12s-2.79-43.6 11.68-63.46 34.35-42.64 51.55-46.03z"/><path class="st2" d="m134.24 650.46 109.68-10.03s8.54.63 18.8-10.1l79.54-53.85s15.52-2.5 7.76 13.04-94.96 73.19-94.96 73.19l-109 11.73-11.82-23.98z"/><path d="M263.29 741.2s54.74-13.26 72.18-48.78c0 0 48.93-77.32 30.04-97.11 0 0-17.95-18.34-48.94 10.24L264.4 643.5l-14.67 8.55-103.67 8.72 18.41 83.81 98.82-3.38z"/><path d="M205.16 717.29c3.39-1.28 42.61 7.92 52.79 21 0 0 21.33 13.08-5.8 25.19s-63.95-.48-66.37-8.24c-2.42-7.75-5.31-11.21-5.31-11.21l15.49-29 9.2 2.26z" style="fill:#1d5168"/><path d="m205.16 713.58-96.89-86.23S57.4 575.03 19.62 604.1s24.22 88.41 24.22 88.41 61.53 43.84 95.92 49.66l43.5 13.08 21.9-41.67z"/><path class="st3" d="m240.04 232.76-28.34-24.71s-42.92-10.9-65.4 7.27-28.34 26.16-28.34 26.16 15.26 5.09 18.17 2.91c0 0 3.63 7.27 20.35 5.09l25.47-14.18 20.31 5.46s-19.28 6.28-26.89 4.36c0 0-6.54 7.99 10.17 10.17s17.44 3.63 29.79-3.63c12.36-7.27 24.71-18.9 24.71-18.9zM431.88 443.5s-13.08-27.61-26.16-31.97c-13.08-4.36-74.12-25.43-74.12-25.43s-5.81 12.35 7.99 17.44 26.89 11.26 26.89 11.26-11.94 32.34 19.83 46.14l38.31 2.91 7.26-20.35z"/><path d="m540.18 259.06-17.37 4.07c-3.29.77-5.24 4.15-4.29 7.39 2.77 9.47 10.22 27.55 28.01 35.65 0 0 75.29 21.8 60.76 0l-3.9-13.56s39.72 23.25 71.85 109.67c0 0 24.73 100.45-42.52 140.8-3.63 2.18-52.81 45.05-124.5 10.17 0 0-82.6-42.15-94.23-74.12l21.8-51.24 31.69 26.53 40.74 18.89-23.74-199.11-6.54-8.72-4.36-32.7c-.01-.02 68.61 14.5 66.6 26.28z" style="fill:#5b3fb2"/><g><path d="M117.42 155.98S94.36 98.83 134.89 43.85c0 0 58.16-71.87 138.89-31.59 0 0 80.84 47.87 21.1 130.62 0 0-50.57 40.53-110.49 3.39-4.51-2.78-38.02-41.75-66.97 9.71z" style="opacity:.79;fill:#3573a5"/><path transform="rotate(-74.16 222.602 67.49)" class="st2" d="M220.14 11.53h4.92v111.91h-4.92z"/><path transform="rotate(-74.16 219.11 86.45)" class="st2" d="M216.58 67.19h5.05v38.51h-5.05z"/></g><g><path d="M422.44 272.01s37.79-48.69 13.81-112.63c0 0-36.33-85.02-124.99-68.31 0 0-90.83 23.98-55.95 119.9 0 0 37.58 52.79 105.37 33.43 5.08-1.46 47.95-29.8 61.76 27.61z" style="fill:#f7ab14"/><path class="st2" d="M289.45 155.7h111.91v4.92H289.45zM324.34 174.83h38.51v5.05h-38.51z"/></g><g><path class="st2" d="M755.46 257.09c-1.88-44.78-24.77-84.65-43.64-110.21-20.47-27.72-40.76-45.06-40.96-45.24l.68-.81c.2.17 20.57 17.58 41.11 45.39 18.97 25.69 41.98 65.76 43.86 110.82l-1.05.05z"/></g><g><path class="st2" d="M603.16 52.7C543.03 17.29 445.28 33.28 444.3 33.45l-.18-1.04c.98-.17 99.11-16.22 159.57 19.38l-.53.91z"/></g><g><path class="st2" d="m728.06 114.89-12.95-7.95-3.87-14.2-13.9-5.04-5.67-13.64-14.41-3.65-2.46-10.01-10.39-.29-2.23-10.15-10.26-.73-3.17-5.29.91-.54 2.89 4.82 10.49.74 2.22 10.12 10.38.28 2.49 10.18 14.32 3.62 5.69 13.7 13.97 5.07 3.91 14.33 12.59 7.73z"/></g><g><path class="st2" d="m33.94 371.59-.83-.65 10.32-13.35-1.73-17 10.45-13.5-1.73-17L61 296.42l.84.64-10.33 13.34 1.74 17-10.46 13.5 1.74 17.01z"/></g><g style="opacity:.22"><path d="m188.45 216.78-6.15.94c-2.05.32-4.11.58-6.16.86-4.11.58-8.22 1.09-12.34 1.59l.27-.12c-2.29 2.07-4.57 4.16-6.89 6.19l-6.94 6.13c-4.66 4.05-9.34 8.09-14.11 12.02 4.43-4.31 8.96-8.5 13.51-12.69l6.87-6.22c2.28-2.09 4.61-4.11 6.92-6.16.08-.07.17-.11.27-.12 4.12-.47 8.24-.92 12.37-1.31 2.06-.2 4.12-.42 6.19-.59l6.19-.52z"/></g></svg>