<svg version="1.1" id="Layer_1" xmlns="http://www.w3.org/2000/svg" x="0" y="0" viewBox="0 0 973.81 867.1" style="enable-background:new 0 0 973.81 867.1" xml:space="preserve"><style>.st1{fill:#aac9e8}.st2{fill:#fff}.st4{fill:#252959}.st5{fill:#1a183d}.st6{fill:#d7daf4}.st8{fill:#f68f80}.st10{fill:#6e6e75}.st13{fill:none;stroke:#3e3e3f;stroke-miterlimit:10}.st14{fill:#5d0e45}.st15{fill:#f1867c}.st17{fill:#f58c86}.st18{fill:#ee505d}.st20{fill:#fda41e}.st21{fill:#b44e0c}.st22{fill:#3270b8}.st23{fill:#2d2d2d}.st24{fill:#331c2d}.st26{opacity:.58;fill:#1a183d}.st28{opacity:.08;fill:#050505}</style><path d="M118.32 865.06 82.2 523.08s-3.72-278.6 255.27-327.82c20.98-3.99 42.47-4.73 63.67-2.19 39.84 4.77 129.3 4.05 188.73-83.33C668.29-5.55 861.09-53.59 973.81 83.66v782.4l-855.49-1z" style="opacity:.56;fill:#caa6ee"/><path class="st1" d="M805.76 454.43s-10.33-39.66 4.1-37.41c14.42 2.26-4.1 37.41-4.1 37.41zM819.54 493.44s-4.87-49.21 11.35-43.57c16.22 5.65-11.35 43.57-11.35 43.57z"/><path class="st1" d="M819.54 493.44s-4.87-49.21 11.35-43.57c16.22 5.65-11.35 43.57-11.35 43.57zM818.08 491.29s-35.51-34.42-41.17-18.21c-5.66 16.21 41.17 18.21 41.17 18.21zM802.99 454.43s-29.51-24.69-35.07-11.19c-5.55 13.5 35.07 11.19 35.07 11.19z"/><path class="st1" d="m823.74 538.13-2.66-.75c10.5-37.13-28.62-103.09-29.01-103.75l2.37-1.42c1.64 2.74 40.12 67.65 29.3 105.92z"/><path class="st1" d="M795.02 435.81s-48.8-29.64-31.04-33.57c19.5-4.31 31.04 33.57 31.04 33.57zM869.65 531.26l-2.74-.37c7.83-58.33-2.92-122.87-13.32-166.74-11.28-47.56-24.58-81.72-24.71-82.06l2.58-1.01c.13.34 13.5 34.68 24.82 82.43 10.46 44.1 21.27 109 13.37 167.75z"/><path class="st1" d="M832.81 287.56c-21.36-30.47-22.75-30.41-42.61-46.85-4.51-3.73-5.14-11.31-1.05-15.5 4.45-4.56 13.25-4.24 30.51 18.83 0 .01 10.11 13.1 13.15 43.52zM843.06 320.26c-26.95-22.85-22.35-15.93-44.59-27.85-4.92-2.64-8.83-7.76-6.02-12.58 3.05-5.24 9.88-11.9 31.28 5.15 0 .01 9.37 8.11 19.33 35.28zM854.98 364.04c-28.44-20.97-26.02-15.6-49.02-25.98-5.09-2.3-9.33-7.15-6.86-12.14 2.69-5.43 9.05-12.54 31.56 3.02.01 0 12.55 8.66 24.32 35.1zM865.63 419.13c-28.82-29.64-26.84-22.9-50.99-39.13-5.34-3.59-9.42-10.04-6.04-15.48 3.69-5.92 11.65-13.16 34.6 9.08.01.01 12.79 12.39 22.43 45.53zM843.24 318.44s-9.49-92.8 10.46-78.31c19.96 14.48-10.46 78.31-10.46 78.31zM855.16 362.47s46.78-94.41 20.64-90.83c-26.14 3.59-20.64 90.83-20.64 90.83zM865.94 416.93s1.49-63.7 16.57-76.75c0 0 11.16-13.74 18.1-1.39s-27.02 50.75-34.67 78.14zM872.05 470.56s.64-53.36 23.2-52.69c0 .01 15.58 3.54-23.2 52.69zM870.36 476.14s-10.12-40.23-22.98-51.86c0 0-16.11-15.17-19.15.75-.01 0 2.77 16.54 42.13 51.11z"/><g><path class="st2" d="M816.22 492.7s-6.06-29.73 4.51-27.49-4.51 27.49-4.51 27.49zM824.86 522.08s-1.65-36.58 10.12-31.76c11.76 4.82-10.12 31.76-10.12 31.76z"/><path class="st2" d="M824.86 522.08s-1.65-36.58 10.12-31.76c11.76 4.82-10.12 31.76-10.12 31.76zM823.86 520.44s-24.89-26.85-29.72-15.09 29.72 15.09 29.72 15.09zM814.16 492.59s-20.84-19.43-25.48-9.66c-4.64 9.76 25.48 9.66 25.48 9.66z"/><path class="st2" d="m826.19 555.3-1.94-.66c9.23-27.03-17.07-77.35-17.34-77.86l1.81-.96c1.11 2.09 26.98 51.61 17.47 79.48z"/><path class="st2" d="M809.01 478.51s-34.9-23.85-21.62-26.05c14.59-2.42 21.62 26.05 21.62 26.05z"/><g><path class="st2" d="m860.41 552.03-2.01-.38c8.1-42.82 2.71-90.96-3.24-123.8-6.45-35.61-14.93-61.39-15.02-61.65l1.94-.64c.09.26 8.61 26.18 15.09 61.93 5.98 33.01 11.4 81.42 3.24 124.54z"/><path class="st2" d="M842.82 370.4c-14.59-23.37-15.61-23.38-29.65-36.33-3.18-2.94-3.35-8.56-.16-11.5 3.47-3.19 9.97-2.61 21.81 15.13.01.01 6.96 10.09 8 32.7zM849.11 394.98c-19.02-17.96-15.9-12.66-31.87-22.35-3.53-2.14-6.22-6.09-3.95-9.54 2.47-3.75 7.77-8.41 22.92 5.05 0-.01 6.61 6.35 12.9 26.84zM856.19 427.82c-20.19-16.63-18.62-12.56-35.21-21.15-3.67-1.9-6.62-5.65-4.59-9.25 2.21-3.91 7.19-8.91 23.21 3.48 0 0 8.93 6.91 16.59 26.92zM861.88 468.97c-20.13-23.06-18.93-17.99-36.15-30.95-3.81-2.87-6.57-7.79-3.85-11.68 2.96-4.23 9.13-9.27 25.22 8.08 0 .01 8.97 9.67 14.78 34.55zM849.31 393.64s-3.34-68.98 10.84-57.49c14.18 11.5-10.84 57.49-10.84 57.49zM856.38 426.67s38.33-67.95 18.86-66.34c-19.47 1.62-18.86 66.34-18.86 66.34zM862.19 467.36s3.62-47.03 15.3-56.09c0 0 8.8-9.72 13.43-.31 4.64 9.41-21.99 36.45-28.73 56.4zM864.58 507.25s2.59-39.43 19.24-38.03c.01 0 11.38 3.23-19.24 38.03zM863.11 511.31s-5.88-30.14-14.94-39.25c0 0-11.31-11.85-14.19-.2 0-.01 1.4 12.33 29.13 39.45z"/></g></g><g style="opacity:.58"><path class="st4" d="M710.94 647.33h12.84v220.76h-12.84zM817.27 651.11h12.84V867.1h-12.84z"/><path class="st4" d="M292.49 626.35h654.17v24.75H292.49z"/></g><g><path class="st5" d="M553.18 532.02h25.67v115.74h-25.67z"/><path class="st5" d="M700.6 541.33H433.95c-10.96 0-19.68-9.18-19.13-20.12l8.89-175.15c.6-11.75 10.3-20.98 22.07-20.98h268.76c10.98 0 19.7 9.25 19.04 20.21L723.2 520.03c-.7 11.96-10.61 21.3-22.6 21.3z"/><path class="st2" d="m719.16 353.89-4.68 66.92-4.63 66.08c-.64 9.11-9.53 16.21-20.28 16.21H450.3c-9.84 0-17.66-6.98-17.17-15.31l4.01-66.98 3.97-66.33c.54-8.95 9.25-15.97 19.81-15.97h241.15c9.86 0 17.68 7.04 17.09 15.38z"/><path class="st2" d="m718.16 353.89-4.68 66.92-4.63 66.08c-.64 9.11-9.53 16.21-20.28 16.21H449.3c-9.84 0-17.66-6.98-17.17-15.31l4.01-66.98 3.97-66.33c.54-8.95 9.25-15.97 19.81-15.97h241.15c9.86 0 17.68 7.04 17.09 15.38z"/><path class="st6" d="M436.14 420.81h137.63v-82.3H456.9s-16.89.41-16.83 15.97c.07 15.56-3.93 66.33-3.93 66.33"/><path class="st2" d="M573.78 338.51v82.3h140.7"/><path d="M575.84 420.81v82.29H449.3c-9.84 0-17.66-6.98-17.17-15.31l4.01-66.98h139.7z" style="fill:none;stroke:#fff;stroke-miterlimit:10"/><path class="st6" d="m714.48 420.81-4.63 66.08c-.64 9.11-9.53 16.21-20.28 16.21H574.46v-82.29h140.02z"/><ellipse class="st8" cx="509.85" cy="372.55" rx="18.11" ry="24.54"/><path class="st2" d="M494.48 387.22s2.98 25.66 6.65 33.58l22.47-1.02 3.58-40.13c.01.01-10.91 31.88-32.7 7.57z"/><path style="fill:#e52525" d="m505.65 399.07 4.2 21.73h6.07l1.03-21.73z"/><ellipse transform="rotate(-14.271 491.925 371.641)" class="st8" cx="491.89" cy="371.62" rx="3.53" ry="5.42"/><ellipse transform="rotate(-80.769 527.909 371.638)" class="st8" cx="527.89" cy="371.62" rx="5.42" ry="3.53"/><path class="st10" d="m523.37 397.08.23 22.7h35.08s.23-6.65-7.8-9.63c-8.02-2.98-20.33-10.61-27.51-13.07zM495.81 397.08l5.32 23.72-41.36-1.02s-3.36-6.78 6.96-10.84c10.33-4.06 29.08-11.86 29.08-11.86z"/><path d="M493.66 367.59s-.33-13.61 7.7-12.24l8.03 1.38s12.5-5.16 14.84.92c2.71 7.02 4.33 15.37 4.33 15.37l-9.54 8.02s.32-1.61-7.63-2.75l-9.56 2.75-9.16-8.48s-1.39 7.11 1 16.05c2.4 8.98 16.19 13.99 16.19 13.99s14.89-.72 18.04-14.9l.07-10.75 2.52-16.53s1.83-10.32-4.59-12.38c0 0 0-5.73-9.63-4.36 0 0-5.64-2.95-10.62-.21 0 0-6.58-.7-9.56 4.57 0 0-8.83-.95-5.96 15.69l2.98 6.33.55-2.47z" style="fill:#323233"/><ellipse class="st8" cx="511.45" cy="386.25" rx="5.5" ry="2.43"/><path d="M507.44 386.25c1.41-.29 2.83-.36 4.24-.37 1.41.01 2.83.08 4.24.37-1.41.3-2.83.36-4.24.37-1.41-.01-2.83-.08-4.24-.37z" style="fill:#bc7c75"/><circle class="st13" cx="502.57" cy="369.8" r="5.27"/><circle class="st13" cx="518.71" cy="369.8" r="5.27"/><path class="st13" d="m492.66 367.59 4.64 2.21M507.85 369.8h5.58M523.94 369.98l4.49-2.58"/><g><path class="st14" d="M629.08 368.42s-12.15 17.99-6.88 35.25c0 0 13.61 1.21 16.89-17.13l-10.01-18.12z"/><ellipse class="st15" cx="647.5" cy="371.4" rx="16.66" ry="21.25"/><path class="st15" d="M639.09 386.53s1.83 10.01-3.06 13.19c-4.89 3.19-8.87 4.06-8.87 4.06l15.59 15.53h11.01l13.76-16.39s-14.24-2.08-11.4-13.47l-17.03-2.92z"/><path class="st14" d="M628.62 372.92s8.25-6.8 16.05-17.8c0 0 10.24 10.16 22.2 14.71 0 0 5.08-22.76-17.16-26.87.01 0-28.65-1.07-21.09 29.96z"/><path d="M604.31 420.16s1.15-9.84 11.93-13.45c10.78-3.6 15.59-4.64 15.59-4.64l15.67 14.82 14.48-15.76 15.71 4.73s10.78 2.41 12.84 14.32l-86.22-.02" style="fill:#8922e1"/><ellipse transform="rotate(-13.344 630.231 372.884)" class="st15" cx="630.15" cy="372.92" rx="3.13" ry="4.63"/><ellipse transform="rotate(-76.65 664.14 372.913)" class="st15" cx="664.15" cy="372.92" rx="4.63" ry="3.13"/></g><g><path class="st17" d="m483.78 471-2.14 17.73 11.07 14.07 13.08-18.5-5.5-2.34.31-10.96z"/><ellipse class="st17" cx="492.71" cy="459.08" rx="14.73" ry="19.57"/><path class="st18" d="m481.64 481.78-18.8 7.34s-13.3 6.27-15.13 13.68h87.13s2.06-4.28-2.52-7.26c-4.59-2.98-31.98-15.15-31.98-15.15l-7.63 16.3-11.07-14.91z"/><path d="M489.67 441.19s-8.25 5.96-8.03 8.25c.23 2.29-2.29 10.32-1.15 13.76 1.15 3.44 4.08 13.73 2.15 17.18 0 0-14.54 2.92-19.81-1.74 0 0-.23-18.65 4.59-22.55 0 0 .46-12.38 5.04-12.38 0 0 3.32-20.18 20.24-15.82 0 0 12.55-4.82 17.37 10.32 0 0 6.65 9.17 5.5 18.11 0 0 6.42 5.96 3.44 14.68 0 0 6.41 7.79-4.36 9.39 0 0-10.28 1.81-12.3.9-2.02-.9-1.79-9.15-1.79-9.15s3.61-4.16 5.23-9.17c0 0 1.74-9.38 0-12.88s-8.56-6.54-10.17-10.59l-5.95 1.69z" style="fill:#513a33"/></g><g><ellipse class="st17" cx="641.54" cy="451.63" rx="17.61" ry="22.7"/><ellipse transform="rotate(-20.528 625.494 454.072)" class="st17" cx="625.56" cy="454.13" rx="3.55" ry="4.85"/><ellipse transform="rotate(-72.663 659.513 455.119)" class="st17" cx="659.56" cy="455.13" rx="4.85" ry="3.55"/><path class="st17" d="m629.22 471.6-1.29 14.3.65 12.53h26.59V470z"/><path class="st20" d="M629.31 480.96s4.59 8.83 15.13 9.82c0 0 10.55.54 10.55-8.64l1.83 21.78h-28.89l1.38-22.96z"/><path class="st21" d="M624.5 453.35s.46-15.84 11.24-14.84c10.78.99 14.9 0 14.9 0s8.09 2.31 8.52 13.12c0 0 5.43-4.65 2.92-16.07 0 0-4.49-7.82-11.18-3.54 0 0-3.7-10.17-14.02-7.53s-12.38 9.75-12.38 9.75-3.44 9.96 0 19.11zM624.91 456.51s7.16 9.03 12.2 14.49c0 0 5.59 2.98 10.4 0 4.82-2.98 11.45-15.87 11.45-15.87s1.08 7.07-3.28 13.6c0 0-1.54 9.72-13.15 10.65 0 0-7.26.93-12.53-6.86 0 0-6.9-10.01-5.09-16.01z"/><path class="st22" d="m628.69 477.64-24.37 15.43s-12.61 4.44-8.48 10.86h37.15c-.01.01-1.09-23.92-4.3-26.29zM652.13 478.64l.18 25.29h36.62s-.23-5.96-5.5-8.71c-5.27-2.75-21.35-13.68-27.76-17.58l-3.54 1z"/><path class="st23" d="M638.84 457.01h-7.35c-1.1 0-2-.9-2-2v-4c0-1.1.9-2 2-2h7.35c1.1 0 2 .9 2 2v4c-.01 1.1-.9 2-2 2zm-7.36-6.99c-.55 0-1 .45-1 1v4c0 .55.45 1 1 1h7.35c.55 0 1-.45 1-1v-4c0-.55-.45-1-1-1h-7.35zM653.67 457.01h-7.35c-1.1 0-2-.9-2-2v-4c0-1.1.9-2 2-2h7.35c1.1 0 2 .9 2 2v4c0 1.1-.9 2-2 2zm-7.36-6.99c-.55 0-1 .45-1 1v4c0 .55.45 1 1 1h7.35c.55 0 1-.45 1-1v-4c0-.55-.45-1-1-1h-7.35z"/><path class="st23" d="M624.64 451.13h5.35v1h-5.35zM640.33 451.13h4.48v1h-4.48z"/><path transform="rotate(-14.247 657.385 451.786)" class="st23" d="M655.18 451.27h4.35v1h-4.35z"/></g></g><g><path class="st22" d="M325.71 769.69s6.88 11.69 52.97 19.95c46.09 8.25 83.24 11.69 83.24 11.69s74.29 2.13 86.68 66.76H233.54l6.88-81.21 85.29-17.19z"/><path class="st24" d="M621.09 598.16c-.52 0-1.04-.16-1.49-.49a2.504 2.504 0 0 1-.52-3.5l38.49-51.82a2.504 2.504 0 0 1 3.5-.52c1.11.82 1.34 2.39.52 3.5l-38.49 51.82c-.5.66-1.25 1.01-2.01 1.01z"/><path class="st8" d="m236.29 396.17-7.57 37.14 79.8 17.89 5.5-55.03z"/><ellipse transform="rotate(-18.986 292.494 357.606)" class="st8" cx="292.49" cy="357.64" rx="48.15" ry="66.5"/><path class="st24" d="M332.14 280.14s4.12 23.29-9.86 35.03c0 0-13.99 8.08-7.56 24.59 0 0 2.78 29.91 25.7 45.68 0 0 10.07 36.87-6.44 37.78-16.51.92-20.85-2.7-20.85-2.7s9.97-50.83 2.96-61.03c-7-10.19-24.46 8.42-24.46 8.42s-2.37 38.63-26.45 37.23l-22.01-.71s-11.69 5.5-19.95-16.51c-8.25-22.01-28.2-82.55 4.13-97.68s52.28-10.09 52.28-10.09 25.22 10.54 52.51-.01z"/><path class="st8" d="m589.87 593.82 23.39-22.93s13.76-3.21 18.8 3.21c0 0 19.26-2.18 20.18 7.85.92 10.03-8.25 37.55-8.25 37.55s0 8.71-11.92 8.71l-37.61-1.86-4.59-32.53z"/><path class="st18" d="M604.31 627.54c-32.66 32.8-78.49 44.73-109.86 49.02-20.83 2.84-35.28 2.33-35.28 2.33-16.83.88-31.87-2.03-44.94-6.84-38.23-14.08-59.62-44.51-59.62-44.51-33.02 73.84-18.58 150.41-18.58 150.41l-22.01 26.14c-81.17 48.84-194.67 29.58-194.67 29.58s-5.51-216.69 8.94-302.67c14.44-85.99 95.62-100.44 95.62-100.44l4.81-12.9c26.83-10.14 81.59 15.63 81.59 15.63l25.04 23.41c30.95 13.07 48.15 50.22 48.15 50.22 13.76 25.45 43.34 64.66 43.34 64.66 37.83 37.15 77.04 33.02 77.04 33.02 44.71 2.75 88.05-14.45 88.05-14.45 11.7 8.26 12.38 37.39 12.38 37.39z"/><path d="M325.71 868.1H89.08L7.91 588.78s-31.65-60.54 31.64-56.41 154.09-.2 154.09-.2 6.39-1.71 14.89-.15c14.14 2.6 34.12 14.29 40.14 58.13l77.04 277.95z" style="fill:#242659"/><path class="st26" d="M325.71 868.1h-40.45l-82.68-292.39s-14.78-37.73 5.95-43.69c14.14 2.6 34.12 14.29 40.14 58.13l77.04 277.95z"/><path d="m271.37 710.91 165.62 3.07c2.36.04 4.7.34 7 .88 14.92 3.54 65.16 20.21 55.77 83.03l-8.94 69.2h-17s15.62-79.52 12.87-90.52c-2.67-10.67-4.69-31.05-43.69-47.95a19.476 19.476 0 0 0-7.67-1.59l-158.83-.67-5.13-15.45z" style="fill:#1f2243"/><path class="st28" d="M364.7 478.92c-5.85.12-11.61 1.29-17.02 3.18-2.72.92-5.27 2.23-7.75 3.59-1.19.77-2.43 1.45-3.53 2.34l-1.69 1.27-1.57 1.4c-.53.46-1.05.93-1.51 1.46l-1.44 1.52c-.94 1.03-1.74 2.18-2.61 3.26-.73 1.19-1.52 2.34-2.21 3.55-.61 1.26-1.29 2.47-1.84 3.75-.5 1.31-1.06 2.59-1.53 3.9l-1.19 4.03c-.31 1.37-.56 2.76-.85 4.13l-.21 1.03-.12 1.05-.24 2.11-.25 2.1c-.07.7-.08 1.42-.12 2.12l-.2 4.25.09 4.28.05 2.14.18 2.14.37 4.28c.13 1.42.37 2.85.54 4.27l.58 4.27.8 4.25.81 4.25 1.01 4.21.97 4.23c.34 1.41.75 2.79 1.13 4.19 1.45 5.61 3.28 11.12 4.95 16.68l.06.21.01.07c.64 3.53 1.66 7.15 2.76 10.65a77.43 77.43 0 0 0 4.11 10.29c1.59 3.33 3.51 6.51 5.78 9.44 2.28 2.91 4.98 5.54 8.17 7.56-1.71-.8-3.35-1.77-4.9-2.88-1.53-1.13-2.95-2.43-4.29-3.79-2.67-2.76-4.91-5.9-6.87-9.19-1.96-3.3-3.58-6.78-5.02-10.33-.72-1.78-1.37-3.58-1.94-5.41-.58-1.84-1.11-3.65-1.56-5.6l.08.28-3-8.3-.73-2.08-.66-2.11-1.3-4.23c-.42-1.41-.89-2.81-1.28-4.24l-1.12-4.29-1.07-4.3-.88-4.36-.87-4.36-.64-4.41c-.19-1.47-.48-2.93-.59-4.42l-.34-4.46-.17-2.23-.03-2.25-.05-4.49c.06-1.5.17-3 .25-4.5.05-.75.07-1.5.15-2.25l.32-2.24.33-2.24.17-1.12.26-1.11c.35-1.48.67-2.96 1.05-4.42l1.42-4.34c.56-1.42 1.2-2.81 1.81-4.21.67-1.37 1.49-2.68 2.23-4.01.83-1.29 1.75-2.52 2.62-3.77 1.02-1.15 1.96-2.35 3.04-3.43 1.12-1.04 2.16-2.17 3.41-3.05l1.8-1.4 1.91-1.24c1.25-.87 2.63-1.5 3.95-2.23 2.73-1.28 5.54-2.36 8.44-3.08 5.76-1.53 11.75-2.02 17.58-1.36zM223.91 430.56c10.17.07 20.32.98 30.41 2.32 10.09 1.35 20.11 3.24 30.01 5.71 9.88 2.53 19.65 5.59 29.01 9.71 2.35 1 4.65 2.12 6.94 3.25l3.38 1.8c1.13.6 2.22 1.27 3.32 1.91 4.36 2.65 8.57 5.58 12.34 9-4.18-2.89-8.55-5.45-13.05-7.71-4.48-2.31-9.13-4.27-13.82-6.09-2.34-.93-4.73-1.73-7.09-2.6-2.39-.79-4.78-1.61-7.19-2.32-4.81-1.5-9.67-2.86-14.57-4.06a311.75 311.75 0 0 0-14.75-3.41c-4.94-1.07-9.91-1.98-14.88-2.9-9.98-1.76-19.99-3.3-30.06-4.61zM494.45 676.56c-20.83 2.84-35.28 2.33-35.28 2.33-16.83.88-31.87-2.03-44.94-6.84-1.77-14.63.42-38.77 33.93-39.25 0 0 50.67-3.41 46.29 43.76z"/><ellipse transform="rotate(-18.986 303.868 363.662)" class="st8" cx="303.86" cy="363.7" rx="12.93" ry="17.86"/><path class="st26" d="M29.46 569.74c12.92-.83 25.83-1.26 38.75-1.55 6.46-.18 12.92-.23 19.38-.33l19.38-.11 19.38.11c6.46.11 12.92.15 19.38.33 12.92.29 25.83.73 38.75 1.56-12.92.83-25.83 1.27-38.75 1.56-6.46.19-12.92.22-19.38.33l-19.38.11-19.38-.11c-6.46-.11-12.92-.15-19.38-.33-12.91-.3-25.83-.74-38.75-1.57z"/></g><g><path class="st20" d="M840.4 625.35h-6.41c-28.23 0-51.12-22.89-51.12-51.12V516.7h108.65v57.53c-.01 28.23-22.89 51.12-51.12 51.12z"/><path class="st24" d="M875.9 531.08c.36 6.45.6 12.89.72 19.33.15 6.44.19 12.89.2 19.33l-.02 4.83c.02 1.61.03 3.25-.03 4.87-.12 3.24-.31 6.49-.76 9.71-.43 3.22-1.03 6.44-2.07 9.54-.54 1.54-1.18 3.06-2.06 4.45-.85 1.39-2.07 2.65-3.61 3.2 1.45-.74 2.46-2.04 3.18-3.44.73-1.41 1.22-2.93 1.61-4.47.81-3.08 1.2-6.26 1.5-9.44.27-3.19.42-6.39.44-9.59.01-1.61.01-3.19-.03-4.8l-.02-4.84c.02-6.45.06-12.9.2-19.35.15-6.44.39-12.89.75-19.33z" style="opacity:.32"/></g><g><path class="st18" d="M733.62 546.13h62.62v80.23h-62.62z"/><path class="st18" d="M806.2 614.72c-4.1 0-8.93-.98-14.47-2.95a2.5 2.5 0 0 1-1.52-3.19 2.5 2.5 0 0 1 3.19-1.52c9.3 3.3 16.19 3.54 19.91.68 3.76-2.88 3.37-8.32 3.36-8.37l-.01-.21v-27.01c-1.24-3.69-3.3-6.18-6.3-7.62-7.04-3.37-16.78.4-16.87.44-1.29.51-2.74-.12-3.24-1.41-.51-1.28.12-2.73 1.4-3.24.48-.19 11.82-4.61 20.85-.31 4.37 2.08 7.42 5.78 9.06 11l.12.37v27.7c.07 1.11.3 8.29-5.26 12.6-2.63 2.02-6.04 3.04-10.22 3.04z"/><path style="opacity:.46;fill:none;stroke:#331c2d;stroke-linecap:round;stroke-miterlimit:10" d="M785.23 558.13v56.59"/></g><g style="opacity:.78"><path class="st2" d="M639.74 87.47h142.4v176.61h-142.4z"/><path style="fill:#e6e7e8" d="M650.58 100.91H771.3v149.72H650.58z"/></g><path class="st2" d="M445.9 250.32h178.8v27.52H445.9z"/><path class="st18" d="M590.67 120.55h28.9V250.2h-28.9z"/><path class="st1" d="M560.01 120.55h28.9V250.2h-28.9z"/><path class="st22" d="M459.25 202.26h45.71v45.71h-45.71z"/><path class="st20" d="M507.87 202.26h45.71v45.71h-45.71z"/><path style="opacity:.53;fill:none;stroke:#fff;stroke-width:3;stroke-miterlimit:10" d="M670.53 151.73h50.53v50.53h-50.53z"/><path style="opacity:.5;fill:none;stroke:#fda41e;stroke-width:3;stroke-miterlimit:10" d="M693.93 177h50.53v50.53h-50.53z"/><path class="st1" d="M733.62 148.06h17.43v17.43h-17.43z"/></svg>