<svg version="1.1" id="Layer_1" xmlns="http://www.w3.org/2000/svg" xmlns:xlink="http://www.w3.org/1999/xlink" x="0" y="0" viewBox="0 0 914.1 745.1" style="enable-background:new 0 0 914.1 745.1" xml:space="preserve"><style>.st2{clip-path:url(#SVGID_2_)}.st3{fill:#aac9e8}.st4{fill:#fff}.st6{fill:#252959}.st7{fill:#1a183d}.st8{fill:#d7daf4}.st10{fill:#f68f80}.st12{fill:#6e6e75}.st15{fill:none;stroke:#3e3e3f;stroke-miterlimit:10}.st16{fill:#5d0e45}.st17{fill:#f1867c}.st19{fill:#f58c86}.st20{fill:#ee505d}.st22{fill:#fda41e}.st23{fill:#b44e0c}.st24{fill:#3270b8}.st25{fill:#2d2d2d}.st26{fill:#331c2d}.st28{opacity:.58;fill:#1a183d}.st30{opacity:8.000000e-02;fill:#050505}.st38{clip-path:url(#SVGID_2_);fill:#aac9e8}</style><defs><path id="SVGID_1_" d="M635.7 742.7s351.4-57.4 264.7-435.1C861.2 136.9 782.6 59.9 708.1 26.8 637.9-4.4 556.9.5 490.1 38.5c-49.5 28.2-135.2 67.7-224 66-137.5-2.7-332.9 144.2-243.5 358.7 0 0 8.9 124 20.6 183.5l5.2 26.4c8.2 41.8 45 71.8 87.6 71.7l499.7-2.1z"/></defs><clipPath id="SVGID_2_"><use xlink:href="#SVGID_1_" style="overflow:visible"/></clipPath><path d="M635.7 742.7s351.4-57.4 264.7-435.1C861.2 136.9 782.6 59.9 708.1 26.8 637.9-4.4 556.9.5 490.1 38.5c-49.5 28.2-135.2 67.7-224 66-137.5-2.7-332.9 144.2-243.5 358.7 0 0 42.8 127 20.6 183.5s19.4 98.4 19.4 98.4l573.1-2.4z" style="clip-path:url(#SVGID_2_);fill:#caa6ee"/><path d="M627.4 725.7s335.1-54.8 252.5-415C842.5 147.9 767.5 74.5 696.5 42.9c-67-29.8-144.2-25.1-207.9 11.2-47.3 26.9-129 64.6-213.7 62.9-131.2-2.5-317.5 137.6-232.2 342.2 0 0 40.8 121.2 19.7 175S80.9 728 80.9 728l546.5-2.3z" style="opacity:.4;clip-path:url(#SVGID_2_);fill:#fff"/><g class="st2"><path class="st3" d="M779.4 331.4s-10.3-39.7 4.1-37.4c14.4 2.3-4.1 37.4-4.1 37.4zM793.1 370.4s-4.9-49.2 11.3-43.6c16.3 5.7-11.3 43.6-11.3 43.6z"/><path class="st3" d="M793.1 370.4s-4.9-49.2 11.3-43.6c16.3 5.7-11.3 43.6-11.3 43.6zM791.7 368.3s-35.5-34.4-41.2-18.2c-5.7 16.2 41.2 18.2 41.2 18.2zM776.6 331.4s-29.5-24.7-35.1-11.2 35.1 11.2 35.1 11.2z"/><path class="st3" d="m797.3 415.1-2.7-.8c10.5-37.1-28.6-103.1-29-103.8l2.4-1.4c1.7 2.8 40.1 67.7 29.3 106z"/><path class="st3" d="M768.6 312.8s-48.8-29.6-31-33.6c19.5-4.3 31 33.6 31 33.6z"/><g><path class="st3" d="m843.2 408.2-2.7-.4c7.8-58.3-2.9-122.9-13.3-166.7-11.3-47.6-24.6-81.7-24.7-82.1l2.6-1c.1.3 13.5 34.7 24.8 82.4 10.4 44.2 21.2 109.1 13.3 167.8z"/><path class="st3" d="M806.4 164.5c-21.4-30.5-22.7-30.4-42.6-46.9-4.5-3.7-5.1-11.3-1-15.5 4.4-4.6 13.3-4.2 30.5 18.8-.1.1 10.1 13.2 13.1 43.6zM816.6 197.2c-26.9-22.9-22.4-15.9-44.6-27.8-4.9-2.6-8.8-7.8-6-12.6 3.1-5.2 9.9-11.9 31.3 5.2 0 0 9.4 8.1 19.3 35.2zM828.6 241c-28.4-21-26-15.6-49-26-5.1-2.3-9.3-7.1-6.9-12.1 2.7-5.4 9-12.5 31.6 3 0 0 12.5 8.7 24.3 35.1zM839.2 296.1c-28.8-29.6-26.8-22.9-51-39.1-5.3-3.6-9.4-10-6-15.5 3.7-5.9 11.7-13.2 34.6 9.1 0 0 12.8 12.4 22.4 45.5zM816.8 195.4s-9.5-92.8 10.5-78.3c19.9 14.5-10.5 78.3-10.5 78.3zM828.8 239.5s46.8-94.4 20.6-90.8c-26.2 3.5-20.6 90.8-20.6 90.8zM839.5 293.9s1.5-63.7 16.6-76.7c0 0 11.2-13.7 18.1-1.4 6.9 12.3-27 50.7-34.7 78.1zM845.6 347.5s.6-53.4 23.2-52.7c0 .1 15.6 3.6-23.2 52.7zM843.9 353.1s-10.1-40.2-23-51.9c0 0-16.1-15.2-19.2.7.1.1 2.9 16.7 42.2 51.2z"/></g></g><g class="st2"><path class="st4" d="M789.8 369.7s-6.1-29.7 4.5-27.5c10.6 2.2-4.5 27.5-4.5 27.5zM798.4 399.1s-1.6-36.6 10.1-31.8c11.8 4.8-10.1 31.8-10.1 31.8z"/><path class="st4" d="M798.4 399.1s-1.6-36.6 10.1-31.8c11.8 4.8-10.1 31.8-10.1 31.8zM797.5 397.4s-24.9-26.9-29.7-15.1c-4.9 11.8 29.7 15.1 29.7 15.1zM787.8 369.6s-20.8-19.4-25.5-9.7c-4.7 9.8 25.5 9.7 25.5 9.7z"/><path class="st4" d="m799.8 432.3-1.9-.7c9.2-27-17.1-77.4-17.3-77.9l1.8-1c1 2.2 26.9 51.7 17.4 79.6z"/><path class="st4" d="M782.6 355.5s-34.9-23.8-21.6-26c14.6-2.5 21.6 26 21.6 26z"/><g><path class="st4" d="m834 429-2-.4c8.1-42.8 2.7-91-3.2-123.8-6.5-35.6-14.9-61.4-15-61.6l1.9-.6c.1.3 8.6 26.2 15.1 61.9 5.9 33 11.4 81.4 3.2 124.5z"/><path class="st4" d="M816.4 247.4c-14.6-23.4-15.6-23.4-29.6-36.3-3.2-2.9-3.4-8.6-.2-11.5 3.5-3.2 10-2.6 21.8 15.1 0 0 7 10.1 8 32.7zM822.7 272c-19-18-15.9-12.7-31.9-22.4-3.5-2.1-6.2-6.1-4-9.5 2.5-3.8 7.8-8.4 22.9 5 .1 0 6.7 6.4 13 26.9zM829.8 304.8c-20.2-16.6-18.6-12.6-35.2-21.1-3.7-1.9-6.6-5.7-4.6-9.2 2.2-3.9 7.2-8.9 23.2 3.5 0-.1 8.9 6.8 16.6 26.8zM835.5 346c-20.1-23.1-18.9-18-36.2-31-3.8-2.9-6.6-7.8-3.8-11.7 3-4.2 9.1-9.3 25.2 8.1 0 0 9 9.7 14.8 34.6zM822.9 270.6s-3.3-69 10.8-57.5-10.8 57.5-10.8 57.5zM830 303.6s38.3-68 18.9-66.3c-19.5 1.6-18.9 66.3-18.9 66.3zM835.8 344.3s3.6-47 15.3-56.1c0 0 8.8-9.7 13.4-.3s-22 36.5-28.7 56.4zM838.2 384.2s2.6-39.4 19.2-38c0 0 11.4 3.2-19.2 38zM836.7 388.3s-5.9-30.1-14.9-39.3c0 0-11.3-11.9-14.2-.2 0 0 1.4 12.4 29.1 39.5z"/></g></g><g style="opacity:.58;clip-path:url(#SVGID_2_)"><path class="st6" d="M684.5 524.3h12.8v220.8h-12.8zM790.9 528.1h12.8v216h-12.8z"/><path class="st6" d="M266.1 503.3h654.2v24.8H266.1z"/></g><g class="st2"><path class="st7" d="M526.8 409h25.7v115.7h-25.7z"/><path class="st7" d="M674.2 418.3H407.5c-11 0-19.7-9.2-19.1-20.1l8.9-175.2c.6-11.8 10.3-21 22.1-21h268.8c11 0 19.7 9.2 19 20.2L696.8 397c-.7 12-10.6 21.3-22.6 21.3z"/><path class="st4" d="m692.8 230.9-4.7 66.9-4.6 66.1c-.6 9.1-9.5 16.2-20.3 16.2H423.9c-9.8 0-17.7-7-17.2-15.3l4-67 4-66.3c.5-8.9 9.2-16 19.8-16h241.2c9.8 0 17.6 7 17.1 15.4z"/><path class="st4" d="m691.8 230.9-4.7 66.9-4.6 66.1c-.6 9.1-9.5 16.2-20.3 16.2H422.9c-9.8 0-17.7-7-17.2-15.3l4-67 4-66.3c.5-8.9 9.2-16 19.8-16h241.2c9.8 0 17.6 7 17.1 15.4z"/><path class="st8" d="M409.7 297.8h137.7v-82.3H430.5s-16.9.4-16.8 16-4 66.3-4 66.3"/><path class="st4" d="M547.4 215.5v82.3h140.7"/><path d="M549.4 297.8v82.3H422.9c-9.8 0-17.7-7-17.2-15.3l4-67h139.7z" style="fill:none;stroke:#fff;stroke-miterlimit:10"/><path class="st8" d="m688.1 297.8-4.6 66.1c-.6 9.1-9.5 16.2-20.3 16.2H548.1v-82.3h140z"/><ellipse class="st10" cx="483.4" cy="249.5" rx="18.1" ry="24.5"/><path class="st4" d="M468.1 264.2s3 25.7 6.6 33.6l22.5-1 3.6-40.1c0-.1-10.9 31.8-32.7 7.5z"/><path style="fill:#e52525" d="m479.2 276.1 4.2 21.7h6.1l1-21.7z"/><ellipse transform="rotate(-14.271 465.513 248.614)" class="st10" cx="465.5" cy="248.6" rx="3.5" ry="5.4"/><ellipse transform="rotate(-80.769 501.499 248.614)" class="st10" cx="501.5" cy="248.6" rx="5.4" ry="3.5"/><path class="st12" d="m497 274.1.2 22.7h35.1s.2-6.6-7.8-9.6-20.4-10.7-27.5-13.1zM469.4 274.1l5.3 23.7-41.4-1s-3.4-6.8 7-10.8c10.3-4.1 29.1-11.9 29.1-11.9z"/><path d="M467.3 244.6s-.3-13.6 7.7-12.2l8 1.4s12.5-5.2 14.8.9c2.7 7 4.3 15.4 4.3 15.4l-9.5 8s.3-1.6-7.6-2.8l-9.6 2.8-9.2-8.5s-1.4 7.1 1 16.1c2.4 9 16.2 14 16.2 14s14.9-.7 18-14.9l.1-10.8 2.5-16.5s1.8-10.3-4.6-12.4c0 0 0-5.7-9.6-4.4 0 0-5.6-2.9-10.6-.2 0 0-6.6-.7-9.6 4.6 0 0-8.8-1-6 15.7l3 6.3.7-2.5z" style="fill:#323233"/><ellipse class="st10" cx="485" cy="263.2" rx="5.5" ry="2.4"/><path d="M481 263.2c1.4-.3 2.8-.4 4.2-.4 1.4 0 2.8.1 4.2.4-1.4.3-2.8.4-4.2.4-1.3 0-2.8-.1-4.2-.4z" style="fill:#bc7c75"/><circle class="st15" cx="476.2" cy="246.8" r="5.3"/><circle class="st15" cx="492.3" cy="246.8" r="5.3"/><path class="st15" d="m466.3 244.6 4.6 2.2M481.4 246.8h5.6M497.5 247l4.5-2.6"/><g><path class="st16" d="M602.7 245.4s-12.2 18-6.9 35.2c0 0 13.6 1.2 16.9-17.1l-10-18.1z"/><ellipse class="st17" cx="621.1" cy="248.4" rx="16.7" ry="21.2"/><path class="st17" d="M612.7 263.5s1.8 10-3.1 13.2c-4.9 3.2-8.9 4.1-8.9 4.1l15.6 15.5h11l13.8-16.4s-14.2-2.1-11.4-13.5l-17-2.9z"/><path class="st16" d="M602.2 249.9s8.3-6.8 16.1-17.8c0 0 10.2 10.2 22.2 14.7 0 0 5.1-22.8-17.2-26.9 0 0-28.7-1-21.1 30z"/><path d="M577.9 297.1s1.1-9.8 11.9-13.4c10.8-3.6 15.6-4.6 15.6-4.6l15.7 14.8 14.5-15.8 15.7 4.7s10.8 2.4 12.8 14.3h-86.2" style="fill:#8922e1"/><ellipse transform="rotate(-13.344 603.807 249.86)" class="st17" cx="603.7" cy="249.9" rx="3.1" ry="4.6"/><ellipse transform="rotate(-76.65 637.73 249.897)" class="st17" cx="637.7" cy="249.9" rx="4.6" ry="3.1"/></g><g><path class="st19" d="m457.4 348-2.2 17.7 11.1 14.1 13.1-18.5-5.5-2.4.3-10.9z"/><ellipse class="st19" cx="466.3" cy="336.1" rx="14.7" ry="19.6"/><path class="st20" d="m455.2 358.8-18.8 7.3s-13.3 6.3-15.1 13.7h87.1s2.1-4.3-2.5-7.3-32-15.1-32-15.1l-7.6 16.3-11.1-14.9z"/><path d="M463.3 318.2s-8.3 6-8 8.3-2.3 10.3-1.1 13.8c1.1 3.4 4.1 13.7 2.2 17.2 0 0-14.5 2.9-19.8-1.7 0 0-.2-18.6 4.6-22.5 0 0 .5-12.4 5-12.4 0 0 3.3-20.2 20.2-15.8 0 0 12.6-4.8 17.4 10.3 0 0 6.6 9.2 5.5 18.1 0 0 6.4 6 3.4 14.7 0 0 6.4 7.8-4.4 9.4 0 0-10.3 1.8-12.3.9s-1.8-9.1-1.8-9.1 3.6-4.2 5.2-9.2c0 0 1.7-9.4 0-12.9s-8.6-6.5-10.2-10.6l-5.9 1.5z" style="fill:#513a33"/></g><g><ellipse class="st19" cx="615.1" cy="328.6" rx="17.6" ry="22.7"/><ellipse transform="rotate(-20.528 599.085 331.068)" class="st19" cx="599.2" cy="331.1" rx="3.6" ry="4.9"/><ellipse transform="rotate(-72.663 633.108 332.107)" class="st19" cx="633.2" cy="332.1" rx="4.9" ry="3.6"/><path class="st19" d="m602.8 348.6-1.3 14.3.7 12.5h26.6V347z"/><path class="st22" d="M602.9 357.9s4.6 8.8 15.1 9.8c0 0 10.5.5 10.5-8.6l1.8 21.8h-28.9l1.5-23z"/><path class="st23" d="M598.1 330.3s.5-15.8 11.2-14.8c10.8 1 14.9 0 14.9 0s8.1 2.3 8.5 13.1c0 0 5.4-4.6 2.9-16.1 0 0-4.5-7.8-11.2-3.5 0 0-3.7-10.2-14-7.5s-12.4 9.7-12.4 9.7-3.4 10 .1 19.1zM598.5 333.5s7.2 9 12.2 14.5c0 0 5.6 3 10.4 0 4.8-3 11.4-15.9 11.4-15.9s1.1 7.1-3.3 13.6c0 0-1.5 9.7-13.2 10.6 0 0-7.3.9-12.5-6.9.1.1-6.8-9.9-5-15.9z"/><path class="st24" d="M602.3 354.6 577.9 370s-12.6 4.4-8.5 10.9h37.1c.1 0-1-23.9-4.2-26.3zM625.7 355.6l.2 25.3h36.6s-.2-6-5.5-8.7c-5.3-2.8-21.3-13.7-27.8-17.6l-3.5 1z"/><path class="st25" d="M612.4 334H605c-1.1 0-2-.9-2-2v-4c0-1.1.9-2 2-2h7.4c1.1 0 2 .9 2 2v4c0 1.1-.9 2-2 2zm-7.3-7c-.5 0-1 .4-1 1v4c0 .5.4 1 1 1h7.4c.5 0 1-.4 1-1v-4c0-.6-.4-1-1-1h-7.4zM627.3 334h-7.4c-1.1 0-2-.9-2-2v-4c0-1.1.9-2 2-2h7.4c1.1 0 2 .9 2 2v4c0 1.1-.9 2-2 2zm-7.4-7c-.5 0-1 .4-1 1v4c0 .5.4 1 1 1h7.4c.6 0 1-.4 1-1v-4c0-.6-.4-1-1-1h-7.4z"/><path class="st25" d="M598.2 328.1h5.3v1h-5.3zM613.9 328.1h4.5v1h-4.5z"/><path transform="rotate(-14.247 630.974 328.762)" class="st25" d="M628.8 328.2h4.3v1h-4.3z"/></g></g><g class="st2"><path class="st24" d="M299.3 646.7s6.9 11.7 53 19.9 83.2 11.7 83.2 11.7 74.3 2.1 86.7 66.8H207.1l6.9-81.2 85.3-17.2z"/><path class="st26" d="M594.7 475.1c-.5 0-1-.2-1.5-.5-1.1-.8-1.3-2.4-.5-3.5l38.5-51.8c.8-1.1 2.4-1.3 3.5-.5s1.3 2.4.5 3.5l-38.5 51.8c-.5.7-1.3 1-2 1z"/><path class="st10" d="m209.9 273.1-7.6 37.2 79.8 17.9 5.5-55.1z"/><ellipse transform="rotate(-18.986 266.078 234.595)" class="st10" cx="266.1" cy="234.6" rx="48.2" ry="66.5"/><path class="st26" d="M305.7 157.1s4.1 23.3-9.9 35c0 0-14 8.1-7.6 24.6 0 0 2.8 29.9 25.7 45.7 0 0 10.1 36.9-6.4 37.8s-20.8-2.7-20.8-2.7 10-50.8 3-61c-7-10.2-24.5 8.4-24.5 8.4s-2.4 38.6-26.5 37.2l-22-.7s-11.7 5.5-19.9-16.5c-8.3-22-28.2-82.5 4.1-97.7s52.3-10.1 52.3-10.1 25.2 10.6 52.5 0z"/><path class="st10" d="m563.5 470.8 23.4-22.9s13.8-3.2 18.8 3.2c0 0 19.3-2.2 20.2 7.9.9 10-8.3 37.5-8.3 37.5s0 8.7-11.9 8.7l-37.6-1.9-4.6-32.5z"/><path class="st20" d="M577.9 504.5c-32.7 32.8-78.5 44.7-109.9 49-20.8 2.8-35.3 2.3-35.3 2.3-16.8.9-31.9-2-44.9-6.8-38.2-14.1-59.6-44.5-59.6-44.5-33 73.8-18.6 150.4-18.6 150.4l-22 26.1c-81.2 48.8-194.7 29.6-194.7 29.6s-5.5-216.6 9-302.6c14.4-86 95.6-100.4 95.6-100.4l4.8-12.9c26.8-10.1 81.6 15.6 81.6 15.6l25 23.4c31 13.1 48.2 50.2 48.2 50.2 13.8 25.5 43.3 64.7 43.3 64.7 37.8 37.1 77 33 77 33 44.7 2.8 88.1-14.4 88.1-14.4 11.7 8.2 12.4 37.3 12.4 37.3z"/><path d="M299.3 745.1H62.7l-81.2-279.3s-31.6-60.5 31.6-56.4 154.1-.2 154.1-.2 6.4-1.7 14.9-.1c14.1 2.6 34.1 14.3 40.1 58.1l77.1 277.9z" style="fill:#242659"/><path class="st28" d="M299.3 745.1h-40.5l-82.7-292.4S161.3 415 182 409c14.1 2.6 34.1 14.3 40.1 58.1l77.2 278z"/><path d="m245 587.9 165.6 3.1c2.4 0 4.7.3 7 .9 14.9 3.5 65.2 20.2 55.8 83l-8.9 69.2h-17s15.6-79.5 12.9-90.5c-2.7-10.7-4.7-31-43.7-48-2.4-1-5-1.6-7.7-1.6l-158.8-.7-5.2-15.4z" style="fill:#1f2243"/><path class="st30" d="M338.3 355.9c-5.9.1-11.6 1.3-17 3.2-2.7.9-5.3 2.2-7.8 3.6-1.2.8-2.4 1.4-3.5 2.3l-1.7 1.3-1.6 1.4c-.5.5-1 .9-1.5 1.5l-1.4 1.5c-.9 1-1.7 2.2-2.6 3.3-.7 1.2-1.5 2.3-2.2 3.5-.6 1.3-1.3 2.5-1.8 3.8-.5 1.3-1.1 2.6-1.5 3.9l-1.2 4c-.3 1.4-.6 2.8-.8 4.1l-.2 1-.1 1.1-.2 2.1-.3 2.1c-.1.7-.1 1.4-.1 2.1l-.2 4.3.1 4.3v2.1l.2 2.1.4 4.3c.1 1.4.4 2.8.5 4.3l.6 4.3.8 4.2.8 4.2 1 4.2 1 4.2c.3 1.4.8 2.8 1.1 4.2 1.4 5.6 3.3 11.1 5 16.7l.1.2v.1c.6 3.5 1.7 7.1 2.8 10.7 1.1 3.5 2.5 7 4.1 10.3 1.6 3.3 3.5 6.5 5.8 9.4 2.3 2.9 5 5.5 8.2 7.6-1.7-.8-3.3-1.8-4.9-2.9-1.5-1.1-2.9-2.4-4.3-3.8-2.7-2.8-4.9-5.9-6.9-9.2-2-3.3-3.6-6.8-5-10.3-.7-1.8-1.4-3.6-1.9-5.4-.6-1.8-1.1-3.6-1.6-5.6l.1.3-3-8.3-.7-2.1-.7-2.1-1.3-4.2c-.4-1.4-.9-2.8-1.3-4.2l-1.1-4.3-1.1-4.3-.9-4.4-.9-4.4-.6-4.4c-.2-1.5-.5-2.9-.6-4.4l-.3-4.5-.2-2.2V406l.3-4.5c.1-.7.1-1.5.2-2.2l.3-2.2.3-2.2.2-1.1.3-1.1c.4-1.5.7-3 1.1-4.4l1.4-4.3 1.8-4.2c.7-1.4 1.5-2.7 2.2-4 .8-1.3 1.7-2.5 2.6-3.8 1-1.1 2-2.4 3-3.4 1.1-1 2.2-2.2 3.4-3.1l1.8-1.4 1.9-1.2c1.2-.9 2.6-1.5 3.9-2.2 2.7-1.3 5.5-2.4 8.4-3.1 5.5-1.9 11.5-2.4 17.3-1.7zM197.5 307.5c10.2.1 20.3 1 30.4 2.3 10.1 1.3 20.1 3.2 30 5.7 9.9 2.5 19.7 5.6 29 9.7 2.4 1 4.7 2.1 6.9 3.2l3.4 1.8c1.1.6 2.2 1.3 3.3 1.9 4.4 2.7 8.6 5.6 12.3 9-4.2-2.9-8.5-5.4-13.1-7.7-4.5-2.3-9.1-4.3-13.8-6.1-2.3-.9-4.7-1.7-7.1-2.6-2.4-.8-4.8-1.6-7.2-2.3-4.8-1.5-9.7-2.9-14.6-4.1-4.9-1.3-9.8-2.4-14.8-3.4-4.9-1.1-9.9-2-14.9-2.9-9.7-1.6-19.7-3.1-29.8-4.5zM468 553.5c-20.8 2.8-35.3 2.3-35.3 2.3-16.8.9-31.9-2-44.9-6.8-1.8-14.6.4-38.8 33.9-39.2.1 0 50.7-3.4 46.3 43.7z"/><ellipse transform="rotate(-18.986 277.452 240.651)" class="st10" cx="277.5" cy="240.7" rx="12.9" ry="17.9"/><path class="st28" d="M3.1 446.7c12.9-.8 25.8-1.3 38.8-1.6 6.5-.2 12.9-.2 19.4-.3l19.4-.1 19.4.1c6.5.1 12.9.1 19.4.3 12.9.3 25.8.7 38.8 1.6-12.9.8-25.8 1.3-38.8 1.6-6.5.2-12.9.2-19.4.3l-19.4.1-19.4-.1c-6.5-.1-12.9-.1-19.4-.3-13-.3-25.9-.7-38.8-1.6z"/></g><g class="st2"><path class="st22" d="M814 502.3h-6.4c-28.2 0-51.1-22.9-51.1-51.1v-57.5h108.6v57.5c0 28.2-22.9 51.1-51.1 51.1z"/><path class="st26" d="M849.5 408.1c.4 6.4.6 12.9.7 19.3.1 6.4.2 12.9.2 19.3v9.7c-.1 3.2-.3 6.5-.8 9.7-.4 3.2-1 6.4-2.1 9.5-.5 1.5-1.2 3.1-2.1 4.5-.8 1.4-2.1 2.6-3.6 3.2 1.4-.7 2.5-2 3.2-3.4.7-1.4 1.2-2.9 1.6-4.5.8-3.1 1.2-6.3 1.5-9.4.3-3.2.4-6.4.4-9.6v-9.6c0-6.4.1-12.9.2-19.3.2-6.5.4-13 .8-19.4z" style="opacity:.32"/></g><g class="st2"><path class="st20" d="M707.2 423.1h62.6v80.2h-62.6z"/><path class="st20" d="M779.8 491.7c-4.1 0-8.9-1-14.5-2.9-1.3-.5-2-1.9-1.5-3.2.5-1.3 1.9-2 3.2-1.5 9.3 3.3 16.2 3.5 19.9.7 3.8-2.9 3.4-8.3 3.4-8.4v-27.2c-1.2-3.7-3.3-6.2-6.3-7.6-7-3.4-16.8.4-16.9.4-1.3.5-2.7-.1-3.2-1.4-.5-1.3.1-2.7 1.4-3.2.5-.2 11.8-4.6 20.8-.3 4.4 2.1 7.4 5.8 9.1 11l.1.4V476c.1 1.1.3 8.3-5.3 12.6-2.6 2.1-6 3.1-10.2 3.1z"/><path style="opacity:.46;fill:none;stroke:#331c2d;stroke-linecap:round;stroke-miterlimit:10" d="M758.8 435.1v56.6"/></g><g style="opacity:.78;clip-path:url(#SVGID_2_)"><path class="st4" d="M613.3-35.5h142.4v176.6H613.3z"/><path style="fill:#e6e7e8" d="M624.2-22.1h120.7v149.7H624.2z"/></g><path style="clip-path:url(#SVGID_2_);fill:#fff" d="M419.5 127.3h178.8v14.4H419.5z"/><path style="clip-path:url(#SVGID_2_);fill:#ee505d" d="M564.3-2.5h28.9v129.6h-28.9z"/><path class="st38" d="M533.6-2.5h28.9v129.6h-28.9z"/><path style="clip-path:url(#SVGID_2_);fill:#3270b8" d="M432.8 79.2h45.7v45.7h-45.7z"/><path style="clip-path:url(#SVGID_2_);fill:#fda41e" d="M481.5 79.2h45.7v45.7h-45.7z"/><path style="opacity:.53;clip-path:url(#SVGID_2_);fill:none;stroke:#fff;stroke-width:3;stroke-miterlimit:10" d="M644.1 28.7h50.5v50.5h-50.5z"/><path style="opacity:.5;clip-path:url(#SVGID_2_);fill:none;stroke:#fda41e;stroke-width:3;stroke-miterlimit:10" d="M667.5 54H718v50.5h-50.5z"/><path class="st38" d="M707.2 25h17.4v17.4h-17.4z"/></svg>