<svg version="1.1" id="Layer_1" xmlns="http://www.w3.org/2000/svg" x="0" y="0" viewBox="0 0 905.27 839.24" style="enable-background:new 0 0 905.27 839.24" xml:space="preserve"><style>.st2{fill:#466eb6}.st3{opacity:.52}.st4{fill:#e8f0fb}.st6{fill:#e0e1e2}.st8{fill:#fff}.st9{fill:#3a3a3a}.st10{fill:#272728}.st13{fill:#fa0}.st14{fill:#963fea}.st15{fill:#f65454}.st18{opacity:.54}.st19{fill:#f95150}.st20{fill:#9a3fe2}.st22{fill:#f7a393}</style><path d="M897.09 452.03c0 246.11-186.41 300.59-432.53 300.59S5.84 698.14 5.84 452.03 205.35 6.41 451.46 6.41s445.63 199.51 445.63 445.62z" style="fill:#e2cef6"/><g style="opacity:.68"><path class="st2" d="M266.66 168.81v-22.28l-14.89-4.2c-1.82-8.9-5.26-17.2-9.97-24.61l9.51-14.08-14.98-16.48-16.6 8.29c-6.58-4.27-13.87-7.53-21.68-9.52l-4.42-18.13h-22.28l-4.81 17.06a73.144 73.144 0 0 0-23.62 8.72l-16.32-9.62-16.1 15.4 9.08 15.7a73.003 73.003 0 0 0-11.06 24.29l-16.33 3.4-1.55 22.22 16.93 5.4a72.957 72.957 0 0 0 6.87 20.22l-10.01 17.39 16.12 15.37 14.09-8.34a73.138 73.138 0 0 0 28.18 13.55l4.81 15.01 22.26-.78 2.77-13.38a72.928 72.928 0 0 0 25.75-9.82l12.45 8.59L248 213.97l-7.53-15.48a73.058 73.058 0 0 0 11.15-26.02l15.04-3.66z"/><g class="st3"><path class="st4" d="M180.03 211.48c-30.62 0-55.53-24.9-55.53-55.51s24.91-55.51 55.53-55.51c23.58 0 44.64 14.94 52.41 37.18a2.51 2.51 0 0 1-1.54 3.2 2.51 2.51 0 0 1-3.2-1.54c-7.06-20.22-26.22-33.81-47.66-33.81-27.85 0-50.5 22.65-50.5 50.49s22.66 50.49 50.5 50.49c14.08 0 27.62-5.94 37.14-16.31a2.513 2.513 0 0 1 3.7 3.4c-10.48 11.39-25.37 17.92-40.85 17.92z"/></g><g class="st3"><path class="st4" d="M180.02 178.68c-12.52 0-22.71-10.19-22.71-22.71 0-12.52 10.19-22.71 22.71-22.71s22.71 10.19 22.71 22.71c0 12.52-10.19 22.71-22.71 22.71zm0-40.39c-9.75 0-17.68 7.93-17.68 17.68s7.93 17.68 17.68 17.68 17.68-7.93 17.68-17.68-7.93-17.68-17.68-17.68z"/></g><path class="st2" d="M64.29 158.78c-1.55 0-2.81-1.26-2.81-2.81 0-2.29.06-4.61.19-6.9.09-1.55 1.4-2.74 2.96-2.65 1.55.09 2.73 1.41 2.65 2.96-.12 2.18-.18 4.4-.18 6.58 0 1.56-1.25 2.82-2.81 2.82zM66.07 138.17a2.803 2.803 0 0 1-2.77-3.29c.82-4.68 1.92-9.36 3.28-13.91a2.803 2.803 0 0 1 3.5-1.88c1.49.44 2.33 2.01 1.88 3.5-1.3 4.34-2.35 8.8-3.13 13.27-.23 1.34-1.42 2.31-2.76 2.31zm224.92-.1c-1.34 0-2.52-.96-2.76-2.32-.78-4.47-1.84-8.93-3.14-13.26-.45-1.49.4-3.05 1.88-3.5 1.48-.44 3.05.4 3.5 1.88 1.36 4.55 2.47 9.22 3.29 13.91a2.803 2.803 0 0 1-2.77 3.29zM74.08 111.45c-.37 0-.75-.07-1.12-.23a2.823 2.823 0 0 1-1.46-3.7c1.9-4.36 4.08-8.66 6.47-12.76a2.808 2.808 0 0 1 4.85 2.83c-2.29 3.91-4.36 8-6.17 12.16a2.795 2.795 0 0 1-2.57 1.7zm208.89-.07c-1.08 0-2.12-.63-2.58-1.69-1.81-4.15-3.88-8.24-6.17-12.14a2.814 2.814 0 0 1 1-3.84c1.34-.78 3.06-.33 3.84 1 2.4 4.1 4.58 8.38 6.47 12.74.62 1.42-.03 3.08-1.45 3.7-.36.15-.74.23-1.11.23zm-194.81-24a2.8 2.8 0 0 1-1.69-.57 2.798 2.798 0 0 1-.54-3.93c2.87-3.79 6-7.45 9.31-10.86a2.8 2.8 0 0 1 3.97-.07 2.801 2.801 0 0 1 .07 3.97 113.62 113.62 0 0 0-8.87 10.35c-.57.73-1.41 1.11-2.25 1.11zm180.73-.04c-.85 0-1.69-.38-2.24-1.11-2.74-3.61-5.72-7.09-8.87-10.34a2.8 2.8 0 0 1 .07-3.97 2.8 2.8 0 0 1 3.97.07c3.3 3.41 6.43 7.06 9.31 10.85.94 1.24.7 3-.54 3.94-.51.37-1.11.56-1.7.56zm-161.35-20c-.82 0-1.63-.35-2.18-1.04a2.81 2.81 0 0 1 .41-3.95c3.7-3 7.61-5.8 11.63-8.32 1.31-.82 3.05-.43 3.87.89.82 1.31.43 3.05-.89 3.87-3.83 2.4-7.56 5.07-11.08 7.92-.51.42-1.14.63-1.76.63zm141.97-.03c-.62 0-1.25-.21-1.77-.63-3.53-2.86-7.25-5.52-11.08-7.92a2.815 2.815 0 0 1-.89-3.87 2.813 2.813 0 0 1 3.87-.89c4.02 2.52 7.94 5.32 11.64 8.32 1.21.98 1.39 2.75.41 3.95a2.83 2.83 0 0 1-2.18 1.04zM131.15 52.55c-1.06 0-2.07-.6-2.55-1.62a2.796 2.796 0 0 1 1.36-3.73c4.31-2.01 8.79-3.77 13.31-5.23a2.8 2.8 0 0 1 3.53 1.81 2.8 2.8 0 0 1-1.81 3.53c-4.3 1.38-8.56 3.06-12.66 4.97-.38.18-.78.27-1.18.27zm94.73-.03c-.4 0-.8-.08-1.18-.26-4.11-1.91-8.37-3.59-12.68-4.97a2.797 2.797 0 0 1-1.81-3.53 2.8 2.8 0 0 1 3.53-1.81c4.53 1.46 9.01 3.21 13.33 5.23 1.41.65 2.01 2.33 1.36 3.73a2.823 2.823 0 0 1-2.55 1.61zm-68.22-8.51c-1.32 0-2.5-.94-2.76-2.29-.29-1.52.71-2.99 2.24-3.28 4.67-.88 9.44-1.48 14.2-1.77 1.54-.11 2.88 1.08 2.98 2.63a2.81 2.81 0 0 1-2.63 2.98c-4.52.28-9.07.85-13.51 1.68-.17.03-.35.05-.52.05zm41.68-.02c-.17 0-.35-.02-.52-.05-4.44-.83-8.98-1.4-13.51-1.67a2.8 2.8 0 0 1-2.63-2.97 2.8 2.8 0 0 1 2.97-2.63c4.76.29 9.53.88 14.2 1.76 1.52.29 2.53 1.75 2.24 3.28a2.802 2.802 0 0 1-2.75 2.28zM292.78 158.78c-1.55 0-2.81-1.26-2.81-2.81 0-2.19-.06-4.41-.18-6.58a2.808 2.808 0 0 1 2.65-2.96c1.54-.09 2.87 1.1 2.96 2.65.13 2.28.19 4.6.19 6.9 0 1.54-1.26 2.8-2.81 2.8z"/></g><path d="M391.71 134.6v-14.94l-9.99-2.82a49.07 49.07 0 0 0-6.69-16.51l6.38-9.44-10.05-11.06-11.13 5.56A49.05 49.05 0 0 0 345.69 79l-2.96-12.16h-14.94l-3.23 11.44a48.896 48.896 0 0 0-15.84 5.85l-10.95-6.45-10.8 10.33 6.09 10.53a48.96 48.96 0 0 0-7.42 16.29l-10.95 2.28-1.04 14.9 11.35 3.62c.88 4.8 2.45 9.35 4.6 13.56l-6.72 11.66 10.81 10.31 9.45-5.59c5.49 4.29 11.9 7.43 18.9 9.09l3.22 10.07 14.93-.52 1.86-8.97a48.8 48.8 0 0 0 17.27-6.59l8.35 5.76 11.51-9.53-5.05-10.38a48.851 48.851 0 0 0 7.48-17.45l10.1-2.45z" style="opacity:.79;fill:#fff"/><g class="st3"><path class="st6" d="M333.61 163.23c-20.53 0-37.24-16.7-37.24-37.23s16.71-37.23 37.24-37.23c15.81 0 29.94 10.02 35.15 24.93a1.688 1.688 0 1 1-3.19 1.11c-4.74-13.56-17.58-22.68-31.96-22.68-18.68 0-33.87 15.19-33.87 33.86s15.19 33.86 33.87 33.86c9.44 0 18.52-3.99 24.91-10.94.63-.68 1.69-.73 2.38-.1s.73 1.7.1 2.38a37.28 37.28 0 0 1-27.39 12.04z"/></g><g class="st3"><path class="st6" d="M333.6 141.23c-8.4 0-15.23-6.83-15.23-15.23s6.83-15.23 15.23-15.23 15.23 6.83 15.23 15.23-6.83 15.23-15.23 15.23zm0-27.09c-6.54 0-11.86 5.32-11.86 11.86 0 6.54 5.32 11.86 11.86 11.86 6.54 0 11.86-5.32 11.86-11.86 0-6.54-5.32-11.86-11.86-11.86z"/></g><g style="opacity:.69"><path class="st8" d="M335.85 50.88c-.08 0-.16 0-.24-.01-2.15-.18-4.34-.27-6.5-.27-1.55 0-2.81-1.26-2.81-2.81s1.26-2.81 2.81-2.81c2.32 0 4.66.1 6.97.29 1.55.13 2.69 1.49 2.56 3.03a2.793 2.793 0 0 1-2.79 2.58zM348.63 214.86c-1.26 0-2.4-.85-2.72-2.13-.38-1.5.54-3.03 2.04-3.41 4.02-1.01 7.98-2.35 11.79-4a2.8 2.8 0 0 1 3.69 1.46c.62 1.42-.04 3.08-1.46 3.69a82.273 82.273 0 0 1-12.65 4.29c-.23.07-.46.1-.69.1zm23.63-10.19c-.93 0-1.84-.46-2.37-1.3-.83-1.31-.45-3.04.86-3.88a79.34 79.34 0 0 0 9.95-7.51 2.802 2.802 0 0 1 3.96.24c1.03 1.16.92 2.94-.24 3.96a85.498 85.498 0 0 1-10.65 8.05c-.47.29-1 .44-1.51.44zm19.26-17.07c-.63 0-1.26-.21-1.79-.64a2.8 2.8 0 0 1-.38-3.95 81.42 81.42 0 0 0 7.17-10.21 2.813 2.813 0 0 1 3.85-.98c1.33.79 1.77 2.51.98 3.85-2.27 3.82-4.85 7.5-7.67 10.92a2.81 2.81 0 0 1-2.16 1.01zm13.12-22.15a2.804 2.804 0 0 1-2.6-3.85c1.54-3.85 2.8-7.86 3.73-11.91a2.823 2.823 0 0 1 3.37-2.11c1.51.35 2.45 1.86 2.11 3.37-1 4.33-2.34 8.62-3.99 12.74a2.837 2.837 0 0 1-2.62 1.76zm5.8-25.09c-.07 0-.14 0-.21-.01a2.803 2.803 0 0 1-2.59-3.01c.15-2.06.23-4.15.23-6.22 0-2.09-.08-4.2-.24-6.27a2.797 2.797 0 0 1 2.59-3.01c1.57-.11 2.9 1.04 3.01 2.59.17 2.21.25 4.46.25 6.69 0 2.21-.08 4.45-.25 6.64-.1 1.48-1.33 2.6-2.79 2.6zm-1.95-25.67c-1.28 0-2.43-.88-2.73-2.18a80.92 80.92 0 0 0-3.74-11.9c-.58-1.44.12-3.07 1.56-3.65 1.44-.58 3.07.12 3.65 1.56 1.65 4.12 2.99 8.4 4 12.73.35 1.51-.59 3.02-2.1 3.37-.21.05-.43.07-.64.07zm-9.57-23.89c-.96 0-1.89-.49-2.42-1.38a81.42 81.42 0 0 0-7.17-10.21c-.99-1.2-.82-2.97.38-3.95 1.2-.99 2.97-.82 3.95.38 2.82 3.42 5.41 7.09 7.67 10.92.79 1.33.35 3.06-.98 3.85-.45.26-.94.39-1.43.39zm-16.39-19.85c-.66 0-1.33-.23-1.86-.71a79.34 79.34 0 0 0-9.95-7.51 2.812 2.812 0 0 1-.86-3.88 2.812 2.812 0 0 1 3.88-.86 85.52 85.52 0 0 1 10.66 8.04c1.16 1.03 1.27 2.8.24 3.96-.56.64-1.33.96-2.11.96zm-21.71-13.82c-.37 0-.75-.07-1.11-.23a76.914 76.914 0 0 0-11.8-3.99 2.81 2.81 0 0 1-2.04-3.41c.38-1.5 1.9-2.41 3.41-2.04 4.31 1.08 8.57 2.52 12.66 4.29 1.42.61 2.08 2.27 1.47 3.69a2.845 2.845 0 0 1-2.59 1.69zM329.12 217.26c-1.55 0-2.81-1.26-2.81-2.81s1.26-2.81 2.81-2.81c2.17 0 4.36-.09 6.5-.27a2.804 2.804 0 1 1 .47 5.59c-2.3.2-4.65.3-6.97.3z"/></g><g><path class="st9" d="M393.15 660.5 376.3 785.2h207.82l-23.59-124.7z"/><path class="st10" d="M873.67 627.97c.76 28.15-22.1 51.26-50.25 50.8l-721.87-11.63c-31.95-.51-57.4-26.89-56.77-58.84l-.01-361.32c0-25.31 20.78-45.68 46.08-45.19l719.69 14.06c29.12.57 52.64 23.92 53.43 53.03l9.7 359.09z"/><path d="m91.35 217.44 711.19 10.32c19.92.29 35.92 16.66 35.92 36.76v316.31c0 24.23-19.6 43.8-43.61 43.55l-701.54-7.13c-15.98-.16-28.84-13.27-28.84-29.39v-343.7c0-14.9 12.1-26.93 26.88-26.72z" style="fill:#f2f4f7"/><path class="st10" d="M642.53 794.18H316.76v-21.56c0-11.05 8.95-20 20-20h285.77c11.05 0 20 8.95 20 20v21.56z"/><g style="opacity:.35"><path class="st13" d="M459.23 263.96h20.98v334.76h-20.98zM491.15 263.96h20.98v334.76h-20.98zM523.08 263.96h20.98v334.76h-20.98zM555 263.96h20.98v334.76H555zM586.92 263.96h20.98v334.76h-20.98zM618.84 263.96h20.98v334.76h-20.98zM650.76 263.96h20.98v334.76h-20.98z"/></g><path class="st14" d="M459.23 424.01h20.98v174.71h-20.98zM491.15 483.01h20.98v115.71h-20.98zM555 531.32h20.98v67.4H555zM618.84 412.24h20.98v186.48h-20.98zM650.76 454.93h20.98v143.79h-20.98zM523.08 335.85h20.98v262.87h-20.98zM586.92 372.92h20.98v225.8h-20.98z"/><g><path class="st8" d="M304.82 269.84c-8.63-11.27-22.21-18.52-37.49-18.52s-28.86 7.26-37.49 18.52c-6.08 7.94-9.69 17.87-9.69 28.66 0 26.06 21.12 47.18 47.18 47.18s47.18-21.12 47.18-47.18c0-10.78-3.62-20.71-9.69-28.66zm-37.49 60.8c-17.75 0-32.14-14.39-32.14-32.14 0-7.35 2.46-14.11 6.61-19.52 2.91-3.8 6.66-6.94 10.96-9.13a32.11 32.11 0 0 1 14.57-3.48c5.25 0 10.19 1.26 14.57 3.48 4.3 2.19 8.05 5.34 10.96 9.13a31.96 31.96 0 0 1 6.61 19.52c0 17.75-14.39 32.14-32.14 32.14z"/><path class="st14" d="M314.51 298.5c0 26.06-21.12 47.18-47.18 47.18s-47.18-21.12-47.18-47.18c0-10.78 3.62-20.71 9.69-28.66h22.92c-4.3 2.19-8.05 5.34-10.96 9.13a31.96 31.96 0 0 0-6.61 19.52c0 17.75 14.39 32.14 32.14 32.14s32.14-14.39 32.14-32.14c0-7.35-2.46-14.11-6.61-19.52-2.91-3.8-6.66-6.94-10.96-9.13h22.92c6.07 7.95 9.69 17.88 9.69 28.66z"/><path class="st8" d="M154.84 249.51c-26.05 0-47.18 21.12-47.18 47.18 0 26.05 21.13 47.18 47.18 47.18 26.06 0 47.18-21.13 47.18-47.18 0-26.06-21.12-47.18-47.18-47.18zm0 77.51c-16.75 0-30.33-13.58-30.33-30.33s13.58-30.33 30.33-30.33 30.33 13.58 30.33 30.33-13.58 30.33-30.33 30.33z"/><path class="st15" d="M202.02 296.69c0 26.05-21.12 47.18-47.18 47.18-26.05 0-47.18-21.13-47.18-47.18h16.85c0 16.75 13.58 30.33 30.33 30.33s30.33-13.58 30.33-30.33h16.85z"/><path class="st8" d="M376.3 251.32c-26.06 0-47.18 21.12-47.18 47.18 0 6.02 1.12 11.77 3.18 17.06 6.84 17.63 23.96 30.12 44 30.12s37.16-12.49 44-30.12c2.06-5.29 3.18-11.04 3.18-17.06 0-26.06-21.12-47.18-47.18-47.18zm0 75.84c-9.44 0-17.81-4.55-23.03-11.59a28.524 28.524 0 0 1-5.63-17.07c0-15.83 12.83-28.66 28.66-28.66s28.66 12.83 28.66 28.66c0 3.66-.69 7.16-1.93 10.37a28.77 28.77 0 0 1-3.7 6.7c-5.23 7.04-13.6 11.59-23.03 11.59z"/><path class="st13" d="M420.3 315.56c-6.84 17.63-23.96 30.12-44 30.12s-37.16-12.49-44-30.12h20.97c5.22 7.04 13.59 11.59 23.03 11.59 9.44 0 17.81-4.55 23.03-11.59h20.97z"/><g><path class="st15" d="M198.22 370.27h-91.25c-1.55 0-2.81-1.26-2.81-2.81s1.26-2.81 2.81-2.81h91.25c1.55 0 2.81 1.26 2.81 2.81s-1.26 2.81-2.81 2.81zM198.22 388.05h-91.25c-1.55 0-2.81-1.26-2.81-2.81s1.26-2.81 2.81-2.81h91.25c1.55 0 2.81 1.26 2.81 2.81s-1.26 2.81-2.81 2.81zM198.22 406.59h-91.25c-1.55 0-2.81-1.26-2.81-2.81s1.26-2.81 2.81-2.81h91.25c1.55 0 2.81 1.26 2.81 2.81s-1.26 2.81-2.81 2.81z"/></g><g><path class="st14" d="M312.95 369.49H221.7c-1.55 0-2.81-1.26-2.81-2.81s1.26-2.81 2.81-2.81h91.25c1.55 0 2.81 1.26 2.81 2.81s-1.25 2.81-2.81 2.81zM312.95 387.27H221.7c-1.55 0-2.81-1.26-2.81-2.81s1.26-2.81 2.81-2.81h91.25c1.55 0 2.81 1.26 2.81 2.81s-1.25 2.81-2.81 2.81zM312.95 405.81H221.7c-1.55 0-2.81-1.26-2.81-2.81s1.26-2.81 2.81-2.81h91.25c1.55 0 2.81 1.26 2.81 2.81a2.8 2.8 0 0 1-2.81 2.81z"/></g><g><path class="st13" d="M421.92 369.11h-91.25c-1.55 0-2.81-1.26-2.81-2.81s1.26-2.81 2.81-2.81h91.25c1.55 0 2.81 1.26 2.81 2.81s-1.26 2.81-2.81 2.81zM421.92 386.88h-91.25c-1.55 0-2.81-1.26-2.81-2.81s1.26-2.81 2.81-2.81h91.25c1.55 0 2.81 1.26 2.81 2.81s-1.26 2.81-2.81 2.81zM421.92 405.43h-91.25c-1.55 0-2.81-1.26-2.81-2.81s1.26-2.81 2.81-2.81h91.25c1.55 0 2.81 1.26 2.81 2.81s-1.26 2.81-2.81 2.81z"/></g></g><g><path d="M410.72 598.72H123.95c-7.05 0-12.76-5.71-12.76-12.76V436.77c0-7.05 5.71-12.76 12.76-12.76h286.77c7.05 0 12.76 5.71 12.76 12.76v149.19c0 7.04-5.72 12.76-12.76 12.76z" style="opacity:.26;fill:#9641e4"/><path d="m118.02 534.29 57.5-52.67 26.5 31.38 36.12-40.18 36.36 37.05 53.36-57.32 38.13 39.4 43.27-24.66v105.1c0 5.13-4.17 9.27-9.3 9.24l-272.69-1.61c-5.12-.03-9.26-4.19-9.26-9.31v-36.42z" style="opacity:.5;fill:#fff;stroke:#fff;stroke-width:2;stroke-miterlimit:10"/><path class="st8" d="M174.25 579.38h-.03c-.62-.02-1.11-.53-1.09-1.15l2.55-92.09c.02-.62.48-1.12 1.15-1.09.62.02 1.11.53 1.09 1.15l-2.55 92.09c-.01.61-.51 1.09-1.12 1.09zM203.3 581.59c-.62 0-1.12-.5-1.12-1.12v-64.51c0-.62.5-1.12 1.12-1.12.62 0 1.12.5 1.12 1.12v64.51c0 .62-.5 1.12-1.12 1.12zM239.42 581.59c-.62 0-1.12-.5-1.12-1.12V474.45c0-.62.5-1.12 1.12-1.12s1.12.5 1.12 1.12v106.01c0 .63-.5 1.13-1.12 1.13zM329.14 582.76c-.62 0-1.12-.5-1.12-1.12V459.42c0-.62.5-1.12 1.12-1.12s1.12.5 1.12 1.12v122.21c0 .63-.5 1.13-1.12 1.13zM275.78 582.76c-.62 0-1.12-.5-1.12-1.12v-67.09c0-.62.5-1.12 1.12-1.12.62 0 1.12.5 1.12 1.12v67.09c0 .62-.5 1.12-1.12 1.12zM366 581.59c-.62 0-1.12-.5-1.12-1.12v-82.73c0-.62.5-1.12 1.12-1.12s1.12.5 1.12 1.12v82.73c0 .62-.5 1.12-1.12 1.12z"/><g><circle class="st15" cx="175.52" cy="474.45" r="7.17"/><circle class="st15" cx="202.02" cy="509.87" r="6.09"/><circle class="st14" cx="366" cy="491.95" r="5.79"/><circle class="st15" cx="238.14" cy="471.44" r="4.68"/><circle class="st15" cx="274.51" cy="509.87" r="4.68"/><circle class="st15" cx="327.86" cy="452.55" r="4.68"/></g></g><g class="st18"><path class="st8" d="M96.73 636.55H832.4v2.25H96.73z"/></g><g class="st18"><path class="st8" d="M328.32 785.97c-.23-.24-5.57-5.99-3.09-11.89 2.82-6.74 14.58-10.37 34.96-10.8 49.19-1.02 266.96-.01 269.15 0l-.01 2.25c-2.19-.01-219.93-1.02-269.09 0-24.16.5-31.24 5.39-32.93 9.41-1.91 4.55 2.61 9.44 2.65 9.49l-1.64 1.54z"/></g><g><path class="st19" d="M786.03 364.06h-64.91c-3.1 0-5.62-2.51-5.62-5.62 0-3.1 2.51-5.62 5.62-5.62h64.91c3.1 0 5.62 2.51 5.62 5.62 0 3.11-2.52 5.62-5.62 5.62zM802.52 599.84h-81.4c-3.1 0-5.62-2.51-5.62-5.62 0-3.1 2.51-5.62 5.62-5.62h81.4c3.1 0 5.62 2.51 5.62 5.62-.01 3.11-2.52 5.62-5.62 5.62zM796.33 491.78h-75.22c-3.1 0-5.62-2.51-5.62-5.62s2.51-5.62 5.62-5.62h75.22c3.1 0 5.62 2.51 5.62 5.62s-2.51 5.62-5.62 5.62z"/><circle class="st20" cx="751.99" cy="298.5" r="38.93"/><path class="st8" d="M751.99 329.83c-.26 0-.53-.04-.79-.11-11.61-3.42-19.4-9.62-23.14-18.44-7.06-16.62 3.02-36.24 3.45-37.07.72-1.38 2.42-1.9 3.79-1.19a2.81 2.81 0 0 1 1.19 3.79c-.12.23-9.27 18.16-3.25 32.3 3.06 7.19 9.64 12.31 19.55 15.23 1.49.44 2.34 2 1.9 3.49-.37 1.21-1.49 2-2.7 2z"/><circle cx="751.99" cy="415.99" r="38.93" style="fill:#9b3dea"/><path class="st8" d="M751.94 452.52c-20.11 0-36.48-16.36-36.48-36.48 0-1.55 1.26-2.81 2.81-2.81s2.81 1.26 2.81 2.81c0 17.02 13.84 30.86 30.86 30.86s30.86-13.84 30.86-30.86c0-1.55 1.26-2.81 2.81-2.81s2.81 1.26 2.81 2.81c0 20.12-16.37 36.48-36.48 36.48z"/><g><circle class="st20" cx="758.73" cy="539.1" r="38.93"/><path class="st8" d="M758.73 572.28c-18.3 0-33.18-14.88-33.18-33.18s14.88-33.18 33.18-33.18v5.62c-15.2 0-27.56 12.36-27.56 27.56s12.36 27.56 27.56 27.56v5.62z"/></g></g></g><g><path class="st22" d="m763.1 441.45 4.64 32.14 35.8 2.06s-20.79-31.05-20.22-47.24l-20.22 13.04z"/><ellipse transform="rotate(-60 763.108 424.771)" class="st22" cx="763.1" cy="424.75" rx="26.21" ry="20.06"/><path class="st9" d="M754.8 383.95s-15.46 15.22 0 20.63c0 0 17.76 1.06 23.51 5.9 6.86 5.77 1.15 14.42 1.15 14.42l3.98 15.38s4.66-13.1 9.29-15.53c4.64-2.42 6.7-7.91 1.03-12.64 0 0 7.72-10.39-2.84-16.57 0 0-5.92-2.83-10.56 0 0 0-5.67-.52-8.24-8.5s-12.5-8.5-17.32-3.09z"/><path class="st22" d="M700 486.16s-30.35-12.57-38.74-23.91c0 0-22.3-34.42-23.85-49.02 0 0 3.09-4.04-1.29-7.91s-11.33-11.85-5.15-19.06c0 0 3.09-3.02.52-5.89-2.58-2.87-5.92-8.8-5.92-8.8s-.26-3.61 2.58-2.32c2.83 1.29 9.53 11.11 9.53 11.11s9.56 6.66 11.33 14.9c1.77 8.24 1.77 15.05 1.77 15.05l25.79 33.64 40.18 15.46L700 486.16zM755.12 797.12l-2.83 11.33 14.42 5.41 1.8-16.74z"/><path class="st9" d="m751.26 806.39-32.46 14.42s-12.62 7.73 1.55 7.21 44.82-1.29 44.82-1.29 7.13-.13 2.15-18.48c-.01.01-10.66 4.32-16.06-1.86z"/><path class="st22" d="M804.06 798.92v13.14l11.08 1.8 1.28-14.94z"/><path class="st9" d="M804.06 808.97s-10.05 10.61-5.15 19.09c0 0 7.47 5.43 20.09 0 0 0 1.62-15.99-3.44-19.09 0 0-2.74 7.21-11.5 0z"/><path class="st2" d="M760.53 601.61s1.03 192.93-8.24 195.77c0 0 6.95 7.73 17.26 4.38 0 0 20.61-74.7 21.12-85.26.52-10.56 4.11-38.19 4.11-38.19s1.81-10.98 4.13.47c2.32 11.44 3.61 122.46 3.61 122.46l14.94 1.36 10.56-104.91s3.86-91.44 0-96.08h-67.49z"/><path d="M765.82 460.32s4.92 16.1 31.37 7.09c0 0 12.79-2.15 25.93 2.79 13.14 4.94 32.2 33.53 34.77 51.56l-27.56 9.56-3.09-9.56 2.77 84.96h-71.29l-13.46-97.93-49.13-18.2s15.97-30.14 15.46-34.26c0 0 36.45 8.63 54.23 3.99z" style="fill:orange"/><path style="fill:#e3e4e5" d="m694.59 489.04 70.06 2.74 20.24 76.16-59.34 1.47z"/><path style="fill:#ff736a" d="m743.79 486.16-8.58-.08-.7-5.53h-17.77l.12 5.34-6.56-.07 2.75 13.01h32.02z"/><ellipse transform="rotate(-60 783.446 427.216)" class="st22" cx="783.43" cy="427.2" rx="6" ry="4.59"/><path class="st22" d="m830.33 531.32-3.25 15.94-49.07-6.44s2.71-16.23-6.31-16.23-25.03 3.61-25.03 3.61 4.68 5.41 6.74 4.38c2.06-1.03 1.03-1.05 1.03-1.05s-5.15 5.43 2.06 5.95c0 0-4.12 5.15 0 4.38s5.67-.52 5.67-.52 1.8 7.99 13.65 8.24l48.94 19.06s20.09 7.47 25.24-4.12 8.12-27.8 6.95-42.76l-26.62 9.56z"/></g></svg>