<svg version="1.1" id="Layer_1" xmlns="http://www.w3.org/2000/svg" x="0" y="0" viewBox="0 0 1000 798" style="enable-background:new 0 0 1000 798" xml:space="preserve"><style>.st2{fill:#fff}.st3{fill:#f4c495}.st5{fill:#e23434}.st7{fill:#bcbec0}.st8{fill:#fff;stroke:#000;stroke-linecap:round;stroke-linejoin:round;stroke-miterlimit:10}</style><ellipse cx="471" cy="743.8" rx="371.3" ry="42.6" style="opacity:.19"/><path d="M159.1 668.2S-3 343.7 209.7 154.2 734.4 38.7 734.4 38.7 995 130.5 874.3 450.2 310.9 752 310.9 752s-98.8-27.1-151.8-83.8z" style="fill:#cfb5f6"/><path class="st2" d="M158.3 595.4c-42.3-46.6-43.7-164.7-43.7-165.9h1.1c0 1.2 1.5 118.9 43.5 165.2l-.9.7z"/><path class="st3" d="m387.5 596.9 26.8 14.1-18.8 28.9-30.2-21.8z"/><path class="st2" d="M790.1 724.7H571.8c-11.7 0-21.2-8-21.2-17.8V693c0-10 9.6-18 21.4-18h218c.1 0 .3.1.3.2-9.8 15.3-9.8 34 0 49.3.1.1-.1.2-.2.2zM793.6 602s-13.4 26.8 2.2 50.4H638.2v-48.8l155.4-1.6z"/><ellipse transform="rotate(-75.812 626.554 187.283)" class="st3" cx="626.6" cy="187.3" rx="66.8" ry="51.4"/><path d="M593.3 145.6s4.8 12.9 50.4 4.2c45.5-8.7 25.2 27.1 25.2 27.1s-17.6 22.7 9.6 23.9l-11.4 25.9s1.8 68.3 38.6 88.7c0 0 77.5 89.1 56.2 177.3 0 0 103.4 3.9 83.3-148.2-1.1-8.3-11.6-75.6-83.3-97.9 0 0-53.7 2.2-39.7-58.4 1.2-5.3 11.3-43.3-33.9-80.2-10.5-8.5-63.9-59.1-102.7-46.5s-48.4 43.6-22.3 73.6 21.9 23.5 21.9 23.5 0-18.3 8.1-13z" style="fill:#2c2c2d"/><path class="st3" d="M620.5 239s10.7 29.1 0 29.1-29.1-7.8-29.1-7.8 7.8 47.5 38.3 57.2c30.5 9.7 69.2 21.3 68.3 0 0 0-36.6-51.4-26.4-98.4l-6.5-12.7-44.6 32.6z"/><path class="st5" d="M795.8 605.9s10.4-3.6 1.7-11.6H511.3s-26.2 3.9-28.7 32.6c-2.6 28.7 27.5 35 27.5 35h285.8s10.6-5 0-11.8H664.7s-17.1-.8-16.5-22c.6-21.2 16.8-22.2 16.8-22.2h130.8z"/><path d="M791.1 673.4c1.5-1.3 3-3.3 2.3-6.1-.8-3.2-3.8-5.4-7.1-5.4H504.7c-.6 0-1.2.1-1.7.2-4.7 1.2-25.5 7.9-27.8 36.5-2.3 28.5 20.9 37.4 26.3 39.1.7.2 1.4.3 2.1.3h282.3c1.9 0 3.9-.7 5.2-2.2 1.8-2 3.3-5.1-.2-8.9-1.3-1.4-3.3-2.2-5.2-2.2l-186-.3c-.3 0-.7 0-1-.1-3.1-.4-16.4-3.6-15.8-24.7.6-20.7 12.8-24.3 16-24.9.4-.1.8-.1 1.2-.1l186.4.3c1.6.1 3.3-.5 4.6-1.5z" style="fill:#3573a5"/><path class="st7" d="M722.5 620.2h-12.3c-.6 0-1.1-.5-1.1-1.1 0-.6.5-1.1 1.1-1.1h12.3c.6 0 1.1.5 1.1 1.1 0 .6-.5 1.1-1.1 1.1zM785.8 620.2h-56.5c-.6 0-1.1-.5-1.1-1.1 0-.6.5-1.1 1.1-1.1h56.5c.6 0 1.1.5 1.1 1.1 0 .6-.5 1.1-1.1 1.1zM785.8 628.3H717c-.6 0-1.1-.5-1.1-1.1 0-.6.5-1.1 1.1-1.1h68.8c.6 0 1.1.5 1.1 1.1 0 .6-.5 1.1-1.1 1.1zM712.2 639.9H699c-.6 0-1.1-.5-1.1-1.1 0-.6.5-1.1 1.1-1.1h13.2c.6 0 1.1.5 1.1 1.1-.1.6-.5 1.1-1.1 1.1zM787.5 639.9h-68.8c-.6 0-1.1-.5-1.1-1.1 0-.6.5-1.1 1.1-1.1h68.8c.6 0 1.1.5 1.1 1.1-.1.6-.6 1.1-1.1 1.1zM696.3 684.7h-16.2c-.8 0-1.4-.6-1.4-1.4s.6-1.4 1.4-1.4h16.2c.8 0 1.4.6 1.4 1.4s-.6 1.4-1.4 1.4zM779.9 684.7h-74.6c-.8 0-1.4-.6-1.4-1.4s.6-1.4 1.4-1.4h74.6c.8 0 1.4.6 1.4 1.4s-.7 1.4-1.4 1.4zM779.9 695.3H689c-.8 0-1.4-.6-1.4-1.4s.6-1.4 1.4-1.4h90.8c.8 0 1.4.6 1.4 1.4s-.6 1.4-1.3 1.4zM682.6 710.7h-17.4c-.8 0-1.4-.6-1.4-1.4s.6-1.4 1.4-1.4h17.4c.8 0 1.4.6 1.4 1.4s-.6 1.4-1.4 1.4zM782 710.7h-90.8c-.8 0-1.4-.6-1.4-1.4s.6-1.4 1.4-1.4H782c.8 0 1.4.6 1.4 1.4s-.6 1.4-1.4 1.4z"/><path class="st8" d="m171 276.3 394.4 1.9 39.3 282.4-394 4.4z"/><path class="st2" d="m210.7 565 394-4.4"/><path d="M210.7 566.6c-.9 0-1.6-.7-1.6-1.6 0-.9.7-1.6 1.6-1.6l394-4.4c.9 0 1.6.7 1.6 1.6 0 .9-.7 1.6-1.6 1.6l-394 4.4z"/><path class="st8" d="m215.3 552.7 381.3-4.4M186.9 240.2l-6.5 32.7L210.7 565l8.2-21.8z"/><path class="st2" d="M550.7 271.4s18.5-5.2 18.9 25.7l35.2 263.4-16.7-29-37.4-260.1z"/><path d="M604.7 561.1c-.2 0-.4-.1-.5-.3l-16.7-29c0-.1-.1-.1-.1-.2l-37.3-260.1c0-.3.1-.5.4-.6.2-.1 6-1.6 11.3 2.3 5.3 4 8.1 12 8.2 23.9l35.2 263.3c0 .3-.1.5-.4.6 0 .1 0 .1-.1.1zm-16.2-29.7 15.3 26.6L569 297.3c-.1-11.6-2.8-19.3-7.8-23.1-4-3-8.5-2.5-9.9-2.3l37.2 259.5z"/><path class="st2" d="M180.4 272.9s-12.4-1.5-8.7 18.2l34.9 279.8 4.2-5.8-30.4-292.2z"/><path d="M206.5 572.4h-.4c-.6-.2-1.1-.7-1.2-1.3L170 291.3c-1.5-7.8-.6-13.6 2.6-16.9 3.3-3.5 7.7-3 7.9-3 .7.1 1.3.7 1.4 1.4l30.3 292.1c0 .4-.1.8-.3 1.1l-4.2 5.8c-.2.4-.7.6-1.2.6zm-27.6-297.9c-1.1.1-2.7.6-4 2-2.4 2.6-3 7.5-1.7 14.3l34.4 275.9 1.5-2-30.2-290.2z"/><path class="st8" d="M186.9 240.2c0 5.1 32 306.7 32 306.7s135.9-48 186.8 3.6c0 0 22.5-35.6 182.4-18.9l-31.2-291.4H420.2s-41.4 8-44.3 23.3c0 0-29.8-21.1-48.7-18.9l-140.3-4.4z"/><path class="st2" d="m375.8 263.5 29.8 287"/><path d="M405.6 551c-.3 0-.5-.2-.5-.5l-29.8-287c0-.3.2-.5.5-.6.3 0 .6.2.6.5l29.8 287c0 .3-.2.6-.6.6.1 0 0 0 0 0z"/><path class="st7" d="M392.9 289.8c-.2 0-.4-.1-.5-.3-.1-.3 0-.6.3-.7.9-.3 89-33.1 156.7-6.6.3.1.4.4.3.7-.1.3-.4.4-.7.3-67.3-26.3-155.1 6.3-156 6.6h-.1zM396 312.3c-.2 0-.4-.1-.5-.3-.1-.3 0-.6.3-.7.9-.3 89-33.1 156.7-6.6.3.1.4.4.3.7-.1.3-.4.4-.7.3-67.3-26.3-155.1 6.3-156 6.6h-.1zM399.1 334.7c-.2 0-.4-.1-.5-.3-.1-.3 0-.6.3-.7.9-.3 89-33.1 156.7-6.6.3.1.4.4.3.7-.1.3-.4.4-.7.3-67.3-26.3-155.1 6.3-156 6.6h-.1zM402.3 357.1c-.2 0-.4-.1-.5-.3-.1-.3 0-.6.3-.7.9-.3 89-33.1 156.7-6.6.3.1.4.4.3.7-.1.3-.4.4-.7.3-67.3-26.3-155.1 6.3-156 6.6h-.1zM405.4 379.6c-.2 0-.4-.1-.5-.3-.1-.3 0-.6.3-.7.9-.3 89-33.1 156.7-6.6.3.1.4.4.3.7-.1.3-.4.4-.7.3-67.3-26.3-155.1 6.3-156 6.6h-.1zM408.6 402c-.2 0-.4-.1-.5-.3-.1-.3 0-.6.3-.7.9-.3 89-33.1 156.7-6.6.3.1.4.4.3.7-.1.3-.4.4-.7.3-67.3-26.3-155.1 6.3-156 6.6h-.1zM411.7 424.4c-.2 0-.4-.1-.5-.3-.1-.3 0-.6.3-.7.9-.3 89-33.1 156.7-6.6.3.1.4.4.3.7-.1.3-.4.4-.7.3-67.3-26.3-155.1 6.3-156 6.6h-.1zM414.9 446.9c-.2 0-.4-.1-.5-.3-.1-.3 0-.6.3-.7.9-.3 89-33.1 156.7-6.6.3.1.4.4.3.7-.1.3-.4.4-.7.3-67.3-26.3-155.1 6.3-156 6.6h-.1zM418 469.3c-.2 0-.4-.1-.5-.3-.1-.3 0-.6.3-.7.9-.3 89-33.1 156.7-6.6.3.1.4.4.3.7-.1.3-.4.4-.7.3-67.3-26.3-155.1 6.3-156 6.6h-.1zM421.1 491.7c-.2 0-.4-.1-.5-.3-.1-.3 0-.6.3-.7.9-.3 89-33.1 156.7-6.6.3.1.4.4.3.7-.1.3-.4.4-.7.3-67.3-26.3-155.1 6.3-156 6.6h-.1z"/><g><path class="st7" d="M364.9 284.6c.2 0 .4-.2.4-.4 0-.3-.1-.6-.4-.6-.9-.2-93.8-14.9-154.9 24.4-.2.2-.3.5-.2.7.2.2.5.3.7.2 60.8-39.1 153.3-24.4 154.2-24.3h.2zM366.2 307.2c.2 0 .4-.2.4-.4 0-.3-.1-.6-.4-.6-.9-.2-93.8-14.9-154.9 24.4-.2.2-.3.5-.2.7.2.2.5.3.7.2 60.8-39.1 153.3-24.4 154.2-24.3.1.1.1.1.2 0zM367.5 329.9c.2 0 .4-.2.4-.4 0-.3-.1-.6-.4-.6-.9-.2-93.8-14.9-154.9 24.4-.2.2-.3.5-.2.7.2.2.5.3.7.2 60.8-39.1 153.3-24.4 154.2-24.3h.2zM368.9 352.5c.2 0 .4-.2.4-.4 0-.3-.1-.6-.4-.6-.9-.2-93.8-14.9-154.9 24.4-.2.2-.3.5-.2.7.2.2.5.3.7.2 60.8-39.1 153.3-24.4 154.2-24.3h.2zM370.2 375.1c.2 0 .4-.2.4-.4 0-.3-.1-.6-.4-.6-.9-.2-93.8-14.9-154.9 24.4-.2.2-.3.5-.2.7.2.2.5.3.7.2 60.8-39.1 153.3-24.4 154.2-24.3h.2zM371.6 397.7c.2 0 .4-.2.4-.4 0-.3-.1-.6-.4-.6-.9-.2-93.8-14.9-154.9 24.4-.2.2-.3.5-.2.7.2.2.5.3.7.2 60.8-39.1 153.3-24.4 154.2-24.3h.2zM372.9 420.3c.2 0 .4-.2.4-.4 0-.3-.1-.6-.4-.6-.9-.2-93.8-14.9-154.9 24.4-.2.2-.3.5-.2.7.2.2.5.3.7.2 60.8-39.1 153.3-24.4 154.2-24.3h.2zM374.2 442.9c.2 0 .4-.2.4-.4 0-.3-.1-.6-.4-.6-.9-.2-93.8-14.9-154.9 24.4-.2.2-.3.5-.2.7.2.2.5.3.7.2 60.8-39.1 153.3-24.4 154.2-24.3h.2zM375.6 465.5c.2 0 .4-.2.4-.4 0-.3-.1-.6-.4-.6-.9-.2-93.8-14.9-154.9 24.4-.2.2-.3.5-.2.7.2.2.5.3.7.2 60.8-39.1 153.3-24.4 154.2-24.3h.2zM376.9 488.1c.2 0 .4-.2.4-.4 0-.3-.1-.6-.4-.6-.9-.2-93.8-14.9-154.9 24.4-.2.2-.3.5-.2.7.2.2.5.3.7.2 60.8-39.1 153.3-24.4 154.2-24.3h.2z"/></g><ellipse transform="rotate(-30 675.415 206.41)" class="st3" cx="675.4" cy="206.4" rx="15.2" ry="11.7"/><ellipse transform="rotate(-16.637 269.597 396.398)" class="st3" cx="269.6" cy="396.4" rx="35.2" ry="44.3"/><path d="M294.5 368.8s23.2-14.5 14.5-27.6c-8.7-13.1-16.9-28.3-39.3-21.8s-52.6 6.5-58.9 28.3c-6.4 21.8 10.4 74.8 19.1 77.8s10.2 9.8 10.2 9.8L238 412s-2.2-31.5 5.8-31.5 20.9-3.6 26.1-12.4c4.9-8.7 18.1-10.2 24.6.7z"/><ellipse transform="rotate(-34.435 237.12 402.58)" class="st3" cx="237.1" cy="402.6" rx="7.8" ry="11.9"/><path class="st3" d="M237.8 412s11.1 35.3-18.9 47.9c0 0 15 19.4 46.5 15.5s34.4-22.3 34.4-22.3h-8.7s-14-3.1-16.2-20.7L237.8 412z"/><path class="st5" d="M222.5 455.5s28.6 14.5 47.1 7.3 22.4-12.6 22.4-12.6 30.5 10.7 37.8 21.1 30.5 65.1 36.8 79.7 14.5 37.2 26.2 43.3l-15.8 21c-3.6 4.8-8.6 8.4-14.2 10.3l-17.9-21.3 6.3 49.4-118.7 14.5-45.5-6.3-21.3-53.8-6.3-43.1s-2.8-43.6 11.7-63.5c14.3-19.8 34.2-42.6 51.4-46z"/><path class="st2" d="m220.6 657.9 109.7-10s8.5.6 18.8-10.1l79.5-53.8s15.5-2.5 7.8 13c-7.8 15.5-95 73.2-95 73.2l-109 11.7-11.8-24z"/><path d="M349.7 748.6s54.7-13.3 72.2-48.8c0 0 48.9-77.3 30-97.1 0 0-17.9-18.3-48.9 10.2l-52.2 38-14.7 8.6-103.7 8.7 18.4 83.8 98.9-3.4z"/><path d="M291.5 724.7c3.4-1.3 42.6 7.9 52.8 21 0 0 21.3 13.1-5.8 25.2s-63.9-.5-66.4-8.2c-2.4-7.8-5.3-11.2-5.3-11.2l15.5-29 9.2 2.2z" style="fill:#1d5168"/><path d="m291.5 721-96.9-86.2s-50.9-52.3-88.7-23.3c-37.8 29.1 24.2 88.4 24.2 88.4s61.5 43.8 95.9 49.7l43.5 13.1 22-41.7z"/><path class="st3" d="m326.4 240.2-28.3-24.7s-42.9-10.9-65.4 7.3-28.3 26.2-28.3 26.2 15.3 5.1 18.2 2.9c0 0 3.6 7.3 20.3 5.1l25.5-14.2 20.3 5.5s-19.3 6.3-26.9 4.4c0 0-6.5 8 10.2 10.2s17.4 3.6 29.8-3.6c12.3-7.5 24.6-19.1 24.6-19.1zM518.3 450.9s-13.1-27.6-26.2-32c-13.1-4.4-74.1-25.4-74.1-25.4s-5.8 12.4 8 17.4c13.8 5.1 26.9 11.3 26.9 11.3s-11.9 32.3 19.8 46.1l38.3 2.9 7.3-20.3z"/><path d="m626.6 266.5-17.4 4.1c-3.3.8-5.2 4.1-4.3 7.4 2.8 9.5 10.2 27.6 28 35.6 0 0 75.3 21.8 60.8 0l-3.9-13.6s39.7 23.3 71.8 109.7c0 0 24.7 100.5-42.5 140.8-3.6 2.2-52.8 45.1-124.5 10.2 0 0-82.6-42.1-94.2-74.1l21.8-51.2 31.7 26.5 40.7 18.9-23.7-199.1-6.5-8.7-4.4-32.7c-.1-.1 68.6 14.4 66.6 26.2z" style="fill:#5b3fb2"/><g><path d="M203.8 163.4s-23.1-57.2 17.5-112.1c0 0 58.2-71.9 138.9-31.6 0 0 80.8 47.9 21.1 130.6 0 0-50.6 40.5-110.5 3.4-4.5-2.8-38.1-41.7-67 9.7z" style="opacity:.79;fill:#3573a5"/><path transform="rotate(-74.16 308.978 74.927)" class="st2" d="M306.5 19h4.9v111.9h-4.9z"/><path transform="rotate(-74.16 305.486 93.886)" class="st2" d="M303 74.6h5.1v38.5H303z"/></g><g><path d="M508.8 279.4s37.8-48.7 13.8-112.6c0 0-36.3-85-125-68.3 0 0-90.8 24-56 119.9 0 0 37.6 52.8 105.4 33.4 5.1-1.4 48-29.8 61.8 27.6z" style="fill:#f7ab14"/><path class="st2" d="M375.8 163.1h111.9v4.9H375.8zM410.7 182.3h38.5v5.1h-38.5z"/></g><g><path class="st2" d="M841.8 264.5c-1.9-44.8-24.8-84.7-43.6-110.2-20.5-27.7-40.8-45.1-41-45.2l.7-.8c.2.2 20.6 17.6 41.1 45.4 19 25.7 42 65.8 43.9 110.8h-1.1z"/></g><g><path class="st2" d="M689.5 60.1c-60.1-35.4-157.9-19.4-158.9-19.2l-.2-1c1-.2 99.1-16.2 159.6 19.4l-.5.8z"/></g><g><path class="st2" d="m814.4 122.3-12.9-7.9-3.9-14.2-13.9-5.1-5.7-13.6-14.4-3.7-2.4-10-10.4-.2-2.2-10.2-10.3-.7-3.2-5.3.9-.6 2.9 4.9 10.5.7 2.2 10.1 10.4.3 2.5 10.2 14.3 3.6 5.7 13.7 14 5.1 3.9 14.3 12.6 7.7z"/></g><g><path class="st2" d="m120.3 379-.8-.6 10.3-13.4-1.7-17 10.4-13.5-1.7-17 10.6-13.6.8.6-10.3 13.3 1.7 17-10.4 13.5 1.7 17z"/></g><g style="opacity:.22"><path d="m274.8 224.2-6.2.9c-2.1.3-4.1.6-6.2.9-4.1.6-8.2 1.1-12.3 1.6l.3-.1c-2.3 2.1-4.6 4.2-6.9 6.2l-6.9 6.1c-4.7 4-9.3 8.1-14.1 12 4.4-4.3 9-8.5 13.5-12.7l6.9-6.2c2.3-2.1 4.6-4.1 6.9-6.2.1-.1.2-.1.3-.1 4.1-.5 8.2-.9 12.4-1.3 2.1-.2 4.1-.4 6.2-.6l6.1-.5z"/></g></svg>