<svg version="1.1" id="Layer_1" xmlns="http://www.w3.org/2000/svg" x="0" y="0" viewBox="0 0 1000 723.7" style="enable-background:new 0 0 1000 723.7" xml:space="preserve"><style>.st0{opacity:9.000000e-02;fill:#8f30c1}.st1{fill:#808285}.st2{fill:#22ac6e}.st3{fill:#d1d3d4}.st5{fill:#ff4d53}.st6{fill:#fff}.st9{opacity:.63}.st10{fill:#764acc}.st11{fill:#cfdaf8}.st12{fill:#3b3c3d}.st13{fill:#5178bf}.st15{fill:#f6e9d9}.st16{fill:#e59965}.st17{fill:#232323}.st18{fill:#723535}.st19{fill:#383838}.st20{fill:#191919}.st21{fill:#eec2b5}.st22{fill:#feb300}.st24{fill:#267fab}.st25{fill:#fecfbf}.st27{fill:#3a2216}</style><path class="st0" d="M131.2 524.7c-6.7 0-13.2-2.1-18.6-5.9C84 498.7-4.1 429.2 7.1 342c12.3-95 101.2-99.5 112.5-178C139.4 26.7 373-42.5 495.7 52.7s97.5 154.9 144.5 179.5c45 23.6 72.5 108.5 43.2 170.2-22.2 46.8-50.1 88.1-65.5 109.3-6.9 9.6-18 15.2-29.8 15.1l-456.9-2.1z"/><path class="st0" d="M416.6 532.3c-6.7 0-13.2-2.1-18.6-5.9-28.6-20.1-116.7-89.6-105.5-176.8 12.3-95 101.2-99.5 112.5-178C424.8 34.3 658.4-34.9 781 60.3s97.5 154.9 144.5 179.5c45 23.6 72.5 108.5 43.2 170.2-22.2 46.8-50.1 88.1-65.5 109.3-6.9 9.6-18 15.2-29.8 15.1l-456.8-2.1z"/><path class="st1" d="M903.8 533.8c-2.7 0-4.8-2.2-4.8-4.8V387.2c0-2.7 2.2-4.8 4.8-4.8 2.7 0 4.8 2.2 4.8 4.8V529c0 2.6-2.1 4.8-4.8 4.8z"/><path class="st2" d="M891.6 434.9S792.6 299.5 874 196c65.4-83.2 123.9 142.3 71.6 202.8l-27.8 36.1h-26.2z"/><path class="st3" d="M903.8 425.6c-.8 0-1.5-.7-1.5-1.5l-4.8-225.3c0-.8.6-1.5 1.5-1.5.8 0 1.5.7 1.5 1.5l4.8 225.3c0 .8-.6 1.5-1.5 1.5zM899 355.4c-.3 0-.6-.1-.9-.3-24-18.3-42-85.7-42.7-88.5-.2-.8.3-1.6 1.1-1.8.8-.2 1.6.3 1.8 1.1.2.7 18.5 69.3 41.6 86.9.7.5.8 1.4.3 2.1-.3.3-.7.5-1.2.5z"/><path class="st3" d="M901.3 307.8c-.5 0-.9-.2-1.2-.7-.5-.7-.3-1.6.4-2.1 40.3-27.6 37.5-50.9 37.5-51.1-.1-.8.4-1.6 1.3-1.7.8-.1 1.6.4 1.7 1.3.2 1 3.3 25.2-38.7 54-.4.2-.7.3-1 .3zM901.4 400.3c-.6 0-1.1-.3-1.4-.9-.3-.8 0-1.6.8-2 36.5-15.5 45.3-48.4 45.3-48.7.2-.8 1-1.3 1.8-1.1.8.2 1.3 1 1.1 1.8-.1.3-9.1 34.7-47.1 50.8-.1 0-.3.1-.5.1z"/><g><path class="st1" d="M98.6 537c-2 0-3.5-1.6-3.5-3.5V429.2c0-2 1.6-3.5 3.5-3.5 2 0 3.5 1.6 3.5 3.5v104.3c0 1.9-1.6 3.5-3.5 3.5z"/><path class="st2" d="M89.6 464.3s-72.7-99.5-13-175.6c48.1-61.2 91 104.6 52.6 149.1l-20.5 26.5H89.6z"/><path transform="rotate(-1.229 97.892 372.061) scale(1.00003)" class="st3" d="M96.4 283.5h3v177.1h-3z"/><path class="st3" d="M95.1 406.6c-18.9-14.4-33.1-67.5-33.7-69.8l2.9-.8c.1.5 14.5 54.3 32.6 68.1l-1.8 2.5zM98.7 369.3l-1.7-2.5c31.5-21.6 29.3-39.7 29.3-39.8l3-.4c.1.7 2.6 19.9-30.6 42.7zM98.5 442.1l-1.2-2.8c28.6-12.1 35.4-37.8 35.5-38.1l2.9.7c-.3 1.2-7.2 27.5-37.2 40.2z"/></g><ellipse cx="502.5" cy="693.3" rx="381.7" ry="13.1" style="opacity:.12;fill:#3a3a3a"/><g><path class="st5" d="M365.8 235.7 499 120.5l134.5 115.2zM128 265.5h738.5l17.4 40.8H110.6z"/><path class="st6" d="M124.2 306.3h749.7v223.1H124.2z"/><path style="fill:#e8effd" d="M374.6 386.9h242.9v14.9H374.6z"/><path style="fill:#e3c0f9" d="m379.5 233.2 117.8-99.1 120.2 99.1v153.7H387z"/><g class="st9"><path class="st10" d="M182.5 394.3h-38.4v-57.7c0-7.9 6.4-14.2 14.2-14.2h10c7.9 0 14.2 6.4 14.2 14.2v57.7zM243.2 393.6h-38.4v-57.7c0-7.9 6.4-14.2 14.2-14.2h10c7.9 0 14.2 6.4 14.2 14.2v57.7zM300.2 393.6h-38.4v-57.7c0-7.9 6.4-14.2 14.2-14.2h10c7.9 0 14.2 6.4 14.2 14.2v57.7zM359.1 393.6h-38.4v-57.7c0-7.9 6.4-14.2 14.2-14.2h10c7.9 0 14.2 6.4 14.2 14.2v57.7z"/></g><g class="st9"><path class="st10" d="M182.5 481.1h-38.4v-57.7c0-7.9 6.4-14.2 14.2-14.2h10c7.9 0 14.2 6.4 14.2 14.2v57.7zM243.2 480.4h-38.4v-57.7c0-7.9 6.4-14.2 14.2-14.2h10c7.9 0 14.2 6.4 14.2 14.2v57.7zM300.2 480.4h-38.4v-57.7c0-7.9 6.4-14.2 14.2-14.2h10c7.9 0 14.2 6.4 14.2 14.2v57.7zM359.1 480.4h-38.4v-57.7c0-7.9 6.4-14.2 14.2-14.2h10c7.9 0 14.2 6.4 14.2 14.2v57.7z"/></g><g class="st9"><path class="st10" d="M673.2 394.7h-38.4V337c0-7.9 6.4-14.2 14.2-14.2h10c7.9 0 14.2 6.4 14.2 14.2v57.7zM733.9 393.9h-38.4v-57.7c0-7.9 6.4-14.2 14.2-14.2h10c7.9 0 14.2 6.4 14.2 14.2v57.7zM791 393.9h-38.4v-57.7c0-7.9 6.4-14.2 14.2-14.2h10c7.9 0 14.2 6.4 14.2 14.2v57.7zM849.8 393.9h-38.4v-57.7c0-7.9 6.4-14.2 14.2-14.2h10c7.9 0 14.2 6.4 14.2 14.2v57.7z"/></g><path class="st10" d="M439.5 315.1h-38.4v-52c0-7.9 6.4-14.2 14.2-14.2h10c7.9 0 14.2 6.4 14.2 14.2v52zM494.8 314.5h-38.4v-52c0-7.9 6.4-14.2 14.2-14.2h10c7.9 0 14.2 6.4 14.2 14.2v52zM546.4 314.5H508v-52c0-7.9 6.4-14.2 14.2-14.2h10c7.9 0 14.2 6.4 14.2 14.2v52zM599.9 314.5h-38.4v-52c0-7.9 6.4-14.2 14.2-14.2h10c7.9 0 14.2 6.4 14.2 14.2v52z"/><g class="st9"><path class="st10" d="M673.2 481.5h-38.4v-57.7c0-7.9 6.4-14.2 14.2-14.2h10c7.9 0 14.2 6.4 14.2 14.2v57.7zM733.9 480.7h-38.4V423c0-7.9 6.4-14.2 14.2-14.2h10c7.9 0 14.2 6.4 14.2 14.2v57.7zM791 480.7h-38.4V423c0-7.9 6.4-14.2 14.2-14.2h10c7.9 0 14.2 6.4 14.2 14.2v57.7zM849.8 480.7h-38.4V423c0-7.9 6.4-14.2 14.2-14.2h10c7.9 0 14.2 6.4 14.2 14.2v57.7z"/></g><path class="st10" d="M384.1 327.5H610v59.4H384.1z"/><path class="st6" d="M391.9 330.8h208v52h-208z"/><path class="st10" d="M124.2 494.3h749.7v35.1H124.2zM379.5 401.8h40.8v7.8h-40.8zM576.7 401.8h40.8v7.8h-40.8z"/><path class="st11" d="M384.1 409.6h31.4v92.6h-31.4zM580.7 409.6h31.8v92.6h-31.8z"/><path class="st12" d="M379.5 502.1h40.8v27.3h-40.8zM576.7 502.1h40.8v27.3h-40.8z"/><path class="st10" d="M386.8 409.6h4.7v92.6h-4.7zM397.4 409.6h4.7v92.6h-4.7zM408 409.6h4.7v92.6H408z"/><g><path class="st10" d="M584.1 409.6h4.7v92.6h-4.7zM594.7 409.6h4.7v92.6h-4.7zM605.3 409.6h4.7v92.6h-4.7z"/></g><path class="st0" d="M891.4 599.4H106.8c-14.3 0-25.9-11.6-25.9-25.9v-18.2c0-14.3 11.6-25.9 25.9-25.9h784.7c14.3 0 25.9 11.6 25.9 25.9v18.2c0 14.3-11.6 25.9-26 25.9z"/><g><path class="st13" d="M424.6 362.1c0 1.2-.1 2.2-.3 3.1-.2.8-.5 1.5-.9 2.2-.4.6-.9 1-1.4 1.4-.6.4-1.2.7-2 .9-.8.2-1.7.3-2.8.3-1.3 0-2.4-.1-3.4-.4-.9-.3-1.7-.8-2.3-1.4-.6-.7-1.1-1.5-1.3-2.4-.3-.9-.4-2.1-.4-3.5v-10.7c0-.8 0-1.4-.1-1.7-.1-.3-.1-.5-.2-.7-.1-.2-.3-.3-.4-.4-.2-.1-.6-.3-1.1-.4v-.8h6.8v.8c-.6.2-1 .3-1.3.5-.2.2-.4.5-.5.9-.1.4-.1 1-.1 1.9v11.5c0 1.1.1 1.9.3 2.6.2.7.5 1.3.9 1.7.4.4.9.7 1.4.9.6.2 1.2.3 2.1.3.8 0 1.4-.1 2-.4.6-.3 1.1-.7 1.4-1.2.4-.5.6-1.2.8-2 .1-.8.2-1.9.2-3.2v-10.2c0-.9 0-1.6-.1-1.9-.1-.3-.2-.6-.5-.8-.2-.2-.6-.4-1.3-.5v-.8h6.5v.8c-.6.2-1.1.3-1.3.5-.2.2-.4.5-.5.8-.1.4-.1 1-.1 1.9v10.4zM442.9 361c.4.6.7 1.2 1 1.7.3.5.5 1 .8 1.6h.2c-.1-.7-.1-2-.1-3.9 0-2-.1-3.7-.1-5.3v-3.4c0-.7 0-1.3-.1-1.6 0-.3-.1-.6-.2-.8-.1-.2-.3-.3-.5-.4-.2-.1-.5-.2-1-.4v-.8h5.8v.8c-.5.1-.8.2-1 .4-.2.1-.4.2-.5.4-.1.2-.2.4-.3.8-.1.3-.1.9-.1 1.7V370h-2l-9-15.2c-.6-.9-1-1.6-1.2-2.1-.2-.4-.5-.9-.7-1.3h-.3c.1.8.1 2.3.2 4.5v9.8c0 .7 0 1.3.1 1.6 0 .3.1.6.2.8.1.2.3.4.5.5.2.1.6.3 1.1.4v.8h-5.9v-.8c.7-.2 1.1-.4 1.3-.6s.4-.5.4-.9c.1-.4.1-1 .1-1.8v-14c0-.7 0-1.3-.1-1.6-.1-.3-.1-.6-.3-.8-.1-.2-.3-.3-.5-.5-.2-.1-.6-.2-1.1-.4v-.8h5.1l8.2 13.4zM457.5 365.7c0 .7 0 1.3.1 1.6 0 .3.1.6.2.8.1.2.3.4.5.5.2.1.6.3 1.1.4v.8h-6.9v-.8c.7-.2 1.1-.4 1.3-.6.2-.2.4-.5.4-.9.1-.4.1-1 .1-1.8v-14c0-.7 0-1.3-.1-1.6-.1-.3-.1-.6-.3-.8-.1-.2-.3-.3-.5-.5-.2-.1-.6-.2-1.1-.4v-.8h6.9v.8c-.5.1-.8.2-1 .4s-.4.3-.5.4c-.1.2-.2.4-.3.8-.1.4-.1.9-.1 1.7v14zM469 347.6v.8c-.5.1-.9.2-1.1.3-.3.1-.5.3-.6.6s-.2.6-.2 1 0 .8.1 1.2c.1.4.2.9.4 1.4l3.8 13.3 4.7-13.4c.1-.2.1-.4.2-.6.1-.2.1-.4.2-.7 0-.2.1-.4.1-.6v-.5c0-.6-.1-1.1-.4-1.4-.3-.3-.8-.5-1.5-.6v-.8h6.8v.8c-.4.1-.8.3-1.1.5-.3.2-.5.5-.8 1-.3.5-.6 1.2-1 2.2l-6.7 18h-2.1l-5.5-18.1c-.3-1-.5-1.7-.8-2.1-.2-.4-.5-.7-.7-.9-.3-.2-.6-.4-1.1-.5v-.8h7.3zM498.6 347.6v4.9H497c-.2-.5-.3-1-.5-1.4-.2-.4-.4-.7-.5-1-.2-.3-.4-.5-.6-.6-.2-.2-.5-.3-.8-.3-.3-.1-.7-.1-1.1-.1h-5.1v8.5h3.5c.5 0 .8-.1 1.1-.2.3-.1.5-.4.7-.7.2-.3.3-.8.5-1.5h1.5v6.2h-1.5c-.2-.6-.3-1.1-.5-1.5-.2-.3-.4-.6-.7-.7-.3-.1-.6-.2-1.1-.2h-3.5v9.4h5.1c.5 0 1 0 1.3-.1.3-.1.6-.2.9-.5.2-.2.4-.5.6-.9.2-.4.3-.7.5-1.1.1-.4.3-.9.5-1.7h1.6l-.3 5.7h-15v-.8c.7-.2 1.1-.4 1.3-.6.2-.2.4-.5.4-.9.1-.4.1-1 .1-1.8v-14c0-.7 0-1.3-.1-1.6-.1-.3-.1-.6-.3-.8-.1-.2-.3-.3-.5-.5-.2-.1-.6-.2-1.1-.4v-.8h15.2zM507.5 360.2v5.5c0 .8 0 1.3.1 1.7.1.4.1.6.3.8.1.2.3.3.5.4.2.1.6.2 1.1.4v.8h-6.9v-.8c.7-.2 1.1-.4 1.3-.6.2-.2.4-.5.4-.9.1-.4.1-1 .1-1.8v-14c0-.7 0-1.3-.1-1.6-.1-.3-.1-.6-.3-.8-.1-.2-.3-.3-.5-.5-.2-.1-.6-.2-1.1-.4v-.8h8c2.5 0 4.4.5 5.7 1.4s1.9 2.3 1.9 4.3c0 1.5-.4 2.7-1.2 3.8-.8 1-2 1.9-3.7 2.4v.1c.7.3 1.2.7 1.7 1.2s1 1.3 1.6 2.3l1.5 2.7c.4.8.8 1.4 1.1 1.8.3.4.6.7.9.9.3.2.7.4 1.3.5v.8h-4.5c-.4-.6-.8-1.2-1.2-1.9-.4-.7-.7-1.3-1.1-2l-1.4-2.7c-.4-.8-.8-1.4-1.1-1.8-.3-.4-.5-.7-.8-.8-.2-.2-.5-.3-.7-.3-.3-.1-.7-.1-1.2-.1h-1.7zm0-11.1v9.6h1.8c.9 0 1.7-.1 2.3-.2.6-.1 1.1-.4 1.6-.8s.9-.9 1.2-1.6c.3-.7.4-1.5.4-2.5s-.2-1.9-.5-2.6c-.4-.7-.9-1.2-1.6-1.6-.7-.4-1.7-.5-2.9-.5-1 .1-1.7.2-2.3.2zM524.1 364.7c.2 1 .5 1.7.9 2.3.4.6.8 1 1.4 1.2.6.3 1.3.4 2.3.4 1.3 0 2.2-.3 2.9-1 .7-.7 1-1.6 1-2.9 0-.8-.1-1.5-.4-2-.3-.6-.7-1.1-1.4-1.6-.6-.5-1.6-1.1-2.9-1.7-1.3-.6-2.3-1.2-3-1.8-.7-.6-1.3-1.3-1.6-2-.4-.7-.5-1.5-.5-2.3 0-1.2.3-2.3.9-3.2.6-.9 1.4-1.6 2.5-2.1s2.4-.7 3.8-.7c.8 0 1.6 0 2.4.1.8.1 1.8.3 2.9.6v4.4h-1.6c-.2-1-.6-1.7-.9-2.2-.4-.5-.8-.9-1.3-1.1-.5-.2-1.2-.3-2-.3-.7 0-1.3.1-1.9.4-.6.3-1 .7-1.3 1.2-.3.5-.5 1.2-.5 1.9 0 .8.1 1.4.4 1.9.3.5.7 1 1.3 1.5.6.5 1.5 1 2.6 1.5 1.4.7 2.5 1.3 3.2 1.9.8.6 1.4 1.3 1.8 2s.6 1.7.6 2.7c0 1.1-.2 2.1-.5 2.9-.4.8-.9 1.4-1.5 1.9s-1.4.9-2.3 1.1c-.9.2-1.8.3-2.9.3-1.7 0-3.7-.3-5.9-.9v-4.5h1.5zM544.1 365.7c0 .7 0 1.3.1 1.6 0 .3.1.6.2.8.1.2.3.4.5.5.2.1.6.3 1.1.4v.8h-6.9v-.8c.7-.2 1.1-.4 1.3-.6.2-.2.4-.5.4-.9.1-.4.1-1 .1-1.8v-14c0-.7 0-1.3-.1-1.6-.1-.3-.1-.6-.3-.8-.1-.2-.3-.3-.5-.5-.2-.1-.6-.2-1.1-.4v-.8h6.9v.8c-.5.1-.8.2-1 .4-.2.1-.4.3-.5.4s-.2.4-.3.8c-.1.4-.1.9-.1 1.7v14zM549.1 347.6h17.6v5.7H565c-.2-.9-.5-1.7-.7-2.2-.2-.5-.5-1-.7-1.2-.3-.3-.5-.5-.8-.6-.3-.1-.7-.2-1.3-.2h-2.1v16.6c0 .6 0 1.1.1 1.5.1.4.2.7.3.9.1.2.3.4.6.5.2.1.6.2 1.2.4v.8h-7.4v-.8c.3-.1.6-.2.9-.2.2-.1.5-.2.6-.3.2-.1.3-.3.4-.5.1-.2.2-.5.2-.8.1-.3.1-.8.1-1.5V349h-2c-.5 0-.9 0-1.3.1-.3.1-.6.3-.9.6-.3.3-.5.7-.8 1.3-.2.6-.5 1.3-.7 2.2h-1.6v-5.6zM575.5 360.5l-4.5-8.3c-.5-1-1-1.7-1.2-2.2-.3-.4-.6-.8-.8-1-.3-.2-.6-.4-1-.6v-.8h6.9v.8c-1 .1-1.5.6-1.5 1.3 0 .3.1.7.2 1.1.1.4.4.9.8 1.7l3.2 6.2 3.2-5.7c.4-.8.7-1.4.9-1.9.2-.5.3-.9.3-1.4 0-.4-.1-.7-.3-.9-.2-.2-.6-.4-1-.4v-.8h6.2v.8c-.4.2-.8.4-1.2.7-.3.3-.7.7-1 1.2-.3.5-.9 1.3-1.5 2.5l-4.5 7.7v5.3c0 .6 0 1.1.1 1.5.1.4.2.7.3.9.2.2.4.4.6.5.2.1.6.3 1.2.4v.8h-7.4v-.9c.5-.1.9-.2 1.2-.3.2-.1.4-.3.6-.5s.3-.5.3-.9c.1-.4.1-.9.1-1.5v-5.3z"/></g><path d="M544.3 529.4h-90.5v-71.9c0-18.5 15-33.5 33.5-33.5h23.5c18.5 0 33.5 15 33.5 33.5v71.9z" style="fill:#2c5c8c"/></g><g><path class="st15" d="M387.7 361.5h56.9v12.4h-56.9z"/><ellipse class="st16" cx="485" cy="417.1" rx="13.1" ry="17.7"/><path class="st16" d="M477.5 431.6s-.4 7.9-7 9.3c0 0 8 8.9 16.1 7.5 8-1.4 11.6-6.7 11.6-6.7s-5.4-.9-7.7-10.2h-13z"/><path class="st6" d="M473.1 440.1s10.7 5.6 21.7.8l-1.3 30.7-21.8-2.8c0 .1 3.1-28.7 1.4-28.7z"/><path class="st16" d="M422.3 410.6s-5-14.8-4.4-23.2.9-12 .9-12 6.6-3.9 5.3-7.2c-1.4-3.2.1-1.8-3 1.8-3.2 3.7-5.2.5-5.2.5s-5.7-1.3-6 4.9c-.2 6.1-2.8 18.8-1.4 26.8s3.4 16.3 3.4 16.3l10.4-7.9zM410.8 363.1s-.3-8.2 13.5-3.6c0 0 1.4 2.7-1.3 3.6-2.8 1-6.9 3.4-12.2 0z"/><path class="st2" d="M446.1 625.7v1.7l-2 58.6 9.6 1.1 13.5-63.7zM478.2 634l7.8 53.1 9.2-1.1s3.4-57.6 2.1-56.4c-1.4 1.1-19.1 4.4-19.1 4.4z"/><path class="st17" d="M453.7 687.1s4.1 8.8-1.4 9.5c-5.5.7-22.9 0-22.9 0s-3.7-3 1.1-4.6c4.8-1.6 13.5-6 13.5-6l9.7 1.1zM486 687.1s-1.3 10.3 1.9 9.8 21 0 21 0 4.1-1.6-2.3-4.9c-6.4-3.2-11.5-6-11.5-6l-9.1 1.1zM471.9 438.4s-9.2 0-15.9-2.1c-6.6-2.1-13.1-3.8-24.5-19.2l-6.2-10.9s-6.2 6.7-16.7 8.3c0 0 11.5 23.5 16.7 32.3.7 1.1 14.9 14 14.9 14s4.6 2.8 3.6 15.4c-.9 12.6 4.8 111.9-15.4 141.7 0 0-11 14.9-1.6 15.1s35.8-5.7 39.9 1.1c0 0-1.6 7.3 7.8 6.4s30.7-8.8 30.7-8.8l5-50.6 4.6-132.6-18.8-7.7-12.8 23.6-11.3-26z"/><path class="st18" d="M475.5 423.3s-5.7.7-4.9-5.8c.8-6.5-1.7-10.4-1.7-10.4s2.4-5 5.3-1.7 1.1-1.1 1.1-1.1 6.1-8 11.9-3.9c5.8 4.1 6.3-1.5 8.9 2.1s1.2 7.3 3.2 9.9-.3 7.4-1.6 8.4-2.6-5.4-2.8-6.9-.4-2.7-5.3-2.6c-4.9.1-10.1 5.6-12.8 3.8-2.8-1.9-1.3 8.2-1.3 8.2z"/><path class="st19" d="M470.5 408.7h27.6l-1.2-8.3s-16.4-7.8-25.4-1l-1 9.3z"/><path class="st20" d="m475.7 404.6-11.4-6.4 20.2-10.8 22.6 10.6-21.4 12.2z"/><g><path class="st21" d="m520.7 636.1 2.7 52.9h7.4l4.2-48.3zM554.9 645.6l3.7 43.4h6.7l5.2-48.3z"/><path class="st22" d="M530.8 689s5.5 6.3 1.5 7.9h-17.4s-.4-3.7 2.4-3.9 6.1-3.9 6.1-3.9h7.4zM557.1 689s-3.1 8.9 0 8.9 18-1 18-1-.6-4.1-3.4-4.4-6.4-3.4-6.4-3.4h-8.2z"/><path d="M533.1 403.4s-9.3 9.5-5.7 20.5c0 0-1.7 9.6-.9 13.2.9 3.6 1.8 4.6 1.8 4.6l1.4 4.5h41.1l-3.4-17.7s6.2-8.7-2.1-14.1-7.9-11-7.9-11-12.6-17.7-24.3 0z" style="fill:#593559"/><ellipse class="st21" cx="545.2" cy="418.4" rx="12.2" ry="18.7"/><path class="st20" d="m545.2 392.4 25.6 10.3-25.6 11.7-26.7-9.4z"/><path class="st21" d="m539.3 431.6-8.3 12.5s21.4 8.7 26.3 4.5c4.9-4.2 0-7.9 0-7.9s-5.2-4.7-5.2-9.1-12.8 0-12.8 0z"/><path class="st17" d="M531.1 439.7s-11.3 10.8-16.1 8.9l-4.6 132.6s2.7 39-1.9 50.6c0 0-4.9 3.7 20.5 8.9 0 0 9.2 3.1 23.5 8.6 10.2 3.9 28.4-8.6 28.4-8.6s5.8.3 0-6.1c0 0-9.5-71.5-4-100.9 5.5-29.4 2.4-54.1 2.4-54.1s6.3-20.4 19.7-33.8c3.4-3.4 6-7.5 7.8-11.9 2.7-7 6.1-16.8 5.5-22.1 0 0-14.1-4-18-8.3l-14.7 26.3s-4.3 10.1-19.4 12.1l-29.1-2.2z"/><path class="st22" d="M533.1 443.2s-13 46.8 4.4 75.2l-4.5 18-16.2-9.7s-11.3-50.4 4.9-78.1l9.5-8.9 2.3 1-.4 2.5zM562.2 441.8s5.5 53.7-10.7 81.7l13.1 14.2 12.5-17.4s2.1-64.3-9.1-80.5l-5.8 2z"/><path class="st21" d="M595 410.2s6.4-9.2 6.1-17.8c-.3-8.5 0-18.9 0-18.9s-3.4-4.9-1.2-5.2c2.1-.3 4.9 3.7 4.9 3.7l6.4 2.4s1.9 24.8 0 30.6c-1.9 5.7-6.4 13.5-6.4 13.5l-9.8-8.3zM603.5 359.7s-7.3 2.1-3.6 4.9c3.7 2.8 12.2 2.1 12.2 2.1s4-4.6-1.5-5.5-7.1-1.5-7.1-1.5z"/><path class="st15" d="M580.6 359.7s38.2 9.6 55.6 8c0 0 .6 12.5-3.7 12.5s-27.5-7.6-40.4-6.3-12.8 0-12.8 0l1.3-14.2z"/><path class="st6" d="m536.4 439.8 22 .9s-11.7 27.5-14.8 23-7.2-23.9-7.2-23.9z"/></g><g><path class="st17" d="M743.2 687.5s3.7 7.5 0 9.4c-3.7 1.9-18.6 1-18.6 1s0-3.7 4.6-4.9c4.6-1.2 7.3-5.5 7.3-5.5h6.7zM781.8 687.5s-4 8.8 0 9.4c4 .7 19.6 0 19.6 0s.9-4.6-2.8-4.6c-3.7 0-10.4-4.9-10.4-4.9h-6.4z"/><path class="st24" d="m731.3 637.9 2.8 51.1h9.1l5.5-48.3zM770.1 645l9.8 44H790l-3-44z"/><ellipse transform="rotate(-77.783 757.789 420.913)" class="st25" cx="757.8" cy="420.9" rx="16.7" ry="12.7"/><path class="st25" d="m749.1 429.7-5.5 18.4s14.7 8.8 21.4 3.9c6.7-4.9-1.5-7-1.5-7l-1.8-11.3-12.6-4z"/><path class="st6" d="M743.5 443.3s13.5 5.7 19.7 2.3c6.3-3.4 2.8-.5 2.8-.5s-4 19.1-8.7 28.3-9.2 10.7-9.2 10.7-4-8.9-4.6-11.2c-.6-2.2-4.4-19.3 0-29.6z"/><path class="st17" d="M745.4 441.8s-.7 0-1.9.2c-5.3.6-20.3 3.6-25.1 17.1-5.8 16.5-10.7 44.3-9.8 59 .9 14.7-.1 37.3-.1 37.3h10.2s-1.9 76.4 8.2 85.3c0 0 21.4 1.2 33.7 6.4 12.2 5.2 44.3 0 44.3 0s3.4-4-1.8-10.4c0 0-17.1-95.4-15-121.1 0 0 11-1.8 8.9-12.8l-7.6-44s-7.2-13.2-26-13.8c0 0-4.3 19.3-12.5 30.3 0 0-7.2-18.1-5.5-33.5z"/><path d="M776.5 408.4v9.9s-3.8 1.7-2 6.9h5.5s1.7-4.1-1.5-7.2l-.7-10.1-1.3.5z" style="fill:#ffb200"/><path class="st20" d="m777.3 464.2 1.4 38.3-23.1 3.7 1.8 12.5 30.9-3.1s10.4-3.9 8.9-12.8c-1.6-9-6.8-39.1-6.8-39.1s-8.7-13-13.1.5z"/><path class="st25" d="M710.5 553.5s-6.1 9.2 0 17.4c0 0 2.4 4 2.4 0s-2.4-8.3 0-7.8c2.4.5 2.8 4.2 2.8 4.2s2.9 1.8 2.9-2.8-.2-10.1-2-11c-1.8-.9-6.1 0-6.1 0z"/><path class="st15" d="m739 491.3 10.5-1.6s3.2 36.9 6.1 40.8c0 0-3.4 3.7-8.8 1.8 0 0-3.6-30.3-5.4-34.4-1.8-4-2.4-6.6-2.4-6.6z"/><path class="st25" d="m757.8 509.2-7.2-1.8s-6.7-3.1-7 1.8-1.8 8.7 5.8 7.6c7.6-1.1 10.7-2.8 10.7-2.8l-2.3-4.8z"/><path class="st16" d="M745 423.1s-3.5-5.8 3.2-12.2 8.8-11.6 14.6-6.4c5.8 5.2 7.8 10.7 7.8 10.7s4.6 5.4-1.6 10.2c0 0 2.2-10-2-10.9s-9.7 4.4-15.4 1.9c-5.6-2.4-6.6 6.7-6.6 6.7z"/><path class="st20" d="M746.2 412.9s15.7-3.1 25.3 4.3l-1-6.4 11.5-4.6-20.8-12.8L738 401l8.9 7-.7 4.9z"/></g><g><path class="st25" d="M236.3 520.8s0 13.1 1.2 13.1 1.8-7.9 3.1-5.2 0 9.5 0 9.5 4.9 3.7 5.2-1.2c.3-4.9 0-14.1 0-14.1L243 518l-6.7 2.8zM218 643.1l1.4 48h8.6l4.2-49.8zM178.6 646.5l-3.2 44.6h8.7l6.7-44.6z"/><path class="st27" d="M174.9 689s-5.2 8.3 1.5 9.2c6.7.9 18.3 0 18.3 0s1.5-3.3-2.8-4.4c-4.3-1.1-8.4-4.8-8.4-4.8h-8.6zM220 690.1s-5.6 7-1 8.4c4.6 1.4 19.3 0 19.3 0s2.8-3.7-3-4.8c-5.8-1.1-8.1-4.8-8.1-4.8l-7.2 1.2z"/><ellipse transform="rotate(-81.935 206.142 415.333)" class="st25" cx="206.1" cy="415.3" rx="17.9" ry="11.7"/><path class="st25" d="m206.1 428.5 6.7 13.3-12.3 27.1-11.2-30 7.9-13.1z"/><path class="st17" d="M193.2 439.2s7.2 25.1 7.3 24.2c.1-.9 9.7-26.7 9.7-26.7l8.1 4.5s6.5 3.6 10.2 10.5c3.8 6.9 14.2 32.1 15.7 52s1.5 17.7 1.5 17.7l-11.1 1.8-5.4-25.4 3.1 37s6.7 39.7 6.1 58.7c-.6 19-1.5 48.3-1.5 48.3s-.9 4.9-7 5.2c-6.1.3-48.3 3.7-48.3 3.7s-12.5.3-14.1-5.8l1.5-87.1-1.5-55.6s-10.7-2.8-6.4-20.2l5.1-30.6s8.2-16.4 27-12.2z"/><path class="st15" d="m189.3 471 25.6 5.8-6.3 42.5-28.2-6.4z"/><path class="st25" d="m195 500 7.5 1.5s4-4.3 9.5-4c5.5.3 6.4 6.7 0 9.5s-11.9 1.8-11.9 1.8l-11.4.1 1.8-9.9 4.5 1z"/><path class="st20" d="M166.2 451.4s17.9-14.3 19.6 6.4l-9.8 29 21.6 10.7-2.9 15-27.2-10.4s-11.3-4.9-6.4-20.2l5.1-30.5z"/><path class="st18" d="M209.1 408.7s1.2 6.1-7.3 5.2c-8.6-.9-7.4 6-7.4 6s-1 5.1 2.8 8.7-1.8 13.2-1.8 13.2-15 5.1-17.1 14.9c-2.1 9.8-3.4 20.8-10.1 12.8 0 0-5.2-14.4 1.5-25.4 6.7-11 .6-15.6.6-15.6s-3.4-10.7 7.9-18.7c11.3-7.9 13.1-18.3 25.5-15.9s20.6 14.7 20.6 14.7 5.2 4.8 0 18.3c0 0 4.3 12.5 7.3 16.8 3.1 4.3 4 14.4 1.8 17.4 0 0-8.3-17.8-13.5-19.4-5.2-1.6-11.9-4.2-13.6-8.9 0 0 14.7-4.4 10.8-25.3l-8 1.2z"/><path class="st19" d="M186.8 402.5s3.1 5.6 17 6.1 19.1-3.1 19.1-3.1l-6.7-9.2-19-2.4h-6.4l-4 8.6z"/><path class="st20" d="m178.2 390.3 23.6 15.9 27.5-11.3-25.5-13.2z"/></g></g></svg>