<svg version="1.1" id="Layer_1" xmlns="http://www.w3.org/2000/svg" x="0" y="0" viewBox="0 0 1000 891" style="enable-background:new 0 0 1000 891" xml:space="preserve"><style>.st2{fill:#f9c4b4}.st3{fill:#f1f2f2}.st6{fill:#97b2ef}.st8{fill:#4570ad}.st9{fill:#fff}.st10{fill:#f9b59d}.st11{fill:#00052e}.st12{fill:#1d1e1e}.st14{fill:#ff4d53}.st15{fill:#fdfffb}.st17{opacity:.13}.st18{fill:#231f20}.st19{fill:#141414}.st21{opacity:.21}.st22{fill:#22253b}.st25{opacity:.46;fill:#506491}.st26{fill:#5971af}.st30{fill:#212123}.st32{opacity:.53}</style><path d="M1000 55v810H405c-79.8 0-154.3-23.1-217-63-25.3-16.1-48.7-34.9-69.7-56C45.2 672.7 0 571.6 0 460c0-111.8 45.3-213.1 118.6-286.4S293.2 55 405 55h595z" style="fill:#e1d5fa"/><path d="M1000 72v778H421.7c-77.6 0-150-22.2-211-60.5-24.6-15.4-47.3-33.5-67.8-53.8C71.9 665.3 28 568.2 28 461c0-107.4 44.1-204.7 115.3-275.1S313 72 421.7 72H1000z" style="fill:#cfb5f6"/><ellipse class="st2" cx="163" cy="384" rx="22" ry="30"/><path class="st3" d="M310 199v199H10v-27.8c6.2-27.2 15-53.4 26.4-78.2 9.9-21.8 21.7-42.5 35.2-62 7.4-10.7 15.3-21.1 23.7-31H310z"/><path style="fill:#f9dca7" d="M205 213h86.3v110H205z"/><path d="M74.5 230v62H36.4c9.9-21.8 21.7-42.5 35.2-62h2.9z" style="fill:#dce6fa"/><path class="st6" d="M89.2 212h95.3v2H89.2zM88.2 222h95.3v2H88.2zM89.2 235h95.3v2H89.2zM88.2 245h95.3v2H88.2zM89.2 258h95.3v2H89.2zM88.2 268h95.3v2H88.2zM89.2 281h95.3v2H89.2zM88.2 291h95.3v2H88.2zM88.2 311h95.3v2H88.2zM87.2 321h95.3v2H87.2zM88.2 334h95.3v2H88.2zM87.2 344h95.3v2H87.2z"/><g><path class="st6" d="M88.2 357h95.3v2H88.2zM87.2 367h95.3v2H87.2z"/></g><g><path class="st6" d="M88.2 380h95.3v2H88.2zM87.2 390h95.3v2H87.2z"/></g><g><path class="st6" d="M201.2 335h95.3v2h-95.3zM200.2 345h95.3v2h-95.3z"/><g><path class="st6" d="M201.2 358h95.3v2h-95.3zM200.2 368h95.3v2h-95.3z"/></g></g><path d="M1000 746v56H188c-25.3-16.1-48.7-34.9-69.7-56H1000z" style="fill:#e6e7e8"/><path class="st8" d="M806.5 210.5h193v538h-193z"/><path class="st9" d="M855.5 280.5h137v30h-137z"/><g><ellipse transform="rotate(-78.357 932.17 304.832)" class="st10" cx="932.1" cy="304.8" rx="31.6" ry="22.1"/><ellipse transform="matrix(.9988 -.04971 .04971 .9988 -14.001 45.644)" class="st10" cx="910.6" cy="304.3" rx="4.8" ry="7.6"/><path class="st11" d="M913 291s-13-23 1.2-28.5c24.7-9.6 47.3 5 47.3 5s16 8 8 33c0 0-7.8 15.2-20.4 22.1 0 0 10.1-21.6 3.7-31.4 0 0-14.8 4.8-17.6 0-2.7-4.8.3-11.8-8.7-9.8S913 291 913 291z"/><path class="st10" d="m918 332.6 2.5 18.9h26.4l-2.7-28.9z"/><ellipse transform="rotate(-47.213 952.488 317.285)" class="st10" cx="952.6" cy="317.3" rx="7.6" ry="4.8"/><path class="st10" d="M968.5 749.5v6.6h18l-1-7.6zM879.9 748.5v10.6H897s-.5-10.6 0-10.6h-17.1z"/><path class="st12" d="M968.5 753.8s-20.9.9-27.4 13.3c0 0-2.4 3.3 0 7.3h45.4l-.3-20.6h-17.7zM879.9 753.8c-2-.9-17.9.4-26.1 9.5-1.5 1.7-2.3 3.9-2.3 6.1v5H897v-18.3s-11.7 0-17.1-2.3zM976.5 475.5l10 276h-19.8l-44.2-185-21.8 185h-26l-4-276z"/><path style="fill:#96c1ea" d="m919 340.3 13.5 7 13.4-7 1 137.9-42.4 1.3z"/><path class="st14" d="M934.5 346.2s5 6 0 9.6l-3.6 2.4V475L918 491l-9.2-18.7 17-113.3s-1.8-5.4 0-7.4 4.7-5.3 4.7-5.3h4z"/><path class="st10" d="M809.3 393.1s1.8-3.6 0-10.6l3.4-5.6c.7-1.1 1-2.5.6-3.7-.4-1.4-1.4-2.6-4-.4l-2.8 4.8s-4-11.3-13-12.1-9.9 3.6-7.5 13.9c2.5 10.3 7.5 11.8 7.5 11.8l4 6.5 11.8-4.6z"/><path class="st15" d="m946 341 31.1 23.9c1.6 1.1 3.1 2.3 4.3 3.8l18.6 21.7-.8 71.5-16.7 6.5 5 163h-46.4L946 341zM919 341l-20.5 286h-39.9l4.9-183s-14 33-40 17c0 0-25-12-29-67l20-7 13 32s9 11 17-4 11-38 33-55 41.5-19 41.5-19z"/><path style="fill:#bcbec0" d="m864.5 396.5 59-2 2.2 80.9-58.2 2.1z"/><path class="st8" d="M882.5 391.5h8.7s3-7 7.6 0h7v6.3h-23.4v-6.3z"/><path class="st10" d="M946.9 449.4H938s-3.6-3-7.1-4c-3.4-1-6 0-6 0l.2 5.8h-9.5c-2.8 0-5.6 1-7.7 3-3.7 3.5-6.8 9.4 6.8 14 .4.1.9.3 1.3.5 1.7.8 8.3 3.2 18.1-.2 11.5-4 14.5-9 14.5-9l-1.7-10.1z"/><g class="st17"><path class="st18" d="M946.9 449.4c3.2-1.8 6.5-3.4 9.7-5.1 3.3-1.7 6.5-3.2 9.8-4.8 3.3-1.6 6.6-3.1 9.9-4.6l5-2.2c1.7-.7 3.4-1.5 5.1-2.1-1.6.9-3.2 1.7-4.8 2.6l-4.9 2.5c-3.3 1.7-6.5 3.2-9.8 4.8-3.3 1.6-6.6 3.1-9.9 4.6-3.3 1.5-6.7 2.9-10.1 4.3z"/></g><g class="st17"><path class="st18" d="M948.5 469.5c2.8-.3 5.7-.5 8.5-.6 2.8-.2 5.7-.3 8.5-.4 2.8-.1 5.7-.1 8.5-.1h4.3c1.4 0 2.8 0 4.3.1-1.4.2-2.8.2-4.2.4l-4.2.3c-2.8.2-5.7.3-8.5.4-2.8.1-5.7.1-8.5.1-3-.1-5.9-.1-8.7-.2z"/></g></g><g><path class="st2" d="M643.5 734.5v20.7l21.8-1.4v-19.3zM752.7 734.5l3.1 19.1 22-2.1-4.3-18z"/><path class="st19" d="M641.5 752.3v20.1l53 .1s1.7-7.2-4.1-10.1c-5.9-2.9-22.2-13.9-22.2-13.9h-8.5c-.1 0-14.2 4.6-18.2 3.8zM752.7 752.3v20.2h53.8s1.7-7-5.6-12-21.2-12-21.2-12h-8.2l-18.8 3.8z"/><ellipse transform="rotate(-14.76 697.95 299.81)" class="st2" cx="698" cy="300" rx="22" ry="32"/><ellipse transform="rotate(-78.357 719.024 305.006)" class="st2" cx="719" cy="305" rx="6.9" ry="4.7"/><path class="st2" d="M678.5 311s6 26.5 2 37.5 1.4 10.4 1.4 10.4h28l-5.5-12.7s-1.2-9.3 3.9-16c5.2-6.7 4.4-4.9 4.4-4.9L678.5 311z"/><path class="st19" d="m655.5 519.5-14 217h33.6c1.4 0 37-174.6 37-174.6l34.4 175.6h31.3l-16.2-218H655.5z"/><path class="st2" d="M620.5 537.5v9.3s-7.7 11.8-2.8 24.8c2.1 5.7 5 6.9 8.7 7.6 4.4.8 6.5-1.9 6.1-6.4-.4-4.8-2-10.3 2-10.3 4.2 0 4.8 2.2 4.6 3.9-.2 1.6.7 3.3 2.2 3.8 1.4.4 2.7.1 2.1-3.2-1-6.5-2-14.5-6-15.5l.1-14h-17zM794.5 515.2s7.6 18.3 12.2 22.3c6.8 6 22.8 8 20.8-4 0 0-8-9-6-11 1.2-1.2 3-2 4.4-2.5 1.6-.6 2.9-1.9 3.3-3.5.3-1.5-.2-3-3.7-3h-12l-4.5-7-14.5 8.7z"/><path class="st11" d="m679.2 308.6-.7-20.9s3-5.2 12-3.2 23.8-1.9 23.8-1.9 12.2-9.1 11.2-17.1c0 0-13-3-21-1l7.6-6.8s-15.8-3.8-18.7 1.5l-5.9 3.3 4-8s-20 0-26 15-6.5 24.7 4.2 37.9l9.5 1.2z"/><ellipse transform="rotate(-30 674.977 311.028)" class="st2" cx="675" cy="311" rx="4.8" ry="7"/><path d="M694.5 348.5s10-2 33 1 35 26 35 26 26 83 35 99 14 30 14 30l-19 15-31.8-44 2.8 47s-67.3 18-110.1 0l-5.8-22.5-8 39.5-23 2s-6-67-3-101 18-69 18-69 8.3-21.3 38.7-23.7l24.2.7z" style="fill:#fc4e53"/><g class="st21"><path class="st18" d="M650.5 411.5c.1 7.4-.2 14.8-.5 22.2l-1.2 22.1c-.4 7.4-.7 14.7-.9 22.1-.2 7.4-.4 14.7-.3 22.1-.8-7.4-1.2-14.8-1.3-22.1-.1-7.4.1-14.8.5-22.2.4-7.4 1-14.8 1.7-22.1l1-11c.3-3.7.7-7.4 1-11.1z"/></g><g class="st21"><path class="st18" d="M737.8 394.5c1.7 6.9 3.3 13.7 4.7 20.6 1.5 6.9 2.8 13.8 4.2 20.7 1.4 6.9 3.3 13.6 5.7 20.2 1.2 3.3 2.5 6.6 3.8 9.9 1.3 3.3 2.7 6.5 4.4 9.6-1.1-1.4-2-2.9-2.8-4.5-.9-1.5-1.7-3.1-2.5-4.7-1.5-3.2-3-6.4-4.4-9.7-2.7-6.6-4.8-13.4-6.2-20.4-1.3-7-2.6-13.9-3.8-20.8-1.1-6.9-2.1-13.9-3.1-20.9z"/></g></g><g><path transform="rotate(-11.146 325.34 577.955)" class="st22" d="M322.8 548.1h5v59.5h-5z"/><path transform="rotate(-8.128 388.79 579.117)" class="st22" d="M386.4 548.2h5v62.1h-5z"/><path transform="rotate(-82.842 322.22 691.001)" class="st22" d="M244.1 688.5h156.2v5H244.1z"/><path transform="rotate(-4.35 393.415 692.981) scale(.99998)" class="st22" d="M390.9 613.3h5v159.5h-5z"/><path class="st14" d="M319.5 603.5h98v14h-98zM269.1 445l37.4 107.5h100.1L360.2 445z"/></g><g><path class="st2" d="M424.4 744.8v15.7l20.1-4-1.8-11.7zM472.4 744.8l3.1 12.7 18.6-2.3-4-10.4z"/><path class="st19" d="M422.5 755.2V775h47.7s3.3-5.5-7.7-13.5-20.4-10.3-20.4-10.3-3.2-.3-4.9 1.5c-1.7 1.8-14.7 2.5-14.7 2.5zM472.4 755.2l1.2 19.9h48s2.9-8.4-6.1-11.9l-19.6-10.4H487c0-.1-4.8 6-14.6 2.4z"/><ellipse class="st2" cx="430.5" cy="380.5" rx="20.5" ry="29.5"/><path class="st11" d="M410 382.5s-9.5-1.6-10.5-20c-1-19 17-26 26-26s19.8 1.3 27 11 1.8 18.8 1.8 18.8l.1 7.9c0 2.7-1.2 5.2-3.4 6.7 0 0-.1-14.7-3.8-17.6-3.7-2.9-1.7 4.1-5.7 4.1s-11.4.5-14.2-2.8c-2.8-3.2-6.8-3.2-8.8.8S410 381 410 381v1.5z"/><path class="st2" d="M410.2 386.8s.5 20.7-1.6 27.7-5.3 11 6.4 14 25.5 2 21.2-6c0 0-2.1-1-2.1-3s1.1-14 1.1-14l-25-18.7z"/><path class="st8" d="M358.5 545.5s-9 26 2 43 38 32 38 32 8 7 11 25 9 101 9 101h29.4l8.6-97 11.9 97h28.7l5.8-118s1.6-21-8.4-33-33-31-33-31-80-4-103-19z"/><ellipse transform="rotate(-16.922 410.032 381.073)" class="st2" cx="410" cy="381" rx="5.9" ry="8.5"/><ellipse transform="rotate(-74.723 450.98 380.95)" class="st2" cx="451" cy="381" rx="8.5" ry="5.9"/><path d="M435.2 418.6s25.3 6.9 37.3 21.9 20 33 19 64-28.1 22.3-28.1 22.3v41.3l-45.9 3.4-7.5 9.4s-33.5-7.4-51.5-30.4c0 0-21-16-23-43-1.3-17.2 4-36.5 7.9-48.2 2.8-8.2 7.4-15.7 13.6-21.8 7-6.9 17.5-15.2 30.4-19 24.1-7.1 21.1-4.1 21.1-4.1s7.5 17.2 26.7 4.2z" style="fill:#feac02"/><path class="st2" d="m435.2 480-4.7-3.1s-3.1-12.6-17.1-12.5c-13.9.1-16 3.5-14 9.8 2 6.3 14 10.3 14 10.3l10.1 1 7 5.5 4.7-11z"/><path d="m451 458 9 23-25.6-5.5-6.6 19.5 21.4 21.3 14.1 10.5s28.3 6.7 28.2-26.8c0 0 .3-40.2-15.9-55.3 0 0-7.7-11.2-16-15.2-8.1-4-17.9 12.7-8.6 28.5z" style="fill:#ef9b06"/><path class="st2" d="m421 569.1 7.1 1.5s12.6-8.4 14.7-5.5-4.8 3.2-.7 7c4.2 3.8 14.2 3.3 14.4 8.3s-1.4 12.1-14.5 9.7c-13.1-2.3-28.5-10.1-28.5-10.1l-3.1-.8 10.6-10.1z"/><path class="st25" d="M379.4 464.4c-1.6 4.6-3 9.3-4.1 14.1-1.1 4.7-1.9 9.5-2.3 14.4-.4 4.8-.3 9.7.6 14.4.5 2.3 1.1 4.6 2.1 6.8 1.1 2.1 2.2 4.2 3.6 6.2l1 1.5c.3.5.7 1 1.1 1.4.7.9 1.5 1.9 2.2 2.9 1.6 1.8 3.1 3.7 4.8 5.4 3.3 3.6 6.8 7 10.3 10.3 7.1 6.6 14.5 13 22.2 19.2-8.1-5.5-15.8-11.6-23.2-18-3.7-3.2-7.3-6.6-10.7-10.2-1.7-1.7-3.3-3.6-5-5.5-.8-.9-1.5-1.9-2.3-2.9-.4-.5-.8-1-1.1-1.5l-1-1.5c-1.4-2-2.6-4.2-3.7-6.5-1-2.3-1.7-4.8-2.2-7.2-.8-4.9-.8-10-.2-14.9 1.1-9.9 4-19.4 7.9-28.4zM427.9 495c2.9 2.1 5.7 4.4 8.5 6.7s5.4 4.7 8.1 7.1c2.6 2.4 5.3 4.9 7.8 7.4 2.6 2.5 5.1 5.1 7.4 7.8-2.9-2.1-5.7-4.4-8.5-6.7s-5.4-4.7-8.1-7.1c-2.6-2.4-5.3-4.9-7.8-7.4-2.6-2.5-5.1-5.1-7.4-7.8zM437.1 476.1c2.2 0 4.3.1 6.5.3 2.1.2 4.3.5 6.4.9 2.1.4 4.2.8 6.3 1.3 2.1.5 4.2 1.1 6.2 1.9-2.2 0-4.3-.1-6.5-.3-2.1-.2-4.3-.5-6.4-.9-2.1-.4-4.2-.8-6.3-1.3-2.1-.6-4.1-1.1-6.2-1.9z"/></g><g><circle class="st26" cx="552" cy="259" r="60"/><circle class="st9" cx="552" cy="259" r="54"/><circle class="st26" cx="552" cy="259" r="5"/><circle class="st9" cx="552" cy="259" r="2"/><path style="fill:none;stroke:#5971af;stroke-width:2;stroke-linecap:round;stroke-miterlimit:10" d="M552 228.1V254"/><path style="fill:none;stroke:#5971af;stroke-width:3;stroke-linecap:round;stroke-miterlimit:10" d="M556 259h25"/></g><path class="st3" d="M690 78h147.5v49H690z"/><circle cx="898.5" cy="101.5" r="19" style="fill:#050732"/><g><path transform="rotate(-11.146 96.285 575.959)" class="st22" d="M93.8 546.1h5v59.5h-5z"/><path transform="rotate(-8.128 159.845 577.114)" class="st22" d="M157.4 546.2h5v62.1h-5z"/><path class="st22" d="m86 709-5-.4 19.5-97.4 4.9.4z"/><path transform="rotate(-4.35 164.419 690.984) scale(.99998)" class="st22" d="M161.9 611.3h5v159.5h-5z"/><path class="st14" d="M90.5 601.5h98v14h-98zM40.1 443l37.4 107.5h100.1L131.2 443z"/><g><path class="st2" d="m198.7 690 8.7 67.5s22.1 14 28.9 3l-11.7-9.3s-4.6-45.4-1.4-59.5l-24.5-1.7zM243.9 691.6l8.6 63.5s25 10.3 29.2 3.3c0 0-.1-1-13.7-10l1-61.7-25.1 4.9z"/><path class="st30" d="M207.4 757.5c-1.3 2.9-6.9 11 6.9 14.2 9.2 2.1 24.2 1.8 30.6 2 2.1 0 3.7-3 3.1-5-.8-2.9-3.4-6.5-11.7-8.1 0-.1-5.8 4.9-28.9-3.1zM252.5 755.2s-6.1 7 3.5 11.6c7.2 3.6 26.1 4 34.8 3.9 2.6 0 5.3-.8 4.1-3.1-1.6-3.1-5.2-6-13.1-9.1-.1 0-1.3 6.3-29.3-3.3z"/><path class="st2" d="M145.3 401.8V430s20.2 12.4 26.2 5.4 0-11.6 0-11.6l-1-17.4-25.2-4.6z"/><ellipse class="st2" cx="164.5" cy="385.5" rx="24" ry="32.7"/><path d="M140.5 384s15.5-13.2 22.5-26.6c0 0 4.8-1.4 6.4 2.1 1.6 3.5 15.4 16.1 15.4 16.1s4.4 13.6-6.2 29.5l-7.4 6.7.3 12.1s17.7 2.2 22.6 6.2c4.9 3.9 9.3 12.4 13.6 22.2 0 0 7.3-4.2 9.3-13.2s1-17-10-22c0 0-10.6-4.3-6.3-15.2C205 391 201 383 194 377s-6.7-17.5-6.7-17.5-5.8-19.6-27.5-19-32.2 22.5-32.2 22.5 2.4 21.1-14.1 25.6S97 406 96 417s-20 16-20 16-19.5 26 6.2 34.5c0 0 7.5 3.5 14.1 0 0 0 .8-26.3 23.2-36.4s25.7-8.6 25.7-8.6v-20.7l-4.7-17.8z" style="fill:#3e3d56"/><ellipse transform="rotate(-10.318 140.5 388.505)" class="st2" cx="140.5" cy="388.5" rx="5.9" ry="8"/><ellipse transform="rotate(-80.543 183.5 383.504)" class="st2" cx="183.5" cy="383.5" rx="8" ry="5.9"/><path class="st30" d="M114.6 552.5s-9.6 38.5 12.9 51 57.5 25 57.5 25 6.9 7.7 5.9 31.6c-.9 23.9.1 30.9.1 30.9s66 7 85-8l-3.2-65.5s-1.2-22.8-33-38.2l-32.3-14.9-9.9-6-83-5.9z"/><path class="st9" d="M148.5 422.5s9 7.8 23 1.4c0 0 21 1.6 28 10.6s36 95 36 95l17 41-15.7 7s-32.3-34-33.3-45l3.9 31.9s-32.5 8.9-47.7 0l3.3 13.1-17.7 15.6s-28-23.6-42.4-47.6c0 0-16.4-15-12.4-41s8-50 8-50 3-25 50-32z"/><g class="st32"><path class="st11" d="M127.5 473.5c.2 4.5.3 9 .5 13.5l.3 13.5c.1 9 .2 17.9.2 26.9l-.2-.7 8 9.3 7.9 9.4c2.6 3.1 5.2 6.3 7.8 9.5 2.6 3.2 5.2 6.3 7.7 9.6-2.8-2.9-5.6-6-8.4-9-2.8-3-5.5-6-8.3-9.1l-8.2-9.2-8.1-9.2-.2-.3v-.4c0-9 0-17.9.2-26.9l.3-13.5c.2-4.4.3-8.9.5-13.4z"/></g><g class="st32"><path class="st11" d="M197.5 467.5c2.2 4.6 4 9.4 5.3 14.3 1.3 4.9 2.2 10 2.1 15.2l-.1 2-.2 1.9c-.1 1.2-.2 2.5-.3 3.8-.2 2.5-.2 5-.3 7.5-.1 5-.1 10.1-.1 15.2-.8-5-1.3-10.1-1.4-15.2-.1-2.5-.1-5.1 0-7.6 0-1.3.1-2.5.2-3.8l.2-1.9.1-1.8c.1-2.4 0-4.9-.4-7.4-.3-2.5-.7-4.9-1.2-7.4-1.1-5.1-2.5-9.9-3.9-14.8z"/></g><path class="st2" d="M240.5 575.8s-.7 12.1 3.4 19.1c0 0 3.4 3.3 4.3-1.8.8-5.1 6.5 8.9 14.7 8.4C271 601 272 591 267 586l-15-16-11.5 5.8zM159.1 580.9s12.2 4.2 15 9.7c2.8 5.5-7.4 2.6-7.4 2.6s11 21.9 2.6 24.4-19.3-8.5-17.4-16l-3.8-11 11-9.7z"/></g></g><g><path class="st9" d="M909.6 94.3h-22.1c-.6 0-1-.4-1-1s.4-1 1-1h22.1c.6 0 1 .4 1 1s-.5 1-1 1zM909.6 101.9h-22.1c-.6 0-1-.4-1-1s.4-1 1-1h22.1c.6 0 1 .4 1 1s-.5 1-1 1zM909.6 109.5h-22.1c-.6 0-1-.4-1-1s.4-1 1-1h22.1c.6 0 1 .4 1 1s-.5 1-1 1z"/></g></svg>