<svg version="1.1" id="Layer_1" xmlns="http://www.w3.org/2000/svg" x="0" y="0" viewBox="0 0 1000 782" style="enable-background:new 0 0 1000 782" xml:space="preserve"><style>.st0{fill:#e1d5f8}.st1{fill:#fff}.st5{fill:#ff4d53}.st7{fill:#231f20}.st8{fill:#e6e7e8}.st11{fill:#feac02}.st13{fill:#5eb9f7}</style><circle class="st0" cx="370.9" cy="378.8" r="353.9"/><circle class="st0" cx="630.1" cy="386.6" r="353.9"/><path class="st1" d="M623.6 709.2c-4.5-.1-9.1-.3-13.6-.5-1.5-.1-2.7-1.4-2.6-2.9.1-1.5 1.4-2.7 2.9-2.6 4.4.3 8.9.5 13.3.5 1.5 0 2.8 1.3 2.7 2.8 0 1.5-1.2 2.7-2.7 2.7zm13.4 0c-1.5 0-2.7-1.2-2.8-2.7 0-1.5 1.2-2.8 2.7-2.8 4.4-.1 8.9-.3 13.3-.6 1.6-.1 2.9 1.1 3 2.6.1 1.5-1.1 2.9-2.6 3-4.5.3-9.1.4-13.6.5zm-40.1-1.6h-.3c-4.5-.5-9-1-13.4-1.7-1.5-.2-2.6-1.6-2.4-3.2.2-1.5 1.6-2.6 3.2-2.4 4.4.6 8.8 1.2 13.2 1.6 1.5.2 2.6 1.5 2.5 3.1-.2 1.5-1.4 2.6-2.8 2.6zm66.8 0c-1.4 0-2.6-1.1-2.8-2.5-.2-1.5.9-2.9 2.5-3.1 4.4-.5 8.8-1 13.2-1.7 1.5-.2 2.9.8 3.2 2.3.2 1.5-.8 2.9-2.3 3.2-4.4.6-8.9 1.2-13.4 1.7-.2.1-.3.1-.4.1zm-93.3-3.9h-.5c-4.4-.8-8.8-1.8-13.2-2.8-1.5-.3-2.4-1.8-2.1-3.3.3-1.5 1.8-2.4 3.3-2.1 4.3 1 8.7 1.9 13 2.7 1.5.3 2.5 1.7 2.2 3.3-.3 1.3-1.4 2.2-2.7 2.2zm119.8 0c-1.3 0-2.5-.9-2.7-2.3-.3-1.5.7-3 2.2-3.3 4.3-.8 8.7-1.7 13-2.8 1.5-.3 3 .6 3.3 2.1.3 1.5-.6 3-2.1 3.3-4.4 1-8.8 2-13.2 2.8-.1.2-.3.2-.5.2zm-145.9-6c-.2 0-.5 0-.7-.1-4.3-1.2-8.7-2.5-12.9-3.9-1.5-.5-2.3-2-1.8-3.5.5-1.5 2-2.3 3.5-1.8 4.2 1.4 8.5 2.6 12.7 3.8 1.5.4 2.3 1.9 1.9 3.4-.4 1.2-1.5 2.1-2.7 2.1zm172-.1c-1.2 0-2.3-.8-2.7-2-.4-1.5.5-3 1.9-3.4 4.3-1.2 8.5-2.5 12.7-3.8 1.5-.5 3 .3 3.5 1.8s-.3 3-1.8 3.5c-4.2 1.4-8.6 2.7-12.9 3.9-.2-.1-.4 0-.7 0zm-197.6-8.2c-.3 0-.6-.1-1-.2-4.2-1.6-8.5-3.2-12.6-5-1.4-.6-2.1-2.2-1.5-3.6.6-1.4 2.2-2.1 3.6-1.5 4.1 1.7 8.2 3.4 12.4 4.9 1.4.5 2.2 2.1 1.6 3.6-.3 1.1-1.3 1.8-2.5 1.8zm223.1-.1c-1.1 0-2.2-.7-2.6-1.8-.5-1.4.2-3 1.6-3.6 4.1-1.5 8.3-3.2 12.3-4.9 1.4-.6 3 .1 3.6 1.5.6 1.4-.1 3-1.5 3.6-4.1 1.7-8.3 3.4-12.5 5-.3.1-.6.2-.9.2zM494 679c-.4 0-.8-.1-1.2-.3-4.1-1.9-8.1-3.9-12.1-6-1.4-.7-1.9-2.4-1.2-3.8s2.4-1.9 3.8-1.2c3.9 2.1 7.9 4 11.9 5.9 1.4.7 2 2.3 1.3 3.7-.5 1.1-1.5 1.7-2.5 1.7zm272.4-.1c-1 0-2-.6-2.5-1.6-.7-1.4-.1-3 1.3-3.7 4-1.9 8-3.9 11.9-5.9 1.4-.7 3-.2 3.8 1.2.7 1.4.2 3-1.2 3.8-4 2.1-8 4.1-12.1 6-.4.1-.8.2-1.2.2zm-296.2-12.4c-.5 0-1-.1-1.4-.4-3.9-2.3-7.8-4.6-11.6-7-1.3-.8-1.7-2.5-.9-3.8.8-1.3 2.5-1.7 3.8-.9 3.7 2.4 7.5 4.7 11.4 6.9 1.3.8 1.8 2.5 1 3.8-.4.9-1.3 1.4-2.3 1.4zm319.9 0c-1 0-1.9-.5-2.4-1.4-.8-1.3-.3-3 1-3.8 3.8-2.2 7.6-4.5 11.3-6.9 1.3-.8 3-.4 3.8.9.8 1.3.4 3-.9 3.8-3.8 2.4-7.7 4.8-11.5 7-.3.3-.8.4-1.3.4zm22.6-14.3c-.9 0-1.7-.4-2.3-1.2-.9-1.3-.6-3 .7-3.9 3.6-2.5 7.2-5.1 10.7-7.8 1.2-.9 3-.7 3.9.5.9 1.2.7 3-.5 3.9-3.6 2.7-7.2 5.4-10.9 7.9-.5.4-1.1.6-1.6.6zm-365.1 0c-.5 0-1.1-.2-1.6-.5-3.7-2.6-7.4-5.2-10.9-8-1.2-.9-1.5-2.7-.5-3.9.9-1.2 2.7-1.5 3.9-.5 3.5 2.7 7.1 5.3 10.7 7.8 1.3.9 1.6 2.6.7 3.9-.6.7-1.4 1.2-2.3 1.2zM834 636c-.8 0-1.6-.3-2.1-1-1-1.2-.8-2.9.4-3.9 3.4-2.8 6.8-5.7 10-8.7 1.1-1 2.9-.9 3.9.2s.9 2.9-.2 3.9c-3.3 3-6.8 6-10.2 8.8-.6.5-1.2.7-1.8.7zm-407.7-.1c-.6 0-1.3-.2-1.8-.6-3.5-2.9-6.9-5.8-10.2-8.8-1.1-1-1.2-2.8-.2-3.9s2.8-1.2 3.9-.2c3.3 3 6.7 5.9 10.1 8.7 1.2 1 1.3 2.7.4 3.9-.7.6-1.4.9-2.2.9zM853.9 618c-.7 0-1.4-.3-2-.8-1.1-1.1-1.1-2.9 0-3.9 3.1-3.1 6.3-6.3 9.3-9.5 1.1-1.1 2.8-1.2 3.9-.1 1.1 1.1 1.2 2.8.1 3.9-3.1 3.3-6.3 6.5-9.5 9.7-.4.5-1.1.7-1.8.7zm-447.6 0c-.7 0-1.4-.3-1.9-.8-3.2-3.1-6.4-6.4-9.5-9.7-1.1-1.1-1-2.9.1-3.9 1.1-1.1 2.9-1 3.9.1 3 3.2 6.1 6.4 9.3 9.5 1.1 1.1 1.1 2.8 0 3.9-.4.6-1.1.9-1.9.9zm465.9-19.5c-.6 0-1.3-.2-1.8-.7-1.2-1-1.3-2.8-.3-3.9 2.9-3.3 5.7-6.8 8.5-10.2 1-1.2 2.7-1.4 3.9-.4 1.2 1 1.4 2.7.4 3.9-2.8 3.5-5.7 7-8.6 10.4-.5.6-1.3.9-2.1.9zm-484.2 0c-.8 0-1.6-.3-2.1-1-2.9-3.4-5.8-6.9-8.6-10.4-1-1.2-.8-3 .4-3.9 1.2-1 3-.8 3.9.4 2.7 3.4 5.6 6.9 8.5 10.2 1 1.2.9 2.9-.3 3.9-.5.6-1.2.8-1.8.8zm500.9-21c-.6 0-1.1-.2-1.6-.5-1.2-.9-1.5-2.6-.6-3.9 2.6-3.6 5.2-7.2 7.6-10.9.9-1.3 2.6-1.6 3.9-.8 1.3.9 1.6 2.6.8 3.9-2.5 3.7-5.1 7.5-7.7 11.1-.7.7-1.5 1.1-2.4 1.1zm-517.5 0c-.9 0-1.7-.4-2.3-1.1-2.6-3.6-5.2-7.3-7.7-11.1-.9-1.3-.5-3 .8-3.9 1.3-.9 3-.5 3.9.8 2.4 3.7 5 7.3 7.6 10.9.9 1.2.6 3-.6 3.9-.6.3-1.2.5-1.7.5zm-14.9-22.2c-.9 0-1.9-.5-2.4-1.3-2.3-3.8-4.6-7.8-6.8-11.7-.7-1.3-.3-3 1.1-3.8 1.3-.7 3-.3 3.8 1.1 2.1 3.9 4.4 7.7 6.6 11.5.8 1.3.4 3-.9 3.8-.4.2-.9.4-1.4.4zm547.3-.1c-.5 0-1-.1-1.4-.4-1.3-.8-1.7-2.5-.9-3.8 2.3-3.8 4.5-7.6 6.7-11.5.7-1.3 2.4-1.8 3.8-1.1 1.3.7 1.8 2.4 1.1 3.8-2.2 3.9-4.5 7.9-6.8 11.7-.7.8-1.6 1.3-2.5 1.3zm-560.2-23.4c-1 0-2-.6-2.5-1.5-2-4-3.9-8.1-5.8-12.2-.6-1.4 0-3 1.4-3.7 1.4-.6 3 0 3.7 1.4 1.8 4 3.7 8 5.7 12 .7 1.4.1 3-1.2 3.7-.5.2-.9.3-1.3.3zm573.1-.1c-.4 0-.8-.1-1.2-.3-1.4-.7-1.9-2.4-1.3-3.7 2-4 3.9-8 5.7-12 .6-1.4 2.3-2 3.7-1.4 1.4.6 2 2.3 1.4 3.7-1.8 4.1-3.8 8.2-5.8 12.2-.5 1-1.4 1.5-2.5 1.5zm-584-24.3c-1.1 0-2.2-.7-2.6-1.8-1.7-4.2-3.2-8.4-4.7-12.7-.5-1.5.3-3 1.7-3.5 1.5-.5 3 .3 3.5 1.7 1.5 4.2 3 8.3 4.6 12.4.6 1.4-.1 3-1.6 3.6-.2.3-.6.3-.9.3zm595-.2c-.3 0-.7-.1-1-.2-1.4-.6-2.1-2.2-1.6-3.6 1.6-4.1 3.2-8.3 4.6-12.5.5-1.5 2.1-2.2 3.5-1.7 1.5.5 2.2 2.1 1.7 3.5-1.5 4.3-3.1 8.5-4.7 12.7-.4 1.1-1.4 1.8-2.5 1.8zm-603.8-25.1c-1.2 0-2.3-.8-2.7-2-1.3-4.3-2.5-8.7-3.6-13-.4-1.5.5-3 2-3.4 1.5-.4 3 .5 3.4 2 1.1 4.3 2.3 8.6 3.6 12.8.4 1.5-.4 3-1.9 3.5-.3.1-.6.1-.8.1zm612.6-.3c-.3 0-.5 0-.8-.1-1.5-.4-2.3-2-1.9-3.5 1.3-4.2 2.5-8.5 3.6-12.8.4-1.5 1.9-2.4 3.4-2 1.5.4 2.4 1.9 2 3.4-1.1 4.4-2.3 8.7-3.6 13-.4 1.3-1.5 2-2.7 2zm-619.3-25.6c-1.3 0-2.4-.9-2.7-2.2-.9-4.4-1.8-8.9-2.5-13.3-.3-1.5.8-3 2.3-3.2 1.5-.2 3 .8 3.2 2.3.7 4.3 1.6 8.7 2.5 13 .3 1.5-.6 3-2.1 3.3-.3.1-.5.1-.7.1zm625.9-.3c-.2 0-.4 0-.6-.1-1.5-.3-2.5-1.8-2.1-3.3.9-4.3 1.7-8.7 2.5-13 .3-1.5 1.7-2.5 3.2-2.3 1.5.3 2.5 1.7 2.3 3.2-.7 4.4-1.6 8.9-2.5 13.3-.3 1.3-1.5 2.2-2.8 2.2zm-630.4-26.1c-1.4 0-2.6-1-2.8-2.4-.6-4.4-1-9-1.4-13.4-.1-1.5 1-2.9 2.5-3 1.5-.1 2.9 1 3 2.5.4 4.4.8 8.8 1.4 13.2.2 1.5-.9 2.9-2.4 3.1h-.3zm634.9-.3h-.3c-1.5-.2-2.6-1.6-2.4-3.1.5-4.4 1-8.8 1.4-13.2.1-1.5 1.5-2.7 3-2.5 1.5.1 2.7 1.5 2.5 3-.4 4.5-.8 9-1.4 13.4-.2 1.3-1.4 2.4-2.8 2.4zm-637.1-26.4c-1.5 0-2.7-1.2-2.8-2.7-.2-4.5-.3-9-.3-13.5 0-1.5 1.2-2.8 2.8-2.8 1.5 0 2.8 1.2 2.8 2.8 0 4.4.1 8.9.3 13.3.1 1.5-1.1 2.8-2.7 2.9h-.1zm639.3-.3h-.1c-1.5-.1-2.7-1.4-2.7-2.9.2-4.4.3-8.9.3-13.3v-.6c0-1.5 1.2-2.8 2.8-2.8s2.8 1.2 2.8 2.8v.6c0 4.5-.1 9-.3 13.5-.1 1.5-1.3 2.7-2.8 2.7zm-639.3-26.5h-.1c-1.5-.1-2.7-1.4-2.7-2.9.2-4.5.5-9 .8-13.5.1-1.5 1.5-2.7 3-2.5 1.5.1 2.7 1.5 2.5 3-.4 4.4-.6 8.8-.8 13.3 0 1.4-1.2 2.6-2.7 2.6zm639.3-.9c-1.5 0-2.7-1.2-2.8-2.7-.2-4.4-.5-8.9-.8-13.3-.1-1.5 1-2.9 2.5-3 1.5-.1 2.9 1 3 2.5.4 4.5.7 9 .9 13.5.1 1.5-1.1 2.8-2.7 2.9l-.1.1zm-637.1-25.8h-.3c-1.5-.2-2.6-1.6-2.4-3.1.6-4.5 1.2-9 1.9-13.4.3-1.5 1.7-2.5 3.2-2.3 1.5.3 2.5 1.7 2.3 3.2-.7 4.3-1.4 8.8-1.9 13.1-.2 1.5-1.4 2.5-2.8 2.5zm634.8-.9c-1.4 0-2.6-1-2.8-2.4-.6-4.4-1.2-8.8-1.9-13.1-.3-1.5.8-3 2.3-3.2 1.5-.3 3 .8 3.2 2.3.8 4.4 1.4 8.9 2 13.4.2 1.5-.9 2.9-2.4 3.1-.2-.1-.3-.1-.4-.1zm-630.4-25.5c-.2 0-.4 0-.6-.1-1.5-.3-2.5-1.8-2.1-3.3.9-4.4 2-8.8 3.1-13.2.4-1.5 1.9-2.4 3.4-2 1.5.4 2.4 1.9 2 3.4-1.1 4.3-2.1 8.6-3 12.9-.4 1.4-1.5 2.3-2.8 2.3zm625.9-.9c-1.3 0-2.4-.9-2.7-2.2-.9-4.3-1.9-8.7-3-12.9-.4-1.5.5-3 2-3.4 1.5-.4 3 .5 3.4 2 1.1 4.3 2.2 8.8 3.1 13.2.3 1.5-.6 3-2.1 3.3h-.7zm-619.3-25.1c-.3 0-.5 0-.8-.1-1.5-.4-2.3-2-1.9-3.5 1.3-4.3 2.7-8.7 4.2-12.9.5-1.5 2.1-2.2 3.5-1.7 1.5.5 2.2 2.1 1.7 3.5-1.4 4.2-2.8 8.4-4.1 12.7-.3 1.3-1.4 2-2.6 2zm612.6-.9c-1.2 0-2.3-.8-2.7-2-1.3-4.2-2.7-8.5-4.1-12.6-.5-1.5.3-3 1.7-3.5s3 .3 3.5 1.7c1.5 4.2 2.9 8.6 4.2 12.8.4 1.5-.4 3-1.9 3.5-.1.1-.4.1-.7.1zm-603.8-24.4c-.3 0-.7-.1-1-.2-1.4-.6-2.1-2.2-1.6-3.6 1.7-4.2 3.4-8.4 5.2-12.5.6-1.4 2.3-2 3.7-1.4 1.4.6 2 2.3 1.4 3.7-1.8 4-3.5 8.2-5.2 12.3-.3 1-1.4 1.7-2.5 1.7zm595-.8c-1.1 0-2.2-.7-2.6-1.8-1.6-4.1-3.4-8.2-5.2-12.2-.6-1.4 0-3 1.4-3.7 1.4-.6 3 0 3.7 1.4 1.8 4.1 3.6 8.3 5.2 12.4.6 1.4-.1 3-1.6 3.6-.2.2-.6.3-.9.3zm-584.1-23.8c-.4 0-.8-.1-1.2-.3-1.4-.7-1.9-2.4-1.3-3.7 2-4 4.1-8.1 6.3-12 .7-1.3 2.4-1.8 3.8-1.1 1.3.7 1.8 2.4 1.1 3.8-2.1 3.9-4.2 7.8-6.2 11.8-.5 1-1.5 1.5-2.5 1.5zm573.1-.6c-1 0-2-.6-2.5-1.5-2-3.9-4-7.9-6.2-11.7-.7-1.3-.3-3 1.1-3.8 1.3-.7 3-.3 3.8 1.1 2.2 3.9 4.3 8 6.3 11.9.7 1.4.1 3-1.2 3.7-.4.2-.8.3-1.3.3zm-560.2-22.9c-.5 0-1-.1-1.4-.4-1.3-.8-1.7-2.5-.9-3.8 2.3-3.8 4.8-7.7 7.3-11.4.9-1.3 2.6-1.6 3.9-.8 1.3.9 1.6 2.6.8 3.9-2.4 3.7-4.8 7.5-7.1 11.2-.7.8-1.6 1.3-2.6 1.3zm547.3-.5c-.9 0-1.9-.5-2.4-1.3-2.3-3.8-4.7-7.5-7.1-11.2-.9-1.3-.5-3 .8-3.9 1.3-.9 3-.5 3.9.8 2.5 3.7 4.9 7.6 7.3 11.4.8 1.3.4 3-.9 3.8-.6.2-1.1.4-1.6.4zm-532.4-21.8c-.6 0-1.1-.2-1.6-.5-1.2-.9-1.5-2.6-.6-3.9 2.6-3.6 5.4-7.2 8.2-10.8 1-1.2 2.7-1.4 3.9-.5 1.2 1 1.4 2.7.5 3.9-2.7 3.5-5.4 7-8 10.6-.7.8-1.6 1.2-2.4 1.2zm517.5-.5c-.9 0-1.7-.4-2.2-1.1-2.6-3.6-5.3-7.1-8-10.6-1-1.2-.8-3 .4-3.9 1.2-1 3-.8 3.9.4 2.8 3.5 5.5 7.1 8.2 10.7.9 1.2.6 3-.6 3.9-.5.4-1.1.6-1.7.6zm-500.9-20.5c-.6 0-1.3-.2-1.8-.7-1.2-1-1.3-2.8-.3-3.9 2.9-3.4 6-6.8 9-10 1.1-1.1 2.8-1.2 3.9-.1 1.1 1.1 1.2 2.8.1 3.9-3 3.2-6 6.5-8.9 9.9-.4.6-1.2.9-2 .9zm484.3-.4c-.8 0-1.6-.3-2.1-1-2.9-3.3-5.9-6.6-8.9-9.9-1.1-1.1-1-2.9.1-3.9 1.1-1.1 2.9-1 3.9.1 3.1 3.3 6.1 6.6 9.1 10 1 1.2.9 2.9-.3 3.9-.5.5-1.2.8-1.8.8zm-465.9-19.2c-.7 0-1.4-.3-2-.8-1.1-1.1-1.1-2.9 0-3.9 3.2-3.1 6.5-6.3 9.8-9.3 1.1-1 2.9-.9 3.9.2s.9 2.9-.2 3.9c-3.3 3-6.5 6-9.7 9.1-.4.6-1.1.8-1.8.8zm447.5-.3c-.7 0-1.4-.3-1.9-.8-3.2-3.1-6.4-6.1-9.7-9.1-1.1-1-1.2-2.8-.2-3.9s2.8-1.2 3.9-.2c3.3 3 6.6 6.1 9.9 9.2 1.1 1.1 1.1 2.8 0 3.9-.5.6-1.3.9-2 .9zM426 143c-.8 0-1.6-.3-2.1-1-1-1.2-.8-2.9.4-3.9 3.5-2.9 7-5.7 10.6-8.4 1.2-.9 3-.7 3.9.5.9 1.2.7 3-.5 3.9-3.5 2.7-7 5.4-10.4 8.3-.6.4-1.2.6-1.9.6zm407.8-.4c-.6 0-1.3-.2-1.8-.6-3.4-2.8-6.9-5.6-10.4-8.2-1.2-.9-1.5-2.7-.5-3.9.9-1.2 2.7-1.5 3.9-.5 3.6 2.7 7.1 5.5 10.6 8.4 1.2 1 1.4 2.7.4 3.9-.6.6-1.4.9-2.2.9zm-386.5-15.8c-.9 0-1.7-.4-2.3-1.2-.9-1.3-.6-3 .7-3.9 3.7-2.6 7.5-5.1 11.2-7.5 1.3-.8 3-.4 3.8.9.8 1.3.4 3-.9 3.8-3.7 2.4-7.4 4.8-11 7.4-.4.3-.9.5-1.5.5zm365.1-.4c-.5 0-1.1-.2-1.6-.5-3.6-2.5-7.3-5-11.1-7.4-1.3-.8-1.7-2.5-.9-3.8.8-1.3 2.5-1.7 3.8-.9 3.8 2.4 7.6 4.9 11.3 7.5 1.3.9 1.6 2.6.7 3.9-.4.8-1.3 1.2-2.2 1.2zm-342.5-14c-1 0-1.9-.5-2.4-1.4-.8-1.3-.3-3 1-3.8 3.9-2.2 7.8-4.4 11.8-6.5 1.4-.7 3-.2 3.8 1.2.7 1.4.2 3-1.2 3.8-3.9 2-7.8 4.2-11.6 6.4-.4.2-.9.3-1.4.3zm319.9-.3c-.5 0-.9-.1-1.4-.4-3.8-2.2-7.8-4.4-11.7-6.4-1.4-.7-1.9-2.4-1.2-3.8s2.4-1.9 3.8-1.2c4 2.1 8 4.3 11.9 6.5 1.3.8 1.8 2.5 1 3.8-.5 1-1.5 1.5-2.4 1.5zM493.6 100c-1 0-2-.6-2.5-1.6-.7-1.4-.1-3 1.3-3.7 4-1.9 8.2-3.8 12.3-5.5 1.4-.6 3 .1 3.6 1.5.6 1.4-.1 3-1.5 3.6-4 1.7-8.1 3.5-12.1 5.4-.3.2-.7.3-1.1.3zm272.4-.3c-.4 0-.8-.1-1.2-.3-4-1.9-8.1-3.7-12.2-5.4-1.4-.6-2.1-2.2-1.5-3.6.6-1.4 2.2-2.1 3.6-1.5 4.1 1.7 8.3 3.6 12.4 5.5 1.4.7 2 2.3 1.3 3.7-.4 1-1.4 1.6-2.4 1.6zM518.2 89.6c-1.1 0-2.2-.7-2.6-1.8-.5-1.4.2-3 1.6-3.6 4.2-1.6 8.5-3.1 12.8-4.5 1.5-.5 3 .3 3.5 1.8s-.3 3-1.8 3.5c-4.2 1.4-8.4 2.8-12.5 4.4-.4.1-.7.2-1 .2zm223-.3c-.3 0-.6-.1-1-.2-4.1-1.5-8.4-3-12.6-4.4-1.5-.5-2.3-2-1.8-3.5.5-1.5 2-2.3 3.5-1.8 4.3 1.4 8.6 2.9 12.8 4.4 1.4.5 2.2 2.1 1.6 3.6-.3 1.2-1.3 1.9-2.5 1.9zm-197.5-8c-1.2 0-2.3-.8-2.7-2-.4-1.5.4-3 1.9-3.4 4.3-1.2 8.7-2.3 13.1-3.4 1.5-.3 3 .6 3.3 2.1.4 1.5-.6 3-2.1 3.3-4.3 1-8.6 2.1-12.9 3.3-.1.1-.4.1-.6.1zm172-.3c-.2 0-.5 0-.7-.1-4.2-1.2-8.6-2.3-12.9-3.3-1.5-.3-2.4-1.8-2.1-3.3.3-1.5 1.8-2.4 3.3-2.1 4.4 1 8.8 2.1 13.1 3.3 1.5.4 2.3 1.9 1.9 3.4-.3 1.3-1.4 2.1-2.6 2.1zm-146-5.8c-1.3 0-2.5-.9-2.7-2.3-.3-1.5.7-3 2.2-3.3 4.4-.8 8.9-1.6 13.3-2.3 1.5-.2 2.9.8 3.2 2.3.2 1.5-.8 2.9-2.3 3.2-4.4.6-8.8 1.4-13.1 2.2-.2.1-.4.2-.6.2zm119.9-.2h-.5c-4.3-.8-8.7-1.5-13.1-2.2-1.5-.2-2.6-1.6-2.4-3.2.2-1.5 1.6-2.6 3.2-2.4 4.4.6 8.9 1.4 13.3 2.2 1.5.3 2.5 1.7 2.2 3.2-.2 1.5-1.4 2.4-2.7 2.4zm-93.4-3.8c-1.4 0-2.6-1.1-2.8-2.5-.2-1.5.9-2.9 2.5-3.1 4.5-.5 9-.9 13.5-1.1 1.5-.1 2.9 1.1 3 2.6.1 1.5-1.1 2.9-2.6 3-4.4.3-8.8.7-13.2 1.1h-.4zm66.9-.1h-.3c-4.4-.4-8.8-.8-13.2-1.1-1.5-.1-2.7-1.4-2.6-2.9.1-1.5 1.4-2.7 2.9-2.6 4.5.3 9 .6 13.5 1.1 1.5.2 2.6 1.5 2.5 3.1-.2 1.4-1.4 2.4-2.8 2.4zM623 69.5c-1.5 0-2.7-1.2-2.8-2.7 0-1.5 1.2-2.8 2.7-2.8 2.4-.1 4.8-.1 7.2-.1 2.1 0 4.2 0 6.3.1 1.5 0 2.8 1.3 2.7 2.8 0 1.5-1.3 2.8-2.8 2.7-2.1 0-4.2-.1-6.3-.1-2.3.1-4.6.1-7 .1z"/><g style="opacity:.5"><path d="M356.5 713.7c-4.5-.1-9.1-.3-13.6-.5-1.5-.1-2.7-1.4-2.6-2.9.1-1.5 1.4-2.7 2.9-2.6 4.4.3 8.9.5 13.3.5 1.5 0 2.8 1.3 2.7 2.8.1 1.5-1.2 2.7-2.7 2.7zm13.4 0c-1.5 0-2.7-1.2-2.8-2.7 0-1.5 1.2-2.8 2.7-2.8 4.4-.1 8.9-.3 13.3-.6 1.6-.1 2.9 1.1 3 2.6.1 1.5-1.1 2.9-2.6 3-4.5.2-9 .4-13.6.5.1 0 0 0 0 0zm-40.1-1.6h-.3c-4.5-.5-9-1-13.4-1.7-1.5-.2-2.6-1.6-2.4-3.2.2-1.5 1.6-2.6 3.2-2.4 4.4.6 8.8 1.2 13.2 1.6 1.5.2 2.6 1.5 2.5 3.1-.2 1.5-1.4 2.6-2.8 2.6zm66.9-.1c-1.4 0-2.6-1.1-2.8-2.5-.2-1.5.9-2.9 2.5-3.1 4.4-.5 8.8-1 13.2-1.7 1.5-.2 2.9.8 3.2 2.3s-.8 2.9-2.3 3.2c-4.4.6-8.9 1.2-13.4 1.7-.2.1-.3.1-.4.1zm-93.4-3.8h-.5c-4.4-.8-8.8-1.8-13.2-2.8-1.5-.3-2.4-1.8-2.1-3.3.3-1.5 1.8-2.4 3.3-2.1 4.3 1 8.7 1.9 13 2.7 1.5.3 2.5 1.7 2.2 3.3-.2 1.3-1.4 2.2-2.7 2.2zm119.9-.1c-1.3 0-2.5-.9-2.7-2.3-.3-1.5.7-3 2.2-3.3 4.3-.8 8.7-1.7 13-2.8 1.5-.3 3 .6 3.3 2.1.3 1.5-.6 3-2.1 3.3-4.4 1-8.8 2-13.2 2.8-.2.2-.4.2-.5.2zm-146-6c-.2 0-.5 0-.7-.1-4.3-1.2-8.7-2.5-12.9-3.9-1.5-.5-2.3-2-1.8-3.5.5-1.5 2-2.3 3.5-1.8 4.2 1.4 8.5 2.6 12.7 3.8 1.5.4 2.3 1.9 1.9 3.4-.4 1.3-1.5 2.1-2.7 2.1zm172-.1c-1.2 0-2.3-.8-2.7-2-.4-1.5.5-3 1.9-3.4 4.3-1.2 8.5-2.5 12.7-3.8 1.5-.5 3 .3 3.5 1.8s-.3 3-1.8 3.5c-4.2 1.4-8.6 2.7-12.9 3.9h-.7zm-197.5-8.2c-.3 0-.6-.1-1-.2-4.2-1.6-8.5-3.2-12.6-5-1.4-.6-2.1-2.2-1.5-3.6.6-1.4 2.2-2.1 3.6-1.5 4.1 1.7 8.2 3.4 12.4 4.9 1.4.5 2.2 2.1 1.6 3.6-.3 1.1-1.4 1.8-2.5 1.8zm223-.1c-1.1 0-2.2-.7-2.6-1.8-.5-1.4.2-3 1.6-3.6 4.1-1.5 8.3-3.2 12.3-4.9 1.4-.6 3 .1 3.6 1.5.6 1.4-.1 3-1.5 3.6-4.1 1.7-8.3 3.4-12.5 5-.2.2-.6.2-.9.2zm-247.8-10.3c-.4 0-.8-.1-1.2-.3-4.1-1.9-8.1-3.9-12.1-6-1.4-.7-1.9-2.4-1.2-3.8s2.4-1.9 3.8-1.2c3.9 2.1 7.9 4 11.9 5.9 1.4.7 2 2.3 1.3 3.7-.4 1.1-1.4 1.7-2.5 1.7zm272.4 0c-1 0-2-.6-2.5-1.6-.7-1.4-.1-3 1.3-3.7 4-1.9 8-3.9 11.9-5.9 1.4-.7 3-.2 3.8 1.2.7 1.4.2 3-1.2 3.8-4 2.1-8 4.1-12.1 6-.3.1-.8.2-1.2.2zM203.2 671c-.5 0-1-.1-1.4-.4-3.9-2.3-7.8-4.6-11.6-7-1.3-.8-1.7-2.5-.9-3.8.8-1.3 2.5-1.7 3.8-.9 3.7 2.4 7.5 4.7 11.4 6.9 1.3.8 1.8 2.5 1 3.8-.4.9-1.4 1.4-2.3 1.4zm319.8 0c-1 0-1.9-.5-2.4-1.4-.8-1.3-.3-3 1-3.8 3.8-2.2 7.6-4.5 11.3-6.9 1.3-.8 3-.4 3.8.9.8 1.3.4 3-.9 3.8-3.8 2.4-7.7 4.8-11.5 7-.3.2-.8.4-1.3.4zm22.6-14.4c-.9 0-1.7-.4-2.3-1.2-.9-1.3-.6-3 .7-3.9 3.6-2.5 7.2-5.1 10.7-7.8 1.2-.9 3-.7 3.9.5.9 1.2.7 3-.5 3.9-3.6 2.7-7.2 5.4-10.9 7.9-.5.4-1 .6-1.6.6zm-365.1 0c-.5 0-1.1-.2-1.6-.5-3.7-2.6-7.4-5.2-10.9-8-1.2-.9-1.5-2.7-.5-3.9.9-1.2 2.7-1.5 3.9-.5 3.5 2.7 7.1 5.3 10.7 7.8 1.3.9 1.6 2.6.7 3.9-.5.8-1.4 1.2-2.3 1.2zm386.4-16.2c-.8 0-1.6-.3-2.1-1-1-1.2-.8-2.9.4-3.9 3.4-2.8 6.8-5.7 10-8.7 1.1-1 2.9-.9 3.9.2s.9 2.9-.2 3.9c-3.3 3-6.8 6-10.2 8.8-.5.5-1.1.7-1.8.7zm-407.7 0c-.6 0-1.3-.2-1.8-.6-3.5-2.9-6.9-5.8-10.2-8.8-1.1-1-1.2-2.8-.2-3.9s2.8-1.2 3.9-.2c3.3 3 6.7 5.9 10.1 8.7 1.2 1 1.3 2.7.4 3.9-.6.5-1.4.9-2.2.9zm427.6-17.9c-.7 0-1.4-.3-2-.8-1.1-1.1-1.1-2.9 0-3.9 3.1-3.1 6.3-6.3 9.3-9.5 1.1-1.1 2.8-1.2 3.9-.1 1.1 1.1 1.2 2.8.1 3.9-3.1 3.3-6.3 6.5-9.5 9.7-.4.4-1.1.7-1.8.7zm-447.5 0c-.7 0-1.4-.3-1.9-.8-3.2-3.1-6.4-6.4-9.5-9.7-1.1-1.1-1-2.9.1-3.9 1.1-1.1 2.9-1 3.9.1 3 3.2 6.1 6.4 9.3 9.5 1.1 1.1 1.1 2.8 0 3.9-.5.6-1.2.9-1.9.9zM605.2 603c-.6 0-1.3-.2-1.8-.7-1.2-1-1.3-2.8-.3-3.9 2.9-3.3 5.7-6.8 8.5-10.2 1-1.2 2.7-1.4 3.9-.4 1.2 1 1.4 2.7.4 3.9-2.8 3.5-5.7 7-8.6 10.4-.6.6-1.3.9-2.1.9zm-484.3-.1c-.8 0-1.6-.3-2.1-1-2.9-3.4-5.8-6.9-8.6-10.4-1-1.2-.8-3 .4-3.9 1.2-1 3-.8 3.9.4 2.7 3.4 5.6 6.9 8.5 10.2 1 1.2.9 2.9-.3 3.9-.5.6-1.1.8-1.8.8zM621.8 582c-.6 0-1.1-.2-1.6-.5-1.2-.9-1.5-2.6-.6-3.9 2.6-3.6 5.2-7.2 7.6-10.9.9-1.3 2.6-1.6 3.9-.8 1.3.9 1.6 2.6.8 3.9-2.5 3.7-5.1 7.5-7.7 11.1-.6.7-1.5 1.1-2.4 1.1zm-517.5 0c-.9 0-1.7-.4-2.3-1.1-2.6-3.6-5.2-7.3-7.7-11.1-.9-1.3-.5-3 .8-3.9 1.3-.9 3-.5 3.9.8 2.4 3.7 5 7.3 7.6 10.9.9 1.2.6 3-.6 3.9-.6.3-1.1.5-1.7.5zm-14.8-22.3c-.9 0-1.9-.5-2.4-1.3-2.3-3.8-4.6-7.8-6.8-11.7-.7-1.3-.3-3 1.1-3.8 1.3-.7 3-.3 3.8 1.1 2.1 3.9 4.4 7.7 6.6 11.5.8 1.3.4 3-.9 3.8-.5.3-1 .4-1.4.4zm547.2 0c-.5 0-1-.1-1.4-.4-1.3-.8-1.7-2.5-.9-3.8 2.3-3.8 4.5-7.6 6.7-11.5.7-1.3 2.4-1.8 3.8-1.1 1.3.7 1.8 2.4 1.1 3.8-2.2 3.9-4.5 7.9-6.8 11.7-.6.8-1.5 1.3-2.5 1.3zM76.5 536.3c-1 0-2-.6-2.5-1.5-2-4-3.9-8.1-5.8-12.2-.6-1.4 0-3 1.4-3.7 1.4-.6 3 0 3.7 1.4 1.8 4 3.7 8 5.7 12 .7 1.4.1 3-1.2 3.7-.4.2-.8.3-1.3.3zm573.2-.1c-.4 0-.8-.1-1.2-.3-1.4-.7-1.9-2.4-1.3-3.7 2-4 3.9-8 5.7-12 .6-1.4 2.3-2 3.7-1.4 1.4.6 2 2.3 1.4 3.7-1.8 4.1-3.8 8.2-5.8 12.2-.5.9-1.5 1.5-2.5 1.5zM65.6 511.9c-1.1 0-2.2-.7-2.6-1.8-1.7-4.2-3.2-8.4-4.7-12.7-.5-1.5.3-3 1.7-3.5 1.5-.5 3 .3 3.5 1.7 1.5 4.2 3 8.3 4.6 12.4.6 1.4-.1 3-1.6 3.6-.2.2-.5.3-.9.3zm595-.2c-.3 0-.7-.1-1-.2-1.4-.6-2.1-2.2-1.6-3.6 1.6-4.1 3.2-8.3 4.6-12.5.5-1.5 2.1-2.2 3.5-1.7 1.5.5 2.2 2.1 1.7 3.5-1.5 4.3-3.1 8.5-4.7 12.7-.3 1.1-1.4 1.8-2.5 1.8zM56.8 486.6c-1.2 0-2.3-.8-2.7-2-1.3-4.3-2.5-8.7-3.6-13-.4-1.5.5-3 2-3.4 1.5-.4 3 .5 3.4 2 1.1 4.3 2.3 8.6 3.6 12.8.4 1.5-.4 3-1.9 3.5-.3.1-.5.1-.8.1zm612.6-.3c-.3 0-.5 0-.8-.1-1.5-.4-2.3-2-1.9-3.5 1.3-4.2 2.5-8.5 3.6-12.8.4-1.5 1.9-2.4 3.4-2 1.5.4 2.4 1.9 2 3.4-1.1 4.4-2.3 8.7-3.6 13-.4 1.2-1.5 2-2.7 2zM50.1 460.7c-1.3 0-2.4-.9-2.7-2.2-.9-4.4-1.8-8.9-2.5-13.3-.3-1.5.8-3 2.3-3.2 1.5-.2 3 .8 3.2 2.3.7 4.3 1.6 8.7 2.5 13 .3 1.5-.6 3-2.1 3.3-.3 0-.5.1-.7.1zm626-.4c-.2 0-.4 0-.6-.1-1.5-.3-2.5-1.8-2.1-3.3.9-4.3 1.7-8.7 2.5-13 .3-1.5 1.7-2.5 3.2-2.3 1.5.3 2.5 1.7 2.3 3.2-.7 4.4-1.6 8.9-2.5 13.3-.4 1.3-1.5 2.2-2.8 2.2zM45.7 434.2c-1.4 0-2.6-1-2.8-2.4-.6-4.4-1-9-1.4-13.4-.1-1.5 1-2.9 2.5-3 1.5-.1 2.9 1 3 2.5.4 4.4.8 8.8 1.4 13.2.2 1.5-.9 2.9-2.4 3.1h-.3zm634.8-.3h-.3c-1.5-.2-2.6-1.6-2.4-3.1.5-4.4 1-8.8 1.4-13.2.1-1.5 1.5-2.7 3-2.5 1.5.1 2.7 1.5 2.5 3-.4 4.5-.8 9-1.4 13.4-.2 1.4-1.4 2.4-2.8 2.4zM43.4 407.5c-1.5 0-2.7-1.2-2.8-2.7-.2-4.5-.3-9-.3-13.5 0-1.5 1.2-2.8 2.8-2.8 1.5 0 2.8 1.2 2.8 2.8 0 4.4.1 8.9.3 13.3.1 1.5-1.1 2.8-2.7 2.9h-.1zm639.3-.3h-.1c-1.5-.1-2.7-1.4-2.7-2.9.2-4.4.3-8.9.3-13.3v-.6c0-1.5 1.2-2.8 2.8-2.8 1.5 0 2.8 1.2 2.8 2.8v.6c0 4.5-.1 9-.3 13.5-.1 1.6-1.3 2.7-2.8 2.7zM43.4 380.8h-.1c-1.5-.1-2.7-1.4-2.7-2.9.2-4.5.5-9 .8-13.5.1-1.5 1.5-2.7 3-2.5 1.5.1 2.7 1.5 2.5 3-.4 4.4-.6 8.8-.8 13.3 0 1.4-1.2 2.6-2.7 2.6zm639.3-1c-1.5 0-2.7-1.2-2.8-2.7-.2-4.4-.5-8.9-.8-13.3-.1-1.5 1-2.9 2.5-3 1.5-.1 2.9 1 3 2.5.4 4.5.7 9 .9 13.5.1 1.5-1.1 2.8-2.7 2.9 0 .1-.1.1-.1.1zM45.6 354.1h-.3c-1.5-.2-2.6-1.6-2.4-3.1.6-4.5 1.2-9 1.9-13.4.3-1.5 1.7-2.5 3.2-2.3 1.5.3 2.5 1.7 2.3 3.2-.7 4.3-1.4 8.8-1.9 13.1-.2 1.4-1.4 2.5-2.8 2.5zm634.8-1c-1.4 0-2.6-1-2.8-2.4-.6-4.4-1.2-8.8-1.9-13.1-.3-1.5.8-3 2.3-3.2 1.5-.3 3 .8 3.2 2.3.8 4.4 1.4 8.9 2 13.4.2 1.5-.9 2.9-2.4 3.1-.1-.1-.3-.1-.4-.1zM50 327.6c-.2 0-.4 0-.6-.1-1.5-.3-2.5-1.8-2.1-3.3.9-4.4 2-8.8 3.1-13.2.4-1.5 1.9-2.4 3.4-2 1.5.4 2.4 1.9 2 3.4-1.1 4.3-2.1 8.6-3 12.9-.3 1.4-1.5 2.3-2.8 2.3zm625.9-.9c-1.3 0-2.4-.9-2.7-2.2-.9-4.3-1.9-8.7-3-12.9-.4-1.5.5-3 2-3.4 1.5-.4 3 .5 3.4 2 1.1 4.3 2.2 8.8 3.1 13.2.3 1.5-.6 3-2.1 3.3h-.7zm-619.3-25c-.3 0-.5 0-.8-.1-1.5-.4-2.3-2-1.9-3.5 1.3-4.3 2.7-8.7 4.2-12.9.5-1.5 2.1-2.2 3.5-1.7 1.5.5 2.2 2.1 1.7 3.5-1.4 4.2-2.8 8.4-4.1 12.7-.3 1.2-1.4 2-2.6 2zm612.6-.9c-1.2 0-2.3-.8-2.7-2-1.3-4.2-2.7-8.5-4.1-12.6-.5-1.5.3-3 1.7-3.5s3 .3 3.5 1.7c1.5 4.2 2.9 8.6 4.2 12.8.4 1.5-.4 3-1.9 3.5-.1 0-.4.1-.7.1zM65.4 276.3c-.3 0-.7-.1-1-.2-1.4-.6-2.1-2.2-1.6-3.6 1.7-4.2 3.4-8.4 5.2-12.5.6-1.4 2.3-2 3.7-1.4 1.4.6 2 2.3 1.4 3.7-1.8 4-3.5 8.2-5.2 12.3-.3 1-1.4 1.7-2.5 1.7zm595-.8c-1.1 0-2.2-.7-2.6-1.8-1.6-4.1-3.4-8.2-5.2-12.2-.6-1.4 0-3 1.4-3.7 1.4-.6 3 0 3.7 1.4 1.8 4.1 3.6 8.3 5.2 12.4.6 1.4-.1 3-1.6 3.6-.2.2-.6.3-.9.3zM76.3 251.8c-.4 0-.8-.1-1.2-.3-1.4-.7-1.9-2.4-1.3-3.7 2-4 4.1-8.1 6.3-12 .7-1.3 2.4-1.8 3.8-1.1 1.3.7 1.8 2.4 1.1 3.8-2.1 3.9-4.2 7.8-6.2 11.8-.5.9-1.4 1.5-2.5 1.5zm573.2-.7c-1 0-2-.6-2.5-1.5-2-3.9-4-7.9-6.2-11.7-.7-1.3-.3-3 1.1-3.8 1.3-.7 3-.3 3.8 1.1 2.2 3.9 4.3 8 6.3 11.9.7 1.4.1 3-1.2 3.7-.5.2-.9.3-1.3.3zM89.3 228.3c-.5 0-1-.1-1.4-.4-1.3-.8-1.7-2.5-.9-3.8 2.3-3.8 4.8-7.7 7.3-11.4.9-1.3 2.6-1.6 3.9-.8 1.3.9 1.6 2.6.8 3.9-2.4 3.7-4.8 7.5-7.1 11.2-.8.8-1.7 1.3-2.6 1.3zm547.2-.6c-.9 0-1.9-.5-2.4-1.3-2.3-3.8-4.7-7.5-7.1-11.2-.9-1.3-.5-3 .8-3.9 1.3-.9 3-.5 3.9.8 2.5 3.7 4.9 7.6 7.3 11.4.8 1.3.4 3-.9 3.8-.6.3-1.1.4-1.6.4zm-532.4-21.8c-.6 0-1.1-.2-1.6-.5-1.2-.9-1.5-2.6-.6-3.9 2.6-3.6 5.4-7.2 8.2-10.8 1-1.2 2.7-1.4 3.9-.5 1.2 1 1.4 2.7.5 3.9-2.7 3.5-5.4 7-8 10.6-.7.8-1.5 1.2-2.4 1.2zm517.6-.4c-.9 0-1.7-.4-2.2-1.1-2.6-3.6-5.3-7.1-8-10.6-1-1.2-.8-3 .4-3.9 1.2-1 3-.8 3.9.4 2.8 3.5 5.5 7.1 8.2 10.7.9 1.2.6 3-.6 3.9-.6.4-1.2.6-1.7.6zm-500.9-20.6c-.6 0-1.3-.2-1.8-.7-1.2-1-1.3-2.8-.3-3.9 2.9-3.4 6-6.8 9-10 1.1-1.1 2.8-1.2 3.9-.1 1.1 1.1 1.2 2.8.1 3.9-3 3.2-6 6.5-8.9 9.9-.5.6-1.3.9-2 .9zm484.2-.4c-.8 0-1.6-.3-2.1-1-2.9-3.3-5.9-6.6-8.9-9.9-1.1-1.1-1-2.9.1-3.9 1.1-1.1 2.9-1 3.9.1 3.1 3.3 6.1 6.6 9.1 10 1 1.2.9 2.9-.3 3.9-.5.6-1.1.8-1.8.8zm-465.9-19.1c-.7 0-1.4-.3-2-.8-1.1-1.1-1.1-2.9 0-3.9 3.2-3.1 6.5-6.3 9.8-9.3 1.1-1 2.9-.9 3.9.2s.9 2.9-.2 3.9c-3.3 3-6.5 6-9.7 9.1-.4.5-1.1.8-1.8.8zm447.5-.4c-.7 0-1.4-.3-1.9-.8-3.2-3.1-6.4-6.1-9.7-9.1-1.1-1-1.2-2.8-.2-3.9s2.8-1.2 3.9-.2c3.3 3 6.6 6.1 9.9 9.2 1.1 1.1 1.1 2.8 0 3.9-.5.6-1.2.9-2 .9zM159 147.5c-.8 0-1.6-.3-2.1-1-1-1.2-.8-2.9.4-3.9 3.5-2.9 7-5.7 10.6-8.4 1.2-.9 3-.7 3.9.5.9 1.2.7 3-.5 3.9-3.5 2.7-7 5.4-10.4 8.3-.7.4-1.3.6-1.9.6zm407.7-.4c-.6 0-1.3-.2-1.8-.6-3.4-2.8-6.9-5.6-10.4-8.2-1.2-.9-1.5-2.7-.5-3.9.9-1.2 2.7-1.5 3.9-.5 3.6 2.7 7.1 5.5 10.6 8.4 1.2 1 1.4 2.7.4 3.9-.6.5-1.4.9-2.2.9zm-386.4-15.9c-.9 0-1.7-.4-2.3-1.2-.9-1.3-.6-3 .7-3.9 3.7-2.6 7.5-5.1 11.2-7.5 1.3-.8 3-.4 3.8.9.8 1.3.4 3-.9 3.8-3.7 2.4-7.4 4.8-11 7.4-.4.4-1 .5-1.5.5zm365.1-.3c-.5 0-1.1-.2-1.6-.5-3.6-2.5-7.3-5-11.1-7.4-1.3-.8-1.7-2.5-.9-3.8s2.5-1.7 3.8-.9c3.8 2.4 7.6 4.9 11.3 7.5 1.3.9 1.6 2.6.7 3.9-.5.8-1.4 1.2-2.2 1.2zm-342.6-14c-1 0-1.9-.5-2.4-1.4-.8-1.3-.3-3 1-3.8 3.9-2.2 7.8-4.4 11.8-6.5 1.4-.7 3-.2 3.8 1.2.7 1.4.2 3-1.2 3.8-3.9 2-7.8 4.2-11.6 6.4-.4.2-.9.3-1.4.3zm319.9-.4c-.5 0-.9-.1-1.4-.4-3.8-2.2-7.8-4.4-11.7-6.4-1.4-.7-1.9-2.4-1.2-3.8s2.4-1.9 3.8-1.2c4 2.1 8 4.3 11.9 6.5 1.3.8 1.8 2.5 1 3.8-.5 1-1.4 1.5-2.4 1.5zm-296.2-12.1c-1 0-2-.6-2.5-1.6-.7-1.4-.1-3 1.3-3.7 4-1.9 8.2-3.8 12.3-5.5 1.4-.6 3 .1 3.6 1.5.6 1.4-.1 3-1.5 3.6-4 1.7-8.1 3.5-12.1 5.4-.3.3-.7.3-1.1.3zm272.4-.3c-.4 0-.8-.1-1.2-.3-4-1.9-8.1-3.7-12.2-5.4-1.4-.6-2.1-2.2-1.5-3.6.6-1.4 2.2-2.1 3.6-1.5 4.1 1.7 8.3 3.6 12.4 5.5 1.4.7 2 2.3 1.3 3.7-.3 1-1.3 1.6-2.4 1.6zM251.1 94c-1.1 0-2.2-.7-2.6-1.8-.5-1.4.2-3 1.6-3.6 4.2-1.6 8.5-3.1 12.8-4.5 1.5-.5 3 .3 3.5 1.8s-.3 3-1.8 3.5c-4.2 1.4-8.4 2.8-12.5 4.4-.3.2-.6.2-1 .2zm223.1-.3c-.3 0-.6-.1-1-.2-4.1-1.5-8.4-3-12.6-4.4-1.5-.5-2.3-2-1.8-3.5.5-1.5 2-2.3 3.5-1.8 4.3 1.4 8.6 2.9 12.8 4.4 1.4.5 2.2 2.1 1.6 3.6-.3 1.2-1.4 1.9-2.5 1.9zm-197.6-8c-1.2 0-2.3-.8-2.7-2-.4-1.5.4-3 1.9-3.4 4.3-1.2 8.7-2.3 13.1-3.4 1.5-.3 3 .6 3.3 2.1.4 1.5-.6 3-2.1 3.3-4.3 1-8.6 2.1-12.9 3.3-.1.1-.4.1-.6.1zm172-.2c-.2 0-.5 0-.7-.1-4.2-1.2-8.6-2.3-12.9-3.3-1.5-.3-2.4-1.8-2.1-3.3.3-1.5 1.8-2.4 3.3-2.1 4.4 1 8.8 2.1 13.1 3.3 1.5.4 2.3 1.9 1.9 3.4-.2 1.3-1.3 2.1-2.6 2.1zm-145.9-5.9c-1.3 0-2.5-.9-2.7-2.3-.3-1.5.7-3 2.2-3.3 4.4-.8 8.9-1.6 13.3-2.3 1.5-.2 2.9.8 3.2 2.3.2 1.5-.8 2.9-2.3 3.2-4.4.6-8.8 1.4-13.1 2.2-.3.2-.5.2-.6.2zm119.9-.2h-.5c-4.3-.8-8.7-1.5-13.1-2.2-1.5-.2-2.6-1.6-2.4-3.2.2-1.5 1.6-2.6 3.2-2.4 4.4.6 8.9 1.4 13.3 2.2 1.5.3 2.5 1.7 2.2 3.2-.3 1.5-1.4 2.4-2.7 2.4zm-93.4-3.7c-1.4 0-2.6-1.1-2.8-2.5-.2-1.5.9-2.9 2.5-3.1 4.5-.5 9-.9 13.5-1.1 1.5-.1 2.9 1.1 3 2.6.1 1.5-1.1 2.9-2.6 3-4.4.3-8.8.7-13.2 1.1h-.4zm66.8-.1h-.3c-4.4-.4-8.8-.8-13.2-1.1-1.5-.1-2.7-1.4-2.6-2.9.1-1.5 1.4-2.7 2.9-2.6 4.5.3 9 .6 13.5 1.1 1.5.2 2.6 1.5 2.5 3.1-.1 1.3-1.3 2.4-2.8 2.4zM355.9 74c-1.5 0-2.7-1.2-2.8-2.7 0-1.5 1.2-2.8 2.7-2.8 2.4-.1 4.8-.1 7.2-.1 2.1 0 4.2 0 6.3.1 1.5 0 2.8 1.3 2.7 2.8 0 1.5-1.3 2.8-2.8 2.7-2.1 0-4.2-.1-6.3-.1-2.2 0-4.6 0-7 .1z" style="fill:#6d6e71"/></g><circle cx="508.8" cy="402.2" r="353.9" style="fill:#cfb5f6"/><path class="st5" d="M848.1 604.6c-1.6 0-3.3-.1-4.8-.2-.5 0-1-.5-.9-1.1 0-.5.5-1 1.1-.9 1.6.1 3.1.2 4.7.2.5 0 1 .5 1 1-.1.6-.5 1-1.1 1zm4.8 0c-.5 0-1-.4-1-1 0-.5.4-1 1-1 1.6 0 3.2-.1 4.7-.2.5 0 1 .4 1.1.9 0 .5-.4 1-.9 1.1-1.6.1-3.3.2-4.9.2zm-14.3-.7h-.1c-1.6-.2-3.2-.4-4.8-.7-.5-.1-.9-.6-.8-1.1s.6-.9 1.1-.8c1.5.3 3.1.5 4.7.7.5.1.9.6.9 1.1-.1.5-.5.8-1 .8zm23.8 0c-.5 0-.9-.4-1-.9-.1-.5.3-1 .9-1.1 1.6-.2 3.1-.4 4.7-.7.5-.1 1 .3 1.1.8.1.5-.3 1-.8 1.1-1.6.3-3.2.5-4.8.7 0 .1 0 .1-.1.1zm-33.2-1.6h-.2c-1.6-.4-3.1-.8-4.7-1.2-.5-.1-.8-.7-.7-1.2.1-.5.7-.8 1.2-.7 1.5.4 3.1.8 4.6 1.2.5.1.9.6.7 1.2 0 .4-.4.7-.9.7zm42.6 0c-.5 0-.9-.3-1-.8-.1-.5.2-1.1.7-1.2 1.5-.3 3.1-.7 4.6-1.2.5-.1 1.1.2 1.2.7.1.5-.2 1.1-.7 1.2-1.5.4-3.1.8-4.7 1.2.1.1 0 .1-.1.1zm-51.8-2.6c-.1 0-.2 0-.3-.1-1.5-.5-3.1-1.1-4.5-1.7-.5-.2-.8-.8-.6-1.3.2-.5.8-.8 1.3-.6 1.5.6 3 1.1 4.5 1.6.5.2.8.7.6 1.3-.2.6-.6.8-1 .8zm61 0c-.4 0-.8-.3-.9-.7-.2-.5.1-1.1.6-1.3 1.5-.5 3-1 4.4-1.6.5-.2 1.1.1 1.3.6.2.5-.1 1.1-.6 1.3-1.5.6-3 1.1-4.5 1.7h-.3zm-69.9-3.5c-.1 0-.3 0-.4-.1-1.5-.7-2.9-1.4-4.4-2.1-.5-.2-.7-.8-.4-1.3.2-.5.8-.7 1.3-.4 1.4.7 2.8 1.4 4.3 2.1.5.2.7.8.5 1.3-.2.3-.5.5-.9.5zm78.8 0c-.4 0-.7-.2-.9-.6-.2-.5 0-1.1.5-1.3 1.4-.6 2.9-1.3 4.2-2.1.5-.2 1.1-.1 1.3.4.2.5.1 1.1-.4 1.3-1.4.7-2.9 1.4-4.3 2.1-.1.2-.3.2-.4.2zm-87.3-4.3c-.2 0-.3 0-.5-.1-1.4-.8-2.8-1.7-4.1-2.5-.5-.3-.6-.9-.3-1.4.3-.5.9-.6 1.4-.3 1.3.9 2.7 1.7 4 2.5.5.3.6.9.4 1.3-.2.3-.6.5-.9.5zm95.8-.1c-.3 0-.7-.2-.9-.5-.3-.5-.1-1.1.4-1.3 1.4-.8 2.7-1.6 4-2.5.5-.3 1.1-.2 1.4.3.3.5.2 1.1-.3 1.4-1.3.9-2.7 1.7-4.1 2.5-.2.1-.4.1-.5.1zm-103.8-5.1c-.2 0-.4-.1-.6-.2-1.3-.9-2.6-1.9-3.8-2.9-.4-.3-.5-1-.2-1.4.3-.4 1-.5 1.4-.2 1.2 1 2.5 1.9 3.8 2.9.4.3.5.9.2 1.4-.2.2-.5.4-.8.4zm111.8 0c-.3 0-.6-.1-.8-.4-.3-.4-.2-1.1.2-1.4 1.3-.9 2.5-1.9 3.8-2.9.4-.3 1-.3 1.4.2.3.4.3 1-.2 1.4-1.2 1-2.5 2-3.8 2.9-.2.1-.4.2-.6.2zm-119.3-6c-.2 0-.5-.1-.7-.2-1.2-1.1-2.4-2.2-3.5-3.3-.4-.4-.4-1 0-1.4.4-.4 1-.4 1.4 0 1.1 1.1 2.3 2.2 3.5 3.2.4.4.4 1 .1 1.4-.3.2-.5.3-.8.3zm126.7 0c-.3 0-.5-.1-.7-.3-.4-.4-.3-1 .1-1.4 1.2-1 2.3-2.1 3.5-3.2.4-.4 1-.4 1.4 0 .4.4.4 1 0 1.4-1.1 1.1-2.3 2.2-3.5 3.3-.3.1-.5.2-.8.2zM780.3 574c-.3 0-.5-.1-.7-.3-1.1-1.2-2.2-2.4-3.2-3.6-.4-.4-.3-1 .1-1.4.4-.4 1-.3 1.4.1 1 1.2 2.1 2.4 3.1 3.5.4.4.3 1-.1 1.4-.2.3-.4.3-.6.3zm140.4 0c-.2 0-.5-.1-.7-.3-.4-.4-.4-1-.1-1.4 1.1-1.1 2.1-2.3 3.1-3.5.4-.4 1-.5 1.4-.1.4.4.5 1 .1 1.4-1 1.2-2.1 2.4-3.2 3.6-.1.2-.4.3-.6.3zm-146.6-7.3c-.3 0-.6-.1-.8-.4-1-1.3-1.9-2.6-2.8-3.9-.3-.5-.2-1.1.3-1.4.4-.3 1.1-.2 1.4.3.9 1.3 1.8 2.6 2.8 3.8.3.4.2 1.1-.2 1.4-.3.2-.5.2-.7.2zm152.7 0c-.2 0-.4-.1-.6-.2-.4-.3-.5-.9-.2-1.4 1-1.3 1.9-2.5 2.8-3.8.3-.5.9-.6 1.4-.3.5.3.6.9.3 1.4-.9 1.3-1.9 2.6-2.8 3.9-.3.3-.6.4-.9.4zm-158.1-7.8c-.3 0-.7-.2-.8-.5l-2.4-4.2c-.3-.5-.1-1.1.4-1.3.5-.3 1.1-.1 1.3.4.8 1.4 1.5 2.7 2.4 4.1.3.5.1 1.1-.3 1.4-.2 0-.4.1-.6.1zm163.5-.1c-.2 0-.4 0-.5-.1-.5-.3-.6-.9-.3-1.4.8-1.3 1.6-2.7 2.4-4.1.3-.5.9-.7 1.3-.4.5.3.7.9.4 1.3l-2.4 4.2c-.2.4-.6.5-.9.5zm-168-8.3c-.4 0-.7-.2-.9-.6-.7-1.4-1.4-2.9-2-4.4-.2-.5 0-1.1.5-1.3.5-.2 1.1 0 1.3.5.6 1.4 1.3 2.9 1.9 4.3.2.5 0 1.1-.5 1.3 0 .2-.2.2-.3.2zm172.6-.1c-.1 0-.3 0-.4-.1-.5-.2-.7-.8-.5-1.3.7-1.4 1.3-2.9 2-4.3.2-.5.8-.7 1.3-.5.5.2.7.8.5 1.3-.6 1.5-1.3 3-2 4.4-.2.3-.5.5-.9.5zm-176.3-8.7c-.4 0-.8-.2-.9-.6-.5-1.5-1.1-3-1.5-4.6-.2-.5.1-1.1.7-1.2.5-.2 1.1.1 1.2.7l1.5 4.5c.2.5-.1 1.1-.6 1.3-.2-.1-.3-.1-.4-.1zm180-.1c-.1 0-.2 0-.3-.1-.5-.2-.8-.8-.6-1.3l1.5-4.5c.2-.5.7-.8 1.2-.7.5.2.8.7.7 1.2-.5 1.5-1 3.1-1.5 4.6-.2.6-.6.8-1 .8zm-182.9-9c-.4 0-.8-.3-1-.7-.4-1.6-.8-3.1-1.1-4.7-.1-.5.2-1.1.8-1.2.5-.1 1.1.2 1.2.8.3 1.5.7 3.1 1.1 4.6.1.5-.2 1.1-.7 1.2h-.3zm185.7-.1h-.2c-.5-.1-.8-.7-.7-1.2.4-1.5.7-3.1 1-4.6.1-.5.6-.9 1.2-.8.5.1.9.6.8 1.2-.3 1.6-.7 3.2-1.1 4.7-.1.4-.5.7-1 .7zm-187.6-9.3c-.5 0-.9-.4-1-.8l-.6-4.8c-.1-.5.3-1 .9-1.1.5-.1 1 .3 1.1.9.2 1.6.4 3.1.6 4.7.1.5-.3 1-.8 1.1h-.2zm189.5-.1h-.1c-.5-.1-.9-.6-.8-1.1.2-1.6.4-3.1.6-4.7.1-.5.5-.9 1.1-.9.5.1.9.5.9 1.1l-.6 4.8c-.2.5-.6.8-1.1.8zm-190.4-9.4c-.5 0-1-.4-1-.9-.1-1.6-.1-3.2-.1-4.8 0-.5.4-1 1-1 .5 0 1 .4 1 1 0 1.6 0 3.2.1 4.7 0 .5-.4 1-1 1zm191.3-.1c-.6 0-1-.5-1-1 .1-1.6.1-3.2.1-4.7v-.2c0-.5.4-1 1-1 .5 0 1 .4 1 1v.2c0 1.6 0 3.2-.1 4.8 0 .5-.4.9-1 .9zm-191.3-9.4s-.1 0 0 0c-.6 0-1-.5-1-1 .1-1.6.2-3.2.4-4.8.1-.5.5-.9 1.1-.9.5.1.9.5.9 1.1-.2 1.6-.3 3.1-.3 4.7-.2.5-.6.9-1.1.9zm191.3-.3c-.5 0-1-.4-1-.9-.1-1.6-.2-3.2-.4-4.7-.1-.5.3-1 .9-1.1.5-.1 1 .3 1.1.9.2 1.6.3 3.2.4 4.8.1.5-.4 1-1 1 .1 0 .1 0 0 0zm-190.4-9.2h-.1c-.5-.1-.9-.6-.8-1.1.2-1.6.5-3.2.8-4.8.1-.5.6-.9 1.2-.8.5.1.9.6.8 1.2-.3 1.5-.6 3.1-.8 4.7-.2.4-.6.8-1.1.8zm189.5-.3c-.5 0-.9-.4-1-.8-.2-1.6-.5-3.1-.8-4.7-.1-.5.2-1.1.8-1.2.5-.1 1.1.2 1.2.8.3 1.6.6 3.2.8 4.8.1.5-.3 1-.8 1.1h-.2zm-187.6-9.1h-.2c-.5-.1-.8-.7-.7-1.2.4-1.6.8-3.1 1.3-4.6.2-.5.7-.8 1.2-.7.5.2.8.7.7 1.2-.5 1.5-.9 3-1.3 4.6-.2.4-.6.7-1 .7zm185.7-.3c-.4 0-.8-.3-1-.7-.4-1.5-.8-3.1-1.3-4.5-.2-.5.1-1.1.7-1.2.5-.2 1.1.1 1.2.7.5 1.5.9 3.1 1.3 4.6.1.5-.2 1.1-.7 1.2-.1-.1-.1-.1-.2-.1zm-182.9-8.8c-.1 0-.2 0-.3-.1-.5-.2-.8-.8-.6-1.3.5-1.5 1.1-3 1.8-4.5.2-.5.8-.7 1.3-.5.5.2.7.8.5 1.3-.6 1.4-1.2 2.9-1.7 4.4-.2.4-.6.7-1 .7zm180-.3c-.4 0-.8-.2-.9-.6-.5-1.5-1.1-2.9-1.7-4.4-.2-.5 0-1.1.5-1.3.5-.2 1.1 0 1.3.5l1.8 4.5c.2.5-.1 1.1-.6 1.3h-.4zm-176.3-8.5c-.1 0-.3 0-.4-.1-.5-.2-.7-.8-.5-1.3.7-1.4 1.4-2.9 2.2-4.3.3-.5.9-.7 1.3-.4.5.3.7.9.4 1.3-.8 1.4-1.5 2.8-2.2 4.2-.1.4-.4.6-.8.6zm172.6-.3c-.4 0-.7-.2-.9-.6-.7-1.4-1.4-2.8-2.2-4.2-.3-.5-.1-1.1.4-1.3.5-.3 1.1-.1 1.3.4.8 1.4 1.5 2.8 2.2 4.3.2.5 0 1.1-.5 1.3 0 .1-.1.1-.3.1zm-168-8.1c-.2 0-.4 0-.5-.1-.5-.3-.6-.9-.3-1.4.8-1.4 1.7-2.7 2.6-4.1.3-.5.9-.6 1.4-.3.5.3.6.9.3 1.4-.9 1.3-1.7 2.6-2.6 4-.3.3-.6.5-.9.5zm163.4-.2c-.3 0-.7-.2-.8-.5-.8-1.3-1.7-2.7-2.6-4-.3-.5-.2-1.1.3-1.4.4-.3 1.1-.2 1.4.3.9 1.3 1.8 2.7 2.6 4 .3.5.1 1.1-.3 1.4-.2.1-.4.2-.6.2zm-158-7.7c-.2 0-.4-.1-.6-.2-.4-.3-.5-.9-.2-1.4 1-1.3 2-2.5 3-3.8.4-.4 1-.5 1.4-.1.4.4.5 1 .1 1.4-1 1.2-2 2.4-2.9 3.7-.3.2-.6.4-.8.4zm152.7-.2c-.3 0-.6-.1-.8-.4-1-1.2-1.9-2.5-3-3.7-.4-.4-.3-1 .1-1.4.4-.4 1-.3 1.4.1 1 1.2 2 2.5 3 3.8.3.4.2 1.1-.2 1.4-.1.1-.3.2-.5.2zm-146.6-7.1c-.2 0-.5-.1-.7-.3-.4-.4-.4-1-.1-1.4 1.1-1.2 2.2-2.3 3.4-3.5.4-.4 1-.4 1.4 0 .4.4.4 1 0 1.4-1.1 1.1-2.2 2.2-3.3 3.4-.2.3-.4.4-.7.4zm140.4-.2c-.3 0-.5-.1-.7-.3-1.1-1.1-2.2-2.3-3.3-3.4-.4-.4-.4-1 0-1.4.4-.4 1-.4 1.4 0l3.4 3.4c.4.4.3 1-.1 1.4-.2.2-.5.3-.7.3zM787 437.1c-.3 0-.5-.1-.7-.3-.4-.4-.3-1 .1-1.4 1.2-1.1 2.4-2.1 3.7-3.1.4-.3 1-.3 1.4.2.3.4.3 1-.2 1.4l-3.6 3c-.2.1-.4.2-.7.2zm126.8-.2c-.2 0-.5-.1-.7-.2-1.2-1-2.4-2.1-3.6-3-.4-.3-.5-1-.2-1.4.3-.4 1-.5 1.4-.2 1.3 1 2.5 2 3.7 3.1.4.4.4 1 .1 1.4-.2.2-.5.3-.7.3zm-119.3-5.8c-.3 0-.6-.1-.8-.4-.3-.4-.2-1.1.2-1.4 1.3-.9 2.6-1.9 4-2.7.5-.3 1.1-.2 1.4.3.3.5.2 1.1-.3 1.4l-3.9 2.7c-.2.1-.4.1-.6.1zm111.8-.1c-.2 0-.4-.1-.6-.2l-3.9-2.7c-.5-.3-.6-.9-.3-1.4.3-.5.9-.6 1.4-.3 1.3.9 2.7 1.8 4 2.7.4.3.5.9.2 1.4-.2.4-.5.5-.8.5zm-103.8-5.1c-.3 0-.7-.2-.9-.5-.3-.5-.1-1.1.4-1.3 1.4-.8 2.8-1.6 4.2-2.3.5-.2 1.1-.1 1.3.4.2.5.1 1.1-.4 1.3-1.4.7-2.8 1.5-4.1 2.3-.2.1-.4.1-.5.1zm95.8-.1c-.2 0-.3 0-.5-.1-1.4-.8-2.8-1.5-4.2-2.3-.5-.2-.7-.8-.4-1.3.2-.5.8-.7 1.3-.4 1.4.7 2.9 1.5 4.2 2.3.5.3.6.9.4 1.3-.2.3-.5.5-.8.5zm-87.4-4.2c-.4 0-.7-.2-.9-.6-.2-.5 0-1.1.5-1.3 1.5-.7 2.9-1.3 4.4-1.9.5-.2 1.1 0 1.3.6.2.5 0 1.1-.6 1.3-1.5.6-2.9 1.2-4.3 1.8-.1 0-.2.1-.4.1zm78.8-.1c-.1 0-.3 0-.4-.1-1.4-.6-2.9-1.3-4.4-1.8-.5-.2-.8-.8-.6-1.3.2-.5.8-.8 1.3-.6 1.5.6 3 1.2 4.5 1.9.5.2.7.8.5 1.3-.1.3-.5.6-.9.6zm-69.9-3.4c-.4 0-.8-.3-.9-.7-.2-.5.1-1.1.6-1.3 1.5-.5 3.1-1 4.6-1.4.5-.1 1.1.2 1.2.7.1.5-.2 1.1-.7 1.2-1.5.4-3 .9-4.5 1.4-.1.1-.2.1-.3.1zm61-.1c-.1 0-.2 0-.3-.1-1.5-.5-3-1-4.5-1.4-.5-.1-.8-.7-.7-1.2.1-.5.7-.8 1.2-.7 1.5.4 3.1.9 4.6 1.4.5.2.8.7.6 1.2-.1.5-.5.8-.9.8zm-51.8-2.5c-.5 0-.9-.3-1-.8-.1-.5.2-1.1.7-1.2 1.6-.4 3.1-.7 4.7-1 .5-.1 1 .3 1.1.8.1.5-.3 1-.8 1.1-1.5.3-3.1.6-4.6.9.1.2 0 .2-.1.2zm42.6-.1h-.2c-1.5-.3-3.1-.7-4.6-.9-.5-.1-.9-.6-.8-1.1.1-.5.6-.9 1.1-.8 1.6.3 3.2.6 4.7.9.5.1.9.6.7 1.2 0 .4-.4.7-.9.7zm-33.2-1.6c-.5 0-.9-.4-1-.9-.1-.5.3-1 .9-1.1 1.6-.2 3.2-.4 4.8-.5.5 0 1 .4 1.1.9 0 .5-.4 1-.9 1.1-1.6.1-3.1.3-4.7.5h-.2zm23.8 0h-.1c-1.6-.2-3.1-.3-4.7-.5-.5 0-1-.5-.9-1.1 0-.5.5-1 1.1-.9 1.6.1 3.2.3 4.8.5.5.1.9.6.9 1.1-.2.5-.6.9-1.1.9zm-14.3-.7c-.5 0-1-.4-1-1 0-.5.4-1 1-1h4.8c.5 0 1 .5 1 1s-.5 1-1 1h-4.8z"/><path style="fill:#414042" d="m437.1 573-14.5 109h171.5l-17.3-109z"/><path class="st7" d="M790.5 594.7H237.2c-6.1 0-11-4.9-11-11V207.9c0-6.1 4.9-11 11-11h553.3c6.1 0 11 4.9 11 11v375.9c0 6-4.9 10.9-11 10.9z"/><path class="st8" d="M263.5 231.4h497.4v312.7H263.5z"/><path class="st7" d="M701.5 697.6H321.8c-8.8 0-16-7.2-16-16V678c0-8.8 7.2-16 16-16h379.7c8.8 0 16 7.2 16 16v3.6c0 8.9-7.2 16-16 16z"/><path style="opacity:.68;fill:#fff" d="M760.9 313.2 526.7 544.1H407.3l310.2-312.7h43.4z"/><g><path d="M735.6 517.4H387.8c-6 0-10.8-4.8-10.8-10.8V355.7c0-6 4.8-10.8 10.8-10.8h347.8c6 0 10.8 4.8 10.8 10.8v150.9c0 5.9-4.8 10.8-10.8 10.8z" style="fill:#4671ae"/><path class="st1" d="M685.7 505.1H402.1c-2.2 0-4-1.8-4-4v-.9c0-2.2 1.8-4 4-4h283.5c2.2 0 4 1.8 4 4v.9c.1 2.2-1.7 4-3.9 4zM725.7 484H402.1c-2.2 0-4-1.8-4-4v-.9c0-2.2 1.8-4 4-4h323.6c2.2 0 4 1.8 4 4v.9c0 2.2-1.8 4-4 4zM725.7 441.7H402.1c-2.2 0-4-1.8-4-4v-.9c0-2.2 1.8-4 4-4h323.6c2.2 0 4 1.8 4 4v.9c0 2.2-1.8 4-4 4zM716.8 462.8H406.6c-2.2 0-4-1.8-4-4v-.9c0-2.2 1.8-4 4-4h310.3c2.2 0 4 1.8 4 4v.9c-.1 2.2-1.9 4-4.1 4zM707.9 420.5H397.7c-2.2 0-4-1.8-4-4v-.9c0-2.2 1.8-4 4-4H708c2.2 0 4 1.8 4 4v.9c-.1 2.3-1.9 4-4.1 4zM707.9 399.4H397.7c-2.2 0-4-1.8-4-4v-.9c0-2.2 1.8-4 4-4H708c2.2 0 4 1.8 4 4v.9c-.1 2.2-1.9 4-4.1 4zM725.7 378.3H415.5c-2.2 0-4-1.8-4-4v-.9c0-2.2 1.8-4 4-4h310.3c2.2 0 4 1.8 4 4v.9c-.1 2.2-1.9 4-4.1 4z"/></g><g><path class="st7" d="M671.9 168.5V430c0 10.1-8.2 18.3-18.3 18.3h-354c-10.1 0-18.3-8.2-18.3-18.3V168.5c0-10.1 8.2-18.3 18.3-18.3h354c10.1-.1 18.3 8.1 18.3 18.3z"/><path class="st1" d="M650.9 436.1H303.4c-6.1 0-11-4.9-11-11v-246h369.4v246.1c.1 6-4.9 10.9-10.9 10.9z"/><path class="st5" d="M671.9 168.5v22.9H281.3v-22.9c0-10.1 8.2-18.3 18.3-18.3h354c10.1-.1 18.3 8.1 18.3 18.3z"/><circle class="st1" cx="570" cy="170.7" r="8.3"/><circle class="st1" cx="605.7" cy="170.7" r="8.3"/><circle class="st1" cx="641.3" cy="170.7" r="8.3"/><path class="st11" d="M544.7 364v-23.6l-14.6-2.4c-1.4-5.2-3.5-10.1-6.2-14.7l9-11.4-15.8-17.5-13 9.5c-4.5-2.6-9.3-4.6-14.4-5.8l-1.6-15.6h-23.6l-2.6 15.8c-5 1.3-9.8 3.4-14.2 6l-13.4-9.9-15.8 17.5 9.7 12.2c-2.5 4.2-4.4 8.8-5.7 13.7l-15.8 2.6V364l15.6 1.6c1.2 5 3.2 9.8 5.7 14.1l-9.4 11.9 15.8 17.5 12.9-9.5c4.8 2.9 10 5.1 15.6 6.5l1.6 15.6H488l2.6-15.8c5-1.3 9.7-3.3 14.1-5.9l12.4 9.1 15.8-17.5-8.8-11.1c2.7-4.6 4.8-9.7 6.2-15l14.4-1.5zm-69 22.6c-19.1 0-34.5-15.4-34.5-34.5s15.4-34.5 34.5-34.5 34.5 15.4 34.5 34.5-15.4 34.5-34.5 34.5z"/><path d="M630.3 271v-16.8l-10.4-1.7c-1-3.7-2.5-7.2-4.4-10.4l6.4-8.1-11.3-12.5-9.2 6.8c-3.2-1.8-6.6-3.2-10.3-4.2L590 213h-16.8l-1.9 11.2c-3.6 1-7 2.4-10.1 4.2l-9.6-7-11.3 12.5 6.9 8.7c-1.8 3-3.1 6.3-4.1 9.7l-11.2 1.9V271l11.1 1.1c.9 3.6 2.3 6.9 4 10.1l-6.7 8.5 11.3 12.5 9.2-6.8c3.4 2.1 7.1 3.7 11.1 4.6l1.1 11.1h16.8l1.9-11.2c3.6-.9 6.9-2.4 10-4.2l8.8 6.5 11.3-12.5-6.3-7.9c2-3.3 3.4-6.9 4.4-10.7l10.4-1.1zm-49.1 16.1c-13.6 0-24.6-11-24.6-24.6 0-13.6 11-24.6 24.6-24.6s24.6 11 24.6 24.6c-.1 13.6-11.1 24.6-24.6 24.6z" style="fill:#4570ad"/><path class="st8" d="M305.2 203h122.4v11.1H305.2zM305.2 228.6h122.4v11.1H305.2zM305.2 250.8h122.4v11.1H305.2zM305.2 274.2h95.7v11.1h-95.7zM305.2 297.6h95.7v11.1h-95.7z"/><circle class="st13" cx="310.2" cy="410.5" r="6.1"/><circle class="st13" cx="340.3" cy="410.5" r="6.1"/><circle class="st13" cx="369.2" cy="410.5" r="6.1"/><circle class="st13" cx="399.2" cy="410.5" r="6.1"/><g><circle class="st13" cx="552.8" cy="410.5" r="6.1"/><circle class="st13" cx="582.8" cy="410.5" r="6.1"/><circle class="st13" cx="611.8" cy="410.5" r="8.3"/><circle class="st13" cx="641.8" cy="410.5" r="6.1"/></g></g><g><path class="st11" d="M342.6 214.7H158.7c-11 0-19.9 8.9-19.9 19.9v83.7c0 11 8.9 19.9 19.9 19.9h118.7l31.7 36.1v-36.1h33.5c11 0 19.9-8.9 19.9-19.9v-83.7c0-11-8.9-19.9-19.9-19.9z"/><path class="st1" d="M335.6 241.4H161.3c-1.9 0-3.5-1.6-3.5-3.5v-.8c0-1.9 1.6-3.5 3.5-3.5h174.4c1.9 0 3.5 1.6 3.5 3.5v.8c-.1 1.9-1.6 3.5-3.6 3.5zM335.6 260.3H161.3c-1.9 0-3.5-1.6-3.5-3.5v-.8c0-1.9 1.6-3.5 3.5-3.5h174.4c1.9 0 3.5 1.6 3.5 3.5v.8c-.1 1.9-1.6 3.5-3.6 3.5zM334.5 279.2H160.2c-1.9 0-3.5-1.6-3.5-3.5v-.8c0-1.9 1.6-3.5 3.5-3.5h174.4c1.9 0 3.5 1.6 3.5 3.5v.8c-.1 2-1.6 3.5-3.6 3.5zM313.4 298.1H160.2c-1.9 0-3.5-1.6-3.5-3.5v-.8c0-1.9 1.6-3.5 3.5-3.5h153.2c1.9 0 3.5 1.6 3.5 3.5v.8c0 2-1.6 3.5-3.5 3.5zM308.9 317.1H161.3c-1.9 0-3.5-1.6-3.5-3.5v-.8c0-1.9 1.6-3.5 3.5-3.5H309c1.9 0 3.5 1.6 3.5 3.5v.8c-.1 1.9-1.6 3.5-3.6 3.5z"/></g><path class="st5" d="M197.4 374.3H116c-4.9 0-8.8 3.9-8.8 8.8v37.1c0 4.9 3.9 8.8 8.8 8.8h52.5l14 16v-16h14.8c4.9 0 8.8-3.9 8.8-8.8v-37.1c.1-4.8-3.9-8.8-8.7-8.8z"/><g><circle class="st1" cx="132.4" cy="400.5" r="5.7"/><circle class="st1" cx="156.7" cy="400.5" r="5.7"/><circle class="st1" cx="180.9" cy="400.5" r="5.7"/></g><path class="st1" d="M921.7 513.9v-19.7l-12.2-2c-1.1-4.4-2.9-8.5-5.2-12.3l7.6-9.5-13.2-14.6-10.9 8c-3.7-2.2-7.8-3.8-12.1-4.9l-1.3-13h-19.7l-2.2 13.2c-4.2 1.1-8.2 2.8-11.9 5l-11.3-8.3-13.3 14.5 8.1 10.2c-2.1 3.6-3.7 7.4-4.8 11.5l-13.2 2.2v19.7l13 1.3c1 4.2 2.7 8.2 4.8 11.8l-7.9 10 13.2 14.6 10.8-7.9c4 2.4 8.4 4.3 13 5.5l1.3 13H874l2.2-13.2c4.2-1.1 8.1-2.8 11.8-5l10.4 7.6 13.2-14.6-7.4-9.3c2.3-3.9 4.1-8.1 5.2-12.6l12.3-1.2zm-57.8 18.9c-16 0-28.9-12.9-28.9-28.9s13-28.9 28.9-28.9c16 0 28.9 12.9 28.9 28.9s-12.9 28.9-28.9 28.9z"/></svg>