<svg version="1.1" id="Layer_1" xmlns="http://www.w3.org/2000/svg" xmlns:xlink="http://www.w3.org/1999/xlink" x="0" y="0" viewBox="0 0 1000 638.4" style="enable-background:new 0 0 1000 638.4" xml:space="preserve"><style>.st2{fill:#4a4e5a}.st6{opacity:.32;fill:#fff}.st8{fill:#2d2d2d}.st11{fill:none;stroke:#47485d;stroke-width:3;stroke-miterlimit:10}.st16{opacity:.32;fill:#4c4c4c}.st17{opacity:.29;fill:#d7eef7}.st19{fill:#ffab97}.st22{fill:#fff4f6}.st24{opacity:.28;fill:#fff}</style><path d="M226.9 630.8c-14.4 0-28.5-4.7-40-13.4-70-52.9-301.8-255.6-90-480.8C311.5-91.6 940.4 7.1 970 254.7c0 0 42.3 293.9-198.8 373.9-4.6 1.5-9.5 2.3-14.3 2.3h-530z" style="fill:#bea4f7"/><defs><path id="SVGID_1_" d="M229.9 620.5c-9.1 0-18-3.2-25-9-46.5-38.3-215.5-194.8-140.5-392.4C151.1-9.1 532 38.5 532 38.5S956.8 28.6 952.8 302c-3.4 240-155.9 304.1-192.9 316.2-4.8 1.6-9.7 2.3-14.8 2.3H229.9z"/></defs><clipPath id="SVGID_2_"><use xlink:href="#SVGID_1_" style="overflow:visible"/></clipPath><g style="clip-path:url(#SVGID_2_)"><path class="st2" d="M64.4 34.4h897.8v586.1H64.4z"/><path style="fill:#e2d5f9" d="M77.8 43.1h871.1v568.7H77.8z"/><path style="fill:#d1d3d4" d="M77.8 391.4h871.1v220.4H77.8z"/><path d="M929.1 355.2c0 7.8-1.9 15.1-5.2 21.5-3.2 6.3-7.9 11.7-13.5 15.9-7.8 5.9-17.5 9.3-28 9.3-25.8 0-46.7-20.9-46.7-46.7 0-18.2 10.4-34 25.7-41.7 2.1-1.1 4.3-2 6.6-2.7 4.5-1.5 9.4-2.3 14.4-2.3 25.8-.1 46.7 20.9 46.7 46.7z" style="fill:#93cbe6"/><path class="st6" d="M929.1 355.2c0 7.8-1.9 15.1-5.2 21.5-3.2 6.3-7.9 11.7-13.5 15.9-6.3 3.2-13.5 5-21 5-25.8 0-46.7-20.9-46.7-46.7 0-15.3 7.4-28.9 18.7-37.4 2.1-1.1 4.3-2 6.6-2.7 4.5-1.5 9.4-2.3 14.4-2.3 25.8-.1 46.7 20.9 46.7 46.7z"/><path class="st6" d="M929.1 355.2c0 7.8-1.9 15.1-5.2 21.5-4.5 1.5-9.4 2.3-14.4 2.3-25.8 0-46.7-20.9-46.7-46.7 0-7.8 1.9-15.1 5.2-21.5 4.5-1.5 9.4-2.3 14.4-2.3 25.8-.1 46.7 20.9 46.7 46.7z"/><circle cx="895.5" cy="323.9" r="10.5" style="opacity:.88;fill:#d7eef7"/><path class="st2" d="M708.7 382.2h222.4v18.3H708.7zM734.6 365.3h147.8v16.9H734.6zM816.3 327.8h57.4v37.5h-57.4z"/><path class="st2" d="M772.8 353.3h12.3v12.3h-12.3zM802.5 353.3h12.3v12.3h-12.3z"/><path class="st2" d="M785.2 359.5h23.5v3.5h-23.5z"/><path class="st8" d="M154.8 39.6h718.9v262.3H154.8z"/><path style="fill:#f0ebfc" d="M158.8 39.6h710.5v257.8H158.8z"/><path style="opacity:.88;fill:#484860" d="M154.8 139.6h718.9v6.1H154.8z"/><path class="st11" d="M334.6 34.4v264.5M513.2 38.5v258.9M692.8 38.5v260.4"/><path d="M839.2 529H160.7c-5.3 0-7.9-6.5-4.1-10.2l30.9-29.1c3-2.8 6.9-4.4 11-4.4l593-5.9c3.7 0 7.4 1.3 10.1 3.9l40.8 37c3.5 3 1.4 8.7-3.2 8.7z" style="fill:#776347"/><path d="M630.7 500.5s-9.1 10-36.1 7-143.9-17-170.9-15.7c-27 1.3-100.9-10-110.4-15.2 0 0-3.9-20.9 6.1-28.7h234.4L463.3 364s-80.4-93.5-95.8-97.5l17.1-19.4 35.2 19.9s44.3 31.5 54.8 41.4c0 0 38.7 33.8 57 41.6 0 0 81.3 49.1 89.1 51.3l10 99.2z" style="fill:#ff4d53"/><path d="M212.5 261.7c0 7.8-1.9 15.1-5.2 21.5-3.2 6.3-7.9 11.7-13.5 15.9-7.8 5.9-17.5 9.3-28 9.3-25.8 0-46.7-20.9-46.7-46.7 0-18.2 10.4-34 25.7-41.7 2.1-1.1 4.3-2 6.6-2.7 4.5-1.5 9.4-2.3 14.4-2.3 25.8 0 46.7 20.9 46.7 46.7z" style="fill:#2e4e6d"/><path d="M212.5 261.7c0 7.8-1.9 15.1-5.2 21.5-3.2 6.3-7.9 11.7-13.5 15.9-6.3 3.2-13.5 5-21 5-25.8 0-46.7-20.9-46.7-46.7 0-15.3 7.4-28.9 18.7-37.4 2.1-1.1 4.3-2 6.6-2.7 4.5-1.5 9.4-2.3 14.4-2.3 25.8 0 46.7 20.9 46.7 46.7z" style="fill:#4570ad"/><path class="st16" d="M212.5 261.7c0 7.8-1.9 15.1-5.2 21.5-4.5 1.5-9.4 2.3-14.4 2.3-25.8 0-46.7-20.9-46.7-46.7 0-7.8 1.9-15.1 5.2-21.5 4.5-1.5 9.4-2.3 14.4-2.3 25.8 0 46.7 20.9 46.7 46.7z"/><circle class="st17" cx="178.9" cy="230.5" r="10.5"/><g><path class="st8" d="M309.2 259.6c0 7.8-1.9 15.1-5.2 21.5-3.2 6.3-7.9 11.7-13.5 15.9-7.8 5.9-17.5 9.3-28 9.3-25.8 0-46.7-20.9-46.7-46.7 0-18.2 10.4-34 25.7-41.7 2.1-1.1 4.3-2 6.6-2.7 4.5-1.5 9.4-2.3 14.4-2.3 25.8 0 46.7 20.9 46.7 46.7z"/><path d="M309.2 259.6c0 7.8-1.9 15.1-5.2 21.5-3.2 6.3-7.9 11.7-13.5 15.9-6.3 3.2-13.5 5-21 5-25.8 0-46.7-20.9-46.7-46.7 0-15.3 7.4-28.9 18.7-37.4 2.1-1.1 4.3-2 6.6-2.7 4.5-1.5 9.4-2.3 14.4-2.3 25.8 0 46.7 20.9 46.7 46.7z" style="opacity:.29;fill:#191919"/><path class="st16" d="M309.2 259.6c0 7.8-1.9 15.1-5.2 21.5-4.5 1.5-9.4 2.3-14.4 2.3-25.8 0-46.7-20.9-46.7-46.7 0-7.8 1.9-15.1 5.2-21.5 4.5-1.5 9.4-2.3 14.4-2.3 25.8 0 46.7 20.9 46.7 46.7z"/><circle class="st17" cx="275.6" cy="228.3" r="10.5"/></g><path class="st19" d="m728.9 333.3-12 19.6-5.4 16.9 44.6 17.7 3.5-27.1 4.5-12.7z"/><ellipse transform="rotate(-83.067 751.875 308.432)" class="st19" cx="751.9" cy="308.4" rx="46.9" ry="29.6"/><path class="st19" d="M771.3 370.5s16.6 10.3 22.4 24.8c5.8 14.5 23.5 62.3 23.5 62.3s10.1 20.3-4.9 32.5c-15.1 12.2-25.2 22.6-25.2 22.6s-9.3 24.9-21.4 28.4c0 0-4.1 5.2-3.2-1.4l-.1-2.6-6.8 4.6s-6.6 3.2-3.6-2.6l1.3-2.6s-10.2 6.1-9.1-.6l3.8-4.6s-10.1 7.2-8.7-.6l16.5-15.1s3.6-4.1-2.5-2.6c-6.2 1.4-12.8 2.6-12.8-2s19.4-5.5 26.1-5.5l21.2-29.6s1.4-2.9-2.9-7.8l-16.2-41.5s-5.6-7.2-8.3-2c-.2 0-4.5-44.1 10.9-54.1z"/><path d="M700.2 475.3s-6.5 24.8-71.7 27.4l-13.9-83.9s22.4-1.1 31.5-8.5l54.1 65z" style="fill:#f9a493"/><ellipse transform="rotate(-66.209 779.81 322.924)" class="st19" cx="779.8" cy="322.9" rx="9.8" ry="6.2"/><path d="m706.7 341.1 11.1 6.5s-4.9 21.5 11.9 29.1c0 0 22.7 14.6 30.5-12.8l11.1 6.5s-13 32.6-11.1 54.1c0 0-9.8 23.5-34.6 37.8-24.8 14.3-26.1 17-26.1 17L646 410.2s33.3-24.5 48.9-45.7l11.8-23.4z" style="fill:#7a49c9"/><path class="st19" d="m316.3 451.3-36 3.6V471s17.8-4.3 33 5.7l3-25.4zM384.6 247.1 365 235.6l-16.3 5.7 24 28.1z"/><path class="st22" d="M283.6 451.3s8.9 13.2 5.1 18.7c0 0-44.3 7.8-63.8-6.1 0 0-16.6-11 12.9-23.9-.1.1 39.9-1.6 45.8 11.3zM333.4 183.1c1.4-2 4-2.9 6.3-2.1 5.1 1.7 13.7 6.4 18.1 19.3 6.5 18.9 12 38.1 12 38.1s-5.7 9.8-16.1 8.7c0 0 12 12.5 5.5 9.9-6.5-2.6-19.6-7.2-19.6-7.2s-2.7-21.5-11.5-35.9c-6.7-10.8 1.1-24.7 5.3-30.8z"/><g><path class="st2" d="M106.7 269.4h8.7v140.9h-8.7z"/><path class="st2" d="M111.1 297.4h210.4v3.1H111.1zM111.1 304.7h210.4v3.1H111.1z"/></g><g><path d="M301.3 456.5c-65.7 0-116.1-46-122.4-106.1-.2-2-.4-3.9-.5-5.9-3.4-61.8 55.3-115.2 122.8-108.3 62 6.4 110.5 44.8 121.4 99.1.6 3 1.1 6.1 1.5 9.2 7.3 61.4-55 112-122.8 112z" style="fill:#feac02"/><circle class="st24" cx="246" cy="327.8" r="37.5"/><ellipse transform="rotate(-83.067 328.084 343.297)" class="st24" cx="328.1" cy="343.3" rx="23.4" ry="13.8"/><path d="M301.3 456.5c-65.7 0-116.1-46-122.4-106.1 19.3 36.3 57.5 89.6 114.3 86.7 76.9-3.9 119.8-51.1 129.4-101.8.6 3 1.1 6.1 1.5 9.2 7.3 61.4-55 112-122.8 112z" style="opacity:.13;fill:#3e425e"/></g><g><path class="st2" d="M895.5 145.7H906v236.5h-10.5z"/><path class="st2" d="M900.8 197h52.1v9.6h-52.1zM900.8 210.2h52.1v9.6h-52.1z"/></g><path class="st19" d="M705.1 340c-1.9-1.1-5.7-2.7-12.1-3.4-11.1-1.2-22.2 1.4-31.8 7.1-13.7 8-36.1 24.2-53 50.9 0 0-21.5 15.7-5.9 37.2l43.7 71.7s5.6 10.9 21.8 14.6c16.2 3.8 25.2 6.7 25.2 6.7s6.4 1.2 4.3-2.6c0 0 16.5 3.5 9-2.6 0 0 7.8.3 4.1-3.8 0 0-15.4-7.2-26.4-8.4 0 0-1.4-2 2-3.5 3.5-1.4 4.1-4.6-.9-4.1-4.9.6-13.3 4.3-18 2.6l-8.4-12.5-26.4-69.6s67.5-49.1 70.6-70l3-7.7c.6-.8.2-2-.8-2.6z"/><path class="st8" d="M722.1 326.8s-11.3-21.6-.6-22.8c10.7-1.3 17.8 4.6 27-12.4 9.1-17 21.5-3.3 21.5-3.3s8.5 12.2 9.1 34.4c0 0 5.2-8.4 5.2.1s-4.6 24.8-4.6 24.8 17.6-33.3 10.4-56.1l-7.2-18.9s15.7-6.5-3.9-20.9h-5.9s-8.7-10.5-15.7 0v4.6s-24.1-3.3-35.5 14.3-8.7 37.6.2 56.2z"/><ellipse transform="matrix(.9981 -.0614 .0614 .9981 -17.905 44.934)" class="st19" cx="722.1" cy="313.8" rx="6.2" ry="9.8"/></g></svg>