<svg version="1.1" id="Layer_1" xmlns="http://www.w3.org/2000/svg" x="0" y="0" viewBox="0 0 1000 663" style="enable-background:new 0 0 1000 663" xml:space="preserve"><style>.st0{fill:#e8e1f9}.st1{fill:#cfb5f6}.st2{fill:#81ba6e}.st3{fill:#fff}.st4{fill:#ff4d53}.st5{fill:#4570ad}.st6{fill:#231f20}.st8{fill:#feac02}.st10{fill:#61aed8}.st11{opacity:.78;fill:#ff4d53}.st13{fill:#e6e7e8}.st14{fill:#d1d3d4}.st16{fill:#808285}.st18{fill:#f4b373}.st19{fill:#1e1e1e}.st21{fill:#1d1d1e}.st24{fill:#faa678}.st25{fill:#eb9759}.st26{fill:#bcbec0}</style><ellipse class="st0" cx="505.5" cy="619" rx="484.5" ry="29"/><path class="st0" d="M254.5 615.4S-25.8 631.3 66.7 485c0 0 34.1-21-27.1-58s-12.7-77.9 39-115.6 20.7-105.9 10.9-114.9c-9.8-8.9-140.4-103.5 35-171.1s207 69.8 296.6 103.9 254.5-52 254.5-52 174.8-134.5 202 38.4c2.4 15.3 12.8 28 27.3 33.2 36.9 13.2 97 57.1 39.4 202.7 0 0 12.6 164.5-64.7 223s-498.8 56.3-625.1 40.8z"/><path class="st1" d="M266.2 615.8S-5 631 84.5 491.5c0 0 33-20-26.3-55.3S46 362 96 326s20-101 10.5-109.5-135.8-98.7 33.8-163.1 200.3 66.5 287 99.1S673.6 103 673.6 103 842.7-25.3 869 139.6c2.3 14.6 12.4 26.7 26.4 31.6 35.7 12.5 93.9 54.5 38.1 193.2 0 0 12.2 156.9-62.6 212.6s-482.5 53.6-604.7 38.8z"/><path class="st2" d="M186.8 502.9S92 411.3 96 236.7 77.5 43.8 77.5 43.8s2.6-26.4 48 23.4S199.3 141 197.6 287c-1.6 146-16 186.9-10.8 222"/><path class="st3" d="M179.8 492.7c-.5 0-1.1-.3-1.3-.8-.1-.2-11.3-22-20.6-59.2-8.7-34.3-17.6-89.2-10.9-155.7 6.6-66.1-3.6-116-13.4-146.3-10.5-32.7-22.8-50-22.9-50.2-.5-.7-.3-1.6.3-2.1.7-.5 1.6-.3 2.1.3.1.2 12.6 17.9 23.3 51 9.8 30.5 20.2 80.9 13.5 147.5-6.6 66.1 2.2 120.5 10.8 154.6 9.3 36.9 20.3 58.5 20.4 58.7.4.7.1 1.6-.6 2-.3.1-.5.2-.7.2z"/><path class="st4" d="M694 615.9s77.5-216.7 274.2-402.3c.1 0-58.1 377.3-274.2 402.3z"/><path class="st3" d="M712 602.4c-.2 0-.5-.1-.7-.2-.4-.4-.5-1-.1-1.4 1.5-1.7 152.2-175.3 199.7-283l30.3-63.6c.2-.5.8-.7 1.3-.5.5.2.7.8.5 1.3l-30.3 63.6c-47.6 108-198.5 281.8-200 283.5-.2.2-.5.3-.7.3z"/><path class="st5" d="M272.1 608.9S141 607.7 63 408.3c0 0-30.1-114.2-44-131.3 0 0 101 30.4 136.5 124.1s116.6 207.8 116.6 207.8z"/><path class="st3" d="M237.5 593c-.3 0-.5-.1-.8-.2-.2-.1-22.8-14.3-48.5-39.6-23.7-23.4-54.9-61.6-69.2-110.2-27.1-92-76.4-139.4-76.9-139.8-.6-.6-.6-1.5-.1-2.1.6-.6 1.5-.6 2.1-.1.5.5 50.5 48.4 77.8 141.2 14.1 48 45 85.7 68.4 108.9 25.4 25.2 47.8 39.1 48 39.3.7.4.9 1.4.5 2.1-.3.2-.8.5-1.3.5z"/><path class="st6" d="m861.1 537.8-650.6-11.6c-20.6-.4-37-17.1-37-37.7V157c0-21.1 17.4-38.1 38.5-37.7l650.6 13.4c17.9 6.8 25.9 19.8 29.9 37.7l7 329.7c0 21.1-17.3 38.1-38.4 37.7z"/><path class="st3" d="m220.2 130 627.9 12c13.1.3 23.6 10.8 23.8 23.9l4.3 301.7c.2 13.6-10.9 24.7-24.5 24.6l-632.2-7.3c-13.3-.2-24-11-24-24.2V154.2c0-13.6 11.1-24.5 24.7-24.2z"/><g style="opacity:.54"><path class="st8" d="M256.5 368.5h27v117h-27zM301.5 407.5h27v78h-27zM396.5 438.5h27v48h-27zM718.5 442.5h27v48h-27zM441.5 337.5h27v149h-27zM487.5 360.5h27v127h-27zM533.5 385.5h27v103h-27zM579.5 336.5h27v153h-27zM625.5 336.5h27v153h-27zM671.5 336.5h27v153h-27zM763.5 375.5h27v115h-27zM351.5 314.5h27v171h-27z"/></g><path style="fill:#414042" d="m501 525.3-13.5 93.6h134.1l-15.1-93.6z"/><path class="st6" d="m453.4 608.1-2.9 15.4h195.6c5 0 9-4.4 8.5-9.4l-1-10c-.6-5.7-5.4-10-11.2-9.8l-178.7 5c-5.1.2-9.4 3.8-10.3 8.8z"/><circle class="st10" cx="295.5" cy="216.5" r="39"/><circle class="st10" cx="390.5" cy="216.5" r="39"/><circle class="st10" cx="483.5" cy="221.5" r="39"/><path class="st11" d="M327.5 287h-61c-3.6 0-6.5-2.9-6.5-6.5s2.9-6.5 6.5-6.5h61c3.6 0 6.5 2.9 6.5 6.5s-2.9 6.5-6.5 6.5zM419.5 287h-61c-3.6 0-6.5-2.9-6.5-6.5s2.9-6.5 6.5-6.5h61c3.6 0 6.5 2.9 6.5 6.5s-2.9 6.5-6.5 6.5zM513.5 287h-61c-3.6 0-6.5-2.9-6.5-6.5s2.9-6.5 6.5-6.5h61c3.6 0 6.5 2.9 6.5 6.5s-2.9 6.5-6.5 6.5z"/><path class="st3" d="M297.8 249.9c-1.6 0-3.2-.1-4.9-.4-14.4-2.5-25.5-14.8-26.6-29.3-1.5-21.7 18.3-29.2 28.9-30.1l.5 6-.3-3 .3 3c-1 .1-25 2.5-23.5 23.7.8 11.8 9.9 21.9 21.6 23.9 5.9 1 10.8-.2 15.5-3.8.8-.6 1.8-1.3 2.9-2.1 4-2.7 12.8-10.9 8.4-28.5l5.8-1.5c5.5 21.9-6.9 32.3-10.8 34.9-1 .7-1.8 1.3-2.6 1.9-4.7 3.6-9.7 5.3-15.2 5.3zM389.7 249c-5.9 0-10.9-1.9-14.7-4-10.3-5.8-16.4-16.8-15.5-28.1 1.3-18.2 19.6-25.5 29.1-26.8l.8 5.9c-.9.1-22.6 3.4-24 21.3-.7 9 4.2 17.8 12.5 22.4 8.2 4.6 16.6 4.3 25-.8l3.1 5.1c-5.8 3.7-11.4 5-16.3 5zM484.3 251.5c-4.8 0-9.8-1.5-14.8-4.4-8.7-5.2-14.3-14.1-15-23.8-.7-9.9 1.7-17.9 7-23.7 8.3-9.1 20.8-9.4 21.4-9.4l.1 6v-3l.1 3c-.1 0-10.5.3-17.1 7.5-4.2 4.6-6 11-5.4 19.2.5 7.8 5.1 14.9 12.1 19.1 11 6.6 21.2 4.1 30.3-7.2l4.7 3.7c-7 8.5-15 13-23.4 13z"/><path d="m655.5 333.4 10.8 2.2 7.8-13.1-12.2-11.8-1.5 3.8c.1-1 .1-2 .1-3.1 0-3.7-.4-7.3-1.2-10.7l10.5-10.9-9.2-16.4-14.2 3.1c-2.5-2.6-5.4-4.9-8.4-7l1-12.8-17.4-7-9.2 11.6h-1.9c-5.2 0-10.3.8-15 2.3l-9.7-8.3-12.3 9 3.1 10.2c-4.8 4.4-8.7 9.8-11.5 15.8h-13.6l-4 14 13 7.7c.1 5.1.9 10 2.4 14.6l-8.4 10.5 8 14.2 14.3-3c3.1 2.8 6.5 5.2 10.3 7.2l1.3 13.3 16 3.3 7.4-10.9c5.2-.1 10.1-1 14.8-2.6l11.3 9.6 11.9-8.4-4.4-12.7c4-3.7 7.5-8.5 10.1-13.7z" style="fill:#b45ed1"/><path class="st13" d="M611.5 351c-20.7 0-37.5-16.8-37.5-37.5 0-17.2 11.7-32.2 28.4-36.4.8-.2 1.6.3 1.8 1.1.2.8-.3 1.6-1.1 1.8-15.4 3.8-26.1 17.6-26.1 33.5 0 19 15.5 34.5 34.5 34.5s34.5-15.5 34.5-34.5c0-11.5-5.7-22.3-15.3-28.7-.7-.5-.9-1.4-.4-2.1.5-.7 1.4-.9 2.1-.4 10.4 7 16.7 18.6 16.7 31.2-.1 20.7-16.9 37.5-37.6 37.5z"/><path class="st13" d="M612 329c-8.3 0-15-6.7-15-15s6.7-15 15-15 15 6.7 15 15-6.7 15-15 15zm0-27c-6.6 0-12 5.4-12 12s5.4 12 12 12 12-5.4 12-12-5.4-12-12-12z"/><g><path class="st5" d="m687.5 227.7 5.5 1.1 4-6.7-6.2-6-.8 1.9c0-.5.1-1 .1-1.6 0-1.9-.2-3.7-.6-5.4l5.3-5.5-4.7-8.3-7.2 1.6c-1.3-1.3-2.7-2.5-4.3-3.5l.5-6.5-8.9-3.6-4.7 5.9h-.9c-2.7 0-5.2.4-7.6 1.2l-4.9-4.2-6.3 4.6 1.6 5.2c-2.4 2.3-4.4 5-5.9 8h-6.9l-2 7.1 6.6 3.9c0 2.6.5 5.1 1.2 7.4l-4.3 5.3 4.1 7.2 7.3-1.5c1.6 1.4 3.3 2.7 5.2 3.7l.7 6.8 8.1 1.7 3.8-5.6c2.6-.1 5.1-.5 7.5-1.3l5.7 4.9 6.1-4.3-2.2-6.5c2.1-1.9 3.8-4.4 5.1-7z"/><path class="st14" d="M665.2 236.6c-10.5 0-19.1-8.6-19.1-19.1 0-8.8 5.9-16.4 14.4-18.5.4-.1.8.1.9.6.1.4-.1.8-.6.9-7.8 2-13.3 9-13.3 17 0 9.7 7.9 17.6 17.6 17.6s17.6-7.9 17.6-17.6c0-5.9-2.9-11.3-7.8-14.6-.4-.2-.4-.7-.2-1.1.2-.4.7-.4 1.1-.2 5.3 3.6 8.5 9.5 8.5 15.9-.1 10.6-8.6 19.1-19.1 19.1z"/><path class="st14" d="M665.4 225.4c-4.2 0-7.6-3.4-7.6-7.6s3.4-7.6 7.6-7.6c4.2 0 7.6 3.4 7.6 7.6s-3.4 7.6-7.6 7.6zm0-13.7c-3.4 0-6.1 2.7-6.1 6.1s2.7 6.1 6.1 6.1 6.1-2.7 6.1-6.1-2.7-6.1-6.1-6.1z"/></g><ellipse transform="rotate(-7.607 543.454 515.63)" cx="543.5" cy="515.5" rx="8.1" ry="8" style="fill:none;stroke:#fff;stroke-miterlimit:10"/><g><path class="st3" d="m754 508.5-558.5-10.8c-.8 0-1.5-.7-1.5-1.5s.7-1.4 1.5-1.5L754 505.5c.8 0 1.5.7 1.5 1.5s-.7 1.5-1.5 1.5zM821 508.5h-57.5c-.8 0-1.5-.7-1.5-1.5s.7-1.5 1.5-1.5H821c.8 0 1.5.7 1.5 1.5s-.6 1.5-1.5 1.5zM886.9 509.2h-53.5c-1.3 0-2.4-.8-2.4-1.8s1.1-1.8 2.4-1.8h53.5c1.3 0 2.4.8 2.4 1.8s-1.1 1.8-2.4 1.8z"/></g><g><path class="st16" d="M607 392.4c-2.8-.1-5.5-.4-8.2-.8-.5-.1-.9-.6-.8-1.1.1-.5.6-.9 1.1-.8 2.6.4 5.3.7 7.9.8.6 0 1 .5.9 1 .1.5-.4.9-.9.9zm8.1 0c-.5 0-1-.4-1-.9 0-.6.4-1 .9-1 2.6-.1 5.3-.4 7.9-.8.5-.1 1.1.3 1.1.8.1.5-.3 1.1-.8 1.1-2.6.4-5.4.7-8.1.8zm-24-2.4h-.2c-2.6-.7-5.2-1.5-7.8-2.4-.5-.2-.8-.8-.6-1.3.2-.5.8-.8 1.3-.6 2.5.9 5 1.7 7.6 2.4.5.1.9.7.7 1.2-.1.4-.5.7-1 .7zm39.9 0c-.4 0-.9-.3-1-.7-.1-.5.2-1.1.7-1.2 2.6-.7 5.1-1.5 7.6-2.4.5-.2 1.1.1 1.3.6.2.5-.1 1.1-.6 1.3-2.5.9-5.2 1.8-7.8 2.4h-.2zm-55-5.6c-.1 0-.3 0-.4-.1-2.4-1.2-4.8-2.5-7.1-4-.5-.3-.6-.9-.3-1.4.3-.5.9-.6 1.4-.3 2.2 1.4 4.6 2.7 7 3.9.5.2.7.8.5 1.3-.3.4-.7.6-1.1.6zm70 0c-.4 0-.7-.2-.9-.6-.2-.5 0-1.1.5-1.3 2.4-1.2 4.7-2.5 6.9-3.9.5-.3 1.1-.1 1.4.3.3.5.2 1.1-.3 1.4-2.3 1.4-4.7 2.8-7.1 4-.2 0-.3.1-.5.1zm-83.6-8.5c-.2 0-.4-.1-.6-.2-2.1-1.7-4.2-3.4-6.2-5.3-.4-.4-.4-1 0-1.4.4-.4 1-.4 1.4 0 1.9 1.8 3.9 3.6 6 5.2.4.3.5 1 .2 1.4-.2.2-.5.3-.8.3zm97.3 0c-.3 0-.6-.1-.8-.4-.3-.4-.3-1.1.2-1.4 2.1-1.6 4.1-3.4 6-5.2.4-.4 1-.4 1.4 0s.4 1 0 1.4c-2 1.9-4 3.7-6.2 5.3-.2.2-.4.3-.6.3zm-109-11.1c-.3 0-.6-.1-.8-.3-1.8-2.1-3.4-4.2-5-6.4-.3-.5-.2-1.1.2-1.4.5-.3 1.1-.2 1.4.2 1.5 2.2 3.2 4.3 4.9 6.3.4.4.3 1-.1 1.4-.1.2-.3.2-.6.2zm120.6 0c-.2 0-.5-.1-.7-.2-.4-.4-.5-1-.1-1.4 1.7-2 3.4-4.1 4.9-6.3.3-.5.9-.6 1.4-.2.5.3.6.9.2 1.4-1.5 2.2-3.2 4.4-5 6.4-.1.2-.4.3-.7.3zm-129.8-13.2c-.4 0-.7-.2-.9-.5-1.3-2.4-2.5-4.8-3.6-7.3-.2-.5 0-1.1.5-1.3.5-.2 1.1 0 1.3.5 1 2.4 2.2 4.8 3.5 7.1.3.5.1 1.1-.4 1.4-.1.1-.2.1-.4.1zm139 0c-.2 0-.3 0-.5-.1-.5-.3-.7-.9-.4-1.4 1.3-2.3 2.5-4.7 3.5-7.1.2-.5.8-.7 1.3-.5.5.2.7.8.5 1.3-1.1 2.5-2.3 5-3.6 7.3-.1.3-.4.5-.8.5zm-145.4-14.7c-.4 0-.8-.3-1-.7-.8-2.6-1.5-5.2-2-7.9-.1-.5.2-1.1.8-1.2.5-.1 1.1.2 1.2.8.5 2.6 1.2 5.2 2 7.7.2.5-.1 1.1-.7 1.3h-.3zm151.8-.1h-.3c-.5-.2-.8-.7-.7-1.3.8-2.5 1.5-5.1 2-7.7.1-.5.6-.9 1.2-.8.5.1.9.6.8 1.2-.5 2.7-1.2 5.3-2 7.9-.2.4-.6.7-1 .7zm-155-15.7c-.5 0-.9-.4-1-.9-.3-2.7-.4-5.4-.4-8.1 0-.6.4-1 1-1s1 .4 1 1c0 2.7.1 5.3.4 7.9.1.5-.3 1-.9 1.1h-.1zm158.2-.1h-.1c-.5-.1-1-.5-.9-1.1.3-2.6.4-5.3.4-7.9v-.2c0-.6.4-1 1-1s1 .4 1 1v.2c0 2.7-.1 5.5-.4 8.1-.1.6-.5.9-1 .9zm-158.2-16s-.1 0 0 0c-.6-.1-1.1-.5-1-1.1.3-2.7.7-5.4 1.2-8.1.1-.5.6-.9 1.2-.8.5.1.9.6.8 1.2-.5 2.6-.9 5.2-1.2 7.9-.1.6-.5.9-1 .9zm158.2-.2c-.5 0-.9-.4-1-.9-.3-2.6-.7-5.3-1.2-7.9-.1-.5.2-1.1.8-1.2.5-.1 1.1.2 1.2.8.5 2.6 1 5.4 1.2 8.1.1.5-.3 1-.9 1.1h-.1zm-155-15.5h-.3c-.5-.2-.8-.7-.7-1.3.8-2.6 1.8-5.2 2.8-7.7.2-.5.8-.7 1.3-.5.5.2.7.8.5 1.3-1 2.4-2 4.9-2.8 7.5 0 .4-.4.7-.8.7zm151.7-.3c-.4 0-.8-.3-1-.7-.8-2.5-1.7-5-2.8-7.4-.2-.5 0-1.1.5-1.3.5-.2 1.1 0 1.3.5 1.1 2.5 2 5.1 2.8 7.6.2.5-.1 1.1-.7 1.3h-.1zm-145.4-14.5c-.2 0-.3 0-.5-.1-.5-.3-.7-.9-.4-1.4 1.3-2.4 2.8-4.7 4.3-6.9.3-.5.9-.6 1.4-.3.5.3.6.9.3 1.4-1.5 2.2-2.9 4.4-4.2 6.7-.2.4-.5.6-.9.6zm139-.2c-.4 0-.7-.2-.9-.5-1.3-2.3-2.7-4.6-4.2-6.7-.3-.5-.2-1.1.2-1.4.5-.3 1.1-.2 1.4.2 1.6 2.2 3 4.5 4.3 6.9.3.5.1 1.1-.4 1.4 0 0-.2.1-.4.1zm-129.8-13c-.2 0-.5-.1-.7-.2-.4-.4-.5-1-.1-1.4 1.8-2.1 3.6-4 5.6-5.9.4-.4 1-.4 1.4 0 .4.4.4 1 0 1.4-1.9 1.8-3.8 3.8-5.5 5.8-.1.2-.4.3-.7.3zm120.6-.2c-.3 0-.6-.1-.8-.3-1.7-2-3.6-3.9-5.5-5.8-.4-.4-.4-1 0-1.4.4-.4 1-.4 1.4 0 2 1.9 3.9 3.8 5.6 5.9.4.4.3 1-.1 1.4-.1.1-.3.2-.6.2zm-109-10.9c-.3 0-.6-.1-.8-.4-.3-.4-.3-1.1.2-1.4 2.1-1.7 4.4-3.2 6.7-4.7.5-.3 1.1-.2 1.4.3.3.5.2 1.1-.3 1.4-2.2 1.4-4.4 2.9-6.5 4.6-.2.1-.4.2-.7.2zm97.3-.2c-.2 0-.4-.1-.6-.2-2.1-1.6-4.3-3.1-6.5-4.5-.5-.3-.6-.9-.3-1.4.3-.5.9-.6 1.4-.3 2.3 1.4 4.6 3 6.7 4.7.4.3.5 1 .2 1.4-.3.2-.6.3-.9.3zm-83.6-8.3c-.4 0-.7-.2-.9-.6-.2-.5 0-1.1.5-1.3 2.4-1.2 4.9-2.3 7.5-3.2.5-.2 1.1.1 1.3.6.2.5-.1 1.1-.6 1.3-2.5.9-4.9 2-7.3 3.2-.2-.1-.4 0-.5 0zm70-.2c-.1 0-.3 0-.4-.1-2.4-1.2-4.8-2.2-7.3-3.1-.5-.2-.8-.8-.6-1.3.2-.5.8-.8 1.3-.6 2.5.9 5.1 2 7.5 3.2.5.2.7.8.5 1.3-.3.4-.6.6-1 .6zm-55-5.4c-.4 0-.8-.3-1-.7-.1-.5.2-1.1.7-1.2 2.6-.7 5.3-1.2 8-1.6.6-.1 1.1.3 1.1.8s-.3 1.1-.8 1.1c-2.6.4-5.2.9-7.8 1.6 0-.1-.1 0-.2 0zm39.9-.1h-.2c-2.6-.7-5.2-1.2-7.8-1.6-.5-.1-.9-.6-.8-1.1.1-.5.6-.9 1.1-.8 2.7.4 5.4.9 8 1.6.5.1.9.7.7 1.2-.2.4-.6.7-1 .7zm-24-2.4c-.5 0-1-.4-1-.9 0-.6.4-1 .9-1 1.4-.1 2.8-.1 4.2-.1 1.3 0 2.6 0 3.9.1.6 0 1 .5 1 1 0 .6-.5 1-1 1-1.3-.1-2.5-.1-3.9-.1-1.3-.1-2.7-.1-4.1 0 .1 0 .1 0 0 0z"/></g><path class="st11" d="M271.5 363h-29c-4.1 0-7.5-3.4-7.5-7.5s3.4-7.5 7.5-7.5h29c4.1 0 7.5 3.4 7.5 7.5s-3.4 7.5-7.5 7.5zM305.5 389h-29c-4.1 0-7.5-3.4-7.5-7.5s3.4-7.5 7.5-7.5h29c4.1 0 7.5 3.4 7.5 7.5s-3.4 7.5-7.5 7.5zM439.5 363h-140c-4.1 0-7.5-3.4-7.5-7.5s3.4-7.5 7.5-7.5h140c4.1 0 7.5 3.4 7.5 7.5s-3.4 7.5-7.5 7.5zM439.5 388h-106c-4.1 0-7.5-3.4-7.5-7.5s3.4-7.5 7.5-7.5h106c4.1 0 7.5 3.4 7.5 7.5s-3.4 7.5-7.5 7.5z"/><g><path d="M226.2 468c-.7 0-1.3-.5-1.5-1.1 0-.1-.5-1.9-1-5-.1-.8.4-1.6 1.2-1.7.8-.1 1.6.4 1.7 1.2.5 3 .9 4.8 1 4.8.2.8-.3 1.6-1.1 1.8h-.3zm369.7-11h-.8c-.8 0-1.5-.7-1.5-1.5s.7-1.5 1.5-1.5h.9c1.3 0 2.7 0 4-.1.8 0 1.5.6 1.6 1.4s-.6 1.5-1.4 1.6c-1.5.1-2.9.1-4.3.1zm-8.8-.4h-.1c-1.6-.2-3.3-.3-5-.6-.8-.1-1.4-.9-1.3-1.7.1-.8.9-1.4 1.7-1.3 1.6.2 3.3.4 4.9.6.8.1 1.4.8 1.4 1.6-.2.8-.9 1.4-1.6 1.4zm21-.3c-.7 0-1.4-.6-1.5-1.3-.1-.8.5-1.6 1.3-1.7 1.6-.2 3.2-.5 4.9-.7.8-.1 1.6.4 1.7 1.2.1.8-.4 1.6-1.2 1.7-1.7.3-3.4.6-5 .8h-.2zm-384-1.2c-.8 0-1.4-.6-1.5-1.3-.2-1.7-.4-3.3-.5-5-.1-.8.5-1.5 1.4-1.6.8-.1 1.5.5 1.6 1.4.1 1.6.3 3.3.5 4.9.1.8-.5 1.6-1.3 1.7-.1-.1-.1-.1-.2-.1zm350.1-.5h-.3c-1.6-.4-3.3-.8-4.9-1.2-.8-.2-1.3-1-1.1-1.8.2-.8 1-1.3 1.8-1.1l4.8 1.2c.8.2 1.3 1 1.1 1.8-.1.7-.7 1.1-1.4 1.1zm46.7-.7c-.7 0-1.3-.5-1.5-1.2-.2-.8.3-1.6 1.1-1.8 1.6-.4 3.2-.7 4.8-1.1.8-.2 1.6.3 1.8 1.1.2.8-.3 1.6-1.1 1.8-1.6.4-3.2.8-4.9 1.2h-.2zm-59.3-2.7c-.2 0-.3 0-.5-.1-1.6-.5-3.2-1.1-4.8-1.7-.8-.3-1.2-1.2-.9-1.9.3-.8 1.2-1.2 1.9-.9 1.6.6 3.1 1.1 4.7 1.6.8.3 1.2 1.1 1 1.9-.2.7-.8 1.1-1.4 1.1zm72-.5c-.6 0-1.2-.4-1.4-1.1-.2-.8.2-1.6 1-1.9 1.6-.5 3.2-1 4.7-1.4.8-.3 1.6.2 1.9 1 .3.8-.2 1.6-1 1.9l-4.8 1.5h-.4zm12.4-4.1c-.6 0-1.2-.4-1.4-1-.3-.8.1-1.6.9-1.9 1.6-.6 3.1-1.2 4.6-1.8.8-.3 1.6 0 2 .8.3.8 0 1.6-.8 2-1.5.6-3.1 1.3-4.7 1.9-.3-.1-.5 0-.6 0zm-96.6-.1c-.2 0-.4 0-.6-.1-1.5-.7-3.1-1.3-4.6-2-.8-.3-1.1-1.2-.7-2 .3-.8 1.2-1.1 2-.7 1.5.7 3 1.4 4.5 2 .8.3 1.1 1.2.8 2-.2.5-.8.8-1.4.8zm-326.2-4.4c-.8 0-1.5-.6-1.5-1.5 0-1.3-.1-2.6-.1-4v-1.1c0-.8.7-1.5 1.5-1.5s1.5.7 1.5 1.5v1c0 1.3 0 2.6.1 3.9 0 1-.6 1.7-1.5 1.7zm434.8-.6c-.6 0-1.1-.3-1.4-.8-.4-.7 0-1.6.7-2 1.5-.7 3-1.5 4.4-2.2.7-.4 1.6-.1 2 .6.4.7.1 1.6-.6 2-1.5.8-3 1.6-4.5 2.3-.2 0-.4.1-.6.1zm-120.4-.5c-.2 0-.5-.1-.7-.2-1.5-.8-3-1.5-4.5-2.3-.7-.4-1-1.3-.6-2s1.3-1 2-.6c1.5.8 2.9 1.5 4.4 2.3.7.4 1 1.3.7 2-.2.5-.7.8-1.3.8zm131.8-5.8c-.5 0-1-.2-1.3-.7-.4-.7-.2-1.6.5-2.1 1.4-.9 2.8-1.8 4.1-2.7.7-.5 1.6-.3 2.1.4s.3 1.6-.4 2.1c-1.4 1-2.8 1.9-4.2 2.8-.3.1-.5.2-.8.2zm-143.3-.4c-.3 0-.5-.1-.7-.2-1.4-.8-2.9-1.7-4.3-2.5-.7-.4-1-1.3-.5-2.1.4-.7 1.3-.9 2.1-.5 1.4.8 2.9 1.7 4.3 2.5.7.4 1 1.3.6 2-.4.5-1 .8-1.5.8zM223.5 429h-.1c-.8-.1-1.5-.8-1.4-1.6.1-1.7.3-3.4.4-5 .1-.8.8-1.4 1.6-1.3.8.1 1.4.8 1.3 1.6-.2 1.6-.3 3.3-.4 4.9 0 .8-.7 1.4-1.4 1.4zm291.4-.9c-.3 0-.5-.1-.8-.2-1.4-.9-2.8-1.7-4.3-2.6-.7-.4-.9-1.4-.5-2.1.4-.7 1.4-.9 2.1-.5 1.4.9 2.8 1.8 4.2 2.6.7.4.9 1.4.5 2.1-.2.5-.7.7-1.2.7zm165.1-.6c-.4 0-.9-.2-1.2-.5-.5-.6-.4-1.6.2-2.1 1.3-1 2.5-2.1 3.7-3.2.6-.6 1.6-.5 2.1.1.6.6.5 1.6-.1 2.1-1.2 1.1-2.5 2.3-3.8 3.3-.3.2-.6.3-.9.3zm-176.2-6.3c-.3 0-.6-.1-.8-.2l-4.2-2.7c-.7-.5-.9-1.4-.4-2.1.4-.7 1.4-.9 2.1-.4l4.2 2.7c.7.4.9 1.4.5 2.1-.4.4-.9.6-1.4.6zm185.5-2.7c-.4 0-.7-.1-1-.4-.6-.6-.7-1.5-.1-2.1 1.1-1.2 2.1-2.5 3.1-3.8.5-.7 1.5-.8 2.1-.3.7.5.8 1.5.3 2.1-1 1.3-2.1 2.6-3.3 3.9-.2.4-.7.6-1.1.6zM225 416.1h-.3c-.8-.1-1.4-.9-1.2-1.7.3-1.7.6-3.3 1-5 .2-.8 1-1.3 1.8-1.1.8.2 1.3 1 1.1 1.8-.4 1.6-.7 3.2-1 4.8 0 .6-.7 1.2-1.4 1.2zm267.9-2c-.3 0-.6-.1-.8-.2l-4.2-2.7c-.7-.5-.9-1.4-.4-2.1.5-.7 1.4-.9 2.1-.4l4.2 2.7c.7.5.9 1.4.4 2.1-.4.4-.8.6-1.3.6zm204.3-6c-.3 0-.6-.1-.8-.2-.7-.4-.9-1.4-.5-2.1.9-1.4 1.7-2.8 2.5-4.2.4-.7 1.3-1 2-.6s1 1.3.6 2c-.8 1.5-1.7 3-2.6 4.4-.2.4-.7.7-1.2.7zm-215.3-1.2c-.3 0-.6-.1-.8-.2l-4.2-2.7c-.7-.5-.9-1.4-.4-2.1.5-.7 1.4-.9 2.1-.4l4.2 2.7c.7.5.9 1.4.4 2.1-.3.4-.8.6-1.3.6zm-253.8-3.5c-.1 0-.3 0-.4-.1-.8-.2-1.2-1.1-1-1.9.5-1.6 1.1-3.2 1.6-4.8.3-.8 1.2-1.2 1.9-.9.8.3 1.2 1.2.9 1.9-.6 1.5-1.1 3.1-1.6 4.7-.2.7-.8 1.1-1.4 1.1zm242.9-3.5c-.3 0-.6-.1-.8-.2L466 397c-.7-.4-.9-1.4-.5-2.1.4-.7 1.4-.9 2.1-.5l4.2 2.7c.7.4.9 1.4.5 2.1-.4.4-.8.7-1.3.7zm232.2-3.4c-.2 0-.4 0-.6-.1-.8-.3-1.1-1.2-.8-2 .6-1.5 1.2-3 1.8-4.6.3-.8 1.1-1.2 1.9-.9.8.3 1.2 1.1.9 1.9-.6 1.6-1.2 3.2-1.8 4.7-.2.7-.8 1-1.4 1zm-243.3-3.6c-.3 0-.5-.1-.8-.2-1.4-.9-2.8-1.7-4.3-2.6-.7-.4-.9-1.4-.5-2.1.4-.7 1.4-.9 2.1-.5 1.4.9 2.9 1.7 4.3 2.6.7.4.9 1.4.5 2.1-.3.4-.8.7-1.3.7zm-227.1-1.7c-.2 0-.4 0-.7-.2-.7-.4-1.1-1.3-.7-2 .7-1.5 1.5-3 2.4-4.5.4-.7 1.3-1 2-.6s1 1.3.6 2c-.8 1.4-1.6 2.9-2.3 4.3-.2.7-.7 1-1.3 1zm215.9-5c-.3 0-.5-.1-.8-.2-1.4-.8-2.9-1.7-4.3-2.5-.7-.4-1-1.3-.6-2s1.3-1 2-.6c1.5.8 2.9 1.7 4.3 2.5.7.4 1 1.3.5 2.1-.1.4-.6.7-1.1.7zm258.7-2h-.4c-.8-.2-1.3-1-1.1-1.8.4-1.6.8-3.2 1.1-4.8.2-.8 1-1.3 1.8-1.2.8.2 1.3.9 1.2 1.8-.3 1.7-.7 3.3-1.1 5-.3.5-.9 1-1.5 1zM239.5 380c-.3 0-.6-.1-.9-.3-.7-.5-.8-1.4-.3-2.1 1-1.4 2-2.7 3.1-4 .5-.6 1.5-.7 2.1-.2.6.5.7 1.5.2 2.1-1 1.2-2 2.5-3 3.9-.3.4-.7.6-1.2.6zm197.9-.3c-.2 0-.5-.1-.7-.2-1.5-.8-2.9-1.6-4.4-2.4-.7-.4-1-1.3-.6-2s1.3-1 2-.6c1.5.8 3 1.6 4.4 2.4.7.4 1 1.3.6 2-.3.5-.8.8-1.3.8zm-11.6-6c-.2 0-.5-.1-.7-.2-1.5-.7-3-1.5-4.5-2.2-.7-.4-1.1-1.3-.7-2 .4-.7 1.3-1.1 2-.7 1.5.7 3 1.5 4.5 2.2.7.4 1 1.3.7 2-.2.6-.7.9-1.3.9zm283.9-2.4h-.2c-.8-.1-1.4-.8-1.3-1.7.2-1.6.3-3.3.5-4.9.1-.8.8-1.5 1.6-1.4.8.1 1.4.8 1.4 1.6-.1 1.7-.3 3.4-.5 5-.1.9-.7 1.4-1.5 1.4zm-461.6-1.1c-.4 0-.8-.2-1.1-.5-.6-.6-.5-1.5.1-2.1 1.2-1.2 2.5-2.3 3.8-3.4.6-.5 1.6-.4 2.1.2.5.6.4 1.6-.2 2.1-1.3 1-2.5 2.1-3.7 3.2-.3.4-.6.5-1 .5zm165.9-2.1c-.2 0-.4 0-.6-.1-1.5-.7-3-1.3-4.6-2-.8-.3-1.1-1.2-.8-2 .3-.8 1.2-1.1 2-.8 1.5.7 3.1 1.3 4.6 2 .8.3 1.1 1.2.8 2-.3.6-.8.9-1.4.9zm-12-5.1c-.2 0-.4 0-.5-.1-1.5-.6-3.1-1.2-4.6-1.8-.8-.3-1.2-1.2-.9-1.9.3-.8 1.2-1.2 1.9-.9 1.6.6 3.1 1.2 4.7 1.8.8.3 1.2 1.2.8 1.9-.3.7-.8 1-1.4 1zm-143.7-.8c-.5 0-1-.2-1.3-.7-.5-.7-.3-1.6.4-2.1 1.4-.9 2.9-1.8 4.4-2.6.7-.4 1.6-.2 2 .6.4.7.2 1.6-.6 2-1.4.8-2.8 1.7-4.2 2.5-.1.2-.4.3-.7.3zm131.4-3.6c-.2 0-.3 0-.5-.1-1.6-.5-3.1-1-4.7-1.5-.8-.2-1.2-1.1-1-1.9s1.1-1.2 1.9-1l4.8 1.5c.8.3 1.2 1.1.9 1.9-.2.7-.8 1.1-1.4 1.1zm320.8-.3c-.8 0-1.5-.7-1.5-1.5v-.5c0-1.4 0-2.9-.1-4.4 0-.8.6-1.5 1.5-1.5.8-.1 1.5.6 1.5 1.4 0 1.5.1 3 .1 4.5v.6c0 .7-.7 1.4-1.5 1.4zM269.8 356c-.6 0-1.1-.3-1.4-.9-.3-.8 0-1.6.8-2 1.5-.7 3.1-1.3 4.7-1.9.8-.3 1.6.1 1.9.9.3.8-.1 1.6-.9 1.9-1.5.6-3.1 1.2-4.5 1.9-.2 0-.4.1-.6.1zm107.4-1.2c-.1 0-.3 0-.4-.1-1.6-.4-3.2-.9-4.8-1.3-.8-.2-1.3-1-1.1-1.8s1-1.3 1.8-1.1c1.6.4 3.3.8 4.9 1.3.8.2 1.3 1 1 1.8-.1.7-.7 1.2-1.4 1.2zm-12.6-3.1h-.3c-1.6-.3-3.2-.7-4.9-1-.8-.2-1.3-.9-1.2-1.8.2-.8.9-1.4 1.8-1.2 1.7.3 3.3.6 4.9 1 .8.2 1.3 1 1.2 1.8-.2.7-.9 1.2-1.5 1.2zm-82.6-.1c-.7 0-1.3-.4-1.4-1.1-.2-.8.2-1.6 1-1.9 1.6-.5 3.2-.9 4.9-1.3.8-.2 1.6.3 1.8 1.1.2.8-.3 1.6-1.1 1.8l-4.8 1.2c-.1.2-.2.2-.4.2zm69.7-2.3h-.2c-1.6-.2-3.3-.5-4.9-.7-.8-.1-1.4-.9-1.3-1.7.1-.8.9-1.4 1.7-1.3 1.7.2 3.3.4 5 .7.8.1 1.4.9 1.3 1.7-.2.8-.9 1.3-1.6 1.3zm-57-.5c-.7 0-1.4-.5-1.5-1.3-.1-.8.4-1.6 1.2-1.7 1.6-.3 3.3-.5 5-.7.8-.1 1.6.5 1.7 1.3.1.8-.5 1.6-1.3 1.7-1.6.2-3.3.4-4.9.7h-.2zm44.1-1h-.1c-1.6-.1-3.3-.3-4.9-.4-.8-.1-1.5-.8-1.4-1.6.1-.8.8-1.5 1.6-1.4 1.7.1 3.4.2 5 .4.8.1 1.4.8 1.4 1.6-.2.8-.9 1.4-1.6 1.4zm-31.1-.5c-.8 0-1.4-.6-1.5-1.4-.1-.8.6-1.5 1.4-1.6 1.7-.1 3.4-.2 5-.3.8 0 1.5.6 1.6 1.4 0 .8-.6 1.5-1.4 1.6-1.6.1-3.3.2-4.9.3h-.2zm18-.3c-1.7-.1-3.4-.1-5-.1-.8 0-1.5-.7-1.5-1.5s.7-1.5 1.5-1.5c1.7 0 3.3 0 5 .1.8 0 1.5.7 1.5 1.5s-.6 1.5-1.5 1.5zm384.2-1.7c-.8 0-1.4-.6-1.5-1.4-.1-1.6-.3-3.3-.5-4.9-.1-.8.5-1.6 1.3-1.7.8-.1 1.6.5 1.7 1.3.2 1.7.4 3.4.5 5 .1.8-.5 1.6-1.4 1.6 0 .1-.1.1-.1.1zm-1.6-13c-.7 0-1.4-.5-1.5-1.3l-.1-.3c-.1-.8.4-1.6 1.2-1.7.8-.1 1.6.4 1.7 1.2l.1.3c.1.8-.4 1.6-1.2 1.7-.1.1-.2.1-.2.1z" style="fill:#6d6e71"/></g><g><path class="st2" d="M667.9 618.5s-69.8-115.3 26.2-245.4c-.1 0 106.7 170.9-26.2 245.4z"/><path class="st3" d="M673 606.5c-.1 0-.3 0-.4-.1-.5-.2-.7-.8-.5-1.3 30.6-70.5 21-213.5 20.9-214.9 0-.6.4-1 .9-1.1.5 0 1 .4 1.1.9.1 1.4 9.7 145-21.1 215.9-.1.4-.5.6-.9.6z"/></g><g><path class="st11" d="M442.4 626.8s-104.5 17.6-171.8-90.2c0 0 155.9-28.6 171.8 90.2z"/><path class="st3" d="M435.2 619.5c0 .1-.1.2-.2.3-.3.3-.8.3-1.1 0-42.6-42.8-150-77.2-151-77.6-.4-.1-.6-.6-.5-1 .1-.4.6-.6 1-.5 1.1.3 108.8 34.9 151.7 77.9.1.3.2.6.1.9z"/></g><g><path class="st8" d="M734.6 604.5s.6-1.5 1.8-4.1c7.4-15.5 38.6-70.3 115.1-87.9C941 492 949 483 949 483s-27.8 134-214.4 121.5z"/><path class="st3" d="M742.4 602.4c-.2 0-.5-.1-.6-.2-.4-.4-.5-1-.1-1.4.4-.5 41-48.2 118.3-69.4 57.9-15.9 69.1-26.3 71.2-30.1.6-1.1.5-1.7.5-1.7-.2-.5 0-1.1.5-1.3.5-.2 1.1 0 1.3.5.1.2.5 1.2-.3 2.9-2.3 5-14.8 15.7-72.7 31.6-76.6 21-116.9 68.3-117.3 68.7-.3.3-.5.4-.8.4z"/></g><g><path class="st18" d="m779.5 362.5 1 8h6.1v-8zM819.5 358.5l2.5 8 5.5-2-2-7z"/><path class="st19" d="M779.5 367.9s-11 3.2-13 6.4c0 0-1 1.2 0 3.2h22s1-6-1-8c0 0-6 1.7-8-1.6zM821.1 363.6s-1.7 1.2-1.1 5.1 6.3 8.9 6.3 8.9 7.3 2 7.3-3c0 0-1.4-7.9-4.2-10.9l-1.8-1.6c-.1-.1-2.9 5.5-6.5 1.5z"/><path class="st5" d="M766.5 277.5s8 34 9 43 3 44 3 44h9.1V295l30.9 65.5 9-2-33.5-89.1-27.5 8.1z"/><ellipse transform="rotate(-80.078 756.552 193)" class="st18" cx="756.5" cy="193" rx="11" ry="7.5"/><ellipse transform="rotate(-48.953 763.472 194.993)" class="st18" cx="763.5" cy="195" rx="3" ry="2"/><path class="st19" d="M750.7 185.2s-4.8-4.1 0-8.9c0 0 2.8-1.6 5.8 2.3 0 0 8-.1 10 2.9s2 6 2 6 4-3 4 2-3 6-3 6 1.2 5-2 5h-3l-1-3.1s2.9-4.4 2-4.7c-1-.3-2-1-2-1s-2-4.3-6-4.3-6.8-2.2-6.8-2.2z"/><path class="st18" d="m755.5 202.5 4 18s15-1 10-12l-7.4-10.9-6.6 4.9z"/><path d="M757 211.7s-6.3 3.8-8.4 6.3c-2.1 2.5-3.1 5.5-3.1 9.5s-7 18-7 18l2 12s9.1-3 12.1-10l1.9-5s10.2 29 10.6 37l29.6-7.9s-3.2-9.1-4.2-13.1 0-29 0-29 5 8 6 13l1 5h10.6s.4-15.2-4.1-23.6c-3.1-5.9-9-12.1-12.2-15.2-1.4-1.4-3.3-2.1-5.3-2l-17.6.9s-.3 10-9.3 7l-2.6-2.9z" style="fill:#ff4751"/><path class="st18" d="M739.6 245.9s-5.1 2.6-9.6 4.1c-4.5 1.5-7.2 2-7.2 2s.4-.2 2.1 3.1 8.3 3.8 8.3 3.8l9.2-2.2-2.8-10.8z"/><path class="st5" d="M756.5 383.5h4v237h-4zM809.5 383.5h4v237h-4z"/><path class="st16" d="m779.5 383.5 100.1 240h5.2L783.1 382.2zM836.4 383.5l100.6 237h5.2l-101.5-237z"/><path class="st21" d="M664 273.8c-30.6 0-55.5-24.9-55.5-55.5s24.9-55.5 55.5-55.5 55.5 24.9 55.5 55.5-24.9 55.5-55.5 55.5zm0-105c-27.3 0-49.5 22.2-49.5 49.5s22.2 49.5 49.5 49.5 49.5-22.2 49.5-49.5-22.2-49.5-49.5-49.5z"/><path class="st21" d="M708.2 247.8 812 295.3s16.4-1 7.2-14.5L711 241.3l-2.8 6.5z"/><path class="st21" d="M812.2 280.8c-.1 0-.2 0-.4-.1l-16.5-6.5c-.5-.2-.8-.8-.6-1.3.2-.5.8-.8 1.3-.6l16.5 6.5c.5.2.8.8.6 1.3-.1.5-.5.7-.9.7zM813.2 293.7c-.4 0-.8-.3-1-.7-.2-.5.1-1.1.7-1.3 0 0 4.2-1.3 4.9-4.2.4-1.7-.4-3.7-2.6-6-.4-.4-.4-1 0-1.4.4-.4 1-.4 1.4 0 2.7 2.8 3.7 5.5 3 7.9-1 3.9-6 5.5-6.2 5.6 0 0-.1.1-.2.1z"/><path class="st18" d="M715 250.6s-2.3-8.1 6.1-3.1c0 0 2.5 3.1 1.5 6.5l-7.6-3.4zM797.5 247.5l-2 21s-12-3-13 2 9.8 1.5 9.8 1.5l5.5.7s1.8-.2 2.8-4.7l5.9-12.5s1.8-1.6 1.1-6.4c0-.2.1-1.6-.1-1.6-3.5-1.5-10 0-10 0z"/><path d="M714.7 229.6h-.1c-.3-.1-.4-.3-.4-.6 4.8-19.7-.5-36.1-15.8-48.7-11.4-9.4-24.4-13.1-24.5-13.1-.3-.1-.4-.3-.3-.6.1-.3.4-.4.6-.3.1 0 13.3 3.7 24.9 13.3 10.7 8.8 22.2 24.6 16.1 49.7-.1.1-.3.3-.5.3z" style="fill:#f0fbff"/><path style="fill:#58595b" d="M751.5 377.5h100v6h-100z"/><path class="st16" d="M792.3 409.3c-.8 0-1.5-.7-1.5-1.5s.6-1.5 1.5-1.5l54.1-.8c.8 0 1.5.6 1.5 1.5 0 .8-.6 1.5-1.5 1.5l-54.1.8zM805.2 436.3c-.8 0-1.5-.6-1.5-1.4 0-.8.6-1.5 1.4-1.6l52.2-1.8c.8 0 1.5.6 1.6 1.4 0 .8-.6 1.5-1.4 1.6l-52.3 1.8c.1 0 0 0 0 0zM815.2 458.3c-.8 0-1.5-.6-1.5-1.4 0-.8.6-1.5 1.4-1.6l52.2-1.8c.8 0 1.5.6 1.6 1.4 0 .8-.6 1.5-1.4 1.6l-52.3 1.8c.1 0 0 0 0 0zM822.2 480.3c-.8 0-1.5-.6-1.5-1.4 0-.8.6-1.5 1.4-1.6l52.2-1.8c.8 0 1.5.6 1.6 1.4 0 .8-.6 1.5-1.4 1.6l-52.3 1.8c.1 0 0 0 0 0zM833.2 502.3c-.8 0-1.5-.6-1.5-1.4 0-.8.6-1.5 1.4-1.6l52.2-1.8c.8 0 1.5.6 1.6 1.4 0 .8-.6 1.5-1.4 1.6l-52.3 1.8c.1 0 0 0 0 0zM843.2 524.3c-.8 0-1.5-.6-1.5-1.4 0-.8.6-1.5 1.4-1.6l52.2-1.8c.8 0 1.5.6 1.6 1.4 0 .8-.6 1.5-1.4 1.6l-52.3 1.8c.1 0 0 0 0 0zM851.2 546.3c-.8 0-1.5-.6-1.5-1.4 0-.8.6-1.5 1.4-1.6l52.2-1.8c.8 0 1.5.6 1.6 1.4 0 .8-.6 1.5-1.4 1.6l-52.3 1.8c.1 0 0 0 0 0z"/><g><path class="st16" d="M861.2 568.3c-.8 0-1.5-.6-1.5-1.4 0-.8.6-1.5 1.4-1.6l52.2-1.8c.8 0 1.5.6 1.6 1.4 0 .8-.6 1.5-1.4 1.6l-52.3 1.8c.1 0 0 0 0 0z"/></g><g><path class="st16" d="M871.2 590.3c-.8 0-1.5-.6-1.5-1.4 0-.8.6-1.5 1.4-1.6l52.2-1.8c.8 0 1.5.6 1.6 1.4 0 .8-.6 1.5-1.4 1.6l-52.3 1.8c.1 0 0 0 0 0z"/></g><g><path class="st16" d="M879.2 612.3c-.8 0-1.5-.6-1.5-1.4 0-.8.6-1.5 1.4-1.6l52.2-1.8c.8 0 1.5.6 1.6 1.4 0 .8-.6 1.5-1.4 1.6l-52.3 1.8c.1 0 0 0 0 0z"/></g></g><g><path class="st5" d="M448.6 624.8S317 578.4 308.3 411.3c0 0 197.6 66.6 140.3 213.5z"/><path class="st3" d="M444.9 611.8c-.1.1-.2.2-.4.2-.5.2-1.1-.2-1.3-.7-21.8-76.5-123.5-184.6-124.5-185.7-.4-.4-.4-1.1 0-1.5.4-.4 1.1-.4 1.5 0 1 1.1 103 109.6 125 186.5.1.5 0 1-.3 1.2z"/></g><g><path class="st24" d="m144.5 600.5-2 8s8 6 12-2l1-5-11-1z"/><path class="st21" d="M142.5 605.6s-7 6.9-2 12.9h46.3s-.3-6-7.3-10-14-4-14-4l-12.2 1.1s-4.8 4.1-10.8 0z"/><path class="st24" d="m204.1 602.5 7.4 12 8-8-7-9z"/><path class="st21" d="M209.5 613.5s0 10 7 10l34.5-26.8c.9-.7 1-2 .2-2.9-1.9-2.1-6.2-5.1-13.8-2.3-11 4-18.8 14-18.8 14s-7.1 8-9.1 8z"/><path class="st25" d="m42.5 531.5-10 89.2s3.3 6.2 6.6 0l14.7-89.2H42.5zM96 531.5l14.5 90s3.7 5 5.4 0c0 0-5.4-81-7.9-90H96z"/><path class="st4" d="M107 533.5H43c-5.8 0-10.5-4.7-10.5-10.5s4.7-10.5 10.5-10.5h64c5.8 0 10.5 4.7 10.5 10.5s-4.7 10.5-10.5 10.5z"/><ellipse transform="rotate(-82.501 149.984 368.443)" class="st24" cx="150" cy="368.4" rx="20" ry="13.5"/><path class="st24" d="m131.2 364.4-24.7 21.1 17 12s13-18 17-19c0 0 .3-10.2-9.3-14.1z"/><path class="st19" d="M161.7 356.6s10.8-3.1 6.8-12.1c0 0-2-9-14-6 0 0-2 6-9 5 0 0-2-5-6-4s-6.4 3.5-6.2 7.7c.2 4.3-3.8 5.3-3.8 5.3s-4.3 2.9-.6 8.4l6.6 6.1s5.1-.5 7.1-9.5 19.1-.9 19.1-.9z"/><path class="st21" d="M42.5 489.5s-2.5 8.1-1.2 16.5c.9 6.4 8.1 10.9 11.5 12.6 1 .5 2.2.8 3.4.9l85.4 3.9s5 8 6 12 56 70 56 70l12-8-43-72s-6-16-18-20-71-17-71-17l-41.1 1.1z"/><path class="st21" d="M78.5 489.5s-.1-2 40.4 2 45.6 7 45.6 7 10 .7 9 13.4c-1 12.6-16 90.6-16 90.6l-14-1 5-61s3-20-1-25-70-8-70-8l1-18z"/><path class="st26" d="m198.5 481.5-35.7 137.4s2.7 7.6 8.7 2.6l35.9-140h-8.9zM217.7 481.5l36.8 135s2 6-5.9 6.4c-1.8.1-3.2-1.6-3.6-3.4l-35.5-138h8.2z"/><path class="st24" d="M181 462.5s17-6.5 22-4.5 12 8 12.5 8.5-35.7 0-35.7 0l1.2-4z"/><ellipse transform="rotate(-13.362 133.996 364.469)" class="st24" cx="134" cy="364.4" rx="3.5" ry="5.3"/><path class="st8" d="m109.3 381 18.1 12s10.1 13.3 13.1 24.5 12 25.1 20 31.1 22 14 22 14v8.1s-20 .9-40-16.1l-16-14s-2-3-6 2-33 43-34 46l-2 3H41.3s2.7-30.5 17-55.3c14.2-24.8 35.8-49.9 51-55.3z"/><g><path class="st21" d="M168.5 467.9h76v4.1h-76z"/><path class="st21" d="m238.5 468.9 29-64.4s4-2 5 2L244.2 472l-5.7-3.1z"/></g><path class="st10" d="M256.7 481.5H153.9c-2.4 0-4.4-2-4.4-4.4v-1.2c0-3 2.4-5.4 5.4-5.4h101.9c2.1 0 3.7 1.7 3.7 3.7v3.5c0 2.1-1.7 3.8-3.8 3.8z"/></g><g><path class="st1" d="M594.5 78h29c4.1 0 7.5-3.4 7.5-7.5s-3.4-7.5-7.5-7.5h-29c-4.1 0-7.5 3.4-7.5 7.5s3.4 7.5 7.5 7.5zM560.5 104h29c4.1 0 7.5-3.4 7.5-7.5s-3.4-7.5-7.5-7.5h-29c-4.1 0-7.5 3.4-7.5 7.5s3.4 7.5 7.5 7.5zM426.5 78h140c4.1 0 7.5-3.4 7.5-7.5s-3.4-7.5-7.5-7.5h-140c-4.1 0-7.5 3.4-7.5 7.5s3.4 7.5 7.5 7.5zM426.5 103h106c4.1 0 7.5-3.4 7.5-7.5s-3.4-7.5-7.5-7.5h-106c-4.1 0-7.5 3.4-7.5 7.5s3.4 7.5 7.5 7.5z"/></g></svg>