<svg version="1.1" id="Layer_1" xmlns="http://www.w3.org/2000/svg" x="0" y="0" viewBox="0 0 1000 1000" style="enable-background:new 0 0 1000 1000" xml:space="preserve"><style>.st0{fill:#caa6ee}.st1,.st2{fill:#fff}.st2{stroke:#7867c9;stroke-width:4;stroke-miterlimit:10}.st3{fill:#515151}.st5{opacity:.46}.st5,.st8{fill:#d1d3d4}.st9{fill:#ffb6b2}</style><switch><g><ellipse class="st0" cx="500" cy="853.04" rx="383.85" ry="45.4"/><path class="st0" d="M234.42 859.59S103.22 660.81 92.34 455.54c-11.01-207.65-28.59-310 106.62-352.22s138.67 8.17 273.45 23.15 218.8 27.24 297.7-1.36 128.3 197.49 60.7 291.47S771 530.87 782.7 607.21s40.99 199.53 13 209.81-561.28 42.57-561.28 42.57z"/><path class="st1" d="M229.91 276.13h5v147.19h-5z"/><ellipse class="st2" cx="232.41" cy="204.61" rx="80.38" ry="71.52"/><path class="st3" d="M233.84 164.2h7v42.4h-7z"/><path transform="rotate(-33.42 216.384 221.689)" class="st3" d="M188.93 219.71h54.95v4h-54.95z"/><ellipse class="st2" cx="373.41" cy="341.05" rx="80.38" ry="71.52"/><path class="st1" d="M370.91 412.57h5v20.19h-5z"/><path class="st3" d="M368.81 346.81c-.91 0-1.82-.35-2.51-1.06a3.495 3.495 0 0 1 .07-4.95l30.39-29.58a3.495 3.495 0 0 1 4.95.07 3.495 3.495 0 0 1-.07 4.95l-30.39 29.58c-.68.66-1.56.99-2.44.99z"/><path transform="rotate(-36.994 350.481 358.455)" class="st3" d="M323.01 356.44h54.95v4h-54.95z"/><g><path class="st1" d="M503.58 287.08h5v146.08h-5z"/><ellipse class="st2" cx="506.08" cy="215.68" rx="74.3" ry="71.4"/><path class="st3" d="M511.02 218.14c-.91 0-1.82-.35-2.51-1.06a3.495 3.495 0 0 1 .07-4.95l30.39-29.58a3.495 3.495 0 0 1 4.95.07 3.495 3.495 0 0 1-.07 4.95l-30.39 29.58c-.68.66-1.56.99-2.44.99z"/><path transform="rotate(-36.994 492.694 229.787)" class="st3" d="M465.22 227.77h54.95v4h-54.95z"/></g><g><ellipse class="st2" cx="624.71" cy="341.05" rx="74.3" ry="71.4"/><path class="st1" d="M622.21 412.45h5v28.56h-5z"/><path class="st3" d="M624.71 347.37c-1.34 0-2.63-.78-3.2-2.09-.78-1.77.02-3.83 1.79-4.62l38.79-17.13c1.77-.78 3.84.02 4.62 1.79.78 1.77-.02 3.83-1.79 4.62l-38.79 17.13c-.47.2-.95.3-1.42.3z"/><path transform="rotate(-29.285 602.326 356.364)" class="st3" d="M574.85 354.4h54.95v4h-54.95z"/></g><g><ellipse class="st2" cx="742.07" cy="227.4" rx="67.85" ry="65.2"/><path transform="matrix(1 -.00392 .00392 1 -1.44 2.912)" class="st1" d="M739.87 292.6h5v152.27h-5z"/><path class="st3" d="M743.43 226.74c-.61-1.2-.5-2.69.4-3.8a3.495 3.495 0 0 1 4.92-.51l32.92 26.73c1.5 1.22 1.73 3.42.51 4.92a3.495 3.495 0 0 1-4.92.51l-32.92-26.73c-.39-.32-.7-.7-.91-1.12z"/><path transform="rotate(-29.285 723.948 236.786)" class="st3" d="M696.48 234.82h54.95v4h-54.95z"/></g><g><path style="fill:#fff;stroke:#a5a5a5;stroke-width:3;stroke-miterlimit:10" d="m805.19 820.43-653.16 32.91V425.49l655.69 21.52z"/><path class="st5" d="M319.61 432.76H427.2v410.97H319.61zM570.91 444.88H678.5v384.85H570.91z"/><path style="fill:#2d2d2d" d="M804.36 469.3 151.7 449.54l1.25-29.09 655.03 23.58z"/><g style="opacity:.81"><path class="st8" d="M348.24 724.29s-28.43-74.29 30.27-40.36c58.7 33.94 0 75.21 0 75.21s-23.85 17.43-18.34 38.52c0 0-17.43 8.25-14.68-11.01 2.75-19.26 9.03-38.11 2.75-62.36zM362.91 520.67s-32.2 24.76 10.5 20.18c0 0 13.35 22.01 9.68 31.18-3.67 9.17 21.5 10.09 21.5 10.09s-5.72-24.76 22.62-25.68c28.34-.92-14.77-18.34 20.08-35.77 0 0 12.84-14.68-12.84-11.92-25.68 2.75-44.03-5.27-51.36-.34-7.34 4.92-20.18 12.26-20.18 12.26zM438.12 675.05s43.15 5.21 41.75 39.15c-1.4 33.94 14.2 45.86 14.2 45.86s11.01-3.67 18.34-18.34c7.34-14.68 5.5-42.19 12.84-46.78 7.34-4.59 20.18-2.75 20.18-2.75s-7.34-18.34-14.68-22.93-15.59-4.59-15.59-12.84 0-18.34 9.17-6.42 18.34 24.76 25.68 15.59c7.34-9.17-.92-13.76-4.59-16.51-3.67-2.75 3.87-19.19 14.68-4.55s13.76 25.65 17.43 24.73c3.67-.92 2.75 3.67 11.92 12.84 0 0-.92-12.84 6.42-21.1s18.34-2.75 18.34-2.75-1.96 14.35 10.48 16.8 12.45 2.46 12.45 2.46 9.17-2.75 12.84 7.34 14.68 13.43 16.51-9.8c1.83-23.22-7.34-27.87-11.92-35.63-4.59-7.77-5.5-9.6 4.59-8.69s12.08-11.44 19.34-.22c7.26 11.22 12.68-16.29 6.34-20.88s-9.07-21.1 2.8-17.43c11.87 3.67 10.96-3.67 18.29-10.09 7.34-6.42.92 11.01 6.42 19.26 5.5 8.25 0-11.04 14.68-20.65 14.68-9.62 25.68-16.04 32.1-10.53 6.42 5.5 9.17-6.42-3.67-11.92s-19.26 11.92-30.27 4.59c-11.01-7.34-31.18-5.86-35.77-5.68s-14.68-10.83-33.02-9c-18.34 1.83-24.67-23.08-55.09-3.74-30.42 19.34-16.86 12-30.42 12s-26.39-1.83-35.57 3.67c-9.17 5.5-19.26 3.67-29.35 2.75-10.09-.92-28.47-6.42-36.25 8.25-7.78 14.68-3.19 14.68-12.36 23.85-9.17 9.17-13.76 4.59-12.84 16.51.94 11.92-13.74 47.37-6.4 63.58z"/><path class="st8" d="M534.43 713.28s-7.34 14.89 0 23.96c7.33 9.06 13.75-14.81 0-23.96zM614.22 702.27s4.36-3.21 10.2-4.13c5.85-.92 13.18.46 19.15 9.63 0 0 .45-17.4 9.61-17.59 9.16-.19-1.55-9.87-9.16.19s-29.8 11.9-29.8 11.9zM341.35 596.8s-1.37-39.44 27.06-9.17c0 0 21.73 11.01-13.54 38.52 0 0-10.31-.92-30.49 0s-6.42 15.46 0 22.41c6.42 6.94-7.34-3.15-16.51 12.45-9.17 15.59-9.17 32.1-22.93 21.1-13.76-11.01-17.43 0-21.1-19.26-3.67-19.26-6.42-2.75-3.67-19.26s-4.99-9.17-1.12-27.52c3.87-18.34.2-11.01-12.64-21.1-12.84-10.09-22.93 0-29.35-2.75s-28.43-4.59-22.93-21.1.92-23.85 15.59-16.51c14.68 7.34 32.1 18.34 44.03 7.34 11.92-11.01 9.17-9.32 20.18-17.5s7.34-14.6 17.43-19.19 3.67-5.5 20.18-4.59c16.51.92 30.27-2.75 35.77-8.25 5.5-5.5 32.1 5.5 15.59 8.25s-22.93.66-25.68 16.38c-2.75 15.72-11.92 20.31-.92 21.23 11.01.92 18.34-7.34 20.18.92 1.83 8.25 1.82 11.01-15.14 12.84s-32.01.92-21.74 10.09c10.29 9.16 21.75 14.67 21.75 14.67z"/></g></g><g><ellipse class="st9" cx="675.68" cy="637.61" rx="11.46" ry="15.13"/><path class="st9" d="m653.98 867.83-2.61 12.13 6.88 2.88 5.1-15.01z"/><path d="m661.92 878.38-11.46-1.83-13.89 3.83s-5.83 8.76 1.04 8.76c5.59 0 13.18-.76 18.42-.45 3.2.19 5.89-2.37 5.89-5.57v-4.74z"/><path class="st9" d="m687.98 865.67 2.58 12.14 7.45-.19-1.49-15.78z"/><path d="M698.3 873.47s7.62 10.52-5.04 12.73c-23.39 4.08-19.26-4.02-19.26-4.02s-.26-3.46 7.68-4.13 8.05-5.48 8.05-5.48l8.57.9z"/><path d="M663.1 736.41s-4.05 14.9 7.02 51.34l15.07 86.04 14.99-2.05-3.98-96.82s5.71-32.72-2.6-42.69l-30.5 4.18z" style="fill:#353535"/><path d="M648.09 733.46s-6.03 14.22 0 51.82l3.28 87.29h15.13l9.17-96.46s10.09-31.64 3.21-42.65h-30.79z" style="fill:#252527"/><path class="st9" d="M599.78 612.85s1.61-7.8-2.75-12.38-9.4-12.15-12.84-7.8c-3.44 4.36-2.06 13.3 1.15 15.36 3.21 2.06 8.94 9.57 8.94 9.57l5.5-4.75z"/><path d="M664.21 649.54s11.01 11.01 27.06 3.21c16.05-7.8 26.94 22.73 23.33 43.24-3.61 20.51-1.78 12.71-1.78 12.71l-15.13 1.45-.75 29.28h-53.66s12.68-54.12 8.09-59.62-29.81-12.48-34.85-22.52c-5.04-10.04-23.85-39.68-23.85-39.68l7.8-8.42s18.8 29.35 25.22 31.64c6.42 2.28 28.89 9.62 38.52 8.71z" style="fill:#fba723"/><path d="M666.5 624.73s9.17-2.26 9.17 12.88c0 15.13 12.38 30.27 21.55 42.65 9.17 12.38 22.93 22.93 27.52 12.38s15.59-17.89 5.5-29.35-12.38-13.3-21.55-22.01-4.59-4.59-13.3-13.3-22.93-16.58-28.89-3.25z"/></g><path d="M223.5 500c-66.96 86.64 85.09 117.6 85.09 117.6v-82.26C293.72 454.63 223.5 500 223.5 500zm35.03 74.96c-18.82 0-34.07-15.25-34.07-34.06 0-18.82 15.25-34.07 34.07-34.07 18.81 0 34.07 15.25 34.07 34.07 0 18.81-15.26 34.06-34.07 34.06z" style="fill:#8721e5"/><g><path d="M250.78 739.25s5.5 35.71-17.2 50.15-40.31 30.27-40.31 30.27v19.26s18.3-9.63 34.12-15.13 33.02-11.63 42.65-34.71l9.63-23.08 23.39 28.2s-1.42 21.51 7.57 35.51c8.98 14 16.51 29.15 16.51 29.15h14.21s-6.64-46.03-10.08-59.82c-3.44-13.79-6.8-22.73-11.65-30.99-4.86-8.25-6.23-24.99-8.98-28.32-2.75-3.32-4.13-6.76-4.13-6.76l-55.73 6.27z" style="fill:#2b2a2b"/><path d="M330.88 860.05s-4.24 14.64 6.84 12.26c11.08-2.39 11.96-7.82 15.57-8.63s14.91-6.03 11.16-8.69c-3.75-2.66-9.89-2.79-14.01.77-4.11 3.56-10.2.92-10.2.92l-9.36 3.37zM194.65 822.47s-13.84-6.39-13.14 4.92c.7 11.31 5.93 13 6.19 16.69.26 3.7 3.72 15.65 6.91 12.34 3.19-3.31 4.24-9.36 1.34-13.96-2.9-4.6.62-10.22.62-10.22l-1.92-9.77z"/><path d="m289.23 648.55-5.1 12.22s-2.21 11.36 7.76 14.28 15.38-6.03 15.38-6.03l-6.61-20.47h-11.43z" style="opacity:.66;fill:#ffb6b2"/><path class="st9" d="M319.61 636.22s-17.97-24.29-8.98-22.91c8.98 1.38 8.25 7.8 13.76 12.84 5.5 5.04-4.78 10.07-4.78 10.07zM250.71 601.63s22.99-19.61 22.24-10.55c-.75 9.06-7.2 8.78-11.86 14.62-4.65 5.83-10.38-4.07-10.38-4.07z"/><path d="m284.15 656.13 7.66 5.07c3.51 2.32 7.91 2.83 11.85 1.36l4.21-1.57 38.52-.49s-3.44-14.7-17.89-20.64l-14.45-5.93 10.32-7.8s15.93 1.45 26.88 11.16 23.7 18.65 22.14 27.59c-1.56 8.94-2.14 13.76-22.14 16.51s-40.64 9.63-40.64 9.63l4.82 48.22-61.85 7.5-4.87-49.96s5.5-6.44-6.88-16.76c-12.38-10.32-22.7-16.51-22.01-28.2.69-11.69.69-16.28 6.88-25.68 6.19-9.4 7.57-10.09 13.76-16.97s13.76-10.9 13.76-10.9l8.25 6.77s-28.2 24.94-21.32 34.83c6.88 9.89 2.06 9.55 12.38 16.25 10.32 6.71 30.62.01 30.62.01z" style="fill:#ee505d"/><path d="M310.63 627.86c1.31-4.97-1.52-8.88-10.32-8.36-8.79.52-7.57 0-16.4 7.57-4.32 3.7-2.23 5.97 1.03 7.32-.5 1.72-.79 3.56-.79 5.49 0 8.98 5.93 16.25 13.24 16.25 7.15 0 12.96-6.97 13.21-15.67 2.94.35 5.39.29 6.46-.58 3.68-3.01-7.74-7.05-6.43-12.02z"/></g></g></switch></svg>