<svg version="1.1" id="Layer_1" xmlns="http://www.w3.org/2000/svg" x="0" y="0" viewBox="0 0 1000 1000" style="enable-background:new 0 0 1000 1000" xml:space="preserve"><style>.st0{fill:#e9daf8}.st1{fill:#2b2b2b}.st3{fill:#f1f2f2}.st4{fill:#e24040}.st5{fill:#fff}.st8{fill:#708cd5}.st9{fill:#fc4747}.st10{fill:#f9b384}.st11{fill:#102048}.st12{fill:#262626}.st14{fill:#f58643}.st15{fill:#fbc343}.st16{fill:none;stroke:#a8a7a7;stroke-miterlimit:10}</style><switch><g><path class="st0" d="M265.83 728.46s-194.7 17.73-163.52-129.63 111.02-216.63 76.6-292.06-11.38-128.63 70.66-126.79 45.35 34.85 184.76 24.76 209.12-4.59 273.32 93.55 117.4 188.69 185.27 222.29 82.55 55.48 11.01 139.02-86.22 102.96-201.78 102.96-436.32-34.1-436.32-34.1z"/><ellipse transform="rotate(-34.485 844.187 378.188)" class="st0" cx="844.26" cy="378.2" rx="47.87" ry="119.1"/><ellipse class="st0" cx="135.49" cy="363.02" rx="33.69" ry="52.96"/><ellipse class="st0" cx="519.11" cy="757.47" rx="409.71" ry="63.57"/><g><path class="st1" d="M778.41 675.59H237.03c-20.38 0-36.91-16.52-36.91-36.91V314.52c0-20.38 16.52-36.91 36.91-36.91H778.4c20.38 0 36.91 16.52 36.91 36.91v324.17c.01 20.38-16.52 36.9-36.9 36.9z"/><path style="fill:#38393a" d="M437.76 658.56h144v91.57h-144z"/><path class="st3" d="M232.67 306.04h550.32v302.68H232.67z"/><path class="st1" d="M632.57 770.31H386.39c0-14.18 11.5-25.68 25.68-25.68h194.81c14.19 0 25.69 11.5 25.69 25.68z"/><g><path class="st4" d="M455.55 212.49h84.38v30.27h-84.38z"/><path class="st5" d="M581.7 675.59H365.66V268.9h266.9v355.83c.01 28.09-22.77 50.86-50.86 50.86z"/><path class="st3" d="M360.16 675.59s-33.94-4.51-24.76-35.69h240.3s7.7 37.32 38.25 24.16l-30.54 13.16-223.25-1.63z"/><circle cx="497.28" cy="227.62" r="7.03" style="fill:#dbd9d9"/><path style="fill:#c93636" d="M414.83 242.76H587.7v26.14H414.83z"/><path class="st4" d="M414.83 242.76h161.43v52.28H414.83z"/><path class="st8" d="M425.41 355.49h120.52v6H425.41zM424.05 393.1h171.52v6H424.05zM419.46 429.78h176.1v5.45h-176.1zM419.46 446.29h176.1v6h-176.1zM419.46 468.25h176.1v6h-176.1zM419.46 485.82h176.1v6h-176.1z"/><path transform="rotate(-.81 508.995 549.833)" class="st8" d="M419.4 546.73h176.12v6H419.4z"/><path class="st8" d="M419.46 562.86h176.1v6h-176.1zM419.46 580.2h176.1v5.45h-176.1z"/><path class="st9" d="m390.98 569.1-11.29-11.29 4.24-4.24 7.05 7.05 14.39-14.39 4.24 4.24zM395.31 492.37l-15.47-13.51 3.94-4.52 10.21 8.92 10.97-17.23 5.06 3.22zM395.38 454.27l-15.69-15.7 4.24-4.24 9.99 9.99 10.93-20.3 5.28 2.85zM395.43 379.62l-15.57-13.35 3.9-4.55 10.11 8.66 11.03-18.9 5.18 3.02z"/><g><path d="m406.53 329.54-1.03-2.7h-8.76l-1.03 2.76c-.4 1.08-.75 1.81-1.03 2.18-.28.38-.75.57-1.4.57-.55 0-1.03-.2-1.46-.6-.42-.4-.63-.86-.63-1.37 0-.29.05-.6.15-.91.1-.31.26-.75.48-1.31l5.51-13.99c.16-.4.35-.88.57-1.45.22-.56.46-1.03.71-1.4.25-.37.58-.67.98-.9.41-.23.91-.35 1.51-.35.61 0 1.11.12 1.52.35.41.23.73.53.98.89s.46.75.63 1.17c.17.42.39.97.65 1.67l5.63 13.9c.44 1.06.66 1.83.66 2.31 0 .5-.21.96-.62 1.37-.42.42-.92.62-1.51.62-.34 0-.64-.06-.88-.18a1.78 1.78 0 0 1-.62-.5c-.17-.21-.35-.53-.54-.97s-.33-.83-.47-1.16zm-8.64-5.99h6.44l-3.25-8.89-3.19 8.89zM425.74 314.03h-4.76v15.65c0 .9-.2 1.57-.6 2.01-.4.44-.92.65-1.56.65-.65 0-1.17-.22-1.58-.66s-.61-1.11-.61-2v-15.65h-4.76c-.74 0-1.3-.16-1.66-.49-.36-.33-.54-.76-.54-1.3 0-.56.19-1 .57-1.32.38-.32.92-.49 1.64-.49h13.88c.75 0 1.32.17 1.68.5.37.33.55.77.55 1.31s-.19.97-.56 1.3c-.38.33-.94.49-1.69.49zM444.56 314.03h-4.76v15.65c0 .9-.2 1.57-.6 2.01-.4.44-.92.65-1.56.65-.65 0-1.17-.22-1.58-.66s-.61-1.11-.61-2v-15.65h-4.76c-.74 0-1.3-.16-1.66-.49-.36-.33-.54-.76-.54-1.3 0-.56.19-1 .57-1.32.38-.32.92-.49 1.64-.49h13.88c.75 0 1.32.17 1.68.5.37.33.55.77.55 1.31s-.19.97-.56 1.3c-.39.33-.95.49-1.69.49zM463.58 313.79h-9.83v5.29h9.05c.67 0 1.16.15 1.49.45s.49.69.49 1.18-.16.89-.49 1.2c-.32.31-.82.46-1.5.46h-9.05v6.13h10.17c.69 0 1.2.16 1.55.48.35.32.52.74.52 1.27 0 .51-.17.92-.52 1.24s-.86.48-1.55.48h-11.86c-.95 0-1.63-.21-2.05-.63-.42-.42-.62-1.1-.62-2.04v-16.2c0-.63.09-1.14.28-1.54s.48-.69.87-.87c.4-.18.9-.27 1.52-.27h11.52c.7 0 1.21.15 1.55.46s.51.71.51 1.21c0 .51-.17.92-.51 1.23s-.85.47-1.54.47zM475.14 312.68l8.39 12.7v-12.82c0-.83.18-1.46.54-1.87s.84-.62 1.45-.62c.63 0 1.12.21 1.48.62.36.42.54 1.04.54 1.87v16.95c0 1.89-.78 2.84-2.35 2.84-.39 0-.74-.06-1.06-.17-.31-.11-.61-.29-.88-.54-.27-.25-.53-.53-.76-.86-.23-.33-.47-.66-.71-1.01l-8.19-12.55v12.63c0 .82-.19 1.45-.57 1.87-.38.42-.87.63-1.47.63-.62 0-1.11-.21-1.48-.64-.37-.43-.56-1.05-.56-1.86v-16.62c0-.71.08-1.26.23-1.66.19-.44.49-.8.93-1.08.43-.28.9-.42 1.4-.42.39 0 .73.06 1.01.19s.52.3.73.51c.21.22.43.5.65.84.22.34.45.7.68 1.07zM495.03 310.43h5.69c1.48 0 2.75.14 3.81.41 1.06.27 2.02.79 2.88 1.54 2.24 1.92 3.37 4.84 3.37 8.76 0 1.29-.11 2.47-.34 3.54s-.57 2.03-1.04 2.89c-.47.86-1.07 1.62-1.81 2.3-.58.52-1.21.94-1.9 1.25-.69.31-1.42.53-2.21.66s-1.68.19-2.67.19h-5.69c-.79 0-1.39-.12-1.79-.36-.4-.24-.66-.58-.79-1.01-.12-.44-.18-1-.18-1.7v-15.8c0-.94.21-1.62.63-2.04.42-.42 1.1-.63 2.04-.63zm1.69 3.45v14.62h3.31c.73 0 1.29-.02 1.71-.06s.84-.14 1.28-.29.82-.38 1.15-.66c1.46-1.23 2.19-3.36 2.19-6.38 0-2.13-.32-3.72-.96-4.78s-1.43-1.73-2.37-2.02c-.94-.29-2.08-.43-3.41-.43h-2.9zM527.25 329.54l-1.03-2.7h-8.76l-1.03 2.76c-.4 1.08-.75 1.81-1.03 2.18-.28.38-.75.57-1.4.57-.55 0-1.03-.2-1.46-.6-.42-.4-.63-.86-.63-1.37 0-.29.05-.6.15-.91.1-.31.26-.75.48-1.31l5.51-13.99c.16-.4.35-.88.57-1.45.22-.56.46-1.03.71-1.4.25-.37.58-.67.99-.9.41-.23.91-.35 1.51-.35.61 0 1.12.12 1.52.35.41.23.74.53.98.89.25.36.46.75.63 1.17.17.42.39.97.65 1.67l5.63 13.9c.44 1.06.66 1.83.66 2.31 0 .5-.21.96-.62 1.37-.42.42-.92.62-1.51.62-.34 0-.64-.06-.88-.18a1.78 1.78 0 0 1-.62-.5c-.17-.21-.35-.53-.54-.97-.18-.45-.35-.83-.48-1.16zm-8.64-5.99h6.44l-3.25-8.89-3.19 8.89zM540.8 312.68l8.39 12.7v-12.82c0-.83.18-1.46.54-1.87s.84-.62 1.45-.62c.63 0 1.12.21 1.48.62s.54 1.04.54 1.87v16.95c0 1.89-.79 2.84-2.35 2.84-.39 0-.74-.06-1.06-.17-.31-.11-.61-.29-.88-.54-.27-.25-.53-.53-.76-.86-.24-.33-.47-.66-.71-1.01l-8.19-12.55v12.63c0 .82-.19 1.45-.57 1.87-.38.42-.87.63-1.47.63-.62 0-1.11-.21-1.48-.64s-.56-1.05-.56-1.86v-16.62c0-.71.08-1.26.24-1.66.19-.44.49-.8.93-1.08.43-.28.9-.42 1.4-.42.39 0 .73.06 1.01.19s.52.3.73.51c.21.22.43.5.65.84.21.34.43.7.67 1.07zM576.34 325.17c0 .69-.17 1.43-.51 2.23-.34.8-.87 1.58-1.59 2.35-.72.77-1.65 1.39-2.78 1.87-1.13.48-2.44.72-3.94.72-1.14 0-2.17-.11-3.1-.32s-1.78-.55-2.54-1.01-1.46-1.06-2.09-1.8a11.02 11.02 0 0 1-1.46-2.27c-.4-.84-.7-1.73-.9-2.68-.2-.95-.3-1.96-.3-3.03 0-1.73.25-3.29.76-4.66.5-1.37 1.23-2.55 2.17-3.52.94-.97 2.04-1.72 3.31-2.23 1.26-.51 2.61-.76 4.04-.76 1.74 0 3.3.35 4.66 1.04 1.36.7 2.41 1.56 3.13 2.58.72 1.02 1.09 1.99 1.09 2.9 0 .5-.18.94-.53 1.32-.35.38-.78.57-1.28.57-.56 0-.98-.13-1.26-.4s-.59-.72-.93-1.37c-.57-1.07-1.24-1.87-2.01-2.4s-1.72-.79-2.84-.79c-1.79 0-3.22.68-4.29 2.04-1.06 1.36-1.59 3.3-1.59 5.81 0 1.68.24 3.07.71 4.18s1.14 1.94 2 2.49 1.87.82 3.03.82c1.25 0 2.32-.31 3.18-.93.87-.62 1.52-1.54 1.96-2.74.19-.57.42-1.03.69-1.39.27-.36.72-.54 1.32-.54.52 0 .96.18 1.34.54.36.39.55.84.55 1.38zM594.46 313.79h-9.83v5.29h9.05c.67 0 1.16.15 1.49.45s.49.69.49 1.18-.16.89-.48 1.2c-.32.31-.82.46-1.5.46h-9.05v6.13h10.17c.69 0 1.2.16 1.55.48.35.32.52.74.52 1.27 0 .51-.17.92-.52 1.24s-.86.48-1.55.48h-11.86c-.95 0-1.63-.21-2.05-.63-.42-.42-.62-1.1-.62-2.04v-16.2c0-.63.09-1.14.28-1.54s.48-.69.88-.87c.4-.18.9-.27 1.52-.27h11.52c.7 0 1.21.15 1.55.46s.51.71.51 1.21c0 .51-.17.92-.51 1.23s-.86.47-1.56.47z"/></g></g></g><g><ellipse class="st10" cx="233.61" cy="376.27" rx="22.01" ry="29.87"/><ellipse transform="rotate(-11.068 208.811 378.129)" class="st10" cx="208.8" cy="378.2" rx="5.57" ry="7.76"/><path class="st11" d="M198.99 350.52s-14.63 15.43 14.7 24.68c0 0-5.07-15.51 9.15-15.51s14.68 2.29 17.89-3.67c3.21-5.96.46 4.98 8.71 5.7 8.25.72 28.43-11.37 15.13-24.13-13.3-12.76-17.43-4.01-17.43-4.01s-.92 2.44-10.09-2.92c-9.17-5.36-25.22 2.92-25.22 2.92s-1.38 12.81-12.84 16.94z"/><path class="st10" d="M218.71 395.58v40.79l39.9-1.97-11.01-19.78-2.29-19.04zM243.13 797.66l.17 2.28 2.01 26.61 21.55-4.59-1.83-28.43z"/><path class="st12" d="M243.13 814.17h23.23s-1.33 5.96 3.71 9.63c0 0 15.47-4.59 28.37 16.97l-55.31 1.7v-28.3z"/><path class="st10" d="m179.73 797.66-2.3 25.22 20.18 3.67 5.05-28.89z"/><path class="st12" d="M198.99 818.67v21.18l-42.46-1.07-12.11-.31c.56-5.01 5.55-8.82 11.3-11.57 8.45-4.07 18.51-5.85 18.51-5.85v-4.59l24.76 2.21z"/><path style="fill:#108f87" d="m193.49 528.34-19.27 215.2-5.04 62.83h37.6l15.14-83.92 21.21-127.04-6.08 173.35-.46 35.77 38.07-.45 7.33-149.05 5.05-123.2z"/><path class="st5" d="M217.56 413.35s1.72 5.51 15.13 7.8c13.42 2.29 15.59-10.78 15.59-10.78l14.45 17.43 11.92 124.28H211.6V428.25l5.96-14.9z"/><path class="st10" d="m330.15 436.37 6.16-20.58s-7.43-3.99-9.27-13.41c-1.83-9.42 1.89-9.13 1.89-9.13s4.6 4.96 3.82 9.09c-.78 4.13 14.17 9.17 9.91-1.83-4.26-11.01-7.89-7.93-7.89-7.93s-13.89.59-6.65-2.62 12.08-4.13 15.31 0c3.23 4.13 2.45 7.8 2.45 7.8l-3.13-22.55s6.66-5.55 6.2 3c0 0 4.59-6.93 5.5.12s2.29 12.09 2.29 12.09 2.67-8.25 3.63-4.59 4.29 15.88-1.36 26.06c-5.65 10.17-7.33 16.51-7.33 16.51l-3.65 24.95-17.88-16.98z"/><path class="st14" d="M220.08 410.26s-18.34-2.87-37.38 8.36c-19.03 11.24-76.36 55.72-76.36 55.72l-39.21 29.81 10.55 27.68 49.07-28.6 51.59-37.38-2.06 61.45.23 44.48s35.77 5.04 38.75 0c2.98-5.04 12.84-15.82 12.38-24.31-.46-8.48 2.52-33.94 2.52-33.94l-2.98-65.81-7.1-37.46zM245.31 410.37h27.29s7.8-2.88 26.37 21.03 14.45 20.7 14.45 20.7l16.28-20.85 21.89 20.1-27.62 38.58s-10.67 13.99-25.51 2.75l-5.21-6.19 10.32 72.92s-29.81 9.19-38.06 5.62c0 0-8.94-23.74-11.24-40.25-2.29-16.51-5.27-49.53-6.19-67.41-.94-17.88-2.77-47-2.77-47z"/><g><path class="st15" d="M112.32 842.46c-25.22 0-28.89-26-28.89-26l-.51-5.73-.12-1.35-5.05-56.96-28.54-322.04-.18-1.98 13.3-56.96 2.21-.12 7.25-.37 4.76-.25 25.22 54.12.04.48 20.6 234.03 7.23 89.19 4.69 57.85c.07.28.14.57.21.84 7.98 32.68-22.22 35.25-22.22 35.25z"/><path class="st11" d="m134.54 807.21-51.74 2.17-5.05-56.96 51.89-3.9 4.69 57.85c.07.28.14.57.21.84z"/><path class="st15" d="M80.38 782.05h51.98l.93 11.48h-51.9z"/><path class="st10" d="M134.54 807.21c7.98 32.68-22.22 35.25-22.22 35.25-25.22 0-28.89-26-28.89-26l-.51-5.73 51.62-3.52zM101.81 425.3l-52.6 5.08-.18-1.98 13.3-56.96 2.21-.12v-.37l7.25-.7v.7l4.76-.25 25.22 54.12z"/><path class="st11" d="m61.81 373.64 5.33-30.3 9.41 27.36z"/><path class="st16" d="m61.81 430.38 27.16 321.19M82.92 427.12l26.48 321.4"/></g><path class="st10" d="M48.15 514.24s1.38 27.52 12.84 27.97c0 0 2.75-16.12 12.15-14.76s6.65-21.01-5.27-19.64-17.89.93-19.72 6.43z"/></g></g></switch></svg>