<svg version="1.1" id="Layer_1" xmlns="http://www.w3.org/2000/svg" x="0" y="0" viewBox="0 0 1000 1000" style="enable-background:new 0 0 1000 1000" xml:space="preserve"><style>.st0{fill:#e5dffb}.st1{fill:#346fba}.st2{fill:#fff}.st3{fill:#7bc6b1}.st4{fill:#ee505d}.st6{fill:#ed9b88}.st7{fill:#25296b}.st8{fill:#faa78f}.st10{fill:#fda819}</style><switch><g><circle class="st0" cx="492.2" cy="490" r="436.82"/><ellipse class="st0" cx="506" cy="860.56" rx="383.16" ry="67.41"/><path class="st1" d="M486.26 617.85S385.1 421.75 540.49 351.1c0 0 72.22-36.74 150.32-34.97 5.81.13 10.27 5.21 9.57 10.98-3.47 28.78-14.99 110.04-39.3 158.55-5.51 10.99-16.63 18.02-28.92 18.13-37.21.37-122.93 12.53-145.9 114.06z"/><path class="st2" d="M481.79 589.12c-.13-7.52.29-15.06.97-22.56.68-7.5 1.62-14.99 2.82-22.43 2.45-14.88 5.94-29.61 10.53-44.01 2.28-7.2 4.83-14.33 7.68-21.33a275.97 275.97 0 0 1 9.37-20.67c3.41-6.76 7.14-13.36 11.13-19.79 3.98-6.44 8.28-12.7 12.88-18.73 4.61-6.01 9.47-11.84 14.65-17.39 5.19-5.53 10.61-10.83 16.3-15.85 5.74-4.96 11.7-9.64 17.86-14.06 6.21-4.35 12.6-8.42 19.19-12.14 1.64-.95 3.33-1.8 4.99-2.71 1.67-.9 3.33-1.8 5.04-2.61l5.09-2.5c1.71-.8 3.45-1.55 5.17-2.32l2.59-1.15c.87-.38 1.75-.71 2.62-1.07l5.25-2.12c1.76-.68 3.54-1.3 5.32-1.96 1.78-.64 3.54-1.32 5.34-1.87l5.39-1.73c1.79-.6 3.62-1.05 5.43-1.59 1.82-.5 3.62-1.05 5.45-1.52l5.49-1.36 2.74-.68 2.76-.6 5.52-1.18c3.69-.73 7.41-1.31 11.11-1.97-3.66.85-7.34 1.62-10.99 2.54l-5.46 1.39-2.73.7-2.71.78-5.41 1.57c-1.8.54-3.57 1.15-5.36 1.72-1.78.6-3.58 1.12-5.33 1.79l-5.28 1.92c-1.77.61-3.5 1.32-5.25 2.01-1.74.7-3.49 1.36-5.21 2.09l-5.14 2.25c-.86.38-1.72.74-2.57 1.13l-2.53 1.21c-6.79 3.13-13.37 6.72-19.83 10.45-25.78 15.13-48.44 35.36-66.43 59.16-9.11 11.82-16.95 24.59-23.83 37.84-6.91 13.25-12.61 27.12-17.45 41.28a339.206 339.206 0 0 0-11.53 43.41c-2.93 14.72-4.95 29.64-5.64 44.66z"/><path class="st3" d="M533.18 667.84S483.65 387.16 702.4 359.65c0 0 103.16-17.61 198.81 14.54 7.12 2.39 10.67 10.36 7.59 17.22-15.32 34.16-60.71 129.97-109.3 180.47-11 11.44-27.42 15.84-42.62 11.27-46.03-13.82-156.42-31.71-223.7 84.69z"/><path class="st2" d="M538.68 630.7c2.73-9.33 6.14-18.46 9.85-27.45 3.72-8.99 7.74-17.86 12.09-26.58 8.74-17.41 18.68-34.25 29.87-50.24 5.58-8.01 11.45-15.82 17.66-23.36 6.19-7.56 12.69-14.87 19.49-21.89 6.8-7.03 13.94-13.73 21.33-20.14 7.39-6.42 15.09-12.48 23.06-18.16 8-5.65 16.23-10.97 24.74-15.83 8.52-4.83 17.25-9.29 26.18-13.29 8.98-3.92 18.13-7.4 27.42-10.49 9.32-2.98 18.77-5.55 28.33-7.61 2.38-.54 4.8-.95 7.19-1.43 2.4-.47 4.79-.94 7.21-1.29l7.24-1.14c2.42-.33 4.85-.59 7.27-.88l3.64-.43c1.21-.13 2.43-.21 3.65-.32l7.29-.6c2.43-.16 4.87-.25 7.31-.37 2.44-.11 4.87-.27 7.31-.26l7.31-.06c2.44-.06 4.87.09 7.31.12 2.43.08 4.87.09 7.3.22l7.29.43 3.64.21 3.63.32 7.26.67c4.83.52 9.65 1.23 14.46 1.83-4.85-.35-9.68-.82-14.53-1.08l-7.27-.38-3.63-.18-3.64-.07-7.27-.14c-2.42-.03-4.85.05-7.27.07-2.42.06-4.84.01-7.26.16l-7.25.34c-2.42.08-4.83.29-7.24.47-2.41.19-4.82.34-7.23.57l-7.21.8c-1.2.14-2.4.25-3.6.41l-3.59.52c-9.58 1.26-19.06 3.15-28.47 5.29-37.6 8.77-73.31 25.02-104.63 47.48-15.77 11.08-30.34 23.82-43.91 37.53-13.61 13.69-25.95 28.61-37.36 44.21a437.82 437.82 0 0 0-30.87 49.12c-9.26 17.01-17.48 34.63-24.1 52.9z"/><path class="st4" d="M564.63 676.79s16.51-151.34 97.68-151.34S750.36 608 798.51 608c0 0-35.77 77.04-103.18 44.03-67.41-33.02-89.43-15.14-130.7 24.76z"/><path class="st2" d="M577.01 652.03c2.92-9.2 7.18-17.97 12.18-26.27 2.54-4.14 5.3-8.15 8.31-11.97 3.02-3.82 6.33-7.43 9.87-10.81.9-.83 1.77-1.69 2.7-2.49l2.81-2.38c1.94-1.5 3.88-3.01 5.96-4.34 2.02-1.41 4.18-2.6 6.31-3.83l3.3-1.67c1.09-.58 2.26-1 3.39-1.5l1.71-.73c.57-.23 1.17-.41 1.75-.62 1.17-.39 2.33-.82 3.52-1.17 2.39-.62 4.77-1.32 7.22-1.71 2.42-.53 4.89-.73 7.35-1.02 1.23-.13 2.47-.12 3.7-.19 1.23-.04 2.48-.12 3.69-.08 4.88.03 9.76.36 14.62.86 4.85.58 9.69 1.38 14.45 2.52 9.52 2.29 18.72 5.85 27.34 10.33 4.32 2.22 8.54 4.6 12.7 7.03 4.16 2.43 8.3 4.86 12.54 7.07 8.41 4.52 17.55 7.77 27.19 8.56-4.82.02-9.67-.6-14.37-1.81-4.72-1.19-9.27-2.97-13.68-4.98-8.81-4.09-17.13-8.99-25.76-13.07-8.63-4.06-17.55-7.44-26.82-9.44-4.63-1.02-9.3-1.8-14.02-2.32-4.72-.46-9.47-.75-14.22-.75-1.2-.05-2.36.02-3.53.05-1.17.06-2.35.03-3.51.16-2.33.26-4.67.43-6.96.92-2.32.34-4.57 1-6.84 1.57-1.12.32-2.23.73-3.34 1.09-.55.19-1.12.36-1.66.56l-1.63.66c-1.08.46-2.2.83-3.24 1.36l-3.17 1.53c-2.05 1.14-4.14 2.23-6.1 3.55a86.415 86.415 0 0 0-11.27 8.56c-7.06 6.32-13.28 13.64-18.64 21.56-5.42 7.89-10.1 16.33-13.85 25.21z"/><path class="st1" d="M488.21 617.85s101.16-196.1-54.23-266.75c0 0-72.22-36.74-150.32-34.97-5.81.13-10.27 5.21-9.57 10.98 3.47 28.78 14.99 110.04 39.3 158.55 5.51 10.99 16.63 18.02 28.92 18.13 37.21.37 122.93 12.53 145.9 114.06z"/><path class="st2" d="M492.68 589.12c.13-7.52-.29-15.06-.97-22.56-.68-7.5-1.62-14.99-2.82-22.43-2.45-14.88-5.94-29.61-10.53-44.01-2.28-7.2-4.83-14.33-7.68-21.33a275.97 275.97 0 0 0-9.37-20.67c-3.41-6.76-7.14-13.36-11.13-19.79-3.98-6.44-8.28-12.7-12.88-18.73-4.61-6.01-9.47-11.84-14.65-17.39-5.19-5.53-10.61-10.83-16.3-15.85-5.74-4.96-11.7-9.64-17.86-14.06-6.21-4.35-12.6-8.42-19.19-12.14-1.64-.95-3.33-1.8-4.99-2.71-1.67-.9-3.33-1.8-5.04-2.61l-5.09-2.5c-1.71-.8-3.45-1.55-5.17-2.32l-2.59-1.15c-.87-.38-1.75-.71-2.62-1.07l-5.25-2.12c-1.76-.68-3.54-1.3-5.32-1.96-1.78-.64-3.54-1.32-5.34-1.87l-5.39-1.73c-1.79-.6-3.62-1.05-5.43-1.59-1.82-.5-3.62-1.05-5.45-1.52l-5.49-1.36-2.74-.68-2.76-.6-5.52-1.18c-3.69-.73-7.41-1.31-11.11-1.97 3.66.85 7.34 1.62 10.99 2.54l5.46 1.39 2.73.7 2.71.78 5.41 1.57c1.8.54 3.57 1.15 5.36 1.72 1.78.6 3.58 1.12 5.33 1.79l5.28 1.92c1.77.61 3.5 1.32 5.25 2.01 1.74.7 3.49 1.36 5.21 2.09l5.14 2.25c.86.38 1.72.74 2.57 1.13l2.53 1.21c6.79 3.13 13.37 6.72 19.83 10.45 25.78 15.13 48.44 35.36 66.43 59.16 9.11 11.82 16.95 24.59 23.83 37.84 6.91 13.25 12.61 27.12 17.45 41.28 4.79 14.18 8.65 28.69 11.53 43.41 2.92 14.72 4.94 29.64 5.64 44.66z"/><path class="st3" d="M449.34 667.84s49.53-280.68-169.22-308.19c0 0-103.16-17.61-198.81 14.54-7.12 2.39-10.67 10.36-7.59 17.22 15.32 34.16 60.71 129.97 109.3 180.47 11 11.44 27.42 15.84 42.62 11.27 46.03-13.82 156.42-31.71 223.7 84.69z"/><path class="st2" d="M443.83 630.7c-2.73-9.33-6.14-18.46-9.85-27.45-3.72-8.99-7.74-17.86-12.09-26.58-8.74-17.41-18.68-34.25-29.87-50.24-5.58-8.01-11.45-15.82-17.66-23.36a351.636 351.636 0 0 0-19.49-21.89c-6.8-7.03-13.94-13.73-21.33-20.14a305.622 305.622 0 0 0-23.06-18.16c-8-5.65-16.23-10.97-24.74-15.83-8.52-4.83-17.25-9.29-26.18-13.29-8.98-3.92-18.13-7.4-27.42-10.49-9.32-2.98-18.77-5.55-28.33-7.61-2.38-.54-4.8-.95-7.19-1.43-2.4-.47-4.79-.94-7.21-1.29l-7.24-1.14c-2.42-.33-4.85-.59-7.27-.88l-3.64-.43c-1.21-.13-2.43-.21-3.65-.32l-7.29-.6c-2.43-.16-4.87-.25-7.31-.37-2.44-.11-4.87-.27-7.31-.26l-7.31-.06c-2.44-.06-4.87.09-7.31.12-2.43.08-4.87.09-7.3.22l-7.29.43-3.64.21-3.63.32-7.26.67c-4.83.52-9.65 1.23-14.46 1.83 4.85-.35 9.68-.82 14.53-1.08l7.27-.38 3.63-.18 3.64-.07 7.27-.14c2.42-.03 4.85.05 7.27.07 2.42.06 4.84.01 7.26.16l7.25.34c2.42.08 4.83.29 7.24.47 2.41.19 4.82.34 7.23.57l7.21.8c1.2.14 2.4.25 3.6.41l3.59.52c9.58 1.26 19.06 3.15 28.47 5.29 37.6 8.77 73.31 25.02 104.63 47.48 15.77 11.08 30.34 23.82 43.91 37.53 13.61 13.69 25.95 28.61 37.36 44.21a437.82 437.82 0 0 1 30.87 49.12c9.26 17.01 17.48 34.63 24.1 52.9z"/><g><path class="st4" d="M417.89 676.79s-16.51-151.34-97.68-151.34S232.16 608 184 608c0 0 35.77 77.04 103.18 44.03 67.42-33.02 89.43-15.14 130.71 24.76z"/><path class="st2" d="M405.51 652.03c-2.92-9.2-7.18-17.97-12.18-26.27-2.54-4.14-5.3-8.15-8.31-11.97-3.02-3.82-6.33-7.43-9.87-10.81-.9-.83-1.77-1.69-2.7-2.49l-2.81-2.38c-1.94-1.5-3.88-3.01-5.96-4.34-2.02-1.41-4.18-2.6-6.31-3.83l-3.3-1.67c-1.09-.58-2.26-1-3.39-1.5l-1.71-.73c-.57-.23-1.17-.41-1.75-.62-1.17-.39-2.33-.82-3.52-1.17-2.39-.62-4.77-1.32-7.22-1.71-2.42-.53-4.89-.73-7.35-1.02-1.23-.13-2.47-.12-3.7-.19-1.23-.04-2.48-.12-3.69-.08-4.88.03-9.76.36-14.62.86-4.85.58-9.69 1.38-14.45 2.52-9.52 2.29-18.72 5.85-27.34 10.33-4.32 2.22-8.54 4.6-12.7 7.03-4.16 2.43-8.3 4.86-12.54 7.07-8.41 4.52-17.55 7.77-27.19 8.56 4.82.02 9.67-.6 14.37-1.81 4.72-1.19 9.27-2.97 13.68-4.98 8.81-4.09 17.13-8.99 25.76-13.07 8.63-4.06 17.55-7.44 26.82-9.44 4.63-1.02 9.3-1.8 14.02-2.32 4.72-.46 9.47-.75 14.22-.75 1.2-.05 2.36.02 3.53.05 1.17.06 2.35.03 3.51.16 2.33.26 4.67.43 6.96.92 2.32.34 4.57 1 6.84 1.57 1.12.32 2.23.73 3.34 1.09.55.19 1.12.36 1.66.56l1.63.66c1.08.46 2.2.83 3.24 1.36l3.17 1.53c2.05 1.14 4.14 2.23 6.1 3.55 3.97 2.54 7.75 5.39 11.27 8.56 7.06 6.32 13.28 13.64 18.64 21.56 5.41 7.89 10.1 16.33 13.85 25.21z"/></g><g><path d="M424.76 645.61 211.05 770.8s-60.08 73.38 29.81 107.77c0 0 73.38 10.55 154.09-10.09s132.08-15.59 217.83 14.68 153.63 4.13 153.63 4.13 50.9-14.3 5.96-84.42-113.73-105.44-113.73-105.44l-106.39-49.07-127.49-2.75z" style="fill:#8922e1"/><ellipse transform="rotate(-79.962 543.375 240.204)" class="st6" cx="543.39" cy="240.2" rx="21.92" ry="13.9"/><ellipse transform="rotate(-10.035 435.458 240.213)" class="st6" cx="435.39" cy="240.2" rx="13.9" ry="21.92"/><ellipse class="st7" cx="493.71" cy="99.03" rx="37.61" ry="27.08"/><path class="st8" d="M560.05 373.2c-5.51 20.18-63.62 34.85-63.62 34.85s-112.04-35.88-64.06-48.91c22.23-6.03 31.5-18.7 35.09-30.42 4.04-13.21.87-25.23.87-25.23h48.61c-2.44 10.28-2.66 18.56-1.42 25.23 5.25 28.35 36.88 27.66 36.88 27.66l7.65 16.82z"/><path d="M515.52 336.97h-48.06c4.04-17.53.87-33.48.87-33.48h48.61c-2.44 13.64-2.66 24.63-1.42 33.48z" style="opacity:.15"/><path class="st8" d="M388.53 375.03s-16.2 2.14-22.01 18.96c0 0-20.48 46.17-25.99 107.92s-9.48 107.31-9.48 107.31-59.31 64.82-84.99 110.37c0 0-17.73-5.81-47.08 9.78 0 0-8.87 3.36 15.59 6.11 0 0 15.9 8.87-7.03 18.34 0 0-12.23 4.28-13.76-15.9 0 0-4.28-9.48-7.64 1.83 0 0-4.59 14.37 12.23 28.13 0 0-10.7 8.87-29.96 18.65 0 0-2.45 22.93 33.32 5.81 0 0 44.64-28.43 52.59-50.75 0 0 84.69-59.31 108.84-100.59 0 0 9.17-8.25 12.23-28.43 3.06-20.18 29.66-76.59 24.15-124.97l7.34-12.61c-.01.02 1.83-93.84-18.35-99.96zm193.86 22.41s14.63-22.41 28.57-15.07c0 0 26.59 13.76 29.41 123.7 1.59 61.98 9.48 107.31 9.48 107.31s59.31 64.82 84.99 110.37c0 0 17.73-5.81 47.08 9.78 0 0 8.87 3.36-15.59 6.11 0 0-15.9 8.87 7.03 18.34 0 0 12.23 4.28 13.76-15.9 0 0 4.28-9.48 7.64 1.83 0 0 4.59 14.37-12.23 28.13 0 0 10.7 8.87 29.96 18.65 0 0 2.45 22.93-33.32 5.81 0 0-44.64-28.43-52.59-50.75 0 0-84.69-59.31-108.84-100.59 0 0-9.17-8.25-12.23-28.43s-16.45-67.4-18.41-116.55l-8.04-27.03c.02.02-5.98-59.38 3.33-75.71z"/><path class="st6" d="m483.92 782.27 72-13.76s16.97-32.04 40.82-15.33 62.83 42.85 62.83 42.85 25.68 42.19-3.21 36.69c0 0-31.18-25.68-57.78-24.31-26.6 1.38-75.67 8.25-75.67 8.25l-38.99-34.39z"/><ellipse class="st8" cx="489.87" cy="231.57" rx="57.5" ry="90.62"/><path class="st10" d="M432.37 355.77s9.97 23.85 61.64 19.57c51.67-4.28 58.09-21.1 58.09-21.1s49.53 21.1 56.87 28.13c0 0-33.02 35.77-20.79 126.57 0 0-33.02 117.4-28.43 145.22 0 0-66.96 24.46-140.33-7.64 0 0 32.41-14.45-19.87-158.9 0 0 2.75-94.24-17.89-111.44 0 0 1.56-.95 4.33-2.46 7.99-4.36 26.15-13.41 46.38-17.95z"/><path class="st7" d="m543.39 231.57-10.86-39.98s5.5-27.52-22.01-5.5c-27.52 22.01-45.31-9.93-78.15 45.48 0 0-20.91-50.07 9.36-96.85 0 0 44.94-48.61 96.31 0-.01.01 26.59 19.99 5.35 96.85z"/><path class="st8" d="M549.95 813.45s-21.55 24.76-15.13 43.11c0 0-71.08-33.02-101.35-35.31-30.27-2.29-60.08 1.83-60.08 1.83l-16.97 5.04s-34.39-6.5-12.84-25.26c0 0 53.2-11.88 93.55-38.94s48.15 5.5 48.15 5.5-1.82 27.06 64.67 44.03z"/><path class="st10" d="M491.61 127.05c-19.28 0-30.31-5.42-30.95-5.75a3.502 3.502 0 0 1-1.54-4.7 3.512 3.512 0 0 1 4.7-1.55c.28.14 20.94 10.08 55.21 1.41 1.87-.47 3.78.66 4.25 2.53.47 1.87-.66 3.78-2.53 4.25-11.12 2.82-20.89 3.81-29.14 3.81z"/></g></g></switch></svg>