<?xml version="1.0" encoding="utf-8"?>
<!-- Generator: Adobe Illustrator 24.3.0, SVG Export Plug-In . SVG Version: 6.00 Build 0)  -->
<svg version="1.1" id="Layer_1" xmlns="http://www.w3.org/2000/svg" xmlns:xlink="http://www.w3.org/1999/xlink" x="0px" y="0px"
	 viewBox="0 0 1000 653" style="enable-background:new 0 0 1000 653;" xml:space="preserve">
<style type="text/css">
	.st0{fill:#E3D4F9;}
	.st1{fill:#CFB5F6;}
	.st2{fill:#FFFFFF;}
	.st3{fill:#E4D4FA;}
	.st4{fill:#F4A96C;}
	.st5{fill:#F9AF6B;}
	.st6{fill:#346FBA;}
	.st7{fill:#201838;}
	.st8{fill:#EE505D;}
	.st9{fill:#9EDDC8;}
	.st10{fill:#629988;}
	.st11{fill:#7BC6B1;}
	.st12{fill:#6D6E71;}
	.st13{fill:#E9A288;}
	.st14{opacity:0.63;fill:#1C1C1A;}
</style>
<g>
	<path class="st0" d="M506.7,636.7c-217,0-340.2-152.9-340.2-331.2c0-76.1,29.6-141.1,81.2-191.3c32.8-31.9,74.6-57.9,123.3-76.8
		c2.2-0.9,4.3-1.7,6.5-2.5c37.6-14,79.2-23.9,123.9-29.2c2.2-0.3,4.3-0.5,6.5-0.8C523.5,3.2,539.6,2,556,1.4
		c26.3-0.9,51.4-2.2,74.7,1.7C799,31,913,127,937.1,284.8C971,506.8,723.6,636.7,506.7,636.7z"/>
	<path class="st1" d="M482.7,643c-205.8,0-322.8-145.6-322.8-315.4c0-72.4,28.1-134.4,77-182.2c31.1-30.4,70.7-55.1,117-73.2
		c2-0.8,4.1-1.6,6.2-2.4c35.7-13.3,75.1-22.7,117.6-27.8c2-0.3,4.1-0.5,6.2-0.7c14.9-1.6,30.2-2.7,45.8-3.3
		c25-0.9,48.6-0.4,70.8,1.6C761.8,53.9,854,143.3,893,307.9C943.8,522.5,688.5,643,482.7,643z"/>
	<g>
		<path class="st2" d="M600.4,39.7v435.2H236.9V145.4c31.1-30.4,70.7-55.1,117-73.2c2-0.8,4.1-1.6,6.2-2.4
			c35.7-13.3,75.1-22.7,117.6-27.8c2-0.3,4.1-0.5,6.2-0.7c14.9-1.6,30.2-2.7,45.8-3.3C554.5,37.2,578.1,37.7,600.4,39.7z"/>
		<g>
			<g>
				<g>
					<g>
						<rect x="237.9" y="253.7" class="st1" width="362.5" height="6.2"/>
					</g>
				</g>
				<g>
					<g>
						<path class="st1" d="M360,69.9v404.5h-6.2V72.2C355.9,71.4,357.9,70.7,360,69.9z"/>
					</g>
				</g>
				<g>
					<g>
						<path class="st1" d="M483.8,41.4v433h-6.2V42.1C479.6,41.8,481.7,41.6,483.8,41.4z"/>
					</g>
				</g>
			</g>
		</g>
	</g>
	<ellipse class="st3" cx="541.2" cy="617.8" rx="436.8" ry="25.3"/>
	<g>
		<path class="st4" d="M499.2,564.2c0,0-120.6,16.6-145.2,9.2c-24.6-7.4-49.3-18.5-64.1-30.8c0,0-2.5-18.5-11.1-12.3s7.4,32,7.4,32
			s34.5,25.9,39.4,45.6c4.9,19.7,18.5,20.9,24.6,14.8c6.2-6.2,11.1-19.7,30.8-13.6c19.7,6.2,108.6,15.4,128.8,8.3
			C509.9,617.5,491.7,579.6,499.2,564.2z"/>
		<path class="st5" d="M627.5,359c0,0,17.2,8.6,28.3,16c0,0,9.4,13,29.6-2.5c20.1-15.4,18.5-32,18.5-32s-3.3-17.2-13.6-14.8
			c-10.3,2.5-18.5,2.5-18.5,2.5l-22.2-16l-24.3,4.3l-10.4,26.7L627.5,359z"/>
		
			<ellipse transform="matrix(0.8408 -0.5413 0.5413 0.8408 -83.2045 377.1675)" class="st5" cx="599.7" cy="330.1" rx="35.7" ry="48.1"/>
		<path class="st6" d="M702.7,524.6l-9.5,14l-138.4,6.4l-60.4,17.2c0,0-7.4,35.7,18.5,57.9c0,0,18.5-12.3,29.6-14.8
			c11.1-2.5,24.6,2.5,30.8,3.7c6.2,1.2,82,11.1,82,11.1s167.5,0,110.7,0c-0.6,0,80.8,7.4,80.8,7.4s66.5,9.9,77.6-25.9
			c0,0,12.3-39.4-27.1-51.7c-39.4-12.3-50.5-4.9-50.5-4.9l-25.9-40.7C820.9,504.4,803.7,552.2,702.7,524.6z"/>
		<path class="st5" d="M767.9,352.9c0,0-46.8-89.9-82.6-122c0,0-16-28.3-46.8-24.6c-30.8,3.7-106,20.9-110.9,22.2
			c-4.9,1.2-40.7,8.6-55.4,22.2c-14.8,13.6-18.5,20.9-18.5,20.9s-3.7,9.9,13.6,1.2c17.2-8.6,14.8-11.1,20.9-12.3
			c6.2-1.2,20.9-3.7,17.2,2.5c-2.8,4.7-12,11.7-16.4,14.9c-1.7,1.3-2.5,3.6-1.7,5.5c0.7,1.7,2.4,2.9,5.9,0.9
			c7.1-4,24.4-12.7,24.4-12.7s12.3-8.6,18.5-18.5c6.2-9.9,17.2-9.9,17.2-9.9s67.8-7.4,85-1.2c0,0,8.6,1.2,14.8,7.4
			c6.2,6.2,50.5,83.2,50.5,83.2S732.2,373.8,767.9,352.9z"/>
		<path class="st5" d="M862.4,567.1c13.9-1,27.8,2.6,38.9,11c10.1,7.7,17.6,19.2,7.1,34.6c0,0-13.1,18.9-57,13.1H703.9h-33.9
			c-10.9,0-21.5-4.1-29.3-11.7c-7.3-7.2-10.9-16,6.6-21.2c33.3-9.9,24.6-3.7,49.3,0c17.3,2.6,32.7-6.4,43.5-7.5
			c5.2-0.6,10.3,2.3,12.5,7c1.5,3.1,6,6.1,19.1,1.7C791.4,587.8,819.5,570.4,862.4,567.1z"/>
		<path class="st7" d="M558.8,320.1c0,0-16.3-10.3-7.7-32.5c6.3-16.2,24.4-30.4,33.7-36.9c4-2.8,8.6-4.5,13.4-5
			c13.1-1.5,38.9-1.1,45.3,23.5c0,0,28.9-19.8,36.6,13.5c7.7,33.3-25.6,25.7-25.6,25.7s8.4,12.3-11.3,16l-22.1-4.4l-18-8.3l0.5,7.8
			C603.7,319.4,588.7,326.7,558.8,320.1z"/>
		
			<ellipse transform="matrix(0.9467 -0.322 0.322 0.9467 -69.322 213.9647)" class="st5" cx="612.1" cy="316.5" rx="8.8" ry="11.9"/>
		<path class="st5" d="M621.9,394.1c0,0-19.1,6.8-35.1,45s-44.4,64.1-56.7,71.5c-12.3,7.4-39.4,32-61.6,38.2s-86.2,23.4-86.2,23.4
			s-1.9,5.7,10.8,5.3c12.6-0.4,19.8-9.4,18.7,0s-1.1,9.4,3.8,8.2s7.4-7.4,7.4-7.4s13.2,0.1,24.5-8c0,0,42-5.3,56.8-7.9
			s51.6-23.8,51.6-23.8s42.4-42.9,63-67.5c19.1-22.8,32.7-19.1,32.7-19.1L621.9,394.1z"/>
		<path class="st8" d="M639.2,364.6l-17.9,29c0,0,12.3,43.1,30.8,59.1c18.5,16,34.5,9.9,43.1,28.3s3.7,48.1,3.7,48.1
			s103.5,32,124.4-20.9c0,0-8.7-125-57.2-160.4c0,0-16.5,19.3-69.1-26.3l-11.1,4.9c0,0,20.9,13.3,6.2,33c0,0-9.9,7.4-16.9,11.9
			c-7.4,4.8-16.2,4-23.8-0.6C647.4,368.2,644,365.8,639.2,364.6z"/>
	</g>
	<g>
		<g>
			<path class="st9" d="M235.7,153.3c0,0,12.3,154.2-20.9,215.7L189,420c-12-26-54.4-114.8-16.3-174.9
				C210.1,186.2,235.7,153.3,235.7,153.3z"/>
			<path class="st10" d="M180.2,551.2c0,0-9.2-58.6-18.8-61.9c0,0-66.2-58.8-138.9-81l67.8,6.2l11.1,16.5v-11.5
				c0,0,55.4,4.8,62.8,35.6l6.3,34.2L180.2,551.2z"/>
			<path class="st11" d="M214.7,469.9c0,0,11,18.9,39.4-21.4c0,0,44.4-21.8,59.2-47.6c0,0-55.8,1-78.4,30.1
				C234.9,431,214.7,449,214.7,469.9z"/>
			<path class="st11" d="M223.6,417.4c0,0,20.4,13.5,31.6-37.2c0,0,1.2-11.7,21-21.4s42-43.4,37-51.2c0,0-31.9,12-60.3,8.9
				c0,0-42.3,12.7-44,64.6S223.6,417.4,223.6,417.4z"/>
			<path class="st11" d="M189.3,380.1c0,0-25.1,6-24.5-56.9c0.6-62.8,31.4-132.1,31.4-132.1s12.4-18.3,23.5,7.6s6.2,108.8,6.2,108.8
				S226.8,403.7,189.3,380.1z"/>
			<path class="st11" d="M149.4,431c0,0,15.6,5.7,10.9-30.1c-4.7-35.7-56.4-84.4-56.4-84.4s-24.7-29-39.5-25.3
				S122.3,463.5,149.4,431z"/>
			<path class="st10" d="M209,381c0,0-22.5-74,20.2-129s73.4-72.9,73.4-72.9s13-3.9,5.9,7.6s-40.3,46.1-50.5,97.5
				C248,335.6,209,381,209,381z"/>
			<path class="st11" d="M22.5,267.8c0,0,114.1,43.3,124.8,101.1c0,0,0,16.2,11.6,6.2c0,0,24.3-30.4-16-72.6
				C142.9,302.6,77.9,249.4,22.5,267.8z"/>
			<path class="st12" d="M42.2,267.8c6.9,1.9,13.7,4.3,20.4,7c6.7,2.7,13.2,5.8,19.5,9.2c12.7,6.8,24.7,14.9,35.6,24.4
				c5.4,4.8,10.5,9.9,15.2,15.4c4.7,5.5,8.9,11.4,12.7,17.6c3.8,6.2,7,12.7,9.6,19.4c0.6,1.7,1.3,3.4,1.9,5.1l1.7,5.1
				c1.1,3.4,2.3,6.8,3.3,10.3c7.9,27.7,13.7,55.9,18,84.3c4.4,28.4,7.5,57,9.3,85.6c-1.4-14.3-3-28.5-4.9-42.8
				c-1.8-14.2-3.9-28.4-6.3-42.5c-1.2-7.1-2.5-14.1-3.7-21.2c-0.6-3.5-1.4-7-2.1-10.5c-0.7-3.5-1.4-7-2.2-10.5l-2.3-10.5
				c-0.7-3.5-1.7-7-2.5-10.4c-1.6-7-3.7-13.8-5.6-20.7c-1-3.4-2.1-6.8-3.2-10.2l-1.6-5.1c-0.6-1.7-1.2-3.3-1.8-5
				c-2.6-6.6-5.6-13.1-9.3-19.1c-3.7-6.1-7.8-11.9-12.4-17.4c-4.6-5.4-9.6-10.6-14.8-15.4c-10.6-9.6-22.4-17.8-34.9-24.8
				C69,278.1,55.9,272.2,42.2,267.8z"/>
			<path class="st10" d="M70.6,241c0,0,19,16.5,52.3,16.6c10.1,0,19.8,3.4,27.6,9.9c17.7,14.8,43.2,44.6,29.8,86.6l-6.5,26.2
				C173.7,380.1,75.5,289.2,70.6,241z"/>
			<g>
				<path class="st12" d="M160.3,479.8c-4.4-3.2-8.7-6.4-13.2-9.5c-4.4-3.1-8.9-6.1-13.4-9.1c-9-5.9-18.2-11.6-27.6-16.9l-7-4
					l-7.2-3.8c-2.4-1.3-4.8-2.5-7.2-3.6l-3.6-1.8c-1.2-0.6-2.4-1.2-3.6-1.7l-7.4-3.3c-2.4-1.1-5-2-7.5-3.1
					c-4.9-2.2-10.1-3.7-15.2-5.7c10.5,2.6,20.8,6,30.8,10.3c10,4.3,19.7,9.1,29.1,14.5c9.4,5.4,18.6,11.2,27.4,17.5
					C143.6,465.9,152.2,472.6,160.3,479.8z"/>
				<path class="st12" d="M189.3,551.2c2.6-11.2,5.3-22.4,8-33.6l8.2-33.6l8.4-33.5c2.8-11.2,5.6-22.3,8.5-33.5l0,0.2
					c0.7-5.2,2.1-10.1,3.7-15c1.6-4.9,3.5-9.6,5.8-14.2c4.4-9.2,9.9-17.9,16.3-25.9c6.4-7.9,13.6-15.3,21.5-21.7
					c7.9-6.4,16.3-12.2,25.2-17.1c-8.6,5.4-16.9,11.3-24.5,18c-7.6,6.6-14.6,14-20.8,22c-3.1,4-5.9,8.2-8.5,12.5
					c-2.6,4.3-5.1,8.7-7.2,13.3c-2.1,4.6-4,9.2-5.5,14c-1.5,4.8-2.8,9.7-3.5,14.5l0,0.1l0,0.1c-2.8,11.2-5.8,22.3-8.6,33.5
					l-8.7,33.4l-8.9,33.4C195.4,529,192.5,540.1,189.3,551.2z"/>
				<path class="st12" d="M189.3,556.3c-1.5-7.2-1.9-14.5-2.4-21.8c-0.4-7.3-0.6-14.6-0.7-22c-0.1-14.6,0.1-29.3,0.5-43.9
					c0.8-29.3,2.5-58.5,4.2-87.7c0.9-14.6,2-29.2,3-43.8c1.1-14.6,2.1-29.2,3.4-43.8l3.8-43.7c1.4-14.6,2.7-29.1,4.3-43.7l-6.2,87.6
					c-2,29.2-4.1,58.4-5.8,87.6c-1.9,29.2-3.5,58.4-4.7,87.6c-0.6,14.6-1.1,29.2-1.2,43.8c-0.1,7.3-0.1,14.6,0.1,21.9
					c0,1.8,0.2,3.6,0.2,5.5c0.1,1.8,0.1,3.7,0.3,5.5l0.5,5.5L189.3,556.3z"/>
				<path class="st12" d="M302.7,186.7c-5.7,5.8-11.1,11.9-16.3,18.2c-5.2,6.3-10.2,12.7-14.9,19.3c-9.5,13.2-18.2,27-25.9,41.3
					c-2,3.6-3.8,7.2-5.6,10.8c-1.7,3.7-3.5,7.3-5.1,11.1c-3.3,7.4-6.3,15-8.8,22.7c-1.4,3.8-2.5,7.7-3.7,11.6c-1,3.9-2.2,7.8-3,11.8
					c-1,3.9-1.7,7.9-2.5,11.9l-2.4,12c-6.2,32-11.4,64.1-15.2,96.5c-1.9,16.2-3.5,32.4-4.2,48.6c-0.4,8.1-0.6,16.2-0.4,24.4
					c0.2,8.1,0.6,16.2,1.7,24.2l-2.2,0.1c0.5-16.1,2.3-32.2,5.8-47.9c1.8-7.8,4.1-15.6,7.5-23c1.7-3.7,3.7-7.2,6.2-10.5
					c1.3-1.6,2.7-3.1,4-4.6l4.4-4.2c6.1-5.3,12.9-9.7,19.8-13.9c6.9-4.1,13.9-8,20.9-11.9c7-3.9,14-7.9,20.7-12.3
					c6.7-4.4,13.2-9.1,19-14.6c-5.7,5.6-12.2,10.5-18.8,15c-6.7,4.5-13.6,8.6-20.5,12.6c-6.9,4-13.9,8-20.7,12.2
					c-6.8,4.2-13.5,8.7-19.4,14l-4.3,4.1c-1.3,1.5-2.6,3-3.9,4.5c-2.4,3.1-4.3,6.6-6,10.2c-3.3,7.2-5.5,15-7.2,22.7
					c-1.7,7.8-2.9,15.7-3.8,23.6c-0.9,7.9-1.5,15.9-1.7,23.9l-2.2,0.1c-1.2-8.1-1.7-16.3-1.8-24.5c-0.2-8.2,0-16.4,0.4-24.5
					c0.7-16.3,2.2-32.6,4.1-48.8c3.9-32.4,9.2-64.6,15.5-96.6l2.4-12c0.8-4,1.5-8,2.5-12c0.9-4,2.1-7.9,3.1-11.9
					c1.2-3.9,2.4-7.8,3.8-11.7c2.7-7.7,5.7-15.3,9.1-22.8c1.6-3.7,3.5-7.4,5.2-11.1c1.9-3.6,3.7-7.3,5.7-10.8
					c3.9-7.2,8.1-14.2,12.5-21c4.5-6.8,9.1-13.5,14-20.1c4.9-6.5,10-12.9,15.3-19.1C291.4,198.5,296.9,192.4,302.7,186.7z"/>
				<path class="st12" d="M70.6,299.9c7.3,9.3,14.3,18.7,21.1,28.3c6.9,9.6,13.5,19.3,19.9,29.2c12.8,19.8,24.6,40.3,34.2,61.9
					c4.6,10.9,8.5,22.1,12,33.3c3.5,11.3,6.6,22.7,9.5,34.1c2.9,11.4,5.4,23,7.8,34.5c2.4,11.6,4.5,23.1,6.3,34.8l-2.3-0.2
					c2.3-6.6,3.7-13.4,4.8-20.3l0.7-5.2c0.2-1.7,0.3-3.5,0.5-5.2c0.4-3.5,0.5-7,0.7-10.5c0.6-14,0.1-28.1-0.8-42.2
					c-0.9-14-2.5-28.1-4.3-42c-1.8-14-4.1-27.9-6.5-41.8c-2.4-13.9-5.1-27.7-8.1-41.5l-1.2-5.2l-0.3-1.3l-0.4-1.2l-0.8-2.5
					c-0.5-1.7-1.2-3.3-1.9-4.9c-0.7-1.6-1.4-3.2-2.2-4.8c-3.2-6.2-7.1-12.1-11.4-17.6c-8.7-11-19-20.8-30-29.5
					c-11.1-8.7-22.8-16.6-35.1-23.5c12.5,6.6,24.3,14.4,35.5,22.9c11.2,8.6,21.7,18.2,30.6,29.2c4.4,5.5,8.4,11.4,11.7,17.8
					c0.8,1.6,1.5,3.2,2.3,4.8c0.6,1.7,1.4,3.3,1.9,5l0.8,2.6l0.4,1.3l0.3,1.3l1.2,5.2c3.1,13.8,6,27.6,8.5,41.5
					c2.6,13.9,4.8,27.8,6.7,41.8c1.9,14,3.5,28,4.4,42.1c1,14.1,1.5,28.3,0.9,42.4c-0.2,3.5-0.3,7.1-0.7,10.6
					c-0.2,3.5-0.8,7.1-1.2,10.6c-1.1,7-2.6,14-5,20.8l-1.6,4.5l-0.7-4.7c-1.8-11.6-3.9-23.2-6.2-34.7c-2.3-11.5-4.9-23-7.7-34.4
					c-5.7-22.8-12.2-45.5-21-67.2c-2.4-5.3-4.7-10.8-7.4-16c-1.3-2.6-2.6-5.3-4-7.9l-4.2-7.8c-5.7-10.3-11.7-20.4-17.9-30.4
					c-6.2-10-12.7-19.8-19.4-29.5C84.5,318.8,77.7,309.2,70.6,299.9z"/>
			</g>
		</g>
		<g>
			<path class="st13" d="M149.4,545.1h79.8c0,0,0.9,70.3-13.6,83.8h-53.2C162.4,628.9,150.6,610.4,149.4,545.1z"/>
			<polygon class="st14" points="228.2,577.5 201.3,577.5 164.8,567 228.8,567 			"/>
		</g>
	</g>
</g>
</svg>
