<svg version="1.1" id="Layer_1" xmlns="http://www.w3.org/2000/svg" x="0" y="0" viewBox="0 0 1000 1000" style="enable-background:new 0 0 1000 1000" xml:space="preserve"><style>.st3{fill:#fff}.st6{fill:#3270b8}.st8{opacity:.45}.st9{fill:#3e3f3f}.st13{fill:#2d3e52}.st17{fill:#8923de}</style><switch><g><path d="M650.58 928.68s-529.85 93.6-553.64-172.91 69.2-449.5 195.66-504.47S775.65 92.66 825.75 333c50.09 240.33 89.73 235.87 28.67 361.84S753.69 884.26 650.58 928.68z" style="fill:#e9daf8"/><path d="M624.11 874.01S127.66 961.71 105.37 712s64.84-421.16 183.33-472.66 452.6-148.65 499.53 76.54c46.94 225.18 84.08 221.01 26.86 339.03-57.21 118.02-94.37 177.48-190.98 219.1z" style="fill:#caa6ee"/><path d="M750.15 848.47 350.87 952.22c-16.89 4.39-34.14-5.75-38.53-22.64L143.07 278.15c-4.39-16.89 5.75-34.14 22.64-38.53l399.28-103.75c16.89-4.39 34.14 5.75 38.53 22.64l169.27 651.43c4.38 16.89-5.75 34.14-22.64 38.53z" style="fill:#252527"/><path class="st3" d="M706.12 814.83 372.96 901.4c-16.89 4.39-34.14-5.75-38.53-22.64L186.68 310.15c-4.39-16.89 5.75-34.14 22.64-38.53l333.16-86.57c16.89-4.39 34.14 5.75 38.53 22.64L728.75 776.3c4.39 16.89-5.74 34.15-22.63 38.53z"/><circle cx="331.66" cy="426.23" r="57.41" style="fill:#ff4f5b"/><path class="st3" d="m332.54 455.75-32.86-20.66 6.14-9.76 22.65 14.24 23.21-40.77 10.02 5.71z"/><g style="opacity:.63"><circle class="st6" cx="368.11" cy="566.51" r="57.41"/><path class="st3" d="m368.99 596.03-32.85-20.66 6.14-9.76 22.65 14.24 23.21-40.76 10.02 5.7z"/></g><circle cx="406.19" cy="706.79" r="57.41" style="opacity:.62;fill:#3270b8"/><path class="st3" d="m407.06 736.31-32.85-20.66 6.14-9.76L403 720.13l23.21-40.76 10.02 5.7z"/><g class="st8"><path transform="rotate(-15.42 449.97 374.448)" class="st9" d="M396.22 368.7h107.35v11.53H396.22z"/></g><g class="st8"><path transform="rotate(-14.35 539.16 351.93)" class="st9" d="M521.48 346.1h35.21v11.53h-35.21z"/></g><g class="st8"><path transform="rotate(-14.88 512.3 397.1)" class="st9" d="M458.71 391.39h107.35v11.53H458.71z"/></g><g class="st8"><path transform="rotate(-15.956 423.965 422.63)" class="st9" d="M406.37 416.88h35.21v11.53h-35.21z"/></g><g style="opacity:.61"><path transform="rotate(-15.42 489.41 514.748)" class="st6" d="M435.64 509h107.35v11.53H435.64z"/><path transform="rotate(-14.35 578.583 492.247)" class="st6" d="M560.9 486.39h35.21v11.53H560.9z"/><path transform="rotate(-14.88 551.712 537.373)" class="st6" d="M498.13 531.68h107.35v11.53H498.13z"/><path transform="rotate(-15.956 463.385 562.92)" class="st6" d="M445.79 557.17H481v11.53h-35.21z"/></g><g style="opacity:.71"><path transform="rotate(-15.42 526.393 655.049)" class="st6" d="M472.61 649.29h107.35v11.53H472.61z"/><path transform="rotate(-14.35 615.55 632.563)" class="st6" d="M597.87 626.68h35.21v11.53h-35.21z"/><path transform="rotate(-14.88 588.67 677.646)" class="st6" d="M535.1 671.98h107.35v11.53H535.1z"/><path transform="rotate(-15.956 500.35 703.211)" class="st6" d="M482.76 697.46h35.21v11.53h-35.21z"/></g><g><path d="m484.9 217.47-16.55-63.69c-2.62-10.09-12.93-16.15-23.03-13.53l-32.36 8.41a59.44 59.44 0 0 0-2.55-6.17c-13.91-28.79-48.53-40.86-77.32-26.95-7.2 3.48-13.35 8.25-18.31 13.9-11.49 13.08-16.59 30.87-13.53 48.24l-30.94 8.04c-10.09 2.62-16.15 12.93-13.53 23.03l16.55 63.69c2.62 10.09 12.93 16.15 23.03 13.53l175.02-45.48c10.09-2.62 16.14-12.93 13.52-23.02z" style="fill:#f8ac0e"/><circle class="st3" cx="356.45" cy="153.53" r="20.17"/><path class="st3" d="M470.17 226.36 292.58 272.5c-4.84 1.26-9.77-1.64-11.03-6.48l-4.95-19.04c-1.26-4.84 1.64-9.77 6.48-11.03l177.59-46.14c4.84-1.26 9.77 1.64 11.03 6.48l4.95 19.04a9.054 9.054 0 0 1-6.48 11.03z"/></g><g><path class="st13" d="m816.27 448.36-98.48-26.28-8.5 31.86 28.91 7.71-6.51 20.56 35.96 9.95 3.86-21.62 36.26 9.68z"/><path transform="rotate(-25.338 843.935 543.312)" class="st13" d="M826.22 525.59h35.28v35.28h-35.28z"/><circle cx="717.88" cy="617.06" r="143.62" style="fill:#8922e1"/><circle class="st3" cx="717.88" cy="617.06" r="114.95"/><circle class="st13" cx="715.3" cy="621.15" r="16.39"/><path class="st13" d="M715.31 629.22c-.77 0-1.55-.11-2.32-.34-4.27-1.28-6.7-5.78-5.42-10.05l28.03-93.6c1.28-4.27 5.78-6.69 10.05-5.42 4.27 1.28 6.7 5.78 5.42 10.05l-28.03 93.6a8.08 8.08 0 0 1-7.73 5.76z"/><g style="opacity:.57"><circle class="st17" cx="756.46" cy="686.84" r="16.39"/><circle class="st17" cx="789.24" cy="637.54" r="16.39"/><path class="st17" d="M717.88 716.85c-55.02 0-99.79-44.76-99.79-99.79s44.76-99.79 99.79-99.79c5.09 0 9.22 4.13 9.22 9.22 0 5.09-4.13 9.22-9.22 9.22-44.85 0-81.34 36.49-81.34 81.34s36.49 81.34 81.34 81.34c5.09 0 9.22 4.13 9.22 9.22.01 5.11-4.13 9.24-9.22 9.24z"/></g></g></g></switch></svg>