<svg version="1.1" id="Layer_1" xmlns="http://www.w3.org/2000/svg" x="0" y="0" viewBox="0 0 128 128" xml:space="preserve"><style>.st0{fill:#d6b2f5}</style><switch><g><circle class="st0" cx="64" cy="21.7" r="13.6"/><circle class="st0" cx="113.2" cy="32.7" r="13.6"/><path d="M63 37.7c-7.4 0-13.4-6-13.4-13.4s6-13.4 13.4-13.4 13.4 6 13.4 13.4-6 13.4-13.4 13.4zm0-21.8c-4.6 0-8.4 3.8-8.4 8.4s3.8 8.4 8.4 8.4 8.4-3.8 8.4-8.4-3.7-8.4-8.4-8.4zM113 48.5c-7.4 0-13.4-6-13.4-13.4s6-13.4 13.4-13.4 13.4 6 13.4 13.4-6 13.4-13.4 13.4zm0-21.8c-4.6 0-8.4 3.8-8.4 8.4 0 4.6 3.8 8.4 8.4 8.4 4.6 0 8.4-3.8 8.4-8.4 0-4.6-3.8-8.4-8.4-8.4zM6 113.7c-.6 0-1.2-.2-1.7-.7-1-.9-1.1-2.5-.1-3.5 1.1-1.2 28.2-29.8 63.8-29.8h.5c20.3.2 39.2 9.7 56.1 28.3.9 1 .8 2.6-.2 3.5s-2.6.8-3.5-.2C105 93.9 87.4 84.9 68.5 84.7H68c-33.4 0-59.9 27.9-60.2 28.2-.4.5-1.1.8-1.8.8z"/><path d="M33.7 111.7c-1.1 0-2.1-.7-2.4-1.9L15.4 49.5c-.4-1.3.4-2.7 1.8-3.1 1.3-.4 2.7.4 3.1 1.8l15.9 60.4c.4 1.3-.4 2.7-1.8 3.1h-.7zM65.4 104.5c-1.4 0-2.5-1.1-2.5-2.5l-1-64.8c0-1.4 1.1-2.5 2.5-2.5s2.5 1.1 2.5 2.5l1 64.8c0 1.4-1.1 2.5-2.5 2.5zM95.5 110.5c-.2 0-.4 0-.6-.1-1.3-.3-2.2-1.7-1.8-3l14.7-61.2c.3-1.3 1.7-2.2 3-1.8 1.3.3 2.2 1.7 1.8 3l-14.7 61.2c-.3 1.2-1.3 1.9-2.4 1.9z"/><circle class="st0" cx="14.6" cy="34" r="13.6"/><path d="M15 49.7c-7.4 0-13.4-6-13.4-13.4s6-13.4 13.4-13.4 13.4 6 13.4 13.4-6 13.4-13.4 13.4zm0-21.8c-4.6 0-8.4 3.8-8.4 8.4s3.8 8.4 8.4 8.4c4.6 0 8.4-3.8 8.4-8.4s-3.8-8.4-8.4-8.4z"/></g></switch></svg>