<svg version="1.1" id="Layer_1" xmlns="http://www.w3.org/2000/svg" x="0" y="0" viewBox="0 0 128 128" style="enable-background:new 0 0 128 128" xml:space="preserve"><style>.st0{fill:#d6b2f5}.st1{fill:#231f20}</style><ellipse class="st0" cx="31.7" cy="14.4" rx="11.3" ry="10.7"/><ellipse class="st0" cx="67.7" cy="33.4" rx="11.3" ry="10.7"/><ellipse class="st0" cx="72.7" cy="89.4" rx="18.3" ry="17.4"/><path class="st1" d="M32 26c-5.5 0-10-4.5-10-10S26.5 6 32 6s10 4.5 10 10-4.5 10-10 10zm0-15c-2.8 0-5 2.2-5 5s2.2 5 5 5 5-2.2 5-5-2.2-5-5-5zM68 44c-5.5 0-10-4.5-10-10s4.5-10 10-10 10 4.5 10 10-4.5 10-10 10zm0-15c-2.8 0-5 2.2-5 5s2.2 5 5 5 5-2.2 5-5-2.2-5-5-5zM15.6 112.4h-.4c-2-.1-3.7-.8-5.1-2-2.6-2.2-3.3-5.9-1.9-9.1L17 81.9l2.8-47.7c.2-3.4 2.5-6.2 5.8-7.1 2.9-.7 5.6-.9 8.2-.3 3.6.7 6.2 3.9 6.2 7.6v5l7.6.6c2.1 0 6.2-.1 8.4 3.5 1.3 2.1 1.1 3.9.7 5-.7 1.9-2.5 3.3-5.4 4.3-1.6.5-7.5.1-13.3-.5V59l8.8 20.6c.1.3.2.6.2 1v24.1c0 2.2-1 4.3-2.8 5.6-2.5 1.8-5.3 2.1-8.1 1-2.5-1-4.1-3.5-4.1-6.3V84.1l-1-1.8v4.2c0 .3-.1.7-.2 1l-9 20.8c-1.2 2.5-3.6 4.1-6.2 4.1zm8.7-68.8-2.3 39c0 .3-.1.6-.2.9l-9 19.8c-.5 1.1-.3 2.5.6 3.2.6.5 1.3.7 2.2.8.7 0 1.5-.4 1.8-1.1L26 86V72.5c0-1.1.8-2.1 1.9-2.4 1.1-.3 2.3.2 2.8 1.2l6 11c.2.4.3.8.3 1.2v21.4c0 .8.4 1.5 1 1.7 1.2.5 2.2.3 3.2-.4.5-.3.7-.9.7-1.5V81.1l-8.8-20.6c-.1-.3-.2-.6-.2-1v-8c-.1 0-.1-.1-.2-.2l-8.4-7.7zm11.3 3.5c6 .7 12.8 1.2 14.2 1 1.9-.7 2.2-1.3 2.2-1.3s0-.2-.3-.7c-.5-.9-1.6-1.2-4.1-1.1h-.2l-10.1-.8c-1.3 0-2.3-1.1-2.3-2.4v-7.3c0-1.3-.9-2.4-2.2-2.7-1.8-.4-3.8-.3-5.9.2-1.2.3-2 1.3-2.1 2.5l-.2 2.8c.2.1.4.2.5.4l10.5 9.4z"/><path class="st1" d="M33.4 61.3H22.5c-1.4 0-2.5-1.1-2.5-2.5s1.1-2.5 2.5-2.5h10.9c1.4 0 2.5 1.1 2.5 2.5s-1.1 2.5-2.5 2.5zM77.5 51.2h-5.1l-.2-1.4c-1.7-1.5-4.1-.6-5.5.2L69 68.2c.2 1.4-.8 2.6-2.2 2.8-1.4.2-2.6-.8-2.8-2.2L61.5 49c-.1-.9.3-1.8 1-2.3 3-2.2 9.7-4.8 14 .4.3.4.5.8.5 1.2l.5 2.9z"/><path class="st1" d="M116 93.8c0 .5-.7 5-4.4 7-1 .5-2.1.8-3.3.8-1.8 0-3.8-.6-6-1.8-.5-.3-.9-.8-1.1-1.3L95.8 84h-4.3c-1.4 0-2.5-1.1-2.5-2.5s1.1-2.5 2.5-2.5h6c1 0 2 .6 2.3 1.6l5.7 15.1c1.7.8 3 1 3.8.6.9-.5 1.4-1.8 1.6-2.6L103.1 71H77.5c-1.2 0-2.3-.9-2.5-2.1l-1.4-9.6h5l1 6.8h25.2c1.1 0 2 .7 2.4 1.7l8.6 25c.2.2.2.6.2 1zM60.5 75.5c-1.3 0-2.4-1-2.5-2.3l-2-27.5c-.1-1.4.9-2.6 2.3-2.7 1.4-.1 2.6.9 2.7 2.3l2 27.5c.1 1.4-.9 2.6-2.3 2.7h-.2z"/><path class="st1" d="M72.5 112C60.1 112 50 101.9 50 89.5S60.1 67 72.5 67 95 77.1 95 89.5 84.9 112 72.5 112zm0-40C62.9 72 55 79.9 55 89.5S62.9 107 72.5 107 90 99.1 90 89.5 82.1 72 72.5 72zM117.7 107H99.5c-1.4 0-2.5-1.1-2.5-2.5s1.1-2.5 2.5-2.5h18.2c1.4 0 2.5 1.1 2.5 2.5s-1.1 2.5-2.5 2.5z"/><path class="st1" d="M72.5 105C64 105 57 98 57 89.5S64 74 72.5 74 88 81 88 89.5 81 105 72.5 105zm0-26C66.7 79 62 83.7 62 89.5S66.7 100 72.5 100 83 95.3 83 89.5 78.3 79 72.5 79z"/><path class="st1" d="M80.5 99c-.7 0-1.3-.3-1.8-.8l-15-16c-.9-1-.9-2.6.1-3.5 1-.9 2.6-.9 3.5.1l15 16c.9 1 .9 2.6-.1 3.5-.5.5-1.1.7-1.7.7z"/><path class="st1" d="M64.5 100c-.7 0-1.3-.3-1.8-.8-.9-1-.9-2.6.1-3.5l16-15.1c1-.9 2.6-.9 3.5.1.9 1 .9 2.6-.1 3.5l-16 15.1c-.5.5-1.1.7-1.7.7z"/><path class="st1" d="M84.1 91.9H84L61.1 91c-1.4-.1-2.5-1.2-2.4-2.6s1.2-2.4 2.6-2.4l22.9.9c1.4.1 2.5 1.2 2.4 2.6-.1 1.4-1.2 2.4-2.5 2.4z"/><path class="st1" d="M72.6 102.5c-1.4 0-2.5-1.2-2.5-2.5l.4-22.2c0-1.4 1.2-2.5 2.5-2.5 1.4 0 2.5 1.2 2.5 2.5l-.4 22.2c0 1.4-1.1 2.5-2.5 2.5z"/><g><path class="st1" d="M97.3 61.8H76.2c-1.4 0-2.5-1.1-2.5-2.5s1.1-2.5 2.5-2.5h21.1c.8 0 1.5-.3 1.9-.7.2-.2.4-.4-.2-1.2-.5-.7-1.4-1.2-2.3-1.2H75c-1.4 0-2.5-1.1-2.5-2.5s1.1-2.5 2.5-2.5h21.6c2.6 0 4.9 1.2 6.4 3.2 1.9 2.7 1.8 5.5-.3 7.7-1.4 1.4-3.3 2.2-5.4 2.2z"/></g></svg>