<svg version="1.1" id="Layer_1" xmlns="http://www.w3.org/2000/svg" x="0" y="0" viewBox="0 0 128 128" style="enable-background:new 0 0 128 128" xml:space="preserve"><style>.st1{fill:#231f20}</style><path d="M35.5 38c0-16.6 12.7-30 28.4-30s28.4 13.4 28.4 30" style="fill:#d6b2f5"/><path class="st1" d="M86.5 38.5c-1.4 0-2.5-1.1-2.5-2.5 0-11-9-20-20-20s-20 9-20 20c0 1.4-1.1 2.5-2.5 2.5S39 37.4 39 36c0-13.8 11.2-25 25-25s25 11.2 25 25c0 1.4-1.1 2.5-2.5 2.5z"/><path class="st1" d="M85 50c-1 0-1.9-.6-2.3-1.6-.5-1.3.1-2.7 1.4-3.3 4.6-1.8 6.6-3.1 7.4-3.8-.4-.1-.8-.3-1.2-.4-12.5-.6-45.9-1.4-52.9.9-.1 0-.2.1-.3.1 1.5 1 4.4 2.3 7.2 3.2 1.3.4 2.1 1.8 1.6 3.1-.4 1.3-1.8 2.1-3.1 1.6-7.6-2.4-11.5-5.1-11.5-8.2 0-2.1 1.5-3.6 4.5-4.6 9.2-3.1 50.2-1.3 54.9-1.1h.3c1.3.2 5.7 1.2 6.1 4.6.3 3.2-2.9 5.9-11.1 9.2-.4.2-.7.3-1 .3z"/><path class="st1" d="M55.8 40.3c-1.4 0-2.5-1.1-2.5-2.5V15.1c0-1.4 1.1-2.5 2.5-2.5s2.5 1.1 2.5 2.5v22.8c0 1.3-1.1 2.4-2.5 2.4zM70.6 38.5c-1.4 0-2.5-1.1-2.5-2.5V15.1c0-1.4 1.1-2.5 2.5-2.5s2.5 1.1 2.5 2.5V36c0 1.4-1.1 2.5-2.5 2.5z"/><path class="st1" d="M63.7 71.3c-5.3 0-9.8-1.8-13.3-5.4-9.1-9.2-9-26.8-9-27.5 0-1.4 1.2-2.5 2.5-2.5 1.4 0 2.5 1.2 2.5 2.5 0 .2-.1 16.3 7.5 23.9 2.7 2.7 6 4 10 3.9 4.5-.1 8-1.5 10.7-4.5 7.3-7.7 6.4-23 6.4-23.2-.1-1.4 1-2.6 2.3-2.7 1.4-.1 2.6.9 2.7 2.3 0 .7 1.1 17.6-7.6 27-3.7 4-8.5 6-14.3 6.1-.2.1-.3.1-.4.1z"/><path class="st1" d="M11.5 124c-.9 0-1.8-.5-2.2-1.4-.5-1-.3-2.2.6-3 .3-.5 1.9-3.4 4.2-15.6C17.3 87.1 27.8 81.3 45 77c4.6-1.2 7.4-2.9 8.2-5 .8-2.3-1-4.8-1-4.8-.8-1.1-.6-2.7.5-3.5 1.1-.8 2.7-.6 3.5.5.1.2 3.4 4.6 1.7 9.5-1.4 3.8-5.3 6.6-11.7 8.2-15.9 4-24.4 8.6-27.1 23-3.2 17.2-5.5 18.3-6.3 18.8-.5.2-.9.3-1.3.3zm-1.7-4.3zm.6-.4zm0 0zm0 0zM114.9 124c-.3 0-.6-.1-.9-.2-.9-.4-3.8-1.5-6-18-1.8-13.6-10-17.2-25.4-22.8-6.7-2.4-10.7-5.8-12-10-1.5-4.7 1.2-8.6 1.3-8.8.8-1.1 2.4-1.4 3.5-.6 1.1.8 1.4 2.3.6 3.5-.1.1-1.4 2.1-.6 4.5.8 2.6 3.9 4.9 8.9 6.7 16.3 5.9 26.4 10.4 28.6 26.8 1.5 11.1 3.1 13.9 3.5 14.3.9.7 1.2 1.9.8 2.9-.3 1.1-1.3 1.7-2.3 1.7zm1.6-4.4zm-.6-.4zm0 0zm0 0z"/><path class="st1" d="M50.7 96.1c-.2 0-.5 0-.7-.1-.8-.2-1.4-.8-1.6-1.5l-5.2-14.1c-.5-1.3.2-2.7 1.5-3.2s2.7.2 3.2 1.5l4.1 11 8-6.1-7.1-7.2c-1-1-1-2.6 0-3.5 1-1 2.6-1 3.5 0l9.1 9.3c.5.5.8 1.2.7 1.9-.1.7-.4 1.4-1 1.8l-13 9.9c-.4.1-.9.3-1.5.3z"/><path class="st1" d="M75.8 96.1c-.6 0-1.1-.2-1.6-.6l-12.1-9.9c-.6-.5-.9-1.1-.9-1.9 0-.7.3-1.4.8-1.9l10.4-9.3c1-.9 2.6-.8 3.5.2.9 1 .8 2.6-.2 3.5l-8.2 7.3 7.1 5.8 4-10.7c.5-1.3 1.9-1.9 3.2-1.5 1.3.5 1.9 1.9 1.5 3.2l-5.2 13.9c-.3.8-.9 1.3-1.7 1.5-.2.4-.4.4-.6.4z"/><path class="st1" d="M70.6 117.5H57.5c-.7 0-1.4-.3-1.9-.9-.5-.6-.7-1.3-.5-2 1.2-6.7 3-17.6 3-20 0-1.6-.6-2-.6-2 .1.1.2.1.2.1l2-4.6c.4.2 3.5 1.6 3.5 6.6 0 2.7-1.6 12.8-2.5 17.9h7.1l-3.4-19.1c-.1-.3-.1-.7 0-1l.9-3.5c.3-1.3 1.7-2.2 3-1.8 1.3.3 2.2 1.7 1.8 3l-.7 3 3.9 21.5c.1.7-.1 1.5-.5 2-.8.5-1.5.8-2.2.8zM99.3 122c-1.4 0-2.5-1.1-2.5-2.5v-6H82v6c0 1.4-1.1 2.5-2.5 2.5s-2.5-1.1-2.5-2.5V111c0-1.4 1.1-2.5 2.5-2.5h19.9c1.4 0 2.5 1.1 2.5 2.5v8.5c-.1 1.4-1.2 2.5-2.6 2.5z"/><path class="st1" d="M89.4 113.5c-1.4 0-2.5-1.1-2.5-2.5v-6.5c0-1.4 1.1-2.5 2.5-2.5s2.5 1.1 2.5 2.5v6.5c0 1.3-1.1 2.5-2.5 2.5zM96.5 113.5c-1.4 0-2.5-1.1-2.5-2.5v-9.5c0-1.4 1.1-2.5 2.5-2.5s2.5 1.1 2.5 2.5v9.5c0 1.3-1.1 2.5-2.5 2.5zM116.8 124H8.5c-1.4 0-2.5-1.1-2.5-2.5s1.1-2.5 2.5-2.5h108.2c1.4 0 2.5 1.1 2.5 2.5s-1 2.5-2.4 2.5zM55.8 15.1h-.3c-1.4-.2-2.3-1.5-2.1-2.8.3-2.6 3.1-7.5 11.2-7.4C74.4 5 76 11.8 76.1 12c.3 1.3-.5 2.7-1.9 3-1.4.3-2.7-.5-3-1.9-.1-.3-1.1-3.2-6.8-3.3-5.4-.1-6.1 2.8-6.2 3.1-.1 1.3-1.2 2.2-2.4 2.2z"/></svg>