<svg version="1.1" id="Layer_1" xmlns="http://www.w3.org/2000/svg" x="0" y="0" viewBox="0 0 128 128" style="enable-background:new 0 0 128 128" xml:space="preserve"><style>.st0{fill:#d6b2f5}.st1{fill:#231f20}</style><ellipse class="st0" cx="101.5" cy="38.8" rx="10.5" ry="10"/><path class="st0" d="M9.9 26.3c0-8.1 5.6-14.6 12.5-14.6S35 18.2 35 26.3"/><path class="st1" d="M33 29h-5v.5c0 3-2.5 5.5-5.5 5.5S17 32.5 17 29.5V29h-5v.5C12 35.3 16.7 40 22.5 40S33 35.3 33 29.5V29z"/><path class="st1" d="M16.1 115c-3 0-5.5-2.4-6.6-4.1-.4-.4-.5-.9-.5-1.4V81h-.5c-3.7-.2-6.7-3.4-6.7-7.3l.2-17c-.7-6.2.4-11 3.3-14.2 3.8-4.1 9.1-3.8 9.3-3.8 1.4.1 2.4 1.2 2.4 2.6-.1 1.4-1.2 2.4-2.6 2.4-.1 0-3.3-.1-5.4 2.3-1.9 2-2.6 5.4-2 10.2v.3l-.2 17.2c0 1.2.9 2.2 1.9 2.3.3 0 .4 0 .6-.4.5-1.1 1.7-1.6 2.8-1.4 1.1.3 1.9 1.3 1.9 2.4v32c.6.7 1.6 1.6 2.4 1.3.4-.1.6-.6.6-1.1V80.3c0-.7.3-1.3.8-1.8s1.1-.7 1.8-.7l7 .2c1.4 0 2.4 1.1 2.4 2.5v28.2c0 .5.3 1 .8 1.1.4.1.6-.1.8-.2.3-.2.4-.6.4-.9V48.5c0-1.4 1.1-2.5 2.5-2.5h20.4c.9 0 1.7-.2 2.5-.6 2.1-1.1 3.4-2.3 3.7-3.5.3-1.3 1.7-2.2 3-1.8 1.3.3 2.2 1.7 1.8 3-.8 3.4-3.9 5.5-6.3 6.8-1.5.7-3.1 1.1-4.8 1.1H36v57.7c0 1.9-.8 3.6-2.3 4.8-1.4 1.1-3.2 1.6-4.9 1.2h-.1c-2.8-.6-4.7-3.1-4.7-5.9V82.9l-2-.1v26c0 2.6-1.5 4.9-3.8 5.8-.8.3-1.5.4-2.1.4z"/><path class="st1" d="M22.5 62.2c-.8 0-1.6-.4-2.1-1.1l-6.6-9.6c-.6-.8-.6-1.9 0-2.8l1-1.6-1.4-5.4c-.3-1.3.5-2.7 1.8-3 1.3-.3 2.7.5 3 1.8l1.6 6.4c.2.7.1 1.4-.3 2l-.6 1.1 3.5 5.1 2.7-4.4-1.4-1.5c-.7-.7-.9-1.8-.5-2.7l2.8-6.4c.4-.9 1.3-1.5 2.3-1.5h43.8c1.4 0 2.5 1.1 2.5 2.5s-1.1 2.5-2.5 2.5H29.9L28.5 47l1.6 1.7c.8.8.9 2.1.3 3L24.6 61c-.4.7-1.2 1.2-2.1 1.2zM123.5 31h-74c-1.4 0-2.5-1.1-2.5-2.5v-8c0-1.4 1.1-2.5 2.5-2.5h74c1.4 0 2.5 1.1 2.5 2.5v8c0 1.4-1.1 2.5-2.5 2.5zM52 26h69v-3H52v3zM123.5 83h-74c-1.4 0-2.5-1.1-2.5-2.5v-8c0-1.4 1.1-2.5 2.5-2.5h74c1.4 0 2.5 1.1 2.5 2.5v8c0 1.4-1.1 2.5-2.5 2.5zM52 78h69v-3H52v3z"/><path class="st1" d="M53.9 42.5c-1.4 0-2.5-1.1-2.5-2.5v-9.5c0-1.4 1.1-2.5 2.5-2.5s2.5 1.1 2.5 2.5V40c0 1.3-1.1 2.5-2.5 2.5zM53.9 74.8c-1.4 0-2.5-1.1-2.5-2.5V51.4c0-1.4 1.1-2.5 2.5-2.5s2.5 1.1 2.5 2.5v20.9c0 1.4-1.1 2.5-2.5 2.5zM117.2 73.9c-1.4 0-2.5-1.1-2.5-2.5V30.5c0-1.4 1.1-2.5 2.5-2.5s2.5 1.1 2.5 2.5v40.9c0 1.4-1.1 2.5-2.5 2.5zM66.6 114.9h-9.2c-.9 0-1.7-.5-2.1-1.2-.5-.7-.5-1.7-.1-2.4l15.1-29.9c.6-1.2 2.1-1.7 3.4-1.1 1.2.6 1.7 2.1 1.1 3.4l-13.3 26.2H65l14.2-28.5c.6-1.2 2.1-1.7 3.4-1.1 1.2.6 1.7 2.1 1.1 3.4l-14.9 29.9c-.4.7-1.3 1.3-2.2 1.3zM116.1 114.9h-8.9c-1 0-1.8-.5-2.2-1.4L90.2 83.6c-.6-1.2-.1-2.7 1.1-3.3 1.2-.6 2.7-.1 3.3 1.1l14 28.5h3.3L97.8 81.6c-.6-1.2-.1-2.7 1.1-3.4 1.2-.6 2.7-.1 3.4 1.1l16.1 31.9c.4.8.4 1.7-.1 2.4-.5.8-1.3 1.3-2.2 1.3zM83.8 67H66.5c-1.4 0-2.5-1.1-2.5-2.5s1.1-2.5 2.5-2.5h14.8V50.9c0-1.4 1.1-2.5 2.5-2.5h15.6V35.2c0-1.4 1.1-2.5 2.5-2.5s2.5 1.1 2.5 2.5v15.7c0 1.4-1.1 2.5-2.5 2.5H86.3v11.1c0 1.4-1.2 2.5-2.5 2.5z"/><path class="st1" d="M108.3 43.6c-.7 0-1.5-.3-2-.9l-4.7-5.9-5.4 5c-1 .9-2.6.9-3.5-.1-.9-1-.9-2.6.1-3.5l7.3-6.9c.5-.5 1.2-.7 1.9-.7s1.3.4 1.8.9l6.4 8c.9 1.1.7 2.7-.4 3.5-.4.4-1 .6-1.5.6zM11.5 77.7c-1.4 0-2.5-1.1-2.5-2.5V55.5c0-1.4 1.1-2.5 2.5-2.5s2.5 1.1 2.5 2.5v19.7c0 1.4-1.1 2.5-2.5 2.5zM34.5 25.5h-5c0-3.9-3.1-7-7-7s-7 3.1-7 7h-5c0-6.6 5.4-12 12-12s12 5.4 12 12z"/><path class="st1" d="M32.9 29.6H12c-1.4 0-2.5-1.1-2.5-2.5s1.1-2.5 2.5-2.5h20.9c1.4 0 2.5 1.1 2.5 2.5s-1.1 2.5-2.5 2.5z"/><path class="st1" d="M22.4 29.6c-1.4 0-2.5-1.1-2.5-2.5v-4.9c0-1.4 1.1-2.5 2.5-2.5s2.5 1.1 2.5 2.5v4.9c0 1.4-1.1 2.5-2.5 2.5zM22.5 17.5c-1.4 0-2.5-1.1-2.5-2.5v-2c0-1.4 1.1-2.5 2.5-2.5S25 11.6 25 13v2c0 1.4-1.1 2.5-2.5 2.5z"/></svg>