<svg version="1.1" id="Layer_1" xmlns="http://www.w3.org/2000/svg" x="0" y="0" viewBox="0 0 128 128" xml:space="preserve"><style>.st0{fill:#070707}</style><switch><g><path class="st0" d="M96 116.5c-1.4 0-2.5-1.1-2.5-2.5s1.1-2.5 2.5-2.5 2.5 1.1 2.5 2.5-1.1 2.5-2.5 2.5zM103.4 110.1c-1.4 0-2.5-1.1-2.5-2.5 0-.6.3-1.3.7-1.7.9-1 2.5-1.1 3.5-.2.9.8 1.1 2.2.4 3.2-.4.7-1.2 1.2-2.1 1.2zM64 126.7c-31.7 0-57.5-25.8-57.5-57.5S32.3 11.7 64 11.7c4.8 0 9.7.6 14.3 1.8 1.3.3 2.1 1.7 1.8 3-.3 1.3-1.7 2.1-3 1.8-4.3-1.1-8.7-1.6-13.1-1.6-28.9 0-52.5 23.5-52.5 52.5 0 28.9 23.5 52.5 52.5 52.5 7.4 0 14.5-1.5 21.2-4.5 1.3-.6 2.7 0 3.3 1.3s0 2.7-1.3 3.3c-7.3 3.3-15.1 4.9-23.2 4.9z"/><path class="st0" d="M35.2 97.1c-7.6 0-13.8-6.2-13.8-13.8s6.2-13.8 13.8-13.8S49 75.8 49 83.3s-6.2 13.8-13.8 13.8zm0-22.5c-4.8 0-8.8 3.9-8.8 8.8s3.9 8.8 8.8 8.8c4.8 0 8.8-3.9 8.8-8.8s-3.9-8.8-8.8-8.8zM56.8 118.6c-7.6 0-13.8-6.2-13.8-13.8S49.2 91 56.8 91s13.8 6.2 13.8 13.8-6.2 13.8-13.8 13.8zm0-22.6c-4.8 0-8.8 3.9-8.8 8.8s3.9 8.8 8.8 8.8c4.8 0 8.8-3.9 8.8-8.8s-4-8.8-8.8-8.8zM104.9 74.7H77.7c-1.4 0-2.5-1.1-2.5-2.5V12.1c0-7.5 6.1-13.7 13.7-13.7h4.9c7.5 0 13.7 6.1 13.7 13.7v60.1c-.1 1.4-1.2 2.5-2.6 2.5zm-24.7-5h22.2V12.1c0-4.8-3.9-8.7-8.7-8.7h-4.9c-4.8 0-8.7 3.9-8.7 8.7v57.6z"/><path class="st0" d="M104.9 43.9H77.7c-1.4 0-2.5-1.1-2.5-2.5s1.1-2.5 2.5-2.5h27.2c1.4 0 2.5 1.1 2.5 2.5s-1.1 2.5-2.5 2.5zM91.4 126.3c-.6 0-1.2-.2-1.6-.6-1-.9-1.2-2.5-.3-3.5 17.2-20.1 19.5-32 18.4-38.5-.9-5.3-4.2-7.3-4.3-7.4-1.2-.7-1.6-2.2-.9-3.4.7-1.2 2.2-1.6 3.4-1 .2.1 5.4 3 6.8 10.6 2 10.9-4.6 25.3-19.5 42.8-.6.7-1.3 1-2 1z"/><path class="st0" d="M90 124.9c-1 0-1.9-.5-2.3-1.5-19-42.4-6.7-51.8-5.2-52.7 1.2-.7 2.7-.4 3.5.8.7 1.1.4 2.7-.7 3.4-.3.3-10 8.6 7 46.5.6 1.3 0 2.7-1.3 3.3-.3.1-.6.2-1 .2z"/><path class="st0" d="M92.3 124.5c-.4 0-.7-.1-1.1-.2-1.2-.6-1.8-2.1-1.2-3.3 13.1-27.3 12-38.5 10.3-42.7-1-2.5-2.5-3-2.5-3l.7-2.4.6-2.4c.4.1 3.5 1 5.6 5.4 4.1 8.8.7 24.7-10.1 47.3-.4.8-1.3 1.3-2.3 1.3z"/><path class="st0" d="M90.6 126.8c-.7 0-1.3-.3-1.8-.8-14.6-15.2-21.4-28.8-20.3-40.7.9-10.1 7.5-14.9 7.8-15.1 1.1-.8 2.7-.5 3.5.6.8 1.1.5 2.7-.6 3.5-.2.1-5.1 3.8-5.8 11.7-.8 9 4.3 19.9 14.6 31.8l-.2-45.7c0-1.4 1.1-2.5 2.5-2.5s2.5 1.1 2.5 2.5l.2 52.2c0 1-.6 1.9-1.6 2.3-.2.1-.5.2-.8.2z"/><ellipse cx="39.8" cy="46" rx="18.7" ry="18.6" fill="#d6b2f5"/><path class="st0" d="M35.2 67.5c-10.7 0-19.3-8.7-19.3-19.3s8.7-19.3 19.3-19.3 19.3 8.7 19.3 19.3-8.6 19.3-19.3 19.3zm0-33.7c-7.9 0-14.3 6.4-14.3 14.3s6.4 14.3 14.3 14.3S49.5 56 49.5 48.1s-6.4-14.3-14.3-14.3z"/></g></switch></svg>