<svg version="1.1" id="Layer_1" xmlns="http://www.w3.org/2000/svg" x="0" y="0" viewBox="0 0 128 128" xml:space="preserve"><style>.st0{fill:#0a0a0a}</style><switch><g><path class="st0" d="M115.8 39.2H85.1c-2.8 0-5-2.2-5-5V26c0-2.8 2.2-5 5-5h30.7c2.8 0 5 2.2 5 5v8.2c0 2.8-2.2 5-5 5zM85.1 26v8.2h30.7V26H85.1zM115.8 93.6H85.1c-2.8 0-5-2.2-5-5v-8.2c0-2.8 2.2-5 5-5h30.7c2.8 0 5 2.2 5 5v8.2c0 2.8-2.2 5-5 5zM85.1 80.4v8.2h30.7v-8.2H85.1z"/><path class="st0" d="M86.1 78c-1.4 0-2.5-1.1-2.5-2.5V38.8c0-1.4 1.1-2.5 2.5-2.5s2.5 1.1 2.5 2.5v36.7c0 1.4-1.1 2.5-2.5 2.5zM114.6 78c-1.4 0-2.5-1.1-2.5-2.5V38.4c0-1.4 1.1-2.5 2.5-2.5s2.5 1.1 2.5 2.5v37.1c0 1.4-1.1 2.5-2.5 2.5z"/><path class="st0" d="M86.1 70.3H4.6c-1.4 0-2.5-1.1-2.5-2.5V45.9c0-1.4 1.1-2.5 2.5-2.5h81.5c1.4 0 2.5 1.1 2.5 2.5v21.9c0 1.4-1.1 2.5-2.5 2.5zm-79-5h76.5V48.4H7.1v16.9z"/><path class="st0" d="M69.4 67.8c-1.4 0-2.5-1.1-2.5-2.5V47.7c0-1.4 1.1-2.5 2.5-2.5s2.5 1.1 2.5 2.5v17.5c0 1.5-1.1 2.6-2.5 2.6zM115.7 32H85c-1.4 0-2.5-1.1-2.5-2.5S83.6 27 85 27h30.7c1.4 0 2.5 1.1 2.5 2.5s-1.1 2.5-2.5 2.5zM116.7 87.3H83.4c-1.4 0-2.5-1.1-2.5-2.5s1.1-2.5 2.5-2.5h33.2c1.4 0 2.5 1.1 2.5 2.5s-1.1 2.5-2.4 2.5zM54.2 41.9H17.1c-1.4 0-2.5-1.1-2.5-2.5s1.1-2.5 2.5-2.5h37.1c1.4 0 2.5 1.1 2.5 2.5s-1.1 2.5-2.5 2.5zM64 42.3h-4.7c-1.4 0-2.5-1.1-2.5-2.5s1.1-2.5 2.5-2.5H64c1.4 0 2.5 1.1 2.5 2.5s-1.1 2.5-2.5 2.5zM22.6 76.9H17c-1.4 0-2.5-1.1-2.5-2.5s1.1-2.5 2.5-2.5h5.6c1.4 0 2.5 1.1 2.5 2.5s-1.1 2.5-2.5 2.5z"/><path class="st0" d="M62.5 76.9H25.4c-1.4 0-2.5-1.1-2.5-2.5s1.1-2.5 2.5-2.5h37.1c1.4 0 2.5 1.1 2.5 2.5s-1.1 2.5-2.5 2.5zM14.9 25.4h-12c-1.4 0-2.5-1.1-2.5-2.5s1.1-2.5 2.5-2.5h12c1.4 0 2.5 1.1 2.5 2.5s-1.1 2.5-2.5 2.5z"/><path class="st0" d="M8.9 31c-1.4 0-2.5-1.1-2.5-2.5V16.8c0-1.4 1.1-2.5 2.5-2.5s2.5 1.1 2.5 2.5v11.7c0 1.4-1.1 2.5-2.5 2.5zM30.7 17.8c-1.4 0-2.5-1.1-2.5-2.5V4.1c0-1.4 1.1-2.5 2.5-2.5s2.5 1.1 2.5 2.5v11.2c0 1.4-1.1 2.5-2.5 2.5z"/><path class="st0" d="M36.1 12.2H24.3c-1.4 0-2.5-1.1-2.5-2.5s1.1-2.5 2.5-2.5h11.9c1.4 0 2.5 1.1 2.5 2.5s-1.2 2.5-2.6 2.5zM4.9 126.1c-1.4 0-2.5-1.1-2.5-2.5s1.1-2.5 2.5-2.5h121.9c1.4 0 2.5 1.1 2.5 2.5s-1.1 2.5-2.5 2.5H4.9z"/><path class="st0" d="M125.5 126.2H72.4c-1.4 0-2.5-1.1-2.5-2.5v-6.9c0-5.2 4.2-9.4 9.4-9.4h39.3c5.2 0 9.4 4.2 9.4 9.4v6.9c0 1.4-1.1 2.5-2.5 2.5zm-50.6-5H123v-4.4c0-2.4-2-4.4-4.4-4.4H79.3c-2.4 0-4.4 2-4.4 4.4v4.4z"/><path class="st0" d="M85.5 108.6c-.7 0-1.5-.3-2-1l-5.9-7.5c-.8-1.1-.7-2.7.4-3.5 1.1-.8 2.7-.7 3.5.4l5.9 7.5c.8 1.1.7 2.7-.4 3.5-.4.4-1 .6-1.5.6zM100.2 108c-1.4 0-2.5-1.1-2.5-2.5v-9.7c0-1.4 1.1-2.5 2.5-2.5s2.5 1.1 2.5 2.5v9.7c0 1.4-1.1 2.5-2.5 2.5zM116.7 107.1c-.5 0-1-.2-1.5-.5-1.1-.8-1.4-2.4-.5-3.5l4.4-6.1c.8-1.1 2.4-1.4 3.5-.5 1.1.8 1.4 2.4.5 3.5l-4.4 6.1c-.5.7-1.3 1-2 1zM60 67.8c-1.4 0-2.5-1.1-2.5-2.5V47.7c0-1.4 1.1-2.5 2.5-2.5s2.5 1.1 2.5 2.5v17.5c0 1.5-1.1 2.6-2.5 2.6z"/><circle cx="100.8" cy="55.6" r="9.5" fill="#d6b2f5"/></g></switch></svg>