<svg version="1.1" id="Layer_1" xmlns="http://www.w3.org/2000/svg" x="0" y="0" viewBox="0 0 128 128" style="enable-background:new 0 0 128 128" xml:space="preserve"><style>.st0{fill:#d6b2f5}</style><circle class="st0" cx="33.5" cy="89.6" r="14.5"/><circle class="st0" cx="83.5" cy="89.6" r="14.5"/><path d="M109.5 93h-11c-1.4 0-2.5-1.1-2.5-2.5 0-12-9.9-12.5-11-12.5-12.6.1-13 11.2-13 12.5 0 .7-.3 1.3-.8 1.8s-1.1.7-1.7.7l-21-.5c-1.4 0-2.4-1.1-2.4-2.5 0-3.7-1.1-6.5-3.2-8.5-3.7-3.5-9.8-3.4-10.6-3.4C21.3 79.9 22 89.9 22 90.3c.1.7-.2 1.4-.7 1.9s-1.1.8-1.8.8H2.4c-.7 0-1.3-.3-1.8-.7-.5-.5-.7-1.1-.7-1.8L0 87c0-1.4 1.2-2.5 2.5-2.5C3.9 84.5 5 85.7 5 87v1h12.2c.5-5.5 4-13.2 14.5-14.8h.2c.4 0 8.8-.5 14.4 4.7 2.6 2.5 4.2 5.7 4.6 9.7l16.4.4c.4-2.6 1.6-6.8 4.8-10.1C75.2 74.7 79.6 73 85 73c5.2 0 14.7 3.2 15.9 15h6.3v-1c0-1.4 1.1-2.5 2.5-2.5s2.5 1.1 2.5 2.5c0 2.7-.1 3.8-.2 4-.3 1.1-1.3 2-2.5 2zM109.3 82.5c-1.2 0-2.3-.9-2.5-2.2-.1-.4-.1-.6-.1-.6 0-.1-.1-.1-.1-.2-.2-.3-.4-.8-.7-1.6-.4-1.3.3-2.7 1.6-3.1 1.3-.4 2.7.3 3.1 1.6.1.4.2.5.3.7.3.6.6 1.2.8 2.5.2 1.4-.8 2.6-2.2 2.8 0 .1-.1.1-.2.1zM3.6 82.5c-.2 0-.3 0-.5-.1-1.4-.3-2.2-1.6-1.9-3C4.7 62.6 17 60.9 22.3 61c.4-1.5.8-3.1 1.4-4.6 5.3-14 18.9-23.7 34.5-24.7 13-.8 22.6 3.7 23 3.9 1.2.6 1.8 2.1 1.2 3.3-.6 1.2-2.1 1.8-3.3 1.2-.1 0-8.8-4.1-20.5-3.4-13.8.8-25.6 9.3-30.2 21.5-.7 1.9-1.3 3.9-1.6 5.8-.1.7-.5 1.3-1 1.6s-1.2.5-1.9.4C23.3 66 9.6 63.8 6 80.5c-.2 1.2-1.3 2-2.4 2z"/><path d="M34 101c-6.1 0-11-4.9-11-11s4.9-11 11-11 11 4.9 11 11-4.9 11-11 11zm0-17c-3.3 0-6 2.7-6 6s2.7 6 6 6 6-2.7 6-6-2.7-6-6-6zM84 101c-6.1 0-11-4.9-11-11s4.9-11 11-11 11 4.9 11 11-4.9 11-11 11zm0-17c-3.3 0-6 2.7-6 6s2.7 6 6 6 6-2.7 6-6-2.7-6-6-6z"/><circle class="st0" cx="104.8" cy="46.9" r="23.2"/><path d="M104.5 26.5c-9.2 0-17.1 5.4-20.8 13.2-1.2 2.5-1.9 5.2-2.1 8.1 0 .6-.1 1.2-.1 1.8 0 5.4 1.8 10.3 4.9 14.2 4.2 5.4 10.8 8.8 18.1 8.8.8 0 1.7 0 2.5-.1 11.5-1.2 20.5-11 20.5-22.9 0-12.8-10.3-23.1-23-23.1zM86.8 52.7c-.2-1-.3-2.1-.3-3.2 0-2.5.5-4.8 1.4-7 2.7-6.5 9.1-11 16.6-11 9.9 0 18 8.1 18 18s-8.1 18-18 18h-.1c-5.2 0-10-2.3-13.2-5.9l-4.4-8.9z"/><path d="M91.5 58.5S92 50 99 52l7-7s-3-8 7-8c0 0-4 2.6-2.8 5.2.7 1.4 2.5 1.9 3.9 1.1.7-.4 1.5-1.2 1.9-2.4 0 0 2.5 7.4-6.2 7.2L102 55s.7 8.8-6.5 7.5l3-3c.8-1 1-2 0-3-.8-.8-2-2-4 0l-3 2z"/><g><path d="M58.8 64.7H38c-.7 0-1.4-.3-1.8-.8-.5-.5-.7-1.2-.6-1.9 0-.2 1.9-19.1 23.1-20.5.7 0 1.4.2 1.9.7.5.5.8 1.1.8 1.8v18.2c-.1 1.4-1.2 2.5-2.6 2.5zm-17.7-5h15.2V46.8c-10.4 1.7-14 8.9-15.2 12.9z"/></g><g><path d="M78.9 64H65.5c-1.4 0-2.5-1.1-2.5-2.5V43.3c0-.7.3-1.4.8-1.8s1.2-.7 1.9-.7c5.9.4 8.4 1.2 11.8 3.6 1.1.8 1.4 2.4.6 3.5-.8 1.1-2.4 1.4-3.5.6-2-1.4-3.3-2.1-6.6-2.5v13h10.9c1.4 0 2.5 1.1 2.5 2.5S80.3 64 78.9 64z"/></g></svg>