<svg version="1.1" id="Layer_1" xmlns="http://www.w3.org/2000/svg" x="0" y="0" viewBox="0 0 128 128" style="enable-background:new 0 0 128 128" xml:space="preserve"><style>.st1{fill:#231f20}</style><ellipse cx="60" cy="19.4" rx="14.2" ry="13.5" style="fill:#d6b2f5"/><path class="st1" d="M60 33c-7.2 0-13-5.8-13-13S52.8 7 60 7s13 5.8 13 13-5.8 13-13 13zm0-21c-4.4 0-8 3.6-8 8s3.6 8 8 8 8-3.6 8-8-3.6-8-8-8z"/><path class="st1" d="M68.5 83.5c-7.2 0-15.4-1.7-24-6.5-1.2-.7-2-1.9-2.2-3.3-.2-1.4.4-2.8 1.4-3.7C53 61.5 55.8 57.4 56 56.4c0-1.2-3.5-1.4-3.5-1.4h-27c-.2 0-.5 0-.7-.1-2.8-.8-6.5-3.6-5.4-8.1.7-2.7 3.1-4.7 6-5.1l30.1-3.6c2.4-2 11.4-8.4 22.9-7.3L97.2 6.4c.4-.5.9-1 1.4-1.4 3.5-2.7 7.1-2.6 9.4.2 2 2.4 2.1 6 .2 8.8L85.6 47.9c-.1.2-2.9 4.6-.1 9l10.6 10.6c1.1 1.1 1.6 2.6 1.5 4.2-.2 1.6-1 2.9-2.3 3.8-4.8 3-14.4 8-26.8 8zM47.7 73.1c20.7 11.1 38.2 2.5 44.8-1.8 0 0 .1 0 .1-.1v-.1L81.7 60.3c-.1-.1-.2-.2-.3-.4-4.9-7.3-.2-14.5 0-14.8l22.7-33.9c.6-.9.6-2.1 0-2.8-.4-.5-1.3-.3-2.5.6-.2.1-.4.3-.5.5L81.5 35c-.6.7-1.5 1.1-2.4.9-11.7-1.8-20.9 6.3-20.9 6.4-.4.3-.9.6-1.4.6L26 46.7c-.8.1-1.6.7-1.7 1.4-.3 1 1.1 1.7 1.7 1.9h26.6c4.1 0 8.5 2 8.5 6.5-.1 1.2-.1 4.5-13.4 16.6zm8.8-32.6z"/><path class="st1" d="M78.2 126.3c-2.3 0-4.5-1.4-5-1.7-.4-.3-.8-.7-.9-1.2L55.7 81.9c-.5-1.3.1-2.7 1.4-3.2 1.3-.5 2.7.1 3.2 1.4l16.1 40.7c.5.3 1.1.5 1.4.5 0-.1.1-.3.1-.6-.5-2.7-5.1-27.9-8.8-36.7-.5-1.3.1-2.7 1.3-3.3s2.7.1 3.3 1.3c4.1 9.7 8.9 36.8 9.2 38v.4c0 3.2-1.4 4.6-2.6 5.3-.6.5-1.4.6-2.1.6z"/><path class="st1" d="M74.5 93.5c-.4 0-.8-.1-1.1-.3-1.2-.6-1.7-2.1-1.1-3.4l5.5-11c.6-1.2 2.1-1.7 3.4-1.1s1.7 2.1 1.1 3.4l-5.5 11c-.4.9-1.3 1.4-2.3 1.4zM53.3 123.9c-.9 0-1.8-.2-2.7-.7-1.2-.7-2.6-2.2-2.6-5.5 0-.3.1-.6.2-.9l10.5-26.4c.5-1.3 2-1.9 3.2-1.4 1.3.5 1.9 2 1.4 3.2L53 118.1c0 .5.1.7.2.8.3.1 1-.1 1.6-.3l9.9-16.8c.7-1.2 2.2-1.6 3.4-.9 1.2.7 1.6 2.2.9 3.4l-10.3 17.5c-.2.4-.5.7-.9.9-.6.2-2.4 1.2-4.5 1.2z"/></svg>