<svg version="1.1" id="Layer_1" xmlns="http://www.w3.org/2000/svg" x="0" y="0" viewBox="0 0 128 128" style="enable-background:new 0 0 128 128" xml:space="preserve"><style>.st1{fill:#231f20}</style><path d="M42.1 72.6c0-13 10.2-23.6 22.7-23.6s22.7 10.6 22.7 23.6" style="fill:#d6b2f5"/><path class="st1" d="M114 91.5H85.8c-1.4 0-2.5-1.1-2.5-2.5s1.1-2.5 2.5-2.5h25.7v-69h-94v69h26.2c1.4 0 2.5 1.1 2.5 2.5s-1.1 2.5-2.5 2.5H15c-1.4 0-2.5-1.1-2.5-2.5V15c0-1.4 1.1-2.5 2.5-2.5h99c1.4 0 2.5 1.1 2.5 2.5v74c0 1.4-1.1 2.5-2.5 2.5z"/><path class="st1" d="M88 69.5c-1.4 0-2.5-1.1-2.5-2.5V37.6h-42V67c0 1.4-1.1 2.5-2.5 2.5s-2.5-1.1-2.5-2.5V35.1c0-1.4 1.1-2.5 2.5-2.5h47c1.4 0 2.5 1.1 2.5 2.5V67c0 1.4-1.1 2.5-2.5 2.5z"/><path class="st1" d="M91.5 77.5h-55c-1.4 0-2.5-1.1-2.5-2.5v-6.5c0-1.4 1.1-2.5 2.5-2.5h5c1.4 0 2.5 1.1 2.5 2.5S42.9 71 41.5 71H39v1.5h50V71h-.5c-1.4 0-2.5-1.1-2.5-2.5s1.1-2.5 2.5-2.5h3c1.4 0 2.5 1.1 2.5 2.5V75c0 1.3-1.1 2.5-2.5 2.5z"/><path class="st1" d="M81.7 115H47.5c-1.2 0-2.3-.9-2.5-2.1l-6-37c-.2-1.4.7-2.6 2.1-2.9 1.4-.2 2.6.7 2.9 2.1l5.7 34.9h30l6.1-34.9c.2-1.4 1.5-2.3 2.9-2 1.4.2 2.3 1.5 2 2.9l-6.4 37c-.4 1.1-1.4 2-2.6 2z"/><path class="st1" d="M44.9 97.5c-.5 0-1-.2-1.5-.5-1.1-.8-1.3-2.4-.5-3.5L57.4 74c.8-1.1 2.4-1.3 3.5-.5s1.3 2.4.5 3.5L46.9 96.5c-.5.7-1.2 1-2 1zM48 111.5c-.5 0-1.1-.2-1.5-.5-1.1-.8-1.3-2.4-.5-3.5L71.4 74c.8-1.1 2.4-1.3 3.5-.5s1.3 2.4.5 3.5L50 110.5c-.5.7-1.2 1-2 1zM58.5 115c-.5 0-1.1-.2-1.5-.5-1.1-.8-1.3-2.4-.5-3.5l26.9-35c.8-1.1 2.4-1.3 3.5-.5s1.3 2.4.5 3.5l-26.9 35c-.5.7-1.3 1-2 1z"/><path class="st1" d="M84.7 97.5c-.6 0-1.2-.2-1.7-.7L62.3 77.3c-1-.9-1.1-2.5-.1-3.5.9-1 2.5-1.1 3.5-.1l20.7 19.5c1 .9 1.1 2.5.1 3.5-.4.5-1.1.8-1.8.8zM81.5 109c-.6 0-1.2-.2-1.7-.7l-33.5-31c-1-.9-1.1-2.5-.1-3.5.9-1 2.5-1.1 3.5-.1l33.5 31c1 .9 1.1 2.5.1 3.5-.5.5-1.1.8-1.8.8zM68 113.5c-.6 0-1.2-.2-1.7-.7L41.8 89.7c-1-.9-1.1-2.5-.1-3.5.9-1 2.5-1.1 3.5-.1l24.5 23.1c1 .9 1 2.5.1 3.5-.5.5-1.1.8-1.8.8z"/><path class="st1" d="M83.5 75.5c-1.4 0-2.5-1.1-2.5-2.5 0-9.1-7.5-17-16-17s-16 7.9-16 17c0 1.4-1.1 2.5-2.5 2.5S44 74.4 44 73c0-11.9 9.6-22 21-22s21 10.1 21 22c0 1.4-1.1 2.5-2.5 2.5z"/><path class="st1" d="M83.3 72.5c-.2 0-.4 0-.5-.1-22.3-5-20.3-18.8-20.2-19.3.2-1.4 1.5-2.3 2.9-2.1 1.4.2 2.3 1.5 2.1 2.8-.1.5-1.1 9.8 16.3 13.7 1.3.3 2.2 1.6 1.9 3-.4 1.2-1.4 2-2.5 2zM70.7 77.5c-.7 0-1.3-.3-1.8-.8L53.7 60.2c-.9-1-.9-2.6.1-3.5 1-.9 2.6-.9 3.5.1l15.2 16.5c.9 1 .9 2.6-.1 3.5-.5.5-1.1.7-1.7.7z"/><path class="st1" d="M57.6 77.5c-.7 0-1.3-.3-1.8-.8-.9-1-.9-2.6.1-3.5l18.6-17.3c1-.9 2.6-.9 3.5.1.9 1 .9 2.6-.1 3.5L59.3 76.8c-.5.4-1.1.7-1.7.7z"/><path class="st1" d="M59.9 75.5c-.5 0-1-.1-1.4-.4l-10.1-6.7c-1.2-.8-1.5-2.3-.7-3.5.8-1.2 2.3-1.5 3.5-.7l10.1 6.7c1.2.8 1.5 2.3.7 3.5-.5.7-1.3 1.1-2.1 1.1zM99.2 42c-.3 0-.7-.1-1-.2-1.3-.5-1.9-2-1.3-3.3l2-4.7c.5-1.3 2-1.9 3.3-1.3 1.3.5 1.9 2 1.3 3.3l-2 4.7c-.4.9-1.3 1.5-2.3 1.5zM102.8 46.7c-.4 0-.7-.1-1.1-.3-1.2-.6-1.8-2.1-1.2-3.3l4.2-8.7c.6-1.2 2.1-1.8 3.3-1.2 1.2.6 1.8 2.1 1.2 3.3l-4.2 8.7c-.4 1-1.3 1.5-2.2 1.5zM31 42c-1 0-1.9-.6-2.3-1.5l-2-4.7c-.5-1.3.1-2.7 1.3-3.3 1.3-.5 2.7.1 3.3 1.3l2 4.7c.5 1.3-.1 2.7-1.3 3.3-.3.1-.7.2-1 .2zM27.4 46.7c-.9 0-1.8-.5-2.2-1.4L21 36.6c-.6-1.2-.1-2.7 1.2-3.3 1.2-.6 2.7-.1 3.3 1.2l4.2 8.7c.6 1.2.1 2.7-1.2 3.3-.3.1-.7.2-1.1.2z"/></svg>