<svg xmlns="http://www.w3.org/2000/svg" viewBox="0 0 128 128"><switch><g><ellipse cx="22.3" cy="24.3" rx="17" ry="16.9" fill="#d6b2f5"/><path d="M23.2 24.3c-.3 0-.6-.1-.9-.2-.5-.2-5-2.1-5.8-6.6-.6-3.5 1.1-7.2 5.3-11 .9-.9 2.4-.9 3.4 0 .5.5 5 4.7 4.6 9.9-.2 2-1.2 5-5.2 7.5-.5.3-1 .4-1.4.4zm.1-12.2c-1.5 1.8-2.2 3.3-2 4.5.2 1 1 1.7 1.6 2.2 1-.9 1.6-1.8 1.7-2.8.2-1.3-.5-2.8-1.3-3.9z"/><path d="M30.9 31.2c-2 0-4.9-.8-7.7-4.1-.5-.6-.7-1.4-.5-2.2.1-.5 1.4-5.2 5.7-6.6 3.3-1.1 7.2.1 11.6 3.7 1 .8 1.2 2.3.5 3.3-.4.6-3.9 5.6-9.2 5.9h-.4zM28 24.9c1 .9 2 1.3 3 1.3 1.4-.1 2.7-1 3.7-1.9-1.9-1.2-3.6-1.7-4.7-1.3-.9.3-1.6 1.2-2 1.9z"/><path d="M14.4 30.9h-.6c-5.2-.4-8.7-5.6-9-6.1-.7-1.1-.4-2.5.6-3.3C9.8 18 13.7 16.8 17 18c4.3 1.6 5.4 6.3 5.6 6.8.2.8 0 1.6-.6 2.2-2.8 3.1-5.6 3.9-7.6 3.9zm-3.9-7c1 1 2.3 1.9 3.7 2 1 .1 2-.3 3.1-1.2-.4-.8-1-1.7-1.9-2-1.3-.4-2.9 0-4.9 1.2z"/><path d="M22.7 42.2c-.7 0-1.3-.3-1.8-.8-3.9-4.1-5.4-7.9-4.6-11.3 1.1-4.4 5.7-6 6.2-6.2.8-.2 1.6-.1 2.2.4 3.8 2.7 4.6 5.8 4.7 7.8.1 5.2-4.7 9.2-5.2 9.6-.4.3-.9.5-1.5.5zm.3-13c-.7.4-1.5 1.2-1.8 2.1-.3 1.2.3 2.8 1.7 4.6.9-1.1 1.7-2.5 1.6-3.8 0-.9-.6-1.9-1.5-2.9zM106.6 82.6c-.3 0-.6-.1-.9-.2-.5-.2-5-2.1-5.8-6.6-.6-3.5 1.1-7.2 5.3-11 .9-.9 2.4-.9 3.4 0 .5.5 5 4.7 4.6 9.9-.2 2-1.2 5-5.2 7.5-.4.3-.9.4-1.4.4zm.2-12.2c-1.5 1.8-2.2 3.3-2 4.5.2 1 1 1.7 1.6 2.2 1-.9 1.6-1.8 1.7-2.8.2-1.3-.5-2.8-1.3-3.9z"/><path d="M114.4 89.5c-2 0-4.9-.8-7.7-4.1-.5-.6-.7-1.4-.5-2.2.1-.5 1.4-5.2 5.7-6.6 3.3-1.1 7.2.1 11.6 3.7 1 .8 1.2 2.3.5 3.3-.4.6-3.9 5.6-9.2 5.9h-.4zm-2.9-6.3c1 .9 2 1.3 3 1.3 1.4-.1 2.7-1 3.7-1.9-1.9-1.2-3.6-1.7-4.7-1.3-.9.3-1.6 1.2-2 1.9z"/><path d="M97.9 89.2h-.6c-5.2-.4-8.7-5.6-9-6.1-.7-1.1-.4-2.5.6-3.3 4.5-3.5 8.4-4.6 11.7-3.4 4.3 1.6 5.4 6.3 5.6 6.8.2.8 0 1.6-.6 2.2-2.9 3-5.7 3.8-7.7 3.8zm-3.9-7c1 1 2.3 1.9 3.7 2 1 .1 2-.3 3.1-1.2-.4-.8-1-1.7-1.9-2-1.3-.4-3 0-4.9 1.2z"/><path d="M106.2 100.5c-.7 0-1.3-.3-1.8-.8-3.9-4.1-5.4-7.9-4.6-11.3 1.1-4.4 5.7-6 6.2-6.2.8-.2 1.6-.1 2.2.4 3.8 2.7 4.6 5.8 4.7 7.8.1 5.2-4.7 9.2-5.2 9.6-.4.3-1 .5-1.5.5zm.3-13c-.7.4-1.5 1.2-1.8 2.1-.3 1.2.3 2.8 1.7 4.6.9-1.1 1.7-2.5 1.6-3.8-.1-1-.6-1.9-1.5-2.9zM100.9 65.3c-1.2 0-2.3-.9-2.5-2.2 0-.1-.7-5.2-3.9-26.1-3-19.3-16.4-23.8-17-24-23.9-8.1-36.9 4.5-37 4.7-1 1-2.6 1-3.5 0-1-1-1-2.6 0-3.5.6-.6 15.3-15 42.1-5.9.6.2 16.8 5.5 20.3 28 3.3 21 3.9 26 3.9 26.2.2 1.4-.8 2.6-2.2 2.8h-.2zM14 121.7c-1.4 0-2.8-.2-4-.7-2.5-.9-5.8-3.1-7.3-8.3-1-3.3-.2-6.4 2.2-8.5 2.4-2.1 6.1-2.7 9-1.4 2.9 1.2 4.5 3.9 4.6 7.4 0 1.4-1.1 2.5-2.4 2.6-1.4.1-2.5-1.1-2.6-2.4 0-1.5-.6-2.5-1.6-2.9-1.2-.5-2.8-.3-3.7.6-.9.8-1.1 1.9-.7 3.3.8 2.6 2.2 4.3 4.2 5 2.3.8 5.3.3 7.7-1.3 2.2-1.5 4-13.8 3.9-26.8v-.2l2.4-45.4c.1-1.4 1.2-2.4 2.6-2.4 1.4.1 2.4 1.3 2.4 2.6l-2.4 45.3c0 6.4-.3 27-6 30.9-2.6 1.8-5.5 2.6-8.3 2.6z"/><path d="M28.3 120.1c-2 0-4.1-.2-6.3-.6-1.4-.2-2.3-1.5-2-2.9.2-1.4 1.5-2.3 2.9-2 6.7 1.2 12 .3 15.7-2.7 5.4-4.3 6.2-11.7 6.2-12.4V84.6c0-1.4 1.1-2.5 2.5-2.5s2.5 1.1 2.5 2.5v15c0 .4-.6 10.2-8.1 16.1-3.5 2.9-8 4.4-13.4 4.4z"/><path d="M63.9 92.7c-2.2 0-4.7-.3-7.3-.9-5.9-1.4-11-5-14.5-10.2-3.2-4.7-5.5-9.5-7-14-.5-1.6-1-3-1.4-4.3-2.7-7.8-4.6-13.5 4.2-17C48.7 42 59.7 35.6 60.4 33.1c.7-2.4 2.1-3.5 3.3-4.1 2.9-1.4 6.2-.2 6.6 0 .9.3 19.2 7.8 22.6 19.3.1.4 3 10.4-5.2 26.2-4.8 9.3-11.3 18.2-23.8 18.2zm2.7-59.2c-.3 0-.7 0-.9.2-.1.1-.4.2-.6.9C63 41.7 40.6 50.7 39.7 51c-4.1 1.6-4.2 2.2-1.3 10.7.4 1.3.9 2.8 1.4 4.3 1.3 4.1 3.5 8.4 6.4 12.8 2.8 4.1 6.8 7 11.5 8.1 11.6 2.8 18.5-1.2 25.5-14.6C90.3 58.5 88 50 88 49.9c-2.3-7.7-14.9-14.2-19.6-16.1-.5-.2-1.1-.3-1.8-.3z"/><path d="M109.6 121.8c-.1 0-7.4-.2-17.9-.5-12.4-.4-14.8-16.3-14.9-17v-.3l-.5-20.5c0-1.4 1.1-2.5 2.4-2.6 1.4-.1 2.5 1.1 2.6 2.4l.5 20.3c.2 1.3 2.3 12.3 10 12.6 10.5.3 17.8.5 17.8.5 1.4 0 2.5 1.2 2.4 2.6.1 1.4-1 2.5-2.4 2.5z"/><path d="M111.9 121.8s-.1 0 0 0c-2.4 0-4.4-.9-6-2.6-4.1-4.4-3.5-13-3.5-14 .1-1.4 1.3-2.4 2.7-2.3 1.4.1 2.4 1.3 2.3 2.7-.1 1.9 0 7.8 2.2 10.2.6.7 1.3 1 2.2 1 2.7 0 4.8-1.5 6.4-4.4.9-1.7.6-3.7-.7-4.8-.6-.5-1.6-1-3.4-.1-.2.1-.4.4-.4.5 0 0 .1.2.5.5 1 .9 1.1 2.5.1 3.5-.9 1-2.5 1.1-3.5.1-1.9-1.7-2.1-3.5-2-4.6.2-2.6 2.4-4.1 2.7-4.3.1-.1.2-.1.2-.1 3.3-1.7 6.4-1.5 9 .5 3.2 2.6 4.1 7.2 2 11.1-2.5 4.5-6.3 7.1-10.8 7.1zM12.8 55H9.2c-.4 0-.8-.4-.8-.8v-4.5c0-.4.4-.8.8-.8h3.6c.4 0 .8.4.8.8v4.5c0 .5-.3.8-.8.8zM10 53.4h2v-2.9h-2v2.9zM12.8 64.9H9.2c-.4 0-.8-.4-.8-.8v-4.5c0-.4.4-.8.8-.8h3.6c.4 0 .8.4.8.8v4.5c0 .5-.3.8-.8.8zM10 63.3h2v-2.9h-2v2.9z"/><path d="M8.6 59.8H5c-.4 0-.8-.4-.8-.8v-4.5c0-.4.4-.8.8-.8h3.6c.4 0 .8.4.8.8V59c0 .4-.3.8-.8.8zm-2.8-1.6h2.1v-2.9H5.8v2.9zM16.9 59.7h-3.6c-.4 0-.8-.4-.8-.8v-4.5c0-.4.4-.8.8-.8h3.6c.4 0 .8.4.8.8v4.5c0 .4-.3.8-.8.8zm-2.8-1.6h2.1v-2.9h-2.1v2.9zM106.9 9.4h-3.6c-.4 0-.8-.4-.8-.8V4.1c0-.4.4-.8.8-.8h3.6c.4 0 .8.4.8.8v4.5c0 .5-.3.8-.8.8zm-2.8-1.6h2.1V4.9h-2.1v2.9zM106.9 19.3h-3.6c-.4 0-.8-.4-.8-.8V14c0-.4.4-.8.8-.8h3.6c.4 0 .8.4.8.8v4.5c0 .5-.3.8-.8.8zm-2.8-1.6h2.1v-2.9h-2.1v2.9z"/><path d="M102.7 14.2h-3.6c-.4 0-.8-.4-.8-.8V8.9c0-.4.4-.8.8-.8h3.6c.4 0 .8.4.8.8v4.5c0 .5-.3.8-.8.8zm-2.8-1.6h2.1V9.7h-2.1v2.9zM111 14.1h-3.6c-.4 0-.8-.4-.8-.8V8.8c0-.4.4-.8.8-.8h3.6c.4 0 .8.4.8.8v4.5c0 .4-.4.8-.8.8zm-2.9-1.6h2.1V9.6h-2.1v2.9zM118 29.2h-3.6c-.4 0-.8-.4-.8-.8v-4.5c0-.4.4-.8.8-.8h3.6c.4 0 .8.4.8.8v4.5c0 .4-.4.8-.8.8zm-2.9-1.6h2.1v-2.9h-2.1v2.9zM118 39h-3.6c-.4 0-.8-.4-.8-.8v-4.5c0-.4.4-.8.8-.8h3.6c.4 0 .8.4.8.8v4.5c0 .5-.4.8-.8.8zm-2.9-1.5h2.1v-2.9h-2.1v2.9z"/><path d="M113.8 33.9h-3.6c-.4 0-.8-.4-.8-.8v-4.5c0-.4.4-.8.8-.8h3.6c.4 0 .8.4.8.8v4.5c0 .5-.4.8-.8.8zm-2.9-1.6h2.1v-2.9h-2.1v2.9zM122.1 33.8h-3.6c-.4 0-.8-.4-.8-.8v-4.5c0-.4.4-.8.8-.8h3.6c.4 0 .8.4.8.8V33c0 .5-.4.8-.8.8zm-2.9-1.6h2.1v-2.9h-2.1v2.9z"/></g></switch></svg>