<svg version="1.1" id="Layer_1" xmlns="http://www.w3.org/2000/svg" x="0" y="0" viewBox="0 0 128 128" xml:space="preserve"><style>.st0{fill:#d6b2f5}.st1{fill:#0a0a0a}</style><switch><g><circle class="st0" cx="93.4" cy="64" r="18"/><path class="st1" d="M91.3 84.9c-9.9 0-17.9-8-17.9-17.9 0-9.9 8-17.9 17.9-17.9 9.9 0 17.9 8 17.9 17.9 0 9.9-8 17.9-17.9 17.9zm0-30.6c-7 0-12.8 5.7-12.8 12.8 0 7 5.7 12.8 12.8 12.8 7 0 12.8-5.7 12.8-12.8 0-7.1-5.8-12.8-12.8-12.8z"/><path class="st1" d="M10.5 85.2c-1.3 0-2.4-.9-2.5-2.2-.1-.4-1.3-9.3 5.3-17.1 5.9-6.9 15.9-10.5 29.8-10.7 13.7-.2 23.6 3.2 29.3 10 6.7 7.9 5.1 17.4 5 17.8-.3 1.4-1.6 2.3-3 2.1-1.4-.3-2.3-1.6-2.1-3 0-.1 1.2-7.6-3.9-13.6-4.7-5.5-13.2-8.2-25.3-8.1-12.4.1-21.1 3.1-26 8.9-5.1 6-4.1 12.9-4.1 13 .2 1.4-.8 2.7-2.2 2.9h-.3z"/><path class="st1" d="M123.6 112.4c-1.4 0-2.6-1.2-2.6-2.6 0-.1-.1-9.1-7.1-15.7-5.7-5.4-14.3-7.9-25.5-7.4-11.9.5-20.3 3.7-25 9.3-4.8 5.8-4 12.2-3.9 12.5.2 1.4-.8 2.7-2.2 2.9-1.4.2-2.7-.8-2.9-2.2-.1-.4-1.2-8.8 5-16.4C65 86 74.7 82.2 88.2 81.6c12.8-.6 22.7 2.4 29.4 8.8 8.6 8.2 8.7 18.9 8.7 19.4-.1 1.5-1.2 2.6-2.7 2.6z"/><path class="st1" d="M125.4 119.5H55c-1.4 0-2.6-1.2-2.6-2.6v-7.1c0-1.4 1.2-2.6 2.6-2.6h70.4c1.4 0 2.6 1.2 2.6 2.6v7.1c0 1.5-1.2 2.6-2.6 2.6zm-67.8-5.1h65.2v-2H57.6v2zM60.9 94.2H3.4C2 94.2.8 93 .8 91.6v-7.4c0-1.4 1.2-2.6 2.6-2.6H75c1.4 0 2.6 1.2 2.6 2.6 0 1.4-1.2 2.6-2.6 2.6H6V89h54.9c1.4 0 2.6 1.2 2.6 2.6 0 1.4-1.2 2.6-2.6 2.6z"/><path class="st1" d="M23.9 85.7c-1.4 0-2.6-1.2-2.6-2.6v-8.6c0-1.4 1.2-2.6 2.6-2.6 1.4 0 2.6 1.2 2.6 2.6v8.6c0 1.4-1.2 2.6-2.6 2.6zM59.9 86.8c-1.4 0-2.6-1.2-2.6-2.6v-9.8c0-1.4 1.2-2.6 2.6-2.6 1.4 0 2.6 1.2 2.6 2.6v9.8c-.1 1.4-1.2 2.6-2.6 2.6zM69.9 112.2c-1.4 0-2.6-1.2-2.6-2.6v-7.9c0-1.4 1.2-2.6 2.6-2.6 1.4 0 2.6 1.2 2.6 2.6v7.9c0 1.4-1.2 2.6-2.6 2.6zM109.6 111.5c-1.4 0-2.6-1.2-2.6-2.6v-7.2c0-1.4 1.2-2.6 2.6-2.6 1.4 0 2.6 1.2 2.6 2.6v7.2c-.1 1.4-1.2 2.6-2.6 2.6zM84.9 40.9c-1.5 0-2.9-.1-4.3-.3-1.2-.2-2.2-1.2-2.2-2.5 0-1.4 1.1-2.6 2.6-2.6h.4c1.1.2 2.3.3 3.6.3 8.5 0 15.7-4.6 15.7-10.1S93.5 15.6 85 15.6s-15.7 4.6-15.7 10.1c0 2.8 1.8 4.9 3.3 6.1 1.1.9 1.2 2.5.3 3.6-.9 1.1-2.5 1.2-3.6.3C65.9 33 64 29.4 64 25.6c0-8.5 9.2-15.2 20.8-15.2 11.5 0 20.8 6.8 20.8 15.2.1 8.6-9 15.3-20.7 15.3z"/><path class="st1" d="M64.4 50.7c-.6 0-1.2-.2-1.7-.6-.8-.7-1.1-2-.7-3l6.4-14.4c.6-1.3 2.1-1.9 3.4-1.3 1.3.6 1.9 2.1 1.3 3.4l-3 6.8 9.4-5.8c1.2-.7 2.8-.4 3.5.8.7 1.2.4 2.8-.8 3.5L65.7 50.3c-.4.3-.8.4-1.3.4zM43.5 86.3c-1.4 0-2.6-1.2-2.6-2.6V58.8c0-1.4 1.2-2.6 2.6-2.6s2.6 1.2 2.6 2.6v24.9c0 1.4-1.2 2.6-2.6 2.6z"/><path d="M83.6 18.2v-1.8h2.1v1.8c2.3.3 3.8 1.4 4.5 3.3l-3.4 1.1c-.3-.9-1-1.4-2.1-1.4-.9 0-1.3.3-1.3.9 0 .2.1.4.2.5s.6.3 1.2.4c1.6.3 2.7.6 3.4.9.7.3 1.2.7 1.7 1.4.4.6.7 1.4.7 2.3 0 1.2-.4 2.3-1.3 3.1-.9.8-2.1 1.3-3.6 1.5V34h-2.1v-1.9c-2.6-.3-4.2-1.7-4.9-4.1l3.8-.7c.3 1.1 1.1 1.7 2.4 1.7 1 0 1.5-.3 1.5-.8 0-.3-.1-.5-.4-.7-.2-.2-.7-.3-1.3-.4-2.4-.5-3.9-1.1-4.5-1.8-.6-.7-1-1.6-1-2.6 0-1.1.3-2 1-2.8.9-1 2-1.5 3.4-1.7z"/><circle class="st0" cx="42.7" cy="36.9" r="18"/><path class="st1" d="M44.5 57.7c-9.9 0-17.9-8-17.9-17.9s8-17.9 17.9-17.9 17.9 8 17.9 17.9-8 17.9-17.9 17.9zm0-30.6c-7 0-12.8 5.7-12.8 12.8s5.7 12.8 12.8 12.8S57.3 47 57.3 39.9s-5.7-12.8-12.8-12.8z"/></g></switch></svg>