<svg version="1.1" id="Layer_1" xmlns="http://www.w3.org/2000/svg" x="0" y="0" viewBox="0 0 128 128" xml:space="preserve"><style>.st0{fill:#d6b2f5}.st1{fill:#070707}</style><switch><g><circle class="st0" cx="28.4" cy="40.5" r="14.5"/><ellipse class="st0" cx="101.4" cy="41.7" rx="25.5" ry="25.4"/><path class="st1" d="M41.1 65.2H9.4c-1.4 0-2.5-1.1-2.5-2.5V11c0-1.4 1.1-2.5 2.5-2.5h63c1.4 0 2.5 1.1 2.5 2.5v30.5c0 1.4-1.1 2.5-2.5 2.5s-2.5-1.1-2.5-2.5v-28h-58v46.6h29.2c1.4 0 2.5 1.1 2.5 2.5s-1.1 2.6-2.5 2.6z"/><path class="st1" d="M72.7 23.7H9.9c-1.4 0-2.5-1.1-2.5-2.5s1.1-2.5 2.5-2.5h62.9c1.4 0 2.5 1.1 2.5 2.5s-1.2 2.5-2.6 2.5zM28.9 56.7c-1 0-1.8-.5-2.2-1.4l-3.3-6.6-7.4-1.2c-.9-.1-1.7-.8-2-1.7-.3-.9 0-1.9.6-2.6l5.3-5.2-1.3-7.3c-.2-.9.2-1.9 1-2.4.8-.6 1.8-.6 2.6-.2l6.6 3.4 6.6-3.4c.8-.4 1.9-.4 2.6.2.8.6 1.2 1.5 1 2.4L37.7 38l5.3 5.2c.7.7.9 1.7.6 2.6-.3.9-1.1 1.6-2 1.7l-7.3 1.1-3.3 6.6c-.3.9-1.2 1.5-2.1 1.5zm-7.2-13.4l3.6.5c.8.1 1.5.6 1.9 1.4l1.6 3.3 1.6-3.3c.4-.7 1.1-1.2 1.9-1.4l3.6-.5-2.6-2.6c-.6-.6-.9-1.4-.7-2.2l.6-3.6-3.2 1.8c-.7.4-1.6.4-2.3 0L24.4 35l.6 3.6c.1.8-.1 1.6-.7 2.2l-2.6 2.5zM20.8 17.7c-1.4 0-2.5-1.1-2.5-2.5V5.9c0-1.4 1.1-2.5 2.5-2.5s2.5 1.1 2.5 2.5v9.3c0 1.4-1.1 2.5-2.5 2.5zM60.3 17.4c-1.4 0-2.5-1.1-2.5-2.5v-9c0-1.4 1.1-2.5 2.5-2.5s2.5 1.1 2.5 2.5v8.9c0 1.4-1.1 2.6-2.5 2.6zM49.7 76.5c-1.7 0-3.4-.4-4.8-1.1-5.7-2.8-7-9.8-7.1-10.1-.1-.4 0-.9.1-1.3l8.9-23.5c.5-1.2 1.8-1.9 3.1-1.5l16.5 5c.6.2 1.2.6 1.5 1.2.3.6.4 1.3.2 1.9L60 72.4c-.2.6-.6 1.1-1.2 1.4-3.4 1.8-6.4 2.7-9.1 2.7zm-6.9-11.4c.4 1.3 1.5 4.6 4.2 5.9 2.1 1 4.9.7 8.4-1l7-21.9-11.8-3.6-7.8 20.6z"/><path class="st1" d="M38.6 85.2c-.3 0-.5 0-.8-.1-1.3-.4-2-1.8-1.6-3.1l2.8-8.7c.4-1.3 1.8-2 3.1-1.6s2 1.8 1.6 3.1L41 83.5c-.4 1-1.4 1.7-2.4 1.7zM47 85.9c-.2 0-.4 0-.6-.1-1.3-.3-2.2-1.7-1.8-3l1.7-6.8c.3-1.3 1.7-2.2 3-1.8 1.3.3 2.2 1.7 1.8 3L49.5 84c-.3 1.1-1.3 1.9-2.5 1.9zM74.3 76.1c-2.6 0-5.6-.9-9-2.6-.6-.3-1.1-.9-1.3-1.5l-3.4-11.9c-.4-1.3.4-2.7 1.7-3.1 1.3-.4 2.7.4 3.1 1.7l3.1 10.8c3.5 1.6 6.3 2 8.1 1 1.8-1 2.4-3.2 2.6-3.9l-3.1-23.2-7.8 1.3c-1.4.2-2.6-.7-2.9-2.1-.2-1.4.7-2.6 2.1-2.9L77.8 38c.7-.1 1.4.1 1.9.5s.9 1 1 1.7l3.5 26.2v.6c0 .2-.7 5.5-5.2 8-1.4.7-3 1.1-4.7 1.1z"/><path class="st1" d="M64.1 56c-.4 0-.8-.1-1.2-.3-.2-.1-.3-.2-.5-.3-1.3-.6-1.8-2.1-1.2-3.3.6-1.3 2.1-1.8 3.3-1.2.3.1.6.3.9.5 1.2.7 1.6 2.2 1 3.4-.6.8-1.4 1.2-2.3 1.2z"/><path class="st1" d="M80.5 65.8c-.9 0-1.8-.5-2.3-1.4-2.7-5.7-13.8-4.6-13.9-4.5-1.3.1-2.6-.9-2.7-2.3-.2-1.4.8-2.6 2.2-2.8.6-.1 14.8-1.6 19 7.4.6 1.2.1 2.7-1.2 3.3-.4.2-.7.3-1.1.3zM56.4 39c-.9 0-1.7-.4-2.2-1.2L50.8 32c-.7-1.2-.3-2.7.9-3.4 1.2-.7 2.7-.3 3.4.9l3.4 5.8c.7 1.2.3 2.7-.9 3.4-.3.2-.7.3-1.2.3zM61.6 37.2c-1.3 0-2.4-1-2.5-2.3l-.5-6.3c-.1-1.4.9-2.6 2.3-2.7 1.4-.1 2.6.9 2.7 2.3l.5 6.3c.1 1.4-.9 2.6-2.3 2.7h-.2z"/><path class="st1" d="M66.3 37.1c-.5 0-.9-.1-1.4-.4-1.2-.7-1.5-2.3-.7-3.5l2.5-3.9c.8-1.2 2.3-1.5 3.5-.7 1.2.7 1.5 2.3.7 3.5L68.4 36c-.5.7-1.3 1.1-2.1 1.1zM95.4 50c-.7 0-1.3-.3-1.8-.8L82.2 37.5c-1-1-.9-2.6.1-3.5 1-1 2.6-.9 3.5.1l9.6 10 15.2-14.2c1-.9 2.6-.9 3.5.1.9 1 .9 2.6-.1 3.5L97 49.4c-.4.4-1 .6-1.6.6zM40.2 125.6c-2.4 0-4.7-.9-6.5-2.5l-3.1-2.8c-3 .3-10.1.4-13.1-4.2l-7.6.1c-1.4 0-2.5-1.1-2.5-2.5s1.1-2.5 2.5-2.5l9.2-.1c1.1 0 2 .6 2.4 1.6 1 2.8 7 2.8 9.7 2.4.7-.1 1.5.1 2 .6l3.9 3.5c1 .9 2.2 1.3 3.5 1.2l7.9-.6h.4c1.6.1 2.6-3.5 2.8-4.8.1-.9.8-1.7 1.7-2 .8-.3 1-.6 1.2-.9.5-1.1.1-2.8 0-3.1-.4-1.2.1-2.6 1.3-3.1.8-.4 1.3-.8 1.5-1.3.2-.9-.6-2.4-1-2.9s-.6-1.3-.5-1.9.5-1.3 1.1-1.7c1.5-1 1.5-1.8 1.6-2.1.1-1.7-1.9-3.9-2.9-4.8-.9-.7-1.1-1.9-.7-2.9.6-1.3.6-2.1.4-2.4-.2-.3-.9-.5-1.4-.6l-24.6 1.6h-.2c-6.1 0-7.6 7.2-7.7 7.3-.2 1.2-1.3 2-2.4 2H9.9c-1.4 0-2.5-1.1-2.5-2.5s1.1-2.5 2.5-2.5h7.3c1.4-4 5.1-9.3 11.9-9.3l24.7-1.6h.3c.4 0 3.8.3 5.5 3 .9 1.5 1.1 3.3.5 5.4 1.5 1.6 3.6 4.4 3.4 7.6-.1 1.2-.5 2.9-2 4.4.6 1.3 1.1 3.1.6 5-.3 1.1-.9 2.5-2.4 3.6.2 1.4.2 3.2-.6 4.9-.6 1.2-1.5 2.2-2.6 2.8-.8 3.5-3 8-7.6 7.8l-7.8.6c-.4.1-.6.2-.9.2z"/><path class="st1" d="M32 117.8c-.9 0-1.8-.5-2.2-1.4-.6-1.1-.6-2.3-.1-3.4.4-.9 1.2-1.6 2.1-2.1-.3-1.9.6-3.9 1.6-5.2-1.3-2.1-1.3-4-1-5.2.5-2 1.9-3.5 3.2-4.5-.4-1.9.1-4.2 1-6.3.4-.9 1.3-1.5 2.3-1.5h15.8c1.4 0 2.5 1.1 2.5 2.5s-1.1 2.5-2.5 2.5h-14c-.2.6-.3 1.3-.2 1.6.7.5 1.1 1.3 1.1 2.1 0 1-.6 1.9-1.6 2.2-.8.3-2.4 1.3-2.7 2.4-.2.8.5 1.8 1.1 2.5.9 1 .8 2.5-.1 3.4-.6.7-1.3 1.6-1.5 2.2 1 .4 1.6 1.4 1.5 2.5-.1 1.1-.9 2.1-2 2.3-.6.1-1.4.4-1.9.6.1 1-.4 1.9-1.4 2.4-.2.4-.6.4-1 .4z"/><path class="st1" d="M18.1 104.6c-1.4 0-2.5-1.1-2.5-2.5s1.1-2.5 2.5-2.5c.1 0 7.4-.2 8.7-4.3 2.1-6.4 7.7-7.3 10.3-6.9 1.4.2 2.3 1.5 2.1 2.8-.2 1.4-1.5 2.3-2.8 2.1-.6-.1-3.6-.3-4.8 3.5-2.6 7.7-13.1 7.8-13.5 7.8zM52.3 117.3h-.2L35.2 116c-1.4-.1-2.4-1.3-2.3-2.7.1-1.4 1.3-2.4 2.7-2.3l16.9 1.3c1.4.1 2.4 1.3 2.3 2.7-.1 1.3-1.2 2.3-2.5 2.3zM56 109.4h-.3l-18.1-2.2c-1.4-.2-2.3-1.4-2.2-2.8.2-1.4 1.4-2.3 2.8-2.2l18.1 2.2c1.4.2 2.3 1.4 2.2 2.8-.2 1.3-1.3 2.2-2.5 2.2zM57.8 101.1h-.2l-18.8-1.7c-1.4-.1-2.4-1.3-2.3-2.7.1-1.4 1.3-2.4 2.7-2.3L58 96.1c1.4.1 2.4 1.3 2.3 2.7-.1 1.3-1.2 2.3-2.5 2.3zM75.2 92.6c-1.1 0-2.1-.7-2.4-1.9l-3.5-13.5c-.3-1.3.5-2.7 1.8-3 1.3-.3 2.7.5 3 1.8l3.5 13.5c.3 1.3-.5 2.7-1.8 3-.2.1-.4.1-.6.1zM115.5 95.5h-8.8c-.7 0-1.3-.3-1.8-.7-.5-.5-.7-1.1-.7-1.8 0-.5-.3-5.3-7.5-6.5l-12.6.3c-1.4.1-2.5-1.1-2.6-2.4 0-1.4 1.1-2.5 2.4-2.6l12.8-.3h.4c7.5 1.1 10.6 5.5 11.6 9h6.7c1.4 0 2.5 1.1 2.5 2.5s-1 2.5-2.4 2.5z"/><path class="st1" d="M75.3 124.9c-.3 0-.6-.1-.9-.2-4.3-1.7-4.9-5.8-4.5-8.6-3-3.3-4-5.8-3.2-7.9-1.8-2.1-2.7-4.1-2.7-6 0-.6.1-1.2.2-1.7-1.5-2.1-2-4.1-1.7-6.2.4-1.9 1.5-3.3 2.5-4.2-.7-2.1-.6-3.9.3-5.4 1.9-3 6.1-2.9 6.5-2.8 1.4.1 2.4 1.2 2.4 2.6-.1 1.4-1.2 2.4-2.6 2.4-.9 0-1.9.3-2.1.5 0 0-.2.6.8 2.4.3.6.4 1.3.2 2s-.7 1.2-1.3 1.5c-.4.2-1.6 1-1.8 2.1-.2 1.1.7 2.3 1.6 3.2.5.5.7 1.1.7 1.8 0 .6-.3 1.2-.7 1.6-.1.3-.1 1.8 2.8 4.3.7.6 1 1.7.7 2.6-.2.5-.5.9-.9 1.3.3.6 1 1.7 2.8 3.6.6.7.9 1.6.6 2.5-.1.5-.7 2.7.8 3.7l13.7-1.3c.4-.6 1-1.5 1-2.4 0-.7-.3-1.4-1.1-2.1-.5-.5-.9-1.1-.9-1.9.1-.7.3-1.3.8-1.7.2-.4.1-1.4-1.4-3.1-.8-.9-.9-2.3-.1-3.3 0 0 1-1.3.8-2.5-.2-.9-.9-1.7-2.2-2.5-.6-.4-1-1-1.2-1.7-.1-.7 0-1.4.4-2 .3-.4.8-1.4.5-2.1-.2-.7-1.3-1.3-2.8-1.7-.8-.2-1.5-.9-1.7-1.7l-4.7-15c-.4-1.3.3-2.7 1.6-3.1 1.3-.4 2.7.3 3.1 1.6L86 87.2c2.6 1 4.2 2.5 4.9 4.5.6 1.6.3 3.2-.1 4.4 1.5 1.3 2.4 2.9 2.7 4.6.3 1.9-.2 3.6-.8 4.8 1.8 2.6 1.8 4.8 1.3 6.4 1.1 1.6 1.3 3.2 1.3 4.3-.1 3.6-2.8 6.2-3.1 6.5-.4.4-.9.6-1.5.6l-15.4 1.4c.1.2 0 .2 0 .2zm-4.8-14.3zm18.9-.1zm-20.5-8.4s-.1 0 0 0c-.1 0 0 0 0 0zm0 0zm0-.1c0 .1 0 .1 0 0 0 .1 0 .1 0 0zm.1-.1z"/><path class="st1" d="M69.3 93.9c-1.2 0-2.3-.9-2.5-2.2-.2-1.4.8-2.6 2.2-2.8l13.2-1.7c1.4-.2 2.6.8 2.8 2.2s-.8 2.6-2.2 2.8l-13.2 1.7h-.3zM69.3 102.6c-1.3 0-2.4-1-2.5-2.2-.1-1.4.9-2.6 2.2-2.7l17.5-1.8c1.4-.1 2.6.9 2.7 2.2.1 1.4-.9 2.6-2.2 2.7l-17.5 1.8h-.2zM71.7 110.8c-1.2 0-2.3-.9-2.5-2.2-.2-1.4.8-2.6 2.2-2.8l15.9-2c1.4-.2 2.6.8 2.8 2.2s-.8 2.6-2.2 2.8l-15.9 2h-.3zM72.4 119c-1.2 0-2.3-.9-2.5-2.1-.2-1.4.7-2.6 2.1-2.9l19.7-3c1.4-.2 2.6.7 2.9 2.1.2 1.4-.7 2.6-2.1 2.9l-19.7 3h-.4zM108.3 107.2h-.1c-.4 0-10.3-.7-13.2-8.9-1.4-4-3.8-3.7-4.6-3.5-1.3.4-2.7-.4-3.1-1.7-.3-1.3.4-2.7 1.7-3.1 2.1-.7 8.2-.8 10.8 6.6 1.7 5.1 8.6 5.5 8.7 5.5 1.4.1 2.4 1.3 2.3 2.6 0 1.5-1.1 2.5-2.5 2.5zM97.7 121.7c-1.4 0-2.9-.3-4.4-1-1.3-.6-1.8-2-1.3-3.3.6-1.3 2-1.8 3.3-1.3 5.1 2.3 8.5-3.3 8.8-4 .4-.7 1.1-1.2 1.9-1.3l10.6-1c1.4-.1 2.6.9 2.7 2.2.1 1.4-.9 2.6-2.2 2.7l-9.4.9c-1.8 2.9-5.4 6.1-10 6.1zM95.3 67.5c-3.1 0-9.6-.6-14.3-5.5-1-1-1-2.6 0-3.5 1-1 2.6-1 3.5 0 4.6 4.7 11.9 4 12 4h.3c12.1 0 22-9.9 22-22S109 18.6 97 18.5c-3.6.4-12.7 2.4-15 7.5-.6 1.3-2 1.8-3.3 1.3-1.3-.6-1.8-2-1.3-3.3 4-8.9 18.5-10.4 19.1-10.4h.2c14.9 0 27 12.1 27 27 0 14.8-12 26.9-26.8 27-.3-.1-.9-.1-1.6-.1zM44.7 57c-.9 0-1.8-.5-2.2-1.4-.6-1.2-.1-2.7 1.1-3.4.6-.3 13.8-7 20.3.1.9 1 .9 2.6-.2 3.5-1 .9-2.6.9-3.5-.2-3.3-3.6-11.4-.5-14.3 1-.4.3-.8.4-1.2.4z"/></g></switch></svg>