<svg version="1.1" id="Layer_1" xmlns="http://www.w3.org/2000/svg" x="0" y="0" viewBox="0 0 128 128" xml:space="preserve"><style>.st0{fill:#d6b2f5}.st1{fill:#0c0b0b}</style><switch><g><circle class="st0" cx="75.4" cy="104.6" r="10.5"/><circle class="st0" cx="24.1" cy="27" r="21.7"/><path class="st1" d="M74.4 68.5c-13.6 0-18.4-10.4-19.1-16v-.3l.4-16.8c0-1.3 1.1-2.3 2.4-2.3 1.3 0 2.3 1.1 2.3 2.4L60 52.1c.2 1.4 2.3 11.7 14.4 11.7h.2c13-.1 15.2-5.9 15.3-6 .1-.3.2-.5.4-.8 0-.1 1.7-2.3 1.1-7.6v-.3l-.1-12.9c0-1.3 1-2.4 2.3-2.4 1.3 0 2.4 1 2.4 2.3l.1 12.9c.7 6.2-1.2 9.6-1.9 10.7-.8 1.9-4.8 8.7-19.5 8.8h-.3z"/><path class="st1" d="M32.5 118.4h-.1c-1.3-.1-2.3-1.2-2.2-2.5l1.4-26.8c0-.2.1-.5.1-.7.1-.4 3.4-8.8 19.1-13.3 12.2-3.5 12.1-8.7 12.1-8.8l2.3-.2 2.3-.3c.1.9.7 9.2-15.5 13.8-11.6 3.4-15.2 9-15.8 10.2l-1.4 26.4c-.1 1.3-1.1 2.2-2.3 2.2zM118.1 122.3c-1.3 0-2.4-1.1-2.4-2.4V91.8c-1.3-2.1-7.3-10.5-18.7-13.3-16-3.9-15-11.8-14.9-12.7l4.6.8v-.1s-.2 4.6 11.3 7.4c15.1 3.7 21.8 15.6 22 16.1.2.3.3.7.3 1.1V120c.2 1.3-.9 2.3-2.2 2.3z"/><path class="st1" d="M100.1 78.5c-1.3 0-2.3-1-2.4-2.3 0-1.3 1-2.4 2.3-2.4 2.3 0 3.9-.7 5-2 2.3-2.8 1.7-7.9 1.4-9.4-.2-1-.6-1.9-1.3-2.5-3.7-3.2-4.8-9.4-6.1-23-.9-10.1-4.9-16.2-7.2-19-.8-1-1.8-1.9-3-2.6-8.2-5-16.1-4.1-21.3-2.6-3.8 1.2-7.1 3.5-9.6 6.8-4.2 5.5-5.8 10.3-5.1 15.1 1.3 8.6-4.7 21.3-7.1 25.5-1.2 2.2-1.4 4.7-.4 6.8 2.2 4.6 7.3 6.8 7.4 6.8 1.2.5 1.8 1.9 1.3 3.1-.5 1.2-1.9 1.8-3.1 1.3-.3-.1-6.9-2.9-9.9-9.2-1.7-3.5-1.5-7.7.6-11.2 3.3-5.6 7.5-16.3 6.5-22.4-.9-6 1.1-12.1 6-18.7 3.1-4.1 7.3-7.1 12-8.5 6.1-1.9 15.4-2.8 25.1 3 1.6 1 3 2.2 4.2 3.6 2.6 3.2 7.2 10.2 8.2 21.5 1.1 11.6 2.1 17.8 4.5 19.9 1.5 1.3 2.6 3.2 2.9 5.3.5 3.2.9 9.2-2.5 13.2-1.9 2.6-4.7 3.8-8.4 3.9zM106.8 123.8c-1.3 0-2.4-1.1-2.4-2.4V95.8c0-1.8-1.5-3.3-3.3-3.3H51.5c-1.8 0-3.3 1.5-3.3 3.3v25.6c0 1.3-1.1 2.4-2.4 2.4s-2.4-1.1-2.4-2.4V95.8c0-4.4 3.6-8 8-8h49.7c4.4 0 8 3.6 8 8v25.6c.1 1.3-1 2.4-2.3 2.4z"/><path class="st1" d="M76.2 115.3c-4.3 0-7.9-3.5-7.9-7.9 0-4.3 3.5-7.9 7.9-7.9 4.3 0 7.9 3.5 7.9 7.9s-3.5 7.9-7.9 7.9zm0-11c-1.7 0-3.2 1.4-3.2 3.2 0 1.7 1.4 3.2 3.2 3.2 1.7 0 3.1-1.4 3.1-3.2.1-1.8-1.3-3.2-3.1-3.2zM55.2 91.4c-1.3 0-2.4-1.1-2.4-2.4V77.3c0-1.3 1.1-2.4 2.4-2.4 1.3 0 2.4 1.1 2.4 2.4V89c0 1.3-1.1 2.4-2.4 2.4zM95.5 91.4c-1.3 0-2.4-1.1-2.4-2.4V75.6c0-1.3 1.1-2.4 2.4-2.4 1.3 0 2.4 1.1 2.4 2.4V89c-.1 1.3-1.1 2.4-2.4 2.4z"/><path class="st1" d="M77.3 87.1c-10.6 0-19.7-2.5-20.3-2.7-1.3-.4-2-1.7-1.6-2.9.4-1.3 1.7-2 2.9-1.6.2.1 20.2 5.6 34.1 0 1.2-.5 2.6.1 3.1 1.3s-.1 2.6-1.3 3.1c-5.4 2.1-11.3 2.8-16.9 2.8zM123 123.8H5.7c-1.3 0-2.4-1.1-2.4-2.4 0-1.3 1.1-2.4 2.4-2.4H123c1.3 0 2.4 1.1 2.4 2.4-.1 1.3-1.1 2.4-2.4 2.4zM77.7 62.5c-5.7 0-8.2-3.3-8.2-6.4 0-3.1 2.6-6.4 8.2-6.4s8.2 3.3 8.2 6.4c0 3.1-2.6 6.4-8.2 6.4zm0-8c-2 0-3.5.7-3.5 1.6 0 1 1.5 1.6 3.5 1.6s3.5-.7 3.5-1.6c0-.9-1.5-1.6-3.5-1.6z"/><path class="st1" d="M85.2 58.5c-1.2 0-2.2-.9-2.3-2-.2-1.3.7-2.5 2-2.7 5.1-.7 5.8-4 5.9-4.3.2-1.3 1.4-2.2 2.7-2 1.3.2 2.2 1.3 2 2.6 0 .3-1 7.1-9.9 8.4h-.4zM53.6 37.7H52c-1.3-.1-2.3-1.2-2.2-2.5.1-1.3 1.2-2.3 2.5-2.2.3 0 25.1 1.2 35.8-18.1.6-1.1 2.1-1.5 3.2-.9s1.5 2.1.9 3.2c-10.7 19-32.5 20.5-38.6 20.5zM96.6 38.2c-10.2 0-14.8-4.2-15.1-4.4-1-.9-1-2.4-.1-3.3.9-.9 2.4-1 3.3-.1.1.1 5 4.2 16.2 2.9 1.3-.2 2.5.8 2.6 2.1.2 1.3-.8 2.5-2.1 2.6-1.7.1-3.3.2-4.8.2zM25.9 47C14.6 47 5.5 37.8 5.5 26.5S14.7 6.1 25.9 6.1s20.4 9.2 20.4 20.4c0 5.6-2.3 10.9-6.3 14.8-.4.4-1 .7-1.7.7-1.3 0-2.3-1.1-2.3-2.4 0-.6.3-1.3.7-1.7 3.2-3 4.9-7 4.9-11.4 0-8.7-7.1-15.7-15.7-15.7s-15.7 7.1-15.7 15.7 7.1 15.7 15.7 15.7c1.3 0 2.5-.1 3.7-.4 1.3-.3 2.5.5 2.8 1.7.3 1.3-.5 2.5-1.7 2.8-1.6.5-3.2.7-4.8.7z"/><path class="st1" d="M43.7 49c-5.9-.1-10.8-1-14.6-2.8-1.2-.6-1.7-2-1.1-3.1.6-1.2 2-1.7 3.1-1.1 1.9.9 4.4 1.6 7.2 2-.7-.9-1.4-2-2-3.1-.2-.5-.3-.9-.3-1.3 0-1.3 1.1-2.4 2.4-2.4.9 0 1.7.5 2.1 1.3 2.1 3.7 4.8 6.3 4.9 6.4.7.7.9 1.7.6 2.6-.5 1-1.4 1.5-2.3 1.5z"/><circle class="st1" cx="18.9" cy="26.4" r="1.7"/><circle class="st1" cx="25.7" cy="26.6" r="1.7"/><circle class="st1" cx="32.1" cy="26.5" r="1.7"/></g></switch></svg>