<svg version="1.1" id="Layer_1" xmlns="http://www.w3.org/2000/svg" x="0" y="0" viewBox="0 0 128 128" style="enable-background:new 0 0 128 128" xml:space="preserve"><style>.st0{fill:#d6b2f5}.st1{fill:#231f20}</style><ellipse class="st0" cx="40.4" cy="18.3" rx="13.4" ry="13.3"/><circle class="st0" cx="28.4" cy="87.3" r="9.3"/><circle class="st0" cx="102.4" cy="87.3" r="9.3"/><path class="st1" d="M41.5 35C32.4 35 25 27.6 25 18.5S32.4 2 41.5 2C47 2 52.1 4.7 55.2 9.3c.8 1.1.5 2.7-.7 3.5-1.1.8-2.7.5-3.5-.7C48.9 8.9 45.3 7 41.5 7 35.2 7 30 12.2 30 18.5S35.2 30 41.5 30c3.7 0 7-1.7 9.2-4.6.8-1.1 2.4-1.3 3.5-.5s1.3 2.4.5 3.5c-3.1 4.2-8 6.6-13.2 6.6z"/><path class="st1" d="M36.5 25c-3.6 0-6.5-2.9-6.5-6.5s2.9-6.5 6.5-6.5 6.5 2.9 6.5 6.5-2.9 6.5-6.5 6.5zm0-8c-.8 0-1.5.7-1.5 1.5s.7 1.5 1.5 1.5 1.5-.7 1.5-1.5-.7-1.5-1.5-1.5zM27.5 96c-4.7 0-8.5-3.8-8.5-8.5s3.8-8.5 8.5-8.5 8.5 3.8 8.5 8.5-3.8 8.5-8.5 8.5zm0-12c-1.9 0-3.5 1.6-3.5 3.5s1.6 3.5 3.5 3.5 3.5-1.6 3.5-3.5-1.6-3.5-3.5-3.5zM103.5 96c-4.7 0-8.5-3.8-8.5-8.5s3.8-8.5 8.5-8.5 8.5 3.8 8.5 8.5-3.8 8.5-8.5 8.5zm0-12c-1.9 0-3.5 1.6-3.5 3.5s1.6 3.5 3.5 3.5 3.5-1.6 3.5-3.5-1.6-3.5-3.5-3.5zM64 29.4H52.7c-1.4 0-2.5-1.1-2.5-2.5s1.1-2.5 2.5-2.5h10l3.8-5.3c.5-.7 1.2-1.1 2.1-1.1.8 0 1.6.4 2 1.1l2 3 2.8-1.7c.9-.5 2-.5 2.8.1l2.1 1.5.9-1.1c.8-1 2.3-1.2 3.4-.5l2.7 1.9 2.2-1.8c.9-.8 2.3-.8 3.2.1l1.7 1.5 5.5-5.5-3.7-3.4H53.1c-1.4 0-2.5-1.1-2.5-2.5s1.1-2.5 2.5-2.5h44.1c.6 0 1.2.2 1.7.7l6.3 5.8c.5.5.8 1.1.8 1.8s-.2 1.3-.7 1.8l-9 9c-.9.9-2.4 1-3.4.1L91 25.8l-2 1.7c-.9.7-2.1.8-3 .1l-2.4-1.7-1 1.2c-.8 1-2.4 1.2-3.4.4l-2.6-2-3.4 2.1c-1.1.7-2.6.4-3.4-.7l-1.3-2-2.5 3.4c-.4.7-1.2 1.1-2 1.1z"/><path class="st1" d="M63.8 110.5c-15.1 0-32.1-2-49.3-7.9-1-.3-1.7-1.3-1.7-2.4V79.8c0-.4.4-7.4 8.7-12l6.7-20c.2-.5 3.8-9.7 18.4-9.7h43.1c.2 0 .5 0 .7.1.5.1 11.3 3.5 13.6 12.8 1.7 6.9 5.1 15.6 5.9 17.3l7.7 9.7c.3.4.5 1 .5 1.5v20.8c0 1.1-.7 2-1.7 2.4-1.5.4-23.4 7.8-52.6 7.8zm-46-12c43.2 14.1 86.3 2.7 95.2 0V80.4l-7.4-9.3c-.1-.2-.3-.4-.4-.6-.2-.4-4.2-10.3-6.2-18.3-1.5-5.8-8.3-8.6-9.9-9.1H46.5c-11.1 0-13.6 6.3-13.7 6.4l-7 20.9c-.2.6-.7 1.1-1.3 1.4-6.2 3.1-6.8 7.6-6.9 8.1v18.6zm5.7-29z"/><path class="st1" d="M104.5 71h-79c-1.4 0-2.5-1.1-2.5-2.5s1.1-2.5 2.5-2.5h79c1.4 0 2.5 1.1 2.5 2.5s-1.1 2.5-2.5 2.5z"/><path class="st1" d="M19.4 74.8c-.7 0-1.3-.3-1.8-.8-4.3-4.7-5.7-8.6-4.3-11.9 2.3-5.2 10.6-5.3 12.3-5.3 1.4 0 2.5 1.2 2.5 2.5 0 1.4-1.1 2.5-2.5 2.5h-.2c-2.8 0-6.8.8-7.5 2.3-.4.9.3 3.1 3.4 6.5.9 1 .9 2.6-.2 3.5-.5.5-1.1.7-1.7.7zM111 74.8c-.6 0-1.3-.2-1.8-.7-1-1-1-2.6 0-3.5 4-3.9 4.6-6.1 4.3-6.8-.6-1.4-5.2-2.2-8.8-2-1.4.1-2.6-1-2.6-2.4-.1-1.4 1-2.6 2.3-2.6 1.9-.1 11.4-.4 13.7 4.9 2.2 4.9-3.5 10.5-5.3 12.4-.6.4-1.2.7-1.8.7zM86.5 87h-42c-1.4 0-2.5-1.1-2.5-2.5s1.1-2.5 2.5-2.5h42c1.4 0 2.5 1.1 2.5 2.5S87.9 87 86.5 87zM83.1 96H47.8c-1.4 0-2.5-1.1-2.5-2.5s1.1-2.5 2.5-2.5h35.3c1.4 0 2.5 1.1 2.5 2.5S84.4 96 83.1 96zM33.5 121.6h-15c-1.4 0-2.5-1.1-2.5-2.5v-16.6c0-1.4 1.1-2.5 2.5-2.5s2.5 1.1 2.5 2.5v14.1h10V106c0-1.4 1.1-2.5 2.5-2.5s2.5 1.1 2.5 2.5v13.1c0 1.3-1.1 2.5-2.5 2.5zM112.4 121.6H97.5c-1.4 0-2.5-1.1-2.5-2.5V106c0-1.4 1.1-2.5 2.5-2.5s2.5 1.1 2.5 2.5v10.6h9.9v-14.1c0-1.4 1.1-2.5 2.5-2.5s2.5 1.1 2.5 2.5v16.6c0 1.3-1.1 2.5-2.5 2.5z"/></svg>