<svg version="1.1" id="Layer_1" xmlns="http://www.w3.org/2000/svg" x="0" y="0" viewBox="0 0 128 128" style="enable-background:new 0 0 128 128" xml:space="preserve"><style>.st1{fill:#231f20}</style><circle cx="64.7" cy="96.7" r="12.3" style="fill:#d6b2f5"/><path class="st1" d="M79.1 13.5H50.6c-.7 0-1.4-.3-1.9-.9-.2-.3-1.4-1.8-1.1-4.2.3-2.5 2-5 5.1-7.4.4-.3 1-.5 1.5-.5h22.2c.6 0 1.1.2 1.6.6.7.6 4.4 3.7 4.6 7.4.1 1.6-.5 3.1-1.6 4.2-.6.5-1.2.8-1.9.8zm-26.5-4zm0-1h24.8c-.2-.9-1.2-2.1-2.1-3H55c-1.5 1.3-2.2 2.3-2.4 3zM71.6 121.5c-27.2 0-51.4-2-51.8-2-1.1-.1-6.1-.8-7.3-8.1-1-6.2-.1-22.5 0-23.2 0-.1 0-.3.1-.4.1-.5 1.3-5.4 5-7.9 2.4-1.6 6.3-4.6 7.5-5.6l8.6-14.6c1.2-2 3.4-3.3 5.7-3.3h51.9c2 0 3.9 1.1 4.8 2.9l7.9 14.8c2.6 1.6 10.2 6.6 12.3 10.7 2.1 4.1 3.1 25.4-.4 31.9-1.1 2-2.5 2.6-3.6 2.7-12.5 1.6-27 2.1-40.7 2.1zm-51.4-7c-.1 0-.1 0 0 0 .6.1 54.4 4.4 91.2.1 2.5-3.2 2-24.2.4-27.4-1.2-2.3-7.1-6.6-11-9-.4-.2-.7-.6-.9-1l-8.3-15.4c-.1-.1-.2-.2-.4-.2H39.3c-.6 0-1.1.3-1.4.8l-8.8 15c-.2.3-.4.5-.6.7-.2.2-5.1 4.1-8.2 6.1-1.7 1.1-2.6 3.6-2.9 4.6-.1 2-.9 16.6 0 21.9.7 3.5 2.5 3.8 2.8 3.8-.1 0-.1 0 0 0zM27 76z"/><path class="st1" d="M82 105.5H47.2c-.5 0-1.1-.2-1.5-.5-.3-.2-6.2-4.8-6.2-11 0-1.4 1.1-2.5 2.5-2.5h44.7c.7 0 1.4.3 1.8.8.5.5.7 1.2.7 1.9-.1 1.6-1.1 9.9-6.5 11.2-.3.1-.5.1-.7.1zm-33.9-5h33.5c.9-.4 1.6-2.2 2.1-4H45.1c.8 1.8 2.2 3.3 3 4zM91.2 113.5H38c-1.4 0-2.5-1.1-2.5-2.5s1.1-2.5 2.5-2.5h53.2c1.4 0 2.5 1.1 2.5 2.5s-1.1 2.5-2.5 2.5zM34.3 128H21.1c-3.1 0-5.1-3.4-5.4-5.7l-.6-4.4c-.2-1.4.8-2.6 2.1-2.8 1.4-.2 2.6.8 2.8 2.1l.6 4.4c.1.5.5 1.2.7 1.4H34c.2-.2.6-.8.7-1.4l.8-3.2c.3-1.3 1.7-2.2 3-1.8 1.3.3 2.2 1.7 1.8 3l-.8 3.2c-.3 2-2.2 5.2-5.2 5.2zM93.9 128.9c-2.9 0-4.9-3.2-5.3-5.4l-.7-4.1c-.2-1.4.7-2.7 2-2.9 1.4-.2 2.7.7 2.9 2l.7 4.1c.1.4.4 1 .6 1.2l13.6-.7c.2-.3.5-.9.5-1.3v-4.7c0-1.4 1.1-2.5 2.5-2.5s2.5 1.1 2.5 2.5v4.7c0 2.5-1.9 6.1-5 6.3l-14.2.7c0 .1 0 .1-.1.1zM99.3 105.1c-2.6 0-5.7-.6-9.1-1.7-.8-.3-1.4-.9-1.6-1.7s0-1.7.5-2.3c.3-.4 8.6-9.6 17.3-11.8 1.3-.3 2.7.5 3 1.8.1.3 2.3 8.6-2.4 13.1-1.9 1.7-4.4 2.6-7.7 2.6zm-3.5-5.4c3.6.7 6.3.4 7.7-.9 1.4-1.3 1.6-3.6 1.5-5.5-3.5 1.6-6.9 4.3-9.2 6.4zM95.5 113.5c.2-1.6.8-3 1.6-4.2.4-.6.9-1.2 1.4-1.7.3-.3.6-.5 1-.8.2-.1.4-.3.7-.4.1-.1.3-.1.4-.2l.3-.1c1.3-.5 2.5-.8 3.7-.9.6-.1 1.2-.1 1.8-.2.6-.1 1.3-.1 2.1-.5.2.9-.1 1.8-.5 2.5s-1 1.3-1.6 1.8c-1.2 1-2.6 1.5-3.8 1.9-.1 0-.2.1-.2.1l-.2.1c-.2.1-.4.2-.7.3-.5.3-1.1.5-1.7.8-1.4.7-2.7 1.2-4.3 1.5zM30.2 105.1c-3.2 0-5.8-.9-7.6-2.6-4.8-4.5-2.5-12.8-2.4-13.1.4-1.3 1.7-2.1 3-1.8 8.6 2.2 16.9 11.4 17.3 11.8.6.6.8 1.5.5 2.3-.2.8-.8 1.5-1.6 1.7-3.6 1.1-6.6 1.7-9.2 1.7zm-5.7-11.8c-.1 1.9.1 4.2 1.5 5.5 1.4 1.3 4.1 1.6 7.7.9-2.3-2.1-5.7-4.8-9.2-6.4zM33 113.5c-1.6-.3-2.9-.8-4.1-1.4-.6-.3-1.2-.6-1.7-.8-.3-.1-.5-.2-.7-.3-.1 0-.2-.1-.2-.1s-.1 0-.2-.1c-1.3-.4-2.6-.9-3.8-1.9-.6-.5-1.2-1.1-1.6-1.8-.4-.7-.7-1.7-.5-2.5.8.3 1.5.4 2.1.5.6.1 1.2.1 1.8.2 1.2.1 2.4.4 3.7.9l.3.1c.1.1.3.1.4.2.3.1.4.3.7.4.4.3.7.5 1 .8.6.5 1 1.1 1.4 1.7.6 1.1 1.2 2.5 1.4 4.1zM48.6 85.5H30.2c-.8 0-3.2 0-7-7-.7-1.2-.2-2.7 1-3.4 1.2-.7 2.7-.2 3.4 1 1 1.8 2.4 3.8 3.1 4.4H97c1.3-.8 3.8-2.6 4.9-4.5.7-1.2 2.2-1.6 3.4-.9 1.2.7 1.6 2.2.9 3.4-2.2 3.8-6.9 6.4-7.4 6.7-.4.2-.8.3-1.2.3h-49zm-17.8-4.9z"/><path class="st1" d="M107.5 76.8H102c-1.4 0-2.5-1.1-2.5-2.5s1.1-2.5 2.5-2.5h5.5c1.4 0 2.5 1.1 2.5 2.5s-1.1 2.5-2.5 2.5z"/><path class="st1" d="M109.8 82c-1.1 0-2-.7-2.4-1.7l-3.3-9.5c-.3-.8-.2-1.6.3-2.3.5-.7 1.2-1.1 2-1.1 2 0 11.8.2 13.8 6 .5 1.5.4 3.1-.5 4.4-2.2 3.3-8.1 3.9-9.8 4 0 .2-.1.2-.1.2zm.3-9.2 1.4 3.9c1.9-.3 3.7-.9 4.1-1.5v-.1c-.5-1.1-3-1.9-5.5-2.3zM26 76.8h-5.5c-1.4 0-2.5-1.1-2.5-2.5s1.1-2.5 2.5-2.5H26c1.4 0 2.5 1.1 2.5 2.5s-1.1 2.5-2.5 2.5z"/><path class="st1" d="M18.3 82h-.2c-1.8-.1-7.7-.7-9.8-4-.9-1.3-1-2.9-.5-4.4 2.1-5.9 11.9-6.1 13.8-6 .8 0 1.6.4 2 1.1s.6 1.5.3 2.3l-3.3 9.5c-.3.8-1.3 1.5-2.3 1.5zm-5.8-6.7c.4.5 2.2 1.1 4.1 1.5l1.4-3.9c-2.6.3-5.1 1.1-5.5 2.4 0-.1 0-.1 0 0zm0 0zM44.5 24c-.4 0-.9-.1-1.3-.4-1.2-.7-1.6-2.2-.9-3.4l3-5c.7-1.2 2.2-1.6 3.4-.9 1.2.7 1.6 2.2.9 3.4l-3 5c-.4.9-1.3 1.3-2.1 1.3zM36.5 37c-.5 0-1-.1-1.4-.4-1.1-.8-1.5-2.3-.7-3.5l4-6c.8-1.1 2.3-1.5 3.5-.7 1.1.8 1.5 2.3.7 3.5l-4 6c-.5.7-1.3 1.1-2.1 1.1zM27.7 50.9c-.5 0-1-.1-1.4-.4-1.1-.8-1.4-2.3-.7-3.5l4.8-6.9c.8-1.1 2.3-1.4 3.5-.7 1.1.8 1.4 2.3.7 3.5l-4.8 6.9c-.5.8-1.3 1.1-2.1 1.1zM22 60.6c-.5 0-1-.1-1.4-.5-1.1-.8-1.4-2.4-.6-3.5l2.5-3.6c.8-1.1 2.4-1.4 3.5-.6 1.1.8 1.4 2.4.6 3.5L24 59.5c-.5.7-1.2 1.1-2 1.1zM53 24c-.4 0-.7-.1-1.1-.3-1.2-.6-1.7-2.1-1.1-3.3l1.5-3c.6-1.2 2.1-1.8 3.3-1.1 1.2.6 1.7 2.1 1.1 3.3l-1.5 3c-.4.9-1.3 1.4-2.2 1.4zM47.5 40.5c-.2 0-.5 0-.7-.1-1.3-.4-2.1-1.8-1.7-3.1l2.5-8.4c.4-1.3 1.8-2.1 3.1-1.7 1.3.4 2.1 1.8 1.7 3.1l-2.5 8.4c-.3 1.1-1.3 1.8-2.4 1.8zM42.5 53c-.3 0-.6-.1-.9-.2-1.3-.5-1.9-2-1.4-3.3l2-5c.5-1.3 2-1.9 3.3-1.4 1.3.5 1.9 2 1.4 3.3l-2 5c-.5 1-1.4 1.6-2.4 1.6zM63.1 24c-.3 0-.6-.1-.9-.2-1.3-.5-1.9-2-1.4-3.3l1.2-3c.4-.9 1.2-1.5 2.2-1.6 1 0 1.9.5 2.3 1.4l1.5 3c.6 1.2.1 2.7-1.1 3.4-.8.4-1.8.3-2.5-.1-.3.3-.8.4-1.3.4zM58.4 40.5c-.2 0-.5 0-.7-.1-1.3-.4-2.1-1.8-1.7-3.1l2.1-7.5c.4-1.3 1.8-2.1 3.1-1.7 1.3.4 2.1 1.8 1.7 3.1l-2.1 7.5c-.3 1.1-1.3 1.8-2.4 1.8zM54.5 53c-.2 0-.4 0-.6-.1-1.3-.3-2.2-1.7-1.8-3l1-4c.3-1.3 1.7-2.1 3-1.8 1.3.3 2.2 1.7 1.8 3l-1 4c-.3 1.1-1.3 1.9-2.4 1.9zM71.2 40.5c-1 0-2-.6-2.4-1.7l-2.9-8.4c-.5-1.3.2-2.7 1.5-3.2s2.7.2 3.2 1.5l2.9 8.4c.5 1.3-.2 2.7-1.5 3.2-.2.2-.5.2-.8.2zM74.9 53c-1 0-2-.7-2.4-1.7l-1.7-5c-.4-1.3.3-2.7 1.6-3.2 1.3-.4 2.7.3 3.2 1.6l1.7 5c.4 1.3-.3 2.7-1.6 3.2-.3.1-.5.1-.8.1zM76.5 25c-1 0-2-.7-2.4-1.7l-1.6-4.8c-.4-1.3.3-2.7 1.6-3.2 1.3-.4 2.7.3 3.2 1.6l1.6 4.8c.4 1.3-.3 2.7-1.6 3.2-.3.1-.5.1-.8.1zM81.9 40.5c-1 0-2-.6-2.3-1.6l-3.2-8.4c-.5-1.3.2-2.7 1.4-3.2 1.3-.5 2.7.2 3.2 1.4l3.2 8.4c.5 1.3-.2 2.7-1.4 3.2-.3.2-.6.2-.9.2zM86.7 53c-1 0-2-.6-2.3-1.6l-1.8-5c-.5-1.3.2-2.7 1.5-3.2s2.7.2 3.2 1.5l1.8 5c.5 1.3-.2 2.7-1.5 3.2-.4.1-.7.1-.9.1zM84.8 24c-.8 0-1.6-.4-2.1-1.1l-2.9-4.4c-.8-1.2-.4-2.7.7-3.5 1.2-.8 2.7-.4 3.5.7l2.9 4.4c.8 1.2.4 2.7-.7 3.5-.4.3-.9.4-1.4.4zM93.5 38c-.8 0-1.6-.4-2.1-1.2l-5-8c-.7-1.2-.4-2.7.8-3.4 1.2-.7 2.7-.4 3.4.8l5 8c.7 1.2.4 2.7-.8 3.4-.4.3-.8.4-1.3.4zM101.2 51c-.9 0-1.7-.4-2.2-1.2l-4.7-8c-.7-1.2-.3-2.7.9-3.4 1.2-.7 2.7-.3 3.4.9l4.7 8c.7 1.2.3 2.7-.9 3.4-.4.2-.8.3-1.2.3zM107 60.6c-.8 0-1.6-.4-2.1-1.2l-2.2-3.6c-.7-1.2-.4-2.7.8-3.4 1.2-.7 2.7-.4 3.4.8l2.2 3.6c.7 1.2.4 2.7-.8 3.4-.4.2-.9.4-1.3.4z"/></svg>