<svg version="1.1" id="Layer_1" xmlns="http://www.w3.org/2000/svg" x="0" y="0" viewBox="0 0 128 128" style="enable-background:new 0 0 128 128" xml:space="preserve"><style>.st0{fill:#d6b2f5}.st1{fill:#231f20}</style><circle class="st0" cx="55.7" cy="24.7" r="11.7"/><path class="st0" d="M72.4 29c0-6.8 5.5-12.3 12.3-12.3C91.5 16.7 97 22.2 97 29"/><path class="st1" d="M55.5 36C49.7 36 45 31.3 45 25.6s4.7-10.5 10.5-10.5S66 19.8 66 25.6 61.3 36 55.5 36zm0-15.9c-3 0-5.5 2.5-5.5 5.5s2.5 5.5 5.5 5.5 5.5-2.5 5.5-5.5-2.5-5.5-5.5-5.5zM93.5 31.1c-1.4 0-2.5-1.1-2.5-2.5 0-3.6-2.9-6.5-6.5-6.5S78 25 78 28.6c0 1.4-1.1 2.5-2.5 2.5S73 30 73 28.6c0-6.3 5.2-11.5 11.5-11.5S96 22.3 96 28.6c-.1 1.3-1.2 2.5-2.5 2.5z"/><path class="st1" d="M48 126c-2.1 0-4.5-.8-6.7-2.5-1.4-1.1-2.3-2.8-2.2-4.5l.9-31.7c-1.7-.7-3.3-1.7-4.8-3.2-2.2-2.1-3-5.3-2.1-8.2.9-2.8 2-6.6 2.6-8.6-1.8-2.1-3.5-5.6-4.4-7.8-.1-.2-.1-.4-.2-.6 0-.3-1.1-8.2 4.5-14.9 5.7-6.8 13.6-6.9 13.9-6.9H62l5 1c.3.1.6.2.8.3l7.7 4.8c.7.2 1.3 0 1.7-.1l1.2-7c.1-.5.3-.9.6-1.2 2.4-2.7 4.7-3.2 6.2-3.1 3.3.2 5.2 3 5.4 3.3.3.4.4.9.4 1.4 0 4.3-2 11.4-2.1 11.7 0 .1-.1.2-.1.3-1.6 3.5-4 5.8-7.2 6.8-3.7 1.1-7.6.3-10.4-.8L73 119c.1 1.8-.6 3.6-1.9 4.8-2.4 2.3-5.8 2.6-9.6.9-2-.9-3.4-2.8-3.6-5.1l-1.2-11.9-1 11.4c-.1 1.6-.8 3.1-1.9 4.3-1.7 1.8-3.7 2.6-5.8 2.6zM36 57.9c1.3 3 3 5.9 3.7 6.4 1.1.5 1.5 1.7 1.2 2.9 0 0-1.8 6.1-3.1 10.2-.3 1.1 0 2.3.8 3.1 1.4 1.4 2.9 2.2 4.4 2.5 1.2.2 2 1.3 2 2.5L44 119c0 .1.1.3.2.4 2.5 1.8 4.4 2 5.9.6.3-.3.5-.7.5-1.2L54 81.2c.1-1.3 1.2-2.3 2.5-2.3s2.4 1 2.5 2.2l3.8 38c0 .5.3.8.7 1 1.3.6 3 1.1 4.1.1.3-.2.4-.6.4-1.1l-2-68.5c0-.9.5-1.8 1.2-2.2.8-.5 1.8-.4 2.6 0 1.6 1 6.6 3.2 10.2 2.1 1.8-.5 3.1-1.8 4.1-3.9.5-1.8 1.6-6.3 1.8-9.2-.3-.3-.7-.6-1.2-.6-.4 0-1 .3-1.6.9l-1.2 7.2c-.1.5-.3 1-.7 1.4-1.1 1.1-4 2.8-7.5 1.6-.2-.1-.4-.1-.5-.3l-7.6-4.8-4.3-.8H49.5c-.3 0-6 .2-10.1 5.1-3.6 4.4-3.5 9.5-3.4 10.8z"/><path class="st1" d="M54.1 69.4h-.2L38.5 69c-1.4 0-2.5-1.2-2.4-2.6 0-1.4 1.2-2.5 2.6-2.4l15.3.4c.3 0 .5-.1.6-.3.1-.2.4-.8-.2-1.9-.1-.2-.4-.4-.6-.4l-11.6-1.6C41 60 40 59 40 57.7v-6.2c0-1.4 1.1-2.5 2.5-2.5s2.5 1.1 2.5 2.5v4l9.4 1.3c1.8.3 3.5 1.4 4.3 2.9 1.2 2.1 1.3 4.4.4 6.3-.8 2.1-2.8 3.4-5 3.4z"/><path class="st1" d="M43.5 88c-1.4 0-2.5-1.1-2.5-2.5s1.1-2.5 2.5-2.5c3.5 0 4.4-5.1 4.5-5.7l1-14c.1-1.4 1.3-2.4 2.7-2.3 1.4.1 2.4 1.3 2.3 2.7l-1 14.1v.1c-.4 3.5-3 10.1-9.5 10.1zM96.7 33.1H71.5c-1.4 0-2.5-1.1-2.5-2.5s1.1-2.5 2.5-2.5h25.2c1.4 0 2.5 1.1 2.5 2.5s-1.1 2.5-2.5 2.5zM78.1 16.8c-.7 0-1.4-.3-1.9-.9-.9-1.1-.7-2.6.3-3.5.5-.4 1.1-1.3 1.1-1.7 0-.3-.4-.6-.6-.7-2-1.5-2.3-3.1-2.3-4.2.1-2.4 2-3.8 2.4-4.1 1.1-.8 2.7-.5 3.5.7.8 1.1.5 2.7-.7 3.4 0 0-.1 0-.1.1.1 0 .1.1.2.2 2 1.6 2.5 3.4 2.5 4.6.1 3.1-2.6 5.4-2.9 5.7-.4.2-.9.4-1.5.4zm1.6-11.3z"/><path class="st1" d="M85 16.8c-.7 0-1.4-.3-1.9-.9-.9-1.1-.7-2.6.3-3.5.5-.4 1.1-1.3 1.1-1.7 0-.3-.4-.6-.6-.7-2-1.5-2.3-3.1-2.3-4.2.1-2.4 2-3.8 2.4-4.1 1.1-.8 2.7-.5 3.5.7.8 1.1.5 2.7-.7 3.4 0 0-.1 0-.1.1.1 0 .1.1.2.2 2 1.6 2.5 3.4 2.5 4.6.1 3.1-2.6 5.4-2.9 5.7-.3.2-.9.4-1.5.4zm1.6-11.3z"/><path class="st1" d="M92 16.8c-.7 0-1.4-.3-1.9-.9-.9-1.1-.7-2.6.3-3.5.5-.4 1.1-1.3 1.1-1.7 0-.3-.4-.6-.6-.7-2-1.5-2.3-3.1-2.3-4.2.1-2.4 2-3.8 2.4-4.1 1.1-.8 2.7-.5 3.5.7.8 1.1.5 2.7-.7 3.4 0 0-.1 0-.1.1.1 0 .1.1.2.2 2 1.6 2.5 3.4 2.5 4.6.1 3.1-2.6 5.4-2.9 5.7-.4.2-1 .4-1.5.4zm1.5-11.3zM40.6 67.5c-.4 0-.8-.1-1.2-.3-1.2-.6-1.7-2.2-1-3.4l1.3-2.5c.6-1.2 2.2-1.7 3.4-1 1.2.6 1.7 2.2 1 3.4l-1.3 2.5c-.4.8-1.3 1.3-2.2 1.3zM55.5 55.5c-1.4 0-2.5-1.1-2.5-2.5V41c0-1.4 1.1-2.5 2.5-2.5S58 39.7 58 41v12c0 1.4-1.1 2.5-2.5 2.5z"/></svg>