<svg version="1.1" id="Layer_1" xmlns="http://www.w3.org/2000/svg" x="0" y="0" viewBox="0 0 128 128" style="enable-background:new 0 0 128 128" xml:space="preserve"><style>.st1{fill:#231f20}</style><ellipse cx="81.9" cy="44.6" rx="16.5" ry="16.6" style="fill:#d6b2f5"/><path class="st1" d="M112.7 31.9H51.1c-1.5 0-2.8-1.3-2.8-2.8V17.8c0-1.5 1.3-2.8 2.8-2.8h61.6c1.5 0 2.8 1.3 2.8 2.8v11.3c0 1.5-1.2 2.8-2.8 2.8zm-58.8-5.6h56v-5.7h-56v5.7z"/><path class="st1" d="M109.4 65.9H54.5c-1.5 0-2.8-1.3-2.8-2.8V29.7c0-1.5 1.3-2.8 2.8-2.8h54.9c1.5 0 2.8 1.3 2.8 2.8v33.4c0 1.5-1.3 2.8-2.8 2.8zm-52.1-5.6h49.3V32.5H57.3v27.8z"/><path class="st1" d="M81.9 65.9c-1.5 0-2.8-1.3-2.8-2.8V17.8c0-1.5 1.3-2.8 2.8-2.8 1.5 0 2.8 1.3 2.8 2.8v45.3c0 1.5-1.2 2.8-2.8 2.8z"/><path class="st1" d="M67.3 49.2c-.7 0-1.4-.3-2-.8-1.1-1.1-1.1-2.9-.1-4l13.4-13.8c1.1-1.1 2.9-1.1 4-.1 1.1 1.1 1.1 2.9.1 4L69.4 48.4c-.6.5-1.3.8-2.1.8z"/><path class="st1" d="M96.5 49.2c-.7 0-1.3-.2-1.9-.7L81.2 36.4c-1.2-1-1.2-2.8-.2-4 1-1.2 2.8-1.2 4-.2l13.5 12.1c1.2 1 1.2 2.8.2 4-.7.6-1.5.9-2.2.9zM24.2 126h-.4c-.8-.1-1.5-.6-1.9-1.3L1.7 93.3c-.8-1.3-.5-3 .8-3.8l13.4-9c1.3-.8 3-.5 3.9.7L40 110.4c.8 1.2.6 2.8-.5 3.7L26 125.3c-.5.4-1.1.7-1.8.7zM7.9 92.6l17 26.4 9-7.5-17.1-24.8-8.9 5.9z"/><path class="st1" d="M37.9 110.1c.1-.1.1-.2.1-.2l-5.1-2.2c.3-.8 2-3.7 9.3-7.2 6.7-3.3 22.5-2.8 27.2-2.6.3 0 .7.1 1.1.1 7.1 1.4 20.2-4.6 24.7-7 5.9-3.5 22.1-13.6 25.5-17.8.6-.7.7-1.1.8-1.3 0 0-.1-.1-.2-.1-.6-.4-1.6-.4-2.4 0L101 82.3c-3.3 1.9-7.4 1.5-9.9-1.1-1-1-3.3-.9-4.3-.8h-.1c-.6.1-14.9 1.9-28.9-5.1-11.1-5.6-21.6 1.1-22.7 1.9-.1 0-.1.1-.2.1l-12.2 9.9c-1.2 1-3 .8-3.9-.4-1-1.2-.8-3 .4-3.9L31.4 73c.2-.2.4-.3.6-.4 2.3-1.6 14.7-9.1 28.4-2.3C72.5 76.4 85.1 75 86 74.9c1-.2 6-.9 9.2 2.4.7.8 2 .8 3.1.2L116 67c2.7-1.6 6-1.5 8.4.2 1.8 1.3 2.4 2.8 2.5 3.9.3 1.8-.4 3.7-1.9 5.6-4.7 5.8-24.8 17.9-27.1 19.2-.8.4-18.1 9.7-28.5 7.6h-.3c-6.9-.3-19.8-.3-24.4 2-5.5 2.7-6.7 4.6-6.8 4.6z"/><path class="st1" d="M72.6 93.2c-8.9 0-17-1.5-18.7-1.9-1.5-.3-2.5-1.8-2.2-3.3.3-1.5 1.8-2.5 3.3-2.2 8 1.6 32.1 4.3 37-4.3.8-1.3 2.5-1.8 3.8-1 1.3.8 1.8 2.5 1 3.8-4 7-14.5 8.9-24.2 8.9z"/><circle class="st1" cx="27.6" cy="112" r="2.8"/></svg>