<svg version="1.1" id="Layer_1" xmlns="http://www.w3.org/2000/svg" x="0" y="0" viewBox="0 0 128 128" xml:space="preserve"><style>.st1{fill:#0a0a0a}</style><switch><g><circle cx="85.7" cy="100.6" r="8" fill="#d6b2f5"/><path class="st1" d="M54.6 59.3c-12.1 0-21.9-9.8-22-21.8-.2-1.6-.9-11.6 8.9-20.2 1-.9 2.5-.8 3.4.2.9 1 .8 2.5-.2 3.4-8.4 7.4-7.3 15.8-7.3 16.2v.3c0 9.5 7.7 17.2 17.2 17.2s17.2-7.7 17.2-17.2v-.1c0-.1.5-11.5-8.5-17.5-1.1-.7-1.4-2.2-.6-3.3s2.2-1.4 3.3-.6c11 7.2 10.7 20.2 10.6 21.4 0 12.1-9.9 22-22 22z"/><path class="st1" d="M32.4 43.1c-.3 0-.7-.1-1-.2-.3-.1-7.8-3.7-10.1-11.2-1.5-4.7-.6-9.9 2.7-15.3C33.9-.1 54.9 2 56.6 2.2c1.3.1 15.7 1.3 23.1 11.6 7.9 10.9 5 16.1-.8 24.4-.8 1.1-2.2 1.3-3.3.6-1.1-.8-1.3-2.2-.6-3.3 5.5-7.9 6.8-10.5.8-18.9C69.6 8 56.3 7 56.2 7h-.1c-.2 0-19.5-2.2-28 12-2.5 4.2-3.2 8-2.2 11.4 1.7 5.5 7.5 8.3 7.6 8.3 1.2.6 1.7 2 1.2 3.2-.6.7-1.4 1.2-2.3 1.2zM47.3 123l-25.3-.3c-.7 0-1.4-.3-1.8-.9-.4-.6-.6-1.3-.5-2l3.6-17.2c.5-2.4.9-4.8 1-7.2 1.1-14.3 6.1-19.6 7.1-20.5 6.9-7.1 14.2-10.6 21.7-10.4 11.5.4 19.1 9.4 19.4 9.8.8 1 .7 2.5-.3 3.3-1 .8-2.5.7-3.3-.3-.1-.1-6.7-7.8-15.9-8.1-6.1-.2-12.2 2.8-18.1 9l-.2.2s-4.6 4.3-5.6 17.3c-.2 2.6-.6 5.2-1.1 7.8l-3 14.4 22.4.2c1.3 0 2.4 1.1 2.4 2.4-.2 1.5-1.2 2.5-2.5 2.5z"/><path class="st1" d="M74.2 125.5c-4.6 0-9.2-1.9-12.5-5.5-6.2-6.9-5.7-17.5 1.2-23.7l16.4-14.8c3.3-3 7.6-4.5 12.1-4.3 4.5.2 8.6 2.2 11.6 5.5s4.5 7.6 4.3 12.1c-.2 4.5-2.2 8.6-5.5 11.6l-16.4 14.8c-3.2 2.9-7.2 4.3-11.2 4.3zm16.3-43.6c-3 0-5.8 1.1-8 3.1L66.1 99.8c-4.9 4.4-5.3 12.1-.9 17 4.4 4.9 12.1 5.3 17 .9l16.4-14.8c2.4-2.2 3.8-5.1 3.9-8.3.2-3.2-.9-6.3-3.1-8.7-2.2-2.4-5.1-3.8-8.3-3.9-.1-.1-.4-.1-.6-.1z"/><path class="st1" d="M79.6 114.1c-.1 0-.1 0 0 0-3.7-.1-6.7-1.5-8.6-4.1-4.8-6.5-1.7-18-1.3-19.2.4-1.3 1.7-2 2.9-1.6 1.3.4 2 1.7 1.6 2.9-.8 2.9-2.3 11.2.6 15.1 1 1.4 2.6 2.1 4.8 2.2 1.3 0 2.3 1.1 2.3 2.4 0 1.3-1.1 2.3-2.3 2.3z"/><circle class="st1" cx="84.6" cy="101.3" r="3.1"/></g></switch></svg>