<svg xmlns="http://www.w3.org/2000/svg" viewBox="0 0 128 128"><switch><g><ellipse cx="65.3" cy="60.2" rx="30" ry="29.8" fill="#d6b2f5"/><path d="M52.2 126.9c-1.4 0-2.4-1.1-2.4-2.5l.2-11.5c0-.2 0-.5.1-.7 1.6-4.7-2.1-12.6-3.7-15.4L32 78.2c-.1-.1-.1-.2-.2-.3-2.1-3.6-5.7-3.4-5.9-3.4-.7 0-1.3-.2-1.8-.6-.5-.4-.8-1-.8-1.7l-.7-16.9c-1.3-3.3-2.5-3.7-2.8-3.7-.8-.1-2 .8-2.7 1.6l-2 19.2c0 .1 0 .2-.1.4-2.2 8.3 3.6 16.5 3.7 16.6l15.7 22.3c.4.6.5 1.4.3 2.1l-2.9 10c-.4 1.3-1.7 2-3 1.6-1.3-.4-2-1.7-1.6-3l2.6-8.9-15-21.4c-.3-.4-7.1-10-4.4-20.4l2.1-19.8c0-.4.2-.8.5-1.2.3-.5 3.5-4.5 7.7-4 2.9.4 5.2 2.8 6.8 7.2.1.2.1.5.2.8l.6 15.2c2.3.4 5.6 1.7 7.8 5.5L50.4 94c.1.1.1.2.2.2.7 1.2 6.6 11.4 4.3 19.1l-.2 11.2c-.1 1.3-1.1 2.4-2.5 2.4z"/><path d="M35.6 96.2c-.6 0-1.3-.3-1.8-.8l-11.3-12-.1-.1C22.1 83 19 79 20 74.9c.4-1.6 1.5-3.7 4.9-5.1 1.2-.5 2.6.1 3.1 1.3s-.1 2.6-1.3 3.1-1.9 1.1-2 1.8c-.3 1.3.9 3.4 1.5 4.2l11.2 11.9c.9 1 .9 2.5-.1 3.4-.5.5-1.1.7-1.7.7zM76 126.4c-1.3 0-2.4-1-2.4-2.4l-.2-10.2c-2.3-7.7 3.6-18 4.3-19.1.1-.1.1-.2.2-.2l14.4-18.6c2.3-3.8 5.6-5.1 7.8-5.5l.6-15.2c0-.3.1-.5.2-.8 1.6-4.4 3.9-6.8 6.8-7.2 4.2-.6 7.3 3.5 7.7 4 .3.3.4.8.5 1.2l2.1 19.8c2.6 10.4-4.2 20-4.5 20.5l-15 21.3 2.6 8.9c.4 1.3-.4 2.6-1.6 3-1.3.4-2.6-.4-3-1.6l-2.9-10c-.2-.7-.1-1.5.3-2.1l15.7-22.3c.1-.1 5.9-8.3 3.7-16.6 0-.1-.1-.2-.1-.4l-2-19.2c-.7-.8-1.9-1.7-2.7-1.6-.3 0-1.5.5-2.8 3.7l-.7 16.9c0 .7-.3 1.3-.8 1.7-.5.4-1.1.6-1.8.6-.1 0-3.8-.2-5.9 3.4-.1.1-.1.2-.2.3L81.7 97.3c-1.6 2.8-5.3 10.6-3.7 15.4.1.2.1.5.1.7l.2 10.5c.1 1.4-.9 2.5-2.3 2.5z"/><path d="M92.6 96.8c-.6 0-1.2-.2-1.7-.7-1-.9-1-2.4-.1-3.4L102 80.8c.7-.8 1.8-2.9 1.5-4.2-.2-.7-.9-1.3-2-1.8-1.2-.5-1.8-1.9-1.3-3.1.5-1.2 1.9-1.8 3.1-1.3 3.3 1.4 4.5 3.5 4.9 5.1 1 4.1-2.2 8-2.5 8.5l-.1.1L94.3 96c-.4.5-1.1.8-1.7.8zM70.5 105.3h-.3l-12.4-1.6c-.4 0-.7-.2-1.1-.4-.3-.2-3.2-2.3-3.1-5.3 0-1.3.6-3.2 3.2-4.9.5-.3 1.2-.5 1.8-.3h.1V92c0-.7.4-1.4.9-1.8.6-.4 1.3-.6 2-.4l10.8 2.3c1.3.3 2.1 1.5 1.9 2.8l-1.5 8.4c-.1 1.2-1.1 2-2.3 2zM59.1 99l9.5 1.2.7-3.9-5.8-1.2v.8c0 .7-.4 1.4-.9 1.8-.6.4-1.3.6-2 .4l-1.8-.4c-.2.2-.2.3-.2.3-.2.2.1.6.5 1z"/><path d="M60.4 90.1c-.7 0-1.4-.3-1.9-.9-.5.3-1 .5-1.7.5-1.3.1-3.2-.2-5.1-2.7-1.8-2.2-1.5-4-1-5 .8-1.7 2.7-2.4 4.3-2.7l.2-1.7c.1-1.1 1-2 2.1-2.1l10-1.1c1.2-.1 2.3.6 2.6 1.7l3 10.5c.2.7.1 1.5-.4 2.1-.4.6-1.1 1-1.8 1l-10.2.5-.1-.1zM59 83.2c.7.1 1.3.4 1.7 1l.8 1.1 5.8-.3-1.6-5.6-6 .7-.2 1.8c0 .4-.2.9-.5 1.3zm-3.5 1c.4.5.6.7.8.7.1-.1.3-.3.3-.4.1-.2.2-.4.3-.5-.4 0-1 .1-1.4.2z"/><path d="M57.1 76.7c-.3 0-.6-.1-.9-.2-.5-.2-1-.6-1.2-1.1-1.4.7-3.3 1.2-5 .8-1.5-.4-2.7-1.6-3.3-3.2-1-2.7-.8-4.7.5-6.1.6-.7 1.4-1.1 2.2-1.3l-.2-1.6c-.2-1.3.6-2.5 1.9-2.7l9.2-1.8c1-.2 2.1.3 2.6 1.2l4.8 8.7c.3.6.4 1.3.2 1.9-.2.6-.7 1.2-1.3 1.4l-8.4 3.7c-.4.3-.7.3-1.1.3zm-5.7-5.1c.5.1 2.1-.6 3.2-1.6.6-.5 1.4-.6 2.1-.5.7.2 1.3.7 1.6 1.4v.1l3.8-1.7-2.7-4.9-5.1 1 .3 2.1c.1.8-.2 1.6-.8 2.2s-1.5.7-2.3.5c-.2 0-.4-.1-.7-.1 0 .2.1.6.3 1.1.2.3.3.3.3.4z"/><path d="M50.9 61.9c-.4 0-.9-.1-1.2-.3-.6-.4-1-1-1.1-1.6-1 .3-2 .4-3.1.2-1.3-.3-3.2-1.4-4.2-4.5-.9-2.7-.6-4.6.8-5.9 1-.9 2.4-1.1 3.6-1v-.5c.1-1.3 1.1-2.3 2.4-2.3h11.1c1.1 0 2.1.8 2.3 1.8l2 8.1c.3 1.3-.5 2.6-1.8 2.9-.7.2-1.3 0-1.8-.3l-8.1 3.2c-.3.1-.6.2-.9.2zm-.4-8.4c.3 0 .6 0 .8.1.9.3 1.5 1.1 1.6 2v.4l5.2-2-.8-3.3h-6.9l-.1 1.2c0 .8-.5 1.5-1.2 1.9-.7.4-1.5.5-2.2.1-.4-.2-.9-.3-1.3-.4 0 .1.1.3.2.5.3 1 .7 1.3.8 1.3.4.1 1.6-.5 2.3-1.2.4-.4 1-.6 1.6-.6z"/><path d="M47.6 46.8c-.6 0-1.2-.2-1.7-.7-.5-.5-.8-1.3-.7-2v-.3c-.7-.1-1.5-.3-2.3-.7-1.1-.6-2.6-2-3-4.9-.4-2.9.7-4.4 1.7-5.1 1.6-1.2 3.6-1 5.1-.7l1.1-1.4c.6-.8 1.6-1.1 2.6-.8l10.2 3c1 .3 1.7 1.2 1.7 2.3l.1 6.5c0 .3 0 .6-.1.8 0 1.2-.9 2.1-2.1 2.3l-12.4 1.7h-.2zm.3-8.2c.5 0 1 .2 1.4.5.7.5 1.1 1.4 1 2.2v.3l7.3-1-.1-3.2-7-2-1.1 1.4c-.7.9-1.9 1.2-2.9.7-.5-.3-1.4-.5-1.8-.5v.6c.1.7.3 1.2.5 1.4.4.2 1.3 0 1.7-.2.4-.2.7-.2 1-.2z"/><path d="M61.3 32.8h-.4l-10.8-1.9c-.7-.1-1.2-.5-1.6-1.1-.4-.6-.5-1.3-.3-1.9l.2-.8c-1.2-.5-2.6-1.4-3.3-2.9-.5-1.1-.9-2.8.3-5.1 1.4-2.5 3.1-3 4.3-3 .9 0 1.7.3 2.4.7.7-1.1 2.2-1.5 3.3-.8l8.8 5.2c.9.5 1.3 1.6 1.1 2.6L63.6 31c-.2 1.1-1.2 1.8-2.3 1.8zm-7.8-6.2l5.9 1.1.7-3.1-5.1-3.2-.4.7c-.4.7-1.2 1.2-2.1 1.2h-.1c.4.2.7.5.9.8.4.6.5 1.3.3 1.9l-.1.6zm-3.7-5.4c0 .1-.1.2-.1.3-.2.4-.2.6-.2.6.1.3 1.1.7 2 .9-.4-.2-.8-.5-1-1-.3-.2-.5-.5-.7-.8z"/><path d="M66 20.4c-.3 0-.6-.1-.9-.2l-9.2-3.6c-.6-.3-1.1-.8-1.4-1.4-.2-.7-.2-1.4.2-2l.3-.6c-1.4-1.1-3-2.9-3.2-4.9-.1-1.5.5-2.9 1.7-4 1.8-1.5 3.5-1.6 4.6-1.4 1.3.2 2.3.9 3.1 1.6l.8-.4c1-.5 2.3-.3 3 .6l6.9 8.6c.8 1 .7 2.4-.3 3.3l-4.2 3.8c-.3.4-.9.6-1.4.6zm-5.8-7.3l5.2 2.1 1.4-1.3-4.3-5.3-.7.4c-1.1.6-2.6.2-3.2-.9-.2-.4-.8-1-1.2-1.1-.2 0-.6.3-.7.4.3.6 1.5 1.7 2.7 2.4 1.1.7 1.5 2.1.9 3.2l-.1.1z"/></g></switch></svg>