<svg version="1.1" id="Layer_1" xmlns="http://www.w3.org/2000/svg" x="0" y="0" viewBox="0 0 128 128" xml:space="preserve"><style>.st0{fill:#d6b2f5}.st1{fill:#070707}</style><switch><g><circle class="st0" cx="63.8" cy="15.8" r="12.1"/><circle class="st0" cx="33.7" cy="72.4" r="10.3"/><circle class="st0" cx="64.9" cy="72.4" r="10.3"/><circle class="st0" cx="95.2" cy="72.4" r="10.3"/><circle class="st0" cx="109.9" cy="98.5" r="11.7"/><circle class="st0" cx="17.8" cy="99.5" r="11.7"/><circle class="st0" cx="48.7" cy="100.5" r="11.7"/><circle class="st0" cx="79.3" cy="99.5" r="11.7"/><path class="st1" d="M63.8 29.3C57.3 29.3 52 24 52 17.5S57.3 5.7 63.8 5.7 75.6 11 75.6 17.5s-5.3 11.8-11.8 11.8zm0-18.6c-3.7 0-6.8 3-6.8 6.8s3 6.8 6.8 6.8 6.8-3 6.8-6.8-3.1-6.8-6.8-6.8zM34.2 86.8c-6 0-9.8-4.5-9.8-11.8 0-6.8 3.6-10.8 9.8-10.8S44 68.1 44 75c-.1 7.3-3.8 11.8-9.8 11.8zm0-17.5c-2.5 0-4.8.7-4.8 5.8 0 3.1.8 6.8 4.8 6.8s4.8-3.7 4.8-6.8c-.1-5.1-2.4-5.8-4.8-5.8zM64.9 86.3c-6 0-9.8-4.5-9.8-11.8 0-6.8 3.6-10.8 9.8-10.8s9.8 3.9 9.8 10.8c-.1 7.3-3.8 11.8-9.8 11.8zm0-17.5c-2.5 0-4.8.7-4.8 5.8 0 3.1.8 6.8 4.8 6.8 3.9 0 4.8-3.7 4.8-6.8-.1-5.1-2.4-5.8-4.8-5.8zM94.4 87.3c-6 0-9.8-4.5-9.8-11.8 0-6.8 3.6-10.8 9.8-10.8 6.2 0 9.8 3.9 9.8 10.8 0 7.3-3.7 11.8-9.8 11.8zm0-17.5c-2.5 0-4.8.7-4.8 5.8 0 3.1.8 6.8 4.8 6.8 3.9 0 4.8-3.7 4.8-6.8 0-5.1-2.3-5.8-4.8-5.8zM17.8 111.8c-6 0-9.8-4.5-9.8-11.8 0-6.8 3.6-10.8 9.8-10.8s9.8 3.9 9.8 10.8c0 7.2-3.7 11.8-9.8 11.8zm0-17.6c-2.5 0-4.8.7-4.8 5.8 0 3.1.8 6.8 4.8 6.8s4.8-3.7 4.8-6.8c0-5.1-2.3-5.8-4.8-5.8zM48.9 112.7c-6 0-9.8-4.5-9.8-11.8 0-6.8 3.6-10.8 9.8-10.8s9.8 3.9 9.8 10.8c-.1 7.3-3.8 11.8-9.8 11.8zm0-17.6c-2.5 0-4.8.7-4.8 5.8 0 3.1.8 6.8 4.8 6.8s4.8-3.7 4.8-6.8c-.1-5.1-2.4-5.8-4.8-5.8zM79.3 111.8c-6 0-9.8-4.5-9.8-11.8 0-6.8 3.6-10.8 9.8-10.8 6.2 0 9.8 3.9 9.8 10.8 0 7.2-3.8 11.8-9.8 11.8zm0-17.6c-2.5 0-4.8.7-4.8 5.8 0 3.1.8 6.8 4.8 6.8 3.9 0 4.8-3.7 4.8-6.8 0-5.1-2.3-5.8-4.8-5.8zM109.4 111.8c-6 0-9.8-4.5-9.8-11.8 0-6.8 3.6-10.8 9.8-10.8 6.2 0 9.8 3.9 9.8 10.8 0 7.3-3.8 11.8-9.8 11.8zm0-17.6c-2.5 0-4.8.7-4.8 5.8 0 3.1.8 6.8 4.8 6.8 3.9 0 4.8-3.7 4.8-6.8 0-5.1-2.3-5.8-4.8-5.8zM92 62.1H37c-1.4 0-2.5-1.1-2.5-2.5V47.5c0-1.4 1.1-2.5 2.5-2.5h55c1.4 0 2.5 1.1 2.5 2.5v12.1c0 1.4-1.2 2.5-2.5 2.5zm-52.5-5h50V50h-50v7.1z"/><path class="st1" d="M80.9 48.3c-.2 0-.4 0-.5-.1-1.3-.3-2.2-1.6-1.9-3 .9-4 .6-7.1-.8-9.3-1.2-1.9-3-2.5-3.4-2.6-.9-.1-5.8-.4-16.7-.3-3.2 0-5.5 1.1-7 3.2-2.2 3.1-2 7.5-1.8 8.4.6 1.1.2 2.6-.9 3.2-1.2.7-2.7.3-3.4-.8-1.2-1.9-1.2-8 1.3-12.4 1.6-3 5-6.5 11.9-6.6 12.4-.1 17.1.3 17.3.3h.2c.4.1 4.2.9 6.8 4.7 2.2 3.3 2.7 7.7 1.5 13.1-.4 1.4-1.4 2.2-2.6 2.2zm-32.2-3.8zM16.8 91.6c-.9 0-1.7-.5-2.2-1.3-.7-1.2-.2-2.7 1-3.4l9.7-5.3c1.2-.7 2.7-.2 3.4 1 .7 1.2.2 2.7-1 3.4L18 91.3c-.4.2-.8.3-1.2.3zM48.9 91.6c-.5 0-1.1-.2-1.5-.5l-8-6.2c-1.1-.8-1.3-2.4-.4-3.5.8-1.1 2.4-1.3 3.5-.4l6.5 5 6.9-4.8c1.1-.8 2.7-.5 3.5.6.8 1.1.5 2.7-.6 3.5l-8.4 5.8c-.5.4-1 .5-1.5.5zM79.6 92.7c-.6 0-1.3-.3-1.8-.8l-7.5-7.6c-1-1-.9-2.6 0-3.5s2.6-.9 3.5 0l5.8 5.9 5.6-5.4c1-1 2.6-.9 3.5.1 1 1 .9 2.6-.1 3.5L81.3 92c-.5.4-1.1.7-1.7.7zM111 92.7c-.6 0-1.2-.2-1.7-.7l-7.4-7.1c-1-1-1-2.5-.1-3.5 1-1 2.5-1 3.5-.1l7.4 7.1c1 1 1 2.5.1 3.5-.5.5-1.1.8-1.8.8zM3.1 123.4c-1.4 0-2.5-1.1-2.5-2.5v-5.3c0-.7.3-1.3.8-1.8l7.5-7.1c1-1 2.6-.9 3.5.1.9 1 .9 2.6-.1 3.5l-6.7 6.4v4.2c0 1.4-1.2 2.5-2.5 2.5zM33.1 122.7H33c-1.4-.1-2.4-1.2-2.4-2.6l.2-4.6-7.9-6.6c-1.1-.9-1.2-2.5-.3-3.5.9-1.1 2.5-1.2 3.5-.3l8.8 7.5c.6.5.9 1.3.9 2l-.3 5.8c0 1.3-1.1 2.3-2.4 2.3z"/><path class="st1" d="M33.4 116.9c-.9 0-1.8-.5-2.3-1.4-.6-1.2-.1-2.7 1.2-3.3l8.9-4.2c1.2-.6 2.7-.1 3.3 1.2.6 1.2.1 2.7-1.2 3.3l-8.9 4.2c-.3.1-.7.2-1 .2zM64.9 122c-1.4 0-2.5-1.1-2.5-2.5v-3.8l-7.5-4.3c-1.2-.7-1.6-2.2-.9-3.4.7-1.2 2.2-1.6 3.4-.9l8.7 5c.8.4 1.2 1.3 1.2 2.2v5.3c.1 1.3-1.1 2.4-2.4 2.4z"/><path class="st1" d="M64.9 116.8c-.8 0-1.6-.4-2.1-1.2-.7-1.2-.4-2.7.8-3.4l7.9-5c1.2-.7 2.7-.4 3.4.8.7 1.2.4 2.7-.8 3.4l-7.9 5c-.4.2-.9.4-1.3.4zM95.1 122.7c-.1 0-.1 0 0 0-1.4 0-2.5-1.2-2.5-2.5l.1-4.5-7.5-6.3c-1.1-.9-1.2-2.5-.3-3.5.9-1.1 2.5-1.2 3.5-.3l8.4 7.1c.6.5.9 1.2.9 2l-.1 5.7c-.1 1.2-1.2 2.3-2.5 2.3z"/><path class="st1" d="M97.7 116.2c-.7 0-1.4-.3-1.9-.9-.9-1.1-.7-2.6.3-3.5l5.9-4.9c1.1-.9 2.6-.7 3.5.3.9 1.1.7 2.6-.3 3.5l-5.9 4.9c-.5.4-1.1.6-1.6.6zM124 122.7c-1.4 0-2.5-1.1-2.5-2.5V116l-6.4-5.3c-1.1-.9-1.2-2.4-.4-3.5.9-1.1 2.4-1.2 3.5-.4l7.4 6c.6.5.9 1.2.9 1.9v5.4c0 1.5-1.1 2.6-2.5 2.6z"/><path class="st1" d="M125 125.5H3.1c-1.4 0-2.5-1.1-2.5-2.5s1.1-2.5 2.5-2.5h122c1.4 0 2.5 1.1 2.5 2.5s-1.2 2.5-2.6 2.5zM46.5 85.8c-1.4 0-2.5-1.1-2.5-2.5V61.5c0-1.4 1.1-2.5 2.5-2.5s2.5 1.1 2.5 2.5v21.8c0 1.4-1.1 2.5-2.5 2.5zM81.8 85.8c-1.4 0-2.5-1.1-2.5-2.5V61.5c0-1.4 1.1-2.5 2.5-2.5s2.5 1.1 2.5 2.5v21.8c0 1.4-1.1 2.5-2.5 2.5zM55.1 48.3c-1.4 0-2.5-1.1-2.5-2.5v-4.9c0-1.4 1.1-2.5 2.5-2.5s2.5 1.1 2.5 2.5v4.9c0 1.4-1.1 2.5-2.5 2.5zM72.2 50c-1.4 0-2.5-1.1-2.5-2.5v-6.6c0-1.4 1.1-2.5 2.5-2.5s2.5 1.1 2.5 2.5v6.6c0 1.4-1.2 2.5-2.5 2.5z"/></g></switch></svg>