<?xml version="1.0" encoding="utf-8"?>
<!-- Generator: Adobe Illustrator 24.3.0, SVG Export Plug-In . SVG Version: 6.00 Build 0)  -->
<svg version="1.1" id="Layer_1" xmlns="http://www.w3.org/2000/svg" xmlns:xlink="http://www.w3.org/1999/xlink" x="0px" y="0px"
	 viewBox="0 0 128 128" style="enable-background:new 0 0 128 128;" xml:space="preserve">
<style type="text/css">
	.st0{fill:#D6B2F5;}
	.st1{fill:#231F20;}
</style>
<g>
	<g>
		<g>
			<circle class="st0" cx="99.1" cy="51.6" r="10.6"/>
		</g>
	</g>
	<circle class="st0" cx="64.8" cy="24.8" r="15.5"/>
	<g>
		<circle class="st0" cx="41.5" cy="51.6" r="10.6"/>
	</g>
	<g>
		<path class="st1" d="M65,15.1c-1.1,0-2.1-0.8-2.1-1.8V2.8c0-1,0.9-1.8,2.1-1.8s2.1,0.8,2.1,1.8v10.5C67.1,14.3,66.2,15.1,65,15.1z
			"/>
	</g>
	<g>
		<path class="st1" d="M64.6,38.4c-7.6,0-13.7-6.2-13.7-13.7S57,11,64.6,11c7.6,0,13.7,6.2,13.7,13.7S72.2,38.4,64.6,38.4z
			 M64.6,15.1c-5.3,0-9.6,4.3-9.6,9.6s4.3,9.6,9.6,9.6c5.3,0,9.6-4.3,9.6-9.6S69.9,15.1,64.6,15.1z"/>
	</g>
	<g>
		<path class="st1" d="M64.8,38.3c-0.7,0-1.3-0.3-1.7-0.9c-4-6-5.5-11.6-4.4-16.7c1.4-6.3,6.3-9.3,6.5-9.4c1-0.6,2.3-0.3,2.9,0.7
			c0.6,1,0.3,2.3-0.7,2.8c-0.1,0-3.6,2.3-4.6,6.8c-0.9,3.9,0.4,8.4,3.8,13.4c0.6,1,0.4,2.2-0.6,2.9C65.6,38.2,65.1,38.3,64.8,38.3z"
			/>
	</g>
	<g>
		<path class="st1" d="M65.5,38.1c-0.4,0-0.9-0.1-1.2-0.4c-0.9-0.7-1.1-2-0.4-2.9c8.8-11.8,0.6-19.6,0.3-19.9
			c-0.8-0.8-0.9-2.1-0.1-2.9c0.8-0.8,2.1-0.9,2.9-0.1c0.1,0.1,11.3,10.5,0.3,25.5C66.8,37.8,66.2,38.1,65.5,38.1z"/>
	</g>
	<g>
		<path class="st1" d="M53.9,26.9c-1.1,0-2.1-0.9-2.1-2.1c0-1.1,0.9-2.1,2.1-2.1l20.7-0.1c0,0,0,0,0,0c1.1,0,2.1,0.9,2.1,2.1
			c0,1.1-0.9,2.1-2.1,2.1L53.9,26.9C53.9,26.9,53.9,26.9,53.9,26.9z"/>
	</g>
	<g>
		<path class="st1" d="M82.4,20.5c-0.5,0-0.9-0.2-1.2-0.7c-0.4-0.7-0.2-1.5,0.5-1.9l3.7-2.3c0.7-0.4,1.5-0.2,1.9,0.5
			c0.4,0.7,0.2,1.5-0.5,1.9l-3.7,2.3C82.9,20.4,82.7,20.5,82.4,20.5z"/>
	</g>
	<g>
		<path class="st1" d="M84.3,26.2c-0.8,0-1.4-0.6-1.4-1.4c0-0.8,0.6-1.4,1.4-1.4l5.3-0.1c0.8,0,1.4,0.6,1.4,1.4
			c0,0.8-0.6,1.4-1.4,1.4L84.3,26.2C84.3,26.2,84.3,26.2,84.3,26.2z"/>
	</g>
	<g>
		<path class="st1" d="M86.1,34c-0.2,0-0.5-0.1-0.7-0.2l-3.7-2c-0.7-0.4-0.9-1.2-0.6-1.9c0.4-0.7,1.2-0.9,1.9-0.6l3.7,2
			c0.7,0.4,0.9,1.2,0.6,1.9C87.1,33.7,86.6,34,86.1,34z"/>
	</g>
	<g>
		<path class="st1" d="M47.3,20.7c-0.2,0-0.5-0.1-0.7-0.2l-4.1-2.3c-0.7-0.4-0.9-1.2-0.6-1.9c0.4-0.7,1.2-0.9,1.9-0.6L48,18
			c0.7,0.4,0.9,1.2,0.6,1.9C48.3,20.4,47.8,20.7,47.3,20.7z"/>
	</g>
	<g>
		<path class="st1" d="M45.2,26.4h-4.8c-0.8,0-1.4-0.6-1.4-1.4s0.6-1.4,1.4-1.4h4.8c0.8,0,1.4,0.6,1.4,1.4S46,26.4,45.2,26.4z"/>
	</g>
	<g>
		<path class="st1" d="M42.8,35.1c-0.5,0-0.9-0.2-1.2-0.6c-0.4-0.7-0.2-1.5,0.4-1.9l4.5-2.9c0.7-0.4,1.5-0.2,1.9,0.4
			c0.4,0.7,0.2,1.5-0.4,1.9l-4.5,2.9C43.3,35,43.1,35.1,42.8,35.1z"/>
	</g>
	<g>
		<path class="st1" d="M20.7,127.3c-2.8,0-5.2-2-5.8-2.4c-0.6-0.5-1-1.3-1-2.2V103c0-0.3,0-0.5,0.1-0.8l3.8-13.6L23,72.2
			C18.2,69.6,9.9,64,10.8,58.1c1.1-6.6,11.7-12.1,13.8-13.2c0.5-0.3,1.1-0.3,1.7-0.3c2.4,0.3,3.6,1.6,4.2,2.7
			c1.6,2.6,0.5,5.8,0.3,6.4c-0.1,0.3-0.2,0.5-0.4,0.8l-3,3.9l5.6,2.8l10.2,0.9c0,0,0.1,0,0.1,0l7.4,1c0.7-2.3,1.5-5.4,1.5-7.2
			c0-1.6,0.7-2.6,1.3-3.2c0.6-0.6,1.7-1.3,3.6-1.2l0.5,0c1.9,0.1,3.8,0.1,5.1,1.8c0.9,1.1,1,2.5,0.9,3.4c2.3,5.9,1.4,12.4-2.4,17.1
			c-0.5,0.6-1,1.2-1.6,1.6c-3.7,3.3-9.2,2.4-12.6,1.4l-4.6,12.3l0.2,9.4c0.1,3.1,1.3,6,3.4,8.2l11.4,11.7c0.7,0.7,1,1.8,0.7,2.7
			c-1,3.5-2.9,5-4.4,5.6c-3.3,1.3-6.5-0.5-6.8-0.7c-0.2-0.1-0.4-0.2-0.5-0.4l-12.8-12.4c-2.3-2.2-3.7-5.2-3.8-8.5l-0.2-6.1
			c-1.9,3.5-3,7.5-3.1,11.5l-0.2,11.6c0,0.3-0.1,0.6-0.1,0.8c-0.9,3-2.8,4-4.1,4.4C21.7,127.3,21.2,127.3,20.7,127.3z M19.6,121.3
			c0.4,0.2,0.8,0.3,1,0.4c0-0.1,0.1-0.2,0.2-0.3l0.2-11.2c0.1-6,2-11.7,5.3-16.7l3.6-5.3c0.7-1,2-1.5,3.1-1.1c1.2,0.3,2,1.4,2.1,2.6
			l0.6,14.9c0.1,1.7,0.8,3.4,2,4.6l12.5,12.1c0.4,0.2,1.1,0.4,1.5,0.2c0.1-0.1,0.3-0.2,0.4-0.4l-10.1-10.3c-3.2-3.2-5-7.5-5.1-12.1
			l-0.2-10c0-0.4,0.1-0.7,0.2-1.1l5.7-15.5c0.3-0.7,0.8-1.3,1.6-1.6c0.7-0.3,1.6-0.3,2.3,0c2.2,1,7.3,2.4,9.3,0.6
			c0.3-0.3,0.6-0.6,0.9-1c2.5-3.1,3.1-7.4,1.5-11.4L58,58.2c-0.1-0.3-0.2-0.6-0.2-0.9c0,0,0,0-0.1,0c-0.4,3.9-2.1,9.2-2.4,9.9
			c-0.4,1.3-1.7,2.1-3.1,1.9l-9.8-1.3l-10.7-1c-0.4,0-0.7-0.1-1-0.3L21.7,62c-0.8-0.4-1.3-1.1-1.5-1.9c-0.2-0.8,0-1.7,0.5-2.4
			l4.8-6.3c0-0.2,0.1-0.4,0.1-0.6c-3.9,2.2-8.8,5.8-9.2,8.2c-0.3,1.7,5.3,6.3,11.3,9.3c1.3,0.6,1.9,2.1,1.4,3.4l-5.9,18.6l-3.6,13.1
			V121.3z"/>
	</g>
	<g>
		<path class="st1" d="M40.7,61.1c-5,0-9.1-4.1-9.1-9.1s4.1-9.1,9.1-9.1s9.1,4.1,9.1,9.1S45.7,61.1,40.7,61.1z M40.7,48.6
			c-1.9,0-3.4,1.5-3.4,3.4c0,1.9,1.5,3.4,3.4,3.4c1.9,0,3.4-1.5,3.4-3.4C44.1,50.1,42.6,48.6,40.7,48.6z"/>
	</g>
	<g>
		<g>
			<path class="st1" d="M98.9,61.1c-5,0-9.1-4.1-9.1-9.1s4.1-9.1,9.1-9.1S108,47,108,52S103.9,61.1,98.9,61.1z M98.9,48.6
				c-1.9,0-3.4,1.5-3.4,3.4c0,1.9,1.5,3.4,3.4,3.4s3.4-1.5,3.4-3.4C102.3,50.1,100.8,48.6,98.9,48.6z"/>
		</g>
	</g>
	<g>
		<path class="st1" d="M77.2,127.7c-0.6,0-1.2-0.1-1.7-0.3c-3.4-1.1-4.4-4.8-3.9-7.7c0.1-0.4,0.3-0.8,0.5-1.2l6.3-8.2
			c0.2-0.3,0.4-0.5,0.7-0.7c5.5-3.5,6.4-13.1,6.3-17.4c-2.9-4.9-3.2-13.7-3.1-17.5C81,74,79,72.7,77.1,71.4
			c-3.9-2.6-5.6-6.9-5.7-7.4c-0.1-0.2-0.1-0.3-0.1-0.5c-0.3-2.1-1.9-12.6,0.5-17.5c1.3-2.5,3.1-3.3,4.3-3.5c3.1-0.5,5.6,1.8,6.1,2.3
			c0.4,0.4,0.7,1,0.8,1.6l1.4,10.5c0,0.4,0.3,0.7,0.6,0.8l9.9,4.1c0,0,0,0,0,0c1.1,0.4,2,1,2.7,1.7c3.1,2.7,5.8,2.8,8.9,2
			c1.7-0.4,4-4.1,5.4-6.4c1.3-2.1,2.3-3.8,3.6-4.7c1.1-0.8,2.4-1.1,3.7-0.8c2.7,0.7,4.3,3.6,4.7,4.5c0.4,0.7,0.4,1.6,0,2.3
			l-5.2,11.2c-1.8,3.9-5.3,6.6-9.3,7.2c-1.7,0.3-3.5,0.3-4.9,0.3c1,2.9,2.8,6.3,4,8.4c0.1,0.2,0.2,0.3,0.2,0.5l4.8,14
			c0.1,0.3,0.1,0.6,0.1,0.9v17.3c0,2.8-1.6,5.2-4,6.2c-1.9,0.8-3.5,0.4-4.5-0.1c-2.4-1.2-3.3-4-3.4-4.5c-0.1-0.2-0.1-0.5-0.1-0.7
			l0-16.6c-0.7-1.2-1.3-2.5-2-3.8c-0.4-0.9-1-1.9-1.5-2.9c-0.1,1.1-0.1,2.3,0,3.4c0.3,7.1-2.1,9.9-3.3,10.8l-13.2,13.7
			C80.4,127,78.8,127.7,77.2,127.7z M76.9,121.2c0,0.5,0.1,0.9,0.2,1c0.1,0,0.3,0,0.5-0.2L91,108.1c0.1-0.1,0.3-0.3,0.5-0.4
			c0.2-0.2,1.4-1.6,1.2-6.2c-0.2-5.7,0.5-9.3,2.1-10.7c0.8-0.7,1.9-1,3-0.8c2.8,0.6,4.6,4,6.7,8.2c0.7,1.4,1.4,2.8,2.2,4.1
			c0.2,0.4,0.4,0.9,0.4,1.4l0,16.9c0.1,0.3,0.3,0.5,0.4,0.7c0,0,0,0,0,0c0.4-0.2,0.6-0.6,0.6-1.2v-16.8L103.5,90
			c-1-1.6-5.2-9-5.5-13.9c-0.1-0.8,0.3-1.7,0.9-2.2c0.6-0.6,1.5-0.8,2.3-0.6c0,0,3.6,0.7,7.1,0.2c2.2-0.4,4.2-1.9,5.2-4.1l4.6-9.9
			c0,0-0.1-0.1-0.1-0.1c-0.5,0.7-1.2,1.7-1.7,2.6c-2.2,3.5-4.8,7.8-8.7,8.8c-3.4,0.8-8.5,1.4-13.8-3.2c-0.3-0.3-0.7-0.5-1.3-0.7
			l-9.9-4.1c-2.1-0.9-3.6-2.8-3.9-5.1l-1.2-9.3c-0.3-0.2-0.5-0.3-0.7-0.3c0.1,0-0.1,0.2-0.3,0.6c-1.2,2.4-0.8,9.5-0.1,13.9
			c0.3,0.7,1.5,3.1,3.6,4.5c3.2,2.1,6.4,4.1,6.4,4.1c0.8,0.5,1.3,1.5,1.3,2.5c-0.2,4.7,0.3,13.2,2.5,16.3c0.3,0.4,0.5,0.9,0.5,1.4
			c0,0.7,0.8,16.4-8.4,22.7L76.9,121.2z M91.4,107.7L91.4,107.7L91.4,107.7z M91.6,107.6C91.6,107.6,91.6,107.6,91.6,107.6
			C91.6,107.6,91.6,107.6,91.6,107.6z M91.6,107.6C91.6,107.6,91.6,107.6,91.6,107.6C91.6,107.6,91.6,107.6,91.6,107.6z M91.6,107.6
			C91.6,107.6,91.6,107.6,91.6,107.6C91.6,107.6,91.6,107.6,91.6,107.6z"/>
	</g>
</g>
</svg>
