<svg version="1.1" id="Layer_1" xmlns="http://www.w3.org/2000/svg" x="0" y="0" viewBox="0 0 128 128" xml:space="preserve"><style>.st0{fill:#d6b2f5}.st1{fill:#070707}</style><switch><g><circle class="st0" cx="65.9" cy="102.3" r="11.4"/><circle class="st0" cx="63.3" cy="14.2" r="11.4"/><path class="st1" d="M3.8 127.3c-.7 0-1.3-.3-1.8-.8s-.7-1.1-.7-1.8L2.2 95c0-.1 0-.3.1-.4 0-.2 4.5-20 24.6-22.8 10.5-1.4 16-2 18.8-2.2v-8.5c0-1.4 1.1-2.5 2.5-2.5s2.5 1.1 2.5 2.5V72c0 .7-.3 1.4-.8 1.9s-1.2.7-1.9.6c-.3 0-3.5-.1-20.4 2.3C11.8 78.9 7.7 93.4 7.2 95.4l-.8 26.9 116.5-.7c0-4.6-.4-14.9-2-23.1-1.6-8.2-7.6-15.1-18.4-21.1-5.7-3.2-19.4-2.7-24.3-2.2-.7.1-1.4-.2-1.9-.6-.5-.5-.8-1.1-.8-1.9V62.3c0-1.4 1.1-2.5 2.5-2.5s2.5 1.1 2.5 2.5v7.6c5.5-.3 18-.6 24.5 3 12.1 6.8 18.9 14.8 20.8 24.5 2.3 11.5 2.1 26 2.1 26.6 0 1.4-1.1 2.5-2.5 2.5l-121.6.8z"/><path class="st1" d="M63.4 67.5c-16.8 0-28.1-13-28.1-32.3C35.3 18.1 45 .8 63.4.8c19 0 29.2 17.7 29.2 34.4 0 18.7-12.3 32.3-29.2 32.3zm0-61.7c-15.2 0-23.1 14.8-23.1 29.4 0 13.6 7.2 27.3 23.1 27.3 14.2 0 24.2-11.2 24.2-27.3 0-14.3-8.5-29.4-24.2-29.4z"/><path class="st1" d="M79.7 38H49.8c-.7 0-1.4-.3-1.9-.8L37.4 25.4c-.7-.7-.8-1.8-.4-2.7s1.3-1.5 2.3-1.5h46.6c.9 0 1.7.5 2.1 1.2.5.7.5 1.7.1 2.5L82 36.6c-.5.9-1.4 1.4-2.3 1.4zm-28.8-5h27.3l3.5-6.7H44.9l6 6.7z"/><path d="M66.2 15.8l4 .2c-.2 1.7-.8 3.1-1.9 4-1.1.9-2.5 1.4-4.1 1.4-1.9 0-3.5-.6-4.7-1.9-1.2-1.3-1.8-3-1.8-5.3 0-2.2.6-4 1.7-5.4 1.1-1.4 2.7-2.1 4.7-2.1 1.9 0 3.3.5 4.3 1.6 1 1 1.6 2.4 1.7 4.1l-4.1.2c0-1-.2-1.6-.5-2.1s-.8-.6-1.3-.6c-1.4 0-2.1 1.4-2.1 4.1 0 1.5.2 2.6.5 3.2s.9.8 1.5.8c1.4.2 2-.6 2.1-2.2zM65 79.4c-9.4 0-17.3-3.8-17.8-4.1-1.2-.6-1.7-2.1-1.1-3.3.6-1.2 2.1-1.7 3.3-1.1.2.1 15.1 7.2 26.7.9 1.2-.7 2.7-.2 3.4 1 .7 1.2.2 2.7-1 3.4-4.5 2.4-9.2 3.2-13.5 3.2zM57.8 99.9c-.6 0-1.1-.2-1.6-.6L42.7 87.9c-.3-.3-.5-.6-.7-1l-5-12.1c-.5-1.3.1-2.7 1.4-3.3 1.3-.5 2.7.1 3.3 1.4l4.8 11.6 13 11c1.1.9 1.2 2.5.3 3.5-.6.6-1.3.9-2 .9zM72 100.5c-.8 0-1.7-.4-2.1-1.2-.7-1.2-.4-2.7.8-3.4L87 85.8l1.6-11.9c.2-1.4 1.4-2.3 2.8-2.1 1.4.2 2.3 1.4 2.1 2.8l-1.8 13.1c-.1.7-.5 1.4-1.2 1.8l-17.3 10.7c-.3.1-.7.3-1.2.3z"/><path d="M66.1 114.8h-.2c-5.9 0-10.6-4.8-10.6-10.6 0-5.9 4.8-10.6 10.6-10.6 5.9 0 10.6 4.8 10.6 10.6 0 1.2-.2 2.4-.6 3.5-.5 1.3-1.9 2-3.2 1.5-1.3-.5-2-1.9-1.5-3.2.2-.6.3-1.2.3-1.9 0-3.1-2.5-5.6-5.6-5.6-3.1 0-5.6 2.5-5.6 5.6 0 3.1 2.5 5.6 5.6 5.6h.2c1.4 0 2.5 1.1 2.5 2.5s-1.1 2.6-2.5 2.6z"/><path d="M66.6 123c-.6 0-1.2-.2-1.7-.6-.5-.4-.8-1.1-.8-1.7l-.5-8.2c-.1-1.4 1-2.6 2.4-2.6 1.4-.1 2.6 1 2.6 2.4l.3 5.7 4-.3-1.8-10.3c-.2-1.4.7-2.7 2-2.9 1.4-.2 2.7.7 2.9 2l2.2 13.1c.1.7-.1 1.4-.5 2-.4.6-1.1.9-1.8.9l-9.3.6c.1-.1 0-.1 0-.1z"/><circle cx="65.9" cy="104.1" r="2.9"/><path d="M28.7 126.6c-1.4 0-2.5-1.1-2.5-2.5v-22.5c0-1.4 1.1-2.5 2.5-2.5s2.5 1.1 2.5 2.5v22.5c0 1.4-1.1 2.5-2.5 2.5z"/><path d="M28.7 117.5H4.1c-1.4 0-2.5-1.1-2.5-2.5s1.1-2.5 2.5-2.5h24.6c1.4 0 2.5 1.1 2.5 2.5s-1.1 2.5-2.5 2.5zM97.5 126.8c-1.4 0-2.5-1.1-2.5-2.5v-22.6c0-1.4 1.1-2.5 2.5-2.5s2.5 1.1 2.5 2.5v22.6c0 1.3-1.1 2.5-2.5 2.5z"/><path d="M125.2 117.5H98c-1.4 0-2.5-1.1-2.5-2.5s1.1-2.5 2.5-2.5h27.2c1.4 0 2.5 1.1 2.5 2.5s-1.1 2.5-2.5 2.5z"/></g></switch></svg>