<svg version="1.1" id="Layer_1" xmlns="http://www.w3.org/2000/svg" x="0" y="0" viewBox="0 0 128 128" xml:space="preserve"><style>.st0{fill:#d6b2f5}.st1{fill:#020202}</style><switch><g><circle class="st0" cx="72.2" cy="10.9" r="9.8"/><circle class="st0" cx="65.3" cy="100.3" r="7.9"/><path class="st1" d="M35 43.9c-.8 0-1.7-.4-2.1-1.2-.7-1.2-.4-2.7.8-3.4l30.1-18.6c.8-.5 1.8-.5 2.6 0L97 39c1.2.7 1.6 2.2.9 3.4-.7 1.2-2.2 1.6-3.4.9L65.1 25.7 36.3 43.5c-.4.2-.9.4-1.3.4zM6.9 75.5c-1.4 0-2.5-1.1-2.5-2.5V48.8c0-1.4 1.1-2.5 2.5-2.5s2.5 1.1 2.5 2.5V73c0 1.4-1.1 2.5-2.5 2.5z"/><path class="st1" d="M31.7 58.1H6.9c-1.4 0-2.5-1.1-2.5-2.5s1.1-2.5 2.5-2.5h24.9c1.4 0 2.5 1.1 2.5 2.5s-1.2 2.5-2.6 2.5zM28.4 82c-1.4 0-2.5-1.1-2.5-2.5V67h-4.4v4c0 1.4-1.1 2.5-2.5 2.5s-2.5-1.1-2.5-2.5v-6.5c0-1.4 1.1-2.5 2.5-2.5h9.4c1.4 0 2.5 1.1 2.5 2.5v15c0 1.4-1.1 2.5-2.5 2.5zM59.6 56.2h-7.3c-1.4 0-2.5-1.1-2.5-2.5V43.2c0-1.4 1.1-2.5 2.5-2.5h7.3c1.4 0 2.5 1.1 2.5 2.5v10.5c0 1.4-1.1 2.5-2.5 2.5zm-4.7-5h2.3v-5.5h-2.3v5.5zM59.2 79.5h-7.3c-1.4 0-2.5-1.1-2.5-2.5V66.5c0-1.4 1.1-2.5 2.5-2.5h7.3c1.4 0 2.5 1.1 2.5 2.5V77c0 1.4-1.1 2.5-2.5 2.5zm-4.8-5h2.3V69h-2.3v5.5zM79 79.5h-7.3c-1.4 0-2.5-1.1-2.5-2.5V66.5c0-1.4 1.1-2.5 2.5-2.5H79c1.4 0 2.5 1.1 2.5 2.5V77c0 1.4-1.1 2.5-2.5 2.5zm-4.8-5h2.3V69h-2.3v5.5zM110.4 105.4h-7.3c-1.4 0-2.5-1.1-2.5-2.5V92.5c0-1.4 1.1-2.5 2.5-2.5h7.3c1.4 0 2.5 1.1 2.5 2.5V103c0 1.3-1.1 2.4-2.5 2.4zm-4.7-5h2.3V95h-2.3v5.4zM110.1 81.5h-7.3c-1.4 0-2.5-1.1-2.5-2.5V68.5c0-1.4 1.1-2.5 2.5-2.5h7.3c1.4 0 2.5 1.1 2.5 2.5V79c0 1.4-1.1 2.5-2.5 2.5zm-4.8-5h2.3V71h-2.3v5.5zM78.8 55.9h-7.3c-1.4 0-2.5-1.1-2.5-2.5V42.9c0-1.4 1.1-2.5 2.5-2.5h7.3c1.4 0 2.5 1.1 2.5 2.5v10.5c0 1.3-1.2 2.5-2.5 2.5zm-4.8-5h2.3v-5.5H74v5.5zM39.5 109.7c-1.4 0-2.5-1.1-2.5-2.5V46.1c0-1.4 1.1-2.5 2.5-2.5s2.5 1.1 2.5 2.5v61.1c0 1.4-1.1 2.5-2.5 2.5zM90.9 109c-1.4 0-2.5-1.1-2.5-2.5V45c0-1.4 1.1-2.5 2.5-2.5s2.5 1.1 2.5 2.5v61.5c0 1.4-1.1 2.5-2.5 2.5zM83.9 91.7H45.4c-1.4 0-2.5-1.1-2.5-2.5s1.1-2.5 2.5-2.5h38.4c1.4 0 2.5 1.1 2.5 2.5s-1.1 2.5-2.4 2.5z"/><path class="st1" d="M65.3 115.2c-1.4 0-2.5-1.1-2.5-2.5V88.1c0-1.4 1.1-2.5 2.5-2.5s2.5 1.1 2.5 2.5v24.6c0 1.4-1.1 2.5-2.5 2.5zM50.8 115.3c-1.4 0-2.5-1.1-2.5-2.5V91.6c0-1.4 1.1-2.5 2.5-2.5s2.5 1.1 2.5 2.5v21.2c0 1.4-1.1 2.5-2.5 2.5zM79.4 116c-1.4 0-2.5-1.1-2.5-2.5V91.6c0-1.4 1.1-2.5 2.5-2.5s2.5 1.1 2.5 2.5v21.9c0 1.3-1.1 2.5-2.5 2.5z"/><path class="st1" d="M100.4 116h-71c-1.4 0-2.5-1.1-2.5-2.5s1.1-2.5 2.5-2.5h71c1.4 0 2.5 1.1 2.5 2.5s-1.1 2.5-2.5 2.5zM108.3 123.9H22.1c-1.4 0-2.5-1.1-2.5-2.5s1.1-2.5 2.5-2.5h86.2c1.4 0 2.5 1.1 2.5 2.5s-1.1 2.5-2.5 2.5zM123.1 56.9H98.3c-1.4 0-2.5-1.1-2.5-2.5s1.1-2.5 2.5-2.5H123c1.4 0 2.5 1.1 2.5 2.5s-1.1 2.5-2.4 2.5z"/><path class="st1" d="M123.1 123.9c-1.4 0-2.5-1.1-2.5-2.5V48.1c0-1.4 1.1-2.5 2.5-2.5s2.5 1.1 2.5 2.5v73.3c0 1.4-1.2 2.5-2.5 2.5zM15.7 125.7c-1.4 0-2.5-1.2-2.5-2.5l.2-10.6c-2.4-.9-6.3-3.1-8.2-7.9-2.8-7.1 0-16.8 8.5-28.8.4-.6 1.1-1 1.9-1.1.8 0 1.5.2 2 .8.6.6 13.7 15.1 10.9 26.7-1.1 4.7-4.5 8.2-10.1 10.4l-.2 10.5c0 1.4-1.1 2.5-2.5 2.5zm.2-44.2C8.4 93 8.4 99.4 9.7 102.9c1.5 3.9 5.4 5.1 6.4 5.4 4.3-1.6 6.7-3.9 7.5-7 1.5-6.3-3.9-15-7.7-19.8zM65 22.8c-1.4 0-2.5-1.1-2.5-2.5V6.1c0-1.4 1.1-2.5 2.5-2.5h14.3c1.4 0 2.5 1.1 2.5 2.5V15c0 1.4-1.1 2.5-2.5 2.5h-9c-1.4 0-2.5-1.1-2.5-2.5s1.1-2.5 2.5-2.5h6.5V8.6h-9.3v11.7c0 1.4-1.1 2.5-2.5 2.5zM68.9 103.5h-7.2c-1.4 0-2.5-1.1-2.5-2.5s1.1-2.5 2.5-2.5h7.2c1.4 0 2.5 1.1 2.5 2.5s-1.1 2.5-2.5 2.5z"/></g></switch></svg>