<svg version="1.1" id="Layer_1" xmlns="http://www.w3.org/2000/svg" x="0" y="0" viewBox="0 0 128 128" style="enable-background:new 0 0 128 128" xml:space="preserve"><style>.st0{fill:#d6b2f5}</style><circle class="st0" cx="63.9" cy="28.4" r="13.4"/><ellipse class="st0" cx="78.7" cy="17.4" rx="14.3" ry="13.4"/><circle class="st0" cx="47.9" cy="16.4" r="13.4"/><path d="M64 43c-7.7 0-14-6.3-14-14s6.3-14 14-14 14 6.3 14 14-6.3 14-14 14zm0-23c-5 0-9 4-9 9s4 9 9 9 9-4 9-9-4-9-9-9z"/><path d="M77 35c-.8 0-1.7-.1-2.4-.2-1.4-.2-2.3-1.5-2-2.9.2-1.4 1.5-2.3 2.9-2 .5.1 1 .1 1.6.1 5.5 0 10-4.5 10-10s-4.5-10-10-10c-4.7 0-8.9 3.4-9.8 8-.3 1.4-1.6 2.2-2.9 2-1.4-.3-2.2-1.6-2-2.9 1.4-7 7.6-12 14.7-12 8.3 0 15 6.7 15 15S85.3 35 77 35z"/><path d="M50.8 33c-8.4 0-15.2-6.6-15.2-14.8S42.3 3.5 50.8 3.5C59 3.5 65.7 9.7 66 17.7c.1 1.4-1 2.5-2.4 2.6-1.3.1-2.5-1-2.6-2.4-.2-5.3-4.7-9.4-10.2-9.4-5.7 0-10.2 4.4-10.2 9.8S45.1 28 50.8 28c.5 0 .9 0 1.3-.1 1.4-.2 2.6.8 2.8 2.2s-.8 2.6-2.2 2.8c-.6.1-1.3.1-1.9.1zM82 60.3c-1.4 0-2.5-1.1-2.5-2.5 0-8.4-7.2-15.3-16-15.3s-16 6.9-16 15.3c0 1.4-1.1 2.5-2.5 2.5s-2.5-1.1-2.5-2.5c0-11.2 9.4-20.3 21-20.3s21 9.1 21 20.3c0 1.4-1.1 2.5-2.5 2.5z"/><path d="M82 62.8H45c-1.4 0-2.5-1.1-2.5-2.5s1.1-2.5 2.5-2.5h37c1.4 0 2.5 1.1 2.5 2.5s-1.1 2.5-2.5 2.5zM47.7 51H32c-1.4 0-2.5-1.1-2.5-2.5S30.7 46 32 46h15.7c1.4 0 2.5 1.1 2.5 2.5S49.1 51 47.7 51zM64.9 43c-1 0-1.9-.6-2.3-1.5 0 0 0-.1-.1-.1v-.1c-.7-1.2-.2-2.7.9-3.4 1.2-.7 2.7-.3 3.4.9.1.1.1.2.2.3v.1c.2.4.3.8.3 1.2.1 1.4-1 2.6-2.4 2.6z"/><path d="M32 51.1c-.7 0-2.4-.3-2.5-2.8V48c0-.3.1-.6.2-.9 1.2-10.4 8.5-18.5 17.9-19.5 1.8-.2 3.7-.1 5.5.3 1.4.3 2.2 1.6 1.9 3-.3 1.4-1.6 2.2-3 1.9-1.3-.3-2.7-.3-4-.2-7.3.8-13 7.6-13.5 16.1-.1 1.5-1.3 2.4-2.5 2.4zM99.6 53H83c-1.4 0-2.5-1.1-2.5-2.5S81.6 48 83 48h16.6c1.4 0 2.5 1.1 2.5 2.5S101 53 99.6 53z"/><path d="M99.5 53.1c-1.3 0-2.4-1.1-2.5-2.4-.6-8.5-6.2-15.3-13.5-16.1-1.3-.1-2.7-.1-4 .2-1.3.3-2.7-.6-3-1.9-.3-1.4.6-2.7 1.9-3 1.8-.4 3.7-.5 5.5-.3 8.9 1 16 8.4 17.7 18.1.2.4.4.8.4 1.3v.2c.1 1.6 0 3.8-2.5 3.9.1 0 .1 0 0 0zM104.9 124H74.1c-3.9 0-7.1-3.2-7.1-7.1v-9.7c0-3.9 3.2-7.1 7.1-7.1h30.7c3.9 0 7.1 3.2 7.1 7.1v9.7c.1 3.9-3.1 7.1-7 7.1zm-30.8-19c-1.2 0-2.1 1-2.1 2.1v9.7c0 1.2 1 2.1 2.1 2.1h30.7c1.2 0 2.1-1 2.1-2.1v-9.7c0-1.2-1-2.1-2.1-2.1H74.1zM54.9 124H24.1c-3.9 0-7.1-3.2-7.1-7.1v-9.7c0-3.9 3.2-7.1 7.1-7.1h30.7c3.9 0 7.1 3.2 7.1 7.1v9.7c.1 3.9-3.1 7.1-7 7.1zm-30.8-19c-1.2 0-2.1 1-2.1 2.1v9.7c0 1.2 1 2.1 2.1 2.1h30.7c1.2 0 2.1-1 2.1-2.1v-9.7c0-1.2-1-2.1-2.1-2.1H24.1z"/><path d="M102.6 105c-1 0-1.9-.6-2.3-1.6-1.3-3.4-.5-9.3 17.6-24.8 5.6-4.8 3.3-11.9 3.2-12.2-.1-.2-.1-.5-.1-.7 0-.2-.9-24.9-3.3-33-.7-2.5-1.3-2.5-3.5-2.5h-.5c-.9 0-1.6.2-2.2.8-.8.9-1.1 2.5-.8 4.1v.5l-.7 19c0 .7-.4 1.4-.9 1.9-.6.5-1.3.6-2 .5-2.3-.5-3 .8-3.1 1.3-1.4 10.6-10.3 13.5-10.6 13.6-.1 0-.2 0-.3.1-13.6 2.5-13.4 14-13.3 14.4v16.1c0 1.4-1.1 2.5-2.5 2.5s-2.5-1.1-2.5-2.5V86.6C74.6 81 77.9 69.9 92 67.1c.8-.3 6.2-2.5 7.1-9.6 0-.1 0-.2.1-.3.5-2.1 2.6-4.8 6.1-5.3l.6-16.2c-.4-3 .3-6 2.1-8 1.5-1.7 3.7-2.6 6.1-2.6h.4c2.5.1 6.4.2 8.1 6.1 2.4 8.3 3.4 30.7 3.5 33.9.6 2 2.6 10.9-4.8 17.2-17.6 15.1-16.3 19.2-16.2 19.2.5 1.3-.1 2.7-1.4 3.2-.5.2-.8.3-1.1.3z"/><path d="M101.5 85c-.5 0-.9-.1-1.3-.4-1.2-.7-1.5-2.3-.8-3.4L110.8 63c.2-1.2.4-3.8-.6-5.1-.2-.2-.8-1-2.7-1-1.4 0-2.5-1.1-2.5-2.5s1.1-2.5 2.5-2.5c3.6 0 5.6 1.6 6.6 2.9 2.8 3.6 1.6 9.1 1.4 9.7-.1.3-.2.5-.3.7l-11.6 18.5c-.5.9-1.3 1.3-2.1 1.3zM52.6 105h-.4c-1.4-.2-2.3-1.5-2.1-2.9.1-.8 3-19.5-11.7-27.8-.1 0-.2-.1-.4-.1-1.9-.5-6.5-1.8-11.3-8.7l-.3-.6c-.6-1.8-3.1-7.2-6.1-7.8-1.1-.2-2-1.2-2-2.3l-1-17.9c-.1-2.6-1.8-4.9-4.2-5.6-1.4-.4-2 0-2.4.5-.6.6-.9 1.5-.9 2.5v14.8c0 1.4-1.1 2.5-2.5 2.5s-2.5-1.1-2.5-2.5v-15c0-2.3.8-4.4 2.3-5.9 1.9-2 4.6-2.7 7.5-1.8 4.4 1.3 7.6 5.4 7.8 10.1l.9 16.2c4.7 2.2 7.2 8.4 7.9 10.2 3.7 5.2 6.8 6.1 8.4 6.5.5.1.9.3 1.4.5 18 10 14.5 32.1 14.3 33-.5 1.2-1.5 2.1-2.7 2.1zM24.5 104h-.4c-1.4-.2-2.3-1.5-2.1-2.9.6-3.8-10.1-15-16.2-18.6C-1 78.3 2 67.3 2.1 66.8c.4-1.3 1.7-2.1 3.1-1.7 1.3.4 2.1 1.7 1.7 3.1-.6 2-1.5 8.2 1.5 10 4.9 2.9 19.9 15.7 18.5 23.7-.1 1.2-1.2 2.1-2.4 2.1z"/><path d="M26.9 85c-.8 0-1.6-.4-2.1-1.1L13.3 66.7c-.1-.2-.2-.3-.3-.5-.2-.5-1.8-5.2.3-9.1 1.1-2.1 3-3.5 5.5-4.1 1.3-.3 2.7.5 3 1.8.3 1.3-.5 2.7-1.8 3-1.2.3-1.9.8-2.3 1.6-.8 1.5-.4 3.8-.1 4.8L29 81.1c.8 1.1.5 2.7-.7 3.5-.5.3-.9.4-1.4.4z"/><circle cx="6" cy="58" r="2.5"/><circle cx="50.5" cy="112.5" r="3.5"/><circle cx="77.5" cy="112.5" r="3.5"/></svg>