<svg version="1.1" id="Layer_1" xmlns="http://www.w3.org/2000/svg" x="0" y="0" viewBox="0 0 128 128" style="enable-background:new 0 0 128 128" xml:space="preserve"><style>.st1{fill:#231f20}</style><circle cx="93.1" cy="105.5" r="17.5" style="fill:#d6b2f5"/><path class="st1" d="M16.5 45h-6.1C6.9 45 4 42.1 4 38.5v-11c0-3.6 2.9-6.5 6.5-6.5h6.1c3.6 0 6.5 2.9 6.5 6.5v11.1c-.1 3.5-3 6.4-6.6 6.4zm-6-19c-.8 0-1.5.7-1.5 1.5v11.1c0 .8.7 1.5 1.5 1.5h6.1c.8 0 1.5-.7 1.5-1.5V27.5c0-.8-.7-1.5-1.5-1.5h-6.1z"/><path class="st1" d="M92.5 30c-.2 0-.5 0-.7-.1L30.2 11.3l-12.9 13c-1 1-2.6 1-3.5 0-1-1-1-2.6 0-3.5l14-14c.7-.7 1.6-.9 2.5-.6l63 19c1.3.4 2.1 1.8 1.7 3.1-.4 1-1.4 1.7-2.5 1.7z"/><path class="st1" d="M122 39.5c-.5 0-.9-.1-1.3-.4L106.4 30H22.5c-1.4 0-2.5-1.1-2.5-2.5s1.1-2.5 2.5-2.5h84.6c.5 0 .9.1 1.3.4l14.9 9.5c1.2.7 1.5 2.3.8 3.5-.5.7-1.3 1.1-2.1 1.1z"/><path class="st1" d="M122.5 40h-100c-1.4 0-2.5-1.1-2.5-2.5s1.1-2.5 2.5-2.5h100c1.4 0 2.5 1.1 2.5 2.5s-1.1 2.5-2.5 2.5z"/><path class="st1" d="M29.5 125c-1.4 0-2.5-1.1-2.5-2.5v-84c0-1.4 1.1-2.5 2.5-2.5s2.5 1.1 2.5 2.5v84c0 1.4-1.1 2.5-2.5 2.5zM49.8 125c-1.4 0-2.5-1.1-2.5-2.5v-84c0-1.4 1.1-2.5 2.5-2.5s2.5 1.1 2.5 2.5v84c0 1.4-1.1 2.5-2.5 2.5zM29.5 29c-1.4 0-2.5-1.1-2.5-2.5V11.3c0-1.4 1.1-2.5 2.5-2.5S32 9.9 32 11.3v15.2c0 1.4-1.1 2.5-2.5 2.5z"/><path class="st1" d="M43.9 29c-.8 0-1.5-.4-2-1L29.2 10.5c-.8-1.1-.6-2.7.6-3.5 1.1-.8 2.7-.6 3.5.6L45.9 25c.8 1.1.6 2.7-.6 3.5-.4.3-.9.5-1.4.5zM99.6 51H88.5c-1.2 0-2.2-.8-2.4-2l-2.2-10c-.3-1.3.5-2.7 1.9-3 1.4-.3 2.7.6 3 1.9l1.8 8h7.3l2.4-7.3c.4-1.3 1.8-2 3.2-1.6 1.3.4 2 1.8 1.6 3.2l-2.9 9c-.6 1.1-1.5 1.8-2.6 1.8zM118.1 82H69.5c-1 0-2-.7-2.3-1.6s-.1-2.1.7-2.8l24.9-21.4c1-.8 2.4-.8 3.3 0l23.8 21.4c.8.7 1 1.8.7 2.8-.5 1-1.4 1.6-2.5 1.6zm-41.9-5h35.4L94.3 61.4 76.2 77z"/><path class="st1" d="M93.8 58.3c-1.4 0-2.5-1.1-2.5-2.5v-7.3c0-1.4 1.1-2.5 2.5-2.5s2.5 1.1 2.5 2.5v7.3c0 1.4-1.1 2.5-2.5 2.5zM118.1 124.1c-1.4 0-2.5-1.1-2.5-2.5V91.3H72v30.3c0 1.4-1.1 2.5-2.5 2.5S67 123 67 121.6V88.8c0-1.4 1.1-2.5 2.5-2.5h48.6c1.4 0 2.5 1.1 2.5 2.5v32.8c0 1.4-1.1 2.5-2.5 2.5z"/><path class="st1" d="M101.2 124.1c-1.4 0-2.5-1.1-2.5-2.5v-17h-9.9v17c0 1.4-1.1 2.5-2.5 2.5s-2.5-1.1-2.5-2.5v-19.5c0-1.4 1.1-2.5 2.5-2.5h14.9c1.4 0 2.5 1.1 2.5 2.5v19.5c0 1.4-1.1 2.5-2.5 2.5z"/><path class="st1" d="M122.5 126.6H64c-1.4 0-2.5-1.1-2.5-2.5s1.1-2.5 2.5-2.5h58.5c1.4 0 2.5 1.1 2.5 2.5s-1.1 2.5-2.5 2.5zM46.6 124.1c-.7 0-1.3-.3-1.8-.8l-15.4-16.4c-.5-.5-.7-1.1-.7-1.8s.3-1.3.8-1.7l15.9-14.7-16.1-18.3c-.4-.5-.7-1.2-.6-1.9.1-.7.4-1.3.9-1.7L46 53.3l-13.6-13c-1-1-1-2.5-.1-3.5 1-1 2.5-1 3.5-.1l15.6 15c.5.5.8 1.2.8 1.9s-.4 1.4-.9 1.8L34.8 69.1l16 18.1c.9 1 .8 2.6-.2 3.5l-15.8 14.7L48.5 120c.9 1 .9 2.6-.1 3.5-.6.4-1.2.6-1.8.6z"/><path class="st1" d="M48.4 54.6H31.2c-1.4 0-2.5-1.1-2.5-2.5s1.1-2.5 2.5-2.5h17.2c1.4 0 2.5 1.1 2.5 2.5s-1.1 2.5-2.5 2.5zM45.5 90.4H31.2c-1.4 0-2.5-1.1-2.5-2.5s1.1-2.5 2.5-2.5h14.3c1.4 0 2.5 1.1 2.5 2.5s-1.1 2.5-2.5 2.5zM48.4 107.7H34.2c-1.4 0-2.5-1.1-2.5-2.5s1.1-2.5 2.5-2.5h14.2c1.4 0 2.5 1.1 2.5 2.5s-1.1 2.5-2.5 2.5zM57.6 126.6H5.3c-1.4 0-2.5-1.1-2.5-2.5s1.1-2.5 2.5-2.5h52.3c1.4 0 2.5 1.1 2.5 2.5s-1.1 2.5-2.5 2.5zM112.2 74.1c-1.4 0-2.5-1.1-2.5-2.5v-11H105V64c0 1.4-1.1 2.5-2.5 2.5S100 65.4 100 64v-5.9c0-1.4 1.1-2.5 2.5-2.5h9.7c1.4 0 2.5 1.1 2.5 2.5v13.5c0 1.4-1.1 2.5-2.5 2.5zM48.4 71.3H34.2c-1.4 0-2.5-1.1-2.5-2.5s1.1-2.5 2.5-2.5h14.2c1.4 0 2.5 1.1 2.5 2.5s-1.1 2.5-2.5 2.5z"/></svg>