<svg version="1.1" id="Layer_1" xmlns="http://www.w3.org/2000/svg" x="0" y="0" viewBox="0 0 128 128" xml:space="preserve"><style>.st0{fill:#d6b2f5}.st1{fill:#050505}</style><switch><g><circle class="st0" cx="92.4" cy="31.4" r="24.2"/><circle class="st0" cx="35.3" cy="66.3" r="24.2"/><circle class="st0" cx="38" cy="19.1" r="3.4"/><circle class="st0" cx="29.3" cy="19.1" r="3.4"/><circle class="st0" cx="45.6" cy="19.1" r="3.4"/><path class="st1" d="M35.3 92.9c-7.9 0-15.2-4.2-19.1-11.1-1.9-3.3-2.9-7.1-2.9-11 0-12.1 9.9-22 22-22s22 9.9 22 22c0 3.9-1 7.6-2.9 11-3.9 6.9-11.2 11.1-19.1 11.1zm0-39c-9.4 0-17 7.6-17 17 0 3 .8 5.9 2.3 8.5 3 5.3 8.7 8.6 14.8 8.6s11.7-3.3 14.8-8.6c1.5-2.6 2.3-5.5 2.3-8.5-.2-9.4-7.8-17-17.2-17zM92.6 56.8c-12.1 0-22-9.9-22-22s9.9-22 22-22 22 9.9 22 22-9.9 22-22 22zm0-39.1c-9.4 0-17 7.6-17 17s7.6 17 17 17 17-7.6 17-17c0-9.3-7.6-17-17-17z"/><path class="st1" d="M8.2 123.2c-1.4 0-2.5-1.1-2.5-2.5V99.2c0-.2 0-.4.1-.6 1.3-5.2 6.7-15 17.1-14.2 1.4.1 2.4 1.3 2.3 2.7-.1 1.4-1.3 2.4-2.7 2.3-8.2-.6-11.3 8.4-11.8 10.2v21.1c0 1.3-1.2 2.5-2.5 2.5zM64.2 124.5c-1.3 0-2.4-1.1-2.5-2.4l-.8-19.5v-.3c.9-11.5-9.8-14.7-10.3-14.8-1.3-.4-2.1-1.8-1.7-3.1.4-1.3 1.8-2.1 3.1-1.7 5.2 1.5 14.8 7.5 13.9 19.9l.8 19.3c.1 1.4-1 2.5-2.4 2.6h-.1zM64.2 80.4h-.1c-1.4-.1-2.4-1.2-2.4-2.6l.8-14.9c.3-5 3.9-14.6 15.5-15.8 1.4-.1 2.6.9 2.7 2.2s-.9 2.6-2.2 2.7c-10.2 1-11 10.7-11 11.1L66.7 78c-.1 1.4-1.2 2.4-2.5 2.4zM119.2 80.4c-1.4 0-2.5-1.1-2.5-2.5V63.2c-1.7-9.8-9.7-10.9-10-10.9-1.4-.2-2.3-1.4-2.2-2.8.2-1.4 1.4-2.3 2.8-2.2 4.2.5 12.6 4.3 14.4 15.3v15.3c0 1.4-1.2 2.5-2.5 2.5zM20.3 123.2c-1.4 0-2.5-1.1-2.5-2.5v-13c0-1.4 1.1-2.5 2.5-2.5s2.5 1.1 2.5 2.5v13c0 1.3-1.1 2.5-2.5 2.5zM50.3 123.2c-1.4 0-2.5-1.1-2.5-2.5v-13c0-1.4 1.1-2.5 2.5-2.5s2.5 1.1 2.5 2.5v13c0 1.3-1.1 2.5-2.5 2.5z"/><path class="st1" d="M123.7 124.5c-1.4 0-2.5-1.1-2.5-2.5V86.7c0-2-1.6-3.6-3.6-3.6H52.3c-1.4 0-2.5-1.1-2.5-2.5s1.1-2.5 2.5-2.5h65.3c4.7 0 8.6 3.9 8.6 8.6V122c0 1.3-1.1 2.5-2.5 2.5zM3.6 124.5c-1.4 0-2.5-1.1-2.5-2.5V86.5c0-4.6 3.8-8.4 8.4-8.4h8.9c1.4 0 2.5 1.1 2.5 2.5s-1.1 2.5-2.5 2.5H9.5c-1.9 0-3.4 1.5-3.4 3.4V122c0 1.3-1.1 2.5-2.5 2.5zM92.3 67.1c-.6 0-1.2-.2-1.7-.7L76.7 53.2c-1-.9-1-2.5-.1-3.5 1-1 2.5-1 3.5-.1l12.2 11.6 12.4-11.4c1-.9 2.6-.9 3.5.2.9 1 .9 2.6-.2 3.5L94 66.4c-.4.4-1 .7-1.7.7z"/><path class="st1" d="M91.7 82.2c-1.4 0-2.5-1.1-2.5-2.5V66.3c0-1.4 1.1-2.5 2.5-2.5s2.5 1.1 2.5 2.5v13.5c0 1.3-1.1 2.4-2.5 2.4zM75.5 82.2c-1.4 0-2.5-1.1-2.5-2.5V69.3c0-1.4 1.1-2.5 2.5-2.5s2.5 1.1 2.5 2.5v10.4c0 1.4-1.1 2.5-2.5 2.5zM106.9 82.2c-1.4 0-2.5-1.1-2.5-2.5l-.1-9.1c0-1.4 1.1-2.5 2.5-2.5s2.5 1.1 2.5 2.5l.1 9.1c.1 1.4-1 2.5-2.5 2.5.1 0 .1 0 0 0zM52.6 33.9H23c-3.3 0-6.1-2.7-6.1-6.1V11.7c0-3.3 2.7-6.1 6.1-6.1h29.6c3.3 0 6.1 2.7 6.1 6.1v4.5c0 1.4-1.1 2.5-2.5 2.5s-2.5-1.1-2.5-2.5v-4.5c0-.6-.5-1.1-1.1-1.1H23c-.6 0-1.1.5-1.1 1.1v16.1c0 .6.5 1.1 1.1 1.1h29.6c.6 0 1.1-.5 1.1-1.1V24c0-1.4 1.1-2.5 2.5-2.5s2.5 1.1 2.5 2.5v3.9c0 3.3-2.8 6-6.1 6z"/><path class="st1" d="M56.2 26.5c-.9 0-1.8-.5-2.3-1.4-.6-1.2-.1-2.7 1.2-3.3l2.8-1.3-3.1-2.1c-1.1-.8-1.4-2.3-.6-3.5.8-1.1 2.3-1.4 3.5-.6l6.7 4.6c.7.5 1.1 1.4 1.1 2.3-.1.9-.6 1.7-1.4 2.1l-6.7 3.2c-.5-.1-.9 0-1.2 0z"/><circle class="st1" cx="29.5" cy="19.4" r="2.2"/><circle class="st1" cx="37.6" cy="19.4" r="2.2"/><circle class="st1" cx="45.6" cy="19.4" r="2.2"/><path class="st1" d="M110.7 43c-.9 0-1.8-.5-2.3-1.4-2.7-5.7-8.6-8.8-11.9-10.2-.7-.3-1.6-.2-2.2.3-12.1 9.4-20.2 6.7-20.5 6.6-1.3-.5-2-1.9-1.5-3.2.5-1.3 1.9-2 3.1-1.5.2.1 6.2 1.7 15.9-5.8 2.1-1.6 4.8-2 7.2-1 4 1.7 11.1 5.5 14.5 12.7.6 1.2 0 2.7-1.2 3.3-.4.1-.7.2-1.1.2z"/></g></switch></svg>