<svg version="1.1" id="Layer_1" xmlns="http://www.w3.org/2000/svg" x="0" y="0" viewBox="0 0 128 128" style="enable-background:new 0 0 128 128" xml:space="preserve"><style>.st0{fill:#d6b2f5}.st1{fill:#231f20}</style><circle class="st0" cx="26.6" cy="32.3" r="9.4"/><circle class="st0" cx="92.6" cy="37.3" r="9.4"/><path class="st1" d="M27.4 41.9c-4.7 0-8.5-3.8-8.5-8.5s3.8-8.5 8.5-8.5 8.5 3.8 8.5 8.5-3.8 8.5-8.5 8.5zm0-12c-1.9 0-3.5 1.6-3.5 3.5s1.6 3.5 3.5 3.5 3.5-1.6 3.5-3.5-1.5-3.5-3.5-3.5zM92 47.2c-4.7 0-8.5-3.8-8.5-8.5s3.8-8.5 8.5-8.5 8.5 3.8 8.5 8.5-3.8 8.5-8.5 8.5zm0-12.1c-1.9 0-3.5 1.6-3.5 3.5s1.6 3.5 3.5 3.5 3.5-1.6 3.5-3.5-1.6-3.5-3.5-3.5z"/><ellipse transform="rotate(-33.809 99.008 32.715)" class="st1" cx="99" cy="32.7" rx="3.5" ry="5"/><path class="st1" d="M48.6 122c-3.4 0-6.2-2.5-6.5-2.8-.5-.5-.8-1.1-.7-1.8.3-6.2.9-23.1 0-27.4-.5-2.6-3.7-6.6-6.6-9.5L21.6 118c-.2.5-.5.9-.9 1.2-2.8 1.8-5.2 2.2-7.1 1.2-3.1-1.6-3.1-6-3.1-6.5 0-.2 0-.4.1-.6l8.9-32.4c-.4.5-1 1-1.6 1.2-3.1 1.4-6.8-1.6-7.9-2.5-.3-.3-.6-.7-.7-1.1-.2-.6-4.4-14.3-4.4-21.2 0-7.9 13.3-13 16-13.9.2-.1.5-.1.8-.1l14.1-.1 13.7-26.7c.3-.6.9-1.1 1.6-1.2 3-.6 4.8.3 5.9 1.2 2.4 2 2.5 5.2 2.5 5.6 0 .4-.1.8-.3 1.1L45.9 48.1 42.8 70l11.6 16.4c.3.4.4.9.4 1.4v29.4c0 .4-.1.8-.3 1.2-1.6 2.6-3.6 3.4-5 3.6h-.9zm-2.5-5.6c.8.5 1.9 1.1 2.8.9.2 0 .7-.1 1.3-.9V88.5L38.4 72c-.3-.5-.5-1.1-.4-1.7L41.3 47c0-.3.1-.5.2-.8l13-24.8c-.1-.5-.3-1.1-.7-1.5-.2-.2-.6-.3-.9-.3L39.1 46.5c-.4.8-1.2 1.3-2.1 1.3l-15.1.2c-5.1 1.9-12.4 6-12.4 9.3 0 5.4 3.1 16.3 3.9 19.1.8.6 1.7 1.1 2.3 1.3.1-.2.1-.5.2-1.1-1.5-3.8-5.5-14.5-3.7-19.1 2.1-5.3 8.5-7.2 8.8-7.3.6-.2 1.3-.1 1.9.3.6.3.9.9 1.1 1.5l3.3 17c.1.4.1.7 0 1.1l-12.3 44c.1.9.4 1.9.7 2.1 0 0 .5.1 1.7-.6l14.1-40.2c.3-.7.9-1.3 1.6-1.5.8-.2 1.6 0 2.1.5 1 .8 9.5 8.5 10.7 14.6 1.1 5.1.4 22.3.2 27.4zM19.8 55.8c-1.3.8-2.7 1.9-3.3 3.4-.8 2.1 1.4 10 3.9 16.1.1.3.2.6.2.9v.1l1.9-6.9-2.7-13.6zM79.5 122.6c-1.2 0-2.6-.5-4.1-1.4-1-.6-2.3-1.4-8.2-28.6l-7.3.7c-.9.1-1.8-.4-2.3-1.2-.5-.8-.4-1.8.2-2.6l17-21.9c.1-2.6-.1-5.6-.6-6.5-1.1-2.3 0-5.2 1.2-7.2-3.5-3.1-10.8-11-8.6-21.6.1-.5.4-1 .8-1.3l17.2-14.8c.2-.1.3-.3.5-.3.4-.2 3.6-1.6 6.1.2 1.7 1.2 2.5 3.3 2.2 6.4-.1.7-.4 1.3-.9 1.7L78.5 35c-.4 1.3-1.2 5.4 3 10.9l11.1 3.9 10.2-5.5 6.7-17.2c.2-.5.6-1 1.1-1.3.8-.4 4.8-2.3 7.7-.5 1.1.7 2.3 2 2.3 4.8 0 6-7.4 20-8.3 21.6-.3.5-.7.9-1.2 1.1-7.4 3.1-14.3 6.9-15.4 8.5 0 2.9.5 6.4 5 12.1l.2.2 9.4 15.2c.4.7.5 1.6.1 2.4-.4.7-1.2 1.2-2.1 1.2H97.5l2.2 22.9v.2c0 .4-.1 4.1-3 5.8-2.1 1.2-4.8.9-8.1-.9-.6-.3-1.1-1-1.2-1.7l-4.3-26.3h-3.4c-.4 1-1 3.1 0 6.5v.1l3.8 16c.3 1.2.9 5.1-1.7 6.9-.6.5-1.4.7-2.3.7zm-1.2-5.1.8.4c.1-.5 0-1.3-.1-1.9l-3.7-15.8c-2.2-7.6 1.2-11.3 1.6-11.7.4-.5 1-.7 1.7-.7h6.6c1.2 0 2.1.8 2.3 2l4.4 27.1c1.3.6 2.1.6 2.5.5.4-.2.6-1.1.7-1.7l-2.4-25.3c-.1-.7.2-1.3.6-1.8.4-.5 1.1-.8 1.7-.8h9.3l-7.1-11.5c-5.3-6.8-6-11.3-6-15.3 0-1.2 0-4.8 17.6-12.2 3-5.7 7.3-15.2 7.3-18.6 0-.6-.1-.8-.1-.8-.3-.1-1.3 0-2.3.4l-6.7 17c-.2.5-.6 1-1.1 1.2L94 54.4c-.6.3-1.3.4-1.9.2l-12.8-4.4c-.4-.1-.8-.4-1.1-.7-7.5-9.4-4-16.6-3.8-16.9.2-.3.4-.6.7-.8l13.8-10.6c0-.7-.2-1.1-.3-1.2-.1-.1-.7 0-1.2.2l-16.3 14c-1.5 10.1 8.5 17.4 8.6 17.5.5.4.9.9 1 1.6.1.6-.1 1.3-.4 1.8-1.1 1.5-2.1 3.6-2 4.3 1.3 2.6 1.1 8.4 1 9.5 0 .5-.2.9-.5 1.3l-13.9 18 4-.4c1.2-.1 2.3.7 2.5 1.8 2.5 11.9 5.7 25.2 6.9 27.9z"/><path class="st1" d="M49.3 51.4v5.4l15-3.4v-5.1z"/><path class="st1" d="M52.8 65.2c-1 0-1.8-.8-1.8-1.8v-8.6c0-1 .8-1.8 1.8-1.8s1.8.8 1.8 1.8v8.6c0 1-.8 1.8-1.8 1.8zM61.5 64.3c-1 0-1.8-.8-1.8-1.8v-8.6c0-1 .8-1.8 1.8-1.8s1.8.8 1.8 1.8v8.6c0 1-.8 1.8-1.8 1.8z"/><ellipse class="st1" cx="51.3" cy="63.4" rx="2.9" ry="2.2"/><ellipse class="st1" cx="60" cy="62.6" rx="2.9" ry="2.2"/><g><path class="st1" d="M25.4 5.3V11l16-3.6V2z"/><path class="st1" d="M29.1 19.9c-1.1 0-1.9-.9-1.9-1.9V8.8c0-1.1.9-1.9 1.9-1.9s1.9.8 1.9 1.9V18c0 1.1-.8 1.9-1.9 1.9zM38.4 19c-1.1 0-1.9-.9-1.9-1.9V7.9c0-1.1.9-1.9 1.9-1.9s1.9.9 1.9 1.9v9.2c0 1.1-.8 1.9-1.9 1.9z"/><ellipse class="st1" cx="27.6" cy="18" rx="3.1" ry="2.3"/><ellipse class="st1" cx="36.8" cy="17.2" rx="3.1" ry="2.3"/></g><g><path class="st1" d="M99.4 8.3V14l16-3.6V5z"/><path class="st1" d="M103.1 22.9c-1.1 0-1.9-.9-1.9-1.9v-9.2c0-1.1.9-1.9 1.9-1.9 1.1 0 1.9.9 1.9 1.9V21c0 1.1-.8 1.9-1.9 1.9zM112.4 22c-1.1 0-1.9-.9-1.9-1.9v-9.2c0-1.1.9-1.9 1.9-1.9 1.1 0 1.9.9 1.9 1.9v9.2c0 1.1-.8 1.9-1.9 1.9z"/><ellipse class="st1" cx="101.6" cy="21" rx="3.1" ry="2.3"/><ellipse class="st1" cx="110.8" cy="20.2" rx="3.1" ry="2.3"/></g></svg>