<svg version="1.1" id="Layer_1" xmlns="http://www.w3.org/2000/svg" x="0" y="0" viewBox="0 0 128 128" style="enable-background:new 0 0 128 128" xml:space="preserve"><style>.st1{fill:#231f20}</style><circle cx="84.1" cy="60.9" r="25.1" style="fill:#d6b2f5"/><path class="st1" d="M61.8 86.8c-1.5 0-2.9-.2-4.4-.6-11.4-3-18.8-17-19.1-17.6-.2-.4-.3-.8-.3-1.2l.1-17.4h-4.6c-1.4 0-2.5-1.1-2.5-2.5C31 27.3 40.6 7 62 7c8.5 0 15.9 3 21.4 8.8 6.1 6.5 9.2 15.8 8.6 26.3-.1 1.4-1.2 2.4-2.6 2.4-1.4-.1-2.4-1.3-2.4-2.6.5-9.1-2.1-17.2-7.3-22.6C75.2 14.5 69.1 12 62 12c-18.2 0-25.3 17.2-25.9 33h4.6c.7 0 1.3.3 1.8.7.5.5.7 1.1.7 1.8L43 66.9c1.4 2.4 7.5 12.4 15.7 14.5 3.5.9 7 .3 10.5-2 .1-.1 11.5-7.5 12.1-15.6.7-9.2.2-16.7.2-16.8-.1-1.4.9-2.6 2.3-2.7 1.4-.1 2.6.9 2.7 2.3 0 .3.5 7.9-.2 17.5-.8 10.6-13.8 19.1-14.4 19.4-3.3 2.2-6.7 3.3-10.1 3.3z"/><path class="st1" d="M83.5 68c-.9 0-1.8-.5-2.2-1.3-.6-1.2-.2-2.7 1-3.4 2.9-1.5 6.4-4 6.5-6.9.1-3.4-4-6.7-5.7-7.8-1.2-.7-1.5-2.3-.8-3.4.7-1.2 2.3-1.5 3.4-.8.8.5 8.2 5.4 8 12.2-.2 4.3-3.2 8-9.1 11.2-.3.1-.7.2-1.1.2zM38.6 67.9c-.6 0-1.2-.2-1.7-.6-9-8.1-5.9-18.9-5.8-19.3.4-1.3 1.8-2.1 3.1-1.7 1.3.4 2.1 1.8 1.7 3.1-.1.4-2.2 8.3 4.3 14.2 1 .9 1.1 2.5.2 3.5-.5.5-1.1.8-1.8.8zM40.5 49c-1.2 0-2.2-.8-2.4-2-.1-.3-1.5-8 2.9-12.5 2.7-2.7 6.7-3.5 12-2.5 7 1.4 14.2 2.8 15.4 1.9 0 0 .3-.6-.3-2.8 0-.2-.1-.4-.1-.6 0-1.6.7-3.7 2.8-4.5 2.7-1 5.9 1.1 10.7 6.9.1.1.1.1.1.2l4 6c.8 1.1.5 2.7-.7 3.5-1.1.8-2.7.5-3.5-.7L77.5 36c-2-2.4-3.3-3.7-4.2-4.4.3 1.9.2 4.2-1.3 5.8-2.9 3-8.2 1.9-20-.4-3.5-.7-6.1-.3-7.5 1.1-2.1 2.1-1.8 6.5-1.5 8 .3 1.4-.6 2.7-2 2.9h-.5z"/><path class="st1" d="M82 84c-12.7 0-23-10.3-23-23s10.3-23 23-23 23 10.3 23 23-10.3 23-23 23zm0-41c-9.9 0-18 8.1-18 18s8.1 18 18 18 18-8.1 18-18-8.1-18-18-18z"/><path class="st1" d="M111.5 96.6c-1.8 0-3.4-.5-3.8-.7-.3-.1-.6-.3-.9-.6L91.4 80c-1-1-1-2.6 0-3.5 1-1 2.6-1 3.5 0l14.9 14.9c1 .3 2.1.3 2.4.1.1-.1.2-.6 0-1.7l-15.4-15c-1-1-1-2.5-.1-3.5 1-1 2.5-1 3.5-.1l15.9 15.4c.3.3.6.7.7 1.2.8 3.3.4 5.7-1.4 7.3-1 1.1-2.5 1.5-3.9 1.5zM7.5 122c-1.2 0-2.2-.8-2.4-2-.7-3.5 1.6-10.9 6.6-17.1 3.7-4.5 10.2-9.9 19.8-9.9 14.6 0 16.3-13.1 16.4-13.6.2-1.4 1.4-2.4 2.8-2.2 1.4.2 2.4 1.4 2.2 2.8-.7 6.2-6.1 18-21.3 18-7.7 0-12.9 4.4-15.9 8.1-4.3 5.3-6 11.2-5.6 12.9.3 1.4-.6 2.7-2 2.9-.3.1-.4.1-.6.1zM116.3 122c-1.3 0-2.4-1-2.5-2.3-1.9-19.6-24.3-21.3-25.3-21.3-.2 0-.3 0-.5-.1-14.1-4-16.3-15.9-16.4-16.4-.2-1.4.7-2.7 2-2.9 1.4-.2 2.6.7 2.9 2 .1.4 1.8 9.2 12.6 12.4 3 .3 27.4 3.3 29.6 25.8.1 1.4-.9 2.6-2.2 2.7 0 .1-.1.1-.2.1z"/><path class="st1" d="M116.2 123H7.5c-1.4 0-2.5-1.1-2.5-2.5s1.1-2.5 2.5-2.5h108.7c1.4 0 2.5 1.1 2.5 2.5s-1.1 2.5-2.5 2.5zM62 104.2c-12.3 0-18.3-8.1-19.8-12.6-.4-1.3.3-2.7 1.6-3.2 1.3-.4 2.7.3 3.2 1.6.2.4 3.7 10.1 16.9 9.1 12.8-.9 13.2-8 13.2-8.3.1-1.4 1.2-2.4 2.6-2.4 1.4 0 2.5 1.1 2.4 2.5 0 .1-.3 12-17.9 13.3H62zM69.9 67.9h3.3v3.3h-3.3zM65.9 59.9h3.3v3.3h-3.3zM73.9 61.9h3.3v3.3h-3.3zM67.9 52.9h3.3v3.3h-3.3zM75.9 53.9h3.3v3.3h-3.3zM73.9 46.9h3.3v3.3h-3.3z"/></svg>