<svg version="1.1" id="Layer_1" xmlns="http://www.w3.org/2000/svg" x="0" y="0" viewBox="0 0 128 128" xml:space="preserve"><style>.st0{fill:#020202}</style><switch><g><path class="st0" d="M92.6 55.6c-.5 0-1.1 0-1.6-.1-.1 1.6-.3 3.2-.6 5-.9 5.4-3 11.3-7.2 16.4-8.8 10.6-14.3 24.5-16.9 31.8-.5 1.5-1.8 2.6-3.4 2.9-1.6.3-3-.3-4-1.5l-.1-.2c-.5-.6-.8-1.4-.8-2.3-.3-6-1-20.4-1.1-25.9-.1-2.9-1.7-5.4-4.4-6.9-2.9-1.5-6.4-1.4-8.9.2-1.4.9-3.7 3.2-3.4 7.8.5 6.9 1.6 20 2 25.8.1 1.3-.3 2.5-1.2 3.4-2.7 2.6-5.3 3.3-7.8 2.1-1.1-.5-1.9-1.5-2.2-2.8-1.5-5.9-5.7-20.3-12.7-27.3-1.1-1.5-21.6-26-8.8-43.6 13-17.9 36.5-6.2 37.5-5.7 5 2.3 13 7.6 13.3 11.8.1 1.4 1.3 2.4 2.7 2.3 1.4-.1 2.4-1.3 2.3-2.7-.4-4.1-3.9-7.9-7.6-10.7 2.6-1.1 7.3-2.6 12.6-2.6 1.6 0 3.3.1 5 .5.4-1.7 1.1-3.2 2-4.6-1.8-.4-3.6-.6-5.3-.7-10.1-.5-18.6 4-18.8 4-.1.1-.2.1-.4.2-1.8-1.1-3.2-1.8-3.7-2-.2-.1-28.1-14.1-43.6 7.3-15.5 21.2 8.2 48.6 9.2 49.8l.1.1c6.3 6.3 10.3 20.8 11.4 25.1.7 2.7 2.4 4.9 4.9 6 1.5.7 3.1 1.1 4.6 1.1 3 0 6.1-1.4 8.9-4.1 2-1.9 2.9-4.6 2.7-7.3-.4-5.7-1.5-18.9-2-25.8-.1-1.5.3-2.6 1.1-3.2 1-.7 2.6-.7 3.8 0 .8.4 1.7 1.2 1.7 2.5.1 5.6.9 20.1 1.2 26.1.1 1.9.7 3.6 1.8 5l.2.3c2.1 2.7 5.4 4 8.8 3.4 3.4-.6 6.2-2.9 7.4-6.2 2.4-7 7.7-20.2 16-30.2 5.1-6.2 7.4-13.3 8.4-19.6.3-1.8.5-3.5.5-5.1-1.2.1-2.4.2-3.6.2z"/><path class="st0" d="M15.3 58.2c-1.1 0-2.1-.7-2.4-1.8-3.1-11 8.5-17.7 15-19.8 1.3-.4 2.7.3 3.1 1.6.4 1.3-.3 2.7-1.6 3.1-.2.1-14.2 4.6-11.6 13.7.4 1.3-.4 2.7-1.7 3.1-.4 0-.6.1-.8.1zM46.6 44.2c-.4 0-.9-.1-1.3-.4l-7.5-4.5c-1.2-.7-1.6-2.2-.9-3.4.7-1.2 2.2-1.6 3.4-.9l7.5 4.5c1.2.7 1.6 2.2.9 3.4-.4.9-1.2 1.3-2.1 1.3zM125.8 80.7c-.8 0-1.5-.3-2-1l-18.5-24.6c-.8-1.1-.6-2.7.5-3.5 1.1-.8 2.7-.6 3.5.5l18.5 24.6c.8 1.1.6 2.7-.5 3.5-.5.4-1 .5-1.5.5z"/><ellipse cx="92.6" cy="34.7" rx="25.1" ry="25" fill="#d6b2f5"/><path class="st0" d="M92.6 14.9c-9.1 0-16.9 5.3-20.6 13-.8 1.5-1.3 3.2-1.7 4.9-.4 1.6-.5 3.3-.5 5 0 11.9 9.1 21.7 20.7 22.8.7.1 1.4.1 2.2.1 1 0 1.9-.1 2.9-.2 3.9-.5 7.5-2 10.6-4.2 1.4-1 2.6-2.1 3.7-3.4 3.5-4 5.7-9.3 5.7-15.1-.1-12.6-10.4-22.9-23-22.9zm3.5 40.4c-1.1.2-2.3.3-3.4.3-.5 0-1.1 0-1.6-.1-9.1-.8-16.3-8.5-16.3-17.8 0-1.6.2-3.1.6-4.5.4-1.7 1.1-3.2 2-4.6 3.1-5.2 8.8-8.7 15.3-8.7 9.8 0 17.9 8 17.9 17.9-.1 8.6-6.3 15.9-14.5 17.5z"/></g></switch></svg>