<svg version="1.1" id="Layer_1" xmlns="http://www.w3.org/2000/svg" x="0" y="0" viewBox="0 0 128 128" xml:space="preserve"><style>.st0{fill:#d6b2f5}.st1{fill:#231f20}</style><switch><g><circle class="st0" cx="19.8" cy="68.2" r="12"/><circle class="st0" cx="106.1" cy="57.8" r="12"/><circle class="st0" cx="60.6" cy="103.8" r="12"/><path class="st1" d="M93.8 112.8c-3.3 0-7.3-1.2-11-5.1-4.8-5-7-12.3-5.9-19.4l.4-2.2-37.3-37c-5.5 2.6-15.1 4.1-21.6-4.5-8.8-11.7-3-19.8-2.8-20.1.4-.6 1.1-1 1.8-1 .7-.1 1.4.2 2 .7L30.1 35l.1.1s1.1 1.1 2.7 1.1c1.7 0 3.6-1.1 5.6-3.2.3-.4 1.3-2.2-1.7-5.3L26.2 17c-.6-.6-.8-1.4-.7-2.2s.7-1.5 1.5-1.8c.5-.2 12.4-5.2 21.3 4.2 7 7.4 5.1 16.5 3.8 20.1l36.3 38c3.4-1.4 11-3.1 20 3.8 9.9 7.7 7.8 16.6 5.3 20.2-.4.6-1.1 1-1.8 1.1-.7.1-1.5-.2-2-.7l-11-10.5c-1.4-.6-4.5-1.6-6.6-.7-1.2.5-2 1.5-2.5 3.2-1.9 5.8 7.2 13.1 10.6 15.2.7.5 1.2 1.3 1.2 2.1 0 .9-.4 1.7-1.2 2.1-1.4.8-3.8 1.7-6.6 1.7zM40.5 43.5c.6 0 1.3.2 1.8.7l39.5 39.2c.6.6.8 1.4.7 2.2l-.6 3.5c-.9 5.6.8 11.2 4.5 15.1 2.5 2.6 5 3.5 6.9 3.6-4.5-3.8-10.6-10.6-8.3-17.7 1.2-3.8 3.6-5.5 5.4-6.2 4.9-2 10.5.7 11.1 1 .2.1.4.3.6.4l8.6 8.2c.4-2.6-.2-6.5-5.4-10.5-9-7-15.8-2.8-16.1-2.6-1 .6-2.3.5-3.2-.4L47.4 39.5c-.7-.7-.9-1.8-.5-2.8.2-.4 4.2-9.4-2.3-16.2-3.9-4.1-8.6-4.4-11.9-4l7.5 7.7c5.3 5.4 3.6 10.3 1.9 12.2-3.1 3.3-6.3 4.9-9.4 4.9-3.6 0-5.9-2.2-6.3-2.7l-7.8-8c-.3 2.4.2 6.2 3.8 11.1 6.3 8.4 16.3 2.5 16.7 2.3.5-.4.9-.5 1.4-.5z"/><path class="st1" d="M28 115.2c-.7 0-1.3-.3-1.8-.7l-12.5-12.3c-1-1-1-2.5-.1-3.5l34.6-36.3c.5-.5 1.1-.8 1.8-.8s1.3.3 1.8.7l12.1 12.3c.9 1 1 2.5 0 3.5l-34.1 36.4c-.4.4-1.1.7-1.8.7.1 0 0 0 0 0zm-9-14.9l9 8.8 30.7-32.7-8.6-8.7L19 100.3zM78.2 62c-.6 0-1.2-.2-1.7-.7L63.9 49.5c-.5-.5-.8-1.1-.8-1.8s.2-1.3.7-1.8l22.6-23c.2-.2.5-.4.8-.6l22.4-9.2c.9-.4 2-.2 2.7.5.7.7.9 1.8.6 2.7l-8 19.9c-.1.3-.3.6-.6.8L80 61.3c-.5.4-1.2.7-1.8.7zm-9-14.4l9 8.5L100.6 34l5.6-13.9-16.5 6.8-20.5 20.7z"/><path class="st1" d="M99.6 37.3c-1.4 0-2.5-1.1-2.5-2.5v-2.1l-1.5.7c-.8.4-1.8.3-2.6-.2-.7-.6-1.1-1.5-1-2.4l.5-3.1-3.2.3c-1.4.2-2.6-.8-2.8-2.2-.2-1.4.8-2.6 2.2-2.8l6.5-.8c.8-.1 1.5.2 2.1.7.5.6.8 1.3.7 2.1l-.3 1.7.8-.4c.8-.4 1.7-.3 2.4.1.7.5 1.2 1.3 1.2 2.1v6.1c0 1.6-1.2 2.7-2.5 2.7zM60.6 111.9c-4.5 0-8.1-3.7-8.1-8.1s3.7-8.1 8.1-8.1 8.1 3.7 8.1 8.1-3.6 8.1-8.1 8.1zm0-11.3c-1.7 0-3.1 1.4-3.1 3.1s1.4 3.1 3.1 3.1c1.7 0 3.1-1.4 3.1-3.1s-1.3-3.1-3.1-3.1z"/><path transform="rotate(-34.674 65.822 111.132)" class="st1" d="M63.3 109.1h5v4.1h-5z"/><path transform="rotate(-78.603 70.06 105.988)" class="st1" d="M67.6 104h5v4.1h-5z"/><path transform="rotate(-37.206 52.585 109.213)" class="st1" d="M50.6 106.7h4.1v5h-4.1z"/><path transform="rotate(-61.387 65.262 95.424)" class="st1" d="M63.2 92.9h4.1v5h-4.1z"/><path transform="rotate(-25.15 69.07 99.64)" class="st1" d="M67 97.1h4.1v5H67z"/><path transform="matrix(.08726 -.9962 .9962 .08726 -55.897 144.513)" class="st1" d="M48.4 100.7h5v4.1h-5z"/><path transform="rotate(-49.864 52.942 97.724)" class="st1" d="M50.4 95.7h5v4.1h-5z"/><path transform="rotate(-11.859 58.578 94.844)" class="st1" d="M56.1 92.8h5v4.1h-5z"/><path transform="rotate(-80.828 58.89 112.698)" class="st1" d="M56.9 110.2H61v5h-4.1z"/><path class="st1" d="M19.8 79.2c-5.9 0-10.7-4.8-10.7-10.7s4.8-10.7 10.7-10.7 10.7 4.8 10.7 10.7-4.8 10.7-10.7 10.7zm0-16.5c-3.2 0-5.7 2.6-5.7 5.7s2.6 5.7 5.7 5.7 5.7-2.6 5.7-5.7-2.5-5.7-5.7-5.7z"/><path transform="rotate(-34.674 26.949 78.111)" class="st1" d="M24.5 75.7h5v4.8h-5z"/><path transform="rotate(-78.603 30.967 71.035)" class="st1" d="M28.5 68.6h5v4.8h-5z"/><path transform="rotate(-37.206 10.299 74.851)" class="st1" d="M7.9 72.4h4.8v5H7.9z"/><path transform="rotate(-61.374 25.295 58.54)" class="st1" d="M22.9 56h4.8v5h-4.8z"/><path transform="rotate(-25.15 29.783 63.515)" class="st1" d="M27.4 61h4.8v5h-4.8z"/><path transform="matrix(.08741 -.9962 .9962 .08741 -59.365 69.629)" class="st1" d="M5.8 64.8h5v4.8h-5z"/><path transform="rotate(-49.859 10.714 61.25)" class="st1" d="M8.2 58.8h5v4.8h-5z"/><path transform="rotate(-11.865 17.369 56.829)" class="st1" d="M14.9 54.4h5v4.8h-5z"/><path transform="rotate(-80.828 17.754 79.97)" class="st1" d="M15.4 77.5h4.8v5h-4.8z"/><path class="st1" d="M106.6 68.6c-5.9 0-10.7-4.8-10.7-10.7 0-5.9 4.8-10.7 10.7-10.7s10.7 4.8 10.7 10.7c0 5.8-4.8 10.7-10.7 10.7zm0-16.5c-3.2 0-5.7 2.6-5.7 5.7 0 3.2 2.6 5.7 5.7 5.7s5.7-2.6 5.7-5.7-2.6-5.7-5.7-5.7z"/><path transform="rotate(-34.674 112.719 67.524)" class="st1" d="M110.2 65.1h5v4.8h-5z"/><path transform="rotate(-78.609 117.721 60.44)" class="st1" d="M115.2 58h5v4.8h-5z"/><path transform="rotate(-37.206 97.054 64.256)" class="st1" d="M94.7 61.8h4.8v5h-4.8z"/><path transform="rotate(-61.362 112.054 47.945)" class="st1" d="M109.7 45.4h4.8v5h-4.8z"/><path transform="rotate(-25.15 116.556 52.92)" class="st1" d="M114.1 50.4h4.8v5h-4.8z"/><path transform="matrix(.0874 -.9962 .9962 .0874 30.366 146.387)" class="st1" d="M92.6 54.2h5V59h-5z"/><path transform="rotate(-49.867 97.468 50.653)" class="st1" d="M95 48.3h5v4.8h-5z"/><path transform="rotate(-11.875 104.116 46.241)" class="st1" d="M101.6 43.8h5v4.8h-5z"/><path transform="rotate(-80.828 104.514 69.374)" class="st1" d="M102.1 66.9h4.8v5h-4.8z"/><path class="st1" d="M30.1 104.5c-.6 0-1.3-.3-1.8-.8l-4.9-5.1c-1-1-.9-2.6 0-3.5 1-1 2.6-.9 3.5 0l4.9 5.1c1 1 .9 2.6 0 3.5-.5.6-1.1.8-1.7.8z"/></g></switch></svg>