<svg version="1.1" id="Layer_1" xmlns="http://www.w3.org/2000/svg" x="0" y="0" viewBox="0 0 128 128" style="enable-background:new 0 0 128 128" xml:space="preserve"><style>.st0{fill:#d6b2f5}.st1{fill:#231f20}</style><circle class="st0" cx="22.6" cy="24.3" r="11.3"/><circle class="st0" cx="78.6" cy="89.3" r="11.3"/><path class="st1" d="M28.5 66.5H9.4c-4.6 0-8.4-3.8-8.4-8.4V11.9c0-4.6 3.8-8.4 8.4-8.4h73.2c4.6 0 8.4 3.8 8.4 8.4v34.3c0 1.4-1.1 2.5-2.5 2.5S86 47.6 86 46.2V11.9c0-1.9-1.5-3.4-3.4-3.4H9.4C7.5 8.5 6 10 6 11.9v46.2c0 1.9 1.5 3.4 3.4 3.4h19.1c1.4 0 2.5 1.1 2.5 2.5s-1.1 2.5-2.5 2.5z"/><path class="st1" d="M23 35c-5.5 0-10-4.5-10-10s4.5-10 10-10 10 4.5 10 10-4.5 10-10 10zm0-15c-2.8 0-5 2.2-5 5s2.2 5 5 5 5-2.2 5-5-2.2-5-5-5zM34.5 52.5c-1.4 0-2.5-1.1-2.5-2.5 0-5-4-9-9-9s-9 4-9 9c0 1.4-1.1 2.5-2.5 2.5S9 51.4 9 50c0-7.7 6.3-14 14-14s14 6.3 14 14c0 1.4-1.1 2.5-2.5 2.5z"/><path class="st1" d="M34.5 54.1h-23C10.1 54.1 9 53 9 51.6s1.1-2.5 2.5-2.5h23c1.4 0 2.5 1.1 2.5 2.5s-1.1 2.5-2.5 2.5zM79 24H40.5c-1.4 0-2.5-1.1-2.5-2.5s1.1-2.5 2.5-2.5H79c1.4 0 2.5 1.1 2.5 2.5S80.4 24 79 24zM79 33.5H40.5c-1.4 0-2.5-1.1-2.5-2.5s1.1-2.5 2.5-2.5H79c1.4 0 2.5 1.1 2.5 2.5s-1.1 2.5-2.5 2.5zM79 42.8H40.5c-1.4 0-2.5-1.1-2.5-2.5s1.1-2.5 2.5-2.5H79c1.4 0 2.5 1.1 2.5 2.5s-1.1 2.5-2.5 2.5zM44.5 52.5h-4.9c-.8 0-1.5-1.1-1.5-2.5s.7-2.5 1.5-2.5h4.9c.8 0 1.5 1.1 1.5 2.5s-.7 2.5-1.5 2.5z"/><path class="st1" d="M116.5 114c-3 0-74-1-77-1h-.4c-.2 0-5.3-1.1-7.8-6.2-.2-.3-.3-.7-.3-1.1V82.5c0-.6.2-1.1.5-1.5l9.6-12.5c.8-5.2 4.1-23.4 13.1-24.5 8.1-1 47.5-.1 49.2 0h.2c1 .1 10.1 1.9 12.3 23.6l9.2 13.5c.3.4.4.9.4 1.4v23.3c0 .5-.1.9-.4 1.3-.9 1.6-4.5 6.9-8.6 6.9zm-76.7-6c5.1.1 73.8 1 76.7 1 .8-.1 2.7-1.9 4-4V83.3l-9.1-13.4c-.2-.3-.4-.8-.4-1.2-1.6-16.9-7.2-19.5-8-19.7-3.5-.1-40.8-.9-48.2 0-4.2.5-7.7 12.8-8.8 20.9-.1.4-.2.8-.5 1.2L36 83.4V105c1.2 2.1 3.2 2.8 3.8 3z"/><path class="st1" d="M113.3 72.5H43c-1.4 0-2.5-1.1-2.5-2.5s1.1-2.5 2.5-2.5h70.3c1.4 0 2.5 1.1 2.5 2.5s-1.1 2.5-2.5 2.5zM51.5 97h-16c-1.4 0-2.5-1.1-2.5-2.5s1.1-2.5 2.5-2.5h11.3c-3.1-2.8-8.4-5.1-12-6.1-1.3-.4-2.1-1.8-1.7-3.1.4-1.3 1.8-2.1 3.1-1.7 1.6.4 15.4 4.6 17.7 12.7.2.8.1 1.6-.4 2.2-.5.6-1.2 1-2 1zM123 97h-17.1c-.8 0-1.5-.4-2-1s-.6-1.4-.5-2.1c2.8-11.6 18.7-12.9 19.4-12.9 1.4-.1 2.6.9 2.7 2.3.1 1.4-.9 2.6-2.3 2.7-.2 0-9.5.8-13.4 6H123c1.4 0 2.5 1.1 2.5 2.5S124.4 97 123 97zM94.1 91H63.5c-1.4 0-2.5-1.1-2.5-2.5s1.1-2.5 2.5-2.5h30.6c1.4 0 2.5 1.1 2.5 2.5S95.5 91 94.1 91zM94.1 97H63.5c-1.4 0-2.5-1.1-2.5-2.5s1.1-2.5 2.5-2.5h30.6c1.4 0 2.5 1.1 2.5 2.5S95.5 97 94.1 97zM61.5 112c-.4 0-.8-.1-1.2-.3-1.2-.7-1.6-2.2-.9-3.4l4-7c.4-.8 1.3-1.3 2.2-1.3h25.3c.9 0 1.7.5 2.2 1.2l4.1 7c.7 1.2.3 2.7-.9 3.4-1.2.7-2.7.3-3.4-.9l-3.4-5.8H67l-3.3 5.7c-.5.9-1.3 1.4-2.2 1.4z"/><path class="st1" d="M117.5 74c-1.1 0-2.1-.7-2.4-1.8-.4-1.3.4-2.7 1.7-3.1 1.7-.5 4.4-1.9 4.9-3 0-.1.1-.3-.2-.8-.6-1-1.1-1.2-1.5-1.3-1.4-.3-3.3 1-3.9 1.4-1.1.9-2.6.7-3.5-.4-.9-1.1-.7-2.6.4-3.5.4-.3 4.1-3.2 8-2.5 1.4.3 3.5 1.1 5 3.7 1.2 2.1.9 4 .5 5.2-1.5 3.9-7 5.7-8.1 6-.4.1-.7.1-.9.1zM40.7 74.5c-.3 0-.5 0-.8-.1-1.6-.5-7.1-2.6-8.4-6.1-.5-1.3-.4-2.7.3-4 1.6-2.8 3.7-3.6 5.2-3.9 4.3-.7 8.3 2.9 8.8 3.3 1 .9 1.1 2.5.2 3.5-.9 1-2.5 1.1-3.5.2-.9-.8-3.1-2.3-4.7-2-.4.1-1 .3-1.6 1.3.5.8 3 2.2 5.2 3 1.3.4 2 1.9 1.6 3.2-.3.9-1.3 1.6-2.3 1.6zM41.6 125.7c-1.7 0-3.3-.1-4.5-.2-4-.6-5.1-4.5-5.1-6.4v-10.7c0-1.4 1.1-2.5 2.5-2.5s2.5 1.1 2.5 2.5v10.7c0 .1.1 1.4.9 1.5 2.1.3 7.1.1 9.5 0 .7-.3 1.3-.8 1.7-1.1v-8c0-1.4 1.1-2.5 2.5-2.5s2.5 1.1 2.5 2.5v8.5c0 2.7-3.1 4.5-5 5.3-.3.1-.6.2-.9.2-.6.1-3.6.2-6.6.2zM120.6 127h-11.1c-3.5 0-5.6-3.2-6.1-6.2v-8.3c0-1.4 1.1-2.5 2.5-2.5s2.5 1.1 2.5 2.5v7.7c.1.6.6 1.8 1.1 1.8h9.9c.4-.7.8-1.3.9-1.6-.2-1.9-.1-10.9 0-13.7 0-1.4 1.2-2.4 2.5-2.5 1.4 0 2.5 1.2 2.5 2.5-.1 5.7-.2 12.1 0 13 .3 2.5-1.8 5.3-2.7 6.3-.6.7-1.3 1-2 1zm-.4-6.7z"/></svg>