<svg version="1.1" id="Layer_1" xmlns="http://www.w3.org/2000/svg" x="0" y="0" viewBox="0 0 128 128" xml:space="preserve"><style>.st0{fill:#231f20}</style><switch><g><path class="st0" d="M45.2 50.3c-1.4 0-2.5-1.1-2.5-2.5V21.2c0-1.4 1.1-2.5 2.5-2.5h64.7c1.4 0 2.5 1.1 2.5 2.5v23.7c0 1.4-1.1 2.6-2.5 2.6s-2.5-1.1-2.5-2.5V23.9H47.7V48c0 1.2-1.1 2.3-2.5 2.3z"/><path class="st0" d="M91.4 32.5H64.7c-1.4 0-2.5-1.1-2.5-2.5s1.1-2.5 2.5-2.5h26.7c1.4 0 2.5 1.1 2.5 2.5s-1.1 2.5-2.5 2.5zM62 41.3H50.6c-1.4 0-2.5-1.1-2.5-2.5s1.1-2.5 2.5-2.5H62c1.4 0 2.5 1.1 2.5 2.5s-1.1 2.5-2.5 2.5zM72.4 40.8h-4.2c-1.4 0-2.5-1.1-2.5-2.5s1.1-2.5 2.5-2.5h4.2c1.4 0 2.5 1.1 2.5 2.5s-1.1 2.5-2.5 2.5zM81.9 40.8h-4.2c-1.4 0-2.5-1.1-2.5-2.5s1.1-2.5 2.5-2.5h4.2c1.4 0 2.5 1.1 2.5 2.5s-1.1 2.5-2.5 2.5zM102.8 40.8H87.4c-1.4 0-2.5-1.1-2.5-2.5s1.1-2.5 2.5-2.5h15.4c1.4 0 2.5 1.1 2.5 2.5s-1 2.5-2.5 2.5zM93.1 47.4H67c-1.4 0-2.5-1.1-2.5-2.5s1.1-2.5 2.5-2.5h26.1c1.4 0 2.5 1.1 2.5 2.5s-1.1 2.5-2.5 2.5zM86.5 55.7h-8.9c-1.4 0-2.5-1.1-2.5-2.5s1.1-2.5 2.5-2.5h8.9c1.4 0 2.5 1.1 2.5 2.5s-1.1 2.5-2.5 2.5zM88.4 70.4H77.5c-1.4 0-2.5-1.1-2.5-2.5s1.1-2.5 2.5-2.5h10.8c1.4 0 2.5 1.1 2.5 2.5s-1 2.5-2.4 2.5zM78.5 101H11.4c-1.4 0-2.5-1.1-2.5-2.5V76.1c0-1.4 1.1-2.5 2.5-2.5h67.2c1.4 0 2.5 1.1 2.5 2.5v22.4c0 1.3-1.2 2.5-2.6 2.5zm-64.6-5.1H76V78.6H13.9v17.3z"/><path class="st0" d="M71.8 76.5l-10-18.8H27.6l-9.1 18.7-4.6-2.2L23.7 54c.4-.9 1.3-1.4 2.3-1.4h37.3c.9 0 1.8.5 2.2 1.4l10.7 20.2-4.4 2.3zM27.9 108.4H13.4c-1.4 0-2.5-1.1-2.5-2.5v-7.4H16v4.9h9.2l-.4-4.6 5.1-.4.6 7.4c.1.7-.2 1.4-.7 1.9-.5.4-1.2.7-1.9.7zM77.7 108.4H60.4c-1.4 0-2.5-1.1-2.5-2.5v-6.7H63v4.2h12.3v-4.9h5.1v7.4c-.1 1.3-1.2 2.5-2.7 2.5zM23.2 94.5c-3.4 0-6.2-2.8-6.2-6.2 0-3.4 2.8-6.1 6.2-6.1s6.1 2.8 6.1 6.1c.1 3.5-2.7 6.2-6.1 6.2zm0-7.2c-.6 0-1.1.5-1.1 1.1 0 .6.5 1.1 1.1 1.1.6 0 1.1-.5 1.1-1.1 0-.6-.5-1.1-1.1-1.1zM68.1 94c-3.4 0-6.1-2.8-6.1-6.2 0-3.4 2.8-6.1 6.1-6.1 3.4 0 6.2 2.8 6.2 6.1-.1 3.4-2.8 6.2-6.2 6.2zm0-7.2c-.6 0-1.1.5-1.1 1.1 0 .6.5 1.1 1.1 1.1.6 0 1.1-.5 1.1-1.1-.1-.7-.5-1.1-1.1-1.1zM57.3 88.9H33.9c-1.4 0-2.5-1.1-2.5-2.5s1.1-2.5 2.5-2.5h23.5c1.4 0 2.5 1.1 2.5 2.5s-1.1 2.5-2.6 2.5zM53.7 95H38.8c-1.4 0-2.5-1.1-2.5-2.5s1.1-2.5 2.5-2.5h14.9c1.4 0 2.5 1.1 2.5 2.5S55.1 95 53.7 95zM3.4 86.8C2 86.8.9 85.7.9 84.3V74c0-1.4 1.1-2.5 2.5-2.5S6 72.6 6 74v10.3c0 1.4-1.1 2.5-2.6 2.5zM3.4 106.3c-1.4 0-2.5-1.1-2.5-2.5v-13c0-1.4 1.1-2.5 2.5-2.5S6 89.4 6 90.8v13c0 1.3-1.1 2.5-2.6 2.5z"/><ellipse cx="109" cy="64" rx="16.7" ry="16.6" fill="#d6b2f5"/><path class="st0" d="M109.8 74.5c-4.3 0-7.8-3.5-7.8-7.8s3.5-7.8 7.8-7.8 7.8 3.5 7.8 7.8-3.5 7.8-7.8 7.8zm0-11.5c-2 0-3.7 1.7-3.7 3.7s1.7 3.7 3.7 3.7 3.7-1.7 3.7-3.7c0-2.1-1.7-3.7-3.7-3.7z"/><path class="st0" d="M109.8 83.1c-2 0-3.9-.4-5.8-1.1-8.5-3.2-12.8-12.7-9.6-21.1 3.2-8.5 12.7-12.8 21.1-9.6 4.1 1.5 7.4 4.6 9.2 8.6 1.8 4 2 8.5.4 12.6-1.5 4.1-4.6 7.4-8.6 9.2-2.1.9-4.4 1.4-6.7 1.4zm0-27.7c-4.6 0-8.9 2.8-10.6 7.3-2.2 5.8.8 12.4 6.6 14.6 2.8 1.1 5.9 1 8.7-.3 2.8-1.2 4.9-3.5 5.9-6.3 1.1-2.8 1-5.9-.3-8.7-1.2-2.8-3.5-4.9-6.3-5.9-1.3-.5-2.7-.7-4-.7z"/><path class="st0" d="M122.1 99.2c-.4 0-.9-.1-1.2-.3l-11-6.1-11 6.1c-.9.5-2 .4-2.8-.2-.8-.6-1.2-1.7-.9-2.7l4.4-16c.4-1.4 1.8-2.2 3.1-1.8 1.4.4 2.2 1.8 1.8 3.1l-2.8 10.1 6.9-3.8c.8-.4 1.7-.4 2.5 0l6.3 3.5-3.9-11.2c-.5-1.3.2-2.8 1.6-3.2 1.3-.5 2.8.2 3.2 1.6l6.1 17.5c.3 1 0 2.1-.8 2.8-.3.4-.9.6-1.5.6z"/></g></switch></svg>