<svg version="1.1" id="Layer_1" xmlns="http://www.w3.org/2000/svg" x="0" y="0" viewBox="0 0 128 128" style="enable-background:new 0 0 128 128" xml:space="preserve"><style>.st0{fill:#d6b2f5}.st1{fill:#231f20}</style><circle class="st0" cx="59.6" cy="27.3" r="10.3"/><circle class="st0" cx="18.6" cy="66.3" r="14.4"/><path class="st1" d="M86.5 44.5c-1.4 0-2.5-1.1-2.5-2.5 0-13.2-10.8-24-24-24S36 28.8 36 42c0 1.4-1.1 2.5-2.5 2.5S31 43.4 31 42c0-16 13-29 29-29s29 13 29 29c0 1.4-1.1 2.5-2.5 2.5z"/><path class="st1" d="M83 49H37c-3.3 0-6-2.7-6-6s2.7-6 6-6h46c3.3 0 6 2.7 6 6s-2.7 6-6 6zm-46-7c-.6 0-1 .4-1 1s.4 1 1 1h46c.6 0 1-.4 1-1s-.4-1-1-1H37zM61 78c-10.3 0-19.1-7-21.4-17-.3-1.3.5-2.7 1.9-3 1.3-.3 2.7.5 3 1.9C46.2 67.6 53 73 61 73c7.9 0 14.7-5.4 16.5-13.1.2-1.1 1.2-2 2.4-2 1.4 0 2.5 1.1 2.5 2.5 0 .2 0 .4-.1.6-2.2 10-11 17-21.3 17z"/><path class="st1" d="M41 63c-4.4 0-8-3.6-8-8s3.6-8 8-8c.7 0 1.5.1 2.2.3 1.3.4 2.1 1.8 1.7 3.1-.4 1.3-1.8 2.1-3.1 1.7-2-.6-3.9.9-3.9 2.9 0 1.7 1.3 3 3 3h.6c1.4-.2 2.7.7 2.9 2 .2 1.4-.7 2.7-2 2.9-.4.1-.9.1-1.4.1zM81 63c-.5 0-1 0-1.5-.1-1.2-.2-2.1-1.3-2.1-2.5 0-1.4 1.1-2.5 2.5-2.5.2 0 .4 0 .6.1h.4c1.7 0 3-1.3 3-3 0-1.9-1.7-3.3-3.6-2.9-14.2 7.6-26.9-2.2-27.4-2.6-1.1-.9-1.3-2.4-.4-3.5s2.4-1.3 3.5-.4c.4.3 10.8 8.3 22.2 2 .2-.1.3-.2.5-.2.7-.2 1.5-.3 2.2-.3 4.4 0 8 3.6 8 8S85.4 63 81 63zM60.1 88.8c-5.2 0-9.4-4.9-9.4-11v-2.3c0-1.4 1.1-2.5 2.5-2.5s2.5 1.1 2.5 2.5v2.3c0 3.2 2 6 4.4 6s4.4-2.7 4.4-6v-1.4c0-1.4 1.1-2.5 2.5-2.5s2.5 1.1 2.5 2.5v1.4c0 6-4.2 11-9.4 11z"/><path class="st1" d="M90.4 120H28.5c-1.4 0-2.5-1.1-2.5-2.5v-15C26 89 36.4 84.2 36.9 84l15.3-6.4c1.3-.5 2.7.1 3.3 1.3.5 1.3-.1 2.7-1.3 3.3L39 88.6c-.3.1-7.9 3.8-7.9 13.9V115H88V95.3c-.7-1.4-3.3-6.3-8.7-8-7.4-2.4-13.3-4-13.4-4-1.3-.4-2.1-1.7-1.8-3.1.4-1.3 1.7-2.1 3.1-1.8.1 0 6.1 1.7 13.6 4 8.5 2.7 11.8 11 12 11.3.1.3.2.6.2.9v22.7c-.1 1.5-1.2 2.7-2.6 2.7z"/><path class="st1" d="M69.5 103c-.8 0-1.5-.3-2-.9l-8.1-10.2-6.8 8.4c-.6.7-1.5 1-2.3.9-.9-.1-1.6-.8-1.9-1.6l-5.2-14.2c-.5-1.3.2-2.7 1.5-3.2s2.7.2 3.2 1.5l3.7 10 6-7.4c.5-.6 1.2-.9 1.9-.9.8 0 1.5.3 1.9.9l7.2 9.1 4.1-11.7c.5-1.3 1.9-2 3.2-1.5 1.3.5 2 1.9 1.5 3.2l-5.5 16c-.3.9-1 1.5-1.9 1.6h-.5zM40.5 118.4c-1.4 0-2.5-1.1-2.5-2.5v-10.4c0-1.4 1.1-2.5 2.5-2.5s2.5 1.1 2.5 2.5v10.4c0 1.3-1.1 2.5-2.5 2.5zM80 118.4c-1.4 0-2.5-1.1-2.5-2.5v-10.4c0-1.4 1.1-2.5 2.5-2.5s2.5 1.1 2.5 2.5v10.4c0 1.3-1.1 2.5-2.5 2.5z"/><path class="st1" d="M60.1 120c-1.4 0-2.5-1.1-2.5-2.5V90.4c0-1.4 1.1-2.5 2.5-2.5s2.5 1.1 2.5 2.5v27.1c0 1.3-1.2 2.5-2.5 2.5zM75 108h-9.2c-1.4 0-2.5-1.1-2.5-2.5s1.1-2.5 2.5-2.5H75c1.4 0 2.5 1.1 2.5 2.5S76.4 108 75 108zM106.5 120c-4.7 0-8.5-3.8-8.5-8.5v-22c0-1.4 1.1-2.5 2.5-2.5h12c1.4 0 2.5 1.1 2.5 2.5v22c0 4.7-3.8 8.5-8.5 8.5zM103 92v19.5c0 1.9 1.6 3.5 3.5 3.5s3.5-1.6 3.5-3.5V92h-7z"/><path class="st1" d="M106.5 92c-1.4 0-2.5-1.1-2.5-2.5V73.4L99.1 70c-.9-.6-1.3-1.8-1-2.8l3-9.4c.4-1.3 1.8-2 3.1-1.6 1.3.4 2 1.8 1.6 3.1l-2.4 7.7 4.5 3.1c.7.5 1.1 1.2 1.1 2.1v17.4c0 1.3-1.1 2.4-2.5 2.4z"/><path class="st1" d="M106.5 74.6c-.7 0-1.4-.3-1.9-.8-.9-1-.8-2.6.2-3.5l4.6-4-3.2-6.6c-.6-1.2-.1-2.7 1.1-3.3 1.2-.6 2.7-.1 3.3 1.1l4.1 8.3c.5 1 .3 2.2-.6 3l-6 5.3c-.4.3-1 .5-1.6.5zM24.5 78c-.8 0-1.5-.3-2-1-.8-1.1-.6-2.7.5-3.5 1.9-1.4 3-3.6 3-6 0-4.1-3.4-7.5-7.5-7.5S11 63.4 11 67.5c0 2.3 1.1 4.5 2.9 5.9 1.1.8 1.3 2.4.4 3.5-.8 1.1-2.4 1.3-3.5.4C7.8 75 6 71.4 6 67.5 6 60.6 11.6 55 18.5 55S31 60.6 31 67.5c0 4-1.8 7.6-5 10-.5.3-1 .5-1.5.5zM17.5 93c-4.1 0-7.5-3.4-7.5-7.5 0-1.6.5-3.1 1.4-4.3.8-1.1 2.4-1.4 3.5-.6 1.1.8 1.4 2.4.6 3.5-.3.4-.5.9-.5 1.4 0 1.4 1.1 2.5 2.5 2.5s2.5-1.1 2.5-2.5c0-.5-.2-1-.5-1.4-.8-1.1-.5-2.7.6-3.5 1.1-.8 2.7-.5 3.5.6.9 1.3 1.4 2.8 1.4 4.3 0 4.1-3.4 7.5-7.5 7.5z"/><path class="st1" d="M13.4 85.1h-1.9C10.1 85.1 9 84 9 82.6v-7.2c0-1.4 1.1-2.5 2.5-2.5h.9c1.4 0 2.5 1.1 2.5 2.5 0 .8-.3 1.4-.9 1.9v2.9c1.1.3 1.9 1.3 1.9 2.4 0 1.4-1.1 2.5-2.5 2.5zM24.5 85.1h-2.9c-1.4 0-2.5-1.1-2.5-2.5s1.1-2.5 2.5-2.5h.4v-4.6c0-1.4 1.1-2.5 2.5-2.5s2.5 1.1 2.5 2.5v7.1c0 1.4-1.1 2.5-2.5 2.5z"/><path class="st1" d="M21.6 84h-8.2c-1.4 0-2.5-1.1-2.5-2.5S12 79 13.4 79h8.2c1.4 0 2.5 1.1 2.5 2.5S23 84 21.6 84z"/><path class="st1" d="M17.5 81.5c-1.4 0-2.5-1.1-2.5-2.5v-5.9l-1.7-3.5c-.6-1.2-.1-2.7 1.1-3.4 1.2-.6 2.7-.1 3.4 1.1l2 4c.2.3.3.7.3 1.1V79c-.1 1.4-1.2 2.5-2.6 2.5z"/><path class="st1" d="M18.5 75c-.6 0-1.2-.2-1.7-.6-1-.9-1.1-2.5-.2-3.5l3.1-3.4c.9-1 2.5-1.1 3.5-.2s1.1 2.5.2 3.5l-3.1 3.4c-.4.5-1.1.8-1.8.8zM96.5 60c-.3 0-.7-.1-1-.2-1.2-.5-1.8-1.8-1.4-3L98.2 42h-3.9c-.9 0-1.7-.5-2.2-1.3s-.4-1.8.1-2.5l14.2-23c.6-1 1.9-1.4 3-1 1.1.4 1.8 1.5 1.6 2.7l-1.7 13.7 1.9.5c.7.2 1.4.7 1.6 1.5s.2 1.5-.2 2.2l-14 24c-.4.7-1.2 1.2-2.1 1.2zm2.3-23h2.7c.8 0 1.5.4 2 1 .4.5.5 1.1.5 1.7l2.7-4.7-.9-.2c-1.2-.3-2-1.5-1.8-2.7l.6-4.5-5.8 9.4zM57.5 37c-.6 0-1.2-.2-1.7-.7-1-.9-1.1-2.5-.1-3.5l1.4-1.5H56c-1 0-1.8-.5-2.2-1.4-.5-.9-.4-1.9.2-2.7l5-6.5c.8-1.1 2.4-1.3 3.5-.4 1.1.8 1.3 2.4.4 3.5L61 26.2h1.8c1 0 1.9.6 2.3 1.5.4.9.2 2-.5 2.7l-5.4 5.8c-.4.5-1 .8-1.7.8zM94.3 22.7c-.6 0-1.3-.2-1.7-.7l-7.8-7.6c-1-1-1-2.5-.1-3.5s2.5-1 3.5-.1l7.8 7.6c1 1 1 2.5.1 3.5-.5.6-1.1.8-1.8.8z"/><path class="st1" d="M86.5 22.7c-.7 0-1.3-.3-1.8-.8-1-1-.9-2.6.1-3.5l7.8-7.6c1-1 2.6-.9 3.5.1 1 1 .9 2.6-.1 3.5L88.2 22c-.4.5-1.1.7-1.7.7zM22.5 33c-4.1 0-7.5-3.4-7.5-7.5s3.4-7.5 7.5-7.5 7.5 3.4 7.5 7.5-3.4 7.5-7.5 7.5zm0-10c-1.4 0-2.5 1.1-2.5 2.5s1.1 2.5 2.5 2.5 2.5-1.1 2.5-2.5-1.1-2.5-2.5-2.5z"/><circle class="st1" cx="115.5" cy="16.5" r="2.5"/><circle class="st1" cx="52.5" cy="57.5" r="2.5"/><circle class="st1" cx="68.5" cy="57.5" r="2.5"/></svg>