<svg xmlns="http://www.w3.org/2000/svg" viewBox="0 0 128 128"><switch><g><circle cx="64.5" cy="24.6" r="12.3" fill="#d6b2f5"/><path d="M120.1 51.1H6.3c-1.4 0-2.5-1.1-2.5-2.5v-9.2c0-1.4 1.1-2.5 2.5-2.5h113.9c1.4 0 2.5 1.1 2.5 2.5v9.2c-.1 1.4-1.2 2.5-2.6 2.5zm-111.3-5h108.9v-4.2H8.8v4.2zM120.8 117.5H6.9c-1.4 0-2.5-1.1-2.5-2.5v-9.2c0-1.4 1.1-2.5 2.5-2.5h113.9c1.4 0 2.5 1.1 2.5 2.5v9.2c0 1.4-1.1 2.5-2.5 2.5zm-111.4-5h108.9v-4.2H9.4v4.2z"/><path d="M124 127.3H3c-1.4 0-2.5-1.1-2.5-2.5v-9.2c0-1.4 1.1-2.5 2.5-2.5h121c1.4 0 2.5 1.1 2.5 2.5v9.2c0 1.4-1.1 2.5-2.5 2.5zm-118.5-5h116v-4.2H5.5v4.2zM113.3 40.9c-.5 0-1-.1-1.4-.5l-48-33.8-46.8 33.8c-1.1.8-2.7.6-3.5-.6-.8-1.1-.6-2.7.6-3.5L62.5 1.5c.9-.6 2-.6 2.9 0l49.3 34.8c1.1.8 1.4 2.4.6 3.5-.5.7-1.3 1.1-2 1.1z"/><path d="M64 35.6c-4.8 0-8.7-3.9-8.7-8.7 0-4.8 3.9-8.7 8.7-8.7 4.8 0 8.7 3.9 8.7 8.7.1 4.7-3.9 8.7-8.7 8.7zm0-12.5c-2.1 0-3.7 1.7-3.7 3.7s1.7 3.7 3.7 3.7 3.7-1.7 3.7-3.7-1.6-3.7-3.7-3.7zM35.8 59.5H14.9c-1.4 0-2.5-1.1-2.5-2.5v-8.3c0-1.4 1.1-2.5 2.5-2.5h20.9c1.4 0 2.5 1.1 2.5 2.5V57c0 1.4-1.1 2.5-2.5 2.5zm-18.4-5h15.9v-3.3H17.4v3.3zM74 59.5H53.1c-1.4 0-2.5-1.1-2.5-2.5v-8.3c0-1.4 1.1-2.5 2.5-2.5H74c1.4 0 2.5 1.1 2.5 2.5V57c0 1.4-1.1 2.5-2.5 2.5zm-18.4-5h15.9v-3.3H55.6v3.3zM111.7 59.5H90.8c-1.4 0-2.5-1.1-2.5-2.5v-8.3c0-1.4 1.1-2.5 2.5-2.5h20.9c1.4 0 2.5 1.1 2.5 2.5V57c0 1.4-1.2 2.5-2.5 2.5zm-18.5-5h15.9v-3.3H93.2v3.3zM36.2 108.2H15.3c-1.4 0-2.5-1.1-2.5-2.5v-8.3c0-1.4 1.1-2.5 2.5-2.5h20.9c1.4 0 2.5 1.1 2.5 2.5v8.3c0 1.4-1.1 2.5-2.5 2.5zm-18.4-5h15.9v-3.3H17.8v3.3zM74.4 108.2H53.5c-1.4 0-2.5-1.1-2.5-2.5v-8.3c0-1.4 1.1-2.5 2.5-2.5h20.9c1.4 0 2.5 1.1 2.5 2.5v8.3c0 1.4-1.1 2.5-2.5 2.5zm-18.4-5h15.9v-3.3H56v3.3zM112.1 108.2H91.2c-1.4 0-2.5-1.1-2.5-2.5v-8.3c0-1.4 1.1-2.5 2.5-2.5h20.9c1.4 0 2.5 1.1 2.5 2.5v8.3c0 1.4-1.2 2.5-2.5 2.5zm-18.4-5h15.9v-3.3H93.7v3.3z"/><path d="M19.5 96.8c-1.4 0-2.5-1.1-2.5-2.5V59.9c0-1.4 1.1-2.5 2.5-2.5s2.5 1.1 2.5 2.5v34.4c0 1.4-1.1 2.5-2.5 2.5zM31.4 96.8c-1.4 0-2.5-1.1-2.5-2.5V59.9c0-1.4 1.1-2.5 2.5-2.5s2.5 1.1 2.5 2.5v34.4c0 1.4-1.1 2.5-2.5 2.5zM57 96.8c-1.4 0-2.5-1.1-2.5-2.5V59.9c0-1.4 1.1-2.5 2.5-2.5s2.5 1.1 2.5 2.5v34.4c0 1.4-1.1 2.5-2.5 2.5zM69.5 96.8c-1.4 0-2.5-1.1-2.5-2.5V59.9c0-1.4 1.1-2.5 2.5-2.5s2.5 1.1 2.5 2.5v34.4c0 1.4-1.2 2.5-2.5 2.5zM94.9 96.8c-1.4 0-2.5-1.1-2.5-2.5V59.9c0-1.4 1.1-2.5 2.5-2.5s2.5 1.1 2.5 2.5v34.4c0 1.4-1.1 2.5-2.5 2.5zM107.4 96.8c-1.4 0-2.5-1.1-2.5-2.5V59.9c0-1.4 1.1-2.5 2.5-2.5s2.5 1.1 2.5 2.5v34.4c0 1.4-1.1 2.5-2.5 2.5z"/></g></switch></svg>