<svg version="1.1" id="Layer_1" xmlns="http://www.w3.org/2000/svg" x="0" y="0" viewBox="0 0 128 128" xml:space="preserve"><style>.st1{fill:#020202}</style><switch><g><circle cx="74.5" cy="36.6" fill="#d6b2f5" r="17.7"/><path class="st1" d="M94.7 63.8H49.5c-1.3 0-2.4-1.1-2.4-2.4V17.2c0-1.3 1.1-2.4 2.4-2.4h45.2c1.3 0 2.4 1.1 2.4 2.4v44.2c-.1 1.3-1.1 2.4-2.4 2.4zM51.9 59h40.4V19.6H51.9V59z"/><path class="st1" d="M71.6 58.9C60.8 58.9 52 50.1 52 39.3s8.8-19.6 19.6-19.6 19.6 8.8 19.6 19.6c-.1 10.8-8.9 19.6-19.6 19.6zm0-34.4c-8.2 0-14.8 6.6-14.8 14.8s6.6 14.8 14.8 14.8c8.2 0 14.8-6.6 14.8-14.8s-6.7-14.8-14.8-14.8z"/><path class="st1" d="M71.6 52c-7 0-12.7-5.7-12.7-12.7s5.7-12.7 12.7-12.7c7 0 12.7 5.7 12.7 12.7S78.5 52 71.6 52zm0-20.6c-4.4 0-7.9 3.6-7.9 7.9 0 4.4 3.6 7.9 7.9 7.9 4.4 0 7.9-3.6 7.9-7.9 0-4.4-3.6-7.9-7.9-7.9zM52.3 82.9H11.6c-3.8 0-5.9-1.6-6.9-2.9-2.3-3-1.8-7-1.6-8.2V33.1c-1.6-7.3 2.5-10.4 5-11.1h41.1c1.3 0 2.4 1.1 2.4 2.4s-1.1 2.4-2.4 2.4H9.1c-.6.3-2.3 1.5-1.3 5.6 0 .2.1.4.1.6v39c0 .2 0 .4-.1.6-.2.8-.4 3.2.6 4.5.6.7 1.7 1.1 3.2 1.1h40.7v4.7z"/><path class="st1" d="M19.8 88.7c-3.8 0-6.3-.9-7.6-2.8-1.2-1.7-1-3.7-.4-5l4.3 2v-.1c0 .1-.1.2 0 .3 0 0 .9 1.1 5.9.6h26.2c1.3 0 2.4 1.1 2.4 2.4s-1.1 2.4-2.4 2.4H22.3c-.9.2-1.8.2-2.5.2z"/><path class="st1" d="M35.2 104.2c-1.3 0-2.4-1.1-2.4-2.4V87.2c0-1.3 1.1-2.4 2.4-2.4 1.3 0 2.4 1.1 2.4 2.4v14.7c0 1.3-1.1 2.3-2.4 2.3zM43.3 104.2c-1.3 0-2.4-1.1-2.4-2.4V86.3C41 85 42 84 43.3 84c1.3 0 2.4 1.1 2.4 2.4v15.5c0 1.3-1 2.3-2.4 2.3z"/><path class="st1" d="M49.5 104.2H20.6c-.5 0-1-.2-1.4-.4-2.7-1.9-3.9-4-3.7-6.4.4-3.8 4.7-5.9 5.2-6.1.3-.1.6-.2.8-.2l12.5-.7c1.3-.1 2.4.9 2.5 2.2.1 1.3-.9 2.4-2.2 2.5l-12 .7c-.9.5-2.1 1.4-2.1 2.1 0 .3.3.9 1.2 1.6h28.1c1.3 0 2.4 1.1 2.4 2.4 0 1.3-1.1 2.3-2.4 2.3zM87.1 72.9c-1.3 0-2.4-1.1-2.4-2.4v-8.2c0-1.3 1.1-2.4 2.4-2.4 1.3 0 2.4 1.1 2.4 2.4v8.2c0 1.3-1.1 2.4-2.4 2.4z"/><path class="st1" d="M124.7 112.7H53.8c-1.3 0-2.4-1.1-2.4-2.4V74.5c0-1.3 1.1-2.4 2.4-2.4h41.7c1.3 0 2.4 1.1 2.4 2.4 0 1.3-1.1 2.4-2.4 2.4H56.2v31h66.2v-31h-5.1c-1.3 0-2.4-1.1-2.4-2.4 0-1.3 1.1-2.4 2.4-2.4h7.4c1.3 0 2.4 1.1 2.4 2.4v35.8c0 1.3-1.1 2.4-2.4 2.4zM39.1 43.6H13.7c-1.3 0-2.4-1.1-2.4-2.4v-9.3c0-1.3 1.1-2.4 2.4-2.4h25.5c1.3 0 2.4 1.1 2.4 2.4v9.3c-.1 1.4-1.1 2.4-2.5 2.4zm-23-4.7h20.7v-4.6H16.1v4.6z"/><path d="M77 100.2h-5.2l-2.2-5.8h-1.5v5.8h-4.7V85.1h7.9c1.7 0 3.1.4 4.1 1.2 1 .8 1.5 1.9 1.5 3.2 0 .9-.2 1.6-.5 2.3-.4.7-1.1 1.3-2.2 1.8l2.8 6.6zm-8.9-9h2c.6 0 1.1-.1 1.4-.4s.5-.6.5-1.1c0-1-.6-1.5-1.8-1.5h-2.1v3zM90.6 96.6v3.6H79.2V85.1h11.4v3.5h-6.8v2.2h5.5v3.4h-5.5v2.5h6.8zM105.4 100.2h-3.8l-4.2-6.7c-.5-.9-1.1-1.9-1.6-3.1.2 1 .4 1.8.4 2.5v7.3h-3.8V85.1h4.4l3.5 5.6c.7 1.1 1.2 2.1 1.6 2.9-.2-1.3-.4-2.6-.4-4v-4.5h3.8v15.1zM114.3 88.7v11.5h-4.4V88.7h-3.1v-3.6h10.7v3.6h-3.2z"/><g><path d="M35.2 24.5c-.6 0-1.3-.3-1.8-.8-2.8-3.1-5.6-4.5-8.4-4.5-4.4.1-7.6 4.1-7.6 4.2-.8 1-2.3 1.2-3.3.4-1-.8-1.2-2.3-.4-3.3.2-.2 4.6-5.7 11.2-6 4.3-.2 8.3 1.9 12.1 6 .9 1 .8 2.5-.2 3.3-.4.5-1 .7-1.6.7z"/></g></g></switch></svg>