<svg version="1.1" id="Layer_1" xmlns="http://www.w3.org/2000/svg" x="0" y="0" viewBox="0 0 128 128" xml:space="preserve"><style>.st1{fill:none}</style><switch><g><circle cx="64.3" cy="64.1" r="17" fill="#d6b2f5"/><path d="M64 122.3c-33 0-59.9-26.9-59.9-59.9 0-33.1 26.9-60 59.9-60 26.4 0 49.4 16.9 57.2 42.1.4 1.3-.3 2.7-1.6 3.1-1.3.4-2.7-.3-3.1-1.6C109.3 22.9 88.2 7.4 64 7.4c-30.2 0-54.9 24.7-54.9 55s24.7 54.9 54.9 54.9c30.3 0 54.9-24.6 54.9-54.9 0-2.7-.2-5.3-.6-7.9-.2-1.4.7-2.6 2.1-2.8 1.4-.2 2.6.7 2.8 2.1.4 2.8.6 5.7.6 8.7.2 32.9-26.7 59.8-59.8 59.8z"/><path d="M64 112c-27.4 0-49.7-22.3-49.7-49.7C14.4 35 36.7 12.7 64 12.7c27.4 0 49.7 22.3 49.7 49.7 0 20-11.9 38-30.3 45.8-.1.1-.3.1-.4.1-1.3.3-2.7-.5-3-1.8-.3-1.3.4-2.5 1.6-3 16.5-7 27.1-23.2 27.1-41.1 0-24.6-20-44.7-44.7-44.7-24.6 0-44.7 20-44.7 44.7S39.4 107 64 107c3.2 0 6.3-.3 9.3-1 1.3-.3 2.7.6 3 1.9.3 1.3-.6 2.7-1.9 3-3.4.7-6.8 1.1-10.4 1.1z"/><path d="M64 101.5c-21.6 0-39.1-17.5-39.1-39.1 0-19.4 14.5-36.1 33.7-38.7 1.5-.2 2.9 1 2.9 2.5 0 1.3-1 2.4-2.2 2.5C42.6 31.1 30 45.6 30 62.5c0 18.8 15.3 34.1 34.1 34.1s34.1-15.3 34.1-34.1c0-17.5-13.1-32.1-30.5-33.9-1.4-.1-2.4-1.4-2.2-2.7.1-1.4 1.4-2.4 2.7-2.2 19.9 2.1 35 18.8 35 38.9 0 21.3-17.6 38.9-39.2 38.9z"/><path d="M64 90.5c-11.4 0-21.6-6.8-26-17.3-.5-1.3.1-2.7 1.3-3.3 1.3-.5 2.7.1 3.3 1.3 3.6 8.6 12 14.2 21.4 14.2 12.8 0 23.1-10.4 23.1-23.1 0-12.8-10.4-23.1-23.1-23.1-12.8 0-23.1 10.4-23.1 23.1v1l-2.5.1h-2.5v-1.1c0-15.5 12.6-28.1 28.1-28.1 15.5 0 28.1 12.6 28.1 28.1.1 15.6-12.5 28.2-28.1 28.2z"/><path d="M59.3 68.6c-.4 0-.9-.1-1.3-.4-3.5-2.1-5.6-5.8-5.6-9.9 0-6.4 5.2-11.6 11.6-11.6 6.4 0 11.6 5.2 11.6 11.6 0 4-2 7.7-5.4 9.8-.4.3-.9.4-1.4.4-1.4 0-2.5-1.1-2.5-2.5 0-.9.5-1.7 1.2-2.1 2-1.2 3.2-3.3 3.2-5.6 0-3.6-3-6.6-6.6-6.6-3.6 0-6.6 3-6.6 6.6 0 2.3 1.2 4.4 3.2 5.6 1.2.7 1.6 2.3.8 3.4-.5.9-1.3 1.3-2.2 1.3z"/><path d="M70.5 80.3c-.1 0-.1 0 0 0l-13.1-.2c-.7 0-1.4-.3-1.9-.9-.5-.6-.7-1.3-.5-2l1.9-11.5c.2-1.4 1.5-2.3 2.9-2 1.4.2 2.3 1.5 2 2.9l-1.5 8.6 7.2.1-1.3-8.8c-.2-1.4.8-2.6 2.1-2.8 1.4-.2 2.6.8 2.8 2.1l1.7 11.7c.1.7-.1 1.5-.6 2-.3.5-1 .8-1.7.8z"/><path class="st1" d="M67.9 25.9l-8.9.2M73.8 108.5l8.6-2.7M120.9 54.1l-2-8.9M38.4 63.4"/><path d="M41.1 50.5c-.5 0-1.1-.2-1.5-.5l-6.4-4.9c-1.1-.8-1.3-2.4-.5-3.5s2.4-1.3 3.5-.5l6.4 4.9c1.1.8 1.3 2.4.5 3.5-.5.7-1.3 1-2 1zM108.6 81.3c-.4 0-.8-.1-1.1-.3l-9.8-5c-1.2-.6-1.7-2.1-1.1-3.4.6-1.2 2.1-1.7 3.4-1.1l9.8 5c1.2.6 1.7 2.1 1.1 3.4-.5.9-1.4 1.4-2.3 1.4zM19.3 98.7c-.8 0-1.6-.4-2.1-1.2-.7-1.2-.4-2.7.8-3.5l6.8-4.4c1.2-.7 2.7-.4 3.5.8s.4 2.7-.8 3.5l-6.8 4.4c-.5.3-.9.4-1.4.4zM49.5 31.3c-.9 0-1.8-.5-2.2-1.3l-4.1-7.8c-.6-1.2-.2-2.7 1.1-3.4 1.2-.6 2.7-.2 3.4 1.1l4.1 7.8c.6 1.2.2 2.7-1.1 3.4-.5.1-.9.2-1.2.2zM67.9 17.1c-1.4 0-2.5-1.1-2.5-2.5V4.9c0-1.4 1.1-2.5 2.5-2.5s2.5 1.1 2.5 2.5v9.7c0 1.4-1.1 2.5-2.5 2.5z"/></g></switch></svg>