<svg version="1.1" id="Layer_1" xmlns="http://www.w3.org/2000/svg" x="0" y="0" viewBox="0 0 128 128" style="enable-background:new 0 0 128 128" xml:space="preserve"><style>.st1{fill:#231f20}</style><ellipse transform="rotate(-24.879 75.14 67.166)" cx="75.1" cy="67.2" rx="28.4" ry="14.5" style="fill:#d6b2f5"/><path class="st1" d="M31.5 70.7c-1.4 0-2.5-.5-3.2-1-1.4-1-2.3-2.8-2.5-4.8-.2-2.8 1.2-5.6 3.6-7.4 4.2-2.9 15-10.4 25.2-16.7 12.5-7.7 22.5-7.5 24.3-7.4 22.4-2 31.8 3.1 32.2 3.3l7.4 4.1-8.4.6c-7.9.6-29.7 2.6-35.1 4.9-2.9 1.2-9.6 5.5-16.8 10.1-9.9 6.3-20.2 12.8-24.5 14-.8.2-1.5.3-2.2.3zm.9-9c-1 .7-1.6 1.8-1.5 2.9 0 .6.2 1 .4 1.1.1 0 .4.1 1.1-.1 3.6-1 14.5-7.9 23.2-13.4 7.7-4.9 14.3-9.1 17.5-10.5 3.5-1.5 11.6-2.7 19.3-3.6-3.7-.2-8-.1-13.1.4h-.4c-.1 0-9.4-.8-21.4 6.6-10.2 6.2-21 13.6-25.1 16.6zM102.5 58.3c-3 2.7-7.4 12.4-14.6 18.3-7.6 6.2-25 9.8-32.2 6.4-5.7-2.7-9.3-2-9.3-2s3.5.6 6.1 3.6c.4.5-.2 1.2-.4 1.7-1.2 3.1-4.4 3.7-4.4 3.7l7.3-3.5-6.8 7.3 7.1-5.1-6.8 7.3 1.7-1.1 6.5-4.2-5.7 6.5 9.1-6.9-5.8 6.4 8.1-5.7-4.7 6.3L62 95l1.8-1.9-1.1 8 3.3-8.3-.1 7.9 2.1-9.3 1.1 8.8 1.1-9.1 1.1 7.7 1.1-8 1.1 7.7 1.2-8.5 1.1 7.3 1.5-7.7s3 9 2.8 7.9c-.2-1.1-1.3-8.8-1.3-8.8l3.1 6.3-1.1-7.7s2.8 4.1 5.5 7c0 0-3-5.2-3.5-8.5 0 0 3.5 8.5 6.9 9.1 0 0-3.9-3.9-4.6-8.3 0 0 4.1 5 7.7 6.7l-5.5-7 7.5 5.6-6.4-6.9s5.2 4.9 8.6 5.5c0 0-4.2-2.6-6.4-4.8-.7-.7-1.3-1.4-1.3-2 0 0 7.7 6.7 11 6.3l-8.8-6.6s7.4 4.5 10.8 5.2l-8.6-5.5s7.2 3.4 8.3 3.3c0 0-6.1-3.6-6.4-5.8 0 0 2.8 4.1 9.4 3.1 0 0-4.5-.5-7.4-4.5 0 0 6.1 3.3 8.2 2.6 0 0-5.2-.8-7-3.9 0 0 4.6 2.2 6.8 2.1 0 0-4-1.4-5.1-2.9 0 0 5 2.1 7.2 1.8 0 0-4.4.6-5.9-1.9l5.7.8-6.1-3.5 5.9 2-4.9-3.2 4.4-.7-4.9-2.5 4.4-.5-4.9-2.8 1.1-8.3z"/><path class="st1" d="M66.5 86.9c-11.7 0-20.4-5.2-20.9-5.5l-1.8-1.1.8-2c.4-1 10.9-25.7 32.1-27.8 20-2 26-.1 26.6.1l2.1.7-.5 2.1c-.2.9-5.1 22.4-23.5 30.3-5.2 2.4-10.2 3.2-14.9 3.2zm-16.3-8.8c4.6 2.1 16.7 6.5 29.3 1.1C92.1 73.9 97.6 60.5 99.4 55c-3.1-.4-9.8-.7-22.1.5-15 1.5-24.2 16.9-27.1 22.6z"/><path class="st1" d="M42 24S0 44 19 93c0 0 13 36 60 18 0 0-27 25-58-6 0 0-23-27-9-56 0 0 10-20 30-25z"/><path class="st1" d="M5 67S3 28 41 14c0 0 10.3-3.8 24.1-2.9L63 20S16 10 5 67zM67.1 11l-2 10.2S78 27 76 17c0 0 .2-6.1-8.9-6z"/></svg>