<svg version="1.1" id="Layer_1" xmlns="http://www.w3.org/2000/svg" x="0" y="0" viewBox="0 0 128 128" style="enable-background:new 0 0 128 128" xml:space="preserve"><style>.st1{fill:#231f20}</style><ellipse cx="63.6" cy="38.4" rx="30.5" ry="34.2" style="fill:#d6b2f5"/><path class="st1" d="M46.1 32.4h-.5c-1.7.1-5-.3-6.8-2.8-2.1-2.9-1.3-7.2 2.3-13.3l1.5-2.5 2.3 1.8c.7.6 7.1 5.9 6.3 11.1-.3 1.5-1.2 3.7-4.5 5.3l-.6.4zm-2.4-11.3c-1.9 4-1.3 5.6-.9 6.2.5.7 1.5.9 2.1 1 1.1-.7 1.4-1.3 1.4-1.8.3-1.6-1.1-3.8-2.6-5.4zM83.1 39.7c-.1.4-1.4 8.1-7.6 12.5-1.1.8-2.3 1.4-3.6 1.9-.4-.6-1.1-.9-1.9-1l-1.4-3.8c.4-.1.7-.2 1-.4 5.9-2.4 7.2-10 7.2-10.1l6.3.9zM62.5 107.2c-3.6 0-10.7-1.4-16.9-10.5-.2-.3-.4-.7-.4-1.1l-3.7-24.3c-.1-.8.2-1.6.7-2.2.6-.6 1.5-.9 2.4-.9h42.9c.9 0 1.8.4 2.4 1 .6.6.8 1.5.7 2.3l-5.4 24.3c0 .1-.1.2-.1.3-1.5 4.1-7.8 11.6-20.7 10.9-.5.2-1.1.2-1.9.2zM51.3 94.4c5.9 8.4 11.8 7.3 12.1 7.3.3-.1.6-.1 1-.1 10.7.7 14.2-5.9 14.7-7l4.6-20.8H48.2l3.1 20.6z"/><path class="st1" d="M78.3 126.8H49.2c-1 0-2-.4-2.6-1.2-.6-.7-.7-1.7-.3-2.5l8.8-20.4 5.9 2-7.2 16.7h20.1l-7-16.9 5.9-1.9 8.5 20.6c.3.8.2 1.8-.4 2.5s-1.6 1.1-2.6 1.1z"/><path class="st1" d="M88.7 115.7c-.2-.2-12.7-11.7-23.6-8.7-13.9 3.8-30.5 1.7-31.2 1.6l.9-5.5c.2 0 16 2 28.5-1.4 14.6-3.9 29.4 9.6 30 10.1l-4.6 3.9z"/><path class="st1" d="M63.8 104.7c-.9 0-1.7-.3-2.3-.9-9.3-8.7-7.4-17.5-7.3-17.9l6.1 1.1c0 .2-1 5.1 3.5 10.7l6-5.9v-7.9h6.3v8.9c0 .7-.3 1.3-.8 1.8l-9.2 9.1c-.6.7-1.4 1-2.3 1zM62.7 31.5h-3v-3.2c0-2.3-2.1-4.1-4.7-4.1s-4.7 1.9-4.7 4.1v3.2h-2.6c-2.6 0-4.7 1.9-4.7 4.1 0 2.3 2.1 4.1 4.7 4.1h2.6v3.4c0 2.3 2.1 4.1 4.7 4.1s4.7-1.9 4.7-4.1v-3.4h3c2.6 0 4.7-1.8 4.7-4.1s-2.1-4.1-4.7-4.1zm-3.1 6.6h-1.8v2c0 1.4-1.2 2.4-2.8 2.4s-2.8-1.1-2.8-2.4v-2h-1.6c-1.5 0-2.8-1.1-2.8-2.4 0-1.4 1.2-2.4 2.8-2.4h1.6v-1.9c0-1.4 1.2-2.4 2.8-2.4s2.8 1.1 2.8 2.4v1.9h1.8c1.5 0 2.8 1.1 2.8 2.4 0 1.3-1.3 2.4-2.8 2.4zM86.5 27h-3v-3.2c0-2.3-2.1-4.1-4.7-4.1s-4.7 1.9-4.7 4.1V27h-2.6c-2.6 0-4.7 1.9-4.7 4.1 0 2.3 2.1 4.1 4.7 4.1h2.6v3.4c0 2.3 2.1 4.1 4.7 4.1s4.7-1.9 4.7-4.1v-3.4h3c2.6 0 4.7-1.8 4.7-4.1 0-2.2-2.1-4.1-4.7-4.1zm-3.1 6.7h-1.8v2c0 1.4-1.2 2.4-2.8 2.4S76 37 76 35.7v-2h-1.6c-1.5 0-2.8-1.1-2.8-2.4 0-1.4 1.2-2.4 2.8-2.4H76V27c0-1.4 1.2-2.4 2.8-2.4s2.8 1.1 2.8 2.4v1.9h1.8c1.5 0 2.8 1.1 2.8 2.4 0 1.3-1.3 2.4-2.8 2.4z"/><path class="st1" d="m46.7 39.8-2.3 1.3-1.4-2.5c-1-1.7-3.4-2.3-5.3-1.2-2 1.1-2.8 3.4-1.9 5.1l1.4 2.5-2 1.1c-2 1.1-2.8 3.4-1.9 5.1 1 1.8 3.3 2.3 5.3 1.2l2-1.1 1.4 2.6c1 1.7 3.3 2.3 5.3 1.2 2-1.1 2.8-3.4 1.9-5.1l-1.4-2.6 2.3-1.3c2-1.1 2.8-3.4 1.9-5.1-1-1.7-3.3-2.3-5.3-1.2zm.4 6.4-1.4.7.8 1.5c.6 1 .1 2.4-1.1 3-1.2.6-2.6.3-3.2-.7l-.8-1.5-1.2.7c-1.2.6-2.6.3-3.2-.7-.6-1-.1-2.4 1.1-3l1.2-.7-.7-1.5c-.6-1-.1-2.4 1.1-3 1.2-.6 2.6-.3 3.2.7l.8 1.5 1.4-.7c1.2-.6 2.6-.3 3.2.7.5 1 0 2.3-1.2 3zM75.6 52.2c-.8-.6-1.8-.9-2.9-.9h-3v-3.2c0-2.3-2.1-4.1-4.7-4.1s-4.7 1.9-4.7 4.1v3.2h-2.6c-2.6 0-4.7 1.9-4.7 4.1 0 2.3 2.1 4.1 4.7 4.1h2.6V63c0 2.3 2.1 4.1 4.7 4.1s4.7-1.9 4.7-4.1v-3.4h3c2.6 0 4.7-1.9 4.7-4.1 0-1.3-.7-2.5-1.8-3.3zm-6 5.8h-1.8v2c0 1.3-1.3 2.4-2.8 2.4-1.5 0-2.8-1.1-2.8-2.4v-2h-1.6c-1.5 0-2.8-1.1-2.8-2.4 0-1.4 1.2-2.5 2.8-2.5h1.6v-1.9c0-1.3 1.2-2.4 2.8-2.4 1.5 0 2.8 1.1 2.8 2.4v1.9H70c.8.1 1.5.5 1.9 1 .3.4.5.9.5 1.4 0 1.4-1.2 2.5-2.8 2.5z"/><path class="st1" d="M71.9 54.1c-.4.2-.9.3-1.3.5l-.6-1.5c.8.1 1.5.5 1.9 1zM86.4 65.1l-.7-.1c-2.2-.2-6.4-1.6-8.1-5.2-2-4.2 0-9.6 6-16.5l2.5-2.9 2.5 2.9c.8.9 7.8 9.3 5.5 15.8-.7 1.9-2.4 4.5-7 5.8l-.7.2zM86 50c-3.3 4.7-3 6.9-2.6 7.7.5 1 1.7 1.5 2.5 1.7 1.6-.6 2.1-1.4 2.3-1.9.6-2-.7-5-2.2-7.5zM66.4 28.6l-.7-.1c-2.2-.2-6.4-1.6-8.1-5.2-2-4.2 0-9.6 6-16.5L66.1 4l2.5 2.9c.8.9 7.8 9.3 5.5 15.8-.7 1.9-2.4 4.5-7 5.8l-.7.1zM66 13.5c-3.3 4.7-3 6.9-2.6 7.7.5 1 1.7 1.5 2.5 1.7 1.6-.6 2.1-1.4 2.3-1.9.6-1.9-.7-5-2.2-7.5zM48.9 73.9l-.7-.1c-2.2-.2-6.4-1.6-8.1-5.2-2-4.2 0-9.6 6-16.5l2.5-2.9 2.5 2.9c.8.9 7.8 9.3 5.5 15.8-.7 1.9-2.4 4.5-7.1 5.8l-.6.2zm-.5-15.1c-3.3 4.7-3 6.9-2.6 7.7.5 1 1.7 1.5 2.5 1.7 1.6-.6 2.1-1.4 2.3-1.9.7-2-.6-5-2.2-7.5z"/><path class="st1" d="m52 56.2-.2-11.1 6.3-.1.2 11.1zM78.7 72.4c-4-6-10.9-10.6-10.9-10.6l3.7-4.4c.3.2 7.9 5.2 12.6 12.2l-5.4 2.8z"/><g><path class="st1" d="M83 71.1v-8.8h6.2l.1 8.8z"/></g></svg>