<svg version="1.1" id="Layer_1" xmlns="http://www.w3.org/2000/svg" x="0" y="0" viewBox="0 0 128 128" xml:space="preserve"><style>.st1{fill:#020202}</style><switch><g><circle cx="61.5" cy="15.6" r="15.6" fill="#d6b2f5"/><path class="st1" d="M64 33.2c-8.9 0-16.2-7.3-16.2-16.2S55.1.9 64 .9s16.2 7.3 16.2 16.2S72.9 33.2 64 33.2zm0-27.3c-6.2 0-11.2 5-11.2 11.2s5 11.2 11.2 11.2 11.2-5 11.2-11.2S70.2 5.9 64 5.9z"/><path class="st1" d="M68.1 129.8c-6.3 0-8.6-4.3-9.4-6.4-1.1-3.1-.9-6.6.7-9.8l13-26-9.6-35c-4.8-11.5 1.9-18 6.2-19.9L80.7 27 79 25.8c-1.1-.8-1.5-2.3-.7-3.5.8-1.1 2.3-1.5 3.5-.7l5.4 3.6c.7.5 1.2 1.4 1.1 2.2s-.6 1.7-1.4 2.1l-15.7 7.7c-.9.4-7.8 3.9-3.7 13.6 0 .1.1.2.1.3l9.9 36.1c.2.6.1 1.2-.2 1.8l-13.4 26.9c-.9 1.9-1.1 4-.5 5.8.4 1.1 1.5 4.2 7.7 2.7 1.3-.3 2.3-1.1 2.9-2.3l14.2-27.2c.4-.8 1.3-1.4 2.3-1.3 1 0 1.8.6 2.2 1.5l10.6 23.8c.9 2.1 3.1 3.4 5.2 3.1 1.1-.1 1.9-.6 2.7-1.4 1.4-1.4 1.8-3.7 1.1-5.7L85.7 40.7c-.4-1.2.1-2.5 1.2-3l14-7.6c.1 0 .2-.1.2-.1s1.1-.5 1.3-1.5c.2-.9-.5-2.2-1.8-3.7L79.9 12.5c-1.2-.7-1.6-2.2-.9-3.4.7-1.2 2.2-1.6 3.4-.9l21.1 12.5c.2.1.4.3.6.5 2.7 3 3.8 5.8 3.2 8.5-.7 3.1-3.4 4.6-4.1 4.9l-12 6.6 25.9 72.1c1.4 3.8.5 8.1-2.2 10.9-1.6 1.6-3.5 2.6-5.7 2.9-4.3.6-8.6-1.9-10.5-6.1l-8.5-19.1-11.8 22.6c-1.3 2.4-3.5 4.2-6.1 4.8-1.6.3-3 .5-4.2.5zM20.9 67.1c-3 0-5.5-.8-7.5-2.5-5.2-4.4-4.6-12.6-4.6-13 .1-.7.4-1.4 1-1.8L47 22.6c1.1-.8 2.7-.6 3.5.5.8 1.1.6 2.7-.5 3.5L17.4 50.4s0 .1.1.1l9.7 11.9c.5.7.7 1.6.4 2.4-.3.8-.9 1.4-1.8 1.6-1.7.5-3.3.7-4.9.7zm-7.1-13.2c.2 2.2.9 5.2 2.8 6.8 1 .8 2.2 1.3 3.8 1.3l-6.6-8.1zM11 46.1c-1.2 0-2.2-.9-2.5-2.1C3.3 14.5 21.6 5.1 22.3 4.8c1.2-.6 2.7-.1 3.3 1.1.6 1.2.1 2.7-1.1 3.3-.7.3-15.7 8.3-11.1 34 .2 1.4-.7 2.7-2 2.9H11zM31 31.7c-1 0-2-.6-2.3-1.6-4.2-11.1 5.4-19.9 11-22.9 1.2-.7 2.7-.2 3.4 1 .7 1.2.2 2.7-1 3.4-.5.3-12.4 7-8.8 16.8.5 1.3-.2 2.7-1.5 3.2-.2.1-.5.1-.8.1z"/><path class="st1" d="M90.5 98.6h-.3c-1.4-.2-2.3-1.4-2.2-2.8l4.5-35.9c.2-1.4 1.4-2.3 2.8-2.2 1.4.2 2.3 1.4 2.2 2.8L93 96.4c-.2 1.3-1.3 2.2-2.5 2.2z"/></g></switch></svg>