<svg version="1.1" id="Layer_1" xmlns="http://www.w3.org/2000/svg" x="0" y="0" viewBox="0 0 128 128" style="enable-background:new 0 0 128 128" xml:space="preserve"><style>.st1{fill:#231f20}</style><circle cx="65.6" cy="70.9" r="17.9" style="fill:#d6b2f5"/><path class="st1" d="M65 91c-8.8 0-16-7.2-16-16s7.2-16 16-16 16 7.2 16 16-7.2 16-16 16zm0-27c-6.1 0-11 4.9-11 11s4.9 11 11 11 11-4.9 11-11-4.9-11-11-11z"/><path class="st1" d="M88.4 126H40.6c-3.6 0-6.6-3-6.6-6.6v-15.1C34 94.7 41.7 87 51.3 87h28.5c9 0 16.3 7.3 16.3 16.3v15.1c-.1 4.2-3.5 7.6-7.7 7.6zM51.3 92C44.5 92 39 97.5 39 104.3v15.1c0 .9.7 1.6 1.6 1.6h47.8c1.4 0 2.6-1.2 2.6-2.6v-15.1C91 97.1 85.9 92 79.7 92H51.3z"/><path class="st1" d="M64.6 120.5c-.8 0-1.5-.4-1.9-.9l-6.1-7.5c-.5-.6-.7-1.3-.5-2.1l3-15c.3-1.4 1.6-2.2 2.9-2 1.4.3 2.2 1.6 2 2.9l-2.8 13.8 3.6 4.3 3.1-3.4L65 96c-.3-1.4.6-2.7 2-2.9 1.4-.3 2.7.6 2.9 2l3 16c.1.8-.1 1.6-.6 2.1l-5.9 6.5c-.4.5-1 .8-1.8.8zM116.5 73H92c-1.4 0-2.5-1.1-2.5-2.5S90.6 68 92 68h24.5c.3 0 .5-.2.5-.5V62c0-1.6-1.3-3-3-3H15c-1.6 0-3 1.3-3 3v5.5c0 .3.2.5.5.5h24.7c1.4 0 2.5 1.1 2.5 2.5S38.6 73 37.2 73H12.5c-3 0-5.5-2.5-5.5-5.5V62c0-4.4 3.6-8 8-8h99c4.4 0 8 3.6 8 8v5.5c0 3-2.5 5.5-5.5 5.5z"/><path class="st1" d="M101.5 59h-73c-1.4 0-2.5-1.1-2.5-2.5v-4.6c0-4.3 3.5-7.9 7.9-7.9h62.3c4.3 0 7.9 3.5 7.9 7.9v4.6c-.1 1.4-1.2 2.5-2.6 2.5zM31 54h68v-2.1c0-1.6-1.3-2.9-2.9-2.9H33.9c-1.6 0-2.9 1.3-2.9 2.9V54zM88.8 43.2c-1.4 0-2.5-1.1-2.5-2.5 0-9.5-9.3-17.2-20.8-17.2s-20.8 7.7-20.8 17.2c0 1.4-1.1 2.5-2.5 2.5s-2.5-1.1-2.5-2.5c0-12.3 11.6-22.2 25.8-22.2s25.8 10 25.8 22.2c0 1.4-1.2 2.5-2.5 2.5z"/><path class="st1" d="M51.5 42c-.2 0-.4 0-.6-.1-1.3-.3-2.2-1.6-1.9-2.9.1-.2 1.3-5.8 8.3-9.5 1.2-.7 2.7-.2 3.4 1 .6 1.2.2 2.7-1 3.4-4.8 2.6-5.7 6-5.7 6.2-.3 1.1-1.4 1.9-2.5 1.9zM65 22c-1.4 0-2.5-1.1-2.5-2.5V3c0-1.4 1.1-2.5 2.5-2.5s2.5 1.1 2.5 2.5v16.5c0 1.3-1.1 2.5-2.5 2.5zM17.3 104.8c-1.4 0-2.5-1.1-2.5-2.5V70.5c0-1.4 1.1-2.5 2.5-2.5s2.5 1.1 2.5 2.5v31.8c0 1.4-1.2 2.5-2.5 2.5zM37.2 91c-1.4 0-2.5-1.1-2.5-2.5v-18c0-1.4 1.1-2.5 2.5-2.5s2.5 1.1 2.5 2.5v18c0 1.4-1.1 2.5-2.5 2.5zM92 91c-1.4 0-2.5-1.1-2.5-2.5v-18c0-1.4 1.1-2.5 2.5-2.5s2.5 1.1 2.5 2.5v18c0 1.4-1.1 2.5-2.5 2.5zM111.5 104.8c-1.4 0-2.5-1.1-2.5-2.5V70.5c0-1.4 1.1-2.5 2.5-2.5s2.5 1.1 2.5 2.5v31.8c0 1.4-1.1 2.5-2.5 2.5zM66 118h-2.6c-1.4 0-2.5-1.1-2.5-2.5s1.1-2.5 2.5-2.5H66c1.4 0 2.5 1.1 2.5 2.5S67.4 118 66 118z"/><path class="st1" d="M121.1 126H7.9c-2.2 0-3.9-1.8-3.9-3.9V117c0-2.2 1.8-3.9 3.9-3.9h22.6c1.4 0 2.5 1.1 2.5 2.5s-1.1 2.5-2.5 2.5H9v3h111v-3H99.5c-1.4 0-2.5-1.1-2.5-2.5s1.1-2.5 2.5-2.5h21.6c2.2 0 3.9 1.8 3.9 3.9v5.1c0 2.1-1.8 3.9-3.9 3.9zm0-8z"/><path class="st1" d="M30.5 118h-18c-1.4 0-2.5-1.1-2.5-2.5v-2.9c0-4.2 3.4-7.6 7.6-7.6h12.9c1.4 0 2.5 1.1 2.5 2.5s-1.1 2.5-2.5 2.5H17.6c-1.4 0-2.6 1.2-2.6 2.6v.4h15.5c1.4 0 2.5 1.1 2.5 2.5s-1.1 2.5-2.5 2.5zM116.5 118h-17c-1.4 0-2.5-1.1-2.5-2.5s1.1-2.5 2.5-2.5H114v-.4c0-1.4-1.2-2.6-2.6-2.6H99.5c-1.4 0-2.5-1.1-2.5-2.5s1.1-2.5 2.5-2.5h11.9c4.2 0 7.6 3.4 7.6 7.6v2.9c0 1.4-1.1 2.5-2.5 2.5zM31.9 80h-5.4c-1.4 0-2.5-1.1-2.5-2.5s1.1-2.5 2.5-2.5h5.4c1.4 0 2.5 1.1 2.5 2.5S33.2 80 31.9 80zM31.9 87.7h-5.4c-1.4 0-2.5-1.1-2.5-2.5s1.1-2.5 2.5-2.5h5.4c1.4 0 2.5 1.1 2.5 2.5s-1.2 2.5-2.5 2.5zM31.9 95.3h-5.4c-1.4 0-2.5-1.1-2.5-2.5s1.1-2.5 2.5-2.5h5.4c1.4 0 2.5 1.1 2.5 2.5s-1.2 2.5-2.5 2.5zM31.9 103h-5.4c-1.4 0-2.5-1.1-2.5-2.5s1.1-2.5 2.5-2.5h5.4c1.4 0 2.5 1.1 2.5 2.5s-1.2 2.5-2.5 2.5zM104.9 80h-5.4c-1.4 0-2.5-1.1-2.5-2.5s1.1-2.5 2.5-2.5h5.4c1.4 0 2.5 1.1 2.5 2.5s-1.2 2.5-2.5 2.5zM104.9 87.7h-5.4c-1.4 0-2.5-1.1-2.5-2.5s1.1-2.5 2.5-2.5h5.4c1.4 0 2.5 1.1 2.5 2.5s-1.2 2.5-2.5 2.5zM104.9 95.3h-5.4c-1.4 0-2.5-1.1-2.5-2.5s1.1-2.5 2.5-2.5h5.4c1.4 0 2.5 1.1 2.5 2.5s-1.2 2.5-2.5 2.5zM104.9 103h-5.4c-1.4 0-2.5-1.1-2.5-2.5s1.1-2.5 2.5-2.5h5.4c1.4 0 2.5 1.1 2.5 2.5s-1.2 2.5-2.5 2.5zM65.5 17.5c-.9 0-1.8-.5-2.2-1.4-.6-1.2-.1-2.7 1.1-3.4 2.1-1.1 6.1-2.8 9.5-2.8h.1v-4c-1.5 0-4.7 1-7.4 2.3-1.2.6-2.7.1-3.4-1.1-.6-1.2-.1-2.7 1.1-3.4 3.3-1.7 11.3-5 14.2-.7.4.5.5 1 .5 1.5v9c0 1.1-.7 2.1-1.8 2.4-1 .3-2.1-.1-2.7-.9-1.1-.4-4.8.7-7.9 2.2-.3.2-.7.3-1.1.3z"/></svg>