<svg version="1.1" id="Layer_1" xmlns="http://www.w3.org/2000/svg" x="0" y="0" viewBox="0 0 128 128" xml:space="preserve"><style>.st1{fill:#d6b2f5}.st2{fill:#020202}</style><switch><g><g opacity=".16"><path d="M9.7 45.9c-1.4 0-2.8-.5-3.8-1.5-1.1-1-1.7-2.4-1.7-3.9v-3.7c0-1.6.7-3.1 1.9-4.1s2.8-1.5 4.4-1.3l20.5 3c2.8.4 4.8 2.8 4.7 5.7-.1 2.8-2.4 5.1-5.3 5.2l-20.5.6h-.2zm0-13.6c-1.1 0-2.1.4-2.9 1.1-1 .8-1.5 2.1-1.5 3.4v3.7c0 1.2.5 2.3 1.4 3.2.9.8 2 1.3 3.2 1.2l20.5-.7c2.3-.1 4.2-1.9 4.3-4.2.1-2.3-1.5-4.2-3.8-4.6l-20.5-3c-.3-.1-.5-.1-.7-.1z"/><path d="M24.8 72.8c-.2 0-.4-.1-.5-.3L13.1 45.4c-.1-.3 0-.6.3-.7.3-.1.6 0 .7.3l11.2 27.1c.1.3 0 .6-.3.7h-.2zM31.6 68.8c-.2 0-.4-.1-.5-.3l-8.9-23.3c-.1-.3 0-.6.3-.7.3-.1.6 0 .7.3L32.1 68c.1.3 0 .6-.3.7 0 0-.1.1-.2.1z"/><path d="M18.6 116c-.1 0-.3 0-.4-.1-.2-.2-.2-.5 0-.7L35 98.1c-3.8-.3-7.3-1.8-9.9-4.4-2.9-2.8-4.5-6.7-4.5-10.8 0-8.4 6.8-15.2 15.2-15.2l63 4.1c.3 0 .5.3.5.6s-.3.5-.6.5l-63-4.1c-7.8 0-14.1 6.4-14.1 14.2 0 7.9 6.4 14.2 14.6 14.2.2 0 .4.1.5.3.1.2 0 .4-.1.6L19 115.9c-.1.1-.3.1-.4.1zM81.8 28.1c-1.7 0-3.2-.9-4-2.4-.6-1.1-.6-2.4-.2-3.9.6-1.8 2.3-3.1 4.3-3.1h14c3.1-.1 5.3-1 6.7-2.6 1.7-2.1 1.7-4.9 1.5-7-.3-1.8.6-3.6 2.1-4.5 2.3-1.4 4.8-1.1 7 .8.9.8 1.4 1.9 1.5 3.1.4 5.6-1.1 10.3-4.5 13.9-3.1 3.2-7.4 5.1-12 5.3l-16.3.4h-.1zm-3.1-5.9c-.4 1.2-.3 2.2.1 3.1.6 1.1 1.7 1.8 3 1.8h.1l16.3-.4c4.3-.1 8.4-1.9 11.3-4.9 3.2-3.4 4.6-7.8 4.2-13.1-.1-.9-.5-1.8-1.2-2.3-1.3-1.1-3.4-2.1-5.8-.7-1.2.7-1.8 2.1-1.6 3.4.3 2.2.3 5.4-1.7 7.8-1.6 1.9-4.1 2.9-7.4 3H82c-1.6-.1-2.9.8-3.3 2.3z"/><path d="M112.4 111.7c-.2 0-.4-.1-.5-.3L87.1 41.1l-4.5-13.4c-.1-.3.1-.6.3-.7.3-.1.6.1.7.3l4.5 13.4 6.7 19 18 51.2c.1.3 0 .6-.3.7 0 .1-.1.1-.1.1zM120.6 111.1c-.2 0-.4-.1-.5-.4l-28.5-83c-.1-.3.1-.6.3-.7.3-.1.6.1.7.3l28.5 83c.1.3-.1.6-.3.7-.1.1-.1.1-.2.1zM15.1 124.8H8.2c-2.1 0-3.8-1.7-3.8-3.8v-6.9c0-2.1 1.7-3.8 3.8-3.8h6.9c2.1 0 3.8 1.7 3.8 3.8v6.9c0 2.1-1.7 3.8-3.8 3.8zm-6.9-13.5c-1.5 0-2.8 1.2-2.8 2.8v6.9c0 1.5 1.2 2.8 2.8 2.8h6.9c1.5 0 2.8-1.2 2.8-2.8v-6.9c0-1.5-1.2-2.8-2.8-2.8H8.2z"/><path d="M120.7 124.8h-6.9c-2.1 0-3.8-1.7-3.8-3.8v-6.9c0-2.1 1.7-3.8 3.8-3.8h6.9c2.1 0 3.8 1.7 3.8 3.8v6.9c0 2.1-1.7 3.8-3.8 3.8zm-6.9-13.5c-1.5 0-2.8 1.2-2.8 2.8v6.9c0 1.5 1.2 2.8 2.8 2.8h6.9c1.5 0 2.8-1.2 2.8-2.8v-6.9c0-1.5-1.2-2.8-2.8-2.8h-6.9zM10.7 111.3c-.1 0-.3-.1-.4-.2-.2-.2-.2-.5 0-.7l16.3-15.6c.2-.2.5-.2.7 0 .2.2.2.5 0 .7L11 111.1c0 .2-.2.2-.3.2z"/><path d="M110.4 118.1h-92c-.3 0-.5-.2-.5-.5s.2-.5.5-.5h92c.3 0 .5.2.5.5s-.2.5-.5.5zM55.8 70.1c-.1 0-.3-.1-.4-.2-.2-.2-.2-.5 0-.7l31.9-28.6c.2-.2.5-.2.7 0 .2.2.2.5 0 .7L56.1 69.9c-.1.1-.2.2-.3.2zM67.2 70.5c-.1 0-.3-.1-.4-.2-.2-.2-.2-.5 0-.7l23.1-21.3c.2-.2.5-.2.7 0 .2.2.2.5 0 .7l-23 21.4c-.1.1-.3.1-.4.1zM35.7 98.1c-.3 0-.5-.2-.5-.5s.2-.5.5-.6l69.2-7.5c.3 0 .5.2.6.5 0 .3-.2.5-.5.6l-69.3 7.5c.1 0 0 0 0 0z"/><path d="M45.3 103.5c-.2 0-.4-.1-.5-.3l-7.9-15.3c-.1-.3 0-.6.2-.7.3-.1.6 0 .7.2l7.9 15.3c.1.3 0 .6-.2.7 0 0-.1.1-.2.1z"/><path d="M40.7 106.3c-.2 0-.3-.1-.4-.2-.2-.2-.1-.6.2-.7l9.2-5.9c.2-.2.6-.1.7.2.2.2.1.6-.2.7l-9.2 5.9h-.3zM116 97.8c-.3 0-.5-.2-.5-.5 0-.1 0-.2.1-.3 3.3-4 5.2-9.1 5.2-14.4 0-10.5-7.4-19.7-17.7-22-.3-.1-.5-.3-.4-.6.1-.3.3-.5.6-.4 5.2 1.1 9.9 4 13.2 8.1 3.4 4.2 5.3 9.5 5.3 14.9 0 5.5-1.9 10.8-5.4 15-.1.1-.2.2-.4.2zM78.4 71.6c-.1 0-.2 0-.3-.1-.2-.1-.3-.5-.2-.7 1.8-3.2 4.1-5.7 6.8-7.6 2.7-1.9 5.9-3.2 9.5-3.8.3-.1.6.1.6.4 0 .3-.1.6-.4.6-6.9 1.2-12 4.8-15.6 10.9-.1.2-.2.3-.4.3zM98.3 106.1c-8.9 0-16.9-4.9-21-12.8-.1-.3 0-.6.2-.7.3-.1.6 0 .7.2 3.9 7.6 11.6 12.3 20 12.3 3.8 0 7.5-1 10.8-2.8.3-.1.6 0 .7.2.1.3 0 .6-.2.7-3.3 1.9-7.2 2.9-11.2 2.9z"/><ellipse class="st1" cx="32.2" cy="82.9" rx="7.1" ry="7"/><path d="M34.1 88.5c-3.1 0-5.6-2.5-5.6-5.6 0-3.1 2.5-5.6 5.6-5.6 3.1 0 5.6 2.5 5.6 5.6.1 3.1-2.5 5.6-5.6 5.6zm0-10.2c-2.5 0-4.6 2.1-4.6 4.6 0 2.5 2.1 4.6 4.6 4.6s4.6-2.1 4.6-4.6c0-2.5-2-4.6-4.6-4.6z"/></g><path class="st2" d="M16.3 127.2H7.7c-2.7 0-5-2.2-5-5v-8.6c0-2.7 2.2-5 5-5h8.6c2.7 0 5 2.2 5 5v8.6c0 2.8-2.2 5-5 5zm0-13.6H7.7v8.6h8.6v-8.6zM121.6 126.3H113c-2.7 0-5-2.2-5-5v-8.6c0-2.7 2.2-5 5-5h8.6c2.7 0 5 2.2 5 5v8.6c-.1 2.8-2.3 5-5 5zm-.1-13.6h-8.6v8.6h8.6v-8.6z"/><path class="st2" d="M108.3 120H20.6c-1.4 0-2.5-1.1-2.5-2.5s1.1-2.5 2.5-2.5h87.7c1.4 0 2.5 1.1 2.5 2.5s-1.1 2.5-2.5 2.5zM34.6 99.5C25.4 99.5 18 92 18 82.9s7.5-16.6 16.6-16.6h.2l63.7 4.1c1.4.1 2.4 1.3 2.3 2.7-.1 1.4-1.3 2.4-2.7 2.3l-63.6-4.1c-6.4 0-11.6 5.2-11.6 11.6 0 6.4 5.1 11.6 11.5 11.6l69.5-7.4c1.4-.1 2.6.8 2.8 2.2.1 1.4-.8 2.6-2.2 2.8l-69.6 7.4h-.3z"/><path class="st2" d="M76.4 73.9c-.4 0-.8-.1-1.1-.3-1.2-.6-1.7-2.1-1.1-3.4 3.8-7.4 11.1-12.6 19.3-13.7 1.4-.2 2.6.7 2.8 2.1.2 1.4-.8 2.6-2.1 2.8-6.6 1-12.5 5.1-15.6 11.1-.4.9-1.3 1.4-2.2 1.4zM97.2 108.1c-9.9 0-18.8-5.5-23.2-14.4-.6-1.2-.1-2.7 1.1-3.4 1.2-.6 2.7-.1 3.4 1.1 3.6 7.1 10.7 11.6 18.7 11.6 3.8 0 7.5-1 10.7-3 2.3-1.4 4.3-3.2 6-5.4 2.7-3.6 4.2-8 4.2-12.5 0-9.8-5.6-17.7-14.2-20.1-1.3-.4-2.1-1.8-1.7-3.1.4-1.3 1.8-2.1 3.1-1.7 10.7 3 17.9 13 17.9 24.9 0 5.7-1.8 11-5.2 15.5-2 2.7-4.5 5-7.4 6.7-4.1 2.5-8.7 3.8-13.4 3.8z"/><path class="st2" d="M112.5 113.1c-1 0-2-.6-2.4-1.7l-29.9-83c-.5-1.3.2-2.7 1.5-3.2s2.7.2 3.2 1.5l29.9 83c.5 1.3-.2 2.7-1.5 3.2-.2.2-.5.2-.8.2zM121.1 112.1c-1 0-2-.6-2.4-1.7L90.2 28.2c-.5-1.3.2-2.7 1.5-3.2s2.7.2 3.2 1.5l28.5 82.2c.5 1.3-.2 2.7-1.5 3.2-.2.2-.5.2-.8.2zM10 112.3c-.7 0-1.3-.3-1.8-.8-.9-1-.9-2.6.1-3.5l16.5-15.4c1-.9 2.6-.9 3.5.1.9 1 .9 2.6-.1 3.5l-16.5 15.4c-.5.5-1.1.7-1.7.7zM19.9 117.4c-.6 0-1.2-.2-1.7-.6-1-.9-1.1-2.5-.2-3.5l15-16.8c.9-1 2.5-1.1 3.5-.2 1 .9 1.1 2.5.2 3.5l-15 16.8c-.4.5-1.1.8-1.8.8zM23.5 73c-1 0-1.9-.6-2.3-1.5L10.8 46.4c-.5-1.3.1-2.7 1.4-3.3 1.3-.5 2.7.1 3.3 1.4l10.4 25.1c.5 1.3-.1 2.7-1.4 3.3-.4.1-.7.1-1 .1zM31.8 71.2c-1 0-2-.6-2.3-1.6l-8.9-23.3c-.5-1.3.2-2.7 1.4-3.2 1.3-.5 2.7.2 3.2 1.4l8.9 23.3c.5 1.3-.2 2.7-1.4 3.2-.3.2-.6.2-.9.2z"/><path class="st2" d="M57.4 71.3c-.7 0-1.3-.3-1.8-.8-.9-1-.9-2.6.1-3.5l28.9-27.4c1-1 2.6-.9 3.5.1 1 1 .9 2.6-.1 3.5L59.1 70.6c-.5.4-1.1.7-1.7.7zM66.8 72.8c-.7 0-1.3-.3-1.8-.8-1-1-.9-2.6.1-3.5l22.1-21.1c1-1 2.6-.9 3.5.1 1 1 .9 2.6-.1 3.5L68.5 72.2c-.4.4-1.1.6-1.7.6zM28.8 47.2l-21.1-.3c-.3 0-.5-.1-.8-.1-.7-.2-4-1.7-5.2-8.4-1-5.8 3.8-8.9 7.2-9.6.3-.1.6-.1.9 0l24.7 4.7c.7.1 1.2.5 1.6 1.1 2.4 3.6 2 6.2 1.3 7.8-1.9 4.1-7.7 4.8-8.4 4.9 0-.1-.1-.1-.2-.1zM8.5 41.9l20.2.3c1.5-.2 3.8-1 4.3-2 .2-.4.1-1.2-.4-2L9.5 33.8c-1.1.3-3.3 1.3-2.9 3.8.5 2.7 1.4 3.9 1.9 4.3zM45.5 105.9c-.9 0-1.8-.5-2.3-1.4l-7.5-15.8c-.6-1.2-.1-2.7 1.2-3.3 1.2-.6 2.7-.1 3.3 1.2l7.5 15.8c.6 1.2.1 2.7-1.2 3.3-.2.1-.6.2-1 .2z"/><path class="st2" d="M40.2 109.8c-.8 0-1.6-.4-2-1.1-.8-1.1-.5-2.7.6-3.5l10-7c1.1-.8 2.7-.5 3.5.6.8 1.1.5 2.7-.6 3.5l-10 7c-.5.3-1 .5-1.5.5zM82 30.1c-3.1 0-5.8-2-6.6-4.9-.6-2.3 0-4.6 1.8-6.5 1.3-1.4 3.2-2.2 5.1-2.3l13.6-.1c2 0 3.4-.6 4.4-1.7 1.9-2.1 1.5-5.7 1.5-5.8v-.3c0-.4.1-4.1 2.8-5.9 1.2-.8 3.3-1.4 6.4-.1 5.9 2.5 6.5 9 6 12.1-1.9 12.1-12.3 15-17.6 14.8l-17 .6c-.3.1-.3.1-.4.1zm.1-2.5zm24.6-19.1c.1 1.2.3 5.9-2.7 9.4-1.9 2.2-4.7 3.3-8.1 3.4l-13.6.1c-.6 0-1.1.2-1.5.6-.9 1-.7 1.6-.7 1.8.2.7 1 1.2 1.9 1.2l17.1-.6h.2c.4 0 10.9.1 12.6-10.7 0-.2.8-5.1-3-6.7-1.1-.5-1.6-.4-1.7-.3-.2.3-.4 1.1-.5 1.8z"/><circle class="st1" cx="35.2" cy="81.7" r="9.4"/><path class="st2" d="M34.6 91.2c-4.6 0-8.3-3.7-8.3-8.3s3.7-8.3 8.3-8.3 8.3 3.7 8.3 8.3-3.7 8.3-8.3 8.3zm0-11.6c-1.8 0-3.3 1.5-3.3 3.3s1.5 3.3 3.3 3.3 3.3-1.5 3.3-3.3-1.5-3.3-3.3-3.3z"/></g></switch></svg>