<svg version="1.1" id="Layer_1" xmlns="http://www.w3.org/2000/svg" x="0" y="0" viewBox="0 0 128 128" style="enable-background:new 0 0 128 128" xml:space="preserve"><style>.st1{fill:#231f20}</style><circle cx="30.8" cy="27.3" r="13.6" style="fill:#d6b2f5"/><path class="st1" d="M32.2 39.8c-6.8 0-12.4-5.5-12.4-12.4S25.3 15 32.2 15s12.4 5.5 12.4 12.4S39 39.8 32.2 39.8zm0-20c-4.2 0-7.6 3.4-7.6 7.6S28 35 32.2 35s7.6-3.4 7.6-7.6-3.5-7.6-7.6-7.6z"/><path class="st1" d="M35 81.4c-3.2 0-5.4-2.7-5.6-3-.2-.3-.4-.7-.5-1.1l-1-5.7v-.2c-1-14.8 4.8-25.6 5-26 .1-.2.2-.3.3-.5l13.3-14.3.4-.4c5-3.3 27.4-13.3 34.7-9.7 2.9 1.5 3.6 3.4 3.6 4.7.1 3.4-3.7 5.7-4.5 6.1-.2.1-.4.2-.5.2L60 37.2c2.5 2.3 6.8 5.5 10.5 7.9 2.4-3 7.7-9.5 13.4-15.8 14.5-16 19.3-17.4 22-16.6 4 1.1 6.1 3.9 5.8 7.5-.2 2.4-1.5 4.7-3.5 6.3-2.3 1.8-6.9 5.7-11.6 11C92 43 84.7 52.9 81.1 58c8.9 1.2 23.9 3.2 27.2 3.2 2.1 0 4 .2 5.9.6 2.9.7 5.1 2.9 5.5 5.7.8 4.6-3.2 7.6-5.7 8.7-.2.1-.4.1-.5.2-11.5 1.9-34.1-2.5-35.9-2.8-1.5-.2-17.1-2.3-26.8-10-3.9-3.1-7-5-9.2-6.2L40.7 77c0 .5-.2.9-.4 1.3-1.8 2.5-3.8 3.1-5.1 3.1H35zm-1.6-5.6c.4.4 1.1.8 1.6.8.3 0 .7-.3 1-.6l.9-22.4c0-.7.4-1.4 1-1.9.6-.4 1.4-.5 2.1-.3.2.1 5.5 1.9 13.6 8.4 8.9 7.1 24.3 9 24.5 9h.2c.2 0 23 4.6 34 2.9.7-.4 3-1.7 2.7-3.5-.1-.9-.9-1.6-1.9-1.8-1.5-.3-3.1-.5-4.8-.5-4.9 0-30.6-3.7-31.7-3.8-.8-.1-1.5-.7-1.8-1.4-.3-.8-.2-1.6.2-2.3.5-.7 11.6-16.4 18.2-24 4.9-5.6 9.8-9.7 12.2-11.6 1-.8 1.6-1.8 1.7-2.9.1-.9 0-1.9-2.3-2.5-3.7 0-19.3 16.7-31.7 32.5-.8 1-2.1 1.2-3.2.5-2.3-1.5-14-9.1-16.1-13.3-.3-.6-.3-1.4 0-2 .3-.6.8-1.1 1.5-1.3l23.5-6.6c.8-.5 1.6-1.3 1.8-1.7-.1-.1-.4-.3-1-.6-4.2-2.2-23.4 5.1-29.7 9.1L37 47.8c-.8 1.6-5.1 10.9-4.4 23.1l.8 4.9zM117.7 102.1l-107.5-1c-.9 0-1.7-.5-2.1-1.2L2.5 89.4c-.4-.7-.4-1.6 0-2.4.4-.7 1.2-1.2 2-1.2h119c.8 0 1.6.4 2 1.1.4.7.5 1.6.1 2.3l-5.9 11.4c-.3 1-1.1 1.5-2 1.5zm-106-5.7 104.6.9 3.4-6.6H8.6l3.1 5.7z"/><path class="st1" d="M24.4 117.3H17c-.7 0-1.4-.3-1.9-.9-.4-.6-.6-1.3-.4-2.1l3.8-14.3c.3-1 1.2-1.8 2.3-1.8h8c.8 0 1.5.4 1.9 1 .4.6.6 1.4.4 2.1l-4.4 14.3c-.4 1-1.3 1.7-2.3 1.7zm-4.4-4.8h2.6l2.9-9.5h-2.9l-2.6 9.5zM112 117.3h-9c-1.1 0-2-.7-2.3-1.8l-3.3-13.3c-.2-.7 0-1.4.3-1.9.4-.6 1-.9 1.7-1l7.7-1c1.1-.1 2.2.5 2.6 1.6l4.7 14.3c.2.7.1 1.5-.3 2.1-.6.6-1.3 1-2.1 1zm-7.2-4.8h3.9l-3-9.3-3.1.4 2.2 8.9zM35 89.6c-1.3 0-2.4-1.1-2.4-2.4v-4.7c0-1.3 1.1-2.4 2.4-2.4 1.3 0 2.4 1.1 2.4 2.4v4.7c0 1.4-1.1 2.4-2.4 2.4zM92.1 89.6c-1.3 0-2.4-1.1-2.4-2.4v-4.7c0-1.3 1.1-2.4 2.4-2.4 1.3 0 2.4 1.1 2.4 2.4v4.7c-.1 1.4-1.1 2.4-2.4 2.4z"/></svg>