<svg version="1.1" id="Layer_1" xmlns="http://www.w3.org/2000/svg" x="0" y="0" viewBox="0 0 128 128" style="enable-background:new 0 0 128 128" xml:space="preserve"><style>.st0{fill:#d6b2f5}.st1{fill:#231f20}</style><circle class="st0" cx="15.1" cy="88.4" r="13.6"/><circle class="st0" cx="72.1" cy="16.4" r="13.6"/><path class="st1" d="M72 31c-7.2 0-13-5.8-13-13S64.8 5 72 5s13 5.8 13 13-5.8 13-13 13zm0-21c-4.4 0-8 3.6-8 8s3.6 8 8 8 8-3.6 8-8-3.6-8-8-8zM16 101c-7.2 0-13-5.8-13-13s5.8-13 13-13 13 5.8 13 13-5.8 13-13 13zm0-21c-4.4 0-8 3.6-8 8s3.6 8 8 8 8-3.6 8-8-3.6-8-8-8zM57.5 82c-1.2 0-2.3-.9-2.5-2.1-.2-1.1-4-27.3-4-35.4 0-8.1 6.7-10.9 10.3-11.2H83c.5.1 5.2 1.1 9.6 7.8C96.5 47 105 58.9 105.1 59c.8 1.1.5 2.7-.6 3.5-1.1.8-2.7.5-3.5-.6-.1-.1-8.6-12.1-12.6-18.1-2.9-4.3-5.5-5.4-6.2-5.6H61.6c-1.1.1-5.6 1-5.6 6.2 0 7.7 3.9 34.4 4 34.6.2 1.4-.7 2.6-2.1 2.8-.2.2-.3.2-.4.2z"/><path class="st1" d="M76.8 81.1c-1.8 0-3.6-.5-5.1-1.6l-11.6-8.1c-.3-.2-.5-.4-.7-.7l-6.7-10.4c-.8-1.2-.4-2.7.7-3.5 1.2-.8 2.7-.4 3.5.7l6.5 10 11.2 7.8c1.4 1 3.4 1 4.5-.1.6-.5.6-.9.6-1 0-.6-.4-1.4-.8-1.8l-13.2-7.8c-.5-.3-.9-.8-1.1-1.3l-4.4-13c-.4-1.3.3-2.7 1.6-3.2 1.3-.4 2.7.3 3.2 1.6l4 12.1 12.8 7.5c.2.1.4.2.5.4.3.3 2.5 2.6 2.4 5.7 0 1.7-.8 3.3-2.2 4.6-1.6 1.4-3.7 2.1-5.7 2.1zM93.1 63c-.8 0-1.6-.4-2.1-1l-3.4-4.6-.2 3.4c-.1 1.3-1.2 2.3-2.6 2.2-1.4-.1-2.4-1.2-2.4-2.5l.6-10.3c.1-1 .8-1.9 1.8-2.1 1-.3 2.1.1 2.7.9l7.6 10.3c.8 1.1.5 2.5-.6 3.3-.4.3-.9.4-1.4.4z"/><path class="st1" d="M106 79H87.7c-1.4 0-2.5-1.1-2.5-2.5s1.1-2.5 2.5-2.5H106c1.2 0 2.3-.7 2.7-1.7.2-.6.2-1.1-.2-1.7-.6-1-1.9-1.6-3.3-1.6H78.3c-1.4 0-2.5-1.1-2.5-2.5s1.1-2.5 2.5-2.5h26.9c3.1 0 5.9 1.5 7.5 3.9 1.3 2 1.5 4.1.7 6.3-1.2 2.9-4.1 4.8-7.4 4.8zM41.9 107.1c-6.2 0-10.2-4.8-10.4-5.1-.1-.2-.2-.3-.3-.5-2.1-4.6-2.3-8.8-.6-12.3 2.8-5.6 9.5-7.2 9.8-7.2.2 0 .4-.1.5-.1h23.8l1-2.4c.5-1.3 2-1.9 3.2-1.4 1.3.5 1.9 2 1.4 3.2l-1.6 4c-.4 1-1.3 1.6-2.3 1.6H41.3c-1 .3-4.7 1.5-6.2 4.5-1 2-.8 4.6.5 7.6.7.8 3.6 3.5 7.5 2.9h.4l72.3.1c1.7 0 3.2-.9 3.8-2.2.5-1 .4-1.8-.2-2.7-.6-.8-1.6-1.3-2.8-1.3l-38.4-2c-.8 0-1.5-.4-1.9-1-.4-.6-.6-1.4-.4-2.1l2.2-7.9c.4-1.3 1.8-2.1 3.1-1.7 1.3.4 2.1 1.8 1.7 3.1l-1.4 4.9 35.3 1.9c2.6.1 4.9 1.3 6.4 3.2 1.9 2.3 2.2 5.2.8 7.9-1.5 3.1-4.8 5.1-8.3 5.1l-72-.2c-.6.1-1.2.1-1.8.1z"/><path class="st1" d="M69.8 105.8c-.8 0-1.7-.4-2.1-1.2-.7-1.2-.4-2.7.8-3.4 1.6-1 2.5-2 2.5-2.7 0-.8-1.1-1.8-1.9-2.5H44.5c-1.4 0-2.5-1.1-2.5-2.5s1.1-2.5 2.5-2.5h25.3c.4 0 .8.1 1.2.3.5.3 4.9 2.8 5 7 .1 2.7-1.6 5.1-4.9 7.1-.4.3-.8.4-1.3.4z"/><path class="st1" d="M4.5 123.5c-1.4 0-2.5-1.1-2.5-2.5v-9.2c0-3 1.7-6.7 4.7-7.7 3.9-1.2 13-2.6 19.9 1.2.3.2.6.4.8.7l2.2 3h91.8c1.4 0 2.5 1.1 2.5 2.5v9c0 1.4-1.1 2.5-2.5 2.5s-2.5-1.1-2.5-2.5V114H28.5c-.8 0-1.5-.4-2-1l-2.7-3.5c-5-2.5-12-1.7-15.6-.6-.4.1-1.2 1.5-1.2 2.9v9.2c0 1.4-1.1 2.5-2.5 2.5z"/></svg>