<svg xmlns="http://www.w3.org/2000/svg" viewBox="0 0 128 128" style="enable-background:new 0 0 128 128" xml:space="preserve"><circle cx="96.2" cy="81.7" r="30.3" style="fill:#d6b2f5"/><path d="M14.1 66.5h-.2c-.7-.1-1.3-.4-1.7-.9L2.6 54.1c-.9-1-.8-2.6.3-3.5l52.5-46c.9-.8 2.3-.8 3.3 0l51.5 44c1 .9 1.2 2.5.3 3.5s-2.5 1.2-3.5.3L57 9.8l-49 43 6.4 7.7 41-34.6c.9-.8 2.3-.8 3.3 0l24.5 21.7c1 .9 1.1 2.5.2 3.5-.9 1-2.5 1.1-3.5.2L57 31.1 15.7 65.9c-.4.4-1 .6-1.6.6z"/><path d="M93.5 37.7c-1.4 0-2.5-1.1-2.5-2.5V24.5c0-1.3 1-2.4 2.3-2.5l2.5-.2V17H75v1.4c0 1.4-1.1 2.5-2.5 2.5S70 19.8 70 18.4v-3.9c0-1.4 1.1-2.5 2.5-2.5h25.8c1.4 0 2.5 1.1 2.5 2.5v9.6c0 1.3-1 2.4-2.3 2.5l-2.5.2v8.4c0 1.4-1.1 2.5-2.5 2.5zM76.2 109.9H18.4c-1.4 0-2.5-1.1-2.5-2.5v-47c0-1.4 1.1-2.5 2.5-2.5s2.5 1.1 2.5 2.5v44.5h55.3c1.4 0 2.5 1.1 2.5 2.5s-1.1 2.5-2.5 2.5z"/><path d="M62 92H42.5c-.7 0-1.3-.3-1.8-.7-.5-.5-.7-1.1-.7-1.8l.3-28c0-1.4 1.1-2.5 2.5-2.5h25.7c1.4 0 2.5 1.1 2.5 2.5S69.9 64 68.5 64H45.2L45 87h17c1.4 0 2.5 1.1 2.5 2.5S63.4 92 62 92z"/><path d="M57 92c-1.4 0-2.5-1.1-2.5-2.5V62.7c0-1.4 1.1-2.5 2.5-2.5s2.5 1.1 2.5 2.5v26.8c0 1.4-1.1 2.5-2.5 2.5z"/><path d="M62 78H42.6c-1.4 0-2.5-1.1-2.5-2.5s1.1-2.5 2.5-2.5H62c1.4 0 2.5 1.1 2.5 2.5S63.4 78 62 78zM94.5 111C78.2 111 65 97.8 65 81.5S78.2 52 94.5 52 124 65.2 124 81.5 110.8 111 94.5 111zm0-54C81 57 70 68 70 81.5S81 106 94.5 106 119 95 119 81.5 108 57 94.5 57z"/><path d="M87.5 77c-.6 0-1.3-.2-1.8-.7l-8.5-8.5c-1-1-1-2.6 0-3.5s2.6-1 3.5 0l8.5 8.5c1 1 1 2.6 0 3.5-.4.5-1.1.7-1.7.7zM106.5 99.5c-1.5 0-3.1-.6-4.2-1.8l-6.5-6.5c-1-1-1-2.6 0-3.5l5-5c1-1 2.6-1 3.5 0l6.5 6.5c2.3 2.3 2.3 6.1 0 8.5-1.2 1.2-2.8 1.8-4.3 1.8zm-5.5-10 4.8 4.8c.4.4 1 .4 1.4 0 .4-.4.4-1.1 0-1.5l-4.8-4.8-1.4 1.5z"/><path d="M84 96.8c-1.5 0-2.6-.5-3.3-1-2.6-1.9-2.7-5.7-2.7-6.1 0-.7.3-1.3.7-1.8l14.1-14.2c-.5-4.2 1.4-7 1.7-7.3 0-.1.1-.1.1-.2 5.2-5.9 11.4-3.6 13.9-1.7.8.6 1.1 1.6.9 2.6-.3 1-1.1 1.7-2 1.8-1.6.2-2.8.9-3.3 1.9-.3.6-.4 1.1-.4 1.5 1 .1 3.1-.1 5-.4.9-.2 1.8.2 2.4.9.6.7.7 1.7.3 2.5-1.5 3.5-3.6 5.6-6.2 6.3-1.6.4-3 .2-4.1-.2L87.3 95.8c-.3.3-.7.5-1.1.7-.8.2-1.6.3-2.2.3zm-.9-6.3c.1.5.3 1 .5 1.2.1.1.3.1.5 0l14.5-15c.3-.4.8-.6 1.2-.7-1.2-1.2-1.6-3.3-1.1-5.5.2-.8.5-1.6.9-2.3-.4.3-.9.7-1.3 1.1-.2.3-1.1 2-.5 4.5.2.8 0 1.7-.7 2.4l-14 14.3zm20.6-17.7z"/></svg>