<svg version="1.1" id="Layer_1" xmlns="http://www.w3.org/2000/svg" x="0" y="0" viewBox="0 0 128 128" xml:space="preserve"><style>.st1{fill:#231f20}</style><switch><g><ellipse cx="98.3" cy="23" rx="9.5" ry="9.4" fill="#d6b2f5"/><path class="st1" d="M9.3 56.1c-.2 0-.4 0-.6-.1-.7-.2-1.2-.6-1.6-1.2L.6 43.4c-.6-1.2-.3-2.7.9-3.4L51.4 8.6c2.6-2.1 8.9-4.4 15.3.6l20.4 13.3c1.2.8 1.5 2.3.7 3.5s-2.3 1.5-3.5.7L63.9 13.4c-.1 0-.1-.1-.2-.1-5.1-4-9.1-.8-9.2-.7-.1.1-.2.1-.3.2L6.2 43l4 7 47.7-30.3c.9-.6 2-.5 2.8.1l27.2 19.7c1.1.8 1.4 2.4.6 3.5-.8 1.1-2.4 1.4-3.5.6L59.1 24.9 10.6 55.7c-.4.2-.8.4-1.3.4z"/><path class="st1" d="M22 31.5c-1.4 0-2.5-1.1-2.5-2.5V10c0-1.4 1.1-2.5 2.5-2.5h15.9c1.4 0 2.5 1.1 2.5 2.5v7.1c0 1.4-1.1 2.5-2.5 2.5s-2.5-1.1-2.5-2.5v-4.6H24.5V29c0 1.4-1.2 2.5-2.5 2.5zM58.4 80.7H30.9c-1.4 0-2.5-1.1-2.5-2.5V55c0-1.4 1.1-2.5 2.5-2.5h27.4c1.4 0 2.5 1.1 2.5 2.5v23.2c.1 1.4-1.1 2.5-2.4 2.5zm-25-5h22.4V57.5H33.4v18.2zM125.3 113.4H68.4c-1.4 0-2.5-1.1-2.5-2.5V77.2c0-1.4 1.1-2.5 2.5-2.5h56.9c1.4 0 2.5 1.1 2.5 2.5V111c0 1.3-1.1 2.4-2.5 2.4zm-54.4-5h51.9V79.7H70.9v28.7z"/><path class="st1" d="M70.1 79.7c-.6 0-1.3-.2-1.8-.7-1-1-1-2.6 0-3.5L85 58.6c.5-.5 1.1-.7 1.8-.7h20.6c.7 0 1.3.3 1.8.7l17 16.8c1 1 1 2.6 0 3.5-1 1-2.6 1-3.5 0l-16.2-16.1H87.8l-15.9 16c-.5.6-1.2.9-1.8.9z"/><path class="st1" d="M109.4 61.9h-23c-1.4 0-2.5-1.1-2.5-2.5V19.9c0-7.7 6.3-14 14-14s14 6.3 14 14v39.5c0 1.3-1.1 2.5-2.5 2.5zm-20.5-5h18v-37c0-5-4-9-9-9s-9 4-9 9v37z"/><path class="st1" d="M97.9 31.2c-3.6 0-6.6-3-6.6-6.6s3-6.6 6.6-6.6c3.6 0 6.6 3 6.6 6.6s-3 6.6-6.6 6.6zm0-8.2c-.9 0-1.6.7-1.6 1.6s.7 1.6 1.6 1.6 1.6-.7 1.6-1.6-.7-1.6-1.6-1.6zM17.6 111.9c-1.4 0-2.5-1.1-2.5-2.5V49.5c0-1.4 1.1-2.5 2.5-2.5s2.5 1.1 2.5 2.5v59.8c0 1.5-1.1 2.6-2.5 2.6zM59.2 103.5H28.9c-1.4 0-2.5-1.1-2.5-2.5s1.1-2.5 2.5-2.5h30.3c1.4 0 2.5 1.1 2.5 2.5s-1.1 2.5-2.5 2.5z"/><path class="st1" d="M111.9 126.1H4.8c-.8 0-1.6-.4-2.1-1.1-.5-.7-.6-1.5-.3-2.3l5-12.7c.4-1 1.3-1.6 2.3-1.6h55.8c1.4 0 2.5 1.1 2.5 2.5s-1.1 2.5-2.5 2.5h-54l-3 7.7h99.8l-3.4-8.8c-.5-1.3.1-2.7 1.4-3.2 1.3-.5 2.7.1 3.2 1.4l4.7 12.2c.3.8.2 1.6-.3 2.3-.4.7-1.2 1.1-2 1.1z"/><path class="st1" d="M80.1 111.9c-1.4 0-2.5-1.1-2.5-2.5V95.2c0-1.4 1.1-2.5 2.5-2.5s2.5 1.1 2.5 2.5v14.2c0 1.4-1.1 2.5-2.5 2.5zM88.5 96.5c-1.4 0-2.5-1.1-2.5-2.5V79.5c0-1.4 1.1-2.5 2.5-2.5s2.5 1.1 2.5 2.5V94c0 1.4-1.1 2.5-2.5 2.5zM107.2 111.9c-1.4 0-2.5-1.1-2.5-2.5V95.1c0-1.4 1.1-2.5 2.5-2.5s2.5 1.1 2.5 2.5v14.3c0 1.4-1.1 2.5-2.5 2.5z"/></g></switch></svg>