<svg version="1.1" id="Layer_1" xmlns="http://www.w3.org/2000/svg" x="0" y="0" viewBox="0 0 128 128" style="enable-background:new 0 0 128 128" xml:space="preserve"><style>.st0{fill:#d6b2f5}.st1{fill:#231f20}</style><circle class="st0" cx="28.6" cy="90" r="12.8"/><circle class="st0" cx="101.6" cy="89" r="12.8"/><circle class="st0" cx="65.1" cy="78.8" r="10.3"/><path class="st1" d="M21.9 47.6c-.6 0-1.2-.2-1.7-.7L8 34.7c-.4-.4-.7-1-.7-1.7 0-.6.3-1.2.7-1.7l20.4-19.6c.9-.9 2.4-.9 3.3 0l11.5 11.4c.9.9.9 2.4 0 3.3L23.6 46.9c-.5.4-1.1.7-1.7.7zM13 33l8.9 8.9 16.4-17-8.3-8.2L13 33zM71.4 73.6s-.1 0 0 0c-1.3 0-2.4-1.1-2.3-2.4.1-2.6 0-4.7-.2-6.6-.1-.6-.1-1.2-.2-1.7-.7-4.6-4.2-6.2-4.9-6.5L52.5 54l13 11.2c.3.3.6.7.7 1.1.1.5.3 1 .3 1.4.2 1.3-.6 2.5-1.9 2.7-1.3.2-2.5-.6-2.7-1.9 0-.1 0-.2-.1-.3L42.6 51.6c-.8-.7-1-1.9-.6-2.8.5-1 1.5-1.5 2.6-1.2l20.3 4.3c.1 0 .2 0 .3.1.3.1 7 2.4 8.2 10.3.1.6.2 1.3.2 1.9.2 2 .3 4.4.2 7.1-.1 1.3-1.2 2.3-2.4 2.3z"/><path class="st1" d="M77.7 83.3c-.9 0-1.8-.1-2.7-.5-.8-.3-1.7-.7-2.5-1.1-1.1-.6-1.5-2.1-.9-3.2s2.1-1.5 3.2-.9c.6.3 1.2.6 1.7.8 1.6.5 2.5.2 3.2-1V48.5L55.2 33l-17-1.4c-1.3-.1-2.2-1.2-2.1-2.5.1-1.3 1.2-2.2 2.5-2.1l17.6 1.4c.4 0 .8.2 1.1.4l25.9 16.5c.7.4 1.1 1.2 1.1 2v30.6c0 .3-.1.7-.2 1-1.4 2.8-3.6 4.4-6.4 4.4zM55.1 79c-.8 0-1.2-.1-1.2-.1-.4 0-.8-.2-1.1-.4 0 0-1-.7-2.7-1.9-2.5-1.7-11-7.7-17-12.2-8-6-11.4-18.1-11.5-18.6-.3-1.2.4-2.5 1.6-2.9 1.2-.3 2.5.4 2.9 1.6 0 .1 3.1 11 9.8 16.1C41.8 65 50.3 71 52.8 72.7c1 .7 1.7 1.2 2.2 1.5h.2c1.3 0 2.3 1.1 2.3 2.4-.1 1.3-1.1 2.4-2.4 2.4z"/><path class="st1" d="M95.8 79.2c-2.7 0-5.4-1.1-7.5-3.1l-8.1-7.7c-.9-.9-1-2.4-.1-3.3.9-.9 2.4-1 3.3-.1l8.1 7.7c1.4 1.3 3.3 2 5 1.7 1.6-.2 2-1 2.2-1.8.3-1.2-.1-2.6-1-3.7L80.5 49.1c-.8-1-.7-2.5.2-3.3 1-.8 2.5-.7 3.3.2l17.3 19.9c1.9 2.3 2.7 5.2 2 7.9-.7 2.9-2.9 4.8-6 5.2-.5.2-1 .2-1.5.2zM94.2 23.7H73.8c-1.3 0-2.3-1-2.3-2.3s1-2.3 2.3-2.3h20.4c1.3 0 2.3 1 2.3 2.3s-1 2.3-2.3 2.3zM94.2 31.7H73.8c-1.3 0-2.3-1-2.3-2.3s1-2.3 2.3-2.3h20.4c1.3 0 2.3 1 2.3 2.3s-1 2.3-2.3 2.3zM87.6 38.1H73.8c-1.3 0-2.3-1-2.3-2.3s1-2.3 2.3-2.3h13.8c1.3 0 2.3 1 2.3 2.3s-1 2.3-2.3 2.3z"/><path class="st1" d="M94.2 38.1h-2.6c-1.3 0-2.3-1-2.3-2.3s1-2.3 2.3-2.3h2.6c1.3 0 2.3 1 2.3 2.3s-1 2.3-2.3 2.3zM104.7 25.6c-.1 0-.1 0 0 0-.7 0-1.3-.3-1.8-.8l-4.4-5.1c-.8-1-.8-2.5.2-3.3 1-.8 2.5-.8 3.3.2l2.8 3.2 14.1-14.1c.9-.9 2.4-.9 3.3 0 .9.9.9 2.4 0 3.3l-15.9 15.9c-.4.4-1 .7-1.6.7zM104.2 41.5c-3.1 0-5.6-2.5-5.6-5.6s2.5-5.6 5.6-5.6 5.6 2.5 5.6 5.6-2.5 5.6-5.6 5.6zm0-6.6c-.5 0-.9.4-.9.9s.4.9.9.9.9-.4.9-.9-.4-.9-.9-.9zM64.4 89.2c-6.4 0-11.7-5.2-11.7-11.7v-1c.1-1.2 1.1-2.2 2.3-2.2h.1c1.1 0 4.7 0 6.2-1.8.7-.9.9-2.1.5-3.8-.1-.6 0-1.3.4-1.8s1-.9 1.6-.9h.5c3.3 0 6.5 1.4 8.7 3.9 1.9 2.2 3 4.9 3 7.8 0 .9-.1 1.8-.3 2.7-1.1 5.1-5.8 8.8-11.3 8.8zm-6.9-10.3c.6 3.2 3.5 5.7 6.9 5.7 3.3 0 6.1-2.2 6.8-5.4.1-.5.2-1.1.2-1.6 0-1.7-.6-3.4-1.8-4.7-.8-.9-1.8-1.6-2.9-1.9-.1 1.8-.7 3.3-1.8 4.6-1.9 2.2-4.9 3-7.4 3.3z"/><path class="st1" d="M82.2 108.4H43.8c-1.3 0-2.3-1-2.3-2.3 0-11.9 9.7-21.5 21.5-21.5 11.9 0 21.5 9.7 21.5 21.5.1 1.3-1 2.3-2.3 2.3zm-35.8-4.7h33.4c-1.1-8.2-8.2-14.5-16.7-14.5s-15.6 6.3-16.7 14.5z"/><path class="st1" d="M63.9 101.4c-.6 0-1.3-.2-1.7-.6l-9.6-8.3c-.9-.8-.9-2 .1-2.7.9-.7 2.4-.7 3.3.1l8 6.9 8.2-6.9c.9-.8 2.4-.8 3.3 0 .9.8.9 2 0 2.7l-9.9 8.3c-.5.3-1.1.5-1.7.5zM101.9 102.3c-6.4 0-11.7-5.2-11.7-11.7 0-6.4 5.2-11.7 11.7-11.7 6.4 0 11.7 5.2 11.7 11.7 0 6.5-5.3 11.7-11.7 11.7zm0-18.7c-3.9 0-7 3.1-7 7s3.1 7 7 7 7-3.1 7-7c0-3.8-3.2-7-7-7z"/><path class="st1" d="M119.6 121.5H81.3c-1.3 0-2.3-1-2.3-2.3 0-11.9 9.7-21.5 21.5-21.5s21.5 9.7 21.5 21.5c0 1.3-1.1 2.3-2.4 2.3zm-35.8-4.7h33.4c-1.1-8.2-8.2-14.5-16.7-14.5s-15.6 6.3-16.7 14.5z"/><path class="st1" d="M101.3 114.5c-.6 0-1.3-.2-1.7-.6L90 105c-.9-.8-.9-2.1.1-2.9.9-.8 2.4-.8 3.3.1l8 7.4 8.2-7.4c.9-.8 2.4-.8 3.3 0 .9.8.9 2.1 0 2.9L103 114c-.5.2-1.1.5-1.7.5zM27 101.4c-6.4 0-11.7-5.2-11.7-11.7S20.6 78 27 78s11.7 5.2 11.7 11.7-5.2 11.7-11.7 11.7zm0-18.7c-3.9 0-7 3.1-7 7s3.1 7 7 7 7-3.1 7-7-3.1-7-7-7z"/><path class="st1" d="M44.8 120.6H6.4c-1.3 0-2.3-1-2.3-2.3 0-11.9 9.7-21.5 21.5-21.5s21.5 9.7 21.5 21.5c0 1.2-1 2.3-2.3 2.3zm-35.9-4.7h33.4c-1.1-8.2-8.2-14.5-16.7-14.5s-15.5 6.3-16.7 14.5z"/><path class="st1" d="M26.5 113.5s-.1 0 0 0c-.6 0-1.3-.3-1.7-.7l-9.6-10c-.9-.9-.9-2.4.1-3.3.9-.9 2.4-.9 3.3.1l8 8.3 8.2-8.3c.9-.9 2.4-.9 3.3 0 .9.9.9 2.4 0 3.3l-9.9 10c-.5.4-1.1.6-1.7.6z"/></svg>