<svg version="1.1" id="Layer_1" xmlns="http://www.w3.org/2000/svg" x="0" y="0" viewBox="0 0 128 128" style="enable-background:new 0 0 128 128" xml:space="preserve"><style>.st1{fill:#1d262d}</style><ellipse cx="65.3" cy="54.5" rx="16.6" ry="16.5" style="fill:#d6b2f5"/><path class="st1" d="M113.4 115.7H15.6c-7.5 0-13.6-6.1-13.6-13.6V93c0-1.5 1.2-2.8 2.8-2.8h40.9c1.5 0 2.8 1.2 2.8 2.8s-1.2 2.8-2.8 2.8H7.5v6.3c0 4.4 3.6 8 8 8h97.9c4.4 0 8-3.6 8-8v-6.3H86.6c-1.5 0-2.8-1.2-2.8-2.8s1.2-2.8 2.8-2.8h37.6c1.5 0 2.8 1.2 2.8 2.8v9.1c0 7.5-6.1 13.6-13.6 13.6z"/><path class="st1" d="M80.7 105.7H51.6c-4.8 0-8.7-3.9-8.7-8.7v-4c0-1.5 1.2-2.8 2.8-2.8s2.8 1.2 2.8 2.8v4.1c0 1.7 1.4 3.1 3.1 3.1h29.2c1.7 0 3.1-1.4 3.1-3.1V93c0-1.5 1.2-2.8 2.8-2.8s2.8 1.2 2.8 2.8v4.1c-.1 4.7-4 8.6-8.8 8.6z"/><path class="st1" d="M115.8 94.5H12.2V27.7c0-5.6 4.6-10.2 10.2-10.2h46.3c1.4 0 2.5 1.1 2.5 2.5s-1.1 2.5-2.5 2.5H22.4c-2.9 0-5.2 2.4-5.2 5.2v61.8h93.7V55.4c0-1.4 1.1-2.5 2.5-2.5s2.5 1.1 2.5 2.5v39.1z"/><path class="st1" d="M60 50h8v8h-8zM72 49h10v10H72zM63 36h10v10H63zM73 14h14v14H73zM89 21h14v14H89zM105 4h20v20h-20zM106 32h18v18h-18zM76 33h10v10H76zM91 6h10v10H91zM88 42h14v14H88z"/></svg>