<svg version="1.1" id="Layer_1" xmlns="http://www.w3.org/2000/svg" x="0" y="0" viewBox="0 0 128 128" style="enable-background:new 0 0 128 128" xml:space="preserve"><style>.st0{fill:#d6b2f5}</style><circle class="st0" cx="93.6" cy="75.7" r="15.7"/><circle class="st0" cx="28.6" cy="46.7" r="14.4"/><path d="M82 109H8V23h74v31.3h-5V28H13v76h64v-5h5z"/><path d="M91 49.9h-5V19H21v6.5h-5V14h75z"/><path d="M93.8 109c-.2 0-.5 0-.7-.1-.3-.1-33.2-10-29.6-50.6.1-1.2 1-2.1 2.2-2.3.2 0 19.1-2.1 26.5-12 .4-.6 1.1-.9 1.8-1 .7-.1 1.4.2 1.9.6.1.1 14.6 13.2 25.3 12.3 1.3-.1 2.5.8 2.7 2.1.1.4 5.4 40.3-29.5 50.8-.2.2-.4.2-.6.2zM68.3 60.7c-1.9 31.8 21.2 41.6 25.4 43.1 25.7-8.2 25.9-35 25.4-42.9-9.8-.5-20.3-8.4-24.6-12-7.6 8.2-21 11-26.2 11.8z"/><path d="M93.5 89C86.1 89 80 82.9 80 75.5S86.1 62 93.5 62 107 68.1 107 75.5 100.9 89 93.5 89zm0-22c-4.7 0-8.5 3.8-8.5 8.5s3.8 8.5 8.5 8.5 8.5-3.8 8.5-8.5-3.8-8.5-8.5-8.5z"/><path d="M88.5 73H99v5H88.5z"/><path d="M91.2 70.2h5v10.5h-5zM29.8 59c-6.7 0-12.2-5.5-12.2-12.2s5.5-12.2 12.2-12.2S42 40 42 46.8 36.5 59 29.8 59zm0-19.9c-4.2 0-7.7 3.4-7.7 7.7s3.4 7.7 7.7 7.7 7.7-3.4 7.7-7.7-3.5-7.7-7.7-7.7z"/><path d="M25.3 44.5h9.5V49h-9.5z"/><path d="M27.8 42h4.5v9.5h-4.5zM70.5 40.9H45c-1.4 0-2.5-1.1-2.5-2.5s1.1-2.5 2.5-2.5h25.5c1.4 0 2.5 1.1 2.5 2.5s-1.2 2.5-2.5 2.5zM70.5 49.3H46.4c-1.4 0-2.5-1.1-2.5-2.5s1.1-2.5 2.5-2.5h24.1c1.4 0 2.5 1.1 2.5 2.5s-1.2 2.5-2.5 2.5zM60.6 57.8H47c-1.4 0-2.5-1.1-2.5-2.5s1.1-2.5 2.5-2.5h13.6c1.4 0 2.5 1.1 2.5 2.5s-1.1 2.5-2.5 2.5zM58.4 68.5H19.8c-1.4 0-2.5-1.1-2.5-2.5s1.1-2.5 2.5-2.5h38.6c1.4 0 2.5 1.1 2.5 2.5s-1.1 2.5-2.5 2.5zM34.3 78H19.8c-1.4 0-2.5-1.1-2.5-2.5s1.1-2.5 2.5-2.5h14.5c1.4 0 2.5 1.1 2.5 2.5S35.7 78 34.3 78zM60.6 78H41.8c-1.4 0-2.5-1.1-2.5-2.5s1.1-2.5 2.5-2.5h18.8c1.4 0 2.5 1.1 2.5 2.5S62 78 60.6 78zM31.2 87H19.5c-1.4 0-2.5-1.1-2.5-2.5s1.1-2.5 2.5-2.5h11.7c1.4 0 2.5 1.1 2.5 2.5S32.6 87 31.2 87zM61.7 87H37.5c-1.4 0-2.5-1.1-2.5-2.5s1.1-2.5 2.5-2.5h24.2c1.4 0 2.5 1.1 2.5 2.5S63.1 87 61.7 87zM49.1 97H19.5c-1.4 0-2.5-1.1-2.5-2.5s1.1-2.5 2.5-2.5h29.6c1.4 0 2.5 1.1 2.5 2.5S50.5 97 49.1 97z"/><g><path d="M68.4 97H56.3c-1.4 0-2.5-1.1-2.5-2.5s1.1-2.5 2.5-2.5h12.1c1.4 0 2.5 1.1 2.5 2.5S69.8 97 68.4 97z"/></g></svg>