<svg version="1.1" id="Layer_1" xmlns="http://www.w3.org/2000/svg" x="0" y="0" viewBox="0 0 128 128" style="enable-background:new 0 0 128 128" xml:space="preserve"><style>.st1{fill:#231f20}</style><circle cx="71" cy="19.5" r="13" style="fill:#d6b2f5"/><path class="st1" d="M70.8 33.8c-6.6 0-12.1-5.4-12.1-12.1s5.5-12 12.1-12 12.1 5.4 12.1 12.1-5.4 12-12.1 12zm0-18.9C67 14.9 64 18 64 21.7s3.1 6.8 6.8 6.8c3.8 0 6.8-3.1 6.8-6.8s-3-6.8-6.8-6.8z"/><path class="st1" d="M58.8 68.9c-.5 0-1-.1-1.4-.4l-13.6-8.4c-.8-.5-1.3-1.5-1.2-2.4l.6-7.1-6.6 10.5c-.2.4-.5.7-.9.9-.4.2-4.1 2.3-7.3.7-1.3-.6-3-2.1-3.6-5.4-.1-.6 0-1.2.3-1.7l9.4-16.8c.3-.6.8-1 1.4-1.2l17.8-6.3c.1 0 .2-.1.3-.1.8-.2 8.4-1.6 12.9 2.6 2.6 2.4 3.5 6.1 2.8 10.8 0 .2-.1.4-.1.5l-8.4 22c-.3.7-.9 1.3-1.6 1.5-.3.3-.5.3-.8.3zM47.9 56.5l9.6 5.9 7.2-18.8c.4-2.8 0-4.8-1.3-5.9-2.1-2-6.4-1.7-8.1-1.4l-16.7 5.9-8.4 15c.1.4.3.6.5.7.4.2 1.3 0 1.9-.3L39.8 46c.3-.4.6-.7 1-1l4.2-2c.8-.4 1.9-.4 2.6.2.8.5 1.2 1.4 1.1 2.4l-.8 10.9zM76.4 80.4c-2.4 0-4.6-1-5.2-1.3-.5-.2-.8-.6-1.1-1l-6.6-11.5c-.4-.7-.4-1.5-.2-2.2l3.4-9.4c.3-.9 1.2-1.6 2.2-1.7 1-.1 2 .4 2.5 1.2L82 71.2c.2.3.3.7.4 1.1.4 3.4-.4 5.8-2.3 7.1-1.2.8-2.4 1-3.7 1zm-2.2-5.7c1.2.5 2.4.6 2.8.4 0 0 .3-.4.2-1.7l-7.3-11.7-1.2 3.3 5.5 9.7zM54 113.6c-4.3 0-7.7-3.2-8.1-3.6-.5-.5-.8-1.2-.8-1.9V92.6l-.3.6c-.1.1-.1.2-.2.4L31 112.4c-.4.6-1.1 1-1.9 1.1-4.9.4-8.3-.7-10-3.3-2.7-4-.2-9.3.1-9.9 0-.1.1-.2.1-.3l11.4-17.6 5.4-14.9c.5-1.4 2-2.1 3.4-1.6s2.1 2 1.6 3.4l-5.5 15.2c-.1.2-.2.4-.3.5l-11.4 17.7c-.5 1-1.2 3.4-.4 4.5.5.8 2 1.2 4.1 1.1l12.8-17.7 3.1-6.1c.5-.9 1.5-1.5 2.5-1.4 1.1.1 2 .8 2.3 1.8l2.1 6.3c.1.3.1.5.1.8v14.9c1 .7 2.5 1.6 4 1.4.9-.1 1.8-.6 2.6-1.6V87.4L54 79.8c-.5-1.4.1-2.9 1.5-3.4 1.3-.5 2.9.1 3.4 1.5L62 86c.1.3.2.6.2.9v20.7c0 .5-.2 1.1-.5 1.5-2.3 3.4-5 4.3-6.9 4.4-.3.1-.5.1-.8.1z"/><path class="st1" d="M95.5 100.4c-.5 0-1-.1-1.4-.4L36.7 63c-1.2-.8-1.6-2.4-.8-3.6s2.4-1.6 3.6-.8l57.4 37c1.2.8 1.6 2.4.8 3.6-.5.7-1.4 1.2-2.2 1.2zM22.9 66.6c-2.6 0-5.2-1.4-5.8-1.7-.2-.1-.3-.2-.4-.3L3.4 52.9c-1-.9-1.2-2.4-.4-3.5l7-9.3c.8-1.1 2.4-1.4 3.5-.6l14.2 9.3c1.2.8 1.5 2.4.8 3.6-.8 1.2-2.4 1.5-3.6.8l-12.1-7.9-4 5.4L20 60.6c1.1.6 2.5 1 3.1.9.6-1.2 2.1-1.7 3.4-1.2 1.3.6 1.9 2.2 1.3 3.5-.6 1.3-1.6 2.2-3 2.6-.7.2-1.3.2-1.9.2z"/><path class="st1" d="M116.9 106.9h-5.2c0-4.3-3.5-7.9-7.9-7.9s-7.9 3.5-7.9 7.9h-5.2c0-7.2 5.9-13.1 13.1-13.1 7.3 0 13.1 5.9 13.1 13.1z"/><path class="st1" d="M116.6 103.5v-7.1l-2.3 3.6zM111.2 96.4s-3.1-6-5.2-6v6h5.2zM103.8 94.3s-6.6-2-8.6-.9l2.9 3 5.7-2.1zM95.3 98.3s-5.7 2.6-7 5.2l5.6-1.8 1.4-3.4zM78.2 85.3c-.5 0-1.1-.2-1.5-.5-1.2-.9-1.4-2.5-.6-3.7l3.1-4.3c.9-1.2 2.5-1.4 3.7-.6 1.2.9 1.4 2.5.6 3.7l-3.1 4.3c-.6.7-1.4 1.1-2.2 1.1zM96.2 85.2c-.7 0-1.3-.3-1.8-.9l-3-4.1c-.7-1-.5-2.3.5-3 1-.7 2.3-.5 3 .5l3 4.1c.7 1 .5 2.3-.5 3-.3.2-.8.4-1.2.4zM106.2 86.5c-.8 0-1.6-.5-1.8-1.4l-1.2-4.5c-.3-1 .3-2 1.3-2.2 1-.2 2 .3 2.2 1.3l1.2 4.5c.3 1-.3 2-1.3 2.2-.1.1-.2.1-.4.1zM115.9 90.8c-1.1 0-1.9-.9-1.9-1.9V86c0-1.1.9-1.9 1.9-1.9 1.1 0 1.9.9 1.9 1.9v2.8c0 1.2-.8 2-1.9 2zM123.2 99.5c-1 0-1.8-.8-1.8-1.8s.8-1.8 1.8-1.8 1.8.8 1.8 1.8-.8 1.8-1.8 1.8zM98.6 107.2c0-3.2 2.6-5.8 5.8-5.8s5.8 2.5 5.8 5.7v.1"/></svg>