<?xml version="1.0" encoding="utf-8"?>
<!-- Generator: Adobe Illustrator 24.3.0, SVG Export Plug-In . SVG Version: 6.00 Build 0)  -->
<svg version="1.1" id="Layer_1" xmlns="http://www.w3.org/2000/svg" xmlns:xlink="http://www.w3.org/1999/xlink" x="0px" y="0px"
	 viewBox="0 0 128 128" style="enable-background:new 0 0 128 128;" xml:space="preserve">
<style type="text/css">
	.st0{fill:#D6B2F5;}
	.st1{fill:#231F20;}
</style>
<g>
	<circle class="st0" cx="28.8" cy="95.3" r="9.8"/>
	<circle class="st0" cx="61.8" cy="95.3" r="9.8"/>
	<circle class="st0" cx="104" cy="17.8" r="9.8"/>
	<g>
		<path class="st1" d="M103.8,10c-5,0-9.1,4.1-9.1,9.1c0,5,4.1,9.1,9.1,9.1c5,0,9.1-4.1,9.1-9.1C112.9,14.1,108.8,10,103.8,10z
			 M103.8,23.4c-2.4,0-4.3-1.9-4.3-4.3s1.9-4.3,4.3-4.3c2.4,0,4.3,1.9,4.3,4.3S106.2,23.4,103.8,23.4z"/>
	</g>
	<g>
		<path class="st1" d="M103.3,29.2c-5.8,0-10.6,4.7-10.6,10.6v13.9c0,0.1,0,0.2,0,0.4c0,0.2,0.1,0.3,0.1,0.5
			c0.3,0.9,1.2,1.5,2.2,1.5h16.3c1.3,0,2.4-1.1,2.4-2.4V39.8C113.9,34,109.2,29.2,103.3,29.2z M109.1,40.1c0,0.1,0,0.2,0,0.2v10.9
			H97.6V39.8c0-2,1-3.8,2.6-4.8c0.9-0.6,2-1,3.2-1c3.2,0,5.8,2.6,5.8,5.8V40.1z"/>
	</g>
	<g>
		<path class="st1" d="M112.8,65.5c-0.9,1.5-2,2.6-3.1,3.3l-0.6,2l-3.9,13.5l-2.6,8.9l-1.3,4.4c0,0.3-0.1,0.6-0.1,1
			c-0.2,1.4-0.5,2.6-0.9,3.6c-0.1,0.4-0.3,0.8-0.5,1.2c-1.3,2.4-3.9,3.9-6.7,3.9c-0.3,0-0.6,0-0.9-0.1c-3.3-0.4-5.6-1.7-7-3.7
			c0,0-0.1-0.1-0.1-0.1c-1.1-1.8-1.2-3.7-1.1-4.8c0-0.6,0.2-1,0.2-1.1l8.6-36.2v-5.6c0-0.3,0.1-0.6,0.2-0.9c0.1-0.3,0.3-0.5,0.5-0.8
			c0.4-0.4,0.8-0.7,1.4-0.7c0.1,0,0.2,0,0.4,0c1.3,0,2.4,1.1,2.4,2.4v5.9c0,0.2,0,0.4-0.1,0.6l-8.6,36.5l0,0.1
			c0,0.1-0.3,1.3,0.4,2.2c0.7,1,2.3,1.4,3.6,1.6c1.3,0.2,2.5-0.6,3-1.8c0.2-0.6,0.4-1.3,0.5-2.1c0.1-0.5,0.2-1.1,0.3-1.7
			c0-0.1,0-0.2,0.1-0.4l8.6-29.8c0.2-0.7,0.7-1.3,1.4-1.5c0.4-0.2,4.1-2.1,2.9-8.8c-0.1-0.5-0.2-1.1-0.4-1.8c-0.3-1.3,0.4-2.6,1.7-3
			c1.3-0.3,2.6,0.4,3,1.7c0,0.1,0.1,0.2,0.1,0.4C115.3,58.9,114.4,62.9,112.8,65.5z"/>
	</g>
	<g>
		<path class="st1" d="M120.1,103.2c-0.9,2.2-2.8,3.7-5.5,4c-0.4,0-0.8,0.1-1.2,0.1c-3.1,0-5.9-1.6-7.7-4.1c-0.7-1-1.2-2.1-1.5-3.3
			l-0.4-1.5l-1.3-5.3v0l-1.6-6.8c-0.3-1.3,0.5-2.6,1.8-2.9c0.9-0.2,1.9,0.1,2.4,0.8c0.2,0.3,0.4,0.6,0.5,0.9l3.2,13.2l0.1,0.3
			c0.6,2.4,2.8,4,5.1,3.7c0.9-0.1,2.1-0.3,1.8-3.2l-0.2-0.9l-6.5-27.6l-0.9-3.9c-0.3-1.3,0.5-2.6,1.8-2.9c1.2-0.3,2.4,0.4,2.8,1.5
			c0,0.1,0.1,0.2,0.1,0.3l7.7,32.5c0,0,0,0,0,0.1c0,0.1,0,0.2,0,0.2C120.8,100.4,120.6,101.9,120.1,103.2z"/>
	</g>
	<g>
		<path class="st1" d="M107.4,38c-1.3-0.4-2.6,0.3-3,1.6c0,0.1-2.1,6.7-6.8,11.3c-0.7,0.7-1.5,1.4-2.4,2C95,53,94.9,53,94.8,53.1
			c-0.4,0.3-0.9,0.5-1.4,0.7c-0.2,0.1-0.4,0.2-0.6,0.2c-0.6,0.2-1.3,0.4-2,0.6l-4.7,1c-1,0.1-2.2-0.3-2.4-2.2c0-0.1,0-0.2-0.1-0.3
			c0.2-0.2,0.7-0.7,2-1.4c0.4-0.2,0.9-0.4,1.4-0.5l5.8-1.6l0.1,0c1.2-0.3,2.2-1.1,3-2.1l1.7-2.5l4.4-6.2c0.8-1.1,0.5-2.6-0.6-3.3
			c-0.4-0.3-0.8-0.4-1.2-0.4c-0.8-0.1-1.6,0.3-2.1,1l-5.2,7.5l-0.9,1.2c-0.1,0.1-0.2,0.2-0.3,0.2l-5.9,1.7c-0.8,0.2-1.5,0.5-2.1,0.8
			c-2.5,1.2-4.1,2.6-4.7,4.3c-0.2,0.7-0.3,1.3-0.2,1.8c0,0.3,0.1,0.5,0.1,0.8c0.2,1.7,0.9,3,1.6,3.8c0.3,0.3,0.5,0.6,0.8,0.8
			c1.7,1.4,3.7,1.6,4.7,1.6c0.3,0,0.5,0,0.6,0c0.1,0,0.2,0,0.2,0l4.9-1c0.3-0.1,0.7-0.1,1-0.2c1.8-0.5,3.4-1.2,4.8-2.1
			c0.1-0.1,0.2-0.1,0.3-0.2c0.3-0.2,0.7-0.5,1-0.7c1.8-1.4,3.4-3.1,4.7-4.8c3.7-4.9,5.3-10,5.4-10.3c0.1-0.2,0.1-0.4,0.1-0.6v-0.2
			C109,39.2,108.4,38.3,107.4,38z"/>
	</g>
	<g>
		<path class="st1" d="M66.4,84c-0.3,0-0.5,0-0.8-0.1c-1.3-0.4-1.9-1.8-1.5-3.1c0.2-0.7,5.8-16.4,7.7-21.2c2.5-6.2,8.7-6.3,8.9-6.3
			c1.3,0,2.4,1.1,2.4,2.4c0,1.3-1.1,2.4-2.4,2.4c-0.4,0-3.3,0.2-4.5,3.3c-1.9,4.7-7.6,20.9-7.6,21C68.3,83.4,67.4,84,66.4,84z"/>
	</g>
	<g>
		<path class="st1" d="M37.6,92.7c-0.7-2.1-2.2-3.8-4.1-4.8c-0.7-0.4-1.4-0.6-2.1-0.8c-0.6-0.2-1.3-0.2-1.9-0.2c-1,0-2,0.2-2.9,0.5
			c-1.2,0.4-2.2,1.1-3.1,1.9c-1.6,1.6-2.6,3.8-2.6,6.2v0.2c0.1,4.7,3.9,8.5,8.6,8.5c1.4,0,2.8-0.4,4-1c1.9-1,3.5-2.7,4.2-4.8
			c0.3-0.9,0.5-1.9,0.5-2.9C38.1,94.5,37.9,93.5,37.6,92.7z M25.6,95.5c0-2.1,1.7-3.8,3.8-3.8c2.1,0,3.8,1.7,3.8,3.8
			c0,1.2-0.5,2.2-1.3,2.9c0,0,0,0,0,0c-0.4,0.3-0.9,0.6-1.4,0.8c-0.3,0.1-0.7,0.2-1.1,0.2C27.3,99.3,25.6,97.6,25.6,95.5z"/>
	</g>
	<g>
		<path class="st1" d="M70.1,92.4c-0.6-1.6-1.7-2.9-3-3.9c-1.4-1-3.2-1.6-5-1.6c-1.5,0-2.9,0.4-4.1,1.1h0c-0.8,0.4-1.4,0.9-2,1.5
			c0,0,0,0,0,0c-1.5,1.6-2.5,3.7-2.5,6c0,1,0.2,2,0.5,2.9c0.7,2.1,2.2,3.8,4.2,4.8c1.2,0.6,2.5,1,4,1s2.8-0.4,4-1
			c1.9-1,3.5-2.7,4.2-4.8c0.3-0.9,0.5-1.9,0.5-2.9C70.7,94.4,70.5,93.3,70.1,92.4z M58.2,95.5c0-2.1,1.7-3.8,3.8-3.8
			s3.8,1.7,3.8,3.8s-1.7,3.8-3.8,3.8S58.2,97.6,58.2,95.5z"/>
	</g>
	<g>
		<path class="st1" d="M68.9,92.7c-0.3,0-0.7-0.1-1-0.2c-1.2-0.6-1.7-2-1.1-3.2c0.8-1.8,3-6.9,3-9.6c0-1.1,0-2.4-3.5-2.6
			c-1.6-0.1-4.5,2.2-5.2,5.9c-1.2,6-10.6,9.2-11.6,9.6c-0.2,0.1-0.5,0.1-0.7,0.1H32.8c-1.3,0-2.4-1.1-2.4-2.4s1.1-2.4,2.4-2.4h15.4
			c3.2-1.1,7.6-3.6,8.1-5.8c1.2-6.1,6.2-9.9,10.2-9.8c7,0.4,8,4.8,8,7.3c0,4.3-3.1,10.9-3.4,11.6C70.7,92.2,69.8,92.7,68.9,92.7z"/>
	</g>
	<g>
		<path class="st1" d="M57.8,103.2H34.2c-1.2,0-2.2-1.1-2.2-2.4s1-2.4,2.2-2.4h23.6c1.2,0,2.2,1.1,2.2,2.4S59,103.2,57.8,103.2z"/>
	</g>
	<g>
		<path class="st1" d="M28.9,89.7c-1.3,0-2.4-1.1-2.4-2.4v-2.2c0-3.6,1.7-6.9,4.6-8.8c1-0.6,2-1.1,3.1-1.3c4-0.7,18.3-0.1,19.9,0
			c0.4,0,0.8,0.1,1.1,0.3l3.6,2.2c1.1,0.7,1.5,2.2,0.8,3.3c-0.7,1.1-2.2,1.5-3.3,0.8l-3.1-1.9c-6.2-0.3-15.7-0.5-18.2,0
			c-0.5,0.1-1,0.3-1.4,0.6c-1.5,1-2.4,2.8-2.4,4.7v2.2C31.3,88.7,30.3,89.7,28.9,89.7z"/>
	</g>
	<g>
		<path class="st1" d="M15.8,104.1C15.8,104.1,15.8,104.1,15.8,104.1c-1.2,0-2.1-0.8-2.4-1.9l-1.3-6.1l-1.9,6.3
			c-0.3,1-1.3,1.7-2.3,1.7c-1.1,0-2-0.7-2.3-1.8L1.2,86.2c-0.4-1.3,0.4-2.6,1.7-3c1.3-0.4,2.6,0.4,3,1.7l2.3,8.2l2.2-7.4
			c0.3-1.1,1.3-1.7,2.4-1.7c1.1,0,2,0.8,2.2,1.9l1.1,5.2l1.5-6.1c0.3-1.1,1.2-1.8,2.3-1.8c0,0,0,0,0,0c1.1,0,2,0.7,2.3,1.8l2.2,8.1
			c0.3,1.3-0.4,2.6-1.7,2.9c-1.1,0.3-2.2-0.2-2.7-1.1l-1.9,7.5C17.9,103.4,16.9,104.1,15.8,104.1z"/>
	</g>
	<g>
		<path class="st1" d="M27.6,77.2c-0.2,0-0.5-0.1-0.7-0.2c-0.8-0.4-1.2-1.4-0.8-2.2l2.7-5.7c0.4-0.8,1.4-1.2,2.2-0.8
			c0.8,0.4,1.2,1.4,0.8,2.2l-2.7,5.7C28.8,76.8,28.2,77.2,27.6,77.2z"/>
	</g>
	<g>
		<path class="st1" d="M20.6,63.6c-0.9,0-1.6-0.7-1.6-1.6v-6.4c0-0.9,0.7-1.6,1.6-1.6c0.9,0,1.6,0.7,1.6,1.6V62
			C22.2,62.9,21.5,63.6,20.6,63.6z"/>
	</g>
	<g>
		<path class="st1" d="M36.8,53.9c-0.6,0-1.3-0.3-1.6-0.9c-0.5-0.9-0.2-2,0.7-2.4l6.5-3.5c0.9-0.5,2-0.2,2.4,0.7
			c0.5,0.9,0.2,2-0.7,2.4l-6.5,3.5C37.3,53.8,37,53.9,36.8,53.9z"/>
	</g>
	<g>
		<path class="st1" d="M57.2,64.7c-0.2,0-0.4,0-0.6-0.1l-7-2.6c-1-0.3-1.4-1.4-1.1-2.4c0.3-1,1.4-1.4,2.4-1.1l7,2.6
			c1,0.3,1.4,1.4,1.1,2.4C58.6,64.2,57.9,64.7,57.2,64.7z"/>
	</g>
	<g>
		<path class="st1" d="M125.9,100.8c0,1.3-1.1,2.4-2.4,2.4H65.9c-1.3,0-2.4-1.1-2.4-2.4c0-1.3,1.1-2.4,2.4-2.4h23l0,0.1
			c0,0.1-0.3,1.3,0.4,2.2c0.7,1,2.3,1.4,3.6,1.6c1.3,0.2,2.5-0.6,3-1.8c0.2-0.6,0.4-1.3,0.5-2.1h12.5l0.1,0.3c0.6,2.4,2.8,4,5.1,3.7
			c0.9-0.1,2.1-0.3,1.8-3.2l-0.2-0.9h7.9C124.8,98.4,125.9,99.4,125.9,100.8z"/>
	</g>
</g>
</svg>
