<svg version="1.1" id="Layer_1" xmlns="http://www.w3.org/2000/svg" x="0" y="0" viewBox="0 0 128 128" xml:space="preserve"><style>.st1{fill:#070707}</style><switch><g><ellipse cx="72.4" cy="61.2" rx="14" ry="13.9" fill="#d6b2f5"/><path class="st1" d="M20.7 106.8H9.8c-1.4 0-2.5-1.1-2.5-2.5V24.2c0-1.4 1.1-2.5 2.5-2.5h10.8c1.4 0 2.5 1.1 2.5 2.5v80.1c.1 1.4-1.1 2.5-2.4 2.5zm-8.4-5h5.8V26.7h-5.8v75.1zM106.4 97c-1.2 0-2.3-.9-2.5-2.2L93.5 15.4c-.1-.7.1-1.3.5-1.8s1-.9 1.7-1l10.8-1.4c1.4-.2 2.6.8 2.8 2.2l10.5 79.5c.1.7-.1 1.3-.5 1.8s-1 .9-1.7 1L106.8 97h-.4zm-7.6-79.8l9.8 74.5 5.8-.8-9.8-74.5-5.8.8z"/><path class="st1" d="M46.7 98.4c-2.8 0-5.2-.8-7.3-2.4-4.7-3.7-5.4-10.4-5.4-10.7V85l.6-44.5c-.9-5.2-.2-9.4 2.1-12.4 2.5-3.4 6-4 6.4-4.1h50.5c.5 0 1 .2 1.4.5 2.5 1.8 3.1 3.8 3.2 5.2.1 3.4-2.7 5.8-3 6.1-.5.4-1 .6-1.6.6l-44.7-.3v1.8l44.7.1c1.4 0 2.5 1.1 2.5 2.5l.2 55.2c0 .7-.3 1.3-.7 1.8-.5.5-1.1.7-1.8.7H49.1c-.8.1-1.6.2-2.4.2zM39 84.9c.1.7.7 4.9 3.6 7.1 1.5 1.2 3.5 1.6 6 1.2H91.3L91.1 43l-44.8-.1c-1.4 0-2.5-1.1-2.5-2.5v-6.9c0-.7.3-1.3.7-1.8.5-.5 1.1-.7 1.8-.7l46.2.3c.4-.5.7-1 .7-1.5 0-.3-.2-.6-.5-.9H43.6c-1 .2-5.6 1.8-4.1 10.9v.5L39 84.9z"/><path class="st1" d="M87.4 89.4H46.7c-.7 0-1.3-.3-1.8-.7-.5-.5-.7-1.1-.7-1.8l.4-39.6c0-1.4 1.1-2.5 2.5-2.5h21.4c1.4 0 2.5 1.1 2.5 2.5v10.3l.6-.7c.5-.5 1.1-.8 1.8-.9.7 0 1.4.2 1.9.7l1.9 1.9.1-11.5c0-1.4 1.1-2.5 2.5-2.5h8.1c.7 0 1.3.3 1.8.7.5.5.7 1.1.7 1.8l-.5 39.6c0 1.6-1.1 2.7-2.5 2.7zm-38.2-5h35.7l.4-34.6h-3.1l-.2 15c0 1-.6 1.9-1.6 2.3-.9.4-2 .2-2.7-.5l-4.2-4.2-3.2 3.7c-.7.8-1.8 1.1-2.8.7-1-.4-1.6-1.3-1.6-2.3V50H49.5l-.3 34.4zM116 111.2H38.7c-1.4 0-2.5-1.1-2.5-2.5v-11c0-1.4 1.1-2.5 2.5-2.5H116c1.4 0 2.5 1.1 2.5 2.5v11c0 1.4-1.1 2.5-2.5 2.5zm-74.8-5h72.4v-6H41.2v6z"/><path class="st1" d="M50.3 109.7c-1.4 0-2.5-1.1-2.5-2.5v-8.9c0-1.4 1.1-2.5 2.5-2.5s2.5 1.1 2.5 2.5v8.9c0 1.4-1.1 2.5-2.5 2.5zM104.5 110c-1.4 0-2.5-1.1-2.5-2.5v-9.3c0-1.4 1.1-2.5 2.5-2.5s2.5 1.1 2.5 2.5v9.3c0 1.4-1.1 2.5-2.5 2.5zM19.9 38.8H9.3c-1.1 0-2-1.1-2-2.5s.9-2.5 2-2.5h10.6c1.1 0 2 1.1 2 2.5s-.9 2.5-2 2.5zM19.6 93.9h-10c-1.2 0-2.3-1.1-2.3-2.5s1-2.5 2.3-2.5h10c1.2 0 2.3 1.1 2.3 2.5s-1.1 2.5-2.3 2.5zM106.5 82.3c-1.2 0-2.2-.8-2.4-2-.3-1.4.6-2.7 2-2.9l7.7-1.6c1.4-.3 2.7.6 2.9 2 .3 1.4-.6 2.7-2 2.9l-7.7 1.6h-.5zM98.5 32.7c-1.2 0-2.3-.9-2.5-2.1-.2-1.4.7-2.6 2.1-2.9l10.1-1.6c1.4-.2 2.6.7 2.9 2.1.2 1.4-.7 2.6-2.1 2.9l-10.1 1.6h-.4zM36.8 106.4H25.9c-1.4 0-2.5-1.1-2.5-2.5V23.7c0-1.4 1.1-2.5 2.5-2.5h10.8c1.4 0 2.5 1.1 2.5 2.5v80.1c0 1.5-1.1 2.6-2.4 2.6zm-8.4-5h5.8V26.2h-5.8v75.2z"/><path class="st1" d="M35.2 93.5h-9.6c-1.2 0-2.2-1.1-2.2-2.5s1-2.5 2.2-2.5h9.6c1.2 0 2.2 1.1 2.2 2.5s-1 2.5-2.2 2.5zM36.8 38.8H25.9c-1.4 0-2.5-1.1-2.5-2.5s1.1-2.5 2.5-2.5h10.8c1.4 0 2.5 1.1 2.5 2.5s-1.1 2.5-2.4 2.5z"/></g></switch></svg>