<svg version="1.1" id="Layer_1" xmlns="http://www.w3.org/2000/svg" x="0" y="0" viewBox="0 0 128 128" style="enable-background:new 0 0 128 128" xml:space="preserve"><style>.st0{fill:#d6b2f5}.st1{fill:#231f20}</style><circle class="st0" cx="15.8" cy="43.6" r="9.8"/><circle class="st0" cx="75.8" cy="61.6" r="8.2"/><circle class="st0" cx="36.8" cy="96.6" r="11.2"/><path class="st1" d="M6 21.5c-1.4 0-2.5-1.1-2.5-2.5s1.1-2.5 2.5-2.5c.2 0 23.4-.2 38.5-11.5 1.1-.8 2.7-.6 3.5.5.8 1.1.6 2.7-.5 3.5C31 21.4 7 21.5 6 21.5z"/><path class="st1" d="M22.1 33c-.9 0-1.7-.5-2.2-1.3l-3.3-5.9-2.9 5.8c-.4.9-1.4 1.4-2.3 1.4-1 0-1.9-.7-2.2-1.6l-3.5-8.8c-.5-1.3.1-2.7 1.4-3.2 1.3-.5 2.7.1 3.2 1.4l1.4 3.6 2.5-5c.4-.8 1.3-1.4 2.2-1.4.9 0 1.8.5 2.2 1.3l2.8 5.1 2.6-7.7c.3-.9 1.2-1.6 2.2-1.7 1-.1 1.9.4 2.4 1.3l2.5 4.5.9-5.7c.2-1 .9-1.8 1.8-2 1-.3 2 .1 2.6.9l3.5 4.4v-7.8C40 9.1 41.1 8 42.5 8S45 9.1 45 10.5v15c0 1.1-.7 2-1.7 2.4-1 .4-2.1 0-2.8-.8l-4.4-5.6-1.1 7.4c-.2 1.1-1 1.9-2 2.1-1.1.2-2.1-.3-2.6-1.3l-3.3-6-2.6 7.6c-.3.9-1.2 1.6-2.1 1.7h-.3zM123 21.5c-1 0-25-.1-41.5-12.5-1.1-.8-1.3-2.4-.5-3.5s2.4-1.3 3.5-.5c15.1 11.3 38.3 11.5 38.5 11.5 1.4 0 2.5 1.1 2.5 2.5s-1.1 2.5-2.5 2.5z"/><path class="st1" d="M106.9 33h-.2c-1-.1-1.8-.7-2.1-1.7l-2.6-7.6-3.3 6c-.5.9-1.6 1.4-2.6 1.3-1.1-.2-1.9-1-2-2.1L93 21.5 88.5 27c-.7.8-1.8 1.1-2.8.8-1-.4-1.7-1.3-1.7-2.4v-15C84 9.1 85.1 8 86.5 8S89 9.1 89 10.5v7.8l3.5-4.4c.6-.8 1.6-1.1 2.6-.9 1 .3 1.7 1.1 1.8 2l.9 5.7 2.5-4.5c.5-.9 1.4-1.4 2.4-1.3 1 .1 1.8.7 2.2 1.7l2.6 7.7 2.8-5.1c.5-.8 1.3-1.3 2.2-1.3.9 0 1.8.6 2.2 1.4l2.5 5 1.4-3.6c.5-1.3 2-1.9 3.2-1.4 1.3.5 1.9 2 1.4 3.2l-3.5 8.8c-.4.9-1.2 1.5-2.2 1.6-1 0-1.9-.5-2.3-1.4l-2.9-5.8-3.3 5.9c-.3.9-1.2 1.4-2.1 1.4zM41.5 45h-9c-1.4 0-2.5-1.1-2.5-2.5v-9c0-1.4 1.1-2.5 2.5-2.5h9c1.4 0 2.5 1.1 2.5 2.5v9c0 1.4-1.1 2.5-2.5 2.5zM35 40h4v-4h-4v4z"/><path class="st1" d="M42.5 80h-11c-.7 0-1.3-.3-1.8-.8s-.7-1.1-.7-1.8l1-33.3c0-1.4 1.2-2.5 2.6-2.4 1.4 0 2.5 1.2 2.4 2.6L34.1 75h5.8L38 42.6c-.1-1.4 1-2.6 2.4-2.6 1.4-.1 2.6 1 2.6 2.4l2 35c0 .7-.2 1.4-.7 1.9-.5.4-1.1.7-1.8.7z"/><path class="st1" d="M38.6 121.7h-1.7c-13.9-.8-18.3-8.7-19.7-13.4-2.3-7.8.4-17 4.5-20 1.5-1.1 1.6-2 1.6-2.3.1-1.5-1.1-3.2-1.6-3.7-.3-.3-.6-.8-.6-1.2-2.3-11.6 6.7-17.4 7.1-17.6 1.2-.7 2.7-.4 3.4.8.7 1.2.4 2.7-.8 3.4-.3.2-6.2 4.1-5 11.8.9 1.2 2.7 3.8 2.4 6.9-.1 1.6-.9 3.9-3.6 6-2 1.5-4.6 8.3-2.7 14.6 1.8 5.9 7 9.3 15.2 9.8 5.1.3 9-.9 11.6-3.6 4.8-5 4.6-14 4.3-17.7-.1-1.1-.5-2-1.1-2.8-1.5-1.8-3.9-5.6-3.9-11 0-.3.1-.6.2-.9.3-.9 2.9-9.2-5.8-14-1.2-.7-1.7-2.2-1-3.4.7-1.2 2.2-1.7 3.4-1 9.9 5.4 9.8 14.9 8.3 19.6.1 3.5 1.6 6 2.8 7.5 1.3 1.6 2 3.5 2.2 5.5.5 5.4.4 15.4-5.6 21.6-3.5 3.4-8.1 5.1-13.9 5.1z"/><path class="st1" d="M37.5 106c-5.2 0-9.5-4.3-9.5-9.5s4.3-9.5 9.5-9.5 9.5 4.3 9.5 9.5-4.3 9.5-9.5 9.5zm0-14C35 92 33 94 33 96.5s2 4.5 4.5 4.5 4.5-2 4.5-4.5-2-4.5-4.5-4.5zM76.5 69c-4.1 0-7.5-3.4-7.5-7.5s3.4-7.5 7.5-7.5 7.5 3.4 7.5 7.5-3.4 7.5-7.5 7.5zm0-10c-1.4 0-2.5 1.1-2.5 2.5s1.1 2.5 2.5 2.5 2.5-1.1 2.5-2.5-1.1-2.5-2.5-2.5zM43.7 113.4H30.5c-1.4 0-2.5-1.1-2.5-2.5s1.1-2.5 2.5-2.5h13.2c1.4 0 2.5 1.1 2.5 2.5s-1.1 2.5-2.5 2.5zM15.5 54C10.8 54 7 49.5 7 44s3.8-10 8.5-10S24 38.5 24 44s-3.8 10-8.5 10zm0-15c-1.9 0-3.5 2.3-3.5 5s1.6 5 3.5 5 3.5-2.3 3.5-5-1.6-5-3.5-5z"/><path class="st1" d="M15.5 70.2c-.4 0-.9-.1-1.3-.4-1.2-.7-1.5-2.3-.8-3.4.9-1.5 1-2.8.2-4.1-1.6-2.6-2-5.6-1.2-8.2 1.4-4.5 4.9-5.8 5.3-6 1.3-.4 2.7.3 3.2 1.6.4 1.3-.3 2.7-1.5 3.1-.1.1-1.6.7-2.2 2.7-.4 1.2-.1 2.7.7 4.1 1 1.7 2.4 5.1-.2 9.3-.5.8-1.4 1.3-2.2 1.3zM91.2 67h-9.7c-1.4 0-2.5-1.1-2.5-2.5s1.1-2.5 2.5-2.5h7.2v-1h-7.2c-1.4 0-2.5-1.1-2.5-2.5s1.1-2.5 2.5-2.5h9.7c1.4 0 2.5 1.1 2.5 2.5v6c0 1.4-1.2 2.5-2.5 2.5z"/><path class="st1" d="M86.5 59c-1 0-2-.6-2.4-1.7-.5-1.3.2-2.7 1.5-3.2l25-9c1.3-.5 2.7.2 3.2 1.5s-.2 2.7-1.5 3.2l-25 9c-.2.2-.5.2-.8.2zM105.6 121.7c-1.4 0-2.5-1.1-2.5-2.5V108H57.5c-1.4 0-2.5-1.1-2.5-2.5s1.1-2.5 2.5-2.5h48.1c1.4 0 2.5 1.1 2.5 2.5v13.7c0 1.4-1.1 2.5-2.5 2.5z"/><path class="st1" d="M115 123H11.5c-1.4 0-2.5-1.1-2.5-2.5s1.1-2.5 2.5-2.5H115c1.4 0 2.5 1.1 2.5 2.5s-1.1 2.5-2.5 2.5z"/><path class="st1" d="M18.8 121.7c-1.4 0-2.5-1.1-2.5-2.5v-5.8c0-1.4 1.1-2.5 2.5-2.5s2.5 1.1 2.5 2.5v5.8c0 1.4-1.1 2.5-2.5 2.5zM115 121.7c-.5 0-1-.1-1.4-.4-1.1-.8-1.5-2.3-.7-3.5.5-.8 4.9-8.1-3-14.4-10.9-8.8-9.5-23.2-9.4-23.8v-.3c0-.1 1.9-9.4-3.9-11.6-1.3-.5-1.9-1.9-1.5-3.2s1.9-1.9 3.2-1.5c9.4 3.5 7.4 15.5 7.1 17.2-.1 1.1-.8 12.5 7.6 19.2 9.3 7.5 6.7 17 4 21-.4.9-1.2 1.3-2 1.3zM83.5 88h-24c-1.4 0-2.5-1.1-2.5-2.5v-8c0-1.4 1.1-2.5 2.5-2.5h24c1.4 0 2.5 1.1 2.5 2.5v8c0 1.4-1.1 2.5-2.5 2.5zM62 83h19v-3H62v3z"/><path class="st1" d="M60.7 108h-.3c-1.4-.2-2.3-1.5-2.1-2.8l2.6-18.7c.2-1.4 1.5-2.3 2.8-2.1 1.4.2 2.3 1.5 2.1 2.8l-2.6 18.7c-.2 1.2-1.3 2.1-2.5 2.1zM81.5 106.8c-1.2 0-2.3-.9-2.5-2.1l-2.5-17.4c-.2-1.4.8-2.6 2.1-2.8 1.4-.2 2.6.8 2.8 2.1l2.5 17.4c.2 1.4-.8 2.6-2.1 2.8h-.3zM89.5 106c-1 0-1.9-.5-2.3-1.5-.6-1.3 0-2.7 1.2-3.3l5.5-2.5V54.5c0-1.4 1.1-2.5 2.5-2.5s2.5 1.1 2.5 2.5v45.9c0 1-.6 1.9-1.5 2.3l-7 3.1c-.2.1-.5.2-.9.2z"/><path class="st1" d="M103 106c-.4 0-.7-.1-1.1-.2l-6.5-3.1c-1.2-.6-1.8-2.1-1.2-3.3.6-1.2 2.1-1.8 3.3-1.2l6.5 3.1c1.2.6 1.8 2.1 1.2 3.3-.4.9-1.3 1.4-2.2 1.4z"/></svg>