<svg version="1.1" id="Layer_1" xmlns="http://www.w3.org/2000/svg" x="0" y="0" viewBox="0 0 128 128" style="enable-background:new 0 0 128 128" xml:space="preserve"><style>.st0{fill:#d6b2f5}.st1{fill:#2a2b30}</style><circle class="st0" cx="46.7" cy="36.7" r="15.3"/><circle class="st0" cx="30.7" cy="92.7" r="14.7"/><path class="st1" d="M36 14.2c-.1-1.1-1-2-2-2.2l-9.8-1.8-3.9-7.9c-.5-.8-1.4-1.3-2.4-1.3s-1.8.6-2.2 1.5l-2.8 6.7L3.7 11c-1 .2-1.8 1-2 2-.2 1 .3 2 1.2 2.6l7.2 4.3L6.6 28c-.4 1-.2 2.2.7 2.9.9.7 2.1.8 3 .1l7.6-5.3 7 5.7c.5.4 1 .6 1.6.6.5 0 1-.2 1.4-.5.9-.6 1.3-1.8.9-2.9L26 20.3l8.5-3.5c1-.4 1.6-1.5 1.5-2.6zm-14.1 2.4c-1.2.5-1.8 1.9-1.4 3.1l.8 2.3-1.7-1.4c-.5-.4-1-.6-1.6-.6-.5 0-1 .2-1.4.5l-2 1.4.9-2c.5-1.2.1-2.5-1-3.1l-3.4-2.1 4.1-.7c.8-.2 1.5-.7 1.9-1.5l1.2-2.9 2 4.1c.3.7 1 1.2 1.8 1.3l2.6.5-2.8 1.1zM127.4 14.3c-.1-1.1-1-2-2-2.2l-9.3-1.7-3.8-7.5c-.4-.9-1.4-1.4-2.3-1.4-1 0-1.9.6-2.2 1.5l-2.7 6.4-8.8 1.6c-1 .2-1.8 1-2 2-.2 1 .3 2.1 1.2 2.6l6.9 4.1-3.4 7.8c-.4 1-.1 2.2.7 2.9.9.7 2.1.8 3 .1l7.2-5.1 6.7 5.4c.5.4 1 .6 1.6.6.5 0 1-.2 1.4-.5.9-.6 1.3-1.8.9-2.9l-2.8-8 8.1-3.3c1.1-.2 1.7-1.3 1.6-2.4zm-13.7 2.2c-1.2.5-1.8 1.9-1.4 3.1l.7 1.9-1.3-1.1c-.5-.4-1-.6-1.6-.6-.5 0-1 .1-1.4.4l-1.6 1.1.7-1.7c.5-1.1.1-2.5-1-3.1l-3.1-1.8 3.7-.7c.8-.2 1.5-.7 1.9-1.5l1.1-2.6 1.9 3.8c.3.7 1 1.2 1.8 1.3l2.2.4-2.6 1.1zM62.3 40.2l-6.6-5.3 5.1-7.1c.7-.9.6-2.1-.1-3-.7-.9-1.9-1.2-2.9-.8L49 27.6l-7.2-4.4c-.8-.5-1.9-.5-2.7.1-.8.5-1.2 1.5-1.1 2.5l1.1 6.9-.1.1-2.5 2.3-3.9 3.6c-.8.7-1 1.8-.6 2.8.4 1 1.4 1.6 2.4 1.6h.5l6.6-.1h.9l1.3 8.3c.2 1.1 1.1 2 2.2 2.1h.3c1 0 1.9-.6 2.3-1.5l2.9-6.8.5-1.2v-.1h.4l5.3.7.7.1 2.1.3c1.1.1 2.2-.5 2.6-1.5.2-.3.2-.7.2-1.1 0-.9-.4-1.6-.9-2.1zm-15.4-.3c-.2-1.2-1.2-2.1-2.5-2.1l-3.6.1 2.8-2.5c.6-.6.9-1.4.8-2.2l-.5-2.8 3.6 2.2c.7.4 1.5.5 2.2.2l2.1-.8-1.5 2c-.8 1.1-.6 2.6.5 3.4l1.6 1.3-1.1-.1-.6-.1c-1.1-.1-2.2.5-2.6 1.5l-.2.4c0 .1-.1.1-.1.2l-.5 1.2-.4-1.9zM47.4 90.4c-.1-1.1-.9-2-2-2.2l-8.1-1.4-1.3-.2-3.8-7.5c-.1-.3-.3-.5-.5-.7-.5-.5-1.1-.7-1.8-.7-1 0-1.8.6-2.2 1.5L25 85.7l-8.8 1.6c-1 .2-1.8 1-2 2-.2 1 .3 2.1 1.2 2.6l6.9 4.1-3.3 7.7c-.4 1-.1 2.2.7 2.9.9.7 2.1.8 3 .1l.1-.1 7.1-5 1.3 1 5.4 4.4c.5.4 1 .5 1.6.5.5 0 1-.1 1.5-.5.9-.6 1.3-1.8.9-2.9l-2.8-7.9 8.1-3.4c1-.2 1.6-1.3 1.5-2.4zm-13.7 2.3c-1.2.5-1.8 1.9-1.4 3.1l.7 1.9-.4-.3-1-.8c-.5-.4-1-.5-1.6-.5-.5 0-1 .1-1.4.5L27 97.7l.7-1.7c.5-1.2.1-2.5-1-3.1L23.6 91l3.7-.7c.8-.1 1.5-.7 1.8-1.5l1.1-2.6 1.9 3.8c.3.6.9 1.1 1.6 1.3.1 0 .3.1.5.1l1.9.3-2.4 1z"/><path class="st1" d="M127.4 100.9c0 .7-.2 1.3-.7 1.8l-8.4 8.5c-.5.5-1.1.7-1.8.7s-1.3-.3-1.8-.8l-18.2-19-5.3-5.5-6.4-6.6-3.9-4-5.9-6.2-3.9-4-5.7-5.9-4.7-4.9-9.5-10-1-1-1.1-1.2c-1-1-.9-2.6.1-3.5l.2-.2c.5-.4 1.2-.6 1.8-.5.2 0 .5.1.7.2.3.1.6.3.8.6l2 2.1 2.8 2.9 29.6 30.9 4.7 4.9 4.4 4.6 10.4 10.9 3.5 3.6 6.3 6.6 4.8-4.8-6.7-6-3.7-3.3-13.7-12.5-4.2-3.8-34.6-31.1-.6-.5c-.3-.3-.5-.6-.7-1-.3-.8-.2-1.8.5-2.5.9-1 2.5-1.1 3.5-.2l.2.2 1.9 1.8 13.6 12.3 4.8 4.4 5.4 4.8 4.5 4.1 2.8 2.5 4.1 3.7 28.1 25.3c.7.3 1 .9 1 1.6z"/><path class="st1" d="M50 43.9c-1.2 0-2.3-.9-2.5-2.1-.2-1.4.7-2.6 2.1-2.8l2.4-.3c1.5-.1 2.8 1 2.8 2.5 0 1.3-1 2.4-2.3 2.5l-2.1.3c-.1-.1-.2-.1-.4-.1zM64.5 60C56.4 59.9 30 58.7 30 49.5c0-4.2 4.2-7.5 9.5-7.5 1.4 0 2.5 1.1 2.5 2.5S40.9 47 39.5 47c-2.7 0-4.5 1.3-4.5 2.5.7 1.7 10.3 5.2 29.5 5.5 1.4 0 2.5 1.2 2.5 2.5 0 1.4-1.1 2.5-2.5 2.5zM76.6 59.4c-1.3 0-2.3-1-2.5-2.2-.1-1.4.8-2.6 2.2-2.8 12-1.3 17.4-4.7 17.7-5.9C94 47 85.8 43 66.5 43c-1.4 0-2.5-1.1-2.5-2.5s1.1-2.5 2.5-2.5c7.6 0 32.5.8 32.5 10.5 0 6.2-11.4 9.7-22.1 10.8-.1.1-.2.1-.3.1zM58.2 43.2c-1.3 0-2.4-1-2.5-2.4-.1-1.4 1-2.6 2.4-2.6h.7c1.4 0 2.5 1.1 2.5 2.5s-1.1 2.5-2.5 2.5H58.2z"/><path class="st1" d="M86.8 68.7c-1.2 0-2.2-.8-2.4-2-.3-1.4.6-2.7 1.9-3 14.2-3 23.7-8.7 23.7-14.2C110 41.7 90.7 33 63 33c-1.4 0-2.5-1.1-2.5-2.5S61.6 28 63 28c29.6 0 52 9.2 52 21.5 0 8.3-10.3 15.5-27.7 19.1-.2 0-.3.1-.5.1zM63 71c-22.4 0-42.1-5.5-49.2-13.6-2.2-2.6-3.2-5.4-2.8-8.2 1.2-8.7 10.8-16.1 25-19.1 1.4-.3 2.7.6 3 1.9.3 1.4-.6 2.7-1.9 3-11.9 2.5-20.1 8.4-21 14.9-.2 1.4.3 2.8 1.6 4.2C23.6 61 42.7 66 63 66c3.4 0 6.7-.1 10-.4 1.4-.1 2.6.9 2.7 2.3.1 1.4-.9 2.6-2.3 2.7-3.4.3-6.9.4-10.4.4z"/><path class="st1" d="m97.1 79.3-4.2-3.8c.5-1.9 1-3.7 1.5-5.4.4-1.4.9-2.6 1.3-3.8 1.2-3.1 2.1-5.2 2.3-5.5.6-1.2 2.1-1.8 3.3-1.2 1.2.6 1.8 2.1 1.2 3.3 0 0-.2.3-.4.8-.7 1.6-2.3 5.3-3.6 9.9-.5 2-1 3.8-1.4 5.7zM102 118.5c-8.8 6.4-20.4 9.7-33.5 9.7-8.7 0-18-1.4-27.7-4.3-7.7-2.3-13.1-5.1-16.1-8.2-2.3-2.4-3-5.9-1.8-9 .2-.5.4-.9.6-1.3l.4-.6c1.3-2.2 2.7-4.7 5.6-7.2.9-.8 2.2-.8 3.1-.1.1.1.3.2.4.4.9 1 .8 2.6-.3 3.5-.5.5-1 .9-1.5 1.4-1.3 1.5-2.2 2.9-3.1 4.5l-.4.7c-.8 1.4-.6 3.2.5 4.3 1.7 1.7 5.4 4.3 13.9 6.9 22.8 6.8 43.5 5.1 56.8-4.6 1.5-1.1 2.3-4.4 1.6-5.4-.3-.4-.8-1-1.4-1.8-1.8-2.2-4.5-5.6-5.9-8.7-1.6-3.5-2.2-7.7-2-11.9.1-2.2.3-4.4.7-6.5l4.4 4.6c-.2 2.6-.2 5.1.2 7.4.2 1.5.7 2.9 1.3 4.2 1.2 2.6 3.7 5.6 5.3 7.7.7.9 1.3 1.6 1.6 2.1 2.5 3.5.6 9.8-2.7 12.2zM34.5 91.4h-.3c-1.4-.2-2.3-1.4-2.1-2.8 1.8-13.2-6-23.8-6.1-24-.8-1.1-.6-2.7.5-3.5 1.1-.8 2.7-.6 3.5.5.4.5 9.2 12.4 7.1 27.6-.3 1.3-1.4 2.2-2.6 2.2z"/><path class="st1" d="M65.3 82.9c-16.7 0-31.1-5.4-31.9-5.7-1.3-.5-1.9-1.9-1.4-3.2.5-1.3 1.9-1.9 3.2-1.4.3.1 27.6 10.3 49.5 2.2 1.3-.5 2.7.2 3.2 1.5s-.2 2.7-1.5 3.2c-6.9 2.5-14.2 3.4-21.1 3.4z"/><g><path class="st1" d="m115.3 94.3-.7.7-4.3 4.3c-.5.4-1.1.7-1.7.7-.7 0-1.3-.2-1.8-.8-1-1-1-2.6 0-3.5l4.1-4 .9-.9c1-1 2.6-1 3.5 0 1 1 1 2.6 0 3.5z"/></g></svg>