<svg version="1.1" id="Layer_1" xmlns="http://www.w3.org/2000/svg" x="0" y="0" viewBox="0 0 128 128" style="enable-background:new 0 0 128 128" xml:space="preserve"><style>.st1{fill:#231f20}</style><ellipse cx="43.4" cy="17.7" rx="11.7" ry="11.1" style="fill:#d6b2f5"/><path class="st1" d="M43.7 29.3c-5.8 0-10.5-4.7-10.5-10.5S37.9 8.2 43.7 8.2 54.3 13 54.3 18.8s-4.8 10.5-10.6 10.5zm0-15.5c-2.8 0-5 2.2-5 5s2.2 5 5 5 5-2.2 5-5-2.2-5-5-5zM52.3 126.7c-1 0-2.1-.2-3.1-.7-1.7-.8-3.1-2.1-4-3.8-.8 1.3-2 2.3-3.5 2.9-2.2.9-4.6.9-7-.1-3-1.2-4.9-4.1-4.9-7.4V81c-.6.1-1.1.1-1.5 0-3.6-.4-5.6-3.7-5.9-4-.3-.4-.4-.9-.4-1.4V45.4c0-10.6 9.1-14.6 9.5-14.8.3-.1.6-.2.9-.2l18.7-1.1c5.8-1 10 3.8 11.7 7l3.5 5.8 2.7-8c.7-2 2.2-3.5 4.2-4.1 1.9-.6 3.9-.2 5.5 1.1 2.4 1.9 2.5 4.6 2.1 6.1-.2.9-2.4 11.6-5.6 21.4-1.4 4.3-3.6 6.8-6.4 7.3-3.9.7-6.9-2.7-7.2-3.1-.1-.1-.1-.2-.2-.3l-2.1-3.3v60c0 2.5-1.2 4.8-3.1 6.2-1.2.8-2.5 1.3-3.9 1.3zm-8.6-44.8H47c1.5 0 2.8 1.2 2.8 2.8v33.5c0 1.2.6 2.3 1.6 2.7.9.4 1.3.2 1.5 0 .5-.3.7-1 .7-1.7V49.8c0-1.2.8-2.3 2-2.7 1.2-.3 2.4.1 3.1 1.2l7.1 11c.5.6 1.4 1.2 1.8 1.1.4-.1 1.3-.9 2.2-3.6 3.2-9.7 5.4-20.7 5.5-20.8v-.1c0-.1 0-.3-.2-.4 0 0-.2-.1-.5-.1-.2.1-.5.2-.5.5l-4.6 13.8c-.3 1-1.3 1.8-2.3 1.9-1.1.1-2.1-.4-2.7-1.3L58 39.1c0-.1-.1-.1-.1-.2 0 0-2.5-4.8-5.9-4.1h-.4l-18.3 1.1c-1.4.7-5.7 3.5-5.7 9.5v29.1c.4.4.9.9 1.4.9.6.1 1.3-.5 1.6-.9.8-.8 2-1 3-.6s1.7 1.4 1.7 2.6v41.2c0 1 .6 1.8 1.5 2.2 1 .4 1.9.4 2.8.1.8-.3 1.3-1.2 1.3-2.1V84.7c0-1.6 1.3-2.8 2.8-2.8z"/><path class="st1" d="M32.6 77.9c-1.5 0-2.8-1.2-2.8-2.8V48.8c0-1.5 1.2-2.8 2.8-2.8 1.5 0 2.8 1.2 2.8 2.8v26.4c0 1.5-1.3 2.7-2.8 2.7zM80.2 30.4h-7.6c-1.5 0-2.8-1.2-2.8-2.8v-10c0-1.5 1.2-2.8 2.8-2.8h7.6c1.5 0 2.8 1.2 2.8 2.8v10c0 1.6-1.3 2.8-2.8 2.8zm-4.8-5.5h2.1v-4.4h-2.1v4.4z"/><path class="st1" d="M98.5 36.5c-.3 0-.6-.1-.9-.2l-17.1-6.1c-1.4-.5-2.2-2.1-1.7-3.5.5-1.4 2.1-2.2 3.5-1.7l13.4 4.8V16l-12.1 4.3c-1.4.5-3-.3-3.5-1.7s.3-3 1.7-3.5l15.8-5.6c.8-.3 1.8-.2 2.5.4.7.5 1.2 1.4 1.2 2.3v21.6c0 .9-.4 1.7-1.2 2.3-.4.2-1 .4-1.6.4zM108.7 14.1c-1.1 0-2.1-.7-2.6-1.7-.6-1.4.1-3 1.5-3.6l6.3-2.6c1.4-.6 3 .1 3.6 1.5.6 1.4-.1 3-1.5 3.6l-6.3 2.6c-.3.2-.7.2-1 .2zM115.5 35.8c-.6 0-1.1-.2-1.6-.5l-6.8-4.8c-1.3-.9-1.6-2.6-.7-3.9.9-1.3 2.6-1.5 3.9-.7l6.8 4.8c1.3.9 1.6 2.6.7 3.9-.6.8-1.4 1.2-2.3 1.2zM118.7 22.7H111c-1.5 0-2.8-1.2-2.8-2.8 0-1.5 1.2-2.8 2.8-2.8h7.6c1.5 0 2.8 1.2 2.8 2.8 0 1.5-1.2 2.8-2.7 2.8zM69.5 28.4h-9.9c-1.5 0-2.8-1.2-2.8-2.8v-5.7c0-1.5 1.2-2.8 2.8-2.8l9.9-.1c.7 0 1.4.3 2 .8.5.5.8 1.2.8 2v5.8c0 1.5-1.3 2.8-2.8 2.8zm-7.2-5.6h4.4v-.2h-4.4v.2z"/></svg>