<svg version="1.1" id="Layer_1" xmlns="http://www.w3.org/2000/svg" x="0" y="0" viewBox="0 0 128 128" style="enable-background:new 0 0 128 128" xml:space="preserve"><style>.st1{fill:#231f20}</style><ellipse cx="64.8" cy="18.7" rx="17.2" ry="18.3" style="fill:#d6b2f5"/><path class="st1" d="M64.5 39.5c-8.3 0-15.1-8.4-15.1-18.7S56.2 2 64.5 2s15.1 8.4 15.1 18.7-6.8 18.8-15.1 18.8zm0-32.1c-5.4 0-9.7 6-9.7 13.4s4.4 13.4 9.7 13.4 9.7-6 9.7-13.4-4.3-13.4-9.7-13.4z"/><path class="st1" d="M29.2 80.2c-.7 0-1.4-.3-1.9-.8-.7-.7-.9-1.6-.7-2.6l8.6-33.2c.3-1.3 1.7-2.2 3-2 4.4.7 11.7-3.3 14.1-4.9 1.2-.8 2.9-.5 3.7.7.8 1.2.5 2.9-.7 3.7-1 .6-8.7 5.7-15.5 5.9l-6.9 26.7L63.1 66c.4-.1.9-.1 1.3 0l29.8 7.8L89 47.5c-3.8-1-12.8-3.6-16.5-6.5-1.2-.9-1.4-2.6-.5-3.8.9-1.2 2.6-1.4 3.8-.5 3.1 2.4 12.8 5.1 16.2 6 1 .2 1.8 1.1 2 2.1l6.4 32.1c.2.9-.1 1.8-.8 2.5-.7.6-1.6.9-2.5.6l-33.2-8.7L30 80c-.4.1-.6.2-.8.2z"/><path class="st1" d="M63.7 71.3c-1.5 0-2.6-1.2-2.7-2.6l-.3-14c0-1.5 1.1-2.7 2.6-2.7s2.7 1.1 2.7 2.6l.3 14c.2 1.4-1 2.6-2.6 2.7.1 0 .1 0 0 0z"/><path class="st1" d="M43.1 68.4c-1.1 0-2.2-.7-2.5-1.8-.5-1.4.3-2.9 1.7-3.4l11.4-3.8L62.3 46c.5-.8 1.4-1.3 2.4-1.2 1 .1 1.8.6 2.2 1.5l6.4 13.1 12.2 3.8c1.4.4 2.2 1.9 1.8 3.4-.4 1.4-1.9 2.2-3.4 1.8l-13.3-4.1c-.7-.2-1.3-.7-1.6-1.4l-4.8-9.8-6.5 9.9c-.3.5-.8.9-1.4 1.1L44 68.3c-.3 0-.6.1-.9.1zM43.1 98.3c-1 0-2-.6-2.4-1.6-.6-1.3 0-2.9 1.3-3.6 2.2-1 3.7-2.6 4.5-4.7 1.7-4.6-.5-11-1.5-13.1-.6-1.3-.1-2.9 1.3-3.6 1.3-.6 2.9-.1 3.6 1.3.2.4 4.4 9.5 1.7 17.2-1.3 3.5-3.7 6.1-7.2 7.7-.5.3-.9.4-1.3.4zM83.4 98.3c-.5 0-1-.1-1.5-.4-4.5-2.9-7.1-6.6-7.7-11-1.1-7.5 4.2-14 4.4-14.3.9-1.1 2.6-1.3 3.8-.3 1.1.9 1.3 2.6.3 3.8 0 .1-4 5-3.3 10.1.4 2.8 2.2 5.2 5.4 7.3 1.2.8 1.6 2.5.8 3.7-.4.6-1.3 1.1-2.2 1.1z"/><path class="st1" d="M94.3 123H34c-1.6 0-3.2-.3-4.7-.9-4-1.6-9-4.6-10.6-9.3-.9-2.7-.6-5.6 1.1-8.4 3.2-5.6 10-8.4 16.5-6.8l27.2 6.8 29.3-6.5c4.2-.9 8.6-.1 11.9 2.4 5.6 4.1 6.9 9.6 3.6 15.1-2.8 4.7-8.2 7.6-14 7.6zm-61.8-20.6c-3.3 0-6.5 1.7-8.1 4.5-.8 1.5-1.1 2.8-.6 4 .7 2.2 3.5 4.4 7.6 6.1.8.4 1.7.5 2.6.5h60.3c3.9 0 7.5-1.9 9.4-5.1 1.2-2.1 2.1-4.8-2.2-8-2.1-1.6-4.9-2.1-7.6-1.5l-30 6.7c-.4.1-.8.1-1.2 0l-27.8-7c-.8-.1-1.6-.2-2.4-.2z"/><path class="st1" d="M97.5 102.9c-1.5 0-2.7-1.2-2.7-2.7 0-.9.4-1.6 1-2.1 11-9.7 16.9-22.8 16.3-36-1.1-23.8-9.4-35.7-31.6-45.3-1.4-.6-2-2.2-1.4-3.5.6-1.4 2.2-2 3.5-1.4 24.2 10.5 33.6 24.1 34.8 50 .7 14.9-6 29.6-18.3 40.4-.3.4-.9.6-1.6.6zm0-2.7zM30.2 102.7c-.7 0-1.3-.2-1.8-.7-11.4-10.2-18-24.8-18-40 0-24.8 9.1-38.4 33.7-50.1 1.3-.6 2.9-.1 3.6 1.3.6 1.3.1 2.9-1.3 3.6C23.5 27.6 15.8 39 15.8 62c0 13.7 5.9 26.8 16.1 36 .6.5 1 1.2 1 2.1 0 1.4-1.2 2.6-2.7 2.6z"/></svg>