<svg version="1.1" id="Layer_1" xmlns="http://www.w3.org/2000/svg" x="0" y="0" viewBox="0 0 128 128" xml:space="preserve"><style>.st0{fill:#d6b2f5}</style><switch><g><circle class="st0" cx="19.3" cy="21" r="11.6"/><circle class="st0" cx="104" cy="21" r="11.6"/><circle class="st0" cx="108.7" cy="108.4" r="11.6"/><circle class="st0" cx="18.8" cy="105.7" r="11.6"/><path d="M26.9 45.8c-.4 0-.9-.1-1.3-.4-1.2-.7-1.6-2.2-.9-3.4 5.3-8.9 13.6-15.8 23.4-19.4 4.9-1.8 10.1-2.7 15.3-2.7 4 0 8 .5 11.9 1.6 1.3.4 2.1 1.7 1.8 3.1-.4 1.3-1.7 2.1-3.1 1.8-3.4-.9-7-1.4-10.6-1.4-4.7 0-9.3.8-13.6 2.4-8.7 3.1-16.1 9.3-20.8 17.2-.4.7-1.2 1.2-2.1 1.2zM21.3 62.4H21c-1.4-.2-2.4-1.4-2.2-2.8.3-2.6.9-5.3 1.7-7.9.1-.4.3-.8.7-1.2 1-1 2.6-1 3.5 0 .5.5.7 1.1.7 1.8 0 .3 0 .5-.1.7-.7 2.4-1.2 4.7-1.5 7.1-.2 1.4-1.3 2.3-2.5 2.3zM40.7 103.5c-.5 0-.9-.1-1.3-.4C27 95.2 19.2 81.8 18.5 67.2c-.1-1.4 1-2.6 2.4-2.6 1.4-.1 2.6 1 2.6 2.4.6 13 7.6 24.9 18.6 31.9 1.2.7 1.5 2.3.8 3.5-.5.6-1.4 1.1-2.2 1.1zM63.5 110.1c-5.1 0-10.1-.8-14.8-2.5-1.3-.5-2-1.9-1.5-3.2.5-1.3 1.9-2 3.2-1.5 4.2 1.5 8.6 2.2 13.2 2.2 14.4 0 27.7-7.8 34.8-20.2.7-1.2 2.2-1.6 3.4-.9 1.2.7 1.6 2.2.9 3.4-8 13.9-23 22.7-39.2 22.7zM104.1 80.5c-.3 0-.5 0-.8-.1-1.3-.4-2-1.8-1.6-3.1 1.3-3.9 1.9-8 1.9-12.2 0-14.4-7.8-27.8-20.4-34.9-1.2-.7-1.6-2.2-1-3.4.7-1.2 2.2-1.6 3.4-1 14.2 8 23 23 23 39.3 0 4.7-.7 9.3-2.1 13.7-.4 1-1.4 1.7-2.4 1.7zM20.9 34.3h-.6c-1.7-.1-3.2-.9-4.4-2.3l-5-5.9c-2.3-2.7-1.9-6.7.8-9l3.9-3.3c1.3-1.1 3-1.6 4.7-1.5 1.7.1 3.2.9 4.4 2.3l5 5.9c1.1 1.3 1.6 3 1.5 4.7-.1 1.7-.9 3.2-2.3 4.4L25 32.8c-1.1 1-2.6 1.5-4.1 1.5zm-1.1-17c-.3 0-.6.1-.9.3L15 20.9c-.6.5-.7 1.4-.2 2l5 5.9c.5.6 1.4.7 2 .2l3.9-3.3c.3-.2.5-.6.5-1s-.1-.7-.3-1l-5-5.9c-.2-.3-.6-.5-1-.5h-.1zM107.4 116.1c-1.5 0-3-.5-4.1-1.5l-5.9-5c-2.7-2.3-3-6.3-.7-9l3.3-3.9c2.3-2.7 6.3-3 9-.7l5.9 5c2.7 2.3 3 6.3.7 9l-3.3 3.9c-1.1 1.3-2.7 2.1-4.4 2.2h-.5zm-2.6-16.7c-.4 0-.8.2-1.1.5l-3.3 3.9c-.5.6-.4 1.5.2 2l5.9 5c.3.2.7.4 1 .3.4 0 .7-.2 1-.5l3.3-3.9c.5-.6.4-1.5-.2-2l-5.9-5c-.3-.2-.6-.3-.9-.3zm8.9 9zM101.8 33.9c-1.6 0-3.3-.6-4.5-1.9l-3.6-3.6c-2.5-2.5-2.5-6.6 0-9.1l5.5-5.5c2.5-2.5 6.6-2.5 9.1 0l3.6 3.6c2.5 2.5 2.5 6.6 0 9.1l-5.5 5.5c-1.3 1.3-2.9 1.9-4.6 1.9zm-1-5.4c.5.5 1.4.5 2 0l5.5-5.5c.3-.3.4-.6.4-1s-.1-.7-.4-1l-3.6-3.6c-.5-.5-1.5-.5-2 0L97.3 23c-.5.5-.5 1.4 0 2l3.5 3.5zM20.1 116c-1.6 0-3.3-.6-4.5-1.9l-3.6-3.6c-2.5-2.5-2.5-6.6 0-9.1l5.5-5.5c2.5-2.5 6.6-2.5 9.1 0l3.6 3.6c2.5 2.5 2.5 6.6 0 9.1l-5.5 5.5c-1.3 1.3-3 1.9-4.6 1.9zM22 99.1c-.4 0-.7.1-1 .4l-5.5 5.5c-.3.3-.4.6-.4 1s.1.7.4 1l3.6 3.6c.5.5 1.4.5 2 0l5.5-5.5c.3-.3.4-.6.4-1s-.1-.7-.4-1L23 99.6c-.3-.3-.6-.5-1-.5z"/><path d="M29.9 60.1c-2.1 0-3.9-.8-4.3-.9-.3-.1-.6-.4-.9-.6-.2-.2-4-4.5-11.6-14.6-3.6-5-5.1-9.1-4.4-12.5.5-2.2 2-3.7 3.1-4.2l2.3 4.5.1-.1s-.5.3-.6 1.1c-.2 1.1 0 3.5 3.5 8.2 6.1 8.1 9.8 12.5 11 13.9.9.3 2.2.5 2.6.1.3-.2.6-1.1.5-2.7l-7.4-8.9c-1.7-1.4-4.1-4.8-3-9.9.3-1.4 1.6-2.2 3-1.9 1.4.3 2.2 1.6 1.9 3-.7 3.4 1.3 5 1.3 5 .2.1.3.3.5.4l8.1 9.7c.3.4.5.8.6 1.3.5 3.8-.3 6.5-2.4 8-1.3.8-2.7 1.1-3.9 1.1zM40.8 29.2c-.7 0-1.5-.3-2-1-2.2-2.8-7.2-1.1-7.2-1.1-1.3.5-2.7-.2-3.2-1.5s.2-2.7 1.5-3.2c.3-.1 8.4-3 12.9 2.7.8 1.1.6 2.7-.4 3.5-.5.4-1 .6-1.6.6z"/><path d="M49.4 26.9c-.2 0-.5 0-.7-.1-.5-.2-1.4-.4-9.3-8.3-5.5-5.5-10.5-1.4-11.1-1-1 .9-2.6.8-3.5-.2-.9-1-.8-2.6.2-3.5 3.1-2.7 10.7-6 17.9 1.1 5.8 5.8 7.4 7 7.7 7.2 1 .6 1.5 1.8 1.2 2.9-.3 1.2-1.3 1.9-2.4 1.9zm.8-4.9zm0 0zm0 0zM33.2 119.5c-4.6 0-8.3-2.9-10-5-.9-1.1-.7-2.7.4-3.5 1.1-.8 2.6-.7 3.5.4.4.5 4.4 5.1 9.6 2.1 1.2-.7 2.7-.3 3.4.9s.3 2.7-.9 3.4c-2 1.2-4.1 1.7-6 1.7zM43.3 115.4c-.6 0-1.1-.2-1.6-.6-1.1-.9-1.2-2.4-.4-3.5L53 96.9l.1-.1c.2-.3.8-1.1.7-1.6 0-.3-.3-.7-.9-1.1-.7-.5-1-.4-1.1-.4-.8.1-1.6 1.3-1.8 1.7-.1.2-.3.5-.5.7l-8.7 8.3c-1 1-2.6.9-3.5-.1-1-1-.9-2.6.1-3.5l8.5-8.1c.6-1 2.2-3.3 4.8-3.9 1.2-.3 3.1-.3 5.2 1.2 2.2 1.6 2.8 3.4 2.9 4.7.3 2.8-1.5 5-2 5.5l-11.7 14.4c-.4.5-1.1.8-1.8.8z"/><path d="M33.2 109c-1.4 0-3.1-.4-4.9-1.9-1.1-.9-1.2-2.5-.3-3.5.9-1.1 2.5-1.2 3.5-.3.9.8 1.5.8 1.9.7 1.5-.2 3.1-2.1 3.5-2.8.7-1.2 2.3-1.5 3.4-.8 1.2.7 1.5 2.3.8 3.4-.3.5-2.9 4.5-6.9 5.1-.3.1-.6.1-1 .1zM91.3 109c-2.9 0-5.6-1.4-7.1-2.5-1.1-.8-1.3-2.4-.5-3.5s2.4-1.3 3.5-.5c.2.1 3.9 2.9 6.5.5 1-.9 2.6-.9 3.5.1.9 1 .9 2.6-.1 3.5-1.8 1.8-3.9 2.4-5.8 2.4z"/><path d="M94.1 119.4c-3.4 0-7-1.1-9.5-2.3-.2-.1-.3-.2-.5-.3l-8.9-6.7c-1.1-.8-1.3-2.4-.5-3.5s2.4-1.3 3.5-.5l8.7 6.5c1.4.6 9.7 3.8 11.9-.7.6-1.2 2.1-1.8 3.3-1.2 1.2.6 1.8 2.1 1.2 3.3-1.9 4.1-5.5 5.4-9.2 5.4zM104.1 97.7c-.5 0-1-.2-1.5-.5-1.1-.8-1.4-2.4-.5-3.5.4-.5-1-3.5-3.3-6-.9-1-.9-2.6.1-3.5 1-1 2.6-.9 3.5.1 1.2 1.3 7.1 7.8 3.8 12.4-.6.7-1.4 1-2.1 1z"/><path d="M111.9 102.1c-.4 0-.7-.1-1.1-.3-1.2-.6-1.8-2.1-1.2-3.3.2-.5 4.7-10.4-7.3-18.8-1.1-.8-1.4-2.3-.6-3.5.8-1.1 2.3-1.4 3.5-.6 15.6 10.8 9.1 24.9 9 25-.5.9-1.4 1.5-2.3 1.5z"/><path d="M99.2 88.1c-.6 0-1.3-.2-1.8-.7l-9.5-9.6c-.5-.5-.8-1.2-.7-1.9.2-3.3 1.7-5 2.8-5.9 2.4-1.8 5.4-1.3 5.7-1.2.4.1.8.3 1.1.5l7 6c1.1.9 1.2 2.5.3 3.5-.9 1.1-2.5 1.2-3.5.3l-6.4-5.5c-.4 0-.8.1-1.2.4-.3.3-.5.7-.7 1.2l8.6 8.7c1 1 1 2.6 0 3.5-.5.5-1.1.7-1.7.7zM73.8 39.7h-.5c-2.6-.2-5.1-2.3-7.3-6-.5-.9-.5-2 .2-2.8l5.4-6.9c.7-1 9.9-13.4 19.6-14.2 3.6-.3 6.8.9 9.5 3.6 1 1 1 2.6 0 3.5-1 1-2.6 1-3.5 0-1.6-1.6-3.5-2.3-5.5-2.1-6.4.5-13.7 9-16 12.2 0 0 0 .1-.1.1l-4.4 5.5c1.5 2 2.4 2.2 2.5 2.2h.3l.2-.2c.1-.1 6.5-6.2 9.7-9.7 3.5-3.8 7.6-3.7 9.4-3 1.3.5 1.9 1.9 1.5 3.2-.5 1.3-1.9 1.9-3.2 1.5-.2-.1-2-.5-4 1.7-3.2 3.5-9.2 9.2-9.9 9.9-.8.6-2.2 1.5-3.9 1.5zM102.1 44.1c-.8 0-1.6-.4-2.1-1.2-.7-1.2-.4-2.7.8-3.5 1.3-.8 2-1.7 2.1-2.4.1-.7-.5-1.3-.5-1.3-1-1-1-2.5 0-3.5s2.5-1 3.5 0c.2.2 2.3 2.3 2 5.4-.2 2.3-1.7 4.4-4.4 6.1-.5.3-1 .4-1.4.4z"/><path d="M106.4 54.3l-2.1-4.6s-.1 0-.2.1c.1 0 1.7-1.2 5.5-7.6 3.7-6.3-.8-14.2-.8-14.3-.7-1.2-.3-2.7.9-3.4 1.2-.7 2.7-.3 3.4.9.2.4 6 10.5.8 19.4-3.3 5.4-5.9 8.8-7.5 9.5zM19.6 96.8c-1.4 0-2.5-1.1-2.5-2.5 0-3 1.5-8.5 6.8-9.9 1.3-.4 2.7.4 3.1 1.8.4 1.3-.4 2.7-1.8 3.1-3 .8-3.1 5-3.1 5.1 0 1.3-1.2 2.4-2.5 2.4z"/><path d="M13.6 103c-.9 0-1.7-.5-2.2-1.3 0-.1-7.4-13.7 7.4-25.3 1.1-.8 2.7-.7 3.5.4.8 1.1.7 2.7-.4 3.5-11.3 8.8-6.3 18.5-6 18.9.7 1.2.2 2.7-1 3.4-.4.3-.8.4-1.3.4zM79.9 62.6c-1.4 0-2.8-.6-3.8-1.6l-8-8c-1-1-1.6-2.4-1.6-3.8s.6-2.8 1.6-3.8l5.8-5.8c1-1 2.4-1.6 3.8-1.6s2.8.6 3.8 1.6l8 8c2.1 2.1 2.1 5.5 0 7.6L83.8 61c-1.1 1-2.4 1.6-3.9 1.6zm-.2-5.1c.2.2.4.2.5 0l5.8-5.8c.2-.2.2-.4 0-.5l-8-8c-.2-.2-.4-.2-.5 0L71.7 49c-.1.1-.1.2-.1.3 0 .1 0 .2.1.3l8 7.9zM44.6 91.5c-1.5 0-3.1-.7-4.1-1.9L33.2 81c-1.9-2.3-1.6-5.7.6-7.6l6.3-5.3c1.1-.9 2.5-1.4 3.9-1.2 1.4.1 2.7.8 3.7 1.9l7.3 8.6c.9 1.1 1.4 2.5 1.2 3.9-.1 1.4-.8 2.7-1.9 3.7L48 90.3c-1 .8-2.2 1.2-3.4 1.2zm-.3-5.1c.1.2.4.2.5 0l6.3-5.3c.1-.1.1-.2.1-.3 0-.1 0-.2-.1-.3L43.9 72c-.1-.1-.2-.1-.3-.1-.1 0-.2 0-.3.1L37 77.2c-.2.1-.2.4 0 .5l7.3 8.7z"/><path d="M39.1 84.7c-.7 0-1.5-.3-2-1-.9-1.1-.7-2.7.4-3.5l8.8-6.9c1.1-.9 2.7-.7 3.5.4.9 1.1.7 2.7-.4 3.5l-8.8 6.9c-.5.4-1 .6-1.5.6z"/></g></switch></svg>