<svg version="1.1" id="Layer_1" xmlns="http://www.w3.org/2000/svg" x="0" y="0" viewBox="0 0 128 128" style="enable-background:new 0 0 128 128" xml:space="preserve"><style>.st2{display:inline}.st3{fill:#231f20}</style><circle cx="57.2" cy="21.3" style="fill:#d6b2f5" r="11.8"/><path class="st3" d="M69.5 19.7c-.9-3.7-3.7-6.6-7.2-7.8-.2-.1-.4-.1-.6-.2h-.2c-.8-.2-1.7-.3-2.5-.3s-1.6.1-2.4.3c-1.1.2-2.1.7-3 1.2-.1 0-.2.1-.2.1-3.1 1.9-5.1 5.3-5.1 9.2C48.2 28.2 53 33 59 33c4.2 0 7.9-2.4 9.7-6 .7-1.5 1.1-3.1 1.1-4.8 0-.9-.1-1.7-.3-2.5zM59 27.6c-3 0-5.4-2.4-5.4-5.4 0-3 2.4-5.4 5.4-5.4 3 0 5.4 2.4 5.4 5.4 0 3-2.4 5.4-5.4 5.4zM93.5 124.3c-.5.7-1.3 1.1-2.1 1.1H29.1c-.8 0-1.6-.4-2.1-1.1-.5-.7-.7-1.6-.5-2.5l11-51.2c.3-1.6 1.8-2.5 3.2-2.2 1.5.4 2.4 1.9 2 3.5l-10.2 47.7h55.6l-8.6-45.9c.6-.2 1.2-.6 2-1.1l1.8-8L94.1 122c.1.7-.1 1.6-.6 2.3z"/><path class="st3" d="M76.2 31.9c-3.8 0-7.1-2.5-10-7.4-.8-1.3-.3-3 1-3.7 1.3-.8 3-.3 3.7 1 1.2 2.1 3.2 4.7 5.3 4.7 1 0 2.1-.6 3-1.3-4.1-1.5-6.8-5.2-7.6-10.6-.2-1.3-.7-3.1-1.9-4.5-1.1-1.2-2.1-1.7-2.9-1.6-2.1.3-4.3 3.8-5 5.5-.6 1.4-2.2 2-3.6 1.4-1.4-.6-2-2.2-1.4-3.6.4-.8 3.6-7.7 9.1-8.6 1.9-.3 4.8 0 7.8 3.3 1.8 1.9 2.9 4.5 3.3 7.4 1 7 5.7 6.8 7.3 6.7 1 0 1.9.5 2.5 1.3.5.9.5 1.9 0 2.8-.5.6-4.5 7.2-10.6 7.2zM53.2 116.8c-3 0-5.8-1.5-6.2-1.7-.6-.3-1.1-.9-1.2-1.6l-4.2-20.2c-.1-.2-.1-.5 0-.7l.6-5.7c.1-1.3 1.3-2.3 2.7-2.2 1.3.1 2.3 1.3 2.2 2.7l-.5 5.3 3.9 18.7c1.2.5 2.9.9 3.9.5.2-.1.5-.3.8-.8l-5.3-23.4c-.3-1.3.5-2.6 1.8-2.9 1.3-.3 2.6.5 2.9 1.8l5.5 24.2c.1.4.1.9-.1 1.3-.9 2.6-2.6 3.8-3.9 4.3-1 .3-2 .4-2.9.4z"/><path class="st3" d="M67.3 115.9c-3.4 0-6.2-2.5-6.5-2.8-.4-.4-.7-.9-.8-1.4l-3.9-24.2c-.2-1.3.7-2.6 2-2.8 1.3-.2 2.6.7 2.8 2l3.7 23.3c.8.5 1.9 1.1 2.8 1 .2 0 .5-.1.9-.5l-1-23.3c-.1-1.3 1-2.5 2.3-2.5 1.3-.1 2.5 1 2.5 2.3l1.1 24.2c0 .5-.1 1-.4 1.4-1.5 2.4-3.5 3-4.9 3.2-.1 0-.3.1-.6.1z"/><path class="st3" d="M76 88.6H41c-.8 0-1.6-.4-2-1.1-.5-.7-.5-1.5-.2-2.3l9.5-23.9-1-5.9-7.3 8.3c-2.1 2.4-4.9 4.1-7.9 4.7-2.9.6-4.8 0-5.9-1.6-2.3-3.6-1.4-8.1 2.4-11.9l8.5-8.4 6.3-7.1c4.3-4.8 10.5-7.4 17-7.1l4.5.2c2.7.1 5.3 1.2 7.4 3L83.2 45c2.9 2.5 4.1 6.4 3.3 10.1l-3.7 16c-.1.5-.4 1-.9 1.4-.9.7-1.8 1.2-2.6 1.5-1.6.6-2.9.4-3.8 0l2.8 11.5c.2.7 0 1.5-.4 2.1-.5.6-1.2 1-1.9 1zm-31.5-4.9h28.3l-8.9-36.3c-.2-1 .1-2 1-2.6.8-.6 1.9-.6 2.8 0l8.8 6c.7.5 1.1 1.3 1.1 2.2l-.8 14.9c.1.7.5 1.5.7 1.7 0 0 .1 0 .3-.1.1 0 .3-.1.6-.3L81.7 54c.5-2-.2-4-1.7-5.3l-10.8-9.4c-1.2-1.1-2.8-1.7-4.4-1.8l-4.5-.2c-5-.3-9.8 1.7-13.1 5.5l-6.4 7.1-.1.1-8.6 8.5c-.7.7-2.9 3.1-1.9 5.3.2 0 .6 0 1.1-.1 1.9-.4 3.7-1.5 5.2-3.1l10.6-12.2c.6-.7 1.6-1 2.5-.7.9.3 1.6 1 1.7 1.9l1.9 11.7c.1.4 0 .9-.1 1.3l-8.6 21.1zm25.7-31.3 2 8.3.4-6.7-2.4-1.6z"/></svg>