<?xml version="1.0" encoding="utf-8"?>
<!-- Generator: Adobe Illustrator 24.3.0, SVG Export Plug-In . SVG Version: 6.00 Build 0)  -->
<svg version="1.1" id="Layer_1" xmlns="http://www.w3.org/2000/svg" xmlns:xlink="http://www.w3.org/1999/xlink" x="0px" y="0px"
	 viewBox="0 0 128 128" style="enable-background:new 0 0 128 128;" xml:space="preserve">
<style type="text/css">
	.st0{fill:#D6B2F5;}
	.st1{fill:#231F20;}
</style>
<g>
	<ellipse class="st0" cx="40.6" cy="94.2" rx="12.8" ry="12.9"/>
	<ellipse class="st0" cx="102.7" cy="95.5" rx="11.5" ry="11.5"/>
	<g>
		<path class="st1" d="M122.3,80.9H46.1c-1.5,0-2.7-1.2-2.7-2.7V34.6c0-1.5,1.2-2.7,2.7-2.7h76.1c1.5,0,2.7,1.2,2.7,2.7v43.5
			C125,79.7,123.8,80.9,122.3,80.9z M48.9,75.5h70.7V37.4H48.9V75.5z"/>
	</g>
	<g>
		<path class="st1" d="M121.8,97.8h-9.1c-1.3,0-2.4-0.9-2.7-2.2c-0.1-0.5-1.3-5.6-7.4-5.6s-7.2,5-7.3,5.5c-0.2,1.3-1.4,2.3-2.7,2.3
			h-40c-1.3,0-2.4-0.9-2.7-2.1c-0.6-2.7-1.8-4.9-3.6-6.6c-2.8-2.6-7-3.2-10.4-1.5c-4.7,2.3-5.1,7.5-5.1,7.7
			c-0.1,1.4-1.3,2.6-2.7,2.6H4.7C3.2,97.8,2,96.5,2,95V73.3c0-0.6,0.2-1.2,0.5-1.6c0.1-0.1,8.7-11.8,14-21.1c4.7-8.4,9.9-9.3,12.6-9
			c1,0.1,2.1,0.2,3.1,0.2H45v5.4H32.2c-1.2,0-2.5-0.1-3.5-0.2c-0.9-0.1-3.9,0.2-7.4,6.3c-4.7,8.4-11.8,18.2-13.8,21v18.1h18.4
			c0.7-2.8,2.6-7.2,7.7-9.7C39,80,45.7,81,50.1,85.1c2.1,2,3.7,4.4,4.6,7.3h36c1.4-3.5,4.9-7.8,12-7.8c7,0,10.7,4.3,12.1,7.8h4.3
			V79.7h5.4V95C124.6,96.5,123.3,97.8,121.8,97.8z"/>
	</g>
	<g>
		<path class="st1" d="M38.5,69.4C38.4,69.4,38.4,69.4,38.5,69.4L18.8,69c-0.9,0-1.8-0.5-2.3-1.3s-0.5-1.8-0.1-2.6
			C19,59.8,24,50.8,27.8,49.6c3.8-1.3,10.4-0.2,11.1-0.1c1.3,0.2,2.3,1.4,2.3,2.7v14.6c0,0.7-0.3,1.4-0.8,1.9
			C39.9,69.1,39.2,69.4,38.5,69.4z M23.3,63.6l12.4,0.3v-9.4c-2.2-0.2-4.8-0.3-6.2,0.2C28.5,55.2,25.9,59,23.3,63.6z"/>
	</g>
	<g>
		<path class="st1" d="M21.6,93.8h-5.4v-5.2H5.8v-5.4h13.1c1.5,0,2.7,1.2,2.7,2.7C21.6,85.9,21.6,93.8,21.6,93.8z"/>
	</g>
	<g>
		<path class="st1" d="M40.6,105.9c-5.1,0-9.3-4.2-9.3-9.3c0-5.1,4.2-9.3,9.3-9.3s9.3,4.2,9.3,9.3C49.9,101.8,45.7,105.9,40.6,105.9
			z M40.6,92.9c-2.1,0-3.8,1.7-3.8,3.8s1.7,3.8,3.8,3.8s3.8-1.7,3.8-3.8S42.7,92.9,40.6,92.9z"/>
	</g>
	<g>
		<path class="st1" d="M102.7,104.8c-3.9,0-7.1-3.2-7.1-7.1s3.2-7.1,7.1-7.1s7.1,3.2,7.1,7.1S106.6,104.8,102.7,104.8z M102.7,96.1
			c-0.9,0-1.6,0.7-1.6,1.6s0.7,1.6,1.6,1.6s1.6-0.7,1.6-1.6S103.6,96.1,102.7,96.1z"/>
	</g>
	<ellipse class="st0" cx="82.8" cy="56.4" rx="17" ry="17.1"/>
</g>
</svg>
