<svg version="1.1" id="Layer_1" xmlns="http://www.w3.org/2000/svg" x="0" y="0" viewBox="0 0 128 128" style="enable-background:new 0 0 128 128" xml:space="preserve"><style>.st0{fill:#d6b2f5}.st1{fill:#231f20}</style><circle class="st0" cx="30.7" cy="79.7" r="11.8"/><ellipse class="st0" cx="68.7" cy="23.7" rx="14.2" ry="14.3"/><path class="st1" d="M119 26.5h-17c-1.4 0-2.5-1.1-2.5-2.5V13.5c0-6.1 4.9-11 11-11s11 4.9 11 11V24c0 1.4-1.1 2.5-2.5 2.5zm-14.5-5h12v-8c0-3.3-2.7-6-6-6s-6 2.7-6 6v8z"/><path class="st1" d="M32.5 21c-1.3 0-2.4-1-2.5-2.3-.4-5.7.7-10.1 3.4-13 2.9-3.2 6.6-3.2 7-3.2h67.2c1.4 0 2.5 1.1 2.5 2.5s-1.1 2.5-2.5 2.5H40.3c-.1 0-1.9.1-3.4 1.7-1.6 1.8-2.3 4.9-2 9.1.1 1.4-.9 2.6-2.3 2.7h-.1zM93.5 114H55.3c-1.4 0-2.5-1.1-2.5-2.5s1.1-2.5 2.5-2.5h38.2c2.6 0 4.4-.9 5.4-2.7.4-.8.6-1.7.6-2.8V26c0-1.4 1.1-2.5 2.5-2.5s2.5 1.1 2.5 2.5v77.5c0 1.9-.4 3.7-1.2 5.2-1.1 2-3.8 5.3-9.8 5.3z"/><path class="st1" d="M34.5 39h-5.8c-.9 0-1.8-.5-2.2-1.4l-4-7.8-.3-.9-1-10.2c-.1-.7.2-1.4.6-1.9.5-.5 1.1-.8 1.9-.8h14.8c1.4 0 2.5 1.1 2.5 2.5 0 .3.1 6.9-1.1 10.9-1.1 4-3.2 8-3.3 8.2-.3.9-1.2 1.4-2.1 1.4zm-4.3-5h2.7c.6-1.4 1.6-3.8 2.3-6 .6-2 .8-5 .9-7h-9.5l.7 7 2.9 6z"/><path class="st1" d="M27.5 71.5c-1.4 0-2.5-1.1-2.5-2.5V34c0-1.4 1.1-2.5 2.5-2.5S30 32.6 30 34v35c0 1.4-1.1 2.5-2.5 2.5zM35.1 71.2c-1.4 0-2.5-1.1-2.5-2.5V36c0-1.4 1.1-2.5 2.5-2.5s2.5 1.1 2.5 2.5v32.7c0 1.4-1.1 2.5-2.5 2.5z"/><path class="st1" d="M31.5 89C25.2 89 20 83.8 20 77.5S25.2 66 31.5 66 43 71.2 43 77.5 37.8 89 31.5 89zm0-18c-3.6 0-6.5 2.9-6.5 6.5s2.9 6.5 6.5 6.5 6.5-2.9 6.5-6.5-2.9-6.5-6.5-6.5z"/><path class="st1" d="M34 125.4c-5.4 0-11.3-1.3-17.5-3.9-13.7-5.7-11.4-21.5-8.3-29 .2-.4.4-.7.7-1 3.6-3 3.8-13.7 3.1-19.8v-.5c.4-5.4 2.1-9.3 5.1-11.8 3.5-2.9 7.2-2.5 7.7-2.5 1.4.2 2.4 1.4 2.2 2.8-.2 1.4-1.4 2.3-2.7 2.2-.1 0-2.2-.1-4 1.4-1.8 1.5-2.9 4.3-3.2 8 .3 2.7 1.6 17.6-4.4 23.5-1.1 2.9-5.6 17.2 5.8 22 13.7 5.7 25.7 4.3 32.1-3.9l.1-.1c.2-.3 6.5-8-3.2-23-.1-.2-.2-.3-.3-.5-.1-.4-3.3-9.5-.8-19.4-.5-1.9-1.9-5.7-4.4-7.3-1.3-.8-2.7-1.1-4.4-.7-1.4.3-2.7-.6-3-1.9-.3-1.4.6-2.7 1.9-3 3-.6 5.8-.2 8.2 1.4 5.1 3.4 6.6 10.7 6.7 11 .1.4.1.8 0 1.1-2.1 7.7 0 15.3.5 16.8C63 105 55.3 115 54.4 116.1c-4.8 6.1-11.9 9.3-20.4 9.3zM59.2 29.4c-.6 0-1.2-.2-1.7-.6-.6-.6-.9-1.4-.8-2.3l1.3-7.7c.2-.9.8-1.7 1.7-2l17.4-5.3c.8-.2 1.6-.1 2.2.4.6.5 1 1.2 1 2v7.4c0 1.1-.7 2.1-1.8 2.4L60 29.3c-.3.1-.5.1-.8.1zm3.5-8.2-.4 2.2 13-3.8v-2.2l-12.6 3.8z"/><path class="st1" d="M60.7 41.6h-.4c-1.4-.2-2.3-1.5-2.1-2.8L60.1 26c.2-1.4 1.5-2.3 2.8-2.1 1.4.2 2.3 1.5 2.1 2.8l-1.9 12.8c-.1 1.2-1.2 2.1-2.4 2.1zM73.8 37.5h-.2c-1.4-.1-2.4-1.3-2.3-2.7l1.1-12c.1-1.4 1.3-2.4 2.7-2.3 1.4.1 2.4 1.3 2.3 2.7l-1.1 12c-.1 1.3-1.2 2.3-2.5 2.3z"/><ellipse class="st1" cx="58.3" cy="40" rx="4.7" ry="3"/><ellipse class="st1" cx="71.3" cy="36" rx="4.7" ry="3"/><path class="st1" d="M72 54.5H45c-1.4 0-2.5-1.1-2.5-2.5s1.1-2.5 2.5-2.5h27c1.4 0 2.5 1.1 2.5 2.5s-1.1 2.5-2.5 2.5zM91.5 114c-.2 0-.4 0-.7-.1-3.3-.9-5.7-2.8-7.1-5.6-2.1-4.1-1.5-9.3-.8-12.7H53.3c-1.4 0-2.5-1.1-2.5-2.5s1.1-2.5 2.5-2.5h33c.8 0 1.6.4 2.1 1.1s.6 1.5.3 2.3c-.8 2.1-2.4 8.3-.4 12 .8 1.5 2.1 2.5 4 3 1.3.4 2.1 1.7 1.8 3.1-.5 1.2-1.5 1.9-2.6 1.9zM89.3 54.5h-6.2c-1.4 0-2.5-1.1-2.5-2.5s1.1-2.5 2.5-2.5h6.2c1.4 0 2.5 1.1 2.5 2.5s-1.2 2.5-2.5 2.5zM90.6 64H59.5c-1.4 0-2.5-1.1-2.5-2.5s1.1-2.5 2.5-2.5h31.1c1.4 0 2.5 1.1 2.5 2.5S92 64 90.6 64zM74.4 73.4H53.3c-1.4 0-2.5-1.1-2.5-2.5s1.1-2.5 2.5-2.5h21.1c1.4 0 2.5 1.1 2.5 2.5s-1.1 2.5-2.5 2.5z"/><g><path class="st1" d="M91.5 73.4h-8.4c-1.4 0-2.5-1.1-2.5-2.5s1.1-2.5 2.5-2.5h8.4c1.4 0 2.5 1.1 2.5 2.5s-1.1 2.5-2.5 2.5z"/></g><g><path class="st1" d="M90.6 83H59.5c-1.4 0-2.5-1.1-2.5-2.5s1.1-2.5 2.5-2.5h31.1c1.4 0 2.5 1.1 2.5 2.5S92 83 90.6 83z"/></g><g><path class="st1" d="M51 64h-4.1c-1.4 0-2.5-1.1-2.5-2.5s1.1-2.5 2.5-2.5H51c1.4 0 2.5 1.1 2.5 2.5S52.3 64 51 64z"/></g><g><path class="st1" d="M39 110H25c-3.9 0-7-3.1-7-7s3.1-7 7-7h14c3.9 0 7 3.1 7 7s-3.1 7-7 7zm-14-9c-1.1 0-2 .9-2 2s.9 2 2 2h14c1.1 0 2-.9 2-2s-.9-2-2-2H25z"/></g></svg>