<svg version="1.1" id="Layer_1" xmlns="http://www.w3.org/2000/svg" x="0" y="0" viewBox="0 0 128 128" xml:space="preserve"><style>.st0{fill:#d6b2f5}.st1{fill:#231f20}</style><switch><g><circle class="st0" cx="41.7" cy="63" r="11.6"/><circle class="st0" cx="87.6" cy="99.8" r="11.6"/><path class="st1" d="M24.3 127.4c-1.4 0-2.5-1.1-2.5-2.5V65.4c0-2.8.7-5.6 1.9-7.9C26 53 31.6 45.7 43.1 46.2c8.8.4 13.4 4.5 15.7 7.8 1.9 2.7 2.9 6.1 2.9 9.7l-.2 61c0 1.4-1.1 2.5-2.5 2.5s-2.5-1.1-2.5-2.5l.2-61c0-2.6-.7-4.9-2-6.8-2.4-3.5-6.4-5.4-11.9-5.6-8.3-.4-12.5 4.4-14.7 8.5-.9 1.7-1.3 3.6-1.3 5.6v59.5c0 1.3-1.1 2.5-2.5 2.5z"/><path class="st1" d="M51.5 73.1H33.4c-1.4 0-2.5-1.1-2.5-2.5V37.8c0-1.4 1.1-2.5 2.5-2.5h5c1.4 0 2.5 1.1 2.5 2.5s-1.1 2.5-2.5 2.5h-2.5v27.8H49V48.6c0-1.4 1.1-2.5 2.5-2.5s2.5 1.1 2.5 2.5v21.9c0 1.5-1.1 2.6-2.5 2.6zM68.4 33.9c-.7 0-1.4-.3-1.9-.9L54.6 19.4c-.4-.5-.7-1.2-.6-1.8s.4-1.3.9-1.7L70.4 2.3c4.8-4.2 12.1-3.7 16.3 1.1 2 2.3 3 5.3 2.8 8.4-.2 3.1-1.6 5.9-3.9 7.9L70 33.3c-.5.4-1.1.6-1.6.6zM60 18l8.6 9.9L82.3 16c1.3-1.1 2.1-2.7 2.2-4.5.1-1.8-.5-3.5-1.6-4.8-2.4-2.7-6.5-3-9.2-.6L60 18z"/><path class="st1" d="M46.3 55.2c-.8 0-1.6-.4-2.1-1.1-.7-1.2-.4-2.7.8-3.5 4.8-3.1 7.5-6.3 7.5-8.9 0-2.7-2.7-4.5-2.8-4.5-1.6-1.1-3.2-1.4-4.7-1-3.3.8-6.2 4.8-7 6.2-.7 1.2-2.2 1.6-3.4 1-1.2-.7-1.6-2.2-1-3.4.2-.3 4-7.1 10.1-8.6 2.9-.7 5.9-.2 8.7 1.6.2.1 5 3.2 5.1 8.6 0 4.5-3.3 8.9-9.8 13.1-.5.4-.9.5-1.4.5z"/><path class="st1" d="M40.6 48.9c-.7 0-1.4-.3-1.9-.9-.9-1-.8-2.6.3-3.5l11.9-10.2c1-.9 2.6-.8 3.5.3.9 1 .8 2.6-.3 3.5L42.2 48.3c-.4.4-1 .6-1.6.6z"/><path class="st1" d="M51.6 38.1c-.7 0-1.3-.3-1.8-.8-.9-1-.9-2.6.1-3.5l10.8-10c1-.9 2.6-.9 3.5.1.9 1 .9 2.6-.1 3.5l-10.8 10c-.5.5-1.1.7-1.7.7zM99.9 114.7l-23.4-.2c-3.2 0-5.6-.9-7.1-2.7-1.6-1.9-1.4-4-1.4-4.6l1.6-15.3c0-.3.1-.5.2-.8l7.3-15.9L74.8 50c-.1-.8.2-1.6.8-2.1 9.1-8.2 19.6-3.6 23.8 0 .7.6 1 1.4.9 2.3l-3.6 25.1 7.9 14.3c.2.3.3.6.3.9l1.6 14.2c.9 2.8.7 5.2-.6 7.1-1.9 2.7-5.5 2.9-6 2.9.1 0 .1 0 0 0zm-26.8-6.8s0 .4.3.8c.2.3 1 .8 3.2.9l23.3.2c.5 0 1.5-.3 1.9-.9.4-.5.3-1.6-.1-2.9-.1-.2-.1-.3-.1-.5l-1.6-14-8-14.6c-.3-.5-.4-1-.3-1.6l3.5-24.4c-2.5-1.6-8.9-4.9-15.2-.1l2.3 24.6c0 .4 0 .9-.2 1.3l-7.4 16.1-1.5 14.9c-.1.1-.1.1-.1.2z"/><path class="st1" d="M89.6 78.1h-9.8c-1.4 0-2.5-1.1-2.5-2.5s1.1-2.5 2.5-2.5h9.8c1.4 0 2.5 1.1 2.5 2.5s-1.2 2.5-2.5 2.5zM102.6 94.6H72.2c-1.4 0-2.5-1.1-2.5-2.5s1.1-2.5 2.5-2.5h30.4c1.4 0 2.5 1.1 2.5 2.5s-1.2 2.5-2.5 2.5z"/></g></switch></svg>