<svg version="1.1" id="Layer_1" xmlns="http://www.w3.org/2000/svg" x="0" y="0" viewBox="0 0 128 128" style="enable-background:new 0 0 128 128" xml:space="preserve"><style>.st1{fill:#231f20}</style><ellipse cx="66.8" cy="40.5" rx="37.4" ry="37.5" style="fill:#d6b2f5"/><path class="st1" d="M70.7 124.9c-2.1 0-4.5-.4-7.5-1.4-9.6-3.3-29.7-10.3-33-11.5-1 .1-3.9.5-7.4 2.6l-10 6c-1.2.7-2.7.3-3.4-.9s-.3-2.7.9-3.4l10-6c5.5-3.3 10.1-3.4 10.3-3.4.3 0 .6 0 .8.1 0 0 23 8 33.5 11.6 8.2 2.8 10.5-.4 10.6-.6.2-.3.3-.5.6-.7L114.3 88c.2-.9-.1-1.5-.4-1.9-.9-1.4-2.9-1.7-4.5-.8l-3.6 2.2c-.9.6-2.1.5-2.9-.2-.8-.7-1.1-1.8-.7-2.8.2-.6.3-.9-.5-1.4-1.3-.9-3-.9-4.5-.1l-11.7 6.6c-.5.4-1 .5-1.5.4-1 0-25-2-34.9-4-5.1-1-7.1-.9-7.8-.8-.3.3-.6.5-1 .6l-24 9c-1.3.5-2.7-.2-3.2-1.5s.2-2.7 1.5-3.2L38 81.4l.3-.3c1.2-.9 3.7-1.7 11.8-.1 8.7 1.8 29.3 3.6 33.6 3.9l11.1-6.2c3.1-1.8 7-1.6 9.8.3.9.6 1.6 1.4 2.1 2.2l.2-.1c3.8-2.3 8.8-1.4 11.2 2.2 1.4 2 1.7 4.4.8 6.9-.2.5-.5.9-.8 1.2l-38.7 29.8c-1 1.2-3.5 3.7-8.7 3.7zM42 83.7zm0 0zm0 0zm0 0z"/><path class="st1" d="M83.1 100H53.5c-1.4 0-2.5-1.1-2.5-2.5s1.1-2.5 2.5-2.5h29.1c1.3-.6 3.1-1.8 3.2-2.9.1-.8-.6-1.9-2.1-3.1-1.1-.9-1.2-2.5-.3-3.5.9-1.1 2.5-1.2 3.5-.3 3 2.5 4.2 5.1 3.8 7.8-.8 4.5-6.2 6.7-6.8 6.9-.2 0-.5.1-.8.1z"/><path class="st1" d="M75.5 110c-.5 0-1-.2-1.5-.5l-14-10c-1.1-.8-1.4-2.4-.6-3.5.8-1.1 2.4-1.4 3.5-.6l12.5 9 26.5-19c1.1-.8 2.7-.5 3.5.6s.5 2.7-.6 3.5l-28 20c-.3.3-.8.5-1.3.5zM66.5 79C46.9 79 31 63.1 31 43.5S46.9 8 66.5 8 102 23.9 102 43.5 86.1 79 66.5 79zm0-66C49.7 13 36 26.7 36 43.5S49.7 74 66.5 74 97 60.3 97 43.5 83.3 13 66.5 13z"/><path class="st1" d="M74.1 22H62.5c-.7 0-1.3-.3-1.8-.7l-7-7c-1-1-1-2.6 0-3.5 1-1 2.6-1 3.5 0l6.3 6.3h9.6l4.7-4.3c.6-.6 1.5-.8 2.4-.6l5.4 1.5c1.3.4 2.1 1.7 1.7 3.1-.4 1.3-1.7 2.1-3.1 1.7l-4.1-1.1-4.4 4c-.3.4-.9.6-1.6.6zM93.8 64.5c-.9 0-1.8-.5-2.2-1.3l-5.5-10.3c-.3-.5-.4-1.2-.2-1.8 0-.3-.2-2.6-5.1-6.9C75 38.9 69.2 39.9 69 40c-1.2.2-2.4-.4-2.8-1.5l-2-4.9c-.2-.6-.2-1.2-.1-1.8 2.3-6.7 21.4-10.9 27.2-12 1.3-.3 2.7.6 2.9 2 .3 1.4-.6 2.7-2 2.9-10.7 2.1-20.7 5.6-23 8.1l.8 2c2.9-.1 8.5.6 14.1 5.5 5.8 5.2 6.8 8.8 6.7 10.8l5.1 9.6c.7 1.2.2 2.7-1 3.4-.3.3-.7.4-1.1.4zM86 50.8zm0 0zm0 0z"/><path class="st1" d="M67.5 77c-1.2 0-2.2-.9-2.5-2.1 0-.1-1.9-10.8-5.5-15.6-2.4-3.2-2.6-7.3-.5-10.7 2.1-3.5 6-5.3 9.9-4.7 2.2.4 4.5.5 7.1.3 1.8-.1 3.5.5 4.8 1.7 1.3 1.2 2.1 2.8 2.1 4.6.1 3.1 0 5.2-.3 6.6-.3 1.4 1 7.7 2.3 12.8.4 1.3-.4 2.7-1.8 3.1-1.3.4-2.7-.4-3.1-1.8-1-3.6-3.1-12.1-2.4-15.2.1-.4.3-1.7.2-5.3 0-.4-.2-.8-.5-1.1-.3-.3-.7-.4-1.2-.4-2.9.2-5.6 0-8.2-.4-2.3-.4-4 1-4.8 2.3-.5.8-1.4 2.8.3 5.1 4.3 5.8 6.4 17.2 6.5 17.7.2 1.4-.7 2.7-2 2.9-.1.2-.3.2-.4.2zM42.7 68.9c-1.1 0-2.1-.7-2.4-1.8-2.6-9.4-.1-15.6 1.3-18.9.2-.5.4-1 .6-1.4.4-1.2 1.4-2.3 2.5-3.6 2.7-3.1 6-6.9 3.6-13.7-4.4-12-1.4-15.5-.3-16.3 1.1-.8 2.7-.6 3.5.5.8 1 .7 2.4-.2 3.3-.2.3-1.3 2.8 1.6 10.7 3.5 9.6-1.7 15.5-4.5 18.7-.6.6-1.4 1.6-1.5 1.9-.2.5-.4 1.1-.7 1.7-1.3 3.1-3.2 7.9-1.1 15.7.4 1.3-.4 2.7-1.7 3.1-.3 0-.5.1-.7.1zM51 17.2zm0 0z"/></svg>