<svg version="1.1" id="Layer_1" xmlns="http://www.w3.org/2000/svg" x="0" y="0" viewBox="0 0 128 128" style="enable-background:new 0 0 128 128" xml:space="preserve"><style>.st1{fill:#231f20}</style><circle cx="62.8" cy="17.1" style="fill:#d6b2f5" r="9.1"/><path class="st1" d="M85.6 33.3c-.3 0-.5 0-.8-.1-19.9-6.4-42.4 0-42.6 0-.8.2-1.6.1-2.2-.4-.6-.5-1-1.2-1-2V13.5c0-1.1.7-2.1 1.8-2.4l22.5-7c.5-.2 1.1-.2 1.6 0l20 7c.9.3 1.6 1.2 1.7 2.1l1.6 17.3c.1.8-.3 1.7-.9 2.2-.6.4-1.2.6-1.7.6zM44 15.3v12.2c6.7-1.5 22.9-4.2 38.8-.2l-1.1-12L64 9.1l-20 6.2z"/><path class="st1" d="M66.5 78.3c-10.5 0-20.4-5.3-25.4-8.6-2.5-1.7-4.2-4.3-4.5-7.3-2-17.6 2.4-30.1 2.6-30.6.5-1.3 1.9-2 3.2-1.5 1.3.5 2 1.9 1.5 3.2-.1.1-4.2 12-2.3 28.4.2 1.5 1 2.8 2.3 3.6 7 4.6 24.8 13.9 38.1 1.7 1.8-1.7 3.1-3.9 3.7-6.5 1.4-6.3 3.1-18.2-2.2-26.8-.7-1.2-.4-2.7.8-3.4 1.2-.7 2.7-.4 3.4.8 6.2 10.1 4.4 23.4 2.8 30.5-.8 3.6-2.6 6.7-5.2 9.1-5.9 5.4-12.5 7.4-18.8 7.4z"/><path class="st1" d="M71.8 76.8c-.8 0-1.6-.4-2-1.1-.8-1.1-.5-2.7.6-3.5 4.8-3.3 8-14.6 9.3-20.5-8.6-4.6-13.4-9.8-15.9-13.5-2.5 4.9-7.5 11.9-15.6 14.1.5 4.1 2.4 13.7 10.5 19.9 1.1.8 1.3 2.4.5 3.5s-2.4 1.3-3.5.5C43.1 66.8 43 51.2 43 50.5c0-1.2.9-2.3 2.1-2.5 11.3-1.7 16-16 16-16.2.3-1 1.3-1.7 2.4-1.7 1.1 0 2.1.7 2.4 1.8 0 .1 3 9 17.7 16.4 1 .5 1.5 1.6 1.3 2.7-.4 2-3.8 19.9-11.7 25.5-.4.2-.9.3-1.4.3z"/><path class="st1" d="M62.5 120c-.5 0-.9-.1-1.3-.4-1.2-.7-1.5-2.3-.8-3.4 2.6-4.2-4.5-16.1-10.8-23.9L37 94.9c-1 .2-2-.2-2.6-1-.6-.8-.6-1.9-.1-2.7l12-20c.7-1.2 2.2-1.6 3.4-.9 1.2.7 1.6 2.2.9 3.4l-9 15.1L50 87c.9-.2 1.8.1 2.4.8 3 3.6 17.9 21.9 12.2 30.9-.5.9-1.3 1.3-2.1 1.3z"/><path class="st1" d="M63.8 120s-.1 0 0 0c-1.4 0-2.5-1.2-2.5-2.5.3-15.7 11.9-29.1 12.4-29.6.5-.6 1.3-.9 2.2-.8l8.9 1L77 75.8c-.7-1.2-.4-2.7.8-3.5 1.2-.7 2.7-.4 3.5.8l10.6 16.7c.5.8.5 1.8 0 2.7-.5.8-1.5 1.3-2.4 1.2l-12.7-1.4c-2.5 3.2-10.1 13.8-10.3 25.4-.3 1.2-1.4 2.3-2.7 2.3zM54.5 93c-1.1 0-2.1-.7-2.4-1.8L47.6 75c-.4-1.3.4-2.7 1.7-3.1 1.3-.4 2.7.4 3.1 1.7l4.5 16.2c.4 1.3-.4 2.7-1.7 3.1-.2.1-.5.1-.7.1z"/><path class="st1" d="M73.2 95h-.3c-1.4-.2-2.3-1.4-2.2-2.8l2.1-16.7c.2-1.4 1.4-2.3 2.8-2.2 1.4.2 2.3 1.4 2.2 2.8l-2.1 16.7c-.2 1.2-1.2 2.2-2.5 2.2z"/><path class="st1" d="M105.5 122H20.7c-1.4 0-2.5-1.1-2.5-2.5v-27c0-.2 0-.5.1-.7C25 70 44.6 72.2 44.8 72.2c1.4.1 2.4 2.3 2.3 3.7-.1 1.4-1.3 1.4-2.7 1.3-.7 0-15.4-1.2-21.2 15.6V117H103V89.9c-1.5-2.6-9.2-14-22.1-13.1-1.4.1-2.6-.9-2.7-2.3-.1-1.4.9-2.7 2.3-2.7 18.5.2 26.9 15.6 27.2 16.3.2.4.3.8.3 1.2v30.3c0 1.3-1.1 2.4-2.5 2.4z"/><path class="st1" d="M38.5 120c-1.4 0-2.5-1.1-2.5-2.5v-6.9c0-1.4 1.1-2.5 2.5-2.5s2.5 1.1 2.5 2.5v6.9c0 1.4-1.1 2.5-2.5 2.5zM87.6 120c-1.4 0-2.5-1.1-2.5-2.5v-6.9c0-1.4 1.1-2.5 2.5-2.5s2.5 1.1 2.5 2.5v6.9c0 1.4-1.1 2.5-2.5 2.5zM67.7 20.1H59c-1.4 0-2.5-1.1-2.5-2.5s1.1-2.5 2.5-2.5h8.7c1.4 0 2.5 1.1 2.5 2.5s-1.1 2.5-2.5 2.5z"/><path class="st1" d="M63.5 24c-1.3 0-2.4-1-2.5-2.4l-.4-8.1c-.1-1.4 1-2.6 2.4-2.6 1.4-.1 2.6 1 2.6 2.4l.4 8.1c.1 1.4-1 2.6-2.4 2.6h-.1z"/></svg>