<svg version="1.1" id="Layer_1" xmlns="http://www.w3.org/2000/svg" x="0" y="0" viewBox="0 0 128 128" style="enable-background:new 0 0 128 128" xml:space="preserve"><style>.st0{fill:#d6b2f5}.st1{fill:#231f20}</style><circle class="st0" cx="102.9" cy="72.6" r="12.4"/><circle class="st0" cx="45.9" cy="103.6" r="6.6"/><path class="st1" d="M74.5 14c-1.4 0-2.5-.9-2.5-2 0-4.5-4.8-6.9-9.5-6.9S53 7.4 53 12c0 1.1-1.1 2-2.5 2s-2.5-.9-2.5-2c0-6.3 6.2-11 14.5-11S77 5.7 77 12c0 1.1-1.1 2-2.5 2z"/><path class="st1" d="M81.3 46.2c-2.7 0-7.7-1.4-14.6-9-1.4-1.6-3-2.3-5-2.3-5.8 0-13 6.7-15.3 9.3-.5.6-1.3.9-2.1.8-.8-.1-1.5-.6-1.9-1.3-3.2-5.7-6.7-19.2 2.7-29 .1-.1.2-.2.4-.3.7-.5 17.3-11.8 37.4.9l.1.1c.1.1 12.7 9.5 1.7 29.2-.3.5-.7.9-1.3 1.1-.3.2-1 .5-2.1.5zM61.7 29.8c3.4 0 6.3 1.3 8.7 4 5.5 6.1 9.1 7.2 10.6 7.3 7.4-14.4-.1-20.9-.9-21.6-16.4-10.3-29.8-2.3-31.6-1.1-6.4 6.8-4.7 15.2-3.1 19.7 3.4-3.2 9.9-8.2 16.3-8.3-.1 0 0 0 0 0z"/><path class="st1" d="M63.4 77.1c-2.3 0-4.6-.5-6.7-1.6-7.5-3.8-16.3-13-15.7-35.3 0-1.4 1.2-2.5 2.6-2.4 1.4 0 2.5 1.2 2.4 2.6-.6 19.7 6.7 27.5 12.9 30.7 3.5 1.8 7.8 1.3 11-1.3C82.4 59.7 79.2 44.7 79 44c-.3-1.3.5-2.7 1.9-3 1.3-.3 2.7.5 3 1.9.2.8 4.2 18.7-10.9 30.8-2.8 2.3-6.2 3.4-9.6 3.4z"/><path class="st1" d="M63.8 123.4c-1.4 0-2.5-1.1-2.5-2.5l-.3-17.8L48.4 83c-.4-.6-.5-1.2-.3-1.9l2.6-11.6c.3-1.3 1.7-2.2 3-1.9 1.3.3 2.2 1.6 1.9 3l-2.4 10.6L65.6 101c.2.4.4.8.4 1.3l.3 18.6c0 1.3-1.1 2.5-2.5 2.5z"/><path class="st1" d="M63.8 105.5c-.5 0-.9-.1-1.3-.4-1.2-.7-1.5-2.3-.8-3.4L73.9 82 72 70.5c-.2-1.4.7-2.6 2.1-2.9 1.4-.2 2.6.7 2.9 2.1l2 12.4c.1.6 0 1.2-.3 1.7L66 104.3c-.6.8-1.4 1.2-2.2 1.2zM45.5 99c-1.2 0-2.2-.8-2.4-2-2.5-11.5-2-18.2 1.4-21 2.2-1.8 4.8-1.3 6-.8 1.3.6 1.8 2 1.3 3.3-.6 1.2-2 1.8-3.3 1.3-.1 0-.6-.2-.9.1-.3.2-2.6 2.7.3 16.1.3 1.3-.6 2.7-1.9 3h-.5z"/><path class="st1" d="M83.5 94c-.3 0-.5 0-.8-.1-1.3-.4-2-1.9-1.6-3.2 2.3-7-4.7-11.9-5-12.1-1.1-.8-1.4-2.3-.7-3.5.8-1.1 2.3-1.5 3.5-.7 3.7 2.4 9.8 9.3 7 17.9-.4 1-1.4 1.7-2.4 1.7z"/><path class="st1" d="M86.7 114.2c-.3 0-.6-.1-.9-.2-1.3-.5-1.9-2-1.4-3.2 2.2-5.6 2.5-10.2 1-13.2-.5-1.1-1.5-1.8-2.7-2.1-1.1-.2-2.2 0-3.1.8-3.4 2.9-4.4 9.8-4.5 12.3 0 1.4-1.2 2.4-2.5 2.4h-.1c-1.4 0-2.5-1.2-2.4-2.6 0-.4.4-11 6.3-15.9 2-1.7 4.7-2.4 7.3-1.8 2.7.5 4.9 2.2 6.2 4.7 2.3 4.4 2 10.2-.8 17.3-.5.9-1.4 1.5-2.4 1.5zM47.5 109c-3.6 0-6.5-2.9-6.5-6.5s2.9-6.5 6.5-6.5 6.5 2.9 6.5 6.5-2.9 6.5-6.5 6.5zm0-8c-.8 0-1.5.7-1.5 1.5s.7 1.5 1.5 1.5 1.5-.7 1.5-1.5-.7-1.5-1.5-1.5z"/><ellipse transform="rotate(-78.036 72.749 109.247)" class="st1" cx="72.8" cy="109.2" rx="2.2" ry="3.2"/><ellipse class="st1" cx="85.8" cy="112.2" rx="3.2" ry="2.2"/><path class="st1" d="M101 126H25.5c-.7 0-1.3-.3-1.8-.8s-.7-1.2-.7-1.9 1-17.3 3.4-27.4c2.7-11.5 15-13.6 15.6-13.7 1.4-.2 2.6.7 2.9 2.1.2 1.4-.7 2.6-2.1 2.9-.4.1-9.6 1.7-11.5 9.9-1.7 7.4-2.7 18.8-3.1 23.9H101c1.4 0 2.5 1.1 2.5 2.5s-1.1 2.5-2.5 2.5z"/><path class="st1" d="M101.5 126c-1.4 0-2.5-1.1-2.5-2.5 0-.1 0-14.8-3.3-26.3-2.6-9.1-10.2-10-10.2-10-1.4-.1-2.4-1.4-2.2-2.8.1-1.4 1.4-2.4 2.8-2.2.4 0 11 1.3 14.5 13.6 3.4 12.2 3.5 27.1 3.5 27.7-.1 1.4-1.2 2.5-2.6 2.5zM36.5 126c-1.4 0-2.5-1.1-2.5-2.5v-9c0-1.4 1.1-2.5 2.5-2.5s2.5 1.1 2.5 2.5v9c0 1.4-1.1 2.5-2.5 2.5zM90.8 126c-1.4 0-2.5-1.1-2.5-2.5v-8c0-1.4 1.1-2.5 2.5-2.5s2.5 1.1 2.5 2.5v8c0 1.4-1.1 2.5-2.5 2.5zM84.1 78.2c-.2 0-.3 0-.5-.1-1.4-.3-2.2-1.6-1.9-3l4.7-22.6c.3-1.3 1.6-2.2 2.9-1.9L97 52c1.4.3 2.2 1.6 2 2.9-.3 1.4-1.6 2.2-2.9 2l-5.3-1-4.2 20.2c-.3 1.2-1.3 2.1-2.5 2.1zM114.2 106.6h-.5l-9.2-1.7c-1.4-.3-2.2-1.6-2-2.9.3-1.4 1.6-2.2 2.9-2l6.8 1.3 8.3-38.8-5.7-1.4c-1.3-.3-2.2-1.7-1.8-3 .3-1.3 1.7-2.2 3-1.8l8 2c1.3.3 2.1 1.6 1.8 2.9l-9.3 43.6c-.1 1-1.2 1.8-2.3 1.8z"/><path class="st1" d="M112.2 64.9c-.3 0-.6 0-1-.1l-14.3-4c-.9-.3-1.7-.9-2.2-1.7-.5-.8-.6-1.8-.3-2.7l1.3-4.7c.3-.9.9-1.7 1.7-2.2.8-.5 1.8-.6 2.7-.3l14.3 4c.9.3 1.7.9 2.2 1.7.5.8.6 1.8.3 2.7l-1.3 4.7c-.3 1.5-1.8 2.6-3.4 2.6zm-12.5-8.6 11.6 3.2.6-2-11.6-3.2-.6 2zM110.5 73h-.5l-15-3c-1.4-.3-2.2-1.6-2-2.9.3-1.4 1.6-2.2 2.9-2l15 3c1.4.3 2.2 1.6 2 2.9-.2 1.2-1.2 2-2.4 2zM108.5 80c-.2 0-.4 0-.5-.1l-14-3c-1.4-.3-2.2-1.6-1.9-3 .3-1.4 1.6-2.2 3-1.9l14 3c1.4.3 2.2 1.6 1.9 3-.3 1.2-1.3 2-2.5 2zM108.5 87h-.5l-15-3c-1.4-.3-2.2-1.6-2-2.9.3-1.4 1.6-2.2 2.9-2l15 3c1.4.3 2.2 1.6 2 2.9-.2 1.2-1.2 2-2.4 2zM109.5 95c-.2 0-.5 0-.7-.1l-7-2c-1.3-.4-2.1-1.8-1.7-3.1.4-1.3 1.8-2.1 3.1-1.7l7 2c1.3.4 2.1 1.8 1.7 3.1-.3 1.1-1.3 1.8-2.4 1.8zM25.3 43.3c-1.1 0-2.2-.2-3.3-.6-1.3-.5-1.9-1.9-1.4-3.2.5-1.3 2-1.9 3.2-1.4 2.4.9 4.1-.6 4.6-1.1.9-1 1.3-2.4.9-3.2-1.6-3.2-5.6-6.4-9.6-7.7-1.4-.5-2.4-.6-4.1 2-.5.7-.7 1.3-.5 1.8.2.7 1.1 1.4 1.5 1.6 1.2.6 1.7 2.1 1.2 3.3-.6 1.2-2.1 1.8-3.3 1.2-.3-.2-3.3-1.6-4.2-4.8-.4-1.3-.5-3.4 1.2-5.9 1.7-2.6 4.6-5.8 9.9-4 5.2 1.7 10.3 5.9 12.4 10.3 1.4 2.8.7 6.2-1.6 8.8-1.9 1.8-4.4 2.9-6.9 2.9z"/><path class="st1" d="M17.1 46.3c-2 0-3.5-.7-4.4-1.4-2.9-2.2-3.3-5.9-3.3-6.3-.1-.8.2-1.6.9-2.1l5.6-4.9c1-.9 2.6-.8 3.5.3.9 1 .8 2.6-.3 3.5l-4.5 3.9c.2.6.6 1.3 1.1 1.6.2.1.6.4 1.5.4l4.4-5.4c.9-1.1 2.4-1.2 3.5-.4s1.2 2.4.4 3.5l-5 6.2c-.5.5-1 .8-1.5.9-.7.1-1.3.2-1.9.2zM28.3 78.9c-6.8 0-9.7-7.9-11.1-11.5-1.3-3.5-.6-6.1.3-7.7 2.2-3.9 7.1-5.3 8.3-5.6l5.2-2c.4-.2.9-.2 1.4-.1C43.5 54 44.8 64.4 44 69.6c-.4 1.7-1.3 3-2.6 3.9-2.1 1.3-4.8 1.2-6.6.9l-2 3.1c-.3.5-.8.9-1.4 1-1.2.2-2.2.4-3.1.4zm-1.3-20c-1.1.2-4.1 1.2-5.2 3.2-.5 1-.5 2.1 0 3.5 3 8 5.3 8.6 7.1 8.2l2.4-3.7c.6-.9 1.7-1.3 2.8-1 1.2.3 3.5.6 4.4 0 .1-.1.2-.2.3-.5.2-1.3 1.2-9.8-6.9-11.7l-4.7 1.8c.1.2-.1.2-.2.2zm-.5-2.4z"/><path class="st1" d="M27.4 58.7c-1 0-2-.7-2.4-1.7-2.1-6.4 1.7-10.3 4.8-11.3 1.3-.4 2.7.3 3.2 1.6.4 1.3-.2 2.7-1.5 3.2-.9.3-2.9 1.5-1.7 5 .4 1.3-.3 2.7-1.6 3.2-.3-.1-.6 0-.8 0zM10.5 106.6H4.1c-1.1 0-2.1-.7-2.4-1.8-.3-1.1.1-2.2 1-2.8 5-3.2 11.8-9.2 11.3-12.1-.1-.6 0-1.2.3-1.7-2.6-3.7-.4-9.1-.2-9.7.5-1.3 2-1.9 3.3-1.3 1.3.5 1.9 2 1.3 3.3-.6 1.4-1.1 3.9-.3 4.9 1.8 2.4 5 9.5 2.7 14.9-1.1 2.5-3.8 5.6-10.4 6.3h-.2zM17 95.7c-1.4 2-3.3 4-5.1 5.6 2.5-.5 4-1.5 4.7-3.1.3-.7.4-1.6.4-2.5z"/></svg>