<svg version="1.1" id="Layer_1" xmlns="http://www.w3.org/2000/svg" x="0" y="0" viewBox="0 0 128 128" xml:space="preserve"><style>.st0{fill:#d6b2f5}.st1{fill:#070707}</style><switch><g><circle class="st0" cx="63.9" cy="21.8" r="17.8"/><circle class="st0" cx="82.3" cy="89.2" r="19.2"/><circle class="st0" cx="42.2" cy="95.3" r="15.3"/><path class="st1" d="M35.8 40.6H12.3c-3.9 0-7.1-3.2-7.1-7.1V10c0-3.9 3.2-7.1 7.1-7.1h23.5c3.9 0 7.1 3.2 7.1 7.1v23.5c0 3.9-3.2 7.1-7.1 7.1zM12.3 7.9c-1.1 0-2.1.9-2.1 2.1v23.5c0 1.1.9 2.1 2.1 2.1h23.5c1.1 0 2.1-.9 2.1-2.1V10c0-1.1-.9-2.1-2.1-2.1H12.3z"/><path class="st1" d="M29.9 29.6H17.1c-1.4 0-2.5-1.1-2.5-2.5V15.6c0-1.4 1.1-2.5 2.5-2.5h12.8c1.4 0 2.5 1.1 2.5 2.5v11.5c0 1.4-1.1 2.5-2.5 2.5zm-10.3-5h7.8v-6.5h-7.8v6.5zM114.6 41.8H91.1c-3.9 0-7.1-3.2-7.1-7.1V11.2c0-3.9 3.2-7.1 7.1-7.1h23.5c3.9 0 7.1 3.2 7.1 7.1v23.5c0 3.9-3.2 7.1-7.1 7.1zM91.1 9.1c-1.1 0-2.1.9-2.1 2.1v23.5c0 1.1.9 2.1 2.1 2.1h23.5c1.1 0 2.1-.9 2.1-2.1V11.2c0-1.1-.9-2.1-2.1-2.1H91.1z"/><path class="st1" d="M108.7 30.8H95.9c-1.4 0-2.5-1.1-2.5-2.5V16.8c0-1.4 1.1-2.5 2.5-2.5h12.8c1.4 0 2.5 1.1 2.5 2.5v11.5c0 1.4-1.1 2.5-2.5 2.5zm-10.3-5h7.8v-6.5h-7.8v6.5zM64 40.2c-8.7 0-15.9-7.1-15.9-15.9S55.3 8.5 64 8.5s15.9 7.1 15.9 15.9S72.7 40.2 64 40.2zm0-26.7c-6 0-10.9 4.9-10.9 10.9S58 35.3 64 35.3s10.9-4.9 10.9-10.9S70 13.5 64 13.5zM42.2 110.6c-7.3 0-13.2-5.9-13.2-13.2 0-7.3 5.9-13.2 13.2-13.2 7.3 0 13.2 5.9 13.2 13.2 0 7.3-5.9 13.2-13.2 13.2zm0-21.4c-4.5 0-8.2 3.7-8.2 8.2s3.7 8.2 8.2 8.2c4.5 0 8.2-3.7 8.2-8.2s-3.7-8.2-8.2-8.2zM82.1 106.3c-9.5 0-17.1-7.7-17.1-17.1S72.7 72 82.1 72s17.1 7.7 17.1 17.1-7.6 17.2-17.1 17.2zm0-29.3C75.4 77 70 82.5 70 89.2s5.4 12.1 12.1 12.1 12.1-5.4 12.1-12.1S88.8 77 82.1 77zM43 61.5c-1.4 0-2.5-1.1-2.5-2.5V47.7c-.2-1.1 0-2.6.9-3.9 1.6-2.2 4.6-3.2 9.3-3.2h26.7c.9-.1 3.3-.2 5.4 1.5 1.9 1.6 2.9 4.1 2.9 7.6v8.9c0 1.4-1.1 2.5-2.5 2.5s-2.5-1.1-2.5-2.5v-8.9c0-1.8-.4-3.1-1.1-3.7-.6-.5-1.5-.4-1.5-.4H50.7c-3.5 0-5 .7-5.3 1.2l-.1-.1c.1.2.1.5.1.8V59c.1 1.3-1 2.5-2.4 2.5z"/><path class="st1" d="M107 70H19.4c-1.4 0-2.5-1.1-2.5-2.5v-8c0-1.4 1.1-2.5 2.5-2.5H107c1.4 0 2.5 1.1 2.5 2.5v8c0 1.4-1.1 2.5-2.5 2.5zm-85.1-5h82.6v-3H21.9v3z"/><path class="st1" d="M33.7 81c-3.3 0-5.8-1.8-6.9-3.2-.4-.4-.6-1-.6-1.6l-.1-5.6c0-1.4 1.1-2.5 2.5-2.5s2.5 1.1 2.5 2.5l.1 4.6c.8.6 2.2 1.2 4.3.5v-5c0-1.4 1.1-2.5 2.5-2.5s2.5 1.1 2.5 2.5v6.6c0 .9-.5 1.7-1.2 2.2-2 1-3.9 1.5-5.6 1.5zM25.5 126.2h-.1c-1.4-.1-2.4-1.3-2.4-2.6 0-.1.1-2.2.8-4.7 1.3-4.9 5.8-8.4 10.9-8.4h13.4c3.3 0 6.4 1.4 8.5 3.9 2.1 2.4 3.1 5.7 2.6 8.8v.3c-.2 1.4-1.5 2.3-2.8 2.1-1.4-.2-2.3-1.5-2.1-2.8v-.2c.2-1.8-.3-3.5-1.5-4.8-1.2-1.4-2.9-2.2-4.8-2.2H34.7c-2.9 0-5.4 1.9-6.1 4.6-.5 2-.6 3.7-.6 3.7 0 1.3-1.2 2.3-2.5 2.3z"/><path class="st1" d="M61.4 125.9h-.1c-1.4-.1-2.4-1.3-2.4-2.6 0-.1.2-2.9 1-6.1 1.6-6.2 7.2-10.5 13.7-10.5h17.8c4.1 0 8 1.8 10.7 4.9 2.7 3.1 3.9 7.1 3.3 11.1v.3c-.2 1.4-1.5 2.3-2.8 2.1-1.4-.2-2.3-1.4-2.1-2.8v-.3c.4-2.6-.4-5.1-2.1-7.1-1.8-2-4.3-3.2-7-3.2H73.6c-4.2 0-7.8 2.8-8.8 6.8-.7 2.7-.8 5.1-.8 5.1-.2 1.3-1.3 2.3-2.6 2.3z"/><path class="st1" d="M107 128.4H19.9c-1.4 0-2.5-1.1-2.5-2.5s1.1-2.5 2.5-2.5H107c1.4 0 2.5 1.1 2.5 2.5s-1.1 2.5-2.5 2.5z"/></g></switch></svg>