<svg version="1.1" id="Layer_1" xmlns="http://www.w3.org/2000/svg" x="0" y="0" viewBox="0 0 128 128" style="enable-background:new 0 0 128 128" xml:space="preserve"><style>.st0{fill:#d6b2f5}.st1{fill:#231f20}</style><circle class="st0" cx="47.3" cy="15.8" r="12.7"/><circle class="st0" cx="87.3" cy="33.8" r="9.7"/><path class="st1" d="M47 5c-6.6 0-12 5.4-12 12 0 1.4.2 2.7.7 4 .8 2.3 2.4 4.4 4.4 5.8.4.3.9.6 1.4.9.6.3 1.3.6 2 .8 1.1.4 2.3.5 3.5.5h.2c2 0 3.8-.5 5.5-1.4.9-.5 1.7-1 2.4-1.7l.2-.2c2.3-2.2 3.8-5.3 3.8-8.7C59 10.4 53.6 5 47 5zm0 5c3.9 0 7 3.1 7 7s-3.1 7-7 7-7-3.1-7-7 3.1-7 7-7zM87 25c-5 0-9 4-9 9s4 9 9 9 9-4 9-9-4-9-9-9zm0 13c-2.2 0-4-1.8-4-4s1.8-4 4-4 4 1.8 4 4-1.8 4-4 4zM52.4 77.4c-1.9-7.5-1.7-13.2-1.7-13.3.1-1.8.2-3.5.2-5.1.1-1.8.1-3.5.1-5-1.5-.4-3.2-.9-5-1.6 0 1.6 0 3.4-.1 5.4-.1 1.9-.1 4-.3 6.2 0 .3-.2 6.5 1.9 14.7 1.4 5.7 1.8 12.5 1.9 15.7-3.4 1-12.9 2.9-30.7-.7l-4.1-1.3c.8-6.9 3.5-30 6.7-40.5 3-9.8 8.3-15.9 9.2-16.8 1.6-1.1 6-3.5 9.4-2.4.9.3 1.7.8 2.4 1.5.8.9 1.6 2.1 2.2 3.7.1.2.1.2.1.3.1.4.7 2.1 1 6.8 1.5 1.4 3.2 2.7 5.2 3.6-.1-2.5-.2-4.5-.4-6.1-.4-4-1-5.8-1.3-6.5-.3-.8-.7-1.6-1.1-2.3-1.2-2.3-2.8-3.9-4.8-5-.6-.3-1.3-.6-2-.8l-1.2-.3c-6-1.3-12.2 3.2-12.5 3.4-.1.1-.2.2-.3.2-.3.3-7 7.1-10.6 19-3.9 12.9-7 42.2-7.1 43.5-.1 1.2.6 2.3 1.7 2.6l6.2 2c.1 0 .2 0 .3.1 8.2 1.7 14.8 2.3 20 2.3 10.5 0 15.2-2.3 15.5-2.5.8-.4 1.3-1.3 1.3-2.2 0-.4 0-10.4-2.1-18.6z"/><path class="st1" d="M79.1 48.5c-1.5-2.8-5-3.6-5.3-3.7-.2 0-.4-.1-.5-.1H56.6c-2.3-.2-4.3-1.3-6-2.6-2.2-1.7-3.8-3.9-4.6-5.1-.9-1.4-2.1-2.5-3.5-3.2-.6-.3-1.2-.5-1.8-.7-.7 0-1.4-.1-2.1-.1-2.1 0-4 .8-5.5 2.4-2.3 2.5-2.9 6.3-1.5 9.8 2.9 7 9 10.6 14.3 12.5 1.8.6 3.5 1.1 5 1.4 2.2.5 3.8.6 4 .6 2.5.2 4.9.3 7 .3 3.7 0 6.9-.3 9.3-.7.6-.1 1.1-.2 1.6-.3h.1c2.9-.6 5.4-2.6 6.4-5.2.9-2.4.4-4.2-.2-5.3zM74.6 52c-.4 1-1.4 1.8-2.7 2.1-2.8.5-8.8 1.3-16.7.5 0 0-1.8-.1-4.2-.7-1.5-.4-3.2-.9-5-1.6-3.8-1.6-7.9-4.4-9.8-9-.7-1.6-.5-3.4.6-4.5.7-.8 1.5-1 2.6-.7.9.2 1.8.9 2.4 1.8.9 1.4 2.2 3.1 4 4.8 1.5 1.4 3.2 2.7 5.2 3.6 1.6.8 3.4 1.3 5.3 1.5H72.9c.5.2 1.5.6 1.8 1.2 0 0 .2.3-.1 1zM41.5 82c-.3 0-.6 0-.8-.1L32.6 79c-1.3-.5-2-1.9-1.5-3.2s1.9-2 3.2-1.5l8.1 2.9c1.3.5 2 1.9 1.5 3.2-.4 1-1.4 1.6-2.4 1.6zM34.7 127.6c-4.7 0-7.1-4.2-7.6-6.5-.1-.3-.1-.6-.1-.9l2.5-20.5c.2-1.4 1.4-2.3 2.8-2.2 1.4.2 2.3 1.4 2.2 2.8l-2.5 20c.3.9 1.2 2.6 3.1 2.3 1.3-.2 2.5-1.2 3-2.5 1.4-3.6 3.8-11.8 4.1-20.1 0-1.4 1.2-2.4 2.6-2.4 1.4 0 2.5 1.2 2.4 2.6-.3 8.4-2.5 17-4.4 21.8-1.2 3.1-3.9 5.3-7.1 5.7-.3-.1-.6-.1-1-.1z"/><path class="st1" d="M22.7 126.6c-4.7 0-7.1-4.2-7.6-6.5-.1-.3-.1-.6-.1-.9l2.5-20.5c.2-1.4 1.4-2.3 2.8-2.2 1.4.2 2.3 1.4 2.2 2.8l-2.5 20c.3.9 1.2 2.6 3.1 2.3 1.3-.2 2.5-1.2 3-2.5 1.4-3.6 3.8-11.8 4.1-20.1 0-1.4 1.2-2.4 2.6-2.4 1.4 0 2.5 1.2 2.4 2.6-.3 8.4-2.5 17-4.4 21.8-1.2 3.1-3.9 5.3-7.1 5.7-.3-.1-.6-.1-1-.1zM65.8 97.2H65c-1.8-.2-3.3-1.1-4.3-2.6-1.1-1.5-1.5-3.5-1-5.3L63.1 75c.1-.5 1.3-5 5.1-7.1 2.1-1.2 4.5-1.4 7-.7 1.3.4 2.1 1.8 1.7 3.1-.4 1.3-1.8 2.1-3.1 1.7-1.3-.4-2.3-.3-3.2.2-1.9 1.1-2.7 4-2.7 4l-3.4 14.3c-.1.4 0 .9.3 1.3.1.2.4.5.8.5.2 0 .6 0 1-.3s.7-.8.9-1.2c.4-1 1-3.4 1.6-5.3.4-1.5.8-2.9 1-3.7 2.2-6.5 11.6-5.1 14.7-4.7 5.2.7 7.2-1.9 8-4.2.4-1.2.8-2.2 1.2-3.2 3.3-7.9 3.4-13.7 2.9-17.3-.3-2-1.5-3.6-3.1-4.3-2.1-.9-4.1.3-6 3.4-.5.8-.8 1.8-.8 2.8v8.1c0 1.4-1.1 2.5-2.5 2.5s-2.5-1-2.5-2.4v-8.1c0-1.9.5-3.8 1.5-5.4 3.2-5.4 7.6-7.4 12.2-5.5 3.3 1.3 5.7 4.5 6.2 8.2.6 4.2.5 11-3.2 19.9-.3.8-.7 1.7-1 2.8-.7 2.1-3.7 9-13.5 7.6-5.3-.8-8.7-.3-9.3 1.3-.2.7-.6 2-1 3.4-.6 2.3-1.2 4.6-1.8 5.9-.6 1.4-1.5 2.6-2.6 3.4-1.1.8-2.4 1.2-3.7 1.2z"/><path class="st1" d="M79.2 72.8c-3.2 0-7.5-.6-10.4-3.5-2.2-2.2-2.3-4.2-2-5.5.7-3.1 4.3-4.4 5-4.7.3-.1.7-.1 1-.1l12 1c1.4.1 2.4 1.3 2.3 2.7-.1 1.4-1.3 2.4-2.7 2.3L73 64c-.5.3-1.1.6-1.2.9.1.1.2.4.6.8 2.5 2.5 8 2.2 10 1.8h.5c.1 0 2.9 0 5.1-2.2 2.1-2 3.1-5.3 3.1-9.8-.2-1.7-.9-3.9-1.6-4.3-.2-.1-1 0-2.3.9-1.1.8-2.7.6-3.5-.5-.8-1.1-.6-2.7.5-3.5 3.3-2.5 5.8-2.1 7.3-1.5 3.8 1.8 4.4 7.4 4.5 8.5v.2c0 6-1.6 10.5-4.7 13.5-3.3 3.2-7.2 3.5-8.4 3.5-.6.3-2 .5-3.7.5zM104.6 91.5H75.5v-8h26.1l6.8-25 7.7 2.1-7.6 28c-.5 1.7-2.1 2.9-3.9 2.9z"/><path class="st1" d="M98 120H85l2-29h9z"/><ellipse class="st1" cx="91.5" cy="121.5" rx="19.5" ry="4.5"/><path class="st1" d="M73.6 49c-.2 0-.4 0-.5-.1-11.2-4.7-31.6-20.5-32.5-21.2-.6-.5-.8-1.4-.3-2.1.5-.7 1.4-.8 2-.3.2.2 21 16.3 31.8 20.8.7.3 1.1 1.2.8 1.9-.2.6-.8 1-1.3 1z"/><path class="st1" d="M58.6 39c-.6 0-1.1-.3-1.3-.8l-4.9-11.4c-.3-.7.1-1.4.8-1.7.7-.3 1.6.1 1.9.7L60 37.2c.3.7-.1 1.4-.8 1.7-.3.1-.5.1-.6.1z"/></svg>