<svg version="1.1" id="Layer_1" xmlns="http://www.w3.org/2000/svg" x="0" y="0" viewBox="0 0 128 128" xml:space="preserve"><style>.st0{fill:#d6b2f5}.st1{fill:#231f20}</style><switch><g><ellipse class="st0" cx="59.7" cy="106.6" rx="14.1" ry="7.5"/><path class="st1" d="M18.9 108.9c-.8 0-1.5-.3-2-1-.2-.2-18.2-23.7-3.7-45.4 5.2-7.8 11-12.1 17.4-12.8 7.7-.9 13.1 4 13.4 4.2.6.5.9 1.3.8 2.1-.1.8-.6 1.5-1.3 1.9-13.5 7.5-11.6 19.7-10 29.6.6 4 1.2 7.5.5 10.2-2.3 9.6-14.3 11.1-14.8 11.1-.1.1-.2.1-.3.1zm13.6-54.2c-.4 0-.9 0-1.4.1-4.8.6-9.4 4.1-13.7 10.6-10.8 16-.5 33.6 2.6 38.3 2.6-.6 8-2.4 9.1-7.1.4-1.7-.1-4.9-.6-8.2-1.5-9.4-3.6-23.2 9.1-32.5-1.3-.7-3.1-1.2-5.1-1.2z"/><path class="st1" d="M61.6 127.8c-.5 0-1-.2-1.5-.5-.3-.2-7.1-4.9-19.7-2.5-4.4.9-7.1-.8-8.6-2.3-6.3-6.4-3.1-22.9-2.7-24.8.3-1.4 1.6-2.2 3-1.9 1.4.3 2.2 1.6 1.9 3-1.3 6-2 16.9 1.3 20.2.6.6 1.7 1.4 4.1.9 11.5-2.3 19.1.8 22.1 2.5 8-4.3 15.1-2 17.7-.8 3-1.1 5.1-3 6.3-5.6 3.8-8.1-1.7-20.9-1.8-21-.2-.6-.3-1.2-.1-1.8 9.2-27.7-7.9-34.7-8.6-35 0 0-.1 0-.2-.1-14.3-6.7-31.6 0-31.8.1-1.3.5-2.7-.1-3.2-1.4-.5-1.3.1-2.7 1.4-3.2.8-.3 19.5-7.5 35.7 0 1.9.8 21.4 10 11.7 40.3 1.3 3.4 5.4 15.3 1.3 24.2-1.9 4.2-5.4 7.1-10.3 8.6-.7.2-1.4.1-2-.2-.3-.2-7.2-3.9-15 1-.1.2-.6.3-1 .3z"/><path class="st1" d="M99.9 108.9c-5.3 0-10.4-3.8-14.8-10.9-.7-1.2-.4-2.7.8-3.4 1.2-.7 2.7-.4 3.4.8 2.3 3.8 5.9 8.1 10 8.5 2.3-3.9 9.4-17.9 2.2-33.5-3.9-6.5-12.2-16.6-18.1-16.7-2-.1-3.7 1.1-5.3 3.5-.8 1.2-2.3 1.5-3.5.7-1.2-.8-1.5-2.3-.7-3.5 3.2-4.9 7-5.8 9.5-5.8 10.6.2 21.2 17.3 22.3 19.2 0 .1.1.1.1.2 9.7 20.8-2.7 38.9-3.2 39.7-.4.6-1.1 1-1.8 1.1-.2.1-.6.1-.9.1zM49.9 86.8c-4.7 0-8.4-3.8-8.4-8.4s3.8-8.4 8.4-8.4c4.7 0 8.4 3.8 8.4 8.4s-3.7 8.4-8.4 8.4zm0-11.9c-1.9 0-3.4 1.5-3.4 3.4s1.5 3.4 3.4 3.4 3.4-1.5 3.4-3.4-1.5-3.4-3.4-3.4zM69.5 87.4c-4.7 0-8.4-3.8-8.4-8.4s3.8-8.4 8.4-8.4c4.7 0 8.4 3.8 8.4 8.4s-3.7 8.4-8.4 8.4zm0-11.8c-1.9 0-3.4 1.5-3.4 3.4s1.5 3.4 3.4 3.4S73 80.9 73 79s-1.6-3.4-3.5-3.4zM60.3 114.3c-5.7 0-11.6-2.2-11.6-6.5s5.8-6.5 11.6-6.5 11.6 2.2 11.6 6.5-5.9 6.5-11.6 6.5zm-6.4-6.5c.7.6 2.9 1.5 6.4 1.5s5.7-.9 6.4-1.5c-.7-.6-2.9-1.5-6.4-1.5s-5.7.9-6.4 1.5zm13 .2zM61.6 50.2c-.8 0-1.6-.4-2-1.1-.8-1.1-.5-2.7.6-3.5l40.3-28.5c1.1-.8 2.7-.5 3.5.6.8 1.1.5 2.7-.6 3.5L63 49.8c-.4.3-.9.4-1.4.4z"/><path class="st1" d="M103.7 33.5h-.5l-47.8-9.1c-1.4-.3-2.2-1.6-2-2.9.3-1.4 1.6-2.2 2.9-2l47.8 9.1c1.4.3 2.2 1.6 2 2.9-.1 1.2-1.2 2-2.4 2zM57.5 125.8c-1.4 0-2.5-1.1-2.5-2.5v-11.5c0-1.4 1.1-2.5 2.5-2.5s2.5 1.1 2.5 2.5v11.5c0 1.4-1.2 2.5-2.5 2.5zM64.8 126.2c-1.4 0-2.5-1.1-2.5-2.5v-12c0-1.4 1.1-2.5 2.5-2.5s2.5 1.1 2.5 2.5v12c0 1.3-1.1 2.5-2.5 2.5z"/><circle class="st0" cx="109.9" cy="39.6" r="10.6"/><circle class="st0" cx="106.2" cy="11.2" r="10.6"/><path class="st1" d="M107 48.9c-5.8 0-10.5-4.7-10.5-10.5s4.7-10.5 10.5-10.5 10.5 4.7 10.5 10.5-4.6 10.5-10.5 10.5zm0-16.1c-3.1 0-5.5 2.5-5.5 5.5 0 3.1 2.5 5.5 5.5 5.5s5.5-2.5 5.5-5.5c.1-3-2.4-5.5-5.5-5.5zM101.9 21.7c-5.8 0-10.5-4.7-10.5-10.5S96.1.7 101.9.7s10.5 4.7 10.5 10.5-4.7 10.5-10.5 10.5zm0-16c-3.1 0-5.5 2.5-5.5 5.5 0 3.1 2.5 5.5 5.5 5.5s5.5-2.5 5.5-5.5-2.5-5.5-5.5-5.5z"/></g></switch></svg>