<svg version="1.1" id="Layer_1" xmlns="http://www.w3.org/2000/svg" x="0" y="0" viewBox="0 0 128 128" style="enable-background:new 0 0 128 128" xml:space="preserve"><style>.st1{fill:#231f20}</style><circle cx="47.8" cy="71.7" r="16.2" style="fill:#d6b2f5"/><path class="st1" d="M65.3 27.8H30.7c-2.6 0-4.7-2.1-4.7-4.7v-9.3c0-5.3 4.3-9.6 9.6-9.6h24.8c5.3 0 9.6 4.3 9.6 9.6v9.3c0 2.6-2.1 4.7-4.7 4.7zm-34.3-5h34v-9c0-2.5-2.1-4.6-4.6-4.6H35.6c-2.5 0-4.6 2.1-4.6 4.6v9z"/><path class="st1" d="M33.5 35.8c-1.4 0-2.5-1.1-2.5-2.5v-8c0-1.4 1.1-2.5 2.5-2.5s2.5 1.1 2.5 2.5v8c0 1.4-1.1 2.5-2.5 2.5zM62.9 35.8c-1.4 0-2.5-1.1-2.5-2.5v-8c0-1.4 1.1-2.5 2.5-2.5s2.5 1.1 2.5 2.5v8c0 1.4-1.1 2.5-2.5 2.5z"/><path class="st1" d="M59.7 115H29.3c-8.4 0-15.3-6.9-15.3-15.3V46.3C14 37.9 20.9 31 29.3 31h23.2c1.4 0 2.5 1.1 2.5 2.5S53.9 36 52.5 36H29.3C23.6 36 19 40.6 19 46.3v53.4c0 5.7 4.6 10.3 10.3 10.3h30.4c1.4 0 2.5 1.1 2.5 2.5s-1.1 2.5-2.5 2.5zM80.5 102c-1.4 0-2.5-1.1-2.5-2.5V46.3C78 40.6 73.4 36 67.7 36h-7.2c-1.4 0-2.5-1.1-2.5-2.5s1.1-2.5 2.5-2.5h7.2C76.1 31 83 37.9 83 46.3v53.2c0 1.4-1.1 2.5-2.5 2.5z"/><path class="st1" d="M80.5 54h-62c-1.4 0-2.5-1.1-2.5-2.5s1.1-2.5 2.5-2.5h62c1.4 0 2.5 1.1 2.5 2.5S81.9 54 80.5 54zM80.5 95h-64c-1.4 0-2.5-1.1-2.5-2.5s1.1-2.5 2.5-2.5h64c1.4 0 2.5 1.1 2.5 2.5S81.9 95 80.5 95zM60 78.8h-7.7c-1.4 0-2.5-1.1-2.5-2.5s1.1-2.5 2.5-2.5h5.2v-3.6h-5.2c-1.4 0-2.5-1.1-2.5-2.5s1.1-2.5 2.5-2.5H60c1.4 0 2.5 1.1 2.5 2.5v8.6c0 1.4-1.1 2.5-2.5 2.5zM43.7 78.8H36c-1.4 0-2.5-1.1-2.5-2.5v-8.6c0-1.4 1.1-2.5 2.5-2.5h7.7c1.4 0 2.5 1.1 2.5 2.5s-1.1 2.5-2.5 2.5h-5.2v3.6h5.2c1.4 0 2.5 1.1 2.5 2.5s-1.1 2.5-2.5 2.5z"/><path class="st1" d="M52.3 70.2c-1.4 0-2.5-1.1-2.5-2.5v-5.2h-3.6v5.2c0 1.4-1.1 2.5-2.5 2.5s-2.5-1.1-2.5-2.5V60c0-1.4 1.1-2.5 2.5-2.5h8.6c1.4 0 2.5 1.1 2.5 2.5v7.7c0 1.4-1.1 2.5-2.5 2.5zM52.3 86.5h-8.6c-1.4 0-2.5-1.1-2.5-2.5v-7.7c0-1.4 1.1-2.5 2.5-2.5s2.5 1.1 2.5 2.5v5.2h3.6v-5.2c0-1.4 1.1-2.5 2.5-2.5s2.5 1.1 2.5 2.5V84c0 1.4-1.1 2.5-2.5 2.5z"/><g><path class="st1" d="M107.5 124h-37c-7.4 0-13.5-6.1-13.5-13.5S63.1 97 70.5 97h37c7.4 0 13.5 6.1 13.5 13.5s-6.1 13.5-13.5 13.5zm-37-22c-4.7 0-8.5 3.8-8.5 8.5s3.8 8.5 8.5 8.5h37c4.7 0 8.5-3.8 8.5-8.5s-3.8-8.5-8.5-8.5h-37z"/><path class="st1" d="M89 124c-1.4 0-2.5-1.1-2.5-2.5v-22c0-1.4 1.1-2.5 2.5-2.5s2.5 1.1 2.5 2.5v22c0 1.4-1.1 2.5-2.5 2.5zM66.5 114c-1.4 0-2.5-1.1-2.5-2.5 0-3.4 2.5-8.5 9.5-8.5h9.3c1.4 0 2.5 1.1 2.5 2.5s-1.1 2.5-2.5 2.5h-9.3c-4 0-4.5 2.5-4.5 3.5 0 1.4-1.1 2.5-2.5 2.5z"/></g><g><path class="st1" d="M98 102c-.7 0-1.3-.3-1.8-.8l-17.5-19c-.9-1-.9-2.6.1-3.5 1-.9 2.6-.9 3.5.1l17.5 19c.9 1 .9 2.6-.1 3.5-.4.5-1.1.7-1.7.7zM118.5 112.4c-.9 0-1.8-.5-2.2-1.4-.6-1.2-.1-2.7 1.1-3.4.7-.4 1.4-.8 2-1.4 3.4-3.2 3.6-8.6.5-12L94.7 67.1c-1.6-1.7-3.9-2.7-6.2-2.7-2.1 0-4.2.8-5.8 2.3-.1.1-.3.2-.4.4-1 1-2.6 1-3.5 0s-1-2.6 0-3.5l.5-.5c2.5-2.3 5.8-3.6 9.2-3.6 3.7 0 7.4 1.6 9.9 4.3L123.5 91c5 5.5 4.7 14-.7 19.1-.9.9-2 1.6-3.1 2.2-.5 0-.8.1-1.2.1z"/><path class="st1" d="M92.9 96.5c-.7 0-1.3-.3-1.8-.8-.9-1-.9-2.6.1-3.5l16.2-14.9c1-.9 2.6-.9 3.5.1.9 1 .9 2.6-.1 3.5L94.6 95.8c-.5.4-1.1.7-1.7.7zM100.5 81.1c-.7 0-1.3-.3-1.8-.8l-6.3-6.9c-2.7-2.9-4.9-1.6-5.7-.9-1 .9-2.6.8-3.5-.2-.9-1-.9-2.6.1-3.5 2.5-2.3 8-3.9 12.7 1.2l6.3 6.9c.9 1 .9 2.6-.1 3.5-.5.5-1.1.7-1.7.7z"/></g></svg>