<svg version="1.1" id="Layer_1" xmlns="http://www.w3.org/2000/svg" x="0" y="0" viewBox="0 0 128 128" xml:space="preserve"><style>.st1{fill:#050505}</style><switch><g><circle cx="92.3" cy="31.5" r="21.4" fill="#d6b2f5"/><path class="st1" d="M92.3 64.5c-3.4 0-6.8-.5-9.9-1.6-1.3-.4-2-1.9-1.6-3.2.4-1.3 1.9-2 3.2-1.6 2.7.9 5.5 1.3 8.3 1.3 14.8 0 26.8-12 26.8-26.8C119.1 18 107.1 6 92.3 6 77.6 6 65.6 18 65.6 32.7c0 7.2 2.8 13.9 7.9 19 1 1 1 2.6 0 3.5-1 1-2.6 1-3.5 0-6.1-6-9.4-14-9.4-22.6C60.6 15.2 74.8 1 92.3 1s31.8 14.2 31.8 31.8c0 17.5-14.3 31.7-31.8 31.7z"/><path class="st1" d="M75 71.6c-5.9 0-10.7-4.8-10.7-10.7 0-4.2 2.5-8 6.3-9.7 1.3-.6 2.7 0 3.3 1.3.6 1.3 0 2.7-1.3 3.3-2 .9-3.4 2.9-3.4 5.2 0 3.1 2.5 5.7 5.7 5.7s5.7-2.5 5.7-5.7v-.3c-.1-1.4 1-2.6 2.3-2.7 1.4-.1 2.6 1 2.7 2.3v.6c.1 6-4.7 10.7-10.6 10.7zM63.1 83.5c-3.5 0-6.3-2.8-6.3-6.3s2.8-6.3 6.3-6.3 6.3 2.8 6.3 6.3-2.8 6.3-6.3 6.3zm0-7.6c-.7 0-1.3.6-1.3 1.3 0 .7.6 1.3 1.3 1.3s1.3-.6 1.3-1.3c0-.7-.6-1.3-1.3-1.3zM91.8 44.1c-3.2 0-5.9-1.1-8-3.3-4.3-4.5-4.9-12.5-4.9-16.7h-2c-1.4 0-2.5-1.1-2.5-2.5s1.1-2.5 2.5-2.5h4.6c.7 0 1.4.3 1.8.8s.7 1.2.7 1.9c-.3 3-.1 11.8 3.5 15.5 1.3 1.3 2.9 1.9 4.9 1.8 2.3-.1 4-.9 5.4-2.5 4.2-4.7 3.5-14.2 3.5-14.3-.1-.7.2-1.4.7-1.9.5-.5 1.2-.8 1.9-.7l3.6.2c1.4.1 2.4 1.3 2.4 2.6-.1 1.4-1.2 2.4-2.6 2.4h-.9c-.1 3.8-.8 10.7-4.8 15.2-2.3 2.6-5.3 4-8.9 4.2-.5-.2-.7-.2-.9-.2z"/><path class="st1" d="M92.3 60.9c-1.4 0-2.5-1.2-2.5-2.5l.7-38.5c0-1.4 1.2-2.5 2.5-2.5 1.4 0 2.5 1.2 2.5 2.5l-.7 38.5c0 1.4-1.1 2.5-2.5 2.5zM29.9 96.5c-3.5 0-6.6-1-8.6-2.1-5.7-2.1-7.2-7.1-7.3-10.7-3.2-1.3-5.1-3.1-5.5-5.5-.5-2.9 1.3-5.5 2.8-7-2.5-7.1 2.6-13 2.8-13.2 4.7-5.1 9.4-7.6 14.1-7.4 4.1.2 7 2.4 8.3 3.6 3.9.4 6.9 2 9 4.6 3 3.7 3.2 8.5 3.1 10.9 1.9 1.9 2.2 3.9 2.1 5.2-.2 3.5-3.4 6.2-5.1 7.4-.9 5.2-4.9 9.4-5.1 9.6-3.2 3.5-7 4.6-10.6 4.6zm-10.8-14c-.1.6-.8 5.6 4.1 7.4.1 0 .2.1.3.2.3.2 8.1 4.2 13.3-1.3.1-.1 3.6-3.8 3.9-7.8.1-.8.5-1.6 1.2-2 1.4-.9 3.6-2.8 3.7-4.2 0-.6-.4-1.2-1.2-1.9-.7-.6-1.1-1.4-.9-2.3 0 0 .7-5.2-2-8.4-1.4-1.7-3.5-2.6-6.4-2.8-.7 0-1.4-.4-1.8-1-.1-.1-2.1-2.5-5.4-2.6-3.1-.1-6.5 1.8-10.1 5.7-.1.1-3.8 4.6-1.3 9.4.6 1.1.3 2.4-.7 3.2-1.1.9-2.5 2.6-2.4 3.4.1.5 1.2 1.5 3.9 2.2 1.3.3 2 1.5 1.8 2.8z"/><path class="st1" d="M45.5 79.7h-.4c-3.2-.6-4.9-2.2-5.8-3.4-.7-1.1-1.1-2.2-1.3-3.2-.9-.2-1.7-.5-2.5-1-1.4-.9-2.4-2.3-3-3.6-8.5 7-17.4 4.6-17.9 4.5-1.3-.4-2.1-1.8-1.7-3.1.4-1.3 1.7-2.1 3.1-1.7.4.1 8.7 2.2 15.7-5.9.6-.7 1.6-1 2.6-.8.9.3 1.6 1 1.8 2 .1.9.9 3.5 2.3 4.4.3.2.7.4 1.6.2.8-.2 1.7 0 2.3.6.6.6.9 1.4.7 2.3-.2 1.1 0 3.2 3 3.7 1.4.2 2.3 1.5 2 2.9-.2 1.2-1.3 2.1-2.5 2.1zM13 107.3c-5 0-8.8-2.7-8.8-6.2S8 94.9 13 94.9s8.8 2.7 8.8 6.2-3.8 6.2-8.8 6.2zM9.2 101c.3.4 1.6 1.2 3.8 1.2s3.5-.8 3.8-1.2c-.3-.4-1.6-1.2-3.8-1.2s-3.5.8-3.8 1.2zm7.6.1z"/><path class="st1" d="M12.6 120.5c-.8 0-1.5-.1-2.2-.3-3.9-.9-5.7-4.1-5.9-4.4-.2-.4-.3-.8-.3-1.3l.2-10c0-1.4 1.1-2.4 2.5-2.4H7c1.4 0 2.5 1.2 2.4 2.6l-.2 9.2c.4.5 1.2 1.2 2.4 1.5 1.5.3 3.4-.1 5.4-1.4v-10.4c0-1.4 1.1-2.5 2.5-2.5s2.5 1.1 2.5 2.5v11.8c0 .8-.4 1.6-1.1 2.1-2.9 2-5.7 3-8.3 3z"/><path class="st1" d="M11 127.7c-1.4 0-2.5-1.1-2.5-2.5v-6c0-1.4 1.1-2.5 2.5-2.5s2.5 1.1 2.5 2.5v6c0 1.3-1.1 2.5-2.5 2.5zM17.3 127.7c-1.4 0-2.5-1.1-2.5-2.5V118c0-1.4 1.1-2.5 2.5-2.5s2.5 1.1 2.5 2.5v7.2c0 1.3-1.2 2.5-2.5 2.5zM8.9 99.1c-.2 0-.3 0-.5-.1-1.4-.3-2.2-1.6-1.9-3 .1-.3 1.8-8 10.3-9.9 1.4-.3 2.7.6 3 1.9.3 1.3-.6 2.7-1.9 3-5.4 1.2-6.4 5.9-6.4 6-.4 1.2-1.4 2.1-2.6 2.1zM51.5 124.7c-1.4 0-2.5-1.1-2.5-2.5 0-.1.1-15-.8-23.3-.7-6.5-7.2-7.7-7.5-7.7-1.4-.2-2.3-1.5-2.1-2.9.2-1.4 1.5-2.3 2.9-2.1 3.6.6 10.7 3.9 11.6 12.1.9 8.6.8 23.3.8 23.9.1 1.4-1 2.5-2.4 2.5zM39.8 124.7c-1.4 0-2.5-1.1-2.5-2.5v-16.9c0-1.4 1.1-2.5 2.5-2.5s2.5 1.1 2.5 2.5v16.9c0 1.4-1.2 2.5-2.5 2.5zM29.2 106.1c-.8 0-1.5-.4-2-1l-7.7-9.9c-.8-1.1-.6-2.7.5-3.5 1.1-.8 2.7-.6 3.5.5l5.6 7.3 4.6-6.2c.8-1.1 2.4-1.3 3.5-.5s1.3 2.4.5 3.5l-6.6 8.8c-.4.6-1.1 1-1.9 1z"/></g></switch></svg>