<svg version="1.1" id="Layer_1" xmlns="http://www.w3.org/2000/svg" x="0" y="0" viewBox="0 0 128 128" xml:space="preserve"><style>.st1{fill:#070707}</style><switch><g><circle cx="62.8" cy="65.9" r="33.3" fill="#d6b2f5"/><path class="st1" d="M99.8 126.9c-1.4 0-2.6-1.1-2.6-2.5l-.1-30.6c0-.8.4-1.6 1-2.1 26-19.1 16.5-47.6 11.2-59-4.2-9-17.9-29.2-54.3-22.1-30.4 5.9-33.5 43.1-33.5 43.5 0 .3-.1.7-.3 1l-9.7 19.3 8 4.4c.8.4 1.3 1.3 1.3 2.2v25.3l17.5-.6c.7 0 1.4.2 1.9.7.5.5.8 1.1.8 1.8V123c0 1.4-1.1 2.6-2.6 2.6-1.4 0-2.6-1.1-2.6-2.6v-12l-17.5.6c-.7 0-1.4-.2-1.9-.7-.5-.5-.8-1.1-.8-1.8V82.6l-8.8-4.9c-1.2-.7-1.7-2.2-1.1-3.4l10.6-21.1C17 48.3 22 11.8 54.1 5.6c39.9-7.8 55.2 14.9 59.9 25 4.5 9.7 16.8 42.6-11.7 64.5l.1 29.3c0 1.4-1.2 2.5-2.6 2.5z"/><path class="st1" d="M44.7 83.8c-2.8 0-4.8-.9-6-2.7-1.6-2.4-1.2-5.6-.4-8.2l-5.4.4c-.7 0-1.4-.2-2-.7-.5-.5-.8-1.2-.8-1.9V44.4c0-1.4 1.1-2.6 2.6-2.6l27.2-.7h.1c1.4 0 2.6 1.1 2.6 2.5l.3 8.8c0 1-.5 2-1.4 2.4-.9.5-2 .4-2.8-.2-.6-.4-2.5-1.5-3.9-1-1.3.5-2.4 2.7-3 6 .1.5.4 1.6 1.4 2.2 1.1.7 3 .7 5.4-.1.8-.3 1.7-.1 2.4.4s1.1 1.3 1.1 2.1v7.2c0 1.4-1.1 2.6-2.5 2.6l-4.4.2c.4 1.3.5 2.9 0 4.4-1 2.7-3.8 4.3-8.1 4.9-1.2.3-1.8.3-2.4.3zm-2.5-16.5c.9 0 1.7.5 2.2 1.2.5.8.6 1.8.1 2.7-1.3 2.4-2.3 5.9-1.6 6.9.2.3 1.3.6 3 .4 2.6-.3 3.7-1 3.9-1.5.3-.7-.6-2.4-1.3-3.3-.7-.8-.8-1.8-.4-2.8.4-.9 1.3-1.5 2.3-1.6l6.1-.2v-1.4c-2.5.3-4.7-.2-6.5-1.3-3.3-2.2-3.7-5.9-3.7-6.3v-.6c.9-5.7 3.1-9.2 6.3-10.5 1.6-.7 3.3-.6 4.6-.3l-.1-2-22 .5V68l6.9-.5c.1-.2.2-.2.2-.2zM75.3 61c-1.7 0-4-.8-6.1-4.2-2.2-3.4-2.8-6.5-1.7-9.2.6-1.5 1.5-2.6 2.5-3.4l-3.9-5c-.8-1.1-.7-2.6.2-3.5l19.1-18.6c1-1 2.7-1 3.7 0l4.9 5c1 1 1 2.7 0 3.7s-2.7 1-3.7 0l-3.1-3.2-15.5 15.3 4.3 5.6c.5.7.7 1.6.4 2.4-.3.8-.9 1.5-1.8 1.7 0 0-1.8.6-2.3 1.9-.5 1.3.4 3.2 1.2 4.5.9 1.5 1.6 1.8 1.7 1.7.8-.1 2.5-2.3 3.3-4.5.3-.8 1.1-1.4 1.9-1.6.9-.2 1.8.1 2.4.7l2.8 2.8 2.5-2.8c-1.5-1.8-3.2-4.5-2.9-7.6.2-1.8 1.1-4.4 4.7-6.5 3.6-2.1 6.3-1.6 8-.8 2 .9 3.3 2.7 4.1 4.4l2.1-2.2-6.6-5.6c-1.1-.9-1.2-2.6-.3-3.7.9-1.1 2.6-1.2 3.7-.3l8.7 7.5c.6.5.9 1.2.9 1.9s-.2 1.4-.8 2l-7.1 7.2c-.7.7-1.7 1-2.7.7-.9-.3-1.6-1.1-1.8-2.1-.2-1.3-1.2-4.2-2.7-4.9-.3-.3-1.4-.1-2.7.7-1.3.8-2 1.6-2.1 2.4-.2 1.8 1.9 4.2 3 5.1.5.5.9 1.1.9 1.8s-.2 1.4-.7 1.9l-6.1 6.6c-.5.5-1.2.8-1.9.8s-1.4-.3-1.9-.8l-2.2-2.3c-1.3 2-3.3 4.1-5.9 4.3-.1.2-.3.2-.5.2z"/><path class="st1" d="M32.6 101.4c-.7 0-1.4-.3-1.8-.8-.5-.5-.8-1.2-.8-1.9V72.9c0-1.5 1.2-2.6 2.6-2.6s2.6 1.2 2.6 2.6v23.2l22-.4.1-5.9c0-.8.4-1.6 1.1-2.1.7-.5 1.5-.6 2.3-.4 1 .3 4.1.8 5.8-.5.9-.7 1.5-2 1.6-3.8-.7-.9-2-2.2-3.3-2.4-1-.1-2 .4-3.2 1.5-.8.7-1.9 1-2.9.5-1-.4-1.6-1.4-1.6-2.4v-7.4c0-1.5 1.2-2.6 2.6-2.6 1.5 0 2.6 1.2 2.6 2.6v2.8c1.2-.3 2.2-.3 3.1-.2 4.5.6 7.2 5 7.5 5.5.2.4.4.9.4 1.3 0 4-1.3 7-3.7 8.8-2.3 1.7-5 2-7.1 1.9l-.1 5.4c0 1.4-1.2 2.5-2.6 2.6l-27.2.5z"/><path class="st1" d="M61.1 101.4c-1.4 0-2.6-1.1-2.6-2.6s1.1-2.7 2.6-2.7l22.6-.6-.6-22h-3.7c-.8 0-1.6-.4-2.1-1s-.7-1.5-.5-2.3c.5-1.9.7-5.2-.3-6.3-.6-.7-2-.6-3-.4-1.9.3-3 1-3.5 2-.8 1.6.2 4.1.6 4.8.4.8.4 1.8-.1 2.6s-1.3 1.3-2.2 1.3h-7.1c-1.5 0-2.6-1.2-2.6-2.6 0-1.5 1.2-2.6 2.6-2.6h3.5c-.3-1.7-.3-3.8.6-5.7.8-1.8 2.8-4 7.3-4.9 4.2-.8 6.6.6 7.8 2 2 2.2 2.3 5.5 2.1 7.9h3.2c1.4 0 2.6 1.1 2.6 2.6l.6 27.1c0 1.5-1.1 2.7-2.6 2.7l-25.2.7z"/></g></switch></svg>