<svg version="1.1" id="Layer_1" xmlns="http://www.w3.org/2000/svg" x="0" y="0" viewBox="0 0 128 128" style="enable-background:new 0 0 128 128" xml:space="preserve"><style>.st0{fill:#d6b2f5}.st1{fill:#231f20}.st2{fill:none;stroke:#231f20;stroke-width:5;stroke-linecap:round;stroke-linejoin:round;stroke-miterlimit:10}</style><circle class="st0" cx="47.7" cy="85.5" r="10.5"/><circle class="st0" cx="77.7" cy="85.5" r="10.5"/><circle class="st0" cx="108.7" cy="85.5" r="10.5"/><ellipse class="st0" cx="34.5" cy="32" rx="16.5" ry="17"/><path class="st1" d="M35 51c-7.7 0-14-8.1-14-18 0-9.4 5.8-16 14-16s14 6.6 14 16c0 9.9-6.3 18-14 18zm0-29c-5.4 0-9 4.4-9 11 0 7 4.1 13 9 13s9-6 9-13c0-6.6-3.6-11-9-11z"/><path class="st1" d="M35 65.5c-.8 0-1.6-.4-2.1-1.1L27 55.6c-.3-.4-.4-.9-.4-1.4v-8c0-1.4 1.1-2.5 2.5-2.5s2.5 1.1 2.5 2.5v7.2l3.3 4.9 3.5-5.5c.7-1.2 2.3-1.5 3.4-.8 1.2.7 1.5 2.3.8 3.4l-5.5 8.8c-.4.9-1.2 1.3-2.1 1.3zM51.5 77c-1.4 0-2.5-1.1-2.5-2.5L48.9 63c0-.7.3-1.3.7-1.8.5-.5 1.1-.7 1.8-.7H64c1.4 0 2.5 1.1 2.5 2.5s-1.1 2.5-2.5 2.5H53.9l.1 9c0 1.4-1.1 2.5-2.5 2.5z"/><path class="st1" d="M39.6 56.8c-.7 0-1.3-.3-1.7-.7-.5-.5-.8-1.1-.8-1.8v-7c0-1.4 1.1-2.5 2.5-2.5s2.5 1.1 2.5 2.5v4.5l21.9-.5c1.4 0 2.5 1.1 2.6 2.4 0 1.4-1.1 2.5-2.4 2.6l-24.6.5zM73.4 65.5h-1.6c-1.4 0-2.5-1.1-2.5-2.5s1.1-2.5 2.5-2.5h.7c1-.9 1.5-1.8 1.5-2.5s-.7-1.5-1.3-2l-3.4.1c-1.4.1-2.5-1.1-2.6-2.4 0-1.4 1.1-2.5 2.4-2.6l4.2-.1c.5 0 .9.1 1.3.3.4.2 4 2.4 4.3 6.3.2 2.6-1.2 5.1-4 7.3-.4.4-.9.6-1.5.6zM31.5 103h-19c-1.3 0-2.5-1.1-2.5-2.4 0-1.2-1-28.4 1-38.6 1.9-9.6 12.8-11.4 18.2-11 1.4.1 2.4 1.3 2.3 2.7-.1 1.4-1.3 2.4-2.7 2.3-.5 0-11.4-.7-12.9 7-1.6 7.9-1.2 28-1 35h16.6c1.4 0 2.5 1.1 2.5 2.5s-1.1 2.5-2.5 2.5z"/><path class="st1" d="M22.5 79.5c-1.4 0-2.5-1.1-2.5-2.5v-6.5c0-1.4 1.1-2.5 2.5-2.5s2.5 1.1 2.5 2.5V77c0 1.4-1.1 2.5-2.5 2.5zM22.5 88c-1.4 0-2.5-1.1-2.5-2.5v-1.9c0-1.4 1.1-2.5 2.5-2.5s2.5 1.1 2.5 2.5v1.9c0 1.4-1.1 2.5-2.5 2.5zM6.5 75C5.1 75 4 73.9 4 72.5v-1.9c0-1.4 1.1-2.5 2.5-2.5S9 69.2 9 70.6v1.9C9 73.9 7.9 75 6.5 75zM6.5 82.5C5.1 82.5 4 81.4 4 80v-1.9c0-1.4 1.1-2.5 2.5-2.5S9 76.7 9 78.1V80c0 1.4-1.1 2.5-2.5 2.5zM6.5 90C5.1 90 4 88.9 4 87.5v-1.9c0-1.4 1.1-2.5 2.5-2.5S9 84.2 9 85.6v1.9C9 88.9 7.9 90 6.5 90zM22.5 100.7c-1.4 0-2.5-1.1-2.5-2.5v-7c0-1.4 1.1-2.5 2.5-2.5s2.5 1.1 2.5 2.5v7c0 1.4-1.1 2.5-2.5 2.5zM66.5 53h-6.1C58 53 56 51 56 48.5v-14c0-2.5 2-4.5 4.5-4.5h6.1c2.5 0 4.5 2 4.5 4.5v14.1C71 51 69 53 66.5 53zM61 48h5V35h-5v13z"/><path class="st1" d="M88.5 58.4c-.3 0-.7-.1-1-.2l-20-8.7c-1.3-.5-1.8-2-1.3-3.3.5-1.3 2-1.8 3.3-1.3L86 52.1V32.2l-15.6 6.2c-1.3.5-2.7-.1-3.2-1.4-.5-1.3.1-2.7 1.4-3.2l19-7.6c.8-.3 1.6-.2 2.3.3.7.5 1.1 1.2 1.1 2.1V56c0 .8-.4 1.6-1.1 2.1-.4.2-.9.3-1.4.3z"/><path class="st1" d="M94.8 31c-.1 0-.1 0 0 0-1.5 0-2.5-1.2-2.5-2.6.1-1.9-.7-2.5-.9-2.7-1.5-1.2-4.6-.9-5.3-.7-1.4.3-2.7-.6-3-1.9-.3-1.4.6-2.7 1.9-3 .6-.1 6.1-1.2 9.6 1.8 1.3 1.1 2.8 3.1 2.7 6.7-.1 1.3-1.2 2.4-2.5 2.4zM95.5 41c-.8 0-1.7-.4-2.1-1.2-.7-1.2-.3-2.7.9-3.4l5-3c1.2-.7 2.7-.3 3.4.9.7 1.2.3 2.7-.9 3.4l-5 3c-.4.2-.9.3-1.3.3z"/><path class="st1" d="M103 44.7h-6.2c-1.4 0-2.5-1.1-2.5-2.5s1.1-2.5 2.5-2.5h6.2c1.4 0 2.5 1.1 2.5 2.5s-1.1 2.5-2.5 2.5z"/><path class="st1" d="M100.5 53c-.5 0-1-.2-1.5-.5l-5-3.7c-1.1-.8-1.4-2.4-.5-3.5.8-1.1 2.4-1.4 3.5-.5l5 3.7c1.1.8 1.4 2.4.5 3.5-.5.6-1.2 1-2 1zM47.5 96c-5.2 0-9.5-4.3-9.5-9.5s4.3-9.5 9.5-9.5 9.5 4.3 9.5 9.5-4.3 9.5-9.5 9.5zm0-14C45 82 43 84 43 86.5s2 4.5 4.5 4.5 4.5-2 4.5-4.5-2-4.5-4.5-4.5z"/><path class="st1" d="M61.1 113H35.5c-1.2 0-2.3-.9-2.5-2.1-.7-4.3.1-7.8 2.3-10.4 3.8-4.5 10.3-4.6 10.5-4.6H51.4c4.9.7 8.4 2.7 10.4 5.8 2.9 4.3 1.6 9.2 1.6 9.4-.2 1.1-1.2 1.9-2.3 1.9zm-23.3-5h21c0-1-.3-2.4-1.1-3.6-1.2-1.8-3.5-3-6.8-3.5h-5c-.2 0-4.6.2-6.8 2.8-.9 1.1-1.3 2.5-1.3 4.3z"/><path class="st1" d="M42.5 111.8c-1.4 0-2.5-1.1-2.5-2.5v-3.8c0-1.4 1.1-2.5 2.5-2.5s2.5 1.1 2.5 2.5v3.8c0 1.4-1.1 2.5-2.5 2.5zM53 111.8c-1.4 0-2.5-1.1-2.5-2.5v-3.8c0-1.4 1.1-2.5 2.5-2.5s2.5 1.1 2.5 2.5v3.8c0 1.4-1.1 2.5-2.5 2.5z"/><g><path class="st1" d="M78.5 96c-5.2 0-9.5-4.3-9.5-9.5s4.3-9.5 9.5-9.5 9.5 4.3 9.5 9.5-4.3 9.5-9.5 9.5zm0-14C76 82 74 84 74 86.5s2 4.5 4.5 4.5 4.5-2 4.5-4.5-2-4.5-4.5-4.5z"/><path class="st1" d="M92.1 113H66.5c-1.2 0-2.3-.9-2.5-2.1-.7-4.3.1-7.8 2.3-10.4 3.8-4.5 10.3-4.6 10.5-4.6H82.4c4.9.7 8.4 2.7 10.4 5.8 2.9 4.3 1.6 9.2 1.6 9.4-.2 1.1-1.2 1.9-2.3 1.9zm-23.3-5h21c0-1-.3-2.4-1.1-3.6-1.2-1.8-3.5-3-6.8-3.5h-5c-.2 0-4.6.2-6.8 2.8-.9 1.1-1.3 2.5-1.3 4.3z"/><path class="st1" d="M73.5 111.8c-1.4 0-2.5-1.1-2.5-2.5v-3.8c0-1.4 1.1-2.5 2.5-2.5s2.5 1.1 2.5 2.5v3.8c0 1.4-1.1 2.5-2.5 2.5zM84 111.8c-1.4 0-2.5-1.1-2.5-2.5v-3.8c0-1.4 1.1-2.5 2.5-2.5s2.5 1.1 2.5 2.5v3.8c0 1.4-1.1 2.5-2.5 2.5z"/></g><g><path class="st1" d="M109.5 96c-5.2 0-9.5-4.3-9.5-9.5s4.3-9.5 9.5-9.5 9.5 4.3 9.5 9.5-4.3 9.5-9.5 9.5zm0-14c-2.5 0-4.5 2-4.5 4.5s2 4.5 4.5 4.5 4.5-2 4.5-4.5-2-4.5-4.5-4.5z"/><path class="st1" d="M123.1 113H97.5c-1.2 0-2.3-.9-2.5-2.1-.7-4.3.1-7.8 2.3-10.4 3.8-4.5 10.3-4.6 10.5-4.6H113.4c4.9.7 8.4 2.7 10.4 5.8 2.9 4.3 1.6 9.2 1.6 9.4-.2 1.1-1.2 1.9-2.3 1.9zm-23.3-5h21c0-1-.3-2.4-1.1-3.6-1.2-1.8-3.5-3-6.8-3.5h-5c-.2 0-4.6.2-6.8 2.8-.9 1.1-1.3 2.5-1.3 4.3z"/><path class="st1" d="M104.5 111.8c-1.4 0-2.5-1.1-2.5-2.5v-3.8c0-1.4 1.1-2.5 2.5-2.5s2.5 1.1 2.5 2.5v3.8c0 1.4-1.1 2.5-2.5 2.5zM115 111.8c-1.4 0-2.5-1.1-2.5-2.5v-3.8c0-1.4 1.1-2.5 2.5-2.5s2.5 1.1 2.5 2.5v3.8c0 1.4-1.1 2.5-2.5 2.5z"/></g><g><path class="st1" d="M72.7 69.1H64c-1.4 0-2.5-1.1-2.5-2.5v-14c0-1.4 1.1-2.5 2.5-2.5.8 0 1.5.3 1.9.9-.2-1.3.5-2.5 1.8-2.9 1.3-.4 2.7.4 3.1 1.8L75.2 66c.2.8 0 1.6-.4 2.2s-1.3.9-2.1.9zm-6.2-5h3l-3-10.9v10.9z"/></g><g><path class="st1" d="M6.5 68h-.2c-1.4-.1-2.4-1.3-2.3-2.7 1.1-15.5 11.8-18.9 12.3-19.1 1.3-.4 2.7.4 3.1 1.7.4 1.3-.4 2.7-1.7 3.1-.4.1-7.9 2.7-8.8 14.6C8.9 67 7.8 68 6.5 68z"/></g></svg>