<svg version="1.1" id="Layer_1" xmlns="http://www.w3.org/2000/svg" x="0" y="0" viewBox="0 0 128 128" style="enable-background:new 0 0 128 128" xml:space="preserve"><style>.st1{fill:#231f20}</style><circle cx="76.1" cy="82.4" r="32.6" style="fill:#d6b2f5"/><path class="st1" d="M20.3 116H3.2c-1.5 0-2.7-1.2-2.7-2.7V12.7c0-1.5 1.2-2.7 2.7-2.7H70c1.5 0 2.7 1.2 2.7 2.7v17.9c0 1.5-1.2 2.7-2.7 2.7-1.5 0-2.7-1.2-2.7-2.7V15.5H6v95.1h14.4c1.5 0 2.7 1.2 2.7 2.7-.1 1.5-1.3 2.7-2.8 2.7z"/><path class="st1" d="M74.2 116H61.4c-1.5 0-2.7-1.2-2.7-2.7V87.1H44.9v26.1c0 1.5-1.2 2.7-2.7 2.7h-15c-1.5 0-2.7-1.2-2.7-2.7v-53c0-.8.3-1.5.9-2 23.3-21.5 24.2-21.5 25.4-21.5 1.3 0 2.1 0 25.1 21.5.6.5.9 1.3.9 2v53c0 1.6-1.2 2.8-2.6 2.8zM64 110.5h7.4v-49c-7.3-6.8-17.1-15.8-20.6-18.7-3.5 2.9-13.6 11.9-20.9 18.7v49h9.7V84.4c0-1.5 1.2-2.7 2.7-2.7h19.1c1.5 0 2.7 1.2 2.7 2.7v26.1z"/><path class="st1" d="M85.4 116h-5c-1.5 0-2.7-1.2-2.7-2.7 0-1.5 1.2-2.7 2.7-2.7h2.3v-42c0-1.5 1.2-2.7 2.7-2.7h18.1c1.5 0 2.7 1.2 2.7 2.7l.5 41.7h15.2V47.9L93 23.3 66.3 44.9c-1.2 1-2.9.8-3.9-.4-1-1.2-.8-2.9.4-3.9l28.5-23c1-.8 2.5-.8 3.5 0l31.6 26.9c.6.5 1 1.3 1 2.1v66.2c0 1.5-1.2 2.7-2.7 2.7H104c-1.5 0-2.7-1.2-2.7-2.7l-.5-41.7H88.1v42c0 1.7-1.2 2.9-2.7 2.9zM61.5 23.5H10.3c-1.5 0-2.7-1.2-2.7-2.7 0-1.5 1.2-2.7 2.7-2.7h51.2c1.5 0 2.7 1.2 2.7 2.7.1 1.5-1.2 2.7-2.7 2.7zM43.9 36.8H10.3c-1.5 0-2.7-1.2-2.7-2.7 0-1.5 1.2-2.7 2.7-2.7h33.6c1.5 0 2.7 1.2 2.7 2.7.1 1.5-1.2 2.7-2.7 2.7zM20.6 103.7H10.3c-1.5 0-2.7-1.2-2.7-2.7 0-1.5 1.2-2.7 2.7-2.7h10.3c1.5 0 2.7 1.2 2.7 2.7 0 1.5-1.2 2.7-2.7 2.7zM20.6 90.5H10.3c-1.5 0-2.7-1.2-2.7-2.7 0-1.5 1.2-2.7 2.7-2.7h10.3c1.5 0 2.7 1.2 2.7 2.7 0 1.5-1.2 2.7-2.7 2.7zM20.6 77.4H10.3c-1.5 0-2.7-1.2-2.7-2.7S8.8 72 10.3 72h10.3c1.5 0 2.7 1.2 2.7 2.7s-1.2 2.7-2.7 2.7zM20.6 64.2H10.3c-1.5 0-2.7-1.2-2.7-2.7s1.2-2.7 2.7-2.7h10.3c1.5 0 2.7 1.2 2.7 2.7s-1.2 2.7-2.7 2.7zM30 50H10.3c-1.5 0-2.7-1.2-2.7-2.7 0-1.5 1.2-2.7 2.7-2.7H30c1.5 0 2.7 1.2 2.7 2.7.1 1.4-1.2 2.7-2.7 2.7z"/></svg>