<svg version="1.1" id="Layer_1" xmlns="http://www.w3.org/2000/svg" x="0" y="0" viewBox="0 0 128 128" xml:space="preserve"><style>.st1{fill:#0c0c0c}</style><switch><g><path d="M33.5 56.6c0-17.2 13.9-31.1 31.1-31.1s31.1 13.9 31.1 31.1" fill="#d6b2f5"/><path class="st1" d="M124.2 78.2H35.4c-1.4 0-2.5-1.1-2.5-2.5v-9.2c0-1.4 1.1-2.5 2.5-2.5h88.8c1.4 0 2.5 1.1 2.5 2.5v9.2c0 1.4-1.2 2.5-2.5 2.5zm-86.3-5h83.8V69H37.9v4.2zM17.6 128.4H1.5c-1.4 0-2.5-1.1-2.5-2.5V84.5C-1 83.1.1 82 1.5 82h16.1c1.4 0 2.5 1.1 2.5 2.5v41.3c0 1.5-1.1 2.6-2.5 2.6zm-13.6-5h11.1V87H4v36.4z"/><path class="st1" d="M18.6 122.3c-.7 0-1.4-.3-1.9-.9-.9-1.1-.8-2.6.3-3.5 7.9-6.6 15.6-5.4 17.5-5h30c8.4 1.2 12.4-1.9 12.6-2.1.1-.1.3-.2.4-.3l28.3-15.8c.2-.8.2-1.5-.2-2-.8-1-3.2-1.2-4.9-1.1l-21.8 10c-.3.2-.7.2-1 .2H49c-1.2 0-2.2-.9-2.5-2s.4-2.4 1.5-2.8l18.4-7c1-.4 1.8-1.3 1.9-2.3.1-.5.2-1.2-1.7-1.8-.7-.2-1.6-.3-2.6-.3l-20.3 1.2c-2.8.2-5.6.8-8.2 1.8l-16.1 6.2c-1.3.5-2.7-.1-3.2-1.4-.5-1.3.1-2.7 1.4-3.2L33.7 84c3.1-1.2 6.4-1.9 9.7-2.1l20.3-1.2c1.6-.1 3 .1 4.4.5 3.7 1.1 5.6 3.8 5.2 7.2-.4 2.8-2.3 5.2-5 6.3L62.2 97h15.1l21.6-10c.2-.1.5-.2.8-.2.7-.1 6.8-.7 9.7 2.9 1.1 1.3 2.1 3.8.8 7.7-.2.6-.6 1.1-1.1 1.4l-29 16.2c-1.2.9-6.5 4.4-16.1 3H34.3c-.2 0-.5 0-.7-.1-.2-.1-6.5-1.8-13.2 3.9-.7.3-1.3.5-1.8.5zM94.5 61.2H34.8c-1.4 0-2.5-1.1-2.5-2.5s1.1-2.5 2.5-2.5h59.8c1.4 0 2.5 1.1 2.5 2.5s-1.2 2.5-2.6 2.5z"/><path class="st1" d="M91.6 61c-1.4 0-2.5-1.1-2.5-2.5 0-13.7-11.1-24.8-24.8-24.8S39.5 44.8 39.5 58.5c0 1.4-1.1 2.5-2.5 2.5s-2.5-1.1-2.5-2.5c0-16.4 13.4-29.8 29.8-29.8s29.8 13.4 29.8 29.8c0 1.4-1.1 2.5-2.5 2.5zM110.5 48.3c-.9 0-1.5-.1-1.8-.1-6.5-.6-11.4-3.1-14.5-7.5-6.2-8.6-3.2-21.3-3.1-21.8.3-1.1 1.4-1.9 2.5-1.9l31.3.9c1.3 0 2.3 1 2.4 2.3.7 11.6-1.5 19.8-6.6 24.4-3.7 3.2-7.8 3.7-10.2 3.7zM95.6 22c-.5 3.5-1 10.8 2.7 15.8 2.3 3.2 6 5 11 5.4h.2c.2 0 4.4.7 7.9-2.5s5.3-9.4 5-18L95.6 22z"/><path class="st1" d="M109 68.4c-1.4 0-2.5-1.1-2.5-2.5V47.3c0-1.4 1.1-2.5 2.5-2.5s2.5 1.1 2.5 2.5v18.6c0 1.3-1.2 2.5-2.5 2.5zM49.2 27.5c-1 0-1.9-.6-2.3-1.6-.5-1.3.1-2.7 1.4-3.3.9-.4 1.9-1.1 2.1-1.5-.1-.1-.3-.4-.9-.9-2.9-2.1-3.4-4.2-3.3-5.7.2-3.3 3.7-5.2 4.1-5.4 1.2-.6 2.7-.2 3.4 1 .6 1.2.2 2.7-1 3.4-.7.4-1.4 1.1-1.4 1.4 0 .1.2.5 1.2 1.3 2.8 2 3.1 4.1 3 5.5-.4 3.4-4.4 5.2-5.2 5.6-.5.2-.8.2-1.1.2zm1.2-6.2zM77 25.9c-1 0-1.9-.6-2.3-1.6-.5-1.3.1-2.7 1.4-3.3.9-.4 1.9-1.1 2.1-1.5-.1-.1-.3-.4-.9-.9-2.9-2.1-3.4-4.2-3.3-5.7.2-3.3 3.7-5.2 4.1-5.4 1.2-.6 2.7-.2 3.4 1 .6 1.2.2 2.7-1 3.4-.7.4-1.4 1.1-1.4 1.4 0 .1.2.5 1.2 1.3 2.8 2 3.1 4.1 3 5.5-.4 3.4-4.4 5.2-5.2 5.6-.5.1-.8.2-1.1.2zm1.2-6.2zM61.7 24.6c-1.3 0-2.3-.8-2.5-1.9-.2-1.2.8-2.2 2.2-2.3 1.5-.1 1.8-.6 1.9-.7.2-.2.2-.5.1-.8-.1-.4-.5-.8-1-1-1.6-.7-2.7-1.8-3.1-3.1-.5-1.7.2-3.6 2.1-5.8 1.9-2.2 1.9-3.3 1.8-3.7-.1-.4-.4-.5-.5-.6l1.1-1.9 1-1.9c.2.1 2.5 1 3.2 3.2.7 2.1-.2 4.6-2.5 7.3-1.1 1.3-1.3 2.1-1.2 2.3 0 .1.3.2.5.3 1.7.7 3 2 3.5 3.5.5 1.4.3 2.8-.5 4.1-.8 1.1-2.4 2.5-5.7 2.9-.2 0-.3.1-.4.1z"/></g></switch></svg>