<svg version="1.1" id="Layer_1" xmlns="http://www.w3.org/2000/svg" x="0" y="0" viewBox="0 0 128 128" xml:space="preserve"><style>.st1{fill:#231f20}</style><switch><g><circle cx="64" cy="63.2" r="14.4" fill="#d6b2f5"/><path class="st1" d="M106.3 67.8l-13.4-.2c-.7 0-1.3-.3-1.8-.8l-27.8-29L36.1 67c-.5.5-1.1.8-1.8.8H4.8c-.9 0-1.7-.5-2.1-1.2-.5-.7-.5-1.7-.1-2.5l9.1-17.5c.4-.8 1.3-1.3 2.2-1.3h35.5l12-12.9c.5-.5 1.1-.8 1.8-.8s1.3.3 1.8.8l29 30.2 12.3.2c1.4 0 2.5 1.2 2.5 2.5 0 1.4-1.1 2.5-2.5 2.5zm-97.4-5h24.2l11.6-12.5H15.4L8.9 62.8z"/><path class="st1" d="M122.2 67.8h-9.6c-1.4 0-2.5-1.1-2.5-2.5s1.1-2.5 2.5-2.5h5.8l-6.3-14.4-36.7.8h-.1c-1.4 0-2.5-1.1-2.5-2.4 0-1.4 1.1-2.5 2.4-2.6l38.4-.8h.1c1 0 1.9.6 2.3 1.5l8.5 19.4c.3.8.3 1.7-.2 2.4s-1.2 1.1-2.1 1.1zM9.5 118.3c-1.4 0-2.5-1.1-2.5-2.5V66.1c0-1.4 1.1-2.5 2.5-2.5s2.5 1.1 2.5 2.5v49.7c0 1.4-1.1 2.5-2.5 2.5z"/><path class="st1" d="M117.4 118.3c-1.4 0-2.5-1.1-2.5-2.5V65.3c0-1.4 1.1-2.5 2.5-2.5s2.5 1.1 2.5 2.5v50.5c0 1.4-1.2 2.5-2.5 2.5z"/><path class="st1" d="M122.5 118.9H4.1c-1.4 0-2.5-1.1-2.5-2.5s1.1-2.5 2.5-2.5h118.4c1.4 0 2.5 1.1 2.5 2.5s-1.1 2.5-2.5 2.5zM41.9 87.5h-24c-1.4 0-2.5-1.1-2.5-2.5V72.7c0-1.4 1.1-2.5 2.5-2.5h24c1.4 0 2.5 1.1 2.5 2.5V85c0 1.4-1.1 2.5-2.5 2.5zm-21.5-5h19v-7.3h-19v7.3zM109.2 87.7h-24c-1.4 0-2.5-1.1-2.5-2.5V72.8c0-1.4 1.1-2.5 2.5-2.5h24c1.4 0 2.5 1.1 2.5 2.5v12.3c0 1.5-1.1 2.6-2.5 2.6zm-21.4-5h19v-7.3h-19v7.3zM109.2 106.4h-24c-1.4 0-2.5-1.1-2.5-2.5V91.5c0-1.4 1.1-2.5 2.5-2.5h24c1.4 0 2.5 1.1 2.5 2.5v12.3c0 1.5-1.1 2.6-2.5 2.6zm-21.4-5h19V94h-19v7.4zM76.4 109.9h-24c-1.4 0-2.5-1.1-2.5-2.5V90.9c0-1.4 1.1-2.5 2.5-2.5h24c1.4 0 2.5 1.1 2.5 2.5v16.5c0 1.4-1.1 2.5-2.5 2.5zm-21.5-5h19V93.4h-19v11.5z"/><path class="st1" d="M81 119.1H46.3c-1.4 0-2.5-1.1-2.5-2.5v-8.4c0-1.4 1.1-2.5 2.5-2.5H81c1.4 0 2.5 1.1 2.5 2.5v8.4c0 1.3-1.2 2.5-2.5 2.5zm-32.2-5h29.7v-3.4H48.8v3.4zM42.3 106.4h-24c-1.4 0-2.5-1.1-2.5-2.5V91.5c0-1.4 1.1-2.5 2.5-2.5h24c1.4 0 2.5 1.1 2.5 2.5v12.3c0 1.5-1.2 2.6-2.5 2.6zm-21.5-5h19V94h-19v7.4zM29.3 84.7c-1.4 0-2.5-1.1-2.5-2.5v-7.1c0-1.4 1.1-2.5 2.5-2.5s2.5 1.1 2.5 2.5v7.1c0 1.4-1.2 2.5-2.5 2.5z"/><path class="st1" d="M29.9 104.1c-1.4 0-2.5-1.1-2.5-2.5v-7.3c0-1.4 1.1-2.5 2.5-2.5s2.5 1.1 2.5 2.5v7.3c0 1.4-1.1 2.5-2.5 2.5zM97.2 84.7c-1.4 0-2.5-1.1-2.5-2.5v-7.1c0-1.4 1.1-2.5 2.5-2.5s2.5 1.1 2.5 2.5v7.1c0 1.4-1.1 2.5-2.5 2.5zM97.2 104.1c-1.4 0-2.5-1.1-2.5-2.5v-7.3c0-1.4 1.1-2.5 2.5-2.5s2.5 1.1 2.5 2.5v7.3c0 1.4-1.1 2.5-2.5 2.5zM64.4 82c-8.2 0-14.9-6.7-14.9-14.9s6.7-14.9 14.9-14.9 14.9 6.7 14.9 14.9S72.6 82 64.4 82zm0-24.8c-5.4 0-9.9 4.4-9.9 9.9S59 77 64.4 77s9.9-4.4 9.9-9.9-4.4-9.9-9.9-9.9z"/><path class="st1" d="M63.3 73.7c-1.4 0-2.5-1.1-2.5-2.5v-4.1c0-.8.4-1.6 1.1-2l5.5-3.9c1.1-.8 2.7-.5 3.5.6.8 1.1.5 2.7-.6 3.5l-4.5 3.1v2.8c0 1.4-1.1 2.5-2.5 2.5zM63.3 35.7c-1.4 0-2.5-1.1-2.5-2.5V11.8c0-1.4 1.1-2.5 2.5-2.5h14.4c1.4 0 2.5 1.1 2.5 2.5v12.7c0 .7-.3 1.3-.7 1.8-.5.4-1.1.7-1.8.7H65.8v6.2c0 1.3-1.1 2.5-2.5 2.5zm2.5-13.8h9.4v-7.7h-9.4v7.7zM63.6 110.6c-1.4 0-2.5-1.1-2.5-2.5V93.2c0-1.4 1.1-2.5 2.5-2.5s2.5 1.1 2.5 2.5v14.9c0 1.4-1.1 2.5-2.5 2.5z"/></g></switch></svg>