<svg version="1.1" id="Layer_1" xmlns="http://www.w3.org/2000/svg" x="0" y="0" viewBox="0 0 128 128" style="enable-background:new 0 0 128 128" xml:space="preserve"><style>.st1{fill:#231f20}</style><circle cx="85.7" cy="16.4" r="11.3" style="fill:#d6b2f5"/><path class="st1" d="M85 28c-6.1 0-11-4.9-11-11S78.9 6 85 6s11 4.9 11 11-4.9 11-11 11zm0-17c-3.3 0-6 2.7-6 6s2.7 6 6 6 6-2.7 6-6-2.7-6-6-6zM69.5 79c-.6 0-1.3-.2-1.8-.7-1-1-1-2.6 0-3.5s2.6-1 3.5 0 1 2.6 0 3.5c-.4.5-1.1.7-1.7.7z"/><path class="st1" d="M97.7 119.3H74.1c-.7 0-1.4-.3-1.8-.8-.5-.5-.7-1.2-.7-1.9l2.1-30.5c-.4 2.2-1.5 4.5-3.7 6.3-.2.2-.5.3-.8.4L53 98.6c-1.2 1.6-3.2 5-3.2 7.5.1 2.3-.9 3.7-1.8 4.5-2.3 2.2-6 1.9-6.5 1.9-1-.1-1.8-.7-2.1-1.7l-7.2-21.1c-.2-.6-.2-1.3.1-1.9s.8-1.1 1.5-1.3l21.8-6.7-1.9-14c-2.8-2.6-6.1-8.5-2.7-16.3 2.2-4.9 4.6-9.4 6.4-12.6-3.5.9-7.9 2.5-10.2 5.7-1.3 1.7-2.9 2.9-4.7 3.3-2.8.7-4.5-.1-5.4-.9-1.5-1.1-2.2-3-2.2-5.5 0-2.4 1.4-4.8 4.2-7.2 6.4-5.3 20.1-10.2 25.7-9.2l7.8 1.1c3.4.5 6.4 2.3 8.3 5.1 2 2.8 2.7 6.1 2 9.4v.3c0 .2-.1.5-.2.7l-1.9 3.7c-.6 1.2-2.2 1.7-3.4 1.1-1.2-.6-1.7-2.2-1.1-3.4l1.8-3.4c.4-1.9 0-3.9-1.2-5.5-1.2-1.7-2.9-2.7-5-3l-7.8-1.1c-3.6-.6-15.8 3.2-21.7 8.1-2.3 1.9-2.4 3-2.4 3.3 0 1.3.3 1.6.3 1.6.1 0 .4.1 1.2-.1.8-.2 1.5-.9 1.9-1.4 5.6-7.5 18.4-8.6 19-8.6.9-.1 1.8.4 2.3 1.2.5.8.5 1.8 0 2.6 0 .1-5 8-8.8 16.7-3.1 6.9 1.4 10.6 2 11 .5.4.9 1 1 1.7l2.3 17c.2 1.2-.6 2.4-1.7 2.7l-21.4 6.6 5.7 16.9c.4-.1.8-.2 1-.4.1-.1.2-.2.2-.7-.2-5.1 4.2-10.7 4.7-11.3.3-.4.7-.6 1.1-.8l16.5-5.8c3.7-3.5.5-9.9.1-10.6-.6-1.1-.3-2.4.7-3.2 1-.7 2.3-.7 3.2.1l7 6.5c.6.5.8 1.3.8 2l-2.2 31.1h19.5c-.1-.4-.6-1.1-1-1.5-7.7-2.4-10-8.5-10.1-8.7-.1-.3-.2-.6-.2-.9V79.5L67.7 61.2c-.7-.8-.9-1.9-.4-2.9l4.1-7.8c.6-1.2 2.1-1.7 3.4-1.1 1.2.6 1.7 2.2 1.1 3.4L72.6 59l16.8 17.7c.4.5.7 1.1.7 1.7v24.1c.5 1 2.5 4.1 7.2 5.5.3.1.6.3.9.5.5.4 3.2 2.8 3.2 5.9 0 1.1-.3 2.8-2 4.2-.6.5-1.1.7-1.7.7z"/><path class="st1" d="M94.4 63h-.2c-1.6-.1-7.6-.7-16.8-5.3-11.2-5.5-12.3-20.4-12.4-21v-.5c.3-2.6 1.2-4.4 2.7-5.6 1.2-.9 2.8-1.3 4.5-1.1 2.9.4 5.4 2.5 6.4 5.4.6 1.9 1.9 5.5 3.2 8.7.8 2.1 7.7 5.2 15.9 7.3.7.2 1.4.6 1.9 1.1 2.2 2.4 2.2 4.5 1.8 5.8-.9 3.1-4.5 4.5-6.1 5-.2.1-.6.2-.9.2zM70 36.6c.2 1.8 1.7 12.7 9.6 16.7 8 4 13.2 4.6 14.6 4.7 1.5-.5 2.4-1.2 2.4-1.4 0 0 0-.3-.5-.8-6.4-1.6-17-5.1-19-10.3-1.3-3.3-2.6-7-3.2-8.9-.4-1.1-1.3-1.9-2.4-2.1-.4-.1-.6 0-.8.1-.2.2-.5.8-.7 2zm-2.5-.1z"/><circle class="st1" cx="29.3" cy="90.1" r="3"/><circle class="st1" cx="31.9" cy="97.3" r="3"/><circle class="st1" cx="34.5" cy="104.4" r="3"/><circle class="st1" cx="36.9" cy="111.3" r="3"/><g><circle class="st1" cx="74.8" cy="121.6" r="3"/><circle class="st1" cx="82.4" cy="121.6" r="3"/><circle class="st1" cx="90" cy="121.6" r="3"/><circle class="st1" cx="97.3" cy="121.6" r="3"/></g><g><path class="st1" d="M85 104.8h-7.4c-1.4 0-2.5-1.1-2.5-2.5s1.1-2.5 2.5-2.5H85c1.4 0 2.5 1.1 2.5 2.5s-1.1 2.5-2.5 2.5z"/></g><g><path class="st1" d="M50.4 96.3c-1.1 0-2-.7-2.4-1.7l-2.2-7c-.4-1.3.3-2.7 1.6-3.1 1.3-.4 2.7.3 3.1 1.6l2.2 7c.4 1.3-.3 2.7-1.6 3.1-.1.1-.4.1-.7.1z"/></g></svg>