<svg version="1.1" id="Layer_1" xmlns="http://www.w3.org/2000/svg" x="0" y="0" viewBox="0 0 128 128" style="enable-background:new 0 0 128 128" xml:space="preserve"><style>.st1{fill:#231f20}</style><circle cx="82" cy="86.4" r="10.5" style="fill:#d6b2f5"/><path class="st1" d="M110.9 89.5c-3.3 0-7.2-1.9-11.3-5.6-1.1-1-1.2-2.6-.2-3.7s2.6-1.2 3.7-.2c4.4 3.9 7.8 4.7 8.7 4 .6-.5 1-2.1.3-4.8-.7-3.2-2.7-7-5.3-10.5-5.2-6.9-10.3-9-13.1-8.1-.1.3-.3 1.4.5 4.3.3 1.4-.5 2.8-1.9 3.2-1.4.3-2.8-.5-3.2-1.9-.6-2.4-2.2-8.6 2.7-10.4 5.7-2.1 13.1 1.6 19.2 9.8 3.1 4.1 5.3 8.5 6.2 12.4 1.1 4.7.3 8.3-2.3 10.2-1 .9-2.4 1.3-4 1.3zM20.5 68.2c-1.2 0-2.3-.9-2.6-2.1-.2-1-4.2-23.6 7.4-37.3C31.2 22 39.8 18.7 51 19c.5 0 11.2.5 18.8 9.6 6.4 7.6 8.7 18.8 6.7 33.2-.2 1.4-1.5 2.4-2.9 2.2-1.4-.2-2.4-1.5-2.2-2.9 1.7-12.9-.1-22.6-5.6-29.1-6.2-7.3-14.9-7.7-15-7.8-9.5-.2-16.7 2.4-21.4 8-10 11.7-6.3 32.7-6.3 32.9.3 1.4-.7 2.8-2.1 3.1h-.5z"/><path class="st1" d="M24.7 84h-.1c-.3 0-7.8-.5-10.8-12.5-.9-3.4-.4-5.8 1.5-7.2 3-2.2 7.4.3 8.7 1.2 1.2.8 1.6 2.4.8 3.6-.8 1.2-2.4 1.6-3.6.8-.8-.5-1.9-1-2.6-1.1 0 .3.1.8.2 1.4 2 7.9 5.9 8.5 6 8.5 1.4.1 2.5 1.3 2.5 2.7 0 1.5-1.2 2.6-2.6 2.6z"/><path class="st1" d="M46.8 101.3c-3.4 0-6.6-.8-9.6-2.3-10.9-5.7-14.8-19.8-14.9-20.4-.4-1.4.5-2.8 1.9-3.2 1.4-.4 2.8.5 3.2 1.9.1.2 3.5 12.5 12.3 17.1 4.2 2.2 9.2 2.3 14.6.3 1.4-.5 2.9.2 3.4 1.6.5 1.4-.2 2.9-1.6 3.4-3.3 1-6.4 1.6-9.3 1.6zM22.6 67.2h-.4c-1.4-.2-2.4-1.5-2.2-3 .1-1 3.6-24.2 18.3-24.2 11.2 0 20-9.5 20.1-9.6 1-1.1 2.6-1.2 3.7-.2s1.2 2.6.2 3.7c-.4.5-10.4 11.3-23.9 11.3-10 0-13.1 19.6-13.1 19.8-.3 1.2-1.4 2.2-2.7 2.2z"/><path class="st1" d="M70.8 63c-1.3 0-2.5-1-2.6-2.4-.9-10.5-17.8-14.4-18-14.4-1.4-.3-2.3-1.7-2-3.1.3-1.4 1.7-2.3 3.1-2 .9.2 20.9 4.8 22.1 19.1.1 1.4-1 2.7-2.4 2.8h-.2zM80.9 80.9c-7.2 0-15.2-1.4-16.8-6-.6-1.9-.4-3.8.7-5.4 2.9-4.4 11.5-5.3 13.2-5.4 1.4-.1 2.7 1 2.8 2.4.1 1.4-1 2.7-2.4 2.8-3.2.2-8.1 1.5-9.2 3.1-.1.1-.2.3 0 .8.2.3 1.9 1.7 7.6 2.3 8.2.8 15.8-.9 17.1-2.1v-.1c0-.5 0-1.9-.8-2.9-.6-.6-1.4-1-2.7-1.1-1.4-.1-2.5-1.3-2.5-2.8.1-1.4 1.3-2.5 2.8-2.5 3.4.2 5.3 1.7 6.3 2.9 2.1 2.5 2.1 5.6 2.1 6.5.1 2.2-1.4 5.1-8.6 6.5-2.4.6-5.9 1-9.6 1zm12.9-7.2z"/><path class="st1" d="M75.1 75.6h-.2c-1.4 0-2.6-1.2-2.6-2.6 0-1.4 1.2-2.6 2.6-2.6 1 0 4.9-.4 5.1-2.2 0-.3.1-.6.2-.8l1.7-3.8c.4-1 1.5-1.6 2.6-1.6 1.1.1 2 .9 2.3 1.9.8 2.9 2.1 6.1 2.9 6.7 1.2.7 1.8 2.2 1.1 3.5-.6 1.3-2.2 1.8-3.5 1.2-1.3-.6-2.3-2-3.2-3.6-1.8 3-6.1 3.9-9 3.9zm14.8-4.9zm-.1-.1z"/><path class="st1" d="M82.6 99.4c-6 0-12-1.6-17.9-4.8-2.7-1.5-4.3-4.3-4.3-7.4v-5.7c-.4-3.1 2.4-6.3 3.3-7.2 1-1.1 2.7-1.1 3.7-.1s1.1 2.6.1 3.7c-.9 1-1.9 2.5-1.9 3v6.4c0 1.1.6 2.2 1.6 2.7 3.4 1.9 13.7 7.5 27.7 1.6.7-.3 1.7-2.2 1.7-3.7v-7.6c-.2-.7-.5-1.4-.7-1.7-1.1-.3-1.9-1.3-1.9-2.5 0-1.4 1.2-2.6 2.6-2.6 3.6 0 4.9 4.6 5.2 6 0 .2.1.4.1.6V88c0 3.2-1.8 7.2-4.9 8.5-4.8 1.9-9.6 2.9-14.4 2.9z"/><path class="st1" d="M81.3 88.3c-10.4 0-17.2-4.5-17.6-4.8-1.2-.8-1.5-2.4-.7-3.6.8-1.2 2.4-1.5 3.6-.7.5.3 12.4 8.1 28.9.7 1.3-.6 2.9 0 3.5 1.3.6 1.3 0 2.9-1.3 3.5-6 2.6-11.6 3.6-16.4 3.6zM114.8 88.1c-1.2 0-2.3-.9-2.6-2.1-.3-1.4.7-2.8 2.1-3.1 1.5-.3 2.7-1 3.4-2.1.8-1.2 1.1-2.9.7-4.6-1.8-8.1-5.4-13.6-11.8-17.9-1.4-.9-3.4-2-5.1-1.5-1.5.3-2.2 1.6-2.2 1.7-.7 1.2-2.3 1.7-3.5 1-1.3-.7-1.7-2.2-1.1-3.5.2-.3 1.8-3.3 5.5-4.3 2.9-.7 6 0 9.4 2.3 7.5 5 12 11.7 14 21.1.7 3.1.2 6.1-1.4 8.6-1.5 2.3-3.9 3.8-6.8 4.4h-.6zM21.1 94.7v1.1c0 .5-.4 1-1 1s-1-.4-1-1v-1.1h-.5v2.1c0 .8.6 1.4 1.4 1.4.8 0 1.4-.6 1.4-1.4v-2.1h-.3zm-.9-5.5c-.8 0-1.4.6-1.4 1.4v2.1h.5v-1.1c0-.5.4-1 1-1s1 .4 1 1v1.1h.5v-2.1c-.2-.8-.8-1.4-1.6-1.4z"/><path class="st1" d="M23.2 92.3h-2.1v.5h1.1c.5 0 1 .4 1 1s-.4 1-1 1h-1.1v.5h2.1c.8 0 1.4-.6 1.4-1.4.1-1-.6-1.6-1.4-1.6zm-6.1 0c-.8 0-1.4.6-1.4 1.4 0 .8.6 1.4 1.4 1.4h2.1v-.5h-1.1c-.5 0-1-.4-1-1s.4-1 1-1h1.1v-.5h-2.1zM11.7 52.8v1.1c0 .5-.4 1-1 1-.5 0-1-.4-1-1v-1.1h-.4v2.1c0 .8.6 1.4 1.4 1.4.8 0 1.4-.6 1.4-1.4v-2.1h-.4zm-1-5.5c-.8 0-1.4.6-1.4 1.4v2.1h.5v-1.1c0-.5.4-1 1-1 .5 0 1 .4 1 1v1.1h.5v-2.1c-.1-.8-.8-1.4-1.6-1.4z"/><path class="st1" d="M13.8 50.4h-2.1v.5h1.1c.5 0 1 .4 1 1s-.4 1-1 1h-1.1v.5h2.1c.8 0 1.4-.6 1.4-1.4.1-1-.6-1.6-1.4-1.6zm-6.1 0c-.8 0-1.4.6-1.4 1.4 0 .8.6 1.4 1.4 1.4h2.1v-.5H8.6c-.5 0-1-.4-1-1s.4-1 1-1h1.1v-.5h-2zM83 39.2v1.1c0 .5-.4 1-1 1s-1-.4-1-1v-1.1h-.5v2.1c0 .8.6 1.4 1.4 1.4.8 0 1.4-.6 1.4-1.4v-2.1H83zm-1-5.5c-.8 0-1.4.6-1.4 1.4v2.1h.4v-1.1c0-.5.4-1 1-1s1 .4 1 1v1.1h.5v-2.1c-.1-.8-.7-1.4-1.5-1.4z"/><path class="st1" d="M85.1 36.7H83v.5h1.1c.5 0 1 .4 1 1s-.4 1-1 1H83v.5h2.1c.8 0 1.4-.6 1.4-1.4 0-.9-.6-1.6-1.4-1.6zm-6.2 0c-.8 0-1.4.6-1.4 1.4 0 .8.6 1.4 1.4 1.4H81V39h-1.1c-.5 0-1-.4-1-1s.4-1 1-1H81v-.5h-2.1z"/><circle class="st1" cx="62.4" cy="105.4" r="1.6"/><circle class="st1" cx="82.3" cy="52" r="1.6"/><g><circle class="st1" cx="5.9" cy="60.4" r="1.6"/></g><g><ellipse class="st1" cx="35.8" cy="66.7" rx="2.2" ry="3"/></g><g><ellipse class="st1" cx="58.8" cy="66.7" rx="2.2" ry="3"/></g></svg>