<svg version="1.1" id="Layer_1" xmlns="http://www.w3.org/2000/svg" x="0" y="0" viewBox="0 0 128 128" style="enable-background:new 0 0 128 128" xml:space="preserve"><style>.st1{fill:#231f20}</style><circle cx="64.1" cy="12.7" r="11.9" style="fill:#d6b2f5"/><path class="st1" d="M64 25c-6.1 0-11-4.9-11-11S57.9 3 64 3s11 4.9 11 11-4.9 11-11 11zm0-17c-3.3 0-6 2.7-6 6s2.7 6 6 6 6-2.7 6-6-2.7-6-6-6z"/><path class="st1" d="M58.5 119.4c-1.2 0-2.4-.3-3.5-.8l-.2-.1c-2.2-1.2-3.7-3.5-4-6.1L48 83.7c0-.4 0-.9.2-1.3l8.5-18.8-3.4-24.2h-22c-2.2 0-4.3-1.1-5.5-2.9-2.1-3.1-2.1-6.2.1-8.5 1.2-1.3 3-2 4.9-2h29.6c1.9-.6 9.4-2.7 18.8.1l18.4 4.4c3.2.8 5.7 3.1 6.7 6 .9 2.9 0 5.4-2.5 7-1.9 1.2-4.3 1.5-6.6 1l-14.7-3.7 2.5 21 5.4 12.5 18.1 4.1c3.4.8 6 3.2 6.9 6.4.7 2.4.3 4.7-1.2 6.6-2 2.6-5.4 3.7-8.7 2.9L78 87.9c-.7-.2-1.3-.7-1.6-1.3l-6-12.4L64.1 87l2.1 23.9c.3 2.8-1.1 5.6-3.4 7.2-1.4.8-2.8 1.3-4.3 1.3zm-5.4-35.5 2.7 27.9c.1.9.6 1.7 1.3 2.1l.1.1c1.3.7 2.4.1 2.8-.2.9-.6 1.3-1.6 1.2-2.6L59 86.7c0-.5 0-.9.2-1.3l8.8-18c.4-.9 1.3-1.4 2.2-1.4 1 0 1.8.6 2.2 1.4l7.7 16 24.4 6.1c1.3.3 2.7-.1 3.5-1.1.3-.4.7-1.1.3-2.2-.4-1.4-1.6-2.5-3.2-2.8L85.8 79c-.8-.2-1.4-.7-1.7-1.5l-6-14c0-.2-.1-.5-.1-.7l-3-25c-.1-.8.2-1.6.8-2.2.6-.5 1.5-.8 2.3-.6l18.2 4.6c1 .3 2 .1 2.7-.3.5-.3.7-.6.4-1.3-.4-1.3-1.6-2.3-3.1-2.7L78 30.9h-.1c-9.1-2.7-16-.1-16.1-.1-.3.1-.6.2-.9.2h-30c-.5 0-1 .2-1.2.4-.2.2-.7.7.4 2.3.3.5.8.7 1.3.7h24.1c1.2 0 2.3.9 2.5 2.2l3.8 27c.1.5 0 .9-.2 1.4l-8.5 18.9z"/><path class="st1" d="M78 121.5c-6.3 0-11.5-5.2-11.5-11.5S71.7 98.5 78 98.5s11.5 5.2 11.5 11.5-5.2 11.5-11.5 11.5zm0-18c-3.6 0-6.5 2.9-6.5 6.5s2.9 6.5 6.5 6.5 6.5-2.9 6.5-6.5-2.9-6.5-6.5-6.5z"/></svg>