<svg xmlns="http://www.w3.org/2000/svg" viewBox="0 0 128 128"><switch><g><path d="M119.7 86.6H10.2c-4.4 0-7.9-3.6-7.9-7.9v-9.1c0-4.4 3.6-7.9 7.9-7.9h9v5h-9c-1.6 0-2.9 1.3-2.9 2.9v9.1c0 1.6 1.3 2.9 2.9 2.9h109.5c1.6 0 2.9-1.3 2.9-2.9v-9.1c0-1.6-1.3-2.9-2.9-2.9H48.6v-5h71.1c4.4 0 7.9 3.6 7.9 7.9v9.1c0 4.4-3.5 7.9-7.9 7.9z"/><path d="M119.7 106.6H10.2c-4.4 0-7.9-3.6-7.9-7.9v-9.1c0-4.4 3.6-7.9 7.9-7.9h109.5c4.4 0 7.9 3.6 7.9 7.9v9.1c0 4.3-3.5 7.9-7.9 7.9zm-109.5-20c-1.6 0-2.9 1.3-2.9 2.9v9.1c0 1.6 1.3 2.9 2.9 2.9h109.5c1.6 0 2.9-1.3 2.9-2.9v-9.1c0-1.6-1.3-2.9-2.9-2.9H10.2z"/><path d="M119.7 126.5H10.2c-4.4 0-7.9-3.6-7.9-7.9v-9.1c0-4.4 3.6-7.9 7.9-7.9h109.5c4.4 0 7.9 3.6 7.9 7.9v9.1c0 4.4-3.5 7.9-7.9 7.9zM10.2 106.6c-1.6 0-2.9 1.3-2.9 2.9v9.1c0 1.6 1.3 2.9 2.9 2.9h109.5c1.6 0 2.9-1.3 2.9-2.9v-9.1c0-1.6-1.3-2.9-2.9-2.9H10.2zM65.6 37l-3.4-3.7c7.6-6.9 7.8-20.9 7.5-26.9C52.1 11.3 49.1 25.3 49 25.9l-4.9-.9C44.3 24.2 48 5.7 71.5.8l2.6-.5.3 2.7c.2.9 3 23.4-8.8 34z"/><path d="M64.4 54.4c-3.4 0-5.6-.2-5.7-.3l.6-5c.3 0 32.1 3.5 39.2-17.3-3.5-2.4-13.9-8-27.7-4.4l-1.3-4.8c19.4-5.1 33 5.9 33.5 6.3l1.2 1-.4 1.5c-5.4 20.5-28.6 23-39.4 23zM67.1 64.2h5V76h-5zM67.1 84.1h5v11.8h-5zM67.1 103.1h5v11.8h-5zM86.3 103.2h5V115h-5zM86.6 83.8h5v11.8h-5zM86.3 64.2h5V76h-5z"/><circle cx="33.8" cy="46.9" r="25.6" fill="#d6b2f5"/><path d="M33.7 74.9c-1.8 0-3.8-.3-5.8-1.1-8.9-3.2-14.9-12-14.6-21.4.2-4.5 1.7-8.3 4.5-10.9 3-2.8 7.4-4.1 12.9-3.8 4 .2 8.2 3.8 9.5 7.1.7 1.7 2.6 7.6-.6 12.2-2.2 3.1-6.1 4.5-11.4 4.2h-.7l-.6-.4c-.5-.3-4.5-3.3-4.5-7.8 0-2.8 1.5-5.3 4.5-7.4l2.9 4c-1.6 1.1-2.4 2.3-2.4 3.3 0 1.3 1.1 2.6 1.9 3.3 2.3 0 5-.4 6.3-2.2 1.4-2 .9-5.2 0-7.4-.7-1.8-3.3-3.9-5-4-4.2-.2-7.3.6-9.3 2.5-2.2 2.1-2.8 5.1-2.9 7.3-.3 7.2 4.4 14 11.3 16.5 5.6 2 10.1-.5 13.4-3 5.5-4.2 8.3-10.3 7.6-17.2-.8-9.4-6.5-14.9-16.8-16.3-6.7-.9-12.2.4-16.4 3.8-7.6 6.1-8.6 17-8.6 17.1l-5-.4c0-.5 1.2-13.2 10.5-20.6 5.3-4.3 12.1-5.9 20.2-4.8 12.6 1.7 20.1 9 21.1 20.8.8 8.7-2.6 16.3-9.6 21.6-3.1 2.5-7.2 5-12.4 5z"/></g></switch></svg>