<svg xmlns="http://www.w3.org/2000/svg" viewBox="0 0 128 128"><switch><g><circle cx="65.4" cy="51.9" r="32" fill="#d6b2f5"/><path d="M2.4 122.2c-.7 0-1.3-.3-1.8-.7-.5-.5-.7-1.1-.7-1.8V97.5C-.1 96.1 1 95 2.4 95h20.2s3.4.2 5.6-2c1.5-1.5 2.2-3.8 2-7-.9-2.9-6.5-23.1 3.9-36.9 10.4-13.9 21.2-21.9 21.7-22.2.8-.6 1.9-.7 2.8-.1.2.1 5.6 3.5 7.2 9.5.4 1.5.6 3.2.4 4.9-.1.7-.2 1.4-.4 2.1v.1c-.7 1.9-1.9 3.6-3.6 4.9-2 1.5-5.1 4.3-7.7 8.4 1.4.1 3.3.6 5.2 2 3.2 2.3 5.3 6.4 6.1 12.1v.1c.2 1.2.3 2.5.4 3.9.1 2.4.1 10.8-.1 13.4-.1 1.2-.2 2.3-.3 3.4v.1c-1.3 9.5-6.1 18-13.9 24.6-3.8 3.2-8.7 5.1-13.8 5.1l-35.7.8zM4.9 100v17.1l33.1-.6c4-.1 7.8-1.5 10.7-4 6.9-5.9 11-13.1 12.2-21.4V91c.1-1 .2-1.9.3-3 .1-2.5.2-10.7 0-12.9-.1-1.2-.2-2.4-.3-3.5v-.2c-1.5-10.3-7-9.8-7.7-9.7-.4.1-.8 0-1.2-.1-1.9 4.7-2.9 10.6-1.8 17.8.2 1.4-.7 2.6-2.1 2.9-1.4.2-2.6-.7-2.9-2.1-3.2-20.3 8.7-31.8 13.9-35.8.8-.6 1.5-1.5 1.8-2.4v-.1c.1-.3.2-.7.2-1 .1-1.1 0-2.1-.3-3.1-.7-2.6-2.5-4.5-3.7-5.6-3.1 2.6-11.3 9.7-19.1 20-9.4 12.5-3.1 32.4-3 32.6.1.2.1.4.1.6.3 4.9-.8 8.6-3.5 11.2-3.6 3.5-8.5 3.4-9.4 3.4H4.9z"/><path d="M125.3 122.2l-35.7-.7h-.9c-1.4-.1-2.4-1.3-2.3-2.7.1-1.4 1.3-2.4 2.7-2.3h.5l33.1.6V100h-17.4c-.9 0-5.8.1-9.4-3.4-2.6-2.6-3.8-6.4-3.5-11.2 0-.2.1-.4.1-.6s6.4-20.1-3-32.6c-7.8-10.3-15.9-17.4-19.2-20.1-1.2 1.1-3 3-3.7 5.6-.3 1-.4 2.1-.3 3.1 0 .3.1.7.2 1v.1c.3.9 1 1.8 1.8 2.4 5.2 4 17.1 15.5 13.9 35.8-.2 1.4-1.5 2.3-2.9 2.1-1.4-.2-2.3-1.5-2.1-2.9 2.8-17.6-7.4-27.6-12-31-1.7-1.3-2.9-3-3.5-4.9v-.1c-.2-.7-.4-1.4-.5-2.1-.1-1.7 0-3.3.4-4.9 1.7-6.1 7-9.4 7.2-9.5.9-.5 2-.5 2.8.1.5.3 11.3 8.4 21.7 22.2C104 63 98.4 83.2 97.5 86c-.2 3.2.5 5.5 2 7 2.2 2.2 5.6 2 5.6 2h20.2c1.4 0 2.5 1.1 2.5 2.5v22.2c0 .7-.3 1.3-.7 1.8-.5.4-1.1.7-1.8.7zM82.5 120c-.3 0-.5 0-.8-.1-2.4-.8-4.6-2.1-6.4-3.8-.9-.8-1.7-1.6-2.4-2.5-.9-1-.8-2.6.2-3.5 1-.9 2.6-.8 3.5.2.7.7 1.4 1.5 2.1 2.2 1.4 1.3 2.9 2.2 4.6 2.8 1.3.4 2 1.9 1.6 3.2-.4.8-1.4 1.5-2.4 1.5z"/><path d="M70.8 109.8c-.8 0-1.5-.4-2-1-3.7-5.1-6-10.8-6.9-17v-.1c-.2-1.2-.3-2.3-.3-3.4-.1-2.4-.2-10.8-.1-13.4.1-1.4.2-2.7.4-3.9v-.1c.8-5.7 2.9-9.8 6.1-12.1 3.5-2.5 6.9-2 7.3-1.9 1.4.2 2.3 1.5 2 2.9-.2 1.4-1.5 2.3-2.9 2-.6-.1-6.1-.6-7.6 9.8v.2c-.2 1-.3 2.2-.3 3.5-.1 2.3-.1 10.5 0 12.9 0 1 .1 2 .3 3v.1c.7 5.4 2.8 10.3 6 14.7.8 1.1.6 2.7-.5 3.5-.5.2-1 .3-1.5.3zM27.7 42.2c-.4 0-.9-.1-1.2-.3l-10.9-6.3c-1.2-.7-1.6-2.2-.9-3.4.7-1.2 2.2-1.6 3.4-.9L29 37.6c1.2.7 1.6 2.2.9 3.4-.5.8-1.4 1.2-2.2 1.2zM43.9 27.8c-.8 0-1.6-.4-2.1-1.1l-6.7-9.6c-.8-1.1-.5-2.7.6-3.5 1.1-.8 2.7-.5 3.5.6l6.7 9.6c.8 1.1.5 2.7-.6 3.5-.4.3-.9.5-1.4.5zM63.9 22.2c-1.4 0-2.5-1.1-2.5-2.5V7.2c0-1.4 1.1-2.5 2.5-2.5s2.5 1.1 2.5 2.5v12.5c0 1.4-1.1 2.5-2.5 2.5zM84.5 27.7c-.5 0-.9-.1-1.4-.4-1.2-.8-1.5-2.3-.7-3.5l6.9-10.5c.8-1.2 2.3-1.5 3.5-.7 1.2.8 1.5 2.3.7 3.5l-6.9 10.5c-.5.7-1.3 1.1-2.1 1.1zM100.6 43.4c-.9 0-1.7-.4-2.2-1.2-.7-1.2-.3-2.7.9-3.4l9.8-5.8c1.2-.7 2.7-.3 3.4.9.7 1.2.3 2.7-.9 3.4l-9.8 5.8c-.4.2-.8.3-1.2.3z"/></g></switch></svg>