<svg version="1.1" id="Layer_1" xmlns="http://www.w3.org/2000/svg" x="0" y="0" viewBox="0 0 128 128" xml:space="preserve"><style>.st1{fill:#070707}</style><switch><g><ellipse cx="81.4" cy="89.8" rx="25.5" ry="25.4" fill="#d6b2f5"/><path class="st1" d="M24.9 118.5c-12.1 0-22-9.9-22-22 0-7.7 3.9-14.8 10.6-18.8 3.5-2.1 7.4-3.2 11.5-3.2 12.1 0 22 9.9 22 22 0 2.9-.5 5.6-1.6 8.3-3.5 8.3-11.5 13.7-20.5 13.7zm0-39c-3.1 0-6.2.9-8.9 2.5-5.1 3.1-8.2 8.6-8.2 14.5 0 9.4 7.6 17 17 17 7 0 13.2-4.2 15.8-10.6.8-2 1.2-4.2 1.2-6.4.1-9.3-7.5-17-16.9-17z"/><path class="st1" d="M74.7 125.5c-7.9 0-15.9-1.9-23.9-5.6-3.8-1.8-7.7-4-11.5-6.7-1.1-.8-1.4-2.4-.6-3.5s2.4-1.4 3.5-.6c3.5 2.5 7.2 4.6 10.8 6.3 15.9 7.4 32.2 6.7 45.8-2 12.8-8.2 21.7-22.4 21.7-34.7 0-1.6-.4-5.4-3.6-7.2-2.4-1.3-4.9-2.5-7.3-3.4-1.5-.6-2.9-1.1-4.2-1.5C69.1 55 48.9 88 48 89.4c-.7 1.2-2.2 1.6-3.4.9-1.2-.7-1.6-2.2-.9-3.4.2-.4 23-37.9 63.1-25.1 1.4.5 2.9 1 4.6 1.6 2.5 1 5.2 2.3 7.8 3.6 3.9 2.1 6.3 6.4 6.3 11.6 0 13.9-9.8 29.9-24 38.9-8.3 5.3-17.4 8-26.8 8z"/><path class="st1" d="M62.6 123.2c-1 0-2-.6-2.3-1.6L47 86.7c-.5-1.3.2-2.7 1.5-3.2s2.7.2 3.2 1.5L65 120c.5 1.3-.2 2.7-1.5 3.2h-.9zM51.9 120.2c-.9 0-1.8-.5-2.2-1.4l-8.1-16.1c-.6-1.2-.1-2.7 1.1-3.4 1.2-.6 2.7-.1 3.4 1.1l8.1 16.2c.6 1.2.1 2.7-1.1 3.4-.5.1-.8.2-1.2.2z"/><path class="st1" d="M56.7 94.5c-.9 0-1.7-.4-2.2-1.2-.7-1.2-.3-2.7.9-3.4 1.3-.8 31.8-18.6 48-15.7 1.4.2 2.3 1.5 2 2.9-.2 1.4-1.5 2.3-2.9 2C88.2 76.5 58.3 94 58 94.1c-.4.3-.9.4-1.3.4z"/><path class="st1" d="M67.5 97.7c-1.1 0-2.1-.7-2.4-1.8L61.2 83c-.4-1.3.4-2.7 1.7-3.1 1.3-.4 2.7.4 3.1 1.7l3.9 12.9c.4 1.3-.4 2.7-1.7 3.1-.2.1-.5.1-.7.1zM79.1 89.9c-1.1 0-2.2-.8-2.4-2l-2.5-11.3c-.3-1.3.5-2.7 1.9-3 1.3-.3 2.7.5 3 1.9l2.5 11.3c.3 1.3-.5 2.7-1.9 3-.2.1-.4.1-.6.1zM92.4 84.9c-1.1 0-2.1-.7-2.4-1.8l-3.8-12.4c-.4-1.3.3-2.7 1.7-3.1 1.3-.4 2.7.3 3.1 1.7l3.8 12.4c.4 1.3-.3 2.7-1.7 3.1-.2.1-.5.1-.7.1zM119.1 96.2c-1 0-1.9-.6-2.3-1.5l-10-22.7s0-.1-.1-.1l-2.9-6.7c-.6-1.3 0-2.7 1.3-3.3 1.3-.6 2.7 0 3.3 1.3l3 6.8s0 .1.1.1l10 22.6c.6 1.3 0 2.7-1.3 3.3-.4.1-.8.2-1.1.2z"/><path class="st1" d="M14.7 82.4c-.9 0-1.7-.5-2.2-1.3C8.2 73.2 6 64.2 6 55.2 6 25.4 30.2 1.1 60 1.1s54.1 24.3 54.1 54.1c0 3.7-.4 7.5-1.1 11.1-.3 1.4-1.6 2.2-3 1.9-1.4-.3-2.2-1.6-1.9-3 .7-3.3 1-6.6 1-10 0-27.1-22-49.1-49.1-49.1s-49 22-49 49.1c0 8.2 2.1 16.3 6 23.5.7 1.2.2 2.7-1 3.4-.5.2-.9.3-1.3.3z"/><path class="st1" d="M109.1 73.4c-1.4 0-2.5-1.1-2.5-2.5s1.1-2.5 2.5-2.5 2.5 1.1 2.5 2.5-1.1 2.5-2.5 2.5zM11 70c-.2 0-.5 0-.7-.1-1.3-.4-2.1-1.8-1.7-3.1.2-.6 4.4-14.6 16.6-28.5 11.3-12.9 31.8-28 65.4-27.1 1.4 0 2.5 1.2 2.4 2.6 0 1.4-1.1 2.4-2.6 2.4C65 15.5 44.4 24 29 41.4 17.5 54.5 13.4 68 13.4 68.2c-.3 1.1-1.3 1.8-2.4 1.8z"/><path class="st1" d="M40.3 85.5c-1.2 0-2.3-.9-2.5-2.2C37.7 82 34 52.5 41.1 37c1.2-2.6 1.3-4.9.2-7.1-2.9-5.7-13.2-9.1-17-9.9-1.4-.3-2.2-1.6-1.9-3 .3-1.4 1.6-2.2 3-1.9.6.1 15.9 3.5 20.4 12.5 1.8 3.5 1.7 7.4-.1 11.4-6.5 14.2-2.9 43.3-2.9 43.6.2 1.4-.8 2.6-2.2 2.8-.1.1-.2.1-.3.1zM76.6 63.9c-1.4 0-2.5-1.1-2.5-2.5C73.6 24.2 46.9 9.1 46.6 9c-1.2-.7-1.7-2.2-1-3.4.7-1.2 2.2-1.7 3.4-1 1.2.7 29.5 16.7 30 56.8.1 1.3-1 2.5-2.4 2.5zM99.5 64.1c-1 0-1.9-.6-2.3-1.6-.5-1.2.1-2.5 1.2-3.1.2-.4 1.7-4.9-12.9-20.6C64.1 16 72.7 4.7 73 4.3c.9-1.1 2.4-1.3 3.5-.4 1.1.8 1.3 2.4.4 3.5-.2.3-5.8 9 12.1 28 10.8 11.5 15.5 19.6 14.3 24.8-.6 2.7-2.5 3.6-2.9 3.7-.3.1-.6.2-.9.2zm-.9-4.9zm0 0zm0 0zM14.8 115.5c-.3 0-.6-.1-.9-.2-1.3-.5-1.9-1.9-1.4-3.2 6-15.8-2.8-27.1-3.2-27.5-.9-1.1-.7-2.6.4-3.5 1.1-.9 2.6-.7 3.5.4.5.6 11.1 13.9 4 32.5-.4.9-1.3 1.5-2.4 1.5z"/><path class="st1" d="M32.5 116.2c-1.1 0-2.1-.7-2.4-1.7C24.6 96.8 36.5 82 37 81.4c.9-1 2.4-1.2 3.5-.4 1.1.8 1.3 2.3.4 3.4-.1.1-10.7 13.5-6 28.8.4 1.3-.4 2.6-1.7 3h-.7z"/></g></switch></svg>