<svg version="1.1" id="Layer_1" xmlns="http://www.w3.org/2000/svg" x="0" y="0" viewBox="0 0 128 128" style="enable-background:new 0 0 128 128" xml:space="preserve"><style>.st1{fill:#231f20}</style><circle cx="46.9" cy="54.2" r="10.1" style="fill:#d6b2f5"/><path class="st1" d="M46 64c-5 0-9-4-9-9s4-9 9-9 9 4 9 9-4 9-9 9zm0-13c-2.2 0-4 1.8-4 4s1.8 4 4 4 4-1.8 4-4-1.8-4-4-4zM25.5 78.8c-4.5 0-7.4-2.2-7.6-2.3l-.3-.3C10.2 67.9 4.4 70.8 4.2 71c-1.2.6-2.7.2-3.4-1-.7-1.2-.2-2.7.9-3.4.4-.2 9.3-5.1 19.4 6 .7.5 4.5 2.5 9.7-.3.9-.5 1.8-1 2.6-1.4 5.9-3.4 11.1-6.3 22.9-1.1 9.6 4.3 11.2 3.6 14.4 2.2.6-.2 1.2-.5 1.8-.8.8-.3 1.7-.7 2.6-1.2 4.6-2.2 10.9-5.3 18.7 0 8 5.4 15.5 2.1 18.3.4 5.5-3.3 12-3.4 12.3-3.4 1.4 0 2.5 1.1 2.5 2.5s-1.1 2.5-2.5 2.5c0 0-5.4.1-9.7 2.6-3.7 2.2-13.3 6.5-23.7-.5-5.4-3.7-9.5-1.7-13.8.4-1 .5-1.9.9-2.9 1.3-.6.2-1.1.5-1.6.7-4.5 2-7.3 2.8-18.5-2.2-9.5-4.2-12.6-2.4-18.3.8-.9.5-1.7 1-2.7 1.5-2.8 1.7-5.4 2.2-7.7 2.2z"/><path class="st1" d="M26.5 92.8c-4.5 0-7.4-2.2-7.6-2.3l-.3-.3C11.2 81.9 5.4 84.8 5.2 85c-1.2.6-2.7.2-3.4-1-.7-1.2-.2-2.7.9-3.4.4-.2 9.3-5.1 19.4 6 .7.5 4.5 2.5 9.7-.3.9-.5 1.8-1 2.6-1.4 5.9-3.4 11.1-6.3 22.9-1.1 9.6 4.3 11.2 3.6 14.4 2.2.6-.2 1.2-.5 1.8-.8.8-.3 1.7-.7 2.6-1.2 4.6-2.2 10.9-5.3 18.7 0 8 5.4 15.5 2.1 18.3.4 5.5-3.3 12-3.4 12.3-3.4 1.4 0 2.5 1.1 2.5 2.5s-1.1 2.5-2.5 2.5c0 0-5.4.1-9.7 2.6-3.7 2.2-13.3 6.5-23.7-.5-5.4-3.7-9.5-1.7-13.8.4-1 .5-1.9.9-2.9 1.3-.6.2-1.1.5-1.6.7-4.5 2-7.3 2.8-18.5-2.2-9.5-4.2-12.6-2.4-18.3.8-.9.5-1.7 1-2.7 1.5-2.8 1.7-5.4 2.2-7.7 2.2z"/><path class="st1" d="M26.5 106.8c-4.5 0-7.4-2.2-7.6-2.3l-.3-.3C11.2 95.9 5.4 98.8 5.2 99c-1.2.6-2.7.2-3.4-1-.7-1.2-.2-2.7.9-3.4.4-.2 9.3-5.1 19.4 6 .7.5 4.5 2.5 9.7-.3.9-.5 1.8-1 2.6-1.4 5.9-3.4 11.1-6.3 22.9-1.1 9.6 4.3 11.2 3.6 14.4 2.2.6-.2 1.2-.5 1.8-.8.8-.3 1.7-.7 2.6-1.2 4.6-2.2 10.9-5.3 18.7 0 8 5.4 15.5 2.1 18.3.4 5.5-3.3 12-3.4 12.3-3.4 1.4 0 2.5 1.1 2.5 2.5s-1.1 2.5-2.5 2.5c0 0-5.4.1-9.7 2.6-3.7 2.2-13.3 6.5-23.7-.5-5.4-3.7-9.5-1.7-13.8.4-1 .5-1.9.9-2.9 1.3-.6.2-1.1.5-1.6.7-4.5 2-7.3 2.8-18.5-2.2-9.5-4.2-12.6-2.4-18.3.8-.9.5-1.7 1-2.7 1.5-2.8 1.7-5.4 2.2-7.7 2.2zM42.7 72.1c-.7 0-1.4-.3-1.9-.8L24.3 52.8c-1-1.1-2.4-1.6-3.8-1.3-5.3.9-9.4 2.3-11.5 4-1.3 1-1 1.4-.9 1.6.3.5 1 .7 1.7.5l9.7-2.5c.6-.2 1.3-.1 1.8.2 4.9 2.6 5 8.5 5 8.7 0 .8-.4 1.5-1 2L18 71.5c-1.1.8-2.7.6-3.5-.5-.8-1.1-.6-2.7.5-3.5l6.2-4.6c-.2-.8-.6-1.9-1.5-2.7l-8.6 2.2c-2.7.7-5.5-.3-7-2.5-.7-1-2.7-4.7 1.9-8.4 3.5-2.8 9.4-4.3 13.8-5 3.1-.5 6.2.6 8.4 2.9l16.5 18.4c.9 1 .8 2.6-.2 3.5-.6.6-1.2.8-1.8.8zM75.5 72.6c-1.3 0-2.4-1-2.5-2.4 0-.8-1-20 0-30 .4-4.3 1.9-7.4 4.4-9.3 2.9-2.3 6.1-1.9 6.5-1.9 1.4.2 2.3 1.5 2.1 2.8-.2 1.4-1.4 2.3-2.8 2.1-.1 0-1.5-.1-2.8.9-1.3 1.1-2.1 3.1-2.4 5.9-1 9.7 0 29.1 0 29.3.1 1.4-1 2.6-2.4 2.6h-.1zM94.5 74.6c-1.3 0-2.4-1-2.5-2.4 0-.9-1-22.9 0-32.9.4-4.2 1.9-7.3 4.4-9 3.2-2.2 6.6-1.3 6.9-1.2 1.3.4 2.1 1.7 1.8 3.1-.4 1.3-1.7 2.1-3 1.8-.1 0-1.6-.3-2.9.5-1.2.9-2 2.7-2.2 5.3-1 9.7 0 32 0 32.2.1 1.4-1 2.5-2.4 2.6h-.1z"/><path class="st1" d="M93.4 45.9H75.3c-1.4 0-2.5-1.1-2.5-2.5s1.1-2.5 2.5-2.5h18.1c1.4 0 2.5 1.1 2.5 2.5s-1.1 2.5-2.5 2.5zM93.4 54.9H75.3c-1.4 0-2.5-1.1-2.5-2.5s1.1-2.5 2.5-2.5h18.1c1.4 0 2.5 1.1 2.5 2.5s-1.1 2.5-2.5 2.5zM93.4 63.9H75.3c-1.4 0-2.5-1.1-2.5-2.5s1.1-2.5 2.5-2.5h18.1c1.4 0 2.5 1.1 2.5 2.5s-1.1 2.5-2.5 2.5z"/><path class="st1" d="M125 61.5H94.9c-1.4 0-2.5-1.1-2.5-2.5s1.1-2.5 2.5-2.5H125c1.4 0 2.5 1.1 2.5 2.5s-1.1 2.5-2.5 2.5z"/></svg>