<svg version="1.1" id="Layer_1" xmlns="http://www.w3.org/2000/svg" x="0" y="0" viewBox="0 0 128 128" style="enable-background:new 0 0 128 128" xml:space="preserve"><style>.st0{fill:#d6b2f5}.st1{fill:#231f20}</style><circle class="st0" cx="63.7" cy="20.1" r="12.1"/><ellipse class="st0" cx="102.9" cy="65.2" rx="11.9" ry="10.1"/><path class="st1" d="M64.5 31.5c-6.1 0-11-4.9-11-11s4.9-11 11-11 11 4.9 11 11-4.9 11-11 11zm0-17c-3.3 0-6 2.7-6 6s2.7 6 6 6 6-2.7 6-6-2.7-6-6-6z"/><path class="st1" d="M117.5 40h-107C9.1 40 8 38.9 8 37.5V30c0-6.6 5.4-12 12-12h24c1.4 0 2.5 1.1 2.5 2.5S45.4 23 44 23H20c-3.9 0-7 3.1-7 7v5h102v-5c0-3.9-3.1-7-7-7H83c-1.4 0-2.5-1.1-2.5-2.5S81.6 18 83 18h25c6.6 0 12 5.4 12 12v7.5c0 1.4-1.1 2.5-2.5 2.5z"/><path class="st1" d="M48.4 31.5H17c-1.4 0-2.5-1.1-2.5-2.5s1.1-2.5 2.5-2.5h31.4c1.4 0 2.5 1.1 2.5 2.5s-1.1 2.5-2.5 2.5zM111.4 31.5H80c-1.4 0-2.5-1.1-2.5-2.5s1.1-2.5 2.5-2.5h31.4c1.4 0 2.5 1.1 2.5 2.5s-1.1 2.5-2.5 2.5zM31.1 55.5c-1.2 0-2.2-.8-2.5-2-.3-1.4.6-2.7 2-2.9.4-.1.9-.3 1-.5 0-.1-.1-.7-.8-1.7-2-2.7-2.6-5-1.8-7 .7-1.7 2.3-2.5 3.4-2.7l.9 4.9h.1c.1 0 .3-.3.3-.4 0 0 0 .7 1.2 2.3 1.7 2.4 2.2 4.5 1.5 6.5-1.1 2.8-4.3 3.5-4.7 3.6-.3-.1-.5-.1-.6-.1zM44.1 55.5c-1.2 0-2.2-.8-2.5-2-.3-1.4.6-2.7 2-2.9.4-.1.9-.3 1-.5 0-.1-.1-.7-.8-1.7-2-2.7-2.6-5-1.8-7 .7-1.7 2.3-2.5 3.4-2.7l.9 4.9h.1c.1 0 .3-.3.3-.4 0 0 0 .7 1.2 2.3 1.7 2.4 2.2 4.5 1.5 6.5-1.1 2.8-4.3 3.5-4.7 3.6-.3-.1-.5-.1-.6-.1zM57.1 55.5c-1.2 0-2.2-.8-2.5-2-.3-1.4.6-2.7 2-2.9.4-.1.9-.3 1-.5 0-.1-.1-.7-.8-1.7-2-2.7-2.6-5-1.8-7 .7-1.7 2.3-2.5 3.4-2.7l.9 4.9h.1c.1 0 .3-.3.3-.4 0 0 0 .7 1.2 2.3 1.7 2.4 2.2 4.5 1.5 6.5-1.1 2.8-4.3 3.5-4.7 3.6-.3-.1-.5-.1-.6-.1zM70.1 55.5c-1.2 0-2.2-.8-2.5-2-.3-1.4.6-2.7 2-2.9.4-.1.9-.3 1-.5 0-.1-.1-.7-.8-1.7-2-2.7-2.6-5-1.8-7 .7-1.7 2.3-2.5 3.4-2.7l.9 4.9h.1c.1 0 .3-.3.3-.4 0 0 0 .7 1.2 2.3 1.7 2.4 2.2 4.5 1.5 6.5-1.1 2.8-4.3 3.5-4.7 3.6-.3-.1-.5-.1-.6-.1zM83.1 55.5c-1.2 0-2.2-.8-2.5-2-.3-1.4.6-2.7 2-2.9.4-.1.9-.3 1-.5 0-.1-.1-.7-.8-1.7-2-2.7-2.6-5-1.8-7 .7-1.7 2.3-2.5 3.4-2.7l.9 4.9h.1c.1 0 .3-.3.3-.4 0 0 0 .7 1.2 2.3 1.7 2.4 2.2 4.5 1.5 6.5-1.1 2.8-4.3 3.5-4.7 3.6-.3-.1-.5-.1-.6-.1zM96.1 55.5c-1.2 0-2.2-.8-2.5-2-.3-1.4.6-2.7 2-2.9.4-.1.9-.3 1-.5 0-.1-.1-.7-.8-1.7-2-2.7-2.6-5-1.8-7 .7-1.7 2.3-2.5 3.4-2.7l.9 4.9h.1c.1 0 .3-.3.3-.4 0 0 0 .7 1.2 2.3 1.7 2.4 2.2 4.5 1.5 6.5-1.1 2.8-4.3 3.5-4.7 3.6-.3-.1-.5-.1-.6-.1zM102 75c-6.1 0-11-4-11-9s4.9-9 11-9c5.8 0 10 3.8 10 9s-4.2 9-10 9zm0-13c-3.3 0-6 1.8-6 4s2.7 4 6 4c3 0 5-1.6 5-4s-2-4-5-4zM23.6 76c-4.1 0-7.6-2.9-8.2-6.8-.3-1.7-.1-5 3.8-7.3 5.7-3.3 44.8-5.2 61.4-5.8 1 0 2 .2 2.9.7 2.3 1.3 6.2 4 6.8 8.2.3 2.7-.7 5.2-3.2 7.6-1.7 1.6-3.9 2.5-6.2 2.5l-57.1.9c-.1-.1-.2 0-.2 0zm57.2-15c-31.2 1.2-56 3.4-59.1 5.1-1.6.9-1.5 1.8-1.4 2.2.2 1.5 1.6 2.6 3.2 2.6h.1l57.1-.9c1.1 0 2.1-.4 2.8-1.1 1.3-1.2 1.9-2.4 1.7-3.3-.2-1.7-2.3-3.4-4.2-4.5 0-.1-.1-.1-.2-.1z"/><path class="st1" d="M56 75c-.4 0-.9-.1-1.3-.4-2.9-1.8-4.3-3.8-4.1-6 .3-3.2 3.8-4.7 4.5-5 .2-.1.4-.1.7-.2l22.5-2c1.4-.1 2.6.9 2.7 2.3.1 1.4-.9 2.6-2.3 2.7l-22.1 2c-.4.2-.7.4-.9.6.2.2.6.7 1.6 1.3 1.2.7 1.5 2.3.8 3.4-.4.9-1.3 1.3-2.1 1.3zM105.4 98H22.6C14.5 98 8 91.5 8 83.4v-4.9c0-1.4 1.1-2.5 2.5-2.5h107c1.4 0 2.5 1.1 2.5 2.5v4.9c0 8.1-6.5 14.6-14.6 14.6zM13 81v2.4c0 5.3 4.3 9.6 9.6 9.6h82.8c5.3 0 9.6-4.3 9.6-9.6V81H13z"/><path class="st1" d="M44.3 105.5H29.2c-2.9 0-5.2-2.3-5.2-5.2v-2.8c0-1.4 1.1-2.5 2.5-2.5s2.5 1.1 2.5 2.5v2.8c0 .1.1.2.2.2h15.1c.1 0 .2-.1.2-.2v-2.8c0-1.4 1.1-2.5 2.5-2.5s2.5 1.1 2.5 2.5v2.8c.1 2.9-2.3 5.2-5.2 5.2zM98.3 105.5H83.2c-2.9 0-5.2-2.3-5.2-5.2v-2.8c0-1.4 1.1-2.5 2.5-2.5s2.5 1.1 2.5 2.5v2.8c0 .1.1.2.2.2h15.1c.1 0 .2-.1.2-.2v-2.8c0-1.4 1.1-2.5 2.5-2.5s2.5 1.1 2.5 2.5v2.8c.1 2.9-2.3 5.2-5.2 5.2z"/><path class="st1" d="M40.5 113.3c-1.4 0-2.5-1.1-2.5-2.5v-6.6c0-1.4 1.1-2.5 2.5-2.5s2.5 1.1 2.5 2.5v6.6c0 1.4-1.1 2.5-2.5 2.5zM87.5 113.3c-1.4 0-2.5-1.1-2.5-2.5v-6.6c0-1.4 1.1-2.5 2.5-2.5s2.5 1.1 2.5 2.5v6.6c0 1.4-1.1 2.5-2.5 2.5zM95.5 113.3c-1.4 0-2.5-1.1-2.5-2.5v-6.6c0-1.4 1.1-2.5 2.5-2.5s2.5 1.1 2.5 2.5v6.6c0 1.4-1.1 2.5-2.5 2.5zM32.5 113.3c-1.4 0-2.5-1.1-2.5-2.5v-6.6c0-1.4 1.1-2.5 2.5-2.5s2.5 1.1 2.5 2.5v6.6c0 1.4-1.1 2.5-2.5 2.5z"/><path class="st1" d="M47.5 120h-21c-1.4 0-2.5-1.1-2.5-2.5v-2c0-4.1 3.4-7.5 7.5-7.5h11c4.1 0 7.5 3.4 7.5 7.5v2c0 1.4-1.1 2.5-2.5 2.5zm-18.4-5H45c-.2-1.1-1.2-2-2.4-2h-11c-1.3 0-2.3.9-2.5 2zM101.5 120h-21c-1.4 0-2.5-1.1-2.5-2.5v-2c0-4.1 3.4-7.5 7.5-7.5h11c4.1 0 7.5 3.4 7.5 7.5v2c0 1.4-1.1 2.5-2.5 2.5zM83 115h16c-.2-1.1-1.2-2-2.5-2h-11c-1.2 0-2.2.9-2.5 2zM57.4 16.1c-.5 0-.9-.1-1.3-.4L53.4 14c-1.2-.7-1.5-2.3-.8-3.5.7-1.2 2.3-1.5 3.5-.8l2.7 1.7c1.2.7 1.5 2.3.8 3.5-.5.7-1.4 1.2-2.2 1.2zM64.5 13.4c-1.1 0-2.1-.7-2.4-1.8l-.9-3.3c-.4-1.3.4-2.7 1.8-3.1 1.3-.4 2.7.4 3.1 1.8l.9 3.3c.4 1.3-.4 2.7-1.8 3.1-.2-.1-.4 0-.7 0zM71.6 16.1c-.7 0-1.4-.3-1.9-.9-.9-1.1-.8-2.6.3-3.5l2-1.7c1-.9 2.6-.8 3.5.3.9 1.1.8 2.6-.3 3.5l-2 1.7c-.5.4-1.1.6-1.6.6zM53.7 23h-2.4c-1.4 0-2.5-1.1-2.5-2.5s1.1-2.5 2.5-2.5h2.4c1.4 0 2.5 1.1 2.5 2.5S55.1 23 53.7 23zM55.1 31.5c-.7 0-1.3-.3-1.8-.8-.9-1-.9-2.6.1-3.5l2-1.9c1-.9 2.6-.9 3.5.1s.9 2.6-.1 3.5l-2 1.9c-.5.5-1.1.7-1.7.7zM64.5 35.4c-1.4 0-2.5-1.1-2.5-2.5V29c0-1.4 1.1-2.5 2.5-2.5S67 27.6 67 29v3.9c0 1.3-1.1 2.5-2.5 2.5.1 0 0 0 0 0zM73.1 31.5c-.4 0-.9-.1-1.2-.3l-3.2-1.9c-1.2-.7-1.6-2.2-.9-3.4.7-1.2 2.2-1.6 3.4-.9l3.2 1.9c1.2.7 1.6 2.2.9 3.4-.5.7-1.4 1.2-2.2 1.2zM76.7 23h-2.1c-1.4 0-2.5-1.1-2.5-2.5s1.1-2.5 2.5-2.5h2.1c1.4 0 2.5 1.1 2.5 2.5S78.1 23 76.7 23z"/></svg>