<svg version="1.1" id="Layer_1" xmlns="http://www.w3.org/2000/svg" x="0" y="0" viewBox="0 0 128 128" style="enable-background:new 0 0 128 128" xml:space="preserve"><style>.st0{fill:#d6b2f5}.st1{fill:#231f20}</style><circle class="st0" cx="106.6" cy="96.2" r="10.4"/><circle class="st0" cx="19.6" cy="76.2" r="10.4"/><circle class="st0" cx="77.6" cy="49.2" r="10.4"/><path class="st1" d="M64.5 124h-30c-3 0-5.5-2.5-5.5-5.5v-4.1c0-3 2.5-5.5 5.5-5.5h30.1c3 0 5.5 2.5 5.5 5.5v4.1c-.1 3-2.6 5.5-5.6 5.5zm-30-10c-.3 0-.5.2-.5.5v4.1c0 .3.2.5.5.5h30.1c.3 0 .5-.2.5-.5v-4.1c0-.3-.2-.5-.5-.5H34.5zM65.7 64.3h-.5c-1.1-.1-2.2-.7-2.9-1.6l-3.9-5c-1.5-1.9-1.1-4.6.8-6l25.6-19.9c.9-.7 2-1 3.2-.9 1.1.1 2.2.7 2.9 1.6l3.9 5c.7.9 1 2 .9 3.2-.1 1.1-.7 2.2-1.6 2.9L68.3 63.4c-.7.6-1.7.9-2.6.9zm-3-9.3 3.1 3.9 24.5-19-3.1-3.9-24.5 19zm29.7-13.5zm-1.6-2z"/><path class="st1" d="M35.5 113c-1.4 0-2.5-1.1-2.5-2.5V61.2c-2.7-2.8-11-11.7-11-18.7 0-5 .5-11 .8-14.1.2-2.6 1.8-4.8 4.1-5.8 1.5-.6 2.9-.9 4.3-.7l.8-11.6c0-.3.1-.7.3-1 .2-.4 2-3.8 5.5-4.6 1-.2 2.4-.3 4 .4C43.1 3.7 45.1 2 47.7 2c2.3 0 4.4 1.3 6.2 4 1.9.1 4.9.5 6.8 2.7.8.9 1.5 2.3 1.6 4.3 1.8.2 4 .7 5.6 2.1C69.3 16.3 70 18 70 20v20c0 1.4-1.1 2.5-2.5 2.5S65 41.3 65 40V20c0-.7-.2-1-.4-1.2-1.1-.9-3.7-1-4.8-.8-.8.1-1.6-.2-2.2-.8-.5-.6-.8-1.5-.6-2.3.2-1 .4-2.2-.2-2.9-.8-1-3.1-1.1-4.1-1-1 .1-2-.4-2.5-1.3-1.1-2-2.1-2.7-2.6-2.7-1 0-2.5 1.7-3 2.7-.4.6-1 1.1-1.7 1.2-.7.1-1.5 0-2-.5-.8-.7-1.5-.9-2.1-.8-.8.2-1.5 1-1.9 1.6l-1 14.4c-.1.9-.6 1.7-1.5 2.1s-1.8.3-2.5-.3c-.6-.5-1.6-1-3.1-.3-.6.3-1.1.9-1.1 1.6-.3 3-.8 8.8-.8 13.6 0 4.3 6.3 12 10.2 15.8.5.5.8 1.1.8 1.8v50.4c.1 1.6-1 2.7-2.4 2.7z"/><path class="st1" d="M42.5 54c-1.1 0-2.1-.8-2.4-1.9-1.3-5.3-4.6-5.2-5.2-5.1-.7.1-1.4-.1-2-.6-.5-.4-.9-1-.9-1.7l-1-20c-.1-1.4 1-2.6 2.4-2.6 1.4-.1 2.6 1 2.6 2.4l.9 17.8c2.9.6 6.6 2.8 8 8.8.3 1.3-.5 2.7-1.8 3-.2-.1-.4-.1-.6-.1zM42.5 32.6c-1.4 0-2.5-1.1-2.5-2.5V9.9c0-1.4 1.1-2.5 2.5-2.5S45 8.5 45 9.9v20.2c0 1.4-1.1 2.5-2.5 2.5zM51.5 34c-1.4 0-2.5-1.1-2.5-2.5v-24C49 6.1 50.1 5 51.5 5S54 6.1 54 7.5v24c0 1.4-1.1 2.5-2.5 2.5zM59.5 34c-1.4 0-2.5-1.1-2.5-2.5v-16c0-1.4 1.1-2.5 2.5-2.5s2.5 1.1 2.5 2.5v16c0 1.4-1.1 2.5-2.5 2.5zM63.2 113c-1.4 0-2.5-1.1-2.5-2.5V81c0-1.4 1.1-2.5 2.5-2.5s2.5 1.1 2.5 2.5v29.5c0 1.4-1.1 2.5-2.5 2.5zM102.6 124H72.7c-1.4 0-2.5-1.1-2.5-2.5s1.1-2.5 2.5-2.5h29.8c1.4 0 2.5 1.1 2.5 2.5s-1.1 2.5-2.4 2.5z"/><path class="st1" d="M85.5 123c-1 0-1.9-.6-2.3-1.6-.2-.5-4.4-11.3 2.2-21.3 2.9-4.3 3.9-8.4 2.8-11.3-.7-1.9-2.3-3.2-4.7-3.8-9.4-2.6-9.5-10.2-9.5-10.5 0-1.4 1.1-2.5 2.5-2.5s2.5 1.1 2.5 2.5c0 .5.3 4.2 5.9 5.7 3.9 1.1 6.8 3.5 8.1 6.9 1.7 4.5.5 10.1-3.3 15.8-5.2 7.7-1.8 16.6-1.8 16.7.5 1.3-.1 2.7-1.4 3.2-.4.1-.7.2-1 .2zM79 74.5z"/><path class="st1" d="M74.8 76.3h-.4c-3.7-.4-6.8-5.2-7.7-6.7-.7-1.2-.3-2.7.9-3.4 1.2-.7 2.7-.3 3.4.9 1.1 1.9 2.8 3.8 3.6 4.2 1.7-2.1-.3-6.1-.4-6.1-.6-1.2-.2-2.7 1-3.4 1.2-.7 2.7-.2 3.4 1 .2.3 3.8 7.1-.3 11.8-.9 1.1-2.1 1.7-3.5 1.7zm-.3-4.9z"/><path class="st1" d="M62 76.3c-.7 0-1.3-.3-1.8-.8L51 65.7c-.9-1-.9-2.6.1-3.5 1-.9 2.6-.9 3.5.1l7.6 8.1L89 49.1l-2.4-3c-.9-1.1-.7-2.7.4-3.5 1.1-.9 2.7-.7 3.5.4l4 5c.4.5.6 1.2.5 1.8s-.4 1.3-.9 1.7L63.5 75.8c-.4.4-1 .5-1.5.5z"/><path class="st1" d="M57.5 63c-.8 0-1.5-.3-2-1-.8-1.1-.6-2.7.5-3.5l4-3c1.1-.8 2.7-.6 3.5.5.8 1.1.6 2.7-.5 3.5l-4 3c-.4.3-1 .5-1.5.5z"/><path class="st1" d="M61.5 66.5c-.6 0-1.2-.2-1.7-.7-1-1-1-2.5-.1-3.5l2.8-2.9c1-1 2.5-1 3.5-.1 1 1 1 2.5.1 3.5l-2.8 2.9c-.5.5-1.2.8-1.8.8zM91.1 37.2c-.8 0-1.6-.4-2.1-1.1-.8-1.2-.4-2.7.7-3.5l3.4-2.2c1.2-.8 2.7-.4 3.5.7.8 1.2.4 2.7-.7 3.5l-3.4 2.2c-.4.3-.9.4-1.4.4z"/><path class="st1" d="M98.5 38c-.7 0-1.4-.3-1.9-.8L89.3 29c-.9-1-.8-2.6.2-3.5 1-.9 2.6-.8 3.5.2l7.4 8.2c.9 1 .8 2.6-.2 3.5-.5.4-1.1.6-1.7.6zM94.8 77c-.7 0-1.3-.3-1.8-.8L78.6 60.9c-.9-1-.9-2.6.1-3.5 1-.9 2.6-.9 3.5.1l13 13.8c1.7-1.3 4-3.3 4.5-5.2.2-.7.1-1.3-.3-2L89.3 53.2c-.9-1-.9-2.6.1-3.5 1-.9 2.6-.9 3.5.1l10.3 11 .3.3c1.2 1.9 1.6 3.9 1 6-1.3 5.3-7.8 9-8.5 9.5-.3.3-.8.4-1.2.4z"/><path class="st1" d="M87.2 66.5h-.7c-1.4-.1-2.4-1.3-2.3-2.7.1-1.4 1.3-2.4 2.7-2.3.9.1 1.3-.2 1.5-.5 1.3-1.3 1.6-4.6 1.5-6.1-.1-1.4 1-2.5 2.4-2.6 1.4-.1 2.5 1 2.6 2.4 0 .7.2 6.7-3 9.9-1.2 1.3-2.9 1.9-4.7 1.9z"/><path class="st1" d="M92.8 73.2c-1.2 0-2.2-.8-2.5-2-.3-1.4.6-2.7 2-2.9 1-.2 2-4.3 1.7-8.7-.1-1.4 1-2.6 2.4-2.6s2.6 1 2.6 2.4c.1 2.1.4 12.7-5.8 13.8h-.4zM49.7 75.7c-1.3 0-2.6-.4-3.7-1.2-1.4-1.1-2.2-2.5-2.1-4.1.1-3.9 4.8-7.4 6.2-8.4 1.1-.8 2.7-.5 3.5.6.8 1.1.5 2.7-.6 3.5-2 1.4-3.9 3.5-4 4.3l.1.1c.3.2.5.3.9.2 1.7-.2 4.1-2.8 4.9-3.9.8-1.1 2.4-1.3 3.5-.5s1.3 2.4.5 3.5c-.4.5-4 5.2-8.2 5.8-.4.1-.7.1-1 .1z"/><path class="st1" d="M44.5 78c-.6 0-1.1-.2-1.6-.6-1.1-.9-1.2-2.5-.3-3.5l1.9-2.3c.9-1.1 2.5-1.2 3.5-.3 1.1.9 1.2 2.5.3 3.5l-1.9 2.3c-.5.6-1.2.9-1.9.9zM54.4 83.5h-9c-1.4 0-2.5-1.1-2.5-2.5s1.1-2.5 2.5-2.5h9c1.4 0 2.5 1.1 2.5 2.5s-1.1 2.5-2.5 2.5zM49.5 92.7c-1.4 0-2.5-1.1-2.5-2.5v-3.4c0-1.4 1.1-2.5 2.5-2.5s2.5 1.1 2.5 2.5v3.4c0 1.4-1.1 2.5-2.5 2.5zM52.8 98.2h-6.4c-1.4 0-2.5-1.1-2.5-2.5s1.1-2.5 2.5-2.5h6.4c1.4 0 2.5 1.1 2.5 2.5s-1.1 2.5-2.5 2.5zM46 109.4c-1.4 0-2.5-1.1-2.5-2.5v-4.4c0-1.4 1.1-2.5 2.5-2.5h6.8c1.4 0 2.5 1.1 2.5 2.5s-1.1 2.5-2.5 2.5h-4.3v1.9c0 1.4-1.1 2.5-2.5 2.5zM23.3 84.8c-.9 0-1.9-.3-3-.9-1.6.7-4.1 1.4-6.1.1-1.6-1-2.4-2.9-2.3-5.6-1.1-1.2-2.6-3.3-1.9-5.6.5-1.9 2.2-3.1 5-3.6 1.1-1.6 3.1-3.7 5.5-3.3 1.6.3 2.7 1.4 3.4 3.4 1.9.5 4.5 1.5 5.1 3.9.5 1.6-.1 3.3-1.8 4.9.3 2 .2 4.8-1.8 6.2-.6.3-1.3.5-2.1.5zM15 74.4c.2.4.7.9 1.1 1.2.6.5 1 1.4.9 2.2-.1 1.1-.1 1.7 0 1.9.5-.1 1.5-.4 2.1-.9.9-.6 2-.5 2.8.1.1.1.2.2.3.2 0-.5-.1-1.1-.2-1.6-.2-1 .1-2 .9-2.6.3-.2.5-.4.7-.6-.6-.2-1.4-.4-2.1-.5-1.1-.1-2-.9-2.2-2v-.2c-.2.3-.5.7-.7 1-.4.7-1.1 1.1-1.9 1.2-.8.3-1.3.4-1.7.6zm1.5-2.9zM110.3 104.8c-.9 0-1.9-.3-3-.9-1.6.7-4.1 1.4-6.1.1-1.6-1-2.4-2.9-2.3-5.6-1.1-1.2-2.6-3.3-1.9-5.6.5-1.9 2.2-3.1 5-3.6 1.1-1.6 3-3.7 5.5-3.3 1.6.3 2.7 1.4 3.4 3.4 1.9.5 4.5 1.5 5.1 3.9.5 1.6-.1 3.3-1.8 4.9.3 2 .2 4.8-1.8 6.2-.6.3-1.3.5-2.1.5zM102 94.4c.2.4.7.9 1.1 1.2.6.5 1 1.4.9 2.2-.1 1.1-.1 1.7 0 1.9.5-.1 1.5-.4 2.1-.9.9-.6 2-.5 2.8.1.1.1.2.2.3.2 0-.5-.1-1.1-.2-1.6-.2-1 .1-2 .9-2.6.3-.2.5-.4.7-.6-.6-.2-1.4-.4-2.1-.5-1.1-.1-2-.9-2.2-2v-.2c-.2.3-.5.7-.7 1-.4.7-1.1 1.1-1.9 1.2-.8.3-1.3.4-1.7.6zm1.5-2.9z"/></svg>