<svg version="1.1" id="Layer_1" xmlns="http://www.w3.org/2000/svg" x="0" y="0" viewBox="0 0 128 128" xml:space="preserve"><style>.st0{fill:#020202}</style><switch><g><path class="st0" d="M49.9 92H10.7c-1.4 0-2.5-1.1-2.5-2.5V18.7c0-1.4 1.1-2.5 2.5-2.5h90.6c1.4 0 2.5 1.1 2.5 2.5v36.6c0 1.4-1.1 2.5-2.5 2.5s-2.5-1.1-2.5-2.5V21.2H13.2V87h36.7c1.4 0 2.5 1.1 2.5 2.5S51.3 92 49.9 92z"/><ellipse cx="99.3" cy="69.5" rx="18.4" ry="18.3" fill="#d6b2f5"/><path class="st0" d="M84.4 35.9H45.5c-1.4 0-2.5-1.1-2.5-2.5s1.1-2.5 2.5-2.5h38.9c1.4 0 2.5 1.1 2.5 2.5s-1.1 2.5-2.5 2.5zM84.4 47.8H45.5c-1.4 0-2.5-1.1-2.5-2.5s1.1-2.5 2.5-2.5h38.9c1.4 0 2.5 1.1 2.5 2.5s-1.1 2.5-2.5 2.5zM76.8 61.5H46.1c-1.4 0-2.5-1.1-2.5-2.5s1.1-2.5 2.5-2.5h30.7c1.4 0 2.5 1.1 2.5 2.5s-1.2 2.5-2.5 2.5zM98.3 88.9c-10 0-18.2-8.2-18.2-18.2s8.2-18.2 18.2-18.2 18.2 8.2 18.2 18.2c-.1 10.1-8.2 18.2-18.2 18.2zm0-31.3c-7.3 0-13.2 5.9-13.2 13.2C85.1 78.1 91 84 98.3 84c7.3 0 13.2-5.9 13.2-13.2-.1-7.3-6-13.2-13.2-13.2z"/><path class="st0" d="M69 111.2c-.8 0-1.5-.4-2-1-.5-.7-.6-1.5-.4-2.3l.3-1.1c-4 1.2-8 .1-10.2-1-.4-.2-.8-.6-1-1L43.3 83c-1.8-3.1-1.4-6.9.8-9.5 1.9-2.2 4.7-2.8 7.5-1.8 1.9.7 3.6 2 4.8 3.8L67 90.9l17.4-9.7c1.2-.7 2.7-.2 3.4 1 .7 1.2.2 2.7-1 3.4L67.5 96.4c-1.1.6-2.6.3-3.3-.8L52.4 78.4c-.5-.7-1.2-1.5-2.4-2-1.2-.4-1.7 0-2.1.4-.8.9-.9 2.4-.2 3.7l12 21.1c1.7.7 6.2 2 9.9-2.5.8-.9 2.1-1.2 3.1-.6 1.1.6 1.5 1.8 1.2 3l-1.5 4.6 50.1-.3c.1-3.5-1.3-11.4-13.4-19.9-1.1-.8-1.4-2.3-.6-3.5.8-1.1 2.3-1.4 3.5-.6 19 13.2 15.3 26.6 15.1 27.2-.3 1.1-1.3 1.8-2.4 1.8l-55.7.4z"/><path class="st0" d="M44.7 75.8c-.8 0-1.6-.4-2.1-1.1l-16-23.9c-.8-1.1-.5-2.7.7-3.5 1.1-.8 2.7-.5 3.5.7l16.1 23.8c.8 1.1.5 2.7-.7 3.5-.5.3-1 .5-1.5.5zM53.9 105.1H.6c-1.4 0-2.5-1.1-2.5-2.5s1.1-2.5 2.5-2.5h53.3c1.4 0 2.5 1.1 2.5 2.5s-1.1 2.5-2.5 2.5z"/></g></switch></svg>