<svg version="1.1" id="Layer_1" xmlns="http://www.w3.org/2000/svg" x="0" y="0" viewBox="0 0 128 128" style="enable-background:new 0 0 128 128" xml:space="preserve"><style>.st1{fill:#231f20}</style><circle cx="39.6" cy="25.7" r="16.7" style="fill:#d6b2f5"/><path class="st1" d="M42 43c-8.8 0-16-7.2-16-16s7.2-16 16-16 16 7.2 16 16-7.2 16-16 16zm0-27c-6.1 0-11 4.9-11 11s4.9 11 11 11 11-4.9 11-11-4.9-11-11-11z"/><path class="st1" d="M40.8 42.5c-1.4 0-2.5-1.1-2.5-2.5 0-9.1-7.3-9.5-8.2-9.5-1.4 0-2.5-1.1-2.5-2.5s1.1-2.5 2.5-2.5c4.6 0 13.2 3 13.2 14.5 0 1.4-1.1 2.5-2.5 2.5zM54.1 27.5c-10.9 0-13.8-8.2-13.8-12.5 0-1.4 1.1-2.5 2.5-2.5s2.5 1.1 2.5 2.5c0 1.3.5 7.5 8.8 7.5 1.4 0 2.5 1.1 2.5 2.5s-1.1 2.5-2.5 2.5zM45.4 15zM75.5 73.7c-7.5 0-14.1-2.7-18.7-7.8-10.3-11.4-7.2-31.1 7-44C78 9 97.9 7.7 108.3 19.1s7.2 31.1-7 44c-6.8 6.2-15.1 9.9-23.4 10.5-.9.1-1.7.1-2.4.1zm14-57.4c-7.4 0-15.6 3.2-22.4 9.3C55 36.7 52 53.3 60.4 62.6c4 4.4 10.1 6.6 17 6.1 7.2-.5 14.4-3.8 20.4-9.3 12.2-11.1 15.2-27.7 6.7-37-3.7-4.1-9.1-6.1-15-6.1zm10.1 44.9z"/><path class="st1" d="M73.5 82c-9.3 0-17.8-3.3-23.6-9.8-7.5-8.3-9.7-20.7-5.7-33.3.4-1.3 1.8-2 3.1-1.6 1.3.4 2 1.8 1.6 3.1-3.5 11-1.8 21.3 4.6 28.4 8.1 9 22.4 10.7 36.3 4.5 1.3-.6 2.7 0 3.3 1.3.6 1.3 0 2.7-1.3 3.3-6.1 2.8-12.4 4.1-18.3 4.1zM97.1 74.8c-.8 0-1.6-.4-2.1-1.2-.7-1.2-.4-2.7.8-3.4 2.5-1.5 4.8-3.4 7.1-5.4 7.8-7.1 13-16.2 14.6-25.5 1.5-9.1-.6-17.3-5.9-23.2-5.3-5.9-13.3-8.7-22.5-8.1-9.4.7-18.9 5-26.7 12.1-1.9 1.7-3.6 3.5-5.1 5.4-.9 1.1-2.4 1.2-3.5.4-1.1-.9-1.2-2.4-.4-3.5 1.7-2.1 3.6-4.1 5.6-5.9C67.5 8.6 78 3.9 88.6 3.1c10.7-.8 20.2 2.6 26.6 9.7 6.4 7 8.9 16.8 7.1 27.4-1.8 10.4-7.5 20.5-16.1 28.3-2.4 2.2-5.1 4.2-7.8 5.9-.4.3-.9.4-1.3.4z"/><path class="st1" d="M54.1 55.5c-.6 0-1.3-.2-1.8-.7-1-1-1-2.6 0-3.5l37.7-38c1-1 2.6-1 3.5 0 1 1 1 2.6 0 3.5l-37.7 38c-.4.5-1 .7-1.7.7zM74.1 72.5c-.6 0-1.3-.2-1.8-.7-1-1-1-2.6 0-3.5l37.7-38c1-1 2.6-1 3.5 0 1 1 1 2.6 0 3.5l-37.7 38c-.4.5-1 .7-1.7.7zM61.2 66.5c-.6 0-1.3-.2-1.8-.7-1-1-1-2.6 0-3.5l44.3-43.5c1-1 2.6-1 3.5 0 1 1 1 2.6 0 3.5L62.9 65.8c-.5.5-1.1.7-1.7.7z"/><path class="st1" d="M108.3 51.8c-.6 0-1.3-.2-1.8-.7L74.1 18.6c-1-1-1-2.6 0-3.5 1-1 2.6-1 3.5 0L110 47.5c1 1 1 2.6 0 3.5-.4.5-1.1.8-1.7.8zM110 36.5c-.6 0-1.3-.2-1.8-.7L89.4 16.9c-1-1-1-2.6 0-3.5 1-1 2.6-1 3.5 0l18.8 18.8c1 1 1 2.6 0 3.5-.4.6-1.1.8-1.7.8zM73 71.5c-.6 0-1.3-.2-1.8-.7L52.4 51.9c-1-1-1-2.6 0-3.5 1-1 2.6-1 3.5 0l18.8 18.8c1 1 1 2.6 0 3.5-.4.6-1.1.8-1.7.8zM89.3 69.8c-.6 0-1.3-.2-1.8-.7L55.1 36.6c-1-1-1-2.6 0-3.5 1-1 2.6-1 3.5 0L91 65.5c1 1 1 2.6 0 3.5-.4.5-1.1.8-1.7.8zM100 62.5c-.6 0-1.3-.2-1.8-.7L64.1 27.6c-1-1-1-2.6 0-3.5 1-1 2.6-1 3.5 0l34.1 34.1c1 1 1 2.6 0 3.5-.4.6-1 .8-1.7.8zM31.7 90.2c-.6 0-1.3-.2-1.8-.7-1-1-1-2.6 0-3.5l18.7-18.7c1-1 2.6-1 3.5 0 1 1 1 2.6 0 3.5L33.5 89.5c-.5.5-1.2.7-1.8.7zM37.9 96.4c-.6 0-1.3-.2-1.8-.7-1-1-1-2.6 0-3.5l19-19c1-1 2.6-1 3.5 0 1 1 1 2.6 0 3.5l-19 19c-.4.4-1.1.7-1.7.7z"/><path class="st1" d="M51.5 85c-1.3 0-2.3-1-2.5-2.2-.1-1.4.9-2.6 2.2-2.7l19-2c1.4-.2 2.6.9 2.7 2.2.1 1.4-.9 2.6-2.2 2.7l-19 2h-.2zM42.5 79h-.2c-1.4-.1-2.4-1.3-2.3-2.7L41.4 56c.1-1.4 1.3-2.4 2.7-2.3 1.4.1 2.4 1.3 2.3 2.7L45 76.7c-.1 1.3-1.2 2.3-2.5 2.3zM14.5 123c-.6 0-1.3-.2-1.8-.7l-9-9c-1-1-1-2.6 0-3.5l4-4c1-1 2.6-1 3.5 0 1 1 1 2.6 0 3.5L9 111.5l5.5 5.5 21.4-21.4-5.7-5.6-12.9 13.2c-1 1-2.5 1-3.5 0s-1-2.5 0-3.5l14.7-15c1-1 2.5-1 3.5-.1l9.3 9c.5.5.8 1.1.8 1.8s-.3 1.3-.7 1.8l-25 25c-.6.6-1.3.8-1.9.8z"/></svg>