<svg version="1.1" id="Layer_1" xmlns="http://www.w3.org/2000/svg" x="0" y="0" viewBox="0 0 128 128" style="enable-background:new 0 0 128 128" xml:space="preserve"><style>.st1{fill:#231f20}</style><circle cx="97.8" cy="37.3" r="12.3" style="fill:#d6b2f5"/><path class="st1" d="M70.2 31H13.8c-3.4 0-6.2-2.8-6.2-6.2s2.8-6.2 6.2-6.2h56.5c3.4 0 6.2 2.8 6.2 6.2S73.7 31 70.2 31zm-56.4-7.5c-.7 0-1.2.6-1.2 1.2s.6 1.2 1.2 1.2h56.5c.7 0 1.2-.6 1.2-1.2s-.6-1.2-1.2-1.2H13.8z"/><path class="st1" d="M61.2 23.5c-.9 0-1.8-.5-2.2-1.4C55.5 15.3 48.6 11 41 11s-14.5 4.3-17.9 11.1c-.6 1.2-2.1 1.7-3.4 1.1-1.2-.6-1.7-2.1-1.1-3.4C22.9 11.3 31.4 6 41 6s18.1 5.3 22.4 13.9c.6 1.2.1 2.7-1.1 3.4-.4.1-.8.2-1.1.2zM40.4 59.7c-18 0-21.9-27.9-22-29.1-.2-1.4.8-2.6 2.1-2.8 1.4-.2 2.6.8 2.8 2.1 0 .3 3.6 25.3 17.6 24.7C55 54.1 57 30.5 57 30.3c.1-1.4 1.3-2.4 2.7-2.3 1.4.1 2.4 1.3 2.3 2.7-.1 1.2-2.4 28.2-20.9 29h-.7z"/><path class="st1" d="M29.1 38.2c-2.2 0-3.9-.1-4.8-.2-1.4-.1-2.4-1.3-2.3-2.7.1-1.4 1.3-2.4 2.7-2.3 6.8.5 17.5-.3 18.8-3.7.5-1.3 2-1.9 3.2-1.4 1.3.5 1.9 2 1.4 3.2-2.3 6.1-12.5 7.1-19 7.1zM68.5 123.9H11.6c-1.4 0-2.5-1.1-2.5-2.5V79c0-.5 1.2-13.3 19.4-20.8 1-.4 2.2-.1 2.9.8.1.1 4.6 5.9 9.7 5.7 2.7-.1 5.2-2 7.5-5.5.6-1 1.8-1.4 2.9-1 .7.3 18.3 6.7 19.4 22.2 1 14 0 40 0 41.1 0 1.3-1.1 2.4-2.4 2.4zm-54.4-5h52c.2-6.9.7-26.9-.1-38.2-.7-9.7-10.4-15.2-14.4-17.1-3 3.9-6.4 5.9-10.3 6.1-5.6.2-10.3-3.8-12.5-6.1-13.1 6-14.6 14.8-14.7 15.8v39.5z"/><path class="st1" d="M24.5 122.6c-1.4 0-2.5-1.1-2.5-2.5V87.4c0-1.4 1.1-2.5 2.5-2.5S27 86 27 87.4v32.7c0 1.4-1.1 2.5-2.5 2.5zM55.9 122.6c-1.4 0-2.5-1.1-2.5-2.5V87.4c0-1.4 1.1-2.5 2.5-2.5s2.5 1.1 2.5 2.5v32.7c0 1.4-1.1 2.5-2.5 2.5z"/><path class="st1" d="M68.9 106.3H57.5c-1.4 0-2.5-1.1-2.5-2.5s1.1-2.5 2.5-2.5h11.4c1.4 0 2.5 1.1 2.5 2.5s-1.1 2.5-2.5 2.5zM23.2 106.3H13.1c-1.4 0-2.5-1.1-2.5-2.5s1.1-2.5 2.5-2.5h10.1c1.4 0 2.5 1.1 2.5 2.5s-1.1 2.5-2.5 2.5zM61.2 66.5c-1.4 0-2.5-1.1-2.5-2.5v-9.3c0-1 .6-1.8 1.4-2.3l12.8-6.1c.6-.3 1.3-.3 2-.1l15.5 5.9c1.3.5 1.9 1.9 1.4 3.2-.5 1.3-1.9 1.9-3.2 1.4l-14.5-5.5-10.4 5V64c0 1.4-1.2 2.5-2.5 2.5z"/><path class="st1" d="M97.5 69c-.7 0-1.4-.3-1.9-.9-.8-.9-19.1-22.9-14.5-37.7 1.7-5.5 6.3-9.3 13.5-11.3 2-.5 4.2-.6 6.3-.1 3.8.8 10.7 3.3 13.3 10.3 3.3 8.9-1.7 21.9-14.7 38.7-.5.6-1.2 1-2 1zm.5-45.3c-.7 0-1.4.1-2.1.3-5.5 1.5-8.8 4.1-10 7.9-2.8 9 6.1 23.4 11.6 30.5 12.9-17.5 13.7-26.7 12-31.4-1.7-4.5-6.1-6.4-9.6-7.1-.7-.2-1.3-.2-1.9-.2z"/><path class="st1" d="M97 46c-5 0-9-4-9-9s4-9 9-9 9 4 9 9-4 9-9 9zm0-13c-2.2 0-4 1.8-4 4s1.8 4 4 4 4-1.8 4-4-1.8-4-4-4zM120.5 97.3c-.3 0-.7-.1-1-.2l-14-5.9-14 5.9c-.7.3-1.4.3-2.1-.1l-13.8-6.7-3.2 2.5c-1.1.9-2.7.7-3.5-.4-.9-1.1-.7-2.7.4-3.5l4.4-3.5c.8-.6 1.8-.7 2.6-.3L90.6 92l14-5.8c.6-.3 1.3-.3 1.9 0L118 91V57.1l-10.7-5c-1.3-.6-1.8-2.1-1.2-3.3.6-1.3 2.1-1.8 3.3-1.2l12.2 5.6c.9.4 1.5 1.3 1.5 2.3v39.3c0 .8-.4 1.6-1.1 2.1-.5.2-1 .4-1.5.4z"/><path class="st1" d="M95.9 81.4c-1.7 0-3.7-.2-6-.7-3.1-.6-5.2-1.9-6.4-3.7-.2-.3-.3-.6-.4-.8h-2.6c-3.5 0-6.3-2.8-6.3-6.3v-3.4c.3-6.9 12.6-8.2 15.1-8.4 1.4-.1 2.6.9 2.7 2.3.1 1.4-.9 2.6-2.3 2.7-5.1.4-10.3 2.2-10.5 3.6V70c0 .7.6 1.3 1.3 1.3h4.7c.8 0 1.5.3 2 .9.4.6.6 1.3.5 2 0 .3.7 1.2 3.3 1.7 6.1 1.3 7.6.2 7.8 0 .4-.4.3-1.2.2-1.9-.3-1.7-.4-3.6.9-4.9 1.3-1.3 3-1 4.2-.8 1.4.2 1.8.2 2.3-.2 1.1-1.1 1-2.5.6-3.5-.1-.3-.6-1.4-1.6-1.4-1.4 0-2.5-1.1-2.5-2.5s1.1-2.5 2.5-2.5c2.7 0 5.1 1.7 6.2 4.5 1.3 3.2.6 6.7-1.8 9-2 2-4.4 1.9-6 1.7.5 3.3-.6 5.1-1.7 6.2-1.2 1.1-3.3 1.8-6.2 1.8zm-8.2-7.2zm0 0zm0 0zm0-.2"/></svg>