<svg version="1.1" id="Layer_1" xmlns="http://www.w3.org/2000/svg" x="0" y="0" viewBox="0 0 128 128" style="enable-background:new 0 0 128 128" xml:space="preserve"><style>.st1{fill:#231f20}</style><circle cx="56.2" cy="53.3" r="15.2" style="fill:#d6b2f5"/><path class="st1" d="M117.3 85.2h-6.9c-1.5 0-2.7-1.2-2.7-2.7s1.2-2.7 2.7-2.7h5.5l4.1-5.5V54.6l-6.5-13.2H95.9v26.4c0 1.5-1.2 2.7-2.7 2.7-1.5 0-2.7-1.2-2.7-2.7V38.6c0-1.5 1.2-2.7 2.7-2.7h22.1c1 0 2 .6 2.5 1.5l7.5 15.4c.2.4.3.8.3 1.2v21.2c0 .6-.2 1.2-.5 1.6l-5.5 7.3c-.6.7-1.5 1.1-2.3 1.1z"/><path class="st1" d="M101.9 71c-1.5 0-2.7-1.2-2.7-2.7V40.8c0-1.5 1.2-2.7 2.7-2.7s2.7 1.2 2.7 2.7v27.5c.1 1.5-1.2 2.7-2.7 2.7z"/><path class="st1" d="M122.8 56.7H102c-1.5 0-2.7-1.2-2.7-2.7 0-1.5 1.2-2.7 2.7-2.7h20.8c1.5 0 2.7 1.2 2.7 2.7 0 1.5-1.2 2.7-2.7 2.7zM122.8 75.7H108c-1.5 0-2.7-1.2-2.7-2.7 0-1.5 1.2-2.7 2.7-2.7h14.8c1.5 0 2.7 1.2 2.7 2.7 0 1.5-1.2 2.7-2.7 2.7zM112.3 64h-3.8c-1.5 0-2.7-1.2-2.7-2.7s1.2-2.7 2.7-2.7h3.8c1.5 0 2.7 1.2 2.7 2.7s-1.1 2.7-2.7 2.7z"/><path class="st1" d="M97.3 94c-8 0-14.5-6.5-14.5-14.5S89.3 65 97.3 65s14.5 6.5 14.5 14.5S105.3 94 97.3 94zm0-23.6c-5 0-9 4.1-9 9s4.1 9 9 9 9-4.1 9-9-4.1-9-9-9z"/><path class="st1" d="M97.3 86.5c-3.9 0-7-3.2-7-7s3.2-7 7-7 7 3.2 7 7-3.2 7-7 7zm0-8.6c-.9 0-1.5.7-1.5 1.5s.7 1.5 1.5 1.5 1.5-.7 1.5-1.5-.7-1.5-1.5-1.5zM33.6 94c-8 0-14.5-6.5-14.5-14.5S25.6 65 33.6 65s14.5 6.5 14.5 14.5S41.7 94 33.6 94zm0-23.6c-5 0-9 4.1-9 9s4.1 9 9 9 9-4.1 9-9-4-9-9-9z"/><path class="st1" d="M33.6 86.5c-3.9 0-7-3.2-7-7s3.2-7 7-7 7 3.2 7 7-3.1 7-7 7zm0-8.6c-.9 0-1.5.7-1.5 1.5s.7 1.5 1.5 1.5 1.5-.7 1.5-1.5-.6-1.5-1.5-1.5zM85.5 75.7H46.2c-1.5 0-2.7-1.2-2.7-2.7 0-1.5 1.2-2.7 2.7-2.7h36.5V36.5H42.3c-1.5 0-2.7-1.2-2.7-2.7 0-1.5 1.2-2.7 2.7-2.7h43.1c1.5 0 2.7 1.2 2.7 2.7V73c.1 1.5-1.1 2.7-2.6 2.7zM85.7 84.3H45.4c-1.5 0-2.7-1.2-2.7-2.7 0-1.5 1.2-2.7 2.7-2.7h40.2c1.5 0 2.7 1.2 2.7 2.7.1 1.4-1.1 2.7-2.6 2.7z"/><path class="st1" d="M23.8 75.7H3.6C2.1 75.7.9 74.5.9 73V62.6c0-1.5 1.2-2.7 2.7-2.7h2.8c0-.1.1-.2.2-.2l18-24.1.1-6.8c0-1.5 1.2-2.7 2.7-2.7H35c.6 0 1.3.2 1.8.6l6.6 5.5c1.1.9 1.3 2.6.5 3.7l-21 28.3c-.5.7-1.3 1.1-2.2 1.1H6.3v4.9h17.5c1.5 0 2.7 1.2 2.7 2.7 0 1.6-1.2 2.8-2.7 2.8zM13.3 59.8h6l18.5-25.2-3.8-3.1h-3.9v5c0 .6-.2 1.2-.5 1.6L13.3 59.8z"/><path class="st1" d="M19.5 84.3h-7c-.9 0-1.8-.5-2.3-1.3l-4.9-7.8c-.8-1.3-.4-3 .9-3.8 1.3-.8 3-.4 3.8.9l4.1 6.5h5.5c1.5 0 2.7 1.2 2.7 2.7 0 1.5-1.3 2.8-2.8 2.8zM59.1 84.3c-1.5 0-2.7-1.2-2.7-2.7v-2.9c0-1.5 1.2-2.7 2.7-2.7 1.5 0 2.7 1.2 2.7 2.7v2.9c.1 1.4-1.1 2.7-2.7 2.7zM73.2 84.3c-1.5 0-2.7-1.2-2.7-2.7v-2.9c0-1.5 1.2-2.7 2.7-2.7 1.5 0 2.7 1.2 2.7 2.7v2.9c0 1.4-1.2 2.7-2.7 2.7zM37.9 62.8c-.6 0-1.2-.2-1.7-.6-1.2-.9-1.4-2.6-.5-3.8L47 43.5c.9-1.2 2.6-1.4 3.8-.5 1.2.9 1.4 2.6.5 3.8L40.1 61.7c-.5.7-1.3 1.1-2.2 1.1zM49.3 62.8c-.6 0-1.1-.2-1.6-.5-1.2-.9-1.5-2.6-.5-3.8l11.2-14.9c.9-1.2 2.6-1.5 3.8-.5 1.2.9 1.5 2.6.5 3.8L51.5 61.7c-.6.7-1.4 1.1-2.2 1.1zM60.4 63.3c-.6 0-1.2-.2-1.7-.6-1.2-1-1.3-2.7-.4-3.9L71 43.4c1-1.2 2.7-1.3 3.9-.4 1.2 1 1.3 2.7.4 3.9L62.5 62.3c-.5.7-1.3 1-2.1 1zM76.7 74.3c-.6 0-1.1-.2-1.6-.5-1.2-.9-1.5-2.6-.6-3.8l8.2-11.5c.9-1.2 2.6-1.5 3.8-.6 1.2.9 1.5 2.6.6 3.8l-8.2 11.5c-.5.7-1.4 1.1-2.2 1.1z"/></svg>