<svg version="1.1" id="Layer_1" xmlns="http://www.w3.org/2000/svg" x="0" y="0" viewBox="0 0 128 128" xml:space="preserve"><style>.st0{fill:#d6b2f5}.st1{fill:#0a0a0a}</style><switch><g><circle class="st0" cx="24" cy="30.6" r="8.3"/><circle class="st0" cx="61.8" cy="102.6" r="12.1"/><path class="st1" d="M117.9 97.7h-16.2c-1.4 0-2.5-1.1-2.5-2.5s1.1-2.5 2.5-2.5h13.7V16.9H11.2v75.8h15.3c1.4 0 2.5 1.1 2.5 2.5s-1.1 2.5-2.5 2.5H8.7c-1.4 0-2.5-1.1-2.5-2.5V14.4c0-1.4 1.1-2.5 2.5-2.5h109.2c1.4 0 2.5 1.1 2.5 2.5v80.8c0 1.4-1.1 2.5-2.5 2.5z"/><path class="st1" d="M122.5 16.9H2.7c-1.4 0-2.5-1.1-2.5-2.5C.2 7.5 5.8 2 12.7 2h99.9c6.9 0 12.5 5.6 12.5 12.5-.1 1.3-1.2 2.4-2.6 2.4zm-116.8-5h113.9c-1-2.9-3.8-5-7-5H12.7c-3.2.1-6 2.1-7 5zM64.7 75c-.9 0-1.6-.1-2.1-.1-5 .3-9.1-1-12.2-3.9-5.2-4.8-5.4-12.4-5.4-12.7V44.6c0-1.2.8-2.2 2-2.5 3.9-.8 6.6-5.7 7.3-7.5.4-.9 1.2-1.5 2.2-1.6 1 0 1.9.5 2.3 1.4 3.5 6.9 16.3 7.5 20.9 7.2.7 0 1.4.2 1.9.7s.8 1.1.8 1.8V64c0 .5-.2 1.1-.5 1.5-6.2 8.3-13.5 9.5-17.2 9.5zm-1.9-5.1c.2 0 .3 0 .5.1.3.1 7.6 1.3 14.1-6.8V46.7c-4.8 0-14.8-.8-20.5-6.5-1.5 2.2-3.8 4.9-7 6.2v11.8s.2 5.7 3.9 9.1c2.1 1.9 5 2.8 8.7 2.5.2.1.2.1.3.1z"/><path class="st1" d="M32 88.8c-1.3 0-2.4-1-2.5-2.2-.5-5.9 5.4-10.3 5.6-10.4.2-.1.3-.2.5-.3.6-.2 2.3-1.2 2.6-2.6.3-1.3-.9-2.9-2-4-6.1-6.4-2.8-13.7.4-17.5-.7-3.8-2-15.4 4.8-24.1 4.8-6.3 12.7-9.6 23.2-10.1 10-.4 17.4 2.2 22 7.9 7.3 9 4.8 22.6 3.8 26.8 3 3.9 6.1 11.1.4 16.5-1.6 1.5-2.1 2.7-2 3.2.1.4.7.9 1 1 .7.3 1.3.9 1.5 1.7l1.8 7.5c.3 1.3-.5 2.6-1.9 2.9-1.3.3-2.7-.5-3-1.8l-1.5-6.4c-1-.7-2.4-1.9-2.8-3.9-.5-2.4.7-5 3.5-7.6 4.4-4.1-1.3-10.5-1.5-10.8-.6-.6-.8-1.5-.5-2.3 0-.1 4.3-15.1-2.6-23.7-3.5-4.4-9.5-6.4-17.9-6-9 .4-15.5 3.1-19.4 8.1-6.7 8.6-3.7 21.2-3.7 21.3.2.8 0 1.7-.7 2.3-.6.6-6.2 6.5-1.2 11.8 2.7 2.9 3.8 5.7 3.2 8.4-.8 3.5-4.1 5.3-5.3 5.9-1.2.9-3.6 3.4-3.4 5.9.1 1.3-.9 2.5-2.3 2.6 0-.1-.1-.1-.1-.1z"/><path class="st1" d="M38.2 126h-.9c-4.3-.3-7.8-2.6-10.4-6.9-11.6-18.9 6.8-38.1 6.9-38.3.3-.3.7-.5 1.1-.7 12.7-3.8 16.3-6.2 17.4-7.1-.2-.7 0-1.4.4-2 .8-1.1 2.4-1.4 3.5-.6.8.5 1.6 1.7 1.3 3.3-.4 2.5-3.2 5.8-20.5 11-2.5 2.8-14.6 17.5-5.8 31.8 1.7 2.8 3.9 4.3 6.5 4.5 7.9.5 18.7-10.4 22.7-15.1.4-1.3.7-3.8-.3-4.9-.8-1-2.7-1-4.2-.8-.3 0-.5.1-.8 0 0 0-.1 0-.1.1 0 0-.8.8-.3 4.2.1 1.1-.4 2.1-1.4 2.6l-16.5 8.2c-1.2.6-2.7.1-3.3-1.1-.6-1.2-.1-2.7 1.1-3.3l15-7.4c-.2-3.1.5-5.3 2-6.7 1.3-1.2 2.8-1.5 4-1.4 3.8-.4 6.6.5 8.4 2.7 3 3.7 1.2 9.4 1 10-.1.3-.2.5-.4.8-.7.6-14.3 17.1-26.4 17.1zM55 100.2zm-1.7-25.7z"/><path class="st1" d="M100.7 125.1l-52.1-.3c-1.4 0-2.5-1.1-2.5-2.5s1.1-2.5 2.5-2.5l49.7.3c.1-4.8.1-15.9-2.1-24.3-2.6-9.9-16.4-15.3-20.3-15.2-5.4.1-7.2-5.1-7.5-7.8-.1-1.4.9-2.6 2.3-2.7 1.4-.1 2.6.9 2.7 2.3 0 .2.4 3.3 2.3 3.3h.2c6 0 21.8 6.5 25.1 19 3.1 11.8 2.2 27.6 2.1 28.2 0 1.2-1.1 2.2-2.4 2.2z"/><path class="st1" d="M82.7 124.4c-.5 0-1-.2-1.5-.5-1.1-.8-1.3-2.4-.5-3.5 0 0 1.8-2.7 4.3-11.4 2.3-8.4-2-16.5-2-16.6-.7-1.2-.2-2.7 1-3.4 1.2-.7 2.7-.2 3.4 1 .2.4 5.3 9.9 2.4 20.3-2.7 9.7-4.8 12.7-5.1 13-.5.8-1.3 1.1-2 1.1zM39.1 111.9c-1.1 0-2-.7-2.4-1.8-2.3-7.2 2.8-18.5 3.4-19.8.6-1.3 2.1-1.8 3.3-1.2 1.3.6 1.8 2.1 1.2 3.3-1.4 3-4.6 11.6-3.2 16.2.4 1.3-.3 2.7-1.6 3.1-.2.1-.5.2-.7.2z"/><path class="st1" d="M37.3 106.5H26.5c-1.4 0-2.5-1.1-2.5-2.5s1.1-2.5 2.5-2.5h10.8c1.4 0 2.5 1.1 2.5 2.5s-1.1 2.5-2.5 2.5zM64.3 84.2c-6.9 0-12.7-2.4-13.1-2.6-1.3-.5-1.9-2-1.3-3.3.5-1.3 2-1.9 3.3-1.3.1 0 11.4 4.6 19.4.3 1.2-.7 2.7-.2 3.4 1 .7 1.2.2 2.7-1 3.4-3.5 1.9-7.3 2.5-10.7 2.5z"/><path class="st1" d="M64 121.9c-.3 0-.5 0-.8-.1l-7.5-2.4c-1.3-.4-2-1.8-1.6-3.1.4-1.3 1.8-2 3.1-1.6l6.7 2.2 13.3-4.3V88.9L64 92.7c-.5.1-1 .1-1.4 0L49 88.4l.4 15.9c0 1.4-1.1 2.5-2.4 2.6h-.1c-1.4 0-2.5-1.1-2.5-2.4L44 85.1c0-.8.4-1.6 1-2.1s1.5-.6 2.2-.4l16.2 5.1 15.7-4.5c.8-.2 1.6-.1 2.2.4.6.5 1 1.2 1 2v28.7c0 1.1-.7 2-1.7 2.4l-15.8 5.1c-.3 0-.6.1-.8.1z"/><path class="st1" d="M63.4 102.6c-1.4 0-2.5-1.1-2.5-2.5v-7.7c0-1.4 1.1-2.5 2.5-2.5s2.5 1.1 2.5 2.5v7.7c0 1.4-1.1 2.5-2.5 2.5zM62.6 121.1c-1.5 0-2.5-1.2-2.5-2.6l.3-8.2c0-1.4 1.2-2.5 2.6-2.4 1.4 0 2.5 1.2 2.4 2.6l-.3 8.2c0 1.3-1.1 2.4-2.5 2.4zM98.6 110.3h-9.5c-1.4 0-2.5-1.1-2.5-2.5s1.1-2.5 2.5-2.5h9.5c1.4 0 2.5 1.1 2.5 2.5s-1.1 2.5-2.5 2.5z"/></g></switch></svg>