<svg version="1.1" id="Layer_1" xmlns="http://www.w3.org/2000/svg" x="0" y="0" viewBox="0 0 128 128" xml:space="preserve"><style>.st1{fill:#070707}</style><switch><g><circle cx="65.5" cy="58.4" r="34.6" fill="#d6b2f5"/><path class="st1" d="M65.2 126.9c-.8 0-1.6-.4-2.1-1.1-.1-.1-7.7-11.1-21.3-18.2-2.7-.9-28.6-10.5-28.9-28.4-.3-16.8-.9-62-.9-62.4 0-.7.3-1.4.9-1.9.6-.5 1.3-.7 2-.6.2 0 23.1 3.5 48-13.2.7-.5 1.7-.6 2.5-.2.3.2 34.8 17.3 49.2 13.7.8-.2 1.5 0 2.1.5.6.5 1 1.2 1 2v53.2c.5 2.9 3.1 26.7-27.1 35.6-10.7 6.4-22.5 15.4-23 18.8-.1 1-.9 1.9-1.9 2.1-.1.1-.3.1-.5.1zM17 19.5c.1 10.2.6 45.3.9 59.6.2 15 25.4 23.7 25.7 23.8.1 0 .2.1.3.1 10.3 5.3 17.3 12.5 20.8 16.7 5.2-7.1 18.8-15.5 23.6-18.3l.6-.3c27.9-8.1 24.1-29.3 23.9-30.2v-51C97.3 21.3 70.7 9.1 64.5 6 43.4 19.7 24.2 20 17 19.5z"/><path class="st1" d="M65.1 116.5c-.8 0-1.6-.4-2.1-1.1-.1-.1-6.3-9.1-17.5-14.9-2.4-.8-24-8.8-24.2-23.9-.2-14.1-.8-51.8-.8-51.8 0-.7.3-1.4.9-1.9.6-.5 1.3-.7 2-.6.2 0 19 2.9 39.5-10.9.7-.5 1.7-.6 2.5-.2 7.9 4 30.7 13.8 40.5 11.3.8-.2 1.5 0 2.1.5.6.5 1 1.2 1 2v44.1c.4 2.7 2.5 22.5-22.8 30-8.8 5.3-18.4 12.7-18.8 15.3-.1 1-.9 1.9-1.9 2.1h-.4zm-39.4-89c.1 9 .5 37.2.7 49 .2 12.1 20.8 19.3 21 19.3.1 0 .2.1.3.1 8.3 4.3 14 10 17 13.6 4.6-5.9 15.5-12.6 19.3-14.9l.6-.3c22.9-6.6 19.7-23.8 19.5-24.6 0-.2-.1-.3-.1-.5V27.9c-12.7.8-33.9-8.9-39.4-11.5-17.1 11-32.6 11.5-38.9 11.1z"/><path class="st1" d="M77.8 92.7H52.5c-.6 0-1.2-.2-1.7-.7L38.5 80.5c-.5-.5-.8-1.1-.8-1.8V45.3h-3c-.7 0-1.3-.3-1.8-.7-.5-.5-.7-1.1-.7-1.8V30.4c0-1.4 1.1-2.5 2.5-2.5h21.5c1.4 0 2.5 1.1 2.5 2.5v12.4c0 1.4-1.1 2.5-2.5 2.5h-2.9v26.5l4.8 3.7 13.4-.6 4.9-4.2-.2-26.9-4.4-.6c-1.2-.2-2.1-1.2-2.2-2.4l-.2-10.4c0-.7.2-1.3.7-1.8.5-.5 1.1-.8 1.8-.8h21.9c1.4 0 2.5 1.1 2.5 2.5v10.8c0 1.1-.8 2.1-1.8 2.4l-2.4.6V48c0 1.4-1.1 2.5-2.5 2.5s-2.5-1.1-2.5-2.5v-5.7c0-1.1.8-2.1 1.8-2.4l2.4-.6V33H74.5l.1 5.7 4.4.6c1.2.2 2.1 1.2 2.2 2.5l.2 30.2c0 .7-.3 1.4-.9 1.9l-6.4 5.5c-.4.4-1 .6-1.5.6l-15.1.6c-.6 0-1.2-.2-1.6-.5l-6.5-5c-.6-.5-1-1.2-1-2V42.8c0-1.4 1.1-2.5 2.5-2.5h2.9v-7.4H37.2v7.4h3c.7 0 1.3.3 1.8.7.5.5.7 1.1.7 1.8v34.9l10.7 10h23.3l10.4-11.1V55.9c0-1.4 1.1-2.5 2.5-2.5s2.5 1.1 2.5 2.5v21.7c0 .6-.2 1.2-.7 1.7L79.6 91.9c-.5.5-1.1.8-1.8.8z"/></g></switch></svg>