<svg version="1.1" id="Layer_1" xmlns="http://www.w3.org/2000/svg" x="0" y="0" viewBox="0 0 128 128" style="enable-background:new 0 0 128 128" xml:space="preserve"><style>.st1{fill:#231f20}</style><ellipse cx="52.6" cy="34.5" rx="14.2" ry="13.5" style="fill:#d6b2f5"/><path class="st1" d="M53.5 48C46.6 48 41 42.4 41 35.5S46.6 23 53.5 23 66 28.6 66 35.5 60.4 48 53.5 48zm0-20c-4.1 0-7.5 3.4-7.5 7.5s3.4 7.5 7.5 7.5 7.5-3.4 7.5-7.5-3.4-7.5-7.5-7.5z"/><path class="st1" d="M96.7 119.8c-2.1 0-4.1-.8-6.1-2.3-2.3-1.8-3.6-4.5-3.6-7.5V88s0-.1-.1-.1c-.2 0-.4.1-.5.2l-25.7 28.3-.4.2c-5.7 3-10.7 2.8-14 2-1.9-.5-3.4-1.9-4-3.7-.6-1.9-.1-3.9 1.3-5.3 15.5-16.3 26.2-28.1 27.8-31 1.2-2.1 1.6-3.3 1.7-3.9l-8.8-8.2c-.4-.3-.9-.4-1.3-.1l-1.6 1.2 5.4 4.2c1.7 1.3 2.5 3.4 2.1 5.4-.3 2-1.8 3.7-3.7 4.4-3.5 1.2-7.9.4-8.4.4h-.1l-.3-.1c-.2-.1-5.5-2.4-10.8-8.4-2.3-2.6-3.2-5.2-2.7-7.5.5-2.4 2.3-3.6 3.2-4.1l20-16.9c.7-.6 1.2-1.4 1.4-2.3l2.5-10c.2-.7 0-1.4-.4-2l-11.4-15-.1-.4c-1-3.1-.8-5.6.6-7.4 1.6-1.9 4.4-2.7 8.1-2.2 1.8.2 3.5 1.1 4.6 2.6l11.9 14.6c5.3 5.4 3.1 15.6 1.3 21.2-.2.5-.1 1 .3 1.4 7.2 7.9 17.2 27.7 20.1 33.5.6 1.2.9 2.6.9 3.9v28c0 2.8-1.4 5.5-3.7 7-1.7 1.3-3.6 1.9-5.5 1.9zM86.9 83c2.8 0 5.1 2.3 5.1 5.1v22c0 1.4.6 2.7 1.7 3.5 2 1.5 3.7 1.6 5.8.2 1-.7 1.5-1.7 1.5-2.9v-28c0-.6-.1-1.2-.4-1.7-5.9-11.8-14-26.5-19.4-32.4-1.5-1.7-2-4.1-1.3-6.2 2.4-7.6 2.4-13.7-.2-16.3l-.2-.2-11.9-14.7c-.3-.4-.8-.7-1.4-.8-2.3-.3-3.4.1-3.6.4-.2.2-.3.9.1 2.3l10.9 14.3c1.3 1.8 1.8 4 1.3 6.2l-2.4 10.1c-.5 1.9-1.5 3.7-3.1 4.9L48.9 66.1l-.3.1s-.6.3-.7.8c0 .2-.1 1.2 1.6 3.1 3.9 4.4 7.8 6.5 8.8 7 1.2.2 3.8.4 5.6-.2.3-.1.4-.3.4-.5s0-.4-.3-.7l-5.7-4.4c-1.2-.9-1.8-2.3-1.8-3.8s.7-2.8 1.9-3.7l1.9-1.5c2.3-1.8 5.6-1.6 7.7.4l9.2 8.7c1.9 1.5 1.5 4.7-1.2 9.6-2.6 4.5-19 22-28.6 32-.1.1-.2.3-.1.4 0 .2.2.3.3.3 3.4.8 6.7.3 10.1-1.4l25.1-27.6c1-1 2.5-1.7 4.1-1.7z"/></svg>