<svg version="1.1" id="Layer_1" xmlns="http://www.w3.org/2000/svg" x="0" y="0" viewBox="0 0 128 128" xml:space="preserve"><style>.st0{fill:#d6b2f5}.st1{fill:#070707}</style><switch><g><circle class="st0" cx="48" cy="67.1" r="23"/><circle class="st0" cx="106.2" cy="104.4" r="17.8"/><path class="st1" d="M121.2 96.7c-1.4 0-2.5-1.1-2.5-2.5L117.5 31c0-1.4 1.1-2.5 2.5-2.5s2.5 1.1 2.5 2.5l1.2 63.2c0 1.3-1.1 2.5-2.5 2.5zM93.6 118H8.4c-1.4 0-2.5-1.1-2.5-2.5V26.6c0-1.4 1.1-2.5 2.5-2.5h78.3c1.4 0 2.5 1.1 2.5 2.5s-1.1 2.5-2.5 2.5H10.9V113h82.6c1.4 0 2.5 1.1 2.5 2.5s-1.1 2.5-2.4 2.5z"/><path class="st1" d="M106.2 123.8c-10.7 0-19.4-8.7-19.4-19.4S95.5 85 106.2 85s19.4 8.7 19.4 19.4-8.6 19.4-19.4 19.4zm0-33.8c-7.9 0-14.4 6.5-14.4 14.4s6.5 14.4 14.4 14.4 14.4-6.5 14.4-14.4S114.2 90 106.2 90zM120.3 32.2h-.4c-1.4-.2-2.3-1.5-2-2.9.2-.9.2-1.8.2-2.6 0-7.9-6.5-14.4-14.4-14.4s-14.4 6.5-14.4 14.4c0 1.4-1.1 2.5-2.5 2.5s-2.5-1.1-2.5-2.5C84.3 16 93 7.3 103.7 7.3s19.4 8.7 19.4 19.4c0 1.2-.1 2.3-.3 3.5-.3 1.2-1.3 2-2.5 2z"/><path class="st1" d="M106.2 114c-5.3 0-9.6-4.3-9.6-9.6s4.3-9.6 9.6-9.6 9.6 4.3 9.6 9.6-4.2 9.6-9.6 9.6zm0-14.3c-2.5 0-4.6 2.1-4.6 4.6s2.1 4.6 4.6 4.6 4.6-2.1 4.6-4.6-2-4.6-4.6-4.6zM88.7 105.4c-1.4 0-2.5-1.1-2.5-2.5l-1.3-77.1c0-1.4 1.1-2.5 2.5-2.5s2.5 1.1 2.5 2.5l1.3 77.1c0 1.4-1.1 2.5-2.5 2.5zM48 90c-.6 0-1.2-.2-1.7-.7-.4-.4-.6-.8-.7-1.3-2.7-1.8-8.7-6.6-10.2-14.8C34 65 37.6 56.1 46.2 46.6c.9-1 2.4-1.1 3.4-.3.4.3 9.3 7.4 10.2 19 .7 8-2.7 16.1-9.9 23.9-.5.5-1.2.8-1.9.8zm.2-38.2c-6.3 7.5-8.9 14.4-7.9 20.5 1 6 5.6 9.8 7.7 11.3 5-6.1 7.2-12.1 6.8-18-.5-6.5-4.3-11.4-6.6-13.8z"/><path class="st1" d="M52.3 89.8h-1c-1.4 0-2.5-1.2-2.4-2.6.1-1.4 1.2-2.5 2.6-2.4 16.5.6 20.4-16.9 21.3-23.1-7.4-1.3-12.6 2.3-12.8 2.4-1.1.8-2.7.6-3.5-.5-.8-1.1-.6-2.7.5-3.5.3-.2 8.2-5.9 19.2-2.7 1.1.3 1.9 1.4 1.8 2.6-.7 10.4-7 29.8-25.7 29.8zM44 89.1h-.2c-8.5-.7-15.1-3.7-19.5-9-7-8.4-6.1-19.3-6.1-19.7.1-1 .8-1.8 1.7-2.1 11.2-3.8 17.5 1.8 17.8 2.1 1 .9 1.1 2.5.2 3.5-.9 1-2.5 1.1-3.5.2-.2-.2-4-3.3-11.2-1.5.1 3 .7 9.4 5 14.4 3.6 4.2 9 6.6 16.1 7.2 1.4.1 2.4 1.3 2.3 2.7-.2 1.2-1.3 2.2-2.6 2.2z"/></g></switch></svg>